<svg width="816" height="768" fill="none" xmlns="http://www.w3.org/2000/svg"><g filter="url(#filter0_f_261_377)"><path d="M312.477 607.031c-33.74 25.092-78.271-.14-105.619-20.212-39.571-29.043 14.968-21.705 26.461-36.168 10.969-13.805 27.121-40.927 10.876-55.515-9.484-8.517-38.626-7.273-51.769-9.141-25.472-3.621-37.835-21.246-41.825-41.558-4.364-22.217 29.918-44.414 48.14-53.868 40.579-21.055 78.083-60.712 95.244-98.669 13.255-29.318-4.192-61.843 16.184-90.99 25.308-36.201 95.068-45.971 138.461-49.613 68.766-5.772 117.68 34.454 162.363 74.638 52.066 46.823 68.12 108.128 42.905 169.948-20.99 51.461-59.746 75.61-120.381 76.981-39.836.9-102.166 1.423-130.528 29.16-34.052 33.301-51.025 75.64-90.512 105.007z" fill="#0075FF"/></g><defs><filter id="filter0_f_261_377" x=".221" y=".741" width="815.386" height="766.783" filterUnits="userSpaceOnUse" color-interpolation-filters="sRGB"><feFlood flood-opacity="0" result="BackgroundImageFix"/><feBlend in="SourceGraphic" in2="BackgroundImageFix" result="shape"/><feGaussianBlur stdDeviation="75" result="effect1_foregroundBlur_261_377"/></filter></defs></svg>