<svg width="40" height="40" fill="none" xmlns="http://www.w3.org/2000/svg"><g filter="url(#filter0_b_718_992)"><path d="M0 0v40h29.044a5 5 0 003.54-1.468l5.955-5.969A5 5 0 0040 29.031V0H0z" fill="#2F2F2F" fill-opacity=".4"/><path d="M.5.5v39h28.544a4.5 4.5 0 003.186-1.322l5.955-5.968a4.5 4.5 0 001.315-3.18V.5H.5z" stroke="url(#paint0_linear_718_992)"/></g><path fill-rule="evenodd" clip-rule="evenodd" d="M13.297 4.4a1.2 1.2 0 011.2 1.2v.315l.153-.037a20.587 20.587 0 019.653.037V5.6a1.2 1.2 0 012.4 0v1.194a12.313 12.313 0 016.548 8.276 21.18 21.18 0 010 9.582c-1.057 4.555-4.58 8.12-9.101 9.193-3.124.74-6.376.74-9.5 0-4.522-1.072-8.044-4.638-9.101-9.193a21.194 21.194 0 010-9.582 12.313 12.313 0 016.548-8.276V5.6a1.2 1.2 0 011.2-1.2zm-1.196 5.15a9.929 9.929 0 00-4.215 6.063 18.794 18.794 0 000 8.497c.854 3.677 3.693 6.54 7.318 7.4a18.19 18.19 0 008.392 0c3.625-.86 6.464-3.723 7.317-7.4a18.792 18.792 0 000-8.497A9.929 9.929 0 0026.7 9.55a1.2 1.2 0 01-2.396-.097V8.41a9.743 9.743 0 00-.707-.196 18.187 18.187 0 00-8.392 0c-.24.057-.475.122-.707.196v1.045a1.2 1.2 0 01-2.396.097zm11.187 7.406a1.2 1.2 0 01.128 1.693l-3.953 4.6a1.2 1.2 0 01-1.793.03l-2.259-2.453a1.2 1.2 0 111.766-1.626l1.345 1.461 3.074-3.577a1.2 1.2 0 011.692-.128z" fill="#fff"/><defs><linearGradient id="paint0_linear_718_992" x1="0" y1="0" x2="48.594" y2="33.065" gradientUnits="userSpaceOnUse"><stop stop-color="#fff" stop-opacity=".28"/><stop offset="1" stop-color="#fff" stop-opacity="0"/></linearGradient><filter id="filter0_b_718_992" x="-40" y="-40" width="120" height="120" filterUnits="userSpaceOnUse" color-interpolation-filters="sRGB"><feFlood flood-opacity="0" result="BackgroundImageFix"/><feGaussianBlur in="BackgroundImageFix" stdDeviation="20"/><feComposite in2="SourceAlpha" operator="in" result="effect1_backgroundBlur_718_992"/><feBlend in="SourceGraphic" in2="effect1_backgroundBlur_718_992" result="shape"/></filter></defs></svg>