<svg width="924" height="875" fill="none" xmlns="http://www.w3.org/2000/svg"><g filter="url(#filter0_f_261_379)"><path d="M160.045 657.097c38.55 6.966 82.374 8.09 129.46 3.745 10.729-.991 47.685-7.952 53.717 1.285 7.058 10.808-18.276 36.037-13.077 48.007 6.163 14.192 32.805 17.194 58.641 10.519 38.096-9.844 74.281-35.061 99.18-61.844 16.12-17.34 27.528-32.364 27.568-47.105.047-17.508-2.496-29.976 5.117-50.225 13.835-36.799 51.414-43.274 92.262-55.999 41.447-12.911 68.386-13.395 105.721-46.705 21.578-19.252 49.97-46.692 55.329-66.805 1.923-7.217-126.075 3.64-130.373.052-25.166-21.008 79.528-105.788 42.353-115.531-40.148-10.523-92.291 22.444-112.715-2.508-25.21-30.8-37.306-69.136-64.941-98.284-23.788-25.09-119.377-43.3-184.764 2.325-43.218 30.155-41.079 54.727-37.483 81.102 5.603 41.089 20.999 74.927 49.963 103.218 32.494 31.74 78.553 57.532 88.471 103.082 4.672 21.455-30.951 38.097-59.72 47.142-40.735 12.809-89.891 18.39-130.506 41.447-27.431 15.573-60.497 37.532-69.961 58.937-6.888 15.578-24.152 40.548-4.242 44.145z" fill="#A9FA43"/></g><defs><filter id="filter0_f_261_379" x=".759" y=".018" width="923.225" height="874.028" filterUnits="userSpaceOnUse" color-interpolation-filters="sRGB"><feFlood flood-opacity="0" result="BackgroundImageFix"/><feBlend in="SourceGraphic" in2="BackgroundImageFix" result="shape"/><feGaussianBlur stdDeviation="75" result="effect1_foregroundBlur_261_379"/></filter></defs></svg>