<svg width="40" height="40" fill="none" xmlns="http://www.w3.org/2000/svg"><g filter="url(#filter0_b_718_996)"><path d="M0 0v40h29.044a5 5 0 003.54-1.468l5.955-5.969A5 5 0 0040 29.031V0H0z" fill="#2F2F2F" fill-opacity=".4"/><path d="M.5.5v39h28.544a4.5 4.5 0 003.186-1.322l5.955-5.968a4.5 4.5 0 001.315-3.18V.5H.5z" stroke="url(#paint0_linear_718_996)"/></g><path fill-rule="evenodd" clip-rule="evenodd" d="M23.802 7.31a19.275 19.275 0 00-8.804 0 10.318 10.318 0 00-7.689 7.688 19.276 19.276 0 000 8.804A10.317 10.317 0 0015 31.49c2.894.679 5.908.679 8.803 0a10.318 10.318 0 007.689-7.69 19.276 19.276 0 000-8.803 10.318 10.318 0 00-7.689-7.689zM14.45 4.972a21.676 21.676 0 019.9 0 12.717 12.717 0 019.477 9.477 21.673 21.673 0 010 9.9 12.717 12.717 0 01-9.477 9.477 21.676 21.676 0 01-9.9 0 12.717 12.717 0 01-9.477-9.477 21.675 21.675 0 010-9.9 12.718 12.718 0 019.477-9.477zM20.6 14.8V24h-2.4v-9.2h2.4zM16 17.867V24h-2.4v-6.133H16zm9.2 1.533V24h-2.4v-4.6h2.4z" fill="#fff"/><defs><linearGradient id="paint0_linear_718_996" x1="0" y1="0" x2="48.594" y2="33.065" gradientUnits="userSpaceOnUse"><stop stop-color="#fff" stop-opacity=".28"/><stop offset="1" stop-color="#fff" stop-opacity="0"/></linearGradient><filter id="filter0_b_718_996" x="-40" y="-40" width="120" height="120" filterUnits="userSpaceOnUse" color-interpolation-filters="sRGB"><feFlood flood-opacity="0" result="BackgroundImageFix"/><feGaussianBlur in="BackgroundImageFix" stdDeviation="20"/><feComposite in2="SourceAlpha" operator="in" result="effect1_backgroundBlur_718_996"/><feBlend in="SourceGraphic" in2="effect1_backgroundBlur_718_996" result="shape"/></filter></defs></svg>