<svg width="40" height="40" fill="none" xmlns="http://www.w3.org/2000/svg"><g filter="url(#filter0_b_718_984)"><path d="M0 0v40h29.044a5 5 0 003.54-1.468l5.955-5.969A5 5 0 0040 29.031V0H0z" fill="#2F2F2F" fill-opacity=".4"/><path d="M.5.5v39h28.544a4.5 4.5 0 003.186-1.322l5.955-5.968a4.5 4.5 0 001.315-3.18V.5H.5z" stroke="url(#paint0_linear_718_984)"/></g><path fill-rule="evenodd" clip-rule="evenodd" d="M24.055 8.868a18.103 18.103 0 00-8.11 0c-3.518.81-6.25 3.498-7.07 6.921a17.007 17.007 0 000 7.92c.82 3.424 3.552 6.113 7.07 6.922a18.1 18.1 0 005.89.367c.01-1.242.046-2.3.167-3.187.179-1.302.562-2.4 1.45-3.27.884-.868 1.996-1.239 3.313-1.412 1.19-.157 2.685-.167 4.52-.168a17.006 17.006 0 00-.16-7.171c-.82-3.424-3.552-6.113-7.07-6.922zm6.587 16.302c-1.536.005-2.683.028-3.589.148-1.08.142-1.651.403-2.056.8-.401.393-.663.944-.807 1.993-.093.679-.129 1.497-.143 2.522l.008-.002c3-.69 5.429-2.747 6.587-5.46zm-6.621 7.727c.176-.036.352-.074.528-.114 4.317-.993 7.704-4.302 8.723-8.56a19.213 19.213 0 000-8.947c-1.019-4.258-4.405-7.567-8.723-8.56a20.311 20.311 0 00-9.098 0c-4.318.993-7.704 4.302-8.723 8.56a19.215 19.215 0 000 8.948c1.019 4.257 4.405 7.566 8.723 8.559 2.135.491 4.333.632 6.504.422a1.104 1.104 0 002.066-.308zm-9.357-17.129c0-.61.494-1.104 1.104-1.104H20a1.104 1.104 0 110 2.208h-4.232c-.61 0-1.104-.494-1.104-1.104zm0 4.232c0-.61.494-1.104 1.104-1.104h7.053a1.104 1.104 0 010 2.208h-7.053c-.61 0-1.104-.494-1.104-1.104z" fill="#fff"/><defs><linearGradient id="paint0_linear_718_984" x1="0" y1="0" x2="48.594" y2="33.065" gradientUnits="userSpaceOnUse"><stop stop-color="#fff" stop-opacity=".28"/><stop offset="1" stop-color="#fff" stop-opacity="0"/></linearGradient><filter id="filter0_b_718_984" x="-40" y="-40" width="120" height="120" filterUnits="userSpaceOnUse" color-interpolation-filters="sRGB"><feFlood flood-opacity="0" result="BackgroundImageFix"/><feGaussianBlur in="BackgroundImageFix" stdDeviation="20"/><feComposite in2="SourceAlpha" operator="in" result="effect1_backgroundBlur_718_984"/><feBlend in="SourceGraphic" in2="effect1_backgroundBlur_718_984" result="shape"/></filter></defs></svg>