<svg width="24" height="39" fill="none" xmlns="http://www.w3.org/2000/svg"><path fill-rule="evenodd" clip-rule="evenodd" d="M12.71 2.164A4.234 4.234 0 0116.114.446h6.068a1 1 0 110 2h-6.068c-.71 0-1.376.337-1.797.907L3.408 18.118a2.234 2.234 0 000 2.656l10.91 14.766c.421.57 1.088.906 1.797.906h6.068a1 1 0 010 2h-6.068a4.234 4.234 0 01-3.406-1.718L1.8 21.962a4.234 4.234 0 010-5.032L12.71 2.164z" fill="url(#paint0_linear_1003_105)"/><defs><linearGradient id="paint0_linear_1003_105" x1="12.171" y1="37.239" x2="21.792" y2="4.078" gradientUnits="userSpaceOnUse"><stop stop-color="#00A3FF"/><stop offset="1" stop-color="#A9FA43"/></linearGradient></defs></svg>