<svg width="23" height="39" fill="none" xmlns="http://www.w3.org/2000/svg"><path fill-rule="evenodd" clip-rule="evenodd" d="M10.657 2.164A4.234 4.234 0 007.251.446H1.183a1 1 0 000 2h6.068c.71 0 1.376.337 1.797.907l10.91 14.765c.584.79.584 1.867 0 2.656L9.049 35.54a2.234 2.234 0 01-1.797.906H1.183a1 1 0 000 2h6.068a4.234 4.234 0 003.406-1.718l10.91-14.766a4.234 4.234 0 000-5.032L10.657 2.164z" fill="url(#paint0_linear_1003_107)"/><defs><linearGradient id="paint0_linear_1003_107" x1="11.195" y1="37.239" x2="1.575" y2="4.078" gradientUnits="userSpaceOnUse"><stop stop-color="#00A3FF"/><stop offset="1" stop-color="#A9FA43"/></linearGradient></defs></svg>