<svg width="66" height="55" fill="none" xmlns="http://www.w3.org/2000/svg"><path d="M65.996 0v32.962a21.501 21.501 0 11-42.996 0V0h12.927v32.962a8.571 8.571 0 1017.142 0V0h12.927z" fill="#fff"/><path d="M26.652 54.464H22.76c-5.12-4.89-7.68-11.596-7.68-19.907V0h2.56v34.557c-.042 8.72 2.995 15.385 9.01 19.907z" fill="#fff"/><path d="M19.126 54.464h-3.89c-5.12-4.89-7.68-11.596-7.68-19.907V0h2.56v34.557c-.043 8.72 2.994 15.385 9.01 19.907z" fill="#fff"/><path d="M11.6 54.464H7.71C2.59 49.574.03 42.868.03 34.557V0h2.517v34.557c0 8.72 3.038 15.385 9.053 19.907z" fill="#fff"/></svg>