<svg width="117" height="71" fill="none" xmlns="http://www.w3.org/2000/svg"><path d="M40 42.5l-.729.685.185.197.258.077L40 42.5zm75.976 23.38a1 1 0 00.404-1.356l-4.282-7.916a1 1 0 10-1.759.951l3.806 7.037-7.037 3.806a1 1 0 10.951 1.76l7.917-4.282zM.271 1.685l39 41.5 1.458-1.37-39-41.5L.27 1.685zm39.443 41.774l75.5 22.5.572-1.917-75.5-22.5-.572 1.917z" fill="url(#paint0_linear_718_64)"/><defs><linearGradient id="paint0_linear_718_64" x1="18.694" y1="-19.315" x2="4.567" y2="37.337" gradientUnits="userSpaceOnUse"><stop stop-color="#00A3FF"/><stop offset="1" stop-color="#A9FA43"/></linearGradient></defs></svg>