<svg width="200" height="50" fill="none" xmlns="http://www.w3.org/2000/svg"><path d="M62.463 19.725c-1.503 0-2.785 1.265-2.785 2.768v2.386h-3.854v-5.154h-.128c-1.503 0-2.793 1.265-2.793 2.768v9.441h.127c1.503 0 2.794-1.265 2.794-2.768v-2.3h3.854v5.068H62.6v-12.21h-.136zm116.032 0c-1.503 0-2.793 1.265-2.793 2.768v2.386h-3.855v-5.154h-.127c-1.503 0-2.794 1.265-2.794 2.768v9.441h.128c1.503 0 2.785-1.265 2.785-2.768v-2.3h3.854v5.068h2.921v-12.21h-.119zM45.932 29.778c-1.783 0-2.963-2.921-2.963-6.343 0-3.421 1.248-5.816 2.963-5.816 1.724 0 3.031 2.395 3.031 5.816 0 3.872-1.12 6.343-3.03 6.343zm0-14.52c-3.388 0-5.578 2.922-5.884 7.167h-3.447v-6.92h-.026a2.953 2.953 0 00-2.98 2.963v13.466h.026a3.017 3.017 0 002.98-3.03v-4.297h3.447c.263 3.99 2.462 7.582 5.884 7.582 3.931 0 6.011-3.795 6.011-8.737.009-4.619-2.216-8.193-6.01-8.193zm27.06 4.467c-.96 0-1.818.305-2.497 1.392l-3.812 6.623v-8.015h-2.92v12.21h1.239c.942 0 1.8-.306 2.496-1.393l4.025-6.852v5.476c0 1.503 1.282 2.768 2.785 2.768h.135v-12.21h-1.451zm58.712 0c-.96 0-1.817.305-2.497 1.392l-3.812 6.623v-8.015h-2.921v12.21h1.24c.943 0 1.8-.306 2.496-1.393l4.025-6.852v5.476c0 1.503 1.282 2.768 2.793 2.768h.128v-12.21h-1.452zM84.81 25.982c-.679-1.528-1.69-2.615-3.15-3.184l5.256-7.301h-3.277L78.56 22.73v-7.2h-.068c-1.68 0-2.946 1.223-2.946 2.879v13.525h.068c1.681 0 2.938-1.222 2.938-2.878v-5.018c1.503 0 2.64 1.002 3.184 2.31l2.156 5.578h3.312l-2.395-5.944zm57.753-6.257h-8.779v2.335h2.955v9.874h.127a2.753 2.753 0 002.742-2.75V22.06h2.955v-2.335zM112.32 29.71c1.35-1.435 1.995-4.008 2.301-5.995l.195-1.766h2.267l.696 7.76h-5.459zm8.159-.085l-1.002-9.892h-6.996l-.433 2.963c-.391 2.641-1.01 5.952-3.371 7.37l.196 5.052h.152a2.087 2.087 0 002.089-2.089l.043-1.095h7.964l.11 3.184h.153a2.087 2.087 0 002.089-2.089l.101-2.971-1.095-.433zm67.628-1.596c-.646-1.282-1.418-2.259-2.573-2.734l4.322-5.562h-3.142l-4.186 5.502v-5.51h-2.92v12.21h.127c1.503 0 2.793-1.266 2.793-2.769V26.39c1.214 0 2.089.908 2.573 1.97l1.757 3.574H190l-1.893-3.905zm-35.924 1.893h-1.766v-5.833c.374-.085 1.027-.212 1.588-.212 2.114 0 3.345 1.256 3.345 2.819.008 1.672-1.18 3.226-3.167 3.226zm.136-8.27c-.722 0-1.486.12-1.894.23v-3.83h3.872a2.504 2.504 0 002.505-2.505v-.042h-9.297v16.43h4.729c3.541 0 6.181-1.911 6.181-5.18-.008-2.802-2.199-5.103-6.096-5.103zm-51.334 3.328c0-2.156.764-3.31 2.394-3.353h.111c.806 0 2.309.263 2.394 2.683l-4.899.67zm7.429.527c0-3.66-1.766-5.774-4.95-5.774-3.226 0-5.188 2.42-5.188 6.148 0 3.837 2.115 6.232 5.664 6.232 1.961 0 3.336-.484 4.075-.875v-2.42c-.739.527-1.766 1.18-3.795 1.18-1.826 0-2.836-1.044-3.074-3.03l7.26-1.003v-.458h.008zm57.057 4.941c-.28.068-1.002.11-1.613.11-1.571 0-2.488-.678-2.488-2.181 0-2.03 1.545-2.547 4.092-2.785v4.856h.009zm-6.691-1.978c0 2.293 1.681 3.643 4.899 3.643h.612c1.129 0 3.005-.179 3.812-.332v-7.76c0-3.048-2.046-4.296-4.509-4.296a9.367 9.367 0 00-4.075.917v1.936c1.282-.68 2.437-1.113 3.591-1.113 1.393 0 2.352.416 2.352 1.962v.806c-3.634.357-6.682 1.096-6.682 4.237zm-67.067 1.766c-.416 0-.738-.042-1.027-.153V21.78a3.586 3.586 0 011.222-.196c1.894 0 2.726 1.376 2.726 4.297 0 1.952-.501 4.355-2.92 4.355zm.255-10.511c-1.656 0-3.031.28-4.093.849l-.067.042v16.15h.152c1.503 0 2.726-1.24 2.726-2.743v-2.114c.416.11.985.195 1.613.195 3.159 0 5.23-2.53 5.23-6.317 0-3.77-2.088-6.062-5.561-6.062z" fill="#fff"/><path d="M20.58 18.247c.008-.008.008-.017.016-.025.162-.23.094-.4-.017-.493-.068-.06-1.638-1.01-1.638-1.01a.43.43 0 01-.187-.357c0-.229.136-.407.458-.5 1.01-.28 4.577-.425 5.782-.425.416 0 1.147 0 1.792.017l-.026-.026A10.155 10.155 0 0020.163 13C14.551 13 10 17.55 10 23.163c0 2.471.883 4.73 2.343 6.487 1.274-1.834 4.433-6.36 5.12-7.285.798-1.07 2.615-3.439 2.921-3.838l.017-.017.178-.263zm-6.615 12.974a10.096 10.096 0 006.198 2.105c5.613 0 10.163-4.55 10.163-10.163 0-1.698-.416-3.303-1.154-4.704.348-.34.755-.874.484-1.536-.085-.196-.476-.654-.578-.764l.017.042c.247.747-.237 1.214-.594 1.528-.195.178-2.777 2.607-5.8 5.256a142.744 142.744 0 01-7.377 6.003c-2.429 1.817-2.904 2.08-2.904 2.08a.627.627 0 01-.246.068.451.451 0 01-.357-.17c-.017.034-.017.06-.008.076.263.425.696.909.942.909a.668.668 0 00.255-.068c-.009-.008.187-.11.96-.662z" fill="#E2001A"/><path d="M20.596 18.221c.153-.229.094-.399-.017-.492-.068-.06-1.638-1.01-1.638-1.01a.43.43 0 01-.187-.357c0-.238.144-.408.458-.501 1.01-.28 4.577-.425 5.782-.425.57 0 1.707 0 2.446.043.832.05 1.468.23 1.63.628.305.79-.204 1.282-.57 1.614-.194.178-2.767 2.606-5.798 5.255a142.787 142.787 0 01-7.378 6.003c-2.429 1.817-2.904 2.08-2.904 2.08a.629.629 0 01-.255.068.44.44 0 01-.45-.441.43.43 0 01.076-.255s4.79-6.895 5.655-8.066c.875-1.163 2.963-3.897 2.963-3.897s.034-.026.187-.247z" fill="#FEFEFE"/></svg>