<svg width="200" height="50" fill="none" xmlns="http://www.w3.org/2000/svg"><path d="M11.7 18.55v13H8.5V26.7H3.2v4.9H0v-13h3.2v5.2h5.3v-5.2h3.2v-.05zm37.1 13h-3.2v-6.5l-2.9 4.45h-1.8L38 25v6.55h-3.2v-13h2.4l4.55 6.95 4.6-6.95h2.4v13h.05zM23.25 18A9.048 9.048 0 0014 26.85a8.39 8.39 0 001.4 4.7h4.45a5.65 5.65 0 119-4.5 5.54 5.54 0 01-2.25 4.5h4.5a8.8 8.8 0 001.4-4.7A9 9 0 0023.25 18z" fill="#C8102E"/><path d="M20.25 28.35a3.23 3.23 0 003 2.25 3.28 3.28 0 003-2.25h-6zM54.7 21.4v2.35h5.75v2.75H54.7v2.25h6.55v2.75H51.4v-13h9.85v2.8H54.7v.1zM157.3 28c0 2.15-1.75 3.6-4.65 3.6h-6.55v-13h6.2c2.85 0 4.45 1.35 4.45 3.45a3 3 0 01-1.8 2.85 3.119 3.119 0 012.35 3.1zm-8-6.75v2.7h2.4c1.25 0 1.9-.6 1.9-1.4 0-.8-.7-1.25-1.9-1.25h-2.4v-.05zm4.85 6.35c0-.8-.7-1.25-1.85-1.25h-2.95v2.6h2.9c1.3 0 1.9-.55 1.9-1.35zm13.1 1.8h-5.5l-.85 2.25h-3.45l5.5-13h3.1l5.5 13h-3.45c-.05-.1-.85-2.3-.85-2.3v.05zm-1.05-2.7l-1.7-4.4-1.75 4.4h3.45zm18.4-8.1v13h-2.5l-6.25-7.1v7.1h-3.2v-13h2.5l6.25 7.3v-7.3h3.2zm7.85 8.2l-1.9 2.2v2.65h-3.2v-13h3.2v5.95l5.2-5.95h3.85l-4.95 5.7L200 31.6h-4l-3.55-4.85v.05zm-100.8 4.8l-2.5-3.75h-2.4v3.75H83.5v-13h5.7c3.2 0 5.4 1.75 5.4 4.6a4.45 4.45 0 01-2.15 3.9l3.05 4.5h-3.85zM86.7 25h2.4c1.25 0 2.25-.7 2.25-1.75s-1-1.75-2.25-1.75h-2.4V25zm13.55-3.55v2.35H106v2.7h-5.75v2.25h6.55v2.75H97v-13h9.85v2.8h-6.55v.1l-.05.05zm21 3.65c0 3.85-2.9 6.55-7 6.55h-5.2v-13h5.2c4-.1 7 2.55 7 6.4v.05zm-3.3 0a3.575 3.575 0 00-1.098-2.559 3.57 3.57 0 00-2.602-.991h-2v7.2h2a3.65 3.65 0 003.75-3.7l-.05.05zm8.25-6.5v13H123v-13h3.2zm12.35 2.9h-3.7v10.1h-3.2V21.45H128v-2.9h10.6v2.9l-.05.05zM78.2 26.9a3 3 0 01-2.95 1.9 3.521 3.521 0 01-3.6-3.7 3.521 3.521 0 013.6-3.7 3 3 0 012.95 1.9h3.4a6.28 6.28 0 00-6.35-4.95 6.62 6.62 0 00-6.85 6.75 6.62 6.62 0 006.85 6.75 6.2 6.2 0 006.35-4.95h-3.4z" fill="#C8102E"/></svg>