<svg width="200" height="50" fill="none" xmlns="http://www.w3.org/2000/svg"><path d="M108.956 6.497l-18.36 2.399v5.433l18.36-1.639V6.497z" fill="#E4003A"/><path fill-rule="evenodd" clip-rule="evenodd" d="M105.48 18.948L90.596 8.901v5.42l4.641 3.144.913.533c-1.667.02-2.466.359-3.268.843-2.292 1.382-3.481 3.812-3.481 7.397 0 6.042 3.335 8.903 9.687 8.903 6.354 0 9.705-2.86 9.705-8.903 0-3.497-1.134-5.888-3.313-7.29zm-6.392 11.775c-3.149 0-4.14-1.147-4.14-4.438 0-3.292.984-4.439 4.14-4.439 3.158 0 4.125 1.125 4.125 4.439 0 3.313-.951 4.438-4.125 4.438zm-46.23-4.438c0 3.297.984 4.438 4.141 4.438s4.124-1.147 4.124-4.438c0-3.292-.952-4.439-4.124-4.439-3.172 0-4.14 1.125-4.14 4.439zm-5.547-.048c0-6.042 3.358-8.807 9.688-8.807s9.703 2.765 9.703 8.807c0 6.041-3.335 8.902-9.703 8.902-6.367 0-9.688-2.86-9.688-8.902zm-15.59-6.214c.604-.766 3.04-2.615 6.038-2.615 4.99 0 7.74 2.689 7.74 8.797 0 6.108-2.755 8.823-7.757 8.823-3.014 0-5.434-1.816-6.054-2.598v8.074h-5.286v-22.7h5.319v2.219zm.004 6.169c0 3.293.99 4.438 4.14 4.438v-.007c3.172 0 4.123-1.121 4.123-4.431s-.966-4.438-4.123-4.438-4.14 1.144-4.14 4.438zm113.44-8.381v6.164h-7.018V17.81h-5.319v16.68h5.319v-6.248h7.018v6.249h5.321V17.81h-5.321zm-26.784 17.217c-5.006 0-7.758-2.72-7.758-8.823 0-6.092 2.75-8.797 7.739-8.797 2.996 0 5.432 1.85 6.04 2.604v-2.22h5.319v16.701h-5.288V32.43c-.62.782-3.04 2.598-6.052 2.598zm1.877-13.285c-3.174 0-4.125 1.124-4.125 4.438-.002 3.297.97 4.438 4.125 4.438 3.155 0 4.138-1.128 4.138-4.438 0-3.31-.965-4.439-4.138-4.439zm-38.122 6.585c-.415 1.744-1.526 2.395-3.935 2.395-3.15 0-4.139-1.147-4.139-4.439 0-3.291.99-4.438 4.14-4.438 2.408 0 3.52.65 3.936 2.404l5.547-.42c-.828-4.364-4.076-6.392-9.484-6.392-6.33 0-9.686 2.764-9.686 8.806 0 6.041 3.335 8.902 9.686 8.902 5.404 0 8.619-2.07 9.467-6.393l-5.532-.425zm82.445-2.596L173 34.49h-6.838l-7.333-7.68v7.68h-5.225V17.81h5.225v7.245l7.138-7.245h6.581l-7.967 7.92z" fill="#fff"/></svg>