<svg width="200" height="50" fill="none" xmlns="http://www.w3.org/2000/svg"><path fill-rule="evenodd" clip-rule="evenodd" d="M31.599 33.584a1.599 1.599 0 100 3.198h35.774a1.599 1.599 0 100-3.198H31.6zm101.028 0a1.599 1.599 0 100 3.198h35.774a1.599 1.599 0 100-3.198h-35.774z" fill="#F3753E"/><path fill-rule="evenodd" clip-rule="evenodd" d="M164.254 9c.69 0 1.249.56 1.249 1.25v.299a1.249 1.249 0 11-2.498 0v-.3c0-.69.559-1.249 1.249-1.249zm-3.148 4.547a1.249 1.249 0 10-2.498 0V24.33l.001.047a1.244 1.244 0 00.634 1.05 1.247 1.247 0 001.576-.291l.004-.005.004-.004.002-.003 6.573-8.067v7.282a1.249 1.249 0 102.498 0v-10.78l-.001-.066a1.248 1.248 0 00-1.248-1.195 1.245 1.245 0 00-.977.47l-6.568 8.06v-7.281zM36.896 23.39a4.397 4.397 0 100-8.794 4.397 4.397 0 000 8.794zm0 2.498a6.895 6.895 0 100-13.79 6.895 6.895 0 000 13.79zm12.89-11.092v4.497h2.848a2.248 2.248 0 100-4.497h-2.848zm-2.498 6.995v2.548a1.25 1.25 0 102.498 0v-2.548h2.848a4.747 4.747 0 000-9.493h-4.097c-.69 0-1.25.559-1.25 1.249v8.244zm79.493-9.493h5.046a3.798 3.798 0 013.12 5.963 4.097 4.097 0 01-2.52 7.328h-5.646a1.25 1.25 0 01-1.249-1.25V13.547c0-.69.559-1.25 1.249-1.25zm1.249 10.792h4.397a1.599 1.599 0 100-3.198h-4.397v3.198zm0-5.696h3.797a1.299 1.299 0 100-2.598h-3.797v2.598zm14.989-3.847a1.249 1.249 0 10-2.498 0v10.792c0 .69.559 1.25 1.249 1.25h4.247a4.697 4.697 0 100-9.394h-2.998v-2.648zm0 5.146v4.397h2.998a2.199 2.199 0 100-4.397h-2.998zm9.843-6.395c.69 0 1.249.559 1.249 1.249v10.792a1.249 1.249 0 11-2.498 0V13.547c0-.69.559-1.25 1.249-1.25zm-38.422 2.548h5.746a1.25 1.25 0 000-2.498h-6.995c-.69 0-1.25.559-1.25 1.249v10.792c0 .69.56 1.25 1.25 1.25h6.995a1.25 1.25 0 000-2.5h-5.746v-2.897h4.646a1.249 1.249 0 100-2.498h-4.646v-2.898zm-14.19 7.089v2.404a1.25 1.25 0 01-2.498 0v-2.458L95.9 19.905 91.896 25.1a1.25 1.25 0 01-1.979-1.524l4.253-5.52-3.426-3.656a1.25 1.25 0 011.824-1.708l5.184 5.534v-4.68a1.25 1.25 0 112.498 0v4.733l5.234-5.587a1.248 1.248 0 111.823 1.708l-3.425 3.656 4.252 5.52a1.249 1.249 0 11-1.979 1.524l-4.004-5.196-1.901 2.03zm-22.184-8.388a1.25 1.25 0 10-2.499 0v10.792a1.25 1.25 0 102.499 0v-4.197h5.895v4.197a1.25 1.25 0 102.499 0V13.547a1.25 1.25 0 10-2.498 0v4.097h-5.896v-4.097zM71.27 25.46a1.25 1.25 0 01-1.671-.57l-.859-1.75h-6.633l-.858 1.75a1.25 1.25 0 01-2.243-1.101l5.291-10.782a1.247 1.247 0 012.033-.32c.09.095.164.203.22.32l5.291 10.782a1.25 1.25 0 01-.57 1.671zm-5.846-9.078l-2.09 4.26h4.18l-2.09-4.26zm27.528 15.01l.016.006a.797.797 0 01.427.435l2.598 6.395a.8.8 0 11-1.481.602l-.305-.75h-3.105l-.305.75a.8.8 0 11-1.482-.602l2.599-6.395a.797.797 0 011.038-.441zm-.298 2.866l-.903 2.222h1.806l-.903-2.222zm-10.292-1.325a.8.8 0 100-1.599h-3.798a.8.8 0 00-.8.8v6.512c0 .377.306.682.683.682h2.616a2.498 2.498 0 000-4.996h-1.7v-1.4h2.999zm-2.998 4.797v-1.8h1.699a.9.9 0 010 1.8h-1.7zm41.974-5.072a.8.8 0 00-1.207-1.049l-2.595 2.986v-2.462a.799.799 0 10-1.598 0v6.396a.8.8 0 101.598 0v-2.711l2.793 3.233a.8.8 0 001.21-1.045l-2.417-2.798 2.216-2.55zm-17.092-.525a.8.8 0 10-1.599 0v6.396a.8.8 0 001.599 0V36.13h2.598v2.398a.8.8 0 001.599 0v-6.396a.8.8 0 10-1.599 0v2.399h-2.598v-2.398z" fill="#fff"/></svg>