<svg width="688" height="788" fill="none" xmlns="http://www.w3.org/2000/svg"><g filter="url(#filter0_f_338_23)"><path d="M170.673 538.72c28.979 13.39 60.208 22.79 92.362 28.133 7.326 1.218 31.667 2.37 38.256 11.444 7.709 10.617-3.818 27.351 2.872 38.606 7.931 13.344 27.501 21.045 44.061 20.301 24.419-1.098 43.612-15.732 54.44-33.882 7.01-11.75 11.278-22.423 7.589-35.043-4.382-14.989-9.322-26.159-9.052-42.039.489-28.86 25.393-27.171 51.028-30.207 26.012-3.08 44.913 1.692 62.877-19.655 10.382-12.337 23.511-30.377 22.223-46.574-.462-5.813-88.109-21.156-92.049-25.057-23.068-22.842 29.482-75.309.774-90.813-31.004-16.744-59.511 1.457-80.225-23.85-25.569-31.237-43.778-66.406-70.643-96.696-23.125-26.073-95.216-60.076-129.883-33.582-22.914 17.511-15.207 38.972-6.017 62.258 14.318 36.277 33.723 68.228 61.31 98.04 30.949 33.445 69.978 64.407 88.468 105.336 8.709 19.279-12.249 26.676-30.283 28.886-25.535 3.129-58.839-1.555-81.704 10.378-15.443 8.059-33.255 20.502-34.541 37.017-.935 12.018-6.829 30.084 8.137 36.999z" fill="#A9FA43"/></g><defs><filter id="filter0_f_338_23" x=".247" y=".205" width="687.17" height="787.049" filterUnits="userSpaceOnUse" color-interpolation-filters="sRGB"><feFlood flood-opacity="0" result="BackgroundImageFix"/><feBlend in="SourceGraphic" in2="BackgroundImageFix" result="shape"/><feGaussianBlur stdDeviation="75" result="effect1_foregroundBlur_338_23"/></filter></defs></svg>