<svg width="643" height="616" fill="none" xmlns="http://www.w3.org/2000/svg"><g filter="url(#filter0_f_338_24)"><path d="M155.574 428.537c21.147 3.821 45.187 4.438 71.015 2.054 5.886-.543 26.158-4.362 29.467.705 3.871 5.929-10.025 19.768-7.174 26.335 3.382 7.784 17.996 9.431 32.168 5.769 20.898-5.4 40.747-19.232 54.406-33.924 8.842-9.512 15.1-17.753 15.122-25.839.026-9.604-1.369-16.444 2.807-27.551 7.589-20.186 28.203-23.738 50.61-30.718 22.736-7.083 37.513-7.348 57.993-25.62 11.837-10.561 27.411-25.614 30.351-36.646 1.055-3.959-69.158 1.997-71.517.028-13.804-11.524 43.626-58.029 23.233-63.374-22.023-5.773-50.626 12.311-61.829-1.376-13.829-16.895-20.465-37.924-35.624-53.914-13.049-13.763-65.484-23.752-101.352 1.276-23.707 16.541-22.534 30.02-20.561 44.488 3.073 22.54 11.519 41.101 27.407 56.621 17.824 17.41 43.09 31.558 48.531 56.545 2.562 11.769-16.979 20.898-32.76 25.86-22.345 7.026-49.309 10.087-71.588 22.736-15.048 8.542-33.186 20.587-38.378 32.329-3.778 8.545-13.248 22.243-2.327 24.216z" fill="#A9FA43"/></g><defs><filter id="filter0_f_338_24" x=".481" y=".379" width="641.87" height="614.883" filterUnits="userSpaceOnUse" color-interpolation-filters="sRGB"><feFlood flood-opacity="0" result="BackgroundImageFix"/><feBlend in="SourceGraphic" in2="BackgroundImageFix" result="shape"/><feGaussianBlur stdDeviation="75" result="effect1_foregroundBlur_338_24"/></filter></defs></svg>