<svg width="51" height="51" fill="none" xmlns="http://www.w3.org/2000/svg"><path fill-rule="evenodd" clip-rule="evenodd" d="M37.038 4.837a64.478 64.478 0 00-24.076 0c-3.867.736-6.943 3.517-7.994 7.148l-.124.43a28.872 28.872 0 000 16.068l.124.43c1.051 3.63 4.127 6.412 7.994 7.147a64.476 64.476 0 0024.076 0c3.867-.735 6.943-3.517 7.994-7.148l.124-.429a28.873 28.873 0 000-16.069l-.124-.429c-1.051-3.63-4.127-6.412-7.994-7.148zM12.27 1.2a68.182 68.182 0 0125.46 0c5.194.987 9.409 4.744 10.86 9.757l.124.429a32.576 32.576 0 010 18.128l-.124.429c-1.451 5.013-5.667 8.77-10.86 9.757a68.134 68.134 0 01-10.878 1.173v5.424h4.928a1.852 1.852 0 110 3.704H18.22a1.852 1.852 0 110-3.704h4.928v-5.424A68.134 68.134 0 0112.27 39.7c-5.193-.988-9.409-4.744-10.86-9.757l-.124-.43a32.575 32.575 0 010-18.127l.125-.43C2.86 5.944 7.077 2.187 12.27 1.2zm9.457 18.71c-.16.12-.342.264-.574.447l-5.295 4.17a1.852 1.852 0 01-2.292-2.91l5.296-4.17.069-.054c.422-.333.871-.688 1.29-.934.488-.288 1.166-.574 2.004-.468.838.106 1.423.553 1.823.954.344.343.69.8 1.016 1.227l.053.07 2.712 3.558c.178.235.32.42.444.576.16-.12.342-.264.574-.447l5.295-4.17a1.852 1.852 0 112.292 2.91l-5.296 4.17-.069.054c-.422.333-.871.688-1.29.934-.488.288-1.166.574-2.004.468-.837-.106-1.423-.553-1.823-.954-.344-.343-.69-.8-1.016-1.227l-.053-.07-2.712-3.558c-.178-.235-.32-.42-.444-.576z" fill="#fff"/></svg>