<svg width="50" height="50" fill="none" xmlns="http://www.w3.org/2000/svg"><path fill-rule="evenodd" clip-rule="evenodd" d="M24.421 4a7.684 7.684 0 100 15.368 7.684 7.684 0 000-15.368zm-11.684 7.684C12.737 5.231 17.968 0 24.42 0c6.453 0 11.684 5.231 11.684 11.684 0 6.453-5.231 11.684-11.684 11.684-6.453 0-11.684-5.23-11.684-11.684zM5.474 38.316c0-6.453 5.23-11.684 11.684-11.684h14.526c6.453 0 11.684 5.23 11.684 11.684 0 6.453-5.23 11.684-11.684 11.684H17.158c-6.453 0-11.684-5.231-11.684-11.684zm11.684-7.684a7.684 7.684 0 000 15.368h14.526a7.684 7.684 0 000-15.368H17.158z" fill="#fff"/></svg>