<svg width="648" height="616" fill="none" xmlns="http://www.w3.org/2000/svg"><g filter="url(#filter0_f_65_63)"><path d="M259.784 458.14c-22.745 16.915-52.765-.094-71.201-13.625-26.675-19.579 10.091-14.633 17.838-24.383 7.395-9.306 18.284-27.59 7.332-37.424-6.393-5.741-26.039-4.903-34.899-6.162-17.171-2.441-25.505-14.323-28.195-28.015-2.942-14.977 20.168-29.941 32.452-36.315 27.356-14.193 52.638-40.927 64.207-66.515 8.936-19.764-2.826-41.69 10.91-61.339 17.061-24.405 64.088-30.991 93.341-33.446 46.357-3.891 79.331 23.227 109.453 50.316 35.1 31.565 45.923 72.892 28.924 114.567-14.149 34.691-40.276 50.97-81.152 51.895-26.855.607-68.873.959-87.993 19.657-22.955 22.449-34.397 50.992-61.017 70.789z" fill="#0075FF"/></g><defs><filter id="filter0_f_65_63" x=".403" y=".542" width="647.437" height="614.672" filterUnits="userSpaceOnUse" color-interpolation-filters="sRGB"><feFlood flood-opacity="0" result="BackgroundImageFix"/><feBlend in="SourceGraphic" in2="BackgroundImageFix" result="shape"/><feGaussianBlur stdDeviation="75" result="effect1_foregroundBlur_65_63"/></filter></defs></svg>