<svg width="50" height="51" fill="none" xmlns="http://www.w3.org/2000/svg"><path fill-rule="evenodd" clip-rule="evenodd" d="M14.381 10.67C14.381 4.766 19.146 0 25 0s10.619 4.766 10.619 10.67v.797c.789.166 1.526.398 2.238.725a12.832 12.832 0 015.465 4.777c.808 1.272 1.284 2.69 1.655 4.4.363 1.672.651 3.753 1.015 6.384l.023.164c.469 3.387.837 6.049.949 8.196.114 2.184-.022 4.027-.688 5.727a12.857 12.857 0 01-5.644 6.507c-1.582.894-3.377 1.282-5.545 1.47C32.955 50 30.28 50 26.87 50h-3.74c-3.409 0-6.085 0-8.217-.184-2.168-.187-3.963-.575-5.545-1.469a12.857 12.857 0 01-5.644-6.507c-.666-1.7-.802-3.543-.688-5.727.112-2.147.48-4.809.95-8.196l.022-.164c.364-2.631.652-4.712 1.015-6.383.37-1.71.847-3.129 1.655-4.401a12.832 12.832 0 015.465-4.777c.712-.327 1.45-.56 2.238-.725v-.797zm0 4.617v6.406c0 1.023.821 1.852 1.834 1.852 1.012 0 1.833-.83 1.833-1.852v-6.908c1.354-.057 3.016-.058 5.168-.058h3.568c2.152 0 3.814 0 5.168.058v6.908c0 1.023.82 1.852 1.833 1.852s1.834-.83 1.834-1.852v-6.406c.257.08.494.173.718.276a9.155 9.155 0 013.899 3.407c.48.756.836 1.7 1.16 3.193.329 1.515.598 3.455.975 6.179.484 3.494.829 5.997.931 7.966.102 1.95-.049 3.181-.436 4.17a9.164 9.164 0 01-4.024 4.637c-.926.523-2.126.844-4.067 1.01-1.958.17-4.477.171-7.991.171h-3.568c-3.514 0-6.033-.001-7.991-.17-1.94-.167-3.14-.488-4.067-1.011a9.164 9.164 0 01-4.024-4.638c-.387-.988-.538-2.22-.436-4.17.102-1.968.447-4.471.93-7.965.378-2.724.647-4.664.976-6.18.324-1.492.68-2.436 1.16-3.192a9.155 9.155 0 013.9-3.407c.223-.103.46-.195.717-.276zm17.57-4.209c-1.427-.055-3.09-.055-5.058-.055h-3.786c-1.967 0-3.63 0-5.059.055v-.408c0-3.836 3.102-6.966 6.952-6.966s6.952 3.13 6.952 6.966v.408z" fill="#fff"/></svg>