<svg width="50" height="51" fill="none" xmlns="http://www.w3.org/2000/svg"><path fill-rule="evenodd" clip-rule="evenodd" d="M28.199 2.75A9.312 9.312 0 0134.802 0c5.158 0 9.34 4.205 9.34 9.392a9.42 9.42 0 01-2.736 6.641l-2.107 2.119-.059.06-9.031 9.082a39.917 39.917 0 01-18.57 10.574l-2.164.544c-2.131.535-4.061-1.405-3.529-3.548l.542-2.177a40.257 40.257 0 0110.514-18.675l9.031-9.083.059-.06 2.107-2.118zm-2.494 8.165l-5.891 5.925a36.252 36.252 0 00-9.468 16.817l-.11.44.438-.11a35.943 35.943 0 0016.722-9.522l5.892-5.924c-1.764-.611-3.376-1.717-4.626-2.974-1.25-1.257-2.35-2.878-2.957-4.652zm11.13 4.058c-1.548.296-3.61-.474-5.36-2.234-1.75-1.76-2.517-3.834-2.222-5.391l1.758-1.769A5.346 5.346 0 0134.802 4c2.961 0 5.362 2.414 5.362 5.392 0 1.43-.565 2.801-1.57 3.813l-1.76 1.768zM3 48c0-1.105.89-2 1.989-2H45.01c1.1 0 1.99.895 1.99 2s-.89 2-1.989 2H4.99A1.994 1.994 0 013 48z" fill="#fff"/></svg>