<svg width="51" height="51" fill="none" xmlns="http://www.w3.org/2000/svg"><path fill-rule="evenodd" clip-rule="evenodd" d="M36.453.209c7.91-1.517 14.855 5.427 13.338 13.338L45.5 35.929c-.946 4.93-4.676 8.87-9.523 10.122-9.677 2.5-18.524-6.474-15.689-16.114a.164.164 0 00.006-.095.195.195 0 00-.052-.083.195.195 0 00-.083-.052.164.164 0 00-.095.006C10.423 32.548 1.449 23.7 3.949 14.024 5.2 9.177 9.142 5.447 14.07 4.501L36.453.21zm9.41 12.584c.984-5.133-3.523-9.64-8.657-8.656L14.824 8.43c-3.398.651-6.134 3.232-7.002 6.594-1.736 6.721 4.504 12.795 11.112 10.851 3.175-.933 6.124 2.016 5.19 5.19-1.943 6.61 4.13 12.85 10.852 11.113 3.362-.868 5.943-3.604 6.594-7.002l4.293-22.383zM6.874 32.748a2 2 0 010 2.828l-3.46 3.46a2 2 0 01-2.828-2.828l3.46-3.46a2 2 0 012.828 0zm8.65 1.73a2 2 0 010 2.828l-3.46 3.46a2 2 0 01-2.829-2.829l3.46-3.46a2 2 0 012.828 0zm1.73 8.65a2 2 0 010 2.828l-3.46 3.46a2 2 0 01-2.829-2.83l3.46-3.459a2 2 0 012.828 0z" fill="#fff"/></svg>