<svg width="32" height="32" fill="none" xmlns="http://www.w3.org/2000/svg"><mask id="mask0_536_47" style="mask-type:alpha" maskUnits="userSpaceOnUse" x="0" y="0" width="32" height="32"><circle cx="16" cy="16" r="16" fill="#000"/></mask><g mask="url(#mask0_536_47)"><path d="M0 16C0 7.163 7.162 0 16 0c8.835 0 16 7.163 16 16s-7.165 16-16 16C7.162 32 0 24.837 0 16z" fill="#FC3F1D"/><path d="M17.858 8.704h-1.404c-2.574 0-3.928 1.444-3.928 3.574 0 2.408.936 3.536 2.858 4.982l1.588 1.185L12.41 26H9l4.095-6.758c-2.355-1.87-3.677-3.687-3.677-6.76C9.418 8.63 11.84 6 16.438 6H21v19.982h-3.142V8.704z" fill="#fff"/></g></svg>