<svg width="32" height="32" fill="none" xmlns="http://www.w3.org/2000/svg"><mask id="mask0_536_91" style="mask-type:alpha" maskUnits="userSpaceOnUse" x="0" y="0" width="32" height="32"><circle cx="16" cy="16" r="16" fill="#000"/></mask><g mask="url(#mask0_536_91)" fill-rule="evenodd" clip-rule="evenodd"><path d="M-1 16c0 9.403 7.62 17 17.023 17 9.403 0 17-7.62 17-17 0-9.403-7.62-17-17-17C6.621-1.023-1 6.597-1 16z" fill="url(#paint0_linear_536_91)"/><path d="M9.018 21.622H7L4 11h1.829l2.228 8.3 2.415-8.3h1.618l2.391 8.3L16.71 11h1.829l-3.002 10.622h-1.993l-2.25-7.761-2.275 7.761zm16.554-5.51c.938.492 1.478 1.36 1.478 2.485 0 .868-.305 1.595-.938 2.18-.633.587-1.36.868-2.275.868h-4.549V11.023h4.22c.869 0 1.619.282 2.205.845.61.562.915 1.266.915 2.086.023.915-.352 1.642-1.056 2.158zm-2.04-3.47h-2.485v2.79h2.485c.774 0 1.36-.61 1.36-1.407 0-.774-.586-1.384-1.36-1.384zm-2.485 7.339h2.814c.797 0 1.453-.657 1.453-1.478 0-.844-.633-1.477-1.453-1.477h-2.814v2.955z" fill="#fff"/></g><defs><linearGradient id="paint0_linear_536_91" x1="7.355" y1="24.562" x2="24.848" y2="7.235" gradientUnits="userSpaceOnUse"><stop stop-color="#A92284"/><stop offset="1" stop-color="#53237D"/></linearGradient></defs></svg>