<svg width="32" height="32" fill="none" xmlns="http://www.w3.org/2000/svg"><mask id="mask0_537_61" style="mask-type:alpha" maskUnits="userSpaceOnUse" x="0" y="0" width="32" height="32"><circle cx="16" cy="16" r="16" fill="#000"/></mask><g mask="url(#mask0_537_61)"><rect width="32" height="32" rx="16" fill="#2C3036"/><path d="M30 16.15v-.3c-6.2-.2-9.03-.35-11.3-2.55-2.2-2.27-2.36-5.1-2.55-11.3h-.3c-.2 6.2-.35 9.03-2.55 11.3-2.27 2.2-5.1 2.36-11.3 2.55v.3c6.2.2 9.03.35 11.3 2.55 2.2 2.27 2.36 5.1 2.55 11.3h.3c.2-6.2.35-9.03 2.55-11.3 2.27-2.2 5.1-2.36 11.3-2.55z" fill="#fff"/></g></svg>