<svg width="32" height="32" fill="none" xmlns="http://www.w3.org/2000/svg"><mask id="mask0_536_31" style="mask-type:alpha" maskUnits="userSpaceOnUse" x="0" y="0" width="32" height="32"><circle cx="16" cy="16" r="16" fill="#000"/></mask><g mask="url(#mask0_536_31)"><path d="M16 32c8.837 0 16-7.163 16-16S24.837 0 16 0 0 7.163 0 16s7.163 16 16 16z" fill="#2787F5"/><path d="M19.07 6h-6.14C7.327 6 6 7.327 6 12.93v6.14C6 24.673 7.327 26 12.93 26h6.14c5.603 0 6.93-1.327 6.93-6.93v-6.14C26 7.327 24.659 6 19.07 6zm3.077 14.27h-1.455c-.551 0-.72-.438-1.708-1.44-.861-.832-1.242-.946-1.456-.946-.296 0-.38.084-.38.494v1.313c0 .353-.114.565-1.045.565-1.539 0-3.247-.932-4.447-2.668-1.806-2.54-2.3-4.446-2.3-4.841 0-.212.083-.41.494-.41h1.455c.367 0 .508.17.65.565.719 2.075 1.919 3.896 2.41 3.896.184 0 .27-.083.27-.55v-2.146c-.057-.988-.58-1.073-.58-1.425 0-.17.141-.34.367-.34h2.287c.311 0 .424.17.424.537v2.893c0 .31.14.423.225.423.184 0 .34-.113.678-.451 1.044-1.171 1.792-2.978 1.792-2.978.1-.212.268-.41.636-.41h1.455c.437 0 .536.226.437.537-.183.847-1.961 3.36-1.961 3.36-.155.253-.212.367 0 .648.155.212.665.65 1.002 1.045.62.707 1.1 1.299 1.228 1.708.143.409-.07.62-.478.62z" fill="#fff"/></g></svg>