<svg width="32" height="32" fill="none" xmlns="http://www.w3.org/2000/svg"><mask id="mask0_537_75" style="mask-type:alpha" maskUnits="userSpaceOnUse" x="0" y="0" width="32" height="32"><circle cx="16" cy="16" r="16" fill="#000"/></mask><g mask="url(#mask0_537_75)"><circle cx="16" cy="16" r="16" fill="url(#paint0_linear_537_75)"/><path fill-rule="evenodd" clip-rule="evenodd" d="M11.576 8.743c-.331-.707-.68-.72-.996-.733C10.322 8 10.026 8 9.73 8a1.66 1.66 0 00-1.18.531C8.143 8.956 7 9.983 7 12.071s1.587 4.106 1.808 4.39c.222.283 3.064 4.706 7.565 6.407 3.742 1.414 4.503 1.133 5.315 1.062.812-.071 2.62-1.027 2.99-2.018.368-.991.368-1.84.258-2.018-.111-.177-.407-.283-.85-.495-.442-.213-2.62-1.24-3.026-1.381-.406-.142-.7-.212-.996.213-.296.424-1.144 1.38-1.402 1.663-.258.284-.517.319-.96.107-.443-.213-1.87-.661-3.561-2.107-1.317-1.125-2.206-2.514-2.464-2.94-.258-.424-.028-.654.194-.865.2-.19.443-.496.665-.744.22-.248.295-.424.442-.708.148-.283.074-.53-.037-.743-.11-.212-.97-2.311-1.365-3.15z" fill="#fff"/></g><defs><linearGradient id="paint0_linear_537_75" x1="16" y1="31.997" x2="16" y2="-.003" gradientUnits="userSpaceOnUse"><stop stop-color="#20B038"/><stop offset="1" stop-color="#60D66A"/></linearGradient></defs></svg>