<svg width="32" height="32" fill="none" xmlns="http://www.w3.org/2000/svg"><mask id="mask0_536_39" style="mask-type:alpha" maskUnits="userSpaceOnUse" x="0" y="0" width="32" height="32"><circle cx="16" cy="16" r="16" fill="#000"/></mask><g mask="url(#mask0_536_39)"><path d="M16 32c8.837 0 16-7.163 16-16S24.837 0 16 0 0 7.163 0 16s7.163 16 16 16z" fill="url(#paint0_linear_536_39)"/><path d="M23.985 10.382c.14-.921-.721-1.648-1.527-1.288L6.41 16.25c-.577.258-.535 1.147.064 1.34l3.31 1.072a2.106 2.106 0 001.867-.289l7.46-5.236c.226-.159.471.167.279.368l-5.37 5.625c-.522.546-.418 1.47.208 1.87l6.013 3.83c.675.43 1.542-.002 1.669-.83l2.075-13.62z" fill="#fff"/></g><defs><linearGradient id="paint0_linear_536_39" x1="16" y1="0" x2="16" y2="32" gradientUnits="userSpaceOnUse"><stop stop-color="#37BBFE"/><stop offset="1" stop-color="#007DBB"/></linearGradient></defs></svg>