<svg width="32" height="32" fill="none" xmlns="http://www.w3.org/2000/svg"><mask id="mask0_536_9" style="mask-type:alpha" maskUnits="userSpaceOnUse" x="0" y="0" width="32" height="32"><circle cx="16" cy="16" r="16" fill="#000"/></mask><g mask="url(#mask0_536_9)"><circle cx="16" cy="16" r="16" fill="#fff"/><path d="M7.087 11.844a10.07 10.07 0 012.724-3.45C11.38 7.1 13.177 6.32 15.193 6.081c2.368-.281 4.594.167 6.652 1.4.511.306.99.654 1.446 1.03.113.093.1.148.004.24-.934.93-1.87 1.86-2.796 2.8-.108.109-.167.1-.284.012-2.717-2.091-6.678-1.526-8.702 1.241a6.111 6.111 0 00-.847 1.58c-.017.05-.05.097-.075.147-.541-.41-1.086-.822-1.622-1.237-.63-.482-1.258-.964-1.882-1.45z" fill="#E94335"/><path d="M10.59 18.463c.18.398.332.813.558 1.186.952 1.559 2.31 2.56 4.1 2.917 1.613.323 3.164.105 4.61-.704l.147-.075c.025.025.046.054.071.075l3.249 2.515c-.52.515-1.111.93-1.74 1.29-1.823 1.04-3.797 1.46-5.876 1.3-2.59-.201-4.825-1.224-6.67-3.068a9.588 9.588 0 01-1.957-2.766c.449-.344.897-.684 1.346-1.027.72-.55 1.442-1.094 2.163-1.643z" fill="#34A853"/><path d="M23.329 24.377l-3.249-2.515a.613.613 0 01-.07-.075c.372-.29.754-.57 1.06-.94a4.875 4.875 0 001.026-2.079c.021-.096.005-.13-.092-.125-.05.004-.096 0-.146 0-1.71 0-3.425-.004-5.135.004-.189 0-.23-.05-.226-.23a263.86 263.86 0 000-3.647c0-.155.041-.197.197-.197 3.135.004 6.27.004 9.41 0 .134 0 .188.033.222.176.255 1.152.239 2.31.084 3.475-.126.93-.352 1.831-.7 2.703a9.616 9.616 0 01-2.272 3.374c-.038.03-.076.05-.11.076z" fill="#4285F3"/><path d="M10.59 18.463c-.72.549-1.441 1.094-2.162 1.643-.449.34-.897.683-1.346 1.027-.348-.646-.574-1.33-.758-2.033-.352-1.363-.407-2.746-.214-4.133.15-1.09.465-2.138.972-3.119.63.482 1.254.968 1.882 1.45.541.415 1.082.826 1.622 1.237-.092.449-.222.889-.264 1.35a6.506 6.506 0 00.244 2.46.343.343 0 01.025.118z" fill="#FABB06"/></g></svg>