<svg width="32" height="32" fill="none" xmlns="http://www.w3.org/2000/svg"><mask id="mask0_537_68" style="mask-type:alpha" maskUnits="userSpaceOnUse" x="0" y="0" width="32" height="32"><circle cx="16" cy="16" r="16" fill="#000"/></mask><g mask="url(#mask0_537_68)"><circle cx="16" cy="16" r="16" fill="#fff"/><path d="M16.015 13.26a2.739 2.739 0 002.74-2.763A2.744 2.744 0 0016 7.745a2.75 2.75 0 00-2.76 2.785 2.745 2.745 0 002.774 2.73z" fill="#EB722E"/><path d="M16 0C7.163 0 0 7.164 0 16s7.163 16 16 16 16-7.164 16-16S24.837 0 16 0zm.023 4.866c3.116.008 5.618 2.557 5.602 5.708-.016 3.079-2.558 5.573-5.67 5.563-3.08-.01-5.605-2.564-5.586-5.648.017-3.118 2.544-5.632 5.654-5.623zm6.312 13.485c-.689.708-1.518 1.22-2.44 1.577-.87.337-1.825.507-2.77.62.143.156.21.232.3.32 1.282 1.29 2.57 2.572 3.848 3.865.435.44.526.986.286 1.498-.262.56-.849.928-1.424.888-.365-.025-.65-.206-.902-.46-.968-.974-1.954-1.93-2.901-2.922-.277-.29-.409-.234-.653.017a193.478 193.478 0 01-2.957 2.97c-.447.44-.979.52-1.497.268-.551-.267-.902-.83-.875-1.395.02-.382.207-.675.47-.936 1.269-1.267 2.534-2.537 3.8-3.806.084-.085.162-.174.284-.305-1.726-.18-3.283-.605-4.615-1.647-.166-.13-.337-.255-.487-.4-.584-.56-.643-1.202-.181-1.863.395-.566 1.057-.717 1.746-.392.134.063.261.142.383.226 2.483 1.706 5.895 1.753 8.388.076.247-.189.511-.344.817-.422.595-.153 1.15.066 1.469.586.365.595.36 1.175-.089 1.637z" fill="#EB722E"/></g></svg>