<svg width="32" height="32" fill="none" xmlns="http://www.w3.org/2000/svg"><mask id="mask0_537_22" style="mask-type:alpha" maskUnits="userSpaceOnUse" x="0" y="0" width="32" height="32"><circle cx="16" cy="16" r="16" fill="#000"/></mask><g mask="url(#mask0_537_22)"><path d="M16 0C7.163 0 0 7.163 0 16s7.163 16 16 16 16-7.163 16-16S24.837 0 16 0z" fill="url(#paint0_linear_537_22)"/><path d="M24.608 11.72a4.522 4.522 0 01-4.523-4.522h-3.231V19.85a2.747 2.747 0 11-1.972-2.639v-3.14a5.832 5.832 0 105.053 5.779l.094-6.396a7.718 7.718 0 004.579 1.497V11.72z" fill="url(#paint1_linear_537_22)"/><path d="M23.754 10.84a4.523 4.523 0 01-4.523-4.522H16V18.97a2.748 2.748 0 11-1.972-2.64v-3.14a5.832 5.832 0 105.053 5.78l.094-6.396a7.72 7.72 0 004.58 1.497l-.001-3.231z" fill="url(#paint2_linear_537_22)"/><path d="M23.754 11.64a4.523 4.523 0 01-2.789-1.761 4.522 4.522 0 01-1.648-2.681h-2.463V19.85a2.751 2.751 0 01-5.103 1.426 2.752 2.752 0 012.277-4.945V14.02a5.83 5.83 0 00-4.514 9.428 5.833 5.833 0 009.567-4.477l.094-6.396a7.72 7.72 0 004.58 1.497l-.001-2.432z" fill="url(#paint3_linear_537_22)"/></g><defs><linearGradient id="paint0_linear_537_22" x1="-.084" y1="32.084" x2="31.919" y2=".081" gradientUnits="userSpaceOnUse"><stop stop-color="#111"/><stop offset="1" stop-color="#323232"/></linearGradient><linearGradient id="paint1_linear_537_22" x1="9.566" y1="23.56" x2="23.007" y2="10.12" gradientUnits="userSpaceOnUse"><stop stop-color="#B5053C"/><stop offset=".233" stop-color="#C90441"/><stop offset=".737" stop-color="#F0014B"/><stop offset="1" stop-color="#FF004F"/></linearGradient><linearGradient id="paint2_linear_537_22" x1="8.512" y1="22.88" x2="22.67" y2="8.722" gradientUnits="userSpaceOnUse"><stop stop-color="#00B2C9"/><stop offset=".283" stop-color="#00C8D4"/><stop offset=".741" stop-color="#00E6E4"/><stop offset="1" stop-color="#00F1EA"/></linearGradient><linearGradient id="paint3_linear_537_22" x1=".58" y1="31.68" x2="31.919" y2=".341" gradientUnits="userSpaceOnUse"><stop stop-color="#DDE3E4"/><stop offset="1" stop-color="#FCF7F7"/></linearGradient></defs></svg>