<svg width="32" height="32" fill="none" xmlns="http://www.w3.org/2000/svg"><mask id="mask0_536_83" style="mask-type:alpha" maskUnits="userSpaceOnUse" x="0" y="0" width="32" height="32"><circle cx="16" cy="16" r="16" fill="#000"/></mask><g mask="url(#mask0_536_83)"><circle cx="16" cy="16" r="16" fill="#005BFF"/><path d="M4.5 17.587c.777-.09 1.404-.666 1.503-1.379.035-.243.008-.49-.078-.723a1.588 1.588 0 00-.419-.617 1.778 1.778 0 00-.672-.383 1.898 1.898 0 00-.789-.072c-.778.09-1.405.666-1.504 1.378-.034.244-.007.491.079.723.086.233.23.444.418.617.19.174.42.305.673.384.254.079.523.104.789.072zm.106-4.572a3.413 3.413 0 011.978.866c.532.487.865 1.127.944 1.813.205 1.897-1.52 3.479-3.59 3.29a3.413 3.413 0 01-1.978-.865 2.916 2.916 0 01-.943-1.813c-.205-1.897 1.52-3.479 3.589-3.29zm4.677.12h4.79c.182 0 .285.19.176.323l-3.314 4.008h2.596c.474 0 .846.395.748.845-.072.33-.41.555-.776.555H8.3c-.18 0-.283-.19-.174-.32l3.316-4.012h-2.13c-.367 0-.704-.226-.776-.555-.099-.45.274-.845.747-.845zm20.788.015c.494-.095.929.248.929.684v4.83c0 .169-.212.262-.356.158l-4.132-3.006v2.351c0 .437-.435.78-.93.684a.726.726 0 01-.597-.702v-4.813c0-.169.213-.263.357-.158l4.132 3.005v-2.33c0-.332.244-.634.597-.703zM19.31 13c2.53 0 4.581 1.343 4.581 3 0 1.656-2.05 2.998-4.58 2.998-2.53 0-4.58-1.342-4.58-2.999 0-1.656 2.05-2.999 4.58-2.999zm0 1.4c-1.747 0-3.053.844-3.053 1.6 0 .754 1.306 1.599 3.054 1.599 1.748 0 3.054-.844 3.054-1.6 0-.755-1.306-1.6-3.054-1.6z" fill="#fff"/></g></svg>