<svg width="32" height="32" fill="none" xmlns="http://www.w3.org/2000/svg"><mask id="mask0_536_75" style="mask-type:alpha" maskUnits="userSpaceOnUse" x="0" y="0" width="32" height="32"><circle cx="16" cy="16" r="16" fill="#000"/></mask><g mask="url(#mask0_536_75)"><circle cx="16" cy="16" r="16" fill="#fff"/><path d="M20.67 26.1a5.43 5.43 0 100-10.86 5.43 5.43 0 000 10.86z" fill="#97CF26"/><path d="M10.463 23.198a2.528 2.528 0 100-5.056 2.528 2.528 0 000 5.056z" fill="#A169F7"/><path d="M20.67 13.958a3.495 3.495 0 100-6.99 3.495 3.495 0 000 6.99z" fill="#FF6163"/><path d="M10.463 14.925a4.463 4.463 0 100-8.925 4.463 4.463 0 000 8.925z" fill="#0AF"/></g></svg>