<svg width="32" height="32" fill="none" xmlns="http://www.w3.org/2000/svg"><mask id="mask0_537_15" style="mask-type:alpha" maskUnits="userSpaceOnUse" x="0" y="0" width="32" height="32"><circle cx="16" cy="16" r="16" fill="#000"/></mask><g mask="url(#mask0_537_15)"><path d="M32 16c0-8.837-7.163-16-16-16S0 7.163 0 16s7.163 16 16 16 16-7.163 16-16z" fill="red"/><path fill-rule="evenodd" clip-rule="evenodd" d="M23.825 9.428c.857.23 1.532.906 1.763 1.763.428 1.565.412 4.827.412 4.827s0 3.245-.412 4.81a2.506 2.506 0 01-1.763 1.763c-1.565.412-7.825.412-7.825.412s-6.244 0-7.825-.428a2.506 2.506 0 01-1.763-1.763C6 19.263 6 16.002 6 16.002s0-3.246.412-4.81a2.557 2.557 0 011.763-1.78C9.74 9 16 9 16 9s6.26 0 7.825.428zm-4.613 6.574L14.007 19v-5.997l5.205 2.999z" fill="#fff"/></g></svg>