<svg width="756" height="965" fill="none" xmlns="http://www.w3.org/2000/svg"><g filter="url(#filter0_f_439_6)"><path d="M605.02 702.953c8.627 50.73-43.619 85.282-80.696 103.959-53.647 27.025-15.358-28.378-24.749-48.942-8.963-19.629-29.571-52.306-54.501-42.691-14.555 5.614-29.382 38.085-38.718 51.38-18.094 25.768-44.181 29.462-68.548 22.534-26.652-7.578-31.821-57.291-32.012-82.414-.426-55.946-22.847-118.869-54.71-158.662-24.612-30.737-69.771-29.772-90.242-68.18-25.425-47.703 2.661-129.205 22.786-178.55 31.894-78.198 102.926-109.201 171.563-135.615 79.977-30.778 155.748-14.242 209.163 47.588 44.465 51.468 49.277 107.145 17.099 174.031-21.139 43.943-55.183 112.207-40.686 158.54 17.406 55.629 54.154 97.651 64.251 157.022z" fill="#0075FF"/></g><defs><filter id="filter0_f_439_6" x=".722" y=".686" width="755.244" height="963.507" filterUnits="userSpaceOnUse" color-interpolation-filters="sRGB"><feFlood flood-opacity="0" result="BackgroundImageFix"/><feBlend in="SourceGraphic" in2="BackgroundImageFix" result="shape"/><feGaussianBlur stdDeviation="75" result="effect1_foregroundBlur_439_6"/></filter></defs></svg>