<svg width="742" height="568" fill="none" xmlns="http://www.w3.org/2000/svg"><path d="M730.445 513.095c-11.945 22.715-33.302 38.084-61.836 46.358-28.539 8.275-64.202 9.43-104.619 3.752-80.833-11.357-180.5-50.021-279.809-113.341-99.31-63.319-179.378-139.253-228.562-210.795-24.593-35.772-41.436-70.404-49.126-101.779-7.688-31.368-6.214-59.415 5.73-82.13C24.17 32.445 45.527 17.075 74.06 8.802 102.6.526 138.261-.628 178.68 5.05c80.833 11.357 180.499 50.02 279.809 113.34 99.309 63.319 179.378 139.253 228.562 210.795 24.593 35.772 41.436 70.405 49.125 101.779 7.688 31.368 6.215 59.415-5.73 82.131z" stroke="#A9FA43" stroke-width="2"/></svg>