<svg width="1066" height="1317" fill="none" xmlns="http://www.w3.org/2000/svg"><g filter="url(#filter0_f_439_5)"><path d="M435.107 156.794c-40.927 43.794-78.715 99.215-112.176 163.365-7.624 14.617-29.321 67.911-46.2 68.007-19.751.113-31.183-53.386-50.887-56.628-23.36-3.843-49.315 27.925-62.157 66.683-18.935 57.15-16.519 124.592-2.727 178.822 8.929 35.107 18.787 62.236 37.709 74.512 22.474 14.58 40.615 21.65 60.34 48.232 35.846 48.308 13.007 101.999-4.506 165.078-17.77 64.003-39.488 99.045-27.617 174.675 6.861 43.71 18.6 102.98 40.018 126.55 7.686 8.46 99.874-165.14 108.053-167.687 47.884-14.938 70.077 189.997 113.436 150.267 46.826-42.89 47.676-137.28 96.699-142.85 60.511-6.879 119.839 9.36 180.238-2 51.99-9.784 154.677-117.598 150.235-239.516-2.935-80.58-36.305-98.207-73.202-115.455-57.483-26.872-113.762-35.136-174.162-21.354-67.76 15.461-139.122 53.299-205.92 28.277-31.462-11.785-23.319-71.393-11.093-115.888 17.312-63.003 50.901-130.839 54.933-202.187 2.724-48.188 1.91-108.917-17.766-138.838-14.319-21.776-32.111-64.683-53.248-42.065z" fill="#A9FA43"/></g><defs><filter id="filter0_f_439_5" x=".051" y=".393" width="1065.65" height="1316" filterUnits="userSpaceOnUse" color-interpolation-filters="sRGB"><feFlood flood-opacity="0" result="BackgroundImageFix"/><feBlend in="SourceGraphic" in2="BackgroundImageFix" result="shape"/><feGaussianBlur stdDeviation="75" result="effect1_foregroundBlur_439_5"/></filter></defs></svg>