<svg width="609" height="446" fill="none" xmlns="http://www.w3.org/2000/svg"><path d="M601.367 411.954c-8.239 15.666-24.288 25.506-46.491 29.751-22.201 4.244-50.436 2.864-82.817-3.798-64.754-13.321-145.874-47.722-227.983-100.075-82.11-52.353-149.587-112.697-192.315-167.905-21.366-27.607-36.509-53.885-44.218-77.2-7.71-23.317-7.949-43.542.29-59.208C16.07 17.853 32.12 8.012 54.322 3.768c22.2-4.244 50.436-2.865 82.817 3.797 64.754 13.322 145.874 47.723 227.983 100.075 82.109 52.353 149.587 112.697 192.315 167.905 21.366 27.608 36.508 53.886 44.218 77.2 7.71 23.317 7.949 43.543-.289 59.209z" stroke="#A9FA43" stroke-width="2"/></svg>