<svg width="471" height="130" fill="none" xmlns="http://www.w3.org/2000/svg"><g opacity=".1"><mask id="path-1-outside-1_2634_8105" maskUnits="userSpaceOnUse" x="-1" y="-1" width="475" height="132" fill="#000"><path fill="#fff" d="M-1-1h475v132H-1z"/><path d="M43.48 130c-9.827 0-17.673-.44-23.54-1.32-5.867-.88-10.267-1.833-13.2-2.86-2.787-1.173-4.767-1.98-5.94-2.42l8.58-16.94c3.227.293 10.927.807 23.1 1.54 12.173.587 30.433.88 54.78.88 6.453 0 10.927-1.393 13.42-4.18 2.493-2.933 3.74-6.747 3.74-11.44V84.9c0-4.253-1.247-7.92-3.74-11-2.347-3.08-6.893-4.62-13.64-4.62H25l-17.6 2.2V.64h99.44c7.333 0 12.54.293 15.62.88s4.62 1.173 4.62 1.76l-4.4 18.48H36.44V51.9c1.907-.293 5.72-.66 11.44-1.1 5.867-.44 13.787-.66 23.76-.66h17.38c16.427 0 27.94 3.007 34.54 9.02 6.6 5.867 9.9 14.667 9.9 26.4v5.06a89.73 89.73 0 01-1.1 13.86c-.733 4.547-2.347 8.8-4.84 12.76-2.493 3.813-6.453 6.893-11.88 9.24-5.427 2.347-12.833 3.52-22.22 3.52H43.48zm158.919 0c-10.267 0-18.333-1.467-24.2-4.4-5.867-2.933-10.047-7.333-12.54-13.2-2.347-5.867-3.52-13.127-3.52-21.78V39.8c0-8.507 1.173-15.62 3.52-21.34 2.347-5.867 6.453-10.267 12.32-13.2 5.867-3.08 14.007-4.62 24.42-4.62h50.82c10.267 0 18.26 1.54 23.98 4.62 5.867 2.933 9.973 7.333 12.32 13.2 2.493 5.72 3.74 12.833 3.74 21.34v50.82c0 12.907-2.86 22.733-8.58 29.48-5.72 6.6-16.207 9.9-31.46 9.9h-50.82zm6.38-21.12h38.28c5.427 0 9.607-1.393 12.54-4.18 3.08-2.787 4.62-6.6 4.62-11.44v-56.1c0-4.253-1.54-7.847-4.62-10.78-3.08-3.08-7.26-4.62-12.54-4.62h-38.28c-5.28 0-9.533 1.393-12.76 4.18-3.227 2.787-4.84 6.527-4.84 11.22v56.1c0 4.987 1.54 8.873 4.62 11.66 3.227 2.64 7.553 3.96 12.98 3.96zM313.028 130l8.36-13.2 48.84-51.48-57.2-64.68h35.2l42.46 48.62h2.42L435.788.64h35.2l-8.58 12.98-48.62 51.7 57.2 64.68h-35.2l-42.68-49.06h-2.42L348.228 130h-35.2z"/></mask><path d="M19.94 128.68l-.148.989.148-.989zm-13.2-2.86l-.388.922.028.012.03.01.33-.944zM.8 123.4l-.892-.452-.505.996 1.046.392.351-.936zm8.58-16.94l.09-.996-.675-.061-.307.605.892.452zm23.1 1.54l-.06.998.012.001.048-.999zm68.2-3.3l.745.667.009-.01.008-.009-.762-.648zm0-30.8l-.795.606.008.012.01.011.777-.629zM25 69.28v-1h-.062l-.062.008.124.992zm-17.6 2.2h-1v1.133l1.124-.14-.124-.993zM7.4.64v-1h-1v1h1zm115.06.88l.187-.982-.187.982zm4.62 1.76l.973.232.027-.115V3.28h-1zm-4.4 18.48v1h.79l.183-.768-.973-.232zm-86.24 0v-1h-1v1h1zm0 30.14h-1v1.166l1.152-.178-.152-.988zm11.44-1.1l-.075-.997h-.002l.077.997zm75.68 8.36l-.674.74.01.007.664-.747zm8.8 45.32l.987.159.001-.005-.988-.154zm-4.84 12.76l.837.547.005-.007.004-.007-.846-.533zM43.48 129c-9.805 0-17.595-.44-23.392-1.309l-.296 1.978c5.937.891 13.84 1.331 23.688 1.331v-2zm-23.392-1.309c-5.85-.877-10.175-1.82-13.018-2.815l-.66 1.888c3.023 1.058 7.498 2.022 13.382 2.905l.296-1.978zm-12.96-2.793c-2.787-1.173-4.783-1.987-5.977-2.434l-.702 1.872c1.153.433 3.116 1.232 5.903 2.406l.776-1.844zm-5.436-1.046l8.58-16.94-1.784-.904-8.58 16.94 1.784.904zm7.597-16.396c3.246.295 10.963.809 23.13 1.542l.121-1.996c-12.178-.734-19.861-1.246-23.07-1.538l-.18 1.992zm23.143 1.543c12.198.588 30.478.881 54.828.881v-2c-24.343 0-42.584-.293-54.732-.879l-.096 1.998zm54.828.881c6.542 0 11.382-1.403 14.165-4.513l-1.49-1.334c-2.204 2.463-6.31 3.847-12.675 3.847v2zm14.182-4.532c2.679-3.152 3.978-7.211 3.978-12.088h-2c0 4.51-1.194 8.077-3.502 10.792l1.524 1.296zm3.978-12.088V84.9h-2v8.36h2zm0-8.36c0-4.464-1.314-8.358-3.963-11.63l-1.554 1.26c2.338 2.888 3.517 6.328 3.517 10.37h2zm-3.945-11.606c-2.64-3.464-7.6-5.014-14.435-5.014v2c6.659 0 10.79 1.53 12.845 4.226l1.59-1.212zM87.04 68.28H25v2h62.04v-2zm-62.164.008l-17.6 2.2.248 1.984 17.6-2.2-.248-1.984zM8.4 71.48V.64h-2v70.84h2zm-1-69.84h99.44v-2H7.4v2zm99.44 0c7.331 0 12.454.295 15.433.862l.374-1.964c-3.181-.606-8.472-.898-15.807-.898v2zm15.433.862c1.524.29 2.61.571 3.296.832.349.133.535.24.616.301.105.08-.105-.032-.105-.355h2c0-.616-.402-1.022-.683-1.235-.303-.232-.695-.419-1.116-.58-.854-.325-2.078-.631-3.634-.927l-.374 1.964zm3.834.546l-4.4 18.48 1.946.464 4.4-18.48-1.946-.464zM122.68 20.76H36.44v2h86.24v-2zm-87.24 1V51.9h2V21.76h-2zm1.152 31.128c1.863-.286 5.639-.65 11.365-1.09l-.154-1.995c-5.714.44-9.565.809-11.515 1.109l.304 1.976zm11.363-1.09c5.83-.438 13.722-.658 23.685-.658v-2c-9.984 0-17.932.22-23.835.663l.15 1.994zm23.685-.658h17.38v-2H71.64v2zm17.38 0c16.364 0 27.553 3.007 33.867 8.76l1.347-1.48c-6.887-6.274-18.725-9.28-35.214-9.28v2zm33.876 8.767c6.322 5.62 9.564 14.106 9.564 25.653h2c0-11.92-3.358-21.034-10.236-27.147l-1.328 1.494zm9.564 25.653v5.06h2v-5.06h-2zm0 5.06a88.66 88.66 0 01-1.088 13.706l1.976.308a90.677 90.677 0 001.112-14.014h-2zm-1.087 13.701c-.712 4.412-2.276 8.538-4.699 12.386l1.692 1.066c2.564-4.072 4.226-8.452 4.981-13.134l-1.974-.318zm-4.69 12.372c-2.358 3.607-6.14 6.577-11.44 8.869l.794 1.836c5.554-2.402 9.692-5.591 12.32-9.611l-1.674-1.094zm-11.44 8.869c-5.249 2.27-12.502 3.438-21.823 3.438v2c9.452 0 17.013-1.179 22.617-3.602l-.794-1.836zM93.42 129H43.48v2h49.94v-2zm84.779-3.4l.447-.894-.447.894zm-12.54-13.2l-.928.371.004.01.004.01.92-.391zm0-93.94l.925.38.004-.009-.929-.371zm12.32-13.2l.447.894.009-.004.009-.005-.465-.885zm99.22 0l-.474.88.013.008.014.006.447-.894zm12.32 13.2l-.928.371.005.015.006.014.917-.4zm-4.84 101.64l.756.655.007-.008-.763-.647zm-25.08-15.4l-.671-.742-.009.009-.009.008.689.725zm0-78.32l-.707.707.009.009.008.008.69-.724zm-63.8 78.54l-.671.742.019.016.019.016.633-.774zm6.6 24.08c-10.19 0-18.082-1.459-23.753-4.294l-.894 1.788c6.062 3.032 14.304 4.506 24.647 4.506v-2zm-23.753-4.294c-5.661-2.831-9.669-7.056-12.067-12.697l-1.84.782c2.589 6.092 6.94 10.667 13.013 13.703l.894-1.788zm-12.058-12.677c-2.286-5.714-3.449-12.839-3.449-21.409h-2c0 8.737 1.184 16.132 3.592 22.151l1.857-.742zm-3.449-21.409V39.8h-2v50.82h2zm0-50.82c0-8.422 1.163-15.397 3.445-20.96l-1.85-.76c-2.411 5.877-3.595 13.129-3.595 21.72h2zm3.449-20.969c2.252-5.63 6.182-9.848 11.838-12.677l-.894-1.788c-6.077 3.038-10.36 7.62-12.801 13.723l1.857.742zm11.856-12.686c5.664-2.973 13.62-4.505 23.955-4.505v-2c-10.492 0-18.816 1.548-24.885 4.735l.93 1.77zm23.955-4.505h50.82v-2h-50.82v2zm50.82 0c10.188 0 17.993 1.532 23.506 4.5l.948-1.76c-5.926-3.192-14.108-4.74-24.454-4.74v2zm23.533 4.514c5.657 2.829 9.587 7.047 11.839 12.677l1.857-.742c-2.442-6.104-6.725-10.685-12.802-13.723l-.894 1.788zm11.85 12.706c2.423 5.557 3.657 12.524 3.657 20.94h2c0-8.597-1.259-15.857-3.823-21.74l-1.834.8zm3.657 20.94v50.82h2V39.8h-2zm0 50.82c0 12.776-2.833 22.334-8.343 28.833l1.526 1.294c5.93-6.995 8.817-17.09 8.817-30.127h-2zm-8.336 28.825c-5.427 6.263-15.536 9.555-30.704 9.555v2c15.338 0 26.204-3.308 32.216-10.245l-1.512-1.31zM253.219 129h-50.82v2h50.82v-2zm-44.44-19.12h38.28v-2h-38.28v2zm38.28 0c5.594 0 10.054-1.439 13.229-4.455l-1.378-1.45c-2.691 2.557-6.591 3.905-11.851 3.905v2zm13.211-4.438c3.325-3.009 4.949-7.11 4.949-12.182h-2c0 4.609-1.456 8.133-4.291 10.698l1.342 1.484zm4.949-12.182v-56.1h-2v56.1h2zm0-56.1c0-4.527-1.652-8.382-4.93-11.504l-1.38 1.448c2.882 2.745 4.31 6.076 4.31 10.056h2zm-4.913-11.487c-3.306-3.306-7.762-4.913-13.247-4.913v2c5.075 0 8.979 1.473 11.833 4.327l1.414-1.414zm-13.247-4.913h-38.28v2h38.28v-2zm-38.28 0c-5.461 0-9.965 1.445-13.414 4.423l1.308 1.514c3.004-2.595 7.007-3.937 12.106-3.937v-2zm-13.414 4.423c-3.47 2.997-5.186 7.026-5.186 11.977h2c0-4.436 1.511-7.887 4.494-10.463l-1.308-1.514zm-5.186 11.977v56.1h2v-56.1h-2zm0 56.1c0 5.208 1.618 9.388 4.949 12.402l1.342-1.484c-2.829-2.559-4.291-6.152-4.291-10.918h-2zm4.987 12.434c3.453 2.825 8.026 4.186 13.613 4.186v-2c-5.266 0-9.347-1.279-12.347-3.734l-1.266 1.548zM313.028 130l-.845-.535-.972 1.535h1.817v-1zm8.36-13.2l-.725-.688-.067.071-.053.082.845.535zm48.84-51.48l.726.688.63-.664-.607-.686-.749.662zM313.028.64v-1h-2.219l1.47 1.662.749-.662zm35.2 0l.753-.658-.299-.342h-.454v1zm42.46 48.62l-.753.658.299.342h.454v-1zm2.42 0v1h.453l.299-.34-.752-.66zM435.788.64v-1h-.453l-.298.34.751.66zm35.2 0l.834.551 1.026-1.551h-1.86v1zm-8.58 12.98l.729.685.058-.062.047-.072-.834-.551zm-48.62 51.7l-.728-.685-.625.664.604.683.749-.662zm57.2 64.68v1h2.219l-1.47-1.662-.749.662zm-35.2 0l-.754.656.299.344h.455v-1zm-42.68-49.06l.755-.656-.299-.344h-.456v1zm-2.42 0v-1h-.457l-.299.346.756.654zM348.228 130v1h.457l.299-.346-.756-.654zm-34.355.535l8.36-13.2-1.69-1.07-8.36 13.2 1.69 1.07zm8.241-13.047l48.84-51.48-1.451-1.376-48.84 51.48 1.451 1.376zm48.863-52.83l-57.2-64.68-1.498 1.324 57.2 64.68 1.498-1.325zM313.028 1.64h35.2v-2h-35.2v2zm34.447-.342l42.46 48.62 1.506-1.316-42.46-48.62-1.506 1.316zm43.213 48.962h2.42v-2h-2.42v2zm3.172-.34L436.54 1.3l-1.503-1.32-42.68 48.62 1.503 1.32zm41.928-48.28h35.2v-2h-35.2v2zM470.154.089l-8.58 12.98 1.668 1.102 8.58-12.98L470.154.09zm-8.474 12.846l-48.62 51.7 1.457 1.37 48.62-51.7-1.457-1.37zm-48.641 53.047l57.2 64.68 1.498-1.324-57.2-64.68-1.498 1.325zM470.988 129h-35.2v2h35.2v-2zm-34.445.344l-42.68-49.06-1.509 1.312 42.68 49.06 1.509-1.312zM393.108 79.94h-2.42v2h2.42v-2zm-3.176.346l-42.46 49.06 1.512 1.308 42.46-49.06-1.512-1.308zM348.228 129h-35.2v2h35.2v-2z" fill="#5CF4FF" mask="url(#path-1-outside-1_2634_8105)"/></g></svg>