<svg width="554" height="172" fill="none" xmlns="http://www.w3.org/2000/svg"><g opacity=".3"><mask id="path-1-outside-1_2668_9033" maskUnits="userSpaceOnUse" x="0" y="1" width="553" height="170" fill="#000"><path fill="#fff" d="M0 1h553v170H0z"/><path d="M1.943 170V2h32.16l71.52 118.56h-17.04L158.903 2h31.92l.48 168h-36.48l-.24-112.08h6.72l-56.16 94.32h-17.52l-57.36-94.32h8.16V170H1.943zM266.922 69.68h80.88v30.24h-80.88V69.68zm2.88 69.12h91.44V170h-130.08V2h126.96v31.2h-88.32v105.6zM440.234 170L367.754 2h42l63.36 148.8h-24.72L512.714 2h38.64l-72.72 168h-38.4z"/></mask><path d="M1.943 170h-1v1h1v-1zm0-168V1h-1v1h1zm32.16 0l.857-.517L34.668 1h-.565v1zm71.52 118.56v1h1.772l-.915-1.517-.857.517zm-17.04 0l-.86-.51-.895 1.51h1.755v-1zM158.903 2V1h-.569l-.291.49.86.51zm31.92 0l1-.003-.002-.997h-.998v1zm.48 168v1h1.003l-.003-1.003-1 .003zm-36.48 0l-1 .002.003.998h.997v-1zm-.24-112.08v-1h-1.002l.002 1.002 1-.002zm6.72 0l.86.512.9-1.512h-1.76v1zm-56.16 94.32v1h.569l.291-.488-.86-.512zm-17.52 0l-.854.52.292.48h.562v-1zm-57.36-94.32v-1h-1.778l.924 1.52.854-.52zm8.16 0h1v-1h-1v1zm0 112.08v1h1v-1h-1zm-35.48 0V2h-2v168h2zm-1-167h32.16V1H1.943v2zm31.304-.483l71.52 118.56 1.713-1.034L34.96 1.483l-1.713 1.034zm72.376 117.043h-17.04v2h17.04v-2zm-16.18 1.51L159.764 2.51l-1.721-1.02-70.32 118.56 1.72 1.02zM158.904 3h31.92V1h-31.92v2zm30.92-.997l.48 168 2-.006-.48-168-2 .006zM191.303 169h-36.48v2h36.48v-2zm-35.48.998l-.24-112.08-2 .004.24 112.08 2-.004zm-1.24-111.078h6.72v-2h-6.72v2zm5.861-1.512l-56.16 94.32 1.719 1.024 56.16-94.32-1.719-1.024zm-55.301 93.832h-17.52v2h17.52v-2zm-16.665.48L31.118 57.4l-1.709 1.04 57.36 94.32 1.709-1.04zm-58.215-92.8h8.16v-2h-8.16v2zm7.16-1V170h2V57.92h-2zm1 111.08H1.943v2h36.48v-2zm228.499-99.32v-1h-1v1h1zm80.88 0h1v-1h-1v1zm0 30.24v1h1v-1h-1zm-80.88 0h-1v1h1v-1zm2.88 38.88h-1v1h1v-1zm91.44 0h1v-1h-1v1zm0 31.2v1h1v-1h-1zm-130.08 0h-1v1h1v-1zm0-168V1h-1v1h1zm126.96 0h1V1h-1v1zm0 31.2v1h1v-1h-1zm-88.32 0v-1h-1v1h1zm-2.88 37.48h80.88v-2h-80.88v2zm79.88-1v30.24h2V69.68h-2zm1 29.24h-80.88v2h80.88v-2zm-79.88 1V69.68h-2v30.24h2zm1.88 39.88h91.44v-2h-91.44v2zm90.44-1V170h2v-31.2h-2zm1 30.2h-130.08v2h130.08v-2zm-129.08 1V2h-2v168h2zm-1-167h126.96V1h-126.96v2zm125.96-1v31.2h2V2h-2zm1 30.2h-88.32v2h88.32v-2zm-89.32 1v105.6h2V33.2h-2zM440.234 170l-.918.396.26.604h.658v-1zM367.754 2V1h-1.52l.602 1.396.918-.396zm42 0l.92-.392-.259-.608h-.661v1zm63.36 148.8v1h1.513l-.593-1.392-.92.392zm-24.72 0l-.918-.397-.604 1.397h1.522v-1zM512.714 2V1h-.657l-.261.603.918.397zm38.64 0l.918.397.605-1.397h-1.523v1zm-72.72 168v1h.657l.261-.603-.918-.397zm-37.482-.396l-72.48-168-1.836.792 72.48 168 1.836-.792zM367.754 3h42V1h-42v2zm41.08-.608l63.36 148.8 1.84-.784-63.36-148.8-1.84.784zm64.28 147.408h-24.72v2h24.72v-2zm-23.802 1.397l64.32-148.8-1.836-.794-64.32 148.8 1.836.794zM512.714 3h38.64V1h-38.64v2zm37.722-1.397l-72.72 168 1.836.794 72.72-168-1.836-.794zM478.634 169h-38.4v2h38.4v-2z" fill="#1DFEE9" mask="url(#path-1-outside-1_2668_9033)"/><path d="M1.943 170h-1v1h1v-1zm0-168V1h-1v1h1zm32.16 0l.857-.517L34.668 1h-.565v1zm71.52 118.56v1h1.772l-.915-1.517-.857.517zm-17.04 0l-.86-.51-.895 1.51h1.755v-1zM158.903 2V1h-.569l-.291.49.86.51zm31.92 0l1-.003-.002-.997h-.998v1zm.48 168v1h1.003l-.003-1.003-1 .003zm-36.48 0l-1 .002.003.998h.997v-1zm-.24-112.08v-1h-1.002l.002 1.002 1-.002zm6.72 0l.86.512.9-1.512h-1.76v1zm-56.16 94.32v1h.569l.291-.488-.86-.512zm-17.52 0l-.854.52.292.48h.562v-1zm-57.36-94.32v-1h-1.778l.924 1.52.854-.52zm8.16 0h1v-1h-1v1zm0 112.08v1h1v-1h-1zm-35.48 0V2h-2v168h2zm-1-167h32.16V1H1.943v2zm31.304-.483l71.52 118.56 1.713-1.034L34.96 1.483l-1.713 1.034zm72.376 117.043h-17.04v2h17.04v-2zm-16.18 1.51L159.764 2.51l-1.721-1.02-70.32 118.56 1.72 1.02zM158.904 3h31.92V1h-31.92v2zm30.92-.997l.48 168 2-.006-.48-168-2 .006zM191.303 169h-36.48v2h36.48v-2zm-35.48.998l-.24-112.08-2 .004.24 112.08 2-.004zm-1.24-111.078h6.72v-2h-6.72v2zm5.861-1.512l-56.16 94.32 1.719 1.024 56.16-94.32-1.719-1.024zm-55.301 93.832h-17.52v2h17.52v-2zm-16.665.48L31.118 57.4l-1.709 1.04 57.36 94.32 1.709-1.04zm-58.215-92.8h8.16v-2h-8.16v2zm7.16-1V170h2V57.92h-2zm1 111.08H1.943v2h36.48v-2zm228.499-99.32v-1h-1v1h1zm80.88 0h1v-1h-1v1zm0 30.24v1h1v-1h-1zm-80.88 0h-1v1h1v-1zm2.88 38.88h-1v1h1v-1zm91.44 0h1v-1h-1v1zm0 31.2v1h1v-1h-1zm-130.08 0h-1v1h1v-1zm0-168V1h-1v1h1zm126.96 0h1V1h-1v1zm0 31.2v1h1v-1h-1zm-88.32 0v-1h-1v1h1zm-2.88 37.48h80.88v-2h-80.88v2zm79.88-1v30.24h2V69.68h-2zm1 29.24h-80.88v2h80.88v-2zm-79.88 1V69.68h-2v30.24h2zm1.88 39.88h91.44v-2h-91.44v2zm90.44-1V170h2v-31.2h-2zm1 30.2h-130.08v2h130.08v-2zm-129.08 1V2h-2v168h2zm-1-167h126.96V1h-126.96v2zm125.96-1v31.2h2V2h-2zm1 30.2h-88.32v2h88.32v-2zm-89.32 1v105.6h2V33.2h-2zM440.234 170l-.918.396.26.604h.658v-1zM367.754 2V1h-1.52l.602 1.396.918-.396zm42 0l.92-.392-.259-.608h-.661v1zm63.36 148.8v1h1.513l-.593-1.392-.92.392zm-24.72 0l-.918-.397-.604 1.397h1.522v-1zM512.714 2V1h-.657l-.261.603.918.397zm38.64 0l.918.397.605-1.397h-1.523v1zm-72.72 168v1h.657l.261-.603-.918-.397zm-37.482-.396l-72.48-168-1.836.792 72.48 168 1.836-.792zM367.754 3h42V1h-42v2zm41.08-.608l63.36 148.8 1.84-.784-63.36-148.8-1.84.784zm64.28 147.408h-24.72v2h24.72v-2zm-23.802 1.397l64.32-148.8-1.836-.794-64.32 148.8 1.836.794zM512.714 3h38.64V1h-38.64v2zm37.722-1.397l-72.72 168 1.836.794 72.72-168-1.836-.794zM478.634 169h-38.4v2h38.4v-2z" fill="url(#paint0_linear_2668_9033)" mask="url(#path-1-outside-1_2668_9033)"/></g><defs><linearGradient id="paint0_linear_2668_9033" x1="265.077" y1="-60" x2="151.149" y2="285.153" gradientUnits="userSpaceOnUse"><stop stop-color="#FFC400"/><stop offset="1" stop-color="#F30"/></linearGradient></defs></svg>