<svg width="599" height="338" fill="none" xmlns="http://www.w3.org/2000/svg"><mask id="mask0_2634_8108" style="mask-type:alpha" maskUnits="userSpaceOnUse" x="0" y="0" width="596" height="336"><path fill="url(#paint0_linear_2634_8108)" d="M0 0h596v336H0z"/></mask><g opacity=".3" fill="#F6780F" mask="url(#mask0_2634_8108)"><path d="M590.027 57.224h-1.363v94.935h1.363V57.224z"/><path opacity=".3" d="M573.91 80.394h-1.363v82.072h1.363V80.394zm-16.117 52.313h-1.363v108.245h1.363V132.707zm-16.117 12.663h-1.364v78.075h1.364V145.37zm-16.118-84.086h-1.363v188.983h1.363V61.284z"/><path d="M509.441 54.354h-1.363v134.419h1.363V54.354zm-16.109 21.113h-1.363v51.459h1.363V75.467zm-16.117-18h-1.363v71.865h1.363V57.467zm-16.118-10.048h-1.363V148.12h1.363V47.418z"/><path opacity=".3" d="M444.98 98.427h-1.363v63.882h1.363V98.427zm-16.117-31.216H427.5v111.794h1.363V67.211zm-16.117 34.222h-1.363v33.272h1.363v-33.272z"/><path d="M396.629 79.08h-1.363v45.912h1.363V79.079zm-16.117-29.914h-1.364v91.829h1.364v-91.83zm-16.118-13.007h-1.363v85.174h1.363V36.159zm-16.109 5.847h-1.363v98.485h1.363V42.006zm-16.117-30.124h-1.363V134.32h1.363V11.881zM316.051 34.51h-1.363v101.478h1.363V34.51zm-16.118 52.182h-1.363v55.898h1.363V86.692zM283.824 59.7h-1.363v81.85h1.363V59.7zm-16.117-13.298h-1.363v143.734h1.363V46.402z"/><path opacity=".3" d="M251.59 40.595h-1.363v218.262h1.363V40.595zm-16.117 29.481h-1.364v306.098h1.364V70.076zm-16.118 133.368h-1.363v122.44h1.363v-122.44zm-16.117-31.618h-1.363V315.56h1.363V171.826zm-16.117-24.458h-1.363v131.757h1.363V147.368zm-16.117 2.681h-1.363v143.734h1.363V150.049zm-16.117-2.916h-1.364v62.994h1.364v-62.994zm-16.11-17.227h-1.363v134.417h1.363V129.906zm-16.117 68.315h-1.363v59.889h1.363v-59.889zm-16.117-9.336h-1.363V303.34h1.363V188.885zm-16.117-8.589h-1.364v170.35h1.364v-170.35zm-16.118 60.95h-1.363v110.019h1.363V241.246zm-16.117 45.089h-1.363v40.813h1.363v-40.813zM42.074 178.119h-1.363V423h1.363V178.119zm-16.117 63.799h-1.363v83.403h1.363v-83.403z"/><path d="M9.84 221.458H8.477v166.803H9.84V221.458zM596.162 90.307h-13.631v28.769h13.631V90.307z"/><path opacity=".3" d="M580.045 108.993h-13.631v24.869h13.631v-24.869zm-16.117 61.435h-13.631v32.803h13.631v-32.803zm-16.117 2.153H534.18v23.661h13.631v-23.661zm-16.11-45.438H518.07v57.269h13.631v-57.269z"/><path d="M515.584 101.196h-13.631v40.733h13.631v-40.733zm-16.117-7.795h-13.631v15.595h13.631V93.401zM483.35 82.51h-13.631v21.777h13.631V82.51zm-16.117 0h-13.631v30.516h13.631V82.51z"/><path opacity=".3" d="M451.115 120.69h-13.631v19.358h13.631V120.69zm-16.117-14.52h-13.631v33.878h13.631V106.17zm-16.117 6.856H405.25v10.084h13.631v-10.084z"/><path d="M402.764 95.08h-13.631v13.913h13.631V95.079zm-16.11-13.912h-13.631v27.828h13.631V81.168zM370.537 65.84h-13.631v25.811h13.631v-25.81zM354.42 76.327h-13.631v29.844h13.631V76.327zm-16.117-21.778h-13.631V91.65h13.631v-37.1zm-16.11 15.325h-13.631v30.751h13.631V69.874zm-16.117 36.296h-13.631v16.939h13.631V106.17zm-16.117-17.946h-13.631v24.802h13.631V88.224zm-16.117 8.269h-13.631v43.555h13.631V96.493z"/><path opacity=".3" d="M257.725 116.657h-13.631v66.138h13.631v-66.138zm-16.117 60.091h-13.631v92.757h13.631v-92.757zm-16.118 69.366h-13.631v37.102h13.631v-37.102zm-16.117-24.197h-13.631v43.555h13.631v-43.555zm-16.117-28.636h-13.631v39.928h13.631v-39.928zm-16.109 6.858h-13.631v43.555h13.631v-43.555zm-16.118-31.055h-13.631v19.089h13.631v-19.089zm-16.117 7.664h-13.631v40.733h13.631v-40.733zm-16.117 42.344h-13.631v18.147h13.631v-18.147zm-16.117 9.68H99.047v34.684h13.631v-34.684zM96.56 239.661H82.93v51.622h13.63v-51.622zm-16.116 39.925H66.811v33.339h13.632v-33.339z"/><path d="M64.326 300.558h-13.63v12.369h13.63v-12.369z"/><path opacity=".3" d="M48.21 263.456H34.577v74.205H48.21v-74.205zm-16.11 7.527H18.469v25.272h13.63v-25.272z"/><path d="M15.983 279.586H2.352v50.547h13.63v-50.547z"/></g><defs><linearGradient id="paint0_linear_2634_8108" x1="0" y1="255.5" x2="596" y2="255.5" gradientUnits="userSpaceOnUse"><stop stop-color="#D9D9D9" stop-opacity="0"/><stop offset=".268" stop-color="#CBCBCB"/><stop offset=".819" stop-color="gray"/><stop offset="1" stop-color="#737373" stop-opacity="0"/></linearGradient></defs></svg>