<svg width="1661" height="1031" fill="none" xmlns="http://www.w3.org/2000/svg"><g opacity=".1"><g opacity=".2"><path d="M1077.44 305.539h-62.42l9.5-5.352h43.42l9.5 5.352z" fill="#C4C4C4"/><path d="M1077.44 305.539h-62.42l9.5-5.352h43.42l9.5 5.352z" fill="#FFA800"/><path d="M1077.44 305.539h-62.42l9.5-5.352h43.42l9.5 5.352z" fill="red"/><path d="M1077.44 305.539h-62.42l9.5-5.352h43.42l9.5 5.352z" fill="#FFB800"/><path d="M1047.59 248.003l31.21 53.304-9.45-5.435-21.71-37.081-.05-10.788z" fill="#C4C4C4"/><path d="M1047.59 248.003l31.21 53.304-9.45-5.435-21.71-37.081-.05-10.788z" fill="#FFA800"/><path d="M1047.59 248.003l31.21 53.304-9.45-5.435-21.71-37.081-.05-10.788z" fill="red"/><path d="M1047.59 248.003l31.21 53.304-9.45-5.435-21.71-37.081-.05-10.788z" fill="#FFB800"/><path d="M1044.24 248.003l-31.21 53.304 9.45-5.435 21.71-37.081.05-10.788z" fill="#C4C4C4"/><path d="M1044.24 248.003l-31.21 53.304 9.45-5.435 21.71-37.081.05-10.788z" fill="#FFB800"/></g><g opacity=".2"><path d="M1076.53 181.539h-62.41l9.49-5.352h43.42l9.5 5.352z" fill="#C4C4C4"/><path d="M1076.53 181.539h-62.41l9.49-5.352h43.42l9.5 5.352z" fill="#FFA800"/><path d="M1076.53 181.539h-62.41l9.49-5.352h43.42l9.5 5.352z" fill="red"/><path d="M1076.53 181.539h-62.41l9.49-5.352h43.42l9.5 5.352z" fill="#FFB800"/><path d="M1046.68 124.002l31.21 53.304-9.45-5.435-21.71-37.081-.05-10.788z" fill="#C4C4C4"/><path d="M1046.68 124.002l31.21 53.304-9.45-5.435-21.71-37.081-.05-10.788z" fill="#FFA800"/><path d="M1046.68 124.002l31.21 53.304-9.45-5.435-21.71-37.081-.05-10.788z" fill="red"/><path d="M1046.68 124.002l31.21 53.304-9.45-5.435-21.71-37.081-.05-10.788z" fill="#FFB800"/><path d="M1043.34 124.002l-31.21 53.304 9.45-5.435 21.71-37.081.05-10.788z" fill="#C4C4C4"/><path d="M1043.34 124.002l-31.21 53.304 9.45-5.435 21.71-37.081.05-10.788z" fill="#FFB800"/></g><g opacity=".2"><path d="M1076.53 57.536h-62.41l9.49-5.352h43.42l9.5 5.352z" fill="#C4C4C4"/><path d="M1076.53 57.536h-62.41l9.49-5.352h43.42l9.5 5.352z" fill="#FFA800"/><path d="M1076.53 57.536h-62.41l9.49-5.352h43.42l9.5 5.352z" fill="red"/><path d="M1076.53 57.536h-62.41l9.49-5.352h43.42l9.5 5.352z" fill="#FFB800"/><path d="M1046.68 0l31.21 53.304-9.45-5.435-21.71-37.081L1046.68 0z" fill="#C4C4C4"/><path d="M1046.68 0l31.21 53.304-9.45-5.435-21.71-37.081L1046.68 0z" fill="#FFA800"/><path d="M1046.68 0l31.21 53.304-9.45-5.435-21.71-37.081L1046.68 0z" fill="red"/><path d="M1046.68 0l31.21 53.304-9.45-5.435-21.71-37.081L1046.68 0z" fill="#FFB800"/><path d="M1043.34 0l-31.21 53.304 9.45-5.435 21.71-37.081.05-10.788z" fill="#C4C4C4"/><path d="M1043.34 0l-31.21 53.304 9.45-5.435 21.71-37.081.05-10.788z" fill="#FFB800"/></g><g opacity=".2"><path d="M595.914 283.418l22.294 22.326v67.473l-47.56 47.629v207.878l48.055 48.124v312.561L579.07 1029.1H157.472L46.004 917.471V859.92l274.955-275.352V303.263l19.817-19.845h255.138z" fill="#D9D9D9"/><path d="M595.914 283.418l22.294 22.326v67.473l-47.56 47.629v207.878l48.055 48.124v312.561L579.07 1029.1H157.472L46.004 917.471V859.92l274.955-275.352V303.263l19.817-19.845h255.138z" fill="url(#paint0_linear_2634_8211)"/><path d="M595.914 283.418l22.294 22.326v67.473l-47.56 47.629v207.878l48.055 48.124v312.561L579.07 1029.1H157.472L46.004 917.471V859.92l274.955-275.352V303.263l19.817-19.845h255.138z" stroke="#000"/></g><g opacity=".2" stroke-width="5"><path d="M552.914 91.866l22.294 22.326v67.474l-47.56 47.628v207.878l48.055 48.124v312.562l-39.633 39.69H114.472L3.004 725.919v-57.551l274.955-275.352V111.711l19.817-19.845h255.138z" stroke="#fff"/><path d="M552.914 91.866l22.294 22.326v67.474l-47.56 47.628v207.878l48.055 48.124v312.562l-39.633 39.69H114.472L3.004 725.919v-57.551l274.955-275.352V111.711l19.817-19.845h255.138z" stroke="url(#paint1_linear_2634_8211)"/></g><g opacity=".2"><path d="M1398.59 964.103v38.197l-31.73 27.78H788.17l-26.777-26.79v-81.351l252.397-252.487h90.25l294.55 294.651z" fill="#D9D9D9"/><path d="M1398.59 964.103v38.197l-31.73 27.78H788.17l-26.777-26.79v-81.351l252.397-252.487h90.25l294.55 294.651z" fill="url(#paint2_linear_2634_8211)"/><path d="M1398.59 964.103v38.197l-31.73 27.78H788.17l-26.777-26.79v-81.351l252.397-252.487h90.25l294.55 294.651z" stroke="#000"/></g><g opacity=".2" stroke-width="5"><path d="M1356.57 771.574v38.196l-31.74 27.778H746.147l-26.778-26.786v-81.351L971.77 476.924h90.25l294.55 294.65z" stroke="#fff"/><path d="M1356.57 771.574v38.196l-31.74 27.778H746.147l-26.778-26.786v-81.351L971.77 476.924h90.25l294.55 294.65z" stroke="url(#paint3_linear_2634_8211)"/></g><g opacity=".2"><path d="M1289.45 279.509l29.76 29.785v84.89l340.32 340.549v249.704l-43.65 43.683h-100.22l-386.95-387.212H993.279L824.607 809.694H707.53l-25.301-25.318v-92.335l128.488-128.575V342.059l63.004-62.55h415.729z" fill="#D9D9D9"/><path d="M1289.45 279.509l29.76 29.785v84.89l340.32 340.549v249.704l-43.65 43.683h-100.22l-386.95-387.212H993.279L824.607 809.694H707.53l-25.301-25.318v-92.335l128.488-128.575V342.059l63.004-62.55h415.729z" fill="url(#paint4_linear_2634_8211)"/><path d="M1289.45 279.509l29.76 29.785v84.89l340.32 340.549v249.704l-43.65 43.683h-100.22l-386.95-387.212H993.279L824.607 809.694H707.53l-25.301-25.318v-92.335l128.488-128.575V342.059l63.004-62.55h415.729z" stroke="#000"/></g><g opacity=".2" stroke-width="5"><path d="M1244.49 83.07l29.77 29.786v84.889l340.32 340.55v249.703l-43.66 43.686h-100.21L1083.76 444.47H948.326L779.654 613.256H662.576l-25.3-25.318v-92.336l128.488-128.575V145.62l63.003-62.55h415.723z" stroke="#fff"/><path d="M1244.49 83.07l29.77 29.786v84.889l340.32 340.55v249.703l-43.66 43.686h-100.21L1083.76 444.47H948.326L779.654 613.256H662.576l-25.3-25.318v-92.336l128.488-128.575V145.62l63.003-62.55h415.723z" stroke="url(#paint5_linear_2634_8211)"/></g><g opacity=".2"><path d="M242.543 283.418l23.355 23.327-.993 243.693L88.99 726.136H46.75l-15.404-21.342V565.328l123.239-123.087V297.315l20.872-13.897h67.086z" fill="#D9D9D9"/><path d="M242.543 283.418l23.355 23.327-.993 243.693L88.99 726.136H46.75l-15.404-21.342V565.328l123.239-123.087V297.315l20.872-13.897h67.086z" fill="url(#paint6_linear_2634_8211)"/><path d="M242.543 283.418l23.355 23.327-.993 243.693L88.99 726.136H46.75l-15.404-21.342V565.328l123.239-123.087V297.315l20.872-13.897h67.086z" stroke="#000"/></g></g><defs><linearGradient id="paint0_linear_2634_8211" x1="332.775" y1="283.418" x2="822.54" y2="854.194" gradientUnits="userSpaceOnUse"><stop stop-color="#FFC400"/><stop offset="1" stop-color="#F30"/></linearGradient><linearGradient id="paint1_linear_2634_8211" x1="289.775" y1="91.866" x2="779.54" y2="662.642" gradientUnits="userSpaceOnUse"><stop stop-color="#FFC400"/><stop offset="1" stop-color="#F30"/></linearGradient><linearGradient id="paint2_linear_2634_8211" x1="1080.46" y1="669.452" x2="1237.39" y2="1090.2" gradientUnits="userSpaceOnUse"><stop stop-color="#FFC400"/><stop offset="1" stop-color="#F30"/></linearGradient><linearGradient id="paint3_linear_2634_8211" x1="1038.44" y1="476.924" x2="1195.37" y2="897.673" gradientUnits="userSpaceOnUse"><stop stop-color="#FFC400"/><stop offset="1" stop-color="#F30"/></linearGradient><linearGradient id="paint4_linear_2634_8211" x1="1171.6" y1="279.509" x2="1571.85" y2="1072.39" gradientUnits="userSpaceOnUse"><stop stop-color="#FFC400"/><stop offset="1" stop-color="#F30"/></linearGradient><linearGradient id="paint5_linear_2634_8211" x1="1126.65" y1="83.07" x2="1526.89" y2="875.947" gradientUnits="userSpaceOnUse"><stop stop-color="#FFC400"/><stop offset="1" stop-color="#F30"/></linearGradient><linearGradient id="paint6_linear_2634_8211" x1="148.795" y1="283.418" x2="436.116" y2="514.404" gradientUnits="userSpaceOnUse"><stop stop-color="#FFC400"/><stop offset="1" stop-color="#F30"/></linearGradient></defs></svg>