<svg width="172" height="8" fill="none" xmlns="http://www.w3.org/2000/svg"><path d="M.42 7.05V1.206L.305.284h5.363c.624 0 1.102.077 1.433.23.34.154.574.384.705.69.131.3.197.676.197 1.128v2.659c0 .46-.066.844-.197 1.15-.123.3-.354.526-.693.68-.332.153-.813.23-1.445.23H.42zm1.526-1.104h3.63c.593 0 .893-.273.901-.817V2.194a.839.839 0 00-.196-.564c-.131-.16-.366-.241-.706-.241H1.946v4.557zm11.89 1.105V.284h1.526v6.767h-1.526zm9.594 0c-.547 0-.975-.077-1.283-.23a1.29 1.29 0 01-.647-.691c-.124-.307-.185-.687-.185-1.14V2.425c0-.736.165-1.277.497-1.622.331-.353.87-.53 1.618-.53h3.48c.53 0 .936.031 1.213.093.285.053.428.11.428.172l-.232.955c-.13-.023-.52-.046-1.167-.069-.64-.03-1.572-.046-2.797-.046h-.59c-.616 0-.925.273-.925.817V5.13c0 .26.066.464.197.61.139.138.382.207.728.207h.474c.74 0 1.364-.004 1.873-.012.508-.015.928-.027 1.26-.034V4.335l-.694.011-1.514.115V3.334h3.722v3.233L29 6.81c0 .061-.162.119-.485.173-.324.046-.87.069-1.641.069H23.43zm11.408 0V.284h1.525v6.767h-1.525zm9.917 0l-.012-5.674h-3.005V.272h7.56v1.105H46.28v5.674h-1.526zm7.608 0L55.749.284h2.277l3.376 6.767h-1.78l-.682-1.462h-4.138l-.752 1.462h-1.687zm2.855-2.59h3.294L56.928 1.32h-.115l-1.595 3.14zm11.33 2.59l.116-.921V.284h1.525v5.662h4.786l.462.978c0 .03-.104.061-.312.092-.208.023-.566.035-1.075.035h-5.502zm20.901 0c-.547 0-.974-.077-1.283-.23a1.29 1.29 0 01-.647-.691c-.123-.307-.185-.687-.185-1.14V2.425c0-.736.166-1.277.497-1.622.331-.353.87-.53 1.618-.53h3.48c.531 0 .936.031 1.213.093.285.053.428.11.428.172l-.231.955c-.131-.023-.52-.046-1.168-.069-.64-.03-1.572-.046-2.797-.046h-.59c-.616 0-.924.273-.924.817V5.13c0 .26.065.464.196.61.14.138.382.207.729.207h.474c1.279 0 2.269-.012 2.97-.035.71-.03 1.148-.061 1.318-.092l.474.76c0 .038-.066.096-.197.172-.123.077-.354.146-.693.208-.34.06-.829.092-1.468.092h-3.214zm12.945 0c-.54 0-.963-.077-1.271-.23a1.34 1.34 0 01-.659-.691c-.123-.307-.185-.687-.185-1.14V2.333c0-.445.062-.817.185-1.116a1.29 1.29 0 01.647-.69c.308-.161.736-.242 1.283-.242h3.375c.54 0 .96.08 1.26.242.309.153.524.383.648.69.131.3.196.671.196 1.116v2.659c0 .675-.15 1.189-.451 1.542-.3.345-.851.518-1.653.518h-3.375zm.335-1.105h2.717c.285 0 .505-.073.659-.219.161-.146.242-.345.242-.598V2.194a.75.75 0 00-.242-.564c-.162-.16-.382-.241-.659-.241h-2.717c-.277 0-.5.073-.67.218a.735.735 0 00-.254.587V5.13c0 .26.08.464.242.61.17.138.397.207.682.207zM111.94 7.05V1.205l-.116-.921h1.664l3.931 4.097.45.621h.127V.284h1.526v6.767h-1.468l-4.022-4.166-.451-.541h-.116V7.05h-1.525zm15.977 0l-.012-5.674H124.9V.272h7.559v1.105h-3.016v5.674h-1.526zm9.921 0V.284h7.19v1.105h-5.664v1.588h4.323v1.14h-4.323v1.829h5.71l.462.978c0 .03-.104.061-.312.092-.208.023-.566.035-1.075.035h-6.311zm13.184 0V1.205l-.116-.921h1.665l3.93 4.097.451.621h.127V.284h1.525v6.767h-1.468l-4.022-4.166-.451-.541h-.115V7.05h-1.526zm15.976 0l-.012-5.674h-3.005V.272h7.56v1.105h-3.017v5.674h-1.526z" fill="#fff"/></svg>