<svg width="177" height="45" fill="none" xmlns="http://www.w3.org/2000/svg"><path fill-rule="evenodd" clip-rule="evenodd" d="M38.024 32.781l-10.415 4.225 20.677 3.227L24.589 0l13.435 32.781zM22.134 14.14l8.926 6.762L23.563 1.67 0 41.979l22.135-27.84zM14.92 25.995l-1.49 10.987L49 41.924 1.74 42l13.18-16.005z" fill="#000"/><path fill-rule="evenodd" clip-rule="evenodd" d="M38.024 32.781l-10.415 4.225 20.677 3.227L24.589 0l13.435 32.781zM22.134 14.14l8.926 6.762L23.563 1.67 0 41.979l22.135-27.84zM14.92 25.995l-1.49 10.987L49 41.924 1.74 42l13.18-16.005z" fill="url(#paint0_linear_2639_15322)"/><path d="M64.788 19.432c-.459 0-.87.09-1.232.272-.352.181-.65.443-.896.784-.245.33-.432.736-.56 1.216a6.82 6.82 0 00-.176 1.616c0 .81.096 1.504.288 2.08.203.565.517.997.944 1.296.427.299.97.448 1.632.448.47 0 .933-.053 1.392-.16.47-.107.976-.256 1.52-.448v2.032a8.137 8.137 0 01-1.488.448c-.49.096-1.04.144-1.648.144-1.173 0-2.144-.24-2.912-.72-.757-.49-1.317-1.173-1.68-2.048-.363-.885-.544-1.915-.544-3.088 0-.864.117-1.653.352-2.368a5.387 5.387 0 011.024-1.872 4.699 4.699 0 011.68-1.216c.672-.288 1.44-.432 2.304-.432.565 0 1.13.075 1.696.224.576.139 1.125.33 1.648.576l-.784 1.968a12.222 12.222 0 00-1.296-.528 3.81 3.81 0 00-1.264-.224zm15.564 9.728c-.427 0-.902-.064-1.425-.192-.522-.139-1.04-.47-1.552-.992l-.671-.672c-.32-.32-.63-.581-.928-.784a3.007 3.007 0 00-.992-.448c-.374-.107-.843-.16-1.409-.16h-.127V29h-3.12v-8.128l-.16-1.296h7.407c.683 0 1.233.085 1.648.256.427.16.752.379.977.656.234.267.394.57.48.912.085.341.127.688.127 1.04v.304c0 .64-.165 1.216-.495 1.728-.32.501-.832.859-1.536 1.072.266.16.517.325.752.496.245.16.522.33.831.512.352.203.678.352.976.448a4.959 4.959 0 001.12.192L81.775 29a5.246 5.246 0 01-.592.096 5.065 5.065 0 01-.832.064zm-5.249-5.376c.267 0 .523-.005.769-.016.255-.01.485-.027.688-.048.362-.043.608-.155.736-.336.138-.192.207-.421.207-.688v-.176c0-.235-.069-.416-.207-.544-.129-.128-.369-.192-.72-.192h-3.328v1.936c.266.01.56.027.88.048.32.01.645.016.975.016zM86.141 29v-3.888l-4.672-5.52h3.856l1.584 2.192.736 1.168h.16l.736-1.168 1.552-2.192h3.856l-.624.96-4.096 4.624V29H86.14zm10.9 0c-.725 0-1.258-.032-1.6-.096-.341-.064-.512-.139-.512-.224l.96-2.064c.246.043.752.085 1.52.128.768.032 1.765.048 2.992.048h1.264c.373 0 .624-.053.752-.16.128-.107.192-.261.192-.464v-.16c0-.256-.064-.432-.192-.528-.128-.096-.379-.144-.752-.144h-3.664c-1.077 0-1.861-.197-2.352-.592-.49-.405-.736-1.061-.736-1.968V22.2c0-.47.086-.901.256-1.296.181-.395.486-.71.912-.944.427-.245 1.013-.368 1.76-.368h5.312c.651 0 1.189.037 1.616.112.437.075.656.155.656.24l-.48 1.984a30.177 30.177 0 00-1.696-.096 62.56 62.56 0 00-3.136-.064l-1.152-.016c-.33 0-.565.048-.704.144-.139.085-.213.25-.224.496v.112c0 .245.075.416.224.512.15.096.39.144.72.144h3.52c.683 0 1.264.07 1.744.208.48.139.848.395 1.104.768.256.363.384.901.384 1.616v.576c0 .8-.208 1.445-.624 1.936-.405.49-1.115.736-2.128.736h-5.936zm13.775 0v-7.248h-3.808v-2.176h10.768v2.176h-3.856V29h-3.104zm5.812 0l4.688-9.408h4.16L130.148 29h-3.44l-.784-1.712h-5.056l-.88 1.712h-3.36zm5.12-3.92h3.28l-1.552-3.408h-.16l-1.568 3.408zm9.813 3.92l.16-1.28v-8.128h3.072v7.216h5.664l.96 2.016c0 .043-.144.085-.432.128-.288.032-.784.048-1.488.048h-7.936zm11.392 0v-3.888l-4.672-5.52h3.856l1.584 2.192.736 1.168h.16l.736-1.168 1.552-2.192h3.856l-.624.96-4.096 4.624V29h-3.088zm10.901 0c-.726 0-1.259-.032-1.6-.096-.342-.064-.512-.139-.512-.224l.96-2.064c.245.043.752.085 1.52.128.768.032 1.765.048 2.992.048h1.264c.373 0 .624-.053.752-.16.128-.107.192-.261.192-.464v-.16c0-.256-.064-.432-.192-.528-.128-.096-.379-.144-.752-.144h-3.664c-1.078 0-1.862-.197-2.352-.592-.491-.405-.736-1.061-.736-1.968V22.2c0-.47.085-.901.256-1.296.181-.395.485-.71.912-.944.426-.245 1.013-.368 1.76-.368h5.312c.65 0 1.189.037 1.616.112.437.075.656.155.656.24l-.48 1.984a30.177 30.177 0 00-1.696-.096 62.587 62.587 0 00-3.136-.064l-1.152-.016c-.331 0-.566.048-.704.144-.139.085-.214.25-.224.496v.112c0 .245.074.416.224.512.149.096.389.144.72.144h3.52c.682 0 1.264.07 1.744.208.48.139.848.395 1.104.768.256.363.384.901.384 1.616v.576c0 .8-.208 1.445-.624 1.936-.406.49-1.115.736-2.128.736h-5.936z" fill="#fff"/><defs><linearGradient id="paint0_linear_2639_15322" x1="24.5" y1="0" x2="24.5" y2="42" gradientUnits="userSpaceOnUse"><stop stop-color="#EEAC25"/><stop offset="1" stop-color="#BC570D"/></linearGradient></defs></svg>