<svg width="16" height="16" fill="none" xmlns="http://www.w3.org/2000/svg"><path fill-rule="evenodd" clip-rule="evenodd" d="M11.974 11.502l-3.049 1.257 6.053.96L8.04 1.75l3.933 9.752zM7.323 5.956l2.612 2.012-2.194-5.722L.844 14.238l6.479-8.282zM5.21 9.483l-.436 3.268 10.412 1.47-13.834.023 3.858-4.76z" fill="#000"/><path fill-rule="evenodd" clip-rule="evenodd" d="M11.974 11.502l-3.049 1.257 6.053.96L8.04 1.75l3.933 9.752zM7.323 5.956l2.612 2.012-2.194-5.722L.844 14.238l6.479-8.282zM5.21 9.483l-.436 3.268 10.412 1.47-13.834.023 3.858-4.76z" fill="url(#paint0_linear_957_2)"/><defs><linearGradient id="paint0_linear_957_2" x1="8.015" y1="1.75" x2="8.015" y2="14.244" gradientUnits="userSpaceOnUse"><stop stop-color="#EEAC25"/><stop offset="1" stop-color="#BC570D"/></linearGradient></defs></svg>