<svg width="376" height="606" fill="none" xmlns="http://www.w3.org/2000/svg"><g opacity=".2"><g opacity=".2"><path d="M264.762 212.91v22.722l1.949-3.458v-15.807l-1.949-3.457z" fill="#C4C4C4"/><path d="M264.762 212.91v22.722l1.949-3.458v-15.807l-1.949-3.457z" fill="#FFA800"/><path d="M264.762 212.91v22.722l1.949-3.458v-15.807l-1.949-3.457z" fill="red"/><path d="M264.762 212.91v22.722l1.949-3.458v-15.807l-1.949-3.457z" fill="#FFB800"/><path d="M285.711 223.777l-19.406-11.361 1.979 3.439 13.5 7.904 3.927.018z" fill="#C4C4C4"/><path d="M285.711 223.777l-19.406-11.361 1.979 3.439 13.5 7.904 3.927.018z" fill="#FFA800"/><path d="M285.711 223.777l-19.406-11.361 1.979 3.439 13.5 7.904 3.927.018z" fill="red"/><path d="M285.711 223.777l-19.406-11.361 1.979 3.439 13.5 7.904 3.927.018z" fill="#FFB800"/><path d="M285.711 224.994l-19.406 11.361 1.979-3.44 13.5-7.903 3.927-.018z" fill="#C4C4C4"/><path d="M285.711 224.994l-19.406 11.361 1.979-3.44 13.5-7.903 3.927-.018z" fill="#FFB800"/></g><g opacity=".2"><path d="M309.911 213.241v22.722l1.948-3.458v-15.807l-1.948-3.457z" fill="#C4C4C4"/><path d="M309.911 213.241v22.722l1.948-3.458v-15.807l-1.948-3.457z" fill="#FFA800"/><path d="M309.911 213.241v22.722l1.948-3.458v-15.807l-1.948-3.457z" fill="red"/><path d="M309.911 213.241v22.722l1.948-3.458v-15.807l-1.948-3.457z" fill="#FFB800"/><path d="M330.859 224.108l-19.405-11.361 1.979 3.44 13.499 7.903 3.927.018z" fill="#C4C4C4"/><path d="M330.859 224.108l-19.405-11.361 1.979 3.44 13.499 7.903 3.927.018z" fill="#FFA800"/><path d="M330.859 224.108l-19.405-11.361 1.979 3.44 13.499 7.903 3.927.018z" fill="red"/><path d="M330.859 224.108l-19.405-11.361 1.979 3.44 13.499 7.903 3.927.018z" fill="#FFB800"/><path d="M330.859 225.325l-19.405 11.361 1.979-3.44 13.499-7.903 3.927-.018z" fill="#C4C4C4"/><path d="M330.859 225.325l-19.405 11.361 1.979-3.44 13.499-7.903 3.927-.018z" fill="#FFB800"/></g><g opacity=".2"><path d="M355.052 213.241v22.722l1.948-3.458v-15.807l-1.948-3.457z" fill="#C4C4C4"/><path d="M355.052 213.241v22.722l1.948-3.458v-15.807l-1.948-3.457z" fill="#FFA800"/><path d="M355.052 213.241v22.722l1.948-3.458v-15.807l-1.948-3.457z" fill="red"/><path d="M355.052 213.241v22.722l1.948-3.458v-15.807l-1.948-3.457z" fill="#FFB800"/><path d="M376 224.108l-19.405-11.361 1.978 3.44 13.5 7.903 3.927.018z" fill="#C4C4C4"/><path d="M376 224.108l-19.405-11.361 1.978 3.44 13.5 7.903 3.927.018z" fill="#FFA800"/><path d="M376 224.108l-19.405-11.361 1.978 3.44 13.5 7.903 3.927.018z" fill="red"/><path d="M376 224.108l-19.405-11.361 1.978 3.44 13.5 7.903 3.927.018z" fill="#FFB800"/><path d="M376 225.325l-19.405 11.361 1.978-3.44 13.5-7.903 3.927-.018z" fill="#C4C4C4"/><path d="M376 225.325l-19.405 11.361 1.978-3.44 13.5-7.903 3.927-.018z" fill="#FFB800"/></g><g opacity=".2"><path d="M272.82 388.21l-8.127-8.116h-24.564l-17.339 17.314h-75.678l-17.52-17.494H15.804l-14.45 14.428v153.483l40.639 40.58h20.951l100.242-100.098h102.41l7.224-7.214V388.21z" fill="#D9D9D9"/><path d="M272.82 388.21l-8.127-8.116h-24.564l-17.339 17.314h-75.678l-17.52-17.494H15.804l-14.45 14.428v153.483l40.639 40.58h20.951l100.242-100.098h102.41l7.224-7.214V388.21z" fill="url(#paint0_linear_2634_8672)"/><path d="M272.82 388.21l-8.127-8.116h-24.564l-17.339 17.314h-75.678l-17.52-17.494H15.804l-14.45 14.428v153.483l40.639 40.58h20.951l100.242-100.098h102.41l7.224-7.214V388.21z" stroke="#000" stroke-width="2"/></g><g opacity=".2" stroke-width="2"><path d="M342.555 403.864l-8.128-8.116h-24.564l-17.339 17.314h-75.678l-17.52-17.494H85.538l-14.45 14.428v153.483l40.639 40.58h20.952l100.242-100.097H335.33l7.225-7.214v-92.884z" stroke="#fff"/><path d="M342.555 403.864l-8.128-8.116h-24.564l-17.339 17.314h-75.678l-17.52-17.494H85.538l-14.45 14.428v153.483l40.639 40.58h20.952l100.242-100.097H335.33l7.225-7.214v-92.884z" stroke="url(#paint1_linear_2634_8672)"/></g><g opacity=".2"><path d="M25.021 95.996H11.116L1.003 107.549v210.672l9.752 9.748h29.616l91.918-91.887v-32.855L25.021 95.996z" fill="#D9D9D9"/><path d="M25.021 95.996H11.116L1.003 107.549v210.672l9.752 9.748h29.616l91.918-91.887v-32.855L25.021 95.996z" fill="url(#paint2_linear_2634_8672)"/><path d="M25.021 95.996H11.116L1.003 107.549v210.672l9.752 9.748h29.616l91.918-91.887v-32.855L25.021 95.996z" stroke="#000" stroke-width="2"/></g><g opacity=".2" stroke-width="2"><path d="M95.107 111.294H81.202L71.09 122.848V333.52l9.752 9.748h29.616l91.918-91.887v-32.855L95.107 111.294z" stroke="#fff"/><path d="M95.107 111.294H81.202L71.09 122.848V333.52l9.752 9.748h29.616l91.918-91.887v-32.855L95.107 111.294z" stroke="url(#paint3_linear_2634_8672)"/></g><g opacity=".2"><path d="M274.242 135.73l-10.843-10.836h-30.904L108.517 1H17.613L1.709 16.893v36.482l140.965 140.87v49.305l-61.446 61.404v42.623l9.217 9.21h33.615l46.808-46.776h80.603l22.771-22.936V135.73z" fill="#D9D9D9"/><path d="M274.242 135.73l-10.843-10.836h-30.904L108.517 1H17.613L1.709 16.893v36.482l140.965 140.87v49.305l-61.446 61.404v42.623l9.217 9.21h33.615l46.808-46.776h80.603l22.771-22.936V135.73z" fill="url(#paint4_linear_2634_8672)"/><path d="M274.242 135.73l-10.843-10.836h-30.904L108.517 1H17.613L1.709 16.893v36.482l140.965 140.87v49.305l-61.446 61.404v42.623l9.217 9.21h33.615l46.808-46.776h80.603l22.771-22.936V135.73z" stroke="#000" stroke-width="2"/></g><g opacity=".2" stroke-width="2"><path d="M345.758 152.096l-10.844-10.836H304.01L180.033 17.366H89.128L73.225 33.26v36.482l140.965 140.87v49.305l-61.446 61.405v42.622l9.217 9.211h33.614l46.808-46.776h80.603l22.772-22.937V152.096z" stroke="#fff"/><path d="M345.758 152.096l-10.844-10.836H304.01L180.033 17.366H89.128L73.225 33.26v36.482l140.965 140.87v49.305l-61.446 61.405v42.622l9.217 9.211h33.614l46.808-46.776h80.603l22.772-22.937V152.096z" stroke="url(#paint5_linear_2634_8672)"/></g><g opacity=".2"><path d="M272.82 516.855l-8.492-8.502-88.717.361-63.962 64.042v15.377l7.769 5.609h50.773l44.81-44.866h52.76l5.059-7.598v-24.423z" fill="#D9D9D9"/><path d="M272.82 516.855l-8.492-8.502-88.717.361-63.962 64.042v15.377l7.769 5.609h50.773l44.81-44.866h52.76l5.059-7.598v-24.423z" fill="url(#paint6_linear_2634_8672)"/><path d="M272.82 516.855l-8.492-8.502-88.717.361-63.962 64.042v15.377l7.769 5.609h50.773l44.81-44.866h52.76l5.059-7.598v-24.423z" stroke="#000" stroke-width="2"/></g></g><defs><linearGradient id="paint0_linear_2634_8672" x1="272.82" y1="484.006" x2="65.029" y2="305.707" gradientUnits="userSpaceOnUse"><stop stop-color="#FFC400"/><stop offset="1" stop-color="#F30"/></linearGradient><linearGradient id="paint1_linear_2634_8672" x1="342.555" y1="499.66" x2="134.763" y2="321.361" gradientUnits="userSpaceOnUse"><stop stop-color="#FFC400"/><stop offset="1" stop-color="#F30"/></linearGradient><linearGradient id="paint2_linear_2634_8672" x1="132.289" y1="211.811" x2="-20.885" y2="154.682" gradientUnits="userSpaceOnUse"><stop stop-color="#FFC400"/><stop offset="1" stop-color="#F30"/></linearGradient><linearGradient id="paint3_linear_2634_8672" x1="202.375" y1="227.11" x2="49.201" y2="169.981" gradientUnits="userSpaceOnUse"><stop stop-color="#FFC400"/><stop offset="1" stop-color="#F30"/></linearGradient><linearGradient id="paint4_linear_2634_8672" x1="274.242" y1="178.632" x2="-14.405" y2="32.921" gradientUnits="userSpaceOnUse"><stop stop-color="#FFC400"/><stop offset="1" stop-color="#F30"/></linearGradient><linearGradient id="paint5_linear_2634_8672" x1="345.758" y1="194.998" x2="57.111" y2="49.288" gradientUnits="userSpaceOnUse"><stop stop-color="#FFC400"/><stop offset="1" stop-color="#F30"/></linearGradient><linearGradient id="paint6_linear_2634_8672" x1="272.82" y1="550.984" x2="188.73" y2="446.385" gradientUnits="userSpaceOnUse"><stop stop-color="#FFC400"/><stop offset="1" stop-color="#F30"/></linearGradient></defs></svg>