<svg width="1699" height="1055" fill="none" xmlns="http://www.w3.org/2000/svg"><g opacity=".2"><g opacity=".2"><path d="M596.609 312.636h63.864l-9.718-5.477h-44.427l-9.719 5.477z" fill="#C4C4C4"/><path d="M596.609 312.636h63.864l-9.718-5.477h-44.427l-9.719 5.477z" fill="#FFA800"/><path d="M596.609 312.636h63.864l-9.718-5.477h-44.427l-9.719 5.477z" fill="red"/><path d="M596.609 312.636h63.864l-9.718-5.477h-44.427l-9.719 5.477z" fill="#FFB800"/><path d="M627.151 253.763l-31.932 54.543 9.668-5.562 22.214-37.943.05-11.038z" fill="#C4C4C4"/><path d="M627.151 253.763l-31.932 54.543 9.668-5.562 22.214-37.943.05-11.038z" fill="#FFA800"/><path d="M627.151 253.763l-31.932 54.543 9.668-5.562 22.214-37.943.05-11.038z" fill="red"/><path d="M627.151 253.763l-31.932 54.543 9.668-5.562 22.214-37.943.05-11.038z" fill="#FFB800"/><path d="M630.57 253.764l31.932 54.542-9.668-5.562-22.214-37.942-.05-11.038z" fill="#C4C4C4"/><path d="M630.57 253.764l31.932 54.542-9.668-5.562-22.214-37.942-.05-11.038z" fill="#FFB800"/></g><g opacity=".2"><path d="M597.539 185.754h63.864l-9.718-5.476h-44.428l-9.718 5.476z" fill="#C4C4C4"/><path d="M597.539 185.754h63.864l-9.718-5.476h-44.428l-9.718 5.476z" fill="#FFA800"/><path d="M597.539 185.754h63.864l-9.718-5.476h-44.428l-9.718 5.476z" fill="red"/><path d="M597.539 185.754h63.864l-9.718-5.476h-44.428l-9.718 5.476z" fill="#FFB800"/><path d="M628.08 126.882l-31.932 54.542 9.669-5.562 22.214-37.942.049-11.038z" fill="#C4C4C4"/><path d="M628.08 126.882l-31.932 54.542 9.669-5.562 22.214-37.942.049-11.038z" fill="#FFA800"/><path d="M628.08 126.882l-31.932 54.542 9.669-5.562 22.214-37.942.049-11.038z" fill="red"/><path d="M628.08 126.882l-31.932 54.542 9.669-5.562 22.214-37.942.049-11.038z" fill="#FFB800"/><path d="M631.5 126.882l31.932 54.542-9.669-5.562-22.213-37.942-.05-11.038z" fill="#C4C4C4"/><path d="M631.5 126.882l31.932 54.542-9.669-5.562-22.213-37.942-.05-11.038z" fill="#FFB800"/></g><g opacity=".2"><path d="M597.539 58.873h63.864l-9.718-5.477h-44.428l-9.718 5.477z" fill="#C4C4C4"/><path d="M597.539 58.873h63.864l-9.718-5.477h-44.428l-9.718 5.477z" fill="#FFA800"/><path d="M597.539 58.873h63.864l-9.718-5.477h-44.428l-9.718 5.477z" fill="red"/><path d="M597.539 58.873h63.864l-9.718-5.477h-44.428l-9.718 5.477z" fill="#FFB800"/><path d="M628.08 0l-31.932 54.542 9.669-5.561 22.214-37.943L628.08 0z" fill="#C4C4C4"/><path d="M628.08 0l-31.932 54.542 9.669-5.561 22.214-37.943L628.08 0z" fill="#FFA800"/><path d="M628.08 0l-31.932 54.542 9.669-5.561 22.214-37.943L628.08 0z" fill="red"/><path d="M628.08 0l-31.932 54.542 9.669-5.561 22.214-37.943L628.08 0z" fill="#FFB800"/><path d="M631.5 0l31.932 54.542-9.669-5.561-22.213-37.943L631.5 0z" fill="#C4C4C4"/><path d="M631.5 0l31.932 54.542-9.669-5.561-22.213-37.943L631.5 0z" fill="#FFB800"/></g><g opacity=".2"><path d="M1089.32 290l-22.81 22.844v69.041l48.66 48.734v212.706L1066 692.568v319.822l40.55 40.61h431.39L1652 938.779v-58.888l-281.34-281.747V310.306L1350.38 290h-261.06z" fill="#D9D9D9"/><path d="M1089.32 290l-22.81 22.844v69.041l48.66 48.734v212.706L1066 692.568v319.822l40.55 40.61h431.39L1652 938.779v-58.888l-281.34-281.747V310.306L1350.38 290h-261.06z" fill="url(#paint0_linear_2634_7530)"/><path d="M1089.32 290l-22.81 22.844v69.041l48.66 48.734v212.706L1066 692.568v319.822l40.55 40.61h431.39L1652 938.779v-58.888l-281.34-281.747V310.306L1350.38 290h-261.06z" stroke="#000"/></g><g opacity=".2" stroke-width="5"><path d="M1133.32 94l-22.81 22.844v69.041l48.66 48.734v212.706L1110 496.568v319.82L1150.55 857h431.39L1696 742.779v-58.888l-281.34-281.747V114.306L1394.38 94h-261.06z" stroke="#fff"/><path d="M1133.32 94l-22.81 22.844v69.041l48.66 48.734v212.706L1110 496.568v319.82L1150.55 857h431.39L1696 742.779v-58.888l-281.34-281.747V114.306L1394.38 94h-261.06z" stroke="url(#paint1_linear_2634_7530)"/></g><g opacity=".2"><path d="M268 986.494v39.086l32.473 28.42h592.128L920 1026.59v-83.239L661.737 685h-92.346L268 986.494z" fill="#D9D9D9"/><path d="M268 986.494v39.086l32.473 28.42h592.128L920 1026.59v-83.239L661.737 685h-92.346L268 986.494z" fill="url(#paint2_linear_2634_7530)"/><path d="M268 986.494v39.086l32.473 28.42h592.128L920 1026.59v-83.239L661.737 685h-92.346L268 986.494z" stroke="#000"/></g><g opacity=".2" stroke-width="5"><path d="M311 789.494v39.082L343.473 857h592.128L963 829.591v-83.24L704.737 488h-92.346L311 789.494z" stroke="#fff"/><path d="M311 789.494v39.082L343.473 857h592.128L963 829.591v-83.24L704.737 488h-92.346L311 789.494z" stroke="url(#paint3_linear_2634_7530)"/></g><g opacity=".2"><path d="M379.68 286l-30.457 30.477v86.861L1 751.797V1007.3l44.67 44.7h102.538l395.939-396.207h138.579l172.589 172.706h119.797L1001 802.593v-94.48L869.528 576.552V350.003L805.061 286H379.68z" fill="#D9D9D9"/><path d="M379.68 286l-30.457 30.477v86.861L1 751.797V1007.3l44.67 44.7h102.538l395.939-396.207h138.579l172.589 172.706h119.797L1001 802.593v-94.48L869.528 576.552V350.003L805.061 286H379.68z" fill="url(#paint4_linear_2634_7530)"/><path d="M379.68 286l-30.457 30.477v86.861L1 751.797V1007.3l44.67 44.7h102.538l395.939-396.207h138.579l172.589 172.706h119.797L1001 802.593v-94.48L869.528 576.552V350.003L805.061 286H379.68z" stroke="#000"/></g><g opacity=".2" stroke-width="5"><path d="M425.68 85l-30.457 30.477v86.861L47 550.797V806.3L91.67 851h102.538l395.939-396.207h138.579l172.589 172.706h119.795l25.89-25.906v-94.48L915.528 375.552V149.003L851.061 85H425.68z" stroke="#fff"/><path d="M425.68 85l-30.457 30.477v86.861L47 550.797V806.3L91.67 851h102.538l395.939-396.207h138.579l172.589 172.706h119.795l25.89-25.906v-94.48L915.528 375.552V149.003L851.061 85H425.68z" stroke="url(#paint5_linear_2634_7530)"/></g><g opacity=".2"><path d="M1450.9 290l-23.9 23.869 1.02 249.353 180 179.778h43.22l15.76-21.837V578.457l-126.1-125.946V304.22L1519.54 290h-68.64z" fill="#D9D9D9"/><path d="M1450.9 290l-23.9 23.869 1.02 249.353 180 179.778h43.22l15.76-21.837V578.457l-126.1-125.946V304.22L1519.54 290h-68.64z" fill="url(#paint6_linear_2634_7530)"/><path d="M1450.9 290l-23.9 23.869 1.02 249.353 180 179.778h43.22l15.76-21.837V578.457l-126.1-125.946V304.22L1519.54 290h-68.64z" stroke="#000"/></g></g><defs><linearGradient id="paint0_linear_2634_7530" x1="1358.57" y1="290" x2="857.429" y2="874.032" gradientUnits="userSpaceOnUse"><stop stop-color="#FFC400"/><stop offset="1" stop-color="#F30"/></linearGradient><linearGradient id="paint1_linear_2634_7530" x1="1402.57" y1="94" x2="901.429" y2="678.032" gradientUnits="userSpaceOnUse"><stop stop-color="#FFC400"/><stop offset="1" stop-color="#F30"/></linearGradient><linearGradient id="paint2_linear_2634_7530" x1="593.52" y1="685" x2="432.949" y2="1115.52" gradientUnits="userSpaceOnUse"><stop stop-color="#FFC400"/><stop offset="1" stop-color="#F30"/></linearGradient><linearGradient id="paint3_linear_2634_7530" x1="636.52" y1="488" x2="475.949" y2="918.521" gradientUnits="userSpaceOnUse"><stop stop-color="#FFC400"/><stop offset="1" stop-color="#F30"/></linearGradient><linearGradient id="paint4_linear_2634_7530" x1="500.264" y1="286" x2="90.72" y2="1097.29" gradientUnits="userSpaceOnUse"><stop stop-color="#FFC400"/><stop offset="1" stop-color="#F30"/></linearGradient><linearGradient id="paint5_linear_2634_7530" x1="546.264" y1="85" x2="136.72" y2="896.291" gradientUnits="userSpaceOnUse"><stop stop-color="#FFC400"/><stop offset="1" stop-color="#F30"/></linearGradient><linearGradient id="paint6_linear_2634_7530" x1="1546.82" y1="290" x2="1252.83" y2="526.351" gradientUnits="userSpaceOnUse"><stop stop-color="#FFC400"/><stop offset="1" stop-color="#F30"/></linearGradient></defs></svg>