<svg width="1917" height="807" fill="none" xmlns="http://www.w3.org/2000/svg"><g opacity=".5"><g style="mix-blend-mode:screen" opacity=".5"><path d="M617.535 0v72.038H453.298l-34.444 38.669V72.038H399.5V0h218.035z" fill="url(#paint0_linear_2682_15399)" style="mix-blend-mode:screen"/><path d="M617.535 0v72.038H453.298l-34.444 38.669V72.038H399.5V0h218.035z" fill="url(#paint1_linear_2682_15399)"/></g><path d="M413.164 17.856c0-1.92.269-3.38.845-4.416.576-1.037 1.574-1.536 3.072-1.536 1.497 0 2.496.499 3.033 1.536.538 1.037.845 2.496.845 4.416 0 1.92-.269 3.417-.845 4.454s-1.574 1.575-3.033 1.575c-1.459 0-2.496-.538-3.072-1.575-.576-1.037-.845-2.534-.845-4.454zm7.027 0c0-1.114-.077-2.035-.23-2.803-.154-.768-.461-1.344-.922-1.805-.461-.423-1.113-.653-1.958-.653s-1.498.23-1.959.653c-.46.422-.768 1.037-.921 1.805-.154.768-.231 1.69-.231 2.803s.077 2.073.231 2.841c.153.768.461 1.383.921 1.805.461.461 1.114.691 1.959.691s1.497-.23 1.958-.69c.461-.462.768-1.076.922-1.806.153-.768.23-1.69.23-2.841zm4.226 4.8v1.152h-1.19v-1.152h1.19zm2.263-4.8c0-1.92.268-3.38.844-4.416.576-1.037 1.575-1.536 3.073-1.536 1.497 0 2.496.499 3.033 1.536.538 1.037.845 2.496.845 4.416 0 1.92-.269 3.417-.845 4.454s-1.574 1.575-3.033 1.575c-1.46 0-2.497-.538-3.073-1.575-.576-1.037-.844-2.534-.844-4.454zm7.027 0c0-1.114-.077-2.035-.23-2.803-.154-.768-.461-1.344-.922-1.805-.461-.461-1.114-.653-1.958-.653-.845 0-1.498.23-1.959.653-.461.422-.768 1.037-.921 1.805-.154.768-.231 1.69-.231 2.803s.077 2.073.231 2.841c.153.768.46 1.383.921 1.805.461.461 1.114.691 1.959.691.844 0 1.497-.23 1.958-.69.461-.462.768-1.076.922-1.806.153-.768.23-1.69.23-2.841zm11.064-5.184h-6.451v4.838c.307-.46.768-.806 1.344-1.075.576-.269 1.229-.384 1.92-.384 1.267 0 2.227.346 2.842 1.075.614.73.921 1.613.921 2.688 0 .73-.153 1.421-.422 2.036a3.006 3.006 0 01-1.306 1.459c-.614.345-1.305.537-2.227.537-1.075 0-1.997-.307-2.726-.921-.73-.615-1.152-1.421-1.268-2.496h.73c.192.883.538 1.536 1.114 1.997.576.46 1.267.69 2.112.69 1.075 0 1.881-.306 2.419-.92.537-.615.806-1.46.806-2.458 0-.999-.269-1.728-.806-2.304-.538-.538-1.306-.845-2.343-.845a3.9 3.9 0 00-1.881.46c-.538.308-.96.692-1.267 1.23h-.692v-6.337h7.181v.73zm3.84.614c.307-.46.768-.806 1.344-1.075.576-.269 1.267-.384 2.074-.384.806 0 1.497.115 2.073.384.576.269 1.037.615 1.344 1.075.308.461.461.999.461 1.575 0 .691-.192 1.305-.576 1.805-.384.499-.998.844-1.805 1.036.845.192 1.536.538 1.997 1.075.499.538.73 1.19.73 1.997 0 1.075-.384 1.92-1.114 2.535-.768.614-1.766.921-3.11.921-1.344 0-2.343-.307-3.111-.921-.768-.615-1.113-1.46-1.113-2.535 0-.806.23-1.497.729-1.997.499-.537 1.152-.883 1.997-1.075-.806-.192-1.421-.537-1.805-1.037-.384-.499-.576-1.075-.576-1.766 0-.576.154-1.113.461-1.574v-.039zm.883 9.524c.615.499 1.46.73 2.535.73 1.075 0 1.92-.231 2.534-.73.615-.5.96-1.19.96-2.112 0-.922-.307-1.613-.96-2.036-.653-.422-1.498-.652-2.496-.652s-1.843.23-2.496.652c-.653.423-.96 1.114-.96 2.036 0 .921.307 1.612.922 2.112h-.039zm.231-6.03c.576.423 1.344.654 2.304.654.96 0 1.728-.23 2.304-.653.576-.423.845-1.037.845-1.805s-.269-1.383-.845-1.843c-.576-.423-1.344-.653-2.304-.653-.96 0-1.728.23-2.304.653-.576.422-.845 1.037-.845 1.843s.269 1.382.845 1.805zm15.551-4.108c.576.576.883 1.267.883 2.15 0 .73-.23 1.345-.653 1.882-.46.538-1.152.845-2.112.922v.076c.922.23 1.652.576 2.189 1.076.538.46.807 1.152.807 1.997 0 .921-.308 1.69-.922 2.303-.614.576-1.498.884-2.688.884-1.19 0-2.074-.308-2.803-.922-.73-.614-1.152-1.497-1.344-2.611h.768c.153.845.499 1.536 1.075 2.074.576.537 1.344.767 2.266.767.921 0 1.651-.23 2.15-.69.499-.461.73-1.076.73-1.844 0-.883-.346-1.574-1.037-2.035-.691-.46-1.69-.691-2.957-.691h-.307v-.653h.345c1.268 0 2.228-.23 2.842-.653.614-.422.922-1.037.922-1.805 0-.73-.231-1.305-.692-1.728-.46-.422-1.113-.652-1.958-.652s-1.536.23-2.112.652c-.576.461-.922 1.114-1.037 2.036h-.768c.115-1.037.499-1.882 1.152-2.458.691-.615 1.613-.883 2.765-.883 1.075 0 1.92.268 2.496.845v-.039zm-45.351 19.392v.653h-3.379v11.136h-.768V32.717h-3.38v-.653h7.527zm1.379 8.755v-.614l6.413-8.18h.768v8.103h1.92v.653h-1.92v2.995h-.768V40.78h-6.451l.038.038zm6.49-7.795l-5.645 7.104h5.645v-7.104zm9.331 6.182c1.229-1.382 1.843-2.688 1.843-3.916 0-.807-.23-1.46-.614-1.959-.423-.499-1.114-.768-2.074-.768-.96 0-1.69.307-2.227.883-.499.615-.807 1.383-.883 2.381h-.73c.077-1.228.461-2.227 1.152-2.918.691-.691 1.613-1.037 2.726-1.037.999 0 1.805.269 2.458.806.653.538.96 1.383.96 2.497 0 .96-.346 1.958-.998 2.956a12.907 12.907 0 01-2.458 2.803c-.998.845-1.958 1.613-2.957 2.19h6.72v.652h-7.91v-.5c2.073-1.343 3.725-2.726 4.915-4.108l.077.038zm7.379 3.418c.461.461 1.114.691 1.958.691 1.152 0 1.997-.422 2.612-1.267.614-.845.883-2.189.883-4.07v-.768c-.154.806-.576 1.42-1.229 1.92-.691.46-1.498.691-2.419.691-1.229 0-2.151-.346-2.842-1.075-.691-.73-.998-1.69-.998-2.957 0-.691.115-1.344.384-1.92a3.23 3.23 0 011.267-1.42c.576-.346 1.306-.538 2.189-.538 1.651 0 2.803.537 3.417 1.574.615 1.037.922 2.458.922 4.224 0 1.997-.307 3.571-.96 4.646-.653 1.076-1.728 1.613-3.226 1.613-1.036 0-1.881-.307-2.457-.883-.615-.614-.96-1.382-1.075-2.38h.729c.115.844.384 1.497.883 1.958l-.038-.039zm4.954-8.294c-.231-.538-.615-.96-1.152-1.306-.538-.345-1.191-.499-1.997-.499-.96 0-1.69.307-2.266.883-.576.576-.845 1.383-.845 2.381 0 1.114.269 1.958.845 2.534.576.576 1.344.884 2.343.884a4.1 4.1 0 001.651-.346c.537-.23.96-.576 1.267-1.037.346-.46.499-1.037.499-1.728 0-.614-.115-1.19-.384-1.728l.039-.038zm13.973 2.88v.652h-6.259v-.653h6.259zm5.534 5.414c.461.461 1.113.691 1.958.691 1.152 0 1.997-.422 2.611-1.267.615-.845.884-2.189.884-4.07v-.768c-.154.806-.576 1.42-1.229 1.92-.691.46-1.498.691-2.419.691-1.229 0-2.151-.346-2.842-1.075-.653-.73-.998-1.69-.998-2.957 0-.691.115-1.344.384-1.92a3.224 3.224 0 011.267-1.42c.576-.346 1.305-.538 2.189-.538 1.651 0 2.803.537 3.417 1.574.615 1.037.922 2.458.922 4.224 0 1.997-.307 3.571-.96 4.646-.653 1.076-1.728 1.613-3.226 1.613-1.037 0-1.881-.307-2.457-.883-.615-.614-.96-1.382-1.076-2.38h.73c.115.844.422 1.497.883 1.958l-.038-.039zm4.953-8.294c-.23-.538-.614-.96-1.152-1.306-.537-.345-1.19-.499-1.996-.499-.96 0-1.69.307-2.266.883-.576.576-.845 1.383-.845 2.381 0 1.114.269 1.958.845 2.534.576.576 1.344.884 2.342.884.576 0 1.114-.115 1.652-.346.537-.23.96-.576 1.267-1.037.345-.46.499-1.037.499-1.728 0-.614-.115-1.19-.384-1.728l.038-.038zm4.607-.999c.307-.46.768-.806 1.344-1.075.576-.269 1.267-.384 2.074-.384.806 0 1.497.115 2.073.384.576.269 1.037.614 1.344 1.075.308.461.461.999.461 1.575 0 .69-.192 1.305-.576 1.805-.384.499-.998.844-1.805 1.036.845.192 1.536.538 1.997 1.075.499.538.73 1.19.73 1.997 0 1.075-.384 1.92-1.114 2.535-.768.614-1.766.921-3.11.921-1.344 0-2.343-.307-3.111-.921-.768-.615-1.113-1.46-1.113-2.535 0-.806.23-1.497.729-1.997.5-.537 1.152-.883 1.997-1.075-.806-.192-1.421-.537-1.805-1.036-.384-.5-.576-1.076-.576-1.767 0-.576.154-1.114.461-1.574v-.039zm.883 9.523c.615.5 1.46.73 2.535.73 1.075 0 1.92-.23 2.534-.73.615-.499.96-1.19.96-2.111 0-.922-.307-1.613-.96-2.036-.653-.422-1.497-.653-2.496-.653-.998 0-1.843.23-2.496.653-.653.423-.96 1.114-.96 2.035 0 .922.307 1.613.922 2.113h-.039zm.231-6.028c.576.422 1.344.652 2.304.652.96 0 1.728-.23 2.304-.652.576-.423.845-1.037.845-1.805s-.269-1.383-.845-1.843c-.576-.423-1.344-.653-2.304-.653-.96 0-1.728.23-2.304.653-.576.422-.845 1.037-.845 1.843s.269 1.382.845 1.805zm52.647 13.21v1.344h-8.755v-1.344h8.755zm5.149-5.223c.422-.614 1.036-1.114 1.843-1.498.806-.345 1.766-.537 2.88-.537 1.113 0 2.073.192 2.88.537.806.346 1.421.845 1.843 1.498.422.614.614 1.344.614 2.15 0 .884-.268 1.69-.768 2.343-.499.653-1.267 1.113-2.304 1.382 1.076.269 1.959.73 2.573 1.46.615.729.922 1.612.922 2.649 0 1.46-.538 2.611-1.575 3.456-1.036.845-2.457 1.267-4.224 1.267-1.766 0-3.148-.422-4.185-1.267-1.037-.845-1.575-1.997-1.575-3.456 0-1.075.308-1.958.922-2.65.614-.73 1.459-1.19 2.573-1.459-1.037-.269-1.805-.73-2.304-1.382-.499-.653-.768-1.421-.768-2.343 0-.806.192-1.497.614-2.15h.039zm1.651 12.442c.768.614 1.805.921 3.072.921 1.267 0 2.304-.307 3.072-.921.768-.615 1.152-1.46 1.152-2.573 0-1.114-.384-1.959-1.191-2.535-.806-.576-1.804-.844-3.033-.844-1.229 0-2.227.268-3.034.844-.806.576-1.19 1.421-1.19 2.535 0 1.113.384 1.958 1.152 2.573zm.307-7.872c.691.537 1.613.806 2.765.806 1.152 0 2.073-.269 2.765-.806.691-.538.998-1.268.998-2.266s-.346-1.728-1.037-2.266c-.691-.537-1.613-.806-2.765-.806-1.152 0-2.035.269-2.726.806-.691.538-1.037 1.268-1.037 2.266s.346 1.728.999 2.266h.038zm10.787 5.798v-1.306l8.332-10.79h1.69v10.714h2.458v1.382h-2.458v3.84h-1.574v-3.84h-8.448zm8.563-10.138l-6.874 8.756h6.874v-8.756zm15.478-.691l-6.067 14.67h-1.652l6.145-14.516h-8.717v-1.383h10.291v1.23zm8.523 8.18c1.574-1.767 2.38-3.418 2.38-4.954 0-.96-.268-1.767-.768-2.38-.499-.615-1.344-.922-2.457-.922-1.114 0-2.074.345-2.65 1.075-.614.73-.96 1.728-1.037 2.956h-1.536c.116-1.727.653-3.072 1.613-3.993.96-.922 2.189-1.42 3.763-1.42 1.421 0 2.535.383 3.418 1.151s1.306 1.882 1.306 3.34c0 1.23-.423 2.535-1.229 3.803-.807 1.305-1.843 2.495-3.072 3.61-1.229 1.113-2.458 2.034-3.763 2.802h8.524v1.306h-10.752v-1.114c2.65-1.766 4.762-3.532 6.336-5.299l-.076.038zm8.603 4.454v2.035h-2.074v-2.035h2.074zm11.749-12.634l-6.067 14.67h-1.652l6.145-14.516h-8.717v-1.383h10.291v1.23z" fill="#fff"/></g><g opacity=".5"><g style="mix-blend-mode:screen" opacity=".5"><path d="M1721.53 126v72.077h-164.2l-34.48 38.669v-38.669h-19.35V126h218.03z" fill="url(#paint2_linear_2682_15399)" style="mix-blend-mode:screen"/><path d="M1721.53 126v72.077h-164.2l-34.48 38.669v-38.669h-19.35V126h218.03z" fill="url(#paint3_linear_2682_15399)"/></g><path d="M1515.13 143.894c0-1.92.27-3.379.85-4.416.57-1.036 1.57-1.536 3.07-1.536 1.5 0 2.5.5 3.03 1.536.54 1.037.85 2.496.85 4.416 0 1.92-.27 3.418-.85 4.455-.57 1.037-1.57 1.574-3.03 1.574-1.46 0-2.5-.537-3.07-1.574-.58-1.037-.85-2.535-.85-4.455zm7.03 0c0-1.113-.08-2.035-.23-2.803-.15-.768-.46-1.344-.92-1.805-.46-.422-1.12-.652-1.96-.652-.85 0-1.5.23-1.96.652-.46.423-.77 1.037-.92 1.805-.15.768-.23 1.69-.23 2.803 0 1.114.08 2.074.23 2.842.15.768.46 1.382.92 1.805.46.461 1.11.691 1.96.691.84 0 1.5-.23 1.96-.691.46-.461.77-1.075.92-1.805.15-.768.23-1.69.23-2.842zm4.23 4.762v1.152h-1.19v-1.152h1.19zm2.26-4.762c0-1.92.27-3.379.84-4.416.58-1.036 1.58-1.536 3.08-1.536 1.49 0 2.49.5 3.03 1.536.54 1.037.84 2.496.84 4.416 0 1.92-.27 3.418-.84 4.455-.58 1.037-1.58 1.574-3.03 1.574-1.46 0-2.5-.537-3.08-1.574-.57-1.037-.84-2.535-.84-4.455zm7.03 0c0-1.113-.08-2.035-.23-2.803-.16-.768-.47-1.344-.93-1.805-.46-.422-1.11-.652-1.95-.652-.85 0-1.5.23-1.96.652-.46.423-.77 1.037-.92 1.805-.16.768-.24 1.69-.24 2.803 0 1.114.08 2.074.24 2.842.15.768.46 1.382.92 1.805.46.461 1.11.691 1.96.691.84 0 1.49-.23 1.95-.691.46-.461.77-1.075.93-1.805.15-.768.23-1.69.23-2.842zm9.99-5.184c.57.576.88 1.267.88 2.151 0 .729-.23 1.344-.65 1.881-.46.538-1.16.845-2.12.922v.077c.93.23 1.66.576 2.19 1.075.54.461.81 1.152.81 1.997 0 .921-.31 1.689-.92 2.304-.62.576-1.5.883-2.69.883s-2.07-.307-2.8-.922c-.73-.614-1.15-1.497-1.35-2.611h.77c.15.845.5 1.536 1.08 2.074.57.537 1.34.768 2.26.768.92 0 1.65-.231 2.15-.692.5-.46.73-1.075.73-1.843 0-.883-.34-1.574-1.03-2.035-.7-.461-1.69-.691-2.96-.691h-.31v-.653h.35c1.26 0 2.22-.192 2.84-.653.61-.422.92-1.037.92-1.805 0-.729-.23-1.305-.69-1.728-.46-.422-1.11-.652-1.96-.652-.84 0-1.54.23-2.11.652-.58.461-.92 1.114-1.04 2.036h-.77c.12-1.037.5-1.882 1.16-2.458.69-.614 1.61-.883 2.76-.883 1.08 0 1.92.269 2.5.845v-.039zm5.83 9.907c.46.461 1.11.692 1.95.692 1.16 0 2-.423 2.62-1.268.61-.844.88-2.188.88-4.07v-.768c-.15.806-.58 1.421-1.23 1.92-.69.461-1.5.691-2.42.691-1.23 0-2.15-.345-2.84-1.075-.65-.73-1-1.69-1-2.957 0-.691.12-1.344.38-1.92.27-.576.7-1.075 1.27-1.421.58-.345 1.31-.537 2.19-.537 1.65 0 2.8.537 3.42 1.574.61 1.037.92 2.458.92 4.224 0 1.997-.31 3.571-.96 4.647-.65 1.075-1.73 1.612-3.23 1.612-1.03 0-1.88-.307-2.45-.883-.62-.614-.96-1.382-1.08-2.381h.73c.12.845.42 1.498.88 1.959l-.03-.039zm4.95-8.294c-.23-.538-.61-.96-1.15-1.306-.54-.345-1.19-.499-2-.499-.96 0-1.69.307-2.26.883-.58.576-.85 1.383-.85 2.381 0 1.114.27 1.959.85 2.535.57.576 1.34.883 2.34.883.57 0 1.11-.115 1.65-.346.54-.23.96-.576 1.27-1.037.34-.46.5-1.036.5-1.728 0-.614-.12-1.19-.39-1.728l.04-.038zm-34.56 17.779v.653h-3.38v11.136h-.76v-11.136h-3.38v-.653h7.52zm2.65 1.267c.31-.46.73-.806 1.35-1.075.57-.269 1.26-.384 2.07-.384.81 0 1.5.115 2.07.384.58.269 1.04.615 1.35 1.075.3.461.46.999.46 1.575 0 .691-.19 1.305-.58 1.805-.38.499-1 .844-1.8 1.036.84.192 1.53.538 1.99 1.076.5.537.73 1.19.73 1.996 0 1.076-.38 1.92-1.11 2.535-.77.614-1.77.921-3.11.921-1.34 0-2.34-.307-3.07-.921-.77-.615-1.12-1.459-1.12-2.535 0-.806.23-1.497.73-1.996.5-.538 1.16-.884 2-1.076-.81-.192-1.42-.537-1.8-1.036-.39-.5-.58-1.076-.58-1.767 0-.576.15-1.113.46-1.574l-.04-.039zm.88 9.524c.62.499 1.46.729 2.54.729 1.07 0 1.92-.23 2.53-.729.62-.5.96-1.191.96-2.112 0-.922-.3-1.613-.96-2.036-.65-.422-1.49-.652-2.49-.652-1 0-1.85.23-2.5.652-.65.423-.96 1.114-.96 2.036 0 .921.31 1.612.92 2.112h-.04zm.24-6.029c.57.422 1.34.653 2.3.653.96 0 1.73-.231 2.3-.653.58-.423.85-1.037.85-1.805s-.27-1.382-.85-1.843c-.57-.423-1.34-.653-2.3-.653-.96 0-1.73.23-2.3.653-.58.422-.85 1.037-.85 1.843s.27 1.382.85 1.805zm15.58-4.109c.58.576.89 1.267.89 2.15 0 .73-.23 1.344-.65 1.882-.47.537-1.16.844-2.12.921v.077c.92.23 1.65.576 2.19 1.075.54.461.81 1.152.81 1.997 0 .922-.31 1.69-.92 2.304-.62.576-1.5.883-2.69.883s-2.07-.307-2.8-.921c-.73-.615-1.16-1.498-1.35-2.612h.77c.15.845.5 1.536 1.07 2.074.58.538 1.35.768 2.27.768.92 0 1.65-.23 2.15-.691.5-.461.73-1.075.73-1.843 0-.884-.35-1.575-1.04-2.036-.69-.46-1.69-.691-2.95-.691h-.31v-.653h.35c1.26 0 2.22-.23 2.84-.652.61-.423.92-1.037.92-1.805 0-.73-.23-1.306-.69-1.728-.46-.423-1.12-.653-1.96-.653-.85 0-1.54.23-2.11.653-.58.461-.92 1.113-1.04 2.035h-.73c.12-1.037.5-1.882 1.15-2.458.69-.614 1.58-.883 2.77-.883 1.07 0 1.92.269 2.49.845l-.04-.038zm4.54 9.946v1.152h-1.19v-1.152h1.19zm8.45-9.485c-.46-.461-1.11-.691-1.92-.691-1.15 0-2 .422-2.61 1.267-.62.845-.88 2.189-.88 4.07v.768c.15-.806.53-1.42 1.22-1.92.7-.46 1.5-.691 2.42-.691 1.23 0 2.15.346 2.81 1.075.65.73 1 1.69 1 2.957 0 .73-.12 1.344-.39 1.959-.27.614-.69 1.036-1.27 1.42-.57.346-1.3.538-2.18.538-1.66 0-2.81-.538-3.42-1.574-.62-1.037-.92-2.458-.92-4.263 0-2.035.3-3.571.99-4.646.66-1.075 1.73-1.613 3.23-1.613 1.04 0 1.84.307 2.46.883.61.576.92 1.383 1.03 2.381h-.73c-.11-.845-.42-1.498-.88-1.958l.04.038zm-4.92 8.256c.24.538.62.96 1.16 1.306.53.345 1.19.499 1.99.499.96 0 1.69-.269 2.27-.845.58-.576.84-1.344.84-2.381 0-1.113-.26-1.958-.84-2.534-.58-.576-1.34-.883-2.34-.883-.58 0-1.12.115-1.65.345-.54.231-.96.576-1.27 1.037-.35.461-.5 1.037-.5 1.728 0 .614.11 1.19.38 1.728h-.04zm16.09-8.717c.58.576.88 1.267.88 2.15 0 .73-.23 1.344-.65 1.882-.46.537-1.15.844-2.11.921v.077c.92.23 1.65.576 2.19 1.075.54.461.8 1.152.8 1.997 0 .922-.3 1.69-.92 2.304-.61.576-1.49.883-2.68.883-1.2 0-2.08-.307-2.81-.921-.73-.615-1.15-1.498-1.34-2.612h.77c.15.845.5 1.536 1.07 2.074.58.538 1.35.768 2.27.768.92 0 1.65-.23 2.15-.691.5-.461.73-1.075.73-1.843 0-.884-.35-1.575-1.04-2.036-.69-.46-1.69-.691-2.96-.691h-.3v-.653h.34c1.27 0 2.23-.23 2.84-.652.62-.423.92-1.037.92-1.805 0-.73-.23-1.306-.69-1.728-.46-.423-1.11-.653-1.95-.653-.85 0-1.54.23-2.12.653-.57.461-.92 1.113-1.03 2.035h-.73c.11-1.037.5-1.882 1.15-2.458.69-.614 1.57-.883 2.76-.883 1.08 0 1.92.269 2.5.845l-.04-.038zm8.56 6.451c1.23-1.382 1.84-2.688 1.84-3.916 0-.807-.23-1.46-.65-1.959-.42-.499-1.11-.768-2.07-.768-.96 0-1.73.307-2.23.883-.5.615-.81 1.383-.88 2.381h-.73c.07-1.229.46-2.227 1.15-2.918.69-.691 1.61-1.037 2.73-1.037.99 0 1.8.269 2.45.806.66.538.96 1.383.96 2.496 0 .96-.3 1.959-1 2.957a12.7 12.7 0 01-2.45 2.803 16.68 16.68 0 01-2.96 2.189h6.72v.653h-7.91v-.499c2.07-1.344 3.72-2.727 4.91-4.109l.12.038zm45.82 10.867v1.344h-8.76v-1.344h8.76zm10.25 2.497c1.58-1.767 2.38-3.418 2.38-4.954 0-.96-.27-1.766-.77-2.381-.49-.614-1.34-.921-2.45-.921-1.12 0-2.08.345-2.65 1.075-.62.729-.96 1.728-1.04 2.957h-1.54c.12-1.728.66-3.072 1.58-3.994.96-.922 2.23-1.421 3.76-1.421 1.42 0 2.54.384 3.42 1.152.88.768 1.31 1.882 1.31 3.341 0 1.229-.43 2.534-1.23 3.802-.81 1.305-1.85 2.496-3.08 3.609a23.9 23.9 0 01-3.76 2.803h8.53v1.306h-10.76v-1.114c2.65-1.766 4.77-3.532 6.34-5.299l-.04.039zm6.45 2.649v-1.306l8.38-10.79h1.69v10.714h2.45v1.382h-2.45v3.84h-1.58v-3.84h-8.49zm8.57-10.138l-6.88 8.756h6.88v-8.756zm12.21 7.489c1.57-1.767 2.38-3.418 2.38-4.954 0-.96-.27-1.766-.77-2.381-.5-.614-1.34-.921-2.46-.921-1.11 0-2.07.345-2.65 1.075-.61.729-.96 1.728-1.03 2.957h-1.54c.12-1.728.65-3.072 1.61-3.994.96-.922 2.19-1.421 3.77-1.421 1.42 0 2.53.384 3.42 1.152.88.768 1.3 1.882 1.3 3.341 0 1.229-.42 2.534-1.23 3.802-.8 1.305-1.84 2.496-3.07 3.609a24.859 24.859 0 01-3.76 2.803h8.52v1.306H1651v-1.114c2.65-1.766 4.76-3.532 6.34-5.299l-.08.039zm8.59 4.454v2.035h-2.07v-2.035h2.07zm12.91-12.557h-8.41v5.875c.43-.538 1-.96 1.73-1.306.73-.345 1.58-.499 2.42-.499 1.69 0 2.96.499 3.8 1.459.85.96 1.23 2.189 1.23 3.648 0 1.613-.46 2.919-1.34 3.956-.89 1.036-2.23 1.536-4 1.536-1.53 0-2.8-.423-3.8-1.268-1-.844-1.53-1.996-1.69-3.417h1.54c.19 1.037.61 1.843 1.3 2.419.7.576 1.54.845 2.54.845 1.3 0 2.26-.384 2.92-1.152.65-.768.96-1.767.96-2.995 0-1.229-.35-2.151-1-2.804-.65-.691-1.61-.998-2.84-.998-.85 0-1.62.192-2.27.537a3.57 3.57 0 00-1.5 1.498h-1.53v-8.755h9.87v1.382l.07.039zm11.87.538c-.58-.576-1.35-.845-2.34-.845-1.39 0-2.42.537-3.15 1.574s-1.08 2.727-1.08 5.031v.998c.19-.998.73-1.766 1.61-2.342.85-.576 1.89-.884 3.04-.884 1.61 0 2.84.461 3.76 1.421.88.96 1.35 2.266 1.35 3.955 0 .96-.2 1.844-.58 2.65-.38.806-.96 1.421-1.77 1.92-.8.461-1.76.73-2.95.73-2.27 0-3.81-.692-4.65-2.112-.85-1.421-1.23-3.341-1.23-5.76 0-2.765.46-4.877 1.34-6.298.89-1.421 2.39-2.15 4.42-2.15 1.46 0 2.57.422 3.38 1.228.81.845 1.31 1.92 1.42 3.264h-1.5c-.11-1.036-.5-1.804-1.03-2.38h-.04zm-5.95 10.675c.3.653.76 1.19 1.38 1.574.61.384 1.42.615 2.38.615 1.15 0 2.07-.346 2.76-1.037s1.04-1.651 1.04-2.88c0-1.344-.35-2.343-1.04-3.072-.69-.691-1.65-1.075-2.88-1.075-.69 0-1.34.153-1.95.422-.62.269-1.16.691-1.54 1.267a3.7 3.7 0 00-.61 2.074c0 .768.15 1.459.46 2.112zm11.44-.461v-1.306l8.37-10.79h1.69v10.714h2.46v1.382h-2.46v3.84h-1.58v-3.84h-8.48zm8.56-10.138l-6.87 8.756h6.87v-8.756z" fill="#fff"/></g><g opacity=".5"><g style="mix-blend-mode:screen" opacity=".5"><path d="M1551.57 735.707v-72.038h-164.23L1352.85 625v38.669h-19.35v72.038h218.07z" fill="url(#paint4_linear_2682_15399)" style="mix-blend-mode:screen"/><path d="M1551.57 735.707v-72.038h-164.23L1352.85 625v38.669h-19.35v72.038h218.07z" fill="url(#paint5_linear_2682_15399)"/></g><path d="M1347.2 681.794c0-1.92.27-3.379.85-4.416.57-1.037 1.57-1.536 3.07-1.536 1.5 0 2.5.499 3.03 1.536.54 1.037.85 2.496.85 4.416 0 1.92-.27 3.417-.85 4.454-.57 1.037-1.57 1.575-3.03 1.575-1.46 0-2.5-.538-3.07-1.575-.58-1.037-.85-2.534-.85-4.454zm7.03 0c0-1.114-.08-2.035-.23-2.803-.15-.768-.46-1.344-.92-1.805-.46-.461-1.12-.653-1.96-.653-.84 0-1.5.23-1.96.653-.46.422-.77 1.037-.92 1.805-.15.768-.23 1.689-.23 2.803 0 1.113.08 2.073.23 2.841.15.768.46 1.383.92 1.805.46.461 1.12.691 1.96.691.84 0 1.5-.23 1.96-.691.46-.461.77-1.075.92-1.805.15-.768.23-1.689.23-2.841zm5.49 4.761c.46.461 1.12.692 1.96.692 1.15 0 2-.423 2.61-1.268.62-.844.89-2.188.89-4.07v-.768c-.16.806-.58 1.421-1.23 1.92-.69.461-1.5.691-2.42.691-1.23 0-2.15-.345-2.84-1.075-.66-.73-1-1.69-1-2.957 0-.691.11-1.344.38-1.92.27-.576.69-1.075 1.27-1.421.57-.345 1.3-.537 2.19-.537 1.65 0 2.8.537 3.42 1.574.61 1.037.92 2.458.92 4.224 0 1.997-.31 3.571-.96 4.647-.66 1.075-1.73 1.612-3.23 1.612-1.04 0-1.88-.307-2.46-.883-.57-.576-.96-1.382-1.07-2.381h.73c.11.845.42 1.498.88 1.959l-.04-.039zm4.96-8.294c-.23-.538-.62-.96-1.16-1.306-.53-.345-1.19-.499-1.99-.499-.96 0-1.69.307-2.27.883-.57.576-.84 1.383-.84 2.381 0 1.114.27 1.959.84 2.535.58.576 1.35.883 2.34.883.58 0 1.12-.115 1.66-.346.53-.23.96-.576 1.26-1.037.35-.46.5-1.036.5-1.728 0-.614-.11-1.19-.38-1.728l.04-.038zm5.91 8.294c.46.461 1.11.692 1.96.692 1.15 0 2-.423 2.61-1.268.61-.844.88-2.188.88-4.07v-.768c-.15.806-.57 1.421-1.23 1.92-.69.461-1.49.691-2.42.691-1.22 0-2.15-.345-2.84-1.075-.65-.73-1-1.69-1-2.957 0-.691.12-1.344.39-1.92.27-.576.69-1.075 1.27-1.421.57-.345 1.3-.537 2.18-.537 1.66 0 2.81.537 3.42 1.574.62 1.037.92 2.458.92 4.224 0 1.997-.3 3.571-.96 4.647-.65 1.075-1.72 1.612-3.22 1.612-1.04 0-1.88-.307-2.46-.883-.61-.614-.96-1.382-1.07-2.381h.73c.11.845.42 1.498.88 1.959l-.04-.039zm4.95-8.294c-.23-.538-.61-.96-1.15-1.306-.54-.345-1.19-.499-2-.499-.96 0-1.68.307-2.26.883-.58.576-.85 1.383-.85 2.381 0 1.114.27 1.959.85 2.535.58.576 1.34.883 2.34.883.58 0 1.12-.115 1.65-.346.54-.23.96-.576 1.27-1.037.35-.46.5-1.036.5-1.728 0-.614-.12-1.19-.38-1.728l.03-.038zm4.61 8.333v1.152h-1.19v-1.152h1.19zm9.75-9.985h-6.45v4.839c.31-.461.77-.806 1.35-1.075.57-.269 1.23-.384 1.92-.384 1.26 0 2.22.345 2.84 1.075.61.73.92 1.613.92 2.688 0 .729-.15 1.421-.42 2.035a2.994 2.994 0 01-1.31 1.459c-.61.346-1.3.538-2.23.538-1.07 0-1.99-.307-2.72-.922-.73-.614-1.15-1.42-1.27-2.496h.73c.19.884.54 1.536 1.11 1.997.58.461 1.27.691 2.12.691 1.07 0 1.88-.307 2.42-.921.53-.615.8-1.46.8-2.458 0-.998-.27-1.766-.8-2.304-.54-.537-1.31-.845-2.35-.845-.69 0-1.3.154-1.88.461-.54.307-.96.691-1.27 1.229h-.69v-6.336h7.18v.729zm7.88 6.49c1.23-1.382 1.84-2.688 1.84-3.917 0-.806-.23-1.459-.61-1.958-.42-.499-1.11-.768-2.07-.768-.96 0-1.69.307-2.23.883-.5.614-.81 1.382-.88 2.381h-.73c.07-1.229.46-2.227 1.15-2.919.69-.691 1.61-1.036 2.72-1.036 1 0 1.81.268 2.46.806.65.538.96 1.382.96 2.496 0 .96-.34 1.958-1 2.957-.65.998-1.46 1.958-2.45 2.803a16.73 16.73 0 01-2.96 2.189h6.72v.653h-7.91v-.5c2.07-1.344 3.72-2.726 4.91-4.108l.08.038zm7.37 3.456c.46.461 1.12.692 1.96.692 1.15 0 2-.423 2.61-1.268.62-.844.89-2.188.89-4.07v-.768c-.16.806-.58 1.421-1.23 1.92-.69.461-1.5.691-2.42.691-1.23 0-2.15-.345-2.84-1.075-.66-.73-1-1.69-1-2.957 0-.691.11-1.344.38-1.92.27-.576.69-1.075 1.27-1.421.57-.345 1.3-.537 2.19-.537 1.65 0 2.8.537 3.41 1.574.62 1.037.93 2.458.93 4.224 0 1.997-.31 3.571-.96 4.647-.66 1.075-1.73 1.612-3.23 1.612-1.04 0-1.88-.307-2.46-.883-.61-.614-.96-1.382-1.07-2.381h.73c.11.845.42 1.498.88 1.959l-.04-.039zm4.96-8.294c-.23-.538-.62-.96-1.16-1.306-.53-.345-1.19-.499-1.99-.499-.96 0-1.69.307-2.27.883-.57.576-.84 1.383-.84 2.381 0 1.114.27 1.959.84 2.535.58.576 1.35.883 2.34.883.58 0 1.12-.115 1.66-.346.53-.23.96-.576 1.26-1.037.35-.46.5-1.036.5-1.728 0-.614-.11-1.19-.38-1.728l.04-.038zm-56.15 17.74v.653h-3.38v11.136h-.76v-11.136h-3.38v-.653h7.52zm2.04 5.837c0-1.92.27-3.379.84-4.416.58-1.037 1.58-1.536 3.08-1.536 1.49 0 2.49.499 3.03 1.536.54 1.037.85 2.496.85 4.416 0 1.92-.27 3.418-.85 4.455-.58 1.036-1.57 1.574-3.03 1.574-1.46 0-2.5-.538-3.08-1.574-.57-1.037-.84-2.535-.84-4.455zm7.03 0c0-1.113-.08-2.035-.23-2.803-.16-.768-.46-1.344-.92-1.805-.47-.422-1.12-.653-1.96-.653-.85 0-1.5.231-1.96.653-.46.423-.77 1.037-.92 1.805-.16.768-.23 1.69-.23 2.803 0 1.114.07 2.074.23 2.842.15.768.46 1.382.92 1.805.46.46 1.11.691 1.96.691.84 0 1.49-.231 1.96-.691.46-.461.76-1.076.92-1.805.15-.768.23-1.69.23-2.842zm11.05-5.222h-6.45v4.838c.31-.461.77-.806 1.35-1.075.57-.269 1.23-.384 1.92-.384 1.26 0 2.22.346 2.84 1.075.61.73.92 1.613.92 2.688 0 .73-.15 1.421-.42 2.035a2.996 2.996 0 01-1.31 1.46c-.57.384-1.3.537-2.23.537-1.07 0-1.99-.307-2.72-.921-.73-.615-1.15-1.421-1.27-2.496h.73c.19.883.54 1.536 1.11 1.996.58.461 1.27.692 2.12.692 1.07 0 1.88-.308 2.42-.922.53-.614.8-1.459.8-2.458 0-.998-.27-1.728-.8-2.304-.54-.537-1.31-.844-2.35-.844-.69 0-1.3.153-1.88.46-.54.308-.96.692-1.27 1.229h-.69v-6.336h7.18v.73zm7.84 6.528c1.23-1.382 1.84-2.688 1.84-3.917 0-.806-.19-1.459-.61-1.958-.42-.499-1.11-.768-2.07-.768-.96 0-1.69.307-2.23.883-.5.614-.81 1.382-.88 2.381h-.73c.07-1.229.46-2.227 1.15-2.919.69-.691 1.61-1.036 2.73-1.036.99 0 1.8.268 2.45.806.66.538.96 1.382.96 2.496 0 .96-.34 1.92-1 2.957-.65.998-1.45 1.958-2.45 2.803a16.73 16.73 0 01-2.96 2.189h6.72v.653h-7.91v-.5c2.07-1.344 3.72-2.726 4.91-4.108l.08.038zm12.98-6.528h-6.46v4.838c.31-.461.77-.806 1.35-1.075.58-.269 1.23-.384 1.92-.384 1.27 0 2.23.346 2.84 1.075.61.73.92 1.613.92 2.688 0 .73-.15 1.421-.42 2.035a2.996 2.996 0 01-1.31 1.46c-.57.384-1.3.537-2.22.537-1.08 0-2-.307-2.73-.921-.73-.615-1.15-1.421-1.27-2.496h.73c.2.883.54 1.536 1.12 1.996.57.461 1.26.692 2.11.692 1.07 0 1.88-.308 2.42-.922.54-.614.8-1.459.8-2.458 0-.998-.26-1.728-.8-2.304-.54-.537-1.31-.844-2.34-.844-.7 0-1.31.153-1.89.46-.53.308-.96.692-1.26 1.229h-.69v-6.336h7.18v.73zm9.59.038c.58.576.89 1.267.89 2.15 0 .73-.23 1.344-.65 1.882-.47.538-1.16.845-2.12.922v.076c.92.231 1.65.576 2.19 1.076.54.46.81 1.152.81 1.996 0 .922-.31 1.69-.92 2.304-.62.576-1.5.884-2.69.884s-2.07-.308-2.8-.922c-.73-.614-1.16-1.498-1.35-2.611h.77c.15.845.5 1.536 1.07 2.073.58.538 1.35.768 2.27.768.92 0 1.65-.23 2.15-.691.5-.461.73-1.075.73-1.843 0-.883-.35-1.574-1.04-2.035-.69-.461-1.69-.691-2.95-.691h-.31v-.653h.35c1.26 0 2.22-.192 2.84-.653.61-.422.92-1.037.92-1.805 0-.729-.23-1.305-.69-1.728-.46-.422-1.12-.653-1.96-.653-.85 0-1.54.231-2.11.653-.58.461-.92 1.114-1.04 2.035h-.77c.12-1.036.5-1.881 1.15-2.457.7-.615 1.62-.883 2.77-.883 1.07 0 1.92.268 2.49.844v-.038zm3.27 8.102v-.614l6.42-8.179h.77v8.102h1.92v.653h-1.92v2.995h-.77v-2.995h-6.45l.03.038zm6.49-7.795l-5.64 7.104h5.64v-7.104zm5.3 9.639v1.152h-1.19V706.6h1.19zm1.61-1.844v-.614l6.42-8.179h.76v8.102h1.92v.653h-1.92v2.995h-.76v-2.995h-6.46l.04.038zm6.49-7.795l-5.64 7.104h5.64v-7.104zm10.83.193c-.46-.461-1.11-.692-1.92-.692-1.15 0-2 .423-2.61 1.268-.62.844-.88 2.188-.88 4.07v.768c.15-.806.53-1.421 1.22-1.92.7-.461 1.5-.691 2.42-.691 1.23 0 2.15.345 2.81 1.075.65.73 1 1.69 1 2.957 0 .729-.12 1.344-.39 1.958-.27.576-.69 1.037-1.27 1.421-.57.346-1.3.538-2.18.538-1.66 0-2.81-.538-3.42-1.575-.62-1.037-.92-2.457-.92-4.262 0-2.035.34-3.571.99-4.647.66-1.075 1.73-1.612 3.23-1.612 1.04 0 1.84.307 2.46.883.57.576.92 1.382 1.03 2.381h-.73c-.11-.845-.42-1.498-.88-1.959l.04.039zm-4.92 8.256c.24.537.62.96 1.16 1.305.53.346 1.19.499 1.99.499.96 0 1.69-.268 2.27-.844.58-.576.84-1.344.84-2.381 0-1.114-.26-1.959-.84-2.535-.58-.576-1.34-.883-2.34-.883-.58 0-1.12.115-1.65.346-.54.23-.96.576-1.27 1.037-.35.46-.5 1.036-.5 1.728 0 .614.11 1.19.38 1.728h-.04zm18.29 8.563v1.344h-8.76v-1.344h8.76zm4.26.998c0-2.535.38-4.531 1.19-5.952.81-1.421 2.23-2.112 4.26-2.112 2.04 0 3.42.691 4.26 2.112.81 1.421 1.23 3.379 1.23 5.952s-.42 4.569-1.23 5.952c-.8 1.421-2.22 2.112-4.26 2.112-2.03 0-3.45-.691-4.26-2.112-.81-1.421-1.19-3.418-1.19-5.952zm9.33 0c0-1.383-.11-2.535-.31-3.495-.19-.96-.57-1.689-1.15-2.265-.57-.538-1.38-.845-2.42-.845-1.03 0-1.88.269-2.46.845-.57.537-.96 1.305-1.15 2.265-.19.96-.3 2.112-.3 3.495 0 1.382.11 2.573.3 3.533s.58 1.689 1.15 2.265c.58.538 1.39.845 2.46.845 1.08 0 1.85-.269 2.42-.845.58-.537.96-1.305 1.15-2.265.2-.96.31-2.112.31-3.533zm7.69 6.029c.57.576 1.34.844 2.34.844 1.42 0 2.46-.537 3.19-1.574.69-1.075 1.07-2.765 1.07-5.069v-.921c-.19.96-.73 1.766-1.61 2.342-.85.576-1.88.883-3.04.883-1.57 0-2.84-.461-3.72-1.421-.88-.96-1.34-2.304-1.34-3.993 0-.96.19-1.843.57-2.65.39-.806.96-1.421 1.73-1.92.77-.461 1.77-.691 2.96-.691 2.26 0 3.8.691 4.64 2.074.85 1.382 1.27 3.302 1.27 5.721 0 2.765-.42 4.877-1.31 6.336-.88 1.459-2.34 2.189-4.33 2.189-1.46 0-2.62-.422-3.46-1.229-.85-.845-1.31-1.92-1.46-3.302h1.5c.15 1.037.5 1.843 1.07 2.381h-.07zm5.33-11.597c-.69-.845-1.76-1.229-3.15-1.229-1.15 0-2.07.346-2.76 1.037s-1.04 1.651-1.04 2.88c0 1.344.35 2.342 1.04 3.072.69.729 1.65 1.075 2.88 1.075.69 0 1.34-.154 2-.422a3.297 3.297 0 001.53-1.268c.39-.576.62-1.267.62-2.073 0-1.191-.35-2.189-1.04-3.034l-.08-.038zm6.72-.653c.42-.614 1.03-1.113 1.84-1.497.81-.346 1.77-.538 2.88-.538 1.11 0 2.07.192 2.88.538.81.345 1.42.844 1.84 1.497.43.614.62 1.344.62 2.15 0 .884-.27 1.69-.77 2.343s-1.27 1.113-2.3 1.382c1.07.269 1.95.73 2.57 1.459.61.73.92 1.613.92 2.65 0 1.459-.54 2.611-1.57 3.456-1.04.845-2.46 1.267-4.23 1.267-1.76 0-3.15-.422-4.18-1.267-1.04-.845-1.58-1.997-1.58-3.456 0-1.075.31-1.958.92-2.65.62-.729 1.46-1.19 2.58-1.459-1.04-.269-1.81-.729-2.31-1.382-.5-.653-.77-1.421-.77-2.343 0-.806.2-1.497.62-2.15h.04zm1.65 12.442c.77.614 1.8.921 3.07.921 1.27 0 2.3-.307 3.07-.921.77-.615 1.15-1.46 1.15-2.573 0-1.114-.38-1.959-1.19-2.535-.8-.576-1.8-.844-3.03-.844-1.23 0-2.23.268-3.03.844-.81.576-1.19 1.421-1.19 2.535 0 1.113.38 1.958 1.15 2.573zm.31-7.872c.69.537 1.61.806 2.76.806 1.15 0 2.07-.269 2.76-.806.7-.538 1-1.268 1-2.266s-.34-1.728-1.03-2.266c-.69-.537-1.62-.806-2.77-.806s-2.03.269-2.72.806c-.7.538-1.04 1.268-1.04 2.266s.34 1.728 1 2.266h.04zm19.7-4.416c-.58-.576-1.35-.845-2.34-.845-1.39 0-2.42.537-3.15 1.574s-1.08 2.727-1.08 5.031v.998c.19-.999.73-1.767 1.62-2.343.84-.576 1.88-.883 3.03-.883 1.61 0 2.84.461 3.76 1.421.89.96 1.35 2.266 1.35 3.955 0 .96-.2 1.843-.58 2.65-.38.806-.96 1.421-1.77 1.92-.8.499-1.76.73-2.95.73-2.27 0-3.8-.692-4.65-2.113-.84-1.42-1.23-3.34-1.23-5.76 0-2.764.46-4.876 1.35-6.297.88-1.421 2.38-2.15 4.41-2.15 1.46 0 2.57.422 3.38 1.228.81.845 1.31 1.92 1.42 3.264h-1.5c-.11-1.037-.5-1.804-1.03-2.38h-.04zm-5.95 10.675c.3.653.76 1.19 1.38 1.574.61.384 1.42.615 2.38.615 1.15 0 2.07-.346 2.76-1.037.7-.691 1.04-1.651 1.04-2.88 0-1.344-.34-2.343-1.04-3.072-.69-.73-1.65-1.075-2.88-1.075-.69 0-1.34.153-1.95.422-.62.269-1.16.691-1.54 1.267-.42.576-.61 1.267-.61 2.074 0 .768.15 1.459.46 2.112zm13.55 1.344v2.035h-2.07v-2.035h2.07zm5.45.077c.58.576 1.35.844 2.34.844 1.42 0 2.46-.537 3.19-1.574.73-1.075 1.08-2.765 1.08-5.069v-.921c-.2.96-.73 1.766-1.62 2.342-.84.576-1.88.883-3.03.883-1.57 0-2.84-.461-3.72-1.421-.89-.96-1.35-2.304-1.35-3.993 0-.96.19-1.843.58-2.65.38-.806.96-1.421 1.73-1.92.76-.461 1.76-.691 2.95-.691 2.27 0 3.8.691 4.65 2.074.84 1.382 1.27 3.302 1.27 5.721 0 2.765-.43 4.877-1.31 6.336-.88 1.459-2.34 2.189-4.34 2.189-1.46 0-2.61-.422-3.46-1.229-.84-.845-1.3-1.92-1.45-3.302h1.49c.16 1.037.5 1.843 1.08 2.381h-.08zm5.34-11.597c-.69-.845-1.77-1.229-3.15-1.229-1.15 0-2.07.346-2.76 1.037-.7.691-1.04 1.651-1.04 2.88 0 1.344.34 2.342 1.04 3.072.69.729 1.65 1.075 2.88 1.075.69 0 1.34-.154 1.99-.422.66-.269 1.15-.692 1.54-1.268a3.7 3.7 0 00.61-2.073c0-1.191-.34-2.189-1.03-3.034l-.08-.038zm6.72-.653c.42-.614 1.04-1.113 1.84-1.497.81-.346 1.77-.538 2.88-.538 1.12 0 2.08.192 2.88.538.81.345 1.42.844 1.85 1.497.42.614.61 1.344.61 2.15 0 .884-.27 1.69-.77 2.343s-1.26 1.113-2.3 1.382c1.07.269 1.96.73 2.57 1.459.62.73.92 1.613.92 2.65 0 1.459-.53 2.611-1.57 3.456-1.04.845-2.46 1.267-4.23 1.267-1.76 0-3.14-.422-4.18-1.267-1.04-.845-1.57-1.997-1.57-3.456 0-1.075.3-1.958.92-2.65.61-.729 1.46-1.19 2.57-1.459-1.04-.269-1.81-.729-2.3-1.382-.5-.653-.77-1.421-.77-2.343 0-.806.19-1.497.61-2.15h.04zm1.65 12.442c.77.614 1.81.921 3.07.921 1.27 0 2.31-.307 3.08-.921.76-.615 1.15-1.46 1.15-2.573 0-1.114-.39-1.959-1.19-2.535-.81-.576-1.81-.844-3.04-.844s-2.22.268-3.03.844c-.81.576-1.19 1.421-1.19 2.535 0 1.113.38 1.958 1.15 2.573zm.31-7.872c.69.537 1.61.806 2.76.806 1.16 0 2.08-.269 2.77-.806.69-.538 1-1.268 1-2.266s-.35-1.728-1.04-2.266c-.69-.537-1.61-.806-2.77-.806-1.15 0-2.03.269-2.72.806-.69.538-1.04 1.268-1.04 2.266s.35 1.728 1 2.266h.04z" fill="#fff"/></g><g opacity=".5"><g style="mix-blend-mode:screen" opacity=".5"><path d="M550.5 720.746v-72.039h164.237L749.182 610v38.707h19.353v72.039H550.5z" fill="url(#paint6_linear_2682_15399)" style="mix-blend-mode:screen"/><path d="M550.5 720.746v-72.039h164.237L749.182 610v38.707h19.353v72.039H550.5z" fill="url(#paint7_linear_2682_15399)"/></g><path d="M564.172 666.448c0-1.92.269-3.38.845-4.416.576-1.037 1.574-1.536 3.072-1.536 1.497 0 2.496.499 3.033 1.536.538 1.036.845 2.496.845 4.416 0 1.92-.269 3.417-.845 4.454s-1.574 1.574-3.033 1.574c-1.46 0-2.496-.537-3.072-1.574-.576-1.037-.845-2.534-.845-4.454zm7.027 0c0-1.114-.077-2.036-.23-2.804-.154-.768-.461-1.344-.922-1.804-.461-.423-1.114-.653-1.958-.653-.845 0-1.498.23-1.959.653-.461.422-.768 1.036-.921 1.804-.154.768-.231 1.69-.231 2.804 0 1.113.077 2.073.231 2.841.153.768.46 1.383.921 1.805.461.461 1.114.691 1.959.691.844 0 1.497-.23 1.958-.691.461-.461.768-1.075.922-1.805.153-.768.23-1.689.23-2.841zm2.918 2.918v-.615l6.412-8.179h.768v8.103h1.92v.653h-1.92v2.995h-.768v-2.995h-6.451l.039.038zm6.489-7.795l-5.645 7.104h5.645v-7.104zm5.303 9.677v1.152h-1.19v-1.152h1.19zm8.446-9.485c-.461-.461-1.114-.691-1.92-.691-1.152 0-1.997.422-2.611 1.267-.615.845-.883 2.189-.883 4.07v.768c.153-.806.537-1.421 1.228-1.92.692-.461 1.498-.691 2.42-.691 1.228 0 2.15.346 2.803 1.075.653.73.998 1.69.998 2.957 0 .73-.115 1.344-.384 1.958-.269.576-.691 1.037-1.267 1.421-.576.346-1.306.538-2.189.538-1.651 0-2.803-.538-3.417-1.574-.615-1.037-.922-2.458-.922-4.263 0-2.035.346-3.571.998-4.646.653-1.076 1.728-1.613 3.226-1.613 1.037 0 1.843.307 2.458.883.576.576.921 1.383 1.036 2.381h-.729c-.115-.845-.423-1.498-.883-1.958l.038.038zm-4.915 8.256c.23.538.614.96 1.152 1.306.537.345 1.19.499 1.997.499.96 0 1.689-.269 2.265-.845.576-.576.845-1.344.845-2.381 0-1.113-.269-1.958-.845-2.534-.576-.576-1.344-.883-2.342-.883-.576 0-1.114.115-1.651.345-.538.23-.96.576-1.268 1.037-.345.461-.499 1.037-.499 1.728 0 .614.115 1.19.384 1.728h-.038zm16.094-8.755c.576.576.883 1.267.883 2.15 0 .73-.23 1.344-.653 1.881-.461.538-1.152.845-2.112.922v.077c.922.23 1.651.576 2.189 1.075.538.461.806 1.152.806 1.997 0 .921-.307 1.689-.921 2.304-.615.576-1.498.883-2.688.883-1.191 0-2.074-.307-2.803-.922-.73-.614-1.152-1.497-1.344-2.611h.768c.153.845.499 1.536 1.075 2.074.576.538 1.344.768 2.265.768.922 0 1.652-.231 2.151-.691.499-.461.729-1.075.729-1.843 0-.884-.345-1.575-1.036-2.036-.692-.461-1.69-.691-2.957-.691h-.307v-.653h.345c1.267 0 2.227-.192 2.842-.653.614-.422.921-1.036.921-1.804 0-.73-.23-1.306-.691-1.728-.461-.423-1.113-.653-1.958-.653s-1.536.23-2.112.653c-.576.461-.922 1.113-1.037 2.035h-.768c.115-1.037.499-1.882 1.152-2.458.691-.614 1.613-.883 2.765-.883 1.075 0 1.92.269 2.496.845v-.038zm10.632-.077l-4.569 11.174h-.807l4.647-11.136h-6.835v-.653h7.603v.615h-.039zm4.268 10.022c.46.461 1.113.691 1.958.691 1.152 0 1.997-.422 2.611-1.267.615-.845.883-2.189.883-4.07v-.768c-.153.806-.576 1.421-1.228 1.92-.692.461-1.498.691-2.42.691-1.228 0-2.15-.346-2.841-1.075-.691-.73-.999-1.69-.999-2.957 0-.691.116-1.344.384-1.92a3.235 3.235 0 011.268-1.421c.576-.345 1.305-.537 2.188-.537 1.652 0 2.804.537 3.418 1.574.614 1.037.922 2.458.922 4.224 0 1.997-.308 3.571-.96 4.646-.653 1.076-1.728 1.613-3.226 1.613-1.037 0-1.882-.307-2.458-.883-.614-.614-.96-1.382-1.075-2.381h.73c.115.845.422 1.498.883 1.959l-.038-.039zm4.953-8.294c-.23-.538-.614-.96-1.152-1.306-.537-.345-1.19-.499-1.997-.499-.96 0-1.689.307-2.265.883-.576.576-.845 1.383-.845 2.381 0 1.114.269 1.958.845 2.534.576.576 1.344.884 2.342.884.576 0 1.114-.116 1.651-.346.538-.23.96-.576 1.268-1.037.345-.461.499-1.037.499-1.728 0-.614-.115-1.19-.384-1.728l.038-.038zm-54.454 17.741v.653h-3.38v11.136h-.768v-11.136h-3.379v-.653h7.527zm2.075 5.836c0-1.92.269-3.379.845-4.415.576-1.037 1.574-1.536 3.072-1.536 1.497 0 2.496.499 3.033 1.536.538 1.036.845 2.495.845 4.415s-.269 3.418-.845 4.455-1.574 1.574-3.033 1.574c-1.46 0-2.496-.537-3.072-1.574-.576-1.037-.845-2.535-.845-4.455zm7.027 0c0-1.113-.077-2.035-.23-2.803-.154-.768-.461-1.344-.922-1.804-.461-.423-1.114-.653-1.958-.653-.845 0-1.498.23-1.959.653-.461.422-.768 1.036-.921 1.804-.154.768-.231 1.69-.231 2.803 0 1.114.077 2.074.231 2.842.153.768.46 1.383.921 1.805.461.461 1.114.691 1.959.691.844 0 1.497-.23 1.958-.691.461-.461.768-1.075.922-1.805.153-.768.23-1.69.23-2.842zm3.567 0c0-1.92.268-3.379.844-4.415.576-1.037 1.575-1.536 3.072-1.536 1.498 0 2.496.499 3.034 1.536.538 1.036.845 2.495.845 4.415s-.269 3.418-.845 4.455-1.574 1.574-3.034 1.574c-1.459 0-2.496-.537-3.072-1.574-.576-1.037-.844-2.535-.844-4.455zm7.027 0c0-1.113-.077-2.035-.231-2.803-.153-.768-.46-1.344-.921-1.804-.461-.423-1.114-.653-1.959-.653-.844 0-1.497.23-1.958.653-.461.422-.768 1.036-.922 1.804-.153.768-.23 1.69-.23 2.803 0 1.114.077 2.074.23 2.842.154.768.461 1.383.922 1.805.461.461 1.114.691 1.958.691.845 0 1.498-.23 1.959-.691.461-.461.768-1.075.921-1.805.154-.768.231-1.69.231-2.842zm9.983-5.184c.576.576.883 1.268.883 2.151 0 .729-.23 1.344-.653 1.881-.46.538-1.152.845-2.112.922v.077c.922.23 1.652.576 2.189 1.075.538.461.807 1.152.807 1.997 0 .921-.308 1.689-.922 2.304-.614.576-1.498.883-2.688.883-1.19 0-2.074-.307-2.803-.922-.73-.614-1.152-1.497-1.344-2.611h.768c.153.845.499 1.536 1.075 2.074.576.537 1.344.768 2.266.768.921 0 1.651-.231 2.15-.691.499-.461.73-1.076.73-1.844 0-.883-.346-1.574-1.037-2.035-.691-.461-1.69-.691-2.957-.691h-.307v-.653h.345c1.268 0 2.228-.192 2.842-.653.614-.422.922-1.036.922-1.804 0-.73-.231-1.306-.692-1.728-.46-.423-1.113-.653-1.958-.653s-1.536.23-2.112.653c-.576.46-.922 1.113-1.037 2.035h-.768c.115-1.037.499-1.882 1.152-2.458.691-.614 1.613-.883 2.765-.883 1.075 0 1.92.269 2.496.845v-.039zm4.577.615c.307-.461.768-.806 1.344-1.075.576-.269 1.267-.384 2.074-.384.806 0 1.497.115 2.073.384.576.269 1.037.614 1.344 1.075.308.461.461.998.461 1.574 0 .692-.192 1.306-.576 1.805-.384.499-.998.845-1.805 1.037.845.192 1.536.538 1.997 1.075.499.538.73 1.191.73 1.997 0 1.075-.384 1.92-1.114 2.534-.768.615-1.766.922-3.11.922-1.344 0-2.343-.307-3.111-.922-.768-.614-1.113-1.459-1.113-2.534 0-.806.23-1.498.729-1.997.5-.537 1.152-.883 1.997-1.075-.806-.192-1.421-.538-1.805-1.037-.384-.499-.576-1.075-.576-1.766 0-.576.154-1.114.461-1.575v-.038zm.883 9.523c.615.499 1.46.73 2.535.73 1.075 0 1.92-.231 2.534-.73.615-.499.96-1.19.96-2.112 0-.921-.307-1.613-.96-2.035-.653-.422-1.497-.653-2.496-.653-.998 0-1.843.231-2.496.653-.653.422-.96 1.114-.96 2.035 0 .922.307 1.613.922 2.112h-.039zm.231-6.029c.576.423 1.344.653 2.304.653.96 0 1.728-.23 2.304-.653.576-.422.845-1.036.845-1.804s-.269-1.383-.845-1.844c-.576-.422-1.344-.652-2.304-.652-.96 0-1.728.23-2.304.652-.576.423-.845 1.037-.845 1.844 0 .806.269 1.382.845 1.804zm8.485 3.994v-.615l6.413-8.179h.768v8.103h1.92v.652h-1.92v2.996h-.768v-2.996h-6.451l.038.039zm6.49-7.795l-5.645 7.104h5.645v-7.104zm10.827.192c-.461-.461-1.114-.691-1.92-.691-1.152 0-1.997.422-2.611 1.267-.615.845-.883 2.189-.883 4.07v.768c.153-.806.537-1.421 1.228-1.92.692-.461 1.498-.691 2.42-.691 1.228 0 2.15.346 2.803 1.075.653.73.998 1.69.998 2.957 0 .73-.115 1.344-.384 1.958-.269.576-.691 1.037-1.267 1.421-.576.346-1.306.538-2.189.538-1.651 0-2.803-.538-3.417-1.575-.615-1.036-.922-2.457-.922-4.262 0-2.035.346-3.571.998-4.646.653-1.076 1.728-1.613 3.226-1.613 1.037 0 1.843.307 2.458.883.576.576.921 1.382 1.036 2.381h-.729c-.115-.845-.423-1.498-.883-1.959l.038.039zm-4.915 8.256c.23.537.614.96 1.152 1.305.537.346 1.19.5 1.997.5.96 0 1.689-.269 2.265-.845.576-.576.845-1.344.845-2.381 0-1.114-.269-1.958-.845-2.534-.576-.576-1.344-.884-2.342-.884-.576 0-1.114.116-1.651.346-.538.23-.96.576-1.268 1.037-.345.461-.499 1.037-.499 1.728 0 .614.115 1.19.384 1.728h-.038zm40.62 8.563v1.344h-8.755v-1.344h8.755zm4.221.999c0-2.535.384-4.532 1.191-5.952.806-1.421 2.227-2.112 4.262-2.112 2.035 0 3.418.691 4.262 2.112.845 1.42 1.229 3.379 1.229 5.952 0 2.572-.422 4.569-1.229 5.952-.806 1.42-2.227 2.112-4.262 2.112-2.035 0-3.456-.692-4.262-2.112-.807-1.421-1.191-3.418-1.191-5.952zm9.331 0c0-1.383-.115-2.535-.307-3.495s-.576-1.689-1.152-2.265c-.576-.538-1.382-.845-2.419-.845-1.037 0-1.882.269-2.458.845-.576.537-.96 1.305-1.152 2.265-.192.96-.307 2.112-.307 3.495 0 1.382.115 2.572.307 3.532s.576 1.69 1.152 2.266c.576.538 1.383.845 2.458.845 1.075 0 1.843-.269 2.419-.845.576-.538.96-1.306 1.152-2.266.192-.96.307-2.112.307-3.532zm4.763 0c0-2.535.384-4.532 1.19-5.952.807-1.421 2.228-2.112 4.263-2.112 2.035 0 3.417.691 4.262 2.112.845 1.42 1.229 3.379 1.229 5.952 0 2.572-.422 4.569-1.229 5.952-.806 1.42-2.227 2.112-4.262 2.112-2.035 0-3.456-.692-4.263-2.112-.806-1.421-1.19-3.418-1.19-5.952zm9.331 0c0-1.383-.115-2.535-.307-3.495s-.576-1.689-1.152-2.265c-.576-.538-1.382-.845-2.419-.845-1.037 0-1.882.269-2.458.845-.576.537-.96 1.305-1.152 2.265-.192.96-.307 2.112-.307 3.495 0 1.382.115 2.572.307 3.532s.576 1.69 1.152 2.266c.576.538 1.383.845 2.458.845 1.075 0 1.843-.269 2.419-.845.576-.538.96-1.306 1.152-2.266.192-.96.307-2.112.307-3.532zm5.611-6.221c.423-.615 1.037-1.114 1.844-1.498.806-.345 1.766-.537 2.88-.537 1.113 0 2.073.192 2.88.537.806.346 1.42.845 1.843 1.498.422.653.614 1.344.614 2.15 0 .883-.269 1.69-.768 2.343-.499.652-1.267 1.113-2.304 1.382 1.075.269 1.959.73 2.573 1.459.614.73.922 1.613.922 2.65 0 1.459-.538 2.611-1.575 3.456-1.037.845-2.457 1.267-4.224 1.267-1.766 0-3.149-.422-4.185-1.267-1.037-.845-1.575-1.997-1.575-3.456 0-1.075.307-1.959.922-2.65.614-.729 1.459-1.19 2.573-1.459-1.037-.269-1.805-.73-2.304-1.382-.5-.653-.768-1.421-.768-2.343 0-.806.192-1.497.614-2.15h.038zm1.652 12.441c.768.615 1.804.922 3.072.922 1.267 0 2.304-.307 3.072-.922.768-.614 1.152-1.459 1.152-2.572 0-1.114-.384-1.959-1.191-2.535-.806-.576-1.805-.845-3.033-.845-1.229 0-2.228.269-3.034.845-.806.576-1.19 1.421-1.19 2.535 0 1.113.384 1.958 1.152 2.572zm.307-7.872c.691.538 1.613.807 2.765.807 1.152 0 2.073-.269 2.764-.807.692-.537.999-1.267.999-2.265 0-.999-.346-1.728-1.037-2.266-.691-.537-1.613-.806-2.765-.806-1.152 0-2.035.269-2.726.806-.691.538-1.037 1.267-1.037 2.266 0 .998.346 1.728.998 2.265h.039zm19.656-4.415c-.576-.576-1.343-.845-2.342-.845-1.382 0-2.419.538-3.149 1.574-.729 1.037-1.075 2.727-1.075 5.031v.998c.192-.998.73-1.766 1.613-2.342.845-.576 1.881-.883 3.033-.883 1.613 0 2.842.46 3.764 1.42.883.96 1.344 2.266 1.344 3.956 0 .96-.192 1.843-.576 2.649-.384.807-.96 1.421-1.767 1.92-.806.461-1.766.73-2.956.73-2.266 0-3.802-.691-4.647-2.112-.845-1.421-1.229-3.341-1.229-5.76 0-2.765.461-4.877 1.344-6.298.883-1.421 2.381-2.15 4.416-2.15 1.46 0 2.573.422 3.379 1.229.807.844 1.306 1.92 1.421 3.264h-1.497c-.116-1.037-.5-1.805-1.037-2.381h-.039zm-5.951 10.675c.307.653.767 1.19 1.382 1.574.614.384 1.421.615 2.381.615 1.152 0 2.073-.346 2.764-1.037.692-.691 1.037-1.651 1.037-2.88 0-1.344-.345-2.342-1.037-3.072-.691-.691-1.651-1.075-2.88-1.075-.691 0-1.343.153-1.958.422a3.52 3.52 0 00-1.536 1.267c-.422.576-.614 1.268-.614 2.074 0 .768.153 1.459.461 2.112zm13.554 1.344v2.035h-2.074v-2.035h2.074zm11.756-12.634l-6.067 14.669h-1.651l6.144-14.515h-8.717v-1.383h10.291v1.229zm3.448.461c.423-.615 1.037-1.114 1.843-1.498.807-.345 1.767-.537 2.88-.537 1.114 0 2.074.192 2.88.537.807.346 1.421.845 1.844 1.498.422.614.614 1.344.614 2.15 0 .883-.269 1.69-.768 2.343-.499.652-1.267 1.113-2.304 1.382 1.075.269 1.958.73 2.573 1.459.614.73.921 1.613.921 2.65 0 1.459-.537 2.611-1.574 3.456-1.037.845-2.458 1.267-4.224 1.267s-3.149-.422-4.186-1.267c-1.036-.845-1.574-1.997-1.574-3.456 0-1.075.307-1.959.922-2.65.614-.729 1.459-1.19 2.572-1.459-1.036-.269-1.804-.73-2.304-1.382-.499-.653-.768-1.421-.768-2.343 0-.806.192-1.497.615-2.15h.038zm1.651 12.441c.768.615 1.805.922 3.072.922 1.268 0 2.304-.307 3.072-.922.768-.614 1.152-1.459 1.152-2.572 0-1.114-.384-1.959-1.19-2.535-.806-.576-1.805-.845-3.034-.845-1.228 0-2.227.269-3.033.845-.807.576-1.191 1.421-1.191 2.535 0 1.113.384 1.958 1.152 2.572zm.308-7.872c.691.538 1.612.807 2.764.807 1.152 0 2.074-.269 2.765-.807.692-.537.999-1.267.999-2.265 0-.999-.346-1.728-1.037-2.266-.691-.537-1.613-.806-2.765-.806-1.152 0-2.035.269-2.726.806-.692.538-1.037 1.267-1.037 2.266 0 .998.345 1.728.998 2.265h.039z" fill="#fff"/></g><g opacity=".5"><g opacity=".8" filter="url(#filter0_d_2682_15399)"><path d="M234.793 449.685c0 2.573-2.074 4.685-4.647 4.685-2.572 0-4.646-2.074-4.646-4.685 0-2.611 2.074-4.685 4.646-4.685 2.573 0 4.647 2.074 4.647 4.685z" fill="#1DFEE9"/></g><g opacity=".8" filter="url(#filter1_d_2682_15399)"><path d="M110.793 624.685c0 2.573-2.074 4.685-4.647 4.685-2.572 0-4.646-2.074-4.646-4.685 0-2.611 2.074-4.685 4.646-4.685 2.573 0 4.647 2.074 4.647 4.685z" fill="#1DFEE9"/></g><g opacity=".8" filter="url(#filter2_d_2682_15399)"><path d="M288.793 284.685c0 2.573-2.074 4.685-4.647 4.685-2.572 0-4.646-2.074-4.646-4.685 0-2.611 2.074-4.685 4.646-4.685 2.573 0 4.647 2.074 4.647 4.685z" fill="#1DFEE9"/></g><g opacity=".8" filter="url(#filter3_d_2682_15399)"><path d="M419.793 121.685c0 2.573-2.074 4.685-4.647 4.685-2.572 0-4.646-2.074-4.646-4.685 0-2.611 2.074-4.685 4.646-4.685 2.573 0 4.647 2.074 4.647 4.685z" fill="url(#paint8_linear_2682_15399)"/><path d="M419.793 121.685c0 2.573-2.074 4.685-4.647 4.685-2.572 0-4.646-2.074-4.646-4.685 0-2.611 2.074-4.685 4.646-4.685 2.573 0 4.647 2.074 4.647 4.685z" fill="#1DFEE9"/></g><g opacity=".8" filter="url(#filter4_d_2682_15399)"><path d="M617.793 440.685c0 2.573-2.074 4.685-4.647 4.685-2.572 0-4.646-2.074-4.646-4.685 0-2.611 2.074-4.685 4.646-4.685 2.573 0 4.647 2.074 4.647 4.685z" fill="#1DFEE9"/></g><g opacity=".8" filter="url(#filter5_d_2682_15399)"><path d="M755.793 592.685c0 2.573-2.074 4.685-4.647 4.685-2.572 0-4.646-2.074-4.646-4.685 0-2.611 2.074-4.685 4.646-4.685 2.573 0 4.647 2.074 4.647 4.685z" fill="#1DFEE9"/></g><path opacity=".8" d="M881.012 471.563c0 2.573-2.074 4.685-4.647 4.685-2.573 0-4.646-2.074-4.646-4.685 0-2.611 2.073-4.685 4.646-4.685s4.647 2.074 4.647 4.685z" fill="url(#paint9_linear_2682_15399)"/><g opacity=".8" filter="url(#filter6_d_2682_15399)"><path d="M1045.79 503.685c0 2.573-2.07 4.685-4.64 4.685-2.58 0-4.65-2.074-4.65-4.685 0-2.611 2.07-4.685 4.65-4.685 2.57 0 4.64 2.074 4.64 4.685z" fill="#1DFEE9"/></g><g opacity=".8" filter="url(#filter7_d_2682_15399)"><path d="M1223.79 768.685c0 2.573-2.07 4.685-4.64 4.685-2.58 0-4.65-2.074-4.65-4.685 0-2.611 2.07-4.685 4.65-4.685 2.57 0 4.64 2.074 4.64 4.685z" fill="#1DFEE9"/></g><g opacity=".8" filter="url(#filter8_d_2682_15399)"><path d="M1122.15 699.293c2.56 0 4.64-2.08 4.64-4.647a4.645 4.645 0 10-9.29 0 4.647 4.647 0 004.65 4.647z" fill="#1DFEE9"/></g><g opacity=".8" filter="url(#filter9_d_2682_15399)"><path d="M1346.15 620.293c2.56 0 4.64-2.08 4.64-4.647a4.645 4.645 0 10-9.29 0 4.647 4.647 0 004.65 4.647z" fill="#1DFEE9"/></g><path opacity=".8" d="M1404.79 443.685c0 2.573-2.07 4.685-4.64 4.685-2.58 0-4.65-2.074-4.65-4.685 0-2.611 2.07-4.685 4.65-4.685 2.57 0 4.64 2.074 4.64 4.685z" fill="url(#paint10_linear_2682_15399)"/><g opacity=".8" filter="url(#filter10_d_2682_15399)"><path d="M1521.79 264.685c0 2.573-2.07 4.685-4.64 4.685-2.58 0-4.65-2.074-4.65-4.685 0-2.611 2.07-4.685 4.65-4.685 2.57 0 4.64 2.074 4.64 4.685z" fill="#1DFEE9"/></g><g opacity=".8" filter="url(#filter11_d_2682_15399)"><path d="M1690.79 373.685c0 2.573-2.07 4.685-4.64 4.685-2.58 0-4.65-2.074-4.65-4.685 0-2.611 2.07-4.685 4.65-4.685 2.57 0 4.64 2.074 4.64 4.685z" fill="#1DFEE9"/></g></g><defs><filter id="filter0_d_2682_15399" x="214.5" y="434" width="33.289" height="33.37" filterUnits="userSpaceOnUse" color-interpolation-filters="sRGB"><feFlood flood-opacity="0" result="BackgroundImageFix"/><feColorMatrix in="SourceAlpha" values="0 0 0 0 0 0 0 0 0 0 0 0 0 0 0 0 0 0 127 0" result="hardAlpha"/><feOffset dx="1" dy="1"/><feGaussianBlur stdDeviation="6"/><feComposite in2="hardAlpha" operator="out"/><feColorMatrix values="0 0 0 0 0.113725 0 0 0 0 0.996078 0 0 0 0 0.913725 0 0 0 1 0"/><feBlend in2="BackgroundImageFix" result="effect1_dropShadow_2682_15399"/><feBlend in="SourceGraphic" in2="effect1_dropShadow_2682_15399" result="shape"/></filter><filter id="filter1_d_2682_15399" x="90.5" y="609" width="33.289" height="33.37" filterUnits="userSpaceOnUse" color-interpolation-filters="sRGB"><feFlood flood-opacity="0" result="BackgroundImageFix"/><feColorMatrix in="SourceAlpha" values="0 0 0 0 0 0 0 0 0 0 0 0 0 0 0 0 0 0 127 0" result="hardAlpha"/><feOffset dx="1" dy="1"/><feGaussianBlur stdDeviation="6"/><feComposite in2="hardAlpha" operator="out"/><feColorMatrix values="0 0 0 0 0.113725 0 0 0 0 0.996078 0 0 0 0 0.913725 0 0 0 1 0"/><feBlend in2="BackgroundImageFix" result="effect1_dropShadow_2682_15399"/><feBlend in="SourceGraphic" in2="effect1_dropShadow_2682_15399" result="shape"/></filter><filter id="filter2_d_2682_15399" x="268.5" y="269" width="33.289" height="33.37" filterUnits="userSpaceOnUse" color-interpolation-filters="sRGB"><feFlood flood-opacity="0" result="BackgroundImageFix"/><feColorMatrix in="SourceAlpha" values="0 0 0 0 0 0 0 0 0 0 0 0 0 0 0 0 0 0 127 0" result="hardAlpha"/><feOffset dx="1" dy="1"/><feGaussianBlur stdDeviation="6"/><feComposite in2="hardAlpha" operator="out"/><feColorMatrix values="0 0 0 0 0.113725 0 0 0 0 0.996078 0 0 0 0 0.913725 0 0 0 1 0"/><feBlend in2="BackgroundImageFix" result="effect1_dropShadow_2682_15399"/><feBlend in="SourceGraphic" in2="effect1_dropShadow_2682_15399" result="shape"/></filter><filter id="filter3_d_2682_15399" x="399.5" y="106" width="33.289" height="33.37" filterUnits="userSpaceOnUse" color-interpolation-filters="sRGB"><feFlood flood-opacity="0" result="BackgroundImageFix"/><feColorMatrix in="SourceAlpha" values="0 0 0 0 0 0 0 0 0 0 0 0 0 0 0 0 0 0 127 0" result="hardAlpha"/><feOffset dx="1" dy="1"/><feGaussianBlur stdDeviation="6"/><feComposite in2="hardAlpha" operator="out"/><feColorMatrix values="0 0 0 0 0.113725 0 0 0 0 0.996078 0 0 0 0 0.913725 0 0 0 1 0"/><feBlend in2="BackgroundImageFix" result="effect1_dropShadow_2682_15399"/><feBlend in="SourceGraphic" in2="effect1_dropShadow_2682_15399" result="shape"/></filter><filter id="filter4_d_2682_15399" x="597.5" y="425" width="33.289" height="33.37" filterUnits="userSpaceOnUse" color-interpolation-filters="sRGB"><feFlood flood-opacity="0" result="BackgroundImageFix"/><feColorMatrix in="SourceAlpha" values="0 0 0 0 0 0 0 0 0 0 0 0 0 0 0 0 0 0 127 0" result="hardAlpha"/><feOffset dx="1" dy="1"/><feGaussianBlur stdDeviation="6"/><feComposite in2="hardAlpha" operator="out"/><feColorMatrix values="0 0 0 0 0.113725 0 0 0 0 0.996078 0 0 0 0 0.913725 0 0 0 1 0"/><feBlend in2="BackgroundImageFix" result="effect1_dropShadow_2682_15399"/><feBlend in="SourceGraphic" in2="effect1_dropShadow_2682_15399" result="shape"/></filter><filter id="filter5_d_2682_15399" x="735.5" y="577" width="33.289" height="33.37" filterUnits="userSpaceOnUse" color-interpolation-filters="sRGB"><feFlood flood-opacity="0" result="BackgroundImageFix"/><feColorMatrix in="SourceAlpha" values="0 0 0 0 0 0 0 0 0 0 0 0 0 0 0 0 0 0 127 0" result="hardAlpha"/><feOffset dx="1" dy="1"/><feGaussianBlur stdDeviation="6"/><feComposite in2="hardAlpha" operator="out"/><feColorMatrix values="0 0 0 0 0.113725 0 0 0 0 0.996078 0 0 0 0 0.913725 0 0 0 1 0"/><feBlend in2="BackgroundImageFix" result="effect1_dropShadow_2682_15399"/><feBlend in="SourceGraphic" in2="effect1_dropShadow_2682_15399" result="shape"/></filter><filter id="filter6_d_2682_15399" x="1025.5" y="488" width="33.289" height="33.37" filterUnits="userSpaceOnUse" color-interpolation-filters="sRGB"><feFlood flood-opacity="0" result="BackgroundImageFix"/><feColorMatrix in="SourceAlpha" values="0 0 0 0 0 0 0 0 0 0 0 0 0 0 0 0 0 0 127 0" result="hardAlpha"/><feOffset dx="1" dy="1"/><feGaussianBlur stdDeviation="6"/><feComposite in2="hardAlpha" operator="out"/><feColorMatrix values="0 0 0 0 0.113725 0 0 0 0 0.996078 0 0 0 0 0.913725 0 0 0 1 0"/><feBlend in2="BackgroundImageFix" result="effect1_dropShadow_2682_15399"/><feBlend in="SourceGraphic" in2="effect1_dropShadow_2682_15399" result="shape"/></filter><filter id="filter7_d_2682_15399" x="1203.5" y="753" width="33.289" height="33.37" filterUnits="userSpaceOnUse" color-interpolation-filters="sRGB"><feFlood flood-opacity="0" result="BackgroundImageFix"/><feColorMatrix in="SourceAlpha" values="0 0 0 0 0 0 0 0 0 0 0 0 0 0 0 0 0 0 127 0" result="hardAlpha"/><feOffset dx="1" dy="1"/><feGaussianBlur stdDeviation="6"/><feComposite in2="hardAlpha" operator="out"/><feColorMatrix values="0 0 0 0 0.113725 0 0 0 0 0.996078 0 0 0 0 0.913725 0 0 0 1 0"/><feBlend in2="BackgroundImageFix" result="effect1_dropShadow_2682_15399"/><feBlend in="SourceGraphic" in2="effect1_dropShadow_2682_15399" result="shape"/></filter><filter id="filter8_d_2682_15399" x="1106.5" y="679" width="33.289" height="33.293" filterUnits="userSpaceOnUse" color-interpolation-filters="sRGB"><feFlood flood-opacity="0" result="BackgroundImageFix"/><feColorMatrix in="SourceAlpha" values="0 0 0 0 0 0 0 0 0 0 0 0 0 0 0 0 0 0 127 0" result="hardAlpha"/><feOffset dx="1" dy="1"/><feGaussianBlur stdDeviation="6"/><feComposite in2="hardAlpha" operator="out"/><feColorMatrix values="0 0 0 0 0.113725 0 0 0 0 0.996078 0 0 0 0 0.913725 0 0 0 1 0"/><feBlend in2="BackgroundImageFix" result="effect1_dropShadow_2682_15399"/><feBlend in="SourceGraphic" in2="effect1_dropShadow_2682_15399" result="shape"/></filter><filter id="filter9_d_2682_15399" x="1330.5" y="600" width="33.289" height="33.293" filterUnits="userSpaceOnUse" color-interpolation-filters="sRGB"><feFlood flood-opacity="0" result="BackgroundImageFix"/><feColorMatrix in="SourceAlpha" values="0 0 0 0 0 0 0 0 0 0 0 0 0 0 0 0 0 0 127 0" result="hardAlpha"/><feOffset dx="1" dy="1"/><feGaussianBlur stdDeviation="6"/><feComposite in2="hardAlpha" operator="out"/><feColorMatrix values="0 0 0 0 0.113725 0 0 0 0 0.996078 0 0 0 0 0.913725 0 0 0 1 0"/><feBlend in2="BackgroundImageFix" result="effect1_dropShadow_2682_15399"/><feBlend in="SourceGraphic" in2="effect1_dropShadow_2682_15399" result="shape"/></filter><filter id="filter10_d_2682_15399" x="1501.5" y="249" width="33.289" height="33.37" filterUnits="userSpaceOnUse" color-interpolation-filters="sRGB"><feFlood flood-opacity="0" result="BackgroundImageFix"/><feColorMatrix in="SourceAlpha" values="0 0 0 0 0 0 0 0 0 0 0 0 0 0 0 0 0 0 127 0" result="hardAlpha"/><feOffset dx="1" dy="1"/><feGaussianBlur stdDeviation="6"/><feComposite in2="hardAlpha" operator="out"/><feColorMatrix values="0 0 0 0 0.113725 0 0 0 0 0.996078 0 0 0 0 0.913725 0 0 0 1 0"/><feBlend in2="BackgroundImageFix" result="effect1_dropShadow_2682_15399"/><feBlend in="SourceGraphic" in2="effect1_dropShadow_2682_15399" result="shape"/></filter><filter id="filter11_d_2682_15399" x="1670.5" y="358" width="33.289" height="33.37" filterUnits="userSpaceOnUse" color-interpolation-filters="sRGB"><feFlood flood-opacity="0" result="BackgroundImageFix"/><feColorMatrix in="SourceAlpha" values="0 0 0 0 0 0 0 0 0 0 0 0 0 0 0 0 0 0 127 0" result="hardAlpha"/><feOffset dx="1" dy="1"/><feGaussianBlur stdDeviation="6"/><feComposite in2="hardAlpha" operator="out"/><feColorMatrix values="0 0 0 0 0.113725 0 0 0 0 0.996078 0 0 0 0 0.913725 0 0 0 1 0"/><feBlend in2="BackgroundImageFix" result="effect1_dropShadow_2682_15399"/><feBlend in="SourceGraphic" in2="effect1_dropShadow_2682_15399" result="shape"/></filter><linearGradient id="paint0_linear_2682_15399" x1="617.535" y1="55.334" x2="399.5" y2="55.334" gradientUnits="userSpaceOnUse"><stop stop-color="#fff"/><stop offset="1" stop-color="#fff"/></linearGradient><linearGradient id="paint1_linear_2682_15399" x1="508.357" y1="0" x2="464.082" y2="132.317" gradientUnits="userSpaceOnUse"><stop stop-color="#FFC400"/><stop offset="1" stop-color="#F30"/></linearGradient><linearGradient id="paint2_linear_2682_15399" x1="1721.57" y1="181.373" x2="1503.5" y2="181.373" gradientUnits="userSpaceOnUse"><stop stop-color="#fff"/><stop offset="1" stop-color="#fff"/></linearGradient><linearGradient id="paint3_linear_2682_15399" x1="1612.67" y1="126" x2="1656.98" y2="258.354" gradientUnits="userSpaceOnUse"><stop stop-color="#FFC400"/><stop offset="1" stop-color="#F30"/></linearGradient><linearGradient id="paint4_linear_2682_15399" x1="1551.57" y1="680.373" x2="1333.54" y2="680.373" gradientUnits="userSpaceOnUse"><stop stop-color="#fff"/><stop offset="1" stop-color="#fff"/></linearGradient><linearGradient id="paint5_linear_2682_15399" x1="1442.38" y1="735.707" x2="1398.11" y2="603.385" gradientUnits="userSpaceOnUse"><stop stop-color="#FFC400"/><stop offset="1" stop-color="#F30"/></linearGradient><linearGradient id="paint6_linear_2682_15399" x1="550.5" y1="665.373" x2="768.535" y2="665.373" gradientUnits="userSpaceOnUse"><stop stop-color="#fff"/><stop offset="1" stop-color="#fff"/></linearGradient><linearGradient id="paint7_linear_2682_15399" x1="659.357" y1="610" x2="615.054" y2="742.354" gradientUnits="userSpaceOnUse"><stop stop-color="#FFC400"/><stop offset="1" stop-color="#F30"/></linearGradient><linearGradient id="paint8_linear_2682_15399" x1="410.5" y1="121.685" x2="419.793" y2="121.685" gradientUnits="userSpaceOnUse"><stop offset=".13" stop-color="#FBFDFD"/><stop offset="1" stop-color="#fff"/></linearGradient><linearGradient id="paint9_linear_2682_15399" x1="871.68" y1="471.563" x2="881.012" y2="471.563" gradientUnits="userSpaceOnUse"><stop offset=".13" stop-color="#FBFDFD"/><stop offset="1" stop-color="#fff"/></linearGradient><linearGradient id="paint10_linear_2682_15399" x1="1395.46" y1="443.685" x2="1404.79" y2="443.685" gradientUnits="userSpaceOnUse"><stop offset=".13" stop-color="#FBFDFD"/><stop offset="1" stop-color="#fff"/></linearGradient></defs></svg>