<svg width="20" height="17" fill="none" xmlns="http://www.w3.org/2000/svg"><path d="M4.54 11.829c2.894-.56 5.629-1.09 7.517 1.104 1.93 2.242 4.95.952 7.614-.184l.329-.14v.462c-.224.1-.45.2-.678.303-2.63 1.178-5.35 2.397-6.966.247-1.046-1.389-2.39-1.816-3.892-1.816-1.169 0-2.434.259-3.731.523-1.592.325-3.219.655-4.733.501v-.523c1.454.119 3.013-.182 4.54-.477z" fill="url(#paint0_linear_83_220)"/><path d="M5.827 15.67c2.82-.688 5.267-1.284 6.487 1.33h-.202c-.643-.973-1.543-1.302-2.613-1.302-1.021 0-2.196.298-3.443.614A26.41 26.41 0 012.752 17H.211c-.07-.01-.14-.022-.211-.034v-.663c1.97.31 3.986-.183 5.827-.632z" fill="url(#paint1_linear_83_220)"/><path d="M11.696 7.837c2.683 1.394 5.793.749 8.304.039v.33c-2.54.795-5.539 1.565-8.002.094-1.491-.89-3.122-1.163-4.755-1.163-1.346.03-2.688.154-4.013.368-1.066.177-2.146.28-3.23.31v-.362a26.574 26.574 0 003.05-.28c2.77-.354 5.911-.757 8.646.664z" fill="url(#paint2_linear_83_220)"/><path d="M11.589 6.14c2.877 1.109 5.912.667 8.411.097v.294c-2.45.633-5.466 1.192-8.135-.007-1.625-.73-3.355-.952-5.032-.952a34.966 34.966 0 00-4.094.311c-.908.123-1.822.203-2.739.24V5.82c.756-.022 1.612-.112 2.554-.212 2.675-.284 6.003-.637 9.035.532z" fill="url(#paint3_linear_83_220)"/><path d="M4.04 10.284c2.813-.484 5.722-.984 7.89.948 2.257 2.013 5.333.877 8.07-.174v.414l-.233.095c-2.743 1.112-5.579 2.261-7.523.284-1.201-1.221-2.656-1.594-4.207-1.594-1.237 0-2.535.237-3.813.47-1.486.272-2.92.534-4.224.444v-.473c1.253.063 2.622-.17 4.04-.414z" fill="url(#paint4_linear_83_220)"/><path d="M11.954 17h-.464a2.892 2.892 0 00-1.79-.517c-.882-.001-1.89.238-2.962.517H3.622c.845-.15 1.673-.36 2.468-.562 2.56-.65 4.659-1.18 5.864.562z" fill="url(#paint5_linear_83_220)"/><path d="M4.288 11.057c2.791-.51 5.677-1.037 7.704 1.025 2.11 2.145 5.19.896 7.909-.206l.099-.04v.438l-.457.194c-2.687 1.147-5.465 2.333-7.242.269-1.123-1.303-2.54-1.7-4.071-1.7-1.21 0-2.491.247-3.753.491-1.511.293-3.055.59-4.477.468v-.495c1.367.09 2.842-.18 4.288-.444z" fill="url(#paint6_linear_83_220)"/><path d="M3.791 9.51c2.837-.458 5.77-.93 8.077.873 2.372 1.853 5.52.832 8.132-.11v.393l-.008.003c-2.667 1.023-5.689 2.184-7.807.295-1.277-1.139-2.768-1.488-4.338-1.488-1.264 0-2.579.226-3.874.449-1.4.241-2.754.471-3.973.407v-.443c1.171.041 2.46-.165 3.791-.38z" fill="url(#paint7_linear_83_220)"/><path d="M5.305 14.136c2.945-.661 5.488-1.232 6.957 1.356 1.423 2.506 4.12 1.18 6.727-.104.336-.165.674-.33 1.011-.49v.544a56.66 56.66 0 00-1.328.668c-.62.32-1.229.63-1.812.89H13a2.992 2.992 0 01-.49-.732c-.794-1.628-2.017-2.122-3.452-2.122-1.089 0-2.299.284-3.54.575-1.754.411-3.674.86-5.518.592v-.606c1.768.224 3.614-.19 5.305-.57z" fill="url(#paint8_linear_83_220)"/><path d="M3.544 8.733c2.86-.43 5.817-.874 8.265.801 2.483 1.7 5.582.824 8.191-.052v.37c-2.661.963-5.637 1.974-7.875.224-1.347-1.052-2.91-1.372-4.507-1.372-1.308 0-2.638.214-3.894.416-1.315.212-2.587.415-3.724.373v-.416c1.092.023 2.299-.158 3.544-.344z" fill="url(#paint9_linear_83_220)"/><path d="M5.047 13.368c2.847-.61 5.536-1.187 7.145 1.27 1.587 2.421 4.35 1.122 7.023-.134.26-.122.523-.245.785-.365v.516c-.372.174-.744.357-1.114.54-2.627 1.291-5.109 2.513-6.426.192-.88-1.549-2.143-2.022-3.602-2.022-1.115 0-2.344.276-3.604.56-1.753.393-3.546.795-5.254.568v-.581c1.638.185 3.362-.182 5.047-.544z" fill="url(#paint10_linear_83_220)"/><path d="M3.297 7.954c2.749-.382 5.864-.816 8.455.731 2.592 1.55 5.647.805 8.248-.002v.35c-2.543.86-5.588 1.764-7.938.156-1.419-.972-3.016-1.268-4.631-1.268-1.336 0-2.683.202-3.954.393-1.23.184-2.42.363-3.477.34v-.391a23.8 23.8 0 003.297-.309z" fill="url(#paint11_linear_83_220)"/><path d="M5.565 14.904c2.919-.685 5.44-1.277 6.768 1.444.11.23.248.449.41.652h-.25c-.714-1.588-1.831-2.085-3.195-2.085-1.049 0-2.243.292-3.512.601-1.83.448-3.837.938-5.786.625v-.636c1.868.265 3.799-.187 5.565-.6z" fill="url(#paint12_linear_83_220)"/><path d="M4.792 12.599c2.87-.586 5.582-1.14 7.332 1.185 1.756 2.334 4.584 1.066 7.318-.16l.558-.248v.49c-.3.135-.6.276-.897.416-2.69 1.264-5.23 2.458-6.695.223-.963-1.47-2.266-1.92-3.748-1.92-1.142 0-2.39.268-3.668.542-1.672.358-3.383.723-4.992.535v-.553c1.545.15 3.186-.182 4.792-.51z" fill="url(#paint13_linear_83_220)"/><path d="M11.642 6.989c2.782 1.249 5.852.712 8.358.072v.312c-2.533.727-5.494 1.376-8.067.04C10.37 6.6 8.706 6.351 7.056 6.351a32.13 32.13 0 00-4.071.343C1.998 6.843 1 6.935 0 6.97v-.336a29.798 29.798 0 002.803-.243c2.792-.327 5.957-.698 8.839.598z" fill="url(#paint14_linear_83_220)"/><path d="M11.242.182c2.915.179 5.84.201 8.758.067v.158c-2.874.21-5.765.181-8.633-.085a59.527 59.527 0 00-5.92-.275C3.74.047 2.222.104 1.005.15.667.163.326.176 0 .186V.091L.774.07c3.489-.123 6.983-.086 10.468.111z" fill="url(#paint15_linear_83_220)"/><path d="M20 17h-1.145c.381-.204.764-.405 1.145-.595V17z" fill="url(#paint16_linear_83_220)"/><path d="M11.29 1.035c2.894.27 5.81.3 8.71.09v.18c-2.356.219-5.361.346-8.56-.099a42.007 42.007 0 00-5.771-.37c-1.646 0-3.143.075-4.414.138C.822.994.397 1.016 0 1.03V.904C.309.894.65.88 1.033.867 3.52.773 7.278.632 11.29 1.035z" fill="url(#paint17_linear_83_220)"/><path d="M11.537 5.29c2.946.964 6.025.599 8.463.115v.276c-2.447.565-5.43 1.025-8.204-.044-1.693-.653-3.456-.853-5.15-.853a38.97 38.97 0 00-4.153.285c-.903.096-1.75.185-2.493.206v-.277c.687-.024 1.46-.097 2.305-.177 2.694-.256 6.046-.574 9.232.469z" fill="url(#paint18_linear_83_220)"/><path d="M11.338 1.887c3.244.451 6.279.328 8.662.11v.199c-2.355.278-5.377.457-8.488-.105a31.853 31.853 0 00-5.653-.463c-1.613 0-3.095.091-4.356.168-.531.032-1.04.063-1.503.083v-.16c.38-.014.807-.034 1.29-.058 2.621-.13 6.21-.307 10.048.226z" fill="url(#paint19_linear_83_220)"/><path d="M11.326 17H7.143c1.703-.43 3.155-.686 4.183 0z" fill="url(#paint20_linear_83_220)"/><path d="M17.317 17c.471-.222.955-.47 1.446-.723.411-.211.824-.424 1.237-.624v.573c-.495.244-.992.51-1.485.774h-1.198z" fill="url(#paint21_linear_83_220)"/><path d="M11.486 4.44c3.033.832 6.08.541 8.514.124v.258c-2.388.48-5.42.862-8.274-.072a16.831 16.831 0 00-5.267-.755 43.916 43.916 0 00-4.212.258c-.811.077-1.574.15-2.247.173V4.18c.606-.025 1.291-.082 2.054-.145 2.713-.228 6.09-.511 9.432.406z" fill="url(#paint22_linear_83_220)"/><path d="M11.387 2.738c3.166.573 6.223.4 8.613.121v.221c-2.387.35-5.369.584-8.416-.103a25.18 25.18 0 00-5.535-.557c-1.582 0-3.049.106-4.297.196A60.49 60.49 0 010 2.727V2.54c.462-.02.976-.05 1.546-.086 2.605-.16 6.172-.377 9.84.285z" fill="url(#paint23_linear_83_220)"/><path d="M11.437 3.59c3.085.695 6.17.466 8.563.125v.24c-2.389.415-5.392.718-8.345-.092a20.25 20.25 0 00-5.384-.657c-1.527 0-2.973.121-4.271.23-.718.06-1.397.117-2 .141v-.22a62.534 62.534 0 001.801-.113c2.588-.188 6.132-.445 9.636.345z" fill="url(#paint24_linear_83_220)"/><defs><linearGradient id="paint0_linear_83_220" x1="0" y1="14.316" x2="20.145" y2="14.108" gradientUnits="userSpaceOnUse"><stop stop-color="#3F6ADA"/><stop offset=".206" stop-color="#2A2F96"/><stop offset=".429" stop-color="#6381CE"/><stop offset=".62" stop-color="#5E7DCE"/><stop offset=".823" stop-color="#586C9E"/><stop offset="1" stop-color="#382EB1"/></linearGradient><linearGradient id="paint1_linear_83_220" x1="0" y1="14.316" x2="20.145" y2="14.108" gradientUnits="userSpaceOnUse"><stop stop-color="#3F6ADA"/><stop offset=".206" stop-color="#2A2F96"/><stop offset=".429" stop-color="#6381CE"/><stop offset=".62" stop-color="#5E7DCE"/><stop offset=".823" stop-color="#586C9E"/><stop offset="1" stop-color="#382EB1"/></linearGradient><linearGradient id="paint2_linear_83_220" x1="0" y1="14.316" x2="20.145" y2="14.108" gradientUnits="userSpaceOnUse"><stop stop-color="#3F6ADA"/><stop offset=".206" stop-color="#2A2F96"/><stop offset=".429" stop-color="#6381CE"/><stop offset=".62" stop-color="#5E7DCE"/><stop offset=".823" stop-color="#586C9E"/><stop offset="1" stop-color="#382EB1"/></linearGradient><linearGradient id="paint3_linear_83_220" x1="0" y1="14.316" x2="20.145" y2="14.108" gradientUnits="userSpaceOnUse"><stop stop-color="#3F6ADA"/><stop offset=".206" stop-color="#2A2F96"/><stop offset=".429" stop-color="#6381CE"/><stop offset=".62" stop-color="#5E7DCE"/><stop offset=".823" stop-color="#586C9E"/><stop offset="1" stop-color="#382EB1"/></linearGradient><linearGradient id="paint4_linear_83_220" x1="0" y1="14.316" x2="20.145" y2="14.108" gradientUnits="userSpaceOnUse"><stop stop-color="#3F6ADA"/><stop offset=".206" stop-color="#2A2F96"/><stop offset=".429" stop-color="#6381CE"/><stop offset=".62" stop-color="#5E7DCE"/><stop offset=".823" stop-color="#586C9E"/><stop offset="1" stop-color="#382EB1"/></linearGradient><linearGradient id="paint5_linear_83_220" x1="0" y1="14.316" x2="20.145" y2="14.108" gradientUnits="userSpaceOnUse"><stop stop-color="#3F6ADA"/><stop offset=".206" stop-color="#2A2F96"/><stop offset=".429" stop-color="#6381CE"/><stop offset=".62" stop-color="#5E7DCE"/><stop offset=".823" stop-color="#586C9E"/><stop offset="1" stop-color="#382EB1"/></linearGradient><linearGradient id="paint6_linear_83_220" x1="0" y1="14.316" x2="20.145" y2="14.108" gradientUnits="userSpaceOnUse"><stop stop-color="#3F6ADA"/><stop offset=".206" stop-color="#2A2F96"/><stop offset=".429" stop-color="#6381CE"/><stop offset=".62" stop-color="#5E7DCE"/><stop offset=".823" stop-color="#586C9E"/><stop offset="1" stop-color="#382EB1"/></linearGradient><linearGradient id="paint7_linear_83_220" x1="0" y1="14.316" x2="20.145" y2="14.108" gradientUnits="userSpaceOnUse"><stop stop-color="#3F6ADA"/><stop offset=".206" stop-color="#2A2F96"/><stop offset=".429" stop-color="#6381CE"/><stop offset=".62" stop-color="#5E7DCE"/><stop offset=".823" stop-color="#586C9E"/><stop offset="1" stop-color="#382EB1"/></linearGradient><linearGradient id="paint8_linear_83_220" x1="0" y1="14.316" x2="20.145" y2="14.108" gradientUnits="userSpaceOnUse"><stop stop-color="#3F6ADA"/><stop offset=".206" stop-color="#2A2F96"/><stop offset=".429" stop-color="#6381CE"/><stop offset=".62" stop-color="#5E7DCE"/><stop offset=".823" stop-color="#586C9E"/><stop offset="1" stop-color="#382EB1"/></linearGradient><linearGradient id="paint9_linear_83_220" x1="0" y1="14.316" x2="20.145" y2="14.108" gradientUnits="userSpaceOnUse"><stop stop-color="#3F6ADA"/><stop offset=".206" stop-color="#2A2F96"/><stop offset=".429" stop-color="#6381CE"/><stop offset=".62" stop-color="#5E7DCE"/><stop offset=".823" stop-color="#586C9E"/><stop offset="1" stop-color="#382EB1"/></linearGradient><linearGradient id="paint10_linear_83_220" x1="0" y1="14.316" x2="20.145" y2="14.108" gradientUnits="userSpaceOnUse"><stop stop-color="#3F6ADA"/><stop offset=".206" stop-color="#2A2F96"/><stop offset=".429" stop-color="#6381CE"/><stop offset=".62" stop-color="#5E7DCE"/><stop offset=".823" stop-color="#586C9E"/><stop offset="1" stop-color="#382EB1"/></linearGradient><linearGradient id="paint11_linear_83_220" x1="0" y1="14.316" x2="20.145" y2="14.108" gradientUnits="userSpaceOnUse"><stop stop-color="#3F6ADA"/><stop offset=".206" stop-color="#2A2F96"/><stop offset=".429" stop-color="#6381CE"/><stop offset=".62" stop-color="#5E7DCE"/><stop offset=".823" stop-color="#586C9E"/><stop offset="1" stop-color="#382EB1"/></linearGradient><linearGradient id="paint12_linear_83_220" x1="0" y1="14.316" x2="20.145" y2="14.108" gradientUnits="userSpaceOnUse"><stop stop-color="#3F6ADA"/><stop offset=".206" stop-color="#2A2F96"/><stop offset=".429" stop-color="#6381CE"/><stop offset=".62" stop-color="#5E7DCE"/><stop offset=".823" stop-color="#586C9E"/><stop offset="1" stop-color="#382EB1"/></linearGradient><linearGradient id="paint13_linear_83_220" x1="0" y1="14.316" x2="20.145" y2="14.108" gradientUnits="userSpaceOnUse"><stop stop-color="#3F6ADA"/><stop offset=".206" stop-color="#2A2F96"/><stop offset=".429" stop-color="#6381CE"/><stop offset=".62" stop-color="#5E7DCE"/><stop offset=".823" stop-color="#586C9E"/><stop offset="1" stop-color="#382EB1"/></linearGradient><linearGradient id="paint14_linear_83_220" x1="0" y1="14.316" x2="20.145" y2="14.108" gradientUnits="userSpaceOnUse"><stop stop-color="#3F6ADA"/><stop offset=".206" stop-color="#2A2F96"/><stop offset=".429" stop-color="#6381CE"/><stop offset=".62" stop-color="#5E7DCE"/><stop offset=".823" stop-color="#586C9E"/><stop offset="1" stop-color="#382EB1"/></linearGradient><linearGradient id="paint15_linear_83_220" x1="0" y1="14.316" x2="20.145" y2="14.108" gradientUnits="userSpaceOnUse"><stop stop-color="#3F6ADA"/><stop offset=".206" stop-color="#2A2F96"/><stop offset=".429" stop-color="#6381CE"/><stop offset=".62" stop-color="#5E7DCE"/><stop offset=".823" stop-color="#586C9E"/><stop offset="1" stop-color="#382EB1"/></linearGradient><linearGradient id="paint16_linear_83_220" x1="0" y1="14.316" x2="20.145" y2="14.108" gradientUnits="userSpaceOnUse"><stop stop-color="#3F6ADA"/><stop offset=".206" stop-color="#2A2F96"/><stop offset=".429" stop-color="#6381CE"/><stop offset=".62" stop-color="#5E7DCE"/><stop offset=".823" stop-color="#586C9E"/><stop offset="1" stop-color="#382EB1"/></linearGradient><linearGradient id="paint17_linear_83_220" x1="0" y1="14.316" x2="20.145" y2="14.108" gradientUnits="userSpaceOnUse"><stop stop-color="#3F6ADA"/><stop offset=".206" stop-color="#2A2F96"/><stop offset=".429" stop-color="#6381CE"/><stop offset=".62" stop-color="#5E7DCE"/><stop offset=".823" stop-color="#586C9E"/><stop offset="1" stop-color="#382EB1"/></linearGradient><linearGradient id="paint18_linear_83_220" x1="0" y1="14.316" x2="20.145" y2="14.108" gradientUnits="userSpaceOnUse"><stop stop-color="#3F6ADA"/><stop offset=".206" stop-color="#2A2F96"/><stop offset=".429" stop-color="#6381CE"/><stop offset=".62" stop-color="#5E7DCE"/><stop offset=".823" stop-color="#586C9E"/><stop offset="1" stop-color="#382EB1"/></linearGradient><linearGradient id="paint19_linear_83_220" x1="0" y1="14.316" x2="20.145" y2="14.108" gradientUnits="userSpaceOnUse"><stop stop-color="#3F6ADA"/><stop offset=".206" stop-color="#2A2F96"/><stop offset=".429" stop-color="#6381CE"/><stop offset=".62" stop-color="#5E7DCE"/><stop offset=".823" stop-color="#586C9E"/><stop offset="1" stop-color="#382EB1"/></linearGradient><linearGradient id="paint20_linear_83_220" x1="0" y1="14.316" x2="20.145" y2="14.108" gradientUnits="userSpaceOnUse"><stop stop-color="#3F6ADA"/><stop offset=".206" stop-color="#2A2F96"/><stop offset=".429" stop-color="#6381CE"/><stop offset=".62" stop-color="#5E7DCE"/><stop offset=".823" stop-color="#586C9E"/><stop offset="1" stop-color="#382EB1"/></linearGradient><linearGradient id="paint21_linear_83_220" x1="0" y1="14.316" x2="20.145" y2="14.108" gradientUnits="userSpaceOnUse"><stop stop-color="#3F6ADA"/><stop offset=".206" stop-color="#2A2F96"/><stop offset=".429" stop-color="#6381CE"/><stop offset=".62" stop-color="#5E7DCE"/><stop offset=".823" stop-color="#586C9E"/><stop offset="1" stop-color="#382EB1"/></linearGradient><linearGradient id="paint22_linear_83_220" x1="0" y1="14.316" x2="20.145" y2="14.108" gradientUnits="userSpaceOnUse"><stop stop-color="#3F6ADA"/><stop offset=".206" stop-color="#2A2F96"/><stop offset=".429" stop-color="#6381CE"/><stop offset=".62" stop-color="#5E7DCE"/><stop offset=".823" stop-color="#586C9E"/><stop offset="1" stop-color="#382EB1"/></linearGradient><linearGradient id="paint23_linear_83_220" x1="0" y1="14.316" x2="20.145" y2="14.108" gradientUnits="userSpaceOnUse"><stop stop-color="#3F6ADA"/><stop offset=".206" stop-color="#2A2F96"/><stop offset=".429" stop-color="#6381CE"/><stop offset=".62" stop-color="#5E7DCE"/><stop offset=".823" stop-color="#586C9E"/><stop offset="1" stop-color="#382EB1"/></linearGradient><linearGradient id="paint24_linear_83_220" x1="0" y1="14.316" x2="20.145" y2="14.108" gradientUnits="userSpaceOnUse"><stop stop-color="#3F6ADA"/><stop offset=".206" stop-color="#2A2F96"/><stop offset=".429" stop-color="#6381CE"/><stop offset=".62" stop-color="#5E7DCE"/><stop offset=".823" stop-color="#586C9E"/><stop offset="1" stop-color="#382EB1"/></linearGradient></defs></svg>