<svg width="144" height="34" fill="none" xmlns="http://www.w3.org/2000/svg"><path d="M9.079 23.658c5.789-1.121 11.258-2.18 15.035 2.207 3.861 4.484 9.9 1.906 15.228-.368l.658-.28v.925c-.449.199-.901.4-1.356.605-5.26 2.358-10.698 4.796-13.933.495-2.092-2.777-4.778-3.632-7.783-3.632-2.338 0-4.868.517-7.462 1.047-3.184.649-6.437 1.308-9.466 1.001v-1.046c2.909.237 6.026-.364 9.079-.954z" fill="url(#paint0_linear_57_121)"/><path d="M11.653 31.342c5.643-1.379 10.534-2.57 12.975 2.658h-.404c-1.285-1.945-3.087-2.604-5.225-2.604-2.043 0-4.392.596-6.887 1.228A52.856 52.856 0 015.505 34H.422A12.75 12.75 0 010 33.932v-1.325c3.94.618 7.972-.366 11.653-1.265z" fill="url(#paint1_linear_57_121)"/><path d="M23.392 15.675c5.365 2.787 11.586 1.496 16.608.076v.663c-5.08 1.589-11.078 3.128-16.004.187-2.982-1.781-6.243-2.327-9.51-2.327a58.682 58.682 0 00-8.025.737A47.23 47.23 0 010 15.629v-.723a53.157 53.157 0 006.1-.56c5.542-.709 11.822-1.513 17.292 1.329z" fill="url(#paint2_linear_57_121)"/><path d="M23.178 12.279c5.754 2.218 11.825 1.335 16.822.196v.587c-4.899 1.266-10.932 2.383-16.27-.013-3.25-1.46-6.71-1.905-10.063-1.905a69.925 69.925 0 00-8.189.622 59.02 59.02 0 01-5.478.48v-.608c1.512-.043 3.225-.224 5.109-.424 5.348-.568 12.005-1.273 18.069 1.065z" fill="url(#paint3_linear_57_121)"/><path d="M8.078 20.569c5.628-.969 11.446-1.969 15.78 1.895 4.516 4.026 10.668 1.753 16.142-.348v.829l-.467.188c-5.486 2.225-11.157 4.523-15.046.568-2.4-2.441-5.31-3.188-8.412-3.188-2.475 0-5.07.474-7.627.942-2.972.544-5.84 1.067-8.448.887v-.946c2.506.126 5.244-.34 8.078-.828z" fill="url(#paint4_linear_57_121)"/><path d="M23.908 34h-.929c-1.01-.72-2.282-1.088-3.578-1.035-1.765 0-3.782.477-5.925 1.035H7.245c1.689-.302 3.344-.72 4.935-1.125 5.121-1.298 9.317-2.358 11.728 1.125z" fill="url(#paint5_linear_57_121)"/><path d="M8.577 22.114c5.581-1.02 11.352-2.074 15.408 2.05 4.218 4.29 10.379 1.792 15.816-.411L40 23.67v.878l-.914.387c-5.373 2.294-10.93 4.666-14.485.538-2.244-2.607-5.08-3.401-8.141-3.401-2.421 0-4.982.496-7.506.984-3.022.585-6.11 1.177-8.954.936V23c2.733.18 5.685-.358 8.577-.887z" fill="url(#paint6_linear_57_121)"/><path d="M7.582 19.019c5.673-.914 11.54-1.86 16.154 1.747 4.743 3.706 11.04 1.664 16.264-.22v.785l-.017.006c-5.333 2.047-11.376 4.37-15.612.59-2.554-2.276-5.538-2.974-8.678-2.974-2.528 0-5.157.451-7.747.896-2.801.483-5.507.944-7.946.814v-.884c2.342.081 4.92-.331 7.582-.76z" fill="url(#paint7_linear_57_121)"/><path d="M10.61 28.272c5.89-1.323 10.976-2.465 13.915 2.713 2.844 5.01 8.238 2.358 13.453-.209.672-.33 1.347-.661 2.022-.98v1.089c-.886.426-1.775.882-2.657 1.335-1.24.638-2.457 1.261-3.624 1.78H26a5.983 5.983 0 01-.98-1.465c-1.588-3.254-4.034-4.243-6.905-4.243-2.176 0-4.597.568-7.078 1.15-3.51.822-7.35 1.721-11.037 1.184v-1.212c3.537.447 7.228-.382 10.61-1.142z" fill="url(#paint8_linear_57_121)"/><path d="M7.088 17.466c5.72-.859 11.634-1.747 16.53 1.602 4.967 3.399 11.164 1.648 16.382-.105v.742c-5.322 1.925-11.274 3.947-15.75.447-2.695-2.105-5.82-2.744-9.014-2.744-2.615 0-5.276.428-7.788.832-2.63.424-5.174.83-7.448.746v-.832c2.183.046 4.597-.315 7.088-.688z" fill="url(#paint9_linear_57_121)"/><path d="M10.095 26.736c5.692-1.22 11.07-2.373 14.29 2.539 3.173 4.843 8.7 2.245 14.044-.266.522-.245 1.047-.492 1.57-.732v1.032c-.742.349-1.487.715-2.227 1.08-5.254 2.584-10.218 5.026-12.851.385-1.76-3.098-4.286-4.044-7.204-4.044-2.23-.001-4.69.552-7.21 1.118C7.003 28.636 3.416 29.44 0 28.987v-1.163c3.276.37 6.723-.365 10.095-1.088z" fill="url(#paint10_linear_57_121)"/><path d="M6.594 15.909c5.497-.765 11.728-1.632 16.91 1.462 5.183 3.098 11.293 1.61 16.496-.005v.7c-5.086 1.72-11.175 3.527-15.875.311-2.839-1.942-6.033-2.535-9.264-2.535-2.67 0-5.365.404-7.908.786-2.457.368-4.838.727-6.953.68v-.782a47.599 47.599 0 006.594-.617z" fill="url(#paint11_linear_57_121)"/><path d="M11.13 29.808c5.838-1.37 10.881-2.553 13.537 2.889.22.46.495.896.82 1.303h-.5c-1.429-3.177-3.663-4.17-6.391-4.17-2.097 0-4.486.583-7.024 1.203-3.662.895-7.675 1.874-11.572 1.25V31.01c3.736.53 7.597-.374 11.13-1.202z" fill="url(#paint12_linear_57_121)"/><path d="M9.585 25.198c5.74-1.172 11.164-2.28 14.662 2.37 3.513 4.668 9.168 2.133 14.638-.32L40 26.753v.978c-.599.272-1.199.553-1.794.834-5.38 2.528-10.46 4.916-13.39.446-1.926-2.94-4.533-3.84-7.495-3.84-2.285 0-4.78.535-7.337 1.083C6.64 26.97 3.22 27.701 0 27.323V26.22c3.09.298 6.372-.365 9.585-1.021z" fill="url(#paint13_linear_57_121)"/><path d="M23.283 13.977c5.564 2.498 11.704 1.424 16.717.144v.625c-5.065 1.453-10.988 2.753-16.135.079-3.123-1.623-6.452-2.121-9.752-2.121-2.73.056-5.451.285-8.144.687-1.974.296-3.968.48-5.969.55v-.672a59.583 59.583 0 005.606-.487c5.584-.654 11.913-1.395 17.677 1.195z" fill="url(#paint14_linear_57_121)"/><path d="M22.483.365c5.83.357 11.68.401 17.517.133v.315c-5.749.42-11.53.363-17.267-.17a119.05 119.05 0 00-11.84-.55C7.482.094 4.443.209 2.01.3 1.333.325.652.351 0 .372v-.19l1.548-.04a227.345 227.345 0 0120.935.222z" fill="url(#paint15_linear_57_121)"/><path d="M40 34h-2.29c.761-.408 1.526-.81 2.289-1.19V34z" fill="url(#paint16_linear_57_121)"/><path d="M22.58 2.07c5.788.539 11.62.6 17.42.18v.36c-4.711.438-10.722.691-17.12-.198a84.011 84.011 0 00-11.543-.74c-3.29 0-6.284.15-8.828.276-.865.041-1.715.083-2.509.114v-.255c.618-.02 1.301-.044 2.067-.074 4.973-.187 12.49-.47 20.512.337z" fill="url(#paint17_linear_57_121)"/><path d="M23.075 10.58c5.89 1.929 12.049 1.197 16.925.23v.552c-4.893 1.13-10.861 2.05-16.407-.088-3.387-1.306-6.914-1.705-10.3-1.705a77.93 77.93 0 00-8.307.569c-1.807.192-3.5.37-4.986.412v-.554c1.373-.048 2.918-.193 4.609-.355 5.388-.51 12.094-1.148 18.466.939z" fill="url(#paint18_linear_57_121)"/><path d="M22.676 3.774c6.488.902 12.557.656 17.324.22v.397c-4.71.557-10.754.914-16.975-.209a63.705 63.705 0 00-11.307-.925c-3.227 0-6.19.181-8.711.335-1.064.064-2.082.127-3.007.166v-.32c.762-.028 1.614-.069 2.582-.117 5.24-.26 12.42-.613 20.094.453z" fill="url(#paint19_linear_57_121)"/><path d="M22.651 34h-8.365c3.406-.861 6.31-1.372 8.365 0z" fill="url(#paint20_linear_57_121)"/><path d="M34.633 34a95.29 95.29 0 002.893-1.446c.823-.423 1.649-.848 2.474-1.248v1.146A95.629 95.629 0 0037.03 34h-2.397z" fill="url(#paint21_linear_57_121)"/><path d="M22.972 8.88c6.066 1.664 12.161 1.083 17.028.248v.516c-4.776.962-10.839 1.724-16.547-.144a33.661 33.661 0 00-10.535-1.51c-2.816.038-5.629.21-8.424.517-1.622.154-3.148.298-4.494.346v-.495c1.212-.05 2.582-.164 4.107-.29 5.426-.457 12.18-1.022 18.865.812z" fill="url(#paint22_linear_57_121)"/><path d="M22.774 5.477c6.333 1.144 12.447.8 17.226.241v.442c-4.774.701-10.738 1.168-16.832-.207a50.36 50.36 0 00-11.07-1.113c-3.164 0-6.097.212-8.594.393-1.25.09-2.437.176-3.504.221v-.376c.923-.04 1.952-.101 3.093-.172 5.209-.319 12.343-.754 19.68.57z" fill="url(#paint23_linear_57_121)"/><path d="M22.874 7.179c6.17 1.392 12.341.934 17.126.251v.478c-4.778.832-10.783 1.438-16.689-.182a40.503 40.503 0 00-10.77-1.314c-3.053 0-5.946.242-8.541.459-1.436.12-2.794.234-4 .283v-.438c1.075-.046 2.277-.132 3.602-.228 5.175-.376 12.263-.89 19.272.691z" fill="url(#paint24_linear_57_121)"/><path d="M55.27 24.54c1.68 0 3.15-.66 4.2-1.68h3.9c-1.41 2.7-4.5 4.59-8.1 4.59-4.92 0-8.91-3.54-8.91-7.89 0-4.38 3.99-7.92 8.91-7.92 3.6 0 6.69 1.89 8.1 4.59h-3.9a5.99 5.99 0 00-4.2-1.68c-3.09 0-5.61 2.25-5.61 5.01 0 2.73 2.52 4.98 5.61 4.98zm18.267-12.9c3.9 0 7.08 3.18 7.08 7.08h-3.33c0-2.31-1.68-4.17-3.75-4.17-3.09 0-5.61 2.25-5.61 5.01v7.47h-3.3V12.06h3.3v.21c0 .48-.09.93-.27 1.35l-.75 1.68.39.18.6-1.32c.33-.75.96-1.38 1.71-1.71 1.2-.51 2.52-.81 3.93-.81zm21.535.39h3.24l-9.96 20.01-2.61-1.32 1.74-3.42-7.59-15.27h3.24l5.4 10.86c.21.45.33.96.33 1.47v.57h.45v-.57c0-.51.12-1.02.36-1.47l5.4-10.86zm13.006-.39c4.95 0 8.94 3.54 8.94 7.92 0 4.35-3.15 7.89-7.05 7.89s-7.08-3.18-7.08-7.08h3.33c0 2.31 1.68 4.17 3.75 4.17 2.04 0 3.72-2.25 3.72-4.98 0-2.76-2.49-5.01-5.61-5.01-3.09 0-5.61 2.25-5.61 5.01v12.45h-3.3V12.06h3.3v.21c0 .48-.09.93-.27 1.35l-.75 1.68.39.18.6-1.32c.33-.75.96-1.38 1.71-1.71 1.2-.51 2.52-.81 3.93-.81zm15.618 12.9h2.1v2.91h-2.1c-2.73 0-4.98-1.86-4.98-4.17v-8.73h-.81v-2.49h.81V7.08h3.33v4.98h3.33v2.49h-2.55c-.3 0-.57-.12-.78-.3l-.66-.69-.33.33.66.66c.21.21.33.48.33.78v7.95c0 .69.75 1.26 1.65 1.26zm10.851-12.9c4.95 0 8.94 3.54 8.94 7.92 0 4.35-3.99 7.89-8.94 7.89-4.92 0-8.91-3.54-8.91-7.89 0-4.38 3.99-7.92 8.91-7.92zm0 12.9c3.12 0 5.61-2.25 5.61-4.98 0-2.76-2.49-5.01-5.61-5.01-3.09 0-5.61 2.25-5.61 5.01 0 2.73 2.52 4.98 5.61 4.98z" fill="#fff"/><defs><linearGradient id="paint0_linear_57_121" x1="0" y1="28.632" x2="40.291" y2="28.217" gradientUnits="userSpaceOnUse"><stop stop-color="#3F6ADA"/><stop offset=".206" stop-color="#2A2F96"/><stop offset=".429" stop-color="#6381CE"/><stop offset=".62" stop-color="#5E7DCE"/><stop offset=".823" stop-color="#586C9E"/><stop offset="1" stop-color="#382EB1"/></linearGradient><linearGradient id="paint1_linear_57_121" x1="0" y1="28.632" x2="40.291" y2="28.217" gradientUnits="userSpaceOnUse"><stop stop-color="#3F6ADA"/><stop offset=".206" stop-color="#2A2F96"/><stop offset=".429" stop-color="#6381CE"/><stop offset=".62" stop-color="#5E7DCE"/><stop offset=".823" stop-color="#586C9E"/><stop offset="1" stop-color="#382EB1"/></linearGradient><linearGradient id="paint2_linear_57_121" x1="0" y1="28.632" x2="40.291" y2="28.217" gradientUnits="userSpaceOnUse"><stop stop-color="#3F6ADA"/><stop offset=".206" stop-color="#2A2F96"/><stop offset=".429" stop-color="#6381CE"/><stop offset=".62" stop-color="#5E7DCE"/><stop offset=".823" stop-color="#586C9E"/><stop offset="1" stop-color="#382EB1"/></linearGradient><linearGradient id="paint3_linear_57_121" x1="0" y1="28.632" x2="40.291" y2="28.217" gradientUnits="userSpaceOnUse"><stop stop-color="#3F6ADA"/><stop offset=".206" stop-color="#2A2F96"/><stop offset=".429" stop-color="#6381CE"/><stop offset=".62" stop-color="#5E7DCE"/><stop offset=".823" stop-color="#586C9E"/><stop offset="1" stop-color="#382EB1"/></linearGradient><linearGradient id="paint4_linear_57_121" x1="0" y1="28.632" x2="40.291" y2="28.217" gradientUnits="userSpaceOnUse"><stop stop-color="#3F6ADA"/><stop offset=".206" stop-color="#2A2F96"/><stop offset=".429" stop-color="#6381CE"/><stop offset=".62" stop-color="#5E7DCE"/><stop offset=".823" stop-color="#586C9E"/><stop offset="1" stop-color="#382EB1"/></linearGradient><linearGradient id="paint5_linear_57_121" x1="0" y1="28.632" x2="40.291" y2="28.217" gradientUnits="userSpaceOnUse"><stop stop-color="#3F6ADA"/><stop offset=".206" stop-color="#2A2F96"/><stop offset=".429" stop-color="#6381CE"/><stop offset=".62" stop-color="#5E7DCE"/><stop offset=".823" stop-color="#586C9E"/><stop offset="1" stop-color="#382EB1"/></linearGradient><linearGradient id="paint6_linear_57_121" x1="0" y1="28.632" x2="40.291" y2="28.217" gradientUnits="userSpaceOnUse"><stop stop-color="#3F6ADA"/><stop offset=".206" stop-color="#2A2F96"/><stop offset=".429" stop-color="#6381CE"/><stop offset=".62" stop-color="#5E7DCE"/><stop offset=".823" stop-color="#586C9E"/><stop offset="1" stop-color="#382EB1"/></linearGradient><linearGradient id="paint7_linear_57_121" x1="0" y1="28.632" x2="40.291" y2="28.217" gradientUnits="userSpaceOnUse"><stop stop-color="#3F6ADA"/><stop offset=".206" stop-color="#2A2F96"/><stop offset=".429" stop-color="#6381CE"/><stop offset=".62" stop-color="#5E7DCE"/><stop offset=".823" stop-color="#586C9E"/><stop offset="1" stop-color="#382EB1"/></linearGradient><linearGradient id="paint8_linear_57_121" x1="0" y1="28.632" x2="40.291" y2="28.217" gradientUnits="userSpaceOnUse"><stop stop-color="#3F6ADA"/><stop offset=".206" stop-color="#2A2F96"/><stop offset=".429" stop-color="#6381CE"/><stop offset=".62" stop-color="#5E7DCE"/><stop offset=".823" stop-color="#586C9E"/><stop offset="1" stop-color="#382EB1"/></linearGradient><linearGradient id="paint9_linear_57_121" x1="0" y1="28.632" x2="40.291" y2="28.217" gradientUnits="userSpaceOnUse"><stop stop-color="#3F6ADA"/><stop offset=".206" stop-color="#2A2F96"/><stop offset=".429" stop-color="#6381CE"/><stop offset=".62" stop-color="#5E7DCE"/><stop offset=".823" stop-color="#586C9E"/><stop offset="1" stop-color="#382EB1"/></linearGradient><linearGradient id="paint10_linear_57_121" x1="0" y1="28.632" x2="40.291" y2="28.217" gradientUnits="userSpaceOnUse"><stop stop-color="#3F6ADA"/><stop offset=".206" stop-color="#2A2F96"/><stop offset=".429" stop-color="#6381CE"/><stop offset=".62" stop-color="#5E7DCE"/><stop offset=".823" stop-color="#586C9E"/><stop offset="1" stop-color="#382EB1"/></linearGradient><linearGradient id="paint11_linear_57_121" x1="0" y1="28.632" x2="40.291" y2="28.217" gradientUnits="userSpaceOnUse"><stop stop-color="#3F6ADA"/><stop offset=".206" stop-color="#2A2F96"/><stop offset=".429" stop-color="#6381CE"/><stop offset=".62" stop-color="#5E7DCE"/><stop offset=".823" stop-color="#586C9E"/><stop offset="1" stop-color="#382EB1"/></linearGradient><linearGradient id="paint12_linear_57_121" x1="0" y1="28.632" x2="40.291" y2="28.217" gradientUnits="userSpaceOnUse"><stop stop-color="#3F6ADA"/><stop offset=".206" stop-color="#2A2F96"/><stop offset=".429" stop-color="#6381CE"/><stop offset=".62" stop-color="#5E7DCE"/><stop offset=".823" stop-color="#586C9E"/><stop offset="1" stop-color="#382EB1"/></linearGradient><linearGradient id="paint13_linear_57_121" x1="0" y1="28.632" x2="40.291" y2="28.217" gradientUnits="userSpaceOnUse"><stop stop-color="#3F6ADA"/><stop offset=".206" stop-color="#2A2F96"/><stop offset=".429" stop-color="#6381CE"/><stop offset=".62" stop-color="#5E7DCE"/><stop offset=".823" stop-color="#586C9E"/><stop offset="1" stop-color="#382EB1"/></linearGradient><linearGradient id="paint14_linear_57_121" x1="0" y1="28.632" x2="40.291" y2="28.217" gradientUnits="userSpaceOnUse"><stop stop-color="#3F6ADA"/><stop offset=".206" stop-color="#2A2F96"/><stop offset=".429" stop-color="#6381CE"/><stop offset=".62" stop-color="#5E7DCE"/><stop offset=".823" stop-color="#586C9E"/><stop offset="1" stop-color="#382EB1"/></linearGradient><linearGradient id="paint15_linear_57_121" x1="0" y1="28.632" x2="40.291" y2="28.217" gradientUnits="userSpaceOnUse"><stop stop-color="#3F6ADA"/><stop offset=".206" stop-color="#2A2F96"/><stop offset=".429" stop-color="#6381CE"/><stop offset=".62" stop-color="#5E7DCE"/><stop offset=".823" stop-color="#586C9E"/><stop offset="1" stop-color="#382EB1"/></linearGradient><linearGradient id="paint16_linear_57_121" x1="0" y1="28.632" x2="40.291" y2="28.217" gradientUnits="userSpaceOnUse"><stop stop-color="#3F6ADA"/><stop offset=".206" stop-color="#2A2F96"/><stop offset=".429" stop-color="#6381CE"/><stop offset=".62" stop-color="#5E7DCE"/><stop offset=".823" stop-color="#586C9E"/><stop offset="1" stop-color="#382EB1"/></linearGradient><linearGradient id="paint17_linear_57_121" x1="0" y1="28.632" x2="40.291" y2="28.217" gradientUnits="userSpaceOnUse"><stop stop-color="#3F6ADA"/><stop offset=".206" stop-color="#2A2F96"/><stop offset=".429" stop-color="#6381CE"/><stop offset=".62" stop-color="#5E7DCE"/><stop offset=".823" stop-color="#586C9E"/><stop offset="1" stop-color="#382EB1"/></linearGradient><linearGradient id="paint18_linear_57_121" x1="0" y1="28.632" x2="40.291" y2="28.217" gradientUnits="userSpaceOnUse"><stop stop-color="#3F6ADA"/><stop offset=".206" stop-color="#2A2F96"/><stop offset=".429" stop-color="#6381CE"/><stop offset=".62" stop-color="#5E7DCE"/><stop offset=".823" stop-color="#586C9E"/><stop offset="1" stop-color="#382EB1"/></linearGradient><linearGradient id="paint19_linear_57_121" x1="0" y1="28.632" x2="40.291" y2="28.217" gradientUnits="userSpaceOnUse"><stop stop-color="#3F6ADA"/><stop offset=".206" stop-color="#2A2F96"/><stop offset=".429" stop-color="#6381CE"/><stop offset=".62" stop-color="#5E7DCE"/><stop offset=".823" stop-color="#586C9E"/><stop offset="1" stop-color="#382EB1"/></linearGradient><linearGradient id="paint20_linear_57_121" x1="0" y1="28.632" x2="40.291" y2="28.217" gradientUnits="userSpaceOnUse"><stop stop-color="#3F6ADA"/><stop offset=".206" stop-color="#2A2F96"/><stop offset=".429" stop-color="#6381CE"/><stop offset=".62" stop-color="#5E7DCE"/><stop offset=".823" stop-color="#586C9E"/><stop offset="1" stop-color="#382EB1"/></linearGradient><linearGradient id="paint21_linear_57_121" x1="0" y1="28.632" x2="40.291" y2="28.217" gradientUnits="userSpaceOnUse"><stop stop-color="#3F6ADA"/><stop offset=".206" stop-color="#2A2F96"/><stop offset=".429" stop-color="#6381CE"/><stop offset=".62" stop-color="#5E7DCE"/><stop offset=".823" stop-color="#586C9E"/><stop offset="1" stop-color="#382EB1"/></linearGradient><linearGradient id="paint22_linear_57_121" x1="0" y1="28.632" x2="40.291" y2="28.217" gradientUnits="userSpaceOnUse"><stop stop-color="#3F6ADA"/><stop offset=".206" stop-color="#2A2F96"/><stop offset=".429" stop-color="#6381CE"/><stop offset=".62" stop-color="#5E7DCE"/><stop offset=".823" stop-color="#586C9E"/><stop offset="1" stop-color="#382EB1"/></linearGradient><linearGradient id="paint23_linear_57_121" x1="0" y1="28.632" x2="40.291" y2="28.217" gradientUnits="userSpaceOnUse"><stop stop-color="#3F6ADA"/><stop offset=".206" stop-color="#2A2F96"/><stop offset=".429" stop-color="#6381CE"/><stop offset=".62" stop-color="#5E7DCE"/><stop offset=".823" stop-color="#586C9E"/><stop offset="1" stop-color="#382EB1"/></linearGradient><linearGradient id="paint24_linear_57_121" x1="0" y1="28.632" x2="40.291" y2="28.217" gradientUnits="userSpaceOnUse"><stop stop-color="#3F6ADA"/><stop offset=".206" stop-color="#2A2F96"/><stop offset=".429" stop-color="#6381CE"/><stop offset=".62" stop-color="#5E7DCE"/><stop offset=".823" stop-color="#586C9E"/><stop offset="1" stop-color="#382EB1"/></linearGradient></defs></svg>