<svg width="42" height="46" fill="none" xmlns="http://www.w3.org/2000/svg"><path d="M40.09 11.455H1.908v34.363H40.09V11.455zM21 7.636A3.818 3.818 0 1021 0a3.818 3.818 0 000 7.636zm-17.182 0a3.818 3.818 0 100-7.636 3.818 3.818 0 000 7.636z" fill="#2098EE"/><path d="M22.91 5.727h-3.818v5.728h3.818V5.727zm-9.546 5.728H9.546V5.727H3.818V1.91h5.728a3.818 3.818 0 013.818 3.818v5.728zm24.817-3.819a3.818 3.818 0 100-7.636 3.818 3.818 0 000 7.636z" fill="#2098EE"/><path d="M32.455 11.455h-3.818V5.727a3.818 3.818 0 013.818-3.818h5.727v3.818h-5.727v5.728z" fill="#2098EE"/><path d="M36.272 15.273H5.727V42h30.545V15.273z" fill="#56CBFF"/><path d="M24.818 36.273a7.636 7.636 0 100-15.273 7.636 7.636 0 000 15.273z" fill="#2098EE"/><path d="M24.818 32.455a3.818 3.818 0 100-7.637 3.818 3.818 0 000 7.637zM13.363 19.091H9.545v19.091h3.818v-19.09z" fill="#fff"/></svg>