<svg width="40" height="40" fill="none" xmlns="http://www.w3.org/2000/svg"><path d="M6.667 10h31.666v30H6.667A6.667 6.667 0 010 33.333V16.667A6.667 6.667 0 016.667 10z" fill="#56CBFF"/><path d="M16 24.118a4.908 4.908 0 00-1-6.151V15h-3.333v1.667H8.334V15H5.001v1.667H3.334V20h1.667v10H3.334v3.333h1.667V35h3.333v-1.667h3.333V35h3.334v-1.973a4.973 4.973 0 001-8.909zM8.335 20h3.333a1.666 1.666 0 110 3.333H8.334V20zm5 10h-5v-3.333h5a1.667 1.667 0 010 3.333z" fill="#fff"/><path d="M31.666 30h8.333V20h-8.333a5 5 0 000 10z" fill="#2098EE"/><path d="M31.667 26.667a1.667 1.667 0 100-3.334 1.667 1.667 0 000 3.334z" fill="#fff"/><path d="M20 6.667A3.333 3.333 0 1020 0a3.333 3.333 0 000 6.667zm-15 0A3.333 3.333 0 105 0a3.333 3.333 0 000 6.667z" fill="#2098EE"/><path d="M21.667 5h-3.333v5h3.333V5zm-8.334 5H10V5H5V1.667h5A3.333 3.333 0 0113.333 5v5zM35 6.667A3.333 3.333 0 1035 0a3.333 3.333 0 000 6.667z" fill="#2098EE"/><path d="M30 10h-3.334V5a3.333 3.333 0 013.333-3.333h5V5h-5v5z" fill="#2098EE"/></svg>