<svg width="49" height="53" fill="none" xmlns="http://www.w3.org/2000/svg"><path d="M46.29 11.022v10.051A30.93 30.93 0 0124.249 50.7 30.928 30.928 0 012.205 21.073V11.022l11.021-8.817H35.27l11.022 8.817z" fill="#56CBFF"/><path d="M24.247 53A32.954 32.954 0 010 21.073V9.963L12.452 0h23.586l12.457 9.964v11.11A32.95 32.95 0 0124.248 53zM4.41 12.08v8.993a28.545 28.545 0 0019.838 27.318 28.545 28.545 0 0019.84-27.318V12.08l-9.592-7.671h-20.5l-9.586 7.67z" fill="#2098EE"/><path d="M32.182 23.081a6.492 6.492 0 00-1.322-8.136v-3.923h-4.41v2.204h-4.408v-2.204h-4.409v2.204H15.43v4.408h2.204V30.86H15.43v4.409h2.204v2.204h4.409V35.27h4.408v2.204h4.409v-2.61a6.577 6.577 0 001.322-11.782zm-10.14-5.447h4.41a2.204 2.204 0 110 4.41h-4.41v-4.41zm6.613 13.226h-6.612v-4.408h6.612a2.204 2.204 0 110 4.408z" fill="#fff"/></svg>