<svg width="49" height="49" fill="none" xmlns="http://www.w3.org/2000/svg"><path d="M22.456 44.917c12.402 0 22.456-10.054 22.456-22.456S34.858.005 22.456.005 0 10.06 0 22.461s10.054 22.456 22.456 22.456z" fill="#56CBFF"/><path d="M24.499 40.834l-2.041 4.083A22.477 22.477 0 012.45 12.254h7.758v4.083l8.166 2.041v12.249H8.167v4.083L24.5 40.834zm20.31-16.333H32.663l-6.125-6.124-4.082-2.041v-6.124l-4.083-2.041V.373A22.455 22.455 0 0144.809 24.5z" fill="#6DEDD4"/><path d="M32.663 49c9.02 0 16.332-7.312 16.332-16.331 0-9.02-7.312-16.332-16.331-16.332-9.02 0-16.332 7.312-16.332 16.332S23.644 49 32.663 49z" fill="#2098EE"/><path d="M40.012 31.588a6.012 6.012 0 00-1.224-7.535V20.42h-4.083v2.041h-4.083V20.42H26.54v2.041h-2.041v4.083h2.041v12.248h-2.041v4.083h2.041v2.041h4.083v-2.041h4.083v2.041h4.083V42.5a6.092 6.092 0 001.224-10.91zm-9.39-5.044h4.083a2.04 2.04 0 110 4.083h-4.083v-4.083zm6.124 12.248h-6.124v-4.083h6.124a2.042 2.042 0 010 4.083z" fill="#fff"/></svg>