<svg width="53" height="49" fill="none" xmlns="http://www.w3.org/2000/svg"><path d="M12.25.817a3.267 3.267 0 100 6.533h24.5V.817h-24.5zM49 13.067h-4.084v4.9h4.083a2.45 2.45 0 000-4.9z" fill="#fff"/><path d="M41.65 7.35h-29.4a3.267 3.267 0 01-3.268-3.266v31.033H41.65a3.266 3.266 0 003.267-3.267V10.617A3.267 3.267 0 0041.65 7.35z" fill="#56CBFF"/><path d="M49 17.967h-7.35a4.084 4.084 0 000 8.167H49a2.45 2.45 0 002.45-2.45v-8.167a2.45 2.45 0 01-2.45 2.45z" fill="#fff"/><path d="M41.65 23.683a1.633 1.633 0 100-3.266 1.633 1.633 0 000 3.266z" fill="#56CBFF"/><path d="M13.883 48.184c7.217 0 13.067-5.85 13.067-13.067 0-7.217-5.85-13.067-13.067-13.067C6.667 22.05.816 27.9.816 35.117c0 7.216 5.85 13.067 13.067 13.067z" fill="#fff"/><path d="M13.884 44.917c5.412 0 9.8-4.388 9.8-9.8 0-5.413-4.388-9.8-9.8-9.8-5.412 0-9.8 4.387-9.8 9.8 0 5.412 4.388 9.8 9.8 9.8z" fill="#56CBFF"/><path d="M13.883 21.233a13.883 13.883 0 1013.884 13.884 13.902 13.902 0 00-13.884-13.884zm9.208 21.937l-1.154-1.155a10.56 10.56 0 002.522-6.082h1.633a12.182 12.182 0 01-3 7.237zM1.675 35.933h1.633a10.56 10.56 0 002.522 6.082L4.675 43.17a12.182 12.182 0 01-3-7.237zm3-8.87l1.155 1.155A10.56 10.56 0 003.308 34.3H1.675a12.181 12.181 0 013-7.236zM13.883 44.1a8.983 8.983 0 118.984-8.983 8.994 8.994 0 01-8.984 8.983zm6.899-17.037a10.56 10.56 0 00-6.082-2.521v-1.634a12.182 12.182 0 017.236 3l-1.154 1.155zm-7.715-2.521a10.56 10.56 0 00-6.082 2.521L5.83 25.91a12.182 12.182 0 017.237-3v1.633zM6.985 43.17a10.56 10.56 0 006.082 2.522v1.633a12.182 12.182 0 01-7.237-3l1.155-1.155zm7.715 2.522a10.56 10.56 0 006.082-2.522l1.154 1.155a12.182 12.182 0 01-7.236 3v-1.633zM24.459 34.3a10.56 10.56 0 00-2.522-6.082l1.154-1.154a12.181 12.181 0 013 7.236H24.46z" fill="#2098EE"/><path d="M17.445 34.471c.381-.59.523-1.28.401-1.953a2.88 2.88 0 00-1.067-1.738V29h-2.223v1h-2.222v-1H10.11v1H9v2h1.111v6H9v2h1.111v1h2.223v-1h2.222v1h2.223v-1.184a3.332 3.332 0 001.498-.956c.39-.44.633-.97.702-1.528a2.723 2.723 0 00-.308-1.63 3.118 3.118 0 00-1.226-1.23zm-5.111-2.47h2.222c.295 0 .578.105.786.292a.952.952 0 01.325.707c0 .265-.117.52-.325.707a1.177 1.177 0 01-.786.293h-2.222v-2zm3.333 6h-3.333v-2h3.333c.295 0 .578.105.786.292a.952.952 0 01.326.707.95.95 0 01-.326.707 1.177 1.177 0 01-.786.293z" fill="#fff"/><path d="M49 12.25h-3.267v-1.633a4.088 4.088 0 00-4.084-4.084h-4.083V2.45A2.453 2.453 0 0035.116 0H12.249a4.088 4.088 0 00-4.083 4.083V19.6a.817.817 0 001.633 0V7.348a4.297 4.297 0 002.45.819h29.4a2.453 2.453 0 012.45 2.45v6.533h-2.45a4.9 4.9 0 000 9.8h2.45v4.9a2.452 2.452 0 01-2.45 2.45H30.216a.817.817 0 000 1.634h11.433a4.088 4.088 0 004.084-4.084v-4.9h3.266a3.27 3.27 0 003.267-3.267v-8.166a3.27 3.27 0 00-3.267-3.267zM12.25 6.533a2.45 2.45 0 010-4.9h22.866a.818.818 0 01.817.817v4.083H12.249zm33.483 7.35h3.266a1.633 1.633 0 110 3.267h-3.266v-3.266zm4.9 9.8a1.635 1.635 0 01-1.634 1.634h-7.35a3.267 3.267 0 010-6.534H49a3.366 3.366 0 001.634-.438v5.338z" fill="#2098EE"/><path d="M41.65 19.6a2.45 2.45 0 100 4.9 2.45 2.45 0 000-4.9zm0 3.267a.816.816 0 110-1.633.816.816 0 010 1.633z" fill="#2098EE"/></svg>