<svg width="44" height="28" fill="none" xmlns="http://www.w3.org/2000/svg"><path d="M43.083 0H0v27.417h43.083V0z" fill="#56CBFF"/><path d="M21.541 21.542c3.245 0 5.875-3.507 5.875-7.834 0-4.326-2.63-7.833-5.875-7.833s-5.875 3.507-5.875 7.833c0 4.327 2.63 7.834 5.875 7.834z" fill="#2098EE"/><path d="M11.75 11.75H5.875v3.917h5.875V11.75z" fill="#fff"/><path d="M5.875 0A5.875 5.875 0 010 5.875V0h5.875zm37.209 0v5.875A5.875 5.875 0 0137.209 0h5.875zM5.875 27.417H0v-5.875a5.875 5.875 0 015.875 5.875zm31.125 0h5.875v-5.875A5.875 5.875 0 0037 27.417z" fill="#2098EE"/></svg>