<svg width="49" height="49" fill="none" xmlns="http://www.w3.org/2000/svg"><path d="M26.042 6.5H22.96v7.708h3.083V6.5zm0 29.292H22.96V43.5h3.083v-7.708zm13.874 3.083h-6.167a3.083 3.083 0 01-3.083-3.083v-6.167h3.083v6.167h6.167v3.083z" fill="#56CBFF"/><path d="M39.917 40.417a3.083 3.083 0 100-6.167 3.083 3.083 0 000 6.167zM33.75 26.542H43v-3.084h-9.25v3.084zm0-6.167h-3.084v-6.167a3.083 3.083 0 013.083-3.083h6.167v3.083h-6.167v6.167z" fill="#56CBFF"/><path d="M39.917 15.75a3.083 3.083 0 100-6.167 3.083 3.083 0 000 6.167zM15.25 38.875H9.085v-3.083h6.167v-6.167h3.083v6.167a3.083 3.083 0 01-3.083 3.083z" fill="#56CBFF"/><path d="M9.083 40.417a3.083 3.083 0 100-6.167 3.083 3.083 0 000 6.167zm6.167-16.959H6v3.084h9.25v-3.084zm3.084-3.083h-3.083v-6.167H9.084v-3.083h6.167a3.083 3.083 0 013.083 3.083v6.167z" fill="#56CBFF"/><path d="M24.5 37.333c6.81 0 12.333-5.521 12.333-12.333 0-6.811-5.522-12.333-12.334-12.333-6.811 0-12.333 5.522-12.333 12.333 0 6.812 5.522 12.333 12.333 12.333z" fill="#2098EE"/><path d="M30.05 24.184a4.54 4.54 0 00-.924-5.69V15.75h-3.084v1.542H22.96V15.75h-3.083v1.542h-1.542v3.083h1.542v9.25h-1.542v3.083h1.542v1.542h3.083v-1.542h3.083v1.542h3.084v-1.825a4.6 4.6 0 00.925-8.24zm-7.091-3.809h3.083a1.542 1.542 0 110 3.083H22.96v-3.083zm4.625 9.25h-4.625v-3.083h4.625a1.542 1.542 0 110 3.083z" fill="#fff"/><path d="M9.083 15.75a3.083 3.083 0 100-6.167 3.083 3.083 0 000 6.167z" fill="#56CBFF"/></svg>