<svg width="48" height="49" fill="none" xmlns="http://www.w3.org/2000/svg"><path d="M35.833 42H11.555a1.278 1.278 0 01-1.278-1.278V24.111a1.278 1.278 0 011.278-1.278h24.278a1.278 1.278 0 011.278 1.278v16.611A1.278 1.278 0 0135.833 42z" fill="#56CBFF"/><path d="M33.277 22.833h-23v2.556h19.167a3.833 3.833 0 013.833 3.833V42h2.556a1.278 1.278 0 001.278-1.278V22.833h-3.834z" fill="#1A86D3"/><path d="M37.111 22.833H10.278A1.278 1.278 0 019 21.556v-6.39a1.278 1.278 0 011.278-1.277H37.11a1.277 1.277 0 011.278 1.278v6.389a1.277 1.277 0 01-1.278 1.277z" fill="#56CBFF"/><path d="M19.223 13.889H15.39a2.556 2.556 0 00-2.556 2.556V19l1.917-1.278L16.667 19v-2.555a2.556 2.556 0 012.556-2.556zm8.944 0h3.834a2.556 2.556 0 012.555 2.556V19l-1.916-1.278L30.722 19v-2.555a2.556 2.556 0 00-2.556-2.556z" fill="#2098EE"/><path d="M15.39 14.528h2.159a2.537 2.537 0 011.674-.64H15.39a2.556 2.556 0 00-2.556 2.557v.638a2.556 2.556 0 012.556-2.555zm16.61-.64h-3.833c.644 0 1.226.248 1.674.64h2.16a2.556 2.556 0 012.555 2.555v-.638a2.556 2.556 0 00-2.555-2.556zm-11.5.001h6.389v8.944H20.5V13.89zm1.278 8.944h3.833V42h-3.833V22.833z" fill="#2098EE"/><path d="M21.777 22.833h3.834v2.556h-3.834v-2.556zM31.108 7.51c-1.697.13-2.942 1.68-2.942 3.381v.442a1.278 1.278 0 01-1.277 1.278v.32h1.643a2.239 2.239 0 002.236-2.237.32.32 0 01.639 0 2.88 2.88 0 01-2.875 2.875h-1.643v.32h4.275c1.702 0 3.25-1.245 3.381-2.942a3.193 3.193 0 00-3.437-3.437z" fill="#2098EE"/><path d="M31.108 7.51c-1.697.13-2.942 1.68-2.942 3.381v.442a1.278 1.278 0 01-1.277 1.278v.32h1.643a2.239 2.239 0 002.236-2.237.32.32 0 01.639 0 2.88 2.88 0 01-2.875 2.875h-1.643v.32h4.275c1.702 0 3.25-1.245 3.381-2.942a3.193 3.193 0 00-3.437-3.437z" fill="#2098EE"/><path d="M31.475 7.522a3.18 3.18 0 011.794 3.11c-.13 1.697-1.68 2.941-3.381 2.941h-3v.316h4.276c1.702 0 3.25-1.245 3.381-2.941a3.182 3.182 0 00-3.07-3.426zM18.857 13.57a2.88 2.88 0 01-2.875-2.876.32.32 0 01.64 0 2.239 2.239 0 002.235 2.236h1.644v-.319a1.278 1.278 0 01-1.278-1.278v-.442c0-1.702-1.245-3.25-2.942-3.38a3.193 3.193 0 00-3.437 3.436c.13 1.697 1.68 2.942 3.381 2.942h4.276v-.32h-1.644z" fill="#2098EE"/><path d="M26.889 13.889H20.5V12.61a1.277 1.277 0 011.278-1.278h3.833a1.278 1.278 0 011.278 1.278v1.278z" fill="#2098EE"/><path d="M31.095 10.375h-.007l.007.004v-.004zm-2.563 2.556a2.2 2.2 0 00.695-.122c.032-.01.067-.018.097-.03.207-.08.398-.19.57-.324l.08-.066c.17-.146.323-.312.443-.502l.021-.041c.123-.205.22-.427.274-.666.01-.056.015-.115.026-.172.014-.103.03-.206.03-.313a.32.32 0 01.32-.32h-.647a.32.32 0 00-.32.32 2.239 2.239 0 01-2.235 2.236h.646zM15.914 7.52a3.18 3.18 0 00-1.793 3.11c.13 1.698 1.68 2.942 3.381 2.942H20.5v.316h-4.276c-1.701 0-3.25-1.245-3.38-2.941a3.182 3.182 0 013.07-3.426z" fill="#2098EE"/><path d="M16.293 10.375h.008l-.008.004v-.004zm2.563 2.556a2.2 2.2 0 01-.695-.122c-.032-.01-.066-.018-.097-.03a2.219 2.219 0 01-.57-.324l-.08-.066a2.239 2.239 0 01-.443-.502l-.021-.041a2.26 2.26 0 01-.274-.666c-.01-.056-.015-.115-.025-.172-.014-.103-.03-.206-.03-.314a.32.32 0 00-.32-.319h.646a.32.32 0 01.32.32 2.239 2.239 0 002.236 2.236h-.647z" fill="#2098EE"/></svg>