<svg width="49" height="49" fill="none" xmlns="http://www.w3.org/2000/svg"><path d="M41 8.5H8v8.25h33V8.5z" fill="#2098EE"/><path d="M41 16.75H8v22h33v-22z" fill="#56CBFF"/><path d="M24.5 41.5c6.075 0 11-4.925 11-11s-4.925-11-11-11-11 4.925-11 11 4.925 11 11 11z" fill="#2098EE"/><path d="M29.45 29.773a4.05 4.05 0 00-.825-5.075V22.25h-2.75v1.375h-2.75V22.25h-2.75v1.375H19v2.75h1.375v8.25H19v2.75h1.375v1.375h2.75v-1.375h2.75v1.375h2.75v-1.628a4.104 4.104 0 00.825-7.35zm-6.325-3.398h2.75a1.375 1.375 0 010 2.75h-2.75v-2.75zm4.125 8.25h-4.125v-2.75h4.125a1.375 1.375 0 010 2.75zM12.125 14a1.375 1.375 0 100-2.75 1.375 1.375 0 000 2.75zm5.5 0a1.375 1.375 0 100-2.75 1.375 1.375 0 000 2.75zm5.5 0a1.375 1.375 0 100-2.75 1.375 1.375 0 000 2.75zm15.125-2.75h-11V14h11v-2.75z" fill="#fff"/></svg>