<svg width="48" height="49" fill="none" xmlns="http://www.w3.org/2000/svg"><path d="M24.5 31.5c7.18 0 13-5.82 13-13s-5.82-13-13-13-13 5.82-13 13 5.82 13 13 13z" fill="#2098EE"/><path d="M30.35 17.64a4.786 4.786 0 00-.975-5.998V8.75h-3.25v1.625h-3.25V8.75h-3.25v1.625H18v3.25h1.625v9.75H18v3.25h1.625v1.625h3.25v-1.625h3.25v1.625h3.25v-1.924a4.849 4.849 0 00.975-8.686zm-7.475-4.015h3.25a1.625 1.625 0 110 3.25h-3.25v-3.25zm4.875 9.75h-4.875v-3.25h4.875a1.625 1.625 0 110 3.25z" fill="#fff"/><path d="M29.375 34.75h-9.75v9.75h9.75v-9.75z" fill="#2098EE"/><path d="M14.75 38H5v6.5h9.75V38zM44 39.625h-9.75V44.5H44v-4.875z" fill="#56CBFF"/></svg>