<svg width="227" height="207" fill="none" xmlns="http://www.w3.org/2000/svg"><mask id="mask0_118_325" style="mask-type:luminance" maskUnits="userSpaceOnUse" x="3" y="22" width="157" height="180"><path d="M3.5 115.759l68.146-92.865 87.521 86.184-68.146 92.866L3.5 115.759zm155.667-6.013L72.314 23.562 4.168 115.759l87.52 85.517 67.479-91.53z" fill="#fff"/></mask><g mask="url(#mask0_118_325)"><path d="M3.5 115.759l68.146-92.865 87.521 86.184-68.146 92.866L3.5 115.759zm155.667-6.013L72.314 23.562 4.168 115.759l87.521 85.517 67.478-91.53z" stroke="#089CFF" stroke-width=".053" stroke-miterlimit="10"/></g><path d="M3.5 115.759l68.146-92.865 87.521 86.184-68.146 92.866L3.5 115.759zm155.667-6.013L72.314 23.562 4.168 115.759l87.521 85.517 67.478-91.53z" stroke="#089CFF" stroke-width=".213" stroke-miterlimit="10"/><mask id="mask1_118_325" style="mask-type:luminance" maskUnits="userSpaceOnUse" x="66" y="4" width="157" height="180"><path d="M66.97 96.384l68.147-92.197 87.521 86.184-68.146 92.866-87.521-86.853zm155.668-6.013L135.117 4.188 67.639 96.384l87.521 85.517 67.478-91.53z" fill="#fff"/></mask><g mask="url(#mask1_118_325)"><path d="M135.117 4.187L66.971 96.384l87.521 86.853 68.146-92.865M135.117 4.186l87.521 86.184M135.117 4.188L67.639 96.384l87.521 85.517 67.478-91.53" stroke="#089CFF" stroke-width=".053" stroke-miterlimit="10"/></g><path d="M66.97 96.384l68.147-92.197 87.521 86.184-68.146 92.866-87.521-86.853zm155.668-6.013L135.117 4.188 67.639 96.384l87.521 85.517 67.478-91.53z" stroke="#089CFF" stroke-width=".213" stroke-miterlimit="10"/><mask id="mask2_118_325" style="mask-type:luminance" maskUnits="userSpaceOnUse" x="3" y="4" width="133" height="112"><path d="M66.97 96.384L3.5 115.76l68.146-92.197 63.469-19.375-68.146 92.197z" fill="#fff"/></mask><g mask="url(#mask2_118_325)"><path d="M66.97 96.384L3.5 115.76l68.146-92.197 63.469-19.375-68.146 92.197z" stroke="#089CFF" stroke-width=".053" stroke-miterlimit="10"/></g><path d="M66.97 96.384L3.5 115.76l68.146-92.197 63.469-19.375-68.146 92.197z" stroke="#089CFF" stroke-width=".213" stroke-miterlimit="10"/><mask id="mask3_118_325" style="mask-type:luminance" maskUnits="userSpaceOnUse" x="71" y="4" width="152" height="106"><path d="M135.11 4.187l87.521 86.184-62.801 19.375-88.19-86.184 63.47-19.375z" fill="#fff"/></mask><g mask="url(#mask3_118_325)"><path d="M135.11 4.187l87.521 86.184-62.801 19.375-88.19-86.184 63.47-19.375z" stroke="#089CFF" stroke-width=".053" stroke-miterlimit="10"/></g><path d="M135.11 4.187l87.521 86.184-62.801 19.375-88.19-86.184 63.47-19.375z" stroke="#089CFF" stroke-width=".213" stroke-miterlimit="10"/><mask id="mask4_118_325" style="mask-type:luminance" maskUnits="userSpaceOnUse" x="91" y="90" width="132" height="112"><path d="M222.631 90.371l-68.146 92.198-62.801 19.375 68.146-92.198 62.801-19.374z" fill="#fff"/></mask><g mask="url(#mask4_118_325)"><path d="M222.631 90.371l-68.146 92.198-62.801 19.375 68.146-92.198 62.801-19.374z" stroke="#089CFF" stroke-width=".053" stroke-miterlimit="10"/></g><path d="M222.631 90.371l-68.146 92.198-62.801 19.375 68.146-92.198 62.801-19.374z" stroke="#089CFF" stroke-width=".213" stroke-miterlimit="10"/><mask id="mask5_118_325" style="mask-type:luminance" maskUnits="userSpaceOnUse" x="3" y="96" width="152" height="106"><path d="M154.49 182.569l-62.801 19.375L3.5 115.759l63.47-19.375 87.52 86.185z" fill="#fff"/></mask><g mask="url(#mask5_118_325)"><path d="M154.49 182.569l-62.801 19.375L3.5 115.759l63.47-19.375 87.52 86.185z" stroke="#089CFF" stroke-width=".053" stroke-miterlimit="10"/></g><path d="M154.49 182.569l-62.801 19.375L3.5 115.759l63.47-19.375 87.52 86.185z" stroke="#089CFF" stroke-width=".213" stroke-miterlimit="10"/><mask id="mask6_118_325" style="mask-type:luminance" maskUnits="userSpaceOnUse" x="72" y="4" width="151" height="106"><path d="M222.644 90.371l-63.469 19.375-86.853-86.184 62.801-19.375 87.521 86.184z" fill="#fff"/></mask><g mask="url(#mask6_118_325)"><path d="M222.644 90.371l-63.469 19.375-86.853-86.184 62.801-19.375 87.521 86.184z" stroke="#089CFF" stroke-width=".053" stroke-miterlimit="10"/></g><path d="M222.642 90.371l-63.469 19.375L72.32 23.562l62.802-19.375 87.52 86.184z" stroke="#089CFF" stroke-width=".213" stroke-miterlimit="10"/><mask id="mask7_118_325" style="mask-type:luminance" maskUnits="userSpaceOnUse" x="4" y="4" width="132" height="112"><path d="M135.111 4.187L67.633 96.384 4.164 115.76 72.31 23.562l62.801-19.375z" fill="#fff"/></mask><g mask="url(#mask7_118_325)"><path d="M135.111 4.187L67.633 96.384 4.164 115.76 72.31 23.562l62.801-19.375z" stroke="#089CFF" stroke-width=".053" stroke-miterlimit="10"/></g><path d="M135.111 4.187L67.633 96.384 4.164 115.76 72.31 23.562l62.801-19.375z" stroke="#089CFF" stroke-width=".213" stroke-miterlimit="10"/><mask id="mask8_118_325" style="mask-type:luminance" maskUnits="userSpaceOnUse" x="4" y="96" width="151" height="106"><path d="M67.633 96.384l86.853 86.185-62.801 19.375-87.52-86.185 63.468-19.375z" fill="#fff"/></mask><g mask="url(#mask8_118_325)"><path d="M67.633 96.384l86.853 86.185-62.801 19.375-87.52-86.185 63.468-19.375z" stroke="#089CFF" stroke-width=".053" stroke-miterlimit="10"/></g><path d="M67.633 96.384l86.853 86.185-62.801 19.375-87.52-86.185 63.468-19.375z" stroke="#089CFF" stroke-width=".213" stroke-miterlimit="10"/><mask id="mask9_118_325" style="mask-type:luminance" maskUnits="userSpaceOnUse" x="91" y="90" width="132" height="112"><path d="M154.485 182.569l-62.801 19.375 67.477-92.198 63.47-19.374-68.146 92.197z" fill="#fff"/></mask><g mask="url(#mask9_118_325)"><path d="M154.485 182.569l-62.801 19.375 67.477-92.198 63.47-19.374-68.146 92.197z" stroke="#089CFF" stroke-width=".053" stroke-miterlimit="10"/></g><path d="M154.485 182.569l-62.801 19.375 67.477-92.198 63.47-19.374-68.146 92.197z" stroke="#089CFF" stroke-width=".213" stroke-miterlimit="10"/><path d="M7.508 114.423c.668 2.004 0 4.009-1.337 5.345-2.004.668-4.008 0-5.344-1.336-.669-2.005 0-4.009 1.336-5.345 2.004-1.336 4.008-.668 5.345 1.336z" fill="url(#paint0_radial_118_325)"/><path d="M70.312 95.048c.668 2.004 0 4.009-1.336 5.345-2.004.668-4.009 0-5.345-1.336-.668-2.005 0-4.009 1.337-5.345 2.004-1.336 4.676-.668 5.344 1.336z" fill="url(#paint1_radial_118_325)"/><path d="M75.648 22.225c.668 2.005 0 4.009-1.336 5.345-1.336 1.336-4.009 0-5.345-1.336-.668-2.004 0-4.009 1.336-5.345 2.005-1.336 4.009-.668 5.345 1.336z" fill="url(#paint2_radial_118_325)"/><path d="M138.453 2.85c.668 2.005 0 4.01-1.336 5.345-2.005.668-4.009 0-5.345-1.336-.668-2.004 0-4.008 1.336-5.345 2.004-1.336 4.677-.668 5.345 1.337z" fill="url(#paint3_radial_118_325)"/><path d="M225.97 88.367c.669 2.004 0 4.009-1.336 5.345-2.004.668-4.008 0-5.345-1.336-.668-2.005 0-4.009 1.337-5.345 2.004-1.336 4.676-.668 5.344 1.336z" fill="url(#paint4_radial_118_325)"/><path d="M162.502 107.742c.668 2.004 0 4.009-1.337 5.345-2.004.668-4.008 0-5.344-1.336-.668-2.005 0-4.009 1.336-5.345 2.004-1.336 4.677-.668 5.345 1.336z" fill="url(#paint5_radial_118_325)"/><path d="M157.83 181.233c.668 2.004 0 4.008-1.336 5.345-2.005.668-4.009 0-5.345-1.337-.668-2.004 0-4.008 1.336-5.344 2.672-1.337 4.677-.669 5.345 1.336z" fill="url(#paint6_radial_118_325)"/><path d="M95.025 200.608c.668 2.004 0 4.008-1.336 5.344-2.004.668-4.009 0-5.345-1.336-.668-2.004 0-4.008 1.336-5.345 2.005-1.336 4.009-.668 5.345 1.337z" fill="url(#paint7_radial_118_325)"/><defs><radialGradient id="paint0_radial_118_325" cx="0" cy="0" r="1" gradientUnits="userSpaceOnUse" gradientTransform="rotate(-28.21 233.01 49.955) scale(3.80607)"><stop offset=".327" stop-color="#fff"/><stop offset=".43" stop-color="#2DBEFF"/><stop offset="1"/></radialGradient><radialGradient id="paint1_radial_118_325" cx="0" cy="0" r="1" gradientUnits="userSpaceOnUse" gradientTransform="rotate(-28.21 225.86 -85.27) scale(3.80607 3.80608)"><stop offset=".327" stop-color="#fff"/><stop offset=".43" stop-color="#2DBEFF"/><stop offset="1"/></radialGradient><radialGradient id="paint2_radial_118_325" cx="0" cy="0" r="1" gradientUnits="userSpaceOnUse" gradientTransform="rotate(-28.21 83.41 -131.562) scale(3.80607)"><stop offset=".327" stop-color="#fff"/><stop offset=".43" stop-color="#2DBEFF"/><stop offset="1"/></radialGradient><radialGradient id="paint3_radial_118_325" cx="0" cy="0" r="1" gradientUnits="userSpaceOnUse" gradientTransform="matrix(3.35399 -1.79915 1.79915 3.354 135.33 4.402)"><stop offset=".327" stop-color="#fff"/><stop offset=".43" stop-color="#2DBEFF"/><stop offset="1"/></radialGradient><radialGradient id="paint4_radial_118_325" cx="0" cy="0" r="1" gradientUnits="userSpaceOnUse" gradientTransform="rotate(-28.21 290.81 -397.99) scale(3.80607 3.80608)"><stop offset=".327" stop-color="#fff"/><stop offset=".43" stop-color="#2DBEFF"/><stop offset="1"/></radialGradient><radialGradient id="paint5_radial_118_325" cx="0" cy="0" r="1" gradientUnits="userSpaceOnUse" gradientTransform="rotate(-28.21 297.852 -262.252) scale(3.80608)"><stop offset=".327" stop-color="#fff"/><stop offset=".43" stop-color="#2DBEFF"/><stop offset="1"/></radialGradient><radialGradient id="paint6_radial_118_325" cx="0" cy="0" r="1" gradientUnits="userSpaceOnUse" gradientTransform="rotate(-28.21 440.962 -216.613) scale(3.80607)"><stop offset=".327" stop-color="#fff"/><stop offset=".43" stop-color="#2DBEFF"/><stop offset="1"/></radialGradient><radialGradient id="paint7_radial_118_325" cx="0" cy="0" r="1" gradientUnits="userSpaceOnUse" gradientTransform="rotate(-28.21 448 -80.864) scale(3.80607)"><stop offset=".327" stop-color="#fff"/><stop offset=".43" stop-color="#2DBEFF"/><stop offset="1"/></radialGradient></defs></svg>