<svg width="221" height="193" fill="none" xmlns="http://www.w3.org/2000/svg"><mask id="mask0_118_467" style="mask-type:luminance" maskUnits="userSpaceOnUse" x="0" y="11" width="153" height="178"><path d="M.488 92.569l78.836-80.84 73.491 95.538-78.836 80.84L.489 92.569zm152.327 14.698l-73.491-94.87-78.168 80.84 73.491 94.87 78.168-80.84z" fill="#fff"/></mask><g mask="url(#mask0_118_467)"><path d="M152.815 107.267L79.324 11.729.488 92.57l73.491 95.538 78.836-80.84zm0 0l-73.491-94.87-78.168 80.84 73.491 94.87 78.168-80.84z" stroke="#089CFF" stroke-width=".052" stroke-miterlimit="10"/></g><path d="M.488 92.569l78.836-80.84 73.491 95.538-78.836 80.84L.489 92.569zm152.327 14.698l-73.491-94.87-78.168 80.84 73.491 94.87 78.168-80.84z" stroke="#089CFF" stroke-width=".209" stroke-miterlimit="10"/><mask id="mask1_118_467" style="mask-type:luminance" maskUnits="userSpaceOnUse" x="64" y="1" width="153" height="177"><path d="M64.621 81.88l78.836-80.84 73.49 95.537-78.835 80.84-73.49-95.538zm152.326 14.697l-73.49-94.87-78.168 80.84 73.491 94.87 78.167-80.84z" fill="#fff"/></mask><g mask="url(#mask1_118_467)"><path d="M216.947 96.577L143.457 1.04 64.621 81.88l73.491 95.538 78.835-80.84zm0 0l-73.49-94.87-78.168 80.84 73.491 94.87 78.167-80.84z" stroke="#089CFF" stroke-width=".052" stroke-miterlimit="10"/></g><path d="M64.623 81.88l78.836-80.84 73.49 95.537-78.835 80.84-73.491-95.538zm152.326 14.697l-73.49-94.87-78.168 80.84 73.491 94.87 78.167-80.84z" stroke="#089CFF" stroke-width=".209" stroke-miterlimit="10"/><mask id="mask2_118_467" style="mask-type:luminance" maskUnits="userSpaceOnUse" x="0" y="1" width="144" height="92"><path d="M64.626 81.88L.488 92.568l78.836-80.84 64.137-10.69-78.835 80.84z" fill="#fff"/></mask><g mask="url(#mask2_118_467)"><path d="M64.626 81.88L.488 92.568l78.836-80.84 64.137-10.69-78.835 80.84z" stroke="#089CFF" stroke-width=".052" stroke-miterlimit="10"/></g><path d="M64.626 81.88L.488 92.568l78.836-80.84 64.137-10.69-78.835 80.84z" stroke="#089CFF" stroke-width=".209" stroke-miterlimit="10"/><mask id="mask3_118_467" style="mask-type:luminance" maskUnits="userSpaceOnUse" x="79" y="1" width="138" height="107"><path d="M143.469 1.04l73.491 95.537-64.137 10.69-73.491-95.538 64.137-10.69z" fill="#fff"/></mask><g mask="url(#mask3_118_467)"><path d="M143.469 1.04l73.491 95.537-64.137 10.69-73.491-95.538 64.137-10.69z" stroke="#089CFF" stroke-width=".052" stroke-miterlimit="10"/></g><path d="M143.466 1.04l73.49 95.537-64.137 10.69-73.49-95.538 64.137-10.69z" stroke="#089CFF" stroke-width=".209" stroke-miterlimit="10"/><mask id="mask4_118_467" style="mask-type:luminance" maskUnits="userSpaceOnUse" x="73" y="96" width="144" height="93"><path d="M216.946 96.577l-78.836 80.84-64.137 10.69 78.835-80.84 64.138-10.69z" fill="#fff"/></mask><g mask="url(#mask4_118_467)"><path d="M216.948 96.577l-78.836 80.84-64.137 10.69 78.835-80.84 64.138-10.69z" stroke="#089CFF" stroke-width=".052" stroke-miterlimit="10"/></g><path d="M216.952 96.577l-78.836 80.84-64.138 10.69 78.836-80.84 64.138-10.69z" stroke="#089CFF" stroke-width=".209" stroke-miterlimit="10"/><mask id="mask5_118_467" style="mask-type:luminance" maskUnits="userSpaceOnUse" x="0" y="81" width="139" height="108"><path d="M138.116 177.417l-64.137 10.69L.489 92.569l64.137-10.69 73.49 95.538z" fill="#fff"/></mask><g mask="url(#mask5_118_467)"><path d="M138.116 177.417l-64.137 10.69L.489 92.569l64.137-10.69 73.49 95.538z" stroke="#089CFF" stroke-width=".052" stroke-miterlimit="10"/></g><path d="M138.116 177.417l-64.137 10.69L.489 92.569l64.137-10.69 73.49 95.538z" stroke="#089CFF" stroke-width=".209" stroke-miterlimit="10"/><mask id="mask6_118_467" style="mask-type:luminance" maskUnits="userSpaceOnUse" x="79" y="1" width="138" height="107"><path d="M216.96 96.578l-64.137 10.689-73.491-95.538 64.137-10.021 73.491 94.87z" fill="#fff"/></mask><g mask="url(#mask6_118_467)"><path d="M216.96 96.578l-64.137 10.689-73.491-95.538 64.137-10.021 73.491 94.87z" stroke="#089CFF" stroke-width=".052" stroke-miterlimit="10"/></g><path d="M216.956 96.578l-64.137 10.689-73.49-95.538 64.137-10.021 73.49 94.87z" stroke="#089CFF" stroke-width=".209" stroke-miterlimit="10"/><mask id="mask7_118_467" style="mask-type:luminance" maskUnits="userSpaceOnUse" x="1" y="1" width="143" height="92"><path d="M143.459 1.708L65.292 81.879 1.154 92.57l78.168-80.84 64.137-10.021z" fill="#fff"/></mask><g mask="url(#mask7_118_467)"><path d="M143.459 1.708L65.292 81.879 1.154 92.57l78.168-80.84 64.137-10.021z" stroke="#089CFF" stroke-width=".052" stroke-miterlimit="10"/></g><path d="M143.459 1.708L65.292 81.879 1.154 92.57l78.168-80.84 64.137-10.021z" stroke="#089CFF" stroke-width=".209" stroke-miterlimit="10"/><mask id="mask8_118_467" style="mask-type:luminance" maskUnits="userSpaceOnUse" x="1" y="81" width="138" height="107"><path d="M65.292 81.88l72.822 95.537-63.469 10.022-73.49-94.87 64.137-10.69z" fill="#fff"/></mask><g mask="url(#mask8_118_467)"><path d="M65.292 81.88l72.822 95.537-63.469 10.022-73.49-94.87 64.137-10.69z" stroke="#089CFF" stroke-width=".052" stroke-miterlimit="10"/></g><path d="M65.292 81.88l72.822 95.537-63.469 10.022-73.49-94.87 64.137-10.69z" stroke="#089CFF" stroke-width=".209" stroke-miterlimit="10"/><mask id="mask9_118_467" style="mask-type:luminance" maskUnits="userSpaceOnUse" x="74" y="96" width="143" height="92"><path d="M138.116 177.417l-63.47 10.022 78.168-80.172 64.137-10.69-78.835 80.84z" fill="#fff"/></mask><g mask="url(#mask9_118_467)"><path d="M138.116 177.417l-63.47 10.022 78.168-80.172 64.137-10.69-78.835 80.84z" stroke="#089CFF" stroke-width=".052" stroke-miterlimit="10"/></g><path d="M138.114 177.417l-63.47 10.022 78.168-80.172 64.137-10.69-78.835 80.84z" stroke="#089CFF" stroke-width=".209" stroke-miterlimit="10"/><path d="M67.97 79.875c1.336 2.004.668 4.008-1.336 5.345-2.005 1.336-4.009.668-5.345-1.336-1.336-2.005-.668-4.009 1.336-5.345 2.004-1.336 4.009 0 5.345 1.336z" fill="url(#paint0_radial_118_467)"/><path d="M82.663 9.725c1.337 2.004.668 4.008-1.336 5.345-2.004 1.336-4.008.668-5.345-1.337-1.336-2.004-.668-4.008 1.337-5.345 2.004-.668 4.008 0 5.344 1.337z" fill="url(#paint1_radial_118_467)"/><path d="M220.302 94.573c1.336 2.005.668 4.009-1.336 5.345-2.005 1.336-4.009.668-5.345-1.336-1.336-2.004-.668-4.009 1.336-5.345 2.004-1.336 4.009-.668 5.345 1.336z" fill="url(#paint2_radial_118_467)"/><path d="M155.487 105.263c1.337 2.004.669 4.008-1.336 5.344-2.004 1.337-4.008.669-5.345-1.336-1.336-2.004-.668-4.008 1.337-5.345 2.004-.668 4.676-.668 5.344 1.337z" fill="url(#paint3_radial_118_467)"/><path d="M141.46 175.413c1.336 2.004.668 4.008-1.336 5.345-2.004 1.336-4.009.668-5.345-1.337-1.336-2.004-.668-4.008 1.336-5.344 2.005-.668 4.677-.668 5.345 1.336z" fill="url(#paint4_radial_118_467)"/><path d="M77.325 186.102c1.337 2.005.668 4.009-1.336 5.345-2.004 1.336-4.008.668-5.345-1.336-1.336-2.004-.668-4.009 1.337-5.345 2.004-1.336 4.008-.668 5.344 1.336z" fill="url(#paint5_radial_118_467)"/><defs><radialGradient id="paint0_radial_118_467" cx="0" cy="0" r="1" gradientUnits="userSpaceOnUse" gradientTransform="rotate(-33.159 170.54 -67.827) scale(3.73287)"><stop offset=".327" stop-color="#fff"/><stop offset=".43" stop-color="#2DBEFF"/><stop offset="1"/></radialGradient><radialGradient id="paint1_radial_118_467" cx="0" cy="0" r="1" gradientUnits="userSpaceOnUse" gradientTransform="rotate(-33.159 59.747 -127.324) scale(3.73288)"><stop offset=".327" stop-color="#fff"/><stop offset=".43" stop-color="#2DBEFF"/><stop offset="1"/></radialGradient><radialGradient id="paint2_radial_118_467" cx="0" cy="0" r="1" gradientUnits="userSpaceOnUse" gradientTransform="rotate(-33.159 270.807 -316.165) scale(3.73287)"><stop offset=".327" stop-color="#fff"/><stop offset=".43" stop-color="#2DBEFF"/><stop offset="1"/></radialGradient><radialGradient id="paint3_radial_118_467" cx="0" cy="0" r="1" gradientUnits="userSpaceOnUse" gradientTransform="rotate(-33.159 256.455 -202.64) scale(3.73287)"><stop offset=".327" stop-color="#fff"/><stop offset=".43" stop-color="#2DBEFF"/><stop offset="1"/></radialGradient><radialGradient id="paint4_radial_118_467" cx="0" cy="0" r="1" gradientUnits="userSpaceOnUse" gradientTransform="matrix(3.125 -2.04177 2.04176 3.12498 138.579 177.346)"><stop offset=".327" stop-color="#fff"/><stop offset=".43" stop-color="#2DBEFF"/><stop offset="1"/></radialGradient><radialGradient id="paint5_radial_118_467" cx="0" cy="0" r="1" gradientUnits="userSpaceOnUse" gradientTransform="matrix(3.125 -2.04175 2.04175 3.125 74.313 187.88)"><stop offset=".327" stop-color="#fff"/><stop offset=".43" stop-color="#2DBEFF"/><stop offset="1"/></radialGradient></defs></svg>