<svg width="160" height="177" fill="none" xmlns="http://www.w3.org/2000/svg"><mask id="mask0_118_255" style="mask-type:luminance" maskUnits="userSpaceOnUse" x="18" y="3" width="139" height="118"><path d="M118.937 3.92l37.414 90.194L55.468 120.17 18.055 29.976 118.937 3.921zM55.468 118.834l100.215-25.387L118.937 3.92 18.723 29.308l36.745 89.525z" fill="#fff"/></mask><g mask="url(#mask0_118_255)"><path d="M118.937 3.92l37.414 90.194L55.468 120.17 18.055 29.976 118.937 3.921zm0 0l36.746 89.526-100.215 25.387-36.745-89.525L118.937 3.921z" stroke="#089CFF" stroke-width=".045" stroke-miterlimit="10"/></g><path d="M118.939 3.92l37.414 90.194L55.47 120.17 18.057 29.976 118.939 3.921zM55.47 118.834l100.215-25.387L118.939 3.92 18.725 29.308l36.745 89.525z" stroke="#089CFF" stroke-width=".18" stroke-miterlimit="10"/><mask id="mask1_118_255" style="mask-type:luminance" maskUnits="userSpaceOnUse" x="4" y="58" width="139" height="117"><path d="M105.582 58.037l37.413 90.193-100.882 26.056L4.699 84.092l100.883-26.055zM41.445 173.618l100.214-25.388-36.745-89.525L4.699 84.092l36.746 89.526z" fill="#fff"/></mask><g mask="url(#mask1_118_255)"><path d="M4.7 84.092l37.413 90.194 100.882-26.056-37.413-90.193L4.699 84.092zm0 0l100.214-25.387 36.745 89.525-100.214 25.388L4.699 84.092z" stroke="#089CFF" stroke-width=".045" stroke-miterlimit="10"/></g><path d="M105.58 58.037l37.414 90.193-100.883 26.056L4.697 84.092 105.58 58.037zM41.443 173.618l100.214-25.388-36.745-89.525L4.697 84.092l36.746 89.526z" stroke="#089CFF" stroke-width=".18" stroke-miterlimit="10"/><mask id="mask2_118_255" style="mask-type:luminance" maskUnits="userSpaceOnUse" x="105" y="3" width="52" height="145"><path d="M105.576 58.036l13.362-54.115 37.414 89.525-14.03 54.116-36.746-89.526z" fill="#fff"/></mask><g mask="url(#mask2_118_255)"><path d="M105.576 58.037L118.938 3.92l37.414 89.525-14.03 54.116-36.746-89.525z" stroke="#089CFF" stroke-width=".045" stroke-miterlimit="10"/></g><path d="M105.576 58.037L118.938 3.92l37.414 89.525-14.03 54.116-36.746-89.525z" stroke="#089CFF" stroke-width=".18" stroke-miterlimit="10"/><mask id="mask3_118_255" style="mask-type:luminance" maskUnits="userSpaceOnUse" x="41" y="93" width="116" height="81"><path d="M142.322 147.562L41.44 173.617l14.03-54.115 100.882-26.056-14.03 54.116z" fill="#fff"/></mask><g mask="url(#mask3_118_255)"><path d="M142.322 147.562L41.44 173.617l14.03-54.115 100.882-26.056-14.03 54.116z" stroke="#089CFF" stroke-width=".045" stroke-miterlimit="10"/></g><path d="M142.324 147.562L41.441 173.617l14.03-54.115 100.883-26.056-14.03 54.116z" stroke="#089CFF" stroke-width=".18" stroke-miterlimit="10"/><mask id="mask4_118_255" style="mask-type:luminance" maskUnits="userSpaceOnUse" x="4" y="29" width="52" height="145"><path d="M41.445 173.617L4.699 83.424l13.362-54.116 37.414 90.193-14.03 54.116z" fill="#fff"/></mask><g mask="url(#mask4_118_255)"><path d="M41.445 173.617L4.699 83.424l13.362-54.116 37.414 90.194-14.03 54.115z" stroke="#089CFF" stroke-width=".045" stroke-miterlimit="10"/></g><path d="M41.443 173.617L4.697 83.424 18.06 29.308l37.414 90.193-14.03 54.116z" stroke="#089CFF" stroke-width=".18" stroke-miterlimit="10"/><mask id="mask5_118_255" style="mask-type:luminance" maskUnits="userSpaceOnUse" x="4" y="3" width="115" height="81"><path d="M4.7 83.424l13.36-54.116L118.944 3.921l-13.362 54.116L4.699 83.424z" fill="#fff"/></mask><g mask="url(#mask5_118_255)"><path d="M4.7 83.424l13.36-54.116L118.944 3.921l-13.362 54.116L4.699 83.424z" stroke="#089CFF" stroke-width=".045" stroke-miterlimit="10"/></g><path d="M4.697 83.424L18.06 29.308 118.942 3.921 105.58 58.037 4.697 83.424z" stroke="#089CFF" stroke-width=".18" stroke-miterlimit="10"/><mask id="mask6_118_255" style="mask-type:luminance" maskUnits="userSpaceOnUse" x="41" y="93" width="115" height="81"><path d="M41.44 173.617l14.03-54.784 100.214-25.387-13.362 54.116L41.44 173.617z" fill="#fff"/></mask><g mask="url(#mask6_118_255)"><path d="M41.44 173.617l14.03-54.784 100.214-25.387-13.362 54.116L41.44 173.617z" stroke="#089CFF" stroke-width=".045" stroke-miterlimit="10"/></g><path d="M41.441 173.617l14.03-54.784 100.215-25.387-13.362 54.116-100.883 26.055z" stroke="#089CFF" stroke-width=".18" stroke-miterlimit="10"/><mask id="mask7_118_255" style="mask-type:luminance" maskUnits="userSpaceOnUse" x="104" y="3" width="52" height="145"><path d="M142.324 147.562L104.91 58.037 118.94 3.92l36.746 89.525-13.362 54.116z" fill="#fff"/></mask><g mask="url(#mask7_118_255)"><path d="M142.324 147.562L104.91 58.037 118.94 3.92l36.746 89.525-13.362 54.116z" stroke="#089CFF" stroke-width=".045" stroke-miterlimit="10"/></g><path d="M142.324 147.562L104.91 58.037 118.94 3.92l36.746 89.525-13.362 54.116z" stroke="#089CFF" stroke-width=".18" stroke-miterlimit="10"/><mask id="mask8_118_255" style="mask-type:luminance" maskUnits="userSpaceOnUse" x="4" y="3" width="115" height="82"><path d="M104.914 58.037L4.699 84.092l14.03-54.784L118.944 3.921l-14.03 54.116z" fill="#fff"/></mask><g mask="url(#mask8_118_255)"><path d="M104.914 58.037L4.699 84.092l14.03-54.784L118.944 3.921l-14.03 54.116z" stroke="#089CFF" stroke-width=".045" stroke-miterlimit="10"/></g><path d="M104.912 58.037L4.697 84.092l14.03-54.784L118.942 3.921l-14.03 54.116z" stroke="#089CFF" stroke-width=".18" stroke-miterlimit="10"/><mask id="mask9_118_255" style="mask-type:luminance" maskUnits="userSpaceOnUse" x="4" y="29" width="52" height="145"><path d="M4.7 84.092l14.03-54.784 36.745 89.525-14.03 54.784L4.699 84.092z" fill="#fff"/></mask><g mask="url(#mask9_118_255)"><path d="M4.7 84.092l14.03-54.784 36.745 89.525-14.03 54.784L4.699 84.092z" stroke="#089CFF" stroke-width=".045" stroke-miterlimit="10"/></g><path d="M4.697 84.092l14.03-54.784 36.746 89.525-14.03 54.784L4.697 84.092z" stroke="#089CFF" stroke-width=".18" stroke-miterlimit="10"/><path d="M106.909 60.709c-1.337 1.336-3.341 1.336-4.677.668-1.336-1.336-1.336-3.34-.668-4.677.668-1.336 3.34-1.336 4.677-.668 2.004 1.337 2.004 3.34.668 4.677z" fill="url(#paint0_radial_118_255)"/><path d="M20.721 31.313c-1.336 1.336-3.34 1.336-4.677.668-1.336-1.337-1.336-3.34-.668-4.677 1.336-1.336 3.34-1.336 4.677-.668 2.004 1.336 2.004 3.34.668 4.677z" fill="url(#paint1_radial_118_255)"/><path d="M121.602 5.925c-1.336 1.336-3.341 1.336-4.677.668-1.336-1.336-1.336-3.34-.668-4.677 1.336-1.336 3.341-1.336 4.677-.668 1.336 1.336 1.336 3.34.668 4.677z" fill="url(#paint2_radial_118_255)"/><path d="M158.346 95.45c-1.336 1.336-3.34 1.336-4.677.668-1.336-1.336-1.336-3.34-.668-4.677 1.337-1.336 3.341-1.336 4.677-.668 1.336 1.336 2.004 3.34.668 4.677z" fill="url(#paint3_radial_118_255)"/><path d="M57.467 121.506c-1.336 1.336-3.34 1.336-4.676.668-1.337-1.336-1.337-3.341-.669-4.677.669-1.336 3.34-1.336 4.677-.668 2.004 1.336 2.004 3.341.668 4.677z" fill="url(#paint4_radial_118_255)"/><path d="M44.104 175.622c-1.336 1.336-3.34 1.336-4.677.668-1.336-1.336-1.336-3.341-.668-4.677 1.336-1.336 3.34-1.336 4.677-.668 2.004 1.336 2.004 3.34.668 4.677z" fill="url(#paint5_radial_118_255)"/><path d="M6.694 86.097c-1.336 1.336-3.34 1.336-4.677.668-1.336-1.337-1.336-3.34-.668-4.677 1.336-1.336 3.34-1.336 4.677-.668 2.004.668 2.004 3.34.668 4.677z" fill="url(#paint6_radial_118_255)"/><defs><radialGradient id="paint0_radial_118_255" cx="0" cy="0" r="1" gradientUnits="userSpaceOnUse" gradientTransform="rotate(40.352 -27.58 171.732) scale(3.22098)"><stop offset=".327" stop-color="#fff"/><stop offset=".43" stop-color="#2DBEFF"/><stop offset="1"/></radialGradient><radialGradient id="paint1_radial_118_255" cx="0" cy="0" r="1" gradientUnits="userSpaceOnUse" gradientTransform="rotate(40.352 -30.831 39.792) scale(3.22098)"><stop offset=".327" stop-color="#fff"/><stop offset=".43" stop-color="#2DBEFF"/><stop offset="1"/></radialGradient><radialGradient id="paint2_radial_118_255" cx="0" cy="0" r="1" gradientUnits="userSpaceOnUse" gradientTransform="rotate(40.352 54.263 163.58) scale(3.22099)"><stop offset=".327" stop-color="#fff"/><stop offset=".43" stop-color="#2DBEFF"/><stop offset="1"/></radialGradient><radialGradient id="paint3_radial_118_255" cx="0" cy="0" r="1" gradientUnits="userSpaceOnUse" gradientTransform="matrix(2.45466 2.08553 -2.08553 2.45465 155.824 93.394)"><stop offset=".327" stop-color="#fff"/><stop offset=".43" stop-color="#2DBEFF"/><stop offset="1"/></radialGradient><radialGradient id="paint4_radial_118_255" cx="0" cy="0" r="1" gradientUnits="userSpaceOnUse" gradientTransform="rotate(40.352 -134.58 134.898) scale(3.22165)"><stop offset=".327" stop-color="#fff"/><stop offset=".43" stop-color="#2DBEFF"/><stop offset="1"/></radialGradient><radialGradient id="paint5_radial_118_255" cx="0" cy="0" r="1" gradientUnits="userSpaceOnUse" gradientTransform="rotate(40.352 -215.092 143.533) scale(3.22098)"><stop offset=".327" stop-color="#fff"/><stop offset=".43" stop-color="#2DBEFF"/><stop offset="1"/></radialGradient><radialGradient id="paint6_radial_118_255" cx="0" cy="0" r="1" gradientUnits="userSpaceOnUse" gradientTransform="rotate(40.352 -111.626 48.021) scale(3.22098)"><stop offset=".327" stop-color="#fff"/><stop offset=".43" stop-color="#2DBEFF"/><stop offset="1"/></radialGradient></defs></svg>