<svg width="192" height="171" fill="none" xmlns="http://www.w3.org/2000/svg"><mask id="mask0_118_184" style="mask-type:luminance" maskUnits="userSpaceOnUse" x="4" y="3" width="131" height="125"><path d="M19.495 5.446L134.408 3.44l-15.366 121.594L4.129 127.04 19.495 5.446zm99.547 120.257L134.408 4.11 20.163 6.114 4.13 127.04l114.913-1.337z" fill="#fff"/></mask><g mask="url(#mask0_118_184)"><path d="M4.129 127.04l114.913-2.005L134.408 3.441 19.495 5.446 4.13 127.04zm0 0L20.163 6.114 134.408 4.11l-15.366 121.593L4.129 127.04z" stroke="#089CFF" stroke-width=".053" stroke-miterlimit="10"/></g><path d="M19.497 5.446L134.41 3.44l-15.366 121.594L4.131 127.04 19.497 5.446zm99.547 120.257L134.41 4.11 20.165 6.114 4.131 127.04l114.913-1.337z" stroke="#089CFF" stroke-width=".213" stroke-miterlimit="10"/><mask id="mask1_118_184" style="mask-type:luminance" maskUnits="userSpaceOnUse" x="57" y="42" width="131" height="124"><path d="M72.948 44.195l114.913-2.004-15.366 121.594-114.913 2.004L72.948 44.195zm99.547 119.59l15.366-121.594-114.245 2.004L58.25 165.79l114.245-2.004z" fill="#fff"/></mask><g mask="url(#mask1_118_184)"><path d="M187.861 42.191L72.948 44.195 57.582 165.79l114.913-2.004m15.366-121.594l-15.366 121.594m15.366-121.594L73.616 44.195 58.25 165.79l114.245-2.004" stroke="#089CFF" stroke-width=".053" stroke-miterlimit="10"/></g><path d="M72.946 44.195l114.913-2.004-15.366 121.594-114.913 2.004L72.946 44.195zm99.547 119.59l15.366-121.594-114.245 2.004L58.249 165.79l114.245-2.004z" stroke="#089CFF" stroke-width=".213" stroke-miterlimit="10"/><mask id="mask2_118_184" style="mask-type:luminance" maskUnits="userSpaceOnUse" x="19" y="3" width="169" height="42"><path d="M72.95 44.195L19.502 5.445l114.913-2.004 53.448 38.75L72.95 44.195z" fill="#fff"/></mask><g mask="url(#mask2_118_184)"><path d="M72.95 44.196L19.502 5.446l114.913-2.004 53.448 38.75L72.95 44.195z" stroke="#089CFF" stroke-width=".053" stroke-miterlimit="10"/></g><path d="M72.95 44.195L19.502 5.445l114.913-2.004 53.448 38.75L72.95 44.195z" stroke="#089CFF" stroke-width=".213" stroke-miterlimit="10"/><mask id="mask3_118_184" style="mask-type:luminance" maskUnits="userSpaceOnUse" x="119" y="3" width="69" height="161"><path d="M187.853 42.191l-15.366 121.594-53.448-38.082L134.405 3.441l53.448 38.75z" fill="#fff"/></mask><g mask="url(#mask3_118_184)"><path d="M187.851 42.191l-15.366 121.594-53.448-38.082L134.403 3.442l53.448 38.75z" stroke="#089CFF" stroke-width=".053" stroke-miterlimit="10"/></g><path d="M187.853 42.191l-15.366 121.594-53.448-38.082L134.405 3.441l53.448 38.75z" stroke="#089CFF" stroke-width=".213" stroke-miterlimit="10"/><mask id="mask4_118_184" style="mask-type:luminance" maskUnits="userSpaceOnUse" x="4" y="125" width="169" height="41"><path d="M172.49 163.785l-114.913 2.004-53.448-38.081 114.913-2.005 53.448 38.082z" fill="#fff"/></mask><g mask="url(#mask4_118_184)"><path d="M172.49 163.785l-114.913 2.004-53.448-38.081 114.913-2.005 53.448 38.082z" stroke="#089CFF" stroke-width=".053" stroke-miterlimit="10"/></g><path d="M172.492 163.785l-114.913 2.004L4.13 127.708l114.913-2.005 53.448 38.082z" stroke="#089CFF" stroke-width=".213" stroke-miterlimit="10"/><mask id="mask5_118_184" style="mask-type:luminance" maskUnits="userSpaceOnUse" x="4" y="5" width="69" height="161"><path d="M57.577 165.789L4.129 127.708 19.495 5.446l53.448 38.75-15.366 121.593z" fill="#fff"/></mask><g mask="url(#mask5_118_184)"><path d="M57.577 165.789L4.129 127.708 19.495 5.446l53.448 38.75-15.366 121.593z" stroke="#089CFF" stroke-width=".053" stroke-miterlimit="10"/></g><path d="M57.579 165.789L4.13 127.708 19.497 5.446l53.448 38.75-15.366 121.593z" stroke="#089CFF" stroke-width=".213" stroke-miterlimit="10"/><mask id="mask6_118_184" style="mask-type:luminance" maskUnits="userSpaceOnUse" x="119" y="4" width="69" height="160"><path d="M172.487 163.785l-53.448-38.082L133.737 4.11l54.116 38.081-15.366 121.594z" fill="#fff"/></mask><g mask="url(#mask6_118_184)"><path d="M172.485 163.785l-53.448-38.082L133.735 4.11l54.116 38.081-15.366 121.594z" stroke="#089CFF" stroke-width=".053" stroke-miterlimit="10"/></g><path d="M172.487 163.785l-53.448-38.082L133.737 4.11l54.116 38.081-15.366 121.594z" stroke="#089CFF" stroke-width=".213" stroke-miterlimit="10"/><mask id="mask7_118_184" style="mask-type:luminance" maskUnits="userSpaceOnUse" x="19" y="4" width="169" height="41"><path d="M187.863 42.191L72.95 44.195 19.502 6.114 133.747 4.11l54.116 38.081z" fill="#fff"/></mask><g mask="url(#mask7_118_184)"><path d="M187.863 42.191L72.95 44.196 19.502 6.114 133.747 4.11l54.116 38.081z" stroke="#089CFF" stroke-width=".053" stroke-miterlimit="10"/></g><path d="M187.863 42.191L72.95 44.195 19.502 6.114 133.747 4.11l54.116 38.081z" stroke="#089CFF" stroke-width=".213" stroke-miterlimit="10"/><mask id="mask8_118_184" style="mask-type:luminance" maskUnits="userSpaceOnUse" x="4" y="6" width="69" height="160"><path d="M72.943 44.195L58.245 165.79 4.129 127.04 19.495 6.114l53.448 38.081z" fill="#fff"/></mask><g mask="url(#mask8_118_184)"><path d="M72.943 44.195L58.245 165.79 4.129 127.04 19.495 6.114l53.448 38.081z" stroke="#089CFF" stroke-width=".053" stroke-miterlimit="10"/></g><path d="M72.945 44.195L58.247 165.79 4.13 127.039 19.497 6.114l53.448 38.081z" stroke="#089CFF" stroke-width=".213" stroke-miterlimit="10"/><mask id="mask9_118_184" style="mask-type:luminance" maskUnits="userSpaceOnUse" x="4" y="125" width="169" height="41"><path d="M58.245 165.789L4.129 127.04l114.913-1.337 53.448 38.082-114.245 2.004z" fill="#fff"/></mask><g mask="url(#mask9_118_184)"><path d="M58.245 165.789L4.129 127.04l114.913-1.337 53.448 38.082-114.245 2.004z" stroke="#089CFF" stroke-width=".053" stroke-miterlimit="10"/></g><path d="M58.247 165.789L4.13 127.04l114.913-1.337 53.448 38.082-114.245 2.004z" stroke="#089CFF" stroke-width=".213" stroke-miterlimit="10"/><path d="M76.957 43.527c.668 2.005 0 4.009-1.336 5.345-2.005.668-4.009 0-5.345-1.336-.668-2.004 0-4.009 1.336-5.345 2.004-1.336 4.677-.668 5.345 1.336z" fill="url(#paint0_radial_118_184)"/><path d="M7.472 125.703c.668 2.005 0 4.009-1.336 5.345-2.004.668-4.008 0-5.345-1.336-.668-2.004 0-4.009 1.337-5.345 2.004-1.336 4.676-.668 5.344 1.336z" fill="url(#paint1_radial_118_184)"/><path d="M22.843 4.11c.669 2.004 0 4.008-1.336 5.344-2.004.668-4.008 0-5.345-1.336-.668-2.004 0-4.009 1.337-5.345 2.004-1.336 4.008-.668 5.345 1.336z" fill="url(#paint2_radial_118_184)"/><path d="M137.086 2.105c.668 2.005 0 4.009-1.337 5.345-2.004.668-4.008 0-5.344-1.336-.668-2.004 0-4.009 1.336-5.345 2.004-1.336 4.677-.668 5.345 1.336z" fill="url(#paint3_radial_118_184)"/><path d="M191.199 40.855c.668 2.004 0 4.008-1.336 5.345-2.005.668-4.009 0-5.345-1.337-.668-2.004 0-4.008 1.336-5.344 2.005-1.337 4.009-.669 5.345 1.336z" fill="url(#paint4_radial_118_184)"/><path d="M122.381 123.699c.668 2.004-.001 4.009-1.337 5.345-2.004.668-4.008 0-5.344-1.336-.668-2.005 0-4.009 1.336-5.345 2.004-1.336 4.008-.668 5.345 1.336z" fill="url(#paint5_radial_118_184)"/><path d="M175.828 161.781c.668 2.004 0 4.008-1.336 5.344-2.005.668-4.009 0-5.345-1.336-.668-2.004 0-4.008 1.336-5.345 2.004-.668 4.677 0 5.345 1.337z" fill="url(#paint6_radial_118_184)"/><path d="M60.922 164.453c.668 2.005 0 4.009-1.337 5.345-2.004.668-4.008 0-5.344-1.336-.669-2.004 0-4.009 1.336-5.345 2.672-1.336 4.677-.668 5.345 1.336z" fill="url(#paint7_radial_118_184)"/><defs><radialGradient id="paint0_radial_118_184" cx="0" cy="0" r="1" gradientUnits="userSpaceOnUse" gradientTransform="matrix(3.35399 -1.79917 1.79916 3.35398 73.624 45.208)"><stop offset=".327" stop-color="#fff"/><stop offset=".43" stop-color="#2DBEFF"/><stop offset="1"/></radialGradient><radialGradient id="paint1_radial_118_184" cx="0" cy="0" r="1" gradientUnits="userSpaceOnUse" gradientTransform="rotate(-28.21 255.515 55.357) scale(3.80607)"><stop offset=".327" stop-color="#fff"/><stop offset=".43" stop-color="#2DBEFF"/><stop offset="1"/></radialGradient><radialGradient id="paint2_radial_118_184" cx="0" cy="0" r="1" gradientUnits="userSpaceOnUse" gradientTransform="rotate(-28.21 21.348 -35.557) scale(3.80608)"><stop offset=".327" stop-color="#fff"/><stop offset=".43" stop-color="#2DBEFF"/><stop offset="1"/></radialGradient><radialGradient id="paint3_radial_118_184" cx="0" cy="0" r="1" gradientUnits="userSpaceOnUse" gradientTransform="rotate(-28.21 74.654 -264.447) scale(3.80608)"><stop offset=".327" stop-color="#fff"/><stop offset=".43" stop-color="#2DBEFF"/><stop offset="1"/></radialGradient><radialGradient id="paint4_radial_118_184" cx="0" cy="0" r="1" gradientUnits="userSpaceOnUse" gradientTransform="matrix(3.35399 -1.79915 1.79915 3.354 187.77 42.397)"><stop offset=".327" stop-color="#fff"/><stop offset=".43" stop-color="#2DBEFF"/><stop offset="1"/></radialGradient><radialGradient id="paint5_radial_118_184" cx="0" cy="0" r="1" gradientUnits="userSpaceOnUse" gradientTransform="rotate(-28.21 309.298 -173.757) scale(3.80607)"><stop offset=".327" stop-color="#fff"/><stop offset=".43" stop-color="#2DBEFF"/><stop offset="1"/></radialGradient><radialGradient id="paint6_radial_118_184" cx="0" cy="0" r="1" gradientUnits="userSpaceOnUse" gradientTransform="rotate(-28.21 412.414 -261.518) scale(3.80607 3.80608)"><stop offset=".327" stop-color="#fff"/><stop offset=".43" stop-color="#2DBEFF"/><stop offset="1"/></radialGradient><radialGradient id="paint7_radial_118_184" cx="0" cy="0" r="1" gradientUnits="userSpaceOnUse" gradientTransform="rotate(-28.21 359.413 -32.105) scale(3.80607)"><stop offset=".327" stop-color="#fff"/><stop offset=".43" stop-color="#2DBEFF"/><stop offset="1"/></radialGradient></defs></svg>