<svg width="218" height="211" fill="none" xmlns="http://www.w3.org/2000/svg"><mask id="mask0_118_396" style="mask-type:luminance" maskUnits="userSpaceOnUse" x="0" y="32" width="154" height="175"><path d="M.277 133.252L55.061 32.37l98.879 73.49-54.784 100.883L.277 133.252zm152.995-27.392l-98.21-72.822L.276 133.92l98.21 72.822 54.785-100.883z" fill="#fff"/></mask><g mask="url(#mask0_118_396)"><path d="M.277 133.252L55.061 32.37l98.879 73.49-54.784 100.883L.277 133.252zm152.995-27.392l-98.21-72.822L.276 133.92l98.21 72.822 54.785-100.883z" stroke="#089CFF" stroke-width=".053" stroke-miterlimit="10"/></g><path d="M.273 133.253L55.057 32.37l98.879 73.491-54.784 100.882-98.879-73.49zm152.995-27.392l-98.21-72.823L.272 133.92l98.21 72.822 54.785-100.882z" stroke="#089CFF" stroke-width=".213" stroke-miterlimit="10"/><mask id="mask1_118_396" style="mask-type:luminance" maskUnits="userSpaceOnUse" x="60" y="4" width="155" height="175"><path d="M60.398 105.86L115.182 4.31l98.879 73.49-54.784 100.883-98.879-72.823zM213.393 77.8L115.182 4.978 60.398 105.86l98.211 72.823L213.393 77.8z" fill="#fff"/></mask><g mask="url(#mask1_118_396)"><path d="M60.398 105.86L115.182 4.31l98.879 73.49-54.784 100.883-98.879-72.823zm0 0L115.182 4.978 213.393 77.8l-54.784 100.883-98.21-72.823z" stroke="#089CFF" stroke-width=".053" stroke-miterlimit="10"/></g><path d="M60.4 105.86L115.184 4.31l98.879 73.49-54.784 100.883L60.4 105.86zM213.395 77.8L115.184 4.978 60.4 105.86l98.211 72.823L213.395 77.8z" stroke="#089CFF" stroke-width=".213" stroke-miterlimit="10"/><mask id="mask2_118_396" style="mask-type:luminance" maskUnits="userSpaceOnUse" x="0" y="4" width="116" height="130"><path d="M60.406 105.86L.277 133.252 55.061 32.37 115.19 4.31 60.406 105.86z" fill="#fff"/></mask><g mask="url(#mask2_118_396)"><path d="M60.406 105.86L.277 133.252 55.061 32.37 115.19 4.31 60.406 105.86z" stroke="#089CFF" stroke-width=".053" stroke-miterlimit="10"/></g><path d="M60.402 105.86L.273 133.252 55.057 32.37l60.129-28.06-54.784 101.55z" stroke="#089CFF" stroke-width=".213" stroke-miterlimit="10"/><mask id="mask3_118_396" style="mask-type:luminance" maskUnits="userSpaceOnUse" x="55" y="4" width="159" height="102"><path d="M115.182 4.31l98.21 73.49-60.129 28.06-98.21-73.49 60.129-28.06z" fill="#fff"/></mask><g mask="url(#mask3_118_396)"><path d="M115.182 4.31l98.21 73.49-60.129 28.06-98.21-73.49 60.129-28.06z" stroke="#089CFF" stroke-width=".053" stroke-miterlimit="10"/></g><path d="M115.18 4.31l98.21 73.49-60.129 28.06-98.21-73.49L115.18 4.31z" stroke="#089CFF" stroke-width=".213" stroke-miterlimit="10"/><mask id="mask4_118_396" style="mask-type:luminance" maskUnits="userSpaceOnUse" x="98" y="77" width="116" height="130"><path d="M213.387 77.8l-54.784 100.883-60.128 28.06 54.784-100.883 60.128-28.06z" fill="#fff"/></mask><g mask="url(#mask4_118_396)"><path d="M213.387 77.8l-54.784 100.883-60.128 28.06 54.784-100.883 60.128-28.06z" stroke="#089CFF" stroke-width=".053" stroke-miterlimit="10"/></g><path d="M213.391 77.8l-54.784 100.883-60.129 28.06 54.785-100.883 60.128-28.06z" stroke="#089CFF" stroke-width=".213" stroke-miterlimit="10"/><mask id="mask5_118_396" style="mask-type:luminance" maskUnits="userSpaceOnUse" x="0" y="105" width="159" height="102"><path d="M158.617 178.683l-60.13 28.06-98.21-73.491 60.13-27.392 98.21 72.823z" fill="#fff"/></mask><g mask="url(#mask5_118_396)"><path d="M158.617 178.683l-60.13 28.06-98.21-73.49 60.13-27.392 98.21 72.822z" stroke="#089CFF" stroke-width=".053" stroke-miterlimit="10"/></g><path d="M158.613 178.683l-60.13 28.06-98.21-73.491 60.13-27.392 98.21 72.823z" stroke="#089CFF" stroke-width=".213" stroke-miterlimit="10"/><mask id="mask6_118_396" style="mask-type:luminance" maskUnits="userSpaceOnUse" x="55" y="4" width="159" height="102"><path d="M213.392 77.8l-60.129 28.06-98.21-72.822 60.129-28.06 98.21 72.822z" fill="#fff"/></mask><g mask="url(#mask6_118_396)"><path d="M213.392 77.8l-60.129 28.06-98.21-72.822 60.129-28.06 98.21 72.822z" stroke="#089CFF" stroke-width=".053" stroke-miterlimit="10"/></g><path d="M213.39 77.8l-60.129 28.06-98.21-72.822 60.129-28.06L213.39 77.8z" stroke="#089CFF" stroke-width=".213" stroke-miterlimit="10"/><mask id="mask7_118_396" style="mask-type:luminance" maskUnits="userSpaceOnUse" x="0" y="4" width="116" height="130"><path d="M115.19 4.978L60.406 105.192.277 133.252 55.061 33.038l60.129-28.06z" fill="#fff"/></mask><g mask="url(#mask7_118_396)"><path d="M115.19 4.978L60.406 105.192.277 133.252 55.061 33.038l60.129-28.06z" stroke="#089CFF" stroke-width=".053" stroke-miterlimit="10"/></g><path d="M115.186 4.978L60.402 105.192.273 133.252 55.057 33.038l60.129-28.06z" stroke="#089CFF" stroke-width=".213" stroke-miterlimit="10"/><mask id="mask8_118_396" style="mask-type:luminance" maskUnits="userSpaceOnUse" x="0" y="105" width="159" height="102"><path d="M60.406 105.192l98.211 73.491-60.13 28.06-98.21-73.491 60.13-28.06z" fill="#fff"/></mask><g mask="url(#mask8_118_396)"><path d="M60.406 105.192l98.211 73.491-60.13 28.06-98.21-73.491 60.13-28.06z" stroke="#089CFF" stroke-width=".053" stroke-miterlimit="10"/></g><path d="M60.402 105.192l98.211 73.491-60.13 28.06-98.21-73.491 60.13-28.06z" stroke="#089CFF" stroke-width=".213" stroke-miterlimit="10"/><mask id="mask9_118_396" style="mask-type:luminance" maskUnits="userSpaceOnUse" x="98" y="77" width="116" height="130"><path d="M158.603 178.683l-60.128 28.06 54.784-100.883 60.128-28.06-54.784 100.883z" fill="#fff"/></mask><g mask="url(#mask9_118_396)"><path d="M158.603 178.683l-60.128 28.06 54.784-100.883 60.128-28.06-54.784 100.883z" stroke="#089CFF" stroke-width=".053" stroke-miterlimit="10"/></g><path d="M158.607 178.683l-60.129 28.06 54.785-100.883 60.128-28.06-54.784 100.883z" stroke="#089CFF" stroke-width=".213" stroke-miterlimit="10"/><path d="M63.08 102.52c1.337 1.336 2.005 4.009.669 5.345-1.336 1.336-4.009 2.004-5.345.668-1.336-1.336-2.004-4.009-.668-5.345 1.336-1.336 3.34-2.004 5.345-.668z" fill="url(#paint0_radial_118_396)"/><path d="M57.731 29.697c1.337 1.336 2.005 4.009.668 5.345-1.336 1.336-4.008 2.004-5.344.668-1.337-1.336-2.005-4.009-.669-5.345 1.337-2.004 4.01-2.004 5.345-.668z" fill="url(#paint1_radial_118_396)"/><path d="M117.86 1.637c1.336 1.336 2.005 4.009.668 5.345-1.336 1.336-4.008 2.004-5.344.668-1.337-1.336-2.005-4.008-.669-5.345 1.337-1.336 3.341-2.004 5.345-.668z" fill="url(#paint2_radial_118_396)"/><path d="M216.067 75.128c1.336 1.336 2.005 4.009.668 5.345-1.336 1.336-4.008 2.004-5.344.668-1.337-1.336-2.005-4.009-.669-5.345 1.337-2.004 4.009-2.004 5.345-.668z" fill="url(#paint3_radial_118_396)"/><path d="M155.936 103.188c1.337 1.336 2.005 4.009.668 5.345-1.336 1.336-4.008 2.004-5.344.668-1.336-1.336-2.005-4.009-.668-5.345 1.336-2.004 4.008-2.004 5.344-.668z" fill="url(#paint4_radial_118_396)"/><path d="M161.288 176.011c1.336 1.336 2.004 4.008.668 5.345-1.336 1.336-4.009 2.004-5.345.668-1.336-1.337-2.004-4.009-.668-5.345 1.336-1.336 4.009-2.004 5.345-.668z" fill="url(#paint5_radial_118_396)"/><path d="M101.159 204.071c1.336 1.336 2.004 4.008.668 5.345-1.336 1.336-4.008 2.004-5.345.668-1.336-1.336-2.004-4.009-.668-5.345 1.337-2.004 4.009-2.004 5.345-.668z" fill="url(#paint6_radial_118_396)"/><defs><radialGradient id="paint0_radial_118_396" cx="0" cy="0" r="1" gradientUnits="userSpaceOnUse" gradientTransform="rotate(-48.876 146.424 -13.557) scale(3.80621)"><stop offset=".327" stop-color="#fff"/><stop offset=".43" stop-color="#2DBEFF"/><stop offset="1"/></radialGradient><radialGradient id="paint1_radial_118_396" cx="0" cy="0" r="1" gradientUnits="userSpaceOnUse" gradientTransform="rotate(-48.876 63.515 -44.357) scale(3.80621 3.80622)"><stop offset=".327" stop-color="#fff"/><stop offset=".43" stop-color="#2DBEFF"/><stop offset="1"/></radialGradient><radialGradient id="paint2_radial_118_396" cx="0" cy="0" r="1" gradientUnits="userSpaceOnUse" gradientTransform="matrix(2.5033 -2.86717 2.86718 2.50332 115.102 4.828)"><stop offset=".327" stop-color="#fff"/><stop offset=".43" stop-color="#2DBEFF"/><stop offset="1"/></radialGradient><radialGradient id="paint3_radial_118_396" cx="0" cy="0" r="1" gradientUnits="userSpaceOnUse" gradientTransform="rotate(-48.876 192.4 -196.195) scale(3.80621)"><stop offset=".327" stop-color="#fff"/><stop offset=".43" stop-color="#2DBEFF"/><stop offset="1"/></radialGradient><radialGradient id="paint4_radial_118_396" cx="0" cy="0" r="1" gradientUnits="userSpaceOnUse" gradientTransform="matrix(2.5033 -2.86718 2.86717 2.5033 153.353 106.006)"><stop offset=".327" stop-color="#fff"/><stop offset=".43" stop-color="#2DBEFF"/><stop offset="1"/></radialGradient><radialGradient id="paint5_radial_118_396" cx="0" cy="0" r="1" gradientUnits="userSpaceOnUse" gradientTransform="rotate(-48.876 276.053 -85.56) scale(3.80621)"><stop offset=".327" stop-color="#fff"/><stop offset=".43" stop-color="#2DBEFF"/><stop offset="1"/></radialGradient><radialGradient id="paint6_radial_118_396" cx="0" cy="0" r="1" gradientUnits="userSpaceOnUse" gradientTransform="rotate(-48.876 276.874 -5.308) scale(3.80621)"><stop offset=".327" stop-color="#fff"/><stop offset=".43" stop-color="#2DBEFF"/><stop offset="1"/></radialGradient></defs></svg>