<svg width="1920" height="4615" fill="none" xmlns="http://www.w3.org/2000/svg"><g clip-path="url(#clip0_118_122)"><path fill="#0B071B" d="M0 0h1920v5266H0z"/><g opacity=".35"><path d="M0-386.857h1917.19c-.7 976.122-.7 1952.247 0 2928.367a606537.92 606537.92 0 01-1917.19 0V-386.857z" stroke="#0F3A4B" stroke-width="2.663" stroke-miterlimit="10"/><path d="M0 2402.09c165.566 0 355.273 38.94 516.785-22.47 71.643-27.25 135.119-60.59 210.185-63.16 73.925-2.57 142.775 17.71 214.448 43.48 152.562 55.04 292.582 38.98 447.392 17.43 178.06-24.86 351.13 26.6 528.47 24.76M0 2262.61h275.763c88.788 0 152.144 10.64 222.646-81.96 54.047-70.9 94.763-173.27 172.141-186.21 82.032-13.75 165.446 76.09 233.125 133.7 73.385 62.51 147.125 133.64 233.395 134.19 81.07.46 162.41-45.86 240.39-74.48 86.51-31.83 166.86-40.96 254.81-12.7 95.63 30.77 186.52 79.11 284.92 87.46" stroke="#0F3A4B" stroke-width="2.663" stroke-miterlimit="10"/><path d="M0 2123.02h275.763c101.009 0 154.996 9.17 203.339-144.43 29.245-92.92 54.437-287.19 132.626-314.02 84.855-29.13 195.833 156.35 252.583 227.62 70.772 88.93 155.179 227.11 253.719 229.31 82.46 2.07 172.6-81.4 247.78-125.62 91.16-53.61 165.42-71.04 260.12-21.05 98.04 51.69 186.77 128.42 291.26 147.87" stroke="#0F3A4B" stroke-width="2.663" stroke-miterlimit="10"/><path d="M0 1983.72h275.763c37.773 0 88.908 14.04 124.129-8.57 43.898-28.21 57.32-102 69.511-167.27 18.827-100.9 25.673-356.9 108.726-391.39 89.118-36.97 211.596 204.45 264.052 282.28 66.749 99.07 160.129 288.94 265.039 283.9 87.68-4.18 175.36-100.9 252.23-156.58 91.64-66.36 166.01-89.2 262.7-26.46 99.47 64.57 185.47 161.89 295.04 184.05" stroke="#0F3A4B" stroke-width="2.663" stroke-miterlimit="10"/><path d="M0 1844.3h275.763c37.653 0 88.488 13.76 123.829-7.71 44.769-27.29 60.803-103.88 75.606-168.91 23.301-102.18 41.527-366.26 125.571-399.29 90.619-35.54 211.266 204.42 264.593 283.9 67.229 100.25 160.188 291.09 266.098 283.75 84.07-5.78 170.01-79.2 247.71-123.23 91.61-51.92 164.64-73.15 259.25-19.77 94.1 53.11 177.76 128.97 278.71 151.07" stroke="#0F3A4B" stroke-width="2.663" stroke-miterlimit="10"/><path d="M0 1704.82h275.763c39.364 0 87.947 12.2 125.36-7.98 49.243-26.51 74.375-105.99 96.985-172.95 36.452-108 82.063-379.74 173.823-408.55 94.824-29.72 209.495 196.71 267.235 281.05 75.064 110.07 157.154 269.4 267.684 282.38 75.82 8.85 159.38-19.21 235.05-30.22 81.28-11.79 160.43-20.69 241.53-.32 78.55 19.72 153.95 49.62 233.88 56.55" stroke="#0F3A4B" stroke-width="2.663" stroke-miterlimit="10"/><path d="M0 1565.4h275.763c41.106 0 88.037 10.32 127.492-8.4 55.188-26.14 90.499-108.55 121.937-177.76 53.177-116.95 125.511-389.838 228.861-419.007 97.436-27.518 209.765 190.747 270.237 277.657 81.07 116.35 157.16 249.95 269.52 281.28 75.06 20.91 146.68 47.51 220.6 75.95 75.07 28.8 143.26 44.94 220.19 21.92 61.52-18.35 119.62-43.75 182.65-51.55" stroke="#0F3A4B" stroke-width="2.663" stroke-miterlimit="10"/><path d="M0 1425.88h275.763c41.736 0 87.977 9.4 128.212-8.49 58.762-26.14 101.009-111.63 138.122-180.88 64.587-120.07 157.248-397.13 267.535-426.529 98.367-26.096 209.858 187.81 271.798 275.459 84.29 119.24 158.36 238.48 270.87 279.44 79.57 29.03 139.92 90.67 210.43 150.57 63.41 53.84 138.99 100.9 207.51 37.38 55.25-50.77 76.41-111.5 146.95-126.95" stroke="#0F3A4B" stroke-width="2.663" stroke-miterlimit="10"/><path d="M0 1286.5h275.763c42.037 0 87.527 8.81 127.822-10.04 56.6-26.47 100.469-107.69 138.722-172.27 67.079-113.324 163.974-368.69 270.238-398.639 93.082-26.142 209.165 177.72 270.865 257.568 84.56 109.381 161.67 221.561 270.06 262.751 80.23 30.54 142.75 88.84 215.11 147.4 62.28 50.45 142.36 101.54 208.98 36.69 53.66-52.19 68.22-109.33 139.6-123.41" stroke="#0F3A4B" stroke-width="2.663" stroke-miterlimit="10"/><path d="M0 1147.04h275.763c112.899 0 170.79-14.9 261.23-130.07 71.913-91.723 160.611-264.398 258.737-285.312 89.899-19.125 195.923 114.658 267.24 180.288 85.96 79.665 166.61 159.464 266.51 183.724 82.72 20.14 159.14 56.23 239.28 92.01 67.23 29.94 149.2 65.72 217.9 25.45 47.77-27.98 75.07-59.9 130.53-66.09" stroke="#0F3A4B" stroke-width="2.663" stroke-miterlimit="10"/><path d="M0 1007.61c168.869 0 372.898 50.45 529.786-59.618 78.85-55.357 155.297-133.233 244.145-142.176 88.848-8.943 178.477 42.928 262.099 81.315 87.08 39.947 171.15 79.481 262.55 80.49 90.26.963 179.86 12.796 269.82 21.969 115.9 11.83 232.64 12.98 348.82 17.79" stroke="#0F3A4B" stroke-width="2.663" stroke-miterlimit="10"/><path d="M0 868.15c172.652 0 352.87 22.702 524.471-7.246 164.695-28.711 324.977-34.398 490.929-24.812 186.02 10.778 367.83-9.54 553.18-31.875 67.41-8.118 174.72-47.01 238.65 0 41.47 30.453 58.07 57.008 109.99 63.887M0 728.76c336.446 0 673.703 10.961 1009.82-13.438 188.35-13.759 371.16-27.518 558.19-66.41 62.03-12.841 182.08-58.108 240.21-3.99 13.09 12.2 16.19 31.371 27.45 44.946 27.47 32.976 45.49 36.324 81.52 38.892M0 589.244c332.392 0 665.416 9.172 997.598-10.182 81.462-4.816 163.102-5.091 244.472-10.136 105.34-6.512 208.48-57.237 310.72-92.368 63.32-21.785 187.51-82.004 246.21-11.879 48.8 58.063 43.12 115.713 118.19 124.656" stroke="#0F3A4B" stroke-width="2.663" stroke-miterlimit="10"/><path d="M0 449.832c326.387 0 653.105 6.559 979.402-5.457 75.068-2.752 151.818 3.256 226.518-6.467 110.89-14.355 219.34-94.386 323.93-148.092 69.06-35.453 193.04-118.694 256.39-22.932 51.35 77.555 46.12 162.815 131.1 182.994" stroke="#0F3A4B" stroke-width="2.663" stroke-miterlimit="10"/><path d="M0 310.351c321.283 0 642.565 2.797 963.848-1.33 69.062-.872 142.112 9.172 210.962-3.027 115.94-20.455 229.44-127.729 335.25-196.937 75.06-48.982 196.28-149.56 264.77-32.838 54.05 92.048 49.58 204.183 142.51 233.902" stroke="#0F3A4B" stroke-width="2.663" stroke-miterlimit="10"/><path d="M0 170.928h958.594c67.406 0 138.816 10.411 205.916-1.467 117.74-20.822 232.5-138.37 338.34-212.897 76.66-53.981 195.83-157.403 266.34-36.003 55.22 95.12 53.41 219.272 148.03 250.321" stroke="#0F3A4B" stroke-width="2.663" stroke-miterlimit="10"/><path d="M0 31.647h958.593c67.707 0 138.607 9.448 206.067-1.697 109.54-18.07 215.65-109.705 316.84-170.84 81.8-49.395 183.52-123.831 262.61-28.665 63.06 75.858 86.36 175.243 173.14 201.11" stroke="#0F3A4B" stroke-width="2.663" stroke-miterlimit="10"/><path d="M1825.85-386.768c-.6 128.876 12.94 253.532 20.36 381.307 7.32 126.216 2.67 254.449 4.95 381.169 4.23 235.966 6 470.97 2.1 707.032-3.63 216.79-4.68 425.84-23.48 640.75-23.45 267.89-3.69 548.52-3.87 818.11" stroke="#0F3A4B" stroke-width="2.663" stroke-miterlimit="10"/><path d="M1734.6-386.857c4.84 114.658 38.14 197.211 60.69 302.284 25.31 118.006 15.52 259.035 20.83 382.224 11.53 268.208 15.98 528.344 5.8 796.869-4.68 124.16-1.98 251.84-10.09 375.3-6 92.28-33.75 144.06-61.46 221.2-37.87 105.49-27.03 225.83-24.93 341.87 3.19 169.69 8.23 338.97 9.16 508.62" stroke="#0F3A4B" stroke-width="2.663" stroke-miterlimit="10"/><path d="M1643.38-387c12.16 116.997 60.77 136.902 102.6 220.143 45.67 90.81 30.65 274.033 37.56 383.142 9.82 155.935 24.41 312.328 26.3 468.905 1.72 140.525-9 281.83-16.63 421.67-7.15 132.08 2.34 290.13-18.02 418.31-15.01 95.31-56.3 91.14-103.62 132.23-71.67 62.33-46.75 209.64-43.81 314.94 5.32 189.74 13.31 379.2 15.5 569.07" stroke="#0F3A4B" stroke-width="2.663" stroke-miterlimit="10"/><path d="M1552.04-386.91c15.02 130.802 73.18 103.054 127.73 170.886 53.51 66.594 38.08 289.351 45.04 385.251 12.22 165.108 30.57 331.637 32.82 497.983 1.98 148.872-11.44 298.753-20.69 446.62-5.58 89.34-11.47 178.86-15.82 268.2-2.52 51.88 4.26 125.12-6 175.57-20.66 102.23-75.82 62.97-129.12 78.42-88.85 25.69-56.78 197.95-53.42 300.27 6.61 201.8 16.76 403.18 19.28 605.4" stroke="#0F3A4B" stroke-width="2.663" stroke-miterlimit="10"/><path d="M1460.79-387c14.41 121.4 67.14 119.886 115.12 195.561 49.93 78.701 35.34 280.316 44.59 383.095 14.32 159.054 36.42 320.263 37.5 481.243.93 144.148-8.83 289.397-14.62 433.131-3.42 85.22-6.94 170.47-9.97 255.78-1.8 51.6 4.59 122.96-5.13 173.36-19.82 102.87-80.84 81.96-135.39 110.4-87.68 45.86-59.1 193.36-54.53 308.75 7.72 195.74 20.42 390.89 22.37 587.05" stroke="#0F3A4B" stroke-width="2.663" stroke-miterlimit="10"/><path d="M1369.44-386.91c7.54 113.236 47.63 172.721 77.44 269.446 33.6 108.88 24.62 260.778 40.15 379.243 18.73 142.818 45.04 286.187 48.94 432.398 3.33 128.83 2.55 258.21 5.35 387.133 2.55 117.91 22.12 269.49 4.47 385.25-18.02 117.18-91.13 141.85-148.06 203.45-82.39 89.16-66.84 196.94-58.49 338.65 10.42 177.72 27.02 354.25 30.17 532.8" stroke="#0F3A4B" stroke-width="2.663" stroke-miterlimit="10"/><path d="M1278.07-386.768c1.09 122.455 22.04 234.269 34.35 353.88 13.25 128.418 10.33 248.579 34.63 375.299 24.02 124.748 54.04 246.286 62.03 376.721 6.76 112.456 15.25 222.024 28.46 333.608 12.02 102.73 38.41 229.82 27.03 334.8-14.62 135.48-103.8 219.23-162.5 309.58-76.6 118.05-76.72 216.24-63.06 373.69 13.66 157.45 34.53 311.87 39.03 470.65" stroke="#0F3A4B" stroke-width="2.663" stroke-miterlimit="10"/><path d="M1186.8-386.768c-1.44 137.59 2.61 275.179 4.23 412.77 1.6 133.369 0 245.642 31.77 371.491 28.11 112.044 62.01 216.795 71.19 337.553 7.44 101.524 22.15 201.493 43.87 298.114 20.51 92.04 51.05 200.33 42.4 300.03-12.91 150.11-113.74 273.17-172.65 384.15-70.95 133.7-84.62 230.33-66.06 396.54 15.88 143.04 40.45 281.74 45.4 427.3" stroke="#0F3A4B" stroke-width="2.663" stroke-miterlimit="10"/><path d="M1095.54-386.857c0 254.953-27.74 549.028 30.93 791.874 26.72 110.53 58.97 214.456 67.68 333.104 7.39 100.899 18.29 183.453 44.89 278.619 24.02 85.72 52.01 183.13 43.39 279.08-13.6 151.35-115 280.27-173.59 394.42-69.66 135.62-86.32 232.44-66.05 399.79 18.43 151.35 49.03 297.01 52.69 451.8" stroke="#0F3A4B" stroke-width="2.663" stroke-miterlimit="10"/><path d="M1004.38-386.857c0 259.539-20.777 541.185 22.07 794.167 19.13 112.869 41.89 221.244 48.43 338.149 4.6 81.408 10.12 131.903 41.08 200.285 103.86 229.316-40.9 414.556-131.606 591.636-76.177 148.69-84.074 247.39-58.491 429 27.023 191.76 70.261 378.56 78.547 575.36" stroke="#0F3A4B" stroke-width="2.663" stroke-miterlimit="10"/><path d="M912.95-386.857c0 263.713-12.311 535.315 10.088 797.332 9.849 115.208 20.629 228.261 24.022 344.478.33 11.512-3.243 78.977 8.197 91.727 10.99 12.337 18.916 0 27.654 6.696s16.515-6.834 27.629 6.696c12.22 14.905 9.18 70.767 7.47 91.955C1006 1100.12 906.284 1227.21 849.384 1338.75c-84.345 165.1-79.12 270.31-48.043 470.51 37.864 243.53 94.704 482.11 111.398 732.02" stroke="#0F3A4B" stroke-width="2.663" stroke-miterlimit="10"/><path d="M821.642-386.857c0 231.701-2.072 463.63-.331 695.332.781 102.091 4.324 204.091 6.006 306.137.81 55.311-14.743 175.564 7.686 219.409 23.511-25.27 26.394-77.967 49.874-103.1 66.779 155.935-170.099 449.459-211.055 569.809-52.366 153.73 5.014 355.8 32.218 510.18 42.487 241.28 96.325 481.56 115.722 730.37" stroke="#0F3A4B" stroke-width="2.663" stroke-miterlimit="10"/><path d="M730.362-386.857V616.079c0 54.256-15.163 175.702 7.627 218.263 22.159-32.104 24.021-85.627 46.211-117.685 65.547 144.882-164.695 451.983-203.039 566.183-52.636 156.94 4.474 357.73 31.978 515.41 42.788 245.55 96.805 490.23 117.103 742.98" stroke="#0F3A4B" stroke-width="2.663" stroke-miterlimit="10"/><path d="M639.053-386.857v799.946c0 116.813-1.892 233.902 0 350.853 0 .23-2.222 80.811 6.005 87.14 2.852 2.11 20.148.23 17.475-3.485-1.501-2.11 13.092-7.568 17.446-3.44 10.209 9.677 6.005 71.18 4.804 87.14-9.759 136.493-78.069 258.893-121.487 374.013-64.227 169.97-56.54 283.12-29.666 473.63 35.761 253.76 87.827 503.62 105.423 762.43" stroke="#0F3A4B" stroke-width="2.663" stroke-miterlimit="10"/><path d="M547.769-386.857v799.946c0 179.371-11.35 365.483 12.491 541.644 27.264 201.797-12.341 364.067-54.047 554.307-73.835 336.77 31.828 690.88 41.586 1032.51M456.462-386.857c0 477.344-9.008 957.119 3.003 1434.187 5.231 212.76.384 425.81-14.503 637.5-19.668 286.42 14.533 570.54 11.53 856.86M365.184-386.857V2541.51M273.875-386.857V2541.51M182.588-386.857V2541.51M91.277-386.857V2541.51" stroke="#0F3A4B" stroke-width="2.663" stroke-miterlimit="10"/><path d="M2.662 2350.53H1920v195.73H2.662v-195.73z" fill="url(#paint0_linear_118_122)"/></g><circle cx="959.334" cy="580.323" r="870.125" fill="url(#paint1_linear_118_122)" fill-opacity=".6"/><circle cx="959.334" cy="580.323" r="698.363" fill="url(#paint2_linear_118_122)" fill-opacity=".6"/><circle cx="959.333" cy="580.323" r="453.37" fill="url(#paint3_linear_118_122)" fill-opacity=".6"/><circle cx="921.5" cy="632.5" r="10.5" fill="url(#paint4_linear_118_122)"/><circle cx="1003.5" cy="406.5" r="7.5" fill="url(#paint5_linear_118_122)"/><circle cx="1267.5" cy="38.5" r="15.5" fill="url(#paint6_linear_118_122)"/><circle cx="609.5" cy="61.5" r="7.5" fill="url(#paint7_linear_118_122)"/><circle cx="321.5" cy="687.5" r="7.5" fill="url(#paint8_linear_118_122)"/><circle cx="1584.5" cy="566.5" r="24.5" fill="url(#paint9_linear_118_122)" fill-opacity=".17"/><path fill="url(#paint10_linear_118_122)" d="M0 0h1920v2655H0z"/><path opacity=".05" d="M1906.06 1873.04c-1.13-.12-2.26 0-3.39.22l-120.04-354.79c3.33-1.86 5.65-5.3 5.99-9.42.51-6.55-4.35-12.31-10.97-12.87-2.37-.17-4.63.34-6.61 1.35l-262.3-271.64c1.47-1.8 2.43-4.06 2.6-6.54.51-6.55-4.35-12.31-10.97-12.87-4.92-.4-9.33 2.2-11.53 6.26l-352.49-134.91c.17-.62.29-1.25.34-1.92.51-6.55-4.35-12.31-10.97-12.87-6.56-.51-12.27 4.34-12.89 10.83l-366.391 13.21a11.91 11.91 0 00-10.856-9.99 12 12 0 00-12.892 10.95c-.113 1.75.113 3.39.622 4.91L380.216 1264a12.092 12.092 0 00-8.99-5.31c-6.559-.51-12.326 4.35-12.891 10.95-.283 3.45.961 6.66 3.11 9.04L120.01 1562.67a11.76 11.76 0 00-5.598-1.91 11.992 11.992 0 00-12.891 10.95c-.452 5.3 2.714 10.1 7.407 12.02l-98.383 362.13c-.113 0-.17-.06-.283-.06-5.202-.45-9.782 3.44-10.234 8.69-.396 5.2 3.45 9.77 8.65 10.16.284 0 .623.06.906 0l62.365 366.82c-3.505 1.18-6.106 4.29-6.445 8.18-.396 5.2 3.449 9.77 8.707 10.16 1.583.12 3.166-.17 4.523-.73l203.382 321.65c-1.809 1.58-2.997 3.78-3.223 6.38-.396 5.19 3.449 9.77 8.651 10.16 2.997.23 5.824-.96 7.69-2.99l297.128 200.45c-.452 1.02-.792 2.09-.905 3.28a9.52 9.52 0 008.708 10.21c4.523.34 8.538-2.48 9.782-6.6l392.683 59.1c0 4.86 3.79 8.98 8.71 9.37 5.2.45 9.78-3.44 10.23-8.69.06-.51.06-1.02 0-1.52l344.68-83.27c1.3 3.16 4.36 5.53 7.97 5.82 5.21.39 9.79-3.45 10.24-8.7.17-1.92-.28-3.72-1.13-5.3l301.71-232.75c1.52 1.41 3.5 2.37 5.76 2.54 5.21.4 9.79-3.44 10.24-8.69.28-3.39-1.3-6.55-3.9-8.41l181.27-352.36c1.02.34 2.04.62 3.17.68 6.61.5 12.32-4.35 12.89-10.95.51-6.16-3.73-11.58-9.73-12.71l21.04-339.09c5.88-.34 10.68-4.91 11.19-10.95.57-6.38-4.35-12.2-10.91-12.7zM610.342 2887.39c-.678-4.24-4.127-7.63-8.594-7.96-1.753-.17-3.449.22-4.919.96l-39.862-56.85-60.613-86.37c.735-.68 1.413-1.41 1.922-2.26l299.22 149.6c-.056.96 0 1.92.17 2.88H610.342zM558.72 1179.72c-.962 0-1.923.05-2.828.22l151.872-75.7-133.665 83.27c-3.449-4.69-9.047-7.79-15.379-7.79zm817.14 1673.91a9.442 9.442 0 00-10.06 7.62l-195.18-7.17c-.06-.96-.29-1.86-.57-2.77l319.41-151.62c.51.85 1.18 1.58 1.86 2.31l-111.89 152.64c-1.08-.56-2.26-.9-3.57-1.01zM297.778 2678.8v-.11a9.528 9.528 0 00-8.707-10.22c-.792-.05-1.64 0-2.375.12l-63.553-186.4c.848-.4 1.639-.91 2.375-1.53l253.195 240.54c-.622.84-1.131 1.75-1.527 2.76l-8.142-2.03-171.266-43.13zm-221.87-347.73L65.22 2152.58c.509-.12 1.018-.23 1.527-.4l144.86 309.18c-.509.28-.961.62-1.413 1.01L82.862 2345.69c.848-1.3 1.414-2.82 1.583-4.46.396-5.13-3.392-9.65-8.538-10.16zM369.53 1282.63c6.559.5 12.326-4.35 12.892-10.95.113-1.3 0-2.6-.34-3.84l159.392-60.91a18.39 18.39 0 002.262 3.61L324.07 1411.61l-22.673 20.72c-1.131-1.01-2.318-1.92-3.675-2.71l69.094-147.56c.848.28 1.753.51 2.714.57zm754.38-195.66c3.51.28 6.79-1.01 9.16-3.22l56.43 46.74 69.1 57.3c-1.3 1.81-2.27 3.9-2.89 6.1l-325.905-60.52c.056-.67.113-1.35.113-2.03 0-1.18-.113-2.31-.339-3.44l184.211-48.38c1.64 4.06 5.49 7.06 10.12 7.45zm374.65 143.44c2.38.17 4.64-.34 6.56-1.35l65.93 93.48 23.35 33.13c-1.58 1.3-3 2.88-4.07 4.69l-298.54-154.05c.56-1.36 1.01-2.83 1.24-4.35l194.56 16.99c.17 5.93 4.81 10.95 10.97 11.46zm400.37 664.75l-64.4 144.07-4.69 10.55c-2.04-.73-4.18-1.13-6.45-1.13-.39 0-.79 0-1.18.06l-45.41-327.52 119.87 155.35a11.67 11.67 0 00-3.5 7.5c-.4 4.58 1.98 8.87 5.76 11.12zM480.748 2719.11l-253.195-240.54a12.321 12.321 0 002.205-5.47l239.512 3.56c.566 9.48 8.142 17.1 17.585 17.83v222.02c-2.262.23-4.354 1.19-6.107 2.6zM296.421 1463.55c6.503-3.05 11.026-9.65 11.026-17.27 0-.91-.057-1.75-.17-2.66l304.592-66.72a24.218 24.218 0 006.785 11.01l-226.281 278.01c-3.901-2.82-8.708-4.46-13.909-4.46-2.432 0-4.806.4-7.012 1.07l-5.032-13.32-69.999-185.66zm737.029-91.73c.34 5.3 2.37 10.16 5.65 14l-251.442 241.21c-5.371-5.03-12.552-8.13-20.468-8.13-4.071 0-7.916.79-11.478 2.26l-11.026-23.15-98.383-206.83c6.955-3.84 11.817-11.06 12.326-19.42h374.821v.06zm-104.154-235.57l325.904 60.52c-.05.67-.11 1.35-.11 2.03 0 3.95 1.19 7.62 3.28 10.67l-183.31 144.96a23.77 23.77 0 00-17.75-7.9c-4.02 0-7.86 1.01-11.2 2.76l-124.108-202.48c3.506-2.6 6.163-6.27 7.294-10.56zm879.624 919.01l-199.25-146.21c2.43-3.72 3.78-8.13 3.78-12.93 0-6.32-2.48-12.02-6.5-16.31l153.68-162.86c3.17 2.6 7.24 4.12 11.65 4.24l46.93 327.86c-4.07.96-7.63 3.16-10.29 6.21zM489.795 2716.51v-222.02a18.93 18.93 0 0013.457-7.11l309.285 209.26a18.275 18.275 0 00-2.488 9.26l-309.963 20.26c-.962-5.08-5.033-9.03-10.291-9.65zm-269.536-256.73l23.182-327.98c3.393 0 6.559-.9 9.33-2.48l223.736 331.25c-3.957 3.16-6.671 7.84-7.18 13.21l-239.512-3.5c-.566-5.25-4.411-9.49-9.556-10.5zm1053.891-1241.9c3.22 0 6.22-.79 8.87-2.2l27.99 44.59 143.56 228.46c-3.62 2.59-6.5 6.2-8.25 10.44l-104.44-35-261.62-87.67c.51-1.97.79-4.06.79-6.15 0-5.08-1.58-9.77-4.29-13.6l183.25-144.97c3.62 3.73 8.59 6.1 14.14 6.1zm-872.052 463.73c-.848-5.47-3.562-10.27-7.463-13.83l226.281-278.01c3.901 2.82 8.707 4.46 13.909 4.46 3.166 0 6.107-.62 8.877-1.7l109.352 229.98c-9.386 5.03-15.718 14.9-15.718 26.25 0 .45 0 .9.056 1.36l-207.622 19.53-127.672 11.96zm1170.982 638.11l-262.69-124.98c1.13-2.76 1.75-5.75 1.75-8.91 0-5.88-2.15-11.29-5.71-15.47l146.67-140.96 120.38-115.66c3.9 3.61 9.05 5.87 14.7 6.26v390.24c-6.5.45-12.04 4.18-15.1 9.48zM562.734 2083.26c3.619-4.18 5.767-9.6 5.767-15.58 0-.74-.056-1.42-.113-2.09l162.445-24.5 176.016-26.53c2.374 11.68 11.534 20.94 23.238 23.31l-33.868 218.86-17.132 110.64c-.735-.06-1.471-.11-2.206-.11-6.163 0-11.817 2.37-16.058 6.21l-45.742-44.49-252.347-245.72zm334.955 295.91a24.066 24.066 0 00-15.606-11.35l32.286-208.81 18.659-120.69c1.017.11 2.035.17 3.109.17 11.139 0 20.808-6.1 25.953-15.07l304.14 153.03c-1.24 2.88-1.92 6.1-1.92 9.43s.68 6.49 1.92 9.32l-183.2 91.45-185.341 92.52zm328.621-624.73c.85 0 1.7-.06 2.49-.12l29.12 216.6 25.72 191.48c-6.84 1.35-12.6 5.59-16 11.35l-60.44-30.43-243.696-122.67c1.639-3.67 2.544-7.79 2.544-12.08 0-7.62-2.827-14.5-7.52-19.81l247.542-242.34c5.26 5.02 12.38 8.02 20.24 8.02zm61.91 407.56c-.56 0-1.13 0-1.69.06l-54.85-408.08c9.05-1.63 16.68-7.39 20.92-15.24l314.83 148.63c-1.08 2.71-1.7 5.71-1.7 8.87 0 5.87 2.15 11.29 5.71 15.46l-267.04 256.63c-4.25-3.96-9.9-6.33-16.18-6.33zm-783.272 322.95c1.583-2.76 2.544-6.04 2.544-9.48 0-.9-.056-1.75-.169-2.6l89.506-19.42 257.266-55.82c2.375 8.41 9.273 14.96 17.98 16.82l-32.116 211.06-9.329 61.53c-.452-.05-.905-.05-1.414-.05-6.049 0-11.421 2.82-14.927 7.17l-288.986-195.55-20.355-13.66zm328.509 202.55l1.131-7.34 40.314-265.26c.679.06 1.414.11 2.149.11 8.142 0 15.323-4.06 19.677-10.27l312.562 188.32c-1.3 2.59-2.03 5.47-2.03 8.58 0 1.18.11 2.31.34 3.44l-360.29 94.84c-2.262-6.27-7.464-10.96-13.853-12.42zm392.853-105c-6.39 0-12.1 3.16-15.55 8.02l-312.562-188.38c1.753-3.27 2.714-7.05 2.714-11.06 0-3.33-.679-6.49-1.923-9.32l132.251-65.99 236.35-117.98a23.86 23.86 0 0015.72 11.41l-55.64 373.36c-.45-.06-.91-.06-1.36-.06zm342.42-697.78l-146.9-69.32-167.93-79.31c1.47-3.5 2.27-7.34 2.27-11.4 0-7.12-2.49-13.66-6.68-18.75l202.25-180.8c4.3 4.23 10.24 6.88 16.8 6.88 1.98 0 3.9-.22 5.71-.67L1581.17 1874c-5.37 1.92-9.73 5.75-12.44 10.72zm-123.26-382.79c-.51 1.98-.79 4.07-.79 6.21 0 5.59 1.92 10.73 5.14 14.79l-31.66 28.29-170.59 152.47c-5.43-5.48-12.95-8.87-21.2-8.87-4.07 0-7.97.85-11.48 2.32l-116.93-245.16-29.01-60.74a24.2 24.2 0 0010.58-11.91l225.49 75.53 140.45 47.07zm-404.33-114.02c4.24 3.89 9.95 6.26 16.17 6.26 3.16 0 6.16-.62 8.93-1.75l99.46 208.47 46.48 97.43c-7.58 4.07-13.18 11.29-15.04 19.93l-19.85-3.27-380.415-62.89c.113-1.13.226-2.26.226-3.39 0-7.5-2.771-14.33-7.351-19.58l85.096-81.63 166.294-159.58zm-259.984 287.16c7.633-4.07 13.344-11.35 15.21-20.04l400.264 66.21c-.12 1.13-.23 2.26-.23 3.45 0 7.62 2.83 14.5 7.52 19.81l-238.663 233.65-8.878 8.69a29.743 29.743 0 00-20.242-7.9c-4.014 0-7.859.79-11.308 2.2l-56.994-121.48-86.679-184.59zM542.888 2091.5c.622.05 1.187.05 1.809.05 6.163 0 11.817-2.37 16.058-6.21l197.727 192.39 100.476 97.77c-3.619 4.17-5.768 9.59-5.768 15.58 0 1.24.113 2.43.283 3.61l-346.829 75.3c-1.979-6.6-7.463-11.68-14.248-13.15l32.398-234.49 18.094-130.85zm211.637-415.76a29.674 29.674 0 0012.665 2.83c4.014 0 7.859-.79 11.308-2.2l62.197 132.43 81.477 173.58c-9.443 5.02-15.889 14.9-15.889 26.31 0 1.01.057 2.03.17 2.99l-338.461 51.03c-1.413-6.49-5.428-11.97-10.912-15.36l35.225-66.32 162.22-305.29zM521.289 2072.7c1.979 9.26 9.329 16.54 18.659 18.4l-33.699 243.81-16.793 121.54c-.396 0-.792-.06-1.131-.06-3.449 0-6.672.9-9.443 2.48l-92.05-136.21-131.743-194.98c4.41-3.5 7.237-8.92 7.237-14.96 0-.45 0-.9-.056-1.35l9.047-1.36 249.972-37.31zm719.331 516.23c-2.6-2.93-6.11-5.08-10.12-5.98l34.03-228.28 21.66-145.08c.68.06 1.36.11 2.03.11 8.99 0 16.8-4.96 20.87-12.3l197.61 94.04 65.08 30.99c-.85 2.15-1.3 4.46-1.3 6.89 0 3.78 1.08 7.28 3 10.22l-271.23 203.27-61.63 46.12zm350.5-278.69V1920c6.79-.39 12.78-3.61 16.85-8.52l120.72 88.57 78.53 57.63c-1.81 2.94-2.88 6.38-2.88 10.11 0 5.14 2.04 9.76 5.31 13.21l-208.41 233.14c-2.88-2.26-6.33-3.62-10.12-3.9zm164.76-617.11c-1.47 2.71-2.26 5.76-2.26 9.03 0 4.97 1.87 9.43 4.98 12.82l-143.22 151.73-10.46 11.12a23.783 23.783 0 00-15.27-5.53c-1.98 0-3.84.23-5.71.68l-34.83-111.71-72.09-230.94c4.35-1.64 8.08-4.52 10.8-8.24l80.57 51.37 187.49 119.67zm-1366.56 13.44c7.746-3.96 13.061-11.97 13.061-21.23v-.79l335.294-31.5c1.3 9.09 6.729 16.82 14.305 21.34l-16.68 31.44-180.708 340.23a23.786 23.786 0 00-9.838-2.15c-2.884 0-5.598.51-8.142 1.41l-80.233-184.65-67.059-154.1zm457.764 1005.99a19.086 19.086 0 001.131-6.49c0-1.19-.113-2.32-.34-3.45l360.285-94.83c1.92 5.47 6.22 9.82 11.71 11.74l-27.03 101.33-32.63 122.44c-.22-.06-.45-.06-.68-.11-4.63-.4-8.87 1.97-11.13 5.7l-233.296-105.51-68.02-30.82zm395.346-121.25l295.26-221.29 37.6-28.17c2.2 2.54 5.09 4.46 8.37 5.54l-82.72 334.07c-.17 0-.29-.06-.46-.06-5.09-.4-9.67 2.43-11.76 6.72l-243.92-81.91c.4-1.53.57-3.05.57-4.69 0-3.72-1.08-7.28-2.94-10.21zm515.04-900.61l-154.76-98.73-113.31-72.25c1.92-3.45 3-7.4 3-11.58 0-6.04-2.26-11.57-6-15.8l107.72-107.54c3.33 2.88 7.69 4.63 12.44 4.63 2.54 0 4.97-.51 7.23-1.41l149.16 297.77c-2.2 1.3-4.01 2.94-5.48 4.91zm-165.45-307.93l-107.71 107.54c-4.24-3.73-9.72-5.99-15.83-5.99-4.13 0-8.03 1.07-11.42 2.88l-171.55-273.05c1.92-1.41 3.62-3.21 4.86-5.3l298.54 154.05c-.96 2.26-1.52 4.8-1.52 7.45.05 4.74 1.75 9.09 4.63 12.42zm-681.213-232.35c3.109 0 6.106-.73 8.707-2.09l124.106 202.49a24.122 24.122 0 00-10.17 18.06H658.629c-.282-4.91-2.092-9.37-4.862-13.04l123.487-106.91 120.152-104.04c3.449 3.39 8.199 5.53 13.401 5.53zm-622.471 314.94c1.866 0 3.618-.29 5.315-.74l24.539 65.14 50.492 133.85c-8.312 3.72-14.136 12.08-14.136 21.73 0 2.43.34 4.74 1.018 6.94l-224.585 83.49a19.491 19.491 0 00-7.294-8.24l157.131-303.64c2.374.9 4.919 1.47 7.52 1.47zm84.36 243.07c1.866.45 3.789.73 5.768.73 2.883 0 5.597-.51 8.142-1.41l41.332 95.18 105.847 243.63c-7.747 3.96-13.062 11.97-13.062 21.23 0 .68.057 1.41.113 2.09l-258.962 38.67c-1.414-6.16-5.767-11.12-11.478-13.44l114.724-362.75 7.576-23.93zm127.559 1020.84v-.28l158.374-10.33 151.589-9.88c1.131 8.13 7.407 14.56 15.436 16.03l-10.573 98.22-5.428 50.41c-5.258-.05-9.838 3.28-11.478 8.07l-298.542-149.25c.283-.9.509-1.92.622-2.99zm312.282 144.57l10.177-94.22 5.881-54.53h.565c7.237 0 13.514-4.01 16.736-9.88l193.604 87.56 107.82 48.77c-.28.85-.45 1.69-.51 2.6v.62l-325.396 31.44c.339-5.76-3.449-10.89-8.877-12.36zm350.613-29.81l59.66-223.71c1.13.23 2.31.34 3.5.34 7.92 0 14.7-4.8 17.59-11.63l115.79 38.89 128.13 43.02c-.12.45-.17.96-.23 1.41-.11 1.64.06 3.27.57 4.74l-319.41 151.57c-1.3-2.03-3.28-3.72-5.6-4.63zm340.61-161.9l82.72-334.07c1.02.17 2.1.28 3.17.28 6.5 0 12.27-3.27 15.72-8.24l142.31 82.87c-.5 1.19-.84 2.43-.96 3.73-.28 3.16.74 6.15 2.6 8.41l-242.62 248.66c-.9-.68-1.86-1.24-2.94-1.64zm245.34-261.7l-142.32-82.87a18.55 18.55 0 001.92-8.3c0-5.13-2.03-9.76-5.31-13.2l208.41-233.14c1.98 1.52 4.3 2.65 6.79 3.27l-59.31 329.56c-4.08-.23-7.81 1.63-10.18 4.68zM623.799 1349.18c-7.633 3.95-12.891 11.97-12.891 21.17 0 1.24.113 2.48.283 3.67l-187.324 41.04-117.268 25.68c-.679-2.31-1.81-4.4-3.28-6.26l242.396-221.74c3.392 3.22 8.029 5.14 13.061 5.14 2.262 0 4.354-.4 6.389-1.07l2.036 4.63 56.598 127.74zm-501.753 451.71c6.389-3.1 10.799-9.59 10.799-17.16 0-1.8-.283-3.61-.735-5.25l126.145-46.91 98.44-36.58a23.9 23.9 0 0013.231 12.59l-42.689 135.03-79.555 251.54a18.322 18.322 0 00-4.354-.51c-1.922 0-3.845.29-5.597.85l-38.166-96.87-77.519-196.73zm102.623 316.18c1.753 7.56 8.029 13.38 15.776 14.51l-23.183 327.97c-1.074.06-2.092.23-3.053.57L77.321 2167.87l-7.916-16.93a11.718 11.718 0 005.541-9.15c.057-.45.057-.9.057-1.35l60.273-9.43 89.393-13.94zm1550.271-597.13l-3.34 163.2c-2.15.11-4.24.62-6.1 1.35l-148.2-295.96-.91-1.87c1.53-.9 2.94-2.08 4.19-3.38l61.86 49.11 85.37 67.79a11.967 11.967 0 00-2.94 6.89c-.62 6.38 3.91 11.97 10.07 12.87zm-882.566-383.58c.622 2.32 1.696 4.46 3.053 6.33l-243.639 210.95c-4.354-4.4-10.348-7.11-17.019-7.11-2.941 0-5.711.51-8.312 1.47l-5.994-13.5-52.697-118.94a19.058 19.058 0 0010.065-16.82c0-.73-.057-1.47-.113-2.14l192.073-36.81 122.583-23.43zm-779.884 666.4c.396 0 .792.05 1.244.05 1.979 0 3.845-.28 5.598-.84l38.957 98.84 76.671 194.75c-6.389 3.11-10.743 9.6-10.743 17.16 0 .51 0 1.02.057 1.47l-128.181 19.98-21.543 3.39c-1.13-3.95-4.297-7.17-8.368-8.24l4.523-31.78 41.785-294.78zm900.49 1138.48c-4.02-.34-7.64 1.92-9.27 5.3l-183.54-55.99c.226-.46.396-.91.565-1.36l326.305-31.5c.23.91.51 1.81.96 2.66l-128.69 83.99c-1.64-1.69-3.79-2.88-6.33-3.1zm679.41-331.81c-5.21-.4-9.79 3.44-10.24 8.69-.05.96 0 1.86.17 2.77l-172.34 66.72c-.34-.62-.73-1.24-1.19-1.81l141.36-144.9 101.27-103.76c.62.45 1.24.85 1.92 1.19l-59.99 171.21c-.34 0-.68-.06-.96-.11zM364.159 1280.88l-29.346 62.71-39.692 84.85a18.994 18.994 0 00-6.729-1.24c-10.573 0-19.111 8.52-19.111 19.08 0 6.88 3.619 12.87 9.047 16.25l-157.13 303.65a19.083 19.083 0 00-5.994-1.47v-180.08c5.541-.67 10.008-5.13 10.46-10.89.283-3.44-.961-6.66-3.109-9.03l241.434-284c0 .05.113.11.17.17zm-155.943 1183.7c-1.188 1.69-2.036 3.72-2.205 5.98-.509 6.55 4.353 12.31 10.969 12.87 1.187.11 2.318 0 3.392-.23l31.551 92.53 31.041 90.99-200.837-317.7 126.089 115.56zM1493.7 2703.7c1.47.79 3.11 1.35 4.86 1.47 6.56.5 12.33-4.35 12.89-10.96.12-1.35 0-2.65-.34-3.89l55.53-21.51 116.08-44.93-300.3 231.67 111.28-151.85zm226.34-161.45l36.07-102.96c.51.11 1.02.22 1.58.22 6.56.51 12.33-4.34 12.89-10.95.34-3.89-1.3-7.45-3.95-9.88l20.35-29.52 83.91-121.82-170.76 331.98 19.91-57.07zm44.1-125.21c-.62-.33-1.3-.56-1.98-.79l59.31-329.55c.62.06 1.3.11 1.92.11 1.59 0 3.11-.17 4.53-.56l31.83 96.92 17.64 53.74c-3.73 1.75-6.44 5.42-6.84 9.83-.34 3.89 1.3 7.45 4.02 9.87l-43.6 63.34-66.83 97.09zm117.66-181.26c-.51.06-1.07.12-1.58.23l-36.3-110.36-13.23-40.25c6.9-2.88 11.76-9.65 11.76-17.61 0-7.23-4.07-13.55-10.01-16.77l69.1-154.61c.39.11.84.22 1.3.34l-21.04 339.03zm18.1-361.56c-.29.17-.63.28-.91.45l-87.81-113.74-31.61-40.99c7.13-2.76 12.22-9.65 12.22-17.78 0-9.82-7.47-17.95-17.08-18.96l3.11-163.2c.68-.06 1.36-.23 2.04-.4l120.04 354.62zm-139.66-383.63l-137.85-109.57c2.09-3.05 3.28-6.72 3.28-10.73 0-10.55-8.54-19.08-19.11-19.08-3.57 0-6.9.96-9.79 2.66l-85.15-120.81 248.62 257.53zm-272.37-274.97c-.05.11-.05.28-.11.4l-108.39-9.49-86.06-7.51v-.22c0-10.56-8.53-19.08-19.11-19.08-5.37 0-10.23 2.2-13.74 5.81l-125.52-104.03c.17-.29.34-.57.51-.85l352.42 134.97zm-430.39-124.36l-128.636 33.81c-2.601-7.45-9.669-12.81-18.037-12.81-10.574 0-19.112 8.52-19.112 19.08 0 .73.057 1.47.113 2.15l-314.656 60.28c-.339-1.35-.848-2.59-1.47-3.78l84.078-52.38 65.758-40.99c1.979 2.43 4.92 4.13 8.312 4.41 6.559.51 12.326-4.35 12.892-10.84l365.088-13.15-54.33 14.22zm-512.104 93.93a19.107 19.107 0 00-5.711 13.61c0 1.86.283 3.72.791 5.42l-142.429 54.42 147.349-73.45zm-433.338 399.39c.056 0 .169 0 .226.05v180.08c-9.838.73-17.641 8.97-17.641 19.02 0 9.09 6.389 16.71 14.983 18.63l-46.364 326.56c-.735 0-1.414.06-2.092.17l-31.268-108.38-16.397-56.85c2.997-1.41 5.145-4.29 5.428-7.79.34-4.12-2.035-7.79-5.598-9.37l98.723-362.12zm-96.744 396.11l43.029 149.14c-3.958 1.69-6.842 5.42-7.238 10.05-.508 6.54 4.354 12.3 10.97 12.87h.226l9.668 160.93-56.655-332.99zm281.636 701.27l.17-.33 179.407 45.21c0 .17-.056.34-.056.51-.509 6.55 4.354 12.31 10.969 12.87 2.375.17 4.637-.34 6.559-1.35l100.475 143.15c-.113.12-.226.23-.339.4L296.93 2681.96zm501.584 208.3c1.753 3.84 5.428 6.61 9.895 6.95 3.958.34 7.633-1.36 10.008-4.12l174.262 53.17-372.216-56h178.051zm222.436 56.79c-.06-.11-.06-.17-.11-.28l128.69-84c1.98 2.32 4.86 3.9 8.14 4.18 6.28.51 11.76-3.89 12.78-9.99l193.94 7.17-343.44 82.92z" fill="#fff"/></g><defs><linearGradient id="paint0_linear_118_122" x1="961.331" y1="2350.53" x2="961.331" y2="2546.26" gradientUnits="userSpaceOnUse"><stop stop-color="#061B23" stop-opacity="0"/><stop offset="1" stop-color="#061B23"/></linearGradient><linearGradient id="paint1_linear_118_122" x1="924.589" y1="-461.259" x2="959.334" y2="1450.45" gradientUnits="userSpaceOnUse"><stop stop-color="#04333A"/><stop offset="1" stop-color="#04333A" stop-opacity="0"/></linearGradient><linearGradient id="paint2_linear_118_122" x1="931.448" y1="-255.652" x2="959.334" y2="1278.69" gradientUnits="userSpaceOnUse"><stop stop-color="#04333A"/><stop offset="1" stop-color="#04333A" stop-opacity="0"/></linearGradient><linearGradient id="paint3_linear_118_122" x1="941.23" y1="37.617" x2="959.333" y2="1033.69" gradientUnits="userSpaceOnUse"><stop stop-color="#04333A"/><stop offset="1" stop-color="#04333A" stop-opacity="0"/></linearGradient><linearGradient id="paint4_linear_118_122" x1="941.776" y1="625.621" x2="909.552" y2="640.103" gradientUnits="userSpaceOnUse"><stop offset=".092" stop-color="#A4FBFA"/><stop offset=".195" stop-color="#A4FBFA" stop-opacity=".7"/><stop offset="1" stop-color="#A4FBFA" stop-opacity="0"/></linearGradient><linearGradient id="paint5_linear_118_122" x1="1017.98" y1="401.586" x2="994.966" y2="411.931" gradientUnits="userSpaceOnUse"><stop offset=".092" stop-color="#A4FBFA"/><stop offset=".195" stop-color="#A4FBFA" stop-opacity=".7"/><stop offset="1" stop-color="#A4FBFA" stop-opacity="0"/></linearGradient><linearGradient id="paint6_linear_118_122" x1="1297.43" y1="28.345" x2="1249.86" y2="49.724" gradientUnits="userSpaceOnUse"><stop offset=".092" stop-color="#A4FBFA"/><stop offset=".195" stop-color="#A4FBFA" stop-opacity=".7"/><stop offset="1" stop-color="#A4FBFA" stop-opacity="0"/></linearGradient><linearGradient id="paint7_linear_118_122" x1="623.983" y1="56.586" x2="600.966" y2="66.931" gradientUnits="userSpaceOnUse"><stop offset=".092" stop-color="#A4FBFA"/><stop offset=".195" stop-color="#A4FBFA" stop-opacity=".7"/><stop offset="1" stop-color="#A4FBFA" stop-opacity="0"/></linearGradient><linearGradient id="paint8_linear_118_122" x1="335.983" y1="682.586" x2="312.966" y2="692.931" gradientUnits="userSpaceOnUse"><stop offset=".092" stop-color="#A4FBFA"/><stop offset=".195" stop-color="#A4FBFA" stop-opacity=".7"/><stop offset="1" stop-color="#A4FBFA" stop-opacity="0"/></linearGradient><linearGradient id="paint9_linear_118_122" x1="1631.81" y1="550.448" x2="1556.62" y2="584.241" gradientUnits="userSpaceOnUse"><stop offset=".092" stop-color="#A4FBFA"/><stop offset=".195" stop-color="#A4FBFA" stop-opacity=".7"/><stop offset="1" stop-color="#A4FBFA" stop-opacity="0"/></linearGradient><linearGradient id="paint10_linear_118_122" x1="960" y1="0" x2="960" y2="2655" gradientUnits="userSpaceOnUse"><stop stop-color="#0B071B" stop-opacity="0"/><stop offset=".339" stop-color="#0B071B"/></linearGradient><clipPath id="clip0_118_122"><path fill="#fff" d="M0 0h1920v5266H0z"/></clipPath></defs></svg>