<svg width="375" height="3704" fill="none" xmlns="http://www.w3.org/2000/svg"><g clip-path="url(#clip0_196_16156)"><path fill="#0B071B" d="M0 0h375v3704H0z"/><g opacity=".35"><path d="M-235-225.937h844.761a898000.2 898000.2 0 000 1290.307c-281.578.45-563.165.45-844.761 0V-225.937z" stroke="#0F3A4B" stroke-width="1.173" stroke-miterlimit="10"/><path d="M-235 1002.94c72.952 0 156.542 17.16 227.708-9.899 31.568-12.004 59.537-26.696 92.613-27.827 32.573-1.132 62.911 7.8 94.492 19.157 67.223 24.249 128.917 17.179 197.133 7.68 78.456-10.953 154.716 11.719 232.855 10.909M-235 941.484h121.508c39.122 0 67.038 4.688 98.103-36.113 23.815-31.242 41.755-76.348 75.85-82.046 36.146-6.063 72.9 33.526 102.721 58.907 32.335 27.545 64.829 58.888 102.84 59.13 35.722.203 71.563-20.208 105.922-32.818 38.117-14.025 73.522-18.046 112.274-5.598 42.138 13.56 82.187 34.86 125.543 38.538" stroke="#0F3A4B" stroke-width="1.173" stroke-miterlimit="10"/><path d="M-235 879.976h121.508c44.507 0 68.295 4.042 89.596-63.636C-11.009 775.398.091 689.794 34.543 677.972c37.389-12.832 86.289 68.891 111.294 100.295 31.184 39.184 68.375 100.072 111.797 101.043 36.331.909 76.048-35.87 109.177-55.351 40.168-23.624 72.886-31.303 114.615-9.276 43.197 22.775 82.293 56.584 128.335 65.152" stroke="#0F3A4B" stroke-width="1.173" stroke-miterlimit="10"/><path d="M-235 818.6h121.508c16.644 0 39.175 6.184 54.694-3.779 19.343-12.428 25.257-44.944 30.629-73.7 8.295-44.459 11.312-157.263 47.907-172.46 39.268-16.288 93.235 90.09 116.348 124.384 29.411 43.65 70.558 127.313 116.785 125.09 38.633-1.839 77.265-44.458 111.135-68.992 40.379-29.241 73.151-39.305 115.753-11.66 43.832 28.454 81.724 71.336 130.002 81.097" stroke="#0F3A4B" stroke-width="1.173" stroke-miterlimit="10"/><path d="M-235 757.166h121.508c16.59 0 38.99 6.063 54.562-3.395 19.727-12.024 26.792-45.772 33.314-74.428 10.267-45.024 18.298-161.385 55.33-175.935 39.93-15.661 93.089 90.069 116.586 125.091 29.623 44.175 70.584 128.263 117.248 125.03 37.045-2.547 74.91-34.9 109.151-54.301 40.366-22.876 72.542-32.232 114.231-8.709 41.464 23.401 78.324 56.826 122.804 66.566" stroke="#0F3A4B" stroke-width="1.173" stroke-miterlimit="10"/><path d="M-235 695.71h121.508c17.345 0 38.752 5.376 55.237-3.516 21.698-11.681 32.772-46.702 42.734-76.206C.541 568.397 20.638 448.661 61.07 435.971c41.782-13.096 92.309 86.674 117.751 123.837 33.076 48.5 69.248 118.705 117.949 124.424 33.407 3.9 70.227-8.468 103.568-13.318 35.815-5.193 70.69-9.114 106.425-.141 34.611 8.69 67.832 21.865 103.052 24.917" stroke="#0F3A4B" stroke-width="1.173" stroke-miterlimit="10"/><path d="M-235 634.276h121.508c18.112 0 38.791 4.547 56.176-3.698 24.318-11.519 39.877-47.834 53.729-78.329 23.43-51.531 55.303-171.772 100.842-184.624 42.933-12.125 92.428 84.047 119.074 122.342 35.722 51.269 69.247 110.136 118.756 123.939 33.076 9.215 64.63 20.936 97.203 33.465 33.076 12.691 63.123 19.804 97.019 9.659 27.109-8.083 52.71-19.278 80.48-22.714" stroke="#0F3A4B" stroke-width="1.173" stroke-miterlimit="10"/><path d="M-235 572.8h121.508c18.39 0 38.765 4.143 56.494-3.739 25.892-11.519 44.507-49.187 60.86-79.702C32.32 436.453 73.149 314.374 121.744 301.42c43.343-11.499 92.468 82.754 119.762 121.372 37.138 52.542 69.777 105.084 119.351 123.131 35.061 12.792 61.654 39.952 92.719 66.344 27.943 23.725 61.244 44.459 91.435 16.47 24.344-22.371 33.672-49.127 64.75-55.937" stroke="#0F3A4B" stroke-width="1.173" stroke-miterlimit="10"/><path d="M-235 511.386h121.508c18.523 0 38.567 3.88 56.322-4.425 24.94-11.661 44.269-47.45 61.124-75.903 29.557-49.936 72.251-162.456 119.074-175.653 41.014-11.518 92.163 78.308 119.351 113.491 37.257 48.198 71.233 97.628 118.994 115.775 35.352 13.459 62.898 39.144 94.783 64.95 27.44 22.229 62.725 44.741 92.083 16.167 23.643-22.998 30.06-48.177 61.509-54.381" stroke="#0F3A4B" stroke-width="1.173" stroke-miterlimit="10"/><path d="M-235 449.937h121.508c49.746 0 75.255-6.568 115.104-57.311C33.3 352.209 72.382 276.124 115.62 266.909c39.612-8.427 86.328 50.521 117.75 79.439 37.879 35.103 73.416 70.265 117.433 80.956 36.45 8.871 70.121 24.775 105.433 40.538 29.623 13.196 65.742 28.959 96.013 11.216 21.05-12.328 33.076-26.393 57.513-29.121" stroke="#0F3A4B" stroke-width="1.173" stroke-miterlimit="10"/><path d="M-235 388.502c74.408 0 164.308 22.23 233.437-26.271 34.743-24.391 68.428-58.706 107.577-62.646 39.148-3.941 78.641 18.915 115.488 35.83 38.368 17.601 75.413 35.021 115.686 35.465 39.771.425 79.25 5.639 118.889 9.68 51.069 5.214 102.509 5.719 153.697 7.841" stroke="#0F3A4B" stroke-width="1.173" stroke-miterlimit="10"/><path d="M-235 327.051c76.075 0 155.484 10.003 231.095-3.193 72.57-12.651 143.193-15.157 216.317-10.933 81.963 4.749 162.073-4.203 243.744-14.045 29.702-3.577 76.988-20.714 105.155 0 18.271 13.419 25.588 25.119 48.463 28.151M-235 265.632c148.247 0 296.85 4.83 444.952-5.921 82.994-6.063 163.54-12.125 245.953-29.262 27.334-5.658 80.229-25.604 105.843-1.758 5.768 5.375 7.131 13.823 12.092 19.804 12.106 14.53 20.044 16.005 35.921 17.137M-235 204.158c146.46 0 293.199 4.041 439.567-4.487 35.894-2.122 71.867-2.243 107.722-4.466 46.412-2.869 91.858-25.22 136.908-40.7 27.903-9.599 82.624-36.132 108.489-5.234 21.499 25.584 18.999 50.986 52.075 54.927" stroke="#0F3A4B" stroke-width="1.173" stroke-miterlimit="10"/><path d="M-235 142.73c143.814 0 287.774 2.889 431.549-2.405 33.076-1.213 66.893 1.435 99.81-2.85 48.86-6.325 96.648-41.589 142.73-65.253 30.43-15.621 85.058-52.3 112.974-10.104 22.624 34.172 20.322 71.74 57.764 80.632" stroke="#0F3A4B" stroke-width="1.173" stroke-miterlimit="10"/><path d="M-235 81.27c141.565 0 283.13 1.233 424.696-.586 30.43-.384 62.619 4.042 92.957-1.334 51.082-9.012 101.093-56.28 147.717-86.775 33.076-21.582 86.487-65.9 116.666-14.469 23.814 40.558 21.843 89.968 62.791 103.063" stroke="#0F3A4B" stroke-width="1.173" stroke-miterlimit="10"/><path d="M-235 19.837h422.38c29.703 0 61.165 4.588 90.734-.646 51.877-9.175 102.443-60.97 149.081-93.808 33.777-23.786 86.288-69.356 117.353-15.864 24.331 41.912 23.537 96.617 65.226 110.298" stroke="#0F3A4B" stroke-width="1.173" stroke-miterlimit="10"/><path d="M368.412-225.96c3.32 49.894 20.983 76.105 34.121 118.724C417.338-59.261 413.382 7.67 420.222 59.868c8.256 62.93 19.845 126.101 21.565 190.526 1.469 56.766 1.125 113.774 2.355 170.58 1.125 51.956 9.751 118.745 1.972 169.751-7.938 51.633-40.154 62.505-65.239 89.645-36.305 39.285-29.451 86.775-25.773 149.22 4.591 78.307 11.907 156.09 13.296 234.76" stroke="#0F3A4B" stroke-width="1.173" stroke-miterlimit="10"/><path d="M328.152-225.898c.476 53.957 9.711 103.225 15.136 155.929 5.834 56.584 4.551 109.53 15.254 165.366 10.584 54.967 23.815 108.52 27.334 165.993 2.977 49.551 6.721 97.829 12.543 146.996 5.292 45.267 16.921 101.265 11.907 147.522-6.443 59.696-45.738 96.597-71.603 136.407-33.751 52.017-33.804 95.283-27.784 164.659 6.02 69.376 15.215 137.418 17.2 207.376" stroke="#0F3A4B" stroke-width="1.173" stroke-miterlimit="10"/><path d="M287.934-225.898c-.635 60.626 1.151 121.251 1.866 181.877.701 58.766 0 108.236 13.997 163.688 12.384 49.37 27.321 95.526 31.37 148.735 3.276 44.734 9.758 88.783 19.329 131.355 9.037 40.558 22.492 88.271 18.682 132.204-5.689 66.142-50.117 120.362-76.075 169.266-31.264 58.908-37.283 101.487-29.107 174.723 6.999 63.03 17.821 124.14 20.004 188.28" stroke="#0F3A4B" stroke-width="1.173" stroke-miterlimit="10"/><path d="M247.724-225.937c0 112.339-12.224 241.916 13.628 348.92 11.775 48.702 25.984 94.494 29.821 146.774 3.255 44.458 8.057 80.834 19.78 122.766 10.584 37.77 22.915 80.693 19.117 122.969-5.993 66.688-50.672 123.494-76.484 173.793-30.695 59.756-38.038 102.417-29.107 176.157 8.123 66.688 21.605 130.87 23.219 199.078" stroke="#0F3A4B" stroke-width="1.173" stroke-miterlimit="10"/><path d="M207.555-225.937c0 114.36-9.155 238.46 9.725 349.93 8.427 49.733 18.456 97.486 21.34 148.997 2.024 35.87 4.459 58.12 18.099 88.251 45.764 101.042-18.019 182.664-57.988 260.689-33.566 65.516-37.046 109.005-25.773 189.03 11.907 84.492 30.959 166.801 34.61 253.52" stroke="#0F3A4B" stroke-width="1.173" stroke-miterlimit="10"/><path d="M167.269-225.937c0 116.199-5.424 235.873 4.445 351.324 4.34 50.764 9.09 100.578 10.585 151.786.145 5.073-1.429 34.799 3.612 40.417 4.842 5.436 8.335 0 12.185 2.951 3.85 2.95 7.276-3.011 12.172 2.95 5.385 6.568 4.048 31.182 3.294 40.518-5.292 65.253-49.23 121.251-74.302 170.398-37.164 72.751-34.862 119.109-21.168 207.319 16.683 107.307 41.728 212.432 49.084 322.544" stroke="#0F3A4B" stroke-width="1.173" stroke-miterlimit="10"/><path d="M127.035-225.937c0 102.093-.913 204.288-.145 306.38.344 44.985 1.905 89.929 2.646 134.892.357 24.372-6.496 77.359 3.387 96.678 10.359-11.135 11.629-34.355 21.975-45.429 29.425 68.709-74.95 198.043-92.996 251.07-23.074 67.739 2.21 156.778 14.196 224.8 18.721 106.316 42.443 212.189 50.99 321.816" stroke="#0F3A4B" stroke-width="1.173" stroke-miterlimit="10"/><path d="M86.817-225.937v441.919c0 23.907-6.682 77.419 3.36 96.172 9.764-14.146 10.585-37.729 20.362-51.855 28.882 63.839-72.569 199.155-89.464 249.474-23.193 69.153 1.971 157.626 14.09 227.103C54.02 845.072 77.82 952.884 86.764 1064.25" stroke="#0F3A4B" stroke-width="1.173" stroke-miterlimit="10"/><path d="M46.582-225.937v352.476c0 51.471-.833 103.064 0 154.595 0 .101-.979 35.608 2.646 38.396 1.257.93 8.878.101 7.7-1.536-.661-.929 5.769-3.334 7.687-1.515 4.499 4.264 2.646 31.363 2.117 38.396-4.3 60.14-34.399 114.077-53.53 164.8-28.3 74.893-24.913 124.747-13.072 208.693 15.758 111.814 38.7 221.909 46.452 335.942" stroke="#0F3A4B" stroke-width="1.173" stroke-miterlimit="10"/><path d="M6.36-225.937v352.476c0 79.036-5 161.042 5.504 238.662 12.014 88.918-5.437 160.415-23.814 244.24C-44.484 757.832 2.074 913.862 6.374 1064.39" stroke="#0F3A4B" stroke-width="1.173" stroke-miterlimit="10"/><path d="M-233.826 980.225h844.827v86.245h-844.827v-86.245z" fill="url(#paint0_linear_196_16156)"/></g><circle cx="187.706" cy="200.227" r="383.399" fill="url(#paint1_linear_196_16156)" fill-opacity=".6"/><circle cx="187.705" cy="200.227" r="307.717" fill="url(#paint2_linear_196_16156)" fill-opacity=".6"/><circle cx="187.706" cy="200.227" r="199.766" fill="url(#paint3_linear_196_16156)" fill-opacity=".6"/><circle cx="327.5" cy="879.5" r="10.5" fill="url(#paint4_linear_196_16156)"/><circle cx="370.5" cy="622.5" r="7.5" fill="url(#paint5_linear_196_16156)"/><circle cx="15.5" cy="308.5" r="7.5" fill="url(#paint6_linear_196_16156)"/><circle cx="371.5" cy="27.5" r="15.5" fill="url(#paint7_linear_196_16156)"/><circle cx="28.5" cy="785.5" r="7.5" fill="url(#paint8_linear_196_16156)"/><circle cx="377.5" cy="376.5" r="24.5" fill="url(#paint9_linear_196_16156)" fill-opacity=".17"/><path fill="url(#paint10_linear_196_16156)" d="M0 567h375v886H0z"/><path opacity=".05" d="M1099.45 1842.81c-1.08-.11-2.17 0-3.26.22l-115.53-341.11c3.211-1.79 5.442-5.1 5.769-9.07.489-6.29-4.191-11.83-10.557-12.37-2.286-.16-4.463.32-6.367 1.3L717.06 1220.62a11.175 11.175 0 002.503-6.3c.49-6.3-4.19-11.83-10.557-12.37-4.734-.38-8.979 2.11-11.101 6.02l-339.241-129.72a9.9 9.9 0 00.326-1.84c.49-6.3-4.19-11.83-10.557-12.37-6.312-.49-11.809 4.17-12.407 10.42l-352.628 12.7a11.447 11.447 0 00-10.448-9.61c-6.313-.49-11.864 4.18-12.408 10.53-.109 1.68.11 3.25.599 4.72l-330.208 164.45a11.635 11.635 0 00-8.652-5.1c-6.313-.49-11.864 4.18-12.408 10.53-.272 3.31.925 6.4 2.993 8.68l-232.364 273.05a11.384 11.384 0 00-5.388-1.84c-6.312-.49-11.863 4.18-12.407 10.53-.435 5.1 2.612 9.71 7.129 11.56l-94.687 348.17c-.109 0-.164-.06-.272-.06-5.007-.43-9.415 3.31-9.85 8.36-.381 4.99 3.319 9.39 8.326 9.77.272 0 .598.05.871 0l60.023 352.67c-3.374 1.14-5.878 4.13-6.204 7.87-.381 4.99 3.319 9.39 8.38 9.77a9.575 9.575 0 004.354-.71l195.741 309.26c-1.741 1.52-2.884 3.63-3.102 6.13-.381 4.99 3.32 9.39 8.326 9.77 2.884.22 5.605-.92 7.401-2.88l285.966 192.73c-.435.98-.762 2.01-.871 3.15-.381 4.99 3.32 9.39 8.381 9.82 4.353.33 8.217-2.39 9.414-6.35l377.932 56.83c0 4.66 3.646 8.63 8.381 9.01 5.006.43 9.414-3.31 9.849-8.36.055-.49.055-.98 0-1.47l331.732-80.05c1.251 3.04 4.19 5.32 7.673 5.59 5.006.38 9.414-3.31 9.849-8.36.164-1.85-.272-3.58-1.088-5.1l290.374-223.77c1.469 1.35 3.374 2.28 5.551 2.44 5.006.38 9.414-3.31 9.849-8.36.272-3.26-1.251-6.29-3.755-8.09l174.46-338.77c.98.32 1.96.59 3.05.65 6.37.49 11.86-4.18 12.41-10.53.49-5.92-3.59-11.13-9.36-12.21l20.24-326.03c5.66-.32 10.29-4.72 10.78-10.53.54-6.13-4.19-11.72-10.51-12.21zm-1247.036 975.25c-.653-4.07-3.973-7.33-8.272-7.65-1.687-.16-3.319.22-4.734.92l-38.365-54.65-58.336-83.04c.708-.65 1.361-1.36 1.851-2.17l287.98 143.82c-.055.93 0 1.85.162 2.77h-180.286zm-49.684-1641.84c-.925 0-1.85.05-2.721.22l146.167-72.78-128.644 80.05c-3.32-4.51-8.707-7.49-14.802-7.49zM589.178 2785.6c-4.68-.37-8.816 2.83-9.686 7.33l-187.851-6.89c-.054-.92-.272-1.79-.544-2.66l307.407-145.78c.489.81 1.142 1.52 1.795 2.23l-107.693 146.75a9.037 9.037 0 00-3.428-.98zm-1037.586-168.08v-.11c.381-4.99-3.32-9.39-8.381-9.82-.762-.06-1.578 0-2.285.1l-61.166-179.21c.816-.38 1.578-.87 2.286-1.46l243.683 231.26c-.599.81-1.088 1.68-1.469 2.66l-7.836-1.96-164.832-41.46zm-213.536-334.33l-10.285-171.61c.49-.11.979-.22 1.469-.38l139.419 297.26c-.49.27-.925.59-1.361.97l-122.549-112.18a9.697 9.697 0 001.524-4.29c.381-4.94-3.265-9.28-8.217-9.77zm282.592-1008.03c6.312.49 11.863-4.18 12.407-10.53.109-1.25 0-2.49-.326-3.69l153.404-58.56a17.453 17.453 0 002.177 3.47l-211.414 193.33-21.822 19.92c-1.088-.98-2.231-1.85-3.537-2.61l66.499-141.87c.816.27 1.687.49 2.612.54zm726.044-188.11c3.374.27 6.53-.98 8.815-3.1l54.31 44.94 66.498 55.09c-1.252 1.74-2.176 3.75-2.775 5.86l-313.665-58.18c.055-.65.109-1.3.109-1.95 0-1.14-.109-2.23-.327-3.31l177.294-46.52a11.562 11.562 0 009.741 7.17zm360.573 137.91a11.72 11.72 0 006.312-1.31l63.452 89.88 22.474 31.86c-1.524 1.25-2.884 2.77-3.918 4.51l-287.326-148.12c.544-1.3.979-2.71 1.197-4.18l187.252 16.34c.163 5.7 4.625 10.53 10.557 11.02zm385.335 639.13l-61.98 138.5-4.52 10.15c-1.96-.7-4.03-1.08-6.2-1.08-.39 0-.77 0-1.15.05l-43.695-314.89 115.365 149.36c-1.9 1.84-3.15 4.39-3.37 7.22-.38 4.39 1.9 8.52 5.55 10.69zm-1364.912 792.18l-243.683-231.26a11.848 11.848 0 002.122-5.27l230.514 3.42c.544 9.12 7.836 16.45 16.924 17.15v213.46c-2.177.22-4.19 1.14-5.877 2.5zm-177.402-1207.16c6.258-2.93 10.611-9.28 10.611-16.61 0-.87-.054-1.68-.163-2.55l293.149-64.15a23.25 23.25 0 006.53 10.58l-217.78 267.3c-3.755-2.71-8.381-4.29-13.387-4.29-2.34 0-4.625.38-6.748 1.03l-4.843-12.8-67.369-178.51zm709.337-88.2c.327 5.11 2.286 9.77 5.442 13.46L23.068 1606.29c-5.17-4.83-12.08-7.82-19.699-7.82-3.918 0-7.618.76-11.047 2.17l-10.611-22.25-94.687-198.86c6.693-3.69 11.373-10.64 11.863-18.67h360.736v.05zm-100.238-226.48l313.665 58.18c-.054.65-.109 1.3-.109 1.95 0 3.8 1.143 7.33 3.157 10.26L299.675 1344.2a22.871 22.871 0 00-17.088-7.6c-3.863 0-7.564.98-10.774 2.66l-119.448-194.68c3.374-2.5 5.932-6.03 7.02-10.15zm846.575 883.58l-191.764-140.57c2.34-3.58 3.646-7.82 3.646-12.43 0-6.08-2.394-11.56-6.258-15.69l147.908-156.58c3.047 2.5 6.965 3.97 11.21 4.08l45.168 315.22c-3.92.92-7.35 3.04-9.91 5.97zm-1269.565 635.76v-213.46c5.224-.38 9.904-2.98 12.951-6.83l297.666 201.19a17.537 17.537 0 00-2.394 8.9l-298.319 19.48c-.925-4.88-4.843-8.68-9.904-9.28zm-259.41-246.83l22.311-315.34c3.265 0 6.313-.86 8.979-2.38l215.332 318.48c-3.81 3.03-6.422 7.54-6.911 12.7l-230.515-3.37c-.544-5.05-4.244-9.12-9.196-10.09zM491.28 1212.91c3.102 0 5.986-.76 8.544-2.12l26.937 42.88 138.167 219.65c-3.483 2.49-6.258 5.97-7.945 10.04l-100.51-33.65-251.792-84.29c.49-1.9.762-3.91.762-5.92 0-4.88-1.524-9.39-4.136-13.08l176.369-139.37c3.482 3.58 8.271 5.86 13.604 5.86zm-839.287 445.86c-.817-5.27-3.429-9.88-7.183-13.3l217.78-267.3c3.755 2.72 8.38 4.29 13.387 4.29 3.047 0 5.877-.6 8.543-1.63l105.245 221.11c-9.034 4.83-15.128 14.33-15.128 25.24 0 .44 0 .87.054 1.3l-199.823 18.78-122.875 11.51zm1126.995 613.51l-252.826-120.16a22.55 22.55 0 001.687-8.58c0-5.64-2.068-10.85-5.496-14.87l141.16-135.52 115.856-111.21c3.754 3.48 8.706 5.65 14.148 6.03v375.19c-6.258.44-11.591 4.02-14.529 9.12zm-972.394-227.35c3.483-4.02 5.551-9.23 5.551-14.98 0-.71-.055-1.36-.109-2.01l156.342-23.55 169.403-25.51c2.286 11.23 11.102 20.13 22.366 22.41l-32.596 210.42-16.489 106.38c-.707-.06-1.415-.11-2.122-.11-5.932 0-11.373 2.28-15.455 5.97l-44.024-42.77-242.867-236.25zm322.372 284.5a23.146 23.146 0 00-15.02-10.91l31.073-200.76 17.958-116.03c.979.1 1.959.16 2.993.16 10.72 0 20.026-5.86 24.978-14.49l292.713 147.13c-1.197 2.77-1.85 5.87-1.85 9.07s.653 6.24 1.85 8.95l-176.313 87.93-178.382 88.95zm316.277-600.65c.816 0 1.632-.05 2.394-.11l28.025 208.25 24.76 184.1a23.082 23.082 0 00-15.4 10.91l-58.173-29.25-234.541-117.94c1.578-3.53 2.449-7.49 2.449-11.62 0-7.32-2.721-13.94-7.238-19.05l238.242-232.99c5.061 4.83 11.917 7.7 19.482 7.7zm59.587 391.86c-.544 0-1.088 0-1.632.05l-52.786-392.34c8.707-1.58 16.054-7.11 20.135-14.66l302.999 142.91a23.036 23.036 0 00-1.633 8.52c0 5.64 2.068 10.85 5.496 14.87l-257.015 246.73c-4.082-3.8-9.523-6.08-15.564-6.08zm-753.851 310.5c1.524-2.66 2.449-5.81 2.449-9.12 0-.86-.055-1.68-.164-2.49l86.144-18.67 247.602-53.68c2.285 8.09 8.924 14.38 17.304 16.17l-30.909 202.93-8.979 59.16c-.435-.05-.87-.05-1.36-.05-5.823 0-10.993 2.71-14.367 6.89l-278.13-188-19.59-13.14zm316.168 194.74l1.088-7.06 38.8-255.03c.653.05 1.361.11 2.068.11 7.836 0 14.747-3.91 18.938-9.88l300.822 181.06a18.216 18.216 0 00-1.959 8.25c0 1.14.109 2.22.326 3.31l-346.75 91.18c-2.177-6.03-7.184-10.53-13.333-11.94zm378.096-100.95c-6.15 0-11.646 3.04-14.965 7.7l-300.823-181.11c1.687-3.15 2.613-6.78 2.613-10.64 0-3.2-.654-6.24-1.851-8.95l127.284-63.45 227.467-113.43c3.21 5.54 8.652 9.61 15.128 10.96l-53.547 358.97c-.436-.05-.871-.05-1.306-.05zm329.554-670.88L633.42 1787.4l-161.621-76.26c1.414-3.36 2.176-7.05 2.176-10.96 0-6.84-2.394-13.13-6.421-18.02l194.653-173.84a22.998 22.998 0 0016.162 6.62c1.904 0 3.755-.21 5.496-.65l102.904 329.44c-5.169 1.85-9.36 5.54-11.972 10.32zm-118.631-368.03c-.489 1.89-.761 3.9-.761 5.97 0 5.37 1.85 10.31 4.952 14.22l-30.474 27.19-164.179 146.59c-5.225-5.26-12.462-8.52-20.407-8.52-3.918 0-7.673.81-11.047 2.22l-112.536-235.71-27.917-58.4a23.216 23.216 0 0010.177-11.45l217.018 72.62 135.174 45.27zm-389.142-109.64c4.081 3.75 9.578 6.03 15.563 6.03 3.048 0 5.932-.6 8.598-1.69l95.722 200.44 44.731 93.67c-7.292 3.91-12.679 10.86-14.475 19.16l-19.101-3.15-366.123-60.46c.108-1.08.217-2.17.217-3.25 0-7.22-2.666-13.79-7.074-18.84l81.899-78.48 160.043-153.43zM16.81 1652.47c7.347-3.9 12.843-10.91 14.639-19.26l385.224 63.66c-.109 1.08-.218 2.17-.218 3.31 0 7.33 2.721 13.95 7.238 19.05l-229.698 224.64-8.544 8.36a28.65 28.65 0 00-19.481-7.6c-3.864 0-7.564.76-10.884 2.12l-54.853-116.8-83.423-177.48zm-229.317 400.38c.599.06 1.143.06 1.742.06 5.931 0 11.373-2.28 15.454-5.97l190.3 184.96 96.7 94c-3.482 4.02-5.55 9.23-5.55 14.98 0 1.2.109 2.34.272 3.48l-333.8 72.4c-1.904-6.35-7.183-11.24-13.713-12.65l31.182-225.45 17.413-125.81zM-8.82 1653.12a28.59 28.59 0 0012.19 2.72c3.863 0 7.563-.76 10.883-2.12l59.86 127.33 78.416 166.89c-9.088 4.83-15.292 14.33-15.292 25.29 0 .98.055 1.96.163 2.88l-325.745 49.06c-1.361-6.24-5.224-11.5-10.503-14.76l33.903-63.77L-8.82 1653.12zm-224.474 381.66c1.904 8.9 8.979 15.9 17.958 17.69l-32.434 234.41-16.162 116.85c-.381 0-.761-.05-1.088-.05-3.319 0-6.421.87-9.088 2.39L-362.7 2275.1l-126.794-187.46a18.321 18.321 0 006.966-14.38c0-.43 0-.87-.055-1.3l8.707-1.31 240.582-35.87zm692.304 496.33a18.43 18.43 0 00-9.741-5.75l32.76-219.48 20.842-139.49c.653.06 1.306.11 1.959.11 8.653 0 16.162-4.77 20.08-11.83l190.191 90.42 62.635 29.8a17.878 17.878 0 00-1.252 6.62c0 3.63 1.034 7 2.885 9.82l-261.043 195.44-59.316 44.34zm337.337-267.95v-375.19a22.73 22.73 0 0016.216-8.2l116.183 85.16 75.584 55.41a18.443 18.443 0 00-2.77 9.72c0 4.94 1.96 9.39 5.11 12.7l-200.582 224.15c-2.776-2.17-6.095-3.47-9.741-3.75zm158.574-593.32c-1.415 2.61-2.177 5.54-2.177 8.68 0 4.78 1.796 9.07 4.789 12.32l-137.841 145.89-10.067 10.7a22.816 22.816 0 00-14.693-5.32c-1.905 0-3.7.21-5.496.65l-33.522-107.41-69.383-222.04a22.75 22.75 0 0010.394-7.92l77.546 49.39 180.45 115.06zm-1315.227 12.92c7.456-3.8 12.571-11.51 12.571-20.41v-.76l322.698-30.28c1.252 8.73 6.476 16.17 13.768 20.51l-16.053 30.23-173.92 327.11a23.026 23.026 0 00-9.469-2.06c-2.775 0-5.387.49-7.836 1.36l-77.219-177.53-64.54-148.17zm440.568 967.21a18.34 18.34 0 001.088-6.24c0-1.14-.109-2.22-.326-3.31l346.75-91.18c1.851 5.27 5.986 9.45 11.265 11.29l-26.012 97.42-31.399 117.72c-.218-.05-.435-.05-.653-.11-4.462-.38-8.544 1.9-10.72 5.49l-224.529-101.44-65.464-29.64zm380.49-116.58l284.17-212.75 36.188-27.08c2.122 2.44 4.898 4.28 8.054 5.32l-79.614 321.19c-.163 0-.272-.05-.435-.05a11.597 11.597 0 00-11.319 6.45l-234.759-78.75c.381-1.46.544-2.93.544-4.5 0-3.58-1.034-7-2.829-9.83zm495.692-865.88l-148.941-94.93-109.054-69.47a22.735 22.735 0 002.884-11.12c0-5.81-2.177-11.13-5.768-15.2l103.666-103.39a18.333 18.333 0 0011.972 4.45c2.449 0 4.789-.49 6.966-1.36l143.554 286.3a17.532 17.532 0 00-5.279 4.72zm-159.226-296.07l-103.666 103.39c-4.082-3.58-9.36-5.75-15.237-5.75-3.973 0-7.728 1.03-10.993 2.77l-165.104-262.52c1.85-1.36 3.483-3.1 4.68-5.11l287.327 148.12a18.303 18.303 0 00-1.47 7.16c.055 4.56 1.687 8.74 4.463 11.94zm-655.627-223.39c2.993 0 5.877-.7 8.38-2.01l119.447 194.68c-5.55 3.91-9.305 10.21-9.795 17.37h-360.736c-.272-4.72-2.014-9.01-4.68-12.54l118.849-102.79 115.638-100.03c3.319 3.26 7.89 5.32 12.897 5.32zm-599.087 302.8c1.796 0 3.483-.28 5.115-.71l23.618 62.63 48.595 128.69c-8 3.58-13.605 11.61-13.605 20.89 0 2.33.327 4.56.98 6.68l-216.148 80.27a18.694 18.694 0 00-7.02-7.93l151.227-291.94c2.286.87 4.735 1.42 7.238 1.42zm81.191 233.7c1.796.43 3.646.7 5.551.7 2.775 0 5.387-.48 7.836-1.35l39.78 91.5 101.87 234.25c-7.455 3.8-12.571 11.51-12.571 20.41 0 .65.055 1.35.109 2.01l-249.234 37.17c-1.36-5.91-5.55-10.69-11.047-12.91l110.414-348.77 7.292-23.01zm122.767 981.49v-.27l152.425-9.93 145.894-9.5c1.089 7.81 7.129 14 14.856 15.41l-10.176 94.44-5.224 48.47c-5.06-.06-9.469 3.14-11.047 7.76l-287.326-143.5c.272-.87.489-1.85.598-2.88zm300.55 139l9.796-90.59 5.659-52.43h.544c6.966 0 13.006-3.85 16.108-9.49l186.327 84.17 103.775 46.9a9.645 9.645 0 00-.49 2.49v.6l-313.175 30.23c.326-5.53-3.32-10.47-8.544-11.88zm337.446-28.66l57.411-215.09c1.088.22 2.231.33 3.374.33 7.618 0 14.148-4.62 16.924-11.18l111.447 37.39 123.311 41.36c-.108.43-.163.92-.217 1.35-.109 1.58.054 3.15.544 4.56l-307.407 145.73c-1.251-1.95-3.156-3.58-5.387-4.45zm327.813-155.66l79.614-321.19c.979.16 2.013.27 3.047.27 6.258 0 11.809-3.15 15.128-7.93l136.97 79.68c-.49 1.14-.816 2.33-.925 3.58-.272 3.04.707 5.92 2.503 8.09l-233.507 239.07c-.871-.65-1.796-1.19-2.83-1.57zm236.12-251.61l-136.97-79.68a17.91 17.91 0 001.85-7.98c0-4.93-1.959-9.39-5.115-12.7l200.584-224.15c1.9 1.47 4.14 2.55 6.53 3.15l-57.084 316.85c-3.918-.22-7.51 1.58-9.795 4.51zM-134.635 1339.15c-7.346 3.8-12.407 11.51-12.407 20.35 0 1.2.109 2.39.272 3.53l-180.286 39.46-112.863 24.69c-.653-2.22-1.741-4.23-3.156-6.02l233.289-213.19c3.265 3.09 7.728 4.94 12.571 4.94 2.176 0 4.19-.38 6.149-1.03l1.959 4.45 54.472 122.82zm-482.904 434.3c6.149-2.99 10.394-9.23 10.394-16.5 0-1.74-.272-3.47-.708-5.05l121.407-45.1 94.741-35.17c2.449 5.54 7.074 9.93 12.734 12.11l-41.086 129.82-76.566 241.84c-1.36-.32-2.721-.49-4.19-.49-1.85 0-3.7.28-5.387.82l-36.732-93.14-74.607-189.14zm98.768 303.99c1.687 7.27 7.728 12.86 15.183 13.95l-22.311 315.33c-1.034.05-2.014.22-2.939.54l-131.746-280.97-7.618-16.29a11.242 11.242 0 005.333-8.79c.054-.43.054-.87.054-1.3l58.01-9.07 86.034-13.4zM973.26 1503.33l-3.211 156.9c-2.068.11-4.081.6-5.877 1.31l-142.63-284.56-.87-1.79c1.469-.87 2.829-2.01 4.027-3.26l59.533 47.22 82.171 65.18a11.44 11.44 0 00-2.83 6.62c-.598 6.14 3.755 11.51 9.687 12.38zm-849.41-368.79c.599 2.22 1.633 4.28 2.939 6.08l-234.487 202.82c-4.19-4.24-9.958-6.84-16.38-6.84-2.829 0-5.496.49-7.999 1.41l-5.768-12.97-50.718-114.36c5.768-3.09 9.687-9.17 9.687-16.17 0-.71-.055-1.41-.109-2.06l184.857-35.39 117.978-22.52zm-750.586 640.7c.381 0 .762.06 1.197.06 1.905 0 3.701-.28 5.388-.82l37.494 95.03 73.79 187.25c-6.149 2.99-10.339 9.23-10.339 16.5 0 .49 0 .98.054 1.41l-123.365 19.21-20.733 3.26c-1.089-3.8-4.136-6.89-8.054-7.92l4.353-30.56 40.215-283.42zm866.66 1094.6c-3.864-.33-7.347 1.84-8.925 5.1l-176.64-53.84c.217-.43.38-.87.544-1.3l314.046-30.29c.217.87.489 1.74.925 2.55l-123.855 80.76c-1.579-1.62-3.646-2.76-6.095-2.98zm653.885-319.02c-5.006-.38-9.414 3.31-9.849 8.35-.055.93 0 1.8.163 2.66l-165.866 64.16c-.326-.6-.707-1.2-1.143-1.74l136.045-139.32 97.463-99.76c.598.44 1.197.82 1.85 1.14l-57.738 164.61a5.21 5.21 0 01-.925-.1zM-384.522 1273.48l-28.243 60.3-38.201 81.57a18.282 18.282 0 00-6.476-1.19c-10.176 0-18.393 8.19-18.393 18.34 0 6.62 3.483 12.38 8.707 15.63l-151.227 291.94a18.276 18.276 0 00-5.769-1.41v-173.13c5.333-.65 9.632-4.94 10.068-10.48.272-3.31-.926-6.4-2.993-8.68l232.364-273.05c0 .05.109.1.163.16zm-150.084 1138.07c-1.143 1.63-1.959 3.58-2.123 5.75-.489 6.3 4.191 11.83 10.557 12.38 1.143.1 2.232 0 3.266-.22l30.365 88.95 29.875 87.49-193.292-305.45 121.352 111.1zm1237.191 229.9c1.415.76 2.993 1.31 4.68 1.41 6.312.49 11.863-4.17 12.407-10.52.109-1.31 0-2.56-.326-3.75l53.438-20.68 111.72-43.2-289.014 222.74 107.095-146zm217.835-155.22l34.718-99c.49.11.98.22 1.524.22 6.313.49 11.863-4.18 12.407-10.53.327-3.74-1.251-7.16-3.809-9.5l19.59-28.38 80.76-117.12-164.345 319.18 19.155-54.87zm42.446-120.38c-.599-.33-1.252-.54-1.905-.76l57.089-316.85c.59.05 1.25.11 1.85.11 1.52 0 2.99-.17 4.35-.55l30.64 93.19 16.97 51.67c-3.59 1.68-6.2 5.21-6.58 9.45-.33 3.74 1.25 7.16 3.86 9.49l-41.95 60.9-64.324 93.35zm113.244-174.27c-.49.05-1.03.11-1.52.21l-34.94-106.1-12.73-38.7c6.63-2.77 11.31-9.28 11.31-16.93 0-6.95-3.91-13.03-9.63-16.12l66.5-148.66c.38.11.82.22 1.25.33l-20.24 325.97zm17.41-347.63c-.27.16-.6.27-.87.44l-84.51-109.37-30.418-39.4c6.856-2.66 11.754-9.28 11.754-17.1 0-9.44-7.183-17.25-16.434-18.23l2.993-156.91c.653-.05 1.306-.21 1.959-.38l115.526 340.95zm-134.409-368.84L826.44 1369.76c2.013-2.93 3.156-6.46 3.156-10.31 0-10.15-8.217-18.35-18.393-18.35-3.428 0-6.639.93-9.414 2.55l-81.954-116.14 239.276 247.6zM696.98 1210.74c-.055.11-.055.27-.109.38L592.552 1202l-82.824-7.22v-.22c0-10.15-8.217-18.34-18.394-18.34-5.169 0-9.849 2.12-13.223 5.59l-120.808-100.03.49-.81 339.187 129.77zm-414.229-119.57l-123.801 32.51c-2.503-7.16-9.305-12.32-17.359-12.32-10.177 0-18.394 8.2-18.394 18.35 0 .7.055 1.41.109 2.06l-302.835 57.96c-.327-1.3-.817-2.49-1.415-3.63l80.919-50.37 63.288-39.4c1.905 2.33 4.735 3.96 8 4.23 6.312.49 11.863-4.18 12.407-10.42l351.376-12.64-52.295 13.67zm-492.863 90.31a18.348 18.348 0 00-5.497 13.08c0 1.8.273 3.59.762 5.21l-137.078 52.32 141.813-70.61zm-417.059 383.99c.054 0 .163 0 .218.06v173.13c-9.469.71-16.979 8.63-16.979 18.29 0 8.74 6.149 16.07 14.421 17.91l-44.623 313.98c-.707 0-1.36.05-2.013.16l-30.093-104.21-15.782-54.65c2.885-1.36 4.952-4.13 5.225-7.49.326-3.96-1.96-7.49-5.388-9.01l95.014-348.17zm-93.109 380.84l41.412 143.39a11.502 11.502 0 00-6.966 9.67c-.489 6.29 4.191 11.83 10.557 12.37h.218l9.306 154.73-54.527-320.16zm271.055 674.25l.164-.33 172.668 43.48c0 .16-.055.32-.055.48-.49 6.3 4.19 11.84 10.557 12.38a11.81 11.81 0 006.313-1.3l96.7 137.63c-.108.11-.217.22-.326.38l-286.021-192.72zm482.742 200.27c1.687 3.69 5.224 6.35 9.523 6.67 3.81.33 7.346-1.3 9.632-3.96l167.716 51.13-358.233-53.84H33.517zm214.08 54.6c-.055-.11-.055-.16-.109-.27l123.855-80.76a11.63 11.63 0 007.836 4.01c6.041.49 11.319-3.74 12.299-9.6l186.653 6.89-330.534 79.73z" fill="#fff"/></g><defs><linearGradient id="paint0_linear_196_16156" x1="188.587" y1="980.225" x2="188.587" y2="1066.47" gradientUnits="userSpaceOnUse"><stop stop-color="#061B23" stop-opacity="0"/><stop offset="1" stop-color="#061B23"/></linearGradient><linearGradient id="paint1_linear_196_16156" x1="172.396" y1="-258.72" x2="187.706" y2="583.626" gradientUnits="userSpaceOnUse"><stop stop-color="#04333A"/><stop offset="1" stop-color="#04333A" stop-opacity="0"/></linearGradient><linearGradient id="paint2_linear_196_16156" x1="175.418" y1="-168.125" x2="187.705" y2="507.944" gradientUnits="userSpaceOnUse"><stop stop-color="#04333A"/><stop offset="1" stop-color="#04333A" stop-opacity="0"/></linearGradient><linearGradient id="paint3_linear_196_16156" x1="179.729" y1="-38.903" x2="187.706" y2="399.993" gradientUnits="userSpaceOnUse"><stop stop-color="#04333A"/><stop offset="1" stop-color="#04333A" stop-opacity="0"/></linearGradient><linearGradient id="paint4_linear_196_16156" x1="347.776" y1="872.621" x2="315.552" y2="887.103" gradientUnits="userSpaceOnUse"><stop offset=".092" stop-color="#A4FBFA"/><stop offset=".195" stop-color="#A4FBFA" stop-opacity=".7"/><stop offset="1" stop-color="#A4FBFA" stop-opacity="0"/></linearGradient><linearGradient id="paint5_linear_196_16156" x1="384.983" y1="617.586" x2="361.966" y2="627.931" gradientUnits="userSpaceOnUse"><stop offset=".092" stop-color="#A4FBFA"/><stop offset=".195" stop-color="#A4FBFA" stop-opacity=".7"/><stop offset="1" stop-color="#A4FBFA" stop-opacity="0"/></linearGradient><linearGradient id="paint6_linear_196_16156" x1="29.983" y1="303.586" x2="6.966" y2="313.931" gradientUnits="userSpaceOnUse"><stop offset=".092" stop-color="#A4FBFA"/><stop offset=".195" stop-color="#A4FBFA" stop-opacity=".7"/><stop offset="1" stop-color="#A4FBFA" stop-opacity="0"/></linearGradient><linearGradient id="paint7_linear_196_16156" x1="401.431" y1="17.345" x2="353.862" y2="38.724" gradientUnits="userSpaceOnUse"><stop offset=".092" stop-color="#A4FBFA"/><stop offset=".195" stop-color="#A4FBFA" stop-opacity=".7"/><stop offset="1" stop-color="#A4FBFA" stop-opacity="0"/></linearGradient><linearGradient id="paint8_linear_196_16156" x1="42.983" y1="780.586" x2="19.965" y2="790.931" gradientUnits="userSpaceOnUse"><stop offset=".092" stop-color="#A4FBFA"/><stop offset=".195" stop-color="#A4FBFA" stop-opacity=".7"/><stop offset="1" stop-color="#A4FBFA" stop-opacity="0"/></linearGradient><linearGradient id="paint9_linear_196_16156" x1="424.81" y1="360.448" x2="349.621" y2="394.241" gradientUnits="userSpaceOnUse"><stop offset=".092" stop-color="#A4FBFA"/><stop offset=".195" stop-color="#A4FBFA" stop-opacity=".7"/><stop offset="1" stop-color="#A4FBFA" stop-opacity="0"/></linearGradient><linearGradient id="paint10_linear_196_16156" x1="187.5" y1="567" x2="187.5" y2="1453" gradientUnits="userSpaceOnUse"><stop stop-color="#0B071B" stop-opacity="0"/><stop offset=".339" stop-color="#0B071B"/></linearGradient><clipPath id="clip0_196_16156"><path fill="#fff" d="M0 0h375v3704H0z"/></clipPath></defs></svg>