<svg width="30" height="30" fill="none" xmlns="http://www.w3.org/2000/svg"><g clip-path="url(#clip0_206_18)"><path d="M15 0C6.551 0 0 6.191 0 14.55c0 4.372 1.792 8.152 4.71 10.762.244.218.394.525.401.855l.083 2.67A1.2 1.2 0 006.878 29.9l2.977-1.313c.251-.112.536-.131.803-.06 1.368.375 2.823.578 4.342.578 8.449 0 15-6.191 15-14.55C30 6.195 23.449 0 15 0z" fill="url(#paint0_radial_206_18)"/><path d="M5.993 18.806l4.406-6.99a2.25 2.25 0 013.255-.6l3.507 2.63a.9.9 0 001.083-.005l4.733-3.592c.63-.48 1.455.277 1.035.949l-4.41 6.986a2.25 2.25 0 01-3.255.6l-3.506-2.629a.9.9 0 00-1.084.004L7.024 19.75c-.63.48-1.455-.273-1.03-.945z" fill="#fff"/></g><defs><radialGradient id="paint0_radial_206_18" cx="0" cy="0" r="1" gradientUnits="userSpaceOnUse" gradientTransform="matrix(33 0 0 33 5.025 30)"><stop stop-color="#09F"/><stop offset=".6" stop-color="#A033FF"/><stop offset=".9" stop-color="#FF5280"/><stop offset="1" stop-color="#FF7061"/></radialGradient><clipPath id="clip0_206_18"><path fill="#fff" d="M0 0h30v30H0z"/></clipPath></defs></svg>