<svg width="30" height="30" fill="none" xmlns="http://www.w3.org/2000/svg"><g clip-path="url(#clip0_206_25)"><path d="M15 0C6.716 0 0 6.716 0 15c0 8.284 6.716 15 15 15 8.284 0 15-6.716 15-15 0-8.284-6.716-15-15-15z" fill="#40B3E0"/><path d="M22.299 8.629l-2.68 13.507s-.374.937-1.404.488l-6.183-4.74-2.248-1.087L6 15.523s-.581-.206-.637-.656c-.057-.45.655-.693.655-.693l15.044-5.901s1.237-.544 1.237.356z" fill="#fff"/><path d="M11.556 21.985s-.18-.017-.405-.729c-.225-.712-1.368-4.459-1.368-4.459l9.087-5.77s.524-.319.505 0c0 0 .094.056-.187.318-.28.263-7.138 6.426-7.138 6.426" fill="#D2E5F1"/><path d="M14.402 19.701l-2.445 2.23s-.191.145-.4.054l.468-4.142" fill="#B5CFE4"/></g><defs><clipPath id="clip0_206_25"><path fill="#fff" d="M0 0h30v30H0z"/></clipPath></defs></svg>