<svg width="30" height="30" fill="none" xmlns="http://www.w3.org/2000/svg"><g clip-path="url(#clip0_206_13)"><path d="M2.86 27.89l1.3-6.038a12.82 12.82 0 114.646 4.366L2.86 27.892z" fill="#25D366" stroke="#fff" stroke-width="2.415"/><path d="M20.046 16.743c-.28-.186-.558-.279-.837.093l-1.114 1.486c-.279.186-.465.279-.836.093-1.394-.743-3.345-1.58-5.017-4.366-.093-.372.093-.558.279-.743l.836-1.301c.186-.186.093-.372 0-.557l-1.115-2.694c-.279-.744-.557-.65-.836-.65h-.743c-.186 0-.557.092-.929.464-2.044 2.044-1.208 4.923.279 6.781.278.372 2.136 3.716 6.13 5.481 2.974 1.3 3.624 1.115 4.46.93 1.022-.094 2.044-.93 2.508-1.766.093-.279.558-1.486.186-1.672" fill="#fff"/></g><defs><clipPath id="clip0_206_13"><path fill="#fff" d="M0 0h30v30H0z"/></clipPath></defs></svg>