<svg width="28" height="28" fill="none" xmlns="http://www.w3.org/2000/svg"><g id="Frame"><path id="Vector" d="M9.21 15.102a3.768 3.768 0 01-.39-1.685 3.803 3.803 0 016.55-2.643 5.54 5.54 0 011.978-.367c.223 0 .445.016.665.046a6.143 6.143 0 10-10.85 5.764 4.364 4.364 0 012.048-1.114zm5.583-8.487a1.032 1.032 0 001.29-.67l.25-.83a1.033 1.033 0 00-.67-1.294 1.027 1.027 0 00-1.278.67l-.263.829a1.032 1.032 0 00.671 1.295zm-5.647.56a1.032 1.032 0 00.438-1.388l-.397-.776A1.032 1.032 0 007.8 4.573a1.038 1.038 0 00-.443 1.389l.402.77a1.038 1.038 0 001.388.443zm10.104 2.946a1.028 1.028 0 001.388.443l.776-.402a1.032 1.032 0 00.42-1.412 1.033 1.033 0 00-1.388-.437l-.77.437a1.032 1.032 0 00-.426 1.37zM3.529 18.667a1.026 1.026 0 001.388.437l.77-.437a1.028 1.028 0 00-.166-1.894 1.032 1.032 0 00-.785.068l-.77.402a1.033 1.033 0 00-.437 1.424zm19.285-.286h-.198c.131-.457.198-.93.198-1.406a5.169 5.169 0 00-10.302-.63 4.017 4.017 0 00-1.505-.292 4.083 4.083 0 000 8.12c.148.01.296.01.444 0h11.351v-.035a2.882 2.882 0 100-5.763l.012.006zM5.489 11.62a1.033 1.033 0 00-.67-1.29l-.83-.262a1.033 1.033 0 00-1.294.671 1.033 1.033 0 00.67 1.29l.829.262a1.028 1.028 0 001.295-.671z" fill="#002E44"/></g></svg>