<svg width="28" height="28" fill="none" xmlns="http://www.w3.org/2000/svg"><g id="Frame" fill="#002E44"><path id="Vector" d="M18.923 16.123l-3.722-2.473a.245.245 0 00-.25 0 .256.256 0 00-.135.222v4.952a.257.257 0 00.135.222.267.267 0 00.116.029.28.28 0 00.134-.04l3.722-2.48a.257.257 0 00.105-.204.256.256 0 00-.105-.228z"/><path id="Vector_2" d="M22.167 10.5v11.667H10.5V10.5h11.667zm1.167-2.333h-14a1.167 1.167 0 00-1.167 1.166v14A1.167 1.167 0 009.334 24.5h14a1.167 1.167 0 001.166-1.167v-14a1.167 1.167 0 00-1.166-1.166z"/><path id="Vector_3" d="M18.725 3.5H4.667A1.167 1.167 0 003.5 4.667v14a1.167 1.167 0 002.333 0V5.833h12.892a1.167 1.167 0 000-2.333z"/></g></svg>