<svg width="28" height="28" fill="none" xmlns="http://www.w3.org/2000/svg"><g id="Frame"><path id="Vector" d="M23.37 7v12.76H4.703V7H23.37zm1.167-2.333h-21A1.17 1.17 0 002.37 5.833v15.094a1.17 1.17 0 001.167 1.167h21a1.17 1.17 0 001.166-1.167V5.833a1.17 1.17 0 00-1.166-1.166zm-7.422 8.47L12.74 10.22a.308.308 0 00-.3-.015.292.292 0 00-.153.258v5.833a.292.292 0 00.453.243l4.375-2.916a.292.292 0 000-.486zm1.552 12.53H9.333a1.167 1.167 0 110-2.334h9.334a1.167 1.167 0 110 2.334z" fill="#ED0E05"/></g></svg>