<svg width="28" height="28" fill="none" xmlns="http://www.w3.org/2000/svg"><g id="Frame" fill="#002E44"><path id="Vector" d="M25.378 12.474l1.033-6.542a.308.308 0 00-.155-.323.42.42 0 00-.403.013L18.737 9.56a.422.422 0 00-.226.334.303.303 0 00.191.303l6.09 2.604a.428.428 0 00.372-.028.43.43 0 00.221-.3l-.007.001z"/><path id="Vector_2" d="M23.163 15.774l-.194.808c-1.423 4.946-6.605 7.817-11.55 6.388C6.472 21.54 3.6 16.364 5.03 11.419c1.43-4.946 6.606-7.817 11.55-6.389a9.314 9.314 0 016.022 5.375c.874.244 1.735.425 2.473-.061a11.65 11.65 0 00-7.848-7.557C11.037 1.006 4.572 4.58 2.788 10.772a11.667 11.667 0 007.984 14.44c6.193 1.781 12.656-1.793 14.44-7.984.098-.35.18-.704.246-1.062-.598-.368-1.317-.499-2.295-.392zm-9.151-8.926a1.17 1.17 0 00-1.168 1.166l-.006 6.029a1.17 1.17 0 001.166 1.167 1.17 1.17 0 001.167-1.165l.006-6.029a1.17 1.17 0 00-1.165-1.168z"/><path id="Vector_3" d="M18.045 18.318a1.17 1.17 0 00.03-1.65l-3.237-3.36a1.17 1.17 0 00-1.65-.03 1.17 1.17 0 00-.03 1.65l3.237 3.36a1.17 1.17 0 001.65.03zm7.377-1.855a1.178 1.178 0 01-2.16.244 1.178 1.178 0 01-.1-.895 1.179 1.179 0 011.455-.805 1.179 1.179 0 01.805 1.456z"/></g></svg>