<svg width="102" height="21" fill="none" xmlns="http://www.w3.org/2000/svg"><g id="Frame" fill="#0172F0"><path id="Vector" d="M9.488 13.033a4.523 4.523 0 01-3.63 1.815c-2.087 0-3.927-1.444-4.372-3.433l-.017-.071h10.204c.06-.392.044-.817.044-.817v-.038c0-3.141-2.628-5.697-5.858-5.697C2.629 4.792 0 7.348 0 10.49c0 3.142 2.628 5.7 5.859 5.7 2.2 0 4.196-1.184 5.21-3.09l.144-.278H9.634a4.04 4.04 0 01-.146.211v-.001zm-8.07-3.097c.287-2.168 2.197-3.802 4.44-3.802 2.245 0 4.154 1.634 4.442 3.802l.009.066h-8.9l.009-.066z"/><path id="Vector_2" d="M18.289 16.194c-.65 0-1.272-.11-1.85-.327a4.478 4.478 0 01-1.504-.928A4.222 4.222 0 0113.93 13.5c-.242-.572-.34-1.196-.336-1.855V5.013h1.355v6.523c-.001.51.064.988.242 1.42a3.2 3.2 0 001.794 1.767c.41.16.848.244 1.299.244.462 0 .901-.084 1.311-.244a3.225 3.225 0 001.805-1.77c.181-.434.292-.91.294-1.417V5.013h1.352v6.632a4.717 4.717 0 01-.39 1.852 4.303 4.303 0 01-1.011 1.44 4.56 4.56 0 01-1.507.929 5.208 5.208 0 01-1.85.328z"/><path id="Vector_3" d="M24.984 15.897V9.62c0-.467.06-.923.175-1.358a4.33 4.33 0 01.783-1.597c.448-.569 1.046-1.015 1.78-1.327.848-.36 1.889-.542 3.092-.542h.228V6.16h-.222c-.877 0-1.63.108-2.24.322-.539.188-.98.462-1.315.813a2.846 2.846 0 00-.644 1.104 4.056 4.056 0 00-.178 1.221v6.277h-1.459z"/><path id="Vector_4" d="M52.828 15.897v-5.735c.001-.444-.049-.857-.2-1.225a2.65 2.65 0 00-.601-.9 2.597 2.597 0 00-.87-.561 2.907 2.907 0 00-1.073-.201A2.94 2.94 0 0049 7.477a2.64 2.64 0 00-.876.566c-.26.253-.464.555-.608.9a3.208 3.208 0 00-.255 1.225v5.73h-2.683v-5.846a5.42 5.42 0 01.445-2.123 4.997 4.997 0 011.176-1.678 5.304 5.304 0 011.752-1.084 6.032 6.032 0 012.125-.38 6 6 0 012.127.379c.666.25 1.255.616 1.752 1.085.506.476.9 1.041 1.17 1.68.276.659.389 1.374.386 2.127v5.84h-2.685.002z"/><path id="Vector_5" d="M62.68 16.187c-3.23 0-5.856-2.557-5.856-5.7 0-3.142 2.627-5.7 5.857-5.7 3.23 0 5.857 2.558 5.857 5.7 0 .292-.023.583-.069.871l-.013.086h-9.147l.04.118c.474 1.399 1.814 2.34 3.333 2.34a3.52 3.52 0 002.243-.796l.193-.158h2.852l-.08.15c-1.013 1.904-3.008 3.089-5.206 3.089h-.003zm0-9.114c-1.519 0-2.859.94-3.333 2.341l-.04.116h6.744l-.04-.116c-.474-1.4-1.812-2.341-3.332-2.341h.002z"/><path id="Vector_6" d="M69.451 5.077v-.064h2.905c.356 2.625 1.267 6.787 2.056 8.668.834-1.881 1.808-6.045 2.163-8.668h2.41c.37 2.625 1.33 6.612 2.179 8.668.788-2.056 1.685-6.045 2.055-8.668h2.89v.064c-.664 4.098-1.93 8.311-3.013 10.82H79.48c-.603-1.37-1.329-3.47-1.7-5.352-.355 1.881-1.144 4.098-1.685 5.352H72.48c-1.268-2.741-2.645-7.339-3.028-10.82z"/><path id="Vector_7" d="M87.303 15.42v-2.08h.122c.653.187 2.066.445 3.084.445h.593c.942 0 1.656-.272 1.656-1.175 0-.674-.623-.947-1.307-1.119l-1.778-.444c-1.306-.316-2.37-1.176-2.37-3.025 0-2.18 1.9-3.083 4.209-3.083h.592c.715 0 2.143.172 2.796.402v2.064h-.122c-.592-.157-2.02-.33-2.674-.33h-.531c-.836 0-1.55.158-1.55.947 0 .616.486.86 1.079 1.003l1.777.46c1.716.43 2.612 1.39 2.612 3.125 0 2.408-1.838 3.312-4.39 3.312h-.592c-.896 0-2.385-.23-3.206-.502z"/><path id="Vector_8" d="M99.564 15.923c1.345 0 2.434-1.028 2.434-2.297 0-1.268-1.089-2.297-2.434-2.297-1.344 0-2.434 1.029-2.434 2.297 0 1.269 1.09 2.297 2.434 2.297z"/><path id="Vector_9" d="M37.362 4.813c-3.254 0-5.893 2.552-5.893 5.7 0 3.149 2.639 5.701 5.893 5.701 3.255 0 5.894-2.552 5.894-5.7 0-3.149-2.64-5.7-5.894-5.7zm0 9.845c-2.271 0-4.119-1.86-4.119-4.144 0-2.286 1.848-4.145 4.12-4.145 2.27 0 4.118 1.86 4.118 4.145 0 2.285-1.847 4.144-4.119 4.144z"/></g></svg>