<svg width="350" height="384" fill="none" xmlns="http://www.w3.org/2000/svg"><path d="M328.907 125.632s-51.699 45.38 7.829 142.552c52.868 86.298-65.961 123.707-117.167 113.69-66.333-12.977-104.418-96.818-155.145-70.252-50.727 26.566-100.98-93.815-27.193-138.112 91.788-55.103 32.88-87.125 41.123-127.528 5.917-28.997 90.115-73.83 135.515-22.69 38.203 43.034 56.938 27.639 74.399 21.894 25.184-8.286 80.155 34.813 40.639 80.446z" fill="#FFFBF6" fill-opacity=".14"/><path d="M182.528 176.77l-16.938 69.476a20.189 20.189 0 0014.837 24.402l84.239 20.537c2.166 23.781 21.847 25.54 29.612 26.354a.343.343 0 00.349-.239.344.344 0 00-.142-.399c-5.576-3.399-7.24-12.716-7.612-20.302l6.254 1.524a20.19 20.19 0 0024.402-14.836l16.937-69.476a20.195 20.195 0 00-2.362-15.275 20.198 20.198 0 00-12.474-9.128l-112.7-27.475a20.18 20.18 0 00-21.079 7.691 20.208 20.208 0 00-3.323 7.146z" fill="#5E7153"/><path d="M322.263 211.045l-47.105-11.484a.577.577 0 00-.698.425l-2.417 9.912a.578.578 0 00.425.698l47.105 11.484a.577.577 0 00.698-.425l2.417-9.912a.577.577 0 00-.425-.698zm-6.726 27.589L187.909 207.52a.577.577 0 00-.698.424l-2.417 9.913a.578.578 0 00.425.698l127.627 31.115a.578.578 0 00.699-.425l2.416-9.912a.578.578 0 00-.424-.699zm-6.726 27.589l-127.627-31.114a.578.578 0 00-.699.424l-2.416 9.913a.577.577 0 00.424.698l127.627 31.115a.58.58 0 00.699-.425l2.417-9.912a.58.58 0 00-.425-.699z" fill="#fff"/><path d="M229.957 93.427l27.698 88.946a26.296 26.296 0 01-8.278 28.034 26.304 26.304 0 01-9.018 4.904l-107.844 33.582c-.873 31.095-26.317 34.989-36.346 36.682a.45.45 0 01-.321-.812c6.971-4.875 8.374-17.125 8.238-27.018l-8.007 2.493a26.296 26.296 0 01-32.937-17.295l-27.698-88.945a26.3 26.3 0 0117.295-32.939l144.28-44.927a26.296 26.296 0 0128.034 8.277 26.294 26.294 0 014.904 9.018z" fill="#E4E4DA"/><path d="M128.062 125.283L50.8 149.311a.578.578 0 00-.38.724l4.051 13.027a.578.578 0 00.724.38l77.262-24.028a.579.579 0 00.38-.724l-4.051-13.027a.578.578 0 00-.724-.38zm97.501 8.256L61.839 184.523a.578.578 0 00-.38.724l4.056 13.024a.58.58 0 00.724.381l163.723-50.985a.578.578 0 00.38-.724l-4.055-13.024a.578.578 0 00-.724-.38zm10.984 35.502L72.785 219.97a.578.578 0 00-.38.724l4.05 13.027a.578.578 0 00.724.38l163.762-50.929a.579.579 0 00.381-.724l-4.052-13.027a.577.577 0 00-.723-.38z" fill="#fff"/></svg>