<svg width="24" height="24" fill="none" xmlns="http://www.w3.org/2000/svg"><path fill-rule="evenodd" clip-rule="evenodd" d="M18.985 16.945c-.289.819-1.439 1.496-2.355 1.694-.628.134-1.446.239-4.204-.904-3.097-1.283-7.398-5.854-7.398-8.896 0-1.548.893-3.351 2.454-3.351.751 0 .917.015 1.164.608.29.698.995 2.42 1.079 2.596.347.724-.353 1.147-.86 1.777-.163.19-.346.395-.141.748.204.346.91 1.496 1.946 2.419 1.34 1.193 2.426 1.574 2.814 1.736.29.12.635.092.846-.133.268-.29.6-.77.939-1.243.239-.338.542-.38.86-.26.215.074 2.945 1.342 3.06 1.545.085.147.085.846-.204 1.664zM12.002 0h-.006C5.381 0 0 5.382 0 12c0 2.624.846 5.058 2.285 7.033L.79 23.492l4.61-1.474A11.908 11.908 0 0012.002 24C18.618 24 24 18.618 24 12S18.618 0 12.002 0z" fill="#45494B"/></svg>