<svg width="26" height="28" fill="none" xmlns="http://www.w3.org/2000/svg"><path d="M14.019 16.037s.488.042.75-.288l.512-.658c.247-.325.842-.532 1.426-.202.437.255.862.532 1.272.83.387.29 1.18.967 1.182.967.378.326.466.803.208 1.307l-.003.011a5.434 5.434 0 01-1.065 1.34l-.01.007c-.366.313-.726.49-1.08.534a1.412 1.412 0 01-.617-.062l-.013-.017c-.546-.158-1.456-.552-2.973-1.405a17.684 17.684 0 01-2.498-1.686 13.223 13.223 0 01-1.124-1.018l-.075-.077-.039-.038-.037-.039a13.296 13.296 0 01-.996-1.148 18.138 18.138 0 01-1.65-2.55c-.837-1.55-1.222-2.479-1.377-3.039l-.017-.01a1.499 1.499 0 01-.07-.47.723.723 0 01.01-.16c.044-.362.218-.73.524-1.107l.007-.01c.377-.431.82-.798 1.311-1.087l.01-.002c.494-.263.962-.173 1.28.21.003.002.664.812.946 1.207.292.42.564.853.813 1.3.325.596.122 1.205-.197 1.457l-.645.522c-.324.269-.282.767-.282.767s.954 3.686 4.517 4.614zM12.815 5.012a.34.34 0 00-.247.102.354.354 0 00-.104.251.36.36 0 00.213.328.34.34 0 00.133.028c1.854.014 3.364.626 4.6 1.856 1.226 1.221 1.852 2.88 1.869 5.056a.36.36 0 00.102.25.348.348 0 00.246.102.342.342 0 00.32-.22.36.36 0 00.025-.137c-.018-2.315-.708-4.194-2.078-5.558-1.357-1.35-3.073-2.044-5.079-2.058zm.635 1.839a.34.34 0 00-.252.085.354.354 0 00-.12.242.36.36 0 00.19.343c.041.02.086.033.131.037 1.325.099 2.306.541 3.023 1.34.718.802 1.06 1.777 1.034 2.997a.361.361 0 00.096.252.347.347 0 00.244.109.343.343 0 00.246-.098.358.358 0 00.107-.246c.029-1.37-.378-2.558-1.216-3.492-.846-.944-2.029-1.462-3.482-1.57h-.001zm.52 1.9a.34.34 0 00-.251.09.354.354 0 00-.114.245.358.358 0 00.088.256c.062.07.148.112.24.117.597.032 1 .204 1.274.491.272.289.439.723.47 1.36a.357.357 0 00.114.244.343.343 0 00.248.092.344.344 0 00.24-.115.359.359 0 00.09-.254c-.038-.751-.247-1.377-.664-1.82-.418-.44-1.018-.669-1.736-.707zm9.096-6.02c-.681-.642-3.435-2.683-9.568-2.71 0 0-7.231-.446-10.757 2.856C.78 4.882.09 7.815.016 11.452c-.073 3.636-.167 10.451 6.265 12.3h.007l-.005 2.82s-.04 1.141.695 1.374c.891.282 1.412-.586 2.262-1.52a71.25 71.25 0 001.597-1.845c4.4.378 7.784-.485 8.168-.614.888-.294 5.915-.952 6.73-7.766.845-7.024-.407-11.467-2.669-13.47zm.746 12.966c-.69 5.69-4.768 6.048-5.519 6.294-.32.105-3.291.86-7.028.61 0 0-2.784 3.43-3.655 4.324-.135.14-.294.196-.401.168-.151-.038-.192-.218-.19-.483l.024-4.686C1.6 20.381 1.919 14.58 1.98 11.544c.062-3.039.621-5.526 2.281-7.2 2.982-2.759 9.123-2.347 9.123-2.347 5.187.024 7.674 1.62 8.25 2.153 1.913 1.674 2.89 5.678 2.177 11.546l.001.001z" fill="#45494B"/></svg>