<svg width="23" height="23" fill="none" xmlns="http://www.w3.org/2000/svg"><path fill-rule="evenodd" clip-rule="evenodd" d="M11.5 17.773a6.273 6.273 0 100-12.546 6.273 6.273 0 000 12.546zm0-2.091a4.182 4.182 0 100-8.364 4.182 4.182 0 000 8.364z" fill="#45494B"/><path d="M17.773 4.182a1.045 1.045 0 100 2.09 1.045 1.045 0 000-2.09z" fill="#45494B"/><path fill-rule="evenodd" clip-rule="evenodd" d="M.684 3.425C0 4.767 0 6.523 0 10.036v2.928c0 3.513 0 5.27.684 6.611a6.273 6.273 0 002.741 2.741C4.767 23 6.523 23 10.036 23h2.928c3.513 0 5.27 0 6.611-.684a6.273 6.273 0 002.741-2.741C23 18.233 23 16.477 23 12.964v-2.928c0-3.513 0-5.27-.684-6.611A6.273 6.273 0 0019.575.684C18.233 0 16.477 0 12.964 0h-2.928c-3.513 0-5.27 0-6.611.684A6.273 6.273 0 00.684 3.425zm12.28-1.334h-2.928c-1.79 0-3.008.002-3.95.078-.916.075-1.385.211-1.712.378a4.182 4.182 0 00-1.827 1.827c-.167.327-.303.796-.378 1.713-.076.94-.078 2.158-.078 3.95v2.927c0 1.79.002 3.008.078 3.95.075.916.211 1.385.378 1.712.4.787 1.04 1.426 1.827 1.827.327.167.796.303 1.713.378.94.076 2.158.078 3.95.078h2.927c1.79 0 3.008-.002 3.95-.078.916-.075 1.385-.211 1.712-.378a4.183 4.183 0 001.827-1.827c.167-.327.303-.796.378-1.713.076-.94.078-2.158.078-3.95v-2.927c0-1.79-.002-3.008-.078-3.95-.075-.916-.211-1.385-.378-1.712a4.182 4.182 0 00-1.827-1.827c-.327-.167-.796-.303-1.713-.378-.94-.076-2.158-.078-3.95-.078z" fill="#45494B"/></svg>