<svg width="22" height="21" fill="none" xmlns="http://www.w3.org/2000/svg"><path fill-rule="evenodd" clip-rule="evenodd" d="M4.994 20.5V7.005H.28V20.5h4.715zM2.637 5.164c1.644 0 2.668-1.038 2.668-2.332C5.274 1.508 4.28.5 2.668.5S0 1.508 0 2.832c0 1.295 1.023 2.332 2.606 2.332h.031zM7.604 20.5s.062-12.228 0-13.495h4.716v1.957h-.03c.62-.92 1.737-2.273 4.28-2.273 3.104 0 5.43 1.928 5.43 6.073V20.5h-4.715v-7.22c0-1.813-.683-3.051-2.39-3.051-1.302 0-2.079.835-2.42 1.641-.124.287-.155.69-.155 1.094V20.5H7.604z" fill="#45494B"/></svg>