<svg width="29" height="30" fill="none" xmlns="http://www.w3.org/2000/svg"><path d="M15.917 3.75h-5.04c-2.28 0-3.418 0-4.126.732-.708.732-.708 1.911-.708 4.268v12.5c0 2.357 0 3.535.708 4.268.708.732 1.847.732 4.125.732h7.25c2.279 0 3.418 0 4.126-.732.708-.733.708-1.911.708-4.268V11.036c0-.511 0-.767-.092-.997-.092-.23-.267-.41-.616-.771l-4.626-4.786c-.35-.361-.524-.542-.746-.637-.222-.095-.47-.095-.963-.095z" stroke="#2987C6"/><path d="M15.707 3.75v5c0 1.179 0 1.768.354 2.134.354.366.924.366 2.063.366h4.833" stroke="#2987C6"/></svg>