<svg width="13" height="14" fill="none" xmlns="http://www.w3.org/2000/svg"><g clip-path="url(#clip0_2426_7853)" fill="#2987C6"><path d="M12.782 6.311L6.949.997a.664.664 0 00-.898 0L.218 6.31a.662.662 0 00-.172.734c.1.259.344.426.621.426H1.6v5.325c0 .21.171.382.382.382h3.197a.382.382 0 00.383-.382V9.563H7.44v3.233c0 .21.17.382.382.382h3.197a.382.382 0 00.382-.382V7.47h.932a.662.662 0 00.621-.426.663.663 0 00-.172-.734zm-1.48-4.726H8.734l2.95 2.682v-2.3a.382.382 0 00-.382-.382z"/></g><defs><clipPath id="clip0_2426_7853"><path fill="#fff" transform="translate(0 .5)" d="M0 0h13v13H0z"/></clipPath></defs></svg>