<svg width="96" height="45" fill="none" xmlns="http://www.w3.org/2000/svg"><g clip-path="url(#clip0_2548_7743)"><path d="M24.866 2.909L3.624 31.199 1.7 22.143 17.51 1.085l7.356 1.824z" fill="#2987C6"/><path d="M19.941 18.418l6.287-8.458-1.359-7.06-5.493 7.343.565 8.176z" fill="#185E83"/><path d="M12.34 40.075l10.62-14.146 10.621-14.145 1.924 9.06-15.813 21.058-7.353-1.827z" fill="#69BF69"/><path d="M26.228 9.96l-5.17 6.921.023.007-1.14 1.53 8.45.28 5.19-6.914-7.353-1.824zm-8.924 14.612L11 33.012l1.34 7.063 5.512-7.327-.548-8.176z" fill="#4B8940"/><path d="M17.304 24.572l-8.446-.308.006.027-.057-.013-5.193 6.914 7.353 1.824.027-.033.006.027 6.304-8.438z" fill="#185E83"/><path d="M61.894 1.41v6.449h-2.792c-.449-1.283-.829-2.151-1.14-2.604a3.728 3.728 0 00-1.124-1.078c-.435-.263-1.176-.395-2.224-.395h-4.443v9.74h2.691c.599 0 1.067-.085 1.406-.255.34-.17.622-.448.848-.843.224-.393.438-1.001.642-1.824h2.304v8.236h-2.304c-.19-.785-.401-1.384-.632-1.797-.231-.413-.507-.708-.828-.884-.318-.174-.797-.26-1.436-.26h-2.691v10.83h4.423c.476 0 .877-.03 1.205-.091.325-.06.616-.165.874-.315.26-.15.51-.352.747-.609.238-.256.448-.533.632-.83.184-.299.377-.691.579-1.178.204-.486.428-1.156.673-2.008h2.795l-.39 7.403H41.67V27.76c.502-.134.9-.28 1.19-.436.292-.156.51-.372.653-.649.145-.278.236-.63.276-1.054.04-.426.06-.964.06-1.613V6.52c0-.634-.016-1.167-.05-1.6-.033-.435-.121-.786-.266-1.058a1.614 1.614 0 00-.652-.655c-.292-.17-.695-.323-1.211-.459V1.409h20.223z" fill="#2987C6"/><path fill-rule="evenodd" clip-rule="evenodd" d="M77.592 29.422c-3.996 0-6.996-1.163-9.001-3.488-2.005-2.327-3.007-5.81-3.007-10.448 0-3.041.485-5.64 1.456-7.798.972-2.159 2.405-3.799 4.292-4.92 1.89-1.122 4.141-1.683 6.751-1.683 4.064 0 7.115 1.16 9.153 3.48 2.038 2.319 3.058 5.763 3.058 10.335 0 2.555-.303 4.748-.909 6.58-.603 1.834-1.462 3.339-2.576 4.515a10.13 10.13 0 01-4.006 2.597c-1.559.553-3.296.83-5.21.83zM72.07 14.94c-.002 4.083.49 7.122 1.477 9.117.984 1.995 2.489 2.992 4.514 2.992 1.05 0 1.937-.281 2.674-.84.733-.562 1.328-1.348 1.783-2.356.455-1.007.781-2.2.979-3.578.197-1.379.296-2.894.296-4.545 0-2.69-.215-4.945-.643-6.764-.428-1.818-1.074-3.191-1.937-4.12-.864-.925-1.968-1.388-3.314-1.388-1.97 0-3.435.937-4.393 2.81-.96 1.873-1.438 4.763-1.436 8.672z" fill="#2987C6"/><path d="M41.67 34.984h4.091v1.064h-2.849v1.78h2.3v1.065h-2.3v1.83h3.004v1.062H41.67v-6.8z" fill="#2987C6"/><path fill-rule="evenodd" clip-rule="evenodd" d="M47.137 34.984h2.331c2.11 0 3.485 1.245 3.485 3.39 0 2.146-1.376 3.41-3.485 3.41h-2.331v-6.8zm2.264 5.74c1.386 0 2.27-.813 2.27-2.346 0-1.516-.905-2.33-2.27-2.33h-1.023v4.676h1.023z" fill="#2987C6"/><path d="M54.231 34.984h1.241v6.8h-1.24v-6.8zm2.899 0h1.242v5.74h2.957v1.06H57.13v-6.8zm4.283 2.942h2.89v1.06h-2.89v-1.06z" fill="#2987C6"/><path fill-rule="evenodd" clip-rule="evenodd" d="M68.894 34.867c2.068 0 3.535 1.526 3.535 3.47 0 2.002-1.467 3.565-3.535 3.565-2.07 0-3.536-1.563-3.536-3.564 0-1.945 1.467-3.471 3.536-3.471zm2.253 3.518c0-1.32-1.009-2.387-2.253-2.387-1.245 0-2.254 1.068-2.254 2.387 0 1.318 1.009 2.386 2.254 2.386 1.244 0 2.253-1.068 2.253-2.386zm2.53-3.401h2.254c.672 0 1.002.057 1.288.18.703.289 1.157.941 1.157 1.862 0 .803-.424 1.57-1.147 1.857v.02s.087.104.222.352l1.406 2.53h-1.396l-1.349-2.537h-1.194v2.537h-1.241v-6.8zm2.361 3.193c.663 0 1.077-.415 1.077-1.084 0-.432-.165-.777-.539-.93-.174-.074-.376-.115-.753-.115h-.905v2.129h1.12zm5.446-3.193h1.309l2.398 6.8h-1.272l-.585-1.743h-2.398l-.579 1.744h-1.271l2.398-6.8zm1.54 4.053l-.605-1.82c-.117-.382-.269-1.055-.269-1.055h-.02s-.155.673-.27 1.054l-.618 1.821h1.783z" fill="#2987C6"/><path d="M86.096 34.984h1.241v5.74h2.957v1.06h-4.198v-6.8z" fill="#2987C6"/></g><defs><clipPath id="clip0_2548_7743"><path fill="#fff" d="M0 0h96v45H0z"/></clipPath></defs></svg>