<svg width="86" height="89" fill="none" xmlns="http://www.w3.org/2000/svg"><path d="M2 54.375c3.096 1.978 4.884-5.9 5.524-7.796 2.144-6.354 3.379-13.002 4.112-19.655.447-4.06 1.294-8.802.81-12.917-.739-6.267-.507 12.628-.187 18.93.388 7.657 1.493 15.351 4.153 22.578 1.032 2.804 3.47 8.717 7.642 7.568 3.637-1.002 4.67-7.28 5.275-10.284.461-2.296.547-9.322.726-6.987.22 2.86.425 5.76 1.267 8.521 1.289 4.227 1.33 1.107 1.33-1.244 0-.792.009-4.472.04-4.27.471 2.935 1.384 6.098 2.908 8.666 3.16 5.325 5.175-9.622 5.441-9.91.156-.17 3.023 6.25 3.136 6.489 1.275 2.69 3.473 7.175 6.707 8.023 1.372.36 1.692-.559 2.492-1.244.593-.507.458 1.697 1.163 2.032 4.03 1.916 4.18-19.725 4.195-20.567.158-8.695.343-17.673-1.018-26.29-.156-.99-3.237-14.9-4.672-13.974-1.35.872-.581 5.658-.581 6.76 0 11.436.165 22.79 1.744 34.147 1.755 12.62 4.762 25.501 12.003 36.22 1.747 2.587 5.09 7.556 8.743 7.817 3.95.282 6.605-4.434 7.995-7.36 1.588-3.345 1.431-6.42-.831-9.31-2.198-2.806-5.768-2.911-9.075-2.799-6.806.233-13.418 2.51-19.956 4.189-8.341 2.142-16.714 3.964-24.92 6.551" stroke="#3082BA" stroke-width="3" stroke-linecap="round"/></svg>