<svg width="24" height="24" fill="none" xmlns="http://www.w3.org/2000/svg"><g clip-path="url(#clip0_2458_2720)"><path d="M.798 23.439c.3-.898.59-1.754.875-2.605.182-.547.36-1.094.551-1.636.052-.15.042-.257-.051-.384a11.554 11.554 0 01-1.735-3.698c-.65-2.431-.598-4.853.3-7.21C2.233 3.97 5.033 1.393 9.115.364c5.737-1.44 11.591 1.473 13.863 6.934 1.763 4.232 1.225 8.281-1.528 11.956-1.894 2.53-4.47 4.035-7.59 4.53-2.88.459-5.591-.079-8.093-1.603-.27-.168-.495-.192-.794-.094-1.366.463-2.745.893-4.176 1.352zm15.046-4.723c.389-.075.73-.098 1.043-.205 1.683-.58 2.258-1.39 2.31-2.941.01-.258-.084-.43-.318-.538-.88-.416-1.749-.846-2.633-1.258-.49-.229-.757-.14-1.08.304-.22.304-.44.603-.673.898-.37.467-.626.533-1.173.308-2.006-.818-3.484-2.23-4.587-4.058-.15-.248-.126-.472.056-.687.187-.22.374-.44.575-.646.44-.44.594-.916.238-1.482-.004-.004-.004-.014-.009-.023-.355-.837-.706-1.679-1.075-2.511-.056-.13-.192-.28-.318-.313-.636-.15-1.3-.178-1.828.266-1.137.954-1.501 2.221-1.277 3.657.16 1.019.636 1.912 1.216 2.754.93 1.356 1.978 2.6 3.23 3.675 1.394 1.192 3.012 1.95 4.751 2.464.524.145 1.062.229 1.552.336z" fill="#fff"/></g><defs><clipPath id="clip0_2458_2720"><path fill="#fff" d="M0 0h24v23.949H0z"/></clipPath></defs></svg>