<svg width="24" height="24" fill="none" xmlns="http://www.w3.org/2000/svg"><path d="M20.187 20.45h-3.51v-5.57c0-1.328-.023-3.037-1.826-3.037-1.828 0-2.108 1.447-2.108 2.94v5.666h-3.51V8.997h3.37v1.565h.047a3.716 3.716 0 011.41-1.39 3.655 3.655 0 011.915-.46c3.558 0 4.214 2.37 4.214 5.455l-.002 6.283zM5.271 7.43c-.403 0-.797-.12-1.132-.347a2.058 2.058 0 01-.75-.926 2.089 2.089 0 01.441-2.25 2.013 2.013 0 012.22-.448c.372.157.69.422.915.76a2.083 2.083 0 01-.253 2.607 2.036 2.036 0 01-1.44.604zm1.756 13.02H3.512V8.997h3.515V20.45zM21.937.002H1.748C1.29-.004.848.176.521.5A1.762 1.762 0 000 1.732v20.536c.005.465.193.908.52 1.232.328.325.77.505 1.228.5h20.19c.459.006.902-.173 1.23-.498.33-.325.518-.769.525-1.234V1.73a1.766 1.766 0 00-.524-1.233A1.721 1.721 0 0021.937 0" fill="#fff"/></svg>