<svg width="25" height="24" fill="none" xmlns="http://www.w3.org/2000/svg"><path d="M24.691 12.017C24.691 5.38 19.32 0 12.691 0c-6.627 0-12 5.38-12 12.017a12.015 12.015 0 0010.125 11.87V15.49H7.77v-3.473h3.046V9.369c0-3.012 1.792-4.675 4.533-4.675 1.313 0 2.686.234 2.686.234v2.958h-1.513c-1.49 0-1.956.926-1.956 1.876v2.255h3.329l-.532 3.473h-2.797v8.397a12.015 12.015 0 0010.125-11.87z" fill="#fff"/><path d="M17.363 15.457l.532-3.474h-3.329V9.73c0-.95.465-1.876 1.956-1.876h1.513V4.895s-1.373-.234-2.686-.234c-2.741 0-4.533 1.663-4.533 4.675v2.647H7.77v3.474h3.046v8.397a12.073 12.073 0 003.75 0v-8.397h2.796z" fill="#1E1E1E"/></svg>