<svg width="24" height="24" fill="none" xmlns="http://www.w3.org/2000/svg"><g clip-path="url(#clip0_2458_2717)"><path d="M23.995 12.007v9.326c0 1.28-.782 2.297-1.987 2.587a2.907 2.907 0 01-.67.075c-6.224.005-12.448.005-18.676 0C1.125 23.995 0 22.865 0 21.33V2.676C0 1.125 1.125 0 2.671 0h18.653c1.551 0 2.671 1.125 2.671 2.676.005 3.112 0 6.22 0 9.331zM10.643 9.762c-.525 0-1.03-.065-1.514.01-2.92.459-4.874 3.046-4.54 5.97.35 3.13 3.448 5.32 6.513 4.612 2.508-.581 4.218-2.723 4.223-5.296.005-1.875 0-3.75 0-5.624v-.29c1.247.862 2.582 1.298 4.063 1.302V7.555c-2.474-.267-3.833-1.626-4.1-4.092h-2.892v.314c0 3.759-.005 7.513-.01 11.272 0 1.537-1.25 2.657-2.755 2.488-1.223-.136-2.193-1.242-2.16-2.46.032-1.308 1.026-2.367 2.291-2.428.29-.014.581.028.881.047V9.762z" fill="#fff"/></g><defs><clipPath id="clip0_2458_2717"><path fill="#fff" d="M0 0h24v24H0z"/></clipPath></defs></svg>