<svg width="25" height="24" fill="none" xmlns="http://www.w3.org/2000/svg"><g clip-path="url(#clip0_2458_2712)"><path d="M7.722.084c-1.277.06-2.15.264-2.911.563a5.873 5.873 0 00-2.123 1.388 5.878 5.878 0 00-1.38 2.127c-.296.764-.496 1.637-.552 2.914-.057 1.278-.07 1.688-.063 4.947.006 3.259.02 3.667.082 4.947.061 1.277.264 2.149.564 2.911.308.789.72 1.457 1.388 2.123a5.87 5.87 0 002.128 1.38c.764.295 1.637.496 2.914.552 1.277.056 1.688.069 4.946.063 3.258-.007 3.668-.021 4.948-.082 1.28-.06 2.147-.265 2.91-.563a5.881 5.881 0 002.122-1.388 5.882 5.882 0 001.38-2.129c.296-.763.496-1.636.552-2.912.056-1.28.069-1.69.063-4.948-.007-3.258-.021-3.667-.082-4.947-.06-1.28-.264-2.148-.563-2.911a5.891 5.891 0 00-1.388-2.123A5.857 5.857 0 0020.53.616C19.765.321 18.893.12 17.616.064 16.339.01 15.927-.005 12.668.001 9.41.008 9.001.021 7.722.084zm.14 21.693c-1.17-.05-1.806-.245-2.229-.408a3.737 3.737 0 01-1.382-.895 3.697 3.697 0 01-.9-1.378c-.164-.423-.362-1.058-.417-2.228-.06-1.264-.072-1.644-.079-4.848-.007-3.204.005-3.583.06-4.848.05-1.169.246-1.805.409-2.228a3.72 3.72 0 01.895-1.382 3.704 3.704 0 011.378-.9c.423-.165 1.057-.361 2.227-.417 1.266-.06 1.645-.072 4.848-.08 3.203-.006 3.583.006 4.85.062 1.169.05 1.805.244 2.227.408.561.216.96.475 1.382.895.422.42.682.817.9 1.378.166.422.362 1.056.417 2.227.06 1.265.074 1.645.08 4.848.006 3.203-.005 3.583-.06 4.848-.052 1.17-.246 1.805-.409 2.229-.216.56-.476.96-.895 1.381a3.7 3.7 0 01-1.379.9c-.422.165-1.057.362-2.226.418-1.265.06-1.645.072-4.85.079-3.204.007-3.582-.006-4.847-.061m9.782-16.19a1.44 1.44 0 102.88-.005 1.44 1.44 0 00-2.88.004zM6.53 12.011a6.161 6.161 0 1012.323-.024 6.162 6.162 0 00-12.323.024zm2.161-.004a4 4 0 118-.016 4 4 0 01-8 .016z" fill="#fff"/></g><defs><clipPath id="clip0_2458_2712"><path fill="#fff" transform="translate(.691)" d="M0 0h24v24H0z"/></clipPath></defs></svg>