<svg width="32" height="32" fill="none" xmlns="http://www.w3.org/2000/svg"><g clip-path="url(#clip0_2095_5989)"><path d="M31.609.39a1.333 1.333 0 00-1.885 0L16 14.114 2.276.39A1.333 1.333 0 00.39.39a1.333 1.333 0 000 1.886L14.114 16 .39 29.724a1.333 1.333 0 000 1.885 1.333 1.333 0 001.886 0L16 17.885l13.724 13.724a1.333 1.333 0 001.885-1.885L17.885 16 31.609 2.276a1.333 1.333 0 000-1.886z" fill="#FF6C1A"/></g><defs><clipPath id="clip0_2095_5989"><path fill="#fff" d="M0 0h32v32H0z"/></clipPath></defs></svg>