<svg width="194" height="31" fill="none" xmlns="http://www.w3.org/2000/svg"><g clip-path="url(#clip0_2772_30865)"><path d="M99.829 8.315l-12.465 7.267v14.669l12.678-7.378-.213-14.558z" fill="url(#paint0_linear_2772_30865)"/><path d="M87.364 30.91c-.4 0-.8-.107-1.157-.316l-11.141-6.55a2.37 2.37 0 01-1.158-2.042V8.901c0-.839.444-1.622 1.157-2.042L86.207.314a2.287 2.287 0 012.314 0l11.142 6.551a2.37 2.37 0 011.157 2.041v13.101c0 .839-.444 1.622-1.157 2.042l-11.142 6.55a2.28 2.28 0 01-1.157.316v-.005zm0-29.336a.768.768 0 00-.382.104L75.84 8.228a.784.784 0 00-.383.673v13.101a.78.78 0 00.383.672l11.14 6.55a.753.753 0 00.765 0l11.142-6.55a.784.784 0 00.382-.672V8.901a.78.78 0 00-.382-.672L87.746 1.678a.761.761 0 00-.382-.104z" fill="#fff"/><path d="M87.364 24.13c-.278 0-.554-.073-.802-.217L80.57 20.39a1.643 1.643 0 01-.801-1.412v-7.046c0-.583.307-1.121.801-1.413L86.562 7a1.58 1.58 0 011.603 0l5.992 3.521c.494.292.802.833.802 1.413v7.046c0 .58-.308 1.121-.802 1.412l-5.992 3.522a1.586 1.586 0 01-.802.218zm0-15.773s-.02 0-.027.008l-5.992 3.521a.056.056 0 00-.026.047v7.046c0 .019.01.035.026.046l5.992 3.522a.05.05 0 00.05 0l5.992-3.522a.053.053 0 00.027-.046v-7.046c0-.02-.01-.036-.027-.046l-5.991-3.522s-.016-.008-.027-.008h.002z" fill="#fff"/><path d="M86.064 14.904v1.097c0 .133.07.256.182.321l.933.55a.362.362 0 00.363 0l.933-.55a.37.37 0 00.182-.321v-1.097a.37.37 0 00-.182-.32l-.933-.55a.362.362 0 00-.363 0l-.933.55a.37.37 0 00-.181.32z" fill="#fff"/><path d="M99.45 7.508l-12.511 7.265.768 1.37 12.511-7.264-.768-1.37zm28.527 8.725a7.029 7.029 0 004.067-2.047 7.225 7.225 0 001.678-2.721l.089-.272a7.608 7.608 0 00.205-.904 6.654 6.654 0 00.064-.504 7.36 7.36 0 00.027-1.064 7.17 7.17 0 00-1.649-4.259 7.006 7.006 0 00-5.42-2.574h-13.142v27.264h1.598V16.298h10.649l6.863 12.854h1.823l-6.852-12.92zM115.494 3.474h11.507a5.48 5.48 0 014.092 1.85 4.758 4.758 0 011.226 2.15c.043.18.112.499.126.591.035.264.075.613.075.98 0 .09 0 .182-.008.275a8.096 8.096 0 01-.03.411l-.005.057a5.35 5.35 0 01-.123.708l-.032.128c-.011.051-.024.1-.043.152a3.947 3.947 0 01-.072.231 4.907 4.907 0 01-.206.503c-.04.088-.083.167-.123.246a2.814 2.814 0 01-.082.139 2.597 2.597 0 01-.156.247c-.05.077-.101.15-.165.232-.166.24-.358.473-.575.691a5.428 5.428 0 01-3.899 1.646h-11.507V3.474zm36.183-1.589h-1.596v27.264h1.596V1.885zM50.843 15.52l11.72 13.629h-2.096L49.796 16.741 39.125 29.15h-2.098l11.721-13.632L37.024 1.885h2.095l10.677 12.418L60.469 1.885h2.096L50.843 15.52zM180.181 1.54c-7.567 0-13.728 6.27-13.728 13.977 0 7.707 6.161 13.98 13.728 13.98 7.57 0 13.729-6.27 13.729-13.98 0-7.71-6.158-13.978-13.729-13.978zm0 26.37c-6.71 0-12.166-5.56-12.166-12.393 0-6.834 5.456-12.391 12.166-12.391 6.711 0 12.172 5.56 12.172 12.39 0 6.832-5.461 12.395-12.172 12.395zM13.726 1.54C6.157 1.54 0 7.81 0 15.516c0 7.707 6.157 13.98 13.726 13.98 7.568 0 13.728-6.27 13.728-13.98 0-7.71-6.157-13.978-13.728-13.978zm0 26.37c-6.708 0-12.168-5.56-12.168-12.393 0-6.834 5.46-12.391 12.168-12.391 6.707 0 12.17 5.557 12.17 12.39 0 6.835-5.46 12.395-12.17 12.395z" fill="#fff"/></g><defs><linearGradient id="paint0_linear_2772_30865" x1="93.703" y1="27.894" x2="93.703" y2="7.265" gradientUnits="userSpaceOnUse"><stop stop-color="#FF6C1A" stop-opacity="0"/><stop offset="1" stop-color="#FF6C1A"/></linearGradient><clipPath id="clip0_2772_30865"><path fill="#fff" d="M0 0h194v31H0z"/></clipPath></defs></svg>