<svg width="54" height="74" fill="none" xmlns="http://www.w3.org/2000/svg"><path d="M15 37a1 1 0 011-1h24a1 1 0 011 1v35.269a1 1 0 01-1.5.866l-11-6.347a1 1 0 00-1 0l-11 6.347a1 1 0 01-1.5-.866V37z" fill="#202020"/><path d="M18.5 37a.5.5 0 01.5-.5h18a.5.5 0 01.5.5v35a.5.5 0 01-.8.4l-7.8-5.85a1.5 1.5 0 00-1.8 0l-7.8 5.85a.5.5 0 01-.8-.4V37z" stroke="#B84200"/><path d="M24.694 2.773a3 3 0 014.612 0l2.831 3.403a3 3 0 003.03.992l4.247-1.056a3 3 0 013.717 2.692l.335 4.572a3 3 0 001.837 2.55l4.156 1.733a3 3 0 011.41 4.325l-2.404 3.96a3 3 0 000 3.113l2.403 3.959a3 3 0 01-1.41 4.325l-4.155 1.734a3 3 0 00-1.837 2.549l-.335 4.572a3 3 0 01-3.717 2.692l-4.246-1.056a3 3 0 00-3.03.992l-2.832 3.403a3 3 0 01-4.612 0l-2.831-3.403a3 3 0 00-3.03-.992l-4.247 1.056a3 3 0 01-3.717-2.692l-.335-4.572a3 3 0 00-1.837-2.55L4.54 37.342a3 3 0 01-1.41-4.325l2.404-3.96a3 3 0 000-3.113l-2.403-3.959a3 3 0 011.41-4.325l4.155-1.734a3 3 0 001.837-2.549l.335-4.572a3 3 0 013.717-2.692l4.246 1.056a3 3 0 003.03-.992l2.832-3.403z" fill="#482B1A"/><path opacity=".57" d="M25.093 3.025a2.5 2.5 0 013.814 0l2.854 3.367a3.5 3.5 0 003.5 1.138l4.288-1.047a2.5 2.5 0 013.086 2.242l.33 4.401a3.5 3.5 0 002.163 2.978l4.084 1.673a2.5 2.5 0 011.18 3.628L48.07 25.16a3.5 3.5 0 000 3.682l2.321 3.754a2.5 2.5 0 01-1.179 3.628l-4.084 1.673a3.5 3.5 0 00-2.164 2.978l-.329 4.401a2.5 2.5 0 01-3.086 2.242l-4.288-1.047a3.5 3.5 0 00-3.5 1.138l-2.854 3.367a2.5 2.5 0 01-3.814 0l-2.854-3.367a3.5 3.5 0 00-3.5-1.138l-4.288 1.047a2.5 2.5 0 01-3.086-2.242l-.33-4.401a3.5 3.5 0 00-2.163-2.978l-4.084-1.673a2.5 2.5 0 01-1.18-3.628L5.93 28.84a3.5 3.5 0 000-3.682l-2.321-3.754a2.5 2.5 0 011.179-3.628l4.084-1.673a3.5 3.5 0 002.164-2.978l.329-4.401a2.5 2.5 0 013.086-2.242l4.287 1.047a3.5 3.5 0 003.502-1.138l2.853-3.367z" stroke="#FF8947"/><circle cx="26.5" cy="28.5" r="14.5" fill="#482B1A"/><circle cx="27" cy="27" r="14.5" stroke="#B84200"/></svg>