<svg width="240" height="206" fill="none" xmlns="http://www.w3.org/2000/svg"><g clip-path="url(#clip0_2058_4870)"><mask id="mask0_2058_4870" style="mask-type:alpha" maskUnits="userSpaceOnUse" x="0" y="0" width="240" height="206"><path d="M240 0H0v206h240V0z" fill="#D9D9D9"/></mask><g mask="url(#mask0_2058_4870)"><mask id="mask1_2058_4870" style="mask-type:alpha" maskUnits="userSpaceOnUse" x="1" y="1" width="238" height="206"><path d="M1.673 103.761L60.73 1.881h118.115l59.057 101.88-59.057 101.879H60.73L1.673 103.761z" fill="#C4C4C4" stroke="#FD971F" stroke-width=".888"/></mask><g mask="url(#mask1_2058_4870)"><path d="M130.679 259.884l-.004.002c-5.902.925-11.811 1.234-17.729 1.234h-2.81c-11.826 0-23.033-1.545-33.936-4.022-15.873-3.71-30.813-10.207-44.199-18.869l-.007-.004c-1.2-.746-3.066-2.386-5.283-4.526-2.206-2.128-4.728-4.717-7.236-7.33-1.111-1.157-2.22-2.321-3.299-3.452-3.654-3.834-6.947-7.288-8.711-8.831.36-37.61 13.788-57.788 23.03-66.055 4.65-4.005 9.916-7.39 15.799-9.852l.008-.003c13.352-5.863 28.587-7.721 38.25-8.341 3.273-.155 6-.232 7.909-.271a222.58 222.58 0 012.215-.034l.583-.004.149-.001h.041l.017.001.075.003.296.011a271.68 271.68 0 015.447.295c3.664.232 8.811.619 14.737 1.24h.006c1.704.154 3.332.385 4.974.618l.005.001c1.633.232 3.279.465 5.004.622 1.331.183 2.649.36 3.955.537 18.669 2.519 34.753 4.689 46.727 16.632 4.927 4.915 10.872 14.892 15.624 28.745 4.728 13.781 8.262 31.359 8.447 51.524-7.969 4.647-20.77 11.447-33.914 17.45-13.287 6.067-26.873 11.295-36.17 12.68z" fill="#171814" stroke="#FF6C1A" stroke-width=".478"/><path d="M142.006 201.009l.022-11.139c.005-2.866 2.233-5.241 5.103-5.443l-.122-19.687a2.741 2.741 0 012.736-2.752 2.742 2.742 0 012.748 2.517l1.361 16.908 7.898-17.367a2.937 2.937 0 013.702-1.528 2.916 2.916 0 011.694 3.811l-3.582 8.987c-2.332 5.374.99 11.507 6.78 12.517l.171.03a2.509 2.509 0 011.834 3.044l-2.42 9.634c-1.054 4.192-4.128 7.35-7.929 8.702-.6 1.596-.941 4.466-.893 9.832-2.208 1.576-7.371 3.712-13.978-1.469 1.097-4.464.379-6.899-.99-10.271a6.895 6.895 0 01-4.135-6.326z" fill="#E69F66"/><path d="M145.381 184.142l11.017 1.601a3.935 3.935 0 013.373 3.727c.095 2.302-1.81 4.192-4.121 4.088l-7.273-.328" stroke="#171814" stroke-width=".831" stroke-linecap="round"/><path d="M157.923 178.417a3.916 3.916 0 014.851-2.808 3.897 3.897 0 012.742 4.7l-2.171 8.644a3.915 3.915 0 01-4.851 2.807 3.896 3.896 0 01-2.742-4.7l2.171-8.643z" fill="#E69F66" stroke="#171814" stroke-width=".831"/><path d="M170.97 183.668a3.164 3.164 0 00-2.312-3.839 3.179 3.179 0 00-3.855 2.302l-1.815 7.223a3.165 3.165 0 002.312 3.84 3.18 3.18 0 003.855-2.303l1.815-7.223z" fill="#E69F66" stroke="#171814" stroke-width=".831"/><path d="M93.072 103l-3.31 34.3s11.86 12.316 27.879 17.33c12.593 2.023 9.474-.356 9.474-.356l3.026-30.972-21.791-9.51L93.072 103z" fill="#E69F66"/><path d="M108.726 113.723c-.121.911-4.5-.287-4.394.963-6.303 15.819 17.007 23.741 23.792 25.854l2.388-18.166-21.786-8.651z" fill="#000"/><path d="M153.28 58.674s4.466 42.361-7.445 62.335c-12.198 19.921-29.823 11.357-39.659 4.232-9.836-7.126-13.019-15.833-13.019-15.833s-11.623.976-15.52-11.299c-3.897-12.274 3.744-22.418 10.62-23.647 6.809-.929 12.607 5.45 12.607 5.45l-2.323-12.608c-.354.247 39.804-49.801 54.739-8.63z" fill="#E69F66"/><path d="M96.81 98.76c-.297-.03-.596-.059-.86-.39L83.767 86.199c-.528-.661-.426-1.566-.06-2.14.664-.544 1.558-.457 2.12-.097l12.185 12.173c.528.661.426 1.566.06 2.14-.332.272-.962.515-1.26.486z" fill="#000"/><path d="M84.119 96.273c-.599-.06-1.128-.726-1.359-1.364-.196-.941.47-1.49 1.402-1.706l9.477-.91c.931-.215 1.461.452 1.657 1.393.197.942-.47 1.49-1.401 1.706l-9.776.88c.299.03.299.03 0 0z" fill="#000"/><path d="M136.229 114.578s-17.063-.467-21.834-16.038l1.765-1.307-3.53 2.613" stroke="#000" stroke-width="1.247" stroke-linecap="round" stroke-linejoin="round"/><path d="M119.712 155.983c-19.399-2.051-32.184-17.426-32.965-18.106-.495-.649-.382-1.532.263-2.06.646-.529 1.502-.438 1.997.211.248.324 17.072 20.304 40.323 17.093.894-.204 1.389.445 1.562 1.358.172.914-.473 1.442-1.367 1.646-3.176-.037-6.674.189-9.813-.142z" fill="#FF6C1A"/><path d="M-32.324 115.35L39.39-8.365h143.428l71.714 123.715-71.714 123.715H39.39L-32.324 115.35z" stroke="#FF6C1A" stroke-width=".888"/><path d="M138.975 92.695c-1.475 4.897 1.291 7.709.294 8.714-.997 1.005-3.562 1.142-4.719 1.085" stroke="#000" stroke-width="1.247" stroke-linecap="round"/><path d="M153.891 71.768s-.94-8.05-9.773-10.011c-12.812-2.846-21.433-2.558-30.325 5.897-4.881 4.64-1.056 10.677-8.546 15.034-7.489 4.358-12.551-1.012-12.551-1.012l-6.946-5.771-3.999-11.656 31.75-17.624 29.902-2.291 13.034 22.357-2.546 5.077z" fill="#171814"/><path d="M137.56 39.667c26.143 3.44 21.889 22.454 17.447 30.212-2.251-2.217-6.745-10.603-14.333-15.853S105.579 70.242 91.66 80.625c-5.072-4.301-11.7-1.818-13.204.689-11.439-27.981 26.426-45.946 59.104-41.647z" fill="#171814"/><path d="M150.784 26.484c7.243 12.796 5.709 24.128 7.003 28.755-34.534-19.298-89.002 18.088-77.295 3.525 11.707-14.563 10.115-23.468 7.283-29.878 0 0 9.2 5.035 15.722 7.26.134-8.978-1.547-8.458-6.8-16.32 9.766-.142 22.056 11.389 22.056 11.389 2.262-5.292.175-11.712-7.303-18.55 14.589 3.758 25.152 20.682 25.152 20.682 1.96-5.693.633-9.644-3.697-19.009 9.187 5.821 11.554 10.75 15.274 23.1l2.605-10.954z" fill="#171814"/><path d="M78.956 79.943c-8.056-12.88 4.757-25.092 4.757-25.092s10.437-15.548 4.279-25.567l15.916 6.994c.513-1.772-.08-7.41-6.555-15.79 4.518.9 15.179 4.407 21.677 11.245 1.068-6.271-.808-10.576-7.003-18.189 3.869 1.068 14.175 6.537 24.458 19.868 1.492-2.267 2.858-8.992-3.611-17.756 3.38 1.236 11.154 7.254 15.208 21.442 1.008-2.42 3.018-6.78 2.584-10.143 5.079 6.506 12.339 24.852 2.717 44.238" stroke="#FF6C1A" stroke-width=".416"/><path d="M157.019 86.34c-1.713-1.754-3.243-1.44-4.697-1.629-1.939-.25-4.287-1.064-5.44-3.256" stroke="#000" stroke-width="1.247" stroke-linecap="round" stroke-linejoin="round"/><path d="M200.427 76.645l.751 30.025-24.058 18.109-.751-30.025 24.058-18.109z" fill="#272822" stroke="#FF6C1A" stroke-width=".416"/><path d="M186.522 105.354l13.781-27.825.985 28.897-14.766-1.072z" fill="#3C3322"/><path d="M186.445 105.315l13.994-28.947-24.284 18.271 10.29 10.676zm.123.161l-9.225 19.214 23.523-17.811-14.298-1.403z" fill="#272822"/><path d="M186.278 105.235l14.292-29.093-13.793 29.333-10.002 20.02 9.503-20.26z" fill="#FF6C1A"/><path d="M186.689 105.023l-10.645-10.425 10.364 11.005 15.016 1.186-14.735-1.766z" fill="#FF6C1A"/><path d="M186.397 105.401l-9.491 19.601-.701-30.115 10.192 10.514z" fill="#272822"/><path d="M186.396 105.401l-9.491 19.601-.755-30.125 10.246 10.524z" fill="#000" fill-opacity=".4"/><path d="M144.668 89.55c2.984-.804 4.183-.836 6.719.936m-32.232-12.982c1.249-1.649 4.231-3.952 8.893-2.646" stroke="#000" stroke-width="1.247" stroke-linecap="round" stroke-linejoin="round"/><path d="M128.695 91.297c1.109.11 2.203-1.74 2.442-4.134.239-2.394-.466-4.423-1.576-4.533-1.109-.11-2.202 1.741-2.441 4.135-.24 2.393.466 4.422 1.575 4.532z" fill="#000"/></g></g></g><defs><clipPath id="clip0_2058_4870"><path fill="#fff" d="M0 0h240v206H0z"/></clipPath></defs></svg>