<svg width="240" height="206" fill="none" xmlns="http://www.w3.org/2000/svg"><mask id="mask0_2058_4827" style="mask-type:alpha" maskUnits="userSpaceOnUse" x="0" y="0" width="240" height="206"><path d="M1.814 102.872L60.884 1.278h118.139l59.067 101.588-59.07 101.593H60.88L1.814 102.872z" fill="#C4C4C4" stroke="#FD971F" stroke-width="2.137"/></mask><g mask="url(#mask0_2058_4827)"><path d="M194.796 199.822c-2.743 2.228-5.486 4.209-8.478 6.19-2.244 1.486-4.239 2.724-6.483 4.209-12.716 7.428-26.929 12.38-41.89 14.608-4.737.743-9.475.99-14.212.99h-2.244c-9.476 0-18.452-1.238-27.18-3.218-12.716-2.971-24.684-8.171-35.406-15.103a92.703 92.703 0 01-11.22-8.171c-4.988-3.962-9.725-8.666-13.964-13.37-1.995-2.228-3.74-4.457-5.486-6.933 7.98-18.569 22.442-45.309 42.14-51.994 46.125-17.848 97.244 4.209 97.244 4.209s22.441 11.142 27.179 68.583z" fill="#171814"/><path d="M124.816 226.195c-49.909 1.101-84.876-31.05-96.12-47.264 1.108-9.177 14.325-28.603 20.795-37.168 13.678-13.583 28.805-18.508 34.659-19.273 19.593-5.139 40.204-2.141 48.06 0 29.206 2.57 40.82 11.472 42.977 15.602 12.57 15.418 18.485 47.416 19.871 61.488-17.376 18.722-54.068 25.544-70.242 26.615z" stroke="#FF6C1A" stroke-width="1.103"/><path d="M140.439 129.426c0 .357 1.196 5.495 1.795 8.02l4.487-4.01 8.077-31.19-8.077-41.884-6.282 1.782v16.932c2.243 6.832 6.641 20.586 6.282 20.942-.359.357-10.321 6.387-15.257 9.357l-2.243 4.902 3.59-2.228c1.196.297 0 10.961 0 12.03 0 1.337 7.628 4.901 7.628 5.347z" fill="#171814" stroke="#FF6C1A" stroke-width="1.103"/><path d="M100.295 101.775l-1.496 25.75s4.239 7.675 19.199 9.904c11.221 1.485 15.21-.743 15.21-.743l-.748-13.122-.748-12.875-26.929-7.676-4.488-1.238z" fill="#E69F66"/><path d="M104.784 103.014c0 .742.25 1.485.499 2.475 4.987 13.123 20.695 16.837 27.178 17.827l-.748-12.875-26.929-7.427z" fill="#171814"/><path d="M143.128 57.196s9.4 13.814.866 48.187c-7.929 17.011-23.711 11.503-32.79 6.539-9.08-4.964-14.379-9.193-14.379-9.193s-8.021-.831-12.713-10.412c-4.693-9.581.544-18.356 6.171-19.889 5.607-1.285 6.574-.106 6.574-.106l1.228-6.472c-.27.227 27.74-40.643 45.043-8.654z" fill="#E69F66"/><path d="M126.226 139.162c-16.956 0-29.672-11.637-30.42-12.132a1.19 1.19 0 010-1.733 1.21 1.21 0 011.745 0c.25.247 16.956 15.35 36.654 10.646.748-.247 1.247.248 1.496.991.249.742-.249 1.237-.997 1.485-2.743.248-5.735.743-8.478.743zm-31.53-90.527c0-2.294 7.702-10.515 15.885-12.427-8.183 3.547-12.515 9.082-14.922 12.427h-.963zm8.903 1.135c-.488-1.697 3.596-9.433 9.388-12.606-5.444 4.382-7.547 9.407-8.659 12.399l-.729.207zm38.269-.956c.488-1.697-3.597-9.433-9.389-12.606 5.444 4.382 7.548 9.407 8.659 12.399l.73.207z" fill="#FF6C1A"/><path d="M111.458 80.26c3.53 1.434 7.212 1.32 10.169-.404m-3.254 17.531c3.53 1.434 12.203 5.088 18.712-1.778m-6.102-16.157c1.926 1.115 5.778 1.855 9.244-.821m-2.736-10.085c2.034 0 5.023.937 5.846 4.052m-29.845-2.436c-2.967 0-6.102 2.02-6.565 4.908" stroke="#171814" stroke-width="3" stroke-linecap="round"/><path d="M86.446 51.45c.69-5.703 12.362-16.783 19.837-17.822l7.762-3.12 7.762 3.12 3.657-1.134.656-.203 6.468 3.119 6.037-2.228 6.9 3.12 4.312 6.237c0 1.04 4.82 3.354 5.606 5.793 2.157 6.683 1.007 2.822 2.157 3.119l1.725 3.564c.431 1.782.862 3.832.862 4.902v3.119c1.437 1.485 3.019 3.475 3.019 4.9 0 1.427.862 3.268 1.293 4.011v8.466c0 3.208 1.15 4.901 1.725 5.347l1.294 2.673c-.431 1.782-1.294 5.614-1.294 6.684 0 1.07-1.15 2.525-1.725 3.119.575 1.634 1.984 5.258 3.019 6.683 1.294 1.783 1.725 5.793 0 8.021-1.38 1.782-1.437 2.525-1.294 2.673l1.294 1.783c1.437 1.039 4.399 3.119 4.744 3.119.431 0-3.019 4.01-3.019 6.683v15.15c-.431 1.336-1.38 4.01-1.725 4.01-.431 0-3.019 3.564-4.312 5.347-1.294 1.782 1.293 1.782 3.018 5.792 1.38 3.208.575 2.822 0 2.228-.431 3.119-1.38 9.624-1.725 10.694-.345 1.069-3.593 1.336-6.468 1.336h-5.175c-3.019 0-1.725-1.782-3.881-7.129-1.294-.891-2.587-1.782-4.744-1.782-1.725 0-.718-1.485 0-2.228l4.744-4.901c-.863-.743-2.587-3.654-2.587-9.357 0-3.565-1.725-1.782-3.019-4.01-1.294-2.228-1.294-2.674-1.294-4.902 0-1.782.863-1.93 1.294-1.782 1.006-.594 2.415-3.921 0-12.476 1.294-1.782 4.743-2.673 3.019-5.792-1.38-2.496-.575-2.228 0-1.783v-2.673c.575 0 1.897-.446 2.587-2.228.862-2.228.431-2.674 0-3.565-.345-.713-.719-2.97-.863-4.01v-4.901c0-1.782 2.013-5.793 3.019-7.575-.287-1.188-1.294-3.832-3.019-4.901-1.724-1.07-.718-1.634 0-1.782v-8.912c0-1.07-2.731-9.06-4.312-12.03 0-1.04-3.277-1.694-4.312-3.12L136.9 58.58c-1.15 0-3.536 1.604-5.606-.891-1.035 0-2.875.445-3.018.445l-4.744-.445h-3.45l-3.018 1.336-1.725 2.674c-1.438-.446-2.156-1.07-2.156 0v1.337h-6.038l-3.45 1.782-3.018 3.119v4.01c-1.006 2.525-3.019 8.11-3.019 10.248 0 2.139-.862 3.268-1.293 3.565l1.293 4.901 1.725 4.456-1.725 3.119v4.901l1.725 4.901 1.294 4.902 1.725 4.456v3.119l1.293 6.683 3.45 3.565v3.119l-3.45 7.129 3.45 3.565-2.156 1.782-1.294 5.347 4.313 1.782-.863 4.01v5.347l.863 1.782v9.357l1.725 7.575h-2.588v3.119l-3.45-3.119-3.018 3.119-9.056-3.119c-1.725-1.04-5.175-3.832-5.175-6.683v-8.466c-1.869-.594-5.606-2.139-5.606-3.565v-11.139h-6.468l-1.294-22.279v-2.228l1.294-6.683c-.863-2.228-2.33-7.308-1.294-9.803 1.035-2.495 1.294-6.09 1.294-7.575h-2.588v-8.02l1.294-1.337 1.294-8.02-1.294-1.782v-7.575l3.019-4.456v-7.13l4.743-6.237c1.581-1.04 4.916-1.426 5.606-7.13z" fill="#171814"/><path d="M125.464 32.494l5.83 6.926 4.744-1.337 7.762-2.227 1.725 3.564c1.006.891 3.019 3.297 3.019 5.793 0 2.495-1.438 5.198-2.156 6.238l3.881 1.782c.718.743 2.156 2.673 2.156 4.456 0 1.782 2.012 3.416 3.018 4.01l2.588 8.02 2.156 2.228-2.156 8.466 2.156 1.782v3.565l.431 6.238-1.293 4.456c1.293.742 3.881 2.673 3.881 4.455 0 2.228-2.588 4.456-2.588 7.129 0 2.139.863 8.021 1.294 10.694-.863-.297-2.07-.356 0 1.783 2.587 2.673 5.606.891 5.606 2.673 0 1.426-2.012 5.644-3.019 7.575-.575 1.039-1.38 3.475 0 4.901 1.38 1.426 1.725 5.05 1.725 6.684l-6.037 4.01v5.347l1.725 5.792 2.587 2.228M106.283 33.628c-7.475 1.04-19.147 12.12-19.837 17.823-.69 5.703-4.025 6.09-5.606 7.129l-4.743 6.238v7.129l-3.02 4.456v7.575l1.295 1.782-1.294 8.02-1.294 1.337v8.02h2.588c0 1.485-.26 5.08-1.294 7.575-1.035 2.495.431 7.575 1.294 9.803l-1.294 6.683v2.228l1.294 22.279h6.468v11.139c0 1.426 3.737 2.971 5.606 3.565v8.465c0 2.852 3.45 5.644 5.175 6.684l9.056 3.119 3.018-3.119 3.45 3.119v-3.119h2.588l-1.725-7.575v-9.357l-.863-1.782v-5.347l.863-4.01-4.313-1.782 1.294-5.347 2.156-1.782-3.45-3.565 3.45-7.129v-3.119l-3.45-3.565-1.293-6.683v-3.119l-1.725-4.456-1.294-4.902-1.725-4.901v-4.901l1.725-3.12-1.725-4.455-1.293-4.901c.43-.297 1.293-1.426 1.293-3.565 0-2.138 2.013-7.723 3.019-10.248v-4.01l3.018-3.12 3.45-1.781h6.038v-1.337c0-1.07.718-.446 2.156 0l1.725-2.674 3.018-1.336h3.45l4.744.445c.143 0 1.983-.445 3.018-.445 2.07 2.495 4.456.89 5.606.89l2.588 1.338c1.035 1.425 4.312 2.079 4.312 3.119 1.581 2.97 4.312 10.96 4.312 12.03v8.912c-.718.148-1.724.712 0 1.782 1.725 1.07 2.732 3.713 3.019 4.901-1.006 1.782-3.019 5.793-3.019 7.575v4.901c.144 1.04.518 3.297.863 4.01.431.891.862 1.337 0 3.565-.69 1.782-2.012 2.228-2.587 2.228v2.673c-.575-.445-1.38-.713 0 1.783 1.724 3.119-1.725 4.01-3.019 5.792 2.415 8.555 1.006 11.882 0 12.476-.431-.148-1.294 0-1.294 1.782 0 2.228 0 2.674 1.294 4.902s3.019.445 3.019 4.01c0 5.703 1.724 8.614 2.587 9.357l-4.744 4.901c-.718.743-1.725 2.228 0 2.228 2.157 0 3.45.891 4.744 1.782 2.156 5.347.862 7.129 3.881 7.129h5.175c2.875 0 6.123-.267 6.468-1.336.345-1.07 1.294-7.575 1.725-10.694.575.594 1.38.98 0-2.228-1.725-4.01-4.312-4.01-3.018-5.792 1.293-1.783 3.881-5.347 4.312-5.347.345 0 1.294-2.674 1.725-4.01v-15.15c0-2.673 3.45-6.683 3.019-6.683-.345 0-3.307-2.08-4.744-3.119l-1.294-1.783c-.143-.148-.086-.891 1.294-2.673 1.725-2.228 1.294-6.238 0-8.021-1.035-1.425-2.444-5.05-3.019-6.683.575-.594 1.725-2.05 1.725-3.12 0-1.069.863-4.9 1.294-6.683l-1.294-2.673c-.575-.446-1.725-2.139-1.725-5.347v-8.466c-.431-.743-1.293-2.584-1.293-4.01 0-1.426-1.582-3.416-3.019-4.901v-3.12c0-1.069-.431-3.118-.862-4.9L157.6 51.45c-1.15-.297 0 3.564-2.157-3.12-.786-2.438-5.606-4.752-5.606-5.792l-4.312-6.238-6.9-3.119-6.037 2.228-6.468-3.119-4.313 1.337-7.762-3.12-7.762 3.12z" stroke="#FF6C1A" stroke-width="1.103"/><path d="M135.055 46.104h8.077v4.01c1.496 2.228 4.667 6.862 5.384 7.575.898.891 2.693 2.228 2.244 4.01-.449 1.782 0 4.01 0 4.901 0 .713 1.496 2.377 2.244 3.12v9.355l2.692 1.783 3.141 11.585-1.346 1.336c.449 1.634 1.346 5.169 1.346 6.238 0 1.07 1.795 2.228 2.693 2.674l-2.693 3.564v3.565l2.693 4.456-2.693 6.683v5.793l2.693 4.455-2.693 3.119v4.902l2.693 2.228-2.693 8.466 2.693 8.02 2.692 2.228-2.692 5.347 2.692 4.455v4.456" stroke="#FF6C1A" stroke-width="1.103"/><path d="M146.272 53.678v8.912l1.795 4.01 5.834 15.15v18.714l2.692 2.228-2.692 9.802 2.692 4.01-2.692 3.565-5.834 5.792c1.945 1.783 5.834 5.526 5.834 6.238 0 .713 1.795 2.08 2.692 2.674-1.496 1.485-4.487 4.723-4.487 5.792 0 1.337-.898 1.337 1.795 3.119 2.154 1.426 2.692 3.565 2.692 4.456l-2.692 8.912c.449.891 1.615 2.851 2.692 3.564 1.077.713 2.543 4.753 3.141 6.684l-7.628 2.673m-60.578-89.56l-3.59 8.02v7.13l1.347.89v4.902c-.45.594-1.347 2.138-1.347 3.564 0 1.426.898 3.565 1.347 4.456l2.243 2.228c.748.445 1.795 1.693 0 3.119-1.795 1.426-3.14 4.456-3.59 5.792-.448.594-1.077 2.05 0 3.119 1.077 1.07 2.842 3.119 3.59 4.011v7.574h2.693v3.565l1.346 4.01v3.119l1.795 2.228h2.243v1.782c0 4.01 5.834 3.119 1.795 6.238-1.436 3.921-.598 5.199 0 5.347h2.693v4.901l-1.795 1.337v4.456h1.795l-2.693 6.238 2.693 2.673v4.01" stroke="#FF6C1A" stroke-width="1.103"/><path d="M87.04 107.593l-1.794 2.228c1.196 1.485 3.23 4.723 1.794 5.792-1.794 1.337-4.038 3.565-4.038 5.347 0 1.426 2.692 5.05 4.038 6.684v11.584c0 1.426 1.496 2.674 2.244 3.119h1.795c-.598.892-1.795 2.941-1.795 4.011 0 1.336-4.487 2.673-2.244 4.01 4.039 3.564 5.834 4.01 6.283 5.347.359 1.069.15 2.822 0 3.564-.45 1.485-1.077 4.634 0 5.347 1.077.713 2.542 2.079 3.14 2.674v4.01c-1.196.148-3.23.713-1.794 1.782 1.795 1.337 3.59 4.01 1.795 5.347-1.436 1.069-2.693 3.119-3.141 4.01h-4.039" stroke="#FF6C1A" stroke-width="1.103"/><path d="M104.092 37.638l-2.244 4.456c-1.645-.446-4.936-1.07-4.936 0v8.466c0 1.07-2.393 2.228-3.59 2.673v1.783c-1.346 4.9-.448 5.346-2.243 8.02-1.436 2.138-3.29 3.861-4.039 4.456v8.465c-1.077 2.496-3.14 11.734-4.038 16.041-1.496 1.337-4.487 4.278-4.487 5.347 0 1.337 1.795 4.01 3.14 5.347 1.347 1.337 0 1.782 0 3.564v5.793c.15 2.376.09 7.575-1.345 9.357-1.795 2.228 1.346 5.792 1.346 8.02 0 5.347.448 7.129-1.346 9.357 1.076 6.773 2.243 11.437 2.692 12.922.748 1.188 2.244 3.832 2.244 4.901 0 1.07 1.196 5.496 1.794 7.575 1.795.891 5.116 3.03 4.039 4.456-1.077 1.426-3.141 7.129-4.039 9.802" stroke="#FF6C1A" stroke-width="1.103"/><path d="M89.733 63.481h-4.487L83.9 68.382l-2.244 5.347v8.467c0 1.069-1.795 2.821-2.692 3.564v2.673l-4.487 5.793-1.795 3.119m35.898-60.598c.748 2.525.897 10.337-.898 10.694-2.243.445-6.282-.446-6.282 1.336v6.684h2.244c-1.197 1.04-3.77 3.475-4.487 4.901-.718 1.426-4.787 8.02-6.731 11.14v13.811c-.599 1.337-1.436 4.278 0 5.347 1.795 1.337 2.243 1.782 2.692 3.12.449 1.336 2.692 1.336 0 3.564-2.692 2.228 0 4.901 0 6.683v17.378l2.244 2.673v1.782c0 1.07 1.196 9.357 1.795 13.368v2.227l2.243-5.792 3.59 4.901v3.565" stroke="#FF6C1A" stroke-width="1.103"/><path d="M80.103 58.442c12.03-8.388 51.579-19.063 81.851-3.427l3.141 13.367c-35.154-10.61-46.219-9.94-91.516 4.01 0 0 .562-4.546 1.78-7.233 1.297-2.865 4.744-6.717 4.744-6.717z" fill="#FF6C1A" stroke="#171814" stroke-width="1.103"/></g></svg>