<svg width="131" height="65" fill="none" xmlns="http://www.w3.org/2000/svg"><path fill-rule="evenodd" clip-rule="evenodd" d="M50.157 1.009c1.176.018 2.348.036 3.516.036.215 0 .433-.006.653-.012 1.167-.032 2.396-.066 3.565.779.217.156.335.673.264 1.153-.07.48-.304.742-.52.585-1.028-.742-2.098-.716-3.265-.688-.228.006-.46.011-.697.011-1.18 0-2.362-.018-3.543-.036-4.003-.06-8.002-.12-11.965.515-8.793 1.41-16.877 5.568-24.845 11.9-3.513 2.791-6.821 6-9.1 9.952C1.95 29.14.777 33.668 1.32 39.18c.648 6.56 2.982 11.089 6.464 13.896 2.841 2.29 7.566 4.094 13.29 5.496 5.712 1.4 12.383 2.39 19.093 3.084 13.42 1.385 26.981 1.577 33.32 1.46 7.533-.14 20.56-1.742 32.165-5.206 5.804-1.731 11.238-3.925 15.446-6.623 2.105-1.35 3.889-2.818 5.255-4.401 1.378-1.597 2.276-3.25 2.682-4.907.43-1.753.567-3.392.471-4.938a15.83 15.83 0 00-1.008-4.619c-1.161-3.075-3.244-5.956-6.022-8.567-5.543-5.21-13.655-9.165-22.023-11.605-15.69-4.574-42.674-5.223-59.544 0-4.262 1.319-16.794 6.231-24.907 15.94-.2.24-.45.075-.56-.37-.108-.443-.033-.998.167-1.238 8.256-9.88 20.92-14.823 25.185-16.144 16.952-5.247 44.012-4.594 59.767 0 8.395 2.447 16.594 6.429 22.238 11.734 2.815 2.645 5.045 5.665 6.333 9.078a18.96 18.96 0 011.192 5.543 20.067 20.067 0 01-.563 6.058c-.525 2.142-1.602 4.006-3.025 5.654-1.434 1.663-3.276 3.17-5.408 4.537-4.265 2.736-9.745 4.944-15.565 6.68-11.643 3.475-24.705 5.081-32.27 5.222-6.349.118-19.926-.074-33.364-1.462-6.72-.694-13.41-1.687-19.146-3.092-5.725-1.403-10.538-3.223-13.482-5.596-3.626-2.923-6.257-7.816-6.988-15.223-.64-6.477.8-11.646 3.198-15.806C6.1 19.62 9.516 16.33 13.04 13.53 21.07 7.15 29.228 2.95 38.104 1.528c4-.641 8.042-.58 12.052-.519z" fill="url(#paint0_linear_4324_3591)"/><defs><linearGradient id="paint0_linear_4324_3591" x1=".361" y1="32.973" x2="130.361" y2="32.973" gradientUnits="userSpaceOnUse"><stop stop-color="#FF6C1A"/><stop offset="1" stop-color="#994110"/></linearGradient></defs></svg>