<svg width="96" height="38" fill="none" xmlns="http://www.w3.org/2000/svg"><path fill-rule="evenodd" clip-rule="evenodd" d="M36.772.021c.868.01 1.734.021 2.597.021.158 0 .32-.003.482-.007.861-.019 1.77-.039 2.632.463.16.093.248.4.196.684-.053.285-.225.441-.385.348-.759-.44-1.549-.425-2.41-.409-.17.004-.34.007-.515.007-.872 0-1.744-.01-2.616-.021-2.957-.036-5.91-.072-8.837.305-6.492.838-12.462 3.306-18.347 7.066-2.594 1.657-5.037 3.563-6.72 5.91C1.175 16.723.307 19.412.71 22.685c.477 3.894 2.2 6.583 4.772 8.25 2.099 1.36 5.588 2.431 9.815 3.263 4.218.831 9.144 1.42 14.099 1.831 9.91.823 19.925.937 24.605.867 5.563-.083 15.184-1.034 23.753-3.09 4.286-1.029 8.299-2.331 11.406-3.934 1.554-.8 2.872-1.672 3.881-2.612 1.017-.948 1.68-1.93 1.98-2.914.319-1.04.419-2.014.348-2.931a7.843 7.843 0 00-.744-2.743c-.857-1.826-2.395-3.537-4.447-5.087-4.093-3.093-10.084-5.442-16.263-6.89-11.586-2.716-31.513-3.101-43.971 0-3.147.782-12.402 3.7-18.393 9.464-.148.143-.333.045-.413-.22-.08-.263-.025-.592.123-.735 6.096-5.864 15.447-8.8 18.597-9.584 12.518-3.116 32.501-2.728 44.136 0 6.2 1.453 12.253 3.817 16.421 6.966 2.08 1.572 3.726 3.365 4.677 5.39.479 1.021.79 2.12.88 3.292a9.703 9.703 0 01-.415 3.597c-.388 1.272-1.183 2.378-2.234 3.357-1.06.987-2.42 1.883-3.994 2.694-3.15 1.624-7.196 2.935-11.494 3.966-8.598 2.064-18.244 3.017-23.83 3.1-4.689.07-14.714-.043-24.639-.867-4.961-.412-9.901-1.002-14.138-1.836-4.227-.833-7.782-1.914-9.956-3.323-2.677-1.736-4.62-4.64-5.16-9.039-.472-3.845.59-6.914 2.361-9.385 1.765-2.46 4.287-4.413 6.89-6.076 5.93-3.789 11.954-6.281 18.51-7.126 2.952-.381 5.938-.345 8.9-.309z" fill="url(#paint0_linear_4332_957)"/><defs><linearGradient id="paint0_linear_4332_957" x1="0" y1="19" x2="96" y2="19" gradientUnits="userSpaceOnUse"><stop stop-color="#FF6C1A"/><stop offset="1" stop-color="#994110"/></linearGradient></defs></svg>