<svg width="377" height="375" fill="none" xmlns="http://www.w3.org/2000/svg"><path d="M377 194.394l-.406-7.953v-.023l-1.222-8.812-1.263-9.081-1.302-9.362-1.337-9.659-1.383-9.968-1.428-10.289-1.479-10.633-1.526-10.988-1.577-11.365-1.628-11.76-1.691-12.174-1.754-12.613-1.816-13.072v-.023l-2.765-13.467v-.023l-4.456-15.425v-.012c0-.011-.012-.022-.018-.034 0-.006 0-.017-.005-.023l-4.713-8.107-.018-.018c-.005-.011-.011-.017-.017-.028a.065.065 0 00-.023-.017s-.005-.012-.011-.012h-.011v-.011l-9.124-6.968s-.011-.006-.017-.012c-.006 0-.017-.011-.023-.017a.044.044 0 01-.023-.012.047.047 0 01-.023-.011h-.011L327.241.286h-.035c-.011 0-.017-.005-.028-.005L311.085 0h-.029l-13.208 1.242h-.023l-12.557 2.062-12.106 1.987-11.677 1.918-11.271 1.85-10.883 1.786-10.518 1.723-10.163 1.672-9.838 1.609-9.523 1.563-9.221 1.517-8.935 1.466-8.661 1.42-8.403 1.38h-.023l-7.375 1.935h-.006l-6.147 1.792h-.012s-.017.012-.028.017c-.012 0-.023 0-.029.012l-5.621 3.069h-.006l-6.587 3.836h-.011s-.006.012-.012.017c0 0-.011 0-.011.006l-6.936 4.959-7.152 5.107-7.376 5.273-7.609 5.445-7.861 5.617-8.118 5.806-8.392 6-8.678 6.207-8.981 6.425-9.3 6.653-9.638 6.894-9.992 7.145-10.363 7.409h-.006v.012h-.011l-10.21 8.422a.233.233 0 00-.085.081L6.307 132.871s-.011.017-.017.023l-.023.023-4.667 7.655s0 .011-.006.017c0 .006 0 .012-.006.017a.04.04 0 01-.011.023c0 .012 0 .017-.006.029 0 .006 0 .011-.006.023L0 152.069v.115l2.365 9.069s.006.006.006.012c0 .017.006.028.017.04v.011l7.695 14.086.006.005v.012l7.524 11.503h.006v.017l7.918 10.552 7.638 10.181 7.375 9.825 7.124 9.488 6.884 9.172 6.656 8.869 6.438 8.577 6.233 8.303 6.038 8.044 5.85 7.793 5.673 7.558 5.502 7.329 5.336 7.111s.005 0 .011.006c0 0 0 .006.006.011l5.313 5.926s.011.006.011.012c0 0 .006.011.012.017l4.696 4.054s.011 0 .011.006c0 0 0 .005.012.011l5.433 3.813h.011c.006 0 .011.012.023.018l6.701 3.412h.012s.005.006.011.006l7.849 3.126 8.096 3.224 8.352 3.326 8.621 3.436 8.9 3.544 9.198 3.664 9.512 3.791 9.838 3.922 10.186 4.059 10.546 4.203 10.934 4.357 11.34 4.518 11.763 4.689h.017l12.615 4.077h.017l15.727 4.02s.046.011.069.011h.011l9.078-.263s.017 0 .029-.006a.155.155 0 00.068-.017l10.695-4.421s.005 0 .011-.005c.006 0 .012-.006.023-.012.011-.005.023-.017.034-.023a.04.04 0 00.023-.011l6.621-6.224s.012-.017.018-.023a.293.293 0 00.034-.04l8.335-13.953v-.012l6.09-11.806v-.012l5.062-11.64 4.873-11.211 4.701-10.81 4.536-10.433 4.376-10.071 4.228-9.734 4.085-9.407 3.953-9.098 3.828-8.806 3.702-8.526 3.593-8.262 3.479-8.005 3.371-7.764v-.023l2.359-7.157v-.017c0-.006.006-.012.006-.023l1.165-6.544v-.029l.486-6.195v-.035.012zM109.619 305.158l4.108 2.05 3.233 3.653-7.341-5.703zm7.067 6.212l-4.016-2.033-3.182-3.555 7.198 5.594v-.006zm90.11-148.645l18.527-7.655-2.646 19.896-15.881-12.241zm15.533 12.694l-18.533 7.655 2.651-19.897 15.882 12.242zM203.231 183l-15.871-12.248 18.527-7.655-2.651 19.897-.005.006zm19.315-7.054l-2.645 19.914-15.888-12.259 18.533-7.655zm.697-.905l2.645-19.897 15.893 12.236-18.532 7.655-.006.006zm18.75-7.129l-2.64 19.909-15.893-12.253 18.533-7.656zm-35.42-5.72l2.651-19.879 15.876 12.224-18.522 7.655h-.005zm-.566-.074l-15.865-12.23 18.516-7.65-2.651 19.88zm-16.082-12.757l2.657-19.863 15.859 12.213-18.516 7.65zm15.734 13.215l-18.522 7.655 2.657-19.885 15.865 12.23zm-2.782 20.882l-18.533 7.655 2.662-19.903 15.871 12.248zm.217.526l-2.657 19.914-15.876-12.258 18.533-7.656zm-3.005 20.373l-18.544 7.661 2.662-19.92 15.876 12.259h.006zm3.57-20.298l15.888 12.259-18.539 7.661 2.657-19.92h-.006zm19.447-8.033l15.893 12.253-18.544 7.661 2.645-19.914h.006zm19.447-8.034l15.904 12.248-18.544 7.661 2.64-19.909zm.348-.452l18.533-7.655-2.628 19.908-15.905-12.247v-.006zm-16.676-12.843l18.527-7.655-2.634 19.891-15.893-12.236zm-16.659-12.831l18.516-7.65-2.645 19.88-15.876-12.224.005-.006zm-16.641-12.82l18.504-7.649-2.645 19.862-15.859-12.213zm-3.571 20.246l-15.853-12.218 18.504-7.644-2.657 19.862h.006zm-2.788 20.865l-15.859-12.236 18.516-7.65-2.657 19.886zm-2.793 20.887l-15.865-12.247 18.521-7.655-2.662 19.902h.006zm-2.794 20.905l-15.87-12.265 18.532-7.655-2.662 19.92zm19.327-7.054l-2.657 19.937-15.887-12.276 18.544-7.661zm19.458-8.039l-2.645 19.931-15.893-12.27 18.538-7.661zm19.458-8.039l-2.639 19.931-15.905-12.27 18.544-7.661zm19.458-8.039l-2.628 19.925-15.91-12.264 18.544-7.661h-.006zm.697-.905l2.628-19.908 15.91 12.247-18.544 7.661h.006zm18.761-7.134l-2.622 19.926-15.922-12.259 18.544-7.661v-.006zm-35.448-5.72l2.633-19.891 15.899 12.236-18.532 7.655zm-16.676-12.843l2.645-19.879 15.882 12.224-18.527 7.655zm-16.659-12.831L212 121.482l15.87 12.213-18.515 7.65zm-16.642-12.82l2.651-19.845 15.853 12.201-18.504 7.65v-.006zm-.565-.074L176.3 116.249l18.498-7.644-2.65 19.846zm-16.054-12.74l2.977-19.027 15.493 11.395-18.475 7.632h.005zm15.7 13.192l-18.505 7.644 2.663-19.851 15.847 12.201-.005.006zm-2.788 20.847l-18.516 7.65 2.662-19.868 15.854 12.218zm-2.788 20.865l-18.522 7.655 2.668-19.885 15.859 12.236-.005-.006zm-2.788 20.887l-18.533 7.656 2.668-19.903 15.865 12.247zm-2.794 20.905l-18.538 7.661 2.668-19.926 15.87 12.265zm.217.532l-2.662 19.937-15.876-12.276 18.544-7.661h-.006zm-3.022 20.384l-18.013 7.025 2.16-19.29 15.859 12.265h-.006zm3.588-20.309l15.887 12.276-18.549 7.666 2.662-19.936v-.006zm19.458-8.039l15.893 12.27-18.549 7.667 2.656-19.937zm19.458-8.039l15.905 12.27-18.55 7.667 2.645-19.931v-.006zm19.458-8.039l15.911 12.265-18.55 7.666 2.639-19.931zm19.458-8.039l15.922 12.259-18.549 7.667 2.627-19.926zm19.459-8.027l15.104 12.161-17.721 7.741 2.617-19.897v-.005zm.331-.47l17.716-7.712-2.611 19.868-15.105-12.156zm-16.676-12.848l18.533-7.656-2.623 19.903-15.91-12.247zm-16.682-12.837l18.527-7.656-2.628 19.892-15.899-12.236zm-16.664-12.826l18.515-7.65-2.633 19.874-15.882-12.224zm-16.653-12.814l18.509-7.644-2.639 19.857-15.87-12.213zm-16.636-12.803l18.498-7.644-2.645 19.846-15.853-12.202zm-16.271-11.978l18.442-7.62-2.948 19.014-15.494-11.394zm-3.919 19.41l-15.465-11.405 18.442-7.621-2.977 19.026zm-2.799 20.813l-15.836-12.207 18.498-7.644-2.662 19.851zm-2.794 20.853l-15.842-12.218 18.505-7.65-2.663 19.868zm-2.799 20.87L151.3 165.966l18.516-7.65-2.668 19.885zm-2.799 20.888l-15.854-12.253 18.522-7.655-2.668 19.902v.006zm-2.805 20.904l-15.859-12.264 18.532-7.655-2.668 19.925-.005-.006zm-2.28 20.258l-15.83-12.253 17.984-7.037-2.159 19.29h.005zm18.819-6.407l-2.171 19.29-15.842-12.265 18.013-7.025zm19.452-8.028l-2.657 19.955-15.893-12.288 18.55-7.667zm19.464-8.044l-2.651 19.948-15.899-12.287 18.55-7.667v.006zm19.464-8.045l-2.645 19.949-15.911-12.282 18.55-7.667h.006zm19.469-8.044l-2.633 19.942-15.917-12.281 18.55-7.667v.006zm19.47-8.045l-2.628 19.943-15.928-12.276 18.55-7.667h.006zm18.618-8.119l-2.611 19.885-15.11-12.15 17.721-7.741v.006zm.703-.956l2.605-19.811 13.38 11.961-15.985 7.844v.006zm16.139-7.283l-2.588 19.748-13.397-11.904 15.985-7.844zm-32.01-5.463l2.617-19.879 15.093 12.167-17.715 7.712h.005zm-16.698-12.837l2.628-19.891 15.904 12.23-18.532 7.655v.006zm-16.682-12.837l2.634-19.874 15.887 12.219-18.527 7.655h.006zm-16.665-12.825l2.64-19.857 15.876 12.207-18.516 7.65zm-16.653-12.815l2.645-19.845 15.865 12.196-18.51 7.644v.005zm-16.624-12.808l2.948-19.015 15.527 11.383-18.475 7.632zm-16.253-11.984l3.587-17.303 14.791 9.705-18.384 7.598h.006zm-.583 0l-14.717-9.74 18.305-7.563-3.588 17.303zm-14.871-10.295l4.588-14.686 13.585 7.174-18.173 7.507v.005zm14.454 10.707l-18.384 7.598 3.662-17.337 14.716 9.74h.006zm-3.102 19.983l-18.476 7.632 3.005-19.038 15.465 11.406h.006zm-2.783 20.83l-18.504 7.65 2.668-19.851 15.836 12.207v-.006zm-2.793 20.853l-18.516 7.65 2.674-19.874 15.842 12.224zm-2.799 20.87l-18.522 7.656 2.674-19.891 15.848 12.235zm-2.8 20.888l-18.532 7.655 2.673-19.908 15.854 12.253H164zm-2.811 20.899l-17.984 7.037 2.143-19.29 15.841 12.253zm-2.29 20.246l-16.853 5.72 1.074-17.933 15.779 12.213zm.285.509l-1.125 17.905-15.728-12.179 16.853-5.72v-.006zm-1.519 18.323l-15.117 3.664-.508-15.768 15.625 12.104zm2.079-18.174l15.796 12.225-16.921 5.68 1.125-17.905zm18.904-7.397l15.871 12.276-18.042 7.014 2.171-19.29zm19.458-8.051l15.899 12.288-18.555 7.666 2.656-19.954zm19.464-8.044l15.911 12.281-18.562 7.667 2.651-19.948zm19.464-8.045l15.916 12.282-18.561 7.666 2.645-19.948zm19.464-8.045l15.927 12.276-18.561 7.667 2.634-19.943zm19.464-8.033l15.11 12.15-17.733 7.77 2.623-19.92zm18.612-8.102l13.397 11.904-16.002 7.925 2.605-19.829zm16.836-8.199l10.735 11.543-13.306 8.079 2.571-19.622zm.246-.572l13.277-7.925-2.543 19.468-10.734-11.543zm-14.042-12.603l15.967-7.769-2.588 19.73-13.379-11.961zm-15.819-12.779l17.698-7.684-2.605 19.851-15.093-12.167zm-16.676-12.838l18.527-7.655-2.617 19.886-15.905-12.231h-.005zm-16.676-12.825l18.509-7.65-2.622 19.869-15.887-12.219zm-16.665-12.814l18.51-7.65-2.628 19.857-15.876-12.207h-.006zM215.131 100.2l18.498-7.644-2.634 19.84-15.864-12.196zm-16.305-11.967l18.441-7.615-2.913 18.998-15.528-11.383zm-15.568-10.249l18.305-7.57-3.514 17.275-14.791-9.705zm-14.362-7.65l18.036-7.449-4.451 14.624-13.585-7.174zm-5.718 15.15l-13.443-7.23 18.03-7.45-4.587 14.68zm-3.885 18.226l-14.642-9.768 18.304-7.564-3.662 17.338v-.006zm-3.177 19.971l-15.436-11.417 18.441-7.621-3.005 19.038zm-2.81 20.819l-15.831-12.213 18.499-7.644-2.668 19.851v.006zm-2.805 20.853l-15.837-12.224 18.505-7.644-2.674 19.874.006-.006zm-2.805 20.87l-15.842-12.241 18.515-7.65-2.673 19.891zm-2.811 20.893l-15.848-12.253 18.522-7.655-2.674 19.908zm-2.262 20.258l-15.814-12.236 17.956-7.048-2.142 19.29v-.006zm-1.154 18.883l-15.717-12.167 16.785-5.766-1.074 17.933h.006zm.491 16.685l-15.499-12.013 14.99-3.75.509 15.763zm16.065-2.932l.405 15.689-15.516-12.024 15.111-3.665zm17.795-5.937l-1.177 17.87-15.744-12.19 16.921-5.68zm18.933-7.335l-2.183 19.29-15.859-12.276 18.042-7.014zm19.464-8.033l-2.651 19.971-15.905-12.298 18.561-7.667-.005-.006zm19.475-8.045l-2.645 19.966-15.916-12.299 18.561-7.667zm19.475-8.044l-2.633 19.96-15.928-12.293 18.561-7.667zm19.475-8.045l-2.627 19.96-15.934-12.293 18.561-7.667zm18.63-8.148l-2.616 19.909-15.122-12.139 17.733-7.77h.005zm16.859-8.319l-2.588 19.765-13.408-11.846 16.002-7.925-.006.006zm14.105-8.508l-2.548 19.484-10.757-11.411 13.305-8.073zm.737-1.249l2.502-19.152 7.141 11.022-9.643 8.13zm9.643-7.38l-2.467 18.929-7.17-10.804 9.643-8.131-.006.006zm-21.052-4.718l2.571-19.605 10.712 11.675-13.283 7.93zm-14.11-12.551l2.599-19.794 13.368 12.024-15.967 7.77zm-15.859-12.757l2.616-19.862 15.088 12.178-17.699 7.684h-.005zm-16.694-12.825l2.623-19.869 15.904 12.219-18.527 7.655v-.005zm-16.675-12.826l2.627-19.857 15.882 12.208-18.509 7.649zm-16.665-12.814l2.634-19.84 15.87 12.196-18.51 7.644h.006zm-16.636-12.803l2.914-18.998 15.556 11.366-18.476 7.632h.006zm-16.287-11.972l3.513-17.275 14.871 9.683-18.384 7.592zm-15.534-10.26l4.451-14.63 13.722 7.117-18.173 7.512zm-14.265-7.69l5.684-11.057 12.02 3.745-17.704 7.312zm-.754.212l-11.803-3.831 17.482-7.226-5.679 11.057zm-11.734-4.478l6.49-8.274 10.42 1.289-16.91 6.985zm11.048 4.861l-17.704 7.312 5.902-11.148 11.802 3.83v.006zm-4.713 15.528l-18.172 7.512 4.73-14.743 13.448 7.231h-.006zm-3.799 18.254l-18.384 7.598 3.736-17.366 14.642 9.774.006-.006zm-3.13 19.994l-18.47 7.632 3.039-19.049 15.436 11.417h-.005zm-2.788 20.83l-18.504 7.644 2.679-19.857 15.83 12.213h-.005zm-2.805 20.853l-18.516 7.65 2.679-19.874 15.837 12.224zm-2.805 20.87l-18.522 7.656 2.68-19.891 15.842 12.241v-.006zm-2.817 20.888l-17.956 7.048 2.131-19.29 15.831 12.242h-.006zm-2.274 20.252l-16.784 5.766 1.022-17.968 15.768 12.202h-.006zm-1.176 18.866l-14.991 3.756-.617-15.843 15.613 12.087h-.005zm.428 16.633l-12.551 1.042-2.697-12.86 15.248 11.818zm.526.533l2.519 12.722-15.071-11.68 12.552-1.042zm1.993 13.043l-10.603-.991-4.056-10.375 14.659 11.366zm-1.336-12.654l15.264 11.829-12.745.899-2.519-12.728zm15.904-3.985l15.642 12.11-15.236 3.578-.406-15.688zm17.779-6.024l15.813 12.236-16.99 5.634 1.177-17.875v.005zm18.932-7.386l15.888 12.288-18.07 7.002 2.182-19.29zm19.464-8.056l15.916 12.299-18.567 7.673 2.651-19.972zm19.476-8.044l15.927 12.293-18.567 7.672 2.645-19.965h-.005zm19.475-8.045l15.933 12.293-18.567 7.673 2.634-19.966zm19.475-8.033l15.122 12.138-17.744 7.799 2.622-19.937zm18.63-8.131l13.414 11.847-16.019 7.999 2.605-19.846zm16.853-8.285l10.757 11.412-13.334 8.222 2.577-19.64v.006zm14.094-8.405l7.169 10.804-9.677 8.366 2.508-19.176v.006zm10.363-8.497l4.433 10.22-6.833 8.194 2.406-18.42-.006.006zm.183-1.014l6.792-7.901-2.365 18.122-4.427-10.221zm-7.656-11.88l9.604-7.891-2.468 18.913-7.136-11.022zm-11.294-12.374l13.248-7.775-2.542 19.45-10.712-11.675h.006zm-14.031-12.665l15.945-7.69-2.577 19.714-13.368-12.018v-.006zm-15.808-12.791l17.688-7.656-2.606 19.834-15.087-12.178h.005zm-16.67-12.82l18.521-7.65-2.616 19.869-15.905-12.219zm-16.664-12.809l18.504-7.65-2.622 19.852-15.882-12.207v.005zm-16.659-12.797l18.498-7.643-2.628 19.839-15.87-12.196zm-16.339-11.95l18.441-7.62-2.885 18.986-15.556-11.365zm-15.648-10.22l18.304-7.563-3.439 17.246-14.865-9.683zm-14.51-7.586l18.029-7.455-4.313 14.566-13.722-7.111h.006zm-12.843-4.117l17.481-7.226-5.461 10.965-12.02-3.745v.006zm-11.386-1.552l16.642-6.876-6.227 8.165-10.415-1.288zm-8.501 9.104l-10.151-1.397 16.641-6.876-6.49 8.273zm-6.398 12.019l-11.586-3.922 17.482-7.226-5.896 11.142v.006zm-5.05 15.59l-13.306-7.288 18.03-7.455-4.73 14.744h.006zm-3.965 18.254l-14.568-9.802 18.304-7.564-3.736 17.366zm-3.211 19.983l-15.402-11.428 18.442-7.621-3.04 19.049zm-2.822 20.819l-15.819-12.213 18.498-7.644-2.679 19.857zm-2.811 20.859l-15.824-12.231 18.504-7.643-2.68 19.874zm-2.816 20.876l-15.831-12.242 18.516-7.65-2.679 19.892h-.006zm-2.251 20.257l-15.802-12.23 17.927-7.06-2.131 19.29h.006zm-1.103 18.912l-15.699-12.156 16.722-5.805-1.023 17.967v-.006zm.6 16.765l-15.487-12.001 14.865-3.842.617 15.837.005.006zm2.782 13.765l-15.053-11.669 12.357-1.186 2.696 12.855zm4.291 11.348l-14.425-11.182 10.369.813 4.05 10.375.006-.006zm12.197 2.227l3.833 10.204-14.436-11.194 10.603.99zm13.711-.933l2.342 12.591-15.082-11.692 12.74-.899zm16.116-3.739l.291 15.614-15.527-12.035 15.236-3.579zm17.864-5.892l-1.228 17.842-15.756-12.202 16.99-5.634-.006-.006zm18.961-7.323l-2.199 19.29-15.876-12.287 18.075-7.003zm19.476-8.033l-2.645 19.983-15.922-12.311 18.572-7.672h-.005zm19.486-8.05l-2.639 19.982-15.933-12.31 18.572-7.672zm19.487-8.051l-2.628 19.977-15.939-12.304 18.573-7.673h-.006zm18.641-8.176l-2.616 19.925-15.128-12.127 17.744-7.798zm16.876-8.4l-2.588 19.788-13.425-11.783 16.019-7.999-.006-.006zm14.134-8.663l-2.548 19.502-10.78-11.28 13.328-8.222zm10.42-8.875l-2.474 18.947-7.204-10.581 9.678-8.366zm7.547-8.851l-2.365 18.139-4.468-9.946 6.833-8.193zm.863-2.199l2.268-17.383 2.599 9.624-4.867 7.759zm4.724-6.453l-2.228 17.086-2.645-9.328 4.867-7.758h.006zm-9.683-4.535l2.399-18.402 4.393 10.495-6.792 7.907zm-7.73-11.657l2.497-19.136 7.107 11.246-9.604 7.895v-.005zm-11.38-12.248l2.559-19.582 10.689 11.807-13.254 7.781.006-.006zm-14.094-12.613l2.594-19.771 13.351 12.081-15.945 7.69zm-15.853-12.769l2.617-19.845 15.07 12.19-17.687 7.655zm-16.687-12.808l2.622-19.851 15.899 12.201-18.521 7.65zm-16.665-12.809l2.628-19.84 15.876 12.19-18.504 7.65zm-16.647-12.802l2.885-18.987 15.59 11.354-18.475 7.638v-.005zM218.01 79.713l3.439-17.245 14.939 9.647-18.378 7.598zm-15.619-10.231l4.313-14.572 13.86 7.06-18.173 7.506v.005zm-14.425-7.621l5.467-10.97 12.237 3.652-17.704 7.318zm-12.734-4.163l6.227-8.165 10.683 1.18-16.91 6.985zm-11.215-1.626l6.507-6.184 9.232-.32-15.739 6.504zm-1.428.567l-8.958.206 15.459-6.39-6.501 6.184zm-8.695-.521l6.404-5.062 8.095-.933-14.505 5.995h.006zm7.284 1.128l-15.739 6.504 6.781-6.298 8.958-.206zm-6.821 9.075l-16.91 6.985 6.752-8.382 10.158 1.397zm-6.107 11.95l-17.704 7.317 6.118-11.24 11.586 3.922zm-4.868 15.596l-18.172 7.507 4.867-14.795 13.305 7.288zm-3.879 18.288l-18.378 7.598 3.81-17.4 14.568 9.802zm-3.165 20.012l-18.475 7.632 3.068-19.061 15.402 11.429h.005zm-2.799 20.836l-18.504 7.643 2.685-19.862 15.819 12.213v.006zm-2.811 20.858l-18.515 7.65 2.685-19.88 15.825 12.23h.005zm-2.822 20.871l-17.927 7.059 2.114-19.29 15.813 12.231zm-2.256 20.251l-16.722 5.806.971-17.996 15.751 12.19zm-1.12 18.901l-14.871 3.842-.725-15.918 15.596 12.082v-.006zm.548 16.725l-12.362 1.185-2.874-12.992 15.236 11.807zm2.725 13.724l-10.369-.813-4.273-10.541 14.648 11.354h-.006zm4.216 11.291l-8.9-2.067-4.931-8.657 13.831 10.724zm1.023.825l4.696 8.474-13.591-10.541 8.895 2.067zm4.13 8.766l-8.009-2.634-5.005-7.46 13.014 10.094zm-3.022-7.936l13.843 10.736-9.147-2.256-4.696-8.474v-.006zm11.46.865l14.671 11.377-10.837-1.168-3.834-10.209zm13.54-1.128l15.276 11.841-12.934.755-2.342-12.59v-.006zm16.042-3.888l15.653 12.121-15.362 3.493-.297-15.614h.006zm17.853-5.978l15.824 12.248-17.058 5.594 1.228-17.842h.006zm18.961-7.374l15.904 12.299-18.104 6.991 2.2-19.29zm19.475-8.056l15.933 12.31-18.578 7.672 2.645-19.982zm19.487-8.051l15.939 12.305-18.579 7.672 2.64-19.982v.005zm19.481-8.039l15.127 12.127-17.755 7.827 2.628-19.954zm18.635-8.165l13.431 11.784-16.036 8.079 2.605-19.863zm16.87-8.371l10.781 11.286-13.357 8.377 2.571-19.657.005-.006zm14.123-8.571l7.204 10.587-9.712 8.606 2.508-19.193zm10.403-8.766l4.467 9.946-6.878 8.485 2.405-18.437.006.006zm7.529-8.709l2.646 9.327-4.914 8.068 2.268-17.401v.006zm5.582-8.6l1.708 8.829-3.845 7.535 2.131-16.364h.006zm.246-1.74l3.799-7.232-2.085 16.055-1.709-8.823h-.005zm-3-11.126l4.828-7.449-2.223 17.069-2.599-9.62h-.006zm-4.85-11.628l6.753-7.616-2.36 18.105-4.393-10.495v.006zm-7.621-12.116l9.569-7.655-2.468 18.895-7.107-11.24h.006zm-11.271-12.516l13.231-7.633-2.543 19.433-10.688-11.8zm-14.014-12.729l15.933-7.615-2.582 19.697-13.351-12.082zm-15.796-12.802l17.675-7.627-2.605 19.817-15.07-12.19zM270.62 96.988l18.51-7.65-2.611 19.851-15.899-12.201zM253.956 84.19l18.498-7.638-2.622 19.834-15.876-12.19v-.006zm-16.374-11.933l18.447-7.62-2.856 18.975-15.591-11.349v-.005zm-15.721-10.185l18.304-7.564L236.8 71.72l-14.939-9.648zm-14.654-7.53l18.036-7.449-4.177 14.509-13.859-7.06zm-13.071-4.02l17.481-7.225-5.244 10.873-12.237-3.647zm-11.666-1.436l16.642-6.883-5.965 8.062-10.677-1.18zm-10.495.2l15.46-6.39-6.227 6.07-9.233.32zm-9.786.996l14.231-5.88-6.141 4.947-8.095.933h.005zm-10.203 6.63l-7.827.82 14.231-5.88-6.404 5.06zm-8.027 7.444l-8.677.092 15.459-6.39-6.782 6.298zm-7.563 9.362l-9.89-1.506 16.642-6.877-6.752 8.383zm-6.633 12.115l-11.369-4.014 17.482-7.225-6.113 11.234v.005zm-5.199 15.649l-13.162-7.347 18.029-7.449-4.867 14.796zm-4.045 18.288l-14.493-9.832 18.304-7.563-3.811 17.395zm-3.245 19.994l-15.373-11.44 18.441-7.621-3.068 19.061zm-2.827 20.824L98.633 148.37l18.499-7.643-2.685 19.862zm-2.823 20.859l-15.819-12.23 18.504-7.644-2.685 19.88v-.006zm-2.233 20.257l-15.785-12.218 17.898-7.071-2.113 19.289zm-1.052 18.947l-15.681-12.144 16.653-5.852-.972 17.996zm.715 16.845l-15.471-11.99 14.745-3.928.726 15.918zm2.965 13.902L96.976 239.74l12.169-1.328 2.874 12.986zm4.524 11.526l-14.408-11.171 10.135.636 4.273 10.541v-.006zm5.41 9.785l-13.579-10.53 8.649 1.879 4.93 8.651zm5.782 8.806l-12.769-9.905 7.764 2.445 5.005 7.455v.005zm10.717 4.735l4.77 7.278-12.779-9.911 8.009 2.633zm10.575 2.617l4.456 8.291-13.603-10.553 9.147 2.256v.006zm12.003 1.311l3.61 10.037-14.448-11.205 10.838 1.168zm13.916-.778l2.165 12.459-15.099-11.704 12.934-.755zm16.248-3.648l.182 15.534-15.544-12.047 15.356-3.487h.006zm17.938-5.846l-1.28 17.807-15.773-12.213 17.053-5.594zm18.996-7.311l-2.217 19.284-15.888-12.299 18.105-6.991v.006zm19.481-8.039l-2.646 20-15.933-12.322 18.579-7.673v-.005zm19.492-8.051l-2.634 19.995-15.944-12.322 18.578-7.678v.005zm18.653-8.205l-2.623 19.943-15.139-12.116 17.756-7.827h.006zm16.893-8.479l-2.594 19.805-13.442-11.726 16.036-8.079zm14.156-8.818l-2.553 19.525-10.804-11.148 13.357-8.371v-.006zm10.455-9.121l-2.474 18.963-7.232-10.363 9.712-8.6h-.006zm7.592-9.167l-2.365 18.156-4.513-9.67 6.878-8.486zm5.633-8.995l-2.228 17.103-2.685-9.036 4.913-8.067zm4.599-8.795l-2.091 16.072-1.748-8.537 3.839-7.535zm.994-3.206l2.074-15.935 1.599 8.726-3.667 7.209h-.006zm3.474-5.56l-2.034 15.654-1.634-8.445 3.668-7.203v-.006zm-5.542-5.044l2.131-16.347 1.668 9.115-3.799 7.232zm-3.051-10.793l2.263-17.366 2.565 9.917-4.828 7.449zm-4.913-11.308l2.4-18.386 4.353 10.77-6.753 7.616zm-7.695-11.904l2.497-19.118 7.072 11.463-9.575 7.655h.006zm-11.357-12.396l2.565-19.565 10.666 11.932-13.231 7.633zm-14.077-12.677l2.594-19.754 13.339 12.139-15.933 7.615zm-15.842-12.786l2.611-19.822 15.065 12.196-17.676 7.626zm-16.687-12.797l2.622-19.834 15.888 12.185-18.51 7.65zm-16.653-12.797l2.856-18.975 15.619 11.343-18.475 7.632zM237.371 71.72l3.365-17.211 15.019 9.619-18.384 7.598v-.006zm-15.699-10.197l4.176-14.515 13.997 7.003-18.173 7.506v.006zm-14.579-7.558l5.25-10.873 12.454 3.561-17.704 7.312zm-12.986-4.06l5.964-8.062 10.946 1.077-16.91 6.985zm-11.528-1.494l6.227-6.07 9.512-.434-15.739 6.504zm-10.466.189l6.141-4.947 8.364-1.042-14.5 5.995-.005-.006zm-10.147 1.145l6.113-4.827 7.981-.996-14.094 5.823zm-1.908.773l-7.724.893 13.837-5.714-6.113 4.827v-.006zm-7.872.332l6.084-4.712 7.621-.95-13.705 5.662zm5.981.458l-14.093 5.823 6.37-4.93 7.723-.893zm-8.015 6.356l-14.505 5.994 6.673-5.17 7.826-.824h.006zm-7.569 7.26l-15.739 6.504 7.061-6.412 8.678-.092zm-7.136 9.207l-16.91 6.985 7.015-8.491 9.889 1.506h.006zm-6.358 12.052l-17.705 7.312 6.336-11.325 11.369 4.013zm-5.028 15.655l-18.172 7.512 5.004-14.858 13.168 7.346zm-3.964 18.322l-18.385 7.598 3.885-17.429 14.494 9.831h.006zm-3.2 20.023l-18.47 7.632 3.097-19.072 15.373 11.44zm-2.81 20.841l-18.505 7.644 2.697-19.862 15.813 12.218h-.005zm-2.828 20.853l-17.899 7.072 2.103-19.29 15.796 12.218zm-2.24 20.252l-16.653 5.852.92-18.03 15.739 12.178h-.006zm-1.062 18.935l-14.745 3.928-.834-15.998 15.579 12.064v.006zm.668 16.811l-12.168 1.328-3.051-13.123 15.219 11.795zm2.925 13.873l-10.14-.635-4.49-10.707 14.63 11.342zm4.473 11.486l-8.649-1.878-5.164-8.835 13.819 10.713h-.006zm5.439 9.808l-7.764-2.445-5.233-7.638 13.003 10.083h-.006zm5.999 8.978l-7.661-2.519-5.011-7.312 12.677 9.831h-.005zm1.302 1.031l4.787 7.14-12.448-9.66 7.661 2.52zm4.479 7.626l-7.558-2.582-4.799-7.002 12.357 9.584zm-3.074-6.556l12.689 9.843-7.895-2.703-4.788-7.14h-.006zm9.632 3.15l13.026 10.106-8.255-2.823-4.771-7.283zm10.295 2.387l13.86 10.747-9.398-2.45-4.462-8.297zm11.729 1.071l14.687 11.383-11.071-1.346-3.616-10.043v.006zm13.756-.962l15.294 11.852-13.129.613-2.165-12.459v-.006zm16.179-3.79l15.671 12.132-15.482 3.401-.183-15.539-.006.006zm17.927-5.932l15.842 12.258-17.121 5.549 1.279-17.813v.006zm18.996-7.358l15.916 12.31-18.133 6.98 2.217-19.29zm19.486-8.062l15.945 12.322-18.59 7.678 2.645-20zm19.493-8.044l15.139 12.115-17.773 7.856 2.634-19.971zm18.652-8.194l13.443 11.727-16.053 8.159 2.61-19.886zm16.888-8.457l10.803 11.154-13.38 8.526 2.577-19.674v-.006zm14.151-8.737l7.238 10.363-9.746 8.841 2.513-19.21-.005.006zm10.443-9.035l4.513 9.676-6.924 8.778 2.405-18.454h.006zm7.581-9.047l2.685 9.035-4.953 8.383 2.268-17.418zm5.633-8.972l1.748 8.537-3.885 7.844 2.131-16.381h.006zm4.633-9.035l1.634 8.451-3.708 7.501 2.074-15.952zm4.456-8.715l1.531 8.36-3.553 7.18 2.022-15.54zm.251-1.803l3.519-6.9-1.988 15.259-1.531-8.359zm-1.942-10.616l3.633-6.911-2.033 15.643-1.6-8.726v-.006zm-2.011-11.005l3.759-6.922-2.091 16.038-1.668-9.116zm-2.954-11.463l4.788-7.14-2.222 17.052-2.566-9.917v.005zm-4.804-11.932l6.713-7.323-2.36 18.087-4.353-10.764zm-7.581-12.35l9.54-7.421-2.468 18.878-7.072-11.457zm-11.243-12.654l13.202-7.484-2.542 19.416-10.666-11.932h.006zm-14.002-12.791l15.916-7.541-2.577 19.679-13.339-12.138zm-15.791-12.82l17.659-7.598-2.6 19.793-15.065-12.195h.006zm-16.653-12.786l18.498-7.644-2.61 19.828-15.888-12.184zm-16.402-11.926l18.447-7.621-2.822 18.963-15.619-11.342h-.006zM241.164 54.09l18.31-7.57-3.29 17.183-15.02-9.613zm-14.796-7.467l18.03-7.454-4.033 14.457-13.997-7.003zm-13.3-3.927l17.482-7.226-5.028 10.787-12.454-3.561zm-11.945-1.323l16.641-6.877-5.701 7.953-10.94-1.076zm-10.798.332l15.459-6.384-5.947 5.949-9.506.435h-.006zm-10.1 1.128l14.231-5.88-5.873 4.838-8.358 1.042zm-10.169 1.271l13.837-5.72-5.862 4.724-7.981.996h.006zm-9.809 1.226l13.459-5.566-5.838 4.615-7.621.95zm-10.015 6.332l-7.375.853 13.459-5.56-6.078 4.707h-.006zm-8.112 6.281l-7.473.785 13.837-5.72-6.37 4.93.006.005zm-8.421 6.522l-7.558.716 14.231-5.887-6.673 5.17zm-8.352 7.575l-8.398-.023 15.459-6.39-7.056 6.407-.005.006zm-7.855 9.482l-9.627-1.615 16.642-6.877-7.015 8.492zm-6.867 12.213l-11.152-4.1 17.482-7.226-6.33 11.326zm-5.348 15.711l-13.025-7.403 18.03-7.45-5.005 14.853zm-4.124 18.322l-14.42-9.865 18.304-7.564-3.884 17.429zm-3.28 20.012L82.53 136.324l18.441-7.621-3.097 19.072v.006zm-2.839 20.83l-15.802-12.219 18.499-7.644-2.697 19.863zm-2.222 20.257L77.044 176.66l17.87-7.083-2.102 19.29zm-.994 18.981l-15.67-12.133 16.584-5.891-.914 18.024zm.822 16.925l-15.459-11.978 14.62-4.014.834 15.992h.005zm3.148 14.04l-15.025-11.652 11.974-1.471 3.051 13.117v.006zm4.759 11.703L86.15 239.352l9.907.458 4.49 10.707zm5.667 9.98l-13.568-10.524 8.404 1.689 5.164 8.835zm6.05 9.012l-12.757-9.894 7.524 2.262 5.233 7.632zm6.102 8.904l-12.437-9.648 7.426 2.342 5.011 7.312v-.006zm5.89 8.588l-12.129-9.413 7.33 2.411 4.799 7.002zm10.357 4.759l4.588 6.836-12.14-9.419 7.552 2.583zm9.609 3.286l4.565 6.968-12.46-9.665 7.895 2.697zm9.975 3.407l4.536 7.1-12.791-9.923 8.255 2.823zm10.86 2.84l4.222 8.113-13.62-10.564 9.398 2.451zm12.26 1.506l3.393 9.871-14.465-11.217 11.072 1.346zm14.128-.624l1.988 12.321-15.111-11.714 13.123-.607zm16.379-3.55l.074 15.459-15.556-12.058 15.482-3.401zm18.007-5.8l-1.331 17.778-15.791-12.224 17.122-5.549v-.005zm19.024-7.295l-2.228 19.284-15.905-12.31 18.133-6.98v.006zm19.492-8.039l-2.633 20.017-15.951-12.333 18.59-7.678-.006-.006zm18.664-8.234l-2.622 19.96-15.15-12.11 17.772-7.855v.005zm16.911-8.559l-2.594 19.822-13.46-11.669 16.054-8.153zm14.185-8.973l-2.554 19.542-10.826-11.016 13.38-8.52v-.006zm10.489-9.367l-2.474 18.981-7.273-10.14 9.747-8.841zm7.638-9.476l-2.371 18.173-4.548-9.395 6.919-8.778zm5.678-9.333l-2.228 17.114-2.719-8.737 4.953-8.377h-.006zm4.645-9.15l-2.097 16.084-1.788-8.245 3.879-7.839h.006zm4.513-9.121l-2.034 15.666-1.674-8.171 3.708-7.5v.005zm4.353-8.8l-1.988 15.27-1.565-8.09 3.553-7.174v-.006zm1.012-3.327l1.971-15.139 1.433 8.268-3.399 6.871h-.005zm3.193-5.164l-1.937 14.881-1.468-8.01 3.399-6.871h.006zm-5.079-5.022l2.023-15.528 1.496 8.629-3.519 6.899zm-1.948-10.564l2.074-15.923 1.56 9.007-3.634 6.916zm-2.022-10.953l2.125-16.335 1.628 9.407-3.759 6.922.006.006zm-3.005-11.154l2.262-17.349 2.52 10.209-4.788 7.14h.006zm-4.868-11.629l2.4-18.368 4.319 11.039-6.719 7.329zm-7.655-12.155l2.497-19.101 7.044 11.68-9.541 7.421zm-11.329-12.54l2.56-19.547 10.643 12.064-13.208 7.483h.005zm-14.065-12.745l2.588-19.737 13.328 12.196-15.916 7.541zm-15.83-12.797l2.605-19.805 15.053 12.207-17.658 7.598zm-16.665-12.786l2.828-18.963 15.648 11.331-18.476 7.632zm-16.39-11.932l3.291-17.183 15.093 9.585-18.384 7.598zm-15.785-10.163l4.034-14.457 14.139 6.945-18.178 7.512h.005zm-14.733-7.495l5.027-10.793 12.671 3.475-17.704 7.318h.006zm-13.231-3.956l5.701-7.954 11.209.962-16.91 6.992zm-11.843-1.369l5.953-5.949 9.786-.55-15.739 6.505v-.006zm-10.815.338l5.873-4.838 8.627-1.151-14.5 5.989zm-10.483 1.288l5.862-4.724 8.238-1.099-14.1 5.823zm-10.106 1.243l5.839-4.615 7.866-1.054-13.705 5.669zm-9.741 1.196l5.811-4.5 7.512-1.008-13.328 5.508h.005zm-1.97.802l-7.284.91 13.094-5.41-5.81 4.5zm-7.427.35l5.776-4.393 7.181-.961-12.952 5.353h-.005zm13.105-9.97l7.078-1.007-12.597 5.205 5.519-4.203v.006zm-7.558 5.034l-6.861.916 12.385-5.12-5.518 4.204h-.006zm-7.01.36l5.479-4.1 6.764-.961-12.243 5.061zm4.982.493l-12.597 5.204 5.73-4.282 6.861-.917.006-.005zm.217.532l-5.776 4.392-6.958.87 12.728-5.262h.006zm1.731 4.031l-13.328 5.508 6.044-4.598 7.284-.91zm-7.764 6.035l-13.699 5.663 6.324-4.81 7.375-.853zm-8.044 6.258l-14.099 5.829 6.627-5.044 7.472-.785zm-8.352 6.499l-14.499 5.989 6.935-5.28 7.558-.715.006.006zm-7.912 7.403l-15.739 6.505 7.335-6.528 8.404.023zm-7.45 9.339l-16.91 6.985 7.278-8.6 9.626 1.615h.006zm-6.604 12.156l-17.704 7.317 6.552-11.417 11.152 4.1zm-5.182 15.722l-18.172 7.513 5.141-14.916 13.031 7.403zm-4.044 18.351l-18.379 7.593 3.96-17.458 14.419 9.865zm-3.234 20.035l-18.47 7.632 3.131-19.09 15.345 11.458h-.006zm-2.822 20.835l-17.87 7.083 2.091-19.29 15.785 12.207h-.006zm-2.228 20.258l-16.584 5.892.862-18.059 15.722 12.167zm-1.005 18.969l-14.626 4.014-.942-16.072 15.567 12.058zm.788 16.897l-11.98 1.471-3.228-13.255 15.208 11.784zm3.125 14.022l-9.906-.458-4.713-10.873 14.619 11.331zm4.73 11.681l-8.403-1.689-5.4-9.018 13.803 10.701v.006zm5.724 10.025l-7.523-2.261-5.468-7.816 12.991 10.077zm6.279 9.19l-7.427-2.342-5.233-7.483 12.66 9.819v.006zm6.056 8.864l-7.33-2.411-5.01-7.169 12.345 9.58h-.005zm5.844 8.554l-7.233-2.474-4.804-6.865 12.037 9.339zm1.348 1.065l4.599 6.705-11.831-9.179 7.232 2.474zm4.291 7.191l-7.13-2.525-4.605-6.579 11.735 9.11v-.006zm-2.84-6.086l12.049 9.35-7.45-2.64-4.599-6.71zm9.221 3.132l12.368 9.596-7.781-2.754-4.587-6.842zm9.563 3.252l12.7 9.848-8.129-2.88-4.571-6.968zm9.929 3.372l13.043 10.112-8.501-3.012-4.536-7.1h-.006zm10.592 2.617l13.871 10.753-9.649-2.64-4.222-8.113zm12.003 1.277l14.699 11.394-11.306-1.523-3.393-9.871zm13.974-.802l15.31 11.864-13.322.464-1.988-12.328zm16.316-3.693l15.687 12.145-15.607 3.315-.075-15.46h-.005zm17.995-5.88l15.854 12.27-17.191 5.508 1.332-17.778h.005zm19.024-7.346l15.933 12.322-18.161 6.968 2.228-19.29zm19.493-8.051l15.15 12.11-17.784 7.885 2.634-19.989v-.006zm18.664-8.227l13.459 11.669-16.07 8.233 2.611-19.902zm16.91-8.537l10.826 11.022-13.408 8.674 2.576-19.691.006-.005zm14.174-8.904l7.272 10.146-9.786 9.081 2.514-19.227zm10.483-9.304l4.547 9.401-6.958 9.07 2.411-18.471zm7.626-9.39l2.725 8.737-4.998 8.692 2.273-17.429zm5.679-9.345l1.788 8.245-3.919 8.148 2.137-16.393h-.006zm4.679-9.407l1.674 8.171-3.754 7.792 2.08-15.969v.006zm4.507-9.064l1.566 8.096-3.588 7.461 2.022-15.551v-.006zm4.348-8.737l1.468 8.01-3.439 7.14 1.971-15.15zm4.193-8.429l1.371 7.925-3.29 6.836 1.919-14.761zm.257-1.86l3.257-6.579-1.886 14.497-1.371-7.918zm-1.771-10.215l3.359-6.602-1.931 14.864-1.428-8.262zm-1.834-10.576l3.48-6.618-1.983 15.241-1.497-8.628v.005zm-1.896-10.959l3.587-6.618-2.033 15.619-1.56-9.001h.006zm-1.971-11.359l3.713-6.619-2.085 16.02-1.628-9.407v.006zm-2.908-11.801l4.736-6.825-2.217 17.034-2.519-10.209zm-4.765-12.236l6.673-7.037-2.354 18.071-4.313-11.034h-.006zm-7.546-12.591l9.494-7.185-2.456 18.86-7.038-11.675zm-11.22-12.797l13.173-7.334-2.53 19.393-10.643-12.064v.005zm-13.986-12.854l15.899-7.46-2.57 19.656-13.329-12.196zm-15.779-12.826l17.653-7.575-2.599 19.777-15.054-12.207v.005zm-.188-.538l2.788-18.929 14.842 11.366-17.63 7.563zm-.572-.046l-15.647-11.33 18.441-7.622-2.794 18.952zM260.474 46.11l18.304-7.564-3.211 17.149-15.093-9.585zm-14.945-7.41l18.036-7.449-3.897 14.394-14.139-6.945zm-13.522-3.836l17.487-7.226-4.816 10.696-12.666-3.476-.005.006zm-12.226-1.208l16.642-6.877-5.439 7.839-11.203-.962zm-11.106.458l15.459-6.39-5.673 5.84-9.786.55zm-10.414 1.26l14.23-5.88-5.604 4.729-8.626 1.15zm-10.495 1.402l13.842-5.72-5.604 4.615-8.232 1.1-.006.005zm-10.123 1.351l13.459-5.565-5.593 4.512-7.866 1.053zm-9.769 1.306l13.088-5.41-5.576 4.402-7.512 1.002v.006zm-9.438 1.265l12.734-5.261-5.553 4.3-7.181.961zm7.398-5.605l12.38-5.119-5.307 4.111-7.073 1.008zm-9.089 1.294l12.043-4.976-5.279 4.014-6.764.962zm-9.684 5.834l-6.564.877 12.043-4.976-5.479 4.1zm-7.615 5.692l-6.65.83 12.38-5.113-5.73 4.283zm7.181-.32l-12.957 5.353 5.999-4.483 6.958-.87zm.149.554l-6.044 4.598-7.05.813 13.094-5.41zm-14.185 10.788l-7.136.75 13.454-5.56-6.324 4.81h.006zm-8.438 6.424l-7.221.681 13.842-5.72-6.621 5.039zm-8.752 6.659l-7.29.601 14.225-5.88-6.935 5.273v.006zm-8.684 7.713l-8.124-.138 15.459-6.39-7.335 6.522v.006zm-8.152 9.602L89.2 87.609l16.642-6.876-7.278 8.6zm-7.102 12.31L80.53 97.452l17.481-7.226-6.547 11.411v.006zm-5.495 15.774l-12.889-7.46 18.03-7.45-5.141 14.91zm-4.205 18.351l-14.345-9.894 18.304-7.564-3.959 17.458zm-3.308 20.023l-15.31-11.469 18.44-7.621-3.13 19.09zm-.377.435l-17.818 7.089 2.53-18.54 15.294 11.451h-.006zm.246.521l-2.091 19.29-15.756-12.196 17.841-7.094h.006zm-3.034 38.299l-15.653-12.121 16.522-5.932-.863 18.059-.006-.006zm.937 17l-15.442-11.967 14.5-4.099.942 16.066zm3.33 14.177l-15.013-11.64 11.786-1.609 3.228 13.249zm4.994 11.881L70.17 226.95l9.672.281 4.708 10.867v.006zm5.924 10.18l-13.55-10.512 8.151 1.5 5.4 9.012zm6.319 9.219l-12.746-9.883 7.278 2.073 5.468 7.81zm6.37 9.109l-12.426-9.642 7.192 2.159 5.234 7.477v.006zm6.152 8.795l-12.117-9.402 7.107 2.239 5.01 7.163zm5.942 8.491l-11.82-9.172 7.015 2.307 4.805 6.865zm5.741 8.205l-11.528-8.949 6.924 2.37 4.604 6.579zm10.026 4.775l4.411 6.43-11.54-8.955 7.129 2.525zm9.21 3.264l4.393 6.55-11.843-9.19 7.444 2.64h.006zm9.54 3.378l4.376 6.676-12.151-9.43 7.781 2.754h-.006zm9.895 3.504l4.342 6.797-12.472-9.677 8.13 2.88zm10.266 3.636l4.302 6.923-12.803-9.935 8.501 3.012zm11.146 3.058l3.982 7.93-13.631-10.57 9.643 2.64h.006zm12.517 1.706l3.17 9.705-14.476-11.222 11.306 1.523v-.006zm14.333-.47l1.806 12.19-15.128-11.726 13.317-.464h.005zm16.516-3.458l-.034 15.379-15.573-12.069 15.607-3.316v.006zm18.082-5.754l-1.388 17.744-15.802-12.236 17.19-5.508zm19.052-7.283l-2.239 19.284-15.922-12.322 18.161-6.968v.006zm.56.108l15.139 12.082-17.378 7.18 2.233-19.262h.006zm.32-.475l17.784-7.884-2.622 19.983-15.162-12.099zm34.712-16.524l-2.6 19.839-13.471-11.606 16.071-8.233zm14.208-9.127L308.822 292l-10.849-10.885 13.403-8.668.006-.006zm10.529-9.619l-2.48 18.998-7.307-9.923 9.781-9.081.006.006zm7.678-9.785l-2.371 18.19-4.588-9.121 6.959-9.069zm5.73-9.677l-2.234 17.131-2.765-8.439 4.999-8.692zm4.69-9.505l-2.097 16.095-1.828-7.953 3.919-8.147.006.005zm4.565-9.481l-2.04 15.682-1.714-7.89 3.754-7.792zm4.399-9.139l-1.989 15.282-1.599-7.821 3.588-7.455v-.006zm4.244-8.823l-1.936 14.893-1.497-7.753 3.439-7.14h-.006zm4.102-8.52l-1.885 14.509-1.4-7.678 3.291-6.837-.006.006zm1.023-3.447l1.868-14.383 1.285 7.833-3.153 6.55zm2.936-4.786l-1.839 14.142-1.314-7.598 3.153-6.55v.006zm-4.656-5.028l1.914-14.749 1.342 8.171-3.256 6.578zm-1.777-10.157l1.966-15.122 1.394 8.52-3.365 6.602h.005zM353 163.956l2.017-15.511 1.462 8.892-3.479 6.619zm-1.902-10.902l2.068-15.906 1.519 9.281-3.587 6.619v.006zm-1.977-11.302l2.125-16.319 1.588 9.7-3.713 6.619zm-2.953-11.509l2.256-17.332 2.479 10.501-4.741 6.831h.006zm-4.828-11.95l2.394-18.345 4.279 11.308-6.673 7.037zm-7.621-12.402l2.491-19.078 7.01 11.893-9.501 7.185zm-11.306-12.688l2.56-19.53 10.62 12.196-13.174 7.334h-.006zM308.36 80.395l2.587-19.72 13.312 12.26-15.899 7.46zm-12.672-32.19l17.602-7.524-2.76 18.89-14.842-11.366zm-19.566 7.472l3.21-17.149 15.168 9.557-18.378 7.598v-.006zm-15.865-10.129l3.896-14.4 14.277 6.888-18.173 7.506v.006zm-14.894-7.432l4.816-10.701 12.889 3.384-17.705 7.311v.006zm-13.476-3.853l5.438-7.839 11.472.853-16.91 6.986zm-12.163-1.231l5.673-5.84 10.066-.665-15.739 6.505zm-11.163.48l5.604-4.729 8.895-1.265-14.499 5.995zm-10.82 1.426l5.604-4.615 8.489-1.208-14.093 5.823zm-10.426 1.374l5.598-4.511 8.107-1.151-13.705 5.663zm-10.055 1.329l5.576-4.403 7.746-1.1-13.322 5.509v-.006zm-9.706 1.277l5.553-4.306 7.404-1.054-12.957 5.354v.006zm12.608-9.768l7.29-1.094-12.597 5.205 5.307-4.111zm-14.636 5.422l5.278-4.014 6.97-1.048-12.243 5.062h-.005zm-9.027 1.265l5.245-3.928 6.667-.996-11.918 4.924h.006zm-2.102.86l-6.473.915 11.717-4.844-5.244 3.928zm-6.621.354l5.198-3.825 6.376-.956-11.574 4.787v-.006zm4.524.515l-11.911 4.919 5.439-4.002 6.472-.917zm-7.295 5.48l-12.249 5.062 5.685-4.186 6.564-.876zm-7.547 5.663l-12.603 5.21 5.948-4.38 6.655-.83zm.08.59l-5.993 4.483-6.735.778 12.728-5.262zm1.274 4.225l-13.328 5.502 6.278-4.695 7.05-.813v.006zm-8.072 6.16l-13.706 5.664 6.57-4.913 7.136-.75zm-8.375 6.397l-14.094 5.822 6.878-5.141 7.221-.681h-.005zm-8.69 6.63L99.176 78.7l7.204-5.388 7.295-.601zm-8.261 7.546l-15.739 6.505 7.61-6.636 8.124.137.005-.006zm-7.763 9.47l-16.905 6.986 7.541-8.709 9.364 1.724zm-6.856 12.259l-17.698 7.312 6.764-11.503 10.934 4.191zm-5.336 15.786l-18.172 7.507 5.284-14.973 12.888 7.461v.005zm-4.13 18.385L62.95 143.75l4.033-17.492 14.345 9.894v.005zm-21.663 27.06l-15.242-11.451 17.772-7.089-2.53 18.54zm16.184 13.244l-16.521 5.932.81-18.094 15.705 12.156.006.006zm-.948 19.003l-14.505 4.1-1.051-16.146 15.55 12.041.006.005zm.908 16.983l-11.785 1.609-3.405-13.381 15.19 11.772zm3.325 14.177l-9.672-.281-4.93-11.039 14.602 11.32zm4.993 11.875l-8.158-1.5-5.633-9.196 13.791 10.696zm6.01 10.243l-7.278-2.072-5.696-7.994 12.974 10.066zm6.559 9.408l-7.193-2.159-5.456-7.65 12.649 9.814v-.005zm6.324 9.075l-7.107-2.239-5.227-7.329 12.334 9.568zm6.101 8.754l-7.021-2.307-5.004-7.02 12.025 9.333v-.006zm5.896 8.457l-6.924-2.37-4.799-6.734 11.723 9.099v.005zm5.696 8.171l-6.833-2.422-4.605-6.453 11.438 8.875zm1.394 1.099l4.416 6.31-11.249-8.732 6.833 2.422zm4.107 6.797l-6.735-2.462-4.416-6.19 11.151 8.657v-.005zm-2.605-5.652l11.443 8.881-7.033-2.571-4.416-6.31h.006zm8.844 3.115l11.745 9.116-7.335-2.686-4.41-6.43zm9.163 3.224l12.06 9.356-7.661-2.806-4.393-6.55h-.006zm9.495 3.344l12.38 9.602-8.004-2.926-4.376-6.676zm9.849 3.469l12.711 9.86-8.363-3.063-4.342-6.797h-.006zm10.22 3.602l13.054 10.123-8.746-3.201-4.308-6.922zm10.895 2.846l13.882 10.764-9.895-2.834-3.987-7.936v.006zm12.277 1.483l14.716 11.405-11.54-1.7-3.17-9.705h-.006zm14.191-.636l15.322 11.875-13.517.321-1.805-12.196zm16.453-3.596l15.699 12.156-15.733 3.223.034-15.385v.006zm18.07-5.834l15.87 12.281-17.258 5.463 1.388-17.744zm34.414 5.29l-2.251 19.239-15.127-12.059 17.378-7.18zm3.308-20.876l13.471 11.606-16.087 8.314 2.616-19.92zm16.927-8.623l10.849 10.891-13.431 8.823 2.582-19.708v-.006zm14.203-9.069l7.306 9.923-9.82 9.321 2.514-19.244zm10.523-9.574l4.587 9.127-6.998 9.362 2.411-18.489zm7.672-9.728l2.765 8.44-5.033 9.007 2.274-17.447h-.006zm5.736-9.722l1.828 7.953-3.965 8.457 2.137-16.41zm4.725-9.779l1.713 7.895-3.793 8.091 2.08-15.981v-.005zm4.558-9.419l1.6 7.827-3.622 7.735 2.022-15.562zm4.394-9.087l1.496 7.753-3.473 7.409 1.977-15.162zm4.239-8.76l1.405 7.678-3.325 7.094 1.925-14.772h-.005zm4.09-8.457l1.314 7.598-3.188 6.796 1.874-14.394zm3.953-8.171l1.234 7.512-3.05 6.516 1.822-14.028h-.006zm.263-1.923l3.022-6.276-1.788 13.788-1.234-7.512zm-1.611-9.837l3.119-6.304-1.839 14.137-1.286-7.833h.006zm-1.668-10.175l3.222-6.321-1.885 14.492-1.337-8.165v-.006zm-1.725-10.529l3.325-6.333-1.931 14.852-1.394-8.519zm-1.788-10.902l3.444-6.339-1.982 15.231-1.462-8.892zm-1.851-11.297l3.553-6.333-2.034 15.614-1.519-9.281zm-1.92-11.709l3.673-6.316-2.085 16.009-1.588-9.693zm-2.862-12.144l4.696-6.522-2.217 17.017-2.479-10.501v.006zm-4.725-12.534l6.633-6.745-2.354 18.053-4.279-11.308zm-7.512-12.82l9.466-6.95-2.462 18.843-7.004-11.893zM325.213 73.09l13.151-7.186-2.537 19.381-10.62-12.195h.006zm-13.968-12.917l15.881-7.387-2.57 19.64-13.311-12.253zm-.149-.562l2.754-18.831 13.111 11.457-15.865 7.374zM295.5 47.66l3.136-17.102 14.402 9.602-17.544 7.5h.006zm-.583 0l-15.168-9.555 18.31-7.57-3.142 17.12v.006zm-30.25-16.901l18.036-7.455-3.759 14.343-14.277-6.888zm-13.751-3.745l17.482-7.226-4.593 10.61-12.883-3.384h-.006zm-12.511-1.088l16.642-6.877-5.17 7.73-11.466-.853h-.006zm-11.42.578l15.459-6.39-5.399 5.726-10.06.664zm-10.735 1.397l14.231-5.88-5.336 4.615-8.889 1.265h-.006zm-10.82 1.54l13.843-5.72-5.353 4.518-8.49 1.208v-.005zm-10.437 1.484l13.465-5.566-5.353 4.415-8.107 1.15h-.005zm-10.066 1.431l13.088-5.405-5.347 4.306-7.741 1.099zm-9.729 1.38l12.734-5.262-5.331 4.208-7.403 1.054zm7.118-5.491l12.385-5.119-5.096 4.025-7.289 1.094zm-9.358 1.403l12.037-4.976-5.073 3.928-6.964 1.048zm-9.061 1.357l11.718-4.838-5.051 3.841-6.667.997zm-8.763 1.31l11.386-4.7-5.011 3.745-6.375.956zm-9.541 5.618l-6.187.882 11.386-4.707-5.199 3.825zm-7.386 5.434l-6.279.841 11.711-4.838-5.432 4.002v-.005zm-7.633 5.617l-6.358.795 12.042-4.975-5.684 4.18zm-7.895 5.811l-6.444.739 12.385-5.12-5.947 4.381h.006zm6.952-.229L116.68 59.92l6.216-4.575 6.735-.779zm.018.613l-6.273 4.69-6.816.715 13.089-5.411v.006zm-14.728 11.016l-6.89.647 13.46-5.565-6.57 4.912v.006zm-8.764 6.556l-6.964.572 13.837-5.72-6.879 5.142.006.006zm-9.09 6.796l-7.026.493 14.225-5.88-7.204 5.387h.006zm-9.008 7.845l-7.85-.252 15.46-6.39-7.61 6.636v.006zm-8.444 9.722l-9.1-1.832 16.641-6.877-7.541 8.709zM72.28 109.52l-10.718-4.277 17.482-7.225-6.764 11.502zm-5.645 15.838l-12.75-7.518 18.029-7.449-5.284 14.967h.005zm-4.284 18.385l-14.265-9.923 18.304-7.563-4.034 17.486h-.005zm-.417.407l-17.716 7.065 3.462-16.982 14.254 9.911v.006zm-2.657 19.49l-16.436 5.966 1.234-17.383 15.196 11.417h.006zm.291.504l-.81 18.087-15.643-12.11 16.453-5.977zm.235 35.167l-15.43-11.955 14.379-4.186 1.05 16.141zm3.519 14.314l-14.997-11.628 11.592-1.753 3.405 13.381zm5.221 12.053l-14.368-11.142 9.438.103 4.925 11.033.005.006zm6.182 10.381l-13.54-10.501 7.907 1.311 5.633 9.19zm6.587 9.424l-12.729-9.877 7.033 1.884 5.696 7.988v.005zm6.644 9.316l-12.414-9.631 6.958 1.981 5.456 7.65zm6.41 8.995l-12.106-9.396 6.884 2.067 5.222 7.329zm6.192 8.686l-11.808-9.16 6.804 2.141 5.004 7.02zm5.982 8.394l-11.517-8.938 6.718 2.21 4.799 6.728zm5.787 8.113l-11.237-8.72 6.632 2.267 4.599 6.453h.006zm5.599 7.85l-10.963-8.508 6.547 2.319 4.416 6.189zm9.723 4.787l4.233 6.052-10.968-8.514 6.735 2.462zm8.838 3.235l4.227 6.167-11.254-8.738 7.027 2.571zm9.146 3.344l4.211 6.281-11.552-8.967 7.336 2.686h.005zm9.472 3.464l4.188 6.395-11.849-9.195 7.661 2.806v-.006zm9.815 3.59l4.159 6.51-12.163-9.436 8.004 2.926zm10.18 3.722l4.119 6.624-12.482-9.688 8.363 3.058v.006zm10.564 3.864l4.067 6.74-12.814-9.94 8.747 3.2zm11.437 3.281l3.747 7.747-13.642-10.581 9.895 2.829v.005zm12.78 1.901l2.947 9.534-14.488-11.234 11.541 1.7zm14.545-.309l1.628 12.058-15.139-11.737 13.511-.321zm16.641-3.361l-.143 15.305-15.584-12.081 15.727-3.224zm18.156-5.708l-1.44 17.715-15.819-12.247 17.259-5.463v-.005zm.56.154l15.082 12.024-16.522 5.669 1.44-17.693zm18.252-7.541l13.471 11.532-15.716 7.644 2.24-19.181.005.005zm.286-.509l16.088-8.314-2.6 19.857-13.488-11.549v.006zm30.324-17.595l-2.559 19.576-10.872-10.753 13.431-8.823zm10.563-9.866l-2.485 19.015-7.335-9.699 9.82-9.316zm7.724-10.094l-2.376 18.202-4.622-8.846 6.998-9.362v.006zm5.77-10.02l-2.234 17.143-2.799-8.142 5.033-9.001zm4.742-9.86l-2.097 16.112-1.868-7.655 3.965-8.457zm4.61-9.837l-2.045 15.694-1.748-7.609 3.793-8.085zm4.445-9.481l-1.988 15.293-1.634-7.558 3.622-7.735zm4.29-9.156l-1.936 14.904-1.537-7.501 3.473-7.409v.006zm4.142-8.84l-1.885 14.526-1.44-7.432 3.325-7.094zm4.005-8.537l-1.84 14.159-1.348-7.363 3.188-6.796zm3.867-8.257l-1.788 13.799-1.262-7.289 3.05-6.516v.006zm1.04-3.561l1.777-13.673 1.154 7.426-2.931 6.247zm2.708-4.426l-1.742 13.455-1.183-7.209 2.931-6.246h-.006zm-4.273-5.039l1.822-14.016 1.2 7.735-3.022 6.275v.006zm-1.623-9.779l1.869-14.372 1.251 8.068-3.12 6.304zm-1.679-10.118l1.914-14.738 1.308 8.411-3.222 6.321v.006zm-1.731-10.472l1.965-15.105 1.36 8.772-3.325 6.333zm-1.8-10.845l2.017-15.499 1.422 9.161-3.444 6.338h.005zm-1.856-11.239l2.068-15.889 1.485 9.562-3.553 6.333v-.006zm-1.931-11.658l2.125-16.301 1.554 9.986-3.674 6.315h-.005zm-2.908-11.863l2.256-17.315 2.44 10.793-4.696 6.522zm-4.782-12.265l2.394-18.328 4.239 11.583-6.633 6.75v-.005zm-7.581-12.648l2.497-19.067 6.975 12.11-9.472 6.951v.006zm-11.283-12.831l2.554-19.508 10.597 12.322-13.157 7.186h.006zm-10.957-32.202l15.819-7.289-2.708 18.752-13.111-11.457v-.006zm-.143-.567l3.051-16.993 12.716 9.728-15.767 7.265zm-.583.012l-14.402-9.602 17.464-7.444-3.062 17.046zm-33.883-2.159l3.759-14.343 14.414 6.831-18.179 7.512h.006zm-15.042-7.369l4.593-10.61 13.111 3.293-17.704 7.317zm-13.728-3.756l5.176-7.73 11.728.745-16.904 6.985zm-12.477-1.105l5.398-5.726 10.341-.778-15.739 6.504zm-11.512.619l5.342-4.615 9.163-1.375-14.505 5.99zm-11.157 1.568l5.353-4.517 8.746-1.311-14.099 5.828zm-10.752 1.512l5.353-4.415 8.353-1.254-13.711 5.669h.005zm-10.363 1.454l5.347-4.306 7.976-1.196-13.323 5.502zm-10.009 1.409l5.33-4.209 7.627-1.145-12.957 5.354zm12.1-9.556l7.501-1.18-12.603 5.21 5.096-4.025.006-.005zm-14.711 5.45l5.073-3.927 7.17-1.134-12.243 5.061zm-9.295 1.38l5.051-3.842 6.861-1.082-11.906 4.919-.006.005zm-8.986 1.329l5.016-3.745 6.558-1.03-11.574 4.78v-.005zm-8.701 1.288l4.976-3.664 6.279-.985-11.26 4.649h.005zm-2.171.888l-6.101.916 11.072-4.581-4.976 3.659.005.005zm-6.25.36l4.931-3.578 6.01-.945-10.941 4.523zm4.085.544l-11.248 4.65 5.153-3.734 6.095-.916zm-7.078 5.233l-11.574 4.781 5.387-3.905 6.187-.881v.005zm-7.318 5.406l-11.906 4.918 5.627-4.083 6.279-.841v.005zm-7.564 5.588l-12.249 5.061 5.885-4.265 6.358-.796h.006zm-7.827 5.783l-12.597 5.205 6.159-4.467 6.444-.738h-.006zm-.057.641l-6.216 4.575-6.512.687 12.728-5.256v-.006zm.817 4.409l-13.328 5.508 6.507-4.792 6.815-.716h.006zm-8.387 6.298L99.45 72.585l6.81-5.01 6.895-.647v-.006zm-8.695 6.528l-14.099 5.822 7.135-5.25 6.964-.573zm-9.026 6.773l-14.5 5.99 7.473-5.498 7.027-.492zm-8.61 7.69l-15.733 6.504 7.89-6.75 7.85.251-.006-.005zm-8.077 9.596l-16.905 6.985 7.804-8.817 9.1 1.832zm-7.102 12.356l-17.698 7.317 6.981-11.594 10.718 4.277zm-5.49 15.849l-18.172 7.506 5.421-15.03 12.751 7.518v.006zm-22.508 25.462l-14.163-9.928 17.625-7.049-3.462 16.977zm-.423.407l-16.293 5.983 2.176-15.883 14.117 9.9zm.297.503l-1.234 17.384-15.11-11.383 16.35-6.001h-.006zm14.876 30.576l-14.38 4.191-1.153-16.221 15.539 12.035-.006-.005zm1.029 17.068l-11.598 1.752-3.582-13.512 15.18 11.76zm3.524 14.326l-9.443-.103-5.147-11.205 14.585 11.308h.005zm5.245 12.075l-7.907-1.311-5.867-9.373 13.774 10.684zm6.29 10.461l-7.033-1.883-5.93-8.171 12.963 10.054zm6.838 9.625l-6.964-1.981-5.678-7.821 12.636 9.802h.006zm6.599 9.282l-6.885-2.067-5.438-7.49 12.322 9.557zm6.364 8.955l-6.804-2.142-5.21-7.18 12.014 9.322zm6.147 8.645l-6.724-2.21-4.993-6.882 11.717 9.092zm5.936 8.354l-6.639-2.267-4.787-6.596 11.426 8.869v-.006zm5.735 8.079l-6.547-2.319-4.593-6.327 11.14 8.646zm5.553 7.816l-6.461-2.365-4.41-6.075 10.865 8.434.006.006zm1.446 1.139l4.233 5.938-10.695-8.302 6.456 2.364h.006zm3.924 6.425l-6.37-2.4-4.233-5.828 10.598 8.228h.005zm-2.382-5.245l10.877 8.445-6.638-2.502-4.233-5.943h-.006zm8.495 3.092l11.163 8.663-6.924-2.611-4.233-6.052h-.006zm8.792 3.195l11.455 8.892-7.227-2.726-4.228-6.166zm9.101 3.309l11.757 9.127-7.547-2.846-4.21-6.281zm9.426 3.43l12.072 9.367-7.879-2.972-4.193-6.395zm9.769 3.555l12.392 9.614-8.233-3.103-4.159-6.511zm10.135 3.688l12.723 9.871-8.598-3.241-4.119-6.624-.006-.006zm10.517 3.83l13.066 10.135-8.992-3.39-4.068-6.745h-.006zm11.192 3.081l13.894 10.776-10.146-3.024-3.748-7.752zm12.546 1.695l14.727 11.417-11.78-1.878-2.947-9.539zm14.407-.476l15.334 11.887-13.705.177-1.629-12.058v-.006zm16.591-3.498l15.716 12.167-15.859 3.138.143-15.305zm33.494 6.762l-1.485 17.635-15.031-11.967 16.522-5.668h-.006zm.56.166l13.426 11.429-14.911 6.16 1.485-17.583v-.006zm.28-.51l15.711-7.643-2.245 19.106-13.466-11.463zm19.001-28.445l10.872 10.759-13.454 8.972 2.582-19.731zm14.231-9.236l7.341 9.706-9.854 9.556 2.513-19.262zm10.563-9.842l4.622 8.846-7.038 9.654 2.416-18.5zm7.718-10.066l2.8 8.142-5.079 9.316 2.279-17.464v.006zm5.782-10.094l1.868 7.661-4.005 8.766 2.137-16.422v-.005zm4.776-10.152l1.748 7.615-3.833 8.383 2.085-15.992v-.006zm4.605-9.774l1.633 7.558-3.662 8.016 2.029-15.574zm4.433-9.43l1.536 7.501-3.513 7.678 1.977-15.179zm4.284-9.092l1.44 7.437-3.359 7.358 1.919-14.79v-.005zm4.137-8.778l1.348 7.363-3.217 7.043 1.869-14.412v.006zm3.993-8.48l1.262 7.289-3.085 6.751 1.823-14.04zm3.862-8.199l1.182 7.209-2.959 6.475 1.777-13.684zm3.736-7.924l1.108 7.128-2.839 6.207 1.731-13.335zm.269-1.981l2.805-5.99-1.697 13.118-1.108-7.123v-.005zm-1.474-9.488l2.896-6.018-1.742 13.439-1.154-7.421zm-1.52-9.802l2.988-6.041-1.788 13.77-1.2-7.735v.006zm-1.571-10.135l3.085-6.058-1.834 14.12-1.251-8.062zm-1.628-10.478l3.188-6.064-1.88 14.475-1.308-8.411zm-1.68-10.844l3.291-6.064-1.931 14.835-1.36-8.771zm-1.748-11.229l3.405-6.057-1.977 15.213-1.422-9.156h-.006zm-1.805-11.634l3.519-6.041-2.034 15.597-1.485-9.556zm-1.874-12.059l3.633-6.006-2.085 15.992-1.548-9.98v-.006zm-2.811-12.482l4.656-6.212-2.216 17-2.44-10.793v.005zm-4.679-12.837l6.593-6.458-2.354 18.036-4.239-11.578zm-7.478-13.06l9.432-6.716-2.456 18.826-6.976-12.11zm-11.174-13.072l13.122-7.042-2.525 19.358-10.597-12.322v.006zm-.086-.601l2.691-18.626 10.414 11.589-13.111 7.031.006.006zM317.42 22.285l14.402-5.555-1.742 15.237-12.66-9.682zm-18.595 7.288l3.616-14.262 13.722 6.87-17.338 7.392zm-.612.08l-14.413-6.83 18.03-7.45-3.617 14.28zM269.82 19.175l17.482-7.22-4.376 10.513-13.106-3.293zm-12.785-.973l16.636-6.877-4.908 7.616-11.728-.745v.006zm-11.723.704l15.459-6.39-5.119 5.612-10.34.778zm-11.054 1.523l14.23-5.88-5.067 4.506-9.163 1.374zm-11.141 1.672l13.837-5.714-5.096 4.403-8.741 1.311zm-10.751 1.615l13.459-5.56-5.107 4.306-8.347 1.254h-.005zm-10.369 1.557l13.082-5.405-5.113 4.209-7.975 1.196h.006zm-10.021 1.506l12.734-5.262-5.107 4.123-7.627 1.145v-.006zm7.581-5.49l11.078-3.871-4.308 2.805-6.77 1.065zm-9.626 1.516l10.712-3.744-4.279 2.731-6.439 1.013h.006zm-9.323 1.472l10.374-3.624-4.244 2.662-6.13.968v-.006zm-9.021 1.42l10.038-3.51-4.205 2.594-5.833.916zm-8.735 1.374l9.706-3.39-4.153 2.52-5.553.87zm-8.455 1.328l9.369-3.275-4.096 2.445-5.273.83zm-10.163 5.554l-4.628 1.157 8.958-4.3-4.336 3.143h.006zm-7.17 5.194l-4.708 1.145 9.261-4.443-4.553 3.298zm-7.404 5.365l-4.793 1.133 9.575-4.597-4.782 3.464zm-7.65 5.542l-4.873 1.111 9.906-4.752-5.027 3.647-.006-.006zm-7.906 5.732l-4.953 1.082 10.237-4.913-5.284 3.83zm-8.175 5.926l-5.022 1.053 10.58-5.078-5.558 4.025zm6.741-.143l-12.951 5.353 6.438-4.666 6.513-.687zm-.12.67l-6.507 4.792-6.587.618 13.088-5.41h.006zm-15.27 11.24l-6.65.549 13.453-5.56-6.81 5.01h.006zm-9.084 6.687l-6.707.47 13.842-5.72-7.13 5.25h-.005zm-9.427 6.94l-6.758.383 14.225-5.88-7.467 5.496zm-9.334 7.98l-7.57-.365 15.453-6.385-7.883 6.75zM60.7 104.93l-8.833-1.941 16.636-6.876-7.803 8.817zm-7.57 12.505l-10.495-4.368 17.476-7.22-6.981 11.588zm-5.793 15.895l-12.608-7.575 18.03-7.449-5.422 15.024zm-.491.372l-17.499 6.997 4.902-14.566 12.597 7.569zm-20.487 23.773l-11.951-9.579 14.117-6.229-2.166 15.808zm15.54 12.442l-14.243 4.272-.771-15.574 15.013 11.308v-.006zm.365.487l1.154 16.215-15.413-11.944 14.259-4.277v.006zm4.856 30.673l-14.985-11.618 11.403-1.895 3.582 13.507v.006zm5.456 12.23l-14.351-11.131 9.21-.069 5.146 11.2h-.005zm6.438 10.575l-13.528-10.489 7.661 1.122 5.867 9.373v-.006zm6.856 9.631l-12.717-9.866 6.793 1.701 5.924 8.165zm6.912 9.522l-12.402-9.619 6.73 1.803 5.672 7.816zm6.673 9.195l-12.094-9.384 6.661 1.895 5.433 7.489zm6.444 8.881l-11.797-9.156 6.587 1.981 5.21 7.175zm6.227 8.583l-11.505-8.932 6.518 2.049 4.993 6.877-.006.006zm6.022 8.296l-11.226-8.714 6.438 2.118 4.788 6.596zm5.827 8.028l-10.952-8.503 6.359 2.176 4.593 6.327zm5.638 7.769L98.93 285.49l6.279 2.221 4.404 6.075zm5.462 7.524l-10.426-8.096 6.193 2.267 4.227 5.829h.006zm9.449 4.792l4.068 5.703-10.432-8.102 6.37 2.399h-.006zm8.495 3.201l4.062 5.806-10.7-8.308 6.638 2.502zm8.781 3.31l4.056 5.914-10.98-8.525 6.924 2.611zm9.083 3.424l4.039 6.023-11.265-8.743 7.226 2.725v-.005zm9.404 3.544l4.016 6.126-11.557-8.972 7.541 2.84v.006zm9.74 3.67l3.988 6.235-11.86-9.207 7.878 2.966-.006.006zm10.089 3.802l3.948 6.344-12.174-9.447 8.226 3.103zm10.466 3.945l3.897 6.453-12.495-9.694 8.598 3.241zm10.861 4.094l3.833 6.561-12.826-9.951 8.993 3.39zm11.722 3.504l3.508 7.564-13.654-10.587 10.141 3.023h.005zm13.043 2.101l2.731 9.368-14.505-11.246 11.774 1.878zm14.745-.154l1.451 11.921-15.151-11.75 13.7-.177v.006zm16.779-3.27l-.252 15.225-15.607-12.087 15.853-3.138h.006zm.565.235l14.934 11.887-15.185 3.321.251-15.208zm31.004 5.978l-2.291 15.528-12.557-9.396 14.848-6.132zm2.942-20.006l10.884 10.61-13.112 8.371 2.228-18.981zm.235-.567l13.454-8.972-2.56 19.593-10.894-10.621zm24.051-19.084l-2.485 19.033-7.37-9.482 9.855-9.556v.005zm7.764-10.403l-2.377 18.219-4.662-8.566 7.039-9.653zm5.821-10.364l-2.233 17.16-2.846-7.844 5.079-9.316zm4.788-10.214l-2.103 16.129-1.902-7.363 4.005-8.761v-.005zm4.661-10.192l-2.045 15.711-1.788-7.329 3.833-8.382zm4.491-9.831l-1.988 15.305-1.674-7.289 3.662-8.016zm4.336-9.488l-1.937 14.921-1.571-7.243 3.514-7.678h-.006zm4.187-9.155l-1.891 14.537-1.468-7.185 3.359-7.352zm4.045-8.846l-1.839 14.171-1.377-7.129 3.216-7.042zm3.908-8.555l-1.794 13.811-1.291-7.06 3.085-6.751zm3.782-8.273l-1.748 13.467-1.212-6.992 2.96-6.47v-.005zm3.662-8.005l-1.703 13.129-1.137-6.917 2.84-6.206v-.006zm1.051-3.676l1.685-12.997 1.04 7.042-2.719 5.955h-.006zm2.491-4.077l-1.657 12.797-1.063-6.842 2.72-5.955zm-3.931-5.061l1.731-13.324 1.08 7.335-2.805 5.989h-.006zm-1.479-9.43l1.771-13.662 1.125 7.638-2.896 6.018v.006zm-1.532-9.751l1.817-14 1.171 7.959-2.988 6.041zm-1.582-10.077l1.862-14.355 1.223 8.297-3.085 6.058zm-1.64-10.421l1.914-14.721 1.274 8.657-3.188 6.064zm-1.691-10.788l1.96-15.093 1.331 9.03-3.291 6.069v-.006zm-1.753-11.17l2.016-15.483 1.388 9.419-3.404 6.058v.006zm-1.817-11.578l2.068-15.877 1.451 9.837-3.519 6.04zm-1.88-12.007l2.125-16.284 1.514 10.272-3.633 6.012h-.006zm-2.856-12.218l2.256-17.298 2.4 11.085-4.656 6.213zm-4.736-12.585l2.388-18.311 4.199 11.846-6.593 6.465h.006zm-7.547-12.895l2.485-19.05 6.947 12.328-9.432 6.717v.005zm-8.289-32.161l11.848-5.835-1.474 17.378-10.374-11.543zm-.12-.578l1.731-15.128 10.072 9.316-11.798 5.806-.005.006zm-13.42-10.272l2.765-12.694 11.523 7.186-14.288 5.508zm-.594.04l-13.665-6.842 16.441-5.904-2.776 12.746zm-33.015.498l4.376-10.518 13.323 3.206-17.699 7.312zm-13.979-3.647l4.907-7.621 11.997.635-16.91 6.986h.006zm-12.792-.974l5.119-5.61 10.615-.894-15.734 6.504zm-11.854.762l5.073-4.506 9.427-1.483-14.5 5.989zm-11.494 1.706l5.096-4.403 8.998-1.42-14.094 5.823zm-11.077 1.643l5.107-4.305 8.592-1.352-13.699 5.663v-.006zm-10.684 1.586l5.113-4.208 8.21-1.294-13.323 5.502zm-10.306 1.535l5.113-4.123 7.85-1.23-12.957 5.353h-.006zm11.438-8.25l6.964-1.135-11.272 3.94 4.308-2.806zM198.7 21.001l4.279-2.731 6.622-1.077-10.901 3.808zm-9.546 1.489l4.245-2.663 6.301-1.025-10.546 3.688zm-9.232 1.437l4.205-2.594 5.998-.973-10.209 3.567h.006zm-8.929 1.385l4.153-2.519 5.702-.928-9.855 3.447zm-8.649 1.34l4.096-2.445 5.421-.881-9.517 3.326zm-8.381 1.306l4.039-2.377 5.158-.841-9.197 3.212v.006zm-2.771.967l-3.411.876 6.444-2.662-3.039 1.786h.006zm-2.645 1.271l-8.781 4.214 4.251-3.046 4.53-1.168zm-6.861 4.999l-9.095 4.363 4.473-3.206 4.622-1.157zm-7.084 5.153l-9.421 4.523 4.708-3.378 4.713-1.145zm-7.33 5.33l-9.723 4.667 4.936-3.538 4.787-1.128zm-7.558 5.503l-10.072 4.838 5.193-3.727 4.879-1.11zm-7.827 5.691l-10.409 5 5.456-3.912 4.953-1.082v-.005zm-8.089 5.887l-10.77 5.17 5.742-4.117 5.028-1.053zm-.492.87l-5.838 4.231-5.09 1.014L103.3 63.63h.005zm.972 4.157l-13.329 5.508 6.742-4.89 6.587-.618zm-8.701 6.424l-13.7 5.657 7.05-5.107 6.65-.55zm-9.015 6.659l-14.1 5.823 7.387-5.36 6.713-.469v.006zm-9.364 6.91l-14.493 5.99 7.735-5.605 6.758-.384zm-8.957 7.834l-15.734 6.504 8.164-6.865 7.57.366v-.005zm-8.393 9.728l-16.904 6.985 8.066-8.926 8.838 1.941zM52.496 117.8l-17.699 7.312 7.199-11.687 10.5 4.369v.006zm-23.772 22.966l-10.934-7.083 15.813-7.426-4.879 14.509zm-.445.395l-14.008 6.184 3.12-13.233 10.888 7.055v-.006zm-2.291 16.759l-12.448 4.208.582-13.718 11.86 9.51h.006zm.32.498l.771 15.511-13.27-11.285 12.499-4.226zm16.75 28.657l-11.409 1.896-3.753-13.645 15.162 11.749zm3.725 14.475l-9.21.069-5.364-11.366 14.574 11.297zm5.502 12.27l-7.661-1.122-6.102-9.551 13.763 10.673zm6.575 10.68l-6.793-1.701-6.158-8.342L58.86 224.5zm7.118 9.836l-6.73-1.803-5.895-7.988 12.625 9.791zm6.867 9.488l-6.661-1.895-5.65-7.656 12.311 9.551zm6.627 9.155l-6.593-1.981-5.41-7.334 12.003 9.31v.005zm6.399 8.841l-6.519-2.056-5.187-7.031 11.706 9.081v.006zm6.181 8.543l-6.439-2.119-4.975-6.739 11.414 8.858zm5.976 8.262l-6.359-2.176-4.77-6.464 11.129 8.64zm5.775 7.987l-6.278-2.221-4.582-6.207 10.855 8.428h.005zm5.593 7.736l-6.192-2.268-4.394-5.955 10.592 8.223h-.006zm5.416 7.489l-6.107-2.302-4.222-5.72 10.329 8.022zm1.491 1.174l4.062 5.594-10.169-7.896 6.107 2.302zm3.754 6.08l-6.022-2.33-4.05-5.491 10.077 7.827-.005-.006zm-2.166-4.861l10.341 8.028-6.279-2.434-4.062-5.594zm8.176 3.063l10.608 8.234-6.541-2.536-4.067-5.703v.005zm8.449 3.167l10.883 8.451-6.821-2.64-4.062-5.806v-.005zm8.735 3.275l11.169 8.669-7.119-2.754-4.056-5.915h.006zm9.038 3.389l11.466 8.898-7.427-2.874-4.039-6.024zm9.358 3.51l11.768 9.133-7.752-3-4.016-6.133zm9.694 3.636l12.077 9.373-8.095-3.132-3.987-6.235.005-.006zm10.049 3.768l12.403 9.619-8.455-3.275-3.948-6.344zm10.421 3.91l12.734 9.877-8.838-3.424-3.896-6.453zm10.814 4.06l13.077 10.14-9.238-3.578-3.833-6.562h-.006zm11.495 3.309l13.91 10.782-10.397-3.218-3.513-7.569v.005zm12.825 1.901l14.739 11.429-12.008-2.061-2.731-9.368zm14.619-.309l15.357 11.892-13.906.029-1.451-11.927v.006zm32.01 9.012l-.657 13.507-14.465-10.203 15.122-3.309v.005zm.565.195l12.466 9.327-13.117 4.128.651-13.455zm15.722-6.493l9.941 9.081-12.215 6.333 2.274-15.414zm.263-.532l13.06-8.337-3.085 17.452-9.981-9.115h.006zm16.367-28.995l7.37 9.481-9.889 9.797 2.519-19.278zm10.598-10.112l4.662 8.571-7.079 9.946 2.417-18.517zm7.764-10.409l2.845 7.85-5.125 9.63 2.28-17.48zm5.833-10.473l1.908 7.364-4.045 9.069 2.137-16.438v.005zm4.827-10.518l1.788 7.335-3.873 8.674 2.085-16.009zm4.65-10.134l1.674 7.288-3.702 8.303 2.028-15.591zm4.485-9.774l1.571 7.243-3.548 7.947 1.977-15.196v.006zm4.33-9.425l1.468 7.186-3.393 7.61 1.925-14.796zm4.176-9.104l1.377 7.129-3.25 7.294 1.873-14.423zm4.034-8.789l1.291 7.066-3.119 6.991 1.828-14.057zm3.902-8.491l1.211 6.991-2.988 6.699 1.777-13.69zm3.776-8.216l1.137 6.922-2.868 6.43 1.731-13.346v-.006zm3.65-7.948l1.063 6.843-2.748 6.161 1.685-13.004zm3.537-7.695l.994 6.762-2.64 5.915 1.646-12.677zm.274-2.055l1.742-5.005-.822 11.251-.92-6.246zm-1.354-9.167l1.811-5.045-.846 11.572-.965-6.527zm-1.388-9.459l1.873-5.073-.868 11.892-1.005-6.819zm-1.44-9.768l1.948-5.108-.897 12.236-1.051-7.128zm-1.48-10.089l2.017-5.124-.925 12.568-1.097-7.45.005.006zm-1.536-10.426l2.091-5.136-.949 12.917-1.142-7.787v.006zm-1.589-10.782l2.171-5.136-.977 13.278-1.199-8.142h.005zm-1.645-11.159l2.257-5.136-1 13.65-1.251-8.514h-.006zm-1.697-11.555l2.343-5.119-1.034 14.028-1.309-8.909zm-1.765-11.972l2.434-5.096-1.057 14.417-1.377-9.321zm-1.828-12.408l2.531-5.056-1.091 14.818-1.434-9.762h-.006zm-2.771-12.814l3.519-5.337-1.188 16.113-2.331-10.776zm-4.639-13.13l5.428-5.668-1.28 17.366-4.148-11.697zm-7.449-13.289l8.249-5.989-1.348 18.248-6.907-12.253.006-.006zm-.035-.681l1.446-17.051 6.787 11.073-8.238 5.978h.005zm-9.003-27.804l9.226-3.046.686 12.219-9.912-9.173zm-.234-.527l.742-9.407 8.375 6.401-9.117 3.012v-.006zm-.566-.086L320.562 8.76l12.094-2.439-.748 9.516zm-29.141-1.402l3.976-9.185 12.117 3.407-16.093 5.777zm-.692.16l-13.236-3.184 17.218-6.017-3.982 9.2zm-26.21-4.054l16.253-5.68-4.433 6.304-11.82-.624zm-11.809.79l14.745-5.153-4.53 4.294-10.215.86zM253.024 12.9l13.014-4.546-4.319 3.178-8.695 1.368zm-11.465 1.81l12.602-4.404-4.336 3.104-8.266 1.305v-.006zm-11.061 1.74l12.203-4.266-4.342 3.03-7.861 1.236zm-10.677 1.683L231.641 14l-4.342 2.955-7.484 1.18h.006zm-10.312 1.62l11.449-3.996-4.331 2.88-7.118 1.117zm-61.848 9.494l2.942-1.718 3.291-.859-6.238 2.577h.005zM95.4 68.875L84.288 74.21l6.027-4.317L95.4 68.88v-.005zm-.566.904l-6.141 4.455-5.153.968 11.294-5.423zM79.615 80.807l-5.199.922 11.649-5.588-6.45 4.672v-.006zm-9.41 6.825l-5.25.859 12.038-5.783-6.787 4.918v.006zm-9.762 7.077l-5.29.79 12.425-5.96-7.136 5.17zm-9.661 8.119l-6.227.149 14.082-6.762-7.855 6.607v.006zm-9.026 9.963l-7.57-1.346 15.516-7.449-7.946 8.789v.006zm-7.804 12.596l-9.29-3.716 16.442-7.895-7.152 11.606v.005zm-.6.378l-15.476 7.266 6.198-10.976 9.272 3.71h.006zm-19.675 21.569l-7.221-6.218 10.288-6.808-3.067 13.026zm-.343.458l-8.58 4.306 1.439-10.455 7.14 6.149zm.206.538l-.577 13.507-8.107-9.149 8.684-4.358zm13.174 26.081L16.67 175.98l-2.976-12.643 13.02 11.074zm.45.51l3.731 13.564-13.79-11.99 10.06-1.574zm9.37 25.903l-13.122-11.406 7.826.189 5.296 11.222v-.005zm6.593 10.65l-12.175-10.587 6.245 1.305 5.93 9.282zm6.98 9.682l-11.185-9.728 5.336 1.803 5.85 7.925zm7.182 9.733l-10.883-9.464 5.296 1.895 5.587 7.569zm6.93 9.391l-10.586-9.213 5.25 1.975 5.336 7.232v.006zm6.695 9.069l-10.3-8.961 5.199 2.05 5.101 6.917v-.006zm6.467 8.766l-10.02-8.72 5.147 2.113 4.879 6.607h-.006zm6.256 8.474l-9.752-8.485 5.084 2.164 4.668 6.321zm6.05 8.2l-9.484-8.257 5.022 2.21 4.462 6.047zm5.856 7.935l-9.227-8.027 4.959 2.244 4.268 5.783zm5.672 7.69l-8.975-7.81 4.89 2.273 4.085 5.537zm5.496 7.449l-8.729-7.598 4.816 2.302 3.908 5.296h.005zm5.33 7.22l-8.489-7.386 4.742 2.319 3.742 5.073.005-.006zm9.53 5.234l3.719 4.265-9.318-6.435 5.593 2.164.006.006zm8.175 3.166l3.736 4.351-9.586-6.618 5.85 2.267zm8.443 3.269l3.748 4.443-9.86-6.807 6.112 2.37v-.006zm8.724 3.378l3.753 4.53-10.146-7.009 6.393 2.479zm9.021 3.493l3.753 4.615-10.437-7.209 6.689 2.588-.005.006zm9.329 3.613l3.742 4.701-10.741-7.415 6.999 2.708v.006zm9.66 3.739l3.725 4.787-11.049-7.627 7.324 2.834v.006zm10.004 3.876l3.696 4.873-11.363-7.844 7.667 2.971zm10.369 4.014l3.661 4.958-11.688-8.067 8.027 3.109zm10.751 4.163l3.616 5.044-12.025-8.297 8.409 3.258v-.005zm11.157 4.323l3.56 5.124-12.375-8.537 8.815 3.413zm12.015 3.721l3.319 6.15-13.448-9.282 10.129 3.132zm13.294 2.296l2.622 7.965-14.488-9.997 11.866 2.032zm14.956 0l1.417 10.541-15.237-10.506 13.826-.029-.006-.006zm.623.327l14.196 10.008-12.785.51-1.411-10.518zm28.73 6.258l-1.783 9.802-11.14-5.731 12.923-4.065v-.006zm.565.074l8.073 5.629-9.838 4.065 1.765-9.694zm.349-.452l12.031-6.241-3.867 11.932-8.164-5.691zm15.973-24.729l6.41 8.462-9.432 8.669 3.028-17.131h-.006zm.212-.67l9.837-9.74-3.416 18.219-6.421-8.474v-.005zm17.612-20.39l-3.244 17.326-3.748-7.5 6.992-9.831v.005zm5.822-10.575l-3.016 16.089-1.977-6.71 4.993-9.385v.006zm4.776-10.398l-2.771 14.801-1.085-6.149 3.856-8.652zm4.707-10.552l-2.696 14.394-.988-6.138 3.684-8.262v.006zm4.536-10.175l-2.622 13.988-.897-6.109 3.514-7.885.005.006zm4.382-9.82l-2.548 13.605-.811-6.075 3.359-7.53zm4.228-9.476l-2.474 13.221-.731-6.029 3.205-7.192zm4.084-9.161l-2.405 12.86-.662-5.983 3.067-6.877zm3.954-8.852l-2.343 12.499-.594-5.926 2.931-6.573h.006zm3.816-8.56l-2.268 12.145-.531-5.864 2.799-6.281zm3.702-8.291l-2.211 11.813-.474-5.806 2.685-6.012v.005zm3.576-8.021l-2.142 11.48-.417-5.732 2.559-5.748zm3.468-7.776l-2.085 11.16-.372-5.663 2.457-5.497zm3.022-6.31l.246 4.781-1.423 4.289 1.177-9.07zm-1.731 8.91l-.28-4.884 1.48-4.363-1.2 9.252v-.005zm-.12-7.14l.811-11.108.869 6.149-1.68 4.959zm-1.314-8.812l.834-11.429.909 6.425-1.743 5.004zm-1.354-9.093l.863-11.749.948 6.711-1.811 5.044v-.006zm-1.394-9.39l.886-12.081.988 7.008-1.874 5.073zm-1.445-9.693l.914-12.431 1.034 7.323-1.948 5.108zm-1.485-10.02l.936-12.78 1.08 7.655-2.016 5.125zm-1.537-10.358l.965-13.135 1.131 7.999-2.091 5.136h-.005zm-1.594-10.713l.988-13.501 1.183 8.365-2.171 5.142v-.006zm-1.651-11.091l1.022-13.879 1.234 8.749-2.256 5.136v-.006zm-1.703-11.486l1.052-14.274 1.291 9.156-2.343 5.118zm-1.771-11.903l1.086-14.675 1.348 9.579-2.434 5.096zm-1.833-12.34l1.114-15.087 1.416 10.032-2.53 5.056zm-2.806-12.481l1.212-16.393 2.313 11.056-3.519 5.342-.006-.005zm-4.684-12.843l1.302-17.624 4.131 11.961-5.427 5.669-.006-.006zM343.3 26.373l5.867-4.243.788 15.093-6.655-10.856v.006zm-.126-.613l-.668-11.92 6.507 7.7-5.833 4.22h-.006zm-9.169-19.359l5.398.813 2.08 4.902-7.478-5.715zm-13.74 1.815l2.885-6.435 8.878 4.06-11.763 2.37v.005zm-.645.046l-11.866-3.338 14.762-3.126-2.896 6.464zm-31.067 2.611l4.433-6.31 12.077.539-16.51 5.771zm-13.008-.859l4.53-4.294 10.483-.95-15.013 5.25v-.006zm-12.026.865l4.319-3.178 8.935-1.454-13.254 4.632zm-11.814 1.844l4.336-3.104 8.501-1.38-12.837 4.483zm-11.38 1.774l4.347-3.028 8.084-1.317-12.431 4.346zM229.35 16.21l4.342-2.954 7.695-1.254-12.037 4.208zm-10.586 1.65l4.33-2.88 7.319-1.191-11.649 4.07zM86.71 75.15l-11.494 5.514 6.341-4.546 5.153-.968zm-8.997 6.539l-11.866 5.703 6.661-4.781 5.205-.922zm-9.33 6.785l-12.254 5.88 7.004-5.021 5.25-.86zm-9.677 7.037l-12.66 6.075 7.37-5.285 5.29-.79zm-9.152 7.884l-14.334 6.882 8.107-6.733 6.227-.149zm-8.627 9.797l-15.767 7.569 8.192-8.909 7.575 1.345v-.005zm-23.88 20.091l-6.598-2.542 12.665-8.205-6.072 10.747h.005zm-.491.424l-10.003 6.619 3.445-9.15 6.564 2.531h-.006zm-11.02 8.411l-1.286 9.333-1.97-4.947 3.256-4.392v.006zm-3.33 3.527l-.19-4.586 3.411.24-3.222 4.346zm10.437 16.679l-7.096 1.128-.811-10.054 7.907 8.926zm.342.527l2.92 12.396L5.85 163.984l7.135-1.133zm17.636 26.132l-7.826-.189-5.496-11.394 13.322 11.577v.006zm5.725 12.413l-6.245-1.305-6.141-9.465 12.386 10.77zm6.798 10.822l-5.336-1.804-6.05-8.102 11.392 9.906h-.006zm7.392 10.043l-5.296-1.895-5.781-7.742 11.077 9.637zm7.13 9.682l-5.25-1.975-5.524-7.392 10.774 9.373v-.006zm6.878 9.344l-5.198-2.049-5.28-7.066 10.478 9.115zm6.639 9.024l-5.148-2.113-5.05-6.756 10.192 8.869h.006zm6.415 8.72l-5.084-2.164-4.828-6.464 9.912 8.623v.005zm6.204 8.429l-5.021-2.211-4.616-6.183 9.643 8.388-.006.006zm6 8.153l-4.96-2.244-4.416-5.915 9.375 8.159zm5.803 7.89l-4.89-2.273-4.227-5.657 9.117 7.936v-.006zm5.622 7.644l-4.816-2.302-4.045-5.416 8.867 7.712-.006.006zm5.444 7.403l-4.747-2.319-3.874-5.181 8.616 7.5h.005zm5.273 7.175l-4.667-2.331-3.708-4.964 8.375 7.295zm3.657 2.834l9.197 6.35-5.495-2.17-3.702-4.18zm7.861 3.029l9.466 6.538-5.747-2.267-3.719-4.266v-.005zm8.118 3.126l9.746 6.728-6.005-2.371-3.736-4.357h-.005zm8.386 3.229l10.026 6.923-6.278-2.48-3.748-4.443zm8.667 3.338l10.323 7.123-6.57-2.594-3.753-4.529zm8.963 3.453l10.62 7.329-6.867-2.714-3.753-4.615zm9.272 3.573l10.929 7.541-7.187-2.84-3.742-4.701zm9.604 3.699l11.243 7.758-7.519-2.972-3.724-4.786zm9.946 3.836l11.574 7.987-7.872-3.109-3.702-4.872v-.006zm10.311 3.973l11.906 8.217-8.244-3.258-3.662-4.959zm10.695 4.123l12.254 8.457-8.632-3.413-3.616-5.044h-.006zm11.1 4.283l12.614 8.703-9.049-3.579-3.559-5.124h-.006zm11.712 3.504l13.699 9.447-10.374-3.303-3.32-6.15-.005.006zm13.036 2.09L258 363.972l-12.105-2.193-2.623-7.964zm29.628 10.421l1.085 7.569-13.637-7.071 12.552-.498zm.605.212l10.877 5.599-9.797 1.93-1.08-7.529zm21.692 1.918l-3.353 4.454-5.519-.784 8.872-3.665v-.005zm5.164-13.015l4.536 6.104-8.317 5.554 3.776-11.652.005-.006zm.28-.578l9.261-8.509-4.702 14.647-4.559-6.133v-.005zm13.688-28.314l3.748 7.501-7.05 10.111 3.302-17.612zm7.787-10.696l1.977 6.711-5.05 9.676 3.073-16.387zm5.856-10.758l1.085 6.155-3.913 8.938 2.828-15.087v-.006zm4.867-10.885l.989 6.138-3.737 8.532 2.748-14.67zm4.696-10.478l.897 6.11-3.565 8.142 2.668-14.252zm4.525-10.106l.811 6.075-3.41 7.782 2.593-13.857h.006zm4.37-9.745l.732 6.029-3.251 7.427 2.519-13.456zm4.211-9.413l.662 5.983-3.113 7.1 2.451-13.083zm4.073-9.087l.594 5.926-2.971 6.785 2.377-12.716v.005zm3.936-8.783l.531 5.869-2.839 6.487 2.314-12.356h-.006zm3.805-8.491l.474 5.806-2.719 6.206 2.245-12.006v-.006zm3.685-8.217l.417 5.738-2.6 5.937 2.183-11.669v-.006zm3.565-7.953l.371 5.663-2.491 5.68 2.12-11.343zm3.456-7.701l.32 5.583-2.377 5.428 2.057-11.011zm1.605-18.373l.16-1.856.217 4.535-.377-2.679zm-1.291-9.133l.183-1.97.24 4.936-.417-2.966h-.006zm-1.331-9.419l.2-2.067.257 5.297-.457-3.235v.005zm-1.371-9.716l.223-2.159.274 5.68-.497-3.521zm-1.417-10.037l.252-2.262.297 6.115-.543-3.853h-.006zm-1.462-10.37l.274-2.347.314 6.538-.594-4.191h.006zm-1.514-10.713l.303-2.416.337 6.945-.64-4.523v-.006zm-1.566-11.079l.332-2.485.36 7.381-.692-4.896zm-1.616-11.463l.365-2.536.377 7.804-.742-5.268zm-1.68-11.87l.406-2.599.4 8.291-.806-5.697v.006zm-1.737-12.298l.44-2.622.423 8.731-.863-6.103v-.006zm-1.805-12.751l.486-2.657.445 9.236-.931-6.58zm-2.742-13.14l1.36-3.676.639 13.22-1.993-9.545h-.006zm-4.616-13.41l3.182-4.329.754 15.734-3.936-11.405zm-.074-.865l-.743-14.205 3.919 9.882-3.182 4.323h.006zm-7.998-24.523l2.245-2.731 3.77 9.854-6.015-7.123zm-.292-.544l-2.068-4.878 4.256 2.221-2.182 2.657h-.006zm-8.746-6.705l2.256-2.582 3.091 3.39-5.347-.802v-.006zm-.634-.143l-8.158-3.733 10.466 1.088-2.303 2.64-.005.005zm-25.463-1.185l3.674-3.796 10.003.899-13.671 2.897h-.006zm-.971.183l-11.397-.504L310.108.802l-3.668 3.796v-.006zm-21.932.149l11.397-2.49-3.153 1.74-8.244.75zm-6.307.698l2.4-.52-.72.251-1.68.275V5.44zm-11.826 1.924l1.863-.406-.583.2-1.274.206h-.006zm-11.34 1.844l1.229-.27-.4.133-.829.137zm-10.986 1.786l.669-.143-.223.075-.44.074-.006-.006zm-10.597 1.724l.097-.023-.034.011-.063.012zM81.392 75.579l-.017.012h-.012l.029-.012zm-9.067 6.5l-.2.102.549-.35-.349.247zM62.95 88.8l-.382.19 1.074-.688-.692.498zm-9.717 6.968l-.526.258 1.526-.973-1 .715zM43.15 103l-.68.326 2.056-1.311-1.37.985h-.006zm-9.964 8.268l-3.456.99 9.838-6.286-6.387 5.296h.005zm-9.295 10.094l-5.267-.103 12.997-8.308-7.73 8.411zm-.817.556l-11.728 7.598 6.461-7.701 5.267.103zM5.85 140.738l-3.485-.246 6.65-8.165-3.165 8.405v.006zM2.057 147.3l1.96 4.918-3.411-.343 1.45-4.575zm2.136 5.514l.749 9.292-4.256-9.647 3.507.349v.006zm11.58 23.04l-5.284-.825-4.176-9.768 9.46 10.593zm.555.664l5.238 10.867-10.529-11.686 5.285.825.006-.006zm11.465 20.933l-8.832-9.808 3.536 1.649 5.296 8.165v-.006zm5.942 8.36l-6.119-6.797 2.183 1.529 3.936 5.268zm7.432 9.945l-5.804-6.441 2.136 1.54 3.662 4.901h.006zm7.17 9.597l-5.49-6.098 2.085 1.54 3.405 4.558zm6.924 9.27l-5.187-5.76 2.028 1.534 3.159 4.226zm6.695 8.96l-4.89-5.433 1.965 1.511 2.925 3.917v.005zm6.473 8.663l-4.599-5.107 1.891 1.489 2.708 3.624v-.006zm6.261 8.383l-4.307-4.787 1.817 1.449 2.49 3.338zm6.062 8.113l-4.033-4.477 1.736 1.408 2.297 3.069zm5.873 7.862l-3.76-4.174 1.652 1.357 2.102 2.817h.006zm5.69 7.615l-3.485-3.871 1.565 1.306 1.92 2.57v-.005zm5.513 7.38l-3.222-3.578 1.474 1.242 1.748 2.336zm5.347 7.157l-2.959-3.286 1.377 1.174 1.576 2.112h.006zm23.771 17.573l1.943 1.385-4.788-2.508 2.845 1.123zm8.136 3.212l2.028 1.46-5.119-2.68 3.091 1.22zm8.392 3.315l2.114 1.54-5.468-2.863 3.354 1.323zm8.672 3.424l2.194 1.615-5.816-3.047 3.628 1.432h-.006zm8.958 3.538l2.268 1.689-6.182-3.235 3.914 1.546zm9.26 3.659l2.331 1.764-6.547-3.43 4.216 1.666zm9.581 3.785l2.388 1.832-6.924-3.624 4.536 1.792zm9.918 3.922l2.433 1.901-7.301-3.825 4.868 1.924zm10.271 4.059l2.48 1.97-7.696-4.031 5.222 2.061h-.006zm10.649 4.209l2.508 2.033-8.101-4.243 5.593 2.21zm11.038 4.363l2.525 2.09-8.507-4.455 5.976 2.365h.006zm11.46 4.529l2.536 2.147-8.935-4.678 6.399 2.525v.006zm12.299 3.916l2.96 3.419-12.072-6.322 9.118 2.903h-.006zm13.551 2.468l2.588 5.319-14.179-7.42 11.591 2.101zm.829.395l12.871 6.676-10.289-1.357-2.582-5.319zm25.182 5.348l1.548 3.613-10.688-1.809 9.14-1.804zm.634.029l5.491.784-3.988 2.737-1.508-3.521h.005zm10.266-4.243l1.412 3.561-4.754.876 3.337-4.431.005-.006zm.429-.47l7.758-5.181-6.307 8.834-1.451-3.653zm14.105-21.58l1.914 5.594-6.353 8.234 4.439-13.828zm.309-.864l6.752-9.683-4.839 15.277-1.913-5.6v.006zm12.322-19.834l-4.124 13.026-.315-4.518 4.439-8.508zm4.319-9.305l-3.062 9.677.286-3.333 2.776-6.344zm4.776-10.901l-2.919 9.229.32-3.286 2.605-5.943h-.006zm4.599-10.501l-2.776 8.783.348-3.229 2.428-5.549v-.005zm4.445-10.152l-2.645 8.365.371-3.172 2.28-5.199-.006.006zm4.284-9.78l-2.507 7.931.388-3.092 2.119-4.839zm4.148-9.464l-2.382 7.529.4-3.012 1.976-4.517h.006zm3.999-9.133l-2.251 7.106.412-2.914 1.833-4.192h.006zm3.873-8.852l-2.125 6.728.417-2.823 1.708-3.899v-.006zm3.748-8.548l-1.999 6.327.422-2.714 1.583-3.607-.006-.006zm3.628-8.285l-1.885 5.949.417-2.611 1.462-3.344.006.006zm3.519-8.028l-1.765 5.583.411-2.497 1.354-3.086zm3.399-7.764l-1.639 5.188.405-2.365 1.234-2.823zm3.931-24.626l-.2-4.163.337 2.451-.137 1.712zm-1.246-8.68l-.223-4.592.383 2.742-.16 1.85zm-1.285-8.955l-.246-5.022.423 3.046-.183 1.976h.006zm-1.326-9.276l-.257-5.371.457 3.31-.2 2.061zm-1.359-9.562l-.28-5.777.502 3.613-.222 2.158v.006zm-1.411-9.865l-.303-6.218.548 3.956-.251 2.262h.006zm-1.457-10.204l-.32-6.647.6 4.3-.274 2.347h-.006zm-1.503-10.563l-.342-7.06.645 4.643-.303 2.417zm-1.559-10.919l-.366-7.507.697 5.022-.337 2.485h.006zm-1.611-11.314l-.383-7.942.748 5.4-.365 2.536v.006zm-1.668-11.704l-.406-8.434.811 5.84-.405 2.594zm-1.726-12.144l-.428-8.892.868 6.264-.44 2.628zm-1.794-12.585l-.451-9.396.937 6.745-.486 2.657v-.006zm-2.696-12.07l-.646-13.444 2.006 9.768-1.36 3.676zm-5.445-28.812l.086-1.975 2.331 8.067-2.417-6.092zm-.514-1.34l-2.793-7.294 2.89 4.976-.102 2.318h.005zM339.855 6.7l-1.663-1.82 3.942 3.011-2.279-1.19zm-14.854-5.405l2.131-.418 4.559 1.117-6.69-.699zm-1.936-.2L318.957.72l5.49.098-1.382.275zm-28.291 2.462l3.154-1.741 8.449-.796-11.603 2.53v.007zm-10.146.572l.726-.252 1.731-.286-2.463.538h.006zm-11.963 1.93l.583-.2 1.308-.218-1.891.412v.006zm-11.5 1.855l.406-.132.857-.143-1.257.275h-.006zm-11.094 1.792l.223-.074.451-.075-.668.15h-.006zm-10.695 1.723l.035-.01.068-.012-.103.022zM76.359 78.799l.023-.012-.063.04.04-.029zm-8.987 6.424l.2-.103-.554.355.354-.252zm-9.3 6.653l.377-.19-1.086.694.709-.504zm-9.638 6.894l.526-.258-1.56.996 1.034-.738zm-9.992 7.145l.68-.326-2.091 1.334 1.411-1.008zm-10.375 7.421l3.457-.991-10.015 6.402 6.564-5.411h-.006zM9.712 130.581l-1.165.778 3.799-3.916-2.634 3.138zm-3.034 2.714l1.8-1.203-4.245 5.216 2.445-4.008v-.005zm-4.93 13.123l-.777 2.439.674-4.895.103 2.456zm2.805 16.204l-1.69-1.569-1.446-5.548 3.142 7.122-.006-.005zm.583 1.317l2.56 5.989-4-7.323 1.44 1.334zm16.413 24.271l-3.536-1.649-5.45-8.331 8.986 9.98zm6.576 10.449l-2.183-1.528-4.044-5.388 6.232 6.916h-.005zm7.598 10.192l-2.137-1.54-3.765-5.016 5.907 6.556h-.005zm7.324 9.826l-2.085-1.541-3.503-4.666 5.588 6.207zm7.06 9.481l-2.027-1.534-3.245-4.329 5.273 5.858v.005zm6.822 9.156l-1.965-1.512-3.01-4.008 4.97 5.525.005-.005zm6.587 8.84l-1.89-1.488-2.783-3.705 4.673 5.193zm6.364 8.543l-1.816-1.449-2.566-3.418 4.382 4.867zm6.153 8.262l-1.737-1.408-2.36-3.144 4.097 4.552zm5.953 7.993l-1.651-1.357-2.16-2.88 3.817 4.237h-.006zm5.764 7.741l-1.565-1.305-1.977-2.634 3.542 3.934v.005zm5.582 7.495l-1.474-1.242-1.794-2.393 3.268 3.635zm5.404 7.261l-1.377-1.174-1.622-2.164 3 3.338zm5.245 7.042l-1.286-1.099-1.462-1.947 2.742 3.052.006-.006zm20.789 16.044l-1.851-1.306 4.524 2.371-2.679-1.065h.006zm7.849 3.126l-1.942-1.386 4.862 2.548-2.92-1.162zm8.095 3.224l-2.028-1.46 5.205 2.725-3.177-1.265zm8.353 3.326l-2.12-1.54 5.565 2.914-3.445-1.374zm8.62 3.436l-2.193-1.615 5.918 3.098-3.725-1.483zm8.901 3.544l-2.268-1.689 6.29 3.292-4.022-1.603zm9.198 3.664l-2.331-1.763 6.661 3.487-4.33-1.724zm9.512 3.791l-2.388-1.833 7.044 3.688-4.656-1.855zm9.838 3.922l-2.44-1.901 7.438 3.893-4.998-1.992zm10.186 4.059l-2.48-1.969 7.838 4.105-5.358-2.136zm10.546 4.203l-2.508-2.033 8.255 4.323-5.747-2.29zm10.934 4.357l-2.531-2.09 8.673 4.541-6.142-2.445v-.006zm11.34 4.518l-2.536-2.147 9.106 4.764-6.564-2.617h-.006zm11.78 4.689l-2.959-3.418 12.3 6.436-9.341-3.018zm24.411 6.19l2.194 1.448-9.409-2.399 7.215.951zm3.851 1.855l-2.462-1.621 8.546 1.449-6.084.178v-.006zm13.985-3.052l3.085-.567-5.673 2.342 2.588-1.775zm12.671-10.604l-.599 2.892-4.451 4.179 5.05-7.071zm.823-1.145l4.462-5.789-4.999 8.371.537-2.582zm12.66-26.149l.314 4.517-4.513 8.749 4.199-13.266zm5.667-10.467l-.286 3.332-2.839 6.539 3.125-9.871zm4.907-11.171l-.32 3.292-2.656 6.115 2.976-9.407zm4.731-10.759l-.349 3.235-2.485 5.715 2.834-8.95zm4.559-10.375l-.372 3.173-2.325 5.347 2.691-8.514.006-.006zm4.399-9.997l-.389 3.092-2.165 4.982 2.554-8.074zm4.244-9.653l-.4 3.012-2.022 4.649 2.422-7.661zm4.096-9.31l-.411 2.914-1.874 4.312 2.285-7.226zm3.965-9.012l-.417 2.828-1.748 4.019 2.165-6.842v-.005zm3.828-8.698l-.423 2.72-1.617 3.716 2.034-6.43.006-.006zm3.702-8.417l-.417 2.606-1.491 3.435 1.913-6.041h-.005zm3.587-8.147l-.417 2.496-1.382 3.178 1.794-5.674h.005zm3.468-7.879l-.405 2.371-1.263 2.908 1.668-5.279zm3.365-7.649l-.394 2.255-1.166 2.68 1.56-4.941v.006z" fill="#FF6C1A"/></svg>