<svg width="279" height="80" fill="none" xmlns="http://www.w3.org/2000/svg"><g clip-path="url(#clip0_2741_28786)"><path d="M145.829 32.315l-12.465 7.267v14.669l12.678-7.378-.213-14.558z" fill="url(#paint0_linear_2741_28786)"/><path d="M133.364 54.91c-.401 0-.799-.107-1.157-.316l-11.142-6.55a2.37 2.37 0 01-1.157-2.042V32.901c0-.839.444-1.622 1.157-2.042l11.142-6.545a2.287 2.287 0 012.314 0l11.142 6.551a2.37 2.37 0 011.157 2.041v13.102c0 .838-.444 1.621-1.157 2.04L134.521 54.6c-.355.21-.756.316-1.157.316v-.005zm0-29.336a.766.766 0 00-.382.104l-11.142 6.55a.785.785 0 00-.382.673v13.101a.78.78 0 00.382.672l11.142 6.55a.752.752 0 00.764 0l11.142-6.55a.785.785 0 00.382-.672V32.901a.781.781 0 00-.382-.673l-11.142-6.55a.758.758 0 00-.382-.104z" fill="#fff"/><path d="M133.364 48.13c-.278 0-.554-.073-.802-.217l-5.992-3.522a1.644 1.644 0 01-.801-1.412v-7.046c0-.583.307-1.121.801-1.413l5.992-3.52a1.58 1.58 0 011.603 0l5.992 3.521c.494.291.802.833.802 1.413v7.046c0 .58-.308 1.121-.802 1.412l-5.992 3.522a1.583 1.583 0 01-.801.218zm0-15.773s-.019 0-.027.008l-5.992 3.521a.056.056 0 00-.026.047v7.046c0 .019.01.035.026.046l5.992 3.522c.016.01.035.008.051 0l5.991-3.522a.053.053 0 00.027-.046v-7.046a.057.057 0 00-.027-.047l-5.991-3.521s-.016-.008-.027-.008h.003z" fill="#fff"/><path d="M132.064 38.904v1.097c0 .133.07.256.182.321l.933.55a.36.36 0 00.363 0l.933-.55a.371.371 0 00.182-.321v-1.097a.371.371 0 00-.182-.32l-.933-.55a.361.361 0 00-.363 0l-.933.55a.371.371 0 00-.182.32z" fill="#fff"/><path d="M145.45 31.508l-12.511 7.265.767 1.37 12.512-7.264-.768-1.37zm28.527 8.725a7.029 7.029 0 004.067-2.047 7.225 7.225 0 001.678-2.721l.089-.272a7.608 7.608 0 00.205-.904 6.652 6.652 0 00.064-.504 7.364 7.364 0 00.027-1.064 7.17 7.17 0 00-1.649-4.259 7.006 7.006 0 00-5.42-2.574h-13.142v27.264h1.598V40.298h10.649l6.863 12.854h1.823l-6.852-12.92zm-12.483-12.759h11.507a5.48 5.48 0 014.092 1.85 4.758 4.758 0 011.226 2.15c.043.18.112.499.126.591.035.265.075.613.075.98 0 .09 0 .182-.008.275a8.084 8.084 0 01-.03.411l-.005.057a5.35 5.35 0 01-.123.708l-.032.128c-.011.051-.024.1-.043.152a3.947 3.947 0 01-.072.231 4.907 4.907 0 01-.206.504c-.04.087-.083.166-.123.245a2.814 2.814 0 01-.082.139 2.597 2.597 0 01-.156.247c-.05.077-.101.15-.165.232-.166.24-.358.473-.575.691a5.428 5.428 0 01-3.899 1.647h-11.507V27.474zm36.183-1.589h-1.596v27.264h1.596V25.885zM96.843 39.52l11.719 13.629h-2.095L95.796 40.742 85.125 53.148h-2.098l11.721-13.632-11.724-13.632h2.095l10.677 12.418 10.674-12.418h2.095L96.843 39.52zm129.338-13.98c-7.567 0-13.728 6.27-13.728 13.977 0 7.707 6.161 13.98 13.728 13.98 7.57 0 13.729-6.27 13.729-13.98 0-7.71-6.158-13.978-13.729-13.978zm0 26.37c-6.71 0-12.166-5.56-12.166-12.393 0-6.834 5.456-12.391 12.166-12.391 6.711 0 12.172 5.56 12.172 12.39 0 6.832-5.461 12.395-12.172 12.395zM59.726 25.54C52.157 25.54 46 31.81 46 39.516c0 7.707 6.157 13.98 13.726 13.98 7.568 0 13.728-6.27 13.728-13.98 0-7.71-6.157-13.978-13.728-13.978zm0 26.37c-6.708 0-12.168-5.56-12.168-12.393 0-6.834 5.46-12.391 12.168-12.391 6.707 0 12.17 5.557 12.17 12.39 0 6.835-5.46 12.395-12.17 12.395z" fill="#fff"/></g><defs><linearGradient id="paint0_linear_2741_28786" x1="139.703" y1="51.894" x2="139.703" y2="31.265" gradientUnits="userSpaceOnUse"><stop stop-color="#FF6C1A" stop-opacity="0"/><stop offset="1" stop-color="#FF6C1A"/></linearGradient><clipPath id="clip0_2741_28786"><path fill="#fff" transform="translate(46 24)" d="M0 0h194v31H0z"/></clipPath></defs></svg>