<svg width="74" height="27" fill="none" xmlns="http://www.w3.org/2000/svg"><g clip-path="url(#clip0_4324_11787)" fill="#413F41"><path d="M51.935 9.771h-5.506v8.166h2.753v-5.444h2.753v2.722c0 1.497 1.238 2.722 2.753 2.722v-5.444c0-1.497-1.24-2.722-2.753-2.722zm-11.012 0v8.166h2.753v-5.444c0-1.497-1.239-2.722-2.753-2.722zm30.282 0h-2.753V7.05c0-1.497-1.239-2.721-2.753-2.721v10.887h-5.506v-2.722h2.753V9.771h-2.753c-1.514 0-2.753 1.225-2.753 2.722v2.722c0 1.497 1.24 2.721 2.753 2.721h8.26v-5.443h2.752v2.722c0 1.497 1.24 2.721 2.753 2.721v-5.443c0-1.497-1.239-2.722-2.753-2.722zM40.923 4.328v2.721h2.753c0-1.497-1.239-2.721-2.753-2.721zM32.664 7.05h2.753v10.886h2.753V4.328h-2.753c-1.514 0-2.753 1.224-2.753 2.721z"/><path fill-rule="evenodd" clip-rule="evenodd" d="M23.022 4.164c-.847-.544-1.446-.776-1.446-.776a29.16 29.16 0 001.68.116l.626.061a14.006 14.006 0 00-1.115-.789c-2.23-1.422-4.322-1.871-6.07-1.871-1.542 0-2.808.347-3.655.667-.681.258-1.094.503-1.156.537l.88-1.381.07-.68a.673.673 0 01.62.66 10.982 10.982 0 013.24-.484c2.182 0 4.84.654 7.606 2.804.24.19.33.51.213.796a.658.658 0 01-.303.333c.496.375 1.033.837 1.563 1.395 1.906 2.014 3.668 5.247 3.2 10.064a.688.688 0 01-.853.592c-.152 2.062-1.06 5.464-4.976 8.37a.689.689 0 01-1.026-.232 1.81 1.81 0 00-.117.109c-1.115.994-2.801 2.082-5.093 2.395-.034.007-.062.007-.096.007h-.02a.684.684 0 01-.675-.565 10.46 10.46 0 01-1.99.184c-1.28 0-2.821-.218-4.631-.844a.686.686 0 01-.434-.837.69.69 0 01.82-.47 6.576 6.576 0 001.555.184c3.461 0 6.18-2.558 6.18-5.613 0-1.51-.647-2.892-1.734-3.913 0 .007-.007.007-.007.014-.248.32-.55.7-.764.98-.344.476-.461.741-.434.98a2.726 2.726 0 01-.571 2.095l-.02.02c-.18.205-.51.49-.813.75-.014.013-.027.02-.041.033-.303.259-.599.517-.812.728l-.014.014c-.53.49-1.232.565-1.645.565-.117 0-.22-.007-.289-.014h-.007c-.069-.007-.096-.007-.11-.007h-.096a.436.436 0 00-.076.055c-.048.04-.117.095-.2.17a1.164 1.164 0 01-.509.258 1.91 1.91 0 01-.475.055c-.399 0-.86-.089-1.239-.184a11.79 11.79 0 01-.95-.279c-.006 0-.013-.007-.02-.007a1.203 1.203 0 01-.447-.313 2.338 2.338 0 01-.276-.367 5.848 5.848 0 01-.413-.83c-.227-.545-.413-1.177-.447-1.484a1.24 1.24 0 01.069-.517 3.1 3.1 0 01.165-.422c.124-.272.282-.571.427-.837l.007-.013c.096-.184.185-.347.254-.483.035-.068.055-.123.076-.164.014-.027.014-.04.02-.047.035-.177.159-1.041.276-1.973.117-.92.234-1.83.255-2.015a.879.879 0 000-.306 1.419 1.419 0 00-.2-.422s0-.007-.007-.007c-.303-.503-.317-1-.193-1.612A264.874 264.874 0 01.674 5.294l-.006-.007a.88.88 0 01-.33-.53.735.735 0 01.061-.45c.007-.02.02-.034.028-.048.007-.006.007-.013.013-.02 0-.007.007-.007.007-.014V4.22l.572.374s-.049.068.089.177c.014.007.028.027.062.047.007 0 .007.007.014.014.069.054.179.136.323.245l.75.551c1.535 1.123 4.144 3.008 4.88 3.484-.227.803-.227 1.184 0 1.565.317.51.337.783.296 1.164-.048.38-.454 3.66-.544 4.062-.034.163-.213.49-.406.857-.289.538-.612 1.15-.585 1.402.048.422.633 2.232 1.15 2.436.385.136 1.335.422 1.961.422.227 0 .427-.048.516-.136.386-.334.496-.402.771-.402h.069c.055 0 .11.007.172.007.076.007.151.014.234.014.358 0 .833-.068 1.177-.381.234-.232.55-.504.846-.756.33-.285.64-.55.785-.714a2.069 2.069 0 00.427-1.586c-.07-.537.227-1.007.564-1.476.427-.558 1.218-1.565 1.218-1.565l.165.122c.124.102.248.204.365.313 1.246 1.143 2.003 2.722 2.003 4.45 0 3.015-2.299 5.526-5.382 6.152-.475.095-.977.15-1.487.15a7.24 7.24 0 01-1.713-.205c.605.211 1.176.368 1.713.49.537.123 1.04.197 1.514.252.42.04.813.061 1.177.061.978 0 1.776-.136 2.389-.3.997-.265 1.514-.619 1.514-.619s-.131.17-.372.436c-.2.218-.468.497-.791.796-.021.014-.035.034-.055.048l-.021.02h.02c.427-.061.833-.15 1.219-.258 1.961-.565 3.345-1.735 4.164-2.613.598-.647.894-1.143.894-1.143s-.055.367-.137.83c-.035.204-.083.422-.124.633-.035.142-.062.279-.097.408.303-.225.592-.456.86-.688 3.311-2.864 3.841-6.055 3.869-7.723v-.224a6.59 6.59 0 00-.07-.912v-.027s.008.007.008.013c0 0 .007.007.007.014l.254.313c.07.082.145.177.22.265.09.11.186.218.269.32.055.062.103.123.144.17a18.822 18.822 0 00.069-.986c.172-5.981-3.303-9.105-5.354-10.418zM7.612 2.926c.014.054.034.109.048.163.103.32.22.68.344.98.117-.34.248-.646.4-.925.97-1.783 2.56-2.273 3.53-2.396.503-.06.833-.034.833-.034.069-.68.069-.68.062-.68h-.062c-.034 0-.083-.007-.145-.007-.117 0-.282 0-.481.014-.4.027-.943.115-1.535.326A5.169 5.169 0 008.128 2.26c-.014-.04-.02-.075-.027-.109-.014-.054-.028-.102-.035-.136C8.06 2 8.06 1.987 8.06 1.98v-.007a.684.684 0 00-.46-.483.707.707 0 00-.662.136l.455.51-.455-.51-.006.007a.095.095 0 01-.028.02c-.02.02-.048.041-.076.075-.062.061-.144.15-.234.259-.185.224-.42.55-.626.973A4.604 4.604 0 005.52 5.3c-.757-.272-1.542-.544-2.216-.782-.517-.177-.97-.34-1.301-.45-.165-.053-.303-.101-.406-.135a1.31 1.31 0 01-.124-.041c-.02-.007-.076-.027-.124-.034-.014 0-.028-.007-.034-.007a.991.991 0 00-.544.068.638.638 0 00-.207.136.68.68 0 00-.069.075c-.006.014-.02.02-.027.034-.007.007-.007.014-.014.014l-.007.007v.006l.572.381s.048-.068.206-.047c.007 0 .028.007.055.02.076.027.22.075.413.136.234.082.537.184.888.307.86.299 2.01.707 3.063 1.081.275.096.536.191.791.286a4.486 4.486 0 01-.186-.79 3.98 3.98 0 01.62-2.782c.275-.422.536-.647.536-.647s.076.361.207.79z"/><path d="M12.925 18.072c-.069.089-.317.307-.544.51l-.2.178c-.096.088-.192.17-.288.251-.18.157-.358.313-.503.463-.09.089-.268.136-.544.136h-.674c.138-.177.378-.449.64-.728.145-.13.29-.259.42-.367.234-.19.46-.32.667-.429.372-.204.647-.354.647-.735.014-.762-.502-.905-.887-.912a1.62 1.62 0 01.364-.047c-.426-.11-.97 0-1.218.245-.179.163-.22.605-.261 1.047-.021.218-.042.443-.076.627-.103.517-.42.81-.909 1.245a3.588 3.588 0 00-.172.156l-.041.041-1.493-.326s.99-.51 1.149-1.096c.144-.497-.227-2.041-.317-2.436a.444.444 0 01-.02-.088l.007.006c.068.061.474.436.667 1.021.358-.98.833-1.919.97-2.007.118-.075 1.487-.796 1.866-1-.166.448-.33.89-.44 1.217a1.855 1.855 0 00-1.109.783c.159-.109.654-.177 1.019-.225.316-.02 1.287.49 1.535 1.45v.047a1.45 1.45 0 01-.255.973z"/><path d="M12.161 15.017c.461-.04.847.048.95.089.88-1.654 1.583-2.545 1.762-2.545h.117c.502.014 2.292.075 3.042-1.701.798-1.933-.324-3.586-.406-3.702v-.007c.95 3.083-1.15 4.797-2.574 4.825-.792 0-1.852.51-1.852.51l-1.039 2.531z"/><path d="M17.62 7.158c.006 0 .006 0 0 0 .102.048 1.789.858 2.277 3.368a8.514 8.514 0 012.017 4.627c0 .11.158.266.316.402.207.204.406.401.406.605a9.24 9.24 0 01-.137 1.586c-.041.156-.22.265-.42.381l-.02.014c-.008.006-.014.006-.021.013-.014.007-.021.014-.035.02-.027.021-.062.041-.096.062-.117.075-.241.15-.262.204-.46 1.613-1.424 3.048-2.711 4.144a9.186 9.186 0 004.384-5.532 7.19 7.19 0 00.082-2.899c-.812-4.559-5.506-6.886-5.78-6.995z"/><path d="M19.815 14.079a10.42 10.42 0 00.179-2.926 8.132 8.132 0 011.583 4.021c.02.177.206.354.385.538.158.136.337.313.337.421a8.93 8.93 0 01-.137 1.538c-.021.062-.207.17-.358.252l-.028.014c-.227.108-.426.224-.475.401a8.265 8.265 0 01-2.98 4.307c2.1-2.157 3.118-5.73 1.494-8.566zm-7.62-6.696c.42.02 1.308-.02 2.155-.626.082.197.172.394.254.592a5.269 5.269 0 01-2.409.034zm3.111-.286a4.675 4.675 0 001.645-1.266 9.023 9.023 0 00-1.548-.299c-.159.245-.317.47-.475.646.103.225.234.558.378.919z"/><path fill-rule="evenodd" clip-rule="evenodd" d="M9.807 5.593s-.406-2.878 1.624-4.083c-.007 0-.02.007-.041.014-.413.157-3.434 1.28-1.583 4.07zm4.384-2.633c1.555-.579 3.723-.892 7.089-.266-1.494-.734-3.049-1.115-4.604-1.136-.585 0-1.13.048-1.625.136-1.761.313-3.207 1.565-3.702 3.24 0 0 .357-.559 1.218-1.137l.034-.048a29.64 29.64 0 011.253-1.606c.13.28.289.64.337.817zm7.812 3.708c3.186 2.076 4.631 4.375 5.643 7.077-.048-2.858-1.018-5.314-2.89-7.28l-.049-.048c-1.651-1.722-4.067-2.525-6.455-2.192a14.86 14.86 0 00-2.505.51c-.11.021-.228.048-.338.09h.048c.18-.014 3.476-.17 6.546 1.843zm2.939 14.201c-.338.45-.723.919-1.177 1.361 2.91-5.539.137-10.608.02-10.805.207.204.406.421.585.626 2.237 2.45 2.512 6.137.572 8.818zM7.116 3.695c-.083.326-.847 3.198 1.72 3.28-1.534-.92-1.713-3.28-1.713-3.307v.012l-.007.014zm4.473 5.988l-1.176 1.986s1.087-.49 1.514-1.115c.344-.538-.338-.871-.338-.871zm-.784 9.206c.145-.13.289-.258.42-.367.234-.19.46-.32.667-.43.372-.203.647-.353.647-.727.014-.762-.502-.905-.887-.912.006 0 .013 0 .02-.007a2.662 2.662 0 00-.372.116s.654-.109.902.354c.248.47.048.735-.358 1.007-.206.13-.647.551-1.04.966zm2.14-6.886c-.103.088-.454.973-.777 1.837-.386.204-1.748.919-1.865 1-.138.089-.613 1.028-.97 2.008a2.487 2.487 0 00-.669-1.021l-.006-.007c0 .014.006.041.02.089.097.394.461 1.932.317 2.436-.158.578-1.15 1.095-1.15 1.095l1.494.327c-.296.258-.51.34-.681.34a7.421 7.421 0 01-1.15-.293c-.227-.292-.564-1.252-.654-1.653.049-.163.2-.45.338-.694a3.12 3.12 0 00.137-.265l.035-.069c.247-.469.392-.748.433-1 .09-.38.386-2.721.496-3.708.296.38.702 1.007.612 1.408.654-.918.18-1.81-.048-2.164-.206-.353-.475-1.075-.248-1.83.228-.762 1.04-2.858 1.04-2.858s.268.47.654.381c.385-.088 3.475-4.688 3.475-4.688s.833 1.81-.048 3.123c-.902 1.32-1.783 1.565-1.783 1.565s.09.014.241.02c.44.096 1.37.239 2.402-.033.372.884.675 1.667.695 1.796a3.89 3.89 0 00-.096.231c-.255.592-.888 2.09-.963 2.205-.049.048-.358.136-.586.177-.378.109-.605.177-.695.245zm.613-7.995s.206.891-.317 1.497c-.653.735-1.218.714-1.197.714l1.514-2.211zM8.34 16.69l-.179.892s.358-.048.358.353c0 .313-.358.735-.654.762-.296.02-.406-.333-.337-.537.069-.177.812-1.47.812-1.47zm3.455-7.457c.792.156 1.019 1.075.585 1.565-.427.47-1.514 1.136-2.147 1.292-.138.51-1.287.293-.86-1.34 0 0 .206.782.405.714.207-.068 2.506-3.64 2.506-3.64s-.29.939-.489 1.409zm-.805 8.315c-.014.217-.035.571-.193.796.014-.014.062-.068.13-.13.118-.122.29-.299.393-.401.069-.061.152-.109.227-.157.165-.102.317-.197.317-.401 0-.313-.427-.381-.613-.334-.179.048-.227.334-.248.49-.006.028-.006.075-.013.137zm10.495.864c-.495 1.762-1.624 3.327-3.097 4.443.186-.088.365-.177.544-.279 1.287-1.089 2.25-2.531 2.712-4.144.02-.054.144-.13.261-.204.035-.02.07-.04.097-.061.006-.007.013-.007.02-.014l.014-.007c.007-.006.014-.006.02-.013l.021-.014c.2-.116.379-.218.42-.38.09-.511.138-1.049.138-1.586 0-.204-.207-.402-.406-.606-.159-.136-.317-.293-.317-.401a8.535 8.535 0 00-2.016-4.627c.007.054.02.102.027.156a8.623 8.623 0 011.852 4.443c0 .082.103.19.2.3.034.034.068.068.096.102.206.204.405.401.405.605a9.3 9.3 0 01-.137 1.586c-.048.177-.268.313-.496.422-.027.02-.062.04-.096.061-.124.082-.248.163-.262.218zM17.62 7.158c.275.116 4.969 2.436 5.78 6.988a7.191 7.191 0 01-.082 2.899c.214-.776.33-1.592.33-2.43 0-4.17-2.835-7.695-6.696-8.79a4.654 4.654 0 01-1.645 1.265c.386.946.847 2.103.847 2.184 0 .136-.427 1.225-.475 1.273-.049.02-.565.068-.771.068a21.759 21.759 0 01-.496 1.116c-.069.088-.268.156-.702.265l-.151.041c-.207.061-.427.122-.461.156-.11.137-.723 1.722-1.129 2.838.062-.007.124-.02.179-.02l1.04-2.525s1.06-.51 1.85-.51c1.432-.02 3.531-1.735 2.582-4.818zM8.203 8.383c.159-.293.021-.49-.11-.606l-.048-.047c-.268-.136-1.961-.762-3.634-1.34 1.466.959 3.097 1.898 3.366 2.034.2.095.337.115.426-.041z"/></g><defs><clipPath id="clip0_4324_11787"><path fill="#fff" d="M0 0h74v27H0z"/></clipPath></defs></svg>