<svg width="203" height="35" fill="none" xmlns="http://www.w3.org/2000/svg"><path d="M49.64 22.85h-4.86L44 25.157h-3.321l4.712-13.052h3.674l4.713 13.052h-3.359l-.779-2.305zm-.816-2.454l-1.614-4.778-1.596 4.778h3.21zm10.303-8.999v13.76h-3.173v-13.76h3.173zm6.213 4.853c.31-.484.737-.874 1.281-1.171.544-.298 1.181-.447 1.911-.447a4.28 4.28 0 012.32.651c.692.434 1.236 1.054 1.632 1.86.408.805.612 1.741.612 2.807 0 1.066-.204 2.008-.612 2.826-.396.806-.94 1.432-1.633 1.878a4.28 4.28 0 01-2.319.651c-.717 0-1.354-.149-1.91-.446a3.508 3.508 0 01-1.281-1.153v6.396h-3.173V14.781h3.173v1.469zm4.528 3.7c0-.793-.223-1.413-.668-1.86a2.13 2.13 0 00-1.614-.687c-.631 0-1.169.229-1.614.688-.433.458-.65 1.084-.65 1.878 0 .793.217 1.419.65 1.878.445.458.983.688 1.614.688.63 0 1.169-.23 1.614-.688.445-.471.668-1.104.668-1.897zm5.004 0c0-1.066.198-2.002.594-2.808.408-.805.959-1.425 1.651-1.859a4.28 4.28 0 012.32-.65c.73 0 1.366.148 1.91.446.557.297.984.687 1.28 1.17v-1.468H85.8v10.375h-3.172v-1.469c-.31.484-.743.874-1.3 1.172-.543.297-1.18.446-1.91.446a4.248 4.248 0 01-2.3-.65c-.694-.447-1.244-1.073-1.652-1.879-.396-.818-.594-1.76-.594-2.826zm7.756.019c0-.794-.223-1.42-.668-1.878a2.108 2.108 0 00-1.596-.688c-.63 0-1.169.229-1.614.688-.433.446-.65 1.066-.65 1.859 0 .793.217 1.426.65 1.897.445.458.983.688 1.614.688.63 0 1.163-.23 1.596-.688.445-.459.668-1.085.668-1.878zm5.579 0c0-1.079.216-2.02.65-2.827a4.658 4.658 0 011.836-1.859c.792-.434 1.695-.65 2.709-.65 1.299 0 2.381.34 3.247 1.022.878.682 1.453 1.642 1.725 2.882h-3.376c-.285-.793-.835-1.19-1.652-1.19-.581 0-1.045.23-1.391.688-.346.446-.52 1.09-.52 1.934 0 .842.174 1.493.52 1.952.346.446.81.67 1.391.67.817 0 1.367-.397 1.652-1.19h3.376c-.272 1.214-.847 2.169-1.725 2.863-.878.694-1.96 1.041-3.247 1.041-1.014 0-1.917-.217-2.709-.65a4.658 4.658 0 01-1.837-1.86c-.433-.806-.65-1.748-.65-2.826zm11.976-.019c0-1.066.198-2.002.594-2.808.408-.805.958-1.425 1.651-1.859a4.28 4.28 0 012.319-.65c.73 0 1.367.148 1.911.446.557.297.983.687 1.28 1.17v-1.468h3.173v10.375h-3.173v-1.469c-.309.484-.742.874-1.298 1.172-.545.297-1.182.446-1.912.446a4.244 4.244 0 01-2.3-.65c-.693-.447-1.243-1.073-1.651-1.879-.396-.818-.594-1.76-.594-2.826zm7.755.019c0-.794-.222-1.42-.668-1.878a2.107 2.107 0 00-1.595-.688c-.631 0-1.169.229-1.614.688-.433.446-.65 1.066-.65 1.859 0 .793.217 1.426.65 1.897.445.458.983.688 1.614.688a2.11 2.11 0 001.595-.688c.446-.459.668-1.085.668-1.878zm19.363-7.865v2.547h-5.306v2.752h3.971v2.473h-3.971v5.28h-3.173V12.104h8.479zm4.006 1.599c-.557 0-1.015-.162-1.373-.484a1.64 1.64 0 01-.52-1.227c0-.496.173-.905.52-1.227.358-.335.816-.502 1.373-.502.544 0 .989.167 1.336.502.358.322.538.731.538 1.227 0 .483-.18.892-.538 1.227-.347.322-.792.484-1.336.484zm1.577 1.078v10.375h-3.173V14.781h3.173zm9.349-.111c1.213 0 2.177.396 2.895 1.19.73.78 1.095 1.859 1.095 3.235v6.061h-3.155v-5.634c0-.694-.179-1.233-.538-1.617-.358-.385-.841-.577-1.447-.577-.606 0-1.088.192-1.447.577-.359.384-.538.923-.538 1.617v5.634h-3.173V14.781h3.173v1.376a3.268 3.268 0 011.299-1.079c.544-.272 1.156-.409 1.836-.409zm6.306 5.28c0-1.066.197-2.002.593-2.808.408-.805.959-1.425 1.652-1.859a4.277 4.277 0 012.319-.65c.73 0 1.367.148 1.911.446.556.297.983.687 1.28 1.17v-1.468h3.173v10.375h-3.173v-1.469c-.309.484-.742.874-1.299 1.172-.544.297-1.181.446-1.911.446a4.244 4.244 0 01-2.3-.65c-.693-.447-1.244-1.073-1.652-1.879-.396-.818-.593-1.76-.593-2.826zm7.755.019c0-.794-.223-1.42-.668-1.878a2.109 2.109 0 00-1.596-.688c-.63 0-1.168.229-1.614.688-.433.446-.649 1.066-.649 1.859 0 .793.216 1.426.649 1.897a2.17 2.17 0 001.614.688 2.11 2.11 0 001.596-.688c.445-.459.668-1.085.668-1.878zm12.518-5.299c1.213 0 2.177.396 2.895 1.19.73.78 1.095 1.859 1.095 3.235v6.061h-3.155v-5.634c0-.694-.179-1.233-.538-1.617-.358-.385-.841-.577-1.447-.577-.606 0-1.088.192-1.447.577-.359.384-.538.923-.538 1.617v5.634h-3.173V14.781h3.173v1.376a3.268 3.268 0 011.299-1.079c.544-.272 1.156-.409 1.836-.409zm6.306 5.299c0-1.079.216-2.02.649-2.827a4.651 4.651 0 011.837-1.859c.791-.434 1.694-.65 2.709-.65 1.298 0 2.381.34 3.247 1.022.878.682 1.453 1.642 1.725 2.882h-3.377c-.284-.793-.835-1.19-1.651-1.19a1.66 1.66 0 00-1.392.688c-.346.446-.519 1.09-.519 1.934 0 .842.173 1.493.519 1.952.347.446.811.67 1.392.67.816 0 1.367-.397 1.651-1.19h3.377c-.272 1.214-.847 2.169-1.725 2.863-.879.694-1.961 1.041-3.247 1.041-1.015 0-1.918-.217-2.709-.65a4.651 4.651 0 01-1.837-1.86c-.433-.806-.649-1.748-.649-2.826zm22.366-.168c0 .298-.019.608-.056.93h-7.18c.049.645.253 1.14.612 1.487.371.335.822.503 1.354.503.792 0 1.342-.335 1.652-1.005h3.376a4.58 4.58 0 01-.946 1.841 4.606 4.606 0 01-1.688 1.283c-.681.31-1.441.465-2.282.465-1.015 0-1.918-.217-2.709-.65a4.628 4.628 0 01-1.856-1.86c-.445-.806-.668-1.748-.668-2.826 0-1.079.217-2.02.65-2.827a4.626 4.626 0 011.855-1.859c.792-.434 1.701-.65 2.728-.65 1.001 0 1.892.21 2.671.631a4.472 4.472 0 011.819 1.804c.445.78.668 1.692.668 2.733zm-3.247-.836c0-.546-.186-.98-.557-1.302-.371-.322-.835-.483-1.392-.483-.531 0-.983.154-1.354.464-.359.31-.581.75-.668 1.32h3.971z" fill="#413F41"/><mask id="mask0_4324_11785" style="mask-type:luminance" maskUnits="userSpaceOnUse" x="0" y="0" width="35" height="35"><path d="M34.537 0H0v35h34.537V0z" fill="#fff"/></mask><g mask="url(#mask0_4324_11785)"><mask id="mask1_4324_11785" style="mask-type:luminance" maskUnits="userSpaceOnUse" x="-1" y="0" width="36" height="35"><path d="M34.536 0H-.388v35h34.924V0z" fill="#fff"/></mask><g mask="url(#mask1_4324_11785)"><path d="M33.512 17.871c0 8.894-7.195 16.104-16.07 16.104s-16.07-7.21-16.07-16.104c0-8.894 7.195-16.104 16.07-16.104s16.07 7.21 16.07 16.104z" stroke="#413F41" stroke-width="1.125"/><mask id="mask2_4324_11785" style="mask-type:alpha" maskUnits="userSpaceOnUse" x="0" y="1" width="35" height="34"><path d="M32.145 17.871c0 8.138-6.582 14.734-14.702 14.734-8.12 0-14.702-6.596-14.702-14.734 0-8.137 6.582-14.734 14.702-14.734 8.12 0 14.702 6.597 14.702 14.734z" fill="#202020" stroke="#202020" stroke-width="3.75"/></mask><g mask="url(#mask2_4324_11785)" fill="#413F41"><path d="M10.295 33.275c.125-1.216 1.647-3.472 1.581-4.688-.007-.206 0-.41.03-.616.124-.857.087-1.714.021-2.564-.029-.352 0-.696.059-1.047.124-.755.197-1.502.11-2.271-.08-.726.007-1.451.153-2.162.125-.6.11-1.201.015-1.802-.022-.132-.044-.27-.022-.395a9.34 9.34 0 00.14-1.407c.43.381.892.403 1.382.293.403-.088.644-.351.805-.71.052-.118.074-.264.271-.22.095.022.205.007.22-.125.014-.124-.08-.161-.183-.183-.608-.14-1.222-.286-1.83-.418-.197-.044-.402-.095-.6-.117-.176-.022-.212-.102-.197-.264.087-.747.226-1.48.526-2.175.293-.674.666-1.312 1.2-1.832.066-.066.147-.139.103-.249-.044-.11-.132-.14-.234-.102-.11.036-.154-.022-.205-.096-.103-.16-.212-.322-.307-.49-.322-.528-.71-1.004-1.098-1.488a1.481 1.481 0 00-.293-.27c-.33-.235-.622-.103-.659.307a1.68 1.68 0 00.088.784c.344.872.608 1.78 1.105 2.586.125.205-.05.3-.117.447-.124-.088-.19-.213-.249-.323-.68-1.201-1.251-2.446-1.493-3.824a4.905 4.905 0 01-.05-1.084c.021-.396.197-.498.577-.403.278.073.49.25.696.44.695.644 1.288 1.37 1.917 2.073.168.19.337.38.498.571.102.118.197.227.212.403.014.198.154.257.337.183a.563.563 0 00.131-.066c.308-.212.652-.285 1.018-.344 1.002-.183 1.99-.11 2.978.095.154.037.286.118.425.198.3.183.41.14.497-.198A.578.578 0 0120 9.473c.812-.908 1.566-1.868 2.459-2.703.197-.183.395-.359.658-.44.432-.139.615-.007.644.44.052.85-.153 1.656-.424 2.447-.27.791-.644 1.538-1.04 2.27-.087.162-.197.301-.307.484-.358-.534-.358-.527-.088-1.04.337-.63.681-1.245.915-1.927.095-.285.176-.578.169-.886-.008-.19-.044-.359-.235-.454-.183-.088-.329-.008-.46.102-.162.14-.33.286-.476.447-.505.55-1.062 1.062-1.384 1.751-.058.132-.285.19-.197.388.058.132.197.213.285.323.52.63.937 1.318 1.193 2.095.161.49.271 1.004.337 1.516.03.264.03.264-.242.338-.666.175-1.324.351-1.99.527-.059.015-.117.022-.176.051-.139.066-.154.19-.022.271.088.051.14.08.168.198.11.469.41.77.886.835.476.073.922-.007 1.2-.461.015-.03.022-.044.073-.015a7.77 7.77 0 00.132 1.634.949.949 0 01-.007.322c-.14.689-.11 1.37.03 2.051a7.4 7.4 0 01.102 2.271c-.066.557-.015 1.114.087 1.656.117.615.147 1.223.08 1.839a8.985 8.985 0 00.023 1.883c.044.395 1.764 2.044 1.742 2.446.329.572.753 1.663 1.163 2.19l-.854 1.297-6.356 1.12-5.707-.53-2.086-.934z"/><path d="M49.882 19.4c-.344-.263-.74-.454-1.127-.652-1.23-.622-2.489-1.164-3.748-1.707-1.156-.498-2.18-1.179-3.037-2.11a5.46 5.46 0 00-.424-.395c-.183-.161-.388-.176-.608-.066-.307.154-.614.315-.907.498-.417.257-1.12.638-1.566.843-2.32 1.084-4.72 1.963-7.121 2.842a48.9 48.9 0 00-6.191 2.784c-.74.396-1.413.886-2.042 1.429-.103.087-.205.19-.308.27-.007-.007-.014-.007-.022-.014a.338.338 0 01-.182.205.337.337 0 01-.344.271h-.044c-.015.865.014 1.73.11 2.594.036.315-.045.527-.264.761-1.083 1.158-2.305 2.132-3.557 3.085-.036.029-.088.051-.117.088-.117.175-.249.16-.424.073-.322-.161-.644-.073-.93.095a.39.39 0 01-.424.015c-.732-.374-1.457-.748-2.13-1.231-.907-.645-1.815-1.282-2.613-2.058a.757.757 0 01-.197-.279l-.051-.022c-.008 0-.008 0-.015-.007-.161-.066.102-.293-.073-.323-.037.015-.066.022-.103.037-.044.044-.373.095-.6.293a.394.394 0 01-.059.044c-.673.535-.841 1.304-.446 2.066.073.14.051.234-.007.359-.308.63-.278 1.238.168 1.795.117.154.227.315.388.432l.366.256c.212.118.52.235.68.279.681.183 1.37.3 2.072.33.322.014.65-.037.973-.066.622-.06 1.251-.11 1.866-.198.234-.037.454.029.673.036.198.008.403.03.564-.073.315-.19.666-.198 1.003-.227a10.12 10.12 0 002.188-.462c.724-.227 1.449-.446 2.144-.769.695-.322 1.303-.732 1.654-1.443a.366.366 0 01.132-.146c.534-.323 1.405-.484 1.88-.682.74-.41 1.472-.82 2.218-1.216 1.054-.557 2.115-1.106 3.257-1.48 1.932-.644 3.93-.967 5.942-1.216.74-.095 1.486-.154 2.218-.337 1.266-.322 2.488-.762 3.725-1.157.41-.132.827-.264 1.222-.44 1.237-.542 2.423-1.194 3.608-1.831.22-.118.432-.264.637-.418.351-.278.344-.483-.008-.755z"/><path d="M24.175 6.668c-.029-.557-.41-.857-.958-.748-.25.052-.483.14-.695.293-.52.381-.96.85-1.376 1.334-.49.564-.988 1.128-1.464 1.707-.146.176-.278.183-.461.102a2.59 2.59 0 00-.9-.256c-1.098-.08-2.196-.117-3.25.293-.22.088-.344.044-.49-.132a76.288 76.288 0 00-1.442-1.678c-.431-.49-.87-.967-1.405-1.348a1.529 1.529 0 00-.841-.285c-.388-.015-.645.176-.74.556a1.5 1.5 0 00-.036.36c0 .666.124 1.318.256 1.97.19.945.622 1.802.995 2.674.147.344.344.667.6.938.095.102.117.19.08.322-.058.205-.109.418-.16.63-.205.77-.278 1.553-.161 2.337.066.418.051.813.007 1.223-.051.447-.066.887.037 1.334.124.527.095 1.055-.037 1.582a5.704 5.704 0 00-.183 1.685c.037.608-.036 1.21-.058 1.81-.008.351 0 .703-.08 1.047-.103.44-.096.887-.03 1.334.124.871.044.447.08.974.161 0 .352.506.52.498a37.4 37.4 0 00-.088-1.81c-.03-.351 0-.695.059-1.047.124-.755.197-1.502.11-2.271-.081-.725.007-1.45.153-2.161.124-.6.11-1.201.015-1.802-.022-.132-.044-.271-.022-.396a9.34 9.34 0 00.139-1.406c.432.38.893.402 1.383.293.403-.088.644-.352.805-.711.051-.117.073-.264.27-.22.096.022.206.008.22-.124.015-.125-.08-.162-.182-.184-.608-.139-1.223-.285-1.83-.417-.198-.044-.403-.095-.6-.117-.176-.022-.212-.103-.198-.264.088-.747.227-1.48.527-2.176.293-.674.666-1.311 1.2-1.831.066-.066.147-.14.103-.25-.044-.11-.132-.139-.235-.102-.11.037-.153-.022-.204-.095-.103-.161-.213-.322-.308-.491-.322-.527-.71-1.004-1.098-1.487a1.48 1.48 0 00-.292-.271c-.33-.235-.622-.103-.659.307-.03.264-.007.535.088.784.344.872.607 1.78 1.105 2.586.124.206-.051.3-.117.447-.124-.088-.19-.212-.249-.322-.68-1.201-1.251-2.447-1.493-3.824a4.893 4.893 0 01-.051-1.084c.022-.396.197-.499.578-.403.278.073.49.249.695.44.696.644 1.288 1.37 1.918 2.072.168.19.336.381.497.572.103.117.198.227.213.403.014.198.153.256.336.183a.554.554 0 00.132-.066c.307-.212.651-.286 1.017-.344 1.003-.184 1.99-.11 2.979.095.153.036.285.117.424.198.3.183.41.139.498-.198a.578.578 0 01.146-.25c.813-.908 1.567-1.867 2.46-2.702.197-.184.395-.36.658-.44.432-.14.615-.007.644.44.051.85-.154 1.655-.424 2.446-.271.792-.644 1.539-1.04 2.271-.088.162-.197.3-.307.484-.359-.535-.359-.527-.088-1.04.337-.63.68-1.246.915-1.927.095-.286.176-.579.168-.886-.007-.191-.044-.36-.234-.455-.183-.088-.33-.007-.46.103a5.45 5.45 0 00-.477.447c-.505.55-1.06 1.062-1.383 1.75-.058.133-.285.191-.198.389.06.132.198.212.286.322.52.63.937 1.319 1.193 2.095.16.491.27 1.004.337 1.517.029.264.029.264-.242.337-.666.176-1.325.352-1.99.527-.06.015-.118.022-.176.052-.14.066-.154.19-.022.27.088.052.139.081.168.198.11.47.41.77.886.836.475.073.922-.008 1.2-.462.015-.03.022-.044.073-.014-.015.542.03 1.091.132 1.633a.954.954 0 01-.008.323c-.139.688-.11 1.37.03 2.05.146.755.19 1.51.102 2.272-.066.557-.014 1.113.088 1.655a6.21 6.21 0 01.08 1.84c-.021.204-.036.41-.036.615l.505.022c.007-.103.015-.213.03-.315.065-.586.146-1.165.036-1.766-.161-.88-.14-1.78-.154-2.674-.007-.645-.022-1.275-.183-1.905-.124-.483-.16-.981-.051-1.472.124-.542.11-1.077.037-1.62-.037-.248-.088-.505-.022-.754.124-.49.11-.981.087-1.48-.029-.586-.19-1.143-.336-1.7-.044-.168-.037-.285.095-.417.168-.168.307-.373.41-.593.614-1.253 1.163-2.52 1.324-3.92.059-.366.117-.761.096-1.164z"/><path d="M49.444 19.854c-.52.279-.98.535-1.449.777-.79.41-1.595.798-2.408 1.165-.417.19-.849.337-1.288.469-1.039.322-2.07.652-3.103.967-.958.293-1.961.395-2.949.52-1.259.154-2.51.33-3.74.63-1.076.263-2.151.534-3.183.952-.798.322-1.552.725-2.306 1.121-.856.447-1.69.93-2.517 1.429-.322.197-.688.285-1.04.41-.116.036-.204.022-.248-.117-.125-.374-.395-.63-.747-.799-.131-.066-.153-.154-.146-.293a1.43 1.43 0 00-.066-.608.718.718 0 00-.498-.484c-.234-.073-.468-.131-.71-.102-.16.022-.219-.037-.226-.183-.008-.117-.022-.242-.03-.36-.014-.314.022-.637-.036-.937-.066-.366.051-.6.322-.842.915-.828 1.954-1.444 3.052-1.986 2.349-1.165 4.793-2.095 7.252-2.981a61.522 61.522 0 006.323-2.682c.476-.234.93-.512 1.383-.784.14-.08.227-.08.33.059.841 1.099 1.983 1.788 3.22 2.33 1.361.593 2.7 1.23 4.025 1.882.249.118.49.279.783.447zm-38.68 9.524c.117.051.197.08.27.11.132.051.271.059.36-.073.095-.14.006-.25-.096-.345a13.844 13.844 0 01-.351-.315c-.476-.44-.271-1.238.176-1.516.11-.066.19-.095.277.015.022.029.052.05.074.08.922 1.04 2.078 1.795 3.235 2.535.527.337 1.068.66 1.653.894.147.058.213.132.184.293a.668.668 0 00.029.395c.051.14-.022.176-.14.183-.19.022-.38.052-.577.052-.732.014-1.464.168-2.196.102-.747-.073-1.471-.234-2.152-.571a1.608 1.608 0 01-.614-.491c-.315-.41-.322-.85-.132-1.348z"/><path d="M19.177 31.224c-.11-.014-.256.103-.359.008-.073-.074-.08-.22-.124-.33a.449.449 0 00-.066-.132c-.102-.124-.03-.19.073-.256.637-.396 1.2-.887 1.808-1.326.739-.55 1.39-1.194 2.005-1.876.198-.212.344-.469.33-.776-.008-.125.05-.176.175-.162.117.015.242.03.359.06.366.087.52.395.358.74-.066.138-.154.27-.227.41-.05.102-.073.204.03.292.095.08.197.066.3.015.007-.007.022-.007.029-.015.088-.044.139-.183.227-.154.132.044.256.132.366.22.263.213.358.462.263.726a2.04 2.04 0 01-.52.776c-.46.432-1.01.703-1.587.909-.967.336-1.933.666-2.95.835a3.422 3.422 0 01-.49.036zM12.74 11.356c-.358-.351-.563-.762-.717-1.187-.19-.52-.373-1.04-.497-1.582a1.93 1.93 0 01-.044-.359c0-.08-.015-.176.08-.22.096-.036.169.022.227.08.308.272.571.587.783.939.256.417.513.835.783 1.252.103.161.103.279-.05.389-.235.168-.36.432-.564.688zm8.702-.19c-.169-.3-.425-.513-.674-.74-.124-.117-.117-.198-.036-.337.351-.58.79-1.092 1.237-1.605.131-.154.248-.33.417-.447.183-.124.293-.073.322.147a.511.511 0 01-.007.183c-.11.454-.206.923-.44 1.333a19.19 19.19 0 00-.644 1.21c-.044.087-.066.19-.175.256zM17.61 31.605c-.037-.008-.103-.008-.162-.015-.256-.036-.41-.16-.439-.359-.029-.198.132-.461.344-.542.395-.161.761-.044.93.293.11.213.08.323-.103.47a.91.91 0 01-.57.153zm-4.496-15.839c-.168.008-.286-.088-.286-.241-.007-.162.081-.264.22-.264.168-.007.278.088.286.249 0 .161-.066.25-.22.256zm7.736-.241c-.037.117-.059.242-.198.27-.132.03-.257-.095-.257-.234.007-.146.095-.22.227-.227.118-.007.206.066.228.19zm-3.453.52a.829.829 0 01.695-.308c.44.007.761.293.798.733.014.212.03.439-.051.644-.073.183-.052.286.124.418.359.285.542.666.512 1.143-.014.19-.058.373-.19.498-.175.161-.27.373-.358.571-.206.447-.579.645-1.018.718-.49.073-.959-.051-1.376-.322a1.039 1.039 0 01-.446-.594.452.452 0 00-.198-.278c-.417-.286-.527-.762-.278-1.201.08-.147.176-.3.3-.403.19-.147.205-.293.14-.498-.088-.279-.03-.55.065-.814.19-.534.63-.688 1.12-.403.044.022.095.059.16.096z"/><path d="M18.506 19.166c-.278-.022-.541-.19-.739-.477-.278-.41-.278-.41-.534.015a.915.915 0 01-.878.462c-.505-.037-.747-.52-.469-.953.103-.16.249-.293.403-.41.241-.183.256-.22.153-.52-.066-.198-.124-.388-.11-.6.037-.462.396-.653.791-.433.066.037.117.088.176.125.146.087.27.095.358-.081.11-.213.3-.22.498-.198.22.022.344.154.424.352a.392.392 0 01-.007.315c-.058.146-.124.285-.183.432-.139.3-.124.366.183.498.256.11.454.271.564.535.197.454-.081.923-.63.938z"/><path d="M16.435 19.488c.526-.058.556-.073 1.105-.6.292.38.658.615 1.156.578-.146.44-.469.66-.959.674-.541.008-1.17-.132-1.302-.652zm.441-2.798c.022.014.08.022.103.051a.834.834 0 01.19.425c.008.073-.029.139-.11.168-.066.022-.117-.007-.16-.05-.118-.125-.206-.272-.184-.455.007-.073.051-.125.161-.14zm.871.314c.021-.058.05-.168.102-.263.037-.08.103-.14.206-.096a.153.153 0 01.088.176 2.45 2.45 0 01-.096.308c-.036.095-.102.168-.22.124-.102-.029-.102-.124-.08-.249zM10.64 30.88l-.673 1.846.454.227s.63-1.531.703-1.678c.065-.153-.483-.395-.483-.395zm13.453-1.202l-.279.3s1.157 2.711 1.5 2.718c.345 0 .125-.55.125-.55s-1.01-2.116-1.186-2.49c-.131-.3-.16.022-.16.022z"/></g></g></g></svg>