<svg width="139" height="31" fill="none" xmlns="http://www.w3.org/2000/svg"><g clip-path="url(#clip0_4324_11789)" fill="#413F41"><path d="M3.757 15.5c0 8.284 6.728 15 15.027 15 8.3 0 15.027-6.716 15.027-15 0-8.284-6.728-15-15.027-15-8.3 0-15.027 6.716-15.027 15zM18.784 4.543c5.223 0 9.604 3.66 10.707 8.546h-1.588c-1.069-4.028-4.752-7.006-9.119-7.006s-8.05 2.978-9.12 7.006H8.077C9.18 8.204 13.56 4.543 18.784 4.543zm-2.696 17.103a1.925 1.925 0 001.925-1.922v-8.448a3.468 3.468 0 013.467-3.461v1.54a1.925 1.925 0 00-1.925 1.92v8.45a3.468 3.468 0 01-3.467 3.46v-1.54zm12.098-5.376a9.477 9.477 0 000-1.54h3.993v1.54h-2.446c-.397 5.683-5.156 10.187-10.949 10.187S8.232 21.953 7.835 16.27H5.388v-1.54h3.994a9.562 9.562 0 000 1.54c.393 4.834 4.46 8.647 9.402 8.647 4.942 0 9.009-3.813 9.402-8.647zm20.486 6.977c-1.06 0-1.997-.178-2.81-.536-.813-.371-1.454-.893-1.922-1.567-.468-.688-.71-1.52-.723-2.496h2.79c.027.674.268 1.244.723 1.712.468.454 1.108.68 1.921.68.703 0 1.26-.164 1.674-.494.413-.344.62-.798.62-1.362 0-.59-.186-1.052-.558-1.382-.358-.33-.84-.598-1.447-.804l-1.942-.66c-1.116-.385-1.97-.88-2.562-1.485-.578-.605-.868-1.41-.868-2.413-.014-.852.186-1.581.6-2.186.426-.619 1.005-1.093 1.735-1.423.73-.344 1.57-.516 2.52-.516.965 0 1.812.172 2.542.516.744.343 1.323.825 1.736 1.443.427.62.654 1.355.682 2.207h-2.83c-.015-.508-.214-.955-.6-1.34-.372-.4-.896-.598-1.57-.598-.579-.014-1.068.13-1.468.433-.385.288-.578.715-.578 1.278 0 .482.151.867.455 1.155.303.275.716.51 1.24.702.523.192 1.122.398 1.797.618.716.248 1.37.537 1.963.867.592.33 1.067.77 1.425 1.32.359.536.538 1.23.538 2.083 0 .756-.193 1.457-.579 2.104-.386.646-.957 1.168-1.715 1.567-.757.385-1.687.577-2.79.577zM59.533 23c-1.074 0-1.935-.261-2.582-.784-.648-.522-.971-1.45-.971-2.784v-4.455h-1.757V12.77h1.757l.31-2.743h2.334v2.743h2.77v2.207h-2.77v4.476c0 .495.104.838.31 1.03.22.18.593.269 1.116.269h1.281V23h-1.798zm6.631.247c-.882 0-1.605-.137-2.17-.412-.564-.289-.984-.667-1.26-1.134a2.99 2.99 0 01-.413-1.547c0-.949.372-1.719 1.116-2.31.743-.591 1.86-.887 3.347-.887h2.603v-.248c0-.7-.2-1.216-.599-1.546-.4-.33-.895-.495-1.488-.495-.537 0-1.005.13-1.405.391-.4.248-.647.62-.743 1.114h-2.583c.069-.742.317-1.389.744-1.939a4.212 4.212 0 011.694-1.258c.689-.302 1.46-.454 2.314-.454 1.46 0 2.61.365 3.45 1.094.84.728 1.261 1.76 1.261 3.093V23H69.78l-.248-1.65a3.786 3.786 0 01-1.281 1.361c-.537.358-1.233.537-2.087.537zm.6-2.062c.757 0 1.342-.247 1.755-.742.427-.495.696-1.107.806-1.836h-2.252c-.702 0-1.205.13-1.508.392-.303.247-.455.557-.455.928 0 .399.152.708.455.928.303.22.702.33 1.198.33zm12.833 2.062c-.771 0-1.446-.144-2.024-.433a3.648 3.648 0 01-1.405-1.216L75.877 23h-2.355V8.15h2.645v6.084a4.76 4.76 0 011.301-1.196c.551-.344 1.26-.515 2.128-.515.965 0 1.826.233 2.583.7a5.028 5.028 0 011.798 1.919c.44.811.661 1.732.661 2.764 0 1.03-.22 1.952-.661 2.763a5.07 5.07 0 01-1.798 1.898c-.757.454-1.618.68-2.583.68zm-.557-2.31c.84 0 1.535-.281 2.086-.845.551-.564.827-1.293.827-2.186 0-.894-.276-1.63-.827-2.207-.55-.578-1.246-.867-2.087-.867-.853 0-1.556.29-2.107.867-.537.563-.806 1.292-.806 2.186 0 .894.269 1.63.806 2.207.551.564 1.254.846 2.108.846zM85.969 23V8.15h2.644V23H85.97zm9.293.247c-1.033 0-1.949-.22-2.748-.66a4.78 4.78 0 01-1.88-1.856c-.455-.797-.682-1.719-.682-2.764 0-1.058.22-2 .661-2.825a4.892 4.892 0 011.86-1.918c.799-.468 1.735-.701 2.81-.701 1.005 0 1.894.22 2.665.66a4.65 4.65 0 011.798 1.815c.441.756.661 1.601.661 2.536 0 .152-.007.31-.021.475 0 .165-.007.337-.02.515h-7.79c.055.798.33 1.424.827 1.877.51.454 1.122.68 1.838.68.538 0 .985-.116 1.344-.35.371-.247.647-.564.826-.949h2.686a4.877 4.877 0 01-.971 1.774c-.44.523-.992.935-1.653 1.238-.647.302-1.384.453-2.21.453zm.02-8.58c-.647 0-1.218.186-1.714.557-.496.358-.813.908-.95 1.65h5.103c-.041-.673-.29-1.21-.744-1.608-.455-.4-1.02-.598-1.694-.598zm11.957 8.58c-1.061 0-2.018-.206-2.872-.618a4.902 4.902 0 01-2.046-1.918c-.495-.853-.743-1.932-.743-3.238v-8.91h2.644v8.93c0 1.128.269 1.966.806 2.516.551.55 1.309.825 2.273.825.95 0 1.701-.275 2.252-.825.551-.55.827-1.388.827-2.516v-8.93h2.644v8.91c0 1.306-.261 2.385-.785 3.238a4.97 4.97 0 01-2.107 1.918c-.868.412-1.832.618-2.893.618zm7.39-.247V12.77h2.335l.207 1.732a3.615 3.615 0 011.363-1.443c.606-.358 1.316-.536 2.129-.536 1.267 0 2.252.398 2.954 1.196.703.797 1.054 1.966 1.054 3.506V23h-2.645v-5.527c0-.88-.179-1.554-.537-2.022-.358-.467-.916-.701-1.674-.701-.743 0-1.356.261-1.839.784-.468.522-.702 1.251-.702 2.186V23h-2.645zm12.964-11.818c-.483 0-.882-.145-1.199-.433a1.445 1.445 0 01-.454-1.093c0-.44.151-.798.454-1.073.317-.289.716-.433 1.199-.433.482 0 .874.144 1.177.433.317.275.476.633.476 1.073 0 .44-.159.804-.476 1.093-.303.288-.695.433-1.177.433zM126.27 23V12.77h2.645V23h-2.645zm8.939 0c-1.075 0-1.936-.261-2.583-.784-.648-.522-.971-1.45-.971-2.784v-4.455h-1.757V12.77h1.757l.31-2.743h2.335v2.743h2.768v2.207H134.3v4.476c0 .495.103.838.309 1.03.221.18.593.269 1.116.269h1.281V23h-1.797z"/></g><defs><clipPath id="clip0_4324_11789"><path fill="#fff" transform="translate(0 .5)" d="M0 0h139v30H0z"/></clipPath></defs></svg>