<svg width="35" height="60" fill="none" xmlns="http://www.w3.org/2000/svg"><g clip-path="url(#clip0_4322_5216)" fill="#FF8947"><path d="M2.834 27.8l-.334.508C-1.333 34.4-.5 42.353 4.667 47.43 7.5 50.477 11.501 52 15.501 52L2.834 27.8z"/><path opacity=".6" d="M28.167 27.8l.333.508c3.833 6.092 3 14.046-2.167 19.123C23.333 50.477 19.5 52 15.5 52l12.667-24.2z"/><path opacity=".2" d="M15.5 35.077l12.667-7.446L15.5 52V35.076z"/><path opacity=".6" d="M15.5 35.077L2.833 27.631 15.5 52V35.076z"/><path opacity=".2" d="M15.5 18.662v12.692l11-6.262-11-6.43z"/><path opacity=".6" d="M15.5 18.662l-11 6.43 11 6.262V18.662zm0 0l11 6.43L15.5 8v10.662z"/><path d="M15.5 8l-11 17.092 11-6.43V8z"/></g><defs><clipPath id="clip0_4322_5216"><path fill="#fff" transform="translate(0 8)" d="M0 0h31v44H0z"/></clipPath></defs></svg>