<svg width="63" height="62" fill="none" xmlns="http://www.w3.org/2000/svg"><mask id="mask0_2044_1821" style="mask-type:alpha" maskUnits="userSpaceOnUse" x="0" y="0" width="63" height="62"><rect width="63" height="62" rx="31" fill="#FD971F"/></mask><g mask="url(#mask0_2044_1821)"><mask id="path-2-outside-1_2044_1821" maskUnits="userSpaceOnUse" x="21.418" y="25.445" width="7" height="9" fill="#000"><path fill="#fff" d="M21.418 25.445h7v9h-7z"/><path d="M24.606 33.068c.082.02.133.082.122.174v.02c-.01.102-.091.163-.183.143-1.253-.255-2.058-1.6-2.058-3.465 0-1.875.805-3.21 2.058-3.475.092-.02.163.04.173.143v.02a.168.168 0 01-.122.183c-1.08.225-1.763 1.437-1.763 3.129 0 1.691.693 2.904 1.773 3.128zm.673-6.46c.01-.102.091-.163.183-.143 1.253.265 2.048 1.6 2.048 3.475 0 1.865-.795 3.21-2.048 3.465-.092.02-.173-.031-.183-.133v-.03c-.01-.092.04-.163.122-.174 1.08-.234 1.773-1.437 1.773-3.128 0-1.692-.693-2.904-1.773-3.129a.157.157 0 01-.122-.173v-.03z"/></mask><path d="M24.606 33.068c.082.02.133.082.122.174v.02c-.01.102-.091.163-.183.143-1.253-.255-2.058-1.6-2.058-3.465 0-1.875.805-3.21 2.058-3.475.092-.02.163.04.173.143v.02a.168.168 0 01-.122.183c-1.08.225-1.763 1.437-1.763 3.129 0 1.691.693 2.904 1.773 3.128zm.673-6.46c.01-.102.091-.163.183-.143 1.253.265 2.048 1.6 2.048 3.475 0 1.865-.795 3.21-2.048 3.465-.092.02-.173-.031-.183-.133v-.03c-.01-.092.04-.163.122-.174 1.08-.234 1.773-1.437 1.773-3.128 0-1.692-.693-2.904-1.773-3.129a.157.157 0 01-.122-.173v-.03z" fill="#FF6C1A"/><path d="M24.606 33.068l.074-.296-.012-.003-.062.3zm.122.174l-.303-.034-.002.017v.017h.305zm0 .02l.305.03.001-.015v-.015h-.306zm-.183.143l.066-.299-.005-.001-.061.3zm0-6.94l.063.3.003-.002-.066-.298zm.173.143h.306v-.016l-.002-.015-.304.03zm0 .02h-.305v.02l.002.018.303-.038zm-.122.183l.062.3.012-.003-.074-.297zm.683-.203l-.305-.03-.001.014v.016h.306zm.183-.143l-.066.298.003.001.063-.299zm0 6.94l-.06-.3-.006.001.066.299zm-.183-.133h-.306v.015l.002.016.304-.03zm0-.03h.305v-.017l-.001-.017-.304.034zm.122-.174l.038.304.014-.002.013-.003-.065-.299zm0-6.256l-.074.296.012.003.062-.3zm-.122-.174l.303.038.002-.019v-.019h-.305zm-.747 6.727a.143.143 0 01-.076-.055.152.152 0 01-.031-.102l.607.067a.462.462 0 00-.084-.329.47.47 0 00-.268-.174l-.148.593zm-.11-.123v.02h.612v-.02h-.611zm.002-.01a.14.14 0 01.057-.095.16.16 0 01.13-.03l-.132.596a.456.456 0 00.554-.41l-.609-.062zm.182-.127c-1.042-.212-1.814-1.36-1.814-3.165h-.611c0 1.925.838 3.466 2.303 3.764l.122-.599zm-1.814-3.165c0-1.813.771-2.955 1.816-3.176l-.126-.598c-1.462.309-2.301 1.837-2.301 3.774h.611zm1.82-3.177a.174.174 0 01-.145-.038.138.138 0 01-.053-.087l.608-.06a.475.475 0 00-.164-.322.438.438 0 00-.38-.09l.133.597zm-.2-.155v.02h.612v-.02h-.611zm.003.058a.138.138 0 01.107-.151l.148.593a.473.473 0 00.352-.518l-.607.076zm.119-.154c-1.3.27-2.007 1.69-2.007 3.428h.612c0-1.645.659-2.65 1.52-2.83l-.125-.598zm-2.007 3.428c0 1.74.718 3.158 2.017 3.428l.124-.6c-.861-.178-1.53-1.185-1.53-2.828h-.61zm3.056-3.302a.142.142 0 01-.057.095.161.161 0 01-.13.03l.133-.596a.456.456 0 00-.555.41l.609.061zm-.184.126c1.043.22 1.806 1.361 1.806 3.176h.611c0-1.936-.827-3.465-2.29-3.774l-.127.598zm1.806 3.176c0 1.806-.763 2.954-1.804 3.165l.122.6c1.466-.299 2.293-1.842 2.293-3.765h-.611zm-1.81 3.166a.154.154 0 01.119.027c.049.033.066.08.069.109l-.608.06c.012.13.076.254.19.334a.459.459 0 00.364.067l-.133-.597zm.19.166v-.03h-.612v.03h.611zm-.002-.064a.14.14 0 01-.028.093.17.17 0 01-.116.07l-.076-.606c-.276.034-.413.282-.388.51l.608-.067zm-.117.159c1.294-.28 2.014-1.684 2.014-3.427h-.612c0 1.64-.666 2.642-1.532 2.83l.13.597zm2.014-3.427c0-1.74-.718-3.158-2.017-3.428l-.124.599c.862.179 1.53 1.186 1.53 2.829h.61zm-2.005-3.425a.15.15 0 01.107.161l-.607-.076a.462.462 0 00.352.508l.148-.593zm.11.123v-.03h-.612v.03h.611z" fill="#FF6C1A" mask="url(#path-2-outside-1_2044_1821)"/><mask id="path-4-outside-2_2044_1821" maskUnits="userSpaceOnUse" x="38.98" y="32.68" width="7" height="9" fill="#000"><path fill="#fff" d="M38.98 32.68h7v9h-7z"/><path d="M42.168 40.303c.081.02.132.082.122.174v.02c-.01.102-.092.163-.184.143-1.253-.255-2.058-1.6-2.058-3.465 0-1.875.805-3.21 2.058-3.475.092-.02.164.04.174.143v.02a.168.168 0 01-.123.184c-1.08.224-1.762 1.436-1.762 3.128 0 1.692.692 2.904 1.773 3.128zm.672-6.46c.01-.102.092-.163.184-.143 1.253.265 2.048 1.6 2.048 3.475 0 1.865-.795 3.21-2.048 3.465-.092.02-.174-.03-.184-.133v-.03c-.01-.092.041-.163.122-.174 1.08-.234 1.774-1.436 1.774-3.128 0-1.692-.693-2.904-1.773-3.128a.157.157 0 01-.123-.174v-.03z"/></mask><path d="M42.168 40.303c.081.02.132.082.122.174v.02c-.01.102-.092.163-.184.143-1.253-.255-2.058-1.6-2.058-3.465 0-1.875.805-3.21 2.058-3.475.092-.02.164.04.174.143v.02a.168.168 0 01-.123.184c-1.08.224-1.762 1.436-1.762 3.128 0 1.692.692 2.904 1.773 3.128zm.672-6.46c.01-.102.092-.163.184-.143 1.253.265 2.048 1.6 2.048 3.475 0 1.865-.795 3.21-2.048 3.465-.092.02-.174-.03-.184-.133v-.03c-.01-.092.041-.163.122-.174 1.08-.234 1.774-1.436 1.774-3.128 0-1.692-.693-2.904-1.773-3.128a.157.157 0 01-.123-.174v-.03z" fill="#FF6C1A"/><path d="M42.168 40.303l.074-.296-.012-.003-.062.3zm.122.174l-.304-.034-.002.017v.017h.306zm0 .02l.304.03.002-.015v-.015h-.306zm-.184.143l.067-.299h-.006l-.06.299zm0-6.94l.064.3.003-.002-.067-.298zm.174.143h.306v-.016l-.002-.015-.304.03zm0 .02h-.306v.02l.002.018.304-.038zm-.123.184l.063.3.012-.004-.075-.296zm.683-.204l-.304-.03-.002.014v.016h.306zm.184-.143l-.067.298.003.001.064-.299zm0 6.94l-.061-.3-.006.001.067.299zm-.184-.133h-.306v.015l.002.016.304-.03zm0-.03h.306v-.017l-.002-.017-.304.034zm.122-.174l.038.304.014-.002.013-.003-.065-.299zm0-6.256l-.074.296.012.003.063-.3zm-.122-.174l.304.038.002-.019v-.019h-.306zm-.747 6.727a.143.143 0 01-.076-.055.151.151 0 01-.03-.102l.607.067a.462.462 0 00-.085-.328.471.471 0 00-.267-.175l-.148.593zm-.109-.123v.02h.612v-.02h-.612zm.002-.01a.141.141 0 01.056-.095.16.16 0 01.13-.03l-.132.596a.456.456 0 00.554-.41l-.608-.061zm.181-.127c-1.041-.212-1.813-1.36-1.813-3.165h-.612c0 1.925.839 3.467 2.304 3.764l.121-.599zm-1.813-3.165c0-1.813.77-2.955 1.816-3.176l-.127-.598c-1.462.309-2.3 1.837-2.3 3.774h.61zm1.819-3.176a.173.173 0 01-.145-.039.138.138 0 01-.052-.087l.608-.06a.476.476 0 00-.165-.322.438.438 0 00-.379-.09l.133.597zm-.199-.156v.02h.612v-.02h-.612zm.002.058a.138.138 0 01.107-.151l.149.593a.473.473 0 00.351-.518l-.607.076zm.12-.154c-1.3.27-2.007 1.69-2.007 3.428h.611c0-1.645.66-2.65 1.52-2.83l-.125-.598zm-2.007 3.428c0 1.74.718 3.158 2.017 3.428l.124-.599c-.862-.179-1.53-1.186-1.53-2.829h-.611zm3.055-3.302a.142.142 0 01-.056.095.16.16 0 01-.13.03l.132-.596a.456.456 0 00-.554.41l.608.061zM42.96 34c1.044.22 1.806 1.361 1.806 3.176h.612c0-1.935-.828-3.465-2.291-3.774L42.96 34zm1.806 3.176c0 1.806-.763 2.954-1.803 3.165l.122.6c1.466-.299 2.293-1.841 2.293-3.765h-.612zm-1.809 3.166a.153.153 0 01.118.027c.05.034.067.08.07.109l-.609.06c.013.13.076.254.191.334a.459.459 0 00.363.067l-.133-.597zm.189.166v-.03h-.611v.03h.611zm-.002-.064a.14.14 0 01-.027.093.17.17 0 01-.117.07L42.925 40c-.276.035-.414.283-.389.51l.608-.067zm-.117.16c1.295-.282 2.014-1.685 2.014-3.428h-.611c0 1.64-.666 2.642-1.532 2.83l.13.597zm2.014-3.428c0-1.74-.718-3.158-2.016-3.428l-.125.599c.862.179 1.53 1.186 1.53 2.829h.611zm-2.004-3.425a.141.141 0 01.08.056c.022.032.03.07.027.105l-.607-.076a.462.462 0 00.351.508l.149-.593zm.109.123v-.03h-.611v.03h.611z" fill="#FF6C1A" mask="url(#path-4-outside-2_2044_1821)"/><mask id="path-6-outside-3_2044_1821" maskUnits="userSpaceOnUse" x="37.961" y="12.3" width="3" height="9" fill="#000"><path fill="#fff" d="M37.961 12.3h3v9h-3z"/><path d="M40.385 13.289c.062.03.112.092.112.163v6.685c0 .091-.081.163-.173.163-.102 0-.173-.072-.173-.163V13.87l-.958.978c-.071.061-.173.071-.244 0-.072-.061-.072-.173 0-.245l1.253-1.273c.04-.051.122-.062.183-.041z"/></mask><path d="M40.385 13.289c.062.03.112.092.112.163v6.685c0 .091-.081.163-.173.163-.102 0-.173-.072-.173-.163V13.87l-.958.978c-.071.061-.173.071-.244 0-.072-.061-.072-.173 0-.245l1.253-1.273c.04-.051.122-.062.183-.041z" fill="#FF6C1A"/><path d="M40.385 13.289l.137-.274-.02-.01-.02-.006-.097.29zm-.234.58h.306v-.748l-.525.535.219.214zm-.958.979l.199.232.01-.009.01-.01-.219-.213zm-.244 0l.216-.216-.009-.008-.008-.008-.2.232zm0-.245l.216.217.001-.002-.217-.214zm1.253-1.273l.218.214.01-.011.01-.012-.238-.191zm.047.232a.086.086 0 01-.032-.027.142.142 0 01-.025-.083h.611a.496.496 0 00-.28-.437l-.274.547zm-.057-.11v6.685h.611v-6.685h-.611zm0 6.685c0-.049.022-.087.046-.11a.126.126 0 01.086-.033v.611a.475.475 0 00.48-.468h-.612zm.132-.143c.022 0 .056.009.087.038.03.03.046.069.046.105h-.612c0 .272.22.468.48.468v-.61zm.133.143V13.87h-.612v6.267h.612zm-.525-6.481l-.957.978.436.428.958-.978-.437-.428zm-.938.96a.108.108 0 01.068-.024.143.143 0 01.103.04l-.433.432c.21.21.497.156.66.016l-.398-.464zm.154 0a.14.14 0 01.017.204l-.433-.433a.472.472 0 00.018.693l.398-.464zm.018.202l1.254-1.274-.436-.429-1.253 1.274.435.429zm1.275-1.297a.167.167 0 01-.097.062.104.104 0 01-.055-.004l.193-.58a.507.507 0 00-.254-.017.445.445 0 00-.265.157l.478.382z" fill="#FF6C1A" mask="url(#path-6-outside-3_2044_1821)"/><mask id="path-8-outside-4_2044_1821" maskUnits="userSpaceOnUse" x="12.655" y="25.445" width="3" height="9" fill="#000"><path fill="#fff" d="M12.655 25.445h3v9h-3z"/><path d="M15.079 26.434c.06.031.112.092.112.163v6.685c0 .092-.082.163-.173.163-.102 0-.174-.071-.174-.163v-6.267l-.957.979c-.072.06-.174.07-.245 0-.071-.062-.071-.174 0-.245l1.253-1.274c.041-.05.123-.061.184-.04z"/></mask><path d="M15.079 26.434c.06.031.112.092.112.163v6.685c0 .092-.082.163-.173.163-.102 0-.174-.071-.174-.163v-6.267l-.957.979c-.072.06-.174.07-.245 0-.071-.062-.071-.174 0-.245l1.253-1.274c.041-.05.123-.061.184-.04z" fill="#FF6C1A"/><path d="M15.079 26.434l.136-.273-.019-.01-.02-.007-.097.29zm-.235.581h.306v-.749l-.524.535.218.214zm-.957.979l.198.232.01-.01.01-.009-.219-.213zm-.245 0l.216-.217-.008-.008-.01-.008-.198.233zm0-.245l.216.216.002-.002-.218-.214zm1.253-1.274l.218.215.011-.012.01-.012-.239-.19zm.047.233a.085.085 0 01-.032-.027.142.142 0 01-.025-.084h.611a.496.496 0 00-.28-.436l-.274.547zm-.057-.11v6.684h.611v-6.684h-.61zm0 6.684c0-.048.022-.086.047-.109a.126.126 0 01.086-.033v.611a.475.475 0 00.478-.469h-.61zm.133-.142c.021 0 .056.008.086.038.03.029.046.068.046.104h-.611c0 .273.22.469.479.469v-.611zm.132.142v-6.267h-.611v6.267h.611zm-.524-6.48l-.958.978.437.427.958-.978-.437-.428zm-.938.96a.108.108 0 01.067-.024.143.143 0 01.103.04l-.432.432c.21.21.496.155.66.016l-.399-.465zm.153 0a.14.14 0 01.017.203l-.432-.432a.472.472 0 00.017.693l.398-.465zm.019.201l1.253-1.273-.436-.43-1.253 1.274.436.43zm1.274-1.297a.168.168 0 01-.097.062.105.105 0 01-.055-.004l.193-.58a.507.507 0 00-.253-.016.445.445 0 00-.265.156l.477.382z" fill="#FF6C1A" mask="url(#path-8-outside-4_2044_1821)"/><mask id="path-10-outside-5_2044_1821" maskUnits="userSpaceOnUse" x="23.609" y="39.321" width="3" height="9" fill="#000"><path fill="#fff" d="M23.609 39.321h3v9h-3z"/><path d="M26.033 40.31c.061.03.112.092.112.163v6.685c0 .092-.082.163-.173.163-.102 0-.174-.071-.174-.163v-6.267l-.957.978c-.072.061-.174.072-.245 0-.071-.06-.071-.173 0-.244l1.253-1.274c.041-.051.123-.061.184-.04z"/></mask><path d="M26.033 40.31c.061.03.112.092.112.163v6.685c0 .092-.082.163-.173.163-.102 0-.174-.071-.174-.163v-6.267l-.957.978c-.072.061-.174.072-.245 0-.071-.06-.071-.173 0-.244l1.253-1.274c.041-.051.123-.061.184-.04z" fill="#FF6C1A"/><path d="M26.033 40.31l.136-.273-.019-.01-.02-.007-.097.29zm-.235.581h.306v-.75l-.524.536.218.214zm-.957.978l.198.232.01-.008.01-.01-.218-.214zm-.245 0l.216-.216-.008-.008-.01-.008-.198.232zm0-.244l.216.216.002-.002-.218-.214zm1.253-1.274l.218.214.011-.01.01-.013-.239-.191zm.047.233a.085.085 0 01-.031-.028.141.141 0 01-.026-.083h.612a.496.496 0 00-.282-.436l-.273.547zm-.057-.11v6.684h.612v-6.685h-.612zm0 6.684a.15.15 0 01.047-.11.126.126 0 01.086-.033v.612a.475.475 0 00.479-.469h-.612zm.133-.143a.13.13 0 01.086.038c.031.03.046.069.046.105h-.611c0 .273.22.469.479.469v-.612zm.132.143v-6.267h-.611v6.267h.611zm-.524-6.48l-.958.977.437.428.958-.978-.437-.428zm-.938.96a.108.108 0 01.067-.025.142.142 0 01.103.04l-.432.432c.21.21.497.156.66.016l-.398-.464zm.153 0a.14.14 0 01.017.203l-.432-.433a.472.472 0 00.017.693l.398-.464zm.019.201l1.253-1.274-.436-.428-1.253 1.273.436.43zm1.274-1.297a.168.168 0 01-.097.062.105.105 0 01-.055-.004l.194-.58a.507.507 0 00-.254-.016.444.444 0 00-.265.156l.477.382z" fill="#FF6C1A" mask="url(#path-10-outside-5_2044_1821)"/><path d="M15 23.509h16.355M34 30.643h23.013m-69.013 0h23.013m36.138 7.132H60.4m-38.724 0h13.248m-30.572 0h13.247m28.534-20.38h5.095M30.643 44.909h19.564m3.058 0h5.095m-51.087.254h13.876m21.415-21.654h15.795M8.733 17.412h26.291" stroke="#FF6C1A"/><rect x=".5" y=".5" width="62" height="61" rx="30.5" stroke="#FF6C1A"/></g></svg>