<svg width="63" height="62" fill="none" xmlns="http://www.w3.org/2000/svg"><path d="M30.315 23.513l4.741-2.07 5.05 3.001" stroke="#FF6C1A" stroke-width="1.12" stroke-miterlimit="10"/><path d="M27.532 30.864l3.774-1.883-3.774-6.62 7.523-8.061 8.76 2.691-1.854 2.07 1.855 6.33-3.401 3.75 4.737.79 6.084 6.73v5.563H38.401l.056-3.7 9.275-.828" stroke="#FF6C1A" stroke-width="1.12" stroke-miterlimit="10"/><path d="M32.409 22.595s-.503 4.89 2.46 5.162c2.27.207 2.97-4.555 2.97-4.555m-5.356 18.635H14.436L10 28.26h16.663l3.346 10.885h8.439M17.02 18.544v4.762m7.205-2.203l-3.498 3.514m-10.718-3.514l3.498 3.514" stroke="#FF6C1A" stroke-width="1.12" stroke-miterlimit="10"/><rect x=".5" y=".5" width="62" height="61" rx="30.5" stroke="#FF6C1A"/></svg>