<svg width="48" height="53" fill="none" xmlns="http://www.w3.org/2000/svg"><path d="M13.277 20.877v9.487c0 .797.422 1.529 1.12 1.928l8.224 4.743a2.228 2.228 0 002.23 0l8.224-4.743a2.234 2.234 0 001.12-1.928v-9.487c0-.798-.421-1.53-1.12-1.928l-8.224-4.743a2.228 2.228 0 00-2.23 0l-8.223 4.743a2.234 2.234 0 00-1.121 1.928z" stroke="#FF6C1A" stroke-width="1.5" stroke-miterlimit="10"/><path fill-rule="evenodd" clip-rule="evenodd" d="M28.163 3.74a9.25 9.25 0 00-9.339.007l-12.733 7.46a9.25 9.25 0 00-4.575 7.98v14.577a9.25 9.25 0 004.458 7.912l12.733 7.713a9.25 9.25 0 009.573.007l12.792-7.723a9.25 9.25 0 004.469-7.918V19.197a9.25 9.25 0 00-4.586-7.988L28.163 3.74zM18.066 2.454a10.75 10.75 0 0110.854-.008l12.79 7.468a10.75 10.75 0 015.33 9.283v14.558a10.75 10.75 0 01-5.194 9.203l-12.79 7.722a10.75 10.75 0 01-11.126-.008L5.197 42.96a10.75 10.75 0 01-5.18-9.195V19.187a10.75 10.75 0 015.316-9.275l12.733-7.459z" fill="#FF6C1A"/></svg>