<svg width="49" height="53" fill="none" xmlns="http://www.w3.org/2000/svg"><mask id="path-1-outside-1_2054_1802" maskUnits="userSpaceOnUse" x="9.392" y="8.059" width="14" height="22" fill="#000"><path fill="#fff" d="M9.392 8.059h14v22h-14z"/><path d="M21.733 23.457c0 1.066-.269 1.961-.806 2.685-.537.716-1.265 1.258-2.185 1.624-.92.358-1.961.537-3.125.537a16.24 16.24 0 01-1.977-.11 13.34 13.34 0 01-1.6-.268 11.138 11.138 0 01-1.293-.391v-1.257c.634.244 1.367.46 2.197.647.838.179 1.75.268 2.734.268.928 0 1.75-.134 2.466-.403.724-.268 1.294-.675 1.709-1.22.415-.546.623-1.233.623-2.063 0-.733-.175-1.331-.525-1.795-.342-.472-.859-.875-1.55-1.208-.692-.342-1.563-.688-2.613-1.038a22 22 0 01-2.002-.793 6.826 6.826 0 01-1.526-.977 3.811 3.811 0 01-.976-1.343c-.22-.529-.33-1.151-.33-1.867 0-.985.248-1.811.745-2.478.504-.676 1.184-1.184 2.038-1.526.863-.35 1.831-.525 2.906-.525.854 0 1.664.081 2.429.244.773.155 1.518.39 2.234.708l-.44 1.086a10.948 10.948 0 00-2.148-.683 10.578 10.578 0 00-2.124-.22c-.839 0-1.587.126-2.246.379-.651.244-1.168.614-1.55 1.11-.383.497-.574 1.123-.574 1.88 0 .781.175 1.412.524 1.892.359.48.863.88 1.514 1.197.66.317 1.437.626 2.332.927 1.058.358 1.97.737 2.734 1.136.765.39 1.355.887 1.77 1.489.423.602.635 1.387.635 2.356z"/></mask><path d="M21.733 23.457c0 1.066-.269 1.961-.806 2.685-.537.716-1.265 1.258-2.185 1.624-.92.358-1.961.537-3.125.537a16.24 16.24 0 01-1.977-.11 13.34 13.34 0 01-1.6-.268 11.138 11.138 0 01-1.293-.391v-1.257c.634.244 1.367.46 2.197.647.838.179 1.75.268 2.734.268.928 0 1.75-.134 2.466-.403.724-.268 1.294-.675 1.709-1.22.415-.546.623-1.233.623-2.063 0-.733-.175-1.331-.525-1.795-.342-.472-.859-.875-1.55-1.208-.692-.342-1.563-.688-2.613-1.038a22 22 0 01-2.002-.793 6.826 6.826 0 01-1.526-.977 3.811 3.811 0 01-.976-1.343c-.22-.529-.33-1.151-.33-1.867 0-.985.248-1.811.745-2.478.504-.676 1.184-1.184 2.038-1.526.863-.35 1.831-.525 2.906-.525.854 0 1.664.081 2.429.244.773.155 1.518.39 2.234.708l-.44 1.086a10.948 10.948 0 00-2.148-.683 10.578 10.578 0 00-2.124-.22c-.839 0-1.587.126-2.246.379-.651.244-1.168.614-1.55 1.11-.383.497-.574 1.123-.574 1.88 0 .781.175 1.412.524 1.892.359.48.863.88 1.514 1.197.66.317 1.437.626 2.332.927 1.058.358 1.97.737 2.734 1.136.765.39 1.355.887 1.77 1.489.423.602.635 1.387.635 2.356z" fill="#202020"/><path d="M20.927 26.142l.8.6.003-.004-.803-.596zm-2.185 1.624l.363.932.007-.003-.37-.93zm-5.102.427l.122-.992-.012-.002-.11.994zm-1.6-.268l-.234.972h.004l.23-.972zm-1.293-.391h-1v.693l.649.243.35-.936zm0-1.257l.359-.934-1.36-.522v1.456h1zm2.197.647l-.22.975.011.002.209-.977zm5.2-.135l-.348-.937-.003.001.351.936zm1.807-5.078l-.81.587.006.008.005.007.799-.602zm-1.55-1.208l-.444.896.009.004.434-.9zm-2.613-1.038l-.326.946.01.003.316-.949zm-2.002-.793l-.432.901.007.004.008.003.417-.908zm-1.526-.977l-.662.75.008.006.654-.756zm-.976-1.343l-.924.384.004.008.003.01.917-.402zm.415-4.345l-.801-.599-.002.002.803.597zm2.038-1.526l.372.928.004-.002-.376-.926zm5.335-.281l-.208.978.012.002.196-.98zm2.234.708l.927.375.363-.897-.885-.392-.405.914zm-.44 1.086l-.396.918.94.406.383-.949-.927-.375zm-6.518-.524l.35.936.007-.003-.357-.934zm-1.6 4.882l-.808.59.007.008.802-.598zm1.514 1.197l-.438.899.004.002.434-.901zm2.332.927l.32-.947h-.001l-.32.947zm2.734 1.136l-.462.886.007.004.455-.89zm1.77 1.489l-.823.567.005.008.818-.575zm-.365 2.356c0 .892-.222 1.567-.609 2.09l1.607 1.191c.686-.926 1.002-2.041 1.002-3.281h-2zm-.606 2.085c-.415.554-.987.99-1.755 1.295l.74 1.858c1.072-.427 1.956-1.074 2.615-1.953l-1.6-1.2zm-1.748 1.292c-.785.306-1.7.469-2.762.469v2c1.266 0 2.434-.195 3.488-.605l-.726-1.864zm-2.762.469c-.691 0-1.309-.035-1.855-.102l-.245 1.985c.642.079 1.343.117 2.1.117v-2zm-1.867-.104a12.331 12.331 0 01-1.479-.247l-.461 1.945c.526.126 1.1.221 1.72.29l.22-1.988zm-1.475-.247a9.969 9.969 0 01-1.177-.354l-.703 1.872c.435.163.906.305 1.41.427l.47-1.944zm-.528.582v-1.257h-2v1.257h2zm-1.36-.324c.69.265 1.47.494 2.337.69l.44-1.952a14.92 14.92 0 01-2.058-.605l-.718 1.867zm2.348.691c.916.196 1.899.291 2.943.291v-2c-.924 0-1.765-.084-2.525-.246l-.418 1.955zm2.943.291c1.023 0 1.968-.148 2.817-.466l-.702-1.873c-.583.218-1.282.34-2.115.34v2zm2.814-.465c.878-.326 1.613-.838 2.157-1.553l-1.592-1.211c-.286.376-.69.677-1.26.889l.695 1.875zm2.157-1.553c.573-.753.827-1.667.827-2.668h-2c0 .658-.162 1.12-.419 1.457l1.592 1.211zm.827-2.668c0-.893-.215-1.719-.727-2.397l-1.597 1.204c.189.25.324.62.324 1.193h2zm-.715-2.381c-.465-.642-1.131-1.14-1.926-1.523l-.87 1.801c.59.284.957.593 1.176.895l1.62-1.173zm-1.918-1.519c-.746-.369-1.662-.73-2.739-1.09l-.632 1.898c1.023.34 1.848.67 2.485.985l.886-1.793zm-2.73-1.086a20.887 20.887 0 01-1.91-.757l-.834 1.817c.636.293 1.335.57 2.093.83l.652-1.89zm-1.894-.75a5.837 5.837 0 01-1.304-.831l-1.31 1.512a7.819 7.819 0 001.749 1.122l.865-1.803zm-1.296-.824a2.812 2.812 0 01-.723-.995l-1.832.802c.285.653.697 1.22 1.23 1.691l1.325-1.498zm-.716-.977c-.158-.381-.253-.868-.253-1.484h-2c0 .816.125 1.574.406 2.25l1.847-.766zm-.253-1.484c0-.81.201-1.417.547-1.881l-1.605-1.194c-.647.87-.942 1.916-.942 3.075h2zm.546-1.88c.384-.515.909-.916 1.609-1.196l-.743-1.857c-1.01.404-1.844 1.02-2.468 1.856l1.602 1.197zm1.613-1.198c.726-.294 1.565-.451 2.53-.451v-2c-1.184 0-2.283.193-3.282.598l.752 1.853zm2.53-.451c.79 0 1.53.075 2.22.222l.417-1.956c-.84-.179-1.72-.266-2.637-.266v2zm2.233.225c.701.14 1.376.354 2.024.641l.81-1.828a11.652 11.652 0 00-2.442-.775l-.392 1.962zm1.503-.648l-.44 1.086 1.854.75.44-1.086-1.854-.75zm.884.543a11.952 11.952 0 00-2.345-.745l-.4 1.96a9.952 9.952 0 011.952.621l.793-1.836zm-2.345-.745c-.779-.16-1.554-.24-2.324-.24v2c.63 0 1.27.066 1.923.2l.401-1.96zm-2.324-.24c-.938 0-1.811.141-2.604.445l.715 1.867c.526-.2 1.15-.312 1.889-.312v-2zm-2.598.442c-.805.302-1.482.777-1.99 1.437l1.583 1.22c.257-.332.614-.598 1.11-.784l-.703-1.873zm-1.99 1.437c-.544.705-.782 1.56-.782 2.49h2c0-.583.144-.982.365-1.27l-1.584-1.22zm-.782 2.49c0 .927.208 1.783.716 2.481l1.617-1.178c-.191-.262-.333-.667-.333-1.303h-2zm.723 2.49c.471.632 1.112 1.125 1.877 1.498l.876-1.798c-.537-.262-.905-.567-1.15-.895l-1.603 1.195zm1.881 1.5c.706.34 1.523.663 2.447.974l.638-1.895a19.462 19.462 0 01-2.217-.881l-.868 1.802zm2.445.974c1.023.346 1.884.705 2.593 1.074l.924-1.773c-.821-.428-1.782-.826-2.876-1.196l-.64 1.895zm2.6 1.078c.643.329 1.096.723 1.402 1.166l1.647-1.135c-.525-.76-1.252-1.36-2.14-1.812l-.909 1.781zm1.407 1.174c.272.388.453.954.453 1.78h2c0-1.11-.243-2.114-.817-2.93l-1.636 1.15z" fill="#FF6C1A" mask="url(#path-1-outside-1_2054_1802)"/><mask id="path-3-outside-2_2054_1802" maskUnits="userSpaceOnUse" x="23.956" y="20.274" width="16" height="20" fill="#000"><path fill="#fff" d="M23.956 20.274h16v20h-16z"/><path d="M29.805 21.428c1.416 0 2.596.154 3.54.464.952.309 1.668.817 2.148 1.526.48.707.72 1.664.72 2.868 0 .903-.166 1.68-.5 2.332a4.334 4.334 0 01-1.355 1.587 6.511 6.511 0 01-2.002.952l4.895 8.117h-1.49l-4.601-7.763h-4.431v7.763H25.47V21.428h4.334zm-.122 1.11h-2.954V30.4h3.552c1.457 0 2.592-.35 3.406-1.05.822-.7 1.232-1.705 1.232-3.015 0-1.44-.43-2.433-1.293-2.979-.863-.545-2.177-.817-3.943-.817z"/></mask><path d="M29.805 21.428c1.416 0 2.596.154 3.54.464.952.309 1.668.817 2.148 1.526.48.707.72 1.664.72 2.868 0 .903-.166 1.68-.5 2.332a4.334 4.334 0 01-1.355 1.587 6.511 6.511 0 01-2.002.952l4.895 8.117h-1.49l-4.601-7.763h-4.431v7.763H25.47V21.428h4.334zm-.122 1.11h-2.954V30.4h3.552c1.457 0 2.592-.35 3.406-1.05.822-.7 1.232-1.705 1.232-3.015 0-1.44-.43-2.433-1.293-2.979-.863-.545-2.177-.817-3.943-.817z" fill="#202020"/><path d="M33.345 21.892l-.312.95h.003l.309-.95zm2.148 1.526l.828-.562-.828.561zm.22 5.2l-.89-.456-.002.004.892.452zm-3.357 2.539l-.279-.96-1.25.362.673 1.114.856-.516zm4.895 8.117v1h1.77l-.914-1.516-.856.516zm-1.49 0l-.86.51.291.49h.57v-1zm-4.601-7.763l.86-.51-.29-.49h-.57v1zm-4.431 0v-1h-1v1h1zm0 7.763v1h1v-1h-1zm-1.258 0h-1v1h1v-1zm0-17.846v-1h-1v1h1zm1.258 1.11v-1h-1v1h1zm0 7.862h-1v1h1v-1zm6.958-1.05l-.649-.761-.003.003.652.758zm-.061-5.994l-.535.846.535-.846zm-3.821-.928c1.351 0 2.418.148 3.228.414l.623-1.9c-1.077-.354-2.37-.514-3.851-.514v2zm3.23.415c.779.252 1.296.642 1.63 1.136l1.656-1.123c-.626-.922-1.541-1.55-2.667-1.916l-.618 1.903zm1.63 1.136c.331.487.548 1.224.548 2.307h2c0-1.326-.263-2.501-.892-3.43l-1.655 1.123zm.548 2.307c0 .781-.144 1.395-.39 1.876l1.78.912c.42-.822.61-1.763.61-2.788h-2zm-.392 1.88c-.254.502-.6.906-1.046 1.226l1.166 1.625a5.334 5.334 0 001.664-1.948l-1.784-.903zm-1.046 1.226a5.513 5.513 0 01-1.698.804l.558 1.921a7.512 7.512 0 002.306-1.1l-1.166-1.625zM31.5 31.673l4.895 8.118 1.712-1.033-4.895-8.118-1.712 1.033zm5.751 6.601h-1.49v2h1.49v-2zm-.63.49l-4.601-7.763-1.72 1.02 4.601 7.763 1.72-1.02zm-5.461-8.253h-4.431v2h4.43v-2zm-5.431 1v7.763h2v-7.763h-2zm1 6.763H25.47v2h1.258v-2zm-.258 1V21.428h-2v17.846h2zm-1-16.846h4.334v-2H25.47v2zm4.212-.89h-2.954v2h2.954v-2zm-3.954 1V30.4h2v-7.861h-2zm1 8.862h3.552v-2h-3.552v2zm3.552 0c1.61 0 3.006-.388 4.058-1.292l-1.304-1.516c-.577.496-1.451.808-2.754.808v2zm4.054-1.288c1.092-.93 1.584-2.242 1.584-3.777h-2c0 1.086-.33 1.784-.88 2.254l1.296 1.523zm1.584-3.777c0-1.629-.496-3.026-1.76-3.824l-1.068 1.69c.463.293.828.882.828 2.134h2zm-1.76-3.824c-1.1-.696-2.643-.972-4.476-.972v2c1.698 0 2.784.268 3.408.663l1.069-1.69z" fill="#FF6C1A" mask="url(#path-3-outside-2_2054_1802)"/><path transform="matrix(-.62952 .77699 -.79097 -.61186 32.348 12.216)" stroke="#FF6C1A" d="M0-.5h31.494"/><path fill-rule="evenodd" clip-rule="evenodd" d="M28.6 3.635a9.25 9.25 0 00-9.19.007L6.181 11.225a9.25 9.25 0 00-4.65 8.025v14.452a9.25 9.25 0 004.534 7.956L19.293 49.5a9.25 9.25 0 009.423.007l13.287-7.851a9.25 9.25 0 004.544-7.964V19.259a9.25 9.25 0 00-4.66-8.031L28.598 3.635zM18.662 2.34a10.75 10.75 0 0110.68-.007L42.63 9.925a10.75 10.75 0 015.416 9.334v14.433a10.75 10.75 0 01-5.281 9.255l-13.287 7.851a10.75 10.75 0 01-10.951-.008L5.3 42.95a10.75 10.75 0 01-5.268-9.247V19.25a10.75 10.75 0 015.403-9.327L18.663 2.34z" fill="#FF6C1A"/></svg>