<svg width="48" height="53" fill="none" xmlns="http://www.w3.org/2000/svg"><path d="M12.777 25.47c0 3.356-.284 6.379-.737 8.55-.228 1.09-.493 1.939-.771 2.503-.14.283-.27.469-.38.577-.11.107-.163.106-.165.106h0c-.004 0-.057 0-.165-.106-.11-.108-.241-.294-.38-.577-.28-.564-.544-1.413-.771-2.503-.453-2.171-.738-5.194-.738-8.55 0-3.354.285-6.377.738-8.549.227-1.09.492-1.939.77-2.503.14-.283.27-.469.381-.577.108-.106.161-.106.165-.106h0c.003 0 .056 0 .164.106.11.108.241.294.381.577.278.564.543 1.413.77 2.503.454 2.172.738 5.195.738 8.55zm25.532 0c0 3.356-.285 6.379-.738 8.55-.227 1.09-.492 1.939-.77 2.503-.14.283-.27.469-.381.577-.108.106-.162.106-.165.106h0c-.003 0-.056 0-.164-.106-.11-.108-.241-.294-.381-.577-.279-.564-.543-1.413-.77-2.503-.454-2.171-.738-5.194-.738-8.55 0-3.354.284-6.377.737-8.549.228-1.09.492-1.939.77-2.503.14-.283.271-.469.382-.577.108-.106.161-.106.164-.106h0c.003 0 .057 0 .165.106.11.108.241.294.38.577.28.564.544 1.413.771 2.503.453 2.172.738 5.195.738 8.55zm-22.99-6.617h14.298m-9.191 4.078h17.362M9.191 27.01h14.298m-5.106 4.078h14.298" stroke="#FF6C1A"/><path fill-rule="evenodd" clip-rule="evenodd" d="M28.163 3.74a9.25 9.25 0 00-9.339.007l-12.733 7.46a9.25 9.25 0 00-4.575 7.98v14.577a9.25 9.25 0 004.458 7.912l12.733 7.713a9.25 9.25 0 009.573.007l12.792-7.723a9.25 9.25 0 004.469-7.918V19.197a9.25 9.25 0 00-4.586-7.988L28.163 3.74zM18.066 2.454a10.75 10.75 0 0110.854-.008l12.79 7.468a10.75 10.75 0 015.33 9.283v14.558a10.75 10.75 0 01-5.194 9.203l-12.79 7.722a10.75 10.75 0 01-11.126-.008L5.197 42.96a10.75 10.75 0 01-5.18-9.195V19.187a10.75 10.75 0 015.316-9.275l12.733-7.459z" fill="#FF6C1A"/></svg>