<svg width="690" height="501" fill="none" xmlns="http://www.w3.org/2000/svg"><g clip-path="url(#clip0_2044_2599)"><path d="M801.917 248.78c-20.539 18.52-40.7 19.092-58.471 19.591-19.74.553-36.791 1.03-46.804 26.853-7.705 19.86-8.044 23.996-8.436 28.787-.207 2.532-.421 5.153-1.861 10.581-2.432 9.166-6.408 14.454-11.809 15.722-10.275 2.415-26.064-8.69-48.27-33.953-9.315-10.597-18.466-22.899-27.216-35.444.593-.257 1.175-.516 1.76-.774 8.598 11.427 17.376 22.461 26.353 32.093 21.858 23.455 36.854 33.151 47.201 30.516 5.929-1.509 10.199-7.197 12.693-16.906 1.389-5.438 1.591-8.143 1.788-10.757.336-4.472.653-8.696 7.659-27.328 9.026-24.003 23.884-24.927 42.697-26.104 17.035-1.064 36.328-2.269 56.606-20.425l-1.208-1.351c-19.791 17.742-38.771 18.921-55.511 19.967-18.697 1.168-34.848 2.178-44.28 27.276-7.097 18.874-7.425 23.224-7.771 27.83-.191 2.537-.387 5.16-1.738 10.443-2.314 9.016-6.15 14.265-11.381 15.596-9.504 2.422-24.364-7.39-45.429-29.994-8.835-9.48-17.49-20.35-25.978-31.613.612-.276 1.216-.553 1.818-.832 8.303 10.106 16.719 19.898 25.131 28.33 20.974 21.026 34.639 29.202 44.312 26.517 5.733-1.588 9.838-7.235 12.2-16.78 1.293-5.286 1.479-7.992 1.656-10.611.306-4.491.595-8.732 7.004-26.384 8.481-23.36 22.53-24.78 40.316-26.578 15.968-1.614 34.045-3.419 53.508-20.747l-1.177-1.319c-19.025 16.928-36.807 18.722-52.507 20.309-17.677 1.788-32.943 3.331-41.8 27.73-6.492 17.888-6.79 22.251-7.106 26.869-.173 2.543-.353 5.173-1.61 10.309-2.197 8.878-5.883 14.091-10.956 15.5-8.864 2.462-22.398-5.821-42.589-26.062-8.265-8.283-16.549-17.906-24.727-27.852.627-.297 1.252-.593 1.874-.892 7.983 8.801 16.041 17.371 23.901 24.642 19.782 18.292 32.56 25.244 41.428 22.543 5.616-1.712 9.44-7.166 11.7-16.68 1.199-5.136 1.363-7.849 1.524-10.472.276-4.507.533-8.765 6.352-25.438 7.94-22.753 21.2-24.674 37.986-27.1 14.891-2.154 31.749-4.572 50.351-21.017l-1.139-1.29c-18.221 16.101-34.805 18.485-49.458 20.604-17.365 2.51-31.078 4.49-39.365 28.236-5.896 16.898-6.162 21.271-6.444 25.902-.155 2.551-.317 5.189-1.483 10.18-2.104 8.866-5.542 13.915-10.524 15.428-10.531 3.209-26.78-10.156-39.758-22.16-7.704-7.123-15.612-15.522-23.459-24.162a265.17 265.17 0 001.923-.956c7.643 7.515 15.343 14.884 22.672 21.032 13.297 11.156 28.28 22.091 38.589 18.604 5.414-1.829 9.053-7.264 11.148-16.614 1.12-5.01 1.265-7.739 1.405-10.377.241-4.528.466-8.805 5.686-24.447 7.407-22.206 19.285-24.509 35.723-27.696 13.126-2.545 29.468-5.729 47.128-21.215l-1.101-1.258c-17.337 15.188-32.746 18.193-46.344 20.83-16.356 3.17-29.275 5.674-36.995 28.809-5.291 15.857-5.523 20.244-5.769 24.889-.135 2.57-.276 5.225-1.367 10.099-1.958 8.732-5.241 13.768-10.051 15.394-9.578 3.24-24.793-8.078-36.978-18.3-7.155-6.003-14.688-13.194-22.173-20.55.666-.342 1.326-.686 1.98-1.029 7.451 6.408 14.572 12.419 21.427 17.517 13.058 9.71 26.423 18.21 35.728 14.692 5.196-1.96 8.669-7.389 10.613-16.582 1.031-4.871 1.154-7.613 1.273-10.264.205-4.543.395-8.832 5.036-23.475 6.88-21.72 18.07-24.52 33.554-28.39 12.081-3.02 27.142-6.794 43.814-21.313l-1.068-1.228c-16.436 14.313-30.611 17.833-43.141 20.962-15.394 3.848-27.554 6.888-34.712 29.477-4.703 14.848-4.899 19.243-5.109 23.894-.114 2.585-.236 5.259-1.238 10-1.823 8.609-4.963 13.645-9.598 15.398-8.594 3.249-22.101-5.495-34.179-14.478-6.666-4.957-13.607-10.796-20.858-17.032a201.19 201.19 0 002.03-1.108c7.094 5.192 13.833 10.06 20.177 14.103 14.02 8.938 24.975 14.198 32.869 10.827 4.978-2.13 8.273-7.557 10.065-16.598.94-4.735 1.038-7.495 1.135-10.166.164-4.55.319-8.849 4.389-22.489 6.36-21.33 16.908-24.642 31.51-29.23 11.016-3.458 24.706-7.742 40.374-21.263l-1.034-1.196c-15.38 13.286-28.935 17.536-39.814 20.953-15.063 4.729-25.948 8.146-32.553 30.285-4.124 13.834-4.291 18.434-4.451 22.883-.095 2.607-.192 5.305-1.106 9.915-1.682 8.489-4.668 13.546-9.136 15.45-7.684 3.284-19.632-3.204-31.398-10.705-6.129-3.905-12.651-8.601-19.507-13.615.699-.396 1.387-.795 2.072-1.193 6.712 4.011 13.071 7.772 18.915 10.798 13.3 6.893 22.963 10.469 30.027 7.007 4.765-2.333 7.863-7.78 9.491-16.659.845-4.603.921-7.389.994-10.083.114-4.354.237-8.856 3.743-21.485 5.853-21.076 15.324-24.743 29.649-30.291 9.931-3.846 22.286-8.633 36.754-20.995l-.998-1.166c-14.256 12.16-26.489 16.925-36.309 20.73-14.232 5.511-24.514 9.494-30.574 31.311-3.557 12.811-3.68 17.408-3.799 21.855-.076 2.757-.144 5.362-.967 9.848-1.537 8.365-4.361 13.453-8.659 15.559-6.463 3.168-16.127-.505-28.647-6.993-5.593-2.898-11.681-6.481-18.105-10.32.712-.423 1.408-.851 2.106-1.281 6.312 2.882 12.278 5.564 17.638 7.618 9.962 3.821 20.265 7.218 27.206 3.249 4.511-2.58 7.425-8.071 8.883-16.783.748-4.474.797-7.292.844-10.018.074-4.353.151-8.854 3.11-20.464 5.351-21.012 14.386-25.265 28.064-31.7 8.804-4.144 19.754-9.294 32.852-20.373l-.961-1.137c-12.956 10.967-23.8 16.058-32.526 20.164-14.06 6.616-23.348 10.987-28.872 32.68-3.002 11.779-3.078 16.367-3.156 20.804-.046 2.794-.092 5.434-.822 9.799-1.38 8.241-4.048 13.392-8.155 15.738-5.752 3.289-14.188 1.158-25.934-3.346-5.062-1.942-10.695-4.459-16.648-7.172.722-.455 1.433-.911 2.137-1.368 5.9 1.812 11.457 3.453 16.343 4.579 9.359 2.155 18.27 3.746 24.406-.432 4.261-2.911 6.955-8.459 8.232-16.979.655-4.355.671-7.219.689-9.989.028-4.337.055-8.826 2.478-19.409 4.868-21.257 13.175-25.937 26.942-33.693 7.603-4.284 17.049-9.595 28.493-19.17l-.925-1.107c-11.334 9.481-20.722 14.768-28.276 19.021-14.107 7.947-22.629 12.745-27.638 34.628-1.53 6.675-2.118 10.963-2.352 14.316.036-1.325.033-2.56.027-3.817-.022-4.316-.048-8.778 1.86-18.324 4.392-22.003 11.833-26.924 26.67-36.729 6.242-4.127 13.94-9.242 23.278-16.919l-.889-1.075-.322.267c-9.066 7.46-16.694 12.504-22.836 16.564-14.677 9.702-22.763 15.049-27.269 37.621-1.038 5.194-1.51 8.901-1.722 11.903a187.36 187.36 0 00-.035-2.604c-.075-4.269-.158-8.683 1.252-17.17 3.925-23.623 11.027-28.948 28.188-41.821 4.701-3.527 10.03-7.523 16.28-12.616l-.854-1.045c-6.227 5.075-11.544 9.064-16.234 12.582-17.467 13.1-24.696 18.522-28.708 42.679-.655 3.941-.992 7.01-1.159 9.6-.013-.533-.031-1.062-.048-1.598-.138-4.189-.278-8.52.664-15.929 3.404-26.784 9.906-31.979 34.134-51.34l4.849-3.879-.815-1.014-4.847 3.877c-23.922 19.111-31.141 24.883-34.613 52.191a97.626 97.626 0 00-.658 7.118l-.027-.582c-.198-4.047-.404-8.233.104-14.523 2.196-27.145 6.872-34.986 33.5-55.996l-.777-.987c-26.996 21.31-31.742 29.269-33.973 56.883a100.006 100.006 0 00-.256 4.262c-.247-3.641-.487-7.436-.366-12.318.652-26.485 3.097-37.478 28.019-56.771l-.742-.955c-25.207 19.51-27.837 31.332-28.487 57.699-.006.268-.007.521-.012.782-.257-2.81-.509-5.719-.655-8.915-1.075-23.546-1.789-39.08 22.54-57.541l-.702-.926c-23.219 17.591-24.045 33.306-23.193 54.131a875.46 875.46 0 00-.454-3.323c-3.11-22.514-5.805-41.95 16.993-58.811l-.664-.898c-23.333 17.274-20.592 36.995-17.434 59.861 2.624 19.016 5.602 40.572-6.187 64.771-2.263 4.646-5.435 9.235-9.414 13.722-2.304 2.248-4.889 4.463-7.786 6.643-2.086 1.258-4.315 2.472-6.645 3.658a157.868 157.868 0 01-7.158 2.362 345.9 345.9 0 01-7.09 1.032c-1.824-.019-3.678-.038-5.581-.061l-1.325-.017a691.752 691.752 0 00-6.57-.986 343.474 343.474 0 00-6.393-1.78 284.967 284.967 0 00-6.258-2.495 248.724 248.724 0 00-5.739-2.955 233.153 233.153 0 00-5.944-3.757 220.546 220.546 0 00-6.209-4.612 221.593 221.593 0 00-5.256-4.488 230.51 230.51 0 00-5.616-5.444 228.1 228.1 0 00-5.775-6.247 234.872 234.872 0 00-4.859-5.805c-12.659-17.286-23.154-27.845-31.269-24.778-2.297.869-3.878 2.372-4.695 4.469-.928 2.379-.839 5.457.004 9.135-.381 2.147-.265 4.649.264 7.483-.424 2.262-.37 4.869.058 7.78-.422 2.227-.465 4.742-.224 7.488-.545 2.346-.721 4.974-.631 7.824-.661 2.407-.995 5.067-1.09 7.93-.837 2.526-1.369 5.29-1.684 8.247-.962 2.384-1.697 4.934-2.269 7.614-1.252 2.411-2.295 4.974-3.197 7.649-1.603 2.414-3.013 4.962-4.314 7.599-1.937 2.241-3.719 4.565-5.403 6.93a149.03 149.03 0 00-6.967 6.466 328.216 328.216 0 00-8.761 5.732c-2.105.891-4.177 1.772-6.211 2.641-1.545.658-3.053 1.301-4.551 1.937a432.301 432.301 0 01-13.053 2.92c-3.374.219-6.646.368-9.807.438-2.407.054-6.735-.556-12.216-1.327-1.17-.164-2.386-.336-3.629-.507l-1.414-.314c-18.26-4.072-48.758-10.876-61.943-.024l-.187.156c-8.437 7.139-10.003 18.692-11.518 29.866-.632 4.665-1.231 9.073-2.299 13.179-7.155 27.525-30.157 49.111-52.4 69.984-24.504 22.995-47.649 44.714-45.211 71.417 2.539 27.819 18.28 67.15 33.317 102.171-1.14 1.404-2.205 2.983-3.217 4.731-1.52 1.594-2.931 3.458-4.291 5.556-1.622 1.556-3.159 3.367-4.667 5.395-1.744 1.482-3.432 3.197-5.12 5.108-1.85 1.329-3.674 2.857-5.523 4.543-2.065 1.186-4.145 2.56-6.301 4.081-2.217.93-4.477 2.002-6.826 3.19a138.112 138.112 0 00-7.26 2.139c-2.52.284-5.115.647-7.81 1.074a201.663 201.663 0 00-8.048-.052c-2.78-.428-5.613-.818-8.538-1.149a221.146 221.146 0 00-8.39-2.088c-3-1.114-6.054-2.178-9.162-3.183-24.44-11.238-51.681-18.975-80.502-16.009l.115 1.109c25.937-2.669 50.157 3.117 72.428 12.465-24.27-6.917-45.347-8.673-65.94-5.536l.175 1.15c21.841-3.327 44.243-1.101 70.505 7.004 1.243.382 2.465.786 3.689 1.189-18.217-3.461-42.073-6.532-67.771-1.302l.242 1.185c26.252-5.344 50.625-1.945 68.924 1.612 1.115.216 2.197.454 3.294.685.472.234.939.472 1.408.707-19.758-1.447-42.835-2.417-67.272 3.855l.313 1.216c24.452-6.275 47.588-5.243 67.356-3.786.873.065 1.714.144 2.575.216.749.386 1.493.777 2.238 1.167l-3.877.204c-18.559.956-39.593 2.042-62.011 9.028l.388 1.242c22.26-6.936 43.209-8.017 61.689-8.97l4.107-.214c.669-.037 1.303-.063 1.961-.094.905.485 1.809.971 2.708 1.461-3.933.738-7.993 1.425-12.288 2.148-15.671 2.644-33.433 5.639-51.97 12.475l.465 1.266c18.421-6.793 36.117-9.777 51.728-12.412 4.375-.737 8.506-1.434 12.513-2.186l.725-.136.677-.128c1.002.558 1.999 1.116 2.993 1.679-5.916 1.943-12.319 3.726-19.1 5.61-13.183 3.664-28.126 7.815-43.411 14.356l.548 1.284c15.2-6.506 30.094-10.645 43.236-14.295 6.907-1.92 13.432-3.732 19.456-5.725l.895-.301a528.33 528.33 0 013.171 1.838c-7.461 3.566-15.973 6.823-24.977 10.263-10.926 4.174-23.311 8.905-35.741 14.991l.635 1.294c12.37-6.058 24.721-10.776 35.62-14.938 9.206-3.518 17.903-6.84 25.518-10.513.152-.073.292-.145.441-.218 1.1.65 2.194 1.304 3.281 1.958-8.76 5.571-19.286 10.658-30.427 16.033-9.185 4.433-18.687 9.017-28.479 14.439l.72 1.301c9.758-5.401 19.238-9.976 28.407-14.399 11.428-5.515 22.226-10.724 31.175-16.49l.033-.023c1.123.68 2.241 1.361 3.349 2.044-9.944 7.993-22.517 15.292-35.827 23.005-6.899 3.996-14.029 8.127-21.271 12.619l.811 1.304c7.219-4.479 14.341-8.605 21.227-12.595 13.55-7.85 26.347-15.272 36.449-23.473a554.17 554.17 0 013.396 2.112c-11.103 10.906-25.83 20.831-41.434 31.314-4.513 3.035-9.182 6.172-13.86 9.397l.896 1.301c4.67-3.218 9.335-6.355 13.846-9.385 15.79-10.61 30.697-20.652 41.933-31.762 1.158.728 2.306 1.452 3.446 2.175-12.293 14.425-29.407 27.424-47.507 41.155a4533.36 4533.36 0 00-6.027 4.578l.986 1.295c2.019-1.538 4.028-3.061 6.024-4.576 18.246-13.845 35.496-26.942 47.913-41.572l3.455 2.201c-12.498 17.24-30.139 32.586-51.791 50.716l1.075 1.284c21.776-18.236 39.517-33.669 52.129-51.095.622.397 1.249.796 1.865 1.192l1.6 1.021c-11.782 18.866-28.59 35.975-50.08 55.664l1.162 1.27c21.589-19.782 38.484-36.984 50.368-56.007 1.163.743 2.315 1.475 3.455 2.198-12.911 23.716-32.543 44.778-48.397 60.609l1.247 1.249c15.916-15.892 35.626-37.038 48.646-60.908 1.167.738 2.323 1.464 3.466 2.178-9.909 20.837-24.837 41.757-46.769 65.549l1.333 1.23c21.994-23.859 36.999-44.872 46.986-65.815 1.161.718 2.31 1.425 3.445 2.114-9.663 23.088-24.462 46.202-45.174 70.542l1.416 1.204c20.764-24.398 35.63-47.593 45.37-70.777 18.278 10.943 32.903 17.156 42.635 10.135.051-.037.1-.077.151-.117.968-.797 1.44-2.21 1.498-4.163.404-.155.813-.296 1.208-.484.285-.131.542-.295.777-.488 1.03-.849 1.572-2.289 1.731-4.213.116-.03.233-.045.347-.078a4.743 4.743 0 001.752-.9 4.914 4.914 0 001.228-1.546c.36-.696.603-1.539.748-2.521.875-.223 1.631-.593 2.262-1.111a5.401 5.401 0 001.123-1.278c.445-.703.769-1.55.982-2.555.998-.247 1.859-.638 2.562-1.216.353-.289.669-.621.949-.996.51-.679.9-1.498 1.173-2.471 1.191-.257 2.18-.714 2.983-1.374.25-.207.482-.432.697-.678.552-.637.985-1.418 1.308-2.348 1.385-.232 2.517-.703 3.425-1.449a6.31 6.31 0 00.454-.413c.597-.599 1.074-1.334 1.448-2.209 1.591-.19 2.868-.678 3.88-1.51.055-.045.108-.091.163-.14.624-.549 1.138-1.231 1.553-2.05 1.622-.123 3.059-.557 4.209-1.449.049-.037.098-.077.147-.116a6.783 6.783 0 001.483-1.761c1.698-.057 3.152-.451 4.359-1.269.165-.111.323-.229.478-.357.478-.393.893-.87 1.265-1.409 1.712.001 3.19-.324 4.436-1.055.311-.18.599-.382.875-.607a7.083 7.083 0 001.008-1.051c1.692.044 3.164-.227 4.442-.86a7.126 7.126 0 001.323-.854c.275-.23.515-.504.758-.779 1.616.08 3.077-.098 4.34-.617a6.88 6.88 0 001.79-1.067c.2-.165.379-.359.564-.55 1.52.109 2.908.003 4.119-.391a7.106 7.106 0 002.342-1.273c.131-.106.249-.229.372-.345 1.37.122 2.64.085 3.761-.185 1.134-.273 2.119-.754 2.947-1.436.062-.049.113-.116.174-.169 2.83.297 5.193-.148 6.921-1.57.017-.015.03-.034.049-.049 2.911.341 5.314-.09 7.055-1.52.111-.092.218-.187.323-.285 13.731-12.919 14.382-46.36 1.879-96.708-3.772-15.193-9.323-30.29-14.69-44.891-9.28-25.238-17.433-47.437-13.267-61.775 2.844.112 5.637.266 8.361.418 1.015.056 2.028.113 3.036.165 2.733.408 5.422.846 8.05 1.279 3.673.603 7.296 1.192 10.848 1.659l.097.026c5.692 1.535 11.266 3.028 16.64 4.012 5.465 1.979 10.671 3.705 15.626 4.785 5.038 2.19 9.852 4.009 14.444 5.107 4.794 2.372 9.38 4.271 13.77 5.372 4.605 2.506 9.015 4.45 13.254 5.537 4.436 2.6 8.699 4.571 12.809 5.634 8.021 4.982 15.51 7.678 22.584 6.078 15.028-3.393 12.098-17.365 8.693-33.549-3.91-18.604-8.779-41.756 8.429-61.124 15.94-17.942 16.147-40.368 10.163-62.799a341.45 341.45 0 0010.695-3.189c9.377-2.971 18.203-6.228 26.43-9.72 8.847 12.701 18.118 25.179 27.567 35.928 22.701 25.825 39.085 37.124 50.091 34.536 6.123-1.439 10.558-7.176 13.179-17.054 1.485-5.591 1.707-8.294 1.921-10.91.38-4.644.71-8.656 8.315-28.264 9.568-24.671 25.259-25.112 45.122-25.667 18.093-.507 38.59-1.103 59.665-20.069l-1.246-1.381zm-203.512 31.204a560.087 560.087 0 01-2.227-3.216c.555-.2 1.118-.396 1.666-.598.759 1.021 1.514 2.047 2.276 3.062-.572.252-1.141.502-1.715.752zM411.581 615.081c-.037.045-.082.082-.12.125a25.154 25.154 0 01-3.464-.859c8.56-17.406 7.215-48.111-4.029-91.386-3.64-14.011-8.639-27.927-13.476-41.387-4.41-12.282-8.577-23.88-11.24-34.297-4.137-15.998-3.766-26.939 1.164-34.43.213-.327.444-.643.676-.956 1.278-.044 2.549-.065 3.815-.073-3.388 7.671-3.112 18.317.82 33.043 2.72 10.251 6.825 21.574 11.173 33.56 5.059 13.944 10.291 28.366 13.992 42.823 12.064 47.87 12.295 79.442.689 93.837zm-7.093 1.787c-1.129-.177-2.35-.478-3.653-.89a49.6 49.6 0 00.778-2.143 57.647 57.647 0 003.818 1.581c-.144.253-.28.513-.429.758a5.8 5.8 0 01-.514.694zm-6.925 1.84c-1.167-.162-2.424-.458-3.763-.868.222-.758.442-1.551.656-2.376a58.676 58.676 0 004.048 1.655c-.02.047-.04.1-.061.148a6.728 6.728 0 01-.88 1.441zm-6.842 2.081c-1.173-.147-2.451-.44-3.805-.843.018-.074.041-.137.055-.213.144-.736.302-1.551.464-2.436 1.465.65 2.88 1.22 4.239 1.699a7.523 7.523 0 01-.953 1.793zm-6.723 2.28c-1.174-.12-2.442-.375-3.803-.761.096-.532.177-1.081.235-1.67.04-.401.081-.813.121-1.236a56.904 56.904 0 004.376 1.712 8.363 8.363 0 01-.929 1.955zm-6.585 2.538c-1.161-.1-2.427-.35-3.773-.714.133-.945.209-1.984.234-3.103a57.637 57.637 0 004.43 1.685c-.235.814-.529 1.526-.891 2.132zm-6.379 2.798c-1.135-.074-2.396-.301-3.775-.648.1-1.01.151-2.106.135-3.316 1.602.65 3.087 1.19 4.473 1.627a9.866 9.866 0 01-.833 2.337zm-9.89 2.564c.06-1.07.055-2.248-.011-3.539a59.178 59.178 0 004.483 1.516c-.169.979-.414 1.827-.736 2.55-1.125-.04-2.371-.22-3.736-.527zm-5.872 3.561a36.325 36.325 0 00-.159-3.743 59.217 59.217 0 004.466 1.379c-.13 1.07-.347 1.988-.643 2.777-1.054-.005-2.267-.144-3.664-.413zm-5.603 3.91a40.758 40.758 0 00-.309-3.916 57.8 57.8 0 004.47 1.225c-.079 1.129-.247 2.101-.499 2.939-1.052.046-2.271-.038-3.662-.248zm-6.729 8.91c-.877.109-1.871.119-3.01.019-.162-.014-.331-.042-.493-.058a50.283 50.283 0 00-.647-4.254c1.325.326 2.629.611 3.901.834.165.029.313.044.474.071.031 1.301-.044 2.425-.225 3.388zm-4.712 4.774c-.407.057-.838.096-1.303.104a31.71 31.71 0 01-2.125-.051 55.12 55.12 0 00-.814-4.377 51.71 51.71 0 004.304.736c.093 1.376.073 2.568-.062 3.588zm-4.39 4.974c-1.093.145-2.224.193-3.376.196a60.122 60.122 0 00-.967-4.442 44.13 44.13 0 004.236.547c.148 1.371.184 2.606.107 3.699zm-4.033 5.114a21.518 21.518 0 01-3.283.487 63.408 63.408 0 00-1.133-4.523 37.65 37.65 0 004.124.379c.201 1.354.303 2.578.292 3.657zm-109.363-38.499c-.014-.001-.029-.002-.043-.005a2.147 2.147 0 01-.096-.048c.048.017.093.035.139.053zm217.849-319.041l1.159.256c-5.616-.245-11.797-.393-17.967-.106-13.036.603-21.83 3.591-26.904 9.129-7.026 7.68-8.095 18.717-9.128 29.392-.518 5.366-1.008 10.431-2.216 14.998-.914 3.429-2.379 6.847-4.481 10.451-10.772 18.458-28.637 30.428-47.552 43.103-9.849 6.601-20.023 13.422-29.161 21.266-17.437 14.982-24.864 30.956-22.709 48.836 2.261 18.738 10.425 42.536 19.312 67.321 2.953 8.24 5.77 16.123 8.459 23.662-.982 1.376-1.868 2.917-2.673 4.624a25.666 25.666 0 00-2.101 2.963 2139.654 2139.654 0 01-11.229-29.494c-8.154-21.951-16.765-46.999-18.795-66.341-1.761-16.372 5.279-31.59 22.149-47.892 7.89-7.625 16.959-14.903 25.733-21.94 18.792-15.071 38.215-30.655 48.65-51.402 1.885-3.744 3.255-7.3 4.194-10.874 1.161-4.427 1.72-9.204 2.314-14.263 1.252-10.703 2.551-21.771 9.947-28.914 5.172-4.948 14.022-7.274 27.082-7.109 9.049.114 18.171 1.26 25.917 2.334zm85.653-97.698c.791-1.861 2.221-3.145 4.379-3.924 5.737-2.072 13.095 2.526 21.454 10.963-7.657-5.802-14.597-8.434-20.684-6.326-2.059.714-3.695 1.812-4.907 3.262a40.055 40.055 0 01-.692-2.568c.114-.498.262-.968.45-1.407zm98.813 57.22c-.55-.252-1.1-.503-1.655-.755.541-.207 1.073-.416 1.609-.626.576.18 1.152.36 1.724.536-.554.283-1.116.563-1.678.845zm-6.912 3.283a767.17 767.17 0 00-1.944-1.424c.568-.197 1.123-.399 1.684-.598l2.029 1.213c-.585.271-1.173.54-1.769.809zM471.482 424.936c.983-.195 1.953-.46 2.913-.772.845.63 1.696 1.261 2.534 1.884 1.251.932 2.486 1.851 3.713 2.759a27.47 27.47 0 01-3.091.002 354.704 354.704 0 01-6.069-3.873zm-14.343-4.683a29.943 29.943 0 003.007-.599 953.583 953.583 0 016.319 4.114l.079.052a33.936 33.936 0 01-3.117-.052 658.863 658.863 0 01-6.288-3.515zm-11.117-2.356a725.989 725.989 0 00-4.041-1.888 39.166 39.166 0 003.012-.507 362.49 362.49 0 016.623 3.62 45.787 45.787 0 01-3.208-.107l-2.386-1.118zm-13.764-3.106a393.615 393.615 0 00-6.635-2.388 54.75 54.75 0 002.952-.433c2.331.93 4.633 1.908 6.905 2.916a65.133 65.133 0 01-3.222-.095zm-65.25 201.902c-.08-1.395-.171-2.873-.277-4.428a248.76 248.76 0 005.693 3.15c-.008 1.366-.024 2.66-.041 3.884a138.17 138.17 0 01-5.375-2.606zm-6.698 2.787c-.029-.243-.057-.477-.084-.725a918.913 918.913 0 00-.469-3.989c.094.05.191.105.286.156a346.244 346.244 0 005.54 2.92c.038.67.074 1.33.108 1.963l.124 2.217a165.095 165.095 0 01-5.505-2.542zm-8.411 8.498a127.083 127.083 0 01-4.013-1.632c-.075-.342-.147-.671-.228-1.023a929.689 929.689 0 01-.969-4.297 205.296 205.296 0 006.028 2.854l.129.732c.252 1.417.454 2.726.615 3.956a137.94 137.94 0 01-1.562-.59zm-4.206 4.427a111.516 111.516 0 01-5.516-2.03c-.327-1.3-.68-2.65-1.075-4.091-.132-.478-.267-.974-.4-1.465 2.046.956 4.072 1.866 6.068 2.721a97.59 97.59 0 01.923 4.865zm-101.748-3.915c.718.147 1.444.287 2.154.441-.647.341-1.296.683-1.965 1.032-.733-.264-1.48-.516-2.219-.773l2.03-.7zm-4.177-.036c-.529-.178-1.055-.358-1.587-.533.492-.087.989-.174 1.476-.256.528.094 1.067.179 1.592.278-.08.029-.159.056-.24.083-.402.14-.834.287-1.241.428zm46.322-23.907c.097-.062.193-.121.291-.18-.256.609-.513 1.23-.769 1.859-.18.056-.361.11-.54.17.339-.632.678-1.247 1.018-1.849zm4.56-5.487l.182-.126c-.22.613-.438 1.234-.654 1.864-.141.048-.282.092-.422.142.297-.642.595-1.268.894-1.88zm4.209-5.588l.099-.073c-.188.602-.374 1.213-.556 1.836-.111.039-.221.075-.33.116.26-.641.521-1.268.787-1.879zm152.996-286.805c1.523.158 3.08.292 4.652.411-1.074.042-2.174.083-3.325.125-6.231.225-13.293.478-20.609 1.263-12.662 1.356-21.13 4.903-25.9 10.828-6.378 7.93-7.201 18.748-7.998 29.212-.434 5.701-.842 11.085-2.115 15.851-.915 3.403-2.499 6.755-4.846 10.249-11.058 16.467-28.294 25.797-46.542 35.673-10.968 5.938-22.308 12.075-32.735 20.042-17.755 13.547-25.454 29.981-22.92 48.819 2.444 18.174 10.188 40.459 18.384 64.054l1.378 3.965a1719.773 1719.773 0 016.76 19.886c-2.37 1.078-4.358 2.693-6.063 4.783a13850.27 13850.27 0 00-8.195-22.917c-8.861-24.717-17.001-48.445-19.246-67.059-2.107-17.448 5.187-33.076 22.294-47.773 9.073-7.797 19.226-14.598 29.047-21.179 19.033-12.754 37.009-24.8 47.922-43.5 2.159-3.696 3.665-7.213 4.605-10.749 1.232-4.661 1.729-9.775 2.253-15.19 1.014-10.478 2.062-21.312 8.817-28.696 4.84-5.291 13.366-8.149 26.065-8.737 8.839-.411 17.754.073 24.916.461 1.187.065 2.31.124 3.401.178zm33.838-5.222c1.26-.315 2.53-.636 3.81-.962-.673.696-1.343 1.39-2.025 2.091-1.439.198-2.86.383-4.268.561.537-.368 1.068-.724 1.607-1.092.292-.198.585-.398.876-.598zm41.171-88.438c1.033-1.69 2.613-2.891 4.808-3.65 7.055-2.444 15.858 2.62 25.724 11.801-9.156-6.487-17.574-9.576-24.918-7.127-1.742.581-3.18 1.37-4.364 2.341a80.323 80.323 0 01-1.25-3.365zM633.937 258.1c-.188.112-.364.225-.552.334-.1.003-.199.003-.3.003.223-.101.453-.204.674-.307l.178-.03zm-2.926 1.706c-.402.23-.805.458-1.214.687-.33-.051-.668-.103-1-.156.412-.177.828-.353 1.235-.531h.979zm-4.023.001l-.436.178-.481-.077.39-.106c.173 0 .353.003.527.005zM488.474 426.949c-.002 0-.002-.002-.002-.002-2.435-2.02-4.908-4.071-7.42-6.115 2.897-2.105 4.736-4.669 5.681-7.91 1.724-5.974.93-13.744.09-21.971-.915-8.977-1.956-19.152.213-28.427 2.22-9.5 7.808-17.164 17.093-23.43 14.531-9.81 21.714-19.929 22.607-31.847.124-1.662.182-3.329.206-5.001 1.734-.315 3.47-.648 5.206-.989.114 2.031.183 4.053.151 6.049-.204 12.903-6.744 24.067-20.002 34.112-9.304 7.069-14.778 15.592-16.74 26.097-1.815 9.724-.538 20.011.591 29.085 1.035 8.32 2.013 16.179.349 21.882-1.114 3.79-3.651 6.475-7.987 8.453l-.036.014zM363.808 608.604a410.918 410.918 0 01-5.227-3.092c-.236-1.706-.49-3.478-.772-5.325a696.45 696.45 0 006.802 4.295c.159 1.687.294 3.288.413 4.822-.405-.233-.811-.465-1.216-.7zm-37.561 14.701l-.254-.717-2.121-5.991c1.491.733 2.998 1.481 4.527 2.241l2.589 1.284c.684 2.182 1.342 4.284 1.982 6.306a490.918 490.918 0 01-6.723-3.123zm-68.219 4.61c.753.094 1.507.185 2.255.292a308.16 308.16 0 01-2.042 1.982c-.793-.225-1.592-.442-2.391-.656.742-.549 1.465-1.083 2.178-1.618zm4.132.583c.795.129 1.588.258 2.379.403-.678.839-1.373 1.688-2.089 2.546-.841-.265-1.685-.514-2.531-.766.765-.735 1.512-1.465 2.241-2.183zm38.642-40.671c.008-.007.016-.012.024-.02-.161.586-.319 1.182-.477 1.787-.082.032-.168.057-.25.091.231-.636.464-1.256.703-1.858zm179.175-280.323c-4.198 2.354-11.717 3.972-20.836 5.945-3.28.709-6.771 1.466-10.398 2.317-11.88 2.791-19.691 7.447-23.885 14.232-5.177 8.379-5.52 18.833-5.853 28.943-.208 6.347-.404 12.342-1.793 17.446-.949 3.46-2.719 6.588-5.57 9.846-11.332 12.96-27.471 17.678-44.553 22.675-13.138 3.846-26.723 7.82-39.85 15.732-18.874 11.374-26.726 27.789-23.354 48.784 2.456 15.317 8.613 33.544 15.128 52.842 1.847 5.47 3.719 11.012 5.535 16.574a709.568 709.568 0 017.557 24.648c-1.51-.667-2.852-1.138-3.99-1.361a35.54 35.54 0 00-4.181-.569 962.235 962.235 0 00-6.788-20.972c-1.25-3.72-2.514-7.428-3.769-11.11-7.181-21.068-13.964-40.965-16.39-57.382-2.867-19.42 4.717-35.404 22.582-47.537 11.668-7.925 24.093-13.086 36.109-18.077 17.787-7.389 34.586-14.367 46.03-29.267 2.725-3.547 4.452-6.884 5.435-10.501 1.367-5.078 1.684-10.838 2.016-16.935.554-10.093 1.124-20.528 6.669-28.381 4.269-6.048 12.139-9.972 24.049-11.998 5.544-.943 10.949-1.631 15.716-2.238 8.129-1.035 14.779-1.884 18.581-3.506 1.914-.029 3.852-.081 5.803-.15zm24.275-15.68c1.203-.47 2.42-.938 3.655-1.406a378.638 378.638 0 01-.831 3.647c-1.405.379-2.792.75-4.171 1.12.377-.939.754-1.875 1.123-2.803.075-.187.148-.373.224-.558zm18.355-29.981a37.504 37.504 0 011.956-1.499c.302 1.305.614 2.626.932 3.958-.809.447-1.597.903-2.366 1.373a324.51 324.51 0 01-.522-3.832zm4.013-9.278c.398 1.305.809 2.623 1.228 3.957a41.64 41.64 0 00-2.154 1.284 234.97 234.97 0 01-.839-3.808 28.75 28.75 0 011.765-1.433zm1.519-7.752a531.378 531.378 0 001.525 4.044c-.696.376-1.371.767-2.019 1.175a275.558 275.558 0 01-1.151-3.939 22.659 22.659 0 011.645-1.28zm-.438-6.428a18.887 18.887 0 011.573-1.152c.577 1.33 1.174 2.693 1.786 4.077-.677.328-1.318.681-1.939 1.049-.492-1.348-.97-2.676-1.42-3.974zm.853-7.572c.49-.357 1.014-.69 1.57-1a493.546 493.546 0 002.032 4.135c-.673.275-1.32.567-1.932.88a219.31 219.31 0 01-1.67-4.015zm.599-7.399a15.595 15.595 0 013.221-1.446c9.01-2.903 19.705 1.435 31.197 9.512.197.287.392.572.592.861-11.043-5.86-21.527-8.553-30.921-5.622-.764.24-1.472.513-2.158.806a286.977 286.977 0 01-1.931-4.111zm69.989 41.207l-1.58-1.764c.413-.051.836-.105 1.246-.154.693.683 1.383 1.366 2.074 2.049-.45.1-.906.199-1.358.298-.127-.142-.254-.287-.382-.429zm-9.11-2.136c-.635-.872-1.268-1.743-1.901-2.616l1.07-.038 2.005 2.5c-.389.049-.783.103-1.174.154zM461.319 406.214a15.915 15.915 0 002.674-5.353c1.639-5.798 1.226-13.034.789-20.696-.544-9.514-1.106-19.351 1.918-28.242 2.854-8.396 9.087-14.984 19.067-20.156 16.706-8.65 24.378-15.796 26.477-24.668.201-.85.381-1.705.555-2.564a351.15 351.15 0 005.526-.823 76.547 76.547 0 01-.395 3.226c-1.451 9.841-8.792 18.208-23.79 27.137-9.982 5.942-16.129 13.372-18.791 22.714-2.667 9.36-1.839 19.728-1.109 28.878.621 7.804 1.209 15.173-.394 20.788-.663 2.293-1.818 4.249-3.554 5.976a167.36 167.36 0 00-8.973-6.217zm-14.675-2.333a22.549 22.549 0 002.435-2.433c3.277 1.572 6.503 3.383 9.682 5.357a21.08 21.08 0 01-2.786 2.364c-3.06-1.896-6.168-3.686-9.331-5.288zm-43.609-.201a58.888 58.888 0 00-4.763-.217c.122-.123.247-.247.372-.366 2.267-.249 4.516-.311 6.753-.257-.779.295-1.568.572-2.362.84zM353.71 595.462a1419.167 1419.167 0 00-5.466-3.507 517.55 517.55 0 00-1.322-6.082c2.569 1.69 5.23 3.467 7.934 5.285.35 1.95.673 3.841.967 5.658-.702-.452-1.418-.909-2.113-1.354zm-5.402 3.797a973.345 973.345 0 00-7.639-4.647 832.496 832.496 0 00-1.557-6.295 458.86 458.86 0 017.993 5.007c.427 2.046.828 4.031 1.203 5.935zm-76.927 26.393c-.607.969-1.228 1.948-1.87 2.94-.768-.18-1.538-.329-2.308-.491.704-.888 1.392-1.763 2.063-2.628.705.05 1.411.108 2.115.179zm1.797.202c.73.091 1.46.198 2.193.315a239.342 239.342 0 01-1.808 3.458c-.795-.219-1.589-.412-2.385-.611a277.117 277.117 0 002-3.162zm10.19-8.845c-.456 1.161-.927 2.341-1.401 3.535a48.8 48.8 0 00-1.824-.186c.541-1.112 1.071-2.204 1.593-3.283a31.382 31.382 0 011.632-.066zm15.962-25.098c.166-.085.332-.164.501-.243-.187.77-.372 1.553-.553 2.348l-.362-.836c.136-.429.275-.85.414-1.269zm20.188-6.097c.237.069.491.155.738.236.654 2.04 1.3 4.053 1.926 6.017-1.753-.774-3.399-1.422-4.898-1.895a44.277 44.277 0 00-3.081-.85 6250.24 6250.24 0 00-1.715-4.821c2.122.139 4.449.567 7.03 1.313zm-6.708 3.199c-2.722-.547-5.177-.724-7.397-.544l-1.073-2.749c2.011-.854 4.264-1.299 6.846-1.275a4622.92 4622.92 0 001.624 4.568zm1.757 7.168c-2.454-.835-4.712-1.405-6.813-1.746-.558-1.417-1.123-2.864-1.688-4.305 2.212-.126 4.656.104 7.401.735l2.009 5.656c-.3-.108-.617-.239-.909-.34zm-11.281-9.964c.31.794.623 1.6.933 2.39-.612.085-1.209.196-1.787.335.245-.916.497-1.806.756-2.673.033-.016.064-.036.098-.052zm1.574 4.021l1.573 4.013c-1.886-.224-3.645-.258-5.286-.097.261-1.132.524-2.236.794-3.308a16.861 16.861 0 012.919-.608zm-4.328 6.679c.077-.354.152-.709.229-1.059 1.935-.25 4.034-.225 6.353.12l2.1 5.336c-2.692-.828-5.164-1.337-7.449-1.549l-1.233-2.848zm-.019 2.761c-.188-.009-.38-.024-.565-.029.059-.287.121-.571.181-.855l.384.884zm.701 1.619c.735 1.691 1.464 3.369 2.187 5.028a38.194 38.194 0 00-4.629-.923c.287-1.424.57-2.813.849-4.176.521.007 1.052.029 1.593.071zm-4.299 3.911a30.19 30.19 0 00-1.325-.061c.328-1.283.653-2.531.975-3.752.378-.048.759-.085 1.147-.112-.264 1.284-.528 2.592-.797 3.925zm-.302 1.512c-.033.152-.061.302-.093.454-.245 1.227-.506 2.516-.763 3.792a39.657 39.657 0 00-1.574-.25c.075-.303.159-.629.235-.93.267-1.061.527-2.097.789-3.124.461.006.929.027 1.406.058zm-3.954 2.623c-.095.38-.201.787-.297 1.171a34.815 34.815 0 00-1.454-.086c.385-1.23.765-2.428 1.14-3.599.419-.052.844-.091 1.276-.117-.221.867-.442 1.742-.665 2.631zm-.679 2.681a851.74 851.74 0 01-1.062 4.145 46.969 46.969 0 00-1.729-.28c.409-1.289.812-2.568 1.197-3.8.014-.043.027-.088.043-.131.51.008 1.028.029 1.551.066zm-4.577 3.658a39.994 39.994 0 00-1.626-.117l.441-1.127.913-2.347c.474-.048.952-.083 1.437-.107-.382 1.218-.77 2.45-1.165 3.698zm-.46 1.442c-.423 1.323-.846 2.648-1.29 4.001a56.473 56.473 0 00-1.932-.34 451.748 451.748 0 001.485-3.761c.573.02 1.151.053 1.737.1zm-5.521 4.785a327.33 327.33 0 01-1.541 3.747 70.008 70.008 0 00-2.142-.451c.59-1.171 1.165-2.328 1.725-3.47.649.046 1.302.102 1.958.174zm-5.404 2.984a70.216 70.216 0 00-2.053-.31c.618-1 1.223-1.986 1.814-2.958.619-.004 1.238.001 1.864.02a327.9 327.9 0 01-1.625 3.248zm1.079 1.574c.746.14 1.498.295 2.253.463a268.639 268.639 0 01-1.701 3.923c-.819-.263-1.633-.5-2.448-.74a254.204 254.204 0 001.896-3.646zm3.956.864c.75.186 1.508.389 2.27.606a247.018 247.018 0 01-1.574 4.328c-.827-.301-1.647-.58-2.465-.858a274.734 274.734 0 001.769-4.076zm.522-1.268c.55-1.324 1.091-2.635 1.609-3.928.665.1 1.336.212 2.015.338a315.046 315.046 0 01-1.42 4.185 63.585 63.585 0 00-2.204-.595zm5.36-3.229c.682.153 1.369.324 2.064.509-.413 1.495-.847 3.01-1.299 4.548a76.336 76.336 0 00-2.234-.732c.511-1.469.996-2.905 1.469-4.325zm.453-1.341c.468-1.426.912-2.812 1.348-4.18.598.079 1.201.167 1.812.275a508.088 508.088 0 01-1.177 4.401 56.306 56.306 0 00-1.983-.496zm4.942-3.548a46.8 46.8 0 011.886.459c-.33 1.545-.689 3.136-1.05 4.73a66.037 66.037 0 00-2.051-.653c.421-1.54.827-3.052 1.215-4.536zm.367-1.41c.382-1.479.753-2.92 1.11-4.336.542.069 1.092.15 1.652.248-.302 1.474-.623 3.001-.945 4.534a48.392 48.392 0 00-1.817-.446zm4.584-3.72c2.643.594 5.474 1.502 8.563 2.771.634.262 1.29.551 1.937.828 1.025 2.371 2.029 4.702 3.009 6.991a370.27 370.27 0 00-7.105-3.183 68.708 68.708 0 00-7.378-2.734c.334-1.58.664-3.152.974-4.673zm9.126 1.396c-3.185-1.308-6.104-2.248-8.828-2.869.257-1.282.519-2.572.764-3.802.044-.217.088-.429.129-.644 1.791.233 3.693.649 5.716 1.241l2.733 6.292c-.169-.07-.345-.148-.514-.218zm-.814-5.639a57.38 57.38 0 012.981 1.059c1.512.588 3.08 1.245 4.698 1.959a6522.67 6522.67 0 012.708 6.868c-2.6-1.21-5.123-2.348-7.568-3.391a3367 3367 0 00-2.819-6.495zm3.535-.371a54.453 54.453 0 00-4.341-1.482 7.042 7.042 0 00-.095-.216l-2.203-5.072c2.282.284 4.757.87 7.475 1.784l2.012 5.096c.172.43.332.841.501 1.267a111.329 111.329 0 00-3.349-1.377zm3.929-.316l-1.644-4.167c2.407.886 5.022 2.016 7.791 3.32l2.387 6.735a237.87 237.87 0 00-7.608-3.545l-.926-2.343zm-1.207-5.693c-.409-.149-.805-.279-1.204-.414-.721-1.83-1.456-3.692-2.192-5.568 1.741.337 3.593.832 5.589 1.512.687.233 1.41.513 2.143.8l2.283 6.439c-2.327-1.064-4.553-2.015-6.619-2.769zm5.837-3.053c2.45 1.031 5.092 2.286 7.906 3.722a3126.41 3126.41 0 012.064 6.598 261.04 261.04 0 00-7.654-3.791c-.758-2.135-1.528-4.312-2.316-6.529zm-.734-2.066c-.681-1.922-1.376-3.878-2.08-5.861.621.167 1.255.35 1.906.556 1.821.575 3.87 1.414 6.084 2.445.702 2.212 1.388 4.379 2.051 6.491-2.832-1.415-5.51-2.66-7.961-3.631zm7.462-2.12c2.495 1.215 5.179 2.642 7.996 4.207.611 2.208 1.196 4.355 1.756 6.418a331.804 331.804 0 00-7.691-4.091c-.669-2.127-1.354-4.303-2.061-6.534zm-.694-2.184a1898.51 1898.51 0 00-1.98-6.197c2.411.916 5.19 2.254 8.235 3.889.628 2.208 1.231 4.358 1.811 6.445-2.852-1.562-5.56-2.967-8.066-4.137zm4.691-12.417c-.573-1.943-1.167-3.936-1.776-5.961 2.328.8 5.231 2.253 8.537 4.151a628.593 628.593 0 011.677 6.365c-3.058-1.798-5.903-3.357-8.438-4.555zm9.057 6.972c.55 2.165 1.075 4.278 1.574 6.32-2.839-1.686-5.566-3.254-8.122-4.628-.589-2.067-1.209-4.203-1.842-6.375 2.54 1.275 5.359 2.867 8.39 4.683zm-10.626-7.684c-1.515-.658-2.906-1.169-4.136-1.489a38.923 38.923 0 00-3.958-.827c-.455-1.391-.916-2.798-1.384-4.221 2.26-.102 4.783.147 7.644.802.04.01.088.027.131.039a1044.46 1044.46 0 011.703 5.696zm-4.58.22c1.5.391 3.269 1.092 5.237 2.013a911.61 911.61 0 011.822 6.297c-3.07-1.595-5.85-2.859-8.244-3.664-.559-1.731-1.126-3.488-1.707-5.276.929.167 1.886.367 2.892.63zm9.314 11.473a270.313 270.313 0 018.032 4.652 683.879 683.879 0 011.466 6.191 513.155 513.155 0 00-7.692-4.391c-.578-2.085-1.182-4.242-1.806-6.452zm9.654 5.627a1312.377 1312.377 0 017.519 4.587c.379 1.978.736 3.888 1.068 5.71a2269.12 2269.12 0 01-5.043-2.929c-.702-.409-1.405-.817-2.1-1.223a879.343 879.343 0 00-1.444-6.145zm-2.737-11.08a672.698 672.698 0 00-1.665-6.373c2.614 1.549 5.44 3.334 8.409 5.265.479 2.103.935 4.16 1.357 6.132a373.854 373.854 0 00-8.101-5.024zm157.867-279.427c-3.368 6.523-14.34 11.011-29.455 16.627-11.104 4.124-18.253 9.89-21.857 17.628-4.095 8.792-3.975 18.972-3.858 28.817.082 6.955.16 13.526-1.326 18.889-.655 2.334-1.763 4.438-3.39 6.444-4.306-1.063-8.698-1.615-13.172-1.549.099-.097.203-.183.301-.28 3.25-3.27 5.245-6.531 6.279-10.258 1.487-5.418 1.557-11.792 1.627-18.539.105-9.8.211-19.931 4.671-28.22 3.717-6.906 10.928-11.898 22.048-15.255l4.247-1.275c14.04-4.2 24.186-7.233 27.946-12.543 1.965-.141 3.947-.305 5.939-.486zm27.845-21.791c.19 1.552.364 3.106.515 4.657-1.436.384-2.884.771-4.3 1.152a211.63 211.63 0 00-.1-4.515c1.277-.436 2.574-.866 3.885-1.294zm-3.927-.019a595.476 595.476 0 00-.184-4.31c1.091-.471 2.217-.932 3.349-1.389.211 1.48.41 2.963.599 4.451-1.27.413-2.527.829-3.764 1.248zm-1.433 6.251l-4.284 1.154c.135-1.408.252-2.813.36-4.214 1.263-.45 2.539-.898 3.834-1.346.045 1.469.076 2.936.09 4.406zm.016 1.247c.001 1.523-.026 3.045-.073 4.562a654.36 654.36 0 01-4.861.999c.192-1.454.355-2.911.502-4.366l4.432-1.195zm-6.525 5.875c-1.664.331-3.316.654-4.942.961.349-1.338.683-2.675.999-4.014 1.476-.399 2.943-.793 4.451-1.201a143.451 143.451 0 01-.508 4.254zm-.18 1.22a97.834 97.834 0 01-.732 4.365c-1.864.256-3.723.502-5.573.724.429-1.361.835-2.726 1.207-4.101a585.56 585.56 0 005.098-.988zm-7.927 5.279c-1.883.219-3.758.422-5.625.606.58-1.218 1.139-2.444 1.678-3.679 1.696-.294 3.421-.605 5.157-.925a101.197 101.197 0 01-1.21 3.998zm-.369 1.163c-.097.287-.178.58-.277.866-2.756 7.851-12.603 13.546-27.6 20.196-10.717 4.752-17.534 11.073-20.838 19.327-3.594 8.986-3.247 19.063-2.911 28.804.249 7.247.486 14.091-1.045 19.557a15.677 15.677 0 01-2.331 4.863c-3.555-1.648-7.175-3.019-10.855-4.034 1.532-2.006 2.594-4.121 3.249-6.457 1.542-5.561 1.464-12.231 1.38-19.291-.115-9.685-.235-19.698 3.723-28.192 3.439-7.379 10.323-12.9 21.053-16.887 16.009-5.949 26.769-10.379 30.309-17.449.113-.226.215-.457.325-.684 1.928-.186 3.869-.395 5.818-.619zm-82.643 89.571c4.697-.288 9.311.163 13.842 1.196-.462.475-.943.945-1.471 1.412-.203.179-.413.334-.619.507-4.169-1.231-8.41-2.054-12.732-2.313.327-.267.659-.522.98-.802zm15.454 1.59c3.719.965 7.381 2.311 10.984 3.953a22.275 22.275 0 01-2.49 2.38c-3.46-1.682-6.979-3.142-10.555-4.298a28.811 28.811 0 002.061-2.035zm-18.607-.831a50.205 50.205 0 00-3.735.077 62.682 62.682 0 014.425-.627c-.232.181-.455.375-.69.55zm-4.056 2.706a51.44 51.44 0 00-6.036-.07 66.292 66.292 0 013.568-.534 45.341 45.341 0 013.923-.289c-.479.309-.966.602-1.455.893zm-19.894 7.009a68.762 68.762 0 00-2.609 0c.065-.059.127-.115.192-.171.908-.11 1.817-.224 2.722-.287-.083.126-.175.246-.255.372-.017.028-.032.058-.05.086zm-7.375 1.982c-.399.006-.799.03-1.197.044.608-.075 1.215-.109 1.825-.165l-.002.003c-.21.041-.419.077-.626.118zm8.82-4.156c.05-.009.1-.014.15-.022-.007.004-.01.011-.014.016l-.136.006zm-13.171 2.216a47.023 47.023 0 00-6.252 2.309 52.37 52.37 0 00-5.893 2.115c-.325.095-.647.169-.972.271-.889.279-1.747.577-2.59.883-5.476 1.108-10.992 2.443-16.518 4.28 5.797-2.033 11.593-3.749 17.302-5.421 5.845-1.711 11.575-3.395 17.054-5.381-.735.3-1.443.615-2.131.944zm-46.744 16.037c-19.444 10.379-27.376 26.787-23.578 48.766 2.481 14.359 8.167 31.244 14.183 49.119 2.306 6.852 4.692 13.936 6.931 20.996 3.853 12.143 6.873 22.964 9.312 32.637-3.27-2.077-6.221-3.81-8.768-5.069a710.677 710.677 0 00-7.896-25.829c-1.817-5.567-3.691-11.111-5.538-16.587-6.498-19.242-12.636-37.418-15.075-52.623-3.274-20.401 4.368-36.355 22.72-47.415 4.286-2.586 8.632-4.717 12.998-6.592a86.589 86.589 0 00-5.289 2.597zm5.985-2.9c.427-.182.852-.377 1.28-.55-.427.18-.854.362-1.28.55zm-2.404 2.646c-16.439 9.713-22.844 25.204-18.974 46.165 2.507 13.574 7.833 29.375 13.472 46.104 2.714 8.055 5.524 16.384 8.091 24.704 5.022 16.27 8.461 29.983 10.903 41.623a376.764 376.764 0 00-8.513-5.725c-2.502-10.056-5.639-21.378-9.694-34.159-2.244-7.07-4.63-14.161-6.938-21.017-6.001-17.824-11.67-34.66-14.131-48.913-3.683-21.322 4.017-37.235 22.858-47.298a84.637 84.637 0 012.926-1.484zm3.929 154.416c.528 2.146 1.032 4.24 1.506 6.271-3.042-1.96-5.893-3.726-8.502-5.228a623.486 623.486 0 00-1.733-6.299c2.567 1.374 5.513 3.169 8.729 5.256zm3.184 7.36a490.53 490.53 0 00-1.472-6.24c2.666 1.76 5.48 3.677 8.396 5.697.41 2.03.789 3.988 1.141 5.89a746.63 746.63 0 00-8.065-5.347zm8.631.644a2021.78 2021.78 0 016.057 4.231c.575.404 1.152.808 1.727 1.209.28 1.86.532 3.65.759 5.377-1.864-1.245-3.719-2.493-5.553-3.725-.632-.427-1.256-.846-1.881-1.265a389.54 389.54 0 00-1.109-5.827zm7.125 2.707c-2.625-1.838-5.184-3.63-7.659-5.345-2.465-11.991-5.991-26.217-11.242-43.234-2.576-8.337-5.386-16.675-8.106-24.74-5.621-16.678-10.931-32.432-13.42-45.905-4.058-21.982 3.061-37.205 21.692-46.517-13.977 9.25-18.888 23.698-14.924 43.921 2.533 12.918 7.578 27.818 12.919 43.591 3.082 9.097 6.267 18.504 9.095 27.918 6.228 20.714 9.792 37.24 11.91 50.495-.089-.06-.178-.122-.265-.184zm-10.22-50.74c-2.837-9.437-6.025-18.856-9.111-27.965-5.325-15.726-10.355-30.579-12.868-43.403-4.254-21.709 2.011-36.533 19.127-45.213-12.421 8.886-16.483 22.948-12.403 42.643 2.559 12.363 7.379 26.502 12.483 41.473 3.414 10.01 6.943 20.361 9.982 30.735 7.538 25.736 10.869 44.674 12.305 58.951a1339.626 1339.626 0 01-7.336-5.109c-2.097-13.544-5.704-30.576-12.179-52.112zm33.778-126.602c.186-.006.374-.017.56-.021-.005.009-.011.017-.015.026l-.545-.005zm11.111-4.149c.486-.012.972-.048 1.455-.048-.591.162-1.182.321-1.779.472.106-.143.216-.283.324-.424zm4.761-4.017a78.884 78.884 0 011.655-.284c2.648-.407 5.27-.56 7.873-.531-.667.338-1.345.653-2.025.963a54.825 54.825 0 00-7.503-.148zm12.268-.691c4.311.281 8.559 1.088 12.737 2.309a40.319 40.319 0 01-3.018 1.464c-3.869-1.208-7.803-2.124-11.796-2.656.7-.356 1.393-.729 2.077-1.117zm2.595-1.581c.519-.342 1.028-.709 1.539-1.074 4.506.07 8.939.763 13.296 1.957a38.182 38.182 0 01-2.577 1.764c-4.016-1.276-8.105-2.187-12.258-2.647zm16.553 1.355c3.586 1.089 7.114 2.513 10.593 4.16a32.313 32.313 0 01-2.978 1.924 94.84 94.84 0 00-10.196-4.197 38.438 38.438 0 002.581-1.887zm17.286-.312a17.171 17.171 0 002.396-5.106c1.592-5.689 1.354-12.647 1.099-20.012-.33-9.588-.671-19.505 2.805-28.199 3.154-7.878 9.717-13.934 20.06-18.52 15.358-6.811 25.467-12.71 28.401-21.065.178-.508.323-1.028.491-1.542a336.12 336.12 0 005.703-.736c-.139.665-.273 1.329-.43 1.986-1.986 8.385-9.428 15.24-25.691 23.661-10.341 5.356-16.827 12.233-19.813 21.024-3.121 9.174-2.524 19.613-1.999 28.824.431 7.528.838 14.64-.732 20.188a14.37 14.37 0 01-2.501 4.947c-3.209-2.006-6.472-3.843-9.789-5.45zm62.795-96.558a98.09 98.09 0 00.733-4.458c1.64-.328 3.308-.672 4.983-1.023a97.338 97.338 0 01-.305 4.666c-1.806.287-3.612.56-5.411.815zm7.312-5.814c1.609-.34 3.242-.697 4.884-1.058.071 1.638.104 3.272.096 4.902-1.76.312-3.52.61-5.274.896.137-1.576.231-3.156.294-4.74zm.05-1.201c.045-1.547.061-3.096.053-4.647 1.445-.389 2.924-.784 4.389-1.175.143 1.598.254 3.194.338 4.787-1.607.354-3.204.702-4.78 1.035zm6.041-6.25c1.433-.381 2.875-.766 4.33-1.152.266 1.65.5 3.299.707 4.951-1.572.359-3.139.718-4.684 1.062a139.822 139.822 0 00-.353-4.861zm-.115-1.221a195.645 195.645 0 00-.529-4.747c1.281-.412 2.585-.819 3.9-1.223.314 1.607.609 3.219.883 4.841-1.429.379-2.846.754-4.254 1.129zm-.692-6.014a297.06 297.06 0 00-.62-4.557c1.134-.444 2.281-.883 3.458-1.312.339 1.547.671 3.104.988 4.671-1.289.397-2.57.795-3.826 1.198zm1.538-11.593c.343 1.464.683 2.945 1.017 4.438-1.147.417-2.258.843-3.362 1.274a997.253 997.253 0 00-.643-4.333 90.05 90.05 0 012.988-1.379zm.192-6.429c.88-.454 1.779-.896 2.713-1.32.467 1.487.934 2.99 1.401 4.508-1.042.396-2.069.8-3.065 1.218-.278-1.171-.555-2.344-.829-3.489l-.22-.917zm2.487-7.757a45.368 45.368 0 012.535-1.196c.568 1.482 1.142 2.977 1.715 4.49-.976.361-1.929.736-2.855 1.129l-.612-1.937c-.263-.837-.526-1.662-.783-2.486zm1.953-7.64c.78-.374 1.581-.735 2.424-1.067a1617.95 1617.95 0 011.999 4.494c-.94.31-1.846.641-2.728.988-.089-.227-.176-.458-.265-.685-.484-1.257-.96-2.497-1.43-3.73zm73.234 10.15c.197-.001.389.002.584.001l1.404.807-.736.087c-.416-.3-.834-.598-1.252-.895zm-1.078 1.17l-.936.112-1.498-1.278.797-.001 1.637 1.167zm-32.261-17.286c.494.741.993 1.49 1.49 2.239-11.359-2.466-22.68-3.149-33.34-.617-.763-1.53-1.523-3.043-2.27-4.529 10.58-2.781 22.253-1.105 34.12 2.907zm8.857 5.622c.487.596.977 1.194 1.464 1.797l-.439-.07c-.439-.607-.879-1.207-1.318-1.808.097.028.196.052.293.081zm-1.708-2.012c-.153-.21-.306-.418-.457-.628l.529.647-.072-.019zm.212 3.358c-.185-.027-.37-.051-.554-.076-.489-.741-.978-1.478-1.463-2.21l.421.106 1.596 2.18zm1.187 1.63l1.791 2.456c-.265-.01-.531-.017-.793-.03-.561-.844-1.121-1.688-1.674-2.524.225.032.451.064.676.098zm2.54.406c.203.034.404.072.607.106l1.71 2.115c-.247-.017-.49-.034-.737-.048-.528-.729-1.055-1.451-1.58-2.173zm3.269.587c.166.03.331.064.496.095.525.575 1.05 1.152 1.575 1.732-.208-.016-.419-.025-.629-.041l-1.442-1.786zm3.336.659c.105.024.21.045.315.068.47.449.939.902 1.406 1.353-.157-.012-.316-.028-.475-.04l-1.246-1.381zm-4.46-2.334l-.269-.046a328.64 328.64 0 00-1.107-1.369c.036.012.072.022.108.032.422.457.846.921 1.268 1.383zm-10.204-6.846c.451.609.902 1.221 1.354 1.836a11.062 11.062 0 00-.261-.066l-1.202-1.81.109.04zm-.345 2.967l1.681 2.536c-11.163-1.355-22.417-1.359-33.249 1.035-.762-1.557-1.524-3.1-2.281-4.62 10.783-2.486 22.296-1.619 33.849 1.049zm2.729 4.12c.259.388.517.778.777 1.171.351.532.711 1.074 1.067 1.61-11.026-.337-22.264.286-33.245 2.66a522.327 522.327 0 00-2.245-4.658c10.939-2.362 22.34-2.258 33.646-.783zm-33.253 5.883c-1.089.256-2.178.512-3.262.804a764.136 764.136 0 00-2.037-4.668c.205-.059.401-.125.611-.184a80.262 80.262 0 012.431-.633 555.735 555.735 0 012.257 4.681zm-2.475 7.302c-1.157.312-2.263.651-3.369.987a576.644 576.644 0 00-1.759-4.725 77.14 77.14 0 013.132-.978c.67 1.562 1.337 3.134 1.996 4.716zm-.231-5.199a94.131 94.131 0 013.314-.815c.733 1.55 1.458 3.117 2.176 4.695-1.165.272-2.323.569-3.483.866a439.192 439.192 0 00-2.007-4.746zm5.169-1.244c11.083-2.36 22.443-2.926 33.582-2.527l1.951 2.938c-10.934.61-22.222 1.869-33.351 4.31-.72-1.585-1.446-3.16-2.182-4.721zm35.873-2.439c.293.013.592.018.888.033.522.72 1.045 1.438 1.567 2.159.121.164.241.331.362.498-.332.015-.666.034-.998.05-.609-.915-1.218-1.834-1.819-2.74zm3.923 1.126l-.684-.942c.287.017.572.037.859.055.622.773 1.246 1.547 1.871 2.326-.326.01-.648.022-.974.035l-1.072-1.474zm2.574-.725c.269.021.535.049.803.071l1.796 1.989-.924.025c-.56-.699-1.118-1.392-1.675-2.085zm3.319.29c.232.021.464.039.695.062.563.545 1.125 1.09 1.687 1.638l-.837.02c-.514-.574-1.03-1.15-1.545-1.72zm3.373.33l.561.06c.504.421 1.008.841 1.512 1.264-.239.004-.474.006-.711.008-.453-.443-.906-.889-1.362-1.332zm3.646 2.655c.597.507 1.195 1.014 1.792 1.523l-1.055.126a858.785 858.785 0 00-1.663-1.639c.31-.002.619-.006.926-.01zm.911-1.359c-.364-.309-.728-.616-1.092-.923.104.013.207.027.311.038l1.264.882-.483.003zm-6.179-2.873c-.313-.305-.626-.61-.94-.912.023.004.045.011.068.015.372.306.745.615 1.118.925-.082-.01-.162-.02-.246-.028zm-23.447-13.978c-11.594-3.685-23.003-5.066-33.439-2.234-.758-1.507-1.502-2.99-2.235-4.457.155-.05.301-.107.459-.155 10.284-3.116 21.849-.629 33.837 4.79.457.68.917 1.365 1.378 2.056zm-32.305 4.174c-.203.056-.408.101-.609.159-.712.206-1.401.425-2.073.656-.671-1.501-1.327-2.978-1.977-4.439a31.228 31.228 0 012.406-.864c.741 1.473 1.495 2.973 2.253 4.488zm-.197 1.59c.291-.084.586-.15.877-.23a940.895 940.895 0 012.266 4.578c-.728.18-1.453.363-2.176.568-.276.076-.538.161-.81.243-.681-1.54-1.361-3.064-2.034-4.572.61-.207 1.236-.403 1.877-.587zm-.999 7.026a602.243 602.243 0 012.019 4.621 74.266 74.266 0 00-3.068.965 867.41 867.41 0 00-1.749-4.572 48.715 48.715 0 012.798-1.014zm-2.225 7.48c.58 1.538 1.159 3.088 1.733 4.65a98.761 98.761 0 00-3.226 1.109c-.476-1.55-.957-3.087-1.434-4.604a69.44 69.44 0 012.927-1.155zm-2.716 7.651c.468 1.533.93 3.082 1.383 4.641a165.67 165.67 0 00-3.476 1.187 533.768 533.768 0 00-1.052-4.576 93.205 93.205 0 013.145-1.252zm-1.81 7.111c1.167-.412 2.341-.823 3.551-1.217a253.25 253.25 0 011.326 4.808c-1.309.379-2.593.763-3.868 1.147-.324-1.592-.661-3.17-1.009-4.738zm5.195-1.73c1.194-.377 2.398-.751 3.638-1.111.55 1.618 1.082 3.248 1.6 4.882-1.319.358-2.614.719-3.9 1.084-.43-1.628-.877-3.247-1.338-4.855zm-.359-1.253a408.239 408.239 0 00-1.408-4.729 98.718 98.718 0 013.289-1.131 325.556 325.556 0 011.689 4.768c-1.216.356-2.397.723-3.57 1.092zm3.575-6.375c1.121-.34 2.24-.684 3.411-1 .005-.001.011-.004.015-.004.658 1.597 1.3 3.206 1.933 4.821-.307.078-.614.146-.921.227-.934.246-1.826.508-2.737.765a331.153 331.153 0 00-1.701-4.809zm5.203-1.45c1.178-.299 2.355-.598 3.537-.871a303.742 303.742 0 012.108 4.787c-1.238.294-2.476.602-3.712.913a313.325 313.325 0 00-1.933-4.829zm5.399-1.275c11.223-2.44 22.618-3.674 33.645-4.26.68 1.022 1.362 2.048 2.049 3.076-10.917 1.491-22.251 3.327-33.613 5.928a293.04 293.04 0 00-2.081-4.744zm35.806-4.368c.358-.017.721-.04 1.077-.055l2.044 2.809-1.181.159c-.649-.975-1.298-1.947-1.94-2.913zm7.832 1.363l-1.287-1.603c.353-.008.699-.014 1.052-.024l1.966 2.194-1.161.144a118.26 118.26 0 01-.57-.711zm2.03-1.677l.997-.019 1.901 1.867c-.369.045-.747.095-1.118.14-.594-.666-1.188-1.327-1.78-1.988zm6.208 2.76l1.22-.144 2.004 1.719-1.331.3-1.893-1.875zm3.416-.405c.384-.044.779-.091 1.161-.137.64.459 1.277.921 1.914 1.383-.423.098-.858.193-1.286.291a633.474 633.474 0 00-1.789-1.537zm3.481-.411c.351-.041.703-.083 1.053-.126l1.767 1.032c-.393.094-.791.185-1.189.276-.543-.393-1.086-.789-1.631-1.182zm3.582-.426c.295-.035.593-.069.888-.105.511.227 1.021.453 1.529.681-.341.081-.674.164-1.018.247l-1.399-.823zm3.76-.454c.194-.022.391-.047.584-.071.386.118.775.234 1.158.35-.238.059-.487.117-.725.176-.339-.151-.68-.302-1.017-.455zm-5.624-.635c-.281-.163-.564-.328-.847-.49l.246-.001 1.013.443c-.139.017-.273.034-.412.048zm-6.415-1.854c-.125-.088-.249-.175-.371-.263l.463.263h-.092zm-69.409-29.99c9.69-3.025 20.745.312 32.455 7.03.366.54.736 1.087 1.105 1.635-11.495-4.857-22.618-6.918-32.662-3.875-.245.073-.474.16-.713.239a489.543 489.543 0 01-2.114-4.306 20.12 20.12 0 011.929-.723zm-.861 7.099c.712 1.425 1.438 2.873 2.179 4.348-.806.262-1.588.543-2.33.848a478.51 478.51 0 01-1.863-4.27c.635-.335 1.311-.64 2.014-.926zm-1.187 7.334c.629 1.42 1.27 2.856 1.925 4.326-.816.32-1.594.666-2.351 1.025a520.67 520.67 0 01-1.598-4.236 26.127 26.127 0 012.024-1.115zm-1.472 7.57c.445 1.166.901 2.349 1.364 3.549l.278.728a47.23 47.23 0 00-2.457 1.147 566.799 566.799 0 01-1.293-4.171 31.747 31.747 0 012.108-1.253zm-1.916 7.661c.229.718.457 1.441.687 2.169l.665 2.11c-.9.409-1.767.838-2.62 1.276a725.298 725.298 0 01-.98-4.168c.725-.477 1.47-.945 2.248-1.387zm-2.468 7.737l.117.49c.296 1.242.599 2.511.898 3.783-.975.43-1.95.857-2.883 1.309-.209-1.392-.416-2.769-.616-4.131.802-.5 1.636-.98 2.484-1.451zm-3.405 6.298c.005.022.007.044.011.065-.902.458-1.802.916-2.665 1.392a404.14 404.14 0 01-.152-3.763 56.442 56.442 0 012.225-1.572c.19 1.28.385 2.575.581 3.878zm.222 1.479c.208 1.381.412 2.77.614 4.16-1.092.439-2.171.884-3.227 1.335l-.073-1.532-.12-2.465a88.048 88.048 0 012.806-1.498zm-4.266 4.039l.104 2.138c-1.029.454-2.056.91-3.052 1.375.087-1.204.175-2.398.269-3.578a84.71 84.71 0 012.6-1.591l.079 1.656zm.171 3.538c.063 1.378.122 2.762.172 4.149-1.247.426-2.474.857-3.688 1.288.093-1.233.182-2.464.27-3.688.005-.09.012-.181.019-.274a151.93 151.93 0 013.227-1.475zm-5.1 5.997c-1.2.433-2.383.869-3.554 1.305.038-.181.08-.365.118-.546.216-.997.433-1.989.652-2.977a158.93 158.93 0 013.063-1.534 567.952 567.952 0 01-.279 3.752zm-.104 1.375c-.11 1.358-.232 2.717-.366 4.077l-.3.08-3.967 1.069c.295-1.285.582-2.563.862-3.837 1.239-.465 2.496-.927 3.771-1.389zm-6.582 7.002a147.404 147.404 0 01-.986 3.873 522.79 522.79 0 01-4.931.896c.51-1.195 1.006-2.389 1.493-3.584 1.464-.391 2.929-.782 4.424-1.185zm-7.616 5.054c-1.651.283-3.292.559-4.903.816.665-1.022 1.31-2.036 1.959-3.053 1.446-.383 2.906-.767 4.382-1.161a198.331 198.331 0 01-1.438 3.398zm-.559 1.274a121.83 121.83 0 01-1.654 3.554c-1.915.178-3.819.337-5.712.477a161 161 0 002.152-3.178c1.716-.269 3.454-.556 5.214-.853zm-9.138 4.163c-1.911.134-3.804.239-5.685.333.862-.861 1.72-1.727 2.571-2.598a385.46 385.46 0 005.155-.753c-.675 1.012-1.344 2.026-2.041 3.018zm-.933 1.177c-4.086 4.383-14.046 7.368-26.439 11.075l-4.249 1.277c-11.488 3.47-18.97 8.68-22.872 15.93-4.623 8.59-4.732 18.897-4.838 28.865-.07 6.655-.137 12.941-1.576 18.183-.967 3.487-2.85 6.55-5.925 9.644-.466.471-.953.904-1.433 1.345-.482.029-.965.052-1.449.094-7.042.639-12.738 2.143-17.181 4.534-2.587.731-4.909 1.638-6.979 2.721-2.443.71-4.663 1.563-6.665 2.565-.68.199-1.346.407-1.993.626 9.773-3.767 18.643-8.696 25.744-16.808 2.988-3.415 4.848-6.714 5.855-10.38 1.43-5.256 1.628-11.328 1.84-17.755.327-9.934.664-20.207 5.652-28.281 3.997-6.466 11.532-10.922 23.047-13.626 3.619-.85 7.101-1.604 10.375-2.313 10.664-2.308 19.206-4.165 23.094-7.362 1.98-.089 3.979-.202 5.992-.334zM327.76 567.953c1.339.261 3.047.938 5.022 1.91a614.69 614.69 0 011.731 6.215c-3.327-1.833-6.2-3.149-8.51-3.776-.478-1.581-.97-3.186-1.473-4.817 1.03.101 2.099.249 3.23.468zm-3.219 4.009c-2.889-.598-5.466-.814-7.773-.67-.316-.957-.637-1.928-.961-2.899 2.11-.786 4.53-1.131 7.329-1.004.48 1.545.949 3.069 1.405 4.573zm-9.054-.548c-2.478.311-4.635 1.059-6.534 2.206 1.595-2.089 3.464-3.676 5.696-4.737.279.846.564 1.696.838 2.531zm.59 1.787c.435 1.33.868 2.647 1.292 3.949-2.76-.3-5.197-.168-7.374.345-.225-.631-.449-1.258-.674-1.896 1.929-1.29 4.153-2.104 6.756-2.398zm1.902 5.812c.554 1.705 1.102 3.393 1.635 5.047-2.854-.8-5.422-1.228-7.753-1.321-.414-1.169-.831-2.34-1.254-3.527 2.157-.491 4.592-.57 7.372-.199zm-7.408 3.704c-2.484.034-4.69.465-6.669 1.266a56.88 56.88 0 01.636-1.824 14.662 14.662 0 014.897-2.633l1.136 3.191zm-11.787 13.5a300.15 300.15 0 00-.741 3.459c-.349.019-.697.04-1.036.071.305-1.125.612-2.227.92-3.293.282-.085.567-.164.857-.237zm-3.733 3.819c-.265.051-.535.098-.797.157.324-.919.648-1.809.974-2.677.196-.097.396-.186.594-.276a277.56 277.56 0 00-.771 2.796zm-.45 1.701c-.294 1.12-.589 2.265-.886 3.431-.389.016-.775.038-1.156.073.361-1.111.718-2.197 1.076-3.251.318-.09.64-.179.966-.253zm-3.985 3.768c-.306.054-.615.107-.919.172.374-.901.745-1.78 1.117-2.633.234-.11.472-.213.709-.311a438.87 438.87 0 00-.907 2.772zm-.523 1.637c-.341 1.072-.686 2.17-1.034 3.282-.438.01-.871.029-1.296.06.415-1.055.823-2.08 1.227-3.083.365-.097.732-.183 1.103-.259zm-4.26 3.549c-.356.048-.711.105-1.06.168.415-.833.827-1.65 1.235-2.442.284-.118.569-.233.856-.338-.341.855-.684 1.727-1.031 2.612zm-.651 1.662l-.569 1.46c-.216.562-.444 1.14-.666 1.709-.496 0-.987.009-1.475.03.488-1.004.966-1.987 1.436-2.946.421-.095.846-.178 1.274-.253zm-4.633 3.332c-.418.04-.835.087-1.25.141.481-.789.955-1.554 1.426-2.306.345-.12.692-.235 1.04-.342a564.37 564.37 0 00-1.216 2.507zm-.761 1.566c-.478.988-.96 1.981-1.455 2.994a43.591 43.591 0 00-1.688-.045c.198-.33.404-.667.601-.992l1.056-1.743c.493-.081.989-.153 1.486-.214zm-3.935 1.114l-1.126 1.857c-.489.014-.976.035-1.461.062.549-.713 1.087-1.408 1.619-2.093.418-.109.839-.209 1.258-.305l-.29.479zm-2.013 3.315c-.538.883-1.088 1.779-1.649 2.684-.64-.071-1.28-.13-1.919-.184.623-.808 1.233-1.603 1.835-2.387a56.178 56.178 0 011.733-.113zm-5.47 2.372c-.56-.03-1.12-.056-1.682-.074l.097-.097a661.47 661.47 0 011.654-1.662 48.879 48.879 0 011.504-.206c-.515.673-1.041 1.351-1.573 2.039zm-1.023 1.318c-.609.778-1.234 1.569-1.87 2.365-.72-.136-1.448-.247-2.17-.37.698-.694 1.382-1.378 2.053-2.052.664.012 1.324.03 1.987.057zm-1.051 3.877c.818.166 1.635.333 2.451.519a211.717 211.717 0 01-2.058 3.077c-.87-.3-1.743-.584-2.615-.868.761-.92 1.501-1.83 2.222-2.728zm4.128.925c.837.206 1.673.415 2.511.643-.637 1.176-1.3 2.367-1.98 3.566-.894-.337-1.788-.652-2.682-.972.739-1.09 1.456-2.168 2.151-3.237zm4.154 1.118c.839.246 1.681.493 2.524.763a199.75 199.75 0 01-1.856 4.009c-.907-.369-1.81-.716-2.716-1.068.704-1.245 1.39-2.483 2.048-3.704zm4.168 1.312a98.17 98.17 0 012.535.883 198.221 198.221 0 01-1.732 4.397c-.906-.397-1.809-.771-2.713-1.149a205.281 205.281 0 001.91-4.131zm4.177 1.505c.846.324 1.695.652 2.551 1.004a233.465 233.465 0 01-1.597 4.729c-.915-.427-1.821-.827-2.728-1.235a236.777 236.777 0 001.774-4.498zm.466-1.217a258.811 258.811 0 001.621-4.456c.762.238 1.534.49 2.309.757-.46 1.541-.945 3.1-1.446 4.676-.834-.341-1.661-.662-2.484-.977zm5.642-3.095a93.54 93.54 0 012.339.901c-.411 1.636-.86 3.301-1.313 4.973a141.12 141.12 0 00-2.506-1.098c.513-1.61 1.01-3.203 1.48-4.776zm.382-1.299c.463-1.577.909-3.13 1.333-4.661.695.208 1.403.435 2.116.675a347.475 347.475 0 01-1.17 4.859 91.424 91.424 0 00-2.279-.873zm5.216-3.367a80.556 80.556 0 015.753 2.37c1.908.867 3.836 1.757 5.775 2.653a846.66 846.66 0 009.26 4.228c.982 2.381 1.92 4.69 2.8 6.912-6.707-2.719-13.545-5.98-19.982-9.053a110.535 110.535 0 00-4.803-2.158c.414-1.667.823-3.329 1.197-4.952zm12.112 3.755c-1.942-.895-3.871-1.785-5.78-2.654a83.899 83.899 0 00-6.026-2.479c.37-1.632.737-3.257 1.075-4.838 2.244.679 4.6 1.545 7.103 2.63 2.763 1.198 5.609 2.498 8.522 3.837a1067.58 1067.58 0 013.003 7.12 955.249 955.249 0 01-7.897-3.616zm6.406-2.808l1.565.716c1.834.849 3.678 1.696 5.525 2.538.035.094.074.191.109.284.836 2.147 1.66 4.306 2.455 6.444a283.985 283.985 0 01-6.665-2.884 863.625 863.625 0 00-2.989-7.098zm2.169-.592l-3.011-1.384c-.978-2.291-1.991-4.642-3.033-7.051a326.39 326.39 0 017.498 3.42c.937 2.381 1.84 4.688 2.715 6.935-1.393-.638-2.784-1.279-4.169-1.92zm2.984-4.297c1.232.58 2.474 1.169 3.736 1.768 1.12.532 2.244 1.066 3.371 1.599l1.44 4.069c.29.816.578 1.639.865 2.462a376.509 376.509 0 01-6.71-2.991c-.868-2.231-1.771-4.539-2.702-6.907zm4.374.424c-1.755-.834-3.469-1.644-5.164-2.439-.882-2.242-1.792-4.551-2.721-6.9a274.892 274.892 0 017.531 3.565c.817 2.303 1.612 4.55 2.385 6.738l-2.031-.964zm6.409-4.148a1259.83 1259.83 0 00-5.943-2.934c-.777-2.197-1.576-4.45-2.391-6.75a315.447 315.447 0 017.57 3.796l.876 2.804 1.16 3.715c-.423-.211-.849-.42-1.272-.631zm1.312-3.457c-.168-.531-.338-1.078-.507-1.618 1.372.713 2.755 1.436 4.159 2.17.978.511 1.967 1.024 2.953 1.54.561 2.097 1.102 4.109 1.626 6.043a551.986 551.986 0 01-6.714-3.274 4088.39 4088.39 0 01-1.517-4.861zm4.384-.85c-1.879-.982-3.73-1.949-5.553-2.891l-2.059-6.585a407.716 407.716 0 017.591 4.076 4701.41 4701.41 0 011.686 6.27c-.556-.289-1.112-.581-1.665-.87zm1.562-4.531l2.832 1.562c1.406.778 2.826 1.56 4.25 2.341.317 1.433.631 2.839.928 4.193l.348 1.561a536.764 536.764 0 01-6.688-3.438c-.533-1.988-1.088-4.062-1.67-6.219zm3.619.138c-1.417-.783-2.818-1.557-4.209-2.318a1529.63 1529.63 0 00-1.743-6.391 652.886 652.886 0 017.581 4.356c.475 2.068.929 4.076 1.361 6.001l-2.99-1.648zm3.227-3.424c.248.146.496.29.747.436 2.068 1.207 4.169 2.425 6.27 3.635.336 1.892.658 3.72.954 5.44a503.302 503.302 0 01-6.634-3.571c-.425-1.91-.868-3.885-1.337-5.94zm8.596 4.982a401.858 401.858 0 006.42 3.593c.203 1.684.39 3.289.568 4.823-.304-.15-.607-.296-.913-.448a223.87 223.87 0 01-5.145-2.616c-.29-1.701-.6-3.479-.93-5.352zm-.384-2.153a579.204 579.204 0 00-1.04-5.636 911.062 911.062 0 006.935 4.213c.24 1.784.458 3.49.66 5.124a450.553 450.553 0 01-6.555-3.701zm-1.475-7.92a497.413 497.413 0 00-1.178-5.874c1.327.849 2.661 1.707 4.01 2.574 1.131.728 2.29 1.467 3.437 2.202.291 1.877.557 3.674.799 5.408a1135.56 1135.56 0 01-7.068-4.31zm7.524-2.392a363.751 363.751 0 00-.928-5.58c.144.094.285.191.428.288 2.264 1.522 4.561 3.061 6.866 4.597.215 1.767.408 3.468.575 5.094a735.387 735.387 0 01-6.941-4.399zm7.997.384c1.103.733 2.207 1.47 3.311 2.192 1.124.738 2.249 1.469 3.371 2.195.085 1.573.151 3.079.195 4.515a512.366 512.366 0 01-5.543-3.383c-.263-.163-.529-.336-.793-.5-.16-1.605-.337-3.273-.541-5.019zm4.305.674c-1.532-1.001-3.063-2.021-4.594-3.04a265.203 265.203 0 00-.721-5.29c2.4 1.679 4.801 3.351 7.186 4.993.149 1.666.271 3.264.37 4.798-.745-.483-1.492-.97-2.241-1.461zm3.511-2.209a526.565 526.565 0 006.526 4.401c.025 1.471.026 2.873.01 4.209a361.263 361.263 0 01-6.199-3.902 195.952 195.952 0 00-.337-4.708zm-.214-2.409c-1.371-14.495-4.689-33.895-12.49-60.523-3.048-10.405-6.583-20.773-10-30.798-5.089-14.922-9.894-29.019-12.435-41.287-4.511-21.786.869-35.996 16.898-44.199-11.218 8.552-14.467 22.118-10.217 41.653 2.586 11.881 7.226 25.37 12.136 39.652 3.723 10.827 7.573 22.022 10.78 33.249 8.886 31.096 11.562 52.14 12.014 66.779a562.157 562.157 0 01-6.686-4.526zm-3.807-62.686c-3.22-11.271-7.078-22.484-10.806-33.331-4.894-14.237-9.519-27.683-12.086-39.472-4.738-21.77.158-35.831 15.376-43.603-10.373 8.338-13.144 21.751-8.737 41.082 2.614 11.457 7.101 24.383 11.852 38.067 4.016 11.566 8.168 23.528 11.515 35.533 10.293 36.915 11.774 59.737 11.03 73.886a305.986 305.986 0 01-6.039-3.884c-.35-14.784-2.95-36.237-12.105-68.278zm19.063-122.23l.005-.01c.02-.028.043-.056.063-.085 1.311.005 2.616.046 3.916.118-.023.061-.049.12-.072.182-1.298-.09-2.6-.163-3.912-.205zm14.237-4.063c3.939.299 7.829.978 11.663 1.928a70.386 70.386 0 01-3.575.693c-3.486-.818-7.025-1.461-10.607-1.846a83.538 83.538 0 002.519-.775zm3.724-1.308a60.532 60.532 0 002.429-.991c4.127.348 8.2 1.145 12.211 2.278-1.101.4-2.217.766-3.353 1.089-3.705-1.052-7.47-1.872-11.287-2.376zm16.874 1.934c3.25 1.019 6.452 2.255 9.61 3.618-1.179.33-2.388.597-3.611.83a127.242 127.242 0 00-9.166-3.271 48.189 48.189 0 003.167-1.177zm2.342-1.036a40.976 40.976 0 002.942-1.571c3.431 1.105 6.808 2.486 10.14 4.033a34.215 34.215 0 01-3.312 1.397 109.158 109.158 0 00-9.77-3.859zm14.798 3.255c2.957 1.434 5.867 3.013 8.736 4.664-1.134.409-2.296.74-3.475 1.019a189.448 189.448 0 00-8.459-4.231 35.382 35.382 0 003.198-1.452zm1.852-1.046a32.93 32.93 0 002.933-1.974 119.998 119.998 0 019.241 5.118c-1.05.645-2.112 1.239-3.206 1.732a150.829 150.829 0 00-8.968-4.876zm13.616 4.05a200.717 200.717 0 018.236 5.465 25.807 25.807 0 01-3.339 1.242 286.951 286.951 0 00-7.975-4.967 29.183 29.183 0 003.078-1.74zm1.626-1.122a21.607 21.607 0 002.721-2.402c2.966 1.894 5.885 3.927 8.762 6.044a22.216 22.216 0 01-2.322 1.614c-.239.145-.485.255-.725.391a209.605 209.605 0 00-8.436-5.647zm9.977 6.61a23.5 23.5 0 002.827-1.991 288.55 288.55 0 017.886 6.142c-.184.103-.352.211-.54.311-.863.452-1.742.825-2.631 1.159a472.62 472.62 0 00-7.642-5.568c.033-.021.067-.035.1-.053zm4.22-3.271c1.834-1.87 3.075-3.996 3.796-6.492 1.681-5.892 1.085-13.402.45-21.349-.755-9.457-1.533-19.234 1.053-28.319 2.547-8.94 8.461-16.067 18.082-21.789 15.45-9.196 23.018-17.911 24.544-28.264.181-1.235.331-2.476.456-3.721a357.86 357.86 0 005.366-.909 80.261 80.261 0 01-.204 4.586c-.853 11.381-7.816 21.115-21.893 30.618-9.638 6.507-15.447 14.49-17.766 24.409-2.233 9.542-1.177 19.859-.25 28.964.825 8.064 1.603 15.684-.032 21.352-.873 2.997-2.635 5.354-5.438 7.296a296.947 296.947 0 00-8.164-6.382zm55.37-112.27c.005-1.649-.032-3.302-.107-4.957 1.57-.35 3.169-.717 4.771-1.083.195 1.694.347 3.381.462 5.063-1.709.339-3.418.665-5.126.977zm6.305-6.412c1.549-.36 3.13-.739 4.707-1.115.303 1.724.575 3.449.801 5.166-1.677.365-3.354.719-5.033 1.059a109.622 109.622 0 00-.475-5.11zm-.14-1.162c-.21-1.671-.451-3.339-.72-5.004 1.438-.382 2.865-.759 4.331-1.144.372 1.681.724 3.365 1.036 5.048-1.555.371-3.117.745-4.647 1.1zm-.914-6.205a186.23 186.23 0 00-.899-4.902c1.303-.394 2.612-.786 3.949-1.172.425 1.644.833 3.295 1.213 4.95-1.442.378-2.846.751-4.263 1.124zm4.706-6.542c1.305-.37 2.623-.737 3.964-1.099a208.338 208.338 0 011.477 4.994c-1.413.365-2.833.73-4.218 1.09-.383-1.666-.795-3.33-1.223-4.985zm5.672-1.554c.675-.181 1.336-.362 2.02-.539.656-.17 1.305-.319 1.96-.487.585 1.65 1.148 3.306 1.689 4.966l-2.586.652c-.546.14-1.063.275-1.603.415a185.3 185.3 0 00-1.48-5.007zm1.707-1.755c-.706.184-1.389.371-2.085.556a230.177 230.177 0 00-1.607-4.903c.882-.248 1.741-.5 2.646-.739.353-.094.711-.171 1.064-.262a243.5 243.5 0 011.836 4.889c-.62.157-1.235.299-1.854.459zm1.796-5.786c1.249-.312 2.497-.626 3.748-.921.68 1.604 1.346 3.217 1.993 4.837-1.303.317-2.608.643-3.914.972a240.859 240.859 0 00-1.827-4.888zm5.586-1.364c11.46-2.612 22.894-4.448 33.901-5.941.71 1.063 1.425 2.13 2.144 3.199l-1.571.335c-10.595 2.256-21.476 4.58-32.493 7.234a241.815 241.815 0 00-1.981-4.827zm35.953-6.212c.416-.056.835-.114 1.249-.168.713.98 1.428 1.957 2.144 2.936-.444.096-.896.192-1.342.286-.686-1.02-1.372-2.039-2.051-3.054zm3.294-.438c.423-.055.838-.106 1.258-.16l2.137 2.66-1.355.289c-.68-.93-1.362-1.86-2.04-2.789zm3.32-.415l1.261-.155c.702.783 1.404 1.57 2.109 2.357l-1.363.296-2.007-2.498zm4.331 3.277l2.238 2.504c-.51.156-1.02.315-1.537.47-.716-.885-1.431-1.77-2.145-2.657l1.444-.317zm1.93-.42c.487-.106.979-.213 1.461-.321l2.215 2.198c-.519.164-1.033.328-1.555.492l-2.121-2.369zm4.855.689c-.483-.48-.968-.962-1.454-1.442.491-.109.977-.219 1.463-.328.727.625 1.452 1.252 2.178 1.877-.52.171-1.037.341-1.564.51-.205-.205-.415-.412-.623-.617zm1.986-2.214c.488-.111.962-.223 1.446-.335l2.117 1.542c-.517.175-1.035.35-1.557.523l-2.006-1.73zm3.481-.809l1.417-.328 2.017 1.194c-.506.178-1.013.354-1.523.53-.636-.466-1.273-.93-1.911-1.396zm3.555-.846c.447-.107.894-.216 1.338-.325l1.873.847-1.449.523-1.762-1.045zm3.671-.903c.401-.101.791-.205 1.188-.305.551.169 1.096.337 1.64.506-.43.165-.868.328-1.305.491-.506-.23-1.012-.461-1.523-.692zm3.856-.991c.311-.081.608-.167.916-.248.076.01.152.023.227.034l1.021.163-1.023.403c-.38-.116-.759-.233-1.141-.352zm-2.169-.738l-.122.031-.332-.101.007-.001.447.071zm-88.697-44.65c8.402-2.804 18.572 2.412 29.805 11.863.054.076.109.157.165.235-10.582-6.798-20.501-10.166-29.132-7.386a17.622 17.622 0 00-3.407 1.502 155.63 155.63 0 01-1.648-3.804c1.109-1.021 2.494-1.835 4.217-2.41zm-4.146 7.25c-.347.265-.675.543-.984.835a81.428 81.428 0 01-1.027-3.179c.177-.321.368-.633.576-.931a153.96 153.96 0 001.435 3.275zm.721 1.594a299.097 299.097 0 001.808 3.822c-.518.282-1.018.576-1.485.894a149.309 149.309 0 01-1.411-3.699c.338-.358.7-.699 1.088-1.017zm-1.181 5.868a15.72 15.72 0 00-.976.914 81.141 81.141 0 01-.819-3.09c.177-.341.369-.67.574-.99.385 1.034.791 2.088 1.221 3.166zm.673 1.663c.49 1.202 1.007 2.432 1.541 3.687-.521.324-1.009.67-1.484 1.027a140.554 140.554 0 01-1.148-3.567c.336-.402.706-.78 1.091-1.147zm-1.409 5.939c-.354.327-.692.663-1.016 1.009a79.915 79.915 0 01-.587-2.863c.193-.382.401-.753.62-1.113.311.97.638 1.959.983 2.967zm.593 1.693c.421 1.2.86 2.419 1.319 3.67-.536.37-1.05.757-1.542 1.158-.33-1.206-.638-2.387-.919-3.54a18 18 0 011.142-1.288zm-1.649 6.082c-.383.367-.755.744-1.108 1.132a82.617 82.617 0 01-.403-2.892c.227-.422.463-.834.716-1.235.251.982.516 1.981.795 2.995zm.469 1.665c.337 1.187.694 2.393 1.06 3.615-.568.405-1.123.823-1.653 1.258a146.664 146.664 0 01-.66-3.485c.395-.477.814-.939 1.253-1.388zm-2.031 6.137a32.23 32.23 0 00-1.206 1.189 86.625 86.625 0 01-.175-2.864c.257-.43.523-.852.801-1.264.181.967.377 1.948.58 2.939zm.372 1.764c.245 1.145.503 2.304.771 3.478-.623.435-1.225.885-1.81 1.345a138.298 138.298 0 01-.363-3.336c.447-.511.917-1.004 1.402-1.487zm-2.529 6.048c-.476.411-.938.828-1.389 1.256a97.5 97.5 0 01.07-2.634c.317-.47.648-.931.991-1.384.099.911.21 1.834.328 2.762zm.227 1.758c.154 1.155.318 2.326.491 3.508-.702.46-1.393.927-2.06 1.405-.031-1.13-.05-2.247-.056-3.344a39.547 39.547 0 011.625-1.569zm-3.119 6.063c-.563.433-1.113.875-1.654 1.322.107-.91.23-1.804.359-2.689.396-.493.804-.978 1.225-1.456.015.931.04 1.873.07 2.823zm.061 1.66c.043 1.144.094 2.299.148 3.466a90.53 90.53 0 00-2.387 1.417c.093-1.11.197-2.206.311-3.288a55.336 55.336 0 011.928-1.595zm-3.863 5.915c-.67.434-1.329.874-1.978 1.32.226-.885.462-1.761.705-2.63.496-.5 1-.992 1.517-1.479-.086.924-.168 1.853-.244 2.789zm-.135 1.693a416.234 416.234 0 00-.244 3.317c-.946.456-1.885.913-2.804 1.377.232-1.031.47-2.056.715-3.07a83.562 83.562 0 012.333-1.624zm-4.773 5.583c-.809.421-1.609.846-2.397 1.274.343-.809.689-1.611 1.042-2.407.634-.5 1.292-.99 1.947-1.481-.199.868-.398 1.738-.592 2.614zm-.362 1.655c-.13.592-.258 1.183-.386 1.774-.109.493-.221.993-.327 1.486-1.125.423-2.24.848-3.338 1.274.402-1.001.804-1.997 1.212-2.987a174.71 174.71 0 012.839-1.547zm-5.891 5.251c-.989.387-1.97.776-2.94 1.163.5-.772 1.005-1.541 1.512-2.305.806-.478 1.632-.951 2.458-1.422-.344.851-.687 1.705-1.03 2.564zm-.639 1.595a561.464 561.464 0 01-1.249 3.111c-1.344.358-2.683.716-4.001 1.065l.141-.217c.546-.86 1.091-1.718 1.638-2.571 1.144-.461 2.3-.925 3.471-1.388zm-6.286 3.211c-.313.492-.64.994-.957 1.49-1.191.314-2.396.633-3.568.94.667-.691 1.337-1.38 2.012-2.07 1.021-.425 2.053-.849 3.094-1.274-.194.305-.387.611-.581.914zm-1.921 2.994a292.17 292.17 0 01-1.829 2.818c-1.593.247-3.171.484-4.724.707.756-.78 1.513-1.565 2.255-2.334l.092-.096c1.388-.358 2.79-.723 4.206-1.095zm-10.075 5.194c-.652.661-1.3 1.326-1.956 1.977-.141.14-.306.276-.465.411-1.837.077-3.654.131-5.459.17.949-.634 1.895-1.285 2.841-1.927 1.659-.196 3.335-.405 5.039-.631zm-9.057 1.783c-.447.298-1.013.567-1.637.822a241.68 241.68 0 01-4.583.005c.967-.396 1.934-.794 2.902-1.199 1.499-.141 3.019-.298 4.558-.468-.414.277-.827.563-1.24.84zm-5.37 1.95c-3.683.845-8.608 1.477-14.275 2.198-4.78.608-10.197 1.298-15.767 2.245-12.276 2.088-20.417 6.186-24.897 12.53-5.759 8.161-6.341 18.785-6.905 29.061-.329 6.027-.641 11.723-1.972 16.665-.937 3.449-2.593 6.643-5.211 10.051-11.228 14.617-27.875 21.537-45.499 28.858-12.075 5.015-24.561 10.203-36.341 18.202-18.298 12.416-26.085 28.847-23.137 48.803 2.445 16.535 9.244 36.487 16.445 57.61 1.256 3.682 2.518 7.39 3.767 11.108a957.325 957.325 0 016.636 20.487c-2.781-.069-5.207.309-7.344 1.085a1683.606 1683.606 0 00-6.739-19.827l-1.376-3.965c-8.177-23.533-15.901-45.763-18.327-63.809-2.467-18.359 5.094-34.398 22.437-47.655 10.351-7.907 21.647-14.023 32.572-19.935 18.388-9.951 35.753-19.351 46.985-36.078 2.426-3.609 4.065-7.085 5.018-10.623 1.302-4.88 1.716-10.322 2.155-16.083.781-10.271 1.59-20.893 7.723-28.516 4.55-5.659 12.744-9.049 25.056-10.37 7.273-.779 14.311-1.031 20.52-1.256 5.471-.197 10.12-.373 13.488-.862 1.644.043 3.305.068 4.988.076zm-161.4 268.675l.521 1.467c-1.082.339-2.1.779-3.056 1.319.09-.202.181-.399.273-.596a17.075 17.075 0 012.262-2.19zm-24.772 33.255c-.282.564-.567 1.134-.852 1.713-.228.059-.452.123-.677.185.365-.567.729-1.118 1.092-1.663.144-.081.291-.156.437-.235zm-5.335 4.914a570.21 570.21 0 00-1.006 1.647c-.283.052-.567.111-.851.172.417-.525.828-1.042 1.239-1.547.206-.093.411-.18.618-.272zm-5.888 4.421l-1.168 1.523c-.351.034-.699.069-1.048.109.465-.459.926-.914 1.379-1.355.279-.096.558-.185.837-.277zm1.549-1.999l.006-.007-.004.007h-.002zm-8.035 5.737a7.484 7.484 0 00-.126.126l-1.136 1.142c-.413-.001-.827.002-1.244.007l1.429-1.06c.359-.074.717-.147 1.077-.215zm1.581-1.716c.145-.104.287-.202.431-.303-.092.092-.185.183-.277.278a2.74 2.74 0 00-.154.025zm-4.205 4.354a319.22 319.22 0 01-1.744 1.74c-.636-.097-1.284-.174-1.927-.26.333-.25.684-.513 1.011-.755.304-.23.604-.455.903-.683a94.657 94.657 0 011.757-.042zm-4.397.166l-1.388 1.041c-.468-.054-.943-.103-1.415-.152.509-.268 1.012-.534 1.51-.794.432-.033.865-.069 1.293-.095zm-2.925 2.191c-.604.449-1.252.918-1.877 1.377-.688-.174-1.376-.348-2.067-.515.381-.204.78-.416 1.153-.612l.81-.432c.662.057 1.325.115 1.981.182zm-4.656-.391l-1.423.758c-.502-.114-.999-.24-1.503-.35l1.461-.494c.489.028.979.055 1.465.086zm-.975 2.152c.816.189 1.639.372 2.447.573-.711.519-1.452 1.041-2.193 1.568-.837-.318-1.695-.624-2.543-.937.773-.406 1.546-.811 2.289-1.204zm4.301 1.059c.881.231 1.767.457 2.643.701-.739.7-1.497 1.406-2.275 2.119-.91-.369-1.831-.728-2.756-1.087.82-.586 1.604-1.159 2.388-1.733zm4.33 1.196c.902.262 1.804.52 2.701.8-.739.873-1.499 1.753-2.28 2.641-.936-.399-1.879-.792-2.83-1.183.826-.76 1.626-1.512 2.409-2.258zm4.323 1.327c.921.297 1.843.59 2.759.904a172.188 172.188 0 01-2.229 3.143 258.72 258.72 0 00-2.903-1.279c.814-.931 1.606-1.853 2.373-2.768zm4.343 1.472c.928.327 1.858.652 2.785 1-.689 1.196-1.395 2.4-2.135 3.615a324.58 324.58 0 00-2.948-1.362c.791-1.093 1.558-2.18 2.298-3.253zm4.365 1.617c.926.358 1.854.712 2.782 1.09a181.597 181.597 0 01-2.026 4.042c-.976-.476-1.959-.95-2.951-1.419a173.992 173.992 0 002.195-3.713zm4.371 1.759c.927.389 1.856.773 2.789 1.181a190.979 190.979 0 01-1.903 4.427c-.976-.495-1.963-.988-2.954-1.477a176.84 176.84 0 002.068-4.131zm4.39 1.906c.929.415 1.856.829 2.789 1.268a205.906 205.906 0 01-1.765 4.758c-.977-.51-1.968-1.018-2.958-1.527.671-1.51 1.315-3.009 1.934-4.499zm4.434 2.058c.927.444 1.854.884 2.788 1.347a208.225 208.225 0 01-1.63 5.038c-.976-.523-1.966-1.045-2.953-1.567a212.862 212.862 0 001.795-4.818zm.419-1.193a242.266 242.266 0 001.631-4.811c.85.361 1.702.732 2.566 1.121a235.651 235.651 0 01-1.464 5.007c-.917-.454-1.824-.882-2.733-1.317zm5.911-2.897c1.156.541 2.312 1.085 3.495 1.677 8.657 4.329 18.078 8.832 26.948 11.557a153.5 153.5 0 011.901 5.675c-9.588-1.768-20.424-6.863-30.993-12.389-.957-.498-1.898-.969-2.843-1.447a254.477 254.477 0 001.492-5.073zm4.077.513a150.815 150.815 0 00-3.738-1.793 265.52 265.52 0 001.342-5.047 105.87 105.87 0 014.542 2.047c6.837 3.267 14.12 6.743 21.245 9.566.872 2.234 1.68 4.368 2.42 6.403-8.498-2.718-17.506-7.023-25.811-11.176zm24.818 5.327c1.971.757 3.925 1.458 5.85 2.087a133.788 133.788 0 011.687 5.534c-1.7-.366-3.432-.82-5.193-1.352a257.539 257.539 0 00-2.344-6.269zm-.662-1.697a469.965 469.965 0 00-2.759-6.837c2.199.97 4.385 1.909 6.552 2.795a258.833 258.833 0 012.194 6.234 128.966 128.966 0 01-5.987-2.192zm5.234-3.455c2.007.802 3.987 1.546 5.94 2.228a120.08 120.08 0 011.486 5.39 79.909 79.909 0 01-5.306-1.521c-.643-1.937-1.35-3.97-2.12-6.097zm-.638-1.765a473.041 473.041 0 00-2.512-6.64c2.205.998 4.405 1.969 6.592 2.903a245.707 245.707 0 011.988 6.073 152.207 152.207 0 01-6.068-2.336zm5.562-3.107c2.02.846 4.016 1.636 5.984 2.375.519 1.901.951 3.64 1.309 5.249a93.644 93.644 0 01-5.385-1.688 220.922 220.922 0 00-1.908-5.936zm-.615-1.829c-.387-1.13-.795-2.296-1.222-3.503l-1.04-2.941a433.5 433.5 0 006.617 3.048 225.154 225.154 0 011.764 5.886 188.662 188.662 0 01-6.119-2.49zm5.881-2.713c2.039.9 4.053 1.751 6.042 2.55.45 1.838.817 3.518 1.118 5.073a105.317 105.317 0 01-5.465-1.882 209.975 209.975 0 00-1.695-5.741zm-.588-1.893c-.631-1.994-1.282-4.068-1.958-6.227a469.551 469.551 0 006.611 3.204c.232.861.464 1.709.693 2.537.3 1.092.573 2.128.832 3.138a210.297 210.297 0 01-6.178-2.652zm5.672-4.236c-.517-1.906-1.051-3.896-1.607-5.963a497.25 497.25 0 006.574 3.348c.412 1.86.816 3.665 1.204 5.359l.019.077a225.632 225.632 0 01-6.19-2.821zm6.079-3.821c-.192-.872-.382-1.721-.584-2.629a896.71 896.71 0 00-.674-3.044 429.63 429.63 0 006.51 3.49l.173 1.009c.246 1.437.481 2.8.713 4.127a225.968 225.968 0 01-6.138-2.953zm6.808-1.369c1.371.708 2.736 1.402 4.081 2.062.634.311 1.245.606 1.854.901.119 1.012.234 2 .349 2.942.066.526.103 1.001.152 1.494a170.43 170.43 0 01-4.615-1.953c-.316-.14-.637-.289-.955-.431-.28-1.598-.564-3.252-.866-5.015zm7.774-4.243c-.436-.234-.883-.485-1.322-.723-.195-1.605-.406-3.28-.637-5.028a396.56 396.56 0 006.304 3.685c.111 1.59.208 3.095.292 4.521a378.773 378.773 0 01-4.637-2.455zm5.752-3.245a273.528 273.528 0 00-.392-4.725 483.185 483.185 0 006.184 3.762c.032 1.478.047 2.882.049 4.221a263.45 263.45 0 01-5.841-3.258zm7.345-.041a213.04 213.04 0 005.546 3.155 168.62 168.62 0 01-.281 3.584 126.58 126.58 0 01-5.234-2.622c.003-1.304-.006-2.677-.031-4.117zm-.044-2.084c-.039-1.41-.091-2.88-.166-4.423a333.99 333.99 0 006.034 3.786 147.46 147.46 0 01-.159 3.918 224.698 224.698 0 01-5.709-3.281zm7.423.307a184.478 184.478 0 005.381 3.126 91.607 91.607 0 01-.476 3.282 115.968 115.968 0 01-5.082-2.596c.072-1.203.133-2.473.177-3.812zm.054-2.112c.025-1.306.032-2.676.018-4.11a293.683 293.683 0 005.869 3.748 100.821 100.821 0 01-.325 3.614 209.813 209.813 0 01-5.562-3.252zm7.446.597a174.825 174.825 0 005.169 3.042 82.05 82.05 0 01-.618 2.996 111.857 111.857 0 01-4.89-2.528c.125-1.098.24-2.265.339-3.51zm.147-2.123c.861-14.219-.471-37.403-11.037-75.297-3.359-12.054-7.521-24.039-11.545-35.628-4.734-13.64-9.206-26.525-11.799-37.897-4.889-21.427-.983-34.958 12.667-42.487.229-.039.46-.08.689-.116a25.821 25.821 0 00-4.717 5.595c-5.06 8.138-5.711 19.107-2.041 34.515 2.636 11.085 6.996 23.51 11.611 36.663 4.298 12.249 8.741 24.915 12.203 37.631 11.417 41.938 11.69 65.586 9.336 80.203a189.03 189.03 0 01-5.367-3.182zm-2.354-77.459c-3.477-12.776-7.931-25.47-12.238-37.746-4.6-13.113-8.947-25.498-11.565-36.496-3.508-14.743-2.907-25.617 1.837-33.243 1.666-2.681 3.849-4.991 6.557-6.956.664-.089 1.326-.172 1.988-.25a24.295 24.295 0 00-2.082 2.768c-5.148 8.034-5.702 19.222-1.742 35.211 2.661 10.749 6.912 22.73 11.411 35.413 4.571 12.882 9.296 26.203 12.854 39.578 10.304 38.754 12.614 66.908 7.001 85.718-1.53-.751-3.114-1.58-4.749-2.484 2.486-14.77 2.373-38.738-9.272-81.513zm7.636-117.771c.142.014.284.031.428.042l-.456.029c.011-.023.017-.048.028-.071zm.713-1.52c.106-.205.229-.399.342-.6 3.571.146 7.108.579 10.598 1.225-1.081.13-2.177.246-3.287.35a99.599 99.599 0 00-7.653-.975zm15.055 1.479c2.485.576 4.944 1.235 7.373 1.962-.987.01-1.984.009-2.993-.006a175.6 175.6 0 00-6.957-1.572 99.745 99.745 0 002.577-.384zm3.874-.72c1.074-.23 2.14-.479 3.187-.762 2.959.84 5.878 1.838 8.758 2.92-1.178.147-2.37.265-3.581.346a149.078 149.078 0 00-8.364-2.504zm17.641 2.608a42.128 42.128 0 003.257-.916 167.101 167.101 0 018.051 3.924 41.763 41.763 0 01-3.53.401 242.196 242.196 0 00-7.778-3.409zm15.965 3.529a31.933 31.933 0 003.19-1.098 259.857 259.857 0 017.61 4.673 31.04 31.04 0 01-3.393.524 493.96 493.96 0 00-7.407-4.099zm19.947 7.401a1062.34 1062.34 0 00-5.08-3.312 26.605 26.605 0 003.112-1.317 427.634 427.634 0 017.304 5.298 24.823 24.823 0 01-3.34.638l-1.996-1.307zm10.576 2.302l-1.588-1.18a24.524 24.524 0 001.855-.857c.4-.21.771-.433 1.141-.655a799.77 799.77 0 017.07 5.818c-1.045.35-2.113.602-3.196.789a1263.059 1263.059 0 01-5.282-3.915zm9.953 4.347a827.727 827.727 0 006.131 5.054c-.986.093-1.989.117-3.004.081a255.532 255.532 0 01-5.974-4.233 22.415 22.415 0 002.847-.902zm1.918-.824c4.387-2.162 7.023-5.084 8.225-9.163 1.757-6.037.76-14.065-.298-22.562-1.113-8.952-2.373-19.1-.606-28.569 1.883-10.079 7.129-18.269 16.106-25.071 13.685-10.374 20.453-21.969 20.664-35.42.034-2.115-.044-4.254-.17-6.402 1.694-.342 3.386-.697 5.08-1.063.305 2.553.522 5.095.606 7.611.494 14.6-5.43 26.904-18.111 37.618-8.984 7.589-14.123 16.675-15.712 27.781-1.42 9.909.083 20.177 1.408 29.237 1.309 8.939 2.437 16.657.751 22.382-1.147 3.861-3.793 6.485-8.321 8.257-.96.376-1.939.641-2.926.859a664.164 664.164 0 01-6.696-5.495zm10.248 6.24c5.072-1.986 8.037-4.962 9.345-9.373 1.794-6.089.638-13.98-.698-23.118-1.308-8.945-2.793-19.084-1.41-28.746 1.528-10.669 6.474-19.405 15.121-26.71 13.109-11.076 19.234-23.829 18.721-38.991-.087-2.624-.316-5.27-.637-7.927 1.641-.363 3.282-.738 4.921-1.125.54 3.107.956 6.208 1.189 9.281 1.235 16.314-4.072 29.767-16.222 41.123-8.681 8.115-13.485 17.752-14.688 29.47-1.037 10.095.689 20.368 2.214 29.429 1.54 9.179 2.873 17.106 1.166 22.84-1.176 3.934-3.926 6.497-8.655 8.066-2.053.682-4.177.951-6.36.917a204.954 204.954 0 01-5.877-4.53c.627-.18 1.253-.365 1.87-.606zM540.44 298.38a116.894 116.894 0 00-.812-5.191c1.512-.365 3.053-.745 4.59-1.123.396 1.732.768 3.467 1.085 5.201-1.617.381-3.241.752-4.863 1.113zm-1.013-6.338a148.313 148.313 0 00-1.046-5.084c1.406-.366 2.845-.736 4.278-1.106.462 1.691.9 3.385 1.302 5.078-1.518.376-3.042.753-4.534 1.112zm4.943-6.632c.531-.137 1.041-.272 1.578-.409l2.666-.672a160.506 160.506 0 011.514 5.061c-1.032.264-2.057.527-3.102.787-.455.114-.895.218-1.348.332a158.198 158.198 0 00-1.308-5.099zm3.946-7.637a716.36 716.36 0 013.966-.985 200.41 200.41 0 011.846 4.902c-1.373.347-2.749.693-4.128 1.043-.538-1.658-1.1-3.312-1.684-4.96zm5.795-1.438c10.942-2.63 21.751-4.94 32.282-7.179.693-.149 1.373-.293 2.062-.44.742 1.104 1.491 2.21 2.243 3.318-11.06 3.152-22.781 6.165-34.749 9.194a214.369 214.369 0 00-1.838-4.893zm36.303-8.038c.465-.097.939-.198 1.402-.297.747 1.02 1.493 2.043 2.243 3.062-.492.144-.988.286-1.484.431-.723-1.067-1.444-2.133-2.161-3.196zm3.343-.714l1.421-.306c.748.932 1.499 1.86 2.249 2.792-.504.149-1.008.301-1.517.451-.72-.979-1.435-1.958-2.153-2.937zm4.49 3.499c.745.924 1.488 1.848 2.238 2.769-.543.208-1.097.412-1.647.619-.721-.975-1.449-1.942-2.168-2.918l1.577-.47zm1.826-.551l1.605-.492c.741.827 1.487 1.655 2.232 2.482-.561.22-1.125.441-1.693.662l-2.144-2.652zm3.413-1.053c.551-.171 1.094-.346 1.64-.519l2.205 2.186c-.571.232-1.136.468-1.716.701-.709-.791-1.42-1.577-2.129-2.368zm3.44-1.093c.561-.181 1.111-.363 1.665-.545l1.497 1.294.67.579c-.581.247-1.153.494-1.743.742l-2.089-2.07zm4.225-.484c-.252-.218-.505-.436-.758-.652.567-.191 1.122-.384 1.682-.574l2.113 1.547c-.584.26-1.171.52-1.764.776l-1.273-1.097zm6.313-3.112c.561-.203 1.108-.411 1.662-.615l1.908.869c-.575.279-1.16.559-1.745.837l-1.825-1.091zm7.448-2.801l-.057-.019c.502-.2.995-.403 1.488-.604l1.445.225c-.506.273-1.017.543-1.532.815l-1.344-.417zm4.96-.071l1.605.244c-.623.426-1.256.848-1.896 1.271-.524-.163-1.048-.323-1.579-.487.636-.342 1.25-.686 1.87-1.028zm1.984-1.11c.594-.34 1.186-.682 1.767-1.025.421-.006.849-.01 1.265-.017-.572.414-1.158.826-1.743 1.237-.423-.064-.86-.129-1.289-.195zm4.046-2.406c.501-.31 1.004-.619 1.493-.93.242-.046.492-.091.732-.139-.451.349-.902.697-1.362 1.042-.291.01-.569.02-.863.027zm4.408-2.848l.4-.275c-.106.086-.208.172-.314.257-.028.007-.058.012-.086.018zm4.029-1.901c4.125-1.768 7.817-3.678 10.943-5.806 11.031-7.505 17.644-15.241 18.719-32.379.079 2.661.111 5.323-.184 8.79-1.448 17.021-8.333 22.725-21.385 27.821-2.854 1.115-6.09 2.068-9.639 2.912.526-.443 1.036-.892 1.546-1.338zm10.237-6.844c-2.138 1.454-4.565 2.803-7.198 4.08.254-.24.502-.483.75-.725 3.637-2.443 6.833-5.021 9.494-7.774 9.937-10.29 14.431-20.35 15.217-34.25.07 2.127.086 4.331-.065 6.926-.98 16.86-7.419 24.405-18.198 31.743zm2.174-5.259c-.769.8-1.6 1.578-2.46 2.349 2.153-2.279 4.043-4.597 5.639-6.962 7.394-10.951 11.118-21.94 11.803-35.05a76.87 76.87 0 010 3.99c-.411 14.742-4.748 25.077-14.982 35.673zm-132.94-25.958c.27.717.564 1.456.868 2.203-.147.174-.296.348-.43.529a44.134 44.134 0 01-.525-2.316c.032-.137.051-.283.087-.416zm-.009 7.677c.219.665.448 1.337.691 2.028-.135.175-.268.354-.394.537a43.305 43.305 0 01-.381-2.193c.03-.124.054-.251.084-.372zm-.291 7.744c.174.623.35 1.25.543 1.893-.143.193-.276.394-.409.591-.099-.7-.18-1.382-.245-2.05.037-.146.072-.292.111-.434zm-.579 7.944c.12.545.243 1.095.373 1.652-.16.216-.313.437-.464.659a51.386 51.386 0 01-.102-1.659c.061-.22.127-.437.193-.652zm-1.091 7.879a100 100 0 00.28 1.731c-.167.219-.336.434-.495.66a52.54 52.54 0 01.026-1.873c.061-.174.126-.345.189-.518zm-1.628 7.876c.043.563.091 1.133.143 1.708-.201.242-.4.489-.595.737a64.36 64.36 0 01.178-1.838c.089-.206.183-.405.274-.607zm-2.284 7.976c-.005.503-.009 1.01-.006 1.521-.256.27-.501.542-.748.815.091-.493.186-.983.285-1.466.153-.293.308-.583.469-.87zm-3.076 7.604c-.068.557-.132 1.121-.193 1.684-.318.286-.639.57-.948.86a70.71 70.71 0 01.543-1.668c.197-.295.394-.587.598-.876zm-4.06 7.425a105.88 105.88 0 00-.412 1.66c-.42.304-.826.614-1.237.921.255-.539.514-1.074.777-1.605.286-.327.579-.653.872-.976zm-5.272 7.17c-.214.511-.428 1.022-.64 1.536-.535.299-1.056.601-1.583.904.312-.45.624-.9.941-1.346.423-.366.851-.73 1.282-1.094zm-6.659 6.587c-.33.509-.657 1.02-.985 1.531-.673.272-1.338.544-2.002.815.428-.427.852-.859 1.287-1.285.564-.355 1.129-.71 1.7-1.061zm-8.409 5.954l-1.345 1.394c-.836.215-1.677.433-2.505.645.542-.368 1.085-.736 1.631-1.104.733-.311 1.477-.623 2.219-.935zm-10.413 4.928c-.558.381-1.117.754-1.672 1.132-.995.118-1.965.216-2.943.321.619-.261 1.245-.527 1.868-.793.913-.217 1.823-.435 2.747-.66zm-12.619 3.377c-.94.308-2.143.545-3.604.725-.581-.017-1.156-.041-1.733-.062.672-.137 1.353-.28 2.029-.421 1.091-.074 2.194-.153 3.308-.242zM261.117 623.738l-.371.278c-.084.003-.168.011-.254.014l.524-.267c.035-.008.067-.018.101-.025zm-7.336 2.176c-.131.072-.267.143-.399.213-.104-.008-.208-.021-.315-.029l.506-.16c.069-.009.139-.015.208-.024zm-7.865 1.112a41.33 41.33 0 00-.324.111 48.426 48.426 0 01-.329-.068l.333-.053.32.01zm-8.21-.032c-.098.015-.195.033-.292.051l-.28-.089c.094-.002.192-.004.289-.004.093.013.189.026.283.042zm-8.581-1.125a.24.24 0 00-.046.002c-.029-.013-.057-.026-.084-.036l.13.034zm4.078 1.162c.548.163 1.111.315 1.655.481l-1.341.248c-.528-.231-1.064-.456-1.597-.686.425-.012.862-.03 1.283-.043zm4.414 1.347c.758.24 1.523.475 2.272.72-.638.221-1.257.434-1.911.656-.756-.345-1.526-.683-2.288-1.024l1.927-.352zm4.436 1.452c.872.296 1.744.591 2.604.894-.723.374-1.453.748-2.199 1.126-.88-.42-1.773-.83-2.661-1.244.764-.261 1.513-.519 2.256-.776zm4.458 1.563c.936.337 1.865.678 2.786 1.026-.77.54-1.537 1.076-2.338 1.624-.952-.473-1.917-.937-2.879-1.402.819-.42 1.644-.838 2.431-1.248zm4.464 1.664c.988.38 1.965.766 2.938 1.158a153.23 153.23 0 01-2.409 2.124c-.997-.512-2.011-1.019-3.022-1.527.863-.593 1.669-1.172 2.493-1.755zm4.503 1.785c1.001.408 1.99.825 2.974 1.244-.776.868-1.578 1.745-2.401 2.626a374.667 374.667 0 00-3.099-1.617c.866-.758 1.706-1.509 2.526-2.253zm4.511 1.891c1.015.438 2.015.882 3.013 1.328a164.08 164.08 0 01-2.357 3.118c-1.044-.567-2.099-1.131-3.156-1.697.859-.922 1.692-1.839 2.5-2.749zm4.539 2.007c1.015.46 2.014.926 3.014 1.391a162.485 162.485 0 01-2.281 3.586 604.825 604.825 0 00-3.174-1.748c.84-1.083 1.656-2.163 2.441-3.229zm4.541 2.105c1.017.482 2.023.969 3.025 1.457a159.935 159.935 0 01-2.187 4.018 791.193 791.193 0 00-3.179-1.785c.812-1.24 1.586-2.468 2.341-3.69zm4.571 2.213c1.017.501 2.024 1.006 3.025 1.511a174.522 174.522 0 01-2.073 4.411 1039.06 1039.06 0 00-3.187-1.812 162.72 162.72 0 002.235-4.11zm4.594 2.311c1.011.518 2.022 1.035 3.018 1.556a178.848 178.848 0 01-1.941 4.755l-3.183-1.824a179.397 179.397 0 002.106-4.487zm4.633 2.409c1.005.531 2.011 1.062 3.006 1.597a209.595 209.595 0 01-1.804 5.031c-1.058-.605-2.105-1.202-3.176-1.818a185.767 185.767 0 001.974-4.81zm4.667 2.496c.646.349 1.3.699 1.942 1.051 14.336 7.825 26.234 12.987 36.195 12.629.257 1.359.405 2.566.437 3.61-9.772 3.329-22.644-2.104-38.781-11.292l-1.622-.929a210.597 210.597 0 001.829-5.069zm2.521-.012c-.705-.385-1.423-.769-2.134-1.154a207.557 207.557 0 001.654-5.077c.875.442 1.745.876 2.625 1.337 10.887 5.69 22.071 10.935 31.987 12.627a66.398 66.398 0 011.235 4.729c-10.408.225-23.047-5.738-35.367-12.462zm34.952 6.597a136.457 136.457 0 00-1.8-5.507c1.705.492 3.385.91 5.036 1.248a63.404 63.404 0 011.06 4.691 36.922 36.922 0 01-4.296-.432zm4.123-5.404a121.947 121.947 0 00-1.591-5.355 76.582 76.582 0 005.148 1.415 57.28 57.28 0 01.87 4.561 44.3 44.3 0 01-4.427-.621zm4.507-5.111c-.39-1.602-.859-3.332-1.411-5.216a89.65 89.65 0 005.217 1.579c.333 1.644.572 3.125.721 4.455a51.618 51.618 0 01-4.527-.818zm9.292-3.827a58.165 58.165 0 01-4.449-.977 109.858 109.858 0 00-1.23-5.082 102.09 102.09 0 005.286 1.756c.274 1.597.462 3.042.558 4.328-.056-.01-.107-.015-.165-.025zm.991-3.914c.549.154 1.11.326 1.651.463.987.25 1.891.443 2.76.607-.027 1.217-.143 2.274-.36 3.177-1.026.089-2.201.059-3.56-.113a44.338 44.338 0 00-.491-4.134zm2.004-.933c-.744-.188-1.511-.418-2.274-.64a96.462 96.462 0 00-1.043-4.887c1.812.703 3.592 1.347 5.332 1.918.206 1.529.333 2.907.376 4.143a44.954 44.954 0 01-2.391-.534zm3.212-4.779a94.698 94.698 0 00-.856-4.713 119.866 119.866 0 005.379 2.095c.149 1.461.224 2.778.222 3.957-1.408-.33-2.981-.776-4.745-1.339zm5.798-3.789a82.803 82.803 0 00-.679-4.516c1.912.843 3.704 1.6 5.388 2.269.091 1.377.122 2.643.073 3.76a64.202 64.202 0 01-4.782-1.513zm6.075-3.415a63.73 63.73 0 00-.235-2.265c-.08-.66-.16-1.342-.241-2.037 1.9.901 3.689 1.72 5.357 2.43a31.352 31.352 0 01-.075 3.543 63.29 63.29 0 01-4.806-1.671zm6.328-3.017c-.004-.065-.003-.122-.007-.188l-.154-2.758-.059-1.101a124.48 124.48 0 005.239 2.505l-.007.404a25.458 25.458 0 01-.204 2.923c-1.521-.482-3.131-1.089-4.808-1.785zm6.57-2.692c.019-1.189.036-2.435.046-3.76 1.739.908 3.436 1.751 5.077 2.505l-.173 1.76c-.046.474-.106.923-.178 1.353-1.506-.5-3.107-1.135-4.772-1.858zm6.814-2.385c.099-1.083.195-2.231.283-3.453a110.83 110.83 0 004.901 2.464c-.185 1.037-.369 1.981-.531 2.819-.004.011-.005.02-.006.029a57.996 57.996 0 01-4.647-1.859zm7.03-2.096c.161-.969.322-2.012.475-3.145 1.603.865 3.169 1.669 4.686 2.393a82.107 82.107 0 01-.701 2.569 57.917 57.917 0 01-4.46-1.817zm7.156-1.861c.212-.915.419-1.874.612-2.875 1.555.848 3.067 1.629 4.53 2.335a50.798 50.798 0 01-.841 2.325 57.375 57.375 0 01-4.301-1.785zm7.289-1.606c5.797-19.148 3.518-47.689-6.913-86.907-3.572-13.442-8.309-26.796-12.891-39.711-4.488-12.642-8.724-24.585-11.366-35.252-3.838-15.498-3.355-26.258 1.523-33.868a22.467 22.467 0 013.276-3.988 208.87 208.87 0 013.027-.282c-5.138 7.932-5.554 19.279-1.309 35.695 2.681 10.494 6.861 22.132 11.288 34.453 4.822 13.424 9.807 27.302 13.427 41.235 11.184 43.046 12.538 73.41 4.055 90.361a57.534 57.534 0 01-4.117-1.736zm-.867-201.51c.209-.019.418-.036.625-.053 1.21.194 2.413.407 3.608.637-.059-.003-.117-.004-.176-.008a232.972 232.972 0 00-4.057-.576zm22.85 3.469c-1.413-.38-2.847-.764-4.289-1.146.569-.021 1.132-.057 1.693-.089 1.462.481 2.906.978 4.342 1.483-.506-.061-1.017-.122-1.53-.189-.072-.02-.144-.037-.216-.059zm12.375 2.392a46.546 46.546 0 002.09-.071c1.535.704 3.051 1.411 4.555 2.113a72.06 72.06 0 01-1.961-.323 544.968 544.968 0 01-4.684-1.719zm15.403 4.281a42.347 42.347 0 002.237-.093c.578.327 1.163.653 1.738.978.988.557 1.967 1.11 2.939 1.655a57.785 57.785 0 01-2.156-.414 257.889 257.889 0 01-4.758-2.126zm14.598 4.803c.773-.018 1.537-.06 2.295-.134a566.965 566.965 0 004.639 3.004 44.854 44.854 0 01-2.241-.449 170.782 170.782 0 01-4.693-2.421zm13.775 5.043c.789-.035 1.569-.1 2.341-.204a346.81 346.81 0 004.713 3.398 35.153 35.153 0 01-2.311-.466 132.822 132.822 0 01-4.743-2.728zm15.616 4.984a243.616 243.616 0 004.705 3.699 29.976 29.976 0 01-2.294-.455 109.47 109.47 0 01-4.752-2.97 22.577 22.577 0 002.341-.274zm15.106 4.762c5.323-1.77 8.436-4.702 9.792-9.239 1.824-6.126.46-14.241-1.117-23.639-1.506-8.951-3.209-19.096-2.197-28.956 1.155-11.272 5.78-20.549 14.134-28.357 12.569-11.748 18.057-25.665 16.779-42.548-.24-3.169-.669-6.361-1.228-9.559 1.598-.385 3.19-.782 4.781-1.189.82 3.692 1.467 7.379 1.878 11.047 2.018 18.046-2.673 32.647-14.333 44.639-8.378 8.614-12.848 18.804-13.66 31.151-.656 10.274 1.288 20.552 3 29.623 1.784 9.422 3.323 17.563 1.597 23.296-1.211 4.01-4.065 6.515-8.988 7.88-3.286.911-6.728.786-10.322-.088a98.37 98.37 0 01-4.704-3.126 20.368 20.368 0 004.588-.935zm35.972-143.397a130.603 130.603 0 00-1.088-5.215c.461-.114.908-.221 1.371-.338 1.056-.262 2.087-.528 3.128-.792.472 1.722.917 3.443 1.314 5.167-1.572.401-3.147.796-4.725 1.178zm5.17-6.792c1.482-.379 2.939-.761 4.39-1.144a141.42 141.42 0 011.493 5.08c-1.52.419-3.043.826-4.571 1.225a132.692 132.692 0 00-1.312-5.161zm-.307-1.122a162.97 162.97 0 00-1.509-5.059c1.39-.351 2.778-.703 4.162-1.051.59 1.653 1.162 3.311 1.698 4.974-1.438.38-2.884.76-4.351 1.136zm4.472-6.571c12.075-3.057 23.897-6.099 35.05-9.286.743 1.093 1.491 2.185 2.241 3.28-10.696 3.81-22.558 7.468-35.605 10.965-.532-1.656-1.1-3.31-1.686-4.959zm36.927-9.829c.511-.148 1.024-.296 1.533-.446.747 1.016 1.502 2.022 2.254 3.035-.533.196-1.08.389-1.615.583-.727-1.057-1.452-2.117-2.172-3.172zm8.534 5.934c-.738-.986-1.472-1.979-2.208-2.97.569-.21 1.142-.423 1.704-.637.76.936 1.523 1.865 2.287 2.796-.59.271-1.184.541-1.783.811zm3.437-1.58c-.736-.896-1.47-1.795-2.205-2.695.59-.228 1.172-.455 1.753-.686.757.842 1.515 1.681 2.272 2.52-.601.288-1.209.574-1.82.861zm3.434-1.645c-.728-.803-1.453-1.603-2.179-2.408.608-.244 1.198-.49 1.794-.735.751.741 1.501 1.482 2.252 2.221-.617.309-1.241.616-1.867.922zm3.442-1.721c-.714-.702-1.429-1.407-2.141-2.11.622-.261 1.226-.523 1.836-.785l2.214 1.91c-.63.33-1.269.659-1.909.985zm3.454-1.805a619.965 619.965 0 01-2.093-1.803c.636-.276 1.256-.554 1.88-.833l.063.047 2.095 1.535c-.644.353-1.292.705-1.945 1.054zm3.465-1.898c-.67-.491-1.343-.985-2.021-1.48.644-.297 1.278-.592 1.912-.887l.989.592 1.092.653c-.653.376-1.308.75-1.972 1.122zm3.486-2.005l-1.818-1.087-.105-.063a157.76 157.76 0 001.929-.941l.608.281 1.363.621c-.653.398-1.308.796-1.977 1.189zm3.513-2.122l-1.789-.818c.652-.329 1.287-.66 1.924-.99.61.187 1.215.375 1.819.562-.647.415-1.292.831-1.954 1.246zm51.569-23.649c-.018 2.844-.035 5.53-.672 9.783-1.217 8.102-3.691 13.32-7.62 16.001-5.654 3.85-14.234 2.299-23.271.218-4.532-1.042-9.658-2.539-15.112-4.205.72-.481 1.435-.961 2.135-1.447 5.545.822 10.561 1.45 15.035 1.694 15.345.836 26.42-.202 29.172-21.274.181-1.395.299-2.624.377-3.764a125.26 125.26 0 00-.044 2.994zm-1.205-9.216c.016 2.907.031 5.651-.512 9.806-2.6 19.928-12.662 20.881-27.711 20.062-4.026-.219-8.525-.761-13.455-1.472.701-.499 1.386-1.003 2.066-1.509 5.072-.125 9.684-.412 13.707-1.014 13.66-2.045 23.505-5.04 25.691-25.114.089-.827.155-1.592.21-2.33-.001.531.003 1.053.004 1.571zm-1.218-9.279c.055 2.992.106 5.818-.337 9.891-2.087 19.157-11.075 21.91-24.547 23.927-3.46.518-7.377.798-11.652.946.643-.496 1.283-.993 1.906-1.494 4.611-.991 8.76-2.138 12.341-3.537 13.248-5.175 20.71-11.319 22.208-28.922.03-.365.053-.709.079-1.056l.002.245zm-4.53-24.192c-.248 10.886-2.528 20.257-7.162 29.269 4.548-10.245 6.566-19.996 7.162-29.269zm-147.314.782c.628-1.605 1.812-2.721 3.621-3.405 4.856-1.835 11.165 2.574 18.537 10.84-6.668-5.548-12.653-8.098-17.805-6.236-2.137.771-3.739 2.026-4.797 3.721-.194-1.924-.076-3.584.444-4.92zM264.079 487.613c-2.387-26.161 20.564-47.698 44.864-70.5 22.358-20.983 45.479-42.681 52.718-70.521 1.084-4.169 1.713-8.814 2.324-13.309 1.486-10.964 3.023-22.299 11.13-29.16.057-.05.114-.096.171-.143 10.468-8.615 33.418-5.469 50.648-1.983-4.411-.439-8.98-.764-13.546-.821-13.381-.169-22.494 2.254-27.902 7.434-7.696 7.432-9.019 18.71-10.298 29.616-.586 5.016-1.142 9.756-2.282 14.101-.917 3.495-2.262 6.977-4.107 10.65-10.324 20.519-29.651 36.028-48.341 51.018-8.794 7.053-17.882 14.345-25.814 22.008-16.912 16.346-24.271 32.324-22.494 48.852 2.045 19.469 10.681 44.604 18.859 66.623a2088.882 2088.882 0 0011.578 30.379c-.254.46-.503.937-.743 1.425-1.378 1.614-2.613 3.508-3.756 5.652-14.936-34.815-30.496-73.796-33.009-101.321zm-39.383 137.738c.538.212 1.074.428 1.609.645-.45.021-.902.041-1.357.065-.542-.286-1.086-.568-1.63-.849.465.043.916.094 1.378.139zm4.469 1.818c.77.322 1.535.647 2.296.975l-1.957.368c-.768-.421-1.548-.837-2.324-1.255.665-.031 1.334-.061 1.985-.088zm4.506 1.933c.899.396 1.794.797 2.683 1.201-.752.253-1.503.506-2.276.764a500.423 500.423 0 00-2.731-1.53l2.324-.435zm4.541 2.047c.978.452 1.951.907 2.919 1.365-.804.403-1.621.805-2.451 1.208a480.352 480.352 0 00-2.983-1.728c.841-.284 1.699-.569 2.515-.845zm4.572 2.153c1.022.492 2.04.989 3.051 1.489-.831.557-1.651 1.113-2.519 1.678a402.21 402.21 0 00-3.146-1.874c.88-.432 1.764-.864 2.614-1.293zm4.588 2.252c1.067.535 2.13 1.069 3.185 1.609-.833.709-1.691 1.422-2.569 2.139a622.292 622.292 0 00-3.26-1.988 202.37 202.37 0 002.644-1.76zm1.993 4.598c.908-.75 1.788-1.494 2.648-2.236 1.076.556 2.15 1.114 3.212 1.675-.795.839-1.605 1.679-2.447 2.527-.032.031-.066.061-.096.092a969.115 969.115 0 00-3.317-2.058zm4.691 2.92a152.06 152.06 0 002.62-2.706c1.083.577 2.163 1.156 3.233 1.736-.708.897-1.418 1.794-2.167 2.699-.109.131-.223.258-.331.386-1.107-.702-2.226-1.405-3.355-2.115zm4.743 2.995c.064-.076.132-.15.195-.226a151.75 151.75 0 002.364-2.945c1.088.596 2.175 1.192 3.25 1.787-.624.933-1.239 1.863-1.896 2.804-.173.246-.357.487-.532.733-1.115-.712-2.241-1.43-3.381-2.153zm6.603 4.213l-1.809-1.158c.159-.225.33-.447.489-.675.692-.989 1.338-1.966 1.992-2.946 1.093.611 2.176 1.219 3.252 1.827-.541.947-1.065 1.888-1.638 2.843-.227.377-.469.748-.698 1.122l-1.588-1.013zm3.036 1.941c.239-.389.489-.774.723-1.164.583-.969 1.114-1.922 1.663-2.881 1.093.617 2.174 1.234 3.251 1.848-.469.943-.912 1.877-1.406 2.829-.267.514-.557 1.019-.83 1.532a6408.61 6408.61 0 01-3.401-2.164zm4.897 3.111c.298-.554.612-1.106.901-1.663.481-.927.915-1.847 1.373-2.769 1.088.622 2.166 1.241 3.239 1.856-.401.926-.771 1.847-1.192 2.776-.294.649-.608 1.296-.911 1.945a772.369 772.369 0 01-3.41-2.145zm4.958 3.11c.338-.721.687-1.442 1.014-2.161.396-.877.747-1.743 1.123-2.616 1.089.622 2.152 1.229 3.225 1.844-.341.901-.65 1.796-1.01 2.7-.307.773-.636 1.547-.953 2.32a463.605 463.605 0 01-3.399-2.087zm46.672 13.246c-.037.03-.072.057-.111.085-9.246 6.671-23.569.509-41.552-10.274.359-.867.728-1.735 1.072-2.603.326-.82.605-1.632.916-2.45l1.46.836c16.202 9.225 29.218 14.704 39.343 11.506-.098 1.357-.455 2.347-1.128 2.9zm2.907-4.825c-.238.111-.488.189-.729.29a26.182 26.182 0 00-.385-3.246 23.42 23.42 0 002.97-.43c-.196 1.695-.779 2.878-1.856 3.386zm5.256-6.732c-.487.94-1.209 1.538-2.207 1.827a24.917 24.917 0 00-.263-3.411 27.674 27.674 0 003.02-.174c-.124.659-.294 1.265-.55 1.758zm4.146-5.027c-.519.82-1.247 1.379-2.194 1.707.046-.985.016-2.08-.112-3.326.664.031 1.327.054 1.973.045.366-.007.696-.044 1.034-.077-.175.635-.405 1.187-.701 1.651zm4.514-4.874c-.554.736-1.307 1.259-2.262 1.588.088-.928.093-1.975.022-3.136.088.009.177.023.266.03 1.004.088 1.916.09 2.757.022a5.836 5.836 0 01-.783 1.496zm4.874-4.629c-.598.685-1.381 1.165-2.361 1.466.124-.87.185-1.832.169-2.915 1.108.131 2.104.176 3.012.141a5.38 5.38 0 01-.82 1.308zm5.218-4.308c-.629.632-1.454 1.072-2.484 1.331.154-.808.242-1.719.271-2.718a21.28 21.28 0 003.057.249 5.3 5.3 0 01-.844 1.138zm5.526-3.956c-.65.571-1.513.951-2.577 1.167.182-.743.311-1.558.383-2.469 1.038.188 2.047.315 3.005.359a4.867 4.867 0 01-.811.943zm5.804-3.592c-.718.553-1.598.915-2.684 1.083.21-.694.365-1.469.474-2.318 1.062.232 2.06.393 2.994.474a5.07 5.07 0 01-.784.761zm6.041-3.243c-.764.518-1.69.816-2.758.938.229-.633.405-1.343.546-2.109 1.042.256 2.025.446 2.942.56a4.907 4.907 0 01-.73.611zm6.241-2.914c-.783.458-1.715.712-2.773.801.239-.578.447-1.203.612-1.892 1.006.27 1.951.476 2.843.609a4.97 4.97 0 01-.682.482zm3.701-1.964c.24-.516.45-1.079.626-1.691.955.268 1.875.48 2.758.63a5.492 5.492 0 01-.687.414c-.781.388-1.693.583-2.697.647zm6.656-2.483c.239-.472.454-.979.638-1.533.909.267 1.795.493 2.64.657a5.651 5.651 0 01-.728.37c-.753.311-1.613.464-2.55.506zm9.125-2.602c-.703.23-1.497.333-2.352.35.234-.423.442-.879.625-1.368.879.271 1.721.481 2.541.656-.262.134-.522.268-.814.362zm4.589-1.685c.163-.282.315-.58.453-.893.042-.094.079-.194.121-.29.823.261 1.625.483 2.396.661a6.354 6.354 0 01-.965.325c-.61.146-1.292.193-2.005.197zm6.973-1.803c.203-.339.397-.692.591-1.044.755.245 1.486.454 2.193.631-.814.288-1.745.426-2.784.413zm-1.64-142.663c5.349 14.554 10.882 29.6 14.631 44.696 15.578 62.736 7.865 86.238-1.349 94.904-1.106 1.037-2.67 1.474-4.588 1.435 11.369-15.187 11.061-47.002-.941-94.626-3.723-14.545-8.969-29.009-14.045-42.996-4.331-11.947-8.426-23.229-11.124-33.406-3.955-14.807-4.144-25.271-.567-32.581 1.531.011 3.046.045 4.55.092-4.038 14.947 4.144 37.216 13.433 62.482zm85.244-38.608c.084.006.17.009.254.015l.466.315c-.238-.106-.479-.22-.72-.33zm12.833 5.444c.144.011.291.032.432.039.256.187.508.366.764.551-.397-.183-.798-.394-1.196-.59zm45.651-85.091c-17.829 20.069-12.853 43.731-8.858 62.742 3.462 16.468 5.958 28.362-7.28 31.354-5.301 1.198-10.967-.291-17.013-3.442 2.21.122 4.378-.05 6.5-.638 5.501-1.523 8.852-4.499 10.241-9.102 1.852-6.158.277-14.499-1.549-24.159-1.695-8.963-3.615-19.123-2.973-29.167.783-11.898 5.083-21.711 13.148-30.004 12.064-12.404 16.916-27.486 14.835-46.106-.419-3.754-1.081-7.526-1.92-11.297 1.545-.405 3.086-.814 4.621-1.238 5.832 21.92 5.632 43.743-9.752 61.057zm21.912-65.816a340.805 340.805 0 01-10.655 3.179c-.464-1.685-.954-3.37-1.484-5.053 13.243-3.539 25.218-7.21 35.97-11.026.76 1.105 1.524 2.207 2.288 3.309-8.131 3.441-16.853 6.656-26.119 9.591z" fill="url(#paint0_linear_2044_2599)"/></g><defs><linearGradient id="paint0_linear_2044_2599" x1="492.872" y1="709.897" x2="439.581" y2="128.872" gradientUnits="userSpaceOnUse"><stop stop-color="#FF6C1A"/><stop offset="1" stop-color="#994110"/></linearGradient><clipPath id="clip0_2044_2599"><path fill="#fff" transform="matrix(-1 0 0 1 690 0)" d="M0 0h690v501H0z"/></clipPath></defs></svg>