<svg width="48" height="52" fill="none" xmlns="http://www.w3.org/2000/svg"><path d="M18.9 2.964L6.64 10.158a10 10 0 00-4.939 8.624V32.87a10 10 0 004.813 8.55l12.26 7.438a10 10 0 0010.362.008l12.316-7.449a10 10 0 004.826-8.557V18.792a10 10 0 00-4.952-8.632L29.009 2.957a10 10 0 00-10.109.007z" fill="#202020" stroke="url(#paint0_linear_2054_2065)" stroke-width="1.5"/><circle cx="21" cy="26" r="7.5" stroke="#FF6C1A"/><circle cx="39" cy="23" r="3.5" stroke="#FF6C1A"/><circle cx="33" cy="38" r="2.5" stroke="#FF6C1A"/><circle cx="17.5" cy="10.5" r="2" stroke="#FF6C1A"/><path d="M26.576 20.735L35.5 6.5M13.723 27.416l-12-8M17.5 48l3-14.5M31 36l-4.5-5.5m2.363-4.981l7-2M19.5 18.5L18 12.019" stroke="#FF6C1A"/><path fill-rule="evenodd" clip-rule="evenodd" d="M28.63 3.765a9.25 9.25 0 00-9.35.007L7.02 10.965a9.25 9.25 0 00-4.569 7.978v14.088a9.25 9.25 0 004.452 7.908l12.26 7.438a9.25 9.25 0 009.585.007l12.316-7.448a9.25 9.25 0 004.464-7.915V18.953a9.25 9.25 0 00-4.58-7.985L28.63 3.765zM18.52 2.478a10.75 10.75 0 0110.868-.008l12.316 7.203a10.75 10.75 0 015.324 9.28V33.02a10.75 10.75 0 01-5.188 9.199l-12.316 7.448a10.75 10.75 0 01-11.14-.008L6.125 42.22a10.75 10.75 0 01-5.173-9.19V18.943a10.75 10.75 0 015.31-9.272l12.26-7.193z" fill="#FF6C1A"/><defs><linearGradient id="paint0_linear_2054_2065" x1="1.701" y1="26" x2="46.278" y2="26" gradientUnits="userSpaceOnUse"><stop stop-color="#FF6C1A"/><stop offset="1" stop-color="#994110"/></linearGradient></defs></svg>