<svg width="660" height="596" fill="none" xmlns="http://www.w3.org/2000/svg"><g clip-path="url(#clip0_2044_1849)"><path d="M520.197 735.44c-21.331-17.603-24.852-37.462-27.951-54.968-3.44-19.445-6.412-36.242-33.424-42.362-20.775-4.71-24.916-4.439-29.712-4.125-2.535.167-5.159.339-10.74-.29-9.423-1.062-15.237-4.219-17.283-9.377-3.895-9.81 4.775-27.056 26.51-52.725 9.117-10.768 19.945-21.624 31.072-32.118.34.549.683 1.087 1.023 1.627-10.042 10.181-19.671 20.482-27.883 30.773-19.997 25.06-27.39 41.316-23.267 51.165 2.362 5.644 8.615 9.034 18.585 10.078 5.582.577 8.287.38 10.903.191 4.472-.323 8.696-.628 28.155 3.57 25.066 5.41 28.158 19.973 32.08 38.41 3.55 16.695 7.57 35.603 28.502 53.001l1.16-1.394c-20.452-16.977-24.4-35.578-27.889-51.984-3.896-18.324-7.262-34.152-33.472-39.804-19.71-4.254-24.061-3.94-28.668-3.607-2.538.183-5.162.374-10.585-.188-9.258-.967-15.013-3.993-17.097-8.972-3.788-9.047 3.739-25.185 23.011-49.335 8.082-10.129 17.567-20.285 27.464-30.331.362.564.725 1.121 1.089 1.676-8.779 9.694-17.233 19.455-24.34 29.012-17.724 23.83-23.809 38.546-19.735 47.721 2.412 5.438 8.599 8.67 18.388 9.608 5.418.504 8.122.292 10.739.083 4.487-.356 8.724-.691 27.125 3.06 24.351 4.965 27.815 18.655 32.201 35.985 3.937 15.558 8.373 33.176 28.366 49.888l1.133-1.357c-19.534-16.339-23.915-33.666-27.786-48.963-4.361-17.224-8.124-32.099-33.559-37.284-18.646-3.799-23.005-3.455-27.62-3.09-2.541.201-5.169.409-10.433-.081-9.105-.872-14.802-3.754-16.94-8.566-3.734-8.407 2.476-23.009 19.538-45.95 6.982-9.389 15.286-18.994 23.926-28.542.386.577.771 1.151 1.157 1.723-7.535 9.187-14.831 18.414-20.872 27.255-15.194 22.25-20.198 35.909-16.226 44.285 2.516 5.305 8.472 8.288 18.215 9.128 5.256.434 7.964.198 10.582-.027 4.499-.388 8.748-.758 26.095 2.555 23.671 4.519 27.515 17.353 32.376 33.603 4.313 14.414 9.176 30.735 28.17 46.726l1.109-1.316c-18.598-15.664-23.387-31.719-27.631-45.903-5.029-16.81-8.997-30.084-33.702-34.801-17.58-3.355-21.944-2.978-26.567-2.578-2.546.221-5.179.448-10.287.026-9.078-.782-14.578-3.442-16.804-8.149-4.719-9.947 6.121-27.979 16.092-42.577 5.917-8.664 13.066-17.719 20.462-26.747.41.591.818 1.18 1.228 1.762-6.314 8.662-12.475 17.359-17.482 25.51-9.086 14.789-17.706 31.213-12.746 40.899 2.603 5.087 8.513 7.89 18.069 8.592 5.121.374 7.841.117 10.471-.131 4.515-.425 8.778-.83 25.016 2.041 23.052 4.071 27.072 15.484 32.634 31.278 4.441 12.61 9.987 28.308 27.894 43.508l1.083-1.273c-17.565-14.923-22.797-29.726-27.398-42.791-5.534-15.714-9.905-28.126-33.921-32.372-16.461-2.909-20.835-2.496-25.466-2.057-2.562.242-5.209.493-10.191.127-8.924-.657-14.387-3.166-16.7-7.685-4.61-9 4.355-25.71 12.681-39.262 4.889-7.958 10.899-16.463 17.078-24.946.436.609.873 1.212 1.308 1.808-5.247 8.31-10.149 16.236-14.187 23.764-7.691 14.339-14.14 28.807-9.296 37.495 2.701 4.853 8.58 7.492 17.959 8.068 4.969.305 7.7.026 10.34-.245 4.524-.464 8.794-.904 23.959 1.54 22.495 3.622 26.905 14.281 33.002 29.03 4.759 11.508 10.7 25.853 27.506 40.216l1.058-1.236c-16.568-14.16-22.127-27.666-27.059-39.602-6.064-14.664-10.854-26.247-34.248-30.016-15.377-2.476-19.753-2.026-24.385-1.552-2.574.266-5.236.538-10.073.241-8.783-.54-14.225-2.909-16.639-7.237-4.473-8.025 2.197-22.667 9.312-35.931 3.926-7.321 8.684-15.043 13.79-23.13.464.623.928 1.236 1.394 1.845-4.097 7.779-7.923 15.159-10.993 22.027-6.786 15.179-10.383 26.787-5.892 34.101 2.836 4.612 8.688 7.076 17.894 7.523 4.822.236 7.566-.072 10.223-.367 4.525-.504 8.8-.982 22.889 1.044 22.032 3.165 26.855 13.114 33.533 26.886 5.036 10.39 11.281 23.304 26.952 36.821l1.032-1.198c-15.397-13.267-21.589-26.052-26.563-36.313-6.886-14.207-11.862-24.474-34.73-27.762-14.289-2.052-18.864-1.542-23.288-1.048-2.593.288-5.276.588-9.97.359-8.644-.419-14.084-2.632-16.623-6.773-4.375-7.119.292-19.889 5.987-32.628 2.964-6.635 6.653-13.775 10.609-21.292.493.634.989 1.256 1.484 1.875-2.985 7.227-5.772 14.069-7.909 20.294-4.869 14.166-6.99 24.249-2.53 30.73 3.006 4.371 8.849 6.637 17.87 6.946 4.678.161 7.445-.173 10.12-.495 4.324-.525 8.795-1.064 21.802.553 21.706 2.7 26.722 11.531 34.31 24.888 5.259 9.26 11.807 20.78 26.156 33.28l1.007-1.158c-14.118-12.32-20.626-23.722-25.829-32.878-7.537-13.271-12.985-22.858-35.454-25.654-13.195-1.641-17.76-1.088-22.176-.554-2.739.329-5.326.643-9.883.487-8.501-.295-13.948-2.342-16.661-6.284-4.081-5.93-1.865-16.027 2.718-29.364 2.047-5.957 4.699-12.505 7.554-19.422.523.643 1.049 1.268 1.577 1.896-1.926 6.666-3.704 12.96-4.951 18.564-2.319 10.414-4.169 21.104.774 27.388 3.214 4.085 9.073 6.162 17.904 6.327 4.536.085 7.331-.28 10.034-.634 4.317-.564 8.78-1.148 20.699.077 21.57 2.213 27.101 10.527 35.471 23.114 5.39 8.101 12.09 18.178 24.969 29.51l.984-1.116c-12.748-11.209-19.373-21.19-24.714-29.22-8.606-12.938-14.291-21.485-36.559-23.769-12.092-1.243-16.642-.645-21.042-.072-2.771.363-5.389.705-9.814.623-8.355-.157-13.841-2.042-16.763-5.76-4.097-5.208-3.226-13.865-.492-26.144 1.179-5.292 2.843-11.233 4.654-17.52.556.648 1.111 1.284 1.667 1.914-.928 6.101-1.737 11.839-2.134 16.837-.76 9.575-1.027 18.622 4.005 24.079 3.504 3.789 9.387 5.64 18.002 5.655 4.404.008 7.239-.395 9.982-.783 4.294-.609 8.739-1.24 19.563-.394 21.741 1.699 27.588 9.23 37.278 21.711 5.352 6.894 11.99 15.458 23.14 25.376l.959-1.077c-11.04-9.822-17.646-18.334-22.96-25.183-9.929-12.79-15.925-20.516-38.305-22.263-6.827-.535-11.155-.488-14.507-.228 1.316-.158 2.537-.343 3.78-.533 4.266-.655 8.676-1.334 18.398-.846 22.41 1.118 28.369 7.759 40.243 20.998 4.996 5.569 11.185 12.434 20.148 20.546l.933-1.037-.311-.279c-8.709-7.875-14.816-14.681-19.733-20.162-11.749-13.096-18.223-20.311-41.212-21.459-5.29-.266-9.026-.189-12.027.041a186.3 186.3 0 002.571-.416c4.212-.7 8.566-1.429 17.168-1.278 23.943.419 30.251 6.664 45.502 21.752 4.177 4.133 8.911 8.819 14.865 14.255l.909-.997c-5.933-5.416-10.658-10.091-14.826-14.215-15.519-15.358-21.942-21.715-46.426-22.142-3.994-.07-7.08.046-9.666.261.524-.091 1.046-.186 1.574-.281 4.123-.751 8.386-1.525 15.854-1.678 26.993-.559 33.085 5.11 55.788 26.239l4.549 4.227.883-.955-4.546-4.225c-22.411-20.863-29.179-27.158-56.701-26.589a97.839 97.839 0 00-7.137.393l.571-.112c3.975-.789 8.086-1.607 14.381-2.027 27.174-1.806 35.617 1.67 60.303 24.93l.862-.913c-25.036-23.581-33.606-27.109-61.248-25.267-1.539.102-2.943.227-4.254.37 3.566-.777 7.284-1.571 12.131-2.167 26.295-3.237 37.528-2.43 60.265 19.394l.836-.874c-22.994-22.074-35.074-22.943-61.251-19.721-.267.033-.516.069-.776.103 2.742-.667 5.583-1.342 8.723-1.955 23.134-4.515 38.396-7.498 60.224 13.861l.813-.829c-20.805-20.389-36.471-18.903-56.946-15.007 1.082-.313 2.155-.626 3.22-.937 21.816-6.376 40.646-11.892 60.667 8.188l.791-.788c-20.508-20.549-39.614-14.946-61.77-8.471-18.426 5.384-39.313 11.489-64.978 3.375-4.928-1.557-9.932-4.023-14.954-7.3-2.562-1.951-5.131-4.183-7.712-6.729-1.551-1.879-3.078-3.906-4.593-6.037a157.497 157.497 0 01-3.386-6.735 341.826 341.826 0 01-2.06-6.861c-.249-1.807-.502-3.644-.758-5.53l-.178-1.313a696.3 696.3 0 00.013-6.644c.293-2.172.568-4.37.824-6.585.54-2.171 1.059-4.358 1.55-6.556a245.474 245.474 0 002.081-6.11 230.746 230.746 0 002.846-6.431 220.229 220.229 0 003.652-6.818 221.15 221.15 0 003.669-5.857 229.275 229.275 0 004.562-6.353 229.388 229.388 0 005.333-6.629 232.583 232.583 0 005.03-5.657c15.244-15.056 24.15-26.986 19.927-34.563-1.196-2.145-2.916-3.488-5.109-3.99-2.49-.569-5.521-.029-9.036 1.343-2.179-.062-4.638.42-7.363 1.359-2.301-.088-4.872.348-7.688 1.197-2.265-.09-4.759.235-7.44.876-2.401-.194-5.026.017-7.832.524-2.478-.302-5.158-.242-8.004.084-2.621-.458-5.434-.58-8.405-.458-2.499-.602-5.129-.954-7.864-1.128-2.569-.885-5.257-1.54-8.035-2.041-2.623-1.232-5.351-2.253-8.15-3.154-2.501-1.587-5.06-3.009-7.646-4.329a149.796 149.796 0 00-7.418-5.943 328.125 328.125 0 00-6.954-7.826c-1.19-1.952-2.366-3.872-3.524-5.757-.877-1.431-1.734-2.829-2.582-4.218a433.118 433.118 0 01-4.803-12.484 231.504 231.504 0 01-1.871-9.636c-.406-2.374-.437-6.744-.478-12.279-.008-1.181-.017-2.41-.03-3.664l.104-1.445c1.35-18.66 3.61-49.826-9.057-61.277l-.182-.163c-8.299-7.299-19.957-7.154-31.231-7.015-4.708.059-9.156.112-13.374-.342-28.277-3.043-53.001-22.632-76.91-41.576-26.338-20.867-51.216-40.578-77.273-34.252-27.146 6.589-63.744 27.925-96.183 47.933-1.556-.922-3.274-1.743-5.151-2.488-1.8-1.269-3.85-2.393-6.125-3.43-1.777-1.376-3.794-2.631-6.022-3.826-1.72-1.507-3.665-2.926-5.803-4.316-1.585-1.635-3.364-3.216-5.303-4.798-1.476-1.868-3.14-3.724-4.961-5.634-1.245-2.057-2.637-4.135-4.156-6.285a139.246 139.246 0 00-3.18-6.868 176.28 176.28 0 00-2.207-7.568 203.299 203.299 0 00-1.128-7.968c.015-2.814-.014-5.672-.116-8.615.33-2.815.609-5.682.836-8.605a226.968 226.968 0 001.806-9.53c7.533-25.824 11.194-53.904 4.035-81.979l-1.08.277c6.442 25.266 4.268 50.071-1.713 73.473 3.284-25.022 1.932-46.129-4.191-66.04l-1.111.342c6.492 21.117 7.574 43.603 3.407 70.77-.196 1.285-.416 2.553-.636 3.824.753-18.528.294-42.577-8.647-67.231l-1.137.414c9.136 25.185 9.346 49.793 8.51 68.416-.05 1.134-.127 2.24-.195 3.358-.162.501-.329.998-.493 1.497-1.465-19.757-3.889-42.727-13.674-65.981l-1.157.489c9.791 23.268 12.162 46.305 13.618 66.073.064.873.11 1.717.164 2.578-.272.798-.55 1.592-.826 2.386l-.77-3.806c-3.667-18.218-7.825-38.866-18.022-60.017l-1.171.566c10.125 21.003 14.265 41.567 17.916 59.707l.814 4.032c.135.655.253 1.279.38 1.925-.347.966-.694 1.933-1.048 2.894-1.307-3.783-2.58-7.698-3.926-11.841-4.913-15.114-10.479-32.245-19.959-49.58l-1.183.645c9.42 17.226 14.965 34.295 19.86 49.35 1.37 4.22 2.665 8.204 3.996 12.058l.242.697.226.651a449.163 449.163 0 01-1.223 3.206c-2.789-5.566-5.492-11.639-8.35-18.071-5.556-12.504-11.853-26.676-20.563-40.838l-1.19.731c8.664 14.082 14.94 28.208 20.479 40.674 2.911 6.551 5.66 12.739 8.514 18.406l.43.841a561.96 561.96 0 01-1.354 3.406c-4.621-6.857-9.09-14.8-13.813-23.203-5.73-10.196-12.227-21.753-20.068-33.157l-1.187.818c7.806 11.349 14.283 22.875 19.998 33.045 4.83 8.591 9.39 16.707 14.14 23.702.094.139.186.268.28.404a493.978 493.978 0 01-1.456 3.533c-6.795-7.849-13.37-17.516-20.32-27.748-5.732-8.437-11.658-17.163-18.458-26.055l-1.181.903c6.773 8.861 12.688 17.568 18.407 25.989 7.131 10.497 13.867 20.414 20.883 28.421l.027.03a559.225 559.225 0 01-1.53 3.611c-9.365-8.664-18.428-20.031-28.01-32.066-4.963-6.239-10.095-12.687-15.6-19.192l-1.171.993c5.489 6.485 10.614 12.925 15.57 19.152 9.751 12.253 18.97 23.823 28.563 32.614a575.041 575.041 0 01-1.591 3.669c-12.417-9.384-24.393-22.497-37.05-36.396-3.664-4.02-7.451-8.178-11.328-12.333l-1.155 1.077c3.868 4.148 7.654 8.302 11.313 12.321 12.81 14.064 24.93 27.338 37.566 36.824a1016.94 1016.94 0 01-1.647 3.728c-16.07-10.046-31.438-25.069-47.673-40.962-1.792-1.753-3.596-3.519-5.413-5.29l-1.136 1.165c1.817 1.771 3.618 3.536 5.41 5.289 16.37 16.019 31.854 31.163 48.145 41.3a2520.86 2520.86 0 01-1.67 3.741c-18.886-9.836-36.652-25.036-57.76-43.797l-1.113 1.251C7.32 235.892 25.188 251.179 44.275 261.1c-.302.674-.605 1.353-.906 2.02l-.776 1.732c-20.39-8.889-39.777-23.007-62.404-41.379l-1.086 1.335c22.733 18.456 42.226 32.647 62.786 41.614-.565 1.26-1.12 2.507-1.669 3.74-25.352-9.295-49.064-25.628-67.048-38.989l-1.053 1.417c18.054 13.414 41.86 29.811 67.382 39.191a722.822 722.822 0 00-1.647 3.748c-22.064-6.747-44.947-18.447-71.697-36.655l-1.021 1.499c26.826 18.259 49.81 30.022 71.992 36.831a456.263 456.263 0 00-1.586 3.717c-24.256-6.174-49.29-17.425-76.402-34.345l-.984 1.578c27.179 16.962 52.302 28.268 76.663 34.504-8.145 19.685-12.148 35.062-3.776 43.66.045.045.091.088.138.133.931.84 2.398 1.099 4.338.871.213.377.412.761.656 1.124a3.6 3.6 0 00.596.697c.992.895 2.495 1.22 4.422 1.095.047.11.079.224.127.331a4.742 4.742 0 001.148 1.602 4.9 4.9 0 001.71.988c.74.254 1.61.371 2.602.37.349.833.826 1.527 1.431 2.075.416.376.894.684 1.429.923.76.337 1.645.534 2.671.597.391.951.904 1.746 1.578 2.356.338.307.713.571 1.125.793.746.405 1.614.671 2.617.798.428 1.14 1.025 2.052 1.795 2.749.242.218.5.414.774.59.71.453 1.547.767 2.514.95.433 1.337 1.064 2.387 1.935 3.176.15.137.31.266.475.388.68.503 1.477.867 2.398 1.109.42 1.546 1.09 2.738 2.063 3.617.052.048.106.093.162.14.635.537 1.384.946 2.255 1.236.36 1.586 1 2.944 2.05 3.951.044.043.09.086.137.129a6.762 6.762 0 001.959 1.208c.305 1.671.909 3.052 1.894 4.126.135.147.275.287.424.421.459.415.992.756 1.58 1.045.25 1.693.787 3.108 1.692 4.233.224.281.466.537.73.777.356.32.758.594 1.187.842.204 1.681.688 3.097 1.502 4.269.306.436.652.831 1.039 1.183.267.238.574.436.881.636.158 1.61.548 3.029 1.247 4.202a6.86 6.86 0 001.317 1.614c.193.174.412.323.627.478.116 1.519.423 2.878.99 4.017a7.1 7.1 0 001.603 2.13c.124.114.263.213.397.318.08 1.373.303 2.623.734 3.693.436 1.081 1.056 1.985 1.852 2.705.058.053.131.094.193.147.12 2.843.907 5.115 2.568 6.616.017.014.037.025.055.041.09 2.93.868 5.244 2.538 6.757.107.095.217.188.329.277 14.792 11.688 47.968 7.43 95.939-12.317 14.476-5.959 28.596-13.663 42.252-21.113 23.606-12.879 44.37-24.198 59.163-22.179.306 2.829.563 5.615.812 8.333.094 1.012.186 2.022.282 3.026a539.502 539.502 0 01-.085 8.151c-.058 3.721-.11 7.392-.05 10.974l-.012.1c-.684 5.855-1.344 11.588-1.53 17.048-1.156 5.696-2.1 11.099-2.442 16.159-1.428 5.305-2.522 10.333-2.935 15.036-1.643 5.09-2.85 9.905-3.295 14.409-1.804 4.922-3.081 9.57-3.534 13.923-1.922 4.768-3.246 9.275-3.695 13.496-3.753 8.665-5.322 16.468-2.703 23.232 5.56 14.367 18.952 9.421 34.461 3.68 17.83-6.595 40.018-14.805 61.7-.622 20.085 13.138 42.298 10.055 63.61.847a341.963 341.963 0 004.722 10.113c4.314 8.839 8.83 17.093 13.49 24.719-11.267 10.614-22.251 21.613-31.499 32.536-22.218 26.242-30.993 44.105-26.82 54.612 2.321 5.847 8.646 9.392 18.802 10.537 5.748.649 8.454.473 11.073.301 4.65-.305 8.667-.567 29.178 4.082 25.807 5.848 28.543 21.305 32.004 40.872 3.154 17.823 6.748 38.011 28.599 56.079l1.183-1.435zm-60.7-196.74c.95-.895 1.901-1.787 2.855-2.674.279.519.556 1.048.836 1.56-.899.901-1.804 1.798-2.695 2.701-.334-.529-.664-1.056-.996-1.587zM100.634 403.017c-.05-.031-.094-.07-.142-.101.022-1.094.133-2.275.342-3.552 18.473 5.916 48.649.084 89.808-17.382 13.326-5.655 26.359-12.64 38.965-19.397 11.503-6.163 22.365-11.986 32.279-16.147 15.218-6.437 26.095-7.674 34.229-3.896.354.164.7.345 1.044.529.231 1.258.438 2.512.632 3.763-8.085-2.227-18.576-.393-32.566 5.655-9.742 4.194-20.341 9.914-31.56 15.972-13.051 7.048-26.551 14.338-40.309 20.118-45.585 18.952-76.782 23.808-92.722 14.438zm-2.808-6.755c.01-1.143.128-2.395.345-3.743.731.168 1.478.317 2.234.455a57.41 57.41 0 00-1.005 4.008c-.27-.105-.548-.202-.812-.313a5.927 5.927 0 01-.762-.407zm-2.836-6.58c-.01-1.179.098-2.465.308-3.85.782.109 1.599.21 2.446.3a58.432 58.432 0 00-1.043 4.247c-.05-.012-.105-.024-.156-.039a6.714 6.714 0 01-1.555-.658zm-3.06-6.464c-.027-1.181.076-2.488.275-3.886.076.006.142.019.22.023.748.034 1.578.07 2.476.101a58.597 58.597 0 00-1.059 4.442 7.47 7.47 0 01-1.913-.68zm-3.242-6.315c-.053-1.18.013-2.471.196-3.874.54.017 1.095.017 1.686-.012.403-.02.817-.039 1.24-.061a57.133 57.133 0 00-1.052 4.579 8.371 8.371 0 01-2.07-.632zm-3.476-6.142c-.071-1.164-.009-2.452.154-3.837a26.576 26.576 0 003.104-.224 57.673 57.673 0 00-1.018 4.63c-.84-.113-1.587-.3-2.24-.569zm-3.702-5.9c-.094-1.133-.054-2.414.087-3.83a29.327 29.327 0 003.3-.352 59.881 59.881 0 00-.953 4.663c-.92-.073-1.725-.237-2.434-.481zm-3.987-9.408a33.277 33.277 0 003.5-.529 58.815 58.815 0 00-.842 4.657c-.994-.024-1.868-.142-2.63-.355-.127-1.119-.132-2.377-.028-3.773zm-4.383-5.286a36.65 36.65 0 003.68-.706 59.193 59.193 0 00-.71 4.62c-1.078.028-2.017-.052-2.84-.229-.151-1.044-.192-2.264-.13-3.685zm-4.689-4.97a40.788 40.788 0 003.829-.879 58.04 58.04 0 00-.557 4.601c-1.128.087-2.115.064-2.98-.063-.2-1.033-.296-2.252-.292-3.659zm-9.8-5.35c-.236-.851-.392-1.833-.46-2.974-.01-.162-.007-.334-.015-.496a50.2 50.2 0 004.113-1.264 59.475 59.475 0 00-.253 3.981c-.005.167.002.316 0 .479-1.283.222-2.406.313-3.385.274zm-5.413-3.961a10.543 10.543 0 01-.294-1.274 31.255 31.255 0 01-.261-2.109 55.167 55.167 0 004.21-1.447 51.57 51.57 0 00-.097 4.365c-1.348.294-2.53.449-3.558.465zm-5.565-3.614c-.302-1.06-.516-2.171-.688-3.31a59.826 59.826 0 004.252-1.608 43.804 43.804 0 00.08 4.271c-1.334.347-2.55.564-3.644.647zm-5.649-3.239a21.578 21.578 0 01-.963-3.176 63.521 63.521 0 004.308-1.784c.009 1.415.074 2.801.23 4.135-1.31.397-2.506.677-3.575.825zm22.052-113.826c-.001-.013-.003-.028-.002-.042.01-.034.022-.068.034-.103-.01.05-.022.098-.032.145zm347.529 168.728l-.083 1.184c-.582-5.591-1.341-11.728-2.529-17.789-2.508-12.806-6.753-21.067-12.975-25.274-8.626-5.825-19.702-5.264-30.413-4.722-5.384.275-10.466.532-15.16.007-3.526-.402-7.122-1.35-10.995-2.9-19.838-7.95-34.297-23.867-49.608-40.72-7.974-8.775-16.212-17.84-25.311-25.729-17.377-15.053-34.267-20.058-51.638-15.304-18.204 4.983-40.548 16.547-63.763 28.971-7.717 4.129-15.102 8.071-22.165 11.836-1.506-.77-3.16-1.42-4.966-1.966a25.89 25.89 0 00-3.239-1.644 2124.979 2124.979 0 0127.529-15.431c20.518-11.284 44.033-23.473 62.869-28.317 15.936-4.142 32.022.591 50.621 14.889 8.699 6.687 17.229 14.592 25.475 22.239 17.663 16.38 35.926 33.309 57.979 40.59 3.98 1.315 7.699 2.149 11.372 2.554 4.548.5 9.356.352 14.447.198 10.772-.33 21.91-.668 30.06 5.601 5.652 4.391 9.251 12.804 11.002 25.748 1.214 8.968 1.418 18.16 1.491 25.979zm109.198 70.406c1.957.51 3.436 1.736 4.524 3.757 2.89 5.371-.579 13.323-7.7 22.829 4.617-8.425 6.203-15.676 3.225-21.388-1.007-1.932-2.333-3.389-3.946-4.376a40.396 40.396 0 012.439-1.061c.51.04.996.118 1.458.239zm-42.117 106.133c.169-.581.336-1.162.504-1.747.285.505.57 1 .856 1.5-.094.596-.187 1.192-.277 1.783-.362-.506-.721-1.021-1.083-1.536zm-4.261-6.356c.375-.707.749-1.417 1.124-2.131.278.533.559 1.052.838 1.578l-.901 2.185c-.354-.539-.706-1.081-1.061-1.632zm-176.92-119.721c.338.944.742 1.865 1.191 2.768l-1.492 2.783c-.739 1.375-1.466 2.73-2.185 4.077a27.536 27.536 0 01-.455-3.057 349.386 349.386 0 012.941-6.571zm2.53-14.875c.302.982.636 1.949 1.033 2.887a972.838 972.838 0 01-3.182 6.94 33.87 33.87 0 01-.406-3.091 657.517 657.517 0 012.555-6.736zm.702-11.342c.424-1.41.851-2.836 1.275-4.274.276.988.594 1.955.942 2.905a355.665 355.665 0 01-2.61 7.082 45.752 45.752 0 01-.364-3.189c.251-.837.501-1.677.757-2.524zm1.054-14.071c.475-2.272.945-4.578 1.389-6.913.262.967.552 1.917.861 2.857a197.123 197.123 0 01-1.872 7.258 64.466 64.466 0 01-.378-3.202zM92.505 359.161a391.59 391.59 0 004.34-.923 246.12 246.12 0 00-2.281 6.094c-1.353.191-2.636.366-3.85.529a137.766 137.766 0 011.791-5.7zm-3.74-6.217c.237-.064.465-.126.706-.189 1.242-.334 2.536-.682 3.877-1.049l-.112.306a333.456 333.456 0 00-2.077 5.909l-1.926.394-2.174.448a163.844 163.844 0 011.707-5.819zm-9.638-7.074c.307-1.375.657-2.785 1.026-4.209.327-.125.642-.244.98-.376a932.422 932.422 0 014.107-1.588 205.958 205.958 0 00-1.939 6.381l-.706.235a86.35 86.35 0 01-3.823 1.188c.113-.533.231-1.077.355-1.631zm-4.996-3.512c.337-1.87.737-3.787 1.2-5.753a198.39 198.39 0 003.89-1.664c.452-.2.924-.407 1.39-.61a204.244 204.244 0 00-1.802 6.401 98.196 98.196 0 01-4.678 1.626zM63.09 241.135c-.04.732-.072 1.471-.121 2.196-.432-.591-.866-1.182-1.309-1.792.154-.764.294-1.54.44-2.309l.99 1.905zm-.577-4.136c.098-.55.2-1.097.294-1.649.159.475.318.953.47 1.423-.016.536-.02 1.082-.041 1.616a8.148 8.148 0 01-.118-.226l-.605-1.164zm30.44 42.316l.22.261c-.64-.163-1.292-.327-1.952-.488-.082-.169-.162-.341-.248-.509.676.243 1.334.488 1.98.736zm6.095 3.707l.152.161c-.639-.128-1.285-.252-1.94-.374-.069-.132-.132-.265-.203-.396.679.2 1.342.403 1.991.609zm6.145 3.345l.086.086c-.622-.098-1.255-.191-1.897-.28-.055-.104-.107-.208-.163-.309.672.162 1.331.328 1.974.503zm306.135 109.3c.066 1.529.162 3.089.274 4.662-.198-1.057-.401-2.139-.611-3.271-1.135-6.131-2.42-13.08-4.27-20.202-3.198-12.326-7.947-20.182-14.508-24.033-8.779-5.146-19.6-4.375-30.068-3.629-5.703.407-11.089.792-15.99.232-3.5-.407-7.048-1.483-10.849-3.291-17.91-8.525-29.665-24.207-42.11-40.81-7.482-9.979-15.215-20.298-24.624-29.444-16.004-15.577-33.388-20.784-51.651-15.516-17.62 5.081-38.529 16.009-60.668 27.575l-3.72 1.944a1730.063 1730.063 0 01-18.68 9.603c-1.414-2.187-3.303-3.917-5.621-5.296 6.853-3.653 14.007-7.472 21.469-11.467 23.151-12.388 45.429-23.918 63.513-28.868 16.951-4.642 33.479.282 50.525 15.05 9.043 7.832 17.259 16.879 25.209 25.629 15.405 16.958 29.957 32.974 50.054 41.028 3.973 1.593 7.672 2.567 11.309 2.979 4.791.535 9.922.277 15.355.001 10.514-.532 21.384-1.084 29.679 4.516 5.943 4.012 10.021 12.027 12.463 24.503 1.703 8.683 2.531 17.572 3.197 24.714.11 1.184.216 2.303.323 3.391zm10.125 32.707c.497 1.199 1 2.409 1.51 3.627-.787-.564-1.571-1.124-2.365-1.696a377.405 377.405 0 01-1.18-4.14c.442.477.872.951 1.315 1.43l.72.779zm93.518 27.762c1.823.773 3.243 2.16 4.315 4.221 3.453 6.62-.266 16.07-7.902 27.175 5.075-10.007 6.896-18.787 3.397-25.693-.83-1.638-1.821-2.945-2.955-3.973a79.293 79.293 0 013.145-1.73zM486.353 570.64c-.138-.169-.275-.327-.411-.496a14.139 14.139 0 01-.047-.297c.133.206.268.419.403.622l.055.171zm-2.116-2.644c-.287-.364-.572-.729-.858-1.1.003-.334.005-.676.009-1.012.234.381.47.767.705 1.144.049.319.096.652.144.968zm-.591-3.98l-.24-.405.006-.487c.053.12.107.249.161.37.026.172.05.351.073.522zM298.005 451.501a983.113 983.113 0 004.963-8.239c2.507 2.557 5.312 4.001 8.657 4.46 6.163.83 13.732-1.094 21.747-3.131 8.746-2.222 18.658-4.743 28.152-3.957 9.722.803 18.122 5.207 25.682 13.474 11.834 12.936 22.897 18.557 34.816 17.694a83.58 83.58 0 004.978-.529 357.902 357.902 0 001.742 5.005c-1.993.41-3.983.775-5.962 1.036-12.794 1.689-24.796-3.143-36.675-14.786-8.358-8.167-17.591-12.333-28.27-12.734-9.884-.37-19.873 2.402-28.684 4.848-8.079 2.244-15.709 4.363-21.595 3.554-3.912-.547-6.939-2.663-9.532-6.662-.007-.011-.012-.024-.019-.033zM100.038 354.81c.738-1.858 1.511-3.74 2.292-5.624 1.653-.483 3.369-.995 5.154-1.544a731.722 731.722 0 00-3.252 7.358c-1.645.404-3.208.773-4.709 1.116.17-.435.342-.871.515-1.306zm-20.048-35l.671-.357a6456.94 6456.94 0 005.615-2.976c-.505 1.583-1.025 3.183-1.552 4.807l-.89 2.749c-2.06.996-4.042 1.955-5.949 2.885a486.81 486.81 0 012.105-7.108zm-14.561-66.806c.017.758.038 1.518.042 2.273a317.896 317.896 0 01-2.261-1.729c.107-.818.204-1.64.299-2.462.651.654 1.286 1.291 1.92 1.918zm.029 4.172c-.011.806-.022 1.61-.05 2.413-.93-.548-1.872-1.111-2.825-1.693.139-.871.262-1.742.387-2.616.84.648 1.67 1.281 2.488 1.896zm45.896 32.263l.023.021c-.603-.074-1.216-.143-1.837-.21-.044-.077-.081-.158-.127-.234.663.135 1.311.275 1.941.423zm303.56 136.147c-2.944-3.808-5.646-11.008-8.935-19.74a616.379 616.379 0 00-3.816-9.946c-4.502-11.342-10.253-18.386-17.58-21.54-9.048-3.893-19.438-2.7-29.488-1.547-6.309.724-12.268 1.409-17.52.783-3.563-.431-6.916-1.724-10.556-4.066-14.482-9.31-21.515-24.583-28.962-40.748-5.73-12.432-11.653-25.288-21.404-37.113-14.017-17.003-31.406-22.364-51.68-15.95-14.792 4.675-31.919 13.436-50.054 22.71-5.139 2.629-10.347 5.293-15.583 7.905a712.354 712.354 0 01-23.274 11.089c.438-1.592.708-2.989.762-4.147a35.921 35.921 0 00-.05-4.219 968.169 968.169 0 0019.75-9.789c3.497-1.782 6.979-3.576 10.437-5.357 19.788-10.192 38.475-19.818 54.36-24.624 18.79-5.684 35.713-.525 50.333 15.369 9.55 10.38 16.477 21.914 23.176 33.069 9.916 16.511 19.281 32.106 35.698 41.242 3.908 2.176 7.462 3.395 11.184 3.837 5.223.608 10.968.077 17.048-.488 10.065-.932 20.471-1.897 29.051 2.436 6.609 3.337 11.645 10.546 15.394 22.032 1.746 5.345 3.219 10.59 4.518 15.217 2.216 7.89 4.03 14.343 6.192 17.867.309 1.889.645 3.798.999 5.718zm19.069 21.714a404.282 404.282 0 011.927 3.409 347.58 347.58 0 01-3.73-.287c-.581-1.335-1.151-2.651-1.719-3.962.984.235 1.966.471 2.937.701.196.046.391.091.585.139zm32.348 13.761a38.52 38.52 0 011.77 1.716c-1.247.49-2.508.992-3.779 1.502a63.21 63.21 0 00-1.706-2.139c1.253-.372 2.493-.732 3.715-1.079zm9.766 2.61a529.806 529.806 0 00-3.734 1.795 41.888 41.888 0 00-1.586-1.943c1.235-.48 2.449-.944 3.644-1.388.57.487 1.132.994 1.676 1.536zm7.89.367c-1.235.68-2.495 1.383-3.776 2.101a35.525 35.525 0 00-1.458-1.825 264.477 264.477 0 013.728-1.716c.518.447 1.019.933 1.506 1.44zm6.295-1.376c.472.432.93.892 1.37 1.388a602.808 602.808 0 00-3.771 2.363 25.46 25.46 0 00-1.322-1.763 269.528 269.528 0 013.723-1.988zm7.616-.266c.424.432.831.902 1.219 1.406a531.047 531.047 0 00-3.793 2.617 24.974 24.974 0 00-1.153-1.783 223.116 223.116 0 013.727-2.24zm7.407-.493c.702.86 1.34 1.841 1.902 2.975 4.192 8.487 1.469 19.702-4.836 32.254l-.765.712c4.178-11.782 5.305-22.548 1.028-31.411-.348-.72-.723-1.38-1.114-2.016 1.291-.872 2.55-1.707 3.785-2.514zm-30.503 75.275c.504-.609 1.009-1.215 1.514-1.822.111.401.226.811.335 1.21-.574.785-1.149 1.568-1.723 2.351-.165-.43-.33-.866-.494-1.299l.368-.44zm.778-9.325l2.308-2.264.196 1.052-2.18 2.35c-.105-.377-.216-.759-.324-1.138zM314.535 421.599a15.935 15.935 0 005.687 1.861c5.976.771 13.073-.698 20.589-2.254 9.331-1.932 18.979-3.93 28.217-2.242 8.724 1.592 16.155 6.792 22.734 15.906 11.006 15.257 19.199 21.799 28.283 22.575.87.074 1.742.127 2.617.173.525 1.78 1.067 3.563 1.624 5.346-1.083.048-2.169.08-3.248.082-9.948.007-19.301-6.028-30.331-19.555-7.342-9.003-15.592-13.995-25.224-15.259-9.65-1.265-19.785 1.074-28.729 3.136-7.628 1.759-14.832 3.421-20.621 2.658-2.365-.32-4.47-1.176-6.432-2.64 1.72-3.23 3.349-6.494 4.834-9.787zm.156-14.858a22.74 22.74 0 002.765 2.052c-1.075 3.471-2.394 6.928-3.88 10.363a21.198 21.198 0 01-2.748-2.41c1.428-3.305 2.742-6.641 3.863-10.005zm-6.193-43.167a59.545 59.545 0 00-.483-4.744c.14.103.28.208.416.315.579 2.205.969 4.421 1.244 6.642a69.555 69.555 0 01-1.177-2.213zm-196.941-20.679c.905-1.997 1.796-3.973 2.668-5.922a512.514 512.514 0 005.822-2.199 946.684 946.684 0 01-4.064 8.624 335.527 335.527 0 01-5.455 1.785c.344-.76.69-1.535 1.029-2.288zm-4.547-4.788a997.59 997.59 0 003.476-8.237 835.06 835.06 0 005.999-2.463 456.59 456.59 0 01-3.781 8.64 509.095 509.095 0 01-5.694 2.06zm-37.386-72.226c-1.047-.459-2.106-.93-3.181-1.42.065-.785.1-1.569.147-2.355.981.567 1.948 1.119 2.902 1.657.054.704.1 1.41.132 2.118zm.064 1.806c.017.736.019 1.474.01 2.216a240.246 240.246 0 01-3.685-1.281c.1-.818.174-1.633.254-2.449a277.31 277.31 0 003.421 1.514zm10.244 8.784c-1.216-.28-2.452-.574-3.703-.868a50.17 50.17 0 00-.083-1.831l3.481 1.095c.115.527.216 1.063.305 1.604zm27.166 12.111c.109.151.212.304.314.459-.788-.071-1.59-.139-2.404-.202.258-.16.516-.322.774-.481.445.072.882.148 1.316.224zm8.991 19.076c-.033.244-.082.508-.125.764-1.923.947-3.819 1.88-5.67 2.787.509-1.847.908-3.57 1.156-5.122.179-1.108.299-2.156.39-3.172l4.517-2.404c.174 2.12.092 4.484-.268 7.147zm-4.148-6.167c.142-2.772-.043-5.227-.546-7.397l2.561-1.464c1.14 1.865 1.911 4.028 2.266 6.585-1.445.767-2.871 1.526-4.281 2.276zm-6.833 2.789c.466-2.55.699-4.867.728-6.996 1.32-.759 2.669-1.531 4.012-2.3.449 2.169.579 4.621.358 7.428-1.793.954-3.56 1.892-5.301 2.817.063-.312.146-.645.203-.949zm8.203-12.62l-2.228 1.273a18.454 18.454 0 00-.593-1.718c.942.108 1.859.227 2.754.356.021.03.046.058.067.089zm-3.747 2.147l-3.74 2.144c-.054-1.899-.278-3.644-.679-5.243 1.159.092 2.289.19 3.389.301.417.87.757 1.804 1.03 2.798zm-7.242-3.303c.362.025.725.047 1.082.072.531 1.878.814 3.957.812 6.301-1.673.963-3.335 1.918-4.97 2.861.424-2.785.565-5.305.44-7.596l2.636-1.638zm-2.734.386c-.018-.187-.031-.379-.053-.563l.872.053-.819.51zm-1.499.931c-1.564.975-3.118 1.942-4.653 2.9.183-1.662.257-3.227.235-4.713 1.451.074 2.867.15 4.255.227.07.516.126 1.044.163 1.586zm-4.498-3.679a30.01 30.01 0 00-.134-1.319c1.317.136 2.6.274 3.855.414.103.366.195.738.279 1.118a957.33 957.33 0 00-4-.213zm-1.54-.078l-.463-.024c-1.25-.063-2.563-.133-3.863-.199a38.21 38.21 0 00.017-1.595l.955.097c1.088.108 2.15.214 3.205.322.062.458.11.923.15 1.399zm-3.175-3.526c-.389-.038-.807-.083-1.201-.122a34.746 34.746 0 00-.128-1.451c1.272.201 2.513.401 3.727.6.113.407.213.821.303 1.245a585.11 585.11 0 00-2.7-.272zm-2.75-.278c-1.392-.141-2.807-.29-4.257-.443.018-.592.027-1.176.024-1.752 1.335.216 2.66.427 3.934.627.045.007.091.014.136.023.067.506.123 1.021.162 1.545zm-4.29-3.992a39.706 39.706 0 00-.123-1.625l1.18.271c.833.188 1.647.375 2.455.559.117.462.221.929.317 1.405a1249.36 1249.36 0 01-3.829-.61zm-1.494-.244c-1.37-.224-2.744-.448-4.147-.689.028-.662.049-1.315.053-1.962 1.33.316 2.644.624 3.938.919.064.569.116 1.146.156 1.732zm-5.542-4.759a317.994 317.994 0 01-3.934-.976c.056-.733.101-1.462.133-2.185a337.5 337.5 0 003.686 1.198c.05.649.09 1.303.115 1.963zm-3.745-4.909c.013-.694.013-1.387.006-2.076 1.08.464 2.144.919 3.192 1.361.095.611.18 1.225.253 1.846a295.46 295.46 0 01-3.451-1.131zm-1.399 1.298a69.89 69.89 0 01-.127 2.297 254.23 254.23 0 01-4.13-1.108c.14-.849.255-1.689.373-2.529 1.311.464 2.606.911 3.884 1.34zm-.275 4.04a66.52 66.52 0 01-.266 2.335 251.652 251.652 0 01-4.512-.923c.177-.862.332-1.714.487-2.564 1.447.4 2.882.788 4.291 1.152zm1.332.331c1.39.35 2.766.692 4.12 1.015 0 .673-.013 1.353-.038 2.043a302.764 302.764 0 01-4.348-.791c.103-.763.191-1.518.266-2.267zm3.98 4.829c-.052.696-.12 1.401-.201 2.116a304.9 304.9 0 01-4.69-.618c.145-.78.279-1.553.397-2.317 1.528.29 3.02.559 4.493.819zm1.392.251a514 514 0 004.333.721 41.59 41.59 0 01-.007 1.833 556.643 556.643 0 01-4.526-.519c.08-.688.147-1.366.2-2.035zm4.235 4.369a48.527 48.527 0 01-.178 1.933 408.16 408.16 0 01-4.833-.346 64.41 64.41 0 00.345-2.124c1.585.19 3.14.37 4.666.537zm1.448.156c1.52.161 3 .316 4.452.462a35.54 35.54 0 01-.003 1.67c-1.503-.082-3.06-.176-4.624-.27.072-.631.13-1.251.175-1.862zm4.351 3.989c-.2 2.701-.683 5.635-1.485 8.876-.167.666-.356 1.358-.535 2.038a2026.981 2026.981 0 01-6.475 4.002 369.456 369.456 0 002.107-7.495 68.66 68.66 0 001.624-7.699c1.612.098 3.214.194 4.764.278zm-.042 9.232c.827-3.342 1.328-6.368 1.544-9.154 1.305.068 2.62.137 3.872.199.221.012.438.024.657.034.031 1.805-.101 3.748-.39 5.836-1.963 1.222-3.905 2.432-5.824 3.625.045-.177.096-.363.14-.54zm5.459-1.632a58.191 58.191 0 01-.61 3.105 113.64 113.64 0 01-1.25 4.933c-2.177 1.256-4.317 2.49-6.397 3.686a255.558 255.558 0 002.245-7.983c1.966-1.22 3.97-2.468 6.012-3.741zm.884 3.443c.359-1.579.629-3.075.83-4.512a8.07 8.07 0 00.2-.125l4.694-2.923c.053 2.299-.163 4.833-.668 7.655l-4.747 2.739c-.4.232-.783.451-1.18.68.314-1.197.613-2.376.871-3.514zm.889 3.84a3255.8 3255.8 0 003.88-2.238c-.522 2.512-1.256 5.264-2.141 8.195l-6.312 3.348a238.493 238.493 0 002.391-8.046c.73-.42 1.442-.832 2.182-1.259zm5.454-2.029c.088-.426.16-.837.234-1.251 1.705-.981 3.439-1.981 5.186-2.984-.078 1.771-.296 3.675-.676 5.75a51.69 51.69 0 01-.477 2.237 7729.127 7729.127 0 00-6.035 3.202c.711-2.458 1.325-4.799 1.768-6.954zm3.876 5.327c-.66 2.575-1.514 5.372-2.523 8.366a2845.444 2845.444 0 01-6.223 3.009 261.082 261.082 0 002.628-8.128c2-1.062 4.04-2.143 6.118-3.247zm1.937-1.029c1.801-.955 3.633-1.929 5.492-2.917a43.955 43.955 0 01-.271 1.967c-.301 1.886-.831 4.035-1.526 6.377a2382.867 2382.867 0 01-6.121 2.98c.985-3.008 1.824-5.84 2.426-8.407zm3.19 7.071c-.836 2.646-1.854 5.51-2.99 8.526-2.093.928-4.132 1.822-6.09 2.678a333.385 333.385 0 002.919-8.208c2.006-.973 4.058-1.97 6.161-2.996zm2.059-1.007c1.908-.932 3.855-1.889 5.84-2.867-.553 2.519-1.469 5.464-2.64 8.716-2.092.945-4.131 1.857-6.11 2.737 1.127-3.051 2.12-5.935 2.91-8.586zm12.971 2.82c1.837-.852 3.722-1.731 5.636-2.631-.45 2.42-1.462 5.505-2.855 9.054a646.343 646.343 0 01-6.051 2.592c1.331-3.288 2.456-6.331 3.27-9.015zm-5.57 9.982c-2.06.861-4.074 1.69-6.021 2.483 1.253-3.056 2.403-5.983 3.388-8.713 1.958-.886 3.98-1.812 6.036-2.757-.889 2.7-2.051 5.722-3.403 8.987zm6.044-11.638c.429-1.596.731-3.046.867-4.31.154-1.425.233-2.769.237-4.037 1.31-.654 2.634-1.315 3.973-1.987.432 2.22.555 4.753.327 7.679-.004.041-.014.091-.019.135-1.827.86-3.624 1.702-5.385 2.52zm-.889-4.499c-.167 1.541-.601 3.394-1.224 5.476a988.368 988.368 0 01-5.962 2.726c1.128-3.271 1.971-6.207 2.417-8.693 1.63-.806 3.285-1.625 4.969-2.462a38.05 38.05 0 01-.2 2.953zm-9.984 10.895a267.695 267.695 0 01-3.424 8.628 686.782 686.782 0 01-5.91 2.357 497.808 497.808 0 003.216-8.253c1.978-.877 4.023-1.79 6.118-2.732zm-4.151 10.375a1407.068 1407.068 0 01-3.435 8.11 617.272 617.272 0 01-5.492 1.894c.719-1.815 1.442-3.626 2.158-5.418l.902-2.257a893.879 893.879 0 005.867-2.329zm10.559-4.332a674.461 674.461 0 006.06-2.58c-1.149 2.812-2.5 5.869-3.975 9.09-2.01.781-3.978 1.534-5.867 2.241a370.14 370.14 0 003.782-8.751zm299.55 115.201c-6.946-2.376-12.993-12.571-20.765-26.7-5.707-10.379-12.459-16.606-20.642-19.036-9.296-2.762-19.349-1.152-29.071.407-6.867 1.101-13.356 2.142-18.879 1.458-2.405-.306-4.648-1.094-6.871-2.409.42-4.415.322-8.841-.399-13.257.111.084.211.174.322.257 3.711 2.735 7.228 4.231 11.067 4.707 5.577.677 11.893-.188 18.577-1.108 9.709-1.333 19.746-2.712 28.6.484 7.376 2.664 13.371 9.066 18.323 19.573l1.882 4.014c6.214 13.273 10.702 22.865 16.505 25.806.428 1.923.881 3.86 1.351 5.804zm25.638 24.349c-1.508.416-3.019.816-4.531 1.192l-1.77-4.084c1.488-.238 2.974-.492 4.451-.761a317.6 317.6 0 011.85 3.653zm-.557-3.887c1.418-.266 2.83-.539 4.236-.814a158.799 158.799 0 011.866 3.11c-1.434.425-2.871.84-4.316 1.245a332.786 332.786 0 00-1.786-3.541zm-6.393-.501l-1.77-4.068c1.412-.074 2.819-.164 4.221-.262.63 1.183 1.261 2.379 1.894 3.595-1.447.26-2.894.506-4.345.735zm-1.232.199c-1.507.224-3.016.42-4.523.596a609.615 609.615 0 01-1.7-4.662 146.05 146.05 0 004.392-.143l1.831 4.209zm-6.768-5.593a559.904 559.904 0 01-1.675-4.749c1.375.149 2.746.284 4.117.4.611 1.402 1.216 2.796 1.841 4.227-1.428.059-2.856.105-4.283.122zm-1.233 0a97.316 97.316 0 01-4.425-.084 329.876 329.876 0 01-1.533-5.406c1.409.224 2.819.425 4.234.592a548.054 548.054 0 001.724 4.898zm-6.384-7.067a322.983 322.983 0 01-1.424-5.476c1.29.395 2.585.769 3.885 1.121a511.105 511.105 0 001.671 4.965 101.76 101.76 0 01-4.132-.61zm-1.204-.195c-.299-.054-.6-.091-.897-.147-8.171-1.576-15.248-10.481-24.025-24.341-6.271-9.905-13.524-15.722-22.172-17.78-9.417-2.238-19.333-.418-28.92 1.342-7.132 1.31-13.868 2.548-19.499 1.834a15.678 15.678 0 01-5.151-1.593c1.108-3.758 1.933-7.54 2.398-11.329 2.209 1.222 4.456 1.962 6.863 2.267 5.727.711 12.314-.344 19.286-1.462 9.563-1.534 19.451-3.12 28.432-.45 7.804 2.32 14.275 8.32 19.792 18.35 8.231 14.964 14.191 24.958 21.703 27.423.24.079.483.146.725.222.466 1.88.957 3.769 1.465 5.664zm-100.719-68.62c.974 4.604 1.204 9.234.846 13.868a27.516 27.516 0 01-1.612-1.248c-.207-.175-.391-.359-.592-.538.606-4.304.798-8.621.422-12.934.312.284.612.576.936.852zm.693 15.52c-.41 3.82-1.204 7.64-2.301 11.445a22.224 22.224 0 01-2.719-2.115c1.157-3.669 2.085-7.363 2.705-11.07a28.383 28.383 0 002.315 1.74zm-1.906-18.527a49.702 49.702 0 00-.624-3.684 62.358 62.358 0 011.27 4.285c-.214-.202-.438-.395-.646-.601zm-3.271-3.616a51.586 51.586 0 00-.815-5.981 66.491 66.491 0 011.051 3.452c.352 1.275.624 2.556.861 3.837a47.13 47.13 0 01-1.097-1.308zm-9.849-18.651a68.962 68.962 0 00-.383-2.582l.198.166c.241.881.487 1.764.683 2.65-.137-.063-.27-.137-.406-.198-.03-.013-.062-.023-.092-.036zm-3.043-7.006c-.064-.393-.146-.785-.218-1.177.163.59.286 1.186.43 1.781l-.002-.002c-.072-.201-.139-.403-.21-.602zm5.405 8.116c.016.048.028.097.044.145-.006-.006-.013-.008-.018-.012l-.026-.133zm-4.122-12.704a47.069 47.069 0 00-3.202-5.846 52.33 52.33 0 00-2.955-5.519c-.142-.308-.262-.616-.411-.922a62.08 62.08 0 00-1.253-2.433c-1.899-5.254-4.029-10.515-6.656-15.711 2.861 5.436 5.409 10.917 7.9 16.32 2.548 5.53 5.055 10.952 7.823 16.08a41.478 41.478 0 00-1.246-1.969zm-22.717-43.888c-13.117-17.713-30.511-23.153-51.696-16.174-13.839 4.558-29.708 12.658-46.509 21.23-6.44 3.285-13.097 6.683-19.753 9.933-11.447 5.591-21.708 10.166-30.919 13.997 1.575-3.54 2.857-6.713 3.729-9.418a708.082 708.082 0 0024.392-11.597c5.241-2.613 10.45-5.279 15.596-7.909 18.082-9.248 35.162-17.985 49.845-22.626 19.7-6.229 36.602-1.009 50.233 15.524 3.187 3.861 5.931 7.848 8.426 11.891a86.25 86.25 0 00-3.344-4.851zm3.746 5.495c.243.396.498.788.732 1.186a82.396 82.396 0 00-.732-1.186zm-2.97-1.99c-12.017-14.838-28.28-18.902-48.447-12.002-13.061 4.47-27.91 12.054-43.631 20.085-7.57 3.866-15.398 7.866-23.252 11.625-15.358 7.353-28.418 12.765-39.575 16.887a374.784 374.784 0 004.416-9.26c9.581-3.95 20.32-8.712 32.368-14.596 6.666-3.257 13.33-6.657 19.773-9.945 16.752-8.549 32.575-16.624 46.313-21.149 20.552-6.769 37.422-1.484 50.138 15.678a82.206 82.206 0 011.897 2.677zm-152.171 26.523a555.227 555.227 0 01-5.983 2.409c1.492-3.297 2.822-6.376 3.925-9.177a645.44 645.44 0 005.977-2.637c-.983 2.74-2.327 5.917-3.919 9.405zm-6.814 4.228a487.936 487.936 0 005.956-2.371 460.378 460.378 0 01-4.404 9.14c-1.948.704-3.83 1.366-5.659 1.993a763.995 763.995 0 004.107-8.762zm.628 8.632c-1.078 2.172-2.18 4.381-3.298 6.612l-.943 1.885c-1.798.55-3.532 1.062-5.207 1.539.958-2.026 1.921-4.044 2.871-6.039.33-.687.653-1.366.976-2.046a381.379 381.379 0 005.601-1.951zm-1.633 7.445c1.433-2.866 2.83-5.66 4.164-8.36 11.501-4.196 25.055-9.77 41.119-17.458 7.869-3.77 15.705-7.772 23.285-11.645 15.673-8.005 30.479-15.567 43.441-20.004 21.15-7.236 37.252-2.427 49.195 14.638-11.199-12.47-26.211-15.21-45.635-8.324-12.407 4.399-26.406 11.574-41.226 19.169-8.546 4.382-17.386 8.912-26.283 13.09-19.577 9.197-35.403 15.145-48.204 19.183.047-.097.095-.194.144-.289zm48.693-17.548c8.92-4.189 17.769-8.724 26.328-13.111 14.775-7.573 28.731-14.727 41.047-19.092 20.851-7.391 36.434-3.366 47.528 12.292-10.61-10.984-25.116-12.94-44-6.017-11.854 4.343-25.134 11.184-39.195 18.428-9.402 4.844-19.123 9.852-28.939 14.378-24.354 11.23-42.599 17.301-56.51 20.815a1307.67 1307.67 0 013.978-8.007c13.09-4.058 29.409-10.124 49.763-19.686zm130.186 14.855c.034.183.072.368.103.551-.01-.004-.018-.009-.028-.011l-.075-.54zm5.733 10.382c.083.48.19.955.261 1.433a94.426 94.426 0 01-.728-1.69c.157.083.311.172.467.257zm4.672 4.121c.177.524.352 1.053.523 1.596.791 2.559 1.326 5.131 1.679 7.71a54.43 54.43 0 01-1.249-1.862 54.94 54.94 0 00-.953-7.444zm2.481 12.035c.354 4.305.179 8.626-.417 12.937a40.491 40.491 0 01-1.89-2.77c.627-4.004.958-8.03.898-12.058.455.64.925 1.271 1.409 1.891zm1.945 2.334c.414.464.852.913 1.288 1.365.591 4.468.556 8.955.013 13.44a37.66 37.66 0 01-2.123-2.291c.674-4.159.976-8.338.822-12.514zm1.086 16.574c-.552 3.706-1.443 7.405-2.563 11.088a32.272 32.272 0 01-2.339-2.663 94.68 94.68 0 002.656-10.702 38.836 38.836 0 002.246 2.277zm2.843 17.053c1.721.841 3.5 1.376 5.402 1.622 5.86.741 12.708-.515 19.956-1.846 9.437-1.733 19.196-3.524 28.307-1.36 8.254 1.965 15.207 7.569 21.26 17.129 8.988 14.193 16.305 23.328 25 25.006.529.101 1.065.169 1.598.26a335.115 335.115 0 001.564 5.533c-.678-.04-1.355-.075-2.028-.134-8.586-.735-16.457-7.092-27.172-21.945-6.814-9.444-14.567-14.852-23.701-16.518-9.532-1.742-19.771.38-28.805 2.249-7.384 1.53-14.36 2.975-20.078 2.235a14.367 14.367 0 01-5.259-1.749c1.514-3.468 2.852-6.965 3.956-10.482zm104.72 47.963c1.504.059 3.009.08 4.516.071.565 1.574 1.15 3.173 1.743 4.779a96.636 96.636 0 01-4.66.382 338.966 338.966 0 01-1.599-5.232zm6.822 6.38a649.874 649.874 0 001.763 4.676c-1.609.31-3.221.583-4.834.813a366.879 366.879 0 01-1.66-5.085c1.578-.096 3.155-.234 4.731-.404zm1.196-.126c1.537-.183 3.071-.394 4.604-.63.598 1.373 1.205 2.778 1.806 4.17-1.56.375-3.122.719-4.685 1.036a551.585 551.585 0 01-1.725-4.576zm7.068 5.059l1.774 4.114c-1.593.505-3.19.979-4.793 1.425-.586-1.502-1.171-3-1.737-4.477 1.587-.328 3.173-.678 4.756-1.062zm1.191-.292c1.543-.387 3.082-.795 4.618-1.22a310.233 310.233 0 011.781 3.679 194.56 194.56 0 01-4.658 1.583c-.585-1.359-1.164-2.705-1.741-4.042zm5.848-1.567c1.477-.417 2.949-.843 4.417-1.281a152.907 152.907 0 011.804 3.228 287.64 287.64 0 01-4.475 1.662 372.796 372.796 0 00-1.746-3.609zm11.692-.178a460.222 460.222 0 01-4.24 1.657c-.58-1.074-1.165-2.11-1.753-3.139 1.402-.422 2.8-.845 4.192-1.272a90.418 90.418 0 011.801 2.754zm6.388-.753a60.962 60.962 0 011.704 2.49 720.9 720.9 0 01-4.254 2.047 95.61 95.61 0 00-1.654-2.853c1.117-.447 2.237-.892 3.329-1.331l.875-.353zm8.038 1.323a45.65 45.65 0 011.555 2.333c-1.383.779-2.778 1.566-4.19 2.355a66.27 66.27 0 00-1.535-2.659c.609-.297 1.223-.594 1.826-.89.789-.383 1.567-.763 2.344-1.139zm7.844.812a36.65 36.65 0 011.411 2.242c-1.371.873-2.755 1.752-4.153 2.636a51.417 51.417 0 00-1.377-2.553c.212-.122.428-.242.639-.363 1.172-.663 2.33-1.315 3.48-1.962zm.695 73.931c.03.196.055.385.084.578l-.591 1.507-.195-.715c.236-.456.469-.913.702-1.37zm-1.315-.895l-.248-.909 1.045-1.669.117.788c-.304.598-.609 1.194-.914 1.79zm12.37-34.446c-.661.597-1.328 1.201-1.996 1.802.774-11.598-.211-22.897-4.278-33.07 1.402-.98 2.787-1.953 4.147-2.909 4.302 10.057 4.356 21.85 2.127 34.177zm-4.263 9.585c-.518.57-1.038 1.141-1.563 1.712.003-.147.002-.295.004-.444.537-.524 1.066-1.047 1.596-1.569-.014.1-.023.201-.037.301zm1.74-1.984c.185-.182.368-.364.554-.544-.186.205-.374.413-.563.618.004-.023.006-.049.009-.074zm-3.291.702a51.811 51.811 0 00-.006-.559c.662-.593 1.318-1.185 1.972-1.771l-.043.431c-.638.632-1.279 1.263-1.923 1.899zm-1.438 1.413c-.721.709-1.443 1.42-2.168 2.131-.028-.263-.06-.527-.086-.788.753-.679 1.506-1.357 2.252-2.026.001.227.003.456.002.683zm-.029 2.572c-.004.206-.013.41-.017.616-.612.666-1.223 1.332-1.841 2.002-.02-.247-.038-.49-.06-.737.643-.629 1.28-1.256 1.918-1.881zm-.101 3.32l-.022.505a741.32 741.32 0 01-1.482 1.811c-.015-.208-.037-.418-.052-.628.519-.565 1.039-1.128 1.556-1.688zm-.164 3.396c-.008.108-.013.215-.021.322-.375.53-.754 1.061-1.132 1.589-.011-.157-.019-.317-.03-.476l1.183-1.435zm1.656-4.753l.005-.274c.399-.432.798-.864 1.192-1.295a2.148 2.148 0 00-.015.112c-.391.484-.788.972-1.182 1.457zm5.275-11.098c-.536.535-1.076 1.071-1.618 1.608.01-.088.02-.178.028-.267l1.614-1.455-.024.114zm-2.985.094l-2.263 2.035c-.295-11.241-1.941-22.374-5.897-32.739a720.586 720.586 0 004.235-2.933c4.04 10.301 4.87 21.817 3.925 33.637zm-3.675 3.303c-.347.314-.694.625-1.045.94l-1.436 1.292c-1.283-10.956-3.546-21.982-7.505-32.496a537.648 537.648 0 004.279-2.903c3.94 10.474 5.508 21.767 5.707 33.167zm-10.695-32.031c-.412-1.04-.825-2.08-1.273-3.109 1.452-.9 2.893-1.802 4.319-2.7.088.195.182.379.271.578.341.765.666 1.536.983 2.312a582.35 582.35 0 01-4.3 2.919zm-7.585-1.378c-.479-1.099-.976-2.143-1.471-3.188a525.023 525.023 0 004.416-2.433c.488.95.96 1.942 1.427 2.955a506.916 506.916 0 01-4.372 2.666zm5.108-.991a93.445 93.445 0 011.293 3.159c-1.427.952-2.87 1.899-4.326 2.841-.439-1.113-.903-2.215-1.367-3.319a431.519 431.519 0 004.4-2.681zm1.989 4.931c3.959 10.618 6.184 21.772 7.423 32.849l-2.621 2.361c-2.206-10.727-5.106-21.708-9.152-32.359a371.242 371.242 0 004.35-2.851zm7.671 35.128c.03.292.069.589.098.883l-1.906 1.867c-.145.144-.292.287-.44.431-.063-.326-.132-.654-.195-.98.815-.736 1.635-1.473 2.443-2.201zm-.539 4.046l.832-.815c.025.287.047.572.071.858-.673.728-1.348 1.459-2.027 2.191a107.18 107.18 0 00-.176-.958l1.3-1.276zm1.095 2.439c.018.27.029.538.047.806l-1.704 2.067-.16-.91 1.817-1.963zm.199 3.326c.014.233.03.465.041.697-.457.637-.914 1.273-1.373 1.908-.047-.274-.096-.55-.142-.824.492-.593.986-1.187 1.474-1.781zm.169 3.385l.022.564c-.343.56-.683 1.12-1.028 1.681-.04-.236-.076-.468-.113-.702.373-.513.747-1.027 1.119-1.543zm-2.092 3.996c-.414.665-.828 1.331-1.245 1.997-.092-.345-.185-.68-.278-1.026l1.377-1.885c.047.306.097.611.146.914zm1.478.702c.252-.405.502-.81.752-1.215.003.105.004.208.009.313l-.688 1.379c-.026-.16-.048-.316-.073-.477zm1.936-6.533c.255-.355.511-.709.764-1.063l-.005.068c-.248.414-.499.828-.751 1.243a10.435 10.435 0 00-.008-.248zm10.39-25.243c1.945-12.009 1.639-23.497-2.692-33.406a2709.6 2709.6 0 014.081-2.864c.072.147.15.283.22.432 4.59 9.716 3.826 21.52.222 34.173-.606.553-1.215 1.108-1.831 1.665zm-8.865-31.344c-.085-.193-.16-.389-.247-.579a43.895 43.895 0 00-.952-1.955c1.386-.884 2.751-1.749 4.101-2.606a30.79 30.79 0 011.207 2.253c-1.348.949-2.722 1.915-4.109 2.887zm-1.602.038c.126.276.235.557.356.834-1.381.963-2.78 1.936-4.196 2.912a66.854 66.854 0 00-.881-2.069c-.115-.262-.238-.509-.359-.765 1.423-.9 2.832-1.796 4.224-2.683.295.574.58 1.164.856 1.771zm-7.096.041a592.152 592.152 0 01-4.276 2.676 72.138 72.138 0 00-1.403-2.894 983.275 983.275 0 004.266-2.401c.486.843.958 1.711 1.413 2.619zm-7.726-1.104c-1.436.8-2.884 1.599-4.346 2.396a100.529 100.529 0 00-1.569-3.029 694.362 694.362 0 004.343-2.093c.536.88 1.058 1.787 1.572 2.726zm-7.966-1.565a344.088 344.088 0 01-4.388 2.048 167.332 167.332 0 00-1.684-3.263 600.97 600.97 0 004.373-1.712c.576.946 1.139 1.93 1.699 2.927zm-7.299-.748a152.064 152.064 0 011.724 3.335c-1.51.684-3.031 1.358-4.562 2.016a355.797 355.797 0 00-1.702-3.658 277.782 277.782 0 004.54-1.693zm2.472 4.885a153.44 153.44 0 011.632 3.436 248.981 248.981 0 01-4.594 2.299 322.035 322.035 0 00-1.645-3.699 236.779 236.779 0 004.607-2.036zm1.187-.538c1.504-.69 2.995-1.388 4.471-2.087a98.828 98.828 0 011.602 3.089 324.877 324.877 0 01-4.47 2.369 174.928 174.928 0 00-1.603-3.371zm6.831 2.601c.5 1.059 1.005 2.116 1.489 3.228l.006.015a313.098 313.098 0 01-4.486 2.618c-.122-.292-.235-.586-.359-.878-.381-.888-.77-1.731-1.158-2.595a341.893 341.893 0 004.508-2.388zm2.196 4.935a169.06 169.06 0 011.381 3.371c-1.464.939-2.94 1.869-4.427 2.786-.472-1.181-.959-2.36-1.448-3.537a310.2 310.2 0 004.494-2.62zm2.053 5.154c4.059 10.744 6.95 21.835 9.146 32.657-.912.822-1.827 1.647-2.743 2.478-3.075-10.581-6.553-21.523-10.791-32.381a298.081 298.081 0 004.388-2.754zm9.57 34.778c.069.352.144.707.212 1.058-.827.81-1.653 1.623-2.479 2.434l-.33-1.146c.868-.785 1.735-1.569 2.597-2.346zm-.2 7.947c.466-.505.932-1.005 1.397-1.507.06.347.116.689.178 1.036-.627.753-1.253 1.509-1.883 2.267-.105-.377-.207-.751-.313-1.128.207-.223.414-.447.621-.668zm1.956 1.763l.165.983c-.523.719-1.045 1.438-1.568 2.154-.099-.358-.204-.724-.303-1.085.572-.685 1.138-1.37 1.706-2.052zm-1.821 6.545l.322 1.186c-.469.744-.937 1.49-1.407 2.234l-.491-1.272 1.576-2.148zm.902 3.32c.1.374.205.758.306 1.129-.361.699-.724 1.397-1.087 2.095-.159-.404-.317-.82-.477-1.229.421-.665.84-1.329 1.258-1.995zm.917 3.383l.278 1.023-.761 1.899c-.15-.375-.299-.755-.447-1.135.309-.595.621-1.19.93-1.787zm.946 3.481c.079.287.156.577.235.863-.151.539-.299 1.076-.45 1.612-.131-.325-.262-.642-.393-.97l.608-1.505zm1.001 3.653c.05.188.104.38.156.567l-.177 1.197c-.093-.227-.187-.465-.281-.692.1-.357.2-.716.302-1.072zm-.197-5.657c.12-.301.242-.605.361-.909l.037.243c-.098.357-.193.713-.289 1.067a18.232 18.232 0 01-.109-.401zm.894-6.617l.205-.406c-.063.167-.129.331-.192.497l-.013-.091zm19.491-73.055c4.413 9.142 2.733 20.567-2.196 33.135-.48.44-.968.887-1.456 1.332 3.12-12.083 3.529-23.387-.955-32.876-.108-.233-.227-.447-.34-.671 1.34-.934 2.652-1.838 3.949-2.722.352.567.687 1.16.998 1.802zm-7.148.188c-1.305.914-2.631 1.844-3.982 2.793a32.65 32.65 0 00-1.18-2.18 463.772 463.772 0 013.951-2.468c.424.578.825 1.202 1.211 1.855zm-7.429-.098c-1.312.83-2.639 1.674-3.997 2.538a37.853 37.853 0 00-1.359-2.176c1.336-.75 2.661-1.488 3.957-2.202.481.583.95 1.187 1.399 1.84zm-7.704-.347c-1.088.612-2.192 1.235-3.311 1.87l-.679.381a46.623 46.623 0 00-1.495-2.262 571.332 571.332 0 013.936-1.891c.533.6 1.046 1.24 1.549 1.902zm-7.859-.772c-.677.331-1.359.664-2.045.997l-1.989.967a60.265 60.265 0 00-1.647-2.404 676.276 676.276 0 013.98-1.58 40.08 40.08 0 011.701 2.02zm-8.016-1.308l-.467.188c-1.185.475-2.396.961-3.61 1.443-.568-.901-1.134-1.803-1.718-2.66 1.347-.41 2.678-.818 3.997-1.215.611.72 1.209 1.474 1.798 2.244zm-6.729-2.444l-.062.02c-.586-.825-1.17-1.648-1.768-2.432 1.248-.242 2.482-.477 3.701-.702a56.961 56.961 0 011.88 1.97c-1.238.376-2.49.759-3.751 1.144zm-1.43.436c-1.336.408-2.679.813-4.025 1.217a164.768 164.768 0 00-1.793-2.996l1.505-.297 2.42-.48a88.669 88.669 0 011.893 2.556zm-4.621-3.627l-2.099.416c-.6-.952-1.202-1.901-1.808-2.818 1.204-.09 2.398-.178 3.579-.259a86.95 86.95 0 011.955 2.339l-1.627.322zm-3.475.687c-1.353.264-2.713.525-4.078.778a313.603 313.603 0 00-1.815-3.459c1.233-.088 2.464-.181 3.688-.274.09-.008.181-.014.273-.021.648.969 1.293 1.966 1.932 2.976zm-6.68-4.165a332.941 332.941 0 00-1.812-3.325c.185.011.374.026.558.037 1.018.068 2.031.136 3.041.208.657.917 1.314 1.853 1.967 2.806-1.246.093-2.497.186-3.754.274zm-1.375.098c-1.359.09-2.721.169-4.086.236l-.123-.285-1.639-3.768c1.314.103 2.62.2 3.922.29a358.404 358.404 0 011.926 3.527zm-7.891-5.484a148.627 148.627 0 01-3.975-.408 505.85 505.85 0 01-1.609-4.746c1.256.328 2.51.644 3.763.951.602 1.391 1.203 2.783 1.821 4.203zm-6.115-6.793a446.645 446.645 0 01-1.527-4.731c1.109.508 2.207.997 3.307 1.49.591 1.375 1.185 2.762 1.792 4.165-1.19-.296-2.381-.605-3.572-.924zm-1.343-.367c-1.259-.35-2.51-.723-3.758-1.115a310.3 310.3 0 01-1.309-5.58c1.148.567 2.3 1.124 3.459 1.663a453.411 453.411 0 001.608 5.032zm-5.458-8.429c-.412-1.87-.794-3.727-1.162-5.575.978.727 1.961 1.449 2.946 2.163a384.76 384.76 0 001.502 4.989c-1.101-.52-2.202-1.033-3.286-1.577zm-1.3-.75c-4.935-3.4-9.348-12.814-14.832-24.53l-1.885-4.016c-5.117-10.855-11.368-17.492-19.112-20.29-9.174-3.314-19.385-1.91-29.262-.554-6.593.906-12.821 1.762-18.217 1.106-3.591-.445-6.897-1.859-10.409-4.447-.534-.392-1.033-.81-1.54-1.22-.1-.473-.193-.947-.305-1.419-1.665-6.873-3.987-12.287-7.004-16.331-1.103-2.452-2.34-4.617-3.715-6.505-1.06-2.313-2.229-4.384-3.514-6.218a49 49 0 00-.912-1.879c5.16 9.116 11.336 17.167 20.401 23.002 3.816 2.455 7.352 3.811 11.126 4.27 5.409.644 11.444-.05 17.833-.783 9.874-1.133 20.085-2.305 28.804 1.446 6.982 3.006 12.494 9.806 16.857 20.801 1.372 3.454 2.628 6.789 3.809 9.923 3.846 10.211 6.935 18.388 10.668 21.766.378 1.946.783 3.906 1.209 5.878zm-281.63-120.774c-.062 1.363-.482 3.152-1.153 5.248-2.005.904-3.98 1.784-5.894 2.624 1.325-3.56 2.206-6.595 2.488-8.972 1.493-.705 3.009-1.427 4.548-2.163a34.32 34.32 0 01.011 3.263zm-4.437-2.596c.167-2.945.003-5.526-.477-7.787.9-.453 1.814-.913 2.727-1.376 1.087 1.972 1.783 4.315 2.067 7.103a777.588 777.588 0 01-4.317 2.06zm-.786-9.037c-.67-2.406-1.727-4.43-3.14-6.14 2.301 1.272 4.145 2.888 5.521 4.94-.796.401-1.594.807-2.381 1.2zm-1.681.846c-1.252.626-2.491 1.247-3.717 1.857-.108-2.774-.595-5.166-1.422-7.244l1.777-.945c1.558 1.72 2.69 3.8 3.362 6.332zm-5.47 2.734c-1.606.797-3.195 1.587-4.753 2.357.373-2.941.419-5.544.17-7.863l3.305-1.758c.802 2.061 1.237 4.459 1.278 7.264zm-4.75-6.786c-.398-2.452-1.148-4.571-2.23-6.411.646.113 1.281.233 1.897.362a14.653 14.653 0 013.323 4.458l-2.99 1.591zm-15.083-9.68c-1.157-.081-2.33-.156-3.53-.226-.07-.343-.141-.683-.222-1.015 1.158.137 2.293.28 3.393.428.125.267.245.537.359.813zm-4.325-3.133c-.089-.255-.175-.515-.272-.766.957.186 1.885.376 2.792.572.124.179.241.364.36.547-.943-.122-1.9-.238-2.88-.353zm-1.748-.195a425.382 425.382 0 00-3.523-.374 22.807 22.807 0 00-.242-1.133c1.151.194 2.278.388 3.373.587.136.302.271.607.392.92zm-4.311-3.39c-.099-.296-.196-.594-.305-.884.946.237 1.87.476 2.769.719.142.215.279.436.41.656a368.12 368.12 0 00-2.874-.491zm-1.696-.278c-1.11-.18-2.248-.36-3.398-.542a26.302 26.302 0 00-.25-1.273c1.104.256 2.178.51 3.23.762.15.346.288.697.418 1.053zm-4.136-3.694c-.1-.344-.207-.687-.32-1.024a228 228 0 012.596.864c.159.263.313.529.46.797a517.62 517.62 0 00-2.736-.637zm-1.74-.4l-1.526-.349c-.588-.131-1.193-.272-1.789-.408a33.68 33.68 0 00-.246-1.454c1.065.335 2.108.664 3.125.988.156.403.3.811.437 1.223zm-3.974-4.095a40.29 40.29 0 00-.322-1.215c.85.36 1.677.717 2.49 1.073.169.323.334.65.49.978-.873-.276-1.757-.556-2.658-.836zm-1.661-.523a926.17 926.17 0 01-3.175-1 44.7 44.7 0 00-.203-1.676c.356.147.72.302 1.07.448.634.267 1.26.53 1.88.789.151.476.295.957.428 1.439zm-1.678-3.728l-2.003-.843c-.085-.481-.177-.96-.275-1.436a698.4 698.4 0 012.308 1.295c.169.398.33.799.485 1.2l-.516-.216zm-3.575-1.507c-.953-.402-1.919-.815-2.897-1.236a72.65 72.65 0 00-.099-1.927c.89.499 1.767.986 2.63 1.466.131.565.253 1.131.366 1.697zm-3.148-5.063a84.747 84.747 0 00-.173-1.674l.11.081 1.886 1.393c.15.486.29.971.424 1.458-.74-.411-1.489-.832-2.247-1.258zm-1.454-.818c-.859-.488-1.733-.991-2.613-1.504.029-.731.032-1.467.047-2.2.79.589 1.566 1.165 2.331 1.73a81.7 81.7 0 01.235 1.974zm-3.989-.472c-.044.834-.09 1.666-.154 2.501a216.781 216.781 0 01-3.346-1.584c.17-.905.323-1.811.476-2.714 1.021.618 2.03 1.216 3.024 1.797zm-.31 4.219c-.08.859-.165 1.716-.268 2.578a206.235 206.235 0 01-3.818-1.435c.203-.934.384-1.864.569-2.795a206.77 206.77 0 003.517 1.652zm-.497 4.274c-.12.866-.241 1.735-.384 2.608-1.4-.397-2.809-.808-4.238-1.248.232-.951.443-1.896.658-2.843a208.44 208.44 0 003.964 1.483zm-.687 4.315a99.758 99.758 0 01-.501 2.637 200.241 200.241 0 01-4.604-1.069c.26-.954.498-1.903.74-2.852 1.475.453 2.925.876 4.365 1.284zm-.876 4.352c-.196.885-.397 1.773-.62 2.671a237.65 237.65 0 01-4.912-.886c.29-.968.552-1.923.823-2.88 1.59.387 3.157.751 4.71 1.095zm1.272.283c1.574.337 3.117.652 4.645.951a80.069 80.069 0 01-.41 2.394c-1.592-.229-3.205-.48-4.837-.745.214-.875.411-1.74.602-2.6zm3.889 5.128a92.639 92.639 0 01-.548 2.446 302.94 302.94 0 01-5.113-.57c.252-.889.49-1.768.72-2.64 1.667.271 3.316.529 4.94.764zm1.34.187c1.628.227 3.23.44 4.807.635a67.861 67.861 0 01-.357 2.192 337.2 337.2 0 01-4.979-.445c.19-.804.367-1.598.53-2.382zm4.096 4.666c-.4 1.933-.895 3.94-1.5 6.038-.58 2.015-1.177 4.052-1.779 6.101a843.796 843.796 0 00-2.824 9.78 526.726 526.726 0 01-6.427 3.783c1.706-7.033 3.929-14.275 6.025-21.092a110.007 110.007 0 001.431-5.068c1.71.165 3.413.326 5.074.458zm-1.94 12.531c.602-2.051 1.199-4.091 1.78-6.106a84.145 84.145 0 001.568-6.325c1.669.128 3.33.252 4.943.355a65.599 65.599 0 01-1.56 7.411c-.78 2.91-1.648 5.915-2.547 8.992-2.251 1.38-4.457 2.722-6.602 4.016a942.02 942.02 0 012.419-8.343zm3.718 5.926l-.48 1.653c-.57 1.938-1.137 3.887-1.7 5.837-.087.048-.178.102-.265.15a464.7 464.7 0 01-6.014 3.372 281.435 281.435 0 011.875-7.015 896.325 896.325 0 006.584-3.997zm.904 2.059l.927-3.182c2.123-1.304 4.3-2.649 6.53-4.033a328.336 328.336 0 01-2.283 7.918 2470.624 2470.624 0 01-6.463 3.702c.428-1.472.857-2.942 1.289-4.405zm4.688 2.321a1247.44 1247.44 0 01-1.202 3.955c-.362 1.186-.725 2.376-1.087 3.569l-3.814 2.021c-.765.406-1.537.812-2.31 1.216a391.387 391.387 0 011.975-7.076c2.081-1.185 4.231-2.417 6.438-3.685zm.221 4.389a1219.87 1219.87 0 001.656-5.466c2.088-1.201 4.239-2.439 6.427-3.702a276.87 276.87 0 01-2.423 7.972c-2.158 1.146-4.265 2.261-6.315 3.347l.655-2.151zm5.043 5.732c.694-2.142 1.374-4.246 2.031-6.309 2.059-1.09 4.17-2.211 6.327-3.354a315.106 315.106 0 01-2.646 8.044l-2.645 1.278-3.505 1.691c.147-.449.291-.901.438-1.35zm3.612.791c.5-.244 1.016-.493 1.526-.738a2142.57 2142.57 0 01-1.537 4.432c-.362 1.042-.725 2.095-1.09 3.147-1.992.862-3.903 1.691-5.74 2.493a547.667 547.667 0 012.255-7.121l4.586-2.213zm1.483 4.212c.697-2.003 1.382-3.976 2.046-5.917l6.212-3.002a407.607 407.607 0 01-2.92 8.107c-2.064.898-4.047 1.76-5.955 2.586l.617-1.774zm4.712.881l-1.13 3.031c-.564 1.504-1.13 3.023-1.693 4.546-1.37.525-2.717 1.041-4.012 1.534l-1.494.572c.784-2.366 1.6-4.746 2.421-7.119 1.889-.819 3.86-1.672 5.907-2.564zm.394 3.6c.566-1.517 1.126-3.016 1.676-4.504a1372.36 1372.36 0 006.065-2.661 656.744 656.744 0 01-3.197 8.139 1154.67 1154.67 0 01-5.737 2.225c.4-1.069.798-2.14 1.193-3.199zm3.859 2.69l-.322.803c-.89 2.223-1.787 4.479-2.676 6.736a1132.44 1132.44 0 01-5.241 1.74 498.1 498.1 0 012.56-7.085c1.827-.701 3.715-1.428 5.679-2.194zm-3.668 9.234c-.9 2.308-1.773 4.604-2.612 6.877-1.637.448-3.198.868-4.688 1.269.104-.322.203-.644.309-.968a222.96 222.96 0 011.834-5.474c1.64-.536 3.353-1.104 5.157-1.704zm2.074-.696a582.824 582.824 0 005.422-1.854 892.124 892.124 0 00-3.15 7.477c-1.73.499-3.385.964-4.972 1.404.87-2.326 1.774-4.672 2.7-7.027zm7.618-2.62a504.171 504.171 0 005.638-2.026c-.645 1.437-1.299 2.883-1.958 4.343-.555 1.226-1.116 2.481-1.675 3.724a383.056 383.056 0 01-5.232 1.583c1.068-2.555 2.153-5.106 3.227-7.624zm3.469 7.093a377.658 377.658 0 005.384-1.737c-.073.157-.148.31-.222.466-1.174 2.463-2.36 4.96-3.541 7.465-1.716.472-3.371.912-4.955 1.316a746.267 746.267 0 013.334-7.51zm.792 7.966c-.563 1.199-1.13 2.399-1.683 3.597-.565 1.22-1.123 2.44-1.677 3.656-1.543.315-3.024.601-4.438.855a531.859 531.859 0 012.535-5.98c.122-.283.254-.572.378-.857a286.14 286.14 0 004.885-1.271zm-.035 4.357c.765-1.662 1.55-3.326 2.333-4.99 1.648-.459 3.358-.956 5.127-1.488-1.308 2.62-2.61 5.24-3.885 7.84-1.626.391-3.189.746-4.692 1.069.369-.807.741-1.617 1.117-2.431zm2.7 3.15a511.77 511.77 0 00-3.397 7.1c-1.451.24-2.839.447-4.162.628a351.24 351.24 0 012.951-6.704c1.475-.31 3.014-.65 4.608-1.024zm2.351-.565c14.137-3.482 32.842-9.608 58.038-21.227 9.847-4.541 19.584-9.557 29-14.407 14.015-7.222 27.255-14.041 39.018-18.353 20.89-7.656 35.735-4.417 46.198 10.236-10.103-9.843-24-11.068-42.7-4.001-11.374 4.301-24.036 10.867-37.445 17.818-10.164 5.27-20.673 10.719-31.309 15.538-29.458 13.348-49.882 19.081-64.297 21.673a572.38 572.38 0 013.497-7.277zm61.451-12.955c10.677-4.838 21.204-10.298 31.387-15.575 13.366-6.929 25.989-13.474 37.274-17.742 20.84-7.878 35.466-5.096 45.386 8.818-9.768-9.038-23.443-9.813-41.919-2.62-10.951 4.265-23.079 10.598-35.919 17.304-10.852 5.668-22.076 11.529-33.461 16.599-35.007 15.594-57.365 20.404-71.471 21.742a312.04 312.04 0 012.957-6.543c14.573-2.514 35.413-8.23 65.766-21.983zm123.704.939l.011.004c.03.015.062.034.093.049.187 1.298.338 2.595.458 3.891l-.191-.044c-.102-1.298-.22-2.596-.371-3.9zm6.106 13.488c.282 3.94.18 7.888-.198 11.82a71.995 71.995 0 01-1.209-3.436c.298-3.568.416-7.162.271-10.762.366.801.747 1.593 1.136 2.378zm1.839 3.491c.431.764.876 1.517 1.337 2.258.261 4.134.07 8.279-.463 12.413a49.834 49.834 0 01-1.569-3.157c.497-3.819.757-7.664.695-11.514zm.561 16.976c-.531 3.364-1.285 6.713-2.17 10.037a44.025 44.025 0 01-1.35-3.451 127.505 127.505 0 001.892-9.546 48.145 48.145 0 001.628 2.96zm1.368 2.165a41.106 41.106 0 001.986 2.68c-.591 3.556-1.461 7.099-2.503 10.621a34.1 34.1 0 01-1.867-3.071 108.93 108.93 0 002.384-10.23zm-1.05 15.116c-.985 3.134-2.121 6.245-3.333 9.325a32.125 32.125 0 01-1.518-3.289 188.36 188.36 0 002.946-8.988 35.126 35.126 0 001.905 2.952zm1.306 1.677c.741.9 1.527 1.775 2.383 2.613a120.198 120.198 0 01-3.708 9.891c-.792-.943-1.535-1.908-2.184-2.918a149.7 149.7 0 003.509-9.586zm-2.01 14.063a200.268 200.268 0 01-4.199 8.949 25.727 25.727 0 01-1.717-3.121 289.379 289.379 0 003.744-8.618 29 29 0 002.172 2.79zm1.348 1.445c.908.895 1.83 1.678 2.775 2.339a160.955 160.955 0 01-4.695 9.553 22.319 22.319 0 01-1.936-2.06c-.178-.215-.324-.443-.494-.66 1.52-3.022 2.98-6.081 4.35-9.172zm-5.076 10.838a23.328 23.328 0 002.384 2.504 287.94 287.94 0 01-4.92 8.701c-.129-.167-.26-.317-.387-.489a23.255 23.255 0 01-1.532-2.432 468.205 468.205 0 004.388-8.376c.025.03.044.061.067.092zm3.855 3.694c2.118 1.541 4.403 2.456 6.978 2.804 6.075.799 13.415-.892 21.184-2.684 9.244-2.134 18.802-4.337 28.168-3.11 9.216 1.209 17.133 6.014 24.204 14.692 11.361 13.935 21.091 20.144 31.557 20.136a82.268 82.268 0 003.747-.095 366.467 366.467 0 001.686 5.176c-1.522.197-3.046.36-4.567.469-11.382.825-22.033-4.636-33.496-17.167-7.85-8.58-16.598-13.156-26.75-13.997-9.767-.809-19.817 1.747-28.688 3.999-7.855 1.999-15.279 3.885-21.125 3.098-3.093-.424-5.683-1.821-8.015-4.309a299.538 299.538 0 005.117-9.012zm119.173 38.315c1.632-.237 3.262-.517 4.888-.833.577 1.502 1.173 3.03 1.771 4.561-1.648.441-3.294.839-4.941 1.199a347.024 347.024 0 01-1.718-4.927zm7.267 5.296c.583 1.48 1.19 2.988 1.793 4.493a119.913 119.913 0 01-4.993 1.549 367.335 367.335 0 01-1.785-4.823c1.665-.366 3.326-.77 4.985-1.219zm1.129-.308c1.622-.453 3.237-.936 4.845-1.446.588 1.366 1.17 2.723 1.766 4.117a151.063 151.063 0 01-4.842 1.764c-.595-1.484-1.193-2.973-1.769-4.435zm6.004-1.813a188.216 188.216 0 004.717-1.609 331.242 331.242 0 011.739 3.734 185.105 185.105 0 01-4.719 1.926c-.586-1.371-1.16-2.705-1.737-4.051zm7.161 3.695a325.239 325.239 0 011.668 3.76 205.783 205.783 0 01-4.723 2.193c-.568-1.344-1.137-2.695-1.696-4.012a192.178 192.178 0 004.751-1.941zm2.369 5.383c.277.641.554 1.269.829 1.92.264.624.507 1.244.769 1.866a195.568 195.568 0 01-4.665 2.399l-1.024-2.462c-.218-.52-.428-1.011-.645-1.525a188.026 188.026 0 004.736-2.198zm1.986 1.431c-.285-.671-.571-1.319-.855-1.981a236.257 236.257 0 004.615-2.308c.374.836.749 1.649 1.118 2.509.145.336.273.678.416 1.015a260.674 260.674 0 01-4.567 2.532c-.247-.59-.478-1.177-.727-1.767zm5.987.929c.492 1.189.985 2.378 1.46 3.572a244.028 244.028 0 01-4.492 2.681 553.84 553.84 0 00-1.535-3.73 232.992 232.992 0 004.567-2.523zm2.168 5.326c4.263 10.953 7.756 21.994 10.846 32.664-.947.858-1.898 1.721-2.85 2.589l-.562-1.505c-3.784-10.15-7.678-20.572-11.919-31.081a242.823 242.823 0 004.485-2.667zm11.416 34.653c.116.404.235.809.348 1.211-.864.849-1.726 1.7-2.59 2.551-.159-.424-.321-.857-.479-1.285.908-.828 1.816-1.656 2.721-2.477zm.916 3.195c.116.41.227.813.342 1.221-.771.833-1.544 1.669-2.318 2.503l-.484-1.297c.82-.809 1.639-1.62 2.46-2.427zm.897 3.223l.338 1.225-2.023 2.431-.492-1.304c.726-.786 1.452-1.568 2.177-2.352zm-2.607 4.765c-.716.86-1.431 1.72-2.149 2.58-.229-.481-.461-.963-.69-1.451.77-.838 1.54-1.675 2.313-2.511l.526 1.382zm.699 1.847c.176.466.354.938.531 1.399l-1.85 2.512-.714-1.466c.678-.817 1.356-1.63 2.033-2.445zm.029 4.904c.405-.548.81-1.099 1.214-1.649l.538 1.398c-.511.811-1.025 1.62-1.537 2.43-.245-.489-.489-.976-.734-1.472l.519-.707zm2.482 1.639c.181.467.361.92.543 1.382-.405.776-.811 1.549-1.215 2.32-.249-.486-.497-.972-.745-1.463l1.417-2.239zm1.31 3.326l.532 1.353-.885 2.17c-.25-.475-.499-.949-.748-1.429.368-.697.734-1.395 1.101-2.094zm1.359 3.392c.171.427.344.852.517 1.276l-.563 1.977c-.245-.451-.487-.903-.73-1.356l.776-1.897zm1.431 3.499c.158.382.318.753.475 1.131-.086.57-.172 1.133-.26 1.696-.226-.402-.451-.81-.676-1.219l.461-1.608zm1.545 3.669c.126.296.255.577.38.87v.23c-.005.35-.009.686-.012 1.033-.183-.315-.366-.635-.549-.953.06-.392.119-.785.181-1.18zm.412-2.253l-.048-.117.051-.343.002.007-.005.453zm31.166-94.285c4.005 7.901.336 18.725-7.366 31.223-.067.063-.139.13-.208.197 5.173-11.465 7.051-21.77 3.035-29.9a17.542 17.542 0 00-1.985-3.15 161.633 161.633 0 013.521-2.188c1.173.948 2.182 2.198 3.003 3.818zm-7.78-3.038a12.053 12.053 0 00-.97-.851 80.168 80.168 0 012.994-1.482c.344.128.68.271 1.005.433a150.59 150.59 0 00-3.029 1.9zm-1.47.947c-1.145.75-2.323 1.541-3.516 2.349-.356-.472-.72-.923-1.102-1.339a149.628 149.628 0 013.452-1.937c.404.282.794.59 1.166.927zm-5.978-.308c-.342-.295-.69-.572-1.048-.832a83.859 83.859 0 012.937-1.263c.363.126.717.267 1.063.423-.966.532-1.949 1.088-2.952 1.672zm-1.547.909a267.553 267.553 0 00-3.421 2.065c-.397-.468-.811-.9-1.234-1.317a141.804 141.804 0 013.36-1.659c.447.274.876.584 1.295.911zm-6.082-.522a19.633 19.633 0 00-1.146-.858c.936-.36 1.849-.692 2.746-1 .406.135.803.286 1.192.45-.915.449-1.844.918-2.792 1.408zm-1.588.833a283.16 283.16 0 00-3.436 1.844 23.976 23.976 0 00-1.371-1.356 131.14 131.14 0 013.366-1.428c.492.292.976.599 1.441.94zm-6.257-.738a22.302 22.302 0 00-1.282-.93c.953-.3 1.886-.572 2.801-.823.451.162.894.336 1.327.527-.935.392-1.884.8-2.846 1.226zm-1.579.707a258.541 258.541 0 00-3.42 1.579 30.72 30.72 0 00-1.486-1.451c1.137-.41 2.253-.798 3.35-1.164.53.321 1.048.667 1.556 1.036zm-6.368-1.11a33.4 33.4 0 00-1.352-1.018 83.827 83.827 0 012.807-.593c.463.191.919.393 1.367.608-.93.32-1.871.657-2.822 1.003zm-1.69.627a275.65 275.65 0 00-3.328 1.273 39.974 39.974 0 00-1.596-1.594c1.098-.298 2.18-.584 3.247-.848a30.15 30.15 0 011.677 1.169zm-6.354-1.615a38.112 38.112 0 00-1.446-1.189 89.777 89.777 0 012.616-.317c.512.244 1.016.504 1.514.777-.886.231-1.783.476-2.684.729zm-1.705.482a291.96 291.96 0 00-3.399 1 59.759 59.759 0 00-1.691-1.831 149.01 149.01 0 013.3-.546c.606.441 1.203.897 1.79 1.377zm-6.455-2.196a59.654 59.654 0 00-1.55-1.443 95.473 95.473 0 012.713-.038c.545.319 1.085.651 1.619.998-.919.152-1.847.314-2.782.483zm-1.634.303c-1.125.211-2.259.431-3.406.655a89.914 89.914 0 00-1.752-2.154c1.112-.07 2.212-.128 3.298-.174a54.605 54.605 0 011.86 1.673zm-6.416-2.954a91.021 91.021 0 00-1.596-1.762c.909.093 1.809.198 2.705.311.567.418 1.128.844 1.685 1.284-.926.05-1.858.106-2.794.167zm-1.695.115c-1.1.077-2.207.159-3.317.245-.59-.869-1.18-1.731-1.773-2.572 1.054.079 2.102.163 3.142.257a84.062 84.062 0 011.948 2.07zm-6.223-3.903a156.524 156.524 0 00-1.611-2.184c.85.221 1.695.445 2.534.677.587.555 1.169 1.133 1.75 1.709-.888-.069-1.778-.139-2.673-.202zm-1.69-.115c-.604-.042-1.208-.082-1.811-.122-.504-.035-1.015-.073-1.518-.106a358.77 358.77 0 00-1.749-3.115c1.048.251 2.093.503 3.132.761.65.85 1.301 1.704 1.946 2.582zm-6.058-5.058a449.66 449.66 0 00-1.581-2.737c.837.381 1.671.767 2.502 1.157a165.91 165.91 0 011.766 2.223c-.891-.215-1.787-.43-2.687-.643zm-1.671-.398a543.48 543.48 0 01-3.26-.78c-.552-1.276-1.102-2.548-1.64-3.801l.235.107c.931.415 1.859.828 2.784 1.244a579.096 579.096 0 011.881 3.23zm-4.098-5.748c-.532-.237-1.076-.487-1.614-.728-.485-1.132-.977-2.277-1.453-3.392.782.559 1.562 1.121 2.343 1.687.57.948 1.141 1.907 1.713 2.874l-.989-.441zm-3.243-1.461c-1.021-.46-2.031-.921-3.055-1.396a433.885 433.885 0 01-1.393-4.57c.883.634 1.771 1.268 2.639 1.889.036.025.073.05.109.077.557 1.32 1.125 2.653 1.7 4zm-6.614-9.205c-.75-.548-1.503-1.092-2.243-1.645-.159-.119-.318-.263-.475-.4a270.718 270.718 0 01-.968-5.375c.766.846 1.549 1.686 2.323 2.528.437 1.613.889 3.24 1.363 4.892zm-3.092-8.698c-.36-.398-.71-.918-1.053-1.499a239.37 239.37 0 01-.677-4.532 455.65 455.65 0 001.611 2.695c.36 1.462.738 2.942 1.132 4.439-.335-.368-.678-.734-1.013-1.103zm-2.717-5.026c-1.375-3.519-2.722-8.298-4.266-13.798-1.302-4.639-2.779-9.897-4.533-15.268-3.864-11.837-9.111-19.289-16.044-22.791-8.916-4.501-19.511-3.519-29.759-2.57-6.01.557-11.69 1.084-16.774.492-3.549-.422-6.951-1.592-10.706-3.682-16.105-8.964-25.39-24.416-35.216-40.776-6.73-11.211-13.693-22.801-23.333-33.281-14.964-16.28-32.358-21.574-51.667-15.733-15.998 4.842-34.738 14.493-54.577 24.713a2715.242 2715.242 0 01-10.436 5.354 959.38 959.38 0 01-19.293 9.568c-.339-2.761-1.069-5.106-2.149-7.106a1700.122 1700.122 0 0018.624-9.573l3.721-1.942c22.08-11.539 42.937-22.438 60.433-27.483 17.799-5.132 34.773-.003 50.429 15.209 9.339 9.08 17.045 19.358 24.494 29.298 12.539 16.73 24.383 32.53 42.576 41.189 3.926 1.87 7.604 2.982 11.244 3.406 5.018.573 10.462.184 16.225-.225 10.275-.733 20.9-1.491 29.341 3.459 6.265 3.671 10.819 11.28 13.93 23.265 1.837 7.08 3.118 14.005 4.251 20.114.997 5.384 1.852 9.956 2.83 13.216.198 1.632.417 3.28.655 4.945zM123.81 295.176c-.46.245-.916.488-1.375.73a15.695 15.695 0 00-1.752-2.829c.213.059.421.121.63.182a17.097 17.097 0 012.497 1.917zm-36.526-19.629c-.6-.197-1.206-.396-1.82-.593-.091-.216-.188-.429-.283-.642.615.278 1.213.558 1.806.837.101.13.197.264.297.398zm-5.644-4.558c-.585-.249-1.177-.501-1.776-.753a29.726 29.726 0 00-.295-.817c.58.336 1.152.667 1.712.999.122.19.238.38.359.571zm-5.236-5.176l-1.678-.932c-.085-.342-.17-.681-.262-1.021.523.393 1.04.782 1.544 1.166.135.261.265.525.396.787zm2.204 1.239l.008.005a.013.013 0 00-.007-.003v-.002zm-6.853-7.106a4.047 4.047 0 00-.142-.107l-1.297-.956a75.255 75.255 0 00-.189-1.23l1.258 1.258c.126.345.25.688.37 1.035zm1.93 1.312c.124.127.242.254.363.382l-.315-.234a4.242 4.242 0 00-.048-.148zm-4.924-3.522c-.652-.48-1.309-.971-1.977-1.47.003-.644-.016-1.296-.025-1.944l.896.889c.272.267.538.531.807.794.105.579.207 1.155.3 1.731zm-.808-4.325l-1.233-1.221c-.016-.471-.037-.947-.058-1.421.34.464.677.922 1.008 1.377.096.422.194.846.283 1.265zm-2.597-2.572c-.532-.532-1.091-1.104-1.637-1.655.071-.706.142-1.412.206-2.12.258.347.526.711.776 1.051l.546.737c.04.663.08 1.328.11 1.987zm-.295-4.663l-.958-1.297c.039-.513.09-1.023.125-1.538l.703 1.373c.044.488.089.977.13 1.462zm-2.272-.649c-.067.835-.128 1.676-.207 2.505-.619-.628-1.244-1.284-1.874-1.94.192-.875.369-1.768.554-2.652l1.527 2.087zm-.417 4.409c-.099.906-.193 1.815-.306 2.718-.8-.629-1.61-1.275-2.43-1.94.232-.954.452-1.918.671-2.885.7.725 1.382 1.416 2.065 2.107zm-.548 4.46c-.127.93-.25 1.86-.395 2.788a173.11 173.11 0 01-2.947-1.868c.258-.985.507-1.974.755-2.973.873.706 1.734 1.387 2.587 2.053zm-.679 4.47c-.16.955-.314 1.91-.49 2.862a165.718 165.718 0 01-3.436-1.745c.284-1.014.565-2.032.84-3.059 1.04.67 2.068 1.317 3.086 1.942zm-.82 4.512c-.187.966-.373 1.933-.58 2.901a171.958 171.958 0 01-3.89-1.582c.309-1.033.615-2.068.916-3.116 1.197.622 2.385 1.222 3.555 1.797zm-.959 4.555c-.219.968-.433 1.938-.67 2.912a183.308 183.308 0 01-4.296-1.412c.328-1.036.653-2.078.971-3.127 1.346.568 2.68 1.11 3.995 1.627zm-1.099 4.582c-.249.974-.493 1.948-.76 2.931a186.349 186.349 0 01-4.658-1.233 309 309 0 001.028-3.139c1.48.509 2.94.983 4.39 1.441zm-1.243 4.621c-.274.98-.547 1.958-.844 2.945a205.64 205.64 0 01-4.966-1.048c.36-1.042.718-2.096 1.076-3.15 1.593.442 3.17.86 4.734 1.253zm-1.386 4.688c-.303.982-.602 1.964-.923 2.955a212.16 212.16 0 01-5.222-.873c.374-1.043.745-2.098 1.116-3.151 1.692.378 3.368.739 5.03 1.069zm1.242.24c1.684.321 3.352.629 4.999.908-.233.893-.475 1.791-.733 2.702a232.348 232.348 0 01-5.168-.714c.314-.974.605-1.933.902-2.896zm3.733 5.422a148.655 148.655 0 01-1.147 3.703c-3.013 9.198-6.086 19.177-7.482 28.351a152.77 152.77 0 01-5.335 2.712c.343-9.743 3.795-21.209 7.712-32.474.352-1.019.68-2.019 1.014-3.024 1.76.26 3.515.515 5.238.732zm.09 4.108c.44-1.344.836-2.655 1.225-3.96 1.745.21 3.487.416 5.19.587a106.241 106.241 0 01-1.36 4.794c-2.229 7.241-4.6 14.956-6.348 22.417a286.973 286.973 0 01-5.978 3.333c1.442-8.805 4.38-18.347 7.27-27.171zm-1.632 25.331c-.46 2.06-.866 4.096-1.206 6.093-1.806.9-3.557 1.736-5.228 2.48.114-1.735.308-3.515.577-5.335a253.78 253.78 0 005.857-3.238zm1.582-.904a468.95 468.95 0 006.359-3.731 258.331 258.331 0 00-1.804 6.891 262.123 262.123 0 01-5.846 3.084c.37-2.05.802-4.132 1.291-6.244zm4.185 4.671a143.791 143.791 0 00-1.333 6.203c-1.757.823-3.465 1.58-5.115 2.26.171-1.776.417-3.606.728-5.472 1.82-.92 3.729-1.917 5.72-2.991zm1.652-.89a472.053 472.053 0 006.2-3.458 338.914 338.914 0 00-1.905 6.947 247.404 247.404 0 01-5.716 2.857c.415-2.077.896-4.198 1.421-6.346zm3.89 5.047a171.5 171.5 0 00-1.473 6.268 114.137 114.137 0 01-5 2.064c.225-1.809.524-3.671.88-5.575a221.423 221.423 0 005.592-2.757zm1.718-.877a371.808 371.808 0 003.287-1.721l2.756-1.46a437.43 437.43 0 00-2.045 6.992 223.242 223.242 0 01-5.564 2.608c.47-2.103 1-4.25 1.566-6.419zm3.546 5.421a193.571 193.571 0 00-1.637 6.35c-1.752.714-3.36 1.324-4.855 1.849.284-1.839.653-3.747 1.062-5.682 1.69-.753 3.502-1.592 5.43-2.517zm1.786-.86c1.88-.916 3.836-1.864 5.873-2.85a471.164 471.164 0 00-2.2 7.009c-.818.357-1.623.71-2.409 1.059-1.036.456-2.02.878-2.98 1.283a209.989 209.989 0 011.716-6.501zm5.022 4.99c1.81-.791 3.7-1.611 5.663-2.464a480.348 480.348 0 00-2.348 6.993 820.28 820.28 0 00-5.125 1.978c-.024.011-.047.018-.074.029a227.55 227.55 0 011.884-6.536zm4.671 5.453c.834-.318 1.647-.63 2.515-.963.95-.361 1.923-.733 2.912-1.113a425.701 425.701 0 00-2.498 6.951l-.972.32c-1.386.454-2.7.886-3.978 1.309a226.47 226.47 0 012.021-6.504zm2.352 6.534c-.5 1.46-.985 2.912-1.442 4.339-.214.673-.416 1.321-.62 1.966-.983.266-1.943.525-2.858.777-.51.142-.975.248-1.456.369.37-1.532.79-3.143 1.256-4.852.093-.332.192-.672.286-1.007 1.54-.512 3.134-1.035 4.834-1.592zm5.337 7.068c.167-.466.35-.944.522-1.414 1.558-.428 3.184-.882 4.879-1.366a406.87 406.87 0 00-1.774 4.375c-.32.804-.634 1.603-.946 2.401-1.557.342-3.032.658-4.43.951a382.34 382.34 0 011.748-4.947zm4.053 5.214c1.465-.329 3.008-.689 4.616-1.08a486.162 486.162 0 00-2.814 6.668 210.76 210.76 0 01-4.168.668c.744-2.055 1.541-4.15 2.366-6.256zm1.117 7.26a209.37 209.37 0 00-2.307 5.949c-1.27.101-2.462.18-3.587.247a125.957 125.957 0 011.826-5.562 213.73 213.73 0 004.068-.634zm2.055-.349c1.389-.246 2.836-.512 4.351-.813a341.58 341.58 0 00-2.861 6.524c-1.368.164-2.666.302-3.898.417a221.792 221.792 0 012.408-6.128zm.784 7.388a184.894 184.894 0 00-2.303 5.781 92.68 92.68 0 01-3.316.01 115.805 115.805 0 011.823-5.408c1.201-.105 2.466-.231 3.796-.383zm2.098-.256c1.295-.167 2.652-.362 4.069-.585a288.69 288.69 0 00-2.848 6.355 100.72 100.72 0 01-3.623.208 208.761 208.761 0 012.402-5.978zm.501 7.452a175.592 175.592 0 00-2.252 5.56 81.844 81.844 0 01-3.054-.173c.523-1.668 1.12-3.406 1.784-5.207 1.104-.037 2.276-.095 3.522-.18zm2.121-.165c14.192-1.233 36.931-5.949 72.866-21.955 11.431-5.091 22.677-10.964 33.551-16.644 12.799-6.683 24.889-12.995 35.758-17.227 20.479-7.977 34.436-6.096 43.885 6.302.072.221.146.444.216.665a25.79 25.79 0 00-6.227-3.846c-8.791-3.812-19.737-2.848-34.441 3.04-10.578 4.233-22.23 10.367-34.565 16.861-11.486 6.046-23.364 12.298-35.436 17.587-39.811 17.442-63.163 21.178-77.968 20.992a191.674 191.674 0 012.361-5.775zm76.277-13.683c12.129-5.312 24.032-11.58 35.545-17.639 12.297-6.473 23.911-12.589 34.406-16.791 14.069-5.63 24.914-6.63 33.153-3.055 2.897 1.254 5.502 3.075 7.842 5.466.186.644.365 1.286.539 1.93a24.107 24.107 0 00-3.043-1.654c-8.702-3.914-19.85-2.822-35.087 3.439-10.242 4.207-21.471 10.169-33.357 16.479-12.073 6.41-24.557 13.036-37.266 18.516-36.824 15.874-64.336 22.286-83.766 19.491a111.16 111.16 0 011.761-5.062c14.975.295 38.667-3.331 79.273-21.12zm117.618-9.711c.008.142.011.286.021.429l-.095-.447c.024.008.05.011.074.018zm1.609.482c.218.075.428.168.643.251.379 3.554.469 7.116.342 10.663a129.623 129.623 0 01-.828-3.2 99.528 99.528 0 00-.157-7.714zm.744 15.109a119.942 119.942 0 01-.861 7.581 122.38 122.38 0 01-.432-2.961c.222-2.344.407-4.719.535-7.113.243.839.497 1.67.758 2.493zm1.279 3.727a62.17 62.17 0 001.221 3.041c-.396 3.05-.956 6.084-1.604 9.092a62.26 62.26 0 01-.867-3.492c.494-2.851.921-5.733 1.25-8.641zm.007 17.833a42.018 42.018 0 001.383 3.087 166.278 166.278 0 01-2.701 8.54 41.46 41.46 0 01-.914-3.434c.78-2.693 1.535-5.428 2.232-8.193zm-1.151 16.31a32.031 32.031 0 001.554 2.994 258.394 258.394 0 01-3.507 8.214 31.292 31.292 0 01-1.016-3.281 479.27 479.27 0 002.969-7.927zm-4.396 20.816a1186.38 1186.38 0 002.531-5.511c.52.992 1.107 1.953 1.759 2.886a434.142 434.142 0 01-4.17 8.001 24.872 24.872 0 01-1.121-3.21l1.001-2.166zm-.728 10.799l.935-1.743a25.05 25.05 0 001.12 1.709c.266.365.541.699.815 1.032a817.386 817.386 0 01-4.718 7.847c-.5-.983-.906-2.002-1.25-3.046a1255.11 1255.11 0 013.098-5.799zm-2.84 10.483a824.61 824.61 0 00-4.101 6.806 23.105 23.105 0 01-.52-2.96 255.603 255.603 0 013.311-6.53c.372.917.811 1.809 1.31 2.684zm1.095 1.776c2.783 4.023 6.06 6.202 10.271 6.793 6.229.854 14.024-1.31 22.274-3.602 8.692-2.413 18.546-5.147 28.172-4.787 10.246.386 19.116 4.374 27.161 12.257 12.267 12.016 24.73 17.012 38.066 15.248 2.097-.276 4.202-.666 6.309-1.107a375.747 375.747 0 001.796 4.87c-2.481.676-4.963 1.264-7.441 1.715-14.369 2.629-27.409-1.427-39.866-12.401-8.824-7.774-18.566-11.526-29.784-11.47-10.01.048-19.947 3.041-28.715 5.679-8.651 2.606-16.119 4.852-22.03 4.024-3.987-.569-6.971-2.801-9.388-7.021-.512-.894-.918-1.824-1.278-2.768a699.734 699.734 0 014.453-7.43zm-4.67 11.052c2.709 4.727 6.087 7.223 10.642 7.87 6.287.883 13.922-1.418 22.766-4.079 8.657-2.605 18.468-5.56 28.229-5.608 10.778-.053 20.144 3.559 28.638 11.042 12.878 11.344 26.391 15.533 41.314 12.803 2.583-.471 5.166-1.086 7.748-1.792.6 1.57 1.211 3.138 1.834 4.703-2.994.989-6 1.855-9.006 2.537-15.957 3.613-30.042.335-43.057-10.019-9.299-7.398-19.537-10.737-31.305-10.21-10.138.455-20.046 3.668-28.787 6.504-8.853 2.869-16.499 5.35-22.421 4.502-4.064-.586-7.003-2.931-9.248-7.379-.976-1.931-1.554-3.993-1.839-6.157a203.097 203.097 0 013.619-6.477 21 21 0 00.873 1.76zm140.418 19.944a119.318 119.318 0 005.016-1.565c.582 1.442 1.185 2.911 1.784 4.376a121.686 121.686 0 01-4.986 1.836 417.238 417.238 0 01-1.814-4.647zm6.121-1.932a147.681 147.681 0 004.876-1.78c.568 1.337 1.144 2.707 1.721 4.069a152.47 152.47 0 01-4.833 2.033c-.594-1.446-1.191-2.898-1.764-4.322zm7.285 3.917c.213.506.421.991.635 1.501l1.056 2.539a159.076 159.076 0 01-4.784 2.239c-.412-.981-.823-1.957-1.234-2.953-.179-.433-.347-.853-.526-1.284 1.626-.65 3.241-1.335 4.853-2.042zm8.132 2.784a656.11 656.11 0 011.556 3.779c-1.516.87-3.044 1.717-4.578 2.544-.545-1.307-1.088-2.617-1.637-3.93a194.956 194.956 0 004.659-2.393zm2.272 5.522c4.206 10.438 8.076 20.792 11.835 30.88.249.664.491 1.316.737 1.976-.984.896-1.968 1.799-2.953 2.705-4.74-10.478-9.439-21.631-14.19-33.026a208.35 208.35 0 004.571-2.535zm13.273 34.733l.5 1.342c-.9.89-1.802 1.777-2.701 2.668-.214-.465-.427-.935-.643-1.404.949-.872 1.898-1.742 2.844-2.606zm1.197 3.202l.511 1.36c-.812.877-1.62 1.755-2.432 2.635-.222-.477-.446-.954-.668-1.435.862-.856 1.726-1.707 2.589-2.56zm-2.803 4.954c-.805.873-1.61 1.743-2.411 2.62-.286-.507-.569-1.025-.854-1.538.858-.857 1.708-1.718 2.569-2.573l.696 1.491zm.813 1.725c.241.509.482 1.012.722 1.516-.71.855-1.419 1.713-2.128 2.572-.301-.523-.602-1.048-.904-1.578l2.31-2.51zm1.542 3.222c.25.52.503 1.032.754 1.547l-1.839 2.501c-.314-.531-.63-1.055-.946-1.594.678-.818 1.352-1.636 2.031-2.454zm1.585 3.243c.261.528.522 1.045.783 1.567l-1.06 1.67c-.16.251-.315.498-.475.748-.329-.539-.658-1.068-.989-1.615l1.741-2.37zm1.098 4.109c.179-.282.358-.564.534-.846.272.533.544 1.053.814 1.58l-1.22 2.316c-.343-.539-.686-1.081-1.027-1.631.301-.475.596-.943.899-1.419zm4.004 5.788c.283.525.569 1.036.852 1.554-.193.675-.387 1.347-.58 2.015-.361-.529-.723-1.066-1.083-1.604.268-.652.539-1.307.811-1.965zm3.862 6.956c.005-.019.007-.039.011-.058.271.467.544.925.815 1.383l-.011 1.462c-.343-.46-.686-.926-1.03-1.396.072-.463.145-.923.215-1.391zm.798 4.897l-.006 1.624a161.546 161.546 0 01-1.536-1.69c.085-.542.166-1.084.251-1.633.431.579.861 1.136 1.291 1.699zm1.389 1.799c.423.539.848 1.074 1.273 1.599.067.415.134.838.202 1.248-.494-.505-.987-1.024-1.48-1.543l.005-1.304zm2.973 3.651c.379.449.759.901 1.138 1.34.081.232.162.474.245.703-.411-.395-.822-.79-1.231-1.194-.051-.287-.102-.56-.152-.849zm3.463 3.942c.11.12.221.236.331.356-.101-.092-.201-.181-.3-.273l-.031-.083zm2.471 3.707c2.354 3.821 4.785 7.193 7.348 9.973 9.041 9.812 17.662 15.22 34.773 13.771-2.621.469-5.25.89-8.722 1.107-17.05 1.062-23.701-4.912-30.655-17.076-1.522-2.66-2.939-5.721-4.294-9.108.516.455 1.034.894 1.55 1.333zm8.271 9.124c-1.752-1.903-3.442-4.106-5.092-6.523.276.216.552.426.828.636 2.949 3.239 5.968 6.023 9.081 8.251 11.637 8.321 22.246 11.293 36.112 10.033a74.067 74.067 0 01-6.862.951c-16.821 1.502-25.228-3.762-34.067-13.348zm5.52 1.379a46.255 46.255 0 01-2.683-2.09c2.569 1.796 5.139 3.326 7.713 4.558 11.916 5.709 23.333 7.782 36.402 6.538a77.998 77.998 0 01-3.948.585c-14.643 1.755-25.501-1.021-37.484-9.591zm6.191-135.309c-.67.372-1.358.771-2.053 1.181-.193-.12-.387-.241-.586-.348a43.702 43.702 0 012.214-.858c.14.011.288.009.425.025zm-7.596 1.116c-.625.314-1.257.639-1.905.981a12.668 12.668 0 00-.588-.311 44.11 44.11 0 012.113-.699c.127.012.256.017.38.029zm-7.703.848c-.59.263-1.185.529-1.793.814-.212-.113-.43-.215-.644-.318.678-.201 1.341-.38 1.992-.543.15.015.299.029.445.047zm-7.943.591c-.521.199-1.048.401-1.579.611a22.007 22.007 0 00-.72-.362c.55-.125 1.091-.241 1.626-.344.227.028.451.061.673.095zm-7.954.077c-.552.17-1.11.346-1.671.53-.241-.133-.479-.269-.725-.393a53.969 53.969 0 011.856-.249c.182.035.36.074.54.112zm-8.029-.457c-.55.125-1.108.256-1.669.392a31.68 31.68 0 00-.816-.48 62.574 62.574 0 011.844-.094c.217.058.428.121.641.182zm-8.225-1.09c-.498.069-1 .139-1.506.217-.304-.214-.609-.416-.915-.621.501.018.999.041 1.492.067.312.109.622.22.929.337zm-7.973-1.928c-.561.015-1.128.033-1.694.056-.329-.273-.657-.548-.989-.812.58.091 1.157.189 1.729.293.32.151.639.303.954.463zm-7.94-2.928c-.565-.058-1.132-.114-1.702-.164-.363-.371-.728-.728-1.093-1.089.571.174 1.138.351 1.702.533.366.235.73.477 1.093.72zm-7.865-4.163c-.537-.137-1.074-.274-1.613-.409-.374-.485-.75-.956-1.127-1.433.491.243.982.485 1.47.733.424.365.847.735 1.27 1.109zm-7.492-5.622c-.552-.252-1.105-.5-1.659-.75-.368-.626-.734-1.244-1.1-1.861.486.361.975.717 1.461 1.085.433.506.867 1.012 1.298 1.526zm-7.122-7.446l-1.577-1.126-1.005-2.383c.444.482.888.965 1.332 1.451.415.68.833 1.37 1.25 2.058zm-6.402-9.578c-.458-.496-.909-.994-1.365-1.488-.262-.967-.501-1.912-.748-2.864.349.574.703 1.154 1.058 1.731.349.872.697 1.741 1.055 2.621zm-5.19-11.988c-.442-.884-.853-2.039-1.246-3.458-.068-.577-.128-1.15-.192-1.724.234.645.476 1.298.714 1.946.233 1.068.473 2.148.724 3.236zM70.013 255.447l-.329-.327c-.015-.082-.035-.164-.051-.248l.341.479.04.096zm-3.228-6.937c-.09-.12-.18-.244-.268-.365-.008-.104-.01-.209-.018-.315.08.161.156.318.232.477.02.067.036.135.054.203zm-2.253-7.618a20.922 20.922 0 00-.157-.304l.02-.335c.032.106.068.215.1.322l.037.317zm-1.171-8.126c-.03-.094-.061-.188-.093-.281l.046-.291c.016.093.033.19.047.286 0 .094.002.191 0 .286zm-.145-8.653l-.009-.045.024-.089c-.006.044-.01.09-.015.134zm-.552 4.204c-.08.566-.15 1.145-.233 1.708l-.442-1.29c.15-.556.295-1.12.444-1.68.075.418.157.848.23 1.262zm-.685 4.564c-.127.785-.247 1.577-.38 2.353a406.64 406.64 0 01-.929-1.794c.231-.798.452-1.61.677-2.414l.632 1.855zm-.787 4.601c-.164.906-.328 1.812-.502 2.707a287.15 287.15 0 01-1.436-2.011c.286-.931.56-1.875.84-2.814.37.718.735 1.421 1.098 2.118zm-.892 4.639a202.57 202.57 0 01-.607 2.906c-.647-.682-1.29-1.362-1.948-2.075.327-1.011.646-2.033.964-3.053.536.749 1.07 1.503 1.591 2.222zm-.992 4.66c-.23 1.032-.47 2.055-.714 3.075-.81-.669-1.63-1.36-2.454-2.071.36-1.061.712-2.139 1.067-3.213.713.767 1.404 1.479 2.1 2.209zm-1.105 4.716c-.257 1.05-.524 2.089-.794 3.124a161.337 161.337 0 01-2.95-1.991c.386-1.093.766-2.197 1.145-3.302.876.746 1.742 1.466 2.6 2.169zm-1.21 4.739a254.585 254.585 0 01-.872 3.175 163.743 163.743 0 01-3.43-1.874c.409-1.116.812-2.243 1.217-3.371a148.76 148.76 0 003.086 2.07zm-1.32 4.784c-.306 1.071-.62 2.129-.934 3.186a163.299 163.299 0 01-3.88-1.731c.421-1.124.843-2.257 1.263-3.396 1.194.672 2.382 1.321 3.552 1.941zm-1.416 4.801a329.473 329.473 0 01-.998 3.206 164.636 164.636 0 01-4.294-1.574c.432-1.127.866-2.265 1.299-3.407a165.32 165.32 0 003.993 1.775zm-1.519 4.846c-.347 1.079-.699 2.15-1.051 3.214a175.25 175.25 0 01-4.668-1.404c.442-1.134.883-2.271 1.326-3.418 1.48.566 2.942 1.1 4.393 1.608zm-1.613 4.883c-.364 1.076-.727 2.152-1.097 3.213a177.497 177.497 0 01-4.988-1.223c.444-1.134.888-2.27 1.338-3.416 1.594.503 3.176.978 4.747 1.426zm-1.704 4.936c-.378 1.072-.756 2.145-1.138 3.208a209.31 209.31 0 01-5.242-1.047c.444-1.136.881-2.259 1.333-3.408 1.695.442 3.377.861 5.047 1.247zm-1.784 4.982c-.25.691-.502 1.389-.755 2.076-5.64 15.327-9.002 27.854-7.187 37.655-1.307.453-2.48.776-3.507.961-4.725-9.179-1.238-22.707 5.485-40.017l.681-1.741c1.772.377 3.535.742 5.283 1.066zm.38 2.492c.279-.753.553-1.52.83-2.28 1.766.317 3.527.627 5.265.893-.31.93-.611 1.853-.938 2.792-4.033 11.603-7.582 23.435-7.802 33.493a66.581 66.581 0 01-4.496 1.914c-1.75-10.262 2.297-23.639 7.142-36.812zm-1.401 35.542a136.3 136.3 0 005.183-2.588 66.07 66.07 0 00-.496 5.165 63.998 63.998 0 01-4.484 1.736 36.895 36.895 0 01-.203-4.313zm5.95 3.286a121.332 121.332 0 005.064-2.359c-.28 1.808-.5 3.577-.646 5.3a57.644 57.644 0 01-4.383 1.53 44.171 44.171 0 01-.035-4.471zm5.717 3.71c1.527-.622 3.17-1.338 4.952-2.161a89.098 89.098 0 00-.797 5.392 51.197 51.197 0 01-4.301 1.366 51.523 51.523 0 01.146-4.597zm5.147 8.63c.04-1.465.149-2.985.314-4.544a109.55 109.55 0 004.848-1.962 101.087 101.087 0 00-.963 5.487c-1.54.505-2.941.902-4.2 1.185.003-.056 0-.107 0-.166zm4.017.406c-.071.567-.16 1.146-.216 1.702a45.34 45.34 0 00-.196 2.819c-1.207.152-2.27.192-3.195.109-.239-1.002-.38-2.168-.41-3.538a44.318 44.318 0 004.017-1.092zm1.216 1.846c.078-.763.193-1.556.301-2.343 1.442-.492 3-1.076 4.681-1.748-.43 1.895-.806 3.75-1.116 5.556a42.032 42.032 0 01-4.043.978c.036-.766.09-1.571.177-2.443zm5.199 2.477a93.316 93.316 0 004.536-1.538 122.328 122.328 0 00-1.283 5.628 38.648 38.648 0 01-3.882.8c.12-1.442.33-3.063.629-4.89zm4.598 5.18a82.949 82.949 0 004.368-1.334 158.44 158.44 0 00-1.455 5.662c-1.349.292-2.596.508-3.709.623a64.15 64.15 0 01.796-4.951zm4.268 5.508a61.75 61.75 0 002.207-.564 432.26 432.26 0 011.98-.537 147.432 147.432 0 00-1.62 5.655c-1.286.23-2.456.379-3.515.446a63.39 63.39 0 01.948-5zm3.912 5.818c.064-.014.121-.021.186-.034l2.705-.557c.352-.072.716-.147 1.08-.22a124.694 124.694 0 00-1.71 5.549l-.4.053a25.75 25.75 0 01-2.921.227c.253-1.576.618-3.257 1.06-5.018zm3.627 6.105a529.33 529.33 0 003.726-.506 112.904 112.904 0 00-1.733 5.388c-.61.032-1.203.061-1.767.088a19.8 19.8 0 01-1.365.022c.274-1.563.667-3.24 1.139-4.992zm3.358 6.39c1.085-.061 2.235-.134 3.457-.226a111.034 111.034 0 00-1.718 5.209c-1.054-.031-2.014-.075-2.867-.112-.011-.002-.02-.002-.03-.002a58.045 58.045 0 011.158-4.869zm3.104 6.647c.982.017 2.037.024 3.18.009a105.794 105.794 0 00-1.68 4.986 83.724 83.724 0 01-2.644-.317 57.997 57.997 0 011.144-4.678zm2.89 6.806c.936.076 1.914.139 2.933.184a104.965 104.965 0 00-1.646 4.823 51.95 51.95 0 01-2.422-.491c.29-1.42.672-2.93 1.135-4.516zm2.657 6.975c19.79 2.927 47.689-3.512 84.955-19.578 12.773-5.505 25.288-12.148 37.392-18.574 11.847-6.292 23.04-12.233 33.205-16.41 14.768-6.069 25.483-7.168 33.725-3.459a22.514 22.514 0 014.425 2.656c.249.986.49 1.969.723 2.953-8.599-3.919-19.885-2.668-35.501 3.938-9.988 4.19-20.888 10.031-32.426 16.216-12.572 6.738-25.57 13.704-38.822 19.327-40.941 17.374-70.779 23.164-88.79 17.258a57.17 57.17 0 011.114-4.327zm199.206-30.397l.144.61a117.07 117.07 0 01-.102 3.663c-.005-.06-.012-.117-.018-.176a224.82 224.82 0 00-.024-4.097zM301.4 386c.168-1.453.339-2.928.504-4.41.105.56.223 1.111.337 1.662a223.881 223.881 0 01-.83 4.512c-.014-.51-.029-1.024-.038-1.541.009-.074.016-.148.027-.223zm-.552 12.593c.112.692.236 1.378.376 2.056a721.118 721.118 0 01-1.422 4.816c.004-.658.01-1.318.032-1.987a515.06 515.06 0 011.014-4.885zm-1.977 15.863c.119.742.264 1.474.42 2.199-.239.62-.475 1.247-.713 1.863-.406 1.059-.809 2.109-1.206 3.15.016-.721.049-1.454.094-2.194.443-1.646.91-3.316 1.405-5.018zm-2.611 15.145c.131.762.284 1.512.468 2.25a557.67 557.67 0 00-2.29 5.029 43.52 43.52 0 01.115-2.282 169.785 169.785 0 011.707-4.997zm-2.969 14.365c.15.776.329 1.538.544 2.286a356.074 356.074 0 00-2.67 5.16c.016-.773.051-1.556.123-2.354a131.345 131.345 0 012.003-5.092zm-2.641 16.178a244.387 244.387 0 00-2.97 5.197c.009-.768.043-1.545.114-2.336a108.212 108.212 0 012.242-5.137c.165.772.37 1.53.614 2.276zm-2.497 15.641c2.531 5.006 5.889 7.656 10.575 8.332 6.328.906 14.155-1.632 23.219-4.57 8.634-2.802 18.42-5.974 28.322-6.418 11.32-.511 21.174 2.705 30.122 9.824 13.464 10.711 28.035 14.1 44.549 10.361 3.1-.703 6.194-1.595 9.275-2.616a362.777 362.777 0 001.877 4.555c-3.531 1.352-7.084 2.533-10.652 3.477-17.556 4.641-32.687 2.142-46.258-7.634-9.749-7.025-20.485-9.953-32.817-8.946-10.259.857-20.141 4.286-28.863 7.31-9.059 3.146-16.886 5.861-22.811 4.994-4.143-.609-7.04-3.066-9.111-7.736-1.384-3.116-1.764-6.54-1.427-10.223a98.987 98.987 0 012.403-5.111 20.36 20.36 0 001.597 4.401zm147.122 14.563a130.802 130.802 0 004.998-1.841c.181.439.352.866.536 1.307.414 1.006.828 1.987 1.242 2.978a129.313 129.313 0 01-4.919 2.057 393.711 393.711 0 01-1.857-4.501zm7.476 4.118a612.05 612.05 0 001.775 4.175 140.138 140.138 0 01-4.806 2.222 350.816 350.816 0 01-1.882-4.343 128.986 128.986 0 004.913-2.054zm1.064-.468a160.245 160.245 0 004.784-2.234l1.65 3.962a170.522 170.522 0 01-4.671 2.41 593.273 593.273 0 01-1.763-4.138zm7.157 3.46c4.793 11.497 9.536 22.746 14.323 33.31-.972.896-1.943 1.796-2.916 2.698-5.337-10.022-10.695-21.219-16.066-33.613a166.679 166.679 0 004.659-2.395zm15.136 35.088c.221.484.443.97.665 1.451-.895.888-1.78 1.782-2.672 2.674-.272-.498-.542-1.01-.813-1.512.939-.874 1.881-1.746 2.82-2.613zm-4.619 9.311c.867-.874 1.742-1.746 2.613-2.619.292.532.586 1.068.88 1.592-.814.889-1.621 1.78-2.429 2.672a261.74 261.74 0 01-1.064-1.645zm2.066 3.169c.779-.86 1.56-1.718 2.343-2.576.312.549.621 1.093.935 1.633l-2.16 2.617c-.373-.553-.745-1.112-1.118-1.674zm2.131 3.155c.687-.837 1.373-1.672 2.062-2.508.331.565.66 1.113.991 1.667-.623.851-1.246 1.702-1.867 2.553-.397-.565-.792-1.137-1.186-1.712zm2.206 3.153l1.775-2.427c.349.577.696 1.136 1.045 1.701l-1.565 2.47c-.419-.575-.838-1.159-1.255-1.744zm2.292 3.152c.489-.775.981-1.554 1.477-2.334.366.588.733 1.16 1.1 1.737l-.037.07-1.212 2.296c-.444-.585-.886-1.174-1.328-1.769zm2.386 3.15c.388-.736.778-1.474 1.168-2.217.388.594.773 1.178 1.158 1.761l-.441 1.066-.486 1.175a209.35 209.35 0 01-1.399-1.785zm2.495 3.154l.808-1.958.047-.112c.404.599.808 1.184 1.213 1.77l-.188.641-.414 1.44c-.49-.588-.98-1.177-1.466-1.781zm2.614 3.164l.546-1.89c.422.597.842 1.177 1.262 1.758l-.289 1.882c-.505-.579-1.012-1.156-1.519-1.75zm30.953 47.545c-2.816.399-5.476.776-9.777.77-8.192-.017-13.717-1.699-16.944-5.192-4.638-5.029-4.362-13.744-3.627-22.988.366-4.636 1.095-9.926 1.944-15.565.581.641 1.161 1.278 1.744 1.899 0 5.606.114 10.66.528 15.121 1.423 15.302 4.073 26.106 25.321 25.739a61.325 61.325 0 003.778-.179c-1.039.122-2.009.259-2.967.395zm8.939-2.543c-2.873.442-5.586.859-9.775.931-20.093.35-22.511-9.464-23.907-24.471-.374-4.015-.497-8.544-.516-13.525.596.62 1.195 1.223 1.795 1.822.867 4.999 1.827 9.519 3.012 13.411 4.026 13.213 8.431 22.512 28.609 21.732.831-.033 1.598-.08 2.336-.134-.526.076-1.042.157-1.554.234zm9-2.565c-2.951.493-5.74.958-9.833 1.117-19.255.744-23.297-7.744-27.267-20.775-1.019-3.347-1.87-7.18-2.644-11.388.585.565 1.171 1.124 1.757 1.667 1.657 4.416 3.399 8.352 5.309 11.689 7.061 12.347 14.232 18.827 31.864 17.729.366-.024.71-.051 1.057-.077l-.243.038zm23.267-8.027c-10.804 1.35-20.408.469-30.002-2.795 10.8 2.997 20.742 3.565 30.002 2.795zM527.47 452.756c1.679.385 2.957 1.393 3.899 3.083 2.527 4.534-.909 11.421-8.006 19.925 4.51-7.409 6.156-13.703 3.559-18.527-1.076-2.001-2.553-3.401-4.385-4.199 1.876-.475 3.535-.601 4.933-.282zM205.102 238.422c25.528-6.195 50.197 13.351 76.315 34.045 24.034 19.041 48.887 38.731 77.487 41.811 4.283.461 8.971.403 13.506.348 11.063-.138 22.502-.279 30.477 6.735a8 8 0 01.167.148c10.055 9.092 10.308 32.255 9.386 49.81-.213-4.427-.562-8.994-1.174-13.52-1.795-13.261-5.527-21.92-11.444-26.51-8.48-6.524-19.83-6.18-30.805-5.845-5.049.154-9.819.3-14.284-.191-3.592-.395-7.233-1.215-11.136-2.501-21.812-7.205-39.987-24.05-57.554-40.34-8.266-7.665-16.811-15.586-25.555-22.309-18.648-14.334-35.532-19.271-51.621-15.09-18.959 4.876-42.557 17.104-63.139 28.422a2094.588 2094.588 0 00-28.354 15.905 35.482 35.482 0 00-1.518-.526c-1.799-1.126-3.853-2.07-6.141-2.886 32.249-19.879 68.527-40.985 95.387-47.506zM63.079 219.656c-.13.563-.266 1.125-.402 1.686-.087-.442-.173-.887-.263-1.333.203-.578.402-1.157.6-1.736.026.466.042.919.065 1.383zm-1.143 4.688c-.206.808-.416 1.612-.628 2.413l-.651-1.882c.304-.821.601-1.653.901-2.482.127.653.256 1.31.378 1.951zm-1.252 4.74c-.26.947-.525 1.891-.794 2.83-.361-.707-.722-1.413-1.09-2.14.374-.97.744-1.947 1.113-2.925.26.755.518 1.498.771 2.235zm-1.359 4.791a361.844 361.844 0 01-.922 3.088 216.336 216.336 0 01-1.555-2.247c.426-1.062.85-2.13 1.273-3.204.403.79.811 1.597 1.204 2.363zm-1.46 4.839c-.337 1.083-.68 2.163-1.025 3.237-.673-.741-1.343-1.471-2.03-2.247.468-1.123.932-2.249 1.393-3.387.556.808 1.113 1.619 1.663 2.397zm-1.555 4.868a381.811 381.811 0 01-1.125 3.387c-.823-.72-1.654-1.465-2.492-2.228.497-1.165.993-2.336 1.489-3.516.715.804 1.424 1.59 2.128 2.357zm-4.256 2.646c.875.788 1.74 1.55 2.6 2.292-.392 1.146-.786 2.29-1.186 3.422a149.677 149.677 0 01-2.858-2.049c-.036-.027-.07-.057-.105-.082.514-1.185 1.031-2.38 1.549-3.583zm-2.2 5.068c1.027.756 2.05 1.49 3.06 2.196a500.883 500.883 0 01-1.244 3.452c-.99-.569-1.982-1.14-2.987-1.748-.145-.089-.287-.182-.43-.271.532-1.198 1.063-2.407 1.6-3.629zm-2.268 5.132c.084.051.167.107.252.159 1.097.664 2.18 1.289 3.26 1.906-.43 1.165-.86 2.327-1.292 3.477-1.014-.48-2.024-.951-3.05-1.464-.27-.135-.535-.282-.804-.419a2245.3 2245.3 0 001.634-3.659zm-3.2 7.149l.88-1.96c.247.124.491.261.74.385 1.08.54 2.141 1.036 3.206 1.539a900.83 900.83 0 01-1.33 3.484c-1.017-.396-2.024-.776-3.053-1.203-.406-.169-.808-.355-1.212-.526.256-.573.511-1.144.77-1.719zm-1.474 3.287c.419.179.837.37 1.257.545 1.044.434 2.064.82 3.094 1.222a961.739 961.739 0 01-1.352 3.488c-1.002-.326-1.99-.628-3.005-.977-.547-.189-1.09-.401-1.636-.596.54-1.216 1.088-2.443 1.642-3.682zm-2.36 5.3c.592.214 1.183.444 1.777.648.987.34 1.96.634 2.94.952-.456 1.168-.91 2.324-1.361 3.476-.974-.26-1.94-.491-2.921-.772-.684-.196-1.371-.411-2.058-.616.53-1.215 1.073-2.445 1.623-3.688zm-2.35 5.361c.763.229 1.527.468 2.287.686.925.263 1.833.483 2.752.727-.456 1.169-.9 2.309-1.352 3.46-.94-.205-1.871-.379-2.819-.603-.809-.19-1.623-.401-2.434-.602a444.948 444.948 0 011.567-3.668zm-6.261 48.109a2.025 2.025 0 01-.1-.097c-7.955-8.168-3.959-23.24 4.072-42.609.91.228 1.823.465 2.732.678.859.203 1.702.36 2.558.548l-.614 1.566c-6.75 17.38-10.262 31.059-5.614 40.605-1.357.102-2.388-.106-3.034-.691zm5.2 2.168c-.146-.219-.26-.454-.395-.678.96-.193 2.006-.472 3.155-.857.224.989.52 1.943.86 2.875-1.705.055-2.961-.348-3.62-1.34zm7.428 4.213c-1-.343-1.698-.97-2.13-1.916a24.88 24.88 0 003.336-.759c.157 1.014.357 2.005.614 2.961-.67-.026-1.294-.105-1.82-.286zm5.581 3.365c-.887-.394-1.547-1.032-2.01-1.921.981-.099 2.06-.289 3.274-.598.066.661.14 1.32.244 1.958.061.361.146.683.228 1.011-.654-.079-1.234-.226-1.736-.45zm5.483 3.75c-.809-.44-1.437-1.108-1.902-2.005.93-.049 1.967-.197 3.105-.438.004.089.004.179.01.268.06 1.006.191 1.908.382 2.73a5.86 5.86 0 01-1.595-.555zm5.293 4.143c-.765-.491-1.355-1.196-1.796-2.121a18.51 18.51 0 002.909-.26c.033 1.115.134 2.107.302 3a5.402 5.402 0 01-1.415-.619zm5.028 4.529c-.719-.529-1.275-1.28-1.682-2.261a17.4 17.4 0 002.728-.13 21.323 21.323 0 00.203 3.06 5.266 5.266 0 01-1.25-.669zm4.722 4.887c-.66-.559-1.162-1.357-1.532-2.378.762.071 1.587.08 2.499.017a22.846 22.846 0 00.085 3.026 4.9 4.9 0 01-1.052-.665zm4.404 5.215c-.652-.629-1.139-1.447-1.464-2.497a14.19 14.19 0 002.362.13 23.746 23.746 0 00-.03 3.031 5.081 5.081 0 01-.868-.664zm4.094 5.501c-.625-.681-1.055-1.553-1.332-2.592.66.134 1.388.205 2.166.231a25.69 25.69 0 00-.123 2.993 4.984 4.984 0 01-.711-.632zm3.798 5.746c-.568-.708-.957-1.592-1.2-2.626.607.152 1.255.266 1.961.328-.12 1.035-.184 2-.185 2.902a4.969 4.969 0 01-.576-.604zm2.485 3.373c.545.162 1.133.286 1.764.371-.125.985-.2 1.925-.219 2.821a5.51 5.51 0 01-.51-.619c-.498-.715-.825-1.59-1.035-2.573zm3.431 6.22c.502.168 1.035.306 1.61.406a28.928 28.928 0 00-.263 2.708 5.62 5.62 0 01-.472-.666c-.418-.699-.696-1.527-.875-2.448zm3.911 8.645c-.33-.662-.548-1.432-.69-2.275.453.169.934.308 1.445.418a29.554 29.554 0 00-.277 2.609c-.17-.24-.34-.477-.478-.752zm2.34 4.292c.304.12.62.227.95.318.1.028.204.05.305.077-.137.852-.24 1.678-.302 2.467a6.282 6.282 0 01-.464-.907c-.234-.582-.38-1.25-.489-1.955zm2.806 6.633c.365.152.743.292 1.12.432a33.33 33.33 0 00-.303 2.263c-.404-.764-.677-1.665-.817-2.695zm140.881-22.535c-13.612 7.425-27.685 15.104-42.068 21.025-59.774 24.607-84.154 20.422-94.077 12.578-1.187-.942-1.849-2.425-2.091-4.328 16.689 9.02 48.115 4.051 93.465-14.802 13.843-5.815 27.382-13.125 40.473-20.196 11.183-6.036 21.743-11.74 31.415-15.901 14.067-6.083 24.39-7.804 32.146-5.337.213 1.516.401 3.02.576 4.514-15.378-1.803-36.207 9.555-59.839 22.447zm50.687 78.664c.007.084.017.17.023.253l-.243.507c.07-.251.147-.506.22-.76zm-3.503 13.493c.01.143.01.292.024.432-.147.281-.287.556-.433.837.123-.419.273-.847.409-1.269zm90.863 32.684c-22.465-14.695-45.143-6.304-63.363.435-15.782 5.839-27.182 10.051-32.082-2.606-1.962-5.068-1.32-10.89.911-17.333.203 2.204.691 4.324 1.584 6.336 2.313 5.219 5.748 8.097 10.505 8.796 6.363.929 14.383-1.851 23.671-5.073 8.617-2.991 18.386-6.38 28.416-7.217 11.884-.97 22.222 1.845 31.607 8.608 14.039 10.115 29.669 12.704 47.783 7.916 3.652-.965 7.286-2.173 10.893-3.556a392.248 392.248 0 001.902 4.39c-20.828 8.982-42.445 11.983-61.827-.696zm68.318 12.027a341.887 341.887 0 01-4.707-10.073 148.602 148.602 0 004.781-2.209c5.442 12.581 10.829 23.888 16.179 33.965-.981.914-1.959 1.831-2.937 2.748-4.596-7.538-9.055-15.695-13.316-24.431z" fill="url(#paint0_linear_2044_1849)"/></g><defs><linearGradient id="paint0_linear_2044_1849" x1="18.759" y1="497.328" x2="585.695" y2="359.441" gradientUnits="userSpaceOnUse"><stop stop-color="#FF6C1A"/><stop offset="1" stop-color="#994110"/></linearGradient><clipPath id="clip0_2044_1849"><path fill="#fff" d="M0 0h660v596H0z"/></clipPath></defs></svg>