<svg width="48" height="53" fill="none" xmlns="http://www.w3.org/2000/svg"><path stroke="#FF6C1A" d="M11.734 17.814h18.404v21.431H11.734z"/><path stroke="#FF6C1A" d="M17.862 12.716h18.404v21.431H17.862z"/><path fill-rule="evenodd" clip-rule="evenodd" d="M28.163 3.74a9.25 9.25 0 00-9.339.007l-12.733 7.46a9.25 9.25 0 00-4.575 7.98v14.577a9.25 9.25 0 004.458 7.912l12.733 7.713a9.25 9.25 0 009.573.007l12.792-7.723a9.25 9.25 0 004.469-7.918V19.197a9.25 9.25 0 00-4.586-7.988L28.163 3.74zM18.066 2.454a10.75 10.75 0 0110.854-.008l12.79 7.468a10.75 10.75 0 015.33 9.283v14.558a10.75 10.75 0 01-5.194 9.203l-12.79 7.722a10.75 10.75 0 01-11.126-.008L5.197 42.96a10.75 10.75 0 01-5.18-9.195V19.187a10.75 10.75 0 015.316-9.275l12.733-7.459z" fill="#FF6C1A"/></svg>