<svg width="107" height="106" fill="none" xmlns="http://www.w3.org/2000/svg"><g clip-path="url(#clip0_21_1641)"><path d="M68.844 65.36l10.558 2.888L83.05 54.96s1.92-3.08 6.335-1.733c4.415 1.348 4.03 5.585 4.03 5.585l-1.919 6.547m-27.232 7.458l-.425-.131A4.996 4.996 0 0057.589 76L53.8 88.32c-.814 2.647.665 5.454 3.303 6.27l.426.132a4.996 4.996 0 006.25-3.314l3.788-12.322a5.02 5.02 0 00-3.304-6.27zm12.287 0l-.425-.131A4.996 4.996 0 0069.876 76l-3.788 12.32a5.017 5.017 0 003.303 6.27l.426.132a4.996 4.996 0 006.25-3.314l3.788-12.322a5.02 5.02 0 00-3.304-6.27z" stroke="#FF6C1A" stroke-miterlimit="10" stroke-linecap="square"/><path d="M90.37 65.885l-.425-.132a4.996 4.996 0 00-6.25 3.314L79.907 81.39a5.017 5.017 0 003.303 6.27l.426.13a4.996 4.996 0 006.25-3.313l3.788-12.322a5.018 5.018 0 00-3.303-6.27zM50.294 66.9l-4.68 2.888m8.447 23.108l-5.42-2.427a8.446 8.446 0 00-4.715-.689l-2.918.42-4.953 1.49a9.237 9.237 0 01-5.444-.038l-2.384-.755a8.42 8.42 0 01-3.732-2.415L14.317 77.11c-1.052-1.174-1.566-4.706-.956-6.162l8.447-17.716s1.535-3.851 6.526-1.54c4.991 2.31 3.456 5.776 3.456 5.776l-6.911 14.636 13.053 9.243" stroke="#FF6C1A" stroke-miterlimit="10" stroke-linecap="square"/><path d="M31.026 75.18l5.951-2.889 7.87 3.274m11.133 5.007l-4.99-2.311M84.059 39.47v6.455m0-12.498l.045 1.366m-.045-23.738v17.904m5.706 12.031v1.707m0-15.809v9.601m0-15.613v1.52M30.237 39.844v6.081m0-12.166v1.034m0-23.383v17.962m-6.123 11.177v2.338m0-15.895v9.497m0-15.613v2.168m49.144 25.3v-.767m0 10.299v-5.334M43.029 50.27l.015-.756m-.016 10.287v-5.334" stroke="#FF6C1A" stroke-miterlimit="10" stroke-linecap="square"/><mask id="path-25-outside-1_21_1641" maskUnits="userSpaceOnUse" x="36.07" y="15.099" width="10" height="13" fill="#000"><path fill="#fff" d="M36.07 15.099h10v13h-10z"/><path d="M41.2 27.27c-.868 0-1.633-.238-2.294-.713s-1.183-1.131-1.565-1.968c-.372-.847-.558-1.818-.558-2.913 0-1.095.186-2.061.558-2.898.382-.847.904-1.508 1.565-1.983.661-.476 1.426-.713 2.293-.713.868 0 1.633.237 2.294.713.66.475 1.177 1.136 1.55 1.983.381.837.572 1.803.572 2.898 0 1.095-.19 2.066-.573 2.913-.372.837-.888 1.493-1.55 1.968-.66.475-1.425.713-2.293.713zm0-1.008c.67 0 1.25-.186 1.735-.558.496-.382.878-.919 1.146-1.611.27-.692.403-1.498.403-2.417 0-.93-.134-1.736-.403-2.418-.268-.692-.65-1.224-1.146-1.596-.486-.382-1.064-.573-1.736-.573-.66 0-1.24.191-1.735.573-.496.372-.878.904-1.147 1.596-.268.682-.403 1.488-.403 2.418 0 .92.135 1.725.403 2.417.269.692.651 1.23 1.147 1.611.496.372 1.074.558 1.735.558z"/></mask><path d="M41.2 27.27c-.868 0-1.633-.238-2.294-.713s-1.183-1.131-1.565-1.968c-.372-.847-.558-1.818-.558-2.913 0-1.095.186-2.061.558-2.898.382-.847.904-1.508 1.565-1.983.661-.476 1.426-.713 2.293-.713.868 0 1.633.237 2.294.713.66.475 1.177 1.136 1.55 1.983.381.837.572 1.803.572 2.898 0 1.095-.19 2.066-.573 2.913-.372.837-.888 1.493-1.55 1.968-.66.475-1.425.713-2.293.713zm0-1.008c.67 0 1.25-.186 1.735-.558.496-.382.878-.919 1.146-1.611.27-.692.403-1.498.403-2.417 0-.93-.134-1.736-.403-2.418-.268-.692-.65-1.224-1.146-1.596-.486-.382-1.064-.573-1.736-.573-.66 0-1.24.191-1.735.573-.496.372-.878.904-1.147 1.596-.268.682-.403 1.488-.403 2.418 0 .92.135 1.725.403 2.417.269.692.651 1.23 1.147 1.611.496.372 1.074.558 1.735.558z" fill="#FF6C1A"/><path d="M38.906 26.557l.18-.252-.18.252zm-1.565-1.968l-.284.124.002.005.282-.13zm0-5.811l-.282-.127-.001.001.283.126zm1.565-1.983l.18.251-.18-.251zm6.136 1.983l-.284.125.002.004.282-.129zm0 5.81l-.282-.127-.001.002.283.126zm-1.55 1.969l-.18-.252.18.252zm-.557-.852l.188.246.001-.001-.19-.245zm1.146-1.612l-.288-.112.288.112zm0-4.835l-.288.113v.001l.288-.114zm-1.146-1.596l-.192.244.006.004.186-.248zm-3.471 0l.186.248.003-.002-.19-.246zm-1.147 1.596l.288.114.001-.002-.289-.112zm0 4.835l.29-.112-.29.112zm1.147 1.611l-.19.246.004.003.186-.248zm1.735 1.256c-.807 0-1.507-.22-2.112-.655l-.362.503c.718.516 1.546.771 2.474.771v-.62zm-2.112-.655c-.612-.44-1.101-1.05-1.464-1.845l-.564.258c.402.879.956 1.58 1.666 2.09l.362-.503zm-1.462-1.84c-.352-.802-.532-1.73-.532-2.79h-.62c0 1.13.192 2.145.584 3.038l.568-.249zm-.532-2.79c0-1.06.18-1.98.531-2.771l-.566-.252c-.393.883-.585 1.894-.585 3.024h.62zm.53-2.77c.364-.804.853-1.42 1.464-1.859l-.362-.503c-.711.511-1.265 1.218-1.666 2.108l.564.255zm1.464-1.859c.605-.434 1.305-.654 2.112-.654v-.62c-.928 0-1.756.255-2.474.771l.362.503zm2.112-.654c.808 0 1.508.22 2.113.654l.361-.503c-.717-.516-1.546-.771-2.474-.771v.62zm2.113.654c.61.439 1.094 1.053 1.446 1.857l.568-.25c-.391-.89-.94-1.598-1.653-2.11l-.361.503zm1.448 1.86c.36.79.546 1.71.546 2.77h.62c0-1.131-.198-2.143-.602-3.027l-.564.258zm.546 2.77c0 1.059-.185 1.985-.546 2.785l.565.255c.403-.893.6-1.91.6-3.04h-.62zm-.547 2.787c-.352.793-.836 1.403-1.447 1.842l.361.503c.712-.51 1.261-1.213 1.652-2.093l-.566-.252zm-1.447 1.842c-.605.435-1.305.655-2.113.655v.62c.928 0 1.757-.256 2.474-.772l-.361-.503zm-2.113.267c.733 0 1.38-.204 1.924-.621l-.377-.492c-.426.326-.936.494-1.547.494v.62zm1.925-.622c.548-.423.961-1.01 1.246-1.745l-.577-.224c-.252.65-.604 1.136-1.047 1.478l.378.491zm1.246-1.745c.286-.735.424-1.58.424-2.53h-.62c0 .89-.13 1.657-.381 2.306l.577.224zm.424-2.53c0-.958-.138-1.804-.424-2.53l-.577.227c.251.637.382 1.403.382 2.304h.62zm-.424-2.529c-.285-.735-.699-1.319-1.25-1.732l-.371.496c.44.331.792.812 1.044 1.46l.577-.224zm-1.243-1.727c-.546-.43-1.193-.64-1.928-.64v.62c.609 0 1.118.171 1.544.507l.383-.487zm-1.928-.64c-.725 0-1.371.212-1.924.638l.378.49a2.46 2.46 0 011.546-.508v-.62zm-1.921.635c-.55.413-.964.997-1.25 1.732l.578.224c.252-.648.603-1.129 1.044-1.46l-.372-.496zm-1.25 1.73c-.285.727-.424 1.573-.424 2.532h.62c0-.901.13-1.667.382-2.304l-.577-.227zm-.424 2.532c0 .949.139 1.794.424 2.53l.578-.225c-.252-.65-.382-1.415-.382-2.305h-.62zm.424 2.53c.285.734.698 1.321 1.247 1.744l.378-.49c-.443-.343-.795-.83-1.047-1.48l-.578.225zm1.25 1.747c.553.414 1.198.62 1.921.62v-.62c-.599 0-1.11-.168-1.55-.496l-.371.495z" fill="#FF6C1A" mask="url(#path-25-outside-1_21_1641)"/><mask id="path-27-outside-2_21_1641" maskUnits="userSpaceOnUse" x="66.284" y="29.045" width="10" height="13" fill="#000"><path fill="#fff" d="M66.284 29.045h10v13h-10z"/><path d="M71.413 41.215c-.867 0-1.632-.237-2.293-.712-.661-.476-1.183-1.132-1.565-1.968-.372-.847-.558-1.818-.558-2.913 0-1.096.186-2.061.558-2.898.382-.847.904-1.508 1.565-1.984.661-.475 1.426-.712 2.293-.712.868 0 1.633.237 2.294.712.66.476 1.177 1.137 1.55 1.984.381.837.573 1.803.573 2.898 0 1.095-.192 2.066-.574 2.913-.372.836-.888 1.492-1.55 1.968-.66.475-1.425.712-2.293.712zm0-1.007c.672 0 1.25-.186 1.736-.558.496-.382.878-.92 1.147-1.611.268-.692.402-1.498.402-2.418 0-.93-.134-1.735-.402-2.417-.269-.692-.651-1.224-1.147-1.596-.486-.382-1.064-.573-1.736-.573-.66 0-1.24.19-1.735.573-.496.372-.878.904-1.147 1.596-.268.682-.403 1.488-.403 2.417 0 .92.135 1.726.403 2.418.269.692.651 1.23 1.147 1.611.496.372 1.074.558 1.735.558z"/></mask><path d="M71.413 41.215c-.867 0-1.632-.237-2.293-.712-.661-.476-1.183-1.132-1.565-1.968-.372-.847-.558-1.818-.558-2.913 0-1.096.186-2.061.558-2.898.382-.847.904-1.508 1.565-1.984.661-.475 1.426-.712 2.293-.712.868 0 1.633.237 2.294.712.66.476 1.177 1.137 1.55 1.984.381.837.573 1.803.573 2.898 0 1.095-.192 2.066-.574 2.913-.372.836-.888 1.492-1.55 1.968-.66.475-1.425.712-2.293.712zm0-1.007c.672 0 1.25-.186 1.736-.558.496-.382.878-.92 1.147-1.611.268-.692.402-1.498.402-2.418 0-.93-.134-1.735-.402-2.417-.269-.692-.651-1.224-1.147-1.596-.486-.382-1.064-.573-1.736-.573-.66 0-1.24.19-1.735.573-.496.372-.878.904-1.147 1.596-.268.682-.403 1.488-.403 2.417 0 .92.135 1.726.403 2.418.269.692.651 1.23 1.147 1.611.496.372 1.074.558 1.735.558z" fill="#FF6C1A"/><path d="M69.12 40.503l.181-.252-.18.252zm-1.565-1.968l-.284.124.002.004.282-.128zm0-5.811l-.282-.128-.001.002.283.126zm1.565-1.984l.181.252-.18-.252zm6.136 1.984l-.284.124.002.005.282-.13zm0 5.81l-.282-.127v.002l.282.126zm-1.55 1.969l-.18-.252.18.252zm-.557-.853l.188.246h.001l-.19-.246zm1.147-1.611l-.29-.112.29.112zm0-4.835l-.29.112.001.002.289-.114zm-1.147-1.596l-.192.244.006.004.186-.248zm-3.471 0l.186.248.003-.002-.19-.246zm-1.147 1.596l.289.114v-.002l-.289-.112zm0 4.835l.29-.112-.29.112zm1.147 1.611l-.19.246.004.002.186-.248zm1.735 1.256c-.807 0-1.507-.22-2.112-.655l-.362.503c.718.516 1.546.771 2.474.771v-.62zm-2.112-.655c-.612-.44-1.101-1.05-1.464-1.845l-.564.257c.402.88.956 1.58 1.666 2.091l.362-.503zm-1.462-1.84c-.352-.802-.532-1.73-.532-2.79h-.62c0 1.13.192 2.145.584 3.038l.568-.249zm-.532-2.79c0-1.06.18-1.981.531-2.771l-.566-.252c-.393.883-.585 1.894-.585 3.023h.62zm.53-2.77c.364-.804.853-1.42 1.464-1.859l-.362-.503c-.711.511-1.265 1.218-1.666 2.107l.565.255zm1.464-1.859c.605-.435 1.305-.655 2.112-.655v-.62c-.928 0-1.756.256-2.474.772l.362.503zm2.112-.655c.808 0 1.508.22 2.113.655l.362-.503c-.718-.516-1.546-.771-2.475-.771v.62zm2.113.655c.61.439 1.094 1.053 1.447 1.856l.567-.249c-.391-.89-.94-1.598-1.652-2.11l-.362.503zm1.448 1.86c.361.79.546 1.71.546 2.77h.62c0-1.132-.198-2.143-.602-3.027l-.564.258zm.546 2.77c0 1.058-.185 1.985-.546 2.785l.565.255c.403-.893.6-1.91.6-3.04h-.62zm-.547 2.787c-.352.793-.836 1.403-1.447 1.842l.362.503c.71-.51 1.26-1.213 1.651-2.093l-.566-.252zm-1.447 1.842c-.605.435-1.305.655-2.113.655v.62c.929 0 1.757-.256 2.475-.772l-.362-.503zm-2.113.267c.733 0 1.38-.204 1.924-.622l-.377-.492c-.426.327-.936.494-1.547.494v.62zm1.925-.622c.549-.423.961-1.01 1.247-1.745l-.578-.224c-.252.649-.604 1.136-1.047 1.478l.378.49zm1.247-1.745c.285-.735.423-1.58.423-2.53h-.62c0 .89-.13 1.657-.381 2.306l.578.224zm.423-2.53c0-.958-.138-1.804-.424-2.53l-.577.227c.251.637.382 1.403.382 2.303h.62zm-.423-2.529c-.286-.735-.7-1.319-1.25-1.732l-.372.496c.441.33.792.811 1.044 1.46l.578-.224zm-1.244-1.727c-.545-.43-1.193-.64-1.928-.64v.62c.609 0 1.118.171 1.544.507l.384-.487zm-1.928-.64c-.725 0-1.371.211-1.924.638l.378.49a2.46 2.46 0 011.546-.508v-.62zm-1.921.635c-.55.413-.964.997-1.25 1.732l.578.224c.252-.649.603-1.13 1.044-1.46l-.372-.496zm-1.25 1.73c-.285.727-.424 1.573-.424 2.531h.62c0-.9.13-1.666.382-2.303l-.577-.227zm-.424 2.531c0 .95.139 1.795.424 2.53l.578-.224c-.252-.65-.382-1.416-.382-2.306h-.62zm.424 2.53c.286.735.698 1.322 1.247 1.745l.378-.491c-.443-.342-.795-.829-1.047-1.478l-.578.224zm1.25 1.747c.553.415 1.198.62 1.921.62v-.62c-.598 0-1.11-.167-1.55-.496l-.371.496z" fill="#FF6C1A" mask="url(#path-27-outside-2_21_1641)"/><mask id="path-29-outside-3_21_1641" maskUnits="userSpaceOnUse" x="51.565" y="56.163" width="10" height="13" fill="#000"><path fill="#fff" d="M51.565 56.163h10v13h-10z"/><path d="M56.694 68.333c-.868 0-1.633-.237-2.294-.713-.661-.475-1.183-1.13-1.565-1.968-.372-.847-.558-1.818-.558-2.913 0-1.095.186-2.06.558-2.897.382-.848.904-1.509 1.565-1.984.661-.475 1.426-.713 2.294-.713.867 0 1.632.238 2.293.713.66.475 1.177 1.136 1.55 1.984.382.836.573 1.802.573 2.897 0 1.095-.191 2.066-.574 2.913-.372.837-.888 1.493-1.55 1.968-.66.475-1.425.713-2.292.713zm0-1.007c.67 0 1.25-.186 1.735-.558.496-.382.878-.92 1.147-1.612.268-.692.402-1.497.402-2.417 0-.93-.134-1.735-.402-2.417-.269-.692-.651-1.224-1.147-1.596-.486-.382-1.064-.573-1.736-.573-.66 0-1.24.19-1.735.573-.496.372-.878.904-1.147 1.596-.268.682-.403 1.487-.403 2.417 0 .92.135 1.725.403 2.417.269.693.651 1.23 1.147 1.612.496.372 1.074.558 1.736.558z"/></mask><path d="M56.694 68.333c-.868 0-1.633-.237-2.294-.713-.661-.475-1.183-1.13-1.565-1.968-.372-.847-.558-1.818-.558-2.913 0-1.095.186-2.06.558-2.897.382-.848.904-1.509 1.565-1.984.661-.475 1.426-.713 2.294-.713.867 0 1.632.238 2.293.713.66.475 1.177 1.136 1.55 1.984.382.836.573 1.802.573 2.897 0 1.095-.191 2.066-.574 2.913-.372.837-.888 1.493-1.55 1.968-.66.475-1.425.713-2.292.713zm0-1.007c.67 0 1.25-.186 1.735-.558.496-.382.878-.92 1.147-1.612.268-.692.402-1.497.402-2.417 0-.93-.134-1.735-.402-2.417-.269-.692-.651-1.224-1.147-1.596-.486-.382-1.064-.573-1.736-.573-.66 0-1.24.19-1.735.573-.496.372-.878.904-1.147 1.596-.268.682-.403 1.487-.403 2.417 0 .92.135 1.725.403 2.417.269.693.651 1.23 1.147 1.612.496.372 1.074.558 1.736.558z" fill="#FF6C1A"/><path d="M54.4 67.62l.181-.251-.18.251zm-1.565-1.968l-.284.125.002.004.282-.129zm0-5.81l-.282-.128-.001.002.283.126zm1.565-1.984l.181.252-.18-.252zm6.136 1.984l-.284.124.002.004.282-.128zm0 5.81l-.282-.127v.001l.282.126zm-1.55 1.968l-.18-.251.18.251zm-.557-.852l.188.246h.001l-.189-.246zm1.147-1.612l-.29-.112.29.112zm0-4.834l-.29.112.001.002.289-.114zm-1.147-1.596l-.192.243.006.005.186-.248zm-3.471 0l.186.248.003-.003-.189-.245zm-1.147 1.596l.289.113v-.001l-.289-.112zm0 4.834l.29-.112-.29.112zm1.147 1.612l-.19.245.004.003.186-.248zm1.736 1.255c-.808 0-1.508-.22-2.113-.654l-.362.503c.718.516 1.546.771 2.474.771v-.62zm-2.113-.654c-.612-.44-1.101-1.051-1.464-1.845l-.564.257c.402.88.956 1.58 1.666 2.09l.362-.502zm-1.462-1.841c-.352-.802-.532-1.729-.532-2.789h-.62c0 1.13.192 2.145.584 3.038l.568-.25zm-.532-2.789c0-1.06.18-1.981.531-2.772l-.566-.251c-.393.883-.585 1.893-.585 3.023h.62zm.53-2.77c.364-.805.853-1.42 1.464-1.86l-.362-.503c-.711.512-1.265 1.218-1.666 2.108l.565.255zm1.464-1.86c.605-.434 1.305-.654 2.112-.654v-.62c-.928 0-1.756.256-2.474.771l.362.504zm2.112-.654c.808 0 1.508.22 2.113.655l.362-.504c-.718-.515-1.546-.77-2.474-.77v.62zm2.113.655c.61.438 1.094 1.053 1.447 1.856l.567-.25c-.391-.89-.94-1.598-1.652-2.11l-.362.504zm1.449 1.86c.36.79.545 1.71.545 2.77h.62c0-1.132-.198-2.143-.602-3.027l-.563.257zm.545 2.77c0 1.058-.185 1.984-.546 2.785l.565.255c.403-.894.6-1.91.6-3.04h-.62zm-.547 2.786c-.352.793-.836 1.403-1.447 1.843l.362.503c.71-.511 1.26-1.213 1.651-2.094l-.566-.252zm-1.447 1.843c-.605.434-1.305.654-2.112.654v.62c.928 0 1.756-.255 2.474-.771l-.362-.503zm-2.112.267c.732 0 1.378-.204 1.923-.622l-.377-.492c-.426.326-.936.494-1.547.494v.62zm1.924-.623c.548-.422.961-1.01 1.246-1.744l-.577-.225c-.252.65-.604 1.137-1.047 1.479l.378.49zm1.246-1.744c.286-.736.424-1.58.424-2.53h-.62c0 .89-.13 1.656-.381 2.305l.578.225zm.424-2.53c0-.958-.138-1.804-.424-2.53l-.577.226c.251.638.382 1.403.382 2.304h.62zm-.423-2.53c-.286-.735-.7-1.318-1.25-1.731l-.372.496c.441.33.792.811 1.044 1.46l.578-.224zm-1.244-1.727c-.545-.429-1.193-.64-1.928-.64v.62c.609 0 1.118.172 1.544.507l.384-.487zm-1.928-.64c-.725 0-1.371.212-1.924.638l.378.491c.439-.338.95-.509 1.547-.509v-.62zm-1.921.636c-.55.413-.964.996-1.25 1.732l.578.224c.252-.649.603-1.13 1.044-1.46l-.372-.496zm-1.249 1.73c-.286.727-.425 1.573-.425 2.531h.62c0-.9.13-1.666.382-2.303l-.577-.228zm-.425 2.531c0 .95.139 1.794.424 2.53l.578-.225c-.252-.649-.382-1.415-.382-2.305h-.62zm.424 2.53c.286.734.698 1.322 1.247 1.744l.378-.49c-.443-.342-.795-.83-1.047-1.479l-.578.225zm1.25 1.747c.553.415 1.198.62 1.922.62v-.62c-.6 0-1.112-.167-1.55-.496l-.372.496z" fill="#FF6C1A" mask="url(#path-29-outside-3_21_1641)"/><mask id="path-31-outside-4_21_1641" maskUnits="userSpaceOnUse" x="53.891" y="39.892" width="4" height="13" fill="#000"><path fill="#fff" d="M53.891 39.892h4v13h-4z"/><path d="M56.153 51.892v-9.654l-1.828.806v-1.038l2.23-.961h.73v10.847h-1.132z"/></mask><path d="M56.153 51.892v-9.654l-1.828.806v-1.038l2.23-.961h.73v10.847h-1.132z" fill="#FF6C1A"/><path d="M56.153 51.892h-.31v.31h.31v-.31zm0-9.654h.31v-.475l-.435.191.125.284zm-1.828.806h-.31v.475l.434-.192-.124-.283zm0-1.038l-.123-.285-.187.08v.204h.31zm2.23-.961v-.31h-.063l-.059.025.123.285zm.73 0h.309v-.31h-.31v.31zm0 10.847v.31h.309v-.31h-.31zm-.822 0v-9.654h-.62v9.654h.62zm-.435-9.938l-1.828.806.25.567 1.828-.805-.25-.568zm-1.394 1.09v-1.038h-.62v1.038h.62zm-.187-.754l2.231-.96-.245-.57-2.231.96.245.57zm2.109-.935h.728v-.62h-.728v.62zm.418-.31v10.847h.62V41.045h-.62zm.31 10.537h-1.131v.62h1.131v-.62z" fill="#FF6C1A" mask="url(#path-31-outside-4_21_1641)"/><mask id="path-33-outside-5_21_1641" maskUnits="userSpaceOnUse" x="38.392" y="32.144" width="4" height="13" fill="#000"><path fill="#fff" d="M38.392 32.144h4v13h-4z"/><path d="M40.654 44.144V34.49l-1.829.806v-1.038l2.232-.96h.728v10.846h-1.131z"/></mask><path d="M40.654 44.144V34.49l-1.829.806v-1.038l2.232-.96h.728v10.846h-1.131z" fill="#FF6C1A"/><path d="M40.654 44.144h-.31v.31h.31v-.31zm0-9.654h.31v-.475l-.435.192.125.283zm-1.829.806h-.31v.475l.435-.191-.125-.284zm0-1.038l-.122-.285-.187.08v.205h.31zm2.232-.96v-.31h-.064l-.059.025.123.284zm.728 0h.31v-.31h-.31v.31zm0 10.846v.31h.31v-.31h-.31zm-.821 0V34.49h-.62v9.654h.62zm-.435-9.937l-1.829.806.25.567 1.829-.806-.25-.567zm-1.394 1.09v-1.04h-.62v1.04h.62zm-.187-.754l2.231-.961-.245-.57-2.231.961.245.57zm2.109-.936h.728v-.62h-.728v.62zm.418-.31v10.847h.62V33.297h-.62zm.31 10.537h-1.131v.62h1.131v-.62z" fill="#FF6C1A" mask="url(#path-33-outside-5_21_1641)"/><mask id="path-35-outside-6_21_1641" maskUnits="userSpaceOnUse" x="53.112" y="21.297" width="4" height="13" fill="#000"><path fill="#fff" d="M53.112 21.297h4v13h-4z"/><path d="M55.374 33.297v-9.653l-1.829.805v-1.038l2.232-.96h.728v10.846h-1.131z"/></mask><path d="M55.374 33.297v-9.653l-1.829.805v-1.038l2.232-.96h.728v10.846h-1.131z" fill="#FF6C1A"/><path d="M55.374 33.297h-.31v.31h.31v-.31zm0-9.653h.31v-.476l-.435.192.125.284zm-1.829.805h-.31v.476l.435-.192-.125-.284zm0-1.038l-.122-.284-.188.08v.204h.31zm2.232-.96v-.31h-.064l-.059.025.123.285zm.728 0h.31v-.31h-.31v.31zm0 10.846v.31h.31v-.31h-.31zm-.821 0v-9.653h-.62v9.653h.62zm-.435-9.937l-1.829.806.25.567 1.829-.806-.25-.567zm-1.394 1.09v-1.04h-.62v1.038h.62zm-.187-.754l2.231-.96-.245-.57-2.231.96.245.57zm2.109-.936h.728v-.62h-.728v.62zm.418-.31v10.847h.62V22.451h-.62zm.31 10.537h-1.131v.62h1.131v-.62z" fill="#FF6C1A" mask="url(#path-35-outside-6_21_1641)"/><mask id="path-37-outside-7_21_1641" maskUnits="userSpaceOnUse" x="67.837" y="12.775" width="4" height="13" fill="#000"><path fill="#fff" d="M67.837 12.775h4v13h-4z"/><path d="M70.099 24.775V15.12l-1.829.806v-1.038l2.232-.96h.728v10.846H70.1z"/></mask><path d="M70.099 24.775V15.12l-1.829.806v-1.038l2.232-.96h.728v10.846H70.1z" fill="#FF6C1A"/><path d="M70.099 24.775h-.31v.31h.31v-.31zm0-9.654h.31v-.475l-.435.192.125.283zm-1.829.806h-.31v.475l.436-.191-.126-.284zm0-1.038l-.122-.285-.187.08v.205h.31zm2.232-.96v-.31h-.064l-.059.024.123.285zm.728 0h.31v-.31h-.31v.31zm0 10.846v.31h.31v-.31h-.31zm-.821 0V15.12h-.62v9.654h.62zm-.435-9.937l-1.828.805.25.568 1.828-.806-.25-.567zm-1.394 1.089v-1.038h-.62v1.038h.62zm-.187-.754l2.231-.96-.245-.57-2.231.961.245.57zm2.109-.935h.728v-.62h-.728v.62zm.418-.31v10.847h.62V13.928h-.62zm.31 10.537H70.1v.62h1.131v-.62z" fill="#FF6C1A" mask="url(#path-37-outside-7_21_1641)"/></g><defs><clipPath id="clip0_21_1641"><path fill="#fff" transform="translate(12.05 10)" d="M0 0h82.901v86H0z"/></clipPath></defs></svg>