<svg width="107" height="106" fill="none" xmlns="http://www.w3.org/2000/svg"><path d="M54.98 91.475a2.96 2.96 0 100-5.92 2.96 2.96 0 000 5.92zm11.1-17.758a2.96 2.96 0 100-5.92 2.96 2.96 0 000 5.92zM41.294 99.614c1.43 0 2.59-1.326 2.59-2.96 0-1.635-1.16-2.96-2.59-2.96s-2.59 1.325-2.59 2.96 1.16 2.96 2.59 2.96zM57.94 50.041v12.578M49.8 54.48v22.306l5.919 3.601v5.169" stroke="#FF6C1A" stroke-miterlimit="10"/><path d="M40.923 93.695v-44.19s-5.664-7.672-6.739-11.047c-.906-2.844-1.4-10.042-1.4-12.854 0-3.062 4.551-4.42 4.551-4.42m28.609 45.875v-17.4l4.576-11.483V9.896s-.39-2.77-3.505-2.77c-3.115 0-3.894 2.823-3.894 2.823v11.39M63.12 9.52s-.39-3.133-3.505-3.133c-3.505 0-3.894 3.132-3.894 3.132v10.926M55.719 9.52s-.428-3.133-3.855-3.133c-3.856 0-4.284 3.132-4.284 3.132v10.926" stroke="#FF6C1A" stroke-miterlimit="10"/><path d="M47.584 10.395s-.39-3.268-3.505-3.268c-3.505 0-3.894 3.268-3.894 3.268v16.71" stroke="#FF6C1A" stroke-miterlimit="10"/><path d="M70.517 15.72l11.229-.02h.374s2.025-8.573 10.48-8.573c7.674 0 9.732 7.756 9.732 7.756H92.226v7.756h10.106c-.748 3.266-4.491 8.165-9.919 8.165-7.673 0-10.667-7.756-10.667-7.756H70.89M37.223 15.72l-11.49-.02h-.384s-2.072-8.573-10.724-8.573c-7.851 0-9.958 7.756-9.958 7.756h10.341v7.756H4.667c.766 3.266 4.596 8.165 10.15 8.165 7.851 0 10.915-7.756 10.915-7.756h7.227" stroke="#FF6C1A" stroke-miterlimit="10" stroke-linecap="square"/></svg>