<svg width="107" height="106" fill="none" xmlns="http://www.w3.org/2000/svg"><path stroke="#FF6C1A" d="M8.5 31.1h76.701v58.501H8.5zm7.2 13.15h61.25"/><path d="M16.4 24.3h76.3v57.05" stroke="#FF6C1A"/><path d="M22.7 15.9H99v57.05m-83.3-17.5h5.25m9.448 0h11.55M15.7 63.5H29m9.45 0h14m3.501 0h3.5m3.152 7h3.5m-7.001 0h-9.45m-3.852 0h-2.801m-3.849 0H15.7m0 7.7h8.75m4.201 0h2.8m4.2 0h9.8" stroke="#FF6C1A"/><circle cx="16.75" cy="37.949" r="1.05" fill="#FF6C1A"/><circle cx="23.05" cy="37.949" r="1.05" fill="#FF6C1A"/><circle cx="29.35" cy="37.949" r="1.05" fill="#FF6C1A"/><circle cx="25.852" cy="55.45" r="1.05" fill="#FF6C1A"/><circle cx="33.552" cy="63.151" r="1.05" fill="#FF6C1A"/></svg>