<svg width="107" height="106" fill="none" xmlns="http://www.w3.org/2000/svg"><path d="M35.023 25.21a29.694 29.694 0 00-10.875 7.2 30.227 30.227 0 00-6.81 11.216 30.558 30.558 0 00-1.448 13.09 30.443 30.443 0 004.192 12.468 29.967 29.967 0 009.033 9.465 29.477 29.477 0 0012.149 4.656c4.338.625 8.76.27 12.946-1.04a29.628 29.628 0 0011.274-6.54" stroke="#FF6C1A" stroke-miterlimit="10"/><path d="M8.582 54.411a37.752 37.752 0 008.475 22.886C22.327 83.75 29.579 88.222 37.651 90M25.684 21.822c-7.049 4.556-12.37 11.397-15.1 19.409M69.73 25.21c-6.716-5.947-15.334-9.22-24.25-9.21m18.752 45.17H42.956v4.251L26.604 53.458 42.956 42.06v4.605H77.21l5.793-9.087h6.123M70.584 61.169h-3.2m21.742 8.505h-6.35l-5.67-8.504H73.59m-14.455-7.164h29.991m-36.077 0h2.766m-8.318 0h2.836m8.54 14.644h11.412l6.28 9.122M53.049 68.65h2.766" stroke="#FF6C1A" stroke-miterlimit="10"/><path d="M80.5 75.55c-2.566 0-4.645 2.11-4.645 4.711 0 2.602 2.08 4.711 4.645 4.711 2.565 0 4.644-2.109 4.644-4.71 0-2.603-2.079-4.712-4.644-4.712zM58.872 39.379h11.412l7.513-10.94m-24.748 10.94h2.766" stroke="#FF6C1A" stroke-miterlimit="10"/><path d="M80.5 19.81c-2.566 0-4.645 2.11-4.645 4.712s2.08 4.71 4.645 4.71c2.565 0 4.644-2.108 4.644-4.71S83.066 19.81 80.5 19.81zm13.272 45.153c-2.565 0-4.645 2.109-4.645 4.71 0 2.603 2.08 4.712 4.645 4.712 2.565 0 4.645-2.11 4.645-4.711 0-2.602-2.08-4.711-4.645-4.711zm0-15.668c-2.565 0-4.645 2.109-4.645 4.71 0 2.603 2.08 4.712 4.645 4.712 2.565 0 4.645-2.11 4.645-4.711 0-2.602-2.08-4.711-4.645-4.711zm0-16.427c-2.565 0-4.645 2.11-4.645 4.711 0 2.602 2.08 4.711 4.645 4.711 2.565 0 4.645-2.11 4.645-4.711 0-2.602-2.08-4.711-4.645-4.711z" stroke="#FF6C1A" stroke-miterlimit="10"/></svg>