<svg width="106" height="106" fill="none" xmlns="http://www.w3.org/2000/svg"><path d="M39.621 16.63h50.396l8.672 9.025V92.79H39.62V16.63z" stroke="#FF6C1A"/><mask id="path-2-outside-1_21_645" maskUnits="userSpaceOnUse" x="60.176" y="37.882" width="8" height="10" fill="#000"><path fill="#fff" d="M60.176 37.882h8v10h-8z"/><path d="M64.027 47.01c-.652 0-1.226-.179-1.722-.535-.497-.357-.888-.85-1.175-1.478-.28-.636-.42-1.365-.42-2.187 0-.822.14-1.547.42-2.176.287-.636.678-1.132 1.175-1.489.496-.357 1.07-.535 1.722-.535.651 0 1.225.178 1.722.535.496.357.884.853 1.163 1.49.287.628.43 1.353.43 2.175 0 .822-.143 1.551-.43 2.187-.28.628-.667 1.12-1.163 1.478a2.88 2.88 0 01-1.722.535zm0-.756c.504 0 .938-.14 1.303-.42.372-.286.659-.69.86-1.21.202-.519.303-1.124.303-1.814 0-.698-.1-1.303-.302-1.815-.202-.52-.489-.92-.861-1.198-.365-.287-.8-.43-1.303-.43-.497 0-.931.143-1.303.43-.373.279-.66.678-.861 1.198-.202.512-.303 1.117-.303 1.815 0 .69.101 1.295.303 1.815.201.52.488.923.86 1.21.373.279.807.419 1.304.419z"/></mask><path d="M64.027 47.01c-.652 0-1.226-.179-1.722-.535-.497-.357-.888-.85-1.175-1.478-.28-.636-.42-1.365-.42-2.187 0-.822.14-1.547.42-2.176.287-.636.678-1.132 1.175-1.489.496-.357 1.07-.535 1.722-.535.651 0 1.225.178 1.722.535.496.357.884.853 1.163 1.49.287.628.43 1.353.43 2.175 0 .822-.143 1.551-.43 2.187-.28.628-.667 1.12-1.163 1.478a2.88 2.88 0 01-1.722.535zm0-.756c.504 0 .938-.14 1.303-.42.372-.286.659-.69.86-1.21.202-.519.303-1.124.303-1.814 0-.698-.1-1.303-.302-1.815-.202-.52-.489-.92-.861-1.198-.365-.287-.8-.43-1.303-.43-.497 0-.931.143-1.303.43-.373.279-.66.678-.861 1.198-.202.512-.303 1.117-.303 1.815 0 .69.101 1.295.303 1.815.201.52.488.923.86 1.21.373.279.807.419 1.304.419z" fill="#FF6C1A"/><path d="M62.305 46.475l.175-.244-.175.244zm-1.175-1.478l-.275.12.002.005.273-.125zm0-4.363l-.274-.123v.002l.274.121zm1.175-1.489l.175.244-.175-.244zm4.607 1.49l-.275.12.002.004.273-.125zm0 4.362l-.274-.123v.001l.274.122zm-1.163 1.478l-.176-.244.176.244zm-.42-.64l.183.238-.182-.238zm.862-1.21l-.28-.109.28.109zm0-3.63l-.28.108v.002l.28-.11zm-.861-1.198l-.186.236.006.004.18-.24zm-2.606 0l.18.24.003-.003-.183-.237zm-.861 1.198l.279.11v-.002l-.28-.108zm0 3.63l.28-.109-.28.109zm.86 1.21l-.182.237.003.003.18-.24zm1.304.875c-.593 0-1.105-.161-1.547-.479l-.35.487c.55.396 1.187.592 1.897.592v-.6zm-1.547-.479c-.449-.323-.81-.772-1.077-1.358l-.546.249c.306.67.729 1.205 1.273 1.596l.35-.487zm-1.075-1.355c-.26-.591-.394-1.278-.394-2.066h-.6c0 .856.145 1.627.444 2.308l.55-.242zm-.394-2.066c0-.788.134-1.47.393-2.054l-.548-.243c-.3.673-.445 1.44-.445 2.297h.6zm.392-2.052c.269-.595.629-1.047 1.077-1.37l-.35-.486c-.545.391-.968.932-1.274 1.609l.547.247zm1.077-1.37c.442-.317.954-.478 1.547-.478v-.6c-.71 0-1.346.196-1.897.592l.35.487zm1.547-.478c.593 0 1.105.161 1.546.479l.35-.487c-.55-.396-1.186-.592-1.896-.592v.6zm1.546.479c.448.321.804.772 1.064 1.366l.55-.241c-.298-.679-.718-1.22-1.263-1.612l-.35.487zm1.066 1.37c.266.582.403 1.264.403 2.05h.6c0-.856-.15-1.625-.457-2.3l-.546.25zm.403 2.05c0 .788-.137 1.474-.404 2.065l.547.246c.308-.68.457-1.453.457-2.31h-.6zm-.404 2.066c-.26.586-.617 1.034-1.065 1.356l.35.487c.545-.391.965-.928 1.263-1.599l-.548-.244zm-1.065 1.356c-.441.318-.953.479-1.546.479v.6c.71 0 1.346-.196 1.897-.592l-.35-.487zm-1.546.323c.563 0 1.063-.158 1.485-.481l-.365-.476c-.307.235-.675.357-1.12.357v.6zm1.486-.482c.423-.326.74-.778.957-1.339l-.56-.217c-.185.479-.442.833-.763 1.081l.366.475zm.957-1.339c.218-.561.323-1.204.323-1.923h-.6c0 .662-.097 1.228-.282 1.706l.56.217zm.323-1.923c0-.726-.105-1.37-.323-1.925l-.558.22c.184.469.281 1.035.281 1.705h.6zm-.323-1.924c-.218-.561-.535-1.01-.96-1.33l-.36.48c.319.24.575.59.76 1.067l.56-.217zm-.955-1.325c-.422-.332-.923-.495-1.488-.495v.6c.443 0 .81.125 1.117.366l.371-.471zm-1.488-.495a2.37 2.37 0 00-1.486.493l.366.475a1.774 1.774 0 011.12-.368v-.6zm-1.483.49c-.426.32-.743.769-.961 1.33l.56.217c.185-.477.441-.827.76-1.066l-.36-.48zm-.96 1.329c-.219.555-.324 1.199-.324 1.925h.6c0-.67.097-1.236.282-1.705l-.558-.22zm-.324 1.925c0 .719.105 1.362.323 1.923l.56-.217c-.186-.478-.283-1.044-.283-1.706h-.6zm.323 1.923c.218.562.534 1.013.958 1.34l.366-.476c-.322-.248-.579-.602-.765-1.08l-.559.216zm.96 1.342c.428.32.927.479 1.484.479v-.6c-.436 0-.807-.122-1.123-.36l-.36.48z" fill="#FF6C1A" mask="url(#path-2-outside-1_21_645)"/><mask id="path-4-outside-2_21_645" maskUnits="userSpaceOnUse" x="81.43" y="46.178" width="8" height="10" fill="#000"><path fill="#fff" d="M81.43 46.178h8v10h-8z"/><path d="M85.28 55.306c-.65 0-1.225-.179-1.721-.535-.497-.357-.888-.85-1.175-1.478-.28-.636-.42-1.365-.42-2.187 0-.822.14-1.547.42-2.176.287-.636.678-1.132 1.175-1.489.496-.357 1.07-.535 1.722-.535.651 0 1.225.178 1.721.535.497.357.885.853 1.164 1.49.287.628.43 1.353.43 2.175 0 .822-.143 1.551-.43 2.187-.28.628-.667 1.12-1.164 1.477-.496.357-1.07.536-1.721.536zm0-.756c.505 0 .939-.14 1.304-.42.372-.286.659-.69.86-1.21.202-.519.303-1.124.303-1.814 0-.698-.1-1.303-.302-1.815-.202-.52-.49-.92-.861-1.198-.365-.287-.8-.43-1.303-.43-.497 0-.931.143-1.303.43-.373.279-.66.678-.861 1.198-.202.512-.303 1.117-.303 1.815 0 .69.101 1.295.303 1.815.201.52.488.923.86 1.21.373.279.807.419 1.304.419z"/></mask><path d="M85.28 55.306c-.65 0-1.225-.179-1.721-.535-.497-.357-.888-.85-1.175-1.478-.28-.636-.42-1.365-.42-2.187 0-.822.14-1.547.42-2.176.287-.636.678-1.132 1.175-1.489.496-.357 1.07-.535 1.722-.535.651 0 1.225.178 1.721.535.497.357.885.853 1.164 1.49.287.628.43 1.353.43 2.175 0 .822-.143 1.551-.43 2.187-.28.628-.667 1.12-1.164 1.477-.496.357-1.07.536-1.721.536zm0-.756c.505 0 .939-.14 1.304-.42.372-.286.659-.69.86-1.21.202-.519.303-1.124.303-1.814 0-.698-.1-1.303-.302-1.815-.202-.52-.49-.92-.861-1.198-.365-.287-.8-.43-1.303-.43-.497 0-.931.143-1.303.43-.373.279-.66.678-.861 1.198-.202.512-.303 1.117-.303 1.815 0 .69.101 1.295.303 1.815.201.52.488.923.86 1.21.373.279.807.419 1.304.419z" fill="#FF6C1A"/><path d="M83.559 54.77l.175-.243-.175.243zm-1.175-1.477l-.275.12.002.005.273-.125zm0-4.363l-.274-.123v.001l.274.122zm1.175-1.489l.175.244-.175-.244zm4.607 1.49l-.275.12.002.004.273-.125zm0 4.362l-.274-.123v.001l.274.122zm-1.164 1.477l-.175-.243.175.243zm-.418-.64l.182.239-.182-.238zm.86-1.21l-.28-.108.28.109zm0-3.63l-.28.11h.001l.28-.11zm-.86-1.197l-.186.235.006.005.18-.24zm-2.606 0l.18.24.003-.003-.183-.237zm-.861 1.198l.279.11v-.002l-.28-.108zm0 3.63l.28-.109-.28.109zm.86 1.21l-.183.237.004.003.18-.24zm1.304.875c-.594 0-1.105-.161-1.547-.48l-.35.488c.55.396 1.187.592 1.897.592v-.6zm-1.547-.48c-.449-.322-.81-.77-1.077-1.358l-.546.25c.306.67.729 1.205 1.273 1.596l.35-.487zm-1.076-1.354c-.26-.591-.393-1.278-.393-2.066h-.6c0 .856.145 1.627.444 2.308l.55-.242zm-.393-2.066c0-.788.134-1.47.393-2.054l-.549-.244c-.299.674-.444 1.442-.444 2.298h.6zm.392-2.052c.269-.595.629-1.047 1.077-1.37l-.35-.486c-.545.391-.968.932-1.274 1.609l.547.247zm1.077-1.37c.442-.317.954-.478 1.547-.478v-.6c-.71 0-1.347.196-1.897.591l.35.488zm1.547-.478c.593 0 1.104.161 1.546.479l.35-.488c-.55-.395-1.187-.591-1.896-.591v.6zm1.546.479c.447.321.803.772 1.064 1.366l.55-.241c-.298-.679-.718-1.22-1.264-1.613l-.35.488zm1.066 1.37c.266.582.403 1.264.403 2.05h.6c0-.856-.15-1.625-.457-2.3l-.546.25zm.403 2.05c0 .788-.137 1.474-.404 2.065l.547.246c.308-.68.457-1.453.457-2.31h-.6zm-.404 2.066c-.26.586-.617 1.034-1.065 1.356l.35.487c.545-.391.965-.928 1.263-1.6l-.548-.243zm-1.065 1.356c-.442.318-.953.479-1.546.479v.6c.71 0 1.346-.196 1.896-.592l-.35-.487zm-1.546.322c.563 0 1.063-.157 1.485-.48l-.365-.477c-.307.236-.675.357-1.12.357v.6zm1.486-.48c.423-.327.74-.779.957-1.34l-.56-.217c-.185.478-.442.833-.764 1.081l.367.475zm.957-1.34c.218-.561.323-1.204.323-1.923h-.6c0 .661-.097 1.228-.282 1.706l.56.217zm.323-1.923c0-.726-.105-1.37-.323-1.925l-.559.22c.185.469.282 1.035.282 1.705h.6zm-.323-1.924c-.218-.561-.535-1.01-.96-1.33l-.36.48c.319.24.575.59.76 1.067l.56-.217zm-.955-1.325c-.422-.332-.923-.495-1.488-.495v.6c.443 0 .81.125 1.117.366l.371-.471zm-1.488-.495c-.56 0-1.059.163-1.487.493l.367.475a1.774 1.774 0 011.12-.368v-.6zm-1.484.49c-.425.32-.742.769-.96 1.33l.56.217c.185-.477.441-.827.76-1.066l-.36-.48zm-.96 1.329c-.218.555-.323 1.199-.323 1.925h.6c0-.67.097-1.236.282-1.705l-.558-.22zm-.323 1.925c0 .719.105 1.362.323 1.923l.56-.217c-.186-.478-.283-1.044-.283-1.706h-.6zm.323 1.923c.218.561.534 1.013.957 1.34l.367-.476c-.322-.248-.58-.603-.765-1.08l-.56.216zm.96 1.342c.428.32.927.478 1.484.478v-.6a1.81 1.81 0 01-1.124-.358l-.36.48z" fill="#FF6C1A" mask="url(#path-4-outside-2_21_645)"/><mask id="path-6-outside-3_21_645" maskUnits="userSpaceOnUse" x="80.195" y="21.972" width="3" height="10" fill="#000"><path fill="#fff" d="M80.195 21.972h3v10h-3z"/><path d="M81.894 30.972v-7.248l-1.373.605v-.78l1.675-.72h.547v8.143h-.85z"/></mask><path d="M81.894 30.972v-7.248l-1.373.605v-.78l1.675-.72h.547v8.143h-.85z" fill="#FF6C1A"/><path d="M81.894 30.972h-.3v.3h.3v-.3zm0-7.248h.3v-.46l-.421.186.12.274zm-1.373.605h-.3v.46l.421-.185-.12-.275zm0-.78l-.119-.275-.18.078v.198h.3zm1.675-.72v-.3h-.061l-.057.024.118.275zm.547 0h.3v-.3h-.3v.3zm0 8.143v.3h.3v-.3h-.3zm-.55 0v-7.248h-.6v7.248h.6zm-.42-7.522l-1.373.605.242.549 1.373-.605-.242-.55zm-.952.88v-.78h-.6v.78h.6zm-.181-.505l1.675-.721-.237-.551-1.676.721.238.551zm1.556-.697h.547v-.6h-.547v.6zm.247-.3v8.144h.6v-8.144h-.6zm.3 7.844h-.85v.6h.85v-.6z" fill="#FF6C1A" mask="url(#path-6-outside-3_21_645)"/><mask id="path-8-outside-4_21_645" maskUnits="userSpaceOnUse" x="49.57" y="29.234" width="3" height="10" fill="#000"><path fill="#fff" d="M49.57 29.234h3v10h-3z"/><path d="M51.269 38.234v-7.248l-1.373.605v-.78l1.675-.721h.547v8.144h-.85z"/></mask><path d="M51.269 38.234v-7.248l-1.373.605v-.78l1.675-.721h.547v8.144h-.85z" fill="#FF6C1A"/><path d="M51.269 38.234h-.3v.3h.3v-.3zm0-7.248h.3v-.46l-.421.185.12.275zm-1.373.605h-.3v.46l.421-.186-.12-.274zm0-.78l-.119-.275-.18.078v.197h.3zm1.675-.721v-.3h-.061l-.057.024.118.276zm.547 0h.3v-.3h-.3v.3zm0 8.144v.3h.3v-.3h-.3zm-.55 0v-7.248h-.6v7.248h.6zm-.42-7.523l-1.373.605.242.55 1.373-.606-.242-.549zm-.952.88v-.78h-.6v.78h.6zm-.181-.504l1.675-.721-.237-.552-1.676.722.238.55zm1.556-.697h.547v-.6h-.547v.6zm.247-.3v8.144h.6V30.09h-.6zm.3 7.844h-.85v.6h.85v-.6z" fill="#FF6C1A" mask="url(#path-8-outside-4_21_645)"/><mask id="path-10-outside-5_21_645" maskUnits="userSpaceOnUse" x="76.199" y="71.593" width="3" height="10" fill="#000"><path fill="#fff" d="M76.199 71.593h3v10h-3z"/><path d="M77.898 80.593v-7.248l-1.373.605v-.78l1.675-.72h.547v8.143h-.85z"/></mask><path d="M77.898 80.593v-7.248l-1.373.605v-.78l1.675-.72h.547v8.143h-.85z" fill="#FF6C1A"/><path d="M77.898 80.593h-.3v.3h.3v-.3zm0-7.248h.3v-.46l-.421.186.12.274zm-1.373.605h-.3v.46l.421-.185-.121-.275zm0-.78l-.119-.275-.181.078v.198h.3zm1.675-.72v-.3h-.062l-.056.024.118.275zm.547 0h.3v-.3h-.3v.3zm0 8.143v.3h.3v-.3h-.3zm-.55 0v-7.248h-.6v7.248h.6zm-.42-7.522l-1.373.605.242.549 1.373-.605-.242-.55zm-.952.88v-.78h-.6v.78h.6zm-.181-.505l1.675-.721-.237-.551-1.676.721.238.551zm1.556-.697h.547v-.6H78.2v.6zm.247-.3v8.144h.6V72.45h-.6zm.3 7.844h-.85v.6h.85v-.6z" fill="#FF6C1A" mask="url(#path-10-outside-5_21_645)"/><path stroke="#FF6C1A" stroke-linecap="square" d="M47.445 24.908H71.84M54.379 57.523h35.736M59.86 33.104h30.43M61.602 65.929h28.789M73.777 41.406H90.29M52.371 74.71h20M47.547 50.686h29.86M47.445 83.511h42.952"/><path d="M85.871 16.21l-3.5-3.5h-46v25m0 40v10.5h3" stroke="#FF6C1A"/><mask id="mask0_21_645" style="mask-type:alpha" maskUnits="userSpaceOnUse" x="19" y="37" width="42" height="42"><circle cx="40.392" cy="57.787" r="19.967" fill="#FFB865" stroke="#FD971F"/></mask><g mask="url(#mask0_21_645)" stroke="#FF6C1A"><path d="M34.009 8.982h60.996l10.53 10.96v81.204H34.009V8.982z"/><path stroke-linecap="square" d="M60.54 68.716h34.969M51.103 78.739h41.454"/></g><circle cx="40.391" cy="57.787" r="20.287" stroke="#FF6C1A"/><path d="M23.55 69.594L2.372 82.907" stroke="#FF6C1A"/></svg>