<svg width="107" height="106" fill="none" xmlns="http://www.w3.org/2000/svg"><path d="M88.2 21.497c2.13 0 3.856-1.716 3.856-3.831 0-2.116-1.726-3.832-3.855-3.832-2.13 0-3.855 1.716-3.855 3.832 0 2.115 1.726 3.83 3.855 3.83zM69.78 36.395c2.13 0 3.856-1.716 3.856-3.832 0-2.115-1.727-3.83-3.856-3.83-2.13 0-3.855 1.715-3.855 3.83 0 2.116 1.726 3.831 3.855 3.831zm-18.42-21.71c2.13 0 3.856-1.715 3.856-3.83 0-2.116-1.726-3.832-3.856-3.832-2.129 0-3.855 1.716-3.855 3.832 0 2.115 1.726 3.83 3.855 3.83zm-18.78 21.71c2.13 0 3.855-1.716 3.855-3.832 0-2.115-1.726-3.83-3.855-3.83-2.13 0-3.855 1.715-3.855 3.83 0 2.116 1.726 3.831 3.855 3.831zm-13.776-21.71c2.129 0 3.855-1.715 3.855-3.83 0-2.116-1.726-3.832-3.855-3.832-2.13 0-3.856 1.716-3.856 3.832 0 2.115 1.726 3.83 3.856 3.83zM32.58 8.513v13.792M75.778 6.598v5.959l-6.854 3.405v8.156" stroke="#FF6C1A" stroke-miterlimit="10"/><path d="M18.804 15.903V35.45l23.132 12.438m40.032-12.375l6.233-3.588V21.496M77.475 38.102l2.351-1.354M60.48 47.888l13.859-7.982m-4.559-3.511v6.138M43.286 60.509a10.338 10.338 0 01-2.42-6.662c0-5.76 4.699-10.429 10.495-10.429 5.796 0 10.495 4.67 10.495 10.429 0 2.61-.964 4.993-2.553 6.82M51.36 14.685v17.879" stroke="#FF6C1A" stroke-miterlimit="10"/><path d="M32.58 4.683a1.922 1.922 0 001.928-1.916A1.922 1.922 0 0032.58.852a1.922 1.922 0 00-1.928 1.915c0 1.058.863 1.916 1.928 1.916zm43.198-.852a1.922 1.922 0 001.928-1.915A1.922 1.922 0 0075.778 0a1.922 1.922 0 00-1.927 1.916c0 1.057.863 1.915 1.927 1.915zM51.36 39.587a1.922 1.922 0 001.928-1.915 1.922 1.922 0 00-1.928-1.916 1.922 1.922 0 00-1.927 1.916 1.92 1.92 0 001.927 1.915z" fill="#FF6C1A"/><path d="M32.58 36.395v6.138m15.567 62.607l-4.18-6.713a9.152 9.152 0 01-1.389-4.848v-9.113c0-1.537.51-3.027 1.452-4.244l4.117-5.308m.001 7.185V52.485s0-2.682 3.855-2.682c3.453 0 3.714 3.193 3.714 3.193v29.103m8.014 0V70.167s-1.023-2.911-4.022-2.911c-2.09 0-3.414 1.264-3.856 2.128" stroke="#FF6C1A" stroke-miterlimit="10"/><path d="M63.57 73.215s1.285-2.554 3.855-2.554c4.284 0 4.284 3.227 4.284 3.227v8.21-7.606s0-2.516 3.718-2.737c3.992-.242 3.992 3.163 3.992 3.163v19.231c0 1.912-.44 3.797-1.289 5.513l-2.707 5.478" stroke="#FF6C1A" stroke-miterlimit="10"/></svg>