<svg width="24" height="24" fill="none" xmlns="http://www.w3.org/2000/svg"><g clip-path="url(#clip0_2044_3687)" fill="#FF6C1A"><path d="M12 0a12 12 0 1012 12A12.013 12.013 0 0012 0zm0 22a10 10 0 1110-10 10.011 10.011 0 01-10 10z"/><path d="M11.821 5c.552 0 1.029.091 1.43.275.401.17.727.392.978.666.263.275.458.582.583.922.125.34.188.68.188 1.02 0 .326-.019.614-.056.862a2.82 2.82 0 01-.226.745c-.113.235-.276.49-.49.765-.2.261-.47.582-.808.96-.25.288-.451.517-.602.687-.138.17-.25.327-.338.47a2.439 2.439 0 00-.189.412 9.82 9.82 0 00-.131.53c-.226.993-.483 1.49-.771 1.49-.163 0-.301-.079-.414-.235a1.804 1.804 0 01-.263-.569 4.14 4.14 0 01-.132-.686 5.643 5.643 0 01-.038-.569c0-.248.013-.457.038-.627a1.48 1.48 0 01.15-.49c.076-.157.176-.314.301-.471.138-.157.32-.334.546-.53.414-.379.746-.797.997-1.254.25-.458.37-.89.357-1.295-.012-.326-.088-.581-.226-.764-.125-.196-.332-.294-.62-.294a1.42 1.42 0 00-.81.255c-.25.17-.375.457-.375.862 0 .288.15.517.451.687.15.078.238.228.263.45.038.223-.006.4-.131.53-.1.104-.289.157-.565.157a1.57 1.57 0 01-.827-.216 1.956 1.956 0 01-.602-.569 2.457 2.457 0 01-.357-.784A3.14 3.14 0 019 7.51c0-.34.075-.66.226-.961.138-.314.326-.582.564-.804.25-.235.545-.418.884-.549A3.28 3.28 0 0111.821 5zm-.865 11.04a.776.776 0 01.357-.099c.251-.026.483.065.696.275.214.196.32.444.32.745 0 .314-.1.568-.3.765a.914.914 0 01-.66.274.94.94 0 01-.563-.177 1.156 1.156 0 01-.339-.411 1.204 1.204 0 01-.075-.51c.025-.17.081-.333.17-.49.1-.157.231-.281.394-.373z"/></g><defs><clipPath id="clip0_2044_3687"><path fill="#fff" d="M0 0h24v24H0z"/></clipPath></defs></svg>