<svg width="445" height="468" fill="none" xmlns="http://www.w3.org/2000/svg"><path d="M357.556 268.861H84.81v167.126h272.746V268.861z" stroke="url(#paint0_linear_2045_7017)" stroke-width="2" stroke-miterlimit="10"/><path d="M159.999 410.496h-1.68v-29.4h1.68v12.936h17.85v-12.936h1.68v29.4h-1.68v-14.91h-17.85v14.91zm26.437 0h-1.806l11.718-29.4h1.428l11.718 29.4h-1.806l-3.99-10.122h-13.272l-3.99 10.122zm10.626-26.922l-6.006 15.204h12.012l-6.006-15.204zm27.525 27.342c-2.548 0-4.83-.672-6.846-2.016-1.988-1.344-3.542-3.164-4.662-5.46s-1.68-4.844-1.68-7.644.56-5.348 1.68-7.644c1.12-2.324 2.674-4.144 4.662-5.46 2.016-1.344 4.298-2.016 6.846-2.016 2.744 0 5.054.602 6.93 1.806 1.904 1.204 3.36 2.772 4.368 4.704l-1.302 1.05c-.924-1.82-2.226-3.276-3.906-4.368-1.68-1.092-3.71-1.638-6.09-1.638-2.24 0-4.242.602-6.006 1.806-1.736 1.176-3.094 2.8-4.074 4.872-.952 2.072-1.428 4.368-1.428 6.888 0 2.492.476 4.774 1.428 6.846.98 2.072 2.338 3.71 4.074 4.914 1.764 1.204 3.766 1.806 6.006 1.806 2.464 0 4.522-.546 6.174-1.638 1.652-1.092 2.912-2.562 3.78-4.41l1.386.966a12.22 12.22 0 01-4.41 4.83c-1.876 1.204-4.186 1.806-6.93 1.806zm19.207-.42h-1.68v-29.4h1.68v18.27l16.38-18.27h2.184L251.69 392.94l11.718 17.556h-1.974l-10.836-16.338-6.804 7.518v8.82zm33.57.42c-2.66 0-4.984-.602-6.972-1.806-1.96-1.204-3.402-2.912-4.326-5.124l1.512-.798c.784 1.96 2.03 3.486 3.738 4.578 1.708 1.064 3.738 1.596 6.09 1.596 2.856 0 5.04-.602 6.552-1.806 1.54-1.204 2.31-2.786 2.31-4.746 0-1.4-.294-2.548-.882-3.444-.588-.896-1.568-1.61-2.94-2.142-1.372-.532-3.262-.91-5.67-1.134-3.5-.364-6.048-1.162-7.644-2.394-1.596-1.232-2.394-2.982-2.394-5.25 0-1.4.392-2.688 1.176-3.864.812-1.204 1.974-2.156 3.486-2.856 1.54-.7 3.346-1.05 5.418-1.05 4.844 0 8.232 1.834 10.164 5.502l-1.386.966c-.896-1.652-2.058-2.884-3.486-3.696-1.428-.812-3.192-1.218-5.292-1.218-1.764 0-3.276.28-4.536.84-1.26.532-2.226 1.274-2.898 2.226a5.309 5.309 0 00-.966 3.108c0 1.82.7 3.22 2.1 4.2 1.4.952 3.752 1.61 7.056 1.974 2.576.252 4.62.714 6.132 1.386 1.512.644 2.59 1.526 3.234 2.646.672 1.092 1.008 2.492 1.008 4.2 0 1.54-.406 2.926-1.218 4.158-.812 1.232-2.016 2.198-3.612 2.898-1.568.7-3.486 1.05-5.754 1.05z" fill="#FF6C1A"/><path d="M145.613 145.282l77.592-47.078 73.547 47.078" stroke="url(#paint1_linear_2045_7017)" stroke-width="2" stroke-miterlimit="10"/><path d="M278.718 250.03l16.812-16.831a85.688 85.688 0 0017.869-26.175l20.339-46.301c4.232-9.674 3.503-20.808-1.999-29.824L273.357 35.19c-7.218-11.863-17.234-22.997-30.566-26.857-5.784-1.672-17.775-1.93-24.03-1.93h4.844c-6.255 0-18.246.258-24.03 1.93-13.332 3.86-23.348 15.017-30.567 26.857l-58.381 95.71a32.285 32.285 0 00-1.999 29.824l20.338 46.301a85.709 85.709 0 0017.87 26.175l16.812 16.831" stroke="url(#paint2_linear_2045_7017)" stroke-width="2" stroke-miterlimit="10"/><path d="M380.952 439.518s32.918-11.77 47.025-23.539c12.744-10.616 12.415-38.345 7.336-54.139l-32.847-102.3c-6.607-20.62-20.15-38.298-38.278-50.091l-40.372-26.222" stroke="url(#paint3_linear_2045_7017)" stroke-width="2" stroke-miterlimit="10"/><path d="M64.049 439.518s-32.918-11.77-47.026-23.539C4.28 405.363 4.61 377.634 9.688 361.84l32.847-102.3c6.607-20.62 20.15-38.298 38.278-50.091l40.371-26.222" stroke="url(#paint4_linear_2045_7017)" stroke-width="2" stroke-miterlimit="10"/><path d="M170.091 153.521l21.161 58.847s5.878 15.3 27.04 15.3c23.512 0 29.39-12.946 29.39-12.946l24.618-61.201" stroke="url(#paint5_linear_2045_7017)" stroke-width="2" stroke-miterlimit="10"/><path fill-rule="evenodd" clip-rule="evenodd" d="M209.91 354.917c3.411 2.454 7.421 3.68 12.03 3.68 4.548 0 8.498-1.226 11.85-3.68 3.411-2.514 6.045-6.165 7.9-10.953 1.294-3.382 2.137-7.275 2.529-11.677l-5.449 1.04c-.592 5.327-2.012 9.71-4.262 13.151-3.052 4.668-7.242 7.002-12.568 7.002-5.327 0-9.546-2.334-12.659-7.002-1.304-1.995-2.329-4.306-3.076-6.935l-5.215.996a35.68 35.68 0 001.109 3.425c1.856 4.788 4.459 8.439 7.811 10.953zm-10.266-21.864a66.76 66.76 0 01-.328-6.774c0-6.943.928-12.808 2.783-17.596 1.856-4.848 4.459-8.499 7.811-10.953 3.411-2.513 7.421-3.77 12.03-3.77 4.548 0 8.498 1.257 11.85 3.77 3.411 2.454 6.045 6.105 7.9 10.953 1.695 4.373 2.615 9.646 2.762 15.817l-5.366 1.024v-.233c0-8.139-1.526-14.543-4.578-19.212-3.052-4.668-7.242-7.002-12.568-7.002-5.327 0-9.546 2.334-12.659 7.002-3.052 4.669-4.578 11.073-4.578 19.212v1.975c0 1.668.064 3.263.192 4.785l-5.251 1.002z" fill="#FF6C1A"/><path d="M171 348.883l34.868-9.619v3.12L171 348.883zm103-32.864l-34.868 9.618v-3.119L274 316.019z" fill="#FF6C1A"/><defs><linearGradient id="paint0_linear_2045_7017" x1="221.185" y1="418.031" x2="221.185" y2="260.858" gradientUnits="userSpaceOnUse"><stop stop-color="#FF6C1A" stop-opacity="0"/><stop offset="1" stop-color="#FF6C1A"/></linearGradient><linearGradient id="paint1_linear_2045_7017" x1="221.184" y1="140.224" x2="221.184" y2="95.95" gradientUnits="userSpaceOnUse"><stop stop-color="#FF6C1A" stop-opacity="0"/><stop offset="1" stop-color="#FF6C1A"/></linearGradient><linearGradient id="paint2_linear_2045_7017" x1="221.18" y1="223.853" x2="221.18" y2="-5.265" gradientUnits="userSpaceOnUse"><stop stop-color="#FF6C1A" stop-opacity="0"/><stop offset="1" stop-color="#FF6C1A"/></linearGradient><linearGradient id="paint3_linear_2045_7017" x1="381.207" y1="411.981" x2="381.207" y2="170.953" gradientUnits="userSpaceOnUse"><stop stop-color="#FF6C1A" stop-opacity="0"/><stop offset="1" stop-color="#FF6C1A"/></linearGradient><linearGradient id="paint4_linear_2045_7017" x1="63.796" y1="411.981" x2="63.796" y2="170.953" gradientUnits="userSpaceOnUse"><stop stop-color="#FF6C1A" stop-opacity="0"/><stop offset="1" stop-color="#FF6C1A"/></linearGradient><linearGradient id="paint5_linear_2045_7017" x1="221.196" y1="219.701" x2="221.196" y2="149.97" gradientUnits="userSpaceOnUse"><stop stop-color="#FF6C1A" stop-opacity="0"/><stop offset="1" stop-color="#FF6C1A"/></linearGradient></defs></svg>