<svg width="34" height="34" fill="none" xmlns="http://www.w3.org/2000/svg"><path d="M11.87 20.67h-1.13l-.548-11.375h2.224l-.548 11.376zM10 23.862c0-.974.43-1.46 1.29-1.46.414 0 .733.125.955.375.23.251.344.613.344 1.085 0 .459-.115.817-.344 1.075-.229.25-.548.375-.956.375-.372 0-.68-.11-.924-.332-.243-.23-.365-.602-.365-1.118zm7.756-3.192h-1.128L16.08 9.296h2.224l-.548 11.376zm-1.87 3.191c0-.974.43-1.46 1.29-1.46.415 0 .734.125.956.375.229.251.344.613.344 1.085 0 .459-.115.817-.344 1.075-.23.25-.548.375-.956.375-.373 0-.68-.11-.924-.332-.243-.23-.365-.602-.365-1.118zm7.757-3.191h-1.128l-.548-11.375h2.223l-.547 11.376zm-1.87 3.191c0-.974.43-1.46 1.29-1.46.415 0 .734.125.956.375.229.251.343.613.343 1.085 0 .459-.114.817-.343 1.075-.23.25-.548.375-.956.375-.373 0-.68-.11-.924-.332-.244-.23-.366-.602-.366-1.118z" fill="#F7075D"/><circle cx="17" cy="17" r="12.5" stroke="#F7075D"/></svg>