<svg width="196" height="170" fill="none" xmlns="http://www.w3.org/2000/svg"><g clip-path="url(#clip0_2063_5635)"><mask id="mask0_2063_5635" style="mask-type:alpha" maskUnits="userSpaceOnUse" x="0" y="0" width="196" height="170"><path d="M1.796 85.014L49.905 1.686h96.219l48.109 83.328-48.109 83.328H49.905L1.795 85.014z" fill="#C4C4C4" stroke="#66D9EF" stroke-width="2"/></mask><g clip-path="url(#clip1_2063_5635)" mask="url(#mask0_2063_5635)"><mask id="mask1_2063_5635" style="mask-type:luminance" maskUnits="userSpaceOnUse" x="20" y="13" width="156" height="156"><path d="M175.8 13.4H20.2V169h155.6V13.4z" fill="#fff"/></mask><g mask="url(#mask1_2063_5635)"><path d="M155.6 160.7c0 5.7-1.3 16-2 21.2-2.2 18.3-14.1 7.7-39.4 9.7-25.3 2-42.1 6.1-53.6-3.4-6.8-5.6-18.1-13.5-17.8-29 .2-10.8 1.8-21.8 4.4-30 6.1-20 36.6-27.8 36.6-27.8l29 2.2s20.4 3.3 28.4 13c11.2 13.6 14.4 29.4 14.4 44.1z" fill="#171814"/><path d="M83.8 101.5l.1-1.1h-.4l.3 1.1zm29 2.3l.2-1.1h-.1l-.1 1.1zm41.7 56.9c0 5.6-1.3 15.9-2 21.1l2.2.3c2-11.3 2-15.3 2-21.3l-2.2-.1zm-1.9 21c-.5 4.5-1.7 6.9-3.2 8.3-1.5 1.3-3.6 1.8-6.8 1.7-3.1-.1-7-.6-11.8-1-5.6-.6-11.1-.6-16.7-.2l.2 2.2c5.4-.4 10.9-.3 16.3.2 4.6.4 8.7 1 11.9 1 3.3.1 6.1-.4 8.2-2.3 2.1-1.9 2-1.5 2.6-6.2l-.7-3.7zm-38.4 8.8c-12.8 1-23.1 2.5-31.9 2.6-8.8.1-15.4-1.2-20.9-5.7L60 189c6 5 13.4 6.3 22.3 6.2 8.9-.1 19.5-1.6 32-2.6l-.1-2.1zm-52.8-3.2c-6.9-5.7-17.7-13.2-17.4-28.1h-2.2c-.3 16.1-.4 24.9 15.6 29.7l4-1.6zM44 159.2c.2-10.7 1.8-21.6 4.3-29.7l-2.1-.7c-2.6 8.3-4.2 19.4-4.4 30.3l2.2.1zm4.3-29.6c2.9-9.6 11.8-16.3 20.1-20.7 3.5-1.9 7.2-3.5 11-4.8 1.5-.5 2.7-.9 3.5-1.1l1-.3.2-.1h.1l-.3-1.1-.3-1.1h-.1l-.3.1c-.2.1-.6.2-1 .3l-3.6 1.2c-3.9 1.4-7.7 3-11.3 4.9-8.5 4.5-18 11.6-21.2 22.1l2.2.6zm35.5-27l29 2.3.2-2.2-29-2.2-.2 2.1zm29.1 1.2l-.2 1.1h.3l.7.1c.6.1 1.4.3 2.4.5 2.6.6 5.2 1.3 7.8 2.2 6.1 2 12.9 5.2 16.7 9.8l1.7-1.4c-4.2-5.1-11.6-8.4-17.7-10.5-3.1-1-5.9-1.8-8-2.2-1-.2-1.9-.4-2.5-.5l-.7-.1h-.3l-.2 1zm27.5 13.7c10.9 13.2 14 28.7 14.1 43.2h2.2c-.1-14.7-3.3-30.8-14.6-44.6l-1.7 1.4z" fill="#B17E72"/><path d="M155.6 160.7c0 5.7-5.9 12.1-6.5 17.2-2.2 18.3-9.6 11.7-34.9 13.7-25.3 2-42.1 6.1-53.6-3.4-6.8-5.6-18.1-13.5-17.8-29 .2-10.8 1.8-21.8 4.4-30 6.1-20 36.6-27.8 36.6-27.8l29 2.2s20.4 3.3 28.4 13c11.2 13.6 14.4 29.4 14.4 44.1z" fill="#171814"/><path d="M155.6 170.2c-2.2 18.3-6.6 28.9-31.9 30.9-25.3 2-60.2 3.8-71.7-5.8-6.8-5.6-9.3-20.6-9-36.1 2.8-2.6 13.4-9.4 33.4-.5l1.4 10.4 55.4 1s5.9-16 22.6-10.8" fill="#E6A066"/><path d="M120.8 77.7l8-6.8-1.2-12.6-10.6-6.8-7 9 1.6 11.4 9.2 5.8z" fill="#B17E72"/><path d="M110 60.5l3.9-6.8-3.4-19.3s-3-3.6 1.8-4.7c1.4 8.1 9.4 22.9 9.4 22.9l5.8 5.8-1.7 3.6-7-.3-7.1 2.8-1.7-4z" fill="#B17E72"/><path d="M115.5 34.8s9.7 10.7 4.6 22.7C115.1 69.4 109 36 109 36l6.5-1.2z" fill="#171814"/><path d="M117.8 60.4h-.2c-4.5-.5-8.5-21.9-8.9-24.3l-.1-.3 7-1.2.1.1c.1.1 9.8 11 4.7 23-.8 1.8-1.6 2.7-2.6 2.7zm-8.4-24.2c1.2 6.7 5 23.1 8.3 23.5.9.1 1.7-1.2 2.2-2.4 4.7-10.9-3.4-21-4.5-22.2l-6 1.1z" fill="#B17E72"/><path d="M84 83.9l-.2 24.5s2.1 10.2 14.3 10.5c14.3.4 14.3-8 14.3-8V89.6l-24.6-4.9-3.8-.8z" fill="#E6A066"/><path d="M90 91c6.6 9.1 17 10.2 22.5 10.2l-.2-10.4L90 91z" fill="#1A1A1A"/><path d="M111.5 36c2.9 2.4 5.1 5.6 6.3 9.2 2.9 8.2 8.8 27.5 5.4 39.4-4.6 15.4-18.6 12.8-26.9 9.6-8.3-3.2-12-8.4-12-8.4-4.9 1.4-10.2-.6-12.9-4.9-5.1-7.5-1.7-15.9 2.8-17.8 4.5-1.9 9.7 1.5 9.7 1.5l-4-8.1c-.1.1 15.1-33.6 31.6-20.5z" fill="#E6A066"/><path d="M82.8 75c.3 0 .5-.1.7-.4.2-.3.2-.8-.1-1h-.1l-9.6-7c-.4-.2-.8-.1-1.1.2-.2.3-.1.8.2 1l9.6 7c.1.1.2.2.4.2z" fill="#1A1A1A"/><path d="M73.9 74.9h.2l6.3-1.6c.4-.1.6-.5.5-.9-.1-.4-.5-.6-.9-.5l-6.3 1.6c-.4.1-.6.5-.5.9.2.2.4.4.7.5z" fill="#1A1A1A"/><path d="M109 85.6c-2.4 0-5.2-.9-7.2-4-.2-.4-.1-.9.2-1.1.4-.2.9-.1 1.1.2 3.7 5.7 10.3 2.3 10.5 2.2.4-.2.9-.1 1.1.3.2.4.1.9-.3 1.1 0 0-2.5 1.3-5.4 1.3zM96.1 59h-.2c-.3-.1-.5-.5-.4-.8 0-.1 1.1-3.6 6.8-4.7.4-.1.7.2.8.5.1.4-.2.7-.5.8-4.9.9-5.8 3.6-5.8 3.7-.2.3-.4.5-.7.5zm21.8-4.4c-.1 0-.2 0-.3-.1 0 0-3.8-2.1-7-1.2-.3.1-.7-.1-.8-.5-.1-.3.1-.7.5-.8 3.7-1 7.8 1.3 8 1.4.3.2.4.6.3.9-.2.2-.5.3-.7.3zm-7.2 19.7c-.3 0-.5-.1-.7-.4-.2-.4-.1-.9.3-1.1 2.8-1.7.9-7.6-.1-9.7-.2-.4 0-.9.4-1.1.4-.2.9 0 1.1.4.2.4 4 8.9-.5 11.7-.2.2-.4.2-.5.2z" fill="#000" stroke="#000" stroke-width=".5" stroke-miterlimit="10"/><path d="M116.8 27c-1.2-3.2-4.7-6.6-6.8-8.4-.4-.3-1-.3-1.3.1-.1.2-.2.4-.2.6-.2 2-.8 4.7-3.4 4.9-3.3.4-6.4.2-10.5 1.1C77.6 28.7 74.7 40 74.7 40s-3.7-.4-6.7 7.4C65 55.5 69.8 68 69.8 68s2-4.9 12.9-1.2c0 0 2.3 8.9 4 7.8 1.7-1.2 3.1-14 1.8-19.7-1.3-5.7-2.3-8.7-2.3-8.7s1 0 2.7-.1c2 0 4-.1 6.1-.3.7-.1 1.4-.2 2.4-.4 7.7-.9 16.2-3.2 18.4-7.3 1.8-3.4 2.2-7.4 1-11.1z" fill="#171814"/><path d="M86.4 74.9c-.1 0-.2 0-.3-.1-1.6-.6-3.3-6.6-3.6-7.9C72.1 63.5 70.1 68 70.1 68l-.3.7-.3-.7c-.2-.5-4.8-12.7-1.8-20.8 2.6-6.9 5.8-7.6 6.8-7.6.5-1.6 4.4-11.6 20-14.7 2.7-.5 4.9-.7 7.1-.8 1.2-.1 2.3-.1 3.5-.3 2.3-.3 3-2.7 3.1-4.7 0-.3.1-.5.3-.8.2-.2.5-.4.9-.4.3 0 .6.1.9.3 2 1.8 5.6 5.2 6.9 8.5 1.2 3.7.8 7.9-1.1 11.3-2.7 5.1-14 6.9-18.7 7.5-.9.2-1.7.3-2.4.4-2 .2-4.1.3-6.1.3-1 0-1.8.1-2.3.1.3 1 1.1 3.8 2.2 8.3 1.3 5.6.1 18.7-1.9 20-.2.3-.3.3-.5.3zm-10.8-9.8c1.8 0 4.2.4 7.2 1.4l.2.1v.2c.7 2.7 2.2 7.2 3.3 7.6h.2c1.4-1 3.1-13.4 1.7-19.4-1.3-5.6-2.3-8.6-2.3-8.6l-.1-.4h.4s1 0 2.7-.1c2 0 4-.1 6-.3.6-.1 1.4-.2 2.3-.3 9.6-1.1 16.4-3.8 18.2-7.1 1.8-3.3 2.2-7.3 1-10.8-1.2-3.2-4.7-6.6-6.7-8.3-.1-.1-.3-.2-.5-.2s-.3.1-.4.2c-.1.1-.2.2-.2.4-.3 3.2-1.5 5-3.7 5.2-1.2.1-2.3.2-3.5.3-2.2.1-4.4.3-7 .8C78 28.9 75 40 75 40.1l-.1.3h-.3s-3.6-.3-6.4 7.2c-2.6 6.9.7 17.2 1.6 19.8.6-.9 2.2-2.3 5.8-2.3z" fill="#B17E72"/><path d="M81.6 88.3l6.1-5.7-1.3-13.8-6.6-6.2h-5.9l3.8 26.2 3.9-.5z" fill="#2F8C9B"/><path d="M77.7 88.8l8-6.7-1.2-12.7-10.6-6.8-7 9L68.5 83l9.2 5.8z" fill="#B17E72"/><path d="M66.9 71.6l3.9-6.8L68.1 47s1.7-5.9 6.5-7c1.4 8.1 4.1 23.6 4.1 23.6l5.8 5.8-1.7 3.6-7-.3-7.1 2.8-1.8-3.9z" fill="#B17E72"/><path d="M115.3 64c-.5 0-.8-.4-.8-.8 0-3.1-1.1-4.2-1.1-4.3-.3-.3-.3-.8 0-1.1.3-.3.8-.3 1.1 0 .2.2 1.6 1.7 1.6 5.4 0 .5-.3.8-.8.8zm-12.2 1.8c-.5 0-.8-.4-.8-.8 0-3.1-1.1-4.2-1.1-4.3-.3-.3-.3-.8 0-1.1.3-.3.8-.3 1.1 0 .2.2 1.6 1.7 1.6 5.4 0 .4-.4.8-.8.8z" fill="#000" stroke="#000" stroke-width=".5" stroke-miterlimit="10"/><path d="M73.65 80.572c1.81-.203 3.034-2.548 2.732-5.237-.302-2.69-2.014-4.705-3.826-4.502-1.81.203-3.034 2.548-2.733 5.237.302 2.69 2.015 4.705 3.826 4.502zm7.077-.693c1.427-.16 2.394-1.981 2.16-4.067-.234-2.085-1.58-3.646-3.007-3.486-1.427.16-2.394 1.98-2.16 4.066.234 2.086 1.58 3.647 3.007 3.487z" fill="#fff"/><path d="M73.415 80.585c1.043-.117 1.748-1.458 1.576-2.994-.172-1.537-1.158-2.688-2.2-2.571-1.043.117-1.749 1.458-1.576 2.994.172 1.537 1.157 2.688 2.2 2.571zm7.135-.595c.823-.093 1.38-1.146 1.245-2.354-.136-1.207-.913-2.111-1.736-2.02-.824.093-1.381 1.147-1.246 2.355.136 1.207.913 2.111 1.736 2.019z" fill="#171814"/><path d="M99.2 120h-1.1c-4.9-.2-8.7-1.9-11.3-5-4.6-5.5-3.7-13.7-3.6-14 0-.4.4-.6.7-.6.4 0 .6.4.6.7 0 .1-.9 7.9 3.4 13 2.3 2.8 5.8 4.3 10.4 4.5 4.7.2 8.4-1 10.8-3.6 4.1-4.3 3.4-11.6 3.4-11.7 0-.4.2-.7.6-.7.4 0 .7.2.7.6 0 .3.7 7.9-3.8 12.7-2.5 2.7-6.2 4.1-10.8 4.1z" fill="#B17E72"/></g></g></g><defs><clipPath id="clip0_2063_5635"><path fill="#fff" d="M0 0h196v170H0z"/></clipPath><clipPath id="clip1_2063_5635"><path fill="#fff" transform="translate(1 1)" d="M0 0h194v168H0z"/></clipPath></defs></svg>