<svg width="196" height="171" fill="none" xmlns="http://www.w3.org/2000/svg"><g clip-path="url(#clip0_2063_5892)"><mask id="mask0_2063_5892" style="mask-type:alpha" maskUnits="userSpaceOnUse" x="0" y="0" width="196" height="170"><path d="M1.796 85.014L49.905 1.686h96.218l48.11 83.328-48.109 83.328H49.905L1.795 85.014z" fill="#C4C4C4" stroke="#AE81FF" stroke-width="2"/></mask><g clip-path="url(#clip1_2063_5892)"><g clip-path="url(#clip2_2063_5892)" mask="url(#mask0_2063_5892)"><mask id="mask1_2063_5892" style="mask-type:luminance" maskUnits="userSpaceOnUse" x="3" y="2" width="194" height="168"><path d="M197 2H3v168h194V2z" fill="#fff"/></mask><g mask="url(#mask1_2063_5892)"><path d="M125.7 66.9c4.1.8-4.4 22.9 7.6 45.1 3.7 6.8 8.2 11.6 6.2 16-2.2 4.8-11.3 7.2-17.3 4.4-13.6-6.4-13-30.8-12.8-32.3 2.2-13.6 13.1-33.8 16.3-33.2z" fill="#FFCAA1"/></g><mask id="mask2_2063_5892" style="mask-type:luminance" maskUnits="userSpaceOnUse" x="3" y="2" width="194" height="168"><path d="M197 2H3v168h194V2z" fill="#fff"/></mask><g mask="url(#mask2_2063_5892)"><path d="M116.7 159.3l-38.5-43.4 8.2-27.8 31.1 5.8-.8 65.4z" fill="#E6A066"/></g><mask id="mask3_2063_5892" style="mask-type:luminance" maskUnits="userSpaceOnUse" x="3" y="2" width="194" height="168"><path d="M197 2H3v168h194V2z" fill="#fff"/></mask><g mask="url(#mask3_2063_5892)" stroke="#171814" stroke-miterlimit="10"><path d="M111.4 126.5l-3 .6-1 2.9 2 2.4 3.1-.6 1-3-2.1-2.3z" fill="#392E40"/><path d="M86.3 105.4c4.9 12.8 20.3 21.7 23.5 21.3 4.1-.5 9.2-18.3 8.4-20.3" stroke-width="1.22"/></g><mask id="mask4_2063_5892" style="mask-type:luminance" maskUnits="userSpaceOnUse" x="3" y="2" width="194" height="168"><path d="M197 2H3v168h194V2z" fill="#fff"/></mask><g mask="url(#mask4_2063_5892)"><path d="M117.8 105.8l-2.6 42.8-4.9-9.4-5.5-4.5-14-21.5-9.5-7.8c-23.2.2-45.1 30-42.8 65.4 79 .3 125.5.5 125.5.5-1.8-37.7-26-61.5-46.2-65.5z" fill="#171814" stroke="#392E40"/></g><mask id="mask5_2063_5892" style="mask-type:luminance" maskUnits="userSpaceOnUse" x="3" y="2" width="194" height="168"><path d="M197 2H3v168h194V2z" fill="#fff"/></mask><g mask="url(#mask5_2063_5892)"><path d="M97.7 36.5c9.8.3 27.1-3.8 29.4 15.8 1.8 15.5.4 29.9-10.7 42.9-6.4 7.5-17.7 6-24.6-.9-2.4-2.4-7.2-8.2-8.5-10.4-3.6-6.1-11.4-19.2-5.9-30.8 4.6-9.7 11-16.8 20.3-16.6z" fill="#E7A066"/></g><mask id="mask6_2063_5892" style="mask-type:luminance" maskUnits="userSpaceOnUse" x="3" y="2" width="194" height="168"><path d="M197 2H3v168h194V2z" fill="#fff"/></mask><g mask="url(#mask6_2063_5892)"><path d="M117.5 93.9c-2.7 2.9-12.2 5.5-26.3-4.1 0 0 10 15.8 26.2 9.3l.1-5.2z" fill="#171814"/></g><mask id="mask7_2063_5892" style="mask-type:luminance" maskUnits="userSpaceOnUse" x="3" y="2" width="194" height="168"><path d="M197 2H3v168h194V2z" fill="#fff"/></mask><g mask="url(#mask7_2063_5892)"><path d="M90.5 147.8l11.1-4.3 5.2-1.9 8.4 8.1.6 21.3" fill="#171814"/><path d="M90.5 147.8l11.1-4.3 5.2-1.9 8.4 8.1.6 21.3" stroke="#392E40"/></g><mask id="mask8_2063_5892" style="mask-type:luminance" maskUnits="userSpaceOnUse" x="3" y="2" width="194" height="168"><path d="M197 2H3v168h194V2z" fill="#fff"/></mask><g mask="url(#mask8_2063_5892)"><path d="M87.6 88.7c3.6 23.3 9.3 40.7 14 51.4 8.5 19.3 14.2 30.1 9.3 37.3-3.4 5.1-12.4 5.9-18.7 4.3-30-7.6-42.1-79.7-26.4-131.3 2.3-7.6 4.7-22.9 24.4-25.8 11.9-1.8 13.4 2.3 14.1 1.7 6-5.2 16-.7 21.6 7.6 5.6 8.3 1.4 20.7 1.4 19.9-1-14.4-12.8-18-17-14.4-2.3-1.1-5-.6-6.5-.1-5.2 1.6-3.5 9-10.5 15.9-4.8 4.7-9.9 7.4-14 8.1" fill="#FFCAA1"/></g><mask id="mask9_2063_5892" style="mask-type:luminance" maskUnits="userSpaceOnUse" x="3" y="2" width="194" height="168"><path d="M197 2H3v168h194V2z" fill="#fff"/></mask><g mask="url(#mask9_2063_5892)"><path d="M115.4 72.3c2.6 4.3.7 4.5-.5 4.7" stroke="#171814" stroke-width="2" stroke-miterlimit="10" stroke-linecap="round" stroke-linejoin="round"/></g><mask id="mask10_2063_5892" style="mask-type:luminance" maskUnits="userSpaceOnUse" x="3" y="2" width="194" height="168"><path d="M197 2H3v168h194V2z" fill="#fff"/></mask><g mask="url(#mask10_2063_5892)"><path d="M118.2 83.6s-5.2 4.5-10.3.3" stroke="#171814" stroke-width="2" stroke-miterlimit="10" stroke-linecap="round" stroke-linejoin="round"/></g><mask id="mask11_2063_5892" style="mask-type:luminance" maskUnits="userSpaceOnUse" x="3" y="2" width="194" height="168"><path d="M197 2H3v168h194V2z" fill="#fff"/></mask><g mask="url(#mask11_2063_5892)"><path d="M108.3 69.1l-1.1-4 2.8-2.6" stroke="#171814" stroke-width="2" stroke-miterlimit="10" stroke-linecap="round" stroke-linejoin="round"/></g><mask id="mask12_2063_5892" style="mask-type:luminance" maskUnits="userSpaceOnUse" x="3" y="2" width="194" height="168"><path d="M197 2H3v168h194V2z" fill="#fff"/></mask><g mask="url(#mask12_2063_5892)"><path d="M120.7 68.6l-1.1-4 2.8-2.5" stroke="#171814" stroke-width="2" stroke-miterlimit="10" stroke-linecap="round" stroke-linejoin="round"/></g><mask id="mask13_2063_5892" style="mask-type:luminance" maskUnits="userSpaceOnUse" x="3" y="2" width="194" height="168"><path d="M197 2H3v168h194V2z" fill="#fff"/></mask><g mask="url(#mask13_2063_5892)"><path d="M108 56.2c-4-1.3-7.2 1.2-8.2 2.8" stroke="#171814" stroke-width="2" stroke-miterlimit="10" stroke-linecap="round" stroke-linejoin="round"/></g><mask id="mask14_2063_5892" style="mask-type:luminance" maskUnits="userSpaceOnUse" x="3" y="2" width="194" height="168"><path d="M197 2H3v168h194V2z" fill="#fff"/></mask><g mask="url(#mask14_2063_5892)"><path d="M125.2 56.8c-3-2.9-7-2-8.6-1.1" stroke="#171814" stroke-width="2" stroke-miterlimit="10" stroke-linecap="round" stroke-linejoin="round"/></g><mask id="mask15_2063_5892" style="mask-type:luminance" maskUnits="userSpaceOnUse" x="3" y="2" width="194" height="168"><path d="M197 2H3v168h194V2z" fill="#fff"/></mask><g mask="url(#mask15_2063_5892)"><path d="M82.8 77.1c4.253 0 7.7-3.805 7.7-8.5 0-4.694-3.447-8.5-7.7-8.5-4.252 0-7.7 3.806-7.7 8.5 0 4.695 3.448 8.5 7.7 8.5z" fill="#E6A066"/></g><mask id="mask16_2063_5892" style="mask-type:luminance" maskUnits="userSpaceOnUse" x="3" y="2" width="194" height="168"><path d="M197 2H3v168h194V2z" fill="#fff"/></mask><g mask="url(#mask16_2063_5892)"><path d="M117.9 106.9l21.8 23.7-19-.3 3.1 6.5-5.7 3.8-2.9 8.9 2.7-42.6z" fill="#171814" stroke="#392E40"/></g><mask id="mask17_2063_5892" style="mask-type:luminance" maskUnits="userSpaceOnUse" x="3" y="2" width="194" height="168"><path d="M197 2H3v168h194V2z" fill="#fff"/></mask><g mask="url(#mask17_2063_5892)"><path d="M85.5 67.2s-3.4-.8-4.1 2.1c-.2.8.1 1.6.7 2.2l7.5 7.8c.3.3.8.3 1.1 0l.4-.4c.3-.3.3-.8 0-1l-5.3-5.4s2-.9 2-1.9c-.1-1.8-1.1-2.6-2.3-3.4z" fill="#fff"/><path d="M83.2 69s-.7.8 0 1.7" stroke="#171814" stroke-width=".75" stroke-miterlimit="10" stroke-linecap="round" stroke-linejoin="round"/></g></g></g></g><defs><clipPath id="clip0_2063_5892"><path fill="#fff" d="M0 0h196v171H0z"/></clipPath><clipPath id="clip1_2063_5892"><path fill="#fff" transform="translate(-2 2)" d="M0 0h194v168H0z"/></clipPath><clipPath id="clip2_2063_5892"><path fill="#fff" transform="translate(3 2)" d="M0 0h194v168H0z"/></clipPath></defs></svg>