<svg width="196" height="170" fill="none" xmlns="http://www.w3.org/2000/svg"><mask id="mask0_2063_6093" style="mask-type:alpha" maskUnits="userSpaceOnUse" x="0" y="0" width="196" height="170"><path d="M1.796 85.014L49.905 1.686h96.219l48.109 83.328-48.109 83.328H49.905L1.795 85.014z" fill="#C4C4C4" stroke="#66D9EF" stroke-width="2"/></mask><g mask="url(#mask0_2063_6093)"><mask id="path-2-outside-1_2063_6093" maskUnits="userSpaceOnUse" x="32.54" y="81.01" width="123" height="101" fill="#000"><path fill="#fff" d="M32.54 81.01h123v101h-123z"/><path d="M153.482 145.395c0 6.038-1.417 16.926-2.077 22.356-2.335 19.289-14.84 8.126-41.549 10.242-26.709 2.116-44.378 6.43-56.536-3.559-7.188-5.916-19.118-14.221-18.773-30.541.233-11.345 1.933-22.942 4.59-31.599 6.48-21.106 38.614-29.284 38.614-29.284l30.586 2.368s21.518 3.46 29.997 13.718c11.743 14.215 15.065 30.891 15.141 46.293"/></mask><path d="M153.482 145.395c0 6.038-1.417 16.926-2.077 22.356-2.335 19.289-14.84 8.126-41.549 10.242-26.709 2.116-44.378 6.43-56.536-3.559-7.188-5.916-19.118-14.221-18.773-30.541.233-11.345 1.933-22.942 4.59-31.599 6.48-21.106 38.614-29.284 38.614-29.284l30.586 2.368s21.518 3.46 29.997 13.718c11.743 14.215 15.065 30.891 15.141 46.293" fill="#262822"/><path d="M151.405 167.751l-1.109-.135 1.109.135zm-98.085 6.683l-.71.863.71-.863zm-18.773-30.541l1.117.024v-.001l-1.117-.023zm4.59-31.599l-1.069-.328 1.069.328zM77.751 83.01l.086-1.114-.183-.014-.179.045.276 1.083zm30.586 2.368l.178-1.104-.046-.007-.046-.004-.086 1.115zm29.997 13.718l.861-.712-.861.712zm14.029 46.299c0 5.951-1.403 16.746-2.068 22.221l2.219.27c.654-5.386 2.084-16.366 2.084-22.491h-2.235zm-2.068 22.221c-.574 4.736-1.746 7.314-3.353 8.739-1.595 1.412-3.85 1.896-7.153 1.84-3.327-.057-7.346-.639-12.402-1.095-5-.451-10.857-.756-17.62-.221l.177 2.228c6.591-.522 12.313-.226 17.242.219 4.874.439 9.135 1.045 12.565 1.103 3.453.059 6.431-.415 8.673-2.401 2.228-1.974 3.495-5.234 4.09-10.143l-2.219-.269zm-40.528 9.263c-13.466 1.067-24.416 2.663-33.648 2.756-9.17.094-16.31-1.315-22.09-6.065l-1.42 1.727c6.378 5.24 14.152 6.669 23.533 6.573 9.32-.094 20.559-1.713 33.802-2.763l-.177-2.228zm-55.738-3.308c-7.3-6.008-18.697-13.972-18.366-29.654l-2.234-.048c-.358 16.957 12.104 25.604 19.18 31.428l1.42-1.726zm-18.366-29.655c.232-11.265 1.92-22.756 4.54-31.294l-2.136-.656c-2.693 8.776-4.403 20.478-4.639 31.904l2.235.046zm4.54-31.294c3.106-10.112 12.418-17.25 21.194-21.897 4.36-2.309 8.526-3.97 11.603-5.053 1.537-.541 2.8-.938 3.676-1.198a50.94 50.94 0 011.332-.376l.015-.004h.003l-.275-1.084c-.276-1.083-.276-1.083-.277-1.082h-.001c-.002 0-.004 0-.006.002-.005 0-.011.002-.02.005a13.458 13.458 0 00-.354.095c-.244.067-.6.167-1.054.302a80.67 80.67 0 00-3.782 1.232c-3.15 1.11-7.423 2.812-11.906 5.186-8.912 4.719-18.908 12.222-22.284 23.216l2.137.656zm37.462-28.497l30.586 2.367.172-2.229-30.586-2.367-.172 2.229zm30.672 1.253l-.177 1.103h.002l.01.002.043.007a31.933 31.933 0 01.855.154 86.411 86.411 0 0110.732 2.806c6.409 2.137 13.644 5.487 17.67 10.358l1.723-1.424c-4.453-5.387-12.216-8.897-18.686-11.054a88.637 88.637 0 00-8.431-2.342 76.85 76.85 0 00-3.305-.67 23.599 23.599 0 00-.189-.032l-.05-.009-.014-.002h-.005l-.178 1.103zm29.135 14.43c11.521 13.947 14.81 30.335 14.885 45.587l2.236-.011c-.077-15.553-3.433-32.516-15.398-47l-1.723 1.424z" fill="#3A2622" mask="url(#path-2-outside-1_2063_6093)"/><path d="M153.482 145.395c0 6.038-6.178 12.725-6.838 18.155-2.336 19.289-10.079 12.327-36.788 14.443-26.709 2.116-44.378 6.43-56.536-3.559-7.188-5.916-19.118-14.221-18.773-30.541.233-11.345 1.933-22.942 4.59-31.599 6.48-21.106 38.614-29.284 38.614-29.284l30.586 2.368s21.518 3.46 29.997 13.718c11.743 14.215 15.065 30.891 15.141 46.293" fill="#171814"/><path d="M77.942 82.851c1.035 6.385 6.42 18.948 19.672 18.119 3.796 0 11.285-2.278 12.942-11.389" stroke="#3A2622" stroke-linecap="round"/><path d="M79.141 71.402l-.654 13.192s4.742 17.15 18.318 16.367c13.577-.784 13.571-12 13.571-12v-8.885l-31.235-8.674z" fill="#E6A066"/><path d="M123.842 53.814c0 .368-.053.725-.094 1.099-.076 3.793-.082 8.984-.414 13.905-.427 6.342-1.402 12.228-3.779 14.081-6.761 5.26-32.898 2.444-36.717-1.017-1.442-1.31-2.563-2.618-3.182-7.055 0 0-.333-2.507-.35-2.513l-.176-.164a5.255 5.255 0 01-.467-.427 23.504 23.504 0 01-2.044-2.133 11.127 11.127 0 01-.759-.93 26.833 26.833 0 01-4.59-8.99 35.177 35.177 0 01-.327-1.203 28.36 28.36 0 01-.584-3.449v-.117a25.07 25.07 0 01-.105-3.916c.841-15.864 13.524-28.056 28.327-27.297 2.578.133 5.119.667 7.532 1.584 8.596 3.215 15.083 10.99 17.121 20.505a29.45 29.45 0 01.584 3.77v.415c0 .181 0 .368.035.585a29.92 29.92 0 01-.011 3.267z" fill="#E6A066"/><path d="M114.989 55.404a2.252 2.252 0 002.131 2.338 2.242 2.242 0 002.336-2.128 2.243 2.243 0 00-.571-1.628 2.239 2.239 0 00-1.554-.745 2.252 2.252 0 00-2.342 2.163zm-19.329.351a2.252 2.252 0 002.126 2.373 2.25 2.25 0 002.154-1.28 2.255 2.255 0 00-1.062-3.006 2.246 2.246 0 00-1.72-.09 2.248 2.248 0 00-1.497 2.003z" fill="#230C09"/><path d="M80.73 67.977c0 1.537-.461 3.273-1.6 4.185a2.772 2.772 0 01-.526.339 2.214 2.214 0 01-.303.134 4.668 4.668 0 01-2.3.094 14.402 14.402 0 01-8.514-4.618 10.262 10.262 0 01-2.815-6.599c0-2.437 1.296-4.95 3.504-5.974a7.514 7.514 0 011.985-.62h.17a6.013 6.013 0 012.025.053c5.133.953 8.415 8.289 8.374 13.006z" fill="#E6A066"/><path d="M109.202 64.593c4.981.25 9.997 1.53 14.131 4.237-.426 6.342-1.465 16.15-3.842 18.003-6.762 5.26-30.814 3.396-35.153-2.338-4.338-5.734-4.087-5.26-4.67-9.668 0 0-.334-2.507-.351-2.513l-.175-.164a2.781 2.781 0 01-.526.34c0-.252.035-.51.058-.766a26.77 26.77 0 00.035-4.162 16.206 16.206 0 00-8.35-12.55l-.18-.105a.798.798 0 01.168 0 11.662 11.662 0 012.027.041c1.884.215 3.683.907 5.226 2.01a21.251 21.251 0 015.559 5.992 10.27 10.27 0 001.781 2.338c2.16 1.888 5.466 1.403 8.31.86 5.255-1.03 10.603-1.813 15.952-1.555zM91.341 44.67a6.578 6.578 0 00-3.112 1.63 2.187 2.187 0 00-.362 2.771c.823 1.17 2.797 1.479 4.508 1.432 2.219-.064 4.537-.584 5.99-1.888.454-.347.769-.844.888-1.403a2.164 2.164 0 00-.344-1.344c-1.32-2.379-4.952-1.911-7.568-1.198zm32.489 5.83c-1.752.847-4.123.73-6.277.187-1.664-.427-3.504-1.274-3.959-2.607a2.184 2.184 0 011.109-2.566 6.56 6.56 0 013.44-.719c1.64 0 3.632.234 5.08.976.275 1.243.47 2.502.584 3.77v.415c.005.17.011.351.023.544z" fill="#C25D31"/><path d="M111.404 58.245c.957 2.764 1.798 4.267-.409 4.84" stroke="#171814" stroke-width="1.118" stroke-linecap="round" stroke-linejoin="round"/><path d="M115.345 70.403c1.256.461 1.594.473 2.511 1.45.52.555.584 1.168.152 2.67-.584 1.83-2.336 2.45-5.769 3.215a10.985 10.985 0 01-9.846-2.724c-2.014-1.94-3.392-2.881-1.827-5.716a5.046 5.046 0 013.352-2.478c2.108-.369 3.614 1.625 5.763 1.601 2.394-.03 3.393 1.175 5.664 1.982z" fill="#C25D31"/><path d="M105.308 71.186a5.796 5.796 0 003.626 1.84 5.835 5.835 0 003.947-1.01" stroke="#171814" stroke-width="1.118" stroke-linecap="round" stroke-linejoin="round"/><path d="M125.4 70.765s.036.048 0 0z" fill="#230C09"/><path d="M152.39 162.691c-2.336 19.289-5.962 23.217-32.648 25.333-26.685 2.116-63.485 3.951-75.665-6.073-7.183-5.91-9.857-21.738-9.513-38.058 3.002-2.724 14.108-9.937 35.182-.526l1.466 10.924 58.498 1.035s6.725-16.857 24.331-11.433" fill="#E6A066"/><path d="M75.588 66.942a.474.474 0 01-.382-.174l-5.43-5.374a.814.814 0 01-.035-.935.811.811 0 01.939-.035l5.429 5.37a.826.826 0 01.035.939 1.032 1.032 0 01-.556.209z" fill="#171814"/><path d="M69.637 65.815c-.265-.026-.5-.317-.604-.595-.091-.409.2-.648.612-.735l4.166-.361c.408-.091.647.2.734.609.087.408-.2.648-.608.734l-4.3.348zm59.394-15.122l-14.65.374a1.689 1.689 0 00-1.268.505 1.69 1.69 0 00-.484 1.277c.414 3.362 2.049 10.452 8.508 10.627 6.458.175 8.887-7.207 9.734-10.854a1.68 1.68 0 00-1.84-1.93z" fill="#171814"/><mask id="mask1_2063_6093" style="mask-type:alpha" maskUnits="userSpaceOnUse" x="59" y="129" width="38" height="25"><path d="M59.503 153.786l.431-16.042 15.748-7.863 21.108 23.872-37.287.033z" fill="#D9D9D9"/></mask><g mask="url(#mask1_2063_6093)"><path d="M64.513 150.127c-1.947 1.218-1.716 2.262-.676 3.964l1.103 1.813c1.225 1.984.624 3.716.043 6.005l-.59 2.369a3.48 3.48 0 01-.54 1.141l-5.796 7.888a3.3 3.3 0 00-.102 3.766 3.3 3.3 0 00.936.942l6.174 4.112a3.31 3.31 0 004.061-.319 3.32 3.32 0 00.827-1.193l25.202-19.642.028-1.035c-5.601-3.678-10.233-5.519-13.71-11.18l-2.94-4.847s-2.238-3.956-4.386-2.543c0 0-1.852.824-.45 3.14 1.402 2.316 4.836 7.195 4.836 7.195l-5.378-8.053s-1.173-2.02-2.884-.856a2.159 2.159 0 00-.962 1.543 2.163 2.163 0 00.553 1.731c.364.555 5.492 8.023 5.492 8.023l-5.765-8.306a2.12 2.12 0 00-2.955-.183c-2.807 2.28 1.751 5.708 2.955 8.489.097-.064-2.733-5.234-5.076-3.964z" fill="#E6A066" stroke="#171814" stroke-linejoin="round"/></g><path d="M106.294 51.044l-14.644.374a1.686 1.686 0 00-1.752 1.782c.408 3.367 2.05 10.451 8.502 10.627 6.452.175 8.887-7.201 9.74-10.849a1.698 1.698 0 00-.448-1.421 1.688 1.688 0 00-1.398-.514z" fill="#171814"/><path d="M114.849 53.814a.452.452 0 00.216-.199.406.406 0 00-.233-.584 14.06 14.06 0 00-11.253.333.406.406 0 00-.244.422.399.399 0 00.058.163.516.516 0 00.648.163 12.952 12.952 0 0110.388-.304.524.524 0 00.42.006z" fill="#171814"/><path d="M77.84 29.48c4.974-2.139 8.075-7.335 12.186-11 1.524-1.361 3.264-2.548 5.255-2.881a5.42 5.42 0 015.384 2.092 15.029 15.029 0 019.536-3.682 11.299 11.299 0 017.34 2.338 8.688 8.688 0 013.252 7.213c.041-.45 4.911 1.753 5.402 2.034a11.361 11.361 0 015.471 6.43c2.091 6.534-2.47 12.923-8.613 14.963-3.287 1.087-6.826 1.128-10.271.73-8.461-.981-16.905-4.769-22.546-11.69-1.495-1.823-2.803-3.863-4.613-5.319a9.863 9.863 0 00-4.8-2.104" fill="#C25D31"/><path d="M70.283 55.14c3.913 1.117 7.007 4.052 8.94 7.652.187-1.485.251-3.063.432-4.547a8.074 8.074 0 002.184-7.804 19.79 19.79 0 008.8-10.006 26.912 26.912 0 001.612-13.362c-1.612.339-3.194-.526-4.841-.48-3.41.1-6.663 1.38-9.834 2.642-3.17 1.263-6.423 2.572-8.951 4.875a10.521 10.521 0 00-2.92 4.156 13.86 13.86 0 00-.619 5.115c.116 4.28.918 8.513 2.377 12.537.882-.49 1.863-1.052 2.82-.777z" fill="#C25D31"/><path d="M95.44 33.87a11.515 11.515 0 009.4-.338c1.997 5.47 7.591 9.615 13.781 10.188a5.409 5.409 0 002.412-.193c1.752-.66 2.446-2.677 2.464-4.443.041-3.507-1.664-6.85-4.187-9.404-2.522-2.555-5.804-4.367-9.232-5.74-3.649-1.456-7.591-2.461-11.58-2.157-2.709.21-8.758 1.619-9.208 4.775-.414 2.882 3.697 6.29 6.15 7.313z" fill="#C25D31"/><path d="M76.139 73.015a1.82 1.82 0 11-3.641 0 1.82 1.82 0 013.641 0z" fill="#3A2622" stroke="#171814" stroke-width=".5"/><path d="M87.96 51.084a.432.432 0 00.262-.403.474.474 0 00-.508-.403l-14.225.695a.46.46 0 00-.403.24l-1.325 2.455a.409.409 0 00.228.584.508.508 0 00.636-.198l1.203-2.233 13.938-.672a.664.664 0 00.193-.065z" fill="#171814"/><path d="M93.99 62.144l2.588-10.871h5.695l-3.624 12.424c-2.07 0-3.969-1.035-4.66-1.553z" fill="#fff" fill-opacity=".56"/><path d="M62.412 153.773s55.637 1.114 67.298.518l-.595 14.098s-17.857 11.497-33.623 16.086c-14.248 4.15-34.767 3.232-34.896 2.969" stroke="#171814" stroke-width="1.118" stroke-linecap="round" stroke-linejoin="round"/><path d="M126.086 50.755h-7.247l-1.036 11.907c2.071 1.242 4.314.863 5.177.518l3.106-12.425z" fill="#D9D9D9" fill-opacity=".56"/></g></svg>