<svg width="196" height="170" fill="none" xmlns="http://www.w3.org/2000/svg"><mask id="mask0_2063_6133" style="mask-type:alpha" maskUnits="userSpaceOnUse" x="0" y="0" width="196" height="170"><path d="M1.796 85.014L49.905 1.686h96.219l48.109 83.328-48.109 83.328H49.905L1.795 85.014z" fill="#C4C4C4" stroke="#66D9EF" stroke-width="2"/></mask><g mask="url(#mask0_2063_6133)"><mask id="mask1_2063_6133" style="mask-type:luminance" maskUnits="userSpaceOnUse" x="6" y="9" width="184" height="160"><path d="M190 9H6v159.184h184V9z" fill="#fff"/></mask><g mask="url(#mask1_2063_6133)"><path d="M45.442 119.966c7.737-7.737 17.834-10.096 29.346-11.7 2.736-.378-.283-3.397 2.642-3.775 2.547-.189 2.17 13.21 16.607 13.871 16.041-.189 15.758-16.135 15.758-16.135s-.378 2.83 4.435 3.113c7.171.472 18.589 1.888 28.591 6.228 4.34 1.793 8.303 4.341 11.889 7.454 14.814 12.928 19.06 46.236 19.249 74.45-3.303 2.736-16.418.849-20.193 3.208-10.002 6.511-21.419 1.604-33.214 4.34-8.304 1.982-16.796 3.02-25.383 3.02h-2.076c-4.434 0-8.87-.283-13.21-.944-13.965-2.076-41.518-5.001-53.313-11.983.283-30.478 11.418-63.693 18.872-71.147z" fill="#171814" stroke="#B17E72" stroke-width=".93" stroke-miterlimit="10"/><path d="M78.279 105.718s3.963 12.927 16.796 12.55c0 0 12.927-2.265 13.304-9.908l5.851-.283L98 203.096l-6.322 1.416-16.041-81.149v-8.587l.566-7.076 2.076-1.982z" fill="#B17E72"/><path d="M68.843 106.85l-3.586 13.871 8.587-1.51c.283-.094.66.095.755.378.094.283.094.66-.189.849l-7.36 6.228 23.118 76.43h2.265l-13.4-97.284c-.094-.943-1.132-1.604-2.075-1.321l-8.115 2.359zm27.46 94.359l3.68-.094 23.401-77.375-7.737-6.51 9.624 1.698-3.963-15.38-10.096-2.171c-.944-.188-1.887.472-2.076 1.416l-12.833 98.416z" fill="#171814" stroke="#B17E72" stroke-width=".93" stroke-miterlimit="10"/></g><mask id="mask2_2063_6133" style="mask-type:luminance" maskUnits="userSpaceOnUse" x="11" y="13" width="174" height="151"><path d="M184.284 13.717H11.191v149.748h173.093V13.717z" fill="#fff"/></mask><g mask="url(#mask2_2063_6133)"><mask id="mask3_2063_6133" style="mask-type:luminance" maskUnits="userSpaceOnUse" x="12" y="14" width="175" height="150"><path d="M186.379 14.66H12.132v149.127h174.247V14.661z" fill="#fff"/></mask><g mask="url(#mask3_2063_6133)"><path d="M120.992 69.55c2.575-5.325 5.238-19.528-.887-26.008-1.154-1.242-2.219-2.13-3.906-2.396-.089-.355-2.397-10.652-20.238-14.558 0 0-18.641-4.705-21.57 4.97 0 0-1.51 2.841.355 8.345 0 0-7.368 9.409-3.817 19.262" stroke="#B17E72" stroke-width=".93" stroke-miterlimit="10" stroke-linecap="round"/><path d="M51.489 151.215l-.533 5.681-1.953 21.215-1.065 11.895h-.799l1.332-14.292 1.775-18.907.533-5.592c0-.089.088-.177.088-.266.09-.089.178-.089.267-.089.088 0 .177.089.266.089.089.089.089.177.089.266z" fill="#B17E72"/><path d="M76.433 38.483s-9.676 10.652-4.616 22.546c5.06 11.983 11.096-21.392 11.096-21.392l-6.48-1.154z" fill="#1A1A1A"/><path d="M109.561 85.43l.2 21.044s-2.893 11.37-15.659 11.969c-11.47.499-15.758-13.764-15.758-13.764l1.197-3.989.398-8.677 25.334-5.685 4.288-.898z" fill="#E6A066"/><path d="M105.272 86.427c-.099.698 3.79 2.793 3.391 3.69-5.286 11.969-24.834 14.063-30.918 14.662l.2-11.57 27.327-6.782z" fill="#1A1A1A"/><path d="M80.426 39.636c-2.93 2.308-5.06 5.593-6.302 9.143-2.93 8.167-8.788 27.34-5.326 39.235 4.615 15.356 18.463 12.693 26.718 9.587 8.255-3.107 11.983-8.344 11.983-8.344s7.812 2.574 12.871-4.883c5.06-7.456 1.687-15.8-2.751-17.664-4.439-1.864-9.676 1.51-9.676 1.51l3.995-8.079s-15.09-33.553-31.512-20.505z" fill="#E6A066"/><path d="M109.009 78.427c-.267 0-.444-.089-.622-.355-.266-.355-.177-.799.178-1.065l9.586-6.924c.356-.266.799-.177 1.066.178.266.355.177.799-.178 1.065l-9.587 6.924c-.177.177-.355.177-.443.177z" fill="#1A1A1A"/><path d="M117.796 78.339h-.178l-6.302-1.598c-.444-.089-.621-.533-.533-.888.089-.355.533-.621.888-.532l6.302 1.597c.444.09.622.533.533.888-.089.266-.444.533-.71.533zm-9.852-10.119s-2.308 8.876-3.994 7.722c-1.687-1.066-3.107-13.936-1.776-19.617 1.332-5.681 2.308-8.61 2.308-8.61s-26.718-.178-29.381-7.99c-3.373-10.208 2.663-16.51 21.126-12.782 16.777 3.373 19.706 14.646 19.706 14.646s3.728-.443 6.657 7.368c3.018 8.078-1.775 20.505-1.775 20.505s-1.953-4.882-12.871-1.243z" fill="#1A1A1A"/><path d="M82.113 86.949s6.48-1.42 7.545-6.569" stroke="#171814" stroke-width="1.86" stroke-linecap="round"/><path d="M85.309 75.143c-15.356.976-14.558 13.403-14.203 18.02.356 4.615 12.96 11.983 28.938 2.219 0 .088 1.065-21.216-14.735-20.24zm3.462 14.913l-6.746.266c-2.397.089-4.35-1.687-4.439-4.083v-.8c-.088-2.396 1.687-4.349 4.084-4.438l6.746-.266c2.397-.089 4.35 1.687 4.438 4.083v.8c.089 2.307-1.686 4.349-4.083 4.438z" fill="#1A1A1A"/></g></g><path d="M96.794 59.954c-1.68-1.258-2.707-.503-3.827-.252-1.493.252-3.36.126-4.666-1.635m0 4.796c2.226-.213 3.116-.107 4.718 1.809m-21.703-7.549c1.057-1.34 3.435-2.905 6.605-1.006" stroke="#000" stroke-width="2" stroke-linecap="round" stroke-linejoin="round"/><path d="M76.119 64.657c.781-.07 1.316-1.234 1.193-2.601-.122-1.368-.854-2.42-1.635-2.35-.782.07-1.316 1.235-1.194 2.602.122 1.367.855 2.42 1.636 2.35z" fill="#000"/><path d="M83.082 76.915c-.223.09-.446-.09-.67-.36-3.42-5.769-.52-13.069-.371-13.34.149-.36.52-.54.818-.36.297.18.446.631.297.992 0 .09-2.676 6.76.297 11.806a.851.851 0 01-.148 1.082c0 .18-.075.18-.223.18z" fill="#1A1A1A"/><path d="M119.702 168.278c-.472-3.303 2.359-9.436 6.227-18.306 3.775-8.87 7.644-17.834 9.059-22.835 1.321-5.001 4.057-11.606 3.019-14.248-1.038-2.642-5.284-10.285-4.906-13.21.377-2.925 5.473-6.133 5.473-6.133s1.792-1.888 2.453-.378c.66 1.415-.094 2.83-1.321 4.718-1.132 1.887-2.17 3.397-2.17 3.397s4.718 3.019 6.227 2.548c1.604-.566 2.831-5.568 3.397-8.115 1.133-4.813-1.321-3.303-3.302-1.416-.944.944-4.53-.754-1.604-2.925 2.925-2.17 5.661-4.057 7.171-1.32 1.415 2.736 1.793 7.454 1.793 7.454s3.397-6.606 5.85-10.38c2.453-3.774 5.284-4.718 6.133-4.246.755.566.283 1.982-1.132 3.68-1.415 1.793-4.812 6.794-5.85 8.492-.944 1.699-1.699 3.775-.661 3.869 1.038.094 5.945-4.812 7.643-7.077 1.604-2.264 3.68-4.152 5.662-4.718 1.887-.566 2.925 1.132 1.793 2.642-1.133 1.51-4.907 5.85-6.983 7.832-2.076 1.982-4.34 5.19-4.34 5.19s3.491-2.171 6.322-3.397c2.83-1.321 5.378-.944 6.039-.095.566.85-.095.755-2.454 1.793-2.359 1.038-5.756 2.076-9.058 5.19-3.303 3.114-4.907 5.19-6.511 7.643-1.604 2.548-4.34 5.095-4.34 5.095s-2.171 15.098-1.322 23.968c.944 8.869 3.209 22.174-.754 30.1-3.963 7.926-8.398 11.323-13.305 11.418-4.907.094-7.36-3.586-7.36-3.586" fill="#171814"/><path d="M119.702 168.278c-.472-3.303 2.359-9.436 6.227-18.306 3.775-8.87 7.644-17.834 9.059-22.835 1.321-5.001 4.057-11.606 3.019-14.248-1.038-2.642-5.284-10.285-4.906-13.21.377-2.925 5.473-6.133 5.473-6.133s1.792-1.888 2.453-.378c.66 1.415-.094 2.83-1.321 4.718-1.132 1.887-2.17 3.397-2.17 3.397s4.718 3.019 6.227 2.548c1.604-.566 2.831-5.568 3.397-8.115 1.133-4.813-1.321-3.303-3.302-1.416-.944.944-4.53-.754-1.604-2.925 2.925-2.17 5.661-4.057 7.171-1.32 1.415 2.736 1.793 7.454 1.793 7.454s3.397-6.606 5.85-10.38c2.453-3.774 5.284-4.718 6.133-4.246.755.566.283 1.982-1.132 3.68-1.415 1.793-4.812 6.794-5.85 8.492-.944 1.699-1.699 3.775-.661 3.869 1.038.094 5.945-4.812 7.643-7.077 1.604-2.264 3.68-4.152 5.662-4.718 1.887-.566 2.925 1.132 1.793 2.642-1.133 1.51-4.907 5.85-6.983 7.832-2.076 1.982-4.34 5.19-4.34 5.19s3.491-2.171 6.322-3.397c2.83-1.321 5.378-.944 6.039-.095.566.85-.095.755-2.454 1.793-2.359 1.038-5.756 2.076-9.058 5.19-3.303 3.114-4.907 5.19-6.511 7.643-1.604 2.548-4.34 5.095-4.34 5.095s-2.171 15.098-1.322 23.968c.944 8.869 3.209 22.174-.754 30.1-3.963 7.926-8.398 11.323-13.305 11.418-4.907.094-7.36-3.586-7.36-3.586" stroke="#B17E72" stroke-width=".93" stroke-miterlimit="10"/><path d="M160.088 106.19c3.303-3.114 6.7-4.152 9.059-5.19 2.359-1.038 3.019-.944 2.453-1.793-.566-.85-3.208-1.226-6.039.095-2.83 1.321-6.322 3.396-6.322 3.396s2.265-3.208 4.341-5.19c2.076-1.98 5.85-6.321 6.982-7.831 1.133-1.51.189-3.208-1.792-2.642-1.888.566-3.964 2.547-5.662 4.718-1.604 2.264-6.605 7.171-7.643 7.077-1.038-.095-.378-2.17.66-3.869.944-1.698 4.435-6.7 5.851-8.492 1.415-1.793 1.887-3.209 1.132-3.68-.755-.567-3.586.471-6.133 4.246-2.454 3.774-5.851 10.38-5.851 10.38s-.283-4.624-1.792-7.455c-1.416-2.736-4.152-.85-7.172 1.321-2.925 2.17.661 3.869 1.604 2.925 1.982-1.887 4.435-3.397 3.303 1.415-.566 2.454-1.887 7.549-3.397 8.115-1.604.567-6.228-2.547-6.228-2.547s1.038-1.416 2.171-3.397c1.132-1.887 1.981-3.208 1.321-4.718-.661-1.416-2.454.377-2.454.377s-5.095 3.209-5.473 6.134c-.377 2.925 3.869 10.568 4.907 13.21 1.038 2.642-1.698 9.341-3.019 14.248-1.321 5.001-5.19 13.965-9.059 22.835-.094.094-.094.189-.189.377 1.416 2.737 4.718 6.889 11.795 8.587 4.718 1.132 8.681-.283 11.701-2.265-.283-4.812-.944-9.719-1.321-13.682-.944-8.869 1.321-23.967 1.321-23.967s2.736-2.548 4.34-5.095c1.699-2.454 3.303-4.529 6.605-7.643z" fill="#E6A066" stroke="#171814" stroke-width="1.5" stroke-miterlimit="10"/><path d="M142.16 116.38s.095-3.868 1.982-5.85c1.887-1.981 3.868-2.17 3.868-2.17" stroke="#1A2E35" stroke-miterlimit="10" stroke-linecap="round" stroke-linejoin="round"/><path d="M124.798 152.52l1.038-2.359s3.019 6.416 11.323 8.02c8.209 1.605 12.172-2.359 12.172-2.359l.095 2.548" stroke="#B17E72" stroke-width=".93" stroke-miterlimit="10"/></g></svg>