<svg width="196" height="170" fill="none" xmlns="http://www.w3.org/2000/svg"><mask id="mask0_2058_4092" style="mask-type:alpha" maskUnits="userSpaceOnUse" x="0" y="0" width="196" height="170"><path d="M1.796 85.015l48.11-83.328h96.218l48.11 83.328-48.11 83.328H49.905L1.795 85.015z" fill="#202020" stroke="#F92672" stroke-width="2"/></mask><g clip-path="url(#clip0_2058_4092)" mask="url(#mask0_2058_4092)"><path d="M159.051 174.351c-11.183 6.561-37.137 9.341-50.303 11.312a80.047 80.047 0 01-12.498.873h-1.982a106.46 106.46 0 01-23.907-2.844c-11.183-2.618-21.936 2.004-31.363-4.127-3.512-2.155-15.966-.377-19.037-2.995.215-26.665 4.223-58.038 18.154-70.245a41.145 41.145 0 0111.183-6.992c9.438-4.159 20.19-5.463 26.988-5.904 4.6-.216 7.671-.216 7.671-.216s6.152.216 14.48 1.078c2.414.226 4.612.657 7.025.872 14.254 1.972 26.697 3.092 35.79 12.185 7.025 7.036 17.583 38.377 17.799 67.003z" fill="#171814"/><path d="M140.693 107.92c3.393 3.393 7.541 10.342 10.86 20.071 3.318 9.729 6.593 32.138 6.712 46.328h1.573c-.108-14.405-3.416-37.019-6.788-46.877-3.372-9.858-7.606-17.044-11.237-20.664l-1.12 1.142zm-35.338-11.96c14.35 1.983 26.471 3.093 35.338 11.96l1.077-1.078c-9.319-9.33-22.086-10.461-36.243-12.411l-.172 1.53zm-6.982-.872c1.174.108 2.316.27 3.469.442a67.78 67.78 0 003.545.441l.14-1.583c-1.174-.108-2.306-.27-3.469-.431-1.164-.162-2.317-.323-3.545-.442l-.14 1.573zm-14.415-1.875V94h1.077l3.017.161c2.564.173 6.173.442 10.332.873l.162-1.573a267.98 267.98 0 00-10.397-.873c-1.293-.086-2.327-.14-3.038-.172h-1.099l-.054.797zm-7.639 1.002c2.295-.108 4.213-.161 5.549-.183h2.09v-1.616h-2.123c-1.346 0-3.232.086-5.591.194l.075 1.605zm-26.676 5.84c9.309-4.094 19.942-5.387 26.72-5.84l-.109-1.573c-6.83.442-17.69 1.756-27.247 5.969l.636 1.444zm-10.99 6.873a40.956 40.956 0 0110.99-6.863L49.03 98.6a42.69 42.69 0 00-11.399 7.132l1.024 1.196zM20.77 176.581c.227-26.482 5.172-58.922 17.896-69.663l-1.078-1.186c-15.223 14.728-17.626 45.11-18.412 70.827l1.594.022zm18.671 2.316a27.304 27.304 0 01-3.641-3.124c-1.54-1.498-4.956 10.774-6.712 8.975-3.491-3.642-7.014-7.434-8.62-8.781l-1.077 1.207c1.498 1.271 4.913 4.956 8.48 8.672 1.755 1.843 5.192-10.45 6.754-8.931a29.925 29.925 0 003.9 3.329l.916-1.347zm31.126 4.03c-11.097-2.597-21.752 2.047-31.115-4.019l-.862 1.325c9.503 6.174 20.33 1.584 31.61 4.234l.367-1.54zm23.702 2.823a106.404 106.404 0 01-23.702-2.823l-.345 1.54a107.7 107.7 0 0024.08 2.866l-.033-1.583zm1.983 0h-1.983v1.583h1.983v-1.583zm12.379-.862a79.639 79.639 0 01-12.38.862v1.583a81.842 81.842 0 0012.628-.883l-.248-1.562zm50.023-11.216c-5.571 3.232-15.429-1.95-24.78 2.316-9.352 4.267-18.822 7.93-25.286 8.889l.237 1.573c6.701-1.002 16.376-4.751 25.706-9.029 9.33-4.277 19.264.905 24.877-2.381l-.754-1.368zm-138.692 2.931h-.786v.377l.28.237.506-.614zm139.09-2.198l.399.689.398-.237v-.452h-.797z" fill="#3A2622"/><path d="M82.406 74.628l-2.402 24.09s6.206 4.86 17.356 8.393c8.77 1.423 10.44 3.233 10.44 3.233l1.541-20.988-16.312-7.197-10.623-7.53z" fill="#E69F66"/><path d="M93.029 82.213c-.076.625-2.64-.13-3.103.603-5 8.027 12.39 16.16 17.238 17.755l1.422-12.088-15.557-6.27z" fill="#000"/><path d="M97.36 107.111L80.79 90.843l-5.894 8.834 5.01 23.886 17.454-16.452z" fill="#fff"/><path d="M108.878 95.68L97.36 107.111l16.172 14.469v-18.466l-4.654-7.434z" fill="#fff"/><path d="M109.308 91.37l10.515 3.028 3.76 14.534-9.114-1.616 7.293 6.119-22.032 73.014-3.48.087 13.058-95.165z" fill="#171814"/><path d="M96.25 187.225a.686.686 0 01-.66-.488.745.745 0 01-.03-.298l13.059-95.165a.705.705 0 01.309-.48.697.697 0 01.563-.091l10.516 3.027a.662.662 0 01.474.485l3.771 14.534a.687.687 0 01-.162.64.694.694 0 01-.625.211l-6.583-1.174 5.323 4.482a.66.66 0 01.215.722l-22.032 73.014a.669.669 0 01-.636.495l-3.49.086h-.012zm13.629-94.97l-12.831 93.57h2.154l21.764-72.099-6.95-5.828a.709.709 0 01-.183-.819.676.676 0 01.744-.388l8.058 1.433-3.393-13.122-9.363-2.748z" fill="#3A2622"/><path d="M80.606 88.85l-10.515 3.016-3.76 14.534 9.115-1.616-7.294 6.13 22.032 73.004 3.48.086L80.606 88.85z" fill="#171814"/><path d="M93.665 184.694l-3.48-.087a.688.688 0 01-.647-.495l-22.043-73.004a.654.654 0 01.215-.721l5.323-4.472-6.583 1.164a.672.672 0 01-.625-.205.707.707 0 01-.162-.646l3.76-14.534a.71.71 0 01.485-.485l10.516-3.027a.7.7 0 01.872.57l13.047 95.177a.69.69 0 01-.161.549.686.686 0 01-.517.216zm-2.974-1.455l2.155.065-12.81-93.582-9.374 2.705-3.393 13.111 8.058-1.433a.688.688 0 01.741.39.689.689 0 01-.18.817l-6.95 5.839 21.753 72.088z" fill="#3A2622"/><path d="M124.478 44.332s3.954 29.456-4.191 43.096c-8.35 13.607-21.095 7.369-28.26 2.262a28.4 28.4 0 01-9.589-11.205 11.646 11.646 0 01-11.247-8.08c-3.006-8.62 2.262-15.482 7.153-16.225 4.849-.528 9.104 3.997 9.104 3.997l-1.928-8.781c-.248.162 27.538-33.884 38.958-5.064z" fill="#E69F66"/><path d="M125.06 52.94a8.897 8.897 0 00-6.993-7.035c-9.05-2.09-15.083-1.982-21.289 3.782-3.394 3.167-.635 7.38-5.86 10.321a7.272 7.272 0 01-8.857-.819L77.482 55.3l-3.307-8.296 22.172-11.85 21.031-1.283 9.416 15.611-1.734 3.459z" fill="#4C301C"/><path d="M126.826 49.45a28.587 28.587 0 00-1.767-26.655c-6.679-10.86-21.72-9.998-21.72-9.998s12.078 3.782 12.078 10.451c-2.791-3.07-5.15-9.147-27.797-9.309 10.203 4.095 12.078 6.346 12.078 6.346s-8.447-3.232-22.205-1.077c9.406 1.82 6.357 4.234 6.464 6.098-10.31 7.175-15.17 15.493-6.841 29.822 8.382-.776 13.467-13.123 13.467-13.123l27.732-3.458 8.511 10.903z" fill="#4C301C"/><path d="M76.286 54.826c-.086-.108-8.005-9.858-2.348-20.115a24.951 24.951 0 017.207-7.843c.636-.506 1.24-.97 1.778-1.444a2.478 2.478 0 00.991-2.24c-.194-.787-1.303-2.295-6.464-3.48a.517.517 0 01.022-1.013 46.057 46.057 0 0119.608.204 29.747 29.747 0 00-9.492-4.45.516.516 0 01-.41-.527.495.495 0 01.453-.485c.754-.097 17.626-2.025 26.525 7.348-1.713-3.588-5.537-6.249-10.86-7.477a.52.52 0 01-.226-.896.519.519 0 01.345-.128c3.146 0 13.51 1.466 19.059 6.163 2.316 1.96 13.338 12.842 3.124 34.713l-.291.55-.366-1.584c9.815-21.181-.959-31.018-3.178-32.893-3.653-3.092-9.535-4.73-13.845-5.451 4.428 2.036 7.283 5.311 8.038 9.373a.494.494 0 01-.302.571.507.507 0 01-.625-.183c-6.033-8.716-18.876-9.406-24.543-9.255a33.676 33.676 0 019.578 5.603.52.52 0 01.119.657.543.543 0 01-.636.226c-3.178-1.196-9.793-2.877-19.598-1.454 2.93.948 4.6 2.154 4.967 3.62a3.491 3.491 0 01-1.314 3.232c-.56.495-1.175.97-1.821 1.476a24.006 24.006 0 00-6.938 7.541c-5.312 9.664 2.596 19.803 2.812 20.255l-1.369-.614z" fill="#3A2622"/><path d="M84.938 71.698a.796.796 0 01-.615-.27l-8.619-8.618a1.077 1.077 0 011.433-1.541l8.62 8.554a1.281 1.281 0 010 1.487c-.23.206-.515.341-.82.388z" fill="#000"/><path d="M75.996 69.91c-.42 0-.798-.507-.97-.949-.14-.657.323-1.077.98-1.174l6.637-.571c.657-.151 1.078.312 1.174.97.097.657-.323 1.077-.97 1.174l-6.851.55zm23.691-10.602a1.077 1.077 0 01-.754-1.735 6.883 6.883 0 018.619-1.282 1.076 1.076 0 01-1.077 1.756c-3.232-1.96-5.894.82-6.001.938a1.087 1.087 0 01-.787.323zm26.988 1.918a1.014 1.014 0 01-.915-.571 3.711 3.711 0 00-2.338-2.22 4.038 4.038 0 00-2.963.938 1.076 1.076 0 01-1.522-.913 1.079 1.079 0 01.175-.66 6.19 6.19 0 014.708-1.39 5.585 5.585 0 013.782 3.318 1.078 1.078 0 01-.463 1.39.983.983 0 01-.464.108zm-13.466 15.449a1.078 1.078 0 01-.755-.323 1.08 1.08 0 010-1.465c1.897-1.778 1.142-4.665 1.142-4.687a1.08 1.08 0 01.722-1.271 1.08 1.08 0 011.261.722c0 .161 1.077 4.094-1.702 6.744-.184.168-.42.267-.668.28zm-8.426 8.038a12.089 12.089 0 01-7.67-3.136 1.078 1.078 0 111.454-1.476c.183.183 4.503 4.31 9.804 1.649a1.076 1.076 0 011.39.452 1.078 1.078 0 01-.464 1.39 9.976 9.976 0 01-4.514 1.12zM94.247 61.959l-.216 7.638a1.077 1.077 0 00.916 1.078l15.223 1.357a.979.979 0 001.078-.959l.732-7.326a1.076 1.076 0 00-.926-1.131l-15.73-1.67a1 1 0 00-1.077 1.013zm23.131 2.822l-.367 7.23a1.016 1.016 0 00.647 1.077l11.032 1.864c.399 0 .754-.356.797-.927l.873-6.798a1.08 1.08 0 00-.614-1.175l-11.55-2.284c-.409-.032-.786.41-.818 1.013z" fill="#000"/><path d="M117.518 67.345c-1.778-1.993-6.195-1.303-6.238-1.293l-.216-1.357c.205 0 5.193-.819 7.477 1.734l-1.023.916z" fill="#000"/><mask id="mask1_2058_4092" style="mask-type:luminance" maskUnits="userSpaceOnUse" x="117" y="63" width="14" height="12"><path d="M117.809 64.78l-.377 7.23c0 .56.258 1.077.646 1.077l11.043 1.864c.399 0 .754-.355.797-.926l.873-6.799a1.081 1.081 0 00-.625-1.174l-11.571-2.24c-.377-.076-.754.365-.786.969z" fill="#fff"/></mask><g mask="url(#mask1_2058_4092)"><path d="M124.349 61.42c-.442-.14-.668-.68-.592-1.38.075-.7.42-1.174.872-1.217a.065.065 0 00.065-.065s0-.075-.065-.065c-.538 0-.926.56-1.012 1.347-.087.787.183 1.368.689 1.53a.065.065 0 00.086 0 .078.078 0 00.047-.037.078.078 0 00.007-.06.08.08 0 00-.037-.047.08.08 0 00-.06-.007zm.582-2.651a.092.092 0 00-.01.043c0 .015.003.03.01.043.442.14.668.668.592 1.38-.075.71-.42 1.163-.872 1.217a.055.055 0 00-.027 0 .05.05 0 00-.023.014.046.046 0 00-.014.023.05.05 0 00-.001.027s0 .065.076.065c.527 0 .915-.571 1.002-1.347.086-.776-.184-1.368-.69-1.54a.063.063 0 00-.024.008.063.063 0 00-.017.018.066.066 0 00-.007.024c0 .009.001.017.005.025zm-.431 4.676a.064.064 0 00-.075 0l-.582.463a.077.077 0 00.041.135.079.079 0 00.056-.017l.441-.366-.29 2.607a.07.07 0 00.018.05.074.074 0 00.046.026s.076 0 .076-.065l.312-2.769a.076.076 0 00-.013-.038.072.072 0 00-.03-.026zm-1.196 7.444c-.442-.14-.679-.678-.592-1.379.086-.7.409-1.174.872-1.217a.065.065 0 00.054-.065s0-.075-.065-.064c-.528 0-.926.56-1.012 1.346-.087.787.194 1.369.7 1.53.01.01.024.016.038.016a.052.052 0 00.037-.016.078.078 0 00.06-.091.081.081 0 00-.034-.049.076.076 0 00-.058-.01zm.571-2.65a.074.074 0 00-.013.043c0 .016.004.03.013.043.442.14.668.668.593 1.38-.076.71-.421 1.163-.884 1.217v.064a.05.05 0 00.001.027.046.046 0 00.014.024.054.054 0 00.05.014c.528 0 .926-.571 1.013-1.347.086-.775-.184-1.368-.69-1.54a.065.065 0 00-.076.002.07.07 0 00-.022.033.06.06 0 00.001.04zm-.42 4.719h-.076l-.581.474a.054.054 0 00-.016.022.062.062 0 000 .053.054.054 0 00.016.022.058.058 0 00.022.016.061.061 0 00.026.006.067.067 0 00.049-.022l.441-.366-.28 2.607s0 .065.065.075a.076.076 0 00.05-.018.071.071 0 00.025-.046l.302-2.77a.06.06 0 00-.014-.032.063.063 0 00-.029-.021zm-1.358 7.434c-.441-.15-.668-.679-.592-1.38.075-.7.42-1.174.873-1.217a.075.075 0 00.064-.075.05.05 0 00-.001-.027.052.052 0 00-.013-.023.064.064 0 00-.023-.014.055.055 0 00-.027 0c-.539 0-.927.57-1.013 1.346-.086.776.183 1.368.689 1.53a.066.066 0 00.087 0 .094.094 0 00.058-.042.098.098 0 00.012-.071.093.093 0 00-.043-.059.093.093 0 00-.071-.011v.043zm.582-2.65a.082.082 0 00-.01.037c0 .014.004.026.01.038.442.14.679.679.593 1.379-.086.7-.42 1.174-.873 1.217a.065.065 0 10.011.13c.528 0 .916-.571 1.002-1.336.086-.765-.183-1.368-.69-1.54a.058.058 0 00-.026.01.062.062 0 00-.017.021v.044zm-.959 7.401c-.431-.15-.668-.679-.592-1.379.075-.7.42-1.174.883-1.217a.083.083 0 000-.076.061.061 0 000-.027.067.067 0 00-.014-.023.061.061 0 00-.023-.014.054.054 0 00-.027 0c-.528 0-.927.57-1.013 1.346-.086.776.183 1.369.7 1.53h.076a.091.091 0 00.066-.023.095.095 0 00.031-.063.094.094 0 00-.023-.066.094.094 0 00-.064-.031v.043zm.582-2.65a.064.064 0 00-.012.038c0 .013.004.026.012.037.431.14.668.679.593 1.38-.076.7-.421 1.174-.884 1.217a.063.063 0 00-.045.019.061.061 0 00-.019.045.052.052 0 00.005.028c.004.008.01.016.017.022a.064.064 0 00.053.015c.528 0 .927-.571 1.013-1.336.086-.765-.183-1.368-.701-1.54.011-.033-.021-.011-.032.032v.043zm-.42 4.676a.118.118 0 00-.086 0l-.571.474v.097a.059.059 0 00.022.016.06.06 0 00.026.005.069.069 0 00.027-.005.068.068 0 00.022-.016l.441-.367-.29 2.597s0 .075.064.075a.077.077 0 00.043.014.072.072 0 00.043-.014l.302-2.78s-.022-.129-.043-.14v.044zm-1.207 7.444c-.441-.15-.668-.678-.592-1.379.075-.7.42-1.174.872-1.217a.093.093 0 00.043-.029.1.1 0 00.022-.047.065.065 0 00-.065-.064c-.538 0-.926.57-1.012 1.347-.087.775.183 1.368.689 1.53a.057.057 0 00.019.015.056.056 0 00.024.006.05.05 0 00.024-.006.049.049 0 00.019-.016.097.097 0 00.034-.015.104.104 0 00.025-.027.105.105 0 00.013-.034.09.09 0 00-.002-.037.084.084 0 00-.015-.033.086.086 0 00-.027-.025.09.09 0 00-.071-.012v.043zm.571-2.65a.064.064 0 00-.012.038c0 .013.004.026.012.037.442.14.668.68.593 1.38-.076.7-.42 1.174-.884 1.217a.071.071 0 00-.008.032c0 .011.003.023.008.032 0 0 0 .076.065.065.539 0 .927-.57 1.013-1.336.086-.765-.183-1.368-.69-1.54a.076.076 0 00-.055-.003.074.074 0 00-.042.035v.043zm-.42 4.676h-.075l-.582.474a.076.076 0 00-.011.108.077.077 0 00.108.01l.442-.366-.291 2.597s0 .075.064.075a.064.064 0 00.076 0l.312-2.78a.088.088 0 00.038-.041.09.09 0 00.004-.056.084.084 0 00-.032-.047.085.085 0 00-.053-.017v.043zm8.037-39.519c-.441-.14-.668-.678-.592-1.379.075-.7.409-1.174.872-1.217a.093.093 0 00.043-.029.1.1 0 00.022-.047.065.065 0 00-.065-.064c-.538 0-.937.57-1.023 1.346-.086.776.194 1.369.7 1.53a.059.059 0 00.019.016.057.057 0 00.024.006.05.05 0 00.024-.006.05.05 0 00.019-.016.076.076 0 00.034-.087.075.075 0 00-.029-.04.077.077 0 00-.048-.013zm.571-2.65a.064.064 0 00-.012.038c0 .013.004.026.012.037.442.14.668.68.593 1.38-.076.7-.42 1.174-.884 1.217a.061.061 0 00-.038.022.06.06 0 00-.015.042l.064.054c.539 0 .927-.56 1.013-1.336.086-.775-.183-1.368-.69-1.54a.06.06 0 00-.04.033.049.049 0 00-.007.026.06.06 0 00.004.027zm-.42 4.676a.1.1 0 00-.075 0l-.582.474a.088.088 0 00-.019.054c0 .02.007.038.019.054a.085.085 0 00.054.018.09.09 0 00.054-.018l.441-.367-.291 2.597a.066.066 0 00.002.028.062.062 0 00.036.042.062.062 0 00.027.005.067.067 0 00.026 0 .066.066 0 00.05-.054l.312-2.78a.077.077 0 00-.021-.032.08.08 0 00-.033-.021zm-1.207 7.445c-.431-.14-.668-.68-.592-1.38.075-.7.42-1.174.883-1.217a.08.08 0 00.038-.03.084.084 0 00.016-.045.065.065 0 00-.064-.065c-.528 0-.927.571-1.013 1.347-.086.775.183 1.368.689 1.54a.066.066 0 00.087 0 .081.081 0 00.047-.037.077.077 0 00.006-.06.076.076 0 00-.037-.047.08.08 0 00-.06-.006zm.582-2.65a.063.063 0 00-.012.037c0 .013.004.027.012.038.431.15.668.678.593 1.379-.076.7-.431 1.174-.884 1.217a.063.063 0 00-.045.019.061.061 0 00-.019.046c.01.01.023.015.037.015a.054.054 0 00.038-.015c.528 0 .916-.56 1.002-1.336.086-.776-.172-1.368-.689-1.54.01.075-.022.096-.033.14zm-.42 4.707a.087.087 0 00-.086 0l-.571.464a.074.074 0 000 .108.059.059 0 00.022.016.065.065 0 00.075-.016l.442-.367-.291 2.597s0 .075.064.075a.077.077 0 00.043.013.072.072 0 00.043-.013l.302-2.78s-.021-.097-.043-.097zm-1.357 7.424c-.442-.14-.668-.68-.593-1.38.075-.7.42-1.174.873-1.217a.063.063 0 00.045-.019.061.061 0 00.019-.046s0-.075-.064-.064c-.539.054-.927.57-1.024 1.346-.097.776.194 1.369.7 1.53a.078.078 0 00.087 0 .093.093 0 00.058-.042.098.098 0 00.012-.07.096.096 0 00-.042-.06.095.095 0 00-.071-.01v.031zm.603-2.683a.064.064 0 00-.012.038c0 .013.004.026.012.037.442.14.668.679.592 1.38-.075.7-.42 1.163-.883 1.217 0 0-.054 0-.054.064 0 .017.007.034.019.046a.065.065 0 00.046.019c.538 0 .926-.571 1.012-1.347.087-.776-.183-1.368-.689-1.53a.063.063 0 00-.024.009.064.064 0 00-.017.018.065.065 0 00-.007.024c0 .009.001.017.005.025zm-.948 7.401c-.442-.14-.668-.678-.593-1.379.076-.7.42-1.174.873-1.217a.067.067 0 00.046-.019.065.065 0 00.019-.046s0-.075-.065-.064c-.539 0-.927.57-1.013 1.346-.086.776.183 1.369.69 1.53a.064.064 0 00.076-.026.056.056 0 00.01-.028s-.043-.075-.076-.097h.033zm.582-2.65a.073.073 0 00-.011.038c0 .013.004.026.011.038.441.14.678.678.592 1.379-.086.7-.42 1.163-.873 1.217a.055.055 0 00-.027 0 .064.064 0 00-.023.014.066.066 0 00-.014.024.061.061 0 000 .027s0 .064.075.064c.528 0 .916-.57 1.002-1.347.086-.775-.183-1.368-.689-1.53-.033.022-.076.044-.076.076h.033zm-.431 4.676a.064.064 0 00-.076 0l-.582.474a.083.083 0 00-.016.022.06.06 0 00-.005.026c0 .01.001.019.005.027s.01.016.016.022a.09.09 0 00.054.019c.02 0 .039-.007.054-.02l.442-.355-.291 2.597s0 .075.065.075c.064 0 .075 0 .075-.064l.312-2.77a.085.085 0 00-.086-.054h.033zm-1.196 7.445c-.442-.14-.679-.668-.593-1.38.086-.71.41-1.174.873-1.217a.065.065 0 00.054-.065s0-.075-.065-.064c-.528 0-.926.57-1.013 1.347-.086.775.194 1.368.701 1.53.01.01.023.015.037.015a.054.054 0 00.038-.016.084.084 0 00.027-.045.081.081 0 00-.004-.054.085.085 0 00-.036-.04.084.084 0 00-.052-.011h.033zm.571-2.65a.064.064 0 00-.012.037c0 .014.004.027.012.038.441.14.668.678.592 1.379-.075.7-.42 1.163-.883 1.217v.065a.05.05 0 00.001.027.051.051 0 00.013.023.061.061 0 00.023.014.054.054 0 00.027 0c.528 0 .927-.57 1.013-1.346.086-.776-.183-1.369-.689-1.53a.076.076 0 00-.103-.027.074.074 0 00-.034.046.075.075 0 00.007.056h.033zm-.42 4.675h-.076l-.582.474v.097a.068.068 0 00.022.016.069.069 0 00.027.006.06.06 0 00.026-.006.059.059 0 00.022-.016l.442-.356-.28 2.597a.067.067 0 00.001.028c.003.01.007.018.014.025a.058.058 0 00.022.017.065.065 0 00.028.005h.075l.269-2.822a.103.103 0 00-.043-.065h.033zm-4.052-35.996c-.441-.14-.668-.678-.592-1.378.075-.7.42-1.175.873-1.218a.075.075 0 00.064-.075.076.076 0 00-.064-.075c-.539.053-.927.57-1.013 1.346-.086.776.183 1.38.689 1.54a.077.077 0 00.087 0 .072.072 0 00.048-.091.073.073 0 00-.092-.049zm.571-2.65a.072.072 0 00-.012.038c0 .014.005.027.012.038.442.15.668.679.593 1.39-.075.71-.42 1.163-.883 1.206v.076c0 .017.006.033.018.046a.067.067 0 00.046.018c.539-.053.927-.57 1.013-1.346.086-.776-.183-1.369-.69-1.541a.074.074 0 00-.035-.002.08.08 0 00-.033.015.08.08 0 00-.022.028.083.083 0 00-.007.034zm-.42 4.676a.064.064 0 00-.075 0l-.582.463a.076.076 0 00-.011.108.077.077 0 00.108.01l.442-.365-.291 2.575a.076.076 0 00.064.075.075.075 0 00.05-.018.077.077 0 00.026-.047l.312-2.768a.081.081 0 00-.043-.033zm-1.206 7.445c-.431-.14-.668-.679-.593-1.38.075-.7.42-1.173.883-1.217 0 0 .054 0 .054-.075 0 0 0-.075-.064-.075-.528 0-.927.57-1.013 1.357-.086.787.183 1.368.7 1.53h.076a.079.079 0 00.025-.014.089.089 0 00.018-.022.086.086 0 00.008-.027.077.077 0 00-.016-.054.082.082 0 00-.023-.018.069.069 0 00-.055-.005zm.581-2.65a.064.064 0 00-.012.037c0 .014.004.027.012.038.431.15.668.679.593 1.39-.075.71-.42 1.163-.884 1.207a.075.075 0 00-.064.075s0 .065.075.065c.528 0 .927-.571 1.013-1.347.086-.776-.183-1.368-.69-1.54a.065.065 0 00-.036.029.067.067 0 00-.007.046zm-.42 4.675a.087.087 0 00-.086 0l-.571.464a.073.073 0 00-.017.083.08.08 0 00.017.024.068.068 0 00.022.017.06.06 0 00.026.005c.01 0 .019-.002.027-.005a.068.068 0 00.022-.017l.442-.366-.291 2.607a.075.075 0 00.064.076.087.087 0 00.087-.065l.301-2.769a.066.066 0 00-.013-.033.066.066 0 00-.03-.02zm-1.357 7.434c-.442-.15-.668-.678-.593-1.39.076-.71.42-1.163.873-1.206a.105.105 0 00.043-.029.1.1 0 00.021-.046.065.065 0 00-.018-.046.067.067 0 00-.046-.02c-.539 0-.927.572-1.013 1.347-.086.776.183 1.369.69 1.53a.061.061 0 00.043.017.065.065 0 00.043-.017.073.073 0 00.048-.092.07.07 0 00-.035-.042.074.074 0 00-.056-.006zm.571-2.65a.064.064 0 00-.012.038c0 .013.004.026.012.037.441.14.668.68.592 1.38-.075.7-.42 1.174-.883 1.217a.062.062 0 000 .065s0 .075.064.064c.539 0 .927-.57 1.013-1.346.086-.776-.183-1.369-.689-1.53a.075.075 0 00-.065.075h-.032zm-.948 7.402c-.442-.151-.668-.68-.593-1.38.075-.7.42-1.174.873-1.217a.075.075 0 00.046-.025.07.07 0 00.018-.05.061.061 0 000-.027.066.066 0 00-.014-.024.05.05 0 00-.023-.013.053.053 0 00-.027 0c-.528.053-.927.57-1.013 1.346-.086.776.183 1.368.69 1.53.011.01.027.016.043.016a.064.064 0 00.043-.016.074.074 0 00.043-.036.072.072 0 00.005-.056.072.072 0 00-.036-.043.071.071 0 00-.055-.005zm.581-2.65a.082.082 0 00-.01.037c0 .013.004.026.01.038.442.14.679.678.593 1.379-.086.7-.42 1.174-.873 1.217a.063.063 0 00-.045.02.061.061 0 00-.019.045.052.052 0 00.005.027.064.064 0 00.07.037c.528 0 .916-.57 1.002-1.335.086-.765-.183-1.38-.69-1.541a.053.053 0 00-.04.027.051.051 0 00-.007.024.052.052 0 00.004.024zm-.431 4.664a.064.064 0 00-.075 0l-.571.474a.065.065 0 000 .097.085.085 0 00.054.02.089.089 0 00.054-.02l.441-.355-.312 2.607s0 .076.065.076a.072.072 0 00.043.013c.015 0 .03-.005.043-.013l.302-2.78a.098.098 0 00.009-.034.082.082 0 00-.024-.065.085.085 0 00-.029-.02zm-1.195 7.456c-.442-.151-.679-.679-.593-1.38.086-.7.409-1.174.873-1.217a.09.09 0 00.038-.03.092.092 0 00.016-.045s0-.065-.076-.065c-.528 0-.926.571-1.013 1.347-.086.776.194 1.368.701 1.53h.086s0-.13-.032-.14zm.571-2.65a.065.065 0 00-.013.037c0 .014.005.027.013.038.441.14.668.679.592 1.379-.075.7-.42 1.174-.883 1.217a.062.062 0 000 .065s0 .075.064.065c.539 0 .927-.571 1.013-1.336.086-.765-.183-1.369-.689-1.541a.068.068 0 00-.039-.011.066.066 0 00-.06.047.068.068 0 00.002.04zm-.421 4.675h-.075l-.582.474v.097a.067.067 0 00.049.022.061.061 0 00.026-.006.058.058 0 00.022-.016l.442-.355-.28 2.596a.067.067 0 00.001.028c.003.01.007.018.013.025a.071.071 0 00.023.017.064.064 0 00.027.006.065.065 0 00.067-.03.054.054 0 00.009-.024l.312-2.78a.086.086 0 00-.02-.033.09.09 0 00-.034-.02z" fill="#3A2622" opacity=".61"/></g><mask id="mask2_2058_4092" style="mask-type:luminance" maskUnits="userSpaceOnUse" x="94" y="60" width="19" height="13"><path d="M94.419 61.958l-.216 7.639a1.077 1.077 0 00.927 1.077l15.212 1.358a1.003 1.003 0 001.078-.96l.722-7.325a1.075 1.075 0 00-.884-1.142l-15.74-1.67a1.002 1.002 0 00-1.1 1.023z" fill="#fff"/></mask><g mask="url(#mask2_2058_4092)"><path d="M106.205 51.303c-.442-.14-.668-.668-.592-1.38.075-.71.42-1.174.872-1.217a.065.065 0 00.046-.019.065.065 0 00.019-.045s0-.076-.065-.065c-.538 0-.926.571-1.012 1.347-.087.776.183 1.368.689 1.53a.066.066 0 00.029.003.061.061 0 00.027-.01.058.058 0 00.021-.02.066.066 0 00.009-.027s-.011-.076-.043-.097zm.571-2.65a.082.082 0 00-.01.037.08.08 0 00.01.038c.442.14.668.679.593 1.379-.076.7-.42 1.164-.873 1.217a.055.055 0 00-.027.001.049.049 0 00-.023.014.054.054 0 00-.015.05.065.065 0 00.065.065c.539 0 .927-.571 1.013-1.347.086-.776-.183-1.368-.69-1.53a.076.076 0 00-.075.075h.032zm-.42 4.675a.064.064 0 00-.075 0l-.582.474a.054.054 0 00-.016.022.061.061 0 000 .053.055.055 0 00.016.022.085.085 0 00.054.02.09.09 0 00.054-.02l.441-.355-.291 2.596s0 .076.065.076h.075l.313-2.78a.103.103 0 00-.011-.062.101.101 0 00-.043-.046zm-1.207 7.445c-.431-.14-.668-.668-.592-1.379.075-.711.42-1.174.883-1.217a.062.062 0 000-.065.061.061 0 000-.027.065.065 0 00-.014-.023.061.061 0 00-.023-.014.054.054 0 00-.027 0c-.528.053-.927.57-1.013 1.346-.086.776.183 1.368.7 1.53h.076s.043-.13.01-.15zm.582-2.64a.064.064 0 00-.012.038c0 .014.004.027.012.038.431.14.668.679.593 1.379-.076.7-.42 1.163-.884 1.217v.065s0 .065.076.065c.528 0 .926-.571 1.012-1.347.087-.776-.183-1.368-.689-1.53a.066.066 0 00-.092-.016.066.066 0 00-.016.092zm-.42 4.665h-.075l-.582.475v.096a.059.059 0 00.022.017.06.06 0 00.026.005.069.069 0 00.027-.005.068.068 0 00.022-.017l.441-.355-.28 2.596a.053.053 0 00-.015.038c0 .014.005.028.015.038a.077.077 0 00.043.013.072.072 0 00.043-.013l.302-2.78s.032-.086.011-.108zm-1.358 7.434c-.441-.14-.668-.678-.592-1.379.075-.7.42-1.174.873-1.217 0 0 .064 0 .064-.075a.076.076 0 00-.064-.076c-.539 0-.927.571-1.013 1.347-.086.776.183 1.368.689 1.54a.065.065 0 00.043.017.067.067 0 00.044-.016.073.073 0 00.048-.092.076.076 0 00-.036-.043.073.073 0 00-.056-.005zm.571-2.65a.082.082 0 00-.01.038c0 .013.004.026.01.037.442.151.668.68.593 1.38-.075.7-.42 1.174-.873 1.217 0 0-.064 0-.064.075a.065.065 0 00.064.065c.539 0 .927-.57 1.013-1.347.086-.775-.183-1.368-.689-1.54a.075.075 0 00-.044.064v.011zm-.948 7.402c-.431-.14-.668-.679-.592-1.38.075-.7.42-1.174.883-1.217v-.075s0-.076-.064-.076c-.528 0-.927.571-1.013 1.347-.086.776.183 1.38.689 1.54a.066.066 0 00.077-.026.068.068 0 00.01-.027.066.066 0 00.022-.041.061.061 0 00-.012-.045zm.582-2.65a.053.053 0 00-.015.037c0 .014.005.028.015.038.431.15.668.678.582 1.39-.086.71-.42 1.163-.873 1.206a.075.075 0 00-.046.026.07.07 0 00-.018.05s0 .064.075.064c.528 0 .916-.57 1.002-1.346.086-.776-.172-1.369-.69-1.541.011.01-.021.032-.032.075zm-.42 4.675a.086.086 0 00-.086 0l-.571.463a.074.074 0 000 .108.059.059 0 00.022.016.062.062 0 00.026.006.07.07 0 00.027-.006.068.068 0 00.022-.016l.441-.366-.29 2.607a.07.07 0 00.018.05.075.075 0 00.046.026.09.09 0 00.055-.018.084.084 0 00.031-.047l.302-2.769a.087.087 0 00-.043-.054zm-1.207 7.445c-.441-.14-.668-.679-.592-1.38.075-.7.409-1.174.872-1.217a.064.064 0 00.046-.019.065.065 0 00.019-.045.076.076 0 00-.065-.076c-.538 0-.937.571-1.023 1.358-.086.786.194 1.368.7 1.53a.077.077 0 00.043.013.072.072 0 00.043-.013.078.078 0 00.047-.038.073.073 0 00.007-.06.076.076 0 00-.037-.046.08.08 0 00-.06-.007zm.571-2.65a.064.064 0 00-.012.037c0 .014.004.027.012.038.442.15.668.679.593 1.39-.076.71-.42 1.163-.884 1.206v.076c0 .017.007.033.019.046a.065.065 0 00.046.019c.539 0 .927-.572 1.013-1.347.086-.776-.183-1.369-.69-1.54a.063.063 0 00-.038-.012.066.066 0 00-.038.014.07.07 0 00-.022.033.068.068 0 00.001.04zm-.42 4.675a.064.064 0 00-.075 0l-.582.464a.088.088 0 00-.019.053c0 .02.007.04.019.054a.058.058 0 00.022.017.062.062 0 00.053 0 .067.067 0 00.022-.017l.452-.366-.29 2.607s-.001.065.064.076a.076.076 0 00.076-.065l.312-2.769a.078.078 0 00-.021-.033.08.08 0 00-.033-.02zm-5.408-31.427c-.442-.13-.7-.646-.646-1.357.053-.711.355-1.185.819-1.25a.086.086 0 000-.075.065.065 0 00-.065-.065c-.528.075-.905.614-.96 1.39-.053.775.249 1.368.766 1.508a.065.065 0 00.075 0 .077.077 0 00.055-.018.075.075 0 00.022-.081.075.075 0 00-.066-.052zm.463-2.672a.064.064 0 000 .076c.442.118.7.646.647 1.346-.054.7-.367 1.196-.819 1.26a.065.065 0 000 .066s0 .075.065.064c.538-.075.905-.614.948-1.39.043-.775-.237-1.357-.755-1.497a.057.057 0 10-.086.075zm-.215 4.687h-.076l-.56.495a.065.065 0 000 .097.086.086 0 00.108 0l.42-.377-.172 2.608s0 .064.075.075a.097.097 0 00.076-.065l.183-2.79a.084.084 0 00-.054-.043zm-.873 7.542c-.442-.119-.7-.647-.657-1.347.043-.7.366-1.196.819-1.26a.063.063 0 00.045-.02.064.064 0 00.02-.045.064.064 0 00-.023-.05.065.065 0 00-.053-.015c-.528.075-.894.603-.948 1.39-.054.786.248 1.357.765 1.497h.075a.105.105 0 00.065-.161.106.106 0 00-.108-.043v.053zm.453-2.672v.075c.441.13.69.646.646 1.358-.043.71-.366 1.185-.819 1.25 0 0-.064 0-.064.075 0 0 0 .064.075 0 .528-.065.894-.604.948-1.38.054-.775-.237-1.357-.754-1.508a.064.064 0 00-.032.076v.054zm-.205 4.686a.119.119 0 00-.086 0l-.55.496a.076.076 0 000 .108.086.086 0 00.108 0l.42-.388-.172 2.618a.065.065 0 00.064.064s.076 0 .076-.064l.194-2.78a.108.108 0 00-.054-.108v.054zm-1.077 7.542c-.453-.13-.7-.647-.658-1.358.043-.71.367-1.185.82-1.25 0 0 .064 0 0-.075a.054.054 0 00-.065-.064c-.528.075-.905.614-.948 1.39-.044.775.247 1.368.754 1.508a.066.066 0 00.056-.006.065.065 0 00.03-.048s.097-.226.065-.226l-.054.129zm.452-2.672a.065.065 0 000 .075c.442.119.7.647.657 1.347-.043.7-.366 1.196-.83 1.26a.065.065 0 000 .065.065.065 0 00.076.065c.528-.076.894-.614.948-1.39.054-.776-.248-1.357-.754-1.497a.066.066 0 00-.043-.033l-.054.108zm-.625 7.434c-.442-.119-.69-.647-.646-1.347.043-.7.366-1.196.819-1.26a.087.087 0 000-.076s0-.075-.065-.064c-.528.075-.905.603-.948 1.39-.043.786.237 1.357.754 1.497a.065.065 0 00.086 0 .129.129 0 00.096-.017.126.126 0 00-.042-.23l-.054.107zm.463-2.672a.065.065 0 000 .075c.442.13.7.647.658 1.358-.043.711-.367 1.185-.83 1.25a.065.065 0 000 .064.054.054 0 00.075 0c.528-.064.895-.603.949-1.39.053-.786-.248-1.357-.765-1.497.01-.032-.022-.01-.033.075l-.053.065zm-.215 4.687a.065.065 0 00-.075 0l-.56.495a.075.075 0 00-.017.083.09.09 0 00.016.025.065.065 0 00.097 0l.431-.377-.118 2.564a.065.065 0 00.037.07.065.065 0 00.027.005.076.076 0 00.076-.064l.183-2.78a.086.086 0 00.005-.104.086.086 0 00-.027-.025l-.075.108zm-.873 7.541c-.441-.129-.7-.657-.646-1.357.054-.7.355-1.196.819-1.25a.086.086 0 000-.075s0-.076-.065-.065c-.528.075-.905.614-.959 1.39-.054.775.248 1.357.765 1.497a.054.054 0 00.076 0 .149.149 0 10.064-.29l-.054.15zm.464-2.682a.065.065 0 000 .075c.441.118.7.646.646 1.347-.054.7-.366 1.185-.819 1.26v.065a.064.064 0 00.02.046.065.065 0 00.045.019c.539-.076.905-.614.948-1.39.043-.776-.237-1.358-.754-1.509a.064.064 0 00-.007-.037.064.064 0 00-.025-.027l-.054.15zm-.216 4.697h-.075l-.56.496a.064.064 0 00-.022.048c0 .01.002.018.005.027.004.008.01.016.017.022a.086.086 0 00.107 0l.42-.388-.172 2.618a.086.086 0 00.076.075s.075 0 .075-.064l.183-2.79a.097.097 0 100-.195l-.054.151zm14.889-40.638c-.441-.152-.668-.68-.592-1.38.075-.7.42-1.174.873-1.217a.075.075 0 00.064-.076.065.065 0 00-.064-.064c-.539.053-.927.57-1.013 1.346-.086.776.183 1.369.689 1.53a.066.066 0 00.087 0 .074.074 0 00.043-.035.072.072 0 00.005-.056.073.073 0 00-.092-.048zm.571-2.651a.082.082 0 00-.01.038c0 .013.004.026.01.037.442.14.668.679.593 1.38-.075.7-.42 1.174-.873 1.217a.065.065 0 00-.064.065s0 .075.064.064c.539 0 .927-.571 1.013-1.336.086-.765-.183-1.379-.689-1.54a.073.073 0 00-.034.03.077.077 0 00-.01.045zm-.42 4.665a.064.064 0 00-.075 0l-.582.474a.065.065 0 00-.016.022.061.061 0 000 .053.065.065 0 00.016.022.085.085 0 00.054.019c.02 0 .039-.007.054-.02l.442-.355-.291 2.597s0 .075.064.075a.056.056 0 00.028.005.05.05 0 00.025-.01.053.053 0 00.018-.021.051.051 0 00.005-.028l.312-2.78a.085.085 0 00-.02-.032.092.092 0 00-.034-.021zm-1.206 7.455c-.431-.15-.668-.678-.582-1.379.086-.7.409-1.174.873-1.217a.082.082 0 00.037-.03.077.077 0 00.016-.046.061.061 0 000-.026.066.066 0 00-.014-.024.054.054 0 00-.05-.014c-.528.054-.927.57-1.013 1.347-.086.775.183 1.368.7 1.53h.076s0-.13-.043-.14zm.581-2.65a.072.072 0 00-.012.038c0 .013.005.026.012.038.431.14.668.678.593 1.378-.075.7-.42 1.175-.883 1.218a.062.062 0 000 .065.052.052 0 00.005.027.065.065 0 00.07.037c.528 0 .926-.57 1.013-1.336.086-.765-.183-1.368-.69-1.54a.065.065 0 00-.091-.017.063.063 0 00-.027.043.065.065 0 00.01.049zm-.42 4.665h-.075l-.582.474v.097a.068.068 0 00.022.016.062.062 0 00.027.006.06.06 0 00.026-.006.068.068 0 00.022-.016l.442-.355-.248 2.618a.067.067 0 00.001.028.07.07 0 00.014.025.058.058 0 00.022.016.065.065 0 00.028.006h.075l.302-2.78s-.054-.107-.076-.129zm-1.357 7.434c-.442-.14-.668-.679-.593-1.379.076-.7.42-1.174.873-1.218a.065.065 0 00.065-.065s0-.075-.065-.064c-.539 0-.927.56-1.013 1.347-.086.787.183 1.368.69 1.53.011.01.027.016.043.016a.064.064 0 00.043-.016.08.08 0 00.047-.037.075.075 0 00.009-.03.078.078 0 00-.002-.03.09.09 0 00-.014-.027.08.08 0 00-.053-.03.078.078 0 00-.03.003zm.571-2.65a.092.092 0 00-.01.043c0 .015.003.03.01.043.441.14.668.668.592 1.379-.075.711-.42 1.163-.872 1.207a.077.077 0 00-.047.025.076.076 0 00-.018.05s0 .065.075.065c.528-.054.916-.571 1.002-1.347.087-.776-.183-1.368-.689-1.54a.078.078 0 00-.034.03.077.077 0 00-.009.045zm-.948 7.401c-.431-.14-.668-.678-.593-1.379.076-.7.42-1.174.884-1.217a.072.072 0 00.008-.033.071.071 0 00-.008-.032v-.064c-.528 0-.927.56-1.013 1.346-.086.787.183 1.368.689 1.53a.07.07 0 00.043.017.067.067 0 00.044-.017.079.079 0 00.045-.041.08.08 0 00-.099-.11zm.581-2.65a.082.082 0 00-.013.043c0 .015.005.03.013.043.431.14.668.668.582 1.38-.086.71-.42 1.163-.872 1.217a.064.064 0 00-.046.019.065.065 0 00-.019.045s0 .065.075.065c.528 0 .916-.571 1.002-1.347.086-.775-.172-1.368-.689-1.53.011-.01-.022-.01-.033.065zm-.42 4.676a.086.086 0 00-.086 0l-.571.474a.066.066 0 00-.016.075.067.067 0 00.016.022.067.067 0 00.049.022.067.067 0 00.048-.022l.442-.366-.302 2.585a.076.076 0 00.065.076.085.085 0 00.054-.018.086.086 0 00.032-.047l.302-2.769a.065.065 0 00-.033-.032zm-1.206 7.444c-.442-.14-.668-.678-.593-1.379.075-.7.42-1.174.873-1.217a.063.063 0 00.045-.019.061.061 0 00.019-.046s0-.075-.064-.064c-.539 0-.938.56-1.078 1.346-.14.787.194 1.369.701 1.53a.072.072 0 00.043.014c.015 0 .03-.005.043-.014.01.001.02 0 .029-.003a.076.076 0 00.026-.015.095.095 0 00.018-.023.092.092 0 00.008-.029c0-.01-.001-.02-.004-.029a.067.067 0 00-.015-.026.072.072 0 00-.051-.026zm.571-2.65v.086c.441.14.668.679.592 1.38-.075.7-.42 1.163-.883 1.217v.064a.065.065 0 00.064.065c.539 0 .927-.57 1.013-1.347.086-.775-.183-1.368-.689-1.53a.06.06 0 00-.037-.024.058.058 0 00-.044.008.058.058 0 00-.016.081zm-.421 4.676a.064.064 0 00-.075 0l-.582.474a.066.066 0 00-.016.075.067.067 0 00.016.022.09.09 0 00.054.019c.02 0 .039-.007.054-.019l.442-.366-.291 2.607s0 .064.064.075a.075.075 0 00.05-.018.077.077 0 00.026-.046l.312-2.77a.105.105 0 00-.054-.053zm-4.934-37.073c-.442-.13-.7-.657-.647-1.357.054-.7.367-1.196.819-1.25a.082.082 0 000-.075.061.061 0 000-.028.065.065 0 00-.014-.023.061.061 0 00-.023-.013.054.054 0 00-.027-.001c-.528.075-.905.614-.959 1.39-.054.775.248 1.357.765 1.497.01.01.023.016.037.016a.053.053 0 00.038-.016.07.07 0 00.051-.016.074.074 0 00.025-.048.073.073 0 00-.017-.051.071.071 0 00-.048-.025zm.463-2.672a.064.064 0 00-.012.038c0 .014.004.027.012.038.442.118.7.646.657 1.346-.043.7-.377 1.186-.829 1.261v.065a.065.065 0 00.064.064c.528-.075.905-.614.959-1.39.054-.775-.247-1.357-.765-1.497-.043 0-.075.032-.086.075zm-.215 4.687a.086.086 0 00-.086 0l-.55.495v.097a.068.068 0 00.022.017.062.062 0 00.027.005.06.06 0 00.026-.005.068.068 0 00.022-.017l.431-.387-.172 2.618s0 .064.064.075c.065.01.076 0 .076-.065l.183-2.79-.043-.043zm-.884 7.542c-.452-.119-.7-.647-.657-1.358.043-.711.366-1.185.819-1.25a.075.075 0 00.046-.025.076.076 0 00.019-.05.054.054 0 00-.076 0c-.528.065-.894.603-.948 1.39-.054.786.237 1.357.754 1.497a.064.064 0 00.056-.006.058.058 0 00.021-.02.066.066 0 00.009-.028s-.01-.194-.043-.204v.054zm.453-2.672a.064.064 0 00-.012.037c0 .014.004.027.012.038.441.13.689.647.646 1.358-.043.71-.366 1.185-.829 1.25a.062.062 0 000 .064c.01.01.023.015.037.015a.054.054 0 00.038-.015c.528-.065.894-.603.948-1.38.054-.775-.237-1.367-.754-1.507a.066.066 0 00-.074.012.074.074 0 00-.018.035.065.065 0 00.006.039v.054zm-.216 4.686h-.075l-.56.496a.082.082 0 00-.019.054c0 .02.006.038.019.054a.085.085 0 00.107 0l.421-.378-.173 2.608s0 .075.065.075c.064 0 .075 0 .075-.064l.194-2.78a.087.087 0 00.024-.06.087.087 0 00-.024-.059l-.054.054zM100.226 67c-.442-.118-.7-.646-.647-1.346.054-.7.367-1.196.819-1.25a.082.082 0 000-.076s0-.075-.064-.064c-.528.075-.905.603-.96 1.39-.053.786.249 1.357.766 1.497h.075a.108.108 0 00.128-.152.108.108 0 00-.063-.053l-.054.054zm.463-2.672a.064.064 0 00-.012.038c0 .014.004.027.012.038.442.118.7.646.647 1.347-.054.7-.367 1.185-.819 1.26a.053.053 0 00-.05.014.045.045 0 00-.014.024.05.05 0 00-.001.027.077.077 0 00.026.046.075.075 0 00.05.018c.527-.075.905-.614.948-1.39.043-.775-.237-1.357-.755-1.508a.073.073 0 00.011.032l-.043.054zm-.635 7.445c-.442-.13-.7-.657-.647-1.357.054-.7.366-1.185.819-1.25 0 0 .065 0 .054-.076a.05.05 0 00-.001-.027.045.045 0 00-.014-.023.053.053 0 00-.05-.014c-.528.075-.905.614-.959 1.39-.054.775.248 1.357.765 1.497a.055.055 0 00.076 0c.025 0 .05-.01.068-.028a.098.098 0 00.029-.069.098.098 0 00-.097-.097l-.043.054zm.463-2.672a.064.064 0 00-.012.038c0 .013.004.027.012.038.442.118.7.646.657 1.346-.043.7-.377 1.186-.83 1.26v.066a.065.065 0 00.065.064c.539-.075.905-.614.959-1.39.054-.775-.248-1.357-.754-1.497a.063.063 0 00-.03.004.069.069 0 00-.024.017l-.043.054zm-.216 4.687a.086.086 0 00-.086 0l-.55.495v.097a.065.065 0 00.05.022.064.064 0 00.048-.022l.431-.377-.173 2.608s0 .064.065.075a.077.077 0 00.05-.018.071.071 0 00.025-.047l.194-2.79a.083.083 0 00-.011-.097l-.043.054zm-.883 7.541c-.453-.118-.7-.646-.657-1.357.043-.711.366-1.185.83-1.25v-.075a.063.063 0 00-.023-.05.064.064 0 00-.053-.015c-.528.076-.894.604-.948 1.39-.054.787.248 1.358.754 1.498a.065.065 0 00.086 0 .126.126 0 00.134-.193.127.127 0 00-.08-.055l-.043.108zm.452-2.671a.085.085 0 000 .075c.442.13.69.646.647 1.358-.043.71-.367 1.185-.83 1.25a.065.065 0 00-.054.064.054.054 0 00.076 0c.528-.065.894-.603.948-1.38.054-.775-.237-1.367-.754-1.508 0 .012.004.023.01.033l-.043.108zm-.215 4.686a.065.065 0 00-.076 0l-.56.496a.086.086 0 000 .108.086.086 0 00.108 0l.42-.378-.172 2.608s0 .075.064.075a.086.086 0 00.087-.064l.183-2.78a.086.086 0 00-.011-.173l-.043.108z" fill="#3A2622" opacity=".61"/></g><path d="M68.648 161.519a.792.792 0 01-.571-.248.764.764 0 01.064-1.077c3.093-2.769 4.536-8.415 4.978-10.462-10.774-1.82-12.153-13.047-12.174-13.165a.766.766 0 011.43-.455.749.749 0 01.089.283c0 .441 1.39 10.709 11.646 11.937a.747.747 0 01.517.302.784.784 0 01.14.581c0 .334-1.4 8.35-5.613 12.11a.746.746 0 01-.506.194z" fill="#3A2622"/><path d="M81.091 104.094c1.541.119 1.746 2.058 1.584 2.478a6.038 6.038 0 01-.905.248s-.776-1.745-4.503-.107c.075.064 2.079-2.737 3.824-2.619z" fill="#E69F66"/><path d="M82.88 108.695a.593.593 0 01-.56-.42 2.154 2.154 0 00-1.174-1.153c-1.078-.42-2.51-.183-4.31.69a.517.517 0 01-.625-.065.572.572 0 01-.237-.528.61.61 0 01.259-.431l.204-.269c.83-1.078 2.78-3.48 4.806-3.232a2.676 2.676 0 012.025 1.174c.937 1.476.205 3.728.172 3.825a.584.584 0 01-.56.409zm-2.876-2.974a4.001 4.001 0 011.626.313c.335.139.644.332.916.571a2.661 2.661 0 00-.29-1.498 1.444 1.444 0 00-1.154-.635 3.72 3.72 0 00-2.531 1.422c.47-.112.95-.17 1.433-.173z" fill="#171814"/><path d="M82.783 104.623c.13-.41.237-.604.7-.571 1.39.107 2.79.15 4.18.269a14.107 14.107 0 016.185 2.521 2.01 2.01 0 001.691.291 7.09 7.09 0 013.739.065 1.347 1.347 0 001.077-.184c1.077-.592 2.09-1.174 3.146-1.734a13.87 13.87 0 015.861-1.175h1.659c.582 0 .593.108.679.528.551 2.748.678 5.564.377 8.35-.09.861-.223 1.717-.399 2.564-.44.951-.959 1.862-1.551 2.726-2.284 0-8.619-3.835-9.901-5.215a1.01 1.01 0 00-.862-.14 9.957 9.957 0 01-4.223 0 1.086 1.086 0 00-.97.151c-1.767 1.983-8.016 6.066-10.052 6.163-1.52.064-1.196-3.642-1.53-4.698a19.27 19.27 0 01.194-9.911z" fill="#3A2622"/><path d="M85.82 112.121c-.268-1.368-3.533-5.042-4.836-5.527-1.304-.485-8.716 2.995-11.184 3.642-2.467.646-2.596 3.232-2.596 4.622 0 1.389-1.864 10.709-2.349 14.921-.485 4.213-1.207 5.592-1.207 5.592a17.52 17.52 0 005.183 9.772s5.106-6.163 7.369-8.996c2.262-2.834 3.114-11.475 3.114-13.414a5.916 5.916 0 001.648-2.92 2.916 2.916 0 001.347-.754l.269-.215c.086.291.797 2.607 1.39 4.309 3.404-2.833 1.702-7.875 1.702-7.875a8.804 8.804 0 00.15-3.157z" fill="#E69F66"/><path d="M68.83 145.983a.592.592 0 01-.398-.151 17.924 17.924 0 01-5.387-10.192.482.482 0 01.065-.344 18.925 18.925 0 001.153-5.387c.237-2.155.84-5.592 1.368-8.619.506-2.877.97-5.592.97-6.228 0-2.909 1.077-4.654 3.049-5.193.83-.226 2.348-.818 3.954-1.454 4.072-1.605 6.615-2.553 7.595-2.155 1.54.571 4.902 4.428 5.215 5.969a9.321 9.321 0 01-.13 3.232c.237 1.077 1.39 6.906-2.488 8.942a.573.573 0 01-.55 0 .612.612 0 01-.323-.452c-.194-1.465-.506-2.941-.711-3.868a3.611 3.611 0 01-.754.409 6.666 6.666 0 01-1.54 2.683c-.066 2.392-.938 10.688-3.233 13.564-2.295 2.877-7.337 8.953-7.39 9.018a.63.63 0 01-.41.215l-.054.011zm-4.578-10.321a16.902 16.902 0 004.525 8.834c1.271-1.529 5.096-6.162 6.96-8.489 2.047-2.564 2.984-10.903 2.984-13.08a.578.578 0 01.183-.431 5.383 5.383 0 001.466-2.585.604.604 0 01.517-.496 2.89 2.89 0 001.25-.83.592.592 0 01.592-.15.584.584 0 01.42.431c0 .086.485 1.907.82 3.975 2.37-2.155 1.141-7.154 1.077-7.208a.668.668 0 010-.291 8.615 8.615 0 00.15-2.908c-.226-1.142-3.318-4.655-4.46-5.086-.7-.215-4.482 1.282-6.744 2.155-1.638.636-3.233 1.25-4.084 1.487-1.465.388-2.154 1.681-2.154 4.04 0 .7-.378 2.898-.992 6.464-.528 3.028-1.077 6.465-1.368 8.555a21.487 21.487 0 01-1.142 5.613z" fill="#171814"/><path d="M85.67 116.054a.596.596 0 01-.592-.507c-.14-.937-.808-3.437-2.22-3.76-1.616-.377-6.464.83-8.21 1.325a.597.597 0 01-.457-.048.591.591 0 01-.23-.815.618.618 0 01.354-.29c.668-.183 6.593-1.853 8.813-1.346 2.5.582 3.113 4.589 3.135 4.762a.592.592 0 01-.507.679h-.086z" fill="#171814"/><path d="M74.488 117.659a.604.604 0 01-.597-.51.59.59 0 01.284-.6c2.23-1.314 9.697-5.387 11.528-3.113a.614.614 0 01-.086.851.59.59 0 01-.84-.086c-.862-1.078-5.85.937-9.988 3.383a.622.622 0 01-.301.075zm5.052 2.801h-.28a.605.605 0 01-.571-.625.595.595 0 01.625-.571 3.994 3.994 0 004.126-2.273.604.604 0 011.078.409 5.218 5.218 0 01-4.978 3.06zm-2.801 4.309a.587.587 0 01-.571-.409.602.602 0 01.409-.765h.172a4.377 4.377 0 002.155-1.077.595.595 0 01.638-.18.605.605 0 01.203.115.587.587 0 01.213.404.592.592 0 01-.138.436 5.517 5.517 0 01-2.758 1.412h-.108a.433.433 0 01-.215.064zm5.979-13.025a.615.615 0 01-.517-.291 3.237 3.237 0 00-2.392-1.336.613.613 0 01-.528-.668.612.612 0 01.668-.528 4.477 4.477 0 013.308 1.918.596.596 0 01-.216.819.612.612 0 01-.323.086z" fill="#171814"/></g><defs><clipPath id="clip0_2058_4092"><path fill="#fff" d="M0 0h196v170H0z"/></clipPath></defs></svg>