<svg width="196" height="170" fill="none" xmlns="http://www.w3.org/2000/svg"><g clip-path="url(#clip0_2063_5680)"><mask id="mask0_2063_5680" style="mask-type:alpha" maskUnits="userSpaceOnUse" x="0" y="0" width="196" height="170"><path d="M1.796 85.014L49.905 1.686h96.219l48.109 83.328-48.109 83.328H49.905L1.795 85.014z" fill="#C4C4C4" stroke="#66D9EF" stroke-width="2"/></mask><g mask="url(#mask0_2063_5680)"><path d="M72.361 30s-12.848 1.92-4.596 21L78 30.723 72.361 30z" fill="#F9BE8F"/><path d="M84.108 74.117l2.566 7.167-2 2.574s.188 18.613 10.183 18.411c9.996-.202 17.61-15.217 17.61-15.217l-1.227-21.333-27.132 8.398z" fill="#E6A066"/><path d="M174.645 183.658H22.317c-2.503-21.569 10.209-57.054 23.708-71.381 14.11-14.959 31.922-20.226 36.577-21.447.662-.174 1.046-.268 1.13-.292.083-.025.83.803 2.053 1.837 2.092 1.774 5.69 4.129 10.34 3.799 4.756-.348 10.596-3.413 14.222-5.619v-.017c2.071-1.253 3.413-2.216 3.413-2.216a45.34 45.34 0 012.12.695c25.451 8.618 38.731 31.248 50.122 50.647 7.576 12.809 8.761 31.964 8.643 43.994z" fill="#171814" stroke="#3A2622" stroke-miterlimit="10"/><path d="M84.356 79.607l19.283-2.47s-4.947 7.306-10.76 8.12c-5.811.814-8.213-1.392-8.213-1.392l-.31-4.258z" fill="#171814"/><path d="M120.175 45.57a26.04 26.04 0 01-2.007 11.437 26.101 26.101 0 01-6.782 9.436s-.317 2.435-.324 2.452c-.593 4.335-1.681 5.619-3.089 6.902-3.72 3.389-29.287 6.242-35.91 1.145-4.153-3.19-4.007-18.835-4.23-27.282a19.183 19.183 0 01-.094-1.078 31.08 31.08 0 01.028-3.785V44.4h.024c.886-10.93 7.72-20.178 17.195-23.76a24.37 24.37 0 017.357-1.566c14.479-.839 26.943 11.028 27.832 26.495z" fill="#E6A066"/><path d="M76.706 54.26a2.195 2.195 0 01-.554 1.587 2.205 2.205 0 01-3.846-1.337 2.194 2.194 0 011.242-2.105 2.207 2.207 0 013.158 1.855zm20.414-.964a2.194 2.194 0 01-1.255 2.11 2.208 2.208 0 01-.837.21 2.207 2.207 0 01-2.11-1.24 2.193 2.193 0 011.038-2.94 2.2 2.2 0 01.838-.21 2.21 2.21 0 012.11 1.24c.126.26.2.541.216.83z" fill="#171814"/><path d="M70.553 48.032a.619.619 0 00-.08.324c.021.11.073.21.15.292.523.644 1.35.915 2.193 1.012.261.032.523.046.78.053 1.14 0 2.347-.122 3.264-.804 1.461-1.089-.3-2.178-1.373-2.505-1.852-.567-4.045-.289-4.934 1.628zm21.277-.403a.625.625 0 00-.076.323c.02.11.07.211.146.292.523.647 1.35.915 2.197 1.016.258.028.523.045.777.049 1.14.017 2.35-.122 3.264-.804 1.464-1.089-.3-2.174-1.374-2.505-1.848-.563-4.04-.288-4.933 1.629z" fill="#F9BE8F"/><path d="M53.696 142.367l-.562 6.022-2.123 22.672-1.178 12.597h-.799l1.433-15.286 1.886-20.126.555-5.949a.395.395 0 01.788.07z" fill="#3A2622"/><path d="M84.495 86.248L96.6 95.773l15.463-14.09 4.033 7.651-5.379 20.661L96.6 97.516 80.866 109.46l.941-16.64 2.688-6.572z" fill="#fff"/><path d="M137.88 160.84a.398.398 0 01-.376-.275l-.471-1.479-8.273-28.791a.394.394 0 01.76-.216l8.27 28.781.467 1.465a.402.402 0 01-.123.42.414.414 0 01-.254.095z" fill="#3A2622"/><path d="M130.15 162.586a.391.391 0 01-.383-.306.394.394 0 01.153-.409.38.38 0 01.14-.064l25.479-5.914a.4.4 0 01.474.295.4.4 0 01-.048.298.4.4 0 01-.245.176l-25.479 5.914-.091.01zm-55.776-19.217h32.298v2.717a16.112 16.112 0 01-4.737 11.395 16.168 16.168 0 01-11.426 4.712c-4.283 0-8.39-1.698-11.42-4.72a16.095 16.095 0 01-4.73-11.394v-2.71h.015z" fill="#3A2622"/><path d="M127.773 174.383c-4.428-3.959-11.157-9.981-12.977-12.339-2.092-2.714-5.77-7.139-8.256-7.908-2.346-.727-6.199-.23-10.912 0-5.603.257-9.205.932-10.066 1.36-1.192.592-.75 2.116.847 2.968 1.5.803 8.675-.459 9.62 1.513.306.644-8.02 1.534-9.323 1.326-1.304-.209-8.186-6.718-10.718-8.179-2.53-1.461-4.183-.251-4.183.069.048.773 10.03 12.872 13.182 15.516 3.152 2.644 17.725 1.74 19.873 1.855 1.569.086 9.511 13.658 12.61 17.272h5.377c2.656-6.321 3.765-8.697 4.243-10.729l.394-1.075a5.5 5.5 0 00.289-1.649v0z" fill="#E6A066" stroke="#171814" stroke-miterlimit="10"/><path opacity=".5" d="M90.763 125.644s-3.64 4.63-3.001 8.001c.638 3.371 3.273 4.446 3.001 6.443 0 0 2.636-2.633 1.092-5.535-1.545-2.901-2.002-4.825-1.092-8.909z" fill="#fff"/><path opacity=".5" d="M90.763 125.644s-3.64 4.63-3.001 8.001c.638 3.371 3.273 4.446 3.001 6.443 0 0 2.636-2.633 1.092-5.535-1.545-2.901-2.002-4.825-1.092-8.909z" fill="#fff"/><path opacity=".5" d="M90.763 125.644s-3.64 4.63-3.001 8.001c.638 3.371 3.273 4.446 3.001 6.443 0 0 2.636-2.633 1.092-5.535-1.545-2.901-2.002-4.825-1.092-8.909z" fill="#fff"/><path d="M110.911 59s4.987-19.157-4.885-24.159c0 0-37.301 5.91-40.621-8.845C62.48 13 86.743 7.387 105 20c15.537 12.575 14.675 14.715 14.675 14.715V55.5l-8.764 3.5z" fill="#F9BE8F"/><path d="M78 24.5S137.5 9 117.673 57l-2.136-1.102-2.15-23.182L78 24.5z" fill="#F9BE8F"/><path d="M119.482 54.611c1.848.842 2.942 2.922 2.939 4.95-.004 2.029-.966 3.963-2.312 5.48a12.001 12.001 0 01-7.07 3.865 3.887 3.887 0 01-1.918-.073c-1.464-.522-2.018-2.307-2.039-3.855-.06-4.891 4.18-13.202 10.4-10.367z" fill="#E6A066"/><path d="M111.651 64.456a.5.5 0 00.391-.177l5.557-5.483a.836.836 0 00.035-.957.837.837 0 00-.959-.034l-5.557 5.482a.836.836 0 00-.035.957c.163.127.362.2.568.212z" fill="#171814"/><path d="M117.742 63.308c.269-.028.509-.324.617-.609.091-.417-.205-.657-.624-.751l-4.267-.348c-.419-.094-.659.205-.753.623-.094.417.205.657.624.751l4.403.348v-.014z" fill="#171814"/></g><path d="M84.02 56c-1.1 2.365-2.245 6.847 1.98 5.86m-1 6.64c2.333 2 6.5-.5 7.5-3.5" stroke="#171814" stroke-width="2" stroke-linecap="round"/></g><defs><clipPath id="clip0_2063_5680"><path fill="#fff" d="M0 0h196v170H0z"/></clipPath></defs></svg>