<svg width="196" height="170" fill="none" xmlns="http://www.w3.org/2000/svg"><g clip-path="url(#clip0_2063_6130)"><mask id="mask0_2063_6130" style="mask-type:alpha" maskUnits="userSpaceOnUse" x="0" y="0" width="196" height="170"><path d="M1.796 85.014L49.905 1.686h96.219l48.109 83.328-48.109 83.328H49.905L1.795 85.014z" fill="#D9D9D9" stroke="#66D9EF" stroke-width="2"/></mask><g mask="url(#mask0_2063_6130)"><path d="M24.127 188.5c-2-36.5 19.4-85.302 75.8-83.602 65.8 2 80.7 42.102 80.7 79.602" fill="#171814"/><path d="M24.127 188.5c-2-36.5 19.4-85.302 75.8-83.602 65.8 2 80.7 42.102 80.7 79.602" stroke="#3A2622"/><path d="M48.828 125.5c-.3-.3-1.5-1.8-2.1-4.5-.6-2.8-.5-6.9 2.2-12.3 3.6-7 11.1-12.8 17.7-16.8 3.3-2 6.4-3.6 8.6-4.6 1.1-.5 2-.9 2.7-1.2.3-.1.6-.2.7-.3.1 0 .1-.1.2-.1l40.099-2.5h.1c.1 0 .3 0 .5.1.5.1 1.2.2 2.1.3 1.8.3 4.3.9 7.1 2 5.8 2.1 13 5.9 19.2 13.1 10.2 11.7 8.6 19 7.6 21.2-8.2 5.3-21.6 11.7-40.4 15.9-17.6 3.9-34.2 1.3-46.4-2.3-6.1-1.8-11.1-3.8-14.6-5.4-1.7-.8-3.1-1.5-4-2-.5-.2-.8-.4-1.1-.6-.1.1-.2.1-.2 0z" fill="#171814" stroke="#3A2622"/><path d="M84.427 111.9s-15.9-8.3-15-13.2c.9-4.9 16.6-8.1 26.4-6.3 9.8 1.8 33.6 2.2 33.6 10.7 0 7.6-10.7 14.8-10.7 14.8l-22.8-6.5-11.5.5z" fill="#171814"/><path d="M72.627 75.4c-.4 0-.9-.4-1.1-.9 0-.7.2-1.1.9-1.1l5.8-.9c.7 0 1.1.2 1.1.9s-.2 1.1-.9 1.1l-5.8.9z" fill="#000"/><path d="M95.068 51.772c-2.402 0-4.892-.267-7.205-.89l.178-.889c.267 0 .623.089.89.089.355 0 .8 0 1.156-.089-.445 0-.978-.089-1.423-.178-.356-.089-.8-.178-1.245-.356-2.046-.266-4.447-.711-6.76-1.69l-1.067-.533c-2.046-.978-4.003-2.49-5.87-4.447l-1.246-1.334a23.318 23.318 0 01-4.98-7.828 25.302 25.302 0 01-1.335-6.137l-.089-1.156.8.8c2.224 1.957 5.16 3.114 8.095 3.114h.622c-.89-.8-1.69-1.601-2.401-2.402l-.979-1.334 1.512.623c1.246.533 2.758.8 4.359.8.533 0 1.156 0 1.778-.089 2.402-.267 4.803-.711 7.116-1.156 3.469-.623 7.026-1.334 10.584-1.334 1.69 0 3.291.178 4.803.445 3.825.8 6.849 3.202 9.695 7.56.8 1.156 1.601 2.58 2.134 4.18.445 1.423.534 2.757.267 4.003v.088l-.089.09c-2.134 2.934-4.358 4.713-8.716 7.204-2.313 1.334-6.315 2.58-8.894 2.668-.534.178-1.068.178-1.69.178z" fill="#171814"/><path d="M97.647 25.89c1.6 0 3.113.088 4.714.444 4.269.89 7.115 3.736 9.428 7.293.8 1.246 1.601 2.58 2.046 4.092.355 1.245.533 2.58.266 3.824-2.223 3.025-4.536 4.803-8.538 7.116-2.224 1.245-6.137 2.49-8.716 2.668-.534 0-1.157.09-1.69.09-2.402 0-4.803-.268-7.116-.89.356.089.623.089.978.089 1.246 0 2.402-.356 3.47-.89-.268 0-.534 0-.712-.089H90.62c-.533 0-1.156 0-1.69-.178-.444-.089-.8-.178-1.156-.355-2.312-.267-4.536-.712-6.76-1.69l-1.067-.534c-2.134-1.067-4.091-2.58-5.692-4.27l-1.245-1.422c-2.135-2.224-4.003-4.714-5.07-7.56a23.767 23.767 0 01-1.334-6.049c2.312 2.046 5.336 3.291 8.45 3.291h.088c.534 0 1.157-.089 1.69-.089a20.507 20.507 0 01-3.202-3.024c1.423.623 3.024.8 4.536.8.623 0 1.246 0 1.78-.088 5.959-.712 11.829-2.58 17.699-2.58zm0-.89c-3.558 0-7.204.712-10.673 1.334-2.313.445-4.714.89-7.116 1.156-.622.09-1.156.09-1.69.09-1.6 0-3.024-.267-4.18-.712l-3.024-1.245 2.046 2.579c.444.623.978 1.156 1.6 1.69-2.668-.09-5.247-1.245-7.293-3.024l-1.69-1.512.178 2.223c.178 2.135.623 4.27 1.423 6.315 1.068 2.846 2.758 5.515 5.07 7.916l1.245 1.334c1.868 1.957 3.825 3.47 5.96 4.537.355.177.711.355 1.156.533 2.401 1.068 4.803 1.423 6.848 1.69.178.089.356.089.534.178l-.267 1.245c2.402.623 4.892.89 7.294.89.622 0 1.156 0 1.779-.09 2.668-.177 6.759-1.422 9.072-2.757 3.735-2.134 6.404-4.002 8.805-7.293l.089-.178v-.178c.267-1.334.178-2.757-.267-4.269a17.434 17.434 0 00-2.134-4.27c-1.868-2.845-4.892-6.67-9.962-7.737A25.973 25.973 0 0097.647 25z" fill="#3A2622"/><path d="M114.546 38.608s7.472 5.693 7.827 23.748h-7.204l-.623-23.748z" fill="#FFC08E"/><path d="M109.921 34.161c5.426-1.6 15.299 8.806 7.472 21.08l-6.849-13.698-.623-7.382z" fill="#171814" stroke="#3A2622"/><path d="M126.998 68.404c-1.423-6.582-6.404-10.94-10.94-9.961l-2.401.355c-.178 0-.623 0-.801.178-4.536.979-7.204 7.205-5.781 13.52 1.423 6.581 6.404 10.94 10.94 9.961l2.401-.356c.178 0 .623 0 .801-.177 4.803-.979 7.293-6.938 5.781-13.52z" fill="#FFC08E"/><path d="M83.683 89.484l.356 22.324s4.18 6.404 17.077 7.205c9.784.622 13.164-1.779 13.164-1.779l-1.601-11.296-1.69-10.94-23.66-4.536-3.646-.978z" fill="#E69F66"/><path d="M87.686 90.284c0 .623.355 1.423.622 2.224 5.159 10.94 18.945 13.163 24.46 13.519l-1.69-10.94-23.392-4.803z" fill="#171814"/><path d="M115.169 44.123s12.363 27.661 7.916 43.137c-4.181 15.476-18.5 13.342-27.039 10.317-8.538-3.023-12.54-8.182-12.54-8.182s-1.157 1.512-6.583-5.781c-5.425-7.294-7.47-10.051-2.846-11.83 4.625-1.957 5.426-3.825 5.426-3.825l-4.359-17.166c.178-.266 20.902-31.574 40.025-6.67z" fill="#E69F66"/><path d="M114.101 79.344h-.178c-.622-.178-.8-.8-.622-1.156 1.601-4.98-2.224-10.584-2.224-10.584-.356-.356-.178-.979.178-1.423.356-.356.978-.178 1.423.178.178.177 4.358 6.403 2.58 12.363-.356.444-.801.622-1.157.622zm-32.464 1.957c-.178 0-.622-.178-.8-.356l-7.56-7.916c-.356-.355-.356-.978 0-1.423.355-.356.978-.356 1.423 0l7.56 7.916c.356.356.356.978 0 1.423-.267.356-.356.356-.623.356zm19.923-12.274c-.355 0-.978-.356-.978-.8l-.622-5.16c0-.622.355-.978.8-1.156.623 0 .978.356 1.156.8l.623 5.16c0 .533-.445 1.156-.979 1.156zm15.388-1.245c-.356 0-.979-.356-.979-.8l-.8-5.16c0-.622.178-.978.8-1.156.623 0 .979.178 1.157.8l.8 5.16c0 .533-.267 1.156-.978 1.156zm-20.191-8.539c-.177 0-.355 0-.355-.178-.356-.178-.623-.8-.356-1.423 1.957-3.825 6.582-2.757 6.76-2.757.622.178.8.622.8 1.156-.178.623-.623.8-1.156.8-.178 0-3.38-.622-4.536 1.602-.445.622-.8.8-1.157.8zm15.032-3.202c-.178 0-.355 0-.622-.178-.356-.356-.623-.978-.178-1.423.8-1.156 1.779-1.779 3.024-1.957 2.401-.355 4.803 1.78 4.803 1.78.356.355.356.978 0 1.422-.356.356-.979.356-1.423 0-.356-.355-1.957-1.423-3.38-1.423-.623 0-1.156.356-1.601 1.157-.178.444-.267.622-.623.622z" fill="#000"/><path d="M77.457 65.558l-3.202.623 3.024 23.836 3.38-.622 3.38-3.825.978-13.163-7.56-6.849z" fill="#171814"/><path d="M107.609 87.26c-3.38 0-5.959-2.58-6.76-4.18-.178-.356-.178-.979.356-1.423.356-.178.978-.178 1.423.356 0 .177 2.401 4.002 6.582 3.023.622-.177.978.178 1.156.801.178.623-.178.978-.801 1.156-.889.09-1.423.267-1.956.267z" fill="#000"/><path d="M89.197 77.299c.8 6.581-2.223 12.363-6.937 12.896-4.536.623-9.161-4.18-9.962-10.94-.8-6.581 2.224-12.363 6.938-12.896 4.714-.534 9.25 4.358 9.961 10.94z" fill="#171814"/><path d="M76.656 42.7l-1.422 4.536s-3.114 3.113-3.025 3.29l1.246 20.546 6.048-3.735-.445-7.205c5.603-2.045 6.048-14.942 6.048-14.942" fill="#171814"/><path d="M77.99 73.74S64.293 34.518 97.024 29.092c.623-.89-5.425-.711-8.36-.089-15.921 1.424-23.57 18.856-16.81 45.806l6.136-1.067z" fill="#FFC08E"/><path d="M79.236 46.08v-4.626l16.81-8.805 10.051 1.868 7.026 5.603-2.401 2.224-26.15 4.447-5.336-.711z" fill="#171814"/><path d="M114.102 41.544a7.05 7.05 0 00-.267-3.825c-.445-1.423-1.246-2.846-2.046-4.092-2.313-3.557-5.159-6.492-9.428-7.293-7.56-1.512-14.942 1.245-22.414 1.957-2.134.178-4.358.089-6.315-.712.89 1.157 1.957 2.224 3.202 3.024-.533.09-1.156.09-1.69.09a12.45 12.45 0 01-8.45-3.292 23.765 23.765 0 001.335 6.049c1.067 2.846 2.757 5.425 4.892 7.649l1.245 1.334c1.69 1.779 3.558 3.29 5.692 4.27l1.068.533c2.223.978 4.447 1.334 6.76 1.69.355.178.8.267 1.156.355.89.178 1.69.178 2.579.09h.267c.267 0 .534.088.711.088-1.334.8-2.935 1.068-4.447.89 2.846.711 5.87 1.067 8.806.89 2.579-.179 6.492-1.335 8.716-2.669 4.091-2.224 6.404-4.002 8.628-7.026z" fill="#171814"/><path d="M85.996 77.921c.8 6.582-2.224 12.363-6.938 12.897-4.625.623-9.072-4.18-9.962-10.94-.8-6.582 2.224-12.363 6.938-12.897 4.625-.622 9.161 4.358 9.962 10.94z" fill="#FFC08E"/><path d="M74.61 82.101l4.27 4.448 2.135-5.87-2.758 2.223-3.646-.8zm-.444-1.689l1.69-8.984 4.803 7.471-2.846 2.224-3.647-.712z" fill="#000"/></g></g><defs><clipPath id="clip0_2063_6130"><path fill="#fff" d="M0 0h196v170H0z"/></clipPath></defs></svg>