<svg width="196" height="170" fill="none" xmlns="http://www.w3.org/2000/svg"><g clip-path="url(#clip0_2063_5976)"><mask id="mask0_2063_5976" style="mask-type:alpha" maskUnits="userSpaceOnUse" x="0" y="0" width="196" height="170"><path d="M1.796 85.014L49.905 1.686h96.219l48.109 83.328-48.109 83.328H49.905L1.795 85.014z" fill="#C4C4C4" stroke="#AE81FF" stroke-width="2"/></mask><g clip-path="url(#clip1_2063_5976)" mask="url(#mask0_2063_5976)"><mask id="mask1_2063_5976" style="mask-type:luminance" maskUnits="userSpaceOnUse" x="1" y="10" width="194" height="168"><path d="M195 10H1v168h194V10z" fill="#fff"/></mask><g mask="url(#mask1_2063_5976)"><path d="M88.9 31.5s-18.7-25-43.5 15.4c-24.9 40.7-9.4 70.2 16.4 61.6 25.9-8.6 26.8-64.4 26.8-64.4l.3-12.6z" fill="#FFC08E"/></g><mask id="mask2_2063_5976" style="mask-type:luminance" maskUnits="userSpaceOnUse" x="1" y="10" width="194" height="168"><path d="M195 10H1v168h194V10z" fill="#fff"/></mask><g mask="url(#mask2_2063_5976)"><path d="M128.4 52.4s1.6-5.8-.5-12.1c-4.1-12.1-21-20.1-37.8-11.9C73.3 36.6 72.3 58.7 76.2 68c10.1 23.6 30.5 12.4 30.5 12.4s5.6-11.5 21.7-28z" fill="#FFC08E"/></g><mask id="mask3_2063_5976" style="mask-type:luminance" maskUnits="userSpaceOnUse" x="1" y="10" width="194" height="168"><path d="M195 10H1v168h194V10z" fill="#fff"/></mask><g mask="url(#mask3_2063_5976)"><path d="M77.7 193.3s-1.2-.2-2.3-.3c-.2 0-.5 0-.7-.1-1.5-.1-3.6-.4-5.8-.7-4.6-.6-8.8-.5-14-2.2-5.2-1.8-12.4 1.2-15.1-2.4-7-77 50-92.9 58.2-93.6 8.1-.7 17.5-.2 25.9 2.4 4.4 1.5 8.4 3.4 12.1 6.1 19.1 12.2 35.5 33.9 50.5 79.3-1.3 1.3-23 17.5-24.9 20.7-1.5 2.2-78.9-8.1-83.9-9.2z" fill="#171814" stroke="#392E40"/></g><mask id="mask4_2063_5976" style="mask-type:luminance" maskUnits="userSpaceOnUse" x="1" y="10" width="194" height="168"><path d="M195 10H1v168h194V10z" fill="#fff"/></mask><g mask="url(#mask4_2063_5976)"><path d="M121.2 83.8V93l.2 6.8s.7 1.5-7.3 1.5c-10.6-.2-15.7-4.7-15.7-4.7V80.9l3.3.5 19.5 2.4z" fill="#E69F66"/></g><mask id="mask5_2063_5976" style="mask-type:luminance" maskUnits="userSpaceOnUse" x="1" y="10" width="194" height="168"><path d="M195 10H1v168h194V10z" fill="#fff"/></mask><g mask="url(#mask5_2063_5976)"><path d="M121.2 84.3V93c-5.2-.3-14.7-2.1-18.9-9.9-.3-.7-.5-1.3-.7-1.8l19.6 3z" fill="#000"/></g><mask id="mask6_2063_5976" style="mask-type:luminance" maskUnits="userSpaceOnUse" x="1" y="10" width="194" height="168"><path d="M195 10H1v168h194V10z" fill="#fff"/></mask><g mask="url(#mask6_2063_5976)"><path d="M125.8 43s7.6 21 2.2 34.6c-4.7 12.4-12 11.5-19 9.5-7-2.1-10.4-6.2-10.4-6.2s-6.4 2.6-10.9-3.3c-4.6-5.7-2.3-12.7 1.3-14.5 3.6-1.8 8.2.7 8.2.7l-3.8-6.4c-.2-.1 16-33.9 32.4-14.4z" fill="#E69F66"/></g><mask id="mask7_2063_5976" style="mask-type:luminance" maskUnits="userSpaceOnUse" x="1" y="10" width="194" height="168"><path d="M195 10H1v168h194V10z" fill="#fff"/></mask><g mask="url(#mask7_2063_5976)"><path d="M96.4 74.4c-.2 0-.3 0-.5-.2L89.6 68c-.3-.3-.3-.8 0-1.1.3-.3.8-.3 1.1 0l6.4 6c.3.3.3.8 0 1.1-.2.2-.4.4-.7.4z" fill="#171814"/></g><mask id="mask8_2063_5976" style="mask-type:luminance" maskUnits="userSpaceOnUse" x="1" y="10" width="194" height="168"><path d="M195 10H1v168h194V10z" fill="#fff"/></mask><g mask="url(#mask8_2063_5976)"><path d="M89.9 72.9c-.3 0-.7-.3-.8-.7-.2-.5.2-.8.7-1l4.2-.8c.5-.2.8.2 1 .7.2.5-.2.8-.7 1l-4.4.8z" fill="#171814"/></g><mask id="mask9_2063_5976" style="mask-type:luminance" maskUnits="userSpaceOnUse" x="1" y="10" width="194" height="168"><path d="M195 10H1v168h194V10z" fill="#fff"/></mask><g mask="url(#mask9_2063_5976)"><path d="M96.9 63.6s9.6-5.5 12.9-12.7c3.3-7.2 3.3-10.8 3.3-10.8s1.6 4.6 5.4 5.5c3.6 1 7.4.2 7.4.2l2.7 6.7-1.1-11.9s-12.7-7.9-14-7.9c-1.3 0-17.6 3.8-18.4 4.9-1 1-5.5 14-5.5 14l-.2 5.7 7.5 6.3z" fill="#FFC08E"/></g><mask id="mask10_2063_5976" style="mask-type:luminance" maskUnits="userSpaceOnUse" x="1" y="10" width="194" height="168"><path d="M195 10H1v168h194V10z" fill="#fff"/></mask><g mask="url(#mask10_2063_5976)"><path d="M86.1 28.2l1.9 1.4c-9.8 6-9.3 13-10.2 13.5-.7.4-1.7-.6-2.3-1.4.7-7.5 7.4-13.1 10.6-13.5z" fill="#392E40"/></g><mask id="mask11_2063_5976" style="mask-type:luminance" maskUnits="userSpaceOnUse" x="1" y="10" width="194" height="168"><path d="M195 10H1v168h194V10z" fill="#fff"/></mask><g mask="url(#mask11_2063_5976)"><path d="M114 101.9h-1.5c-9.9-.3-16.3-5.9-16.5-6.2-.3-.3-.3-.8 0-1.1.3-.3.8-.3 1.1 0 0 0 6 5.5 15.5 5.7 9 .3 11.1-2 11.1-2 .3-.3.8-.3 1.1-.2.3.3.5.8.2 1.1-.2.5-2.2 2.7-11 2.7z" fill="#392E40"/></g><mask id="mask12_2063_5976" style="mask-type:luminance" maskUnits="userSpaceOnUse" x="1" y="10" width="194" height="168"><path d="M195 10H1v168h194V10z" fill="#fff"/></mask><g mask="url(#mask12_2063_5976)"><path d="M109.7 133.6s2.2 2.4 2.4 4.6h12.4c0-.5.2-1 .4-1.5 0 0 .1 0 .1-.1 1.3-1.4 4-2 6.6-2.6 3.3-.7 6.3-1.4 7.5-3.7.6-1.3.6-2.8-.2-4.7-.6-1.4-1.6-2.3-2.9-2.7-1.4-.4-3.1-.2-4.4.3 0-1.1-.1-1.8-.1-1.8h-26.2c-.2 0-1.6 6.2 4.4 12.2zm21.4-1.4c-1.3.3-2.6.6-3.9 1 2.7-2.8 3.7-5.7 4.1-7.9 1.3-.5 2.9-.9 4.1-.5.8.2 1.3.8 1.7 1.6.6 1.3.7 2.3.3 3.1-.9 1.4-3.6 2-6.3 2.7z" fill="#392E40"/><path d="M153.2 140.3l-3.1-13.4-2.9-5.4c-.5-1-1.5-1.6-2.6-1.7l-3.9-.3c-.5 0-.9 0-1.4.2-1.2.4-3.4 1.5-4.2 3.1-1 2.2 1.3 3.1 1.3 3.1l.9-2.3 3.1-.8s2.9 1 3 2.8l-7.3 1.1c-.3 0-.5.1-.8.3-.6.4-1.7 1.2-1.7 2.1 0 1.3 1.3 2.2 1.3 2.2s-.7 1.2-.2 2.5c.5 1.3 1.7 1.5 1.7 1.5s-.3 1.8.6 2.5c.9.7 2.7 1.4 2.7 1.4s2.7 3.7 5 5.2c2.5 1.7 9.3 0 8.5-4.1z" fill="#E69F66"/><path d="M135 131.5l10.4-1.5m-10.7 5.7l10.7-1.2m-7.5 5.1l5 .2c.7.1 1.5 0 2.1-.4" stroke="#171814" stroke-linecap="round" stroke-linejoin="round"/><path d="M126.2 146.2c-.9 2.3-3.2 3.9-5.8 3.9H98.9c-2.6 0-4.9-1.6-5.8-3.9h33.1z" fill="#392E40"/><path d="M89.6 152.5s-1-5.6 2.7-8.3c3.7-2.7 4.2-5.3 4.2-5.3s2.3-.3 2.8 2.4c.5 2.7-3.1 6.5-3.1 6.5l6.6 2.2s11.8-2.2 10.9 1.9l-6.1 1.5s-4.2 4.3-5.7 4.8c-1.5.6-4.5 2.3-6.9.7-2.3-1.4-4.2-1.1-5.4-6.4z" fill="#E69F66"/><path d="M109.2 153.6l-7.7.2s-6.6-1-8.1-1.6m9.9 1.7s-7.1 4.5-11.6 4.5" stroke="#171814" stroke-linecap="round" stroke-linejoin="round"/><path d="M115.4 118s-1.6-1.9 0-5.1c1.6-3.2.9-6.1-1.7-7" fill="#171814"/><path d="M115.4 118s-1.6-1.9 0-5.1c1.6-3.2.9-6.1-1.7-7" stroke="#392E40" stroke-linecap="round" stroke-linejoin="round"/><path d="M119.9 118.8s-1.8-1.6-.9-3.6c.9-2.1 1-4 .3-4.6" fill="#171814"/><path d="M119.9 118.8s-1.8-1.6-.9-3.6c.9-2.1 1-4 .3-4.6" stroke="#392E40" stroke-linecap="round" stroke-linejoin="round"/></g><mask id="mask13_2063_5976" style="mask-type:luminance" maskUnits="userSpaceOnUse" x="1" y="10" width="194" height="168"><path d="M195 10H1v168h194V10z" fill="#fff"/></mask><g mask="url(#mask13_2063_5976)" stroke="#171814"><path d="M116.2 57.8c.3 4.4-2.9 8.2-7.3 8.6-4.4.3-8.2-2.9-8.6-7.3-.3-4.4 3.2-7.1 7.6-7.4 4.3-.4 7.9 1.7 8.3 6.1zm20.6-1.6c.3 4.4-2.9 8.2-7.3 8.6-4.4.3-8.2-2.9-8.6-7.3-.3-4.4 3-6.5 7.4-6.9 4.4-.4 8.2 1.2 8.5 5.6zm-20.6 1.6s2.3-1.9 4.7-.4"/></g><mask id="mask14_2063_5976" style="mask-type:luminance" maskUnits="userSpaceOnUse" x="1" y="10" width="194" height="168"><path d="M195 10H1v168h194V10z" fill="#fff"/></mask><g mask="url(#mask14_2063_5976)"><path d="M107.6 59.7l.8.7c1.1 1 2.6 1 3.8 0l.9-.7" stroke="#171814" stroke-width="2" stroke-linecap="round" stroke-linejoin="round"/></g><mask id="mask15_2063_5976" style="mask-type:luminance" maskUnits="userSpaceOnUse" x="1" y="10" width="194" height="168"><path d="M195 10H1v168h194V10z" fill="#fff"/></mask><g mask="url(#mask15_2063_5976)"><path d="M125.1 58.6l.7.7c1 1 2.3 1 3.3 0l.8-.7" stroke="#171814" stroke-width="2" stroke-linecap="round" stroke-linejoin="round"/></g><mask id="mask16_2063_5976" style="mask-type:luminance" maskUnits="userSpaceOnUse" x="1" y="10" width="194" height="168"><path d="M195 10H1v168h194V10z" fill="#fff"/></mask><g mask="url(#mask16_2063_5976)"><path d="M113.5 72.5c.4 1.9 5.7 4.5 8.5 2.5" stroke="#171814" stroke-width="2" stroke-linecap="round" stroke-linejoin="round"/></g><mask id="mask17_2063_5976" style="mask-type:luminance" maskUnits="userSpaceOnUse" x="1" y="10" width="194" height="168"><path d="M195 10H1v168h194V10z" fill="#fff"/></mask><g mask="url(#mask17_2063_5976)"><path d="M119.7 63.6s.9 2.7-.1 4.1" stroke="#171814" stroke-width="2" stroke-linecap="round" stroke-linejoin="round"/></g><mask id="mask18_2063_5976" style="mask-type:luminance" maskUnits="userSpaceOnUse" x="1" y="10" width="194" height="168"><path d="M195 10H1v168h194V10z" fill="#fff"/></mask><g mask="url(#mask18_2063_5976)"><path d="M90.7 144.7s-7.2 2.3-1.2 12.7c7 12 14.6-.7 14.6-.7" stroke="#392E40" stroke-linecap="round" stroke-linejoin="round"/></g><mask id="mask19_2063_5976" style="mask-type:luminance" maskUnits="userSpaceOnUse" x="1" y="10" width="194" height="168"><path d="M195 10H1v168h194V10z" fill="#fff"/></mask><g mask="url(#mask19_2063_5976)"><path d="M63.6 162.9s18-18.4 27.1-18.2" stroke="#392E40" stroke-linecap="round" stroke-linejoin="round"/></g><mask id="mask20_2063_5976" style="mask-type:luminance" maskUnits="userSpaceOnUse" x="1" y="10" width="194" height="168"><path d="M195 10H1v168h194V10z" fill="#fff"/></mask><g mask="url(#mask20_2063_5976)"><path d="M100.3 161s-5.8 8.5-28.9 17" stroke="#392E40" stroke-linecap="round" stroke-linejoin="round"/></g><mask id="mask21_2063_5976" style="mask-type:luminance" maskUnits="userSpaceOnUse" x="1" y="10" width="194" height="168"><path d="M195 10H1v168h194V10z" fill="#fff"/></mask><g mask="url(#mask21_2063_5976)"><path d="M144.2 180.7l-1.8-36s2.4 5 8.7 2.2c5.1-2.3 3.5-7.1 3.5-7.1l18.2 40.9h-28.6z" stroke="#392E40" stroke-linecap="round" stroke-linejoin="round"/></g><mask id="mask22_2063_5976" style="mask-type:luminance" maskUnits="userSpaceOnUse" x="1" y="10" width="194" height="168"><path d="M195 10H1v168h194V10z" fill="#fff"/></mask><g mask="url(#mask22_2063_5976)"><path d="M110 53.7c-1.7-.2-3.9-.3-5.5 2" stroke="#171814" stroke-width="2" stroke-linecap="round" stroke-linejoin="round"/></g><mask id="mask23_2063_5976" style="mask-type:luminance" maskUnits="userSpaceOnUse" x="1" y="10" width="194" height="168"><path d="M195 10H1v168h194V10z" fill="#fff"/></mask><g mask="url(#mask23_2063_5976)"><path d="M130.8 53.9c-1.2-1.2-3.1-1.5-4.9-.7" stroke="#171814" stroke-width="2" stroke-linecap="round" stroke-linejoin="round"/></g></g></g><defs><clipPath id="clip0_2063_5976"><path fill="#fff" d="M0 0h196v170H0z"/></clipPath><clipPath id="clip1_2063_5976"><path fill="#fff" transform="translate(1 10)" d="M0 0h194v168H0z"/></clipPath></defs></svg>