<svg width="196" height="170" fill="none" xmlns="http://www.w3.org/2000/svg"><g clip-path="url(#clip0_2044_2078)"><mask id="mask0_2044_2078" style="mask-type:alpha" maskUnits="userSpaceOnUse" x="0" y="0" width="196" height="170"><path d="M49.328.686H146.7l48.686 84.328-48.686 84.328H49.328L.64 85.014 49.328.686z" fill="#D9D9D9"/></mask><g mask="url(#mask0_2044_2078)"><path d="M37.7 170.5S30 98.557 92.53 98.557C151.772 99.207 156 139.5 156 170.5H37.7z" fill="#171814" stroke="#392E40" stroke-miterlimit="10"/><path d="M121.593 73.114c-18.664 9.843-53.393 12.721-59.336 2.043C54.922 62.25 75.165 44.607 89.28 39.5c14.114-5.107 26.464-1.857 44.664 3.343 21.357 6.128 6.314 20.335-12.35 30.271z" fill="#171814"/><path d="M84.73 86.393l-1.765 21.171s3.343 6.314 15.971 8.45c9.472 1.579 13-.186 13-.186l-.371-10.864-.372-10.493-22.471-6.686-3.993-1.392z" fill="#E69F66"/><path d="M88.535 87.507c0 .557.186 1.207.372 2.136 3.992 10.864 17.364 14.207 22.75 15.228l-.372-10.493-22.75-6.871z" fill="#171814"/><path d="M125.864 39.036s-6.593-6.5-14.393-15.322c-2.228-2.507-8.264-2.971-11.05-1.114C92.9 27.8 89 28.264 85.471 27.521c-7.521-1.485-10.678 5.293-11.514 12.443-.743 6.222-1.207 15.972-1.207 15.972s11.607-15.786 23.4-17.457c11.793-1.765 29.714.557 29.714.557z" fill="#171814" stroke="#392E40" stroke-miterlimit="10"/><path d="M86.958 66.057s.278-12.721 18.85-16.343c18.571-3.621 21.45 18.572 21.45 18.572s18.014-9.75 2.228-17.272c-8.543-4.085-47.45-10.307-55.064 12.072 0-.093.278 3.807 12.536 2.971z" fill="#171814"/><path d="M87.422 40.986c15.228-5.2 28.321-6.036 47.914-.836 17.643 4.643 9.657 17.457-2.786 27.114-.092-.928-.185-1.207-.185-1.207 4.735-9.936-8.45-13.279-16.622-13.464-8.171-.093-25.535 1.021-37.978 14.021-1.672 3.436-2.6 7.15-2.6 7.15s-3.065 2.507 2.228 10.214c-6.964-.835-17.178-3.992-19.314-7.428-7.8-12.814 14.114-30.457 29.343-35.564z" fill="#171814" stroke="#392E40" stroke-miterlimit="10"/><path d="M124.564 54.357s5.943 20.057.186 34.543c-5.757 14.207-19.407 10.679-27.486 6.871-8.078-3.528-11.236-8.914-11.236-8.914S77.95 88.621 73.585 81.1c-4.55-7.428-.37-15.136 4.18-16.528 4.55-1.393 8.45 1.02 8.45 1.02l-1.858-3.9c6.686-5.663 26.836-11.42 40.207-7.335z" fill="#E69F66"/><path d="M114.628 87.879c-2.971.65-5.85-1.393-6.871-2.786-.279-.372-.372-.929 0-1.486.278-.278.835-.371 1.3.093 0 .186 2.971 3.436 6.407 1.671.464-.278.928 0 1.207.558.279.557.093 1.021-.371 1.392-.65.093-1.115.465-1.672.558zm-8.449-14.858h-5.2c-2.878 0-5.2-2.414-5.2-5.2v-5.478c0-1.115.836-1.95 1.95-1.95h11.979c1.114 0 1.95.835 1.95 1.95v5.478c-.186 2.786-2.6 5.2-5.479 5.2zm22.285.186h-5.2c-2.878 0-5.2-2.414-5.2-5.2V62.53c0-1.115.836-1.95 1.95-1.95h11.979c1.114 0 1.95.835 1.95 1.95v5.478c-.186 2.972-2.6 5.2-5.479 5.2z" fill="#171814"/><path d="M110.171 67.728c-.185 0-.65-.093-.835-.278-.372-.465-.279-1.115.185-1.486.279-.186 4.086-3.25 10.029-1.022.65.28.836.743.743 1.393-.279.65-.743.836-1.393.743-3.622-1.3-4.272-1.393-8.729.65zm4.922 12.072c-.093 0-.093 0-.279-.093-.371-.185-.464-.742-.185-1.114 2.878-4.829 0-7.336-.093-7.521-.279-.186-.279-.65-.093-1.115.186-.278.65-.371 1.021-.092 0 0 4.179 3.435.465 9.47-.279.372-.558.465-.836.465zM84.45 77.85h-.185c-.093 0-.093-.093-.186-.093l-5.014-4.921a.71.71 0 01-.186-.464c0-.186 0-.279.093-.465a.709.709 0 01.464-.185c.186 0 .279 0 .464.093l5.015 4.921a.709.709 0 01.185.464c0 .186 0 .279-.093.465-.185.092-.371.185-.557.185z" fill="#171814"/><path d="M78.972 76.736c-.279 0-.465-.279-.557-.557-.093-.372.185-.558.557-.65l3.807-.372c.371-.093.557.186.65.557.093.372-.186.557-.557.65l-3.9.372z" fill="#171814"/><path d="M82.129 106.265s3.9 8.45 18.386 9.935c0 0 8.45.836 12.35-.557" stroke="#392E40" stroke-width="1.5" stroke-miterlimit="10" stroke-linecap="round" stroke-linejoin="round"/></g></g><defs><clipPath id="clip0_2044_2078"><path fill="#fff" d="M0 0h196v170H0z"/></clipPath></defs></svg>