<svg width="196" height="170" fill="none" xmlns="http://www.w3.org/2000/svg"><g clip-path="url(#clip0_2063_5712)"><mask id="mask0_2063_5712" style="mask-type:alpha" maskUnits="userSpaceOnUse" x="0" y="0" width="196" height="170"><path d="M1.796 85.014L49.905 1.686h96.218l48.11 83.328-48.109 83.328H49.905L1.795 85.014z" fill="#C4C4C4" stroke="#AE81FF" stroke-width="2"/></mask><g clip-path="url(#clip1_2063_5712)" mask="url(#mask0_2063_5712)"><mask id="mask1_2063_5712" style="mask-type:luminance" maskUnits="userSpaceOnUse" x="1" y="1" width="195" height="169"><path d="M196 1H1v169h195V1z" fill="#fff"/></mask><g mask="url(#mask1_2063_5712)"><path d="M135 119l-7.7-51-13.9 29.4c.2 5 1.4 14.8 5.2 13.9 3.6-.8 12.5 4.8 16.4 7.7z" fill="#FFC08E"/></g><mask id="mask2_2063_5712" style="mask-type:luminance" maskUnits="userSpaceOnUse" x="1" y="1" width="195" height="169"><path d="M196 1H1v169h195V1z" fill="#fff"/></mask><g mask="url(#mask2_2063_5712)"><path d="M114.8 175.4c-.2.1-.3.1-.6.2h-.1c-.2 0-.4.1-.7.2-7 1.7-14.3 2.5-21.8 2.5-6.1 0-12.1-.5-17.8-1.7-.1 0-.2 0-.4-.1-2.3-.5-11.3-2.2-20.6-3.3-5-.6-10.2-1-14.4-.9-2.1 0-4.1.2-5.6.5-1.6.3-2.9.8-3.7 1.6-.7.7-1.1.7-1.2.6-.1 0-.2-.1-.3-.3-.1-.2-.2-.5-.3-.9-.4-1.5-.4-4.2 0-7.3.3-3.1.9-6.6 1.7-9.8.7-3.2 1.6-5.9 2.4-7.5 5.5-15.1 10.5-24.5 16.6-31.6 6.1-7 13.3-11.7 23.5-17.3h.1c.5-.5 1.2-1 2.1-1.4h.3l.1-.1c4.2-2.2 12-4.2 21.3-5 9.2-.8 19.8-.2 29.3 2.5 4.9 1.5 9.5 3.5 13.7 6.3 3.7 2.5 10.7 7.4 17.4 18.1 6.6 10.7 12.9 27.2 15 53-1.3 1-3.4 1.7-6 2.1-2.7.4-5.9.6-9.2.7-.7 0-1.3 0-2 .1-2.6.1-5.2.2-7.6.4-2.9.2-5.5.7-7.3 1.6-1.2.6-2.9.7-4.9.4-2-.3-4.2-.8-6.4-1.5l-.9-.3c-1.9-.5-3.9-1.1-5.7-1.4-2.4-.6-4.4-.8-6-.4z" fill="#171814" stroke="#392E40" stroke-width="1.017"/></g><mask id="mask3_2063_5712" style="mask-type:luminance" maskUnits="userSpaceOnUse" x="1" y="1" width="195" height="169"><path d="M196 1H1v169h195V1z" fill="#fff"/></mask><g mask="url(#mask3_2063_5712)"><path d="M85.3 146.9c-22.3-48.7-19-87-12.8-102.7l15.9 12.9c-3.1 54.7 14.9 87.5 24 113.8h-18l-9.1-24z" fill="#FFC08E"/></g><mask id="mask4_2063_5712" style="mask-type:luminance" maskUnits="userSpaceOnUse" x="1" y="1" width="195" height="169"><path d="M196 1H1v169h195V1z" fill="#fff"/></mask><g mask="url(#mask4_2063_5712)"><path d="M39.8 155.4c1.6-.4 6.9 7.2 6.9 7.2s3.6 4.6 2.5 6.2" fill="#171814"/><path d="M39.8 155.4c1.6-.4 6.9 7.2 6.9 7.2s3.6 4.6 2.5 6.2" stroke="#392E40" stroke-width="1.017" stroke-linecap="round" stroke-linejoin="round"/></g><mask id="mask5_2063_5712" style="mask-type:luminance" maskUnits="userSpaceOnUse" x="1" y="1" width="195" height="169"><path d="M196 1H1v169h195V1z" fill="#fff"/></mask><g mask="url(#mask5_2063_5712)"><path d="M88 82.1l.9 11.6s4.3 17.4 17.6 17.8c9.8.5 13.3-1.8 13.3-1.8L118 98.3l-1.8-11.2L92 82.8l-4-.7z" fill="#E69F66"/></g><mask id="mask6_2063_5712" style="mask-type:luminance" maskUnits="userSpaceOnUse" x="1" y="1" width="195" height="169"><path d="M196 1H1v169h195V1z" fill="#fff"/></mask><g mask="url(#mask6_2063_5712)"><path d="M88 81.2c0 .7.5 1.4.7 2.1 5.5 11.2 23.5 14.9 29.2 15.1l-1.8-11.2-28.1-6z" fill="#171814"/></g><mask id="mask7_2063_5712" style="mask-type:luminance" maskUnits="userSpaceOnUse" x="1" y="1" width="195" height="169"><path d="M196 1H1v169h195V1z" fill="#fff"/></mask><g mask="url(#mask7_2063_5712)"><path d="M119.3 35.5s12.6 22.6 5.4 42.3c-4.1 16-15 15.3-23.9 12.6-8.9-2.7-12.8-8-12.8-8s-8 3-13.7-4.6c-5.5-7.3-2.5-16 2.1-18.3 4.6-2.1 10.1 1.1 10.1 1.1l-4.6-8.2c.4.2 17.5-42 37.4-16.9z" fill="#E69F66"/></g><mask id="mask8_2063_5712" style="mask-type:luminance" maskUnits="userSpaceOnUse" x="1" y="1" width="195" height="169"><path d="M196 1H1v169h195V1z" fill="#fff"/></mask><g mask="url(#mask8_2063_5712)"><path d="M105.1 76.2l.3-1c-.4-.1-.8 0-1.1.4-.3.3-.3.8-.1 1.2l.9-.6zm10.8 3.1l.9.5c.2-.3.2-.6.1-.9-.1-.3-.4-.5-.7-.6l-.3 1zm-11.1-2.1l10.8 3.1.6-2-10.8-3.1-.6 2zm10.2 1.6c-.4.7-.7 1.4-1.2 1.9-.2.2-.4.3-.7.4-.2.1-.6.1-1.1-.1l-.7 1.9c.8.3 1.5.4 2.2.2.7-.2 1.2-.5 1.6-.9.8-.7 1.3-1.9 1.5-2.3l-1.6-1.1zm-2.9 2.1c-2.4-.9-4.8-2.9-6.2-5.2l-1.8 1c1.6 2.8 4.4 5.1 7.2 6.1l.8-1.9z" fill="#171814"/></g><mask id="mask9_2063_5712" style="mask-type:luminance" maskUnits="userSpaceOnUse" x="1" y="1" width="195" height="169"><path d="M196 1H1v169h195V1z" fill="#fff"/></mask><g mask="url(#mask9_2063_5712)"><path d="M87.2 74.4c-.2-.1-.2-.1-.4-.1l-7.6-7.4c-.5-.4-.5-1 .1-1.4.4-.5 1-.5 1.4.1l7.6 7.4c.5.4.5 1-.1 1.4-.3-.1-.6.2-1 0z" fill="#171814"/></g><mask id="mask10_2063_5712" style="mask-type:luminance" maskUnits="userSpaceOnUse" x="1" y="1" width="195" height="169"><path d="M196 1H1v169h195V1z" fill="#fff"/></mask><g mask="url(#mask10_2063_5712)"><path d="M78.3 73.5c-.2-.1-.5-.2-.7-.4-.2-.5 0-1 .5-1.3l5.4-2.6c.5-.2 1 0 1.3.5.2.5 0 1-.5 1.3L79 73.5c-.1.2-.3.1-.7 0z" fill="#171814"/></g><mask id="mask11_2063_5712" style="mask-type:luminance" maskUnits="userSpaceOnUse" x="1" y="1" width="195" height="169"><path d="M196 1H1v169h195V1z" fill="#fff"/></mask><g mask="url(#mask11_2063_5712)"><path d="M102.8 37.1s6.4-.9 13.3 3.2c6.9 4.1 8.2 8 8.2 8s4.1-10.5-5-19.9c-7.5-7.7-25.8-7.2-37.4 1.3-7.7 5.7-10.3 18.5-10.3 18.5l15.1 12.3c.1.1 21.4-4 16.1-23.4z" fill="#FFC08E"/></g><mask id="mask12_2063_5712" style="mask-type:luminance" maskUnits="userSpaceOnUse" x="1" y="1" width="195" height="169"><path d="M196 1H1v169h195V1z" fill="#fff"/></mask><g mask="url(#mask12_2063_5712)"><path d="M101.5 115.9l-8.3-9.8-2.1-2.6-1-4.6-1.4-6v.2c.5.7 2.1 3 4.8 5.7 5.3 5 14.6 10.7 27.4 5.3 2.1-.9 3.2-.5 3.4 1.4 10.2 31.1-12 35.2-22.8 10.4z" fill="#171814"/></g><mask id="mask13_2063_5712" style="mask-type:luminance" maskUnits="userSpaceOnUse" x="1" y="1" width="195" height="169"><path d="M196 1H1v169h195V1z" fill="#fff"/></mask><g mask="url(#mask13_2063_5712)"><path fill-rule="evenodd" clip-rule="evenodd" d="M83 179.6l-5.9 4-22.4-56.3 4.2-3.1L83 179.6z" fill="#392E40"/></g><mask id="mask14_2063_5712" style="mask-type:luminance" maskUnits="userSpaceOnUse" x="1" y="1" width="195" height="169"><path d="M196 1H1v169h195V1z" fill="#fff"/></mask><g mask="url(#mask14_2063_5712)"><path d="M54.7 127.3l-17.5-3L60 181.5l16.2 2.5.8-.4-22.3-56.3z" fill="#171814"/></g><mask id="mask15_2063_5712" style="mask-type:luminance" maskUnits="userSpaceOnUse" x="1" y="1" width="195" height="169"><path d="M196 1H1v169h195V1z" fill="#fff"/></mask><g mask="url(#mask15_2063_5712)"><path d="M37.2 124.3l17.5 3 4.2-3.1-17.7-2.2-4 2.3z" fill="#171814"/></g><mask id="mask16_2063_5712" style="mask-type:luminance" maskUnits="userSpaceOnUse" x="1" y="1" width="195" height="169"><path d="M196 1H1v169h195V1z" fill="#fff"/></mask><g mask="url(#mask16_2063_5712)"><path d="M37.2 124.3l17.5 3m-17.5-3l4-2.3 17.6 2.1L83 179.6l-5.9 4-22.4-56.3m-17.5-3L60 181.5l16.2 2.5.8-.4m-22.3-56.3l4.2-3.1" stroke="#392E40" stroke-width="1.017"/></g><mask id="mask17_2063_5712" style="mask-type:luminance" maskUnits="userSpaceOnUse" x="1" y="1" width="195" height="169"><path d="M196 1H1v169h195V1z" fill="#fff"/></mask><g mask="url(#mask17_2063_5712)"><path d="M32 159.2l21.7-9.1 5.3 9.1-28.1 20.6s-5.2 0-5.2-7.3c-.1-7.9 3.5-12.1 6.3-13.3z" fill="#E69F66"/></g><mask id="mask18_2063_5712" style="mask-type:luminance" maskUnits="userSpaceOnUse" x="1" y="1" width="195" height="169"><path d="M196 1H1v169h195V1z" fill="#fff"/></mask><g mask="url(#mask18_2063_5712)"><path d="M105.6 50.4c-1.7-.2-5.5.2-6.7 3.1" stroke="#171814" stroke-width="2.034" stroke-linecap="round"/></g><mask id="mask19_2063_5712" style="mask-type:luminance" maskUnits="userSpaceOnUse" x="1" y="1" width="195" height="169"><path d="M196 1H1v169h195V1z" fill="#fff"/></mask><g mask="url(#mask19_2063_5712)"><path d="M126.7 51.5c-1.2-1.2-4.4-3.2-7.2-1.7" stroke="#171814" stroke-width="2.034" stroke-linecap="round"/></g><mask id="mask20_2063_5712" style="mask-type:luminance" maskUnits="userSpaceOnUse" x="1" y="1" width="195" height="169"><path d="M196 1H1v169h195V1z" fill="#fff"/></mask><g mask="url(#mask20_2063_5712)"><path fill-rule="evenodd" clip-rule="evenodd" d="M88.6 92.7c1 3.1 2.4 7.1 3.9 9.8 1.9 3.3 4.4 6.6 7.2 9.8 5.3 6.2 11.6 11.8 16.1 15.2 2.1-4.2 2.9-9.4 3.1-14.3.2-5.1-1-15.5-1.5-18.3-.1-.3.1-.5.4-.6.3-.1.5.1.6.4.5 2.9 1.8 13.4 1.6 18.6-.2 5.2-1.1 10.8-3.5 15.3l-.3.5-.5-.4c-4.6-3.5-11.2-9.3-16.8-15.7-2.8-3.2-3.7-4.5-5.6-7.9-1-1.8-2.1-3.1-3.1-6.2-.1-.3-1.1-4.6-1.6-6.2z" fill="#392E40"/></g><mask id="mask21_2063_5712" style="mask-type:luminance" maskUnits="userSpaceOnUse" x="1" y="1" width="195" height="169"><path d="M196 1H1v169h195V1z" fill="#fff"/></mask><g mask="url(#mask21_2063_5712)"><path d="M109 56.2l-2.9 2.3 1 3.6" stroke="#171814" stroke-width="2.034" stroke-linecap="round" stroke-linejoin="round"/></g><mask id="mask22_2063_5712" style="mask-type:luminance" maskUnits="userSpaceOnUse" x="1" y="1" width="195" height="169"><path d="M196 1H1v169h195V1z" fill="#fff"/></mask><g mask="url(#mask22_2063_5712)"><path d="M122.4 56.2l-2.9 2.3 1 3.6" stroke="#171814" stroke-width="2.034" stroke-linecap="round" stroke-linejoin="round"/></g><mask id="mask23_2063_5712" style="mask-type:luminance" maskUnits="userSpaceOnUse" x="1" y="1" width="195" height="169"><path d="M196 1H1v169h195V1z" fill="#fff"/></mask><g mask="url(#mask23_2063_5712)"><path d="M114.2 66.9c.6.8 1.2 2.9-.9 5.1" stroke="#171814" stroke-width="2.034" stroke-linecap="round"/></g><mask id="mask24_2063_5712" style="mask-type:luminance" maskUnits="userSpaceOnUse" x="1" y="1" width="195" height="169"><path d="M196 1H1v169h195V1z" fill="#fff"/></mask><g mask="url(#mask24_2063_5712)"><path d="M116.9 133.1c1.2-.3 1.9-1.8 1.5-3.4-.4-1.6-1.7-2.7-2.9-2.4-1.2.3-1.9 1.8-1.5 3.4.4 1.6 1.7 2.7 2.9 2.4z" fill="#392E40"/></g><mask id="mask25_2063_5712" style="mask-type:luminance" maskUnits="userSpaceOnUse" x="1" y="1" width="195" height="169"><path d="M196 1H1v169h195V1z" fill="#fff"/></mask><g mask="url(#mask25_2063_5712)"><path d="M55.3 145.5c.7-.8 1-1.3 1.7-2.2.6-.7 1.3-1.3 2.1-1.8.3-.2.6-.4 1-.4.3 0 .7.1.9.4.1.2.1.5 0 .7-.1.4-.3.7-.5 1-.5.8-.5 1.2-.6 1.9-.1.4 0 .8.3 1 .7.5 2.6-.8 3.2-1.2 1.5-.9 2.7-1.9 3.1-3.7 0-.2.1-.4.2-.6.5-1 1.5.2 1.8.7.5.8.8 1.8.6 2.8.7.1 1.3.5 1.7 1.1.5.8.5 1.9.3 2.8 1.7.4 2 2.6 1.2 3.8.8.4 1.2 1.3 1.2 2.2 0 .9-.5 1.7-1.2 2.3-.7.7-1.6.9-2.3 1.5-.8.6-1.8 1-2.8 1.4-1.4.5-2.9.7-4.4.9-1.9.3-4.4-.2-6.2.6-.8.4-2.5.1-3.4-.1-.9-.2-.2.3-.6-.5-.5-1-.9-2-1.4-3-.2-.5-.4-1-.5-1.5-.1-.6.1-1.3.3-1.9.3-1.1.7-2.1 1.1-3.1.8-1.7 1.9-3.5 3.2-5.1z" fill="#E69F66"/><path d="M67 147.6c.8-.7 1.4-1.7 1.6-2.8.1-.2.8-.5.7-.1-.3 1.2-.9 2.2-1.8 3-.1.1-.3.2-.5.2-.1-.1-.1-.2 0-.3zm1.9 2.9c0-.2.2-.3.3-.3h.1s.1 0 .1-.1h.1l.1-.1c.1 0 .1-.1.2-.1l.1-.1.1-.1c.2-.2.4-.5.5-.8.1-.2.3-.3.4-.3.1 0 .3 0 .2.2-.4.8-1.1 1.5-1.9 1.9 0 0-.3 0-.3-.2zm1.8 3.4l.2-.2.1-.1.2-.2.1-.1s0-.1.1-.1c.2-.2.3-.4.3-.7 0-.2.2-.3.3-.3.1 0 .4-.1.3.1-.1.8-.7 1.4-1.3 1.8-.1.1-.3.2-.5.1-.1-.1.1-.3.2-.3z" fill="#171814"/></g><mask id="mask26_2063_5712" style="mask-type:luminance" maskUnits="userSpaceOnUse" x="1" y="1" width="195" height="169"><path d="M196 1H1v169h195V1z" fill="#fff"/></mask><g mask="url(#mask26_2063_5712)"><path d="M39.9 155.4c-2.8 1.8 1.7 14.5 9.3 13.6 0 0-5 4.8-11.5 8.1-3.7 2-12.1-.2-12.7-5.2-.6-5 2.4-12.5 14.9-16.5z" fill="#171814" stroke="#392E40" stroke-width="1.017" stroke-linecap="round" stroke-linejoin="round"/></g></g></g><defs><clipPath id="clip0_2063_5712"><path fill="#fff" d="M0 0h196v170H0z"/></clipPath><clipPath id="clip1_2063_5712"><path fill="#fff" transform="translate(1 1)" d="M0 0h195v169H0z"/></clipPath></defs></svg>