<svg width="196" height="170" fill="none" xmlns="http://www.w3.org/2000/svg"><mask id="mask0_2063_6134" style="mask-type:alpha" maskUnits="userSpaceOnUse" x="0" y="0" width="196" height="170"><path d="M1.796 85.015l48.11-83.328h96.218l48.11 83.328-48.11 83.328H49.906L1.796 85.015z" fill="#C4C4C4" stroke="#66D9EF" stroke-width="2"/></mask><g mask="url(#mask0_2063_6134)"><path d="M90.618 63.798h0l-.046.012-.043.02-12.404 5.857a32.752 32.752 0 01-1.08-.795 37.258 37.258 0 01-2.996-2.554c-2.255-2.144-4.571-4.955-5.154-7.785-.57-2.773.6-4.764 1.95-6.094a10.277 10.277 0 012.842-1.957l.01-.004h.001l.378-.158-.08-.401h0v-.002l-.001-.006-.005-.028a20.213 20.213 0 01-.095-.566 34.157 34.157 0 01-.329-7.096c.26-4.226 1.476-8.994 5.153-11.672 1.907-1.312 3.266-1.468 4.235-1.136.992.34 1.743 1.245 2.303 2.417.554 1.161.88 2.501 1.066 3.566a19.458 19.458 0 01.225 1.778l.001.024v.006h.001l.981.099h.001l.002-.005.006-.021.025-.09a18.806 18.806 0 01.59-1.646 22.734 22.734 0 012.21-4.107c2.106-3.096 5.57-6.468 11.037-7.664 2.339-.51 4.164-.333 5.588.19 1.425.524 2.482 1.408 3.261 2.364.782.958 1.28 1.985 1.584 2.776.151.394.252.727.316.96a8.4 8.4 0 01.082.334l.003.015v.003h.001l.167.87.658-.593h.001l.003-.004.017-.015.071-.062a20.758 20.758 0 011.308-1.023c.877-.63 2.081-1.4 3.41-1.975 1.335-.576 2.756-.938 4.079-.802 1.297.133 2.539.748 3.554 2.207.974 1.464 1.363 3.456 1.312 5.688-.05 2.226-.539 4.64-1.264 6.893-.726 2.253-1.683 4.325-2.654 5.867-.487.771-.969 1.398-1.419 1.847-.46.46-.841.686-1.117.744-.326.069-.813.056-1.454-.051a16.994 16.994 0 01-2.177-.547c-1.616-.504-3.471-1.243-5.234-2.01a115.188 115.188 0 01-6.491-3.078l-.104-.054-.027-.014-.006-.003h-.002v-.001l-.231.443.231-.443-.689-.36-.041.777h0l-.001.006-.001.02-.005.08a44.103 44.103 0 01-.124 1.472 51.13 51.13 0 01-.522 3.791c-.261 1.47-.619 3.055-1.104 4.517-.484 1.463-1.087 2.772-1.824 3.717-1.597 1.844-4.058 3.212-6.166 4.124a30.462 30.462 0 01-3.485 1.258c-.095.027-.168.048-.217.06l-.054.015-.014.004h-.002 0z" fill="#171814" stroke="#3A2622"/><path d="M153.211 159.556c-2.006 1.642 2.19 15.325 0 16.785-1.642 1.095-8.442 4.77-10.084 5.864-9.304 5.474-20.565-5.864-31.512-4.222-3.466.547-6.933.73-10.399.73h-1.642c-6.933 0-13.5-.913-19.886-2.372-9.304-2.189-22.92 7.48-30.766 2.372-2.919-1.825-15.026-3.274-17.58-5.464-3.649-2.919 7.115-20.443 4.014-23.909a55.008 55.008 0 01-4.014-5.108c5.838-13.683 16.42-33.387 30.832-38.313 33.749-13.15 71.151 3.102 71.151 3.102s16.42 8.209 19.886 50.535z" fill="#171814"/><path d="M102.01 178.989c-75.312 5.02-62.102-22.88-70.33-34.827.812-6.762 10.482-21.076 15.216-27.388 10.008-10.008 21.076-13.637 25.36-14.201 14.335-3.787 29.416-1.578 35.164 0 21.369 1.894 29.867 8.453 31.445 11.496 9.197 11.361 13.525 34.94 14.539 45.309 13.938 29.462-39.56 18.822-51.394 19.611z" stroke="#3A2622" stroke-width="2"/><path d="M89.688 82.222l-1.583 18.819s2.99 5.628 14.246 7.563c8.443 1.407 11.608-.176 11.608-.176l-.351-9.674-.352-9.321-20.05-5.98-3.518-1.231z" fill="#E69F66"/><path d="M93.03 83.277c0 .528.176 1.055.352 1.934 3.517 9.674 15.301 12.664 20.05 13.543l-.352-9.321-20.05-6.156z" fill="#000"/><path d="M121.171 46.87s8.091 24.272 2.99 37.111c-5.101 12.663-17.236 9.498-24.448 6.156-7.21-3.166-10.025-7.915-10.025-7.915s-7.21 1.583-11.08-5.1c-4.046-6.684-.352-13.543 3.693-14.774 4.046-1.231 8.443 1.934 8.443 1.934l-2.99-7.21c0 .175 19.171-32.89 33.417-10.202z" fill="#E69F66"/><path d="M89.159 74.483c-.176 0-.352 0-.528-.176l-8.266-6.86c-.352-.351-.352-.879-.176-1.23.352-.352.88-.352 1.23-.176l8.443 6.859c.352.352.352.88.176 1.231-.352.352-.528.352-.88.352zm14.951-18.995c-.176 0-.352 0-.528-.176a.85.85 0 010-1.231c2.99-3.166 6.508-2.287 7.915-1.232.352.176.527.88.352 1.232-.176.351-.88.527-1.232.351-.175 0-2.99-1.758-5.628 1.056h-.879zm18.996.703c-.176 0-.352 0-.528-.176-1.935-1.759-4.045-.88-4.221-.703-.528.176-.88 0-1.231-.352-.176-.352 0-.88.351-1.231.176 0 3.342-1.583 6.156 1.055a.85.85 0 010 1.231s-.352.176-.527.176zM117.97 74.92h-.352c-.527-.176-.703-.704-.527-1.231 2.462-6.156-1.759-8.442-1.935-8.618-.352-.176-.528-.704-.352-1.231.176-.352.704-.528 1.232-.352 0 0 5.979 2.99 2.814 10.728-.176.528-.528.704-.88.704z" fill="#000"/><path d="M115.02 109.022a1 1 0 10-.57-1.917l.57 1.917zm-28.802-7.845c2 2.075 5.96 4.977 11.01 6.895 5.063 1.923 11.295 2.882 17.792.95l-.57-1.917c-5.969 1.775-11.741.909-16.512-.903-4.784-1.816-8.491-4.558-10.28-6.414l-1.44 1.389z" fill="#3A2622"/><path d="M108.156 64.458c-.352 0-.704-.351-.88-.703l-.879-4.397c-.176-.528.176-.88.703-1.055.528 0 .88.175 1.056.703l.879 4.397c0 .528-.176.88-.879 1.055 0 0 .176 0 0 0zm13.262.231c-.352 0-.704-.352-.88-.703l-.703-2.881c-.176-.528.176-.88.703-1.056.528 0 .88.176 1.056.704l.703 2.88c0 .528-.176.88-.879 1.056zm-8.69 16.127c-.352 0-5.101-.176-6.859-4.573-.176-.528 0-.88.527-1.055.528-.176.88 0 1.056.527 1.231 3.342 5.1 3.342 5.276 3.518.528 0 .879.352.879.88 0 .351-.351.703-.879.703z" fill="#000"/><path d="M90.743 64.282s7.387-1.231 10.201-7.387c2.814-5.98 2.287-11.608 2.287-11.608s3.693 4.045 10.201 3.342c6.507-.704 8.266-7.387 8.266-7.387l-5.98-7.035s-24.447 5.1-24.975 4.397c-.527-.704-9.497 15.125-9.497 15.125l9.497 10.553z" fill="#171814"/><path d="M81.245 74.307c-.352 0-.703-.176-.703-.527-.176-.352 0-.88.351-1.232l4.75-2.462c.351-.176.879 0 1.23.352.176.352 0 .88-.351 1.231l-4.75 2.462c-.175.176-.35.176-.527.176z" fill="#000"/></g></svg>