<svg width="196" height="170" fill="none" xmlns="http://www.w3.org/2000/svg"><g clip-path="url(#clip0_2063_5834)"><mask id="mask0_2063_5834" style="mask-type:alpha" maskUnits="userSpaceOnUse" x="0" y="0" width="196" height="170"><path d="M1.796 85.014L49.905 1.686h96.219l48.109 83.328-48.109 83.328H49.905L1.795 85.014z" fill="#C4C4C4" stroke="#AE81FF" stroke-width="2"/></mask><g mask="url(#mask0_2063_5834)"><path d="M195.73 115.758c-2.027 9.936-5.475 19.466-10.341 27.983-3.042 5.272-6.489 10.138-10.341 14.802-1.014 1.217-2.231 2.433-3.245 3.65-4.664 5.069-9.936 9.53-15.613 13.383-5.07-.406-10.342-1.217-15.614-2.231-3.244-.811-6.286-1.622-9.53-2.433-3.447-1.014-6.895-2.23-10.342-3.447-4.866-1.825-9.733-3.853-14.397-5.88-23.318-10.747-40.757-23.319-40.757-23.319s-1.622-3.042-3.244-8.314c-.811-2.636-1.825-5.678-2.636-9.125 0-.405-.203-.811-.203-1.014v-.202c-.203-.609-.203-1.42-.406-2.028-1.216-6.286-1.825-13.586-1.014-21.088.609-7.3 5.475-16.628 10.342-27.172 1.42-3.244 3.042-6.489 4.258-9.936 1.014-2.23 1.825-4.46 2.433-6.894 1.42-4.461 2.636-8.922 3.245-13.383.203-1.014.203-2.23.405-3.245.203-2.027 0-4.258-.202-6.286 0 0 15.816-10.95 33.254 1.014 4.664 3.245 7.3 6.692 8.72 10.342 1.622 4.055 2.027 8.11 2.636 11.963.811 5.678 1.622 10.545 7.299 13.383 12.775 6.49 25.144 14.397 24.536 27.375-.608 13.18 6.691 28.591 17.236 21.291 6.488-4.664 15.816-3.853 23.521.811z" fill="#FFC08E"/><path d="M163.901 173.889l.045.171-32.66 13.209c-4.045 1.213-8.468 2.418-12.68 3.019h0l-.008.002a98.907 98.907 0 01-15.534 1.21c-17.144 0-33.28-4.639-47.198-12.707-2.41-1.406-4.617-2.81-6.82-4.41a3.243 3.243 0 00-.33-.298 1.14 1.14 0 00-.404-.202 96 96 0 01-2.22-1.74l-.003-.002a101.84 101.84 0 00-2.107-1.656l.57-4.273.608-4.562.005-.033v-.033c0-.104 0-.217.018-.323.017-.103.04-.136.04-.136s0 0 0 0l.108-.108.028-.152a767.17 767.17 0 011.824-9.322l.01-.048v-.108 0-.015 0-.008 0-.006 0-.006 0-.004 0-.005 0-.004 0-.003 0-.004 0-.003 0-.003 0-.003 0-.002 0-.003 0-.003 0-.002 0-.002 0-.003 0-.002 0-.002 0-.002 0-.002 0-.002 0-.002 0-.002 0-.002 0-.002 0-.002 0-.002 0-.001 0-.002 0-.002 0-.002 0-.001 0-.002 0-.002 0-.001 0-.002 0-.001 0-.002 0-.001 0-.002 0-.002 0-.001 0-.002 0-.001 0-.002 0-.001 0-.002 0-.001 0-.002 0-.001 0-.001 0-.002 0-.001 0-.002 0-.001 0-.002 0-.001 0-.002 0-.001 0-.002 0-.001 0-.002 0-.001 0-.002 0-.001 0-.002 0-.001 0-.002 0-.001 0-.002 0-.001 0-.002 0-.001 0-.002 0-.002 0-.001 0-.002 0-.001 0-.002 0-.002 0-.002 0-.001 0-.002 0-.002 0-.002 0-.002 0-.001 0-.002 0-.002 0-.002 0-.002 0-.003 0-.002 0-.002 0-.002 0-.003 0-.002 0-.003 0-.002 0-.003 0-.003 0-.003 0-.003 0-.003 0-.004 0-.004 0-.004 0-.005 0-.005 0-.006 0-.008 0-.013 0-.004c2.019-8.669 4.639-16.72 7.855-23.557 1.606-3.01 3.207-5.613 5.003-8.011.127-.133.241-.306.326-.433l.013-.02a2.47 2.47 0 01.242-.329l.016-.016.014-.018c1.02-1.222 2.005-2.403 3.18-3.383l.018-.014.016-.016c.93-.929 1.84-1.666 2.774-2.422.432-.349.87-.703 1.315-1.082h.189l.135-.104c4.418-3.413 9.033-5.821 13.648-7.426h0l.005-.002c10.04-3.614 19.884-3.616 27.93-2.208l.042.007h.044c.142 0 .341.038.611.092l.027.005c.218.044.489.098.731.105 3.206.604 6.21 1.405 8.611 2.206h0l.009.003c3.254 1.017 4.878 1.539 6.157 2.095 1.253.546 2.177 1.125 4.006 2.273l.062.039c5.035 3.159 9.683 8.81 13.828 15.568 4.14 6.749 7.749 14.556 10.723 21.975 2.974 7.416 5.308 14.433 6.898 19.596a235.964 235.964 0 011.815 6.17c.205.735.361 1.309.465 1.699z" fill="#171814" stroke="#392E40"/><path d="M196.542 111.297c-.203 1.419-.406 3.041-.811 4.461-2.028 9.936-5.475 19.466-10.342 27.982-6.691-2.636-15.005-6.894-22.507-11.152-12.37-6.894-18.776-16.83-18.776-16.83l-8.599-5.07-16.222-32.24-4.055-8.111-1.217-2.636-3.852-7.503-.811-1.42-.406-.81-3.042-5.881 2.636-2.028 2.637-2.027 8.828-6.265s.702 5.048 3.338 10.725c1.825 3.853 4.664 7.3 9.733 8.72 9.936 2.636 18.655 3.447 24.333 16.222 5.475 12.572-1.825 21.493 8.719 28.388 10.544 6.894 14.194-2.434 29.402 5.069.203 0 .608.203 1.014.406z" fill="#FFC08E"/><path d="M124.565 48.132a.999.999 0 10-1.788.894l1.788-.894zM112.46 61.579c.483-.16 1.629-.69 2.997-1.439 1.388-.761 3.071-1.786 4.628-2.971 1.544-1.175 3.03-2.555 3.959-4.04.937-1.498 1.391-3.258.521-4.997l-1.788.894c.44.88.304 1.872-.428 3.042-.742 1.185-2.006 2.392-3.475 3.51-1.456 1.107-3.049 2.08-4.378 2.808-1.351.74-2.366 1.195-2.669 1.296l.633 1.897z" fill="#000"/><path d="M108.539 82.3l1.622 21.494s-3.447 6.489-16.02 8.314c-9.327 1.419-12.571-3.245-12.571-3.245l1.014-19.06 22.305-6.692 3.65-.81z" fill="#E69F66"/><path d="M104.685 83.314c0 .608-.203 1.217-.405 2.028-4.056 11.152-16.843 14.397-22.318 15.208l.418-10.747 22.305-6.489z" fill="#171814"/><path d="M74.067 41.137s-9.328 27.78-3.853 42.583c5.475 14.6 19.06 11.152 26.969 7.502 7.908-3.65 11.355-8.922 11.355-8.922s7.908 2.028 12.369-5.677c4.461-7.503.609-15.411-3.852-17.033-4.461-1.42-9.531 2.027-9.531 2.027l3.447-8.11s-20.683-37.919-36.904-12.37z" fill="#E69F66"/><path d="M107.525 61.82s-11.356 3.447-20.48-8.517c-9.328-11.963-8.922-17.438-8.922-17.438L71.43 49.856s-2.636-8.922.406-15.208c3.041-6.286 7.097-5.272 7.097-5.272l25.955 3.853 8.719 19.669-6.083 8.922z" fill="#FFC08E"/><path d="M83.192 82.3h-.608c-.609 0-1.014-.609-.812-1.217 0-.608.609-1.014 1.217-.811.203 0 3.447.405 6.286-3.65.405-.406 1.014-.608 1.42-.203.405.406.608 1.014.202 1.42-2.839 4.055-6.286 4.46-7.705 4.46zm-5.07-6.894c-.406 0-.811-.203-1.014-.609-2.433-5.677 1.217-11.963 1.42-12.166.202-.406.81-.608 1.42-.406.405.203.607.811.405 1.42 0 0-3.245 5.677-1.217 10.341.203.608 0 1.014-.608 1.42 0-.203-.203 0-.406 0zm12.168-13.18c-.406 0-.61-.203-.812-.406-.405-.81-1.014-1.217-1.622-1.217-1.217-.202-2.636.609-3.042 1.014-.405.406-1.014.203-1.42-.202-.405-.406-.202-1.014.204-1.42 0 0 2.433-1.825 4.663-1.42 1.217.203 2.23 1.015 3.042 2.231.203.406.203 1.014-.406 1.42h-.608zm-15.21.202c-.405 0-.81-.203-1.013-.608-.406-.811-1.217-2.028-1.825-2.028-.406 0-.811.406-1.42 1.42-.202.405-.81.608-1.419.405-.406-.203-.608-.81-.406-1.42 1.014-1.621 2.028-2.433 3.245-2.433 2.028.203 3.447 2.84 3.65 3.245.203.608 0 1.014-.406 1.42h-.405zm13.992-7.908c-.203 0-.405 0-.608-.203-3.447-2.839-5.07-1.217-5.07-1.217a.98.98 0 01-1.419 0 .98.98 0 010-1.42c.203-.202 2.839-2.838 7.705 1.015.406.405.406 1.014.203 1.42-.405.202-.608.405-.81.405zm-17.641.609c-.203 0-.406 0-.608-.203-.406-.406-.608-1.014-.203-1.42.405-.405 2.433-2.838 4.258-2.636.609 0 1.42.406 2.028 1.825.203.609 0 1.014-.608 1.42-.609.203-1.014 0-1.42-.608 0-.203-.203-.406-.405-.609-.609 0-1.825 1.014-2.434 1.825 0 .203-.202.406-.608.406zm38.324 19.262c-.203 0-.406 0-.608-.202-.406-.406-.609-1.014-.203-1.42l6.488-8.313c.406-.406 1.014-.609 1.42-.203.405.405.608 1.014.203 1.42l-6.489 8.313c-.203.203-.406.405-.811.405z" fill="#000"/><path d="M117.258 71.553l-5.07-.202c-.608 0-1.014-.609-1.014-1.014 0-.609.406-1.014 1.014-1.014l5.07.203c.608 0 1.013.608 1.013 1.014 0 .608-.405 1.013-1.013 1.013z" fill="#000"/><path d="M124.719 49.103c3.123 3.638 9.77 10.914 11.376 10.914v-3.274c1.115 3.274 4.059 10.303 6.914 12.223l.669-4.802c.447 2.038 1.517 6.287 2.231 6.985.892.873 4.907 3.056 6.915 1.528.595-3.056.134-10.783-6.469-17.244h-3.792l2.231-1.091c-.669-.655-2.231-1.965-3.123-1.965h-3.346l1.115-.873c-1.561-.655-6.022-2.008-11.375-2.183 6.171 1.747 19.316 7.858 22.528 18.336-2.007-4.147-9.993-13.664-25.874-18.554z" fill="#AE81FF"/><path d="M138.893 73.206c2.582 2.808 7.711 8.741 7.56 10.01l-2.587-.306c2.483 1.188 7.762 4.172 9.013 6.608l-3.858.08c1.569.543 4.827 1.786 5.312 2.415.606.787 1.956 4.164.56 5.608-2.47.184-8.533-.903-13.022-6.725l.355-2.996-1.071 1.66c-.455-.59-1.344-1.946-1.261-2.651l.313-2.644-.794.8c-.371-1.296-1.024-4.948-.661-9.195.803 5.04 4.403 16 12.383 19.518-3.09-1.974-9.864-9.174-12.242-22.182zm-29.37 23.579c-7.859 6.288-24.452 6.288-27.77 4.716v4.716c11.527 3.667 25.325-2.446 28.294-4.716l-.524-4.716z" fill="#171814"/><path d="M90 103l2 2-2 2-2-2 2-2z" fill="#392E40"/></g></g><defs><clipPath id="clip0_2063_5834"><path fill="#fff" d="M0 0h196v170H0z"/></clipPath></defs></svg>