<svg width="196" height="170" fill="none" xmlns="http://www.w3.org/2000/svg"><g clip-path="url(#clip0_2044_2180)"><path d="M49.328.687h97.374l48.687 84.328-48.687 84.328H49.328L.641 85.015 49.328.687z" fill="#202020"/><mask id="mask0_2044_2180" style="mask-type:alpha" maskUnits="userSpaceOnUse" x="0" y="0" width="196" height="170"><path d="M1.796 85.014L49.905 1.686h96.218l48.11 83.328-48.109 83.328H49.905L1.795 85.014z" fill="#C4C4C4" stroke="#AE81FF" stroke-width="2"/></mask><g mask="url(#mask0_2044_2180)"><mask id="mask1_2044_2180" style="mask-type:luminance" maskUnits="userSpaceOnUse" x="-11" y="-5" width="222" height="194"><path d="M210.979-4.058H-11v192.229h221.979V-4.058z" fill="#fff"/></mask><g mask="url(#mask1_2044_2180)"><path d="M119.67 46.059c5.94 0 10.755-5.686 10.755-12.7 0-7.015-4.815-12.702-10.755-12.702s-10.756 5.687-10.756 12.701c0 7.015 4.816 12.7 10.756 12.7z" fill="#5B2E14" stroke="#392E40" stroke-miterlimit="10"/><path d="M123.56 33.473s2.517-4.348 5.263.343 2.632 7.78 2.632 7.78 3.204-1.716 3.662-.228c.457 1.487 0 7.552-.916 8.353-.801.8-2.975-.572-2.975-.572s-1.602 4.462-4.005 6.293c-2.402 1.83-4.691 1.602-5.263-.115 0 0 1.373-.686.572-2.288 0 0-.686-1.259 1.144-1.83 0 0 .801-.459-.114-1.488-1.03-1.03-.458-1.259.229-1.717.686-.457.801-1.144.229-1.716-.573-.572-.916-.686-.229-1.259.686-.572 1.144-1.03.915-1.83-.229-.801-1.259-.916-.801-1.831.343-.915 1.259-.916.687-1.83-.572-.916-1.488-.802-.916-1.832s1.373-1.03 1.03-1.602c-.686-.572-2.174-.343-1.144-2.631z" fill="#392E40"/><path d="M132.599 107.389c-2.517-15.561-1.258-9.382-7.552-21.74-4.233-8.238 4.119-25.173 0-31.237 8.239-21.054-6.865-33.869-15.676-35.47-33.296-6.523-34.212 19.451-34.097 20.023l-.23 4.12s5.493 55.38 6.18 90.621l68.195-3.203c.115 0-13.273-.801-16.82-23.114z" fill="#5B2E14" stroke="#392E40" stroke-miterlimit="10"/><mask id="mask2_2044_2180" style="mask-type:luminance" maskUnits="userSpaceOnUse" x="12" y="-5" width="198" height="194"><path d="M209.376-4.058H12.342v192.229h197.034V-4.058z" fill="#fff"/></mask><g mask="url(#mask2_2044_2180)"><path d="M46.325 216.204c-1.945-3.661-8.696-21.396-10.07-22.884-9.382-85.359 43.824-96.8 48.287-98.517 8.581-2.975 18.078-3.547 26.317-2.746 8.353.8 66.25 18.994 59.156 107.099-2.746 4.119-10.069.686-15.333 2.746-5.263 1.945-9.497 1.83-14.188 2.517-2.288.343-4.348.687-5.836.801-.228.114-.457.114-.686.114-1.144.115-2.288.344-2.288.344-5.264 1.258-83.872 13.044-85.36 10.526z" fill="#171814" stroke="#392E40"/></g><mask id="mask3_2044_2180" style="mask-type:luminance" maskUnits="userSpaceOnUse" x="3" y="-5" width="223" height="194"><path d="M225.052-4.058H3.073v192.229h221.979V-4.058z" fill="#fff"/></mask><g mask="url(#mask3_2044_2180)"><path d="M83.169 98.007c-.343-.344-.115-.916.229-1.259.343-.114.915-.114 1.258.229 0 0 2.403 2.632 12.701 2.288 10.87-.228 17.736-6.522 17.736-6.522a.897.897 0 011.258 0 .898.898 0 010 1.259c-.229.343-7.552 6.751-18.88 7.094h-1.716c-10.069 0-12.357-2.517-12.586-3.09z" fill="#392E40"/></g><path d="M114.177 75.923l.916 16.82s-6.751 5.836-16.935 6.522c-9.382.572-12.93-1.83-12.93-1.83l2.403-16.477 22.656-4.348 3.89-.687z" fill="#E69F66"/><path d="M114.177 74.436c0 .572-.229 1.258-.572 2.06-4.92 10.64-22.198 14.989-27.576 15.446l1.488-10.412 26.66-7.094z" fill="#000"/><path d="M124.704 72.147c4.005 23.571 23.457 62.131 1.373 82.613-1.601 1.487-3.775 1.831-5.721.915-5.95-2.746-17.735-11.327-14.302-34.441 4.576-30.436 6.407-33.64 8.352-48.514 0-.115 0-.344.115-.458.801-5.721 9.154-5.836 10.183-.115zM86.03 38.965c-10.184 14.76 17.163 84.672-.344 117.854-3.547 6.751-13.616 6.179-16.934-.686-4.348-8.811-8.239-22.427-3.89-39.132 7.78-29.75 4.92-37.302 8.467-51.948 3.89-15.79 12.7-26.088 12.7-26.088z" fill="#5B2E14" stroke="#392E40" stroke-miterlimit="10"/><path d="M83.169 32.214s-11.442 27.118-7.094 41.993c4.233 15.218 17.964 12.472 26.088 9.611 8.124-3.09 11.785-8.01 11.785-8.01s7.781 2.518 12.587-4.69c5.149-7.21 1.831-15.333-2.632-17.278-4.462-1.831-9.611 1.487-9.611 1.487l4.119-7.78c.458-.115-17.163-39.705-35.242-15.333z" fill="#E69F66"/><path d="M116.122 68.142c-.228 0-.457 0-.572-.228-.457-.458-.457-1.03 0-1.488l7.094-7.78c.458-.458 1.03-.458 1.374 0 .457.457.457 1.03 0 1.487l-7.095 7.78c-.343 0-.572.23-.801.23z" fill="#000"/><path d="M123.674 65.854l-5.149-.572c-.572 0-1.03-.572-.801-1.259 0-.572.572-1.03 1.259-.8l5.149.571c.572 0 1.03.573.801 1.259-.229.458-.572.801-1.259.801z" fill="#000"/><path d="M118.182 78.555a2.975 2.975 0 100-5.95 2.975 2.975 0 000 5.95z" fill="#fff" stroke="#000" stroke-miterlimit="10"/><path d="M96.328 54.297c.572-.8 1.259-2.402 3.662-2.402 3.089.228 2.517 2.86 6.865 2.173m-29.407-.457c3.433.916 2.174-1.716 5.035-2.06 3.09-.343 3.89 3.09 5.149 2.632m19.223-3.776c-1.259-2.174-4.577-3.661-6.98-4.119M78.02 48.92c1.488-2.174 3.548-2.632 6.294-2.632" stroke="#000" stroke-miterlimit="10" stroke-linecap="round" stroke-linejoin="round"/><path d="M95.64 62.765c0 1.716 2.175 3.204 4.806 3.204 2.632 0 4.806-1.373 4.806-3.204 0-1.717-2.174-3.204-4.806-3.204-2.746 0-4.805 1.373-4.805 3.204zm-15.103 2.631c2.275 0 4.12-1.434 4.12-3.203 0-1.77-1.845-3.204-4.12-3.204-2.275 0-4.119 1.434-4.119 3.204 0 1.769 1.844 3.203 4.12 3.203z" fill="#FF4DAF"/><path d="M90.263 60.476s0 2.289-2.288 3.547c-.572.23 2.06 2.06 3.09 1.946" stroke="#000" stroke-miterlimit="10" stroke-linecap="round" stroke-linejoin="round"/><path d="M76.761 44.343s23.457-5.721 27.004-12.472c0 0 .801 20.71 10.641 23.456l7.552-9.611-15.104-21.397-8.924-2.632-6.866.23c-19.68 5.72-14.303 22.426-14.303 22.426z" fill="#5B2E14"/><path d="M89.12 73.635s2.059 1.144 5.835-.458" stroke="#000" stroke-miterlimit="10" stroke-linecap="round" stroke-linejoin="round"/><path d="M82.253 54.755a1.373 1.373 0 100-2.746 1.373 1.373 0 000 2.746zm17.049.344a1.373 1.373 0 100-2.747 1.373 1.373 0 000 2.747z" fill="#000"/></g><path d="M128.366 38.965s2.517 5.95-.458 11.099" stroke="#000" stroke-width=".8" stroke-miterlimit="10" stroke-linecap="round" stroke-linejoin="round"/><path d="M95.535 155.029l-.006 2.517 14.875.032.005-2.518-14.874-.031z" fill="#D29B88"/><path d="M111.66 155.904H93.925l-2.86-36.843 23.685.114-3.09 36.729z" fill="#F8D5C4"/><path d="M90.378 126.383l1.144 14.189h22.656l1.258-14.189H90.378z" fill="#392E40"/><path d="M114.75 117.573H91.064l1.717-4.92h20.252l1.717 4.92z" fill="#F8D5C4"/><path d="M89.332 116.639l-.008 3.547 27.461.059.008-3.547-27.461-.059z" fill="#FBF0DE"/><path d="M115.894 158.879c-1.716 1.258-2.632 5.034-4.348 6.293 12.93 5.035 38.56 19.223 41.306 20.939 3.09-.343 6.408-8.238 3.318-18.422-.572-1.144-27.232.916-39.361-14.302-1.258-1.373 1.03 9.153-.915 5.492z" fill="#E69F66"/><path d="M113.033 164.715c-2.06 1.373-4.691-.115-5.95-.573-1.259-.457-4.92-4.119-4.92-4.119l-5.264-1.258c-.8-3.547 9.383-1.602 9.383-1.602l5.721-1.945s-3.089-3.319-2.632-5.607c.458-2.289 2.403-2.06 2.403-2.06s.458 2.289 3.662 4.577c3.204 2.289 2.288 7.209 2.288 7.209-1.03 4.462-2.746 4.119-4.691 5.378z" fill="#E69F66"/><path d="M114.406 158.879c-1.258.572-6.979 1.373-6.979 1.373l-6.637-.229m15.103 4.234c-3.89 0-10.069-3.89-10.069-3.89" stroke="#171814" stroke-linecap="round" stroke-linejoin="round"/><path d="M154.797 163s10.613 14.558-6.797 29" stroke="#392E40" stroke-linecap="round" stroke-linejoin="round"/><path d="M82.94 170.093c1.83-1.717 9.955-15.447 11.328-16.706 2.403-2.746 4.92-4.119 6.407-4.691 1.373-.687 2.975-1.602 2.746-2.517-.228-1.374-1.716-1.831-3.432-1.259 2.288-.687 5.378-.915 5.263-2.632 0-.915-.801-2.059-3.204-1.831 2.861-.686 4.463-1.716 3.776-3.203-.686-1.488-9.726.114-11.67.114 2.517-2.632 5.606-3.204 8.924-4.348 1.945-.572 2.746-1.716 2.517-2.403-.343-1.716-3.432-1.487-5.492-1.03-2.746.458-9.268 2.746-10.755 5.035-3.204 4.577-4.12 13.959-6.751 18.422-1.831 3.204-26.546 15.218-30.437 17.621-2.746 1.716-5.72 3.776-7.094 6.636-3.89 7.895-3.09 21.168 4.691 19.566 9.726-2.174 22.656-17.506 33.183-26.774z" fill="#E69F66"/><path d="M104.908 140.114s-7.094 1.602-9.725 1.144m1.601 5.15s1.488-1.259 4.463-1.602" stroke="#000" stroke-miterlimit="10" stroke-linecap="round" stroke-linejoin="round"/><path d="M44.361 197S37.937 179.714 53 168" stroke="#392E40" stroke-linecap="round" stroke-linejoin="round"/></g></g><defs><clipPath id="clip0_2044_2180"><path fill="#fff" d="M0 0h196v170H0z"/></clipPath></defs></svg>