<svg width="196" height="170" fill="none" xmlns="http://www.w3.org/2000/svg"><mask id="mask0_2063_6132" style="mask-type:alpha" maskUnits="userSpaceOnUse" x="0" y="0" width="196" height="170"><path d="M1.796 85.015l48.11-83.328h96.218l48.11 83.328-48.11 83.328H49.905L1.795 85.015z" fill="#C4C4C4" stroke="#F92672" stroke-width="2"/></mask><g mask="url(#mask0_2063_6132)"><path d="M25.578 179.321c2.383 1.949 4.765 3.682 7.364 5.415 1.95 1.299 3.682 2.382 5.631 3.681 11.046 6.498 23.391 10.83 36.386 12.779 4.115.65 8.23.866 12.346.866h1.949c8.23 0 16.027-1.083 23.607-2.815 11.046-2.599 21.442-7.148 30.755-13.212a80.556 80.556 0 009.746-7.147c4.332-3.466 8.447-7.581 12.129-11.696a65.123 65.123 0 004.765-6.064c-6.931-16.244-19.493-39.635-36.603-45.482-40.064-15.613-84.467 3.681-84.467 3.681s-19.492 9.747-23.608 59.994z" fill="#171814"/><path d="M86.362 202.39c43.352.963 73.724-27.162 83.492-41.344-.964-8.028-12.444-25.021-18.063-32.514-11.882-11.881-25.021-16.19-30.105-16.859-17.02-4.495-34.922-1.873-41.746 0-25.368 2.248-35.457 10.035-37.33 13.648-10.918 13.487-16.056 41.478-17.26 53.788 15.092 16.377 46.963 22.344 61.012 23.281z" stroke="#3A2622"/><path d="M107.662 93.554l1.3 22.524s-3.682 6.714-16.677 8.664c-9.746 1.299-13.212-.65-13.212-.65l.65-11.479.65-11.262 23.391-6.715 3.898-1.082z" fill="#E69F66"/><path d="M103.764 94.636c0 .65-.217 1.3-.433 2.166-4.332 11.479-17.977 14.728-23.608 15.594l.65-11.262 23.391-6.498z" fill="#000"/><path d="M72.142 50.453s-9.963 28.806-4.548 44.183c5.63 15.378 19.709 11.696 27.939 8.014 8.23-3.682 11.912-9.313 11.912-9.313s8.23 2.166 12.995-5.848c4.765-8.014.866-16.027-3.898-17.76-4.765-1.516-9.963 2.166-9.963 2.166l3.682-8.447c.216.217-20.792-39.634-38.119-12.995z" fill="#E69F66"/><path d="M70.193 56.951s2.166-4.765 7.797-4.981c5.632-.433 9.097 3.465 9.097 3.465s-1.95 9.53 6.064 14.078 13.645 2.816 13.645 2.816l5.414-2.383 3.466-8.23-17.11-16.244-17.93-5.428-6.2 4.96-4.243 11.947z" fill="#FFC08E"/><path d="M84.77 37.564c-16.368-.992-16.19 12.676-14.467 18.6 1.654-1.24 5.456-6.448 10.747-9.093 5.291-2.646 20.943 14.605 28.108 23.56 3.638-2.314 6.751-.964 7.854 0 8.68-13.227-11.781-31.827-32.242-33.067z" fill="#FFC08E"/><path d="M66.996 28.057c6.283 6.944 4.685 14.33 3.307 17.36 18.05 9.507 51.999 22.735 46.709 11.16-5.291-11.573-4.272-20.253-3.721-24.8l-7.44 7.44-3.72-17.36-4.96 11.986c-2.315-2.314-5.925-15.294-7.44-21.494l-3.72 20.668L74.85 12.349c3.968 9.59 2.755 18.877 1.653 22.321l-9.507-6.613z" fill="#FFC08E"/><path d="M85.139 126.257c14.727 0 25.773-10.179 26.423-10.612a1.048 1.048 0 000-1.517 1.047 1.047 0 00-1.516 0c-.217.217-14.728 13.429-31.838 9.314-.65-.217-1.083.216-1.3.866-.216.65.217 1.083.867 1.299 2.382.217 4.981.65 7.364.65z" fill="#3A2622"/><path d="M73.408 85.152h.16c.478-.16.638-.638.478-.957-1.276-3.988 1.755-8.454 1.755-8.454.319-.32.16-.798-.16-1.117-.319-.319-.797-.16-1.116.16-.16.16-3.51 5.104-2.074 9.89.32.318.638.478.957.478zm10.049-8.294c.32 0 .798-.32.798-.639l.478-4.147c0-.478-.319-.797-.638-.957-.478 0-.797.32-.957.638L82.66 75.9c0 .48.319.958.797.958zM71.176 75.9c.319 0 .797-.318.797-.638l.638-4.147c0-.478-.16-.797-.638-.957-.478 0-.797.16-.957.638l-.638 4.147c0 .479.16.958.798.958-.16 0 0 0 0 0zm16.11-6.858c.16 0 .319 0 .319-.16.319-.16.478-.638.319-1.116-1.595-3.031-5.264-2.233-5.424-2.233-.478.16-.638.478-.638.957.16.478.479.638.958.638.16 0 2.711-.479 3.668 1.276.32.478.479.638.798.638zM75.323 66.49c.16 0 .319 0 .478-.16.32-.32.479-.798.16-1.117-.638-.957-1.436-1.435-2.393-1.595-1.914-.319-3.828 1.435-3.828 1.435a.771.771 0 000 1.117.771.771 0 001.117 0c.319-.319 1.595-1.117 2.711-1.117.479 0 .957.32 1.276.958 0 .319.16.478.479.478zm3.789 25.223c2.589 0 4.569-2.255 5.178-3.643.152-.347.152-.867-.305-1.214-.304-.173-.761-.173-1.066.347 0 .173-1.827 3.469-5.025 2.602-.457-.174-.762.173-.914.694-.152.52.152.867.61 1.04.608 0 1.065.174 1.522.174z" fill="#000"/></g><path d="M106.543 83.707h.366l9.153-4.21c.549-.183.732-.732.366-1.282-.183-.549-.733-.732-1.282-.366l-9.152 4.21c-.55.184-.733.733-.367 1.282.367 0 .55.366.916.366z" fill="#000"/><path d="M114.78 85.721c.183 0 .549 0 .733-.183a.885.885 0 000-1.281l-4.028-4.028a.884.884 0 00-1.281 0 .885.885 0 000 1.282l4.027 4.027c0 .183.183.183.549.183z" fill="#000"/></svg>