<svg width="196" height="170" fill="none" xmlns="http://www.w3.org/2000/svg"><g clip-path="url(#clip0_2044_2004)"><path d="M49.328.687h97.374l48.687 84.328-48.687 84.328H49.328L.641 85.015 49.328.687z" fill="#202020"/><mask id="mask0_2044_2004" style="mask-type:alpha" maskUnits="userSpaceOnUse" x="0" y="0" width="196" height="170"><path d="M1.796 85.014L49.905 1.686h96.219l48.109 83.328-48.109 83.328H49.905L1.795 85.014z" fill="#C4C4C4" stroke="#66D9EF" stroke-width="2"/></mask><g clip-path="url(#clip1_2044_2004)" mask="url(#mask0_2044_2004)"><path d="M99.083 182.583l.024-.003.025-.001c12.972-.573 25.376-3.978 36.276-9.654l-11.122-59.061-22.497-10.486-25.975 3.602-1.341 73.569c6.612 1.482 13.232 2.223 20.224 2.223 1.56 0 3.072-.001 4.386-.189z" fill="#171814" stroke="#3A2622"/><path d="M115.696 102.764l15.401 72.439.696-.302c1.387-.601 2.809-1.217 4.125-1.948h0l.007-.004c1.466-.782 2.774-.974 3.973-1.149l.182-.027c1.247-.184 2.388-.383 3.649-1.194l.023-.014.024-.012a.835.835 0 01.442-.078c.122.009.242.038.347.07.203.061.427.157.617.239l.015.006c.209.091.383.164.525.207a.822.822 0 00.097.025c.854-.532 1.57-.674 2.21-.527.598.136 1.049.514 1.386.797l.05.042c.386.322.618.489.878.512.231.021.628-.07 1.315-.712l.144-.134h.185s0 0 0 0l.093-.015c.076-.013.177-.031.297-.054a126.29 126.29 0 001.655-.342l.263-.057.02-.004a.626.626 0 01.485.007c.115.049.214.127.282.183.114.095.247.227.366.346l.08.08c.13.129.243.234.338.308a1.25 1.25 0 01.236-.147.767.767 0 01.636-.027c.222.096.343.28.408.421.066.145.104.308.127.462.088.583.031 1.49-.021 2.315l-.003.055c-.053.834-.098 1.586-.047 2.059l.19-.19.317.146 6.299 2.907a.777.777 0 01.24-.004c.173.024.333.102.462.178.266.157.574.417.9.724.66.622 1.504 1.546 2.418 2.557l.28.31c1.788 1.977 3.813 4.217 5.439 5.445.424.321.803.558 1.128.703.333.149.56.179.703.155.11-.019.218-.076.322-.269.115-.216.212-.584.236-1.173.05-1.174-.189-3.037-.843-5.812-.651-2.762-1.704-6.392-3.261-11.089-9.736-22.465-17.54-35.484-23.572-43.458-5.093-6.732-8.924-9.873-11.634-12.095a80.223 80.223 0 01-1.378-1.145l-.006-.006-.006-.005c-5.479-4.999-10.618-7.975-14.379-9.699a38.33 38.33 0 00-4.479-1.746 26.375 26.375 0 00-.882-.26zm41.569 74.126l-.001-.003.001.003z" fill="#171814" stroke="#3A2622"/><path d="M119.11 42.99s-.387-16.663-24.995-18.794C69.508 21.871 61.645 44.675 63 47c1.356 2.325 2.827 3.353 2.827 3.353s-.581 16.663 9.494 19.57c10.076 2.906 21.314-3.488 21.314-3.488L119.11 42.99z" fill="#171814"/><path d="M89.466 83.874v20.345s3.681 5.813 15.5 6.782c8.913.775 12.013-1.357 12.013-1.357l-1.162-10.269-1.163-10.075-21.507-4.65-3.681-.776z" fill="#E69F66"/><path d="M92.952 84.65c0 .58.194 1.162.582 1.937 4.65 10.075 17.05 12.4 22.088 12.788L114.459 89.3l-21.507-4.65z" fill="#171814"/><path d="M119.11 42.99s10.657 25.577 6.588 39.721c-4.263 14.145-17.245 11.82-24.801 8.913-7.75-2.906-11.238-7.75-11.238-7.75s-7.363 2.325-12.013-4.457c-4.844-6.781-1.744-14.531 2.519-16.275 4.262-1.744 9.106 1.356 9.106 1.356l-3.681-7.363c-.388-.194 16.469-37.395 33.52-14.144z" fill="#E69F66"/><path d="M117.366 75.349c.388 0 .775-.194.969-.582 1.744-5.425-1.937-11.044-2.131-11.431-.388-.388-.969-.582-1.356-.194-.388.387-.582.969-.194 1.356 0 0 3.294 5.038 1.937 9.688-.193.581.194.969.582 1.163h.193zM87.72 76.51c.195 0 .388 0 .582-.193a.936.936 0 000-1.356l-6.781-7.363a.936.936 0 00-1.357 0 .937.937 0 000 1.356l6.782 7.363c.194 0 .387.194.775.194z" fill="#171814"/><path d="M80.358 74.38c.194 0 0 0 0 0l4.844-.581c.581 0 .969-.582.775-1.163 0-.581-.581-.969-1.163-.775l-4.844.581c-.58 0-.968.582-.775 1.163.388.387.775.775 1.163.775zm25.77-8.72c0-.193 0 0 0 0 .581 0 .969-.58.969-1.162l-.582-4.65c0-.581-.581-.969-.968-.775-.582 0-.969.581-.775.969l.581 4.65c-.194.581.387.969.775.969zm14.145-.968c.582 0 .969-.581.969-1.163l-.581-4.65c0-.581-.581-.969-1.163-.775-.581 0-.968.581-.775 1.163l.582 4.65c0 .387.387.775.968.775zm-18.407-8.332c.388 0 .582-.193.776-.58 1.162-2.132 4.069-1.357 4.262-1.357.582.194.969-.194 1.163-.775.194-.581-.194-.969-.775-1.163-.194 0-4.457-.968-6.394 2.325-.194.388 0 .97.387 1.357.388.194.581.194.581.194zm20.732-.968c.194 0 .387 0 .581-.194a.936.936 0 000-1.357c-1.162-1.356-3.875-3.1-6.394-1.162-.387.387-.581.969-.194 1.356.388.388.969.581 1.357.194 1.744-1.356 3.681.775 3.681.969.388 0 .581.194.969.194z" fill="#171814"/><path d="M95.085 108.093c.194-.581.775-.775 1.356-.581 10.463 3.875 20.345 1.162 20.539 1.162.193 0 .581 0 .775.194.193.194.387.387.387.581l13.951 65.878c-.388.194-.775.388-1.163.388-.194.193-.387.193-.775.387l-13.757-65.296c-2.906.581-11.431 1.937-20.732-1.551-.581 0-.775-.581-.581-1.162z" fill="#3A2622"/><path d="M84.816 66.242s8.138-1.55 10.657-7.17c3.875-8.525-1.357-12.206-1.357-12.206s5.813 1.356 10.657-1.163c6.007-3.1 6.975-7.944 6.975-7.944l7.363 5.038s8.389-8.267-4.65-12.788c-6.782-1.938-14.532 4.263-14.532 4.263L75.322 53.066l2.325 11.82s1.356-.582 7.169 1.356zm24.607 16.856h.775c2.325-.387 3.875-2.906 4.069-3.1.194-.194.194-.581.194-.775 0-.194-.194-.388-.581-.581l-8.913-4.457c-.194-.193-.581-.193-.775 0a2.656 2.656 0 00-.581.775c0 .194-.776 4.457 3.1 7.363.775.388 1.743.775 2.712.775zm2.519-3.294c-.581.582-1.162 1.163-2.131 1.357-.581.193-1.357 0-2.132-.582-1.743-1.356-2.325-2.906-2.325-4.069l6.588 3.294z" fill="#171814"/><path d="M109 29.608s-10.85 1.163-17.438 15.695c-5.425 11.819-7.17 19.957-7.17 19.957l-9.687 3.487-2.907-23.25 22.283-17.633c0 .194 9.106-2.906 14.919 1.744z" fill="#171814"/><path d="M44.267 173.577l.01.007.01.006c.308.216.706.247 1.264.088.565-.161 1.193-.487 1.884-.859l.137-.074c.63-.34 1.306-.705 1.955-.931.695-.242 1.461-.364 2.169-.042l.017.008.017.009c12.908 7.128 27.55 10.982 43.16 10.982 1.405 0 2.77 0 3.988-.138 1.239-16.929 1.847-35.38.624-51.105-.616-7.926-1.696-15.144-3.388-21.119-1.695-5.983-3.988-10.666-6.994-13.58-.738-.694-2.267-1.202-4.56-1.323-2.266-.12-5.18.144-8.573.887-6.783 1.485-15.427 4.872-24.533 10.851-18.168 11.928-38.174 34.166-48.908 72.161.375.457.982.68 1.848.729.972.056 2.138-.116 3.385-.306l.1-.015c1.19-.181 2.446-.373 3.554-.337 1.115.035 2.197.304 2.915 1.16l.01-.002c.112-.033.293-.132.546-.328.498-.385 1.1-1 1.738-1.655l.02-.021c.614-.629 1.262-1.295 1.822-1.728.279-.215.582-.41.881-.497.155-.044.336-.068.523-.028a.878.878 0 01.492.299c.644.754 1.35 1.195 2.103 1.416.76.223 1.6.231 2.517.072 1.854-.321 3.922-1.302 6.125-2.386l.414-.204c2.048-1.01 4.191-2.068 6.265-2.624 2.227-.596 4.458-.639 6.463.627z" fill="#171814" stroke="#3A2622"/><path d="M75 69.53c4.4-24.8 25.5-37 35.5-40-1.6-2.4-7.333-3.666-10-4-20.5 5.5-28.333 28.167-32 38.5 1.2 3.6 4.833 5.167 6.5 5.5z" stroke="#3A2622"/><path d="M100 25.53c-8.167-2.833-26.8-3.7-36 15.5-1 2-2.1 6.7 1.5 9.5 0 2.834.6 9.4 3 13m38.5-32.5c-2.5-1.5-8.2-4.4-11-4m5 6.5c-1.167-1.5-5.4-4.5-9-4.5m-14 30c-1.833-.5-6.1-1.8-6.5-3m5 7.5c-2-.666-6.1-2.3-6.5-3.5" stroke="#3A2622"/></g></g><defs><clipPath id="clip0_2044_2004"><path fill="#fff" d="M0 0h196v170H0z"/></clipPath><clipPath id="clip1_2044_2004"><path fill="#fff" transform="translate(1 1)" d="M0 0h194v168H0z"/></clipPath></defs></svg>