<svg width="168" height="193" fill="none" xmlns="http://www.w3.org/2000/svg"><g clip-path="url(#clip0_2044_1740)" fill-rule="evenodd" clip-rule="evenodd" fill="#FF6C1A"><path d="M88.585 93.246l-3.74-2.407a.47.47 0 00-.516 0l-3.74 2.407a.59.59 0 00-.258.499v4.816a.59.59 0 00.258.498l3.74 2.409a.47.47 0 00.516 0l3.74-2.409a.59.59 0 00.259-.498v-4.816a.59.59 0 00-.259-.499zm-3.998 6.01l2.257-1.454v-3.298l-2.257-1.453-2.257 1.453v3.298l2.257 1.453zm-1.622 91.246v-22.824h2v22.824h-2zm82.549-46.556l-19.806-11.342.994-1.736 19.806 11.342-.994 1.736zm1.177-93.441l-19.694 11.536-1.011-1.725L165.68 48.78l1.011 1.725zM82.965 24.932V2.108h2v22.824h-2zm-61.486 36.8L1.673 50.39l.994-1.736 19.805 11.342-.993 1.736zm1.357 71.593L3.142 144.861l-1.011-1.726 19.694-11.536 1.01 1.726z"/><path d="M162.509 46.742L87.505 3.438a7 7 0 00-7 0L5.5 46.742A7 7 0 002 52.804v86.608c0 2.5 1.334 4.811 3.5 6.062l75.004 43.304a7.002 7.002 0 007 0l75.005-43.304a7.001 7.001 0 003.5-6.062V52.804a7 7 0 00-3.5-6.062zM88.505 1.706a9 9 0 00-9 0L4.5 45.01A9 9 0 000 52.804v86.608a9 9 0 004.5 7.794l75.004 43.304a9.003 9.003 0 009 0l75.005-43.304a9 9 0 004.5-7.794V52.804a9 9 0 00-4.5-7.794L88.505 1.706z"/><path d="M123.806 71.396L85.504 49.283a3 3 0 00-3 0l-38.3 22.113a3 3 0 00-1.5 2.598v44.227c0 1.071.57 2.062 1.5 2.598l38.3 22.113a3 3 0 003 0l38.302-22.113a3.001 3.001 0 001.5-2.598V73.994a3 3 0 00-1.5-2.598zM86.504 47.551a5 5 0 00-5 0l-38.3 22.113a5 5 0 00-2.5 4.33v44.227a5 5 0 002.5 4.33l38.3 22.113a5 5 0 005 0l38.302-22.113a5 5 0 002.5-4.33V73.994a5 5 0 00-2.5-4.33L86.504 47.551z"/></g><defs><clipPath id="clip0_2044_1740"><path fill="#fff" transform="translate(0 .5)" d="M0 0h168v192H0z"/></clipPath></defs></svg>