<svg width="56" height="55" viewBox="0 0 56 55" fill="none" xmlns="http://www.w3.org/2000/svg">
<g clip-path="url(#clip0_18_650)">
<path d="M19.2638 27.5C19.2638 22.4376 23.3659 18.3326 28.4275 18.3326C33.4891 18.3326 37.5934 22.4376 37.5934 27.5C37.5934 32.5624 33.4891 36.6674 28.4275 36.6674C23.3659 36.6674 19.2638 32.5624 19.2638 27.5ZM14.3089 27.5C14.3089 35.299 20.6298 41.6209 28.4275 41.6209C36.2253 41.6209 42.5462 35.299 42.5462 27.5C42.5462 19.701 36.2253 13.3791 28.4275 13.3791C20.6298 13.3791 14.3089 19.701 14.3089 27.5ZM39.8056 12.8192C39.8054 13.4719 39.9986 14.11 40.3609 14.6528C40.7233 15.1956 41.2384 15.6188 41.8412 15.8688C42.444 16.1188 43.1074 16.1844 43.7475 16.0573C44.3876 15.9303 44.9756 15.6162 45.4372 15.1549C45.8988 14.6936 46.2133 14.1057 46.3409 13.4656C46.4685 12.8255 46.4034 12.162 46.1539 11.5589C45.9044 10.9558 45.4817 10.4402 44.9393 10.0774C44.3968 9.71456 43.759 9.52076 43.1064 9.5205H43.1051C42.2304 9.52091 41.3916 9.86854 40.7729 10.487C40.1543 11.1055 39.8064 11.9443 39.8056 12.8192ZM17.3193 49.8843C14.6386 49.7622 13.1816 49.3156 12.2133 48.9383C10.9296 48.4385 10.0137 47.8432 9.05066 46.8813C8.08766 45.9195 7.49156 45.0043 6.994 43.7204C6.61654 42.7524 6.17001 41.2947 6.04815 38.6135C5.91486 35.7148 5.88824 34.844 5.88824 27.5002C5.88824 20.1564 5.91706 19.2881 6.04815 16.3869C6.17023 13.7058 6.62006 12.2509 6.994 11.2801C7.49376 9.99614 8.08898 9.08006 9.05066 8.1169C10.0123 7.15374 10.9274 6.55754 12.2133 6.0599C13.1812 5.68238 14.6386 5.23578 17.3193 5.1139C20.2176 4.98058 21.0882 4.95396 28.4275 4.95396C35.7669 4.95396 36.6384 4.98278 39.539 5.1139C42.2197 5.236 43.6744 5.6859 44.6451 6.0599C45.9288 6.55754 46.8447 7.15506 47.8077 8.1169C48.7707 9.07874 49.3646 9.99614 49.8644 11.2801C50.2418 12.2481 50.6884 13.7058 50.8102 16.3869C50.9435 19.2881 50.9701 20.1564 50.9701 27.5002C50.9701 34.844 50.9435 35.7124 50.8102 38.6135C50.6881 41.2947 50.2394 42.7519 49.8644 43.7204C49.3646 45.0043 48.7694 45.9204 47.8077 46.8813C46.846 47.8423 45.9288 48.4385 44.6451 48.9383C43.6772 49.3159 42.2197 49.7625 39.539 49.8843C36.6408 50.0177 35.7702 50.0443 28.4275 50.0443C21.0849 50.0443 20.2167 50.0177 17.3193 49.8843ZM17.0917 0.16654C14.1646 0.29986 12.1645 0.76406 10.4177 1.44386C8.60876 2.14588 7.07737 3.0877 5.54708 4.61582C4.01678 6.14394 3.07754 7.678 2.37563 9.48728C1.69594 11.2354 1.23182 13.2348 1.09852 16.1623C0.963022 19.0945 0.932007 20.0319 0.932007 27.5C0.932007 34.9681 0.963022 35.9055 1.09852 38.8377C1.23182 41.7655 1.69594 43.7646 2.37563 45.5127C3.07754 47.3209 4.017 48.8567 5.54708 50.3842C7.07715 51.9116 8.60876 52.8521 10.4177 53.5561C12.1678 54.2359 14.1646 54.7001 17.0917 54.8335C20.0249 54.9668 20.9606 55 28.4275 55C35.8944 55 36.8317 54.969 39.7634 54.8335C42.6907 54.7001 44.6895 54.2359 46.4373 53.5561C48.2452 52.8521 49.7777 51.9123 51.308 50.3842C52.8383 48.8561 53.7755 47.3209 54.4794 45.5127C55.1591 43.7646 55.6254 41.7652 55.7565 38.8377C55.8898 35.9033 55.9209 34.9681 55.9209 27.5C55.9209 20.0319 55.8898 19.0945 55.7565 16.1623C55.6232 13.2345 55.1591 11.2343 54.4794 9.48728C53.7755 7.6791 52.8359 6.14636 51.308 4.61582C49.7801 3.08528 48.2452 2.14588 46.4395 1.44386C44.6895 0.76406 42.6904 0.29766 39.7656 0.16654C36.8339 0.03322 35.8966 0 28.4297 0C20.9628 0 20.0249 0.03102 17.0917 0.16654Z" fill="url(#paint0_radial_18_650)"/>
<path d="M19.2638 27.5C19.2638 22.4376 23.3659 18.3326 28.4275 18.3326C33.4891 18.3326 37.5934 22.4376 37.5934 27.5C37.5934 32.5624 33.4891 36.6674 28.4275 36.6674C23.3659 36.6674 19.2638 32.5624 19.2638 27.5ZM14.3089 27.5C14.3089 35.299 20.6298 41.6209 28.4275 41.6209C36.2253 41.6209 42.5462 35.299 42.5462 27.5C42.5462 19.701 36.2253 13.3791 28.4275 13.3791C20.6298 13.3791 14.3089 19.701 14.3089 27.5ZM39.8056 12.8192C39.8054 13.4719 39.9986 14.11 40.3609 14.6528C40.7233 15.1956 41.2384 15.6188 41.8412 15.8688C42.444 16.1188 43.1074 16.1844 43.7475 16.0573C44.3876 15.9303 44.9756 15.6162 45.4372 15.1549C45.8988 14.6936 46.2133 14.1057 46.3409 13.4656C46.4685 12.8255 46.4034 12.162 46.1539 11.5589C45.9044 10.9558 45.4817 10.4402 44.9393 10.0774C44.3968 9.71456 43.759 9.52076 43.1064 9.5205H43.1051C42.2304 9.52091 41.3916 9.86854 40.7729 10.487C40.1543 11.1055 39.8064 11.9443 39.8056 12.8192ZM17.3193 49.8843C14.6386 49.7622 13.1816 49.3156 12.2133 48.9383C10.9296 48.4385 10.0137 47.8432 9.05066 46.8813C8.08766 45.9195 7.49156 45.0043 6.994 43.7204C6.61654 42.7524 6.17001 41.2947 6.04815 38.6135C5.91486 35.7148 5.88824 34.844 5.88824 27.5002C5.88824 20.1564 5.91706 19.2881 6.04815 16.3869C6.17023 13.7058 6.62006 12.2509 6.994 11.2801C7.49376 9.99614 8.08898 9.08006 9.05066 8.1169C10.0123 7.15374 10.9274 6.55754 12.2133 6.0599C13.1812 5.68238 14.6386 5.23578 17.3193 5.1139C20.2176 4.98058 21.0882 4.95396 28.4275 4.95396C35.7669 4.95396 36.6384 4.98278 39.539 5.1139C42.2197 5.236 43.6744 5.6859 44.6451 6.0599C45.9288 6.55754 46.8447 7.15506 47.8077 8.1169C48.7707 9.07874 49.3646 9.99614 49.8644 11.2801C50.2418 12.2481 50.6884 13.7058 50.8102 16.3869C50.9435 19.2881 50.9701 20.1564 50.9701 27.5002C50.9701 34.844 50.9435 35.7124 50.8102 38.6135C50.6881 41.2947 50.2394 42.7519 49.8644 43.7204C49.3646 45.0043 48.7694 45.9204 47.8077 46.8813C46.846 47.8423 45.9288 48.4385 44.6451 48.9383C43.6772 49.3159 42.2197 49.7625 39.539 49.8843C36.6408 50.0177 35.7702 50.0443 28.4275 50.0443C21.0849 50.0443 20.2167 50.0177 17.3193 49.8843ZM17.0917 0.16654C14.1646 0.29986 12.1645 0.76406 10.4177 1.44386C8.60876 2.14588 7.07737 3.0877 5.54708 4.61582C4.01678 6.14394 3.07754 7.678 2.37563 9.48728C1.69594 11.2354 1.23182 13.2348 1.09852 16.1623C0.963022 19.0945 0.932007 20.0319 0.932007 27.5C0.932007 34.9681 0.963022 35.9055 1.09852 38.8377C1.23182 41.7655 1.69594 43.7646 2.37563 45.5127C3.07754 47.3209 4.017 48.8567 5.54708 50.3842C7.07715 51.9116 8.60876 52.8521 10.4177 53.5561C12.1678 54.2359 14.1646 54.7001 17.0917 54.8335C20.0249 54.9668 20.9606 55 28.4275 55C35.8944 55 36.8317 54.969 39.7634 54.8335C42.6907 54.7001 44.6895 54.2359 46.4373 53.5561C48.2452 52.8521 49.7777 51.9123 51.308 50.3842C52.8383 48.8561 53.7755 47.3209 54.4794 45.5127C55.1591 43.7646 55.6254 41.7652 55.7565 38.8377C55.8898 35.9033 55.9209 34.9681 55.9209 27.5C55.9209 20.0319 55.8898 19.0945 55.7565 16.1623C55.6232 13.2345 55.1591 11.2343 54.4794 9.48728C53.7755 7.6791 52.8359 6.14636 51.308 4.61582C49.7801 3.08528 48.2452 2.14588 46.4395 1.44386C44.6895 0.76406 42.6904 0.29766 39.7656 0.16654C36.8339 0.03322 35.8966 0 28.4297 0C20.9628 0 20.0249 0.03102 17.0917 0.16654Z" fill="url(#paint1_radial_18_650)"/>
</g>
<defs>
<radialGradient id="paint0_radial_18_650" cx="0" cy="0" r="1" gradientUnits="userSpaceOnUse" gradientTransform="translate(8.2379 55.2598) scale(71.7862 71.7979)">
<stop offset="0.09" stop-color="#FA8F21"/>
<stop offset="0.78" stop-color="#D82D7E"/>
</radialGradient>
<radialGradient id="paint1_radial_18_650" cx="0" cy="0" r="1" gradientUnits="userSpaceOnUse" gradientTransform="translate(34.2817 57.7238) scale(56.5774 56.5866)">
<stop offset="0.64" stop-color="#8C3AAA" stop-opacity="0"/>
<stop offset="1" stop-color="#8C3AAA"/>
</radialGradient>
<clipPath id="clip0_18_650">
<rect width="54.9888" height="55" fill="white" transform="translate(0.932007)"/>
</clipPath>
</defs>
</svg>
