<svg width="56" height="55" viewBox="0 0 56 55" fill="none" xmlns="http://www.w3.org/2000/svg">
<g clip-path="url(#clip0_18_640)">
<path d="M28.4778 55C43.6626 55 55.9722 42.6878 55.9722 27.5C55.9722 12.3122 43.6626 0 28.4778 0C13.2931 0 0.983398 12.3122 0.983398 27.5C0.983398 42.6878 13.2931 55 28.4778 55Z" fill="#34AADF"/>
<path d="M12.8816 27.3231C12.8816 27.3231 26.5893 21.6156 31.3434 19.6058C33.1659 18.802 39.3462 16.2295 39.3462 16.2295C39.3462 16.2295 42.1988 15.1041 41.961 17.8373C41.8817 18.9628 41.2479 22.9017 40.614 27.1623C39.6632 33.1914 38.6331 39.7832 38.6331 39.7832C38.6331 39.7832 38.4746 41.6322 37.1277 41.9537C35.7807 42.2752 33.562 40.8283 33.1659 40.5067C32.8489 40.2656 27.2232 36.6481 25.1631 34.8795C24.6084 34.3972 23.9745 33.4326 25.2422 32.3072C28.0948 29.6543 31.5019 26.3585 33.562 24.2684C34.5129 23.3037 35.4636 21.0528 31.5019 23.786C25.8762 27.725 20.3297 31.4229 20.3297 31.4229C20.3297 31.4229 19.0619 32.2267 16.6849 31.5032C14.3077 30.7798 11.5345 29.8151 11.5345 29.8151C11.5345 29.8151 9.63292 28.6093 12.8816 27.3231Z" fill="white"/>
</g>
<defs>
<clipPath id="clip0_18_640">
<rect width="54.9888" height="55" fill="white" transform="translate(0.983398)"/>
</clipPath>
</defs>
</svg>
