<svg width="56" height="55" viewBox="0 0 56 55" fill="none" xmlns="http://www.w3.org/2000/svg">
<g clip-path="url(#clip0_18_624)">
<path d="M28.3245 55C43.5093 55 55.8189 42.6878 55.8189 27.5C55.8189 12.3122 43.5093 0 28.3245 0C13.1398 0 0.830078 12.3122 0.830078 27.5C0.830078 42.6878 13.1398 55 28.3245 55Z" fill="#3C5A9A"/>
<path d="M37.7957 8H31.6837C28.0566 8 24.0222 9.51578 24.0222 14.7399C24.0399 16.5602 24.0222 18.3035 24.0222 20.2654H19.8262V26.9001H24.1521V46H32.1011V26.774H37.3478L37.8225 20.2468H31.9642C31.9642 20.2468 31.9773 17.3433 31.9642 16.5001C31.9642 14.4356 34.1261 14.5538 34.2561 14.5538C35.2849 14.5538 37.2852 14.5568 37.7987 14.5538V8H37.7957Z" fill="white"/>
</g>
<defs>
<clipPath id="clip0_18_624">
<rect width="54.9888" height="55" fill="white" transform="translate(0.830078)"/>
</clipPath>
</defs>
</svg>
