<svg width="73" height="72" viewBox="0 0 73 72" fill="none" xmlns="http://www.w3.org/2000/svg">
<g clip-path="url(#clip0_18_643)">
<path d="M38.1602 55.9476L26.2632 55.7306C22.4113 55.655 18.5497 55.8059 14.7733 55.0226C9.02844 53.8523 8.62145 48.1141 8.19559 43.3007C7.60879 36.5338 7.83595 29.6441 8.94332 22.9336C9.56847 19.1684 12.0287 16.9216 15.8333 16.6771C28.6767 15.7898 41.6054 15.895 54.4203 16.309C55.7738 16.3469 57.1365 16.5543 58.471 16.7904C65.0586 17.9419 65.2192 24.4446 65.6462 29.9187C66.0721 35.4493 65.8923 41.0082 65.0783 46.5011C64.4253 51.0491 63.1759 54.863 57.9031 55.2312C51.2966 55.7127 44.8418 56.1003 38.2168 55.9769C38.2171 55.9476 38.179 55.9476 38.1602 55.9476ZM31.1659 44.4334C36.1444 41.5829 41.0279 38.78 45.978 35.9487C40.9902 33.0982 36.1159 30.2953 31.1659 27.4639V44.4334Z" fill="#FF0000"/>
<g clip-path="url(#clip1_18_643)">
<path d="M46.5404 5C46.5404 4.81591 46.6896 4.66664 46.8737 4.66664C47.0577 4.66664 47.207 4.81591 47.207 5C47.207 5.18409 47.0577 5.33336 46.8737 5.33336C46.6896 5.33336 46.5404 5.18409 46.5404 5ZM46.3602 5C46.3602 5.2836 46.5901 5.51349 46.8737 5.51349C47.1573 5.51349 47.3871 5.2836 47.3871 5C47.3871 4.7164 47.1573 4.48651 46.8737 4.48651C46.5901 4.48651 46.3602 4.7164 46.3602 5ZM47.2875 4.46615C47.2875 4.48989 47.2945 4.51309 47.3077 4.53283C47.3208 4.55257 47.3396 4.56796 47.3615 4.57705C47.3834 4.58614 47.4076 4.58852 47.4308 4.5839C47.4541 4.57928 47.4755 4.56786 47.4923 4.55109C47.5091 4.53431 47.5205 4.51293 47.5252 4.48966C47.5298 4.46638 47.5274 4.44225 47.5184 4.42032C47.5093 4.39839 47.4939 4.37964 47.4742 4.36645C47.4545 4.35326 47.4313 4.34621 47.4075 4.3462H47.4075C47.3757 4.34621 47.3452 4.35886 47.3227 4.38135C47.3002 4.40384 47.2875 4.43434 47.2875 4.46615ZM46.4697 5.81398C46.3722 5.80954 46.3192 5.7933 46.284 5.77958C46.2373 5.7614 46.204 5.73975 46.1689 5.70478C46.1339 5.6698 46.1122 5.63652 46.0941 5.58983C46.0804 5.55463 46.0642 5.50162 46.0597 5.40413C46.0549 5.29872 46.0539 5.26706 46.0539 5.00001C46.0539 4.73296 46.055 4.70138 46.0597 4.59589C46.0642 4.49839 46.0805 4.44549 46.0941 4.41018C46.1123 4.3635 46.134 4.33018 46.1689 4.29516C46.2039 4.26014 46.2372 4.23846 46.284 4.22036C46.3192 4.20663 46.3722 4.19039 46.4697 4.18596C46.5751 4.18111 46.6067 4.18014 46.8737 4.18014C47.1406 4.18014 47.1723 4.18119 47.2778 4.18596C47.3753 4.1904 47.4282 4.20676 47.4635 4.22036C47.5102 4.23846 47.5435 4.26018 47.5785 4.29516C47.6135 4.33014 47.6351 4.3635 47.6533 4.41018C47.667 4.44538 47.6833 4.49839 47.6877 4.59589C47.6926 4.70138 47.6935 4.73296 47.6935 5.00001C47.6935 5.26706 47.6926 5.29863 47.6877 5.40413C47.6833 5.50162 47.6669 5.55462 47.6533 5.58983C47.6351 5.63652 47.6135 5.66983 47.5785 5.70478C47.5435 5.73972 47.5102 5.7614 47.4635 5.77958C47.4283 5.7933 47.3753 5.80954 47.2778 5.81398C47.1724 5.81882 47.1407 5.81979 46.8737 5.81979C46.6066 5.81979 46.575 5.81882 46.4697 5.81398ZM46.4614 4.00606C46.3549 4.0109 46.2822 4.02778 46.2186 4.0525C46.1529 4.07803 46.0972 4.11228 46.0415 4.16785C45.9858 4.22342 45.9517 4.2792 45.9262 4.34499C45.9014 4.40856 45.8846 4.48126 45.8797 4.58772C45.8748 4.69434 45.8737 4.72843 45.8737 5C45.8737 5.27157 45.8748 5.30566 45.8797 5.41228C45.8846 5.51874 45.9014 5.59144 45.9262 5.65501C45.9517 5.72076 45.9859 5.77661 46.0415 5.83215C46.0972 5.8877 46.1529 5.9219 46.2186 5.9475C46.2823 5.97222 46.3549 5.9891 46.4614 5.99394C46.5681 5.99879 46.6021 6 46.8737 6C47.1452 6 47.1793 5.99887 47.2859 5.99394C47.3924 5.9891 47.4651 5.97222 47.5287 5.9475C47.5944 5.9219 47.6502 5.88772 47.7058 5.83215C47.7615 5.77658 47.7956 5.72076 47.8212 5.65501C47.8459 5.59144 47.8628 5.51874 47.8676 5.41228C47.8724 5.30558 47.8736 5.27157 47.8736 5C47.8736 4.72843 47.8724 4.69434 47.8676 4.58772C47.8628 4.48126 47.8459 4.40852 47.8212 4.34499C47.7956 4.27924 47.7614 4.2235 47.7058 4.16785C47.6502 4.11219 47.5944 4.07803 47.5287 4.0525C47.4651 4.02778 47.3924 4.01082 47.286 4.00606C47.1794 4.00121 47.1453 4 46.8737 4C46.6022 4 46.5681 4.00113 46.4614 4.00606Z" fill="url(#paint0_radial_18_643)"/>
<path d="M46.5404 5C46.5404 4.81591 46.6896 4.66664 46.8737 4.66664C47.0577 4.66664 47.207 4.81591 47.207 5C47.207 5.18409 47.0577 5.33336 46.8737 5.33336C46.6896 5.33336 46.5404 5.18409 46.5404 5ZM46.3602 5C46.3602 5.2836 46.5901 5.51349 46.8737 5.51349C47.1573 5.51349 47.3871 5.2836 47.3871 5C47.3871 4.7164 47.1573 4.48651 46.8737 4.48651C46.5901 4.48651 46.3602 4.7164 46.3602 5ZM47.2875 4.46615C47.2875 4.48989 47.2945 4.51309 47.3077 4.53283C47.3208 4.55257 47.3396 4.56796 47.3615 4.57705C47.3834 4.58614 47.4076 4.58852 47.4308 4.5839C47.4541 4.57928 47.4755 4.56786 47.4923 4.55109C47.5091 4.53431 47.5205 4.51293 47.5252 4.48966C47.5298 4.46638 47.5274 4.44225 47.5184 4.42032C47.5093 4.39839 47.4939 4.37964 47.4742 4.36645C47.4545 4.35326 47.4313 4.34621 47.4075 4.3462H47.4075C47.3757 4.34621 47.3452 4.35886 47.3227 4.38135C47.3002 4.40384 47.2875 4.43434 47.2875 4.46615ZM46.4697 5.81398C46.3722 5.80954 46.3192 5.7933 46.284 5.77958C46.2373 5.7614 46.204 5.73975 46.1689 5.70478C46.1339 5.6698 46.1122 5.63652 46.0941 5.58983C46.0804 5.55463 46.0642 5.50162 46.0597 5.40413C46.0549 5.29872 46.0539 5.26706 46.0539 5.00001C46.0539 4.73296 46.055 4.70138 46.0597 4.59589C46.0642 4.49839 46.0805 4.44549 46.0941 4.41018C46.1123 4.3635 46.134 4.33018 46.1689 4.29516C46.2039 4.26014 46.2372 4.23846 46.284 4.22036C46.3192 4.20663 46.3722 4.19039 46.4697 4.18596C46.5751 4.18111 46.6067 4.18014 46.8737 4.18014C47.1406 4.18014 47.1723 4.18119 47.2778 4.18596C47.3753 4.1904 47.4282 4.20676 47.4635 4.22036C47.5102 4.23846 47.5435 4.26018 47.5785 4.29516C47.6135 4.33014 47.6351 4.3635 47.6533 4.41018C47.667 4.44538 47.6833 4.49839 47.6877 4.59589C47.6926 4.70138 47.6935 4.73296 47.6935 5.00001C47.6935 5.26706 47.6926 5.29863 47.6877 5.40413C47.6833 5.50162 47.6669 5.55462 47.6533 5.58983C47.6351 5.63652 47.6135 5.66983 47.5785 5.70478C47.5435 5.73972 47.5102 5.7614 47.4635 5.77958C47.4283 5.7933 47.3753 5.80954 47.2778 5.81398C47.1724 5.81882 47.1407 5.81979 46.8737 5.81979C46.6066 5.81979 46.575 5.81882 46.4697 5.81398ZM46.4614 4.00606C46.3549 4.0109 46.2822 4.02778 46.2186 4.0525C46.1529 4.07803 46.0972 4.11228 46.0415 4.16785C45.9858 4.22342 45.9517 4.2792 45.9262 4.34499C45.9014 4.40856 45.8846 4.48126 45.8797 4.58772C45.8748 4.69434 45.8737 4.72843 45.8737 5C45.8737 5.27157 45.8748 5.30566 45.8797 5.41228C45.8846 5.51874 45.9014 5.59144 45.9262 5.65501C45.9517 5.72076 45.9859 5.77661 46.0415 5.83215C46.0972 5.8877 46.1529 5.9219 46.2186 5.9475C46.2823 5.97222 46.3549 5.9891 46.4614 5.99394C46.5681 5.99879 46.6021 6 46.8737 6C47.1452 6 47.1793 5.99887 47.2859 5.99394C47.3924 5.9891 47.4651 5.97222 47.5287 5.9475C47.5944 5.9219 47.6502 5.88772 47.7058 5.83215C47.7615 5.77658 47.7956 5.72076 47.8212 5.65501C47.8459 5.59144 47.8628 5.51874 47.8676 5.41228C47.8724 5.30558 47.8736 5.27157 47.8736 5C47.8736 4.72843 47.8724 4.69434 47.8676 4.58772C47.8628 4.48126 47.8459 4.40852 47.8212 4.34499C47.7956 4.27924 47.7614 4.2235 47.7058 4.16785C47.6502 4.11219 47.5944 4.07803 47.5287 4.0525C47.4651 4.02778 47.3924 4.01082 47.286 4.00606C47.1794 4.00121 47.1453 4 46.8737 4C46.6022 4 46.5681 4.00113 46.4614 4.00606Z" fill="url(#paint1_radial_18_643)"/>
</g>
</g>
<defs>
<radialGradient id="paint0_radial_18_643" cx="0" cy="0" r="1" gradientUnits="userSpaceOnUse" gradientTransform="translate(46.1394 6.00945) scale(2.61083)">
<stop offset="0.09" stop-color="#FA8F21"/>
<stop offset="0.78" stop-color="#D82D7E"/>
</radialGradient>
<radialGradient id="paint1_radial_18_643" cx="0" cy="0" r="1" gradientUnits="userSpaceOnUse" gradientTransform="translate(47.0866 6.09905) scale(2.0577)">
<stop offset="0.64" stop-color="#8C3AAA" stop-opacity="0"/>
<stop offset="1" stop-color="#8C3AAA"/>
</radialGradient>
<clipPath id="clip0_18_643">
<rect width="71.9854" height="72" fill="white" transform="translate(0.882812)"/>
</clipPath>
<clipPath id="clip1_18_643">
<rect width="2" height="2" fill="white" transform="translate(45.8737 4)"/>
</clipPath>
</defs>
</svg>
