<svg width="296" height="404" viewBox="0 0 296 404" fill="none" xmlns="http://www.w3.org/2000/svg">
<g clip-path="url(#clip0_17_567)">
<path d="M161.032 77.1104C201.665 63.8246 206.535 62.4295 222.748 57.9174C237.813 53.7149 246.648 53.5877 252.675 53.9188C260.637 54.34 266.834 55.9963 273.85 59.5546C280.944 63.1529 285.862 67.1341 290.906 73.3098C294.734 77.9764 299.87 85.2397 305.36 99.818C311.318 115.624 313.069 120.378 326.336 160.952C339.621 201.585 341.016 206.455 345.529 222.668C349.731 237.733 349.858 246.568 349.527 252.595C349.106 260.557 347.45 266.754 343.891 273.77C340.293 280.864 336.312 285.782 330.136 290.827C325.47 294.654 318.206 299.79 303.628 305.28C287.822 311.238 283.068 312.989 242.494 326.256C201.861 339.541 196.991 340.936 180.778 345.449C165.713 349.651 156.878 349.778 150.851 349.447C142.889 349.026 136.692 347.37 129.676 343.811C122.582 340.213 117.663 336.232 112.619 330.056C108.792 325.39 103.655 318.126 98.1655 303.548C92.2083 287.742 90.4567 282.988 77.1903 242.414C63.9046 201.781 62.5094 196.911 57.9973 180.698C53.7949 165.633 53.6677 156.798 53.9988 150.771C54.42 142.809 56.0762 136.612 59.6346 129.596C63.2329 122.502 67.214 117.583 73.3898 112.539C78.0564 108.712 85.3197 103.575 99.8979 98.0855C115.645 92.1477 120.398 90.3962 161.032 77.1104ZM152.077 49.7246C110.791 63.2241 105.681 65.0921 89.6961 71.1077C73.771 77.1038 63.5169 83.3498 55.1169 90.239C46.3594 97.4423 39.5543 105.388 33.8964 116.641C28.1596 127.854 25.769 138.039 25.1114 149.301C24.5349 160.208 25.5339 172.112 30.1043 188.503C34.7135 205.013 36.2252 210.24 49.7246 251.526C63.2241 292.813 65.0921 297.923 71.1077 313.907C77.1038 329.833 83.3498 340.087 90.239 348.487C97.4423 357.244 105.388 364.049 116.641 369.707C127.835 375.385 138.039 377.835 149.282 378.433C160.189 379.009 172.092 378.01 188.484 373.44C204.934 368.85 210.161 367.338 251.448 353.839C292.734 340.34 297.844 338.471 313.829 332.456C329.754 326.46 340.008 320.214 348.408 313.325C357.125 306.2 363.911 298.195 369.588 287.001C375.266 275.807 377.716 265.603 378.314 254.361C378.89 243.454 377.891 231.55 373.321 215.159C368.731 198.708 367.22 193.481 353.72 152.195C340.221 110.908 338.353 105.798 332.337 89.8138C326.341 73.8887 320.095 63.6345 313.206 55.2346C306.161 46.3594 298.215 39.5543 286.962 33.8964C275.769 28.219 265.564 25.769 254.322 25.1708C243.415 24.5943 231.511 25.5933 215.12 30.1637C198.59 34.7135 193.364 36.2251 152.077 49.7246Z" fill="white" fill-opacity="0.2"/>
<path d="M176.26 123.684C133.131 137.786 109.582 184.216 123.684 227.344C137.786 270.472 184.216 294.021 227.344 279.919C270.472 265.818 294.021 219.388 279.92 176.26C265.818 133.131 219.388 109.582 176.26 123.684ZM218.37 252.474C190.39 261.623 160.278 246.35 151.129 218.37C141.981 190.39 157.254 160.278 185.233 151.129C213.213 141.981 243.326 157.253 252.474 185.233C261.623 213.213 246.35 243.326 218.37 252.474Z" fill="white" fill-opacity="0.2"/>
<path d="M274.694 88.0793C277.996 98.1782 272.459 108.997 262.419 112.28C252.321 115.582 241.502 110.045 238.219 100.005C234.917 89.9066 240.454 79.0876 250.493 75.805C260.533 72.5224 271.411 78.0399 274.694 88.0793Z" fill="white" fill-opacity="0.2"/>
</g>
<defs>
<clipPath id="clip0_17_567">
<rect width="320" height="320" fill="white" transform="translate(0 99.4492) rotate(-18.1062)"/>
</clipPath>
</defs>
</svg>
