<svg width="39" height="39" viewBox="0 0 39 39" fill="none" xmlns="http://www.w3.org/2000/svg">
<g clip-path="url(#clip0_15_492)">
<path d="M19.5 39C30.2695 39 39 30.2695 39 19.5C39 8.73046 30.2695 0 19.5 0C8.73046 0 0 8.73046 0 19.5C0 30.2695 8.73046 39 19.5 39Z" fill="#34AADF"/>
<path d="M8.1157 19.3309C8.1157 19.3309 17.8657 15.3295 21.2472 13.9206C22.5434 13.357 26.9394 11.5535 26.9394 11.5535C26.9394 11.5535 28.9683 10.7645 28.7992 12.6807C28.7428 13.4697 28.292 16.2312 27.8411 19.2182C27.1648 23.4451 26.4321 28.0665 26.4321 28.0665C26.4321 28.0665 26.3194 29.3628 25.3613 29.5882C24.4033 29.8136 22.8252 28.7992 22.5434 28.5737C22.3179 28.4047 18.3165 25.8685 16.8512 24.6286C16.4567 24.2905 16.0059 23.6142 16.9076 22.8252C18.9365 20.9654 21.3599 18.6547 22.8252 17.1894C23.5015 16.513 24.1778 14.935 21.3599 16.8512C17.3585 19.6128 13.4134 22.2052 13.4134 22.2052C13.4134 22.2052 12.5116 22.7688 10.8209 22.2616C9.1301 21.7544 7.15755 21.0781 7.15755 21.0781C7.15755 21.0781 5.80503 20.2327 8.1157 19.3309Z" fill="white"/>
</g>
<defs>
<clipPath id="clip0_15_492">
<rect width="39" height="39" fill="white"/>
</clipPath>
</defs>
</svg>
