<svg width="83" height="40" viewBox="0 0 83 40" fill="none" xmlns="http://www.w3.org/2000/svg">
<g clip-path="url(#clip0_15_495)">
<path d="M42.5498 33.0959C36.7794 33.1605 30.4895 33.0314 24.1997 32.6444C23.5513 32.5798 23.1622 32.9024 22.7731 33.2895C21.152 35.0965 19.5309 36.9028 17.845 38.7086C17.5856 38.9666 17.3263 39.4827 16.8723 39.2892C16.4184 39.095 16.613 38.5789 16.613 38.1925C16.613 36.7087 16.5481 35.1604 16.613 33.6766C16.6778 32.5153 16.4184 31.9347 15.0567 31.9347C13.4356 31.8702 11.7497 31.6767 10.1286 31.3541C4.55203 30.0638 0.791094 27.0324 0.272344 20.7095C0.0129693 17.9354 -0.181562 15.2259 0.272344 12.4518C1.18016 6.77472 4.48719 3.54908 10.1934 2.58139C18.4934 1.22662 26.8583 0.775032 35.2231 0.646007C43.977 0.516981 52.7309 0.775032 61.4848 1.22662C65.6997 1.42016 69.9145 2.00078 74.0645 2.83944C79.0569 3.87165 82.4281 7.6779 82.8833 12.8389C83.1427 15.8065 83.2075 18.7741 82.753 21.7417C82.1707 25.677 79.9653 28.4504 76.3347 30.0632C73.1574 31.4186 69.7842 31.8702 66.413 32.1276C58.5669 32.7089 50.8505 33.1605 42.5498 33.0959Z" fill="#7C529E"/>
<path d="M21.139 24.6449C22.3062 24.6449 23.6679 23.5481 24.057 22.4514C24.4461 21.4192 23.6679 20.9676 23.0195 20.4515C22.5656 20.0645 22.0469 19.7419 21.5929 19.4193C20.6203 18.7097 19.7125 18.7097 18.9992 19.8064C18.6101 20.4515 18.0265 20.4515 17.4429 20.1935C15.8219 19.4193 14.525 18.3226 13.7469 16.6453C13.4226 15.9356 13.4226 15.226 14.2008 14.7099C14.5898 14.4518 15.0437 14.1293 14.9789 13.4841C14.914 12.71 13.0336 10.065 12.2554 9.80691C11.9312 9.67789 11.607 9.67789 11.2828 9.80691C9.53201 10.3875 8.75388 11.8713 9.46716 13.5487C11.5422 18.7097 15.3031 22.2579 20.3609 24.4513C20.6851 24.5803 21.0093 24.5803 21.139 24.6449ZM17.3781 9.48435C17.1187 9.54886 16.5351 9.29081 16.5351 9.87143C16.5351 10.2585 16.989 10.194 17.3133 10.2585C21.0094 10.8391 22.7601 12.581 23.214 16.3227C23.2789 16.6453 23.1492 17.1614 23.6031 17.2259C24.1219 17.2259 23.9922 16.7098 23.9922 16.3872C24.057 12.839 20.9445 9.61338 17.3781 9.48435ZM44.2883 17.0969V11.6133C44.2883 10.5166 44.678 9.61338 45.9094 9.61338C47.0765 9.61338 47.4008 10.452 47.4008 11.5488V12.2584C47.4008 13.9357 47.4008 13.9357 48.957 13.4841C51.0969 12.839 53.1719 13.6777 54.2094 15.6131C55.4414 17.9355 55.5717 20.258 54.2094 22.5804C52.8476 24.9029 50.2539 25.6126 47.9202 24.1933C47.5304 23.9352 47.4008 23.8062 47.0765 24.2578C46.6226 24.9029 45.9094 24.9674 45.1961 24.6449C44.4821 24.3223 44.2883 23.6772 44.2883 22.903V17.0969ZM52.0047 19.0968C52.0047 17.3549 51.032 16.0647 49.7351 16.0001C48.3734 15.9356 47.3359 17.1614 47.3359 18.9032C47.3359 20.5812 48.3086 21.9353 49.6054 21.9998C50.9672 22.1289 52.0047 20.8386 52.0047 19.0968ZM32.6164 19.1613C33.6539 16.4517 34.4969 14.1938 35.3398 11.8713C35.4695 11.4842 35.5992 11.0972 35.7937 10.7101C36.1828 9.80691 36.8312 9.29081 37.8687 9.67789C38.9711 10.065 39.1008 10.9036 38.7765 11.9358C37.739 14.6454 36.6367 17.3549 35.5992 20.129C35.1453 21.2902 34.6914 22.4514 34.2375 23.5481C33.9781 24.1933 33.5242 24.7094 32.7461 24.7739C31.8383 24.7739 31.3844 24.2571 31.125 23.4836C29.6336 19.6774 28.0773 15.8066 26.5859 12.0003C26.1968 10.9681 26.3914 10.065 27.5586 9.67789C28.7258 9.29081 29.2445 10.0005 29.6336 10.9681C30.5414 13.5487 31.514 16.1292 32.6164 19.1613ZM62.3148 20.0645H59.5265C58.8133 20.0645 58.7484 20.387 59.0726 20.9031C59.6562 21.9998 61.3422 22.4514 62.7687 21.9353C63.2875 21.7418 63.7414 21.4837 64.2601 21.2257C64.9741 20.838 65.6225 20.9031 66.0764 21.6128C66.5952 22.3869 66.2709 23.032 65.6225 23.4836C63.5468 24.9029 61.2773 25.3545 58.9429 24.3868C56.6734 23.4191 55.7008 21.4837 55.7008 19.0968C55.6359 16.0001 57.7758 13.5487 60.564 13.2261C63.4165 12.968 65.9461 14.9034 66.4648 17.8065C66.789 19.4193 66.3351 19.9999 64.6492 20.0645H62.3148ZM60.9531 18C61.2125 18 61.5367 18.0646 61.7961 18C62.3148 17.9355 63.0929 18.3226 63.2226 17.742C63.4172 16.9678 62.7687 16.3872 62.1203 16.0647C61.2131 15.6131 60.3695 15.6776 59.592 16.3872C59.2023 16.7743 58.7484 17.2259 58.9436 17.8065C59.1381 18.3226 59.7211 18 60.175 18.0646C60.4344 18.0646 60.6937 18 60.9531 18Z" fill="white"/>
<path d="M21.139 24.6449C20.9445 24.5797 20.6851 24.5797 20.3609 24.4513C15.2383 22.2579 11.5422 18.7097 9.46717 13.5487C8.75389 11.8068 9.46717 10.3875 11.2828 9.80691C11.607 9.67789 11.9312 9.67789 12.2555 9.80691C13.0336 10.065 14.914 12.71 14.9789 13.4841C15.0437 14.0648 14.5898 14.3873 14.2008 14.7099C13.4226 15.226 13.4226 15.8711 13.7469 16.6453C14.525 18.3226 15.757 19.4838 17.443 20.1935C18.0265 20.4515 18.6101 20.4515 18.9992 19.8064C19.7125 18.7097 20.6203 18.7742 21.593 19.4193C22.1117 19.7419 22.5656 20.0645 23.0195 20.4515C23.668 20.9676 24.4461 21.3541 24.057 22.4514C23.668 23.5488 22.3062 24.6449 21.139 24.6449ZM67.5023 18.9032V15.0325C67.5023 14.3228 67.7617 13.8067 68.4101 13.4841C69.1234 13.1616 69.8367 13.2261 70.2906 13.8067C70.6797 14.3873 70.8736 14.1293 71.1978 13.8067C71.6517 13.4196 72.2359 13.2261 72.8844 13.2906C73.5976 13.4196 74.0516 13.8067 74.1812 14.5163C74.3103 15.226 74.0516 15.8066 73.4673 15.9356C70.8087 16.5808 70.4197 18.3871 70.679 20.7089C70.7439 21.5482 70.7439 22.3869 70.6142 23.1611C70.4845 24.1288 69.9003 24.7087 68.9276 24.6449C68.0204 24.5797 67.5659 23.9346 67.501 23.032C67.5023 21.7418 67.5023 20.3225 67.5023 18.9032ZM39.8789 19.4193V15.7421C39.8789 14.7099 40.3328 14.0648 41.4351 14.0648C42.4726 14.0648 42.9265 14.7099 42.9265 15.6776V23.0966C42.9265 24.1294 42.4078 24.7745 41.3703 24.7745C40.3328 24.7094 39.8789 24.0642 39.8789 23.0327V19.4193ZM17.3781 9.48435C20.9445 9.61338 24.057 12.839 23.9922 16.3872C23.9922 16.7098 24.1219 17.2259 23.6031 17.2259C23.0844 17.2259 23.214 16.7098 23.214 16.3227C22.7601 12.581 21.0094 10.8391 17.3133 10.2585C16.989 10.194 16.5351 10.2585 16.5351 9.87143C16.6 9.29081 17.1187 9.54886 17.3781 9.48435ZM43.1859 11.3552C43.0569 12.3229 42.603 12.968 41.5648 13.0326C40.5922 13.0971 39.8141 12.3229 39.8141 11.3552C39.8141 10.3875 40.657 9.54886 41.5648 9.61338C42.4726 9.7424 43.0562 10.323 43.1859 11.3552Z" fill="white"/>
<path d="M22.1765 15.7424C22.1117 16.0004 22.3062 16.452 21.8523 16.5165C21.2687 16.581 21.3984 16.0649 21.3336 15.7424C20.9445 13.4844 20.1664 12.6458 17.832 12.1297C17.5078 12.0651 16.989 12.1297 17.0539 11.6136C17.1187 11.0975 17.6375 11.291 17.9617 11.3555C20.2961 11.6136 22.1765 13.5489 22.1765 15.7424Z" fill="white"/>
<path d="M20.4258 15.3552C20.4258 15.6132 20.4258 15.9358 20.0367 16.0003C19.7774 16.0003 19.6477 15.8068 19.5828 15.5487C19.518 14.581 18.9992 14.0649 18.0266 13.9359C17.7672 13.8714 17.443 13.8069 17.5727 13.4198C17.6375 13.1618 17.8969 13.1618 18.1563 13.1618C19.2586 13.0972 20.4258 14.2585 20.4258 15.3552Z" fill="white"/>
</g>
<defs>
<clipPath id="clip0_15_495">
<rect width="83" height="40" fill="white"/>
</clipPath>
</defs>
</svg>
