<svg width="40" height="40" viewBox="0 0 40 40" fill="none" xmlns="http://www.w3.org/2000/svg">
<path d="M19.9586 36.3292C15.5843 36.3292 11.472 34.6258 8.37975 31.5336C5.28748 28.4413 3.58411 24.329 3.58411 19.9547C3.58411 15.5803 5.28748 11.4681 8.37975 8.37579C11.472 5.2815 15.5843 3.57812 19.9586 3.57812C24.333 3.57812 28.4453 5.2815 31.5375 8.37377C34.6298 11.466 36.3332 15.5783 36.3332 19.9527C36.3332 24.327 34.6298 28.4393 31.5375 31.5316C28.4453 34.6238 24.333 36.3292 19.9586 36.3292ZM19.9586 5.14644C11.7946 5.14644 5.1504 11.7886 5.1504 19.9547C5.1504 28.1208 11.7925 34.7629 19.9586 34.7629C28.1248 34.7629 34.7669 28.1208 34.7669 19.9547C34.7669 11.7886 28.1227 5.14644 19.9586 5.14644Z" fill="#1F8BC3"/>
<path d="M23.063 28.4393C23.063 30.1508 21.67 31.5437 19.9586 31.5437C18.2472 31.5437 16.8542 30.1508 16.8542 28.4393V24.6838H15.2295V28.4393C15.2295 31.0458 17.3501 33.1684 19.9586 33.1684C22.5671 33.1684 24.6877 31.0478 24.6877 28.4393V24.6838H23.063V28.4393Z" fill="#1F8BC3"/>
<path d="M28.4432 15.2256H24.6877V16.8503H28.4432C30.1547 16.8503 31.5476 18.2433 31.5476 19.9547C31.5476 21.6661 30.1547 23.0591 28.4432 23.0591H24.6877V24.6838H28.4432C31.0497 24.6838 33.1723 22.5632 33.1723 19.9547C33.1723 17.3462 31.0517 15.2256 28.4432 15.2256Z" fill="#1F8BC3"/>
<path d="M19.9586 6.74097C17.3521 6.74097 15.2295 8.86161 15.2295 11.4701V15.2256H11.474C8.86754 15.2256 6.74487 17.3462 6.74487 19.9547C6.74487 22.5612 8.86552 24.6838 11.474 24.6838H15.2295H16.8542H23.061H24.6857V23.0591V16.8503V15.2256V11.4681C24.6877 8.86161 22.5651 6.74097 19.9586 6.74097ZM11.474 23.0571C9.76256 23.0571 8.36963 21.6641 8.36963 19.9527C8.36963 18.2412 9.76256 16.8483 11.474 16.8483H15.2295V23.055H11.474V23.0571ZM23.063 23.0571H16.8542V16.8503H23.061V23.0571H23.063ZM16.8542 15.2256V11.4681C16.8542 9.75664 18.2472 8.36371 19.9586 8.36371C21.67 8.36371 23.063 9.75664 23.063 11.4681V15.2236H16.8542V15.2256Z" fill="#EC325B"/>
</svg>
