<svg width="231" height="231" viewBox="0 0 231 231" fill="none" xmlns="http://www.w3.org/2000/svg">
<g clip-path="url(#clip0_15_394)">
<path d="M115.33 230.659C179.024 230.659 230.659 179.024 230.659 115.33C230.659 51.6349 179.024 0 115.33 0C51.6349 0 0 51.6349 0 115.33C0 179.024 51.6349 230.659 115.33 230.659Z" fill="white"/>
<path d="M115.33 224.596C175.676 224.596 224.596 175.676 224.596 115.33C224.596 54.9834 175.676 6.06323 115.33 6.06323C54.9836 6.06323 6.06335 54.9834 6.06335 115.33C6.06335 175.676 54.9836 224.596 115.33 224.596Z" fill="#0843BE"/>
<path d="M115.33 219.737C172.992 219.737 219.737 172.992 219.737 115.33C219.737 57.6672 172.992 10.9226 115.33 10.9226C57.6673 10.9226 10.9227 57.6672 10.9227 115.33C10.9227 172.992 57.6673 219.737 115.33 219.737Z" fill="white"/>
<path d="M115.33 185.821C154.261 185.821 185.821 154.261 185.821 115.33C185.821 76.3984 154.261 44.8384 115.33 44.8384C76.3985 44.8384 44.8385 76.3984 44.8385 115.33C44.8385 154.261 76.3985 185.821 115.33 185.821Z" fill="#0843BE"/>
<path fill-rule="evenodd" clip-rule="evenodd" d="M96.0103 39.1448C94.9833 39.668 93.9847 40.2736 93.0184 40.96C91.2288 42.2319 89.6625 43.7025 88.326 45.3195C83.3158 50.0397 78.5311 55.8297 69.3479 55.8297C66.8848 55.8297 63.7554 56.0824 60.8003 54.2722C58.8705 53.09 57.1099 51.0176 55.5101 47.7024C54.202 44.9916 51.194 43.5449 48.2601 44.2162C45.3261 44.887 43.246 47.497 43.246 50.5067C43.246 80.1821 67.2382 91.2757 85.0464 91.2757C96.6899 91.2757 104.403 89.7956 110.827 87.0308L113.394 90.6394C114 91.4905 114.087 92.6066 113.622 93.5417L113.621 93.5428C112.47 95.8556 111.926 98.3671 111.976 100.859C106.125 96.7562 98.2206 94.5353 89.338 94.5353C73.5309 94.5353 56.9924 106.763 56.9924 128C56.9924 139.138 62.11 147.532 70.4038 155.471C80.6886 165.315 96.3966 174.532 110.519 190.326C111.744 191.695 113.493 192.478 115.33 192.478C117.166 192.478 118.915 191.695 120.14 190.326C131.044 178.131 142.906 169.885 152.447 162.22C154.287 164.121 156.698 165.4 159.338 165.845C162.603 166.395 165.953 165.626 168.65 163.706C173.113 160.531 179.661 155.872 184.123 152.696C186.821 150.777 188.645 147.865 189.196 144.6C189.746 141.335 188.976 137.986 187.057 135.288L184.453 131.628C184.713 130.926 184.909 130.197 185.034 129.449C185.564 126.309 184.824 123.087 182.978 120.493C178.487 114.182 170.39 102.803 165.9 96.4918C163.507 93.1292 159.699 91.3714 155.863 91.4499L150.701 84.1954C147.333 79.4618 141.631 76.9692 135.87 77.7118H135.869C134.832 77.8454 133.807 77.3967 133.201 76.5457L129.375 71.1686C132.93 63.4683 132.379 54.1297 127.118 46.7277C121.339 38.5954 111.483 35.0614 102.292 36.9311C100.231 37.1604 98.1199 37.8473 96.0103 39.1448Z" fill="white"/>
<mask id="mask0_15_394" style="mask-type:alpha" maskUnits="userSpaceOnUse" x="63" y="101" width="105" height="86">
<path fill-rule="evenodd" clip-rule="evenodd" d="M115.5 186.186C139.195 159.624 167.244 151.407 167.244 128.181C167.244 111.113 154.095 101.178 141.422 101.178C128.748 101.178 118.173 106.195 115.5 116.063C112.827 106.195 102.252 101.178 89.5784 101.178C76.9051 101.178 63.756 111.113 63.756 128.181C63.756 151.407 91.8056 159.624 115.5 186.186Z" fill="#042E77"/>
</mask>
<g mask="url(#mask0_15_394)">
<path d="M173.25 96.4216H57.4449V136.381H173.25V96.4216Z" fill="#0843BE"/>
<path d="M173.25 136.381H57.4449V188.387H173.25V136.381Z" fill="#FED108"/>
</g>
<path fill-rule="evenodd" clip-rule="evenodd" d="M115.33 186.025C128.591 171.193 143.214 162.08 153.546 152.881C147.968 145.042 138.79 132.144 133.349 124.496C134.949 122.753 137.272 120.223 139.791 117.479C144.443 112.411 145.586 106.42 139.589 99.0139L115.33 115.878L115.343 136.372C115.343 136.372 101.284 147.303 83.8669 158.503C93.3084 166.003 104.752 174.195 115.33 186.025Z" fill="#FED108"/>
<path fill-rule="evenodd" clip-rule="evenodd" d="M138.256 158.249L140.788 163.469L143.422 160.889L138.256 158.249Z" fill="#042E77"/>
<path fill-rule="evenodd" clip-rule="evenodd" d="M114.065 137.701L121.485 142.276L116.62 135.042L114.065 137.701Z" fill="#042E77"/>
<path fill-rule="evenodd" clip-rule="evenodd" d="M104.409 175.501C107.222 172.73 109.69 170.014 111.676 167.519C115.667 162.506 117.786 158.715 117.786 158.715C117.786 158.715 114.888 161.859 110.142 166.065C107.826 168.118 105.12 170.432 102.022 172.69L104.409 175.501Z" fill="#042E77"/>
<path fill-rule="evenodd" clip-rule="evenodd" d="M113.955 187.254C114.305 187.645 114.805 187.869 115.33 187.869C115.855 187.869 116.354 187.645 116.704 187.254C130.921 171.354 146.715 162.052 157.068 152.141C164.381 145.141 169.058 137.82 169.058 128C169.058 109.737 154.915 99.144 141.322 99.144C129.666 99.144 119.767 103.262 115.33 111.066C110.893 103.262 100.994 99.144 89.338 99.144C75.7441 99.144 61.6013 109.737 61.6013 128C61.6013 137.82 66.2781 145.141 73.5911 152.141C83.9443 162.052 99.738 171.354 113.955 187.254ZM115.33 183.284C103.762 170.762 91.3302 162.353 81.6532 154.341C72.131 146.457 65.2884 139.061 65.2884 128C65.2884 112.116 77.5147 102.831 89.338 102.831C101.105 102.831 111.069 107.221 113.551 116.361C113.768 117.164 114.498 117.721 115.33 117.721C116.162 117.721 116.891 117.164 117.109 116.361C119.591 107.221 129.555 102.831 141.322 102.831C153.145 102.831 165.371 112.116 165.371 128C165.371 139.061 158.528 146.457 149.006 154.341C139.329 162.353 126.898 170.762 115.33 183.284Z" fill="#042E77"/>
<path fill-rule="evenodd" clip-rule="evenodd" d="M136.693 84.1112C133.294 84.5492 129.931 83.0786 127.943 80.2866C124.64 75.6443 119.988 69.1062 119.988 69.1062L110.696 75.7178C110.696 75.7178 115.349 82.2559 118.652 86.8982C120.639 89.6902 120.925 93.3501 119.398 96.4182L119.398 96.4188C117.87 99.4863 118.157 103.146 120.144 105.939C128.127 117.159 148.731 146.114 156.742 157.372C158.539 159.898 162.043 160.488 164.568 158.691C169.145 155.435 176.146 150.453 180.723 147.196C183.248 145.399 183.839 141.895 182.042 139.37C174.031 128.112 153.427 99.1562 145.444 87.9363C143.457 85.1437 140.093 83.6737 136.694 84.1112C136.694 84.1112 136.694 84.1112 136.693 84.1112Z" fill="#0843BE"/>
<path fill-rule="evenodd" clip-rule="evenodd" d="M136.458 82.2827C133.733 82.6339 131.038 81.4556 129.446 79.2174C126.142 74.5751 121.49 68.0375 121.49 68.0375C120.9 67.2076 119.749 67.0139 118.919 67.6039L109.628 74.2155C108.798 74.8061 108.604 75.9572 109.194 76.7866C109.194 76.7866 113.846 83.3247 117.15 87.967C118.742 90.2046 118.972 93.1375 117.748 95.5961C117.748 95.5967 117.747 95.5967 117.747 95.5972C115.916 99.2743 116.26 103.661 118.642 107.008C126.625 118.227 147.229 147.183 155.24 158.441C157.627 161.796 162.282 162.581 165.637 160.193C170.214 156.937 177.215 151.955 181.792 148.698C185.147 146.311 185.931 141.656 183.544 138.301C175.533 127.043 154.929 98.087 146.946 86.8676C144.564 83.5207 140.533 81.7578 136.458 82.2827H136.458ZM136.928 85.9397C136.929 85.9397 136.929 85.9397 136.93 85.9397C139.653 85.5891 142.349 86.7675 143.941 89.0051L180.54 140.438C181.746 142.135 181.35 144.487 179.654 145.694C175.077 148.95 168.076 153.932 163.499 157.189C161.804 158.396 159.451 157.999 158.244 156.303L121.646 104.87C120.054 102.632 119.824 99.699 121.048 97.2404C121.048 97.2404 121.048 97.2398 121.048 97.2398C122.879 93.5628 122.535 89.176 120.154 85.829L113.267 76.1509L119.554 71.6773L126.441 81.3554C128.823 84.7024 132.855 86.4646 136.928 85.9397Z" fill="#042E77"/>
<path fill-rule="evenodd" clip-rule="evenodd" d="M160.755 100.392C158.915 97.8053 155.325 97.2003 152.738 99.041C146.392 103.557 135.846 111.061 135.846 111.061C135.846 111.061 147.644 127.641 152.147 133.97C153.225 135.486 154.971 136.386 156.831 136.386C160.195 136.386 165.577 136.386 168.383 136.386C169.578 136.386 170.743 136.014 171.716 135.321C172.9 134.479 174.621 133.255 176.256 132.092C178.843 130.251 179.447 126.661 177.607 124.075C173.133 117.787 165.23 106.68 160.755 100.392Z" fill="#FED108"/>
<path fill-rule="evenodd" clip-rule="evenodd" d="M162.257 99.3233C159.826 95.9067 155.086 95.108 151.67 97.5388C145.323 102.055 134.777 109.559 134.777 109.559C133.947 110.15 133.753 111.301 134.343 112.13C134.343 112.13 146.141 128.71 150.645 135.04C152.069 137.041 154.374 138.23 156.831 138.23C160.195 138.23 165.577 138.23 168.383 138.23C169.961 138.23 171.5 137.738 172.785 136.824C173.969 135.982 175.69 134.758 177.325 133.594C180.741 131.163 181.54 126.423 179.109 123.006L162.257 99.3233ZM159.253 101.461L176.105 125.144C177.355 126.901 176.944 129.339 175.187 130.59L170.648 133.82C169.986 134.29 169.195 134.543 168.383 134.543H156.831C155.567 134.543 154.382 133.932 153.649 132.902L138.417 111.494L153.807 100.543C155.564 99.2927 158.002 99.7035 159.253 101.461Z" fill="#042E77"/>
<path fill-rule="evenodd" clip-rule="evenodd" d="M83.8669 158.503C101.284 147.303 115.343 136.372 115.343 136.372L115.33 115.878L139.589 99.0139C145.586 106.42 144.443 112.411 139.791 117.479C135.138 122.547 129.872 128.284 129.872 128.284" fill="#FED108"/>
<path fill-rule="evenodd" clip-rule="evenodd" d="M84.8638 160.054C90.7285 156.31 96.2157 152.595 100.92 149.308C110.28 142.766 116.545 137.919 116.545 137.919C117.023 137.548 117.303 136.976 117.302 136.371L117.326 116.923L139.159 101.733C140.813 104.099 141.638 106.283 141.74 108.343C141.886 111.25 140.58 113.84 138.427 116.227C137.797 116.963 137.138 117.697 136.518 118.457C135.887 119.232 135.283 120.007 134.715 120.783C133.756 122.096 132.914 123.329 132.194 124.442C130.718 126.728 129.872 128.284 129.872 128.284C129.872 128.284 131.349 127.308 133.501 125.642C134.549 124.83 135.706 123.886 136.932 122.819C137.657 122.187 138.378 121.518 139.096 120.823C139.801 120.141 140.475 119.422 141.155 118.732C144.097 115.584 145.766 112.074 145.622 108.174C145.505 105.009 144.165 101.542 141.132 97.7643C140.478 96.9555 139.31 96.7897 138.455 97.3836L114.19 114.238C113.652 114.611 113.331 115.225 113.332 115.879L113.38 135.412C111.464 136.887 106.057 141.001 98.7272 146.19C94.0805 149.479 88.6628 153.201 82.8694 156.953L84.8638 160.054Z" fill="#042E77"/>
<path d="M67.649 177.831L71.8933 181.302L65.1804 189.51C64.5147 190.324 63.7593 190.988 62.9144 191.504C62.0694 192.02 61.1549 192.327 60.1707 192.426C59.1861 192.524 58.3072 192.44 57.5329 192.172C56.4558 191.803 55.3381 191.145 54.1798 190.198C53.5102 189.65 52.8177 189.005 52.1024 188.264C51.3872 187.522 50.8779 186.794 50.5734 186.081C50.2689 185.366 50.1064 184.573 50.0847 183.698C50.0635 182.824 50.1938 182.048 50.4765 181.37C50.9307 180.279 51.4339 179.395 51.9872 178.719L58.6996 170.512L62.9444 173.983L56.0701 182.387C55.4556 183.139 55.1839 183.896 55.2546 184.659C55.3253 185.422 55.73 186.106 56.4686 186.71C57.2011 187.309 57.9459 187.571 58.7024 187.495C59.4594 187.419 60.1502 186.999 60.7747 186.235L67.649 177.831Z" fill="#0843BE"/>
<path d="M75.0822 183.404L80.118 185.604L77.4273 191.763L85.3987 187.911L92.0911 190.835L83.4689 194.389L85.2379 207.248L79.0348 204.538L78.5283 196.334L74.7371 197.921L72.9982 201.901L67.9624 199.701L75.0822 183.404Z" fill="#0843BE"/>
<path d="M91.5461 208.998L94.3115 191.43L103.359 192.855C105.037 193.118 106.297 193.464 107.138 193.892C107.98 194.319 108.611 194.965 109.031 195.829C109.452 196.694 109.575 197.685 109.398 198.803C109.245 199.778 108.905 200.586 108.378 201.228C107.851 201.87 107.19 202.353 106.394 202.678C105.887 202.884 105.215 203.016 104.379 203.073C104.992 203.39 105.43 203.68 105.691 203.943C105.868 204.118 106.11 204.471 106.415 205.002C106.72 205.533 106.916 205.936 107.004 206.213L108.827 211.719L102.691 210.753L100.636 204.928C100.378 204.175 100.122 203.672 99.8666 203.419C99.5181 203.085 99.0957 202.88 98.6008 202.802L98.121 202.726L96.9988 209.857L91.5461 208.998ZM98.6437 199.407L100.933 199.767C101.18 199.806 101.672 199.802 102.409 199.754C102.779 199.738 103.102 199.601 103.376 199.342C103.65 199.082 103.818 198.76 103.878 198.376C103.967 197.809 103.856 197.345 103.544 196.985C103.233 196.625 102.581 196.367 101.59 196.211L99.2059 195.836L98.6437 199.407Z" fill="#0843BE"/>
<path d="M125.477 208.11L119.235 208.578L118.596 211.57L112.995 211.99L118.33 193.755L124.306 193.307L132.302 210.542L126.568 210.972L125.477 208.11ZM124.04 204.361L121.603 198.133L120.133 204.654L124.04 204.361Z" fill="#0843BE"/>
<path d="M132.901 191.843L138.226 190.436L142.769 207.63L137.444 209.037L132.901 191.843Z" fill="#0843BE"/>
<path d="M142.181 189.561L146.797 187.318L157.119 193.241L152.82 184.392L157.478 182.128L165.251 198.124L160.592 200.388L150.334 194.515L154.602 203.299L149.953 205.557L142.181 189.561Z" fill="#0843BE"/>
<path d="M160.544 179.981L171.804 170.488L174.252 173.391L167.203 179.334L169.025 181.495L175.563 175.982L177.902 178.755L171.363 184.268L173.623 186.948L180.876 180.833L183.472 183.913L172.008 193.578L160.544 179.981Z" fill="#0843BE"/>
<path d="M25.1639 79.4634L27.3147 74.3931L43.6874 81.3375L41.5366 86.4079L25.1639 79.4634Z" fill="#0843BE"/>
<path d="M44.3169 67.5526L47.3544 63.2844C48.0859 63.7308 48.7332 63.9591 49.2982 63.9691C50.2138 63.9824 51.0026 63.5811 51.6644 62.764C52.1587 62.1545 52.3964 61.5689 52.3774 61.0073C52.3591 60.4462 52.1615 60.0126 51.7841 59.707C51.4262 59.4164 50.9786 59.314 50.4409 59.3992C49.9038 59.4838 49.046 59.9964 47.8677 60.936C45.9295 62.4673 44.288 63.3495 42.9437 63.5822C41.595 63.821 40.3799 63.5026 39.2989 62.6265C38.5892 62.0515 38.0849 61.3017 37.7872 60.3788C37.4894 59.4554 37.4944 58.434 37.8027 57.3152C38.1111 56.1963 38.8486 54.9172 40.0148 53.4783C41.4459 51.7127 42.8647 50.6329 44.2724 50.2382C45.6801 49.8436 47.1719 50.1386 48.7466 51.1238L45.7207 55.3391C45.0122 54.9417 44.3776 54.7998 43.8176 54.9133C43.2571 55.0263 42.7328 55.3848 42.2441 55.9876C41.8416 56.4841 41.644 56.9433 41.6507 57.3653C41.6574 57.7872 41.8116 58.12 42.1132 58.3644C42.3331 58.5431 42.6153 58.5999 42.9588 58.5347C43.3044 58.4813 43.8611 58.1412 44.6292 57.515C46.5434 55.9748 48.0335 54.9679 49.0995 54.4936C50.1654 54.0199 51.1523 53.8463 52.0596 53.9726C52.9669 54.099 53.7974 54.468 54.5516 55.0786C55.4372 55.7967 56.0556 56.704 56.4063 57.8C56.7564 58.896 56.7687 60.0404 56.4419 61.2333C56.1157 62.4261 55.4099 63.6913 54.3251 65.03C52.4209 67.3795 50.6497 68.6403 49.0115 68.8117C47.3734 68.9832 45.8087 68.5635 44.3169 67.5526Z" fill="#0843BE"/>
<path d="M49.1757 43.6L62.3282 33.3013L65.0357 36.759L60.6227 40.2146L68.8797 50.7593L64.5525 54.1475L56.2961 43.6022L51.8832 47.0577L49.1757 43.6Z" fill="#0843BE"/>
<path d="M82.6501 39.4905L77.0092 42.2046L77.5063 45.2232L72.4449 47.659L70.7567 28.7348L76.1565 26.1365L89.8918 39.2634L84.7102 41.7571L82.6501 39.4905ZM79.9443 36.5248L75.4011 31.6159L76.4131 38.2236L79.9443 36.5248Z" fill="#0843BE"/>
<path d="M88.2899 21.3617L93.3251 20.3731L101.791 28.7375L99.8961 19.0834L104.979 18.0859L108.405 35.5373L103.322 36.5348L94.9054 28.2349L96.7862 37.8178L91.7153 38.813L88.2899 21.3617Z" fill="#0843BE"/>
<path d="M113.319 17.5911L121.466 18.1048C123.073 18.2061 124.356 18.5062 125.318 19.0043C126.279 19.5025 127.057 20.1794 127.651 21.0355C128.246 21.8916 128.654 22.8696 128.876 23.9694C129.098 25.0693 129.172 26.2243 129.095 27.435C128.975 29.332 128.667 30.7892 128.169 31.8073C127.671 32.8254 127.017 33.6631 126.206 34.321C125.394 34.979 124.541 35.3975 123.647 35.5762C122.424 35.8228 121.324 35.9158 120.347 35.854L112.199 35.3402L113.319 17.5911ZM118.55 21.9567L117.938 31.6542L119.282 31.7388C120.428 31.8112 121.251 31.7355 121.751 31.5117C122.252 31.2885 122.659 30.8683 122.974 30.2521C123.288 29.6359 123.49 28.6173 123.579 27.1968C123.698 25.3159 123.473 24.0095 122.903 23.2764C122.333 22.5434 121.338 22.1326 119.918 22.043L118.55 21.9567Z" fill="#0843BE"/>
<path d="M145.611 21.9165L150.321 24.1586L147.748 33.9374L154.494 26.1452L159.193 28.3823L157.409 38.5368L163.378 30.3744L168.066 32.606L156.883 46.9797L152.02 44.6642L154.018 33.2144L146.4 41.989L141.537 39.674L145.611 21.9165Z" fill="#0843BE"/>
<path d="M172.593 36.6455L176.936 40.0326L165.998 54.0557L161.655 50.668L172.593 36.6455Z" fill="#0843BE"/>
<path d="M181.515 43.6294L192.714 56.0238L189.456 58.9683L185.698 54.8098L175.761 63.7882L172.077 59.7109L182.014 50.7319L178.256 46.5734L181.515 43.6294Z" fill="#0843BE"/>
<path d="M196.71 61.6709L199.298 66.5191L193.807 69.4498L196.635 74.7472L202.126 71.8171L204.724 76.6865L189.035 85.0603L186.436 80.191L192.782 76.8039L189.955 71.5059L183.608 74.8936L181.021 70.0453L196.71 61.6709Z" fill="#0843BE"/>
<path fill-rule="evenodd" clip-rule="evenodd" d="M103.212 43.3368C110.082 41.7844 117.526 44.3699 121.858 50.4655C127.254 58.0579 125.919 68.4184 119.058 74.4261L117.612 75.5672C109.342 81.7001 101.633 84.8227 85.0464 84.8227C70.0209 84.8227 49.6984 75.5449 49.6984 50.5067C55.4205 62.3645 63.5935 62.2827 69.3479 62.2827C80.7643 62.2827 86.8794 55.464 93.127 49.6684C94.1384 48.3771 95.3546 47.2165 96.7567 46.2201C97.5026 45.6902 98.2752 45.2249 99.0779 44.8436L99.2103 44.7517C100.558 43.8906 101.898 43.437 103.212 43.3368Z" fill="#FED108"/>
<path fill-rule="evenodd" clip-rule="evenodd" d="M103.736 56.0407C97.4464 60.7019 98.6259 71.3941 83.8669 71.3941C89.7366 77.2638 104.98 80.9932 116.916 73.0245C122.667 69.1854 110.025 51.3795 103.736 56.0407Z" fill="#FFE885"/>
<path fill-rule="evenodd" clip-rule="evenodd" d="M103.736 56.0408C108.576 52.6014 115.297 53.738 118.737 58.5779C122.177 63.4183 121.04 70.1402 116.2 73.5795C111.36 77.0189 104.638 75.8823 101.199 71.0424C97.7587 66.2026 98.8959 59.4802 103.736 56.0408Z" fill="#FFF6CF"/>
</g>
<defs>
<clipPath id="clip0_15_394">
<rect width="231" height="231" fill="white"/>
</clipPath>
</defs>
</svg>
