<svg width="542" height="438" fill="none" xmlns="http://www.w3.org/2000/svg"><g clip-path="url(#clip0)"><path d="M400.64 426.669c0-3.18-2.865-5.758-6.4-5.758v11.516c3.535 0 6.4-2.578 6.4-5.758zm-49.368-293.173c0 3.179 2.865 5.758 6.399 5.758v-11.517c-3.534 0-6.399 2.579-6.399 5.759zm49.368 251.291c0-3.18-2.865-5.758-6.4-5.758v11.516c3.535 0 6.4-2.578 6.4-5.758zm-49.368-209.41c0 3.18 2.865 5.758 6.399 5.758v-11.516c-3.534 0-6.399 2.578-6.399 5.758zm49.368 167.528c0-3.18-2.865-5.758-6.4-5.758v11.517c3.535 0 6.4-2.579 6.4-5.759zm-49.368-125.646c0 3.18 2.865 5.758 6.399 5.758v-11.516c-3.534 0-6.399 2.578-6.399 5.758zm49.368 83.764c0-3.18-2.865-5.758-6.4-5.758v11.516c3.535 0 6.4-2.578 6.4-5.758zm-49.368-41.882c0 3.18 2.865 5.758 6.399 5.758v-11.516c-3.534 0-6.399 2.578-6.399 5.758zm-130.559 0c0 3.18 2.865 5.758 6.4 5.758v-11.516c-3.535 0-6.4 2.578-6.4 5.758zm179.927.001c0-3.18-2.865-5.759-6.4-5.759V264.9c3.535 0 6.4-2.578 6.4-5.758zm0-41.882c0-3.18-2.865-5.758-6.4-5.758v11.516c3.535 0 6.4-2.578 6.4-5.758zm-49.368 125.645c0 3.18 2.865 5.758 6.399 5.758v-11.516c-3.534 0-6.399 2.578-6.399 5.758zm49.368-167.528c0-3.179-2.865-5.758-6.4-5.758v11.517c3.535 0 6.4-2.579 6.4-5.759zm-49.368 209.41c0 3.18 2.865 5.758 6.399 5.758v-11.516c-3.534 0-6.399 2.578-6.399 5.758zm49.368-251.291c0-3.18-2.865-5.759-6.4-5.759v11.517c3.535 0 6.4-2.578 6.4-5.758zm-49.368 293.173c0 3.18 2.865 5.758 6.399 5.758v-11.516c-3.534 0-6.399 2.578-6.399 5.758zM438.4 133.496c0 3.179 2.865 5.758 6.399 5.758v-11.517c-3.534 0-6.399 2.579-6.399 5.759zm0 83.763c0 3.18 2.865 5.758 6.399 5.758v-11.516c-3.534 0-6.399 2.578-6.399 5.758zm0 41.882c0 3.18 2.865 5.758 6.399 5.758v-11.516c-3.534 0-6.399 2.578-6.399 5.758zm0 41.882c0 3.18 2.865 5.758 6.399 5.758v-11.517c-3.534 0-6.399 2.579-6.399 5.759zm0 41.882c0 3.18 2.865 5.758 6.399 5.758v-11.516c-3.534 0-6.399 2.578-6.399 5.758zm0 41.882c0 3.18 2.865 5.758 6.399 5.758v-11.516c-3.534 0-6.399 2.578-6.399 5.758zm0 41.882c0 3.18 2.865 5.758 6.399 5.758v-11.516c-3.534 0-6.399 2.578-6.399 5.758zM2.43 133.496c0 3.179 2.865 5.758 6.4 5.758v-11.517c-3.535 0-6.4 2.579-6.4 5.759zm42.968 0c0 3.179 2.865 5.758 6.4 5.758v-11.517c-3.535 0-6.4 2.579-6.4 5.759zm42.967 0c0 3.179 2.865 5.758 6.4 5.758v-11.517c-3.535 0-6.4 2.579-6.4 5.759zm42.968 0c0 3.179 2.865 5.758 6.399 5.758v-11.517c-3.534 0-6.399 2.579-6.399 5.759zM2.43 175.377c0 3.18 2.865 5.758 6.4 5.758v-11.516c-3.535 0-6.4 2.578-6.4 5.758zm42.968 0c0 3.18 2.865 5.758 6.4 5.758v-11.516c-3.535 0-6.4 2.578-6.4 5.758zm42.967 0c0 3.18 2.865 5.758 6.4 5.758v-11.516c-3.535 0-6.4 2.578-6.4 5.758zm42.968 0c0 3.18 2.865 5.758 6.399 5.758v-11.516c-3.534 0-6.399 2.578-6.399 5.758zM2.43 217.259c0 3.18 2.865 5.758 6.4 5.758v-11.516c-3.535 0-6.4 2.578-6.4 5.758zm42.968 0c0 3.18 2.865 5.758 6.4 5.758v-11.516c-3.535 0-6.4 2.578-6.4 5.758zm42.967 0c0 3.18 2.865 5.758 6.4 5.758v-11.516c-3.535 0-6.4 2.578-6.4 5.758zm42.968 0c0 3.18 2.865 5.758 6.399 5.758v-11.516c-3.534 0-6.399 2.578-6.399 5.758zM2.43 259.141c0 3.179 2.865 5.758 6.4 5.758v-11.517c-3.535 0-6.4 2.579-6.4 5.759zm42.968 0c0 3.179 2.865 5.758 6.4 5.758v-11.517c-3.535 0-6.4 2.579-6.4 5.759zm42.967 0c0 3.179 2.865 5.758 6.4 5.758v-11.517c-3.535 0-6.4 2.579-6.4 5.759zm42.968 0c0 3.179 2.865 5.758 6.399 5.758v-11.517c-3.534 0-6.399 2.579-6.399 5.759zM2.43 301.023c0 3.18 2.865 5.758 6.4 5.758v-11.517c-3.535 0-6.4 2.579-6.4 5.759zm42.968 0c0 3.18 2.865 5.758 6.4 5.758v-11.517c-3.535 0-6.4 2.579-6.4 5.759zm42.967 0c0 3.18 2.865 5.758 6.4 5.758v-11.517c-3.535 0-6.4 2.579-6.4 5.759zm42.968 0c0 3.18 2.865 5.758 6.399 5.758v-11.517c-3.534 0-6.399 2.579-6.399 5.759zM2.43 342.904c0 3.18 2.865 5.758 6.4 5.758v-11.516c-3.535 0-6.4 2.578-6.4 5.758zm42.968 0c0 3.18 2.865 5.758 6.4 5.758v-11.516c-3.535 0-6.4 2.578-6.4 5.758zm42.967 0c0 3.18 2.865 5.758 6.4 5.758v-11.516c-3.535 0-6.4 2.578-6.4 5.758zm42.968 0c0 3.18 2.865 5.758 6.399 5.758v-11.516c-3.534 0-6.399 2.578-6.399 5.758zM2.43 384.787c0 3.18 2.865 5.758 6.4 5.758v-11.516c-3.535 0-6.4 2.578-6.4 5.758zm42.968 0c0 3.18 2.865 5.758 6.4 5.758v-11.516c-3.535 0-6.4 2.578-6.4 5.758zm42.967 0c0 3.18 2.865 5.758 6.4 5.758v-11.516c-3.535 0-6.4 2.578-6.4 5.758zm42.968 0c0 3.18 2.865 5.758 6.399 5.758v-11.516c-3.534 0-6.399 2.578-6.399 5.758zM2.43 426.669c0 3.18 2.865 5.758 6.4 5.758v-11.516c-3.535 0-6.4 2.578-6.4 5.758zm42.968 0c0 3.18 2.865 5.758 6.4 5.758v-11.516c-3.535 0-6.4 2.578-6.4 5.758zm42.967 0c0 3.18 2.865 5.758 6.4 5.758v-11.516c-3.535 0-6.4 2.578-6.4 5.758zm42.968 0c0 3.18 2.865 5.758 6.399 5.758v-11.516c-3.534 0-6.399 2.578-6.399 5.758zm181.493 0c0-3.18-2.865-5.758-6.399-5.758v11.516c3.534 0 6.399-2.578 6.399-5.758zM177.524 133.496c0 3.179 2.865 5.758 6.399 5.758v-11.517c-3.534 0-6.399 2.579-6.399 5.759zm42.968 0c0 3.179 2.865 5.758 6.399 5.758v-11.517c-3.534 0-6.399 2.579-6.399 5.759zm42.967 0c0 3.179 2.865 5.758 6.399 5.758v-11.517c-3.534 0-6.399 2.579-6.399 5.759zm49.367 251.291c0-3.18-2.865-5.758-6.399-5.758v11.516c3.534 0 6.399-2.578 6.399-5.758zm-135.302-209.41c0 3.18 2.865 5.758 6.399 5.758v-11.516c-3.534 0-6.399 2.578-6.399 5.758zm42.968 0c0 3.18 2.865 5.758 6.399 5.758v-11.516c-3.534 0-6.399 2.578-6.399 5.758zm42.967 0c0 3.18 2.865 5.758 6.399 5.758v-11.516c-3.534 0-6.399 2.578-6.399 5.758zm49.367 167.528c0-3.18-2.865-5.758-6.399-5.758v11.517c3.534 0 6.399-2.579 6.399-5.759zM177.524 217.259c0 3.18 2.865 5.758 6.399 5.758v-11.516c-3.534 0-6.399 2.578-6.399 5.758zm42.968 0c0 3.18 2.865 5.758 6.399 5.758v-11.516c-3.534 0-6.399 2.578-6.399 5.758zm42.967 0c0 3.18 2.865 5.758 6.399 5.758v-11.516c-3.534 0-6.399 2.578-6.399 5.758zm49.367 83.764c0-3.18-2.865-5.758-6.399-5.758v11.516c3.534 0 6.399-2.578 6.399-5.758zm-135.302-41.882c0 3.179 2.865 5.758 6.399 5.758v-11.517c-3.534 0-6.399 2.579-6.399 5.759zm85.935 0c0 3.179 2.865 5.758 6.399 5.758v-11.517c-3.534 0-6.399 2.579-6.399 5.759zm49.367.001c0-3.18-2.865-5.758-6.399-5.758V264.9c3.534 0 6.399-2.578 6.399-5.758zm-135.302 41.881c0 3.18 2.865 5.758 6.399 5.758v-11.517c-3.534 0-6.399 2.579-6.399 5.759zm42.968 0c0 3.18 2.865 5.758 6.399 5.758v-11.517c-3.534 0-6.399 2.579-6.399 5.759zm42.967 0c0 3.18 2.865 5.758 6.399 5.758v-11.517c-3.534 0-6.399 2.579-6.399 5.759zm49.367-83.763c0-3.18-2.865-5.758-6.399-5.758v11.516c3.534 0 6.399-2.578 6.399-5.758zM177.524 342.904c0 3.18 2.865 5.758 6.399 5.758v-11.516c-3.534 0-6.399 2.578-6.399 5.758zm42.968 0c0 3.18 2.865 5.758 6.399 5.758v-11.516c-3.534 0-6.399 2.578-6.399 5.758zm42.967 0c0 3.18 2.865 5.758 6.399 5.758v-11.516c-3.534 0-6.399 2.578-6.399 5.758zm49.367-167.526c0-3.179-2.865-5.758-6.399-5.758v11.517c3.534 0 6.399-2.579 6.399-5.759zM177.524 384.787c0 3.18 2.865 5.758 6.399 5.758v-11.516c-3.534 0-6.399 2.578-6.399 5.758zm42.968 0c0 3.18 2.865 5.758 6.399 5.758v-11.516c-3.534 0-6.399 2.578-6.399 5.758zm42.967 0c0 3.18 2.865 5.758 6.399 5.758v-11.516c-3.534 0-6.399 2.578-6.399 5.758zm49.367-251.291c0-3.18-2.865-5.759-6.399-5.759v11.517c3.534 0 6.399-2.578 6.399-5.758zM177.524 426.669c0 3.18 2.865 5.758 6.399 5.758v-11.516c-3.534 0-6.399 2.578-6.399 5.758zm42.968 0c0 3.18 2.865 5.758 6.399 5.758v-11.516c-3.534 0-6.399 2.578-6.399 5.758zm42.967 0c0 3.18 2.865 5.758 6.399 5.758v-11.516c-3.534 0-6.399 2.578-6.399 5.758zm87.813-335.055c0 3.18 2.865 5.758 6.399 5.758V85.855c-3.534 0-6.399 2.579-6.399 5.758zm49.368 0c0-3.18-2.865-5.759-6.4-5.759v11.517c3.535 0 6.4-2.579 6.4-5.758zm37.76 0c0 3.18 2.865 5.758 6.399 5.758V85.855c-3.534 0-6.399 2.579-6.399 5.758zm-435.97 0c0 3.18 2.865 5.758 6.4 5.758V85.855c-3.535 0-6.4 2.579-6.4 5.758zm42.968 0c0 3.18 2.865 5.758 6.4 5.758V85.855c-3.535 0-6.4 2.579-6.4 5.758zm42.967 0c0 3.18 2.865 5.758 6.4 5.758V85.855c-3.535 0-6.4 2.579-6.4 5.758zm42.968 0c0 3.18 2.865 5.758 6.399 5.758V85.855c-3.534 0-6.399 2.579-6.399 5.758zm46.191 0c0 3.18 2.865 5.758 6.399 5.758V85.855c-3.534 0-6.399 2.579-6.399 5.758zm42.968 0c0 3.18 2.865 5.758 6.399 5.758V85.855c-3.534 0-6.399 2.579-6.399 5.758zm42.967 0c0 3.18 2.865 5.758 6.399 5.758V85.855c-3.534 0-6.399 2.579-6.399 5.758zm42.968 0c0 3.18 2.865 5.758 6.399 5.758V85.855c-3.534 0-6.399 2.579-6.399 5.758z" fill="#000" fill-opacity=".05"/><path d="M526.275 13.304V400.08H157.684V13.304h368.591z" fill="#fff"/><g opacity=".814"><path d="M502.079 39.185h-329.18v356.259h329.18V39.184z" fill="#fff"/><path d="M501.061 39.656v355.336H173.375V39.656h327.686z" fill="#fff"/><path d="M501.061 39.656v355.336H173.375V39.656h327.686z" stroke="#DEDEDE" stroke-width="1.22"/><path d="M197.381 64.665c0-.555.451-1.006 1.007-1.006h30.581c.556 0 1.006.45 1.006 1.006v30.338c0 .557-.45 1.007-1.006 1.007h-30.581c-.556 0-1.007-.45-1.007-1.007V64.666z" fill="#000"/><path d="M210.21 81.337h6.936v6.77h3.693V71.196h-3.693v6.685h-6.936v-6.685h-3.693v16.91h3.693v-6.77z" fill="#fff"/><path d="M243.646 79.368v-4.91h5.283v4.91h2.094V68.097h-2.094v4.557h-5.283v-4.557h-2.094v11.271h2.094zm12.027.242c1.352 0 2.206-.676 2.689-1.433.097.708.451 1.191 1.466 1.191h1.498v-1.545h-.741c-.419 0-.483-.097-.483-.483v-3.237c0-1.965-1.208-2.995-3.415-2.995-2.255 0-3.511 1.175-3.688 2.367l1.788.467c.209-.708.708-1.353 1.9-1.353 1.031 0 1.466.484 1.466 1.273v.273c-2.625.242-5.041.934-5.041 3.172 0 1.417 1.063 2.303 2.561 2.303zm.644-1.481c-.806 0-1.208-.387-1.208-.999 0-1.16 1.401-1.53 3.044-1.707v.644c0 1.434-.902 2.062-1.836 2.062zm8.754 1.48c1.578 0 2.319-1.03 2.641-1.561v1.32h1.949V71.35h-1.965v3.767c0 1.272-.29 2.834-1.82 2.834-.854 0-1.385-.483-1.385-1.722v-4.88h-1.965v5.346c0 1.756.886 2.915 2.545 2.915zm10.84-.24l1.03-3.656c.403-1.385.548-1.884.677-2.399.129.483.29 1.014.676 2.415l1.031 3.64h2.352l2.625-8.02h-2.029l-.806 2.77c-.612 2.222-.789 2.915-.902 3.301-.128-.386-.322-1.095-.757-2.705l-.966-3.365h-2.319l-.918 3.22c-.484 1.723-.677 2.48-.79 2.898-.129-.434-.338-1.207-.853-3.172l-.822-2.947h-2.029l2.593 8.02h2.207zm11.817.24c1.353 0 2.206-.675 2.69-1.432.096.708.451 1.191 1.465 1.191h1.498v-1.545h-.741c-.418 0-.483-.097-.483-.483v-3.237c0-1.965-1.208-2.995-3.414-2.995-2.255 0-3.512 1.175-3.689 2.367l1.788.467c.209-.708.709-1.353 1.901-1.353 1.03 0 1.465.484 1.465 1.273v.273c-2.625.242-5.041.934-5.041 3.172 0 1.417 1.063 2.303 2.561 2.303zm.644-1.48c-.805 0-1.208-.387-1.208-.999 0-1.16 1.401-1.53 3.044-1.707v.644c0 1.434-.902 2.062-1.836 2.062zm20.058 1.24l-4.22-11.272h-2.77l-4.285 11.271h2.255l.983-2.785h4.735l.966 2.785h2.336zm-6.443-7.295c.451-1.256.644-1.852.789-2.286.162.45.355.998.79 2.27l.934 2.721h-3.463l.95-2.705zm9.757-3.977h-1.949v11.271h1.949V68.097zm4.39-.016h-2.094v2.013h2.094V68.08zm-.048 3.269h-1.965v8.018h1.965V71.35zm6.371 3.43l-.709 2.157c-.145-.338-.338-.74-.934-2.142l-1.466-3.445h-2.126l3.737 7.954-.242.725c-.241.66-.499.853-1.079.853h-1.884v1.626h2.093c1.402 0 2.046-.58 2.513-1.932l3.27-9.226h-2.046l-1.127 3.43zm7.088 4.83c1.578 0 2.319-1.03 2.641-1.562v1.32h1.949V71.35h-1.965v3.767c0 1.272-.29 2.834-1.82 2.834-.854 0-1.385-.483-1.385-1.722v-4.88H327v5.346c0 1.756.886 2.915 2.545 2.915z" fill="#111"/><path d="M241.21 87.886h82.011c.62 0 1.123.504 1.123 1.124v4.492c0 .62-.503 1.123-1.123 1.123H241.21c-.62 0-1.124-.503-1.124-1.123V89.01c0-.62.504-1.124 1.124-1.124zm88.442 2.554a.815.815 0 110 1.631.815.815 0 010-1.63zm6.433-2.554h38.197c.62 0 1.123.504 1.123 1.124v4.492c0 .62-.503 1.123-1.123 1.123h-38.197c-.62 0-1.123-.503-1.123-1.123V89.01c0-.62.503-1.124 1.123-1.124z" fill="#E0E0E0"/><path d="M499.478 119.83H176.143v-1.123h323.335v1.123z" fill="#F2F2F2"/><path d="M212.717 150.568l-7.047-7.045-7.046 7.045 7.046 7.045 7.047-7.045zm-9.06 2.013a2.848 2.848 0 114.03-4.026 2.848 2.848 0 01-4.03 4.026zm27.55 2.473l-3.784-10.265h-2.024l-3.858 10.265h1.585l.968-2.714h4.517l.954 2.714h1.642zm-5.632-6.849c.396-1.086.631-1.774.792-2.2.161.426.382 1.042.778 2.2l.982 2.787h-3.549l.997-2.787zm9.996 7.054c1.643 0 2.744-.953 3.227-2.303l-1.305-.454c-.25.807-.792 1.569-1.937 1.569-1.158 0-2.082-.85-2.082-2.653 0-1.775.939-2.655 2.068-2.655 1.012 0 1.54.644 1.789 1.362l1.292-.438c-.368-1.144-1.409-2.113-3.067-2.113-2.038 0-3.519 1.57-3.519 3.844 0 2.345 1.407 3.841 3.534 3.841zm9.156-.206v-1.188h-1.525c-.499 0-.719-.22-.719-.718v-4.223h1.966v-1.144h-1.966v-2.272h-1.379v2.272h-1.656v1.144h1.656v4.339c0 1.203.631 1.79 1.833 1.79h1.79zm2.969-10.264h-1.468v1.643h1.468v-1.643zm-.03 2.991h-1.394v7.274h1.394v-7.274zm5.717 7.273l2.391-7.272h-1.408l-1.203 3.988c-.264.865-.514 1.687-.63 2.039-.103-.338-.353-1.16-.631-2.039l-1.262-3.988h-1.451l2.478 7.272h1.716zm5.399-10.264h-1.468v1.643h1.468v-1.643zm-.03 2.991h-1.393v7.274h1.393v-7.274zm6.715 7.273v-1.188h-1.525c-.499 0-.718-.22-.718-.718v-4.223h1.966v-1.144h-1.966v-2.272h-1.38v2.272h-1.657v1.144h1.657v4.339c0 1.203.633 1.79 1.836 1.79h1.787zm4.773-3.505c-.337.983-.426 1.261-.558 1.657-.132-.352-.263-.674-.748-1.803l-1.496-3.622h-1.54l3.212 7.185-.366 1.041c-.205.557-.499.674-.998.674h-1.466v1.232h1.511c1.275 0 1.818-.454 2.288-1.833l2.86-8.299h-1.453l-1.246 3.768z" fill="#000"/><path d="M210.783 180.38l-5.694-5.693-5.695 5.693 5.695 5.693 5.694-5.693zm-7.321 1.626a2.298 2.298 0 010-3.252 2.299 2.299 0 013.253 0 2.298 2.298 0 010 3.252 2.299 2.299 0 01-3.253 0z" fill="#666"/><path d="M204.586 208.315h1.007v-20.23h-1.007v20.23z" fill="#DADADA"/><path d="M222.616 189.31c0-.62.008-1.123.018-1.123h1.664c.01 0 .018.503.018 1.123v5.804c0 .62-.008 1.124-.018 1.124h-1.664c-.01 0-.018-.504-.018-1.124v-5.804z" fill="#F9E9E1"/><path d="M334.687 192.212a.816.816 0 11-1.632 0 .816.816 0 011.632 0z" fill="#E0E0E0"/><path d="M338.933 189.31c0-.62.008-1.123.018-1.123h.774c.01 0 .018.503.018 1.123v5.804c0 .62-.008 1.124-.018 1.124h-.774c-.01 0-.018-.504-.018-1.124v-5.804z" fill="#F9E9E1"/><path d="M210.783 218.033l-5.694-5.693-5.695 5.693 5.695 5.693 5.694-5.693zm-7.321 1.626a2.298 2.298 0 010-3.252 2.299 2.299 0 013.253 0 2.298 2.298 0 010 3.252 2.299 2.299 0 01-3.253 0z" fill="#666"/><path d="M204.586 246.108h1.007v-20.369h-1.007v20.369z" fill="#DADADA"/><path d="M222.616 227.103c0-.62.008-1.123.018-1.123h.79c.01 0 .018.503.018 1.123v5.805c0 .62-.008 1.123-.018 1.123h-.79c-.01 0-.018-.503-.018-1.123v-5.805z" fill="#F9E9E1"/><path d="M280.327 230.006a.816.816 0 11-1.632 0 .816.816 0 011.632 0z" fill="#E0E0E0"/><path d="M284.573 227.103c0-.62.008-1.123.018-1.123h1.373c.01 0 .018.503.018 1.123v5.805c0 .62-.008 1.123-.018 1.123h-1.373c-.01 0-.018-.503-.018-1.123v-5.805z" fill="#F9E9E1"/><path d="M210.783 255.827l-5.694-5.693-5.695 5.693 5.695 5.693 5.694-5.693zm-7.321 1.626a2.3 2.3 0 113.253-3.252 2.3 2.3 0 01-3.253 3.252z" fill="#666"/><path d="M204.586 283.761h1.007v-20.229h-1.007v20.229z" fill="#DADADA"/><path d="M222.616 264.756c0-.62.008-1.123.018-1.123h1.292c.01 0 .018.503.018 1.123v5.805c0 .62-.008 1.123-.018 1.123h-1.292c-.01 0-.018-.503-.018-1.123v-5.805z" fill="#F9E9E1"/><path d="M311.533 267.659a.815.815 0 11-1.63.002.815.815 0 011.63-.002z" fill="#E0E0E0"/><path d="M315.78 264.756c0-.62.008-1.123.018-1.123h2.037c.01 0 .018.503.018 1.123v5.805c0 .62-.008 1.123-.018 1.123h-2.037c-.01 0-.018-.503-.018-1.123v-5.805z" fill="#F9E9E1"/><path d="M210.783 292.473l-5.694-5.693-5.695 5.693 5.695 5.693 5.694-5.693zm-7.321 1.626a2.298 2.298 0 010-3.252 2.299 2.299 0 013.253 0 2.298 2.298 0 010 3.252 2.299 2.299 0 01-3.253 0z" fill="#666"/><path d="M222.616 301.735c0-.62.008-1.123.018-1.123h.579c.01 0 .018.503.018 1.123v5.805c0 .619-.008 1.123-.018 1.123h-.579c-.01 0-.018-.504-.018-1.123v-5.805z" fill="#F9E9E1"/><path d="M267.241 304.637a.816.816 0 11-1.632 0 .816.816 0 011.632 0z" fill="#E0E0E0"/><path d="M271.486 301.735c0-.62.008-1.123.018-1.123h.92c.01 0 .018.503.018 1.123v5.805c0 .619-.008 1.123-.018 1.123h-.92c-.01 0-.018-.504-.018-1.123v-5.805z" fill="#F9E9E1"/></g><path d="M522.213 19.057h-329.18v356.259h329.18V19.056z" fill="#fff"/><path d="M521.194 19.528v355.336H193.509V19.528h327.685z" fill="#fff"/><path d="M521.194 19.528v355.336H193.509V19.528h327.685z" stroke="#DEDEDE" stroke-width="1.22"/><path d="M217.515 44.537c0-.555.451-1.006 1.006-1.006h30.581c.557 0 1.007.45 1.007 1.006v30.339c0 .556-.45 1.006-1.007 1.006h-30.581c-.555 0-1.006-.45-1.006-1.006V44.537z" fill="#000"/><path d="M230.344 61.21h6.936v6.77h3.692V51.067h-3.692v6.685h-6.936v-6.685h-3.694v16.911h3.694v-6.77z" fill="#fff"/><path d="M263.779 59.24v-4.91h5.283v4.91h2.094V47.97h-2.094v4.556h-5.283V47.97h-2.094v11.272h2.094zm12.027.242c1.353 0 2.206-.676 2.69-1.433.096.709.451 1.192 1.465 1.192h1.498v-1.546h-.741c-.418 0-.483-.097-.483-.483v-3.237c0-1.964-1.208-2.995-3.414-2.995-2.255 0-3.512 1.176-3.689 2.367l1.788.467c.209-.708.709-1.352 1.901-1.352 1.03 0 1.465.483 1.465 1.272v.273c-2.625.242-5.041.934-5.041 3.173 0 1.417 1.063 2.302 2.561 2.302zm.644-1.481c-.805 0-1.208-.387-1.208-.998 0-1.16 1.401-1.53 3.044-1.707v.644c0 1.433-.902 2.06-1.836 2.06zm8.754 1.481c1.579 0 2.319-1.03 2.642-1.562v1.32h1.948v-8.018h-1.965v3.768c0 1.272-.289 2.834-1.82 2.834-.853 0-1.385-.483-1.385-1.723v-4.88h-1.965v5.347c0 1.755.886 2.914 2.545 2.914zm10.84-.241l1.031-3.655c.402-1.385.547-1.884.676-2.4.129.483.29 1.015.677 2.416l1.03 3.639h2.352l2.625-8.02h-2.029l-.805 2.77c-.612 2.223-.79 2.915-.902 3.301-.129-.386-.322-1.095-.757-2.705l-.967-3.365h-2.319l-.918 3.22c-.483 1.723-.677 2.48-.789 2.899-.129-.435-.339-1.208-.854-3.172l-.821-2.947h-2.03l2.593 8.019h2.207zm11.817.241c1.353 0 2.207-.676 2.69-1.433.097.709.451 1.192 1.466 1.192h1.498v-1.546h-.741c-.419 0-.484-.097-.484-.483v-3.237c0-1.964-1.208-2.995-3.414-2.995-2.255 0-3.511 1.176-3.689 2.367l1.788.467c.21-.708.709-1.352 1.901-1.352 1.031 0 1.466.483 1.466 1.272v.273c-2.626.242-5.042.934-5.042 3.173 0 1.417 1.063 2.302 2.561 2.302zm.644-1.481c-.805 0-1.208-.387-1.208-.998 0-1.16 1.402-1.53 3.045-1.707v.644c0 1.433-.902 2.06-1.837 2.06zm20.058 1.24l-4.22-11.272h-2.77l-4.284 11.272h2.254l.983-2.786h4.735l.967 2.786h2.335zm-6.442-7.294c.451-1.257.644-1.852.789-2.287.161.45.354.998.789 2.27l.934 2.722h-3.463l.951-2.706zm9.756-3.978h-1.949v11.272h1.949V47.969zm4.39-.016h-2.094v2.013h2.094v-2.013zm-.048 3.269h-1.965v8.019h1.965v-8.02zm6.371 3.43l-.709 2.157c-.145-.338-.338-.74-.934-2.141l-1.465-3.446h-2.127l3.737 7.954-.241.725c-.242.66-.5.853-1.08.853h-1.884v1.627h2.094c1.401 0 2.045-.58 2.512-1.933l3.27-9.226h-2.045l-1.128 3.43zm7.088 4.83c1.579 0 2.319-1.03 2.642-1.562v1.32h1.948v-8.018h-1.965v3.768c0 1.272-.289 2.834-1.82 2.834-.853 0-1.385-.483-1.385-1.723v-4.88h-1.965v5.347c0 1.755.886 2.914 2.545 2.914z" fill="#111"/><path d="M261.343 67.759h82.011c.62 0 1.124.503 1.124 1.123v4.492c0 .62-.504 1.124-1.124 1.124h-82.011c-.62 0-1.123-.504-1.123-1.124v-4.492c0-.62.503-1.123 1.123-1.123zm88.443 2.554a.815.815 0 11-.001 1.629.815.815 0 01.001-1.629zm6.432-2.554h38.197c.62 0 1.124.503 1.124 1.123v4.492c0 .62-.504 1.124-1.124 1.124h-38.197c-.62 0-1.123-.504-1.123-1.124v-4.492c0-.62.503-1.123 1.123-1.123z" fill="#E0E0E0"/><path d="M519.612 99.702H196.276V98.58h323.336v1.123z" fill="#F2F2F2"/><path d="M225.424 125.698c0-1.606-1.286-2.907-2.876-2.907-1.588 0-2.876 1.301-2.876 2.907s1.288 2.908 2.876 2.908c1.59 0 2.876-1.302 2.876-2.908zm-7.909 7.268v1.901h10.066v-1.901c0-1.933-3.113-2.907-5.033-2.907-1.92 0-5.033.974-5.033 2.907zm22.285.88c2.479 0 3.8-1.304 3.8-3.093 0-1.598-1.233-2.566-2.949-2.932l-1.408-.308c-1.115-.25-1.628-.662-1.628-1.497 0-.88.704-1.525 1.98-1.525 1.614 0 2.23 1.042 2.464 1.731l1.378-.631c-.308-1.026-1.451-2.419-3.71-2.419-2.17 0-3.579 1.261-3.579 2.918 0 1.745 1.085 2.523 2.684 2.86l1.364.307c1.261.263 1.863.778 1.863 1.628 0 .968-.763 1.642-2.171 1.642-1.613 0-2.463-.997-2.831-2.17l-1.422.646c.484 1.612 1.877 2.843 4.165 2.843zm7.993 0c1.496 0 2.186-1.026 2.42-1.45v1.246h1.35v-7.274h-1.379v3.167c0 1.13-.087 3.109-1.906 3.109-.91 0-1.496-.527-1.496-1.832v-4.444h-1.38v4.767c0 1.612.734 2.711 2.391 2.711zm9.874.001c1.716 0 2.977-1.466 2.977-3.841 0-2.391-1.261-3.844-2.977-3.844-1.276 0-1.979.705-2.317 1.305v-4.091h-1.378v10.266h1.335v-1.1c.351.601 1.084 1.305 2.36 1.305zm-.395-1.174c-1.159 0-1.995-.893-1.995-2.683 0-1.788.836-2.654 1.995-2.654 1.13 0 1.951.675 1.951 2.654 0 1.966-.821 2.683-1.951 2.683zm7.758 1.174c1.878 0 2.962-.88 2.962-2.258 0-1.613-1.614-2.084-2.449-2.26l-.866-.161c-1.012-.19-1.232-.468-1.232-.937 0-.513.441-.969 1.408-.969 1.145 0 1.586.719 1.762 1.217l1.217-.469c-.293-.924-1.16-1.848-2.964-1.848-1.511 0-2.742.895-2.742 2.2 0 1.393 1.042 1.863 2.288 2.112l.879.161c.998.192 1.307.558 1.307 1.071 0 .645-.543 1.012-1.554 1.012-1.189 0-1.718-.63-1.909-1.378l-1.304.425c.308 1.378 1.672 2.082 3.197 2.082zm7.747 0c1.643 0 2.743-.953 3.227-2.302l-1.306-.455c-.249.806-.792 1.569-1.935 1.569-1.16 0-2.083-.85-2.083-2.654 0-1.774.938-2.654 2.068-2.654 1.011 0 1.54.645 1.789 1.363l1.291-.439c-.367-1.144-1.408-2.113-3.065-2.113-2.04 0-3.522 1.57-3.522 3.843 0 2.346 1.409 3.842 3.536 3.842zm6.207-.206v-3.27c0-1.716.674-2.684 2.288-2.684.293 0 .543.029.777.058v-1.408a2.52 2.52 0 00-.674-.073c-1.452 0-2.172 1.086-2.421 1.642v-1.538h-1.35v7.273h1.38zm5.917-10.265h-1.468v1.644h1.468v-1.644zm-.029 2.991h-1.394v7.275h1.394v-7.275zm3.766 10.133v-3.959c.352.601 1.042 1.305 2.317 1.305 1.717 0 2.979-1.466 2.979-3.842 0-2.39-1.262-3.842-2.979-3.842-1.275 0-2.009.705-2.36 1.305v-1.1h-1.335V136.5h1.378zm1.922-3.827c-1.159 0-1.996-.894-1.996-2.684 0-1.788.837-2.653 1.996-2.653 1.129 0 1.95.674 1.95 2.653 0 1.966-.821 2.684-1.95 2.684zm9.52.966v-1.187h-1.525c-.5 0-.719-.22-.719-.719v-4.222h1.966v-1.144h-1.966v-2.272h-1.379v2.272H294.8v1.144h1.657v4.34c0 1.202.631 1.788 1.833 1.788h1.79zm2.969-10.263h-1.467v1.644h1.467v-1.644zm-.03 2.991h-1.394v7.275h1.394v-7.275zm5.277 7.48c1.951 0 3.447-1.613 3.447-3.827s-1.438-3.858-3.447-3.858c-2.009 0-3.461 1.644-3.461 3.858 0 2.184 1.496 3.827 3.461 3.827zm0-1.189c-1.202 0-2.023-.849-2.023-2.623 0-1.79.821-2.684 2.023-2.684 1.189 0 2.009.894 2.009 2.684 0 1.774-.82 2.623-2.009 2.623zm6.654.982v-3.137c0-1.027.029-3.138 1.936-3.138.939 0 1.541.528 1.541 1.832v4.443h1.378v-4.765c0-1.613-.734-2.713-2.522-2.713-1.527 0-2.23 1.071-2.377 1.423v-1.218h-1.335v7.273h1.379zm13.346.207c1.276 0 1.995-.704 2.347-1.305v1.1h1.349v-10.266h-1.378v4.107c-.353-.602-1.056-1.321-2.318-1.321-1.716 0-2.992 1.467-2.992 3.858 0 2.376 1.276 3.827 2.992 3.827zm.382-1.174c-1.115 0-1.951-.674-1.951-2.653 0-1.965.836-2.684 1.951-2.684 1.173 0 2.009.895 2.009 2.684 0 1.789-.836 2.653-2.009 2.653zm8.537 1.174c1.51 0 2.669-.705 3.198-2.097l-1.262-.454c-.205.513-.719 1.393-1.893 1.393-.998 0-1.965-.587-2.024-2.332h5.12c.264-2.375-1.027-4.195-3.199-4.195-1.891 0-3.3 1.496-3.3 3.872 0 2.448 1.335 3.813 3.36 3.813zm-1.951-4.59c.116-1.261.953-1.995 1.891-1.995.969 0 1.791.689 1.805 1.995h-3.696zm11.282 4.382v-1.187h-1.526c-.499 0-.718-.22-.718-.719v-4.222h1.965v-1.144h-1.965v-2.272h-1.38v2.272h-1.657v1.144h1.657v4.34c0 1.202.632 1.788 1.835 1.788h1.789zm3.437.208c1.159 0 1.862-.513 2.376-1.305.088.615.294 1.1 1.35 1.1h1.056v-1.173h-.748c-.337 0-.426-.089-.426-.427v-3.328c0-1.569-.938-2.552-2.904-2.552-1.921 0-2.962 1.042-3.196 2.039l1.318.425c.192-.558.602-1.306 1.878-1.306 1.071 0 1.527.514 1.527 1.35v.219c-2.362.192-4.576.867-4.576 2.876 0 1.29.923 2.082 2.345 2.082zm.368-1.13c-.865 0-1.292-.411-1.292-1.07 0-1.158 1.453-1.584 3.155-1.76v.748c0 1.453-.939 2.082-1.863 2.082zm7.128-9.341h-1.468v1.644h1.468v-1.644zm-.031 2.991h-1.393v7.275h1.393v-7.275zm3.767-2.991h-1.379v10.266h1.379v-10.266zm4.898 10.471c1.877 0 2.962-.88 2.962-2.258 0-1.613-1.614-2.084-2.45-2.26l-.865-.161c-1.012-.19-1.233-.468-1.233-.937 0-.513.441-.969 1.409-.969 1.144 0 1.584.719 1.76 1.217l1.217-.469c-.292-.924-1.158-1.848-2.962-1.848-1.511 0-2.743.895-2.743 2.2 0 1.393 1.042 1.863 2.288 2.112l.88.161c.997.192 1.305.558 1.305 1.071 0 .645-.541 1.012-1.553 1.012-1.189 0-1.717-.63-1.909-1.378l-1.304.425c.308 1.378 1.673 2.082 3.198 2.082zm-144.322 26.564c2.054 0 3.31-1.074 3.842-2.596l-1.438-.568c-.338 1.015-1.039 1.812-2.404 1.812-1.619 0-2.621-1.196-2.621-3.104 0-1.896 1.014-3.019 2.621-3.019 1.377 0 2.054.869 2.368 1.775l1.461-.555c-.398-1.365-1.727-2.561-3.817-2.561-2.549 0-4.288 1.896-4.288 4.372 0 2.524 1.631 4.444 4.276 4.444zm6.935 0c1.184 0 1.74-.773 1.981-1.171v.99h1.462v-6.014h-1.474v2.826c0 .954-.217 2.125-1.365 2.125-.64 0-1.039-.362-1.039-1.292v-3.659h-1.474v4.009c0 1.317.665 2.186 1.909 2.186zm6.703-.181v-2.536c0-1.473.556-2.089 1.825-2.089.217 0 .434.012.652.036v-1.497a1.744 1.744 0 00-.399-.037c-1.341 0-1.896.954-2.102 1.438v-1.329h-1.437v6.014h1.461zm5.05 0v-2.536c0-1.473.556-2.089 1.824-2.089.217 0 .435.012.652.036v-1.497a1.729 1.729 0 00-.398-.037c-1.341 0-1.897.954-2.102 1.438v-1.329h-1.438v6.014h1.462zm5.994.181c1.594 0 2.428-.809 2.814-1.751l-1.329-.495c-.217.507-.616 1.087-1.461 1.087-.773 0-1.438-.447-1.486-1.667h4.24c.193-1.992-.87-3.55-2.803-3.55-1.667 0-2.911 1.268-2.911 3.188 0 1.993 1.16 3.188 2.936 3.188zm-1.426-3.912c.109-.882.677-1.365 1.401-1.365.761 0 1.293.483 1.341 1.365h-2.742zm7.099 3.731v-2.741c0-.725.024-2.222 1.377-2.222.665 0 1.087.386 1.087 1.292v3.671h1.474v-3.997c0-1.316-.592-2.198-2.029-2.198a2.16 2.16 0 00-1.945 1.135v-.954h-1.426v6.014h1.462zm9.578 0v-1.195h-1.281c-.386 0-.556-.182-.556-.568v-3.104h1.595v-1.147h-1.595v-1.884h-1.473v1.884h-1.305v1.147h1.305v3.333c0 .954.543 1.534 1.522 1.534h1.788zm5.593 2.355v-3.2c.29.459.906 1.026 1.944 1.026 1.523 0 2.549-1.256 2.549-3.188 0-1.932-1.026-3.188-2.549-3.188-1.05 0-1.703.592-1.981 1.026v-.845h-1.425v8.369h1.462zm1.449-3.333c-.894 0-1.51-.676-1.51-2.041 0-1.353.616-2.029 1.51-2.029.858 0 1.51.532 1.51 2.029 0 1.51-.652 2.041-1.51 2.041zm5.9-7.475h-1.461v8.453h1.461v-8.453zm3.34 8.634c1.015 0 1.655-.507 2.018-1.074.072.531.338.893 1.099.893h1.123v-1.159h-.555c-.314 0-.363-.073-.363-.362v-2.428c0-1.473-.906-2.246-2.561-2.246-1.691 0-2.633.882-2.766 1.775l1.341.35c.157-.531.532-1.014 1.425-1.014.774 0 1.1.362 1.1.954v.205c-1.969.181-3.781.701-3.781 2.379 0 1.063.797 1.727 1.92 1.727zm.484-1.111c-.604 0-.906-.29-.906-.748 0-.87 1.051-1.148 2.283-1.281v.484c0 1.074-.677 1.545-1.377 1.545zm6.204.93v-2.741c0-.725.024-2.222 1.377-2.222.664 0 1.087.386 1.087 1.292v3.671h1.474v-3.997c0-1.316-.592-2.198-2.03-2.198a2.163 2.163 0 00-1.945 1.135v-.954h-1.425v6.014h1.462zm153.093 19.692l.49.49-4.297 4.296h-.49v-.492l4.297-4.294zm1.917-3.207a.527.527 0 00-.372.155l-.976.975 1.999 1.998.975-.976a.53.53 0 000-.75l-1.247-1.247a.523.523 0 00-.379-.155zm-1.917 1.7l-5.362 5.36v1.997h1.998l5.362-5.36-1.998-1.997zm13.273 6.973c1.94 0 3.125-1.016 3.627-2.453l-1.358-.535c-.319.958-.979 1.711-2.269 1.711-1.528 0-2.476-1.13-2.476-2.933 0-1.79.959-2.851 2.476-2.851 1.301 0 1.939.821 2.235 1.677l1.382-.525c-.376-1.289-1.631-2.418-3.604-2.418-2.407 0-4.05 1.79-4.05 4.128 0 2.384 1.54 4.199 4.037 4.199zm6.435-.171v-2.59c0-.684.022-2.098 1.301-2.098.627 0 1.025.365 1.025 1.221v3.467h1.393v-3.775c0-1.243-.582-2.077-1.849-2.077-1.174 0-1.688.731-1.87 1.074v-3.207h-1.381v7.985h1.381zm7.049.17c.958 0 1.562-.479 1.904-1.015.069.502.319.844 1.038.844h1.062v-1.095h-.525c-.296 0-.342-.069-.342-.342v-2.293c0-1.391-.857-2.121-2.42-2.121-1.597 0-2.487.833-2.612 1.676l1.267.331c.148-.502.501-.958 1.345-.958.73 0 1.039.343 1.039.901v.194c-1.859.171-3.57.662-3.57 2.247 0 1.003.753 1.631 1.814 1.631zm.456-1.05c-.57 0-.856-.273-.856-.706 0-.821.993-1.084 2.156-1.21v.457c0 1.014-.638 1.459-1.3 1.459zm6.086.879v-2.59c0-.684.022-2.098 1.301-2.098.627 0 1.025.365 1.025 1.221v3.467h1.393v-3.775c0-1.243-.559-2.076-1.917-2.076-1.106 0-1.654.73-1.836 1.073v-.902h-1.347v5.68h1.381zm9.33 2.224c1.06 0 1.917-.582 1.917-1.689 0-.935-.754-1.664-1.917-1.664h-2.452c-.366 0-.548-.092-.548-.297 0-.193.147-.353.467-.456.33.148.731.194 1.131.194 1.311 0 2.259-.776 2.372-2.031l.022-.171c.058-.616.184-.706.594-.706h.558v-1.084h-.49c-.697 0-.923.274-.992.924-.319-.593-1.062-1.095-2.1-1.095-1.392 0-2.395.878-2.395 2.121 0 .605.262 1.118.627 1.414-.433.252-.878.662-.878 1.232 0 .491.193.776.524.992-.331.217-.706.627-.706 1.153 0 .706.467 1.163 1.63 1.163h2.636zm-1.402-4.882c-.663 0-1.097-.422-1.097-1.083 0-.65.434-1.118 1.097-1.118.661 0 1.094.468 1.094 1.118 0 .661-.433 1.083-1.094 1.083zm-1.05 3.821c-.411 0-.697-.16-.697-.559 0-.285.193-.514.353-.604h2.556c.502 0 .776.193.776.569 0 .411-.274.594-.776.594h-2.212zm7.972-.992c1.506 0 2.295-.764 2.66-1.654l-1.256-.468c-.206.48-.582 1.027-1.38 1.027-.73 0-1.358-.422-1.404-1.574h4.005c.182-1.882-.822-3.353-2.647-3.353-1.574 0-2.749 1.197-2.749 3.011 0 1.882 1.094 3.011 2.771 3.011zm-1.345-3.695c.103-.833.639-1.289 1.323-1.289.719 0 1.221.456 1.268 1.289h-2.591z" fill="#000"/><path d="M496.743 193.32h-73.977a1.63 1.63 0 01-1.629-1.628v-20.895c0-.898.73-1.63 1.629-1.63h73.977c.899 0 1.63.732 1.63 1.63v20.895a1.63 1.63 0 01-1.63 1.628zm-73.977-23.338a.816.816 0 00-.815.815v20.895c0 .449.366.814.815.814h73.977c.45 0 .816-.365.816-.814v-20.895a.816.816 0 00-.816-.815h-73.977z" fill="#DADADA"/><path d="M217.627 171.759c0-.62.007-1.123.017-1.123h1.897c.009 0 .017.503.017 1.123v14.863c0 .621-.008 1.123-.017 1.123h-1.897c-.01 0-.017-.502-.017-1.123v-14.863z" fill="#E5EDFF"/><path d="M343.659 179.191a.816.816 0 11-1.632 0 .816.816 0 011.632 0z" fill="#E0E0E0"/><path d="M348.648 171.759c0-.62.008-1.123.018-1.123h.936c.01 0 .018.503.018 1.123v14.863c0 .621-.008 1.123-.018 1.123h-.936c-.01 0-.018-.502-.018-1.123v-14.863zm-132.124 25.16c0-.62.008-1.123.018-1.123h1.098c.01 0 .018.503.018 1.123v3.792c0 .621-.008 1.123-.018 1.123h-1.098c-.01 0-.018-.502-.018-1.123v-3.792z" fill="#E5EDFF"/><path d="M294.105 198.815a.816.816 0 11-1.63 0 .816.816 0 011.63 0z" fill="#E0E0E0"/><path d="M298.599 196.919c0-.62.008-1.123.018-1.123h.498c.01 0 .018.503.018 1.123v3.792c0 .621-.008 1.123-.018 1.123h-.498c-.01 0-.018-.502-.018-1.123v-3.792zm-49.406 68.433c0-.621.002-1.123.005-1.123h.601c.003 0 .005.502.005 1.123v8.824c0 .62-.002 1.123-.005 1.123h-.601c-.003 0-.005-.503-.005-1.123v-8.824zm-.093 20.062c0-.621.008-1.123.018-1.123h.579c.01 0 .019.502.019 1.123v4.799c0 .62-.009 1.123-.019 1.123h-.579c-.01 0-.018-.503-.018-1.123v-4.799zm44.728 0c0-.621.008-1.123.018-1.123h.58c.01 0 .018.502.018 1.123v4.799c0 .62-.008 1.123-.018 1.123h-.58c-.01 0-.018-.503-.018-1.123v-4.799zm59.716 0c0-.621.008-1.123.018-1.123h.19c.01 0 .018.502.018 1.123v4.799c0 .62-.008 1.123-.018 1.123h-.19c-.01 0-.018-.503-.018-1.123v-4.799zm18.092 0c0-.621.008-1.123.018-1.123h.206c.01 0 .018.502.018 1.123v4.799c0 .62-.008 1.123-.018 1.123h-.206c-.01 0-.018-.503-.018-1.123v-4.799z" fill="#E5EDFF"/><path d="M542.346-.064h-329.18v356.259h329.18V-.065z" fill="#fff"/><path d="M541.328.407v355.336H213.642V.407h327.686z" fill="#fff"/><path d="M541.328.407v355.336H213.642V.407h327.686z" stroke="#DEDEDE" stroke-width="1.22"/><path d="M239.492 25.356c0-.557.445-1.01.993-1.01h30.179c.55 0 .994.453.994 1.01v30.406a1 1 0 01-.994 1.009h-30.179a1 1 0 01-.993-1.01V25.357z" fill="#000"/><path d="M252.152 42.065h6.845v6.785h3.644V31.9h-3.644v6.701h-6.845v-6.7h-3.644V48.85h3.644v-6.785z" fill="#fff"/><path d="M285.149 40.092V35.17h5.214v4.922h2.066V28.795h-2.066v4.567h-5.214v-4.567h-2.066v11.297h2.066zm11.869.242c1.335 0 2.177-.678 2.654-1.437.095.71.445 1.195 1.447 1.195h1.478v-1.55h-.731c-.414 0-.477-.096-.477-.484v-3.243c0-1.97-1.192-3.002-3.37-3.002-2.225 0-3.465 1.178-3.64 2.372l1.764.468c.207-.71.7-1.355 1.876-1.355 1.017 0 1.446.484 1.446 1.274v.275c-2.59.242-4.975.936-4.975 3.179 0 1.42 1.049 2.308 2.528 2.308zm.635-1.485c-.794 0-1.192-.387-1.192-1 0-1.162 1.383-1.534 3.004-1.711v.645c0 1.437-.89 2.066-1.812 2.066zm8.639 1.485c1.558 0 2.289-1.033 2.607-1.566v1.324h1.924v-8.037h-1.94v3.776c0 1.275-.286 2.84-1.796 2.84-.842 0-1.367-.484-1.367-1.726v-4.89h-1.939v5.358c0 1.759.874 2.92 2.511 2.92zm10.698-.242l1.017-3.664c.398-1.388.541-1.888.668-2.404.127.484.286 1.016.667 2.42l1.018 3.648h2.32l2.591-8.037h-2.002l-.795 2.776c-.604 2.227-.779 2.92-.89 3.308-.128-.387-.318-1.097-.747-2.711l-.954-3.373h-2.289l-.906 3.227c-.477 1.727-.668 2.486-.779 2.905-.127-.435-.334-1.21-.842-3.179l-.811-2.953h-2.003l2.559 8.037h2.178zm11.662.242c1.335 0 2.178-.678 2.655-1.437.095.71.445 1.195 1.446 1.195h1.478v-1.55h-.731c-.413 0-.477-.096-.477-.484v-3.243c0-1.97-1.192-3.002-3.37-3.002-2.225 0-3.465 1.178-3.64 2.372l1.765.468c.206-.71.699-1.355 1.875-1.355 1.018 0 1.447.484 1.447 1.274v.275c-2.591.242-4.975.936-4.975 3.179 0 1.42 1.049 2.308 2.527 2.308zm.636-1.485c-.795 0-1.192-.387-1.192-1 0-1.162 1.383-1.534 3.004-1.711v.645c0 1.437-.89 2.066-1.812 2.066zm19.794 1.243l-4.164-11.297h-2.734l-4.228 11.297h2.225l.97-2.792h4.673l.954 2.792h2.304zm-6.358-7.31c.445-1.26.636-1.857.779-2.292.159.451.35 1 .779 2.275l.922 2.727h-3.418l.938-2.71zm9.629-3.987h-1.924v11.297h1.924V28.795zm4.332-.016h-2.066v2.017h2.066V28.78zm-.048 3.276h-1.939v8.037h1.939v-8.037zm6.288 3.437l-.699 2.163c-.143-.34-.334-.742-.922-2.147l-1.447-3.453h-2.098l3.688 7.972-.239.726c-.238.662-.492.856-1.065.856h-1.859v1.63h2.066c1.383 0 2.019-.581 2.48-1.937l3.226-9.247h-2.018l-1.113 3.437zm6.995 4.842c1.558 0 2.289-1.033 2.607-1.566v1.324h1.923v-8.037h-1.939v3.776c0 1.275-.286 2.84-1.796 2.84-.843 0-1.367-.484-1.367-1.726v-4.89h-1.94v5.358c0 1.759.875 2.92 2.512 2.92z" fill="#111"/><path d="M282.745 48.629h80.934c.612 0 1.109.504 1.109 1.126v4.502c0 .621-.497 1.126-1.109 1.126h-80.934a1.118 1.118 0 01-1.109-1.126v-4.502c0-.622.497-1.126 1.109-1.126zm87.281 2.56a.81.81 0 01.804.817.81.81 0 01-.804.817.81.81 0 01-.804-.817.81.81 0 01.804-.817zm6.348-2.56h37.696c.612 0 1.108.504 1.108 1.126v4.502c0 .621-.496 1.126-1.108 1.126h-37.696a1.117 1.117 0 01-1.108-1.126v-4.502c0-.622.496-1.126 1.108-1.126z" fill="#E0E0E0"/><path d="M538.836 80.644H217.318v-1.126h321.518v1.126z" fill="#F2F2F2"/><path d="M247.413 110.423c.503 0 .946-.275 1.175-.691l2.403-4.355a.67.67 0 00-.584-.993h-9.933l-.631-1.342h-2.195v1.342h1.343l2.416 5.093-.906 1.638c-.49.898.154 1.992 1.174 1.992h8.053v-1.341h-8.053l.739-1.343h4.999zm-6.302-4.696h8.154l-1.852 3.354h-4.711l-1.591-3.354zm.564 8.052a1.34 1.34 0 00-1.335 1.341 1.34 1.34 0 001.335 1.342c.739 0 1.343-.604 1.343-1.342 0-.738-.604-1.341-1.343-1.341zm6.711 0a1.34 1.34 0 000 2.683c.738 0 1.342-.604 1.342-1.342 0-.738-.604-1.341-1.342-1.341zm12.21 1.105v-4.237h2.126c1.378 0 2.054.484 2.288 1.789l.411 2.448h1.599l-.513-2.58c-.249-1.247-.749-1.935-2.128-2.156 1.335-.263 2.449-1.159 2.449-2.743 0-1.569-1.186-2.786-3.313-2.786h-4.386v10.265h1.467zm0-8.915h2.699c1.144 0 1.993.512 1.993 1.672 0 1.158-.849 1.685-1.993 1.685h-2.699v-3.357zm11.127 9.121c1.511 0 2.668-.705 3.196-2.098l-1.26-.453c-.206.513-.719 1.392-1.892 1.392-.998 0-1.967-.587-2.025-2.331h5.119c.263-2.376-1.026-4.195-3.197-4.195-1.892 0-3.301 1.497-3.301 3.872 0 2.448 1.335 3.813 3.36 3.813zm-1.952-4.59c.118-1.261.954-1.995 1.893-1.995.968 0 1.788.689 1.803 1.995h-3.696zm10.005 4.59c1.643 0 2.743-.953 3.227-2.302l-1.305-.455c-.25.806-.792 1.569-1.936 1.569-1.16 0-2.083-.85-2.083-2.654 0-1.774.938-2.654 2.068-2.654 1.012 0 1.54.645 1.79 1.363l1.29-.44c-.367-1.144-1.408-2.112-3.065-2.112-2.039 0-3.52 1.57-3.52 3.843 0 2.346 1.407 3.842 3.534 3.842zm7.646 0c1.511 0 2.669-.705 3.197-2.098l-1.261-.453c-.206.513-.72 1.392-1.894 1.392-.997 0-1.965-.587-2.023-2.331h5.12c.263-2.376-1.027-4.195-3.198-4.195-1.892 0-3.302 1.497-3.302 3.872 0 2.448 1.336 3.813 3.361 3.813zm-1.952-4.59c.118-1.261.954-1.995 1.893-1.995.968 0 1.789.689 1.804 1.995h-3.697zm8.406 4.384v-3.137c0-1.027.03-3.138 1.936-3.138.94 0 1.541.528 1.541 1.833v4.442h1.378v-4.765c0-1.613-.734-2.713-2.523-2.713-1.526 0-2.23 1.071-2.377 1.423v-1.217h-1.334v7.272h1.379zm11.486 0v-1.188h-1.527c-.499 0-.717-.219-.717-.718v-4.223h1.965v-1.143h-1.965v-2.273h-1.38v2.273h-1.656v1.143h1.656v4.34c0 1.202.631 1.789 1.833 1.789h1.791zm9.991.205c2.947 0 5.119-2.14 5.119-5.336 0-3.182-2.172-5.338-5.119-5.338-2.949 0-5.163 2.156-5.163 5.338 0 3.196 2.199 5.336 5.163 5.336zm-.015-1.334c-2.244 0-3.579-1.714-3.579-4.002 0-2.287 1.335-4.003 3.579-4.003s3.578 1.716 3.578 4.003c0 2.288-1.334 4.002-3.578 4.002zm8.461 1.13v-3.27c0-1.716.674-2.684 2.288-2.684.293 0 .542.029.777.058v-1.408a2.563 2.563 0 00-.674-.073c-1.453 0-2.173 1.086-2.423 1.642v-1.539h-1.348v7.274h1.38zm6.841.205c1.276 0 1.995-.704 2.348-1.305v1.099h1.348v-10.265h-1.378v4.106c-.352-.601-1.057-1.32-2.318-1.32-1.715 0-2.992 1.467-2.992 3.858 0 2.376 1.277 3.827 2.992 3.827zm.382-1.174c-1.115 0-1.951-.674-1.951-2.653 0-1.965.836-2.685 1.951-2.685 1.173 0 2.009.896 2.009 2.685 0 1.789-.836 2.653-2.009 2.653zm8.536 1.174c1.511 0 2.671-.705 3.199-2.098l-1.261-.453c-.205.513-.72 1.392-1.894 1.392-.997 0-1.965-.587-2.024-2.331h5.12c.265-2.376-1.028-4.195-3.198-4.195-1.893 0-3.3 1.497-3.3 3.872 0 2.448 1.335 3.813 3.358 3.813zm-1.95-4.59c.118-1.261.952-1.995 1.892-1.995.968 0 1.791.689 1.805 1.995h-3.697zm8.405 4.385v-3.27c0-1.716.676-2.684 2.289-2.684.294 0 .543.029.778.058v-1.408a2.577 2.577 0 00-.675-.073c-1.452 0-2.172 1.086-2.421 1.642v-1.539h-1.349v7.274h1.378zm6.959.205c1.877 0 2.963-.88 2.963-2.259 0-1.612-1.613-2.083-2.45-2.258l-.864-.162c-1.013-.19-1.233-.468-1.233-.937 0-.513.44-.969 1.409-.969 1.143 0 1.583.72 1.759 1.219l1.217-.471c-.293-.924-1.158-1.848-2.962-1.848-1.511 0-2.742.895-2.742 2.2 0 1.393 1.041 1.863 2.288 2.112l.88.161c.996.192 1.304.558 1.304 1.071 0 .645-.542 1.012-1.554 1.012-1.188 0-1.716-.63-1.907-1.378l-1.305.425c.308 1.378 1.672 2.082 3.197 2.082z" fill="#000"/><path d="M237.499 152.972c0-.621.008-1.123.018-1.123h1.319c.01 0 .018.502.018 1.123v4.493c0 .62-.008 1.123-.018 1.123h-1.319c-.01 0-.018-.503-.018-1.123v-4.493zm95.111 0c0-.621.008-1.123.018-1.123h.614c.01 0 .018.502.018 1.123v4.493c0 .62-.008 1.123-.018 1.123h-.614c-.01 0-.018-.503-.018-1.123v-4.493z" fill="#BAE3E0"/><path d="M328.028 155.22a.815.815 0 11-1.63 0 .815.815 0 011.63 0z" fill="#E0E0E0"/><path d="M237.499 204.082c0-.621.008-1.123.018-1.123h1.319c.01 0 .018.502.018 1.123v4.493c0 .62-.008 1.123-.018 1.123h-1.319c-.01 0-.018-.503-.018-1.123v-4.493z" fill="#BAE3E0"/><path d="M328.028 206.33a.815.815 0 11-1.63-.002.815.815 0 011.63.002z" fill="#E0E0E0"/><path d="M333.105 204.082c0-.621.008-1.123.018-1.123h.615c.01 0 .018.502.018 1.123v4.493c0 .62-.008 1.123-.018 1.123h-.615c-.01 0-.018-.503-.018-1.123v-4.493zm-95.457 11.232c0-.621.008-1.124.018-1.124h.79c.01 0 .018.503.018 1.124v4.798c0 .62-.008 1.123-.018 1.123h-.79c-.01 0-.018-.503-.018-1.123v-4.798z" fill="#BAE3E0"/><path d="M295.112 217.714a.815.815 0 11-1.633-.001.815.815 0 011.633.001z" fill="#E0E0E0"/><path d="M299.605 215.314c0-.621.009-1.124.019-1.124h.352c.01 0 .018.503.018 1.124v4.798c0 .62-.008 1.123-.018 1.123h-.352c-.01 0-.019-.503-.019-1.123v-4.798z" fill="#B8E1DF"/><path d="M237.994 266.73c0-.621.008-1.124.018-1.124h1.319c.01 0 .019.503.019 1.124v4.492c0 .62-.009 1.123-.019 1.123h-1.319c-.01 0-.018-.503-.018-1.123v-4.492z" fill="#BAE3E0"/><path d="M328.028 268.977a.814.814 0 11-1.629 0 .814.814 0 011.629 0z" fill="#E0E0E0"/><path d="M332.61 266.73c0-.621.008-1.124.018-1.124h.614c.01 0 .018.503.018 1.124v4.492c0 .62-.008 1.123-.018 1.123h-.614c-.01 0-.018-.503-.018-1.123v-4.492z" fill="#BAE3E0"/><path d="M472.622 148.202l-2.557-2.608.843-.858 3.995 4.073-3.995 4.075-.843-.86 2.557-2.606h-6.682v-1.216h6.682zm13.614 4.519l2.692-7.983h-1.631l-1.483 4.732c-.399 1.278-.513 1.631-.65 2.019-.114-.388-.229-.741-.629-2.03l-1.459-4.721h-1.656l2.683 7.983h2.133zm5.376-7.995h-1.482v1.426h1.482v-1.426zm-.034 2.316h-1.39v5.679h1.39v-5.679zm4.273 5.85c1.506 0 2.294-.764 2.66-1.654l-1.257-.469c-.205.479-.581 1.028-1.38 1.028-.73 0-1.358-.422-1.403-1.574h4.004c.183-1.881-.821-3.354-2.646-3.354-1.575 0-2.749 1.198-2.749 3.01 0 1.882 1.094 3.013 2.771 3.013zm-1.345-3.696c.103-.833.638-1.288 1.323-1.288.719 0 1.221.455 1.267 1.288h-2.59zm8.278 3.525l.731-2.59c.285-.981.387-1.333.479-1.699.091.343.205.718.479 1.71l.73 2.579h1.665l1.86-5.68h-1.437l-.571 1.962c-.434 1.574-.559 2.064-.639 2.338-.091-.274-.228-.777-.536-1.917l-.684-2.383h-1.643l-.65 2.28c-.343 1.221-.48 1.757-.559 2.054a86.82 86.82 0 01-.605-2.246l-.582-2.088h-1.438l1.838 5.68h1.562z" fill="#000"/><path d="M457.791 136.997h59.085c.676 0 1.222.547 1.222 1.222v21.18c0 .675-.546 1.222-1.222 1.222h-59.085a1.222 1.222 0 01-1.222-1.222v-21.18c0-.675.547-1.222 1.222-1.222z" stroke="#DADADA" stroke-width=".809"/><path d="M472.622 205.08l-2.557-2.608.843-.858 3.995 4.073-3.995 4.074-.843-.859 2.557-2.607h-6.682v-1.215h6.682zm13.614 4.519l2.692-7.982h-1.631l-1.483 4.733c-.399 1.277-.513 1.63-.65 2.018-.114-.388-.229-.741-.629-2.03l-1.459-4.721h-1.656l2.683 7.982h2.133zm5.376-7.995h-1.482v1.427h1.482v-1.427zm-.034 2.316h-1.39v5.679h1.39v-5.679zm4.273 5.85c1.506 0 2.294-.763 2.66-1.653l-1.257-.467c-.205.478-.581 1.026-1.38 1.026-.73 0-1.358-.423-1.403-1.574h4.004c.183-1.882-.821-3.354-2.646-3.354-1.575 0-2.749 1.199-2.749 3.012 0 1.881 1.094 3.01 2.771 3.01zm-1.345-3.695c.103-.833.638-1.288 1.323-1.288.719 0 1.221.455 1.267 1.288h-2.59zm8.278 3.524l.731-2.589c.285-.981.387-1.334.479-1.699.091.342.205.718.479 1.71l.73 2.578h1.665l1.86-5.68h-1.437l-.571 1.963c-.434 1.574-.559 2.064-.639 2.337-.091-.273-.228-.775-.536-1.917l-.684-2.383h-1.643l-.65 2.281c-.343 1.22-.48 1.757-.559 2.054-.092-.308-.24-.856-.605-2.247l-.582-2.088h-1.438l1.838 5.68h1.562z" fill="#000"/><path d="M457.791 193.875h59.085c.676 0 1.222.548 1.222 1.222v21.181a1.22 1.22 0 01-1.222 1.221h-59.085a1.221 1.221 0 01-1.222-1.221v-21.181c0-.674.547-1.222 1.222-1.222z" stroke="#DADADA" stroke-width=".809"/><path d="M472.622 261.958l-2.557-2.605.843-.861 3.995 4.073-3.995 4.075-.843-.859 2.557-2.607h-6.682v-1.216h6.682zm13.614 4.52l2.692-7.983h-1.631l-1.483 4.733c-.399 1.277-.513 1.631-.65 2.019-.114-.388-.229-.742-.629-2.031l-1.459-4.721h-1.656l2.683 7.983h2.133zm5.376-7.995h-1.482v1.426h1.482v-1.426zm-.034 2.316h-1.39v5.679h1.39v-5.679zm4.273 5.85c1.506 0 2.294-.764 2.66-1.653l-1.257-.467c-.205.479-.581 1.026-1.38 1.026-.73 0-1.358-.423-1.403-1.575h4.004c.183-1.882-.821-3.353-2.646-3.353-1.575 0-2.749 1.199-2.749 3.012 0 1.882 1.094 3.01 2.771 3.01zm-1.345-3.695c.103-.834.638-1.289 1.323-1.289.719 0 1.221.455 1.267 1.289h-2.59zm8.278 3.524l.731-2.589c.285-.982.387-1.334.479-1.699.091.342.205.717.479 1.71l.73 2.578h1.665l1.86-5.68h-1.437l-.571 1.963c-.434 1.574-.559 2.064-.639 2.337-.091-.273-.228-.776-.536-1.917l-.684-2.383h-1.643l-.65 2.281c-.343 1.22-.48 1.757-.559 2.053a86.82 86.82 0 01-.605-2.246l-.582-2.088h-1.438l1.838 5.68h1.562z" fill="#000"/><path d="M457.791 250.754h59.085c.676 0 1.222.548 1.222 1.222v21.181a1.22 1.22 0 01-1.222 1.221h-59.085a1.221 1.221 0 01-1.222-1.221v-21.181c0-.674.547-1.222 1.222-1.222z" stroke="#DADADA" stroke-width=".809"/><g opacity=".186"><path d="M562.479-21.11h-329.18v356.259h329.18v-356.26z" fill="#fff"/><path d="M561.461-20.64v355.337H233.775V-20.639h327.686z" fill="#fff"/><path d="M561.461-20.64v355.337H233.775V-20.639h327.686z" stroke="#DEDEDE" stroke-width="1.22"/><path d="M257.782 4.37c0-.556.451-1.006 1.006-1.006h30.581c.556 0 1.006.45 1.006 1.006v30.338c0 .557-.45 1.007-1.006 1.007h-30.581c-.555 0-1.006-.45-1.006-1.007V4.37z" fill="#000"/><path d="M270.61 21.042h6.936v6.77h3.693V10.9h-3.693v6.686h-6.936V10.9h-3.693v16.912h3.693v-6.77z" fill="#fff"/><path d="M304.046 19.073v-4.91h5.283v4.91h2.094V7.802h-2.094v4.557h-5.283V7.802h-2.094v11.271h2.094zm12.027.242c1.353 0 2.206-.677 2.689-1.433.097.708.451 1.191 1.466 1.191h1.498v-1.546h-.741c-.419 0-.483-.096-.483-.483v-3.236c0-1.965-1.208-2.995-3.415-2.995-2.255 0-3.511 1.175-3.688 2.367l1.788.467c.209-.709.708-1.353 1.9-1.353 1.031 0 1.466.483 1.466 1.272v.274c-2.625.242-5.041.934-5.041 3.172 0 1.417 1.063 2.303 2.561 2.303zm.644-1.482c-.805 0-1.208-.386-1.208-.998 0-1.16 1.401-1.53 3.044-1.707v.644c0 1.433-.902 2.061-1.836 2.061zm8.754 1.482c1.578 0 2.319-1.03 2.641-1.562v1.32h1.949v-8.019h-1.965v3.768c0 1.272-.29 2.834-1.82 2.834-.854 0-1.385-.483-1.385-1.723v-4.879h-1.965V16.4c0 1.755.886 2.915 2.545 2.915zm10.84-.242l1.03-3.655c.403-1.385.548-1.884.677-2.4.129.484.29 1.015.676 2.416l1.031 3.64h2.352l2.625-8.02h-2.029l-.806 2.77c-.612 2.222-.789 2.914-.902 3.3-.128-.386-.322-1.094-.757-2.704l-.966-3.366h-2.319l-.918 3.22c-.484 1.724-.677 2.48-.79 2.9-.129-.436-.338-1.208-.853-3.173l-.822-2.947h-2.029l2.593 8.02h2.207zm11.817.242c1.353 0 2.206-.677 2.69-1.433.096.708.451 1.191 1.465 1.191h1.498v-1.546h-.741c-.418 0-.483-.096-.483-.483v-3.236c0-1.965-1.208-2.995-3.414-2.995-2.255 0-3.512 1.175-3.689 2.367l1.788.467c.209-.709.709-1.353 1.901-1.353 1.03 0 1.465.483 1.465 1.272v.274c-2.625.242-5.041.934-5.041 3.172 0 1.417 1.063 2.303 2.561 2.303zm.644-1.482c-.805 0-1.208-.386-1.208-.998 0-1.16 1.401-1.53 3.044-1.707v.644c0 1.433-.902 2.061-1.836 2.061zm20.058 1.24l-4.22-11.271h-2.77l-4.285 11.271h2.255l.983-2.785h4.735l.966 2.785h2.336zm-6.443-7.294c.451-1.256.645-1.852.79-2.287.161.451.354.999.789 2.27l.934 2.722h-3.463l.95-2.705zm9.757-3.977h-1.949v11.271h1.949V7.802zm4.39-.016h-2.094v2.012h2.094V7.786zm-.048 3.268h-1.965v8.02h1.965v-8.02zm6.371 3.43l-.709 2.158c-.145-.338-.338-.74-.934-2.142l-1.466-3.446h-2.126l3.737 7.955-.242.724c-.241.66-.499.854-1.079.854h-1.884v1.626h2.094c1.401 0 2.045-.58 2.512-1.932l3.27-9.227h-2.046l-1.127 3.43zm7.088 4.83c1.578 0 2.319-1.03 2.641-1.561v1.32h1.949v-8.019h-1.965v3.768c0 1.272-.29 2.834-1.82 2.834-.854 0-1.385-.483-1.385-1.723v-4.879H387.4V16.4c0 1.755.886 2.915 2.545 2.915z" fill="#111"/><path d="M301.61 27.591h82.011c.62 0 1.123.503 1.123 1.123v4.493c0 .62-.503 1.123-1.123 1.123H301.61c-.62 0-1.124-.503-1.124-1.123v-4.493c0-.62.504-1.123 1.124-1.123zm88.442 2.554a.815.815 0 110 1.631.815.815 0 010-1.63zm6.433-2.554h38.197c.62 0 1.123.503 1.123 1.123v4.493c0 .62-.503 1.123-1.123 1.123h-38.197c-.62 0-1.123-.503-1.123-1.123v-4.493c0-.62.503-1.123 1.123-1.123z" fill="#E0E0E0"/><path d="M559.878 59.535H236.543v-1.123h323.335v1.123z" fill="#F2F2F2"/><path d="M273.117 90.273l-7.047-7.045-7.046 7.045 7.046 7.045 7.047-7.045zm-9.06 2.013a2.848 2.848 0 114.029-4.026 2.848 2.848 0 01-4.029 4.026zm27.551 2.472l-3.785-10.265h-2.024l-3.857 10.266h1.584l.968-2.714h4.517l.954 2.713h1.643zm-5.633-6.848c.396-1.086.631-1.774.792-2.2.162.426.382 1.042.778 2.2l.982 2.787h-3.549l.997-2.787zm9.996 7.054c1.643 0 2.744-.953 3.227-2.303l-1.305-.454c-.249.806-.792 1.57-1.937 1.57-1.158 0-2.082-.851-2.082-2.655 0-1.774.939-2.654 2.068-2.654 1.012 0 1.54.644 1.789 1.362l1.292-.439c-.368-1.143-1.409-2.112-3.067-2.112-2.038 0-3.519 1.57-3.519 3.843 0 2.346 1.407 3.842 3.534 3.842zm9.156-.207V93.57h-1.525c-.499 0-.719-.22-.719-.719V88.63h1.966v-1.144h-1.966v-2.272h-1.379v2.272h-1.656v1.144h1.656v4.34c0 1.202.631 1.788 1.833 1.788h1.79zm2.969-10.264h-1.468v1.644h1.468v-1.644zm-.029 2.991h-1.395v7.275h1.395v-7.275zm5.716 7.273l2.391-7.272h-1.408l-1.203 3.989c-.264.865-.513 1.686-.63 2.039-.103-.339-.353-1.16-.631-2.04l-1.262-3.988h-1.451l2.478 7.272h1.716zm5.399-10.264h-1.468v1.644h1.468v-1.644zm-.03 2.991h-1.393v7.275h1.393v-7.275zm6.715 7.273V93.57h-1.525c-.499 0-.718-.22-.718-.719V88.63h1.966v-1.144h-1.966v-2.272h-1.38v2.272h-1.657v1.144h1.657v4.34c0 1.202.633 1.788 1.836 1.788h1.787zm4.773-3.504c-.337.983-.426 1.261-.558 1.657-.132-.352-.263-.674-.748-1.804l-1.496-3.622h-1.54l3.213 7.186-.367 1.04c-.205.558-.499.675-.997.675h-1.467v1.232h1.511c1.275 0 1.818-.454 2.288-1.833l2.86-8.3h-1.453l-1.246 3.77z" fill="#000"/><path d="M271.183 120.085l-5.694-5.693-5.695 5.693 5.695 5.693 5.694-5.693zm-7.321 1.626a2.298 2.298 0 010-3.252 2.299 2.299 0 013.253 0 2.298 2.298 0 010 3.252 2.299 2.299 0 01-3.253 0z" fill="#666"/><path d="M264.986 148.02h1.007v-20.23h-1.007v20.23z" fill="#DADADA"/><path d="M285.83 121.577c1.51 0 2.446-.956 2.446-2.344 0-1.389-.885-2.245-2.224-2.245-.785 0-1.299.312-1.661.745l.141-.946.221-1.469h3.322v-.926h-4.067l-.604 4.025 1.067.171c.262-.432.705-.764 1.329-.764.886 0 1.44.573 1.44 1.439 0 .875-.554 1.439-1.45 1.439-.775 0-1.339-.443-1.51-1.238l-1.017.332c.202.996 1.077 1.781 2.567 1.781zm6.762-.14v-.816h-1.047c-.342 0-.493-.151-.493-.493v-2.898h1.349v-.785h-1.349v-1.56h-.946v1.56h-1.138v.785h1.138v2.979c0 .825.432 1.228 1.258 1.228h1.228zm2.017 0v-2.154c0-.705.021-2.154 1.329-2.154.644 0 1.057.363 1.057 1.258v3.05h.946v-3.271c0-1.107-.533-1.862-1.671-1.862-1.137 0-1.57.735-1.661.976v-2.888h-.946v7.045h.946zm13.193 0l-2.597-7.045h-1.39l-2.647 7.045h1.087l.664-1.862h3.101l.654 1.862h1.128zm-3.866-4.7c.272-.745.433-1.218.544-1.51.111.292.262.715.533 1.51l.675 1.912h-2.436l.684-1.912zm5.813 6.662v-2.717c.241.412.714.895 1.59.895 1.178 0 2.044-1.006 2.044-2.636 0-1.641-.866-2.637-2.044-2.637-.876 0-1.379.483-1.621.896v-.755h-.916v6.954h.947zm1.318-2.627c-.795 0-1.369-.614-1.369-1.841 0-1.228.574-1.822 1.369-1.822.776 0 1.339.463 1.339 1.822 0 1.348-.563 1.841-1.339 1.841zm4.551.665v-2.245c0-1.177.463-1.841 1.57-1.841.201 0 .372.02.533.04v-.966c-.11-.03-.251-.05-.463-.05-.996 0-1.489.744-1.661 1.127v-1.057h-.926v4.992h.947zm4.06-7.045h-1.006v1.127h1.006v-1.127zm-.02 2.053h-.956v4.992h.956v-4.992zm2.585-2.053h-.946v7.045h.946v-7.045z" fill="#C84218"/><path d="M283.263 129.014c0-.619.504-1.123 1.124-1.123H387.84c.621 0 1.123.504 1.123 1.123v5.805c0 .62-.502 1.123-1.123 1.123H284.387c-.62 0-1.124-.503-1.124-1.123v-5.805z" fill="#F9E9E1"/><path d="M395.087 131.917a.816.816 0 11-1.632 0 .816.816 0 011.632 0z" fill="#E0E0E0"/><path d="M399.581 129.014c0-.619.503-1.123 1.123-1.123h48.087c.621 0 1.123.504 1.123 1.123v5.805c0 .62-.502 1.123-1.123 1.123h-48.087c-.62 0-1.123-.503-1.123-1.123v-5.805z" fill="#F9E9E1"/><path d="M271.183 157.738l-5.694-5.693-5.695 5.693 5.695 5.693 5.694-5.693zm-7.321 1.626a2.3 2.3 0 113.253-3.252 2.3 2.3 0 01-3.253 3.252z" fill="#666"/><path d="M264.986 185.813h1.007v-20.369h-1.007v20.369z" fill="#DADADA"/><path d="M285.78 159.371c1.49 0 2.376-.875 2.376-1.942 0-.956-.584-1.631-1.42-1.822.745-.241 1.289-.835 1.289-1.701 0-1.056-.826-1.861-2.245-1.861-1.409 0-2.255.875-2.346 1.962l1.037.171c.071-.734.544-1.258 1.309-1.258.674 0 1.228.443 1.228 1.148 0 .724-.564 1.157-1.248 1.157h-.504v.855h.504c.785 0 1.359.453 1.359 1.218 0 .745-.584 1.198-1.339 1.198-.856 0-1.419-.584-1.46-1.5l-1.057.221c.101 1.309 1.047 2.154 2.517 2.154zm4.73-.141v-2.244c0-1.177.463-1.842 1.571-1.842.201 0 .372.021.533.041v-.966a1.693 1.693 0 00-.463-.051c-.996 0-1.49.745-1.661 1.127v-1.056h-.926v4.991h.946zm4.696.141c.876 0 1.369-.483 1.611-.896v.755h.926v-7.044h-.946v2.817c-.242-.412-.725-.905-1.591-.905-1.177 0-2.053 1.006-2.053 2.646 0 1.631.876 2.627 2.053 2.627zm.262-.805c-.765 0-1.339-.463-1.339-1.822 0-1.348.574-1.841 1.339-1.841.805 0 1.379.614 1.379 1.841 0 1.228-.574 1.822-1.379 1.822zm12.206.664l-2.597-7.044h-1.389l-2.648 7.044h1.087l.665-1.862h3.1l.654 1.862h1.128zm-3.866-4.7c.272-.744.433-1.217.544-1.509.111.292.262.714.533 1.509l.675 1.913h-2.436l.684-1.913zm5.813 6.663v-2.718c.241.413.715.896 1.59.896 1.178 0 2.044-1.006 2.044-2.637 0-1.64-.866-2.636-2.044-2.636-.875 0-1.379.483-1.62.895v-.754h-.916v6.954h.946zm1.319-2.627c-.796 0-1.369-.614-1.369-1.842 0-1.227.573-1.821 1.369-1.821.775 0 1.338.463 1.338 1.821 0 1.349-.563 1.842-1.338 1.842zm4.55.664v-2.244c0-1.177.463-1.842 1.57-1.842.201 0 .373.021.534.041v-.966a1.699 1.699 0 00-.463-.051c-.997 0-1.49.745-1.661 1.127v-1.056h-.927v4.991h.947zm4.061-7.044h-1.007v1.127h1.007v-1.127zm-.021 2.053h-.956v4.991h.956v-4.991zm2.587-2.053h-.947v7.044h.947v-7.044z" fill="#C84218"/><path d="M283.263 166.808c0-.62.504-1.123 1.124-1.123h49.093c.621 0 1.123.503 1.123 1.123v5.805c0 .62-.502 1.123-1.123 1.123h-49.093c-.62 0-1.124-.503-1.124-1.123v-5.805z" fill="#F9E9E1"/><path d="M340.727 169.711a.816.816 0 11-1.632 0 .816.816 0 011.632 0z" fill="#E0E0E0"/><path d="M345.221 166.808c0-.62.503-1.123 1.123-1.123h85.333c.621 0 1.124.503 1.124 1.123v5.805c0 .62-.503 1.123-1.124 1.123h-85.333c-.62 0-1.123-.503-1.123-1.123v-5.805z" fill="#F9E9E1"/><path d="M271.183 195.531l-5.694-5.693-5.695 5.693 5.695 5.694 5.694-5.694zm-7.321 1.627a2.299 2.299 0 010-3.253 2.299 2.299 0 013.253 0 2.299 2.299 0 010 3.253 2.299 2.299 0 01-3.253 0z" fill="#666"/><path d="M264.986 223.466h1.007v-20.229h-1.007v20.229z" fill="#DADADA"/><path d="M286.153 196.883v-7.045h-.815c-.453.846-1.238 1.349-2.074 1.55v1.047c.775-.111 1.51-.644 1.893-1.288v5.736h.996zm3.574.141c1.289 0 2.034-.604 2.034-1.55 0-1.107-1.108-1.429-1.682-1.55l-.594-.11c-.694-.131-.845-.322-.845-.645 0-.352.302-.664.966-.664.785 0 1.087.493 1.208.836l.836-.322c-.202-.634-.795-1.269-2.034-1.269-1.037 0-1.882.614-1.882 1.51 0 .956.715 1.278 1.57 1.449l.604.111c.685.131.896.382.896.735 0 .442-.372.694-1.067.694-.815 0-1.178-.433-1.309-.946l-.895.292c.211.946 1.147 1.429 2.194 1.429zm6.183-.141v-.815h-1.047c-.342 0-.493-.151-.493-.493v-2.899h1.349v-.785h-1.349v-1.559h-.946v1.559h-1.138v.785h1.138v2.979c0 .826.432 1.228 1.258 1.228h1.228zm9.35 0l-2.597-7.045h-1.389l-2.648 7.045h1.087l.665-1.862h3.1l.654 1.862h1.128zm-3.866-4.7c.272-.744.433-1.217.544-1.509.111.292.262.714.533 1.509l.675 1.912h-2.436l.684-1.912zm5.813 6.662v-2.717c.241.413.715.896 1.59.896 1.178 0 2.044-1.006 2.044-2.637 0-1.64-.866-2.637-2.044-2.637-.875 0-1.379.484-1.62.896v-.755h-.916v6.954h.946zm1.319-2.626c-.796 0-1.37-.614-1.37-1.842 0-1.228.574-1.821 1.37-1.821.775 0 1.338.463 1.338 1.821 0 1.349-.563 1.842-1.338 1.842zm4.55.664v-2.244c0-1.178.463-1.842 1.57-1.842.201 0 .373.02.534.04v-.966a1.747 1.747 0 00-.463-.05c-.997 0-1.49.745-1.661 1.127v-1.057h-.927v4.992h.947zm4.062-7.045h-1.007v1.128h1.007v-1.128zm-.021 2.053h-.956v4.992h.956v-4.992zm2.586-2.053h-.947v7.045h.947v-7.045z" fill="#C84218"/><path d="M283.263 204.461c0-.62.504-1.123 1.124-1.123h80.3c.621 0 1.123.503 1.123 1.123v5.805c0 .62-.502 1.123-1.123 1.123h-80.3c-.62 0-1.124-.503-1.124-1.123v-5.805z" fill="#F9E9E1"/><path d="M371.934 207.363c0 .45-.365.817-.815.817a.816.816 0 11.815-.817z" fill="#E0E0E0"/><path d="M376.427 204.461c0-.62.504-1.123 1.124-1.123h126.606c.621 0 1.124.503 1.124 1.123v5.805c0 .62-.503 1.123-1.124 1.123H377.551c-.62 0-1.124-.503-1.124-1.123v-5.805z" fill="#F9E9E1"/><path d="M271.183 232.178l-5.694-5.693-5.695 5.693 5.695 5.693 5.694-5.693zm-7.321 1.626a2.298 2.298 0 010-3.252 2.299 2.299 0 013.253 0 2.298 2.298 0 010 3.252 2.299 2.299 0 01-3.253 0z" fill="#666"/><path d="M285.78 234.818c1.49 0 2.376-.876 2.376-1.943 0-.956-.584-1.63-1.42-1.821.745-.242 1.289-.835 1.289-1.701 0-1.057-.826-1.862-2.245-1.862-1.409 0-2.255.876-2.346 1.963l1.037.171c.071-.735.544-1.258 1.309-1.258.674 0 1.228.443 1.228 1.147 0 .725-.564 1.157-1.248 1.157h-.504v.856h.504c.785 0 1.359.453 1.359 1.218 0 .744-.584 1.197-1.339 1.197-.856 0-1.419-.584-1.46-1.499l-1.057.221c.101 1.308 1.047 2.154 2.517 2.154zm6.361 0c1.671 0 2.809-1.278 2.809-3.684 0-2.415-1.269-3.643-2.809-3.643-1.55 0-2.829 1.228-2.829 3.643 0 2.406 1.148 3.684 2.829 3.684zm0-.896c-1.097 0-1.772-.976-1.772-2.788 0-1.69.695-2.747 1.772-2.747 1.057 0 1.752 1.057 1.752 2.747 0 1.822-.675 2.788-1.752 2.788zm7.176.755v-.815h-1.047c-.343 0-.494-.151-.494-.493v-2.899h1.349v-.785h-1.349v-1.56h-.946v1.56h-1.137v.785h1.137v2.979c0 .825.433 1.228 1.258 1.228h1.229zm2.017 0v-2.154c0-.704.02-2.154 1.329-2.154.644 0 1.057.363 1.057 1.258v3.05h.946v-3.271c0-1.107-.534-1.862-1.671-1.862-1.138 0-1.57.735-1.661.976v-2.888h-.946v7.045h.946zm8.666 0v-6.018l2.406 6.018h.715l2.376-6.018v6.018h1.006v-7.045h-1.6l-1.581 4.036c-.342.865-.463 1.157-.533 1.328-.071-.171-.191-.453-.534-1.328l-1.62-4.036h-1.641v7.045H310zm9.568.141c.795 0 1.278-.353 1.631-.896.06.423.201.755.926.755h.724v-.805h-.513c-.231 0-.292-.061-.292-.292v-2.285c0-1.077-.644-1.751-1.993-1.751-1.319 0-2.034.715-2.195 1.399l.906.292c.131-.383.413-.896 1.289-.896.735 0 1.047.352 1.047.926v.151c-1.621.131-3.141.594-3.141 1.973 0 .885.634 1.429 1.611 1.429zm.251-.775c-.594 0-.885-.282-.885-.735 0-.795.996-1.087 2.164-1.208v.514c0 .996-.644 1.429-1.279 1.429zm4.873.634v-2.244c0-1.178.463-1.842 1.57-1.842.201 0 .372.02.534.04v-.966a1.75 1.75 0 00-.464-.05c-.996 0-1.489.744-1.661 1.127v-1.057h-.926v4.992h.947zm5.058.141c1.128 0 1.883-.655 2.215-1.58l-.896-.312c-.171.553-.544 1.076-1.329 1.076-.795 0-1.429-.583-1.429-1.821 0-1.218.644-1.822 1.419-1.822.695 0 1.057.443 1.228.936l.886-.302c-.252-.785-.966-1.449-2.104-1.449-1.399 0-2.416 1.077-2.416 2.637 0 1.61.966 2.637 2.426 2.637zm4.261-.141v-2.154c0-.704.021-2.154 1.329-2.154.644 0 1.057.363 1.057 1.258v3.05h.946v-3.271c0-1.107-.533-1.862-1.671-1.862-1.137 0-1.57.735-1.661.976v-2.888h-.946v7.045h.946z" fill="#C84218"/><path d="M283.263 241.44c0-.62.504-1.123 1.124-1.123h36.006c.62 0 1.124.503 1.124 1.123v5.805c0 .619-.504 1.123-1.124 1.123h-36.006c-.62 0-1.124-.504-1.124-1.123v-5.805z" fill="#F9E9E1"/><path d="M327.641 244.342a.816.816 0 11-1.632 0 .816.816 0 011.632 0z" fill="#E0E0E0"/><path d="M332.134 241.44c0-.62.503-1.123 1.123-1.123h57.147c.621 0 1.123.503 1.123 1.123v5.805c0 .619-.502 1.123-1.123 1.123h-57.147c-.62 0-1.123-.504-1.123-1.123v-5.805z" fill="#F9E9E1"/></g><path d="M103.973 217.267l-11.586 11.584L80.8 217.267l11.587-11.583 11.586 11.583z" fill="#fff"/><path d="M103.973 217.267l-11.586 11.584L80.8 217.267l11.587-11.583 11.586 11.583zm-8.263-3.322a4.703 4.703 0 00-6.646 0 4.7 4.7 0 106.646 0z" fill="#BAE3E0"/><path d="M368.727 426.595l-11.587 11.583-11.587-11.583 11.587-11.583 11.587 11.583z" fill="#fff"/><path d="M368.727 426.595l-11.587 11.583-11.587-11.583 11.587-11.583 11.587 11.583zm-8.264-3.322a4.703 4.703 0 00-6.646 0 4.7 4.7 0 106.646 0z" fill="#BAE3E0"/><path d="M140.582 181.125l-9.525-1.721 1.722-9.524 9.525 1.722-1.722 9.523z" fill="#fff"/><path d="M140.582 181.125l-9.525-1.721 1.722-9.524 9.525 1.722-1.722 9.523zm-1.17-5.129a2.777 2.777 0 00-5.463-.987 2.777 2.777 0 005.463.987z" fill="#F3CEBC"/><path d="M54.26 348.688l-9.525-1.721 1.722-9.524 9.526 1.722-1.723 9.523z" fill="#fff"/><path d="M54.26 348.688l-9.525-1.721 1.722-9.524 9.526 1.722-1.723 9.523zm-1.17-5.129a2.777 2.777 0 00-2.237-3.225 2.778 2.778 0 00-3.226 2.238 2.777 2.777 0 002.238 3.225 2.778 2.778 0 003.225-2.238z" fill="#F3CEBC"/></g><defs><clipPath id="clip0"><path fill="#fff" d="M0 0h542v438H0z"/></clipPath></defs></svg>