<svg width="526" height="431" fill="none" xmlns="http://www.w3.org/2000/svg"><g clip-path="url(#clip0)"><path d="M43.126 103.745h-4.007V92.369h4.007v11.376zm-32.052 0h4.007V92.369h-4.007v11.376zm32.051 40.951h-4.007v-10.617h4.007v10.617zm.001 41.71h-4.007v-10.618h4.007v10.618zm-32.053-41.71h4.007v-10.617h-4.007v10.617zm.001 41.71h4.007v-10.618h-4.007v10.618zm383.657-82.661h-4.006V92.369h4.006v11.376zm-35.092 0h-4.007V92.369h4.007v11.376zm-29.047 0h-4.006V92.369h4.006v11.376zm-28.046 0h-4.007V92.369h4.007v11.376zm92.185 40.951h-4.006v-10.617h4.006v10.617zm0 41.71h-4.006v-10.618h4.006v10.618zm-35.092-41.71h-4.007v-10.617h4.007v10.617zm0 41.71h-4.007v-10.618h4.007v10.618zm-29.048-41.71h-4.006v-10.617h4.006v10.617zm.001 41.71h-4.006v-10.618h4.006v10.618zm-28.046-41.71h-4.007v-10.617h4.007v10.617zm0 41.71h-4.007v-10.618h4.007v10.618zm-144.233-82.661h-4.006V92.369h4.006v11.376zm-28.046 0h-4.007V92.369h4.007v11.376zm-29.047 0h-4.006V92.369h4.006v11.376zm-29.047 0h-4.007V92.369h4.007v11.376zm200.325 0h-4.007V92.369h4.007v11.376zm-28.046 0h-4.007V92.369h4.007v11.376zm-29.046 0h-4.007V92.369h4.007v11.376zm-28.046 0h-4.007V92.369h4.007v11.376zM43.126 56.727h-4.007V45.351h4.007v11.376zm-32.052 0h4.007V45.351h-4.007v11.376zm383.657 0h-4.006V45.351h4.006v11.376zm-35.092 0h-4.007V45.351h4.007v11.376zm-29.047 0h-4.006V45.351h4.006v11.376zm-28.046 0h-4.007V45.351h4.007v11.376zm-144.233 0h-4.006V45.351h4.006v11.376zm-28.046 0h-4.007V45.351h4.007v11.376zm-29.047 0h-4.006V45.351h4.006v11.376zm-29.047 0h-4.007V45.351h4.007v11.376zm200.325 0h-4.007V45.351h4.007v11.376zm-28.046 0h-4.007V45.351h4.007v11.376zm-29.046 0h-4.007V45.351h4.007v11.376zm-28.046 0h-4.007V45.351h4.007v11.376zm-29.048 87.969h-4.006v-10.617h4.006v10.617zm.001 41.71h-4.006v-10.618h4.006v10.618zm-28.046-41.71h-4.007v-10.617h4.007v10.617zm0 41.71h-4.007v-10.618h4.007v10.618zm-29.047-41.71h-4.006v-10.617h4.006v10.617zm0 41.71h-4.006v-10.618h4.006v10.618zm-29.047-41.71h-4.007v-10.617h4.007v10.617zm0 41.71h-4.007v-10.618h4.007v10.618zm200.325-41.71h-4.007v-10.617h4.007v10.617zm0 41.71h-4.007v-10.618h4.007v10.618zm-28.046-41.71h-4.007v-10.617h4.007v10.617zm0 41.71h-4.007v-10.618h4.007v10.618zm-29.046-41.71h-4.007v-10.617h4.007v10.617zm0 41.71h-4.007v-10.618h4.007v10.618zm-28.047-41.71h-4.007v-10.617h4.007v10.617zm.001 41.71h-4.007v-10.618h4.007v10.618zM43.126 228.115h-4.007v-10.617h4.007v10.617zm-32.052-.001h4.007v-10.617h-4.007v10.617zm32.052 47.777h-4.007v-11.376h4.007v11.376zm-4.006 47.777h4.006v-11.376h-4.007v11.376zm-28.046-47.776h4.007v-11.376h-4.007v11.376zm0 47.776h4.007v-11.376h-4.007v11.376zm383.657-95.553h-4.006v-10.617h4.006v10.617zm-35.092 0h-4.007v-10.617h4.007v10.617zm-29.047 0h-4.006v-10.617h4.006v10.617zm-28.046 0h-4.007v-10.617h4.007v10.617zm92.185 47.776h-4.006v-11.376h4.006v11.376zm-4.006 47.777h4.006v-11.376h-4.006v11.376zm38.914-219.923h-4.006V92.369h4.006v11.376zm0 40.951h-4.006v-10.617h4.006v10.617zm0-87.969h-4.006V45.351h4.006v11.376zm0 171.388h-4.006v-10.617h4.006v10.617zm0-41.709h-4.006v-10.618h4.006v10.618zm0 89.485h-4.006v-11.376h4.006v11.376zm-4.006 47.777h4.006v-11.376h-4.006v11.376zm37.997-219.922h4.007V92.37h-4.007v11.376zm0 40.95h4.007v-10.617h-4.007v10.617zm0 41.71h4.007v-10.618h-4.007v10.618zm0-129.679h4.007V45.351h-4.007v11.376zM39.12 13.453h4.006V2.077h-4.007v11.376zm-28.046 0h4.007V2.077h-4.007v11.376zm379.651 0h4.006V2.077h-4.006v11.376zm-35.093 0h4.007V2.077h-4.007v11.376zm-29.046 0h4.006V2.077h-4.006v11.376zm-28.047 0h4.007V2.077h-4.007v11.376zm-144.233 0h4.008V2.077h-4.008v11.376zm28.188 0h4.006V2.077h-4.006v11.376zm-56.234 0h4.007V2.077h-4.007v11.376zm-29.046 0h4.006V2.077h-4.006v11.376zm-29.05 0h4.007V2.077h-4.007v11.376zm200.327 0h4.007V2.077h-4.007v11.376zm-28.046 0h4.007V2.077h-4.007v11.376zm-29.046 0h4.007V2.077h-4.007v11.376zm214.234 0h4.006V2.077h-4.006v11.376zm37.997 0h4.007V2.077h-4.007v11.376zm0 214.661h4.007v-10.617h-4.007v10.617zm0 47.778h4.007v-11.376h-4.007v11.376zm0 47.776h4.007v-11.376h-4.007v11.376zm-103.991-47.777h-4.007v-11.376h4.007v11.376zm-4.007 47.777h4.007v-11.376h-4.007v11.376zm-25.04-47.777h-4.006v-11.376h4.006v11.376zm-4.006 47.777h4.006v-11.376h-4.006v11.376zm-24.04-47.777h-4.007v-11.376h4.007v11.376zm-4.007 47.777h4.007v-11.376h-4.007v11.376zm-140.226-95.553h-4.006v-10.617h4.006v10.617zm-28.046 0h-4.007v-10.617h4.007v10.617zm-29.047 0h-4.006v-10.617h4.006v10.617zm-29.047 0h-4.007v-10.617h4.007v10.617zm200.325 0h-4.007v-10.617h4.007v10.617zm-28.046 0h-4.007v-10.617h4.007v10.617zm-29.046 0h-4.007v-10.617h4.007v10.617zm-28.046 0h-4.007v-10.617h4.007v10.617zm-29.047 47.776h-4.006v-11.376h4.006v11.376zm-4.007 47.777h4.008v-11.376h-4.008v11.376zm-24.039-47.777h-4.007v-11.376h4.007v11.376zm-4.007 47.777h4.007v-11.376h-4.007v11.376zm-25.04-47.777h-4.006v-11.376h4.006v11.376zm-4.006 47.777h4.006v-11.376h-4.006v11.376zm-25.041-47.777h-4.007v-11.376h4.007v11.376zm-4.009 47.777h4.007v-11.376h-4.007v11.376zm204.334-47.777h-4.007v-11.376h4.007v11.376zm-4.007 47.777h4.007v-11.376h-4.007v11.376zm-24.039-47.777h-4.007v-11.376h4.007v11.376zm-4.007 47.777h4.007v-11.376h-4.007v11.376zm-25.039-47.777h-4.007v-11.376h4.007v11.376zm-4.007 47.777h4.007v-11.376h-4.007v11.376zm-24.04-47.776h-4.007v-11.376h4.007v11.376zm-4.122 47.767h4.007v-11.376h-4.007v11.376z" fill="#F2F2F2"/><path d="M541.579 64.471v395.415H89.593V64.471H541.58z" fill="#fff"/><g opacity=".029"><path d="M99.66-.365h20.133c1.113 0 2.014.9 2.014 2.013v20.127a2.013 2.013 0 01-2.014 2.013H99.66c-1.112 0-2.013-.9-2.013-2.013V1.648c0-1.113.9-2.013 2.013-2.013z" fill="#F2F2F2"/><path d="M114.425 6.01h-2.806a2.021 2.021 0 00-1.892-1.343 2.02 2.02 0 00-1.893 1.342h-2.805c-.738 0-1.342.604-1.342 1.343v9.391c0 .738.604 1.343 1.342 1.343h9.396c.738 0 1.342-.605 1.342-1.343V7.352c0-.739-.604-1.343-1.342-1.343zm-4.698-.168c.274 0 .503.228.503.503a.508.508 0 01-.503.503.508.508 0 01-.504-.503c0-.275.229-.503.504-.503zm4.698 10.901h-9.395V7.352h9.395v9.391z" fill="#000"/><path d="M111.793 11.396l-1.421-1.423-4.001 3.993v1.436h1.409l4.013-4.006zm1.188-1.181a.33.33 0 000-.475l-.946-.946a.331.331 0 00-.475 0l-.712.711 1.422 1.421.711-.711z" fill="#000"/><path d="M146.055 11.711l-3.117-8.453h-1.666l-3.178 8.453h1.305l.796-2.234h3.721l.786 2.234h1.353zm-4.638-5.64c.326-.893.518-1.46.651-1.811.133.35.314.857.64 1.812l.809 2.294h-2.922l.822-2.294zm6.975 5.64V8.885c0-.82.059-2.33 1.46-2.33.761 0 1.27.398 1.27 1.497v3.66h1.111V8.884c0-.82.036-2.33 1.474-2.33.761 0 1.256.398 1.256 1.497v3.66h1.148V7.737c0-1.425-.749-2.186-2.078-2.186-1.196 0-1.752.7-2.005 1.244-.314-.773-.992-1.244-1.862-1.244-1.026 0-1.557.628-1.811 1.075V5.72h-1.1v5.99h1.137zm10.759-8.453h-1.208V4.61h1.208V3.258zm-.024 2.463h-1.148v5.99h1.148v-5.99zm3.102 5.99V9.018c0-1.413.555-2.21 1.884-2.21.241 0 .448.024.641.049v-1.16a2.09 2.09 0 00-.557-.06c-1.196 0-1.786.893-1.992 1.352V5.721h-1.112v5.99h1.136z" fill="#666"/><path d="M170.127 7.183a1.007 1.007 0 11-.002 2.013 1.007 1.007 0 01.002-2.013z" fill="#C4C4C4"/><path d="M177.806 11.88c1.606 0 2.379-.93 2.379-2.898V3.258h-1.208v5.688c0 1.244-.35 1.86-1.184 1.86-.857 0-1.183-.665-1.171-1.945l-1.245.302c.025 1.703.894 2.717 2.429 2.717zm6.269 0c1.232 0 1.8-.845 1.993-1.195v1.026h1.112v-5.99h-1.136V8.33c0 .93-.072 2.56-1.57 2.56-.749 0-1.232-.435-1.232-1.51V5.722h-1.136v3.925c0 1.329.604 2.234 1.969 2.234zm7.153 0c1.547 0 2.441-.724 2.441-1.86 0-1.328-1.329-1.714-2.018-1.86l-.712-.132c-.834-.157-1.015-.387-1.015-.773 0-.423.362-.797 1.159-.797.943 0 1.305.592 1.45 1.002l1.003-.386c-.242-.76-.955-1.522-2.44-1.522-1.245 0-2.259.737-2.259 1.812 0 1.147.857 1.533 1.884 1.739l.725.133c.821.157 1.075.459 1.075.881 0 .532-.447.833-1.28.833-.979 0-1.414-.519-1.571-1.135l-1.075.35c.254 1.136 1.377 1.715 2.633 1.715zm7.421-.169v-.978h-1.257c-.41 0-.592-.181-.592-.592V6.663h1.619v-.942H196.8V3.85h-1.135v1.872H194.3v.942h1.365v3.575c0 .99.519 1.473 1.51 1.473h1.474zm5.499 0V9.127c0-.845.024-2.584 1.595-2.584.773 0 1.268.434 1.268 1.51v3.658h1.135V7.786c0-1.328-.604-2.234-2.077-2.234-1.257 0-1.836.882-1.957 1.172V5.72h-1.1v5.99h1.136zm8.275.17c1.606 0 2.839-1.329 2.839-3.153 0-1.823-1.184-3.176-2.839-3.176s-2.851 1.353-2.851 3.176c0 1.8 1.232 3.152 2.851 3.152zm0-.979c-.991 0-1.667-.7-1.667-2.162 0-1.473.676-2.21 1.667-2.21.978 0 1.655.737 1.655 2.21 0 1.462-.677 2.162-1.655 2.162zm6.869.81l.906-2.9c.351-1.11.459-1.484.58-1.847l.568 1.86.882 2.886h1.341l2.017-5.99h-1.196l-.858 2.754c-.374 1.244-.531 1.739-.628 2.017l-.495-1.655-.942-3.116h-1.329l-.87 2.85c-.362 1.184-.495 1.619-.58 1.933l-.604-1.993-.845-2.79h-1.184l1.957 5.99h1.28z" fill="#666"/><path d="M137.913 21.775h385.554a8.053 8.053 0 018.053 8.051v50.32a8.053 8.053 0 01-8.053 8.05h-377.5a8.053 8.053 0 01-8.054-8.05v-58.37z" fill="#FCF8EB"/><path d="M156.575 50.61c1.677 0 3.016-.45 3.946-1.014l-.466-.93c-.817.521-1.93.944-3.48.944-2.917 0-4.764-1.776-4.764-4.847 0-3.072 1.903-4.86 4.679-4.86 2.763 0 4.538 1.774 4.538 4.282 0 1.635-.634 2.691-1.451 2.691-.367 0-.592-.169-.592-.577V42h-1.043v.803a2.17 2.17 0 00-1.874-.986c-1.396 0-2.368 1.297-2.368 3.058 0 1.705.916 2.987 2.353 2.987.902 0 1.551-.48 1.945-1.1.099.522.451 1.071 1.494 1.071 1.466 0 2.678-1.409 2.678-3.635 0-3.057-2.325-5.297-5.68-5.297-3.368 0-5.834 2.254-5.834 5.861 0 3.62 2.241 5.847 5.919 5.847zm-.226-3.691c-.93 0-1.536-.846-1.536-2.142 0-1.24.634-2.071 1.593-2.071.958 0 1.592.789 1.592 2.015 0 1.324-.69 2.198-1.649 2.198zm10.763 2.029l1.775-6.172c.367-1.282.48-1.719.592-2.099l.564 2.113 1.677 6.157h1.635l2.551-9.862h-1.326l-1.395 5.748c-.437 1.832-.535 2.212-.647 2.663-.127-.45-.24-.845-.55-2l-1.733-6.411h-1.537l-1.691 5.946c-.437 1.55-.578 2.029-.69 2.465-.113-.437-.227-.901-.593-2.62l-1.338-5.791h-1.339l2.382 9.862h1.663zm11.88.197c1.142 0 1.847-.522 2.326-1.325.07.69.31 1.127 1.282 1.127h.945V47.92h-.691c-.338 0-.465-.099-.465-.465V44.2c0-1.45-.846-2.423-2.734-2.423-1.832 0-2.806 1-3.031 1.916l1.156.38c.198-.591.635-1.282 1.875-1.282 1.085 0 1.55.536 1.55 1.367v.24c-2.311.183-4.439.86-4.439 2.775 0 1.226.873 1.973 2.226 1.973zm.31-.987c-.859 0-1.311-.422-1.311-1.084 0-1.17 1.481-1.635 3.214-1.804v.747c0 1.508-.972 2.141-1.903 2.141zm6.737.79v-3.142c0-1.677.648-2.706 2.213-2.706.31 0 .577.043.788.07v-1.21c-.169-.057-.38-.085-.704-.085-1.381 0-2.086 1.028-2.325 1.606v-1.508h-1.156v6.974h1.184zm6.956.197c1.466 0 2.552-.747 3.031-2l-1.1-.395c-.211.535-.746 1.38-1.888 1.38-1 0-1.974-.591-2.03-2.395h4.976c.24-2.254-1.002-3.959-3.045-3.959-1.762 0-3.128 1.409-3.128 3.677 0 2.395 1.268 3.692 3.184 3.692zm-1.959-4.368c.1-1.254.917-2.043 1.903-2.043.973 0 1.819.69 1.833 2.043h-3.736zm8.05 4.17v-3.085c0-1.015.085-3.043 1.945-3.043.973 0 1.579.563 1.579 1.888v4.24h1.198v-4.522c0-1.55-.748-2.649-2.369-2.649-1.592 0-2.226 1.057-2.353 1.423v-4.115h-1.183v9.863h1.183zm9.754.198c1.818 0 3.284-1.494 3.284-3.678 0-2.17-1.424-3.691-3.284-3.691-1.874 0-3.312 1.522-3.312 3.691 0 2.156 1.48 3.678 3.312 3.678zm0-1.043c-1.184 0-2.058-.845-2.058-2.62 0-1.776.874-2.663 2.058-2.663 1.17 0 2.044.887 2.044 2.662 0 1.776-.874 2.621-2.044 2.621zm7.337 1.043c1.479 0 2.127-1.043 2.338-1.452v1.255h1.17v-6.975h-1.198v3.114c0 1.212-.21 3.001-1.902 3.001-.93 0-1.536-.535-1.536-1.86v-4.255h-1.198v4.537c0 1.564.719 2.635 2.326 2.635zm8.233 0c1.804 0 2.805-.86 2.805-2.128 0-1.48-1.453-1.958-2.313-2.155l-.872-.17c-.959-.183-1.199-.478-1.199-.958 0-.52.452-1 1.424-1 1.128 0 1.579.719 1.734 1.198l1.057-.409c-.268-.873-1.086-1.747-2.777-1.747-1.437 0-2.593.845-2.593 2.071 0 1.31 1.015 1.761 2.156 1.987l.873.169c.958.197 1.298.578 1.298 1.113 0 .648-.551 1.042-1.58 1.042-1.184 0-1.718-.648-1.887-1.38l-1.142.366c.282 1.268 1.508 2 3.016 2zm7.259 0c1.466 0 2.552-.747 3.031-2l-1.1-.395c-.211.535-.746 1.38-1.887 1.38-1.001 0-1.975-.591-2.031-2.395h4.976c.24-2.254-1.002-3.959-3.045-3.959-1.762 0-3.129 1.409-3.129 3.677 0 2.395 1.269 3.692 3.185 3.692zm-1.959-4.368c.099-1.254.916-2.043 1.903-2.043.972 0 1.819.69 1.833 2.043h-3.736zm14.206-.817h-3.889v1.24h3.889v-1.24zm8.637 5.185c1.564 0 2.607-.93 3.044-2.212l-1.128-.395c-.239.79-.775 1.564-1.931 1.564-1.155 0-2.072-.86-2.072-2.649 0-1.76.945-2.634 2.058-2.634 1.015 0 1.565.634 1.804 1.352l1.113-.38c-.324-1.071-1.324-2.015-2.903-2.015-1.93 0-3.326 1.522-3.326 3.677 0 2.255 1.339 3.692 3.341 3.692zm7.431 0c1.818 0 3.283-1.494 3.283-3.678 0-2.17-1.423-3.691-3.283-3.691-1.875 0-3.313 1.522-3.313 3.691 0 2.156 1.481 3.678 3.313 3.678zm0-1.043c-1.184 0-2.059-.845-2.059-2.62 0-1.776.875-2.663 2.059-2.663 1.17 0 2.043.887 2.043 2.662 0 1.776-.873 2.621-2.043 2.621zm7.335 1.043c1.48 0 2.129-1.043 2.341-1.452v1.255h1.17v-6.975h-1.198v3.114c0 1.212-.212 3.001-1.903 3.001-.93 0-1.536-.535-1.536-1.86v-4.255h-1.198v4.537c0 1.564.718 2.635 2.324 2.635zm7.079-10.06h-1.185v9.862h1.185v-9.862zm4.72 10.06c1.227 0 1.945-.705 2.284-1.325v1.127h1.169v-9.862h-1.184V43.1c-.339-.605-1.028-1.324-2.269-1.324-1.606 0-2.876 1.353-2.876 3.691 0 2.325 1.27 3.678 2.876 3.678zm.325-1.029c-1.1 0-1.959-.69-1.959-2.649 0-1.93.859-2.663 1.959-2.663 1.155 0 2 .874 2 2.663 0 1.804-.845 2.65-2 2.65zm11.941-2.38c-.296.873-.396 1.169-.537 1.563-.127-.352-.282-.704-.704-1.69l-1.537-3.636h-1.323l3.072 6.848-.367 1.056c-.225.62-.535.747-1.057.747h-1.325v1.07h1.354c1.24 0 1.732-.45 2.169-1.746l2.791-7.975h-1.268l-1.268 3.762zm6.749 3.409c1.818 0 3.284-1.494 3.284-3.678 0-2.17-1.423-3.691-3.284-3.691-1.874 0-3.311 1.522-3.311 3.691 0 2.156 1.479 3.678 3.311 3.678zm0-1.043c-1.183 0-2.057-.845-2.057-2.62 0-1.776.874-2.663 2.057-2.663 1.17 0 2.044.887 2.044 2.662 0 1.776-.874 2.621-2.044 2.621zm7.339 1.043c1.48 0 2.128-1.043 2.34-1.452v1.255h1.168v-6.975h-1.197v3.114c0 1.212-.212 3.001-1.903 3.001-.93 0-1.535-.535-1.535-1.86v-4.255h-1.198v4.537c0 1.564.718 2.635 2.325 2.635zm10.737-10.06h-1.184v9.862h1.184v-9.862zm5.129 10.06c1.818 0 3.285-1.494 3.285-3.678 0-2.17-1.425-3.691-3.285-3.691-1.874 0-3.311 1.522-3.311 3.691 0 2.156 1.479 3.678 3.311 3.678zm0-1.043c-1.184 0-2.057-.845-2.057-2.62 0-1.776.873-2.663 2.057-2.663 1.17 0 2.044.887 2.044 2.662 0 1.776-.874 2.621-2.044 2.621zm7.873 1.043c1.818 0 3.283-1.494 3.283-3.678 0-2.17-1.422-3.691-3.283-3.691-1.874 0-3.313 1.522-3.313 3.691 0 2.156 1.481 3.678 3.313 3.678zm0-1.043c-1.184 0-2.058-.845-2.058-2.62 0-1.776.874-2.663 2.058-2.663 1.17 0 2.044.887 2.044 2.662 0 1.776-.874 2.621-2.044 2.621zm11.875.846l-3.397-4.086 3.116-2.889h-1.565l-3.72 3.55v-6.438h-1.184v9.862h1.184v-2.085l1.324-1.226 2.692 3.311h1.55zm5.871-9.863h-1.269v1.536h1.269v-1.536zm-.028 2.888h-1.198v6.974h1.198v-6.974zm3.565 6.974v-3.085c0-1.015.084-3.043 1.944-3.043.973 0 1.579.563 1.579 1.888v4.24h1.197v-4.522c0-1.55-.704-2.649-2.438-2.649-1.494 0-2.183 1.057-2.31 1.423v-1.226h-1.157v6.974h1.185zm11.035 0V47.92h-1.381c-.55 0-.803-.254-.803-.803v-4.142h1.931v-1h-1.931v-2.156h-1.184v2.155h-1.635v1h1.635v4.242c0 1.155.593 1.732 1.791 1.732h1.577zm4.195.198c1.818 0 3.284-1.494 3.284-3.678 0-2.17-1.424-3.691-3.284-3.691-1.874 0-3.312 1.522-3.312 3.691 0 2.156 1.48 3.678 3.312 3.678zm0-1.043c-1.184 0-2.058-.845-2.058-2.62 0-1.776.874-2.663 2.058-2.663 1.17 0 2.044.887 2.044 2.662 0 1.776-.874 2.621-2.044 2.621zm10.547 1.043c1.141 0 1.846-.522 2.325-1.325.071.69.31 1.127 1.283 1.127h.944V47.92h-.691c-.338 0-.464-.099-.464-.465V44.2c0-1.45-.846-2.423-2.735-2.423-1.832 0-2.804 1-3.03 1.916l1.157.38c.197-.591.633-1.282 1.873-1.282 1.085 0 1.551.536 1.551 1.367v.24c-2.312.183-4.439.86-4.439 2.775 0 1.226.873 1.973 2.226 1.973zm.31-.987c-.86 0-1.311-.422-1.311-1.084 0-1.17 1.48-1.635 3.214-1.804v.747c0 1.508-.973 2.141-1.903 2.141zm10.37.79v-3.312c0-.986.071-2.803 1.79-2.803.931 0 1.564.507 1.564 1.845v4.27h1.171v-3.354c0-.944.055-2.761 1.803-2.761.93 0 1.564.507 1.564 1.831v4.283h1.198V44.34c0-1.648-.874-2.564-2.438-2.564-1.424 0-2.072.86-2.354 1.508-.338-.93-1.141-1.508-2.184-1.508-1.269 0-1.888.803-2.142 1.296v-1.099h-1.156v6.974h1.184zm12.58-9.863h-1.268v1.536h1.268v-1.536zm-.028 2.888h-1.198v6.974h1.198v-6.974zm4.72 7.172c1.804 0 2.805-.86 2.805-2.128 0-1.48-1.452-1.958-2.312-2.155l-.874-.17c-.958-.183-1.197-.478-1.197-.958 0-.52.451-1 1.423-1 1.127 0 1.579.719 1.734 1.198l1.056-.409c-.267-.873-1.085-1.747-2.776-1.747-1.437 0-2.592.845-2.592 2.071 0 1.31 1.015 1.761 2.156 1.987l.873.169c.958.197 1.297.578 1.297 1.113 0 .648-.55 1.042-1.579 1.042-1.184 0-1.719-.648-1.888-1.38l-1.141.366c.282 1.268 1.507 2 3.015 2zm6.951 0c1.804 0 2.805-.86 2.805-2.128 0-1.48-1.452-1.958-2.312-2.155l-.873-.17c-.959-.183-1.198-.478-1.198-.958 0-.52.451-1 1.423-1 1.127 0 1.579.719 1.735 1.198l1.056-.409c-.268-.873-1.086-1.747-2.777-1.747-1.437 0-2.592.845-2.592 2.071 0 1.31 1.015 1.761 2.156 1.987l.873.169c.958.197 1.298.578 1.298 1.113 0 .648-.551 1.042-1.58 1.042-1.184 0-1.719-.648-1.888-1.38l-1.141.366c.282 1.268 1.507 2 3.015 2zm5.824-10.06h-1.27v1.536h1.27v-1.536zm-.03 2.888h-1.198v6.974h1.198v-6.974zm3.566 6.974v-3.085c0-1.015.084-3.043 1.944-3.043.972 0 1.579.563 1.579 1.888v4.24h1.198v-4.522c0-1.55-.705-2.649-2.439-2.649-1.494 0-2.184 1.057-2.311 1.423v-1.226h-1.156v6.974h1.185zm11.403 2.748c1.169 0 2.17-.62 2.17-1.902 0-1.155-.888-1.902-2.213-1.902h-3.059c-.493 0-.662-.226-.662-.48 0-.295.267-.591.676-.76.395.211.847.282 1.326.282 1.55 0 2.648-1.015 2.747-2.593l.028-.38c.043-.86.339-.986.916-.986h.536v-1h-.69c-.718 0-1.058.436-1.17 1.07-.325-.606-1.128-1.268-2.382-1.268-1.621 0-2.777 1.127-2.777 2.592 0 .832.368 1.48.805 1.86-.508.31-1.058.803-1.058 1.494 0 .55.239.887.62 1.099-.423.267-.915.775-.915 1.48 0 .802.478 1.394 1.845 1.394h3.257zm-1.762-5.72c-.973 0-1.594-.648-1.594-1.62 0-.959.621-1.62 1.594-1.62.958 0 1.607.661 1.607 1.62 0 .972-.635 1.62-1.607 1.62zm-1.171 4.706c-.747 0-1.113-.212-1.113-.775 0-.465.338-.818.578-.959h3.283c.635 0 1.142.184 1.142.86 0 .676-.492.873-1.112.873h-2.778zm13.215-1.536c1.818 0 3.283-1.494 3.283-3.678 0-2.17-1.423-3.691-3.283-3.691-1.875 0-3.312 1.522-3.312 3.691 0 2.156 1.48 3.678 3.312 3.678zm0-1.043c-1.184 0-2.058-.845-2.058-2.62 0-1.776.874-2.663 2.058-2.663 1.169 0 2.043.887 2.043 2.662 0 1.776-.874 2.621-2.043 2.621zm6.307.846v-3.142c0-1.677.649-2.706 2.213-2.706.31 0 .578.043.789.07v-1.21c-.169-.057-.379-.085-.703-.085-1.382 0-2.086 1.028-2.326 1.606v-1.508h-1.156v6.974h1.183zm6.662.197c1.226 0 1.944-.705 2.283-1.325v1.127h1.169v-9.862h-1.183V43.1c-.339-.605-1.029-1.324-2.269-1.324-1.607 0-2.874 1.353-2.874 3.691 0 2.325 1.267 3.678 2.874 3.678zm.324-1.029c-1.1 0-1.959-.69-1.959-2.649 0-1.93.859-2.663 1.959-2.663 1.155 0 2.001.874 2.001 2.663 0 1.804-.846 2.65-2.001 2.65zm8.162 1.029c1.465 0 2.55-.747 3.029-2l-1.098-.395c-.212.535-.747 1.38-1.889 1.38-1.001 0-1.974-.591-2.03-2.395h4.975c.239-2.254-1-3.959-3.044-3.959-1.761 0-3.128 1.409-3.128 3.677 0 2.395 1.268 3.692 3.185 3.692zm-1.96-4.368c.098-1.254.917-2.043 1.903-2.043.973 0 1.817.69 1.831 2.043h-3.734zm8.049 4.17v-3.141c0-1.677.648-2.706 2.213-2.706.31 0 .578.043.789.07v-1.21c-.169-.057-.38-.085-.704-.085-1.381 0-2.087 1.028-2.326 1.606v-1.508h-1.155v6.974h1.183zm10.864 0v-9.862h-1c-.662 1.212-1.762 1.944-2.918 2.24v1.325c1.085-.184 2.114-.944 2.664-1.846v8.143h1.254zm8.852 0v-1.169h-5.102c1.733-1.07 3.1-2.057 3.974-3.128.648-.789 1.002-1.676 1.002-2.719 0-1.761-1.199-3.043-3.214-3.043-1.974 0-3.242 1.31-3.256 3.226l1.283.17c0-1.494.901-2.255 1.958-2.255 1.029 0 1.889.69 1.889 2.043 0 2.057-2.353 3.79-5.044 5.48v1.395h6.51zm4.933.198c2.1 0 3.285-1.254 3.285-2.72 0-1.352-.861-2.31-2.03-2.564 1.028-.324 1.818-1.155 1.818-2.38 0-1.452-1.127-2.593-3.086-2.593-1.916 0-3.101 1.211-3.214 2.733l1.311.225c.084-1.084.79-1.845 1.903-1.845 1.001 0 1.804.648 1.804 1.676 0 1.057-.832 1.691-1.833 1.691h-.733v1.1h.733c1.156 0 2.016.675 2.016 1.802 0 1.085-.86 1.762-1.974 1.762-1.268 0-2.1-.846-2.142-2.17l-1.338.282c.127 1.831 1.437 3 3.48 3zM155.236 70.082v-1.029h-1.381c-.55 0-.803-.254-.803-.803v-4.142h1.93v-1h-1.93v-2.156h-1.184v2.155h-1.635v1h1.635v4.242c0 1.155.592 1.733 1.79 1.733h1.578zm2.699 0v-3.086c0-1.014.085-3.043 1.945-3.043.972 0 1.578.563 1.578 1.888v4.24h1.198V65.56c0-1.55-.747-2.649-2.367-2.649-1.593 0-2.227 1.057-2.354 1.423V60.22h-1.184v9.863h1.184zm8.767.197c1.142 0 1.846-.522 2.325-1.325.071.69.31 1.128 1.283 1.128h.944v-1.029h-.69c-.339 0-.466-.099-.466-.465v-3.255c0-1.45-.845-2.423-2.734-2.423-1.832 0-2.805 1-3.031 1.916l1.157.38c.197-.591.634-1.282 1.874-1.282 1.086 0 1.551.536 1.551 1.367v.24c-2.312.183-4.441.86-4.441 2.775 0 1.226.875 1.973 2.228 1.973zm.31-.986c-.86 0-1.311-.423-1.311-1.085 0-1.17 1.48-1.635 3.214-1.804v.747c0 1.508-.973 2.142-1.903 2.142zm9.488.788v-1.028h-1.381c-.55 0-.804-.254-.804-.803v-4.142h1.931v-1h-1.931v-2.156h-1.183v2.155h-1.635v1h1.635v4.242c0 1.155.592 1.733 1.789 1.733h1.579zm7.789 0l1.113-3.564c.379-1.184.508-1.648.662-2.1.128.41.283.945.65 2.114l1.084 3.55h1.437l2.355-6.974h-1.255l-1.058 3.311c-.436 1.423-.62 2.001-.761 2.395-.111-.408-.294-1-.606-2.028l-1.127-3.678h-1.396l-1.041 3.41c-.423 1.367-.58 1.86-.706 2.31l-.732-2.366-1.045-3.354h-1.238l2.297 6.975h1.367zm10.531.198c1.142 0 1.846-.522 2.326-1.325.07.69.31 1.128 1.282 1.128h.943v-1.029h-.689c-.338 0-.465-.099-.465-.465v-3.255c0-1.45-.847-2.423-2.735-2.423-1.833 0-2.804 1-3.029 1.916l1.155.38c.198-.591.633-1.282 1.874-1.282 1.085 0 1.551.536 1.551 1.367v.24c-2.311.183-4.44.86-4.44 2.775 0 1.226.874 1.973 2.227 1.973zm.31-.986c-.859 0-1.31-.423-1.31-1.085 0-1.17 1.479-1.635 3.213-1.804v.747c0 1.508-.973 2.142-1.903 2.142zm7.893.986c1.803 0 2.804-.86 2.804-2.128 0-1.48-1.451-1.958-2.311-2.155l-.875-.17c-.958-.183-1.197-.478-1.197-.957 0-.522.45-1 1.423-1 1.127 0 1.578.718 1.733 1.197l1.058-.409c-.268-.873-1.085-1.747-2.776-1.747-1.438 0-2.594.845-2.594 2.071 0 1.31 1.015 1.761 2.157 1.987l.874.169c.958.197 1.296.578 1.296 1.113 0 .648-.55 1.043-1.578 1.043-1.184 0-1.72-.649-1.889-1.381l-1.141.366c.281 1.268 1.508 2 3.016 2zm9.897-6.171h1.859v-1h-1.859V62.05c0-.55.24-.803.803-.803h1.297v-1.029h-1.494c-1.198 0-1.79.592-1.79 1.846v1.042h-1.578v1h1.578v5.975h1.184v-5.974zm5.008 6.17c1.142 0 1.845-.52 2.325-1.324.07.69.31 1.128 1.282 1.128h.945v-1.029h-.691c-.338 0-.464-.099-.464-.465v-3.255c0-1.45-.846-2.423-2.734-2.423-1.832 0-2.805 1-3.03 1.916l1.155.38c.198-.591.634-1.282 1.875-1.282 1.085 0 1.549.536 1.549 1.367v.24c-2.311.183-4.438.86-4.438 2.775 0 1.226.873 1.973 2.226 1.973zm.31-.986c-.859 0-1.31-.422-1.31-1.084 0-1.17 1.478-1.635 3.212-1.804v.747c0 1.508-.972 2.142-1.902 2.142zm6.764-9.073h-1.267v1.536h1.267v-1.536zm-.028 2.888h-1.198v6.975h1.198v-6.975zm3.565-2.888h-1.183v9.863h1.183v-9.863zm5.031 10.06c1.466 0 2.551-.747 3.03-2l-1.099-.395c-.212.535-.748 1.38-1.89 1.38-1.001 0-1.972-.591-2.028-2.395h4.975c.239-2.254-1.001-3.959-3.045-3.959-1.761 0-3.128 1.409-3.128 3.677 0 2.396 1.268 3.692 3.185 3.692zm-1.959-4.368c.099-1.254.916-2.043 1.902-2.043.973 0 1.818.69 1.832 2.043h-3.734zm9.205 4.368c1.226 0 1.944-.705 2.282-1.325v1.128h1.17v-9.863h-1.183v4.015c-.338-.605-1.029-1.324-2.269-1.324-1.607 0-2.875 1.353-2.875 3.692 0 2.324 1.268 3.677 2.875 3.677zm.323-1.029c-1.099 0-1.959-.69-1.959-2.648 0-1.93.86-2.663 1.959-2.663 1.156 0 2.002.873 2.002 2.663 0 1.803-.846 2.648-2.002 2.648zm12.983.832v-1.029h-1.38c-.55 0-.804-.254-.804-.803v-4.142h1.93v-1h-1.93v-2.156h-1.183v2.155h-1.636v1h1.636v4.242c0 1.155.592 1.733 1.79 1.733h1.577zm4.196.197c1.818 0 3.284-1.494 3.284-3.677 0-2.17-1.424-3.692-3.284-3.692-1.876 0-3.311 1.522-3.311 3.692 0 2.155 1.479 3.677 3.311 3.677zm0-1.043c-1.184 0-2.057-.845-2.057-2.62 0-1.776.873-2.663 2.057-2.663 1.169 0 2.043.887 2.043 2.663 0 1.775-.874 2.62-2.043 2.62zm12.238 1.043c1.606 0 2.862-1.353 2.862-3.692 0-2.338-1.256-3.677-2.862-3.677-1.255 0-1.945.705-2.269 1.31v-4h-1.183v9.863h1.155v-1.128c.338.62 1.057 1.325 2.297 1.325zm-.338-1.029c-1.142 0-1.988-.873-1.988-2.663 0-1.803.846-2.648 1.988-2.648 1.113 0 1.959.69 1.959 2.648 0 1.93-.846 2.663-1.959 2.663zm7.711 1.029c1.465 0 2.551-.747 3.03-2l-1.1-.395c-.211.535-.747 1.38-1.888 1.38-1.001 0-1.974-.591-2.031-2.395h4.975c.24-2.254-1-3.959-3.044-3.959-1.761 0-3.127 1.409-3.127 3.677 0 2.396 1.268 3.692 3.185 3.692zm-1.96-4.368c.098-1.254.916-2.043 1.902-2.043.973 0 1.819.69 1.833 2.043h-3.735zm12.865 4.368c1.226 0 1.945-.705 2.283-1.325v1.128h1.171v-9.863h-1.184v4.015c-.338-.605-1.03-1.324-2.27-1.324-1.607 0-2.874 1.353-2.874 3.692 0 2.324 1.267 3.677 2.874 3.677zm.324-1.029c-1.099 0-1.958-.69-1.958-2.648 0-1.93.859-2.663 1.958-2.663 1.156 0 2.002.873 2.002 2.663 0 1.803-.846 2.648-2.002 2.648zm8.161 1.029c1.466 0 2.552-.747 3.031-2l-1.1-.395c-.212.535-.746 1.38-1.888 1.38-1 0-1.974-.591-2.03-2.395h4.975c.239-2.254-1.001-3.959-3.044-3.959-1.762 0-3.129 1.409-3.129 3.677 0 2.396 1.268 3.692 3.185 3.692zm-1.959-4.368c.099-1.254.916-2.043 1.903-2.043.972 0 1.819.69 1.833 2.043h-3.736zm8.049-5.692h-1.182v9.863h1.182v-9.863zm3.593 0h-1.267v1.536h1.267v-1.536zm-.028 2.888h-1.198v6.975h1.198v-6.975zm5.031 7.172c1.466 0 2.551-.747 3.03-2l-1.099-.395c-.211.535-.748 1.38-1.889 1.38-1.001 0-1.973-.591-2.03-2.395h4.975c.24-2.254-1-3.959-3.043-3.959-1.762 0-3.129 1.409-3.129 3.677 0 2.396 1.269 3.692 3.185 3.692zm-1.96-4.368c.099-1.254.917-2.043 1.904-2.043.972 0 1.817.69 1.831 2.043h-3.735zm9.898 4.17l2.354-6.974h-1.213l-1.211 3.847-.663 2.043c-.141-.395-.395-1.198-.676-2.043l-1.268-3.847h-1.269l2.452 6.975h1.494zm6.541.198c1.466 0 2.55-.747 3.029-2l-1.098-.395c-.211.535-.748 1.38-1.89 1.38-1 0-1.972-.591-2.028-2.395h4.975c.24-2.254-1.001-3.959-3.044-3.959-1.762 0-3.129 1.409-3.129 3.677 0 2.396 1.268 3.692 3.185 3.692zm-1.959-4.368c.099-1.254.916-2.043 1.903-2.043.972 0 1.817.69 1.831 2.043h-3.734zm8.05 4.17V66.94c0-1.677.648-2.706 2.212-2.706.31 0 .578.043.789.07v-1.21c-.169-.057-.38-.085-.704-.085-1.381 0-2.086 1.028-2.326 1.606v-1.508h-1.156v6.975h1.185zm6.957.198c1.465 0 2.549-.747 3.029-2l-1.099-.395c-.211.535-.748 1.38-1.889 1.38-1.001 0-1.972-.591-2.029-2.395h4.975c.24-2.254-1-3.959-3.044-3.959-1.761 0-3.13 1.409-3.13 3.677 0 2.396 1.27 3.692 3.187 3.692zm-1.959-4.368c.098-1.254.916-2.043 1.902-2.043.973 0 1.817.69 1.831 2.043h-3.733zm9.204 4.368c1.226 0 1.945-.705 2.284-1.325v1.128h1.168v-9.863h-1.183v4.015c-.339-.605-1.029-1.324-2.269-1.324-1.607 0-2.875 1.353-2.875 3.692 0 2.324 1.268 3.677 2.875 3.677zm.325-1.029c-1.1 0-1.96-.69-1.96-2.648 0-1.93.86-2.663 1.96-2.663 1.155 0 2 .873 2 2.663 0 1.803-.845 2.648-2 2.648z" fill="#000"/></g><path d="M99.66 117.382h20.133c1.113 0 2.014.9 2.014 2.012v20.128a2.013 2.013 0 01-2.014 2.013H99.66a2.013 2.013 0 01-2.013-2.013v-20.128c0-1.112.9-2.012 2.013-2.012z" fill="#F2F2F2"/><path d="M112.108 130.129c.504 0 .947-.275 1.175-.691l2.403-4.355a.668.668 0 00-.584-.992h-9.933l-.631-1.342h-2.194v1.342h1.343l2.416 5.092-.906 1.637c-.491.9.154 1.992 1.173 1.992h8.054v-1.341h-8.054l.739-1.342h4.999zm-6.301-4.696h8.154l-1.853 3.354h-4.711l-1.59-3.354zm.563 8.051a1.34 1.34 0 00-1.334 1.341 1.34 1.34 0 001.334 1.343c.739 0 1.343-.604 1.343-1.343 0-.737-.604-1.341-1.343-1.341zm6.712 0a1.34 1.34 0 00-1.336 1.341c0 .739.598 1.343 1.336 1.343.738 0 1.342-.604 1.342-1.343 0-.737-.604-1.341-1.342-1.341z" fill="#000"/><path d="M143.565 130.662c2.804 0 4.89-2.071 4.89-5.129 0-3.057-2.086-5.128-4.89-5.128-2.791 0-4.919 2.071-4.919 5.128 0 3.058 2.114 5.129 4.919 5.129zm0-1.155c-2.199 0-3.552-1.719-3.552-3.974 0-2.268 1.353-3.973 3.552-3.973 2.184 0 3.551 1.705 3.551 3.973 0 2.255-1.367 3.974-3.551 3.974zm8.016.958v-3.142c0-1.677.648-2.705 2.212-2.705.311 0 .579.042.791.07v-1.212c-.169-.056-.382-.084-.706-.084-1.381 0-2.086 1.028-2.325 1.606v-1.508h-1.155v6.975h1.183zm6.661.197c1.226 0 1.946-.705 2.284-1.325v1.128h1.169v-9.863h-1.184v4.016c-.338-.606-1.029-1.325-2.269-1.325-1.607 0-2.875 1.353-2.875 3.692 0 2.324 1.268 3.677 2.875 3.677zm.324-1.029c-1.099 0-1.959-.69-1.959-2.648 0-1.931.86-2.663 1.959-2.663 1.156 0 2.001.873 2.001 2.663 0 1.803-.845 2.648-2.001 2.648zm8.162 1.029c1.466 0 2.55-.747 3.029-2.001l-1.098-.394c-.211.535-.748 1.38-1.89 1.38-1 0-1.972-.591-2.028-2.395h4.975c.24-2.254-1.001-3.959-3.044-3.959-1.762 0-3.13 1.409-3.13 3.677 0 2.396 1.269 3.692 3.186 3.692zm-1.959-4.368c.099-1.254.916-2.043 1.903-2.043.972 0 1.817.691 1.831 2.043h-3.734zm8.048 4.171v-3.142c0-1.677.65-2.705 2.214-2.705.31 0 .577.042.788.07v-1.212c-.169-.056-.379-.084-.703-.084-1.381 0-2.087 1.028-2.327 1.606v-1.508h-1.155v6.975h1.183zm8.904 0v-3.142c0-1.677.65-2.705 2.214-2.705.31 0 .577.042.788.07v-1.212c-.169-.056-.379-.084-.703-.084-1.381 0-2.087 1.028-2.327 1.606v-1.508h-1.155v6.975h1.183zm6.959.197c1.465 0 2.55-.747 3.03-2.001l-1.101-.394c-.211.535-.746 1.38-1.887 1.38-1.001 0-1.973-.591-2.03-2.395h4.975c.24-2.254-1-3.959-3.044-3.959-1.762 0-3.13 1.409-3.13 3.677 0 2.396 1.27 3.692 3.187 3.692zm-1.959-4.368c.098-1.254.916-2.043 1.902-2.043.973 0 1.818.691 1.832 2.043h-3.734zm9.654 4.368c1.565 0 2.608-.93 3.045-2.212l-1.127-.395c-.239.789-.775 1.564-1.931 1.564-1.155 0-2.071-.859-2.071-2.649 0-1.761.943-2.634 2.056-2.634 1.015 0 1.566.634 1.805 1.352l1.114-.38c-.325-1.071-1.325-2.015-2.904-2.015-1.93 0-3.326 1.522-3.326 3.677 0 2.255 1.338 3.692 3.339 3.692zm7.334 0c1.466 0 2.551-.747 3.03-2.001l-1.099-.394c-.212.535-.747 1.38-1.889 1.38-1 0-1.973-.591-2.029-2.395h4.974c.239-2.254-1-3.959-3.043-3.959-1.762 0-3.129 1.409-3.129 3.677 0 2.396 1.268 3.692 3.185 3.692zm-1.959-4.368c.099-1.254.916-2.043 1.903-2.043.972 0 1.818.691 1.832 2.043h-3.735zm8.077-5.692h-1.268v1.536h1.268v-1.536zm-.029 2.888h-1.197v6.975h1.197v-6.975zm5.483 6.975l2.353-6.975h-1.212l-1.213 3.847-.661 2.043c-.141-.395-.395-1.198-.677-2.043l-1.269-3.847h-1.267l2.451 6.975h1.495zm6.539.197c1.466 0 2.551-.747 3.03-2.001l-1.099-.394c-.212.535-.746 1.38-1.888 1.38-1 0-1.974-.591-2.03-2.395h4.975c.239-2.254-1.001-3.959-3.044-3.959-1.762 0-3.129 1.409-3.129 3.677 0 2.396 1.268 3.692 3.185 3.692zm-1.959-4.368c.099-1.254.916-2.043 1.903-2.043.972 0 1.818.691 1.832 2.043h-3.735zm9.205 4.368c1.226 0 1.946-.705 2.284-1.325v1.128h1.169v-9.863h-1.184v4.016c-.338-.606-1.029-1.325-2.269-1.325-1.607 0-2.875 1.353-2.875 3.692 0 2.324 1.268 3.677 2.875 3.677zm.325-1.029c-1.099 0-1.96-.69-1.96-2.648 0-1.931.861-2.663 1.96-2.663 1.156 0 2 .873 2 2.663 0 1.803-.844 2.648-2 2.648z" fill="#666"/><path d="M239.587 125.433a1.006 1.006 0 110 2.012 1.006 1.006 0 010-2.012z" fill="#C4C4C4"/><path d="M247.266 130.634c1.606 0 2.379-.93 2.379-2.899v-5.724h-1.208v5.688c0 1.244-.35 1.86-1.184 1.86-.857 0-1.183-.664-1.171-1.944l-1.245.301c.025 1.703.894 2.718 2.429 2.718zm6.269 0c1.232 0 1.8-.846 1.993-1.196v1.027h1.112v-5.99h-1.136v2.608c0 .93-.072 2.56-1.57 2.56-.749 0-1.232-.434-1.232-1.509v-3.659h-1.136v3.925c0 1.328.604 2.234 1.969 2.234zm7.153 0c1.547 0 2.441-.725 2.441-1.86 0-1.329-1.329-1.715-2.018-1.86l-.712-.133c-.834-.157-1.015-.386-1.015-.773 0-.422.362-.797 1.159-.797.943 0 1.305.592 1.45 1.003l1.003-.387c-.242-.761-.955-1.521-2.44-1.521-1.245 0-2.259.736-2.259 1.811 0 1.147.857 1.534 1.884 1.739l.725.133c.821.157 1.075.459 1.075.881 0 .532-.447.834-1.28.834-.979 0-1.414-.52-1.571-1.135l-1.075.35c.254 1.135 1.377 1.715 2.633 1.715zm7.421-.169v-.979h-1.257c-.41 0-.592-.181-.592-.591v-3.478h1.619v-.942h-1.619v-1.872h-1.135v1.872h-1.365v.942h1.365v3.574c0 .991.519 1.474 1.51 1.474h1.474zm5.499 0v-2.585c0-.845.024-2.584 1.595-2.584.773 0 1.268.435 1.268 1.509v3.66h1.135v-3.925c0-1.329-.604-2.234-2.077-2.234-1.257 0-1.836.881-1.957 1.171v-1.002h-1.1v5.99h1.136zm8.275.169c1.606 0 2.839-1.329 2.839-3.152 0-1.824-1.184-3.176-2.839-3.176s-2.851 1.352-2.851 3.176c0 1.799 1.232 3.152 2.851 3.152zm0-.979c-.991 0-1.667-.7-1.667-2.161 0-1.474.676-2.21 1.667-2.21.978 0 1.655.736 1.655 2.21 0 1.461-.677 2.161-1.655 2.161zm6.869.81l.906-2.899c.351-1.111.459-1.485.58-1.847l.568 1.859.882 2.887h1.341l2.017-5.99h-1.196l-.858 2.753c-.374 1.244-.531 1.739-.628 2.017l-.495-1.655-.942-3.115h-1.329l-.87 2.85a77.753 77.753 0 00-.58 1.932l-.604-1.993-.845-2.789h-1.184l1.957 5.99h1.28z" fill="#666"/><path d="M313.366 129.961l2.852-8.453h-1.728l-1.571 5.012c-.422 1.352-.542 1.727-.687 2.137-.121-.41-.242-.785-.665-2.149l-1.546-5h-1.751l2.838 8.453h2.258zm5.453-8.465h-1.57v1.509h1.57v-1.509zm-.036 2.451h-1.474v6.014h1.474v-6.014zm4.284 6.196c1.594 0 2.427-.81 2.813-1.752l-1.328-.495c-.217.508-.616 1.087-1.461 1.087-.773 0-1.439-.447-1.487-1.666h4.241c.193-1.993-.87-3.551-2.803-3.551-1.667 0-2.911 1.268-2.911 3.188 0 1.993 1.16 3.189 2.936 3.189zm-1.426-3.913c.109-.882.677-1.365 1.401-1.365.761 0 1.293.483 1.341 1.365h-2.742zm8.525 3.731l.773-2.741a52.42 52.42 0 00.506-1.799c.097.362.217.76.507 1.811l.775 2.729h1.763l1.969-6.014h-1.522l-.604 2.077c-.459 1.667-.593 2.186-.677 2.476-.097-.29-.241-.821-.567-2.029l-.725-2.524h-1.739l-.69 2.416c-.362 1.292-.506 1.859-.591 2.173a91.908 91.908 0 01-.64-2.379l-.616-2.21h-1.522l1.944 6.014h1.656z" fill="#4B77E0"/><path d="M158.877 163.844c2.428 0 4.215-1.763 4.215-4.396 0-2.62-1.787-4.396-4.215-4.396s-4.252 1.776-4.252 4.396c0 2.633 1.812 4.396 4.252 4.396zm-.013-1.099c-1.848 0-2.947-1.413-2.947-3.297 0-1.884 1.099-3.297 2.947-3.297s2.949 1.413 2.949 3.297c0 1.884-1.101 3.297-2.949 3.297zm6.967.93v-2.693c0-1.413.556-2.21 1.885-2.21.241 0 .447.024.64.048v-1.159a2.095 2.095 0 00-.556-.06c-1.196 0-1.788.893-1.993 1.352v-1.268h-1.111v5.99h1.135zm5.637.169c1.051 0 1.642-.579 1.932-1.075v.906h1.112v-8.453h-1.136v3.381c-.29-.495-.87-1.087-1.908-1.087-1.414 0-2.465 1.208-2.465 3.176 0 1.957 1.051 3.152 2.465 3.152zm.314-.966c-.918 0-1.607-.555-1.607-2.186 0-1.618.689-2.21 1.607-2.21.966 0 1.655.737 1.655 2.21 0 1.474-.689 2.186-1.655 2.186zm7.031.966c1.244 0 2.198-.579 2.633-1.727l-1.038-.374c-.169.423-.593 1.147-1.56 1.147-.821 0-1.618-.483-1.667-1.92h4.216c.218-1.956-.845-3.454-2.633-3.454-1.558 0-2.717 1.232-2.717 3.188 0 2.017 1.099 3.14 2.766 3.14zm-1.607-3.78c.096-1.038.785-1.642 1.558-1.642.797 0 1.474.567 1.486 1.642h-3.044zm6.922 3.611v-2.693c0-1.413.556-2.21 1.885-2.21.241 0 .447.024.64.048v-1.159a2.086 2.086 0 00-.555-.06c-1.195 0-1.788.893-1.994 1.352v-1.268h-1.111v5.99h1.135zm9.289 0v-8.453h-.979c-.543 1.014-1.485 1.618-2.488 1.859v1.256c.93-.133 1.812-.773 2.271-1.545v6.883h1.196zm7.621 0v-1.111h-4.336c1.498-.906 2.621-1.703 3.346-2.536.58-.676.894-1.449.894-2.355 0-1.509-1.039-2.621-2.791-2.621-1.763 0-2.839 1.172-2.851 2.778l1.22.169c0-1.195.701-1.86 1.619-1.86.834 0 1.534.568 1.534 1.667 0 1.691-1.945 3.092-4.3 4.541v1.328h5.665zm4.228.169c1.788 0 2.851-1.05 2.851-2.331 0-1.147-.699-1.956-1.702-2.185.894-.29 1.546-1.003 1.546-2.041 0-1.268-.991-2.235-2.695-2.235-1.691 0-2.706 1.051-2.814 2.355l1.244.206c.085-.882.652-1.51 1.57-1.51.81 0 1.474.532 1.474 1.377 0 .869-.675 1.389-1.497 1.389h-.604v1.026h.604c.942 0 1.631.544 1.631 1.461 0 .894-.702 1.438-1.608 1.438-1.026 0-1.703-.701-1.751-1.8l-1.269.266c.121 1.57 1.257 2.584 3.02 2.584zm10.979-5.096h-3.48v1.171h3.48v-1.171zm7.76 4.927v-8.453h-.978c-.544 1.014-1.486 1.618-2.488 1.859v1.256c.93-.133 1.812-.773 2.271-1.545v6.883h1.195zm6.728-8.453h-1.208v8.453h1.208v-8.453zm5.759 8.453v-.978h-1.256c-.411 0-.592-.181-.592-.592v-3.478h1.619v-.942h-1.619v-1.872h-1.136v1.872h-1.365v.942h1.365v3.575c0 .99.52 1.473 1.51 1.473h1.474zm3.546.169c1.244 0 2.198-.579 2.633-1.727l-1.039-.374c-.169.423-.592 1.147-1.558 1.147-.822 0-1.619-.483-1.667-1.92h4.216c.217-1.956-.846-3.454-2.634-3.454-1.558 0-2.718 1.232-2.718 3.188 0 2.017 1.1 3.14 2.767 3.14zm-1.607-3.78c.097-1.038.785-1.642 1.558-1.642.798 0 1.474.567 1.486 1.642h-3.044zm6.923 3.611v-2.826c0-.821.06-2.331 1.462-2.331.761 0 1.268.399 1.268 1.498v3.659h1.111v-2.826c0-.821.037-2.331 1.474-2.331.761 0 1.256.399 1.256 1.498v3.659h1.148v-3.973c0-1.425-.749-2.186-2.078-2.186-1.196 0-1.751.701-2.005 1.244-.314-.773-.991-1.244-1.86-1.244-1.027 0-1.559.628-1.812 1.075v-.906h-1.1v5.99h1.136zm-87.517 32.204v-8.453h-.978c-.544 1.014-1.486 1.618-2.489 1.86v1.256c.93-.133 1.812-.773 2.271-1.546v6.883h1.196zm2.67 0l.725-1.074c.398-.592.58-.87.773-1.148.181.278.338.52.761 1.148l.713 1.074h1.377l-2.138-3.055 2.005-2.935h-1.256l-.629.967c-.422.664-.579.893-.761 1.147a37.938 37.938 0 01-.724-1.147l-.629-.967h-1.34l1.981 2.923-2.09 3.067h1.232z" fill="#666"/><path d="M178.408 195.879v-1.111h-5.412l5.206-6.098v-1.244h-6.281v1.111h4.868l-5.086 5.942v1.4h6.705zm2.958.169c.954 0 1.534-.422 1.957-1.074.073.507.242.905 1.111.905h.87v-.966h-.616c-.278 0-.35-.072-.35-.35v-2.741c0-1.293-.773-2.102-2.392-2.102-1.583 0-2.44.858-2.633 1.679l1.087.35c.157-.459.495-1.075 1.546-1.075.882 0 1.256.423 1.256 1.111v.182c-1.945.157-3.769.712-3.769 2.367 0 1.062.761 1.714 1.933 1.714zm.302-.929c-.713 0-1.063-.339-1.063-.882 0-.954 1.196-1.304 2.597-1.449v.616c0 1.195-.773 1.715-1.534 1.715zm5.846 3.115v-3.26c.29.495.858 1.074 1.908 1.074 1.414 0 2.453-1.207 2.453-3.164 0-1.968-1.039-3.164-2.453-3.164-1.05 0-1.654.58-1.944 1.075v-.906h-1.1v8.345h1.136zm1.582-3.152c-.954 0-1.643-.736-1.643-2.21 0-1.473.689-2.186 1.643-2.186.93 0 1.607.556 1.607 2.186 0 1.619-.677 2.21-1.607 2.21zm5.46 3.152v-3.26c.29.495.858 1.074 1.909 1.074 1.413 0 2.452-1.207 2.452-3.164 0-1.968-1.039-3.164-2.452-3.164-1.051 0-1.655.58-1.945 1.075v-.906h-1.099v8.345h1.135zm1.583-3.152c-.954 0-1.643-.736-1.643-2.21 0-1.473.689-2.186 1.643-2.186.93 0 1.607.556 1.607 2.186 0 1.619-.677 2.21-1.607 2.21zm5.871.966c.954 0 1.534-.422 1.957-1.074.072.507.241.905 1.111.905h.87v-.966h-.616c-.278 0-.35-.072-.35-.35v-2.741c0-1.293-.774-2.102-2.392-2.102-1.583 0-2.44.858-2.634 1.679l1.087.35c.157-.459.496-1.075 1.547-1.075.882 0 1.256.423 1.256 1.111v.182c-1.945.157-3.769.712-3.769 2.367 0 1.062.761 1.714 1.933 1.714zm.302-.929c-.713 0-1.063-.339-1.063-.882 0-.954 1.196-1.304 2.597-1.449v.616c0 1.195-.773 1.715-1.534 1.715zm9.044.929c1.606 0 2.379-.929 2.379-2.898v-5.724h-1.208v5.688c0 1.244-.35 1.86-1.183 1.86-.858 0-1.184-.665-1.172-1.945l-1.244.302c.024 1.703.894 2.717 2.428 2.717zm5.955 0c.954 0 1.534-.422 1.957-1.074.073.507.242.905 1.111.905h.87v-.966h-.616c-.278 0-.35-.072-.35-.35v-2.741c0-1.293-.773-2.102-2.392-2.102-1.582 0-2.44.858-2.633 1.679l1.087.35c.157-.459.495-1.075 1.546-1.075.882 0 1.256.423 1.256 1.111v.182c-1.945.157-3.769.712-3.769 2.367 0 1.062.761 1.714 1.933 1.714zm.302-.929c-.713 0-1.063-.339-1.063-.882 0-.954 1.196-1.304 2.597-1.449v.616c0 1.195-.773 1.715-1.534 1.715zm7.163.929c1.353 0 2.259-.785 2.657-1.896l-1.075-.374c-.205.664-.652 1.292-1.594 1.292-.955 0-1.716-.7-1.716-2.186 0-1.461.773-2.185 1.703-2.185.834 0 1.269.531 1.474 1.123l1.063-.363c-.302-.942-1.159-1.739-2.524-1.739-1.68 0-2.9 1.293-2.9 3.164 0 1.933 1.16 3.164 2.912 3.164zm9.872-.169l-2.875-3.502 2.658-2.488h-1.486l-3.057 2.983v-5.446h-1.135v8.453h1.135v-1.739l1.088-1.014 2.21 2.753h1.462zm3.077.169c1.245 0 2.199-.579 2.634-1.726l-1.039-.375c-.169.423-.592 1.147-1.558 1.147-.822 0-1.619-.483-1.667-1.92h4.215c.218-1.956-.845-3.454-2.633-3.454-1.558 0-2.718 1.232-2.718 3.189 0 2.016 1.099 3.139 2.766 3.139zm-1.606-3.78c.096-1.038.785-1.642 1.558-1.642.797 0 1.474.568 1.486 1.642h-3.044zm9.292 3.611v-.978h-1.256c-.411 0-.592-.181-.592-.592v-3.478h1.619v-.942h-1.619v-1.871h-1.136v1.871h-1.365v.942h1.365v3.575c0 .99.52 1.473 1.51 1.473h1.474zm7.674-4.335h-3.479v1.171h3.479v-1.171zm8.935 4.335c1.522 0 2.791-.736 2.791-2.33 0-1.22-.943-1.908-1.861-2.078.786-.169 1.583-.821 1.583-1.968 0-1.22-.858-2.077-2.646-2.077h-3.696v8.453h3.829zm-2.621-7.342h2.355c.931 0 1.523.374 1.523 1.159 0 .773-.592 1.256-1.523 1.256h-2.355v-2.415zm0 3.502h2.452c1.039 0 1.679.495 1.679 1.353 0 .845-.64 1.376-1.679 1.376h-2.452v-2.729zm8.145 3.84v-2.693c0-1.413.555-2.21 1.884-2.21.242 0 .447.024.641.049v-1.16a2.095 2.095 0 00-.556-.06c-1.196 0-1.788.894-1.993 1.352v-1.268h-1.112v5.99h1.136zm5.999.169c1.606 0 2.838-1.328 2.838-3.152 0-1.823-1.184-3.176-2.838-3.176-1.655 0-2.851 1.353-2.851 3.176 0 1.8 1.232 3.152 2.851 3.152zm0-.978c-.991 0-1.668-.7-1.668-2.161 0-1.474.677-2.21 1.668-2.21.978 0 1.655.736 1.655 2.21 0 1.461-.677 2.161-1.655 2.161zm6.869.809l.906-2.898c.35-1.111.459-1.485.58-1.848l.568 1.86.881 2.886h1.341l2.018-5.99h-1.196l-.858 2.754c-.374 1.244-.531 1.739-.628 2.017l-.495-1.655-.943-3.116h-1.328l-.87 2.85a73.975 73.975 0 00-.58 1.933l-.604-1.993-.846-2.79h-1.183l1.957 5.99h1.28zm8.661 0v-2.584c0-.845.025-2.584 1.595-2.584.773 0 1.268.434 1.268 1.509v3.659h1.136v-3.924c0-1.329-.604-2.235-2.078-2.235-1.256 0-1.836.882-1.957 1.172v-1.003h-1.099v5.99h1.135z" fill="#000"/><path d="M370.544 227.246c2.041 0 3.129-1.074 3.129-2.548 0-1.316-1.015-2.113-2.428-2.415l-1.16-.254c-.918-.205-1.341-.543-1.341-1.232 0-.724.58-1.256 1.631-1.256 1.329 0 1.836.858 2.029 1.426l1.136-.52c-.254-.845-1.196-1.992-3.056-1.992-1.788 0-2.948 1.038-2.948 2.403 0 1.437.894 2.077 2.211 2.355l1.123.253c1.039.218 1.534.64 1.534 1.341 0 .797-.628 1.352-1.788 1.352-1.328 0-2.029-.821-2.331-1.787l-1.172.531c.399 1.329 1.546 2.343 3.431 2.343zm5.834-.169v-2.584c0-.845.024-2.585 1.594-2.585.773 0 1.269.435 1.269 1.51v3.659h1.135v-3.925c0-1.328-.64-2.234-2.005-2.234-1.365 0-1.885.882-1.993 1.172v-3.466h-1.136v8.453h1.136zm7.055-8.453h-1.208v1.352h1.208v-1.352zm-.024 2.463h-1.147v5.99h1.147v-5.99zm3.103 8.345v-3.26c.29.495.857 1.074 1.908 1.074 1.414 0 2.453-1.207 2.453-3.164 0-1.968-1.039-3.164-2.453-3.164-1.051 0-1.655.58-1.945 1.075v-.906h-1.099v8.345h1.136zm1.582-3.152c-.954 0-1.643-.736-1.643-2.21 0-1.473.689-2.186 1.643-2.186.93 0 1.607.556 1.607 2.186 0 1.618-.677 2.21-1.607 2.21zm5.46 3.152v-3.26c.29.495.858 1.074 1.909 1.074 1.413 0 2.452-1.207 2.452-3.164 0-1.968-1.039-3.164-2.452-3.164-1.051 0-1.655.58-1.945 1.075v-.906h-1.099v8.345h1.135zm1.583-3.152c-.955 0-1.643-.736-1.643-2.21 0-1.473.688-2.186 1.643-2.186.93 0 1.606.556 1.606 2.186 0 1.618-.676 2.21-1.606 2.21zm5.484-7.656h-1.208v1.352h1.208v-1.352zm-.024 2.463h-1.148v5.99h1.148v-5.99zm3.103 5.99v-2.584c0-.845.024-2.585 1.594-2.585.773 0 1.268.435 1.268 1.51v3.659h1.136v-3.925c0-1.328-.604-2.234-2.078-2.234-1.256 0-1.836.882-1.957 1.172v-1.003h-1.099v5.99h1.136zm9.7 2.355c1.039 0 1.908-.555 1.908-1.678 0-1.003-.761-1.679-1.932-1.679h-2.598c-.41 0-.531-.193-.531-.387 0-.217.205-.434.531-.567.339.181.725.229 1.136.229 1.341 0 2.271-.869 2.38-2.222l.024-.29c.048-.688.241-.809.749-.809h.495v-.942h-.616c-.616 0-.882.375-.991.894-.277-.471-.942-1.063-2.053-1.063-1.401 0-2.416.966-2.416 2.234 0 .713.314 1.256.664 1.57-.41.266-.894.677-.894 1.268 0 .483.194.773.532.979-.35.217-.773.652-.773 1.256 0 .7.423 1.207 1.594 1.207h2.791zm-1.486-4.975c-.785 0-1.293-.52-1.293-1.317 0-.785.508-1.328 1.293-1.328.785 0 1.292.543 1.292 1.328 0 .797-.507 1.317-1.292 1.317zm-.991 4.009c-.579 0-.906-.145-.906-.628 0-.374.242-.64.435-.761h2.803c.483 0 .906.121.906.689 0 .567-.423.7-.906.7h-2.332zm-18.226 19.745v-7.342h3.081v-1.111h-7.285v1.111h2.997v7.342h1.207zm5.25.169c1.607 0 2.84-1.328 2.84-3.152 0-1.823-1.185-3.176-2.84-3.176-1.655 0-2.85 1.353-2.85 3.176 0 1.8 1.232 3.152 2.85 3.152zm0-.978c-.99 0-1.666-.7-1.666-2.161 0-1.474.676-2.21 1.666-2.21.979 0 1.656.736 1.656 2.21 0 1.461-.677 2.161-1.656 2.161zm7.849.809v-.978h-1.255c-.411 0-.593-.181-.593-.592v-3.478h1.619v-.942h-1.619v-1.871h-1.134v1.871h-1.365v.942h1.365v3.575c0 .99.519 1.473 1.51 1.473h1.472zm2.832.169c.955 0 1.534-.422 1.957-1.074.073.507.242.905 1.112.905h.869v-.966h-.617c-.278 0-.35-.072-.35-.35v-2.741c0-1.293-.773-2.102-2.392-2.102-1.582 0-2.44.858-2.633 1.679l1.088.35c.157-.459.494-1.075 1.545-1.075.882 0 1.257.423 1.257 1.111v.182c-1.945.157-3.769.712-3.769 2.367 0 1.062.761 1.714 1.933 1.714zm.301-.929c-.713 0-1.063-.339-1.063-.882 0-.954 1.197-1.304 2.598-1.449v.616c0 1.195-.774 1.715-1.535 1.715zm5.848-7.693h-1.136v8.453h1.136v-8.453z" fill="#666"/><path d="M414.932 206.95H154.02v-1.007h260.912v1.007zm0-31.198H154.02v-1.007h260.912v1.007z" fill="#F2F2F2"/><path d="M471.588 195.223c.483-.362.894-.93.894-1.678 0-.363-.06-.665-.157-.93h1.655v-.942h-2.174c-.254-.411-.46-.821-.46-1.401 0-.966.641-1.498 1.45-1.498.701 0 1.438.423 1.607 1.558l1.208-.29c-.23-1.606-1.559-2.318-2.742-2.318-1.438 0-2.779.881-2.779 2.536 0 .58.193 1.014.435 1.413h-.64v.942h1.232c.157.302.266.64.266 1.062 0 1.196-1.232 1.522-1.522 1.595v1.062h5.713v-1.111h-3.986zm8.468 1.28c1.921 0 2.972-1.34 2.972-2.946 0-1.498-1.039-2.705-2.706-2.705-1.039 0-1.933.579-2.283 1.473 0-2.391 1.292-3.466 2.947-3.466a4.39 4.39 0 011.534.278v-1.172c-.41-.157-1.075-.253-1.57-.253-2.754 0-4.095 2.029-4.095 4.685 0 2.645 1.28 4.106 3.201 4.106zm0-1.05c-.966 0-1.715-.701-1.715-1.788 0-1.086.749-1.787 1.715-1.787.942 0 1.716.701 1.716 1.787 0 1.087-.774 1.788-1.716 1.788zm7.168 1.05c1.812 0 2.935-1.147 2.935-2.813 0-1.667-1.063-2.694-2.67-2.694-.942 0-1.558.375-1.993.894l.169-1.135.266-1.763h3.986v-1.111h-4.88l-.725 4.83 1.281.206c.314-.52.845-.918 1.594-.918 1.063 0 1.728.688 1.728 1.727 0 1.05-.665 1.727-1.74 1.727-.93 0-1.606-.532-1.812-1.486l-1.22.399c.242 1.195 1.293 2.137 3.081 2.137zm5.915-1.739h-1.546v1.57h1.546v-1.57zm4.594 1.739c2.006 0 3.371-1.533 3.371-4.42 0-2.898-1.523-4.371-3.371-4.371-1.86 0-3.394 1.473-3.394 4.371 0 2.887 1.377 4.42 3.394 4.42zm0-1.074c-1.316 0-2.126-1.172-2.126-3.346 0-2.028.834-3.297 2.126-3.297 1.269 0 2.102 1.269 2.102 3.297 0 2.186-.809 3.346-2.102 3.346zm8.14 1.074c2.005 0 3.37-1.533 3.37-4.42 0-2.898-1.522-4.371-3.37-4.371-1.86 0-3.394 1.473-3.394 4.371 0 2.887 1.377 4.42 3.394 4.42zm0-1.074c-1.317 0-2.126-1.172-2.126-3.346 0-2.028.834-3.297 2.126-3.297 1.269 0 2.102 1.269 2.102 3.297 0 2.186-.809 3.346-2.102 3.346zm-18.431 31.097v-3.563h3.89v-1.099h-3.89v-2.681h4.941v-1.111h-6.149v8.454h1.208zm6.86 0v-2.693c0-1.413.555-2.21 1.884-2.21.242 0 .447.024.64.048v-1.159a2.084 2.084 0 00-.555-.061c-1.196 0-1.788.894-1.994 1.353v-1.268h-1.111v5.99h1.136zm5.938.169c1.244 0 2.198-.58 2.633-1.727l-1.039-.374c-.169.422-.591 1.147-1.558 1.147-.821 0-1.619-.483-1.667-1.92h4.216c.217-1.957-.846-3.454-2.633-3.454-1.559 0-2.718 1.232-2.718 3.188 0 2.017 1.099 3.14 2.766 3.14zm-1.607-3.78c.097-1.039.785-1.642 1.559-1.642.797 0 1.473.567 1.485 1.642h-3.044zm8.107 3.78c1.244 0 2.198-.58 2.633-1.727l-1.039-.374c-.169.422-.591 1.147-1.558 1.147-.821 0-1.619-.483-1.667-1.92h4.216c.217-1.957-.846-3.454-2.633-3.454-1.559 0-2.718 1.232-2.718 3.188 0 2.017 1.099 3.14 2.766 3.14zm-1.607-3.78c.097-1.039.785-1.642 1.559-1.642.797 0 1.473.567 1.485 1.642h-3.044zm-33.545 23.634c.483-.362.894-.93.894-1.679 0-.362-.06-.664-.157-.93h1.655v-.942h-2.174c-.254-.41-.46-.821-.46-1.401 0-.966.641-1.497 1.45-1.497.701 0 1.438.423 1.607 1.558l1.208-.29c-.23-1.606-1.559-2.319-2.742-2.319-1.438 0-2.779.882-2.779 2.536 0 .58.193 1.015.435 1.413h-.64v.942h1.232c.157.302.266.64.266 1.063 0 1.196-1.232 1.522-1.522 1.594v1.063h5.713v-1.111h-3.986zm8.468 1.28c1.921 0 2.972-1.341 2.972-2.947 0-1.497-1.039-2.705-2.706-2.705-1.039 0-1.933.58-2.283 1.473 0-2.391 1.292-3.465 2.947-3.465.568 0 1.075.108 1.534.277v-1.171c-.41-.157-1.075-.254-1.57-.254-2.754 0-4.095 2.029-4.095 4.686 0 2.645 1.28 4.106 3.201 4.106zm0-1.051c-.966 0-1.715-.7-1.715-1.787s.749-1.787 1.715-1.787c.942 0 1.716.7 1.716 1.787s-.774 1.787-1.716 1.787zm7.168 1.051c1.812 0 2.935-1.147 2.935-2.814 0-1.666-1.063-2.693-2.67-2.693-.942 0-1.558.374-1.993.894l.169-1.135.266-1.764h3.986v-1.111h-4.88l-.725 4.831 1.281.205c.314-.519.845-.918 1.594-.918 1.063 0 1.728.689 1.728 1.727 0 1.051-.665 1.727-1.74 1.727-.93 0-1.606-.531-1.812-1.485l-1.22.398c.242 1.196 1.293 2.138 3.081 2.138zm5.915-1.739h-1.546v1.57h1.546v-1.57zm4.594 1.739c2.006 0 3.371-1.534 3.371-4.42 0-2.898-1.523-4.372-3.371-4.372-1.86 0-3.394 1.474-3.394 4.372 0 2.886 1.377 4.42 3.394 4.42zm0-1.075c-1.316 0-2.126-1.171-2.126-3.345 0-2.029.834-3.297 2.126-3.297 1.269 0 2.102 1.268 2.102 3.297 0 2.186-.809 3.345-2.102 3.345zm8.14 1.075c2.005 0 3.37-1.534 3.37-4.42 0-2.898-1.522-4.372-3.37-4.372-1.86 0-3.394 1.474-3.394 4.372 0 2.886 1.377 4.42 3.394 4.42zm0-1.075c-1.317 0-2.126-1.171-2.126-3.345 0-2.029.834-3.297 2.126-3.297 1.269 0 2.102 1.268 2.102 3.297 0 2.186-.809 3.345-2.102 3.345z" fill="#000"/><path d="M510.38 175.752H422.8v-1.007h87.58v1.007zm0 31.198H422.8v-1.007h87.58v1.007z" fill="#F2F2F2"/><path d="M524.473 284.441H139.927a2.015 2.015 0 01-2.014-2.013V141.535c0-1.11.903-2.013 2.014-2.013h384.546c1.111 0 2.014.903 2.014 2.013v140.893c0 1.11-.903 2.013-2.014 2.013zM139.927 140.528c-.555 0-1.007.452-1.007 1.007v140.893c0 .555.452 1.007 1.007 1.007h384.546c.556 0 1.007-.452 1.007-1.007V141.535c0-.555-.451-1.007-1.007-1.007H139.927z" fill="#F2F2F2"/><g opacity=".751"><path d="M99.66 356.901h20.133c1.113 0 2.014.9 2.014 2.013v20.127a2.013 2.013 0 01-2.014 2.013H99.66a2.013 2.013 0 01-2.013-2.013v-20.127c0-1.113.9-2.013 2.013-2.013z" fill="#F2F2F2"/><path d="M111.74 373.758v-1.51h2.265v-2.264h1.51v2.264h2.265v1.51h-2.265v2.264h-1.51v-2.264h-2.265zm-3.02-12.832l7.047 7.045-.705.704h-2.366v2.265h-2.265v2.365l-1.711 1.711-7.047-7.045 7.047-7.045zm2.013 9.058a2.848 2.848 0 01-4.026 0 2.846 2.846 0 114.026 0z" fill="#000"/><path d="M147.285 369.984l-3.65-9.863h-1.747l-3.721 9.863h1.381l.973-2.705h4.383l.958 2.705h1.423zM142 363.15c.353-.958.564-1.578.719-1.972.155.394.353.958.705 1.972l1.057 2.973h-3.552L142 363.15zm7.943 6.834v-3.311c0-.987.07-2.804 1.79-2.804.93 0 1.564.507 1.564 1.846v4.269h1.17v-3.354c0-.944.056-2.761 1.804-2.761.93 0 1.564.507 1.564 1.832v4.283h1.198v-4.607c0-1.649-.874-2.565-2.438-2.565-1.423 0-2.072.86-2.354 1.508-.338-.93-1.141-1.508-2.184-1.508-1.268 0-1.889.803-2.142 1.296v-1.098h-1.156v6.974h1.184zm12.58-9.863h-1.268v1.536h1.268v-1.536zm-.028 2.889h-1.198v6.974h1.198v-6.974zm3.565 6.974v-3.142c0-1.677.648-2.705 2.212-2.705.31 0 .578.042.79.07v-1.212c-.17-.056-.381-.084-.705-.084-1.381 0-2.086 1.028-2.325 1.606v-1.507h-1.156v6.974h1.184zm10.468.197c1.818 0 3.284-1.493 3.284-3.677 0-2.17-1.424-3.692-3.284-3.692-1.874 0-3.312 1.522-3.312 3.692 0 2.155 1.48 3.677 3.312 3.677zm0-1.043c-1.184 0-2.058-.845-2.058-2.62 0-1.775.874-2.663 2.058-2.663 1.17 0 2.045.888 2.045 2.663s-.875 2.62-2.045 2.62zm6.309 3.593v-3.86c.338.606 1.015 1.31 2.269 1.31 1.607 0 2.861-1.353 2.861-3.691 0-2.339-1.254-3.678-2.861-3.678-1.24 0-1.959.705-2.297 1.311v-1.113h-1.156v9.721h1.184zm1.931-3.579c-1.142 0-1.988-.873-1.988-2.662 0-1.804.846-2.649 1.988-2.649 1.113 0 1.959.69 1.959 2.649 0 1.93-.846 2.662-1.959 2.662zm7.71 1.029c1.465 0 2.551-.747 3.03-2.001l-1.1-.394c-.211.535-.746 1.381-1.888 1.381-1.001 0-1.973-.592-2.029-2.396h4.974c.24-2.254-1-3.959-3.044-3.959-1.761 0-3.128 1.409-3.128 3.678 0 2.395 1.268 3.691 3.185 3.691zm-1.959-4.368c.098-1.254.916-2.043 1.902-2.043.973 0 1.818.691 1.832 2.043h-3.734zm8.049 4.171v-3.086c0-1.014.085-3.043 1.945-3.043.972 0 1.578.563 1.578 1.888v4.241h1.198v-4.523c0-1.55-.704-2.649-2.438-2.649-1.494 0-2.184 1.057-2.311 1.423v-1.225h-1.156v6.974h1.184zm9.654.197c1.466 0 2.551-.747 3.03-2.001l-1.099-.394c-.212.535-.747 1.381-1.889 1.381-1 0-1.973-.592-2.029-2.396h4.975c.239-2.254-1.001-3.959-3.044-3.959-1.762 0-3.129 1.409-3.129 3.678 0 2.395 1.268 3.691 3.185 3.691zm-1.959-4.368c.099-1.254.916-2.043 1.903-2.043.972 0 1.818.691 1.832 2.043h-3.735zm9.205 4.368c1.226 0 1.945-.704 2.283-1.324v1.127h1.17v-9.863h-1.184v4.016c-.338-.606-1.029-1.325-2.269-1.325-1.607 0-2.875 1.353-2.875 3.692 0 2.324 1.268 3.677 2.875 3.677zm.324-1.029c-1.099 0-1.959-.69-1.959-2.648 0-1.931.86-2.663 1.959-2.663 1.156 0 2.001.873 2.001 2.663 0 1.803-.845 2.648-2.001 2.648zm10.385-9.031h-1.269v1.536h1.269v-1.536zm-.028 2.889h-1.198v6.974h1.198v-6.974zm4.72 7.171c1.804 0 2.805-.859 2.805-2.127 0-1.48-1.452-1.959-2.312-2.156l-.874-.169c-.958-.183-1.198-.479-1.198-.958 0-.522.451-1.001 1.424-1.001 1.127 0 1.578.719 1.733 1.198l1.057-.409c-.267-.873-1.085-1.747-2.776-1.747-1.438 0-2.593.846-2.593 2.071 0 1.311 1.015 1.762 2.156 1.987l.874.169c.958.197 1.296.578 1.296 1.113 0 .648-.549 1.043-1.578 1.043-1.184 0-1.719-.648-1.888-1.381l-1.142.366c.282 1.268 1.508 2.001 3.016 2.001zm6.95 0c1.804 0 2.805-.859 2.805-2.127 0-1.48-1.452-1.959-2.312-2.156l-.874-.169c-.958-.183-1.197-.479-1.197-.958 0-.522.45-1.001 1.423-1.001 1.127 0 1.578.719 1.733 1.198l1.057-.409c-.267-.873-1.085-1.747-2.776-1.747-1.437 0-2.593.846-2.593 2.071 0 1.311 1.015 1.762 2.156 1.987l.874.169c.958.197 1.296.578 1.296 1.113 0 .648-.549 1.043-1.578 1.043-1.184 0-1.719-.648-1.888-1.381l-1.142.366c.282 1.268 1.508 2.001 3.016 2.001zm6.824 0c1.48 0 2.128-1.043 2.34-1.451v1.254h1.169v-6.974h-1.198v3.113c0 1.212-.211 3.001-1.902 3.001-.93 0-1.536-.535-1.536-1.859v-4.255h-1.198v4.536c0 1.564.719 2.635 2.325 2.635zm8.544 0c1.465 0 2.551-.747 3.03-2.001l-1.099-.394c-.212.535-.747 1.381-1.889 1.381-1.001 0-1.973-.592-2.03-2.396h4.976c.239-2.254-1.001-3.959-3.045-3.959-1.761 0-3.128 1.409-3.128 3.678 0 2.395 1.268 3.691 3.185 3.691zm-1.959-4.368c.098-1.254.916-2.043 1.902-2.043.973 0 1.818.691 1.832 2.043h-3.734zm14.979 4.368c2.805 0 4.89-2.071 4.89-5.129 0-3.057-2.085-5.128-4.89-5.128-2.791 0-4.919 2.071-4.919 5.128 0 3.058 2.114 5.129 4.919 5.129zm0-1.155c-2.199 0-3.552-1.719-3.552-3.974 0-2.268 1.353-3.973 3.552-3.973 2.184 0 3.551 1.705 3.551 3.973 0 2.255-1.367 3.974-3.551 3.974zm8.354.958v-8.567l3.453 8.567h.916l3.425-8.567v8.567h1.268v-9.863h-2.015l-2.382 5.96-.719 1.789a50.162 50.162 0 01-.718-1.775l-2.424-5.974h-2.072v9.863h1.268zm17.891 0v-1.17h-5.102c1.733-1.07 3.101-2.057 3.974-3.128.649-.789 1.001-1.676 1.001-2.719 0-1.761-1.198-3.043-3.213-3.043-1.973 0-3.242 1.31-3.256 3.226l1.283.169c0-1.493.902-2.254 1.959-2.254 1.028 0 1.888.691 1.888 2.043 0 2.057-2.354 3.79-5.045 5.481v1.395h6.511zm5.132 0v-9.863h-1.001c-.662 1.212-1.762 1.945-2.917 2.24v1.325c1.085-.183 2.114-.944 2.663-1.846v8.144h1.255zm7.766 0v-2.719h1.494v-1.071h-1.494v-6.073h-1.888l-3.975 5.974v1.17h4.637v2.719h1.226zm-2.72-3.79h-1.888l3.382-5.072v5.072h-1.494z" fill="#666"/><path d="M313.073 364.952a1.007 1.007 0 110 2.014 1.007 1.007 0 010-2.014z" fill="#C4C4C4"/><path d="M320.752 370.153c1.607 0 2.38-.93 2.38-2.899v-5.724h-1.208v5.688c0 1.244-.35 1.86-1.184 1.86-.858 0-1.184-.664-1.172-1.944l-1.244.302c.024 1.702.894 2.717 2.428 2.717zm6.27 0c1.232 0 1.8-.846 1.993-1.196v1.027h1.111v-5.99h-1.135v2.608c0 .93-.073 2.561-1.571 2.561-.749 0-1.232-.435-1.232-1.51v-3.659h-1.135v3.925c0 1.328.604 2.234 1.969 2.234zm7.153 0c1.546 0 2.44-.725 2.44-1.86 0-1.328-1.329-1.715-2.017-1.86l-.713-.133c-.833-.157-1.015-.386-1.015-.772 0-.423.363-.798 1.16-.798.942 0 1.305.592 1.45 1.003l1.002-.387c-.241-.76-.954-1.521-2.44-1.521-1.244 0-2.259.736-2.259 1.811 0 1.147.858 1.534 1.885 1.739l.725.133c.821.157 1.075.459 1.075.882 0 .531-.447.833-1.281.833-.978 0-1.413-.519-1.57-1.135l-1.075.35c.253 1.135 1.377 1.715 2.633 1.715zm7.42-.169v-.978h-1.256c-.411 0-.592-.182-.592-.592v-3.478h1.619v-.942h-1.619v-1.872h-1.136v1.872h-1.365v.942h1.365v3.574c0 .991.52 1.474 1.51 1.474h1.474zm5.5 0v-2.585c0-.845.024-2.584 1.594-2.584.773 0 1.269.435 1.269 1.51v3.659h1.135v-3.925c0-1.329-.604-2.234-2.078-2.234-1.256 0-1.836.881-1.957 1.171v-1.002h-1.099v5.99h1.136zm8.274.169c1.607 0 2.839-1.329 2.839-3.152 0-1.824-1.184-3.176-2.839-3.176s-2.85 1.352-2.85 3.176c0 1.799 1.232 3.152 2.85 3.152zm0-.978c-.99 0-1.667-.701-1.667-2.162 0-1.473.677-2.21 1.667-2.21.979 0 1.655.737 1.655 2.21 0 1.461-.676 2.162-1.655 2.162zm6.87.809l.906-2.899c.35-1.111.459-1.485.58-1.847l.568 1.859.881 2.887h1.341l2.018-5.99h-1.196l-.858 2.753c-.374 1.244-.531 1.739-.628 2.017l-.495-1.654-.943-3.116h-1.328l-.87 2.85a73.206 73.206 0 00-.58 1.932l-.604-1.993-.846-2.789h-1.183l1.956 5.99h1.281z" fill="#666"/><path d="M139.927 379.544h390.586c.834 0 1.51.677 1.51 1.51v48.306a1.51 1.51 0 01-1.51 1.51H139.927a1.51 1.51 0 01-1.51-1.51v-48.306c0-.833.676-1.51 1.51-1.51z" fill="#fff"/><path d="M149.993 391.118c0-1.112.901-2.013 2.014-2.013h28.186c1.113 0 2.014.901 2.014 2.013v28.178a2.012 2.012 0 01-2.014 2.013h-28.186c-1.113 0-2.014-.9-2.014-2.013v-28.178z" fill="#F9E9E1"/><path d="M169.041 394.742h-13.41v13.407h13.41v-13.407zm-3.273 3.273a4.853 4.853 0 10-6.864 6.861 4.853 4.853 0 006.864-6.861zm10.801 17.658h-7.526v-7.524h7.526v7.524z" fill="#FFB18F"/><path d="M196.38 410.956c3.059 0 5.312-2.222 5.312-5.54 0-3.302-2.253-5.54-5.312-5.54-3.061 0-5.359 2.238-5.359 5.54 0 3.318 2.283 5.54 5.359 5.54zm-.016-1.385c-2.329 0-3.714-1.781-3.714-4.155 0-2.374 1.385-4.155 3.714-4.155 2.329 0 3.714 1.781 3.714 4.155 0 2.374-1.385 4.155-3.714 4.155zm8.78 1.171v-3.393c0-1.781.699-2.785 2.374-2.785.304 0 .563.03.807.06v-1.46a2.607 2.607 0 00-.7-.076c-1.507 0-2.253 1.126-2.512 1.705v-1.599h-1.401v7.548h1.432zm7.102.214c1.323 0 2.069-.731 2.435-1.355v1.141h1.4V400.09h-1.43v4.261c-.366-.624-1.097-1.37-2.405-1.37-1.781 0-3.106 1.522-3.106 4.002 0 2.466 1.325 3.973 3.106 3.973zm.395-1.218c-1.156 0-2.024-.701-2.024-2.755 0-2.039.868-2.784 2.024-2.784 1.218 0 2.086.928 2.086 2.784 0 1.857-.868 2.755-2.086 2.755zm8.86 1.218c1.567 0 2.77-.731 3.318-2.177l-1.309-.471c-.213.532-.746 1.445-1.964 1.445-1.035 0-2.039-.609-2.101-2.419h5.313c.274-2.466-1.066-4.353-3.319-4.353-1.964 0-3.424 1.553-3.424 4.018 0 2.541 1.385 3.957 3.486 3.957zm-2.026-4.764c.122-1.309.99-2.07 1.964-2.07 1.005 0 1.858.716 1.873 2.07h-3.837zm8.724 4.55v-3.393c0-1.781.701-2.785 2.375-2.785.305 0 .564.03.807.06v-1.46a2.607 2.607 0 00-.7-.076c-1.507 0-2.253 1.126-2.512 1.705v-1.599h-1.4v7.548h1.43zm9.574 0v-3.56c0-1.036.076-2.938 1.842-2.938.958 0 1.597.502 1.597 1.887v4.611h1.402v-3.56c0-1.036.045-2.938 1.856-2.938.959 0 1.583.502 1.583 1.887v4.611h1.446v-5.006c0-1.796-.943-2.755-2.617-2.755-1.507 0-2.208.883-2.527 1.568-.397-.974-1.248-1.568-2.345-1.568-1.293 0-1.964.791-2.283 1.355v-1.142h-1.385v7.548h1.431zm13.557-10.652h-1.522v1.705h1.522v-1.705zm-.03 3.104h-1.446v7.548h1.446v-7.548zm5.082 7.762c1.948 0 3.074-.914 3.074-2.344 0-1.674-1.674-2.161-2.542-2.344l-.898-.167c-1.049-.198-1.278-.487-1.278-.974 0-.533.456-1.005 1.461-1.005 1.188 0 1.644.746 1.827 1.263l1.263-.487c-.304-.958-1.203-1.917-3.075-1.917-1.568 0-2.846.929-2.846 2.283 0 1.446 1.08 1.933 2.375 2.191l.913.167c1.035.199 1.355.579 1.355 1.112 0 .669-.564 1.049-1.614 1.049-1.233 0-1.781-.654-1.979-1.43l-1.355.441c.32 1.431 1.735 2.162 3.319 2.162zm7.551 0c1.949 0 3.075-.914 3.075-2.344 0-1.674-1.674-2.161-2.542-2.344l-.899-.167c-1.049-.198-1.278-.487-1.278-.974 0-.533.457-1.005 1.462-1.005 1.187 0 1.644.746 1.826 1.263l1.264-.487c-.305-.958-1.203-1.917-3.075-1.917-1.568 0-2.847.929-2.847 2.283 0 1.446 1.081 1.933 2.375 2.191l.914.167c1.035.199 1.354.579 1.354 1.112 0 .669-.563 1.049-1.614 1.049-1.232 0-1.781-.654-1.978-1.43l-1.355.441c.319 1.431 1.735 2.162 3.318 2.162zm6.41-10.866h-1.522v1.705h1.522v-1.705zm-.03 3.104h-1.446v7.548h1.446v-7.548zm3.909 7.548v-3.256c0-1.065.03-3.257 2.009-3.257.975 0 1.599.547 1.599 1.902v4.611h1.43v-4.945c0-1.675-.761-2.816-2.617-2.816-1.583 0-2.314 1.111-2.466 1.476v-1.263h-1.385v7.548h1.43zm12.224 2.968c1.309 0 2.405-.7 2.405-2.115 0-1.263-.958-2.116-2.435-2.116h-3.273c-.517 0-.67-.243-.67-.487 0-.274.258-.547.67-.715.426.228.913.289 1.431.289 1.69 0 2.862-1.095 2.998-2.8l.031-.366c.061-.866.305-1.019.944-1.019h.624v-1.187h-.776c-.777 0-1.111.472-1.248 1.127-.351-.594-1.188-1.34-2.589-1.34-1.765 0-3.044 1.218-3.044 2.816 0 .898.396 1.582.837 1.977-.518.336-1.127.853-1.127 1.599 0 .608.244.974.671 1.232-.442.274-.975.822-.975 1.583 0 .883.533 1.522 2.01 1.522h3.516zm-1.872-6.27c-.99 0-1.629-.655-1.629-1.659 0-.988.639-1.674 1.629-1.674.989 0 1.628.686 1.628 1.674 0 1.004-.639 1.659-1.628 1.659zm-1.249 5.052c-.731 0-1.141-.183-1.141-.791 0-.472.305-.807.547-.959h3.533c.608 0 1.141.152 1.141.868 0 .715-.533.882-1.141.882h-2.939z" fill="#000"/><path d="M297.973 397.156c0-.555.451-1.006 1.007-1.006h37.247c.555 0 1.006.451 1.006 1.006v16.102c0 .556-.451 1.007-1.006 1.007H298.98a1.007 1.007 0 01-1.007-1.007v-16.102z" fill="#E5EDFF"/><path d="M306.952 409.414c2.669 0 4.397-1.812 4.397-4.396 0-2.56-1.74-4.42-4.397-4.42-2.646 0-4.408 1.86-4.408 4.42 0 2.584 1.726 4.396 4.408 4.396zm0-1.341c-1.74 0-2.753-1.304-2.753-3.055 0-1.775 1.013-3.08 2.753-3.08 1.727 0 2.742 1.305 2.742 3.08 0 1.751-1.015 3.055-2.742 3.055zm7.313 3.515v-3.201c.29.459.905 1.027 1.944 1.027 1.522 0 2.549-1.256 2.549-3.188 0-1.933-1.027-3.189-2.549-3.189-1.051 0-1.703.592-1.981 1.027v-.845h-1.425v8.369h1.462zm1.45-3.334c-.894 0-1.51-.676-1.51-2.04 0-1.353.616-2.029 1.51-2.029.857 0 1.51.531 1.51 2.029 0 1.509-.653 2.04-1.51 2.04zm6.951 1.16c1.594 0 2.427-.809 2.813-1.751l-1.327-.495c-.218.507-.617 1.086-1.463 1.086-.773 0-1.438-.446-1.486-1.666h4.24c.194-1.993-.869-3.551-2.801-3.551-1.667 0-2.912 1.268-2.912 3.189 0 1.992 1.16 3.188 2.936 3.188zm-1.426-3.913c.109-.882.677-1.365 1.402-1.365.761 0 1.292.483 1.341 1.365h-2.743zm7.099 3.732v-2.742c0-.724.025-2.222 1.378-2.222.664 0 1.087.387 1.087 1.292v3.672h1.472v-3.998c0-1.316-.59-2.198-2.028-2.198a2.16 2.16 0 00-1.946 1.136v-.954h-1.425v6.014h1.462z" fill="#4B77E0"/><path d="M508.429 405.339a1.541 1.541 0 11-3.083.001 1.541 1.541 0 013.083-.001zm5.506 0a1.542 1.542 0 11-3.084 0 1.542 1.542 0 013.084 0zm3.964 1.542a1.542 1.542 0 10-.001-3.083 1.542 1.542 0 00.001 3.083z" fill="#000"/><path d="M530.513 431.373H139.927a2.015 2.015 0 01-2.014-2.013v-48.306c0-1.11.903-2.013 2.014-2.013h390.586c1.111 0 2.014.903 2.014 2.013v48.306c0 1.11-.903 2.013-2.014 2.013zm-390.586-51.325c-.555 0-1.007.451-1.007 1.006v48.306c0 .555.452 1.007 1.007 1.007h390.586c.556 0 1.007-.452 1.007-1.007v-48.306c0-.555-.451-1.006-1.007-1.006H139.927z" fill="#F2F2F2"/></g><path d="M103.679 308.594h20.133c1.112 0 2.013.901 2.013 2.013v20.128a2.013 2.013 0 01-2.013 2.013h-20.133a2.013 2.013 0 01-2.014-2.013v-20.128c0-1.112.901-2.013 2.014-2.013z" fill="#F2F2F2"/><path d="M113.745 327.044c.738 0 2.014-.67 2.014-2.012h-4.027c0 1.342 1.268 2.012 2.013 2.012zm4.027-5.367v-.671c0-2.059-1.1-3.784-3.02-4.24v-1.462h-2.013v1.462c-1.926.456-3.02 2.174-3.02 4.24v.671l-1.342 1.342v.671h10.737v-.671l-1.342-1.342z" fill="#000"/><path d="M145.57 325.9c2.805 0 4.89-2.071 4.89-5.128 0-3.058-2.085-5.129-4.89-5.129-2.79 0-4.919 2.071-4.919 5.129 0 3.057 2.114 5.128 4.919 5.128zm0-1.155c-2.198 0-3.551-1.719-3.551-3.973 0-2.269 1.353-3.974 3.551-3.974 2.185 0 3.552 1.705 3.552 3.974 0 2.254-1.367 3.973-3.552 3.973zm8.016.958v-3.142c0-1.677.648-2.705 2.213-2.705.31 0 .578.042.789.07v-1.211c-.169-.057-.38-.085-.705-.085-1.381 0-2.085 1.029-2.325 1.606v-1.507h-1.156v6.974h1.184zm6.661.197c1.226 0 1.945-.704 2.283-1.324v1.127h1.17v-9.863h-1.184v4.016c-.338-.606-1.029-1.325-2.269-1.325-1.606 0-2.875 1.353-2.875 3.692 0 2.325 1.269 3.677 2.875 3.677zm.324-1.028c-1.099 0-1.959-.691-1.959-2.649 0-1.93.86-2.663 1.959-2.663 1.156 0 2.002.873 2.002 2.663 0 1.803-.846 2.649-2.002 2.649zm8.161 1.028c1.466 0 2.551-.747 3.031-2.001l-1.1-.394c-.211.535-.747 1.381-1.888 1.381-1.001 0-1.973-.592-2.03-2.395h4.975c.24-2.255-1-3.96-3.044-3.96-1.762 0-3.129 1.409-3.129 3.678 0 2.395 1.269 3.691 3.185 3.691zm-1.959-4.368c.099-1.254.917-2.043 1.903-2.043.973 0 1.818.691 1.832 2.043h-3.735zm8.05 4.171v-3.142c0-1.677.648-2.705 2.212-2.705.31 0 .578.042.79.07v-1.211c-.169-.057-.381-.085-.705-.085-1.381 0-2.086 1.029-2.325 1.606v-1.507h-1.156v6.974h1.184zm10.863 0v-9.863h-1.001c-.662 1.212-1.762 1.945-2.917 2.241v1.324c1.085-.183 2.114-.944 2.663-1.846v8.144h1.255zm8.852 0v-1.17h-5.101c1.733-1.07 3.1-2.057 3.974-3.127.648-.789 1.001-1.677 1.001-2.72 0-1.761-1.198-3.043-3.214-3.043-1.973 0-3.241 1.31-3.255 3.227l1.282.169c0-1.494.902-2.255 1.959-2.255 1.029 0 1.889.691 1.889 2.043 0 2.057-2.354 3.79-5.046 5.481v1.395h6.511zm4.934.197c2.1 0 3.284-1.254 3.284-2.719 0-1.353-.86-2.311-2.03-2.564 1.029-.324 1.818-1.156 1.818-2.381 0-1.452-1.127-2.593-3.086-2.593-1.917 0-3.101 1.212-3.213 2.733l1.31.226c.085-1.085.79-1.846 1.903-1.846 1.001 0 1.804.648 1.804 1.677 0 1.056-.832 1.69-1.832 1.69h-.733v1.099h.733c1.155 0 2.015.677 2.015 1.804 0 1.085-.86 1.761-1.973 1.761-1.268 0-2.1-.845-2.142-2.17l-1.339.282c.127 1.832 1.437 3.001 3.481 3.001zm10.17-.197v-3.086c0-1.014.085-3.043 1.945-3.043.973 0 1.579.564 1.579 1.888v4.241h1.198v-4.523c0-1.55-.747-2.649-2.368-2.649-1.593 0-2.227 1.057-2.354 1.423v-4.114h-1.183v9.863h1.183zm8.767.197c1.142 0 1.847-.521 2.326-1.324.07.69.31 1.127 1.282 1.127h.945v-1.029h-.691c-.338 0-.465-.098-.465-.465v-3.254c0-1.451-.846-2.424-2.734-2.424-1.832 0-2.805 1.001-3.03 1.917l1.155.38c.198-.592.635-1.282 1.875-1.282 1.085 0 1.55.535 1.55 1.366v.24c-2.311.183-4.439.859-4.439 2.776 0 1.225.873 1.972 2.226 1.972zm.31-.986c-.859 0-1.31-.423-1.31-1.085 0-1.169 1.48-1.634 3.213-1.803v.746c0 1.508-.972 2.142-1.903 2.142zm7.893.986c1.804 0 2.803-.859 2.803-2.127 0-1.48-1.45-1.959-2.31-2.156l-.874-.169c-.958-.183-1.198-.479-1.198-.958 0-.521.451-1.001 1.424-1.001 1.127 0 1.578.719 1.733 1.198l1.056-.409c-.268-.873-1.084-1.747-2.775-1.747-1.438 0-2.593.846-2.593 2.072 0 1.31 1.014 1.761 2.156 1.986l.874.169c.958.197 1.296.578 1.296 1.113 0 .648-.549 1.043-1.578 1.043-1.184 0-1.72-.648-1.889-1.381l-1.141.366c.282 1.268 1.508 2.001 3.016 2.001zm9.455-.197v-3.086c0-1.014.085-3.043 1.945-3.043.973 0 1.579.564 1.579 1.888v4.241h1.198v-4.523c0-1.55-.706-2.649-2.44-2.649-1.493 0-2.183 1.057-2.31 1.423v-1.225h-1.156v6.974h1.184zm9.754.197c1.818 0 3.284-1.493 3.284-3.677 0-2.17-1.424-3.692-3.284-3.692-1.874 0-3.312 1.522-3.312 3.692 0 2.155 1.48 3.677 3.312 3.677zm0-1.042c-1.184 0-2.058-.846-2.058-2.621s.874-2.663 2.058-2.663c1.17 0 2.044.888 2.044 2.663s-.874 2.621-2.044 2.621zm9.087.845v-1.029h-1.381c-.55 0-.804-.253-.804-.803v-4.142h1.931v-1h-1.931v-2.156h-1.183v2.156h-1.635v1h1.635v4.241c0 1.155.592 1.733 1.79 1.733h1.578zm8.629.197c1.607 0 2.86-1.352 2.86-3.691 0-2.339-1.253-3.678-2.86-3.678-1.254 0-1.945.705-2.269 1.311v-4.002h-1.184v9.863h1.156v-1.127c.338.62 1.057 1.324 2.297 1.324zm-.338-1.028c-1.141 0-1.987-.874-1.987-2.663 0-1.804.846-2.649 1.987-2.649 1.113 0 1.959.69 1.959 2.649 0 1.93-.846 2.663-1.959 2.663zm7.71 1.028c1.466 0 2.551-.747 3.03-2.001l-1.099-.394c-.211.535-.747 1.381-1.889 1.381-1 0-1.973-.592-2.029-2.395h4.975c.24-2.255-1.001-3.96-3.044-3.96-1.762 0-3.13 1.409-3.13 3.678 0 2.395 1.269 3.691 3.186 3.691zm-1.959-4.368c.099-1.254.916-2.043 1.903-2.043.972 0 1.818.691 1.832 2.043h-3.735zm9.515 4.368c1.466 0 2.551-.747 3.03-2.001l-1.099-.394c-.211.535-.747 1.381-1.889 1.381-1 0-1.974-.592-2.03-2.395h4.976c.24-2.255-1.001-3.96-3.044-3.96-1.762 0-3.129 1.409-3.129 3.678 0 2.395 1.268 3.691 3.185 3.691zm-1.96-4.368c.099-1.254.917-2.043 1.904-2.043.972 0 1.818.691 1.832 2.043h-3.736zm8.05 4.171v-3.086c0-1.014.085-3.043 1.945-3.043.973 0 1.579.564 1.579 1.888v4.241h1.198v-4.523c0-1.55-.705-2.649-2.438-2.649-1.494 0-2.185 1.057-2.312 1.423v-1.225h-1.155v6.974h1.183zm11.849 2.747v-3.86c.338.606 1.016 1.31 2.27 1.31 1.607 0 2.861-1.352 2.861-3.691 0-2.339-1.254-3.678-2.861-3.678-1.24 0-1.96.705-2.298 1.311v-1.113h-1.155v9.721h1.183zm1.932-3.578c-1.142 0-1.988-.874-1.988-2.663 0-1.804.846-2.649 1.988-2.649 1.113 0 1.959.69 1.959 2.649 0 1.93-.846 2.663-1.959 2.663zm6.271-9.032h-1.267v1.536h1.267v-1.536zm-.028 2.889h-1.197v6.974h1.197v-6.974zm5.172 7.171c1.565 0 2.608-.93 3.045-2.212l-1.129-.394c-.24.789-.774 1.564-1.93 1.564-1.155 0-2.071-.86-2.071-2.649 0-1.761.944-2.635 2.057-2.635 1.015 0 1.564.634 1.803 1.353l1.114-.381c-.324-1.071-1.324-2.015-2.903-2.015-1.931 0-3.327 1.522-3.327 3.678 0 2.254 1.34 3.691 3.341 3.691zm11.434-.197l-3.396-4.086 3.113-2.888h-1.563l-3.721 3.55v-6.439h-1.184v9.863h1.184v-2.085l1.325-1.226 2.692 3.311h1.55zm3.593.197c1.466 0 2.551-.747 3.03-2.001l-1.099-.394c-.212.535-.747 1.381-1.889 1.381-1 0-1.973-.592-2.03-2.395h4.975c.239-2.255-1-3.96-3.044-3.96-1.761 0-3.128 1.409-3.128 3.678 0 2.395 1.268 3.691 3.185 3.691zm-1.96-4.368c.099-1.254.917-2.043 1.903-2.043.973 0 1.819.691 1.833 2.043h-3.736zm9.205 4.368c1.226 0 1.945-.704 2.283-1.324v1.127h1.17v-9.863h-1.185v4.016c-.338-.606-1.028-1.325-2.268-1.325-1.607 0-2.876 1.353-2.876 3.692 0 2.325 1.269 3.677 2.876 3.677zm.324-1.028c-1.099 0-1.959-.691-1.959-2.649 0-1.93.86-2.663 1.959-2.663 1.156 0 2 .873 2 2.663 0 1.803-.844 2.649-2 2.649zm11.385 1.028c1.48 0 2.128-1.042 2.34-1.451v1.254h1.169v-6.974h-1.197v3.113c0 1.212-.213 3.001-1.904 3.001-.93 0-1.535-.535-1.535-1.859v-4.255h-1.198v4.536c0 1.564.719 2.635 2.325 2.635zm7.077 2.55v-3.86c.338.606 1.016 1.31 2.27 1.31 1.607 0 2.86-1.352 2.86-3.691 0-2.339-1.253-3.678-2.86-3.678-1.24 0-1.96.705-2.298 1.311v-1.113h-1.155v9.721h1.183zm1.932-3.578c-1.141 0-1.988-.874-1.988-2.663 0-1.804.847-2.649 1.988-2.649 1.113 0 1.959.69 1.959 2.649 0 1.93-.846 2.663-1.959 2.663z" fill="#666"/><path d="M362.392 320.671a1.007 1.007 0 110 2.014 1.007 1.007 0 010-2.014z" fill="#C4C4C4"/><path d="M370.071 325.872c1.606 0 2.38-.93 2.38-2.898v-5.725h-1.208v5.688c0 1.244-.351 1.86-1.184 1.86-.858 0-1.184-.664-1.172-1.944l-1.244.302c.024 1.703.894 2.717 2.428 2.717zm6.269 0c1.233 0 1.8-.845 1.994-1.196v1.027h1.111v-5.99h-1.136v2.608c0 .93-.072 2.561-1.57 2.561-.749 0-1.232-.435-1.232-1.51v-3.659h-1.136v3.925c0 1.328.604 2.234 1.969 2.234zm7.154 0c1.546 0 2.44-.725 2.44-1.86 0-1.328-1.329-1.715-2.017-1.86l-.713-.132c-.834-.157-1.015-.387-1.015-.773 0-.423.362-.797 1.16-.797.942 0 1.304.591 1.449 1.002l1.003-.387c-.242-.76-.954-1.521-2.44-1.521-1.244 0-2.259.737-2.259 1.811 0 1.148.858 1.534 1.884 1.739l.725.133c.822.157 1.075.459 1.075.882 0 .531-.447.833-1.28.833-.979 0-1.414-.519-1.571-1.135l-1.075.35c.254 1.135 1.377 1.715 2.634 1.715zm7.42-.169v-.978h-1.256c-.411 0-.592-.181-.592-.592v-3.478h1.618v-.942h-1.618v-1.872h-1.136v1.872h-1.365v.942h1.365v3.575c0 .99.52 1.473 1.51 1.473h1.474zm5.499 0v-2.584c0-.846.024-2.585 1.595-2.585.773 0 1.268.435 1.268 1.51v3.659h1.136v-3.925c0-1.328-.604-2.234-2.078-2.234-1.256 0-1.836.881-1.957 1.171v-1.002h-1.099v5.99h1.135zm8.275.169c1.607 0 2.839-1.328 2.839-3.152s-1.184-3.176-2.839-3.176-2.851 1.352-2.851 3.176c0 1.799 1.232 3.152 2.851 3.152zm0-.978c-.99 0-1.667-.701-1.667-2.162 0-1.473.677-2.21 1.667-2.21.979 0 1.655.737 1.655 2.21 0 1.461-.676 2.162-1.655 2.162zm6.87.809l.906-2.898c.35-1.112.459-1.486.579-1.848l.568 1.86.882 2.886h1.341l2.017-5.99h-1.196l-.857 2.753c-.375 1.244-.532 1.739-.629 2.017l-.495-1.654-.942-3.116h-1.329l-.87 2.85a71.3 71.3 0 00-.579 1.932l-.604-1.992-.846-2.79h-1.184l1.957 5.99h1.281z" fill="#666"/><path d="M45.307 174.328l.873 12.677-10.507.724-.873-12.678 10.507-.723z" fill="#fff"/><path d="M39.88 171.541c5.311-.366 9.92 3.648 10.286 8.958.366 5.309-3.649 9.917-8.96 10.283-5.31.366-9.92-3.648-10.286-8.958-.366-5.309 3.65-9.917 8.96-10.283zm2.276 4.696l-3.886.268.66 9.581 3.886-.268-.66-9.581z" fill="#FFC7AF"/></g><defs><clipPath id="clip0"><path fill="#fff" d="M0 0h526v431H0z"/></clipPath></defs></svg>