<svg width="519" height="376" fill="none" xmlns="http://www.w3.org/2000/svg"><g clip-path="url(#clip0)"><path d="M23.406 80.93v7.866h-7.868V80.93h7.868zm32.904 0v7.866h-7.87V80.93h7.869zm32.903 0v7.866h-7.868V80.93h7.868zm32.904 0v7.866h-7.869V80.93h7.869zm32.903 0v7.866h-7.869V80.93h7.869zm32.904 0v7.866h-7.869V80.93h7.869zm32.903 0v7.866h-7.869V80.93h7.869zm32.904 0v7.866h-7.869V80.93h7.869zm32.902 0v7.866h-7.868V80.93h7.868zM23.406 38.628v7.866h-7.868v-7.866h7.868zm32.904 0v7.866h-7.87v-7.866h7.869zm32.903 0v7.866h-7.868v-7.866h7.868zm32.904 0v7.866h-7.869v-7.866h7.869zm32.903 0v7.866h-7.869v-7.866h7.869zM187.924.097v7.867h-7.869V.097h7.869zm-.272 38.606v7.867h-7.869v-7.867h7.869zm33.175-.075v7.866h-7.869v-7.866h7.869zm32.904 0v7.866h-7.869v-7.866h7.869zm32.902 0v7.866h-7.868v-7.866h7.868zM23.406 120.187v7.867h-7.868v-7.867h7.868zm32.904 0v7.867h-7.87v-7.867h7.869zm32.903 0v7.867h-7.868v-7.867h7.868zm32.904 0v7.867h-7.869v-7.867h7.869zm32.903 0v7.867h-7.869v-7.867h7.869zm32.904 0v7.867h-7.869v-7.867h7.869zm32.903 0v7.867h-7.869v-7.867h7.869zm32.904 0v7.867h-7.869v-7.867h7.869zm32.902 0v7.867h-7.868v-7.867h7.868zM23.406 160.232v7.867h-7.868v-7.867h7.868zm32.904 0v7.867h-7.87v-7.867h7.869zm32.903 0v7.867h-7.868v-7.867h7.868zm32.904 0v7.867h-7.869v-7.867h7.869zm32.903 0v7.867h-7.869v-7.867h7.869zm32.904 0v7.867h-7.869v-7.867h7.869zm32.903 0v7.867h-7.869v-7.867h7.869zm32.904 0v7.867h-7.869v-7.867h7.869zm32.902 0v7.867h-7.868v-7.867h7.868zM23.406 200.277v7.867h-7.868v-7.867h7.868zm32.904 0v7.867h-7.87v-7.867h7.869zm32.903 0v7.867h-7.868v-7.867h7.868zm32.904 0v7.867h-7.869v-7.867h7.869zm32.903 0v7.867h-7.869v-7.867h7.869zm32.904 0v7.867h-7.869v-7.867h7.869zm32.903 0v7.867h-7.869v-7.867h7.869zm32.904 0v7.867h-7.869v-7.867h7.869zm32.902 0v7.867h-7.868v-7.867h7.868zm-263.227 43.62v7.867h-7.868v-7.867h7.868zm32.904 0v7.867h-7.87v-7.867h7.869zm32.903 0v7.867h-7.868v-7.867h7.868zm32.904 0v7.867h-7.869v-7.867h7.869zm32.903 0v7.867h-7.869v-7.867h7.869zm32.904 0v7.867h-7.869v-7.867h7.869zm32.903 0v7.867h-7.869v-7.867h7.869zm32.904 0v7.867h-7.869v-7.867h7.869zm32.902 0v7.867h-7.868v-7.867h7.868zM23.406 291.08v7.867h-7.868v-7.867h7.868zm32.904 0v7.867h-7.87v-7.867h7.869zm32.903 0v7.867h-7.868v-7.867h7.868zm32.904 0v7.867h-7.869v-7.867h7.869zm32.903 0v7.867h-7.869v-7.867h7.869zm32.904 0v7.867h-7.869v-7.867h7.869zm32.903 0v7.867h-7.869v-7.867h7.869zm32.904 0v7.867h-7.869v-7.867h7.869zm32.902 0v7.867h-7.868v-7.867h7.868zm38.129-210.15v7.866h-7.868V80.93h7.868zm0-42.302v7.866h-7.868v-7.866h7.868zM23.406.097v7.867h-7.868V.097h7.868zm32.904 0v7.867h-7.87V.097h7.869zm32.903 0v7.867h-7.869V.097h7.87zm32.904 0v7.867h-7.869V.097h7.869zm32.903 0v7.867h-7.868V.097h7.868zm65.807 0v7.867h-7.869V.097h7.869zm32.904 0v7.867h-7.869V.097h7.869zm32.902 0v7.867h-7.868V.097h7.868zm38.13 0v7.867h-7.869V.097h7.869zm-.001 120.09v7.867h-7.868v-7.867h7.868zm36.585 0v7.867h-7.869v-7.867h7.869zm-36.585 40.045v7.867h-7.868v-7.867h7.868zm0 40.045v7.867h-7.868v-7.867h7.868zm0 43.62v7.867h-7.868v-7.867h7.868zm0 47.183v7.867h-7.868v-7.867h7.868zm36.585-210.15v7.866h-7.869V80.93h7.869zm0-42.302v7.866h-7.869v-7.866h7.869zm0-38.531v7.867h-7.869V.097h7.869zm0 160.135v7.867h-7.869v-7.867h7.869zm0 40.045v7.867h-7.869v-7.867h7.869zm0 43.62v7.867h-7.869v-7.867h7.869zm0 47.184v7.866h-7.869v-7.866h7.869zM396.915 80.93v7.866h-7.869V80.93h7.869zm0-42.302v7.866h-7.869v-7.866h7.869zm0-38.531v7.867h-7.869V.097h7.869zm0 120.09v7.867h-7.869v-7.867h7.869zm0 40.045v7.867h-7.869v-7.867h7.869zm0 40.045v7.867h-7.869v-7.867h7.869zm0 43.62v7.867h-7.869v-7.867h7.869zm0 47.184v7.866h-7.869v-7.866h7.869z" fill="#000" fill-opacity=".05"/><path d="M518.136 81.602v293.934H115.264V81.602h402.872z" fill="#fff"/><path d="M518.136 81.602v293.934H115.264V81.602h402.872z" stroke="#E0E0E0" stroke-width=".956"/><path d="M178.73 197.721c-1.088 0-1.939.725-2.102 2.047h4.113c-.072-1.322-.87-2.047-2.011-2.047z" fill="#fff"/><path d="M142.925 192.686h-2.356v12.68h2.356v-12.68zm46.381 7.209l-1.178-.217c-1.087-.199-1.359-.471-1.359-.996 0-.544.453-1.015 1.468-1.015 1.123 0 1.721.688 1.975 1.377l1.866-.797c-.38-1.015-1.504-2.174-3.751-2.174-2.192 0-3.696 1.123-3.696 2.808 0 1.739 1.196 2.355 2.935 2.699l1.214.235c1.051.2 1.323.616 1.323 1.124 0 .615-.562 1.05-1.613 1.05-1.631 0-2.065-1.105-2.192-1.612l-2.03.652c.381 1.649 2.102 2.591 4.132 2.591 2.518 0 3.986-1.142 3.986-2.899 0-1.848-1.667-2.536-3.08-2.826zm-40.082 4.094c-1.631 0-2.065-1.105-2.192-1.612l-2.03.652c.381 1.649 2.102 2.591 4.132 2.591 2.518 0 3.986-1.142 3.986-2.899 0-1.848-1.667-2.536-3.08-2.826l-1.178-.217c-1.087-.199-1.359-.471-1.359-.996 0-.544.453-1.015 1.468-1.015 1.123 0 1.721.688 1.975 1.377l1.866-.797c-.38-1.015-1.504-2.174-3.751-2.174-2.192 0-3.696 1.123-3.696 2.808 0 1.739 1.196 2.355 2.935 2.699l1.214.235c1.051.2 1.323.616 1.323 1.124 0 .615-.562 1.05-1.613 1.05zm23.074 1.377v-9.021h-2.211v4.239c0 1.431-.326 3.188-2.047 3.188-.96 0-1.558-.544-1.558-1.938v-5.489h-2.211v6.014c0 1.974.997 3.279 2.863 3.279 1.776 0 2.609-1.16 2.972-1.757v1.485h2.192zm-13.784-1.377c-1.631 0-2.066-1.105-2.193-1.612l-2.029.652c.38 1.649 2.102 2.591 4.131 2.591 2.519 0 3.987-1.142 3.987-2.899 0-1.848-1.667-2.536-3.081-2.826l-1.178-.217c-1.087-.199-1.359-.471-1.359-.996 0-.544.453-1.015 1.468-1.015 1.124 0 1.722.688 1.975 1.377l1.867-.797c-.381-1.015-1.504-2.174-3.751-2.174-2.193 0-3.697 1.123-3.697 2.808 0 1.739 1.196 2.355 2.936 2.699l1.214.235c1.051.2 1.322.616 1.322 1.124 0 .615-.561 1.05-1.612 1.05zm20.288-.09c-1.16 0-2.156-.671-2.229-2.5h6.36c.29-2.989-1.304-5.326-4.203-5.326-2.501 0-4.367 1.902-4.367 4.782 0 2.989 1.739 4.783 4.403 4.783 2.392 0 3.642-1.214 4.222-2.627l-1.993-.743c-.327.761-.924 1.631-2.193 1.631zm-.072-6.178c1.141 0 1.938.725 2.011 2.047h-4.113c.163-1.322 1.014-2.047 2.102-2.047z" fill="#1C1C1C"/><path d="M178.18 228.513h-36.24a2.013 2.013 0 00-2.013 2.013v36.23c0 1.112.901 2.012 2.013 2.012h36.24c1.112 0 2.013-.9 2.013-2.012v-36.23a2.013 2.013 0 00-2.013-2.013z" fill="#E2F7F6"/><path d="M160.06 234.551c-7.784 0-14.093 6.308-14.093 14.09 0 7.781 6.309 14.089 14.093 14.089s14.093-6.308 14.093-14.089c0-7.782-6.309-14.09-14.093-14.09zm9.06 23.147H151v-18.115h18.12v18.115z" fill="#85DAD4"/><path d="M164.331 248.641l-4.272-4.27-4.27 4.27 4.27 4.27 4.272-4.27z" fill="#85DAD4"/><path d="M206.688 237.042c-.967 0-1.827.755-1.948 2.053h3.805c-.015-1.344-.861-2.053-1.857-2.053zm-9.776 17.842h-2.223v2.766h2.223c.942 0 1.643-.435 1.643-1.389s-.701-1.377-1.643-1.377zm67.641-17.767c-1.148 0-2.009.74-2.009 2.763 0 2.038.861 2.732 2.009 2.732 1.208 0 2.084-.89 2.084-2.732s-.876-2.763-2.084-2.763zm11.29 24.3c.978 0 1.655-.7 1.655-2.161 0-1.474-.677-2.21-1.655-2.21-.991 0-1.667.736-1.667 2.21 0 1.461.676 2.161 1.667 2.161zm6.153-24.375c-.967 0-1.828.755-1.948 2.053h3.805c-.015-1.344-.861-2.053-1.857-2.053zm-44.163.075c-1.148 0-2.008.74-2.008 2.763 0 2.038.86 2.732 2.008 2.732 1.208 0 2.069-.89 2.069-2.732s-.861-2.763-2.069-2.763zm-37.708-.966c0-1.192-.875-1.72-2.053-1.72h-2.779v3.456h2.779c1.178 0 2.053-.543 2.053-1.736zm6.77 20.11c0-.954-.7-1.377-1.643-1.377h-2.222v2.766h2.222c.943 0 1.643-.435 1.643-1.389zm49.457-19.219c-.967 0-1.827.755-1.948 2.053h3.805c-.015-1.344-.861-2.053-1.857-2.053z" fill="#fff"/><path d="M270.336 236.121v4.906c0 1.661.755 2.793 2.462 2.793 1.54 0 2.25-1.057 2.491-1.495v1.284h1.389v-7.488h-1.419v3.261c0 1.162-.091 3.2-1.963 3.2-.936 0-1.54-.543-1.54-1.887v-4.574h-1.42zm22.578 5.374c0-1.66-1.661-2.144-2.522-2.325l-.891-.166c-1.042-.196-1.268-.483-1.268-.966 0-.528.453-.996 1.449-.996 1.178 0 1.631.74 1.812 1.253l1.254-.483c-.302-.951-1.193-1.902-3.05-1.902-1.556 0-2.824.921-2.824 2.264 0 1.434 1.072 1.917 2.355 2.174l.906.166c1.027.196 1.344.573 1.344 1.102 0 .664-.558 1.041-1.6 1.041-1.223 0-1.767-.649-1.963-1.419l-1.344.438c.317 1.419 1.721 2.144 3.292 2.144 1.932 0 3.05-.906 3.05-2.325zm-60.366 2.113v-4.906c0-1.66-.756-2.792-2.598-2.792-1.571 0-2.295 1.102-2.446 1.464v-1.253h-1.374v7.487h1.419v-3.23c0-1.057.03-3.23 1.993-3.23.967 0 1.586.543 1.586 1.886v4.574h1.42zm66.591-1.222h-1.57c-.514 0-.74-.226-.74-.739v-4.348h2.023v-1.178h-2.023v-2.34h-1.42v2.34h-1.706v1.178h1.706v4.469c0 1.238.65 1.842 1.888 1.842h1.842v-1.224zm-59.283.09v1.133h1.39v-10.567h-1.42v4.226c-.362-.619-1.087-1.358-2.386-1.358-1.766 0-3.08 1.509-3.08 3.97 0 2.445 1.314 3.94 3.08 3.94 1.314 0 2.054-.725 2.416-1.344zm-2.023.136c-1.148 0-2.008-.694-2.008-2.732 0-2.023.86-2.763 2.008-2.763 1.208 0 2.069.921 2.069 2.763 0 1.842-.861 2.732-2.069 2.732zm9.738-6.491v7.489h1.419v-3.367c0-1.766.696-2.763 2.357-2.763.302 0 .558.03.8.06v-1.449a2.612 2.612 0 00-.695-.076c-1.495 0-2.236 1.118-2.492 1.692v-1.586h-1.389zm8.78-.211c-1.948 0-3.398 1.539-3.398 3.985 0 2.521 1.374 3.925 3.458 3.925 1.555 0 2.749-.725 3.293-2.159l-1.299-.468c-.211.529-.741 1.434-1.949 1.434-1.026 0-2.023-.604-2.083-2.4h5.271c.271-2.445-1.058-4.317-3.293-4.317zm-1.948 3.185c.121-1.298.982-2.053 1.949-2.053.996 0 1.842.709 1.857 2.053h-3.806zm12.143 7.458h1.42v-10.432h-1.39v1.147c-.362-.619-1.102-1.358-2.416-1.358-1.766 0-3.08 1.509-3.08 3.97 0 2.445 1.314 3.941 3.08 3.941 1.299 0 2.024-.725 2.386-1.344v4.076zm-1.993-3.941c-1.148 0-2.008-.694-2.008-2.732 0-2.023.86-2.763 2.008-2.763 1.208 0 2.084.921 2.084 2.763 0 1.842-.876 2.732-2.084 2.732zm-57.866-6.702c-1.948 0-3.398 1.539-3.398 3.985 0 2.521 1.374 3.925 3.458 3.925 1.555 0 2.748-.725 3.292-2.159l-1.298-.468c-.211.529-.741 1.434-1.949 1.434-1.026 0-2.023-.604-2.083-2.4h5.271c.271-2.445-1.058-4.317-3.293-4.317zm-1.948 3.185c.121-1.298.981-2.053 1.948-2.053.996 0 1.842.709 1.857 2.053h-3.805zm10.014-4.831h1.465v-1.222h-1.737c-1.238 0-1.887.618-1.887 1.977v1.102h-1.631v1.178h1.631v6.31h1.419v-6.31h1.933v-1.178h-1.933v-1.117c0-.513.212-.74.74-.74zm7.509 8.061v1.284h1.389v-7.488h-1.419v3.261c0 1.162-.091 3.2-1.963 3.2-.936 0-1.54-.543-1.54-1.887v-4.574h-1.42v4.906c0 1.661.755 2.793 2.461 2.793 1.541 0 2.25-1.057 2.492-1.495zm-20.355 1.284l-.528-2.657c-.257-1.283-.77-1.993-2.19-2.219 1.374-.272 2.522-1.193 2.522-2.823 0-1.616-1.223-2.868-3.413-2.868h-4.515v10.567h1.51v-4.363h2.19c1.419 0 2.114.498 2.355 1.842l.423 2.521h1.646zm-6.614-5.722v-3.457h2.779c1.178 0 2.053.529 2.053 1.721 0 1.193-.875 1.736-2.053 1.736h-2.779zm86.763 5.933c1.555 0 2.748-.725 3.292-2.159l-1.298-.468c-.211.529-.741 1.434-1.949 1.434-1.027 0-2.023-.604-2.084-2.4h5.271c.272-2.445-1.058-4.317-3.292-4.317-1.948 0-3.398 1.539-3.398 3.985 0 2.521 1.374 3.925 3.458 3.925zm-.06-6.778c.996 0 1.842.709 1.857 2.053h-3.805c.12-1.298.981-2.053 1.948-2.053z" fill="#000"/><path d="M203.03 258.736h1.751c1.136 0 1.691.399 1.885 1.474l.338 2.017h1.317l-.423-2.126c-.206-1.026-.616-1.594-1.752-1.775 1.1-.218 2.018-.954 2.018-2.258 0-1.293-.979-2.295-2.73-2.295h-3.612v8.454h1.208v-3.491zm0-3.852h2.222c.943 0 1.643.423 1.643 1.377s-.7 1.389-1.643 1.389h-2.222v-2.766zm18.811 6.014v1.329h5.666v-1.111h-4.337c1.498-.906 2.621-1.703 3.346-2.536.58-.677.894-1.45.894-2.355 0-1.51-1.039-2.621-2.79-2.621-1.764 0-2.839 1.171-2.851 2.778l1.22.169c0-1.196.7-1.86 1.618-1.86.834 0 1.535.567 1.535 1.666 0 1.691-1.945 3.092-4.301 4.541zm-22.018-4.83c0-1.293-.978-2.295-2.73-2.295h-3.612v8.454h1.208v-3.491h1.752c1.135 0 1.691.399 1.884 1.474l.339 2.017h1.316l-.422-2.126c-.206-1.026-.616-1.594-1.752-1.775 1.099-.218 2.017-.954 2.017-2.258zm-2.911 1.582h-2.223v-2.766h2.223c.942 0 1.643.423 1.643 1.377s-.701 1.389-1.643 1.389zm15.605 4.746c1.788 0 2.851-1.051 2.851-2.331 0-1.147-.7-1.956-1.703-2.186.894-.29 1.546-1.002 1.546-2.041 0-1.268-.99-2.234-2.694-2.234-1.691 0-2.706 1.051-2.814 2.355l1.244.205c.085-.881.652-1.509 1.57-1.509.81 0 1.474.531 1.474 1.376 0 .87-.676 1.389-1.498 1.389h-.604v1.027h.604c.942 0 1.631.543 1.631 1.461 0 .894-.701 1.437-1.607 1.437-1.026 0-1.703-.7-1.751-1.799l-1.269.265c.121 1.57 1.257 2.585 3.02 2.585zm6.172-.169h1.196v-8.454h-.978c-.544 1.014-1.486 1.618-2.489 1.86v1.256c.93-.133 1.812-.773 2.271-1.546v6.884z" fill="#666"/><path d="M233.547 256.691a1.007 1.007 0 100 2.014 1.007 1.007 0 000-2.014z" fill="#C4C4C4"/><path d="M257.089 260.536c0-1.328-1.329-1.715-2.018-1.86l-.713-.133c-.833-.157-1.014-.386-1.014-.773 0-.422.362-.797 1.159-.797.943 0 1.305.592 1.45 1.003l1.003-.387c-.242-.761-.955-1.521-2.44-1.521-1.245 0-2.259.736-2.259 1.811 0 1.147.857 1.534 1.884 1.739l.725.133c.821.157 1.075.459 1.075.882 0 .531-.447.833-1.281.833-.978 0-1.413-.519-1.57-1.135l-1.075.35c.254 1.135 1.377 1.715 2.633 1.715 1.547 0 2.441-.725 2.441-1.86zm18.754 1.86c1.606 0 2.839-1.329 2.839-3.152 0-1.824-1.184-3.176-2.839-3.176s-2.851 1.352-2.851 3.176c0 1.799 1.232 3.152 2.851 3.152zm0-5.35c.978 0 1.655.737 1.655 2.21 0 1.461-.677 2.162-1.655 2.162-.991 0-1.667-.701-1.667-2.162 0-1.473.676-2.21 1.667-2.21zm-34.63 4.275c-.857 0-1.183-.664-1.171-1.945l-1.245.302c.025 1.703.894 2.718 2.429 2.718 1.606 0 2.379-.93 2.379-2.899v-5.724h-1.208v5.688c0 1.244-.35 1.86-1.184 1.86zm41.499.906l.906-2.899c.351-1.111.459-1.485.58-1.848l.568 1.86.882 2.887h1.341l2.017-5.99h-1.196l-.858 2.753c-.374 1.244-.531 1.739-.628 2.017l-.495-1.655-.942-3.115h-1.329l-.87 2.85a77.753 77.753 0 00-.58 1.932l-.604-1.993-.845-2.789h-1.184l1.957 5.99h1.28zm-12.281 0h1.135v-3.925c0-1.329-.604-2.234-2.077-2.234-1.257 0-1.836.881-1.957 1.171v-1.002h-1.1v5.99h1.136v-2.585c0-.845.024-2.584 1.595-2.584.773 0 1.268.435 1.268 1.509v3.66zm-8.362-.979h-1.257c-.41 0-.592-.181-.592-.591v-3.478h1.619v-.942h-1.619v-1.872h-1.135v1.872h-1.365v.942h1.365v3.574c0 .991.519 1.474 1.51 1.474h1.474v-.979zm-11.469.979v-5.99h-1.136v2.608c0 .93-.072 2.56-1.57 2.56-.749 0-1.232-.434-1.232-1.509v-3.659h-1.136v3.924c0 1.329.604 2.235 1.969 2.235 1.232 0 1.8-.846 1.993-1.196v1.027h1.112z" fill="#7A7A7A"/><path d="M294.953 256.691a1.007 1.007 0 10.002 2.014 1.007 1.007 0 00-.002-2.014z" fill="#C4C4C4"/><path d="M343.273 249.647h-43.286v16.102h43.286v-16.102zm-32.39 12.246c-2.44 0-4.252-1.764-4.252-4.396 0-2.621 1.824-4.396 4.252-4.396s4.216 1.775 4.216 4.396c0 2.632-1.788 4.396-4.216 4.396zm8.864 0c-1.051 0-1.619-.58-1.909-1.075v3.26h-1.136v-8.344h1.1v.905c.29-.495.894-1.075 1.945-1.075 1.413 0 2.452 1.196 2.452 3.165 0 1.956-1.039 3.164-2.452 3.164zm6.317 0c-1.667 0-2.766-1.123-2.766-3.14 0-1.957 1.16-3.189 2.718-3.189 1.788 0 2.851 1.498 2.633 3.454h-4.215c.048 1.438.845 1.921 1.667 1.921.966 0 1.389-.725 1.558-1.148l1.039.375c-.435 1.147-1.389 1.727-2.634 1.727zm9.315-.169h-1.135v-3.66c0-1.074-.496-1.509-1.269-1.509-1.57 0-1.594 1.739-1.594 2.584v2.585h-1.136v-5.99h1.099v1.002c.121-.29.701-1.172 1.957-1.172 1.474 0 2.078.906 2.078 2.235v3.925z" fill="#E5EDFF"/><path d="M326.016 256.47c-.773 0-1.462.604-1.558 1.643h3.044c-.012-1.075-.689-1.643-1.486-1.643zm-6.596.061c-.954 0-1.643.712-1.643 2.186 0 1.473.689 2.21 1.643 2.21.931 0 1.607-.592 1.607-2.21 0-1.631-.676-2.186-1.607-2.186zm-8.549-2.331c-1.848 0-2.948 1.413-2.948 3.297 0 1.884 1.1 3.297 2.948 3.297 1.848 0 2.947-1.413 2.947-3.297 0-1.884-1.099-3.297-2.947-3.297z" fill="#E5EDFF"/><path d="M326.101 260.939c-.822 0-1.619-.484-1.667-1.921h4.215c.218-1.956-.845-3.454-2.633-3.454-1.558 0-2.718 1.232-2.718 3.189 0 2.016 1.099 3.14 2.766 3.14 1.245 0 2.199-.58 2.634-1.727l-1.039-.375c-.169.423-.592 1.148-1.558 1.148zm-.085-4.469c.797 0 1.474.568 1.486 1.643h-3.044c.096-1.039.785-1.643 1.558-1.643zm-6.269-.906c-1.051 0-1.655.58-1.945 1.075v-.905h-1.1v8.344h1.136v-3.26c.29.495.858 1.075 1.909 1.075 1.413 0 2.452-1.208 2.452-3.164 0-1.969-1.039-3.165-2.452-3.165zm-.327 5.362c-.954 0-1.642-.736-1.642-2.21 0-1.473.688-2.185 1.642-2.185.931 0 1.607.555 1.607 2.185 0 1.619-.676 2.21-1.607 2.21zm13.881-5.362c-1.256 0-1.836.882-1.957 1.172v-1.002h-1.099v5.989h1.136v-2.584c0-.845.024-2.584 1.594-2.584.773 0 1.269.434 1.269 1.509v3.659h1.135v-3.924c0-1.329-.604-2.235-2.078-2.235zm-22.418-2.463c-2.428 0-4.252 1.775-4.252 4.396 0 2.632 1.812 4.396 4.252 4.396 2.428 0 4.216-1.764 4.216-4.396 0-2.621-1.788-4.396-4.216-4.396zm-.012 7.693c-1.848 0-2.948-1.413-2.948-3.297 0-1.884 1.1-3.297 2.948-3.297 1.848 0 2.947 1.413 2.947 3.297 0 1.884-1.099 3.297-2.947 3.297z" fill="#0B3DB2"/><path d="M480.247 245.714c-.845 0-1.507.564-1.634 1.592h3.199c-.057-1.028-.677-1.592-1.565-1.592zm-19.306.113c-1.043 0-1.762.789-1.762 2.353 0 1.549.719 2.296 1.762 2.296 1.028 0 1.747-.747 1.747-2.296 0-1.564-.719-2.353-1.747-2.353zm-21.823-1.029c0-.986-.733-1.423-1.705-1.423h-2.438v2.86h2.438c.972 0 1.705-.451 1.705-1.437zm6.625.916c-.846 0-1.508.564-1.635 1.592h3.199c-.056-1.028-.676-1.592-1.564-1.592z" fill="#fff"/><path d="M418.834 242.877l3.073 3.079h-10.852v1.343h10.852l-3.08 3.079.953.946 4.698-4.696-4.698-4.697-.946.946zm42.107 1.555c-2.058 0-3.552 1.522-3.552 3.719 0 2.142 1.508 3.72 3.552 3.72 2.043 0 3.537-1.493 3.537-3.72 0-2.197-1.48-3.719-3.537-3.719zm0 6.044c-1.043 0-1.762-.747-1.762-2.296 0-1.564.719-2.353 1.762-2.353 1.028 0 1.747.789 1.747 2.353 0 1.549-.719 2.296-1.747 2.296zm-15.142.042c-.902 0-1.677-.521-1.733-1.944h4.947c.225-2.325-1.015-4.142-3.27-4.142-1.945 0-3.397 1.479-3.397 3.719 0 2.325 1.353 3.72 3.425 3.72 1.86 0 2.833-.944 3.284-2.043l-1.55-.578c-.254.592-.719 1.268-1.706 1.268zm-.056-4.804c.888 0 1.508.564 1.564 1.592h-3.199c.127-1.028.789-1.592 1.635-1.592zm-7.16 1.423c1.24-.24 2.438-1.043 2.438-2.705 0-1.536-1.198-2.635-3.284-2.635h-4.594v9.863h1.832v-3.889h1.888c1.269 0 1.846.451 2.03 1.634l.338 2.255h1.973l-.451-2.41c-.24-1.352-.916-1.958-2.17-2.113zm-1.17-.902h-2.438v-2.86h2.438c.972 0 1.705.437 1.705 1.423s-.733 1.437-1.705 1.437zm16.555 1.17l-.916-.169c-.845-.155-1.057-.367-1.057-.775 0-.423.353-.789 1.142-.789.874 0 1.339.535 1.536 1.071l1.452-.62c-.296-.789-1.17-1.691-2.918-1.691-1.705 0-2.875.873-2.875 2.184 0 1.352.931 1.831 2.283 2.099l.945.183c.817.155 1.029.479 1.029.874 0 .479-.437.817-1.255.817-1.268 0-1.606-.86-1.705-1.254l-1.579.507c.296 1.282 1.635 2.015 3.214 2.015 1.959 0 3.1-.888 3.1-2.254 0-1.437-1.296-1.973-2.396-2.198zm12.118 4.255h1.705v-9.863h-1.705v9.863zm14.218-1.142c-.902 0-1.677-.521-1.734-1.944h4.947c.226-2.325-1.015-4.142-3.27-4.142-1.944 0-3.396 1.479-3.396 3.719 0 2.325 1.353 3.72 3.425 3.72 1.86 0 2.832-.944 3.283-2.043l-1.55-.578c-.254.592-.719 1.268-1.705 1.268zm-.057-4.804c.888 0 1.508.564 1.565 1.592h-3.199c.126-1.028.789-1.592 1.634-1.592zm-6.895 2.212a153.11 153.11 0 01-.705 2.24c-.113-.324-.324-.986-.747-2.24l-1.071-3.283h-1.804l2.579 7.017h2.072l2.452-7.017h-1.747l-1.029 3.283z" fill="#000"/><path d="M494.273 229.519h-94.626a3.02 3.02 0 00-3.02 3.019v28.179a3.019 3.019 0 003.02 3.019h94.626a3.019 3.019 0 003.02-3.019v-28.179a3.02 3.02 0 00-3.02-3.019zm2.014 32.205c0 .555-.451 1.006-1.007 1.006h-96.64a1.007 1.007 0 01-1.007-1.006v-30.192c0-.555.451-1.006 1.007-1.006h96.64c.556 0 1.007.451 1.007 1.006v30.192z" fill="#C4C4C4"/><path d="M151.066 304.059a6.062 6.062 0 000 8.574 6.066 6.066 0 008.577 0 6.06 6.06 0 000-8.574 6.066 6.066 0 00-8.577 0z" fill="#F9E9E1"/><path d="M178.18 292.921h-36.24a2.013 2.013 0 00-2.013 2.013v36.23c0 1.112.901 2.013 2.013 2.013h36.24a2.013 2.013 0 002.013-2.013v-36.23a2.013 2.013 0 00-2.013-2.013z" fill="#F9E9E1"/><path d="M148.535 313.378l11.854 11.852 11.855-11.852-11.855-11.851-11.854 11.851zm11.854 6.063a6.064 6.064 0 116.065-6.063 6.063 6.063 0 01-6.065 6.063z" fill="#FFB18F"/><path d="M153.737 313.378l6.652 6.651 6.653-6.651-6.653-6.651-6.652 6.651z" fill="#FFB18F"/><path d="M198.328 298.613c-2.31 0-3.684 1.766-3.684 4.121 0 2.355 1.374 4.121 3.684 4.121 2.311 0 3.685-1.766 3.685-4.121 0-2.355-1.374-4.121-3.685-4.121zm16.147 2.913c-1.147 0-2.008.74-2.008 2.762 0 2.038.861 2.733 2.008 2.733 1.208 0 2.069-.891 2.069-2.733 0-1.841-.861-2.762-2.069-2.762zm66.401 19.928c-.99 0-1.667.737-1.667 2.21 0 1.462.677 2.162 1.667 2.162.979 0 1.655-.7 1.655-2.162 0-1.473-.676-2.21-1.655-2.21zm4.955-16.712c.981 0 1.616-.649 1.616-1.645 0-.981-.635-1.662-1.616-1.662-.982 0-1.616.681-1.616 1.662 0 .996.634 1.645 1.616 1.645zm-62.628-3.292c-.966 0-1.827.755-1.948 2.053h3.805c-.015-1.343-.86-2.053-1.857-2.053zm65.437 7.428c0-.71-.529-.861-1.133-.861h-3.504c-.242.151-.544.484-.544.952 0 .604.408.785 1.133.785h2.915c.604 0 1.133-.167 1.133-.876zm-91.523 10.234c-1.848 0-2.947 1.413-2.947 3.296 0 1.884 1.099 3.297 2.947 3.297 1.849 0 2.948-1.413 2.948-3.297 0-1.883-1.099-3.296-2.948-3.296zm31.553 4.214h1.148v-4.19l-2.778 4.19h1.63z" fill="#fff"/><path d="M207.037 304.652c0-1.766.696-2.764 2.357-2.764.302 0 .558.031.8.061V300.5a2.565 2.565 0 00-.695-.076c-1.494 0-2.235 1.118-2.492 1.692v-1.585h-1.389v7.487h1.419v-3.366zm45.818-7.202h-1.51v1.691h1.51v-1.691zm26.287 5.993v4.574h1.419v-4.906c0-1.66-.756-2.793-2.598-2.793-1.571 0-2.294 1.102-2.445 1.465v-1.253h-1.375v7.487h1.42v-3.23c0-1.057.029-3.231 1.992-3.231.967 0 1.587.544 1.587 1.887zm-13.257.136l-.891-.166c-1.042-.196-1.268-.483-1.268-.966 0-.529.453-.996 1.449-.996 1.178 0 1.631.739 1.812 1.252l1.253-.483c-.302-.951-1.192-1.902-3.05-1.902-1.555 0-2.823.921-2.823 2.265 0 1.434 1.072 1.917 2.355 2.173l.906.167c1.027.196 1.344.573 1.344 1.102 0 .664-.559 1.041-1.601 1.041-1.223 0-1.766-.649-1.963-1.419l-1.343.438c.317 1.419 1.721 2.143 3.291 2.143 1.933 0 3.051-.905 3.051-2.324 0-1.661-1.661-2.144-2.522-2.325zm-8.02 4.649c1.933 0 3.05-.905 3.05-2.324 0-1.661-1.661-2.144-2.522-2.325l-.891-.166c-1.042-.196-1.268-.483-1.268-.966 0-.529.453-.996 1.45-.996 1.177 0 1.63.739 1.812 1.252l1.253-.483c-.302-.951-1.193-1.902-3.05-1.902-1.556 0-2.824.921-2.824 2.265 0 1.434 1.072 1.917 2.356 2.173l.906.167c1.026.196 1.343.573 1.343 1.102 0 .664-.558 1.041-1.6 1.041-1.223 0-1.767-.649-1.963-1.419l-1.344.438c.317 1.419 1.721 2.143 3.292 2.143zm32.209.635c0-1.253-.951-2.098-2.416-2.098h-3.246c-.514 0-.665-.242-.665-.484 0-.272.257-.543.665-.709.422.226.906.286 1.419.286 1.676 0 2.839-1.085 2.975-2.776l.03-.362c.06-.861.302-1.013.936-1.013h.619v-1.176h-.77c-.77 0-1.102.468-1.238 1.117-.347-.589-1.178-1.33-2.567-1.33-1.752 0-3.02 1.209-3.02 2.794 0 .891.392 1.57.83 1.963-.513.332-1.117.844-1.117 1.584 0 .603.242.967.664 1.223-.438.272-.966.815-.966 1.57 0 .876.528 1.51 1.993 1.51h3.488c1.299 0 2.386-.696 2.386-2.099zm-4.243-7.428c.981 0 1.616.681 1.616 1.662 0 .996-.635 1.644-1.616 1.644-.982 0-1.616-.648-1.616-1.644 0-.981.634-1.662 1.616-1.662zm-1.238 8.318c-.725 0-1.133-.181-1.133-.785 0-.468.302-.799.544-.95h3.503c.604 0 1.133.15 1.133.86 0 .709-.529.875-1.133.875h-2.914zm-54.715-7.638v-1.585h-1.39v7.488h1.42v-3.366c0-1.766.695-2.764 2.356-2.764.302 0 .559.031.8.061V300.5a2.562 2.562 0 00-.694-.076c-1.495 0-2.235 1.117-2.492 1.691zm16.579-1.797c-1.495 0-2.189.876-2.506 1.555-.393-.966-1.239-1.555-2.326-1.555-1.283 0-1.948.785-2.265 1.344v-1.132h-1.374v7.487h1.419v-3.532c0-1.027.076-2.914 1.828-2.914.951 0 1.585.498 1.585 1.872v4.574h1.389v-3.532c0-1.027.045-2.914 1.841-2.914.952 0 1.572.498 1.572 1.872v4.574h1.433v-4.966c0-1.782-.935-2.733-2.596-2.733zm6.367.212h-1.435v7.487h1.435v-7.487zm-54.48-3.291c-3.036 0-5.317 2.219-5.317 5.495 0 3.29 2.266 5.494 5.317 5.494 3.035 0 5.269-2.204 5.269-5.494 0-3.276-2.234-5.495-5.269-5.495zm-.016 9.616c-2.31 0-3.684-1.766-3.684-4.121 0-2.355 1.374-4.122 3.684-4.122 2.311 0 3.684 1.767 3.684 4.122s-1.373 4.121-3.684 4.121zm26.929-1.253c-.212.528-.741 1.434-1.949 1.434-1.027 0-2.024-.604-2.084-2.4h5.271c.272-2.446-1.058-4.318-3.293-4.318-1.948 0-3.397 1.54-3.397 3.986 0 2.521 1.374 3.924 3.458 3.924 1.555 0 2.748-.724 3.291-2.158l-1.297-.468zm-2.054-4.151c.997 0 1.841.709 1.856 2.053h-3.805c.121-1.299.983-2.053 1.949-2.053zm-5.315 6.566V297.45h-1.419v4.227c-.363-.619-1.088-1.359-2.386-1.359-1.767 0-3.081 1.51-3.081 3.971 0 2.445 1.314 3.94 3.081 3.94 1.313 0 2.053-.725 2.416-1.344v1.132h1.389zm-3.413-.996c-1.147 0-2.008-.695-2.008-2.732 0-2.023.861-2.763 2.008-2.763 1.208 0 2.069.921 2.069 2.763 0 1.841-.861 2.732-2.069 2.732zm57.239-9.571h-1.51v1.691h1.51v-1.691zm-.03 3.08h-1.435v7.487h1.435v-7.487z" fill="#000"/><path d="M230.99 318.182h-1.8l-3.346 5.036v1.123h3.974v2.294h1.172v-2.294h1.244v-1.015h-1.244v-5.144zm-1.172 2.934v2.21h-2.778l2.778-4.19v1.98zm-9.024-1.075v1.256c.93-.132 1.812-.773 2.271-1.545v6.883h1.196v-8.453h-.978c-.544 1.014-1.486 1.618-2.489 1.859zm-12.433 2.983c-.411 1.039-.556 1.389-.64 1.594-.085-.205-.23-.543-.641-1.594l-1.944-4.842h-1.97v8.453h1.208v-7.222l2.888 7.222h.857l2.851-7.222v7.222h1.208v-8.453h-1.921l-1.896 4.842zm-11.231-5.012c-2.429 0-4.253 1.776-4.253 4.396 0 2.633 1.812 4.396 4.253 4.396 2.428 0 4.215-1.763 4.215-4.396 0-2.62-1.787-4.396-4.215-4.396zm-.013 7.693c-1.848 0-2.947-1.413-2.947-3.297 0-1.884 1.099-3.297 2.947-3.297 1.849 0 2.948 1.413 2.948 3.297 0 1.884-1.099 3.297-2.948 3.297zm18.327-.181c1.498-.906 2.621-1.703 3.346-2.536.58-.676.894-1.449.894-2.355 0-1.51-1.039-2.621-2.791-2.621-1.763 0-2.838 1.172-2.85 2.778l1.22.169c0-1.195.7-1.86 1.618-1.86.834 0 1.534.568 1.534 1.667 0 1.691-1.944 3.092-4.3 4.541v1.328h5.666v-1.111h-4.337z" fill="#666"/><path d="M238.58 321.1a1.007 1.007 0 100 2.014 1.007 1.007 0 000-2.014z" fill="#C4C4C4"/><path d="M247.431 323.87c0 1.244-.351 1.86-1.184 1.86-.858 0-1.184-.665-1.172-1.945l-1.244.302c.024 1.703.894 2.717 2.428 2.717 1.607 0 2.38-.93 2.38-2.898v-5.724h-1.208v5.688zm17.823 1.195v-3.478h1.618v-.942h-1.618v-1.872h-1.136v1.872h-1.365v.942h1.365v3.575c0 .99.52 1.473 1.51 1.473h1.474v-.978h-1.256c-.411 0-.592-.181-.592-.592zm9.268-4.589c-1.256 0-1.836.882-1.957 1.172v-1.003h-1.099v5.99h1.135v-2.584c0-.846.025-2.585 1.595-2.585.773 0 1.268.435 1.268 1.51v3.659h1.136v-3.925c0-1.328-.604-2.234-2.078-2.234zm17.464 2.923a61.09 61.09 0 01-.628 2.016l-.496-1.654-.942-3.116h-1.329l-.87 2.85c-.362 1.184-.495 1.619-.579 1.933l-.604-1.993-.846-2.79h-1.184l1.957 5.99h1.281l.906-2.898c.35-1.111.459-1.486.579-1.848l.568 1.86.882 2.886h1.341l2.017-5.99h-1.196l-.857 2.754zm-37.489-.145c0 .93-.072 2.56-1.57 2.56-.749 0-1.232-.435-1.232-1.51v-3.659h-1.136v3.925c0 1.329.604 2.234 1.969 2.234 1.233 0 1.8-.845 1.994-1.195v1.026h1.111v-5.99h-1.136v2.609zm5.608-.169l-.713-.133c-.834-.157-1.015-.387-1.015-.773 0-.423.363-.797 1.16-.797.942 0 1.304.592 1.449 1.002l1.003-.386c-.242-.761-.954-1.522-2.44-1.522-1.244 0-2.259.737-2.259 1.812 0 1.147.858 1.533 1.884 1.739l.725.132c.822.157 1.075.459 1.075.882 0 .531-.447.833-1.28.833-.979 0-1.413-.519-1.571-1.135l-1.075.35c.254 1.136 1.377 1.715 2.634 1.715 1.546 0 2.44-.724 2.44-1.86 0-1.328-1.329-1.714-2.017-1.859zm20.771-2.609c-1.655 0-2.851 1.353-2.851 3.176 0 1.8 1.232 3.152 2.851 3.152 1.607 0 2.839-1.328 2.839-3.152 0-1.823-1.184-3.176-2.839-3.176zm0 5.35c-.99 0-1.667-.7-1.667-2.162 0-1.473.677-2.21 1.667-2.21.979 0 1.655.737 1.655 2.21 0 1.462-.676 2.162-1.655 2.162z" fill="#7A7A7A"/><path d="M299.987 321.1a1.007 1.007 0 100 2.014 1.007 1.007 0 000-2.014z" fill="#C4C4C4"/><path d="M315.904 325.202c1.848 0 2.948-1.413 2.948-3.297 0-1.884-1.1-3.297-2.948-3.297-1.848 0-2.947 1.413-2.947 3.297 0 1.884 1.099 3.297 2.947 3.297zm8.55.133c.93 0 1.606-.592 1.606-2.21 0-1.63-.676-2.186-1.606-2.186-.955 0-1.643.713-1.643 2.186 0 1.473.688 2.21 1.643 2.21zm6.595-4.456c-.773 0-1.461.603-1.558 1.642h3.044c-.012-1.075-.688-1.642-1.486-1.642z" fill="#E5EDFF"/><path d="M305.02 330.158h43.287v-16.103H305.02v16.103zm30.258-10.016h1.1v1.002c.12-.289.7-1.171 1.957-1.171 1.473 0 2.077.906 2.077 2.234v3.925h-1.135v-3.659c0-1.075-.495-1.51-1.269-1.51-1.57 0-1.594 1.739-1.594 2.585v2.584h-1.136v-5.99zm-4.229-.169c1.788 0 2.851 1.497 2.634 3.454h-4.216c.048 1.437.845 1.92 1.667 1.92.966 0 1.389-.725 1.558-1.147l1.039.374c-.435 1.147-1.389 1.727-2.633 1.727-1.667 0-2.767-1.123-2.767-3.14 0-1.956 1.16-3.188 2.718-3.188zm-9.313.169h1.099v.906c.29-.495.894-1.075 1.945-1.075 1.413 0 2.452 1.196 2.452 3.164 0 1.956-1.039 3.164-2.452 3.164-1.051 0-1.619-.58-1.909-1.075v3.261h-1.135v-8.345zm-5.82-2.633c2.428 0 4.216 1.776 4.216 4.396 0 2.633-1.788 4.396-4.216 4.396-2.44 0-4.252-1.763-4.252-4.396 0-2.62 1.824-4.396 4.252-4.396z" fill="#E5EDFF"/><path d="M331.098 326.301c1.244 0 2.198-.58 2.633-1.727l-1.039-.374c-.169.422-.592 1.147-1.558 1.147-.821 0-1.619-.483-1.667-1.92h4.216c.217-1.957-.846-3.454-2.634-3.454-1.558 0-2.718 1.232-2.718 3.188 0 2.017 1.1 3.14 2.767 3.14zm-.049-5.422c.798 0 1.474.567 1.486 1.642h-3.044c.097-1.039.785-1.642 1.558-1.642zm5.365 2.669c0-.846.024-2.585 1.594-2.585.774 0 1.269.435 1.269 1.51v3.659h1.135v-3.925c0-1.328-.604-2.234-2.077-2.234-1.257 0-1.837.881-1.957 1.171v-1.002h-1.1v5.99h1.136v-2.584zm-13.543 2.825v-1.147c.29.495.858 1.075 1.909 1.075 1.413 0 2.452-1.208 2.452-3.164 0-1.969-1.039-3.164-2.452-3.164-1.051 0-1.655.58-1.945 1.075v-.906h-1.099v8.345h1.135v-2.114zm1.583-5.434c.93 0 1.606.556 1.606 2.186 0 1.618-.676 2.21-1.606 2.21-.955 0-1.643-.737-1.643-2.21 0-1.473.688-2.186 1.643-2.186zm-8.538 5.362c2.428 0 4.216-1.763 4.216-4.396 0-2.62-1.788-4.396-4.216-4.396s-4.252 1.776-4.252 4.396c0 2.633 1.812 4.396 4.252 4.396zm-.012-7.693c1.848 0 2.948 1.413 2.948 3.297 0 1.884-1.1 3.297-2.948 3.297-1.848 0-2.947-1.413-2.947-3.297 0-1.884 1.099-3.297 2.947-3.297z" fill="#0B3DB2"/><path d="M494.273 293.928h-94.626a3.019 3.019 0 00-3.02 3.019v28.179a3.02 3.02 0 003.02 3.019h94.626a3.02 3.02 0 003.02-3.019v-28.179a3.019 3.019 0 00-3.02-3.019zm2.014 32.204c0 .556-.451 1.006-1.007 1.006h-96.64c-.556 0-1.007-.45-1.007-1.006V295.94c0-.555.451-1.006 1.007-1.006h96.64c.556 0 1.007.451 1.007 1.006v30.192z" fill="#C4C4C4"/><path d="M439.118 309.207c0-.987-.733-1.423-1.705-1.423h-2.438v2.86h2.438c.972 0 1.705-.451 1.705-1.437zm6.625.915c-.846 0-1.508.564-1.635 1.592h3.199c-.056-1.028-.676-1.592-1.564-1.592zm34.504 0c-.845 0-1.507.564-1.634 1.592h3.199c-.057-1.028-.677-1.592-1.565-1.592zm-19.306.113c-1.043 0-1.762.789-1.762 2.353 0 1.55.719 2.297 1.762 2.297 1.028 0 1.747-.747 1.747-2.297 0-1.564-.719-2.353-1.747-2.353z" fill="#fff"/><path d="M418.834 307.285l3.073 3.079h-10.852v1.343h10.852l-3.08 3.079.953.946 4.698-4.697-4.698-4.696-.946.946zm19.749 4.26c1.24-.239 2.438-1.042 2.438-2.705 0-1.535-1.198-2.634-3.284-2.634h-4.594v9.862h1.832v-3.889h1.888c1.269 0 1.846.451 2.03 1.635l.338 2.254h1.973l-.451-2.409c-.24-1.353-.916-1.959-2.17-2.114zm-1.17-.901h-2.438v-2.86h2.438c.972 0 1.705.436 1.705 1.423 0 .986-.733 1.437-1.705 1.437zm23.528-1.804c-2.058 0-3.552 1.522-3.552 3.72 0 2.142 1.508 3.72 3.552 3.72 2.043 0 3.537-1.494 3.537-3.72 0-2.198-1.48-3.72-3.537-3.72zm0 6.045c-1.043 0-1.762-.747-1.762-2.297 0-1.564.719-2.353 1.762-2.353 1.028 0 1.747.789 1.747 2.353 0 1.55-.719 2.297-1.747 2.297zm-15.142.042c-.902 0-1.677-.521-1.733-1.944h4.947c.225-2.325-1.015-4.143-3.27-4.143-1.945 0-3.397 1.48-3.397 3.72 0 2.325 1.353 3.72 3.425 3.72 1.86 0 2.833-.944 3.284-2.043l-1.55-.578c-.254.592-.719 1.268-1.706 1.268zm-.056-4.805c.888 0 1.508.564 1.564 1.593h-3.199c.127-1.029.789-1.593 1.635-1.593zm8.225 1.691l-.916-.169c-.845-.155-1.057-.366-1.057-.775 0-.422.353-.789 1.142-.789.874 0 1.339.536 1.536 1.071l1.452-.62c-.296-.789-1.17-1.691-2.918-1.691-1.705 0-2.875.874-2.875 2.184 0 1.353.931 1.832 2.283 2.099l.945.184c.817.155 1.029.479 1.029.873 0 .479-.437.817-1.255.817-1.268 0-1.606-.859-1.705-1.254l-1.579.508c.296 1.282 1.635 2.014 3.214 2.014 1.959 0 3.1-.887 3.1-2.254 0-1.437-1.296-1.972-2.396-2.198zm26.336 3.114c-.902 0-1.677-.521-1.734-1.944h4.947c.226-2.325-1.015-4.143-3.27-4.143-1.944 0-3.396 1.48-3.396 3.72 0 2.325 1.353 3.72 3.425 3.72 1.86 0 2.832-.944 3.283-2.043l-1.55-.578c-.254.592-.719 1.268-1.705 1.268zm-.057-4.805c.888 0 1.508.564 1.565 1.593h-3.199c.126-1.029.789-1.593 1.634-1.593zm-6.895 2.213a157.456 157.456 0 01-.705 2.24c-.113-.324-.324-.986-.747-2.24l-1.071-3.283h-1.804l2.579 7.016h2.072l2.452-7.016h-1.747l-1.029 3.283zm-7.266 3.733h1.705v-9.862h-1.705v9.862z" fill="#000"/><path d="M244.229 116.3c0 .688.453 1.123 1.359 1.123 1.051 0 2.066-.706 2.066-2.319v-.724c-1.848.199-3.425.616-3.425 1.92zm18.452-5.706a195.01 195.01 0 00-.888-2.554c-.163.489-.381 1.159-.888 2.572l-1.069 3.043h3.896l-1.051-3.061zm-54.514 5.706c0 .688.453 1.123 1.359 1.123 1.051 0 2.065-.706 2.065-2.319v-.724c-1.848.199-3.424.616-3.424 1.92z" fill="#fff"/><path d="M276.765 109.797h-2.211v9.021h2.211v-9.021zm5.211 9.764c-.271.743-.561.96-1.214.96h-2.12v1.83h2.356c1.576 0 2.301-.653 2.827-2.174l3.678-10.38h-2.301l-1.269 3.858-.797 2.428c-.163-.381-.38-.834-1.051-2.41l-1.649-3.876h-2.392l4.204 8.949-.272.815zm-5.157-13.441h-2.355v2.264h2.355v-2.264zm15.088 12.97c1.776 0 2.609-1.16 2.972-1.757v1.485h2.192v-9.021h-2.21v4.239c0 1.431-.326 3.188-2.048 3.188-.96 0-1.558-.543-1.558-1.938v-5.489h-2.211v6.014c0 1.975.997 3.279 2.863 3.279zm-32.796-3.406h5.327l1.087 3.134h2.628l-4.748-12.68h-3.116l-4.82 12.68h2.537l1.105-3.134zm1.794-5.072c.507-1.413.725-2.083.888-2.572.181.507.398 1.123.888 2.554l1.051 3.061h-3.896l1.069-3.043zm10.977-4.474h-2.193v12.68h2.193v-12.68zm-61.94 5.054c1.16 0 1.649.543 1.649 1.431v.308c-2.953.271-5.671 1.05-5.671 3.568 0 1.594 1.196 2.591 2.881 2.591 1.522 0 2.482-.761 3.026-1.612.109.797.507 1.34 1.649 1.34h1.685v-1.739h-.834c-.471 0-.543-.109-.543-.543v-3.641c0-2.211-1.359-3.37-3.842-3.37-2.536 0-3.95 1.323-4.149 2.663l2.011.525c.236-.797.797-1.521 2.138-1.521zm1.649 3.913c0 1.612-1.014 2.318-2.065 2.318-.906 0-1.359-.435-1.359-1.123 0-1.304 1.576-1.721 3.424-1.92v.725zm7.784 3.985c1.776 0 2.609-1.16 2.972-1.757v1.485h2.192v-9.021h-2.211v4.239c0 1.431-.326 3.188-2.047 3.188-.961 0-1.558-.543-1.558-1.938v-5.489h-2.211v6.014c0 1.975.996 3.279 2.863 3.279zm26.63-7.898c1.16 0 1.649.543 1.649 1.431v.308c-2.953.271-5.671 1.05-5.671 3.568 0 1.594 1.195 2.591 2.881 2.591 1.522 0 2.482-.761 3.026-1.612.108.797.507 1.34 1.649 1.34h1.685v-1.739h-.834c-.471 0-.543-.109-.543-.543v-3.641c0-2.211-1.359-3.37-3.842-3.37-2.537 0-3.95 1.323-4.149 2.663l2.011.525c.236-.797.797-1.521 2.138-1.521zm1.649 3.913c0 1.612-1.015 2.318-2.066 2.318-.906 0-1.359-.435-1.359-1.123 0-1.304 1.577-1.721 3.425-1.92v.725zm-16.085 3.713l1.159-4.112c.453-1.558.616-2.119.761-2.699.145.543.326 1.141.761 2.717l1.16 4.094h2.646l2.953-9.021h-2.283l-.906 3.116c-.689 2.499-.888 3.278-1.015 3.713-.145-.435-.362-1.232-.851-3.043l-1.088-3.786h-2.609l-1.033 3.623c-.543 1.938-.761 2.79-.888 3.261-.145-.49-.38-1.359-.96-3.569l-.924-3.315h-2.283l2.917 9.021h2.483zm-36.298-5.525h5.944v5.525h2.355v-12.68h-2.355v5.126h-5.944v-5.126h-2.355v12.68h2.355v-5.525z" fill="#111"/><path d="M295.96 131.901H191.267v9.058H295.96v-9.058zm5.308 5.343a.813.813 0 100-1.629.815.815 0 000 1.629zm5.309 3.715h49.327v-9.058h-49.327v9.058z" fill="#E0E0E0"/><path d="M179.417 142.341v-38.243c0-.557-.45-1.007-1.006-1.007h-38.254c-.555 0-1.006.45-1.006 1.007v38.243c0 .243.097.457.241.631h39.785a.984.984 0 00.24-.631zm-11.182-8.492h-4.615v-8.461h-8.671v8.461h-4.615v-21.141h4.615v8.359h8.671v-8.359h4.615v21.141z" fill="#000"/><path d="M163.62 121.067h-8.672v-8.359h-4.615v21.14h4.615v-8.461h8.672v8.461h4.614v-21.14h-4.614v8.359z" fill="#fff"/><path d="M519.44 166.255H114.76v-1.389h404.68v1.389z" fill="#F2F2F2"/><path d="M510.003 287.119v48.544H129.861v-48.544h380.142zm-76.674-89.208c-.846 0-1.508.563-1.635 1.592h3.199c-.056-1.029-.676-1.592-1.564-1.592zm49.491 0c-.845 0-1.507.563-1.634 1.592h3.199c-.057-1.029-.677-1.592-1.565-1.592z" fill="#fff"/><path d="M400.452 204.863h2.303v-5.032h4.945v-2.013h-5.033v-5.032h-2.014v5.032h-5.033v2.013h4.832v5.032zm20.429-6.064v-2.818l5.567 7.876h1.734v-9.863h-1.832v6.763l-4.778-6.763h-2.523v9.863h1.832v-5.058zm12.476 5.269c1.86 0 2.833-.944 3.284-2.043l-1.551-.578c-.253.592-.718 1.268-1.705 1.268-.902 0-1.677-.521-1.733-1.944h4.946c.226-2.325-1.014-4.142-3.269-4.142-1.945 0-3.397 1.479-3.397 3.719 0 2.325 1.353 3.72 3.425 3.72zm-.028-6.157c.888 0 1.508.563 1.564 1.592h-3.199c.127-1.029.789-1.592 1.635-1.592zm8.31 5.946l.902-3.199c.352-1.211.479-1.648.592-2.099.112.423.253.888.592 2.113l.902 3.185h2.057l2.297-7.017h-1.775l-.705 2.423c-.536 1.945-.691 2.551-.789 2.889-.113-.338-.282-.958-.663-2.367l-.845-2.945h-2.03l-.803 2.818c-.423 1.508-.592 2.17-.691 2.536-.112-.38-.296-1.057-.747-2.776l-.718-2.578h-1.776l2.269 7.017h1.931zm32.163.211c1.381 0 2.029-.902 2.311-1.367v1.156h1.705v-7.017h-1.719v3.297c0 1.113-.254 2.48-1.593 2.48-.747 0-1.212-.423-1.212-1.508v-4.269h-1.719v4.678c0 1.535.775 2.55 2.227 2.55zm9.047 0c1.86 0 2.832-.944 3.283-2.043l-1.55-.578c-.254.592-.719 1.268-1.705 1.268-.902 0-1.677-.521-1.734-1.944h4.947c.226-2.325-1.015-4.142-3.269-4.142-1.945 0-3.397 1.479-3.397 3.719 0 2.325 1.353 3.72 3.425 3.72zm-.028-6.157c.887 0 1.507.563 1.564 1.592h-3.199c.127-1.029.789-1.592 1.635-1.592zm-15.724 4.875c-1.268 0-1.606-.86-1.705-1.254l-1.578.507c.296 1.282 1.634 2.015 3.213 2.015 1.959 0 3.1-.888 3.1-2.255 0-1.437-1.296-1.972-2.395-2.197l-.917-.17c-.845-.155-1.057-.366-1.057-.774 0-.423.353-.789 1.142-.789.874 0 1.339.535 1.536 1.07l1.452-.62c-.296-.789-1.17-1.69-2.917-1.69-1.706 0-2.876.873-2.876 2.184 0 1.352.931 1.831 2.284 2.099l.944.183c.817.155 1.029.479 1.029.874 0 .479-.437.817-1.255.817zm-11.941-5.946h-1.719v7.017h1.719v-7.017zm.043-2.86h-1.833v1.761h1.833v-1.761zm4.674 8.806c-1.269 0-1.607-.86-1.706-1.254l-1.578.507c.296 1.282 1.635 2.015 3.213 2.015 1.959 0 3.101-.888 3.101-2.255 0-1.437-1.297-1.972-2.396-2.197l-.916-.17c-.846-.155-1.057-.366-1.057-.774 0-.423.352-.789 1.141-.789.874 0 1.339.535 1.536 1.07l1.452-.62c-.296-.789-1.17-1.69-2.917-1.69-1.706 0-2.875.873-2.875 2.184 0 1.352.93 1.831 2.283 2.099l.944.183c.817.155 1.029.479 1.029.874 0 .479-.437.817-1.254.817zM492 208v10.716l3.194-3.235 5.187 8.909 1.66-.759-5.357-8.907 4.394-.367L492 208z" fill="#000"/><path d="M52.105 85.46l.101-.095.096.101-.101.096-.096-.102z" fill="#B8E1DF"/><path d="M52.172 85.493l.064.002.002-.064-.064-.001-.002.063z" fill="#fff"/></g><defs><clipPath id="clip0"><path fill="#fff" d="M0 0h519v376H0z"/></clipPath></defs></svg>