<svg width="75" height="47" fill="none" xmlns="http://www.w3.org/2000/svg"><g clip-path="url(#clip0)"><path d="M21.27.406v.748h.746-.745v19.79h1.49V1.902h50.674v30.06h-44.07l-.21.181.486.567-.485-.567-6.395 5.507V20.945h-1.49v19.958l1.23-1.06 7.416-6.387H74.18v-.747.747h.745V1.154h-.745V.406H21.27zm52.91.748h.745V.406h-.745v.748z" fill="#000"/><path d="M55.54 16.85l-6.707-6.727-6.708 6.728 6.708 6.729 6.707-6.73zm-8.624 1.924a2.725 2.725 0 010-3.845 2.705 2.705 0 013.833 0 2.725 2.725 0 010 3.845 2.705 2.705 0 01-3.833 0z" fill="#EAC955"/><path d="M28.154 21.71l5.161-9.183 5.29 9.184H28.154z" stroke="#000" stroke-width="2.76"/><path d="M70.454 16.851c0-3.303-2.67-5.98-5.962-5.98s-5.961 2.677-5.961 5.98c0 3.303 2.669 5.98 5.961 5.98 3.292 0 5.962-2.677 5.962-5.98zm-8.98 3.188v-6.376h6.037v6.376h-6.038zM.405 47.499h16.394V31.054H.405v16.445z" fill="#000"/><path d="M8.602 40.024a4.478 4.478 0 00-4.471 4.485h8.942a4.478 4.478 0 00-4.47-4.485zm0-5.98a2.239 2.239 0 012.236 2.242 2.24 2.24 0 01-2.236 2.243 2.239 2.239 0 01-2.235-2.243c0-1.238 1-2.242 2.235-2.242z" fill="#fff"/></g><defs><clipPath id="clip0"><path fill="#fff" d="M0 0h75v47H0z"/></clipPath></defs></svg>