<svg width="48" height="45" fill="none" xmlns="http://www.w3.org/2000/svg"><g clip-path="url(#clip0)"><path d="M41.466 43.546V.23" stroke="#000" stroke-width="1.955" stroke-linejoin="bevel"/><path d="M24.213 43.546V.23" stroke="#FFB18F" stroke-width="2.04" stroke-linejoin="bevel"/><path d="M6.312 43.546V.23" stroke="#000" stroke-width="2.04" stroke-linejoin="bevel"/><path d="M6.363 43.74a4.827 4.827 0 01-4.82-4.835 4.827 4.827 0 014.82-4.835 4.827 4.827 0 014.82 4.835 4.827 4.827 0 01-4.82 4.834z" fill="#fff"/><path d="M6.363 43.74a4.827 4.827 0 01-4.82-4.835 4.827 4.827 0 014.82-4.835 4.827 4.827 0 014.82 4.835 4.827 4.827 0 01-4.82 4.834z" stroke="#1D1D1B" stroke-width="2.55"/><path d="M24.264 10.661a4.827 4.827 0 01-4.82-4.834 4.827 4.827 0 014.82-4.834 4.827 4.827 0 014.82 4.834 4.827 4.827 0 01-4.82 4.834z" fill="#FFB18F"/><path d="M-.383 21.308l6.816 6.838 6.816-6.838-6.816-6.837-6.816 6.837z" fill="#000"/><path d="M18.422 23.693l5.842 5.86 5.842-5.86-5.842-5.86-5.842 5.86z" fill="#fff"/><path d="M18.422 23.693l5.842 5.86 5.842-5.86-5.842-5.86-5.842 5.86z" stroke="#FFB18F" stroke-width="2.55"/><path d="M36.657 12.66c0-2.665 2.162-4.833 4.82-4.833 2.657 0 4.82 2.168 4.82 4.834 0 2.666-2.163 4.834-4.82 4.834-2.658 0-4.82-2.168-4.82-4.834z" fill="#fff"/><path d="M36.657 12.66c0-2.665 2.162-4.833 4.82-4.833 2.657 0 4.82 2.168 4.82 4.834 0 2.666-2.163 4.834-4.82 4.834-2.658 0-4.82-2.168-4.82-4.834z" stroke="#1D1D1B" stroke-width="2.55"/><path d="M36.657 34.07c0-2.666 2.162-4.834 4.82-4.834 2.657 0 4.82 2.168 4.82 4.834 0 2.666-2.163 4.835-4.82 4.835-2.658 0-4.82-2.169-4.82-4.835z" fill="#000"/></g><defs><clipPath id="clip0"><path fill="#fff" d="M0 0h48v45H0z"/></clipPath></defs></svg>