<svg width="49" height="45" fill="none" xmlns="http://www.w3.org/2000/svg"><g clip-path="url(#clip0)"><path d="M47.07.779L32.19.873l-.093 14.925 14.88-.094L47.07.78zM35.332 8.315c.015-2.355 1.93-4.277 4.278-4.291a4.194 4.194 0 014.225 4.238c-.015 2.354-1.93 4.276-4.278 4.29a4.194 4.194 0 01-4.225-4.237z" fill="#000"/><path d="M6.622 15.711H21.08V1.026H6.622V15.71z" stroke="#000" stroke-width="2.1"/><path d="M12.59 23.116L3.55 37.743l17.225.04-8.185-14.667z" fill="#5281E8"/><path d="M30.287 32.705c0 5.147 4.16 9.32 9.292 9.32 5.131 0 9.291-4.173 9.291-9.32s-4.16-9.32-9.291-9.32c-5.132 0-9.292 4.173-9.292 9.32z" fill="#000"/><path d="M18.513 22.661c4.983 3.271 6.448 10.005 3.149 15.064-3.299 5.06-10.035 6.411-15.018 3.14C1.66 37.595.196 30.86 3.494 25.801c3.3-5.06 10.035-6.41 15.019-3.14z" stroke="#000" stroke-width="3.15"/><path d="M29.777.772l4.66 3.058-10.285 14.904-4.533 1.85-.126-4.908L29.777.772z" fill="#000"/><path d="M29.777.772l4.66 3.058-10.285 14.904-4.533 1.85-.126-4.908L29.777.772z" stroke="#000" stroke-width="1.588"/></g><defs><clipPath id="clip0"><path fill="#fff" d="M0 0h49v45H0z"/></clipPath></defs></svg>