<svg width="52" height="53" fill="none" xmlns="http://www.w3.org/2000/svg"><path d="M23.192 9.913h6.72v-6.72h-6.72v6.72zm16.048-6.72h-9.248a6.8 6.8 0 100 13.6h9.248a6.8 6.8 0 000-13.6z" fill="#FFB18F"/><path d="M39.24 3.193h-9.248a6.8 6.8 0 100 13.6h9.248a6.8 6.8 0 000-13.6z" fill="#FFB18F"/><path d="M30.934 9.993a1.35 1.35 0 11-2.703 0 1.352 1.352 0 012.703 0z" fill="#fff" opacity=".95"/><path d="M35.966 9.993a1.351 1.351 0 11-2.702.001 1.351 1.351 0 012.702 0zm5.032 0a1.351 1.351 0 11-2.702.001 1.351 1.351 0 012.702 0z" fill="#fff"/><path d="M27.73 42.328a6.8 6.8 0 00-6.8-6.8h-9.248a6.8 6.8 0 100 13.6h16.032v-6.36a6.99 6.99 0 00.016-.44z" stroke="#FFB18F" stroke-width="2.514"/><path d="M12.284 42.328a1.35 1.35 0 11-2.703 0 1.352 1.352 0 012.703 0zm5.036 0a1.351 1.351 0 11-2.703.001 1.351 1.351 0 012.702 0zm5.03 0a1.351 1.351 0 11-2.702.001 1.351 1.351 0 012.702 0z" fill="#FFB18F"/><path d="M41.15 21.248c5.104 0 9.256 4.152 9.256 9.255a9.168 9.168 0 01-2.932 6.758l-.395.37v13.804h-8.433v-7.492h-6.764l-.001-6.299-.002-1.243h-2.682l2.6-5.808.096-.22.01-.24a9.207 9.207 0 012.827-6.295 9.205 9.205 0 016.42-2.59zm.002-1.244c-5.658 0-10.27 4.476-10.49 10.08l-3.385 7.56h3.36l.002 7.542h6.763l.001 7.59h10.92V38.17a10.467 10.467 0 003.327-7.666c0-5.798-4.7-10.499-10.498-10.499zm-.002 1.244c5.104 0 9.256 4.152 9.256 9.255a9.168 9.168 0 01-2.932 6.758l-.395.37v13.804h-8.433v-7.492h-6.764l-.001-6.299-.002-1.243h-2.682l2.6-5.808.096-.22.01-.24a9.207 9.207 0 012.827-6.295 9.205 9.205 0 016.42-2.59z" fill="#fff"/><path d="M41.152 20.004c-5.658 0-10.27 4.476-10.49 10.08l-3.385 7.56h3.36l.002 7.542h6.763l.001 7.59h10.92V38.17a10.467 10.467 0 003.327-7.666c0-5.798-4.7-10.499-10.498-10.499zm-.002 1.244c5.104 0 9.256 4.152 9.256 9.255a9.168 9.168 0 01-2.932 6.758l-.395.37v13.804h-8.433v-7.492h-6.764l-.001-6.299-.002-1.243h-2.682l2.6-5.808.096-.22.01-.24a9.207 9.207 0 012.827-6.295 9.205 9.205 0 016.42-2.59zM10.893.623c5.659 0 10.27 4.476 10.49 10.08l3.384 7.56h-3.36l-.003 7.542h-6.762v6.888H3.722V18.787a10.467 10.467 0 01-3.327-7.666C.395 5.324 5.095.623 10.893.623z" fill="#000"/></svg>