<svg width="80" height="25" fill="none" xmlns="http://www.w3.org/2000/svg"><path fill-rule="evenodd" clip-rule="evenodd" d="M20.167 24.708h4.407V0h-4.407v24.708zm27.82-20.26h4.378V.075h-4.378V4.45v-.002zm23.33 20.23V12.661c0-4.403-2.067-6.73-5.975-6.73-2.448 0-4.216 1.005-5.405 3.075l-.141.245V6.365h-4.378v18.313h4.378V14.073c0-2.795 1.593-4.6 4.06-4.6 2.075 0 3.083 1.149 3.083 3.514v11.691h4.378zm2.982 0h5.675v-5.67h-5.675v5.67zm-21.945.03h-4.408V6.41h4.408v18.298zM38.37 17.477v-.807l-.082.007-4.068.353c-.095.01-2.334.271-2.86 1.252-.235.44-.278.996-.116 1.526.133.436.464 1.048 1.282 1.48.39.24.903.389 1.525.441l.067.01c.034.005.067.01.103.012l.048-.006c.096.004.194.007.294.007 2.241 0 3.807-1.758 3.807-4.275zm.178 4.341h-.046l-.02.04c-1.136 2.19-2.939 3.255-5.513 3.255-3.336 0-5.757-2.36-5.757-5.609 0-3.146 2.347-5.376 5.98-5.681l5.109-.435.069-.006v-1.264c0-1.85-1.029-2.827-2.974-2.827-1.938 0-3.154.997-3.19 2.607H27.83c.172-3.683 3.133-5.967 7.746-5.967 4.511 0 7.098 2.281 7.098 6.26v9.126h3.116v3.361h-6.987l-.035-2.786-.002-.074h-.218zM12.325 11.772v-7.66h-7.74v7.734h7.74v-.074zM10.962.12c.066.008.133.017.187.028 3.862.506 6.845 3.799 6.845 7.796a7.874 7.874 0 01-7.876 7.87c-.074 0-.147-.004-.22-.01a5.704 5.704 0 00-.124-.007H4.585v8.886H0V.072h10.137l.018.002c.312.003.565.015.763.038l.023.004a.407.407 0 00.021.003V.12z" fill="#000"/></svg>