<svg width="25" height="17" viewBox="0 0 25 17" fill="none" xmlns="http://www.w3.org/2000/svg">
<path d="M7.36666 16.9998H1.13333C0.832754 16.9998 0.544487 16.8804 0.331945 16.6679C0.119404 16.4553 0 16.167 0 15.8665V7.93314C0 7.63256 0.119404 7.34429 0.331945 7.13175C0.544487 6.91921 0.832754 6.7998 1.13333 6.7998H7.36666C8.71927 6.7998 10.0165 7.33712 10.9729 8.29356C11.9293 9.24999 12.4667 10.5472 12.4667 11.8998C12.4667 13.2524 11.9293 14.5496 10.9729 15.506C10.0165 16.4625 8.71927 16.9998 7.36666 16.9998ZM2.26667 14.7331H7.36666C8.11811 14.7331 8.83878 14.4346 9.37013 13.9033C9.90148 13.3719 10.2 12.6512 10.2 11.8998C10.2 11.1484 9.90148 10.4277 9.37013 9.89633C8.83878 9.36498 8.11811 9.06647 7.36666 9.06647H2.26667V14.7331Z" fill="#5418FF"/>
<path d="M6.8 9.06666H1.13333C0.832754 9.06666 0.544487 8.94726 0.331945 8.73472C0.119404 8.52217 0 8.23391 0 7.93333V1.13333C0 0.832754 0.119404 0.544487 0.331945 0.331946C0.544487 0.119405 0.832754 0 1.13333 0H6.8C8.00231 0 9.15538 0.477617 10.0055 1.32778C10.8557 2.17795 11.3333 3.33102 11.3333 4.53333C11.3333 5.73565 10.8557 6.88872 10.0055 7.73888C9.15538 8.58904 8.00231 9.06666 6.8 9.06666ZM2.26667 6.8H6.8C7.40115 6.8 7.97769 6.56119 8.40277 6.13611C8.82785 5.71102 9.06666 5.13449 9.06666 4.53333C9.06666 3.93217 8.82785 3.35564 8.40277 2.93056C7.97769 2.50547 7.40115 2.26667 6.8 2.26667H2.26667V6.8ZM21.5333 2.26667H17C16.6994 2.26667 16.4111 2.14726 16.1986 1.93472C15.9861 1.72218 15.8667 1.43391 15.8667 1.13333C15.8667 0.832754 15.9861 0.544487 16.1986 0.331946C16.4111 0.119405 16.6994 0 17 0H21.5333C21.8339 0 22.1222 0.119405 22.3347 0.331946C22.5473 0.544487 22.6667 0.832754 22.6667 1.13333C22.6667 1.43391 22.5473 1.72218 22.3347 1.93472C22.1222 2.14726 21.8339 2.26667 21.5333 2.26667ZM23.8 10.2H14.7333C14.4327 10.2 14.1445 10.0806 13.9319 9.86805C13.7194 9.65551 13.6 9.36724 13.6 9.06666C13.6 8.76608 13.7194 8.47782 13.9319 8.26528C14.1445 8.05273 14.4327 7.93333 14.7333 7.93333H23.8C24.1006 7.93333 24.3888 8.05273 24.6014 8.26528C24.8139 8.47782 24.9333 8.76608 24.9333 9.06666C24.9333 9.36724 24.8139 9.65551 24.6014 9.86805C24.3888 10.0806 24.1006 10.2 23.8 10.2Z" fill="#5418FF"/>
<path d="M19.2668 16.9999C17.7644 16.9981 16.3241 16.4005 15.2618 15.3382C14.1995 14.2759 13.6019 12.8356 13.6001 11.3332V9.06657C13.6001 7.56367 14.1971 6.12234 15.2598 5.05963C16.3225 3.99692 17.7639 3.3999 19.2668 3.3999C20.7697 3.3999 22.211 3.99692 23.2737 5.05963C24.3364 6.12234 24.9334 7.56367 24.9334 9.06657C24.9334 9.36714 24.814 9.65541 24.6015 9.86795C24.3889 10.0805 24.1007 10.1999 23.8001 10.1999C23.4995 10.1999 23.2112 10.0805 22.9987 9.86795C22.7862 9.65541 22.6668 9.36714 22.6668 9.06657C22.6668 8.16483 22.3085 7.30003 21.6709 6.6624C21.0333 6.02478 20.1685 5.66657 19.2668 5.66657C18.365 5.66657 17.5002 6.02478 16.8626 6.6624C16.225 7.30003 15.8668 8.16483 15.8668 9.06657V11.3332C15.8664 12.16 16.1675 12.9586 16.7137 13.5793C17.2599 14.2001 18.0136 14.6003 18.8338 14.7051C19.6539 14.81 20.4841 14.6121 21.1689 14.1487C21.8536 13.6853 22.3459 12.9881 22.5534 12.1878C22.6274 11.8962 22.8141 11.646 23.0726 11.4921C23.331 11.3382 23.64 11.2933 23.9316 11.3672C24.2231 11.4412 24.4734 11.6279 24.6272 11.8864C24.7811 12.1448 24.826 12.4538 24.7521 12.7454C24.4416 13.9638 23.7335 15.0439 22.7399 15.8145C21.7464 16.5851 20.5241 17.0023 19.2668 16.9999Z" fill="#5418FF"/>
</svg>
