<svg width="12" height="13" viewBox="0 0 12 13" fill="none" xmlns="http://www.w3.org/2000/svg">
<path d="M11.7342 0.297805C11.65 0.206395 11.55 0.133874 11.4399 0.0843932C11.3298 0.0349123 11.2117 0.00944264 11.0925 0.00944264C10.9733 0.00944264 10.8553 0.0349123 10.7452 0.0843932C10.6351 0.133874 10.535 0.206395 10.4508 0.297805L6 5.10968L1.54916 0.287944C1.4649 0.196654 1.36486 0.12424 1.25476 0.074834C1.14466 0.0254284 1.02665 9.61891e-10 0.90748 0C0.788308 -9.61892e-10 0.670302 0.0254284 0.560202 0.074834C0.450101 0.12424 0.350062 0.196654 0.265794 0.287944C0.181527 0.379233 0.114683 0.48761 0.0690775 0.606885C0.0234724 0.726161 -8.879e-10 0.854 0 0.983103C8.879e-10 1.11221 0.0234724 1.24004 0.0690775 1.35932C0.114683 1.4786 0.181527 1.58697 0.265794 1.67826L4.71663 6.5L0.265794 11.3217C0.181527 11.413 0.114683 11.5214 0.0690775 11.6407C0.0234724 11.76 0 11.8878 0 12.0169C0 12.146 0.0234724 12.2738 0.0690775 12.3931C0.114683 12.5124 0.181527 12.6208 0.265794 12.7121C0.350062 12.8033 0.450101 12.8758 0.560202 12.9252C0.670302 12.9746 0.788308 13 0.90748 13C1.02665 13 1.14466 12.9746 1.25476 12.9252C1.36486 12.8758 1.4649 12.8033 1.54916 12.7121L6 7.89032L10.4508 12.7121C10.5351 12.8033 10.6351 12.8758 10.7452 12.9252C10.8553 12.9746 10.9733 13 11.0925 13C11.2117 13 11.3297 12.9746 11.4398 12.9252C11.5499 12.8758 11.6499 12.8033 11.7342 12.7121C11.8185 12.6208 11.8853 12.5124 11.9309 12.3931C11.9765 12.2738 12 12.146 12 12.0169C12 11.8878 11.9765 11.76 11.9309 11.6407C11.8853 11.5214 11.8185 11.413 11.7342 11.3217L7.28337 6.5L11.7342 1.67826C12.0801 1.30357 12.0801 0.6725 11.7342 0.297805Z" fill="#292929"/>
</svg>
