<svg width="40" height="40" viewBox="0 0 40 40" fill="none" xmlns="http://www.w3.org/2000/svg">
<path d="M21.4213 8.66708L21.6901 9.87189L22.3355 8.81964L25.7484 3.25552L25.0241 9.74262L24.8871 10.9694L25.8392 10.1838L30.8738 6.02929L28.0824 11.9297L27.5545 13.0456L28.7102 12.6116L34.821 10.317L30.2649 14.9913L29.4033 15.8753L30.6372 15.8401L37.162 15.654L31.335 18.5957L30.2331 19.1521L31.4116 19.5194L37.6432 21.462L31.1768 22.3523L29.9539 22.5207L30.9493 23.2508L36.2126 27.1115L29.8075 25.854L28.5962 25.6161L29.3005 26.6299L33.025 31.9904L27.3753 28.7213L26.3068 28.103L26.6439 29.2905L28.426 35.57L24.1439 30.6435L23.3341 29.7118L23.2672 30.9444L22.9139 37.4622L20.4634 31.4123L20 30.2682L19.5366 31.4123L17.0861 37.4622L16.7328 30.9444L16.6659 29.7118L15.8561 30.6435L11.574 35.57L13.3561 29.2905L13.6932 28.103L12.6247 28.7213L6.97496 31.9904L10.6995 26.6299L11.4038 25.6161L10.1925 25.854L3.78742 27.1115L9.05069 23.2508L10.0461 22.5207L8.82316 22.3523L2.35676 21.462L8.58842 19.5194L9.76692 19.1521L8.66496 18.5957L2.83802 15.654L9.36277 15.8401L10.5967 15.8753L9.73509 14.9913L5.17905 10.317L11.2898 12.6116L12.4455 13.0456L11.9176 11.9297L9.12616 6.02929L14.1608 10.1838L15.1129 10.9694L14.9759 9.74262L14.2516 3.25553L17.6645 8.81964L18.3099 9.87189L18.5787 8.66708L20 2.29629L21.4213 8.66708Z" fill="white" stroke="#292929"/>
</svg>
