<svg width="39" height="50" viewBox="0 0 39 50" fill="none" xmlns="http://www.w3.org/2000/svg">
<path d="M29.8222 36.4458C29.6982 36.6729 29.3104 36.9016 28.3918 36.887C27.516 36.873 26.3289 36.6367 24.9011 36.1828C22.0529 35.2772 18.3541 33.5403 14.4888 31.1805C10.6235 28.8207 7.35161 26.3019 5.18591 24.1464C4.10018 23.0658 3.31314 22.0968 2.86381 21.3018C2.39249 20.4679 2.38589 19.9985 2.5099 19.7713C2.63391 19.5442 3.0217 19.3155 3.9403 19.3302C4.81605 19.3442 6.00317 19.5804 7.43103 20.0344C10.2792 20.9399 13.978 22.6768 17.8433 25.0366C21.7086 27.3964 24.9805 29.9153 27.1462 32.0707C28.2319 33.1513 29.0189 34.1203 29.4683 34.9153C29.9396 35.7492 29.9462 36.2187 29.8222 36.4458Z" fill="white" stroke="#292929"/>
<path d="M32.8222 32.4458C32.6982 32.6729 32.3104 32.9016 31.3918 32.887C30.516 32.873 29.3289 32.6367 27.9011 32.1828C25.0529 31.2772 21.3541 29.5403 17.4888 27.1805C13.6235 24.8207 10.3516 22.3019 8.18591 20.1464C7.10018 19.0658 6.31314 18.0968 5.86381 17.3018C5.39249 16.4679 5.38589 15.9985 5.5099 15.7713C5.63391 15.5442 6.0217 15.3155 6.9403 15.3302C7.81605 15.3442 9.00317 15.5804 10.431 16.0344C13.2792 16.9399 16.978 18.6768 20.8433 21.0366C24.7086 23.3964 27.9805 25.9153 30.1462 28.0707C31.2319 29.1513 32.0189 30.1203 32.4683 30.9153C32.9396 31.7492 32.9462 32.2187 32.8222 32.4458Z" fill="white" stroke="#292929"/>
<path d="M35.8222 27.4458C35.6982 27.6729 35.3104 27.9016 34.3918 27.887C33.516 27.873 32.3289 27.6367 30.9011 27.1828C28.0529 26.2772 24.3541 24.5403 20.4888 22.1805C16.6235 19.8207 13.3516 17.3019 11.1859 15.1464C10.1002 14.0658 9.31314 13.0968 8.86381 12.3018C8.39249 11.4679 8.38589 10.9985 8.5099 10.7713C8.63391 10.5442 9.0217 10.3155 9.9403 10.3302C10.8161 10.3442 12.0032 10.5804 13.431 11.0344C16.2792 11.9399 19.978 13.6768 23.8433 16.0366C27.7086 18.3964 30.9805 20.9153 33.1462 23.0707C34.2319 24.1513 35.0189 25.1203 35.4683 25.9153C35.9396 26.7492 35.9462 27.2187 35.8222 27.4458Z" fill="white" stroke="#292929"/>
<path d="M26.1499 20.7056C26.1047 20.7885 25.9983 20.8879 25.7491 20.9468C25.4985 21.0061 25.1494 21.0111 24.713 20.9401C23.8431 20.7986 22.7284 20.3721 21.5903 19.6773C20.4522 18.9825 19.5456 18.175 18.9948 17.449C18.7184 17.0849 18.548 16.7627 18.4712 16.5036C18.3948 16.2459 18.4231 16.0988 18.4683 16.0159C18.5135 15.9331 18.6199 15.8337 18.8691 15.7747C19.1197 15.7155 19.4688 15.7105 19.9052 15.7815C20.7752 15.923 21.8899 16.3494 23.0279 17.0442C24.166 17.739 25.0726 18.5466 25.6235 19.2725C25.8998 19.6367 26.0703 19.9589 26.147 20.218C26.2234 20.4757 26.1951 20.6228 26.1499 20.7056Z" fill="white" stroke="#292929"/>
<path d="M23 19C23.5719 16.4269 25.8507 11.0281 30.3908 10.0175C34.9308 9.00702 35.274 4.91813 34.878 3" stroke="#292929" stroke-linecap="round"/>
<path d="M36.5 3.5C36.5 5.23194 35.3112 6.5 34 6.5C32.6888 6.5 31.5 5.23194 31.5 3.5C31.5 1.76806 32.6888 0.5 34 0.5C35.3112 0.5 36.5 1.76806 36.5 3.5Z" fill="white" stroke="#292929"/>
<path d="M14.8703 31.6812C12.9931 34.1476 9.82319 39.8749 12.161 43.0523C14.4988 46.2297 22.6018 43.3155 26.3611 41.4612" stroke="#292929" stroke-linecap="round"/>
<circle cx="3.5" cy="3.5" r="3" transform="matrix(0.736028 -0.676951 0.635248 0.772308 21 43)" fill="white" stroke="#292929"/>
</svg>
