<svg width="40" height="40" viewBox="0 0 40 40" fill="none" xmlns="http://www.w3.org/2000/svg">
<mask id="path-1-inside-1_31_343" fill="white">
<path d="M20 20C18.6868 20 17.3864 19.7414 16.1731 19.2388C14.9599 18.7363 13.8575 17.9997 12.9289 17.0711C12.0003 16.1425 11.2637 15.0401 10.7612 13.8269C10.2586 12.6136 9.99997 11.3132 9.99997 10C9.99997 8.68679 10.2586 7.38643 10.7612 6.17317C11.2637 4.95992 12.0003 3.85752 12.9289 2.92894C13.8575 2.00035 14.9599 1.26375 16.1731 0.761205C17.3864 0.258657 18.6868 -6.0933e-07 20 -4.37121e-07L20 10L20 20Z"/>
</mask>
<path d="M20 20C18.6868 20 17.3864 19.7414 16.1731 19.2388C14.9599 18.7363 13.8575 17.9997 12.9289 17.0711C12.0003 16.1425 11.2637 15.0401 10.7612 13.8269C10.2586 12.6136 9.99997 11.3132 9.99997 10C9.99997 8.68679 10.2586 7.38643 10.7612 6.17317C11.2637 4.95992 12.0003 3.85752 12.9289 2.92894C13.8575 2.00035 14.9599 1.26375 16.1731 0.761205C17.3864 0.258657 18.6868 -6.0933e-07 20 -4.37121e-07L20 10L20 20Z" fill="white" stroke="#292929" stroke-width="2" mask="url(#path-1-inside-1_31_343)"/>
<mask id="path-2-inside-2_31_343" fill="white">
<path d="M20 20C21.3132 20 22.6136 20.2586 23.8269 20.7612C25.0401 21.2637 26.1425 22.0003 27.0711 22.9289C27.9997 23.8575 28.7363 24.9599 29.2388 26.1731C29.7414 27.3864 30 28.6868 30 30C30 31.3132 29.7414 32.6136 29.2388 33.8268C28.7363 35.0401 27.9997 36.1425 27.0711 37.0711C26.1425 37.9997 25.0401 38.7362 23.8269 39.2388C22.6136 39.7413 21.3132 40 20 40L20 30L20 20Z"/>
</mask>
<path d="M20 20C21.3132 20 22.6136 20.2586 23.8269 20.7612C25.0401 21.2637 26.1425 22.0003 27.0711 22.9289C27.9997 23.8575 28.7363 24.9599 29.2388 26.1731C29.7414 27.3864 30 28.6868 30 30C30 31.3132 29.7414 32.6136 29.2388 33.8268C28.7363 35.0401 27.9997 36.1425 27.0711 37.0711C26.1425 37.9997 25.0401 38.7362 23.8269 39.2388C22.6136 39.7413 21.3132 40 20 40L20 30L20 20Z" fill="white" stroke="#292929" stroke-width="2" mask="url(#path-2-inside-2_31_343)"/>
<mask id="path-3-inside-3_31_343" fill="white">
<path d="M20 20C20 21.3132 19.7414 22.6136 19.2388 23.8269C18.7363 25.0401 17.9997 26.1425 17.0711 27.0711C16.1425 27.9997 15.0401 28.7363 13.8269 29.2388C12.6136 29.7414 11.3132 30 10 30C8.6868 30 7.38643 29.7414 6.17318 29.2388C4.95992 28.7363 3.85752 27.9997 2.92894 27.0711C2.00035 26.1425 1.26375 25.0401 0.761206 23.8269C0.258658 22.6136 -1.14805e-07 21.3132 0 20L10 20L20 20Z"/>
</mask>
<path d="M20 20C20 21.3132 19.7414 22.6136 19.2388 23.8269C18.7363 25.0401 17.9997 26.1425 17.0711 27.0711C16.1425 27.9997 15.0401 28.7363 13.8269 29.2388C12.6136 29.7414 11.3132 30 10 30C8.6868 30 7.38643 29.7414 6.17318 29.2388C4.95992 28.7363 3.85752 27.9997 2.92894 27.0711C2.00035 26.1425 1.26375 25.0401 0.761206 23.8269C0.258658 22.6136 -1.14805e-07 21.3132 0 20L10 20L20 20Z" fill="white" stroke="#292929" stroke-width="2" mask="url(#path-3-inside-3_31_343)"/>
<mask id="path-4-inside-4_31_343" fill="white">
<path d="M20 20C20 18.6868 20.2586 17.3864 20.7612 16.1731C21.2637 14.9599 22.0003 13.8575 22.9289 12.9289C23.8575 12.0003 24.9599 11.2637 26.1731 10.7612C27.3864 10.2586 28.6868 9.99997 30 9.99997C31.3132 9.99997 32.6136 10.2586 33.8268 10.7612C35.0401 11.2637 36.1425 12.0003 37.0711 12.9289C37.9997 13.8575 38.7362 14.9599 39.2388 16.1731C39.7413 17.3864 40 18.6868 40 20L30 20L20 20Z"/>
</mask>
<path d="M20 20C20 18.6868 20.2586 17.3864 20.7612 16.1731C21.2637 14.9599 22.0003 13.8575 22.9289 12.9289C23.8575 12.0003 24.9599 11.2637 26.1731 10.7612C27.3864 10.2586 28.6868 9.99997 30 9.99997C31.3132 9.99997 32.6136 10.2586 33.8268 10.7612C35.0401 11.2637 36.1425 12.0003 37.0711 12.9289C37.9997 13.8575 38.7362 14.9599 39.2388 16.1731C39.7413 17.3864 40 18.6868 40 20L30 20L20 20Z" fill="white" stroke="#292929" stroke-width="2" mask="url(#path-4-inside-4_31_343)"/>
</svg>
