<svg width="42" height="50" viewBox="0 0 42 50" fill="none" xmlns="http://www.w3.org/2000/svg">
<path fill-rule="evenodd" clip-rule="evenodd" d="M32.4281 16.5719C32.9406 17.0845 32.9406 17.9155 32.4281 18.4281L21.9281 28.9281C21.4155 29.4406 20.5845 29.4406 20.0719 28.9281L9.57192 18.4281C9.05936 17.9155 9.05936 17.0845 9.57192 16.5719C10.0845 16.0594 10.9155 16.0594 11.4281 16.5719L21 26.1438L30.5719 16.5719C31.0845 16.0594 31.9155 16.0594 32.4281 16.5719Z" fill="white"/>
<path fill-rule="evenodd" clip-rule="evenodd" d="M32.4281 24.5719C32.9406 25.0845 32.9406 25.9155 32.4281 26.4281L21.9281 36.9281C21.4155 37.4406 20.5845 37.4406 20.0719 36.9281L9.57192 26.4281C9.05936 25.9155 9.05936 25.0845 9.57192 24.5719C10.0845 24.0594 10.9155 24.0594 11.4281 24.5719L21 34.1438L30.5719 24.5719C31.0845 24.0594 31.9155 24.0594 32.4281 24.5719Z" fill="white"/>
</svg>
