<svg width="357" height="428" viewBox="0 0 357 428" fill="none" xmlns="http://www.w3.org/2000/svg">
<rect width="272" height="66" rx="30" transform="matrix(0.996733 0.0807683 -0.0807353 0.996736 65.0005 101)" fill="white"/>
<path d="M137.164 145.994L137.304 144.26L143.272 139.446C143.773 139.045 144.15 138.688 144.403 138.374C144.656 138.06 144.827 137.766 144.916 137.493C145.019 137.207 145.081 136.937 145.101 136.685C145.153 136.047 144.974 135.538 144.563 135.156C144.154 134.762 143.524 134.53 142.673 134.462C141.995 134.407 141.368 134.476 140.79 134.67C140.226 134.865 139.724 135.193 139.286 135.652L137.585 134.11C138.189 133.423 138.966 132.917 139.915 132.593C140.879 132.256 141.932 132.134 143.075 132.227C144.085 132.309 144.949 132.546 145.666 132.938C146.398 133.319 146.939 133.824 147.289 134.454C147.652 135.086 147.801 135.813 147.734 136.637C147.697 137.089 147.601 137.536 147.445 137.978C147.289 138.407 147.026 138.854 146.654 139.319C146.282 139.784 145.752 140.296 145.064 140.856L139.933 144.995L139.474 143.974L147.628 144.635L147.45 146.828L137.164 145.994ZM154.332 147.586C153.176 147.492 152.186 147.238 151.364 146.824C150.541 146.409 149.923 145.871 149.508 145.208C149.095 144.533 148.922 143.77 148.991 142.919C149.06 142.069 149.344 141.369 149.843 140.821C150.343 140.273 151.03 139.881 151.905 139.644C152.781 139.407 153.81 139.337 154.992 139.432C156.175 139.528 157.18 139.763 158.005 140.138C158.844 140.514 159.466 141.019 159.869 141.653C160.287 142.276 160.462 143.006 160.394 143.843C160.325 144.693 160.025 145.418 159.495 146.017C158.98 146.604 158.276 147.036 157.384 147.311C156.505 147.588 155.488 147.679 154.332 147.586ZM154.497 145.552C155.453 145.63 156.227 145.492 156.818 145.138C157.408 144.785 157.732 144.256 157.789 143.552C157.845 142.861 157.61 142.293 157.084 141.849C156.558 141.405 155.817 141.145 154.86 141.067C153.903 140.99 153.136 141.128 152.559 141.483C151.982 141.837 151.665 142.36 151.609 143.051C151.552 143.755 151.78 144.329 152.292 144.772C152.805 145.215 153.54 145.475 154.497 145.552ZM154.883 140.788C153.806 140.701 152.894 140.486 152.146 140.145C151.398 139.79 150.834 139.323 150.453 138.744C150.087 138.152 149.934 137.471 149.997 136.7C150.061 135.903 150.33 135.236 150.801 134.699C151.287 134.149 151.935 133.747 152.745 133.492C153.555 133.236 154.472 133.15 155.495 133.233C156.531 133.317 157.429 133.55 158.187 133.932C158.945 134.315 159.52 134.816 159.911 135.436C160.304 136.043 160.467 136.746 160.403 137.543C160.34 138.314 160.074 138.961 159.603 139.485C159.147 139.996 158.515 140.367 157.707 140.595C156.901 140.811 155.959 140.875 154.883 140.788ZM155.012 139.193C155.836 139.26 156.501 139.14 157.007 138.833C157.515 138.513 157.793 138.054 157.841 137.456C157.892 136.831 157.685 136.326 157.222 135.941C156.758 135.556 156.127 135.331 155.33 135.266C154.533 135.201 153.881 135.323 153.374 135.629C152.868 135.936 152.589 136.402 152.539 137.026C152.49 137.625 152.684 138.122 153.12 138.518C153.571 138.903 154.201 139.128 155.012 139.193ZM172.726 149.076C171.849 149.005 171.075 148.808 170.406 148.486C169.736 148.165 169.171 147.711 168.71 147.125C168.264 146.527 167.942 145.792 167.745 144.92C167.548 144.048 167.497 143.027 167.592 141.858C167.661 141.007 167.797 140.235 168 139.543C168.204 138.85 168.474 138.237 168.812 137.702C169.15 137.155 169.557 136.679 170.031 136.276C170.518 135.874 171.073 135.551 171.694 135.307C172.316 135.063 173.012 134.892 173.783 134.794L178.812 134.138L178.99 136.4L174.43 136.954C174.174 136.986 173.861 137.041 173.494 137.119C173.141 137.184 172.77 137.301 172.382 137.47C172.008 137.627 171.647 137.872 171.299 138.205C170.965 138.526 170.676 138.957 170.432 139.499C170.202 140.029 170.053 140.706 169.986 141.53C169.966 141.782 169.957 141.976 169.959 142.109C169.976 142.231 169.985 142.366 169.987 142.513C170.003 142.648 170 142.848 169.978 143.114L169.12 142.062C169.441 141.405 169.854 140.857 170.357 140.416C170.876 139.963 171.457 139.636 172.102 139.434C172.762 139.22 173.464 139.143 174.208 139.203C175.205 139.284 176.072 139.561 176.809 140.036C177.547 140.51 178.104 141.137 178.483 141.917C178.861 142.697 179.012 143.558 178.935 144.502C178.856 145.485 178.546 146.337 178.006 147.055C177.466 147.774 176.74 148.317 175.827 148.685C174.929 149.04 173.895 149.17 172.726 149.076ZM173.088 147.078C173.686 147.127 174.221 147.043 174.694 146.827C175.18 146.599 175.568 146.269 175.857 145.838C176.16 145.408 176.334 144.913 176.379 144.355C176.424 143.797 176.331 143.301 176.098 142.868C175.88 142.422 175.549 142.054 175.104 141.764C174.673 141.475 174.145 141.305 173.52 141.254C172.922 141.206 172.374 141.282 171.876 141.482C171.392 141.684 170.999 141.986 170.699 142.39C170.413 142.782 170.248 143.25 170.204 143.795C170.159 144.353 170.25 144.875 170.478 145.362C170.706 145.849 171.042 146.244 171.486 146.547C171.943 146.852 172.477 147.029 173.088 147.078ZM185.708 150.067C184.525 149.971 183.507 149.655 182.655 149.117C181.816 148.568 181.185 147.861 180.76 146.997C180.348 146.135 180.185 145.178 180.27 144.128C180.356 143.065 180.664 142.147 181.195 141.374C181.741 140.589 182.444 139.997 183.306 139.599C184.181 139.201 185.15 139.046 186.213 139.132C187.249 139.216 188.155 139.517 188.929 140.034C189.703 140.552 190.289 141.241 190.687 142.103C191.086 142.965 191.24 143.954 191.149 145.07C191.141 145.176 191.124 145.295 191.1 145.427C191.09 145.56 191.073 145.686 191.05 145.804L182.179 145.086L182.313 143.431L189.868 144.043L188.849 144.482C188.912 143.872 188.829 143.324 188.601 142.837C188.373 142.35 188.037 141.955 187.594 141.652C187.163 141.349 186.649 141.174 186.051 141.125C185.44 141.076 184.891 141.165 184.404 141.393C183.931 141.623 183.542 141.966 183.237 142.422C182.947 142.867 182.776 143.408 182.724 144.046L182.692 144.445C182.64 145.083 182.741 145.66 182.993 146.175C183.246 146.69 183.627 147.103 184.137 147.411C184.647 147.72 185.248 147.903 185.939 147.959C186.537 148.007 187.083 147.958 187.576 147.81C188.07 147.663 188.519 147.405 188.923 147.037L190.134 148.68C189.611 149.199 188.971 149.582 188.215 149.829C187.474 150.063 186.638 150.142 185.708 150.067ZM199.138 151.155C198.274 151.085 197.5 150.821 196.815 150.365C196.143 149.909 195.626 149.265 195.265 148.433C194.919 147.589 194.796 146.549 194.896 145.313C194.998 144.064 195.28 143.057 195.743 142.292C196.22 141.528 196.826 140.981 197.561 140.653C198.298 140.312 199.118 140.177 200.022 140.25C201.072 140.336 201.977 140.636 202.738 141.153C203.512 141.67 204.099 142.353 204.498 143.202C204.911 144.051 205.073 145.027 204.983 146.13C204.894 147.233 204.577 148.177 204.031 148.963C203.501 149.736 202.811 150.315 201.964 150.701C201.13 151.089 200.188 151.24 199.138 151.155ZM192.936 154.405L194.112 139.892L196.484 140.084L196.28 142.596L195.971 145.42L195.941 148.267L195.427 154.606L192.936 154.405ZM199.032 148.999C199.63 149.048 200.172 148.958 200.659 148.73C201.159 148.503 201.569 148.148 201.889 147.665C202.209 147.183 202.397 146.603 202.452 145.925C202.508 145.234 202.416 144.631 202.177 144.117C201.939 143.589 201.591 143.173 201.134 142.869C200.69 142.565 200.17 142.389 199.572 142.341C198.974 142.293 198.425 142.382 197.925 142.609C197.425 142.836 197.015 143.191 196.695 143.673C196.376 144.142 196.188 144.722 196.132 145.413C196.077 146.091 196.169 146.694 196.407 147.221C196.645 147.749 196.993 148.165 197.45 148.47C197.907 148.774 198.434 148.951 199.032 148.999ZM211.785 152.179C210.602 152.083 209.584 151.767 208.732 151.229C207.893 150.68 207.262 149.973 206.837 149.11C206.425 148.247 206.262 147.291 206.347 146.241C206.433 145.177 206.742 144.259 207.272 143.486C207.818 142.701 208.521 142.109 209.383 141.711C210.258 141.314 211.227 141.158 212.29 141.244C213.327 141.328 214.232 141.629 215.006 142.146C215.78 142.664 216.366 143.353 216.765 144.215C217.163 145.077 217.317 146.066 217.226 147.182C217.218 147.288 217.201 147.407 217.177 147.539C217.167 147.672 217.15 147.798 217.127 147.916L208.256 147.198L208.39 145.543L215.945 146.155L214.926 146.594C214.989 145.984 214.907 145.436 214.678 144.949C214.45 144.462 214.115 144.067 213.671 143.764C213.241 143.461 212.726 143.286 212.128 143.238C211.517 143.188 210.968 143.277 210.481 143.506C210.008 143.735 209.619 144.078 209.314 144.535C209.024 144.979 208.853 145.521 208.802 146.159L208.769 146.557C208.718 147.195 208.818 147.772 209.071 148.287C209.323 148.803 209.704 149.215 210.214 149.524C210.724 149.832 211.325 150.015 212.016 150.071C212.614 150.119 213.16 150.07 213.653 149.923C214.147 149.775 214.596 149.517 215 149.149L216.212 150.792C215.688 151.311 215.048 151.694 214.292 151.941C213.551 152.175 212.715 152.254 211.785 152.179ZM222.505 153.088C223.489 153.167 224.371 153.098 225.151 152.88C225.944 152.664 226.58 152.327 227.058 151.871C227.538 151.402 227.804 150.841 227.857 150.19C227.922 149.379 227.635 148.714 226.995 148.194C226.356 147.661 225.445 147.346 224.262 147.25L224.139 147.782C224.83 147.838 225.451 147.775 226.001 147.592C226.564 147.41 227.014 147.132 227.352 146.758C227.705 146.372 227.901 145.926 227.942 145.421C227.992 144.81 227.816 144.261 227.414 143.773C227.012 143.286 226.442 142.892 225.703 142.591C224.965 142.291 224.11 142.121 223.136 142.083C222.497 142.044 221.845 142.085 221.18 142.205C220.529 142.313 219.852 142.492 219.15 142.743L219.639 144.629C220.244 144.423 220.831 144.277 221.4 144.189C221.983 144.103 222.54 144.081 223.071 144.124C223.576 144.165 224.004 144.253 224.354 144.388C224.705 144.51 224.966 144.679 225.136 144.893C225.32 145.095 225.402 145.323 225.381 145.575C225.361 145.828 225.263 146.041 225.089 146.214C224.914 146.387 224.67 146.508 224.357 146.576C224.057 146.645 223.695 146.663 223.269 146.628L221.416 146.478L221.28 148.153L223.333 148.319C224.011 148.374 224.52 148.529 224.861 148.784C225.215 149.026 225.376 149.36 225.341 149.786C225.318 150.078 225.184 150.328 224.939 150.536C224.708 150.744 224.389 150.892 223.98 150.98C223.573 151.054 223.09 151.068 222.532 151.023C221.881 150.97 221.236 150.838 220.598 150.626C219.96 150.413 219.393 150.14 218.899 149.806L218.051 151.603C218.659 152.014 219.348 152.35 220.116 152.613C220.898 152.864 221.695 153.022 222.505 153.088ZM229.97 153.512L230.833 142.866L233.325 143.068L232.974 147.394L238.336 147.828L238.687 143.503L241.179 143.705L240.316 154.35L237.824 154.148L238.165 149.942L232.803 149.507L232.462 153.713L229.97 153.512ZM250.214 155.151L250.508 151.523L250.833 151.971L247.644 151.713C246.182 151.594 245.057 151.195 244.269 150.516C243.496 149.825 243.157 148.894 243.251 147.725C243.353 146.476 243.868 145.561 244.798 144.981C245.741 144.402 246.95 144.172 248.426 144.291L253.31 144.687L252.447 155.332L250.214 155.151ZM242.559 154.531L245.759 150.697L248.311 150.904L245.231 154.748L242.559 154.531ZM250.573 150.726L250.961 145.942L251.266 146.628L248.336 146.391C247.565 146.329 246.955 146.426 246.506 146.684C246.071 146.93 245.828 147.372 245.777 148.01C245.68 149.206 246.409 149.867 247.964 149.993L250.974 150.237L250.573 150.726Z" fill="#292929"/>
<g filter="url(#filter0_b_197_74)">
<rect width="187" height="54" rx="20" transform="matrix(0.994455 -0.105162 0.105119 0.99446 73 56)" fill="#C8E228"/>
<rect x="0.549787" y="0.444649" width="186" height="53" rx="19.5" transform="matrix(0.994455 -0.105162 0.105119 0.99446 72.9563 56.0603)" stroke="white"/>
</g>
<g filter="url(#filter1_b_197_74)">
<rect x="0.549635" y="0.444525" width="185" height="53" rx="19.5" transform="matrix(0.994426 -0.105438 0.104844 0.994489 74.9569 50.0604)" stroke="#C8E228"/>
</g>
<path d="M110.203 81.8084C109.992 83.5194 109.271 84.841 108.041 85.7732C106.809 86.6921 105.166 87.2585 103.11 87.4722C101.863 87.6018 100.732 87.5518 99.7163 87.3223C98.7005 87.0928 97.8227 86.7081 97.083 86.1684C96.3418 85.6154 95.7461 84.9132 95.2957 84.0619C94.8453 83.2106 94.5622 82.2279 94.4464 81.1139L94.4092 80.7559C94.2893 79.6021 94.3615 78.5557 94.6259 77.6166C94.8902 76.6776 95.3289 75.8679 95.9419 75.1875C96.5534 74.4939 97.3334 73.9369 98.2817 73.5166C99.2286 73.083 100.325 72.8015 101.572 72.6719C102.633 72.5616 103.605 72.5677 104.49 72.6903C105.387 72.8115 106.177 73.0578 106.859 73.4293C107.553 73.7861 108.139 74.2681 108.617 74.8751C109.096 75.4822 109.447 76.2165 109.671 77.078L107.522 77.3014C107.336 76.798 107.062 76.3506 106.699 75.9593C106.349 75.5534 105.926 75.222 105.43 74.9653C104.946 74.6938 104.39 74.5103 103.764 74.4146C103.149 74.3042 102.477 74.2869 101.748 74.3628C100.78 74.4634 99.946 74.6975 99.2469 75.0651C98.5465 75.4194 97.9771 75.8741 97.5387 76.4291C97.1004 76.984 96.7925 77.6327 96.6149 78.375C96.4493 79.1027 96.4105 79.8909 96.4987 80.7397C96.5828 81.5487 96.78 82.2856 97.0904 82.9504C97.414 83.6138 97.8474 84.172 98.3904 84.6249C98.9335 85.0779 99.5849 85.4123 100.345 85.6282C101.103 85.8309 101.966 85.8819 102.934 85.7813C104.406 85.6282 105.591 85.2236 106.488 84.5673C107.397 83.8964 107.932 83.0498 108.094 82.0276L110.203 81.8084ZM117.3 76.6066L118.22 85.459L116.35 85.6534L115.43 76.801L110.437 77.3201L110.261 75.6292L122.077 74.4008L122.253 76.0917L117.3 76.6066ZM132.993 80.9472C133.097 82.0758 132.834 82.9678 132.205 83.623C131.59 84.2768 130.632 84.6713 129.332 84.8064L128.656 84.8767C127.356 85.0118 126.318 84.8248 125.541 84.3158C124.763 83.7934 124.298 82.9302 124.146 81.7262C124.023 80.5458 124.298 79.6393 124.969 79.0064C125.64 78.3604 126.624 77.9697 127.924 77.8346L134.031 77.1997C133.904 76.6231 133.689 76.1629 133.385 75.8192C133.08 75.4621 132.737 75.1961 132.357 75.0212C131.976 74.8329 131.568 74.7211 131.136 74.6857C130.715 74.6356 130.326 74.6291 129.968 74.6663L129.769 74.687C129.411 74.7243 129.042 74.7894 128.663 74.8824C128.284 74.9754 127.923 75.1135 127.58 75.2966C127.236 75.4665 126.93 75.6859 126.663 75.955C126.396 76.224 126.21 76.5584 126.104 76.9582L124.154 77.1608C124.167 76.6367 124.304 76.1466 124.565 75.6905C124.839 75.2331 125.212 74.8256 125.684 74.4682C126.168 74.0962 126.733 73.7895 127.378 73.5481C128.037 73.3054 128.744 73.1447 129.5 73.0662L129.659 73.0496C130.693 72.9421 131.588 72.9697 132.342 73.1326C133.096 73.2955 133.731 73.5982 134.246 74.0406C134.761 74.483 135.164 75.0712 135.455 75.8051C135.745 76.5389 135.951 77.4224 136.072 78.4554L136.601 83.548L134.751 83.7404L134.236 78.787L132.185 78.9801C132.64 79.4825 132.909 80.1382 132.993 80.9472ZM125.996 81.5338C126.076 82.169 126.312 82.6338 126.704 82.9281C127.095 83.2092 127.689 83.3083 128.484 83.2256L129.161 83.1553C129.93 83.0753 130.477 82.8576 130.802 82.5021C131.127 82.1466 131.269 81.6425 131.228 80.9899C131.134 80.3428 130.899 79.8847 130.522 79.6155C130.146 79.3464 129.559 79.2531 128.764 79.3359L128.087 79.4062C127.292 79.4889 126.731 79.7014 126.404 80.0436C126.078 80.3859 125.942 80.8826 125.996 81.5338ZM146.032 82.9698C145.092 83.0809 144.196 83.04 143.345 82.8469C142.507 82.6526 141.761 82.3145 141.108 81.8328L141.59 86.4678L139.738 86.6403L138.29 72.7153L140.141 72.5229L140.175 73.8263C140.713 73.194 141.37 72.6767 142.146 72.2743C142.935 71.8705 143.813 71.6183 144.781 71.5177C145.683 71.4239 146.531 71.4564 147.325 71.6152C148.118 71.7606 148.817 72.0365 149.422 72.4428C150.04 72.8477 150.546 73.3916 150.939 74.0747C151.343 74.7431 151.603 75.5607 151.716 76.5274C151.82 77.5221 151.75 78.4006 151.508 79.1631C151.265 79.9256 150.89 80.5745 150.383 81.1099C149.876 81.6452 149.249 82.0656 148.503 82.371C147.757 82.6764 146.934 82.876 146.032 82.9698ZM140.702 77.7328C140.791 78.4608 140.975 79.0651 141.252 79.5456C141.543 80.0248 141.904 80.4028 142.335 80.6797C142.78 80.9553 143.288 81.137 143.86 81.225C144.445 81.3116 145.076 81.3197 145.753 81.2494C146.416 81.1805 147.011 81.0448 147.54 80.8424C148.082 80.6386 148.529 80.3576 148.88 79.9993C149.245 79.6397 149.507 79.1968 149.667 78.6708C149.84 78.1434 149.895 77.5143 149.833 76.7836C149.744 76.0555 149.56 75.4513 149.283 74.9707C149.017 74.4756 148.675 74.0889 148.257 73.8106C147.838 73.519 147.349 73.3285 146.79 73.2392C146.231 73.1498 145.62 73.1396 144.957 73.2086C144.281 73.2789 143.666 73.4232 143.112 73.6417C142.57 73.8455 142.104 74.1352 141.714 74.5108C141.336 74.8719 141.055 75.3234 140.87 75.8654C140.697 76.3928 140.641 77.0153 140.702 77.7328ZM159.111 72.2599L160.031 81.1122L158.161 81.3066L157.241 72.4543L152.248 72.9734L152.072 71.2825L163.889 70.054L164.065 71.7449L159.111 72.2599ZM177.239 74.98L177.686 79.2768L175.836 79.4692L174.74 68.9259L176.59 68.7336L177.07 73.3487L181.605 72.8772L184.09 67.9539L186.258 67.7285L183.362 73.338L188.05 78.1994L185.782 78.4351L181.954 74.4898L177.239 74.98ZM196.674 76.418C196.251 77.5076 195.848 78.3404 195.466 78.9164C195.083 79.4923 194.698 79.9078 194.308 80.1627C193.921 80.4309 193.508 80.5878 193.07 80.6333C192.634 80.692 192.138 80.7504 191.581 80.8083L191.402 80.8269L191.226 79.136C191.716 79.085 192.126 79.029 192.455 78.968C192.784 78.907 193.067 78.7905 193.303 78.6184C193.554 78.4449 193.788 78.186 194.007 77.8415C194.226 77.497 194.471 77.0158 194.742 76.3978L194.82 76.1885L193.547 76.3208L187.356 67.6345L189.445 67.4173C190.419 68.7906 191.306 70.0389 192.106 71.1622C192.45 71.6358 192.788 72.1101 193.119 72.5851C193.448 73.0469 193.754 73.4775 194.037 73.8771C194.319 74.2634 194.554 74.5941 194.744 74.8694C194.932 75.1313 195.057 75.3059 195.12 75.3933L198.476 66.4784L200.525 66.2654L196.674 76.418ZM209.864 76.3337C208.923 76.4449 208.028 76.404 207.177 76.2109C206.339 76.0165 205.593 75.6785 204.94 75.1968L205.421 79.8318L203.569 80.0043L202.122 66.0793L203.972 65.8869L204.007 67.1903C204.545 66.558 205.201 66.0407 205.977 65.6383C206.766 65.2345 207.645 64.9823 208.613 64.8816C209.515 64.7879 210.363 64.8204 211.157 64.9791C211.95 65.1246 212.648 65.4005 213.254 65.8068C213.872 66.2116 214.378 66.7556 214.771 67.4387C215.175 68.1071 215.434 68.9247 215.548 69.8914C215.652 70.886 215.582 71.7646 215.34 72.5271C215.097 73.2896 214.722 73.9385 214.215 74.4739C213.707 75.0092 213.081 75.4296 212.335 75.735C211.589 76.0404 210.765 76.24 209.864 76.3337ZM204.534 71.0968C204.623 71.8248 204.806 72.4291 205.084 72.9096C205.375 73.3887 205.736 73.7668 206.167 74.0437C206.611 74.3192 207.12 74.501 207.692 74.589C208.277 74.6756 208.908 74.6837 209.584 74.6134C210.247 74.5445 210.843 74.4088 211.372 74.2064C211.914 74.0026 212.36 73.7216 212.712 73.3633C213.077 73.0037 213.339 72.5608 213.499 72.0348C213.672 71.5074 213.727 70.8783 213.665 70.1475C213.576 69.4195 213.392 68.8153 213.114 68.3347C212.848 67.8396 212.507 67.4529 212.089 67.1745C211.67 66.883 211.181 66.6925 210.622 66.6032C210.063 66.5138 209.452 66.5036 208.789 66.5725C208.113 66.6429 207.498 66.7872 206.944 67.0057C206.402 67.2094 205.936 67.4992 205.546 67.8748C205.168 68.2359 204.887 68.6874 204.702 69.2294C204.529 69.7568 204.473 70.3793 204.534 71.0968ZM228.516 70.4937C228.492 71.1664 228.334 71.7727 228.042 72.3125C227.761 72.8377 227.373 73.2936 226.877 73.6803C226.394 74.0656 225.823 74.373 225.163 74.6025C224.504 74.8452 223.784 75.0072 223.002 75.0886C222.047 75.1878 221.172 75.1581 220.378 74.9993C219.599 74.8525 218.913 74.5686 218.319 74.1477C217.726 73.7268 217.245 73.1668 216.878 72.4677C216.51 71.7686 216.269 70.9291 216.154 69.9491C216.052 68.9677 216.109 68.0972 216.325 67.3374C216.539 66.5644 216.887 65.9116 217.368 65.3791C217.861 64.8318 218.479 64.3989 219.223 64.0802C219.966 63.7483 220.809 63.5334 221.75 63.4355C222.533 63.3541 223.271 63.3645 223.965 63.4666C224.673 63.5673 225.309 63.7559 225.874 64.0323C226.439 64.3087 226.92 64.6809 227.317 65.149C227.713 65.6039 227.992 66.158 228.154 66.8114L226.164 67.0183C226.045 66.6419 225.851 66.3203 225.581 66.0534C225.326 65.785 225.008 65.57 224.63 65.4083C224.264 65.2452 223.844 65.1348 223.369 65.0769C222.907 65.0177 222.417 65.015 221.9 65.0688C220.496 65.2282 219.471 65.6833 218.825 66.4341C218.179 67.1849 217.918 68.2844 218.041 69.7327C218.217 71.1623 218.704 72.1773 219.504 72.7778C220.317 73.377 221.426 73.6035 222.832 73.4573C223.88 73.3484 224.742 73.0644 225.418 72.6054C226.094 72.1464 226.47 71.5107 226.547 70.6984L228.516 70.4937ZM238.621 72.0572C238.198 73.1467 237.796 73.9795 237.413 74.5555C237.031 75.1315 236.645 75.5469 236.256 75.8018C235.868 76.07 235.455 76.2269 235.018 76.2724C234.582 76.3311 234.085 76.3895 233.528 76.4474L233.349 76.466L233.173 74.7751C233.664 74.7241 234.074 74.6681 234.402 74.6071C234.731 74.5461 235.014 74.4296 235.251 74.2575C235.501 74.084 235.735 73.8251 235.954 73.4806C236.173 73.1361 236.418 72.6549 236.689 72.0369L236.768 71.8276L235.495 71.96L229.304 63.2736L231.392 63.0564C232.366 64.4297 233.253 65.678 234.054 66.8013C234.398 67.2749 234.735 67.7492 235.066 68.2242C235.396 68.686 235.702 69.1166 235.985 69.5162C236.266 69.9025 236.502 70.2333 236.691 70.5085C236.879 70.7704 237.004 70.9451 237.067 71.0324L240.424 62.1175L242.473 61.9045L238.621 72.0572Z" fill="#292929"/>
<rect width="254" height="66" rx="30" transform="matrix(0.986649 -0.162862 0.161614 0.986854 10.0005 265)" fill="white"/>
<path d="M106.313 290.088C105.34 290.248 104.363 290.268 103.384 290.146C102.416 290.008 101.575 289.741 100.862 289.346L101.64 287.17C102.207 287.495 102.866 287.724 103.617 287.857C104.368 287.99 105.132 287.992 105.908 287.864C106.829 287.712 107.516 287.409 107.969 286.956C108.419 286.49 108.592 285.934 108.486 285.29C108.383 284.658 108.064 284.197 107.53 283.907C106.996 283.617 106.203 283.558 105.151 283.732L103.888 283.941L103.6 282.184L106.777 276.835L107.271 277.747L99.8516 278.972L99.4993 276.82L108.912 275.267L109.193 276.984L106.016 282.333L104.545 281.765L105.314 281.638C107.011 281.357 108.343 281.53 109.31 282.154C110.288 282.763 110.874 283.659 111.068 284.843C111.195 285.62 111.115 286.369 110.828 287.092C110.541 287.815 110.024 288.448 109.275 288.991C108.537 289.518 107.55 289.884 106.313 290.088ZM119.273 287.746L117.547 277.206L120.132 276.78L125.6 283.56L124.573 283.729L127.808 275.513L130.117 275.132L131.863 285.668L129.633 286.036L128.34 278.141L128.777 278.333L125.9 285.517L124.834 285.693L119.769 279.637L120.223 279.44L121.523 287.375L119.273 287.746ZM134.974 285.154L133.248 274.615L135.714 274.208L137.44 284.747L134.974 285.154ZM134.206 272.673C133.746 272.749 133.341 272.667 132.991 272.427C132.654 272.186 132.452 271.861 132.385 271.453C132.316 271.032 132.404 270.659 132.648 270.335C132.903 269.996 133.261 269.788 133.722 269.712C134.182 269.636 134.58 269.712 134.914 269.941C135.26 270.154 135.466 270.465 135.533 270.873C135.604 271.307 135.52 271.699 135.28 272.05C135.038 272.387 134.68 272.595 134.206 272.673ZM145.395 283.576C144.29 283.759 143.265 283.691 142.322 283.374C141.389 283.041 140.612 282.507 139.992 281.772C139.372 281.036 138.976 280.149 138.806 279.11C138.634 278.057 138.725 277.089 139.081 276.206C139.434 275.31 140 274.561 140.78 273.959C141.573 273.356 142.521 272.962 143.627 272.78C144.653 272.611 145.588 272.672 146.433 272.965C147.29 273.243 147.987 273.749 148.526 274.485L146.813 275.903C146.416 275.455 145.967 275.15 145.468 274.99C144.982 274.827 144.476 274.789 143.949 274.875C143.344 274.975 142.82 275.197 142.376 275.54C141.933 275.884 141.614 276.329 141.419 276.874C141.223 277.407 141.18 278.015 141.293 278.699C141.405 279.383 141.64 279.953 141.998 280.407C142.354 280.848 142.797 281.16 143.327 281.343C143.856 281.526 144.424 281.567 145.029 281.468C145.555 281.381 146.023 281.182 146.431 280.871C146.853 280.558 147.181 280.126 147.414 279.574L149.49 280.366C149.211 281.223 148.713 281.934 147.995 282.498C147.287 283.048 146.421 283.407 145.395 283.576ZM158.246 281.313L157.658 277.721L158.081 278.077L154.923 278.598C153.476 278.837 152.289 278.722 151.361 278.254C150.444 277.77 149.891 276.949 149.701 275.791C149.499 274.554 149.779 273.542 150.541 272.754C151.317 271.963 152.435 271.448 153.895 271.207L158.73 270.409L160.456 280.948L158.246 281.313ZM150.669 282.564L152.851 278.068L155.376 277.652L153.313 282.127L150.669 282.564ZM157.528 276.931L156.753 272.195L157.214 272.787L154.314 273.266C153.551 273.392 152.982 273.634 152.609 273.993C152.246 274.337 152.117 274.825 152.22 275.456C152.414 276.64 153.281 277.106 154.82 276.851L157.8 276.36L157.528 276.931ZM163.577 280.433L161.851 269.894L164.317 269.487L165.701 277.934L170.733 277.103L169.349 268.656L171.816 268.249L173.542 278.788L163.577 280.433ZM173.216 281.254L172.822 278.846L173.404 278.811L171.075 279.196L170.733 277.103L174.798 276.432L175.525 280.873L173.216 281.254ZM177.138 278.195L175.412 267.655L177.879 267.248L179.605 277.788L177.138 278.195ZM176.371 265.713C175.911 265.789 175.505 265.707 175.155 265.468C174.819 265.226 174.617 264.901 174.55 264.493C174.481 264.072 174.569 263.7 174.813 263.376C175.068 263.036 175.426 262.829 175.886 262.753C176.347 262.677 176.744 262.753 177.079 262.981C177.425 263.195 177.631 263.505 177.698 263.913C177.769 264.347 177.684 264.74 177.444 265.09C177.202 265.427 176.845 265.635 176.371 265.713Z" fill="#292929"/>
<g filter="url(#filter2_b_197_74)">
<rect width="186" height="54" rx="20" transform="matrix(0.95637 -0.292158 0.292442 0.956283 17 221)" fill="#C8E228"/>
<rect x="0.624406" y="0.332063" width="185" height="53" rx="19.5" transform="matrix(0.95637 -0.292158 0.292442 0.956283 16.9301 221.196)" stroke="#C8E228"/>
</g>
<g filter="url(#filter3_b_197_74)">
<rect x="0.642314" y="0.296064" width="185" height="53" rx="19.5" transform="matrix(0.938247 -0.345966 0.34638 0.938094 8.93711 225.24)" stroke="#C8E228"/>
</g>
<path d="M55.8617 234.023L59.6482 245.662L57.7841 246.268L53.9976 234.628L48.0821 236.55L47.5376 234.877L61.2518 230.421L61.7963 232.094L55.8617 234.023ZM73.3189 241.641C72.4227 241.946 71.5382 242.093 70.6654 242.082C69.8053 242.067 69.0053 241.893 68.2656 241.558L69.7072 245.99L67.932 246.545L63.601 233.232L65.37 232.657L65.6771 233.925C66.0703 233.194 66.6042 232.551 67.2787 231.995C67.966 231.435 68.7724 231.005 69.6981 230.704C70.5604 230.424 71.3964 230.279 72.2061 230.268C73.0117 230.244 73.753 230.368 74.43 230.639C75.1196 230.905 75.7279 231.332 76.255 231.917C76.7906 232.486 77.2154 233.232 77.5291 234.153C77.8385 235.104 77.9544 235.978 77.877 236.774C77.7995 237.57 77.5687 238.283 77.1846 238.913C76.8005 239.542 76.2758 240.084 75.6104 240.539C74.9451 240.993 74.1812 241.36 73.3189 241.641ZM67.01 237.634C67.2496 238.327 67.5555 238.88 67.9278 239.292C68.3128 239.699 68.745 239.994 69.2244 240.174C69.7165 240.351 70.2516 240.422 70.8295 240.389C71.4202 240.351 72.0388 240.227 72.6856 240.017C73.3196 239.811 73.8739 239.554 74.3484 239.245C74.8356 238.933 75.2136 238.565 75.4824 238.141C75.7638 237.713 75.9276 237.225 75.9737 236.677C76.0326 236.125 75.9549 235.499 75.7407 234.797C75.5012 234.104 75.1952 233.552 74.8229 233.14C74.4592 232.711 74.0439 232.405 73.5772 232.22C73.1063 232.022 72.5883 231.938 72.023 231.968C71.4577 231.997 70.858 232.115 70.224 232.321C69.5773 232.531 69.006 232.801 68.5103 233.13C68.0231 233.443 67.6281 233.823 67.3254 234.272C67.0313 234.704 66.8506 235.205 66.7832 235.773C66.7244 236.325 66.8 236.945 67.01 237.634ZM87.553 226.964L83.9956 237.751L81.1044 238.69L77.8252 228.61L79.5942 228.035L82.4031 236.67L85.9852 225.959L88.8764 225.019L92.1556 235.099L90.3867 235.674L87.553 226.964ZM105.271 227.788C105.581 228.739 105.522 229.529 105.096 230.159C104.67 230.788 104.013 231.247 103.125 231.535L94.6227 234.298L91.3435 224.218L99.1992 221.665C99.6684 221.513 100.118 221.43 100.548 221.416C100.979 221.402 101.372 221.471 101.73 221.621C102.083 221.759 102.395 221.986 102.667 222.305C102.952 222.619 103.174 223.023 103.335 223.518C103.508 224.092 103.545 224.571 103.445 224.954C103.358 225.333 103.155 225.658 102.837 225.93C103.364 225.913 103.846 226.057 104.282 226.364C104.719 226.671 105.048 227.146 105.271 227.788ZM94.5417 228.036L100.159 226.232C100.726 226.034 101.151 225.791 101.436 225.502C101.72 225.213 101.778 224.788 101.61 224.226C101.494 223.871 101.348 223.617 101.172 223.463C100.992 223.298 100.793 223.201 100.574 223.174C100.35 223.135 100.103 223.152 99.8331 223.226C99.5712 223.283 99.2944 223.359 99.0028 223.453L93.6198 225.202L94.5417 228.036ZM95.8843 232.163L102.028 230.167C102.675 229.957 103.115 229.716 103.349 229.443C103.583 229.171 103.62 228.767 103.459 228.23C103.277 227.714 103.016 227.428 102.675 227.37C102.342 227.296 101.859 227.362 101.225 227.568L95.0429 229.577L95.8843 232.163ZM115.499 224.402C115.837 225.484 115.767 226.411 115.289 227.183C114.824 227.951 113.97 228.537 112.727 228.941L112.08 229.151C110.838 229.555 109.783 229.589 108.917 229.253C108.047 228.905 107.411 228.159 107.01 227.013C106.643 225.885 106.722 224.941 107.246 224.182C107.766 223.41 108.647 222.822 109.89 222.418L115.73 220.521C115.485 219.983 115.178 219.578 114.809 219.306C114.435 219.021 114.045 218.832 113.636 218.741C113.224 218.636 112.802 218.612 112.372 218.668C111.95 218.707 111.568 218.782 111.225 218.893L111.035 218.955C110.693 219.066 110.346 219.207 109.995 219.377C109.643 219.547 109.319 219.758 109.022 220.008C108.721 220.247 108.468 220.525 108.263 220.844C108.059 221.163 107.946 221.529 107.926 221.942L106.062 222.547C105.965 222.032 105.996 221.524 106.156 221.024C106.328 220.519 106.608 220.043 106.995 219.595C107.39 219.13 107.878 218.712 108.459 218.341C109.052 217.966 109.71 217.661 110.433 217.426L110.585 217.377C111.574 217.055 112.454 216.895 113.226 216.897C113.998 216.899 114.682 217.062 115.278 217.387C115.874 217.712 116.392 218.203 116.83 218.859C117.268 219.516 117.654 220.337 117.988 221.322L119.572 226.191L117.803 226.766L116.263 222.03L114.297 222.647C114.847 223.044 115.247 223.629 115.499 224.402ZM108.779 226.438C108.99 227.043 109.318 227.448 109.764 227.654C110.205 227.847 110.806 227.82 111.567 227.572L112.214 227.362C112.949 227.123 113.439 226.796 113.682 226.38C113.925 225.965 113.959 225.442 113.782 224.813C113.554 224.2 113.228 223.801 112.804 223.616C112.379 223.432 111.787 223.463 111.026 223.711L110.379 223.921C109.618 224.168 109.114 224.493 108.866 224.896C108.619 225.299 108.59 225.813 108.779 226.438ZM124.205 220.648C124.426 221.501 124.529 222.204 124.512 222.756C124.504 223.292 124.385 223.744 124.154 224.113C123.932 224.466 123.597 224.75 123.149 224.966C122.7 225.181 122.142 225.384 121.474 225.573L120.955 223.975C121.306 223.847 121.604 223.75 121.849 223.685C122.102 223.602 122.295 223.484 122.427 223.329C122.555 223.161 122.617 222.923 122.615 222.615C122.626 222.303 122.562 221.848 122.423 221.248L120.801 214.646L129.817 211.716L133.096 221.796L131.327 222.371L128.562 213.87L122.95 215.693L124.205 220.648ZM136.862 204.801L137.573 206.988L135.196 207.761L134.484 205.573L136.862 204.801ZM144.133 216.486L144.641 218.045L134.617 221.302L134.109 219.743L139.207 218.086L136.943 211.125L133.309 212.306L132.796 210.727L138.217 208.966L140.995 217.505L144.133 216.486ZM155.588 210.829C155.706 211.492 155.678 212.117 155.505 212.706C155.341 213.279 155.056 213.806 154.652 214.287C154.261 214.765 153.767 215.185 153.169 215.547C152.576 215.922 151.906 216.231 151.157 216.474C150.244 216.771 149.383 216.925 148.573 216.936C147.78 216.955 147.05 216.821 146.381 216.533C145.713 216.246 145.126 215.799 144.62 215.192C144.114 214.585 143.702 213.815 143.384 212.881C143.079 211.942 142.953 211.079 143.005 210.291C143.053 209.491 143.256 208.78 143.615 208.158C143.982 207.52 144.496 206.968 145.158 206.5C145.815 206.02 146.593 205.634 147.494 205.342C148.242 205.099 148.966 204.954 149.667 204.909C150.38 204.86 151.041 204.911 151.652 205.063C152.262 205.215 152.81 205.479 153.297 205.853C153.779 206.215 154.168 206.699 154.463 207.304L152.561 207.922C152.365 207.579 152.108 207.305 151.789 207.101C151.482 206.892 151.127 206.748 150.723 206.669C150.331 206.586 149.897 206.566 149.42 206.608C148.956 206.647 148.477 206.747 147.982 206.907C146.642 207.357 145.735 208.016 145.26 208.885C144.786 209.754 144.761 210.884 145.185 212.274C145.656 213.636 146.345 214.526 147.253 214.946C148.174 215.362 149.306 215.352 150.65 214.915C151.652 214.589 152.435 214.131 153.001 213.541C153.566 212.951 153.801 212.251 153.705 211.441L155.588 210.829ZM162.024 203.039L164.777 211.502L162.989 212.083L160.236 203.62L155.461 205.171L154.936 203.554L166.234 199.883L166.76 201.5L162.024 203.039ZM180.212 202.638C180.472 203.437 180.531 204.112 180.388 204.663C180.257 205.21 179.99 205.683 179.587 206.08C179.192 206.461 178.696 206.79 178.099 207.068C177.511 207.329 176.894 207.565 176.247 207.775L170.94 209.5L167.661 199.42L169.43 198.845L170.513 202.173L173.233 201.289C173.956 201.054 174.67 200.836 175.375 200.635C176.09 200.417 176.757 200.312 177.377 200.321C178.009 200.326 178.571 200.501 179.062 200.846C179.548 201.179 179.932 201.776 180.212 202.638ZM172.202 207.365L174.96 206.469C175.518 206.288 176.042 206.11 176.532 205.937C177.019 205.751 177.427 205.541 177.758 205.308C178.101 205.07 178.339 204.789 178.472 204.465C178.614 204.125 178.604 203.708 178.444 203.213C178.307 202.795 178.101 202.504 177.824 202.342C177.547 202.18 177.231 202.093 176.877 202.082C176.523 202.071 176.147 202.123 175.75 202.238C175.348 202.34 174.957 202.453 174.577 202.577L171.02 203.733L172.202 207.365Z" fill="#292929"/>
<rect width="271" height="66" rx="30" transform="matrix(0.999996 -0.00283047 0.00277551 0.999996 60 354)" fill="white"/>
<path d="M145.733 393.995L145.703 383.315L150.923 383.3C152.216 383.297 153.23 383.534 153.965 384.012C154.713 384.49 155.088 385.169 155.091 386.049C155.093 386.915 154.748 387.596 154.056 388.092C153.364 388.574 152.445 388.816 151.298 388.819L151.597 388.199C152.89 388.195 153.851 388.432 154.479 388.91C155.12 389.375 155.442 390.061 155.444 390.968C155.447 391.914 155.096 392.655 154.391 393.191C153.685 393.713 152.613 393.976 151.173 393.98L145.733 393.995ZM148.108 392.168L150.968 392.16C151.648 392.158 152.161 392.05 152.507 391.836C152.853 391.608 153.025 391.268 153.024 390.815C153.023 390.335 152.862 389.982 152.541 389.756C152.22 389.53 151.72 389.418 151.04 389.42L148.1 389.428L148.108 392.168ZM148.095 387.768L150.715 387.761C151.355 387.759 151.835 387.645 152.154 387.417C152.487 387.176 152.653 386.842 152.652 386.416C152.65 385.976 152.483 385.649 152.149 385.437C151.828 385.225 151.348 385.119 150.708 385.121L148.088 385.128L148.095 387.768ZM157.915 393.961L157.886 383.281L160.386 383.274L160.415 393.954L157.915 393.961ZM159.141 381.517C158.674 381.518 158.287 381.373 157.98 381.08C157.686 380.788 157.538 380.435 157.537 380.022C157.536 379.595 157.681 379.241 157.974 378.96C158.28 378.666 158.666 378.519 159.133 378.517C159.599 378.516 159.98 378.655 160.274 378.934C160.581 379.2 160.735 379.539 160.737 379.953C160.738 380.393 160.592 380.766 160.3 381.074C160.007 381.368 159.621 381.516 159.141 381.517ZM170.911 392.764L170.891 385.364L166.791 385.376L166.735 387.096C166.71 387.709 166.672 388.303 166.62 388.876C166.569 389.436 166.483 389.956 166.365 390.437C166.246 390.904 166.074 391.291 165.848 391.598C165.622 391.906 165.323 392.106 164.95 392.201L162.468 391.828C162.868 391.827 163.188 391.699 163.427 391.445C163.68 391.178 163.872 390.817 164.004 390.363C164.15 389.896 164.255 389.369 164.32 388.783C164.385 388.182 164.43 387.562 164.455 386.922L164.585 383.262L173.385 383.237L173.411 392.757L170.911 392.764ZM162.101 396.329L162.088 391.829L174.988 391.792L175.001 396.292L172.661 396.299L172.654 393.919L164.414 393.942L164.421 396.322L162.101 396.329ZM186.195 394.081C185.208 394.083 184.241 393.946 183.294 393.669C182.36 393.378 181.572 392.98 180.931 392.476L182.025 390.452C182.533 390.864 183.147 391.196 183.868 391.447C184.602 391.698 185.362 391.823 186.149 391.821C187.069 391.818 187.788 391.623 188.307 391.235C188.839 390.846 189.105 390.326 189.103 389.672C189.102 389.232 188.987 388.846 188.76 388.513C188.545 388.181 188.158 387.928 187.597 387.757C187.05 387.585 186.297 387.5 185.337 387.503L181.957 387.513L182.656 379.891L190.876 379.867L190.882 382.047L183.622 382.068L184.978 380.824L184.454 386.526L183.091 385.309L185.911 385.301C187.297 385.297 188.411 385.481 189.252 385.852C190.106 386.21 190.728 386.714 191.116 387.367C191.518 388.006 191.72 388.738 191.722 389.565C191.725 390.378 191.527 391.126 191.129 391.807C190.731 392.488 190.119 393.036 189.293 393.452C188.481 393.868 187.448 394.077 186.195 394.081ZM197.715 379.648C198.995 379.644 200.082 379.915 200.977 380.459C201.885 380.99 202.581 381.768 203.063 382.793C203.546 383.818 203.79 385.084 203.794 386.591C203.798 388.191 203.509 389.545 202.925 390.653C202.355 391.762 201.557 392.604 200.532 393.18C199.507 393.756 198.315 394.046 196.955 394.05C196.248 394.052 195.574 393.981 194.934 393.836C194.294 393.691 193.74 393.466 193.272 393.161L194.227 391.198C194.614 391.45 195.035 391.629 195.488 391.734C195.942 391.826 196.409 391.872 196.889 391.87C198.209 391.867 199.254 391.457 200.025 390.641C200.796 389.826 201.18 388.625 201.175 387.038C201.174 386.785 201.167 386.492 201.153 386.158C201.138 385.812 201.091 385.465 201.01 385.119L201.812 385.996C201.587 386.544 201.262 387.005 200.836 387.379C200.41 387.74 199.911 388.015 199.338 388.203C198.766 388.392 198.133 388.487 197.439 388.489C196.533 388.491 195.712 388.32 194.978 387.976C194.257 387.618 193.682 387.119 193.254 386.481C192.825 385.829 192.61 385.069 192.607 384.202C192.605 383.269 192.829 382.468 193.281 381.801C193.732 381.119 194.344 380.591 195.116 380.215C195.902 379.84 196.768 379.651 197.715 379.648ZM197.86 381.688C197.327 381.689 196.854 381.79 196.441 381.992C196.028 382.179 195.702 382.454 195.463 382.814C195.238 383.162 195.126 383.582 195.127 384.075C195.129 384.809 195.384 385.388 195.892 385.813C196.4 386.238 197.08 386.45 197.934 386.447C198.494 386.446 198.987 386.344 199.413 386.143C199.839 385.929 200.171 385.641 200.41 385.28C200.649 384.906 200.768 384.493 200.767 384.039C200.766 383.599 200.651 383.206 200.424 382.86C200.196 382.501 199.868 382.215 199.441 382.003C199.014 381.791 198.487 381.686 197.86 381.688ZM210.054 379.613C211.334 379.609 212.421 379.88 213.316 380.424C214.224 380.955 214.92 381.733 215.402 382.758C215.885 383.783 216.129 385.049 216.133 386.556C216.137 388.156 215.848 389.51 215.264 390.618C214.694 391.727 213.896 392.569 212.871 393.145C211.846 393.721 210.654 394.011 209.294 394.015C208.587 394.017 207.913 393.946 207.273 393.801C206.633 393.656 206.079 393.431 205.611 393.126L206.566 391.163C206.953 391.415 207.374 391.594 207.827 391.699C208.281 391.791 208.748 391.837 209.228 391.835C210.548 391.832 211.593 391.422 212.364 390.607C213.135 389.791 213.519 388.59 213.514 387.003C213.514 386.75 213.506 386.457 213.492 386.123C213.477 385.777 213.43 385.43 213.349 385.084L214.151 385.961C213.926 386.509 213.601 386.97 213.175 387.344C212.749 387.705 212.25 387.98 211.677 388.168C211.105 388.357 210.472 388.452 209.778 388.454C208.872 388.456 208.051 388.285 207.317 387.941C206.596 387.583 206.021 387.085 205.593 386.446C205.164 385.794 204.949 385.034 204.946 384.168C204.944 383.234 205.168 382.434 205.62 381.766C206.071 381.084 206.683 380.556 207.455 380.18C208.241 379.805 209.107 379.616 210.054 379.613ZM210.199 381.653C209.666 381.654 209.193 381.756 208.78 381.957C208.367 382.145 208.041 382.419 207.802 382.779C207.577 383.127 207.465 383.547 207.466 384.04C207.468 384.774 207.723 385.353 208.231 385.778C208.739 386.203 209.419 386.415 210.273 386.412C210.833 386.411 211.326 386.309 211.752 386.108C212.178 385.894 212.51 385.606 212.749 385.245C212.988 384.871 213.107 384.458 213.106 384.004C213.105 383.564 212.99 383.171 212.763 382.825C212.535 382.466 212.207 382.18 211.78 381.968C211.353 381.756 210.826 381.651 210.199 381.653ZM223.553 393.975C222.446 393.978 221.445 393.701 220.55 393.143C219.669 392.586 218.973 391.775 218.464 390.709C217.954 389.631 217.697 388.325 217.693 386.791C217.688 385.258 217.938 383.957 218.442 382.889C218.946 381.808 219.637 380.986 220.515 380.423C221.407 379.861 222.406 379.578 223.513 379.575C224.633 379.572 225.633 379.849 226.515 380.406C227.397 380.964 228.092 381.782 228.602 382.861C229.125 383.926 229.388 385.225 229.393 386.758C229.397 388.292 229.141 389.599 228.624 390.681C228.12 391.749 227.429 392.564 226.55 393.126C225.672 393.689 224.673 393.972 223.553 393.975ZM223.546 391.715C224.2 391.713 224.766 391.538 225.245 391.19C225.724 390.829 226.096 390.281 226.36 389.547C226.638 388.813 226.776 387.886 226.773 386.766C226.77 385.632 226.627 384.706 226.345 383.987C226.076 383.254 225.701 382.715 225.22 382.37C224.739 382.011 224.172 381.833 223.519 381.835C222.892 381.837 222.333 382.018 221.84 382.38C221.361 382.728 220.983 383.269 220.705 384.003C220.44 384.724 220.31 385.651 220.313 386.784C220.316 387.904 220.452 388.83 220.72 389.563C221.002 390.295 221.384 390.841 221.865 391.2C222.359 391.545 222.92 391.717 223.546 391.715ZM243.977 393.977C242.737 393.981 241.663 393.804 240.756 393.446C239.861 393.089 239.173 392.584 238.691 391.932C238.21 391.28 237.967 390.514 237.965 389.634C237.964 389.354 237.997 389.107 238.063 388.894C238.129 388.667 238.215 388.467 238.321 388.293L243.681 388.278C243.228 388.413 242.809 388.547 242.422 388.681C242.049 388.816 241.75 388.977 241.524 389.164C241.298 389.338 241.185 389.572 241.186 389.865C241.187 390.158 241.281 390.418 241.468 390.644C241.655 390.87 241.942 391.05 242.329 391.182C242.73 391.301 243.25 391.359 243.89 391.357C244.743 391.355 245.596 391.246 246.449 391.03C247.302 390.801 248.034 390.512 248.647 390.164L249.473 392.602C248.635 393.044 247.735 393.386 246.776 393.629C245.83 393.859 244.897 393.974 243.977 393.977ZM236.763 388.877L236.758 387.218L250.498 387.179L250.503 388.839L236.763 388.877ZM236.755 386.118L236.751 384.458L250.491 384.419L250.495 386.079L236.755 386.118ZM243.073 385.34C243.579 385.165 244.059 385.01 244.512 384.876C244.978 384.728 245.358 384.566 245.651 384.392C245.943 384.205 246.089 383.964 246.089 383.671C246.088 383.364 245.994 383.098 245.806 382.872C245.632 382.632 245.352 382.44 244.965 382.294C244.578 382.149 244.064 382.077 243.424 382.079C242.784 382.08 242.124 382.149 241.445 382.284C240.765 382.419 240.086 382.628 239.406 382.91L238.66 380.452C239.419 380.117 240.191 379.868 240.977 379.706C241.777 379.543 242.557 379.461 243.317 379.459C244.543 379.455 245.597 379.632 246.478 379.99C247.373 380.347 248.061 380.859 248.543 381.524C249.038 382.176 249.287 382.942 249.289 383.822C249.29 384.129 249.257 384.402 249.191 384.642C249.125 384.882 249.039 385.109 248.933 385.323L243.073 385.34Z" fill="#292929"/>
<g filter="url(#filter4_b_197_74)">
<rect x="0.465358" y="0.533163" width="185" height="53" rx="19.5" transform="matrix(0.997646 0.0685684 -0.0669303 0.997758 147.037 294.969)" stroke="#C8E228"/>
</g>
<g filter="url(#filter5_b_197_74)">
<rect width="186" height="54" rx="20" transform="matrix(0.988496 0.151247 -0.150133 0.988666 153 293)" fill="#C8E228"/>
<rect x="0.419182" y="0.569956" width="185" height="53" rx="19.5" transform="matrix(0.988496 0.151247 -0.150133 0.988666 153.09 292.943)" stroke="#C8E228"/>
</g>
<path d="M203.147 329.344C202.917 330.779 202.297 331.739 201.288 332.224C200.294 332.699 198.928 332.796 197.19 332.515L188.009 331.034L190.224 317.21L198.852 318.602C199.629 318.728 200.318 318.893 200.92 319.098C201.537 319.292 202.048 319.557 202.454 319.893C202.861 320.215 203.148 320.612 203.316 321.085C203.498 321.547 203.536 322.113 203.428 322.785C203.314 323.496 203.069 324.057 202.693 324.469C202.318 324.868 201.872 325.167 201.354 325.367C202.086 325.769 202.605 326.278 202.911 326.895C203.233 327.5 203.312 328.317 203.147 329.344ZM191.276 323.032L197.792 324.084C198.358 324.175 198.849 324.227 199.266 324.24C199.682 324.253 200.027 324.208 200.3 324.103C200.587 324.001 200.809 323.834 200.968 323.603C201.142 323.361 201.26 323.043 201.323 322.648C201.387 322.253 201.365 321.925 201.258 321.665C201.167 321.393 200.992 321.176 200.735 321.013C200.492 320.839 200.171 320.699 199.769 320.594C199.367 320.489 198.896 320.392 198.357 320.305L191.88 319.26L191.276 323.032ZM190.222 329.608L197.469 330.778C198.14 330.886 198.695 330.921 199.133 330.884C199.573 330.833 199.922 330.721 200.179 330.546C200.452 330.361 200.652 330.123 200.78 329.833C200.92 329.545 201.02 329.217 201.079 328.848C201.141 328.466 201.155 328.124 201.122 327.822C201.09 327.519 200.972 327.244 200.769 326.995C200.565 326.746 200.255 326.534 199.838 326.358C199.433 326.185 198.882 326.042 198.185 325.93L190.998 324.77L190.222 329.608ZM213.875 332.209C213.682 333.326 213.198 334.119 212.42 334.588C211.656 335.059 210.629 335.19 209.339 334.982L208.668 334.874C207.378 334.665 206.424 334.214 205.806 333.52C205.19 332.813 204.965 331.859 205.13 330.656C205.318 329.485 205.818 328.681 206.631 328.245C207.446 327.795 208.498 327.675 209.788 327.883L215.849 328.861C215.876 328.271 215.788 327.77 215.584 327.359C215.382 326.935 215.12 326.589 214.798 326.321C214.479 326.04 214.115 325.826 213.706 325.679C213.313 325.521 212.938 325.413 212.583 325.356L212.385 325.324C212.03 325.266 211.657 325.233 211.267 325.224C210.877 325.215 210.493 325.255 210.114 325.342C209.737 325.417 209.385 325.549 209.058 325.739C208.73 325.929 208.464 326.204 208.258 326.562L206.323 326.25C206.471 325.747 206.73 325.309 207.1 324.937C207.483 324.567 207.95 324.27 208.498 324.048C209.062 323.815 209.687 323.666 210.373 323.601C211.071 323.538 211.796 323.567 212.546 323.689L212.704 323.714C213.731 323.88 214.587 324.139 215.273 324.493C215.959 324.847 216.494 325.305 216.876 325.866C217.259 326.427 217.495 327.1 217.586 327.885C217.676 328.669 217.646 329.576 217.494 330.605L216.684 335.66L214.848 335.364L215.636 330.447L213.605 330.099C213.914 330.703 214.004 331.406 213.875 332.209ZM206.967 330.953C206.879 331.587 206.986 332.097 207.288 332.483C207.593 332.857 208.141 333.107 208.93 333.234L209.602 333.343C210.365 333.466 210.95 333.398 211.356 333.14C211.762 332.881 212.03 332.431 212.159 331.79C212.237 331.141 212.128 330.637 211.834 330.279C211.541 329.921 210.999 329.679 210.209 329.551L209.538 329.443C208.748 329.315 208.151 329.374 207.747 329.62C207.343 329.865 207.083 330.31 206.967 330.953ZM225.94 337.559C225.004 337.421 224.149 337.148 223.378 336.74C222.619 336.334 221.987 335.814 221.481 335.178L220.744 339.78L218.91 339.464L221.126 325.64L222.962 325.936L222.657 327.204C223.34 326.733 224.109 326.405 224.962 326.218C225.829 326.034 226.743 326.02 227.704 326.175C228.599 326.319 229.409 326.571 230.135 326.931C230.862 327.278 231.466 327.727 231.945 328.277C232.437 328.829 232.784 329.486 232.986 330.248C233.203 330.999 233.241 331.856 233.101 332.819C232.942 333.806 232.647 334.637 232.215 335.31C231.783 335.983 231.253 336.512 230.624 336.897C229.995 337.281 229.281 337.524 228.482 337.625C227.683 337.725 226.835 337.703 225.94 337.559ZM222.152 331.113C222.05 331.84 222.07 332.471 222.214 333.007C222.37 333.546 222.621 334.005 222.965 334.385C223.323 334.766 223.766 335.074 224.296 335.308C224.839 335.544 225.446 335.717 226.117 335.825C226.775 335.931 227.386 335.955 227.949 335.898C228.525 335.842 229.029 335.687 229.461 335.433C229.907 335.18 230.275 334.821 230.566 334.355C230.87 333.891 231.086 333.298 231.215 332.576C231.318 331.849 231.298 331.218 231.154 330.682C231.026 330.134 230.796 329.672 230.465 329.294C230.136 328.903 229.713 328.592 229.197 328.36C228.68 328.128 228.093 327.959 227.435 327.853C226.764 327.745 226.132 327.724 225.541 327.791C224.965 327.846 224.44 328.005 223.966 328.266C223.507 328.516 223.118 328.879 222.799 329.354C222.495 329.818 222.28 330.405 222.152 331.113ZM241.348 330.625L239.94 339.412L238.084 339.113L239.492 330.325L234.536 329.526L234.805 327.847L246.533 329.739L246.264 331.418L241.348 330.625ZM254.871 326.627L254.507 328.898L252.039 328.5L252.403 326.229L254.871 326.627ZM256.015 340.345L255.756 341.964L245.35 340.285L245.61 338.666L250.901 339.52L252.059 332.292L248.288 331.683L248.551 330.044L254.178 330.952L252.757 339.819L256.015 340.345ZM268.788 340.542C268.59 341.185 268.28 341.729 267.858 342.174C267.451 342.608 266.957 342.948 266.378 343.192C265.812 343.438 265.181 343.586 264.484 343.636C263.785 343.699 263.048 343.667 262.271 343.542C261.323 343.389 260.487 343.133 259.761 342.772C259.047 342.428 258.458 341.975 257.994 341.414C257.53 340.853 257.212 340.187 257.038 339.416C256.864 338.645 256.849 337.771 256.992 336.795C257.148 335.821 257.429 334.995 257.835 334.318C258.242 333.627 258.747 333.087 259.35 332.698C259.968 332.298 260.677 332.041 261.479 331.928C262.282 331.801 263.151 331.813 264.086 331.963C264.862 332.089 265.573 332.291 266.217 332.57C266.874 332.852 267.439 333.2 267.913 333.614C268.387 334.028 268.755 334.513 269.017 335.068C269.281 335.611 269.406 336.218 269.393 336.891L267.418 336.573C267.401 336.178 267.297 335.817 267.106 335.489C266.929 335.164 266.678 334.873 266.354 334.618C266.044 334.366 265.666 334.15 265.223 333.97C264.792 333.792 264.32 333.662 263.807 333.579C262.409 333.367 261.301 333.54 260.483 334.097C259.665 334.653 259.127 335.647 258.871 337.078C258.669 338.504 258.877 339.611 259.493 340.399C260.123 341.19 261.135 341.698 262.53 341.923C263.57 342.09 264.476 342.041 265.248 341.774C266.02 341.507 266.549 340.991 266.833 340.226L268.788 340.542ZM278.066 336.549L276.658 345.336L274.802 345.037L276.21 336.249L271.254 335.45L271.523 333.771L283.251 335.663L282.982 337.342L278.066 336.549ZM294.435 344.497C294.302 345.327 294.046 345.954 293.668 346.379C293.302 346.806 292.849 347.105 292.309 347.274C291.784 347.432 291.193 347.499 290.535 347.474C289.893 347.438 289.236 347.366 288.564 347.257L283.056 346.369L284.733 335.902L286.569 336.198L286.015 339.654L288.839 340.11C289.589 340.231 290.324 340.363 291.044 340.506C291.779 340.638 292.42 340.85 292.968 341.141C293.528 341.434 293.948 341.846 294.228 342.377C294.509 342.895 294.578 343.602 294.435 344.497ZM285.151 345.046L288.014 345.507C288.593 345.601 289.141 345.682 289.656 345.752C290.174 345.809 290.633 345.808 291.034 345.751C291.448 345.697 291.788 345.556 292.053 345.329C292.335 345.09 292.516 344.714 292.599 344.201C292.668 343.767 292.617 343.414 292.444 343.143C292.272 342.872 292.03 342.651 291.72 342.479C291.41 342.307 291.052 342.182 290.646 342.103C290.242 342.011 289.843 341.933 289.448 341.869L285.756 341.274L285.151 345.046Z" fill="#292929"/>
<defs>
<filter id="filter0_b_197_74" x="44.9897" y="8.3252" width="247.66" height="129.385" filterUnits="userSpaceOnUse" color-interpolation-filters="sRGB">
<feFlood flood-opacity="0" result="BackgroundImageFix"/>
<feGaussianBlur in="BackgroundImageFix" stdDeviation="15"/>
<feComposite in2="SourceAlpha" operator="in" result="effect1_backgroundBlur_197_74"/>
<feBlend mode="normal" in="SourceGraphic" in2="effect1_backgroundBlur_197_74" result="shape"/>
</filter>
<filter id="filter1_b_197_74" x="56.9854" y="12.3843" width="226.655" height="109.322" filterUnits="userSpaceOnUse" color-interpolation-filters="sRGB">
<feFlood flood-opacity="0" result="BackgroundImageFix"/>
<feGaussianBlur in="BackgroundImageFix" stdDeviation="10"/>
<feComposite in2="SourceAlpha" operator="in" result="effect1_backgroundBlur_197_74"/>
<feBlend mode="normal" in="SourceGraphic" in2="effect1_backgroundBlur_197_74" result="shape"/>
</filter>
<filter id="filter2_b_197_74" x="1.96924" y="151.624" width="223.738" height="136.05" filterUnits="userSpaceOnUse" color-interpolation-filters="sRGB">
<feFlood flood-opacity="0" result="BackgroundImageFix"/>
<feGaussianBlur in="BackgroundImageFix" stdDeviation="10"/>
<feComposite in2="SourceAlpha" operator="in" result="effect1_backgroundBlur_197_74"/>
<feBlend mode="normal" in="SourceGraphic" in2="effect1_backgroundBlur_197_74" result="shape"/>
</filter>
<filter id="filter3_b_197_74" x="-5.31592" y="146.329" width="221.85" height="143.649" filterUnits="userSpaceOnUse" color-interpolation-filters="sRGB">
<feFlood flood-opacity="0" result="BackgroundImageFix"/>
<feGaussianBlur in="BackgroundImageFix" stdDeviation="10"/>
<feComposite in2="SourceAlpha" operator="in" result="effect1_backgroundBlur_197_74"/>
<feBlend mode="normal" in="SourceGraphic" in2="effect1_backgroundBlur_197_74" result="shape"/>
</filter>
<filter id="filter4_b_197_74" x="124.679" y="276.324" width="226.59" height="103.985" filterUnits="userSpaceOnUse" color-interpolation-filters="sRGB">
<feFlood flood-opacity="0" result="BackgroundImageFix"/>
<feGaussianBlur in="BackgroundImageFix" stdDeviation="10"/>
<feComposite in2="SourceAlpha" operator="in" result="effect1_backgroundBlur_197_74"/>
<feBlend mode="normal" in="SourceGraphic" in2="effect1_backgroundBlur_197_74" result="shape"/>
</filter>
<filter id="filter5_b_197_74" x="127.666" y="275.792" width="226.421" height="115.936" filterUnits="userSpaceOnUse" color-interpolation-filters="sRGB">
<feFlood flood-opacity="0" result="BackgroundImageFix"/>
<feGaussianBlur in="BackgroundImageFix" stdDeviation="10"/>
<feComposite in2="SourceAlpha" operator="in" result="effect1_backgroundBlur_197_74"/>
<feBlend mode="normal" in="SourceGraphic" in2="effect1_backgroundBlur_197_74" result="shape"/>
</filter>
</defs>
</svg>
