<svg width="106" height="31" viewBox="0 0 106 31" fill="none" xmlns="http://www.w3.org/2000/svg">
<g clip-path="url(#clip0_32_523)">
<path d="M28.6145 19.7737C26.9128 19.7737 25.3183 19.0598 23.8696 17.8976L24.2224 16.2569L24.2377 16.1961C24.5518 14.4492 25.5484 11.5171 28.6145 11.5171C30.914 11.5171 32.7843 13.3705 32.7843 15.6491C32.7766 17.9203 30.9064 19.7737 28.6145 19.7737ZM28.6145 7.33191C24.6974 7.33191 21.6622 9.85371 20.4282 14.001C18.5425 11.1981 17.1167 7.83327 16.2813 5H12.0654V15.8694C12.0654 18.0114 10.3024 19.7583 8.14075 19.7583C5.97914 19.7583 4.21631 18.0114 4.21631 15.8694V5H4.80794e-05V15.8694C-0.0152897 20.3207 3.64104 23.9741 8.13278 23.9741C12.6247 23.9741 16.281 20.3207 16.281 15.8694V14.0466C17.1011 15.7403 18.1052 17.4493 19.3241 18.9686L16.7408 31H21.0564L22.9266 22.2726C24.567 23.3132 26.4527 23.9666 28.6143 23.9666C33.2363 23.9666 37 20.2143 37 15.6339C37 11.0613 33.2365 7.33191 28.6145 7.33191Z" fill="#6FDA44"/>
<path d="M50.8109 7.66223L53.5522 18.6487L56.5717 7.66223H60.17L55.5292 23.5393H51.9307L49.0814 12.4836L46.2396 23.5315H42.6412L38 7.65465H41.5986L44.6178 18.6411L47.3591 7.65465H50.8107V7.66243L50.8109 7.66223ZM68.78 7.18619C64.1083 7.18619 60.3245 10.9558 60.3245 15.593C60.3245 20.238 64.1159 24 68.78 24C73.4519 24 77.2433 20.238 77.2433 15.593C77.2433 10.9482 73.4519 7.18619 68.78 7.18619ZM68.78 20.5451C66.0311 20.5451 63.8071 18.3339 63.8071 15.6008C63.8071 12.8675 66.0387 10.6565 68.78 10.6565C71.5291 10.6565 73.7529 12.8675 73.7529 15.6008C73.7529 18.3263 71.5291 20.5451 68.78 20.5451ZM87.5212 11.2169C85.1044 11.2169 83.1507 13.1669 83.1507 15.5623V23.5315H79.5289V7.66223H83.1507V10.1036C83.1507 10.1036 84.6951 7.65445 87.8688 7.65445H88.9807V11.2169H87.5212ZM99.6758 14.9789C102.247 13.5354 103.992 10.7946 103.992 7.65445H100.371C100.371 10.3032 98.2085 12.4529 95.5445 12.4529H95.0579V0H91.4364V23.5313H95.0579V16.0537H95.4905C95.8457 16.0537 96.309 16.2841 96.5175 16.568L101.66 23.5315H106L99.6758 14.9789Z" fill="white"/>
</g>
<defs>
<clipPath id="clip0_32_523">
<rect width="106" height="31" fill="white"/>
</clipPath>
</defs>
</svg>
