<svg width="22" height="33" viewBox="0 0 22 33" fill="none" xmlns="http://www.w3.org/2000/svg">
<mask id="mask0_32_375" style="mask-type:luminance" maskUnits="userSpaceOnUse" x="0" y="0" width="22" height="33">
<path d="M0 0H22V33H0V0Z" fill="white"/>
</mask>
<g mask="url(#mask0_32_375)">
<path d="M5.49982 33.0001C8.53565 33.0001 10.9995 30.5361 10.9995 27.5001V22H5.49982C2.46398 22 0 24.4641 0 27.5001C0 30.5361 2.46398 33.0001 5.49982 33.0001Z" fill="#0ACF83"/>
<path d="M0 16.4999C0 13.4639 2.46398 11 5.49982 11H10.9995V21.9999H5.49982C2.46398 21.9999 0 19.5359 0 16.4999Z" fill="#A259FF"/>
<path d="M0 5.49995C0 2.46395 2.46398 0 5.49982 0H10.9995V11.0001H5.49982C2.46398 11.0001 0 8.53594 0 5.49995Z" fill="#F24E1E"/>
<path d="M11 0H16.4997C19.5355 0 21.9995 2.46395 21.9995 5.49995C21.9995 8.53594 19.5355 11.0001 16.4997 11.0001H11V0Z" fill="#FF7262"/>
<path d="M21.9995 16.4999C21.9995 19.5359 19.5355 21.9999 16.4997 21.9999C13.4638 21.9999 11 19.5359 11 16.4999C11 13.4639 13.4638 11 16.4997 11C19.5355 11 21.9995 13.4639 21.9995 16.4999Z" fill="#1ABCFE"/>
</g>
</svg>
