<svg width="35" height="35" viewBox="0 0 35 35" fill="none" xmlns="http://www.w3.org/2000/svg">
<rect width="35" height="35" rx="10" fill="#E74D89"/>
<path d="M17.5 27C12.2627 27 8 22.7373 8 17.5C8 12.2627 12.2627 8 17.5 8C22.7373 8 27 12.2627 27 17.5C27 22.7373 22.7373 27 17.5 27ZM17.5 9.53226C13.1055 9.53226 9.53226 13.1055 9.53226 17.5C9.53226 21.8945 13.1055 25.4677 17.5 25.4677C21.8945 25.4677 25.4677 21.8945 25.4677 17.5C25.4677 13.1055 21.8945 9.53226 17.5 9.53226Z" fill="white"/>
<path d="M14.5714 17C12.7229 17 10.723 16.7114 8.59057 16.1275C8.16787 16.0114 7.91552 15.5603 8.02592 15.1158C8.13633 14.6712 8.56533 14.4058 8.98803 14.522C15.4483 16.2868 20.5049 15.1688 23.6089 11.2942C23.8896 10.9459 24.388 10.8994 24.7192 11.1947C25.0536 11.4899 25.0946 12.0141 24.8138 12.3624C22.3502 15.4375 18.8677 17 14.5714 17Z" fill="white"/>
<path d="M10.7419 24C10.5695 24 10.4 23.9419 10.2602 23.8257C9.94803 23.5642 9.91235 23.1052 10.177 22.8002C14.5242 17.8355 20.15 16.656 25.6122 19.5698C25.972 19.7615 26.1058 20.2031 25.9095 20.5546C25.7133 20.9061 25.2613 21.0368 24.9015 20.8451C18.3421 17.3503 13.5697 21.1618 11.3069 23.7473C11.1612 23.9128 10.9531 24 10.7419 24Z" fill="white"/>
<path d="M20.0894 26C20.0616 26 20.0339 26 20.0062 25.997C19.5841 25.9522 19.279 25.5844 19.3253 25.1717C19.9261 19.8254 18.5088 14.4342 15.1164 9.14161C14.8915 8.79177 15.0024 8.33129 15.3629 8.11301C15.7234 7.89473 16.1979 8.00237 16.4228 8.35222C20.0031 13.9348 21.4944 19.649 20.8566 25.3362C20.8104 25.7189 20.4776 26 20.0894 26Z" fill="white"/>
</svg>
