<svg width="35" height="35" viewBox="0 0 35 35" fill="none" xmlns="http://www.w3.org/2000/svg">
<rect width="35" height="35" rx="10" fill="#111111"/>
<path d="M16.0391 17.0995C16.0391 17.0995 17.6891 16.973 17.6891 14.9809C17.6891 12.9905 16.57 12.0093 14.8596 12.0093L9 12V22.9997H14.9958C14.9958 22.9997 17.9938 23.0954 17.9938 19.6998C17.9938 19.6998 18.214 17.0995 16.0391 17.0995ZM11.1803 13.65H14.1782C14.1782 13.65 15.2041 13.667 15.2041 15.009C15.2041 16.3999 14.1782 16.3999 14.1782 16.3999H11.1803V13.65ZM14.4508 21.3498H11.1803V18.0498H14.4508C14.4508 18.0498 16.086 18.0669 16.086 19.6998C16.086 21.3327 14.6862 21.3498 14.4508 21.3498Z" fill="white"/>
<path d="M23.1396 15C18.9962 15 19.0034 19 19.0034 19C19.0034 19 18.7277 23 23.1396 23C23.1396 23 27 23 27 19.8H24.794C24.794 19.8 24.794 21.4 23.1396 21.4C23.1396 21.4 21.4851 21.4 21.4851 19.2667C21.4851 19.2667 25.897 19.2667 27 19.2667C27 18.2 27 15 23.1396 15ZM21.4851 18.2C21.4851 18.2 21.4487 16.6 23.1396 16.6C24.8299 16.6 24.794 18.2 24.794 18.2H21.4851Z" fill="white"/>
<path d="M25 13H21V14H25V13Z" fill="white"/>
</svg>
