<svg width="21" height="21" viewBox="0 0 21 21" fill="none" xmlns="http://www.w3.org/2000/svg">
<path d="M10.5062 1.89119C13.3133 1.89119 13.6457 1.9035 14.7497 1.95273C15.7757 1.99785 16.3297 2.17015 16.699 2.31373C17.1874 2.50244 17.5404 2.73217 17.9056 3.09728C18.275 3.4665 18.5007 3.8152 18.6895 4.30338C18.8331 4.67259 19.0055 5.23051 19.0506 6.252C19.0999 7.35964 19.1122 7.69193 19.1122 10.4938C19.1122 13.2999 19.0999 13.6322 19.0506 14.7357C19.0055 15.7613 18.8331 16.3151 18.6895 16.6843C18.5007 17.1725 18.2709 17.5253 17.9056 17.8904C17.5363 18.2596 17.1874 18.4853 16.699 18.674C16.3297 18.8175 15.7715 18.9898 14.7497 19.035C13.6416 19.0842 13.3092 19.0965 10.5062 19.0965C7.69904 19.0965 7.36662 19.0842 6.26265 19.035C5.23666 18.9898 4.68263 18.8175 4.31327 18.674C3.8249 18.4853 3.47196 18.2555 3.1067 17.8904C2.73735 17.5212 2.51163 17.1725 2.32285 16.6843C2.17921 16.3151 2.00684 15.7572 1.9617 14.7357C1.91245 13.6281 1.90014 13.2958 1.90014 10.4938C1.90014 7.68783 1.91245 7.35554 1.9617 6.252C2.00684 5.22641 2.17921 4.67259 2.32285 4.30338C2.51163 3.8152 2.74145 3.46239 3.1067 3.09728C3.47606 2.72807 3.8249 2.50244 4.31327 2.31373C4.68263 2.17015 5.24077 1.99785 6.26265 1.95273C7.36662 1.9035 7.69904 1.89119 10.5062 1.89119ZM10.5062 0C7.6539 0 7.29685 0.0123071 6.17647 0.0615355C5.06019 0.110764 4.29275 0.291268 3.62791 0.549717C2.93434 0.820473 2.34747 1.17738 1.76471 1.76402C1.17784 2.34655 0.820793 2.93319 0.549932 3.62239C0.291382 4.29107 0.110807 5.05411 0.0615595 6.16995C0.0123119 7.294 0 7.65091 0 10.5021C0 13.3532 0.0123119 13.7101 0.0615595 14.83C0.110807 15.9459 0.291382 16.713 0.549932 17.3776C0.820793 18.0709 1.17784 18.6576 1.76471 19.2401C2.34747 19.8226 2.93434 20.1836 3.6238 20.4503C4.29275 20.7087 5.05609 20.8892 6.17237 20.9385C7.29275 20.9877 7.64979 21 10.5021 21C13.3543 21 13.7114 20.9877 14.8317 20.9385C15.948 20.8892 16.7155 20.7087 17.3803 20.4503C18.0698 20.1836 18.6566 19.8226 19.2394 19.2401C19.8222 18.6576 20.1833 18.0709 20.4501 17.3817C20.7086 16.713 20.8892 15.95 20.9384 14.8341C20.9877 13.7142 21 13.3573 21 10.5062C21 7.65501 20.9877 7.29811 20.9384 6.17816C20.8892 5.06232 20.7086 4.29518 20.4501 3.63059C20.1915 2.93319 19.8345 2.34655 19.2476 1.76402C18.6648 1.18148 18.078 0.820473 17.3885 0.553819C16.7196 0.29537 15.9562 0.114866 14.8399 0.0656378C13.7155 0.0123071 13.3584 0 10.5062 0Z" fill="#5418FF"/>
<path d="M10.5 5C7.4635 5 5 7.4635 5 10.5C5 13.5365 7.4635 16 10.5 16C13.5365 16 16 13.5365 16 10.5C16 7.4635 13.5365 5 10.5 5ZM10.5 14.0677C8.53004 14.0677 6.93232 12.47 6.93232 10.5C6.93232 8.53004 8.53004 6.93232 10.5 6.93232C12.47 6.93232 14.0677 8.53004 14.0677 10.5C14.0677 12.47 12.47 14.0677 10.5 14.0677Z" fill="#5418FF"/>
<path d="M18 5.5C18 6.33062 17.3257 7 16.5 7C15.6694 7 15 6.32573 15 5.5C15 4.66938 15.6743 4 16.5 4C17.3257 4 18 4.67427 18 5.5Z" fill="#5418FF"/>
</svg>
