<svg width="14" height="13" viewBox="0 0 14 13" fill="none" xmlns="http://www.w3.org/2000/svg">
<path d="M1.2 4.4L6.2 6.16L6.08 0.839999H7.84L7.72 6.16L12.72 4.4L13.28 6.04L8.16 7.56L11.4 11.8L10 12.8L6.96 8.4L3.92 12.8L2.52 11.8L5.76 7.56L0.64 6.04L1.2 4.4Z" fill="white"/>
<path d="M1.2 4.4L1.53203 3.45673L0.579848 3.12156L0.253651 4.07685L1.2 4.4ZM6.2 6.16L5.86797 7.10327L7.23237 7.58354L7.19975 6.13745L6.2 6.16ZM6.08 0.839999V-0.160001H5.05719L5.08025 0.86255L6.08 0.839999ZM7.84 0.839999L8.83975 0.862549L8.86281 -0.160001H7.84V0.839999ZM7.72 6.16L6.72025 6.13745L6.68764 7.58354L8.05203 7.10327L7.72 6.16ZM12.72 4.4L13.6664 4.07685L13.3402 3.12156L12.388 3.45673L12.72 4.4ZM13.28 6.04L13.5646 6.99865L14.5628 6.70229L14.2264 5.71685L13.28 6.04ZM8.16 7.56L7.8754 6.60135L6.48446 7.01429L7.36543 8.16717L8.16 7.56ZM11.4 11.8L11.9812 12.6137L12.8216 12.0134L12.1946 11.1928L11.4 11.8ZM10 12.8L9.17727 13.3684L9.75467 14.2041L10.5812 13.6137L10 12.8ZM6.96 8.4L7.78273 7.83157L6.96 6.64077L6.13727 7.83157L6.96 8.4ZM3.92 12.8L3.33876 13.6137L4.16533 14.2041L4.74273 13.3684L3.92 12.8ZM2.52 11.8L1.72543 11.1928L1.09836 12.0134L1.93876 12.6137L2.52 11.8ZM5.76 7.56L6.55457 8.16717L7.43555 7.01429L6.0446 6.60135L5.76 7.56ZM0.64 6.04L-0.30635 5.71685L-0.642841 6.70229L0.355402 6.99865L0.64 6.04ZM0.86797 5.34327L5.86797 7.10327L6.53203 5.21673L1.53203 3.45673L0.86797 5.34327ZM7.19975 6.13745L7.07975 0.817448L5.08025 0.86255L5.20026 6.18255L7.19975 6.13745ZM6.08 1.84H7.84V-0.160001H6.08V1.84ZM6.84025 0.817448L6.72025 6.13745L8.71975 6.18255L8.83975 0.862549L6.84025 0.817448ZM8.05203 7.10327L13.052 5.34327L12.388 3.45673L7.38797 5.21673L8.05203 7.10327ZM11.7737 4.72314L12.3337 6.36314L14.2264 5.71685L13.6664 4.07685L11.7737 4.72314ZM12.9954 5.08135L7.8754 6.60135L8.4446 8.51865L13.5646 6.99865L12.9954 5.08135ZM7.36543 8.16717L10.6054 12.4072L12.1946 11.1928L8.95457 6.95283L7.36543 8.16717ZM10.8188 10.9863L9.41876 11.9863L10.5812 13.6137L11.9812 12.6137L10.8188 10.9863ZM10.8227 12.2316L7.78273 7.83157L6.13727 8.96843L9.17727 13.3684L10.8227 12.2316ZM6.13727 7.83157L3.09727 12.2316L4.74273 13.3684L7.78273 8.96843L6.13727 7.83157ZM4.50124 11.9863L3.10124 10.9863L1.93876 12.6137L3.33876 13.6137L4.50124 11.9863ZM3.31457 12.4072L6.55457 8.16717L4.96543 6.95283L1.72543 11.1928L3.31457 12.4072ZM6.0446 6.60135L0.924598 5.08135L0.355402 6.99865L5.4754 8.51865L6.0446 6.60135ZM1.58635 6.36314L2.14635 4.72314L0.253651 4.07685L-0.30635 5.71685L1.58635 6.36314Z" fill="#8EDF26"/>
</svg>
