<svg width="64" height="73" viewBox="0 0 64 73" fill="none" xmlns="http://www.w3.org/2000/svg">
<path d="M42.5 36.5C42.5 45.7976 33.1991 53.5 21.5 53.5C9.80091 53.5 0.5 45.7976 0.5 36.5C0.5 27.2024 9.80091 19.5 21.5 19.5C33.1991 19.5 42.5 27.2024 42.5 36.5Z" stroke="white"/>
<path d="M62.9832 49.6281L62.4839 49.6013L62.4825 49.628L62.4839 49.6548L62.9832 49.6281ZM49.3981 62.7203L49.4453 62.2225L49.3802 62.2163L49.3157 62.2271L49.3981 62.7203ZM63 72L62.5045 72.0672L63.5 72L63 72ZM63 50.2766L63.5 50.2766V50.2766H63ZM62.5 49C62.5 49.2015 62.4946 49.402 62.4839 49.6013L63.4825 49.6548C63.4941 49.4377 63.5 49.2194 63.5 49H62.5ZM46 35.5C55.2079 35.5 62.5 41.6306 62.5 49H63.5C63.5 40.9054 55.5698 34.5 46 34.5V35.5ZM29.5 49C29.5 41.6306 36.7921 35.5 46 35.5V34.5C36.4302 34.5 28.5 40.9054 28.5 49H29.5ZM46 62.5C36.7921 62.5 29.5 56.3694 29.5 49H28.5C28.5 57.0946 36.4302 63.5 46 63.5V62.5ZM49.3157 62.2271C48.245 62.406 47.1361 62.5 46 62.5V63.5C47.1913 63.5 48.3552 63.4014 49.4805 63.2134L49.3157 62.2271ZM49.3509 63.218C55.4873 63.8002 58.7621 66.0667 60.5062 68.1279C61.3831 69.1643 61.8846 70.1623 62.1662 70.896C62.307 71.2628 62.3926 71.5631 62.4426 71.7682C62.4675 71.8707 62.4836 71.9493 62.4931 72.0004C62.4978 72.0259 62.501 72.0446 62.5028 72.0559C62.5037 72.0615 62.5042 72.0653 62.5045 72.0672C62.5047 72.0682 62.5047 72.0687 62.5047 72.0687C62.5047 72.0687 62.5047 72.0686 62.5047 72.0683C62.5047 72.0682 62.5046 72.0679 62.5046 72.0679C62.5046 72.0676 62.5045 72.0672 63 72C63.4955 71.9328 63.4954 71.9324 63.4953 71.9319C63.4953 71.9318 63.4953 71.9313 63.4952 71.9309C63.4951 71.9302 63.495 71.9293 63.4948 71.9284C63.4946 71.9264 63.4942 71.924 63.4938 71.921C63.4929 71.9151 63.4917 71.9073 63.4902 71.8976C63.4871 71.8782 63.4825 71.8513 63.4762 71.8172C63.4635 71.7492 63.4437 71.6527 63.4142 71.5316C63.3552 71.2894 63.2573 70.9481 63.0998 70.5377C62.7847 69.7167 62.2301 68.6172 61.2695 67.482C59.3385 65.1998 55.8123 62.8265 49.4453 62.2225L49.3509 63.218ZM63 72C63.5 72 63.5 72 63.5 71.9999C63.5 71.9999 63.5 71.9998 63.5 71.9998C63.5 71.9996 63.5 71.9994 63.5 71.9991C63.5 71.9985 63.5 71.9976 63.5 71.9964C63.5 71.9941 63.5 71.9905 63.5 71.9857C63.5 71.9761 63.5 71.9617 63.5 71.942C63.5 71.9028 63.5 71.8431 63.5 71.761C63.5 71.5969 63.5 71.3436 63.5 70.9867C63.5 70.2729 63.5 69.1448 63.4999 67.4876C63.4999 64.1732 63.4999 58.7423 63.5 50.2766L62.5 50.2766C62.4999 58.7423 62.4999 64.1732 62.4999 67.4876C62.5 69.1448 62.5 70.2729 62.5 70.9867C62.5 71.3436 62.5 71.5969 62.5 71.761C62.5 71.8431 62.5 71.9028 62.5 71.9421C62.5 71.9617 62.5 71.9762 62.5 71.9858C62.5 71.9905 62.5 71.9941 62.5 71.9965C62.5 71.9977 62.5 71.9985 62.5 71.9991C62.5 71.9994 62.5 71.9996 62.5 71.9998C62.5 71.9999 62.5 71.9999 62.5 72C62.5 72 62.5 72 63 72ZM63.5 50.2766C63.5 50.044 63.4941 49.819 63.4825 49.6013L62.4839 49.6548C62.4945 49.8536 62.5 50.0608 62.5 50.2766H63.5Z" fill="white"/>
<circle cx="38.5" cy="48.5" r="3" stroke="white"/>
<circle cx="46.5" cy="48.5" r="3" stroke="white"/>
<circle cx="53.5" cy="48.5" r="3" stroke="white"/>
<circle cx="13.5" cy="36.5" r="3" stroke="white"/>
<circle cx="21.5" cy="36.5" r="3" stroke="white"/>
<circle cx="28.5" cy="36.5" r="3" stroke="white"/>
<path d="M35.8614 20.8572L35.617 21.1659L35.8614 21.4747L41.6228 28.7549L34.3101 23.019L34 22.7758L33.6899 23.019L26.3772 28.7549L32.1386 21.4747L32.383 21.1659L32.1386 20.8572L26.3772 13.5769L33.6899 19.3128L34 19.5561L34.3101 19.3128L41.6228 13.5769L35.8614 20.8572Z" stroke="white"/>
</svg>
