<svg width="55" height="70" viewBox="0 0 55 70" fill="none" xmlns="http://www.w3.org/2000/svg">
<path d="M13.5 6.44077L14.7867 9.91793L14.8665 10.1335L15.0821 10.2133L18.5592 11.5L15.0821 12.7867L14.8665 12.8665L14.7867 13.0821L13.5 16.5592L12.2133 13.0821L12.1335 12.8665L11.9179 12.7867L8.44077 11.5L11.9179 10.2133L12.1335 10.1335L12.2133 9.91793L13.5 6.44077Z" stroke="white"/>
<path d="M24.3293 15.1021C24.3293 17.9149 18.428 25.5779 15.4747 25.5779H7V51.9294C8.66926 52.3517 12.5186 51.9294 15.4747 51.9294H18.428C23.7354 53.4919 35.4802 55.6794 40 51.9294L35.5987 22.7575C34.5254 21.9516 32.7813 19.6147 34.3912 16.7137C36.0012 13.8127 34.6596 8.2698 34.3912 5.18077C34.1821 2.77366 30.4469 1 27.5491 1C24.6512 1 24.1951 2.88027 24.3293 3.82041V15.1021Z" stroke="white"/>
<rect x="51.5" y="22.5" width="8" height="21" rx="4" transform="rotate(90 51.5 22.5)" stroke="white"/>
<rect x="52.5" y="45.5" width="8" height="20" rx="4" transform="rotate(90 52.5 45.5)" stroke="white"/>
<rect x="54.5" y="30.5" width="8" height="26" rx="4" transform="rotate(90 54.5 30.5)" stroke="white"/>
<rect x="54.5" y="37.5" width="8" height="24" rx="4" transform="rotate(90 54.5 37.5)" stroke="white"/>
<path d="M19.6765 49.4902C20.1471 37.5686 10.5 29.9314 4 29V34.5882C8.07843 35.085 15.8529 39.1297 15.8529 51.3529C15.8529 62.1569 25.1569 66.8758 30 67V62.1569C30 62.1569 19.2059 61.4118 19.6765 49.4902Z" stroke="white"/>
<path d="M16.6765 51.4902C17.1471 39.5686 7.5 31.9314 1 31V36.5882C5.07843 37.085 12.8529 41.1297 12.8529 53.3529C12.8529 64.1569 22.1569 68.8758 27 69V64.1569C27 64.1569 16.2059 63.4118 16.6765 51.4902Z" stroke="white"/>
</svg>
