<svg width="37" height="57" viewBox="0 0 37 57" fill="none" xmlns="http://www.w3.org/2000/svg">
<path d="M18.5 56.0694C18.3942 55.9023 18.2698 55.7053 18.1284 55.4803C17.6237 54.6771 16.9023 53.5181 16.0365 52.0956C14.3047 49.2503 11.9962 45.3529 9.68845 41.1428C7.37979 36.9312 5.07625 32.4147 3.35124 28.3295C1.61684 24.2221 0.500003 20.6239 0.500003 18.2195C0.500003 8.44047 8.55165 0.499999 18.5 0.499999C28.4484 0.5 36.5 8.44047 36.5 18.2195C36.5 20.6239 35.3832 24.2221 33.6488 28.3295C31.9237 32.4147 29.6202 36.9312 27.3116 41.1428C25.0038 45.3529 22.6953 49.2503 20.9635 52.0956C20.0977 53.5181 19.3763 54.6771 18.8716 55.4803C18.7302 55.7053 18.6058 55.9023 18.5 56.0694Z" stroke="white"/>
<circle cx="18.5" cy="14.5" r="12" stroke="white"/>
<circle cx="18.5" cy="8.5" r="6" stroke="white"/>
</svg>
