<svg width="31" height="31" viewBox="0 0 31 31" fill="none" xmlns="http://www.w3.org/2000/svg">
<path d="M2.70352 5.66783L11.0602 27.0028C11.4459 27.9025 12.2173 28.4166 13.1173 28.4166C14.0172 28.4166 14.7886 27.9025 15.1743 27.0028L18.6456 18.7773C18.6456 18.6488 18.7741 18.6488 18.7741 18.6488L27.0023 15.1786C27.9022 14.793 28.4165 14.0219 28.4165 13.1222C28.4165 12.2226 27.9022 11.4514 27.0023 11.0658L5.66051 2.71178C5.40338 2.58325 5.14625 2.58325 4.88912 2.58325C4.2463 2.58325 3.73204 2.8403 3.34634 3.22587C2.57495 3.86849 2.44639 4.76816 2.70352 5.66783Z" fill="#C8E228"/>
</svg>
