<svg width="72" height="66" fill="none" xmlns="http://www.w3.org/2000/svg"><path d="M39.273 15.178l1.141-2.042c1.516-2.713 4.88-3.76 7.662-2.45l2.544-6.874c.142-.384.107-.81-.096-1.167a1.399 1.399 0 00-.958-.68L39.227.025a1.405 1.405 0 00-1.216.352 1.387 1.387 0 00-.432 1.185l1.694 13.616zm31.982 33.787L57.41 31.531a3.475 3.475 0 00-4.726-.669l-6.421 4.552-3.374-3.942a3.893 3.893 0 01-2.454.358l-11.326-2.1 11.087-.878a2.885 2.885 0 002.292-1.466l5.596-10.014a2.859 2.859 0 00-1.12-3.9 2.892 2.892 0 00-3.922 1.115l-4.845 8.67-9.545.756 6.022-2.14-.636-.743a4.318 4.318 0 00-6.062-.486l-5.573 4.715a4.262 4.262 0 00-.26 6.274l15.024 14.995a3.685 3.685 0 005.205-.003l.007-.004 11.64-8.253L65.824 53.23a3.474 3.474 0 004.861.569 3.428 3.428 0 00.571-4.834zM21.986 18.866c3.516 0 6.366-2.833 6.366-6.329 0-3.495-2.85-6.329-6.366-6.329-3.516 0-6.366 2.834-6.366 6.33 0 3.495 2.85 6.328 6.366 6.328z" fill="#F5AB1A"/><path d="M52.48 42.39l-13.405 9.595L15.58 28.627a3.181 3.181 0 002.917-.855 3.152 3.152 0 000-4.475l-8.104-8.058a3.197 3.197 0 00-4.502 0 3.148 3.148 0 00-.86 2.9l-.957-.95a2.397 2.397 0 00-3.376 0 2.364 2.364 0 000 3.356l34.45 34.25-9.646 6.905a2.365 2.365 0 00-.543 3.313 2.396 2.396 0 003.333.54l10.277-7.357 7.15 7.109a2.397 2.397 0 003.376 0 2.363 2.363 0 000-3.357l-6.6-6.562 12.774-9.143a2.365 2.365 0 00.542-3.313 2.396 2.396 0 00-3.332-.54z" fill="#F5AB1A"/></svg>