<svg width="66" height="66" fill="none" xmlns="http://www.w3.org/2000/svg"><path d="M42 5c0-.643.351-1 1-1h7c.649 0 1 .357 1 1v7h4V5c0-2.786-2.188-5-5-5h-7c-2.812 0-5 2.214-5 5v7h4V5zM24 62c-.863-1.3-1-2.371-1-4V29H5c-2.54 0-5 1.537-5 4v25c0 2.247 1.77 3.69 4 4v2c0 1.057.91 2 2 2 1.09 0 2-.943 2-2v-2h16zM8 36c0-1.057.91-2 2-2 1.09 0 2 .943 2 2v19c0 1.057-.91 2-2 2-1.09 0-2-.943-2-2V36zm10-14c0-.634.347-1 1-1h3c0-1.286.46-2.912 1-4h-4c-2.83 0-5 2.252-5 5v3h4v-3zm43-6H31c-2.49 0-5 1.522-5 4v38c0 2.26 1.814 3.688 4 4v2c0 1.064.931 2 2 2s2-.936 2-2v-2h24v2c0 1.064.931 2 2 2s2-.936 2-2v-2c2.186-.313 4-1.74 4-4V20c0-2.478-2.51-4-5-4zM38 55c0 1.064-.931 2-2 2s-2-.936-2-2V23c0-1.064.931-2 2-2s2 .936 2 2v32zm18 2c-1.069 0-2-.936-2-2V23c0-1.064.931-2 2-2s2 .936 2 2v32c0 1.064-.931 2-2 2z" fill="#F5AB1A"/></svg>