<svg width="80" height="80" fill="none" xmlns="http://www.w3.org/2000/svg"><g clip-path="url(#clip0_432_119)" fill="#490083"><path d="M58 12h-6V6a6.006 6.006 0 00-6-6H34a6.007 6.007 0 00-6 6v6h-6c-5.52.006-9.994 4.48-10 10v12a6.006 6.006 0 006 6h10v-2a2 2 0 014 0v2h16v-2a2 2 0 014 0v2h10a6.006 6.006 0 006-6V22c-.006-5.52-4.48-9.994-10-10zm-10 0H32V6a2.003 2.003 0 012-2h12a2.003 2.003 0 012 2v6zm26 36h-2v22c-.02.61-.082 1.216-.184 1.816A10.002 10.002 0 0080 62v-8a6.007 6.007 0 00-6-6zM8 48H6a6.007 6.007 0 00-6 6v8a10.001 10.001 0 008.183 9.816c-.1-.6-.162-1.207-.183-1.816V48zm44-4v6a2 2 0 11-4 0v-6H32v6a2 2 0 01-4 0v-6H18a9.901 9.901 0 01-6-2.05V70c.006 5.52 4.48 9.994 10 10h36c5.52-.006 9.994-4.48 10-10V41.95A9.903 9.903 0 0162 44H52z"/></g><defs><clipPath id="clip0_432_119"><path fill="#fff" d="M0 0h80v80H0z"/></clipPath></defs></svg>