<svg width="80" height="80" fill="none" xmlns="http://www.w3.org/2000/svg"><g clip-path="url(#clip0_432_128)" fill="#490083"><path d="M56.347 13.766l-.635.635 9.886 9.886c7.388-6.59-1.926-17.09-9.25-10.521z"/><path d="M74.52 5.48c-7.307-7.307-19.153-7.307-26.459 0l-8.89 8.89 26.457 26.46 8.89-8.89c7.307-7.307 7.307-19.153 0-26.46zm-4.972 21.487l-3.95 3.95L49.083 14.4l3.95-3.95C64.389-.074 80.07 15.618 69.548 26.967zM5.48 74.519c6.128 6.127 15.545 7.187 22.84 2.827L2.654 51.678c-4.31 7.187-3.367 16.646 2.828 22.84zm30.375-56.834c-6.938-6.44-16.532 3.165-10.094 10.095-6.938-6.441-16.533 3.164-10.094 10.094A7.138 7.138 0 005.573 47.968L31.97 74.365c6.924 6.437 16.538-3.152 10.094-10.094 6.938 6.441 16.533-3.164 10.094-10.094a7.138 7.138 0 0010.094-10.094L35.855 17.685zm14.702 31.576l-3.314 3.315-3.286-3.286L30.44 62.807l-3.314-3.314L47.43 39.188l3.314 3.314-3.473 3.473 3.285 3.286z"/></g><defs><clipPath id="clip0_432_128"><path fill="#fff" d="M0 0h80v80H0z"/></clipPath></defs></svg>