<svg width="98" height="80" fill="none" xmlns="http://www.w3.org/2000/svg"><path d="M33.035 80h31.93L49 55.222 33.035 80z" fill="#490083"/><path d="M95.773 75.556H92.53l-40.877-63.03 5.9-9.096A2.22 2.22 0 0056.89.356a2.23 2.23 0 00-3.08.66L49 8.435l-4.812-7.419a2.23 2.23 0 00-3.08-.66 2.22 2.22 0 00-.662 3.074l5.9 9.096L5.47 75.556H2.228C.998 75.556 0 76.55 0 77.778 0 79.005.998 80 2.228 80h25.51l19.39-30.09a2.314 2.314 0 013.745 0L70.261 80h25.512c1.23 0 2.227-.995 2.227-2.222a2.224 2.224 0 00-2.227-2.222z" fill="#490083"/></svg>