<svg width="65" height="70" fill="none" xmlns="http://www.w3.org/2000/svg"><path d="M48.13 67.667H5.87c-.934 0-1.83-.37-2.49-1.026a3.489 3.489 0 01-1.032-2.474V5.833a3.49 3.49 0 011.031-2.475 3.533 3.533 0 012.49-1.025h36.392v5.834c0 .928.37 1.818 1.031 2.475a3.533 3.533 0 002.49 1.025h5.87V21H54V10.5c0-.31-.124-.606-.344-.825L44.265.342a1.178 1.178 0 00-.83-.342H5.87a5.895 5.895 0 00-4.15 1.71A5.822 5.822 0 000 5.834v58.334a5.822 5.822 0 001.721 4.122A5.895 5.895 0 005.87 70h42.26c1.43 0 2.81-.518 3.883-1.458l-1.553-1.75a3.535 3.535 0 01-2.33.875zm-3.521-59.5V3.983l5.383 5.35h-4.21c-.31 0-.61-.123-.83-.341a1.163 1.163 0 01-.343-.825z" fill="#490083"/><path d="M61.518 51.333h-2.322a1.125 1.125 0 00-.197-.641l-1.544-2.334a3.477 3.477 0 01-.58-1.936v-3.267a8.403 8.403 0 011.695-4.982 9.378 9.378 0 001.339-8.372 9.341 9.341 0 00-2.26-3.722 9.277 9.277 0 00-3.696-2.284 9.24 9.24 0 00-8.334 1.318 9.32 9.32 0 00-2.82 3.314 9.372 9.372 0 00-1.013 4.24 9.229 9.229 0 001.915 5.67 7.941 7.941 0 011.567 4.806v3.279c.002.689-.2 1.363-.58 1.936l-1.544 2.334c-.13.188-.198.412-.197.641h-2.322a3.484 3.484 0 00-2.46 1.028 3.52 3.52 0 00-1.022 2.472V59.5a1.168 1.168 0 001.16 1.167h1.161v3.5a1.161 1.161 0 001.161 1.166h20.893c.308 0 .603-.123.82-.341a1.17 1.17 0 00.34-.825v-3.5h1.161c.308 0 .603-.123.821-.342A1.17 1.17 0 0065 59.5v-4.667a3.52 3.52 0 00-1.023-2.472 3.484 3.484 0 00-2.46-1.028zm-17.41-18.666a7.021 7.021 0 01.758-3.18 6.99 6.99 0 012.112-2.486 6.945 6.945 0 016.248-.994A6.959 6.959 0 0156 27.717a7.033 7.033 0 01.702 9.068 10.788 10.788 0 00-2.147 6.37v3.267a5.806 5.806 0 00.975 3.231l1.114 1.68H45.5l1.114-1.68a5.8 5.8 0 00.975-3.231v-3.279a10.29 10.29 0 00-2.042-6.218 6.979 6.979 0 01-1.44-4.258zM60.357 63H41.785v-2.333h18.571V63zm2.32-4.667H39.465v-3.5c0-.31.123-.606.34-.825.218-.219.513-.341.821-.341h20.893c.308 0 .603.122.82.341.218.22.34.516.34.825v3.5zM18.571 63c2.296 0 4.54-.684 6.449-1.966a11.654 11.654 0 004.275-5.236 11.722 11.722 0 00.66-6.74 11.686 11.686 0 00-3.176-5.974 11.589 11.589 0 00-5.943-3.193 11.552 11.552 0 00-6.706.664 11.62 11.62 0 00-5.21 4.297 11.71 11.71 0 00-1.956 6.481 11.71 11.71 0 003.404 8.246 11.59 11.59 0 008.203 3.42zm0-21c1.837 0 3.632.547 5.16 1.573a9.323 9.323 0 013.42 4.188 9.378 9.378 0 01.528 5.393 9.348 9.348 0 01-2.542 4.779 9.272 9.272 0 01-4.754 2.554 9.242 9.242 0 01-5.365-.53 9.297 9.297 0 01-4.167-3.438 9.368 9.368 0 01-1.565-5.186 9.368 9.368 0 012.723-6.596A9.272 9.272 0 0118.57 42z" fill="#490083"/><path d="M17.41 56c.309 0 .604-.123.821-.342l6.965-7-1.642-1.65-6.143 6.175-2.662-2.675-1.641 1.65 3.482 3.5c.218.219.513.342.82.342zm10.447-38.5h-2.321c-.308 0-.603-.123-.821-.342a1.17 1.17 0 01-.34-.825h-2.321a3.51 3.51 0 001.02 2.475 3.473 3.473 0 002.462 1.025V21h2.321v-1.167c.924 0 1.81-.368 2.462-1.025a3.51 3.51 0 000-4.95 3.473 3.473 0 00-2.462-1.025h-2.321c-.308 0-.603-.123-.821-.341a1.17 1.17 0 01.82-1.992h2.322a1.162 1.162 0 011.16 1.167h2.322a3.51 3.51 0 00-1.02-2.475 3.473 3.473 0 00-2.462-1.025V7h-2.321v1.167c-.924 0-1.81.368-2.463 1.025a3.51 3.51 0 000 4.95 3.473 3.473 0 002.463 1.025h2.321c.308 0 .603.123.82.341a1.17 1.17 0 01-.82 1.992zm5.803-4.666h2.322v2.333h-2.321v-2.333zm-16.25 0h2.322v2.333h-2.321v-2.333zm-10.446 10.5h4.643v2.333H6.964v-2.334zm6.965 0h27.857v2.333H13.929v-2.334zM6.964 28h32.5v2.333h-32.5V28zm0 4.666h32.5V35h-32.5v-2.334zm0 4.668h4.643v2.333H6.964v-2.334zm18.572 0h13.928v2.333H25.536v-2.334zM31.34 42h9.285v2.333h-9.286V42z" fill="#490083"/></svg>