<svg width="70" height="70" fill="none" xmlns="http://www.w3.org/2000/svg"><g clip-path="url(#clip0_434_168)" fill="#490083"><path d="M24.74 39.045a11.318 11.318 0 01-5.095 1.717 4.658 4.658 0 00-4.478-3.429H9.333A4.667 4.667 0 004.667 42v23.333A4.667 4.667 0 009.333 70h5.834a4.667 4.667 0 004.494-3.477c.99.052 1.961.297 2.858.721.45.214.88.467 1.313.716.644.393 1.314.74 2.007 1.039a15.258 15.258 0 005.661 1h21a4.667 4.667 0 003.866-7.276 4.646 4.646 0 002.334-7 4.635 4.635 0 00.84-8.386 4.612 4.612 0 001.127-3.004A4.667 4.667 0 0056 39.667H41.263c1.824-3.475 5.14-11.241 1.913-16.89-1.42-2.482-4.387-4.423-7.538-2.818-3.288 1.67-2.551 4.971-2.197 6.556.904 4.064-2.023 8.28-8.7 12.53zm-9.573 28.621H9.333A2.333 2.333 0 017 65.334V42a2.333 2.333 0 012.333-2.334h5.834A2.333 2.333 0 0117.5 42v23.333a2.333 2.333 0 01-2.333 2.334zm20.552-41.659c-.528-2.36-.29-3.324.977-3.966 2.058-1.05 3.77.7 4.455 1.895 3.487 6.107-2.813 16.172-2.877 16.273a1.167 1.167 0 00.984 1.79H56a2.333 2.333 0 110 4.667h-7A1.167 1.167 0 1049 49h8.167a2.333 2.333 0 010 4.666H49A1.167 1.167 0 1049 56h5.833a2.333 2.333 0 010 4.666H49A1.167 1.167 0 1049 63h3.5a2.333 2.333 0 110 4.666h-21a12.893 12.893 0 01-4.783-.83 13.958 13.958 0 01-1.714-.894 20.84 20.84 0 00-1.478-.804 9.975 9.975 0 00-3.692-.933V43.109a13.674 13.674 0 006.16-2.1c7.594-4.827 10.867-9.875 9.726-15.002zM49.012 1.133v.034c0 .43-.106 10.5-9.344 10.5a1.167 1.167 0 000 2.333c9.201 0 9.343 10.073 9.344 10.5a1.167 1.167 0 102.333.032V24.5c0-.43.106-10.5 9.345-10.5a1.167 1.167 0 100-2.333c-9.203 0-9.343-10.073-9.345-10.5a1.167 1.167 0 00-2.333-.032v-.002zm6.358 11.7a11.083 11.083 0 00-5.193 5.876 11.076 11.076 0 00-5.193-5.875 11.077 11.077 0 005.193-5.876 11.084 11.084 0 005.193 5.876z"/><path d="M19.833 15.167v-.007a1.167 1.167 0 10-2.333.007c0 .286-.098 7-5.833 7a1.167 1.167 0 100 2.333c5.735 0 5.833 6.717 5.833 7v.007a1.167 1.167 0 002.333-.007c0-.286.098-7 5.834-7a1.167 1.167 0 000-2.333c-5.736 0-5.834-6.717-5.834-7zm1.568 8.166a7.841 7.841 0 00-2.734 3.166 7.842 7.842 0 00-2.735-3.166 7.834 7.834 0 002.735-3.165 7.834 7.834 0 002.734 3.165zM59.5 24.5c-.644 0-1.167.522-1.167 1.167V28a1.167 1.167 0 002.334 0v-2.333c0-.645-.523-1.167-1.167-1.167zm0 11.667c.644 0 1.167-.523 1.167-1.167v-2.333a1.167 1.167 0 10-2.334 0V35c0 .644.523 1.167 1.167 1.167zm2.333-4.667h2.334a1.167 1.167 0 100-2.334h-2.334a1.167 1.167 0 100 2.334zm-4.666 0a1.167 1.167 0 100-2.334h-2.334a1.167 1.167 0 100 2.334h2.334zM30.092 10.742l1.75 1.75a1.167 1.167 0 001.65-1.65l-1.75-1.75a1.167 1.167 0 10-1.65 1.65zm-3.5-3.501a1.167 1.167 0 001.65-1.65l-1.75-1.75a1.167 1.167 0 00-1.65 1.65l1.75 1.75zm-1.75 5.251a1.167 1.167 0 001.65 0l1.75-1.75a1.167 1.167 0 10-1.65-1.65l-1.75 1.75a1.167 1.167 0 000 1.65zm6.075-4.908c.31 0 .606-.123.824-.342l1.75-1.75a1.167 1.167 0 10-1.65-1.65l-1.75 1.75a1.166 1.166 0 00.826 1.992z"/></g><defs><clipPath id="clip0_434_168"><path fill="#fff" d="M0 0h70v70H0z"/></clipPath></defs></svg>