<svg width="70" height="70" fill="none" xmlns="http://www.w3.org/2000/svg"><g clip-path="url(#clip0_434_264)" stroke="#490083" stroke-width="2.734" stroke-miterlimit="10" stroke-linecap="round" stroke-linejoin="round"><path d="M9.135 21.078l19.71-19.71 5.131 5.13M19.52 20.955L39.108 1.367l20.49 20.49-.016.017M2.324 51.007v12.157a5.469 5.469 0 005.469 5.469h48.945a5.469 5.469 0 005.469-5.469v-9.559"/><path d="M62.207 36.105v-9.559a5.469 5.469 0 00-5.469-5.469H7.793a5.469 5.469 0 00-5.469 5.47v12.156"/><path d="M67.676 36.105H40.059a8.75 8.75 0 100 17.5h27.617v-17.5z"/><path d="M42.793 44.855a2.734 2.734 0 10-5.469 0 2.734 2.734 0 005.469 0z"/></g><defs><clipPath id="clip0_434_264"><path fill="#fff" d="M0 0h70v70H0z"/></clipPath></defs></svg>