<svg width="70" height="70" fill="none" xmlns="http://www.w3.org/2000/svg"><g clip-path="url(#clip0_434_250)" fill="#490083"><path d="M25.977 14.109c-1.119.757-2.651 1.794-2.651 3.907a1.367 1.367 0 102.734 0c0-.602.42-.945 1.45-1.642 1.119-.758 2.651-1.795 2.651-3.908s-1.532-3.15-2.652-3.907c-1.03-.697-1.45-1.04-1.45-1.642 0-.602.42-.946 1.45-1.643 1.12-.757 2.652-1.794 2.652-3.907a1.368 1.368 0 00-2.734 0c0 .602-.42.945-1.45 1.642-1.119.758-2.651 1.794-2.651 3.908 0 2.113 1.532 3.15 2.651 3.907 1.03.697 1.45 1.04 1.45 1.643 0 .601-.42.945-1.45 1.642zm9.431 0c-1.118.757-2.651 1.794-2.651 3.907a1.367 1.367 0 102.734 0c0-.602.42-.945 1.45-1.642 1.12-.758 2.652-1.795 2.652-3.908s-1.533-3.15-2.652-3.907c-1.03-.697-1.45-1.04-1.45-1.642 0-.602.42-.946 1.45-1.643 1.12-.757 2.652-1.794 2.652-3.907a1.367 1.367 0 00-2.735 0c0 .602-.42.945-1.45 1.642-1.119.758-2.652 1.794-2.652 3.908 0 2.112 1.533 3.15 2.652 3.906 1.03.698 1.45 1.041 1.45 1.643 0 .602-.419.946-1.45 1.643zm9.432 0c-1.119.757-2.652 1.794-2.652 3.907a1.367 1.367 0 102.735 0c0-.602.42-.945 1.45-1.642 1.119-.758 2.651-1.795 2.651-3.908s-1.532-3.15-2.651-3.907c-1.03-.697-1.45-1.04-1.45-1.642 0-.602.42-.946 1.45-1.643 1.119-.757 2.651-1.794 2.651-3.907a1.368 1.368 0 00-2.734 0c0 .602-.42.945-1.45 1.642-1.119.758-2.652 1.794-2.652 3.908 0 2.113 1.533 3.15 2.652 3.907 1.03.697 1.45 1.04 1.45 1.643 0 .601-.42.945-1.45 1.642zM65.271 31.37H60.27c.157-.973.26-1.963.304-2.969a4.041 4.041 0 002.708-3.81 4.04 4.04 0 00-4.036-4.035H10.674a4.04 4.04 0 00-4.036 4.035 4.04 4.04 0 002.708 3.81c.044 1.006.147 1.996.304 2.968H4.648a1.367 1.367 0 000 2.734h5.6c1.884 6.793 6.499 12.46 12.583 15.741l-3.235 6.072c-.002.003-.003.007-.006.01l-6.041 11.34h-2.08a1.367 1.367 0 000 2.734h5.8a1.367 1.367 0 100-2.735h-.622l4.97-9.326h27.012l4.97 9.326h-.949a1.368 1.368 0 000 2.735h5.802a1.367 1.367 0 100-2.735h-1.755l-6.043-11.34-.005-.009-3.309-6.21c5.96-3.3 10.474-8.904 12.332-15.602h5.6a1.368 1.368 0 000-2.735zM23.073 55.204l2.234-4.193A25.503 25.503 0 0034.96 52.9c3.515 0 6.867-.711 9.92-1.997l2.292 4.302H23.073zm11.887-5.04c-12.172 0-22.157-9.541-22.866-21.538h45.732c-.71 11.997-10.694 21.539-22.866 21.539zm24.286-24.273H10.674a1.302 1.302 0 01-.001-2.602h48.573c.718 0 1.302.584 1.302 1.301 0 .718-.584 1.301-1.302 1.301z"/><path d="M34.96 47.76c7.1 0 13.599-3.604 17.382-9.641a1.367 1.367 0 10-2.316-1.452c-3.281 5.234-8.913 8.359-15.066 8.359a1.367 1.367 0 100 2.734zm17.162-14.844c.223.533.77.878 1.348.84a1.38 1.38 0 001.208-.924 1.377 1.377 0 00-.487-1.542 1.383 1.383 0 00-1.509-.07 1.378 1.378 0 00-.56 1.696z"/></g><defs><clipPath id="clip0_434_250"><path fill="#fff" d="M0 0h70v70H0z"/></clipPath></defs></svg>