<svg width="70" height="70" fill="none" xmlns="http://www.w3.org/2000/svg"><path d="M58.122 20.782a9.844 9.844 0 10-12.338 0h-4.736a1.094 1.094 0 01-1.093-.81l-.252-.94 1.345-4.168a4.67 4.67 0 00-4.407-6.114A4.79 4.79 0 0035 9.046a4.681 4.681 0 00-5.419 1.63 4.67 4.67 0 00-.662 4.188l1.345 4.156-.252.952a1.094 1.094 0 01-1.093.81h-4.703a9.844 9.844 0 10-12.338 0A10.937 10.937 0 001.094 31.718v10.675a4.66 4.66 0 007.11 3.948v17.096a5.469 5.469 0 009.296 3.86c.197-.178.38-.372.547-.579a5.469 5.469 0 009.844-3.281V31.61a13.126 13.126 0 006.234-2.658c.306-.252.602-.503.875-.755.273.252.569.503.875.755a13.126 13.126 0 006.234 2.658v31.828a5.469 5.469 0 009.844 3.281c.156.22.328.428.514.623a5.469 5.469 0 009.33-3.904V46.32a4.627 4.627 0 007.11-3.927V31.719a10.938 10.938 0 00-10.785-10.938zm-13.825-7.657a7.656 7.656 0 1115.312 0 7.656 7.656 0 01-15.312 0zm-13.3 1.094a2.44 2.44 0 01.35-2.188 2.537 2.537 0 011.269-.896 4.925 4.925 0 00-.482 1.093l-.82 2.975-.317-.984zM10.39 13.125a7.657 7.657 0 1115.313 0 7.657 7.657 0 01-15.313 0zm22.422 14.099a10.86 10.86 0 01-6.093 2.308 1.094 1.094 0 00-1.017 1.093v32.813a3.281 3.281 0 11-6.562 0V48.125a1.094 1.094 0 10-2.188 0v15.313a3.281 3.281 0 11-6.562 0V31.719a1.094 1.094 0 10-2.188 0v10.675a2.46 2.46 0 01-2.46 2.45 2.483 2.483 0 01-2.462-2.45V31.719a8.75 8.75 0 018.75-8.75h16.92a3.282 3.282 0 003.161-2.406l2.122-7.788c.15-.534.469-1.006.908-1.345.117-.084.242-.157.372-.219a2.515 2.515 0 013.14.755 2.439 2.439 0 01.35 2.187l-2.506 7.722a11.19 11.19 0 01-2.318 3.992c-.412.495-.87.949-1.367 1.357zm33.906 15.17a2.473 2.473 0 01-2.45 2.45 2.44 2.44 0 01-1.75-.722 2.417 2.417 0 01-.722-1.739V31.719a1.094 1.094 0 00-2.188 0v31.719a3.28 3.28 0 11-6.562 0V48.125a1.094 1.094 0 00-2.188 0v15.313a3.28 3.28 0 11-6.562 0V30.625a1.093 1.093 0 00-1.017-1.093 10.86 10.86 0 01-6.093-2.308 6.484 6.484 0 01-.765-.657 13.125 13.125 0 002.11-3.97l.187-.569c.61.6 1.43.937 2.286.941h16.964a8.75 8.75 0 018.75 8.75v10.675z" fill="#490083" stroke="#490083" stroke-width=".2"/><path d="M35.703 5.078a.994.994 0 01-1.697-.703V2.187a.994.994 0 111.988 0v2.188a.994.994 0 01-.291.703zm2.664.442h0l.001-.002 1.093-1.912a.993.993 0 011.309-.347.993.993 0 01.356 1.35s0 0 0 0l-1.093 1.903a.994.994 0 01-1.35.348.994.994 0 01-.316-1.34zm-8.486 1.043a1.094 1.094 0 001.892-1.094L30.68 3.566a1.092 1.092 0 00-1.893 1.094l1.094 1.903z" fill="#490083" stroke="#490083" stroke-width=".2"/></svg>