<svg width="70" height="70" fill="none" xmlns="http://www.w3.org/2000/svg"><path d="M43.372 4.327H8.715a3.609 3.609 0 00-3.608 3.608V57.67a3.609 3.609 0 003.608 3.608h35.747a3.609 3.609 0 003.608-3.608V27.059" stroke="#490083" stroke-width="2.734" stroke-miterlimit="10" stroke-linecap="round" stroke-linejoin="round"/><path d="M38.907 20.898H14.27v-5.774h24.637v5.774zM14.27 28.387h24.637M14.27 34.872h24.637M14.27 41.356h24.637M14.27 47.84h24.637m25.986-33.477c0 7.178-5.817 12.996-12.993 12.996s-12.993-5.818-12.993-12.996c0-7.177 5.817-12.996 12.993-12.996s12.993 5.819 12.993 12.996zm-12.987-1.791v9.349" stroke="#490083" stroke-width="2.734" stroke-miterlimit="10" stroke-linecap="round" stroke-linejoin="round"/><path d="M53.267 8.173a1.367 1.367 0 11-2.734 0 1.367 1.367 0 012.734 0z" fill="#490083"/><path d="M57.384 26.756V33.7m0 12.361v18.963a3.608 3.608 0 01-3.608 3.609H18.029a3.608 3.608 0 01-3.608-3.609v-3.336" stroke="#490083" stroke-width="2.734" stroke-miterlimit="10" stroke-linecap="round" stroke-linejoin="round"/></svg>