<svg width="191" height="58" fill="none" xmlns="http://www.w3.org/2000/svg"><path d="M83.464 40V20.4h8.82c1.25 0 2.38.27 3.388.812 1.027.541 1.83 1.288 2.408 2.24.579.933.868 1.997.868 3.192 0 1.232-.29 2.343-.868 3.332a6.252 6.252 0 01-2.38 2.296c-1.008.56-2.147.84-3.416.84H88V40h-4.536zm10.864 0l-4.984-8.848 4.872-.7L99.76 40h-5.432zM88 29.472h3.864c.485 0 .905-.103 1.26-.308a2.12 2.12 0 00.84-.924c.205-.392.308-.84.308-1.344 0-.504-.112-.943-.336-1.316a2.178 2.178 0 00-.98-.896c-.41-.205-.915-.308-1.512-.308H88v5.096zM102.284 40V20.4h13.664v4.06h-9.044v11.48h9.324V40h-13.944zm2.24-8.036V28.1h10.164v3.864h-10.164zM119.491 40V20.4h4.256l10.276 14-.924-.14a35.528 35.528 0 01-.224-1.764l-.168-1.652-.112-1.652a384.59 384.59 0 01-.056-1.82V20.4h4.62V40h-4.312l-10.724-14.448 1.428.196c.093.896.168 1.661.224 2.296.075.616.131 1.167.168 1.652a20.027 20.027 0 01.14 2.492c.019.373.028.793.028 1.26V40h-4.62zm21.354 0v-4.004h3.304V24.404h-3.304V20.4h11.396v4.004h-3.332v11.592h3.332V40h-11.396zm19.339 0V24.6h-5.824v-4.2h16.548v4.2h-5.964V40h-4.76zm18.593 0v-9.772l.196 1.372-7.924-11.2h5.404l6.048 8.68-2.464-.084 5.46-8.596h5.236l-7.588 11.508.42-1.904V40h-4.788z" fill="#202020"/><g clip-path="url(#clip0_921_17)"><path d="M32.128.008c.914-.01 1.83-.012 2.746.002.048 1.783-.28 3.543-.339 5.324-.29 2.35-.387 4.719-.661 7.07-.088 1.177-.122 2.361-.323 3.525l-.102-.005c-.244-1.342-.214-2.714-.39-4.064-.209-2.129-.325-4.267-.573-6.39-.08-1.825-.388-3.633-.358-5.462zm-4.856.755a5.86 5.86 0 011.338-.22c.382 2.016.694 4.046 1.094 6.06.265 1.855.681 3.685.937 5.54l.063.11c.055.481.16.954.235 1.433.1.962.443 1.895.362 2.87-.076-.246-.147-.492-.224-.736-.102-.24-.2-.481-.299-.72l-.069-.288c-.12-.28-.233-.56-.345-.84-.05-.137-.097-.275-.145-.41-1.241-3.518-2.537-7.016-3.815-10.52-.21-.612-.513-1.205-.521-1.867.463-.137.928-.263 1.389-.412zM38.39.547c.855-.008 1.644.356 2.468.526.122.107.47.18.294.413-1.441 4.029-2.937 8.04-4.371 12.072-.051.14-.1.282-.147.425-.321.854-.666 1.701-.934 2.575-.01-.396-.02-.797.064-1.188.208-1.028.365-2.067.543-3.1.171-.798.286-1.607.424-2.41.402-2.12.763-4.247 1.13-6.373.182-.979.361-1.959.53-2.94zm5.976 2.131c.258.023.521.062.742.213.54.324 1.1.611 1.622.967.031.208.009.42-.004.629-.992 1.257-1.837 2.627-2.79 3.915-1.846 2.638-3.669 5.294-5.531 7.921-.167.24-.358.463-.55.683-.058.123-.116.246-.177.368.014-.302.119-.586.243-.857 1.274-2.629 2.455-5.3 3.714-7.934.896-1.975 1.864-3.916 2.73-5.905zm-24.142 1.19c.801-.384 1.488-1.125 2.434-1.085 2.138 4.556 4.256 9.122 6.386 13.684.133.257.157.547.183.83-.232-.463-.553-.87-.853-1.288-2.682-3.815-5.333-7.651-8.019-11.466-.127-.198-.092-.453-.131-.675zM15.519 7.86c.585-.566 1.067-1.283 1.815-1.648 2.6 3.117 5.216 6.219 7.82 9.334.761.934 1.584 1.822 2.276 2.81.098.08.195.16.293.243-.492-.174-.838-.59-1.26-.877-3.684-3.093-7.356-6.2-11.04-9.292-.194-.153-.072-.446.096-.57zm33.434-.783c.299-.33.546-.87 1.082-.707.525.561 1.1 1.078 1.591 1.67.011.074.037.221.048.295-3.652 3.106-7.34 6.17-10.99 9.278-.28.221-.57.479-.954.472 3.062-3.68 6.165-7.325 9.224-11.008zm-35.988 4.084c.16.012.321.028.483.043 3.79 2.748 7.673 5.368 11.478 8.099.507.353 1.022.698 1.478 1.117-3.409-1.52-6.768-3.15-10.153-4.724a305.355 305.355 0 01-4.084-1.917l-.364-.053a47.451 47.451 0 01-.008-.618c.386-.653.763-1.309 1.17-1.947zm39.686.718c.446-.277.818-.744 1.387-.741.357.626.776 1.215 1.096 1.862.117.226.066.488.075.733-.1.012-.299.036-.397.05-2.632 1.29-5.316 2.47-7.952 3.755-2.09.95-4.153 1.956-6.254 2.885 1.486-1.239 3.135-2.263 4.698-3.399 2.45-1.715 4.896-3.433 7.347-5.145zm-42.363 4.85c1.185.465 2.39.873 3.583 1.318l.399.144c2.727 1.006 5.47 1.968 8.192 2.987.429.146.858.288 1.275.468.337.121.673.245 1.01.37.251.086.508.164.763.246a6.4 6.4 0 01-2.047-.244c-2.776-.422-5.536-.947-8.3-1.435-1.884-.322-3.772-.628-5.64-1.038.029-.117.088-.353.12-.47a6.86 6.86 0 01.275-1.129c.113-.408.236-.814.37-1.216zm45.223.447a2.545 2.545 0 011.29-.196c.272.843.492 1.703.669 2.57-2.192.453-4.405.807-6.61 1.183l-.106.064c-2.412.361-4.8.884-7.215 1.221a6.368 6.368 0 01-2.053.244c.255-.082.513-.157.768-.242.335-.128.672-.253 1.01-.376.415-.177.845-.318 1.271-.467 3.654-1.35 7.324-2.65 10.976-4.001zm-46.51 5.928c.97-.084 1.922.12 2.886.16 4.463.417 8.932.738 13.392 1.196-1.191.285-2.425.265-3.633.429-3.168.244-6.326.551-9.492.809-.55.14-1.122.065-1.678.158-.487.074-.98.08-1.472.068-.005-.94-.005-1.88-.003-2.82zm45.418.238c1.188-.116 2.381-.291 3.581-.239 0 .928 0 1.857-.004 2.784-.379-.19-.323.748-.373.02-1.782-.02-3.548-.334-5.328-.405-2.173-.222-4.35-.383-6.524-.586-1.36-.198-2.758-.122-4.096-.459a800.56 800.56 0 0112.744-1.115zm-31.661 3.725c.858-.123 1.713-.406 2.59-.263-.206.058-.41.113-.613.168-.608.258-1.242.45-1.85.709a937.36 937.36 0 00-9.13 3.322c-1.174.377-2.305.888-3.494 1.218-.072-.23-.144-.458-.211-.69-.049-.183-.095-.366-.142-.547-.15-.498-.258-1.005-.388-1.506.706-.27 1.472-.283 2.203-.458 3.68-.638 7.356-1.301 11.035-1.953zm18.901-.263c.782-.13 1.55.086 2.315.21 4.455.788 8.901 1.627 13.366 2.342.113.94-.399 1.779-.485 2.695-.3 0-.599-.008-.896-.035-.747-.367-1.569-.552-2.32-.908-3.53-1.21-7.018-2.553-10.535-3.806a14.77 14.77 0 01-.834-.332c-.205-.056-.41-.108-.61-.166zm-15.788 1.984c.15-.013.3-.024.451-.035-.941.555-1.778 1.267-2.682 1.878a47.505 47.505 0 01-.787-.034l-.063-.383c.574-.236 1.117-.538 1.69-.774.468-.206.936-.417 1.391-.652zm14.805-.032c.152.008.305.018.458.03 1.014.498 2.052.947 3.072 1.434l-.05.381c-.266.01-.533.02-.8.024-.9-.612-1.742-1.316-2.68-1.87zm8.829 3.954c1.98.905 3.944 1.844 5.916 2.767-.467.85-.97 1.677-1.442 2.523-.65-.395-1.304-.806-1.877-1.306-.856-1.23-1.68-2.483-2.53-3.716l-.067-.268zm-32.535.25l.436-.14c-.112.323-.267.63-.465.91-.607.874-1.185 1.767-1.777 2.651-.316.509-.873.765-1.338 1.11-.255.189-.529.35-.844.41-.37-.618-.746-1.23-1.091-1.863-.13-.206-.093-.458-.104-.688.658-.24 1.278-.57 1.91-.872 1.104-.48 2.171-1.039 3.274-1.517z" fill="#F5AB1A"/><path d="M30.572 26.401c.82-1.12 1.555-2.301 2.4-3.401.286.295.495.65.727.987 2.416 3.47 4.854 6.926 7.264 10.4.189-.086.38-.169.57-.256 1.358-.57 2.664-1.278 4.05-1.767 1.63 2.37 3.198 4.787 4.807 7.173.393.544.701 1.156 1.147 1.658 1-.252 1.956-.66 2.939-.969.454-.128.898-.398 1.38-.368 3.4 4.648 6.737 9.348 10.144 13.992-3.909-1.107-7.784-2.34-11.687-3.472 1.67-.467 3.39-.731 5.06-1.197-1.576-1.949-3.096-3.948-4.612-5.945-.884.197-1.74.509-2.608.762-.038.913-.107 1.825-.128 2.739-.021.221.008.474-.14.66-.09-.199-.175-.398-.286-.583-1.731-2.692-3.47-5.38-5.212-8.066-.632-.944-1.197-1.933-1.87-2.848-.898.33-1.774.721-2.668 1.064.108 1.57.339 3.13.487 4.697-.027.17.118.227.07.43-1.303-2.033-2.655-4.035-3.976-6.057-1.831-2.732-3.587-5.518-5.456-8.225-.598 2.364-1.232 4.719-1.797 7.09l-.055.089c-.416 1.701-.863 3.395-1.298 5.093 1.298-.896 2.48-1.953 3.738-2.903.03.001.094.004.126.004 1.624 3.405 3.254 6.81 4.864 10.223 2.039-.303 4.068-.67 6.102-.999-1.295 1.35-2.656 2.634-3.973 3.962-2.59 2.522-5.127 5.099-7.707 7.632-4.41-4.4-8.83-8.79-13.268-13.161a20.971 20.971 0 00-.143-.247c.038.418.256.785.409 1.168.723 1.695 1.431 3.398 2.155 5.094.141.19-.061.347-.174.479-1.129 1.17-2.24 2.36-3.387 3.513-.33.322-.615.703-1.015.944a1077.885 1077.885 0 00-10.214-8.76c.103 1.15.108 2.305.236 3.453-2.255 1.046-4.547 2.015-6.812 3.043-.244.117-.5.204-.761.266 3.372-4.65 6.75-9.297 10.09-13.973.854.161 1.654.523 2.48.781-.204 1.481-.55 2.94-.75 4.423 2.86-4.211 5.674-8.458 8.544-12.659.976.298 1.87.822 2.815 1.206-.46 1.6-.907 3.204-1.378 4.8a6.043 6.043 0 00-.187.896c1.247-1.926 2.617-3.769 3.913-5.66 1.683-2.401 3.366-4.801 5.045-7.205z" fill="#490083"/></g><defs><clipPath id="clip0_921_17"><path fill="#fff" d="M0 0h66v58H0z"/></clipPath></defs></svg>