<svg width="191" height="58" fill="none" xmlns="http://www.w3.org/2000/svg"><path d="M83.464 39V19.4h8.82c1.25 0 2.38.27 3.388.812 1.027.541 1.83 1.288 2.408 2.24.579.933.868 1.997.868 3.192 0 1.232-.29 2.343-.868 3.332a6.252 6.252 0 01-2.38 2.296c-1.008.56-2.147.84-3.416.84H88V39h-4.536zm10.864 0l-4.984-8.848 4.872-.7L99.76 39h-5.432zM88 28.472h3.864c.485 0 .905-.103 1.26-.308a2.12 2.12 0 00.84-.924c.205-.392.308-.84.308-1.344 0-.504-.112-.943-.336-1.316a2.178 2.178 0 00-.98-.896c-.41-.205-.915-.308-1.512-.308H88v5.096zM102.284 39V19.4h13.664v4.06h-9.044v11.48h9.324V39h-13.944zm2.24-8.036V27.1h10.164v3.864h-10.164zM119.491 39V19.4h4.256l10.276 14-.924-.14a35.528 35.528 0 01-.224-1.764l-.168-1.652-.112-1.652a384.59 384.59 0 01-.056-1.82V19.4h4.62V39h-4.312l-10.724-14.448 1.428.196c.093.896.168 1.661.224 2.296.075.616.131 1.167.168 1.652a20.027 20.027 0 01.14 2.492c.019.373.028.793.028 1.26V39h-4.62zm21.354 0v-4.004h3.304V23.404h-3.304V19.4h11.396v4.004h-3.332v11.592h3.332V39h-11.396zm19.339 0V23.6h-5.824v-4.2h16.548v4.2h-5.964V39h-4.76zm18.593 0v-9.772l.196 1.372-7.924-11.2h5.404l6.048 8.68-2.464-.084 5.46-8.596h5.236l-7.588 11.508.42-1.904V39h-4.788z" fill="#fff"/><g clip-path="url(#clip0_909_3)"><path d="M31.61.008c.91-.01 1.821-.012 2.732.002.048 1.776-.278 3.529-.337 5.301-.289 2.34-.386 4.7-.658 7.04-.088 1.173-.121 2.352-.321 3.511l-.101-.005c-.243-1.336-.214-2.703-.388-4.047-.208-2.12-.324-4.25-.571-6.363-.079-1.817-.385-3.618-.356-5.439zM26.78.76c.434-.12.879-.203 1.331-.22.38 2.009.69 4.03 1.089 6.035.263 1.848.677 3.67.932 5.517l.062.109c.055.48.16.95.235 1.427.098.958.44 1.887.36 2.86-.076-.246-.147-.492-.224-.734-.101-.24-.198-.48-.297-.718l-.069-.287c-.12-.277-.232-.556-.343-.836l-.145-.409c-1.234-3.502-2.523-6.985-3.794-10.475-.21-.609-.51-1.2-.52-1.858.462-.137.924-.263 1.383-.41zM37.84.544c.851-.007 1.636.356 2.455.525.121.106.469.18.293.41-1.434 4.013-2.922 8.007-4.35 12.022-.05.14-.099.281-.145.424-.32.85-.663 1.693-.93 2.563-.01-.394-.02-.793.065-1.183.207-1.024.363-2.057.54-3.087.17-.794.284-1.6.422-2.4.399-2.11.759-4.229 1.123-6.346.181-.974.36-1.95.527-2.928zm5.945 2.123c.258.023.52.062.739.212.537.323 1.095.609 1.614.963.03.207.008.417-.005.626-.987 1.252-1.827 2.616-2.775 3.898-1.836 2.628-3.65 5.272-5.503 7.888-.166.24-.356.462-.547.68-.058.123-.116.246-.176.367.014-.3.118-.584.242-.853 1.267-2.618 2.442-5.278 3.695-7.901.891-1.966 1.854-3.9 2.716-5.88zM19.767 3.852c.797-.383 1.48-1.12 2.421-1.08 2.127 4.536 4.235 9.084 6.354 13.626.132.256.156.545.181.827-.23-.462-.55-.866-.848-1.284-2.668-3.798-5.306-7.618-7.978-11.417-.126-.197-.09-.45-.13-.672zm-4.681 3.975c.582-.564 1.061-1.277 1.805-1.641 2.587 3.104 5.19 6.193 7.782 9.294.756.93 1.574 1.815 2.263 2.8l.291.24c-.489-.173-.834-.586-1.254-.872-3.664-3.08-7.317-6.175-10.983-9.254-.192-.152-.072-.444.096-.567zm33.264-.78c.296-.328.542-.867 1.075-.703.523.558 1.094 1.073 1.583 1.663l.048.293c-3.633 3.093-7.302 6.143-10.933 9.24-.279.22-.567.476-.95.469 3.046-3.664 6.134-7.295 9.176-10.961zm-35.805 4.067c.159.012.32.028.48.043 3.77 2.736 7.635 5.346 11.42 8.065.505.351 1.016.695 1.47 1.113-3.391-1.515-6.733-3.139-10.1-4.705a305.406 305.406 0 01-4.064-1.909l-.362-.053a42.22 42.22 0 01-.008-.615c.384-.65.76-1.303 1.164-1.94zm39.483.715c.444-.275.814-.74 1.38-.738.355.623.773 1.21 1.09 1.855.117.224.066.485.075.729-.099.012-.297.036-.395.05-2.618 1.286-5.289 2.46-7.91 3.74-2.08.944-4.133 1.947-6.223 2.872 1.478-1.234 3.119-2.253 4.674-3.384 2.437-1.708 4.87-3.42 7.309-5.124zm-42.146 4.83c1.178.463 2.378.869 3.564 1.312l.397.144c2.714 1.001 5.441 1.959 8.15 2.974.427.145.854.286 1.27.466.334.12.668.244 1.003.369.25.085.506.162.76.244a6.365 6.365 0 01-2.037-.242c-2.761-.42-5.507-.944-8.258-1.43-1.874-.32-3.752-.625-5.611-1.033a57.4 57.4 0 01.12-.468 6.86 6.86 0 01.274-1.124c.112-.406.234-.811.368-1.212zm44.992.444a2.53 2.53 0 011.282-.194 23.7 23.7 0 01.666 2.56c-2.18.45-4.382.802-6.576 1.177l-.105.064c-2.4.36-4.775.88-7.178 1.215a6.335 6.335 0 01-2.043.243c.254-.082.51-.156.765-.241a76.4 76.4 0 011.004-.374c.413-.176.84-.317 1.265-.465 3.635-1.344 7.286-2.64 10.92-3.985zM8.6 23.007c.965-.084 1.912.12 2.871.16 4.44.414 8.887.734 13.324 1.19-1.185.283-2.413.264-3.615.427-3.15.243-6.293.549-9.443.806-.547.14-1.117.064-1.67.157a8.47 8.47 0 01-1.464.068C8.6 24.88 8.6 23.942 8.6 23.007zm45.186.237c1.182-.116 2.369-.29 3.563-.238 0 .924 0 1.849-.004 2.773-.377-.19-.321.744-.372.02-1.773-.022-3.529-.334-5.3-.404-2.162-.221-4.327-.382-6.491-.584-1.353-.197-2.743-.121-4.075-.457 4.224-.405 8.45-.773 12.679-1.11zm-31.5 3.71c.854-.123 1.705-.405 2.577-.263-.204.058-.407.113-.61.168-.604.257-1.235.447-1.84.705a927.981 927.981 0 00-9.083 3.309c-1.168.375-2.293.884-3.476 1.213-.071-.229-.143-.457-.21-.687l-.141-.546c-.15-.495-.258-1-.387-1.5.703-.269 1.465-.281 2.192-.455 3.662-.636 7.319-1.296 10.979-1.945zm18.806-.263c.777-.13 1.54.086 2.303.209 4.432.785 8.855 1.62 13.297 2.333.113.936-.396 1.77-.482 2.683-.298 0-.596-.008-.892-.035-.743-.365-1.56-.55-2.308-.904-3.513-1.206-6.982-2.543-10.481-3.79a14.758 14.758 0 01-.83-.33c-.204-.056-.408-.108-.607-.166zm-15.708 1.976c.15-.013.298-.024.449-.035-.936.553-1.769 1.262-2.669 1.87a48.077 48.077 0 01-.783-.034l-.062-.38c.571-.236 1.11-.537 1.682-.772.465-.205.93-.415 1.383-.649zm14.73-.033l.455.03c1.01.497 2.041.944 3.056 1.429l-.049.38c-.265.01-.531.019-.796.023-.897-.61-1.733-1.31-2.667-1.861zm8.783 3.938c1.97.901 3.924 1.837 5.886 2.756-.464.846-.965 1.67-1.434 2.512-.647-.394-1.298-.803-1.868-1.3-.852-1.225-1.672-2.473-2.518-3.701l-.066-.267zm-32.368.25c.143-.048.288-.095.433-.14a3.6 3.6 0 01-.463.906c-.603.87-1.178 1.76-1.767 2.64-.315.506-.869.761-1.332 1.106-.253.187-.525.348-.84.407-.367-.615-.742-1.225-1.085-1.854-.129-.206-.092-.457-.104-.686.656-.238 1.273-.568 1.901-.869 1.099-.476 2.16-1.033 3.257-1.51z" fill="#F5AB1A"/><path d="M30.572 26.188c.82-1.119 1.555-2.3 2.4-3.398.286.295.495.649.727.986 2.416 3.466 4.854 6.918 7.264 10.389.189-.087.38-.17.57-.257 1.358-.569 2.664-1.276 4.05-1.764 1.63 2.367 3.198 4.78 4.807 7.164.393.543.701 1.155 1.147 1.656 1-.251 1.956-.659 2.939-.968.454-.128.898-.397 1.38-.368 3.4 4.643 6.737 9.338 10.144 13.977-3.909-1.106-7.784-2.338-11.687-3.468 1.67-.467 3.39-.73 5.06-1.196-1.576-1.946-3.096-3.944-4.612-5.938-.884.196-1.74.508-2.608.76-.038.913-.107 1.824-.128 2.737-.021.221.008.473-.14.658-.09-.197-.175-.396-.286-.58-1.731-2.69-3.47-5.374-5.212-8.058-.632-.942-1.197-1.931-1.87-2.845-.898.33-1.774.72-2.668 1.064.108 1.568.339 3.125.487 4.69-.027.17.118.227.07.43-1.303-2.03-2.655-4.03-3.976-6.05-1.831-2.729-3.587-5.512-5.456-8.215-.598 2.36-1.232 4.713-1.797 7.081l-.055.089c-.416 1.7-.863 3.392-1.298 5.087 1.298-.894 2.48-1.95 3.738-2.9.03.002.094.005.126.005 1.624 3.401 3.254 6.802 4.864 10.21 2.039-.301 4.068-.668 6.102-.996-1.295 1.348-2.656 2.63-3.973 3.957-2.59 2.519-5.127 5.093-7.707 7.623-4.41-4.395-8.83-8.78-13.268-13.146a21.784 21.784 0 00-.143-.247c.038.418.256.784.409 1.167.723 1.693 1.431 3.394 2.155 5.088.141.19-.061.347-.174.478-1.129 1.17-2.24 2.357-3.387 3.51-.33.32-.615.702-1.015.943-3.382-2.942-6.796-5.85-10.214-8.75.103 1.148.108 2.302.236 3.448-2.255 1.045-4.547 2.013-6.812 3.04-.244.117-.5.204-.761.266 3.372-4.646 6.75-9.287 10.09-13.957.854.161 1.654.522 2.48.78-.204 1.48-.55 2.937-.75 4.417 2.86-4.205 5.674-8.448 8.544-12.643.976.297 1.87.82 2.815 1.204-.46 1.598-.907 3.2-1.378 4.794a6.026 6.026 0 00-.187.895c1.247-1.923 2.617-3.764 3.913-5.654a5101.26 5101.26 0 005.045-7.195z" fill="#fff"/></g><defs><clipPath id="clip0_909_3"><path fill="#fff" d="M0 0h66v57.75H0z"/></clipPath></defs></svg>