<svg width="73" height="57" fill="none" xmlns="http://www.w3.org/2000/svg"><path d="M62 20h-2l-4-8c-1.192-2.785-2.492-5.302-5-7-2.508-1.698-5.973-2.929-9-3-.21-.373-.63-.783-1-1-.37-.216-.572.002-1 0h-7c-.428.002-.63-.216-1 0-.37.217-.79.627-1 1-3.027.071-6.492 1.302-9 3s-3.808 4.215-5 7l-4 8h-2c-2.903.003-5.947 1.946-8 4-2.053 2.054-2.997 4.095-3 7v21c0 1.292.087 3.087 1 4 .913.913 2.71 1 4 1h63c1.29 0 3.087-.087 4-1 .913-.913 1-2.708 1-4V31c-.003-2.905-.947-4.946-3-7-2.053-2.054-5.097-3.997-8-4zM43 5c2.492.132 4.953.57 7 2 2.047 1.43 3.017 3.705 4 6l3 7h-2l-3-6c-.797-1.855-2.35-3.837-4-5-1.65-1.163-2.986-1.873-5-2V5zM33 3h7v4h-7V3zm-2 7h11c1.667 0 3.608.082 5 1s2.343 2.467 3 4l2 5H21l2-5c.657-1.533 1.608-3.082 3-4 1.392-.918 3.333-1 5-1zm-12 3c.983-2.295 1.953-4.57 4-6 2.047-1.43 4.508-1.868 7-2v2c-2.014.127-3.35.837-5 2s-3.203 3.145-4 5l-3 6h-2l3-7zm52 39c0 .646-.544 1.544-1 2-.456.457-1.355 1-2 1H5c-.645 0-1.544-.543-2-1-.456-.456-1-1.354-1-2v-1h69v1zm0-4H2V31c.003-2.26 1.403-4.402 3-6 1.597-1.597 3.742-1.997 6-2h51c2.258.003 4.403.403 6 2 1.597 1.598 2.997 3.74 3 6v17z" fill="#fff"/><path d="M46 29H28c-.648 0-.542.531-1 1-.458.469-1 1.337-1 2v7c0 1.326.083 3.062 1 4 .917.938 2.703 1 4 1h12c1.297 0 3.083-.062 4-1 .917-.938 1-2.674 1-4v-7c0-.663-.542-1.531-1-2-.458-.469-.352-1-1-1zm0 10c0 .663-.542 1.531-1 2-.458.469-1.352 1-2 1H31c-.648 0-1.542-.531-2-1-.458-.469-1-1.337-1-2v-7h18v7z" fill="#fff"/></svg>