<svg width="100" height="50" fill="none" xmlns="http://www.w3.org/2000/svg"><path d="M96.97 0H3.03C1.36 0 0 1.382 0 3.08v28.642c0 1.698 1.36 3.08 3.03 3.08h11.081l.022 9.785a1.49 1.49 0 00.922 1.38 1.442 1.442 0 001.603-.356L20.982 41l3.658 8.13c.246.547.777.87 1.333.87.204 0 .411-.044.608-.135a1.499 1.499 0 00.723-1.973l-3.657-8.13 6.26-.308a1.468 1.468 0 001.314-1 1.505 1.505 0 00-.424-1.61l-2.312-2.042H96.97c1.672 0 3.031-1.382 3.031-3.08V3.08C100 1.382 98.64 0 96.97 0zM21.343 36.894c-.376.019-.73.183-.99.46l-3.3 3.519-.026-12.244 9.094 8.03-4.778.235zm75.726-5.172a.102.102 0 01-.1.102H68.686V11.037c0-.822-.656-1.489-1.465-1.489s-1.465.667-1.465 1.489v20.788H25.113l-8.597-7.592a1.446 1.446 0 00-1.57-.23 1.49 1.49 0 00-.855 1.357l.014 6.465H3.03a.102.102 0 01-.1-.103V3.08c0-.056.045-.102.1-.102h62.727v1.694c0 .822.656 1.488 1.465 1.488.81 0 1.465-.666 1.465-1.488V2.978h28.282c.056 0 .101.046.101.102v28.642z" fill="#fff"/><path d="M91.743 24.305l-4.031-4.097a7.898 7.898 0 001.328-4.398c0-4.33-3.466-7.853-7.727-7.853-4.26 0-7.727 3.523-7.727 7.853s3.466 7.853 7.727 7.853a7.596 7.596 0 004.327-1.35l4.031 4.097a1.448 1.448 0 002.072 0 1.506 1.506 0 000-2.105zm-10.43-3.619c-2.645 0-4.798-2.187-4.798-4.876 0-2.688 2.153-4.876 4.798-4.876s4.798 2.188 4.798 4.876c0 2.689-2.152 4.876-4.798 4.876zM7.727 6.365c-.809 0-1.464.666-1.464 1.489v19.094c0 .822.655 1.489 1.464 1.489.81 0 1.465-.667 1.465-1.49V7.855c0-.822-.655-1.49-1.465-1.49z" fill="#fff"/></svg>