<svg width="63" height="22" fill="none" xmlns="http://www.w3.org/2000/svg"><g clip-path="url(#clip0_409_147)"><path d="M49.065 19.823a49.994 49.994 0 01-4.786 1.334 35.61 35.61 0 01-5.005.725 43.809 43.809 0 01-10.492-.49c-1.72-.29-3.419-.69-5.086-1.197a42.267 42.267 0 01-4.615-1.795 50.293 50.293 0 01-4.615-2.295 39.371 39.371 0 01-4.004-2.707 73.849 73.849 0 01-5.887-4.904A15.985 15.985 0 01.16 2.776L0 2.296a1.924 1.924 0 01.06-.982C.236.834.595.441 1.061.216c.466-.22 1-.256 1.492-.098a1.84 1.84 0 011.121.981c.239.603.534 1.184.881 1.736.691.883 1.455 1.71 2.283 2.471A71.63 71.63 0 009.41 7.631a72.285 72.285 0 004.495 3.452 34.758 34.758 0 004.956 2.943 58.47 58.47 0 004.445 1.883 33.864 33.864 0 004.895 1.383c3.207.61 6.478.84 9.741.687a34.832 34.832 0 004.725-.638 46.087 46.087 0 004.566-1.236 69.442 69.442 0 006.487-2.57l1.842-.863a25.294 25.294 0 01-1.722-.323 5.988 5.988 0 01-2.073-.981 1.2 1.2 0 01-.473-.603 1.174 1.174 0 01-.007-.76 1.171 1.171 0 01.61-.687c.288-.137.619-.158.922-.059.52.137 1 .245 1.561.353a49.07 49.07 0 005.507.697l.09-.05a2.107 2.107 0 011.841.003 2.027 2.027 0 011.04 1.173 1.991 1.991 0 01.002 1.286 1.55 1.55 0 01-.29.824 89.894 89.894 0 00-2.223 3.266c-.58.893-1.151 1.795-1.642 2.737a3.388 3.388 0 01-.89 1.344c-.307.26-.697.405-1.102.412a1.587 1.587 0 01-.52-.089 1.676 1.676 0 01-.833-.638 1.623 1.623 0 01-.279-1 3.33 3.33 0 01.55-1.54c.171-.284.331-.578.491-.872v-.06l-.22.099a74.806 74.806 0 01-6.898 2.628" fill="#515151" fill-opacity=".5"/></g><defs><clipPath id="clip0_409_147"><path fill="#fff" transform="matrix(1 0 0 -1 0 22)" d="M0 0h63v22H0z"/></clipPath></defs></svg>