<svg width="70" height="50" fill="none" xmlns="http://www.w3.org/2000/svg"><path d="M21.618 25c4.264 0 7.206-2.858 7.206-7 0-4.142-2.942-8-7.206-8s-8.236 3.858-8.236 8c.006 4.14 3.974 6.995 8.236 7zm0-12c2.614 0 4.117 2.46 4.117 5s-1.503 4-4.117 4c-2.615 0-5.147-1.46-5.147-4s2.532-5 5.147-5zm-1.03 14c-3.017-.022-6.132.862-8.235 3-2.14 2.157-3.088 5.813-3.088 9 .002.778.243.998 1.03 1h20.587c.787-.002 1.027-.222 1.03-1 0-3.187-.95-6.843-3.088-9-2.103-2.138-5.219-3.022-8.236-3zm-8.235 10c.244-1.844.748-3.667 2.059-5 1.578-1.579 3.931-2 6.176-2s4.599.421 6.177 2c1.308 1.334 1.812 3.157 2.058 5h-16.47z" fill="#fff"/><path d="M62.794 0H7.206C3.18.002.002 3.1 0 7v36c.002 3.9 3.18 6.998 7.206 7h55.588c4.026-.002 7.204-3.1 7.206-7V7c-.002-3.9-3.18-6.998-7.206-7zm4.118 43c-.007 2.337-1.705 3.993-4.118 4H7.206c-2.413-.007-4.11-1.663-4.118-4V7c.007-2.337 1.705-3.993 4.118-4h55.588c2.413.007 4.11 1.663 4.118 4v36z" fill="#fff"/><path d="M59.706 24h-17.5c-.791 0-1.03 1.171-1.03 2s.239 1 1.03 1h17.5c.791 0 1.03-.171 1.03-1s-.239-2-1.03-2zm0 9h-17.5c-.791 0-1.03 1.171-1.03 2s.239 1 1.03 1h17.5c.791 0 1.03-.171 1.03-1s-.239-2-1.03-2zm0-18h-17.5c-.791 0-1.03 1.171-1.03 2s.239 1 1.03 1h17.5c.791 0 1.03-.171 1.03-1s-.239-2-1.03-2z" fill="#fff"/></svg>