<svg width="35" height="35" fill="none" xmlns="http://www.w3.org/2000/svg"><g clip-path="url(#clip0_2086_141)" fill="#68E1FC"><path d="M-16.617 14.496a2.5 2.5 0 010-3.536L10.96-16.617a2.5 2.5 0 013.535 3.536L-13.08 14.496a2.5 2.5 0 01-3.536 0zm16.263 2.121a2.5 2.5 0 010-3.535L20.152-7.425a2.5 2.5 0 113.536 3.536L3.182 16.617a2.5 2.5 0 01-3.536 0zM1.768 32.88a2.5 2.5 0 010-3.535L29.345 1.768a2.5 2.5 0 013.536 3.536L5.302 32.88a2.5 2.5 0 01-3.535 0z"/></g><g clip-path="url(#clip1_2086_141)" fill="#68E1FC"><path d="M1.768 1.768a2.5 2.5 0 013.535 0l27.578 27.577a2.5 2.5 0 01-3.536 3.536L1.768 5.302a2.5 2.5 0 010-3.535zM-.353 18.031a2.5 2.5 0 013.535 0l20.506 20.506a2.5 2.5 0 11-3.535 3.536L-.353 21.567a2.5 2.5 0 010-3.536zm-16.264 2.121a2.5 2.5 0 013.536 0L14.496 47.73a2.5 2.5 0 11-3.535 3.535l-27.578-27.577a2.5 2.5 0 010-3.535z"/></g><defs><clipPath id="clip0_2086_141"><path fill="#fff" transform="rotate(-45 37.556 15.556)" d="M0 0h44v5H0z"/></clipPath><clipPath id="clip1_2086_141"><path fill="#fff" transform="rotate(45 1.768 4.268)" d="M0 0h44v5H0z"/></clipPath></defs></svg>