<svg width="220" height="53" fill="none" xmlns="http://www.w3.org/2000/svg"><path d="M11.917 42.301c-1.748 2.017-4.809 2.218-6.438.101A26.424 26.424 0 01.51 31.434C-.603 25.828.113 19.98 2.577 14.84A26.098 26.098 0 0114.123 2.883 25.51 25.51 0 0125.67 0c2.643-.02 4.372 2.54 3.915 5.182-.457 2.641-2.98 4.315-5.604 4.637a16.294 16.294 0 00-5.524 1.694 16.485 16.485 0 00-7.274 7.54A16.805 16.805 0 009.87 29.519a16.509 16.509 0 002.127 5.444c1.41 2.299 1.67 5.343-.08 7.34z" fill="url(#paint0_linear_2084_9997)"/><path d="M20.025 5.686c-.735-2.56.736-5.303 3.359-5.565a25.82 25.82 0 017.572.383 25.665 25.665 0 0111.128 5.263 26.434 26.434 0 017.492 9.88 26.752 26.752 0 012.167 12.258 26.495 26.495 0 01-3.657 11.896 26.307 26.307 0 01-8.645 8.852 25.72 25.72 0 01-11.685 3.81 25.827 25.827 0 01-7.572-.584c-2.563-.585-3.696-3.488-2.643-5.948 1.054-2.46 3.875-3.509 6.499-3.206 1.013.12 2.027.14 3.04.06a16.051 16.051 0 007.373-2.4 16.517 16.517 0 005.445-5.584 16.623 16.623 0 002.306-7.5 16.741 16.741 0 00-1.372-7.743 16.647 16.647 0 00-4.73-6.23A16.416 16.416 0 0029.089 10a16.887 16.887 0 00-3.021-.323c-2.643-.02-5.306-1.411-6.042-3.992z" fill="url(#paint1_linear_2084_9997)"/><g opacity=".2"><path d="M14.143 39.62c-1.47 1.674-4.034 1.855-5.386.081a22.33 22.33 0 01-4.471-11.654A22.28 22.28 0 019.016 12.4c3.497-4.396 8.525-7.28 14.03-8.005a21.212 21.212 0 0112.162 1.976c1.987.968 2.365 3.549 1.073 5.343-1.311 1.815-3.815 2.137-5.902 1.391a13.601 13.601 0 00-6.3-.665 13.536 13.536 0 00-8.843 5.06 13.997 13.997 0 00-2.981 9.86 14.19 14.19 0 001.987 6.15c1.153 1.895 1.371 4.436-.1 6.11z" fill="url(#paint2_linear_2084_9997)"/><path d="M9.194 20.143c-2.086-.767-3.2-3.105-2.066-5.061a21.789 21.789 0 018.386-8.227A21.51 21.51 0 0130.856 4.78c5.187 1.25 9.738 4.395 12.798 8.83a22.218 22.218 0 013.756 15.224c-.636 5.363-3.2 10.323-7.194 13.892a21.633 21.633 0 01-14.487 5.504 21.56 21.56 0 01-14.448-5.686 21.92 21.92 0 01-6.22-10.02c-.636-2.158.993-4.174 3.2-4.416 2.205-.242 4.113 1.431 4.988 3.488a13.736 13.736 0 003.437 4.9 13.495 13.495 0 009.102 3.589 13.55 13.55 0 009.142-3.469c2.524-2.258 4.133-5.383 4.55-8.77.398-3.388-.436-6.815-2.364-9.598a13.708 13.708 0 00-8.069-5.565 13.487 13.487 0 00-9.678 1.31 13.65 13.65 0 00-4.51 3.953c-1.332 1.794-3.578 2.964-5.665 2.198z" fill="url(#paint3_linear_2084_9997)"/></g><path d="M213.112 11.194H220V41.33h-6.888V11.194zM203.008 41.33l-1.507-4.736h-11.194l-1.506 4.736h-7.535l10.247-30.136h8.782l10.247 30.136h-7.534zm-10.634-11.193h7.06l-3.53-11.065-3.53 11.065zM181.255 41.33h-7.405l-4.004-5.683-4.004 5.683h-7.405l7.706-10.935-7.448-10.591h7.405l3.746 5.338 3.745-5.338h7.405l-7.448 10.59 7.707 10.936zm-38.352-8.18c.747 2.01 2.469 3.014 5.167 3.014 1.75 0 3.128-.545 4.133-1.636l5.166 2.97c-2.124 2.957-5.252 4.435-9.385 4.435-3.617 0-6.516-1.076-8.697-3.229-2.153-2.153-3.229-4.865-3.229-8.137 0-3.243 1.062-5.941 3.186-8.094 2.153-2.181 4.908-3.272 8.266-3.272 3.128 0 5.726 1.09 7.792 3.272 2.096 2.153 3.143 4.85 3.143 8.094 0 .919-.086 1.78-.258 2.583h-15.284zm-.129-4.822h9.256c-.631-2.267-2.152-3.4-4.563-3.4-2.497 0-4.061 1.133-4.693 3.4zm-18.234-9.127c2.468 0 4.449.818 5.941 2.454 1.493 1.608 2.239 3.76 2.239 6.458V41.33h-6.458V28.673c0-1.09-.273-1.952-.818-2.583-.517-.632-1.277-.948-2.282-.948-1.062 0-1.894.36-2.497 1.077-.574.717-.861 1.708-.861 2.97V41.33h-6.458V28.673c0-1.09-.272-1.952-.818-2.583-.516-.632-1.277-.948-2.282-.948-1.061 0-1.894.36-2.497 1.077-.574.717-.861 1.708-.861 2.97V41.33h-6.457V19.804h6.457v1.98c1.177-1.722 3.1-2.583 5.769-2.583 2.497 0 4.377.947 5.64 2.842 1.321-1.895 3.401-2.842 6.243-2.842zM92.204 37.412c-3.042 3.014-6.745 4.52-11.108 4.52-4.362 0-8.065-1.506-11.107-4.52-3.043-3.013-4.564-6.73-4.564-11.15s1.522-8.137 4.564-11.15c3.042-3.014 6.745-4.521 11.107-4.521 4.363 0 8.066 1.507 11.108 4.52 3.042 3.014 4.563 6.73 4.563 11.15s-1.52 8.138-4.563 11.151zM74.81 32.72c1.693 1.664 3.788 2.497 6.285 2.497 2.497 0 4.578-.833 6.243-2.497 1.693-1.665 2.54-3.818 2.54-6.458s-.847-4.793-2.54-6.458c-1.665-1.665-3.746-2.497-6.243-2.497-2.497 0-4.592.832-6.285 2.497-1.665 1.665-2.497 3.817-2.497 6.458 0 2.64.832 4.793 2.497 6.458z" fill="#E1E7EB"/><defs><linearGradient id="paint0_linear_2084_9997" x1="14.838" y1=".001" x2="14.838" y2="52.517" gradientUnits="userSpaceOnUse"><stop stop-color="#68E1FC"/><stop offset="1" stop-color="#DBFFFF" stop-opacity=".5"/></linearGradient><linearGradient id="paint1_linear_2084_9997" x1="26.098" y1="53.48" x2="39.856" y2="2.87" gradientUnits="userSpaceOnUse"><stop stop-color="#68E1FC"/><stop offset="1" stop-color="#DBFFFF" stop-opacity=".5"/></linearGradient><linearGradient id="paint2_linear_2084_9997" x1="20.624" y1="4.21" x2="20.624" y2="48.218" gradientUnits="userSpaceOnUse"><stop stop-color="#DBFFFF"/><stop offset="1" stop-color="#68E1FC"/></linearGradient><linearGradient id="paint3_linear_2084_9997" x1="20.55" y1="47.567" x2="32.09" y2="5.116" gradientUnits="userSpaceOnUse"><stop stop-color="#DBFFFF"/><stop offset="1" stop-color="#68E1FC"/></linearGradient></defs></svg>