<svg width="345" height="376" fill="none" xmlns="http://www.w3.org/2000/svg"><path d="M0 .515v375.189h297.295l1.602-3.147L345 261.876V.516H0zM343.398 47.19l-3.472-6.818v16.782l3.472 6.817v3.147l-3.472-6.818v16.782l3.472 6.817v176.929l-46.904 112.255H174.903l-3.471-6.818h-8.545l3.471 6.818h-1.602l-3.471-6.818h-8.545l3.471 6.818h-1.869l-3.471-6.818h-8.545l3.471 6.818h-1.602l-3.471-6.818h-8.545l3.471 6.818H42.457l-3.47-6.818H30.44l3.472 6.818h-1.87l-3.471-6.818h-8.545l3.471 6.818H21.63L1.87 334.274v-4.195l3.472 6.817v-16.781l-3.472-6.818v-3.146l3.205 6.293v-16.781l-3.472-6.818V40.895l18.96-37.233h149.535l3.471 6.817h8.545l-3.204-6.817h1.602l3.471 6.817h8.545l-3.471-6.817h1.869l3.471 6.817h8.545l-3.471-6.817h1.602l3.471 6.817h8.545l-3.471-6.817h93.193l3.471 6.817h8.545l-3.472-6.817h1.603l3.471 6.817h8.545l-3.471-6.817h2.937l18.959 37.234v6.293z" fill="#657078"/></svg>