<svg width="704" height="387" fill="none" xmlns="http://www.w3.org/2000/svg"><path d="M0 0v387h545.437l3.269-3.246L704 229.589V0H0zm700.731 48.143l-7.084-7.032v17.31l7.084 7.032v3.245l-7.084-7.032v17.31l7.084 7.032v142.499L543.802 384.295H356.904l-7.084-7.032h-17.436l7.083 7.032h-3.269l-7.083-7.032h-17.437l7.084 7.032h-3.815l-7.083-7.032h-17.437l7.084 7.032h-3.269l-7.084-7.032h-17.437l7.084 7.032H86.638l-7.084-7.032H62.118l7.083 7.032h-3.814l-7.084-7.032H40.867l7.084 7.032h-3.815L3.814 344.266v-4.327l7.084 7.032v-17.31l-7.084-7.032v-3.245l6.539 6.491v-17.31l-7.084-7.032V41.652L41.957 3.246h305.139l7.084 7.032h17.436l-6.539-7.032h3.27l7.083 7.032h17.437l-7.084-7.032h3.815l7.083 7.032h17.437l-7.084-7.032h3.269l7.084 7.032h17.437l-7.084-7.032h190.167l7.084 7.032h17.436l-7.083-7.032h3.269l7.084 7.032h17.436l-7.083-7.032h5.993l38.688 38.406v6.49z" fill="#657078"/></svg>