<svg width="298" height="24" fill="none" xmlns="http://www.w3.org/2000/svg"><g opacity=".83"><path d="M297.627 11.928c.017 1.12-66.574 2.259-148.803 2.505-82.23.246-148.793-.542-148.81-1.661-.017-1.12 66.574-2.259 148.804-2.505 82.187-.199 148.792.542 148.809 1.661z" fill="url(#paint0_radial_2084_9967)"/><path d="M68.007 11.865C68.046 5.277 102.382.034 144.762.106 187.141.18 221.44 5.6 221.401 12.188c-.039 6.588-34.375 11.832-76.755 11.759-42.379-.073-76.678-5.494-76.64-12.082z" fill="url(#paint1_radial_2084_9967)"/></g><defs><radialGradient id="paint0_radial_2084_9967" cx="0" cy="0" r="1" gradientUnits="userSpaceOnUse" gradientTransform="matrix(148.88442 -.41394 .00576 2.07268 148.823 12.352)"><stop stop-color="#fff"/><stop offset=".136" stop-color="#55E9FF" stop-opacity=".7"/><stop offset=".428" stop-color="#3796A5" stop-opacity=".5"/><stop offset=".824" stop-color="#102B2F" stop-opacity=".3"/><stop offset="1" stop-opacity="0"/></radialGradient><radialGradient id="paint1_radial_2084_9967" cx="0" cy="0" r="1" gradientUnits="userSpaceOnUse" gradientTransform="matrix(-76.68825 -.15258 .02374 -11.93308 144.698 12.024)"><stop stop-color="#fff"/><stop offset=".136" stop-color="#55E9FF" stop-opacity=".7"/><stop offset=".428" stop-color="#3796A5" stop-opacity=".5"/><stop offset=".824" stop-color="#102B2F" stop-opacity=".3"/><stop offset="1" stop-opacity="0"/></radialGradient></defs></svg>