<svg width="64" height="64" fill="none" xmlns="http://www.w3.org/2000/svg"><g clip-path="url(#clip0_2357_3278)" fill="#E9E9E9"><path d="M0 60.752c1.644-4.059 3.277-8.122 4.939-12.175.524-1.28 1.515-1.948 2.918-1.956a214.45 214.45 0 013.44.002c.717.008 1.102.374 1.097.996-.005.61-.412.994-1.104 1.003-1.085.011-2.17.023-3.254-.004-.65-.015-1.048.235-1.295.843-1.488 3.655-2.998 7.302-4.493 10.956-.39.951.015 1.56 1.034 1.587.145.004.292.002.437.002h56.622c.145 0 .292.003.437 0 1.028-.025 1.442-.625 1.058-1.576-.714-1.773-1.444-3.538-2.171-5.306-.774-1.883-1.565-3.759-2.321-5.648-.244-.608-.63-.873-1.283-.858-1.085.025-2.17.014-3.254.005-.727-.006-1.156-.396-1.153-1.023.003-.61.402-.97 1.118-.976 1.146-.01 2.294-.008 3.44 0 1.46.01 2.428.731 2.976 2.06 1.248 3.036 2.5 6.072 3.747 9.107.26.635.523 1.268.778 1.904.738 1.845.025 3.47-1.824 4.179-.07.026-.13.085-.193.128H2.378C1.14 63.529.33 62.669 0 61.376v-.624z"/><path d="M17.084 57.848h5.897v-.731c0-3.436-.002-6.871 0-10.306.002-2.336 1.206-3.547 3.53-3.547h11.073c2.283 0 3.496 1.218 3.496 3.513.002 3.436 0 6.87 0 10.306v.765h5.925v-.828c0-7.142 0-14.284.002-21.425 0-.25-.003-.501.023-.748.059-.563.416-.876.946-.904.543-.029.9.293 1.023.824.047.2.035.414.035.622.002 7.683.002 15.365.002 23.049 0 1.124-.315 1.436-1.45 1.436H16.494c-1.135 0-1.45-.31-1.45-1.436 0-14.305-.002-28.609 0-42.913 0-2.07 1.246-3.408 3.305-3.42 5.151-.03 10.302-.013 15.453-.007.776.002 1.235.407 1.226 1.027-.01.616-.484 1.006-1.253 1.006-5.026.003-10.051.002-15.077.002-1.343 0-1.61.265-1.61 1.6v41.352c-.004.243-.004.488-.004.763zm7.926-.014h5.977V45.257c-1.593 0-3.137-.011-4.679.005-.907.01-1.296.44-1.296 1.368-.002 3.247 0 6.496 0 9.743-.002.476-.002.953-.002 1.462zm14.05.015v-.58c0-3.561.001-7.121-.002-10.681 0-.917-.394-1.32-1.333-1.328-1.419-.014-2.837-.005-4.254-.002-.136 0-.273.033-.405.05v12.54c1.982.002 3.934.002 5.994.002zm19.798-47.011a10.693 10.693 0 01-1.515 5.524c-2.754 4.655-5.51 9.31-8.266 13.964-.684 1.154-1.455 1.151-2.142-.008-2.765-4.672-5.547-9.335-8.281-14.023C34.666 9.458 39.104.837 46.99.054c6.315-.628 11.897 4.444 11.868 10.784zM48.013 28.166c.14-.227.248-.398.352-.573 2.4-4.06 4.802-8.122 7.205-12.182 1.113-1.88 1.485-3.892 1.143-6.05-.77-4.85-5.684-8.204-10.48-7.14-6.04 1.337-8.89 7.892-5.752 13.225.8 1.361 1.61 2.72 2.414 4.079a8321.71 8321.71 0 015.118 8.64z"/><path d="M25.439 17.766c1.04 0 2.082-.007 3.121.002.766.006 1.137.33 1.145 1.083.022 1.954.02 3.906.002 5.86-.009.775-.384 1.128-1.182 1.133-2.06.014-4.121.015-6.182 0-.814-.006-1.18-.391-1.181-1.2a731.152 731.152 0 010-5.735c.003-.78.367-1.133 1.153-1.14 1.043-.011 2.082-.003 3.123-.003zm-2.23 2.03v3.968h4.439v-3.967h-4.439zm15.41 10.058c1.041 0 2.082-.011 3.122.004.824.011 1.171.37 1.175 1.19.006 1.89.006 3.783 0 5.674-.004.822-.347 1.19-1.17 1.194a464.44 464.44 0 01-6.246-.002c-.782-.005-1.143-.364-1.15-1.157a312.452 312.452 0 010-5.736c.007-.818.371-1.153 1.207-1.163 1.021-.014 2.042-.004 3.062-.004zm2.266 2.056h-4.459v3.955h4.459V31.91zm-15.419-2.056c1.001 0 2.002-.006 3.004.002.889.008 1.234.325 1.241 1.188a359.02 359.02 0 010 5.684c-.007.841-.349 1.184-1.176 1.19-2.064.011-4.128.011-6.194 0-.831-.005-1.176-.364-1.18-1.188a803.765 803.765 0 010-5.685c.004-.824.347-1.176 1.178-1.188 1.042-.013 2.084-.003 3.127-.003zm2.168 6.051v-4h-4.429v3.958c.15.015.272.039.392.039 1.33.003 2.662.003 4.037.003zm8.755-12.096c.736 0 1.378-.009 2.02.002.758.011 1.244.421 1.24 1.026-.003.605-.482 1.001-1.254 1.01-.938.01-1.876.013-2.814-.002-.85-.014-1.228-.377-1.234-1.221a378.579 378.579 0 010-5.68c.005-.755.383-1.166 1.006-1.174.642-.009 1.026.425 1.03 1.21.013 1.58.006 3.158.006 4.829zm17.417-12.953c-.002 3.182-2.623 5.787-5.811 5.777-3.167-.01-5.742-2.58-5.772-5.759-.03-3.154 2.615-5.812 5.787-5.82 3.17-.01 5.798 2.623 5.796 5.802zm-9.536-.002c.004 2.103 1.687 3.784 3.77 3.765 2.039-.018 3.742-1.714 3.762-3.745.02-2.057-1.692-3.772-3.774-3.775-2.116-.005-3.761 1.64-3.758 3.755z"/></g><defs><clipPath id="clip0_2357_3278"><path fill="#fff" d="M0 0h64v64H0z"/></clipPath></defs></svg>