<svg width="66" height="66" fill="none" xmlns="http://www.w3.org/2000/svg"><g clip-path="url(#clip0_2357_3300)" fill="#E9E9E9"><path d="M24.58 9.039c1.061.416 1.742 1.273 2.065 2.461.073.266.284.499.458.728.537.714 1.087 1.417 1.674 2.182.992-.67 1.984-1.612 2.866-2.684.931-1.13 2.16-1.305 3.113-.443.574.521.828 1.164.572 1.933-.699 2.097-1.916 3.883-3.399 5.486-1.893 2.048-3.95 3.945-6.45 5.2-3.312 1.66-5.407 4.377-7.085 7.537-2.967 5.58-5.349 11.414-7.383 17.383C9.233 54.044 7.69 59.345 6.05 64.614c-.24.773-.875 1.122-1.295.625-.213-.253-.284-.77-.196-1.111a136.73 136.73 0 011.642-5.877c2.545-8.331 5.479-16.518 9.205-24.403 1.28-2.708 2.679-5.347 4.577-7.69a10.505 10.505 0 013.11-2.623c2.903-1.602 5.519-3.59 7.877-5.915 1.195-1.18 2.271-2.45 2.857-4.062.066-.182.177-.394.134-.557-.06-.23-.207-.481-.392-.615-.09-.064-.423.066-.534.2-1.196 1.454-2.606 2.656-4.158 3.714-.33.224-.515.679-.728 1.05-.79 1.382-1.817 2.499-3.407 2.915-1.642.43-2.854-.335-3.266-1.989-1.302-.154-2.017-.8-2.21-1.994-.15-.912.897-2.764 1.778-3.031.257-.078.765.064.874.262.137.247.07.702-.071.983-.19.376-.591.643-.793 1.015-.131.243-.202.702-.064.863.142.167.59.176.864.103.294-.078.558-.313.808-.514a7.429 7.429 0 002.146-2.82c.283-.642.376-1.289.005-1.933-.438-.76-1.15-.846-1.77-.236-.322.318-.648.644-1.014.905-.413.295-.843.226-1.13-.205-.278-.415-.108-.76.235-1.082 2.22-2.09 3.367-4.727 3.82-7.694.067-.436.175-1.051-.399-1.253-.609-.215-.81.39-1.044.768-1.501 2.434-2.958 4.894-4.478 7.317a14.436 14.436 0 01-1.68 2.149c-1.576 1.681-4.06 1.339-5.2-.676-.298-.528-.567-1.075-.896-1.583-.732-1.12-1.774-1.685-3.126-1.625-.806.034-1.004.418-.555 1.096.898 1.351 1.883 2.652 2.696 4.052 1.077 1.859 1.905 3.832 2.296 5.974.43 2.357.081 4.59-1.075 6.666a3717.707 3717.707 0 01-9.87 17.567c-.138.245-.38.525-.625.589-.236.063-.615-.057-.8-.235-.355-.343-.164-.75.051-1.127 1.883-3.316 3.77-6.63 5.64-9.954 1.254-2.228 2.407-4.516 3.743-6.693 1.897-3.088 1.899-6.208.512-9.445-.92-2.14-2.003-4.18-3.496-5.984a5.284 5.284 0 01-.452-.636C5.755 9.13 5.47 8.366 6 7.552c.56-.86 1.397-1.296 2.382-1.168 2.004.26 3.68 1.1 4.601 3.049.175.372.368.738.588 1.085.626.987 1.916 1.166 2.639.256a58.588 58.588 0 003.064-4.277c.89-1.357 1.664-2.791 2.507-4.181.326-.535.683-1.055 1.059-1.555.472-.627 1.094-.884 1.885-.702.816.188 1.446.678 1.555 1.473.125.925.178 1.93-.056 2.816-.414 1.58-1.07 3.094-1.645 4.69zm2.677 6.232c-.056-.16-.123-.505-.291-.795-.306-.527-.633-.466-1.015.008a65.278 65.278 0 01-2.396 2.787c-.284.316-.622.597-.402 1.056.222.46.66.507 1.117.427 1.21-.207 2.925-2.107 2.987-3.483z"/><path d="M37.627 36.233c.806.045 1.392.132 1.373.908-.013.54-.39.733-1.37.692-2.272-.094-4.37.46-6.298 1.666-.71.444-1.132.467-1.43.04-.443-.633.036-.987.462-1.348-1.563-1.736-3.113-3.46-4.672-5.177a2.19 2.19 0 00-.602-.488c-.142-.073-.405-.084-.515.005-.112.09-.192.379-.13.499.25.476.517.957.858 1.368 1.067 1.284 2.2 2.512 3.251 3.81.883 1.09 1.491 2.328 1.703 3.742.22 1.48-.527 2.433-2.029 2.538-1.253.087-2.507.156-3.758.262-.384.033-.8.083-1.124.264-.27.151-.605.512-.598.771.012.459.471.553.891.534.93-.04 1.859-.119 2.788-.12 2.498-.004 4.579.962 6.282 2.78.929.993 1.402 2.096 1.352 3.517-.15 4.214-.526 8.392-1.491 12.505-.03.127-.064.252-.108.374-.16.451-.48.698-.948.556-.473-.146-.648-.497-.558-1.018.4-2.302.865-4.6 1.135-6.918.241-2.063.28-4.153.356-6.234.012-.353-.174-.766-.389-1.063-1.407-1.937-3.34-2.912-5.723-2.936-.97-.01-1.945.09-2.916.162-1.1.081-2.051-.445-2.367-1.334-.307-.87.026-1.932.964-2.469.673-.384 1.46-.64 2.228-.77 1.276-.217 2.578-.288 3.87-.418.62-.063.642-.483.546-.95-.26-1.286-.886-2.385-1.728-3.374-1-1.17-2.013-2.328-2.969-3.531-.385-.485-.659-1.067-.936-1.63-.328-.662-.27-1.313.248-1.869.517-.552 1.203-.82 1.885-.526.653.281 1.23.766 1.8 1.214.282.22.47.56.797.8-.17-.34-.354-.673-.505-1.02-.319-.732-.7-1.45-.91-2.212-.27-.987.068-1.723.825-2.194.793-.491 1.708-.436 2.485.169.525.408 1.037.835 1.555 1.254a22.9 22.9 0 00-.212.161c.167-.429.259-.91.514-1.277.645-.925 1.876-1.096 2.725-.284.593.564 1.037 1.315 1.436 2.042.317.579.465 1.251.721 1.98.089-.277.142-.463.206-.644.446-1.25 1.616-1.539 2.603-.62.756.704.993 1.67 1.158 2.63.522 3.075 1.047 6.15 1.479 9.238.158 1.13.057 2.295.071 3.443.028 2.32.016 4.64.088 6.957.125 3.99.314 7.979.453 11.969.031.908-.324 1.365-.888 1.315-.539-.049-.676-.46-.683-1.377a235.031 235.031 0 00-.166-6.638c-.139-3.815-.52-7.636-.387-11.44.114-3.272-.395-6.438-.778-9.636-.17-1.416-.451-2.822-.737-4.22-.087-.427-.132-1.084-.742-1.018-.186.021-.397.744-.418 1.154-.06 1.118-.023 2.244-.023 3.434zm-4.59.662c-1.104-2.354-1.943-4.78-3.472-6.859-.204-.277-.404-.587-.676-.781-.232-.167-.565-.191-.853-.278-.024.297-.097.6-.057.89.034.246.196.477.307.711 1.094 2.306 2.19 4.61 3.299 6.942.501-.219.952-.412 1.451-.625zm3.404-.667c-.868-2.264-1.706-4.456-2.553-6.647a1.273 1.273 0 00-.314-.486c-.165-.148-.46-.37-.566-.313-.183.1-.3.376-.376.601-.05.15-.01.348.04.51.662 2.181 1.333 4.36 2.006 6.552l1.763-.217z"/><path d="M35.878 17.615c.966.111 1.928.26 2.898.32.908.055 1.007-.084.972-1-.05-1.323-.588-2.496-1.28-3.57-1.901-2.945-3.065-6.197-4.074-9.522-.256-.848-.175-1.63.392-2.328 1.06-1.304 2.982-1 3.657.539a118.2 118.2 0 002.366 5.128c.373.752.924 1.412 1.373 2.126.37.585.862.657 1.455.419.201-.08.4-.162.598-.249 1.375-.606 2.688-.48 3.96.308.238.146.56.284.817.245 1.233-.19 2.188.237 2.847 1.254.324.5.605 1.075.724 1.653.548 2.64 1.762 5.014 2.866 7.435 1.4 3.066 3.208 5.894 4.98 8.747 2.039 3.278 3.86 6.674 5.341 10.247l.127.299c.213.5.114.93-.397 1.132-.47.188-.84-.022-1.047-.495-.33-.754-.647-1.513-.99-2.26-1.762-3.828-3.927-7.426-6.178-10.98-2.255-3.561-4-7.384-5.548-11.296-.308-.78-.433-1.63-.681-2.436a5.66 5.66 0 00-.518-1.183c-.264-.448-.684-.648-1.218-.537-.695.144-1.316-.003-1.9-.424-.8-.574-1.666-.667-2.575-.25a8.138 8.138 0 01-.662.264c-1.439.523-2.314.313-3.256-.913a14.352 14.352 0 01-1.411-2.253c-.857-1.701-1.647-3.435-2.462-5.156-.16-.335-.291-.763-.779-.544-.436.195-.513.57-.37 1.04.944 3.12 2.123 6.136 3.78 8.954.793 1.348 1.51 2.718 1.643 4.332.168 2.06-.89 3.12-2.955 2.875-.922-.11-1.843-.257-2.769-.306-.416-.022-.854.111-1.258.247-.53.177-.782.59-.751 1.16.031.553.404.819.874.907 1.529.287 3.062.563 4.6.797 5.28.806 9.341 3.336 11.791 8.227 2.114 4.22 3.584 8.677 4.91 13.187 2.035 6.926 3.568 13.966 4.733 21.089.1.613-.121 1.037-.586 1.132-.497.103-.848-.19-.978-.863-.683-3.528-1.272-7.077-2.054-10.583-1.593-7.146-3.483-14.213-6.361-20.97-.824-1.935-1.76-3.813-3.182-5.41-2.087-2.341-4.77-3.535-7.769-4.11-1.612-.309-3.247-.505-4.863-.806-1.85-.345-2.842-1.412-2.724-2.833.134-1.598 1.387-2.66 3.242-2.743.217-.01.434-.002.65-.002a.17.17 0 010-.041z"/></g><defs><clipPath id="clip0_2357_3300"><path fill="#fff" d="M0 0h66v66H0z"/></clipPath></defs></svg>