<svg width="66" height="65" fill="none" xmlns="http://www.w3.org/2000/svg"><g clip-path="url(#clip0_2357_3305)" fill="#E9E9E9"><path d="M.001 32.245c.342-.497.811-.663 1.422-.64 1.027.041 2.059.012 3.183.012-.138-.19-.224-.32-.322-.442C2.98 29.56 2.621 27.64 2.47 25.66c-.053-.696-.051-1.395-.05-2.094.004-.794.325-1.12 1.131-1.128 1.547-.013 3.094-.005 4.641-.005h.737v-1.645c-.766-.078-1.53-.06-2.237-.247-1.817-.477-3.275-1.515-3.878-3.306-.818-2.433-.069-3.132 2.25-3.377 1.416-.15 1.954.068 3.896 1.127-.043-.809.183-1.5-.567-2.209-2.241-2.12-2.009-5.884.368-7.85.775-.64 1.37-.666 2.21-.094 2.575 1.754 2.94 5.776.604 7.961-.743.694-.6 1.364-.628 2.231 1.265-.853 2.547-1.315 4-1.185.129.012.26.01.385.032 1.844.329 2.372 1.175 1.861 2.973-.675 2.373-3.11 4.06-5.61 3.885-.187-.014-.376-.019-.605-.03v1.734h1.672c1.118 0 2.235-.01 3.352.005.672.009 1.098.32 1.098.91.002 2.31-.08 4.617-1.208 6.73-.275.513-.64.98-.986 1.505H36.6v-3.394H23.98c-1.822-.002-2.835-.992-2.835-2.773-.001-4.782-.001-9.564.002-14.344 0-.876.627-1.34 1.372-1.031.472.196.56.577.56 1.036-.009 3.025-.003 6.051-.003 9.076v.748h26.26c.182-.846.339-1.733.567-2.601.772-2.934 2.14-5.522 4.622-7.423a7.92 7.92 0 011.361-.835c.844-.406 1.516-.003 1.547.926.033.972.009 1.947.01 2.92v7.022h2.904V2.945c0-.924-.128-1.044-1.087-1.044H24.201c-.973 0-1.124.147-1.124 1.092-.002.951.007 1.904-.003 2.855-.007.657-.361 1.008-.973 1.003-.608-.007-.945-.358-.95-1.026a156.48 156.48 0 01.001-3.364A2.481 2.481 0 0123.658.005c12.052-.007 24.104-.007 36.156 0 1.313 0 2.358.995 2.47 2.292.019.21.02.423.02.633.002 7.448.002 14.895-.003 22.343 0 .377-.012.77-.114 1.129-.295 1.051-1.27 1.76-2.392 1.779-.748.012-1.497.002-2.298.002v3.43h1.865c1.74 0 3.48.023 5.22-.011.61-.012 1.077.146 1.421.64V49c-.334.457-.729.779-1.347.566-.621-.216-.621-.73-.621-1.255.005-2.6.002-5.202.002-7.802v-.699h-6.552c0 1.3.051 2.548-.016 3.79-.065 1.219-.135 2.456-.407 3.641-.605 2.643-2.654 4.117-5.63 4.158-2.125.03-4.251.008-6.377.01h-.677v11.597h.797c3.671 0 7.343 0 11.012.002.236 0 .512-.048.695.055.273.154.636.397.678.649.055.32-.144.697-.292 1.024-.056.123-.276.174-.42.259H29.905c-.258-.257-.646-.472-.746-.779-.237-.731.26-1.207 1.179-1.208 3.759-.005 7.518-.002 11.275-.002h.754v-7.954h-3.233c-1.05 0-1.49-.293-1.483-.986.007-.687.444-.971 1.502-.971 1.066-.002 2.132 0 3.208 0V51.41h-12.08c-1.033 0-1.41-.363-1.36-1.375.15-2.983 1.558-5.175 4.294-6.492 1.73-.832 3.589-1.127 5.493-1.134 5.347-.017 10.696-.006 16.043-.008h.698v-2.609h-34.08v23.56c0 .232.015.469-.017.697-.076.554-.46.864-1.018.842-.56-.022-.89-.319-.921-.862-.036-.633-.02-1.268-.024-1.903-.004-.84 0-1.679 0-2.539H1.96v.73c-.002 1.205.013 2.412-.01 3.617-.014.718-.521 1.12-1.197.916-.289-.088-.507-.403-.758-.614C0 53.573 0 42.909 0 32.244zm2 5.556h51.887c-.848-1.195-1.755-2.41-2.584-3.677-.271-.415-.495-.618-1.026-.618-15.854.017-31.707.014-47.56.014H2v4.28zm.004 19.807h17.332v-7.919H2.005v7.919zm0-9.904h17.327V39.8H2.005v7.904zM55.58 44.31h-.888c-3.477 0-6.954-.003-10.433.002-1.91.002-3.82-.02-5.73.032-1.88.053-3.723.339-5.322 1.424-1.313.892-2.07 2.122-2.273 3.744h.515c6.461 0 12.922.003 19.383-.005.512 0 1.03-.05 1.536-.136 1.382-.238 2.379-.964 2.724-2.35.214-.854.317-1.732.489-2.71zM23.075 22.898v2.287c.002.961.14 1.1 1.107 1.1h24.995v-3.387H23.074zM55.415 36.3V12.655c-1.31 1.09-2.174 2.378-2.81 3.819-.988 2.238-1.388 4.596-1.455 7.023-.081 2.917.192 5.777 1.302 8.515.65 1.603 1.556 3.036 2.964 4.29zM4.37 24.398c.08 1.537.198 3.004.765 4.4.562 1.38 1.57 2.264 3.054 2.535a9.195 9.195 0 002.176.134c1.582-.095 2.926-.674 3.713-2.132.828-1.533 1.002-3.199 1.033-4.937H4.37zm53.122 9.156v4.235h6.505v-4.235h-6.505zm-12.707-1.969v-3.362h-6.102v3.362h6.102zm2.042-3.397v3.397h3.3c-.22-1.056-.423-2.085-.664-3.106-.029-.122-.257-.274-.398-.28-.724-.027-1.45-.011-2.238-.011zm10.651-1.905c.782 0 1.492.041 2.191-.022.232-.02.62-.293.631-.468.062-.959.03-1.922.03-2.888h-2.852v3.378zM9.985 11.648c1.587-1.342 1.571-4.053-.01-5.084-1.555 1.223-1.57 3.674.01 5.084zm1.01 6.957c1.804.836 4.463-1.041 4.332-2.671-1.84-.679-3.932.611-4.333 2.671zm-6.451-2.656c.284 1.783 2.104 3.101 3.917 2.84.278-.04.49-.094.424-.465-.307-1.735-2.633-3.013-4.341-2.375zm61.458 48.289c-.252.427-.575.721-1.13.652-.582-.073-.83-.381-.833-1.133-.006-2.34-.001-4.68-.003-7.021 0-.759.009-1.519-.003-2.277-.009-.547.006-1.078.627-1.322.626-.244.987.16 1.339.564.003 3.512.003 7.025.003 10.537z"/><path d="M10.764 54.593c-1.201 0-2.404.007-3.606-.003-.656-.005-1.053-.368-1.06-.933-.007-.572.39-.963 1.034-.965 2.383-.008 4.767-.008 7.149-.002.656.002 1.043.366 1.05.942.008.604-.378.953-1.09.958-1.158.01-2.318.003-3.477.003zm.025-11.8c1.137 0 2.275-.005 3.413.002.72.003 1.112.336 1.13.932.016.627-.375.97-1.14.972-2.319.005-4.637.005-6.956 0-.718-.002-1.122-.337-1.138-.92-.017-.607.41-.981 1.148-.985 1.181-.006 2.362-.001 3.543-.001z"/></g><defs><clipPath id="clip0_2357_3305"><path fill="#fff" d="M0 0h66v65H0z"/></clipPath></defs></svg>