<svg width="67" height="66" fill="none" xmlns="http://www.w3.org/2000/svg"><g clip-path="url(#clip0_2357_3288)" fill="#E9E9E9"><path d="M0 30.56l11.413-15.307c.81-1.087 1.496-1.09 2.298-.013 3.65 4.9 7.3 9.8 10.948 14.7.064.087.167.167.183.262.068.399.267.884.112 1.179-.156.295-.671.544-1.04.564-1.305.068-2.615.026-3.996.026v7.18h-2.115v-.59c0-2.429-.002-4.856 0-7.285.001-1.054.324-1.365 1.413-1.37.872-.003 1.743 0 2.786 0l-9.436-12.682-9.428 12.669h9.392v2.06H7.352v18.536H5.27V31.972H3.62c-.698 0-1.397-.032-2.094.01-.638.037-1.151-.124-1.526-.65v-.772zM33.9 0c.374.432.78.843 1.122 1.3 3.524 4.722 7.04 9.45 10.555 14.177.103.139.214.272.301.42.465.792.015 1.612-.923 1.629-1.346.024-2.694.006-4.116.006v4.097h-2.096v-1.98c0-.987-.006-1.975.002-2.963.007-.847.373-1.206 1.24-1.216.933-.01 1.867-.001 2.96-.001L33.508 2.787l-9.443 12.68h1.87c2.333 0 2.333 0 2.333 2.332v3.824h-2.063v-4.091c-1.415 0-2.761.037-4.101-.026-.352-.016-.852-.27-.986-.553-.148-.31.04-.781.104-1.178.015-.095.118-.177.183-.263l9.433-12.67c.503-.676.987-1.366 1.517-2.018.252-.31.59-.55.89-.822.218-.002.437-.002.654-.002zm13.214 65.997h-2.089v-.74c0-4.62.021-9.239-.015-13.859-.008-1.11-.43-2.043-1.623-2.51-1.657-.649-3.285-1.37-4.913-2.088-.376-.166-.618-.132-.906.164-.875.9-1.796 1.756-2.663 2.663a1.345 1.345 0 00-.337.832c-.031 1.716-.015 3.433-.015 5.195h-2.089c0-1.615-.03-3.22.015-4.824.018-.632-.164-1.084-.635-1.508a39.759 39.759 0 01-2.313-2.277c-.334-.355-.61-.422-1.065-.218a131.48 131.48 0 01-4.91 2.099c-1.11.443-1.533 1.341-1.544 2.36-.051 4.62-.023 9.239-.023 13.858v.82H19.93c-.01-.2-.03-.409-.03-.615-.001-4.792-.08-9.586.043-14.374.04-1.633.703-3.144 2.508-3.85 1.86-.726 3.663-1.592 5.521-2.32.617-.242.633-.73.85-1.175.27-.549.133-.884-.307-1.313-1.531-1.487-2.238-3.384-2.301-5.454-.09-2.963-.048-5.93-.01-8.894.005-.35.24-.803.52-1.027 1.781-1.422 3.833-2.12 6.138-2.205 2.71-.101 5.185.458 7.359 2.116.412.315.621.674.618 1.2-.016 2.857.04 5.717-.03 8.573-.053 2.286-.822 4.323-2.538 5.953-.15.143-.205.47-.177.697.118.924.627 1.456 1.56 1.798 1.812.664 3.557 1.505 5.344 2.24.556.229.9.592 1.207 1.098.73 1.204.954 2.468.934 3.865-.063 4.318-.023 8.638-.023 12.956-.003.235-.003.469-.003.764zm-18.799-31.03c-.185 1.854.183 3.674 1.01 5.07 1.559 2.633 5.72 3.032 7.77.75 1.502-1.67 1.677-3.69 1.643-5.807-1.23-.198-2.182-.76-2.845-1.782-.079-.12-.329-.182-.5-.184a135.305 135.305 0 00-3.791.003c-.183.003-.44.105-.534.243-.649.98-1.572 1.512-2.753 1.707zm10.425-2.19c0-1.431.01-2.82-.015-4.207-.003-.145-.174-.342-.318-.422-3.267-1.818-6.542-1.818-9.809.001-.145.081-.314.278-.316.424-.024 1.388-.014 2.774-.014 4.173.733-.129.901-.272 1.052-.85.19-.73.46-.952 1.241-.955 1.964-.008 3.925-.008 5.888 0 .779.003 1.062.22 1.234.96.124.534.46.784 1.057.876zM36.004 43.91c-1.688.598-3.357.54-5.163-.024-.044.522-.288 1.13-.083 1.37.832.977 1.802 1.84 2.773 2.798.764-.769 1.475-1.491 2.195-2.207.794-.793.797-.79.278-1.937zm18.441-26.684l-9.441 12.681c1.017 0 1.896-.003 2.774 0 1.118.004 1.427.313 1.428 1.422.002 2.386 0 4.77 0 7.155v.67h-2.058v-7.182h-3.054c-.327 0-.654-.006-.982.002-.5.013-.986-.132-1.099-.619-.085-.366-.021-.878.191-1.177 1.419-1.984 2.895-3.926 4.35-5.883 2.256-3.03 4.51-6.06 6.769-9.089.757-1.015 1.475-1.024 2.221-.023 3.663 4.916 7.325 9.834 10.986 14.75.09.121.185.24.263.368.5.819.053 1.649-.92 1.665-1.346.02-2.692.005-4.088.005v18.523h-2.08V32.001h-5.216v-2.074h9.404l-9.448-12.701z"/><path d="M27.18 66h-1.992v-6.125h1.992V66zm14.67-6.138v6.104h-2.018v-6.104h2.017zM19.836 43.294h-1.992v-2.002h1.992v2.002zm27.312-.021V41.29h2.01v1.983h-2.01zm-39.856 9.37v1.974h-2.01v-1.974h2.01zm54.455-.01v1.992H59.72v-1.992h2.028z"/></g><defs><clipPath id="clip0_2357_3288"><path fill="#fff" d="M0 0h67v66H0z"/></clipPath></defs></svg>