<svg width="11" height="11" fill="none" xmlns="http://www.w3.org/2000/svg"><path d="M3.333 1.614v-.458c.004-.319.212-.537.509-.533.288.004.487.223.488.539v.446h2.988c0-.171-.004-.341.001-.51a.496.496 0 01.964-.142.797.797 0 01.03.218c.005.14.002.28.002.44.135 0 .266-.01.395.002.235.024.478.03.7.098.85.262 1.388 1.019 1.39 1.93.002 1.634.003 3.267-.002 4.9-.001.185-.02.376-.067.553-.235.893-1.011 1.476-1.958 1.478-1.342.002-2.684 0-4.025 0-.623 0-1.245.002-1.867 0-1.046-.003-1.852-.691-2.015-1.723a1.847 1.847 0 01-.017-.29c0-1.642-.002-3.283 0-4.925.002-1.014.668-1.81 1.665-1.993.13-.024.264-.025.395-.03.136-.004.271 0 .425 0h-.001zM1.839 5.109V8.52c0 .643.423 1.064 1.068 1.065l5.833-.001c.1 0 .204-.008.3-.031.474-.113.767-.505.768-1.023V5.11H1.84z" fill="#C4C4C4"/></svg>