<svg width="12" height="10" fill="none" xmlns="http://www.w3.org/2000/svg"><path d="M6.176 9.576C3.741 9.55 1.585 7.904.681 5.368a.654.654 0 010-.476c.893-2.3 2.43-3.698 4.637-4.087 2.665-.472 5.325 1.27 6.336 4.087.06.17.057.326-.009.488C10.78 7.627 9.29 9.008 7.14 9.461c-.315.067-.642.073-.963.109v.006zm0-.973l.384-.02c.031 0 .062 0 .094-.006 1.906-.258 3.27-1.372 4.114-3.305a.317.317 0 000-.278C9.854 2.796 7.719 1.37 5.482 1.746 3.67 2.05 2.375 3.16 1.568 5.001a.3.3 0 00.003.264c.937 2.15 2.491 3.23 4.602 3.338h.003z" fill="#C4C4C4"/><path d="M6.167 7.364A2.224 2.224 0 013.955 5.12c.008-1.181 1.037-2.186 2.231-2.18 1.197.006 2.201 1.024 2.193 2.227-.009 1.195-1.024 2.203-2.21 2.197h-.002zm.008-.84c.741 0 1.365-.632 1.365-1.385 0-.733-.624-1.36-1.36-1.362-.746-.003-1.386.626-1.39 1.362 0 .75.633 1.383 1.382 1.385h.003z" fill="#C4C4C4"/></svg>