<svg width="19" height="24" fill="none" xmlns="http://www.w3.org/2000/svg"><g clip-path="url(#clip0_2357_3320)" fill="#E9E9E9"><path d="M0 11.629V5.05C.003 2.375 2.044.276 4.647.274 6.427.272 8.21.28 9.991.269a1.26 1.26 0 01.975.413c2.364 2.436 4.734 4.867 7.11 7.29.295.3.425.627.423 1.051-.008 3.092-.002 6.183-.005 9.274-.002 2.632-2.056 4.736-4.625 4.738-3.082.003-6.163.003-9.245 0-2.567-.002-4.62-2.109-4.623-4.74-.002-2.222 0-4.444 0-6.667zm16.647-1.872c-.253 0-.473.003-.692-.001-.933-.017-1.875.04-2.797-.071-2.173-.263-3.894-2.308-3.908-4.548-.006-.88-.001-1.758-.002-2.637v-.33h-.267c-1.415 0-2.831-.005-4.247 0C3.05 2.176 1.85 3.41 1.85 5.146a9400.45 9400.45 0 000 13.008c0 1.753 1.199 2.985 2.906 2.987 2.995.003 5.99.003 8.985-.004.267 0 .541-.027.8-.094 1.287-.334 2.104-1.445 2.107-2.859.004-2.4.001-4.8.001-7.2V9.757zm-1.41-1.842c-1.409-1.447-2.787-2.86-4.135-4.242 0 .444-.02.958.004 1.47.06 1.213.846 2.31 1.96 2.57.708.166 1.457.142 2.172.202z"/><path d="M9.242 12.604l3.642.001c.583.001.99.398.987.957-.003.543-.41.936-.977.937-2.427.002-4.855.002-7.283 0-.584 0-.99-.397-.986-.957.003-.547.405-.936.976-.937 1.214-.002 2.427 0 3.641 0zm.006 5.689H5.635c-.608 0-1.015-.39-1.01-.962.005-.552.414-.931 1.01-.931h7.225c.606 0 1.016.392 1.01.96-.004.55-.416.933-1.01.933H9.249zM6.485 8.81c.308 0 .616-.005.924.001.518.009.911.42.912.944.001.525-.39.942-.907.948-.626.007-1.252.007-1.878 0-.518-.006-.91-.42-.911-.944 0-.528.388-.938.906-.948.318-.005.636 0 .954 0z"/></g><defs><clipPath id="clip0_2357_3320"><path fill="#fff" transform="translate(0 .27)" d="M0 0h18.5v22.769H0z"/></clipPath></defs></svg>