<svg width="70" height="51" fill="none" xmlns="http://www.w3.org/2000/svg"><path d="M63.203 32.761c-.387.177-1.095.225-1.095.225H31.711s-5.035-.272 0-6.164L46.433 5.531s.599-.559 1.02-1.295c.565-.994.81-2.302-1.115-2.983C42.855.443 39.05 0 34.983 0 13.69-.014.068 11.899 0 25.807c-.068 13.363 11.886 25.208 34.99 25.18 12.137 0 21.961-3.814 28.091-9.773h-6c-5.28 4.243-12.907 6.879-22.091 6.879-19.805 0-30.003-9.965-30.003-22.286 0-12.3 11.763-23.076 30.003-23.09.782-.013 1.53.035 2.259.069.496.306.51 1.192-1.647 3.582 0 0-4.3 5.272-10.028 13.187-5.824 8.105-6.538 9.876-6.538 9.876s-6.266 9.406 8.593 9.896h37.234C68.15 35.417 70 30.793 70 25.814c0-10.108-7.164-19.091-19.308-23.28l-1.347 2.281C60.34 8.548 65.387 16.762 65.387 25.807c0 2.2-.279 3.95-1.38 5.721.006-.006-.416 1.056-.804 1.233z" fill="#E9E9E9"/></svg>