<svg width="60" height="60" fill="none" xmlns="http://www.w3.org/2000/svg"><path d="M52.426 18.46c-.24-.43-.705-.718-1.185-.958-1.297-.64-2.69-.88-4.115-.927-1.89-.08-3.715.176-5.445 1.007-.096.048-.272.016-.352-.048-1.65-1.439-3.587-1.662-5.653-1.327-2.05.352-3.987 1.12-5.892 1.902-4.468 1.806-8.903 3.708-13.403 5.418-4.932 1.87-10.024 3.053-15.26 3.613-.352.032-.689.064-1.121.095.368-4.075 1.505-7.88 3.459-11.443 3.49-6.361 8.599-10.949 15.356-13.65 13.675-5.466 29.271-.191 36.894 12.42 7.558 12.514 4.931 28.736-6.245 38.246-11.193 9.526-26.406 8.919-36.27 2.062.641-.463 1.266-.911 1.89-1.358 6.293-4.572 12.426-9.35 18.223-14.529 3.442-3.069 6.821-6.233 10.248-9.302a176.542 176.542 0 016.437-5.498c.625-.512 1.393-.863 2.146-1.151.992-.384 1.97-.256 2.818.463.144.128.304.24.576.336-.048-.447-.064-.91-.16-1.358-.432-1.966-1.937-3.101-4.067-3.229-1.922-.112-3.57.544-5.076 1.598-3.075 2.142-6.133 4.284-9.143 6.505-5.669 4.22-11.29 8.487-17.15 12.435-4.42 2.973-8.951 5.77-13.691 8.2-.08.031-.144.08-.272.127-.4-.575-.817-1.135-1.25-1.774.353-.176.657-.352.978-.511 8.406-4.396 16.605-9.158 24.339-14.689 3.395-2.429 6.725-4.954 10.088-7.4a131.118 131.118 0 014.724-3.276c1.441-.96 2.994-1.758 4.724-1.982.912-.128 1.89-.016 2.85-.016z" fill="#E9E9E9"/><path d="M.833 37.656c-.16-.703-.305-1.358-.465-2.045.545-.128 1.041-.256 1.538-.384 7.125-1.822 13.963-4.411 20.416-7.943 5.076-2.781 10.056-5.706 15.084-8.567 1.073-.608 2.29-.895 3.363-.768-.032.032-.032.08-.064.096-4.516 2.75-9.032 5.466-13.547 8.232C19.055 31.23 10.44 35.05 1.249 37.56a6.83 6.83 0 00-.416.096z" fill="#E9E9E9"/></svg>