<svg width="15" height="15" fill="none" xmlns="http://www.w3.org/2000/svg"><path d="M0 7.775C.012 3.865 3.189.7 7.09.712c3.884.013 7.066 3.208 7.048 7.078a7.076 7.076 0 01-7.152 7.06C3.145 14.828-.011 11.63 0 7.775zM7.073 2c-3.19 0-5.785 2.587-5.786 5.766-.002 3.2 2.584 5.799 5.769 5.798a5.792 5.792 0 005.794-5.79c.002-3.18-2.595-5.775-5.778-5.774z" fill="#C4C4C4"/><path d="M6.43 5.852c0-.652-.004-1.304.003-1.956a.62.62 0 01.547-.603c.33-.037.619.147.703.458.024.09.025.188.025.283a704.99 704.99 0 01-.002 3.326c0 .11.031.186.11.262.538.533 1.072 1.07 1.607 1.606.18.18.252.395.18.646a.61.61 0 01-.475.452.595.595 0 01-.583-.162c-.648-.643-1.292-1.29-1.937-1.937-.135-.135-.181-.304-.18-.494.003-.627.001-1.253.001-1.88h.002z" fill="#C4C4C4"/></svg>