<svg width="143" height="47" fill="none" xmlns="http://www.w3.org/2000/svg"><path d="M9.179 47c-.37 0-.729 0-1.098-.01a15.457 15.457 0 01-2.264-.202 6.727 6.727 0 01-2.006-.677 6.678 6.678 0 01-1.696-1.253 6.586 6.586 0 01-1.237-1.719 7.225 7.225 0 01-.659-2.032 14.94 14.94 0 01-.199-2.304C.01 38.54 0 37.68 0 37.68V9.3s.01-.849.02-1.101c.01-.769.08-1.537.2-2.295.12-.707.339-1.395.658-2.042a6.722 6.722 0 011.227-1.718A6.557 6.557 0 013.811.89 7.002 7.002 0 015.817.223 15.594 15.594 0 018.09.02L9.19 0h124.62l1.108.02c.758.01 1.506.071 2.254.203a7.15 7.15 0 012.026.677 6.868 6.868 0 012.933 2.971c.319.637.539 1.324.649 2.022.129.768.199 1.546.209 2.314V9.3c.01.465.01.9.01 1.345v25.713c0 .445 0 .88-.01 1.324 0 .404 0 .768-.01 1.142-.01.758-.08 1.526-.209 2.274a6.769 6.769 0 01-.659 2.052 7.104 7.104 0 01-1.227 1.709 6.69 6.69 0 01-1.696 1.253 7.152 7.152 0 01-2.026.677c-.748.121-1.506.192-2.264.202-.359.01-.729.01-1.088.01H9.179z" fill="#000"/><path d="M29.05 23.82a6.042 6.042 0 012.86-5.05 6.146 6.146 0 00-4.85-2.62c-2.04-.21-4.02 1.22-5.06 1.22-1.06 0-2.66-1.2-4.38-1.16a6.468 6.468 0 00-5.44 3.31c-2.35 4.07-.6 10.05 1.65 13.34 1.13 1.61 2.44 3.41 4.17 3.35 1.68-.07 2.32-1.08 4.35-1.08 2.02 0 2.61 1.08 4.37 1.04 1.81-.03 2.95-1.62 4.04-3.24.81-1.15 1.43-2.42 1.85-3.76a5.8 5.8 0 01-3.56-5.35zm-3.32-9.83a5.888 5.888 0 001.35-4.24c-1.51.16-2.9.88-3.9 2.02a5.596 5.596 0 00-1.39 4.08c1.53.02 2.98-.67 3.94-1.86zm24.63 18.15h-5.75l-1.38 4.08h-2.44l5.45-15.09h2.53l5.45 15.09h-2.48l-1.38-4.08zm-5.16-1.89h4.56l-2.25-6.62h-.06l-2.25 6.62zm20.78.46c0 3.42-1.83 5.62-4.59 5.62-1.43.07-2.77-.67-3.46-1.93h-.05v5.45h-2.26V25.2h2.19v1.83h.04a3.91 3.91 0 013.5-1.95c2.79.01 4.63 2.22 4.63 5.63zm-2.32 0c0-2.23-1.15-3.69-2.91-3.69-1.73 0-2.89 1.5-2.89 3.69 0 2.22 1.16 3.7 2.89 3.7 1.76.01 2.91-1.45 2.91-3.7zm14.44 0c0 3.42-1.83 5.62-4.59 5.62-1.43.07-2.77-.67-3.46-1.93H70v5.45h-2.26V25.2h2.19v1.83h.04a3.91 3.91 0 013.5-1.95c2.78.01 4.63 2.22 4.63 5.63zm-2.33 0c0-2.23-1.15-3.69-2.91-3.69-1.73 0-2.89 1.5-2.89 3.69 0 2.22 1.16 3.7 2.89 3.7 1.76.01 2.91-1.45 2.91-3.7zm10.33 1.3c.17 1.5 1.62 2.48 3.61 2.48 1.9 0 3.27-.98 3.27-2.33 0-1.17-.83-1.87-2.78-2.35l-1.96-.47c-2.77-.67-4.06-1.96-4.06-4.07 0-2.6 2.27-4.39 5.49-4.39 3.19 0 5.38 1.79 5.45 4.39h-2.28c-.14-1.51-1.38-2.42-3.2-2.42-1.82 0-3.06.92-3.06 2.26 0 1.07.79 1.7 2.74 2.18l1.66.41c3.1.73 4.38 1.98 4.38 4.18 0 2.82-2.25 4.59-5.83 4.59-3.35 0-5.61-1.73-5.75-4.46h2.32zm14.14-9.4v2.6h2.09V27h-2.09v6.07c0 .94.42 1.38 1.34 1.38.25 0 .5-.02.74-.05v1.78c-.41.08-.83.11-1.25.1-2.23 0-3.1-.84-3.1-2.97V27h-1.6v-1.79h1.6v-2.6h2.27zm3.31 8.1c0-3.46 2.04-5.64 5.22-5.64 3.19 0 5.22 2.18 5.22 5.64 0 3.47-2.02 5.64-5.22 5.64-3.2 0-5.22-2.16-5.22-5.64zm8.13 0c0-2.38-1.09-3.78-2.92-3.78-1.83 0-2.92 1.41-2.92 3.78 0 2.38 1.09 3.78 2.92 3.78 1.84 0 2.92-1.39 2.92-3.78zm4.17-5.5H118v1.87h.05c.3-1.21 1.41-2.04 2.65-1.99.26 0 .52.03.77.08v2.11c-.33-.1-.67-.15-1.01-.14a2.28 2.28 0 00-2.37 2.18c0 .12 0 .23.01.35v6.53h-2.26V25.21h.01zm16.04 7.77c-.3 2-2.25 3.37-4.74 3.37-3.2 0-5.19-2.15-5.19-5.59 0-3.45 2-5.69 5.09-5.69 3.05 0 4.96 2.09 4.96 5.43v.77h-7.77v.14a2.87 2.87 0 002.6 3.11c.12.01.24.01.36.01 1.1.1 2.13-.53 2.54-1.55h2.15zm-7.64-3.28h5.5a2.65 2.65 0 00-2.5-2.79c-.07 0-.14-.01-.2 0a2.783 2.783 0 00-2.8 2.77v.02zM43.59 12.83h.97c.67.08 1.28-.39 1.36-1.06 0-.03.01-.06.01-.1 0-.67-.5-1.1-1.36-1.1-.71-.1-1.36.39-1.46 1.1v.04h-1.06a2.279 2.279 0 012.4-2.14c.05 0 .11.01.16.02 1.43 0 2.43.8 2.43 1.95.01.79-.54 1.49-1.32 1.66v.08c.93.04 1.65.83 1.61 1.75a2.424 2.424 0 01-2.66 2.16c-.02 0-.03 0-.05-.01-1.32.18-2.53-.74-2.71-2.06 0-.03-.01-.06-.01-.08h1.08c.07.69.7 1.14 1.64 1.14s1.55-.5 1.55-1.21c0-.72-.58-1.16-1.59-1.16h-1v-.98h.01zm4.98 2.63c0-.99.74-1.55 2.04-1.63l1.48-.09v-.47c0-.58-.38-.9-1.12-.9-.6 0-1.02.22-1.14.61h-1.05c.11-.94 1-1.54 2.24-1.54 1.37 0 2.15.68 2.15 1.84v3.74h-1.04v-.77h-.09c-.35.56-.98.89-1.64.86-.91.09-1.72-.57-1.82-1.47-.01-.07-.01-.12-.01-.18zm3.51-.46v-.46l-1.34.09c-.75.05-1.1.31-1.1.79 0 .49.43.78 1.01.78.71.07 1.34-.44 1.41-1.15.02-.02.02-.04.02-.05zm3.95-2.55v4.56h-1.08v-5.47h3.6v.91h-2.52zm9.07 1.82c0 1.74-.88 2.83-2.26 2.83-.69.05-1.35-.31-1.68-.92h-.09v2.65h-1.08v-7.29h1.04v.9h.08c.34-.63 1.01-1.01 1.72-.99 1.39 0 2.27 1.08 2.27 2.82zm-1.11 0c0-1.16-.55-1.85-1.46-1.85-.91 0-1.48.71-1.48 1.86 0 1.14.57 1.85 1.47 1.85.92 0 1.47-.7 1.47-1.86zm2.54 4.7v-.93c.12.02.23.02.35.02.48.04.9-.29.99-.76l.08-.27-1.98-5.49h1.18l1.37 4.35h.08l1.37-4.35h1.15l-2.04 5.7c-.47 1.33-.99 1.76-2.1 1.76-.09 0-.34-.01-.45-.03zm5.44-3.51h1.07c.11.48.56.73 1.19.73.72 0 1.16-.32 1.16-.81 0-.53-.4-.78-1.16-.78h-.82v-.84h.81c.65 0 .99-.25.99-.71 0-.4-.32-.71-.99-.71-.61 0-1.05.26-1.12.69h-1.04a1.912 1.912 0 012.16-1.6c1.3 0 2.04.59 2.04 1.51.01.53-.35 1-.86 1.12v.08c.62.08 1.08.61 1.07 1.23 0 1.04-.88 1.73-2.24 1.73-1.19.01-2.16-.53-2.26-1.64zm6.05 1.55v-5.47h1.07v3.76h.09l2.52-3.76h1.07v5.47H81.7v-3.78h-.08l-2.53 3.78h-1.07zm10.65-4.56h-1.72v4.56h-1.08v-4.56h-1.73v-.91h4.53v.91zm5.82 3.08c-.3 1.03-1.3 1.7-2.37 1.58a2.489 2.489 0 01-2.55-2.42c0-.14 0-.27.02-.41-.19-1.38.79-2.65 2.17-2.84.12-.02.24-.02.36-.02 1.52 0 2.44 1.04 2.44 2.76v.38H90.7v.06c-.07.8.52 1.5 1.32 1.56.05 0 .09.01.14 0 .53.06 1.04-.2 1.3-.66h1.03v.01zm-3.8-1.76h2.76c.05-.73-.49-1.36-1.22-1.42h-.13c-.77-.01-1.41.61-1.42 1.38.01.01.01.03.01.04zm8.38-2.23h2.47c1.07 0 1.7.54 1.7 1.39 0 .56-.38 1.04-.93 1.16v.09c.66.04 1.18.6 1.17 1.26 0 .95-.72 1.58-1.92 1.58h-2.49v-5.48zm1.07.83v1.42h1.07c.65 0 .96-.25.96-.71 0-.43-.27-.7-.85-.7h-1.18v-.01zm0 2.21v1.6h1.28c.64 0 .98-.28.98-.8 0-.55-.39-.8-1.12-.8h-1.14z" fill="#fff"/></svg>