<svg width="30" height="30" fill="none" xmlns="http://www.w3.org/2000/svg"><g clip-path="url(#clip0_19_287)"><path d="M29.52 16.166L18.686 27a1.63 1.63 0 01-1.16.479c-.44 0-.852-.17-1.162-.479l-.983-.984a1.63 1.63 0 01-.48-1.16c0-.44.17-.867.48-1.176l6.32-6.334H1.621A1.602 1.602 0 010 15.732V14.34c0-.906.715-1.686 1.62-1.686h20.153l-6.392-6.37c-.31-.309-.48-.71-.48-1.15 0-.44.17-.846.48-1.155l.983-.981c.31-.31.722-.478 1.162-.478.44 0 .851.17 1.16.48l10.835 10.834c.31.31.48.725.479 1.165a1.63 1.63 0 01-.48 1.166z" fill="#000"/></g><defs><clipPath id="clip0_19_287"><path fill="#fff" transform="matrix(1 0 0 -1 0 30)" d="M0 0h30v30H0z"/></clipPath></defs></svg>