<svg width="130" height="59" fill="none" xmlns="http://www.w3.org/2000/svg"><path d="M59.144 29.5c0-16.292-13.24-29.5-29.572-29.5S0 13.208 0 29.5 13.24 59 29.572 59s29.572-13.208 29.572-29.5z" fill="#BED732"/><path d="M70.496 10.115l-35.755-.009h-9.486l-10.78 38.855h12.1l2.537-9.144 39.225-.063c11.839 0 16.3-4.89 18.436-14.813 3.029-14.062-8.21-14.826-16.277-14.826zm5.358 14.642c-1.163 4.55-3.92 5.305-7.197 5.305H31.064l2.627-10.196 36.872.009c4.656-.005 6.454.346 5.291 4.882zm29.59-14.642v34.863c0 .58-.383 4.181-8.09 4.181-7.692 0-8.084-3.6-8.084-4.18V10.114h7.237v33.092a.853.853 0 001.704 0V10.115h7.233zm13.483 34.85V32.373c0-4.015-6.286-5.022-6.286-7.297V13.527c0-.022.004-.903.865-.903.87 0 .829.88.829.88l.009 8.826h4.475v-8.803c0-.386-.189-3.695-5.709-3.686-5.485.009-5.264 4.19-5.264 4.19v12.488c0 3.507 6.287 3.795 6.287 7.104v11.85c0 .022-.005.903-.866.903-.87 0-.829-.88-.829-.88l-.009-9.136h-4.475v9.117c0 .387.189 3.691 5.71 3.682 5.484-.013 5.263-4.194 5.263-4.194zM130 10.115v38.846h-3.479V31.034h-1.726v17.928h-3.479V10.116h3.479v17.848h1.726V10.115H130z" fill="#000"/></svg>