<svg width="54" height="54" fill="none" xmlns="http://www.w3.org/2000/svg"><path d="M36 18.09c0 9.944-8.057 18.002-18 18.002S0 28.034 0 18.09C0 8.153 8.057.087 18 .087c9.943.008 18 8.066 18 18.003z" fill="#BED732"/><path d="M54 0h-3.206v54H54V0zM24.469 37.877c-2.705 0-5.004-1.074-6.49-3.018-1.517-1.987-1.959-4.7-1.212-7.441 1.429-5.23 6.665-9.32 11.923-9.32 2.698 0 5.004 1.073 6.49 3.016 1.523 1.988 1.959 4.7 1.212 7.442-1.43 5.223-6.665 9.32-11.923 9.32zm4.22-15.464c-3.292 0-6.845 2.807-7.752 6.136-.399 1.45-.225 2.756.479 3.677.645.849 1.733 1.313 3.053 1.313 3.292 0 6.846-2.807 7.753-6.136.398-1.45.224-2.756-.48-3.677-.645-.842-1.732-1.313-3.052-1.313zM39.967 54h7.02V0h-7.02v54zm3.365-35.07a2.383 2.383 0 01-2.386-2.386 2.388 2.388 0 012.386-2.386 2.383 2.383 0 012.386 2.386 2.383 2.383 0 01-2.386 2.387z" fill="#000"/><path d="M39.967 42.148a4.141 4.141 0 01-2.379.755H12.14a4.132 4.132 0 01-3.314-1.64 4.116 4.116 0 01-.696-3.626l6.498-23.493a4.17 4.17 0 014.01-3.054H39.96V6.767H18.638a8.493 8.493 0 00-8.18 6.223L3.96 36.484c-1.494 5.403 2.567 10.749 8.18 10.749h25.448a8.57 8.57 0 002.379-.341v-4.744z" fill="#000"/></svg>