<svg width="110" height="132" fill="none" xmlns="http://www.w3.org/2000/svg"><g clip-path="url(#clip0_515_13668)"><path d="M104.534 22c0-1.067-.056-1.904.011-2.729.13-1.614 1.3-2.745 2.744-2.733 1.394.008 2.638 1.06 2.658 2.615.059 4.169.118 8.346-.123 12.506-.151 2.612-1.816 4.554-4.103 5.753-1.011.53-1.217 1.134-1.214 2.168.03 18.653.024 37.309.018 55.962 0 4.092-1.948 7.155-5.284 8.398-4.433 1.65-9.157-.571-10.728-5.046-.091-.262-.194-.524-.41-1.09-.04.542-.073.763-.073.984-.003 3.68-.003 7.356-.003 10.953 1.639.468 3.283.692 4.695 1.387 4.22 2.086 6.262 5.627 6.306 10.317a353.01 353.01 0 010 7.07c-.026 2.486-1.022 3.476-3.504 3.482-5.94.011-11.885.003-17.826.003H4.178c-3.4 0-4.202-.772-4.178-4.139.02-2.796-.033-5.603.188-8.384.363-4.575 4.539-8.817 9.107-9.259 1.44-.138 1.72-.648 1.72-1.98-.035-32.006-.014-64.013-.043-96.02-.003-4.02 1.166-7.414 4.42-9.941C17.418.704 19.758.035 22.263.032c18.171-.024 36.34-.053 54.512.009 6.705.02 11.243 4.863 11.246 11.765.009 23.072.018 46.144-.03 69.216-.002 1.376.325 2.133 1.6 2.83 2.27 1.244 3.608 3.32 3.815 5.951.14 1.806.1 3.63.12 5.444.03 2.41 1.044 3.771 2.8 3.73 1.721-.044 2.688-1.344 2.688-3.689.006-17.132.003-34.262.003-51.395 0-1.57.08-3.15-.044-4.71-.045-.546-.466-1.262-.929-1.539-2.844-1.693-4.47-4.091-4.515-7.429-.047-3.485-.041-6.97-.006-10.455.018-1.947 1.114-3.187 2.715-3.214 1.638-.03 2.734 1.258 2.8 3.288.07 2.177.07 2.177 2.233 2.177 1.02-.012 2.043-.012 3.263-.012zm-54.97 27.534c7.905 0 15.812.003 23.716-.003 2.814-.003 3.716-.88 3.719-3.688.009-10.358.009-20.713 0-31.07-.003-2.846-.872-3.738-3.678-3.738-15.861-.01-31.72-.01-47.58 0-2.806 0-3.732.93-3.732 3.7-.006 10.357-.003 20.712 0 31.07 0 2.8.917 3.726 3.69 3.729 7.957.003 15.911 0 23.866 0zm5.444 21.976c0-4.558.009-8.873-.003-13.186-.006-1.732-.752-2.896-2.045-3.187-1.51-.342-2.526.339-3.29 1.611-5.316 8.879-10.665 17.737-15.97 26.625-1.482 2.483-.312 4.542 2.567 4.604 2.06.044 4.126.07 6.183-.012 1.2-.05 1.624.3 1.598 1.553-.074 3.826-.036 7.653-.021 11.48.006 1.976.622 2.966 2.007 3.343 1.403.38 2.49-.183 3.466-1.806 5.252-8.746 10.494-17.498 15.758-26.235.642-1.067 1.037-2.13.407-3.317-.672-1.261-1.834-1.488-3.133-1.476-2.45.023-4.895.003-7.524.003z" fill="#000"/></g><defs><clipPath id="clip0_515_13668"><path fill="#fff" d="M0 0h110v132H0z"/></clipPath></defs></svg>