<svg width="330" height="113" fill="none" xmlns="http://www.w3.org/2000/svg"><path d="M159.873.777L58.187.755H31.215L.556 111.543h34.42l7.215-26.077 111.554-.188c33.666 0 46.364-13.954 52.436-42.24C214.784 2.953 182.828.777 159.873.777zm15.251 41.762c-3.307 12.977-11.144 15.12-20.468 15.12H47.731l7.481-29.074 104.872.022c13.231 0 18.337.988 15.04 13.932zM259.273.777v99.409c0 1.654-1.088 11.923-23.01 11.923-21.878 0-22.999-10.269-22.999-11.923V.776h20.579v94.36a2.436 2.436 0 002.42 2.43 2.436 2.436 0 002.43-2.43V.775h20.58zm38.349 99.376v-35.9c0-11.445-17.882-14.32-17.882-20.803V10.513c0-.056.011-2.587 2.453-2.587 2.476 0 2.365 2.52 2.365 2.52l.022 25.155h12.72v-25.1c0-1.098-.544-10.534-16.239-10.5-15.595.021-14.974 11.944-14.974 11.944v35.6c0 10.003 17.882 10.824 17.882 20.249v33.791c0 .056-.011 2.576-2.453 2.576-2.475 0-2.364-2.52-2.364-2.52l-.022-26.054h-12.721v25.987c0 1.099.544 10.535 16.239 10.502 15.607 0 14.974-11.923 14.974-11.923zM329.113.777v110.766h-9.89v-51.12h-4.906v51.12h-9.901V.777h9.901v50.898h4.906V.777h9.89z" opacity=".2" fill="#fff"/></svg>