<svg width="22" height="22" fill="none" xmlns="http://www.w3.org/2000/svg"><path d="M6.046 2.992c-.449-.198-.898-.36-1.31-.587-.346-.192-.562-.118-.816.158A34.568 34.568 0 012.4 4.088c-.169.16-.235.307-.1.506.64.945.697 1.88-.001 2.833-.148.2-.24.475-.267.724-.061.577-.421.8-.917.975-1.116.395-1.11.414-1.11 1.602 0 .489.011.978-.005 1.465-.007.238.067.375.304.424 1.09.222 1.805.81 1.985 1.966.04.26.182.527.343.743.338.454.269.858.033 1.34-.513 1.05-.487 1.063.325 1.876.357.356.698.73 1.078 1.06.112.097.385.157.493.088.943-.6 1.857-.688 2.801.003.213.155.501.25.767.285.567.077.794.417.969.924.379 1.102.405 1.093 1.574 1.093.488 0 .978-.013 1.466.004.254.01.412-.067.466-.32.227-1.068.785-1.798 1.942-1.943a.788.788 0 00.374-.165c.738-.59 1.472-.484 2.202.003.41.274.715.2 1.042-.177.438-.507.936-.964 1.42-1.43.164-.157.25-.298.109-.507-.635-.942-.711-1.883 0-2.828a.543.543 0 00.1-.254c.113-1.005.758-1.476 1.675-1.671.41-.087.557-.302.529-.737-.045-.685-.023-1.374-.007-2.06.007-.267-.057-.446-.335-.5-1.082-.213-1.77-.8-1.953-1.938-.049-.304-.218-.611-.404-.865-.278-.379-.232-.71-.03-1.093.198-.377.532-.818.462-1.16-.074-.367-.548-.654-.853-.971-.211-.22-.43-.433-.647-.649-.522-.521-.546-.565-1.21-.2-.694.379-1.306.494-2.008-.002-.376-.264-.858-.41-1.313-.516-.413-.096-.606-.31-.732-.69-.142-.43-.242-.988-.558-1.211-.298-.21-.854-.068-1.295-.063-.531.005-1.182-.153-1.559.097-.355.234-.407.913-.624 1.38a.84.84 0 01-.374.394c-.763.343-1.54.653-2.312.976-.068.03-.134.063-.199.093zM5.82 11.09c-.064-2.809 2.231-5.184 5.073-5.25 2.844-.066 5.205 2.212 5.28 5.091.071 2.805-2.2 5.187-5.007 5.255-2.94.07-5.28-2.159-5.346-5.096z" fill="#000"/></svg>