<svg width="158" height="47" fill="none" xmlns="http://www.w3.org/2000/svg"><path d="M9.158 46.46h0c-.37 0-.722 0-1.083-.01h0-.007c-.73-.01-1.462-.079-2.186-.196a6.208 6.208 0 01-1.85-.626h0l-.006-.003a5.913 5.913 0 01-1.554-1.148h0l-.007-.007a6.041 6.041 0 01-1.14-1.58l-.447.223.446-.223C1.03 42.3.824 41.66.713 41a15.623 15.623 0 01-.193-2.224h0v-.012a38.82 38.82 0 01-.018-.972l-.002-.1V9.27l.002-.1a139.353 139.353 0 01.017-.942h0v-.014c.01-.742.078-1.487.194-2.223.111-.66.316-1.3.612-1.903A6.23 6.23 0 015.882.715 14.9 14.9 0 018.068.52h.003L9.162.5h139.67l1.097.02h.003c.729.01 1.451.078 2.176.195.65.114 1.286.32 1.873.628a6.35 6.35 0 012.706 2.758 6.4 6.4 0 01.6 1.876l.001.006c.125.743.192 1.485.202 2.237v1.101c.01.46.01.89.01 1.336v25.696c0 .446 0 .876-.01 1.315h0v.011c0 .396 0 .753-.01 1.13v.007a14.113 14.113 0 01-.202 2.2l-.001.008a6.563 6.563 0 01-.601 1.907 6.377 6.377 0 01-1.135 1.573c-.463.47-.988.862-1.565 1.16a6.684 6.684 0 01-1.868.63 14.9 14.9 0 01-2.186.196h-.008c-.34.01-.712.01-1.072.01h-1.315l-138.37-.04z" fill="#000" stroke="#fff"/><path d="M79.79 25.51a4.993 4.993 0 00-4.97 5.02 4.995 4.995 0 009.99-.03 4.926 4.926 0 00-4.85-5c-.05.01-.11.01-.17.01zm0 8.03a3.033 3.033 0 112.81-3.24c0 .07.01.14.01.2.08 1.6-1.15 2.95-2.75 3.03-.02.01-.04.01-.07.01zm-10.94-8.03a4.994 4.994 0 00-4.98 5.01 4.993 4.993 0 005.01 4.98 5 5 0 004.99-5 4.926 4.926 0 00-4.85-5h-.17v.01zm0 8.03a3.035 3.035 0 01-3.25-2.8 3.035 3.035 0 012.8-3.25 3.035 3.035 0 013.25 2.8c.01.07.01.14.01.21.08 1.6-1.15 2.95-2.75 3.03h-.08.02v.01zm-13.04-6.49v2.12h5.08c-.08 1-.49 1.94-1.18 2.67a5.177 5.177 0 01-3.91 1.55 5.64 5.64 0 110-11.28c1.43-.02 2.81.52 3.84 1.52l1.49-1.49a7.397 7.397 0 00-5.33-2.2 7.769 7.769 0 00-8.07 7.46 7.769 7.769 0 008.06 8.07c2.04.09 4.01-.7 5.42-2.17a7.027 7.027 0 001.83-4.96c0-.45-.04-.89-.12-1.33l-7.11.04zm53.27 1.65a4.716 4.716 0 00-4.28-3.19c-2.6 0-4.71 2.1-4.71 4.69 0 .1 0 .2.01.3a4.892 4.892 0 004.78 5h.18c1.67.01 3.23-.82 4.16-2.21l-1.7-1.18c-.52.86-1.45 1.39-2.46 1.39-1.04.04-2-.56-2.42-1.52l6.69-2.76-.25-.52zm-6.82 1.67a2.733 2.733 0 012.55-2.91h.06c.77-.05 1.51.37 1.86 1.06l-4.47 1.85zm-5.43 4.84h2.2V20.52h-2.2v14.69zm-3.6-8.58h-.08a3.534 3.534 0 00-2.63-1.18 5.008 5.008 0 00-4.76 5.24 5.017 5.017 0 004.76 4.76c1.01.02 1.97-.41 2.63-1.18h.07v.72c0 1.92-1.02 2.94-2.67 2.94a2.786 2.786 0 01-2.52-1.78l-1.92.8a4.77 4.77 0 004.43 2.95c2.57 0 4.7-1.52 4.7-5.21v-8.9h-2.02v.84h.01zm-2.51 6.91a3.054 3.054 0 01-2.77-3.3c.13-1.47 1.3-2.64 2.77-2.77 1.56.08 2.75 1.41 2.67 2.96v.07a2.792 2.792 0 01-2.55 3.02c-.04 0-.09.01-.13.01h.01v.01zm28.65-13.02h-5.26v14.69h2.2v-5.57h3.07a4.57 4.57 0 004.89-4.23 4.57 4.57 0 00-4.23-4.89c-.22-.01-.44-.01-.66 0h-.01zm0 7.05h-3.07v-5.01h3.11c1.39 0 2.52 1.13 2.52 2.52 0 1.39-1.13 2.52-2.52 2.52l-.04-.03zm13.56-2.11c-1.64-.1-3.17.78-3.91 2.25l1.95.81c.39-.73 1.18-1.15 2-1.08 1.16-.13 2.21.7 2.35 1.86v.19c-.71-.37-1.49-.57-2.29-.56-2.1 0-4.23 1.18-4.23 3.3a3.405 3.405 0 003.55 3.24c.03 0 .06 0 .1-.01 1.13.08 2.21-.46 2.82-1.41h.07v1.18h2.12v-5.65c0-2.57-1.95-4.07-4.45-4.07l-.08-.05zm-.27 8.05c-.72 0-1.72-.37-1.72-1.25 0-1.18 1.25-1.56 2.35-1.56.7-.02 1.39.15 2 .49a2.648 2.648 0 01-2.57 2.35l-.06-.03zm12.49-7.7l-2.52 6.37h-.07l-2.61-6.37h-2.35l3.91 8.91-2.23 4.95h2.29l6.02-13.86h-2.44zm-19.76 9.4h2.2V20.52h-2.2v14.69z" fill="#fff"/><mask id="mask0_501_5588" style="mask-type:luminance" maskUnits="userSpaceOnUse" x="11" y="8" width="16" height="31"><path d="M11.97 8.81c-.38.46-.58 1.05-.54 1.65v26c-.04.6.16 1.19.54 1.65l.08.08 14.56-14.55v-.34L12.05 8.73l-.08.08z" fill="#fff"/></mask><g mask="url(#mask0_501_5588)"><path d="M41.34 23.46L19 45.8-3.34 23.46 19 1.12l22.34 22.34z" fill="url(#paint0_linear_501_5588)"/></g><mask id="mask1_501_5588" style="mask-type:luminance" maskUnits="userSpaceOnUse" x="26" y="18" width="13" height="11"><path d="M26.61 23.29v.34l4.82 4.85.13-.06 5.75-3.27c1.65-.94 1.65-2.47 0-3.4l-5.77-3.28-.11-.06-4.82 4.88z" fill="#fff"/></mask><g mask="url(#mask1_501_5588)"><path d="M38.95 18.43H26.61v10.06h12.34V18.43z" fill="url(#paint1_linear_501_5588)"/></g><mask id="mask2_501_5588" style="mask-type:luminance" maskUnits="userSpaceOnUse" x="11" y="23" width="21" height="16"><path d="M11.97 38.1c.69.61 1.72.64 2.45.07l17.18-9.76h-.01l-4.96-4.96L11.97 38.1z" fill="#fff"/></mask><g mask="url(#mask2_501_5588)"><path d="M39.23 31.1L21.77 48.55 4.32 31.1l17.46-17.45L39.23 31.1z" fill="url(#paint2_linear_501_5588)"/></g><mask id="mask3_501_5588" style="mask-type:luminance" maskUnits="userSpaceOnUse" x="11" y="8" width="21" height="16"><path d="M11.95 8.81l14.66 14.65 4.96-4.96L14.4 8.74c-.35-.27-.76-.41-1.18-.41-.45 0-.9.16-1.27.48z" fill="#fff"/></mask><g mask="url(#mask3_501_5588)"><path d="M21.76-1.48l17.38 17.37-17.38 17.38L4.39 15.89 21.76-1.48z" fill="url(#paint3_linear_501_5588)"/></g><path d="M49.2 16.72h-.87v-2.35h.74c.68-.73 1.01-1.72.89-2.7V8.18h4.7v6.18h.79v2.35h-.87v-1.48H49.2v1.49zm1.63-5.02c.05.95-.18 1.89-.67 2.7h3.53V9.04h-2.86v2.66zm11.65 2.61a3.67 3.67 0 01-5.17 0 3.8 3.8 0 010-5.23 3.636 3.636 0 015.15-.02l.02.02a3.8 3.8 0 010 5.23zm-4.5-.59a2.722 2.722 0 003.83 0 3.006 3.006 0 000-4.04 2.704 2.704 0 00-3.83 0 3.006 3.006 0 000 4.04zm10.11 1.66a3.597 3.597 0 01-3.67-3.52v-.15a3.603 3.603 0 013.51-3.68h.15c1-.02 1.95.41 2.59 1.17l-.64.61c-.47-.6-1.2-.93-1.96-.89-.73-.02-1.43.26-1.95.78a3.015 3.015 0 000 4.08c.52.52 1.22.79 1.95.78a2.77 2.77 0 002.15-1.05l.63.63c-.32.39-.72.7-1.17.92-.5.22-1.04.33-1.59.32zm6.46-.15h-.9V9.05h-1.98v-.87h4.84v.87h-1.96v6.18zm8.19-7.05l-2.67 5.95c-.22.72-.87 1.23-1.62 1.26-.24 0-.48-.05-.7-.15l.23-.83c.14.08.3.13.47.13.17.01.35-.03.49-.12.14-.12.25-.27.32-.45l.26-.56-2.35-5.21h1.07l1.74 4.04 1.69-4.06h1.07zm1.03 7.05V8.18h5.1v7.05h-.9V9.05h-3.29v6.18h-.91zm6.71 0V8.18h.9v3.02h3.53V8.18h.91v7.05h-.91v-3.19h-3.53v3.19h-.9zm12.73-.92a3.67 3.67 0 01-5.17 0 3.8 3.8 0 010-5.23 3.636 3.636 0 015.15-.02l.02.02a3.8 3.8 0 010 5.23zm-4.5-.59a2.722 2.722 0 003.83 0 3.006 3.006 0 000-4.04 2.704 2.704 0 00-3.83 0 3.006 3.006 0 000 4.04zm9.24 1.51V8.18h2.55c.53-.01 1.04.18 1.43.54.4.35.62.85.61 1.38.01.31-.08.62-.26.88-.17.25-.41.45-.69.58.34.11.64.33.86.61.23.29.35.65.34 1.01.01.55-.22 1.07-.64 1.43-.41.38-.95.58-1.5.58l-2.7.04zm.9-4.03h1.65c.31.01.61-.11.82-.34.43-.39.46-1.05.07-1.48-.01-.01-.02-.02-.02-.03a.997.997 0 00-.79-.34h-1.68l-.05 2.19zm0 3.16h1.82c.32.01.63-.12.85-.36.21-.22.32-.5.33-.8 0-.65-.53-1.17-1.18-1.17h-1.79l-.03 2.33z" fill="#fff"/><path d="M49.2 16.72h-.87v-2.35h.74c.68-.73 1.01-1.72.89-2.7V8.18h4.7v6.18h.79v2.35h-.87v-1.48H49.2v1.49zm1.63-5.02c.05.95-.18 1.89-.67 2.7h3.53V9.04h-2.86v2.66zm11.65 2.61a3.67 3.67 0 01-5.17 0 3.8 3.8 0 010-5.23 3.636 3.636 0 015.15-.02l.02.02a3.8 3.8 0 010 5.23zm-4.5-.59a2.722 2.722 0 003.83 0 3.006 3.006 0 000-4.04 2.704 2.704 0 00-3.83 0 3.006 3.006 0 000 4.04zm10.11 1.66a3.597 3.597 0 01-3.67-3.52v-.15a3.603 3.603 0 013.51-3.68h.15c1-.02 1.95.41 2.59 1.17l-.64.61c-.47-.6-1.2-.93-1.96-.89-.73-.02-1.43.26-1.95.78a3.015 3.015 0 000 4.08c.52.52 1.22.79 1.95.78a2.77 2.77 0 002.15-1.05l.63.63c-.32.39-.72.7-1.17.92-.5.22-1.04.33-1.59.32zm6.46-.15h-.9V9.05h-1.98v-.87h4.84v.87h-1.96v6.18zm8.19-7.05l-2.67 5.95c-.22.72-.87 1.23-1.62 1.26-.24 0-.48-.05-.7-.15l.23-.83c.14.08.3.13.47.13.17.01.35-.03.49-.12.14-.12.25-.27.32-.45l.26-.56-2.35-5.21h1.07l1.74 4.04 1.69-4.06h1.07zm1.03 7.05V8.18h5.1v7.05h-.9V9.05h-3.29v6.18h-.91zm6.71 0V8.18h.9v3.02h3.53V8.18h.91v7.05h-.91v-3.19h-3.53v3.19h-.9zm12.73-.92a3.67 3.67 0 01-5.17 0 3.8 3.8 0 010-5.23 3.636 3.636 0 015.15-.02l.02.02a3.8 3.8 0 010 5.23zm-4.5-.59a2.722 2.722 0 003.83 0 3.006 3.006 0 000-4.04 2.704 2.704 0 00-3.83 0 3.006 3.006 0 000 4.04zm9.24 1.51V8.18h2.55c.53-.01 1.04.18 1.43.54.4.35.62.85.61 1.38.01.31-.08.62-.26.88-.17.25-.41.45-.69.58.34.11.64.33.86.61.23.29.35.65.34 1.01.01.55-.22 1.07-.64 1.43-.41.38-.95.58-1.5.58l-2.7.04zm.9-4.03h1.65c.31.01.61-.11.82-.34.43-.39.46-1.05.07-1.48-.01-.01-.02-.02-.02-.03a.997.997 0 00-.79-.34h-1.68l-.05 2.19zm0 3.16h1.82c.32.01.63-.12.85-.36.21-.22.32-.5.33-.8 0-.65-.53-1.17-1.18-1.17h-1.79l-.03 2.33z" stroke="#fff" stroke-width=".081" stroke-miterlimit="10"/><defs><linearGradient id="paint0_linear_501_5588" x1="29.102" y1="13.966" x2="9.376" y2="33.691" gradientUnits="userSpaceOnUse"><stop stop-color="#00A0FF"/><stop offset=".01" stop-color="#00A1FF"/><stop offset=".26" stop-color="#00BEFF"/><stop offset=".51" stop-color="#00D2FF"/><stop offset=".76" stop-color="#00DFFF"/><stop offset="1" stop-color="#00E3FF"/></linearGradient><linearGradient id="paint1_linear_501_5588" x1="39.462" y1="23.271" x2="11.026" y2="23.271" gradientUnits="userSpaceOnUse"><stop stop-color="#FFE000"/><stop offset=".41" stop-color="#FFBD00"/><stop offset=".78" stop-color="orange"/><stop offset="1" stop-color="#FF9C00"/></linearGradient><linearGradient id="paint2_linear_501_5588" x1="27.895" y1="24.822" x2="1.14" y2="51.565" gradientUnits="userSpaceOnUse"><stop stop-color="#FF3A44"/><stop offset="1" stop-color="#C31162"/></linearGradient><linearGradient id="paint3_linear_501_5588" x1="6.867" y1="1.534" x2="18.811" y2="13.478" gradientUnits="userSpaceOnUse"><stop stop-color="#32A071"/><stop offset=".07" stop-color="#2DA771"/><stop offset=".48" stop-color="#15CF74"/><stop offset=".8" stop-color="#06E775"/><stop offset="1" stop-color="#00F076"/></linearGradient></defs></svg>