<svg width="111" height="56" fill="none" xmlns="http://www.w3.org/2000/svg"><g clip-path="url(#clip0_516_13855)"><path d="M0 0h111v56H0V0z" fill="#00ABC2"/><path d="M59.966 31.055c4.124 0 7.467-3.373 7.467-7.535 0-4.161-3.343-7.535-7.467-7.535-4.125 0-7.468 3.374-7.468 7.535 0 4.162 3.343 7.535 7.468 7.535zm0-16.097c.444-.006.61-.286.61-.622 0-.448-.61-2.582-.61-2.582s-.61 2.134-.61 2.582c0 .336.166.622.61.622zm8.484 8.562c.006.448.283.616.616.616.444 0 2.559-.616 2.559-.616s-2.115-.616-2.559-.616c-.333 0-.616.168-.616.616zm-8.484 8.562c-.444.006-.61.286-.61.622 0 .448.61 2.582.61 2.582s.61-2.134.61-2.582c0-.336-.166-.622-.61-.622zM51.48 23.52c-.006-.448-.284-.616-.617-.616-.444 0-2.558.616-2.558.616s2.114.616 2.558.616c.333 0 .616-.168.616-.616zm11.734-7.912c.414.167.674-.027.801-.337.17-.413.41-2.62.41-2.62s-1.372 1.732-1.542 2.146c-.127.31-.08.638.331.81zm4.591 11.187c-.164.414.03.677.337.806.41.172 2.598.423 2.598.423s-1.723-1.386-2.133-1.558c-.308-.129-.633-.084-.802.329zm-11.089 4.637c-.414-.167-.674.027-.801.337-.17.413-.41 2.62-.41 2.62s1.372-1.733 1.541-2.146c.127-.31.081-.639-.33-.81zm-4.589-11.187c.164-.414-.03-.677-.338-.806-.41-.172-2.598-.423-2.598-.423s1.723 1.386 2.134 1.558c.308.129.633.084.802-.329zm13.839-2.78c.318.313.632.234.868-.004.313-.316 1.377-2.26 1.377-2.26s-1.927 1.072-2.24 1.39c-.236.237-.319.557-.005.874zm0 12.109c-.31.321-.231.638.004.875.314.317 2.24 1.39 2.24 1.39s-1.063-1.944-1.377-2.26c-.235-.238-.553-.321-.867-.005zm-12.002 0c-.318-.313-.632-.233-.868.004-.314.317-1.377 2.261-1.377 2.261s1.927-1.073 2.24-1.39c.236-.237.318-.558.005-.875zm0-12.109c.31-.32.231-.637-.004-.875-.314-.317-2.241-1.39-2.241-1.39s1.063 1.944 1.377 2.261c.236.238.554.321.868.004zm13.841 2.78c.174.41.494.458.802.329.41-.172 2.133-1.559 2.133-1.559s-2.188.252-2.598.424c-.308.13-.506.393-.337.806zm-4.59 11.187c-.41.178-.458.5-.33.81.169.414 1.541 2.147 1.541 2.147s-.24-2.207-.41-2.62c-.127-.31-.39-.51-.8-.337zm-11.088-4.637c-.174-.41-.494-.458-.802-.329-.41.172-2.134 1.559-2.134 1.559s2.188-.252 2.599-.424c.308-.13.506-.393.337-.806zm4.59-11.187c.409-.178.457-.5.33-.81-.169-.414-1.542-2.147-1.542-2.147s.241 2.207.41 2.62c.128.31.39.51.802.337zm4.905-.488c.439.084.657-.157.721-.487.086-.439-.107-2.651-.107-2.651s-1.01 1.969-1.096 2.408c-.064.33.045.642.482.73zm6.663 10.068c-.08.438.16.657.487.724.436.088 2.63-.094 2.63-.094s-1.958-1.021-2.394-1.11c-.327-.065-.637.042-.723.48zm-9.978 6.732c-.438-.084-.656.157-.72.487-.086.439.106 2.651.106 2.651s1.01-1.969 1.097-2.408c.064-.33-.045-.642-.483-.73zm-6.663-10.068c.08-.438-.16-.657-.487-.724-.436-.088-2.63.094-2.63.094s1.959 1.021 2.395 1.11c.327.066.637-.042.722-.48zM64.681 16.4c.374.245.667.106.852-.173.246-.372.908-2.488.908-2.488s-1.681 1.428-1.928 1.8c-.184.28-.202.61.168.86zm2.339 11.875c-.241.375-.102.67.175.857.37.25 2.468.927 2.468.927s-1.423-1.698-1.793-1.948c-.277-.187-.605-.207-.85.164zm-11.772 2.366c-.373-.245-.666-.107-.85.172-.247.372-.91 2.488-.91 2.488s1.682-1.428 1.928-1.8c.185-.279.203-.61-.168-.86zm-2.336-11.876c.24-.374.102-.67-.175-.856-.37-.25-2.468-.927-2.468-.927s1.423 1.698 1.793 1.947c.277.187.605.207.85-.164zm14.11-.002c.251.37.575.353.852.167.369-.249 1.788-1.947 1.788-1.947s-2.098.673-2.467.922c-.277.187-.42.485-.173.858zM64.68 30.64c-.366.253-.35.58-.166.859.247.372 1.93 1.804 1.93 1.804s-.668-2.116-.914-2.489c-.185-.28-.481-.423-.85-.174zm-11.77-2.363c-.252-.37-.575-.354-.852-.167-.369.25-1.788 1.947-1.788 1.947s2.097-.673 2.467-.922c.276-.187.42-.485.173-.858zM55.252 16.4c.366-.252.35-.579.165-.858-.247-.373-1.929-1.805-1.929-1.805s.667 2.117.914 2.49c.185.279.48.423.85.174zm13.035 5.45c.091.438.396.548.723.482.435-.087 2.39-1.107 2.39-1.107s-2.193-.188-2.628-.1c-.327.065-.572.285-.486.725zM61.62 31.918c-.435.093-.544.4-.479.73.087.44 1.098 2.412 1.098 2.412s.187-2.213.1-2.652c-.065-.33-.283-.577-.719-.49zm-9.979-6.728c-.092-.438-.396-.548-.723-.483-.435.088-2.39 1.108-2.39 1.108s2.193.188 2.628.1c.327-.065.572-.285.485-.725zm6.667-10.068c.434-.093.544-.4.479-.73-.087-.439-1.098-2.411-1.098-2.411s-.187 2.213-.1 2.652c.065.33.283.577.719.49zm.326 24.72c-.2.011-.394.038-.584.1-.261.035-.51.126-.77.17l-.104.016-.173.017a.653.653 0 01.018.145c0 .05-.005.1-.018.14a.341.341 0 01-.074.118.408.408 0 01-.123.099.383.383 0 01-.144.035.373.373 0 01-.15-.018.419.419 0 01-.138-.086 1.169 1.169 0 01-.156.028.637.637 0 01-.146 0 1.516 1.516 0 01-.155-.053.898.898 0 01-.145-.076c-.188.112-.4.218-.514.414-.065.09-.078.193-.092.299a.82.82 0 00.08.39c.02.036.036-.129.099-.151a.979.979 0 01.37-.187c.113-.058.098.004.052.094-.011.046-.074.224.01.134.377-.168.793-.202 1.198-.233a19.314 19.314 0 011.768-.083l1.665.036c.265.008.531.067.792.022.063-.016.161-.02.198-.058-.118-.069-.257-.07-.388-.087h-1.058c-.295-.03-.602-.034-.88-.146-.073-.03-.142-.1-.212-.024a1.25 1.25 0 01-.33.07 1.262 1.262 0 01-.567-.098c.13-.181.285-.34.427-.508a4.42 4.42 0 01-.34-.07c.201-.14.388-.3.584-.449z" fill="#FFEC2D"/><path d="M67.276 41.777c-.402.243-.709-.188-1.045-.318-.24.131-.262.572-.486.78-.269.308-.598-.086-.573-.39-.32.273-.483.892-1.002.809-.246-.203-.429-.627-.617-.144-.153.237-.56.573-.772.216-.065-.315-.222-.686-.392-.185-.117.354-.491.615-.853.46-.199-.164.159-.769-.094-.726-.377.252-.597.877-1.123.827-.205-.232.124-.624-.1-.881-.265.343-.56.845-1.017.88-.221-.18.009-.7-.133-.776-.47.284-.965.791-1.556.632.23-.889 1.192-1.2 2.002-1.27 1.392-.172 2.857.145 4.197-.362.216-.133.74-.321.554-.63-.166-.243.43-.148.487-.432-.035-.36.274-.31.576-.342 1.353-.06 2.689.228 4.038.277.102.663-.627 1.129-1.214.924-.28.046-.701-.65-.619-.144-.056.266-.017.617-.258.795m-11.51-1.358c.313.29.533-.054.825-.18.982-.34 1.839-.936 2.684-1.531.511-.428.955-.982 1.642-1.12 1.34-.41 2.766-.36 4.112-.737 1.025-1.416 2.765-1.92 4.223-2.735.328-.102.454-.374.559-.674.556-.887 1.314-1.672 2.21-2.209.425-.234.931-.369 1.412-.262-.035.578-.363 1.09-.76 1.488.325-.007.604-.214.931-.202.113.593-.521.903-.859 1.271.188.044.908.1.516.29-.5.35-1.07.59-1.532.996.425.077.474.168.041.324-.234.16-.685.216-.728.528.321.2-.148.398-.33.463-.346.081-.71.233-.25.498-.174.266-.547.322-.852.296.092.3.226.637-.16.77-.868.661-1.885 1.142-2.975 1.253 1.361.105 2.764-.15 3.928-.897.153-.184.959-.38.508-.535-.212-.089-.667-.188-.698-.35.63-.393 1.425-.254 2.103-.486.017-.222-.516-.16-.715-.21-.474-.04-.446-.162.011-.207.579-.155 1.234-.185 1.72-.566-.396-.185-.894-.022-1.317-.173.717-.317 1.562-.348 2.205-.824.293-.328-.375-.226-.57-.218-.397.07-.58-.122-.13-.288.77-.573 1.745-.945 2.286-1.775.128-.186.302-.746-.107-.545-.537.18-1.01.79-1.622.602 1.206-.944 2.354-2.017 3.178-3.323.043-.376-.543-.417-.695-.121-.775.753-1.477 1.642-2.469 2.115.95-.926 1.736-2.021 2.421-3.157.147-.338.542-.744.328-1.12-.346-.288-.778-.024-.957.322-.603.793-1.06 1.72-1.835 2.366.678-1.306 1.38-2.697 1.398-4.203-.002-.31-.064-.767-.481-.709-.331.06-.253.56-.39.812-.3 1.03-.44 2.144-1.056 3.045.138-.836.38-1.708.194-2.552-.087-.378-.69-.215-.613.158-.721 3.688-3.174 6.914-6.382 8.78a13.676 13.676 0 01-4.778 1.624c-.45.1-.935.041-1.364.195-1.04.805-1.67 2.151-2.986 2.573-.59.296-1.36.356-1.781.909a.484.484 0 00-.043.231z" fill="#FFEC2D"/><path d="M59.707 36.677c-.194.356-.309.765-.558 1.084-.752-.69-1.841-.668-2.795-.714-.786-.042-1.642-.115-2.25-.681-.641-.53-1.164-1.217-1.88-1.646-.653-.18-1.311-.404-1.836-.856-1.123-.923-1.765-2.292-2.862-3.244-.209-.207-.456-.368-.69-.544-.222.054-.122.539-.394.292-.148-.107-.519-.117-.552.032.335.445.67.954.717 1.524-.228.024-.635-.048-.748.038.303.459.692.866 1.135 1.19-.212.035-.63.016-.712.102.44.361.91.73 1.485.823.117.157-.172.459.071.592.142.059.608.156.287.318-.22.15-.139.499.143.491.178.092.578.114.61.273-.159.163-.65.355-.232.507.391.218.837.36 1.283.376-.224.19-.5.298-.73.477 1.029.609 2.17 1.01 3.298 1.395.449.151.903.292 1.369.381-1.353-.078-2.66-.482-3.892-1.035a34.633 34.633 0 00-1.935-.8c.287-.15.618-.187.916-.317-.617-.125-1.292-.166-1.835-.508.083-.15.399-.157.573-.233.328-.08.532-.176.069-.205-.467-.128-1.002-.07-1.413-.354.027-.17.457-.111.632-.184.22-.039.466-.07.643-.22-.722-.302-1.665-.088-2.23-.731-.13-.245.405-.048.557-.088.387 0 .803.123 1.172-.034-1.051-.465-2.177-.901-2.978-1.762-.09-.139-.356-.517-.14-.564.623.084 1.074.77 1.742.664.088-.12-.388-.319-.507-.49-.973-.843-1.917-1.757-2.599-2.86-.047-.369.528-.424.679-.14.744.723 1.416 1.567 2.342 2.06.329.162-.189-.19-.258-.317-.856-1.003-1.67-2.063-2.27-3.244-.106-.213-.284-.599.037-.712.32-.162.638.059.8.336.63.801 1.093 1.753 1.877 2.42-.668-1.307-1.381-2.684-1.398-4.19.015-.291.034-.733.426-.72.33-.051.277.374.385.577.325 1.106.466 2.303 1.117 3.28-.144-.821-.355-1.666-.215-2.5.033-.274.338-.356.538-.19.16.397.194.889.341 1.315.836 2.885 2.713 5.422 5.159 7.125a13.504 13.504 0 006.844 2.371c.22.02.441.026.662.04m-3.097 3.825a.132.132 0 00.131-.132.132.132 0 00-.131-.133.132.132 0 00-.132.133c0 .073.06.132.132.132z" fill="#FFEC2D"/><path d="M56.599 40.403c.03 0 .053-.025.053-.054a.054.054 0 00-.053-.055.054.054 0 00-.054.055c0 .03.024.054.053.054z" fill="#FFEC2D" stroke="#FFEC2D" stroke-width=".191"/><path d="M6.66 4.084s-.534-.452-.715-.226c-.291.365.896 2.183.896 2.823 0 1.05-.695 1.336-1.552 1.486-.576.1-1.513-.042-1.513-.042.176-.24.29-.31.588-.33a1.252 1.252 0 01-.668-1.135c0-.904.369-1.276.369-2.295 0-.565-.46-1.285-.46-1.285.812.082 1.215.84.986 1.447a.391.391 0 00.347-.107c.06.168-.034.363-.16.53.101.055.176.023.337-.01-.016.172-.118.356-.37.53.73-.192 1.18.321 1.18.859 0 .406-.283.697-.558.697a.559.559 0 01-.294-.093c-.052.112-.025.261.028.373-.201-.054-.33-.175-.238-.427a.51.51 0 01-.363-.168.43.43 0 01.363-.168c-.113-.235.012-.367.196-.473 0 0-.117.473.181.473.134 0 .256-.044.256-.243 0-.174-.15-.414-.498-.398-.347.015-.628.241-.628.8 0 .517.412.773.956.79.49.015.86-.253.86-.763 0-.68-.972-2.227-.972-2.832 0-.455.405-.708.801-.708.514 0 .947.513.947.513l-.302.382z" fill="#FFEC2D"/><path d="M6.772 16.36c0 1.135-1.01 1.719-1.803 1.719-1.07 0-1.639-.645-1.639-1.49 0-.478.087-.779.306-1.237l2.45-5.133c.086-.178.113-.381.113-.68 0-.46-.442-.835-.906-.847-.422-.01-.883.398-.883.863 0 .565.29.817.589.817.367 0 .513-.152.513-.412 0-.181-.086-.26-.211-.26-.315 0-.227.428-.227.428a.292.292 0 01-.211-.397.567.567 0 01-.306-.184.572.572 0 01.306-.168c-.074-.245.025-.365.238-.416a.432.432 0 00-.03.264c.335-.097.85.057.85.641 0 .58-.4 1.07-1.149.947.178.086.269.262.287.459-.136-.054-.287-.061-.287-.061.088.155.21.29.204.595-.139-.063-.268-.181-.445-.107.279.554-.064 1.317-.937 1.497.32-.378.476-.785.476-1.191 0-1.316-.362-1.537-.362-2.452 0-.383.195-.796.581-1.077v.015c-.255-.069-.419-.196-.513-.368.583-.167 1.432-.164 1.887.017.524.061.89.466.997.672.108.206.317.95 0 1.62l-2.492 5.33a1.76 1.76 0 00-.174.749c0 .673.612.909.96.909.415 0 .838-.32.838-.718 0-.253-.136-.405-.333-.405-.469 0-.44.403-.347.657-.292-.133-.462-.37-.415-.619a.746.746 0 01-.468-.267c.114-.146.253-.256.468-.26-.094-.387.163-.55.415-.641-.08.284-.132.61.347.61.35 0 .625.062.786.29l.037-1.511c.02-.454-.601-.44-.996-.306.149-.522.455-.805 1.163-.733a.563.563 0 01-.355-.55c0-.425.342-.896.566-1.036l.112 4.427z" fill="#FFEC2D"/><path d="M6.772 19.765c0-1.135-1.01-1.719-1.803-1.719-1.07 0-1.639.645-1.639 1.49 0 .478.087.779.306 1.237l2.45 5.133c.086.178.113.381.113.68 0 .46-.442.836-.906.847-.422.01-.883-.398-.883-.863 0-.565.29-.817.589-.817.367 0 .513.152.513.412 0 .181-.086.26-.211.26-.315 0-.227-.428-.227-.428a.292.292 0 00-.211.397.567.567 0 00-.306.184.572.572 0 00.306.168c-.074.245.025.365.238.416a.431.431 0 01-.03-.264c.335.097.85-.056.85-.641 0-.58-.4-1.07-1.149-.947.178-.086.269-.262.287-.458-.136.053-.287.06-.287.06.088-.155.21-.29.204-.595-.139.064-.268.181-.445.107.279-.555-.064-1.317-.937-1.497.32.378.476.785.476 1.191 0 1.316-.362 1.537-.362 2.452 0 .383.195.796.581 1.077v-.015c-.255.069-.419.196-.513.368.583.167 1.432.164 1.887-.017.524-.061.89-.466.997-.672.108-.206.317-.95 0-1.62l-2.492-5.33a1.76 1.76 0 01-.174-.749c0-.673.612-.909.96-.909.415 0 .838.32.838.718 0 .253-.136.405-.333.405-.469 0-.44-.403-.347-.657-.292.133-.462.37-.415.619a.746.746 0 00-.468.267c.114.146.253.256.468.26-.094.387.163.55.415.641-.08-.284-.132-.61.347-.61.35 0 .625-.062.786-.29l.037 1.511c.02.454-.601.44-.996.306.149.522.455.805 1.163.733a.563.563 0 00-.355.55c0 .425.342.896.566 1.036l.112-4.427zM6.66 4.084s.534-.452.715-.226c.291.365-.896 2.183-.896 2.823 0 1.05.695 1.336 1.553 1.486.575.1 1.513-.042 1.513-.042-.177-.24-.292-.31-.589-.33.331-.173.668-.55.668-1.135 0-.904-.368-1.276-.368-2.295 0-.565.459-1.285.459-1.285-.812.082-1.214.84-.986 1.447a.394.394 0 01-.347-.107c-.06.168.035.363.16.53-.101.055-.175.023-.336-.01.015.172.118.356.37.53-.73-.192-1.18.321-1.18.859 0 .406.282.697.558.697.089 0 .22-.037.293-.093.052.112.025.261-.028.373.202-.054.33-.175.239-.427a.51.51 0 00.362-.168.43.43 0 00-.362-.168c.113-.235-.013-.367-.197-.473 0 0 .117.473-.18.473-.135 0-.257-.044-.257-.243 0-.174.15-.414.498-.398.347.015.629.241.629.8 0 .517-.413.773-.956.79-.49.015-.86-.253-.86-.763 0-.68.971-2.227.971-2.832 0-.455-.405-.708-.8-.708-.514 0-.947.513-.947.513l.301.382z" fill="#FFEC2D"/><path d="M6.548 16.36c0 1.135 1.01 1.719 1.804 1.719 1.069 0 1.638-.645 1.638-1.49 0-.478-.087-.779-.305-1.237l-2.45-5.133c-.087-.178-.114-.381-.114-.68 0-.46.442-.835.906-.847.423-.01.883.398.883.863 0 .565-.29.817-.589.817-.367 0-.513-.152-.513-.412 0-.181.087-.26.211-.26.315 0 .227.428.227.428a.292.292 0 00.211-.397.567.567 0 00.306-.184.572.572 0 00-.306-.168c.074-.245-.024-.365-.237-.416a.432.432 0 01.03.264c-.336-.097-.85.057-.85.641 0 .58.4 1.07 1.148.947-.178.086-.269.262-.287.459.136-.054.287-.061.287-.061-.088.155-.21.29-.204.595.139-.063.268-.181.446-.107-.28.554.063 1.317.936 1.497-.32-.378-.476-.785-.476-1.191 0-1.316.363-1.537.363-2.452 0-.383-.195-.796-.582-1.077v.015c.256-.069.42-.196.513-.368-.583-.167-1.431-.164-1.887.017-.524.061-.889.466-.997.672-.107.206-.317.95 0 1.62l2.492 5.33c.108.234.174.481.174.749 0 .673-.612.909-.96.909-.414 0-.837-.32-.837-.718 0-.253.136-.405.332-.405.47 0 .44.403.347.657.292-.133.462-.37.416-.619a.746.746 0 00.468-.267c-.115-.146-.254-.256-.468-.26.093-.387-.164-.55-.416-.641.08.284.132.61-.347.61-.35 0-.625.062-.785.29l-.038-1.511c-.02-.454.601-.44.997-.306-.15-.522-.455-.805-1.163-.733a.563.563 0 00.355-.55c0-.425-.342-.896-.567-1.036l-.112 4.427z" fill="#FFEC2D"/><path d="M6.548 19.765c0-1.135 1.01-1.719 1.804-1.719 1.069 0 1.638.645 1.638 1.49 0 .478-.087.779-.305 1.237l-2.45 5.133c-.087.178-.114.381-.114.68 0 .46.442.836.906.847.423.01.883-.398.883-.863 0-.565-.29-.817-.589-.817-.367 0-.513.152-.513.412 0 .181.087.26.211.26.315 0 .227-.428.227-.428a.292.292 0 01.211.397c.12.027.226.091.306.184a.572.572 0 01-.306.168c.074.245-.024.365-.237.416a.432.432 0 00.03-.264c-.336.097-.85-.056-.85-.641 0-.58.4-1.07 1.148-.947-.178-.086-.269-.262-.287-.458.136.053.287.06.287.06-.088-.155-.21-.29-.204-.595.139.064.268.181.446.107-.28-.555.063-1.317.936-1.497-.32.378-.476.785-.476 1.191 0 1.316.363 1.537.363 2.452 0 .383-.195.796-.582 1.077v-.015c.256.069.42.196.513.368-.583.167-1.431.164-1.887-.017-.524-.061-.889-.466-.997-.672-.107-.206-.317-.95 0-1.62l2.492-5.33a1.76 1.76 0 00.174-.749c0-.673-.612-.909-.96-.909-.414 0-.837.32-.837.718 0 .253.136.405.332.405.47 0 .44-.403.347-.657.292.133.462.37.416.619a.746.746 0 01.468.267c-.115.146-.254.256-.468.26.093.387-.164.55-.416.641.08-.284.132-.61-.347-.61-.35 0-.625-.062-.785-.29l-.038 1.511c-.02.454.601.44.997.306-.15.522-.455.805-1.163.733a.563.563 0 01.355.55c0 .425-.342.896-.567 1.036l-.112-4.427zm.112 32.152s-.534.452-.715.225c-.291-.365.896-2.182.896-2.822 0-1.05-.695-1.336-1.552-1.486-.576-.1-1.513.042-1.513.042.176.24.29.31.588.329-.33.173-.668.55-.668 1.136 0 .903.369 1.276.369 2.295 0 .565-.46 1.284-.46 1.284.812-.082 1.215-.84.986-1.446.129-.02.246.01.347.107.06-.168-.034-.363-.16-.531.101-.055.176-.022.337.011-.016-.173-.118-.357-.37-.53.73.191 1.18-.322 1.18-.86 0-.405-.283-.696-.558-.696a.56.56 0 00-.294.093c-.052-.112-.025-.262.028-.373-.201.053-.33.174-.238.426a.51.51 0 00-.363.168.43.43 0 00.363.168c-.113.236.012.367.196.474 0 0-.117-.474.181-.474.134 0 .256.044.256.244 0 .173-.15.413-.498.398-.347-.015-.628-.242-.628-.801 0-.516.412-.773.956-.79.49-.015.86.253.86.764 0 .679-.972 2.227-.972 2.832 0 .454.405.708.801.708.514 0 .947-.514.947-.514l-.302-.381z" fill="#FFEC2D"/><path d="M6.772 39.64c0-1.135-1.01-1.718-1.803-1.718-1.07 0-1.639.645-1.639 1.49 0 .478.087.778.306 1.236l2.45 5.133c.086.178.113.382.113.68 0 .46-.442.836-.906.848-.422.01-.883-.398-.883-.864 0-.565.29-.817.589-.817.367 0 .513.153.513.413 0 .18-.086.26-.211.26-.315 0-.227-.428-.227-.428a.292.292 0 00-.211.397.567.567 0 00-.306.183.572.572 0 00.306.168c-.074.246.025.366.238.416a.432.432 0 01-.03-.263c.335.096.85-.057.85-.642 0-.58-.4-1.069-1.149-.947.178-.086.269-.262.287-.458-.136.053-.287.061-.287.061.088-.156.21-.29.204-.596-.139.064-.268.182-.445.107.279-.554-.064-1.316-.937-1.497.32.378.476.786.476 1.192 0 1.316-.362 1.537-.362 2.452 0 .382.195.796.581 1.076v-.015c-.255.07-.419.196-.513.369.583.166 1.432.163 1.887-.017.524-.062.89-.467.997-.673.108-.205.317-.949 0-1.619l-2.492-5.33a1.761 1.761 0 01-.174-.75c0-.673.612-.908.96-.908.415 0 .838.319.838.718 0 .252-.136.405-.333.405-.469 0-.44-.403-.347-.657-.292.132-.462.369-.415.618a.746.746 0 00-.468.268c.114.145.253.255.468.26-.094.386.163.55.415.64-.08-.283-.132-.61.347-.61.35 0 .625-.061.786-.29l.037 1.512c.02.453-.601.44-.996.305.149.523.455.805 1.163.734a.563.563 0 00-.355.55c0 .425.342.896.566 1.035l.112-4.427z" fill="#FFEC2D"/><path d="M6.772 36.236c0 1.135-1.01 1.718-1.803 1.718-1.07 0-1.639-.645-1.639-1.49 0-.478.087-.778.306-1.236l2.45-5.133c.086-.178.113-.382.113-.68 0-.46-.442-.836-.906-.848-.422-.01-.883.398-.883.864 0 .565.29.817.589.817.367 0 .513-.152.513-.413 0-.18-.086-.26-.211-.26-.315 0-.227.428-.227.428a.292.292 0 01-.211-.397.567.567 0 01-.306-.183.572.572 0 01.306-.168c-.074-.246.025-.366.238-.416a.431.431 0 00-.03.263c.335-.096.85.057.85.642 0 .58-.4 1.069-1.149.947.178.086.269.261.287.458-.136-.053-.287-.061-.287-.061.088.156.21.29.204.596-.139-.064-.268-.182-.445-.107.279.554-.064 1.316-.937 1.497.32-.378.476-.786.476-1.192 0-1.316-.362-1.537-.362-2.452 0-.382.195-.796.581-1.076v.015c-.255-.07-.419-.196-.513-.369.583-.166 1.432-.163 1.887.017.524.062.89.467.997.673.108.205.317.949 0 1.619l-2.492 5.33a1.76 1.76 0 00-.174.75c0 .673.612.908.96.908.415 0 .838-.319.838-.718 0-.252-.136-.404-.333-.404-.469 0-.44.402-.347.656-.292-.132-.462-.369-.415-.618a.746.746 0 01-.468-.268c.114-.145.253-.255.468-.26-.094-.386.163-.55.415-.64-.08.283-.132.61.347.61.35 0 .625.061.786.29l.037-1.512c.02-.453-.601-.44-.996-.305.149-.523.455-.805 1.163-.734a.563.563 0 01-.355-.55c0-.425.342-.896.566-1.035l.112 4.427zM6.66 51.917s.534.452.715.225c.291-.365-.896-2.182-.896-2.822 0-1.05.695-1.336 1.553-1.486.575-.1 1.513.042 1.513.042-.177.24-.292.31-.589.329.331.173.668.55.668 1.136 0 .903-.368 1.276-.368 2.295 0 .565.459 1.284.459 1.284-.812-.082-1.214-.84-.986-1.446a.394.394 0 00-.347.107c-.06-.168.035-.363.16-.531-.101-.055-.175-.022-.336.011.015-.173.118-.357.37-.53-.73.191-1.18-.322-1.18-.86 0-.405.282-.696.558-.696a.56.56 0 01.293.093c.052-.112.025-.262-.028-.373.202.053.33.174.239.426a.51.51 0 01.362.168.43.43 0 01-.362.168c.113.236-.013.367-.197.474 0 0 .117-.474-.18-.474-.135 0-.257.044-.257.244 0 .173.15.413.498.398.347-.015.629-.242.629-.801 0-.516-.413-.773-.956-.79-.49-.015-.86.253-.86.764 0 .679.971 2.227.971 2.832 0 .454-.405.708-.8.708-.514 0-.947-.514-.947-.514l.301-.381z" fill="#FFEC2D"/><path d="M6.548 39.64c0-1.135 1.01-1.718 1.804-1.718 1.069 0 1.638.645 1.638 1.49 0 .478-.087.778-.305 1.236l-2.45 5.133c-.087.178-.114.382-.114.68 0 .46.442.836.906.848.423.01.883-.398.883-.864 0-.565-.29-.817-.589-.817-.367 0-.513.153-.513.413 0 .18.087.26.211.26.315 0 .227-.428.227-.428a.292.292 0 01.211.397c.12.026.226.09.306.183a.572.572 0 01-.306.168c.074.246-.024.366-.237.416a.432.432 0 00.03-.263c-.336.096-.85-.057-.85-.642 0-.58.4-1.069 1.148-.947-.178-.086-.269-.262-.287-.458.136.053.287.061.287.061-.088-.156-.21-.29-.204-.596.139.064.268.182.446.107-.28-.554.063-1.316.936-1.497-.32.378-.476.786-.476 1.192 0 1.316.363 1.537.363 2.452 0 .382-.195.796-.582 1.076v-.015c.256.07.42.196.513.369-.583.166-1.431.163-1.887-.017-.524-.062-.889-.467-.997-.673-.107-.205-.317-.949 0-1.619l2.492-5.33c.108-.234.174-.482.174-.75 0-.673-.612-.908-.96-.908-.414 0-.837.319-.837.718 0 .252.136.405.332.405.47 0 .44-.403.347-.657.292.132.462.369.416.618a.746.746 0 01.468.268c-.115.145-.254.255-.468.26.093.386-.164.55-.416.64.08-.283.132-.61-.347-.61-.35 0-.625-.061-.785-.29l-.038 1.512c-.02.453.601.44.997.305-.15.523-.455.805-1.163.734a.563.563 0 01.355.55c0 .425-.342.896-.567 1.035l-.112-4.427z" fill="#FFEC2D"/><path d="M6.548 36.236c0 1.135 1.01 1.718 1.804 1.718 1.069 0 1.638-.645 1.638-1.49 0-.478-.087-.778-.305-1.236l-2.45-5.133c-.087-.178-.114-.382-.114-.68 0-.46.442-.836.906-.848.423-.01.883.398.883.864 0 .565-.29.817-.589.817-.367 0-.513-.152-.513-.413 0-.18.087-.26.211-.26.315 0 .227.428.227.428a.292.292 0 00.211-.397.567.567 0 00.306-.183.572.572 0 00-.306-.168c.074-.246-.024-.366-.237-.416a.432.432 0 01.03.263c-.336-.096-.85.057-.85.642 0 .58.4 1.069 1.148.947-.178.086-.269.261-.287.458.136-.053.287-.061.287-.061-.088.156-.21.29-.204.596.139-.064.268-.182.446-.107-.28.554.063 1.316.936 1.497-.32-.378-.476-.786-.476-1.192 0-1.316.363-1.537.363-2.452 0-.382-.195-.796-.582-1.076v.015c.256-.07.42-.196.513-.369-.583-.166-1.431-.163-1.887.017-.524.062-.889.467-.997.673-.107.205-.317.949 0 1.619l2.492 5.33c.108.234.174.481.174.75 0 .673-.612.908-.96.908-.414 0-.837-.319-.837-.718 0-.252.136-.404.332-.404.47 0 .44.402.347.656.292-.132.462-.369.416-.618a.746.746 0 00.468-.268c-.115-.145-.254-.255-.468-.26.093-.386-.164-.55-.416-.64.08.283.132.61-.347.61-.35 0-.625.061-.785.29l-.038-1.512c-.02-.453.601-.44.997-.305-.15-.523-.455-.805-1.163-.734a.563.563 0 00.355-.55c0-.425-.342-.896-.567-1.035l-.112 4.427z" fill="#FFEC2D"/></g><defs><clipPath id="clip0_516_13855"><rect width="111" height="56" rx="10" fill="#fff"/></clipPath></defs></svg>