<svg width="50" height="50" fill="none" xmlns="http://www.w3.org/2000/svg"><path d="M33.331 16.69c0 9.208-7.463 16.665-16.662 16.665C7.463 33.355 0 25.891 0 16.691 0 7.483 7.463.026 16.669.026 25.869.02 33.33 7.483 33.33 16.691z" fill="#BED732"/><path d="M50 0h-2.97v50H50V0zm-6.496 0h-6.505v50h6.505V0z" fill="#fff"/><path d="M27.223 5.057h-5.358l-.053 1.515v12.299l7.08.074-5.511 18.475-7.751-.04-6.41 12.614 7.53.006c5.236 0 13.209-4.057 15.307-11.246 2.629-8.992 2.018-6.632 5.451-19.648 2.025-7.692-3.788-14.05-10.285-14.05z" fill="#fff"/></svg>