<svg width="50" height="50" fill="none" xmlns="http://www.w3.org/2000/svg"><path d="M33.331 16.691c0 9.208-7.463 16.665-16.662 16.665C7.463 33.356 0 25.892 0 16.69 0 7.484 7.463.027 16.669.027 25.869.02 33.33 7.484 33.33 16.69z" fill="#BED732"/><path d="M50 0h-2.97v50H50V0zm-6.496 0h-6.505v50h6.505V0z" fill="#000"/><path d="M27.223 5.056h-5.358l-.053 1.516V18.87l7.08.073-5.511 18.475-7.751-.04-6.41 12.614 7.53.007c5.236 0 13.209-4.057 15.307-11.246 2.629-8.993 2.018-6.632 5.451-19.649 2.025-7.692-3.788-14.049-10.285-14.049z" fill="#000"/></svg>