<svg width="320" height="111" fill="none" xmlns="http://www.w3.org/2000/svg"><path d="M155.167 1.676L56.13 1.654H29.86L0 109.557h33.524l7.027-25.397 108.649-.184c32.789 0 45.157-13.59 51.07-41.14 8.379-39.041-22.746-41.16-45.103-41.16zm14.855 40.674c-3.222 12.64-10.855 14.726-19.936 14.726H45.946l7.286-28.316 102.141.021c12.886 0 17.859.963 14.649 13.57zm81.956-40.675v96.821c0 1.611-1.059 11.612-22.411 11.612-21.308 0-22.4-10.001-22.4-11.612V1.676h20.044v91.9a2.371 2.371 0 002.356 2.369 2.374 2.374 0 002.368-2.368V1.674h20.043zm37.352 96.789V63.499c0-11.148-17.417-13.948-17.417-20.262v-32.08c0-.053.011-2.518 2.39-2.518 2.41 0 2.302 2.454 2.302 2.454l.022 24.5h12.389V11.147c0-1.07-.53-10.26-15.816-10.228-15.189.022-14.584 11.634-14.584 11.634v34.673c0 9.742 17.416 10.542 17.416 19.721V99.86c0 .054-.011 2.508-2.389 2.508-2.411 0-2.303-2.454-2.303-2.454l-.021-25.376H258.93v25.311c0 1.07.529 10.26 15.816 10.228 15.2 0 14.584-11.612 14.584-11.612zM320 1.675v107.882h-9.633v-49.79h-4.778v49.79h-9.643V1.675h9.643v49.573h4.778V1.675H320z" fill="#000"/></svg>