<svg width="160" height="161" fill="none" xmlns="http://www.w3.org/2000/svg"><path d="M108 106.995C108 136.816 83.828 161 54 161S0 136.826 0 106.995C0 77.174 24.172 53 54 53s54 24.174 54 53.995z" fill="#BED732"/><path d="M160 0h-9.495v160H160V0zm-20.771 0h-20.808v30.577h20.808V0zm0 128.664h-20.808v31.327h20.808v-31.327z" fill="#000"/><path d="M85.427 5.427c-41.186 0-74.564 33.389-74.564 74.568 0 41.188 33.388 74.568 74.564 74.568 41.176 0 74.564-33.39 74.564-74.568 0-41.189-33.378-74.568-74.564-74.568zm0 132.469c-31.981 0-57.898-25.928-57.898-57.901 0-31.984 25.926-57.902 57.898-57.902 31.981 0 57.898 25.928 57.898 57.902 0 31.973-25.917 57.901-57.898 57.901z" fill="#000"/><path d="M127.745 27.004l-95.267 95.273 10.617 10.618 95.268-95.273-10.618-10.618z" fill="#000"/><path d="M100.565 57.845H76.007v63.948h24.558V57.845z" fill="#000"/><path d="M92.747 38.235h-8.913V89.82h8.913V38.235z" fill="#000"/><path d="M94.116 28.42h-11.66v14.604h11.66V28.421z" fill="#000"/></svg>