<svg width="160" height="160" fill="none" xmlns="http://www.w3.org/2000/svg"><path d="M108 54c0 29.819-24.173 54-54 54-29.82 0-54-24.173-54-54C0 24.18 24.173 0 54 0s54 24.18 54 54z" fill="#BED732"/><path d="M108.696 5.281H75.927l-.009.054c-.305-.018-.601-.054-.916-.054-19.711 0-44.146 34.025-54.572 75.998-10.426 41.974-2.91 75.999 16.81 75.999.315 0 .63-.037.944-.055l-.01.055h32.77c19.71 0 44.146-34.025 54.581-75.999 10.408-41.973 2.883-75.998-16.829-75.998zm-69.91 136.251c-14.252 0-19.093-26.976-10.822-60.262 8.271-33.285 26.528-60.261 40.77-60.261 14.252 0 19.092 26.976 10.822 60.261-8.262 33.286-26.519 60.262-40.77 60.262zM160 2.677h-9.295V160H160V2.677z" fill="#000"/><path d="M143.162 2.677h-20.385V160h20.385V2.677zM47.63 105.93c-5.827 0-7.812-11.04-4.426-24.65 3.385-13.62 10.848-24.66 16.685-24.66 5.828 0 7.813 11.04 4.427 24.66-3.386 13.618-10.848 24.65-16.685 24.65z" fill="#000"/></svg>