<svg width="170" height="160" fill="none" xmlns="http://www.w3.org/2000/svg"><path d="M108 106c0 29.821-24.179 54-54 54S0 135.821 0 106s24.179-54 54-54 54 24.179 54 54z" fill="#BED732"/><path d="M160.259 99.697V34.05h-31.088l-23.71 85.585H18.844l-5.522 19.937H170V99.697h-9.741zm-6.066 0h-9.515V64.645h9.515v35.052z" fill="#000"/><path d="M152.122 159.632h6.768c.76 0 1.379-.618 1.379-1.368v-33.675h-9.516v33.675c-.01.75.609 1.368 1.369 1.368zM70.23 136.838c.824 9.44-5.607 19.46-14.363 22.363-8.757 2.913-16.529-2.388-17.354-11.828-.825-9.439 5.607-19.46 14.363-22.363 8.766-2.912 16.528 2.388 17.353 11.828zM43.079 33.114a33.736 33.736 0 013.328-.29c4.031-.159 9.59-1.292 7.828 4.673-.722 2.454-1.753 8.129-3.89 9.543-9.479 6.265-12.779 10.685-12.676 18.308.094 7.239 4.707 11.856 10.454 14.113 7.697 3.025 21.066.374 22.06-14.16 1.153-16.969 4.725-17.203 7.2-19.9 1.78-1.929 3.16-.87 2.962 1.948-.375 5.347 1.05 14.646.919 19.797-.44 18.168-15.77 32.898-33.966 32.664-19.473-.243-34.941-17.053-32.945-36.972C15.91 47.611 27.91 35.193 43.08 33.114z" fill="#000"/><path d="M64.707 37.422l-16.96 11.35-16.968-11.35V0h33.928v37.422z" fill="#000"/><path d="M126.19 0H45.995v19.938h80.195V0z" fill="#000"/><path d="M83.308 136.164L121.033 0h11.579L94.886 136.164H83.308z" fill="#000"/></svg>