<svg width="184" height="160" fill="none" xmlns="http://www.w3.org/2000/svg"><path d="M165.756 4.863H98.7V1.406c0-.77.623-1.406 1.4-1.406h65.666v4.863h-.01z" fill="#000"/><path d="M108 54c0 29.824-24.176 54-54 54S0 83.824 0 54 24.176 0 54 0c29.824.009 54 24.185 54 54z" fill="#BED732"/><path d="M165.756 160h-48.083c-5.506 0-16.872-6.172-16.872-20.019 0-14.579 11.366-20.02 16.872-20.02h48.083V160z" fill="#000"/><path d="M183.06 131.921h-21.658a.944.944 0 01-.94-.944v-4.631c0-.52.422-.944.94-.944h21.658c.518 0 .94.424.94.944v4.631c0 .52-.422.944-.94.944zm0 21.907h-21.658a.944.944 0 01-.94-.944v-4.632c0-.52.422-.943.94-.943h21.658c.518 0 .94.423.94.943v4.632c0 .52-.422.944-.94.944zM107.352 0h-6.417C58.002 0 23.203 38.556 23.203 86.105v73.837h40.055L107.352 0z" fill="#000"/><path d="M111.879 136.697H47.537v6.567h64.342v-6.567zm-5.582-67.906l16.047.125-12.911 47.405 29.984-56.427h-14.426l13.055-47.376-31.749 56.273zm59.459-63.929h-8.651v110.862h8.651V4.862z" fill="#000"/></svg>