<svg width="160" height="160" fill="none" xmlns="http://www.w3.org/2000/svg"><path d="M108 54c0 29.823-24.177 54-54 54S0 83.823 0 54 24.177 0 54 0c29.814-.009 54 24.168 54 54z" fill="#BED732"/><path d="M160.001 0h-9.495v160.001h9.495V0zm-20.764 0h-20.816v160.001h20.816V0z" fill="#000"/><path d="M105.926 67.334l6.927-24.16c1.597-5.655.477-11.594-3.071-16.28-3.547-4.685-8.956-7.376-14.833-7.376h-9.354c-8.339 0-15.707 5.612-17.922 13.606l-5.47 19.342h13.315l4.491-15.892a5.8 5.8 0 015.577-4.244h9.354a5.75 5.75 0 014.615 2.294 5.718 5.718 0 01.962 5.039l-7.933 27.671h-47.8l-15.929 55.854c-5.797 20.33 5.992 36.813 26.323 36.813s43.68-.556 43.68-.556l26.261-92.111h-19.193zm-22.21 30.292c-1.156 3.918-4.157 7.368-7.766 9.415l-3.741 12.653H59.396l3.741-12.653c-2.4-2.047-3.362-5.506-2.197-9.415 1.862-6.291 8.472-11.392 14.763-11.392 6.274 0 9.866 5.1 8.013 11.392z" fill="#000"/></svg>