<svg width="20" height="20" fill="none" xmlns="http://www.w3.org/2000/svg"><g clip-path="url(#clip0_137_5526)" fill="#BED732"><path d="M10.68 11.3a.586.586 0 01-.828 0L7.189 8.637a.586.586 0 010-.829l.473-.473-1.39-1.39-1.139 1.139a.984.984 0 000 1.39l4.882 4.882a.975.975 0 00.695.286c.264 0 .51-.102.695-.286l1.139-1.14-1.39-1.39-.474.474z"/><path d="M19.16 7.059c0-1.878-.736-3.65-2.073-4.986A7.009 7.009 0 0012.1 0H7.918a7.009 7.009 0 00-4.986 2.073A7.01 7.01 0 00.86 7.059v3.288c0 1.454.444 2.854 1.284 4.046A7.083 7.083 0 005.04 16.79v1.888c0 .977.546 1.323 1.015 1.323.334 0 .669-.165.994-.49l2.104-2.105H12.1a7.008 7.008 0 004.986-2.073 7.008 7.008 0 002.073-4.986V7.06zm-5.373 5.572l-1.554 1.553a2.14 2.14 0 01-1.524.63 2.14 2.14 0 01-1.523-.63L4.304 9.303a2.158 2.158 0 010-3.048l1.554-1.553a.585.585 0 01.828 0L8.905 6.92a.586.586 0 010 .828l-.473.474 1.834 1.834.473-.474a.586.586 0 01.829 0l2.219 2.22a.585.585 0 010 .828zM9.566 5.688c0-.323.262-.586.586-.586a3.686 3.686 0 013.682 3.682.586.586 0 11-1.172 0 2.513 2.513 0 00-2.51-2.51.586.586 0 01-.586-.586zm6.192 3.682a.586.586 0 01-.586-.586 4.988 4.988 0 00-1.47-3.55 4.988 4.988 0 00-3.55-1.47.586.586 0 010-1.172c1.654 0 3.209.644 4.378 1.814a6.15 6.15 0 011.814 4.378.586.586 0 01-.586.586z"/></g><defs><clipPath id="clip0_137_5526"><path fill="#fff" d="M0 0h20v20H0z"/></clipPath></defs></svg>