<svg width="617" height="211" fill="none" xmlns="http://www.w3.org/2000/svg"><path d="M299.19 2.075c-4.538 0-186.19-.04-190.968-.04H57.569L0 209.562h64.635l13.553-48.846 209.498-.339c63.226 0 87.074-26.133 98.477-79.126C402.315 6.153 342.287 2.075 299.19 2.075zm28.625 78.209c-6.217 24.308-20.939 28.326-38.44 28.326H88.583l14.042-54.47 196.955.04c24.837.01 34.431 1.875 28.235 26.104zM485.84 2.065v186.21c0 3.091-2.039 22.334-43.207 22.334-41.078 0-43.187-19.243-43.187-22.334V2.065h38.65v176.758c0 2.493 2.039 4.547 4.537 4.547a4.557 4.557 0 004.558-4.547V2.065h38.649zm72.022 186.151v-67.262c0-21.447-33.582-26.82-33.582-38.965V20.291c0-.11.029-4.835 4.617-4.835 4.648 0 4.428 4.716 4.428 4.716l.05 47.13h23.897v-47.01c0-2.065-1.02-19.722-30.494-19.683-29.294.05-28.105 22.384-28.105 22.384v66.693c0 18.735 33.582 20.261 33.582 37.939v63.293c0 .109-.03 4.825-4.617 4.825-4.648 0-4.428-4.716-4.428-4.716l-.05-48.796h-23.897v48.687c0 2.054 1.019 19.721 30.484 19.682 29.304-.04 28.115-22.384 28.115-22.384zM617 2.065v207.497h-18.57v-95.757h-9.215v95.757h-18.58V2.065h18.58v95.349h9.215V2.064H617z" fill="#000"/></svg>