<svg width="502" height="226" fill="none" xmlns="http://www.w3.org/2000/svg"><path d="M113.98 157.249l-3.42 17.09H.67c11.72-80.59 118.44-68.38 118.44-126.98 0-15.87-12.7-29.3-35.41-29.3-13.43 0-22.47 6.35-28.57 12.45-3.66 3.66-6.59 7.57-8.79 12.21l-14.65-7.57c3.17-6.35 7.08-11.97 12.21-17.09C52.45 9.509 65.63.969 84.92.969c32.48 0 52.5 21 52.5 46.4 0 63.74-95.97 64.96-112.58 109.89h89.14v-.01zm24.41-40.29L244.37 3.409h23.2l-24.91 117.21h21.98l-3.66 17.09H239l-7.57 36.63h-18.31l7.57-36.63H134l4.39-20.75zm85.96 3.66l20.02-94.26-87.67 94.26h67.65zM366.96.969h17.09l-120.88 224.66h-16.84L366.96.969zM477.58 20.5h-86.69l3.66-17.09H502l-3.66 17.09-108.18 153.849H369.4l108.18-153.85z" fill="#000"/></svg>