<svg width="101" height="46" fill="none" xmlns="http://www.w3.org/2000/svg"><path d="M45.95 23c0-12.702-10.287-23-22.975-23S0 10.298 0 23s10.287 23 22.975 23S45.95 35.702 45.95 23z" fill="#BED732"/><path d="M54.77 7.886l-27.78-.007h-7.37l-8.375 30.294h9.4l1.972-7.13 30.475-.048c9.197 0 12.664-3.814 14.323-11.55C69.77 8.482 61.037 7.885 54.77 7.885zm4.163 11.416c-.904 3.547-3.046 4.136-5.592 4.136H24.134l2.041-7.95 28.647.007c3.617-.003 5.014.27 4.11 3.807zM81.922 7.887v27.181c0 .452-.298 3.26-6.285 3.26-5.977 0-6.281-2.808-6.281-3.26V7.887h5.623v25.8a.662.662 0 101.323 0v-25.8h5.62zm10.475 27.171V25.24c0-3.13-4.884-3.915-4.884-5.689v-9.004c0-.018.004-.705.672-.705.676 0 .645.688.645.688l.007 6.88h3.476v-6.863c0-.301-.147-2.881-4.436-2.874-4.26.007-4.09 3.267-4.09 3.267v9.737c0 2.733 4.885 2.958 4.885 5.538v9.239c0 .017-.003.704-.672.704-.676 0-.644-.687-.644-.687l-.007-7.122h-3.477v7.108c0 .302.147 2.878 4.436 2.87 4.261-.01 4.09-3.27 4.09-3.27zM101 7.887v30.287h-2.703V24.196h-1.34v13.978h-2.704V7.887h2.703v13.915h1.341V7.887H101z" fill="#fff"/></svg>