<svg width="77" height="77" fill="none" xmlns="http://www.w3.org/2000/svg"><g clip-path="url(#clip0_819_583)" stroke="#202020" stroke-width="3.333" stroke-miterlimit="10" stroke-linecap="round" stroke-linejoin="round"><path d="M67.471 51.165c-11.497 11.498-30.139 11.498-41.636 0-11.498-11.497-11.498-30.139 0-41.636 11.498-11.498 30.139-11.498 41.636 0 11.498 11.497 11.498 30.139 0 41.636z"/><path d="M67.932 37.65a22.495 22.495 0 01-5.59 9.164c-4.293 4.277-10 6.633-16.071 6.633-6.071 0-11.779-2.356-16.072-6.633-8.862-8.83-8.862-23.198 0-32.028 4.293-4.277 10-6.633 16.072-6.633 6.07 0 11.778 2.356 16.071 6.633a22.498 22.498 0 015.6 9.194M26.27 50.73l-6.34 6.34M3.174 73.826a4.65 4.65 0 010-6.576L16.07 54.353l6.576 6.576L9.75 73.826a4.65 4.65 0 01-6.576 0z"/><path d="M56.064 23.689a3.358 3.358 0 00-4.862 0l-6.805 7.038-3.199-3.31a3.357 3.357 0 00-4.862 0c-1.342 1.39-1.342 3.641 0 5.03l6.533 6.757a2.111 2.111 0 003.057 0l10.138-10.486c1.342-1.39 1.342-3.64 0-5.03z"/></g><defs><clipPath id="clip0_819_583"><path fill="#fff" d="M0 0h77v77H0z"/></clipPath></defs></svg>