<svg width="63" height="81" fill="none" xmlns="http://www.w3.org/2000/svg"><path d="M56 69V13m-.148-1H7c2.843 0 5.148-2.239 5.148-5S9.843 2 7 2h48.852c2.507 0 4.594 1.74 5.053 4.041.063.31.095.631.095.958C61 9.761 58.696 12 55.852 12z" stroke="#202020" stroke-width="3.333" stroke-miterlimit="10" stroke-linecap="round" stroke-linejoin="round"/><path d="M8 2l-1.714.001C3.908 2.061 2 3.965 2 6.306v68.388C2 77.037 3.912 78.943 6.292 79l.477.001M49.992 69h5.86C58.696 69 61 71.239 61 74c0 .328-.032.648-.095.959C60.445 77.26 58.358 79 55.852 79H7c2.843 0 5.148-2.239 5.148-5S9.843 69 7 69h28.798M44 34c0 7.732-6.268 14-14 14s-14-6.268-14-14 6.268-14 14-14 14 6.268 14 14z" stroke="#202020" stroke-width="3.333" stroke-miterlimit="10" stroke-linecap="round" stroke-linejoin="round"/><path d="M29.5 28l2.353 3.781L36 32.965l-2.693 3.522.21 4.513-4.017-1.605L25.483 41l.21-4.513L23 32.965l4.147-1.184L29.5 28zM16 58h29" stroke="#202020" stroke-width="3.333" stroke-miterlimit="10" stroke-linecap="round" stroke-linejoin="round"/></svg>