<svg width="74" height="81" fill="none" xmlns="http://www.w3.org/2000/svg"><path d="M51 30.056V2H10v77h41V44.206M10 2H6.882C4.186 2 2 4.045 2 6.568v67.864C2 76.954 4.186 79 6.882 79H10V2zm62 11H59v53h13V13zM68.901 2H62.1C60.387 2 59 3.465 59 5.272V13h13V5.272C72 3.465 70.613 2 68.901 2zM66 79l4-8h-8l4 8z" stroke="#202020" stroke-width="3.333" stroke-miterlimit="10" stroke-linecap="round" stroke-linejoin="round"/><path d="M69.212 71L72 65H59l2.789 6h7.423zM65 65V23m-34.5-7l3.8 5.817L41 23.64l-4.35 5.418.34 6.943-6.49-2.47L24.01 36l.34-6.943L20 23.639l6.7-1.822L30.5 16zM20 48h21m-18 7h14" stroke="#202020" stroke-width="3.333" stroke-miterlimit="10" stroke-linecap="round" stroke-linejoin="round"/></svg>