<svg width="235" height="64" fill="none" xmlns="http://www.w3.org/2000/svg"><circle cx="32" cy="32" r="32" fill="#F5AB1A"/><g clip-path="url(#clip0_807_266)" fill="#fff"><path d="M18.895 45.168c0 1.184.932 2.148 2.074 2.148H32.03c1.144 0 2.074-.964 2.074-2.148v-5.01h-15.21v5.01zm32.397-22.266h-5.228l-.829-1.646a2.119 2.119 0 00-1.9-1.166h-3.26l-2.396-.791a12.074 12.074 0 00-3.808-.615H20.125A2.12 2.12 0 0018 20.794v5.623a2.12 2.12 0 002.125 2.11h3.424l-1.248 8.044-2.413 1.797h14.548l-4.32-1.837.481-3.102a.704.704 0 00.84-.515l.708-2.812a.702.702 0 00-.515-.852.69.69 0 00-.39.026l.118-.75h2.512c1.297 0 2.578-.206 3.808-.614l2.395-.792h3.26c.81 0 1.538-.447 1.901-1.165l.829-1.647h5.229a.706.706 0 00.708-.703.706.706 0 00-.708-.703zm-25.5 2.812h-4.25a.706.706 0 01-.709-.703c0-.388.318-.703.709-.703h4.25c.39 0 .708.315.708.703a.706.706 0 01-.708.703zm0-2.812h-4.25a.706.706 0 01-.709-.703c0-.388.318-.703.709-.703h4.25c.39 0 .708.315.708.703a.706.706 0 01-.708.703zm14.875 2.11a.706.706 0 01-.709.702.706.706 0 01-.708-.703V22.2c0-.388.317-.703.708-.703.391 0 .709.315.709.703v2.812z"/></g><path d="M89.23 32.56c-2.22 0-4.11-.38-5.67-1.14-1.54-.78-2.71-1.96-3.51-3.54-.8-1.58-1.2-3.58-1.2-6 0-3.56.89-6.22 2.67-7.98 1.8-1.78 4.37-2.67 7.71-2.67 1.86 0 3.51.32 4.95.96 1.44.62 2.56 1.56 3.36 2.82.82 1.24 1.23 2.79 1.23 4.65h-5.25c0-.88-.18-1.63-.54-2.25-.34-.64-.83-1.13-1.47-1.47-.62-.34-1.38-.51-2.28-.51-1.12 0-2.04.23-2.76.69-.72.46-1.25 1.12-1.59 1.98-.34.86-.51 1.9-.51 3.12v1.35c0 1.22.17 2.27.51 3.15.34.86.86 1.52 1.56 1.98.72.44 1.64.66 2.76.66.96 0 1.77-.16 2.43-.48.68-.32 1.19-.79 1.53-1.41.36-.64.54-1.4.54-2.28h5.07c0 1.86-.4 3.41-1.2 4.65-.78 1.24-1.89 2.17-3.33 2.79-1.42.62-3.09.93-5.01.93zm10.746-.36l7.74-20.61h6.45l7.74 20.61h-5.73l-1.23-3.57h-8.22l-1.23 3.57h-5.52zm8.04-7.59h5.61l-1.47-4.35c-.08-.22-.18-.49-.3-.81-.1-.34-.21-.69-.33-1.05l-.3-1.14c-.1-.38-.2-.71-.3-.99h-.21c-.08.38-.2.81-.36 1.29-.14.48-.29.96-.45 1.44-.14.48-.27.9-.39 1.26l-1.5 4.35zm16.353 7.59V11.59h11.97c1.52 0 2.79.29 3.81.87 1.02.56 1.78 1.34 2.28 2.34.52.98.78 2.08.78 3.3 0 1.32-.31 2.5-.93 3.54-.6 1.02-1.45 1.82-2.55 2.4l4.14 8.16h-6l-3.42-7.26h-4.71v7.26h-5.37zm5.37-11.25h5.55c.74 0 1.33-.24 1.77-.72.46-.5.69-1.16.69-1.98 0-.54-.1-1-.3-1.38-.2-.38-.48-.67-.84-.87-.36-.22-.8-.33-1.32-.33h-5.55v5.28zm15.12 11.25l7.74-20.61h6.45l7.74 20.61h-5.73l-1.23-3.57h-8.22l-1.23 3.57h-5.52zm8.04-7.59h5.61l-1.47-4.35c-.08-.22-.18-.49-.3-.81-.1-.34-.21-.69-.33-1.05l-.3-1.14c-.1-.38-.2-.71-.3-.99h-.21c-.08.38-.2.81-.36 1.29-.14.48-.29.96-.45 1.44-.14.48-.27.9-.39 1.26l-1.5 4.35zm16.353 7.59V11.59h12.6c1.06 0 2.02.21 2.88.63.86.42 1.54 1.01 2.04 1.77.52.76.78 1.65.78 2.67 0 .9-.16 1.67-.48 2.31-.3.64-.71 1.16-1.23 1.56-.5.4-1.07.7-1.71.9v.12c.74.16 1.41.45 2.01.87.6.4 1.07.95 1.41 1.65.36.7.54 1.55.54 2.55 0 1.18-.28 2.19-.84 3.03-.56.82-1.3 1.45-2.22 1.89-.92.44-1.95.66-3.09.66h-12.69zm5.37-4.14h5.85c.64 0 1.15-.19 1.53-.57.4-.38.6-.96.6-1.74 0-.42-.09-.79-.27-1.11-.16-.34-.41-.6-.75-.78-.32-.18-.72-.27-1.2-.27h-5.76v4.47zm0-8.28h5.37c.44 0 .81-.09 1.11-.27.32-.18.56-.43.72-.75.18-.32.27-.7.27-1.14 0-.64-.19-1.14-.57-1.5-.38-.36-.86-.54-1.44-.54h-5.46v4.2zm26.463 12.78c-1.98 0-3.69-.31-5.13-.93-1.42-.62-2.51-1.55-3.27-2.79-.76-1.24-1.14-2.78-1.14-4.62V11.59h5.4V24.1c0 1.32.35 2.36 1.05 3.12.7.76 1.73 1.14 3.09 1.14 1.36 0 2.4-.38 3.12-1.14.72-.76 1.08-1.8 1.08-3.12V11.59h5.37v12.63c0 1.84-.38 3.38-1.14 4.62-.76 1.24-1.85 2.17-3.27 2.79-1.42.62-3.14.93-5.16.93zm22.567 0c-1.3 0-2.52-.12-3.66-.36-1.14-.22-2.15-.59-3.03-1.11a5.86 5.86 0 01-2.04-2.04c-.5-.86-.75-1.91-.75-3.15v-.27c0-.1.01-.18.03-.24h5.19c0 .06-.01.14-.03.24v.21c0 .64.16 1.16.48 1.56.34.38.81.66 1.41.84.6.16 1.3.24 2.1.24.44 0 .85-.02 1.23-.06.38-.04.72-.11 1.02-.21.3-.1.56-.22.78-.36.24-.16.41-.34.51-.54.12-.22.18-.47.18-.75 0-.46-.18-.84-.54-1.14-.34-.3-.81-.55-1.41-.75-.58-.2-1.24-.39-1.98-.57-.74-.18-1.51-.37-2.31-.57-.8-.2-1.57-.45-2.31-.75s-1.41-.68-2.01-1.14a5.345 5.345 0 01-1.41-1.71c-.34-.7-.51-1.54-.51-2.52 0-1.08.23-2.01.69-2.79.46-.8 1.09-1.45 1.89-1.95.82-.5 1.76-.86 2.82-1.08 1.06-.24 2.19-.36 3.39-.36 1.18 0 2.28.12 3.3.36 1.04.24 1.96.62 2.76 1.14.8.5 1.42 1.14 1.86 1.92.46.76.7 1.68.72 2.76v.36h-5.16v-.21c0-.46-.13-.86-.39-1.2-.24-.36-.61-.64-1.11-.84-.5-.22-1.12-.33-1.86-.33s-1.37.07-1.89.21c-.5.14-.89.34-1.17.6-.26.26-.39.57-.39.93 0 .44.17.8.51 1.08.36.28.84.52 1.44.72.6.2 1.27.39 2.01.57.74.16 1.5.34 2.28.54.8.18 1.57.42 2.31.72.74.28 1.41.65 2.01 1.11.6.44 1.07.99 1.41 1.65.36.66.54 1.46.54 2.4 0 1.64-.39 2.96-1.17 3.96-.76 1-1.82 1.73-3.18 2.19-1.34.46-2.86.69-4.56.69z" fill="#202020"/><path d="M80.548 50.8v-7.236h-2.82v-.996h6.804v.996h-2.844V50.8h-1.14zm6.688.144c-.64 0-1.18-.116-1.62-.348-.432-.24-.764-.604-.996-1.092-.224-.488-.336-1.108-.336-1.86 0-.76.112-1.38.336-1.86.232-.488.564-.848.996-1.08.44-.24.98-.36 1.62-.36.64 0 1.176.12 1.608.36.44.232.772.592.996 1.08.224.48.336 1.1.336 1.86 0 .752-.112 1.372-.336 1.86a2.29 2.29 0 01-.996 1.092c-.432.232-.968.348-1.608.348zm0-.888c.408 0 .748-.08 1.02-.24.272-.16.476-.408.612-.744.144-.344.216-.776.216-1.296v-.264c0-.528-.072-.96-.216-1.296-.136-.336-.34-.584-.612-.744-.272-.16-.612-.24-1.02-.24-.408 0-.752.08-1.032.24-.272.16-.476.408-.612.744s-.204.768-.204 1.296v.264c0 .52.068.952.204 1.296.136.336.34.584.612.744.28.16.624.24 1.032.24zm6.844.888c-.64 0-1.18-.116-1.62-.348-.432-.24-.764-.604-.996-1.092-.224-.488-.336-1.108-.336-1.86 0-.76.112-1.38.336-1.86.232-.488.564-.848.996-1.08.44-.24.98-.36 1.62-.36.64 0 1.176.12 1.608.36.44.232.772.592.996 1.08.224.48.336 1.1.336 1.86 0 .752-.112 1.372-.336 1.86a2.29 2.29 0 01-.996 1.092c-.432.232-.968.348-1.608.348zm0-.888c.408 0 .748-.08 1.02-.24.272-.16.476-.408.612-.744.144-.344.216-.776.216-1.296v-.264c0-.528-.072-.96-.216-1.296-.136-.336-.34-.584-.612-.744-.272-.16-.612-.24-1.02-.24-.408 0-.752.08-1.032.24-.272.16-.476.408-.612.744s-.204.768-.204 1.296v.264c0 .52.068.952.204 1.296.136.336.34.584.612.744.28.16.624.24 1.032.24zm4.252.744v-8.676h1.056V50.8h-1.056zm4.903.144a4.42 4.42 0 01-1.14-.132 2.273 2.273 0 01-.816-.384 1.68 1.68 0 01-.492-.6 1.8 1.8 0 01-.168-.792v-.108c0-.04.004-.072.012-.096h1.044a.353.353 0 00-.012.084v.072c.008.28.08.5.216.66.144.16.34.272.588.336.248.064.524.096.828.096.264 0 .508-.032.732-.096.224-.072.4-.176.528-.312a.756.756 0 00.204-.54c0-.264-.088-.464-.264-.6a1.764 1.764 0 00-.672-.336l-.876-.252a14.134 14.134 0 01-.768-.24 3.484 3.484 0 01-.696-.324 1.604 1.604 0 01-.492-.492c-.12-.208-.18-.468-.18-.78 0-.28.056-.528.168-.744.12-.216.288-.4.504-.552.216-.152.476-.264.78-.336.312-.08.656-.12 1.032-.12.4 0 .748.044 1.044.132.304.088.556.212.756.372.2.16.348.344.444.552.096.2.144.416.144.648v.144c0 .04-.004.072-.012.096h-1.032v-.132a.86.86 0 00-.132-.456c-.08-.152-.224-.272-.432-.36-.2-.096-.48-.144-.84-.144-.232 0-.432.02-.6.06a1.052 1.052 0 00-.42.168.72.72 0 00-.252.264.655.655 0 00-.084.336c0 .208.068.368.204.48.136.112.316.204.54.276.232.072.48.152.744.24.28.08.564.164.852.252.296.08.564.184.804.312.248.128.444.304.588.528.152.216.228.504.228.864 0 .336-.064.628-.192.876a1.62 1.62 0 01-.552.612c-.232.16-.508.276-.828.348-.312.08-.656.12-1.032.12zm6.621-.144v-8.232h4.332c.56 0 1.024.104 1.392.312.376.2.656.484.84.852.184.36.276.776.276 1.248 0 .568-.128 1.056-.384 1.464a2.14 2.14 0 01-1.056.876l1.728 3.48h-1.248l-1.608-3.276h-3.132V50.8h-1.14zm1.14-4.248h3.084c.456 0 .812-.14 1.068-.42.264-.28.396-.664.396-1.152 0-.304-.056-.56-.168-.768a1.14 1.14 0 00-.492-.48c-.216-.12-.484-.18-.804-.18h-3.084v3zm9.778 4.392c-.624 0-1.152-.116-1.584-.348-.424-.24-.748-.604-.972-1.092-.216-.488-.324-1.108-.324-1.86 0-.76.108-1.38.324-1.86.224-.488.552-.848.984-1.08.432-.24.972-.36 1.62-.36.592 0 1.088.116 1.488.348.4.224.7.564.9 1.02.208.448.312 1.012.312 1.692v.504h-4.536c.016.504.088.92.216 1.248.136.32.336.556.6.708.264.144.596.216.996.216.272 0 .508-.032.708-.096.208-.072.38-.172.516-.3.144-.128.252-.28.324-.456a1.68 1.68 0 00.12-.576h1.032a2.571 2.571 0 01-.192.936c-.12.28-.296.52-.528.72-.232.2-.516.356-.852.468-.336.112-.72.168-1.152.168zm-1.764-3.828h3.42c0-.352-.04-.648-.12-.888a1.475 1.475 0 00-.348-.588 1.206 1.206 0 00-.516-.324 1.872 1.872 0 00-.66-.108c-.368 0-.68.068-.936.204a1.351 1.351 0 00-.588.624c-.136.28-.22.64-.252 1.08zm5.818 3.684v-6.312h.852l.096.948h.084c.168-.256.356-.464.564-.624.216-.16.452-.276.708-.348.264-.08.544-.12.84-.12.4 0 .748.068 1.044.204.304.136.54.356.708.66.176.304.264.716.264 1.236V50.8h-1.056v-4.212c0-.264-.036-.48-.108-.648a.906.906 0 00-.276-.396.983.983 0 00-.42-.204 2.23 2.23 0 00-.54-.06c-.296 0-.576.072-.84.216a1.642 1.642 0 00-.636.624c-.152.272-.228.596-.228.972V50.8h-1.056zm8.238.144c-.328 0-.584-.06-.768-.18a1.077 1.077 0 01-.396-.492 1.823 1.823 0 01-.12-.66v-4.236h-.816v-.888h.84l.192-1.764h.84v1.764h1.188v.888h-1.188v4.08c0 .2.036.352.108.456.072.096.208.144.408.144h.672v.696c-.08.04-.176.072-.288.096a4.498 4.498 0 01-.348.06c-.112.024-.22.036-.324.036zm3.67 0c-.232 0-.464-.028-.696-.084a2.114 2.114 0 01-.648-.276c-.2-.128-.36-.304-.48-.528-.12-.232-.18-.52-.18-.864 0-.432.104-.788.312-1.068.208-.28.496-.496.864-.648.376-.16.82-.268 1.332-.324a13.489 13.489 0 011.668-.096v-.72c0-.232-.04-.432-.12-.6-.08-.168-.224-.296-.432-.384-.2-.096-.488-.144-.864-.144-.36 0-.648.048-.864.144-.208.088-.356.204-.444.348a.972.972 0 00-.12.48v.18h-1.02a.61.61 0 01-.012-.12v-.144c0-.384.104-.704.312-.96.216-.264.516-.46.9-.588a3.944 3.944 0 011.32-.204c.528 0 .968.076 1.32.228.36.152.628.368.804.648.184.28.276.616.276 1.008v3.42c0 .152.036.26.108.324.072.056.16.084.264.084h.468v.696a2.255 2.255 0 01-.372.12c-.136.04-.292.06-.468.06a.933.933 0 01-.516-.132.792.792 0 01-.312-.336 1.676 1.676 0 01-.144-.504h-.084c-.144.2-.328.376-.552.528-.216.144-.46.256-.732.336-.272.08-.568.12-.888.12zm.264-.888c.256 0 .496-.04.72-.12.232-.08.436-.192.612-.336.176-.152.316-.332.42-.54.104-.208.156-.436.156-.684v-.528c-.648 0-1.2.036-1.656.108-.456.072-.808.2-1.056.384-.24.184-.36.444-.36.78 0 .216.048.392.144.528.096.136.232.24.408.312.176.064.38.096.612.096zm4.691.744v-8.676h1.056V50.8h-1.056zm8.431.144c-.448 0-.88-.044-1.296-.132a3.568 3.568 0 01-1.092-.42c-.32-.2-.576-.456-.768-.768-.184-.312-.276-.696-.276-1.152v-.12a.61.61 0 00.012-.12h1.152a.974.974 0 01-.012.12v.132c0 .32.096.592.288.816.192.224.456.392.792.504.344.104.732.156 1.164.156.192 0 .392-.012.6-.036.216-.024.42-.064.612-.12.2-.064.376-.144.528-.24.16-.104.284-.228.372-.372.096-.152.144-.336.144-.552a.96.96 0 00-.24-.672 1.616 1.616 0 00-.612-.444 5.307 5.307 0 00-.876-.312c-.32-.096-.652-.188-.996-.276-.344-.088-.68-.188-1.008-.3a4.357 4.357 0 01-.864-.432 2.188 2.188 0 01-.624-.648c-.152-.256-.228-.568-.228-.936 0-.344.068-.652.204-.924.144-.272.352-.5.624-.684a3.04 3.04 0 011.032-.432 5.707 5.707 0 011.404-.156c.432 0 .832.048 1.2.144.376.088.704.228.984.42.288.184.512.42.672.708.16.288.24.636.24 1.044v.144h-1.128v-.18a1.02 1.02 0 00-.252-.696 1.61 1.61 0 00-.696-.444 2.886 2.886 0 00-.984-.156c-.48 0-.88.048-1.2.144-.32.088-.56.22-.72.396a.834.834 0 00-.228.576c0 .248.076.456.228.624a1.9 1.9 0 00.624.42c.256.104.548.2.876.288.328.088.66.18.996.276.344.088.676.192.996.312.328.112.62.256.876.432.264.168.472.384.624.648.152.256.228.572.228.948 0 .584-.144 1.06-.432 1.428-.288.36-.684.624-1.188.792-.504.168-1.088.252-1.752.252zm7.367 0c-.624 0-1.152-.116-1.584-.348-.424-.24-.748-.604-.972-1.092-.216-.488-.324-1.108-.324-1.86 0-.76.108-1.38.324-1.86.224-.488.552-.848.984-1.08.432-.24.972-.36 1.62-.36.592 0 1.088.116 1.488.348.4.224.7.564.9 1.02.208.448.312 1.012.312 1.692v.504h-4.536c.016.504.088.92.216 1.248.136.32.336.556.6.708.264.144.596.216.996.216.272 0 .508-.032.708-.096.208-.072.38-.172.516-.3.144-.128.252-.28.324-.456a1.68 1.68 0 00.12-.576h1.032a2.571 2.571 0 01-.192.936c-.12.28-.296.52-.528.72-.232.2-.516.356-.852.468-.336.112-.72.168-1.152.168zm-1.764-3.828h3.42c0-.352-.04-.648-.12-.888a1.475 1.475 0 00-.348-.588 1.206 1.206 0 00-.516-.324 1.872 1.872 0 00-.66-.108c-.368 0-.68.068-.936.204a1.351 1.351 0 00-.588.624c-.136.28-.22.64-.252 1.08zm5.818 3.684v-6.312h.852l.096 1.044h.084c.064-.2.152-.388.264-.564.112-.184.264-.332.456-.444.192-.12.428-.18.708-.18.12 0 .228.012.324.036.104.016.18.036.228.06v.972h-.396a1.62 1.62 0 00-.708.144 1.249 1.249 0 00-.48.384 1.743 1.743 0 00-.288.6c-.056.232-.084.48-.084.744V50.8h-1.056zm5.652 0l-2.34-6.312h1.104l1.152 3.156a37.32 37.32 0 01.408 1.272c.08.232.144.44.192.624h.06l.192-.612c.072-.24.144-.472.216-.696l.204-.588 1.14-3.156h1.068l-2.34 6.312h-1.056zm4.379-7.5v-1.176h1.056V43.3h-1.056zm0 7.5v-6.312h1.056V50.8h-1.056zm5.095.144c-.608 0-1.12-.116-1.536-.348-.408-.24-.72-.604-.936-1.092-.208-.496-.312-1.116-.312-1.86s.104-1.36.312-1.848c.216-.488.532-.852.948-1.092.424-.24.944-.36 1.56-.36.432 0 .804.056 1.116.168.32.112.584.276.792.492.208.216.36.476.456.78.104.304.156.652.156 1.044h-1.068c0-.368-.052-.668-.156-.9a.982.982 0 00-.468-.528c-.216-.12-.5-.18-.852-.18s-.656.08-.912.24c-.256.152-.452.396-.588.732-.136.336-.204.78-.204 1.332v.252c0 .52.064.952.192 1.296.136.344.332.596.588.756.256.16.568.24.936.24.36 0 .648-.064.864-.192a1.08 1.08 0 00.48-.552c.104-.24.156-.528.156-.864h1.032c0 .352-.052.68-.156.984a2.058 2.058 0 01-.456.792c-.208.224-.472.4-.792.528-.32.12-.704.18-1.152.18zm6.343 0c-.624 0-1.152-.116-1.584-.348-.424-.24-.748-.604-.972-1.092-.216-.488-.324-1.108-.324-1.86 0-.76.108-1.38.324-1.86.224-.488.552-.848.984-1.08.432-.24.972-.36 1.62-.36.592 0 1.088.116 1.488.348.4.224.7.564.9 1.02.208.448.312 1.012.312 1.692v.504h-4.536c.016.504.088.92.216 1.248.136.32.336.556.6.708.264.144.596.216.996.216.272 0 .508-.032.708-.096.208-.072.38-.172.516-.3.144-.128.252-.28.324-.456a1.68 1.68 0 00.12-.576h1.032a2.571 2.571 0 01-.192.936c-.12.28-.296.52-.528.72-.232.2-.516.356-.852.468-.336.112-.72.168-1.152.168zm-1.764-3.828h3.42c0-.352-.04-.648-.12-.888a1.475 1.475 0 00-.348-.588 1.206 1.206 0 00-.516-.324 1.872 1.872 0 00-.66-.108c-.368 0-.68.068-.936.204a1.351 1.351 0 00-.588.624c-.136.28-.22.64-.252 1.08zm8.026 3.828a4.42 4.42 0 01-1.14-.132 2.273 2.273 0 01-.816-.384 1.68 1.68 0 01-.492-.6 1.8 1.8 0 01-.168-.792v-.108c0-.04.004-.072.012-.096h1.044a.353.353 0 00-.012.084v.072c.008.28.08.5.216.66.144.16.34.272.588.336.248.064.524.096.828.096.264 0 .508-.032.732-.096.224-.072.4-.176.528-.312a.756.756 0 00.204-.54c0-.264-.088-.464-.264-.6a1.764 1.764 0 00-.672-.336l-.876-.252a14.134 14.134 0 01-.768-.24 3.484 3.484 0 01-.696-.324 1.604 1.604 0 01-.492-.492c-.12-.208-.18-.468-.18-.78 0-.28.056-.528.168-.744.12-.216.288-.4.504-.552.216-.152.476-.264.78-.336.312-.08.656-.12 1.032-.12.4 0 .748.044 1.044.132.304.088.556.212.756.372.2.16.348.344.444.552.096.2.144.416.144.648v.144c0 .04-.004.072-.012.096h-1.032v-.132a.86.86 0 00-.132-.456c-.08-.152-.224-.272-.432-.36-.2-.096-.48-.144-.84-.144-.232 0-.432.02-.6.06a1.052 1.052 0 00-.42.168.72.72 0 00-.252.264.655.655 0 00-.084.336c0 .208.068.368.204.48.136.112.316.204.54.276.232.072.48.152.744.24.28.08.564.164.852.252.296.08.564.184.804.312.248.128.444.304.588.528.152.216.228.504.228.864 0 .336-.064.628-.192.876a1.62 1.62 0 01-.552.612c-.232.16-.508.276-.828.348-.312.08-.656.12-1.032.12z" fill="#515151"/><defs><clipPath id="clip0_807_266"><path fill="#fff" transform="translate(18 16)" d="M0 0h34v34H0z"/></clipPath></defs></svg>