<svg width="24" height="24" fill="none" xmlns="http://www.w3.org/2000/svg"><path d="M22 3H2C.897 3 0 3.897 0 5v14c0 1.103.897 2 2 2h20c1.103 0 2-.897 2-2V5c0-1.103-.897-2-2-2zM2 4h20c.074 0 .139.027.208.042a2676.104 2676.104 0 01-9.482 8.647c-.158.142-.411.311-.726.311s-.568-.169-.726-.311c-2.01-1.81-7.75-7.063-9.482-8.647C1.862 4.027 1.926 4 2 4zM1 19V5c0-.098.03-.187.056-.276 1.325 1.213 5.331 4.877 7.929 7.24-2.59 2.224-6.596 6.023-7.932 7.297C1.029 19.176 1 19.092 1 19zm21 1H2c-.08 0-.15-.028-.225-.046 1.38-1.316 5.413-5.136 7.956-7.313l.873.79c.413.373.895.569 1.396.569.501 0 .983-.196 1.395-.568l.874-.79c2.544 2.175 6.576 5.996 7.957 7.312-.075.018-.146.046-.226.046zm1-1c0 .092-.03.176-.053.26-1.336-1.274-5.343-5.073-7.932-7.296 2.598-2.363 6.603-6.027 7.929-7.24.027.09.056.178.056.276v14z" fill="#202020"/></svg>