<svg width="30" height="30" fill="none" xmlns="http://www.w3.org/2000/svg"><g clip-path="url(#clip0_818_182)" fill="#fff"><path d="M29.776 3.748a.499.499 0 00-.83-.209l-1.734 1.734h-2.485V2.788l1.734-1.735a.499.499 0 00-.207-.83c-.491-.149-1-.212-1.522-.212a5.224 5.224 0 00-3.734 1.534 5.282 5.282 0 00-1.463 4.66l.081.45-12.96 12.961c-.524-.093-.84-.162-1.376-.162a5.322 5.322 0 00-3.736 1.544 5.287 5.287 0 00-1.32 5.253.498.498 0 00.829.21l1.734-1.734h2.498v2.486L3.54 28.947a.499.499 0 00.208.83c.49.148.998.223 1.519.223 3.282 0 5.775-2.962 5.198-6.205l-.08-.45 12.96-12.961c.515.092.843.162 1.375.161a5.315 5.315 0 003.736-1.543 5.284 5.284 0 001.32-5.254z"/><path d="M28.715 22.498l-6.164-6.104a4.416 4.416 0 00-1.482-.955l-5.689 5.688c.224.56.546 1.072.957 1.483l6.163 6.103a4.395 4.395 0 106.215-6.215zm-2.505 3.71a.879.879 0 01-1.243 0l-4.319-4.258a.879.879 0 111.243-1.243l4.319 4.258c.343.343.343.9 0 1.242zM7.517 5.03l-.002.001.793-.793a.499.499 0 00-.096-.78L2.846.125a.879.879 0 00-1.073.132L.258 1.772a.879.879 0 00-.132 1.074L3.46 8.21a.5.5 0 00.78.095l.79-.789 5.62 5.62 2.485-2.486-5.62-5.62z"/></g><defs><clipPath id="clip0_818_182"><path fill="#fff" d="M0 0h30v30H0z"/></clipPath></defs></svg>