<svg width="183" height="187" fill="none" xmlns="http://www.w3.org/2000/svg"><g clip-path="url(#clip0_20_11)"><path d="M67.753 182a1.317 1.317 0 01-.257-.04l-.141-.04C27.62 170.945 0 134.62 0 93.539a92.197 92.197 0 017.086-35.387 92.015 92.015 0 0120.12-29.932 1.187 1.187 0 011.954 1.306 1.19 1.19 0 01-.289.384A89.604 89.604 0 009.269 59.066a89.78 89.78 0 00-6.9 34.473c0 40.013 26.908 75.398 65.436 86.054a1.325 1.325 0 01.974 1.496 1.11 1.11 0 01-1.026.911zm87.317-23.022a1.168 1.168 0 01-.84-.355 1.177 1.177 0 01-.347-.839 1.178 1.178 0 01.347-.838 89.663 89.663 0 0019.518-29.115 89.825 89.825 0 006.879-34.393c0-40.014-26.908-75.398-65.437-86.059a1.258 1.258 0 01-.9-1.48 1.1 1.1 0 01.933-.876c.15-.021.304-.011.45.03l-.314 1.145.447-1.11c39.566 10.94 67.19 47.272 67.19 88.35a92.18 92.18 0 01-7.06 35.307 92.008 92.008 0 01-20.037 29.886 1.21 1.21 0 01-.829.347z" fill="#515151"/></g><path fill="#F5AB1A" d="M97 0h7v7h-7zM81 180h7v7h-7z"/><defs><clipPath id="clip0_20_11"><path fill="#fff" transform="translate(0 5)" d="M0 0h183v177H0z"/></clipPath></defs></svg>