<svg width="92" height="90" fill="none" xmlns="http://www.w3.org/2000/svg"><g clip-path="url(#clip0_819_503)" fill="#F5AB1A"><path d="M15.626 72.07c-4.318 3.943-4.482 10.749-.356 14.917a10.127 10.127 0 0014.78-.39l19.172-21.499-11.96-12.833L15.626 72.07zm9.883 10.434c-1.632 1.634-4.289 1.65-5.921.015a4.27 4.27 0 010-5.997 4.148 4.148 0 015.92.015 4.275 4.275 0 010 5.967zm40.645-36.4c.49-.54 1.246-.75 1.944-.555 16.58 4.517 26.273-9.738 23.4-21.613-.27-1.12-1.683-1.482-2.49-.667l-9.217 9.312c-.742.75-1.944.75-2.7 0l-7.91-8.006a1.95 1.95 0 010-2.729l9.425-9.522c.791-.8.447-2.132-.612-2.498-10.403-3.597-26.565 6.09-21.827 23.67.193.719 0 1.469-.55 1.963l-3.442 3.164 11.174 10.63 2.805-3.15zM38.3 29.522l-9.126 9.22c-.074.075-.148.15-.237.225l43.108 46.206a8.436 8.436 0 0012.168.18c3.369-3.419 3.295-8.98-.193-12.294L38.3 29.522zM15.633 48.188l3.77-3.809a2.305 2.305 0 000-3.236l-1.047-1.056c-1.17-1.183-1.395-3.112-.346-4.407a3.144 3.144 0 014.695-.244l1.173 1.185a2.249 2.249 0 003.204 0l11.47-11.589a3.473 3.473 0 00.002-4.877l-3.228-3.261c-1.774-1.793-1.794-3.981-.464-5.326 3.884-3.927 8.67-7.35 14.182-10.37.56-.306.364-1.163-.272-1.183-5.693-.177-10.917 1.247-15.783 3.89-5.381 2.924-8.405 6.464-20.377 17.164a2.312 2.312 0 00-.108 3.338l.732.739c1.186 1.198 1.413 3.152.351 4.464a3.186 3.186 0 01-4.758.248l-.964-.974a2.249 2.249 0 00-3.204 0l-4.068 4.11a2.061 2.061 0 000 2.894l12.175 12.3a2.01 2.01 0 002.865 0z"/></g><defs><clipPath id="clip0_819_503"><path fill="#fff" d="M0 0h92v90H0z"/></clipPath></defs></svg>