<svg width="90" height="90" fill="none" xmlns="http://www.w3.org/2000/svg"><g clip-path="url(#clip0_819_482)" fill="#F5AB1A"><path d="M45 20.454c5.648 0 10.227-4.578 10.227-10.227C55.227 4.58 50.648 0 45 0c-5.648 0-10.227 4.579-10.227 10.227 0 5.649 4.579 10.227 10.227 10.227zM30.974 40.91h28.053c2.417 0 4.382-2.122 4.382-4.731v-1.31c0-3.418-1.692-6.54-4.418-8.148C55.725 24.795 50.647 22.5 45 22.5c-5.648 0-10.725 2.295-13.991 4.22-2.727 1.609-4.419 4.73-4.419 8.149v1.31c0 2.609 1.966 4.73 4.383 4.73zM18.41 69.545c5.647 0 10.226-4.579 10.226-10.227 0-5.648-4.579-10.227-10.227-10.227-5.648 0-10.227 4.579-10.227 10.227 0 5.648 4.579 10.227 10.227 10.227zm13.99 6.267c-3.266-1.926-8.344-4.22-13.99-4.22-5.648 0-10.726 2.294-13.991 4.22C1.692 77.42 0 80.542 0 83.96v1.31C0 87.879 1.966 90 4.383 90h28.053c2.417 0 4.382-2.121 4.382-4.73v-1.31c0-3.418-1.692-6.54-4.418-8.148zm39.19-6.267c5.65 0 10.228-4.579 10.228-10.227 0-5.648-4.579-10.227-10.227-10.227-5.648 0-10.227 4.579-10.227 10.227 0 5.648 4.578 10.227 10.227 10.227zm13.992 6.267c-3.266-1.926-8.344-4.22-13.99-4.22-5.648 0-10.725 2.294-13.991 4.22-2.727 1.608-4.419 4.73-4.419 8.148v1.31c0 2.609 1.966 4.73 4.383 4.73h28.053C88.035 90 90 87.88 90 85.27v-1.31c0-3.418-1.692-6.54-4.418-8.148zm-30.357-6.266a2.05 2.05 0 001.6-.768 2.049 2.049 0 00-.32-2.876l-9.46-7.568V47.045a2.044 2.044 0 10-4.09 0v11.29l-9.46 7.567a2.049 2.049 0 00-.32 2.876 2.05 2.05 0 002.876.32l8.95-7.16 8.948 7.16c.377.302.829.448 1.276.448z"/></g><defs><clipPath id="clip0_819_482"><path fill="#fff" d="M0 0h90v90H0z"/></clipPath></defs></svg>