<svg width="90" height="90" fill="none" xmlns="http://www.w3.org/2000/svg"><g clip-path="url(#clip0_819_515)" fill="#F5AB1A"><path d="M21.27 45c0 13.078 10.652 23.73 23.73 23.73 13.078 0 23.73-10.652 23.73-23.73 0-13.078-10.652-23.73-23.73-23.73-13.078 0-23.73 10.652-23.73 23.73zm36.122-3.428L42.363 56.654l-9.755-9.808 3.69-3.691 6.065 6.01 11.338-11.284 3.691 3.691z"/><path d="M45 90c24.732 0 45-20.268 45-45H79.453c0 18.88-15.574 34.277-34.453 34.277-18.88 0-34.277-15.398-34.277-34.277 0-18.88 15.398-34.277 34.277-34.277 7.7 0 14.818 2.53 20.514 6.855l-4.008 4.008 18.615 3.691L76.43 6.662l-3.375 3.375C65.355 3.867 55.6 0 45 0 20.268 0 0 20.268 0 45s20.268 45 45 45z"/></g><defs><clipPath id="clip0_819_515"><path fill="#fff" d="M0 0h90v90H0z"/></clipPath></defs></svg>