<svg width="912" height="500" fill="none" xmlns="http://www.w3.org/2000/svg"><path opacity=".6" d="M82.744 108.663c1.817 0 2.034.65 3.591 0 1.559-.649 6.124-3.682 7.682-4.093 1.558-.412 2.553.13.26 1.408a37.762 37.762 0 00-6.059 3.812 52.32 52.32 0 006.492-2.751c3.289-1.538 2.986-.845 3.83-2.513.843-1.667 1.298-2.512 1.298-2.512s5.214 5.35 5.69 5.545c.477.195.671 0 .931-.693s.801-1.581 1.536-1.257c.736.325 0 1.582.563 1.755.562.173 1.168 0 2.553-.498 1.385-.499.649-1.43.649-1.43s-.13 0 1.45-.173a31.72 31.72 0 018.049 2.166c1.472.585 5.951 1.061 7.206 1.473 1.255.411 1.731-.715 3.462.195 1.731.909 3.029 2.165 1.731 2.837-1.298.671-4.522 1.126-2.878 1.538 2.118.563 4.3.854 6.491.866 2.402 0 6.73-.953 8.05-.953 1.32 0 2.164.823 3.397 2.924a7.362 7.362 0 002.726 3.097c.498.174-.476-.996-.216-2.036a7.906 7.906 0 00-.454-3.638c-.282-.694 0-1.04-.585-2.036-.584-.997-1.536-.823.238-1.69 1.775-.866 2.986-2.166 5.129-1.862 2.142.303 2.726 3.01 4.565 3.205 1.761.51 3.554.901 5.366 1.17 3.16.238 1.84 0 5.388.281 3.549.282 2.164-.39 2.986-2.166.823-1.776 1.558-2.166 2.402-2.166.844 0 3.83.477 3.83.867s-1.255 2.339-.627 3.292c.914 1 1.962 1.867 3.116 2.577 0 0-.563-2.166-.563-2.447 0-.282-.195-1.949.173-2.166.368-.217 2.488.173 3.808-2.404 1.32-2.578-.887-2.448-.887-2.448s-.822 0-.411-1.018 2.77-1.732 2.77-1.732.151.476-.152-.39c-.303-.867-1.839-.672-3.505-.78-1.666-.108-2.791-.346-3.094-1.754a39.908 39.908 0 01-.411-6.498c0-2.014 1.622-1.3 1.925-2.426a29.633 29.633 0 00-.476-7.819c-.411-1.148.585-3.595.823-5.198.238-1.603 1.86-.91 1.86-.91-.281-.541.476-2.166 2.705-2.75a19.46 19.46 0 016.492 0s-.368 0-1.407 1.364c-1.039 1.365-.368 3.725-1.926 5.415-1.558 1.69-5.496 1.148-5.496 1.148s1.212 2.772.693 3.66c-.398.87-.681 1.787-.844 2.73 0 0 3.484.974 3.657 3.161.173 2.188 1.925 2.578 2.337 4.614.411 2.036-1.71 3.725-1.255 4.028.454.304.584.455 1.839.52s2.813.412 2.813.412a2.167 2.167 0 000 2.166c.627 1.104.151 1.776.216 2.945.065 1.17.779 2.166 1.082 1.971a17.649 17.649 0 001.947-4.548c.303-1.343.52-2.058 1.104-2.058a6.498 6.498 0 012.813 2.469c.216.672.368 1.56-.736 3.358-1.103 1.797-.995 2.599 0 3.292.866.537 1.788.98 2.748 1.321 1.731.823 1.407.736 2.467.433s-.454-3.032-.346-3.097c.108-.065 2.553-.347 2.012-1.711-.541-1.365-1.125-2.166 0-2.751s1.969-1.256 1.969-1.256a13.605 13.605 0 01-1.45-3.227c-.8-2.318.714-1.69 3.895-1.451 3.181.238 3.311 1.342 5.02 2.165 1.71.824.628 1.17 1.169 2.556.541 1.386-1.407 1.581-1.407 1.581s-1.276.239-.995 1.3a19.167 19.167 0 001.817 3.985c.931 1.668-.259 2.794-1.709 4.137a6.853 6.853 0 01-4.825 1.754c-1.71 0-2.445.715-2.553.239a1.517 1.517 0 00-1.84-.715c-.93.195-3.029 1.04-2.293 1.3.735.259 2.704.216 1.882 1.732-.822 1.516-1.515 1.516-3.137 1.343-1.623-.173-3.138-.173-4.176-.26l-6.124-.368a35.198 35.198 0 006.167 2.967 13.61 13.61 0 005.604.347s-1.103 2.166-2.445 4.332c-1.342 2.166-2.575 1.234-3.679 1.364-1.103.13-1.774 1.04-3.829 1.321-2.056.282-6.492-.584-5.735-.281.758.303.953.866 2.164 1.039 1.093.064 2.131.5 2.943 1.235 1.039.866-.649 1.061-2.012 1.3a2.913 2.913 0 00-2.38 1.342c-.628.867-2.943 4.202-3.679 5.242a11.16 11.16 0 00-1.709 4.787c-.303 2.036-2.034 4.461-1.255 4.981.779.52 3.656.455 4.803 1.235 1.147.779 2.597 4.483 3.506 5.891.908 1.408 1.666 2.469 2.704 1.365 1.039-1.105 3.073-.824 4.977-.13a28.775 28.775 0 017.054 4.613c1.234 1.213 3.354.996 5.756 1.343 2.402.346 2.683 1.256 2.683 1.256s2.488.13 1.471 1.191c-1.017 1.062-1.341 0-.303 1.82a8.056 8.056 0 01.693 5.414c-.281 1.192 3.31.585 4.825 1.473 1.515.888 1.601 4.549 2.38 4.094.779-.455 2.164-1.235 2.164-2.166a20.033 20.033 0 00-.195-3.877 16.558 16.558 0 00-1.363-5.891c-.822-1.213 1.45-1.69 1.082-2.166-.368-.477-.281-1.538 1.277-1.95 1.558-.411 1.666 0 2.51-.693.844-.693.995-3.725 1.147-4.83a11.999 11.999 0 00-.628-4.331 26.332 26.332 0 00-2.445-4.332c-.541-.628-1.255-.802.26-2.729 1.514-1.928.627-1.516.411-2.166-.217-.65-.541-2.036-.844-3.336-.303-1.299.627-2.75 0-4.613-.628-1.863-1.147-1.451-1.017-1.863a16.72 16.72 0 016.188 0 15.12 15.12 0 004.328-.281 8.912 8.912 0 013.527 1.646c1.428.931 1.991.693 2.726 1.841.736 1.148 1.147 1.754 2.662 1.667a8.05 8.05 0 013.137.672s-1.082.606-.887 2.642a29.028 29.028 0 01-.195 4.332c0 .823.455.867 1.147.975.693.108 2.597 1.776 4.544 2.469 1.948.693 2.467.476 3.094-1.105.628-1.581.779-1.451 1.558-1.537.779-.087 1.039.173 1.364-.174.324-.346-.585-1.039-.368-2.166a7.787 7.787 0 012.164-3.378c.887-.823 1.514.844 2.293 2.36a416.716 416.716 0 004.328 8.036c.865 1.538 1.774 1.733.844 3.249-.931 1.516-1.363 2.166 0 2.859 1.363.693 2.726 1.884 2.618 3.032-.108 1.148-.411 1.17 0 1.473.411.303 2.164-.628 3.484 0a12.032 12.032 0 013.656 1.949c.888.91.801 1.213-.454 1.668a21.563 21.563 0 00-3.137 1.256c-.628.39-1.623 1.105-1.58 1.69.043.584-.26 1.559.736.801a13.218 13.218 0 013.808-1.863c1.168-.346.281 0 1.363-.173 1.235.104 2.442.419 3.57.931 1.472.412 1.082 1.343.714 2.166a2.564 2.564 0 000 2.643c.585.974-.259 1.819-1.557 2.989a6.64 6.64 0 01-4.328 1.624 7.938 7.938 0 00-4.587 2.924c-1.472 1.386-2.164 1.04-4.328 1.126-2.164.087-1.298-1.061-1.969-.823a8.453 8.453 0 01-2.878 1.105 61.315 61.315 0 00-7.746.736c-1.775.498-1.234 1.711-1.666 2.708-.433.996-1.147.584-2.467 1.039a11.485 11.485 0 00-4.479 5.09 16.66 16.66 0 01-3.657 4.332 11.693 11.693 0 003.7-2.751 57.713 57.713 0 016.903-5.371 12.382 12.382 0 015.02-2.166c.692.217 2.445 1.559 2.445 2.166 0 .606-.52 1.256-1.775 2.426-1.255 1.169-2.921 0-2.813.476a3.255 3.255 0 001.948 1.819c.974.239.93 1.408.93 1.993 0 .585-.562 1.343 1.666 3.206a6.684 6.684 0 005.388 1.884c1.623 0 .779.563 1.45.498.671-.065.801-1.343 1.017-2.382a4.338 4.338 0 011.19-2.448c.584-.433 1.039-1.278 1.212.325a5.1 5.1 0 01-1.515 4.224c-.844.476-.649 1.104-.649 1.581 0 .476-.974.52-3.267 1.797-2.294 1.278-3.03 1.582-3.419 1.408-.39-.173-1.255.217-2.359 1.213-1.103.997-2.293 2.339-3.116 2.296-.822-.043-1.514-.368-.411-1.516 1.104-1.148 1.493-2.707 2.597-3.271a4.56 4.56 0 012.553-.476c.909 0 .476-.563 1.212-1.105.736-.541-.563-.39-1.818-.585-1.255-.194-.194-1.342-.194-1.342l-1.299.671c-.796.438-1.629.808-2.488 1.105-.498 0-.39.411-.541.628a8.205 8.205 0 01-1.991.346s-.973 1.95-2.402 2.166c-1.428.217-.432.174-1.471.628-1.039.455-.865-.519-1.082-.26a6.993 6.993 0 01-1.536 1.387c-1.147.866-1.818 1.148-2.64 4.331a7.891 7.891 0 000 4.765c0 .477-1.428-.324-1.839 0a6.492 6.492 0 01-2.553 1.885c-1.464.304-2.872.83-4.177 1.559a5.455 5.455 0 00-.843 2.599 26.625 26.625 0 01-1.515 4.181 1.936 1.936 0 00-.671-1.95c-.995-.823-.844-1.581-.844-1.581a4.88 4.88 0 00.152 2.296 6.498 6.498 0 01.757 3.617 5.893 5.893 0 01-1.731 3.292c-.779.455.195-.844.195-1.884s-.52-1.105-.866-1.603a5.095 5.095 0 01.26-3.595c.606-1.755-.541-.693-1.212.476a4.726 4.726 0 000 4.765c1.039 1.408-.671 1.256 0 3.292.671 2.036-.844 3.033-.562 3.358.281.324 1.103-.152 1.471.844.368.997-.736.563-1.104.823-.368.26-.194.672 0 1.213.195.542.671.195.476.368a4.002 4.002 0 01-1.666 1.17c-.952.325-1.038-.173-1.623.52-.584.693-1.038 1.321-1.666 2.166-.627.844-1.06.52-1.731 1.061-.671.541-.909 1.018-1.731 1.689a19.868 19.868 0 00-3.657 3.098c-.995 1.343-.735 1.689-1.211 3.855-.476 2.166 1.211 5.956 2.293 9.552 1.082 3.595 1.493 2.577 1.363 3.703a6.192 6.192 0 01-1.428 3.141c-.779.78-1.211-.563-2.293-1.343s-.217-1.343-1.255-2.989a5.999 5.999 0 01-1.082-3.444 14.77 14.77 0 00-.844-4.332c-.541-1.299-1.731-2.967-3.505-2.295-1.775.671-1.32.346-2.294 0-.974-.347-3.505-1.3-4.804-.628-1.298.671-5.388-.195-6.231 0-.844.194-1.472.281-1.472.866s-.368.693 1.147 1.104c1.515.412 1.277.867 1.168 1.517-.108.649-1.211-.347-1.796-.585-.584-.238-1.146.476-2.163.476s-1.212-.996-2.164-1.126a8.228 8.228 0 01-2.164-.347 7.957 7.957 0 00-3.094-.866 28.947 28.947 0 00-6.903 4.137 11.252 11.252 0 00-3.765 3.92c-.454 1.127-.497 1.235 1.039 2.924 1.536 1.69.8 1.408.498 2.383-.303.974-1.169 2.166-2.164 4.613-.996 2.448-.433 3.682.844 6.043a21.847 21.847 0 003.483 5.09c1.039.996 1.775 2.166 2.662 2.447a3.656 3.656 0 011.471.932c.411.411.303.585 1.71.216a15.165 15.165 0 013.418-.931 3.698 3.698 0 012.424.693c.541.52.627.217.627 0a6.71 6.71 0 01.585-1.581 14.503 14.503 0 001.687-3.206c.195-1.061.195-3.227 1.429-3.227a32.293 32.293 0 016.491-.628c2.51.173 1.406 1.408.736 2.729-.671 1.321-.736 1.365-.736 2.361 0 .996.281 1.018-.519 1.603-.801.585-.303-.347-.628.238a5.71 5.71 0 01-1.363 1.278c.13-.152.519.996.519 1.538 0 .541-.13.823-.13 2.166s-2.618 2.729-2.618 2.729c.734.36 1.541.546 2.359.541 1.54-.125 3.09.082 4.544.607 1.471.693 4.327-.542 6.361.476s1.32 1.646 1.472 2.621c.219 1.665.291 3.347.216 5.025-.151.758-1.103 2.88-1.623 4.332-.519 1.451 1.472 2.62 3.332 3.855a15.16 15.16 0 004.328 2.166c.952.26 2.726-1.451 5.972-1.235a5.08 5.08 0 014.328 2.946 13.794 13.794 0 011.861-4.05c1.471-2.34 1.536-3.033 3.527-3.791 1.99-.758 2.661-.888 5.928-1.927 3.268-1.04 2.64-.282 4.328-.13 3.222.218 6.412.77 9.521 1.646 3.916 1.169 9.91 1.516 12.182 2.469 2.272.953 3.332 3.66 5.691 5.848 2.358 2.187 5.323 4.202 6.491 5.241 1.169 1.04 8.266 1.993 9.824 2.621a7.619 7.619 0 013.83 4.678c.151 1.517 1.709 2.166 3.851 3.163 2.143.996 2.792 1.927 4.198 4.678 1.407 2.751.974 3.509 2.878 4.202 1.904.693 15.147 4.332 18.544 5.588a83.68 83.68 0 018.655 5.22c1.125.411 3.116-.347 4.003.13.887.476-.519 3.097.584 4.96 1.104 1.862 1.19 2.014.52 3.379-.671 1.364-3.333 4.678-4.328 6.324a11.9 11.9 0 01-4.501 3.379c-1.276.693-2.38 0-1.276 1.386 1.103 1.386 0 2.534-.887 3.79-.888 1.257 0 1.083-.217 5.09-.216 4.007 0 8.317-.433 10.05-.432 1.733-3.029-1.516-5.993 2.166-2.965 3.682-3.765 6.498-5.54 6.952a23.807 23.807 0 00-7.313 3.769 8.987 8.987 0 00-2.575 3.726c-.887 1.927-1.775 5.847-2.727 8.252-.952 2.404-2.51 3.79-6.058 7.039-3.549 3.249-5.107 6.498-7.401 9.075-2.293 2.577-1.687 1.993-2.163 2.491-1.234 1.213-6.275-1.993-4.977-.217.974 1.3-.541 0 .281 1.235.822 1.234 1.407 1.732-.368 3.92-1.774 2.188-3.808 1.776-5.214 2.166-1.407.39-3.506-1.451-3.657-.542a5.957 5.957 0 01-2.164 3.661c-1.104.541-4.068 1.386-3.981 1.733 1.384 6.497 4.327 7.19 1.211 6.887-8.33-.801-2.38-2.794-8.157 9.335-.887 1.863-1.775.91-1.623 3.119.151 2.209 0 3.855 1.168 5.22 1.169 1.365.368 1.321-1.622 3.162a15.758 15.758 0 00-3.982 4.332c-1.861 2.816-3.613 2.686-2.964 4.808.649 2.123.822 5.307 1.925 8.469 1.104 3.162 3.398 2.621 7.011 4.83 3.614 2.209 4.068 1.018 5.842 1.581 1.775.563-1.255.693-4.327 1.235-2.424.695-4.955.93-7.465.693a38.212 38.212 0 01-9.218-4.83 18.834 18.834 0 01-5.691-5.913c-1.038-2.274-1.774-4.549-3.094-7.646-1.32-3.097-.39-5.025.216-11.847.277-5.291.942-10.554 1.991-15.746.952-3.661 3.916-19.905 4.717-24.107.801-4.202 4.587-21.269 4.89-23.955a62.89 62.89 0 011.104-7.429c.345-2.787.418-5.602.216-8.404 0-.281-.216-.476-1.038-3.032a7.617 7.617 0 00-3.982-4.678c-1.839-1.105-3.765-2.47-5.236-3.509a22.714 22.714 0 01-4.739-4.332 40.955 40.955 0 01-3.614-7.234 96.584 96.584 0 00-5.972-10.678 20.701 20.701 0 01-3.916-7.711c-1.255-3.92 1.103-3.985 1.536-6.194a34.013 34.013 0 013.549-7.494c1.623-3.097 3.765-4.007 5.02-6.758 1.255-2.751.303-2.751-.152-5.436-.454-2.686.152-2.166-.67-3.704-.823-1.538-1.234-3.249-1.969-3.725-.736-.477-1.861-.823-2.51 0-.65.823-1.861 2.945-2.597 3.097-.736.152-1.039-.693-1.471-1.17-.433-.476-2.597-.476-3.03-.974-.432-.498-1.558-.542-2.293-.888a34.076 34.076 0 01-4.328-2.556 5.896 5.896 0 01-1.839-4.115c0-1.798-1.558-2.491-5.02-4.96a20.423 20.423 0 00-9.153-3.856c-4.328-1.039-5.907-3.985-7.314-4.83-1.406-.844-1.255-1.711-4.327-1.364-3.073.346-6.86-1.386-9.218-2.339-2.359-.953-6.492-1.646-8.352-2.838-1.861-1.191-4.869-1.581-6.211-4.331-1.341-2.751-1.103-1.711-.584-4.202.52-2.491-3.029-4.549-5.171-6.888-2.142-2.339-3.722-2.642-4.826-5.545-1.103-2.902-2.618-2.75-4.782-4.83-2.163-2.079-2.163-4.678-3.115-7.017-.953-2.339-6.795-5.718-6.795-5.718s1.558 3.942 2.164 5.523a57.602 57.602 0 003.981 8.187c1.775 2.816 3.333 3.509 4.956 6.325 1.622 2.815 0 4.548-.52 3.443-.519-1.104-2.964-1.581-2.964-2.88a6.507 6.507 0 00-1.104-3.163c-.519-1.039-2.813-2.165-5.02-4.007-2.207-1.841-3.786-2.62-2.402-2.62 1.385 0 3.398 1.321 3.03.498-.368-.823-2.9-3.379-4.068-5.177a38.618 38.618 0 01-2.748-6.822 11.84 11.84 0 00-7.682-6.108c-2.164-.217-2.726-1.256-3.462-3.444a41.807 41.807 0 00-1.839-6.281c-.974-1.711-5.107-7.494-5.172-9.703-.064-2.21-1.255-8.664.217-12.173 1.471-3.508 1.103-11.566.887-13.147-.216-1.581-2.878-4.613-2.878-5.783 0-1.169 1.558-.498 2.726-.151 1.169.346 3.701 1.386 3.701 1.386a34.21 34.21 0 00-3.095-4.83 17.31 17.31 0 00-6.188-3.076 6.837 6.837 0 01-4.328-2.166c-.822-1.321-1.71-3.032-2.293-4.137-.585-1.104-3.116-2.404-3.7-3.573-.585-1.17-.433-3.444-1.255-4.614a2.837 2.837 0 00-3.333-1.386c-1.32.477-1.752-.693-2.791-2.404a7.402 7.402 0 00-4.003-2.751 11.902 11.902 0 01-3.094-4.007 25.254 25.254 0 00-4.89-5.674 127.602 127.602 0 00-12.983-4.549c-1.49.217-2.997.29-4.501.217-.887-.282-3.916-2.902-5.453-3.444-1.536-.541-2.683.607-3.419 2.339a21.964 21.964 0 01-6.34 5.978c-1.99 1.321-3.635 1.451-3.483.758a13.25 13.25 0 01.757-3.444c.65-1.646 1.017-2.165 3.094-3.162 2.078-.996 1.991-1.104 1.19-1.039-.8.065-1.406-.13.217-1.083s2.293-1.105 2.163-1.928c-.13-.823-3.526 1.083-5.733 2.881a20.242 20.242 0 00-5.475 6.194c-1.926 3.162.238 1.993-1.406 4.072-1.645 2.079-7.163 6.26-8.785 7.841a44.064 44.064 0 01-11.08 5.913 12.974 12.974 0 00-5.17 2.165c-1.32 1.105-4.653 1.452-3.55.694 1.104-.759 3.181-2.491 4.588-3.314a61.075 61.075 0 016.275-2.751 20.235 20.235 0 005.777-4.05 38.355 38.355 0 003.549-5.263c1.017-1.647 1.255-2.405-.887-1.733a9.083 9.083 0 01-5.475 0c-1.103-.412-3.981 1.321-5.02.563-1.038-.758 0-2.339-.584-3.097s-2.964-.282-4.327-.563c-1.364-.282-3.55-1.43-3.55-3.509 0-2.079-1.47-3.855-.67-5.437.8-1.581 1.97-1.992 3.203-2.88a18.918 18.918 0 015.755-2.166 4.327 4.327 0 002.445-1.43c.758-.606-1.471-3.097-1.471-3.097l1.255-.78c.887-.541.238-1.711-1.32-1.516-1.558.195-4.89 1.755-6.946 2.296-2.055.542-4.868.217-4.803-.671.065-.888.519-1.452-.217-2.166-.735-.715-1.341-1.451-.584-1.776.757-.325 5.301-2.881 5.301-2.881a6.736 6.736 0 003.397 1.993c1.775.216 5.54-3.098 5.54-3.098-2.359-1.451-1.861-1.862-1.861-1.862-1.6.014-3.194-.19-4.739-.607a4.008 4.008 0 01-1.363-2.707c-.238-.975-4.003-1.733-2.964-3.314 1.038-1.581 2.964-2.166 4.327-3.704 1.363-1.537 2.359-4.548 5.972-6.194a89.316 89.316 0 009.91-4.549c1.905-1.386 2.792 0 3.528.13.735.13 5.322-.195 7.097-.195 1.774 0 2.034 2.08 2.553 2.665.52.584 16.164.974 16.164.974 5.308.015 10.61.333 15.882.953 2.662.758 7.465 2.751 7.465 2.751 2.921-.477 2.662-4.029 4.458-4.029zm177.583-79.857a10.205 10.205 0 01-6.643 7.018 142.972 142.972 0 00-15.514 6.064c-.433.282.606 3.293 1.925 4.809 1.32 1.516 2.597 2.555 3.765 4.072 1.169 1.516 3.246 1.386 4.891 2.967 1.644 1.581 2.791 1.018 7.227 1.105 4.436.086 3.245.411 8.201.67 4.955.26 10.126.694 11.814 2.167 1.688 1.473 4.133 7.429 5.691 11.024 1.558 3.596 4.327 9.487 4.327 10.05 0 .563-1.709 4.873-1.709 5.567a6.35 6.35 0 001.709 2.815c.801.975.368 1.733.217 2.62a9.242 9.242 0 001.038 3.445c.152.281 2.359-2.166 3.765-2.621 1.407-.455 4.869 2.49 4.869 4.483 0 4.527 1.233 2.99-6.124 8.339-.973.693-1.925 6.108-1.19 8.664.736 2.556 2.51 5.718 3.917 9.443 1.406 3.726 5.539 8.945 6.859 11.35 1.32 2.404 1.709 5.718 4.652 6.497 2.943.78 5.778 1.776 7.92 2.274 2.142.499 3.548 1.17 4.565-.823 1.017-1.992 3.116-9.573 4.804-15.161 1.688-5.588-.151-7.147 3.852-8.382 4.003-1.235 10.321-3.725 12.03-4.483 1.71-.759 1.407-6.195 5.172-7.993a43.86 43.86 0 017.963-2.815 50.191 50.191 0 0012.506-5.978c3.679-2.621 4.717-1.235 6.059-3.639 1.342-2.404-1.342-5.935-1.623-9.508-.281-3.574 1.169-3.79 1.904-7.018.736-3.227 1.126-5.371 4.003-7.58 2.878-2.21 4.328-3.444 3.917-5.502a35.464 35.464 0 01-2.012-7.429c0-2.274.519-.975-.65-4.137a6.658 6.658 0 010-6.498c1.126-2.967 4.068-2.166 3.852-3.508-.216-1.343-4.739-3.314-4.804-6.953a7.14 7.14 0 011.558-5.653c.736-.888 8.266-6.888 8.785-7.429.52-.541-.151-2.058 3.549-3.855 3.7-1.798 4.933-2.968 6.34-3.51 1.406-.54 3.613-.476-.671-1.732s-5.236-1.776-8.049-1.43c-2.813.347-3.765 1.928-8.785 2.405a44.622 44.622 0 00-10.819 2.816s1.709-1.517.238-2.946c-1.472-1.43 3.83-6.195 4.717-6.758.887-.563-6.946-2.469-11.014-3.227S347.29-.26 342.725.065c-4.566.325-11.317.281-13.611 1.04-2.293.757-1.99 3.725-4.565 3.855-2.575.13-7.379-1.517-11.079-.953a71.94 71.94 0 00-10.278 3.227c-.649.13 2.294 1.927 4.219 2.339 1.926.412 4.436 4.332 4.436 4.332s-5.171-1.733-10.429-3.184a27.367 27.367 0 00-13.502.628 35.031 35.031 0 01-9.24 1.993c-4.328.216-9.153 3.725-11.598 5.371-2.445 1.646-10.04 6.065-11.966 7.083-1.926 1.018-1.168 1.516.887 2.166 2.056.65 4.328.844 4.328.844zm-109.445 56.92c.584 2.513.584 6.13-.779 4.57-1.363-1.559-2.51-4.721-4.739-3.443s-4.63.931-4.328.65c.303-.282.001-1.647-1.19-2.166-1.19-.52-1.817.216-3.007.91-1.19.692-4.912 1.602-3.397.41 1.514-1.19 1.038-1.819.497-3.205-.541-1.386-4.436.953-6.491 2.426a24.593 24.593 0 00-4.523 5.242c-1.233 1.516-.346 2.469 1.537 3.032 1.882.563 4.868.91 2.358 1.84-2.51.932-4.327 1.539-3.159 2.34a9.644 9.644 0 005.713.628c2.508-.62 5.129-.62 7.638 0a22.07 22.07 0 005.669.931 11.387 11.387 0 01-3.7 1.235c-2.359.411-6.708 0-8.915.411-2.207.412-5.712 1.018-4.825 1.842a9.215 9.215 0 004.63 3.075c3.051.953 3.592 0 5.41.498 1.817.498.844 2.534 1.341 2.838 2.49.03 4.972-.276 7.379-.91 3.44-.65 2.164-1.191 4.868-1.884 2.705-.694 2.813-2.751 4.328-3.206 1.515-.455.433 1.061 2.315 1.516 1.883.455.823.585 2.857.91 2.034.325 1.622 1.104 3.591.975 1.97-.13 4.328-1.473 3.982-1.712a1.733 1.733 0 01-.39-1.732c.195-.932-1.969.173-2.748.628-.779.455-.735-1.235.931-2.058 1.666-.823 3.159 0 4.133 0 .973 0 0-2.837-1.666-3.292a29.93 29.93 0 01-5.237-3.032c-2.64-1.473-1.277-2.166-2.164-4.05-.887-1.885-2.466-7.624-3.938-8.664-1.471-1.04-3.051-.736-4.522-1.754a10.101 10.101 0 00.541 4.201zm-40.874-3.898c.649 1.82.757.671-.541 2.685-1.299 2.015-.541 2.773-1.429 4.332-.887 1.56-3.245 3.53-2.51 4.527.736.996 3.116 1.603 4.09 2.382.974.78 1.969 2.405 3.743 1.798a19.447 19.447 0 003.592-1.646c1.234-.65 2.272-1.386 2.164-2.989-.108-1.603 0-2.382.39-2.166.389.217 1.276.888 1.666-.173a10.014 10.014 0 011.926-3.27c.843-.824 3.245-1.647 4.327-2.6a27.335 27.335 0 003.614-2.859c.541-.823-.996-1.472-1.926-1.84-.93-.369-2.012-1.82-4.198-1.82-2.185 0-3.332 1.646-3.246.91.087-.737-1.471-1.105-2.358-1.43a7.717 7.717 0 00-4.522-.498 31.203 31.203 0 00-6.211 1.148c-1.817.412.801 1.668 1.429 3.509zm64.113 21.962c-.281.412-1.58.845-2.358 1.754-.779.91 1.666.412 2.466.694.801.281 1.363 1.039 2.013 1.277 1.838.341 3.731.229 5.517-.324 1.428-.694 1.558-.91 1.428-1.235a21.872 21.872 0 00-5.02-4.18c-2.163-1.105-2.163-1.148-2.575-.867-.411.282-1.168 2.47-1.471 2.881zm-9.304-21.464c-1.342.671-2.316 1.451 0 2.62a34.349 34.349 0 014.522 3.076c1.536.953 2.164 3.704 5.366 2.47 3.203-1.235 4.479-2.708 4.934-3.986.454-1.278-.455-1.56-1.234-2.772-.779-1.213-.995-1.69-2.618-1.516-1.623.173-2.164.194-2.164.194a8.982 8.982 0 012.857-2.165c1.774-.867.303-1.473 1.125-2.296.822-.823-2.164-1.235-3.397-.91-1.234.325-1.32 0-3.441-.195-2.12-.195-5.453 1.841-5.323 2.534.13.693 1.731.412 3.203 1.235 1.471.823 1.925.736.454 3.075-1.471 2.34-2.164-.541-2.77-.91-.605-.368-.129-1.147-1.514-.454zm-9.456-4.224c-2.164.195-2.943 1.733-2.164 1.971.779.239 1.385-.238 2.705 1.192s2.531 2.165 3.051-.13c.519-2.296-.195-3.444-3.592-3.033zM119.81 60.364c-2.467 1.97-2.943 3.53-4.869 4.765-1.926 1.234-1.471 2.295-.844 2.989.628.693 2.575 0 3.462-.499.887-.498 1.623-1.624 2.164-.931.541.693 2.791-2.34 3.679-3.357a7.76 7.76 0 012.531-2.014c.238 0-.844 1.19-.454 2.166.389.974 2.164 1.018 3.743-.65 1.58-1.668.152-3.163 1.385-4.44 1.233-1.278 2.164-1.105-.151-2.166a3.483 3.483 0 00-4.328.736 15.935 15.935 0 00-6.318 3.4zm15.016 3.119a10.504 10.504 0 00-4.327 1.277 8.357 8.357 0 00-3.83 5.047c-.563 1.43.238 1.43 2.358 2.166a4.627 4.627 0 005.756-2.166c.693-1.971 1.536.476 1.125 1.473-.411.996 1.493 0 2.38-.368a13.993 13.993 0 013.83-.607 13.84 13.84 0 01-4.5 2.556 35.994 35.994 0 01-4.826 1.3c-.627 0 .606 1.039 3.311 1.602 2.705.563 4.328-1.668 8.222-3.119 3.895-1.45 3.701-1.754 4.977-1.386 1.277.368 2.662-.65 4.22-1.018 1.558-.368 2.163.238 2.921-2.166.757-2.404 1.904-4.591-.303-4.721-2.207-.13-2.359-.152-2.662 2.382-.303 2.534-.541 1.126-.541 1.126s-1.471-2.166-2.358-3.335a36.518 36.518 0 00-2.51-3.899c-.974-.974-1.428.412-2.943 2.166-1.515 1.755-.303 2.34 1.212 3.076 1.514.736 2.618 2.62 1.882 3.119-.735.498-1.579 0-4.327.238s-2.705-.867-3.484-1.235c-.779-.368 1.32-1.148-1.688-2.404-3.007-1.256-2.899-1.17-3.895-1.126v.022zm-9.109 2.382a16.252 16.252 0 00-4.328 3.336c-.606.93.628.78 1.839.736 1.212-.043 1.58-2.318 2.489-4.094v.022zm7.746-6.108c-1.017.455-1.017.802.628.996 1.644.195 2.618-.563 2.164-1.234-.455-.672-1.948-.13-2.792.238zm8.396-8.663a11.289 11.289 0 00-4.458 1.84c-.121.928.061 1.87.52 2.686.497.953.67 1.083 3.418.347 2.748-.737 4.653-2.166 3.744-2.404a16.924 16.924 0 00-2.294-.78c-.8 0 .714-.542 2.532-1.126 1.817-.585 2.488-1.603-3.419-.607l-.043.044zm-9.326 1.429c-.779.368-1.06.368.562.996 1.623.628 3.376.563 3.138 0a2.727 2.727 0 00-3.657-1.04l-.043.044zm6.34-4.505a4.44 4.44 0 00-2.164 2.166c-.346.433 1.731-.303 2.705-.542.973-.238 1.168.347 2.163-.476.996-.823 2.77 0 4.458-.347 1.688-.346 1.926-1.473 1.558-2.425-.368-.953-4.263-.174-8.677 1.58l-.043.044zm16.683 4.158c-.455.217-.282.932.108 1.776.389.845.497.65 1.341.975.69.278 1.321.681 1.861 1.191.195.195.325.26.671-.563.346-.823-.173-.671-1.104-1.776-.93-1.104-1.644-2.23-2.834-1.646l-.043.043zm5.69 7.191a2.873 2.873 0 00-2.466.628c-.455.217.259.758.584 1.733.324.975 0 1.321 1.904 1.451 1.904.13 2.445-.216 2.597-1.408.151-1.19-1.385-2.122-2.575-2.447l-.044.043zm7.271 2.166c-1.169-.866-1.731-1.538-2.9-1.061-1.168.476-.194 1.083-.194 1.408 0 .325 1.428 0 1.449.736.022.736.455 1.083-1.255 1.191-1.709.109-2.163 0-2.856.52-.692.52 1.277 0 1.861.715.584.715 1.601.866 3.246.628l3.895-.628a12.481 12.481 0 00-1.688 1.95c-.498.8-.693 1.949.173 2.512.865.563.952-.585 3.332-.628a3.527 3.527 0 003.159-1.322 2.315 2.315 0 01-.476-1.732 4.336 4.336 0 000-1.473 11.4 11.4 0 011.19.974s-.173-.714-.519-2.014c-.346-1.3 0-1.364-.454-3.119-.455-1.754-.303-2.166-2.164-2.166-1.861 0-3.03.672-4.501.672-1.471 0-2.164.26-1.039.823 1.126.563 1.234 1.213 1.753 1.84a4.04 4.04 0 01.455 2.037l-2.424-1.906-.043.043zm-8.98 6.498a2.17 2.17 0 00-1.06 1.776c0 .606.995.26 2.64-.303 1.644-.563.8-2.231-1.537-1.473h-.043zm23.283-3.119a11.334 11.334 0 00-3.246 2.642c-.801.888 0 .997 1.926 2.036 1.925 1.04 4.327 1.235 5.193.152.865-1.083-.433-6.714-3.873-4.83zm9.499-8.014c-2.619.26-1.818.65-4.847-.346a28.534 28.534 0 00-7.855-1.105c-1.038 0-.562.476.519 2.166 1.082 1.69 1.364 2.36 3.571 1.82 2.207-.542 4.024-.932 5.647 1.407 1.623 2.34 2.489 3.054 1.147 3.92-1.341.867-.692 2.166 0 4.029s2.532 1.711 5.02 1.711c2.488 0 18.133-.238 20.556-.671a15.656 15.656 0 006.102-3.358c1.298-.93 2.012-2.382.238-3.443a13.493 13.493 0 00-6.297-2.166c-1.99 0-3.678 1.04-6.707 1.343-3.03.303-2.359 1.776-5.107 1.84-2.748.066-1.406 1.257-4.76-.108-3.354-1.364-5.821-3.097-4.328-3.335 1.493-.238 2.878-.455 1.991-1.213s-2.467-2.73-4.89-2.49zm-31.311-12.8c1.623.541 2.034.953.217 1.43-1.818.476-3.224 1.754-1.407 1.515 1.915-.1 3.833.09 5.691.563 2.337.369 2.164.13 3.181 1.451a3.094 3.094 0 003.722.91c1.579-.368 1.817-.476.779-1.603-1.039-1.126-2.164-3.248-3.506-4.072-1.341-.823-2.596-1.992-4.003-1.84-1.406.151-1.731.151-2.943-1.495-1.211-1.646-2.163-.866-3.959-.412-1.796.455-2.337 1.712-3.03 2.166-1.384 1.235 3.679.824 5.258 1.387zm21.271-16.873c-1.926 2.404-3.484 4.332-1.299 4.678 2.186.347 3.138-.173 3.289.52.152.693-.368 1.17-3.613 1.17-3.246 0-2.164.715-.455 2.859 1.71 2.144 1.991 1.408 4.761 1.343 2.769-.065 3.7-1.083 5.993-.477 2.294.607 2.986 1.17.909 1.776-2.077.607-6.946 1.798-5.82 2.838a19.25 19.25 0 006.08 3.747c1.558.238 1.882-1.04 5.258-.65 3.375.39 2.553.715 2.899-.217.347-.931 2.164-3.292 2.597-4.158.433-.867 1.298-1.408 3.138-1.82 1.839-.411 2.445-1.018.692-1.624-1.753-.606-3.679-.888-3.505-1.386.173-.498 1.255-1.884.519-2.62-.736-.737-1.904-.672-2.878-1.062-.974-.39-2.034-2.166-3.246-2.88a26.695 26.695 0 01-3.765-1.972c-1.471-1.126-3.851-3.898-6.794-3.747-1.991.108-2.856 1.278-4.76 3.682zm-3.787 20.143c-.736.368-2.575.433-1.212 1.581 1.363 1.148.996 1.17 2.727.52a13.574 13.574 0 004.479-2.772c.216-.477-1.731-1.408-3.073-1.82a35.551 35.551 0 00-5.02-2.166c-3.981-1.17 2.856 4.267 2.099 4.657zm90.36-35.824c-3.051-.823-13.978-2.924-17.526-2.166-3.549.758-3.354-1.84-8.266-1.191-4.912.65-12.507.26-14.865.628-2.359.368 1.168 1.386 2.445 2.166 1.276.78-6.102-.91-11.707.65-5.604 1.56-9.261 2.382-3.245 4.678a38.23 38.23 0 016.794 2.946 85.478 85.478 0 01-10.949-2.664c-3.245-1.3-1.471-1.192-7.573.541s-12.074 2.772-11.728 4.613c.346 1.841 4.934 4.332 7.985 4.96a29.44 29.44 0 009.845-.996c.498-.195-2.467 2.47-2.467 2.47s3.159-.65 6.708-1.56c3.549-.91 6.297-1.928 9.65-3.12a28.45 28.45 0 003.939-1.559 52.785 52.785 0 01-9.846 5.935 44.859 44.859 0 01-11.728 2.664c-2.445 0-2.163 1.646.39 2.924a37.509 37.509 0 015.626 4.96 3.854 3.854 0 011.471 2.382 6.812 6.812 0 00-8.071 0c-4.327 3.033-3.657 4.592-2.553 4.96 1.103.368 4.825.737 5.496 2.015.671 1.277 5.626-1.192 5.626-1.192s-2.467 3.12-4.825 3.12c-2.359 0-2.164-2.015-5.713-1.647-3.548.368-3.246 1.191-1.774 2.383 1.471 1.191 2.661 1.56 0 2.75-2.662 1.192-3.744 1.56-3.852 3.033-.108 1.473 3.354 1.473 5.518 1.473 2.164 0 4.328-.195 8.179-.282 3.852-.087 3.549-1.386 5.02-1.386 1.472 0 2.965.455 2.359 1.927-.606 1.473.606.542 4.933-1.018 4.328-1.559 2.359-3.942 2.164-4.765-.195-.823-1.883-1.104-2.856-1.559-.974-.455 2.943-4.505 2.358-5.87-.584-1.364 4.826-.281 7.271-3.508 2.445-3.228 1.579-5.588-.195-6.13-1.774-.541 3.267-.195 4.825-1.126 1.558-.931 5.042-2.014 6.492-3.747 1.449-1.733 1.882-2.383-1.472-2.015-3.354.369 4.826-1.472 8.655-4.05 3.83-2.577 8.461-5.588 9.456-6.324.996-.737 1.861-.368-2.769 0-4.631.368-10.127-.368-7.076-.737 3.051-.368 12.117-1.472 14.476-3.227a31.065 31.065 0 013.375-2.339zm-55.133 63.7c-4.934-.456-12.118-1.647-13.589 2.577a127.719 127.719 0 00-3.916 15.334c-.217 1.733 5.907 4.332 10.126 4.484 4.22.151 11.144.476 9.759-.542-1.385-1.018-.195-1.56 3.743-1.386 3.938.174 4.328-.823 4.328-1.646s.692 1.018 3.44 2.49c2.748 1.474 5.128 5.589 7.595 7.971 2.467 2.383 7.963 5.61 6.881 7.451-1.082 1.841 1.19 8.252-7.292 9.725-8.482 1.473-8.958.455-8.85 2.383.108 1.927.563 2.75 3.808 2.75 3.246 0 7.985-2.75 9.564-.736a10.302 10.302 0 005.129 3.227c1.363.455-1.688 1.278-2.467 1.56-.779.281 1.666.541 6.491 2.837 4.826 2.296 10.625 2.577 7.768.91-2.856-1.668-4.219-4.679-5.496-5.675-1.276-.996 0-.195 2.164.368a14.467 14.467 0 015.323 3.206c.974.823 1.472-.282 2.164-3.487.692-3.206-.303-3.228-4.155-5.783-3.851-2.556-5.02-4.592-5.409-6.498-.39-1.906 1.969-2.166 2.964-3.487.996-1.321 3.744 2.296 5.605 4.332 1.86 2.035 3.44 5.804 4.933 3.14a33.71 33.71 0 002.835-10.006c0-1.387-1.472 0-7.768-3.033a51.604 51.604 0 00-10.127-4.331c-.606 0 1.666-1.192 4.328-2.578 2.661-1.386 3.938-1.191-1.969-6.8-5.908-5.61-7.574-6.78-11.425-7.148-3.852-.369-4.912-4.332-7.682-5.783-2.77-1.451-9.153 1.646-11.035 2.166-1.883.52-1.277 1.19-3.635-2.166-2.359-3.357-4.133-5.827-4.133-5.827zm4.327 0c-2.445.303 1.493 4.786 4.631 4.96a14.828 14.828 0 006.491-1.56c.801-.173-7.184-3.856-11.035-3.4h-.087zm-11.013 45.527a22.972 22.972 0 00-1.558 5.653 10.218 10.218 0 01-.758 3.249c-.368 1.169 1.19-.217 2.164 1.494.974 1.711.584 2.166 2.424.217a5.797 5.797 0 016.491-1.863c2.575.823 4.566 1.17 3.678-.411-.887-1.582-2.163-1.452-3.83-3.574a10.246 10.246 0 00-5.236-3.444c-2.207-.823-2.445-3.444-3.375-1.321zm18.565 160.84a7.98 7.98 0 00-6.686-5.046c-4.804-.91-6.492.888-8.179 1.472-1.688.585 1.644.888 3.938 0a4.329 4.329 0 014.327.217c.303.411-.757.671-1.146.238-.39-.433-.455 1.062 2.163 1.993 2.619.931 3.203 1.364 3.462 2.469.103.938.398 1.845.866 2.664.606.931.822 1.321-.26 1.733-1.082.411-.714.346 0 .844a10.817 10.817 0 004.652 1.495c2.164.195 3.008.606 1.429-1.451-1.58-2.058-4.263-6.13-4.501-6.628h-.065zm7.162 10.093a3.617 3.617 0 01.801 3.401c0 .736-1.428.173-3.917-.498-2.488-.672-2.164-.325 0 .844 2.164 1.17 3.527.867 3.441 2.426-.087 1.56 1.969.13 2.878-.758.908-.888.865 0 4.673.477 3.809.476 4.609 1.256 4.003-.412-.605-1.668 1.753-1.538-1.644-3.141-3.397-1.602-11.598-3.79-10.17-2.339h-.065zm-10.819.953c-1.428-1.603-3.224-1.819-3.246-.476-.021 1.343.498 1.278 1.818 1.646 1.32.368 2.359-.152 1.428-1.17zm27.74 6.909c-1.558-.541-1.882.629-.844 1.625 1.039.996 2.64.628 4.328.563 1.688-.065-.693-1.256-3.484-2.188zM231.722 107.45c-2.164.888-3.289 1.495-1.472 3.856 1.818 2.361 2.878 3.855 3.57 2.166.693-1.69 1.342-7.494-2.098-6.022zm-16.575 25.493c-3.138.498-4.155.585-3.657 2.339.498 1.755 1.342 1.473 3.44.412 2.099-1.061 3.614-3.292.217-2.751zm6.491 2.664c-.541.152-.692 1.365 0 2.469.693 1.105 2.013-.368 2.705-1.689.692-1.321-.736-1.386-2.705-.78zm-34.08-84.73c-2.942.108-7.378 1.148-4.912 1.191 2.811.293 5.637.401 8.461.325 4.003-.217 4.328-.498 4.479-2.426.151-1.927-2.597.737-8.028.91zm-18.457-16.201c-3.008.953-2.164 1.56 1.277 3.119 3.44 1.56 3.657.844 3.245-2.166-.411-3.01-2.748-1.495-4.522-.953zM379.574 111.5c-3.743 1.039-4.998.411-5.691 2.317-.692 1.906-2.163.867-3.029 1.105-.865.238-2.034 5.523-2.618 4.743a14.474 14.474 0 01-1.666-3.032c-.844-1.819.281-1.495-1.363-3.422-1.645-1.928-4.869-1.69-5.107-.91-.238.78 2.164 1.451 1.406 2.339-.757.888-2.856 1.971-3.613 2.621-.757.65 1.471.347 2.856 0 1.385-.347 2.359 1.04 2.921 2.014.563.975-.627 1.928-1.233 2.404-.606.477 2.012.369 3.073.564 1.06.195 1.601 1.083.887 2.165-.714 1.083 3.137.174 5.258 0 2.12-.173 2.683 1.473 5.907.455s4.76-.931 7.703-3.119c2.943-2.187 2.705-1.667 4.652-3.075 1.948-1.408 1.472-1.82 1.558-3.379.087-1.559 1.298.433.822-1.906-.476-2.339-2.856-1.711-4.522-1.884-1.666-.174-1.623-1.516-2.467-1.928-.844-.412-1.969.866-5.734 1.928zm249.27 202.274c-.27.779-.402 1.6-.389 2.426 0 1.256-.151 2.577 0 3.812.151 1.234.173 2.166.866 2.404a2.357 2.357 0 002.293 0c1.125-.542 2.164-1.473 1.623-2.902a34.79 34.79 0 00-2.164-4.332c-.757-1.192-1.926-2.513-2.229-1.408zm-.908-1.69c.129.52.281.412.541.78.259.368.519 0 .173-.455-.347-.454-.303-.519-.303-.519s-.433-.152-.433.281l.022-.087zm106.307 73.165v.13c-2.034 2.166-3.873 1.473-7.335 2.556-3.462 1.083-9.672 4.678-10.127 6.259-.454 1.581 0 1.798-.432 1.581a4.967 4.967 0 01-1.19-1.169 7.57 7.57 0 00-.736 3.66c.508 1.603.827 3.261.952 4.938 0 2.166-.887 3.531-.801 5.025.087 1.495 2.575 4.332 3.246 6.216a9.956 9.956 0 011.471 4.527c.368 3.249 2.164 5.025.368 6.758-1.796 1.732-2.942 1.364-.887 3.162 2.056 1.798 3.765 2.967 7.097 1.798 3.333-1.17 2.446-2.166 5.02-2.773a32.956 32.956 0 015.323-1.234c2.164-.13 3.765 0 4.588-1.516.822-1.517.216-1.495 2.423-2.6 2.207-1.104 1.991-1.386 3.484-1.667 1.493-.282 2.423.758 4.327-.823 1.905-1.581.52-1.711 4.956-1.711a20.698 20.698 0 017.897 1.169 12.325 12.325 0 014.956 3.032c.67 1.018 1.557 2.166 1.839 2.166.281 0 .671 0 1.709-.974a41.38 41.38 0 013.982-3.098 7.304 7.304 0 01-.823 3.033 3.86 3.86 0 00-.67 2.404c0 .411 1.709-1.3 1.925-1.365.217-.065.455 3.011.671 3.293.217.281.887.129 1.558 1.039.916.956 1.65 2.072 2.164 3.292a7.942 7.942 0 005.258 3.726c1.541.242 3.111.242 4.652 0 1.32-.217 1.385-1.798 2.791-1.17 1.407.628 0 1.928 3.246 1.646a8.905 8.905 0 005.539-2.274c1.342-.888 1.493 1.235 3.181-1.105 1.688-2.339 1.991-1.776 2.294-4.613a10.408 10.408 0 011.839-6.043c1.623-2.686 2.012-1.386 3.116-5.306a38.265 38.265 0 002.359-10.83 14.853 14.853 0 00-.671-4.765c-.736-3.639-.217-3.227-2.575-4.743-2.359-1.516-2.965-1.105-3.549-3.227-.584-2.123.152-2.773-.974-2.773-1.125 0-2.055.498-2.726-.953a9.16 9.16 0 00-1.839-3.379c-1.255-1.364-2.445-1.104-4.717-2.165-2.272-1.062-1.125-1.322-1.125-3.098 0-1.776.129-3.703-1.688-4.527-1.818-.823-.736.455-.736-2.469s0-2.534-1.493-3.032c-1.493-.498-1.969-.455-2.899-2.166-.931-1.711-2.164-4.722-2.597-5.913-.433-1.191-.995.13-1.58.997a9.067 9.067 0 00-1.428 4.591c0 1.798.779 2.794.779 5.198a11.354 11.354 0 01-2.704 6.152c-1.039 1.364-1.861.13-2.77-.239-.909-.368-1.06-1.711-2.943-2.62-1.882-.91-5.323-1.733-6.881-3.163-1.558-1.429-.497-1.472 0-2.945a7.213 7.213 0 012.359-3.617c1.168-.975.822-1.343-.649-2.166a12.98 12.98 0 00-6.059-.867c-2.51 0-3.981-.173-3.83 1.235.151 1.408 1.623 1.971-.498 1.559-2.12-.411-3.938-.584-4.868.412a6.953 6.953 0 00-1.688 3.769c-.541 2.166.151 2.296-.736 2.296a32.178 32.178 0 01-5.561-2.166c-1.168-.499-1.817-.455-3.202.844a72.813 72.813 0 01-7.92 6.498c-1.752.91-1.666.671-3.462 6.303zm-65.693-62.032c-1.038-.13-1.623-.411-.346 1.235a18.655 18.655 0 002.856 3.119c1.234 1.148 1.666-.823 2.618 1.386.953 2.209.585 2.166 1.515 3.076.931.909 1.731 1.061 1.969 1.884a5.766 5.766 0 001.623 3.032c1.082.91 1.082.78 1.731 2.556s1.623 3.075 2.164 4.592c.541 1.516 3.289 2.945 4.717 4.786 1.428 1.841 3.852 4.484 4.328 3.747.476-.736 1.428 0 2.163-.26.736-.26.974-1.342 1.472-3.898a4.211 4.211 0 00-1.125-4.332c-.693-.585-1.969-.736-2.316-1.278-.346-.541-.93-2.426-1.774-3.032-.844-.607-1.039 0-1.039-1.43 0-1.429.996-1.321-.238-2.166a6.496 6.496 0 01-1.774-1.841c-.389-.411-3.051-1.061-3.743-1.797-.693-.737-3.592-2.166-4.977-3.444a17.877 17.877 0 01-3.354-3.487c-.606-1.062-1.947-1.841-6.47-2.448zm28.649 29.543c-1.168 0-1.774-.693-2.553.737-.779 1.429-.693 1.429.541 1.429 1.233 0 .973.628.93.823-.043.195-.584-.151 1.926.867a6.2 6.2 0 004.977.216c.692-.368.93.931 4.327 1.473 3.397.541 5.28-.325 7.487.238s1.688-.281.108-1.473c-1.579-1.191-1.428-.541-3.007-1.689a10.96 10.96 0 00-4.826-1.386c-1.038-.173.887 1.104-2.272.693-3.159-.412-2.012.281-3.635-.78-1.623-1.061-1.623-1.234-2.705-1.429-1.082-.195-1.298.281-1.298.281zm25.014 5.047c-.888.281-2.705.78-1.861 1.148.844.368.194.585 2.791.368a11.288 11.288 0 005.215-1.105c.346-.563-.433-.173-1.515-.498-1.082-.325-.995.217-2.467.412a3.224 3.224 0 01-2.163-.26v-.065zm9.153-.195c-1.732.216-1.515.606-.13 1.018a7.183 7.183 0 003.678.325 15.53 15.53 0 013.116-.867c1.904-.325 2.553-.281 4.068-.476l1.536-.173s-.151-.325-1.19-.282c-1.038.043-1.753 0-2.791 0-1.039 0-2.813.91-3.549.866-.735-.043-2.164-.498-2.51-.281-.346.216-.346-.282-2.228-.065v-.065zm9.866 2.166c-1.233.844-1.276 1.083-1.168 1.733a1.3 1.3 0 01-.13.974 5.213 5.213 0 003.159-1.473 5.129 5.129 0 012.727-1.754 10.836 10.836 0 003.007-2.014 8.929 8.929 0 01-2.337.13 4.32 4.32 0 00-2.812.953c-.368.411.411.498-2.446 1.602v-.151zm-10.299.736c-1.277-.931-2.532-.801-2.618-.238-.087.563-1.126.541.692 1.213 1.818.671 3.527 1.559 3.397.628-.13-.931-.909-1.061-1.471-1.451v-.152zm-11.771-38.076c-.736 1.061.692.779-.39 1.689-1.082.91-1.926.52-3.008 1.884a15.64 15.64 0 01-3.397 2.924c-.692.498-2.899 1.083-3.895 2.426a1.321 1.321 0 00.347 2.166s-.585.282-2.164-.325c-1.58-.606-1.666-1.321-1.666-1.321s-1.147 0-1.775 1.646c-.627 1.646-.995 1.884.13 2.902 1.125 1.018-.779 1.04-.519 1.733.26.693.238 1.971.93 2.166.693.195.844-.65 1.666.411.823 1.062.152 4.029 1.234 4.181 1.082.151 1.882-.325 2.813 0a3.397 3.397 0 002.856.368 4.32 4.32 0 013.202.368c1.278.628 2.669.989 4.09 1.061 1.125 0 1.32.174 1.515-1.429.194-1.603 0-3.119 1.428-4.332 1.428-1.213 1.428-1.256 1.536-2.404a6.285 6.285 0 01.931-3.531c.822-1.191 1.319.694 1.774-.216.454-.91.887-.931.627-1.386-.259-.455-1.514-.455-2.012-1.322-.498-.866.151-1.342-.433-3.118-.584-1.776-.952-1.105-.108-2.166.844-1.062 1.536-1.192 1.623-1.971.087-.78.433-.823 1.471-1.56 1.039-.736-.151-.39-1.146-1.126-.996-.736-2.813-3.487-3.96-3.466-.628-.151-3.008 2.643-3.7 3.748zm145.494 97.465c-.476-.346-.887 0 .195 1.213 1.081 1.213 1.19.91 1.86.953.671.044 1.299 2.578 1.688 3.206.333.508.709.987 1.125 1.429a13.185 13.185 0 010 3.986c-.324 1.256-1.082 1.797-1.32 2.945s1.126.823 2.013 1.191c.887.369.735.369.411 1.387-.325 1.018-1.385 1.451-1.385 1.646 0 .195 2.012 1.321 3.051 0a17.747 17.747 0 003.094-4.332c.455-1.343-.779-.736.649-1.711 1.428-.975 1.234-.498 1.969-1.69.736-1.191 1.515-2.425.693-3.075-.822-.65-1.774.78-2.532 1.061a2.53 2.53 0 01-2.358-.195c-1.017-.498-1.234-.498-1.623-1.408a4.777 4.777 0 00-.887-1.429s-.282 1.559-1.017 1.061c-.736-.498-.563-1.061-1.082-1.927a15.532 15.532 0 01-.909-1.798c-.325-.65 0-1.884-1.753-2.058-1.752-.173-1.449-.216-1.882-.455zm.281 16.678a19.552 19.552 0 00-2.596 2.881 12.449 12.449 0 00-1.818 3.27 9.343 9.343 0 01-4.198 3.249 9.397 9.397 0 00-4.025 2.902c-.8 1.148-3.591 4.722-3.938 5.133-.346.412 1.32.824 3.051.824s4.436 1.559 5.908 0a59.888 59.888 0 003.894-6.801 17.37 17.37 0 013.289-3.206c1.472-1.321 3.938-3.812 3.938-4.765a9.01 9.01 0 00-.627-2.534 1.86 1.86 0 01-1.839.91c-1.277-.26-1.039-1.95-1.039-1.95v.087zm-11.598 17.63c-1.731-.931-2.164.78-2.358 2.534-.195 1.755.757.26 2.163-.519 1.407-.78.866-1.668.195-2.101v.086zm-58.552-12.042c-1.948-.65-1.623 1.191-1.32 2.577a9.737 9.737 0 001.428 3.617 4.663 4.663 0 004.565 1.062c1.082-.498 1.883-2.166 2.965-3.812a6.94 6.94 0 001.385-4.332c-.217-.975-1.58.866-2.467 1.278a4.976 4.976 0 01-3.743 1.018 14.987 14.987 0 01-2.813-1.495v.087zm-24.516-98.614c-1.58.368-2.359-1.018-3.636-3.682-1.276-2.664-2.272-3.011-5.517-1.841-3.246 1.17-2.77.931-.606 1.754 2.164.824 2.467 1.105 2.77 1.105.303 0 3.44.455 2.748.91-.693.455-3.636.931-1.775 2.166a56.988 56.988 0 006.016 2.837c4.933 2.491 5.712.65 7.292 3.855 1.579 3.206 1.579 2.664.281 3.487s-2.943 1.668-2.164 1.755c1.755.287 3.525.467 5.302.541 3.353.195.216 2.166 3.938 2.166a6.489 6.489 0 006.21-2.945c1.471-1.733 1.774-.824 4.933 0 3.159.823 4.22 3.487 8.158 4.591 3.938 1.105 5.626 2.578 3.159.282a81.624 81.624 0 00-6.708-6.628c-3.332-2.642-3.527-2.924-4.522-4.938-.996-2.014-4.328-4.332-8.266-5.978a85.134 85.134 0 00-10.538-3.032c-4.717-1.365-5.561 3.227-7.075 3.595zm-25.966-9.183c-1.471 1.039-1.666.39-2.77-.282-1.103-.671-.8 1.43-3.245.282-2.445-1.148-3.376-1.711-6.016.238s-.973 2.729-1.038 4.115a27.819 27.819 0 01-3.008 6.671c-.801 1.43-.779 1.949-.173 2.881.606.931 1.471.563 1.839 1.018a12.592 12.592 0 01-.433 5.263c-.432 1.191 1.039 1.429 2.575 1.083 1.537-.347.173-.455.173-1.711s.736-1.841.736-4.18v-3.488s.433-.238.995.564c.563.801 1.342 3.032 2.013 4.18.671 1.148 1.363 1.992 2.402 1.191a32.203 32.203 0 002.012-1.711s-2.012-.628-2.012-1.321a3.424 3.424 0 00-.563-3.531c-1.406-2.295-2.164-2.404-.368-2.512 1.796-.108 1.731-1.906 2.77-2.404a5.198 5.198 0 012.51-.347 2.753 2.753 0 00-2.64-.628 19.312 19.312 0 00-4.328 1.43c-1.341.736-2.51 1.191-2.769-.174a9.775 9.775 0 01-.238-3.617c.194-1.884 2.337-.455 3.938-.909 1.601-.455 1.579-.325 5.085-.109 3.505.217 3.743-.563 4.782-1.992a14.352 14.352 0 001.644-3.098s-2.358 1.993-3.808 3.098h-.065zm8.266-5.004c.324-.563-2.554 1.971-3.094 2.47-.541.498 0 1.256.389 1.992.257 1.249.409 2.517.454 3.791.152.563 1.623 1.061 1.623 1.061a5.335 5.335 0 01.498-2.469c.541-.78 0-1.755 0-3.163 0-1.407-.736-1.949.195-3.682h-.065zm-5.648 15.162c-2.272-.867-3.116-.303-3.116.888s-.238 1.754 2.164 1.754 5.193-1.148 1.017-2.729l-.065.087zm4.501-.78c-.563.173-1.147 1.949-.822 3.011.324 1.061.692.368 1.969.13 1.276-.239 1.06-1.235 2.64-1.365 1.676.136 3.323.515 4.89 1.126 0 0 .692-.823-1.839-2.425-2.532-1.603-3.614-1.56-6.773-.564l-.065.087zm-44.986-58.458h-2.618c-.346 0-1.125.867-1.688 1.213-.562.347-.562.823-.173 1.711.39.888 1.061.953 2.164 1.256 1.104.304.714-.476 1.537-.779a2.167 2.167 0 001.19-1.711 2.79 2.79 0 01.908-1.192c.195-.216-.627-.996-.627-1.083a4.844 4.844 0 00-.693.585zm26.659 3.184c-.888-.65-1.385 1.646-1.623 2.837-.238 1.192-.541 1.993-.108 2.859.432.867.259 1.148.259 1.148l-1.276-.974a8.195 8.195 0 00-.347 2.166c0 .953-.411 1.364 1.082 2.165 1.493.802 1.969.325 2.164 1.387.195 1.061.195 1.494 1.168 1.689a3.847 3.847 0 012.51 1.235c.412.649.195-1.69.888-1.56.845.36 1.546.993 1.99 1.798a1.65 1.65 0 001.212.823s-1.125-1.884-.627-2.166c.497-.282.627-.411-.65-1.191a6.97 6.97 0 00-3.289-.737c-.995-.13-.995.693-1.731-1.234a5.702 5.702 0 01-.151-3.531c0-.411.541.65 1.147-.693a6.929 6.929 0 00.627-3.66c0-1.278.887-1.798.152-1.841a11.209 11.209 0 01-3.397-.52zm11.706 24.67c.151.931-.866-.26-1.255.26-.39.519-.606.433-1.234.693a12.81 12.81 0 00-2.163 1.667v-1.104c0-.195-.455-1.278-.909-.563a4.332 4.332 0 01-1.948 1.711 2.992 2.992 0 00-1.178.856 3 3 0 00-.639 1.31c-.13.909.627.888.627.888a5.624 5.624 0 001.104-1.386c.671-1.062.8-1.018 2.034-1.192 1.233-.173 1.147-.13 1.536.542.39.671.108 1.689.13 2.426.022.736 0 1.646 1.233 2.166 1.234.519.671 0 1.839 0 1.169 0 1.147 0 .974-.65a8.967 8.967 0 01-.584-1.776c0-.693.671-.997.909-1.127s.389.694.735 1.538c.347.845.498.823.65.174.29-.984.422-2.008.389-3.033a13.338 13.338 0 01-.216-2.166 2.603 2.603 0 00-.909-1.754c-.325-.238-1.471-1.256-1.471-1.256s.216.844.346 1.776zm-5.648-5.632s0-.584-1.06-1.624-1.082-1.365-2.726-1.646c-1.645-.282-3.246.152-2.575 1.906.67 1.754.908 1.993 2.163 2.166a2.816 2.816 0 002.164-.542s0 .282-1.211 1.105c-1.212.823-1.45 2.382-.433 2.989 1.017.606.995 1.538 1.579 1.083.585-.455 1.017-2.166 2.164-3.206 1.147-1.039 1.277-1.278 1.428-2.469a9.34 9.34 0 000-2.166l-1.493 2.404zm2.791-3.357c-.151 0-1.017 0-.129.78.887.78 1.709 1.04 1.601 1.668-.108.628 0 .779-.541.693-.541-.087-.649-.173-.866-.195-.216-.022-.259.411-.108.801.152.39.108 0 .52.628a3.17 3.17 0 01.454 1.668c.13.78.454.39.454.39s-.108-1.863 0-2.166c.109-.303-.151-1.299.476-.996.628.303.455 1.386.823.346a4.663 4.663 0 000-2.772c-.173-.823-.823-.845-1.58-.845a6.36 6.36 0 00-1.104 0zm-12.744 3.119c-.368 0-.606.455-.823 1.711a4.654 4.654 0 01-1.666 2.643 25.28 25.28 0 00-2.921 3.119c-.13.389-.13.151 1.407-.585 1.536-.737 2.748-1.668 2.921-2.664.173-.997-.173-.369 1.168-.997 1.342-.628.671-.844.714-1.862.044-1.018-.13-1.365-.8-1.365zm81.532 37.644c-.152 1.278.368 1.667-.801 2.599a7.096 7.096 0 01-3.786 1.148c-1.234.216-.325-.195-1.883-.26s-1.947 0-1.233.866.541 1.538 2.834 1.43a19.907 19.907 0 005.669-1.776c1.472-.455 1.342-1.668 1.472-2.166.13-.498-2.121-3.206-2.272-1.841zm6.491 2.75c.628.91.39.78 1.212 1.971a5.06 5.06 0 003.051 1.711c.952.325 0-.346-.714-1.299a11.26 11.26 0 00-1.818-2.469c-1.168-.953-2.942-1.495-1.731.086zm-83.263-77.214c-3.159 2.014-4.587 1.862-3.332 4.332 1.255 2.469 2.055 3.617 2.164 4.115.108.498.8-.325 1.666-2.339a46.607 46.607 0 001.298-5.48c.411-.628-.757-1.256-1.796-.628zm54.095-99.004c.346 1.321.693 3.4 0 3.617-.692.217-1.341 1.711-1.536 3.227a7.155 7.155 0 00.238 4.635c.844 1.192.26 1.278.26 2.296.164 1.698.099 3.41-.195 5.09a6.11 6.11 0 00-.606 3.487 30.074 30.074 0 010 4.224c0 2.296-.13 4.115 0 5.046.13.932.584-.455.93-.779a2.007 2.007 0 012.424.281l.736.78s1.19.498-.433-2.989-1.926-2.751-1.493-5.935c.432-3.184.692-3.205 2.358-3.53 1.666-.325 2.575 1.971 2.77 2.166.195.195-.152-.78-.736-2.578a15.364 15.364 0 01-1.514-4.505 7.17 7.17 0 00-1.775-4.765c-.887-.649-.433-1.689 0-2.577a7.188 7.188 0 00.346-3.704 38.31 38.31 0 00-.887-4.462c-.238-.823-1.233.499-1.233.499l.346.476zm-1.471 35.153a4.444 4.444 0 01-.498 3.075c-.692 1.148-.195 1.43-.584 3.033-.39 1.602-2.315 0-2.315.324a3.298 3.298 0 01-.801 1.863c-.476.433-2.164.52-1.666 2.166a22.79 22.79 0 001.385 3.292 7.323 7.323 0 011.276-.996l1.082-.325s-.151-.455-1.233-.953a1.512 1.512 0 01-.844-1.884c.151-.325 1.536 0 2.423 0 .888 0 1.623-.563 2.705.303.793.585 1.7.998 2.662 1.213a7.894 7.894 0 01.692-2.166c.498-.91 1.926-.498 3.354-.91 1.428-.411 2.51-.65 2.012-1.256-.497-.606-.454-1.928-.735-2.924-.282-.996-1.234 0-1.969.325a2.75 2.75 0 01-2.662-.563 19.504 19.504 0 01-3.397-4.029s-1.06-.563-.952.455l.065-.043zm-4.328 15.161a3.285 3.285 0 00-.952 2.794c.108 1.343 1.255-.108-.238 4.029-1.493 4.137-2.164 5.046-3.635 6.129a3.527 3.527 0 01-3.332.78c-.563-.282.151-1.213.562-1.473.411-.26-1.276-.39-1.969-.281-.692.108 0 .888-.108 1.537-.108.65-1.45 2.426-1.298 3.206.151.78.151 1.04-.736 1.321-.887.282-1.471-.671-1.731-.801a21.902 21.902 0 00-3.332.476 3.27 3.27 0 00-2.9 2.166c-.757 1.278-2.488 1.495-3.743 1.971-1.255.477-.779 2.274-2.164 2.881-1.385.606-1.363 1.754-1.471 2.685-.109.932.843.282.995.217.151-.065.151-1.299.995-1.17.844.13.952.174.52 1.127-.433.953-.693 1.451-1.147 2.166-.455.714.151 1.213.822 2.036.671.823 1.277-.239 2.683-1.711 1.407-1.473 1.515-1.841 1.407-3.531-.109-1.689-.671-1.711-1.688-2.166-1.017-.455-1.277 0-.13-1.321 1.147-1.321 1.666 0 2.445-.606a18.402 18.402 0 014.479-.997c1.796-.455 3.549-1.039 3.614-.455.065.585.627 2.556.692 2.968.065.411 1.277-.585 2.467-1.04 1.19-.455 0-.65 0-1.451a1.378 1.378 0 01.107-.689c.095-.216.245-.404.434-.546 0 0 .649 1.3 2.596.39 1.948-.909 2.164-1.321 2.619-1.191.454.13.844.671 1.666.152.822-.52.952 0 .822.368s2.359-.78 2.9-1.17c.54-.39.259 0 0-1.473-.26-1.472-.931-1.537-.52-3.4.245-1.052.383-2.126.411-3.206.108-1.169.541-1.343.844-1.408.303-.064.303-1.624.931-2.447.627-.823.476-1.213.476-3.097 0-1.885-1.039-1.56-1.104-2.903a9.328 9.328 0 01.26-2.642s-2.164.801-2.337 1.278l-.217.476s-.432-.389-1.146-.043l.151.065zM768.323 242.3c-1.693.23-3.37.57-5.02 1.018-1.276.411-1.558.975-1.363 2.274.228 1.108.524 2.2.887 3.271.173.671.887 0 2.164-.65 1.277-.65 1.147-2.556 2.315-2.556 1.169 0 .736 1.365 2.294-.541 1.558-1.906.389-2.036.433-2.989.043-.953-1.71.173-1.71.173zm137.986-101.798c-2.337-.455-3.008-.953-3.224-.108-.216.845-.476 1.126.995 1.646 1.472.52 2.164-.39 3.614.65a2.877 2.877 0 002.813.844 2.356 2.356 0 001.493-.649 33.142 33.142 0 00-5.691-2.383zm-26.68-36.82c-.844.238-1.536-.585-1.32 1.516.217 2.101.693 2.339 3.398 1.949a32.151 32.151 0 014.327-.368 11.76 11.76 0 004.479-.801 6.488 6.488 0 00-1.774-1.993c-1.255-.975-2.921.65-5.777.173a31.199 31.199 0 00-3.333-.476zm-83.198-31.016c0 .801 3.7 3.054 5.02 3.704 1.32.65 2.359.39 5.172 0 2.813-.39 3.029-1.495 3.375-2.166.346-.672-1.341-.455-3.224-.823-1.882-.368-3.419.346-4.09 0-.67-.347.996-.693-.67-1.322-1.666-.628-2.164.217-2.445 0-.282-.216-.433-.866-1.255-.93-.823-.066-1.905.779-1.883 1.537zm-14.476 4.7c-1.255.52-1.168.975.26 2.166 1.428 1.191.974.931.346 1.798-.627.866 0 0 2.056.888 2.055.888 2.921 2.62 4.219 3.01A3.114 3.114 0 00791 85.12a12.032 12.032 0 00-1.666-3.032c-1.234-1.646-3.852-2.166-4.328-3.574-.476-1.408-1.233-1.863-3.051-1.148zm13.199-6.736s-1.882-1.126-4.738-2.924a13.355 13.355 0 00-4.869-2.404c-.974-.152-.822.996-1.19 1.884-.368.888-.627.715-2.164 0a24.082 24.082 0 00-4.457-2.166c-1.537-.346-2.445.888-4.176 2.621-1.731 1.733-.736 2.166 1.363 4.743 2.099 2.578 3.029 2.686 4.717 1.69 1.688-.996 1.212-1.646 2.445-1.17a18.296 18.296 0 005.583-.476c.129 0-.26 2.339 1.579 1.71 1.56-.3 3.037-.935 4.328-1.862.974-.931 1.579-1.646 1.579-1.646zm-127.88-49.253c-.541.455-3.7.174-5.323 2.75-1.623 2.578-2.748.78-3.592 2.34a30.9 30.9 0 00-1.537 3.444s1.493 1.754 3.051 1.603a7.047 7.047 0 015.886 2.859c1.536 2.166 2.661 2.166 6.362 2.707 3.7.541 2.012 1.105 3.938.931 1.925-.173 4.565.217 3.981-.736a4.17 4.17 0 01-.779-3.444c.238-1.884 1.969-1.798 0-3.032a4.15 4.15 0 00-3.332-.455c0-.238 1.817-.931 1.125-.975-.692-.043-4.09-.216-4.479-2.166-.39-1.949.93-2.165 1.623-2.165.692 0 .497-.369-1.472-1.798-1.969-1.43-4.803-3.01-4.803-3.01-1.147.627 0 .779-.649 1.147zm18.5 13.905a6.297 6.297 0 00-3.44 2.946 22.417 22.417 0 01-3.592 4.029c-1.039.823-.736 1.06.93 1.646 1.666.584 4.631-1.062 5.475-1.105.844-.043 1.471 1.256 4.133.931 2.661-.325 6.707-.823 4.738-2.166a40.27 40.27 0 01-3.462-2.49 9.472 9.472 0 00-4.912-1.863s4.479-1.516 3.398-1.624c-1.082-.109-3.268-.217-3.268-.217v-.087zM571.958 12.714c-2.575.93-1.688 1.386-3.354 2.729-1.666 1.342-.541 1.689 3.051.823a23.654 23.654 0 006.102-2.296c2.315-1.04-1.969-2.6-5.799-1.256zm5.691 6.497c-2.402 1.083-1.753 2.166-1.125 3.12.627.952 2.423-.542 2.899.476s.649.585 2.921-.932c2.272-1.516 1.428-1.06.541-2.664-.887-1.602-1.082-1.84-5.236 0zm-13.437-.671c-1.558.758-1.558.671 0 1.343a8.644 8.644 0 006.902 0c1.861-1.213 1.71-.953-.627-1.3a11.155 11.155 0 00-6.275-.043zm-22.828 2.837a37.245 37.245 0 016.491 0c1.926.217 1.212 1.863-2.315 2.166-3.527.303.324.931 2.834.823 2.51-.108.887-2.166 2.986-2.902 2.099-.737 3.441-.26 5.951-1.17 2.51-.91-1.45-1.754-4.328-1.69a58.03 58.03 0 01-6.361 0 29.26 29.26 0 00-7.011 1.365c-5.215.932-.649 1.581 1.753 1.408zm18.825.65c-2.164 0-7.184 1.17-2.9 1.581 4.284.412 3.938.693 5.713 0 1.774-.693-.585-1.624-2.813-1.624v.043zm14.93.91a9.707 9.707 0 00-5.388-.498c-2.337.108-3.246 1.559-1.731 2.165a6.205 6.205 0 003.787.174c1.255-.217 1.19-.585.367-.91-.822-.325 4.739-.325 2.965-.975v.044zm12.723-3.726c-2.315.282-2.445.693-2.661 1.452-.217.758.324.584 2.769.281a13.302 13.302 0 005.172-1.516c1.579-.867-.346-2.967-.346-3.357 0-.39-2.164 1.148-2.878 1.69-.714.54.584 1.06-2.056 1.45zM407.011 151.332c-1.255 3.075-3.072 4.57-.909 3.682 2.164-.888 4.523-3.661 4.328-1.3-.195 2.361-2.337 2.036-1.644 4.332.692 2.296.173 2.166 3.959 2.967 3.787.802.693.542 1.623 2.773.931 2.231 1.558 2.902.584 3.552-.973.65-3.894-2.036-4.068-.888-.173 1.148.412 1.971 1.104 3.552.692 1.581-.454 2.469-2.661 3.509-2.208 1.039-.303 1.667 1.384 1.581 1.688-.087 5.929-.888 5.215.585-.714 1.472-2.726-.239-4.176 2.165-1.45 2.405-6.794 4.592-4.003 4.332 2.791-.26 2.38-.888 10.689-2.166 8.309-1.278 2.553 0 8.006-1.776s3.722-2.166.714-1.624c-3.007.541 1.969-2.967 1.277-6.173-.692-3.206-2.683-.152-3.96-2.166-1.276-2.014-1.103-2.599 1.342-1.863 2.445.737 2.164-.498-2.51-3.508-4.674-3.011-1.796-2.426-3.938-4.939a7.441 7.441 0 00-5.799-2.165 7.413 7.413 0 002.488-2.751c.93-1.841 1.104-1.69 2.164-3.899s-.974-2.036-3.462-1.494c-2.489.541-3.333.801-2.792-.195a9.915 9.915 0 012.034-2.621c1.147-1.235 1.385-1.884-.757-1.386-1.494.225-2.95.655-4.328 1.278-2.813 1.494-.822 3.27-1.99 6.476l.086.13zm-5.864 7.559c-3.786 1.494-2.726 2.469-2.163 3.01.562.542 1.817-.498-1.731 1.538-3.549 2.036-3.614 4.332-1.753 4.679 1.861.346 1.623-1.083-.346 2.62-1.969 3.704-3.311 6.238.714 5.285 4.024-.953 5.106-3.011 7.01-3.249 1.905-.238 2.272-1.776 2.272-4.115 0-2.339-1.276-2.361.238-4.332 1.515-1.971 1.623-3.942-1.341-4.895-2.965-.953-.606-1.603-2.986-.671l.086.13zm47.604 51.83c-.195.52.26 1.928-1.277 2.902-1.536.975.736 1.841 1.234 2.751.497.91 1.125-3.119.995-5.047-.13-1.927-.324-2.382-.952-.736v.13zm-.736 7.624a4.098 4.098 0 00-2.964 3.812c-.303 1.884 2.012.368 1.428 2.014-.584 1.646 0 2.534 2.553.975 2.554-1.56 1.147-2.989 1.537-4.96.389-1.971.757-3.53-2.554-1.971v.13zm38.603 20.273c-2.164-.195-3.181 1.169.605 1.603a20.68 20.68 0 006.86.13c1.406-.347.216 0-1.623-1.3s-3.029-.282-5.842-.563v.13zm20.967 1.169c-3.029-.649-2.164 3.033.909 2.491 3.072-.541 1.904.217 3.31-2.166 1.407-2.382-1.038.239-4.219-.455v.13zm-75.409-17.089c-2.466.325-2.661 1.148-.735 1.668 1.925.52 1.666 0 2.748-.888 1.082-.888-.931-1.039-2.013-.91v.13zm-149.172-45.05a20.83 20.83 0 00-5.388 6.8 16.767 16.767 0 01-3.982 5.589c-2.163 2.165-1.038 1.646 5.388 2.88 6.427 1.235 5.907 2.166 7.379 1.798 1.471-.368 1.774.823 1.774 2.166s1.407.541 2.164-1.516c.757-2.058-.671-5.783-1.991-7.928-1.32-2.144-1.644-2.165-3.7-1.581-2.055.585-1.406-.476-2.164-2.166-.757-1.689-1.925-.346-.151-2.837s2.142-4.375.671-3.205zm-196.56-4.332a11.006 11.006 0 003.743 6.627c1.623 1.148 1.277.499.541-1.927-.736-2.426-.151-2.448-.498-4.007-.346-1.56-3.786-1.495-3.786-.78v.087zm10.819 11.197a19.144 19.144 0 003.938 3.639 13.755 13.755 0 005.215 2.383c2.38.693 3.397-.217 1.882-1.603s-.26-1.235-3.008-1.884c-2.748-.65-3.353-.412-4.717-1.278-1.363-.867-4.284-2.296-3.353-1.343l.043.086zm-60.067-22.915c-1.796-.39-2.489-.476-3.7.477-1.212.953-1.559 1.797-.888 2.859.671 1.061.26.498 1.796-.585 1.537-1.083.822-1.191 2.792-1.69 1.969-.498 1.536-1.126 1.536-1.126a2.165 2.165 0 01-1.536.065zm-.628-2.361c-1.212.715-1.601 1.3-.26 1.018 1.342-.281 1.126-1.018 1.991-.844.866.173 1.147-.174 1.147-.174a3.436 3.436 0 00-2.878 0zm-34.101-5.479c-1.623.779-3.16-.13-2.164.454a6.213 6.213 0 003.419 1.062c1.081-.13 1.774-.152 1.384-.65a1.69 1.69 0 01-.497-1.126c-.022-.802-.498-.542-2.142.26zm545.062 224.301c-1.883 4.137-5.821 2.166-8.958 5.155-3.138 2.989-2.662 2.166-.303 6.324 2.358 4.159-1.969 3.769-3.051 8.664s1.276 4.029 2.553 8.252c1.277 4.224 1.882 2.946 4.328 2.383a13.797 13.797 0 004.046-1.646 57.671 57.671 0 011.969-9.097 71.058 71.058 0 002.943-12.996c.303-3.573.584-6.151 1.385-5.046.8 1.104.887 1.104.887-.65s-.952-6.649-2.467-7.797c-2.748-1.885-1.471 2.339-3.332 6.454zm2.769-282.348c-2.596.607-3.808 2.166-1.925 2.794 1.882.628 1.687.282 4.782-.823 3.094-1.104-.325-2.556-2.857-1.97zM598.53 48.82c-.888-1.386-1.667.455-10.819 4.332-9.153 3.877-8.959.563-17.419 7.256-8.461 6.693-6.491 5.87-7.097 9.92-.606 4.05-2.467 2.296-3.246 5.956-.779 3.66-5.128 3.855-2.964 6.888a16.006 16.006 0 009.564 6.064c4.522 1.278 5.799 0 4.825-.563-.974-.563-4.328-5.87-3.744-12.02.585-6.152 2.943-5.22 4.912-7.517 1.969-2.295 7.098-8.273 10.451-10.288 3.354-2.014 11.923-4.7 16.272-6.216.13 0 .282 0 .368-.108 3.527-3.79-.216-2.318-1.103-3.704zm-24.408 41.153c-1.082.151-1.58.173.389 2.165 1.969 1.993 3.7 3.4 3.051.823s-2.466-3.032-3.44-2.88v-.108zm32.457-18.692c-1.45-.672-2.164-1.365-2.575-.26-.411 1.105 1.645 2.556 3.549 2.924 1.904.368.281-1.906-1.082-2.556l.108-.108zM267.468 186.918a15.3 15.3 0 00-5.756-1.971c-1.428 0 .303 1.516 2.553 2.75 2.25 1.235 4.479-.13 3.203-.779zm-5.215 9.226c.13-1.819-1.212 2.166.411 2.968 1.623.801 2.467 1.083 3.505 0 1.039-1.083.195-.39-1.233-.628-1.428-.239-2.77-.823-2.683-2.34zM907.369 132.9a10.83 10.83 0 01-4.652-.498 7.354 7.354 0 01-.952 3.184 2.014 2.014 0 00-.238 2.165s-2.661-1.212-4.241-1.754c-1.58-.541-2.964 0-3.852-2.404-.887-2.404-3.548-1.928-5.604-1.928-2.055 0-1.363-2.685-1.363-2.685h-1.255c-1.277 0-1.039 3.097-2.662 4.05a27.138 27.138 0 01-6.729 1.603 13.164 13.164 0 013.917 4.331c.48 1.3 1.104 2.543 1.86 3.704 0 0-.303.91-4.219.152-3.917-.758-3.679.758-7.898 2.469a58.39 58.39 0 00-10.191 5.306c-1.191.953-1.255.412-4.956-.476-3.7-.888-4.327 1.018-5.387 1.516-1.061.498-.585-2.166-.585-2.166a7.223 7.223 0 00-2.964.823c-16.834 8.664-5.215 8.101-5.756 9.833l-1.774 6.693c-2.467 7.364-4.198 3.509-6.275 9.357-6.643 18.583-10.495-2.859-10.495-7.776 0-3.032-.649-6.952 1.255-7.84 16.532-7.711 1.558-1.083 17.073-11.718 5.02-3.444 2.293-5.501 3.397-6.498a6.7 6.7 0 012.878-1.234l-2.727-.26c-2.748-.282-2.812.325-4.955 2.664-2.142 2.339-3.851 2.772-3.397.974.455-1.797.52-3.638-1.103-2.685a14.125 14.125 0 01-5.323 1.451 14.778 14.778 0 00-9.002 5.501c-2.748 3.444-1.19 3.033-.303 3.856s-4.327.628-6.859.411c-2.532-.216-1.19-.693.281-1.169 1.472-.477-2.163-.888-5.474-1.582-3.311-.693-1.991.542-3.895 1.3s-1.861-.671-2.813-.888c-.952-.217-5.236-.477-8.266-.823-3.029-.347-2.813.195-3.613 1.234-.801 1.04-6.491 6-8.872 8.816-2.38 2.815-5.474 3.444-8.201 6.064-2.726 2.621-3.18 2.469-.952 2.881 2.229.411 2.51.217 2.878 2.274.368 2.058 1.407 2.751 3.765 2.751 2.359 0 1.688.628 2.164-1.17.476-1.797-.606-3.855 1.407-2.274a9.66 9.66 0 014.197 5.025c.606 2.274-.151 3.92-1.168 7.711-1.017 3.79-1.407 9.226-2.813 11.977-1.407 2.751-2.51 4.83-4.068 7.862a47.487 47.487 0 01-10.819 11.35c-1.709.693-2.813.758-3.614-.758-.8-1.517-1.406-1.235-3.332.476a9.553 9.553 0 00-3.549 5.523c-.735 2.751-2.358 2.751-4.067 4.808-1.71 2.058-2.164 1.582-.888 3.921 1.277 2.339 3.333 4.83 3.549 7.104a14.65 14.65 0 01-1.839 7.017c-.822 1.452-4.652 2.166-4.587 1.452a51.38 51.38 0 000-6.13c-.152-1.992-1.623-1.992-1.104-2.621.519-.628 2.662-1.646 1.104-3.097-1.558-1.451-2.662-.216-3.311-1.928-.649-1.711.303-3.097 0-3.725-.303-.628-1.493-1.299-3.787-1.516-2.293-.217-2.791 2.166-3.31 0-.52-2.166.216-2.166-.823-3.011-1.038-.844-1.925-.281-4.565 1.993a12.51 12.51 0 01-5.41 2.751c-2.163.974-2.163 1.516-1.687 2.166.476.649 2.358 4.05 3.916 4.331 1.558.282 2.661-.693 5.02-.693 2.359 0 2.813.347 2.164 1.257-.649.909-2.164 1.776-5.085 4.678s-2.012 2.339-1.039 3.509a20.962 20.962 0 013.311 5.176c1.039 2.166 0 3.097-.152 4.332a6.009 6.009 0 001.558 5.371c1.926 2.058.585 1.387.368 2.166-.216.78-3.462 6.671-4.955 9.639-1.493 2.967-1.471 3.227-6.275 6.497a19.958 19.958 0 01-9.521 4.181 33.225 33.225 0 00-6.123 1.797c-1.342.563-.822 1.646-.974 2.34-.151.693-1.406 0-1.19-.953.216-.953 0-1.798-.584-2.166a4.197 4.197 0 00-4.869.974c-2.164 2.166-4.739 2.166-5.604 4.809-.866 2.642-.736 1.732.216 2.837a49.05 49.05 0 016.708 7.97 15.179 15.179 0 011.407 6.823c0 2.621-5.302 7.429-7.682 9.01-2.38 1.581-2.878 3.097-2.51.628.368-2.469-1.017-3.92-2.726-5.783-1.71-1.862-6.86-3.378-7.833-3.573-.974-.195.368-1.733-.303-1.668-.671.065-2.164-.325-1.991 2.166.173 2.491-1.536 1.646-1.904 4.05-.368 2.404-.822 4.895.736 4.678 1.558-.216 1.255 2.166 2.423 4.765 1.168 2.6.736 1.17 3.7 3.574 2.965 2.404 2.164 1.993 2.878 4.332.245 2.1.899 4.131 1.926 5.978 1.471 2.166 1.558 2.686-.887 1.451a13.77 13.77 0 01-5.388-4.332 39.41 39.41 0 01-2.164-7.299c-.606-1.928-4.587-4.202-5.907-5.588-1.32-1.386-.52-2.469.151-5.631.305-2.717.13-5.467-.519-8.122a56.949 56.949 0 00-2.51-9.162c-.736-1.82-.455-1.581-1.601 0-1.147 1.581-2.013 2.556-3.138 2.556s-2.726-.174-2.575-.91c.152-.737 1.255-3.466.931-4.505a13.176 13.176 0 00-2.921-5.502 11.84 11.84 0 01-4.328-5.523c-.995-2.707-1.255-1.927-3.181-.498-1.926 1.43-6.318 1.581-8.417 1.755-2.099.173-.368 1.191-.887 2.165-.52.975-2.986 2.383-7.963 7.581s-5.734 5.372-7.032 5.913c-1.299.542-2.164.368-2.056 2.512.13 1.731.13 3.468 0 5.199a10.618 10.618 0 01-1.363 3.898 23.82 23.82 0 00-1.298 4.57 6.5 6.5 0 01-2.9 3.639c-1.623 1.17-1.623.975-2.359-.758-.735-1.733-4.587-8.317-7.681-14.512a17.59 17.59 0 01-2.661-9.096c-.303-1.798-.347-12.541-.217-13.342 0-.477-1.515 1.256-1.947 2.166-.433.909-.433 1.927-2.164 2.165-1.731.239-2.164.195-3.83-1.472-1.666-1.668-2.423-2.621-2.164-2.578a9.433 9.433 0 003.332-.736c1.104-.542.736-1.148.736-1.148s-1.212.13-2.64.216c-1.428.087-.779-.324-2.683-1.083-1.904-.758-2.315-.823-2.64-1.667-.324-.845-.779-2.166-1.06-2.708-.281-.541-.476-.671-.801-1.472-.324-.802-1.233.13-3.267.173-2.034.043-1.579.13-4.046 1.104a9.912 9.912 0 01-5.604.52 17.79 17.79 0 01-6.146-1.754 16.537 16.537 0 00-3.678-.585c-2.164-.282-1.623-1.343-2.164-2.166-.541-.823-1.385-1.061-4.089-.866a8.28 8.28 0 01-4.328-.347c-1.536-.411-1.666-.953-2.943-2.166-1.277-1.213-.844-.281-1.688-.953a7.169 7.169 0 01-2.228-3.292c-.671-1.776-.52-2.166-1.299-2.989-.779-.823-.692-.628-3.094-.628s-1.298.152-1.601.325a15.37 15.37 0 00-1.688 2.036c-.671.823.541 1.971 1.493 3.097.952 1.126.13 1.018 1.645 2.708 1.514 1.689 1.017 1.537 2.163 3.898 1.147 2.361 1.775 2.967 2.013 3.682.238.715.476-.281.714-.931.142-.97.142-1.955 0-2.924.386.855.683 1.748.887 2.664.411 1.689 0 1.711.411 2.794s0 .931 1.839.931a17.8 17.8 0 005.042-.411c2.034-.477 2.921-2.339 3.873-2.881.952-.541.974-2.491 1.601-2.166.628.325 0 2.166.628 3.617.627 1.451.736.867 2.164 1.473 1.428.607 1.817.953 3.267 1.495 1.45.541.476.628 1.255 2.166.779 1.537.736.649 1.515 1.147.779.499.454.152 0 1.863a5.63 5.63 0 01-2.164 2.859c-1.277 1.408-1.277.975-1.471.932-.195-.044-.585-1.04-.585-1.04a10.479 10.479 0 00-.93 3.617c-.13 1.971.627 1.234-1.71 2.166a18.493 18.493 0 00-4.652 2.166c-.908.779-.908 1.797-1.428 2.317-.519.52-1.233 0-2.813.585-1.579.585-1.125.433-2.445 1.451-1.32 1.018-.151.91-1.861 1.56a39.332 39.332 0 01-6.34 2.36c-1.558.152-1.233.564-1.623 1.148-.389.585-.432.867-2.401 1.17a24.517 24.517 0 00-5.626 1.17c-1.212.584-2.986 1.927-4.328 1.667-1.341-.26-.93-.303-1.341-1.451a13.144 13.144 0 01-.844-3.855 18.25 18.25 0 00-1.948-6.498c-1.082-1.798-1.06-1.927-2.163-3.833a16.082 16.082 0 00-2.987-4.332c-1.038-.715-1.557-.78-2.055-1.321-.498-.542-.195-2.426-.714-4.029a13.021 13.021 0 00-1.623-4.072 19.89 19.89 0 01-3.008-3.834c-1.06-1.906-1.125-2.166-2.64-5.046-1.514-2.881-2.163-3.314-3.094-5.285-.93-1.971-.346-1.581-.714-2.751-.368-1.169-1.32 1.906-2.164 2.513-.844.606-1.168.281-1.774-1.451-.606-1.733-1.147-3.271-1.601-2.6-.455.672-.844 1.387-.217 3.249.628 1.863.952 1.451 1.775 3.228.822 1.776 3.137 6.194 4.068 8.035a12.762 12.762 0 011.428 3.704 7.431 7.431 0 002.51 4.332c1.168 1.147.973.563 1.471 2.447.325 1.72.463 3.47.411 5.22 0 1.148.714 1.754 2.164 2.902 1.45 1.148.692.737 1.342 1.95a28.4 28.4 0 011.644 4.136 3.61 3.61 0 001.904 2.534c.793.401 1.618.734 2.467.997 1.06.39.692.65 1.428 1.603s2.164 1.646 3.073 3.14c.909 1.495.281 1.061.238 2.513-.044 1.451-.52.779.13 1.537a18.249 18.249 0 003.613 2.6c1.861 1.256.368.368 2.034.324a16.382 16.382 0 003.83-.866c1.796-.39 4.111-1.061 6.318-1.581s4.328-.866 5.518-1.256c1.19-.39 1.168.888.281 2.815-.887 1.928-1.255 3.531-2.012 5.09-.757 1.56-1.017 1.69-1.536 2.968-.52 1.277-4.198 6.497-4.955 8.057a19.513 19.513 0 01-2.792 4.332 58.991 58.991 0 01-6.188 5.111c-1.623 1.3-1.212 1.3-2.424 2.837-1.211 1.538-4.868 5.805-5.864 7.321a31.684 31.684 0 00-2.272 3.574c-.735 1.473-2.834 3.595-2.964 4.678-.13 1.083-1.298 1.213-.411 2.166.887.953 1.341 1.105 1.666 2.296.325 1.191-.995 2.556-.151 4.722.843 2.166.259.628 1.514 2.382a8.063 8.063 0 011.32 5.393 27.739 27.739 0 01-.151 6.715 31.566 31.566 0 01-1.493 4.332c-.563 1.494-3.679 2.512-5.496 3.292-1.818.779-1.731.498-2.575 1.494a34.441 34.441 0 00-4.068 4.679c-.823 1.581-1.428 1.407-1.104 2.404.325.996.996 2.274 1.839 4.093.844 1.82.26 1.711 0 3.292-.259 1.582-.173 1.322-.389 3.249-.216 1.928-2.488 1.971-5.063 2.989-2.575 1.018-1.645.498-1.948 1.906a49.774 49.774 0 00-.216 5.805c0 1.646-.887.996-2.294 3.032-1.406 2.036-1.969 3.011-3.484 5.458a8.942 8.942 0 01-3.267 3.661c-1.882 1.516-3.397 1.906-4.327 3.682-.931 1.776-1.818.606-5.864 1.906a10.82 10.82 0 01-4.977 1.104c-3.873.433-5.258.737-7.292 1.105s-1.774 0-3.029-1.495c-1.255-1.494-1.45-1.277-2.013-2.404-.562-1.126-.151-1.429-.324-3.509a5.421 5.421 0 00-1.104-3.4 21.877 21.877 0 01-1.558-3.552 16.118 16.118 0 00-2.164-3.985c-.93-1.365-1.211-.932-2.163-1.841a4.332 4.332 0 01-1.082-2.924c-.195-1.257-.498-4.332-.909-7.386-.411-3.054 0-1.473-.563-2.816-.562-1.343-1.082-2.924-1.904-4.7a27.739 27.739 0 00-1.818-3.487 20.935 20.935 0 01-1.99-3.79c-.801-1.906-.931-1.04-.974-1.776-.043-.737.411-2.166.476-3.357a46.11 46.11 0 01.779-4.744c.325-1.971-.433-1.949.39-3.314a20.111 20.111 0 002.163-4.136c.444-1.128.6-2.349.455-3.553a6.507 6.507 0 00-.779-3.422c-.584-1.624-.801-3.53-1.515-6.151a15.94 15.94 0 01-.8-3.53 24.39 24.39 0 00-1.082-4.657c-.498-1.365-.736-.823-1.818-1.711-1.082-.888-.368-.52-1.298-1.495-.931-.974-.779-1.321-1.688-2.382a13.279 13.279 0 01-1.774-2.339c-.736-1.213-.347-.498-.238-2.534.108-2.036.692-5.935 1.06-8.187.368-2.253.433-2.166-.411-3.076-.844-.91-1.493-2.296-2.164-2.534s-2.164.238-4.609.195c-2.445-.044-2.164-.585-3.246-1.755-1.082-1.169-2.358-2.794-2.813-3.227-.454-.433-1.276-.411-5.258 0-3.981.412-1.579.368-4.327.78-2.748.411-3.7 1.798-5.734 2.512-2.034.715-2.64.542-6.232-.173-2.525-.4-5.107.173-7.227 1.603a3.481 3.481 0 01-4.025-.498 24.588 24.588 0 00-3.7-3.011c-2.034-1.018-1.558-1.559-3.57-2.556-2.013-.996-1.363-1.039-3.03-2.62-1.666-1.582-1.795-3.184-2.964-4.83a49.832 49.832 0 00-3.7-5.718 60.924 60.924 0 01-3.83-6.303c-.779-1.062-1.363-1.17-1.342-1.668.022-.498 1.515-3.465 2.164-5.003.4-.743.754-1.51 1.061-2.296a12.623 12.623 0 00-.953-5.242c-.605-1.516-1.255-4.721-1.731-6.194-.476-1.473.238-1.516.823-2.361a54.106 54.106 0 003.31-5.241c1.407-2.621 2.164-3.899 2.943-5.112a36.228 36.228 0 013.549-5.978 35.901 35.901 0 015.106-3.639c1.212-.628 2.164-.974 2.402-1.516.238-.541.693-5.09 1.06-6.996.368-1.906-.13-2.967 1.255-3.703 1.385-.737 3.592-2.166 4.739-2.751 1.147-.585 1.342-1.603 1.926-3.011.584-1.408.844-3.162 1.731-3.747.887-.584.627.26 1.796 1.04a4.98 4.98 0 001.882.975c.541.13 1.039-.455 2.402-.455a3.279 3.279 0 012.315.585c.801.433.347.433 2.684-.975a36.343 36.343 0 017.183-3.422 30.689 30.689 0 016.492-1.906c1.406-.174.692 0 2.164.628 1.471.628 1.644.91 1.969.433.324-.476 1.341-1.733 2.012-1.689.671.043 1.428.325 3.138.628a4.323 4.323 0 003.094-.239c.692-.368 1.579-1.104 1.752-1.104.174 0 1.623.52 2.792.953 1.168.433 1.212.498.973.801a5.445 5.445 0 00-1.168 1.906c-.563 1.278-.281.585.26 1.95.541 1.364.93 1.277.67 2.165-.259.889-1.341 1.906-2.163 2.859-.823.953-.606 1.127 1.384 2.166a29.232 29.232 0 003.765 1.95 26.873 26.873 0 004.956 1.429c2.596.78 2.293.867 3.202 1.928.909 1.061.952 2.166 2.532 2.599 1.406.289 2.794.665 4.154 1.126a7.992 7.992 0 002.878 1.646c1.233.217 1.233.39 1.818-.519.584-.91 1.082-1.69.865-2.166-.216-.477-.887-1.17-.736-1.625.458-.921.963-1.818 1.515-2.686.325-.541 1.125-.671 3.073-.779 1.947-.109 3.289-.347 3.613.779.325 1.127.238.629 1.753 1.257 1.515.628 1.644.606 2.899 1.104 1.255.498.628 1.17 1.255 1.105a7.753 7.753 0 012.857.216 21.11 21.11 0 005.647 1.473 5.877 5.877 0 003.506-.758c.346-.151 1.969-2.166 2.942-.779.974 1.386 2.164 1.407 4.631 1.256 2.467-.152 2.423-.498 2.964-1.127a16.748 16.748 0 002.467-4.57c.476-1.602 1.753-5.111 2.164-6.692a9.424 9.424 0 00-.152-3.769 5.227 5.227 0 01.476-2.642c.368-1.04-1.168-.412-1.774-.195-.606.216-.801-.325-1.363-.477-.563-.151-1.147-.303-1.58.758-.432 1.062-.216 1.581-2.488 1.451-2.272-.129-1.839-.238-2.575-1.039a6.492 6.492 0 00-3.008-1.321c-1.017-.304-1.103-.239-1.19.389-.086.629 0 1.083-.822 1.343a6.486 6.486 0 01-3.83-.714 9.718 9.718 0 01-3.202-2.34c-1.364-1.364-1.169-1.364-1.731-3.443a9.343 9.343 0 01-.325-4.505c.238-.607.649-.802-.411-.477-1.06.325-1.774.498-1.06-1.083s1.363-1.646 2.163-1.863a20.818 20.818 0 013.268-.303 7.845 7.845 0 002.964-1.018c.498-.216 1.515-.563.996-.693-.52-.13-2.164-.303-1.796-.736.367-.433.432-.412 1.276-.498.844-.087 2.164-.13 3.246-.195 1.082-.065 1.774.13 2.164-.542a5.52 5.52 0 011.709-2.166c.866-.52 1.796-.238 4.068-.346 2.272-.109 1.904.476 2.64.996.736.52 1.233.282 2.164.455.93.173.368.758 1.103 1.061.736.303 2.164.607 3.744 1.126 1.579.52.562.304 2.575.304a13.586 13.586 0 003.548-.26 7.178 7.178 0 003.397-1.668c1.126-.801.347-2.556 0-3.899-.346-1.343-2.163-2.166-3.007-2.859-.844-.693-2.554-2.599-3.506-3.4a16.406 16.406 0 00-3.051-1.603c-1.038-.563-2.877-1.516-3.051-2.274-.173-.758.39-.78 1.926-1.148 1.537-.368 1.039-.671 1.32-1.495.281-.823.433-.779 1.688-1.234 1.255-.455-1.45-1.408-1.839-1.949-.39-.542.844-.369 2.163-.672a1.713 1.713 0 001.364-1.191c.173-.542 0-.78-1.364-.758-1.979.235-3.929.67-5.82 1.299-2.489.672-1.363.693-2.856 1.863-1.493 1.17-1.602.671-1.407 1.3.195.628.281 1.277 1.818 2.166 1.536.888.887.823 1.298.931.411.108 1.45.281.995.411-.454.13-.887.867-1.579.867-.693 0-.996.714-2.164 1.386a6.495 6.495 0 01-2.575.91c-.844.13-1.471-.152-1.341-1.625.129-1.473-.455-.476-1.364-.823a3.355 3.355 0 01-1.255-.736 10.844 10.844 0 001.818-.888 3.399 3.399 0 001.774-2.036c.455-1.127-.973-.52-2.012-.65-1.039-.13-.736-.238-1.753-.368a1.858 1.858 0 01-1.385-.932c.435.093.885.093 1.32 0 .866 0 .671-.324.974-.563.303-.238.584-.433.325-.433-.671.041-1.343.041-2.013 0a7.92 7.92 0 00-2.164 0c-1.038.173-.627.563-1.363 1.04a2.62 2.62 0 00-1.147 1.364c-.389.693-.519.585-.8 1.04a6.684 6.684 0 00-.238 2.404 2.322 2.322 0 01-.671 1.668c-.454.65-.454.368-1.255.758-.801.39-.26.671-.368 1.451-.108.78-.368 1.061-.433 2.166-.064 1.105-.476 1.061-1.081 1.776-.606.715-.974.693-1.017 1.429a9.194 9.194 0 000 2.491c.173 1.408.562 1.04 1.666 2.491 1.103 1.451 1.709.91 1.32 1.625-.39.714-.325.476-1.688.303-1.363-.174-1.558 0-2.553.996-.996.996-1.191 1.473-1.71 1.819-.519.347-.324-.693-.519-1.191-.195-.498-2.467-.628-4.025-1.083a16.345 16.345 0 00-2.358-.736 4.32 4.32 0 00-2.619.801c-1.622.888-1.255 1.408-1.146 2.578.108 1.169 1.384 1.407 1.017 4.158-.368 2.751 1.384 1.495 2.163 3.162.779 1.668 0 1.56-.367 1.776-.368.217-.888 1.647-1.234 3.011-.346 1.365 0 1.56-.368 1.495-.368-.065-.887.238-1.644-.91-.758-1.148-1.407 0-1.537-.715-.129-.715-1.06-1.754-.692-3.27.368-1.517.952-1.647-.368-2.448-1.32-.801-.995-.888-1.623-2.512a9.006 9.006 0 00-1.99-3.401c-1.234-1.473-1.125-1.061-.779-2.556a6.313 6.313 0 00-.152-4.44 25.123 25.123 0 00-6.318-5.22c-2.51-1.342-3.029-.324-4.133-2.447-1.103-2.123-1.623-4.332-3.462-5.675-1.839-1.343-.93-1.429-2.705-.758-1.774.672-1.817.932-1.666 1.43a4.33 4.33 0 01.303 2.62c-.26 1.408-.627.975 1.212 2.058 1.839 1.083 1.082.866 1.99 2.902a10.251 10.251 0 001.818 3.228 4.136 4.136 0 002.856 1.971c1.84.411 1.537-.109 2.013.346.476.455-1.277.607-.952.823a14.632 14.632 0 002.293 1.755 12.378 12.378 0 013.549 2.729c.411.758 1.774 3.595-.238 1.494-2.013-2.101-2.013-1.126-2.575.325-.563 1.451.519 2.556.454 3.617s-1.017.65-1.644 1.516c-.628.867-.952 1.885-1.688 2.426-.736.541-.519-.606-.93-.606-.412 0-.541.519-1.061 1.516-.519.996 0 1.407.217 2.75.216 1.343.584 1.452-.844 1.387-1.428-.065-1.125-1.43-2.445-2.318-1.32-.888-2.164-.585-3.203-1.278-1.038-.693.476-.845 3.246-1.191 2.77-.347 3.094-.628 3.938-1.278.844-.65.563-.823 1.493-2.166.931-1.343 0-1.819-.627-3.4a5.87 5.87 0 00-2.164-2.621 23.284 23.284 0 01-2.164-2.166 5.082 5.082 0 00-3.051-1.386c-1.406-.347-1.147-1.625-1.926-1.993a24.746 24.746 0 01-3.332-3.14c-1.774-1.647-1.104-2.881-1.904-4.332-.801-1.451-1.623-2.534-3.419-2.534s-3.094 1.234-4.868 2.945c-1.775 1.711-1.407 2.556-3.463 1.235-2.055-1.321-2.813-1.17-4.327 0a5.393 5.393 0 00-1.775 4.938c0 2.491-1.774 1.451-3.18 2.166-1.407.715-2.662 2.404-4.804 6.498-2.142 4.093.152 2.166-.281 3.509-.433 1.342.151 2.469-1.861 4.331-2.012 1.863-1.104-.216-2.164 1.235a5.783 5.783 0 01-5.626 2.166c-2.813-.347-1.99.758-3.765 1.169-1.774.412-2.726 1.04-2.293-.974.432-2.015 0-1.711-3.311-1.581-3.311.13-4.587 1.039-4.328.563.406-1.044.675-2.136.801-3.249.389-1.928.887-2.534.389-2.534-.497 0-1.644.281-.822-3.162.822-3.444 1.104-4.072.736-6.065-.368-1.993.151-4.678-.303-5.848-.454-1.17.887-2.339.303-2.967-.584-.628-1.255-1.451-.822-1.451 1.56.052 3.115.218 4.652.498 2.072.087 4.149.015 6.21-.217 1.406.13 4.328.758 7.314 1.235 2.986.476 2.877-.412 2.596-4.744-.281-4.331.216-6.324-.671-7.234-.887-.909-1.839-.823-2.813-1.992-.973-1.17-.216-2.881-2.293-3.509-2.077-.628-4.328-.13-3.246-.542 1.082-.411 1.558-.563.368-1.451-1.19-.888-1.471-1.862-.584-2.014.887-.152 3.397-.13 3.397-.13s.216 1.235 1.558.693c1.341-.541 3.007-1.105 2.661-1.993-.346-.888-1.038-1.992-.822-1.992a4.445 4.445 0 003.549 1.234c2.791 0 2.575-.411 2.358-1.581-.216-1.169 1.839-1.104 3.246-2.166 1.406-1.061-.519-2.057-.216-2.945.302-.888 1.925-1.451 4.803-1.646 2.878-.195 2.359-.693 2.164-1.04-.195-.347 0-1.798.303-3.66.303-1.863-.216-2.47 1.255-3.358 1.471-.888 1.039-.563 4.068-.844 3.029-.282 1.168-.953 1.688-1.083.519-.13 4.132-1.04 4.803-1.321.671-.282.584-.195 0-1.517-.584-1.321-1.406-2.057-2.164-8.122-.757-6.064-.519-6.043 3.16-7.147 3.678-1.105 2.877-.758 2.596 2.621-.281 3.378-1.926 3.357-2.293 5.847a8.654 8.654 0 001.471 6.607c1.558 2.62 1.406 1.299 4.739 1.299 3.332 0 2.575.823 4.782 1.581s1.493-1.364 3.635-2.166c2.142-.801 1.688.477 6.708-.281l2.726-.369c-.151 0-.714 0-.13-.324 1.169-.693 1.472-1.928 3.181-2.166 1.709-.239 2.878.476 2.791-2.166-.086-2.643-1.038-2.166-.735-4.202.303-2.036.367-1.105.519-2.686.151-1.581-.216-1.862 1.926-2.404 2.142-.541.649 1.928 3.245 2.469 2.597.542 2.164.975 2.662-1.018.498-1.992 1.839-4.613.584-4.483-1.255.13-1.558 0-2.813-1.928-1.255-1.928-1.99-2.166-1.168-2.166a41.906 41.906 0 017.443-.606c3.917.13 5.042.476 5.258 0 .217-.477-.67-.823.649-1.646 1.32-.823 5.691.411 5.042-.347a11.48 11.48 0 00-7.097-1.386c-2.575.411-8.872 1.17-9.824 1.105a6.974 6.974 0 01-3.181-1.235c-.432-.477-1.839-.823-1.839-3.097s.801-3.162-.519-5.372c-1.32-2.209 2.445-4.072 5.02-6.497 2.575-2.426 1.926-4.332 3.462-4.332 1.536 0 2.164-.975 1.406-1.733a16.365 16.365 0 00-4.803-3.639c-1.32-.281-3.311-1.797-5.388 1.798-2.077 3.595.151 3.92.519 5.783.368 1.863-2.878 3.227-5.323 4.938-2.445 1.711-3.31 1.321-4.046 5.718-.736 4.397-1.493 4.549 1.255 6.065s3.246 2.166 1.991 3.574c-1.255 1.407-3.917 1.234-5.54 4.331-1.623 3.098-.952 4.592-1.623 5.978-.67 1.386-2.726 1.993-3.332 3.379-.606 1.386-.649 4.289-3.072 3.92-2.424-.368-1.104-3.79-2.164-5.501-1.061-1.711-2.164-3.162-3.462-5.328-1.299-2.166-.303-4.202-1.558-5.307a6.158 6.158 0 01-1.472-3.357l-.432 1.018a11.16 11.16 0 01-2.727 4.765 7.464 7.464 0 01-8.136 2.534c-1.839-.758-1.536-2.534-1.536-4.808a68.168 68.168 0 010-8.88c.368-3.596 1.406-3.314 5.323-5.653 3.916-2.339 3.981-2.166 4.955-3.726a33.796 33.796 0 015.388-5.025 36.05 36.05 0 005.821-10.266c1.471-3.725 4.197-6 6.859-9.985a29.88 29.88 0 0113.437-10.05c6.059-2.555 5.042-2.837 6.491-4.83 1.45-1.992 2.013-.823 4.328-1.3 2.315-.476 1.991 0-.368 2.34-2.358 2.34-3.397 4.808-1.406 2.967 1.99-1.84 3.548-4.072 6.643-3.942 3.094.13 1.839 0 4.868 1.387 3.03 1.386 3.549 1.516 1.861 2.62a8.647 8.647 0 01-4.587.823 4.76 4.76 0 003.765 2.621c2.813.347 4.327-2.166 6.21-1.256 1.882.91 2.358 1.668-.152 1.451-2.51-.217-3.245 1.386-.151 2.49a26.244 26.244 0 007.465 1.777c4.068.563 5.842 3.509 8.937 4.83 3.094 1.321 6.707.195 5.69 3.032-1.017 2.837.801 5.567-4.587 6.888-5.388 1.321-5.236-.433-9.737-1.798s-7.681-2.751-7.681-2.751a28.369 28.369 0 003.245 3.509c2.056 1.928 2.294 3.704 2.056 7.234-.238 3.531-1.169 4.462 2.38 6.195 3.549 1.732 3.029 1.234 4.133.953 1.103-.282 2.943-.628 2.51-1.17-.433-.541-.822-1.581-1.991-2.166a1.317 1.317 0 01-.879-1.245 1.32 1.32 0 01.879-1.246c1.19-.628 2.294.542 4.869.412 2.575-.13 0-.953 1.255-2.274 1.255-1.321 1.341-3.509 4.327-4.679 2.986-1.169 6.275.564 7.098-.758a3.53 3.53 0 000-4.808c-1.71-2.014-3.03-2.686-2.013-3.66 1.017-.975 3.116-3.509 4.068-2.058.952 1.451 3.397 3.032.303 2.751-3.094-.282-.973 4.613 1.839 4.332 2.813-.282 2.597-1.17 4.869-2.166 2.272-.997 6.794-4.744 9.975-5.848 3.181-1.105 3.852-.823 5.107-.26a4.665 4.665 0 004.717.888c3.484-.693 4.501-1.516 7.746-2.166 3.246-.65-.216 1.191 1.255 1.668 1.472.476 1.645.888 2.748.13 1.104-.759 4.652-1.993 3.03-3.228-1.623-1.234-2.813-2.166-2.813-2.166a4.458 4.458 0 014.327-2.404c3.094.217 7.833 3.097 10.819 5.177a42.873 42.873 0 016.708 6.498 8.02 8.02 0 00.216-6.065c-1.103-3.769-3.894-2.88-3.894-6.498 0-3.617-2.597-2.62-1.71-5.176s3.397-3.509 4.068-6.736c.671-3.227 1.255-5.913 3.549-5.913 2.293 0 7.227.671 7.227.671a21.316 21.316 0 01-1.839 7.386c-1.84 4.332.952 4.873.519 10.245-.433 5.371-.519 6.064.736 7.299 1.255 1.234 3.613 2.751 2.726 5.09a6.739 6.739 0 01-4.652 5.09c-3.311 1.321-7.53.563-5.994 1.602a15.003 15.003 0 005.734 2.296c2.164.347 1.104-.13 2.878-1.581s5.756-4.332 5.604-5.718c-.151-1.386-2.272-3.509-.8-4.527 1.471-1.018 2.055-2.62 4.327-1.321 2.272 1.3 4.501 6.195 4.501 6a13.542 13.542 0 00-3.159-7.58c-2.748-2.752-7.249-.13-7.249-2.535 0-2.404 1.255-5.718.974-8.339-.281-2.62-1.342-5.241.368-7.494a8.232 8.232 0 001.774-4.072 9.59 9.59 0 01.13 4.809c-.584 2.685.303 4.331 1.558 4.331 1.255 0 6.859 0 3.851-.844-3.007-.845-3.916-1.711-.887-3.357 3.03-1.647 2.878-.564 7.292.476s5.475 1.798 6.946 1.711c1.471-.087 1.255-.195.736-1.494a5.823 5.823 0 00-2.662-3.12c-1.406-.887-2.358.217-2.813-1.169-.454-1.386-1.255-4.808-1.623-6.108-.367-1.3 1.104-.281 3.484-.281s8.785-.347 13.74-.477c4.956-.13 0-5.306-.303-8.967-.303-3.66 9.153-3.768 13.806-4.461a141.09 141.09 0 0018.76-2.556c8.655-2.166 3.094-1.711 4.327-4.202 1.234-2.49 3.397-2.88 5.994-2.88s4.955.476 3.981.822c-.973.347-3.83 1.776.671 2.751 4.501.975 3.332.888.952 1.733-2.38.845-.368 2.339 4.22 2.339 4.587 0 1.839-.412 1.103-1.928-.735-1.516.671-.974 4.436-.346 2.736.149 5.33 1.27 7.314 3.162 2.055 1.928 2.423 1.451 3.159 4.137.736 2.686 0 2.166-3.246 4.743-3.246 2.578-5.085 2.47-9.672 5.372-4.587 2.902-3.462 4.331-5.972 6.324-2.51 1.993-1.861 1.386 3.462 0s8.201-2.274 10.927-1.993c2.727.282 4.068 1.3 6.145 1.3a40.48 40.48 0 006.34.347c6.492 0 5.54 0 3.181 1.862-2.358 1.863.433 2.426 3.311 2.426a65.82 65.82 0 009.088-.281c2.661-.412.368-2.405 3.548-2.556 3.181-.152 4.22-.412 7.617-.412 3.397 0 2.358 1.386 3.527 2.62 1.168 1.235 2.813 2.059 1.709 4.55-1.103 2.49-1.709 2.533-1.038 5.912.67 3.38 2.358 3.856 4.435 4.462 2.078.606 2.056-3.01 4.068-4.332 2.013-1.321 2.424 2.491 4.718 1.928a13.75 13.75 0 016.859.346c2.081.76 4.341.881 6.491.347 2.813-.606 1.926-1.711.952-3.444-.973-1.733-1.038-1.58.736-3.357 1.774-1.776 2.964-.91 8.655.606 5.691 1.517 3.917 1.517 7.162 2.405a31.404 31.404 0 017.163 2.967c4.955 2.274 4.003 4.96 6.275 6.498 2.272 1.537 2.445 0 7.032-.412 4.587-.411 4.501.542 9.521 1.863 5.02 1.321 3.678 2.945 3.678 4.332 0 1.386-1.385 2.555 1.71 3.227 3.094.671 4.327 1.321 7.01.628s.303.693 6.21.758c5.908.065 3.917-.693 5.691.542 1.774 1.234 2.164 3.725 5.085 3.443 2.921-.281 2.662-.195 1.493-2.75-1.168-2.556-1.926-2.968-.238-2.881 1.688.087 5.172.823 11.598 1.841 6.427 1.018 6.643 2.166 11.901 5.523a112.865 112.865 0 0110.559 6.498c1.472 1.126 1.753 1.451 1.775 1.538a8.23 8.23 0 011.99.801c4.133 1.928 3.398 1.299 6.946 3.011a41.267 41.267 0 016.492 4.136s.411.455-2.251.737zm-344.585 69.959s-.39.541 1.687-1.127c2.078-1.667-.973 0-2.163-.411-1.191-.412-1.558-.888-1.191-2.404.368-1.516-.151-1.516-1.406-3.509 0 0-.671-.412-2.056.411-1.385.824-2.164-.823-3.916-.216-1.753.606-3.549.346-4.587 2.902-1.039 2.556-2.164.888-2.575 2.946-.412 2.057-3.549 3.184-3.549 3.184s1.255 1.234 2.164 2.404c.909 1.169.303.411 1.255 4.332.952 3.92 1.644 3.508 2.964 4.072a30.008 30.008 0 013.397 1.841s-1.255-.758-1.255 1.321c0 2.079-1.99 3.509-1.774 6.498.216 2.989-2.726 5.848-.368 6.129 2.359.282 1.623 1.3 4.198 1.993a24.268 24.268 0 007.833 1.169c3.765 0 1.709-1.451 1.19-3.573a30.01 30.01 0 01-.974-5.87c-.13-2.339-1.017-1.711-1.623-3.162-.605-1.451.303-2.274 2.164-2.274 1.861 0 1.991 0 1.039-1.647-.952-1.646-.368-2.165-1.558-2.902-1.19-.736-1.709 2.274-1.709 2.274s-.736-.671-.433-3.573c.303-2.903.519-1.517-.368-2.166-.887-.65-1.407.13-2.597-1.798s-.129-1.516-1.536-3.855c-1.406-2.34-.671-1.105.887-1.105s.736-.347 0-1.105c-.735-.758-1.255-1.927.736-1.776 1.991.152 4.566.542 5.539.607.974.065.585.39.585.39zM287.266 96.729c-.692 1.17 1.147 2.686 2.489 2.166 1.341-.52 1.752 0 2.51-.541.757-.542.822-1.495 0-2.383-.822-.888-.541-1.386-.693-1.473-1.752-.931-3.635 1.127-4.306 2.296v-.065zm365.077-75.807c-1.99 0-4.197.13-2.358.737 1.839.606 1.103 3.725 4.652 2.014 3.549-1.711 2.813-1.863 5.236-2.902 2.424-1.04 1.039-.542-1.904-1.3-1.861-.498-3.635 1.343-5.626 1.43v.021z" fill="#F5F5F5"/></svg>