<svg width="315" height="315" fill="none" xmlns="http://www.w3.org/2000/svg"><g opacity=".4" stroke="#fff" stroke-width="3"><path d="M310.738 157.482c0 84.641-68.615 153.256-153.256 153.256S4.226 242.123 4.226 157.482 72.84 4.226 157.482 4.226 310.738 72.84 310.738 157.482z"/><path d="M282.425 157.482c0 69.004-55.939 124.943-124.943 124.943-69.004 0-124.944-55.939-124.944-124.943 0-69.004 55.94-124.944 124.944-124.944s124.943 55.94 124.943 124.944z"/><path d="M219.326 95.63c34.16 34.16 34.16 89.544 0 123.704s-89.544 34.16-123.704 0-34.16-89.544 0-123.704 89.544-34.16 123.704 0z"/><path d="M213.297 157.482c0 30.826-24.989 55.815-55.815 55.815-30.826 0-55.816-24.989-55.816-55.815 0-30.826 24.99-55.816 55.816-55.816 30.826 0 55.815 24.99 55.815 55.816z"/></g></svg>