<svg width="20" height="20" fill="none" xmlns="http://www.w3.org/2000/svg"><path d="M18.333 3.332c-.65.386-1.954.912-2.72 1.063-.023.006-.041.014-.063.02a3.75 3.75 0 00-6.383 2.667c0 .11-.01.31 0 .417-2.795 0-4.921-1.464-6.446-3.334-.166.417-.239 1.075-.239 1.694 0 1.167.913 2.314 2.334 3.025-.262.067-.55.116-.85.116-.484 0-.997-.128-1.466-.515v.043c0 1.631 1.732 2.742 3.272 3.051-.313.185-.943.203-1.25.203-.217 0-.984-.1-1.189-.137.429 1.337 1.974 2.089 3.446 2.115C5.627 14.664 4.83 15 2.47 15h-.803c1.49.955 3.387 1.667 5.289 1.667 6.192 0 9.71-4.719 9.71-9.167l-.003-.373c0-.015.004-.029.004-.044 0-.022-.007-.044-.007-.067a15.32 15.32 0 00-.008-.274A6.847 6.847 0 0018.334 5a6.725 6.725 0 01-1.933.53c.695-.417 1.683-1.41 1.933-2.197z" fill="#fff"/></svg>