<svg width="50" height="50" fill="none" xmlns="http://www.w3.org/2000/svg"><g clip-path="url(#clip0_807_28)" fill="#515151"><path d="M44.303 2.116a.78.78 0 00-.22-1.258 9.35 9.35 0 00-10.622 1.86c-2.653 2.671-3.58 6.865-2.342 10.371l-18.03 18.03a9.232 9.232 0 00-3.119-.525c-2.678 0-5.275 1.065-7.123 2.925A9.503 9.503 0 00.845 44.06a.778.778 0 001.27.239l5.455-5.483c.36-.362.94-.41 1.24-.106l2.354 2.464c.342.345.327.878-.034 1.242l-5.435 5.469a.78.78 0 00.22 1.256 9.428 9.428 0 004.05.919c2.455 0 4.788-.988 6.573-2.781 2.653-2.67 3.58-6.863 2.34-10.37l18.03-18.03a9.251 9.251 0 003.12.525c2.678 0 5.275-1.066 7.124-2.925a9.504 9.504 0 002.001-10.543.778.778 0 00-1.27-.239l-5.455 5.483a.89.89 0 01-1.251-.015l-2.343-2.343a.86.86 0 01-.001-1.24l5.47-5.467zm-6.575 7.812l2.342 2.342c.936.94 2.54.946 3.466.014l4.578-4.6a7.955 7.955 0 01-2.069 7.697c-1.558 1.567-3.748 2.464-6.015 2.464a7.65 7.65 0 01-3.005-.593.781.781 0 00-.858.165l-18.75 18.75a.78.78 0 00-.167.855c1.255 2.984.49 6.836-1.817 9.158a7.744 7.744 0 01-7.79 1.965l4.596-4.625c.97-.976.986-2.49.045-3.434l-2.353-2.464c-.908-.914-2.522-.858-3.465.097l-4.578 4.6a7.955 7.955 0 012.068-7.697c1.558-1.567 3.749-2.464 6.016-2.464 1.067 0 2.078.2 3.005.593a.778.778 0 00.857-.165l18.75-18.75a.78.78 0 00.168-.855c-1.255-2.984-.491-6.837 1.817-9.16a7.745 7.745 0 017.784-1.965l-4.625 4.627a2.416 2.416 0 000 3.445z"/><path d="M45.64 47.886a.93.93 0 01-1.291-.003L28.677 32.258a.783.783 0 00-1.104 1.108l15.67 15.621c.47.47 1.091.73 1.754.73.662 0 1.284-.26 1.762-.74l2.233-2.333a2.42 2.42 0 00-.001-3.447L33.366 27.572a.781.781 0 00-1.105 1.105L47.884 44.3c.358.36.358.881-.01 1.253l-2.233 2.333zM9.148 4.916L4.459.228a.781.781 0 00-1.104 0L.23 3.353a.781.781 0 000 1.105l4.687 4.687a.784.784 0 001.105.002l1.01-1.011 11.946 11.947a.779.779 0 001.114.011.78.78 0 00-.008-1.114L8.136 7.03l1.01-1.01a.781.781 0 000-1.105zM5.469 7.489L1.886 3.906l2.02-2.02L7.49 5.469l-2.02 2.02z"/></g><defs><clipPath id="clip0_807_28"><path fill="#fff" d="M0 0h50v50H0z"/></clipPath></defs></svg>