<svg width="50" height="50" fill="none" xmlns="http://www.w3.org/2000/svg"><g clip-path="url(#clip0_807_26)"><path d="M1.014 8.822c-1.33 1.325-1.045 3.19.012 4.242.042.04 4.29 4.081 10.262 10.03a.781.781 0 001.11 0 .78.78 0 000-1.105c-.9-.897-1.756-1.745-2.569-2.548l2.493-2.483a.78.78 0 00-.557-1.324.786.786 0 00-.552.22l-2.5 2.488a782.616 782.616 0 00-3.631-3.548l5.671-5.649a.78.78 0 00-.557-1.324.786.786 0 00-.552.22l-5.689 5.665c-1.155-1.114-1.82-1.747-1.83-1.758-.332-.33-.766-1.257 0-2.02l7.844-7.812c.302-.307 1.109-.914 1.994-.038.039.044 4 4.525 10.047 10.547a.786.786 0 001.33-.555.78.78 0 00-.221-.55C17.11 5.538 13.179 1.09 13.106 1.01c-1.462-1.454-3.225-1.018-4.247 0L1.014 8.821zm33.272 28.906a.786.786 0 00-1.109 0l-2.496 2.484a550.414 550.414 0 00-2.4-2.407.786.786 0 00-1.33.555.78.78 0 00.22.55 462.19 462.19 0 019.928 10.17c.538.537 1.276.833 2.076.833.823 0 1.657-.32 2.173-.836l7.84-7.902c.988-.983 1.044-2.65.123-3.57l-10.52-10.477a.786.786 0 00-1.33.555.78.78 0 00.22.55l10.521 10.476c.314.313.254.988-.124 1.364l-7.843 7.902c-.18.181-.59.375-1.06.375-.27 0-.656-.066-.948-.358a279.37 279.37 0 00-1.813-1.904l5.716-5.694a.78.78 0 00-.557-1.324.786.786 0 00-.552.22l-5.693 5.67a514.901 514.901 0 00-3.546-3.635l2.504-2.494a.78.78 0 000-1.103zM.223 49.733a.785.785 0 00.786.201l15.689-4.654a.769.769 0 00.332-.199l26.812-26.883c.038-.037.057-.085.085-.128l5.736-5.712a2.424 2.424 0 00.72-1.721 2.417 2.417 0 00-.72-1.721L41.45.738c-.923-.92-2.534-.92-3.457 0L32.127 6.58c-.037.037-.058.086-.086.13L5.188 33.454a.773.773 0 00-.191.31L.039 48.946a.777.777 0 00.184.788zM32.727 8.236l1.63 1.623-24.354 24.32-2.71-.612L32.728 8.236zm-21.745 27.18l24.486-24.45 3.821 3.806-24.706 24.29h-3.6v-3.646zM42.178 17.65L16.693 43.203l-.905-3.128 24.61-24.198 1.78 1.773zM6.265 34.936l3.148.712v4.196a.78.78 0 00.785.781h4.116l.995 3.438-13.317 3.951 4.273-13.078zm32.84-33.094a.896.896 0 011.237 0l8.213 8.18a.865.865 0 01-.002 1.233l-5.288 5.268-9.45-9.41 5.29-5.27z" fill="#515151"/></g><defs><clipPath id="clip0_807_26"><path fill="#fff" d="M0 0h50v50H0z"/></clipPath></defs></svg>