<svg width="304" height="80" fill="none" xmlns="http://www.w3.org/2000/svg"><circle cx="40" cy="40" r="40" fill="#F5AB1A"/><path d="M21 59c0 1.654 1.348 3 3 3h16c1.654 0 3-1.346 3-3v-7H21v7zm46-31.21h-7.38l-1.17-2.342a2.988 2.988 0 00-2.684-1.658h-4.602l-3.382-1.126a16.93 16.93 0 00-5.376-.874H23c-1.652 0-3 1.346-3 3v8c0 1.654 1.348 3 3 3h4.834l-1.762 11.444-3.406 2.556h20.538l-6.098-2.614.678-4.412a.996.996 0 001.186-.732l1-4a1 1 0 00-.728-1.212.967.967 0 00-.55.035l.166-1.065h3.546c1.832 0 3.64-.294 5.376-.874l3.382-1.127h4.602a2.986 2.986 0 002.684-1.657l1.17-2.342H67a1 1 0 000-2zm-36 4h-6a1 1 0 010-2h6a1 1 0 010 2zm0-4h-6a1 1 0 010-2h6a1 1 0 010 2zm21 3a1 1 0 01-2 0v-4a1 1 0 012 0v4zm58.64 10.19c-2.96 0-5.48-.507-7.56-1.52-2.053-1.04-3.613-2.613-4.68-4.72-1.067-2.107-1.6-4.773-1.6-8 0-4.747 1.187-8.293 3.56-10.64 2.4-2.373 5.827-3.56 10.28-3.56 2.48 0 4.68.427 6.6 1.28 1.92.827 3.413 2.08 4.48 3.76 1.093 1.653 1.64 3.72 1.64 6.2h-7c0-1.173-.24-2.173-.72-3a4.633 4.633 0 00-1.96-1.96c-.827-.453-1.84-.68-3.04-.68-1.493 0-2.72.307-3.68.92s-1.667 1.493-2.12 2.64c-.453 1.147-.68 2.533-.68 4.16v1.8c0 1.627.227 3.027.68 4.2.453 1.147 1.147 2.027 2.08 2.64.96.587 2.187.88 3.68.88 1.28 0 2.36-.213 3.24-.64.907-.427 1.587-1.053 2.04-1.88.48-.853.72-1.867.72-3.04h6.76c0 2.48-.533 4.547-1.6 6.2-1.04 1.653-2.52 2.893-4.44 3.72-1.893.827-4.12 1.24-6.68 1.24zm14.328-.48l10.32-27.48h8.6l10.32 27.48h-7.64l-1.64-4.76h-10.96l-1.64 4.76h-7.36zm10.72-10.12h7.48l-1.96-5.8c-.106-.293-.24-.653-.4-1.08-.133-.453-.28-.92-.44-1.4l-.4-1.52a15.926 15.926 0 00-.4-1.32h-.28c-.106.507-.266 1.08-.48 1.72-.186.64-.386 1.28-.6 1.92-.186.64-.36 1.2-.52 1.68l-2 5.8zm21.804 10.12V13.02h15.96c2.027 0 3.72.387 5.08 1.16 1.36.747 2.374 1.787 3.04 3.12.694 1.307 1.04 2.773 1.04 4.4 0 1.76-.413 3.333-1.24 4.72-.8 1.36-1.933 2.427-3.4 3.2l5.52 10.88h-8l-4.56-9.68h-6.28v9.68h-7.16zm7.16-15h7.4c.987 0 1.774-.32 2.36-.96.614-.667.92-1.547.92-2.64 0-.72-.133-1.333-.4-1.84a2.763 2.763 0 00-1.12-1.16c-.48-.293-1.066-.44-1.76-.44h-7.4v7.04zm20.16 15l10.32-27.48h8.6l10.32 27.48h-7.64l-1.64-4.76h-10.96l-1.64 4.76h-7.36zm10.72-10.12h7.48l-1.96-5.8c-.106-.293-.24-.653-.4-1.08-.133-.453-.28-.92-.44-1.4l-.4-1.52a15.926 15.926 0 00-.4-1.32h-.28c-.106.507-.266 1.08-.48 1.72-.186.64-.386 1.28-.6 1.92-.186.64-.36 1.2-.52 1.68l-2 5.8zm21.804 10.12V13.02h16.8c1.413 0 2.693.28 3.84.84 1.147.56 2.053 1.347 2.72 2.36.693 1.013 1.04 2.2 1.04 3.56 0 1.2-.213 2.227-.64 3.08-.4.853-.947 1.547-1.64 2.08a6.92 6.92 0 01-2.28 1.2v.16c.987.213 1.88.6 2.68 1.16.8.533 1.427 1.267 1.88 2.2.48.933.72 2.067.72 3.4 0 1.573-.373 2.92-1.12 4.04a7.359 7.359 0 01-2.96 2.52c-1.227.587-2.6.88-4.12.88h-16.92zm7.16-5.52h7.8c.853 0 1.533-.253 2.04-.76.533-.507.8-1.28.8-2.32 0-.56-.12-1.053-.36-1.48a2.223 2.223 0 00-1-1.04c-.427-.24-.96-.36-1.6-.36h-7.68v5.96zm0-11.04h7.16c.587 0 1.08-.12 1.48-.36a2.31 2.31 0 00.96-1c.24-.427.36-.933.36-1.52 0-.853-.253-1.52-.76-2s-1.147-.72-1.92-.72h-7.28v5.6zm35.285 17.04c-2.64 0-4.92-.413-6.84-1.24-1.894-.827-3.347-2.067-4.36-3.72-1.014-1.653-1.52-3.707-1.52-6.16V13.02h7.2V29.7c0 1.76.466 3.147 1.4 4.16.933 1.013 2.306 1.52 4.12 1.52 1.813 0 3.2-.507 4.16-1.52s1.44-2.4 1.44-4.16V13.02h7.16v16.84c0 2.453-.507 4.507-1.52 6.16-1.014 1.653-2.467 2.893-4.36 3.72-1.894.827-4.187 1.24-6.88 1.24zm30.088 0c-1.734 0-3.36-.16-4.88-.48-1.52-.293-2.867-.787-4.04-1.48a7.804 7.804 0 01-2.72-2.72c-.667-1.147-1-2.547-1-4.2v-.36c0-.133.013-.24.04-.32h6.92c0 .08-.014.187-.04.32v.28c0 .853.213 1.547.64 2.08.453.507 1.08.88 1.88 1.12.8.213 1.733.32 2.8.32.586 0 1.133-.027 1.64-.08.506-.053.96-.147 1.36-.28.4-.133.746-.293 1.04-.48.32-.213.546-.453.68-.72.16-.293.24-.627.24-1 0-.613-.24-1.12-.72-1.52-.454-.4-1.08-.733-1.88-1a29.77 29.77 0 00-2.64-.76 460.13 460.13 0 01-3.08-.76 23.054 23.054 0 01-3.08-1 11.44 11.44 0 01-2.68-1.52 7.117 7.117 0 01-1.88-2.28c-.454-.933-.68-2.053-.68-3.36 0-1.44.306-2.68.92-3.72a7.344 7.344 0 012.52-2.6c1.093-.667 2.346-1.147 3.76-1.44 1.413-.32 2.92-.48 4.52-.48 1.573 0 3.04.16 4.4.48 1.386.32 2.613.827 3.68 1.52 1.066.667 1.893 1.52 2.48 2.56.613 1.013.933 2.24.96 3.68v.48h-6.88v-.28c0-.613-.174-1.147-.52-1.6-.32-.48-.814-.853-1.48-1.12-.667-.293-1.494-.44-2.48-.44-.987 0-1.827.093-2.52.28-.667.187-1.187.453-1.56.8-.347.347-.52.76-.52 1.24 0 .587.226 1.067.68 1.44.48.373 1.12.693 1.92.96.8.267 1.693.52 2.68.76.986.213 2 .453 3.04.72 1.066.24 2.093.56 3.08.96.986.373 1.88.867 2.68 1.48a6.24 6.24 0 011.88 2.2c.48.88.72 1.947.72 3.2 0 2.187-.52 3.947-1.56 5.28-1.014 1.333-2.427 2.307-4.24 2.92-1.787.613-3.814.92-6.08.92zM100.662 65.5V54.394h-4.374v-1.242h10.206v1.242h-4.41V65.5h-1.422zm10.036.216c-.912 0-1.692-.174-2.34-.522-.636-.36-1.122-.906-1.458-1.638-.324-.732-.486-1.662-.486-2.79 0-1.14.162-2.07.486-2.79.336-.732.822-1.272 1.458-1.62.648-.36 1.428-.54 2.34-.54.936 0 1.716.18 2.34.54.636.348 1.116.888 1.44 1.62.336.72.504 1.65.504 2.79 0 1.128-.168 2.058-.504 2.79-.324.732-.804 1.278-1.44 1.638-.624.348-1.404.522-2.34.522zm0-1.098c.636 0 1.17-.126 1.602-.378.432-.252.762-.642.99-1.17.228-.54.342-1.236.342-2.088v-.432c0-.852-.114-1.542-.342-2.07-.228-.54-.558-.936-.99-1.188-.432-.252-.966-.378-1.602-.378-.636 0-1.17.126-1.602.378-.432.252-.762.648-.99 1.188-.228.528-.342 1.218-.342 2.07v.432c0 .852.114 1.548.342 2.088.228.528.558.918.99 1.17.432.252.966.378 1.602.378zm10.362 1.098c-.912 0-1.692-.174-2.34-.522-.636-.36-1.122-.906-1.458-1.638-.324-.732-.486-1.662-.486-2.79 0-1.14.162-2.07.486-2.79.336-.732.822-1.272 1.458-1.62.648-.36 1.428-.54 2.34-.54.936 0 1.716.18 2.34.54.636.348 1.116.888 1.44 1.62.336.72.504 1.65.504 2.79 0 1.128-.168 2.058-.504 2.79-.324.732-.804 1.278-1.44 1.638-.624.348-1.404.522-2.34.522zm0-1.098c.636 0 1.17-.126 1.602-.378.432-.252.762-.642.99-1.17.228-.54.342-1.236.342-2.088v-.432c0-.852-.114-1.542-.342-2.07-.228-.54-.558-.936-.99-1.188-.432-.252-.966-.378-1.602-.378-.636 0-1.17.126-1.602.378-.432.252-.762.648-.99 1.188-.228.528-.342 1.218-.342 2.07v.432c0 .852.114 1.548.342 2.088.228.528.558.918.99 1.17.432.252.966.378 1.602.378zm6.618.882V52.486h1.296V65.5h-1.296zm7.342.216a6.265 6.265 0 01-1.656-.198c-.48-.12-.882-.3-1.206-.54a2.6 2.6 0 01-.72-.9 2.922 2.922 0 01-.234-1.206v-.144a.67.67 0 01.018-.162h1.278a.834.834 0 00-.018.162v.108c.012.468.126.834.342 1.098.216.252.522.432.918.54.396.108.852.162 1.368.162.444 0 .84-.06 1.188-.18.36-.132.642-.318.846-.558a1.27 1.27 0 00.324-.882c0-.444-.138-.78-.414-1.008-.264-.228-.612-.402-1.044-.522l-1.35-.414a31.274 31.274 0 01-1.134-.342 5.39 5.39 0 01-1.026-.486c-.3-.192-.54-.438-.72-.738-.18-.3-.27-.678-.27-1.134 0-.396.078-.75.234-1.062.168-.312.402-.576.702-.792a3.41 3.41 0 011.134-.522c.444-.12.948-.18 1.512-.18.624 0 1.158.072 1.602.216.444.144.804.342 1.08.594a2.343 2.343 0 01.81 1.782.834.834 0 01-.018.162v.162h-1.278v-.234c0-.252-.066-.498-.198-.738-.12-.24-.342-.444-.666-.612-.312-.168-.78-.252-1.404-.252-.372 0-.696.036-.972.108-.264.06-.492.15-.684.27-.18.12-.318.27-.414.45a1.313 1.313 0 00-.126.594c0 .348.108.618.324.81.228.18.522.33.882.45.36.108.744.228 1.152.36.408.12.822.246 1.242.378.432.132.828.294 1.188.486s.648.45.864.774c.216.312.324.726.324 1.242 0 .48-.096.906-.288 1.278-.192.36-.456.66-.792.9s-.738.42-1.206.54a5.86 5.86 0 01-1.494.18zm10.71-.216V53.152h6.48c.816 0 1.488.156 2.016.468.54.3.942.714 1.206 1.242.276.528.414 1.128.414 1.8 0 .876-.204 1.62-.612 2.232a3.244 3.244 0 01-1.584 1.278l2.628 5.328h-1.566l-2.466-5.076h-5.094V65.5h-1.422zm1.422-6.3h4.914c.732 0 1.308-.222 1.728-.666.42-.456.63-1.08.63-1.872 0-.48-.09-.888-.27-1.224a1.828 1.828 0 00-.792-.774c-.348-.192-.78-.288-1.296-.288h-4.914V59.2zm15.221 6.516c-.9 0-1.662-.174-2.286-.522-.624-.36-1.098-.906-1.422-1.638-.324-.732-.486-1.662-.486-2.79 0-1.14.162-2.07.486-2.79.324-.732.804-1.272 1.44-1.62.636-.36 1.428-.54 2.376-.54.876 0 1.608.174 2.196.522.6.348 1.05.852 1.35 1.512.312.66.468 1.47.468 2.43v.828h-6.966c0 .828.114 1.506.342 2.034.228.528.552.912.972 1.152.432.228.96.342 1.584.342.456 0 .852-.06 1.188-.18.348-.12.63-.282.846-.486.228-.216.402-.468.522-.756s.18-.588.18-.9h1.26c0 .468-.09.912-.27 1.332-.168.408-.42.768-.756 1.08-.324.312-.738.558-1.242.738-.504.168-1.098.252-1.782.252zm-2.844-5.634h5.616c0-.6-.072-1.098-.216-1.494-.132-.408-.318-.732-.558-.972a2.033 2.033 0 00-.864-.54 3.463 3.463 0 00-1.098-.162c-.588 0-1.092.114-1.512.342-.42.216-.744.558-.972 1.026-.216.468-.348 1.068-.396 1.8zm9.289 5.418v-9.468h1.026l.126 1.494h.126c.264-.432.564-.768.9-1.008a3.262 3.262 0 011.08-.54 4.77 4.77 0 011.26-.162c.6 0 1.122.102 1.566.306.456.192.81.51 1.062.954.252.444.378 1.05.378 1.818V65.5h-1.296v-6.48c0-.42-.054-.762-.162-1.026a1.41 1.41 0 00-.45-.612 1.645 1.645 0 00-.684-.324 3.66 3.66 0 00-.846-.09c-.48 0-.936.12-1.368.36-.42.228-.762.558-1.026.99-.264.432-.396.96-.396 1.584V65.5h-1.296zm12.397.198c-.432 0-.78-.078-1.044-.234a1.3 1.3 0 01-.54-.648 2.78 2.78 0 01-.144-.918V57.13h-1.278v-1.098h1.278l.252-2.628h1.044v2.628h1.818v1.098h-1.818v6.534c0 .324.042.564.126.72.096.156.3.234.612.234h1.08v.828c-.12.048-.264.09-.432.126a2.174 2.174 0 01-.486.09 3.323 3.323 0 01-.468.036zm5.833.018c-.372 0-.738-.048-1.098-.144a2.94 2.94 0 01-.972-.414 2.222 2.222 0 01-.666-.81c-.168-.336-.252-.75-.252-1.242 0-.648.156-1.176.468-1.584.324-.42.774-.744 1.35-.972.576-.24 1.254-.402 2.034-.486.792-.084 1.65-.126 2.574-.126v-1.206c0-.384-.072-.708-.216-.972-.132-.276-.372-.486-.72-.63-.336-.156-.816-.234-1.44-.234-.6 0-1.074.078-1.422.234-.348.156-.594.36-.738.612-.132.24-.198.51-.198.81v.288h-1.242a.916.916 0 01-.018-.18v-.216c0-.6.156-1.092.468-1.476.312-.384.756-.672 1.332-.864.576-.192 1.236-.288 1.98-.288.756 0 1.392.114 1.908.342.516.216.912.528 1.188.936.276.408.414.9.414 1.476v5.436c0 .228.042.39.126.486a.553.553 0 00.378.126h.756v.828c-.18.072-.372.132-.576.18a2.516 2.516 0 01-.612.072c-.312 0-.564-.066-.756-.198a1.133 1.133 0 01-.396-.558 3.876 3.876 0 01-.144-.792h-.126a3.302 3.302 0 01-.882.846 4.186 4.186 0 01-1.152.522c-.42.132-.87.198-1.35.198zm.27-1.098c.396 0 .78-.066 1.152-.198a3.696 3.696 0 001.008-.54c.3-.24.54-.522.72-.846.192-.324.288-.684.288-1.08v-.972c-1.116 0-2.052.06-2.808.18-.744.12-1.308.33-1.692.63-.372.3-.558.72-.558 1.26 0 .36.078.66.234.9.168.228.396.396.684.504.288.108.612.162.972.162zm7.435.882V52.486h1.296V65.5h-1.296zm13.28.216c-.66 0-1.302-.06-1.926-.18a5.04 5.04 0 01-1.656-.612 3.208 3.208 0 01-1.134-1.134c-.276-.468-.414-1.05-.414-1.746v-.162c0-.06.006-.12.018-.18h1.422c0 .048-.006.114-.018.198v.216c0 .528.156.972.468 1.332.324.348.756.612 1.296.792.552.168 1.17.252 1.854.252.228 0 .498-.012.81-.036a6.91 6.91 0 00.972-.18c.336-.096.642-.222.918-.378.276-.168.498-.378.666-.63.18-.264.27-.588.27-.972 0-.444-.12-.81-.36-1.098a2.636 2.636 0 00-.954-.702 7.736 7.736 0 00-1.332-.504 48.102 48.102 0 00-1.548-.414 20.998 20.998 0 01-1.548-.45 6.204 6.204 0 01-1.332-.63 3.09 3.09 0 01-.954-.936c-.228-.384-.342-.852-.342-1.404 0-.48.096-.918.288-1.314.192-.396.486-.732.882-1.008.396-.288.9-.51 1.512-.666.612-.156 1.338-.234 2.178-.234.636 0 1.23.066 1.782.198a4.333 4.333 0 011.458.63c.42.276.744.63.972 1.062.24.42.36.93.36 1.53v.216h-1.404v-.306c0-.444-.138-.816-.414-1.116-.276-.312-.648-.552-1.116-.72-.456-.18-.978-.27-1.566-.27-.804 0-1.464.084-1.98.252-.516.156-.9.378-1.152.666a1.352 1.352 0 00-.378.936c0 .408.12.75.36 1.026.24.264.558.486.954.666.396.168.84.324 1.332.468.504.132 1.02.264 1.548.396a15.13 15.13 0 011.53.468c.504.168.954.384 1.35.648.408.252.726.57.954.954.24.384.36.858.36 1.422 0 .852-.216 1.548-.648 2.088-.42.54-1.002.936-1.746 1.188-.744.252-1.608.378-2.592.378zm11.282 0c-.9 0-1.662-.174-2.286-.522-.624-.36-1.098-.906-1.422-1.638-.324-.732-.486-1.662-.486-2.79 0-1.14.162-2.07.486-2.79.324-.732.804-1.272 1.44-1.62.636-.36 1.428-.54 2.376-.54.876 0 1.608.174 2.196.522.6.348 1.05.852 1.35 1.512.312.66.468 1.47.468 2.43v.828h-6.966c0 .828.114 1.506.342 2.034.228.528.552.912.972 1.152.432.228.96.342 1.584.342.456 0 .852-.06 1.188-.18.348-.12.63-.282.846-.486.228-.216.402-.468.522-.756s.18-.588.18-.9h1.26c0 .468-.09.912-.27 1.332-.168.408-.42.768-.756 1.08-.324.312-.738.558-1.242.738-.504.168-1.098.252-1.782.252zm-2.844-5.634h5.616c0-.6-.072-1.098-.216-1.494-.132-.408-.318-.732-.558-.972a2.033 2.033 0 00-.864-.54 3.463 3.463 0 00-1.098-.162c-.588 0-1.092.114-1.512.342-.42.216-.744.558-.972 1.026-.216.468-.348 1.068-.396 1.8zm9.289 5.418v-9.468h1.044l.108 1.584h.126c.084-.288.21-.57.378-.846a2.07 2.07 0 01.684-.684c.288-.18.654-.27 1.098-.27.168 0 .324.018.468.054.144.024.252.048.324.072v1.188h-.558c-.42 0-.78.078-1.08.234-.3.144-.546.354-.738.63a3.015 3.015 0 00-.432.954 4.665 4.665 0 00-.126 1.098V65.5h-1.296zm8.61 0l-3.51-9.468h1.368l1.818 4.95c.084.24.18.534.288.882.12.336.234.678.342 1.026.12.348.222.654.306.918h.09l.288-.9.36-1.044.306-.882 1.8-4.95h1.314l-3.51 9.468h-1.26zm6.699-11.412v-1.602h1.296v1.602h-1.296zm0 11.412v-9.468h1.296V65.5h-1.296zm7.648.216c-.876 0-1.62-.18-2.232-.54-.6-.36-1.056-.906-1.368-1.638-.312-.732-.468-1.656-.468-2.772 0-1.104.156-2.022.468-2.754.312-.732.774-1.278 1.386-1.638.624-.372 1.386-.558 2.286-.558.66 0 1.218.09 1.674.27.468.168.846.414 1.134.738.3.324.516.714.648 1.17.132.456.198.966.198 1.53h-1.278c0-.612-.084-1.104-.252-1.476a1.575 1.575 0 00-.774-.846c-.348-.192-.81-.288-1.386-.288-.54 0-1.02.12-1.44.36-.408.24-.732.624-.972 1.152-.228.516-.342 1.224-.342 2.124v.432c0 .852.108 1.548.324 2.088.216.528.528.918.936 1.17.42.252.918.378 1.494.378.6 0 1.074-.102 1.422-.306.36-.216.618-.516.774-.9.156-.396.234-.864.234-1.404h1.26c0 .504-.066.984-.198 1.44a3.03 3.03 0 01-.648 1.17c-.288.336-.672.606-1.152.81-.468.192-1.044.288-1.728.288zm9.646 0c-.9 0-1.662-.174-2.286-.522-.624-.36-1.098-.906-1.422-1.638-.324-.732-.486-1.662-.486-2.79 0-1.14.162-2.07.486-2.79.324-.732.804-1.272 1.44-1.62.636-.36 1.428-.54 2.376-.54.876 0 1.608.174 2.196.522.6.348 1.05.852 1.35 1.512.312.66.468 1.47.468 2.43v.828h-6.966c0 .828.114 1.506.342 2.034.228.528.552.912.972 1.152.432.228.96.342 1.584.342.456 0 .852-.06 1.188-.18.348-.12.63-.282.846-.486.228-.216.402-.468.522-.756s.18-.588.18-.9h1.26c0 .468-.09.912-.27 1.332-.168.408-.42.768-.756 1.08-.324.312-.738.558-1.242.738-.504.168-1.098.252-1.782.252zm-2.844-5.634h5.616c0-.6-.072-1.098-.216-1.494-.132-.408-.318-.732-.558-.972a2.033 2.033 0 00-.864-.54 3.463 3.463 0 00-1.098-.162c-.588 0-1.092.114-1.512.342-.42.216-.744.558-.972 1.026-.216.468-.348 1.068-.396 1.8zm12.439 5.634a6.265 6.265 0 01-1.656-.198c-.48-.12-.882-.3-1.206-.54a2.6 2.6 0 01-.72-.9 2.922 2.922 0 01-.234-1.206v-.144a.67.67 0 01.018-.162h1.278a.834.834 0 00-.018.162v.108c.012.468.126.834.342 1.098.216.252.522.432.918.54.396.108.852.162 1.368.162.444 0 .84-.06 1.188-.18.36-.132.642-.318.846-.558a1.27 1.27 0 00.324-.882c0-.444-.138-.78-.414-1.008-.264-.228-.612-.402-1.044-.522l-1.35-.414a31.274 31.274 0 01-1.134-.342 5.39 5.39 0 01-1.026-.486c-.3-.192-.54-.438-.72-.738-.18-.3-.27-.678-.27-1.134 0-.396.078-.75.234-1.062.168-.312.402-.576.702-.792a3.41 3.41 0 011.134-.522c.444-.12.948-.18 1.512-.18.624 0 1.158.072 1.602.216.444.144.804.342 1.08.594a2.343 2.343 0 01.81 1.782.834.834 0 01-.018.162v.162h-1.278v-.234c0-.252-.066-.498-.198-.738-.12-.24-.342-.444-.666-.612-.312-.168-.78-.252-1.404-.252-.372 0-.696.036-.972.108-.264.06-.492.15-.684.27-.18.12-.318.27-.414.45a1.313 1.313 0 00-.126.594c0 .348.108.618.324.81.228.18.522.33.882.45.36.108.744.228 1.152.36.408.12.822.246 1.242.378.432.132.828.294 1.188.486s.648.45.864.774c.216.312.324.726.324 1.242 0 .48-.096.906-.288 1.278-.192.36-.456.66-.792.9s-.738.42-1.206.54a5.86 5.86 0 01-1.494.18z" fill="#fff"/></svg>