<svg width="19" height="16" fill="none" xmlns="http://www.w3.org/2000/svg"><path opacity=".25" d="M18.286 13.714A2.288 2.288 0 0116 16H2.286A2.288 2.288 0 010 13.714V2.286A2.288 2.288 0 012.286 0h4.571c.718 0 1.397.34 1.829.914l.685.915c.215.289.554.457.915.457H16a2.288 2.288 0 012.286 2.285v9.143zm-10-1.428c0 .475.382.857.857.857a.855.855 0 00.857-.857V10h2.286a.855.855 0 00.857-.857.855.855 0 00-.857-.857H10V6a.855.855 0 00-.857-.857.855.855 0 00-.857.857v2.286H6a.855.855 0 00-.857.857c0 .475.382.857.857.857h2.286v2.286z" fill="#08233B"/></svg>