<svg width="70" height="70" fill="none" xmlns="http://www.w3.org/2000/svg"><path d="M44.31 60.934c3.265 0 6.045-3.098 6.045-6.045v-13.6c0-4.986-9.867-7.555-15.111-7.555s-15.111 2.569-15.111 7.555v13.6c0 2.947 2.78 6.045 6.044 6.045" stroke="#20AC2E" stroke-width="3" stroke-linejoin="round"/><path d="M62.444 63.956c2.946 0 6.044-1.587 6.044-4.533v-13.6c0-4.987-8.87-7.556-13.6-7.556-.468 0-.982.03-1.511.076" stroke="#08233B" stroke-width="3" stroke-linejoin="round"/><path d="M35.244 29.2c3.52 0 6.044-2.22 6.044-5.44v-2.72c0-3.218-2.523-5.44-6.044-5.44-3.521 0-6.045 2.222-6.045 5.44v2.72c0 3.22 2.524 5.44 6.045 5.44z" stroke="#20AC2E" stroke-width="3" stroke-linejoin="round"/><path d="M62.445 70V48.846" stroke="#08233B" stroke-width="3" stroke-linejoin="round"/><path d="M44.31 70V44.313m-18.132-.001V70" stroke="#20AC2E" stroke-width="3" stroke-linejoin="round"/><path d="M56.4 33.734c3.52 0 6.044-2.222 6.044-5.44v-2.72c0-3.219-2.523-5.44-6.044-5.44-3.521 0-6.044 2.221-6.044 5.44v2.72c0 3.218 2.523 5.44 6.044 5.44zM8.044 63.956C5.098 63.956 2 62.369 2 59.423v-13.6c0-4.987 8.87-7.556 13.6-7.556.468 0 .982.03 1.511.076M8.045 70V48.846m6.045-15.112c-3.521 0-6.045-2.222-6.045-5.44v-2.72c0-3.219 2.524-5.44 6.044-5.44 3.521 0 6.045 2.221 6.045 5.44v2.72c0 3.218-2.524 5.44-6.045 5.44zM21.644 15.6c-3.52 0-6.044-2.22-6.044-5.44V7.44C15.6 4.222 18.123 2 21.644 2c3.52 0 6.045 2.222 6.045 5.44v2.72c0 3.22-2.524 5.44-6.045 5.44zm27.201 0c-3.52 0-6.044-2.22-6.044-5.44V7.44C42.8 4.222 45.324 2 48.845 2c3.521 0 6.045 2.222 6.045 5.44v2.72c0 3.22-2.524 5.44-6.045 5.44z" stroke="#08233B" stroke-width="3" stroke-linejoin="round"/></svg>