<svg width="436" height="443" fill="none" xmlns="http://www.w3.org/2000/svg"><path opacity=".1" fill-rule="evenodd" clip-rule="evenodd" d="M42.24 144.198v-.23a162.84 162.84 0 0138.627-47.38l.021-57.14 49.536 28.62a161.653 161.653 0 0160.368-9.637L96.994 4.29A37.89 37.89 0 0080.953.805C59.568.772 42.25 18.106 42.217 39.49l.023 104.477-.109.201.109.029zm148.617 240.736l-.252.145c-15.805.353-31.529-1.51-46.718-5.58a167.916 167.916 0 01-13.455-4.245l-49.517 28.589-.019-57.209c-14.129-11.925-26.417-26.38-36.185-43.298l-2.422-4.195.03 108.371a38.528 38.528 0 004.994 15.64c10.681 18.5 34.33 24.837 52.83 14.155l90.462-52.228.331-.007-.079-.138zm224.901-196.695l-90.638-52.323-.069-.119-.069.04.138.079 2.353 4.076c9.768 16.919 16.221 34.926 19.415 53.164l49.496 28.552-49.586 28.628c-.758 4.564-1.801 9.11-2.993 13.558-4.03 15.256-10.298 29.97-18.699 43.532l93.808-54.16c4.37-3.073 8.144-7.178 11.047-12.155 10.664-18.536 4.333-42.208-14.203-52.872zm-258.236-16.058c21.458-12.388 47.545-9.293 65.461 5.855l61.209-35.339c9.216-5.32 21.109-2.192 26.469 7.093 39.707 68.774 16.134 156.752-52.641 196.459-53.85 31.091-119.388 23.355-164.384-14.398-1.948-1.626-2.904-3.917-2.67-6.528.275-2.543 1.537-4.647 3.806-5.957l19.807-11.436c3.92-2.263 8.452-2.037 12.197.478 9.87 6.772 20.806 11.737 32.197 14.79 20.069 5.377 41.668 4.828 62.085-2.375l-24.778-42.915c-16.682 3.029-34.039-1.622-46.972-12.586L88.03 300.7c-9.216 5.321-21.109 2.193-26.47-7.092-39.706-68.774-16.132-156.753 52.642-196.46 53.85-31.09 119.457-23.394 164.384 14.398 1.948 1.627 2.904 3.918 2.669 6.529-.274 2.543-1.535 4.646-3.805 5.957l-19.807 11.435c-3.92 2.264-8.452 2.038-12.196-.477-9.871-6.773-20.807-11.738-32.198-14.79-25.927-6.947-54.607-4.051-79.779 10.481-25.171 14.533-41.99 37.815-48.966 63.85-5.378 20.069-4.828 41.668 2.374 62.085l42.916-24.777c-4.122-23.021 6.202-47.229 27.659-59.618l.069-.04zm18.901 32.737c9.284-5.361 21.109-2.192 26.469 7.092 5.36 9.285 2.192 21.109-7.092 26.47-9.285 5.36-21.109 2.192-26.47-7.093-5.36-9.284-2.192-21.109 7.093-26.469zm78.088 96.499c16.446-14.08 27.721-32.511 33.099-52.58 5.377-20.069 4.828-41.668-2.375-62.085l-42.915 24.777c3.029 16.683-1.621 34.04-12.586 46.973l24.777 42.915zm63.26 35.553c-4.393-4.433-11.544-4.431-15.977-.038l-.138.08c-5.139 5.076-10.476 9.808-16.12 14.167a170.258 170.258 0 01-17.963 11.93 170.198 170.198 0 01-19.313 9.591c-6.558 2.777-13.325 5.034-20.33 6.877-6.021 1.643-9.598 7.835-7.956 13.856 1.642 6.021 7.834 9.598 13.855 7.956 7.704-2.063 15.444-4.698 23.152-7.865a181.569 181.569 0 0022.017-10.786 181.686 181.686 0 0020.348-13.673c6.666-5.133 12.749-10.479 18.388-16.118 4.433-4.394 4.43-11.545.037-15.977zM228.079 63.772a11.121 11.121 0 01-7.941-13.755 11.12 11.12 0 0113.754-7.942 190.514 190.514 0 0123.242 7.856c7.332 3.01 14.667 6.662 21.965 10.885 7.19 4.194 14.046 8.763 20.421 13.61a181.173 181.173 0 0118.403 16.152 11.212 11.212 0 01-.077 15.908 11.213 11.213 0 01-15.908-.077 157.195 157.195 0 00-16.148-14.152 156.31 156.31 0 00-17.942-12.016c-6.192-3.577-12.717-6.78-19.358-9.547-6.71-2.728-13.468-5.062-20.303-6.893l-.108-.03zM20.457 278c5.952-1.603 9.53-7.795 7.887-13.816l.03-.108c-1.805-6.936-3.254-13.894-4.182-21.061a156.34 156.34 0 01-1.436-21.546c-.002-7.151.419-14.363 1.411-21.538a162.906 162.906 0 014.182-21.029c1.598-5.967-1.936-12.088-7.942-13.755-5.966-1.599-12.087 1.935-13.755 7.941-2.161 7.851-3.74 15.915-4.818 24.056C.776 204.999.271 213.177.28 221.609c-.032 8.363.526 16.477 1.576 24.49 1.101 8.26 2.683 16.241 4.786 24.013 1.603 5.953 7.863 9.49 13.816 7.888z" fill="#fff"/></svg>