<svg width="83" height="60" fill="none" xmlns="http://www.w3.org/2000/svg"><path d="M2 46.286h78.94v5.143a6.859 6.859 0 01-6.864 6.857H8.864A6.859 6.859 0 012 51.43v-5.143z" stroke="#08233B" stroke-width="3" stroke-linejoin="round"/><path d="M36.322 51.43H46.62" stroke="#20AC2E" stroke-width="3" stroke-linejoin="round"/><path d="M10.58 1.715h61.78a3.44 3.44 0 013.433 3.428v41.143H7.148V5.143a3.44 3.44 0 013.433-3.428z" stroke="#08233B" stroke-width="3" stroke-linejoin="round"/><path d="M68.928 41.143v-6.857h-5.766a21.738 21.738 0 00-2.712-6.531l4.085-4.08-7.277-7.269-4.084 4.08c-1.99-1.234-4.822-2.16-6.538-2.708v-5.76H36.339v5.76a21.787 21.787 0 00-6.538 2.708l-4.085-4.08-7.276 7.269 4.084 4.08a21.92 21.92 0 00-2.711 6.531h-5.766v6.857" stroke="#08233B" stroke-width="3" stroke-linejoin="round"/><path d="M55.2 41.143c0-7.577-6.144-13.714-13.729-13.714-7.585 0-13.729 6.137-13.729 13.714" stroke="#20AC2E" stroke-width="3" stroke-linejoin="round"/></svg>