<svg width="66" height="69" fill="none" xmlns="http://www.w3.org/2000/svg"><path d="M24.608 64.75v-2.833c0-1.218-3.999-4.689-4.988-6.247-.608-.964-4.903-13.26-4.903-13.26 0-1.374 3.462-3.117 5.723 0l3.688 5.737 1.893-1.813V26.5a2.838 2.838 0 012.826-2.833 2.838 2.838 0 012.826 2.833v17V35H34.5c.89 0 2.29.567 2.826 1.417h2.827c1.328 0 2.826 1.247 2.826 2.834h2.826c1.328 0 2.826 1.246 2.826 2.833V56.25c0 2.862-2.826 5.171-2.826 7.084v1.416m-8.479-28.333v7.084m5.652-4.251v5.667M48.631 69v-4.25H21.783V69" stroke="#08233B" stroke-width="3" stroke-miterlimit="10"/><path d="M21.514 30.779a8.456 8.456 0 01-1.145-4.279c0-4.689 3.801-8.5 8.478-8.5 4.678 0 8.479 3.811 8.479 8.5a8.545 8.545 0 01-1.23 4.42" stroke="#20AC2E" stroke-width="3" stroke-miterlimit="10"/><path d="M14.717 50.584H2V2.417h62.174v48.167H51.456M2 10.917h62.174" stroke="#08233B" stroke-width="3" stroke-miterlimit="10"/><path d="M6.238 6.667h2.826m1.415 0h2.826" stroke="#20AC2E" stroke-width="3" stroke-miterlimit="10"/></svg>