<svg width="460" height="426" fill="none" xmlns="http://www.w3.org/2000/svg"><g opacity=".03" fill="#fff"><path fill-rule="evenodd" clip-rule="evenodd" d="M201.596 407.009l-95.957 55.493c-19.57 11.317-44.586 4.603-55.885-14.999a40.87 40.87 0 01-5.283-16.571l-.031-114.826 2.562 4.445c10.332 17.926 23.331 33.242 38.277 45.877l.02 60.617 52.38-30.292c4.654 1.68 9.412 3.204 14.232 4.497 16.18 4.343 32.933 6.314 49.769 5.905l-.084-.146zM44.387 151.935l-.024-110.944C44.398 18.333 62.717-.034 85.338.001a40.024 40.024 0 0116.969 3.691l99.221 57.367a170.742 170.742 0 00-63.858 10.21l-52.4-30.325-.023 60.545a172.48 172.48 0 00-40.975 50.415l.115.031zm299.088-8.858l96.024 55.524c19.608 11.299 26.305 36.38 15.024 56.02-3.071 5.274-7.063 9.623-11.685 12.879l-99.232 57.386c8.887-14.369 15.517-29.96 19.78-46.125 1.261-4.713 2.365-9.529 3.166-14.365l52.453-30.334-52.357-30.252c-3.379-19.324-10.205-38.404-20.538-56.33l-2.562-4.445-.073.042z"/><path fill-rule="evenodd" clip-rule="evenodd" d="M166.334 181.584c22.698-13.126 50.294-9.847 69.245 6.204l64.748-37.444c9.749-5.637 22.329-2.322 28 7.515 42.002 72.871 17.066 166.089-55.685 208.161-56.963 32.942-126.29 24.745-173.888-15.255-2.06-1.724-3.071-4.151-2.823-6.918.29-2.694 1.625-4.923 4.025-6.311l20.952-12.117c4.147-2.398 8.941-2.159 12.902.506 10.441 7.176 22.01 12.437 34.059 15.67 21.229 5.698 44.077 5.116 65.674-2.516l-26.21-45.471c-17.647 3.21-36.007-1.718-49.688-13.336l-64.82 37.486c-9.749 5.638-22.33 2.323-28-7.515-42.002-72.87-17.066-166.088 55.685-208.16 56.963-32.942 126.363-24.788 173.887 15.255 2.061 1.724 3.072 4.151 2.824 6.918-.291 2.694-1.625 4.923-4.026 6.311l-20.952 12.117c-4.146 2.398-8.94 2.158-12.901-.506-10.441-7.176-22.01-12.437-34.059-15.671-27.426-7.361-57.764-4.293-84.391 11.106-26.627 15.398-44.418 40.067-51.797 67.653-5.689 21.264-5.108 44.15 2.511 65.782l45.397-26.252c-4.36-24.393 6.56-50.043 29.258-63.169l.073-.043zm19.993 34.687c9.822-5.68 22.33-2.323 28 7.515 5.67 9.837 2.319 22.366-7.502 28.046-9.822 5.68-22.33 2.322-28-7.515-5.67-9.838-2.319-22.366 7.502-28.046zm82.603 102.247c17.397-14.919 29.324-34.448 35.012-55.712 5.689-21.264 5.108-44.15-2.511-65.783l-45.397 26.253c3.205 17.676-1.715 36.067-13.313 49.77l26.209 45.472z"/><path d="M318.946 356.149c4.689-4.655 12.253-4.657 16.901.039 4.647 4.697 4.649 12.274-.04 16.929-5.965 5.976-12.4 11.64-19.45 17.078a192.205 192.205 0 01-21.525 14.488 192.006 192.006 0 01-23.289 11.428c-8.154 3.356-16.342 6.147-24.491 8.334-6.369 1.74-12.919-2.051-14.656-8.431-1.738-6.379 2.047-12.94 8.416-14.68 7.41-1.953 14.568-4.344 21.505-7.287a179.865 179.865 0 0020.429-10.163 179.794 179.794 0 0019.002-12.64c5.97-4.619 11.616-9.633 17.052-15.011l.146-.084zM240.969 66.717c-6.384-1.652-10.164-8.21-8.4-14.574 1.649-6.395 8.197-10.181 14.55-8.414a201.408 201.408 0 0124.586 8.323c7.756 3.19 15.515 7.06 23.235 11.533 7.605 4.444 14.857 9.286 21.601 14.422a191.853 191.853 0 0119.467 17.113 11.895 11.895 0 01-.081 16.856 11.847 11.847 0 01-16.828-.082 166.44 166.44 0 00-17.082-14.995 165.368 165.368 0 00-18.979-12.731c-6.55-3.79-13.452-7.183-20.478-10.116-7.098-2.89-14.246-5.364-21.476-7.304l-.115-.03zM29.69 279.069c1.737 6.38-2.048 12.941-8.344 14.639-6.296 1.698-12.92-2.051-14.614-8.358-2.225-8.235-3.899-16.692-5.063-25.443-1.11-8.491-1.701-17.088-1.668-25.949-.008-8.934.526-17.599 1.646-25.922 1.14-8.626 2.81-17.171 5.097-25.489 1.763-6.363 8.238-10.108 14.55-8.414 6.353 1.767 10.091 8.252 8.4 14.574a172.88 172.88 0 00-4.423 22.282c-1.05 7.602-1.495 15.244-1.493 22.821a165.915 165.915 0 001.519 22.829c.982 7.594 2.515 14.966 4.423 22.315l-.03.115z"/></g></svg>