<svg width="460" height="427" fill="none" xmlns="http://www.w3.org/2000/svg"><g opacity=".03" fill="#fff"><path fill-rule="evenodd" clip-rule="evenodd" d="M201.596 366.01l-95.957 55.492c-19.57 11.318-44.586 4.604-55.885-14.999a40.865 40.865 0 01-5.283-16.571l-.031-114.826 2.562 4.445c10.332 17.927 23.331 33.242 38.277 45.877l.02 60.617 52.38-30.292a177.296 177.296 0 0014.232 4.498c16.18 4.342 32.933 6.313 49.769 5.904l-.084-.145zM44.387 110.935L44.363-.008C44.398-22.667 62.717-41.034 85.338-41a40.023 40.023 0 0116.969 3.692l99.221 57.367a170.742 170.742 0 00-63.858 10.21L85.27-.055l-.023 60.544a172.492 172.492 0 00-40.975 50.415l.115.031zm299.088-8.858l96.024 55.524c19.608 11.299 26.305 36.38 15.024 56.021-3.071 5.274-7.063 9.623-11.685 12.879l-99.232 57.386c8.887-14.37 15.517-29.961 19.78-46.125 1.261-4.713 2.365-9.529 3.166-14.365l52.453-30.334-52.357-30.253c-3.379-19.324-10.205-38.403-20.538-56.33l-2.562-4.445-.073.042z"/><path fill-rule="evenodd" clip-rule="evenodd" d="M166.334 140.585c22.698-13.126 50.294-9.847 69.245 6.204l64.748-37.444c9.749-5.638 22.329-2.323 28 7.515 42.002 72.87 17.066 166.089-55.685 208.16-56.963 32.943-126.29 24.746-173.888-15.255-2.06-1.723-3.071-4.151-2.823-6.917.29-2.694 1.625-4.923 4.025-6.312l20.952-12.117c4.147-2.398 8.941-2.158 12.902.507 10.441 7.175 22.01 12.436 34.059 15.67 21.229 5.698 44.077 5.116 65.674-2.516l-26.21-45.471c-17.647 3.209-36.007-1.718-49.688-13.336l-64.82 37.486c-9.749 5.638-22.33 2.322-28-7.515-42.002-72.871-17.066-166.089 55.685-208.16 56.963-32.943 126.363-24.788 173.887 15.255 2.061 1.723 3.072 4.15 2.824 6.917-.291 2.694-1.625 4.923-4.026 6.311l-20.952 12.117c-4.146 2.398-8.94 2.159-12.901-.506-10.441-7.176-22.01-12.436-34.059-15.67-27.426-7.361-57.764-4.293-84.391 11.105-26.627 15.399-44.418 40.067-51.797 67.653-5.689 21.265-5.108 44.15 2.511 65.783l45.397-26.253c-4.36-24.392 6.56-50.043 29.258-63.169l.073-.042zm19.993 34.686c9.822-5.679 22.33-2.322 28 7.515 5.67 9.838 2.319 22.367-7.502 28.046-9.822 5.68-22.33 2.323-28-7.515-5.67-9.837-2.319-22.366 7.502-28.046zm82.603 102.247c17.397-14.919 29.324-34.447 35.012-55.711 5.689-21.265 5.108-44.15-2.511-65.783l-45.397 26.253c3.205 17.676-1.715 36.067-13.313 49.77l26.209 45.471z"/><path d="M318.946 315.149c4.689-4.655 12.253-4.657 16.901.04 4.647 4.697 4.649 12.274-.04 16.929-5.965 5.975-12.4 11.64-19.45 17.077a192.214 192.214 0 01-21.525 14.489 192.153 192.153 0 01-23.289 11.428c-8.154 3.355-16.342 6.147-24.491 8.333-6.369 1.74-12.919-2.05-14.656-8.43-1.738-6.38 2.047-12.94 8.416-14.68 7.41-1.954 14.568-4.345 21.505-7.287a179.865 179.865 0 0020.429-10.163 180.103 180.103 0 0019.002-12.64c5.97-4.619 11.616-9.633 17.052-15.012l.146-.084zM240.969 25.718c-6.384-1.652-10.164-8.21-8.4-14.575 1.649-6.394 8.197-10.18 14.55-8.414a201.4 201.4 0 0124.586 8.323c7.756 3.19 15.515 7.06 23.235 11.534 7.605 4.443 14.857 9.285 21.601 14.421a191.865 191.865 0 0119.467 17.113 11.895 11.895 0 01-.081 16.856 11.847 11.847 0 01-16.828-.081A166.442 166.442 0 00302.017 55.9a165.368 165.368 0 00-18.979-12.732c-6.55-3.79-13.452-7.183-20.478-10.116-7.098-2.89-14.246-5.363-21.476-7.304l-.115-.03zM29.69 238.07c1.737 6.379-2.048 12.94-8.344 14.638-6.296 1.698-12.92-2.05-14.614-8.357-2.225-8.235-3.899-16.692-5.063-25.443C.56 210.417-.032 201.82.001 192.959c-.008-8.934.526-17.599 1.646-25.922 1.14-8.626 2.81-17.171 5.097-25.489 1.763-6.364 8.238-10.108 14.55-8.414 6.353 1.766 10.091 8.252 8.4 14.574a172.865 172.865 0 00-4.423 22.281c-1.05 7.603-1.495 15.245-1.493 22.822-.028 7.692.506 15.35 1.519 22.829.982 7.593 2.515 14.966 4.423 22.315l-.03.115z"/></g></svg>