<svg width="147" height="55" fill="none" xmlns="http://www.w3.org/2000/svg"><path fill-rule="evenodd" clip-rule="evenodd" d="M18.06 49.466H4.87a4.87 4.87 0 01-4.43-6.89l6.82-11.82v.61c0 2.46.43 4.81 1.22 7l-3.6 6.24h7.2c.38.45.78.89 1.2 1.31 1.41 1.41 3.02 2.61 4.78 3.57v-.02z" fill="#E52329"/><path fill-rule="evenodd" clip-rule="evenodd" d="M17.01 13.856l6.59-11.42a4.874 4.874 0 016.66-1.78c.63.36 1.14.84 1.53 1.39l6.82 11.81a20.356 20.356 0 00-7.19-2.75l-3.6-6.24-3.6 6.23c-2.61.46-5.05 1.41-7.22 2.75l.01.01z" fill="#F9AE00"/><path fill-rule="evenodd" clip-rule="evenodd" d="M48.37 30.746l6.6 11.43a4.874 4.874 0 01-3.75 7.29H37.58c1.77-.95 3.38-2.16 4.78-3.57.41-.41.81-.84 1.18-1.29h7.21l-3.6-6.23c.8-2.19 1.23-4.56 1.23-7.02v-.61h-.01z" fill="#20AC2E"/><path fill-rule="evenodd" clip-rule="evenodd" d="M27.82 24.166a7.19 7.19 0 016.77 4.76h8.9c1.34 0 2.44 1.09 2.44 2.44 0 10-8.11 18.11-18.11 18.11-7.83 0-14.49-4.97-17.02-11.92a.93.93 0 01.12-.88.95.95 0 01.79-.41h2.88c.57 0 1.05.31 1.3.82.65 1.36 1.53 2.59 2.58 3.64 1.85 1.85 4.24 3.15 6.92 3.65v-6.24a7.193 7.193 0 01-4.33-4.33h-8.91c-1.34 0-2.44-1.09-2.44-2.44 0-10 8.11-18.11 18.11-18.11 7.83 0 14.5 4.97 17.02 11.92.11.3.07.61-.12.88a.95.95 0 01-.79.41h-2.88c-.57 0-1.05-.31-1.3-.82-.65-1.36-1.53-2.59-2.58-3.64-2.39-2.39-5.7-3.88-9.36-3.88-3.66 0-6.96 1.48-9.36 3.88a13.198 13.198 0 00-3.65 6.92h6.24c1-2.77 3.65-4.76 6.77-4.76h.01zm0 4.76c1.35 0 2.44 1.09 2.44 2.44 0 1.35-1.09 2.44-2.44 2.44-1.35 0-2.44-1.09-2.44-2.44 0-1.35 1.09-2.44 2.44-2.44zm2.44 15.44c2.68-.5 5.07-1.8 6.92-3.65 1.85-1.85 3.15-4.24 3.65-6.92h-6.24a7.193 7.193 0 01-4.33 4.33v6.24z" fill="#08233B"/><path d="M33.18 51.216a1.422 1.422 0 11.73 2.75c-.97.26-1.97.46-3.02.6-1.03.14-2.06.21-3.08.21s-2.05-.07-3.08-.21c-1.04-.14-2.05-.34-3.02-.6a1.422 1.422 0 11.73-2.75c.88.24 1.76.42 2.65.53.86.11 1.77.17 2.71.17s1.85-.06 2.71-.17c.89-.12 1.77-.3 2.65-.53h.02zm9.16-34.43a1.4 1.4 0 010-2 1.4 1.4 0 012 0 22.935 22.935 0 013.75 4.89c.52.91.98 1.84 1.37 2.77.4.96.73 1.94.99 2.92.2.76-.25 1.53-1.01 1.73-.76.2-1.53-.25-1.73-1.01-.23-.87-.52-1.72-.87-2.56-.34-.83-.74-1.65-1.2-2.44-.45-.78-.96-1.54-1.51-2.26-.56-.72-1.15-1.4-1.78-2.03l-.01-.01zm-34.4 9.28c-.2.76-.98 1.21-1.73 1.01-.75-.2-1.21-.98-1.01-1.73a23.359 23.359 0 012.36-5.69c.53-.92 1.1-1.78 1.71-2.57.63-.82 1.31-1.6 2.04-2.32.56-.55 1.45-.55 2 0 .55.56.55 1.45 0 2-.63.63-1.22 1.3-1.78 2.03-.56.72-1.06 1.48-1.51 2.26-.46.79-.86 1.61-1.2 2.44-.35.84-.63 1.69-.87 2.56l-.01.01zm63.13 13.18c.87.06 2.04-.17 2.04-1.24 0-2.26-6.67-.8-6.67-5.35 0-3.65 3.51-4.56 6.51-4.29.47.04.93.13 1.39.25.46.13.85.31 1.18.56.33.25.49.57.49.98 0 .72-.47 1.73-1.3 1.73-.4 0-.74-.23-1.08-.4-1.03-.5-3.9-.78-3.9.86 0 2.45 6.67.58 6.67 5.36 0 3.13-2.33 4.49-5.26 4.49-1.51 0-3.67-.48-4.67-1.71-.27-.33-.4-.67-.4-1.02 0-.18.04-.38.12-.58.08-.2.18-.39.31-.57.13-.18.28-.32.45-.44a.98.98 0 01.56-.18c.25 0 .49.08.7.24.96.71 1.78 1.24 2.87 1.32l-.01-.01zm69.69 0c.87.06 2.04-.17 2.04-1.24 0-2.26-6.67-.8-6.67-5.35 0-3.65 3.51-4.56 6.51-4.29.47.04.93.13 1.39.25.46.13.85.31 1.18.56.33.25.49.57.49.98 0 .72-.47 1.73-1.3 1.73-.4 0-.74-.23-1.08-.4-1.03-.5-3.9-.78-3.9.86 0 2.45 6.67.58 6.67 5.36 0 3.13-2.33 4.49-5.26 4.49-1.51 0-3.67-.48-4.67-1.71-.27-.33-.4-.67-.4-1.02 0-.18.04-.38.12-.58.08-.2.18-.39.31-.57.13-.18.28-.32.45-.44a.98.98 0 01.56-.18c.25 0 .49.08.7.24.96.71 1.78 1.24 2.87 1.32l-.01-.01zm-56.08-6.07c0-.14-.01-.32-.04-.53-.03-.21-.1-.42-.23-.62s-.31-.38-.56-.53c-.25-.15-.59-.22-1.04-.22-.6 0-1.07.17-1.4.52-.33.34-.49.87-.49 1.59v3.75c0 .72.16 1.25.49 1.59.33.34.8.52 1.42.52.42 0 .75-.07.99-.21.24-.14.42-.32.55-.53.13-.21.21-.44.24-.68.04-.25.06-.47.07-.68.03-.39.2-.66.52-.79s.68-.2 1.1-.2c.58 0 1 .1 1.26.31.27.2.4.62.4 1.25 0 .7-.13 1.33-.4 1.87a3.86 3.86 0 01-1.12 1.38c-.48.37-1.03.66-1.67.85-.64.2-1.34.29-2.09.29-.69 0-1.34-.09-1.95-.26-.61-.18-1.15-.46-1.61-.86-.46-.4-.83-.91-1.09-1.54-.27-.62-.4-1.39-.4-2.3v-3.75c0-.9.13-1.66.4-2.29.27-.63.63-1.15 1.09-1.55.46-.4 1-.69 1.61-.86.61-.18 1.26-.26 1.95-.26.76 0 1.46.09 2.09.27.64.18 1.2.45 1.67.81.48.36.85.8 1.12 1.32.27.52.4 1.12.4 1.79 0 .63-.13 1.05-.4 1.25-.27.2-.68.3-1.24.3-.45 0-.83-.07-1.14-.21-.31-.14-.48-.4-.51-.78l.01-.01zm12.21 3H92.7v4.79c0 .34-.17.59-.52.76-.34.17-.72.25-1.13.25-.41 0-.78-.08-1.13-.25-.34-.17-.52.04-.52-.29v-12.03c0-.35.17-.6.52-.76.34-.15.72-.23 1.13-.23.41 0 .78.08 1.13.23.34.15.52.41.52.76v4.24h4.19v-4.24c0-.35.17-.6.52-.76.34-.15.72-.23 1.13-.23.41 0 .78.08 1.13.23.34.15.52.41.52.76v11.56c0 .34-.17.59-.52.76-.34.17-.72.25-1.13.25-.41 0-.78-.08-1.13-.25-.34-.17-.52-.42-.52-.76v-4.79zm10.33 5.93c-.73 0-1.41-.09-2.03-.26-.62-.18-1.17-.46-1.63-.86-.46-.4-.83-.91-1.09-1.54-.27-.62-.4-1.39-.4-2.3v-3.75c0-.9.13-1.66.4-2.29.27-.63.63-1.15 1.09-1.55.46-.4 1.01-.69 1.63-.86.62-.18 1.3-.26 2.03-.26.73 0 1.41.09 2.04.26.63.18 1.18.46 1.64.86.46.4.83.92 1.09 1.55.26.63.4 1.4.4 2.29v3.75c0 .91-.13 1.68-.4 2.3-.27.62-.63 1.14-1.09 1.54-.46.4-1.01.69-1.64.86-.63.18-1.31.26-2.04.26zm1.89-8.72c0-.73-.17-1.26-.51-1.6-.34-.34-.8-.51-1.39-.51-.59 0-1.05.17-1.38.51-.33.34-.49.87-.49 1.6v3.75c0 .73.17 1.26.49 1.6.33.34.79.51 1.38.51.59 0 1.05-.17 1.39-.51.34-.34.51-.87.51-1.6v-3.75zm10.16 8.72c-.73 0-1.41-.09-2.03-.26-.62-.18-1.17-.46-1.63-.86-.46-.4-.83-.91-1.09-1.54-.27-.62-.4-1.39-.4-2.3v-3.75c0-.9.13-1.66.4-2.29.27-.63.63-1.15 1.09-1.55.46-.4 1.01-.69 1.63-.86.62-.18 1.3-.26 2.03-.26.73 0 1.41.09 2.04.26.63.18 1.18.46 1.64.86.46.4.83.92 1.09 1.55.27.63.4 1.4.4 2.29v3.75c0 .91-.13 1.68-.4 2.3-.27.62-.63 1.14-1.09 1.54-.46.4-1.01.69-1.64.86-.63.18-1.31.26-2.04.26zm1.89-8.72c0-.73-.17-1.26-.51-1.6-.34-.34-.8-.51-1.39-.51-.59 0-1.05.17-1.38.51-.33.34-.49.87-.49 1.6v3.75c0 .73.16 1.26.49 1.6.33.34.79.51 1.38.51.59 0 1.05-.17 1.39-.51.34-.34.51-.87.51-1.6v-3.75zm6.61 8.59c-.36 0-.69-.08-.99-.25a.828.828 0 01-.44-.76v-11.56c0-.35.17-.6.52-.76.34-.15.72-.23 1.13-.23.41 0 .78.08 1.13.23.34.15.52.41.52.76v9.71h4.8c.32 0 .56.15.72.44.15.29.23.62.23.99s-.08.69-.23.99a.76.76 0 01-.72.44h-6.67zm-62.2-31.14c.73 0 1.41.09 2.04.26.63.18 1.18.46 1.64.86.46.4.83.92 1.09 1.55.27.63.4 1.4.4 2.29v3.63c0 .91-.13 1.68-.4 2.3-.27.62-.63 1.14-1.09 1.54-.46.4-1.01.69-1.64.86-.63.18-1.31.26-2.04.26h-3.72c-.43 0-.78-.1-1.04-.29-.26-.2-.39-.43-.39-.69v-11.58c0-.27.13-.5.39-.69.26-.2.61-.29 1.04-.29h3.72v-.01zm-1.87 2.86v7.84h1.87c.59 0 1.05-.17 1.39-.52.34-.34.51-.87.51-1.59v-3.63c0-.72-.17-1.25-.51-1.59-.34-.34-.8-.52-1.39-.52H63.7v.01zm9.76-1.87c0-.27.09-.5.27-.69.18-.2.43-.29.74-.29h4.36c.72 0 1.39.07 2.02.22.63.15 1.18.4 1.65.75s.84.81 1.1 1.39c.63 1.36.53 3.27-.33 4.51-.48.69-1.09 1.18-1.82 1.46l2.57 3.27c.08.1.11.24.11.38 0 .21-.06.42-.19.62s-.29.39-.48.55c-.2.16-.42.29-.66.39-.25.1-.49.15-.73.15-.21 0-.41-.05-.6-.14-.19-.09-.31-.27-.45-.47l-2.88-4.22h-1.39v3.69c0 .34-.17.59-.52.76-.34.17-.72.25-1.13.25-.41 0-.78-.08-1.13-.25-.34-.17-.52-.42-.52-.76v-11.56l.01-.01zm3.28 1.87v3.47h2.08c.59 0 1.05-.14 1.39-.42.69-.57.69-2.05 0-2.63-.34-.28-.8-.42-1.39-.42h-2.08zm9.64-1.87c0-.35.17-.6.52-.76.34-.15.72-.23 1.13-.23.41 0 .78.08 1.13.23.34.15.52.41.52.76v11.56c0 .34-.17.59-.52.76-.34.17-.72.25-1.13.25-.41 0-.78-.08-1.13-.25-.34-.17-.52-.42-.52-.76v-11.56zm5.18.59c-.04-.11-.04-.19-.04-.23 0-.2.07-.38.2-.54.13-.16.31-.3.52-.42.21-.12.44-.21.68-.28.25-.07.48-.11.7-.11.27 0 .49.05.68.14.19.09.32.25.39.47l2.95 8.97 2.92-8.97c.07-.22.2-.38.39-.47.19-.09.42-.14.68-.14.22 0 .46.04.7.11.25.07.47.17.68.28.21.12.38.26.52.42.13.16.2.34.2.54 0 .04 0 .12-.04.23l-3.91 11.01c-.13.36-.38.64-.79.82-.41.18-.87.27-1.36.27-.49 0-.94-.09-1.36-.27-.41-.18-.66-.46-.79-.82l-3.94-11.01h.02zm17.32 3.93h3.16c.32 0 .57.13.74.39.17.26.25.56.25.89 0 .28-.08.56-.23.83-.15.27-.41.41-.76.41h-3.16v2.67h5.64c.32 0 .57.14.74.43.17.29.25.63.25 1.02 0 .34-.08.66-.23.96-.15.3-.41.45-.76.45h-7.49c-.36 0-.69-.08-.99-.25a.828.828 0 01-.44-.76v-11.54c0-.34.15-.59.44-.76.29-.17.62-.25.99-.25h7.49c.35 0 .6.15.76.45.15.3.23.62.23.96 0 .39-.08.73-.25 1.02-.17.29-.41.43-.74.43h-5.64v2.65z" fill="#08233B"/></svg>