<svg width="15" height="17" fill="none" xmlns="http://www.w3.org/2000/svg"><path d="M7.365 0C6.166 0 5.192.728 5.192 2.767c0 2.04.974 2.767 2.173 2.767 1.2 0 2.173-.728 2.173-2.767C9.538.731 8.564 0 7.365 0zm0 6.185c-.21 0-.422.01-.63.028h1.26a7.47 7.47 0 00-.63-.028zm3.558.886c-.239-.11-.678-.282-1.114-.443-.088-.032-.176-.057-.264-.085l-2.18 2.725-2.18-2.725c-.088.028-.176.053-.263.085-.433.161-.876.334-1.115.443-.577.267-.939.78-.939 1.276V9.99h8.994V8.347c0-.496-.362-1.013-.939-1.276z" fill="#20AC2E"/><path d="M7.488 7.264l.72-1.104H6.522l.72 1.104h.247z" fill="#20AC2E"/><path d="M7.226 6.828l-.815 3.073h1.912l-.819-3.073h-.278zM4.813 16.996h5.039v-3.048H4.813v3.048zM0 11.1v1.498l2.314 2.345V17h1.838v-3.71h6.36V17h1.819v-2.057l2.313-2.345V11.1H0z" fill="#20AC2E"/></svg>