<svg width="20" height="26" fill="none" xmlns="http://www.w3.org/2000/svg"><path d="M1 5.8v-4m0 2.4h1.2a1.2 1.2 0 100-2.4H1m1.2 8.8H1m2.4 1.6l-1.2-1.6a1.2 1.2 0 100-2.4H1v4m0 6.4v-4h.04l2.32 4h.04v-4M1 25v-4h1.2a1.2 1.2 0 011.2 1.2v1.6A1.2 1.2 0 012.2 25H1zm16.003-12.8h-8a1.6 1.6 0 00-1.6 1.6v1.6a1.6 1.6 0 001.6 1.6h8a1.6 1.6 0 001.6-1.6v-1.6a1.6 1.6 0 00-1.6-1.6zm-8 4.8v6.4c0 .884.715 1.6 1.6 1.6h4.8a1.6 1.6 0 001.6-1.6V17m0-4.8V2.6a1.6 1.6 0 00-1.6-1.6h-4.8c-.885 0-1.6.716-1.6 1.6v9.6m3.997 0v-8M13 17v4.8" stroke="#08233B" stroke-linecap="round" stroke-linejoin="round"/></svg>