<svg width="14" height="14" fill="none" xmlns="http://www.w3.org/2000/svg"><path d="M2.585 5.926a4.595 4.595 0 011.097-1.735 4.643 4.643 0 016.567 0l.496.499h-1.46a.928.928 0 100 1.857h3.711a.927.927 0 00.929-.929V1.904a.928.928 0 10-1.857 0V3.39l-.508-.51A6.5 6.5 0 00.836 5.31a.928.928 0 001.75.619v-.003zM.667 8.442a.924.924 0 00-.655.754.848.848 0 00-.012.148v3.703a.927.927 0 101.857 0v-1.483l.51.508a6.5 6.5 0 0010.725-2.429.928.928 0 00-1.75-.618 4.595 4.595 0 01-1.096 1.735 4.643 4.643 0 01-6.567 0l-.003-.003-.496-.496h1.463a.928.928 0 100-1.857H.94c-.046 0-.093.003-.14.009a.684.684 0 00-.133.029z" fill="#08233B"/></svg>