<svg width="499" height="660" fill="none" xmlns="http://www.w3.org/2000/svg"><g filter="url(#filter0_d_74_4505)"><path d="M249.912 125.171a3.697 3.697 0 00-3.329-.894l-1.249.283c-1.966.445-3.756-1.244-3.425-3.232a2.837 2.837 0 00-2.585-3.295l-2.892-.217a5.48 5.48 0 01-3.485-1.608l-7.887-7.953a2.142 2.142 0 01.118-3.125l1.07-.927a3.838 3.838 0 001.203-3.86l-1.557-6.032a.535.535 0 01.233-.587.535.535 0 00-.159-.973l-.79-.19a.882.882 0 01-.495-.326l-5.125-6.8a10.039 10.039 0 00-1.615-1.689l-3.477-2.873a9.993 9.993 0 00-3.114-1.747l-3.729-1.284a2.973 2.973 0 01-1.091-.665l-1.429-1.37a1.704 1.704 0 00-2.788.669 1.705 1.705 0 01-2.699.747l-2.557-2.127a.665.665 0 00-1.062.696l.529 1.82a1.085 1.085 0 01-1.311 1.354l-11.316-2.894a2.189 2.189 0 00-2.688 1.686 2.191 2.191 0 01-.974 1.415l-1.478.937a1.47 1.47 0 01-1.242.156 1.468 1.468 0 00-1.761.725l-.044.085a1.581 1.581 0 01-2.375.527l-2.177-1.688a3.87 3.87 0 00-3.333-.69l-2.053.527c-.32.083-.615.246-.855.474l-.546.519c-.397.377-.452.99-.128 1.43.2.273.262.624.166.949l-.434 1.477a3.202 3.202 0 01-4.561 1.933l-.049-.026a3.087 3.087 0 00-2.666-.097l-1.077.468a1.665 1.665 0 01-2.037-.586l-.232-.338a1.12 1.12 0 00-2.043.633v.217a1.42 1.42 0 01-2.08 1.258l-3.241-1.7a3.634 3.634 0 01-1.739-2.008l-1.413-4.004a1.704 1.704 0 01.906-2.121 1.704 1.704 0 001-1.644l-.153-2.89a3.856 3.856 0 00-.17-.946l-.394-1.259a2.093 2.093 0 00-3.854-.344l-.031.06c-.23.44-.602.79-1.056.993l-3.636 1.623c-.332.148-.586.43-.698.775l-.073.221c-.191.587-.838.89-1.411.66a1.067 1.067 0 00-1.025.13l-.871.635a.879.879 0 01-1.109-.06.88.88 0 00-1.346.2l-.583.977a1.573 1.573 0 01-1.023.732 1.57 1.57 0 00-1.244 1.502l-.023 1.008a2.847 2.847 0 01-1.06 2.153l-.259.207a3.559 3.559 0 01-4.163.217l-.062-.04a3.66 3.66 0 00-5.366 1.667l-.828 1.986a5.476 5.476 0 00-.406 2.488l.167 2.328a5.56 5.56 0 01-6.841 5.804l-5.111-1.223a7.54 7.54 0 00-7.613 2.585l-1.789 2.207a1.331 1.331 0 001.237 2.157l.901-.138a2.133 2.133 0 012.452 2.002l.363 7.231a8.678 8.678 0 01-1.027 4.549l-4.231 7.853a2.036 2.036 0 01-1.492 1.048l-1.884.281a.492.492 0 01-.564-.516.492.492 0 00-.642-.499l-4.596 1.474a3.794 3.794 0 00-2.56 4.363l3.023 14.984 3.106 11.028a.693.693 0 001.355-.116l.452-4.329a2.013 2.013 0 013.143-1.452l6.435 4.419a10.012 10.012 0 012.581 2.58l4.596 6.687c.41.597.888 1.145 1.423 1.632a9.426 9.426 0 011.579 12.076l-.175.272a9.718 9.718 0 00-1.539 5.731l.165 3.442a.408.408 0 00.112.262c.3.319-.041.824-.449.663l-2.766-1.087a1.07 1.07 0 00-.461-.073l-.507.032a3.362 3.362 0 00-3.148 3.268l-.054 2.082a3.586 3.586 0 002.426 3.486 3.58 3.58 0 011.392.873l1.326 1.342a9.994 9.994 0 012.164 3.296l1.174 2.92a10.01 10.01 0 002.977 4.033l1.513 1.228a3.982 3.982 0 011.129 4.717l-1.124 2.522a3.272 3.272 0 001.16 4.046l.989.666c.339.229.773.263 1.143.09a1.163 1.163 0 011.604.711l.015.049a1.209 1.209 0 01-1.385 1.543l-2.922-.568a1.92 1.92 0 00-2.271 2.141l.116.874c.07.524.372.99.822 1.267l.991.611a.976.976 0 01.068 1.615.974.974 0 00-.367 1.021l.187.749a.795.795 0 01-.669.981c-.878.114-.94 1.362-.077 1.562l.227.052c.214.05.439.013.626-.102l1.573-.967a4.65 4.65 0 013.168-.628l.635.102a3.868 3.868 0 013.253 3.713c.022.789.284 1.553.752 2.189l.473.642a6.407 6.407 0 01.728 6.335l-.478 1.111a8.513 8.513 0 01-2.8 3.512l-3.126 2.282a2.821 2.821 0 00-1.154 2.158 2.816 2.816 0 01-1.388 2.312l-.805.474a2.354 2.354 0 01-2.214.09l-.223-.108a1.913 1.913 0 00-1.88.123l-.072.047a1.38 1.38 0 00-.393 1.923l.014.02c.37.555.303 1.292-.16 1.771l-1.341 1.386a.54.54 0 00-.118.56.539.539 0 01-.604.715l-.409-.076a.466.466 0 00-.517.631.465.465 0 01-.247.6l-.26.112a.757.757 0 00-.203 1.26l4.703 4.177a4.765 4.765 0 011.289 1.869l.368.968a8.998 8.998 0 01.546 4.036l-.196 2.073a4.026 4.026 0 01-.593 1.751l-.777 1.243a1.622 1.622 0 01-1.516.756l-.668-.058a1.221 1.221 0 00-1.227 1.7c.125.29.133.617.022.912l-.125.334a2.106 2.106 0 001.03 2.624l2.077 1.039a4.682 4.682 0 012.57 3.758l.135 1.454a3.605 3.605 0 01-1.437 3.225l-.817.608a2.124 2.124 0 01-2.407.09l-.687-.436a1.541 1.541 0 10-1.01 2.832l3.317.399a1.885 1.885 0 011.25 3.045l-3.005 3.779a1.45 1.45 0 01-1.243.542c-1.189-.092-1.962 1.229-1.32 2.234.333.522.963.781 1.566.639l.744-.175a2.537 2.537 0 001.535-1.071l.117-.177a3.07 3.07 0 012.045-1.335l4.377-.75a6.947 6.947 0 016.905 2.924l.411.6c.475.695.743 1.511.772 2.353l.055 1.562a2.356 2.356 0 001.775 2.202l.336.085c.409.104.758.371.966.738l.365.647a.76.76 0 00.998.308c.647-.319 1.332.358 1.022 1.009l-1.569 3.286a2.027 2.027 0 00.072 1.883l.239.415a2.936 2.936 0 001.741 1.357l4.723 1.341c.233.066.479.071.713.013 1.101-.267 2.047.815 1.635 1.87l-.902 2.312a2.69 2.69 0 00.048 2.071l.491 1.107a1.539 1.539 0 01-.854 2.063 1.54 1.54 0 00-.809 2.157l3.434 6.507c.375.71.068 1.589-.668 1.911-.359.157-.635.46-.758.832l-1.029 3.113a5.27 5.27 0 01-1.075 1.857l-.362.404a4.696 4.696 0 00.263 6.538 4.697 4.697 0 01.401 6.377l-1.494 1.828c-.16.195-.263.431-.296.682l-.097.727a.666.666 0 00.608.752c.62.049.84.847.332 1.207l-1.176.835a1.19 1.19 0 00-.215 1.743l3.829 4.48a6.574 6.574 0 011.568 4.625l-.123 2.298a2.357 2.357 0 01-.888 1.718 2.355 2.355 0 00-.643 2.898l1.625 3.25c.23.462.207 1.01-.061 1.451a1.5 1.5 0 00.149 1.766l2.566 2.943c.319.366.386.889.168 1.324a1.2 1.2 0 00.025 1.12l1.804 3.242a3.528 3.528 0 01-1.379 4.805l-4.51 2.49a1.143 1.143 0 00-.004 1.999c.678.377.791 1.305.223 1.834l-3.988 3.717a.72.72 0 00.174 1.173.72.72 0 01.214 1.134l-.638.694a1.01 1.01 0 01-1.261.184 1.01 1.01 0 00-1.325.263l-1.605 2.139a1.42 1.42 0 01-1.6.491 1.421 1.421 0 00-1.809.887l-.063.187c-.175.517-.6.911-1.13 1.047l-4.92 1.259a1.804 1.804 0 00-1.275 1.213 1.802 1.802 0 01-2.784.923l-1.236-.903a1.88 1.88 0 00-2.309.073l-.067.055a1.756 1.756 0 00-.537 1.924 1.75 1.75 0 01-.194 1.543l-.571.863a1.117 1.117 0 01-1.855.013 1.119 1.119 0 00-1.657-.213l-1.525 1.327a.742.742 0 01-.678.155.737.737 0 00-.884.968l2.285 6.12a4.089 4.089 0 01-.097 3.096l-2.002 4.479a3.168 3.168 0 002.852 4.461l.354.004a3.682 3.682 0 013.63 3.898l-.212 3.621a2.046 2.046 0 001.248 2.006l.382.161a1.654 1.654 0 01.841 2.257 1.657 1.657 0 00.538 2.09l.429.3a2.264 2.264 0 01.275 3.488l-.622.599c-.446.43-.747.99-.86 1.599l-.328 1.762a8.57 8.57 0 00.841 5.552l1.997 3.797c.448.851.77 1.762.958 2.704l.856 4.305a6.12 6.12 0 001.84 3.29l1.932 1.789c.269.249.643.349 1.001.268l.043-.009a1.08 1.08 0 01.693 2.035l-2.854 1.323a2.17 2.17 0 00-.444 3.661l1.125.903a6.114 6.114 0 011.456 7.856l-.843 1.443a8.048 8.048 0 01-3.432 3.181l-3.166 1.539a4.008 4.008 0 00-2.213 3.018l-.058.392a3.31 3.31 0 001.171 3.041 3.312 3.312 0 011.189 2.203l.367 3.421a4.574 4.574 0 004.75 4.08l.465-.021a5.441 5.441 0 012.953.718l2.819 1.621a3.15 3.15 0 011.406 3.736 3.102 3.102 0 00-.112 1.547l.339 1.838a.582.582 0 00.511.473.582.582 0 01.384.955l-.588.696a1.064 1.064 0 00.107 1.483l1.892 1.68a3.489 3.489 0 002.932.824l.516-.092a2.263 2.263 0 011.73.397 2.26 2.26 0 003.467-1.091l.169-.492a1.233 1.233 0 012.373.154l.542 2.657c.19.926.767 1.727 1.587 2.197l.318.183c.186.107.386.185.595.231l.082.018a2.05 2.05 0 011.412 2.869l-.119.255c-.156.334-.44.592-.788.715a1.38 1.38 0 00-.563 2.224l2.372 2.629a3.745 3.745 0 003.511 1.165l3.725-.74a1.292 1.292 0 011.333.557c.349.53 1.031.729 1.61.47l3.084-1.38c.32-.143.673-.202 1.022-.169l1.356.127a1.206 1.206 0 001.232-1.649 1.207 1.207 0 01.73-1.589l1.003-.343a2.213 2.213 0 001.255-1.087l3.646-7.133a3.32 3.32 0 011.715-1.568 3.317 3.317 0 002.077-3.17l-.061-2.196a6.482 6.482 0 00-.524-2.376l-.999-2.324a1.544 1.544 0 01-.039-1.121l.152-.434a1.155 1.155 0 011.647-.63c.263.145.573.182.863.102l2.877-.793a5.161 5.161 0 002.834-1.985l.382-.537a3.37 3.37 0 013.68-1.291l1.039.296a7.41 7.41 0 015.208 5.57l.573 2.668c.092.429.287.83.568 1.167l.63.758a1.986 1.986 0 003.322-2.121l-.386-.813a2.25 2.25 0 011.108-3.014l.232-.104c.341-.154.616-.426.774-.765l1.35-2.892a.51.51 0 01.963.114.51.51 0 00.552.406l2.445-.252a3.224 3.224 0 013.519 3.676l-.31 2.109a4.88 4.88 0 004.002 5.521l17.018 2.928a2.439 2.439 0 012.016 2.197l.113 1.319a.742.742 0 001.46.119l2.914-11.552a2.072 2.072 0 011.442-1.487 2.077 2.077 0 001.495-2.195l-.144-1.48a2.176 2.176 0 011.54-2.293 2.174 2.174 0 001.549-2.015l.02-.641a3.07 3.07 0 011.456-2.514l.299-.184a3.716 3.716 0 014.848.839l3.292 4.105a2.79 2.79 0 004.325.034l3.018-3.644a1.31 1.31 0 011.481-.387 1.31 1.31 0 001.488-.394l.81-.995a3.077 3.077 0 014.086-.621l.821.545c.673.446 1.46.687 2.267.694l1.212.01a8.241 8.241 0 014.43 1.335l3.588 2.336a3.092 3.092 0 003.875-.405 3.09 3.09 0 012.214-.906l1.644.015a4.471 4.471 0 002.784-.941 4.47 4.47 0 012.948-.938l5.757.262a3.646 3.646 0 002.523-.861l.356-.301a2.627 2.627 0 012.112-.592 2.63 2.63 0 002.867-1.651l.782-2.028a.915.915 0 01.825-.583.912.912 0 00.881-.818l.426-4.14a1.054 1.054 0 00-.334-.883c-.651-.598-.318-1.684.557-1.815l6.721-1.006a3.175 3.175 0 002.699-3.38l-.064-.853c-.057-.763.16-1.52.612-2.136l2.121-2.887a.622.622 0 011.009.009c.384.544 1.24.184 1.119-.471l-.03-.162a.659.659 0 01.429-.74l1.833-.644c.4-.141.766-.367 1.07-.663l1.152-1.118a10.006 10.006 0 002.978-6.137l.488-4.686c.092-.883.39-1.731.871-2.476l.628-.973c.161-.25.39-.45.659-.577l.158-.075a1.35 1.35 0 011.548.284l.526.545a.875.875 0 001.452-.306l.109-.298a.48.48 0 01.51-.309.478.478 0 00.493-.678l-1.139-2.411a.724.724 0 01.135-.813.723.723 0 00-.409-1.218l-.335-.052a.897.897 0 01-.751-1.026l.455-2.91a3.852 3.852 0 01.583-1.511l8.596-13.097c.197-.3.282-.661.239-1.018l-.183-1.519a.69.69 0 01.989-.703c.36.176.793.01.944-.361l.097-.24a.931.931 0 00-.407-1.162l-.817-.461a2 2 0 01-.962-2.215l.961-3.948c.081-.336.289-.627.58-.813a1.34 1.34 0 00.492-1.699l-.868-1.846a3.661 3.661 0 01-.272-2.298l.408-1.979a3.169 3.169 0 00-1.106-3.1 3.17 3.17 0 01-.876-3.797l2.367-5.084a4.02 4.02 0 00.203-2.856l-.081-.265a3.649 3.649 0 011.53-4.132l1.297-.827a1.615 1.615 0 011.943.155c.7.624 1.782.523 2.354-.22l2.268-2.946a5.072 5.072 0 012.487-1.742l9.115-2.89a1.593 1.593 0 00.848-2.401l-2.945-4.449a1.94 1.94 0 00-1.049-.784l-.445-.136a1.277 1.277 0 01-.902-1.158l-.009-.187a.938.938 0 01.405-.821.941.941 0 00-.083-1.6l-3.437-1.882a.65.65 0 00-.58-.022c-.635.288-1.215-.491-.757-1.017l.382-.44a.734.734 0 00-.466-1.212.734.734 0 01-.593-1.004l.432-1.074c.229-.569.76-.96 1.371-1.011l8.844-.734a9.978 9.978 0 012.548.115l2.17.379a5.658 5.658 0 012.84 1.393l.524.478a2.893 2.893 0 01.78 3.089l-1.931 5.522a9.984 9.984 0 00-.56 3.473l.061 3.529a7.773 7.773 0 00.742 3.183l.873 1.852a3.574 3.574 0 002.441 1.961l.63.143a2.35 2.35 0 011.662 1.423l.246.619a1.533 1.533 0 001.695.943 1.533 1.533 0 011.769 1.187l.273 1.27a.988.988 0 001.946-.086l.24-1.929a3.9 3.9 0 013.281-3.357 3.95 3.95 0 003.123-2.575l.294-.834a2.188 2.188 0 011.429-1.365l.268-.081a1.633 1.633 0 001.074-1.03 1.636 1.636 0 011.653-1.097l.17.012a1.86 1.86 0 011.735 1.745l.227 3.827a6.208 6.208 0 005.642 5.814l2.535.227a8.86 8.86 0 008.432-4.343l1.885-3.214c.285-.487.79-.803 1.352-.847a1.722 1.722 0 001.586-1.806l-.102-1.992a3.768 3.768 0 011.241-2.995l1.112-1.002a6.923 6.923 0 001.805-2.602l.076-.194a7.213 7.213 0 017.211-4.552l3.531.245a1.632 1.632 0 011.409 1.036c.522 1.341 2.398 1.4 3.003.094l.389-.842c.187-.401.236-.852.142-1.285l-.863-3.95a9.571 9.571 0 014.514-10.298l2.379-1.393a1.768 1.768 0 011.158-.223l.598.09a1.068 1.068 0 00.41-2.096l-6.277-1.513a1.89 1.89 0 00-.897.003 1.894 1.894 0 01-2.343-1.942l.231-4.205a5.01 5.01 0 012.564-4.102l4.192-2.335a2.015 2.015 0 00.741-2.806l-.467-.769a.895.895 0 00-1.055-.383.896.896 0 01-1.137-.554l-.267-.774c-.39-1.126.652-2.223 1.797-1.893a1.47 1.47 0 001.72-.75l3.776-7.485a1.04 1.04 0 00.036-.858 1.038 1.038 0 01.656-1.383l.835-.258a1.84 1.84 0 011.532.206l1.027.653a4.473 4.473 0 006.307-1.592l.974-1.743a2.245 2.245 0 012.22-1.136l.38.044a1.581 1.581 0 001.356-2.629l-1.305-1.449a3.948 3.948 0 01-.856-3.758l1.351-4.599a.76.76 0 00-.146-.703.763.763 0 01.162-1.122l3.614-2.418c.771-.516.992-1.55.499-2.336a1.712 1.712 0 01.045-1.888l.974-1.402a4.293 4.293 0 00.47-4.022l-.045-.114a2.731 2.731 0 01.37-2.652l1.084-1.421a1.56 1.56 0 00-.961-2.483l-3.224-.589a3.78 3.78 0 00-1.74.09l-.986.288a2.768 2.768 0 01-3.443-1.915l-.16-.574a1.436 1.436 0 01.174-1.161c.776-1.21-.51-2.682-1.814-2.077l-.549.255a1.613 1.613 0 01-2.231-1.026l-2.283-8.126a4.624 4.624 0 00-2.955-3.124l-4.028-1.377a1.207 1.207 0 01-.64-1.771l.471-.773a.346.346 0 00-.131-.486c-.337-.183-.173-.696.207-.65l.418.05a.428.428 0 00.475-.368l.127-.975a1.366 1.366 0 012.599-.388l.04.088a1.5 1.5 0 001.82.807l2.271-.726a4.182 4.182 0 002.169-1.61l.734-1.066c.581-.843.64-1.939.154-2.839l-.094-.174a2.277 2.277 0 01-.142-1.841 2.277 2.277 0 00-2.049-3.035l-7.021-.301a7.47 7.47 0 01-6.646-4.763l-1.156-2.977a8.816 8.816 0 00-4.372-4.743l-.683-.331a6.056 6.056 0 01-2.415-2.118l-.596-.904a4.563 4.563 0 00-5.013-1.892l-1.809.495a2.05 2.05 0 00-1.502 1.923 2.03 2.03 0 01-1.655 1.946 2.022 2.022 0 00-1.641 2.241l.292 2.317a1.348 1.348 0 01-.662 1.335 1.349 1.349 0 00-.666 1.3l.043.422a2.006 2.006 0 01-2.103 2.202l-8.77-.47a3.57 3.57 0 00-2.755 1.079l-.886.912c-.388.401-.968.55-1.501.388a1.488 1.488 0 00-1.921 1.409l-.012 1.327a2.484 2.484 0 01-.593 1.586l-.252.295a3.549 3.549 0 01-3.166 1.216l-5.171-.684a2.445 2.445 0 00-1.942.593 2.448 2.448 0 01-2.739.344l-2.009-1.032a1.027 1.027 0 00-1.405.492 1.027 1.027 0 01-.959.605l-1.684-.039a3.558 3.558 0 00-2.006.562l-5.439 3.483a2.733 2.733 0 01-1.727.42l-.035-.004a2.682 2.682 0 01-2.394-2.209 2.683 2.683 0 00-1.242-1.826l-2.499-1.53a3.115 3.115 0 00-4.082.74l-1.081 1.384c-1.143 1.464-3.469.986-3.941-.811a2.242 2.242 0 00-1.374-1.528l-6.006-2.282a1.916 1.916 0 01-1.235-1.834l.036-1.548a.555.555 0 00-.614-.564.556.556 0 01-.602-.435l-.194-.897a1.577 1.577 0 00-1.253-1.216l-5.476-1.016a1.59 1.59 0 01-1.301-1.543l-.003-.223a1.363 1.363 0 00-1.342-1.343 1.362 1.362 0 01-1.342-1.387l.014-.71a2.068 2.068 0 012.216-2.024l3.878.277c.437.031.862-.143 1.152-.471l.084-.095a1.247 1.247 0 00.072-1.558l-.021-.028a1.192 1.192 0 01-.05-1.332 1.19 1.19 0 00-.169-1.472l-1.144-1.144c-1-1-1.233-2.533-.577-3.785l1.124-2.144c.511-.974.72-2.078.602-3.171l-.296-2.729a1.225 1.225 0 00-.821-1.026l-.21-.072a.896.896 0 01-.606-.809l-.004-.079a.838.838 0 00-1.108-.757.84.84 0 01-1.108-.766l-.071-2.095a1.69 1.69 0 00-1.562-1.629l-.44-.033a1.243 1.243 0 01-1.146-1.316 1.243 1.243 0 00-.59-1.135l-3.572-2.196a3.422 3.422 0 01-1.623-3.102 3.422 3.422 0 00-2.86-3.564l-1.589-.261a2.52 2.52 0 00-2.735 1.516 2.519 2.519 0 01-2.298 1.551l-12.454.135a1.371 1.371 0 00-1.107.581 1.374 1.374 0 01-1.492.53l-5.282-1.477a1.942 1.942 0 01-.905-.554l-.181-.195a1.632 1.632 0 00-2.821.934l-.117 1.097a3.547 3.547 0 01-2.876 3.109l-.111.021c-.203.038-.41.051-.617.04l-1.143-.061a1.067 1.067 0 01-.981-.815l-.134-.557a.685.685 0 01.774-.838.686.686 0 00.792-.64l.045-.841c.022-.412.22-.795.543-1.052l3.427-2.728-1.057.792a9.114 9.114 0 01-9.377.943l-1.85-.879a3.458 3.458 0 00-2.337-.225l-1.775.454a1.843 1.843 0 01-2.094-2.634l.878-1.696a2.238 2.238 0 00-.088-2.214l-.738-1.184a1.101 1.101 0 011.616-1.447l.042.032a1.195 1.195 0 001.915-.726l.078-.43c.059-.326.227-.622.476-.84l.338-.294a2.74 2.74 0 00.896-2.537l-.926-5.262a5.556 5.556 0 00-2.722-3.866l-1.007-.574a2.352 2.352 0 01-1.037-1.218 2.354 2.354 0 00-1.591-1.445l-1.897-.511a6.176 6.176 0 01-4.252-4.004l-1.676-5.006a9.149 9.149 0 00-1.266-2.462l-.233-.322a7.9 7.9 0 01-1.501-4.553l-.022-2.101a4.707 4.707 0 00-2.884-4.29l-1.17-.491a2.422 2.422 0 01-1.452-1.846 2.42 2.42 0 00-2.539-2.031l-6.274.392a5.424 5.424 0 01-5.367-7.452l.688-1.698a3.175 3.175 0 00-.359-3.038l-.38-.532a2.627 2.627 0 011.003-3.896l.277-.132a1.866 1.866 0 00.736-2.728l-1.586-2.33a7.302 7.302 0 01-1.25-3.644l-.295-4.648a2.638 2.638 0 012.991-2.782l1.623.221a.943.943 0 00.549-1.778l-.549-.275a1.292 1.292 0 01-.565-1.758l.602-1.143a2.559 2.559 0 00-.209-2.716l-1.973-2.661a1.332 1.332 0 011.206-2.121l3.35.341a1.722 1.722 0 001.894-1.821l-.073-1.183a4.008 4.008 0 00-.774-2.133l-.909-1.235a9.2 9.2 0 00-1.158-1.297l-2.307-2.138z" fill="#fff"/></g><defs><filter id="filter0_d_74_4505" x=".596" y=".022" width="552.389" height="659.642" filterUnits="userSpaceOnUse" color-interpolation-filters="sRGB"><feFlood flood-opacity="0" result="BackgroundImageFix"/><feColorMatrix in="SourceAlpha" values="0 0 0 0 0 0 0 0 0 0 0 0 0 0 0 0 0 0 127 0" result="hardAlpha"/><feOffset dy="10"/><feGaussianBlur stdDeviation="40"/><feComposite in2="hardAlpha" operator="out"/><feColorMatrix values="0 0 0 0 0 0 0 0 0 0 0 0 0 0 0 0 0 0 0.25 0"/><feBlend in2="BackgroundImageFix" result="effect1_dropShadow_74_4505"/><feBlend in="SourceGraphic" in2="effect1_dropShadow_74_4505" result="shape"/></filter></defs></svg>