<svg width="756" height="471" fill="none" xmlns="http://www.w3.org/2000/svg"><g filter="url(#filter0_d_316_1556)"><path d="M240.243 77.805a12.67 12.67 0 0112.562-4.972l9.23 1.732a4.674 4.674 0 013.231 2.337c1.814 3.288 6.568 3.204 8.264-.145l.667-1.316c.223-.44.504-.847.836-1.212l2.064-2.262a3.764 3.764 0 014.613-.75l1.618.904c1.236.69 2.32 1.621 3.189 2.74l9.088 11.705a4.778 4.778 0 01.968 3.516l-.212 1.716a3.461 3.461 0 003.941 3.85 3.462 3.462 0 012.204.408l3.344 1.881a8.933 8.933 0 0010.851-1.631l4.728-4.977a6.207 6.207 0 016.62-1.558c3.522 1.28 7.367-.83 8.18-4.487l.358-1.614a3.894 3.894 0 012.525-2.835l.454-.158a3.16 3.16 0 013.352.836c.449.484.735 1.097.817 1.752l.906 7.161a8.133 8.133 0 01-1.343 5.592 8.134 8.134 0 00.223 9.457l4.721 6.284c1.833 2.441 5.265 3.017 7.805 1.326a5.713 5.713 0 001.658-7.837l-4.694-7.35a5.66 5.66 0 01-.728-4.384l.221-.906a3.482 3.482 0 015.95-1.527l2.342 2.555a7.817 7.817 0 012.046 4.937l.467 10.629a11.358 11.358 0 002.17 6.193l.219.301a10.46 10.46 0 006.842 4.174c1.535.239 3.103.134 4.592-.308l8.363-2.485a8.46 8.46 0 019.182 3.038l1.799 2.402a4.745 4.745 0 005.78 1.467 4.746 4.746 0 013.973.004l.496.229a5.933 5.933 0 006.726-1.233l2.842-2.901a11.694 11.694 0 017.456-3.474l6.47-.497a11.994 11.994 0 001.777-.272 12.007 12.007 0 0113.26 5.992l7.937 14.689a13.256 13.256 0 009.116 6.707l2.739.536a5.58 5.58 0 006.26-7.53l-2-5.052a3.62 3.62 0 013.588-4.948l.285.017a3.94 3.94 0 012.851 1.49l1.465 1.853a9.226 9.226 0 007.431 3.503l3.24-.069a4.473 4.473 0 002.468-.805c1.591-1.113 2.274-3.15 1.703-5.005a4.56 4.56 0 00-1.36-2.094l-4.68-4.062a4.243 4.243 0 01-1.345-2.218 4.242 4.242 0 00-4.733-3.214l-5.493.795a3.197 3.197 0 01-3.54-4.018l.126-.454a4.118 4.118 0 011.552-2.238l.566-.411a6.124 6.124 0 013.671-1.167l.442.005a7.454 7.454 0 014.968 1.978l6.111 5.643a7.509 7.509 0 004.835 1.988l1.043.036a4.732 4.732 0 004.831-3.969l.21-1.294a8.18 8.18 0 00-.073-3.008l-.375-1.767a4.916 4.916 0 00-1.443-2.562l-1.91-1.795a1.918 1.918 0 012.336-3.017l1.669 1.055a4.006 4.006 0 011.763 2.482l1.462 6.304a3.41 3.41 0 006.272.939l1.061-1.831a6.551 6.551 0 00.368-5.832l-1.129-2.678a5.702 5.702 0 011.634-6.622l.881-.723a3.708 3.708 0 016.002 3.536l-.375 2.044a6.166 6.166 0 00.72 4.193l1.72 2.99a13.714 13.714 0 004.504 4.72l3.065 1.959a6.88 6.88 0 006.444.513 6.875 6.875 0 002.963-2.462l1.665-2.467a11.039 11.039 0 018.598-4.849l2.284-.114a3.906 3.906 0 002.236-.842l.733-.582c1.719-1.364 4.27-.654 5.036 1.403a3.228 3.228 0 002.309 2.023l16.069 3.663c1.158.264 2.345.372 3.531.32l.674-.029a11.703 11.703 0 008.26-3.94l.272-.307a9.976 9.976 0 0110.408-2.925l11.876 3.657a4.994 4.994 0 005.441-7.8l-2.452-3.216a4.283 4.283 0 013.338-6.88l2.23-.035a7.534 7.534 0 015.038 1.825l4.268 3.677a5.282 5.282 0 008.537-2.597l.511-1.856a4.601 4.601 0 016.667-2.804l6.82 3.776a30.266 30.266 0 0113.922 16.532l1.503 4.318a21.883 21.883 0 011.172 8.561l-.11 1.76a15.841 15.841 0 001.944 8.651l1.631 2.952a4.59 4.59 0 001.872 1.833c3.007 1.584 3.299 5.806.511 7.751a4.54 4.54 0 01-2.018.779l-1.045.134a8.833 8.833 0 00-6.91 5.096l-1.114 2.442a11.279 11.279 0 01-10.207 6.6l-3.491.017a4.59 4.59 0 01-3.773-1.945 4.586 4.586 0 01-.816-3.096l.023-.237a5.231 5.231 0 00-1.947-4.608l-.608-.483-2.735-1.615a.65.65 0 00-.979.558.648.648 0 01-1.12.445l-.273-.29a.806.806 0 00-1.362.329l-.098.342c-.144.497-.64.806-1.149.713l-1.122-.203a2.27 2.27 0 00-2.544 1.473l-6.33 17.79a3.023 3.023 0 01-4.578 1.465 3.023 3.023 0 00-2.741-.371l-1.433.508a5.979 5.979 0 01-6.324-1.51l-.951-.998a6.246 6.246 0 00-8.414-.573l-2.226 1.774a8.079 8.079 0 01-11.036-.903l-6.637-7.353a4.221 4.221 0 01-.941-1.722l-.68-2.499c-.564-2.074-3.176-2.737-4.661-1.184a2.765 2.765 0 01-2.142.85l-3.636-.192c-1.825-.096-2.664 2.233-1.197 3.323.362.269.613.661.705 1.102l1.799 8.589a1.23 1.23 0 01-1.834 1.306l-1.796-1.076a3.112 3.112 0 00-2.173-.387l-1.883.355a4.599 4.599 0 00-3.56 3.22 4.601 4.601 0 01-5.697 3.116l-9.362-2.719a.903.903 0 00-1.125.638.903.903 0 01-1.474.446l-4.195-3.731a4.344 4.344 0 01-1.447-3.541l.054-.789a5.957 5.957 0 00-1.015-3.75l-.828-1.22a6.501 6.501 0 00-7.391-2.531 6.509 6.509 0 01-2.651.288l-11.682-1.152a6.469 6.469 0 00-5.495 2.166l-.755.858a5.067 5.067 0 01-6.31 1.058l-1.593-.906a2.145 2.145 0 00-2.806 3.109l9.133 12.801a8.47 8.47 0 002.886 2.541l3.039 1.633a3.041 3.041 0 003.255-.241 3.044 3.044 0 013.644.008l.236.178a3.433 3.433 0 011.331 2.225l.923 6.016a8.448 8.448 0 01-.85 5.168l-.818 1.579a4.946 4.946 0 01-6.84 2.02l-1.996-1.138a5.749 5.749 0 01-2.147-2.148l-1.731-3.034a2.36 2.36 0 00-3.277-.847 2.36 2.36 0 01-3.125-.612l-8.73-11.81a1.344 1.344 0 00-2.359 1.215l1.605 4.918a2.42 2.42 0 01-1.813 3.122l-.172.035a2.179 2.179 0 00-1.729 1.909c-.066.63-.403 1.2-.922 1.562l-4.056 2.828a2.656 2.656 0 00-1.136 2.178c0 .683-.263 1.34-.736 1.834l-3.35 3.504a6.377 6.377 0 00-1.179 7.085l.493 1.065c.162.351.226.739.185 1.124l-.135 1.262a1.089 1.089 0 01-1.399.926 1.088 1.088 0 00-1.365 1.34l.052.18a1.191 1.191 0 01-1.087 1.516l-2.503.123a2.955 2.955 0 01-2.181-.813l-.161-.154a2.65 2.65 0 00-4.476 1.764l-.162 2.814a1.983 1.983 0 01-2.728 1.723 1.984 1.984 0 00-2.649 1.269l-.043.142a2.117 2.117 0 01-1.156 1.323l-1.957.885a6.832 6.832 0 01-4.715.337l-6.764-1.958a4.996 4.996 0 00-5.542 2.021l-.311.465a3.555 3.555 0 01-2.094 1.471l-2.866.712a.723.723 0 00-.519.906c.188.633-.503 1.165-1.067.823l-1.258-.762a1.29 1.29 0 00-1.32-.012l-5.679 3.309a2.202 2.202 0 01-2.814-.511 2.2 2.2 0 00-3.363-.058l-.897 1.028a1.305 1.305 0 01-1.722.218l-.423-.29a.975.975 0 00-1.513.637.976.976 0 01-.982.808l-1.015-.021a2.16 2.16 0 00-1.897 1.05l-.127.213a2.588 2.588 0 00-.265 2.051l.4 1.374a5.87 5.87 0 01-1.498 5.802l-3.412 3.39a13.976 13.976 0 00-3.461 5.659l-1.841 5.765a24.295 24.295 0 01-9.014 12.372 24.296 24.296 0 00-9.514 14.178l-.865 3.657a9.565 9.565 0 01-6.587 6.974l-9.207 2.739a18.744 18.744 0 01-10.822-.04 18.74 18.74 0 00-9.545-.371l-18.756 4.169a8.513 8.513 0 01-3.882-.044l-3.319-.818a4.12 4.12 0 00-4.625 2.068 4.123 4.123 0 01-2.39 1.993l-.186.059a4.595 4.595 0 01-3.248-.173l-1.978-.87a10.321 10.321 0 00-6.819-.525l-1.458.389a9.823 9.823 0 00-5.004 3.195 9.828 9.828 0 01-3.509 2.663l-1.949.876a19.095 19.095 0 01-8.717 1.66l-13.748-.637c-1.7-.079-3.383-.37-5.011-.867a20.392 20.392 0 00-11.6-.092l-4.751 1.367a37.015 37.015 0 01-5.84 1.183l-54.429 6.532a21.78 21.78 0 00-9.964 3.832l-3.345 2.363a8.186 8.186 0 01-4.484 1.496 8.187 8.187 0 00-7.754 6.417l-.469 2.124a10.975 10.975 0 01-1.971 4.265l-9.832 12.966a5.118 5.118 0 00-1.028 2.784l-.066 1.131a3.728 3.728 0 01-3.217 3.474 3.723 3.723 0 00-2.097 1.023l-1.28 1.247a9.16 9.16 0 00-1.927 2.726l-.688 1.494a13.61 13.61 0 01-7.478 7.008l-4.908 1.886a2.309 2.309 0 01-1.943-.134 2.31 2.31 0 00-3.177.982l-.784 1.555a3.987 3.987 0 01-5.046 1.905l-1.749-.703a3.042 3.042 0 00-3.493.903 3.04 3.04 0 01-2.45 1.119l-3.38-.1c-6.372-.189-10.905-6.268-9.267-12.43l1.777-6.688a15.378 15.378 0 012.517-5.221l5.747-7.737a8.202 8.202 0 001.143-2.139l2.12-5.941a1.911 1.911 0 00-1.16-2.443l-.255-.09a1.615 1.615 0 01-1.023-1.92 1.614 1.614 0 00-.5-1.612l-6.885-6.04a2.79 2.79 0 01-.878-1.469l-.127-.551a2.134 2.134 0 011.304-2.467 2.132 2.132 0 001.335-2.307l-.278-1.829a4.443 4.443 0 00-1.173-2.397l-6.864-7.22a1.307 1.307 0 01-.042-1.754l.22-.256a1.048 1.048 0 00-.342-1.631 1.049 1.049 0 01-.506-1.373l.41-.92a2.09 2.09 0 00.08-1.483l-2.23-6.953a5.881 5.881 0 01.62-4.925 5.88 5.88 0 00.69-4.694l-.018-.065a6.035 6.035 0 011.456-5.779l13.08-13.67a6.712 6.712 0 001.276-7.382l-.722-1.615a3.063 3.063 0 011.661-4.098l.838-.335a5.037 5.037 0 013.658-.03l2.395.911a2.955 2.955 0 003.968-2.3 2.954 2.954 0 012.232-2.411l.965-.231a4.436 4.436 0 003.406-4.21l.061-2.559a3.29 3.29 0 012.544-3.114c1.8-.42 2.905-2.262 2.404-4.042l-.048-.168a3.041 3.041 0 014.015-3.667l3.883 1.483a2.544 2.544 0 003.435-2.063l.094-.747a3.945 3.945 0 00-1.473-3.588l-2.333-1.837a2.816 2.816 0 01-1.031-2.695l.146-.835a1.527 1.527 0 00-.67-1.542 1.529 1.529 0 01-.147-2.45l5.472-4.599a6.844 6.844 0 013.182-1.493l1.764-.319a13.574 13.574 0 008.563-5.374l12.287-16.892a49.942 49.942 0 015.474-6.335l8.051-7.875a39.705 39.705 0 0112.92-8.44l3.235-1.304a22.406 22.406 0 018.704-1.621l.949.014a17.321 17.321 0 006.289-1.082 17.325 17.325 0 018.727-.873l4.673.735a10.896 10.896 0 015.519 2.599 10.885 10.885 0 007.212 2.731h7.442a5.823 5.823 0 005.568-7.525l-2.849-9.317a32.347 32.347 0 01-1.413-9.732l.267-31.854a13.235 13.235 0 00-1.589-6.4 13.222 13.222 0 01-1.584-6.685l.204-6.836a2.499 2.499 0 00-.518-1.599 2.498 2.498 0 01-.036-2.998l4.509-6.163z" fill="#fff"/></g><defs><filter id="filter0_d_316_1556" x=".555" y=".74" width="755.27" height="469.933" filterUnits="userSpaceOnUse" color-interpolation-filters="sRGB"><feFlood flood-opacity="0" result="BackgroundImageFix"/><feColorMatrix in="SourceAlpha" values="0 0 0 0 0 0 0 0 0 0 0 0 0 0 0 0 0 0 127 0" result="hardAlpha"/><feOffset dy="10"/><feGaussianBlur stdDeviation="40"/><feComposite in2="hardAlpha" operator="out"/><feColorMatrix values="0 0 0 0 0 0 0 0 0 0 0 0 0 0 0 0 0 0 0.25 0"/><feBlend in2="BackgroundImageFix" result="effect1_dropShadow_316_1556"/><feBlend in="SourceGraphic" in2="effect1_dropShadow_316_1556" result="shape"/></filter></defs></svg>