<svg width="83" height="67" fill="none" xmlns="http://www.w3.org/2000/svg"><path d="M6.48 53.236c-1.869-.924-3.3-3.006-5.043-6.58 4.448-2.989 9.412-1.06 12.735 5.57m6.643 10.208c-3.044 3.853-7.68 6.352-13.944-2.097 3.767-4.766 9.225-4.27 13.944 2.097zM5.676 40.111C3.218 38.653 1.37 35.945 1 31.177c6.787-.384 11.84 3.496 12.378 10.413M6.464 26.859c-1.504-2.065-2.053-5.48-.639-11.056 5.728.608 8.491 5.875 6.442 13.946m25.71 22.253l-17.729-.048V1h42.327v50.954l-3.514.048M30.87 18.57h21.083M36.14 25.598h10.543" stroke="#A9AEBD" stroke-width="2" stroke-linecap="round" stroke-linejoin="round"/><path d="M48.518 52.002a7.028 7.028 0 100-14.056 7.028 7.028 0 000 14.056z" stroke="#20AC2E" stroke-width="2" stroke-linecap="round" stroke-linejoin="round"/><path d="M53.79 49.621v13.8l-5.27-4.393-5.272 4.393v-13.8" stroke="#20AC2E" stroke-width="2" stroke-linecap="round" stroke-linejoin="round"/><path d="M76.504 53.236c1.869-.924 3.3-3.006 5.043-6.58-4.448-2.989-9.412-1.06-12.734 5.57m-6.644 10.208c3.044 3.853 7.68 6.352 13.944-2.097-3.766-4.766-9.224-4.27-13.944 2.097zm15.139-22.323c2.457-1.458 4.305-4.166 4.676-8.934-6.787-.384-11.84 3.496-12.378 10.413m6.913-14.731c1.504-2.065 2.053-5.48.64-11.056-5.729.608-8.492 5.875-6.443 13.946M29.191 43.217h5.271" stroke="#A9AEBD" stroke-width="2" stroke-linecap="round" stroke-linejoin="round"/></svg>