<svg width="73" height="72" fill="none" xmlns="http://www.w3.org/2000/svg"><path d="M49.185 40.572l9.128-9.129V26.88H12.671v4.564l9.128 9.129m.001 7.606V32.965m27.385 15.214V32.965" stroke="#20AC2E" stroke-width="2" stroke-miterlimit="10"/><path d="M47.664 26.88v-6.086c0-3.728-9.266-6.086-12.171-6.086-2.906 0-12.172 2.358-12.172 6.086v6.085" stroke="#A9AEBD" stroke-width="2" stroke-miterlimit="10"/><path d="M35.492 14.708c3.484 0 6.086-2.632 6.086-5.873V6.873C41.578 3.632 38.976 1 35.492 1c-3.484 0-6.086 2.632-6.086 5.873v1.962c0 3.24 2.602 5.873 6.086 5.873zM65.92 71v-2.89c0-4.291-3.361-7.76-7.606-7.76v-1.52c0-4.29-3.363-7.76-7.607-7.76-4.245 0-7.607 3.47-7.607 7.76 0-4.29-3.363-7.76-7.607-7.76-4.245 0-7.607 3.47-7.607 7.76 0-4.29-3.363-7.76-7.607-7.76-4.245 0-7.607 3.47-7.607 7.76v1.521c-4.245 0-7.608 3.469-7.608 7.76V71" stroke="#A9AEBD" stroke-width="2" stroke-miterlimit="10"/><path d="M20.278 71v-2.89c0-4.291-3.362-7.76-7.607-7.76M35.492 71v-2.89c0-4.291-3.362-7.76-7.607-7.76-4.244 0-7.607 3.469-7.607 7.76V71m30.428 0v-2.89c0-4.291-3.362-7.76-7.607-7.76-4.244 0-7.607 3.469-7.607 7.76V71m22.821-10.65c-4.245 0-7.607 3.469-7.607 7.76V71M.5 71h71.506" stroke="#A9AEBD" stroke-width="2" stroke-miterlimit="10"/><path d="M27.885 48.179V34.486h15.214V48.18" stroke="#20AC2E" stroke-width="2" stroke-miterlimit="10"/></svg>