<svg width="55" height="72" fill="none" xmlns="http://www.w3.org/2000/svg"><path d="M11.652 17.74v5.072c0 5.602 4.229 10.144 9.892 10.144 5.662 0 9.89-4.542 9.89-10.144V17.74" stroke="#A9AEBD" stroke-width="2" stroke-miterlimit="10" stroke-linecap="round"/><path d="M42.007 46.504s-2.111-2.56-4.363-5.277c-2.253-2.716-5.13-3.538-9.253-3.705H13.174C6.083 37.522 1 43.748 1 50.04v17.917C1 69.478 2.522 71 2.522 71" stroke="#A9AEBD" stroke-width="2" stroke-linecap="round" stroke-linejoin="round"/><path d="M14.696 71s-1.522-1.522-1.522-3.043V55.64M21.544 1L1 6.326l20.544 5.326 20.543-5.326L21.543 1zm17.499 6.115v13.668" stroke="#A9AEBD" stroke-width="2" stroke-linecap="round" stroke-linejoin="round"/><path d="M49.119 55.783l4.474-9.04a.063.063 0 00-.057-.09H33.548l-12.038 24.3c-.01.021.005.046.028.046h20.03a.03.03 0 00.027-.015l3.005-6.072" stroke="#20AC2E" stroke-width="2" stroke-linecap="round" stroke-linejoin="round"/><path d="M47.753 64.913H40.59c-.388-5.421 3.806-9.13 3.806-9.13h6.437c1.415 0 2.336 1.786 1.703 3.304l-1.378 3.304c-.645 1.546-1.963 2.524-3.405 2.524v-.002zM31.435 9.088v8.651H11.652V9.088" stroke="#A9AEBD" stroke-width="2" stroke-linecap="round" stroke-linejoin="round"/></svg>