<svg width="74" height="72" fill="none" xmlns="http://www.w3.org/2000/svg"><path d="M11.89 6.314V1h42l7.777 7.778V29m0 26.444V71H11.89V50.648" stroke="#A9AEBD" stroke-width="2" stroke-linecap="round" stroke-linejoin="round"/><path d="M57 11.889h-6.223V5.667" stroke="#A9AEBD" stroke-width="2" stroke-linecap="round" stroke-linejoin="round"/><path d="M71.5 37.834L49.485 59.849l-9.681 4.237 4.237-9.682L66.056 32.39a3.111 3.111 0 014.4 0l1.044 1.044a3.111 3.111 0 010 4.4z" stroke="#20AC2E" stroke-width="2" stroke-linecap="round" stroke-linejoin="round"/><path d="M62.81 35.635l5.445 5.444" stroke="#20AC2E" stroke-width="2" stroke-miterlimit="10"/><path d="M32.111 63.222H21.224" stroke="#20AC2E" stroke-width="2" stroke-miterlimit="10" stroke-linecap="round"/><path d="M9.78 27.853c1.026.742 2.278 1.147 3.665 1.147H15M4.111 38.333v5.32c0 .553.523 1 1.167 1h7c.644 0 1.167-.447 1.167-1V39.89M42 27.853C40.971 28.595 39.72 29 38.333 29h-1.556m10.889 9.333v5.32c0 .553-.523 1-1.166 1h-7c-.644 0-1.167-.447-1.167-1V39.89m3.666-20.276s-2.163-4.647-2.67-5.421c-.453-.688-.968-1.13-2.302-1.478-2.061-.534-6.644-.828-11.136-.828-4.492 0-9.077.292-11.136.828-1.334.346-1.849.788-2.302 1.478-.508.774-2.67 5.421-2.67 5.421" stroke="#A9AEBD" stroke-width="2" stroke-linecap="round" stroke-linejoin="round"/><path d="M25.889 39.889H46.11c.86 0 1.556-.696 1.556-1.556V29c0-1.213-.138-1.812-.815-2.674a58.42 58.42 0 01-1.155-1.514l4.103-1.643c.59-.238.976-.81.976-1.445v-2.06c0-.859-.696-1.555-1.556-1.555h-6.222l-3.111 4.667H11.889l-3.111-4.667H2.556c-.86 0-1.556.696-1.556 1.556v2.059c0 .636.387 1.207.976 1.445l4.103 1.643s-.478.653-1.155 1.514c-.677.86-.815 1.459-.815 2.674v9.333c0 .86.696 1.556 1.556 1.556h20.224zm7.778-6.222H18.11" stroke="#A9AEBD" stroke-width="2" stroke-linecap="round" stroke-linejoin="round"/></svg>