<svg width="13" height="10" fill="none" xmlns="http://www.w3.org/2000/svg"><path d="M6.598.105a.626.626 0 00-.696 0l-2.654 1.77H.938A.938.938 0 000 2.813v6.25C0 9.58.42 10 .938 10h10.624c.518 0 .938-.42.938-.938v-6.25a.938.938 0 00-.938-.937h-2.31L6.598.105zM5 8.125a1.251 1.251 0 012.5 0V10H5V8.125zM1.875 3.75H2.5c.172 0 .313.14.313.313v1.25a.314.314 0 01-.313.312h-.625a.313.313 0 01-.313-.313v-1.25c0-.171.141-.312.313-.312zm7.813.313c0-.172.14-.313.312-.313h.625c.172 0 .313.14.313.313v1.25a.314.314 0 01-.313.312H10a.313.313 0 01-.313-.313v-1.25zM1.875 6.25H2.5c.172 0 .313.14.313.313v1.25a.314.314 0 01-.313.312h-.625a.313.313 0 01-.313-.313v-1.25c0-.171.141-.312.313-.312zm7.813.313c0-.172.14-.313.312-.313h.625c.172 0 .313.14.313.313v1.25a.314.314 0 01-.313.312H10a.313.313 0 01-.313-.313v-1.25zM4.53 3.438a1.719 1.719 0 113.438 0 1.719 1.719 0 01-3.438 0zM6.25 2.5a.313.313 0 00-.313.313v.624c0 .172.141.313.313.313h.625a.313.313 0 000-.625h-.313v-.313A.313.313 0 006.25 2.5z" fill="#fff"/></svg>