<svg width="51" height="47" fill="none" xmlns="http://www.w3.org/2000/svg"><path d="M33.465 21.913v-4.189c0-2.89-5.948-4.188-8.901-4.188-2.954 0-8.902 1.298-8.902 4.188v4.19m8.902-11.51c2.199 0 3.665-1.801 3.665-4.032v-1.34C28.23 2.812 26.763 1 24.564 1c-2.2 0-3.666 1.801-3.666 4.032v1.34c0 2.22 1.467 4.032 3.666 4.032zM8.855 13.536c-2.2 0-3.666-1.812-3.666-4.043v-1.35C5.19 5.911 6.656 4.1 8.855 4.1s3.665 1.812 3.665 4.042v1.351c0 2.23-1.466 4.043-3.665 4.043z" stroke="#fff" stroke-width="2" stroke-miterlimit="10"/><path d="M15.661 46l-3.141-9.425H6.236C3.356 36.575 1 34.218 1 31.339v-11.52a3.151 3.151 0 013.142-3.142h3.141l5.237 5.236h6.283s.471 4.19-3.142 4.19H9.378l-4.189-4.19" stroke="#fff" stroke-width="2" stroke-miterlimit="10"/><path d="M8.33 25.055v5.236h4.524c1.676 0 3.299.514 3.854 2.095L20.897 46m21.47-32.464c2.199 0 3.665-1.812 3.665-4.043v-1.35c0-2.231-1.466-4.043-3.665-4.043-2.2 0-3.666 1.812-3.666 4.042v1.351c0 2.23 1.466 4.043 3.666 4.043zM34.511 46l3.142-9.425h6.284c2.88 0 5.236-2.357 5.236-5.236v-11.52a3.151 3.151 0 00-3.142-3.142H42.89l-5.236 5.236H31.37s-.472 4.19 3.141 4.19h6.284l4.189-4.19" stroke="#fff" stroke-width="2" stroke-miterlimit="10"/><path d="M41.842 25.055v5.236h-4.524c-1.675 0-3.299.514-3.854 2.095L29.275 46M11.473 26.102H38.7" stroke="#fff" stroke-width="2" stroke-miterlimit="10"/></svg>