<svg width="64" height="42" fill="none" xmlns="http://www.w3.org/2000/svg"><path d="M11.67 14.332c3.053 0 5.333-2.558 5.333-5.713V6.714c0-3.156-2.28-5.714-5.334-5.714-3.053 0-5.333 2.558-5.333 5.714v1.905c0 3.155 2.28 5.713 5.333 5.713z" stroke="#fff" stroke-width="2" stroke-miterlimit="10" stroke-linecap="round"/><path d="M11.477 36.338l-4.308-.877C5.9 35.283 5.04 35 3.857 33.211l-1.139-2.51C1.715 28.494 1 27.548 1 25.753c0-3.759 1.922-7.419 6.159-7.419h7.685c2.463.1 3.975.532 5.32 2.154 1.345 1.621 2.607 3.151 2.607 3.151" stroke="#fff" stroke-width="2" stroke-linecap="round" stroke-linejoin="round"/><path d="M7.318 25.38l1.205 3.013c.482 1.203 1.064 1.675 2.186 2.09l3.103 1.103m11.914 2.747h-4.707C20.764 31.166 23.52 29 23.52 29h4.23c.93 0 1.536 1.043 1.119 1.93l-.905 1.93c-.423.903-1.29 1.473-2.237 1.473h-.002z" stroke="#fff" stroke-width="2" stroke-linecap="round" stroke-linejoin="round"/><path d="M27.12 29l1.754-3.589c.4-.813-.182-1.772-1.077-1.772h-9.34c-.455 0-.872.262-1.077.677l-6.015 12.246c-.4.813.182 1.771 1.077 1.771h9.34c.455 0 .872-.261 1.077-.676l1.631-3.324m-18.154.965V41m13.334-2.667V41m35.375-17.334c-1.626.858-3.015 1.335-5.147 1.335H45.67m12.667 9.647v5.019c0 .736-.597 1.333-1.333 1.333h-8a1.333 1.333 0 01-1.334-1.333v-4m5.15-21.727s-2.375-6.285-3.025-7.275c-.58-.881-1.238-1.447-2.946-1.892-2.639-.685-6.762-1.108-12.513-1.108-5.75 0-9.873.423-12.512 1.108" stroke="#fff" stroke-width="2" stroke-linecap="round" stroke-linejoin="round"/><path d="M31.669 35.666h24a4 4 0 004.001-4V25c0-.666-.078-1.45-.223-1.67l-3.777-4.997 5.65-1.443c.722-.213 1.017-.488 1.017-1.223V13c0-.737-.597-1.334-1.334-1.334H55.05c-.447 0-.862.224-1.11.594l-1.764 2.645C51.92 15.258 50.78 17 47.67 17H25.002m9.334 13.333h8.667" stroke="#fff" stroke-width="2" stroke-linecap="round" stroke-linejoin="round"/></svg>