<svg width="63" height="48" fill="none" xmlns="http://www.w3.org/2000/svg"><path d="M35.412 46.558v-7.185c0-1.148-1.779-2.08-3.97-2.08-2.193 0-3.971.932-3.971 2.08v7.185m-9.266-22.5V10.823L31.44 1.558l13.236 9.265v13.235m-41.03 1.63v20.87m14.56-26.47L1 26.705m58.234-1.017v20.87m-14.558-26.47l17.206 6.617m0 19.853H1" stroke="#fff" stroke-width="2" stroke-miterlimit="10" stroke-linecap="round"/><path d="M31.442 24.058a6.618 6.618 0 100-13.235 6.618 6.618 0 000 13.235z" stroke="#fff" stroke-width="2" stroke-linecap="round" stroke-linejoin="round"/><path d="M31.441 14.793v2.647h1.324M19.53 29.352V32m7.94-2.648V32m7.942-2.648V32m7.941-2.648V32m0 6.617v2.647M11.588 29.352V32m7.942 6.617v2.647m-7.942-2.647v2.647m39.707-11.912V32m0 6.617v2.647" stroke="#fff" stroke-width="2" stroke-linecap="round" stroke-linejoin="round"/></svg>