<svg width="80" height="40" fill="none" xmlns="http://www.w3.org/2000/svg"><path d="M1 16.864h1.68m38.657 21.849c2.785 0 5.042-3.01 5.042-6.723 0-3.712-2.257-6.722-5.042-6.722-2.785 0-5.042 3.01-5.042 6.722 0 3.713 2.257 6.723 5.042 6.723zm-30.252 0c2.785 0 5.042-3.01 5.042-6.723 0-3.712-2.257-6.722-5.042-6.722-2.785 0-5.042 3.01-5.042 6.722 0 3.713 2.257 6.723 5.042 6.723zm39.683-18.04c1.584.777 2.937 1.208 5.012 1.208h2.364m20.167-1.208c-1.584.777-2.937 1.208-5.012 1.208m-.031 5.042H60.812" stroke="#fff" stroke-width="2" stroke-linecap="round" stroke-linejoin="round"/><path d="M64.865 13.503c5.463 2.1 13.446 4.78 13.446 6.698v13.445H46.223M22.85 1.738c6.722.025 9.645 1.838 14.956 8.975" stroke="#fff" stroke-width="2" stroke-linecap="round" stroke-linejoin="round"/><path d="M6.14 33.226C3.31 33.226 1 31.387 1 30.31V13.503l4.622-2.966s6.792-8.824 14.286-8.824h28.15c2.066 0 11.238 2.336 16.807 11.79m-28.44 20.168H15.967" stroke="#fff" stroke-width="2" stroke-linecap="round" stroke-linejoin="round"/><path d="M35.22 17.116l-4.814-1.363c-.702-.231-.99-.525-.99-1.322v-2.878c0-.794.582-1.439 1.298-1.439h5.799c.434 0 1.054.2 1.296.6l1.849 2.787h1.68l23.53-.025m-53.784-1.624c1.29.588 3.796 1.65 5.042 1.65h13.288m45.383 20.144c-.553 2.914-2.532 5.067-4.889 5.067s-4.336-2.155-4.889-5.067" stroke="#fff" stroke-width="2" stroke-linecap="round" stroke-linejoin="round"/></svg>