<svg width="37" height="39" fill="none" xmlns="http://www.w3.org/2000/svg"><path d="M32.502 17.26c0 3.59-1.165 6.907-3.126 9.598l6.891 6.907a2.509 2.509 0 010 3.544 2.502 2.502 0 01-3.539 0l-6.89-6.907a16.15 16.15 0 01-9.587 3.129C7.274 33.53 0 26.248 0 17.26S7.274.989 16.25.989c8.978 0 16.252 7.283 16.252 16.27zm-18.126 6.884c0 1.04.836 1.877 1.875 1.877a1.872 1.872 0 001.875-1.877v-5.007h5c1.04 0 1.875-.837 1.875-1.877s-.836-1.878-1.875-1.878h-5v-5.006c0-1.04-.836-1.877-1.875-1.877-1.04 0-1.875.837-1.875 1.877v5.007h-5c-1.04 0-1.876.837-1.876 1.877s.836 1.877 1.875 1.877h5v5.007z" fill="#fff"/></svg>