<svg width="146" height="57" fill="none" xmlns="http://www.w3.org/2000/svg"><path fill-rule="evenodd" clip-rule="evenodd" d="M18.049 50.694H4.867a4.868 4.868 0 01-4.427-6.89l6.816-11.82v.61c0 2.46.43 4.81 1.219 7l-3.598 6.24h7.196c.38.45.78.89 1.199 1.31a20.91 20.91 0 004.777 3.57v-.02z" fill="#E52329"/><path fill-rule="evenodd" clip-rule="evenodd" d="M17 15.084l6.586-11.42a4.87 4.87 0 016.656-1.78c.63.36 1.14.84 1.53 1.39l6.815 11.81a20.336 20.336 0 00-7.186-2.75l-3.597-6.24-3.598 6.23a20.486 20.486 0 00-7.216 2.75l.01.01z" fill="#F9AE00"/><path fill-rule="evenodd" clip-rule="evenodd" d="M48.34 31.975l6.596 11.43a4.874 4.874 0 01-3.748 7.29H37.557a20.21 20.21 0 004.777-3.57c.41-.41.81-.84 1.179-1.29h7.206l-3.598-6.23c.8-2.19 1.229-4.56 1.229-7.02v-.61h-.01z" fill="#20AC2E"/><path fill-rule="evenodd" clip-rule="evenodd" d="M27.802 25.394a7.185 7.185 0 016.766 4.76h8.894c1.34 0 2.439 1.09 2.439 2.44 0 10-8.105 18.11-18.099 18.11-7.825 0-14.481-4.97-17.01-11.92a.93.93 0 01.12-.88.95.95 0 01.79-.41h2.878c.57 0 1.05.31 1.3.82a13.22 13.22 0 002.578 3.64 13.187 13.187 0 006.916 3.65v-6.24a7.191 7.191 0 01-4.328-4.33h-8.904a2.443 2.443 0 01-2.439-2.44c0-10 8.105-18.11 18.099-18.11 7.825 0 14.491 4.97 17.01 11.92.11.3.07.61-.12.88a.95.95 0 01-.79.41h-2.878c-.57 0-1.05-.31-1.3-.82a13.22 13.22 0 00-2.578-3.64 13.19 13.19 0 00-9.354-3.88c-3.658 0-6.956 1.48-9.354 3.88a13.2 13.2 0 00-3.648 6.92h6.236c1-2.77 3.648-4.76 6.766-4.76h.01zm0 4.76c1.35 0 2.439 1.09 2.439 2.44 0 1.35-1.09 2.44-2.439 2.44a2.436 2.436 0 01-2.439-2.44c0-1.35 1.09-2.44 2.439-2.44zm2.439 15.44c2.678-.5 5.066-1.8 6.915-3.65a13.2 13.2 0 003.648-6.92h-6.236a7.191 7.191 0 01-4.327 4.33v6.24z" fill="#fff"/><path d="M33.16 52.444a1.422 1.422 0 11.73 2.75c-.97.26-1.969.46-3.018.6-1.03.14-2.059.21-3.078.21-1.02 0-2.05-.07-3.078-.21a24.03 24.03 0 01-3.019-.6 1.422 1.422 0 01.73-2.75c.88.24 1.759.42 2.648.53.86.11 1.77.17 2.709.17.94 0 1.849-.06 2.708-.17.89-.12 1.769-.3 2.648-.53h.02zm9.154-34.43a1.4 1.4 0 010-2 1.4 1.4 0 011.999 0 22.929 22.929 0 013.748 4.89c.52.91.98 1.84 1.369 2.77.4.96.73 1.94.99 2.92.2.76-.25 1.53-1.01 1.73-.76.2-1.53-.25-1.729-1.01-.23-.87-.52-1.72-.87-2.56a19.68 19.68 0 00-1.199-2.44c-.45-.78-.96-1.54-1.509-2.26-.56-.72-1.15-1.4-1.779-2.03l-.01-.01zm-34.378 9.28c-.2.76-.98 1.21-1.73 1.01a1.425 1.425 0 01-1.009-1.73 23.37 23.37 0 012.359-5.69 23.068 23.068 0 013.747-4.89c.56-.55 1.45-.55 2 0a1.42 1.42 0 010 2c-.63.63-1.22 1.3-1.78 2.03-.56.72-1.06 1.48-1.509 2.26-.46.79-.86 1.61-1.199 2.44-.35.84-.63 1.69-.87 2.56l-.01.01zm63.09 13.18c.87.06 2.039-.17 2.039-1.24 0-2.26-6.666-.8-6.666-5.35 0-3.65 3.508-4.56 6.506-4.29.47.04.93.13 1.39.25.459.13.849.31 1.178.56.33.25.49.57.49.98 0 .72-.47 1.73-1.299 1.73-.4 0-.74-.23-1.08-.4-1.029-.5-3.897-.78-3.897.86 0 2.45 6.666.58 6.666 5.36 0 3.13-2.329 4.49-5.257 4.49-1.509 0-3.668-.48-4.667-1.71-.27-.33-.4-.67-.4-1.02 0-.18.04-.38.12-.58.08-.2.18-.39.31-.57.13-.18.28-.32.45-.44a.98.98 0 01.56-.18c.25 0 .49.08.699.24.96.71 1.779 1.24 2.868 1.32l-.01-.01zm69.647 0c.87.06 2.039-.17 2.039-1.24 0-2.26-6.666-.8-6.666-5.35 0-3.65 3.508-4.56 6.506-4.29.47.04.93.13 1.389.25.46.13.85.31 1.18.56.329.25.489.57.489.98 0 .72-.47 1.73-1.299 1.73-.4 0-.74-.23-1.079-.4-1.03-.5-3.898-.78-3.898.86 0 2.45 6.666.58 6.666 5.36 0 3.13-2.329 4.49-5.257 4.49-1.509 0-3.668-.48-4.667-1.71-.27-.33-.4-.67-.4-1.02 0-.18.04-.38.12-.58.08-.2.18-.39.31-.57.13-.18.28-.32.45-.44a.98.98 0 01.559-.18c.25 0 .49.08.7.24.959.71 1.779 1.24 2.868 1.32l-.01-.01zm-56.045-6.07c0-.14-.01-.32-.04-.53-.03-.21-.1-.42-.23-.62s-.31-.38-.56-.53c-.25-.15-.59-.22-1.039-.22-.6 0-1.07.17-1.4.52-.329.34-.489.87-.489 1.59v3.75c0 .72.16 1.25.49 1.59.33.34.8.52 1.419.52.42 0 .75-.07.99-.21.24-.14.42-.32.549-.53.13-.21.21-.44.24-.68.04-.25.06-.47.07-.68.03-.39.2-.66.52-.79s.68-.2 1.099-.2c.58 0 1 .1 1.259.31.27.2.4.62.4 1.25 0 .7-.13 1.33-.4 1.87a3.86 3.86 0 01-1.12 1.38c-.479.37-1.029.66-1.668.85-.64.2-1.34.29-2.089.29-.69 0-1.34-.09-1.949-.26a4.24 4.24 0 01-1.609-.86c-.46-.4-.83-.91-1.09-1.54-.269-.62-.399-1.39-.399-2.3v-3.75c0-.9.13-1.66.4-2.29.27-.63.63-1.15 1.09-1.55.459-.4.999-.69 1.608-.86a6.85 6.85 0 011.95-.26c.759 0 1.458.09 2.088.27.64.18 1.199.45 1.669.81.48.36.85.8 1.119 1.32.27.52.4 1.12.4 1.79 0 .63-.13 1.05-.4 1.25-.27.2-.68.3-1.24.3-.449 0-.829-.07-1.139-.21-.31-.14-.48-.4-.51-.78l.01-.01zm12.202 3h-4.187v4.79c0 .34-.17.59-.52.76-.34.17-.72.25-1.13.25a2.52 2.52 0 01-1.128-.25c-.34-.17-.52.04-.52-.29v-12.03c0-.35.17-.6.52-.76.34-.15.72-.23 1.129-.23.41 0 .78.08 1.13.23.339.15.519.41.519.76v4.24h4.187v-4.24c0-.35.17-.6.52-.76.34-.15.72-.23 1.13-.23.409 0 .779.08 1.129.23.34.15.519.41.519.76v11.56c0 .34-.17.59-.52.76-.34.17-.719.25-1.129.25-.41 0-.78-.08-1.129-.25-.34-.17-.52-.42-.52-.76v-4.79zm10.324 5.93c-.73 0-1.409-.09-2.029-.26-.619-.18-1.169-.46-1.629-.86-.46-.4-.829-.91-1.089-1.54-.27-.62-.4-1.39-.4-2.3v-3.75c0-.9.13-1.66.4-2.29.27-.63.629-1.15 1.089-1.55.46-.4 1.01-.69 1.629-.86.62-.18 1.299-.26 2.029-.26.729 0 1.409.09 2.039.26.629.18 1.179.46 1.639.86.459.4.829.92 1.089 1.55s.4 1.4.4 2.29v3.75c0 .91-.13 1.68-.4 2.3-.27.62-.63 1.14-1.089 1.54-.46.4-1.01.69-1.639.86-.63.18-1.31.26-2.039.26zm1.889-8.72c0-.73-.17-1.26-.51-1.6-.34-.34-.799-.51-1.389-.51s-1.049.17-1.379.51c-.33.34-.49.87-.49 1.6v3.75c0 .73.17 1.26.49 1.6.33.34.789.51 1.379.51s1.049-.17 1.389-.51c.34-.34.51-.87.51-1.6v-3.75zm10.153 8.72c-.729 0-1.409-.09-2.028-.26-.62-.18-1.17-.46-1.629-.86-.46-.4-.83-.91-1.09-1.54-.269-.62-.399-1.39-.399-2.3v-3.75c0-.9.13-1.66.399-2.29.27-.63.63-1.15 1.09-1.55.459-.4 1.009-.69 1.629-.86.619-.18 1.299-.26 2.028-.26.73 0 1.41.09 2.039.26.63.18 1.18.46 1.639.86.46.4.83.92 1.09 1.55.269.63.399 1.4.399 2.29v3.75c0 .91-.13 1.68-.399 2.3-.27.62-.63 1.14-1.09 1.54-.459.4-1.009.69-1.639.86-.629.18-1.309.26-2.039.26zm1.889-8.72c0-.73-.17-1.26-.509-1.6-.34-.34-.8-.51-1.389-.51-.59 0-1.05.17-1.38.51-.329.34-.489.87-.489 1.6v3.75c0 .73.16 1.26.489 1.6.33.34.79.51 1.38.51.589 0 1.049-.17 1.389-.51.339-.34.509-.87.509-1.6v-3.75zm6.606 8.59c-.36 0-.689-.08-.989-.25a.828.828 0 01-.44-.76v-11.56c0-.35.17-.6.52-.76.34-.15.719-.23 1.129-.23.41 0 .78.08 1.129.23.34.15.52.41.52.76v9.71h4.797c.32 0 .56.15.72.44.15.29.23.62.23.99s-.08.69-.23.99a.76.76 0 01-.72.44h-6.666zM65.53 12.065c.73 0 1.409.09 2.038.26.63.18 1.18.46 1.64.86.46.4.829.92 1.089 1.55.27.63.4 1.4.4 2.29v3.63c0 .91-.13 1.68-.4 2.3-.27.62-.63 1.14-1.09 1.54-.46.4-1.009.69-1.639.86-.63.18-1.309.26-2.038.26h-3.718c-.43 0-.78-.1-1.04-.29-.26-.2-.39-.43-.39-.69v-11.58c0-.27.13-.5.39-.69.26-.2.61-.29 1.04-.29h3.718v-.01zm-1.87 2.86v7.84h1.87c.59 0 1.049-.17 1.389-.52.34-.34.51-.87.51-1.59v-3.63c0-.72-.17-1.25-.51-1.59-.34-.34-.8-.52-1.39-.52h-1.868v.01zm9.755-1.87c0-.27.09-.5.27-.69.18-.2.43-.29.74-.29h4.356c.72 0 1.39.07 2.02.22.629.15 1.178.4 1.648.75s.84.81 1.1 1.39c.63 1.36.53 3.27-.33 4.51-.48.69-1.09 1.18-1.82 1.46l2.57 3.27c.08.1.11.24.11.38 0 .21-.06.42-.19.62s-.29.39-.48.55c-.2.16-.42.29-.66.39-.25.1-.49.15-.73.15-.21 0-.41-.05-.6-.14-.189-.09-.309-.27-.449-.47l-2.878-4.22h-1.39v3.69c0 .34-.17.59-.519.76-.34.17-.72.25-1.13.25-.409 0-.779-.08-1.129-.25-.34-.17-.52-.42-.52-.76v-11.56l.01-.01zm3.278 1.87v3.47h2.079c.59 0 1.049-.14 1.389-.42.69-.57.69-2.05 0-2.63-.34-.28-.8-.42-1.39-.42h-2.078zm9.634-1.87c0-.35.17-.6.52-.76.34-.15.719-.23 1.129-.23.41 0 .78.08 1.13.23.339.15.519.41.519.76v11.56c0 .34-.17.59-.52.76-.34.17-.72.25-1.13.25a2.52 2.52 0 01-1.128-.25c-.34-.17-.52-.42-.52-.76v-11.56zm5.177.59c-.04-.11-.04-.19-.04-.23 0-.2.07-.38.2-.54.13-.16.31-.3.52-.42.21-.12.439-.21.679-.28.25-.07.48-.11.7-.11.27 0 .49.05.679.14.19.09.32.25.39.47l2.948 8.97 2.918-8.97c.07-.22.2-.38.39-.47.19-.09.42-.14.679-.14.22 0 .46.04.7.11.25.07.47.17.68.28.209.12.379.26.519.42.13.16.2.34.2.54 0 .04 0 .12-.04.23l-3.907 11.01c-.13.36-.38.64-.79.82-.41.18-.87.27-1.36.27a3.4 3.4 0 01-1.358-.27c-.41-.18-.66-.46-.79-.82l-3.937-11.01h.02zm17.309 3.93h3.158c.32 0 .57.13.74.39.169.26.249.56.249.89 0 .28-.08.56-.229.83-.15.27-.41.41-.76.41h-3.158v2.67h5.636c.32 0 .57.14.74.43.17.29.25.63.25 1.02 0 .34-.08.66-.23.96-.15.3-.41.45-.76.45h-7.485c-.36 0-.689-.08-.989-.25a.828.828 0 01-.44-.76v-11.54c0-.34.15-.59.44-.76.29-.17.619-.25.989-.25h7.485c.35 0 .6.15.76.45.15.3.23.62.23.96 0 .39-.08.73-.25 1.02-.17.29-.41.43-.74.43h-5.636v2.65z" fill="#fff"/></svg>