<svg width="255" height="219" fill="none" xmlns="http://www.w3.org/2000/svg"><circle cx="162" cy="93" r="93" fill="#DAFFF4"/><g filter="url(#filter0_d_53_128)"><path d="M25.542 82.578L36.37 63.09a96.85 96.85 0 00-3.356 5.025c-2.862 4.594-5.337 9.434-7.472 14.463z" fill="#CEFFF1"/><path d="M165.603 79.484l-.023-.061.004.009.019.052zm-11.185-19.729l-.146-.18-.001-.001.022.027.125.154zm-10.545-10.428l.224.174-.224-.174-.01-.008.004.004.006.004zm9.231 8.855l.001.002c.159.184.313.374.47.561-.158-.189-.314-.38-.474-.567l.003.004zm-10.898-10.129c-.105-.078-.209-.156-.315-.232.106.076.21.154.315.232zm3.968 3.18c.466.402.927.813 1.382 1.228l.289.264.002.002h.002c.268.25.529.508.795.763l.052.05c-.283-.273-.562-.548-.851-.815l-.289-.264a66.372 66.372 0 00-1.382-1.228zm23.325 44.617l.05.425-.05-.426zm-2.491-12.118l.143.478c-.047-.16-.097-.318-.143-.478zm.72 2.59c.03.117.056.234.086.35-.03-.116-.056-.233-.086-.35zm1.454 7.169c.023.144.042.288.062.43-.02-.142-.039-.286-.062-.43zm-2.871-11.976c.064.192.124.383.188.574-.064-.191-.124-.383-.188-.574zm-2.338-6.061c-.119-.271-.235-.544-.357-.813.122.269.238.542.357.813zM76.218 25.603c.263-.092.528-.178.793-.267-.265.09-.53.175-.793.267zm1.923-.641c.28-.09.562-.175.844-.261-.282.086-.564.171-.844.26zM41.935 172.956zm12.719 9.787a78.59 78.59 0 01-1.293-.824c.43.276.858.555 1.293.824zm-14.93-11.958zm19.972 14.825zm-2.309-1.256c-.279-.157-.56-.311-.835-.472.276.16.556.315.835.472zm-34.669-39.176zm4.684 9.4zm-2.04-3.74zM48.268 41.68zm59.081 152.054zm-2.762.328zm30.811-166.377zm-25.416 165.644zm24.483-8.167zm-50.171 8.431c.319.048.637.096.956.14.406.056.813.106 1.22.156-.408-.05-.814-.1-1.22-.156-.319-.043-.637-.092-.956-.14zm-5.433-1.006c.193.043.386.082.58.123-.193-.04-.388-.08-.58-.123zm9.162-170.136c.307-.057.613-.115.92-.169-.307.054-.613.112-.92.17zm37.098 1.539zm-41.101-.676zm10.145-1.79c.3-.033.6-.068.901-.1-.3.032-.6.067-.901.1zm21.553.423zm6.19 1.207zm-21.309-2.101c.234-.008.467-.02.702-.026-.235.006-.467.018-.702.026zm-72.19 135.21z" fill="#2FCEA1"/><path d="M157.572 63.968c.355.513.701 1.034 1.043 1.558l.175.263h.001l.14.225v.001l.004.004c.351.551.695 1.11 1.031 1.672h.001l.001.003c.098.162.195.326.291.49l.001.002c.187.317.365.641.548.962.182.321.37.637.547.962l.038.072c.342.628.672 1.266.995 1.907l.001.001c.08.157.158.315.235.473l7.993-14.383-.177-.286-.175-.277a80.555 80.555 0 00-1.451-2.173l-.383-.547a79.514 79.514 0 00-1.302-1.804c-.092-.124-.182-.25-.275-.374-.277-.367-.563-.724-.846-1.086l-7.572 13.628c-.285-.433-.57-.867-.864-1.293z" fill="#CEFFF1"/><path d="M29.836 116.051l.022.314-.022-.314zm1.85 12.075l.04.166-.04-.165v-.001zm143.192-62.358zm-145.21 46.356l-.002-.09.004.178-.002-.088zM164.9 50.231l-.036-.045-.225-.268.225.268.036.045zm-55.704-14.787h.005l-.028-.003.023.002zm-76.119 97.663c-.036-.109-.073-.217-.108-.327.158.503.322 1.003.49 1.501-.129-.381-.252-.766-.375-1.149l-.007-.025zm.722 2.142l-.03-.083c.07.195.136.391.207.585-.061-.166-.117-.333-.176-.5l-.001-.002zm-1.524-4.839l.13.478c-.045-.158-.086-.319-.13-.478zm97.65-89.542c-.332-.148-.667-.29-1.002-.432l.107.045c.299.13.598.255.895.387z" fill="#2FCEA1"/><path d="M141.929 163.934a74.31 74.31 0 01-1.153.93 74.648 74.648 0 01-12.122 7.767l-10.497 18.89a84.11 84.11 0 0014.438-5.427 87.757 87.757 0 01-3.978 1.799l13.312-23.959zm-47.038 30.531l7.993-14.385c-1.993.175-4.004.27-6.033.27-.784 0-1.562-.018-2.339-.044l-7.577 13.637c.162.019.323.04.485.058.417.045.836.085 1.255.124.311.028.62.061.933.086.44.035.882.064 1.325.093.292.019.583.042.877.057.495.028.993.046 1.491.063.244.009.486.022.73.029.743.02 1.49.031 2.239.031-.462 0-.92-.011-1.379-.019z" fill="#CEFFF1"/><path d="M137.797 45.056l.003.002-.277-.167.273.165h.001zm-1.885-1.134l.004.003.049.03-.049-.03-.247-.137.243.134zm-21.247-7.737l.017.003c.318.056.636.115.952.177.266.05.533.104.797.16.251.051.501.105.751.16l.087.018c-.278-.06-.557-.122-.838-.179a56.754 56.754 0 00-1.78-.341l.014.002zm-.815-.14z" fill="#2FCEA1"/><path d="M170.013 104.006a76.412 76.412 0 01-.653 10.562l13.302-23.94c.033.215.07.428.101.644-.11-.766-.231-1.53-.361-2.29-.032-.187-.062-.375-.095-.562a90.338 90.338 0 00-.525-2.688c-.043-.203-.089-.404-.133-.608a84.667 84.667 0 00-.516-2.208c-.05-.206-.099-.413-.151-.619a88.198 88.198 0 00-.7-2.58L169.776 98.62c.143 1.776.224 3.572.237 5.385zm13.483-5.686c.024.393.036.79.057 1.185l-20.243 36.431a77.147 77.147 0 01-6.013 10.941c-.122.185-.249.367-.373.55l-20.344 36.615a88.62 88.62 0 01-1.925 1.024c27.754-14.342 47.56-43.582 48.947-77.323a92.06 92.06 0 00.071-3.675 87.123 87.123 0 00-.034-2.611l-.006-.298a91.609 91.609 0 00-.137-2.839c-.016-.243-.034-.485-.051-.727-.039-.54-.089-1.074-.138-1.61.049.536.099 1.07.138 1.61.018.242.035.484.051.727z" fill="#CEFFF1"/><path d="M131.516 41.606l.128.064-.128-.064-.006-.003v.001l.006.002z" fill="#2FCEA1"/><path d="M30.774 66.813a80.528 80.528 0 0113.783-18.456l3.71-6.677c-16.354 13.918-27.9 33.791-31.263 56.264L23.38 86.47c1.492-6.827 4.028-13.464 7.395-19.657zm67.327-31.507a69.464 69.464 0 014.716-.165l.224.002c.263 0 .525.008.789.012.287.003.576.003.862.011.206.007.41.018.615.024.416.016.833.03 1.248.053.243.014.484.032.726.048l.041.003h.001l.192.014c.25.016.5.033.749.053l7.452-13.414a80.574 80.574 0 00-9.69-.902l-7.924 14.261h-.001zM43.005 152.807l-.081-.112c-.174-.241-.343-.486-.514-.728l-.068-.098-.019-.026-.022-.032c-.09-.127-.18-.253-.269-.381-.193-.282-.383-.569-.573-.854-.096-.144-.194-.286-.288-.431l-.13-.2-.115-.172-.003-.005c-.092-.142-.178-.287-.268-.43l-.104-.162c-.07-.112-.143-.223-.214-.334-.098-.158-.194-.319-.29-.477l-.127-.203c-.079-.129-.154-.258-.23-.387l-.155-.257c-.166-.279-.327-.562-.489-.844l-.098-.168-.073-.129-.007-.012-.107-.186a68.874 68.874 0 01-.681-1.243l-.063-.116c-.09-.17-.18-.339-.268-.509l-.065-.123-.039-.075-7.915 14.246a81.491 81.491 0 005.832 7.842l7.443-13.394zM65.884 33.123a73.92 73.92 0 014.192-1.874l2.35-4.228a86.56 86.56 0 00-14.275 7.352l-2.693 4.846c3.327-2.28 6.787-4.37 10.426-6.096zM54.906 165.446l-.171-.143-.026-.022c-.136-.11-.272-.219-.405-.331l-.2-.172c-.29-.245-.579-.495-.867-.748-.117-.101-.236-.201-.352-.304l-.243-.22-.256-.225c-.211-.192-.417-.389-.625-.582l-.262-.24-.113-.107-7.086 12.75a79.517 79.517 0 003.6 2.953l7.006-12.609zM30.032 103.32c2.151-21.702 13.4-40.83 29.593-53.26l-.002.002 8.435-15.179c-.327.177-.658.347-.983.529-3.462 1.976-6.833 4.1-10.005 6.5a92.486 92.486 0 00-5.631 4.54l-35.43 63.762v-.001a88.793 88.793 0 001.232 16.125l12.791-23.021v.003zm89.897-65.975a51.329 51.329 0 00.968.265c.25.07.501.14.75.212l.007.002.002.002c.317.093.632.19.947.288h.001l.023.007c.24.074.481.147.72.224.337.109.672.224 1.007.339.224.075.447.15.669.228.366.13.728.264 1.091.399.188.07.378.138.566.21-.188-.072-.378-.14-.566-.21-.31-.115-.62-.229-.932-.34l7.012-12.62a78.312 78.312 0 00-4.377-1.555l-7.093 12.766c-.264-.074-.528-.148-.795-.217z" fill="#CEFFF1"/><path d="M165.37 130.86l.03-.082.001-.005-.031.088v-.001zm-119.1 26.104l.358.414.001.002-.36-.416h.002zm121.517-34.04l.021-.082.001-.001-.022.084v-.001zm-39.675-40.572c.012.106.019.215.029.322l.004.038c-.011-.12-.02-.24-.033-.36zm36.176 51.292c.058-.142.117-.284.173-.425h.001l-.174.425zm-4.027-65.458c.187.318.365.642.547.963-.182-.321-.36-.645-.547-.963zm-32.058 15.199c.009.143.014.288.022.433l.001.029c-.008-.154-.014-.31-.023-.462zm-26.105 31.262c-.111-.018-.224-.03-.336-.044.134.018.269.035.402.057l-.066-.013zm.643.121l-.29-.054c.126.024.253.048.378.075l-.088-.021zm.378.092c.121.03.242.059.362.094-.12-.035-.241-.064-.362-.094zm.649.179zm1.416.526l-.167-.069c.111.048.221.096.33.147l-.163-.078zm23.07-31.14c.007.196.007.395.009.592v.019c-.002-.204-.002-.409-.009-.611zm.015 1.055c-.001.347-.009.697-.023 1.049v.013c.014-.356.022-.71.023-1.063zm25.336 66.515l.034-.043.001-.001-.036.045.001-.001zm13.478-26.412l.012-.044.002-.003-.014.048v-.001zM126.821 76.44c.055.162.105.326.157.49l.029.09c-.06-.195-.121-.388-.186-.58zm-.336-.935c.042.11.08.222.121.332l.05.138c-.056-.157-.112-.314-.171-.47zm39.072 3.858l.018.046-.009-.023-.009-.023-.014-.037-.106-.278c-.097-.259-.202-.512-.301-.769l-.093-.239c.131.337.267.67.394 1.008l.12.315zm-39.439-4.776l.096.24.061.145a59.794 59.794 0 00-.157-.385zm1.607 5.247l.027.131-.045-.221.018.09zm-.101-.5l.012.056.015.068-.027-.124zm35.025-6.722a57.417 57.417 0 00-.259-.521l-.001-.001c.087.173.174.347.26.522zm-36.931 1.077l.073.161.069.15a17.2 17.2 0 00-.142-.311zm38.612 2.577c-.071-.17-.148-.336-.221-.503a26.5 26.5 0 00-.136-.31c.12.272.241.54.357.813zm-36.851 2.457l.065.265c-.046-.193-.089-.387-.139-.58.027.105.049.211.074.315zm16.481 83.482l.188-.166-.188.167v-.001zm4.066-3.853l.109-.11.001-.002-.111.113.001-.001zM127.921 80.93l.005.034-.007-.045.002.01zm14.425-32.773l-.001-.001-.228-.17.229.171zM125.59 73.424l.024.048-.045-.093.021.045zm2.396 7.909l.028.225.008.05-.036-.275zm-2.701-8.528l.048.095.081.155-.129-.25zM98.5 114.436l-.06-.004.225.017-.165-.013zm29.322-34.108l.023.136.012.058-.035-.194zm-39.533 55.455a12.828 12.828 0 01-.054-.094l.054.094zM29.701 113.54l.022.486-.017-.394-.005-.092zm4.099 21.711c.059.167.115.334.176.5.053.147.11.293.165.439l-.09-.25c-.084-.23-.169-.458-.25-.689zm-3.82-17.41l.002.015.025.262-.004-.039-.023-.238zm58.793 18.671c.078.108.153.217.233.323l.182.23a14.074 14.074 0 01-.415-.553zm3.984 3.643c.183.106.37.208.56.304l.17.081a12.094 12.094 0 01-.73-.385zm-2.818-2.226c.105.111.21.222.319.328l.185.172a12.19 12.19 0 01-.504-.5zm.658.644c.197.178.396.353.603.519l.017.013c-.213-.17-.419-.348-.62-.532zm1.626 1.256c.171.11.346.216.523.319a12.68 12.68 0 01-.687-.431l.164.112zm-.948-.681zm-58.15-5.893v.001l-.04-.124c.123.384.245.769.375 1.15l.091.261c-.128-.374-.25-.75-.372-1.126l-.054-.162zm1.375 3.887l-.14-.365.004.008c.05.136.1.273.154.408.052.135.108.269.161.403l-.043-.112c-.045-.114-.092-.227-.136-.342zm6.54 12.803l.13.2-.083-.13-.046-.07zm-2.172-3.58l.007.014v-.003l-.007-.011zm1.179 2.001c.096.158.192.318.29.477l-.223-.37-.067-.107zm.503.81l.105.163-.018-.028-.086-.135zm-1.504-2.502c.161.282.322.565.488.844-.13-.219-.255-.441-.383-.662l-.105-.182zm-.44-.774c-.067-.121-.131-.243-.198-.364-.109-.2-.22-.399-.329-.6.223.417.45.831.681 1.243l-.098-.181-.056-.098zm-3.756-7.879l-.03-.071c.06.147.117.294.177.44l.09.221.044.105-.152-.371-.13-.324zm.617 1.482c.057.135.112.27.17.404l.044.101.082.179c-.095-.215-.188-.433-.28-.648l-.016-.036zm.759 1.706l.07.159.008.016.133.276-.035-.075c-.059-.125-.119-.25-.176-.376zm1.522 3.102l.268.509-.09-.173c-.06-.111-.119-.223-.178-.336zm37.836 32.587l.096.032v.001l-.1-.035.004.002zm-27.748-18.16l.274.301.001.001-.276-.303v.001zm30.379 18.985l.01.003h.003l-.014-.004.001.001zm16.239-63.859l-.236-.052.287.064-.051-.012zm-8.394 65.619l.254.04-.254-.04zm6.918-66l-.327-.097c.172.053.345.105.52.155l-.193-.058zM80.707 178.39l.212.053h.001l-.216-.054.003.001zm-23.762-11.359v.001l.088.066.001-.001-.089-.066zm40.298-52.7l-.108-.01.118.011-.01-.001zm-1.52-.216l-.216-.038c.12.022.238.044.359.064l-.143-.026zm-22.66 61.877l.172.064.001.001-.174-.065zm-9.623-4.615l.213.124h.001l-.216-.125.002.001zm23.133-40.085zm.494 1.879l.1.293c.045.125.097.247.145.37a14.23 14.23 0 01-.245-.663zm-.305-1.014l.012.053a12.389 12.389 0 00-.012-.053zm38.368-59.644l.056.103c-.059-.112-.117-.225-.176-.335l.12.232zm-34.543 40.15l-.032-.014a23.877 23.877 0 01.032.014zm-4.176 17.541c.025.234.054.468.09.699l.032.168a13.8 13.8 0 01-.122-.867zm5.195 49.939l.233.017h.002l-.236-.017zm.26-67.007l-.144-.052a18.187 18.187 0 01-.394-.139l-.037-.013c.19.07.382.138.575.204zm-39.48 50.145l.255.226v-.001l-.255-.225zM41.977 151.35l-.141-.212a64.032 64.032 0 01-.377-.562c.19.285.38.572.573.854l-.03-.046-.025-.034zm75.954-44.44c.152.141.306.28.455.425-.218-.21-.44-.417-.665-.62l.029.027.181.168zm.648.609zm2.326 2.626l.094.118a27.171 27.171 0 00-.613-.769c.169.203.332.412.494.621l.025.03zm.707.96l.178.248a25.22 25.22 0 00-.677-.942c.144.19.279.386.417.58l.082.114zm-2.056-2.567zm3.66 5.132zm.064-44.164zm-6.402 36.485l-.176-.146.12.101.056.045zm7.329-35.089l.033.052a30.264 30.264 0 00-.376-.595c.117.179.23.361.343.543zm-8.212 34.391c-.113-.084-.224-.169-.338-.252l.2.152.138.1zm.577.445c-.167-.134-.337-.262-.507-.391l.162.129c.114.087.233.171.345.262zm8.332 11.681zm-7.441-10.934c-.168-.147-.339-.29-.51-.433l.174.15c.111.095.225.187.336.283zm8.639 15.414c.027.145.056.287.08.433-.053-.322-.112-.64-.175-.957.034.173.063.348.095.521v.003zm-3.231-8.828c.113.195.229.386.337.584-.185-.339-.38-.673-.58-1.003.065.107.126.218.189.327l.054.092zm4.43-35.044zm-39.245 8.527c-.011.283-.011.564-.007.843l.002.058c-.006-.297-.008-.598.005-.901zm36.594-14.909l.077.13c-.103-.182-.205-.364-.312-.54.08.134.157.272.235.41zm.174.299l.018.033.09.156-.108-.19zm-10.567-10.34c.13.068.256.142.386.213l.087.049c.142.077.286.153.425.233a25.49 25.49 0 00-.898-.495zm11.908 70.139zm.237-7.802zm-4.133-11.856l.179.278a27.501 27.501 0 00-.484-.751c.076.113.148.231.223.346l.082.127zm3.073 6.652zm1.179 6.786zm.036 1.342zm-11.284-22.092l.128.088a25.3 25.3 0 00-.728-.498l.18.123c.142.095.281.19.42.287zM88.095 88.285l.018.207v.003c-.02-.203-.03-.41-.04-.616.006.136.011.272.022.406zm4.058 8.533zm28.201-30.753c.111.11.217.226.328.338l.065.065c-.131-.135-.261-.271-.393-.403zM91.56 96.228zm-39.8 66.471c.209.194.414.391.626.582-.21-.19-.416-.387-.623-.579l-.002-.003zm40.988-65.355l.042.032a12.527 12.527 0 01-.042-.032zm29.324-29.403l.086.107.25.303c-.11-.138-.223-.274-.336-.41zm-28.49 30.037l.009.006h.002l-.04-.027.03.02zm-4.361-5.288l.048.104.065.132a13.946 13.946 0 01-.16-.353l.047.118zm-.244-.592zm32.377-24.981l.041.044-.116-.128.075.084zM88.605 91.019l.027.098.042.123a11.91 11.91 0 01-.123-.42l.053.199zm32.833-23.81l.078.088.235.264a16.363 16.363 0 00-.313-.352zm-.658-.708l.054.059.232.239-.286-.298zM89.63 93.523c.07.132.145.261.219.39-.099-.17-.192-.343-.282-.518l.063.128zm-1.412-4.197l.006.034.015.076c-.029-.172-.05-.346-.073-.521.018.137.03.276.052.411zm25.168 14.24l-.181-.1.036.02.145.08zm6.708-37.747l.026.025.176.167-.202-.192zm-17.354 7.097zm11.536 31.193l.118.072a25.557 25.557 0 00-.988-.604c.137.078.269.166.405.248.155.093.311.187.465.284zM96.851 180.35zm-43.613-16.318l-.001-.001a64.626 64.626 0 000 .001zm69.442-95.334l.057.077a30.098 30.098 0 01-.057-.077zM88.378 90.145l.04.173.01.034a10.835 10.835 0 01-.1-.464l.05.257zm26.993-27.915l.13.078.055.033c.158.096.317.19.474.289a25.635 25.635 0 00-.659-.4zm6.637 5.636l.009.01-.016-.02.007.01zm-8.985 35.5a19.564 19.564 0 00-.638-.343c.113.058.223.121.335.181l.303.162zm6.988-37.625l.063.059a22.624 22.624 0 00-.461-.435c.135.123.265.25.398.376z" fill="#2FCEA1"/><path d="M135.912 43.922l-.243-.134c-7.566-3-15.828-4.647-24.53-4.647-38.725 0-71.452 32.501-73.1 72.602a75.595 75.595 0 00.054 7.381l-.62-.298.62.298c.124 2.2.344 4.371.656 6.509.035.243.073.484.11.726a71.576 71.576 0 003.498 13.557c10.608 6.347 23.401 10.032 37.32 10.032.726 0 1.45-.013 2.173-.033a29.131 29.131 0 01-1.494-1.371l-.134-.139a25.224 25.224 0 01-1.06-1.136l-.108-.12c-.155-.179-.305-.362-.456-.545l-.183-.223a29.884 29.884 0 01-.427-.549l-.178-.237c-.14-.189-.279-.381-.415-.573l-.154-.222a33.31 33.31 0 01-.412-.62l-.1-.158a26.697 26.697 0 01-2.117-4.065l-.037-.089c-.11-.27-.217-.542-.319-.816l-.042-.112c-.102-.277-.2-.557-.294-.84l-.022-.067a27.383 27.383 0 01-1.106-4.775v-.001a28.413 28.413 0 01-.25-5.104h13.804l1.664.8c-.212 5.173 2.394 9.681 6.405 11.998l.064.026c1.391.537 2.905.83 4.496.83a13.03 13.03 0 004.565-.83 13.46 13.46 0 002.901-1.505 14.326 14.326 0 003.326-3.154 14.443 14.443 0 002.404-4.756 14.417 14.417 0 00.556-3.409 13.69 13.69 0 00-1.059-5.917c-.17-.398-.358-.785-.562-1.161a12.727 12.727 0 00-4.776-4.923 12.444 12.444 0 00-4.567-.862c-3.973 0-7.712-.894-11.045-2.496l-1.665-.8.299.133c-.123-.057-.244-.116-.364-.174l-.096-.046a24.8 24.8 0 01-.788-.403l-.06-.032a25.653 25.653 0 01-7.052-5.593l-.144-.163a26.263 26.263 0 01-2.038-2.659l-.059-.09c-.282-.425-.55-.858-.807-1.301l-.14-.242a27.528 27.528 0 01-.764-1.431l-.006-.015a27.071 27.071 0 01-.703-1.555l-.084-.214c-.18-.444-.348-.896-.505-1.352l-.11-.322a28.118 28.118 0 01-1.38-9.994c.52-12.637 9.131-23.244 20.403-26.69.312-.097.625-.188.94-.274l.064-1.533.278-6.756h13.517l1.664.801-.33 8.015c1.031.36 2.031.782 2.996 1.264l.076.038.185.092c-.2-.103-.4-.206-.602-.305l1.664.801c9.141 4.394 15.266 14.062 14.803 25.348h-13.809l-1.664-.8v-.003c.013-.335.011-.666.002-.996l-.008-.211c-.014-.322-.037-.64-.073-.954l-.02-.151a13.486 13.486 0 00-.136-.863l-.025-.144a13.62 13.62 0 00-.218-.912l-.05-.172a13.29 13.29 0 00-.657-1.785l-.06-.135a13.272 13.272 0 00-.429-.842l-.033-.056a13.243 13.243 0 00-.491-.805l-.027-.041a13.15 13.15 0 00-.567-.781l-.049-.064a12.768 12.768 0 00-1.325-1.432l-.03-.028a12.538 12.538 0 00-2.261-1.648 12.432 12.432 0 00-4.508-.84c-7.273 0-13.442 6.132-13.752 13.663-.211 5.152 2.374 9.643 6.357 11.968l.275.115.093.032c.622.224 1.268.4 1.932.523l.156.03c.315.054.635.096.959.127l.178.014a12.6 12.6 0 001.015.045c.441 0 .878.012 1.314.034.143.008.286.021.428.03.29.02.58.04.867.069.169.017.336.039.503.059.259.031.517.064.773.103.177.026.352.057.528.087a28.351 28.351 0 011.262.25c.235.053.469.111.702.17.176.046.353.091.528.14.232.064.461.135.691.206.17.053.341.104.51.16.234.079.465.164.696.249.16.058.32.113.477.173a28.27 28.27 0 011.532.663c.171.081.345.16.516.244l-.283-.141 1.664.799c9.159 4.403 15.271 14.161 14.806 25.463a29.122 29.122 0 01-.522 4.401c14.613-11.635 24.227-28.397 25.101-47.03.411-8.785-1.158-17.153-4.349-24.766l-.045-.102-.121-.277a51.784 51.784 0 00-.897-1.99c-.07-.149-.138-.3-.21-.448a58.05 58.05 0 00-.713-1.423l-.075-.14a54.22 54.22 0 00-1.153-2.096 57.579 57.579 0 00-.995-1.671l-.037-.063a61.94 61.94 0 00-1.389-2.12 65.355 65.355 0 00-1.032-1.466l-.145-.201a59.628 59.628 0 00-1.217-1.595c-.105-.134-.212-.267-.319-.4a64.73 64.73 0 00-1.089-1.323l-.232-.274c-.202-.237-.415-.466-.621-.7l.141.09c.584.37 1.164.746 1.736 1.134-.277-.187-.559-.365-.839-.549-.299-.195-.596-.395-.898-.587-.16-.102-.32-.202-.482-.303h-.001l-.272-.165a67.535 67.535 0 00-1.494-.9l-.118-.068zm13.494 10.298c.123.12.242.243.364.364l-.363-.363c-.233-.232-.474-.454-.711-.682l-.052-.05c.254.244.512.483.762.73zM42.341 151.869l.069.098c.17.243.34.487.513.728l.082.112.04.052a63.867 63.867 0 01-.704-.99zm74.616-3.244zm-7.624 5.008l-.003.001c-.666.298-1.344.572-2.033.816l-.001.001a28.14 28.14 0 002.037-.818zm-63.063 3.331l.36.416.028.032a76.514 76.514 0 01-.498-.581l.11.133zm42.06-3.027l-.082-.034.212.092-.13-.058zm16.672 5.681l.186-4.511.143-.042-.143.042-.186 4.511zm-57.167-.881l.276.303.024.027-.374-.413.074.083zm-8.226-11.097a61.58 61.58 0 01-.458-.784c.128.221.253.443.383.662l.155.257-.08-.135zm.505.832l.223.37.214.334.086.135a64.31 64.31 0 01-.523-.839zm66.141 6.326h-.001c.326-.102.649-.21.97-.324l-.037.012c-.308.109-.619.214-.932.312zm-61.465.369l.073.092c.111.14.228.274.341.414-.166-.205-.333-.41-.496-.616l.083.11zM34.14 136.19l.045.121c-.046-.123-.09-.248-.135-.371l.09.25zm1.32 3.298l.007.017.017.038-.024-.055zm-.823-2.004l.043.111c.046.119.094.237.141.354l.03.072a79.877 79.877 0 01-.214-.537zm1.8 4.177l.023.048-.058-.124.035.076zm2.225 4.338l.098.18.107.186.006.01c-.07-.125-.142-.25-.211-.376zm2.425 4.016l.083.129c.094.145.193.288.289.432a74.212 74.212 0 01-.371-.561zm48.223 4.318l-.058-.022.256.101-.197-.079zm-32.363 12.718l.088.066.06.044-.292-.223.144.113zm8.818 5.622l.173.092-.084-.044-.089-.048zm-32.587-39.257l-.052-.16-.002-.001.054.161zm19.45 30.079c-.29-.261-.579-.526-.865-.793.207.192.413.389.623.579l.255.225-.013-.011z" fill="#2FCEA1"/><path d="M102.885 180.081c9.127-.802 17.832-3.399 25.769-7.45a73.376 73.376 0 005.556-3.151 74.351 74.351 0 007.72-5.546 75.802 75.802 0 002.03-1.727l.188-.168a76.188 76.188 0 003.877-3.687l.11-.111a76.94 76.94 0 005.469-6.247l.034-.043a77.251 77.251 0 003.286-4.523c.124-.184.251-.366.373-.551a77.092 77.092 0 006.013-10.941c.34-.757.663-1.522.979-2.292l.173-.425c.315-.78.619-1.566.908-2.359l.031-.087c.286-.784.557-1.576.817-2.372l.097-.295c.27-.836.527-1.677.768-2.525l.013-.045a81.39 81.39 0 00.692-2.611l.021-.084a76.785 76.785 0 002.142-15.098 75.446 75.446 0 00-.175-9.122 75.238 75.238 0 00-.227-2.346l-.05-.426a72.304 72.304 0 00-.255-1.927 69.976 69.976 0 00-.437-2.696l-.024-.118a66.702 66.702 0 00-.534-2.602 69.186 69.186 0 00-.435-1.834c-.03-.116-.056-.233-.086-.35a72.918 72.918 0 00-.577-2.112l-.143-.477a75.046 75.046 0 00-.51-1.644c-.063-.191-.124-.382-.188-.573a69.707 69.707 0 00-.708-2.034l-.018-.05-.009-.023-.018-.046c-.039-.105-.081-.21-.121-.315-.126-.338-.262-.671-.393-1.007-.106-.271-.209-.544-.319-.814-.061-.15-.122-.3-.185-.45-.07-.17-.137-.342-.209-.511-.116-.273-.237-.541-.357-.812-.119-.271-.234-.543-.357-.812l-.075-.16c-.056-.122-.115-.24-.172-.36a61.459 61.459 0 00-.981-2.032 64.685 64.685 0 00-.995-1.907l-.037-.072c-.177-.325-.365-.641-.548-.962-.182-.32-.36-.645-.547-.962l-.147-.248-.146-.246-.001-.001c-.336-.562-.68-1.12-1.032-1.672l-.004-.004-.141-.227-.175-.262a71.508 71.508 0 00-1.042-1.557l-.318-.456-.187-.26a69.565 69.565 0 00-.903-1.25c-.078-.104-.153-.21-.231-.313l-.148-.19c-.089-.118-.181-.232-.271-.348-.303-.395-.606-.79-.916-1.178-.101-.125-.204-.248-.306-.373l-.022-.028c-.228-.28-.462-.553-.696-.828-.157-.187-.311-.378-.47-.562l-.001-.001c-.101-.118-.201-.237-.303-.354a68.279 68.279 0 00-1.309-1.45l-.137-.153c-.109-.117-.22-.232-.33-.348a67.079 67.079 0 00-1.255-1.293c-.122-.122-.241-.244-.364-.365-.25-.248-.507-.486-.762-.73-.265-.254-.526-.512-.795-.762h-.001l-.299-.272a68.92 68.92 0 00-1.37-1.22c-.138-.119-.275-.238-.415-.357a62.89 62.89 0 00-1.666-1.377l-.23-.179-.005-.003a61.95 61.95 0 00-1.518-1.163l-.228-.17-.229-.169a66.988 66.988 0 00-1.774-1.256l-.099-.066a65.587 65.587 0 00-1.735-1.135l-.141-.089c.206.234.419.462.621.7l.231.273c.37.437.734.879 1.09 1.323l.319.4a62.15 62.15 0 011.217 1.595l.145.202a62.21 62.21 0 011.326 1.899 59.15 59.15 0 011.094 1.686l.038.063a57.173 57.173 0 011.255 2.128c.307.542.605 1.088.893 1.64l.075.14c.244.47.482.944.713 1.422.072.15.139.3.21.45a57.35 57.35 0 01.897 1.99l.121.275.045.103c3.191 7.612 4.76 15.981 4.349 24.765-.874 18.634-10.488 35.395-25.101 47.031-2.15 10.976-10.45 19.783-20.825 22.551l-.342 8.295H92.993l-1.663-.8h-.001l.33-8.021a25.349 25.349 0 01-2.653-1.088l-1.664-.801.093.043-.052-.026a25.83 25.83 0 01-.565-.281c-.12-.061-.24-.12-.358-.183a21.555 21.555 0 01-.616-.34l-.28-.156a26.03 26.03 0 01-.847-.516c-.112-.072-.221-.147-.333-.22-.17-.112-.34-.224-.509-.34-.131-.091-.26-.185-.39-.278a24.799 24.799 0 01-.427-.313c-.136-.102-.27-.207-.404-.311a28.989 28.989 0 01-.796-.648l-.008-.008c-.722.02-1.447.033-2.173.033-13.918 0-26.712-3.685-37.32-10.032 5.598 15.299 16.225 27.925 29.915 35.757.265.105.524.217.79.319l.174.066a64.22 64.22 0 002.344.839l.1.034c.837.28 1.681.544 2.534.791l.01.003c.82.238 1.647.458 2.48.664l.216.054a65.84 65.84 0 005.14 1.041l.255.04c1.74.274 3.503.482 5.29.619l.234.018a71.302 71.302 0 005.012.19 70.147 70.147 0 006.034-.271zm-64.881-35.288l-.078-.146.09.173.063.116c.108.201.22.4.33.6-.136-.248-.273-.494-.405-.743zm3.998 6.592l.03.045c.088.128.179.254.269.382l-.3-.427zm83.37-16.194zm-1.333 3.61zm-60.601 32.575l.216.126.077.043c-.118-.069-.235-.136-.352-.206l.06.037zm-8.532-5.929l.164.129c-.112-.092-.225-.18-.336-.272l.172.143z" fill="#2FCEA1"/><path d="M90.35 154.704l-.034-.011.263.089-.229-.078z" fill="#2FCEA1"/><path d="M146.07 32.754l-8.321-4 .254.128h.001c.344.167.682.344 1.023.517.341.171.685.34 1.024.515a79.508 79.508 0 012.884 1.577l.138.083a73.802 73.802 0 012.69 1.634c.232.148.459.302.69.452.462.299.926.594 1.379.902l.123.082a79.8 79.8 0 012.664 1.905 76.59 76.59 0 011.817 1.392l.277.216a77.993 77.993 0 011.991 1.644c.167.143.331.287.497.43.276.238.545.485.818.727.272.242.547.48.816.727l.116.106.246.222a81.91 81.91 0 011.859 1.78c.147.146.29.293.436.439a84.284 84.284 0 011.499 1.544c.13.139.263.275.393.414.586.63 1.162 1.268 1.728 1.916.122.14.241.283.363.424.394.457.78.922 1.164 1.389l.225.267.036.046c.121.147.243.294.362.443.254.315.498.64.747.959.283.362.569.719.846 1.086.093.124.183.25.275.374.442.595.876 1.196 1.301 1.804a83.501 83.501 0 011.835 2.72l.175.277.177.286c.357.565.71 1.134 1.055 1.709l.353.593c.446.758.884 1.524 1.306 2.298l.045.085c.277.509.54 1.026.805 1.542.126.246.26.49.385.737l.311.623c.364.738.72 1.48 1.064 2.232l.092.195a84.4 84.4 0 011.06 2.448c.089.212.176.427.263.64.293.72.577 1.443.851 2.174l.145.38c.308.836.603 1.68.886 2.529.071.213.139.427.209.642.233.717.458 1.44.672 2.167l.078.257.076.257.008.027c.246.855.479 1.715.7 2.581.052.206.101.413.152.618.181.732.352 1.47.515 2.209.044.203.091.405.134.608.188.89.362 1.786.524 2.688.033.186.063.375.095.563.13.758.251 1.522.361 2.289.034.225.067.45.098.677l.036.298c.11.819.212 1.64.299 2.465.016.155.029.311.044.466.027.267.044.537.067.804.049.537.099 1.072.138 1.61.017.243.035.485.051.728a91.6 91.6 0 01.137 2.839l.006.297c.025.867.035 1.738.033 2.612a96.016 96.016 0 01-.07 3.675c-1.387 33.741-21.193 62.981-48.947 77.323l-.191.096c-.596.306-1.196.606-1.8.899l-.07.033a84.092 84.092 0 01-22.324 7.187l-.288.048c-.811.137-1.625.264-2.442.376l-.191.028c-.891.121-1.784.229-2.682.321l-.08.008a80.782 80.782 0 01-3.114.252c-.639.04-1.279.073-1.921.098-.241.01-.481.021-.723.029a80.614 80.614 0 01-4.8.012c-.242-.006-.484-.019-.728-.028a80.84 80.84 0 01-1.49-.063c-.295-.016-.586-.039-.878-.058-.443-.029-.886-.057-1.326-.093-.312-.025-.621-.057-.932-.086a86.01 86.01 0 01-1.255-.124c-.162-.018-.323-.039-.485-.057l-.465-.056a62.427 62.427 0 01-2.176-.295 68.626 68.626 0 01-2.15-.351 67 67 0 01-2.124-.408c-.194-.04-.386-.082-.58-.124-.193-.041-.387-.08-.58-.124l-.313-.072c-.21-.046-.42-.094-.628-.142a98.913 98.913 0 01-1.15-.28c-.31-.079-.618-.156-.926-.237a64.412 64.412 0 01-1.148-.315 85.73 85.73 0 01-.904-.255c-.206-.061-.411-.125-.617-.189l-.539-.163c-.29-.09-.582-.178-.872-.272l-.236-.079a94.61 94.61 0 01-.942-.316c-.274-.093-.55-.185-.824-.281-.417-.147-.83-.301-1.243-.454-.244-.092-.49-.18-.734-.273-.494-.189-.982-.387-1.471-.584-.16-.066-.32-.128-.481-.193a86.27 86.27 0 01-1.923-.828c-.163-.073-.323-.151-.485-.225-.236-.107-.47-.218-.706-.327-.236-.109-.473-.216-.706-.327l-.093-.044 8.322 4c10.36 4.981 21.985 7.754 34.351 7.754 46.264 0 85.362-38.834 87.331-86.741 1.442-35.104-17.45-65.336-45.853-78.989z" fill="#1D7B61"/><path d="M42.357 139.915a71.585 71.585 0 01-3.497-13.556 73.81 73.81 0 01-.766-7.236l-.62-.298.62.298a75.47 75.47 0 01-.055-7.381c1.648-40.1 34.375-72.602 73.1-72.602 8.703 0 16.964 1.647 24.53 4.647a66.887 66.887 0 00-2.171-1.185 60.74 60.74 0 00-1.714-.864l-.273-.135a57.04 57.04 0 00-1.035-.481c-.185-.085-.369-.174-.556-.257-.294-.131-.594-.256-.89-.384l-.107-.046c-.203-.086-.403-.177-.606-.262l-.246-.097a62.38 62.38 0 00-1.385-.553c-.205-.079-.411-.152-.615-.228-.347-.128-.693-.259-1.042-.381-.232-.083-.468-.16-.703-.24a58.72 58.72 0 00-.973-.327c-.248-.08-.498-.156-.748-.233h-.001a56.947 56.947 0 00-.948-.289h-.001c-.258-.076-.518-.148-.777-.221-.313-.087-.625-.175-.94-.258-.264-.07-.529-.136-.796-.203a66 66 0 00-.942-.23 64.535 64.535 0 00-.81-.184l-.12-.026-.088-.02a74.436 74.436 0 00-2.5-.497l-.017-.002a87.216 87.216 0 00-.825-.143 69.575 69.575 0 00-.974-.151 56.021 56.021 0 00-.827-.121c-.194-.027-.389-.05-.583-.074-.136-.018-.272-.037-.408-.053-.275-.033-.548-.068-.823-.098-.341-.037-.681-.07-1.023-.101h-.006c-.267-.026-.534-.052-.802-.074l-.099-.007-.031-.002a53.2 53.2 0 00-.749-.053l-.191-.014h-.001c-.259-.017-.517-.037-.776-.05a65.032 65.032 0 00-1.167-.05c-.233-.009-.463-.021-.695-.028-.284-.008-.571-.008-.855-.01-.263-.005-.525-.012-.788-.013l-.225-.002a69.464 69.464 0 00-15.185 1.696l-.004.002a69.741 69.741 0 00-5.054 1.34l-.01.003a70.676 70.676 0 00-4.91 1.703l-.017.006a71.444 71.444 0 00-4.756 2.05l-.015.007a72.45 72.45 0 00-4.59 2.384l-.013.008a72.942 72.942 0 00-4.412 2.704l-.008.005a75.57 75.57 0 00-4.217 3.01c-16.192 12.43-27.442 31.559-29.593 53.261a76.62 76.62 0 00-.18 2.097l-.012.145a70.693 70.693 0 00-.124 2.179v.002a81.292 81.292 0 00-.054 1.869c-.003.195 0 .391-.002.588-.005.423-.009.847-.006 1.269.002.189.007.377.011.565l.003.089v.089l.012.549c.003.184.005.369.01.551l.01.228.005.092.018.394.003.084.021.482c.025.486.054.972.088 1.455v.004l.022.314c.011.173.022.348.035.522.015.179.032.357.049.536l.005.065.002.002v.002l.025.278.007.071.023.238.003.039.046.496.078.687c.039.344.078.688.122 1.03.03.239.064.476.096.714l.085.591c.032.215.06.431.093.647.116.744.245 1.484.383 2.221.029.151.06.301.088.453a69.84 69.84 0 00.43 2.058c.083.372.17.741.26 1.11v.001l.038.165.055.225c.157.635.32 1.265.495 1.892v.002c.044.16.085.32.13.478.18.631.365 1.256.56 1.879l.004.013c.034.11.072.218.108.328l.007.024.041.124.053.16c.122.376.245.752.373 1.126.07.209.145.417.218.624l.03.083v.002c.083.231.168.459.25.689l.136.371c.058.156.116.312.175.466.047.122.092.244.14.365.044.115.09.228.136.342.07.179.141.359.213.538.043.107.085.215.13.323l.152.371c.107.259.218.515.329.772l.022.051a59.307 59.307 0 00.743 1.67c.057.126.117.251.175.376l.058.123c.381.81.776 1.612 1.187 2.404l-.001.001.038.075.066.123c.058.113.118.225.178.336l.077.146c.133.249.27.496.405.744.066.12.13.243.198.363l.055.099.211.376.001.002.073.129.099.169.105.181c.151.262.303.524.458.784l.08.135c.077.129.152.259.23.387l.128.203.067.107c.172.281.348.561.523.839l.018.027c.09.143.176.288.268.43l.003.005.115.172.047.07c.246.377.495.751.748 1.123l.142.212.024.034.299.427.022.032.019.026a65.163 65.163 0 002.367 3.187c.163.207.33.411.496.616a66.368 66.368 0 002.556 2.981l.375.413c.496.536 1 1.066 1.513 1.586l.043.043a66.41 66.41 0 001.694 1.655v.002l.113.107.262.24.002.002c.287.267.575.532.865.793l.014.011v.001l.243.22c.116.103.235.203.352.304l.002.002c.286.251.574.5.866.746l.199.172c.133.113.27.221.404.331l.027.023c.11.091.223.18.335.272.57.463 1.148.916 1.733 1.361l.292.223c.65.488 1.307.965 1.975 1.429l.061.042c.7.486 1.41.957 2.128 1.416l.156.097a65.622 65.622 0 002.317 1.4c.671.387 1.348.764 2.034 1.128l.088.048.084.044a65.15 65.15 0 004.606 2.202l.207.09c.502.214 1.013.413 1.522.616-13.69-7.832-24.318-20.457-29.916-35.756z" fill="#2FCEA1"/><path d="M109.113 59.579c.567.155 1.125.333 1.675.525l.33-8.014-1.665-.801-.34 8.289zm-2.229 14.377a11.802 11.802 0 00-.934-.374l-.122-.043a11.757 11.757 0 00-.351-.112l-.286-.085c-.121-.034-.242-.064-.365-.095l-.286-.07a11.645 11.645 0 00-.381-.075l-.285-.054c-.134-.022-.269-.039-.405-.057l-.272-.036a11.406 11.406 0 00-.457-.039l-.232-.019a12.988 12.988 0 00-3.92.39l-.047.012c-.162.042-.323.09-.484.138l-.139.04c-.146.046-.288.097-.432.148l-.18.062c-.134.05-.266.103-.399.157l-.2.08c-.128.055-.252.112-.377.17l-.211.097c-.12.058-.237.118-.354.18l-.22.113c-.113.062-.223.126-.335.19l-.225.13c-.107.065-.212.134-.318.201l-.226.146-.303.21-.224.16-.289.22-.224.176-.27.227-.223.193-.259.236-.214.204-.246.245-.208.217-.233.253-.202.232-.22.26-.195.244-.204.265-.188.26-.189.27-.179.27-.176.277-.168.282-.162.283-.158.294-.149.286-.147.307-.133.29c-.047.106-.091.213-.135.32l-.12.291c-.042.11-.082.221-.121.333l-.106.292c-.038.114-.073.23-.108.345l-.09.293c-.034.118-.064.238-.095.357l-.075.293c-.03.124-.054.25-.08.376l-.06.286c-.025.133-.045.267-.066.401l-.043.271c-.02.147-.035.298-.052.447l-.026.235a14.19 14.19 0 00-.042.652l-.004.038v.012c-.012.303-.01.604-.004.901l.005.178.016.246c.01.206.02.412.04.616.014.141.036.28.054.42.022.175.044.35.073.52.025.153.057.303.088.453.031.155.062.311.1.464.037.157.08.313.124.468a10.841 10.841 0 00.283.894 12.155 12.155 0 00.5 1.212c.074.159.151.315.232.47.09.174.183.348.282.517l.096.165c.14.236.289.465.445.691l.094.132c.134.188.272.373.415.553l.127.16c.172.21.35.415.535.614l.089.09c.163.172.331.34.504.5l.154.144c.157.143.32.28.483.414.247.203.501.397.763.58l.038.027c.563.391 1.159.736 1.784 1.03l.056.027c.211.098.429.184.646.27-3.983-2.325-6.568-6.816-6.357-11.968.31-7.531 6.479-13.664 13.752-13.664 1.596 0 3.113.3 4.508.841-.347-.2-.702-.386-1.069-.552l-.027-.011zm-1.868 41.541l-.276-.115a8.161 8.161 0 00-.339-.13l-.283-.102a14.213 14.213 0 00-.35-.111l-.287-.085c-.12-.035-.241-.064-.363-.094l-.289-.071c-.125-.028-.253-.051-.379-.075l-.286-.053c-.133-.023-.268-.04-.402-.058l-.276-.036c-.148-.017-.299-.028-.449-.039l-.24-.019a12.743 12.743 0 00-.68-.019h-.019c-.415 0-.826-.013-1.235-.033l-.2-.008-.223-.016a24.093 24.093 0 01-.857-.069c-.11-.011-.221-.02-.33-.032l-.118-.011a27.15 27.15 0 01-1.038-.142l-.232-.038a14.95 14.95 0 01-.358-.065 30.433 30.433 0 01-1.003-.2l-.286-.064c-.148-.035-.294-.074-.442-.112-.202-.052-.404-.102-.606-.159-.174-.05-.347-.102-.52-.155l-.294-.088a30.252 30.252 0 01-1.71-.611l-.06-.024a38.707 38.707 0 01-.558-.233 22.273 22.273 0 01-.677-.303l-.298-.133 1.664.8a25.4 25.4 0 0011.045 2.496c1.618 0 3.156.307 4.568.862a12.516 12.516 0 00-1.314-.655zm-18.667 13.805c.011.272.028.543.054.811l.008.091c.03.292.073.58.122.867l.04.221c.046.246.098.488.156.728l.032.137c.07.276.15.548.238.816l.068.198c.076.223.158.445.245.662l.064.161c.108.256.222.509.345.756l.087.169c.105.205.215.407.33.605l.097.165c.14.236.288.467.443.691l.095.132c.134.188.272.373.415.553l.127.159c.173.21.35.416.535.615l.089.091c.164.171.332.338.504.5l.154.143c.201.184.407.362.62.532l.058.043c.198.156.4.304.607.448l.177.121c.225.15.453.295.687.431l.01.007c.239.137.483.264.73.385.304.149.612.287.929.411-4.01-2.317-6.617-6.824-6.405-11.997l-1.664-.801a14.76 14.76 0 00-.005.914l.008.235zm5.319 25.804a29.858 29.858 0 01-.999-.295l-.09-.029-.263-.09a27.573 27.573 0 01-.63-.218l-.178-.063-.256-.1a31.186 31.186 0 01-.534-.211l-.257-.106-.213-.091a29.136 29.136 0 01-.484-.218l-.329-.151-.093-.043 1.665.801a25.34 25.34 0 002.652 1.088l.012-.273-.003-.001zM115.154 62.1l.217.13c.222.131.443.263.659.4.104.066.207.136.311.203.183.12.365.24.544.364.111.076.219.154.329.232.17.121.339.245.505.37.11.081.218.165.327.247.166.13.33.261.493.395l.304.25c.174.146.344.297.514.447l.256.227c.156.141.308.287.461.435l.02.019.202.192.058.054c.132.132.262.268.393.403l.032.033.287.297.213.235.115.127.044.049c.106.116.211.233.313.351l.249.296.017.02.055.064c.113.137.226.273.336.41l.234.298.037.049a26.527 26.527 0 01.972 1.345c.071.105.143.21.213.316.128.197.253.396.376.595l.077.123.098.158c.107.177.209.358.312.54l.097.169.108.19.078.147c.06.11.117.224.176.335l.099.19.128.25c.053.106.104.216.156.323l.044.093.104.217c.049.103.097.208.143.312.055.12.107.243.161.365l.097.222.157.385c.049.12.096.239.143.359l.067.173c.059.156.115.313.171.47l.123.345.041.12c.065.192.126.386.187.58.032.104.067.206.099.31l.016.061c.063.21.121.424.179.637.028.102.058.204.084.306l.02.076c.05.192.093.386.138.58.027.114.056.23.081.344l.027.124.056.287.044.22c.023.121.049.241.071.364l.035.194c.022.132.042.265.062.397l.007.043c.02.123.042.246.06.371l.035.274c.019.14.036.28.052.42.013.11.028.218.039.326.013.12.022.24.033.36.013.14.026.283.037.426l.021.245c.01.153.015.309.023.463.008.138.017.276.021.415l.008.163c.007.203.007.407.009.61.001.121.005.24.005.362v.082c-.001.353-.009.707-.023 1.063h-13.809l1.665.8h13.809c.463-11.285-5.663-20.954-14.803-25.348l-1.665-.8c.202.098.403.2.603.304l.211.106c.303.159.602.325.897.495zm-1.761 41.391l-1.664-.799.283.141.158.078.215.111c.215.111.427.226.638.343l.182.101.181.099.02.011c.334.194.662.396.988.604l.278.183c.246.161.489.327.729.498l.256.18c.113.083.225.168.338.252l.07.053c.17.13.34.258.507.392l.13.107.177.146.074.061c.171.142.342.286.51.433l.258.229c.225.204.447.41.665.62l.193.185c.274.269.54.544.803.825l.175.194c.205.226.406.456.606.689l.223.266c.209.253.413.509.613.77l.115.148c.232.308.458.623.677.942l.173.258c.165.248.326.498.485.751l.179.29c.2.33.394.664.58 1.003l.008.015a27.173 27.173 0 011.062 2.179l.128.295c.153.363.3.732.438 1.104l.06.171c.116.321.225.645.33.972.037.115.072.23.108.346.093.303.18.608.262.915l.074.27c.099.39.192.784.277 1.181l.053.273a31.765 31.765 0 01.232 1.322c.052.347.098.695.138 1.047l.025.196c.043.412.076.828.101 1.246.007.112.011.225.017.336.015.323.026.647.032.972.001.124.005.247.005.37.001.428-.004.857-.021 1.288a29.432 29.432 0 01-.371 3.59c-.116.692-.26 1.376-.422 2.051-.114.47-.235.937-.371 1.397a29.257 29.257 0 01-1.334 3.61c-.264.594-.543 1.18-.845 1.753a29.503 29.503 0 01-.911 1.597 28.986 28.986 0 01-2.952 4.043 29.61 29.61 0 01-3.223 3.176 29.197 29.197 0 01-3.664 2.634 28.108 28.108 0 01-5.148 2.447l-.072.023a25.689 25.689 0 01-1.892.591l-.144.042-.185 4.511-.081 1.954-.062 1.514-.013.315H91.331l1.663.8h13.517l.342-8.295c10.375-2.768 18.675-11.574 20.825-22.551a29.12 29.12 0 00.522-4.402c.464-11.301-5.648-21.059-14.807-25.462zm-34.338 43.658zm-1.245-1.554zm2.412 2.81zm-2.98-3.605zm3.548 4.159c-.145-.138-.292-.275-.434-.416.143.141.288.278.434.416zm30.878-26.722z" fill="#2FCEA1"/><path d="M125.791 73.85c.077.171.155.343.23.515-.053-.121-.105-.244-.16-.365l-.07-.15zm-51.892 64.184zm2.829 5.989zm-4.185-15.87a28.4 28.4 0 00.25 5.104l2.835-5.104h-3.085z" fill="#2FCEA1"/><path d="M92.747 97.344h.001a12.57 12.57 0 01-.441-.382l-.154-.144c-.172-.16-.34-.328-.504-.5l-.089-.09c-.184-.2-.362-.405-.535-.615l-.127-.16c-.143-.18-.281-.364-.415-.552l-.094-.132a12.226 12.226 0 01-.445-.691l-.096-.165a14.969 14.969 0 01-.219-.39l-7.524 13.542a25.67 25.67 0 003.588 2.974l7.054-12.695z" fill="#CEFFF1"/><path d="M91.328 112.945c-.228-.084-.457-.168-.681-.257.212.084.428.165.643.244l.038.013z" fill="#2FCEA1"/><path d="M90.782 66.822a12.93 12.93 0 01-.417.365c-.981.795-1.837 1.725-2.75 2.58-.433.452-.847.923-1.272 1.383-.21.232-.438.447-.636.69l-.591.728a51.995 51.995 0 00-4.42 6.117c-1.351 2.158-2.578 4.406-3.754 6.793.003-1.342.25-2.664.553-3.97.16-.65.358-1.29.558-1.933.23-.629.458-1.264.717-1.885a27.142 27.142 0 014.22-6.891c.836-1.07 1.84-1.997 2.816-2.934 1.059-.852 2.08-1.745 3.258-2.423a19.897 19.897 0 013.503-1.833l2.088-3.758c-11.272 3.446-19.883 14.053-20.402 26.69a28.116 28.116 0 001.38 9.994 27.26 27.26 0 01-.477-1.592l15.626-28.121z" fill="#CEFFF1"/><path d="M93.318 140.459c.376.192.764.365 1.161.519l-.064-.027a12.16 12.16 0 01-.928-.411l-.169-.081zm-4.426-28.551zm1.663.741z" fill="#2FCEA1"/><path d="M101.089 72.899a12.988 12.988 0 011.419-.001l.232.019c.153.011.306.022.457.039l.272.036c.136.018.271.034.405.057l.285.054c.127.023.255.047.381.075l.286.07c.123.03.245.06.365.095l.286.085c.118.036.235.073.351.112l.122.043 7.007-12.61a25.323 25.323 0 01-2.168-.868 25.297 25.297 0 00-1.676-.526l.341-8.29-.291 7.081-8.074 14.529z" fill="#CEFFF1"/><path d="M126.977 76.93c.042.133.088.264.129.4-.031-.105-.067-.206-.099-.31l-.03-.09zm-.763-2.104a44.255 44.255 0 01.061.146l-.061-.146zm1.799 6.731c.022.157.041.313.06.47-.017-.14-.033-.28-.052-.42l-.008-.05zm-1.407-5.72c.058.16.118.321.173.483-.04-.116-.082-.23-.123-.345l-.05-.138zm1.535 6.837a60.455 60.455 0 01.004.038l-.004-.038zm.105 3.854v.013h-13.809v-.002.002h13.809v-.013zm-.021-2.71c.007.148.016.295.022.445-.005-.14-.013-.278-.021-.416l-.001-.029zm-13.968-22.214l-.211-.106-.186-.092c.264.133.524.27.783.411-.13-.07-.256-.145-.386-.213zm-1.537 41.6c-.111-.06-.222-.123-.335-.181l-.215-.112c.186.094.367.195.55.293zm9.439-35.156c.163.198.325.397.483.6l-.233-.297-.25-.303zm.658 44.932c-.063-.11-.124-.22-.19-.327l-.179-.29-.179-.278c.188.294.371.592.548.895zm-7.964-8.494l-.18-.123-.279-.183-.119-.072c.195.123.388.249.578.378zM88.05 87.397l.007.239-.006-.18-.002-.059zm25.761 16.428c-.136-.082-.268-.169-.405-.248l-.02-.011-.146-.08c.193.11.381.225.571.339zm12.292 18.071c-.033-.173-.061-.348-.095-.521l-.054-.273c-.084-.397-.177-.79-.276-1.181l-.074-.27a26.434 26.434 0 00-.262-.914l-.108-.347a28.453 28.453 0 00-.33-.972l-.06-.17a30.581 30.581 0 00-.438-1.105l-.129-.294a24.549 24.549 0 00-.522-1.133 27.197 27.197 0 00-.539-1.047l-.008-.014c-.108-.198-.224-.389-.337-.584a27.27 27.27 0 013.232 8.825z" fill="#2FCEA1"/><path d="M126.294 123.109l-16.961 30.524a28.298 28.298 0 004.064-2.233 29.197 29.197 0 003.559-2.775 29.786 29.786 0 003.104-3.302 29.542 29.542 0 002.222-3.172c.319-.523.625-1.053.912-1.597a29.746 29.746 0 001.12-2.391 28.78 28.78 0 001.058-2.972 30.31 30.31 0 00.793-3.448c.195-1.174.32-2.373.371-3.59.018-.431.022-.86.021-1.288 0-.123-.003-.246-.005-.369-.005-.326-.016-.65-.032-.973l-.016-.336a29.888 29.888 0 00-.102-1.246l-.024-.196c-.04-.352-.087-.7-.139-1.047-.019-.122-.037-.244-.057-.365-.025-.146-.053-.289-.08-.434.073.4.136.804.192 1.21z" fill="#CEFFF1"/><path d="M122.188 111.958c-.076-.116-.148-.233-.224-.347l-.174-.258-.178-.248c.197.28.389.565.576.853zm-.658-.967c-.138-.193-.273-.39-.416-.579l-.116-.149-.094-.118c.215.278.423.561.626.846zm-4.708-5.045l-.12-.101-.13-.107c-.112-.091-.231-.175-.345-.262.201.154.4.31.595.47zm.928.796l-.03-.028-.257-.229c-.111-.096-.225-.188-.337-.283.211.178.42.356.624.54zm3.13 3.373a22.783 22.783 0 00-.494-.621l-.223-.267c-.2-.233-.401-.463-.606-.689l-.175-.194c-.262-.28-.529-.556-.803-.825l-.193-.184c-.149-.145-.303-.285-.455-.425a26.056 26.056 0 012.949 3.205zm-11.392-8.362c.159.059.32.113.476.174-.157-.061-.317-.115-.476-.174zM89.143 81.632c.044-.106.088-.214.135-.32-.047.106-.091.214-.135.32zm-.454 1.261c.035-.115.07-.23.108-.345-.039.114-.073.23-.108.345zm7.248-31.604l-.278 6.755 3.754-6.755h-3.476zm-18.133 50.136zm.947 1.542zm-2.504-4.757zm12.257-14.667c.03-.119.06-.238.093-.357-.033.118-.063.238-.093.357zm22.28 18.725zM89.412 81.022l.147-.306a10.76 10.76 0 00-.147.306zm26.445 24.172l-.2-.153-.256-.18-.128-.088c.197.138.391.278.584.421zm-35.009.523zM88.223 84.9c.02-.134.04-.27.065-.402-.025.133-.044.268-.065.401zm.125-.688c.026-.125.05-.251.08-.375-.03.124-.054.25-.08.375zm16.223 16.279c.177.027.352.058.527.088-.175-.03-.35-.061-.527-.088zm1.255.223zm-21.109 51.319c-.112-.072-.221-.148-.333-.22.112.073.221.148.333.22zm-.842-.561c-.131-.091-.26-.185-.389-.277.13.092.257.186.39.277zm2.943 1.755c-.119-.061-.239-.119-.357-.182.118.063.238.122.357.182zm20.479 1.223zm-12.353-40.481a37.206 37.206 0 01-.49-.104l.05.012c.147.032.293.061.44.092zm-2.587-.671a21.98 21.98 0 01-.635-.213l.144.052c.164.055.326.109.491.161zm1.42.403a30.055 30.055 0 01-.799-.217l.193.057c.201.057.403.108.606.16zm3.806.663c-.114-.011-.228-.021-.34-.033l.01.001c.11.012.22.021.33.032zm-1.486-.185c-.125-.02-.249-.044-.374-.065l.143.026.23.039zm2.766.278a14.42 14.42 0 01-.363-.021l.164.013.199.008zM86.73 132.019c-.06-.24-.111-.482-.157-.727l-.04-.222-.031-.168c.07.445.16.881.272 1.308l-.012-.054-.032-.137zm.27.954c-.082-.252-.16-.505-.226-.763.11.428.242.846.393 1.254l-.1-.293-.067-.198zm3.443 5.456l-.186-.172c.3.294.615.573.943.835a13.62 13.62 0 01-.603-.519l-.154-.144zm1.439 1.167a12.17 12.17 0 01-.607-.448l-.058-.043-.017-.013c.328.262.669.507 1.023.736l-.164-.111-.177-.121zm-2.032-1.757a13.435 13.435 0 01-.535-.615l-.127-.159-.182-.23c.382.505.8.98 1.252 1.422a11.625 11.625 0 01-.319-.328l-.088-.09zm-1.712-2.315c-.115-.198-.225-.4-.33-.605l-.087-.169c-.122-.247-.237-.5-.345-.756l-.064-.161c-.049-.123-.1-.244-.146-.369.301.817.678 1.592 1.123 2.319l-.055-.094-.096-.165zm1.548 18.95c-.126-.045-.25-.094-.375-.141l.197.078.178.063zm-.968-.374a16.6 16.6 0 01-.387-.163l.13.058.257.105zm1.951.711l-.319-.107.23.078.089.029zm-3.286-1.303l.052.027.328.15c-.127-.059-.254-.116-.38-.177zm31.974-88.37c-.17-.15-.34-.3-.514-.447l-.304-.25a25.039 25.039 0 00-.493-.394c-.109-.083-.217-.166-.327-.248a21.48 21.48 0 00-.505-.37c-.11-.078-.218-.155-.329-.232a23.941 23.941 0 00-.544-.364c-.104-.067-.207-.137-.311-.203-.157-.098-.316-.192-.474-.288a25.777 25.777 0 014.455 3.4c-.133-.127-.264-.254-.399-.377l-.255-.227zm8.294 14.319l-.016-.067c.032.147.06.295.09.443l-.018-.09-.056-.286zm-7.355-13.446l-.176-.167c.191.184.377.37.562.559-.11-.112-.217-.227-.328-.338l-.058-.054zm4.636 6.122l-.091-.157c.099.177.194.357.289.537l-.121-.232-.077-.148zm-3.866-5.334l-.232-.24c.175.183.349.369.519.557l-.074-.083-.213-.234zm2.584 3.243a24.3 24.3 0 00-.37-.536l-.24-.33a26.386 26.386 0 011.167 1.725c-.113-.18-.226-.363-.343-.542-.07-.106-.142-.212-.214-.317zm-8.495-7.942c-.14-.081-.284-.156-.425-.234.26.143.516.29.771.442l-.13-.078-.216-.13zm12.701 18.422l-.011-.058c.027.154.051.31.075.465l-.001-.01c-.021-.132-.04-.265-.063-.397zm.407 4.513v-.019c.002.127.006.253.006.38 0-.12-.004-.24-.006-.36zm-6.512-17.475l-.235-.263c.166.187.33.376.492.569l-.008-.01-.249-.296zm5.634 10.774c.033.128.062.26.094.39-.025-.105-.047-.21-.074-.315l-.02-.075zm-3.068-7.258c.114.187.224.377.333.569-.079-.138-.155-.276-.235-.41l-.098-.159zm1.096 1.979l-.08-.155c.087.174.172.349.257.524l-.021-.045c-.052-.107-.103-.217-.156-.324zm-20.553 90.031l.061-1.514-1.016 1.83H91.33h13.516l.014-.316z" fill="#2FCEA1"/><path d="M37.646 144.112a71.332 71.332 0 01-1.187-2.405l-.022-.047-.133-.275-.008-.017-.07-.159a63.85 63.85 0 01-.463-1.022l-.082-.179-.043-.101c-.059-.134-.114-.269-.171-.404l-.007-.015c-.11-.256-.221-.513-.328-.772l-.046-.105-.09-.221-.175-.44-.142-.354c-.053-.134-.109-.268-.16-.403-.054-.135-.104-.272-.155-.408l-.003-.008c-.06-.154-.117-.311-.176-.466l-.044-.121c-.055-.146-.112-.292-.165-.439-.07-.194-.137-.389-.207-.585-.073-.207-.147-.415-.218-.624l-.091-.261a74.986 74.986 0 01-.49-1.501l-.005-.013a76.461 76.461 0 01-.56-1.879l-.13-.478v-.002a70.347 70.347 0 01-.494-1.892l-.056-.225-.038-.166a85.524 85.524 0 01-.415-1.813c-.096-.45-.187-.902-.274-1.355l-.089-.453a78.075 78.075 0 01-.383-2.221c-.033-.216-.06-.432-.092-.647a40.02 40.02 0 01-.085-.591c-.033-.238-.066-.475-.097-.714a77.879 77.879 0 01-.121-1.03 69.712 69.712 0 01-.078-.687l-.046-.496-.025-.263-.009-.085-.025-.278v-.002l-.007-.067c-.016-.179-.034-.357-.049-.536-.013-.174-.024-.349-.035-.522l-.022-.315v-.003a79.897 79.897 0 01-.108-1.937l-.004-.084-.022-.486-.01-.228c-.005-.182-.008-.367-.011-.551l-.011-.549-.003-.178c-.005-.188-.01-.376-.012-.566-.003-.421.002-.846.006-1.268.002-.197-.001-.393.002-.588a83.29 83.29 0 01.054-1.87v-.001c.03-.73.072-1.456.124-2.179l.011-.145c.052-.702.111-1.4.18-2.097v-.003l-12.79 23.021v.003c.098.581.207 1.159.318 1.737a83.654 83.654 0 00.523 2.552c.039.173.08.342.12.513a84.34 84.34 0 00.823 3.295c.066.243.13.486.198.727.156.557.318 1.111.485 1.663.075.248.154.494.23.741a85.586 85.586 0 001.17 3.486l.052.148c.2.547.406 1.089.615 1.63.096.246.192.493.29.74.213.536.43 1.072.653 1.605l.13.296a82.295 82.295 0 001.44 3.188c.102.215.203.431.307.644a80.991 80.991 0 001.093 2.157 82.853 82.853 0 001.714 3.115l.113.198a79.502 79.502 0 001.282 2.114c.306.493.614.982.93 1.466l.002.002 7.915-14.246h.002zM89.37 26.424c-7.48 2.007-14.63 4.823-21.312 8.46l-8.435 15.178.002-.002a75.516 75.516 0 014.217-3.01l.01-.006a72.879 72.879 0 014.41-2.704l.013-.008a72.349 72.349 0 014.59-2.384l.015-.007a71.345 71.345 0 014.757-2.05l.016-.006a70.782 70.782 0 014.91-1.703l.01-.003a69.725 69.725 0 015.055-1.34l.003-.002a69.174 69.174 0 0110.47-1.53h.001l7.925-14.261a83.142 83.142 0 00-2.628-.046c-.701 0-1.4.01-2.098.028-.235.006-.468.018-.702.025-.463.017-.926.031-1.387.056-.277.013-.552.033-.829.05-.417.026-.834.05-1.25.082-.291.023-.583.05-.875.076-.397.034-.795.068-1.191.108-.301.03-.6.066-.901.1a77.26 77.26 0 00-1.15.136c-.308.038-.614.081-.92.123a87.92 87.92 0 00-1.121.162c-.309.047-.616.097-.924.147-.37.06-.738.124-1.107.189a87.654 87.654 0 00-2.93.576c-.364.079-.728.16-1.09.245a62.515 62.515 0 00-1.99.482c-.297.076-.595.152-.892.232-.363.097-.724.2-1.086.301-.292.082-.582.163-.872.248-.368.108-.734.22-1.099.335-.282.086-.564.171-.843.26-.379.122-.755.25-1.13.376-.265.088-.53.174-.794.266a74.47 74.47 0 00-1.226.442c-.226.081-.453.16-.677.244a95.48 95.48 0 00-1.665.645l-.223.086v.001l-2.35 4.228c6.186-2.535 12.704-4.215 19.293-4.825zm.26 67.1l-.063-.128a11.399 11.399 0 01-.233-.47l-.065-.132-.047-.103-.048-.117a11.914 11.914 0 01-.34-.86c-.056-.156-.11-.313-.16-.474l-.042-.123-.028-.098-.053-.2c-.043-.154-.086-.31-.124-.467l-.01-.034-.04-.173-.049-.256c-.031-.15-.063-.3-.088-.453l-.016-.076-.006-.033c-.022-.135-.034-.275-.052-.412-.017-.139-.04-.278-.053-.42v-.003l-.017-.207c-.012-.133-.017-.27-.024-.406l-.015-.245-.008-.237c-.004-.279-.004-.56.007-.843v-.012l.003-.037c.01-.218.023-.436.042-.653l.027-.234c.016-.15.03-.3.052-.447l.043-.271c.02-.134.04-.269.065-.401l.06-.287c.026-.125.05-.251.08-.375l.076-.293c.03-.12.06-.239.094-.357l.09-.293c.036-.115.07-.232.109-.346l.105-.292c.04-.111.08-.223.122-.332l.12-.292c.043-.107.088-.214.134-.32l.134-.29c.048-.103.096-.204.147-.306l.148-.287.158-.294.163-.282.168-.282.176-.278.179-.27.189-.27.188-.26.203-.264.196-.245.22-.26.202-.231.232-.253.209-.217.245-.246.215-.203.259-.237.222-.192.27-.227.225-.176.288-.22.224-.16.304-.21.225-.146c.106-.068.212-.136.319-.2l.224-.131c.112-.064.223-.129.336-.19l.22-.114c.117-.061.234-.122.353-.18l.212-.097c.124-.057.248-.115.376-.169l.2-.08c.134-.055.265-.108.399-.158l.18-.062c.144-.05.287-.101.433-.147l.138-.04c.161-.05.322-.097.484-.139l.048-.01c.81-.209 1.647-.343 2.501-.39l8.073-14.529.291-7.081H99.413l-3.754 6.755-.063 1.534c-.316.085-.63.177-.94.273l-2.09 3.758A24.4 24.4 0 0196.47 62.4c-.527.426-1.06.815-1.59 1.196-.528.385-1.078.717-1.562 1.157-.503.405-1.005.801-1.51 1.186-.363.268-.691.579-1.025.882L75.156 94.943c.142.54.304 1.068.477 1.592.035.107.073.215.11.322.156.457.324.908.505 1.352l.084.214c.219.527.452 1.046.702 1.555l.007.015c.24.487.496.962.763 1.431l.14.243c.258.442.526.876.808 1.3l.058.09a26.375 26.375 0 002.038 2.659l.144.163c.36.407.73.803 1.114 1.186l7.524-13.541zm-38.244 68.828v-.001a68.181 68.181 0 01-1.694-1.656l-.044-.043a67.656 67.656 0 01-1.513-1.586l-.024-.026v-.001l-.275-.301-.001-.001-.074-.083c-.373-.409-.74-.824-1.103-1.242l-.029-.032-.001-.001c-.12-.139-.239-.276-.357-.415h-.002l-.109-.134a59.665 59.665 0 01-.955-1.158c-.113-.139-.23-.273-.342-.413l-.072-.092-.083-.111a69.006 69.006 0 01-1.663-2.197l-.04-.052-7.443 13.394a78.97 78.97 0 002.047 2.342l.019.022a85.55 85.55 0 002.096 2.22l.064.066a79.982 79.982 0 002.147 2.105l.082.078a76.198 76.198 0 002.283 2.068l7.086-12.75zm56.878-126.991l.031.002.106.008.12.011c.218.019.435.04.652.06l.028.002c.342.032.683.064 1.023.102l.009.001c.133.014.265.03.396.047l.397.047.021.002.408.053c.198.025.396.048.593.075.268.037.534.077.802.117l.015.003c.327.049.651.098.975.151l.01.002a65.728 65.728 0 013.419.66l.121.026.012.002a64.716 64.716 0 011.754.416 48.704 48.704 0 011.568.415l7.093-12.766-.006-.002a74.942 74.942 0 00-3.254-.962c-.877-.24-1.759-.47-2.649-.68l-.063-.015a79.548 79.548 0 00-6.127-1.191h-.001l-7.453 13.414zm61.096 79.206a76.764 76.764 0 01-1.551 8.274l-.001.001-.02.082v.001a78.852 78.852 0 01-.693 2.611l-.001.002-.011.041v.001c-.241.848-.499 1.69-.769 2.526l-.096.294a76.992 76.992 0 01-.817 2.372l-.001.005-.03.082v.001c-.29.793-.594 1.578-.908 2.359h-.001l-.173.425a78.78 78.78 0 01-.978 2.291l20.243-36.431c-.021-.395-.034-.792-.058-1.184-.015-.244-.033-.486-.051-.728-.038-.539-.088-1.074-.137-1.61-.023-.268-.041-.538-.067-.804-.016-.155-.028-.311-.044-.466a90.18 90.18 0 00-.299-2.465l-.037-.299c-.03-.226-.064-.45-.097-.676-.031-.216-.068-.43-.101-.644l-13.302 23.939zm-12.436 32.86a77.274 77.274 0 01-3.286 4.524l-.001.001-.032.041-.001.001a76.926 76.926 0 01-5.469 6.246l-.001.001-.109.11-.001.001a75.75 75.75 0 01-3.876 3.687l-.188.166v.001a74.076 74.076 0 01-2.031 1.728l-13.312 23.959a87.224 87.224 0 003.977-1.799l.07-.033a79.408 79.408 0 001.8-.899l.191-.096a91.01 91.01 0 001.925-1.024l20.344-36.615zM45.691 47.225c2.994-2.838 6.17-5.487 9.546-7.856l.22-.15 2.694-4.845h-.001a88.91 88.91 0 00-5.06 3.478l-.007.005a90.064 90.064 0 00-4.815 3.823h-.001l-3.71 6.677c.378-.377.748-.762 1.134-1.132zm5.748-.773a80.31 80.31 0 00-3.446 3.163A97.361 97.361 0 0036.37 63.09L25.542 82.578a118.14 118.14 0 00-2.819 7.293c.19-1.138.41-2.272.657-3.401l-6.375 11.474v.001a93.108 93.108 0 00-.326 2.384l-.007.058a92.586 92.586 0 00-.247 2.244l-.024.242a91.24 91.24 0 00-.17 2.059c-.01.135-.023.269-.032.404-.054.8-.099 1.6-.132 2.405v.002c-.034.827-.046 1.649-.058 2.47v.001l35.43-63.762zm52.466 116.95l1.016-1.83.081-1.954.186-4.511.144-.042c.309-.084.617-.171.922-.266h.001c.313-.099.624-.204.933-.312l.036-.012.072-.024.001-.001a27.271 27.271 0 002.033-.816l.003-.001 16.961-30.524a26.73 26.73 0 00-.191-1.21v-.002a27.276 27.276 0 00-3.232-8.826l-.054-.091c-.177-.304-.36-.601-.548-.895l-.081-.127a27.667 27.667 0 00-.576-.853l-.082-.114a28.355 28.355 0 00-.625-.846l-.025-.03a26.207 26.207 0 00-2.949-3.205l-.181-.168a29.396 29.396 0 00-.623-.54l-.174-.15-.074-.061-.057-.045a20.44 20.44 0 00-.595-.47l-.162-.13-.07-.053-.138-.099a27.017 27.017 0 00-1.582-1.085c-.154-.097-.31-.191-.464-.284-.191-.114-.379-.229-.571-.339l-.035-.02-.182-.1-.303-.162c-.183-.098-.365-.199-.55-.293l-.159-.077c-.17-.085-.344-.164-.515-.245a28.228 28.228 0 00-1.532-.662c-.157-.061-.317-.116-.477-.174-.231-.085-.462-.171-.696-.249-.17-.056-.34-.107-.51-.16-.23-.071-.459-.142-.691-.206-.175-.049-.352-.094-.528-.139a23.923 23.923 0 00-1.964-.421c-.176-.03-.351-.061-.528-.087a24.348 24.348 0 00-.773-.103c-.167-.02-.334-.042-.503-.058-.287-.03-.577-.05-.867-.07-.143-.009-.286-.022-.428-.03a26.038 26.038 0 00-1.314-.034c-.343 0-.68-.018-1.015-.044l-.178-.015a13.018 13.018 0 01-.96-.127l-.155-.03a12.21 12.21 0 01-1.932-.523l-.093-.032-.275-.115c-.217-.087-.435-.172-.646-.27l-.057-.027a12.301 12.301 0 01-1.784-1.03l-.002-.001-.008-.006-.027-.02a12.124 12.124 0 01-.763-.58l-.042-.032h-.001l-7.054 12.695c.756.518 1.54.996 2.351 1.433l.06.032c.26.139.523.273.787.404l.096.045c.514.249 1.035.481 1.568.696l.032.014.06.025c.224.089.453.173.68.257.131.048.263.095.395.14.21.073.42.146.634.213l.294.089.328.097c.264.076.53.148.798.217.148.037.294.076.442.112l.235.052a25.097 25.097 0 001.054.212l.216.038c.125.02.249.045.374.065.344.053.69.101 1.038.141l.108.01c.112.012.226.022.34.033.284.028.57.051.857.069l.06.003a25.273 25.273 0 001.598.054h.019c.229 0 .456.007.68.019l.24.019c.151.011.301.022.449.039l.277.036c.111.015.224.027.335.045l.066.013.287.053.291.054.087.021.29.071c.121.03.242.06.363.094l.286.085c.117.035.235.073.351.112l.283.102a7.6 7.6 0 01.338.129l.277.115.167.068.163.079c.336.156.664.324.984.509a12.736 12.736 0 014.775 4.922c.205.376.393.763.562 1.162a13.654 13.654 0 011.059 5.916 14.352 14.352 0 01-2.203 7.076 14.354 14.354 0 01-4.083 4.244 13.651 13.651 0 01-2.901 1.505 13.025 13.025 0 01-4.564.829 12.47 12.47 0 01-4.497-.829 12.229 12.229 0 01-1.722-.823l-.011-.007a12.718 12.718 0 01-2.488-1.891c-.452-.441-.87-.917-1.252-1.422-.08-.106-.155-.215-.233-.323l-.095-.132a13.158 13.158 0 01-1.904-4.17 13.293 13.293 0 01-.363-2.007l-.008-.09a14.09 14.09 0 01-.054-.811l-.008-.236c-.007-.302-.008-.606.005-.913H75.628l-2.836 5.104v.001c.23 1.648.603 3.245 1.106 4.776l.022.066c.094.283.193.563.294.841l.042.111c.102.275.208.547.319.816l.037.089a26.543 26.543 0 002.116 4.065l.1.159c.135.209.274.414.413.619l.154.222c.136.193.274.384.415.573l.178.237c.14.185.282.368.427.55l.183.222c.15.184.301.366.456.545l.108.121c.342.389.696.767 1.06 1.136l.134.138c.141.14.288.278.433.416.101.096.2.192.303.286.138.126.276.249.415.372.114.099.228.2.343.297l.008.008a27.755 27.755 0 00.796.648c.134.104.268.209.404.311.141.106.284.21.428.313.13.093.258.187.39.277.167.117.338.229.508.341.112.073.221.148.333.22.279.177.56.349.847.516l.28.155c.204.117.409.232.617.341.118.063.237.122.357.183.187.095.375.19.565.28.126.061.253.119.38.178.162.074.322.147.485.217l.083.034a18.643 18.643 0 00.92.374l.06.022c.124.048.248.097.374.142.21.075.42.147.63.218l.035.011c.106.035.212.073.319.107.33.104.662.204.998.296l.004.001-.013.273-.33 8.021h12.577zm-41.187 23.699c.235.109.47.22.706.327.162.074.322.152.485.225.637.284 1.278.559 1.923.828.16.065.322.127.48.192.49.198.978.396 1.472.585.243.093.49.181.734.272.413.154.826.308 1.243.455.273.096.55.188.824.281.313.107.627.212.942.316l.236.079c.29.094.582.182.872.272l.54.163c.205.064.41.128.616.189.3.087.602.171.904.255a87.4 87.4 0 001.148.315 95.175 95.175 0 002.076.517c.209.048.419.096.628.142.105.025.209.049.314.072.192.044.387.083.58.124.193.042.385.084.579.124a77.8 77.8 0 004.275.759c.318.047.636.096.955.139.406.057.813.107 1.22.156l.465.056 7.577-13.638a71.372 71.372 0 01-2.673-.146h-.002l-.231-.017h-.001a67.338 67.338 0 01-5.29-.62h-.001l-.254-.04a66.218 66.218 0 01-5.14-1.04h-.001l-.213-.054-.002-.001a62.225 62.225 0 01-2.48-.663h-.002l-.007-.003-.001-.001a64.966 64.966 0 01-2.534-.791l-.001-.001-.095-.032-.004-.001a64.287 64.287 0 01-2.344-.839l-.001-.001-.173-.064c-.266-.102-.525-.215-.79-.32-.508-.202-1.02-.401-1.521-.616l-.207-.09a64.796 64.796 0 01-4.606-2.202l-.173-.091a66.42 66.42 0 01-2.034-1.128l-.077-.044h-.001l-.214-.125v-.001l-.06-.036a63.362 63.362 0 01-1.965-1.195l-.156-.097a64.895 64.895 0 01-2.127-1.416l-.061-.042a66.179 66.179 0 01-1.975-1.429l-.06-.044h-.001l-.087-.065v-.001l-.144-.113a65.858 65.858 0 01-1.733-1.361l-.164-.13-7.005 12.609a79.802 79.802 0 004.779 3.419c.225.149.453.296.681.444.429.278.858.554 1.293.824.627.388 1.26.769 1.898 1.139.275.161.556.315.835.472a87.397 87.397 0 002.31 1.257c.763.398 1.533.788 2.313 1.162l.002.001c.233.112.47.219.706.328zM105.95 73.582c.318.112.629.237.934.374l.027.011c.367.166.722.353 1.069.552a12.558 12.558 0 012.261 1.648l.029.028c.477.442.919.92 1.325 1.433l.05.063c.198.252.387.513.566.78l.028.043c.173.26.336.53.491.804l.033.056c.153.275.294.555.428.842l.061.135c.259.573.479 1.169.657 1.785l.05.172c.082.3.156.604.218.913l.025.143c.054.285.1.572.136.863l.02.151c.036.315.059.632.073.954l.008.211c.009.33.011.662-.002.997v.002h13.808v-.013c.015-.352.023-.702.024-1.05v-.082c0-.127-.005-.253-.006-.38-.002-.197-.002-.396-.009-.592l-.007-.163c-.006-.149-.015-.296-.022-.444-.008-.145-.013-.29-.023-.434l-.021-.245a33.552 33.552 0 00-.04-.465c-.01-.107-.017-.215-.029-.321-.011-.109-.027-.216-.039-.325a37.481 37.481 0 00-.06-.47l-.027-.225c-.018-.125-.04-.248-.06-.371l-.005-.033c-.025-.156-.049-.31-.076-.465l-.023-.136c-.022-.123-.047-.242-.071-.364l-.026-.13c-.03-.149-.057-.297-.089-.444l-.012-.056c-.025-.115-.054-.23-.08-.346l-.065-.265c-.032-.13-.061-.261-.094-.39-.026-.102-.056-.204-.084-.306-.058-.213-.116-.427-.179-.637l-.016-.06c-.041-.135-.087-.267-.129-.401-.052-.164-.101-.327-.157-.49l-.041-.12c-.055-.161-.115-.321-.173-.482-.041-.11-.079-.222-.121-.333l-.067-.173c-.067-.17-.135-.336-.204-.505l-.096-.238-.097-.223c-.075-.172-.153-.344-.23-.515l-.073-.161-.104-.217-.023-.048c-.085-.176-.171-.35-.258-.524l-.048-.095-.099-.19-.055-.102a29.42 29.42 0 00-.289-.537l-.018-.033-.097-.169-.076-.13c-.11-.19-.219-.38-.333-.568l-.078-.123-.033-.052a26.404 26.404 0 00-1.47-2.126l-.057-.078-.038-.049a24.379 24.379 0 00-.483-.6l-.086-.107-.056-.066-.008-.01a32.112 32.112 0 00-.492-.568l-.078-.088-.044-.05-.041-.043a23.75 23.75 0 00-.52-.557l-.054-.058-.032-.034-.065-.065a31.157 31.157 0 00-.562-.558l-.026-.026-.02-.019-.064-.058a25.722 25.722 0 00-4.454-3.4l-.055-.033c-.255-.152-.511-.3-.771-.442l-.088-.049a24.444 24.444 0 00-.783-.411l-.075-.038a24.326 24.326 0 00-.827-.396l-7.008 12.61zm19.232-34.612c.312.113.622.227.932.342.188.07.378.138.566.21.503.193 1.002.392 1.498.598l.135.053.004.001c.203.085.403.176.606.262.335.143.67.285 1.002.433.17.076.338.157.508.234l.042.02c.347.158.693.317 1.035.48l.006.004.127.063.128.063.013.006c.576.28 1.147.568 1.714.864l.007.003c.164.087.328.172.491.26l.005.002c.561.298 1.116.606 1.668.92l.246.137.05.03.05.029.014.008c.503.292 1 .596 1.494.9l.277.167c.159.1.317.198.474.298l.004.002c.302.193.599.392.898.588.284.185.569.366.849.555l.086.057c.602.41 1.193.833 1.78 1.262.106.077.21.155.315.233l.133.1.004.001.001.002c.512.38 1.019.767 1.518 1.163l.01.008.223.172c.565.45 1.121.913 1.672 1.382l.407.351c.465.403.926.813 1.381 1.229l.29.264c.288.267.567.542.85.814.237.228.478.45.711.682h.001c.121.119.239.24.359.36a67.3 67.3 0 011.264 1.303l.321.338.14.156c.443.478.88.96 1.309 1.45l.002.002.298.347c.161.187.317.379.475.568.233.275.468.548.696.828l.001.002.146.18.18.22c.311.387.614.783.917 1.178.139.18.283.357.419.538l.227.307c.307.414.607.835.907 1.256l.187.26.002.002c.105.15.211.301.315.452.294.426.579.86.865 1.293l7.571-13.627c-.249-.32-.492-.644-.746-.959-.12-.15-.242-.296-.362-.443l-.037-.046-.224-.267a86.845 86.845 0 00-1.165-1.39l-.362-.423a83.344 83.344 0 00-1.729-1.916c-.129-.139-.262-.275-.392-.415a89.964 89.964 0 00-1.499-1.543c-.146-.146-.29-.293-.437-.438a78.316 78.316 0 00-1.859-1.78l-.245-.223-.116-.106c-.269-.247-.545-.485-.817-.727-.273-.242-.542-.489-.817-.727l-.498-.43a75.046 75.046 0 00-1.991-1.644l-.276-.216a79.268 79.268 0 00-1.817-1.392 76.439 76.439 0 00-2.665-1.904l-.122-.083c-.454-.308-.917-.604-1.379-.902-.231-.15-.458-.304-.69-.452-.193-.121-.385-.243-.579-.363a75.643 75.643 0 00-2.111-1.271l-.138-.083a78.795 78.795 0 00-2.885-1.577c-.338-.176-.682-.344-1.024-.515-.34-.173-.679-.35-1.023-.517h-.004a77.884 77.884 0 00-3.168-1.444 80.578 80.578 0 00-2.637-1.086l-7.012 12.618zm37.443 33.593l.023.047c.307.62.606 1.243.894 1.874l.074.157c.122.268.238.541.357.813.046.102.091.205.136.31.073.166.15.332.221.501.072.17.139.342.21.512l.184.45c.11.27.213.543.319.813l.093.24c.101.256.205.509.301.768l.106.277.014.038.009.023.015.037.022.058c.246.672.481 1.352.707 2.034.065.191.125.383.188.574.176.545.347 1.093.51 1.643.047.16.096.317.143.478.202.699.395 1.402.577 2.111.03.117.057.235.086.35a69.085 69.085 0 01.554 2.373c.148.684.287 1.371.415 2.064l.024.117a72.3 72.3 0 01.376 2.266 76.781 76.781 0 01.316 2.358l.05.425c.087.779.165 1.56.228 2.347l10.505-18.906-.008-.026-.076-.258-.078-.257a81.436 81.436 0 00-.672-2.167c-.07-.215-.138-.428-.209-.642a82.847 82.847 0 00-.886-2.53c-.047-.126-.097-.252-.145-.378a83.46 83.46 0 00-.851-2.175c-.087-.213-.174-.428-.262-.64a86.98 86.98 0 00-1.061-2.447l-.092-.196c-.344-.75-.7-1.494-1.064-2.232l-.31-.623c-.126-.247-.259-.49-.385-.737-.266-.516-.529-1.033-.805-1.542l-.046-.085c-.422-.774-.86-1.54-1.306-2.298l-.353-.593a86.928 86.928 0 00-1.055-1.709l-7.993 14.383zm-33.971 100.068c-7.937 4.051-16.642 6.648-25.77 7.449l-7.993 14.385c.46.008.917.019 1.378.019.856 0 1.71-.016 2.56-.043.242-.008.482-.019.723-.029a76.678 76.678 0 001.921-.098c.23-.015.46-.029.69-.046a84.218 84.218 0 002.424-.206l.08-.008c.898-.093 1.791-.2 2.682-.321l.191-.028a86.065 86.065 0 002.442-.376l.287-.048a83.334 83.334 0 007.888-1.76l10.497-18.89z" fill="#CEFFF1"/><path d="M85.806 67.866c-.975.936-1.98 1.863-2.816 2.933a27.15 27.15 0 00-4.22 6.89c-.259.622-.488 1.257-.717 1.887a32.22 32.22 0 00-.558 1.933c-.302 1.305-.55 2.627-.553 3.969 1.177-2.387 2.403-4.635 3.754-6.793a52.046 52.046 0 014.42-6.117l.591-.728c.199-.243.426-.458.636-.69.425-.46.839-.93 1.272-1.383.913-.855 1.769-1.785 2.75-2.58.141-.117.28-.241.417-.365.334-.303.662-.614 1.024-.882.505-.384 1.007-.78 1.51-1.186.485-.44 1.035-.772 1.562-1.157.531-.38 1.064-.77 1.59-1.196a24.547 24.547 0 00-3.901 1.208 19.917 19.917 0 00-3.503 1.834c-1.179.677-2.2 1.57-3.258 2.423zM70.076 31.25a73.834 73.834 0 00-4.192 1.873c-3.639 1.726-7.1 3.816-10.426 6.096l-.221.15c-3.376 2.37-6.552 5.018-9.546 7.856-.386.37-.756.755-1.134 1.132a80.525 80.525 0 00-13.783 18.456c-3.366 6.194-5.902 12.83-7.394 19.657a68.833 68.833 0 00-.657 3.401c.86-2.471 1.805-4.901 2.819-7.292 2.134-5.029 4.61-9.87 7.471-14.463a97.354 97.354 0 0114.979-18.5 80.112 80.112 0 013.446-3.163 92.374 92.374 0 015.632-4.541c3.172-2.399 6.542-4.523 10.004-6.5.325-.181.656-.351.983-.528 6.681-3.637 13.832-6.453 21.312-8.46-6.589.61-13.106 2.29-19.293 4.825z" fill="#CEFFF1"/></g><defs><filter id="filter0_d_53_128" x="0" y="9" width="208" height="209.484" filterUnits="userSpaceOnUse" color-interpolation-filters="sRGB"><feFlood flood-opacity="0" result="BackgroundImageFix"/><feColorMatrix in="SourceAlpha" values="0 0 0 0 0 0 0 0 0 0 0 0 0 0 0 0 0 0 127 0" result="hardAlpha"/><feOffset dy="4"/><feGaussianBlur stdDeviation="8"/><feComposite in2="hardAlpha" operator="out"/><feColorMatrix values="0 0 0 0 0 0 0 0 0 0 0 0 0 0 0 0 0 0 0.06 0"/><feBlend in2="BackgroundImageFix" result="effect1_dropShadow_53_128"/><feBlend in="SourceGraphic" in2="effect1_dropShadow_53_128" result="shape"/></filter></defs></svg>