<svg width="219" height="263" fill="none" xmlns="http://www.w3.org/2000/svg"><circle cx="93" cy="109" r="93" fill="#DAFFF4"/><g filter="url(#filter0_d_53_127)"><path d="M68.26 105.729c20.394-11.61 40.331-31.416 57.041-56.65l.226-.13c16.711 5.817 36.648 2.453 57.04-9.632l.78-.462-1.1 38.345c-3.87 59.436-24.014 85.306-56.437 140.565l-.79.459c-32.423-17.584-52.567-20.046-56.437-74.985l-1.1-37.065.778-.445z" fill="#DBFFF5"/><path d="M61.404 99.75c20.393-11.61 40.33-31.415 57.041-56.65l.226-.131c16.709 5.817 36.648 2.455 57.04-9.631l.78-.463 6.638 6.11-.561.332c-20.391 12.086-40.33 15.449-57.039 9.631l-.226.132c-16.711 25.233-36.648 45.038-57.041 56.649l-.779.443 1.1 37.064c2.526 35.859 11.989 49.359 27.27 59.302-19.092-11.346-31.286-24.976-34.126-65.282l-1.1-37.065.777-.442z" fill="#fff"/><path d="M60.625 100.193l.78-.445c20.392-11.61 40.329-31.414 57.04-56.649l.226-.131 6.856 5.98-.226.132c-16.71 25.233-36.647 45.039-57.04 56.649l-.78.443-6.856-5.979z" fill="#fff"/><path d="M67.482 106.173l1.1 37.065c2.526 35.858 11.988 49.358 27.27 59.301-19.092-11.346-31.287-24.976-34.126-65.282l-1.1-37.065 6.856 5.981z" fill="#42A086"/><path d="M70.378 107.211c19.94-11.353 39.432-30.716 55.771-55.39l.221-.128c16.337 5.687 35.833 2.4 55.771-9.417l.762-.453 6.49 5.974-.548.325c-19.939 11.817-39.433 15.104-55.771 9.417l-.221.129c-16.339 24.672-35.832 44.037-55.772 55.389l-.762.434 1.077 36.24c2.47 35.061 11.722 48.261 26.662 57.982-18.667-11.093-30.591-24.421-33.367-63.828l-1.077-36.241.764-.433z" fill="#2FCEA1"/><path d="M69.616 107.644l.761-.434c19.94-11.352 39.433-30.715 55.772-55.389l.221-.129 6.705 5.847-.221.129c-16.339 24.672-35.832 44.036-55.772 55.389l-.761.434-6.705-5.847zm6.704 5.847l1.076 36.24c2.47 35.06 11.722 48.26 26.662 57.982-18.667-11.093-30.591-24.421-33.367-63.829l-1.077-36.24 6.705 5.847z" fill="#2FCEA1"/><path d="M81.289 117.632c20.393-11.61 40.33-31.415 57.041-56.649l.226-.131c16.71 5.817 36.647 2.453 57.039-9.631l.78-.462-1.1 38.344c-3.869 59.437-24.014 85.307-56.437 140.566l-.791.456c-32.423-17.584-52.567-20.046-56.437-74.985l-1.1-37.065.779-.443z" fill="#DBFFF5"/><path d="M74.433 111.651c20.392-11.61 40.33-31.414 57.04-56.649l.226-.131c16.71 5.817 36.648 2.455 57.04-9.631l.779-.463 6.638 6.11-.561.332c-20.392 12.085-40.33 15.449-57.039 9.631l-.226.132c-16.711 25.233-36.648 45.038-57.041 56.648l-.779.444 1.1 37.064c2.526 35.859 11.989 49.359 27.27 59.301-19.092-11.345-31.286-24.975-34.126-65.281l-1.1-37.065.779-.442z" fill="#fff"/><path d="M73.652 112.096l.779-.445c20.393-11.61 40.33-31.414 57.041-56.649l.226-.131 6.856 5.98-.226.132c-16.711 25.233-36.648 45.039-57.04 56.649l-.78.443-6.856-5.979z" fill="#fff"/><path d="M80.51 118.075l1.1 37.065c2.526 35.858 11.988 49.358 27.269 59.301-19.091-11.346-31.286-24.976-34.125-65.282l-1.1-37.065 6.856 5.981z" fill="#42A086"/><path d="M142.473 204.511c25.17-42.013 37.829-63.149 40.883-109.26l.695-24.206c-16.16 7.352-31.652 9.697-45.61 6.901-13.954 19.013-29.446 34.67-45.607 46.096l.695 23.398c3.054 42.568 15.714 48.993 40.887 61.763 1.317.671 2.657 1.349 4.025 2.049l4.032-6.741z" fill="#2FCEA1"/><path d="M141.075 203.808c25.169-42.013 37.829-63.149 40.883-109.261l.657-22.874c.48-.21.957-.41 1.438-.628l-.695 24.206c-3.054 46.111-15.714 67.247-40.883 109.26l-4.033 6.74-1.395-.711a16501.6 16501.6 0 014.028-6.732z" fill="#2FCEA1"/></g><defs><filter id="filter0_d_53_127" x="44.625" y="20.875" width="167.75" height="229.25" filterUnits="userSpaceOnUse" color-interpolation-filters="sRGB"><feFlood flood-opacity="0" result="BackgroundImageFix"/><feColorMatrix in="SourceAlpha" values="0 0 0 0 0 0 0 0 0 0 0 0 0 0 0 0 0 0 127 0" result="hardAlpha"/><feOffset dy="4"/><feGaussianBlur stdDeviation="8"/><feComposite in2="hardAlpha" operator="out"/><feColorMatrix values="0 0 0 0 0 0 0 0 0 0 0 0 0 0 0 0 0 0 0.06 0"/><feBlend in2="BackgroundImageFix" result="effect1_dropShadow_53_127"/><feBlend in="SourceGraphic" in2="effect1_dropShadow_53_127" result="shape"/></filter></defs></svg>