<svg width="116" height="17" fill="none" xmlns="http://www.w3.org/2000/svg"><path d="M.356 16V.394h3.3V13.28h6.69V16H.357zm25.91-7.803c0 1.702-.323 3.15-.968 4.343-.64 1.194-1.514 2.106-2.622 2.736-1.102.625-2.342.937-3.718.937-1.387 0-2.632-.315-3.734-.945-1.103-.63-1.974-1.541-2.614-2.735-.64-1.194-.96-2.64-.96-4.336 0-1.702.32-3.15.96-4.344.64-1.194 1.511-2.103 2.614-2.728C16.326.495 17.57.18 18.958.18c1.376 0 2.616.315 3.718.945 1.108.625 1.982 1.534 2.622 2.728.645 1.194.968 2.642.968 4.344zm-3.346 0c0-1.103-.165-2.032-.495-2.79-.325-.756-.785-1.33-1.38-1.721-.594-.392-1.29-.587-2.087-.587-.798 0-1.494.195-2.088.587-.595.39-1.057.965-1.387 1.722-.325.757-.488 1.686-.488 2.789 0 1.102.163 2.032.488 2.789.33.757.792 1.33 1.387 1.722.594.391 1.29.587 2.088.587.797 0 1.493-.196 2.088-.587.594-.391 1.054-.965 1.379-1.722.33-.757.495-1.687.495-2.79zm16.138-2.759a3.42 3.42 0 00-.45-.983 2.775 2.775 0 00-.708-.731 3.04 3.04 0 00-.945-.465c-.35-.107-.74-.16-1.166-.16-.798 0-1.499.198-2.103.594-.6.396-1.067.973-1.402 1.73-.336.752-.503 1.671-.503 2.759 0 1.087.165 2.011.495 2.773.33.762.798 1.344 1.402 1.745.605.397 1.319.595 2.142.595.746 0 1.384-.132 1.912-.396a2.84 2.84 0 001.22-1.136c.284-.488.426-1.064.426-1.73l.67.1h-4.023V7.647h6.53v1.966c0 1.372-.289 2.55-.868 3.536a5.921 5.921 0 01-2.393 2.27c-1.016.53-2.18.793-3.49.793-1.463 0-2.748-.322-3.856-.967-1.107-.65-1.97-1.573-2.59-2.767-.615-1.198-.923-2.621-.923-4.267 0-1.265.183-2.393.55-3.383.37-.996.888-1.84 1.554-2.53A6.717 6.717 0 0132.863.72a7.531 7.531 0 012.873-.54c.884 0 1.707.129 2.469.388a6.578 6.578 0 012.027 1.082 5.86 5.86 0 011.455 1.669 5.67 5.67 0 01.724 2.118h-3.353zm20.318 2.759c0 1.702-.323 3.15-.968 4.343-.64 1.194-1.514 2.106-2.621 2.736-1.103.625-2.342.937-3.72.937-1.386 0-2.63-.315-3.733-.945-1.102-.63-1.974-1.541-2.614-2.735-.64-1.194-.96-2.64-.96-4.336 0-1.702.32-3.15.96-4.344.64-1.194 1.512-2.103 2.614-2.728C49.436.495 50.681.18 52.068.18c1.377 0 2.616.315 3.719.945 1.107.625 1.98 1.534 2.621 2.728.645 1.194.968 2.642.968 4.344zm-3.345 0c0-1.103-.166-2.032-.496-2.79-.325-.756-.785-1.33-1.38-1.721-.593-.392-1.29-.587-2.087-.587-.798 0-1.494.195-2.088.587-.594.39-1.057.965-1.387 1.722-.325.757-.488 1.686-.488 2.789 0 1.102.163 2.032.488 2.789.33.757.793 1.33 1.387 1.722.594.391 1.29.587 2.088.587.797 0 1.494-.196 2.088-.587.594-.391 1.054-.965 1.38-1.722.33-.757.495-1.687.495-2.79zm4.482-5.083V.394h12.818v2.72h-4.778V16H65.29V3.114h-4.778zM74.527.394h3.696l3.558 6.72h.153l3.559-6.72h3.695l-5.692 10.089V16h-3.277v-5.517L74.527.393zM90.99 16V.394h6.157c1.184 0 2.192.226 3.025.678a4.594 4.594 0 011.905 1.867c.442.792.663 1.707.663 2.743 0 1.036-.223 1.95-.67 2.743-.448.793-1.095 1.41-1.944 1.852-.843.442-1.864.663-3.063.663H93.14V8.296h3.39c.636 0 1.159-.11 1.57-.328.417-.223.727-.53.93-.922.208-.396.313-.85.313-1.364 0-.518-.105-.97-.313-1.356a2.086 2.086 0 00-.93-.907c-.416-.219-.944-.328-1.585-.328H94.29V16h-3.3zm13.893 0V.394H115.4v2.72h-7.216v3.719h6.675v2.72h-6.675v3.726h7.247V16h-10.547z" fill="#000"/></svg>