<svg width="44" height="44" fill="none" xmlns="http://www.w3.org/2000/svg"><g clip-path="url(#clip0_342_2357)"><g clip-path="url(#clip1_342_2357)"><path fill-rule="evenodd" clip-rule="evenodd" d="M44 22c0 12.15-9.85 22-22 22S0 34.15 0 22 9.85 0 22 0s22 9.85 22 22zm-21.212-5.759c-2.14.89-6.416 2.733-12.83 5.527-1.041.414-1.587.82-1.636 1.215-.084.67.754.933 1.896 1.292.155.05.316.1.481.154 1.123.365 2.635.792 3.42.809.713.015 1.508-.279 2.386-.881 5.992-4.046 9.085-6.09 9.28-6.134.137-.031.326-.07.455.044s.116.33.102.389c-.083.354-3.374 3.414-5.077 4.997-.53.494-.907.844-.985.924-.172.18-.348.349-.517.511-1.043 1.006-1.826 1.76.044 2.993a168.99 168.99 0 012.334 1.57c.783.533 1.565 1.065 2.575 1.728.258.168.504.344.743.515.912.65 1.73 1.233 2.742 1.14.588-.054 1.195-.607 1.504-2.255.729-3.897 2.161-12.338 2.492-15.817a3.88 3.88 0 00-.036-.866c-.03-.171-.09-.415-.314-.596-.263-.214-.67-.26-.852-.256-.828.015-2.097.456-8.207 2.997z" fill="#424242"/></g></g><defs><clipPath id="clip0_342_2357"><path fill="#fff" d="M0 0h44v44H0z"/></clipPath><clipPath id="clip1_342_2357"><path fill="#fff" d="M0 0h44v44H0z"/></clipPath></defs></svg>