<svg width="44" height="44" fill="none" xmlns="http://www.w3.org/2000/svg"><path d="M0 44l3.108-11.299a21.677 21.677 0 01-2.924-10.9C.19 9.78 10.017 0 22.092 0c5.86.002 11.36 2.273 15.498 6.395 4.135 4.121 6.412 9.599 6.41 15.425-.005 12.022-9.833 21.802-21.908 21.802a22.003 22.003 0 01-10.478-2.654L0 44zm12.152-6.98c3.088 1.825 6.035 2.917 9.933 2.92 10.035 0 18.21-8.13 18.216-18.123C40.305 11.803 32.168 3.685 22.1 3.68c-10.043 0-18.212 8.13-18.216 18.121-.002 4.08 1.2 7.134 3.216 10.329l-1.84 6.688 6.893-1.799zm20.976-10.017c-.136-.227-.501-.363-1.05-.636-.547-.273-3.238-1.591-3.741-1.773-.501-.181-.866-.273-1.233.273-.364.545-1.414 1.773-1.733 2.136-.319.363-.64.409-1.186.136-.547-.273-2.312-.847-4.403-2.704-1.626-1.445-2.726-3.229-3.045-3.775-.318-.545-.033-.84.24-1.111.247-.244.547-.636.821-.955.278-.316.369-.543.553-.908.182-.363.092-.682-.046-.955-.138-.271-1.233-2.954-1.688-4.044-.445-1.062-.897-.919-1.232-.935l-1.05-.019c-.365 0-.958.136-1.459.682-.5.547-1.916 1.863-1.916 4.545s1.962 5.273 2.235 5.636c.274.363 3.859 5.866 9.35 8.226 1.306.561 2.327.896 3.12 1.148 1.312.414 2.506.355 3.45.216 1.051-.156 3.238-1.318 3.694-2.59.457-1.275.457-2.366.319-2.593z" fill="#424242"/></svg>