<svg width="1914" height="1815" fill="none" xmlns="http://www.w3.org/2000/svg"><path d="M2.42 17.233C1.989 11.27 7.51 6.516 23.737 4.943c115.64-11.197 248.541 13.865 311.971 111.203 47.511 72.914 43.698 166.804 68.096 250.318 36.31 124.327 149.465 229.126 278.933 233.023 132.162 3.958 253.041-90.671 385.083-83.773 36.47 1.895 75.22 13.535 96.95 42.889 28.49 38.539 17.91 94.178-6.56 135.373-24.46 41.195-60.68 74.369-85.73 115.206-25.06 40.837-37.28 95.769-10.5 135.542 23.95 35.555 70.59 47.206 113.29 51.444 71.83 7.132 144.47 1.128 216.36 7.602 71.89 6.48 146.15 27.43 197.02 78.66 50.87 51.23 69.87 138.65 27.54 197.14-36.4 50.34-109.31 71.74-130.01 130.34-14.79 41.85 4.08 89.63 35.08 121.38 31.01 31.76 72.31 50.98 112.36 70.07 106.02 50.5 215.6 109.7 275.98 210.42-170.32-44.49-333.9-114.62-483.53-207.38-42.61-26.43-86.28-57.16-105.91-103.29-39.52-92.73 33.88-192.89 44.62-293.13 10.49-97.95-47.19-199.49-136.69-240.645-83.71-38.479-196.67-33.915-246.312-111.505-51.908-81.125 5.171-198.021-43.708-280.994-41.733-70.859-138.626-82.59-204.918-131.256-55.92-41.077-87.668-106.925-135.805-156.91-81.599-84.699-199.422-114.364-309.39-142.941-57.836-15.01-116.103-29.69-171.588-52.222-27.924-11.345-55.103-24.55-80.626-40.678C25.198 44.139 3.24 28.57 2.425 17.286l-.004-.053z" stroke="#393737" stroke-width="4" stroke-miterlimit="10"/></svg>