<svg width="1931" height="2156" fill="none" xmlns="http://www.w3.org/2000/svg"><path d="M20.909 2153.13c-6.522.67-11.91-5.23-14.154-22.97-15.973-126.4 7.247-272.88 111.915-345.52 78.404-54.42 181.442-53.24 272.206-82.65 135.117-43.78 246.372-171.17 246.502-313.21.111-145-107.483-274.47-104.146-419.422.91-40.038 12.43-82.892 43.911-107.649 41.333-32.459 102.66-22.642 148.598 2.857 45.938 25.499 83.459 64.135 129.024 90.294 45.566 26.16 106.17 37.799 148.915 7.171 38.2-27.396 49.48-78.886 52.76-125.829 5.52-78.962-3.39-158.399 1.42-237.403 4.8-79.005 25.39-161.08 79.91-218.477 54.53-57.397 149.75-81.021 215.22-36.493 56.34 38.286 82.13 117.521 147.03 138.34 46.34 14.872 98.11-7.345 131.93-42.344 33.82-35 53.56-80.887 73.21-125.404 51.96-117.82 113.35-239.837 221.82-309.247-43.32 188.12-114.96 369.676-211.86 536.657-27.6 47.553-59.89 96.402-109.83 119.401-100.38 46.286-212.52-30.964-322.73-39.536-107.71-8.366-217.17 58.105-259.41 157.535-39.504 92.988-30.888 216.654-114.35 273.559-87.264 59.49-217.225.66-306.611 56.9-76.337 48.01-86.096 154.59-137.32 228.82-43.238 62.61-114.4 99.51-167.651 153.88-90.232 92.15-118.98 222.25-146.786 343.71-14.603 63.87-28.831 128.21-51.753 189.75-11.543 30.97-25.148 61.19-42.01 89.68-6.995 11.77-23.36 36.34-35.702 37.59l-.058.01z" stroke="#393737" stroke-width="4" stroke-miterlimit="10"/></svg>