<svg width="2715" height="659" fill="none" xmlns="http://www.w3.org/2000/svg"><path d="M4.337 361.277c-4.352-4.392-3.215-11.842 8.47-23.998 83.28-86.623 204.515-156.384 319.829-122.621 86.379 25.293 146.565 101.602 221.925 150.776 112.178 73.212 271.564 79.368 375.861-4.706C1036.87 274.89 1068.12 119.212 1176.46 35.766c29.92-23.058 68.19-39.998 105-31.567 48.31 11.098 77.44 61.918 85.95 110.739 8.51 48.821 2.39 99.249 10.19 148.188 7.81 48.938 35.17 100.308 82.97 113.523 42.74 11.803 87.2-10.431 123.59-35.841 61.2-42.743 114.22-96.348 175.03-139.639 60.81-43.292 133.23-76.82 207.65-70.82 74.42 6 148.17 61.879 154.29 136.306 5.29 64.036-37.56 129.915-14.39 189.872 16.55 42.821 63.52 67.643 109.24 71.722 45.72 4.078 91.08-8.627 135.39-20.588 117.23-31.684 243.13-58.937 358.33-20.469-163.7 79.682-339.36 134.698-519.29 162.54-51.24 7.921-106.22 13.176-152.68-9.843-93.43-46.232-103.2-174.304-162.21-260.26-57.67-83.995-171.3-124.934-269.29-97.014-91.63 26.116-177.26 105.72-268.46 78.192-95.36-28.783-129.2-159.011-223.42-191.284-80.46-27.567-164.441 28.43-249.251 34.822-71.557 5.372-140.801-24.979-212.24-31.841-121.078-11.608-233.57 44.389-339.161 95.955-55.52 27.136-111.158 54.82-169.894 74.466-29.563 9.882-59.794 17.803-90.69 22.313-12.783 1.843-40.504 4.392-48.738-3.921l-.04-.04z" stroke="#393737" stroke-width="4" stroke-miterlimit="10"/></svg>