<svg width="300" height="58" fill="none" xmlns="http://www.w3.org/2000/svg"><g clip-path="url(#clip0_40_15)" fill="#F6F6F6"><path d="M42.484 17.802L27.45 51.04a3.046 3.046 0 01-.658 1.003c-.272.28-.59.5-.942.676-.352.163-.805.256-1.35.256-.93 0-1.69-.303-2.292-.92a3.377 3.377 0 01-.659-1.003L6.537 17.802v36.852c0 .956-.318 1.749-.942 2.39-.624.641-1.407.968-2.326.968-.92 0-1.702-.327-2.326-.968C.318 56.403 0 55.598 0 54.654V2.6C0 1.655.318.85.942.21c.624-.641 1.407-.968 2.326-.968a3.01 3.01 0 011.759.548 3.53 3.53 0 011.18 1.387L24.51 41.632 42.813 1.177c.273-.56.67-1.025 1.18-1.387a3.006 3.006 0 011.76-.548c.93 0 1.701.327 2.325.968.625.641.942 1.445.942 2.39v52.042c0 .956-.317 1.75-.942 2.39-.624.642-1.407.968-2.326.968s-1.702-.327-2.326-.968c-.624-.64-.942-1.445-.942-2.39v-36.84zM78.433 58c-2.837 0-5.493-.548-7.966-1.632-2.474-1.096-4.641-2.588-6.49-4.488-1.85-1.9-3.314-4.127-4.37-6.669-1.066-2.541-1.588-5.27-1.588-8.184 0-2.915.533-5.631 1.588-8.184 1.067-2.542 2.52-4.768 4.37-6.669a20.42 20.42 0 016.49-4.488c2.474-1.096 5.129-1.632 7.966-1.632 2.836 0 5.492.548 7.965 1.632 2.474 1.096 4.642 2.588 6.491 4.488 1.85 1.9 3.314 4.127 4.369 6.669 1.055 2.541 1.588 5.27 1.588 8.184 0 2.915-.533 5.643-1.588 8.184-1.067 2.553-2.52 4.768-4.369 6.669a20.42 20.42 0 01-6.49 4.488C83.924 57.464 81.268 58 78.432 58zm0-6.715c1.906 0 3.699-.373 5.39-1.13a14.155 14.155 0 004.414-3.067c1.248-1.282 2.246-2.798 2.984-4.535s1.1-3.58 1.1-5.538c0-1.958-.362-3.8-1.1-5.537-.738-1.738-1.725-3.241-2.984-4.535a14.217 14.217 0 00-4.414-3.067c-1.691-.757-3.484-1.13-5.39-1.13-1.907 0-3.7.373-5.39 1.13a14.156 14.156 0 00-4.415 3.067c-1.248 1.282-2.246 2.797-2.984 4.535-.737 1.737-1.1 3.579-1.1 5.537 0 1.959.363 3.8 1.1 5.538.738 1.737 1.725 3.241 2.984 4.535 1.249 1.294 2.724 2.308 4.415 3.066 1.69.758 3.483 1.131 5.39 1.131zm26.552-30.382c-.431-.84-.499-1.69-.204-2.565a3.463 3.463 0 011.679-1.97c.817-.443 1.646-.513 2.497-.21.839.303 1.486.886 1.917 1.726l14.219 29.297 14.218-29.297c.431-.84 1.078-1.41 1.918-1.726.839-.303 1.668-.233 2.496.21.76.443 1.305 1.108 1.634 1.97.329.863.272 1.726-.159 2.565l-17.157 35.255c-.601 1.236-1.577 1.842-2.939 1.842s-2.338-.618-2.939-1.842l-17.157-35.255h-.023zm80.634 31.477a20.088 20.088 0 01-6.286 4.151c-2.338.98-4.88 1.47-7.603 1.47s-5.492-.549-7.966-1.633a20.473 20.473 0 01-6.49-4.488c-1.85-1.9-3.314-4.127-4.369-6.669-1.067-2.541-1.589-5.27-1.589-8.184 0-2.915.534-5.631 1.589-8.184 1.067-2.542 2.519-4.768 4.369-6.669a20.418 20.418 0 016.49-4.488c2.474-1.096 5.129-1.632 7.966-1.632 2.837 0 5.481.548 7.966 1.632 2.474 1.096 4.641 2.588 6.491 4.488 1.849 1.9 3.313 4.127 4.368 6.669 1.067 2.541 1.589 5.27 1.589 8.184v17.627c0 .956-.318 1.749-.942 2.39-.624.642-1.407.968-2.326.968s-1.702-.327-2.326-.968c-.624-.641-.942-1.445-.942-2.39v-2.261l.011-.012zm-13.889-1.095c1.906 0 3.699-.373 5.39-1.13a14.146 14.146 0 004.414-3.067c1.248-1.282 2.247-2.798 2.984-4.535.738-1.737 1.101-3.58 1.101-5.538 0-1.958-.363-3.8-1.101-5.537-.737-1.738-1.724-3.241-2.984-4.535a14.21 14.21 0 00-4.414-3.067c-1.691-.757-3.484-1.13-5.39-1.13-1.906 0-3.699.373-5.39 1.13a14.156 14.156 0 00-4.414 3.067c-1.26 1.282-2.247 2.797-2.984 4.535-.738 1.737-1.101 3.579-1.101 5.537 0 1.959.363 3.8 1.101 5.538.737 1.737 1.724 3.241 2.984 4.535 1.248 1.294 2.723 2.308 4.414 3.066 1.691.758 3.484 1.131 5.39 1.131zm71.897-33.483L228.591 51.04a3.023 3.023 0 01-.658 1.003c-.272.28-.59.5-.942.676-.351.163-.805.256-1.35.256-.93 0-1.691-.303-2.292-.92a3.381 3.381 0 01-.658-1.003l-15.035-33.238v36.852c0 .956-.318 1.748-.942 2.39-.624.64-1.407.967-2.326.967s-1.702-.326-2.327-.967c-.624-.642-.941-1.446-.941-2.39V2.6c0-.956.317-1.749.941-2.39.625-.641 1.408-.968 2.327-.968.658 0 1.236.187 1.758.548.522.362.908.828 1.181 1.387l18.303 40.455 18.326-40.455a3.62 3.62 0 011.18-1.387 3.007 3.007 0 011.759-.548c.93 0 1.702.327 2.326.968.624.641.942 1.445.942 2.39v52.042c0 .956-.318 1.75-.942 2.39-.624.642-1.407.968-2.326.968s-1.702-.326-2.327-.968c-.624-.64-.941-1.445-.941-2.39v-36.84zm49.837 34.578a20.099 20.099 0 01-6.286 4.151c-2.338.98-4.88 1.47-7.603 1.47s-5.492-.549-7.966-1.633a20.488 20.488 0 01-6.491-4.488c-1.849-1.9-3.313-4.128-4.368-6.669-1.067-2.541-1.589-5.27-1.589-8.184V19.4c0-.956.318-1.75.942-2.39.624-.642 1.407-.968 2.326-.968s1.702.326 2.326.968c.624.64.942 1.445.942 2.39v17.627c0 1.959.363 3.8 1.101 5.538.737 1.737 1.725 3.24 2.984 4.535 1.248 1.294 2.724 2.308 4.414 3.066 1.691.758 3.484 1.13 5.39 1.13 1.907 0 3.699-.372 5.39-1.13a14.146 14.146 0 004.414-3.066c1.249-1.283 2.247-2.798 2.985-4.535.737-1.737 1.1-3.58 1.1-5.538V19.4c0-.956.318-1.75.942-2.39.624-.642 1.407-.968 2.326-.968.92 0 1.702.326 2.327.968.624.64.941 1.445.941 2.39v35.254c0 .956-.317 1.749-.941 2.39-.625.641-1.407.968-2.327.968-.919 0-1.702-.327-2.326-.968-.624-.641-.942-1.445-.942-2.39v-2.262l-.011-.011z"/></g><defs><clipPath id="clip0_40_15"><path fill="#fff" d="M0 0h300v58H0z"/></clipPath></defs></svg>