<svg width="533" height="525" fill="none" xmlns="http://www.w3.org/2000/svg"><path d="M254.338-.555c138.33-.928 283.163 114.336 278.549 259.411-1.538 26.371-8.945 52.108-20.524 75.785-20.829 78.672-79.009 145.404-155.563 173.88-116.223 45.634-256.77-7.244-321.123-112.705-53.035-83.324-48.082-202.469 19.935-276.026C94.909 43.1 167.992-1.686 254.339-.555zM513.81 267.174c-.429-119.552-59.253-224.267-188.82-229.496-22.175-.894-44.417.011-66.513 2.037-56.8 5.24-114.222 19.897-161.771 52.47-32.85 31.68-51.497 76.205-60.385 120.459-6.705 33.083-3.483 67.637 3.81 100.357 18.071 85.203 87.083 154.039 174.584 164.407 92.488 13.242 190.686-20.679 253.83-89.945 15.017-16.66 28.394-34.848 37.814-55.278 5.382-21.232 7.632-43.121 7.451-65.011zM35.292 319.679c-.068.011-.124.023-.192.034C77.3 565.417 397.983 587 493.852 366.298l-.192-.09C378.466 528.995 90.18 539.136 35.292 319.668v.011zm37.814-217.386c.09.09.192.181.283.271 8.73-7.752 18.477-14.136 27.885-20.96a218.81 218.81 0 0115.91-13.345c38.244-28.86 85.794-44.412 133.524-45.827-47.855 3.532-95.473 19.31-133.117 49.653 48.568-24.73 102.823-36.727 157.113-39.681 43.14-2.75 87.659-1.438 127.701 16.637-105.504-67.648-258.941-60.846-329.31 53.252h.01zm-26.268 37.994C20.014 174.989 7.599 218.824 6.005 262.33 2.43 337.12 39.092 409.556 96.559 456.243c-50.954-52.675-75.334-127.317-70.822-200.047.633-9.643 1.052-19.309 1.56-28.952 1.957-29.8 8.685-59.125 19.518-86.934l.023-.023zm470.998 163.467c.068.012.124.034.192.046 19.032-55.323 6.005-117.233-25.149-165.572 11.783 26.654 20.377 54.926 23.713 84.048 3.257 27.016 4.58 54.394 1.244 81.478zM77.708 107.307c-.068-.068-.147-.136-.215-.204-5.224 4.278-10.03 9.066-14.723 13.921-7.225 12.88-12.585 26.926-16.871 41.062 8.356-19.603 18.737-37.972 31.81-54.791v.012z" fill="#393737"/></svg>