<svg width="160" height="238" fill="none" xmlns="http://www.w3.org/2000/svg"><path d="M154.495 59.38l-52.153 112.332-75.99-163.66c-1.13-2.263-2.77-4.13-4.918-5.602C19.285.98 16.854.243 14.14.243c-3.844 0-7.067 1.302-9.668 3.905C1.872 6.751.571 9.977.571 13.825v210.516c0 3.848 1.3 7.074 3.901 9.677 2.6 2.603 5.824 3.905 9.668 3.905 3.845 0 7.068-1.302 9.669-3.905 2.6-2.603 3.9-5.829 3.9-9.677V75.282l62.42 134.459c.68 1.584 1.584 2.943 2.715 4.074 2.487 2.49 5.654 3.735 9.498 3.735 2.262 0 4.128-.339 5.598-1.018a13.428 13.428 0 003.901-2.717c1.131-1.131 2.035-2.49 2.714-4.074l45.073-97.087c.08-2.365.136-4.731.136-7.107 0-15.88-1.821-31.34-5.258-46.167h-.011z" fill="#393737"/></svg>