<svg width="150" height="30" fill="none" xmlns="http://www.w3.org/2000/svg"><g clip-path="url(#clip0_25_253)" fill="#393737"><path d="M21.242 9.208L13.725 26.4a1.57 1.57 0 01-.33.518c-.136.145-.294.26-.47.35a1.564 1.564 0 01-.676.133c-.465 0-.845-.157-1.146-.477a1.755 1.755 0 01-.329-.518L3.268 9.208v19.061c0 .495-.159.905-.47 1.236a1.54 1.54 0 01-1.164.5 1.54 1.54 0 01-1.163-.5C.159 29.174 0 28.758 0 28.27V1.345C0 .856.159.44.47.107a1.54 1.54 0 011.164-.5c.33 0 .618.096.88.283.26.187.453.428.59.718l9.151 20.924L21.407.61c.136-.29.334-.53.59-.718.26-.187.55-.283.88-.283.464 0 .85.169 1.162.5.312.332.471.748.471 1.236v26.92c0 .494-.159.904-.47 1.235a1.54 1.54 0 01-1.164.5 1.54 1.54 0 01-1.163-.5c-.312-.331-.47-.747-.47-1.236V9.208zM39.216 30a9.534 9.534 0 01-3.983-.844 10.304 10.304 0 01-3.245-2.322 10.927 10.927 0 01-2.184-3.45c-.534-1.314-.795-2.725-.795-4.232 0-1.508.267-2.913.795-4.233a11.034 11.034 0 012.184-3.45 10.208 10.208 0 013.245-2.321c1.237-.567 2.565-.844 3.983-.844a9.53 9.53 0 013.983.844 10.303 10.303 0 013.245 2.321 10.926 10.926 0 012.185 3.45c.528 1.314.794 2.725.794 4.233 0 1.507-.267 2.918-.794 4.233a10.958 10.958 0 01-2.184 3.45 10.21 10.21 0 01-3.246 2.32c-1.237.568-2.564.845-3.983.845zm0-3.473a6.32 6.32 0 002.695-.585 7.077 7.077 0 002.207-1.586 7.603 7.603 0 001.492-2.346 7.46 7.46 0 00.55-2.864 7.46 7.46 0 00-.55-2.865 7.569 7.569 0 00-1.492-2.345 7.109 7.109 0 00-2.207-1.586 6.32 6.32 0 00-2.695-.585 6.32 6.32 0 00-2.695.585 7.075 7.075 0 00-2.207 1.586 7.603 7.603 0 00-1.492 2.345 7.46 7.46 0 00-.55 2.865 7.46 7.46 0 00.55 2.864 7.57 7.57 0 001.492 2.346 7.013 7.013 0 002.207 1.586 6.32 6.32 0 002.695.585zm13.277-15.715a1.691 1.691 0 01-.102-1.327c.147-.446.43-.79.84-1.019a1.425 1.425 0 011.247-.108c.42.157.744.458.96.892l7.108 15.154 7.11-15.154c.215-.434.538-.73.958-.892.42-.157.834-.12 1.248.108.38.23.653.573.818 1.02a1.62 1.62 0 01-.08 1.326l-8.578 18.235c-.301.64-.79.953-1.47.953-.68 0-1.169-.32-1.47-.953l-8.578-18.235h-.011zM92.81 27.093a10.026 10.026 0 01-3.144 2.147c-1.168.507-2.44.76-3.8.76a9.726 9.726 0 01-3.984-.844 10.24 10.24 0 01-3.245-2.322 10.927 10.927 0 01-2.184-3.45c-.534-1.314-.795-2.725-.795-4.232 0-1.508.267-2.913.794-4.233.534-1.315 1.26-2.467 2.185-3.45a10.208 10.208 0 013.245-2.321c1.237-.567 2.565-.844 3.983-.844a9.55 9.55 0 013.983.844 10.303 10.303 0 013.245 2.321 10.926 10.926 0 012.185 3.45c.533 1.314.794 2.725.794 4.233v9.117c0 .495-.159.905-.47 1.237a1.54 1.54 0 01-1.164.5 1.54 1.54 0 01-1.163-.5c-.312-.332-.471-.748-.471-1.237V27.1l.006-.006zm-6.945-.566a6.32 6.32 0 002.695-.585 7.077 7.077 0 002.207-1.586 7.603 7.603 0 001.492-2.346 7.46 7.46 0 00.55-2.864 7.46 7.46 0 00-.55-2.865 7.569 7.569 0 00-1.492-2.345 7.109 7.109 0 00-2.207-1.586 6.32 6.32 0 00-2.695-.585 6.32 6.32 0 00-2.695.585 7.075 7.075 0 00-2.207 1.586 7.5 7.5 0 00-1.492 2.345 7.46 7.46 0 00-.55 2.865 7.46 7.46 0 00.55 2.864 7.57 7.57 0 001.492 2.346 7.013 7.013 0 002.207 1.586 6.32 6.32 0 002.695.585zm35.948-17.319L114.296 26.4c-.08.205-.193.374-.329.519a1.757 1.757 0 01-.471.35 1.563 1.563 0 01-.675.132c-.466 0-.846-.157-1.147-.476a1.776 1.776 0 01-.329-.519l-7.517-17.192v19.061c0 .495-.159.905-.471 1.237-.312.331-.704.5-1.163.5a1.54 1.54 0 01-1.163-.5c-.312-.332-.471-.748-.471-1.237V1.345c0-.495.159-.905.471-1.236a1.54 1.54 0 011.163-.501c.329 0 .618.097.879.283.261.187.454.429.59.718l9.152 20.925L121.978.609c.136-.29.335-.53.59-.718.261-.186.55-.283.879-.283.466 0 .851.169 1.163.5.312.332.471.748.471 1.237v26.918c0 .495-.159.905-.471 1.236a1.54 1.54 0 01-1.163.501 1.54 1.54 0 01-1.163-.5c-.312-.332-.471-.748-.471-1.237V9.208zm24.919 17.885a10.023 10.023 0 01-3.143 2.147c-1.169.507-2.44.76-3.802.76a9.72 9.72 0 01-3.982-.844 10.242 10.242 0 01-3.246-2.322 10.928 10.928 0 01-2.184-3.45c-.533-1.314-.794-2.725-.794-4.232v-9.118c0-.494.158-.904.47-1.236.313-.332.704-.5 1.164-.5.459 0 .851.168 1.163.5.312.332.471.748.471 1.236v9.118c0 1.013.181 1.966.55 2.864a7.568 7.568 0 001.492 2.346 7.015 7.015 0 002.207 1.586 6.323 6.323 0 002.695.585 6.32 6.32 0 002.695-.585 7.084 7.084 0 002.207-1.586 7.59 7.59 0 001.492-2.346 7.457 7.457 0 00.551-2.864v-9.118c0-.494.159-.904.471-1.236a1.54 1.54 0 011.163-.5c.459 0 .851.168 1.163.5.312.332.471.748.471 1.236V28.27c0 .495-.159.905-.471 1.237a1.54 1.54 0 01-1.163.5 1.54 1.54 0 01-1.163-.5c-.312-.332-.471-.748-.471-1.237V27.1l-.006-.006z"/></g><defs><clipPath id="clip0_25_253"><path fill="#fff" d="M0 0h150v30H0z"/></clipPath></defs></svg>