<svg width="814" height="733" fill="none" xmlns="http://www.w3.org/2000/svg"><g clip-path="url(#clip0_33_619)" fill="#F9E23A"><path d="M158.526 244.038c-1.129 2.094-4.54 1.74-3.801 4.713-2.455.601-4.908 1.216-7.363 1.817-2.05-2.585-5.324-3.598-7.352-6.544-3.1-4.493-7.171-8.343-11.033-12.258-.75-.759-2.682-1.129-3.692-.728-7.173 2.861-12.306-.253-17.206-5.085-2.258-2.219-5.155-3.772-7.715-5.704-.807-.61-1.728-1.352-2.044-2.226-.959-2.591-2.736-4.011-5.376-4.412-3.194-.489-4.724-2.608-5.41-5.499-.595-2.527-1.218-5.066-1.559-7.647-.118-.907.264-2.137.854-2.856 3.142-3.829 4.7-8.277 4.986-13.103.206-3.453 1.847-5.31 4.967-6.307 1.586-.515 3.413-.925 4.588-1.974 2.548-2.277 4.867-1.629 7.61-.477 4.612 1.916 8.597 4.741 12.135 8.141 3.869 3.699 7.879 7.369 11.11 11.589 9.045 11.764 17.73 23.808 26.535 35.767.812 1.098 1.452 2.342 2.089 3.558 1.506 2.897 1.493 2.913-1.936 5.721-6.41-9.653-12.35-19.654-20.985-28.126-.961 2.637.657 3.9 1.766 5.385 5.565 7.495 11.115 14.993 16.613 22.538.879 1.192 1.517 2.565 2.19 3.706l.029.011zM651.557 586.65c-1.163 3.504-3.808 4.067-7.029 4.757-3.305.714-6.333 1.041-9.731.815-5.423-.37-9.624-2.485-13.226-6.382-6.013-6.503-12.198-12.861-18.159-19.427-1.273-1.397-1.833-3.439-2.778-5.156-.577-1.049-1.116-2.145-1.869-3.076-5.463-6.759-6.123-14.623-5.767-23.262 3.741.795 5.843-3.966 9.66-1.383.723-1.12 1.491-1.928 1.799-2.877 1.256-3.73 3.764-4.953 7.487-4.2.732.144 1.53.079 2.29.062 4.432-.063 7.748 1.664 10.573 5.264 5.719 7.308 10.889 14.728 12.354 24.208.548 3.523 2.474 6.594 5.486 8.739a421.416 421.416 0 009.716 6.77c2.739 1.842 4.987 4.106 6.086 7.244 1.84 5.263-.9 8.65-6.92 7.907l.028-.003zM213.542 422.236a666.201 666.201 0 01-3.678-4.536c.168 3.316.296 5.631.418 8.19-1.878 1.348-3.766 2.885-5.811 4.149-3.725 2.277-8.95-.311-9.768-4.525-.461-2.353-1.213-4.735-2.287-6.885-1.933-3.875-4.082-4.697-7.692-2.56-2.335 1.379-4.15 1.328-6.369.239-2.189-1.077-4.7-1.634-6.685-2.975a31.684 31.684 0 01-6.37-5.751c-1.919-2.281-3.552-4.706-5.783-6.799-1.695-1.599-2.117-4.574-2.973-6.989-.954-2.693.017-4.785 1.624-7.141a66.787 66.787 0 006.454-12.056c1.008-2.455 2.161-3.732 4.733-4.157 2.996-.497 6.108-2.297 8.819-1.76 2.519.499 4.458 3.554 6.879 5.097 12.182 7.734 19.568 19.575 27.047 31.336 2.855 4.487 2.785 9.608 2.908 14.652.012.702-.821 1.431-1.479 2.487l.013-.016zm549.069 175.537c.865-3.465 2.623-5.348 5.275-5.648.397 2.274.782 4.578 1.181 6.88.276.03.564.044.84.075.599-2.228 1.197-4.471 1.867-7.007 2.305.649 3.5 1.996 4.086 4.007a39.361 39.361 0 001.001 3.019c1.477 3.761 3.649 6.276 8.268 5.046.883-.231 2.196.128 2.984.683 5.092 3.577 9.686 7.635 10.864 14.198.556 3.163 1.322 6.42 1.07 9.548-.193 2.418-1.65 4.831-2.957 7.013-.444.748-2.089.967-3.212 1.078-1.01.1-2.081-.269-3.263-.454-.8 1.213-1.564 2.352-2.299 3.487-1.06 1.641-2.252 2.951-4.497 2.181-.416-.146-1.048-.284-1.344-.083-3.147 2.177-6.767 2.175-10.367 2.372-2.973.149-5.915.611-8.881.688-.731.014-1.427-1.066-2.234-1.389-.702-.276-1.54-.179-2.8-.284-2.127-2.922-2.182-6.982-3.055-11.765-.635 1.728-.973 2.667-1.584 4.336-.389-1.47-.748-2.34-.85-3.235-.718-6.551-1.42-13.104-2.067-19.662-.435-4.424.085-7.018 2.09-11.453 1.242-.366 3.095-.362 3.493-1.134 1.44-2.742 3.66-2.946 6.372-2.538l.019.041zm-372.562 16.06c1.232-1.644 2.926-3.98 4.713-6.253 1.239-1.573 2.79-2.3 4.846-1.411.809.337 1.811.597 2.643.443 11.696-2.157 27.474 12.635 30.229 22.231.984 3.423 1.582 6.869-.736 10.458a418.31 418.31 0 01-4.195-2.043c-.93 3.683-1.83 7.233-2.83 11.225-2.007-.837-3.326-1.396-5.019-2.106-.059 1.442-.089 2.594-.149 4.18-4.302 1.961-8.874 3.676-13.831 3.517-2.017-.059-4.234-.846-5.978-1.924-9.561-5.925-16.14-14.383-20.267-24.779-1.55-3.926-.802-6.543 2.422-9.245.823-.684 1.574-1.519 2.519-1.986 1.616-.805 3.353-1.393 5.619-2.306l.014-.001zm258.983-157.218c-3.174-.147-5.963.272-8.927 1.239-3.061 1.005-7.144 1.551-9.881.313-4.962-2.255-10.023-5.075-12.681-10.472-.933-1.891-1.877-3.895-3.304-5.406-4.251-4.508-3.797-10.112-3.947-15.57-.019-.774 1.078-1.744 1.865-2.353 3.767-2.884 7.617-5.648 11.402-8.492 2.207-1.654 4.774-2.567 7.327-1.885 4.261 1.117 8.542 2.434 12.468 4.374 2.763 1.365 5.283 3.616 7.325 5.972 6.111 7.068 11.949 14.422 13.18 24.141.426 3.304-.465 6.509-3.033 9.463l-1.037-10.528-1.252.124c.265 2.688.587 5.371.795 8.066.237 3.137-3.657 6.766-6.784 6.227-.789-.138-1.677-.84-2.119-1.529-.63-1.001-.881-2.24-1.412-3.696l.015.012zm-130.929-60.072c3.18 2.387 6.039 4.433 8.769 6.634 2.153 1.728 3.481 7.63 2.432 10.103-.117.27-.264.673-.486.752-2.822.953-4.621 3.543-7.064 4.703-1.975.942-4.137 1.6-6.07 2.825-.716.458-1.755.704-2.611.616-4.891-.509-9.535-1.431-13.767-4.433-9.929-7.037-16.164-16.52-19.872-27.919-1.322-4.079-.819-7.432 2.741-10.225 3.014-2.365 5.832-4.955 8.682-7.52 2.06-1.841 4.429-2.577 7.162-2.544 8.358.125 14.772 3.558 18.755 11.037 2.626 4.927 5.116 9.939 1.329 15.971zm16.731-228.818c-1.893 3.821-4.721 2.376-7.634 2.261.357 1.588.679 2.964 1.044 4.623-2.381 1.642-4.855 3.351-7.346 5.047-.242.167-.613.333-.849.27-3.789-.991-7.631.838-11.57-.799-7.595-3.173-14.336-7.149-20.082-13.277-3.884-4.142-7.769-8.14-10.704-13.008-.771-1.26-1.406-2.605-2.074-3.846 3.569-2.995 5.575-6.683 7.41-10.368 1.151-2.312 1.942-4.056 5.026-3.081.918.283 2.334-.359 3.281-.955 2.445-1.577 4.829-1.582 7.387-.398 7.498 3.499 14.541 7.33 20.6 13.427 4.001 4.016 7.874 8.044 11.207 12.571 1.774 2.41 3.012 5.204 4.318 7.532l-.014.001zM126.392 512.611a8611.49 8611.49 0 01-5.927-5.923c-.277.099-.569.2-.847.299.187 1.892.359 3.785.559 5.676.159 1.464.06 2.939-1.527 3.454-5.972 1.924-10.95 6.365-17.728 6.386-4.465.024-8.105-.623-10.623-4.742-.977-1.613-2.645-2.799-4.259-4.45-.603 1.309-.943 2.09-1.311 2.873-.26-.161-.643-.253-.766-.485-2.196-4.352-4.49-8.679-6.478-13.123-1.103-2.448-1.289-5.058.698-7.351.283-.33.51-.797.582-1.235.998-5.758 5.066-7.768 10.224-8.491.284-.028.552-.227 1.104-.454.29-1.134.623-2.431.981-3.745 1.082-4.042 2.708-5.179 6.94-4.95 2.569.135 5.17-.006 7.697.42 1.329.228 2.837 1.099 3.702 2.149a50.21 50.21 0 014.931 7.185c1.74 3.089 4.054 5.289 7.453 6.404 3.178 1.052 5.58 3.128 7.206 6.071 2.658 4.823 1.939 9.188-2.595 14.045l-.016-.013zm92.299-345.631c-.67-.537-1.234-1.013-1.921-1.563.951-1.286 1.637-2.201 2.701-3.641-2.049.345-3.476.586-4.409.736-2.268-1.443-4.132-2.725-6.069-3.87-7.277-4.31-13.045-10.077-17.19-17.454-.678-1.197-1.208-2.495-1.966-3.627-5.066-7.531-4.116-14.95.219-22.415.823-1.417 1.45-3.074 1.65-4.688.327-2.517 1.431-3.847 3.965-4.225 1.953-.293 3.938-.704 5.778-1.417 2.783-1.064 4.848-.219 6.366 2.059 2.277 3.438 4.708 6.819 6.48 10.522 3.179 6.611 5.934 13.435 8.812 20.19 1.664 3.916 4.075 4.77 7.794 2.565.868-.516 1.598-1.278 2.395-1.931 3.264 3.973 3.429 5.207.882 8.948-1.72 2.525-3.686 4.874-5.466 7.362-.884 1.236-1.778 2.516-2.329 3.921-1.399 3.585-3.751 6.244-7.708 8.516l.016.012zm540.804 244.308c2.597.405 5.205 1.996 7.825 4.774.676-1.589 1.32-3.075 2.009-4.68 4.415.628 7.092 3.022 8.334 7.022 1.826 5.853 3.537 11.703 3.562 17.935.013 3.044.304 6.147.9 9.133.946 4.791.394 9.399-.768 14.081-5.136 2.976-10.231 5.935-15.342 8.88-1.943 1.125-9.787.246-11.31-1.371-.594-.631-.955-1.529-1.267-2.36-.954-2.535-1.524-5.265-2.832-7.607-1.972-3.54-3.412-7.076-3.602-11.194-.177-3.976-.838-7.918-1.071-11.889-.074-1.185.567-2.411 1.033-4.238-.592-.33-1.808-1-3.038-1.683.09-.397.194-.795.284-1.192 1.687.064 3.388.126 5.509.219.508-1.257 1.076-2.634 1.601-4.022.684-1.805.855-4.005 3.643-3.993.402.004.849-1.003 1.18-1.581 1.096-1.99 2.162-4.005 3.35-6.234zM313.983 211.746c3.192 1.05 5.718 1.318 6.742-2.287a26.667 26.667 0 0110.409 4.907c10.815 8.3 21.425 16.85 30.65 26.944 2.752 3.004 5.658 5.964 7.087 10.262-2.056.863-3.774 1.794-4.696 3.953-.538 1.245-2.213 2.028-3.431 2.938-3.694 2.748-4.127 2.575-8.134.255-2.33-1.35-4.995-2.151-7.556-3.076-2.71-.969-5.546-1.609-8.184-2.728-9.277-3.912-16.672-10.739-24.788-16.432-.124-.089-.234-.193-.359-.295-6.105-5.245-6.653-9.788-1.854-16.193.901-1.209 2.385-2.03 3.063-3.318.666-1.258.664-2.881 1.078-4.947l-.027.017zM24.644 297.174c2.202-2.874 4.388-5.617 6.42-8.461a15.126 15.126 0 002.005-4.004c1.426-4.334 3.726-5.624 8.462-4.353.842-.93 1.734-1.937 2.679-2.993.45.042.931-.02 1.334.128 4.177 1.427 7.537 4.04 10.324 7.4 7.578 9.122 13.305 19.431 18.663 29.935 1.12 2.188 1.312 4.855 1.422 7.574-5.27-2.024-5.648-8.192-10.272-11.672 1.306 6.694 5.333 11.411 7.26 17.556-1.484-.199-2.709-.38-4.121-.571-.096 4.419-3.7 3.999-6.83 4.882-.955-1.084-2.022-2.143-2.914-3.333-2.68-3.571-6.158-5.642-10.526-6.82-7.114-1.928-13.134-5.889-17.623-11.795-1.732-2.272-2.825-5.051-4.059-7.659-.835-1.771-1.41-3.668-2.21-5.815l-.014.001zm304.81 132.863c-2.673-4.391-5.071-8.32-7.469-12.249l-.859.472c1.158 5.186 5.307 9.101 6.556 13.474-2.076 3.566-3.795 6.536-5.698 9.812a433.53 433.53 0 00-3.902-1.698c1.074 6.674-1.282 6.82-5.117 7.111-1.18 2.602-2.487 5.373-6.341 3.728a.533.533 0 00-.444.015c-4.628 2.883-6.875-.673-8.793-3.673-2.8-4.364-5.018-9.087-7.535-13.637-1.416-2.561.136-4.164 2.9-6.289-2.543-.009-3.923-.016-5.532-.016-.628-3.026-1.275-6.094-1.929-9.233 1.489-.778 2.692-1.4 4.154-2.161-1.626-2.067-1.008-3.808.706-5.514 1.399-1.402 2.558-3.053 3.815-4.584 3.81-4.627 8.993-6.115 14.578-3.663 2.611 1.136 5.068 2.891 7.207 4.777 5.083 4.498 9.093 9.921 12.323 15.88 1.139 2.085 2.244 4.26 1.366 7.449l.014-.001zm-7.34 136.192c-2.392.795-4.54 1.596-6.731 2.243-6.533 1.922-12.575-1.088-15.387-7.462-.572-1.294-1.75-2.313-2.477-3.563-.587-1.005-1.275-2.158-1.298-3.262-.089-3.094-1.664-5.079-4.041-6.755-1.497-1.059-2.881-2.273-4.279-3.485-1.979-1.716-3.922-3.22-6.883-2.942-1.992.196-3.447-.724-3.076-3.374.194-1.384-.545-2.906-.895-4.566 2.923-2.701 6.895-2.475 10.808-3.291-1.129-2.13-2.103-4.002-3.373-6.391 1.097-.826 2.09-2.116 3.338-2.426 9.016-2.238 16.796-.534 23.248 6.774 5.092 5.761 9.438 11.969 13.344 18.522 1.633 2.727 2.807 5.743 3.974 8.701 1.265 3.208.504 5.984-2.43 8.14-.978-.449-1.911-.889-3.101-1.447-.237 1.532-.441 2.816-.712 4.581l-.029.003zm200.68 59.908c-.552-3.278.51-4.89 2.116-6.227 3.849-3.209 7.715-6.405 11.631-9.52 1.826-1.444 3.736-2.608 6.262-1.177.837.478 2.1.325 3.144.279 5.534-.257 10.257 1.762 14.106 5.549 3.262 3.212 6.222 6.727 9.181 10.228.96 1.14 1.579 2.616 2.107 4.03 2.071 5.57 1.812 5.567-2.612 9.507-4.952 4.41-10.612 6.447-17.125 6.672-2.749.098-5.478.539-8.233.71-1.041.074-2.589.255-3.063-.33-2.888-3.508-7.597-4.064-10.837-7.063-4.094-3.791-5.466-8.683-6.677-12.658zm5.904-320.356c-.955-.94-1.922-1.865-3.227-3.158-.38 1.976-.704 3.646-.971 5.022-2.198 1.452-4.055 3.014-6.186 3.985-1.567.715-3.68 1.282-5.207.8-3.439-1.083-7.041-2.351-9.905-4.454-8.345-6.115-13.715-14.693-18.082-23.887-1.014-2.127-2.24-4.951 1.334-6.437-.092-4.286 5.206-4.894 5.991-8.735.145-.718 1.979-1.344 3.123-1.543 6.01-1.109 10.739 1.111 13.966 6.165 2.631 4.108 5.117 8.345 7.271 12.715 1.418 2.876 3.286 4.919 6.036 6.587 2.538 1.56 4.899 3.654 6.807 5.966 2.56 3.094 2.292 3.581-.948 7.002l-.002-.028zm-119.83 104.367c.089-1.143.145-1.882.277-3.604 1.693 1.873 2.884 3.178 4.691 5.183l-4.211.415c-.062.25-.125.486-.186.737 1.158.676 2.318 1.366 3.492 2.054-2.644 1.597-5.272 3.206-8.473 5.13-1.88-1.151-4.431-2.695-7.196-4.376-.422 1.55-.77 2.834-1.077 3.941-.447.274-.687.47-.963.583-5.411 2.372-10.496 3.103-14.138-2.959-7.134-3.88-11.094-10.255-13.898-17.577-1.026-2.686-1.822-4.935 1.001-7.338 2.24-1.902 3.764-4.652 5.597-7.045 2.228-2.905 5.24-3.532 8.614-2.816 4.137.871 7.751 2.856 10.895 5.606 3.79 3.333 7.41 6.84 11.096 10.283 1.534 1.429 2.263 2.851 1.55 5.234-1.038 3.464-.076 5.064 2.955 6.518l-.026.031zm-121.621-95.793c-.675.727-1.577 1.347-1.995 2.207-1.244 2.536-2.618 4.768-6.124 4.467.569 4.9 5.724 6.489 6.494 11.24-1.608-.862-3.229-1.722-5.594-2.983.951 1.932 1.633 3.315 2.314 4.685l.906.744c-1.182.978-2.332 1.982-3.531 2.933-1.986 1.575-4.018 1.646-5.771.037-5.051-4.616-10.182-9.167-15.012-14.006-2.343-2.354-4.315-5.162-6.06-8.007-2.74-4.484-2.203-7.927 1.119-12.119.804-1.027 1.229-2.39 1.665-3.654 2.184-6.263 8.006-8.703 13.921-5.666 1.89.963 3.772 2.128 5.308 3.571 3.659 3.46 7.243 7.043 10.6 10.791 1.325 1.493 1.977 3.584 2.931 5.4-.376.123-.767.234-1.143.357l-.028.003zm57.359-231.959c-2.557-.882-4.282-1.474-6.78-2.334.865 1.337 1.265 2.045 1.76 2.7.53.709 1.125 1.354 1.892 2.284-2.193 1.509-4.005 3.382-6.201 4.13-2.891.989-5.943.772-8.726-1.237-5.567-4.02-11.235-7.9-16.941-11.72-2.906-1.94-5.787-4.5-9.016-5.201-4.815-1.049-5.292-4.291-6.194-8.196 1.243.08 2.213.156 3.124.21 1.095-2.971 2.992-4.623 5.688-4.956-.472-1.002-.881-1.938-1.343-2.84-.482-.959-1.018-1.883-1.706-3.18.924-.823 1.888-1.68 3.065-2.715 2.593 1.971 4.998 3.788 7.683 5.822.887-3.247-2.768-4.482-2.408-7.39 3-.899 5.215.736 7.168 2.626 5.728 5.512 11.354 11.149 17.031 16.723 2.511 2.453 5.05 4.89 7.641 7.277 2.037 1.868 3.948 3.777 4.262 7.983l.001.014zm49.945 421.265c1.024 2.657 2.836 3.7 5.132 4.551 2.34.861 4.387 2.541 6.938 4.085.199-.163.836-.7 1.579-1.319 2.34.718 1.903 2.844 2.053 4.51.288 3.505 1.282 6.596 4.326 9.068 2.097-3.51-2.521-5.181-2.085-8.341.469-.046 1.201-.348 1.512-.106 3.421 2.651 5.26 9.364 3.651 13.301-.381.942-.98 2.007-1.788 2.546-3.893 2.624-7.889 5.072-11.957 7.67-1.274-.104-2.88-.075-4.42-.397-1.512-.325-3.16-.723-4.355-1.625-1.769-1.334-3.341-3.004-4.665-4.784-.496-.655-.067-1.99-.046-3.816-1.033 1.323-1.657 2.131-2.5 3.205-1.101-1.414-2.02-2.573-2.991-3.828a492.019 492.019 0 012.093-4.415c-1.478.017-2.67.019-4.305.037 1.587-2.555.231-4.648-.751-6.749-1.291-2.746-1.792-5.21 1.184-7.227.471-.32.798-.941 1.076-1.471 1.709-3.357 4.267-5.088 8.161-4.495.569.087 1.187-.203 2.188-.388l-.03-.012zM627.259 323.22c-2.362-1.376-4.1-2.397-6.174-3.615-.026 2.214-.051 3.998-.076 6.227-4.091 1.049-8.171 2.212-12.31 3.066-.986.197-2.463-.361-3.238-1.089-2.341-2.183-4.621-4.472-6.593-6.992-2.447-3.121-4.808-6.378-6.715-9.839-1.259-2.289-1.648-5.066-2.432-7.632 4.908-2.667 9.369-5.362 10.796-11.578 2.234 1.977 3.681 3.243 5.35 4.73.698-.931 1.295-1.722 2.045-2.715 2.423.537 4.273 2.107 5.795 3.997 4.04 5.003 8.041 10.038 11.908 15.173 2.047 2.7 2.277 5.909 1.631 10.282l.013-.015zM438.986 223.032c-1.149-1.754-2.13-3.252-3.179-4.858-.716.603-1.247 1.043-1.884 1.579-.314-.27-.683-.521-.93-.842-2.63-3.36-5.128-6.849-7.915-10.065-2.058-2.368-3.721-2.334-6.317-.397-.546-.291-1.199-.658-1.876-.965-.694-.334-1.41-.608-2.49-1.076 1.691-1.79 2.694-2.837 3.892-4.089-.272-1.597-.59-3.361-.938-5.438 1.558.363 2.838.668 4.47 1.053.474-1.023.85-2.166 1.504-3.107.73-1.048 1.708-1.906 2.593-2.841.482-.507 1.189-.907 1.43-1.52 1.639-4.068 4.314-5.352 7.962-3.168 4.182 2.503 8.094 5.465 12.438 8.441-1.302 1.508-2.348 2.702-3.715 4.288 3.374 4.795 6.762 9.59 9.953 14.13-1.191 3.22-3.358 1.337-4.838 1.626-.172.448-.429.746-.379.971 1.238 4.834 1.053 5.139-3.89 5.712-1.818.208-3.656.361-5.875.579l-.016-.013zm195.394-47.56c-1.108-1.04-2.186-2.068-3.517-3.331-1.213 3.151 1.164 5.545 1.325 8.345-1.619 1.509-3.234 1.008-4.854-.126-.799 5.595-3.941 7.671-10.168 6.719-4.376-.675-6.098-3.278-5.357-8.593-.877-.446-1.952-1-2.739-1.411.04-1.053.009-1.509.081-1.947.271-1.765.846-3.517.803-5.265-.057-2.034.23-3.642 2.177-4.581 1.865-.902 2.486-2.471 2.783-4.411.447-2.903 2.241-4.372 5.189-4.921 9.718-1.819 9.913-1.882 14.37 7.203 1.186 2.411 1.828 5.134 2.42 7.791.435 1.939-.427 3.547-2.51 4.557l-.003-.029zM417.812 322.464c-1.969 2.32-.288 4.223.349 6.171-1.931 1.828-3.552-.483-5.591.106a328.085 328.085 0 01-1.193 3.637l-6.061.597c-8.378-1.933-10.306-9.701-15.221-14.531-.731-.718-.681-2.246-1.017-3.477 2.486-1.739 4.831-3.305 7.062-5.005.536-.397.767-1.253 1.016-1.938 1.534-4.26 1.952-4.387 5.411-1.496.922-.852 1.836-2.364 2.782-2.386 1.075-.019 2.461 1.065 3.233 2.052 3.086 3.919 6.804 6.957 11.213 9.281 3.728 1.974 4.086 3.131 3.078 7.626-1.599-.202-3.242-.399-5.075-.635l.014-.002zm87.291 198.604c-.551.385-1.171.791-1.758 1.251-5.325 4.13-8.191 4.627-13.59.864-4.086-2.843-7.597-6.548-11.213-10.013-.936-.899-1.478-2.311-1.961-3.57-1.06-2.74-1.215-5.195 1.672-7.232 2.78-1.969 4.529-5.359 8.686-5.294 1.913.027 3.119.454 4.126 2.078 2.391 3.859 4.851 7.681 7.458 11.403 1.219 1.733 2.724 3.294 4.287 4.735 1.678 1.573 2.624 3.304 2.322 5.775l-.029.003z"/></g><defs><clipPath id="clip0_33_619"><path fill="#fff" transform="rotate(174.374 390.542 349.471)" d="M0 0h752.194v661.918H0z"/></clipPath></defs></svg>