<svg width="709" height="804" fill="none" xmlns="http://www.w3.org/2000/svg"><path d="M195.429 628.223c1.919 1.506.969 4.891 4.101 4.662.18 2.585.375 5.171.555 7.756-2.969 1.622-4.562 4.755-7.892 6.292-5.079 2.351-9.679 5.794-14.307 9.016-.897.626-1.607 2.514-1.378 3.604 1.644 7.746-2.396 12.392-8.132 16.503-2.636 1.896-4.709 4.552-7.106 6.804-.757.709-1.667 1.51-2.605 1.677-2.786.519-4.53 2.068-5.394 4.665-1.051 3.143-3.458 4.321-6.499 4.512-2.657.16-5.331.348-7.998.243-.938-.038-2.114-.638-2.738-1.359-3.323-3.841-7.547-6.19-12.374-7.319-3.454-.808-5.044-2.79-5.509-6.116-.245-1.693-.341-3.61-1.197-4.98-1.857-2.971-.799-5.202.842-7.773 2.739-4.328 6.287-7.863 10.339-10.846 4.41-3.267 8.817-6.681 13.644-9.211 13.462-7.094 27.143-13.774 40.761-20.592 1.251-.629 2.619-1.059 3.959-1.491 3.189-1.018 3.203-1.003 5.444 2.951-10.87 4.798-22.01 9.061-32.074 16.312 2.498 1.43 4.055.015 5.749-.847 8.543-4.319 17.085-8.624 25.667-12.867 1.357-.681 2.856-1.086 4.125-1.568l.017-.028zm432.005-438.614c3.339 1.785 3.447 4.555 3.585 7.931.146 3.464-.051 6.58-.87 9.975-1.318 5.415-4.186 9.293-8.75 12.255-7.619 4.944-15.119 10.089-22.792 14.971-1.633 1.042-3.794 1.253-5.693 1.909-1.161.401-2.362.755-3.434 1.353-7.781 4.345-15.843 3.644-24.511 1.781 1.454-3.642-2.991-6.595.284-10.002-1.006-.925-1.689-1.842-2.595-2.319-3.55-1.918-4.351-4.665-2.941-8.296.272-.715.346-1.533.461-2.304.707-4.49 3.029-7.54 7.159-9.769 8.38-4.507 16.778-8.44 26.612-8.271 3.655.059 7.094-1.353 9.786-4.024a426.448 426.448 0 008.532-8.641c2.338-2.446 5.016-4.324 8.379-4.889 5.638-.944 8.584 2.415 6.786 8.369l.002-.029zM385.077 603.632a675.605 675.605 0 01-5.224 2.929c3.381.406 5.742.68 8.349 1.001 1.036 2.133 2.26 4.308 3.182 6.594 1.653 4.162-1.871 8.991-6.272 9.084-2.459.057-4.997.402-7.356 1.113-4.252 1.28-5.457 3.309-3.926 7.329.988 2.599.62 4.424-.866 6.477-1.469 2.025-2.469 4.465-4.17 6.238-2.018 2.102-4.401 3.958-6.919 5.436-2.639 1.543-5.374 2.771-7.877 4.662-1.911 1.434-4.991 1.343-7.58 1.787-2.888.497-4.833-.85-6.934-2.883a68.47 68.47 0 00-11.06-8.62c-2.305-1.445-3.395-2.832-3.378-5.506.02-3.114-1.258-6.572-.243-9.217.942-2.46 4.367-3.887 6.347-6.066 9.936-10.964 23.187-16.368 36.372-21.879 5.032-2.105 10.194-1.143 15.313-.39.712.11 1.303 1.079 2.256 1.927l-.014-.016zM657.997 79.32c-3.352-1.477-4.948-3.582-4.789-6.314 2.366-.005 4.761.007 7.157.004.078-.273.143-.562.222-.836a1512.55 1512.55 0 00-6.756-3.105c1.057-2.216 2.627-3.19 4.76-3.433 1.083-.127 2.151-.27 3.225-.486 4.058-.838 6.978-2.596 6.538-7.477-.08-.932.512-2.197 1.209-2.896 4.501-4.524 9.401-8.46 16.239-8.509 3.293-.011 6.717-.219 9.834.58 2.41.616 4.594 2.508 6.573 4.21.678.578.614 2.278.53 3.433-.075 1.038-.634 2.055-1.027 3.217 1.088 1.02 2.105 1.99 3.124 2.93 1.475 1.357 2.591 2.79 1.422 4.924-.22.396-.47 1.01-.318 1.344 1.653 3.559 1.02 7.216.593 10.889-.367 3.03-.412 6.084-.85 9.094-.113.742-1.326 1.257-1.792 2.016-.401.662-.449 1.526-.775 2.78-3.322 1.641-7.434.99-12.42 1.04 1.636.942 2.526 1.448 4.106 2.356-1.553.137-2.494.348-3.416.296-6.745-.415-13.489-.845-20.229-1.333-4.547-.33-7.078-1.306-11.21-4.104-.155-1.32.172-3.191-.539-3.728-2.52-1.931-2.34-4.211-1.456-6.88l.045-.012zm-48.594 379.282c-1.447-1.53-3.512-3.649-5.498-5.851-1.374-1.525-1.839-3.219-.583-5.142.481-.758.918-1.726.908-2.594-.146-12.194 17.548-25.565 27.725-26.679 3.629-.399 7.216-.403 10.44 2.564a439.48 439.48 0 01-2.795 3.883c3.56 1.58 6.991 3.108 10.851 4.813-1.195 1.882-1.99 3.118-3.001 4.706 1.447.31 2.606.541 4.198.877 1.233 4.689 2.17 9.607 1.148 14.589-.412 2.027-1.593 4.132-2.986 5.706-7.65 8.631-17.342 13.808-28.565 16.169-4.238.884-6.752-.327-8.921-4.056-.549-.95-1.262-1.855-1.569-2.891-.533-1.773-.825-3.631-1.353-6.079l.001-.015zM495.59 169.535c-.701 3.183-.763 6.073-.302 9.237.484 3.268.325 7.489-1.403 10.039-3.142 4.622-6.872 9.246-12.789 10.993-2.072.614-4.262 1.219-6.037 2.399-5.295 3.511-10.879 2.077-16.421 1.279-.785-.115-1.574-1.392-2.053-2.294-2.26-4.308-4.383-8.68-6.597-13-1.288-2.518-1.764-5.271-.631-7.732 1.871-4.111 3.946-8.208 6.589-11.838 1.861-2.555 4.574-4.71 7.31-6.363 8.206-4.946 16.653-9.566 26.688-9.119 3.414.145 6.498 1.603 9.035 4.711l-10.818-.784-.094 1.287c2.764.2 5.531.342 8.29.6 3.211.306 6.202 4.873 5.112 7.939-.276.774-1.141 1.549-1.914 1.875-1.121.463-2.417.501-3.981.785l.016-.014zm-83.486 121.857c2.966-2.798 5.53-5.331 8.23-7.707 2.12-1.875 8.315-2.19 10.632-.7.253.165.634.384.675.622.473 3.018 2.777 5.286 3.524 7.956.608 2.161.897 4.46 1.798 6.627.339.803.407 1.895.169 2.745-1.366 4.854-3.105 9.387-6.875 13.141-8.839 8.809-19.507 13.46-31.671 15.224-4.352.625-7.653-.466-9.856-4.55-1.866-3.457-3.993-6.756-6.088-10.082-1.502-2.401-1.834-4.924-1.325-7.679 1.58-8.425 6.165-14.309 14.416-17.033 5.436-1.796 10.934-3.44 16.371 1.436zm-228.318-56.72c3.532 2.578 1.58 5.185.956 8.109 1.667-.085 3.114-.172 4.854-.251 1.245 2.691 2.541 5.489 3.822 8.301.127.274.23.678.125.905-1.661 3.657-.481 7.858-2.82 11.553-4.529 7.123-9.719 13.243-16.911 17.984-4.861 3.204-9.578 6.434-15.008 8.554-1.407.559-2.877.967-4.247 1.426-2.405-4.128-5.783-6.797-9.189-9.292-2.135-1.566-3.76-2.668-2.238-5.615.446-.879.043-2.422-.395-3.482-1.168-2.745-.758-5.155.884-7.534 4.84-6.969 9.937-13.419 17.152-18.481 4.754-3.344 9.499-6.557 14.653-9.138 2.745-1.373 5.784-2.138 8.364-3.053l-.002.014zm277.455 472.754c-2.525 1.786-4.771 3.372-7.017 4.958.052.298.103.61.155.908 1.944.141 3.887.296 5.833.423 1.507.094 2.98.451 3.225 2.144.905 6.37 4.526 12.173 3.369 19.026-.754 4.516-2.041 8.082-6.641 9.91-1.8.707-3.289 2.186-5.238 3.529 1.218.838 1.948 1.317 2.675 1.825-.208.235-.367.606-.623.69-4.779 1.462-9.552 3.027-14.388 4.263-2.666.689-5.336.422-7.308-1.984a2.717 2.717 0 00-1.147-.803c-5.644-2.011-6.967-6.472-6.801-11.809.021-.293-.133-.598-.266-1.195-1.096-.491-2.349-1.052-3.614-1.643-3.897-1.797-4.763-3.638-3.795-7.873.584-2.574.893-5.227 1.764-7.706.461-1.304 1.604-2.676 2.815-3.367a51.466 51.466 0 018.119-3.733c3.424-1.222 6.05-3.177 7.769-6.418 1.615-3.028 4.131-5.094 7.388-6.225 5.336-1.848 9.623-.362 13.741 5.066l-.015.014zM128.027 554.017c-.659.584-1.239 1.071-1.914 1.669-1.134-1.185-1.939-2.037-3.21-3.363-.007 2.13-.012 3.614-.023 4.584-1.853 2.04-3.472 3.701-4.966 5.46-5.623 6.603-12.453 11.428-20.63 14.334-1.327.477-2.731.786-4.007 1.355-8.491 3.809-15.823 1.558-22.613-4.121-1.289-1.078-2.853-2-4.45-2.483-2.487-.768-3.638-2.116-3.58-4.742.044-2.025-.026-4.102-.426-6.086-.592-2.997.622-4.937 3.188-6.074 3.87-1.703 7.71-3.571 11.76-4.718 7.234-2.063 14.61-3.659 21.936-5.392 4.247-1 5.53-3.288 3.948-7.429-.37-.968-1.013-1.837-1.534-2.757 4.583-2.607 5.858-2.559 9.196.666 2.252 2.177 4.283 4.572 6.488 6.804 1.095 1.108 2.233 2.234 3.557 3.036 3.379 2.037 5.657 4.877 7.264 9.27l.016-.013zM469.005 50.022c.861-2.554 2.923-4.913 6.185-7.077-1.488-.96-2.877-1.869-4.379-2.845 1.403-4.351 4.288-6.64 8.546-7.2 6.232-.826 12.442-1.538 18.743-.478 3.079.516 6.265.762 9.386.68 5.006-.123 9.567 1.236 14.096 3.225 2.114 5.708 4.217 11.372 6.304 17.05.799 2.158-1.454 9.931-3.353 11.19-.741.49-1.711.7-2.605.87-2.728.522-5.586.624-8.18 1.538-3.921 1.377-7.744 2.217-11.939 1.692-4.048-.513-8.147-.531-12.2-.986-1.21-.132-2.338-.993-4.104-1.782-.436.542-1.324 1.653-2.229 2.778-.385-.16-.769-.335-1.155-.495.358-1.694.717-3.402 1.18-5.529-1.182-.732-2.475-1.546-3.786-2.317-1.705-1.005-3.899-1.561-3.401-4.376.074-.406-.866-1.033-1.393-1.468-1.82-1.454-3.671-2.882-5.716-4.47zM189.845 465.51c1.616-3.043 2.327-5.549-1.139-7.211a27.37 27.37 0 016.77-9.665c10.269-9.485 20.756-18.719 32.561-26.285 3.515-2.258 7.011-4.68 11.603-5.376.515 2.227 1.156 4.126 3.178 5.433 1.165.76 1.664 2.59 2.372 3.978 2.134 4.211 1.884 4.619-1.157 8.264-1.771 2.12-3.043 4.674-4.424 7.101-1.45 2.57-2.59 5.324-4.18 7.795-5.568 8.694-13.754 14.979-20.919 22.191-.111.109-.235.203-.36.312-6.363 5.256-11.048 5.019-16.686-.945-1.065-1.12-1.637-2.763-2.82-3.672-1.156-.892-2.796-1.173-4.812-1.951l.013.031zm35.985 307.252c-2.521-2.725-4.913-5.412-7.433-7.96a15.494 15.494 0 00-3.697-2.722c-4.132-2.196-5.035-4.745-2.926-9.31-.794-1.012-1.657-2.089-2.559-3.227.121-.447.142-.945.361-1.326 2.169-3.973 5.394-6.913 9.274-9.145 10.537-6.071 21.951-10.065 33.498-13.652 2.406-.752 5.135-.481 7.901-.118-2.962 4.973-9.261 4.281-13.582 8.348 6.992-.155 12.459-3.404 19.004-4.282-.459 1.466-.855 2.672-1.294 4.066 4.449.866 3.397 4.434 3.745 7.752-1.262.775-2.517 1.669-3.875 2.364-4.075 2.086-6.773 5.241-8.724 9.45-3.186 6.853-8.235 12.249-14.985 15.757-2.597 1.355-5.596 1.976-8.446 2.769-1.934.535-3.951.786-6.261 1.221l-.001.015zm187.298-284.905c-4.902 1.937-9.291 3.677-13.679 5.416l.328.95c5.443-.267 10.121-3.779 14.757-4.281 3.242 2.719 5.945 4.972 8.924 7.466a445.66 445.66 0 00-2.395 3.648c6.931.076 6.669 2.482 6.296 6.408 2.423 1.645 4.997 3.448 2.663 7.056a.552.552 0 00-.062.451c2.109 5.179-1.876 6.83-5.241 8.247-4.897 2.071-10.056 3.49-15.091 5.241-2.834.986-4.185-.861-5.852-4.024-.45 2.569-.698 3.962-.978 5.587-3.167.109-6.38.229-9.666.344-.527-1.641-.946-2.964-1.461-4.574-2.371 1.283-4.023.355-5.449-1.673-1.173-1.658-2.64-3.116-3.969-4.653-4.013-4.655-4.614-10.151-1.165-15.369 1.603-2.441 3.803-4.618 6.082-6.452 5.43-4.353 11.607-7.462 18.191-9.69 2.305-.788 4.696-1.526 7.765-.084l.002-.014zm136.349 31.113c.388 2.556.824 4.866 1.096 7.193.805 6.936-3.288 12.518-10.218 14.25-1.407.354-2.641 1.367-4.031 1.883-1.118.419-2.403.914-3.522.744-3.142-.448-5.422.798-7.53 2.909-1.33 1.329-2.798 2.516-4.266 3.717-2.078 1.702-3.936 3.404-4.171 6.444-.148 2.047-1.33 3.357-3.945 2.521-1.364-.437-3.03.045-4.769.11-2.221-3.423-1.302-7.398-1.446-11.494-2.348.77-4.409 1.429-7.044 2.297-.644-1.252-1.775-2.48-1.871-3.795-.693-9.5 2.383-17.067 10.89-22.314 6.708-4.144 13.738-7.456 21.039-10.263 3.04-1.176 6.291-1.837 9.485-2.502 3.461-.719 6.134.532 7.802 3.872-.624.91-1.231 1.777-2.001 2.882 1.506.506 2.768.936 4.504 1.517l-.002.029zm95.457-192.371c-3.408-.012-4.853-1.365-5.924-3.221-2.573-4.449-5.13-8.911-7.597-13.41-1.141-2.096-1.986-4.23-.1-6.533.629-.762.694-2.066.829-3.129.703-5.636 3.566-10.059 8.062-13.289 3.813-2.737 7.88-5.117 11.933-7.498 1.319-.772 2.919-1.141 4.438-1.428 5.99-1.124 5.942-.863 9.154 4.293 3.594 5.772 4.668 11.846 3.762 18.467-.379 2.795-.408 5.629-.714 8.443-.107 1.065-.193 2.661-.867 3.038-4.047 2.308-5.428 6.97-9.023 9.723-4.543 3.477-9.726 4.013-13.953 4.544zm-322.705-61.705c-1.116.801-2.219 1.618-3.753 2.712 1.931.727 3.562 1.345 4.906 1.854 1.085 2.474 2.34 4.623 2.951 6.945.45 1.708.655 3.942-.097 5.401-1.693 3.287-3.602 6.705-6.224 9.234-7.633 7.369-17.235 11.303-27.286 14.117-2.325.654-5.392 1.402-6.273-2.468-4.347-.653-4.039-6.113-7.784-7.575-.701-.271-1.014-2.233-1.016-3.424-.075-6.266 2.991-10.659 8.66-13.04 4.609-1.945 9.323-3.719 14.114-5.136 3.154-.932 5.542-2.464 7.707-4.953 2.018-2.293 4.545-4.315 7.213-5.841 3.572-2.049 4.017-1.693 6.911 2.176l-.029-.002zm84.618 139.251l-3.594-.907c2.187-1.384 3.713-2.361 6.054-3.838l-.314 4.328c.242.105.47.21.712.316.885-1.053 1.784-2.105 2.684-3.171 1.153 2.949 2.322 5.885 3.71 9.454-1.49 1.7-3.495 4.009-5.675 6.511 1.493.696 2.73 1.271 3.796 1.774.199.499.355.775.422 1.074 1.455 5.881 1.308 11.147-5.451 13.773-5.162 6.533-12.293 9.426-20.181 10.986-2.892.569-5.303.982-7.241-2.288-1.532-2.595-4.045-4.614-6.144-6.883-2.549-2.756-2.659-5.909-1.348-9.194 1.6-4.029 4.235-7.336 7.561-10.034 4.027-3.25 8.201-6.299 12.322-9.425 1.711-1.301 3.275-1.79 5.559-.655 3.319 1.651 5.104.958 7.1-1.852l.028.031zM288.883 510.381c.617.809 1.087 1.827 1.883 2.399 2.346 1.699 4.363 3.476 3.449 6.967 5.05.277 7.553-4.656 12.488-4.607-1.151 1.474-2.302 2.964-3.988 5.134 2.118-.625 3.635-1.074 5.137-1.524l.909-.786c.783 1.365 1.598 2.702 2.35 4.079 1.246 2.28.964 4.347-.966 5.838-5.544 4.302-11.035 8.695-16.766 12.733-2.787 1.958-5.967 3.462-9.146 4.731-5.008 1.989-8.394.847-12.051-3.239-.898-.991-2.202-1.659-3.404-2.319-5.948-3.297-7.402-9.604-3.303-15.053 1.302-1.743 2.806-3.442 4.532-4.742 4.133-3.096 8.377-6.095 12.75-8.835 1.739-1.079 3.964-1.374 5.966-2.022.059.401.103.815.162 1.216l-.002.03zM64.46 412.058c-1.337 2.431-2.235 4.071-3.538 6.445 1.501-.641 2.286-.922 3.034-1.308.808-.412 1.564-.901 2.637-1.514 1.144 2.478 2.721 4.635 3.095 6.984.496 3.093-.254 6.14-2.769 8.603-5.03 4.927-9.938 9.979-14.79 15.08-2.466 2.599-5.554 5.065-6.825 8.206-1.897 4.683-5.257 4.602-9.36 4.834.296-1.243.543-2.21.756-3.12-2.812-1.625-4.152-3.828-4.019-6.611-1.094.303-2.112.553-3.104.863-1.052.32-2.08.702-3.51 1.171a632.155 632.155 0 01-2.21-3.57c2.443-2.277 4.698-4.392 7.22-6.751-3.127-1.461-5.01 2.018-7.887 1.148-.386-3.188 1.651-5.142 3.901-6.787 6.567-4.829 13.242-9.534 19.863-14.301a372.146 372.146 0 008.683-6.455c2.242-1.733 4.503-3.333 8.808-2.918l.015.001zm434.394 22.825c2.863-.571 4.232-2.221 5.492-4.393 1.277-2.215 3.331-3.991 5.335-6.301-.13-.229-.562-.966-1.058-1.825 1.132-2.24 3.205-1.429 4.914-1.29 3.592.319 6.889-.148 9.917-2.794-3.183-2.729-5.675 1.646-8.792.656.035-.482-.143-1.274.156-1.546 3.274-2.996 10.378-3.687 14.076-1.376.886.549 1.858 1.339 2.262 2.251 1.975 4.39 3.753 8.854 5.671 13.417-.327 1.269-.577 2.897-1.171 4.397-.592 1.471-1.28 3.067-2.4 4.118-1.656 1.555-3.616 2.854-5.645 3.882-.749.387-2.023-.278-3.865-.618 1.157 1.275 1.865 2.046 2.804 3.084-1.62.867-2.952 1.594-4.388 2.357a485.284 485.284 0 01-4.098-2.883c-.24 1.496-.445 2.701-.712 4.357-2.306-2.048-4.657-1.043-6.951-.415-2.999.826-5.577.904-7.097-2.454-.241-.532-.811-.97-1.299-1.344-3.095-2.311-4.4-5.198-3.123-9.029.188-.56.002-1.235-.011-2.279l-.017.028zM357.001 168.329a1869.599 1869.599 0 01-4.728 5.609c2.234.412 4.032.748 6.28 1.161.349 4.316.814 8.641.956 12.972.028 1.031-.793 2.427-1.663 3.084-2.613 1.986-5.323 3.891-8.214 5.445-3.578 1.931-7.281 3.749-11.11 5.074-2.533.875-5.407.784-8.136 1.13-1.841-5.424-3.788-10.4-9.822-12.924 2.388-1.914 3.918-3.155 5.711-4.583-.819-.868-1.514-1.609-2.388-2.539.965-2.356 2.873-3.952 5.048-5.161 5.758-3.213 11.543-6.38 17.405-9.394 3.084-1.599 6.368-1.273 10.674.141l-.013-.015zM222.999 341.153c-1.972.857-3.656 1.587-5.462 2.368.484.828.836 1.442 1.268 2.178-.328.271-.646.6-1.013.794-3.854 2.073-7.814 3.99-11.548 6.247-2.752 1.668-3.006 3.354-1.501 6.314-.389.501-.873 1.098-1.301 1.728-.458.643-.86 1.319-1.521 2.33a827.631 827.631 0 01-3.455-4.645c-1.661-.003-3.499.011-5.658.002.638-1.512 1.169-2.752 1.842-4.335-.952-.656-2.042-1.235-2.878-2.06-.933-.92-1.63-2.058-2.42-3.114-.429-.575-.71-1.36-1.287-1.71-3.826-2.364-4.658-5.29-1.817-8.597 3.258-3.791 6.931-7.228 10.695-11.1 1.296 1.578 2.322 2.843 3.686 4.499 5.433-2.575 10.868-5.164 16.011-7.599 3.047 1.764.766 3.627.801 5.172.423.252.68.564.916.552 5.1-.41 5.376-.169 5.095 4.925-.106 1.873-.272 3.757-.437 6.038l-.016.013zm-14.064-205.727c-1.244.938-2.471 1.849-3.978 2.974 2.973 1.773 5.806-.211 8.663.113 1.244 1.898.456 3.443-.971 4.883 5.514 1.781 7.066 5.317 5.02 11.445-1.443 4.304-4.373 5.591-9.616 3.918-.602.809-1.35 1.798-1.902 2.522-1.057-.223-1.524-.272-1.954-.421-1.736-.581-3.406-1.466-5.18-1.727-2.066-.297-3.641-.866-4.251-2.997-.587-2.042-2.065-2.942-3.973-3.58-2.855-.957-4.028-3.026-4.07-6.1-.148-10.137-.177-10.345 9.779-13.268 2.643-.779 5.507-.953 8.294-1.09 2.036-.102 3.51 1.048 4.168 3.33l-.029-.002zm110.86 244.425c2.001 2.393 4.217 1.025 6.296.72 1.511 2.27-1.106 3.506-.866 5.669 1.048.546 2.364 1.244 3.468 1.839l-.451 6.228c-3.411 8.13-11.596 8.727-17.333 12.853-.853.614-2.388.297-3.69.423-1.325-2.815-2.5-5.457-3.829-8.007-.308-.611-1.133-.994-1.782-1.364-4.038-2.291-4.094-2.736-.57-5.729-.701-1.079-2.07-2.266-1.927-3.226.167-1.09 1.504-2.301 2.636-2.91 4.497-2.437 8.214-5.666 11.33-9.717 2.643-3.423 3.875-3.584 8.241-1.783-.482 1.581-.967 3.207-1.524 5.018l.001-.014zm215.885-53.656c.293.624.595 1.322.958 1.995 3.247 6.099 3.251 9.082-1.491 13.883-3.585 3.635-7.94 6.538-12.07 9.589-1.071.79-2.592 1.091-3.949 1.36-2.953.595-5.461.325-7.017-2.948-1.506-3.151-4.627-5.508-3.839-9.698.36-1.929 1.002-3.073 2.819-3.808 4.314-1.745 8.605-3.565 12.82-5.553 1.964-.93 3.803-2.179 5.531-3.508 1.881-1.422 3.795-2.077 6.24-1.341l-.002.029z" fill="#F9E23A"/></svg>