<svg width="50" height="50" fill="none" xmlns="http://www.w3.org/2000/svg"><g clip-path="url(#clip0_2001_218)"><path d="M41.362 49.99c-1.98 0-3.972-.01-5.953.01-.732.01-1.376-.185-1.932-.673-.118-.108-.313-.157-.479-.166-.927-.02-1.854-.02-2.781 0a.833.833 0 00-.508.205 2.54 2.54 0 01-1.698.624h-9.906a2.58 2.58 0 01-1.699-.615.973.973 0 00-.556-.205c-1.708-.02-3.416-.02-5.124 0a.92.92 0 00-.556.215c-.508.4-1.054.615-1.708.615H2.557C1.074 49.98.03 48.946.03 47.472c-.01-2.274 0-4.558 0-6.832 0-.644.205-1.2.615-1.698a1.06 1.06 0 00.215-.556c.02-.781.03-1.562 0-2.343a1.1 1.1 0 00-.234-.595C.255 34.97.04 34.443.04 33.838v-7.516c0-.624.225-1.161.605-1.659.127-.166.205-.4.215-.605.03-.488.01-.976.01-1.464.01-.625.048-1.23-.46-1.766-.253-.274-.34-.771-.36-1.181-.049-1.084-.078-2.186.01-3.27.039-.517.35-1.015.536-1.522.088-.244.244-.488.254-.742.03-.976.03-1.952 0-2.928a1.206 1.206 0 00-.234-.644C.254 10.053.029 9.535.029 8.92c0-2.167-.01-4.324 0-6.49C.04 1.073 1.093.028 2.46.018c2.997-.01 5.983-.048 8.98.03.868.02 1.727.41 2.596.595.458.098.927.195 1.386.195 2.371.02 4.753.02 7.124 0 .244 0 .527-.117.732-.263.479-.342.986-.557 1.581-.557h7.955c.615 0 1.132.225 1.62.586a1.2 1.2 0 00.644.234c.566.03 1.142.01 1.708.01.703.01 1.386.049 2-.498.274-.244.791-.312 1.192-.322C42.495 0 45.013.01 47.53.02c1.416.01 2.46 1.054 2.47 2.47.01 1.386 0 2.762 0 4.148 0 .615-.215 1.132-.576 1.62-.136.176-.244.43-.244.644-.02 1.532-.02 3.055 0 4.587 0 .205.098.44.225.605.39.488.605 1.035.605 1.66v4.684c0 .644-.215 1.2-.615 1.708a1.065 1.065 0 00-.215.556c-.02 1.445-.02 2.9 0 4.344 0 .185.098.4.215.556.4.508.624 1.064.605 1.708-.02.546-.01 1.103-.088 1.65-.049.302-.185.644-.4.868-.312.332-.37.693-.351 1.113.02.341.01.683 0 1.025-.01.673-.03 1.317.478 1.903.263.302.332.849.341 1.288.03 3.435.02 6.861.01 10.297 0 1.512-1.034 2.547-2.537 2.547-2.02-.01-4.06-.01-6.09-.01zm-29.23-2.654c.02.039.048.078.068.117.146.01.283.02.43.02.907 0 1.824.009 2.732-.01.088 0 .234-.118.264-.206.439-1.62 1.62-2.596 3.025-3.289 1.494-.741 3.055-1.366 4.617-1.971.507-.195 1.112-.234 1.659-.176.732.088 1.454.342 2.176.527.605.156 1.123.488 1.415 1.035.723 1.337 1.689 2.537 2.08 4.04h1.795c-.332-.663-.625-1.278-.937-1.873-.517-.996-.439-1.933.215-2.84a704.824 704.824 0 003.094-4.324 2.59 2.59 0 011.571-1.064c3.621-.898 7.252-1.796 10.873-2.704.117-.029.263-.185.273-.302.03-.45.01-.908.01-1.396-.205.04-.361.059-.518.098-3.601.849-7.212 1.698-10.813 2.537-.889.205-1.689.04-2.343-.605a405.711 405.711 0 01-4.587-4.587c-.644-.654-.85-1.444-.625-2.342.332-1.337.664-2.675.996-4.021.43-1.738 1.308-2.372 3.094-2.235 2.508.195 5.026.42 7.534.566 1.152.068 2.177.37 3.114 1.064 1.19.878 2.45 1.659 3.68 2.469.126.088.263.156.429.263v-3.064c-.645-.322-1.22-.586-1.786-.898-1.103-.605-1.503-1.562-1.328-2.782.196-1.298.38-2.606.566-3.904.088-.605.352-1.142.85-1.483.507-.352 1.083-.605 1.688-.937V9.74c-.176.117-.312.205-.44.293-.75.537-1.502 1.093-2.264 1.61-.907.615-1.864.664-2.79.069a98.367 98.367 0 01-3.407-2.274c-.703-.488-1.044-1.181-1.054-2.04v-4.88h-2.196c.136.82.254 1.59.39 2.352.117.644.069 1.269-.273 1.835-.527.878-1.035 1.767-1.59 2.625-.626.976-1.7 1.367-2.802 1.006-1.884-.615-3.758-1.25-5.641-1.874a2.45 2.45 0 01-1.464-1.288l-1.2-2.401c-.362-.723-.801-1.416-.713-2.265h-3.475c.752 1.132 1.464 2.196 2.167 3.26.761 1.162.644 2.323-.332 3.318-.615.625-1.21 1.279-1.874 1.855-.39.341-.868.654-1.356.81-2.304.732-4.636 1.396-6.95 2.098a2.96 2.96 0 01-2.088-.088 494.758 494.758 0 00-5.114-2.04c-.137-.058-.283-.097-.45-.155v2.244c1.933.654 3.827 1.25 5.671 1.942.44.166.781.654 1.103 1.045.225.273.342.624.498.947.752 1.551.068 3.093-1.581 3.581-.79.235-1.6.43-2.391.684-1.025.341-2.04.527-3.094.117-.059-.02-.127 0-.215 0v1.551c.117-.019.195-.029.273-.048 2.567-.596 5.124-1.181 7.691-1.786.82-.195 1.572-.127 2.274.37 2.303 1.61 4.607 3.221 6.91 4.841.742.527 1.132 1.23 1.123 2.157-.01.957.01 1.923 0 2.88-.01 1.151-.586 1.99-1.67 2.381-3.298 1.19-6.607 2.362-9.906 3.543a2.64 2.64 0 01-1.815.01 225.04 225.04 0 00-2.772-.928c-.693-.234-1.386-.458-2.137-.702 0 .517-.02.966.01 1.415.01.097.136.244.234.283 1.434.468 2.87.917 4.304 1.386.634.205 1.278.39 1.864.703 1.26.663 2.499 1.395 3.728 2.117 1.542.898 1.777 2.694.537 3.953-.293.41-.673.742-1.034 1.084zM1.688 30.08c0 1.19.01 2.372-.01 3.562-.009.537.225.84.733 1.006 1.835.595 3.66 1.23 5.504 1.815.254.078.596.078.85-.01 3.26-1.142 6.519-2.313 9.77-3.465.438-.156.653-.429.643-.907a86 86 0 010-2.782c.01-.38-.156-.644-.459-.859-2.264-1.58-4.518-3.172-6.802-4.733a1.314 1.314 0 00-.898-.166c-2.87.634-5.73 1.298-8.589 1.962-.537.127-.732.36-.742.927 0 1.21.01 2.43 0 3.65zM7.583 1.679h-4.88c-.76 0-1.015.253-1.015 1.034 0 1.981.01 3.973-.01 5.954-.009.546.196.868.713 1.073 2.099.82 4.187 1.68 6.295 2.49.332.126.771.146 1.113.048 1.552-.43 3.065-1.005 4.626-1.347 1.933-.42 3.475-1.347 4.695-2.88.02-.028.049-.048.068-.067.44-.45.469-.723.127-1.25-.605-.927-1.25-1.825-1.825-2.762-.332-.537-.771-.8-1.357-.995-2.986-.976-6.002-1.689-8.55-1.298zm33.77 46.642h5.953c.771 0 1.025-.253 1.025-1.015V37.302c0-.858-.37-1.142-1.21-.937-3.436.86-6.871 1.708-10.297 2.596a1.422 1.422 0 00-.742.489c-1.034 1.395-2.03 2.83-3.045 4.235-.283.39-.302.752-.087 1.181.487.937.966 1.884 1.415 2.83.214.46.527.645 1.034.635 1.991-.02 3.972-.01 5.954-.01zM48.33 29.7c.166-.663-.224-1.103-.849-1.503-1.913-1.23-3.787-2.518-5.69-3.767-.195-.127-.43-.263-.654-.283-2.967-.244-5.934-.469-8.901-.693-.566-.039-.81.166-.957.742-.341 1.356-.653 2.713-1.015 4.06-.126.468-.019.81.323 1.132a414.48 414.48 0 014.245 4.246c.303.312.635.41 1.054.302.771-.195 1.552-.37 2.323-.546l9.194-2.167c.81-.195.937-.361.937-1.21-.01-.059-.01-.127-.01-.313zM39.176 4.987c0 .762.01 1.533-.01 2.294-.01.44.166.732.528.966 1.024.664 2.03 1.337 3.045 2.03.4.273.77.264 1.161-.02a366.821 366.821 0 013.963-2.83c.322-.224.478-.497.478-.898-.01-1.298 0-2.606-.01-3.904 0-.663-.283-.937-.956-.937h-7.223c-.732 0-.986.264-.986 1.015 0 .752 0 1.523.01 2.284zM5.486 48.321c.956 0 1.922.02 2.878-.01.264-.01.596-.117.781-.302a136.15 136.15 0 002.899-2.889c.468-.478.4-.986-.176-1.327a243.092 243.092 0 00-3.465-1.982 4.556 4.556 0 00-.8-.36 788.783 788.783 0 00-4.714-1.572c-.761-.254-1.19.059-1.2.878v6.579c0 .732.263.985 1.015.985.927.01 1.854 0 2.781 0zM28.86 1.68c-1.298 0-2.596-.01-3.904 0-.927.01-1.474.907-1.064 1.737.488.986.966 1.981 1.494 2.957.126.234.37.478.614.566 1.806.635 3.621 1.23 5.437 1.835.458.156.82.03 1.073-.41.459-.78.957-1.552 1.386-2.352.127-.234.176-.556.137-.83-.117-.897-.293-1.795-.44-2.693-.107-.625-.341-.83-.985-.83-1.24.02-2.489.02-3.748.02zm-5.827 46.64h4.88c.84 0 1.162-.566.752-1.307-.478-.85-.937-1.709-1.464-2.528-.156-.244-.459-.45-.742-.547a10.066 10.066 0 00-1.698-.43c-.322-.048-.693-.038-.986.079-1.19.468-2.342 1.044-3.543 1.493-.995.38-1.835.937-2.537 1.737-.274.313-.527.596-.361 1.025.166.43.546.488.966.488 1.58-.01 3.162-.01 4.733-.01zM1.688 17.988v.732c-.019 1.444-.068 1.503 1.445 1.825.41.087.85.263 1.23.185 1.2-.273 2.381-.625 3.552-1.005.235-.078.488-.39.557-.644.126-.44-.684-1.699-1.123-1.855a838.386 838.386 0 00-4.567-1.513c-.625-.204-1.064.118-1.084.772-.02.488 0 .995-.01 1.503zm46.643.097c0-.78.01-1.562 0-2.333-.02-.634-.576-.995-1.103-.712-.351.185-.624.44-.673.878-.137 1.094-.313 2.187-.459 3.27-.176 1.25-.166 1.25.918 1.874.76.44 1.327.127 1.327-.742 0-.742-.01-1.483-.01-2.235z" fill="#202A34"/><path d="M33.33 16.201c0 .342.01.684 0 1.025-.068 1.533-1.435 2.616-2.928 2.284-1.425-.322-2.85-.654-4.245-1.083a2.853 2.853 0 01-1.308-.937c-.83-1.103-1.562-2.274-2.313-3.436a2.417 2.417 0 01.146-2.86c.664-.8 1.728-1.112 2.733-.722 2.147.84 4.284 1.689 6.412 2.567.956.39 1.464 1.152 1.493 2.196.02.313.01.635.01.966zm-1.669 0c0-.263-.01-.517.01-.78.03-.469-.176-.762-.605-.937l-6.09-2.43c-.371-.147-.713-.147-.976.175-.274.332-.205.683.029 1.035.703 1.044 1.396 2.108 2.118 3.152.117.176.312.361.507.41 1.357.371 2.723.713 4.1 1.035.517.117.888-.205.917-.732.01-.313-.01-.615-.01-.928zm-9.975 18.115c0-.371-.01-.752 0-1.123.04-1.298 1.035-2.313 2.333-2.352.927-.02 1.855-.01 2.782-.01.722 0 1.337.284 1.796.83a208.312 208.312 0 012.937 3.523c.713.879.732 2.02.078 2.948a20.818 20.818 0 01-1.112 1.474c-.693.839-1.591 1.122-2.626.81-1.18-.361-2.342-.771-3.513-1.162-.127-.039-.264-.078-.352-.166-1.17-1.073-2.196-2.254-2.323-3.943-.019-.273 0-.546 0-.83zm3.739-1.806c-.42 0-.85-.01-1.27 0-.507.02-.77.283-.8.79-.126 2.138-.117 2.158 1.094 3.924.029.04.048.088.087.117.176.137.332.322.537.39 1.074.381 2.147.733 3.221 1.084.38.127.703.04.947-.293l.878-1.17c.4-.538.39-.791-.02-1.299-.624-.751-1.239-1.503-1.873-2.245-1.386-1.59-.713-1.259-2.801-1.298zm-6.403-18.924c.996.03 1.757.458 2.186 1.356.303.645.566 1.308.79 1.982.352 1.034-.019 2.147-.936 2.742-.8.517-1.63 1.006-2.46 1.474-.712.4-1.464.41-2.196.058-.77-.37-1.57-.722-2.303-1.16-.947-.577-1.59-1.465-1.942-2.48-.43-1.24.332-2.645 1.61-2.957 1.65-.4 3.338-.683 5.007-1.025.078 0 .156.01.244.01zm1.493 4.158c-.166-.44-.293-.791-.42-1.133-.565-1.454-.517-1.532-2.098-1.17-.02 0-.029 0-.049.009-1.141.224-2.293.459-3.435.683-.595.117-.966.556-.722.966.322.557.722 1.133 1.23 1.523.585.449 1.298.732 1.99 1.005.264.108.664.108.908-.02.732-.37 1.435-.82 2.128-1.268.195-.137.322-.4.468-.595zm14.377-1.748c.117-.897.136-1.825.39-2.674.459-1.561 2.108-2.157 3.533-1.376a97.19 97.19 0 013.094 1.767c.956.556 1.376 1.503 1.181 2.615a50.55 50.55 0 01-.322 1.679c-.264 1.23-1.2 2-2.46 2.02-.927.01-1.854.01-2.781 0-1.445-.02-2.45-1.005-2.508-2.44-.02-.517 0-1.044 0-1.561-.059-.02-.088-.03-.127-.03zm1.727-.019h.059c0 .508-.01 1.005 0 1.513.02.566.293.84.849.849.927.01 1.854.01 2.772 0 .449 0 .732-.234.82-.683.097-.508.185-1.025.302-1.523.117-.488-.049-.82-.468-1.054a273.194 273.194 0 00-2.88-1.63c-.614-.341-1.112-.175-1.259.508-.136.654-.136 1.346-.195 2.02zM23.56 20.144c.342.098.752.196 1.142.342.537.195 1.064.4 1.581.634 1.26.557 1.806 1.962 1.24 3.221a26.876 26.876 0 01-.956 1.913c-.713 1.288-2.236 1.689-3.465.888a35.345 35.345 0 01-2.538-1.815c-1.18-.927-1.25-2.713-.088-3.65.664-.537 1.445-.918 2.196-1.337.235-.127.537-.117.888-.196zm-.02 1.64c-.009.03-.019.049-.028.078-.079.01-.176 0-.235.03-.576.331-1.17.644-1.698 1.034-.38.283-.322.82.088 1.132a50.63 50.63 0 002.342 1.67c.41.272.85.175 1.084-.255.332-.615.663-1.23.907-1.883.078-.215-.01-.683-.166-.771-.741-.39-1.532-.693-2.293-1.035zm-9.466 17.431c.058-.888.517-1.65 1.444-2.059.771-.342 1.562-.654 2.372-.878.42-.117.908-.127 1.337-.03 1.415.313 2.616 2.255 2.284 3.621-.186.761-.635 1.308-1.347 1.63-.595.264-1.19.517-1.806.713-.36.107-.81.205-1.132.078-.82-.313-1.64-.684-2.371-1.172-.586-.39-.781-1.073-.781-1.903zm5.846.274c.02-.586-.732-1.572-1.142-1.65a.726.726 0 00-.38.03c-.733.263-1.474.507-2.187.829-.205.098-.43.41-.439.625 0 .234.185.556.38.702.313.244.703.42 1.084.557.215.078.488.078.703.01a8.449 8.449 0 001.444-.586c.254-.137.42-.4.537-.517z" fill="#BC9B58"/></g><defs><clipPath id="clip0_2001_218"><path fill="#fff" d="M0 0h50v50H0z"/></clipPath></defs></svg>