<svg width="50" height="50" fill="none" xmlns="http://www.w3.org/2000/svg"><g clip-path="url(#clip0_2001_256)"><path d="M48.823 13.887H35.396c-.052.573-.073 1.178.094 1.709h12.802v5.552H34.656c-.187.302-.375.604-.552.906-.146.25-.281.531-.427.802 1.636-.01 3.27-.01 4.958-.01v5.583H21.052v-1.104c-.385-.198-.76-.386-1.135-.604-.188-.115-.396-.209-.584-.313v2.031H1.708v-5.593h.532c4.708 0 9.406 0 14.114-.01-.354-.553-.708-1.105-.937-1.709h-4.052v-5.531h3.197c.01-.125.01-.25 0-.375-.052-.438.084-.896 0-1.313v-.02H1.178c-.927 0-1.177.25-1.177 1.166v28.48c0 .947.25 1.187 1.208 1.187h47.594c.948 0 1.198-.25 1.198-1.198V15.096c0-.969-.23-1.209-1.177-1.209zm-8.458 9.01h7.937v5.553h-7.937v-5.552zm-9.657 7.282h17.594v5.563H30.708v-5.563zm-19.312-.01h17.562v5.552H11.396v-5.552zm-1.76.01v5.542H1.697v-5.542h7.937zM1.687 15.596h7.937v5.552H1.687v-5.552zm17.614 27.417H1.688V37.47h17.614v5.542zm19.313.01H21.042V37.46h17.573v5.563zm9.708-.01h-7.958V37.48h7.958v5.532z" fill="#202A34"/><path d="M15.594 15.085c.02.177.02.344.01.51-.062 1.886.156 3.74.99 5.542h-.042c.323.677.781 1.292 1.177 1.938.042.042.094.094.136.146.354.468.78.885 1.166 1.323.115.125.282.27.292.406.073.114.146.24.26.364.209.24.605.365.875.521.26.146.521.292.782.427 1.03.355 2.062.72 3.114 1.032.365.104.792.114 1.167.041 2.76-.562 5.031-1.927 6.74-4.187a.702.702 0 01.156-.146c.177-.23.28-.583.437-.833.156-.26.302-.521.459-.782.041-.073.093-.145.135-.218h-.01c.812-1.782 1.072-3.615.979-5.552h.041a5.788 5.788 0 01-.083-.865c-.01-.27-.052-.552-.052-.823 0-.208.062-.396.094-.604v-.031c0-1.427.01-2.844 0-4.271 0-.625-.25-.906-.855-.948-2.885-.24-5.562-1.125-8.01-2.677-.364-.23-.708-.23-1.073 0a17.366 17.366 0 01-7.958 2.677c-.677.052-.906.323-.906 1.01-.01 1.407 0 2.813 0 4.22v.614c.01.364-.073.76-.021 1.166zm1.687-5.427a19.537 19.537 0 007.49-2.49.543.543 0 01.458-.01 19.392 19.392 0 007.459 2.49c.02.114.041.219.041.312 0 2.313.031 4.615-.02 6.927-.094 4.323-3.188 7.948-7.428 8.771-.291.052-.614-.02-.906-.083-4.125-.98-7-4.5-7.083-8.73-.052-2.385-.01-4.76-.01-7.187z" fill="#BC9B58"/><path d="M24.135 17.69c1.125-1.126 2.198-2.209 3.282-3.282.593-.593 1.073-.687 1.468-.302.417.406.334.865-.28 1.469l-3.678 3.677c-.573.573-.98.583-1.542.01-.708-.708-1.427-1.416-2.135-2.135-.469-.469-.51-.948-.125-1.323.375-.364.844-.312 1.313.156.562.552 1.104 1.115 1.697 1.73z" fill="#BC9B58"/></g><defs><clipPath id="clip0_2001_256"><path fill="#fff" transform="translate(0 5.2)" d="M0 0h50v39.521H0z"/></clipPath></defs></svg>