<svg width="50" height="50" fill="none" xmlns="http://www.w3.org/2000/svg"><g clip-path="url(#clip0_2001_285)"><path d="M23.394 19.514v.654c0 2.86-.02 5.73.01 8.59.02 2.578-.878 4.754-2.724 6.56-1.464 1.435-2.899 2.9-4.353 4.344-.127.127-.254.264-.4.352-.313.195-.635.156-.889-.108-.263-.263-.283-.576-.097-.888.078-.137.205-.254.322-.361 1.493-1.494 2.987-2.997 4.48-4.49 1.455-1.455 2.187-3.193 2.177-5.253-.01-2.996.03-5.983-.02-8.98-.019-1.24.723-2.138 2.256-1.816 1.903.39 3.133 1.913 3.163 3.954.02 1.337 0 2.665 0 4.002v.654c.214-.205.351-.332.488-.459 4.5-4.5 9-8.99 13.49-13.49.606-.606 1.29-.977 2.158-.987 1.093-.02 2.05.586 2.46 1.601.44 1.103.263 2.119-.576 2.968-1.865 1.884-3.749 3.758-5.623 5.632-.127.127-.244.254-.39.41.751.342 1.327.8 1.62 1.562.283.762.215 1.504-.117 2.265.917.342 1.61.908 1.874 1.884.254.957.01 1.796-.605 2.597.098.049.166.097.254.136 1.6.781 2.06 2.695.986 4.12a4.498 4.498 0 01-.46.508l-6.208 6.208c-1.122 1.123-2.401 1.991-3.885 2.548-1.366.507-2.538 1.298-3.553 2.343-.976.995-1.972 1.981-2.968 2.967-.107.108-.205.215-.322.293-.322.234-.654.225-.927-.049-.303-.283-.371-.673-.078-.956 1.786-1.728 3.328-3.72 5.466-5.057.576-.361 1.201-.644 1.836-.898 1.259-.508 2.372-1.21 3.328-2.167 2.1-2.109 4.208-4.208 6.316-6.316.176-.186.352-.39.459-.625a1.172 1.172 0 00-.303-1.415c-.42-.352-1.015-.381-1.493-.05-.069.05-.127.108-.195.147-.352.254-.703.254-1.016-.058-.293-.283-.273-.703.059-1.045.44-.459.898-.898 1.337-1.347.157-.166.313-.332.43-.527.322-.547.215-1.162-.235-1.552-.468-.4-1.122-.4-1.6.03-.46.41-.879.868-1.318 1.297-.41.4-.83.44-1.152.118-.322-.323-.283-.752.117-1.152.752-.762 1.533-1.504 2.275-2.285.76-.8.497-1.913-.489-2.157-.478-.117-.868.059-1.19.38-.537.528-1.055 1.055-1.592 1.582-.517.518-.956.596-1.298.244-.332-.341-.244-.77.244-1.259l9.147-9.147c.712-.722.82-1.445.273-2.001-.527-.537-1.308-.44-2.01.263-4.989 4.98-9.948 9.938-14.907 14.897-.117.117-.215.283-.351.332-.244.088-.557.205-.752.117-.205-.088-.352-.38-.44-.615-.068-.185-.019-.42-.019-.625 0-1.952.01-3.904 0-5.857-.01-1.269-.683-2.177-1.806-2.47-.195-.058-.39-.068-.664-.097z" fill="#202A34"/><path d="M18.68 9.567c-.01.4-.186.644-.547.742-.381.107-.684-.06-.84-.4-.205-.46-.38-.928-.537-1.406-.088-.264-.224-.342-.498-.342-1.2.01-2.401.01-3.602 0-.273 0-.41.098-.498.342-.136.41-.302.82-.458 1.23-.205.517-.557.712-.967.566-.449-.156-.595-.547-.39-1.084.908-2.401 1.825-4.793 2.733-7.185.176-.458.342-.907.527-1.366.156-.4.45-.635.889-.644.439 0 .732.234.888.634 1.093 2.88 2.177 5.77 3.27 8.649.01.088.02.195.03.264zm-4.15-6.96h-.116l-1.543 4.06h3.192c-.527-1.386-1.025-2.723-1.532-4.06zM23.092 0c1.318.039 2.265.39 3.104 1.015.4.293.478.713.224 1.064-.244.342-.673.4-1.083.127-.83-.546-1.708-.937-2.694-.605-.361.117-.733.43-.938.761-.302.488-.048 1.045.489 1.28.868.37 1.747.702 2.606 1.073.879.38 1.601.947 1.923 1.894.43 1.23-.215 2.606-1.503 3.3-1.64.878-4.217.35-5.389-1.104-.263-.332-.263-.732.02-1.015.293-.293.712-.312 1.044.02.625.624 1.377.966 2.245 1.063.674.069 1.299-.078 1.806-.556.615-.586.596-1.328-.068-1.845-.302-.234-.664-.41-1.015-.556a54.184 54.184 0 00-2.08-.83c-1.054-.41-1.62-1.172-1.65-2.294-.028-1.054.645-2.05 1.69-2.45C22.31.137 22.838.059 23.092 0zM5.394 1.513v2.919h1.571c.361 0 .713-.01 1.074.01.449.029.752.351.752.741-.01.4-.313.694-.772.713-.683.02-1.366.01-2.05.01h-.556v2.919h1.152c.586 0 1.171-.01 1.757.01.43.019.713.253.732.702.02.41-.195.723-.625.732-1.298.03-2.596.03-3.904 0-.45-.01-.625-.36-.625-.79V.986c0-.693.244-.937.937-.937 1.093-.01 2.177 0 3.27 0 .098 0 .196 0 .293.02.42.077.684.38.644.78-.039.42-.292.654-.702.664-.8.02-1.592.01-2.392.01-.176-.01-.351-.01-.556-.01zm26.054 2.216c.673-1.025 1.298-1.991 1.933-2.958.087-.136.166-.283.273-.41.264-.341.654-.42.986-.215.351.215.459.635.224 1.025-.488.791-.946 1.601-1.522 2.324-.947 1.18-1.348 2.46-1.182 3.963.079.674.02 1.367.01 2.05-.01.498-.283.82-.703.83-.43.02-.761-.322-.761-.83-.01-1.269.01-2.538-.01-3.807 0-.254-.088-.547-.224-.762-.762-1.21-1.562-2.4-2.333-3.602-.118-.185-.284-.449-.225-.615.088-.253.293-.546.527-.663.322-.166.625.039.82.341.576.869 1.142 1.738 1.709 2.607.146.224.283.439.478.722z" fill="#BC9B58"/><path d="M38.398 8.122c-.117.293-.176.478-.273.644a3731.103 3731.103 0 01-4.5 8.259c-.02.039-.05.088-.069.127-.263.42-.663.546-1.034.331-.371-.214-.479-.615-.244-1.054 1.532-2.83 3.084-5.652 4.617-8.473.195-.361.508-.557.878-.41.254.107.42.38.625.576zM29.359 18.46c-.117-.108-.42-.274-.508-.518-.488-1.396-.927-2.802-1.366-4.207-.137-.43.087-.82.468-.937.4-.117.781.058.928.498.458 1.396.907 2.801 1.347 4.217.146.488-.215.937-.87.947zm-5.701-5.184c.254.156.459.234.595.371.498.469.977.957 1.455 1.445.361.38.38.81.058 1.113-.312.293-.712.273-1.083-.078-.498-.488-1.025-.957-1.464-1.494-.157-.195-.215-.576-.147-.83.059-.205.361-.341.586-.527z" fill="#202A34"/></g><defs><clipPath id="clip0_2001_285"><path fill="#fff" transform="translate(3.9)" d="M0 0h42.249v50H0z"/></clipPath></defs></svg>