<svg width="129" height="101" fill="none" xmlns="http://www.w3.org/2000/svg"><g clip-path="url(#clip0_17_232)"><path d="M76.523 41.055v26.092h-3.327V42.174l3.327-1.12z" fill="url(#paint0_linear_17_232)"/><path d="M63.402 41.69v25.457h-5.383V39.86l5.383 1.83z" fill="url(#paint1_linear_17_232)"/><path d="M65.682 12.76v10.75l-7.663-2.762v-5.226l7.663-2.762z" fill="url(#paint2_linear_17_232)"/><path d="M47.029 43.145l-.935.299-1.196.41v23.293h1.196V45.236l.935-.336v22.247h9.719V39.86l-9.72 3.285z" fill="url(#paint3_linear_17_232)"/><path d="M51.253 19.517v21.015l1.159-.373V22.092l.972.299v17.47l3.962-1.307 7.327 2.352v26.241h1.01V24.742l-14.43-5.225z" fill="url(#paint4_linear_17_232)"/><path d="M66.953 12.76v54.387h4.935V41.316l5.158-1.717 2.056.709V19.815l.935.298v20.568l1.346.486v-23.22l-14.43-5.188z" fill="url(#paint5_linear_17_232)"/><path d="M30.282-.193v67.34h13.607V42.921l6.093-2.09V19.516l-7.663 2.8v41.695h-8.897V2.944h61.156v61.069h-8.897V43.704l-7.924-2.65v26.092h5.607V45.422l.972.336v21.389h13.382V-.193H30.282z" fill="url(#paint6_linear_17_232)"/><path d="M7.449 86.85l.1.162-.12 1.244H.188L.29 84.38l-.102-8.997h7.26l.081.161-.123 1.244-3.034-.06-2.555.042-.041 4.217 2.413.039 2.133-.06.12.14-.14 1.245-2.252-.04-2.293.022-.02 1.906.06 2.67 2.554.021 3.097-.08zm7.68-3.794c.885 1.459 1.998 3.065 3.338 4.82l-.018.2a5.68 5.68 0 01-1.489.36l-.222-.141a70.513 70.513 0 01-2.956-4.82H11.43v.765l.081 4.016H9.88l.102-3.875-.102-8.997 3.944-.019c1.259 0 2.234.318 2.925.952.691.637 1.037 1.544 1.037 2.723 0 .883-.232 1.676-.695 2.378-.463.703-1.117 1.248-1.961 1.638zM11.51 76.75l-.06 5.362 2.413.06c1.5-.428 2.251-1.425 2.251-2.991 0-.817-.22-1.43-.663-1.839-.442-.409-1.106-.626-1.99-.652l-1.951.06zm20.29-1.366l.122.161-.123 1.244-2.25-.12h-1.307l-.062 7.57.062 4.017h-1.63l.12-3.875-.098-7.712h-1.309l-2.293.12-.099-.159.12-1.246H31.8zm6.314 0l4.304 12.872H40.77l-.303-1.286-.723-2.209-2.897-.06-2.614.06-.783 2.128-.321 1.367h-1.61l4.725-12.872h1.87zm-1.125 8.053l2.313-.04-2.092-6.347h-.14l-2.333 6.347 2.252.04zm11.24-8.153c.926 0 1.885.201 2.878.603l-.264 1.546-.28.079a4.805 4.805 0 00-1.238-.681 3.707 3.707 0 00-1.297-.243c-.495 0-.927.101-1.296.303-.369.2-.65.46-.846.782-.193.322-.29.657-.29 1.004 0 .362.11.68.332.955.221.274.499.512.833.712.336.201.792.442 1.368.722.725.336 1.308.647 1.75.934.442.288.821.653 1.136 1.095.315.442.473.977.473 1.606 0 .67-.181 1.286-.543 1.85-.362.56-.872 1.008-1.528 1.342-.658.336-1.41.504-2.254.504a7.134 7.134 0 01-1.757-.233 6.772 6.772 0 01-1.7-.672l.2-1.646.223-.102c.468.456.987.794 1.556 1.015.571.22 1.118.331 1.64.331.51 0 .963-.1 1.358-.3.395-.202.697-.47.904-.803.207-.335.31-.69.31-1.064 0-.563-.214-1.015-.642-1.356-.428-.34-1.079-.712-1.95-1.114a17.588 17.588 0 01-1.709-.933 3.97 3.97 0 01-1.107-1.064c-.308-.437-.462-.97-.462-1.599 0-.655.177-1.258.532-1.807.356-.548.852-.979 1.489-1.293.637-.315 1.364-.473 2.18-.473zm22.12 15.543l.062.2a5.053 5.053 0 01-.363.603 2.939 2.939 0 01-.381.42l-.141.06a17.753 17.753 0 01-3.771-1.445 16.57 16.57 0 01-3.327-2.268 4.38 4.38 0 01-.483.02c-1.771 0-3.132-.562-4.082-1.687-.953-1.125-1.429-2.724-1.429-4.798 0-2.144.5-3.791 1.5-4.942.997-1.15 2.428-1.726 4.293-1.726 1.755 0 3.105.546 4.05 1.637.946 1.09 1.418 2.666 1.418 4.728 0 1.727-.328 3.145-.984 4.256-.658 1.113-1.597 1.863-2.816 2.25 1.931 1.352 4.082 2.249 6.454 2.692zm-12.267-9.036c0 3.52 1.32 5.28 3.962 5.28 1.3 0 2.29-.442 2.967-1.326.677-.884 1.016-2.209 1.016-3.975 0-3.454-1.321-5.182-3.962-5.182-1.34 0-2.34.429-2.996 1.286-.658.857-.987 2.163-.987 3.917zm21.538-6.407l-.021 6.548-.019 1.445c.027 1.578-.39 2.81-1.248 3.695-.856.883-2.076 1.325-3.659 1.325-1.514 0-2.677-.422-3.489-1.265-.811-.843-1.204-2.035-1.177-3.576l.02-1.747-.02-6.425h1.59l-.06 7.972c-.014 1.205.254 2.112.804 2.722.549.609 1.366.913 2.453.913 1.086 0 1.91-.288 2.473-.863.564-.576.839-1.433.825-2.572l-.081-8.172h1.609zm8.607 7.672c.885 1.459 1.997 3.065 3.338 4.82l-.02.2a5.681 5.681 0 01-1.49.36l-.219-.141a69.189 69.189 0 01-2.956-4.82h-2.353v.765l.08 4.016h-1.629l.102-3.875-.102-8.997 3.941-.019c1.26 0 2.236.318 2.928.952.689.637 1.034 1.544 1.034 2.723 0 .883-.232 1.676-.695 2.378-.461.703-1.114 1.248-1.959 1.638zm-3.62-6.306l-.06 5.362 2.414.06c1.5-.428 2.251-1.425 2.251-2.991 0-.817-.221-1.43-.663-1.839-.443-.409-1.106-.626-1.99-.652l-1.951.06zm12.97 6.848l-.018.903.039 3.755H96.01l.078-3.755-.018-.843-4.082-8.274h1.729l.261.722 2.815 5.784h.141l3.098-5.742.3-.764h1.69l-4.445 8.214zm12.911 3.312l.121.141-.141 1.205h-6.354l.099-3.875-.099-8.997h1.647l-.099 8.856.06 2.67h4.766zm5.028-3.312l-.021.903.039 3.755h-1.588l.081-3.755-.021-.843-4.082-8.274h1.729l.261.722 2.816 5.784h.141l3.097-5.742.303-.764h1.687l-4.442 8.214zm10.114-8.314c.925 0 1.883.201 2.876.603l-.262 1.546-.282.079a4.74 4.74 0 00-1.237-.681 3.704 3.704 0 00-1.296-.243c-.496 0-.929.101-1.298.303-.369.2-.65.46-.843.782a1.91 1.91 0 00-.293 1.004c0 .362.111.68.332.955.221.274.5.512.836.712.334.201.789.442 1.365.722.725.336 1.308.647 1.75.934.442.288.821.653 1.136 1.095.315.442.473.977.473 1.606 0 .67-.181 1.286-.543 1.85-.362.56-.872 1.008-1.528 1.342-.656.336-1.407.504-2.251.504a7.14 7.14 0 01-1.76-.233 6.836 6.836 0 01-1.701-.672l.202-1.646.222-.102c.468.456.988.794 1.559 1.015.569.22 1.115.331 1.637.331.51 0 .963-.1 1.358-.3a2.22 2.22 0 00.904-.803 1.98 1.98 0 00.313-1.064c0-.563-.215-1.015-.645-1.356-.428-.34-1.079-.712-1.951-1.114a17.662 17.662 0 01-1.708-.933 3.985 3.985 0 01-1.104-1.064c-.31-.437-.465-.97-.465-1.599 0-.655.177-1.258.532-1.807.357-.548.854-.979 1.489-1.293.637-.315 1.365-.473 2.183-.473zM42.106 99.865l.055.09-.065.677h-3.949l.055-2.115-.055-4.905h3.96l.044.086-.068.68-1.656-.033-1.392.023-.023 2.3 1.316.021 1.165-.034.065.078-.078.678-1.228-.02-1.25.01-.011 1.04.034 1.458 1.392.01 1.69-.044zm4.98-6.308c.504 0 1.026.11 1.568.329l-.141.842-.154.044a2.66 2.66 0 00-.677-.373 2.034 2.034 0 00-.705-.13c-.272 0-.508.055-.708.164-.202.11-.356.252-.462.428-.106.174-.16.356-.16.548 0 .196.062.37.184.519.12.15.271.279.454.388.183.11.432.241.747.394.393.183.711.353.953.511.242.157.448.356.62.597.171.24.258.532.258.877 0 .365-.099.7-.295 1.006-.199.306-.477.55-.836.733a2.665 2.665 0 01-1.228.274c-.306 0-.626-.042-.96-.125a3.664 3.664 0 01-.925-.368l.11-.897.12-.055c.256.249.539.433.848.553.312.12.61.18.896.18.277 0 .523-.055.74-.164.215-.11.38-.256.493-.439a1.08 1.08 0 00.17-.579.9.9 0 00-.35-.74c-.235-.186-.59-.389-1.066-.608a9.935 9.935 0 01-.932-.508 2.176 2.176 0 01-.604-.582c-.167-.236-.25-.527-.25-.87 0-.357.096-.686.29-.987a1.99 1.99 0 01.812-.706c.346-.17.743-.256 1.19-.256zm8.896.055l.065.086-.065.68-1.23-.065h-.713l-.032 4.129.032 2.19h-.888l.065-2.115-.055-4.204h-.713l-1.248.066-.055-.09.065-.677h4.772zm2.402 6.055a.47.47 0 01.35.133c.087.087.13.207.13.36 0 .162-.044.29-.135.383a.5.5 0 01-.379.144.473.473 0 01-.355-.13.516.516 0 01-.128-.373c0-.153.046-.278.139-.373a.497.497 0 01.378-.144zm9.06-4.532c.439 0 .798.111 1.078.334.282.222.424.516.424.881 0 .292-.102.619-.306.98-.205.362-.531.802-.977 1.32l-1.107 1.26.02.044h2.03l.922-.068.065.055-.12.735-1.12-.044h-2.455l-.407.021-.055-.042v-.547l1.525-1.656c.395-.438.684-.802.867-1.09.183-.287.274-.54.274-.76a.617.617 0 00-.22-.487c-.146-.129-.35-.193-.613-.193-.265 0-.527.066-.786.198-.26.13-.496.313-.708.548h-.11l-.14-.668a3.27 3.27 0 01.921-.61c.33-.14.662-.211.998-.211zm7.174-.024c.738 0 1.31.24 1.716.718.405.478.608 1.16.608 2.044 0 .904-.212 1.603-.637 2.097-.423.492-1.022.738-1.797.738-.747 0-1.323-.238-1.729-.712-.405-.475-.608-1.146-.608-2.013 0-.922.212-1.63.637-2.126.423-.497 1.026-.746 1.81-.746zm-.078.801c-.556 0-.975.168-1.257.503-.28.336-.42.836-.42 1.5 0 .673.142 1.178.426 1.517.285.34.706.51 1.261.51.557 0 .98-.167 1.27-.499.287-.332.43-.823.43-1.473 0-.678-.144-1.191-.43-1.54-.29-.345-.716-.518-1.28-.518zm7.173-.777c.44 0 .8.111 1.082.334.28.222.42.516.42.881 0 .292-.102.619-.305.98-.206.362-.531.802-.977 1.32l-1.107 1.26.02.044h2.03l.922-.068.065.055-.12.735-1.118-.044h-2.457l-.408.021-.055-.042v-.547l1.525-1.656c.396-.438.685-.802.867-1.09.183-.287.275-.54.275-.76a.617.617 0 00-.22-.487c-.146-.129-.35-.193-.614-.193-.262 0-.523.066-.783.198-.261.13-.497.313-.708.548h-.11l-.143-.668a3.27 3.27 0 01.922-.61c.329-.14.662-.211.998-.211zm6.736 0c.439 0 .799.111 1.08.334.281.222.421.516.421.881 0 .292-.101.619-.305.98-.206.362-.531.802-.977 1.32l-1.107 1.26.02.044h2.03l.922-.068.065.055-.12.735-1.12-.044h-2.455l-.408.021-.055-.042v-.547l1.526-1.656c.395-.438.684-.802.867-1.09.183-.287.274-.54.274-.76a.616.616 0 00-.22-.487c-.146-.129-.35-.193-.613-.193-.265 0-.527.066-.786.198-.26.13-.496.313-.708.548h-.11l-.14-.668a3.27 3.27 0 01.921-.61c.33-.14.662-.211.998-.211z" fill="#F4E7B3"/></g><defs><linearGradient id="paint0_linear_17_232" x1="73.19" y1="54.089" x2="76.51" y2="54.089" gradientUnits="userSpaceOnUse"><stop offset="0" stop-color="#F5E8B4"/><stop offset="1" stop-color="#B08B45"/></linearGradient><linearGradient id="paint1_linear_17_232" x1="58.026" y1="53.506" x2="63.385" y2="53.506" gradientUnits="userSpaceOnUse"><stop offset="0" stop-color="#F5E8B4"/><stop offset="1" stop-color="#B08B45"/></linearGradient><linearGradient id="paint2_linear_17_232" x1="58.024" y1="18.131" x2="65.686" y2="18.131" gradientUnits="userSpaceOnUse"><stop offset="0" stop-color="#F5E8B4"/><stop offset="1" stop-color="#B08B45"/></linearGradient><linearGradient id="paint3_linear_17_232" x1="44.916" y1="53.508" x2="56.731" y2="53.508" gradientUnits="userSpaceOnUse"><stop offset="0" stop-color="#F5E8B4"/><stop offset="1" stop-color="#B08B45"/></linearGradient><linearGradient id="paint4_linear_17_232" x1="51.268" y1="43.335" x2="65.689" y2="43.335" gradientUnits="userSpaceOnUse"><stop offset="0" stop-color="#F5E8B4"/><stop offset="1" stop-color="#B08B45"/></linearGradient><linearGradient id="paint5_linear_17_232" x1="66.968" y1="39.945" x2="81.388" y2="39.945" gradientUnits="userSpaceOnUse"><stop offset="0" stop-color="#F5E8B4"/><stop offset="1" stop-color="#B08B45"/></linearGradient><linearGradient id="paint6_linear_17_232" x1="30.298" y1="33.476" x2="97.72" y2="33.476" gradientUnits="userSpaceOnUse"><stop offset="0" stop-color="#F5E8B4"/><stop offset="1" stop-color="#B08B45"/></linearGradient><clipPath id="clip0_17_232"><path fill="#fff" d="M0 0h129v101H0z"/></clipPath></defs></svg>