<svg width="20" height="20" fill="none" xmlns="http://www.w3.org/2000/svg"><g clip-path="url(#clip0_87_1263)"><path d="M14.586 0H5.414A5.42 5.42 0 000 5.414v9.172A5.42 5.42 0 005.414 20h9.172A5.42 5.42 0 0020 14.586V5.414A5.42 5.42 0 0014.586 0zM10 15.469A5.475 5.475 0 014.531 10 5.475 5.475 0 0110 4.531 5.475 5.475 0 0115.469 10 5.475 5.475 0 0110 15.469zm5.6-9.648a1.618 1.618 0 01-1.617-1.616c0-.891.725-1.616 1.616-1.616.891 0 1.616.725 1.616 1.616 0 .891-.725 1.616-1.616 1.616z" fill="url(#paint0_linear_87_1263)"/><path d="M10 5.704A4.301 4.301 0 005.704 10 4.301 4.301 0 0010 14.296 4.301 4.301 0 0014.296 10 4.3 4.3 0 0010 5.704z" fill="url(#paint1_linear_87_1263)"/><path d="M15.6 3.762a.444.444 0 100 .888.444.444 0 000-.888z" fill="url(#paint2_linear_87_1263)"/></g><defs><linearGradient id="paint0_linear_87_1263" x1="8.743" y1="-4" x2="8.743" y2="24.364" gradientUnits="userSpaceOnUse"><stop offset="0" stop-color="#F5E8B4"/><stop offset="1" stop-color="#B08B45"/></linearGradient><linearGradient id="paint1_linear_87_1263" x1="9.46" y1="3.985" x2="9.46" y2="16.171" gradientUnits="userSpaceOnUse"><stop offset="0" stop-color="#F5E8B4"/><stop offset="1" stop-color="#B08B45"/></linearGradient><linearGradient id="paint2_linear_87_1263" x1="15.544" y1="3.584" x2="15.544" y2="4.842" gradientUnits="userSpaceOnUse"><stop offset="0" stop-color="#F5E8B4"/><stop offset="1" stop-color="#B08B45"/></linearGradient><clipPath id="clip0_87_1263"><path fill="#fff" d="M0 0h20v20H0z"/></clipPath></defs></svg>