<svg width="209" height="209" fill="none" xmlns="http://www.w3.org/2000/svg"><path d="M96.531 144.344a7.962 7.962 0 01-5.658-2.311l-31.875-31.875a8.003 8.003 0 015.658-13.66c2.122 0 4.157.844 5.658 2.344l26.217 26.297 50.124-50.203a8 8 0 0111.315 0 8 8 0 010 11.316l-55.781 55.781a7.976 7.976 0 01-5.658 2.311z" fill="url(#paint0_linear_2031_918)"/><path d="M104.5 208.094A103.594 103.594 0 11104.501.905a103.594 103.594 0 01-.001 207.189zm0-191.25a87.656 87.656 0 100 175.312 87.656 87.656 0 000-175.312z" fill="url(#paint1_linear_2031_918)"/><defs><linearGradient id="paint0_linear_2031_918" x1="56.68" y1="108.467" x2="160.316" y2="108.467" gradientUnits="userSpaceOnUse"><stop offset="0" stop-color="#F5E8B4"/><stop offset="1" stop-color="#B08B45"/></linearGradient><linearGradient id="paint1_linear_2031_918" x1=".956" y1="104.496" x2="208.099" y2="104.496" gradientUnits="userSpaceOnUse"><stop offset="0" stop-color="#F5E8B4"/><stop offset="1" stop-color="#B08B45"/></linearGradient></defs></svg>