<svg width="22" height="25" fill="none" xmlns="http://www.w3.org/2000/svg"><path d="M9.348 15.592l-.035.048c-.28.376-.648.564-1.016.564-.361 0-.724-.183-1.002-.55-.579-.762-.675-1.963-.23-2.873l.158-.324 1.086-2.22 1.19 2.22.034.066c.507.946.43 2.242-.185 3.069zm5.351 0l-.035.048c-.28.376-.648.564-1.016.564-.361 0-.724-.183-1.003-.55-.578-.762-.674-1.963-.23-2.873l.158-.324 1.087-2.22 1.19 2.22.034.066c.507.946.43 2.242-.185 3.069zM8.31 10.237V7.972m5.368 2.265V7.972" stroke="#3E3D3F" stroke-width=".267" stroke-miterlimit="10"/><path d="M14.185 20.876l-3.139 1.52-.09.044-.09-.044-3.138-1.52.01-.025c-.002.004 3.29 1.31 3.208 1.299.007.016 3.264-1.356 3.239-1.274zM7.44 14.224c.225.418.298.692.768.927-.134.18-.596.064-.648-.247-.054-.225-.155-.496-.12-.68zm5.47.235c.226.417.3.691.768.926-.133.18-.596.064-.648-.246-.053-.226-.154-.496-.12-.68z" fill="#3E3D3F"/><path d="M20.89 24.785H1.035v-6.89H20.89v6.89zm-.063-20.97l-1.668 8.15H16.85l-.912-4.074H6.163l-1.014 4.074H3.033L1 3.815h19.827zM1 1h19.827v2.815H1V1z" stroke="#3E3D3F" stroke-width=".267" stroke-miterlimit="10"/><path d="M20.827 17.896H1l.003-.004 2.03-5.926H5.15l-1.474 5.926h14.501l-1.325-5.926h2.24l1.734 5.926.002.004z" stroke="#3E3D3F" stroke-width=".267" stroke-miterlimit="10"/></svg>