<svg width="30" height="15" fill="none" xmlns="http://www.w3.org/2000/svg"><path d="M28.321 8.666a.885.885 0 01-.883-.882v-.552c0-.486.398-.882.883-.882s.883.396.883.882v.552a.885.885 0 01-.883.882z" stroke="#3E3D3F" stroke-width=".267" stroke-miterlimit="10"/><path d="M25.941 12.287a1.503 1.503 0 01-1.499-1.498V4.627c0-.824.675-1.498 1.499-1.498.824 0 1.499.674 1.499 1.498v6.162c0 .824-.675 1.498-1.499 1.498z" stroke="#3E3D3F" stroke-width=".267" stroke-miterlimit="10"/><path d="M22.776 14.304c-.916 0-1.667-.75-1.667-1.667v-9.97C21.11 1.75 21.86 1 22.776 1s1.667.75 1.667 1.667v9.97c0 .918-.751 1.667-1.667 1.667zM1.883 8.666a.885.885 0 00.882-.882v-.552a.884.884 0 00-.882-.882.884.884 0 00-.883.882v.552c0 .485.397.882.883.882z" stroke="#3E3D3F" stroke-width=".267" stroke-miterlimit="10"/><path d="M4.263 12.287c.824 0 1.499-.674 1.499-1.498V4.627c0-.824-.675-1.498-1.499-1.498-.824 0-1.498.674-1.498 1.498v6.162c0 .824.674 1.498 1.498 1.498zm3.165 2.017c.916 0 1.667-.75 1.667-1.667v-9.97C9.095 1.75 8.345 1 7.428 1c-.916 0-1.666.75-1.666 1.667v9.97c0 .918.75 1.667 1.666 1.667zm13.613-5.237H9.163a.068.068 0 01-.068-.068V6.11c0-.038.03-.07.068-.07H21.04a.07.07 0 01.068.07v2.888c0 .037-.03.068-.068.068z" stroke="#3E3D3F" stroke-width=".267" stroke-miterlimit="10"/></svg>