<svg width="25" height="25" fill="none" xmlns="http://www.w3.org/2000/svg"><path d="M1 11.88c0 6.677 5.416 12.09 12.092 12.09 3.337 0 6.364-1.353 8.55-3.54a12.152 12.152 0 002.191-2.985 12.064 12.064 0 01-5.569 1.353c-6.676 0-12.092-5.413-12.092-12.092 0-2.01.49-3.904 1.357-5.57a12.253 12.253 0 00-2.985 2.192A12.06 12.06 0 001 11.879zm17.385-7.463l-.905 1.655-1.654.904 1.654.905.905 1.655.904-1.655 1.654-.905-1.654-.904-.904-1.655z" stroke="#3E3D3F" stroke-width=".267" stroke-miterlimit="10"/><path d="M14.556 8.026l-.535.976-.976.534.976.534.535.976.533-.976.976-.534-.976-.534-.533-.976zM12.2 1l-.454.83-.831.455.83.455.455.83.455-.83.83-.455-.83-.454L12.2 1zm8.743 11.592l-.319.581-.581.319.581.317.319.581.319-.581.581-.317-.581-.319-.319-.581z" stroke="#3E3D3F" stroke-width=".267" stroke-miterlimit="10"/></svg>