<svg width="26" height="27" fill="none" xmlns="http://www.w3.org/2000/svg"><path d="M24.378 18.6c-1.305 1.262-2.831 1.087-4.558.849l.324-6.567c0-.017.042-1.021-.284-1.533-.279-.439-.932-.399-.932-.399a.531.531 0 00-.473.498l-.31 6.31.253-6.802s.066-1.14.053-1.302c-.01-.163-.038-.788-.419-1.147-.385-.376-1.03-.184-1.03-.184a.522.522 0 00-.37.484l-.248 7.875.155-8.188a.61.61 0 00-.004-.11s.017-.443-.082-.682c-.1-.239-.323-.696-1.029-.697-.685.072-.806.404-.944.68-.085.402-.098 1.09-.098 1.09l-.146 7.902.115-7.632c-.07-.088-.128-.179-.186-.262a.931.931 0 00-.191-.213.96.96 0 00-.591-.119c-.265.036-.53.22-.57.271 0 0-.328.239-.405.697-.076.46-.225 7.084-.225 7.084a.619.619 0 00.008.122l.281 1.685-.293-1.448-.007-.03s-.597-3.19-1.633-3.158c-.983.15-.68 1.418-.619 1.904l-.01-.086c.02.131.233 1.226.294 2.286.05.868.112 1.83.19 2.596-1.114.074-2.158-.085-3.053-.732-2.226-1.604.068-3.938-.169-6.188-.257-2.439-2.87-4.805-.713-6.763 2.174-1.978 4.972-.584 8.108-.702 2.9-.11 6.132-1.876 8.473-.27 2.4 1.648.856 4.142 1.079 6.478.223 2.336 2.21 4.516.259 6.404z" stroke="#3E3D3F" stroke-width=".267" stroke-miterlimit="10"/><path d="M20.144 12.882l-.323 6.567-.082 1.67c0 .014-.002.027-.003.04-.027.226-.275 2.266-.636 2.898-.19.33-.347.988-.456 1.567-.077.401-.312.69-.719.724-1.03.044-4.852-.063-4.852-.063-.293-.024-.521-.297-.512-.612.012-.407-.016-.976-.197-1.521a.61.61 0 00-.143-.236c-.345-.35-1.388-1.475-1.638-2.306-.072-.233-.135-.682-.19-1.237a68.521 68.521 0 01-.189-2.595c-.061-1.06-.273-2.156-.293-2.286l.009.086c-.06-.486-.363-1.754.62-1.904 1.035-.032 1.632 3.158 1.632 3.158l.008.03.292 1.447-.281-1.685a.599.599 0 01-.007-.12s.148-6.626.224-7.084c.077-.459.404-.698.404-.698.04-.05.305-.234.572-.272a.985.985 0 01.59.12.957.957 0 01.191.214c.059.082.115.172.186.261l-.114 7.632.146-7.903s.012-.686.098-1.089c.138-.276.258-.61.943-.681.707.002.93.46 1.03.698.098.24.08.683.08.683a.593.593 0 01.005.11l-.154 8.187.247-7.874a.525.525 0 01.372-.486s.643-.19 1.028.186c.383.358.408.984.42 1.146.012.162-.055 1.302-.055 1.302l-.252 6.802.311-6.31a.528.528 0 01.472-.498s.653-.04.932.4c.327.51.285 1.515.284 1.532zM1.596 6.521l1.115.536L4 6.901l-.65 1.124.054 1.236-1.116-.536L1 8.881l.65-1.124-.054-1.236zM5.603 1l.813.43.917-.075-.43.813.076.917-.814-.43-.917.076.43-.814L5.604 1zm-.886 14.083l.57.301.642-.053-.302.57.054.642-.57-.301-.642.053.301-.57-.053-.642zM9.014 4.149l.569.301.643-.053-.302.569.052.643-.568-.302-.642.054.301-.57-.053-.642z" stroke="#3E3D3F" stroke-width=".267" stroke-miterlimit="10"/></svg>