<svg width="23" height="25" fill="none" xmlns="http://www.w3.org/2000/svg"><path d="M6.754 17.57a1.29 1.29 0 01-1.3 1.28m0 .733c1.127 0 2.043-.903 2.043-2.013 0-.964-1.437-3.326-1.725-3.79-.135-.217-.499-.217-.634 0-.288.464-1.725 2.826-1.725 3.79 0 1.11.916 2.013 2.041 2.013z" stroke="#3E3D3F" stroke-width=".267" stroke-miterlimit="10"/><path d="M10.347 1.89l-.7-.767A.38.38 0 009.369 1H4.236a.368.368 0 00-.37.367v2.349H3.47a.37.37 0 00-.372.367v4.312H1.743A.738.738 0 001 9.127v14.569c0 .605.5 1.097 1.113 1.097h6.683c.615 0 1.115-.492 1.115-1.097V9.126a.738.738 0 00-.743-.731H7.812V4.083c0-.484-.664-.344-.767-.367V2.695c0-.379.299-.691.678-.707L8.929 2c.114.001.227.03.327.085l.539.295c.073.08.174.12.276.12.089 0 .413-.46.276-.61z" stroke="#3E3D3F" stroke-width=".267" stroke-miterlimit="10"/><path d="M7.812 8.43H3.1v-.07h4.712v.07zm-.76-4.68H3.835v-.07h3.217v.07zm-5.789 7.294h8.481M1.263 22.445h8.481m9.858-10.535l.407-.233m-.411 1.508l.406.233m-.234-1.021l.454-.116m-.459.577l.464.068m.268-1.489l.765-.438m-.774 2.833l.766.439m-.444-1.919l.855-.217m-.863 1.083l.872.128m-9.892-.418l1.326-.35" stroke="#3E3D3F" stroke-width=".267" stroke-miterlimit="10"/><path d="M17.802 15.853c1.238.017 2.35 1.122 2.472 2.337-.44-1.04-1.387-1.983-2.472-2.337z" fill="#3E3D3F"/><path d="M16.822 24.794h-.184c-2.964 0-5.388-2.424-5.388-5.387v-.185c0-2.963 2.424-5.387 5.388-5.387h.184c2.963 0 5.387 2.424 5.387 5.387v.185c0 2.963-2.424 5.387-5.387 5.387z" stroke="#3E3D3F" stroke-width=".267" stroke-miterlimit="10"/><path d="M21.071 19.314a4.342 4.342 0 11-8.683 0 4.342 4.342 0 018.683 0z" stroke="#3E3D3F" stroke-width=".267" stroke-miterlimit="10"/><path d="M12.494 20.55s1.568.072 3.042-.414c2.257-.747 4.84-2 5.497-.534m-3.077-5.767H15.66a.342.342 0 01-.342-.342v-1.521c0-.188.154-.343.342-.343h2.296c.188 0 .341.155.341.343v1.521a.342.342 0 01-.341.342zm-6.381-1.183l1.661-.415a.49.49 0 01.595.356l.004.016a.491.491 0 01-.357.595l-1.662.415a.493.493 0 01-.594-.357l-.004-.016a.493.493 0 01.357-.595zm3.742-.457l-1.514.379m-.026.066h.026m1.514-.354v-.025m3.508.377h-.338a.187.187 0 01-.186-.187v-.005c0-.103.084-.187.186-.187h.338c.102 0 .186.084.186.187v.005a.187.187 0 01-.186.187z" stroke="#3E3D3F" stroke-width=".267" stroke-miterlimit="10"/></svg>