<svg width="1061" height="877" fill="none" xmlns="http://www.w3.org/2000/svg"><path d="M98.55 2.577c-43.867 9.333-80.134 42.133-93.067 84C-.25 105.244-.25 108.977.15 329.91l.4 210.667 3.066 10.667c8.134 28.8 26.667 54.8 50.267 70.933 21.733 14.667 39.2 19.867 71.067 21.333 16.666.667 21.066 1.334 23.333 3.2 2.933 2.267 2.933 2.8 3.6 59.467.667 60.4.8 60.8 7.2 66 3.467 2.933 12.933 3.067 18.133.4 2.134-1.067 9.067-8.133 15.467-15.6 6.4-7.6 12.933-14.8 14.4-16 3.6-3.067 8-2.933 20.533.133 5.734 1.467 13.067 3.067 16.4 3.467 3.467.533 122.534 1.067 264.667 1.067 258 .266 258.533.266 263.2 2.933 2.8 1.733 25.067 26.933 54.267 61.333 27.333 32.267 51.6 60.4 54.133 62.4 9.2 7.6 21.6 5.6 26-4.133 2-4.267 2.267-12 2.667-58.933.133-29.734.666-55.334.933-56.934 1.2-5.2 5.467-6.266 28.667-7.2 25.333-1.066 33.866-3.066 52.8-12.533 33.07-16.267 55.47-43.733 65.6-80.267l3.6-13.066V425.91c0-193.2-.27-214.4-2.27-224-8.4-41.2-37.33-75.866-75.997-91.2-12.8-5.2-25.6-7.866-44.133-9.333-10-.667-14.934-1.6-15.734-2.933-.666-1.067-2.4-5.734-4-10.534-14.8-44.8-49.333-76.133-94.133-85.2-13.467-2.8-14.933-2.8-364-2.666C126.816.044 109.35.177 98.55 2.577zm725.333 34.4c16.133 5.067 27.6 11.733 38.8 22.933 11.067 10.934 17.867 22.133 22.8 36.667l3.067 9.333v433.334l-3.6 9.733c-10.667 29.333-32.267 49.467-62.134 58l-10.266 2.933-268 .667c-264.934.667-268 .667-272.534 3.333-2.4 1.467-20.133 21.334-39.466 44-19.2 22.8-36 42.134-37.067 43.067-1.2 1.067-3.467 1.6-5.2 1.333l-3.067-.4-.8-36c-.4-20.266-1.466-38.4-2.266-41.466-1.6-5.467-5.467-10-10.267-11.867-1.467-.533-16.133-1.467-32.667-2-34.133-1.333-44.266-3.2-60.4-11.6-13.6-7.067-29.333-22.933-36.533-37.067-11.333-22-10.4-1.2-10.4-240 0-201.466.133-212.4 2.4-220.666 4.8-16.534 11.333-27.734 23.6-40.134 15.2-15.2 31.067-23.466 51.333-26.4 4.534-.666 162.267-1.066 355.334-.933l347.333.133 10 3.067zM960.55 139.244c15.466 4.133 27.066 11.066 39.47 23.333 9.33 9.333 12.53 13.6 16.93 22.667 10.27 21.333 9.73 7.2 9.33 243.333l-.4 210.667-3.06 9.333c-4.94 14.8-11.74 25.733-22.8 36.8-21.07 20.933-44.004 27.867-92.404 27.867-16.533 0-19.6.4-23.333 2.666-8.533 5.2-8.933 7.2-9.733 48.934-.534 27.066-1.067 38-2.267 39.2-2.8 2.8-7.467-.534-17.467-12.4-5.066-6.134-16.266-19.334-24.666-29.334-30.8-36.666-37.334-43.866-41.467-46.133-3.867-2.133-22.267-2.267-268.8-3.067-171.2-.533-266.933-1.2-271.067-2.133-3.6-.667-7.466-2.267-8.533-3.467-2-2-1.867-2.533 1.2-7.2 1.867-2.8 6.4-8.4 9.867-12.533 3.6-4.133 12.666-14.667 20.266-23.6 8.4-9.733 15.467-16.8 18-17.867 3.467-1.466 53.467-1.866 267.6-2.4 144.8-.4 264.8-1.2 266.667-1.866 1.867-.534 8.133-2.534 14-4.4 20.4-6.534 34.533-15.334 50.667-31.734 17.066-17.333 28.4-39.466 33.2-64.666 1.866-9.6 2.133-34.4 2.133-205.467V141.244l2.8-2.8c2.667-2.667 3.867-2.8 14.4-2.134 6.267.4 15.067 1.734 19.467 2.934z" fill="#000"/><path d="M415.616 261.91c-11.733 4.267-21.067 13.334-26.8 25.734-2.267 5.066-2.933 8.8-2.933 18.933.133 11.333.533 13.6 4.133 21.333 2.267 4.8 6.933 12.4 10.4 16.934 8.133 10.8 62.933 64.266 66.933 65.2 1.6.4 4 .266 5.2-.4 4.8-2.8 41.734-38 54.934-52.4 18.533-20.4 24.666-32.134 25.466-49.067.4-9.467 0-12.933-2.4-19.2-3.466-9.467-12.133-19.2-21.6-24.4-6.666-3.733-8-4-21.733-4h-14.667l-11.733 6.4-11.867 6.4-8.8-5.333c-4.933-2.8-11.333-5.867-14.266-6.667-7.334-2-24.267-1.733-30.267.533z" fill="#000"/></svg>