<svg width="883" height="427" fill="none" xmlns="http://www.w3.org/2000/svg"><g clip-path="url(#clip0_2313_164)" fill="#5C524E"><path d="M312.41.866l3.347-.014h3.678l3.907-.01c3.583-.01 7.165-.014 10.747-.017 3.862-.004 7.725-.013 11.587-.022 9.331-.02 18.661-.03 27.991-.039 4.396-.004 8.791-.01 13.187-.015A65597.046 65597.046 0 01442.08.705l2.856-.002C460.199.695 475.461.67 490.723.637c15.676-.033 31.352-.05 47.027-.054 8.799-.002 17.598-.01 26.397-.036 7.495-.022 14.99-.03 22.485-.02 3.821.004 7.642.002 11.464-.017 4.151-.021 8.302-.01 12.453.002l3.624-.033C626.615.574 636.385 4.129 646 12c.699.55 1.398 1.1 2.117 1.668 4.542 4.003 7.424 8.585 10.196 13.895l.986 1.835c5.603 11.446 6.147 24.503 6.178 36.996.014 1.41.03 2.818.047 4.227.041 3.653.067 7.307.087 10.96.037 5.892.097 11.783.159 17.674.019 2.048.031 4.097.041 6.145l.031 3.736.02 3.295c-.034 2.558-.034 2.558 1.138 4.569l3.229.024c10.077.078 20.154.166 30.231.264 5.18.049 10.36.096 15.54.134 5.006.037 10.011.083 15.017.136 1.902.018 3.805.034 5.708.045 29.417.188 29.417.188 41.5 12.256l1.713 1.766 1.828 1.854c4.39 4.507 8.391 9.206 12.293 14.142 2.21 2.708 4.615 5.083 7.129 7.504 3.11 3.217 5.822 6.766 8.625 10.25a75.244 75.244 0 005.687 6.125c3.806 3.664 7.006 7.764 10.313 11.875a75.244 75.244 0 005.687 6.125c2.905 2.797 5.414 5.792 7.938 8.937 2.714 3.376 5.451 6.55 8.562 9.563 3.987 3.86 7.385 8.093 10.852 12.418a67.243 67.243 0 005.586 5.957c3.262 3.155 6.036 6.607 8.812 10.187l1.287 1.645c4.645 6.085 7.569 11.668 7.61 19.345l.022 2.752.008 2.997.02 3.175c.02 3.469.032 6.938.042 10.407l.012 3.595c.021 6.281.035 12.563.044 18.844.011 6.476.046 12.952.086 19.428.026 4.99.034 9.98.038 14.969.005 2.387.016 4.773.035 7.16.024 3.348.023 6.695.016 10.043l.039 2.961c-.061 8.143-2.243 14.586-6.634 21.429-4.971 4.647-10.107 7.591-16.988 8.067-7.905.322-7.905.322-14.386 4.248-2.691 4.182-4.536 8.753-6.5 13.306C832.773 411.736 820.848 419.667 810 424c-15.445 4.913-31.233 4.218-45.812-3.188-5.297-3.248-9.769-7.477-14.188-11.812l-1.648-1.574c-4.42-4.652-7.273-10.387-10.282-16.004-1.847-3.855-1.847-3.855-5.07-6.422a64.383 64.383 0 00-4.214-.129l-2.695-.009-2.978.004-3.15-.007c-3.507-.006-7.013-.005-10.519-.004l-7.513-.01c-6.111-.008-12.222-.011-18.333-.012-4.966-.001-9.933-.003-14.899-.006-14.074-.009-28.148-.013-42.222-.012h-4.604c-12.319 0-24.637-.009-36.956-.023-12.641-.015-25.283-.022-37.924-.021-7.1 0-14.2-.002-21.3-.013-6.677-.01-13.354-.01-20.031-.003-2.454.002-4.908-.001-7.362-.007-3.344-.008-6.687-.003-10.031.005l-2.959-.016c-6.417-.039-6.417-.039-12.31 2.263a71.171 71.171 0 00-3.75 7.5c-6.794 14.541-17.44 23.721-32.383 29.5-14.561 5.079-28.726 3.705-42.91-2.285-14.453-7.319-23.008-18.962-29.695-33.344-1.036-2.5-1.036-2.5-3.262-3.371a151.227 151.227 0 00-6.494-.158l-2.021-.015c-1.451-.011-2.903-.019-4.354-.026-2.305-.012-4.61-.031-6.915-.053-6.555-.062-13.109-.116-19.664-.149-4.01-.021-8.019-.057-12.028-.101a631.248 631.248 0 00-4.564-.026c-12.144-.028-21.997-.563-31.05-9.296-9.52-10.844-9.063-26.52-9.044-40.115l-.006-3.527c-.006-3.203-.006-6.407-.005-9.61 0-3.466-.006-6.932-.01-10.397-.009-6.782-.011-13.563-.012-20.344 0-5.518-.002-11.037-.006-16.555-.008-15.676-.013-31.352-.012-47.029v-5.117c0-13.677-.009-27.354-.023-41.031-.015-14.074-.022-28.147-.021-42.221.001-7.889-.002-15.778-.013-23.666-.009-6.721-.011-13.441-.004-20.16.003-3.422.002-6.843-.006-10.263C264.642 34.165 264.642 34.165 282 14 290.752 6.493 300.688.888 312.41.866zM296 33c-6.69 8.638-7.295 16.79-7.26 27.418l-.012 3.792c-.01 3.462-.008 6.923-.004 10.385.003 3.737-.006 7.475-.014 11.212-.013 7.317-.014 14.634-.012 21.951.002 5.947 0 11.894-.004 17.84l-.002 2.566-.004 5.159c-.011 16.123-.009 32.246-.002 48.369.005 14.752-.007 29.504-.026 44.256-.019 15.15-.027 30.299-.023 45.448.002 8.505-.001 17.009-.015 25.514-.012 7.238-.013 14.476-.001 21.714.006 3.692.007 7.385-.005 11.078-.013 4.002-.003 8.004.01 12.007l-.022 3.54c.049 7.797.049 7.797 3.396 14.751 3.68 2.176 7.072 2.261 11.288 2.291l3.781.038 4.06.007 4.187.02c2.92.012 5.839.016 8.758.015 3.738-.001 7.476.027 11.214.061 2.88.022 5.76.026 8.64.025 1.378.003 2.757.012 4.135.027 1.926.02 3.853.011 5.779.002l3.319.008c3.536-.615 4.649-1.703 6.839-4.494a129.704 129.704 0 003.188-7.5c5.944-14.268 14.446-23.888 28.687-30.312 14.667-5.724 30.498-5.714 45.188-.063 15.909 7.186 24.396 18.827 30.643 34.67 1.415 3.54 2.031 5.03 5.294 7.205 3.005.306 3.005.306 6.491.261l2.006.011c2.222.011 4.445.007 6.667.003a3509.475 3509.475 0 0017.754.027c3.609-.001 7.217.003 10.826.008 8.51.011 17.021.012 25.532.006 8.788-.006 17.576.006 26.364.027 7.539.018 15.078.024 22.617.021 4.505-.002 9.01 0 13.516.014 4.235.013 8.47.011 12.706-.002 1.556-.002 3.113 0 4.669.009 2.121.01 4.241.002 6.361-.011l3.6.001c2.836-.134 2.836-.134 4.548-1.576 1.807-2.42 1.72-3.951 1.724-6.958l.025-3.255-.018-3.59.016-3.804c.015-3.491.01-6.982.003-10.473-.005-3.763.008-7.526.018-11.289.017-7.378.018-14.755.013-22.133-.004-6-.003-12 .003-18l.002-2.586.004-5.201c.014-16.275.009-32.551-.003-48.826-.01-14.874.003-29.748.027-44.621.025-15.277.034-30.554.028-45.831-.004-8.574-.002-17.149.016-25.724.015-7.306.015-14.611-.002-21.917-.009-3.725-.011-7.449.004-11.173.017-4.048.002-8.096-.016-12.144l.03-3.522c-.089-9.949-1.647-20.91-8.781-28.377l-2.14-2.352c-7.156-5.549-14.559-5.452-23.249-5.397l-3.827-.012c-3.49-.01-6.979-.003-10.469.008-3.77.01-7.539 0-11.309-.005-7.378-.01-14.757-.003-22.135.009-8.596.014-17.191.012-25.787.01-15.339-.003-30.678.008-46.017.028-14.878.019-29.756.026-44.634.02a45292.98 45292.98 0 00-48.624.006l-5.187.003-2.578.002c-5.989.004-11.978.004-17.967.002a9992.8 9992.8 0 00-21.901.017c-3.724.008-7.447.012-11.171.007-4.039-.005-8.077.006-12.116.018l-3.556-.011C310.529 23.784 303.344 24.98 296 33zm370 110a113.631 113.631 0 00-1.127 16.532l-.005 2.489c-.003 2.732 0 5.464.003 8.196l-.005 5.9c-.005 5.329-.003 10.657 0 15.986.002 5.583 0 11.167-.001 16.751-.002 9.377 0 18.754.005 28.132.005 10.83.004 21.66-.002 32.49-.005 9.309-.005 18.618-.003 27.927.002 5.555.002 11.11-.001 16.666-.003 5.224-.001 10.448.005 15.673.001 1.913.001 3.827-.001 5.74-.003 2.62 0 5.239.005 7.859l-.007 2.274c.019 5.192.494 10.231 1.134 15.385 3.329 1.11 5.8 1.12 9.308 1.114l3.942-.001 4.262-.015 4.359-.005c3.822-.003 7.644-.013 11.467-.024 3.901-.011 7.802-.015 11.703-.02 7.653-.011 15.306-.028 22.959-.049l.819-1.843 1.081-2.433 1.068-2.405c7.038-15.818 15.433-28.327 31.782-35.631 14.873-5.384 31.786-5.11 46.25 1.312 13.749 7.182 22.172 16.658 28 31 .744 1.711 1.494 3.42 2.25 5.125l.953 2.195c.679 1.674.679 1.674 1.797 2.68 3.296.293 5.372.34 8.313-1.25 3.698-3.836 2.835-9.304 2.833-14.326l.01-2.618c.009-2.853.011-5.707.012-8.56l.01-5.947c.006-4.154.008-8.307.008-12.461-.001-5.329.013-10.658.03-15.986.011-4.093.013-8.186.013-12.279.001-1.965.006-3.93.013-5.896.01-2.743.007-5.486.001-8.23l.017-2.47c-.021-3.856-.07-5.692-2.26-8.977-2.251-.457-2.251-.457-4.912-.385l-3.147-.029-3.468.013-3.642-.021a1371.37 1371.37 0 00-7.855-.019c-4.15.002-8.299-.018-12.448-.04-8.073-.041-16.145-.06-24.218-.077-10.242-.022-20.485-.056-30.727-.107-3.444-.016-6.888-.028-10.331-.03-3.854-.003-7.707-.017-11.56-.034l-3.413.008c-9.943-.064-20.53-.287-28.279-7.279-4.871-6.026-7.235-12.466-7.29-20.23l-.039-3.672-.007-3.93-.02-4.08c-.012-2.845-.016-5.69-.014-8.536 0-3.624-.027-7.248-.062-10.872-.022-2.808-.026-5.616-.025-8.424a652.805 652.805 0 00-.047-5.937c.042-8.456 1.209-14.69 6.145-21.624 7.969-7.776 16.858-8.779 27.715-8.976l2.374-.056c3.331-.078 6.662-.147 9.993-.215 2.44-.052 4.88-.109 7.32-.167l2.282-.041c3.139-.075 5.677-.241 8.675-1.24-1.362-4.03-3.117-6.627-6.062-9.688l-2.16-2.324c-8.223-5.886-20.084-4.28-29.762-4.254l-5.239-.005c-3.645-.003-7.289.001-10.934.01-4.666.012-9.331.005-13.997-.007-3.6-.007-7.2-.005-10.799 0-1.721.002-3.442 0-5.163-.005-2.402-.005-4.805.003-7.207.014l-2.141-.012c-3.95.034-6.976.538-10.536 2.271zm62 41c-1.558 4.755-1.162 9.984-1.168 14.937l-.01 2.903c-.005 2.02-.007 4.041-.007 6.061-.002 3.088-.02 6.175-.039 9.263l-.006 5.898-.022 2.791c-.13 7.123-.13 7.123 3.252 13.147 10.331 1.812 21.217 1.145 31.664 1.133l6.009.003c4.181.001 8.361-.001 12.542-.006 5.34-.005 10.681-.002 16.021.004 4.13.004 8.26.002 12.39 0 1.969-.001 3.937 0 5.906.002a2531 2531 0 008.267-.007l2.429.007c7.945.02 7.945.02 15.772-1.136l1-2a245.79 245.79 0 00-14.652-17.257c-3.53-3.811-6.926-7.718-10.285-11.681a453.666 453.666 0 00-12.5-14.125l-1.467-1.587A646.071 646.071 0 00799 188l-2.535-2.746c-4.123-3.771-7.814-4.504-13.309-4.529l-3.488-.029-3.738.003-3.858-.013a1970.55 1970.55 0 00-8.064-.002c-3.445.006-6.889-.011-10.334-.034-3.289-.018-6.579-.015-9.869-.013l-3.75-.028-3.469.019-3.057-.002c-2.918.432-3.792 1.037-5.529 3.374zM396 346c-6.196 5.689-10.388 13.195-11.273 21.594-.361 10.311 2.478 18.443 9.086 26.406 3.671 3.802 7.199 6.267 12.187 8l2.047.711c8.119 2.281 18.196 1.877 25.981-1.512 7.217-4.387 13.208-10.132 15.972-18.199l.672-1.961c3.136-10.722.799-19.695-4.484-29.351-6.658-8.18-14.813-12.955-25.262-14.559-9.22-.406-17.698 3.373-24.926 8.871zm371.731-.023C760.46 353.611 756.881 362.434 757 373c.71 8.672 4.913 17.581 11.375 23.438 8.652 6.608 17.269 8.385 28.043 7.324 9.492-1.457 16.116-6.434 22.145-13.746 5.299-7.43 6.256-16.117 5.437-25.016-2.205-9.792-7.204-16.412-15.187-22.312-13.102-8.276-29.427-6.862-41.082 3.289z"/><path d="M458.867 141.027C462.009 142.46 464.546 143 468 143c2.159-.841 4.104-1.826 6.105-2.992 6.631-3.528 16.495-3.106 23.633-1.324 9.457 3.936 14.378 9.992 18.262 19.316 2.926 8.777.442 17.712-3 26-4.566 8.35-11.436 15.193-18 22l-1.687 1.753C472 229.782 472 229.782 465 230c-7.54-2.456-12.403-7.594-17.977-13.028a711.55 711.55 0 00-4.328-4.182c-28.327-27.203-28.327-27.203-29.133-45.79.277-8.984 3.44-15.796 9.571-22.309 9.778-8.857 24.179-8.984 35.734-3.664zM17.914 135.86l2.47-.009c2.74-.009 5.48-.011 8.221-.012l5.884-.015c5.335-.013 10.67-.02 16.004-.024a36194.26 36194.26 0 0141.256-.039c12.036-.004 24.071-.022 36.107-.051 9.298-.021 18.597-.032 27.896-.033 5.555-.001 11.111-.007 16.667-.025 5.226-.016 10.452-.018 15.678-.01 1.918.001 3.836-.003 5.754-.013 2.619-.013 5.237-.007 7.856.004l2.299-.025c4.734.044 7.964.908 11.995 3.392 2.78 3.413 2.414 7.803 2 12-.81 2.563-1.375 3.567-3.567 5.085-3.505 1.318-6.925 1.197-10.619 1.182l-2.522.014c-2.792.013-5.585.011-8.378.01-2 .006-4.001.012-6.002.02-5.438.018-10.876.022-16.314.024-4.538.001-9.076.009-13.613.016-10.706.016-21.411.021-32.116.02-11.047-.002-22.094.02-33.141.051-9.481.026-18.963.037-28.444.036-5.664-.001-11.328.005-16.992.026-5.327.019-10.654.02-15.981.005-1.955-.002-3.91.003-5.865.015-2.67.015-5.338.006-8.007-.009l-2.344.031C8.922 157.46 5.998 156.248 2 153c-2.094-2.64-2-4.012-2-7.437 1.337-4.766 2.955-5.812 7-8.563 3.682-1.227 7.078-1.145 10.913-1.14zm35.866 66.879l1.99-.011c2.188-.011 4.375-.007 6.563-.003l4.722-.015c4.267-.014 8.533-.014 12.8-.012 3.566.002 7.132-.003 10.698-.008 8.415-.011 16.831-.012 25.246-.006 8.672.006 17.344-.006 26.015-.027 7.454-.018 14.908-.024 22.363-.021 4.448.002 8.895 0 13.344-.014 4.184-.013 8.368-.011 12.553.002 1.532.002 3.063 0 4.595-.009 14.783-.074 14.783-.074 21.33 3.385 2.839 4.258 2.743 8.005 2 13-1.954 3.127-3.429 4.503-6.971 5.624-7.616 1.608-15.11 1.659-22.866 1.635l-4.419.01c-3.973.009-7.946.006-11.919 0-4.174-.005-8.348-.001-12.522.002-7.008.004-14.015-.001-21.022-.01-8.081-.011-16.162-.008-24.242.003-6.96.01-13.92.011-20.88.006a4690.91 4690.91 0 00-12.442.003c-3.9.005-7.801.001-11.702-.01a869.455 869.455 0 00-4.273.002c-20.83.059-20.83.059-26.742-5.265-1.24-3.72-1.535-7.135-1-11 1.888-3.34 3.176-4.662 6.725-6.117 3.498-.943 6.436-1.137 10.055-1.144zm35.602 67.994l3.233-.026 3.515.002 3.727-.02c3.366-.016 6.731-.022 10.097-.024 2.105-.001 4.209-.005 6.314-.011 7.346-.018 14.693-.026 22.04-.025 6.841.002 13.681-.02 20.522-.051 5.881-.026 11.761-.037 17.641-.036 3.509.001 7.018-.005 10.527-.026 3.914-.023 7.828-.014 11.742-.002l3.509-.034c6.191.049 10.089.267 14.751 4.52 1.844 3.689 1.488 7.973 1 12-1.885 2.576-3.194 3.597-6 5a92.429 92.429 0 01-5.105.14l-3.275.018-3.61.003-3.789.015c-3.436.012-6.872.02-10.308.024a15029.705 15029.705 0 01-26.586.039c-7.753.004-15.505.022-23.258.051-5.992.022-11.983.032-17.975.033-3.579.001-7.158.007-10.737.025-3.993.019-7.986.015-11.98.008l-3.59.028-3.302-.017-2.861.005c-3.155-.447-5.04-1.541-7.624-3.372-2.567-3.422-2.365-6.846-2-11 1.34-3.174 2.17-4.592 5.277-6.12 2.867-.927 5.099-1.137 8.105-1.147z"/></g><defs><clipPath id="clip0_2313_164"><path fill="#fff" d="M0 0h883v427H0z"/></clipPath></defs></svg>