<svg width="28" height="28" fill="none" xmlns="http://www.w3.org/2000/svg"><path d="M14 24l-1.127-1.01c-1.944-1.764-3.548-3.287-4.813-4.57-1.265-1.282-2.273-2.428-3.025-3.438-.752-1.01-1.279-1.923-1.581-2.742A7.114 7.114 0 013 9.757c0-1.637.555-3.006 1.664-4.106S7.144 4 8.775 4c1.045 0 2.012.246 2.901.737.89.49 1.664 1.2 2.324 2.128.77-.982 1.586-1.705 2.448-2.17A5.77 5.77 0 0119.225 4c1.632 0 3.002.55 4.111 1.65C24.446 6.752 25 8.12 25 9.758a7.1 7.1 0 01-.454 2.483c-.302.819-.83 1.733-1.581 2.742-.752 1.01-1.76 2.156-3.025 3.438-1.265 1.283-2.87 2.806-4.813 4.57L14 24zm0-2.155c1.852-1.692 3.378-3.143 4.579-4.352 1.2-1.21 2.154-2.27 2.86-3.18.706-.909 1.2-1.718 1.485-2.428a5.684 5.684 0 00.426-2.128c0-1.2-.385-2.187-1.155-2.96-.77-.773-1.76-1.16-2.97-1.16-.935 0-1.806.287-2.613.86-.806.573-1.457 1.377-1.952 2.414h-1.348c-.476-1.018-1.118-1.819-1.925-2.4-.806-.583-1.677-.874-2.612-.874-1.21 0-2.2.387-2.97 1.16-.77.773-1.155 1.76-1.155 2.96 0 .71.142 1.424.426 2.142.284.719.78 1.537 1.485 2.456.706.918 1.664 1.978 2.874 3.178A154.047 154.047 0 0014 21.844z" fill="#000"/></svg>