<svg width="28" height="28" fill="none" xmlns="http://www.w3.org/2000/svg"><path d="M2.705 8.513c.06-1.318.266-2.168.545-2.89l.004-.01a5.4 5.4 0 011.27-1.948l.007-.008.008-.008A5.388 5.388 0 016.488 2.38l.013-.005c.72-.28 1.568-.485 2.887-.545M2.705 8.513c-.064 1.408-.08 1.844-.08 5.495 0 3.652.015 4.087.08 5.495m0-10.99v.355m.55 13.535a5.388 5.388 0 001.27 1.95l.007.007.008.008a5.4 5.4 0 001.949 1.27l.01.003c.721.28 1.57.485 2.889.546m-6.133-3.784l-.005-.012c-.28-.72-.485-1.569-.545-2.887m.55 2.9l-.016-.088m-.534-2.813l.021.114m-.021-.114v-.356m.534 3.17l-.513-2.7m.513 2.7c-.218-.576-.442-1.378-.513-2.7m.513 2.7l.023.059a5.377 5.377 0 001.28 1.973 5.375 5.375 0 001.973 1.28c.597.233 1.438.476 2.872.542 1.448.066 1.896.079 5.496.079 3.6 0 4.048-.014 5.496-.08 1.436-.065 2.277-.31 2.872-.54a5.373 5.373 0 001.973-1.281 5.374 5.374 0 001.28-1.972c.233-.597.476-1.439.542-2.873.066-1.448.079-1.896.079-5.496 0-3.6-.014-4.048-.08-5.496-.066-1.444-.312-2.285-.544-2.88a5.364 5.364 0 00-1.278-1.965 5.369 5.369 0 00-1.962-1.277c-.598-.233-1.44-.478-2.882-.545l-.356-.015M2.726 19.617a203.099 203.099 0 01-.022-.47M9.389 1.83c1.408-.065 1.844-.08 5.495-.08 3.65 0 4.087.016 5.495.08m-10.99 0h.356m10.634 0h-.355m.355 0c1.318.06 2.168.266 2.89.545l.01.004c.734.277 1.399.71 1.948 1.27l.008.007.008.008c.56.55.993 1.215 1.27 1.95l.004.012c.28.72.485 1.568.546 2.887M9.744 1.83h10.279m-10.28 0c1.193-.053 1.852-.064 5.14-.064 3.288 0 3.947.011 5.14.064m-10.28 0l-.356.015c-1.436.066-2.277.31-2.872.541a5.372 5.372 0 00-1.98 1.288 5.367 5.367 0 00-1.27 1.957c-.233.597-.478 1.44-.545 2.881l-.015.356m24.357 10.635c-.06 1.32-.266 2.168-.546 2.889l-.004.01a5.39 5.39 0 01-1.27 1.95l-.007.007-.008.008c-.55.56-1.215.993-1.949 1.269l-.012.005c-.72.28-1.569.485-2.887.546m-17.674-7.04c-.053-1.192-.064-1.851-.064-5.139 0-3.288.011-3.947.064-5.14m0 10.28V8.867m9.998 10.403a5.697 5.697 0 104.36-10.526 5.697 5.697 0 00-4.36 10.527zm-1.861-9.304a5.715 5.715 0 118.082 8.083 5.715 5.715 0 01-8.082-8.083zm12.974-3.005a1.636 1.636 0 11-3.271 0 1.636 1.636 0 013.271 0z" stroke="#000" stroke-linejoin="round"/><path d="M2.705 8.513c.06-1.318.266-2.168.545-2.89l.004-.01a5.4 5.4 0 011.27-1.948l.007-.008.008-.008A5.388 5.388 0 016.488 2.38l.013-.005c.72-.28 1.568-.485 2.887-.545M2.705 8.513c-.064 1.408-.08 1.844-.08 5.495 0 3.652.015 4.087.08 5.495m0-10.99v.355m.55 13.535a5.388 5.388 0 001.27 1.95l.007.007.008.008a5.4 5.4 0 001.949 1.27l.01.003c.721.28 1.57.485 2.889.546m-6.133-3.784l-.005-.012c-.28-.72-.485-1.569-.545-2.887m.55 2.9l-.016-.088m-.534-2.813l.021.114m-.021-.114v-.356m.534 3.17l-.513-2.7m.513 2.7c-.218-.576-.442-1.378-.513-2.7m.513 2.7l.023.059a5.377 5.377 0 001.28 1.973 5.375 5.375 0 001.973 1.28c.597.233 1.438.476 2.872.542 1.448.066 1.896.079 5.496.079 3.6 0 4.048-.014 5.496-.08 1.436-.065 2.277-.31 2.872-.54a5.373 5.373 0 001.973-1.281 5.374 5.374 0 001.28-1.972c.233-.597.476-1.439.542-2.873.066-1.448.079-1.896.079-5.496 0-3.6-.014-4.048-.08-5.496-.066-1.444-.312-2.285-.544-2.88a5.364 5.364 0 00-1.278-1.965 5.369 5.369 0 00-1.962-1.277c-.598-.233-1.44-.478-2.882-.545l-.356-.015M2.726 19.617a203.099 203.099 0 01-.022-.47M9.389 1.83c1.408-.065 1.844-.08 5.495-.08 3.65 0 4.087.016 5.495.08m-10.99 0h.356m10.634 0h-.355m.355 0c1.318.06 2.168.266 2.89.545l.01.004c.734.277 1.399.71 1.948 1.27l.008.007.008.008c.56.55.993 1.215 1.27 1.95l.004.012c.28.72.485 1.568.546 2.887M9.744 1.83h10.279m-10.28 0c1.193-.053 1.852-.064 5.14-.064 3.288 0 3.947.011 5.14.064m-10.28 0l-.356.015c-1.436.066-2.277.31-2.872.541a5.372 5.372 0 00-1.98 1.288 5.367 5.367 0 00-1.27 1.957c-.233.597-.478 1.44-.545 2.881l-.015.356m24.357 10.635c-.06 1.32-.266 2.168-.546 2.889l-.004.01a5.39 5.39 0 01-1.27 1.95l-.007.007-.008.008c-.55.56-1.215.993-1.949 1.269l-.012.005c-.72.28-1.569.485-2.887.546m-17.674-7.04c-.053-1.192-.064-1.851-.064-5.139 0-3.288.011-3.947.064-5.14m0 10.28V8.867m9.998 10.403a5.697 5.697 0 104.36-10.526 5.697 5.697 0 00-4.36 10.527zm-1.861-9.304a5.715 5.715 0 118.082 8.083 5.715 5.715 0 01-8.082-8.083zm12.974-3.005a1.636 1.636 0 11-3.271 0 1.636 1.636 0 013.271 0z" stroke="#5C524E" stroke-linejoin="round"/></svg>