<svg width="28" height="28" fill="none" xmlns="http://www.w3.org/2000/svg"><path d="M14 24c-1.4 0-2.708-.262-3.925-.788A10.099 10.099 0 016.9 21.075a9.891 9.891 0 01-2.125-3.188A10.027 10.027 0 014 13.95c0-1.4.258-2.704.775-3.912A9.964 9.964 0 016.9 6.874a9.76 9.76 0 013.175-2.112C11.292 4.253 12.6 4 14 4s2.708.254 3.925.763A9.76 9.76 0 0121.1 6.875a9.97 9.97 0 012.125 3.162c.517 1.209.775 2.513.775 3.913s-.258 2.713-.775 3.938a9.892 9.892 0 01-2.125 3.187c-.9.9-1.958 1.613-3.175 2.137C16.708 23.738 15.4 24 14 24zm0-1.45a8.322 8.322 0 001.463-2.063c.391-.774.712-1.695.962-2.762H11.6c.233 1 .546 1.9.938 2.7.391.8.879 1.508 1.462 2.125zm-2.125-.3A11.95 11.95 0 0110.8 20.2c-.3-.733-.55-1.558-.75-2.475H6.3c.633 1.183 1.367 2.112 2.2 2.787.833.675 1.958 1.255 3.375 1.738zm4.275-.025a9.996 9.996 0 003.238-1.725 8.955 8.955 0 002.312-2.775h-3.725c-.217.9-.47 1.717-.763 2.45a11.348 11.348 0 01-1.062 2.05zm-10.35-6h3.975c-.05-.45-.08-.854-.088-1.213a45.72 45.72 0 01-.012-1.062c0-.417.008-.787.025-1.112.017-.325.05-.688.1-1.088h-4c-.117.4-.196.758-.237 1.075A8.761 8.761 0 005.5 13.95c0 .433.02.82.063 1.163.041.341.12.712.237 1.112zm5.525 0H16.7c.067-.517.108-.938.125-1.263a19.748 19.748 0 000-1.974 17.601 17.601 0 00-.125-1.238h-5.375c-.067.517-.108.93-.125 1.238a19.748 19.748 0 000 1.975c.017.325.058.745.125 1.262zm6.875 0h4c.117-.4.196-.77.238-1.113a9.68 9.68 0 00.062-1.162c0-.433-.02-.808-.063-1.125a7.289 7.289 0 00-.237-1.075h-3.975c.05.583.083 1.03.1 1.338.017.308.025.595.025.862 0 .367-.013.713-.038 1.038-.024.325-.062.737-.112 1.237zm-.25-5.975h3.75a8.1 8.1 0 00-2.262-2.875 8.62 8.62 0 00-3.313-1.625c.417.617.77 1.283 1.063 2 .291.717.545 1.55.762 2.5zm-6.35 0h4.85a9.75 9.75 0 00-.925-2.563A10.227 10.227 0 0014 5.5c-.533.45-.983 1.042-1.35 1.775-.367.733-.717 1.725-1.05 2.975zm-5.3 0h3.775c.183-.9.417-1.704.7-2.412a11.87 11.87 0 011.075-2.063c-1.25.317-2.342.85-3.275 1.6-.933.75-1.692 1.708-2.275 2.875z" fill="#000"/></svg>