<svg width="171" height="29" fill="none" xmlns="http://www.w3.org/2000/svg"><g clip-path="url(#clip0_289_58)"><path d="M154.588 22.206c0 1.09.094 1.899.282 2.425.225.527.62.903 1.184 1.128.602.226 1.485.339 2.651.339h3.722c1.993 0 3.572-.62 4.738-1.862 1.203-1.24 2.011-2.951 2.425-5.132 0-.075.075-.113.226-.113a.64.64 0 01.282.057c.112.037.169.094.169.169-.263 1.73-.395 4.042-.395 6.937 0 .3-.075.526-.226.677-.112.113-.319.169-.62.169h-22.052c-.075 0-.113-.113-.113-.338 0-.226.038-.339.113-.339 1.241 0 2.143-.094 2.707-.282.564-.188.94-.545 1.128-1.071.188-.564.282-1.41.282-2.538V5.174c0-1.128-.113-1.956-.338-2.482-.188-.526-.564-.884-1.128-1.072-.564-.225-1.448-.338-2.651-.338-.075 0-.113-.113-.113-.338 0-.226.038-.339.113-.339l2.538.057c1.429.075 2.538.112 3.327.112.94 0 2.125-.037 3.554-.112l2.368-.057c.113 0 .17.113.17.339 0 .225-.057.338-.17.338-1.24 0-2.143.113-2.707.338-.564.188-.959.564-1.184 1.128-.188.527-.282 1.354-.282 2.482v16.976zm-11.706-2.386c0-.113.093-.17.281-.17.225 0 .337.057.337.17-.262 2.697-.394 4.908-.394 6.632 0 .3-.056.525-.168.675-.113.112-.337.168-.675.168H121.69c-.075 0-.112-.112-.112-.337 0-.225.037-.337.112-.337 1.237 0 2.136-.094 2.698-.281.562-.188.937-.544 1.124-1.068.225-.562.338-1.405.338-2.53v-17.2c0-1.125-.113-1.949-.338-2.474-.187-.524-.562-.88-1.124-1.068-.562-.224-1.461-.337-2.698-.337-.075 0-.112-.112-.112-.337 0-.225.037-.337.112-.337h19.562c.374 0 .562.15.562.45l.056 3.484c.037.712.056 1.612.056 2.699 0 .112-.112.168-.337.168-.225 0-.337-.056-.337-.168-.15-1.724-.787-3.13-1.912-4.216-1.086-1.125-2.435-1.687-4.047-1.687h-1.574c-1.311 0-2.267.113-2.867.338-.599.187-1.011.543-1.236 1.068-.225.524-.337 1.349-.337 2.473v7.7c3.635-.037 6.108-.13 7.419-.28 1.349-.188 2.118-.281 2.305-.281.187 0 .281.393.281 1.18 0 .862-.094 1.293-.281 1.293-.15 0-.899-.094-2.248-.281-1.349-.225-3.841-.375-7.476-.45v8.038c0 1.087.112 1.912.337 2.474.225.524.637.9 1.236 1.124.638.187 1.593.281 2.867.281h2.698c1.499 0 2.848-.6 4.048-1.799 1.199-1.236 2.004-2.829 2.417-4.778zm-29.264 3.476c0 1.19.096 2.053.288 2.59.23.538.633.903 1.209 1.095.576.192 1.516.288 2.821.288.077 0 .115.115.115.345 0 .23-.038.345-.115.345-1.075 0-1.919-.019-2.533-.057l-3.628-.058-3.397.058c-.652.038-1.535.057-2.648.057-.077 0-.115-.115-.115-.345 0-.23.038-.345.115-.345 1.305 0 2.245-.096 2.821-.288.576-.192.96-.557 1.152-1.094.23-.538.345-1.401.345-2.591V5.677c0-1.151-.115-1.996-.345-2.533-.192-.538-.595-.902-1.21-1.094-.575-.23-1.497-.346-2.763-.346-.077 0-.115-.115-.115-.345 0-.23.038-.345.115-.345l2.648.057c1.382.077 2.515.115 3.397.115.998 0 2.227-.038 3.685-.115l2.476-.057c.077 0 .115.115.115.345 0 .23-.038.345-.115.345-1.228 0-2.149.116-2.764.346-.614.23-1.036.633-1.266 1.209-.192.537-.288 1.382-.288 2.533v17.504zM66.727 6.808c0 1.1.275 2.072.825 2.916a8.101 8.101 0 002.146 2.036c.844.55 1.963 1.192 3.356 1.925 1.504.807 2.715 1.523 3.632 2.146a7.963 7.963 0 012.31 2.256c.624.917.936 2.018.936 3.301a6.532 6.532 0 01-1.155 3.742c-.734 1.1-1.798 1.98-3.192 2.64-1.393.661-3.026.991-4.896.991-2.678 0-4.897-.642-6.658-1.925a.696.696 0 01-.385-.33 6.045 6.045 0 01-.11-.716l-.55-5.447c-.037-.147.036-.238.22-.275.22-.037.366.018.44.165.513 2.127 1.522 3.943 3.026 5.447 1.54 1.467 3.246 2.201 5.117 2.201 1.284 0 2.384-.367 3.301-1.1.954-.77 1.43-1.944 1.43-3.522 0-1.687-.55-3.063-1.65-4.127-1.1-1.063-2.696-2.145-4.787-3.246-1.467-.807-2.64-1.504-3.521-2.09a8.968 8.968 0 01-2.146-2.256c-.587-.88-.88-1.945-.88-3.192 0-2.09.807-3.723 2.42-4.897 1.615-1.173 3.577-1.76 5.888-1.76 1.944 0 3.778.421 5.502 1.265.33.184.532.33.605.44.11.074.184.239.22.496l.386 4.786c0 .147-.11.239-.33.276-.184.036-.294-.019-.33-.166-.184-.917-.606-1.852-1.266-2.806a7.976 7.976 0 00-2.476-2.476 5.823 5.823 0 00-3.301-.99c-1.321 0-2.348.403-3.082 1.21-.697.807-1.045 1.835-1.045 3.082zm21.6 0c0 1.1.275 2.072.826 2.916a8.103 8.103 0 002.145 2.036c.844.55 1.963 1.192 3.357 1.925 1.504.807 2.714 1.523 3.631 2.146a7.961 7.961 0 012.311 2.256c.624.917.935 2.018.935 3.301a6.533 6.533 0 01-1.155 3.742c-.734 1.1-1.797 1.98-3.191 2.64-1.394.661-3.026.991-4.897.991-2.678 0-4.897-.642-6.658-1.925a.696.696 0 01-.385-.33 6.066 6.066 0 01-.11-.716l-.55-5.447c-.037-.147.037-.238.22-.275.22-.037.367.018.44.165.514 2.127 1.522 3.943 3.026 5.447 1.54 1.467 3.246 2.201 5.117 2.201 1.284 0 2.385-.367 3.302-1.1.953-.77 1.43-1.944 1.43-3.522 0-1.687-.55-3.063-1.65-4.127-1.101-1.063-2.697-2.145-4.787-3.246-1.468-.807-2.641-1.504-3.522-2.09a8.968 8.968 0 01-2.146-2.256c-.587-.88-.88-1.945-.88-3.192 0-2.09.807-3.723 2.421-4.897 1.614-1.173 3.576-1.76 5.887-1.76 1.944 0 3.778.421 5.502 1.265.33.184.532.33.606.44.11.074.183.239.22.496l.385 4.786c0 .147-.11.239-.33.276-.184.036-.294-.019-.33-.166-.184-.917-.606-1.852-1.266-2.806a7.975 7.975 0 00-2.476-2.476c-.99-.66-2.09-.99-3.301-.99-1.32 0-2.348.403-3.081 1.21-.697.807-1.046 1.835-1.046 3.082zM60.276 27.515c.147 0 .221.11.221.331 0 .222-.074.332-.221.332-.664 0-1.733-.037-3.207-.11-1.475-.074-2.544-.111-3.207-.111-.59 0-1.364.037-2.323.11-.958.074-1.696.111-2.212.111-.147 0-.22-.11-.22-.332 0-.22.073-.331.22-.331.959 0 1.66-.11 2.102-.332.479-.258.718-.7.718-1.327 0-.553-.22-1.327-.663-2.323l-3.76-8.073h-7.742l-2.377 5.917c-.59 1.4-.885 2.562-.885 3.483 0 .959.332 1.64.995 2.046.664.406 1.677.609 3.041.609.185 0 .277.11.277.331 0 .222-.092.332-.277.332a31.26 31.26 0 01-2.267-.11 40.554 40.554 0 00-2.875-.111c-.922 0-2.01.037-3.263.11-1.106.074-1.99.111-2.654.111-.184 0-.276-.11-.276-.332 0-.22.092-.331.276-.331 1.143 0 2.046-.148 2.71-.443.663-.331 1.272-.958 1.824-1.88.59-.921 1.29-2.36 2.102-4.313L44.295 1.47c.074-.147.185-.221.332-.221.148 0 .24.074.277.221l8.902 19.133c.959 2.064 1.715 3.557 2.268 4.479.59.921 1.18 1.566 1.769 1.935.627.332 1.438.498 2.433.498zm-19.907-13.05h6.912l-3.704-7.963-3.208 7.963z" fill="#000"/><mask id="mask0_289_58" style="mask-type:luminance" maskUnits="userSpaceOnUse" x="0" y="0" width="171" height="29"><path d="M0 0h171v29H0V0z" fill="#fff"/></mask><g mask="url(#mask0_289_58)"><path fill-rule="evenodd" clip-rule="evenodd" d="M4.955 15.778c0-.002-3.51 2.206-3.51 2.206s-.043-.17-.135-.614a13.251 13.251 0 01-.307-2.762c-.044-1.869.403-3.377.403-3.377l3.55 2.207c-.001 0-.154 1.176-.001 2.34zm21.2-6.408c-.137-.528-.585-2.228-1.496-3.492-.452-.687-.97-1.308-1.9-2.052-1.077-.771-1.4-.846-1.4-.846s-1.701-1.084-5.104-1.15a9.21 9.21 0 00-4.183.864c-.765.358-1.189.69-1.189.69s-1.141.739-1.937 1.707c-.796.97-1.308 1.75-1.746 2.725-.425 1.039-.496 1.135-.71 1.976-.215.84-.362 1.679-.384 1.995L2.902 9.792s.477-1.2.96-1.938c.482-.739 1.052-1.552 1.765-2.302.936-.929 2.093-1.846 3.184-2.417a14.106 14.106 0 012.648-1.21c.91-.307 2.427-.76 4.681-.9 2.178-.122 4.858.226 6.504.613 1.512.329 2.587.796 2.955.96.304.156.479.325.479.325s.125.17.154.461l.575 5.89s-.247.336-.652.096zm-17.69 6.56v-2.667l2.13 1.324-2.13 1.343zm18.457 6.85c-.079.76-.318 2.702-.344 2.915-.028.214-.074.415-.174.576-.1.16-.633.403-.633.403s-.504.19-1.899.576c-3.442.937-6.304.884-7.214.901-.972-.017-2.644-.108-4.394-.518-1.74-.419-3.116-1.002-4.834-2.206-1.955-1.537-2.576-2.261-3.703-4.202-.432-.774-.787-1.803-.787-1.803l3.435-2.168s.265 1.172.48 1.745C7.28 20.38 8.1 22.16 9.08 23.28c1.344 1.7 2.42 2.295 2.878 2.61 1.781 1.038 2.856 1.249 4.508 1.438 1.548.09 2.434.041 3.972-.345 1.244-.402 1.744-.736 2.513-1.247.91-.717 1.293-1.201 1.727-1.765.54-.752.67-1.063 1.017-1.707.517-1.056.943-2.536.959-2.572.016-.036.066-.097.249-.096.145-.01.384.172.393.168-.006.052-.285 2.493-.374 3.017z" fill="#000"/></g></g><defs><clipPath id="clip0_289_58"><path fill="#fff" d="M0 0h171v29H0z"/></clipPath></defs></svg>