<svg width="109" height="69" fill="none" xmlns="http://www.w3.org/2000/svg"><g clip-path="url(#clip0_289_59)"><mask id="mask0_289_59" style="mask-type:luminance" maskUnits="userSpaceOnUse" x="-109" y="-68" width="322" height="208"><path d="M-109-68h321.26v207.875H-109V-68z" fill="#fff"/></mask><g mask="url(#mask0_289_59)" fill="#2A2A29"><path d="M65.513 39.662h21.006l.81 2.1H63.667l1.846-2.1zm42.82 28.211c0 .467-.154.699-.462.699-1.384 0-3.616-.075-6.694-.232-3.076-.156-5.307-.235-6.69-.235-1.236 0-2.852.079-4.85.235-2.003.157-3.542.232-4.618.232-.308 0-.46-.232-.46-.699 0-.465.152-.7.46-.7 2.078 0 3.598-.252 4.56-.757.962-.506 1.442-1.378 1.442-2.624 0-1.086-.5-2.755-1.5-5.012L71.978 20.544l3.001-2.564L60.55 54.236c-1.23 2.953-1.845 5.401-1.845 7.34 0 2.025.69 3.462 2.078 4.316 1.384.857 3.5 1.281 6.346 1.281.386 0 .577.235.577.7 0 .467-.19.699-.577.699-1.155 0-2.73-.075-4.732-.232a83.432 83.432 0 00-6.002-.235c-1.924 0-4.193.079-6.81.235-2.308.157-4.155.232-5.539.232-.384 0-.577-.232-.577-.699 0-.465.193-.7.577-.7 2.384 0 4.27-.33 5.655-.99 1.386-.658 2.673-1.96 3.866-3.907 1.192-1.939 2.636-4.97 4.328-9.092l16.623-40.918c.153-.309.383-.465.69-.465.307 0 .5.156.578.465L94.37 52.602c2 4.354 3.597 7.5 4.79 9.442 1.192 1.942 2.423 3.282 3.694 4.021 1.268.74 2.941 1.108 5.018 1.108.308 0 .462.235.462.7z"/><path fill-rule="evenodd" clip-rule="evenodd" d="M8.463 31.672c0-.004-7.365 4.628-7.365 4.628s-.09-.358-.282-1.288a27.885 27.885 0 01-.644-5.792c-.092-3.923.846-7.087.846-7.087l7.445 4.63s-.321 2.466 0 4.909zm44.472-13.443c-.29-1.107-1.228-4.675-3.14-7.324-.945-1.443-2.032-2.744-3.984-4.307-2.26-1.616-2.939-1.77-2.939-1.77s-3.568-2.274-10.704-2.415a19.334 19.334 0 00-8.774 1.81c-1.606.755-2.495 1.45-2.495 1.45s-2.395 1.55-4.065 3.581c-1.67 2.034-2.743 3.67-3.662 5.716-.892 2.18-1.04 2.38-1.489 4.146-.45 1.764-.759 3.521-.805 4.185l-6.722-4.185s1-2.516 2.014-4.066c1.012-1.549 2.206-3.256 3.702-4.829 1.964-1.95 4.394-3.873 6.68-5.07a29.825 29.825 0 015.555-2.537c1.91-.646 5.09-1.597 9.819-1.892C36.494.47 42.115 1.2 45.57 2.01c3.172.692 5.426 1.671 6.197 2.014.637.328 1.007.684 1.007.684s.261.354.321.965c.061.61 1.208 12.356 1.208 12.356s-.517.704-1.368.2zM15.828 31.993V26.4l4.467 2.777-4.467 2.816zm38.716 14.368c-.165 1.596-.666 5.67-.724 6.117-.058.448-.153.871-.362 1.208-.21.336-1.328.846-1.328.846s-1.059.397-3.984 1.206c-7.223 1.967-13.224 1.856-15.134 1.892-2.04-.036-5.545-.226-9.216-1.086-3.649-.88-6.538-2.102-10.141-4.63-4.1-3.224-5.403-4.742-7.768-8.813-.905-1.624-1.65-3.783-1.65-3.783l7.205-4.548s.557 2.46 1.005 3.663c.89 2.892 2.613 6.625 4.67 8.975 2.818 3.566 5.075 4.814 6.035 5.473 3.739 2.179 5.992 2.621 9.459 3.019 3.244.185 5.105.085 8.33-.724 2.611-.844 3.658-1.546 5.273-2.616 1.906-1.506 2.713-2.522 3.621-3.703 1.133-1.579 1.407-2.23 2.133-3.583 1.086-2.214 1.98-5.317 2.012-5.392.034-.076.139-.206.524-.201.303-.023.804.359.824.35-.013.111-.597 5.23-.784 6.33z"/></g></g><defs><clipPath id="clip0_289_59"><path fill="#fff" d="M0 0h109v69H0z"/></clipPath></defs></svg>