<svg width="28" height="28" fill="none" xmlns="http://www.w3.org/2000/svg"><path d="M9.02 24c-.51 0-.943-.175-1.3-.526a1.722 1.722 0 01-.536-1.276c0-.5.178-.926.535-1.277.358-.35.791-.526 1.301-.526.51 0 .944.176 1.301.526.358.35.536.776.536 1.277 0 .5-.178.926-.536 1.276-.357.35-.79.526-1.3.526zm10.204 0c-.51 0-.943-.175-1.3-.526a1.721 1.721 0 01-.536-1.276c0-.5.178-.926.535-1.277.358-.35.791-.526 1.302-.526.51 0 .943.176 1.3.526.358.35.536.776.536 1.277 0 .5-.178.926-.535 1.276-.358.35-.791.526-1.302.526zM7.694 7.48l2.806 5.707h7.347l3.189-5.708H7.694zm-.765-1.503h15.025c.391 0 .689.176.893.526a.98.98 0 010 1.051l-3.444 6.083c-.187.317-.43.572-.727.763a1.776 1.776 0 01-.982.288h-7.73l-1.428 2.604H21.06v1.502H8.765c-.714 0-1.228-.234-1.543-.701-.315-.468-.31-.993.013-1.577l1.632-2.954-3.877-8.06H3V4h2.985l.944 1.977z" fill="#000"/></svg>