<svg width="28" height="28" fill="none" xmlns="http://www.w3.org/2000/svg"><path d="M22.778 24l-7.306-7.306a6.12 6.12 0 01-1.944 1.125 6.873 6.873 0 01-2.361.403c-2 0-3.695-.694-5.084-2.083C4.694 14.75 4 13.074 4 11.11c0-1.963.694-3.639 2.083-5.028C7.473 4.694 9.157 4 11.14 4c1.963 0 3.634.694 5.014 2.083 1.38 1.39 2.07 3.065 2.07 5.028 0 .796-.13 1.565-.39 2.306a7.05 7.05 0 01-1.166 2.083L24 22.778 22.778 24zm-11.64-7.444c1.5 0 2.779-.533 3.834-1.598 1.056-1.065 1.584-2.347 1.584-3.847s-.528-2.782-1.584-3.847c-1.055-1.065-2.333-1.597-3.833-1.597-1.519 0-2.81.532-3.875 1.597S5.667 9.61 5.667 11.11s.532 2.782 1.597 3.847 2.356 1.598 3.875 1.598z" fill="#000"/></svg>