<svg width="1171" height="1180" fill="none" xmlns="http://www.w3.org/2000/svg"><g clip-path="url(#clip0_2313_152)" fill="#000"><path d="M507.134 2.467c-56 5.466-103.467 23.866-146.134 56.266-55.6 42.4-90.133 94-106.8 159.867-7.467 29.867-9.867 50.533-9.867 87.6 0 37.333 2 52.4 10.8 83.867C273 453.133 316.733 529.4 374.2 597.533c5.2 6.134 11.6 13.734 14.134 16.8 25.066 30.267 87.6 94.4 122 125.067 18.933 16.933 19.733 17.2 31.066 7.733 22.8-18.933 81.067-77.2 113.867-113.733 77.067-85.867 126.533-165.067 148.4-237.6 10-33.2 11.6-44.4 12.267-83.2.666-37.067-.534-51.333-6.534-80.267C792.734 152.6 749.8 90.467 680.334 45.4c-29.2-19.067-66-33.467-100.8-39.6-8.934-1.6-47.6-5.6-51.867-5.333-1.467.133-10.667 1.066-20.533 2zM553 45.533C637.934 52.6 712.2 105 750.067 184.333c9.333 19.467 13.733 32 18.8 52.667 2.933 12.4 3.733 17.867 7.467 48.533 3.866 32.267-1.467 70.134-15.6 110-19.2 54.134-58.8 118.267-112.8 182.4-28.534 34-33.6 39.334-72.534 78.667-39.466 39.867-41.733 41.467-50.266 37.867-4.134-1.867-52.934-50.534-74.267-74.134-89.333-99.066-142.667-184.133-160.4-256-8.934-36-9.6-64.8-2.534-108 11.867-73.2 51.467-134.666 112.401-174.666 43.2-28.267 96-40.8 152.666-36.134z"/><path d="M471.533 240.333c-14.266 3.067-30.4 15.467-37.6 29.067-10.533 19.867-8.533 45.6 5.467 66.533 8.933 13.467 29.467 35.334 58.8 62.934 30.533 28.8 32.133 29.866 36.267 27.733 4.933-2.667 51.866-47.2 67.6-64.267 23.6-25.6 32.133-41.2 33.866-62.133 2-23.2-11.6-45.733-33.866-56.267-8.534-4-9.867-4.266-23.734-4.133-16.8 0-23.6 2.133-36.666 11.2-4.134 2.933-8.534 5.333-9.734 5.333-1.2 0-5.866-2.4-10.266-5.466-4.4-3.067-11.2-6.667-14.934-8.134-8-2.933-26.666-4.266-35.2-2.4z"/><path d="M951.667 309.267c-35.6 4.933-66.8 32.4-76.134 67.066-1.466 5.734-2.266 13.6-2.266 23.334 0 17.466 2.4 27.6 10 42.266 10.4 20 29.466 36.4 51.6 44.267 10.4 3.6 13.066 4 28.133 4.133 13.867 0 18.4-.533 26.667-3.066 14.003-4.4 24.663-10.667 36.803-21.734 8.53-7.733 10.93-9.333 13.73-8.8 3.07.667 88.93 41.2 90.53 42.8.27.4 1.07 3.334 1.74 6.4 1.33 6.8 1.33 172.267 0 177.067-1.74 6.4-5.74 5.067-49.6-15.733-37.74-18-132.537-63.067-213.603-101.734C834.333 549 830.6 547.667 823 549.667c-7.867 2.133-12 8.266-12 18 0 6.933.4 8 4.4 11.866 2.8 2.534 22.533 12.8 51.733 26.667C952.2 646.867 1032.2 685 1081 708.2c26.4 12.667 48.93 23.867 50 24.933 1.73 1.734 2 13.334 2.4 85.6.13 46-.13 86-.8 88.934-.8 4-1.73 5.466-4 5.733-2.53.4-40.8-17.6-257.467-120.8-20.933-9.867-39.466-18-41.333-18-2 0-25.333 8.4-52.133 18.667-26.8 10.4-114.934 44.4-195.867 75.6-80.933 31.2-148.933 56.8-151.067 56.8-2.133 0-32-10.4-66.133-23.2C92.067 800.867 43.4 782.467 41 780.2c-2.667-2.533-2.667-4.4-2.667-91.333 0-97.067-.4-92.134 7.734-90.534 2.133.4 55.2 19.867 117.866 43.334 129.334 48.4 124.4 47.066 133.867 37.466 4.667-4.533 5.2-5.866 5.2-11.6 0-7.866-3.467-14.133-9.467-17.2-2.266-1.2-58-22.266-123.733-46.933-65.733-24.533-121.867-45.733-124.933-46.933-4.667-2.134-5.6-3.2-6.267-7.6-1.2-6.934-.933-174.934.267-179.067 1.866-6.667 3.333-6.4 37.466 6.4 18 6.667 34.8 12.533 37.467 12.933 6.267 1.067 14-2.533 17.333-8 5.467-8.933 2-22.266-7.066-26.933-9.734-5.067-113.867-43.2-118-43.2-3.734 0-4.4.533-5.067 4.267-1.467 8-.133 695.463 1.333 696.933.8.67 96.134 36.8 212 80.13 201.334 75.34 210.934 78.8 218 78.27 5.734-.4 50.4-17.2 198-74.27 104.934-40.53 193.067-74 196.134-74.26 5.866-.8-9.734-7.87 267.463 124.13 39.47 18.8 72.54 34.13 73.6 34.13.94 0 2.14-1.33 2.67-3.06 1.2-4.54.93-693.07-.27-697.603-1.33-4.667 2.27-2.8-62.13-33.334-27.2-12.933-50-24-50.93-24.8-.94-.8-1.74-8-2.27-20.266-.93-28.667-7.33-45.2-24-63.2-20.8-22.134-50-32.8-78.933-28.8zm18.666 572.4C1044.47 917 1110.47 948.467 1117 951.533c6.67 3.2 12.93 6.8 14 8.134 1.73 2.133 2 12.933 2 79.333 0 83.6.13 82.13-7.07 80-2-.53-68.53-32-147.997-69.87-86.8-41.33-146-68.797-148.266-68.797-2.134 0-39.467 13.734-82.934 30.537-120 46.4-226.533 87.46-271.333 104.66-24.133 9.2-42.267 15.47-45.067 15.47-2.933 0-46.133-15.47-113.733-40.8C71.8 998.733 43.4 988.067 41.8 987.133c-.933-.666-2.267-3.466-2.8-6.266-1.467-5.867-1.867-145.867-.533-152.4.8-3.467 1.466-4.134 4.933-4.134 2.133 0 41.467 14 87.467 31.2 45.866 17.2 130.933 48.934 188.933 70.667 74.267 27.867 107.067 39.467 110.8 39.467 5.6 0 27.467-8.267 283.067-107.2 99.6-38.534 109.2-42.134 115.333-41.6 5.467.4 30 11.6 141.333 64.8z"/></g><defs><clipPath id="clip0_2313_152"><path fill="#fff" d="M0 0h1171v1180H0z"/></clipPath></defs></svg>