<svg width="28" height="28" fill="none" xmlns="http://www.w3.org/2000/svg"><path d="M14 3.733a8.171 8.171 0 00-5.711 2.313 7.81 7.81 0 00-2.366 5.585v1.58h1.615c.429 0 .84.166 1.143.462.303.296.473.698.473 1.117v4.738c0 .42-.17.82-.473 1.117a1.634 1.634 0 01-1.143.463H5.923c-.428 0-.84-.167-1.142-.463a1.562 1.562 0 01-.473-1.117v-7.897c0-1.245.25-2.477.737-3.627A9.466 9.466 0 017.146 4.93a9.71 9.71 0 013.145-2.055 9.884 9.884 0 017.418 0 9.71 9.71 0 013.144 2.055 9.46 9.46 0 012.101 3.074 9.294 9.294 0 01.738 3.627v9.477A3.904 3.904 0 0122.51 23.9a4.086 4.086 0 01-2.855 1.156h-3.448c-.141.24-.345.44-.59.578a1.644 1.644 0 01-.808.212h-1.616c-.428 0-.84-.166-1.142-.462a1.562 1.562 0 01-.473-1.117c0-.42.17-.821.473-1.117a1.634 1.634 0 011.142-.463h1.616c.283 0 .562.073.807.212.246.138.45.338.591.578h3.448c.642 0 1.259-.25 1.713-.694a2.34 2.34 0 00.71-1.675H20.46c-.428 0-.839-.167-1.142-.463a1.562 1.562 0 01-.473-1.117V14.79c0-.42.17-.82.473-1.117a1.634 1.634 0 011.143-.463h1.615v-1.58a7.745 7.745 0 00-.615-3.021 7.888 7.888 0 00-1.75-2.563 8.091 8.091 0 00-2.621-1.712 8.236 8.236 0 00-3.091-.6z" stroke="#000" stroke-width=".8"/><path d="M14 3.733a8.171 8.171 0 00-5.711 2.313 7.81 7.81 0 00-2.366 5.585v1.58h1.615c.429 0 .84.166 1.143.462.303.296.473.698.473 1.117v4.738c0 .42-.17.82-.473 1.117a1.634 1.634 0 01-1.143.463H5.923c-.428 0-.84-.167-1.142-.463a1.562 1.562 0 01-.473-1.117v-7.897c0-1.245.25-2.477.737-3.627A9.466 9.466 0 017.146 4.93a9.71 9.71 0 013.145-2.055 9.884 9.884 0 017.418 0 9.71 9.71 0 013.144 2.055 9.46 9.46 0 012.101 3.074 9.294 9.294 0 01.738 3.627v9.477A3.904 3.904 0 0122.51 23.9a4.086 4.086 0 01-2.855 1.156h-3.448c-.141.24-.345.44-.59.578a1.644 1.644 0 01-.808.212h-1.616c-.428 0-.84-.166-1.142-.462a1.562 1.562 0 01-.473-1.117c0-.42.17-.821.473-1.117a1.634 1.634 0 011.142-.463h1.616c.283 0 .562.073.807.212.246.138.45.338.591.578h3.448c.642 0 1.259-.25 1.713-.694a2.34 2.34 0 00.71-1.675H20.46c-.428 0-.839-.167-1.142-.463a1.562 1.562 0 01-.473-1.117V14.79c0-.42.17-.82.473-1.117a1.634 1.634 0 011.143-.463h1.615v-1.58a7.745 7.745 0 00-.615-3.021 7.888 7.888 0 00-1.75-2.563 8.091 8.091 0 00-2.621-1.712 8.236 8.236 0 00-3.091-.6z" stroke="#5C524E" stroke-width=".8"/></svg>