<svg width="28" height="28" fill="none" xmlns="http://www.w3.org/2000/svg"><path d="M19.975 5.59a5.738 5.738 0 01-1.474-3.84h-1.153m2.627 3.84a6.021 6.021 0 003.267 1.888c.402.086.821.131 1.258.131v4.21c-2.236 0-4.31-.7-5.999-1.883v8.56c0 4.278-3.564 7.754-7.938 7.754a8.014 8.014 0 01-5.806-2.474c-1.322-1.388-2.132-3.243-2.132-5.28 0-4.214 3.46-7.65 7.746-7.741m9.604-5.165a5.325 5.325 0 01-.067-.044m-12.28 15.01a3.446 3.446 0 01-.687-2.065c0-1.951 1.625-3.538 3.622-3.538.373 0 .734.062 1.072.165v-4.3a8.242 8.242 0 00-1.072-.075c-.064 0-.58.034-.644.034m7.423-9.027h-3.156l-.006 16.878c-.07 1.888-1.666 3.407-3.617 3.407a3.667 3.667 0 01-2.941-1.473" stroke="#000" stroke-linejoin="round"/><path d="M19.975 5.59a5.738 5.738 0 01-1.474-3.84h-1.153m2.627 3.84a6.021 6.021 0 003.267 1.888c.402.086.821.131 1.258.131v4.21c-2.236 0-4.31-.7-5.999-1.883v8.56c0 4.278-3.564 7.754-7.938 7.754a8.014 8.014 0 01-5.806-2.474c-1.322-1.388-2.132-3.243-2.132-5.28 0-4.214 3.46-7.65 7.746-7.741m9.604-5.165a5.325 5.325 0 01-.067-.044m-12.28 15.01a3.446 3.446 0 01-.687-2.065c0-1.951 1.625-3.538 3.622-3.538.373 0 .734.062 1.072.165v-4.3a8.242 8.242 0 00-1.072-.075c-.064 0-.58.034-.644.034m7.423-9.027h-3.156l-.006 16.878c-.07 1.888-1.666 3.407-3.617 3.407a3.667 3.667 0 01-2.941-1.473" stroke="#5C524E" stroke-linejoin="round"/></svg>