<svg width="28" height="28" fill="none" xmlns="http://www.w3.org/2000/svg"><path d="M14 13.662c-1.375 0-2.5-.451-3.375-1.353-.875-.902-1.313-2.061-1.313-3.478 0-1.417.438-2.577 1.313-3.478C11.5 4.45 12.625 4 14 4s2.5.45 3.375 1.353c.875.901 1.313 2.06 1.313 3.478 0 1.417-.438 2.576-1.313 3.478-.875.902-2 1.353-3.375 1.353zM4 24v-3.027c0-.816.198-1.514.594-2.094.396-.58.906-1.02 1.531-1.32 1.396-.644 2.734-1.127 4.016-1.45A15.774 15.774 0 0114 15.627c1.292 0 2.573.167 3.844.5 1.27.332 2.604.81 4 1.433.646.3 1.166.74 1.562 1.32.396.58.594 1.278.594 2.094V24H4zm1.875-1.932h16.25v-1.095c0-.344-.099-.671-.297-.983a1.904 1.904 0 00-.734-.692c-1.334-.666-2.552-1.122-3.657-1.369A15.708 15.708 0 0014 17.56c-1.188 0-2.344.123-3.469.37s-2.344.703-3.656 1.369c-.292.15-.531.381-.719.692a1.875 1.875 0 00-.281.983v1.095zM14 11.729c.813 0 1.484-.273 2.016-.82.53-.548.797-1.24.797-2.078 0-.837-.266-1.53-.797-2.077-.532-.548-1.203-.822-2.016-.822s-1.484.274-2.016.822c-.53.547-.796 1.24-.796 2.077s.265 1.53.796 2.077c.532.548 1.204.822 2.016.822z" fill="#000"/></svg>