<svg width="48" height="48" viewBox="0 0 48 48" fill="none" xmlns="http://www.w3.org/2000/svg">
<path fill-rule="evenodd" clip-rule="evenodd" d="M18.7253 7.07692C15.2052 7.07692 12.3516 9.93049 12.3516 13.4506C12.3516 16.9706 15.2052 19.8242 18.7253 19.8242C22.2453 19.8242 25.0989 16.9706 25.0989 13.4506C25.0989 9.93049 22.2453 7.07692 18.7253 7.07692ZM9.27472 13.4506C9.27472 8.23116 13.5059 4 18.7253 4C23.9447 4 28.1758 8.23116 28.1758 13.4506C28.1758 18.6699 23.9447 22.9011 18.7253 22.9011C13.5059 22.9011 9.27472 18.6699 9.27472 13.4506Z" fill="#181818"/>
<path fill-rule="evenodd" clip-rule="evenodd" d="M14.8231 30.8132C10.545 30.8132 7.07692 34.2812 7.07692 38.5593C7.07692 38.7722 7.11364 38.9193 7.15052 39.0025C7.18023 39.0696 7.20212 39.0823 7.21182 39.088C8.26705 39.7082 11.3027 40.9231 18.7253 40.9231C26.1479 40.9231 29.1826 39.7087 30.2378 39.0885C30.2475 39.0829 30.2703 39.0696 30.3 39.0025C30.3369 38.9193 30.3736 38.7722 30.3736 38.5593C30.3736 34.2812 26.9056 30.8132 22.6275 30.8132H14.8231ZM4 38.5593C4 32.5819 8.84565 27.7363 14.8231 27.7363H22.6275C28.6049 27.7363 33.4505 32.5819 33.4505 38.5593C33.4505 39.5889 33.1026 40.9738 31.7969 41.7412C30.0761 42.7525 26.4178 44 18.7253 44C11.0328 44 7.37444 42.7525 5.65366 41.7412C4.34795 40.9738 4 39.5889 4 38.5593Z" fill="#181818"/>
<path fill-rule="evenodd" clip-rule="evenodd" d="M31.0863 7.77442C31.3079 6.95418 32.1526 6.46896 32.9728 6.69065C36.3664 7.60784 38.7253 10.959 38.7253 14.7692C38.7253 18.7953 35.9658 22.4252 32.0956 22.8901C31.252 22.9915 30.4859 22.3897 30.3846 21.5461C30.2833 20.7025 30.885 19.9365 31.7286 19.8352C33.7924 19.5872 35.6484 17.5148 35.6484 14.7692C35.6484 12.1643 34.0511 10.1694 32.17 9.661C31.3498 9.43931 30.8646 8.59466 31.0863 7.77442Z" fill="#181818"/>
<path fill-rule="evenodd" clip-rule="evenodd" d="M35.6768 28.9802C35.8394 28.1463 36.6474 27.6021 37.4813 27.7647C41.2674 28.5031 44 31.8201 44 35.6775V36.7469C44 37.6938 43.7159 39.0424 42.4808 39.8319C41.6493 40.3634 40.3596 40.9298 38.371 41.3321C37.5382 41.5006 36.7265 40.962 36.558 40.1292C36.3895 39.2965 36.9281 38.4848 37.7609 38.3163C39.4573 37.973 40.3742 37.5266 40.8236 37.2394L40.8273 37.2359C40.8306 37.2316 40.8426 37.2154 40.8575 37.1791C40.8902 37.0995 40.9231 36.9569 40.9231 36.7469V35.6775C40.9231 33.2923 39.2334 31.2413 36.8923 30.7847C36.0584 30.6221 35.5142 29.8142 35.6768 28.9802Z" fill="#181818"/>
</svg>
