<svg width="45" height="45" viewBox="0 0 45 45" fill="none" xmlns="http://www.w3.org/2000/svg">
<path fill-rule="evenodd" clip-rule="evenodd" d="M8.36129 14.0126C10.0971 7.7968 16.001 3.75 22.5 3.75C28.999 3.75 34.9029 7.7968 36.6387 14.0126C37.056 15.507 37.4447 17.0096 37.7367 18.3549C38.4182 21.4946 38.9863 25.6854 39.3378 28.587C39.6685 31.3176 37.7623 33.8199 34.9634 34.2581C31.6085 34.7834 26.4311 35.4808 22.5 35.4808C18.5689 35.4808 13.3915 34.7834 10.0366 34.2581C7.23771 33.8199 5.33147 31.3176 5.66224 28.587C6.01371 25.6854 6.58184 21.4946 7.2633 18.3549C7.55529 17.0096 7.94396 15.507 8.36129 14.0126ZM22.5 6.63462C17.2311 6.63462 12.5715 9.90472 11.2125 14.7712C10.8033 16.2366 10.4303 17.6814 10.1544 18.9528C9.50307 21.9535 8.94763 26.0314 8.59705 28.9257C8.45026 30.1375 9.28776 31.2193 10.5047 31.4099C13.8524 31.934 18.8257 32.5962 22.5 32.5962C26.1743 32.5962 31.1476 31.934 34.4953 31.4099C35.7122 31.2193 36.5497 30.1375 36.4029 28.9257C36.0524 26.0314 35.4969 21.9535 34.8456 18.9528C34.5697 17.6814 34.1967 16.2366 33.7875 14.7712C32.4285 9.90472 27.7689 6.63462 22.5 6.63462Z" fill="#2029FF"/>
<path fill-rule="evenodd" clip-rule="evenodd" d="M18.5597 32.5962C19.3757 32.5962 20.0373 33.2419 20.0373 34.0385V35.9615C20.0373 37.2891 21.1399 38.3654 22.5 38.3654C23.8601 38.3654 24.9627 37.2891 24.9627 35.9615V34.0385C24.9627 33.2419 25.6243 32.5962 26.4403 32.5962C27.2564 32.5962 27.918 33.2419 27.918 34.0385V35.9615C27.918 38.8823 25.4923 41.25 22.5 41.25C19.5077 41.25 17.082 38.8823 17.082 35.9615V34.0385C17.082 33.2419 17.7436 32.5962 18.5597 32.5962Z" fill="#2029FF"/>
</svg>
