<svg width="48" height="48" viewBox="0 0 48 48" fill="none" xmlns="http://www.w3.org/2000/svg">
<path fill-rule="evenodd" clip-rule="evenodd" d="M5.53846 24.5161C6.38813 24.5161 7.07692 25.2094 7.07692 26.0645V33.59C7.07692 34.9201 8.07112 36.0097 9.36161 36.1193C13.2675 36.451 19.4392 36.9032 24 36.9032C28.5608 36.9032 34.7325 36.451 38.6384 36.1193C39.9289 36.0097 40.9231 34.9201 40.9231 33.59V26.0645C40.9231 25.2094 41.6119 24.5161 42.4615 24.5161C43.3112 24.5161 44 25.2094 44 26.0645V33.59C44 36.5028 41.8072 38.958 38.8971 39.2051C34.988 39.5371 28.7025 40 24 40C19.2975 40 13.012 39.5371 9.10294 39.2051C6.19277 38.958 4 36.5028 4 33.59V26.0645C4 25.2094 4.68879 24.5161 5.53846 24.5161Z" fill="#181818"/>
<path fill-rule="evenodd" clip-rule="evenodd" d="M22.9121 8.45351C23.513 7.84883 24.4871 7.84883 25.0879 8.45351L31.2417 14.6471C31.8425 15.2517 31.8425 16.2321 31.2417 16.8368C30.6409 17.4415 29.6668 17.4415 29.066 16.8368L25.5385 13.2865V26.0645C25.5385 26.9197 24.8497 27.6129 24 27.6129C23.1503 27.6129 22.4615 26.9197 22.4615 26.0645V13.2865L18.934 16.8368C18.3332 17.4415 17.3591 17.4415 16.7583 16.8368C16.1575 16.2321 16.1575 15.2517 16.7583 14.6471L22.9121 8.45351Z" fill="#181818"/>
</svg>
