<svg width="64" height="64" viewBox="0 0 64 64" fill="none" xmlns="http://www.w3.org/2000/svg">
<path fill-rule="evenodd" clip-rule="evenodd" d="M58.0652 41.6554C58.8663 40.8544 58.8663 39.5556 58.0652 38.7545L41.655 22.3442C40.8539 21.5432 39.5551 21.5432 38.754 22.3442C37.9529 23.1453 37.9529 24.4441 38.754 25.2452L51.6625 38.1537L23.7942 38.1537C15.864 38.1537 9.43525 31.7249 9.43525 23.7947L9.43525 7.38445C9.43525 6.25156 8.51686 5.33317 7.38397 5.33317C6.25108 5.33317 5.33269 6.25156 5.33269 7.38445L5.33269 23.7947C5.33269 33.9907 13.5982 42.2562 23.7942 42.2562L51.6625 42.2562L38.754 55.1647C37.9529 55.9658 37.9529 57.2646 38.754 58.0657C39.5551 58.8668 40.8539 58.8668 41.655 58.0657L58.0652 41.6554Z" fill="#181818"/>
</svg>
