<svg width="48" height="48" viewBox="0 0 48 48" fill="none" xmlns="http://www.w3.org/2000/svg">
<path fill-rule="evenodd" clip-rule="evenodd" d="M24 10.9091C19.4711 10.9091 13.3026 11.2973 9.38535 11.5828C8.08445 11.6776 7.07692 12.7074 7.07692 13.9652V15.3866L22.7548 23.6214C23.5292 24.0282 24.4708 24.0282 25.2452 23.6214L40.9231 15.3866V13.9652C40.9231 12.7074 39.9156 11.6776 38.6147 11.5828C34.6975 11.2973 28.5289 10.9091 24 10.9091ZM40.9231 18.7144L26.7395 26.1644C25.0358 27.0593 22.9642 27.0593 21.2605 26.1644L7.07692 18.7144V34.0348C7.07692 35.2926 8.08445 36.3224 9.38535 36.4172C13.3026 36.7027 19.4711 37.0909 24 37.0909C28.5289 37.0909 34.6975 36.7027 38.6147 36.4172C39.9156 36.3224 40.9231 35.2926 40.9231 34.0348V18.7144ZM9.14887 8.68234C13.0684 8.39668 19.3414 8 24 8C28.6586 8 34.9316 8.39668 38.8511 8.68234C41.7804 8.89582 44 11.2118 44 13.9652V34.0348C44 36.7882 41.7804 39.1042 38.8511 39.3177C34.9316 39.6033 28.6587 40 24 40C19.3414 40 13.0684 39.6033 9.14887 39.3177C6.21965 39.1042 4 36.7882 4 34.0348V13.9652C4 11.2118 6.21965 8.89582 9.14887 8.68234Z" fill="white"/>
</svg>
