<svg width="190" height="190" viewBox="0 0 190 190" fill="none" xmlns="http://www.w3.org/2000/svg">
<g clip-path="url(#clip0_28_648)">
<path d="M94.8599 189.72C147.25 189.72 189.72 147.25 189.72 94.8599C189.72 42.4702 147.25 0 94.8599 0C42.4702 0 0 42.4702 0 94.8599C0 147.25 42.4702 189.72 94.8599 189.72Z" fill="white"/>
<path d="M94.8601 184.733C144.495 184.733 184.733 144.495 184.733 94.8598C184.733 45.2245 144.495 4.98706 94.8601 4.98706C45.2247 4.98706 4.9873 45.2245 4.9873 94.8598C4.9873 144.495 45.2247 184.733 94.8601 184.733Z" fill="#878787"/>
<path d="M94.8598 180.736C142.288 180.736 180.736 142.288 180.736 94.86C180.736 47.4321 142.288 8.98413 94.8598 8.98413C47.4318 8.98413 8.98389 47.4321 8.98389 94.86C8.98389 142.288 47.4318 180.736 94.8598 180.736Z" fill="white"/>
<path d="M94.8601 152.84C126.881 152.84 152.84 126.881 152.84 94.8599C152.84 62.8386 126.881 36.8801 94.8601 36.8801C62.8388 36.8801 36.8804 62.8386 36.8804 94.8599C36.8804 126.881 62.8388 152.84 94.8601 152.84Z" fill="#B1B1B1"/>
<path fill-rule="evenodd" clip-rule="evenodd" d="M78.9695 32.197C78.1248 32.6274 77.3035 33.1255 76.5087 33.69C75.0367 34.7361 73.7484 35.9457 72.6492 37.2757C68.5282 41.1581 64.5927 45.9205 57.0394 45.9205C55.0135 45.9205 52.4396 46.1284 50.0089 44.6395C48.4216 43.6671 46.9735 41.9625 45.6577 39.2357C44.5818 37.0061 42.1077 35.8162 39.6945 36.3683C37.2812 36.92 35.5703 39.0668 35.5703 41.5423C35.5703 65.9506 55.3042 75.0752 69.9516 75.0752C79.5285 75.0752 85.8727 73.8578 91.1561 71.5838L93.268 74.5519C93.7662 75.2519 93.8381 76.1699 93.4553 76.939L93.4548 76.9399C92.5076 78.8422 92.0608 80.908 92.1015 82.9577C87.2888 79.583 80.7876 77.7563 73.4815 77.7563C60.48 77.7563 46.8769 87.8139 46.8769 105.282C46.8769 114.442 51.0862 121.347 57.9079 127.876C66.3673 135.974 79.2873 143.554 90.9034 156.545C91.9106 157.671 93.3495 158.315 94.8599 158.315C96.3703 158.315 97.8093 157.671 98.8165 156.545C107.785 146.515 117.542 139.732 125.39 133.428C126.903 134.991 128.885 136.043 131.057 136.409C133.743 136.862 136.498 136.229 138.717 134.65C142.387 132.039 147.773 128.206 151.443 125.594C153.662 124.016 155.163 121.62 155.616 118.935C156.068 116.25 155.435 113.495 153.857 111.276L151.714 108.265C151.928 107.688 152.089 107.089 152.193 106.473C152.628 103.891 152.02 101.241 150.501 99.1068C146.807 93.9159 140.148 84.5564 136.454 79.3655C134.486 76.5998 131.355 75.1539 128.199 75.2185L123.953 69.2516C121.183 65.3582 116.493 63.308 111.754 63.9188H111.753C110.901 64.0286 110.058 63.6596 109.559 62.9596L106.412 58.537C109.336 52.2033 108.883 44.5223 104.556 38.434C99.8027 31.7451 91.6959 28.8384 84.1361 30.3762C82.4412 30.5648 80.7047 31.1298 78.9695 32.197Z" fill="white"/>
<mask id="mask0_28_648" style="mask-type:alpha" maskUnits="userSpaceOnUse" x="52" y="83" width="86" height="71">
<path fill-rule="evenodd" clip-rule="evenodd" d="M95.0001 153.14C114.489 131.293 137.56 124.534 137.56 105.43C137.56 91.3916 126.745 83.22 116.321 83.22C105.897 83.22 97.1989 87.3467 95.0001 95.463C92.8014 87.3467 84.1036 83.22 73.6792 83.22C63.2552 83.22 52.4399 91.3916 52.4399 105.43C52.4399 124.534 75.511 131.293 95.0001 153.14Z" fill="#042E77"/>
</mask>
<g mask="url(#mask0_28_648)">
<path d="M142.5 79.3079H47.249V112.175H142.5V79.3079Z" fill="#B1B1B1"/>
<path d="M142.5 112.175H47.249V154.95H142.5V112.175Z" fill="#B1B1B1"/>
</g>
<path fill-rule="evenodd" clip-rule="evenodd" d="M94.8599 153.007C105.768 140.808 117.795 133.312 126.293 125.746C121.705 119.298 114.157 108.69 109.681 102.399C110.997 100.966 112.908 98.8847 114.98 96.628C118.806 92.4595 119.746 87.5318 114.814 81.4399L94.8599 95.3109L94.8704 112.167C94.8704 112.167 83.307 121.158 68.9814 130.371C76.7472 136.539 86.1593 143.277 94.8599 153.007Z" fill="#B1B1B1"/>
<path fill-rule="evenodd" clip-rule="evenodd" d="M113.717 130.161L115.799 134.455L117.966 132.333L113.717 130.161Z" fill="#B1B1B1"/>
<path fill-rule="evenodd" clip-rule="evenodd" d="M93.8198 113.261L99.9227 117.024L95.9213 111.074L93.8198 113.261Z" fill="#B1B1B1"/>
<path fill-rule="evenodd" clip-rule="evenodd" d="M85.8773 144.352C88.1912 142.072 90.2216 139.838 91.8547 137.787C95.1374 133.663 96.8799 130.545 96.8799 130.545C96.8799 130.545 94.4964 133.131 90.5934 136.59C88.6884 138.279 86.4624 140.183 83.9146 142.039L85.8773 144.352Z" fill="#B1B1B1"/>
<path fill-rule="evenodd" clip-rule="evenodd" d="M93.7298 154.018C94.0173 154.34 94.4284 154.524 94.8601 154.524C95.2919 154.524 95.703 154.34 95.9905 154.018C107.684 140.94 120.675 133.289 129.191 125.138C135.206 119.38 139.052 113.359 139.052 105.282C139.052 90.2597 127.42 81.5471 116.239 81.5471C106.652 81.5471 98.5095 84.9342 94.8601 91.3534C91.2108 84.9342 83.0687 81.5471 73.4817 81.5471C62.3005 81.5471 50.668 90.2597 50.668 105.282C50.668 113.359 54.5147 119.38 60.5297 125.138C69.0453 133.289 82.0358 140.94 93.7298 154.018ZM94.8601 150.753C85.3455 140.454 75.1203 133.537 67.1609 126.947C59.3288 120.462 53.7006 114.379 53.7006 105.282C53.7006 92.2164 63.7569 84.5798 73.4817 84.5798C83.1598 84.5798 91.3554 88.1907 93.3969 95.7083C93.5759 96.3689 94.1757 96.8272 94.8601 96.8272C95.5446 96.8272 96.1444 96.3689 96.3234 95.7083C98.3653 88.1907 106.56 84.5798 116.239 84.5798C125.963 84.5798 136.02 92.2164 136.02 105.282C136.02 114.379 130.392 120.462 122.559 126.947C114.6 133.537 104.375 140.454 94.8601 150.753Z" fill="#B1B1B1"/>
<path fill-rule="evenodd" clip-rule="evenodd" d="M112.431 69.1826C109.636 69.5429 106.869 68.3333 105.235 66.0368C102.518 62.2185 98.6914 56.8408 98.6914 56.8408L91.0488 62.2789C91.0488 62.2789 94.8754 67.6566 97.5922 71.4749C99.2266 73.7714 99.4624 76.7817 98.2061 79.3052L98.2056 79.3057C96.9494 81.8288 97.1851 84.839 98.8196 87.136C105.386 96.3645 122.333 120.181 128.922 129.44C130.4 131.518 133.282 132.003 135.359 130.526C139.123 127.847 144.882 123.749 148.646 121.07C150.723 119.593 151.209 116.711 149.731 114.633C143.142 105.374 126.195 81.5573 119.629 72.3288C117.994 70.0319 115.228 68.8227 112.432 69.1826C112.432 69.1826 112.432 69.1826 112.431 69.1826Z" fill="#B1B1B1"/>
<path fill-rule="evenodd" clip-rule="evenodd" d="M112.238 67.6785C109.997 67.9674 107.78 66.9982 106.47 65.1573C103.753 61.339 99.9266 55.9617 99.9266 55.9617C99.4413 55.2791 98.4945 55.1198 97.8119 55.6051L90.1697 61.0432C89.4871 61.529 89.3278 62.4757 89.8131 63.1579C89.8131 63.1579 93.6396 68.5356 96.3569 72.3539C97.6663 74.1944 97.8553 76.6067 96.8486 78.629C96.8486 78.6294 96.8481 78.6294 96.8481 78.6299C95.3423 81.6543 95.6248 85.262 97.5839 88.015C104.151 97.2435 121.097 121.06 127.686 130.32C129.65 133.079 133.479 133.724 136.238 131.761C140.002 129.082 145.761 124.984 149.526 122.306C152.285 120.342 152.93 116.514 150.967 113.754C144.378 104.495 127.431 80.6778 120.864 71.4497C118.906 68.6968 115.589 67.2468 112.238 67.6785H112.238ZM112.625 70.6865C112.625 70.6865 112.625 70.6865 112.626 70.6865C114.866 70.3981 117.083 71.3673 118.393 73.2078L148.496 115.512C149.488 116.907 149.162 118.843 147.767 119.835C144.003 122.513 138.244 126.611 134.48 129.29C133.085 130.282 131.15 129.956 130.157 128.561L100.055 86.2569C98.7454 84.4159 98.5563 82.0036 99.5631 79.9814C99.5631 79.9814 99.5631 79.9809 99.5635 79.9809C101.069 76.9565 100.786 73.3483 98.8278 70.5954L93.1635 62.6351L98.3347 58.9555L103.999 66.9158C105.958 69.6687 109.274 71.1182 112.625 70.6865Z" fill="#B1B1B1"/>
<path fill-rule="evenodd" clip-rule="evenodd" d="M132.223 82.5735C130.709 80.4459 127.756 79.9483 125.629 81.4623C120.409 85.1767 111.734 91.3492 111.734 91.3492C111.734 91.3492 121.438 104.986 125.142 110.192C126.029 111.439 127.465 112.179 128.995 112.179C131.762 112.179 136.189 112.179 138.497 112.179C139.48 112.179 140.438 111.873 141.238 111.303C142.212 110.611 143.627 109.604 144.972 108.647C147.1 107.133 147.597 104.18 146.083 102.053C142.403 96.8807 135.903 87.7456 132.223 82.5735Z" fill="#B1B1B1"/>
<path fill-rule="evenodd" clip-rule="evenodd" d="M133.458 81.6944C131.459 78.8842 127.56 78.2272 124.75 80.2266C119.53 83.941 110.855 90.1135 110.855 90.1135C110.173 90.5992 110.013 91.546 110.499 92.2282C110.499 92.2282 120.203 105.866 123.907 111.072C125.079 112.718 126.974 113.696 128.995 113.696C131.762 113.696 136.189 113.696 138.497 113.696C139.795 113.696 141.06 113.291 142.118 112.539C143.091 111.846 144.507 110.839 145.852 109.882C148.661 107.883 149.319 103.984 147.319 101.174L133.458 81.6944ZM130.987 83.4525L144.848 102.932C145.876 104.377 145.539 106.383 144.093 107.411L140.36 110.068C139.816 110.455 139.165 110.663 138.497 110.663H128.995C127.956 110.663 126.981 110.16 126.378 109.313L113.849 91.7053L126.508 82.698C127.953 81.6692 129.959 82.0071 130.987 83.4525Z" fill="#B1B1B1"/>
<path fill-rule="evenodd" clip-rule="evenodd" d="M68.9814 130.371C83.307 121.158 94.8704 112.167 94.8704 112.167L94.8599 95.3109L114.814 81.4399C119.746 87.5318 118.806 92.4595 114.98 96.628C111.153 100.796 106.821 105.515 106.821 105.515" fill="#B1B1B1"/>
<path fill-rule="evenodd" clip-rule="evenodd" d="M69.8015 131.646C74.6252 128.566 79.1386 125.511 83.0077 122.807C90.7066 117.427 95.8599 113.44 95.8599 113.44C96.2532 113.134 96.483 112.665 96.4826 112.166L96.5023 96.1703L114.46 83.6761C115.82 85.6223 116.499 87.4193 116.583 89.1133C116.703 91.5045 115.629 93.6344 113.858 95.598C113.339 96.2033 112.797 96.8067 112.288 97.4321C111.769 98.0694 111.271 98.7071 110.804 99.3454C110.016 100.425 109.323 101.439 108.731 102.355C107.517 104.235 106.821 105.515 106.821 105.515C106.821 105.515 108.036 104.713 109.806 103.342C110.668 102.674 111.62 101.898 112.628 101.02C113.224 100.5 113.817 99.9502 114.408 99.3783C114.988 98.8175 115.543 98.226 116.102 97.6583C118.522 95.0688 119.894 92.1817 119.776 88.9741C119.68 86.3713 118.577 83.519 116.083 80.4122C115.544 79.747 114.584 79.6105 113.881 80.0991L93.9224 93.9617C93.4801 94.2689 93.2164 94.7735 93.2169 95.3119L93.2567 111.378C91.6804 112.591 87.233 115.975 81.2043 120.243C77.3823 122.948 72.9262 126.009 68.1611 129.096L69.8015 131.646Z" fill="#B1B1B1"/>
<path d="M55.642 146.269L59.133 149.124L53.6116 155.874C53.064 156.544 52.4427 157.09 51.7477 157.515C51.0527 157.939 50.3005 158.191 49.4911 158.272C48.6812 158.353 47.9583 158.284 47.3214 158.064C46.4355 157.761 45.5162 157.219 44.5634 156.44C44.0127 155.99 43.4431 155.459 42.8548 154.849C42.2665 154.239 41.8476 153.641 41.5972 153.054C41.3467 152.466 41.213 151.813 41.1952 151.094C41.1778 150.375 41.2849 149.737 41.5175 149.179C41.8911 148.282 42.305 147.555 42.7601 146.998L48.281 140.248L51.7725 143.104L46.1182 150.016C45.6128 150.634 45.3894 151.257 45.4475 151.884C45.5057 152.512 45.8385 153.074 46.446 153.571C47.0486 154.064 47.6611 154.279 48.2833 154.217C48.906 154.155 49.4741 153.809 49.9878 153.181L55.642 146.269Z" fill="#878787"/>
<path d="M61.756 150.852L65.898 152.662L63.6849 157.727L70.2415 154.559L75.746 156.964L68.6542 159.887L70.1092 170.464L65.0071 168.235L64.5905 161.487L61.4722 162.793L60.0419 166.066L55.8999 164.257L61.756 150.852Z" fill="#878787"/>
<path d="M75.2979 171.904L77.5724 157.454L85.0144 158.625C86.3943 158.842 87.4304 159.127 88.1226 159.478C88.8149 159.829 89.3336 160.361 89.6797 161.072C90.0258 161.783 90.1265 162.598 89.9814 163.518C89.8555 164.32 89.5758 164.984 89.1422 165.512C88.7091 166.04 88.1652 166.438 87.51 166.705C87.093 166.875 86.5404 166.983 85.8531 167.03C86.3572 167.291 86.7171 167.53 86.9323 167.745C87.0779 167.889 87.2765 168.18 87.5274 168.617C87.7783 169.054 87.9399 169.385 88.0123 169.612L89.5112 174.141L84.4646 173.347L82.7747 168.556C82.5623 167.936 82.3512 167.522 82.1415 167.314C81.8549 167.04 81.5074 166.871 81.1004 166.807L80.7058 166.745L79.7828 172.61L75.2979 171.904ZM81.1357 164.015L83.0183 164.311C83.222 164.343 83.6267 164.339 84.2324 164.3C84.5373 164.287 84.8024 164.174 85.0281 163.961C85.2534 163.747 85.3912 163.482 85.4406 163.167C85.5144 162.7 85.4228 162.319 85.1664 162.023C84.91 161.727 84.3744 161.514 83.5594 161.386L81.5981 161.077L81.1357 164.015Z" fill="#878787"/>
<path d="M103.207 171.173L98.0722 171.558L97.5466 174.019L92.9395 174.364L97.3282 159.366L102.243 158.998L108.82 173.173L104.104 173.527L103.207 171.173ZM102.025 168.09L100.02 162.967L98.8111 168.33L102.025 168.09Z" fill="#878787"/>
<path d="M109.312 157.793L113.692 156.635L117.428 170.778L113.049 171.935L109.312 157.793Z" fill="#878787"/>
<path d="M116.946 155.916L120.742 154.072L129.233 158.943L125.696 151.664L129.528 149.802L135.921 162.959L132.089 164.822L123.651 159.991L127.162 167.216L123.339 169.073L116.946 155.916Z" fill="#878787"/>
<path d="M132.049 148.037L141.31 140.228L143.324 142.616L137.526 147.504L139.025 149.282L144.403 144.748L146.326 147.028L140.948 151.563L142.807 153.767L148.772 148.738L150.907 151.27L141.478 159.22L132.049 148.037Z" fill="#878787"/>
<path d="M20.6978 65.3594L22.4668 61.189L35.9335 66.9009L34.1644 71.0713L20.6978 65.3594Z" fill="#878787"/>
<path d="M36.4513 55.5627L38.9497 52.0521C39.5513 52.4193 40.0838 52.607 40.5485 52.6152C41.3016 52.6262 41.9503 52.2961 42.4947 51.624C42.9013 51.1227 43.0968 50.641 43.0812 50.1791C43.0661 49.7176 42.9035 49.3609 42.5931 49.1096C42.2988 48.8706 41.9307 48.7864 41.4884 48.8564C41.0466 48.926 40.3411 49.3477 39.3718 50.1205C37.7777 51.38 36.4275 52.1056 35.3219 52.297C34.2125 52.4934 33.2131 52.2316 32.324 51.5109C31.7402 51.038 31.3255 50.4213 31.0805 49.6622C30.8356 48.9027 30.8397 48.0625 31.0933 47.1423C31.347 46.2221 31.9536 45.17 32.9128 43.9865C34.0898 42.5342 35.2569 41.646 36.4147 41.3214C37.5726 40.9968 38.7995 41.2395 40.0948 42.0498L37.606 45.517C37.0232 45.1901 36.5012 45.0734 36.0407 45.1668C35.5796 45.2597 35.1483 45.5545 34.7464 46.0504C34.4154 46.4588 34.2528 46.8365 34.2583 47.1835C34.2638 47.5305 34.3906 47.8043 34.6388 48.0053C34.8196 48.1523 35.0517 48.199 35.3342 48.1454C35.6185 48.1015 36.0764 47.8217 36.7082 47.3067C38.2827 46.0398 39.5083 45.2116 40.385 44.8216C41.2618 44.4319 42.0735 44.2891 42.8198 44.393C43.566 44.4969 44.2491 44.8005 44.8695 45.3027C45.5979 45.8933 46.1065 46.6396 46.395 47.5411C46.6829 48.4425 46.693 49.3838 46.4243 50.365C46.156 51.3461 45.5755 52.3868 44.6831 53.4878C43.1169 55.4203 41.6601 56.4573 40.3127 56.5983C38.9653 56.7394 37.6783 56.3942 36.4513 55.5627Z" fill="#878787"/>
<path d="M40.4478 35.8614L51.2658 27.3906L53.4927 30.2347L49.8631 33.0769L56.6545 41.75L53.0953 44.5369L46.3043 35.8633L42.6746 38.7055L40.4478 35.8614Z" fill="#878787"/>
<path d="M67.9807 32.4811L63.3411 34.7135L63.7499 37.1964L59.5868 39.1998L58.1982 23.6345L62.6397 21.4973L73.9371 32.2944L69.6752 34.3454L67.9807 32.4811ZM65.7552 30.0418L62.0184 26.0042L62.8507 31.4391L65.7552 30.0418Z" fill="#878787"/>
<path d="M72.6196 17.5701L76.7612 16.757L83.7248 23.6368L82.1659 15.6962L86.3468 14.8757L89.1643 29.2297L84.9834 30.0501L78.061 23.2234L79.608 31.1054L75.4371 31.924L72.6196 17.5701Z" fill="#878787"/>
<path d="M93.2058 14.4688L99.9076 14.8913C101.229 14.9747 102.285 15.2214 103.075 15.6312C103.866 16.0409 104.506 16.5977 104.995 17.3018C105.484 18.006 105.82 18.8104 106.002 19.715C106.185 20.6197 106.245 21.5697 106.182 22.5655C106.084 24.1258 105.83 25.3244 105.421 26.1618C105.011 26.9991 104.473 27.6882 103.806 28.2293C103.138 28.7705 102.437 29.1148 101.701 29.2617C100.695 29.4646 99.7904 29.541 98.9869 29.4902L92.2852 29.0676L93.2058 14.4688ZM97.5086 18.0595L97.0054 26.0359L98.1106 26.1054C99.0533 26.165 99.7304 26.1027 100.142 25.9187C100.554 25.7351 100.889 25.3894 101.147 24.8826C101.406 24.3758 101.572 23.5379 101.646 22.3695C101.743 20.8225 101.558 19.748 101.089 19.145C100.62 18.5421 99.8023 18.2042 98.6339 18.1305L97.5086 18.0595Z" fill="#878787"/>
<path d="M119.767 18.0266L123.641 19.8708L121.525 27.9139L127.073 21.5048L130.938 23.3448L129.471 31.697L134.38 24.9834L138.236 26.8188L129.038 38.6414L125.038 36.7368L126.682 27.3192L120.416 34.5365L116.416 32.6323L119.767 18.0266Z" fill="#878787"/>
<path d="M141.96 30.1411L145.532 32.927L136.535 44.4612L132.963 41.6748L141.96 30.1411Z" fill="#878787"/>
<path d="M149.298 35.8857L158.51 46.0803L155.83 48.5022L152.739 45.0817L144.566 52.4666L141.535 49.1129L149.708 41.7277L146.618 38.3072L149.298 35.8857Z" fill="#878787"/>
<path d="M161.796 50.7249L163.925 54.7126L159.409 57.123L161.735 61.4802L166.251 59.0702L168.388 63.0753L155.483 69.9629L153.346 65.9578L158.566 63.1719L156.24 58.8143L151.02 61.6006L148.892 57.6129L161.796 50.7249Z" fill="#878787"/>
<path fill-rule="evenodd" clip-rule="evenodd" d="M84.8933 35.645C90.5439 34.3681 96.6665 36.4947 100.23 41.5084C104.668 47.7533 103.57 56.2749 97.9264 61.2162L96.7374 62.1548C89.935 67.1992 83.594 69.7676 69.9516 69.7676C57.5929 69.7676 40.8774 62.1365 40.8774 41.5423C45.5839 51.2955 52.3063 51.2282 57.0393 51.2282C66.4295 51.2282 71.4592 45.6198 76.5979 40.8528C77.4298 39.7907 78.4301 38.8361 79.5834 38.0166C80.1969 37.5807 80.8324 37.198 81.4926 36.8843L81.6015 36.8088C82.7099 36.1005 83.8119 35.7274 84.8933 35.645Z" fill="#B1B1B1"/>
<path fill-rule="evenodd" clip-rule="evenodd" d="M85.3237 46.0941C80.1507 49.928 81.1208 58.7225 68.9814 58.7225C73.8093 63.5503 86.3475 66.6178 96.1647 60.0634C100.895 56.9058 90.4968 42.2602 85.3237 46.0941Z" fill="#9D9D9D"/>
<path fill-rule="evenodd" clip-rule="evenodd" d="M85.3236 46.094C89.3044 43.2651 94.8332 44.1999 97.6626 48.1808C100.492 52.1621 99.5566 57.6909 95.5753 60.5198C91.5945 63.3487 86.0657 62.4138 83.2368 58.433C80.4074 54.4522 81.3427 48.9229 85.3236 46.094Z" fill="#9F9F9F"/>
</g>
<defs>
<clipPath id="clip0_28_648">
<rect width="190" height="190" fill="white"/>
</clipPath>
</defs>
</svg>
