<svg width="300" height="141" viewBox="0 0 300 141" fill="none" xmlns="http://www.w3.org/2000/svg">
<rect x="8.08154" width="292.567" height="121.461" rx="60.7305" transform="rotate(3.81501 8.08154 0)" fill="#005BBB"/>
<path d="M42.3782 52.5674C48.9578 53.0061 53.0864 50.3521 53.4166 45.4011C53.7422 40.5179 49.2382 38.5826 44.4404 36.9683C40.7097 35.6977 38.8647 34.7572 38.9777 33.0616C39.0863 31.4339 40.9901 30.4709 43.839 30.6609C46.4844 30.8373 48.9353 31.8863 50.7306 33.5729L53.8372 29.897C51.1285 27.6045 48.0762 26.3791 44.4133 26.1349C38.2407 25.7233 34.1166 28.3094 33.8045 32.9892C33.4518 38.2793 38.5029 40.183 42.9616 41.7746C46.4888 43.0317 48.2162 43.6919 48.0986 45.4552C47.972 47.3543 46.0004 48.3128 42.8802 48.1047C39.7599 47.8966 36.9834 46.6215 34.953 44.3743L31.774 48.1135C34.3289 50.6682 38.1727 52.2869 42.3782 52.5674Z" fill="#FFD101"/>
<path d="M78.8487 28.7717L55.8541 27.2384L55.5375 31.9859L64.4233 32.5785L63.0213 53.6033L68.2443 53.9516L69.6463 32.9268L78.5321 33.5193L78.8487 28.7717Z" fill="#FFD101"/>
<path d="M96.6654 55.8468L102.228 56.2177L93.7715 29.7668L87.3954 29.3417L75.5022 54.4356L80.9287 54.7974L83.3254 49.5074L94.9923 50.2853L96.6654 55.8468ZM85.3242 45.0764L90.2081 34.1616L93.5995 45.6282L85.3242 45.0764Z" fill="#FFD101"/>
<path d="M125.177 31.8611L124.019 49.2235L112.968 31.0469L107.948 30.7122L106.23 56.4846L111.249 56.8193L112.411 39.389L123.594 57.6425L128.478 57.9682L130.197 32.1958L125.177 31.8611Z" fill="#FFD101"/>
<path d="M147.222 33.3311L137.387 32.6752L135.668 58.4476L145.504 59.1035C153.575 59.6417 158.744 54.6728 159.251 47.0767C159.771 39.2772 155.497 33.8829 147.222 33.3311ZM145.662 54.686L141.185 54.3875L142.316 37.432L146.793 37.7305C151.744 38.0607 154.24 41.4971 153.892 46.7194C153.544 51.9417 150.614 55.0162 145.662 54.686Z" fill="#FFD101"/>
<path d="M205.15 37.1939L198.678 55.5645L194.636 36.4928L189.481 36.149L182.937 54.5829L179.103 35.457L173.812 35.1042L179.487 61.3696L184.913 61.7314L191.525 43.3021L195.698 62.4506L201.193 62.817L210.373 37.5422L205.15 37.1939Z" fill="#FFD101"/>
<path d="M213.266 63.6221L218.489 63.9704L220.208 38.198L214.985 37.8497L213.266 63.6221Z" fill="#FFD101"/>
<path d="M247.476 40.0163L224.481 38.483L224.165 43.2305L233.051 43.8231L231.649 64.8479L236.872 65.1962L238.274 44.1714L247.159 44.7639L247.476 40.0163Z" fill="#FFD101"/>
<path d="M268.504 41.4185L267.825 51.5918L256.294 50.8229L256.972 40.6496L251.749 40.3013L250.031 66.0737L255.254 66.422L255.977 55.5704L267.509 56.3394L266.785 67.1909L272.008 67.5392L273.727 41.7668L268.504 41.4185Z" fill="#FFD101"/>
<path d="M44.1278 103.405C54.0367 104.066 60.4888 98.6028 61.1045 89.3691L62.5669 67.4391L55.1592 66.9452L53.7097 88.6828C53.3441 94.1653 50.0475 97.2302 44.564 96.8646C39.1766 96.5053 36.22 93.0234 36.5855 87.5409L38.0351 65.8033L30.6274 65.3093L29.1651 87.2393C28.5494 96.473 34.3151 102.751 44.1278 103.405Z" fill="#FFD101"/>
<path d="M99.9256 99.88C98.8674 99.8094 98.2389 99.0912 98.3094 98.0332L99.201 84.6636L92.563 84.221L103.068 70.1399L94.8911 69.5946L85.0591 83.7206L78.8059 83.3036L79.7872 68.5875L72.3796 68.0935L69.9423 104.643L77.35 105.137L78.3698 89.8441L91.3572 90.7102L90.7799 99.3667C90.4913 103.695 92.7425 106.164 96.9754 106.446L100.727 106.696L101.176 99.9634L99.9256 99.88Z" fill="#FFD101"/>
<path d="M138.311 102.44C137.252 102.369 136.624 101.651 136.694 100.593L137.272 91.9363L131.596 91.5578C135.63 90.4742 139.016 87.5118 139.324 82.895C139.747 76.5469 135.008 72.2697 126.831 71.7245L110.476 70.6339L108.039 107.184L115.446 107.678L116.364 93.9235L129.64 94.8087L129.165 101.926C128.876 106.255 131.224 108.73 135.36 109.006L139.112 109.256L139.561 102.523L138.311 102.44ZM125.362 77.8097C129.883 78.1112 132.077 79.9964 131.833 83.6514C131.583 87.4026 129.165 88.8838 124.643 88.5823L116.755 88.0562L117.473 77.2836L125.362 77.8097Z" fill="#FFD101"/>
<path d="M171.437 111.411L179.325 111.937L167.332 74.4252L158.289 73.8222L141.421 109.41L149.117 109.923L152.517 102.421L169.064 103.524L171.437 111.411ZM155.351 96.1369L162.278 80.6578L167.088 96.9195L155.351 96.1369Z" fill="#FFD101"/>
<path d="M185.001 112.316L192.409 112.81L194.846 76.2599L187.438 75.766L185.001 112.316Z" fill="#FFD101"/>
<path d="M229.479 78.5694L227.837 103.193L212.163 77.4147L205.044 76.9399L202.606 113.49L209.725 113.965L211.374 89.2453L227.234 115.132L234.161 115.594L236.598 79.0441L229.479 78.5694Z" fill="#FFD101"/>
<path d="M252.106 110.221L252.709 101.18L267.043 102.136L267.467 95.7875L253.132 94.8316L253.671 86.7522L272.335 87.9967L272.771 81.4562L246.796 79.7241L244.359 116.274L270.814 118.038L271.251 111.498L252.106 110.221Z" fill="#FFD101"/>
</svg>
