<svg width="190" height="190" viewBox="0 0 190 190" fill="none" xmlns="http://www.w3.org/2000/svg">
<circle cx="95" cy="95" r="95" fill="#FFD101"/>
<path d="M91.1163 155.196C84.3278 150.091 79.4352 142.434 77.7839 133.561H55.9507V40.0912C67.6318 45.9254 76.0715 58.6878 76.9889 71.9364L80.2914 98.1905L78.7013 98.0082C75.2153 98.0082 72.1574 101.29 72.1574 104.511C72.1574 107.55 74.4814 110.102 77.5393 110.771L81.5145 111.682C88.0584 99.3452 91.789 87.2513 91.789 75.4005C91.789 64.7044 90.3824 54.0083 90.1377 43.069C90.1377 38.2072 92.0336 33.7707 95.0303 30.3066C98.0882 33.7707 99.9229 38.2072 99.9229 43.069C99.9229 54.0083 98.2717 64.7044 98.2717 75.4005C98.2717 87.2513 102.002 99.3452 108.546 111.682L112.521 110.771C115.579 110.102 117.903 107.489 117.903 104.511C117.903 101.229 114.845 98.0082 111.359 98.0082L109.708 98.2513L113.011 71.9972C114.662 58.7486 122.368 45.9254 134.049 40.1519V133.621H112.277C110.626 142.434 105.978 150.395 98.9444 155.257C97.2932 156.411 95.8866 157.809 94.9692 159.693C94.113 157.809 92.7064 156.411 91.1163 155.196ZM66.2863 101.29C67.2037 97.8259 69.7723 94.7872 73.0748 92.9032L70.5062 71.2679C69.5888 64.522 66.7756 58.5055 62.5557 53.5828V101.229H66.2863V101.29ZM77.2947 127.058C77.2947 123.776 77.7839 120.798 78.4566 117.76L75.3988 117.03C70.9343 115.632 67.4483 112.168 66.2863 107.732H62.5557V127.058H77.2947ZM91.789 127.058C91.789 123.108 88.7311 119.644 84.7559 119.157C84.0831 121.71 83.5939 124.262 83.5939 127.058H91.789ZM91.789 133.621H84.5112C85.6732 138.726 88.2419 143.406 91.789 147.356V133.621ZM102.063 113.384C99.2502 108.279 96.6816 102.931 95.0303 97.3397C93.3791 102.931 90.8105 108.279 87.9972 113.384C90.8105 114.052 93.1345 115.936 95.0303 118.063C96.9262 115.936 99.2502 114.052 102.063 113.384ZM106.528 127.058C106.528 124.262 106.039 121.71 105.366 119.157C101.391 119.644 98.3329 123.108 98.3329 127.058H106.528ZM105.611 133.621H98.3329V147.356C101.88 143.345 104.449 138.726 105.611 133.621ZM127.566 127.058V107.732H123.836C122.674 112.168 119.126 115.632 114.723 117.03L111.665 117.76C112.338 120.798 112.827 123.776 112.827 127.058H127.566ZM127.566 101.29V53.5828C123.346 58.4447 120.288 64.522 119.616 71.2679L117.047 92.9032C120.35 94.7872 122.918 97.7651 123.836 101.29H127.566Z" fill="#005BBB"/>
</svg>
