<svg width="1468" height="1368" fill="none" xmlns="http://www.w3.org/2000/svg"><path d="M57.484 848.658c97.969-341.661 476.982-532.725 846.549-426.753 194.687 55.824 347.907 182.941 435.007 340.693" stroke="url(#paint0_linear_2016_1439)"/><path d="M1255.11 512.327c-175.02-181.235-541.549-111.213-818.669 156.398-71.292 68.846-129.721 144.062-174.208 220.9" stroke="#D9D9D9"/><path d="M604.593 300.957c14.523-1.821 32.745-1.561 33.744-1.568 248.022-1.864 453.923 302.777 460.553 682.532" stroke="url(#paint1_linear_2016_1439)"/><path d="M992.375 334.026c-67.706-19.415-208.458 264.292-314.377 633.677" stroke="url(#paint2_linear_2016_1439)"/><path d="M68.154 794.329c106.607-371.784 494.42-586.752 866.204-480.145 197.592 56.658 350.882 192.744 435.162 363.638" stroke="url(#paint3_linear_2016_1439)"/><path d="M753.109 942.54c-302.346-86.697-510.528-285.727-464.987-444.546 10.271-35.82 32.571-66.535 64.421-91.632" stroke="url(#paint4_linear_2016_1439)"/><path d="M504.25 402.283c15.393-53.681 70.796-90.516 148.175-106.555 77.353-16.034 176.527-11.249 279.176 18.185 102.649 29.434 189.289 77.93 246.389 132.519 57.12 54.607 84.59 115.203 69.2 168.884-15.4 53.682-70.8 90.516-148.18 106.555-77.35 16.035-176.526 11.249-279.174-18.185-102.649-29.434-189.29-77.93-246.392-132.519-57.121-54.607-84.586-115.203-69.194-168.884z" stroke="#D9D9D9"/><path d="M699.816 392.503c7.767-27.087 35.743-45.729 74.944-53.854 39.175-8.121 89.419-5.699 141.436 9.216 52.017 14.916 95.914 39.488 124.824 67.134 28.94 27.664 42.79 58.299 35.02 85.385-7.77 27.087-35.74 45.729-74.94 53.855-39.177 8.12-89.421 5.699-141.438-9.217-52.017-14.915-95.91-39.487-124.829-67.133-28.938-27.665-42.784-58.299-35.017-85.386z" stroke="#D9D9D9"/><path d="M608.41 274.771a.5.5 0 00-.052-.705l-3.409-2.937a.5.5 0 00-.653.757l3.031 2.611-2.612 3.031a.5.5 0 00.758.652l2.937-3.409zm690.94 419.889c-19.76 68.899-90.86 116.143-190.08 136.711-99.2 20.562-226.371 14.424-357.992-23.318l-.276.961c131.745 37.777 259.088 43.938 358.468 23.336 99.36-20.596 170.93-67.98 190.84-137.414l-.96-.276zM751.278 808.053c-131.621-37.742-242.722-99.927-315.95-169.932-73.248-70.024-108.506-147.764-88.75-216.663l-.961-.275c-19.91 69.434 15.671 147.541 89.02 217.661 73.367 70.138 184.621 132.393 316.365 170.17l.276-.961zm-404.7-386.595c12.116-42.251 43.531-76.354 88.913-101.164 45.385-24.81 104.713-40.309 172.578-45.35l-.074-.998c-67.962 5.049-127.439 20.573-172.984 45.471-45.546 24.899-77.185 59.189-89.394 101.766l.961.275z" fill="url(#paint5_linear_2016_1439)"/><path d="M624.791 505.916l29.034-17.331m33.986-20.23l14.401-8.572-9-5.401m-5.401 13.973l-16.993 10.115m16.993-10.115l-6.876-4.008m-41.727 32.938l-6.427-4.16m21.044-4.54l16.993-10.115m-16.993 10.115l-6.48-4.181m23.473-5.934l-6.408-4.286" stroke="#676767"/><path d="M536.601 382.377v63.005l88.206 52.203 68.405-41.403v-64.804l-90.007-46.804-66.604 37.803z" fill="#fff" stroke="#676767"/><path d="M536.601 382.377l88.206 50.404 68.405-41.403" stroke="#676767"/><path d="M536.601 414.78l88.206 50.403 68.405-41.403" stroke="#676767"/><path d="M596.005 416.579l66.386-41.092 7.051 3.525-66.237 41.168v16.201l-7.2-3.6v-16.202z" fill="#fff"/><path d="M596.005 416.579l66.386-41.092 7.051 3.525-66.237 41.168m-7.2-3.601v16.202l7.2 3.6V420.18m-7.2-3.601l7.2 3.601" stroke="#676767"/><path d="M552.802 391.378l64.351-39.391 7.05 3.525-64.201 40.641v15.026l-7.2-3.6v-16.201z" fill="#fff"/><path d="M552.802 391.378l64.351-39.391 7.05 3.525-64.201 40.641m-7.2-4.775v16.201l7.2 3.6v-15.026m-7.2-4.775l7.2 4.775" stroke="#676767"/><path d="M596.005 465.183v-16.201l7.2 3.6v16.201l-7.2-3.6z" fill="#fff" stroke="#676767"/><path d="M645.941 367.262l-64.337 40.317v63.004" stroke="#676767"/><path d="M552.802 439.981v-15.913l7.2 4.296v15.218l-7.2-3.601z" fill="#fff" stroke="#676767"/><path d="M624.807 432.781v64.804m77.822-37.752v3.421l-77.993 46.187-99.007-55.85v-3.601m99.007 55.926l-99.007-55.926m0 0l11.034-6.351m31.544 34.076v5.928l10.801 5.822m0 0l5.831-2.35m-5.831 2.35v-5.822m-48.402-27.079v5.928l10.801 5.823m0 0l5.831-2.35m-5.831 2.35v-5.823m72.428 41.074v5.354l10.801 6.025m0 0v-5.504m0 5.504l14.255-8.442v-5.287m44.063-27.026l6.487 2.877m0 0l10.801-6.025v-6.252m-10.801 12.277v-6.402m-36.45 21.15l5.938 3.329m0 0l11.185-6.026v-6.115m-11.185 12.141v-6.266" stroke="#676767"/><path d="M913.629 360.043l-53.395 31.531-30.72-16.865v-27.865l12.434-7.332v-14.666L877.86 305.1l21.872 10.947v8.066l13.897 8.066v27.864z" fill="#fff"/><path d="M860.234 391.574l53.395-31.531v-27.864m-53.395 59.395V363.71m0 27.864l-30.72-16.865v-27.865m84.115-14.665l-53.395 31.531m53.395-31.531l-13.897-8.066m-39.498 39.597l-30.72-16.866m0 0l12.434-7.332m0 0v5.133l21.212 10.999m-21.212-16.132v-14.666m21.212 30.798l36.572-20.532v-10.999m-36.572 31.531v-18.332m36.572-21.265L877.86 305.1l-35.912 19.746m57.784-8.799l-36.572 21.265m36.572-21.265v8.066m-57.784.733l21.212 12.466" stroke="#676767"/><path d="M829.561 359.465l-21.943 12.456-29.989-16.852v-27.11l54.127-31.506 12.495 7.327 5.059 2.967 12.435 7.291-20.046 11.126v14.526l-12.138 7.468v12.307z" fill="#fff"/><path d="M807.618 371.921l21.943-12.456v-12.307l12.138-7.468v-14.526m-34.081 46.757l-29.989-16.852v-27.11m29.989 43.962v-27.842m-29.989-16.12l54.127-31.506 12.495 7.327m-66.622 24.179l12.435 6.684m17.554 9.436l-12.434-6.684m12.434 6.684l34.081-18.915m-51.635 9.479l54.187-30.863m-54.187 30.863l5.12 2.752m-5.12-2.752v11.336l5.12 2.751v-11.335m49.067-33.615l5.059 2.967m0 0l12.435 7.291-20.046 11.126m7.611-18.417l-54.126 30.648" stroke="#676767"/><path d="M850.785 330.082l35.723-20.658 4.375 2.171-36.453 20.658v7.044l-3.645-1.965v-7.25zm-9.48 23.159l8.75-4.342 4.375 2.171-8.75 4.343v9.433l-4.375-2.358v-9.247z" fill="#fff"/><path d="M850.785 330.082l35.723-20.658 4.375 2.171-36.453 20.658m-3.645-2.171v7.25l3.645 1.965v-7.044m-3.645-2.171l3.645 2.171m-13.125 20.988l8.75-4.342 4.375 2.171-8.75 4.343m-4.375-2.172v9.247l4.375 2.358v-9.433m-4.375-2.172l4.375 2.172" stroke="#676767"/><path d="M847.379 401.074c-5.004 0-9.87 3.491-13.512 9.244-3.634 5.738-5.988 13.644-5.988 22.256 0 8.613 2.354 16.519 5.988 22.257 3.642 5.753 8.508 9.243 13.512 9.243h5c5.003 0 9.617-3.351 13.006-9.025 3.384-5.665 5.494-13.573 5.494-22.475 0-8.901-2.11-16.809-5.494-22.474-3.389-5.674-8.003-9.026-13.006-9.026h-5z" fill="#fff" stroke="#676767"/><path d="M852.879 401.074c-4.999 0-9.613 3.416-13.005 9.128-3.385 5.701-5.495 13.61-5.495 22.372 0 8.763 2.11 16.671 5.495 22.373 3.392 5.712 8.006 9.127 13.005 9.127 5 0 9.614-3.415 13.005-9.127 3.385-5.702 5.495-13.61 5.495-22.373 0-8.762-2.11-16.671-5.495-22.372-3.391-5.712-8.005-9.128-13.005-9.128z" fill="#fff" stroke="#676767"/><path d="M838.308 419.074c-1.238 4.131-1.929 8.711-1.929 13.5s.691 9.37 1.929 13.5m13.071-41c8.837 0 16 12.313 16 27.5 0 15.188-7.163 27.5-16 27.5m-22.5-17.5h4.5m4.5-37h3.5m-11.5 41h4.5m-3 4h4.5" stroke="#676767"/><path d="M843.879 422.574h16v-4.5h-11m-5 7.5h16v5h-8v20.5h-3" stroke="#676767"/><path d="M698.129 357.934c0 3.529 2.464 6.988 6.579 9.593 4.099 2.596 9.755 4.282 15.921 4.282 6.166 0 11.822-1.686 15.922-4.282 4.114-2.605 6.578-6.064 6.578-9.593v-3.594c0-3.527-2.363-6.805-6.418-9.227-4.047-2.417-9.704-3.929-16.082-3.929-6.377 0-12.035 1.512-16.081 3.929-4.055 2.422-6.419 5.7-6.419 9.227v3.594z" fill="#fff" stroke="#676767"/><path d="M698.129 353.981c0 3.524 2.409 6.802 6.492 9.226 4.072 2.418 9.731 3.93 16.008 3.93 6.277 0 11.936-1.512 16.008-3.93 4.084-2.424 6.492-5.702 6.492-9.226 0-3.524-2.408-6.802-6.492-9.227-4.072-2.418-9.731-3.93-16.008-3.93-6.277 0-11.936 1.512-16.008 3.93-4.083 2.425-6.492 5.703-6.492 9.227z" fill="#fff" stroke="#676767"/><path d="M710.926 364.454c2.969.889 6.261 1.386 9.703 1.386 3.442 0 6.734-.497 9.703-1.386m-29.468-9.395c0-6.351 8.849-11.5 19.765-11.5s19.766 5.149 19.766 11.5m-12.578 16.172v-3.235m-26.594-3.234v-2.516m29.469 8.266v-3.234m2.875 2.156v-3.235" stroke="#676767"/><path d="M713.442 360.449v-11.5h-3.235v7.907m5.391 3.593v-11.5h3.594v5.75h14.734v2.157" stroke="#676767"/><path d="M781.129 504.824c0 5.005-3.491 9.871-9.243 13.513-5.739 3.633-13.644 5.987-22.257 5.987-8.612 0-16.518-2.354-22.256-5.987-5.753-3.642-9.244-8.508-9.244-13.513v-5c0-5.003 3.352-9.616 9.026-13.005 5.665-3.384 13.573-5.495 22.474-5.495 8.902 0 16.81 2.111 22.475 5.495 5.674 3.389 9.025 8.002 9.025 13.005v5z" fill="#fff" stroke="#676767"/><path d="M781.129 499.324c0 5-3.416 9.614-9.128 13.006-5.701 3.385-13.609 5.494-22.372 5.494-8.762 0-16.671-2.109-22.372-5.494-5.712-3.392-9.128-8.006-9.128-13.006 0-4.999 3.416-9.613 9.128-13.005 5.701-3.385 13.61-5.495 22.372-5.495 8.763 0 16.671 2.11 22.372 5.495 5.712 3.392 9.128 8.006 9.128 13.005z" fill="#fff" stroke="#676767"/><path d="M763.129 513.895c-4.131 1.238-8.711 1.929-13.5 1.929s-9.369-.691-13.5-1.929m41-13.071c0-8.836-12.312-16-27.5-16s-27.5 7.164-27.5 16m17.5 22.5v-4.5m37-4.5v-3.5m-41 11.5v-4.5m-4 3v-4.5" stroke="#676767"/><path d="M759.629 508.324v-16h4.5v11m-7.5 5v-16h-5v8h-20.5v3" stroke="#676767"/><path d="M781.129 496.824c0 5.005-3.491 9.871-9.243 13.513-5.739 3.633-13.644 5.987-22.257 5.987-8.612 0-16.518-2.354-22.256-5.987-5.753-3.642-9.244-8.508-9.244-13.513v-5c0-5.003 3.352-9.616 9.026-13.005 5.665-3.384 13.573-5.495 22.474-5.495 8.902 0 16.81 2.111 22.475 5.495 5.674 3.389 9.025 8.002 9.025 13.005v5z" fill="#fff" stroke="#676767"/><path d="M781.129 491.324c0 5-3.416 9.614-9.128 13.006-5.701 3.385-13.609 5.494-22.372 5.494-8.762 0-16.671-2.109-22.372-5.494-5.712-3.392-9.128-8.006-9.128-13.006 0-4.999 3.416-9.613 9.128-13.005 5.701-3.385 13.61-5.495 22.372-5.495 8.763 0 16.671 2.11 22.372 5.495 5.712 3.392 9.128 8.006 9.128 13.005z" fill="#fff" stroke="#676767"/><path d="M763.129 505.895c-4.131 1.238-8.711 1.929-13.5 1.929s-9.369-.691-13.5-1.929m41-13.071c0-8.836-12.312-16-27.5-16s-27.5 7.164-27.5 16m17.5 22.5v-4.5m37-4.5v-3.5m-41 11.5v-4.5m-4 3v-4.5" stroke="#676767"/><path d="M759.629 500.324v-16h4.5v11m-7.5 5v-16h-5v8h-20.5v3" stroke="#676767"/><path d="M781.129 488.824c0 5.005-3.491 9.871-9.243 13.513-5.739 3.633-13.644 5.987-22.257 5.987-8.612 0-16.518-2.354-22.256-5.987-5.753-3.642-9.244-8.508-9.244-13.513v-5c0-5.003 3.352-9.616 9.026-13.005 5.665-3.384 13.573-5.495 22.474-5.495 8.902 0 16.81 2.111 22.475 5.495 5.674 3.389 9.025 8.002 9.025 13.005v5z" fill="#fff" stroke="#676767"/><path d="M781.129 483.324c0 5-3.416 9.614-9.128 13.006-5.701 3.385-13.609 5.494-22.372 5.494-8.762 0-16.671-2.109-22.372-5.494-5.712-3.392-9.128-8.006-9.128-13.006 0-4.999 3.416-9.613 9.128-13.005 5.701-3.385 13.61-5.495 22.372-5.495 8.763 0 16.671 2.11 22.372 5.495 5.712 3.392 9.128 8.006 9.128 13.005z" fill="#fff" stroke="#676767"/><path d="M763.129 497.895c-4.131 1.238-8.711 1.929-13.5 1.929s-9.369-.691-13.5-1.929m41-13.071c0-8.836-12.312-16-27.5-16s-27.5 7.164-27.5 16m17.5 22.5v-4.5m37-4.5v-3.5m-41 11.5v-4.5m-4 3v-4.5" stroke="#676767"/><path d="M759.629 492.324v-16h4.5v11m-7.5 5v-16h-5v8h-20.5v3" stroke="#676767"/><defs><linearGradient id="paint0_linear_2016_1439" x1="891.023" y1="413.664" x2="1436.03" y2="728.326" gradientUnits="userSpaceOnUse"><stop stop-color="#D9D9D9"/><stop offset="1" stop-color="#D9D9D9" stop-opacity="0"/></linearGradient><linearGradient id="paint1_linear_2016_1439" x1="898.372" y1="417.906" x2="1046.42" y2="970.416" gradientUnits="userSpaceOnUse"><stop stop-color="#D9D9D9"/><stop offset="1" stop-color="#D9D9D9" stop-opacity="0"/></linearGradient><linearGradient id="paint2_linear_2016_1439" x1="897.147" y1="417.199" x2="596.627" y2="937.716" gradientUnits="userSpaceOnUse"><stop stop-color="#D9D9D9"/><stop offset="1" stop-color="#D9D9D9" stop-opacity="0"/></linearGradient><linearGradient id="paint3_linear_2016_1439" x1="892.576" y1="419.46" x2="1020.95" y2="898.559" gradientUnits="userSpaceOnUse"><stop stop-color="#D9D9D9"/><stop offset="1" stop-color="#D9D9D9" stop-opacity="0"/></linearGradient><linearGradient id="paint4_linear_2016_1439" x1="373.658" y1="469.469" x2="880.923" y2="762.339" gradientUnits="userSpaceOnUse"><stop stop-color="#D9D9D9"/><stop offset="1" stop-color="#D9D9D9" stop-opacity="0"/></linearGradient><linearGradient id="paint5_linear_2016_1439" x1="901.339" y1="421.253" x2="1010.56" y2="828.873" gradientUnits="userSpaceOnUse"><stop stop-color="#FC0100"/><stop offset="1" stop-color="#FC0100" stop-opacity="0"/></linearGradient></defs></svg>