<svg width="1468" height="1368" fill="none" xmlns="http://www.w3.org/2000/svg"><path d="M1410.06 848.658c-97.97-341.661-476.983-532.725-846.55-426.753-194.683 55.824-347.908 182.941-435.007 340.693" stroke="url(#paint0_linear_2016_1440)"/><path d="M212.438 512.327C387.455 331.092 753.983 401.114 1031.1 668.725c71.29 68.846 129.72 144.062 174.21 220.9" stroke="#D9D9D9"/><path d="M862.951 300.957c-14.524-1.821-32.746-1.561-33.744-1.568-248.022-1.864-453.927 302.777-460.556 682.532" stroke="url(#paint1_linear_2016_1440)"/><path d="M475.169 334.025c67.706-19.414 208.457 264.293 314.377 633.678" stroke="url(#paint2_linear_2016_1440)"/><path d="M1399.39 794.328c-106.61-371.783-494.421-586.752-866.205-480.144-197.59 56.658-350.886 192.744-435.157 363.638" stroke="url(#paint3_linear_2016_1440)"/><path d="M714.435 942.54c302.345-86.697 510.525-285.727 464.985-444.546-10.27-35.82-32.57-66.535-64.42-91.632" stroke="url(#paint4_linear_2016_1440)"/><path d="M963.293 402.283c-15.393-53.682-70.796-90.516-148.174-106.555-77.353-16.035-176.528-11.249-279.176 18.185-102.649 29.434-189.29 77.93-246.392 132.519-57.121 54.607-84.586 115.203-69.194 168.884 15.393 53.681 70.796 90.516 148.175 106.555 77.353 16.034 176.527 11.249 279.176-18.185 102.649-29.434 189.289-77.93 246.392-132.519 57.121-54.607 84.586-115.203 69.193-168.884z" stroke="#D9D9D9"/><path d="M767.728 392.503c-7.767-27.087-35.744-45.729-74.944-53.854-39.175-8.121-89.419-5.699-141.436 9.216-52.017 14.916-95.91 39.488-124.829 67.134-28.938 27.664-42.784 58.299-35.017 85.385 7.767 27.087 35.743 45.729 74.944 53.855 39.174 8.12 89.419 5.699 141.436-9.217 52.016-14.915 95.909-39.487 124.828-67.133 28.938-27.665 42.785-58.299 35.018-85.386z" stroke="#D9D9D9"/><path d="M859.133 274.771a.5.5 0 01.052-.705l3.409-2.937a.5.5 0 11.653.757l-3.03 2.611 2.611 3.031a.5.5 0 11-.757.652l-2.938-3.409zM168.197 694.66c19.756 68.899 90.853 116.143 190.077 136.711 99.199 20.562 226.371 14.424 357.991-23.318l.276.961c-131.744 37.777-259.083 43.938-358.47 23.336-99.361-20.596-170.926-67.98-190.836-137.414l.962-.276zm548.068 113.393c131.621-37.742 242.722-99.927 315.955-169.932 73.24-70.024 108.5-147.764 88.75-216.663l.96-.275c19.91 69.434-15.67 147.541-89.02 217.661-73.371 70.138-184.624 132.393-316.369 170.17l-.276-.961zm404.705-386.595c-12.12-42.251-43.54-76.354-88.92-101.164-45.383-24.81-104.711-40.309-172.575-45.35l.074-.998c67.962 5.049 127.439 20.573 172.981 45.471 45.55 24.899 77.19 59.189 89.4 101.766l-.96.275z" fill="url(#paint5_linear_2016_1440)"/><path d="M687.641 547.69v-38.184l202.03-116.636 52.764 30.548v77.757l-5.554 3.237 6.248 2.317v11.108l-17.373-6.942-72.187 42.067-.694.405-64.122 37.368c-2.405 1.401-4.576 3.815-6.231 6.942-1.994 3.769-3.238 8.573-3.238 13.885l-43.045 24.3-9.719 5.554-7.637 4.165c-.926-4.86-4.166-14.579-14.58-9.025-10.413 5.554-12.265 18.745-12.496 25.687l-14.58 8.332-47.904-27.771V599.76l1.111-8.331-1.805-1.389v-11.802l1.649 1.388v.695l1.128 2.082.694-3.471 3.472-10.414 43.738-25.687 8.331 4.859z" fill="#fff"/><path d="M687.641 547.69v-38.184m0 38.184l38.879 22.217m-38.879-22.217l-8.331-4.859-43.738 25.687m52.069-59.012l202.03-116.636 52.764 30.548m-254.794 86.088l53.458 30.548m201.336-116.636v77.757l-5.554 3.237m5.554-80.994L741.099 540.054m0 78.451l-14.579-8.331m14.579 8.331v-78.451m0 78.451l47.654-27.77m-62.233 19.439v-40.267m0 40.267v7.29m0-47.557l-43.044 25.687m-47.904-27.076l-3.472 10.414m3.472-10.414l47.904 27.076M632.1 578.932l47.904 27.076M632.1 578.932l-.694 3.471m-2.083 17.357v43.044l47.904 27.771m-47.904-70.815l47.904 27.77m-47.904-27.77l1.111-8.331m46.793 79.146l14.58-8.332c.231-6.942 2.083-20.133 12.496-25.687 10.414-5.554 13.654 4.165 14.58 9.025m-41.656 24.994V627.53m41.656 18.051l7.637-4.165m-7.637 4.165v10.414l-4.166-2.777m11.803-11.802l9.719-5.554m-9.719 5.554v-11.109m-49.293-2.777l2.777-21.522m0 0l3.472-10.414m105.277-4.859l64.122-37.368.694-.405m-64.816 37.773c-2.405 1.401-4.576 3.815-6.231 6.942m-3.238 13.885l-43.045 24.3m43.045-24.3l7.636 2.777m-7.636-2.777c0-5.312 1.244-10.116 3.238-13.885m-46.283 38.185v-10.414m0 0l-5.554-2.777-4.165 2.082m9.719.695l-9.719 4.859m0-5.554v5.554m0-5.554v-7.289m-38.879 4.512l6.943-6.942 8.331-4.629m-15.274 11.571v3.472l-4.165-1.389v-13.191m4.165 11.108v-9.719l-4.165-1.389m0 0v-5.554l19.439-10.863m0 0l4.165-2.328v15.968l-4.165 2.314m0-15.954v15.954m-6.248 8.1l4.165-2.083m-69.426-34.019l-1.128-2.082v-.695l-1.649-1.388v11.802l1.805 1.389m.972-9.026l-.972 9.026m.972 49.292l6.943 4.166m27.77 15.968l7.637 4.165m263.125-160.608l6.248 2.317v11.108l-17.373-6.942m11.125-6.483l-11.125 6.483m0 0l-72.187 42.067m12.497-1.106c-2.791 4.433-3.714 9.234-4.165 15.968l-9.026-4.166.694-10.696m-71.047 44.715l-44.894 26.382-11.108-6.595m-89.56-2.43l31.936 18.745v6.942l-4.513 4.166-23.257-13.191-4.166-7.637v-9.025zm29.159 36.796l8.331-9.026v19.439l-8.331-4.859v-5.554zm-34.713-29.159l6.943 13.191v5.554l-6.943-4.166v-14.579z" stroke="#676767"/><path d="M804.971 581.015v18.745l-2.777-.694m108.999-61.789l-5.554 3.471m-17.357 11.108l-6.248 2.777m47.21-27.77l2.777-2.083v-8.331l-6.248-4.86m-78.452 45.127v4.165l-40.267 23.605v-4.165" stroke="#676767"/><path d="M847.321 567.824v-4.166l-40.267 23.605v4.166l40.267-23.605zM713.36 655.933c-1.873 3.689-4.462 6.549-7.109 8.2-2.656 1.657-5.289 2.056-7.34 1.014s-3.282-3.402-3.512-6.524c-.228-3.112.553-6.889 2.427-10.578 1.873-3.69 4.462-6.549 7.109-8.2 2.656-1.658 5.288-2.056 7.34-1.014 2.051 1.041 3.282 3.402 3.511 6.524.229 3.111-.552 6.889-2.426 10.578z" fill="#fff" stroke="#676767"/><path d="M698.749 665.02l-6.942-2.777" stroke="#676767"/><path d="M710.636 654.598c-1.144 2.251-2.72 3.988-4.319 4.986-1.609 1.004-3.16 1.218-4.343.617-1.183-.6-1.925-1.979-2.064-3.87-.138-1.881.335-4.178 1.478-6.429 1.143-2.251 2.719-3.988 4.319-4.986 1.609-1.004 3.159-1.218 4.342-.618 1.184.601 1.925 1.98 2.064 3.871.138 1.88-.334 4.177-1.477 6.429z" fill="#fff" stroke="#676767"/><path d="M708.745 653.815c-.652 1.284-1.546 2.265-2.441 2.823-.904.564-1.726.655-2.325.351-.6-.304-1.011-1.022-1.089-2.085-.078-1.052.187-2.353.839-3.637.651-1.283 1.546-2.264 2.441-2.822.904-.565 1.726-.656 2.325-.351.599.304 1.011 1.022 1.089 2.084.078 1.052-.187 2.353-.839 3.637zm91.22-48.122c-1.73 3.408-4.121 6.048-6.563 7.571-2.452 1.53-4.872 1.892-6.754.937-1.881-.956-3.017-3.124-3.229-6.006-.211-2.87.51-6.358 2.241-9.766 1.731-3.409 4.121-6.049 6.564-7.572 2.451-1.53 4.872-1.892 6.753-.936 1.882.955 3.018 3.123 3.229 6.005.211 2.871-.51 6.359-2.241 9.767z" fill="#fff" stroke="#676767"/><path d="M797.445 604.458c-1.055 2.077-2.509 3.678-3.982 4.598-1.483.924-2.903 1.117-3.981.569-1.079-.547-1.761-1.807-1.889-3.55-.127-1.732.308-3.85 1.363-5.928s2.509-3.679 3.982-4.598c1.483-.925 2.902-1.117 3.981-.57 1.078.548 1.761 1.808 1.889 3.55.127 1.732-.308 3.851-1.363 5.929z" fill="#fff" stroke="#676767"/><path d="M796.52 595.594c.164 1.861-.293 4.12-1.406 6.313-1.708 3.362-4.451 5.571-6.805 5.736" stroke="#676767"/><path d="M880.266 559.436c-1.731 3.408-4.122 6.048-6.564 7.572-2.451 1.529-4.872 1.891-6.754.936-1.881-.955-3.017-3.124-3.228-6.006-.211-2.87.51-6.358 2.24-9.766 1.731-3.408 4.122-6.048 6.564-7.572 2.451-1.529 4.872-1.892 6.754-.936 1.881.955 3.017 3.123 3.229 6.005.21 2.871-.511 6.359-2.241 9.767z" fill="#fff" stroke="#676767"/><path d="M867.455 567.824l-5.554-2.083m29.158-11.802l-5.554-2.083m29.159-11.803l-5.554-2.082" stroke="#676767"/><path d="M877.745 558.2c-1.055 2.078-2.509 3.679-3.982 4.598-1.483.925-2.903 1.118-3.981.57-1.078-.547-1.761-1.807-1.889-3.55-.127-1.732.308-3.85 1.363-5.928s2.509-3.679 3.982-4.598c1.483-.925 2.903-1.118 3.981-.57 1.079.548 1.761 1.808 1.889 3.55.127 1.732-.308 3.851-1.363 5.928z" fill="#fff" stroke="#676767"/><path d="M876.82 549.338c.165 1.86-.293 4.119-1.406 6.312-1.707 3.362-4.451 5.571-6.805 5.736" stroke="#676767"/><path d="M903.871 545.551c-1.731 3.408-4.122 6.048-6.564 7.571-2.452 1.53-4.872 1.892-6.754.937-1.881-.956-3.017-3.124-3.229-6.006-.21-2.87.511-6.358 2.241-9.767 1.731-3.408 4.122-6.048 6.564-7.571 2.451-1.53 4.872-1.892 6.754-.937 1.881.956 3.017 3.124 3.228 6.006.211 2.871-.51 6.359-2.24 9.767z" fill="#fff" stroke="#676767"/><path d="M901.35 544.315c-1.055 2.078-2.509 3.679-3.982 4.598-1.483.925-2.903 1.118-3.981.57-1.079-.548-1.761-1.808-1.889-3.55-.127-1.732.308-3.851 1.363-5.928 1.055-2.078 2.509-3.679 3.982-4.598 1.483-.925 2.903-1.118 3.981-.57 1.079.547 1.761 1.807 1.889 3.55.127 1.732-.308 3.85-1.363 5.928z" fill="#fff" stroke="#676767"/><path d="M900.425 535.452c.165 1.861-.293 4.12-1.406 6.313-1.708 3.362-4.451 5.57-6.805 5.736" stroke="#676767"/><path d="M927.475 531.665c-1.73 3.409-4.121 6.049-6.563 7.572-2.452 1.529-4.872 1.892-6.754.936-1.881-.955-3.017-3.123-3.229-6.005-.21-2.871.51-6.359 2.241-9.767 1.731-3.408 4.121-6.048 6.564-7.571 2.451-1.53 4.872-1.892 6.753-.937 1.882.956 3.018 3.124 3.229 6.006.211 2.87-.51 6.358-2.241 9.766z" fill="#fff" stroke="#676767"/><path d="M924.955 530.43c-1.055 2.078-2.509 3.679-3.982 4.598-1.483.925-2.903 1.117-3.981.57-1.079-.548-1.761-1.808-1.889-3.551-.127-1.731.308-3.85 1.363-5.928s2.509-3.679 3.982-4.598c1.483-.925 2.902-1.117 3.981-.569 1.078.547 1.761 1.807 1.889 3.55.127 1.732-.308 3.85-1.363 5.928z" fill="#fff" stroke="#676767"/><path d="M924.03 521.567c.164 1.861-.293 4.12-1.406 6.312-1.708 3.363-4.451 5.571-6.805 5.737m-224.617-63.725l-16.253-9.702m-19.025-11.324l-8.062-4.799 5.039-3.023m3.023 7.822l9.512 5.662m-9.512-5.662l3.849-2.244m23.358 18.439l3.598-2.329m-11.78-2.542l-9.513-5.662m9.513 5.662l3.628-2.34m-13.141-3.322l3.588-2.399" stroke="#676767"/><path d="M740.569 400.736v35.269l-49.376 29.222-38.292-23.176v-36.277l50.384-26.2 37.284 21.162z" fill="#fff" stroke="#676767"/><path d="M740.569 400.736l-49.376 28.215-38.292-23.177" stroke="#676767"/><path d="M740.569 418.874l-49.376 28.215-38.292-23.177" stroke="#676767"/><path d="M707.316 419.882l-37.163-23.003-3.946 1.973 37.078 23.045v9.069l4.031-2.015v-9.069z" fill="#fff"/><path d="M707.316 419.882l-37.163-23.003-3.946 1.973 37.078 23.045m4.031-2.015v9.069l-4.031 2.015v-9.069m4.031-2.015l-4.031 2.015" stroke="#676767"/><path d="M731.5 405.774l-36.023-22.05-3.946 1.973 35.938 22.75v8.412l4.031-2.016v-9.069z" fill="#fff"/><path d="M731.5 405.774l-36.023-22.05-3.946 1.973 35.938 22.75m4.031-2.673v9.069l-4.031 2.016v-8.412m4.031-2.673l-4.031 2.673" stroke="#676767"/><path d="M707.316 447.089v-9.069l-4.031 2.015v9.07l4.031-2.016z" fill="#fff" stroke="#676767"/><path d="M679.362 392.275l36.015 22.568v35.269" stroke="#676767"/><path d="M731.5 432.982v-8.909l-4.031 2.405v8.519l4.031-2.015z" fill="#fff" stroke="#676767"/><path d="M691.193 428.951v36.276m-43.564-21.133v1.915l43.659 25.855 55.423-31.264v-2.015m-55.423 31.306l55.423-31.306m0 0l-6.177-3.556m-17.658 19.075v3.319l-6.046 3.259m0 0l-3.264-1.315m3.264 1.315v-3.259m27.095-15.158v3.318l-6.046 3.259m0 0l-3.265-1.315m3.265 1.315v-3.259m-40.545 22.992v2.997l-6.046 3.373m0 0v-3.081m0 3.081l-7.979-4.726v-2.959m-24.666-15.129l-3.631 1.611m0 0l-6.046-3.373v-3.5m6.046 6.873v-3.584m20.404 11.84l-3.324 1.863m0 0l-6.262-3.373v-3.424m6.262 6.797v-3.508" stroke="#676767"/><path d="M748.711 270.931h0l-.009.001a7.794 7.794 0 00-1.895.53c-3.092 1.307-5.109 4.538-5.787 8.847-.676 4.3 0 9.593 2.219 14.845l.002.004 13.286 30.156 6.947-5.052 9.867-16.684c.981-2.35 1.659-5.758 1.724-9.451.066-3.708-.486-7.661-1.931-11.079-4.419-10.455-12.67-13.942-19.597-12.922l-4.826.805z" fill="#fff" stroke="#676767"/><path d="M746.567 292.817c1.404 3.954 3.63 7.146 6.07 9.116 2.448 1.977 5.035 2.675 7.227 1.841 2.191-.833 3.727-3.098 4.356-6.245.628-3.136.329-7.06-1.075-11.015-1.404-3.954-3.63-7.146-6.07-9.116-2.448-1.977-5.035-2.674-7.227-1.841-2.191.833-3.727 3.098-4.357 6.245-.627 3.136-.328 7.06 1.076 11.015z" stroke="#676767"/><path d="M752.591 275.727c-1.311 3.494-1.232 8.408.517 13.335 2.085 5.876 5.97 10.146 9.797 11.311" stroke="#676767"/><path d="M548.496 512.916h0l.008.002a17.86 17.86 0 014.352 1.217c7.122 3.01 11.676 10.413 13.199 20.089 1.521 9.667-.003 21.522-4.964 33.26l-.002.004-29.776 67.586-16.12-11.724-21.97-37.15c-2.223-5.299-3.741-12.956-3.888-21.225-.146-8.283 1.085-17.14 4.331-24.82 9.902-23.428 28.462-31.332 44.12-29.024l10.71 1.785z" fill="#fff" stroke="#676767"/><path d="M553.721 562.275c-3.144 8.859-8.14 16.036-13.65 20.486-5.519 4.457-11.478 6.128-16.615 4.176-5.136-1.953-8.633-7.219-10.052-14.313-1.416-7.084-.735-15.901 2.409-24.76 3.144-8.858 8.14-16.035 13.65-20.485 5.519-4.457 11.478-6.128 16.615-4.176 5.136 1.953 8.633 7.219 10.052 14.313 1.416 7.084.735 15.901-2.409 24.759z" stroke="#676767"/><path d="M539.791 524.155c2.906 7.749 2.732 18.648-1.147 29.575-4.625 13.033-13.242 22.504-21.729 25.088" stroke="#676767"/><path d="M521.556 296.924h0l.009.002c.453.067.893.188 1.318.368 2.144.906 3.564 3.157 4.044 6.204.478 3.037.001 6.787-1.574 10.514l-.001.003-9.409 21.356-4.79-3.483-7.02-11.872c-.69-1.656-1.17-4.066-1.216-6.683-.046-2.631.345-5.431 1.367-7.848 3.129-7.404 8.957-9.852 13.83-9.135l3.442.574z" fill="#fff" stroke="#676767"/><path d="M522.976 312.35c-.994 2.802-2.569 5.056-4.287 6.443-1.726 1.394-3.521 1.862-5.019 1.292-1.499-.57-2.574-2.129-3.018-4.348-.442-2.208-.232-4.981.762-7.783.994-2.801 2.57-5.055 4.287-6.443 1.726-1.393 3.521-1.862 5.02-1.292 1.499.57 2.574 2.129 3.017 4.348.442 2.208.233 4.981-.762 7.783z" stroke="#676767"/><path d="M518.812 300.206c.935 2.493.879 5.999-.369 9.515-1.489 4.193-4.261 7.241-6.992 8.072" stroke="#676767"/><defs><linearGradient id="paint0_linear_2016_1440" x1="576.52" y1="413.664" x2="31.509" y2="728.326" gradientUnits="userSpaceOnUse"><stop stop-color="#D9D9D9"/><stop offset="1" stop-color="#D9D9D9" stop-opacity="0"/></linearGradient><linearGradient id="paint1_linear_2016_1440" x1="569.172" y1="417.906" x2="421.127" y2="970.416" gradientUnits="userSpaceOnUse"><stop stop-color="#D9D9D9"/><stop offset="1" stop-color="#D9D9D9" stop-opacity="0"/></linearGradient><linearGradient id="paint2_linear_2016_1440" x1="570.396" y1="417.199" x2="870.917" y2="937.716" gradientUnits="userSpaceOnUse"><stop stop-color="#D9D9D9"/><stop offset="1" stop-color="#D9D9D9" stop-opacity="0"/></linearGradient><linearGradient id="paint3_linear_2016_1440" x1="574.967" y1="419.459" x2="446.593" y2="898.559" gradientUnits="userSpaceOnUse"><stop stop-color="#D9D9D9"/><stop offset="1" stop-color="#D9D9D9" stop-opacity="0"/></linearGradient><linearGradient id="paint4_linear_2016_1440" x1="1093.89" y1="469.47" x2="586.621" y2="762.339" gradientUnits="userSpaceOnUse"><stop stop-color="#D9D9D9"/><stop offset="1" stop-color="#D9D9D9" stop-opacity="0"/></linearGradient><linearGradient id="paint5_linear_2016_1440" x1="566.205" y1="421.253" x2="456.983" y2="828.873" gradientUnits="userSpaceOnUse"><stop stop-color="#FC0100"/><stop offset="1" stop-color="#FC0100" stop-opacity="0"/></linearGradient></defs></svg>