<svg width="45" height="45" fill="none" xmlns="http://www.w3.org/2000/svg"><circle cx="22.5" cy="22.5" r="22" stroke="#1A1A1A"/><path d="M33.5 3.5c.167 1 .3 3.4-.5 5-1 2-1.5 2.5-3 2.5s-3.5 0-4 .5-3 3.5-4.5 3.5-3 1.5-1.5 2 7-.5 8 0 2 1 2 2-2 3-2.5 3-3.5.5-5 0-3-1.5-4.5-1.5-4.5 2.5-4.5 3.5-1 4.5 0 5.5 1.5 2 3 2.5 3 .5 4 1 1 4 1.5 4.5.5 3 1.5 3.5 2 1 2.5 0 3.5-2.5 3.5-3.5V32c0-1 2-1 2-2.5s-.5-1.5-1-3-1-2 0-2.5 2.5 1 3.5 1 2.5-1 2.5-1.5-1-.5-1-2 1.5-2.5 2-2.5 1 1 2 1c.8 0 3.5-2.167 4.5-3M17.5 1c.5.167 1.6.8 2 2 .5 1.5-2 3.5-2 4.5s.5 2.5 1.5 2 2.5-4.5 4.5-5C25.1 4.1 27.167 2 28 1M9.5 4.5c.667 2.167 1.8 6.7 1 7.5-1 1-4 1.5-5 3.5s-2 5-3 5.5c-.8.4-1.667 1.167-2 1.5m1 6c1.333.167 4.2.8 5 2 1 1.5 4 4 4.5 5 .4.8.5 4.333.5 6" stroke="#1A1A1A"/><circle cx="35.5" cy="12.5" r="1" stroke="#FC0100"/><circle cx="25.5" cy="33.5" r="1" stroke="#FC0100"/><circle cx="19.5" cy="24.5" r="1" stroke="#FC0100"/></svg>