<svg width="38" height="45" fill="none" xmlns="http://www.w3.org/2000/svg"><circle cx="19" cy="26" r="18.5" stroke="#1A1A1A"/><circle cx="19" cy="26" r="2.5" stroke="#FC0100"/><path d="M34 26c0-8.284-6.716-15-15-15" stroke="#FC0100"/><rect x=".707" y="10.536" width="4" height="3.571" rx=".5" transform="rotate(-45 .707 10.536)" stroke="#1A1A1A"/><rect x="14.5" y=".5" width="9" height="5" rx="1.5" stroke="#1A1A1A"/><path stroke="#1A1A1A" d="M20.5 4v4m-3-4v4M4.94 11.232L6.206 12.5m-2.266-.268L5.206 13.5"/><rect x="-.707" width="4" height="3.571" rx=".5" transform="scale(-1 1) rotate(-45 -6.166 49.15)" stroke="#1A1A1A"/><path d="M32.828 11.232L31.56 12.5m2.268-.268L32.56 13.5" stroke="#1A1A1A"/><path stroke="#FC0100" d="M22 25.5h12"/><path stroke="#1A1A1A" d="M6 25.5H4M18.5 41v-2m-7.433-.384l1-1.732m-6.183-3.817l1.732-1m18.951 6.549l-1-1.732m6.183-3.817l-1.732-1M11.067 12.75l1 1.732m-6.183 3.817l1.732 1"/></svg>