<svg width="47" height="46" fill="none" xmlns="http://www.w3.org/2000/svg"><rect x="1" y="1" width="29" height="7" rx="3" stroke="#1A1A1A"/><path d="M31.26 37.8V23.7h.96v14.1h-.96zm.375-1.68a7.3 7.3 0 01-2.295-.36c-.73-.25-1.305-.57-1.725-.96l.555-1.17c.4.35.91.64 1.53.87.62.23 1.265.345 1.935.345.61 0 1.105-.07 1.485-.21.38-.14.66-.33.84-.57.18-.25.27-.53.27-.84 0-.36-.12-.65-.36-.87-.23-.22-.535-.395-.915-.525-.37-.14-.78-.26-1.23-.36-.45-.1-.905-.215-1.365-.345a6.65 6.65 0 01-1.245-.525 2.59 2.59 0 01-.9-.84c-.23-.36-.345-.82-.345-1.38 0-.54.14-1.035.42-1.485.29-.46.73-.825 1.32-1.095.6-.28 1.36-.42 2.28-.42.61 0 1.215.08 1.815.24.6.16 1.12.39 1.56.69l-.495 1.2a4.68 4.68 0 00-1.425-.645c-.5-.14-.985-.21-1.455-.21-.59 0-1.075.075-1.455.225-.38.15-.66.35-.84.6-.17.25-.255.53-.255.84 0 .37.115.665.345.885.24.22.545.395.915.525.38.13.795.25 1.245.36.45.1.9.215 1.35.345.46.13.875.3 1.245.51.38.21.685.49.915.84.23.35.345.8.345 1.35 0 .53-.145 1.025-.435 1.485-.29.45-.74.815-1.35 1.095-.6.27-1.36.405-2.28.405z" fill="#FC0100"/><rect x="12" y="8" width="29" height="7" rx="3" stroke="#1A1A1A"/><path d="M35 15H9a3 3 0 00-3 3v1a3 3 0 003 3h11.5m0 0H9a3 3 0 00-3 3v1a3 3 0 003 3h8.5m0 0H9a3 3 0 00-3 3v1a3 3 0 003 3h9.5m0 0H9a3 3 0 00-3 3v1a3 3 0 003 3h14.5" stroke="#1A1A1A"/><circle cx="32" cy="31" r="14.5" stroke="#1A1A1A"/><path d="M32 42c-.95 0-1.871-.12-2.75-.346M32 20c.786 0 1.553.082 2.292.24M22.22 25.957A10.953 10.953 0 0021 31c0 4.44 2.63 8.265 6.417 10.003m13.831-4.045A10.949 10.949 0 0043 31c0-4.44-2.63-8.265-6.417-10.003" stroke="#1A1A1A"/></svg>