<svg width="39" height="45" fill="none" xmlns="http://www.w3.org/2000/svg"><path d="M17.032 27v4l-2 3m2-7c-3.454-2.468-5.633-4.993-6.984-8m6.984 8h2.5m-4.5 7h-2v6m2-6h9m-11 6h-4l-1 1v3h23v-3l-1-1h-4m-13 0h13m0 0v-6h-2m0 0l-2-3v-4m0 0c3.66-2.201 5.948-4.658 7.311-8m-7.311 8h-2.5m12-22h5.5c.84.008 1.077.203 1 1-1.917 7.477-3.968 10.074-8.689 13m0 0c1.64-4.02 1.942-9.32 1.689-17-.04-.678-.228-.927-1-1h-21c-.75.021-.959.268-1 1-.021 1.042-.034 2.04-.036 3m0 0H2.032c-.922-.027-1.121.197-1 1 1.558 6.71 3.324 9.733 9.016 13M7.996 5c-.014 5.91.397 10.316 2.052 14m9.484 8v1.5" stroke="#1A1A1A"/><path d="M19.532 8.264l1.298 3.015.118.273.295.027 3.269.303-2.466 2.166-.223.196.065.29.721 3.202-2.822-1.676-.255-.151-.255.151-2.823 1.676.722-3.202.065-.29-.223-.196-2.466-2.166 3.269-.303.295-.027.118-.273 1.298-3.015z" stroke="#FC0100"/></svg>