<svg width="630" height="630" fill="none" xmlns="http://www.w3.org/2000/svg"><circle cx="314.515" cy="314.515" r="228.704" transform="rotate(-31 314.515 314.515)" stroke="#21F3E2"/><path d="M509.453 197.385c33.981 56.554-25.749 154.84-133.41 219.53-107.661 64.689-222.484 71.284-256.465 14.731" stroke="#21F3E2"/><path d="M477.649 154.845c33.182 55.222-25.143 151.196-130.271 214.364-105.127 63.167-217.249 69.607-250.43 14.384" stroke="#21F3E2"/><path d="M89.24 278.199c-1.102 13.226 1.273 25.42 7.554 35.874 27.851 46.351 121.961 40.946 210.201-12.074 88.24-53.02 137.195-133.576 109.344-179.928-6.282-10.454-15.934-18.275-28.128-23.511M185.154 502.532c44.217 31.449 135.977 19.59 222.769-32.56 86.793-52.15 140.342-127.602 133.333-181.407" stroke="#21F3E2"/><path d="M272.849 537.814c39.999 8.186 98.13-5.029 153.769-38.46 55.639-33.431 94.598-78.554 106.148-117.714m-193.15-272c-9.317-15.507-29.789-22.454-55.563-20.972-25.748 1.48-56.643 11.372-86.565 29.35-29.921 17.979-53.16 40.613-66.554 62.653-13.408 22.062-16.885 43.398-7.568 58.905 9.317 15.506 29.788 22.453 55.563 20.972 25.748-1.48 56.643-11.373 86.564-29.351 29.921-17.978 53.16-40.613 66.555-62.653 13.408-22.062 16.885-43.398 7.568-58.904z" stroke="#21F3E2"/><path d="M276.961 123.114c-4.654-7.744-14.913-11.263-27.947-10.514-13.008.747-28.635 5.747-43.779 14.847-15.144 9.099-26.896 20.55-33.663 31.684-6.78 11.157-8.49 21.868-3.836 29.612 4.653 7.745 14.913 11.264 27.947 10.515 13.008-.748 28.635-5.748 43.779-14.847 15.144-9.1 26.895-20.55 33.662-31.685 6.781-11.157 8.49-21.867 3.837-29.612z" stroke="#21F3E2"/></svg>