<svg width="630" height="630" fill="none" xmlns="http://www.w3.org/2000/svg"><circle cx="314.515" cy="314.515" r="228.704" transform="rotate(-31 314.515 314.515)" stroke="url(#paint0_radial_2048_1547)" stroke-opacity=".5"/><path d="M515.521 206.957c-34.03-56.635-149.021-50.03-256.838 14.753-107.817 64.783-167.634 163.213-133.604 219.848" stroke="url(#paint1_radial_2048_1547)" stroke-opacity=".5"/><path d="M476.12 155.763c-32.914-54.779-144.135-48.391-248.419 14.269-104.283 62.66-162.139 157.863-129.224 212.642" stroke="url(#paint2_radial_2048_1547)" stroke-opacity=".5"/><path d="M418.543 122.276c-27.984-46.573-122.545-41.142-211.207 12.132-88.662 53.273-137.85 134.215-109.867 180.789" stroke="url(#paint3_radial_2048_1547)" stroke-opacity=".5"/><path d="M533.964 263.392c15.914 26.486 9.939 62.852-12.842 100.338-22.767 37.463-62.252 75.917-113.072 106.453-50.82 30.535-103.31 47.346-147.077 49.86-43.793 2.516-78.708-9.281-94.622-35.767-15.914-26.485-9.939-62.851 12.842-100.338 22.767-37.463 62.253-75.917 113.073-106.453 50.82-30.535 103.309-47.346 147.076-49.86 43.794-2.515 78.708 9.281 94.622 35.767z" stroke="url(#paint4_radial_2048_1547)" stroke-opacity=".5"/><path d="M530.062 329.625c13.048 21.716 8.157 51.553-10.553 82.339-18.696 30.764-51.126 62.346-92.868 87.427-41.743 25.082-84.853 38.888-120.793 40.954-35.967 2.067-64.607-7.623-77.655-29.338-13.048-21.716-8.158-51.553 10.553-82.339 18.696-30.763 51.125-62.346 92.868-87.427 41.743-25.082 84.853-38.888 120.793-40.954 35.967-2.067 64.607 7.623 77.655 29.338z" stroke="url(#paint5_radial_2048_1547)" stroke-opacity=".5"/><path d="M506.813 387.903c9.318 15.507 5.841 36.843-7.567 58.905-13.395 22.04-36.634 44.674-66.555 62.653-29.921 17.978-60.817 27.871-86.565 29.35-25.774 1.482-46.245-5.465-55.562-20.972-9.317-15.506-5.841-36.842 7.568-58.904 13.394-22.04 36.633-44.675 66.554-62.653s60.817-27.871 86.565-29.351c25.774-1.481 46.245 5.466 55.562 20.972z" stroke="url(#paint6_radial_2048_1547)" stroke-opacity=".5"/><path d="M465.501 436.898c4.654 7.745 2.945 18.456-3.836 29.613-6.767 11.134-18.518 22.584-33.662 31.684-15.145 9.099-30.771 14.1-43.78 14.847-13.034.749-23.293-2.77-27.947-10.514-4.653-7.745-2.944-18.456 3.837-29.613 6.767-11.134 18.518-22.585 33.662-31.684 15.144-9.099 30.771-14.1 43.779-14.847 13.035-.749 23.294 2.77 27.947 10.514z" stroke="url(#paint7_radial_2048_1547)" stroke-opacity=".5"/><path d="M339.616 109.64c-9.317-15.507-29.789-22.454-55.563-20.972-25.748 1.48-56.643 11.372-86.565 29.35-29.921 17.979-53.16 40.613-66.554 62.653-13.408 22.062-16.885 43.398-7.568 58.905 9.317 15.506 29.788 22.453 55.563 20.972 25.748-1.48 56.643-11.373 86.564-29.351 29.921-17.978 53.16-40.613 66.555-62.653 13.408-22.062 16.885-43.398 7.568-58.904z" stroke="url(#paint8_radial_2048_1547)" stroke-opacity=".5"/><path d="M276.961 123.114c-4.654-7.744-14.913-11.263-27.947-10.514-13.008.747-28.635 5.747-43.779 14.847-15.144 9.099-26.896 20.55-33.663 31.684-6.78 11.157-8.49 21.868-3.836 29.612 4.653 7.745 14.913 11.264 27.947 10.515 13.008-.748 28.635-5.748 43.779-14.847 15.144-9.1 26.895-20.55 33.662-31.685 6.781-11.157 8.49-21.867 3.837-29.612z" stroke="url(#paint9_radial_2048_1547)" stroke-opacity=".5"/><defs><radialGradient id="paint0_radial_2048_1547" cx="0" cy="0" r="1" gradientUnits="userSpaceOnUse" gradientTransform="scale(229.204 458.409) rotate(90 .093 1.28)"><stop stop-color="#21F3E2"/><stop offset="1" stop-color="#21F3E2"/></radialGradient><radialGradient id="paint1_radial_2048_1547" cx="0" cy="0" r="1" gradientUnits="userSpaceOnUse" gradientTransform="rotate(59 -126.412 445.193) scale(119.636 227.751)"><stop stop-color="#21F3E2"/><stop offset="1" stop-color="#21F3E2"/></radialGradient><radialGradient id="paint2_radial_2048_1547" cx="0" cy="0" r="1" gradientUnits="userSpaceOnUse" gradientTransform="matrix(59.59712 99.18626 -188.82196 113.45568 287.299 269.219)"><stop stop-color="#21F3E2"/><stop offset="1" stop-color="#21F3E2"/></radialGradient><radialGradient id="paint3_radial_2048_1547" cx="0" cy="0" r="1" gradientUnits="userSpaceOnUse" gradientTransform="rotate(59 -64.304 337.38) scale(98.3806 187.288)"><stop stop-color="#21F3E2"/><stop offset="1" stop-color="#21F3E2"/></radialGradient><radialGradient id="paint4_radial_2048_1547" cx="0" cy="0" r="1" gradientUnits="userSpaceOnUse" gradientTransform="rotate(59 -211.748 596.146) scale(225.807 214.935)"><stop stop-color="#21F3E2"/><stop offset="1" stop-color="#21F3E2"/></radialGradient><radialGradient id="paint5_radial_2048_1547" cx="0" cy="0" r="1" gradientUnits="userSpaceOnUse" gradientTransform="matrix(95.54162 159.00796 -151.36289 90.948 426.898 499.82)"><stop stop-color="#21F3E2"/><stop offset="1" stop-color="#21F3E2"/></radialGradient><radialGradient id="paint6_radial_2048_1547" cx="0" cy="0" r="1" gradientUnits="userSpaceOnUse" gradientTransform="matrix(68.51964 114.03582 -108.55338 65.22545 432.948 509.889)"><stop stop-color="#21F3E2"/><stop offset="1" stop-color="#21F3E2"/></radialGradient><radialGradient id="paint7_radial_2048_1547" cx="0" cy="0" r="1" gradientUnits="userSpaceOnUse" gradientTransform="matrix(34.7424 57.82108 -55.0412 33.07209 428.26 498.623)"><stop stop-color="#21F3E2"/><stop offset="1" stop-color="#21F3E2"/></radialGradient><radialGradient id="paint8_radial_2048_1547" cx="0" cy="0" r="1" gradientUnits="userSpaceOnUse" gradientTransform="rotate(-121 131.88 3.001) scale(133.038 126.642)"><stop stop-color="#21F3E2"/><stop offset="1" stop-color="#21F3E2"/></radialGradient><radialGradient id="paint9_radial_2048_1547" cx="0" cy="0" r="1" gradientUnits="userSpaceOnUse" gradientTransform="matrix(-34.7424 -57.82108 55.0412 -33.07209 204.977 127.018)"><stop stop-color="#21F3E2"/><stop offset="1" stop-color="#21F3E2"/></radialGradient></defs></svg>