<svg width="1622" height="945" fill="none" xmlns="http://www.w3.org/2000/svg"><path d="M1110.22 811.284c-70.57 34.952-210.008-102.744-311.441-307.551-101.433-204.808-126.452-399.17-55.881-434.121" stroke="#21F3E2" stroke-opacity=".4"/><path d="M1232.39 343.264c25.33 78.069-88.06 184.819-253.275 238.433-165.212 53.614-319.68 33.789-345.015-44.28" stroke="#21F3E2" stroke-opacity=".4"/><path d="M1110.22 811.285c70.57-34.952 45.55-229.314-55.88-434.121C952.906 172.356 813.47 34.661 742.899 69.612" stroke="#21F3E2" stroke-opacity=".2"/><path d="M1232.39 343.264c-25.34-78.069-179.81-97.893-345.019-44.279C722.159 352.599 608.766 459.349 634.1 537.417" stroke="#21F3E2" stroke-opacity=".2"/><circle cx="934.5" cy="437.5" r="437.5" fill="url(#paint0_radial_2046_1820)" fill-opacity=".5"/><circle cx="933.5" cy="437.5" r="314" stroke="#21F3E2" stroke-opacity=".4"/><circle cx="933.5" cy="437.5" r="414" stroke="#21F3E2" stroke-opacity=".1"/><path d="M852.442 741.695c-63.611-17.044-117.416-52.416-157.258-98.912m297.701-513.696c73.465 14.102 136.015 52.704 180.815 105.714" stroke="#FC0100" stroke-width="2"/><path d="M.055 64.48a.801.801 0 111.603 0 .801.801 0 01-1.603 0zm31.525 47.379a.801.801 0 111.603 0 .801.801 0 01-1.603 0zM12.69 219.357a1.603 1.603 0 113.206 0 1.603 1.603 0 01-3.206 0zm83.228 334.338a1.603 1.603 0 113.206 0 1.603 1.603 0 01-3.206 0zM53.24 530.426a.801.801 0 101.136 1.13.801.801 0 00-1.136-1.13zm-4.442 168.748a1.603 1.603 0 112.262-2.273 1.603 1.603 0 01-2.262 2.273zm222.158-73.414a1.603 1.603 0 102.273 2.261 1.603 1.603 0 00-2.273-2.261zm-46.755 70.334a.8.8 0 111.13-1.136.8.8 0 01-1.13 1.136zM51.917 66.684a1.603 1.603 0 10-.001 3.205 1.603 1.603 0 000-3.205zM18 525.693a.801.801 0 111.603 0 .801.801 0 01-1.603 0zm8.436-114.421a.801.801 0 101.135 1.13.801.801 0 00-1.135-1.13zm6.534 107.96a.8.8 0 101.136 1.13.8.8 0 00-1.135-1.13zm92.262-63.234a1.602 1.602 0 102.273 2.26 1.602 1.602 0 10-2.273-2.26zM49.25 472.82a1.602 1.602 0 112.259-2.272 1.602 1.602 0 01-2.26 2.272zm673.503-98.478a.801.801 0 11-1.602 0 .801.801 0 011.602 0zM614.42 430.796a.802.802 0 11-1.603-.001.802.802 0 011.603.001zm11.525 207.38a.802.802 0 11-1.603-.001.802.802 0 011.603.001zm7.365-314.878a1.603 1.603 0 11-3.207 0 1.603 1.603 0 013.207 0zm161.346 253.465a1.602 1.602 0 11-3.204 0 1.602 1.602 0 013.204 0zm-218.97 57.605a1.603 1.603 0 11-3.206 0 1.603 1.603 0 013.206 0zM760.082 138.96a1.603 1.603 0 11-3.206 0 1.603 1.603 0 013.206 0zM838 166.962a.802.802 0 11-1.603-.001.802.802 0 011.603.001zm-265.243 4.134a.8.8 0 11-1.13 1.136.8.8 0 011.13-1.136zm46.804-40.846a.8.8 0 11-1.13 1.135.8.8 0 111.13-1.135zm203.465 42.04a.8.8 0 11-1.13 1.136.8.8 0 011.13-1.136zM520.762 84.391a1.602 1.602 0 11-2.26 2.272 1.602 1.602 0 012.26-2.272zm266.44 69.09a1.602 1.602 0 11-2.262 2.272 1.602 1.602 0 112.262-2.272zm19.549 66.354a1.602 1.602 0 11-2.262 2.272 1.603 1.603 0 012.262-2.272zM355.038 74.628a1.603 1.603 0 11-2.261 2.272 1.603 1.603 0 012.261-2.272zM938.4 115.319a.999.999 0 11-1.41 1.418 1 1 0 111.41-1.418zm-58.337 87.784a2 2 0 10-2.837-2.822 2 2 0 002.837 2.822zm559.207-64.412c.79.779.79 2.046.01 2.829a2.002 2.002 0 01-2.84-2.822 2.002 2.002 0 012.83-.007zm-267.56 23.4a1 1 0 10-1.416-1.414 1 1 0 001.416 1.414zm208.77 158.173c0 1.105-.89 2-2 2-1.1 0-2-.895-2-2 0-1.104.9-2 2-2 1.11 0 2 .896 2 2zm-158.17 230.074c0 1.104-.9 2-2 2-1.11 0-2-.896-2-2 0-1.105.89-2 2-2 1.1 0 2 .895 2 2zm110.59 64.708c.56 0 1-.448 1-1a1.001 1.001 0 10-1 1zm-134.16 69.46c0 .552-.45 1-1 1-.56 0-1-.448-1-1a1.001 1.001 0 012 0zm14.38 258.832c0 .552-.45 1-1 1-.56 0-1-.448-1-1s.44-1 1-1c.55 0 1 .448 1 1zm208.5-74.65c1.1 0 2-.895 2-2 0-1.104-.9-2-2-2s-2 .896-2 2c0 1.105.9 2 2 2zm-273.21 71.898c1.1 0 2-.895 2-2s-.9-2-2-2c-1.11 0-2 .895-2 2s.89 2 2 2zm329.29-585.373a1.001 1.001 0 01-2 0c0-.552.45-1 1-1s1 .448 1 1zm-272.54-44.406a1.01 1.01 0 00-.01-1.414 1 1 0 10.01 1.414zm253.86 52.47a1 1 0 000-1.414 1.007 1.007 0 00-1.42.004.992.992 0 00.01 1.414.995.995 0 001.41-.004zm-377.13-108.292c.77-.783.77-2.05-.01-2.829a2.002 2.002 0 00-2.83.007c-.78.783-.78 2.05.01 2.829.78.779 2.05.776 2.83-.007zm356.82 166.219c.78.78.79 2.046.01 2.829a2.002 2.002 0 01-2.84-2.822 2.002 2.002 0 012.83-.007zM336.352 356.9a1 1 0 111.998-.002 1 1 0 01-1.998.002zm135.167-70.46a1 1 0 112 0 1 1 0 01-2 0zm-34.379-98.833a1 1 0 112 0 1 1 0 01-2 0zm10.81 233.001a2 2 0 113.999-.001 2 2 0 01-3.999.001zM246.636 104.257a2 2 0 114.001.001 2 2 0 01-4.001-.001zm253.212 88.102a2 2 0 114 0 2 2 0 01-4 0zM289.775 650.681a2 2 0 113.999-.001 2 2 0 01-3.999.001zm-97.219-34.949a1 1 0 112 0 1 1 0 01-2 0zm305.993 194.537a1.001 1.001 0 111.412-1.419 1.001 1.001 0 01-1.412 1.419zm-33.445-148.716a1.001 1.001 0 111.413-1.418 1.001 1.001 0 01-1.413 1.418zm-253.865-52.471a1 1 0 111.41-1.418 1 1 0 01-1.41 1.418zm377.139 109.707a2 2 0 112.82-2.835 2 2 0 01-2.82 2.835zM230.983 832.254a2 2 0 112.82-2.835 2 2 0 01-2.82 2.835zm.563-282.513a2 2 0 112.823-2.836 2 2 0 01-2.823 2.836zM770.2 930.671a2 2 0 112.82-2.836 2 2 0 01-2.82 2.836z" fill="#fff" fill-opacity=".3"/><path fill-rule="evenodd" clip-rule="evenodd" d="M910.068 184.586c-2.273.089-4.168-.888-5.389-2.557l.094 2.413-3.357.131-.921-23.607 3.358-.131.369 9.478c1.088-1.758 2.902-2.845 5.21-2.935 4.232-.165 7.538 2.893 7.746 8.209l.001.035c.207 5.316-2.809 8.796-7.111 8.964zm-.919-2.906c2.763-.108 4.571-2.245 4.432-5.812l-.01-.245c-.137-3.532-2.031-5.385-4.864-5.275-2.868.112-4.561 2.49-4.433 5.778l.011.279c.127 3.253 1.926 5.389 4.864 5.275zm-53.403 11.174l-5.439-22.955 3.372-.799 5.439 22.955-3.372.799zm-21.823 7.395c-6.061 2.068-11.473-.893-13.801-7.717-2.441-7.155.229-13.095 6.357-15.186 5.068-1.729 9.317-.331 11.874 4.454l-3.5 1.231c-1.704-3.042-4.188-3.711-7.368-2.626-4.107 1.401-5.816 5.498-4.008 10.798l.102.298c1.707 5.002 5.385 7.112 9.625 5.665 3.247-1.107 5.019-4.042 4.122-7.212l-5.432 1.853-.984-2.882 8.878-3.029 3.639 10.667-2.948 1.006-1.142-3.346c-.445 2.814-2.333 4.975-5.414 6.026zm37.612-19.752c.728 4.987 4.553 7.931 9.367 7.229 4.814-.702 7.732-4.701 7.015-9.619-.728-4.987-4.597-7.995-9.411-7.293-4.814.703-7.698 4.696-6.971 9.683zm12.968-1.786c.485 3.325-1.077 5.711-4.021 6.14-2.909.424-5.013-1.391-5.503-4.75l-.02-.139c-.5-3.429 1.057-5.849 3.966-6.273 2.909-.424 5.058 1.455 5.558 4.884l.02.138zm43.876.539c-.175 2.829 1.872 4.885 5.4 5.103 2.375.147 4.495-.668 5.734-2.555l-.154 2.48 3.319.206.123-2.553.504-8.139c.26-4.192-2.139-6.234-6.366-6.496-4.366-.27-7.439 1.784-7.773 5.48l3.458.214.013-.209c.255-1.843 1.651-2.879 4.097-2.727 2.515.155 3.463 1.266 3.379 2.629l-.016.244c-.337.738-1.588.909-3.633 1.189-.41.056-.853.117-1.326.187-3.718.576-6.53 1.244-6.759 4.947zm11.426-1.607c-.478 3.197-2.825 4.279-5.235 4.129-1.817-.112-2.773-1.083-2.689-2.446.108-1.746 1.682-2.245 3.599-2.617.308-.054.621-.104.934-.153 1.338-.213 2.66-.423 3.517-.939l-.126 2.026zm16.87 8.058l3.539-23.323 3.426.52-3.539 23.323-3.426-.52zm38.362-.394c-.678 5.076 1.473 8.674 7.103 10.486 5 1.609 8.86-.235 10.16-4.266 1.4-4.331-1.97-6.665-5.38-8.534l-.29-.159c-2.86-1.552-5.4-2.937-4.67-5.225.69-2.132 2.84-2.984 5.57-2.104 3.03.976 4.47 2.798 3.9 6.18l3.56 1.148c.93-5.179-1.52-8.651-6.48-10.25-4.53-1.458-8.664.3-9.898 4.131-1.373 4.265 2.138 6.719 5.568 8.632 3.01 1.629 5.44 3.076 4.74 5.275-.75 2.332-2.94 3.174-5.94 2.208-3.394-1.094-4.73-2.884-4.345-6.364l-3.598-1.158zm23.673 22.406l9.33-21.057 3.07 1.36-.99 2.24c1.76-1.132 3.91-1.327 6.03-.392 3.87 1.715 5.48 5.949 3.34 10.781l-.02.032c-2.15 4.865-6.42 6.648-10.33 4.919-2.08-.922-3.35-2.633-3.73-4.637l-3.6 8.129-3.1-1.375zm10.85-5.146c2.56 1.134 5.13.011 6.57-3.253l.1-.224c1.43-3.232.52-5.744-2.08-6.892-2.62-1.162-5.19.228-6.52 3.236l-.11.256c-1.32 2.976-.61 5.701 2.04 6.877zm20.56 3.173c-2.51 4.407-1.44 8.887 2.97 11.403 3.67 2.099 6.72 1.499 8.96-.164l-2.06-2.544c-1.34 1.086-3.08 1.664-5.52.276-2.43-1.388-3.13-3.762-1.91-6.328l10.8 6.16.62-1.095c2.59-4.529 1.68-8.796-2.55-11.208-4.07-2.325-8.77-.938-11.31 3.5zm11.45 4.801l-7.78-4.442c1.64-2.167 4.03-2.694 6.19-1.462 2.25 1.284 2.87 3.372 1.59 5.904zm14.01 20.468c-3.44-2.477-4.16-6.924-1.03-11.267 3.07-4.258 7.63-5.198 11.13-2.68 1.84 1.331 2.71 3.296 2.65 5.412l5.59-7.75 2.73 1.965-13.8 19.134-2.73-1.966 1.42-1.959c-1.96.744-4.09.462-5.96-.889zm2.42-1.873c2.3 1.658 5.13.849 7.06-1.819l.16-.227c1.9-2.64 1.77-5.452-.58-7.152-2.27-1.637-5.01-1.068-7.1 1.828l-.15.198c-2.06 2.867-1.68 5.514.61 7.172zm29.98-2.813l-2.37 2.762 2.81 2.417 2.37-2.762-2.81-2.417zm-4.02 4.848l-10.77 12.533 2.63 2.257 10.76-12.532-2.62-2.258zm6.9 28.351c-2.03-2.224-1.61-3.734.21-5.618l6.68-6.692-1.86-1.853 2.07-2.082 1.86 1.853 2.28-2.28 3.81.886-3.73 3.742 2.53 2.521-2.08 2.082-2.53-2.521-6.37 6.394c-.75.744-.79 1.387-.05 2.129l1.39 1.384-2.13 2.131-2.08-2.076zm28.59-3.355l-2.76 2.368 2.41 2.818 2.77-2.367-2.42-2.819zm-4.71 4.177l-12.55 10.744 2.25 2.632 12.55-10.743-2.25-2.633zm3.51 30.77c-2.83-3.957-1.96-8.706 2.13-11.638 4.1-2.932 8.97-2.199 11.8 1.758 2.84 3.957 1.94 8.774-2.16 11.707-4.05 2.891-8.94 2.13-11.77-1.827zm2.37-1.69c1.73 2.419 4.56 2.714 7.29.76l.12-.082c2.82-2.016 3.5-4.787 1.79-7.178s-4.57-2.666-7.39-.65l-.11.081c-2.77 1.975-3.42 4.678-1.7 7.069zm24.15 10.336l-14.36 8.175 1.7 2.981 6.87-3.914c3.29-1.871 5.87-1.65 7.13.57 1.11 1.946.46 3.565-1.79 4.847l-8.58 4.884 1.72 3.011 8.73-4.971c3.83-2.183 4.85-5.263 3.09-8.366-1.25-2.189-3.18-3.026-5.52-2.695l2.7-1.541-1.69-2.981zm8.62 55.331c-1.18-3.332-.09-6.02 2.58-6.967 3.5-1.238 5.21 1.088 7.2 4.283.25.408.48.792.69 1.148 1.06 1.771 1.7 2.855 2.52 2.877l.23-.082c1.28-.455 1.93-1.763 1.09-4.138-.81-2.309-2.31-3.189-4.11-2.702l-.2.07-1.15-3.266c3.53-1.14 6.62.884 8.08 5.008 1.42 3.992.48 6.998-3.48 8.4l-7.69 2.723-2.4.886-1.11-3.134 2.34-.83c-2.22-.401-3.8-2.032-4.59-4.276zm2.68-.282c.81 2.276 2.72 4.012 5.85 3.201l1.92-.678c-.81-.586-1.52-1.72-2.24-2.869l-.01-.001v-.002c-.16-.267-.33-.534-.5-.796-1.09-1.618-2.17-2.871-3.82-2.287-1.29.456-1.8 1.716-1.2 3.432zm21.07 17.325l-16.04 3.933.81 3.331 7.68-1.883c3.68-.9 6.1.02 6.71 2.501.53 2.176-.54 3.555-3.05 4.171l-9.59 2.35.83 3.365 9.75-2.391c4.29-1.05 6.11-3.732 5.27-7.2-.6-2.447-2.23-3.779-4.58-4.104l3.03-.741-.82-3.332zm-9.21 36.774c-.58-4.195 2.14-7.786 7.44-8.518 5.2-.718 9.03 1.933 9.62 6.197.31 2.254-.51 4.24-2.08 5.658l9.47-1.307.46 3.328-23.37 3.228-.46-3.329 2.39-.33c-1.89-.905-3.15-2.638-3.47-4.927zm3.03.465c.39 2.808 2.93 4.295 6.19 3.845l.27-.038c3.23-.446 5.17-2.481 4.78-5.358-.39-2.774-2.69-4.364-6.23-3.875l-.24.033c-3.5.484-5.16 2.585-4.77 5.393zm20.69 47.422l-20.1-.871-.15 3.497 20.1.871-.32 7.413 3.11.134.8-18.287-3.12-.135-.32 7.378zm-21.44 21.778l16.36 2.298-.48 3.397-3.01-.424c1.83.753 2.9 2.211 2.48 5.192l-.07.519-3.33-.467.22-1.56c.41-2.911-.93-3.913-4.26-4.38l-8.39-1.178.48-3.397zm1.33 21.803c-2.76-.649-5.13 1.022-5.94 4.463-.55 2.316-.1 4.543 1.55 6.082l-2.42-.569-.76 3.236 2.49.552 7.94 1.869c4.09.962 6.51-1.057 7.48-5.18 1-4.258-.51-7.633-4.09-8.586l-.8 3.373.21.048c1.77.562 2.56 2.113 2 4.498-.58 2.453-1.84 3.2-3.17 2.887l-.23-.056c-.68-.457-.63-1.719-.56-3.781v-.004c.01-.413.02-.859.04-1.336.05-3.761-.13-6.645-3.74-7.496zm-.34 11.534c-3.07-1.01-3.74-3.506-3.19-5.856.42-1.772 1.53-2.551 2.86-2.239 1.71.401 1.93 2.037 1.98 3.989 0 .31-.01.625-.01.939v.007c-.02 1.356-.03 2.694.33 3.625l-1.97-.465zm-12.94 20.804c1.4-3.996 5.46-5.95 10.51-4.179 4.96 1.735 7.15 5.842 5.73 9.905-.75 2.147-2.39 3.539-4.44 4.084l9.02 3.159-1.11 3.171-22.26-7.799 1.11-3.171 2.28.798c-1.27-1.668-1.61-3.787-.84-5.968zm2.48 1.798c-.93 2.676.64 5.157 3.75 6.245l.26.092c3.08 1.076 5.74.154 6.7-2.588.92-2.643-.4-5.109-3.77-6.289l-.23-.081c-3.34-1.169-5.77-.054-6.71 2.621zm11.18 28.065l-3.32-1.498-1.52 3.381 3.31 1.498 1.53-3.381zm-5.79-2.497l-15.05-6.799-1.43 3.158 15.06 6.799 1.42-3.158zm-22.51 9.911l14.43 8.032-1.67 2.998-2.72-1.515c1.5 1.837 1.79 3.917.56 6.119-1.74 3.12-4.9 3.842-8.75 1.698l-8.78-4.885 1.68-3.028 8.63 4.8c2.26 1.259 3.98.975 5.07-.983 1.24-2.232.09-4.555-3.21-6.393l-6.91-3.846 1.67-2.997zm-15.43 20.563c-2.52-1.765-5.59-.318-8.69 4.129-3.17 4.532-3.39 8.44-.57 10.405 2.75 1.926 5.68.728 8.69-3.575l1.96-2.811c.88-1.262 1.9-1.793 2.56-1.332.57.401.63 1.296-.15 2.288l-.14.201c-.58.453-1.08.996-1.52 1.627-2.41 3.442-2.01 7.092 1.05 9.238.49.34 1.01.575 1.55.781.24 1.064-.31 1.965-1.06 2.501l2.92 2.046c1-1.434.84-2.914-.02-4.244 2.07.036 4.14-1.035 5.58-3.1 2.29-3.27 1.81-7.232-1.11-9.278-1.58-1.103-3.45-1.3-5.19-.765.74-1.79.47-3.301-.71-4.123-1.11-.782-2.61-.543-3.91.593.51-1.95.11-3.638-1.24-4.581zm4.9 17.605c-1.69-1.183-1.97-3.17-.64-5.063 1.28-1.836 3.27-2.239 4.93-1.076l.12.081c1.66 1.163 1.96 3.296.74 5.046-1.26 1.807-3.37 2.255-5.03 1.092l-.12-.08zm-12.6-5.735c-1.35-.943-.94-3.303 1.07-6.171 2.02-2.898 3.87-3.954 5.13-3.072 1.35.943 1.04 3.033-.24 4.869l-1.18 1.693c-1.99 2.84-3.43 3.623-4.78 2.681z" fill="#fff" fill-opacity=".2"/><defs><radialGradient id="paint0_radial_2046_1820" cx="0" cy="0" r="1" gradientUnits="userSpaceOnUse" gradientTransform="rotate(90 248.5 686) scale(437.827)"><stop stop-color="#21F3E2"/><stop offset="1" stop-color="#1B877E" stop-opacity="0"/></radialGradient></defs></svg>