<svg width="96" height="96" fill="none" xmlns="http://www.w3.org/2000/svg"><path fill="#FC0100" d="M0 0h96v96H0z"/><path d="M27.698 90.446c-1.83 0-3.036-1.317-3.036-3.368 0-2.192 1.307-3.569 3.207-3.569 1.579 0 2.644.814 2.886 2.363h-1.328c-.16-.845-.703-1.217-1.568-1.217-1.126 0-1.89.875-1.89 2.383v.1c0 1.388.724 2.202 1.9 2.202.825 0 1.508-.482 1.599-1.297H27.99v-1.055h2.785v3.328h-1.136V89.4c-.383.663-1.056 1.045-1.94 1.045zm6.662-.02c-1.77 0-2.715-.854-2.936-2.272h1.317c.16.865.613 1.207 1.568 1.207.805 0 1.267-.352 1.267-.956 0-.583-.744-.724-1.659-.905-1.106-.22-2.312-.583-2.312-1.91 0-1.216 1.045-2.081 2.473-2.081 1.578 0 2.584.804 2.745 2.252h-1.297c-.11-.814-.583-1.186-1.458-1.186-.744 0-1.197.362-1.197.925 0 .633.835.724 1.75.905 1.096.21 2.232.552 2.232 1.9 0 1.277-.945 2.121-2.494 2.121zm4.997-.11v-5.58h-2.031V83.64h5.339v1.096h-2.031v5.58h-1.277zm4.023 0V83.64h2.544c1.88 0 2.645.764 2.645 1.86 0 .945-.594 1.659-1.609 1.84 1.026.291 1.508 1.085 1.7 2.654 0 .03.03.302.04.322h-1.358l-.01-.242c-.16-1.377-.664-2.192-1.97-2.201h-.724v2.443H43.38zm1.258-3.409l1.136-.01c1.126 0 1.508-.673 1.508-1.247 0-.643-.402-.985-1.438-.985h-1.206v2.242zm4.546 3.409l2.514-6.676h1.458l2.433 6.676h-1.357l-.634-1.78h-2.503l-.644 1.78h-1.267zm2.283-2.836h1.78l-.875-2.473-.905 2.473zm6.73 2.836V83.64h1.277v5.58h3.016v1.096h-4.293zm5.125 0V83.64h1.277v5.58h3.016v1.096h-4.293zm8.011.13c-1.84 0-3.097-1.397-3.097-3.468 0-2.082 1.277-3.469 3.157-3.469 1.569 0 2.674.814 2.966 2.473h-1.317c-.211-.945-.794-1.317-1.659-1.317-1.136 0-1.82.855-1.82 2.262v.1c0 1.418.674 2.263 1.8 2.263.915 0 1.518-.392 1.7-1.418h1.316c-.251 1.75-1.418 2.574-3.046 2.574z" fill="#fff"/><path fill-rule="evenodd" clip-rule="evenodd" d="M47.782 29.416c9.916 0 17.954 8.039 17.954 17.954 0 9.916-8.039 17.954-17.954 17.954-9.916 0-17.954-8.038-17.954-17.954 0-9.915 8.038-17.954 17.954-17.954zm.43 34.082c.245-.11.55-.325.91-.73.617-.695 1.252-1.798 1.82-3.31.38-1.011.716-2.166.994-3.437a47.886 47.886 0 00-3.723-.175v7.652zm-.861 0v-7.652a47.886 47.886 0 00-3.724.175 25.14 25.14 0 00.995 3.438c.568 1.51 1.203 2.614 1.82 3.309.36.405.665.62.909.73zm-4.05-9.178a49.46 49.46 0 014.05-.197v-6.537h-4.596a42.64 42.64 0 00.547 6.734zm-2.27-6.734c.012 2.458.208 4.797.555 6.923a39.218 39.218 0 00-3.034.51c-.775-2.207-1.231-4.73-1.254-7.433h3.734zm1.728-.862h4.592V40.77a49.407 49.407 0 01-4.074-.2 42.533 42.533 0 00-.518 6.154zm-1.197-6.343a44.37 44.37 0 00-.526 6.343h-3.73c.063-2.483.492-4.806 1.196-6.861.97.205 1.993.38 3.06.518zm2.033-1.512c1.205.105 2.461.167 3.756.178v-7.804c-.244.11-.549.325-.909.73-.617.694-1.252 1.797-1.82 3.309a25.286 25.286 0 00-1.027 3.587zm.617-6.74c-.974 1.617-1.782 3.876-2.34 6.555a37.966 37.966 0 01-2.73-.449c.42-.941.9-1.81 1.432-2.59 1.073-1.578 2.313-2.76 3.638-3.516zm0 30.483c-1.326-.757-2.566-1.94-3.638-3.516a16.649 16.649 0 01-1.37-2.45 38.15 38.15 0 012.7-.44c.556 2.613 1.352 4.819 2.308 6.406zm7.14 0c1.325-.757 2.565-1.94 3.637-3.516a16.64 16.64 0 001.37-2.45 38.15 38.15 0 00-2.7-.44c-.556 2.613-1.352 4.819-2.308 6.406zm2.626-8.103c1.057.137 2.072.308 3.034.51.774-2.207 1.23-4.73 1.254-7.433h-3.734a44.519 44.519 0 01-.554 6.923zm-1.17-6.923h-4.595v6.537c1.39.011 2.745.079 4.05.197a42.69 42.69 0 00.545-6.734zm-.004-.862h-4.591V40.77a49.402 49.402 0 004.074-.2c.303 1.883.487 3.959.517 6.154zm1.724 0h3.73c-.063-2.483-.493-4.806-1.197-6.861-.97.205-1.992.38-3.06.518.313 1.96.497 4.1.527 6.343zm-.837-8.04a37.963 37.963 0 002.731-.449c-.42-.941-.901-1.81-1.433-2.59-1.072-1.578-2.312-2.76-3.638-3.516.974 1.617 1.782 3.876 2.34 6.555zm-1.722.185a47.78 47.78 0 01-3.756.178v-7.804c.244.11.549.325.908.73.618.694 1.253 1.797 1.821 3.309a25.287 25.287 0 011.027 3.587zm8.014 7.855c-.063-2.6-.502-5.06-1.238-7.264a24.536 24.536 0 002.682-.881A16.142 16.142 0 0164 46.724h-4.016zm-1.853-8.885c.808-.212 1.56-.447 2.25-.703a16.295 16.295 0 00-5.484-4.358c1.288 1.361 2.389 3.081 3.234 5.061zm-17.463-5.06c-1.288 1.36-2.388 3.08-3.233 5.06a23.876 23.876 0 01-2.25-.703 16.292 16.292 0 015.483-4.358zm-3.848 6.68a24.403 24.403 0 01-2.683-.88 16.143 16.143 0 00-2.572 8.145h4.017c.063-2.6.501-5.06 1.238-7.264zm23.17 8.127c-.022 2.815-.485 5.474-1.292 7.835.955.255 1.843.544 2.651.862a16.15 16.15 0 002.663-8.697H59.99zm-28.436 0h4.021c.023 2.815.486 5.474 1.293 7.835-.955.255-1.843.544-2.651.862a16.15 16.15 0 01-2.663-8.697zm26.518 9.452c-.837 1.923-1.916 3.595-3.175 4.924a16.292 16.292 0 005.387-4.24 24.2 24.2 0 00-2.212-.684zm-22.79.684a16.292 16.292 0 005.386 4.24c-1.258-1.329-2.337-3.001-3.174-4.924a24.19 24.19 0 00-2.212.684z" fill="#fff"/><path d="M22.934 47.37c0-1.823.194-3.601.563-5.314 2.438-11.33 12.514-19.821 24.572-19.821 8.729 0 16.418 4.45 20.924 11.203l-2.683 1.436 7.756 6.033 1.15-10.341-2.296 1.005c-5.227-8.204-14.403-13.645-24.85-13.645-16.262 0-29.445 13.183-29.445 29.444 0 1.166.068 2.317.2 3.447m54.667-3.59c0 1.823-.195 3.6-.563 5.314-2.439 11.33-12.514 19.82-24.573 19.82-8.728 0-16.418-4.448-20.924-11.202l2.683-1.437-7.756-6.032-1.149 10.34 2.296-1.005c5.226 8.203 14.403 13.645 24.85 13.645 16.262 0 29.444-13.183 29.444-29.444a29.49 29.49 0 00-.2-3.447" stroke="#fff" stroke-width="2"/><path d="M43.776 5.667l.085 1.042 1.062-.087-.085-1.043-1.062.088zm.178 1.801l.388 4.73.992-.082-.388-4.73-.992.082zm-2.58 5.203c-.857.126-1.149-.217-1.303-.955l-.519-2.664-.74.144-.162-.83.74-.143-.176-.908.824-.765.29 1.49 1.007-.196.161.829-1.007.196.497 2.546c.057.296.203.411.499.354l.552-.108.166.848-.83.162zM34.75 7.665l.313.998 1.016-.32-.313-.997-1.017.32zm.57 1.718l1.422 4.528.95-.299-1.422-4.527-.95.298z" fill="#fff"/><path fill-rule="evenodd" clip-rule="evenodd" d="M32.22 15.958c-1.095.531-2.318.108-2.99-1.276-.658-1.357-.274-2.638.839-3.178a1.804 1.804 0 011.73.065l-1.198-2.47.868-.42 2.959 6.096-.868.421-.303-.624c-.08.597-.44 1.097-1.038 1.386zm-.143-.87c.733-.355.913-1.18.5-2.03l-.035-.073c-.408-.84-1.137-1.191-1.888-.827-.723.351-.953 1.122-.505 2.045l.031.063c.443.914 1.164 1.178 1.897.823zm-8.569 3.724c.871 1.17 2.173 1.403 3.343.533.975-.727 1.167-1.597.987-2.378l-.906.248c.131.48.083 1.004-.562 1.485-.645.48-1.35.391-1.885-.226l2.862-2.132-.216-.29c-.894-1.202-2.122-1.453-3.243-.619-1.08.805-1.256 2.202-.38 3.38zm2.58-2.46l-2.064 1.537c-.382-.68-.244-1.372.328-1.798.597-.445 1.218-.368 1.737.26zM21.66 26.893l-4.91-4.433.647-.716.522.471c-.15-.583-.01-1.188.434-1.68.815-.904 2.115-.963 3.242.055l.007.006c1.135 1.025 1.238 2.35.416 3.26a1.796 1.796 0 01-1.6.602l1.896 1.712-.654.723zm-.43-3.423c.538-.597.462-1.397-.3-2.085l-.052-.047c-.753-.68-1.52-.655-2.067-.051-.552.612-.403 1.437.298 2.07l.06.055c.694.626 1.501.677 2.06.058z" fill="#fff"/><path d="M14.447 30.971c1.38.512 2.524.137 3.388-1.326.767-1.299.495-2.499-.552-3.117-1.125-.665-1.993.13-2.732.966l-.063.072c-.616.702-1.165 1.328-1.76.977-.553-.327-.656-.983-.236-1.693.465-.788 1.066-1.075 1.978-.7l.547-.926c-1.392-.589-2.52-.123-3.282 1.167-.696 1.177-.464 2.447.53 3.035 1.109.654 2.019-.174 2.772-1.014.647-.739 1.206-1.33 1.778-.993.606.358.703 1.023.243 1.802-.521.883-1.108 1.144-2.058.816l-.553.934zm-.395 7.679L7.53 36.81l.27-.958 6.522 1.84-.27.958z" fill="#fff"/><path fill-rule="evenodd" clip-rule="evenodd" d="M11.73 44.867c.806.114 1.44-.426 1.583-1.432.095-.677-.09-1.302-.603-1.7l.707.1.133-.945-.728-.093-2.32-.328c-1.194-.169-1.833.472-2.003 1.677-.176 1.244.343 2.17 1.394 2.35l.14-.986-.06-.008c-.522-.115-.787-.538-.689-1.235.101-.717.44-.963.83-.909l.069.01c.204.114.224.476.258 1.067l.024.385c.081 1.077.21 1.898 1.264 2.047zm-.203-3.309c.904.21 1.161.906 1.064 1.593-.073.517-.372.77-.76.714-.498-.07-.606-.532-.67-1.09l-.022-.27c-.03-.388-.061-.772-.19-1.028l.578.081zm1.625 7.694a1.78 1.78 0 01-.72 1.555l.694-.034.047.964-6.779.332-.047-.964 2.721-.133c-.508-.308-.825-.825-.858-1.488-.06-1.215.81-2.174 2.336-2.249h.01c1.527-.075 2.535.782 2.596 2.017zm-.833.272c-.038-.793-.658-1.306-1.682-1.256l-.07.003c-1.014.05-1.541.599-1.501 1.412.04.824.728 1.304 1.672 1.257l.08-.004c.934-.045 1.543-.568 1.501-1.412zm.081 9.519c1.406-.345 2.142-1.52 1.81-2.877-.334-1.357-1.557-2.082-2.944-1.741-1.406.345-2.16 1.534-1.827 2.891.334 1.358 1.555 2.072 2.96 1.727zm-.867-3.659c.937-.23 1.662.151 1.866.981.201.82-.26 1.472-1.207 1.704l-.04.01c-.966.237-1.7-.141-1.902-.962-.201-.82.277-1.486 1.244-1.723l.039-.01z" fill="#fff"/><path d="M15.885 61.307l-6.294 2.511-.369-.924 6.294-2.511.369.924zm2.696 4.802c.959 1.57.465 3.273-1.303 4.35-1.854 1.132-3.686.753-4.655-.835-.8-1.313-.673-2.592.51-3.607l.563.904c-.748.668-.78 1.406-.278 2.23.65 1.065 1.905 1.288 3.278.45l.077-.046c1.297-.79 1.659-1.954.989-3.052-.513-.842-1.447-1.156-2.28-.707l.859 1.408-.747.456-1.403-2.3 2.764-1.686.466.764-.867.528c.817-.05 1.54.344 2.027 1.143z" fill="#fff"/><path fill-rule="evenodd" clip-rule="evenodd" d="M49.778 12.106c-1.395-.08-2.302-1.128-2.22-2.573.082-1.446 1.123-2.404 2.519-2.325 1.395.08 2.311 1.149 2.229 2.594-.08 1.426-1.132 2.383-2.528 2.304zm.048-.833c.853.048 1.43-.533 1.485-1.497l.002-.04c.056-.994-.44-1.647-1.284-1.694-.843-.048-1.42.543-1.477 1.537l-.002.04c-.055.974.433 1.606 1.276 1.654z" fill="#fff"/><path d="M55.402 7.808l-1.138 4.607.957.236.545-2.206c.26-1.054.817-1.548 1.53-1.372.624.154.833.61.655 1.332l-.68 2.753.966.238.692-2.801c.304-1.23-.135-2.053-1.13-2.299-.703-.173-1.259.062-1.655.617l.215-.869-.957-.236z" fill="#fff"/><path fill-rule="evenodd" clip-rule="evenodd" d="M65.353 16.516c-.872-.52-1.125-1.314-.708-2.014.546-.915 1.352-.716 2.377-.374.13.044.25.087.362.126h.001c.56.198.901.319 1.084.175l.036-.06c.201-.338.105-.746-.517-1.117-.604-.36-1.097-.279-1.405.158l-.03.052-.856-.51c.572-.9 1.627-1.02 2.706-.377 1.045.623 1.39 1.46.772 2.496l-1.2 2.013-.366.636-.82-.49.365-.613c-.565.32-1.213.249-1.8-.101zm.542-.555c.596.355 1.337.387 1.88-.366l.298-.501c-.286.019-.652-.101-1.021-.223h-.001a17.501 17.501 0 00-.258-.084c-.539-.157-1.006-.236-1.264.195-.2.337-.084.711.366.979z" fill="#fff"/><path d="M72.754 15.491l-3.14 3.559.739.651 1.503-1.703c.719-.815 1.441-.995 1.991-.51.483.426.457.926-.035 1.484l-1.876 2.126.747.659 1.909-2.164c.838-.95.83-1.883.06-2.561-.543-.479-1.144-.527-1.751-.218l.592-.671-.74-.652z" fill="#fff"/><path fill-rule="evenodd" clip-rule="evenodd" d="M75.6 25.105c-.74-.964-.573-2.247.646-3.185 1.196-.92 2.529-.802 3.282.178.399.518.476 1.13.286 1.708l2.176-1.673.589.765-5.372 4.13-.589-.765.55-.423c-.6.044-1.163-.209-1.567-.735zm.824-.315c.496.645 1.34.655 2.09.08l.064-.05c.741-.57.937-1.354.428-2.016-.49-.638-1.291-.706-2.105-.081l-.055.043c-.805.619-.919 1.378-.422 2.024z" fill="#fff"/><path d="M86.524 32.283l-5.44 1.959.341.946 5.44-1.959.722 2.005.842-.303-1.782-4.947-.842.303.72 1.996zm-3.822 7.087l4.671-.839.174.97-.86.154c.568.041.99.343 1.143 1.194l.027.149-.95.17-.08-.445c-.15-.831-.606-.984-1.556-.814l-2.395.43-.174-.97z" fill="#fff"/><path fill-rule="evenodd" clip-rule="evenodd" d="M84.724 43.625c-.815.02-1.353.655-1.33 1.67.017.684.302 1.27.872 1.579l-.713.017.022.955.734-.028 2.342-.054c1.206-.029 1.732-.765 1.703-1.981-.03-1.257-.692-2.086-1.758-2.091l.023.995.06-.001c.534.027.864.402.881 1.105.017.724-.278 1.023-.67 1.032l-.07.001c-.22-.078-.3-.432-.43-1.01v-.006a31.507 31.507 0 00-.085-.37c-.256-1.05-.516-1.838-1.581-1.813zm.739 3.231c-.927-.059-1.294-.704-1.31-1.397-.012-.523.242-.82.634-.83.503-.011.684.427.837.966l.02.078.02.076.027.11c.094.378.186.751.355.983l-.583.014zm-2.32 5.15c.196-1.2 1.247-1.956 2.765-1.708 1.488.244 2.315 1.296 2.115 2.516a1.805 1.805 0 01-1.05 1.377l2.709.443-.156.953-6.688-1.094.156-.953.684.112c-.442-.408-.642-.991-.535-1.646zm.793.384c-.132.804.439 1.427 1.372 1.58l.079.013c.923.15 1.629-.243 1.764-1.067.13-.794-.368-1.425-1.38-1.59l-.07-.012c-1.002-.164-1.634.273-1.765 1.076z" fill="#fff"/><path d="M88.462 58.943l-.997-.317-.323 1.015.997.317.323-1.015zm-1.734-.52l-4.522-1.438-.302.948 4.522 1.438.302-.948zm-5.511 1.757l4.278 2.055-.427.888-.807-.387c.462.5.58 1.093.266 1.745-.444.924-1.34 1.186-2.481.637l-2.601-1.25.431-.897 2.556 1.228c.67.323 1.159.211 1.437-.369.318-.661-.052-1.307-1.03-1.778l-2.049-.984.427-.888z" fill="#fff"/><path fill-rule="evenodd" clip-rule="evenodd" d="M77.711 65.11c-.712-.524-1.602-.131-2.526 1.123-.943 1.279-1.032 2.4-.24 2.984.777.573 1.627.25 2.522-.963l.585-.793c.263-.356.557-.502.743-.364.162.119.172.376-.059.656l-.041.056a2.195 2.195 0 00-.45.456c-.715.972-.628 2.022.238 2.66.137.102.284.174.438.237.06.307-.102.561-.324.71l.825.609c.299-.405.263-.83.025-1.22.593.026 1.196-.266 1.626-.849.68-.922.572-2.064-.254-2.672a1.69 1.69 0 00-1.484-.258c.225-.508.16-.944-.172-1.189-.316-.232-.746-.175-1.13.142.161-.556.059-1.044-.322-1.324zm1.28 5.092c-.477-.352-.542-.925-.148-1.459.382-.518.956-.619 1.425-.273l.033.024c.47.346.54.96.177 1.454-.376.51-.985.624-1.454.278l-.032-.024zm-3.577-1.739c-.38-.28-.245-.955.352-1.764.602-.817 1.14-1.107 1.497-.845.38.28.276.879-.105 1.397l-.352.477c-.591.801-1.012 1.016-1.392.736z" fill="#fff"/></svg>