<svg width="898" height="743" fill="none" xmlns="http://www.w3.org/2000/svg"><path d="M535.938 738.866a.5.5 0 11-.71.706.5.5 0 01.71-.706zm-40.285-57.804a2 2 0 10-2.82-2.835 2 2 0 002.82 2.835zm374.988-68.442a2 2 0 10-2.82-2.835 2 2 0 002.82 2.835zm-186.365-15.859a.5.5 0 10-.704-.709.5.5 0 00.704.709zM829.557 485a2 2 0 10-4 0 2 2 0 004 0zm-112-162a2 2 0 110 4 2 2 0 010-4zm78.5-43a.5.5 0 110 1 .5.5 0 010-1zm-94-49a.5.5 0 110 1 .5.5 0 010-1zm10.5-179.5a.5.5 0 10-1 0 .5.5 0 001 0zm147 53.5a2 2 0 10-4 0 2 2 0 004 0zm-192-52a2 2 0 110 4 2 2 0 010-4zm228.5 407a.5.5 0 110 1 .5.5 0 010-1zm-188.52 32.633a.5.5 0 11-.71.705.5.5 0 01.71-.705zm176.544-35.783a.5.5 0 10-.706-.709.5.5 0 00.706.709zm-261.976 74.035a2 2 0 11-2.835 2.821 2 2 0 012.835-2.821zm248.152-117.562a2 2 0 11-2.837 2.822 2 2 0 012.837-2.822zM101 461.546a.5.5 0 101 0 .5.5 0 00-1 0zm94.5 49.5a.5.5 0 110-1 .5.5 0 010 1zm-10.5 179.5a.5.5 0 101 0 .5.5 0 00-1 0zm-5-271.5a2 2 0 110-4 2 2 0 010 4zm-142 218a2 2 0 104 0 2 2 0 00-4 0zm192 52a2 2 0 110-4 2 2 0 010 4zm-162-432a2 2 0 104 0 2 2 0 00-4 0zm-66.5 25a.5.5 0 110-1 .5.5 0 010 1zm211.78-136.762a.5.5 0 10.706.709.5.5 0 00-.706-.709zm-23.26 104.129a.5.5 0 11.708-.705.5.5 0 01-.708.705zM13.476 285.196a.5.5 0 10.705.709.5.5 0 00-.705-.709zm261.976-74.035a2 2 0 112.837-2.822 2 2 0 01-2.837 2.822zM26.916 129.425a2 2 0 102.823 2.836 2 2 0 00-2.823-2.836zm.384 199.297a2 2 0 112.834-2.821 2 2 0 01-2.834 2.821zM401.903 60.983a2 2 0 102.822 2.836 2 2 0 00-2.822-2.836zM361.618 3.18a.5.5 0 11.71-.706.5.5 0 01-.71.705z" fill="#fff" fill-opacity=".8"/></svg>