<svg width="63" height="62" fill="none" xmlns="http://www.w3.org/2000/svg"><g clip-path="url(#clip0_2772_5012)"><path d="M32 1h-1C14.431 1 1 14.431 1 31c0 16.569 13.431 30 30 30h1c16.569 0 30-13.431 30-30C62 14.431 48.569 1 32 1z" fill="#202020" stroke="#FF6C1A"/><g clip-path="url(#clip1_2772_5012)"><mask id="mask0_2772_5012" style="mask-type:luminance" maskUnits="userSpaceOnUse" x="12" y="11" width="39" height="40"><path d="M51 11H12v40h39V11z" fill="#fff"/></mask><g mask="url(#mask0_2772_5012)"><path d="M38 35.684L43.154 37l1.781-6.055s.937-1.404 3.093-.79c2.155.615 1.968 2.545 1.968 2.545l-.937 2.984m-12.796 4.474l-.21-.058c-1.299-.363-2.677.297-3.077 1.474l-1.866 5.48c-.4 1.176.328 2.425 1.627 2.788l.21.058c1.299.363 2.677-.297 3.077-1.474l1.866-5.48c.4-1.176-.328-2.425-1.627-2.788zm6 0l-.21-.058c-1.299-.363-2.677.297-3.078 1.474l-1.865 5.48c-.4 1.176.328 2.425 1.627 2.788l.21.058c1.299.363 2.677-.297 3.077-1.474l1.866-5.48c.4-1.176-.328-2.425-1.627-2.788z" stroke="#FF6C1A" stroke-miterlimit="10" stroke-linecap="square"/><path d="M48.263 36.158l-.21-.058c-1.299-.363-2.677.297-3.078 1.474l-1.865 5.48c-.4 1.176.328 2.425 1.627 2.788l.21.058c1.299.363 2.677-.297 3.077-1.474l1.866-5.48c.4-1.176-.328-2.425-1.627-2.788zM29 37l-2 1m4 11l-2.515-1.1a4.003 4.003 0 00-2.186-.311l-1.354.19-2.297.675a4.382 4.382 0 01-2.525-.017l-1.106-.342A3.917 3.917 0 0117.286 47l-4.721-5.152c-.488-.532-.727-2.132-.444-2.791l3.918-8.026s.712-1.744 3.028-.698c2.315 1.047 1.602 2.617 1.602 2.617l-3.205 6.63 6.055 4.187" stroke="#FF6C1A" stroke-miterlimit="10" stroke-linecap="square"/><path d="M20 40.765L23.014 39 27 41m5 2l-2-1m15-18v3m0-6l.021 1M45 11v8m3 6v1m0-8v4m0-6v1m-28 7v3m0-5v.48m.06-11.315v8.35m-2.88 5.196V25.8m0-7.39v4.414m0-7.258v1.008m23.112 11.761v-.356m0 4.788v-2.48M26.075 29.23l.007-.351m-.007 4.783v-2.48" stroke="#FF6C1A" stroke-miterlimit="10" stroke-linecap="square"/><path d="M25.798 17.727c.058.015.094.058.087.123v.014c-.007.072-.066.115-.131.1-.896-.18-1.472-1.13-1.472-2.448 0-1.326.576-2.27 1.472-2.457.066-.014.116.03.124.101v.015a.119.119 0 01-.088.13c-.772.158-1.26 1.015-1.26 2.21 0 1.197.495 2.054 1.268 2.212zm.48-4.567c.008-.072.066-.115.132-.1.896.187 1.465 1.13 1.465 2.456 0 1.318-.569 2.269-1.465 2.449-.066.014-.124-.022-.131-.094v-.021c-.008-.065.029-.116.087-.123.773-.166 1.268-1.015 1.268-2.211s-.495-2.053-1.268-2.212a.11.11 0 01-.087-.122v-.022z" fill="#FF6C1A"/><mask id="mask1_2772_5012" style="mask-type:luminance" maskUnits="userSpaceOnUse" x="23" y="12" width="6" height="7"><path d="M28.447 12.88h-4.704v5.579h4.704V12.88z" fill="#fff"/><path d="M25.797 17.727c.059.015.095.058.088.123v.014c-.008.072-.066.115-.131.1-.897-.18-1.473-1.13-1.473-2.448 0-1.326.576-2.27 1.473-2.457.065-.014.116.03.123.101v.015a.118.118 0 01-.087.13c-.772.158-1.26 1.015-1.26 2.21 0 1.197.495 2.054 1.267 2.212zm.481-4.567c.008-.072.066-.115.132-.1.896.187 1.464 1.13 1.464 2.456 0 1.318-.568 2.269-1.464 2.449-.066.014-.124-.022-.132-.094v-.021c-.007-.065.03-.116.088-.123.772-.166 1.268-1.015 1.268-2.211s-.496-2.053-1.268-2.212a.11.11 0 01-.088-.122v-.022z" fill="#000"/></mask><g mask="url(#mask1_2772_5012)"><path d="M25.798 17.727l.036-.14h-.006l-.03.14zm.088.123l-.145-.016-.001.008v.008h.146zm0 .014l.145.014v-.014h-.145zm-.132.1l.032-.14h-.003l-.029.14zm0-4.905l.03.141h.002l-.032-.14zm.124.101h.146v-.014l-.146.014zm0 .015h-.145v.018l.145-.018zm-.087.13l.03.14h.005l-.035-.14zm.488-.145l-.145-.014v.014h.145zm.131-.1l-.031.14h.001l.03-.14zm0 4.905l-.029-.141h-.002l.031.14zm-.13-.094h-.147v.008l.001.007.145-.015zm0-.021h.145v-.008l-.001-.008-.145.016zm.086-.123l.019.143h.006l.006-.002-.03-.14zm0-4.423l-.035.14.006.001.03-.14zm-.087-.122l.145.018v-.018h-.145zm-.516 4.685c.003 0-.005 0-.014-.012a.046.046 0 01-.008-.016v-.005l.29.032a.252.252 0 00-.047-.182.265.265 0 00-.15-.097l-.071.28zm-.023-.017v.014h.291v-.014h-.291zm0 0s.002-.009.013-.017a.042.042 0 01.033-.009l-.063.282a.253.253 0 00.308-.228l-.29-.028zm.043-.026c-.795-.16-1.355-1.019-1.355-2.308h-.291c0 1.347.591 2.39 1.588 2.59l.058-.282zm-1.355-2.308c0-1.296.56-2.15 1.357-2.316l-.06-.282c-.997.209-1.588 1.243-1.588 2.598h.291zm1.358-2.316a.042.042 0 01-.018 0 .057.057 0 01-.023-.012c-.013-.01-.012-.02-.012-.013l.29-.03a.263.263 0 00-.091-.178.243.243 0 00-.21-.048l.064.281zm-.053-.04v.015h.291v-.015h-.291zm0 .033c0-.007.001-.012.004-.016a.03.03 0 01.019-.012l.07.28a.263.263 0 00.197-.288l-.29.036zm.028-.03c-.877.18-1.377 1.135-1.377 2.353h.292c0-1.174.477-1.934 1.145-2.07l-.06-.283zm-1.377 2.353c0 1.219.508 2.172 1.384 2.352l.06-.282c-.669-.137-1.152-.897-1.152-2.07h-.292zm2.04-2.341s-.001.008-.012.017a.042.042 0 01-.033.008l.063-.281a.252.252 0 00-.308.227l.29.029zm-.044.025c.797.167 1.35 1.019 1.35 2.316h.29c0-1.354-.583-2.39-1.58-2.598l-.06.282zm1.35 2.316c0 1.29-.554 2.148-1.349 2.308l.058.282c.998-.2 1.582-1.244 1.582-2.59h-.292zm-1.351 2.308c.001 0 .013-.002.027.008a.05.05 0 01.015.016l.003.009-.29.029a.25.25 0 00.106.183.258.258 0 00.202.037l-.063-.282zm.046.047v-.021h-.292v.021h.292zm-.001-.037c0-.002.001.005-.007.016a.05.05 0 01-.032.02l-.037-.286c-.15.019-.228.153-.214.282l.29-.032zm-.027.034c.875-.188 1.383-1.132 1.383-2.352h-.291c0 1.171-.483 1.927-1.153 2.07l.061.282zm1.383-2.352c0-1.22-.507-2.173-1.384-2.353l-.059.282c.668.137 1.152.898 1.152 2.07h.291zm-1.378-2.351c.003 0 .01.003.015.011a.035.035 0 01.007.024l-.29-.036a.255.255 0 00.197.28l.07-.28zm.023.017v-.022h-.292v.022h.292z" fill="#FF6C1A"/></g><path d="M40.008 24.21c.059.015.095.058.088.123v.015c-.007.072-.066.115-.131.1-.897-.18-1.472-1.13-1.472-2.449 0-1.325.575-2.269 1.472-2.456.065-.015.116.029.124.1v.015a.119.119 0 01-.088.13c-.772.158-1.26 1.015-1.26 2.211s.495 2.053 1.267 2.212zm.481-4.566c.008-.072.066-.116.132-.101.896.187 1.465 1.13 1.465 2.456 0 1.318-.569 2.27-1.465 2.45-.066.014-.124-.022-.132-.094v-.022c-.007-.065.03-.115.088-.122.773-.166 1.268-1.016 1.268-2.212 0-1.196-.495-2.053-1.268-2.211a.11.11 0 01-.087-.123v-.021z" fill="#FF6C1A"/><mask id="mask2_2772_5012" style="mask-type:luminance" maskUnits="userSpaceOnUse" x="37" y="19" width="6" height="6"><path d="M42.657 19.363h-4.703v5.579h4.703v-5.579z" fill="#fff"/><path d="M40.008 24.21c.059.015.095.058.088.123v.015c-.007.072-.066.115-.131.1-.897-.18-1.472-1.13-1.472-2.449 0-1.325.575-2.269 1.472-2.456.065-.015.116.029.124.1v.015a.119.119 0 01-.088.13c-.772.158-1.26 1.015-1.26 2.211s.495 2.053 1.267 2.212zm.481-4.566c.008-.072.066-.116.132-.101.896.187 1.465 1.13 1.465 2.456 0 1.318-.569 2.27-1.465 2.45-.066.014-.124-.022-.132-.094v-.022c-.007-.065.03-.115.088-.122.773-.166 1.268-1.016 1.268-2.212 0-1.196-.495-2.053-1.268-2.211a.11.11 0 01-.087-.123v-.021z" fill="#000"/></mask><g mask="url(#mask2_2772_5012)"><path d="M40.008 24.21l.036-.14h-.006l-.03.14zm.088.123l-.145-.016-.001.008v.008h.146zm0 .015l.145.014v-.015h-.145zm-.131.1l.031-.14h-.002l-.03.14zm0-4.905l.03.14h.001l-.031-.14zm.123.1h.146v-.014l-.145.015zm0 .015h-.145v.018l.146-.018zm-.087.13l.03.14h.005l-.035-.14zm.488-.144l-.145-.015v.015h.145zm.131-.101l-.031.14h.001l.03-.14zm0 4.905l-.029-.14h-.002l.031.14zm-.13-.093h-.147v.007l.001.007.145-.014zm0-.022h.145v-.016l-.146.016zm.087-.122l.018.143.006-.001.007-.002-.031-.14zm0-4.423l-.036.14h.006l.03-.14zm-.088-.123l.145.018.001-.009v-.009h-.146zm-.516 4.685c.003.001-.005 0-.014-.012a.044.044 0 01-.007-.015l-.001-.006.29.032a.252.252 0 00-.197-.278l-.071.28zm-.023-.017v.015h.291v-.015h-.291zm0 0s.002-.008.013-.017a.042.042 0 01.033-.008l-.063.281a.252.252 0 00.308-.227l-.29-.029zm.044-.026c-.796-.16-1.356-1.018-1.356-2.308h-.291c0 1.347.591 2.39 1.588 2.59l.059-.282zM38.638 22c0-1.296.56-2.149 1.357-2.315l-.06-.282c-.996.208-1.588 1.242-1.588 2.597h.291zm1.358-2.316a.04.04 0 01-.018 0 .058.058 0 01-.023-.011c-.013-.011-.012-.02-.012-.014l.29-.029a.264.264 0 00-.091-.179.243.243 0 00-.21-.048l.064.281zm-.053-.04v.015h.291v-.014h-.291zm0 .033c0-.006.002-.012.004-.016a.03.03 0 01.019-.012l.07.28a.263.263 0 00.197-.288l-.29.036zm.028-.03c-.877.18-1.377 1.135-1.377 2.353h.292c0-1.174.477-1.933 1.145-2.07l-.06-.282zM38.594 22c0 1.219.508 2.173 1.385 2.353l.059-.282c-.668-.138-1.152-.898-1.152-2.07h-.292zm2.04-2.341s-.001.008-.012.017a.042.042 0 01-.033.008l.063-.28a.252.252 0 00-.308.226l.29.029zm-.044.026c.797.166 1.35 1.018 1.35 2.315h.291c0-1.354-.584-2.389-1.58-2.597l-.06.282zM41.94 22c0 1.29-.554 2.148-1.349 2.308l.059.283c.997-.201 1.581-1.245 1.581-2.59h-.291zm-1.351 2.309a.039.039 0 01.027.007.05.05 0 01.015.016c.003.006.003.01.003.01l-.29.028a.25.25 0 00.106.183.259.259 0 00.202.037l-.063-.281zm.046.047v-.022h-.291v.022h.291zm0-.038c-.001-.002 0 .006-.008.017a.05.05 0 01-.032.02l-.036-.286a.246.246 0 00-.215.28l.29-.03zm-.027.034c.874-.187 1.383-1.132 1.383-2.352h-.292c0 1.172-.483 1.927-1.153 2.07l.062.282zM41.99 22c0-1.219-.508-2.172-1.385-2.352l-.059.282c.669.137 1.152.897 1.152 2.07h.292zm-1.379-2.351a.03.03 0 01.015.011.035.035 0 01.007.024l-.29-.036a.256.256 0 00.197.28l.071-.28zm.023.017v-.021h-.291v.021h.291z" fill="#FF6C1A"/></g><path d="M33.086 36.817c.058.014.095.058.087.123v.014c-.007.072-.065.115-.13.1-.897-.18-1.473-1.13-1.473-2.448 0-1.326.576-2.27 1.472-2.457.066-.014.117.03.124.101v.014a.119.119 0 01-.087.13c-.773.159-1.261 1.016-1.261 2.212 0 1.195.495 2.053 1.268 2.211zm.48-4.567c.008-.072.066-.115.132-.1.896.187 1.465 1.13 1.465 2.456 0 1.318-.569 2.269-1.465 2.449-.066.014-.124-.022-.131-.094v-.021c-.007-.065.03-.116.087-.123.773-.166 1.268-1.016 1.268-2.211 0-1.196-.495-2.053-1.268-2.212a.11.11 0 01-.087-.122v-.022z" fill="#FF6C1A"/><mask id="mask3_2772_5012" style="mask-type:luminance" maskUnits="userSpaceOnUse" x="31" y="31" width="5" height="7"><path d="M35.735 31.97h-4.703v5.579h4.703V31.97z" fill="#fff"/><path d="M33.086 36.817c.059.015.095.058.088.123v.014c-.008.072-.066.115-.132.101-.896-.18-1.472-1.13-1.472-2.45 0-1.325.576-2.268 1.472-2.455.066-.015.117.028.124.1v.015a.118.118 0 01-.087.13c-.773.158-1.26 1.015-1.26 2.21 0 1.197.495 2.054 1.267 2.212zm.481-4.567c.008-.072.066-.115.131-.1.897.187 1.465 1.13 1.465 2.456 0 1.318-.568 2.269-1.465 2.449-.065.014-.123-.022-.13-.094v-.021c-.008-.065.028-.115.087-.123.772-.165 1.268-1.015 1.268-2.211s-.496-2.053-1.268-2.212a.11.11 0 01-.088-.122v-.022z" fill="#000"/></mask><g mask="url(#mask3_2772_5012)"><path d="M33.086 36.817l.036-.14h-.006l-.03.14zm.088.123l-.145-.016-.001.008v.008h.146zm0 .014l.145.014v-.014h-.145zm-.132.101l.032-.14-.002-.001-.03.141zm0-4.905l.03.14h.002l-.032-.14zm.124.1h.146v-.014l-.146.014zm0 .015h-.145v.018l.145-.018zm-.087.13l.03.14h.005l-.035-.14zm.488-.145l-.145-.014v.014h.145zm.131-.1l-.031.14h.001l.03-.14zm0 4.905l-.029-.141h-.002l.031.141zm-.13-.094h-.147v.008l.001.007.145-.015zm0-.021h.145v-.016l-.146.016zm.087-.123l.018.143h.006l.006-.002-.03-.14zm0-4.423l-.036.14.006.002.03-.142zm-.088-.122l.145.018v-.018h-.145zm-.516 4.685c.003 0-.005 0-.014-.012a.045.045 0 01-.007-.016c-.002-.004-.001-.007-.001-.005l.29.032a.252.252 0 00-.047-.182.264.264 0 00-.15-.097l-.071.28zm-.023-.017v.014h.291v-.014h-.291zm0 0s.002-.009.013-.017a.043.043 0 01.033-.009l-.063.282a.252.252 0 00.308-.227l-.29-.03zm.044-.026c-.796-.16-1.356-1.019-1.356-2.308h-.291c0 1.347.591 2.39 1.588 2.59l.059-.282zm-1.356-2.308c0-1.296.56-2.15 1.357-2.316l-.06-.282c-.996.209-1.588 1.243-1.588 2.598h.291zm1.358-2.316a.041.041 0 01-.018 0 .056.056 0 01-.023-.012c-.013-.01-.012-.02-.012-.013l.29-.029a.263.263 0 00-.091-.18.243.243 0 00-.21-.047l.064.281zm-.053-.04v.015h.291v-.015h-.291zm0 .033c0-.007.002-.012.004-.016a.031.031 0 01.019-.012l.07.28a.263.263 0 00.197-.288l-.29.036zm.028-.03c-.877.18-1.377 1.135-1.377 2.353h.292c0-1.174.477-1.934 1.145-2.07l-.06-.283zm-1.377 2.353c0 1.219.508 2.172 1.385 2.352l.059-.282c-.669-.137-1.152-.898-1.152-2.07h-.292zm2.04-2.341s-.001.008-.012.017a.042.042 0 01-.033.008l.063-.281a.252.252 0 00-.308.227l.29.029zm-.044.025c.797.167 1.35 1.019 1.35 2.316h.291c0-1.354-.584-2.39-1.58-2.598l-.06.282zm1.35 2.316c0 1.29-.554 2.148-1.349 2.308l.058.282c.998-.2 1.582-1.244 1.582-2.59h-.291zm-1.351 2.308c.001 0 .013-.002.027.008.007.005.012.01.015.016l.003.009-.29.029a.25.25 0 00.106.183.258.258 0 00.202.037l-.063-.282zm.046.047v-.021h-.292v.021h.292zm0-.037c-.001-.002 0 .005-.008.016a.049.049 0 01-.032.02l-.036-.286a.248.248 0 00-.215.282l.29-.032zm-.028.034c.875-.188 1.383-1.132 1.383-2.352h-.291c0 1.171-.483 1.927-1.153 2.07l.061.282zm1.383-2.352c0-1.219-.507-2.173-1.384-2.353l-.059.282c.668.138 1.152.898 1.152 2.07h.291zm-1.378-2.351c.003 0 .01.003.015.011a.034.034 0 01.007.024l-.29-.036a.255.255 0 00.197.28l.071-.28zm.023.017v-.022h-.292v.022h.292z" fill="#FF6C1A"/></g><path d="M33.633 24.564c.043.021.08.064.08.115v4.726c0 .064-.058.115-.124.115-.073 0-.124-.05-.124-.116v-4.43l-.685.692c-.051.043-.124.05-.175 0-.05-.044-.05-.123 0-.173l.897-.9c.029-.037.087-.044.13-.03z" fill="#FF6C1A"/><mask id="mask4_2772_5012" style="mask-type:luminance" maskUnits="userSpaceOnUse" x="32" y="24" width="3" height="6"><path d="M34.005 24.406h-1.88v5.579h1.88v-5.579z" fill="#fff"/><path d="M33.633 24.564c.044.021.08.064.08.115v4.726c0 .064-.058.115-.124.115-.073 0-.124-.05-.124-.116v-4.43l-.685.692c-.05.043-.124.05-.175 0-.05-.044-.05-.123 0-.173l.897-.9c.029-.037.087-.044.131-.03z" fill="#000"/></mask><g mask="url(#mask4_2772_5012)"><path d="M33.633 24.564l.065-.13-.01-.004-.01-.003-.045.137zm-.168.41h.146v-.353l-.25.252.104.101zm-.685.692l.095.11.005-.005.004-.004-.104-.101zm-.175 0l.103-.102-.004-.004-.004-.004-.095.11zm0-.173l.103.102.001-.001-.104-.101zm.897-.9l.103.1.006-.005.004-.006-.113-.09zm.066.1l.002.001.001.001s-.004-.006-.004-.016h.292a.279.279 0 00-.161-.244l-.13.258zm0-.014v4.726h.29v-4.726h-.29zm0 4.726c0-.013.005-.021.009-.025a.017.017 0 01.012-.004v.288c.134 0 .27-.104.27-.26h-.292zm.021-.03c-.002 0 .004 0 .012.007.007.007.01.016.01.022h-.292c0 .15.123.26.27.26v-.288zm.022.03v-4.43h-.292v4.43h.292zm-.25-4.532l-.685.692.208.202.685-.692-.208-.202zm-.676.683c-.003.003-.003.001.003 0a.03.03 0 01.02.008l-.206.204c.117.115.278.087.373.007l-.19-.219zm.015 0c.01.008.013.019.013.026a.018.018 0 01-.005.013l-.206-.204a.26.26 0 00.008.384l.19-.219zm.01.038l.895-.9-.207-.203-.897.9.208.203zm.905-.912c-.012.016-.025.018-.026.019 0 0-.001 0 0 0h-.002l.092-.274a.293.293 0 00-.145-.01.246.246 0 00-.146.085l.227.18z" fill="#FF6C1A"/></g><path d="M26.343 20.962c.043.021.08.065.08.115v4.726c0 .064-.058.115-.124.115-.073 0-.124-.05-.124-.115v-4.43l-.685.691c-.051.043-.124.05-.175 0-.05-.043-.05-.122 0-.173l.896-.9c.03-.036.088-.044.132-.03z" fill="#FF6C1A"/><mask id="mask5_2772_5012" style="mask-type:luminance" maskUnits="userSpaceOnUse" x="24" y="20" width="3" height="7"><path d="M26.716 20.804h-1.881v5.579h1.881v-5.579z" fill="#fff"/><path d="M26.343 20.962c.044.021.08.065.08.115v4.726c0 .064-.058.115-.124.115-.073 0-.124-.05-.124-.115v-4.43l-.685.691c-.05.043-.124.05-.175 0-.05-.043-.05-.122 0-.173l.897-.9c.029-.036.087-.044.13-.03z" fill="#000"/></mask><g mask="url(#mask5_2772_5012)"><path d="M26.343 20.962l.065-.13-.009-.004-.01-.003-.046.137zm-.167.41h.145v-.353l-.25.253.105.1zm-.685.692l.094.11.005-.005.005-.004-.104-.101zm-.175 0l.103-.102-.004-.004-.005-.003-.094.109zm0-.173l.103.102-.103-.102zm.896-.9l.104.1.005-.005.005-.005-.114-.09zm.066.1s.002 0 .003.002c0 0 .001 0 0 0 0 0-.003-.006-.003-.016h.291a.279.279 0 00-.16-.244l-.131.258zm0-.014v4.726h.291v-4.726h-.291zm0 4.726a.03.03 0 01.01-.024.018.018 0 01.011-.005v.288c.135 0 .27-.104.27-.26h-.291zm.021-.03c-.001 0 .005 0 .012.008.007.007.01.016.01.022h-.291c0 .15.122.259.27.259v-.288zm.022.03v-4.43h-.291v4.43h.291zm-.25-4.531l-.685.691.209.202.685-.692-.209-.201zm-.675.683c-.003.002-.003 0 .003 0a.03.03 0 01.012.002.024.024 0 01.008.005l-.207.204a.272.272 0 00.373.007l-.19-.218zm.014 0c.01.008.013.018.013.025a.018.018 0 01-.004.013l-.207-.204a.26.26 0 00.009.384l.19-.218zm.01.037l.896-.9-.208-.202-.896.9.207.202zm.906-.911a.048.048 0 01-.026.018h-.003l.092-.274a.294.294 0 00-.144-.01.246.246 0 00-.147.086l.228.18z" fill="#FF6C1A"/></g><path d="M33.267 15.92c.044.02.08.064.08.114v4.726c0 .065-.058.115-.124.115-.073 0-.124-.05-.124-.115v-4.43l-.685.691c-.05.043-.124.05-.175 0-.05-.043-.05-.122 0-.173l.897-.9c.029-.036.087-.043.131-.029z" fill="#FF6C1A"/><mask id="mask6_2772_5012" style="mask-type:luminance" maskUnits="userSpaceOnUse" x="31" y="15" width="3" height="7"><path d="M33.64 15.761h-1.88v5.579h1.881v-5.58z" fill="#fff"/><path d="M33.267 15.92c.044.02.08.064.08.114v4.726c0 .065-.058.115-.124.115-.073 0-.124-.05-.124-.115v-4.43l-.685.691c-.05.043-.124.05-.175 0-.05-.043-.05-.122 0-.173l.897-.9c.029-.036.087-.043.131-.029z" fill="#000"/></mask><g mask="url(#mask6_2772_5012)"><path d="M33.267 15.92l.065-.13-.01-.004-.009-.004-.046.137zm-.168.41h.146v-.353l-.25.252.104.1zm-.685.691l.095.11.005-.004.005-.005-.105-.1zm-.175 0l.104-.102-.005-.003-.004-.004-.095.11zm0-.173l.104.102-.104-.102zm.897-.9l.104.101.005-.005.005-.006-.114-.09zm.066.1l.003.002s0 .001 0 0c0 0-.004-.006-.004-.016h.292a.279.279 0 00-.16-.244l-.131.258zm0-.014v4.726h.29v-4.726h-.29zm0 4.726a.03.03 0 01.01-.024.017.017 0 01.011-.005v.288c.135 0 .27-.104.27-.26H33.2zm.021-.029c-.001 0 .005 0 .012.007s.01.016.01.022h-.291c0 .15.122.26.27.26v-.289zm.022.029v-4.43h-.291v4.43h.291zm-.25-4.531l-.685.692.209.201.684-.692-.208-.201zm-.675.683c-.004.003-.003 0 .003 0 .003 0 .007 0 .011.003a.024.024 0 01.008.004l-.206.204c.117.116.278.088.373.008l-.19-.22zm.014 0c.01.008.013.018.013.026 0 .006-.003.01-.005.012l-.206-.203a.26.26 0 00.009.384l.19-.22zm.01.037l.896-.9-.208-.202-.896.9.207.202zm.906-.911c-.013.015-.026.018-.026.018h-.003l.092-.274a.293.293 0 00-.145-.009.247.247 0 00-.146.085l.228.18z" fill="#FF6C1A"/></g><path d="M40.192 11.957c.043.022.08.065.08.116v4.725c0 .065-.059.116-.124.116-.073 0-.124-.05-.124-.116v-4.43l-.685.692c-.051.043-.124.05-.175 0-.051-.044-.051-.123 0-.173l.896-.9c.03-.037.088-.044.132-.03z" fill="#FF6C1A"/><mask id="mask7_2772_5012" style="mask-type:luminance" maskUnits="userSpaceOnUse" x="38" y="11" width="3" height="7"><path d="M40.564 11.8h-1.88v5.578h1.88V11.8z" fill="#fff"/><path d="M40.192 11.957c.043.022.08.065.08.115v4.726c0 .065-.059.115-.124.115-.073 0-.124-.05-.124-.115v-4.43l-.685.691c-.051.043-.124.05-.175 0-.051-.043-.051-.122 0-.173l.896-.9c.03-.036.088-.043.132-.029z" fill="#000"/></mask><g mask="url(#mask7_2772_5012)"><path d="M40.191 11.957l.066-.129-.01-.004-.01-.004-.046.137zm-.167.41h.145v-.352l-.25.252.105.1zm-.685.692l.095.11.004-.004.005-.005-.104-.1zm-.175 0l.103-.101-.004-.004-.004-.004-.095.11zm0-.172l.103.101-.103-.101zm.896-.901l.104.101.005-.005.005-.006-.114-.09zm.066.1l.003.002s.001.001 0 0a.03.03 0 01-.003-.016h.291a.279.279 0 00-.16-.244l-.13.258zm0-.014v4.726h.291v-4.726h-.291zm0 4.726c0-.012.006-.02.01-.024a.017.017 0 01.012-.005v.288c.134 0 .27-.104.27-.259h-.292zm.022-.029c-.002 0 .004 0 .011.007a.03.03 0 01.01.022h-.291c0 .15.122.26.27.26v-.289zm.021.03v-4.431h-.291v4.43h.291zm-.25-4.532l-.684.692.208.201.685-.691-.208-.202zm-.675.683c-.003.003-.003 0 .003 0a.03.03 0 01.02.008l-.206.203c.117.116.278.088.373.008l-.19-.219zm.015 0a.036.036 0 01.012.026c0 .006-.002.01-.004.012l-.206-.203a.26.26 0 00.008.384l.19-.219zm.009.038l.896-.901-.208-.202-.896.9.208.203zm.906-.912c-.013.015-.025.018-.026.018h-.003l.092-.274a.293.293 0 00-.144-.009.247.247 0 00-.147.085l.228.18z" fill="#FF6C1A"/></g></g></g></g><defs><clipPath id="clip0_2772_5012"><path fill="#fff" d="M0 0h63v62H0z"/></clipPath><clipPath id="clip1_2772_5012"><path fill="#fff" transform="translate(12 11)" d="M0 0h39v40H0z"/></clipPath></defs></svg>