<svg width="63" height="62" fill="none" xmlns="http://www.w3.org/2000/svg"><g clip-path="url(#clip0_2772_5169)" stroke="#FF6C1A"><path d="M32 1h-1C14.431 1 1 14.431 1 31c0 16.569 13.431 30 30 30h1c16.569 0 30-13.431 30-30C62 14.431 48.569 1 32 1z" fill="#202020"/><path d="M30 23.069L34.842 21 40 24" stroke-width="1.12" stroke-miterlimit="10"/><path d="M28 30.609l3.821-1.888L28 22.082 35.617 14l8.87 2.699-1.878 2.076 1.878 6.347-3.444 3.76 4.796.792L52 36.422V42H39.005l.056-3.71 9.391-.83" stroke-width="1.12" stroke-miterlimit="10"/><path d="M32.129 42H14.366L10 28h16.401l3.293 11.224H38M32.03 23s-.46 4.731 2.253 4.994c2.077.2 2.717-4.407 2.717-4.407M24 21l-3 4m-11-4l3 4m4-6v5" stroke-width="1.12" stroke-miterlimit="10"/></g><defs><clipPath id="clip0_2772_5169"><path fill="#fff" d="M0 0h63v62H0z"/></clipPath></defs></svg>