<svg width="27" height="31" fill="none" xmlns="http://www.w3.org/2000/svg"><path fill-rule="evenodd" clip-rule="evenodd" d="M14.012 29.803l11.64-6.709-11.64 6.71zM25.944 7.401c.498.287.804.817.804 1.39v13.42c0 .572-.306 1.103-.804 1.39l-11.64 6.708a1.61 1.61 0 01-1.607 0L1.057 23.6a1.603 1.603 0 01-.805-1.39V8.792c0-.573.306-1.103.804-1.39l11.64-6.71a1.61 1.61 0 011.607 0l11.64 6.71zM12.988 29.804l-11.64-6.71a1.02 1.02 0 01-.512-.883V8.79c0-.364.194-.701.511-.884l11.64-6.71a1.026 1.026 0 011.025 0l11.64 6.71c.317.183.512.52.512.884v13.42c0 .364-.195.701-.511.883m-12.665 6.71a1.03 1.03 0 001.024 0h-1.024z" fill="#FF8947"/><path fill-rule="evenodd" clip-rule="evenodd" d="M19.628 19.166l-5.988 3.456a.243.243 0 01-.243 0l-5.988-3.456a.242.242 0 01-.122-.21v-6.912c0-.086.047-.167.122-.21l5.987-3.456a.244.244 0 01.243 0l5.989 3.456a.242.242 0 01.12.21v6.912a.242.242 0 01-.12.21zM13.105 7.872L7.118 11.33a.826.826 0 00-.414.715v6.912c0 .295.157.569.414.716l5.987 3.456c.255.147.57.147.826 0l5.988-3.456a.826.826 0 00.413-.716v-6.912a.826.826 0 00-.413-.715L13.93 7.872a.827.827 0 00-.826 0z" fill="#FF8947"/><path fill-rule="evenodd" clip-rule="evenodd" d="M13.226 30.487v-7.303h.584v7.303h-.584zm13.137-7.277l-6.337-3.63.29-.506 6.337 3.63-.29.506zm.346-14.922l-6.302 3.69-.295-.503 6.302-3.69.295.503zM13.226 7.78V.548h.584V7.78h-.584zm-6.568 4.145L.383 8.332l.29-.507 6.275 3.594-.29.506zm.331 7.755l-6.24 3.656-.295-.504 6.24-3.655.295.503z" fill="#FF8947"/></svg>