<svg width="63" height="62" fill="none" xmlns="http://www.w3.org/2000/svg"><g clip-path="url(#clip0_2772_5098)" stroke="#FF6C1A"><path d="M32 1h-1C14.431 1 1 14.431 1 31c0 16.569 13.431 30 30 30h1c16.569 0 30-13.431 30-30C62 14.431 48.569 1 32 1z" fill="#202020"/><path d="M15.5 42a9.5 9.5 0 0119 0v5.5h-19V42zM25 29.5a6 6 0 100-12 6 6 0 000 12z"/><path d="M29.435 37.663a9.5 9.5 0 0118.988.673l-.195 5.496-18.988-.673.195-5.496zM39 25.5a6 6 0 100-12 6 6 0 000 12z"/></g><defs><clipPath id="clip0_2772_5098"><path fill="#fff" d="M0 0h63v62H0z"/></clipPath></defs></svg>