<svg width="18" height="28" fill="none" xmlns="http://www.w3.org/2000/svg"><path d="M14.738 11.232c.805 1.4 1.018 3.16.732 4.317-.293 1.195-1.57 1.424-1.992.198-.423-1.226 1.108-2.879.08-5.502-.748-1.909-2.519-2.44-2.519-2.44 1.018 1.857-.927 2.521-1.517 1.42-.59-1.101.449-2.035.53-4.712C10.131 1.836 7.773 0 7.773 0c.746 2.613-.847 3.973-2.66 6.953-1.814 2.98-.807 5.98-.58 7.438.227 1.458-1.39 1.927-1.89.47-.498-1.458.336-3.368.336-3.368a9.619 9.619 0 00-2.203 3.243A10.206 10.206 0 000 18.66c0 4.494 2.87 8.27 6.753 9.34-.787-.942-1.677-2.64-1.131-5.203.77-3.61 3.45-3.773 2.887-7.125 0 0 2.65 2.58 1.683 5.107-.968 2.526-1.082 2.832-.847 3.53.575 1.706 3.245.906 2.354-1.641 0 0 2.262 2.484-.057 5.212C15.323 26.67 18 23 18 18.66a10.201 10.201 0 00-.854-4.105 9.563 9.563 0 00-2.408-3.323z" fill="url(#paint0_linear_2742_36687)"/><defs><linearGradient id="paint0_linear_2742_36687" x1="9" y1="0" x2="9" y2="28" gradientUnits="userSpaceOnUse"><stop stop-color="#FD971F"/><stop offset="1" stop-color="#FC6917"/></linearGradient></defs></svg>