<svg width="70" height="17" fill="none" xmlns="http://www.w3.org/2000/svg"><g clip-path="url(#clip0_3059_24282)" fill="#FF6C1A"><path d="M42.873 13.11h-.023c.012 0 .012.01.023.01h.012l-.012-.01zm0 .01c-.093 0-.338.046-.594.046-.804 0-1.083-.365-1.083-.844V9.15h1.642c.093 0 .163-.08.163-.194V7.234c0-.092-.081-.172-.163-.172h-1.642V4.917c0-.08-.058-.125-.151-.125h-2.237c-.093 0-.14.057-.14.125V7.12s-1.13.274-1.2.286a.172.172 0 00-.127.17v1.381c0 .114.081.194.175.194h1.14v3.332c0 2.476 1.76 2.727 2.96 2.727.547 0 1.21-.171 1.316-.229.058-.022.093-.09.093-.16v-1.517c0-.09-.059-.16-.152-.182zm24.53-2.224c0-1.837-.758-2.077-1.55-1.997a2.66 2.66 0 00-1.118.343v3.57s.5.343 1.258.366c1.06.023 1.41-.354 1.41-2.282zm2.515-.16c0 3.48-1.153 4.473-3.156 4.473-1.7 0-2.61-.845-2.61-.845s-.034.468-.092.525c-.035.057-.082.08-.152.08h-1.526c-.104 0-.198-.08-.198-.171l.024-11.261c0-.091.081-.171.174-.171h2.202c.093 0 .174.08.174.17V7.36s.85-.536 2.097-.536l-.012-.023c1.235 0 3.075.456 3.075 3.936zm-9.027-3.662h-2.177c-.117 0-.175.08-.175.194v5.51s-.57.388-1.351.388c-.769 0-1.002-.342-1.002-1.106V7.245a.177.177 0 00-.175-.171h-2.213a.177.177 0 00-.174.171v5.191c0 2.225 1.27 2.784 3.016 2.784 1.444 0 2.61-.776 2.61-.776s.057.4.08.457a.197.197 0 00.164.09h1.386c.116 0 .175-.079.175-.17l.023-7.576c.011-.091-.082-.171-.187-.171zm-24.529-.012h-2.2c-.094 0-.176.092-.176.206v7.439c0 .205.14.273.315.273h1.991c.21 0 .257-.09.257-.273V7.234c-.012-.092-.093-.172-.187-.172zm-1.094-3.434c-.793 0-1.433.616-1.433 1.404 0 .775.629 1.403 1.433 1.403.78 0 1.409-.616 1.409-1.403 0-.776-.63-1.404-1.41-1.404zm17.074-.25h-2.19a.177.177 0 00-.174.17V7.69h-3.424V3.548a.177.177 0 00-.175-.17h-2.201a.177.177 0 00-.175.17V14.81c0 .092.093.171.175.171h2.201c.093 0 .175-.08.175-.17V9.994h3.424l-.023 4.814c0 .092.081.171.175.171h2.2c.094 0 .175-.08.175-.17V3.547c.012-.09-.07-.17-.163-.17zM32.81 8.362v5.819c0 .034-.012.114-.058.125 0 0-1.293.902-3.425.902-2.574 0-5.637-.788-5.637-6.002 0-5.214 2.667-6.286 5.276-6.275 2.26 0 3.168.502 3.308.594.035.057.058.09.058.136l-.419 1.814c0 .092-.093.206-.21.172-.372-.114-.931-.331-2.247-.331-1.526 0-3.157.422-3.157 3.788 0 3.354 1.55 3.753 2.667 3.753.956 0 1.293-.114 1.293-.114v-2.327h-1.526c-.116 0-.198-.08-.198-.171V8.374c0-.09.082-.17.198-.17h3.879c.116-.012.198.068.198.16z"/><path fill-rule="evenodd" clip-rule="evenodd" d="M8.898.045C3.995.045.023 3.936.023 8.74c0 3.845 2.539 7.097 6.068 8.25.443.068.617-.183.617-.411 0-.206-.011-.89-.011-1.62-2.225.399-2.807-.537-2.982-1.016-.105-.251-.536-1.027-.908-1.232-.315-.16-.757-.57-.012-.582.699-.011 1.2.627 1.363.89.803 1.312 2.073.947 2.585.719.082-.56.315-.947.571-1.164-1.968-.217-4.041-.97-4.041-4.29 0-.947.349-1.734.908-2.339-.093-.217-.396-1.107.093-2.305 0 0 .746-.228 2.446.89a8.412 8.412 0 014.426 0c1.7-1.13 2.434-.89 2.434-.89.49 1.198.175 2.088.094 2.305.57.605.908 1.38.908 2.339 0 3.332-2.073 4.073-4.053 4.29.326.274.605.787.605 1.609 0 1.163-.011 2.099-.011 2.384 0 .228.163.502.605.41 3.611-1.197 6.045-4.517 6.045-8.248 0-4.792-3.971-8.683-8.875-8.683z"/></g><defs><clipPath id="clip0_3059_24282"><path fill="#fff" d="M0 0h70v17H0z"/></clipPath></defs></svg>