<svg width="414" height="105" fill="none" xmlns="http://www.w3.org/2000/svg"><g clip-path="url(#clip0_2884_25995)"><path d="M-115.798 86.998L612.92-29.185l5.4 33.82-728.718 116.183-5.4-33.82z" fill="#FC6B1A" fill-opacity=".78"/><path d="M-416.544 157.924c-.977.156-1.902.072-2.777-.252a4.048 4.048 0 01-2.022-1.669l1.061-.786c.386.634.895 1.08 1.526 1.337.632.258 1.328.326 2.089.205.843-.135 1.477-.426 1.901-.872.435-.449.603-.982.504-1.598-.069-.432-.227-.759-.473-.983-.237-.226-.598-.374-1.083-.444-.476-.072-1.125-.079-1.949-.021-1.221.079-2.19-.078-2.906-.469-.706-.393-1.129-1.027-1.268-1.9a2.588 2.588 0 01.237-1.587c.257-.504.657-.937 1.2-1.297.554-.362 1.216-.605 1.988-.728.915-.146 1.739-.103 2.471.127a3.626 3.626 0 011.817 1.275l-.928.923a2.931 2.931 0 00-1.349-1.018c-.539-.209-1.148-.259-1.827-.151-.802.128-1.414.389-1.836.783-.413.382-.576.85-.487 1.405.09.565.396.964.918 1.197.531.221 1.381.296 2.551.225 1.348-.078 2.348.079 3.001.47.663.389 1.069 1.051 1.219 1.986a2.923 2.923 0 01-.233 1.713c-.252.535-.669.991-1.252 1.369-.573.376-1.27.629-2.093.76zm7.553-1.362l-1.296.206-1.722-10.787 2.221-.354 4.924 8.554 2.016-9.661 2.221-.354 1.723 10.788-1.296.206-1.548-9.693-2.23 10.296-1.234.196-5.327-9.091 1.548 9.694zm13.175-2.101l-1.388.222 2.719-11.496 1.018-.163 6.165 10.08-1.388.221-1.914-3.171-4.381.698-.831 3.609zm2.155-9.383l-1.045 4.544 3.454-.55-2.409-3.994zm8.061 7.755l-1.723-10.788 4.858-.775c1.203-.192 2.163-.06 2.878.395.726.453 1.176 1.224 1.35 2.313.156.976-.015 1.788-.512 2.437-.487.646-1.161 1.085-2.02 1.317l3.96 3.699-1.604.256-3.937-3.655-2.622.418.667 4.176-1.295.207zm4.006-6.107c1.604-.256 2.292-1.103 2.062-2.541-.228-1.428-1.144-2.015-2.748-1.759l-3.563.568.687 4.3 3.562-.568zm10.919 3.727l-1.295.207-1.538-9.633-3.717.593-.185-1.156 8.73-1.392.184 1.156-3.717.593 1.538 9.632zm14.002-2.074a4.764 4.764 0 01-2.642-.306 5.183 5.183 0 01-2.122-1.7c-.568-.784-.936-1.7-1.103-2.748-.173-1.079-.11-2.074.187-2.985.308-.913.8-1.661 1.477-2.243a4.78 4.78 0 012.431-1.114c1.101-.176 2.019-.101 2.756.224a4.943 4.943 0 011.911 1.465l-.867.913c-.888-1.207-2.093-1.689-3.615-1.447a3.406 3.406 0 00-1.793.855c-.496.459-.856 1.048-1.078 1.768-.214.709-.252 1.494-.114 2.357.133.832.412 1.557.838 2.174.435.615.966 1.068 1.592 1.358.627.29 1.279.381 1.958.273 1.511-.241 2.5-1.078 2.967-2.512l1.118.564c-.626 1.755-1.927 2.789-3.901 3.104zm10.791-1.721c-.997.159-1.935.061-2.815-.294a5.371 5.371 0 01-2.216-1.701c-.589-.78-.965-1.684-1.129-2.712-.165-1.027-.088-1.998.23-2.913a5.24 5.24 0 011.577-2.306c.724-.621 1.584-1.011 2.581-1.17.998-.159 1.937-.056 2.818.309a5.125 5.125 0 012.201 1.704c.597.769.978 1.667 1.142 2.694.164 1.028.083 2.005-.244 2.931a5.255 5.255 0 01-1.561 2.304c-.725.61-1.586.995-2.584 1.154zm-.184-1.156a3.829 3.829 0 001.96-.897 4.052 4.052 0 001.165-1.813 4.982 4.982 0 00.152-2.316c-.129-.812-.417-1.525-.863-2.138a3.916 3.916 0 00-1.672-1.361 3.757 3.757 0 00-2.145-.259 3.745 3.745 0 00-1.958.913 3.912 3.912 0 00-1.165 1.813c-.233.722-.285 1.489-.155 2.301.13.811.418 1.529.866 2.153a4.056 4.056 0 001.672 1.361 3.823 3.823 0 002.143.243zm8.829-.38l-1.296.206-1.722-10.787 1.388-.222 7.002 7.702-1.373-8.599 1.296-.207 1.722 10.788-1.295.207-7.12-7.842 1.398 8.754zm14.097-2.248l-1.296.207-1.538-9.632-3.717.592-.184-1.155 8.729-1.392.185 1.156-3.717.592 1.538 9.632zm5.784-.922l-1.723-10.788 4.858-.774c1.203-.192 2.163-.061 2.879.394.726.453 1.176 1.224 1.35 2.314.155.976-.015 1.788-.513 2.436-.487.647-1.16 1.086-2.019 1.318l3.959 3.699-1.604.255-3.937-3.655-2.622.418.667 4.177-1.295.206zm4.007-6.107c1.604-.255 2.291-1.102 2.061-2.541-.228-1.428-1.144-2.014-2.748-1.758l-3.563.568.687 4.299 3.563-.568zm7.225 4.316l-1.388.222 2.719-11.496 1.018-.163 6.165 10.08-1.388.221-1.914-3.171-4.38.698-.832 3.609zm2.155-9.383l-1.045 4.544 3.454-.55-2.409-3.994zm11.956 7.292a4.768 4.768 0 01-2.643-.306c-.838-.362-1.545-.928-2.122-1.7-.568-.784-.935-1.7-1.103-2.748-.172-1.079-.11-2.074.188-2.985.307-.913.8-1.661 1.476-2.243a4.784 4.784 0 012.432-1.114c1.1-.176 2.019-.101 2.756.224a4.95 4.95 0 011.911 1.465l-.867.913c-.889-1.207-2.094-1.689-3.615-1.447a3.413 3.413 0 00-1.794.855c-.496.459-.855 1.048-1.077 1.768-.214.709-.252 1.494-.114 2.357.133.833.412 1.557.837 2.174.436.615.967 1.068 1.593 1.358.626.29 1.279.381 1.957.273 1.512-.241 2.501-1.078 2.968-2.512l1.118.564c-.627 1.755-1.927 2.789-3.901 3.104zm10.654-1.857l-1.296.207-1.538-9.632-3.717.592-.184-1.156 8.729-1.392.185 1.156-3.717.593 1.538 9.632zm9.982-1.592l-1.388.222 2.72-11.496 1.018-.163 6.164 10.08-1.388.221-1.914-3.171-4.38.698-.832 3.609zm2.156-9.383l-1.046 4.544 3.455-.55-2.409-3.994zm11.862 7.307c-1.521.242-2.707-.017-3.556-.777-.84-.772-1.394-1.995-1.661-3.67l-.925-5.795 1.295-.206.957 5.995c.209 1.305.619 2.224 1.232 2.759.611.524 1.435.703 2.474.538 1.038-.166 1.766-.593 2.184-1.281.415-.698.519-1.7.311-3.005l-.958-5.995 1.296-.206.925 5.794c.268 1.675.117 3.011-.451 4.007-.56.985-1.601 1.599-3.123 1.842zm6.967-1.269l-1.723-10.788 3.409-.544c1.552-.247 2.877-.005 3.975.726 1.106.719 1.805 1.998 2.099 3.837.294 1.839.028 3.278-.798 4.315-.816 1.026-2.001 1.663-3.554 1.91l-3.408.544zm3.285-1.709c2.571-.41 3.631-2.028 3.18-4.853-.452-2.826-1.962-4.033-4.533-3.624l-2.175.347 1.354 8.476 2.174-.346zm8.734-.208l-1.295.207-1.723-10.788 1.296-.206 1.722 10.787zm7.079-1.128l-1.296.206-1.538-9.632-3.717.593-.184-1.156 8.729-1.392.185 1.156-3.717.593 1.538 9.632zm9.489-1.513l-1.723-10.788 5.013-.799c.678-.108 1.275-.066 1.791.125.524.18.94.472 1.247.876.305.394.501.858.586 1.392.085.534.034 1.006-.153 1.415-.19.399-.405.702-.646.909.526.127.973.382 1.34.766.376.373.616.887.721 1.545.105.657.042 1.252-.189 1.784a3.095 3.095 0 01-1.09 1.296c-.496.332-1.078.551-1.746.658l-5.151.821zm4.023-6.994c.555-.089.976-.293 1.262-.613.297-.321.397-.785.3-1.391-.097-.606-.336-1.016-.718-1.229-.373-.224-.837-.293-1.393-.204l-3.717.592.549 3.437 3.717-.592zm.897 5.024c.751-.119 1.289-.379 1.616-.779.336-.401.455-.91.357-1.526-.099-.617-.37-1.064-.815-1.34-.435-.279-1.027-.358-1.778-.238l-3.809.607.62 3.884 3.809-.608zm9.303-.298l-1.295.207-.66-4.13-4.749-6.07 1.481-.236 3.7 4.751 2.022-5.664 1.465-.233-2.621 7.26.657 4.115zm13.898-2.057c-.997.159-1.936.061-2.815-.294a5.397 5.397 0 01-2.217-1.701c-.588-.781-.965-1.685-1.129-2.713-.164-1.027-.087-1.998.231-2.913a5.224 5.224 0 011.577-2.305c.724-.622 1.584-1.012 2.581-1.171.998-.159 1.937-.055 2.817.31a5.125 5.125 0 012.202 1.703c.597.769.978 1.667 1.142 2.695.164 1.027.083 2.004-.244 2.93a5.249 5.249 0 01-1.562 2.304c-.724.611-1.586.996-2.583 1.155zm-.185-1.156c.761-.122 1.415-.421 1.961-.898a4.055 4.055 0 001.165-1.813 4.98 4.98 0 00.152-2.316 4.881 4.881 0 00-.863-2.138 3.922 3.922 0 00-1.672-1.361 3.757 3.757 0 00-2.145-.259 3.76 3.76 0 00-1.958.913 3.915 3.915 0 00-1.165 1.814c-.233.721-.285 1.488-.155 2.3.13.812.418 1.529.866 2.153a4.058 4.058 0 001.672 1.362 3.837 3.837 0 002.142.243zm7.354-.145l-1.511.241 3.028-6.394-4.165-4.488 1.558-.248 3.216 3.501 2.012-4.335 1.496-.238-2.642 5.541 4.812 5.175-1.527.244-3.848-4.191-2.429 5.192zm13.511-1.996c-.998.159-1.936.061-2.815-.294a5.378 5.378 0 01-2.217-1.702c-.589-.78-.965-1.684-1.129-2.712-.164-1.027-.087-1.998.231-2.913a5.224 5.224 0 011.577-2.306c.723-.621 1.583-1.011 2.581-1.17.997-.159 1.936-.055 2.817.31a5.125 5.125 0 012.202 1.703c.597.769.977 1.667 1.141 2.694.165 1.028.083 2.005-.243 2.931a5.257 5.257 0 01-1.562 2.304c-.725.611-1.586.995-2.583 1.155zm-.185-1.156c.761-.122 1.414-.421 1.96-.898a4.049 4.049 0 001.166-1.813 4.98 4.98 0 00.152-2.316c-.13-.812-.417-1.524-.863-2.138a3.919 3.919 0 00-1.673-1.361 3.757 3.757 0 00-2.145-.259 3.761 3.761 0 00-1.957.913 3.917 3.917 0 00-1.166 1.814 4.89 4.89 0 00-.154 2.3c.129.812.418 1.529.865 2.153a4.061 4.061 0 001.673 1.362 3.836 3.836 0 002.142.243zm7.534-.174l-1.723-10.788 4.858-.775c1.203-.191 2.163-.06 2.878.395.727.453 1.177 1.224 1.35 2.313.156.976-.014 1.788-.512 2.437-.487.646-1.16 1.085-2.02 1.317l3.96 3.699-1.604.256-3.937-3.655-2.622.418.667 4.176-1.295.207zm4.006-6.107c1.604-.256 2.292-1.103 2.062-2.541-.228-1.428-1.144-2.015-2.748-1.759l-3.563.568.687 4.3 3.562-.568zm8.028 4.188l-1.295.207-1.723-10.788 1.296-.207 1.722 10.788zm7.396-1.021c-.997.159-1.935.061-2.814-.294a5.368 5.368 0 01-2.217-1.701c-.589-.781-.965-1.685-1.129-2.712-.164-1.028-.088-1.999.23-2.913a5.229 5.229 0 011.578-2.306c.723-.621 1.583-1.011 2.58-1.17.998-.159 1.937-.056 2.818.309a5.111 5.111 0 012.201 1.704c.597.768.978 1.666 1.142 2.694.164 1.027.083 2.004-.244 2.931a5.258 5.258 0 01-1.561 2.303c-.725.611-1.586.996-2.584 1.155zm-.184-1.156a3.825 3.825 0 001.96-.897 4.05 4.05 0 001.165-1.814 4.98 4.98 0 00.152-2.316 4.886 4.886 0 00-.863-2.138 3.923 3.923 0 00-1.672-1.361 3.757 3.757 0 00-2.145-.258 3.755 3.755 0 00-1.958.912 3.92 3.92 0 00-1.165 1.814c-.233.722-.284 1.489-.155 2.3.13.812.418 1.53.866 2.154a4.064 4.064 0 001.672 1.361 3.84 3.84 0 002.143.243zm18.192-1.715c-.977.156-1.903.071-2.777-.253a4.038 4.038 0 01-2.022-1.669l1.061-.785c.386.634.894 1.079 1.526 1.337.632.257 1.328.326 2.089.204.843-.134 1.477-.425 1.901-.872a1.78 1.78 0 00.504-1.597c-.069-.432-.227-.76-.474-.984-.236-.225-.597-.373-1.083-.443-.475-.072-1.125-.079-1.948-.022-1.221.079-2.19-.077-2.906-.469-.706-.393-1.129-1.026-1.268-1.899a2.588 2.588 0 01.237-1.587c.256-.504.657-.937 1.2-1.297.554-.363 1.216-.605 1.987-.728.915-.146 1.739-.104 2.472.127a3.63 3.63 0 011.817 1.275l-.928.922a2.935 2.935 0 00-1.349-1.017c-.54-.209-1.149-.26-1.827-.151-.802.127-1.414.388-1.836.782-.414.382-.576.851-.488 1.405.091.566.397.965.919 1.197.531.221 1.381.296 2.551.226 1.347-.078 2.348.078 3.001.47.663.389 1.069 1.051 1.218 1.986a2.918 2.918 0 01-.232 1.712c-.252.536-.67.992-1.253 1.37-.572.375-1.27.629-2.092.76zm7.553-1.362l-1.296.206-1.722-10.788 2.22-.354 4.925 8.555 2.016-9.661 2.221-.354 1.722 10.787-1.295.207-1.548-9.694-2.231 10.297-1.234.196-5.326-9.091 1.548 9.694zm13.175-2.101l-1.388.221 2.719-11.496 1.018-.162 6.164 10.08-1.388.221-1.914-3.172-4.38.699-.831 3.609zm2.155-9.383l-1.046 4.544 3.455-.551-2.409-3.993zm8.06 7.754l-1.722-10.787 4.858-.775c1.203-.192 2.162-.06 2.878.394.726.454 1.176 1.225 1.35 2.314.156.976-.015 1.788-.513 2.436-.487.647-1.16 1.086-2.02 1.318l3.96 3.699-1.604.256-3.936-3.656-2.622.418.667 4.177-1.296.206zm4.007-6.106c1.604-.256 2.291-1.103 2.061-2.542-.228-1.428-1.144-2.014-2.748-1.758l-3.562.568.686 4.3 3.563-.568zm10.919 3.727l-1.296.206-1.538-9.632-3.717.593-.184-1.156 8.73-1.392.184 1.156-3.717.593 1.538 9.632zm14.002-2.075a4.757 4.757 0 01-2.643-.305c-.838-.362-1.545-.929-2.122-1.701-.568-.784-.935-1.7-1.103-2.747-.172-1.08-.11-2.074.188-2.986.307-.913.8-1.66 1.476-2.242a4.784 4.784 0 012.432-1.115c1.1-.175 2.019-.1 2.756.225a4.945 4.945 0 011.91 1.465l-.866.912c-.889-1.206-2.094-1.689-3.615-1.446a3.406 3.406 0 00-1.793.855c-.497.458-.856 1.048-1.078 1.768-.214.708-.252 1.494-.114 2.357.133.832.412 1.557.837 2.174.436.615.967 1.068 1.593 1.358.626.29 1.279.381 1.957.273 1.512-.241 2.5-1.079 2.968-2.512l1.118.564c-.627 1.754-1.927 2.789-3.901 3.103zm10.791-1.72c-.998.159-1.936.061-2.815-.294a5.374 5.374 0 01-2.217-1.701c-.588-.78-.965-1.685-1.129-2.712-.164-1.028-.087-1.999.23-2.913a5.226 5.226 0 011.578-2.306c.723-.621 1.584-1.011 2.581-1.17.997-.16 1.936-.056 2.817.31.88.354 1.613.922 2.202 1.703.597.768.978 1.666 1.142 2.694.164 1.027.082 2.004-.244 2.93a5.255 5.255 0 01-1.562 2.304c-.725.611-1.586.996-2.583 1.155zm-.185-1.156a3.83 3.83 0 001.96-.897 4.054 4.054 0 001.166-1.814 4.985 4.985 0 00.152-2.316c-.13-.811-.417-1.524-.863-2.138a3.922 3.922 0 00-1.673-1.36 3.756 3.756 0 00-2.145-.26 3.755 3.755 0 00-1.957.913 3.919 3.919 0 00-1.166 1.814 4.891 4.891 0 00-.154 2.3c.13.812.418 1.53.866 2.154a4.057 4.057 0 001.672 1.36 3.831 3.831 0 002.142.244zm8.83-.38l-1.296.206-1.723-10.788 1.388-.221 7.003 7.702-1.373-8.6 1.295-.206 1.723 10.788-1.296.206-7.12-7.841 1.398 8.754zm14.097-2.248l-1.296.207-1.538-9.632-3.717.592-.185-1.156 8.73-1.391.184 1.155-3.717.593 1.538 9.632zm5.783-.922l-1.722-10.788 4.858-.775c1.203-.191 2.162-.06 2.878.395.726.453 1.176 1.224 1.35 2.313.156.976-.015 1.788-.512 2.437-.487.646-1.16 1.086-2.02 1.317l3.96 3.7-1.604.255-3.937-3.655-2.622.418.667 4.176-1.296.207zm4.007-6.107c1.604-.256 2.291-1.103 2.062-2.541-.228-1.428-1.144-2.014-2.748-1.759l-3.563.568.686 4.3 3.563-.568zm7.226 4.316l-1.388.221 2.72-11.496 1.017-.162 6.164 10.08-1.388.221-1.914-3.172-4.38.699-.831 3.609zm2.155-9.383l-1.046 4.544 3.455-.55-2.409-3.994zM-3.687 92.1a4.759 4.759 0 01-2.642-.305c-.838-.362-1.545-.929-2.122-1.7-.568-.784-.936-1.7-1.103-2.748-.172-1.08-.11-2.074.187-2.986.308-.913.8-1.66 1.477-2.242a4.785 4.785 0 012.432-1.115c1.1-.175 2.018-.1 2.756.225a4.944 4.944 0 011.91 1.465l-.866.913c-.889-1.207-2.094-1.69-3.616-1.447a3.407 3.407 0 00-1.793.855c-.496.458-.855 1.048-1.078 1.768-.213.708-.251 1.494-.114 2.357.133.832.412 1.557.838 2.174.435.615.966 1.068 1.593 1.358.626.29 1.278.38 1.957.273 1.511-.241 2.5-1.079 2.968-2.512l1.118.564c-.627 1.754-1.927 2.789-3.902 3.103zm10.655-1.856l-1.296.206-1.538-9.632-3.717.593-.185-1.156 8.73-1.392.184 1.156-3.717.593 1.538 9.632zm9.982-1.592l-1.388.222 2.72-11.497 1.017-.162 6.165 10.08-1.388.221-1.914-3.172-4.38.699-.832 3.61zm2.155-9.383l-1.046 4.544 3.455-.55-2.409-3.994zm11.863 7.306c-1.522.243-2.707-.016-3.556-.776-.84-.772-1.394-1.996-1.662-3.67l-.925-5.795 1.296-.207.957 5.996c.209 1.304.619 2.224 1.231 2.758.611.525 1.436.704 2.474.538 1.039-.165 1.767-.592 2.184-1.28.416-.699.52-1.7.311-3.005l-.957-5.995 1.296-.207.925 5.795c.267 1.675.117 3.01-.452 4.007-.56.985-1.6 1.599-3.122 1.841zm6.966-1.269L36.212 74.52l3.408-.544c1.553-.247 2.878-.006 3.975.726 1.106.719 1.806 1.998 2.1 3.837.293 1.84.027 3.278-.798 4.315-.817 1.026-2.001 1.663-3.554 1.91l-3.409.543zm3.286-1.709c2.57-.41 3.63-2.027 3.18-4.852-.452-2.826-1.963-4.034-4.533-3.624l-2.175.347 1.353 8.476 2.175-.347zm8.734-.207l-1.296.207-1.722-10.788 1.295-.207 1.723 10.788zm7.078-1.128l-1.295.206-1.538-9.632-3.717.593-.185-1.156 8.73-1.392.184 1.156-3.717.593 1.538 9.632zm9.49-1.513L64.799 69.96l5.012-.8c.679-.108 1.276-.066 1.792.126.524.18.94.472 1.247.876.305.394.5.858.586 1.392.085.534.034 1.006-.154 1.415-.19.4-.404.702-.645.91.526.126.973.381 1.34.765.375.372.616.887.72 1.545.106.657.043 1.252-.189 1.784a3.091 3.091 0 01-1.09 1.296c-.495.332-1.077.55-1.745.657l-5.151.822zm4.023-6.995c.555-.088.976-.292 1.262-.612.297-.321.397-.785.3-1.391-.097-.606-.336-1.016-.718-1.229-.374-.225-.838-.293-1.393-.205l-3.717.593.549 3.437 3.717-.593zm.897 5.025c.75-.12 1.289-.38 1.615-.78.337-.4.456-.91.358-1.526-.099-.616-.37-1.063-.816-1.34-.434-.278-1.027-.357-1.777-.238l-3.81.608.62 3.883 3.81-.607zm9.303-.298l-1.296.207-.659-4.13-4.75-6.07 1.481-.237 3.7 4.752 2.022-5.664 1.466-.234-2.621 7.261.657 4.115zm13.898-2.058c-.998.16-1.936.061-2.815-.294a5.376 5.376 0 01-2.217-1.7c-.589-.781-.965-1.685-1.129-2.713-.164-1.027-.087-1.998.23-2.913a5.226 5.226 0 011.578-2.306c.723-.62 1.584-1.01 2.58-1.17.998-.159 1.937-.056 2.818.31.88.355 1.613.922 2.201 1.703.598.769.978 1.667 1.142 2.694.164 1.028.083 2.005-.243 2.931a5.254 5.254 0 01-1.562 2.304c-.725.61-1.586.995-2.583 1.154zm-.185-1.156a3.83 3.83 0 001.96-.897 4.055 4.055 0 001.166-1.813 4.985 4.985 0 00.152-2.316c-.13-.812-.418-1.525-.863-2.138a3.922 3.922 0 00-1.673-1.361 3.756 3.756 0 00-2.145-.259 3.755 3.755 0 00-1.957.913 3.919 3.919 0 00-1.166 1.813c-.233.722-.284 1.489-.154 2.3.13.812.418 1.53.865 2.154a4.057 4.057 0 001.673 1.361 3.831 3.831 0 002.142.243zm7.354-.145l-1.512.241 3.028-6.393-4.164-4.488 1.557-.248 3.217 3.5 2.012-4.334 1.496-.239-2.642 5.542 4.812 5.175-1.527.243-3.848-4.19-2.429 5.191zm13.51-1.996c-.997.16-1.935.061-2.814-.294a5.373 5.373 0 01-2.217-1.7c-.589-.781-.965-1.685-1.129-2.713-.164-1.027-.087-1.998.23-2.913a5.23 5.23 0 011.578-2.306c.723-.62 1.583-1.01 2.58-1.17.998-.159 1.937-.056 2.818.31a5.113 5.113 0 012.201 1.703c.597.769.978 1.667 1.142 2.694.164 1.028.083 2.005-.244 2.931a5.256 5.256 0 01-1.561 2.304c-.725.61-1.586.995-2.584 1.154zm-.184-1.156a3.828 3.828 0 001.96-.897 4.05 4.05 0 001.165-1.813 4.993 4.993 0 00.153-2.316c-.13-.812-.418-1.525-.864-2.138a3.919 3.919 0 00-1.672-1.361 3.757 3.757 0 00-2.145-.259 3.758 3.758 0 00-1.958.913 3.918 3.918 0 00-1.165 1.813c-.233.722-.284 1.489-.155 2.3.13.812.418 1.53.866 2.154a4.056 4.056 0 001.672 1.361 3.833 3.833 0 002.143.243zm7.533-.174l-1.722-10.787 4.858-.775c1.203-.192 2.162-.06 2.878.395.726.453 1.176 1.224 1.35 2.313.156.976-.015 1.788-.512 2.436-.488.647-1.161 1.086-2.02 1.318l3.959 3.699-1.604.256-3.936-3.655-2.622.418.667 4.176-1.296.206zm4.007-6.106c1.604-.256 2.291-1.103 2.062-2.541-.228-1.429-1.145-2.015-2.749-1.76l-3.562.569.686 4.3 3.563-.568zm8.028 4.188l-1.296.206-1.722-10.788 1.295-.206 1.723 10.788zm7.396-1.021c-.997.159-1.936.06-2.815-.294a5.373 5.373 0 01-2.217-1.701c-.588-.781-.965-1.685-1.129-2.712-.164-1.028-.087-1.999.231-2.914a5.228 5.228 0 011.577-2.305c.723-.621 1.584-1.011 2.581-1.17.997-.16 1.936-.056 2.817.309a5.122 5.122 0 012.202 1.703c.597.77.978 1.667 1.142 2.695.164 1.027.082 2.004-.244 2.93a5.249 5.249 0 01-1.562 2.304c-.725.61-1.586.996-2.583 1.155zm-.185-1.156a3.832 3.832 0 001.961-.897 4.058 4.058 0 001.165-1.814 4.98 4.98 0 00.152-2.316 4.881 4.881 0 00-.863-2.138 3.922 3.922 0 00-1.673-1.361 3.753 3.753 0 00-2.144-.259 3.753 3.753 0 00-1.958.913 3.919 3.919 0 00-1.166 1.814 4.892 4.892 0 00-.154 2.3c.129.812.418 1.53.866 2.154a4.056 4.056 0 001.672 1.36 3.83 3.83 0 002.142.244zm18.192-1.715c-.977.155-1.902.071-2.776-.253a4.032 4.032 0 01-2.022-1.669l1.06-.785c.386.633.895 1.08 1.527 1.337.631.257 1.327.325 2.088.204.843-.134 1.477-.425 1.901-.872.435-.449.603-.981.504-1.598-.068-.431-.226-.759-.473-.983-.236-.226-.597-.373-1.083-.444-.475-.071-1.125-.078-1.949-.02-1.221.078-2.189-.078-2.906-.47-.706-.393-1.128-1.026-1.268-1.9a2.601 2.601 0 01.237-1.586c.257-.505.657-.937 1.201-1.298.553-.362 1.216-.605 1.987-.727.915-.146 1.739-.104 2.472.127.732.23 1.338.656 1.816 1.275l-.928.922a2.935 2.935 0 00-1.348-1.018c-.54-.209-1.149-.259-1.828-.15-.802.127-1.414.388-1.836.782-.413.382-.576.85-.487 1.405.09.565.396.964.919 1.197.53.221 1.381.296 2.55.225 1.348-.077 2.348.08 3.001.47.663.39 1.07 1.052 1.219 1.987a2.913 2.913 0 01-.233 1.712c-.252.535-.669.992-1.252 1.37-.573.375-1.27.629-2.093.76zm7.553-1.363l-1.295.207-1.723-10.788 2.221-.354 4.925 8.555 2.015-9.662 2.221-.354 1.723 10.788-1.296.207-1.547-9.694-2.231 10.296-1.234.197-5.327-9.091 1.548 9.693zm13.175-2.1l-1.388.221 2.72-11.496 1.018-.162 6.164 10.08-1.388.22-1.914-3.17-4.38.697-.832 3.61zm2.156-9.384l-1.046 4.545 3.455-.55-2.409-3.995zm8.06 7.755l-1.723-10.788 4.858-.774c1.203-.192 2.163-.06 2.879.394.726.453 1.176 1.224 1.35 2.313.155.977-.015 1.789-.513 2.437-.487.647-1.16 1.086-2.019 1.318l3.959 3.699-1.604.255-3.937-3.655-2.622.418.667 4.177-1.295.206zm4.007-6.107c1.604-.255 2.291-1.102 2.061-2.54-.228-1.429-1.144-2.015-2.748-1.76l-3.563.569.687 4.3 3.563-.569zm10.919 3.727l-1.296.207-1.538-9.632-3.717.593-.184-1.156 8.729-1.392.185 1.156-3.717.592 1.538 9.632zm14.001-2.074a4.757 4.757 0 01-2.642-.305c-.838-.362-1.545-.929-2.122-1.7-.568-.785-.936-1.7-1.103-2.749-.172-1.078-.11-2.074.187-2.985.308-.913.8-1.66 1.477-2.242a4.783 4.783 0 012.432-1.115c1.1-.175 2.019-.1 2.756.224a4.945 4.945 0 011.91 1.466l-.866.912c-.889-1.207-2.094-1.689-3.616-1.446a3.409 3.409 0 00-1.793.855c-.496.458-.855 1.047-1.078 1.768-.213.708-.251 1.494-.114 2.357.133.832.412 1.557.838 2.174.435.615.966 1.068 1.593 1.358.626.29 1.278.38 1.957.272 1.511-.24 2.501-1.078 2.968-2.512l1.118.565c-.627 1.754-1.927 2.788-3.902 3.103zm10.791-1.72c-.997.159-1.935.06-2.814-.294a5.373 5.373 0 01-2.217-1.701c-.589-.781-.965-1.685-1.129-2.712-.164-1.028-.087-1.999.231-2.913a5.22 5.22 0 011.577-2.306c.723-.621 1.583-1.011 2.581-1.17.997-.16 1.936-.056 2.817.309a5.113 5.113 0 012.201 1.703c.598.77.978 1.667 1.142 2.695.164 1.027.083 2.004-.243 2.93a5.258 5.258 0 01-1.562 2.304c-.725.61-1.586.996-2.584 1.155zm-.184-1.156a3.828 3.828 0 001.96-.898 4.06 4.06 0 001.166-1.813 4.993 4.993 0 00.152-2.316c-.13-.812-.418-1.524-.864-2.138a3.919 3.919 0 00-1.672-1.361 3.757 3.757 0 00-2.145-.259 3.758 3.758 0 00-1.958.913 3.918 3.918 0 00-1.165 1.814c-.233.721-.284 1.488-.155 2.3.13.812.419 1.53.866 2.154a4.059 4.059 0 001.673 1.36 3.83 3.83 0 002.142.244zm8.829-.381l-1.296.207-1.722-10.788 1.388-.221 7.002 7.702-1.373-8.6 1.296-.206 1.722 10.788-1.295.206-7.12-7.841 1.398 8.753zm14.097-2.247l-1.295.206-1.538-9.632-3.717.593-.185-1.156 8.73-1.392.184 1.156-3.717.593 1.538 9.632zm5.784-.922l-1.723-10.788 4.859-.775c1.203-.192 2.162-.06 2.878.395.726.453 1.176 1.224 1.35 2.313.156.976-.015 1.788-.513 2.437-.487.646-1.16 1.085-2.019 1.317l3.959 3.699-1.604.256-3.936-3.655-2.622.418.667 4.176-1.296.207zm4.007-6.107c1.604-.256 2.291-1.103 2.061-2.541-.228-1.428-1.144-2.015-2.748-1.759l-3.562.568.686 4.3 3.563-.568zm7.226 4.316l-1.389.221 2.72-11.496 1.018-.162 6.164 10.08-1.388.22-1.914-3.17-4.38.697-.831 3.61zm2.155-9.383l-1.046 4.544 3.455-.551-2.409-3.993zm11.955 7.291a4.76 4.76 0 01-2.643-.306c-.838-.361-1.545-.928-2.121-1.7-.569-.784-.936-1.7-1.104-2.748-.172-1.079-.109-2.074.188-2.985.308-.913.8-1.66 1.477-2.242a4.783 4.783 0 012.431-1.115c1.1-.175 2.019-.1 2.756.224a4.941 4.941 0 011.911 1.466l-.867.912c-.888-1.207-2.093-1.689-3.615-1.446a3.405 3.405 0 00-1.793.855c-.496.458-.856 1.047-1.078 1.768-.214.708-.252 1.494-.114 2.357.133.832.412 1.557.837 2.174.436.615.967 1.068 1.593 1.358.626.29 1.279.38 1.957.272 1.512-.24 2.501-1.078 2.968-2.511l1.118.564c-.626 1.754-1.927 2.788-3.901 3.103zm10.654-1.856l-1.295.206-1.538-9.632-3.717.593-.185-1.156 8.73-1.392.184 1.156-3.717.592 1.538 9.633zm9.983-1.592l-1.388.221 2.719-11.496 1.018-.162 6.164 10.08-1.388.22-1.914-3.17-4.38.698-.831 3.609zm2.155-9.383l-1.046 4.544 3.455-.55-2.409-3.994zm11.863 7.306c-1.522.243-2.707-.016-3.556-.776-.841-.773-1.394-1.996-1.662-3.67l-.925-5.795 1.295-.207.958 5.995c.208 1.305.619 2.225 1.231 2.76.611.523 1.436.703 2.474.537 1.039-.166 1.767-.592 2.184-1.28.416-.699.519-1.7.311-3.005l-.957-5.995 1.295-.207.925 5.795c.268 1.674.117 3.01-.451 4.007-.56.985-1.601 1.598-3.122 1.841zm6.966-1.269l-1.722-10.788 3.408-.543c1.553-.248 2.878-.006 3.975.725 1.106.72 1.806 1.999 2.099 3.838.294 1.839.028 3.277-.797 4.315-.817 1.026-2.002 1.662-3.554 1.91l-3.409.543zm3.286-1.709c2.57-.41 3.63-2.027 3.179-4.853-.451-2.825-1.962-4.033-4.533-3.623l-2.174.347 1.353 8.476 2.175-.347zm8.734-.208l-1.296.207-1.723-10.787 1.296-.207 1.723 10.788zm7.078-1.128l-1.296.207-1.538-9.632-3.717.592-.184-1.155 8.729-1.392.185 1.156-3.717.592 1.538 9.632zm9.489-1.512l-1.723-10.788 5.013-.8c.679-.108 1.276-.066 1.791.126.525.18.94.471 1.247.876.306.393.501.857.586 1.392.086.534.035 1.006-.153 1.415-.19.399-.405.702-.646.909.527.127.973.382 1.34.766.376.372.616.887.721 1.544.105.658.042 1.253-.189 1.785a3.089 3.089 0 01-1.09 1.296c-.495.331-1.077.55-1.746.657l-5.151.822zm4.023-6.995c.556-.088.976-.293 1.263-.612.296-.321.396-.785.3-1.391-.097-.607-.337-1.016-.719-1.23-.373-.224-.837-.292-1.392-.204l-3.717.593.548 3.437 3.717-.593zm.898 5.025c.75-.12 1.289-.38 1.615-.78.337-.4.456-.91.357-1.526-.098-.617-.37-1.063-.815-1.34-.434-.278-1.027-.358-1.778-.238l-3.809.607.62 3.884 3.81-.607zm9.303-.298l-1.296.206-.659-4.13-4.75-6.07 1.481-.236 3.701 4.752 2.021-5.664 1.465-.234-2.62 7.26.657 4.116zm13.897-2.058c-.997.159-1.935.061-2.814-.294a5.373 5.373 0 01-2.217-1.701c-.589-.78-.965-1.685-1.129-2.712-.164-1.027-.088-1.998.23-2.913a5.23 5.23 0 011.578-2.306c.723-.621 1.583-1.011 2.58-1.17.998-.16 1.937-.056 2.818.31a5.113 5.113 0 012.201 1.703c.597.769.978 1.667 1.142 2.694.164 1.027.083 2.004-.244 2.93a5.248 5.248 0 01-1.561 2.304c-.725.611-1.586.996-2.584 1.155zm-.184-1.156a3.828 3.828 0 001.96-.897 4.05 4.05 0 001.165-1.814 4.98 4.98 0 00.152-2.315 4.881 4.881 0 00-.863-2.138 3.92 3.92 0 00-1.672-1.362 3.756 3.756 0 00-2.145-.258 3.758 3.758 0 00-1.958.912 3.918 3.918 0 00-1.165 1.814c-.233.722-.284 1.489-.155 2.3.13.812.418 1.53.866 2.154a4.056 4.056 0 001.672 1.361 3.834 3.834 0 002.143.243zm7.353-.145l-1.511.241 3.028-6.393-4.165-4.488 1.558-.249 3.216 3.502 2.013-4.335 1.496-.239-2.642 5.542 4.811 5.175-1.526.243-3.849-4.19-2.429 5.191zm13.511-1.996c-.997.159-1.936.061-2.815-.294a5.372 5.372 0 01-2.217-1.701c-.588-.78-.965-1.685-1.129-2.712-.164-1.027-.087-1.998.231-2.913a5.228 5.228 0 011.577-2.306c.723-.621 1.584-1.011 2.581-1.17.997-.16 1.936-.056 2.817.31a5.122 5.122 0 012.202 1.703c.597.768.978 1.666 1.142 2.694.164 1.027.083 2.004-.244 2.93a5.25 5.25 0 01-1.562 2.304c-.725.611-1.586.996-2.583 1.155zm-.185-1.156a3.832 3.832 0 001.961-.897 4.059 4.059 0 001.165-1.814 4.98 4.98 0 00.152-2.316 4.881 4.881 0 00-.863-2.138 3.922 3.922 0 00-1.673-1.36 3.753 3.753 0 00-2.144-.26 3.753 3.753 0 00-1.958.913 3.919 3.919 0 00-1.166 1.814 4.892 4.892 0 00-.154 2.3c.129.812.418 1.53.866 2.154a4.056 4.056 0 001.672 1.361 3.83 3.83 0 002.142.243zm7.534-.174l-1.723-10.788 4.859-.774c1.203-.192 2.162-.06 2.878.394.726.454 1.176 1.225 1.35 2.314.156.976-.015 1.788-.513 2.436-.487.647-1.16 1.086-2.019 1.318l3.959 3.699-1.604.255-3.937-3.655-2.621.418.666 4.177-1.295.206zm4.007-6.107c1.604-.255 2.291-1.102 2.061-2.54-.228-1.429-1.144-2.015-2.748-1.76l-3.563.569.687 4.3 3.563-.569zm8.027 4.189l-1.295.206-1.723-10.788 1.296-.206 1.722 10.787zm7.397-1.022c-.998.16-1.936.061-2.815-.294a5.373 5.373 0 01-2.217-1.7c-.589-.781-.965-1.685-1.129-2.713-.164-1.027-.087-1.998.231-2.913a5.22 5.22 0 011.577-2.306c.723-.62 1.583-1.01 2.581-1.17.997-.159 1.936-.056 2.817.31a5.113 5.113 0 012.201 1.703c.598.769.978 1.667 1.142 2.694.164 1.028.083 2.005-.243 2.931a5.258 5.258 0 01-1.562 2.304c-.725.61-1.586.995-2.583 1.154zm-.185-1.155a3.83 3.83 0 001.96-.898 4.06 4.06 0 001.166-1.813 4.993 4.993 0 00.152-2.316c-.13-.812-.418-1.524-.864-2.138a3.919 3.919 0 00-1.672-1.361 3.757 3.757 0 00-2.145-.259 3.757 3.757 0 00-1.958.913 3.925 3.925 0 00-1.165 1.813c-.233.722-.284 1.49-.155 2.3.13.812.419 1.53.866 2.154a4.058 4.058 0 001.673 1.361 3.83 3.83 0 002.142.244zm18.192-1.716c-.977.156-1.902.072-2.777-.252a4.04 4.04 0 01-2.022-1.67l1.061-.785c.386.634.895 1.08 1.526 1.337.632.258 1.328.326 2.089.205.843-.135 1.477-.425 1.901-.872.434-.449.602-.981.504-1.598-.069-.431-.227-.76-.473-.983-.237-.226-.598-.374-1.083-.444-.476-.072-1.125-.079-1.949-.021-1.221.079-2.19-.078-2.906-.47-.706-.392-1.129-1.026-1.268-1.899a2.587 2.587 0 01.237-1.586c.257-.505.657-.938 1.2-1.298.554-.362 1.216-.605 1.988-.728.915-.146 1.739-.103 2.471.128.733.23 1.339.655 1.817 1.275l-.928.922a2.932 2.932 0 00-1.349-1.018c-.539-.209-1.148-.26-1.827-.15-.802.127-1.414.388-1.836.782-.414.382-.576.85-.487 1.405.09.565.396.964.918 1.197.531.22 1.381.296 2.551.225 1.348-.078 2.348.079 3.001.47.663.39 1.069 1.052 1.219 1.987a2.92 2.92 0 01-.233 1.712c-.252.535-.669.992-1.252 1.369-.573.376-1.271.63-2.093.76zm7.553-1.362l-1.296.207-1.722-10.788 2.221-.354 4.924 8.554 2.016-9.66 2.221-.355 1.723 10.788-1.296.207-1.548-9.694-2.231 10.296-1.233.197-5.327-9.092 1.548 9.694zm13.175-2.101l-1.388.222 2.719-11.496 1.018-.163 6.165 10.08-1.388.222-1.914-3.172-4.381.698-.831 3.61zm2.155-9.383l-1.045 4.545 3.454-.551-2.409-3.994zm8.06 7.755l-1.722-10.788 4.858-.775c1.203-.191 2.162-.06 2.878.395.726.453 1.176 1.224 1.35 2.313.156.976-.015 1.788-.512 2.437-.487.646-1.161 1.086-2.02 1.317l3.96 3.7-1.604.255-3.937-3.655-2.622.418.667 4.176-1.296.207zm4.007-6.107c1.604-.256 2.291-1.103 2.062-2.541-.228-1.428-1.144-2.014-2.748-1.759l-3.563.568.687 4.3 3.562-.568zm10.919 3.727l-1.295.207-1.538-9.632-3.717.592-.185-1.156 8.73-1.391.184 1.156-3.717.592 1.538 9.632zm14.002-2.075a4.76 4.76 0 01-2.643-.305 5.185 5.185 0 01-2.121-1.7c-.569-.784-.936-1.7-1.103-2.748-.173-1.079-.11-2.074.187-2.985.308-.913.8-1.66 1.477-2.243a4.783 4.783 0 012.431-1.114c1.1-.176 2.019-.1 2.756.224a4.941 4.941 0 011.911 1.465l-.867.913C509.447.77 508.242.287 506.72.531a3.405 3.405 0 00-1.793.854c-.496.459-.856 1.048-1.078 1.768-.214.709-.252 1.494-.114 2.357.133.833.412 1.557.837 2.174.436.616.967 1.068 1.593 1.358.627.29 1.279.381 1.957.273 1.512-.241 2.501-1.078 2.968-2.512l1.118.565c-.626 1.754-1.927 2.788-3.901 3.103zm10.791-1.72c-.997.16-1.936.061-2.815-.294a5.385 5.385 0 01-2.217-1.7c-.588-.781-.964-1.685-1.129-2.713-.164-1.027-.087-1.998.231-2.913a5.228 5.228 0 011.577-2.306c.724-.62 1.584-1.01 2.581-1.17.998-.159 1.937-.056 2.817.31a5.12 5.12 0 012.202 1.703c.597.769.978 1.667 1.142 2.694.164 1.028.083 2.005-.244 2.931a5.25 5.25 0 01-1.562 2.304c-.724.61-1.586.995-2.583 1.154zm-.184-1.155a3.833 3.833 0 001.96-.898 4.05 4.05 0 001.165-1.813 4.98 4.98 0 00.152-2.316 4.882 4.882 0 00-.863-2.138 3.925 3.925 0 00-1.672-1.361 3.757 3.757 0 00-2.145-.259 3.754 3.754 0 00-1.958.913 3.918 3.918 0 00-1.165 1.813 4.88 4.88 0 00-.155 2.3c.13.812.418 1.53.866 2.154a4.056 4.056 0 001.672 1.361 3.833 3.833 0 002.143.244zm8.829-.381l-1.296.207-1.723-10.788 1.389-.222 7.002 7.702-1.373-8.6 1.295-.206 1.723 10.788-1.295.207-7.12-7.842 1.398 8.754zm14.097-2.247l-1.296.206-1.538-9.632-3.717.593-.184-1.156 8.729-1.392.185 1.156-3.717.592 1.538 9.633zm5.784-.923l-1.723-10.788 4.858-.774c1.203-.192 2.163-.06 2.879.394.726.454 1.176 1.225 1.35 2.314.155.976-.015 1.788-.513 2.436-.487.647-1.16 1.086-2.02 1.318l3.96 3.699-1.604.255-3.937-3.655-2.622.418.667 4.177-1.295.206zm4.007-6.107c1.604-.255 2.291-1.102 2.061-2.54-.228-1.429-1.144-2.015-2.748-1.76l-3.563.569.687 4.3 3.563-.569zm7.225 4.317l-1.388.22 2.719-11.495 1.018-.163L567.37.896l-1.388.221-1.914-3.171-4.381.698-.831 3.61zm2.155-9.384l-1.045 4.545 3.454-.551-2.409-3.994zM572.967.162a4.759 4.759 0 01-2.643-.306c-.838-.361-1.545-.928-2.122-1.7-.568-.784-.936-1.7-1.103-2.748-.172-1.079-.11-2.074.188-2.985.307-.913.799-1.66 1.476-2.243a4.787 4.787 0 012.432-1.114c1.1-.176 2.019-.1 2.756.224a4.955 4.955 0 011.911 1.465l-.867.913c-.889-1.207-2.094-1.689-3.616-1.446a3.412 3.412 0 00-1.793.854c-.496.459-.855 1.048-1.077 1.768-.214.709-.252 1.494-.114 2.357.132.833.412 1.557.837 2.174.436.616.967 1.068 1.593 1.358.626.29 1.279.381 1.957.273 1.512-.241 2.501-1.078 2.968-2.512l1.118.565c-.627 1.754-1.927 2.788-3.901 3.103zm10.654-1.857l-1.296.207-1.538-9.632-3.717.592-.184-1.155 8.729-1.392.185 1.155-3.717.593 1.538 9.632zm9.982-1.591l-1.388.22 2.72-11.495 1.018-.162 6.164 10.08-1.388.22-1.914-3.171-4.38.698-.832 3.61zm2.156-9.384l-1.046 4.545 3.455-.551-2.409-3.994zm11.862 7.307c-1.521.242-2.707-.016-3.556-.777-.84-.772-1.394-1.995-1.661-3.67l-.925-5.794 1.295-.207.957 5.995c.209 1.305.619 2.224 1.232 2.759.611.524 1.435.703 2.474.538 1.038-.166 1.766-.593 2.183-1.28.416-.7.52-1.7.311-3.006l-.957-5.995 1.296-.206.925 5.795c.267 1.674.117 3.01-.451 4.007-.56.984-1.601 1.598-3.123 1.84zm6.967-1.269l-1.723-10.788 3.409-.543c1.552-.248 2.877-.006 3.975.725 1.105.72 1.805 1.998 2.099 3.838.294 1.838.028 3.277-.798 4.315-.816 1.025-2.001 1.662-3.554 1.91l-3.408.543zm3.285-1.71c2.571-.409 3.631-2.027 3.179-4.852-.451-2.825-1.962-4.033-4.532-3.623l-2.175.346 1.354 8.477 2.174-.347zm8.734-.206l-1.295.206-1.723-10.788 1.296-.206 1.722 10.788zm7.079-1.129l-1.296.207-1.538-9.632-3.717.592-.185-1.156 8.73-1.391.185 1.155-3.717.593 1.538 9.632zm9.489-1.513l-1.723-10.788 5.013-.799c.678-.108 1.275-.066 1.791.125.524.18.94.472 1.247.876.305.394.501.858.586 1.392.085.535.034 1.006-.154 1.416-.189.398-.404.701-.645.909.526.126.973.382 1.34.766.376.372.616.886.721 1.544.105.658.042 1.252-.19 1.785a3.094 3.094 0 01-1.089 1.295c-.496.332-1.078.551-1.746.658l-5.151.821zm4.023-6.994c.555-.089.976-.293 1.262-.613.297-.32.397-.784.3-1.39-.097-.607-.336-1.016-.718-1.23-.373-.224-.838-.292-1.393-.204l-3.717.593.549 3.436 3.717-.592zm.897 5.024c.751-.12 1.289-.379 1.616-.779.336-.401.455-.91.357-1.526-.099-.617-.37-1.063-.815-1.34-.435-.279-1.027-.358-1.778-.238l-3.809.607.62 3.884 3.809-.608zm9.303-.297l-1.295.206-.66-4.13-4.749-6.07 1.481-.236 3.7 4.751 2.022-5.663 1.465-.234-2.621 7.26.657 4.116zm13.898-2.058c-.997.159-1.936.06-2.815-.294a5.378 5.378 0 01-2.217-1.701c-.588-.78-.965-1.685-1.129-2.712-.164-1.028-.087-1.999.231-2.913a5.228 5.228 0 011.577-2.306c.723-.621 1.584-1.011 2.581-1.17.997-.16 1.936-.056 2.817.31a5.122 5.122 0 012.202 1.702c.597.77.978 1.667 1.142 2.695.164 1.027.083 2.004-.244 2.93a5.249 5.249 0 01-1.562 2.304c-.725.61-1.586.996-2.583 1.155zm-.185-1.156a3.832 3.832 0 001.961-.897 4.058 4.058 0 001.165-1.814 4.98 4.98 0 00.152-2.316 4.881 4.881 0 00-.863-2.138 3.925 3.925 0 00-1.672-1.36 3.759 3.759 0 00-2.145-.26 3.753 3.753 0 00-1.958.913 3.927 3.927 0 00-1.166 1.814 4.892 4.892 0 00-.154 2.3c.129.812.418 1.53.866 2.154a4.056 4.056 0 001.672 1.36 3.83 3.83 0 002.142.244zm7.354-.145l-1.512.24 3.028-6.393-4.164-4.488 1.558-.248 3.216 3.501 2.012-4.335 1.496-.238-2.642 5.542 4.812 5.174-1.527.244-3.848-4.19-2.429 5.19zm13.51-1.996c-.997.159-1.935.06-2.814-.294a5.373 5.373 0 01-2.217-1.701c-.589-.78-.965-1.685-1.129-2.712-.164-1.028-.087-1.999.231-2.913a5.22 5.22 0 011.577-2.306c.723-.621 1.583-1.011 2.581-1.17.997-.16 1.936-.056 2.817.309a5.112 5.112 0 012.201 1.704c.598.768.978 1.666 1.142 2.694.164 1.027.083 2.004-.243 2.93a5.258 5.258 0 01-1.562 2.304c-.725.61-1.586.996-2.584 1.155zm-.184-1.156a3.83 3.83 0 001.96-.897 4.052 4.052 0 001.166-1.814 4.993 4.993 0 00.152-2.316 4.906 4.906 0 00-.863-2.138 3.928 3.928 0 00-1.673-1.361 3.757 3.757 0 00-2.145-.259 3.751 3.751 0 00-1.957.913 3.92 3.92 0 00-1.166 1.814c-.233.722-.284 1.488-.155 2.3.13.812.419 1.53.866 2.153a4.058 4.058 0 001.673 1.362 3.83 3.83 0 002.142.243zm7.533-.174l-1.722-10.788 4.858-.774c1.203-.192 2.163-.06 2.878.394.726.453 1.176 1.224 1.35 2.313.156.976-.015 1.789-.512 2.437-.487.646-1.16 1.086-2.02 1.317l3.96 3.7-1.604.255-3.937-3.655-2.622.418.667 4.176-1.296.207zm4.007-6.107c1.604-.256 2.292-1.103 2.062-2.541-.228-1.428-1.144-2.014-2.748-1.759l-3.563.568.687 4.3 3.562-.568zm8.028 4.189l-1.296.206-1.722-10.788 1.295-.207 1.723 10.788zm7.396-1.022c-.997.16-1.935.061-2.815-.294a5.376 5.376 0 01-2.216-1.7c-.589-.782-.965-1.686-1.13-2.713-.164-1.027-.087-1.998.231-2.913a5.228 5.228 0 011.577-2.306c.724-.621 1.584-1.011 2.581-1.17.998-.159 1.937-.056 2.818.31a5.118 5.118 0 012.201 1.703c.597.769.978 1.667 1.142 2.694.164 1.027.083 2.005-.244 2.931a5.256 5.256 0 01-1.561 2.303c-.725.611-1.587.996-2.584 1.155zm-.184-1.156a3.83 3.83 0 001.96-.897 4.05 4.05 0 001.165-1.814 4.98 4.98 0 00.152-2.315 4.882 4.882 0 00-.863-2.138 3.92 3.92 0 00-1.672-1.362 3.757 3.757 0 00-2.145-.258 3.758 3.758 0 00-1.958.913 3.918 3.918 0 00-1.165 1.813 4.88 4.88 0 00-.155 2.3c.13.812.418 1.53.866 2.154a4.056 4.056 0 001.672 1.361 3.834 3.834 0 002.143.243zm18.024-1.688c-.977.155-1.902.071-2.776-.253a4.032 4.032 0 01-2.022-1.669l1.06-.785c.386.634.895 1.08 1.527 1.337.631.257 1.327.325 2.088.204.843-.134 1.477-.425 1.901-.872.435-.449.603-.981.504-1.597-.069-.432-.226-.76-.473-.984-.236-.225-.597-.373-1.083-.443-.475-.072-1.125-.08-1.949-.022-1.221.08-2.19-.077-2.906-.469-.706-.393-1.128-1.026-1.268-1.9a2.587 2.587 0 01.237-1.586c.257-.504.657-.937 1.2-1.298.554-.362 1.217-.604 1.988-.727.915-.146 1.739-.104 2.472.127.732.23 1.338.656 1.816 1.275l-.928.922a2.935 2.935 0 00-1.348-1.017c-.54-.21-1.149-.26-1.828-.151-.802.127-1.414.388-1.836.782-.413.382-.576.85-.487 1.405.09.565.396.964.918 1.197.531.221 1.382.296 2.551.226 1.348-.078 2.348.078 3.001.47.663.389 1.07 1.051 1.219 1.986a2.92 2.92 0 01-.233 1.712c-.252.536-.669.992-1.252 1.37-.573.375-1.27.629-2.093.76zm7.553-1.362l-1.295.206-1.723-10.788 2.221-.354 4.925 8.555 2.015-9.661 2.221-.355 1.723 10.788-1.296.207-1.548-9.694-2.23 10.296-1.234.197-5.327-9.091 1.548 9.694zm13.175-2.101l-1.388.221 2.72-11.496 1.017-.162 6.165 10.08-1.388.22-1.914-3.17-4.38.698-.832 3.609zm2.156-9.383l-1.046 4.544 3.455-.55-2.409-3.994zm8.06 7.754l-1.723-10.788 4.858-.774c1.203-.192 2.163-.06 2.878.394.727.453 1.177 1.225 1.351 2.314.155.976-.015 1.788-.513 2.436-.487.647-1.16 1.086-2.02 1.318l3.96 3.699-1.604.255-3.937-3.655-2.622.418.667 4.177-1.295.206zm4.007-6.107c1.604-.255 2.291-1.102 2.061-2.54-.228-1.429-1.144-2.015-2.748-1.76l-3.563.569.687 4.3 3.563-.569zm10.919 3.728l-1.296.206-1.538-9.632-3.717.593-.185-1.156 8.73-1.392.185 1.156-3.717.593 1.538 9.632zm14.001-2.075a4.756 4.756 0 01-2.642-.305 5.181 5.181 0 01-2.122-1.7c-.568-.785-.936-1.7-1.103-2.749-.172-1.078-.11-2.073.187-2.985.308-.913.8-1.66 1.477-2.242a4.783 4.783 0 012.432-1.115c1.1-.175 2.018-.1 2.756.224a4.944 4.944 0 011.91 1.466l-.866.912c-.889-1.206-2.094-1.689-3.616-1.446a3.407 3.407 0 00-1.793.855c-.496.458-.855 1.047-1.078 1.768-.214.708-.252 1.494-.114 2.357.133.832.412 1.557.838 2.174.435.615.966 1.068 1.592 1.358a3.32 3.32 0 001.958.272c1.511-.24 2.5-1.078 2.968-2.511l1.118.564c-.627 1.754-1.927 2.789-3.902 3.103zm10.791-1.72c-.997.159-1.935.06-2.814-.294a5.373 5.373 0 01-2.217-1.701c-.589-.78-.965-1.685-1.129-2.712-.164-1.028-.087-1.999.23-2.913a5.23 5.23 0 011.578-2.306c.723-.621 1.583-1.011 2.581-1.17.997-.16 1.936-.056 2.817.31a5.112 5.112 0 012.201 1.703c.597.768.978 1.666 1.142 2.694.164 1.027.083 2.004-.244 2.93a5.247 5.247 0 01-1.561 2.304c-.725.61-1.586.996-2.584 1.155zm-.184-1.156a3.83 3.83 0 001.96-.897 4.05 4.05 0 001.165-1.814 4.98 4.98 0 00.153-2.316c-.13-.811-.418-1.524-.864-2.138a3.919 3.919 0 00-1.672-1.36 3.757 3.757 0 00-2.145-.26 3.757 3.757 0 00-1.958.913 3.917 3.917 0 00-1.165 1.814c-.233.722-.284 1.489-.155 2.3.13.812.418 1.53.866 2.154a4.056 4.056 0 001.672 1.36 3.833 3.833 0 002.143.244zm8.829-.38l-1.296.206-1.722-10.788 1.388-.221 7.002 7.702-1.373-8.6 1.296-.206 1.722 10.788-1.295.206-7.12-7.841 1.398 8.754zm14.097-2.248l-1.296.206-1.538-9.632-3.717.593-.184-1.156 8.729-1.392.185 1.156-3.717.593 1.538 9.632zm5.784-.922l-1.723-10.788 4.859-.775c1.203-.192 2.162-.06 2.878.395.726.453 1.176 1.224 1.35 2.313.156.976-.015 1.788-.513 2.437-.487.646-1.16 1.085-2.019 1.317l3.959 3.7-1.604.255-3.936-3.655-2.622.418.666 4.176-1.295.207zm4.007-6.107c1.604-.256 2.291-1.103 2.061-2.541-.228-1.428-1.144-2.015-2.748-1.759l-3.562.568.686 4.3 3.563-.568zm7.226 4.315l-1.389.222 2.72-11.496 1.018-.162 6.164 10.08-1.388.22-1.914-3.17-4.38.698-.831 3.609zm2.155-9.382l-1.046 4.544 3.455-.55-2.409-3.994zm11.955 7.292a4.761 4.761 0 01-2.643-.306c-.838-.362-1.545-.929-2.122-1.7-.568-.785-.935-1.7-1.103-2.749-.172-1.078-.109-2.073.188-2.985.308-.913.8-1.66 1.476-2.242a4.787 4.787 0 012.432-1.115c1.1-.175 2.019-.1 2.756.224a4.941 4.941 0 011.911 1.466l-.867.912c-.888-1.206-2.094-1.689-3.615-1.446a3.405 3.405 0 00-1.793.855c-.496.458-.856 1.047-1.078 1.768-.214.708-.252 1.494-.114 2.357.133.832.412 1.557.837 2.174.436.615.967 1.068 1.593 1.358.626.29 1.279.38 1.957.272 1.512-.24 2.501-1.078 2.968-2.511l1.118.564c-.626 1.754-1.927 2.788-3.901 3.103zm10.654-1.857l-1.296.206-1.537-9.632-3.718.593-.184-1.156 8.729-1.392.185 1.156-3.717.593 1.538 9.632zm9.983-1.592l-1.388.221 2.719-11.496 1.018-.162 6.164 10.08-1.388.221-1.914-3.172-4.38.699-.831 3.609zm2.155-9.383l-1.046 4.544 3.455-.55-2.409-3.994zm11.863 7.306c-1.522.243-2.708-.016-3.556-.776-.841-.772-1.395-1.996-1.662-3.67l-.925-5.795 1.295-.207.958 5.995c.208 1.305.618 2.225 1.231 2.76.611.524 1.436.703 2.474.537 1.039-.165 1.766-.592 2.184-1.28.415-.699.519-1.7.311-3.005l-.958-5.995 1.296-.207.925 5.795c.268 1.675.117 3.01-.451 4.007-.56.985-1.601 1.599-3.122 1.841zm6.966-1.269l-1.723-10.787 3.409-.544c1.552-.247 2.877-.006 3.975.725 1.106.72 1.806 1.999 2.099 3.838.294 1.839.028 3.277-.797 4.315-.817 1.026-2.002 1.662-3.554 1.91l-3.409.543zm3.286-1.709c2.57-.41 3.63-2.027 3.179-4.853-.452-2.825-1.962-4.033-4.533-3.623l-2.174.347 1.353 8.476 2.175-.347zm8.733-.206l-1.295.206-1.723-10.788 1.296-.207 1.722 10.788zm7.079-1.13l-1.296.207-1.538-9.632-3.717.593-.184-1.156L923.839-67l.185 1.156-3.717.593 1.538 9.632z" fill="#202020"/><path d="M-115.764 16.308l736.853 39.92-1.855 34.196-736.854-39.92 1.856-34.196z" fill="#FC6B1A" fill-opacity=".78"/><path d="M-424.715 22.293c-.987-.054-1.874-.33-2.66-.832A4.032 4.032 0 01-429 19.404l1.203-.545c.243.701.646 1.244 1.209 1.629.564.385 1.23.598 1.999.64.853.046 1.533-.105 2.042-.453.52-.347.796-.832.83-1.455.024-.436-.061-.79-.255-1.061-.184-.27-.505-.491-.965-.662-.45-.17-1.083-.314-1.901-.431-1.21-.18-2.124-.537-2.741-1.07-.608-.534-.887-1.242-.839-2.125a2.59 2.59 0 01.566-1.5c.358-.44.84-.778 1.447-1.016.618-.238 1.317-.335 2.096-.293.926.05 1.722.265 2.39.645.667.38 1.17.923 1.507 1.629l-1.102.706a2.93 2.93 0 00-1.104-1.279c-.483-.318-1.068-.495-1.754-.532-.811-.044-1.464.082-1.96.378-.485.286-.742.71-.773 1.27-.031.572.184 1.027.646 1.364.472.328 1.287.58 2.445.758 1.334.208 2.279.572 2.835 1.091.566.52.823 1.254.772 2.199a2.919 2.919 0 01-.589 1.625c-.359.47-.863.828-1.513 1.074-.639.247-1.374.348-2.206.303zm7.671.259l-1.31-.07.592-10.91 2.246.123 3.009 9.4 4.009-9.02 2.245.121-.592 10.909-1.31-.071.532-9.802-4.352 9.595-1.248-.068-3.289-10.009-.532 9.802zm13.322.722l-1.403-.076 5.083-10.665 1.029.056 3.9 11.151-1.404-.076-1.202-3.503-4.429-.24-1.574 3.353zm4.087-8.719l-1.981 4.222 3.493.19-1.512-4.412zm6.243 9.279l.592-10.909 4.912.266c1.217.066 2.127.397 2.73.992.615.596.892 1.445.832 2.546-.054.987-.392 1.745-1.015 2.274-.613.53-1.363.817-2.252.862l3.09 4.45-1.622-.088-3.077-4.402-2.651-.144-.229 4.223-1.31-.07zm5.205-5.126c1.622.088 2.472-.596 2.551-2.05.078-1.444-.693-2.21-2.315-2.298l-3.603-.195-.236 4.348 3.603.195zm9.887 5.943l-1.31-.07.529-9.74-3.759-.204.064-1.169 8.827.478-.064 1.17-3.758-.204-.529 9.74zm14.125.922a4.759 4.759 0 01-2.519-.856 5.173 5.173 0 01-1.715-2.109c-.39-.886-.556-1.859-.499-2.918.059-1.091.33-2.05.813-2.879.493-.828 1.132-1.455 1.917-1.88a4.786 4.786 0 012.612-.578c1.112.06 1.995.327 2.647.8a4.941 4.941 0 011.558 1.834l-1.04.71c-.614-1.367-1.69-2.092-3.229-2.176a3.409 3.409 0 00-1.933.458c-.581.344-1.057.844-1.426 1.502-.359.647-.562 1.407-.609 2.28-.046.841.074 1.608.36 2.301.296.693.72 1.248 1.271 1.663a3.315 3.315 0 001.855.679c1.529.083 2.672-.527 3.431-1.83l.974.787c-.982 1.583-2.472 2.32-4.468 2.212zm10.911.591c-1.008-.055-1.905-.348-2.689-.88a5.366 5.366 0 01-1.808-2.13c-.411-.887-.588-1.85-.532-2.89.057-1.038.337-1.971.84-2.798a5.233 5.233 0 012.028-1.922c.838-.455 1.762-.655 2.77-.6 1.009.054 1.905.353 2.689.896a5.121 5.121 0 011.793 2.128c.421.878.604 1.836.547 2.875-.056 1.039-.341 1.977-.856 2.814a5.26 5.26 0 01-2.013 1.922c-.837.445-1.76.64-2.769.585zm.064-1.169a3.829 3.829 0 002.105-.464 4.057 4.057 0 001.522-1.527 4.99 4.99 0 00.637-2.232 4.888 4.888 0 00-.392-2.272 3.925 3.925 0 00-1.348-1.683 3.756 3.756 0 00-2.042-.704 3.757 3.757 0 00-2.107.48 3.919 3.919 0 00-1.521 1.527c-.38.656-.592 1.395-.637 2.216a4.99 4.99 0 00.392 2.287 4.06 4.06 0 001.348 1.683 3.83 3.83 0 002.043.689zm8.711 1.488l-1.31-.071.592-10.908 1.403.076 5.221 9.004.472-8.696 1.31.07-.592 10.91-1.31-.072-5.306-9.165-.48 8.852zm14.254.772l-1.31-.07.529-9.74-3.759-.204.064-1.169 8.827.478-.064 1.17-3.758-.204-.529 9.74zm5.849.317l.592-10.908 4.912.266c1.217.066 2.127.396 2.731.992.614.596.891 1.444.831 2.545-.053.987-.392 1.745-1.015 2.274-.612.53-1.363.817-2.252.863l3.09 4.45-1.622-.088-3.077-4.402-2.651-.144-.229 4.223-1.31-.071zm5.205-5.126c1.622.088 2.472-.595 2.551-2.05.079-1.444-.693-2.21-2.315-2.297l-3.603-.196-.236 4.348 3.603.195zm6.153 5.741l-1.404-.076 5.084-10.665 1.029.056 3.899 11.152-1.403-.076-1.202-3.504-4.429-.24-1.574 3.353zm4.086-8.718l-1.981 4.222 3.493.189-1.512-4.411zm10.148 9.646a4.756 4.756 0 01-2.518-.856c-.743-.53-1.315-1.233-1.716-2.109-.39-.886-.556-1.858-.498-2.918.059-1.091.33-2.05.813-2.879.493-.827 1.132-1.455 1.916-1.88a4.786 4.786 0 012.612-.578c1.113.06 1.995.327 2.647.8a4.944 4.944 0 011.559 1.834l-1.04.71c-.614-1.367-1.69-2.092-3.229-2.175a3.406 3.406 0 00-1.933.457c-.582.344-1.058.844-1.427 1.502-.358.647-.561 1.407-.608 2.28-.046.841.074 1.608.36 2.301.296.694.719 1.248 1.27 1.663.551.416 1.17.642 1.856.679 1.528.083 2.672-.527 3.431-1.83l.974.787c-.983 1.583-2.472 2.32-4.469 2.212zm10.807.429l-1.31-.071.528-9.74-3.758-.203.063-1.169 8.827.478-.063 1.169-3.759-.204-.528 9.74zm10.094.546l-1.404-.075 5.084-10.665 1.029.055 3.899 11.152-1.403-.076-1.202-3.503-4.429-.24-1.574 3.353zm4.086-8.718l-1.981 4.222 3.494.19-1.513-4.412zm10.055 9.641c-1.539-.083-2.643-.586-3.312-1.508-.659-.931-.942-2.244-.85-3.938l.318-5.859 1.31.071-.329 6.062c-.072 1.32.135 2.305.621 2.956.487.642 1.255.99 2.305 1.047 1.051.057 1.852-.207 2.405-.791.554-.596.866-1.553.938-2.872l.329-6.062 1.31.07-.318 5.86c-.092 1.694-.521 2.968-1.287 3.822-.754.845-1.901 1.226-3.44 1.142zm7.078.227l.591-10.908 3.447.187c1.57.085 2.814.6 3.732 1.546.93.936 1.344 2.334 1.243 4.193-.101 1.86-.664 3.21-1.69 4.05-1.015.831-2.307 1.204-3.877 1.119l-3.446-.187zm3.572-.978c2.599.14 3.976-1.218 4.131-4.075.155-2.857-1.067-4.355-3.666-4.496l-2.199-.12-.465 8.571 2.199.12zm8.581 1.637l-1.31-.071.592-10.909 1.31.071-.592 10.909zm7.158.387l-1.31-.07.528-9.74-3.758-.204.063-1.168 8.827.478-.063 1.168-3.759-.203-.528 9.74zm9.595.52l.592-10.908 5.068.275c.686.037 1.261.203 1.725.5.474.286.819.659 1.034 1.118.215.45.308.944.279 1.484-.029.54-.179.991-.449 1.352-.269.35-.543.6-.822.752.487.235.87.578 1.148 1.031.289.443.415.997.379 1.662-.036.665-.223 1.233-.562 1.704a3.092 3.092 0 01-1.339 1.037c-.554.22-1.169.312-1.845.276l-5.208-.283zm5.408-5.99c.561.03 1.016-.08 1.363-.332.358-.252.553-.684.587-1.297.033-.613-.115-1.064-.443-1.352-.318-.299-.757-.463-1.318-.494l-3.759-.203-.188 3.475 3.758.203zm-.183 5.101c.759.041 1.34-.1 1.744-.421.413-.322.637-.794.671-1.417.034-.624-.138-1.117-.514-1.482-.366-.363-.929-.566-1.688-.607l-3.852-.208-.213 3.927 3.852.208zm9.157 1.669l-1.31-.072.227-4.176-3.362-6.934 1.497.081 2.615 5.425 3.171-5.111 1.481.08-4.093 6.546-.226 4.16zm14.019.915c-1.008-.054-1.905-.348-2.689-.88a5.366 5.366 0 01-1.808-2.13c-.411-.887-.588-1.85-.532-2.889.057-1.039.337-1.972.84-2.799a5.233 5.233 0 012.028-1.922c.838-.454 1.762-.654 2.77-.6 1.009.055 1.905.354 2.689.896a5.122 5.122 0 011.793 2.13c.421.876.604 1.834.547 2.873-.056 1.04-.341 1.977-.856 2.814a5.26 5.26 0 01-2.013 1.923c-.837.444-1.76.639-2.769.584zm.064-1.168a3.829 3.829 0 002.105-.465 4.056 4.056 0 001.522-1.527c.38-.667.593-1.411.637-2.232a4.888 4.888 0 00-.392-2.272 3.925 3.925 0 00-1.348-1.682 3.756 3.756 0 00-2.042-.705 3.753 3.753 0 00-2.106.48 3.915 3.915 0 00-1.522 1.527c-.38.657-.592 1.396-.637 2.216a4.99 4.99 0 00.392 2.288 4.06 4.06 0 001.348 1.683 3.833 3.833 0 002.043.689zm7.219 1.407l-1.528-.083 4.308-5.612-3.124-5.265 1.575.086 2.405 4.1 2.882-3.814 1.513.082-3.752 4.86 3.612 6.073-1.544-.084-2.877-4.907-3.47 4.564zm13.628.894c-1.009-.054-1.905-.348-2.689-.88a5.377 5.377 0 01-1.809-2.13c-.41-.887-.588-1.85-.531-2.889.056-1.039.336-1.972.84-2.799a5.226 5.226 0 012.028-1.922c.838-.454 1.761-.654 2.77-.6 1.008.055 1.904.353 2.688.896a5.114 5.114 0 011.793 2.129c.422.877.604 1.835.548 2.874-.056 1.039-.342 1.977-.857 2.814a5.251 5.251 0 01-2.012 1.923c-.838.444-1.761.639-2.769.584zm.063-1.169a3.831 3.831 0 002.106-.464 4.057 4.057 0 001.522-1.527c.38-.667.592-1.411.637-2.232.044-.82-.086-1.578-.393-2.272a3.918 3.918 0 00-1.348-1.683 3.754 3.754 0 00-2.042-.704 3.755 3.755 0 00-2.106.48 3.921 3.921 0 00-1.522 1.527c-.38.657-.592 1.395-.636 2.216-.045.82.086 1.583.392 2.288a4.05 4.05 0 001.347 1.682 3.833 3.833 0 002.043.69zm7.401 1.417l.592-10.908 4.913.266c1.216.066 2.126.397 2.73.992.614.596.891 1.444.832 2.546-.054.987-.392 1.745-1.015 2.273-.613.53-1.364.817-2.253.863l3.091 4.45-1.622-.088-3.077-4.402-2.652-.144-.229 4.223-1.31-.07zm5.205-5.125c1.622.087 2.473-.596 2.552-2.05.078-1.444-.694-2.21-2.316-2.298l-3.602-.195-.236 4.347 3.602.195zm6.964 5.784l-1.31-.07.592-10.909 1.31.071-.592 10.909zm7.446.56c-1.009-.054-1.905-.348-2.69-.88a5.367 5.367 0 01-1.808-2.13c-.411-.887-.588-1.85-.532-2.889.057-1.039.337-1.972.84-2.799a5.228 5.228 0 012.029-1.922c.838-.454 1.761-.655 2.769-.6 1.009.055 1.905.353 2.689.896a5.12 5.12 0 011.793 2.129c.421.877.604 1.835.548 2.874-.057 1.039-.342 1.977-.857 2.814a5.26 5.26 0 01-2.013 1.923c-.837.444-1.76.639-2.768.584zm.063-1.169a3.83 3.83 0 002.105-.464 4.05 4.05 0 001.522-1.527 4.983 4.983 0 00.638-2.232c.044-.82-.087-1.578-.393-2.272a3.926 3.926 0 00-1.348-1.683 3.756 3.756 0 00-2.042-.704 3.753 3.753 0 00-2.106.48 3.914 3.914 0 00-1.522 1.527c-.38.657-.592 1.395-.637 2.216a5.01 5.01 0 00.392 2.288 4.06 4.06 0 001.348 1.682 3.833 3.833 0 002.043.69zm18.145 2.156c-.988-.054-1.875-.331-2.661-.832a4.03 4.03 0 01-1.624-2.057l1.202-.545c.244.701.647 1.244 1.21 1.628.563.385 1.229.599 1.999.64.852.046 1.533-.104 2.042-.452a1.78 1.78 0 00.83-1.455c.023-.437-.062-.79-.256-1.061-.183-.27-.505-.491-.965-.662-.449-.17-1.083-.314-1.9-.431-1.21-.18-2.124-.537-2.742-1.07-.607-.534-.887-1.242-.839-2.125a2.592 2.592 0 01.567-1.501c.357-.439.839-.778 1.447-1.016.617-.237 1.316-.335 2.096-.292.925.05 1.722.265 2.389.645.668.38 1.17.923 1.507 1.629l-1.102.706a2.935 2.935 0 00-1.103-1.279c-.484-.318-1.068-.495-1.754-.533-.811-.044-1.465.083-1.961.379-.484.286-.742.71-.772 1.27-.031.572.184 1.027.645 1.364.473.328 1.288.58 2.446.758 1.334.208 2.279.571 2.834 1.091.567.52.824 1.253.773 2.199a2.918 2.918 0 01-.589 1.625c-.359.47-.864.828-1.513 1.074-.639.247-1.374.348-2.206.303zm7.671.259l-1.31-.071.592-10.908 2.245.121 3.009 9.4 4.009-9.02 2.246.122-.592 10.908-1.31-.07.532-9.803-4.353 9.595-1.248-.067-3.289-10.009-.531 9.802zm13.322.722l-1.404-.076 5.084-10.665 1.029.055 3.9 11.152-1.404-.076-1.202-3.504-4.429-.24-1.574 3.354zm4.086-8.719l-1.981 4.222 3.494.19-1.513-4.412zm6.243 9.278l.592-10.908 4.913.266c1.216.066 2.126.397 2.73.992.614.596.891 1.444.832 2.546-.054.987-.392 1.745-1.015 2.273-.613.53-1.364.817-2.252.863l3.09 4.45-1.622-.088-3.077-4.402-2.652-.144-.229 4.223-1.31-.07zm5.205-5.126c1.622.088 2.473-.595 2.552-2.05.078-1.443-.694-2.21-2.316-2.297l-3.602-.195-.236 4.347 3.602.195zm9.888 5.944l-1.31-.071.528-9.74-3.758-.203.063-1.17 8.827.48-.063 1.168-3.759-.204-.528 9.74zm14.124.921a4.757 4.757 0 01-2.518-.855c-.743-.53-1.315-1.233-1.716-2.11-.39-.885-.556-1.858-.498-2.918.059-1.09.33-2.05.813-2.878.493-.828 1.132-1.455 1.916-1.881a4.785 4.785 0 012.612-.578c1.113.06 1.995.327 2.647.8a4.941 4.941 0 011.559 1.835l-1.04.71c-.614-1.367-1.69-2.092-3.23-2.176a3.408 3.408 0 00-1.932.458c-.582.344-1.057.844-1.427 1.501-.358.648-.561 1.408-.608 2.28-.046.842.074 1.61.36 2.302.296.693.72 1.247 1.27 1.663.551.415 1.17.641 1.856.679 1.528.082 2.672-.528 3.43-1.83l.975.787c-.983 1.582-2.472 2.32-4.468 2.211zm10.912.592c-1.008-.055-1.905-.349-2.69-.88a5.374 5.374 0 01-1.808-2.13c-.41-.888-.588-1.85-.531-2.89.056-1.038.336-1.971.84-2.798a5.227 5.227 0 012.028-1.922c.838-.455 1.761-.655 2.77-.6 1.008.054 1.904.353 2.688.895a5.115 5.115 0 011.793 2.13c.422.877.604 1.835.548 2.873-.056 1.04-.342 1.977-.857 2.814a5.257 5.257 0 01-2.012 1.923c-.837.444-1.76.64-2.769.584zm.063-1.17a3.831 3.831 0 002.106-.463 4.056 4.056 0 001.522-1.528c.38-.667.592-1.41.637-2.232.044-.82-.086-1.578-.393-2.271a3.92 3.92 0 00-1.348-1.683 3.755 3.755 0 00-2.042-.705 3.756 3.756 0 00-2.106.48 3.92 3.92 0 00-1.522 1.527c-.38.657-.592 1.396-.636 2.216a4.978 4.978 0 00.392 2.288 4.055 4.055 0 001.348 1.683 3.83 3.83 0 002.042.689zm8.711 1.489l-1.31-.071.592-10.909 1.404.076 5.22 9.004.472-8.695 1.31.07-.592 10.909-1.31-.071-5.305-9.165-.48 8.852zm14.254.772l-1.31-.071.53-9.74-3.76-.203.064-1.17 8.827.48-.063 1.168-3.759-.204-.528 9.74zm5.85.317l.591-10.909 4.913.267c1.216.065 2.126.396 2.73.991.614.596.892 1.445.832 2.546-.054.987-.392 1.745-1.015 2.274-.613.53-1.364.817-2.252.862l3.09 4.45-1.622-.088-3.077-4.402-2.651-.143-.23 4.223-1.31-.071zm5.205-5.126c1.621.088 2.472-.595 2.55-2.05.08-1.444-.693-2.21-2.315-2.298l-3.602-.195-.236 4.348 3.602.195zm6.152 5.741l-1.403-.076 5.083-10.665 1.03.056 3.899 11.151-1.404-.076-1.202-3.503-4.429-.24-1.574 3.353zm4.087-8.718l-1.981 4.221 3.493.19-1.512-4.411zm10.148 9.646a4.758 4.758 0 01-2.519-.856 5.174 5.174 0 01-1.715-2.109c-.39-.886-.556-1.859-.499-2.918.06-1.091.33-2.05.813-2.879.493-.828 1.132-1.455 1.917-1.881a4.786 4.786 0 012.612-.578c1.112.06 1.995.327 2.647.8a4.941 4.941 0 011.558 1.835l-1.04.71c-.613-1.367-1.69-2.092-3.229-2.176a3.407 3.407 0 00-1.933.458c-.581.344-1.057.844-1.426 1.501-.359.648-.562 1.408-.609 2.28-.046.842.074 1.61.36 2.302.296.693.72 1.248 1.27 1.663.552.415 1.17.642 1.856.679 1.529.083 2.672-.528 3.431-1.83l.974.787c-.982 1.582-2.472 2.32-4.468 2.212zm10.806.429l-1.31-.071.529-9.74-3.759-.203.064-1.17 8.827.479-.064 1.169-3.758-.204-.529 9.74zm10.094.547l-1.403-.077 5.083-10.665 1.03.056 3.9 11.152-1.404-.076-1.203-3.504-4.429-.24-1.574 3.354zm4.087-8.719l-1.981 4.222 3.493.19-1.512-4.412zm10.055 9.641c-1.54-.084-2.643-.586-3.313-1.508-.658-.932-.942-2.244-.85-3.938l.318-5.86 1.31.072-.329 6.062c-.071 1.32.136 2.305.622 2.956.487.641 1.255.99 2.305 1.047 1.05.057 1.852-.207 2.405-.792.553-.595.866-1.552.938-2.872l.329-6.062 1.31.072-.318 5.859c-.092 1.693-.521 2.967-1.287 3.822-.755.845-1.902 1.225-3.44 1.142zm7.077.227l.592-10.908 3.447.186c1.57.085 2.814.6 3.732 1.547.93.936 1.344 2.334 1.243 4.193-.101 1.86-.664 3.21-1.69 4.05-1.015.831-2.307 1.204-3.877 1.119l-3.447-.187zm3.572-.979c2.6.141 3.977-1.217 4.132-4.074.155-2.857-1.067-4.356-3.667-4.496l-2.199-.12-.465 8.571 2.2.12zm8.582 1.638l-1.31-.072.592-10.908 1.31.071-.592 10.909zm7.157.387l-1.31-.07.529-9.74-3.759-.204.064-1.169 8.827.478-.064 1.17-3.758-.204-.529 9.74zm9.595.52l.592-10.908 5.069.274c.686.038 1.26.204 1.724.5.475.286.82.66 1.034 1.119a3 3 0 01.28 1.484c-.03.54-.18.99-.45 1.351-.268.35-.543.601-.822.753.488.234.87.578 1.149 1.03.288.444.415.998.379 1.663-.037.664-.224 1.233-.562 1.704a3.092 3.092 0 01-1.339 1.037c-.554.22-1.17.312-1.845.275l-5.209-.282zm5.409-5.99c.561.03 1.015-.08 1.363-.332.357-.252.553-.684.586-1.297.033-.613-.114-1.064-.443-1.352-.317-.3-.756-.464-1.318-.494l-3.758-.204-.189 3.475 3.759.204zm-.183 5.1c.759.042 1.34-.098 1.743-.42.414-.322.638-.794.671-1.417.034-.624-.137-1.118-.514-1.482-.366-.364-.928-.566-1.687-.607l-3.852-.209-.213 3.927 3.852.209zm9.157 1.669l-1.31-.07.226-4.177-3.362-6.934 1.497.081 2.615 5.424 3.171-5.11 1.482.08-4.094 6.545-.225 4.161zm14.019.916c-1.008-.055-1.905-.348-2.69-.88a5.373 5.373 0 01-1.808-2.13c-.41-.887-.588-1.85-.531-2.889.056-1.039.336-1.972.84-2.799a5.227 5.227 0 012.028-1.922c.838-.455 1.761-.655 2.77-.6 1.008.055 1.904.353 2.688.896A5.114 5.114 0 0197.27 42.1c.422.877.604 1.835.548 2.874-.056 1.039-.342 1.977-.857 2.814a5.257 5.257 0 01-2.012 1.922c-.837.445-1.76.64-2.769.585zm.063-1.169a3.831 3.831 0 002.106-.464 4.057 4.057 0 001.522-1.527c.38-.667.593-1.411.637-2.232.044-.82-.087-1.578-.393-2.272a3.92 3.92 0 00-1.348-1.683 3.755 3.755 0 00-2.042-.704 3.756 3.756 0 00-2.106.48 3.921 3.921 0 00-1.522 1.527c-.38.657-.592 1.395-.636 2.216-.045.82.086 1.583.392 2.287a4.054 4.054 0 001.347 1.683 3.831 3.831 0 002.043.69zm7.22 1.407l-1.529-.082 4.309-5.612-3.124-5.265 1.575.086 2.405 4.1 2.882-3.814 1.512.082-3.751 4.86 3.612 6.073-1.544-.084-2.878-4.907-3.47 4.563zm13.628.895c-1.009-.055-1.905-.348-2.69-.88a5.366 5.366 0 01-1.808-2.13c-.411-.887-.588-1.85-.532-2.89.057-1.038.337-1.971.84-2.798a5.229 5.229 0 012.029-1.922c.838-.455 1.761-.655 2.769-.6 1.009.054 1.905.353 2.689.896a5.121 5.121 0 011.793 2.129c.421.877.604 1.835.548 2.874-.057 1.039-.342 1.977-.857 2.814a5.26 5.26 0 01-2.013 1.922c-.837.445-1.76.64-2.768.585zm.063-1.169a3.829 3.829 0 002.105-.464 4.05 4.05 0 001.522-1.527 4.97 4.97 0 00.637-2.232 4.89 4.89 0 00-.392-2.272 3.925 3.925 0 00-1.348-1.683 3.756 3.756 0 00-2.042-.704 3.754 3.754 0 00-2.106.48 3.915 3.915 0 00-1.522 1.527c-.38.657-.592 1.395-.637 2.216a4.99 4.99 0 00.392 2.287 4.06 4.06 0 001.348 1.683 3.833 3.833 0 002.043.69zm7.401 1.417l.592-10.908 4.912.266c1.217.066 2.127.396 2.731.992.614.596.891 1.444.831 2.545-.053.987-.392 1.745-1.015 2.274-.612.53-1.363.817-2.252.863l3.09 4.45-1.622-.088-3.077-4.402-2.651-.144-.229 4.223-1.31-.071zm5.205-5.126c1.622.088 2.472-.595 2.551-2.05.079-1.444-.693-2.21-2.315-2.297l-3.603-.196-.236 4.348 3.603.195zm6.964 5.785l-1.31-.07.592-10.91 1.31.072-.592 10.908zm7.445.56c-1.008-.055-1.905-.348-2.689-.88a5.376 5.376 0 01-1.809-2.13c-.41-.887-.587-1.85-.531-2.89.056-1.038.336-1.971.84-2.798a5.233 5.233 0 012.028-1.922c.838-.455 1.761-.655 2.77-.6 1.008.054 1.905.353 2.688.896a5.107 5.107 0 011.793 2.129c.422.877.604 1.835.548 2.874-.056 1.039-.342 1.977-.856 2.814a5.26 5.26 0 01-2.013 1.922c-.837.445-1.76.64-2.769.585zm.064-1.169a3.829 3.829 0 002.105-.464 4.056 4.056 0 001.522-1.527c.38-.667.593-1.411.637-2.232.045-.82-.086-1.578-.393-2.272a3.918 3.918 0 00-1.348-1.683 3.75 3.75 0 00-2.042-.704 3.756 3.756 0 00-2.106.48 3.928 3.928 0 00-1.522 1.527 4.892 4.892 0 00-.636 2.216c-.045.82.086 1.583.392 2.287a4.052 4.052 0 001.348 1.683c.592.418 1.273.647 2.043.69zm18.144 2.155c-.987-.053-1.874-.33-2.66-.831a4.032 4.032 0 01-1.625-2.058l1.203-.544c.243.7.646 1.244 1.21 1.628.563.385 1.229.598 1.998.64.853.046 1.534-.105 2.042-.452.52-.347.796-.832.83-1.456.024-.436-.061-.79-.255-1.06-.184-.27-.505-.492-.965-.662-.45-.17-1.083-.314-1.901-.431-1.21-.18-2.124-.538-2.741-1.071-.607-.533-.887-1.241-.839-2.124a2.59 2.59 0 01.566-1.501c.358-.44.84-.778 1.447-1.016.618-.237 1.317-.335 2.097-.293.925.05 1.721.265 2.389.646.667.38 1.17.922 1.507 1.629l-1.102.706a2.93 2.93 0 00-1.104-1.28c-.483-.317-1.068-.495-1.754-.532-.811-.044-1.464.082-1.96.378-.485.287-.742.71-.773 1.271-.031.572.184 1.026.646 1.364.472.328 1.287.58 2.446.758 1.333.207 2.278.571 2.834 1.09.566.521.824 1.254.772 2.2a2.918 2.918 0 01-.588 1.624c-.36.47-.864.829-1.513 1.075-.639.247-1.375.347-2.207.302zm7.671.26l-1.31-.071.592-10.909 2.246.122 3.009 9.4 4.009-9.02 2.245.122-.591 10.908-1.31-.07.531-9.803-4.352 9.595-1.248-.067-3.289-10.01-.532 9.803zm13.322.721l-1.403-.076 5.083-10.665 1.03.056 3.899 11.152-1.403-.076-1.203-3.504-4.429-.24-1.574 3.353zm4.087-8.718l-1.981 4.222 3.493.19-1.512-4.412zm6.243 9.278l.592-10.908 4.912.266c1.217.066 2.127.396 2.731.992.614.596.891 1.444.831 2.545-.053.987-.392 1.745-1.015 2.274-.612.53-1.363.817-2.252.863l3.09 4.45-1.622-.088-3.077-4.403-2.651-.143-.229 4.223-1.31-.071zm5.205-5.126c1.622.088 2.472-.595 2.551-2.05.079-1.444-.693-2.21-2.315-2.297l-3.603-.196-.236 4.348 3.603.195zm9.887 5.943l-1.31-.07.529-9.74-3.759-.204.064-1.168 8.827.478-.064 1.169-3.758-.204-.529 9.74zm14.125.922a4.759 4.759 0 01-2.519-.855c-.743-.53-1.314-1.233-1.715-2.11-.39-.885-.556-1.858-.499-2.918.059-1.09.33-2.05.813-2.878.494-.828 1.132-1.455 1.917-1.881a4.785 4.785 0 012.612-.578c1.112.06 1.995.327 2.647.8a4.942 4.942 0 011.558 1.835l-1.039.71c-.614-1.368-1.691-2.093-3.23-2.176a3.408 3.408 0 00-1.933.458c-.581.343-1.057.844-1.426 1.501-.359.648-.561 1.407-.609 2.28-.045.842.075 1.609.36 2.302.296.693.72 1.247 1.271 1.663a3.315 3.315 0 001.855.678c1.529.083 2.672-.527 3.431-1.83l.974.787c-.982 1.583-2.472 2.32-4.468 2.212zm10.912.591c-1.009-.054-1.905-.348-2.69-.88a5.366 5.366 0 01-1.808-2.13c-.411-.887-.588-1.85-.532-2.889.057-1.039.337-1.972.84-2.799a5.229 5.229 0 012.029-1.922c.838-.454 1.761-.654 2.769-.6 1.009.055 1.905.353 2.689.896a5.121 5.121 0 011.793 2.129c.421.877.604 1.835.548 2.874-.057 1.04-.342 1.977-.857 2.814a5.253 5.253 0 01-2.013 1.923c-.837.444-1.76.639-2.768.584zm.063-1.169a3.829 3.829 0 002.105-.464 4.05 4.05 0 001.522-1.527 4.983 4.983 0 00.638-2.232c.044-.82-.087-1.578-.393-2.272a3.919 3.919 0 00-1.348-1.682 3.756 3.756 0 00-2.042-.705 3.754 3.754 0 00-2.106.48 3.915 3.915 0 00-1.522 1.527c-.38.657-.592 1.396-.637 2.216a5.005 5.005 0 00.392 2.288 4.06 4.06 0 001.348 1.682 3.833 3.833 0 002.043.69zm8.711 1.488l-1.31-.07.592-10.909 1.403.076 5.221 9.004.472-8.696 1.31.071-.592 10.909-1.31-.071-5.306-9.165-.48 8.851zm14.255.773l-1.31-.071.528-9.74-3.759-.204.064-1.168 8.827.478-.064 1.169-3.758-.204-.528 9.74zm5.848.316l.592-10.908 4.912.266c1.217.066 2.127.397 2.731.992.614.596.891 1.445.831 2.546-.053.987-.392 1.745-1.015 2.274-.612.53-1.363.817-2.252.862l3.09 4.45-1.622-.088-3.077-4.402-2.651-.144-.229 4.223-1.31-.07zm5.205-5.125c1.622.088 2.472-.596 2.551-2.05.079-1.444-.693-2.21-2.315-2.298l-3.603-.195-.235 4.348 3.602.195zm6.153 5.741l-1.404-.076 5.084-10.665 1.029.056 3.9 11.151-1.404-.076-1.202-3.503-4.429-.24-1.574 3.353zm4.086-8.719l-1.981 4.222 3.493.19-1.512-4.412zm10.149 9.646a4.756 4.756 0 01-2.519-.855c-.743-.53-1.315-1.233-1.716-2.11-.39-.885-.556-1.858-.498-2.918.059-1.09.33-2.05.813-2.878.493-.828 1.132-1.455 1.916-1.881a4.786 4.786 0 012.612-.578c1.113.06 1.995.327 2.647.8a4.944 4.944 0 011.559 1.835l-1.04.71c-.614-1.367-1.69-2.093-3.229-2.176a3.406 3.406 0 00-1.933.458c-.582.344-1.057.844-1.427 1.501-.358.648-.561 1.408-.608 2.28-.046.842.074 1.609.36 2.302.296.693.719 1.247 1.27 1.663.551.415 1.17.641 1.856.678 1.528.083 2.672-.527 3.431-1.83l.974.788c-.983 1.582-2.472 2.32-4.468 2.211zm10.806.429l-1.31-.07.528-9.74-3.758-.204.063-1.169 8.827.479-.063 1.168-3.759-.203-.528 9.74zm10.094.547l-1.404-.076 5.084-10.665 1.029.056 3.9 11.152-1.404-.076-1.202-3.504-4.429-.24-1.574 3.353zm4.086-8.718l-1.981 4.222 3.494.189-1.513-4.411zm10.055 9.641c-1.539-.084-2.643-.586-3.312-1.508-.659-.932-.942-2.245-.85-3.938l.318-5.86 1.31.072-.329 6.062c-.072 1.319.136 2.304.622 2.956.486.641 1.254.99 2.305 1.047 1.05.057 1.851-.207 2.404-.792.554-.595.867-1.552.938-2.872l.329-6.062 1.31.071-.318 5.86c-.092 1.693-.521 2.967-1.286 3.822-.755.844-1.902 1.225-3.441 1.142zm7.078.227l.591-10.909 3.447.187c1.57.085 2.814.6 3.733 1.547.929.935 1.343 2.333 1.242 4.193-.101 1.86-.664 3.21-1.69 4.05-1.014.83-2.307 1.203-3.877 1.118l-3.446-.186zm3.572-.979c2.599.14 3.976-1.217 4.131-4.074.155-2.857-1.067-4.356-3.666-4.497l-2.199-.119-.465 8.571 2.199.12zm8.581 1.637l-1.31-.07.592-10.91 1.31.072-.592 10.908zm7.158.388l-1.31-.071.528-9.74-3.758-.203.063-1.169 8.827.478-.063 1.169-3.759-.204-.528 9.74zm9.595.52l.592-10.909 5.068.275c.686.037 1.261.204 1.725.5.474.286.819.659 1.034 1.119.215.449.309.944.279 1.484-.029.54-.179.99-.448 1.351-.27.35-.544.6-.823.752.487.235.87.579 1.148 1.032.289.443.415.996.379 1.661-.036.665-.223 1.233-.562 1.705a3.09 3.09 0 01-1.338 1.037c-.555.22-1.17.312-1.845.275l-5.209-.282zm5.408-5.99c.562.03 1.016-.08 1.363-.333.358-.251.554-.683.587-1.296.033-.613-.114-1.064-.443-1.353-.317-.298-.757-.463-1.318-.493l-3.759-.204-.188 3.475 3.758.204zm-.183 5.1c.759.042 1.34-.099 1.744-.42.413-.322.637-.794.671-1.418.034-.623-.138-1.117-.514-1.481-.366-.364-.929-.566-1.688-.607l-3.852-.209-.213 3.927 3.852.209zm9.157 1.669l-1.31-.071.227-4.176-3.362-6.934 1.497.08 2.615 5.425 3.171-5.11 1.481.08-4.093 6.545-.226 4.161zm14.02.915c-1.009-.054-1.905-.347-2.69-.88a5.366 5.366 0 01-1.808-2.13c-.411-.886-.588-1.85-.532-2.888.057-1.04.337-1.972.84-2.8a5.229 5.229 0 012.029-1.921c.838-.455 1.761-.655 2.769-.6 1.009.054 1.905.353 2.689.896a5.121 5.121 0 011.793 2.128c.421.878.604 1.836.548 2.875-.057 1.039-.342 1.976-.857 2.813a5.257 5.257 0 01-2.012 1.923c-.838.445-1.761.64-2.769.585zm.063-1.168a3.829 3.829 0 002.105-.464 4.05 4.05 0 001.522-1.527 4.983 4.983 0 00.638-2.232c.044-.821-.087-1.578-.393-2.272a3.918 3.918 0 00-1.348-1.683 3.756 3.756 0 00-2.042-.705 3.754 3.754 0 00-2.106.48 3.915 3.915 0 00-1.522 1.528c-.38.656-.592 1.395-.637 2.216a4.99 4.99 0 00.392 2.287 4.06 4.06 0 001.348 1.683 3.833 3.833 0 002.043.689zm7.219 1.407l-1.528-.083 4.308-5.612-3.124-5.264 1.575.085 2.406 4.1 2.881-3.813 1.513.082-3.752 4.86 3.612 6.073-1.544-.084-2.877-4.907-3.47 4.563zm13.628.895c-1.008-.055-1.905-.349-2.689-.88a5.377 5.377 0 01-1.809-2.13c-.41-.887-.588-1.85-.531-2.89.056-1.038.336-1.971.84-2.798a5.232 5.232 0 012.028-1.922c.838-.455 1.761-.655 2.77-.6 1.008.054 1.905.353 2.688.896a5.106 5.106 0 011.793 2.128c.422.878.604 1.836.548 2.875-.056 1.038-.342 1.976-.856 2.813a5.26 5.26 0 01-2.013 1.923c-.837.444-1.76.64-2.769.585zm.063-1.17a3.82 3.82 0 002.106-.463 4.056 4.056 0 001.522-1.528c.38-.667.593-1.41.637-2.231.045-.821-.086-1.578-.393-2.272a3.924 3.924 0 00-1.347-1.683 3.759 3.759 0 00-2.043-.705 3.755 3.755 0 00-2.106.48 3.927 3.927 0 00-1.522 1.527 4.892 4.892 0 00-.636 2.217c-.045.82.086 1.583.392 2.287a4.052 4.052 0 001.348 1.683 3.827 3.827 0 002.042.689zm7.401 1.418l.592-10.909 4.913.267c1.216.065 2.126.396 2.73.991.614.596.891 1.445.832 2.546-.054.987-.392 1.745-1.015 2.274-.613.53-1.364.817-2.252.863l3.09 4.45-1.622-.089-3.077-4.402-2.651-.143-.23 4.223-1.31-.071zm5.206-5.126c1.621.088 2.472-.595 2.551-2.05.078-1.444-.694-2.21-2.316-2.298l-3.602-.195-.236 4.348 3.603.195zm6.963 5.785l-1.31-.071.592-10.908 1.31.07-.592 10.909zm7.446.559c-1.009-.054-1.905-.347-2.69-.88a5.374 5.374 0 01-1.808-2.13c-.411-.887-.588-1.85-.532-2.888.057-1.04.337-1.972.841-2.8a5.218 5.218 0 012.028-1.921c.838-.455 1.761-.655 2.769-.6 1.009.054 1.905.353 2.689.896a5.114 5.114 0 011.793 2.128c.421.878.604 1.836.548 2.875-.057 1.039-.342 1.976-.857 2.813a5.258 5.258 0 01-2.012 1.923c-.838.444-1.761.64-2.769.585zm.063-1.168a3.835 3.835 0 002.106-.464 4.055 4.055 0 001.521-1.528 4.983 4.983 0 00.638-2.231c.044-.821-.087-1.578-.393-2.272a3.918 3.918 0 00-1.348-1.683 3.756 3.756 0 00-2.042-.705 3.755 3.755 0 00-2.106.48 3.914 3.914 0 00-1.522 1.528c-.38.656-.592 1.395-.637 2.216-.044.82.087 1.583.392 2.287a4.06 4.06 0 001.348 1.683 3.833 3.833 0 002.043.689zm18.145 2.155c-.988-.053-1.875-.33-2.661-.832a4.035 4.035 0 01-1.624-2.057l1.202-.544c.244.7.647 1.243 1.21 1.628.563.385 1.229.598 1.999.64.852.046 1.533-.105 2.042-.452.519-.347.796-.832.83-1.456.023-.436-.062-.79-.256-1.06-.183-.271-.505-.492-.965-.663-.449-.17-1.083-.314-1.9-.43-1.21-.18-2.124-.538-2.742-1.071-.607-.533-.887-1.241-.839-2.125a2.6 2.6 0 01.567-1.5c.357-.44.84-.778 1.447-1.016.618-.238 1.316-.335 2.096-.293.925.05 1.722.265 2.389.645a3.62 3.62 0 011.507 1.63l-1.102.705a2.929 2.929 0 00-1.103-1.279c-.483-.317-1.068-.495-1.754-.532-.811-.044-1.465.082-1.96.378-.485.286-.743.71-.773 1.271-.031.572.184 1.026.645 1.364.473.327 1.288.58 2.446.757 1.334.208 2.279.572 2.835 1.092.566.52.823 1.253.772 2.198a2.918 2.918 0 01-.589 1.625c-.359.47-.863.829-1.513 1.075-.639.246-1.374.347-2.206.302zm7.671.259l-1.31-.07.592-10.909 2.245.122 3.01 9.4 4.008-9.02 2.246.122-.592 10.908-1.31-.071.532-9.802-4.353 9.595-1.247-.068-3.289-10.009-.532 9.802zm13.322.722l-1.404-.076 5.084-10.665 1.029.056 3.9 11.151-1.404-.076-1.202-3.503-4.429-.24-1.574 3.353zm4.086-8.718l-1.981 4.222 3.494.189-1.513-4.411zm6.243 9.278l.592-10.909 4.913.267c1.216.065 2.126.396 2.73.991.614.596.891 1.445.832 2.546-.054.987-.392 1.745-1.015 2.274-.613.53-1.364.817-2.252.862l3.09 4.45-1.622-.088-3.077-4.402-2.651-.143-.23 4.223-1.31-.071zm5.205-5.126c1.622.088 2.473-.595 2.552-2.05.078-1.444-.694-2.21-2.316-2.298l-3.602-.195-.236 4.348 3.602.195zm9.888 5.943l-1.31-.07.528-9.74-3.758-.204.063-1.169 8.827.479-.063 1.168-3.759-.203-.528 9.74zm14.125.922a4.757 4.757 0 01-2.519-.855c-.743-.53-1.315-1.234-1.716-2.11-.39-.886-.556-1.858-.498-2.918.059-1.09.33-2.05.813-2.879.493-.827 1.132-1.454 1.916-1.88a4.787 4.787 0 012.612-.578c1.113.06 1.995.327 2.647.8a4.944 4.944 0 011.559 1.835l-1.04.71c-.614-1.368-1.69-2.093-3.229-2.176a3.407 3.407 0 00-1.933.458c-.582.343-1.057.843-1.427 1.5-.358.648-.561 1.408-.608 2.28-.046.842.074 1.61.36 2.302.296.694.719 1.248 1.27 1.663a3.32 3.32 0 001.856.68c1.528.082 2.672-.528 3.431-1.831l.974.787c-.983 1.583-2.472 2.32-4.468 2.212zm10.911.591c-1.008-.055-1.905-.348-2.689-.88a5.377 5.377 0 01-1.809-2.13c-.41-.887-.588-1.85-.531-2.889.056-1.039.336-1.972.84-2.799a5.233 5.233 0 012.028-1.922c.838-.455 1.761-.655 2.77-.6 1.008.055 1.905.353 2.688.896a5.106 5.106 0 011.793 2.129c.422.877.604 1.835.548 2.874-.056 1.039-.342 1.977-.856 2.814a5.26 5.26 0 01-2.013 1.922c-.837.445-1.76.64-2.769.585zm.063-1.169a3.83 3.83 0 002.106-.464 4.056 4.056 0 001.522-1.527c.38-.667.593-1.411.637-2.232.045-.82-.086-1.578-.393-2.272a3.923 3.923 0 00-1.347-1.683 3.756 3.756 0 00-2.042-.704 3.758 3.758 0 00-2.107.48 3.928 3.928 0 00-1.522 1.527 4.892 4.892 0 00-.636 2.216c-.045.82.086 1.583.392 2.287a4.052 4.052 0 001.348 1.683 3.826 3.826 0 002.042.69zm8.711 1.488l-1.31-.07.592-10.91 1.404.077 5.22 9.004.472-8.696 1.31.071-.592 10.908-1.31-.07-5.305-9.165-.481 8.851zm14.255.773l-1.31-.072.529-9.74-3.759-.203.063-1.169 8.827.479-.063 1.168-3.758-.203-.529 9.74zm5.849.316l.591-10.908 4.913.266c1.216.066 2.126.397 2.73.992.614.596.892 1.444.832 2.546-.054.986-.392 1.745-1.015 2.273-.613.53-1.363.817-2.252.863l3.09 4.45-1.622-.088-3.077-4.402-2.651-.144-.229 4.223-1.31-.07zm5.205-5.126c1.622.088 2.472-.595 2.551-2.05.078-1.443-.694-2.21-2.315-2.297l-3.603-.195-.236 4.347 3.603.195zm6.152 5.742l-1.403-.076 5.083-10.666 1.029.056 3.9 11.152-1.404-.076-1.201-3.504-4.43-.24-1.574 3.353zm4.087-8.719l-1.981 4.222 3.493.19-1.512-4.412zm10.148 9.646a4.76 4.76 0 01-2.519-.855c-.742-.53-1.314-1.233-1.715-2.11-.39-.886-.556-1.858-.499-2.918.059-1.09.33-2.05.813-2.879.494-.827 1.132-1.454 1.917-1.88a4.785 4.785 0 012.612-.578c1.112.06 1.995.327 2.647.8a4.941 4.941 0 011.558 1.835l-1.039.71c-.614-1.368-1.691-2.093-3.229-2.176a3.412 3.412 0 00-1.934.458c-.581.343-1.057.844-1.426 1.5-.359.648-.561 1.408-.609 2.281-.045.841.075 1.609.36 2.301.296.694.72 1.248 1.271 1.663a3.314 3.314 0 001.855.68c1.529.082 2.672-.528 3.431-1.831l.974.787c-.982 1.583-2.472 2.32-4.468 2.212zm10.807.429l-1.31-.07.528-9.74-3.759-.204.064-1.169 8.827.478-.064 1.17-3.758-.204-.528 9.74zm10.094.547l-1.404-.076 5.083-10.665 1.03.056 3.899 11.151-1.404-.076-1.201-3.503-4.429-.24-1.574 3.353zm4.086-8.718l-1.981 4.221 3.493.19-1.512-4.412zm10.055 9.64c-1.539-.083-2.643-.586-3.313-1.508-.658-.931-.942-2.244-.85-3.937l.318-5.86 1.31.071-.329 6.062c-.071 1.32.136 2.305.622 2.957.487.64 1.255.99 2.305 1.047 1.05.056 1.852-.207 2.405-.792.553-.595.866-1.553.938-2.872l.329-6.062 1.31.071-.318 5.86c-.092 1.693-.521 2.967-1.287 3.821-.755.845-1.902 1.226-3.44 1.142zm7.077.227l.592-10.908 3.447.187c1.57.085 2.814.6 3.732 1.546.93.936 1.344 2.334 1.243 4.194-.101 1.86-.664 3.21-1.69 4.05-1.015.83-2.307 1.203-3.877 1.118l-3.447-.187zm3.573-.978c2.599.14 3.976-1.217 4.131-4.074.155-2.857-1.067-4.356-3.666-4.497l-2.199-.12-.465 8.572 2.199.119zm8.581 1.637l-1.31-.071.592-10.908 1.31.07-.592 10.909zm7.157.387l-1.31-.07.529-9.74-3.759-.204.064-1.168 8.827.478-.064 1.169-3.758-.204-.529 9.74zm9.595.52l.592-10.908 5.069.275c.686.037 1.261.203 1.724.5.475.286.82.659 1.034 1.118.216.45.309.944.28 1.485-.03.54-.179.99-.449 1.35-.269.35-.544.602-.823.753.488.235.871.579 1.149 1.031.288.443.415.997.379 1.662-.036.665-.224 1.233-.562 1.704a3.093 3.093 0 01-1.339 1.038c-.554.22-1.169.311-1.845.275l-5.209-.282zm5.409-5.99c.561.031 1.015-.08 1.363-.332.358-.251.553-.684.586-1.297.034-.612-.114-1.063-.442-1.352-.318-.299-.757-.463-1.319-.493l-3.758-.204-.189 3.475 3.759.204zm-.183 5.101c.759.042 1.34-.099 1.743-.42.414-.322.638-.795.671-1.418.034-.623-.137-1.117-.513-1.481-.367-.364-.929-.567-1.688-.608l-3.852-.208-.213 3.927 3.852.208zm9.157 1.669l-1.31-.071.226-4.177-3.362-6.933 1.497.08 2.615 5.425 3.171-5.111 1.482.08-4.093 6.546-.226 4.16zm14.019.915c-1.008-.054-1.905-.348-2.689-.88a5.377 5.377 0 01-1.809-2.13c-.41-.887-.587-1.85-.531-2.888.056-1.04.336-1.972.84-2.8a5.232 5.232 0 012.028-1.921c.838-.455 1.761-.655 2.77-.6 1.008.054 1.905.353 2.689.895a5.111 5.111 0 011.792 2.13c.422.876.605 1.835.548 2.873-.056 1.04-.342 1.977-.856 2.814a5.26 5.26 0 01-2.013 1.923c-.837.444-1.76.64-2.769.584zm.063-1.168c.77.041 1.472-.113 2.106-.465a4.056 4.056 0 001.522-1.527c.38-.667.593-1.41.637-2.231.045-.821-.086-1.579-.393-2.272a3.923 3.923 0 00-1.347-1.683 3.756 3.756 0 00-2.042-.705 3.757 3.757 0 00-2.107.48 3.927 3.927 0 00-1.522 1.527 4.892 4.892 0 00-.636 2.217c-.045.82.086 1.583.392 2.287a4.052 4.052 0 001.348 1.683 3.827 3.827 0 002.042.689zm7.219 1.407l-1.528-.083 4.309-5.612-3.124-5.264 1.575.085 2.405 4.1 2.882-3.813 1.512.081-3.751 4.861 3.612 6.072-1.544-.083-2.878-4.907-3.47 4.563zm13.629.894c-1.009-.054-1.905-.348-2.69-.88a5.366 5.366 0 01-1.808-2.13c-.411-.887-.588-1.85-.532-2.889.057-1.038.337-1.972.84-2.799a5.228 5.228 0 012.029-1.921c.838-.455 1.761-.655 2.769-.6 1.009.054 1.905.353 2.689.895a5.121 5.121 0 011.793 2.13c.421.876.604 1.834.548 2.873-.057 1.04-.342 1.977-.857 2.814a5.257 5.257 0 01-2.012 1.923c-.838.444-1.761.639-2.769.584zm.063-1.168a3.829 3.829 0 002.105-.465 4.05 4.05 0 001.522-1.527 4.98 4.98 0 00.638-2.232c.044-.82-.087-1.578-.393-2.272a3.919 3.919 0 00-1.348-1.682 3.756 3.756 0 00-2.042-.705 3.756 3.756 0 00-2.106.48 3.915 3.915 0 00-1.522 1.527c-.38.657-.592 1.396-.637 2.216a4.99 4.99 0 00.393 2.288 4.05 4.05 0 001.347 1.683 3.833 3.833 0 002.043.689zm7.401 1.416l.592-10.908 4.912.266c1.217.066 2.127.397 2.731.992.614.596.891 1.445.831 2.546-.053.987-.392 1.745-1.015 2.274-.612.53-1.363.817-2.252.862l3.09 4.45-1.622-.088-3.077-4.402-2.651-.144-.229 4.223-1.31-.07zm5.205-5.125c1.622.088 2.472-.596 2.551-2.05.079-1.444-.693-2.21-2.315-2.298l-3.603-.195-.235 4.348 3.602.195zm6.964 5.785l-1.31-.071.592-10.909 1.31.071-.592 10.909zm7.445.559c-1.008-.054-1.905-.348-2.689-.88a5.376 5.376 0 01-1.809-2.13c-.41-.887-.587-1.85-.531-2.889.056-1.038.336-1.971.84-2.799a5.232 5.232 0 012.028-1.922c.838-.454 1.761-.654 2.77-.6 1.008.055 1.905.354 2.689.896a5.112 5.112 0 011.792 2.13c.422.876.604 1.834.548 2.873-.056 1.04-.342 1.977-.856 2.814a5.26 5.26 0 01-2.013 1.923c-.837.444-1.76.639-2.769.584zm.064-1.168a3.829 3.829 0 002.105-.465 4.057 4.057 0 001.522-1.527c.38-.667.593-1.41.637-2.232.045-.82-.086-1.578-.393-2.272a3.923 3.923 0 00-1.347-1.682 3.756 3.756 0 00-2.042-.705 3.757 3.757 0 00-2.107.48 3.928 3.928 0 00-1.522 1.527 4.891 4.891 0 00-.636 2.216 4.978 4.978 0 00.392 2.288 4.06 4.06 0 001.348 1.683 3.835 3.835 0 002.043.689zm17.975 2.146c-.987-.054-1.874-.331-2.66-.832a4.032 4.032 0 01-1.625-2.058l1.203-.544c.243.701.646 1.244 1.21 1.629.563.384 1.229.598 1.998.64.853.046 1.533-.105 2.042-.453.52-.347.796-.832.83-1.455.024-.436-.061-.79-.255-1.061-.184-.27-.505-.491-.965-.662-.45-.17-1.083-.314-1.901-.431-1.21-.18-2.124-.537-2.741-1.07-.608-.534-.887-1.242-.839-2.125a2.59 2.59 0 01.566-1.5c.358-.44.84-.778 1.447-1.016.618-.238 1.317-.336 2.096-.293.926.05 1.722.265 2.39.645.667.38 1.17.923 1.507 1.629l-1.102.706a2.93 2.93 0 00-1.104-1.279c-.483-.318-1.068-.495-1.754-.533-.811-.044-1.464.083-1.96.379-.485.286-.742.71-.773 1.27-.031.572.184 1.027.646 1.364.472.328 1.287.58 2.446.758 1.333.208 2.278.571 2.834 1.091.566.52.823 1.253.772 2.199a2.919 2.919 0 01-.589 1.625c-.359.47-.863.828-1.512 1.074-.64.247-1.375.348-2.207.303zm7.671.259l-1.31-.071.592-10.908 2.246.121 3.009 9.4 4.009-9.02 2.245.122-.592 10.909-1.31-.072.532-9.801-4.352 9.594-1.248-.067-3.289-10.009-.532 9.802zm13.322.722l-1.403-.076 5.083-10.665 1.029.055 3.9 11.152-1.404-.076-1.202-3.504-4.429-.24-1.574 3.354zm4.087-8.719l-1.981 4.222 3.493.19-1.512-4.412zm6.243 9.278l.592-10.908 4.912.266c1.217.066 2.127.397 2.73.992.615.596.892 1.445.832 2.546-.054.987-.392 1.745-1.015 2.273-.613.53-1.363.817-2.252.863l3.09 4.45-1.622-.088-3.077-4.402-2.651-.144-.229 4.223-1.31-.07zm5.205-5.125c1.622.087 2.472-.596 2.551-2.05.078-1.444-.693-2.21-2.315-2.298l-3.603-.195-.236 4.347 3.603.196zm9.887 5.942l-1.31-.07.529-9.74-3.759-.203.064-1.169 8.827.478-.064 1.169-3.758-.204-.529 9.74zm14.125.922a4.759 4.759 0 01-2.519-.855c-.743-.53-1.314-1.233-1.715-2.11-.39-.885-.557-1.858-.499-2.918.059-1.09.33-2.05.813-2.878.493-.828 1.132-1.455 1.917-1.881a4.786 4.786 0 012.612-.578c1.112.06 1.995.327 2.647.8a4.941 4.941 0 011.558 1.835l-1.039.71c-.614-1.367-1.691-2.092-3.23-2.176a3.408 3.408 0 00-1.933.458c-.581.344-1.057.844-1.426 1.501-.359.648-.561 1.408-.609 2.28-.045.842.074 1.61.36 2.302.296.693.72 1.248 1.271 1.663a3.315 3.315 0 001.855.679c1.529.082 2.672-.528 3.431-1.83l.974.787c-.982 1.582-2.472 2.32-4.468 2.211zm10.911.592c-1.008-.055-1.905-.349-2.689-.88a5.366 5.366 0 01-1.808-2.13c-.411-.888-.588-1.85-.532-2.89.057-1.038.337-1.971.84-2.798a5.229 5.229 0 012.029-1.922c.838-.455 1.761-.655 2.769-.6 1.009.054 1.905.353 2.689.895a5.112 5.112 0 011.792 2.13c.422.877.605 1.835.548 2.874-.056 1.038-.341 1.976-.856 2.813a5.26 5.26 0 01-2.013 1.923c-.837.444-1.76.64-2.769.585zm.064-1.17a3.829 3.829 0 002.105-.463 4.05 4.05 0 001.522-1.528 4.97 4.97 0 00.637-2.231 4.888 4.888 0 00-.392-2.272 3.925 3.925 0 00-1.348-1.683 3.756 3.756 0 00-2.042-.705 3.757 3.757 0 00-2.107.48 3.919 3.919 0 00-1.521 1.528c-.38.656-.592 1.395-.637 2.216a4.99 4.99 0 00.392 2.287 4.06 4.06 0 001.348 1.683 3.83 3.83 0 002.043.689zm8.711 1.489l-1.31-.071.592-10.909 1.403.076 5.221 9.004.472-8.695 1.31.07-.592 10.91-1.31-.072-5.306-9.165-.48 8.852zm14.254.772l-1.31-.071.529-9.74-3.759-.203.064-1.169 8.827.478-.064 1.169-3.758-.204-.529 9.74zm5.849.317l.592-10.909 4.912.267c1.217.066 2.127.396 2.731.991.614.596.891 1.445.831 2.546-.053.987-.392 1.745-1.015 2.274-.612.53-1.363.817-2.252.862l3.09 4.45-1.622-.088-3.077-4.402-2.651-.143-.229 4.223-1.31-.071zm5.205-5.126c1.622.088 2.472-.595 2.551-2.05.079-1.444-.693-2.21-2.315-2.298l-3.603-.195-.236 4.348 3.603.195zm6.153 5.741l-1.404-.076 5.084-10.665 1.029.056 3.899 11.151-1.403-.076-1.202-3.503-4.429-.24-1.574 3.353zm4.086-8.718l-1.981 4.222 3.493.189-1.512-4.411zm10.148 9.645a4.756 4.756 0 01-2.518-.855c-.743-.53-1.315-1.233-1.716-2.109-.39-.886-.556-1.859-.498-2.918.059-1.091.33-2.05.813-2.879.493-.828 1.132-1.455 1.916-1.881a4.786 4.786 0 012.612-.578c1.113.06 1.995.327 2.647.8a4.932 4.932 0 011.558 1.835l-1.039.71c-.614-1.367-1.691-2.092-3.229-2.176a3.407 3.407 0 00-1.933.458c-.582.344-1.057.844-1.427 1.501-.358.648-.561 1.408-.608 2.28-.046.842.074 1.61.36 2.302.296.693.719 1.248 1.27 1.663.551.415 1.17.642 1.856.679 1.528.083 2.672-.528 3.431-1.83l.974.787c-.983 1.582-2.472 2.32-4.469 2.212zm10.807.43l-1.31-.071.528-9.74-3.758-.204.063-1.168 8.827.478-.063 1.169-3.759-.204-.528 9.74zm10.094.546l-1.404-.076L891.8 82.52l1.029.056 3.9 11.152-1.404-.076-1.202-3.504-4.429-.24-1.574 3.353zm4.086-8.718l-1.981 4.222 3.494.19-1.513-4.412zm10.055 9.641c-1.539-.083-2.643-.586-3.312-1.508-.659-.932-.942-2.244-.85-3.938l.318-5.859 1.31.071-.329 6.062c-.072 1.32.135 2.305.621 2.956.487.641 1.255.99 2.305 1.047 1.051.057 1.852-.207 2.405-.792.554-.595.867-1.552.938-2.871l.329-6.062 1.31.07-.318 5.86c-.092 1.693-.521 2.967-1.287 3.822-.754.845-1.901 1.225-3.44 1.142zm7.078.227l.591-10.908 3.447.187c1.57.085 2.814.6 3.732 1.546.93.936 1.344 2.334 1.243 4.193-.101 1.86-.664 3.21-1.69 4.05-1.015.831-2.307 1.204-3.877 1.119l-3.446-.187zm3.572-.979c2.599.141 3.976-1.217 4.131-4.074.155-2.857-1.067-4.356-3.666-4.496l-2.199-.12-.465 8.571 2.199.12zm8.581 1.638l-1.31-.072.592-10.908 1.31.071-.592 10.909zm7.158.387l-1.31-.07.528-9.74-3.758-.204.063-1.169 8.827.479-.063 1.168-3.759-.203-.528 9.74z" fill="#202020"/></g><defs><clipPath id="clip0_2884_25995"><path fill="#fff" d="M0 0h414v105H0z"/></clipPath></defs></svg>