<svg width="1440" height="312" fill="none" xmlns="http://www.w3.org/2000/svg"><g clip-path="url(#clip0_2742_33253)"><g clip-path="url(#clip1_2742_33253)"><path fill="#FC6B1A" fill-opacity=".78" d="M-149 256L1530.752-12.017l12.448 78.014-1679.752 268.016z"/><path d="M-177.918 313.636c-2.251.36-4.384.165-6.399-.583-1.996-.775-3.549-2.058-4.661-3.849l2.445-1.812c.889 1.462 2.062 2.49 3.518 3.084 1.456.594 3.06.751 4.814.471 1.944-.31 3.404-.98 4.382-2.011 1.001-1.035 1.389-2.263 1.162-3.685-.159-.996-.523-1.752-1.091-2.269-.545-.52-1.377-.861-2.497-1.023-1.095-.166-2.593-.182-4.492-.049-2.814.182-5.047-.179-6.698-1.082-1.627-.907-2.601-2.368-2.923-4.382a5.982 5.982 0 01.547-3.66c.592-1.164 1.514-2.162 2.766-2.993 1.277-.836 2.804-1.396 4.581-1.679 2.109-.337 4.009-.239 5.698.294 1.689.532 3.085 1.513 4.187 2.941l-2.139 2.127a6.767 6.767 0 00-3.109-2.347c-1.243-.482-2.647-.598-4.211-.349-1.849.295-3.26.897-4.233 1.806-.953.881-1.327 1.961-1.123 3.241.208 1.304.914 2.224 2.117 2.761 1.224.509 3.184.683 5.88.52 3.106-.18 5.412.182 6.917 1.084 1.529.898 2.465 2.426 2.809 4.582a6.735 6.735 0 01-.536 3.95c-.581 1.235-1.543 2.288-2.887 3.158-1.32.867-2.928 1.452-4.824 1.754zm17.41-3.142l-2.986.476-3.971-24.885 5.12-.817 11.351 19.734 4.646-22.286 5.12-.817 3.97 24.885-2.986.477-3.568-22.361-5.142 23.75-2.844.454-12.278-20.971 3.568 22.361zm30.369-4.846l-3.199.511 6.267-26.519 2.347-.374 14.209 23.251-3.2.511-4.412-7.316-10.096 1.61-1.916 8.326zm4.968-21.645l-2.411 10.483 7.964-1.271-5.553-9.212zm18.578 17.888l-3.97-24.885 11.198-1.787c2.773-.442 4.984-.139 6.634.91 1.674 1.046 2.711 2.825 3.112 5.337.36 2.251-.034 4.125-1.181 5.62-1.123 1.492-2.675 2.505-4.655 3.04l9.126 8.532-3.697.59-9.074-8.432-6.044.965 1.538 9.634-2.987.476zm9.236-14.087c3.697-.59 5.281-2.544 4.752-5.862-.526-3.294-2.637-4.646-6.334-4.056l-8.213 1.31 1.583 9.919 8.212-1.311zm25.168 8.598l-2.986.476-3.545-22.218-8.568 1.367-.425-2.667 20.121-3.21.426 2.666-8.568 1.367 3.545 22.219zm32.275-4.785c-2.133.34-4.164.105-6.092-.705-1.931-.834-3.562-2.142-4.89-3.922-1.31-1.809-2.157-3.922-2.543-6.339-.397-2.489-.253-4.784.432-6.886.71-2.106 1.844-3.83 3.404-5.173 1.58-1.37 3.448-2.227 5.605-2.571 2.535-.405 4.653-.232 6.352.517 1.724.746 3.191 1.873 4.404 3.381l-1.997 2.105c-2.048-2.784-4.826-3.897-8.334-3.337-1.588.253-2.966.911-4.133 1.972-1.144 1.057-1.972 2.417-2.484 4.078-.493 1.634-.58 3.447-.263 5.438.306 1.919.95 3.591 1.93 5.014 1.005 1.42 2.228 2.464 3.672 3.133a7.644 7.644 0 004.511.629c3.484-.556 5.764-2.488 6.84-5.795l2.578 1.303c-1.445 4.046-4.442 6.432-8.992 7.158zm24.873-3.969c-2.299.367-4.462.141-6.488-.678-2.03-.843-3.733-2.151-5.11-3.924-1.357-1.801-2.224-3.886-2.602-6.256-.378-2.37-.201-4.61.532-6.72.752-2.137 1.964-3.91 3.635-5.319 1.667-1.432 3.65-2.332 5.949-2.699s4.463-.129 6.493.714c2.027.819 3.718 2.129 5.075 3.929 1.377 1.774 2.254 3.845 2.632 6.215.378 2.37.191 4.624-.562 6.761-.732 2.11-1.932 3.881-3.6 5.314-1.67 1.409-3.655 2.296-5.954 2.663zm-.425-2.666c1.753-.28 3.26-.97 4.518-2.07 1.254-1.124 2.15-2.518 2.686-4.183.533-1.689.65-3.47.35-5.342-.298-1.873-.961-3.517-1.99-4.932-1.03-1.44-2.316-2.486-3.854-3.14-1.542-.678-3.19-.877-4.944-.597s-3.258.982-4.512 2.106c-1.259 1.1-2.154 2.494-2.687 4.183-.536 1.665-.655 3.434-.356 5.307.299 1.872.964 3.528 1.995 4.967 1.028 1.416 2.313 2.463 3.855 3.14 1.539.654 3.185.841 4.939.561zm20.35-.878l-2.986.477-3.97-24.885 3.2-.511 16.14 17.767-3.165-19.837 2.986-.477 3.97 24.886-2.985.476-16.411-18.088 3.222 20.192zm32.495-5.184l-2.987.476-3.545-22.219-8.567 1.367-.426-2.666 20.122-3.211.425 2.667-8.568 1.367 3.546 22.219zm13.332-2.127l-3.971-24.886 11.198-1.786c2.773-.443 4.985-.14 6.635.91 1.673 1.045 2.71 2.824 3.111 5.336.36 2.251-.034 4.125-1.181 5.62-1.123 1.492-2.675 2.505-4.655 3.04l9.126 8.532-3.697.59-9.074-8.431-6.043.964 1.537 9.634-2.986.477zm9.235-14.088c3.698-.59 5.281-2.544 4.752-5.862-.526-3.294-2.637-4.646-6.334-4.056l-8.212 1.31 1.582 9.919 8.212-1.311zm16.655 9.956l-3.2.511 6.269-26.519 2.346-.374 14.21 23.251-3.2.511-4.412-7.316-10.097 1.611-1.916 8.325zm4.968-21.645l-2.41 10.483 7.963-1.27-5.553-9.213zm27.557 16.82c-2.133.341-4.163.106-6.091-.705-1.932-.834-3.562-2.141-4.891-3.922-1.31-1.808-2.157-3.921-2.543-6.338-.397-2.489-.253-4.784.433-6.887.709-2.106 1.843-3.83 3.403-5.173 1.58-1.37 3.448-2.227 5.605-2.571 2.536-.404 4.654-.232 6.353.518 1.723.746 3.191 1.872 4.404 3.38l-1.998 2.105c-2.048-2.784-4.826-3.896-8.333-3.336-1.588.253-2.966.91-4.133 1.971-1.144 1.058-1.972 2.417-2.485 4.079-.492 1.634-.58 3.446-.262 5.437.306 1.92.95 3.591 1.93 5.015 1.004 1.419 2.228 2.463 3.671 3.132a7.638 7.638 0 004.512.629c3.484-.556 5.764-2.487 6.84-5.794l2.578 1.302c-1.445 4.046-4.442 6.432-8.993 7.158zm24.558-4.282l-2.986.476-3.546-22.219-8.567 1.367-.426-2.666 20.122-3.211.425 2.667-8.567 1.367 3.545 22.219zm23.01-3.672l-3.2.511 6.268-26.519 2.346-.375 14.21 23.252-3.2.511-4.412-7.317-10.096 1.611-1.916 8.326zm4.967-21.645l-2.41 10.483 7.963-1.271-5.553-9.212zm27.344 16.854c-3.507.56-6.24-.037-8.196-1.791-1.937-1.781-3.214-4.603-3.83-8.466l-2.133-13.367 2.986-.476 2.207 13.829c.48 3.01 1.426 5.131 2.838 6.364 1.408 1.209 3.309 1.623 5.703 1.241 2.394-.382 4.071-1.367 5.033-2.954.958-1.611 1.197-3.922.717-6.932l-2.207-13.829 2.987-.476 2.133 13.367c.616 3.863.269 6.944-1.041 9.243-1.29 2.272-3.689 3.688-7.197 4.247zm16.058-2.926l-3.971-24.886 7.857-1.253c3.579-.571 6.633-.014 9.162 1.673 2.549 1.659 4.162 4.61 4.839 8.852.677 4.242.064 7.56-1.838 9.954-1.883 2.366-4.614 3.835-8.193 4.406l-7.856 1.254zm7.573-3.943c5.925-.945 8.368-4.677 7.328-11.194-1.04-6.518-4.523-9.304-10.448-8.359l-5.012.8 3.12 19.553 5.012-.8zm20.132-.478l-2.987.476-3.97-24.885 2.986-.476 3.971 24.885zm16.316-2.603l-2.987.476-3.545-22.219-8.568 1.367-.425-2.666 20.122-3.211.425 2.667-8.568 1.367 3.546 22.219zm21.872-3.49l-3.971-24.885 11.554-1.844c1.564-.249 2.941-.153 4.129.289 1.209.415 2.167 1.088 2.874 2.02.704.909 1.155 1.979 1.351 3.212.197 1.232.079 2.32-.354 3.264-.436.921-.932 1.619-1.488 2.097a6.187 6.187 0 013.089 1.767c.866.859 1.42 2.046 1.662 3.563.242 1.517.097 2.889-.437 4.116-.537 1.204-1.374 2.2-2.512 2.989-1.142.766-2.483 1.271-4.023 1.517l-11.874 1.895zm9.273-16.135c1.28-.204 2.25-.675 2.91-1.412.684-.741.914-1.811.691-3.209-.223-1.398-.775-2.343-1.655-2.835-.861-.518-1.931-.676-3.21-.472l-8.568 1.367 1.265 7.928 8.567-1.367zm2.069 11.591c1.73-.276 2.971-.875 3.723-1.797.776-.926 1.05-2.1.823-3.522-.227-1.422-.853-2.452-1.878-3.09-1.002-.643-2.368-.826-4.098-.55l-8.781 1.401 1.43 8.959 8.781-1.401zm21.443-.687l-2.986.476-1.52-9.527-10.947-14.002 3.413-.545 8.529 10.961 4.66-13.065 3.377-.539-6.04 16.749 1.514 9.492zm32.034-4.747c-2.299.367-4.461.141-6.488-.678-2.03-.843-3.733-2.151-5.11-3.924-1.356-1.801-2.224-3.886-2.602-6.256-.378-2.37-.201-4.61.532-6.72.753-2.137 1.964-3.91 3.635-5.319 1.667-1.433 3.65-2.332 5.949-2.699s4.464-.129 6.494.713c2.026.819 3.718 2.129 5.074 3.93 1.377 1.773 2.254 3.845 2.632 6.215.379 2.37.191 4.624-.561 6.761-.733 2.11-1.933 3.881-3.6 5.313-1.671 1.409-3.656 2.297-5.955 2.664zm-.425-2.666c1.754-.28 3.26-.97 4.518-2.07 1.255-1.124 2.15-2.518 2.687-4.184.532-1.689.649-3.469.35-5.342-.299-1.872-.962-3.516-1.99-4.932-1.031-1.439-2.316-2.486-3.855-3.139-1.542-.678-3.19-.877-4.943-.597-1.754.28-3.258.982-4.513 2.105-1.258 1.1-2.154 2.495-2.686 4.184-.537 1.665-.656 3.434-.357 5.306.299 1.873.964 3.528 1.996 4.968 1.028 1.416 2.313 2.462 3.855 3.14 1.538.654 3.184.841 4.938.561zm16.95-.335l-3.484.556 6.979-14.748-9.599-10.353 3.591-.573 7.413 8.077 4.638-10 3.449-.55-6.09 12.783 11.091 11.938-3.519.561-8.87-9.667-5.599 11.976zm31.142-4.605c-2.299.367-4.462.141-6.488-.678-2.03-.842-3.734-2.15-5.11-3.924-1.357-1.8-2.224-3.886-2.602-6.256-.379-2.37-.201-4.61.531-6.72.753-2.137 1.965-3.91 3.636-5.319 1.667-1.432 3.65-2.332 5.949-2.699s4.463-.129 6.493.714c2.027.819 3.718 2.129 5.075 3.929 1.376 1.774 2.254 3.845 2.632 6.215.378 2.37.191 4.624-.562 6.761-.732 2.11-1.932 3.881-3.599 5.314-1.671 1.409-3.656 2.297-5.955 2.663zm-.426-2.666c1.754-.28 3.26-.97 4.519-2.07 1.254-1.123 2.15-2.518 2.686-4.183.533-1.689.65-3.47.351-5.342-.299-1.872-.962-3.516-1.99-4.932-1.032-1.44-2.317-2.486-3.855-3.14-1.542-.678-3.19-.876-4.944-.597-1.754.28-3.258.982-4.512 2.106-1.259 1.1-2.154 2.494-2.687 4.183-.536 1.666-.655 3.434-.356 5.307.299 1.872.964 3.528 1.995 4.967 1.028 1.416 2.313 2.463 3.855 3.14 1.539.654 3.185.841 4.938.561zm17.365-.401l-3.97-24.885 11.198-1.787c2.773-.442 4.984-.139 6.634.91 1.674 1.045 2.711 2.824 3.112 5.336.359 2.252-.035 4.125-1.181 5.621-1.123 1.491-2.675 2.505-4.656 3.039l9.127 8.533-3.697.59-9.074-8.432-6.044.964 1.537 9.635-2.986.476zm9.236-14.087c3.697-.59 5.281-2.544 4.752-5.862-.526-3.294-2.637-4.647-6.335-4.057l-8.212 1.311 1.583 9.918 8.212-1.31zm18.504 9.661l-2.986.476-3.971-24.885 2.986-.476 3.971 24.885zm17.048-2.356c-2.299.367-4.462.141-6.488-.678-2.03-.842-3.734-2.15-5.11-3.924-1.357-1.8-2.224-3.886-2.602-6.256-.379-2.37-.201-4.61.531-6.719.753-2.138 1.965-3.911 3.636-5.32 1.667-1.432 3.65-2.332 5.949-2.699s4.463-.129 6.493.714c2.027.819 3.718 2.129 5.075 3.929 1.377 1.774 2.254 3.845 2.632 6.215.378 2.37.191 4.624-.562 6.761-.732 2.11-1.932 3.881-3.599 5.314-1.671 1.409-3.656 2.297-5.955 2.663zm-.426-2.666c1.754-.28 3.26-.97 4.519-2.07 1.254-1.123 2.15-2.518 2.686-4.183.533-1.689.65-3.47.351-5.342-.299-1.872-.962-3.516-1.99-4.932-1.032-1.44-2.317-2.486-3.855-3.14-1.542-.678-3.19-.876-4.944-.597-1.754.28-3.258.982-4.512 2.106-1.259 1.1-2.154 2.494-2.687 4.183-.536 1.666-.655 3.434-.356 5.307.299 1.872.964 3.528 1.995 4.967 1.028 1.416 2.313 2.463 3.855 3.14 1.539.654 3.185.841 4.938.561zm41.933-3.956c-2.252.359-4.385.165-6.4-.583-1.995-.776-3.549-2.059-4.661-3.85l2.445-1.812c.89 1.462 2.062 2.49 3.518 3.084 1.456.594 3.061.752 4.815.472 1.943-.31 3.404-.981 4.381-2.012 1.002-1.035 1.389-2.263 1.162-3.685-.159-.995-.522-1.751-1.091-2.268-.545-.521-1.377-.862-2.496-1.024-1.096-.165-2.593-.181-4.492-.049-2.815.182-5.047-.179-6.698-1.082-1.627-.907-2.602-2.367-2.923-4.382a5.99 5.99 0 01.546-3.66c.592-1.164 1.514-2.161 2.767-2.993 1.276-.836 2.803-1.395 4.581-1.679 2.109-.336 4.008-.238 5.697.294 1.689.533 3.085 1.513 4.188 2.941l-2.14 2.128a6.766 6.766 0 00-3.108-2.348c-1.244-.482-2.648-.598-4.212-.348-1.849.294-3.259.896-4.232 1.805-.953.881-1.328 1.962-1.124 3.241.208 1.304.914 2.224 2.118 2.761 1.223.51 3.183.683 5.879.52 3.107-.179 5.412.182 6.917 1.084 1.529.898 2.465 2.426 2.81 4.583a6.733 6.733 0 01-.537 3.949c-.58 1.235-1.543 2.288-2.886 3.159-1.32.867-2.928 1.451-4.824 1.754zm17.41-3.143l-2.986.477-3.971-24.885 5.119-.817 11.351 19.734 4.647-22.287 5.119-.817 3.971 24.886-2.987.476-3.567-22.361-5.142 23.751-2.844.454-12.278-20.972 3.568 22.361zm30.369-4.845l-3.2.51 6.268-26.519 2.346-.374 14.209 23.252-3.199.51-4.412-7.316-10.096 1.611-1.916 8.326zm4.967-21.645l-2.41 10.482 7.963-1.27-5.553-9.212zm18.579 17.888l-3.971-24.885 11.199-1.787c2.772-.443 4.984-.139 6.634.91 1.673 1.045 2.711 2.824 3.112 5.336.359 2.252-.035 4.125-1.182 5.62-1.123 1.492-2.674 2.505-4.655 3.04l9.127 8.533-3.698.589-9.074-8.431-6.043.964 1.537 9.634-2.986.477zm9.236-14.087c3.697-.59 5.281-2.544 4.751-5.862-.525-3.295-2.637-4.647-6.334-4.057l-8.212 1.31 1.582 9.919 8.213-1.31zm25.168 8.597l-2.986.477-3.545-22.219-8.568 1.367-.426-2.666 20.122-3.211.425 2.666-8.567 1.367 3.545 22.219zm32.274-4.785c-2.133.341-4.163.106-6.091-.705-1.932-.834-3.562-2.141-4.891-3.922-1.309-1.808-2.157-3.921-2.543-6.339-.397-2.488-.253-4.784.433-6.886.709-2.106 1.843-3.83 3.403-5.173 1.58-1.37 3.448-2.227 5.605-2.571 2.536-.405 4.654-.232 6.353.518 1.723.745 3.191 1.872 4.404 3.38l-1.998 2.105c-2.048-2.784-4.826-3.896-8.334-3.337-1.587.254-2.965.911-4.132 1.972-1.144 1.058-1.972 2.417-2.485 4.079-.493 1.634-.58 3.446-.262 5.437.306 1.92.949 3.591 1.93 5.014 1.004 1.42 2.228 2.464 3.671 3.133a7.637 7.637 0 004.512.629c3.484-.556 5.764-2.487 6.84-5.794l2.578 1.302c-1.445 4.046-4.442 6.432-8.993 7.158zm24.873-3.968c-2.299.366-4.461.14-6.487-.679-2.031-.842-3.734-2.15-5.111-3.923-1.356-1.801-2.224-3.887-2.602-6.257-.378-2.37-.201-4.61.532-6.719.753-2.138 1.964-3.911 3.635-5.32 1.667-1.432 3.65-2.332 5.949-2.699 2.299-.366 4.464-.129 6.494.714 2.026.819 3.718 2.129 5.074 3.93 1.377 1.773 2.254 3.845 2.633 6.215.378 2.37.19 4.623-.562 6.761-.733 2.109-1.933 3.881-3.6 5.313-1.671 1.409-3.656 2.297-5.955 2.664zm-.425-2.667c1.754-.28 3.26-.969 4.518-2.069 1.255-1.124 2.15-2.519 2.687-4.184.532-1.689.649-3.47.35-5.342-.298-1.872-.962-3.516-1.99-4.932-1.031-1.439-2.316-2.486-3.854-3.14-1.543-.677-3.19-.876-4.944-.596-1.754.279-3.258.981-4.513 2.105-1.258 1.1-2.154 2.494-2.686 4.184-.537 1.665-.655 3.434-.357 5.306.299 1.872.964 3.528 1.996 4.968 1.028 1.415 2.313 2.462 3.855 3.139 1.538.654 3.184.841 4.938.561zm20.351-.877l-2.986.476-3.971-24.885 3.2-.51 16.141 17.766-3.165-19.837 2.986-.476 3.97 24.885-2.986.476-16.411-18.088 3.222 20.193zm32.494-5.185l-2.986.477-3.545-22.219-8.568 1.367-.425-2.667 20.121-3.21.426 2.666-8.568 1.367 3.545 22.219zm13.332-2.127l-3.971-24.885 11.199-1.787c2.773-.443 4.984-.139 6.634.91 1.674 1.045 2.711 2.824 3.112 5.336.359 2.252-.035 4.125-1.181 5.621-1.123 1.491-2.675 2.504-4.656 3.039l9.127 8.533-3.698.59-9.073-8.432-6.044.964 1.537 9.634-2.986.477zm9.236-14.087c3.697-.59 5.281-2.544 4.751-5.862-.525-3.295-2.637-4.647-6.334-4.057l-8.212 1.31 1.583 9.919 8.212-1.31zm16.655 9.956l-3.2.51 6.268-26.519 2.347-.374 14.209 23.252-3.2.51-4.412-7.316-10.096 1.611-1.916 8.326zm4.968-21.645l-2.411 10.482 7.963-1.27-5.552-9.212zm27.557 16.82c-2.133.34-4.164.105-6.092-.705-1.931-.834-3.561-2.142-4.891-3.923-1.309-1.808-2.156-3.921-2.542-6.338-.397-2.489-.253-4.784.432-6.886.709-2.106 1.844-3.831 3.404-5.173 1.58-1.37 3.448-2.227 5.605-2.571 2.536-.405 4.653-.233 6.352.517 1.724.746 3.191 1.873 4.404 3.38l-1.997 2.105c-2.048-2.784-4.826-3.896-8.334-3.336-1.588.253-2.966.91-4.133 1.972-1.144 1.057-1.972 2.417-2.484 4.078-.493 1.634-.581 3.447-.263 5.437.306 1.92.95 3.592 1.93 5.015 1.005 1.419 2.228 2.464 3.672 3.133a7.65 7.65 0 004.511.629c3.484-.556 5.764-2.488 6.841-5.795l2.577 1.303c-1.444 4.046-4.442 6.432-8.992 7.158zm24.557-4.283l-2.986.476-3.545-22.219-8.568 1.367-.425-2.666 20.121-3.21.426 2.666-8.568 1.367 3.545 22.219zm23.01-3.672l-3.199.511 6.268-26.519 2.346-.374 14.209 23.251-3.199.511-4.412-7.316-10.097 1.611-1.916 8.325zm4.968-21.645l-2.411 10.483 7.964-1.27-5.553-9.213zm27.344 16.855c-3.508.559-6.24-.038-8.197-1.791-1.937-1.781-3.213-4.604-3.83-8.467l-2.132-13.367 2.986-.476 2.206 13.829c.481 3.01 1.427 5.131 2.839 6.364 1.408 1.21 3.309 1.623 5.702 1.241 2.394-.382 4.072-1.366 5.034-2.954.958-1.611 1.197-3.921.717-6.931l-2.207-13.829 2.986-.477 2.133 13.367c.616 3.863.27 6.944-1.041 9.244-1.29 2.271-3.689 3.687-7.196 4.247zm16.057-2.927l-3.97-24.885 7.856-1.254c3.579-.571 6.633-.013 9.162 1.673 2.55 1.659 4.163 4.61 4.84 8.852.677 4.243.064 7.561-1.839 9.954-1.883 2.367-4.613 3.835-8.192 4.406l-7.857 1.254zm7.574-3.943c5.925-.945 8.367-4.677 7.327-11.194-1.04-6.518-4.522-9.304-10.447-8.358l-5.013.799 3.12 19.553 5.013-.8zm20.131-.478l-2.986.477-3.971-24.885 2.986-.477 3.971 24.885zm16.316-2.603l-2.986.477-3.545-22.219-8.568 1.367-.425-2.667 20.121-3.21.425 2.666-8.567 1.367 3.545 22.219zm21.872-3.49l-3.97-24.885 11.554-1.844c1.564-.249 2.94-.153 4.129.289 1.208.415 2.166 1.089 2.874 2.021.704.908 1.154 1.979 1.351 3.211.196 1.232.078 2.321-.354 3.265-.437.92-.933 1.619-1.488 2.096a6.193 6.193 0 013.089 1.768c.866.858 1.42 2.045 1.662 3.562s.096 2.889-.437 4.117c-.537 1.203-1.375 2.2-2.513 2.989-1.141.765-2.482 1.271-4.023 1.517l-11.874 1.894zm9.274-16.135c1.28-.204 2.25-.674 2.91-1.412.684-.741.914-1.81.691-3.209-.223-1.398-.775-2.343-1.656-2.834-.86-.519-1.93-.676-3.21-.472l-8.568 1.367 1.265 7.927 8.568-1.367zm2.068 11.591c1.73-.276 2.971-.875 3.723-1.797.776-.926 1.051-2.099.824-3.521-.227-1.423-.853-2.453-1.879-3.091-1.001-.642-2.367-.825-4.097-.549l-8.781 1.401 1.429 8.958 8.781-1.401zm21.444-.687l-2.986.476-1.521-9.527-10.947-14.002 3.413-.545 8.53 10.961 4.659-13.065 3.378-.539-6.041 16.749 1.515 9.492zm32.035-4.747c-2.3.367-4.463.141-6.489-.678-2.03-.843-3.734-2.15-5.11-3.924-1.357-1.8-2.224-3.886-2.602-6.256-.379-2.37-.201-4.61.531-6.72.753-2.137 1.965-3.91 3.636-5.319 1.667-1.432 3.65-2.332 5.949-2.699s4.465-.129 6.495.714c2.02.819 3.72 2.129 5.07 3.929 1.38 1.774 2.26 3.845 2.63 6.215.38 2.37.2 4.624-.56 6.761-.73 2.11-1.93 3.881-3.6 5.314-1.67 1.409-3.65 2.297-5.95 2.663zm-.427-2.666c1.757-.28 3.257-.97 4.517-2.07 1.26-1.123 2.15-2.518 2.69-4.183.53-1.689.65-3.47.35-5.342-.3-1.873-.96-3.517-1.99-4.932-1.03-1.44-2.32-2.486-3.86-3.14-1.54-.678-3.186-.876-4.94-.597-1.754.28-3.258.982-4.513 2.106-1.258 1.1-2.153 2.494-2.686 4.183-.536 1.666-.655 3.434-.356 5.307.298 1.872.964 3.528 1.995 4.967 1.028 1.416 2.313 2.463 3.855 3.14 1.538.654 3.185.841 4.938.561zm16.947-.335l-3.48.556 6.98-14.748-9.6-10.353 3.59-.573 7.41 8.077 4.64-10 3.45-.55-6.09 12.783 11.09 11.938-3.52.561-8.87-9.667-5.6 11.976zm31.15-4.604c-2.3.367-4.47.141-6.49-.678a12.355 12.355 0 01-5.11-3.924c-1.36-1.801-2.23-3.886-2.6-6.256-.38-2.37-.21-4.61.53-6.72.75-2.137 1.96-3.91 3.63-5.32 1.67-1.432 3.65-2.332 5.95-2.699 2.3-.366 4.46-.128 6.49.714 2.03.82 3.72 2.13 5.08 3.93 1.38 1.773 2.25 3.845 2.63 6.215.38 2.37.19 4.623-.56 6.761-.73 2.109-1.93 3.881-3.6 5.313-1.67 1.409-3.66 2.297-5.95 2.664zm-.43-2.667c1.75-.279 3.26-.969 4.52-2.069 1.25-1.124 2.15-2.519 2.68-4.184.54-1.689.65-3.469.36-5.342-.3-1.872-.97-3.516-1.99-4.932-1.04-1.44-2.32-2.486-3.86-3.14-1.54-.677-3.19-.876-4.94-.596-1.76.28-3.26.981-4.52 2.105-1.25 1.1-2.15 2.495-2.68 4.184-.54 1.665-.66 3.434-.36 5.306.3 1.872.97 3.528 2 4.968 1.02 1.415 2.31 2.462 3.85 3.14 1.54.653 3.19.84 4.94.56zm17.36-.401L1061 90.074l11.2-1.787c2.78-.442 4.99-.139 6.64.91 1.67 1.046 2.71 2.825 3.11 5.337.36 2.251-.04 4.125-1.18 5.62-1.13 1.492-2.68 2.505-4.66 3.04l9.13 8.532-3.7.59-9.07-8.431-6.05.964 1.54 9.634-2.99.476zm9.24-14.087c3.7-.59 5.28-2.544 4.75-5.862-.52-3.294-2.63-4.646-6.33-4.056l-8.21 1.31 1.58 9.919 8.21-1.311zm18.5 9.661l-2.98.477-3.97-24.885 2.98-.477 3.97 24.885zm17.05-2.355c-2.3.367-4.46.141-6.49-.678-2.03-.843-3.73-2.151-5.11-3.924-1.35-1.801-2.22-3.886-2.6-6.256-.38-2.37-.2-4.61.53-6.72.76-2.137 1.97-3.91 3.64-5.32 1.67-1.432 3.65-2.332 5.95-2.698 2.3-.367 4.46-.13 6.49.713 2.03.82 3.72 2.13 5.08 3.93 1.37 1.773 2.25 3.845 2.63 6.215.38 2.37.19 4.623-.56 6.761-.74 2.109-1.94 3.881-3.6 5.313-1.67 1.409-3.66 2.297-5.96 2.664zm-.42-2.666c1.75-.28 3.26-.97 4.52-2.07 1.25-1.124 2.15-2.519 2.68-4.184.53-1.689.65-3.47.35-5.342-.3-1.872-.96-3.516-1.99-4.932-1.03-1.44-2.31-2.486-3.85-3.14-1.54-.677-3.19-.876-4.95-.596-1.75.28-3.25.981-4.51 2.105-1.26 1.1-2.15 2.495-2.69 4.184-.53 1.665-.65 3.434-.35 5.306.3 1.872.96 3.528 1.99 4.968 1.03 1.415 2.32 2.462 3.86 3.14 1.54.653 3.18.84 4.94.561zm41.93-3.957c-2.25.359-4.39.165-6.4-.583-2-.775-3.55-2.058-4.66-3.85l2.44-1.812c.89 1.463 2.07 2.49 3.52 3.085 1.46.594 3.06.75 4.82.471 1.94-.31 3.4-.98 4.38-2.012 1-1.034 1.39-2.263 1.16-3.685-.16-.995-.52-1.751-1.09-2.268-.55-.52-1.38-.862-2.5-1.023-1.09-.166-2.59-.182-4.49-.05-2.81.182-5.05-.178-6.7-1.082-1.62-.906-2.6-2.367-2.92-4.382-.2-1.28-.02-2.5.55-3.66.59-1.163 1.51-2.161 2.76-2.993 1.28-.835 2.81-1.395 4.58-1.678 2.11-.337 4.01-.24 5.7.293 1.69.533 3.09 1.513 4.19 2.941l-2.14 2.128a6.778 6.778 0 00-3.11-2.347c-1.24-.483-2.65-.599-4.21-.35-1.85.296-3.26.898-4.23 1.806-.96.881-1.33 1.962-1.13 3.242.21 1.303.92 2.223 2.12 2.76 1.22.51 3.18.683 5.88.52 3.11-.18 5.41.182 6.92 1.084 1.53.899 2.46 2.426 2.81 4.583a6.705 6.705 0 01-.54 3.95c-.58 1.235-1.54 2.287-2.89 3.158-1.32.867-2.92 1.451-4.82 1.754zm17.41-3.143l-2.99.477-3.97-24.885 5.12-.817 11.35 19.734 4.65-22.287 5.12-.816 3.97 24.885-2.99.476-3.56-22.36-5.15 23.75-2.84.454-12.28-20.972 3.57 22.361zm30.37-4.845l-3.2.51 6.27-26.518 2.34-.375 14.21 23.252-3.2.51-4.41-7.316-10.1 1.611-1.91 8.326zm4.97-21.645l-2.41 10.483 7.96-1.271-5.55-9.212zm18.57 17.888l-3.97-24.885 11.2-1.787c2.78-.442 4.99-.14 6.64.91 1.67 1.045 2.71 2.824 3.11 5.336.36 2.252-.04 4.125-1.18 5.62-1.13 1.492-2.68 2.505-4.66 3.04l9.13 8.533-3.7.59-9.07-8.432-6.05.964 1.54 9.635-2.99.476zm9.24-14.087c3.7-.59 5.28-2.544 4.75-5.862-.52-3.294-2.64-4.647-6.33-4.057l-8.21 1.31 1.58 9.92 8.21-1.311zM1257 84.32l-2.99.476-3.54-22.219-8.57 1.367-.43-2.666 20.13-3.21.42 2.666-8.57 1.367L1257 84.32zm32.27-4.785c-2.13.34-4.16.105-6.09-.706-1.93-.834-3.56-2.141-4.89-3.922-1.31-1.808-2.16-3.921-2.54-6.338-.4-2.489-.26-4.784.43-6.887.71-2.106 1.84-3.83 3.4-5.172 1.58-1.37 3.45-2.228 5.61-2.572 2.53-.404 4.65-.232 6.35.518 1.72.746 3.19 1.872 4.41 3.38l-2 2.105c-2.05-2.784-4.83-3.896-8.34-3.336-1.58.253-2.96.91-4.13 1.971-1.14 1.058-1.97 2.417-2.48 4.079-.5 1.634-.58 3.446-.27 5.437.31 1.92.95 3.591 1.93 5.015 1.01 1.42 2.23 2.463 3.68 3.132 1.44.67 2.94.879 4.51.63 3.48-.557 5.76-2.488 6.84-5.795l2.58 1.302c-1.45 4.046-4.45 6.433-9 7.159zm24.88-3.97c-2.3.368-4.47.142-6.49-.677a12.35 12.35 0 01-5.11-3.924c-1.36-1.801-2.23-3.886-2.6-6.256-.38-2.37-.21-4.61.53-6.72.75-2.137 1.96-3.91 3.63-5.32 1.67-1.432 3.65-2.332 5.95-2.698 2.3-.367 4.47-.13 6.5.713 2.02.82 3.71 2.13 5.07 3.93 1.38 1.773 2.25 3.845 2.63 6.215.38 2.37.19 4.623-.56 6.76-.73 2.11-1.93 3.882-3.6 5.314-1.67 1.41-3.66 2.297-5.95 2.664zm-.43-2.666c1.75-.28 3.26-.97 4.52-2.07 1.25-1.123 2.15-2.517 2.69-4.183.53-1.689.64-3.47.35-5.342-.3-1.872-.97-3.516-1.99-4.932-1.04-1.44-2.32-2.486-3.86-3.14-1.54-.677-3.19-.876-4.94-.596-1.76.28-3.26.981-4.52 2.105-1.25 1.1-2.15 2.495-2.68 4.184-.54 1.665-.66 3.434-.36 5.306.3 1.873.97 3.528 2 4.968 1.03 1.415 2.31 2.462 3.85 3.14 1.54.653 3.19.84 4.94.56zm20.35-.877l-2.98.477-3.98-24.886 3.2-.51 16.15 17.766-3.17-19.837 2.99-.476 3.97 24.885-2.99.477-16.41-18.089 3.22 20.193zm32.5-5.185l-2.99.477-3.55-22.22-8.56 1.368-.43-2.666 20.12-3.21.43 2.665-8.57 1.367 3.55 22.22zm13.33-2.127l-3.97-24.885 11.2-1.787c2.77-.442 4.98-.139 6.63.91 1.67 1.046 2.71 2.824 3.11 5.337.36 2.251-.03 4.124-1.18 5.62-1.12 1.491-2.67 2.505-4.66 3.04l9.13 8.532-3.7.59-9.07-8.432-6.04.964 1.53 9.635-2.98.476zm9.23-14.087c3.7-.59 5.28-2.544 4.76-5.862-.53-3.294-2.64-4.647-6.34-4.057l-8.21 1.31 1.58 9.92 8.21-1.311zm16.66 9.956l-3.2.51 6.27-26.518 2.34-.375 14.21 23.252-3.2.51-4.41-7.316-10.1 1.611-1.91 8.326zm4.97-21.645l-2.41 10.483 7.96-1.27-5.55-9.213zm27.55 16.82c-2.13.34-4.16.105-6.09-.705-1.93-.834-3.56-2.142-4.89-3.922-1.31-1.809-2.16-3.922-2.54-6.339-.4-2.488-.25-4.784.43-6.886.71-2.106 1.84-3.83 3.4-5.173 1.58-1.37 3.45-2.227 5.61-2.571 2.54-.405 4.65-.232 6.35.517 1.73.746 3.19 1.873 4.41 3.38l-2 2.106c-2.05-2.784-4.83-3.897-8.34-3.337a7.87 7.87 0 00-4.13 1.972c-1.14 1.057-1.97 2.417-2.48 4.078-.5 1.634-.58 3.447-.27 5.438.31 1.92.95 3.59 1.93 5.014 1.01 1.42 2.23 2.464 3.68 3.133 1.44.669 2.94.878 4.51.629 3.48-.556 5.76-2.487 6.84-5.794l2.58 1.302c-1.45 4.046-4.45 6.432-9 7.158zm24.56-4.283l-2.99.477-3.54-22.22-8.57 1.368-.42-2.667 20.12-3.21.42 2.666-8.56 1.367 3.54 22.22zm23.01-3.671l-3.2.51 6.27-26.519 2.35-.374 14.2 23.252-3.19.51-4.42-7.316-10.09 1.61-1.92 8.327zm4.97-21.645l-2.41 10.482 7.96-1.27-5.55-9.212zm27.34 16.854c-3.51.56-6.24-.038-8.19-1.791-1.94-1.781-3.22-4.603-3.83-8.466l-2.14-13.367 2.99-.477 2.21 13.83c.48 3.01 1.42 5.13 2.83 6.364 1.41 1.209 3.31 1.622 5.71 1.24 2.39-.382 4.07-1.366 5.03-2.954.96-1.61 1.2-3.921.72-6.931l-2.21-13.83 2.99-.476 2.13 13.367c.62 3.864.27 6.945-1.04 9.244-1.29 2.271-3.69 3.687-7.2 4.247zm16.06-2.927l-3.97-24.885 7.86-1.254c3.57-.57 6.63-.013 9.16 1.674 2.55 1.659 4.16 4.61 4.84 8.852.67 4.242.06 7.56-1.84 9.954-1.88 2.366-4.61 3.834-8.19 4.406l-7.86 1.253zm7.57-3.942c5.93-.946 8.37-4.677 7.33-11.195-1.04-6.517-4.52-9.304-10.45-8.358l-5.01.8 3.12 19.552 5.01-.8zm20.13-.478l-2.98.476-3.97-24.885 2.98-.477 3.97 24.886zm16.32-2.604l-2.99.477-3.54-22.22-8.57 1.368-.42-2.666 20.12-3.211.42 2.666-8.56 1.367 3.54 22.22zm21.87-3.49l-3.97-24.885 11.56-1.843c1.56-.25 2.94-.154 4.13.289 1.2.414 2.16 1.088 2.87 2.02.7.908 1.15 1.979 1.35 3.211.2 1.233.08 2.32-.35 3.265-.44.92-.94 1.619-1.49 2.097a6.22 6.22 0 013.09 1.767c.86.858 1.42 2.046 1.66 3.562.24 1.517.1 2.89-.44 4.117-.53 1.203-1.37 2.2-2.51 2.989-1.14.765-2.48 1.271-4.02 1.517l-11.88 1.894zm9.28-16.134c1.28-.205 2.25-.675 2.91-1.412.68-.742.91-1.811.69-3.21-.23-1.398-.78-2.343-1.66-2.834-.86-.519-1.93-.676-3.21-.472l-8.57 1.367 1.27 7.928 8.57-1.367zm2.06 11.59c1.73-.275 2.98-.874 3.73-1.796.77-.926 1.05-2.1.82-3.522-.23-1.422-.85-2.453-1.88-3.09-1-.643-2.36-.826-4.09-.55l-8.79 1.401 1.43 8.959 8.78-1.401zm21.45-.687l-2.99.477-1.52-9.528-10.95-14.002 3.42-.544 8.53 10.96 4.66-13.065 3.37-.539-6.04 16.75 1.52 9.491zm32.03-4.747c-2.3.367-4.46.141-6.49-.678-2.03-.842-3.73-2.15-5.11-3.924-1.35-1.8-2.22-3.886-2.6-6.256-.38-2.37-.2-4.61.53-6.72.76-2.137 1.97-3.91 3.64-5.319 1.67-1.432 3.65-2.332 5.95-2.699 2.3-.367 4.46-.129 6.49.714 2.03.819 3.72 2.129 5.08 3.93 1.37 1.773 2.25 3.844 2.63 6.215.38 2.37.19 4.623-.56 6.76-.74 2.11-1.94 3.881-3.6 5.314-1.67 1.409-3.66 2.297-5.96 2.663zm-.42-2.666c1.75-.28 3.26-.97 4.52-2.07 1.25-1.123 2.15-2.518 2.68-4.183.53-1.689.65-3.47.35-5.342-.3-1.872-.96-3.516-1.99-4.932-1.03-1.44-2.31-2.486-3.85-3.14-1.54-.677-3.19-.876-4.95-.596-1.75.28-3.25.981-4.51 2.105-1.26 1.1-2.15 2.494-2.69 4.183-.53 1.666-.65 3.435-.35 5.307.3 1.872.96 3.528 1.99 4.968 1.03 1.415 2.32 2.462 3.86 3.14 1.54.653 3.18.84 4.94.56zm16.95-.335l-3.49.556 6.98-14.748-9.6-10.353 3.59-.572 7.42 8.076 4.64-10 3.44-.55-6.09 12.784 11.1 11.937-3.52.562-8.87-9.667-5.6 11.975zm31.14-4.604c-2.3.367-4.46.14-6.49-.678-2.03-.843-3.73-2.15-5.11-3.924-1.36-1.8-2.22-3.886-2.6-6.256-.38-2.37-.2-4.61.53-6.72.75-2.137 1.96-3.91 3.64-5.32 1.66-1.432 3.65-2.331 5.94-2.698 2.3-.367 4.47-.13 6.5.713 2.02.82 3.72 2.13 5.07 3.93 1.38 1.773 2.26 3.845 2.64 6.215.37 2.37.19 4.624-.57 6.76-.73 2.11-1.93 3.882-3.6 5.314-1.67 1.41-3.65 2.297-5.95 2.664zm-.43-2.666c1.76-.28 3.26-.97 4.52-2.07 1.26-1.124 2.15-2.518 2.69-4.184.53-1.689.65-3.47.35-5.342-.3-1.872-.96-3.516-1.99-4.932-1.03-1.44-2.32-2.486-3.86-3.14-1.54-.677-3.19-.876-4.94-.596-1.75.28-3.26.982-4.51 2.105-1.26 1.1-2.16 2.495-2.69 4.184-.54 1.665-.65 3.434-.36 5.306.3 1.873.97 3.529 2 4.968 1.03 1.416 2.31 2.462 3.86 3.14 1.53.654 3.18.84 4.93.56zm17.37-.401l-3.97-24.886 11.2-1.786c2.77-.443 4.98-.14 6.63.91 1.67 1.045 2.71 2.824 3.11 5.336.36 2.252-.03 4.125-1.18 5.62-1.12 1.492-2.67 2.505-4.65 3.04l9.12 8.532-3.7.59-9.07-8.431-6.04.964 1.53 9.634-2.98.477zm9.23-14.088c3.7-.59 5.29-2.543 4.76-5.862-.53-3.294-2.64-4.646-6.34-4.056l-8.21 1.31 1.58 9.919 8.21-1.31zm18.51 9.662l-2.99.476-3.97-24.885 2.99-.477 3.97 24.886zm17.05-2.356c-2.3.367-4.47.14-6.49-.678a12.35 12.35 0 01-5.11-3.924c-1.36-1.8-2.23-3.886-2.6-6.256-.38-2.37-.21-4.61.53-6.72.75-2.137 1.96-3.91 3.63-5.32 1.67-1.432 3.65-2.331 5.95-2.698 2.3-.367 4.47-.13 6.5.713 2.02.82 3.71 2.13 5.07 3.93 1.38 1.773 2.25 3.845 2.63 6.215.38 2.37.19 4.624-.56 6.76-.73 2.11-1.93 3.882-3.6 5.314-1.67 1.41-3.66 2.297-5.95 2.664zm-.43-2.666c1.75-.28 3.26-.97 4.52-2.07 1.25-1.124 2.15-2.518 2.69-4.184.53-1.689.64-3.47.35-5.342-.3-1.872-.97-3.516-1.99-4.932-1.04-1.439-2.32-2.486-3.86-3.14-1.54-.677-3.19-.876-4.94-.596-1.76.28-3.26.982-4.52 2.105-1.25 1.1-2.15 2.495-2.68 4.184-.54 1.665-.66 3.434-.36 5.306.3 1.873.97 3.529 2 4.968 1.03 1.416 2.31 2.462 3.85 3.14 1.54.654 3.19.84 4.94.56z" fill="#202020"/></g><g clip-path="url(#clip2_2742_33253)"><g filter="url(#filter0_bd_2742_33253)"><path fill="#FC6B1A" fill-opacity=".78" shape-rendering="crispEdges" d="M-149 93l1698.505 92.089-4.276 78.884-1698.506-92.089z"/></g><path d="M-189.417 143.245c-2.276-.123-4.321-.763-6.133-1.918-1.787-1.179-3.035-2.761-3.744-4.746l2.772-1.256c.561 1.617 1.49 2.869 2.788 3.757 1.298.887 2.834 1.379 4.607 1.475 1.965.107 3.534-.241 4.708-1.042 1.197-.801 1.834-1.92 1.912-3.358.055-1.006-.141-1.822-.588-2.447-.423-.624-1.165-1.133-2.225-1.527-1.036-.393-2.496-.724-4.38-.995-2.79-.415-4.897-1.238-6.32-2.469-1.399-1.23-2.044-2.863-1.934-4.9a5.996 5.996 0 011.306-3.463c.824-1.012 1.936-1.793 3.336-2.342 1.423-.548 3.034-.773 4.831-.676 2.133.116 3.969.612 5.508 1.489 1.538.876 2.696 2.129 3.473 3.757l-2.54 1.629a6.765 6.765 0 00-2.544-2.95c-1.114-.733-2.461-1.143-4.043-1.229-1.869-.101-3.375.19-4.518.873-1.117.66-1.711 1.638-1.781 2.932-.072 1.318.424 2.366 1.488 3.145 1.088.756 2.968 1.339 5.637 1.748 3.075.479 5.253 1.318 6.534 2.517 1.305 1.2 1.898 2.891 1.78 5.072a6.74 6.74 0 01-1.357 3.748c-.828 1.085-1.991 1.911-3.488 2.479-1.473.569-3.168.801-5.085.697zm17.681.599l-3.019-.164 1.364-25.163 5.176.28 6.937 21.684 9.24-20.806 5.176.28-1.364 25.163-3.02-.164 1.226-22.61-10.033 22.133-2.876-.156-7.581-23.088-1.226 22.611zm30.708 1.664l-3.235-.175 11.717-24.602 2.373.129 8.988 25.724-3.235-.175-2.771-8.082-10.209-.553-3.628 7.734zm9.419-20.111l-4.566 9.739 8.052.437-3.486-10.176zm14.39 21.402l1.365-25.163 11.323.614c2.804.152 4.902.915 6.293 2.288 1.416 1.375 2.055 3.332 1.917 5.873-.123 2.276-.903 4.025-2.34 5.245-1.411 1.221-3.142 1.884-5.19 1.99l7.122 10.264-3.738-.202-7.093-10.155-6.111-.332-.528 9.742-3.02-.164zm11.998-11.823c3.739.202 5.699-1.374 5.88-4.729.181-3.331-1.598-5.098-5.336-5.301l-8.304-.45-.544 10.029 8.304.451zm22.79 13.709l-3.019-.163 1.218-22.467-8.663-.47.146-2.696 20.346 1.103-.146 2.696-8.663-.47-1.218 22.467zm32.558 2.126c-2.157-.117-4.092-.774-5.806-1.973-1.712-1.222-3.03-2.844-3.954-4.865-.899-2.044-1.282-4.288-1.15-6.732.137-2.517.762-4.73 1.875-6.641 1.137-1.909 2.61-3.355 4.418-4.339 1.833-1.006 3.84-1.45 6.02-1.332 2.565.139 4.598.754 6.102 1.845 1.527 1.093 2.724 2.503 3.592 4.233l-2.396 1.637c-1.416-3.154-3.897-4.826-7.444-5.019-1.605-.087-3.09.265-4.455 1.057-1.341.792-2.437 1.947-3.289 3.463-.826 1.493-1.293 3.246-1.403 5.259-.105 1.942.172 3.711.83 5.309.683 1.599 1.659 2.878 2.929 3.836a7.643 7.643 0 004.277 1.566c3.523.191 6.16-1.216 7.908-4.222l2.245 1.816c-2.265 3.651-5.698 5.352-10.299 5.102zm25.151 1.364c-2.324-.126-4.39-.803-6.199-2.031-1.807-1.251-3.196-2.889-4.168-4.913-.947-2.046-1.355-4.267-1.225-6.664.13-2.396.775-4.548 1.936-6.456 1.187-1.931 2.745-3.409 4.675-4.434 1.932-1.049 4.06-1.51 6.384-1.384 2.325.126 4.39.815 6.198 2.066 1.808 1.228 3.185 2.865 4.132 4.911.972 2.024 1.393 4.234 1.263 6.63-.13 2.397-.788 4.56-1.974 6.491-1.162 1.908-2.708 3.386-4.64 4.435-1.93 1.025-4.057 1.475-6.382 1.349zm.146-2.696c1.774.096 3.391-.261 4.853-1.071 1.464-.834 2.633-2.008 3.508-3.523.877-1.539 1.367-3.255 1.47-5.148.102-1.894-.2-3.64-.906-5.241-.706-1.625-1.741-2.919-3.107-3.882-1.364-.987-2.933-1.529-4.707-1.625-1.773-.096-3.392.273-4.855 1.107-1.462.81-2.631 1.984-3.508 3.523-.875 1.515-1.364 3.219-1.467 5.112-.102 1.893.199 3.652.904 5.277.706 1.6 1.742 2.894 3.106 3.882 1.366.963 2.936 1.493 4.71 1.589zm20.08 3.432l-3.02-.164 1.364-25.163 3.235.176 12.033 20.769 1.088-20.058 3.02.164-1.365 25.163-3.02-.164-12.229-21.141-1.107 20.418zm32.856 1.781l-3.02-.163 1.218-22.467-8.663-.47.146-2.696 20.347 1.103-.147 2.696-8.663-.47-1.218 22.467zm13.48.731l1.365-25.163 11.323.614c2.804.152 4.902.915 6.294 2.288 1.415 1.375 2.054 3.332 1.917 5.873-.124 2.276-.904 4.025-2.34 5.245-1.412 1.221-3.142 1.884-5.191 1.989l7.123 10.265-3.739-.203-7.093-10.154-6.11-.332-.529 9.742-3.02-.164zm11.998-11.824c3.739.203 5.7-1.373 5.881-4.728.18-3.331-1.598-5.098-5.337-5.301l-8.304-.45-.543 10.029 8.303.45zm14.183 13.244l-3.236-.176 11.718-24.602 2.372.129 8.989 25.724-3.236-.175-2.77-8.082-10.21-.553-3.627 7.735zm9.418-20.112l-4.566 9.739 8.052.437-3.486-10.176zm23.393 22.251c-2.157-.117-4.092-.775-5.806-1.973-1.712-1.223-3.03-2.844-3.954-4.865-.9-2.044-1.282-4.288-1.15-6.732.137-2.517.761-4.73 1.875-6.641 1.137-1.909 2.61-3.355 4.417-4.339 1.833-1.006 3.84-1.45 6.021-1.332 2.564.139 4.598.754 6.101 1.845 1.527 1.092 2.724 2.503 3.592 4.233l-2.396 1.636c-1.415-3.153-3.896-4.826-7.443-5.018-1.606-.087-3.091.265-4.456 1.056-1.34.793-2.437 1.947-3.288 3.463-.826 1.494-1.294 3.247-1.403 5.26-.105 1.941.171 3.711.83 5.309.682 1.599 1.658 2.878 2.928 3.836a7.643 7.643 0 004.278 1.566c3.523.191 6.159-1.216 7.908-4.222l2.245 1.816c-2.265 3.651-5.698 5.352-10.299 5.102zm24.908.99l-3.019-.164 1.218-22.467-8.663-.469.146-2.696 20.346 1.103-.146 2.696-8.664-.47-1.218 22.467zm23.267 1.261l-3.235-.175 11.717-24.602 2.373.129 8.988 25.724-3.235-.175-2.771-8.082-10.209-.553-3.628 7.734zm9.419-20.111l-4.566 9.739 8.052.437-3.486-10.176zm23.176 22.239c-3.546-.192-6.091-1.352-7.634-3.478-1.518-2.15-2.171-5.177-1.96-9.084l.733-13.516 3.02.164-.758 13.983c-.165 3.044.312 5.317 1.433 6.82 1.121 1.479 2.892 2.284 5.313 2.415 2.42.131 4.268-.477 5.543-1.826 1.276-1.373 1.996-3.582 2.161-6.625l.759-13.984 3.019.164-.733 13.516c-.211 3.907-1.2 6.845-2.965 8.817-1.74 1.948-4.384 2.827-7.931 2.634zm16.314.524l1.364-25.163 7.945.431c3.618.196 6.486 1.385 8.603 3.567 2.143 2.159 3.097 5.383 2.865 9.673-.233 4.29-1.531 7.404-3.896 9.343-2.339 1.916-5.318 2.776-8.936 2.58l-7.945-.431zm8.234-2.257c5.992.324 9.166-2.808 9.523-9.399.358-6.59-2.459-10.047-8.451-10.372l-5.068-.275-1.072 19.771 5.068.275zm19.78 3.776l-3.019-.164 1.364-25.163 3.02.164-1.365 25.163zm16.498.895l-3.019-.164 1.218-22.467-8.663-.47.146-2.696 20.346 1.103-.146 2.696-8.664-.469-1.218 22.467zm22.117 1.199l1.364-25.163 11.683.633c1.582.086 2.907.47 3.975 1.153 1.094.66 1.889 1.52 2.384 2.581.497 1.036.711 2.177.644 3.424-.068 1.246-.413 2.285-1.034 3.116-.621.808-1.253 1.386-1.897 1.736a6.195 6.195 0 012.647 2.379c.666 1.021.957 2.299.874 3.833-.084 1.534-.515 2.844-1.295 3.931-.779 1.064-1.808 1.861-3.086 2.393-1.278.507-2.695.719-4.253.635l-12.006-.651zm12.466-13.818c1.294.07 2.342-.185 3.142-.767.825-.58 1.276-1.577 1.352-2.991.077-1.414-.263-2.454-1.02-3.12-.732-.688-1.745-1.068-3.039-1.138l-8.663-.47-.435 8.017 8.663.469zm-.421 11.767c1.749.095 3.089-.229 4.018-.972.954-.742 1.469-1.831 1.547-3.269.078-1.438-.317-2.577-1.184-3.417-.844-.839-2.141-1.306-3.89-1.401l-8.879-.481-.491 9.058 8.879.482zm21.106 3.848l-3.019-.164.522-9.634-7.749-15.995 3.451.188 6.027 12.512 7.309-11.789 3.415.185-9.435 15.099-.521 9.598zm32.315 2.113c-2.325-.126-4.391-.803-6.199-2.031-1.807-1.252-3.196-2.889-4.168-4.913-.947-2.046-1.355-4.267-1.225-6.664.13-2.396.775-4.549 1.936-6.457 1.186-1.93 2.745-3.408 4.675-4.433 1.932-1.049 4.06-1.51 6.384-1.384 2.325.126 4.391.814 6.198 2.066 1.808 1.228 3.185 2.865 4.132 4.911.972 2.024 1.393 4.234 1.263 6.63-.13 2.397-.788 4.56-1.975 6.491-1.161 1.908-2.707 3.386-4.639 4.435-1.93 1.025-4.057 1.475-6.382 1.349zm.146-2.696c1.774.096 3.391-.261 4.853-1.071 1.464-.834 2.633-2.009 3.508-3.524.877-1.538 1.366-3.254 1.469-5.148.103-1.893-.199-3.64-.906-5.24-.705-1.625-1.74-2.919-3.106-3.882-1.364-.987-2.933-1.529-4.707-1.625-1.773-.097-3.392.272-4.855 1.106-1.462.81-2.631 1.985-3.508 3.524-.875 1.515-1.364 3.219-1.467 5.112-.102 1.893.199 3.652.904 5.276.706 1.601 1.742 2.895 3.106 3.882 1.366.964 2.936 1.493 4.709 1.59zm16.64 3.245l-3.523-.191 9.932-12.945-7.201-12.144 3.63.197 5.544 9.458 6.642-8.797 3.487.189-8.647 11.212 8.325 14.007-3.558-.193-6.633-11.319-7.998 10.526zm31.413 2.064c-2.325-.126-4.391-.803-6.199-2.031-1.807-1.251-3.197-2.889-4.168-4.913-.947-2.046-1.355-4.267-1.225-6.664.129-2.396.775-4.548 1.936-6.456 1.186-1.931 2.744-3.409 4.675-4.434 1.931-1.049 4.059-1.51 6.384-1.384 2.325.126 4.39.815 6.197 2.066 1.808 1.228 3.186 2.865 4.132 4.911.972 2.024 1.393 4.234 1.263 6.63-.13 2.397-.788 4.56-1.974 6.491-1.161 1.908-2.707 3.386-4.639 4.435-1.93 1.025-4.058 1.475-6.382 1.349zm.146-2.696c1.773.096 3.391-.261 4.853-1.071 1.463-.834 2.633-2.008 3.508-3.523.877-1.539 1.366-3.255 1.469-5.148.102-1.894-.199-3.64-.906-5.241-.705-1.625-1.74-2.919-3.106-3.882-1.365-.987-2.934-1.529-4.707-1.625-1.773-.096-3.392.273-4.855 1.107-1.462.81-2.631 1.984-3.508 3.523-.875 1.515-1.364 3.219-1.467 5.112-.103 1.893.199 3.652.904 5.277.706 1.6 1.742 2.894 3.106 3.881 1.366.964 2.936 1.494 4.709 1.59zm17.059 3.268l1.364-25.163 11.324.614c2.804.152 4.901.915 6.293 2.288 1.416 1.375 2.055 3.332 1.917 5.872-.123 2.277-.903 4.025-2.339 5.245-1.413 1.222-3.143 1.885-5.192 1.99l7.123 10.265-3.738-.203-7.093-10.155-6.111-.331-.528 9.742-3.02-.164zm11.998-11.824c3.738.203 5.699-1.373 5.881-4.728.18-3.331-1.599-5.098-5.337-5.301l-8.304-.45-.544 10.029 8.304.45zm16.051 13.345l-3.019-.164 1.364-25.163 3.02.164-1.365 25.163zm17.162 1.291c-2.325-.126-4.391-.803-6.199-2.031-1.807-1.251-3.196-2.889-4.168-4.913-.947-2.046-1.355-4.267-1.225-6.664.13-2.396.775-4.548 1.936-6.456 1.186-1.931 2.745-3.409 4.675-4.434 1.932-1.049 4.06-1.51 6.384-1.384 2.325.126 4.391.815 6.197 2.066 1.809 1.228 3.186 2.865 4.133 4.911.972 2.024 1.392 4.234 1.263 6.63-.13 2.397-.788 4.56-1.975 6.491-1.161 1.908-2.707 3.386-4.639 4.435-1.93 1.025-4.057 1.475-6.382 1.349zm.146-2.696c1.774.096 3.391-.261 4.853-1.071 1.464-.834 2.633-2.008 3.508-3.523.877-1.539 1.366-3.255 1.469-5.148.103-1.894-.199-3.64-.906-5.241-.705-1.625-1.74-2.919-3.106-3.882-1.365-.987-2.934-1.529-4.707-1.625-1.773-.096-3.392.273-4.855 1.107-1.462.81-2.631 1.984-3.508 3.523-.875 1.515-1.364 3.219-1.467 5.112-.102 1.893.199 3.652.904 5.277.706 1.6 1.742 2.894 3.106 3.882 1.366.963 2.936 1.493 4.709 1.589zm41.824 4.971c-2.276-.123-4.321-.763-6.133-1.918-1.787-1.179-3.035-2.761-3.745-4.746l2.773-1.256c.561 1.617 1.49 2.869 2.788 3.757 1.298.887 2.834 1.379 4.607 1.475 1.965.107 3.534-.241 4.707-1.043 1.198-.8 1.835-1.919 1.913-3.357.055-1.006-.141-1.822-.588-2.447-.423-.624-1.165-1.133-2.225-1.527-1.036-.393-2.496-.724-4.381-.995-2.789-.415-4.896-1.238-6.319-2.469-1.4-1.23-2.044-2.863-1.934-4.9a5.996 5.996 0 011.306-3.463c.824-1.013 1.936-1.793 3.335-2.342 1.424-.548 3.035-.773 4.832-.676 2.133.116 3.969.612 5.508 1.488 1.538.877 2.696 2.13 3.473 3.758l-2.54 1.629a6.765 6.765 0 00-2.544-2.95c-1.114-.734-2.461-1.143-4.043-1.229-1.869-.101-3.375.19-4.518.873-1.117.66-1.711 1.638-1.781 2.932-.072 1.318.424 2.366 1.488 3.145 1.088.756 2.968 1.338 5.637 1.748 3.075.479 5.253 1.318 6.534 2.517 1.305 1.2 1.898 2.891 1.78 5.072a6.74 6.74 0 01-1.357 3.748c-.828 1.085-1.991 1.911-3.488 2.479-1.473.569-3.168.801-5.085.697zm17.681.599l-3.019-.164 1.364-25.163 5.176.28 6.937 21.684 9.24-20.807 5.176.281-1.364 25.163-3.02-.164 1.226-22.61-10.033 22.133-2.876-.156-7.581-23.088-1.226 22.611zm30.708 1.664l-3.235-.175 11.717-24.602 2.372.129 8.989 25.724-3.235-.175-2.771-8.082-10.209-.553-3.628 7.734zm9.419-20.111l-4.566 9.739 8.052.436-3.486-10.175zm14.39 21.402l1.365-25.163 11.323.614c2.804.152 4.902.915 6.293 2.288 1.416 1.375 2.055 3.332 1.917 5.873-.123 2.276-.903 4.025-2.339 5.245-1.412 1.221-3.143 1.884-5.192 1.99l7.123 10.264-3.738-.202-7.093-10.155-6.111-.332-.528 9.742-3.02-.164zm11.998-11.824c3.739.203 5.699-1.373 5.881-4.728.18-3.331-1.599-5.098-5.337-5.301l-8.304-.45-.544 10.029 8.304.45zm22.79 13.71l-3.019-.163 1.218-22.467-8.663-.47.146-2.696 20.346 1.103-.146 2.696-8.663-.47-1.219 22.467zm32.558 2.126c-2.157-.117-4.092-.775-5.806-1.973-1.712-1.223-3.03-2.844-3.954-4.865-.899-2.044-1.282-4.288-1.149-6.732.136-2.517.761-4.73 1.874-6.641 1.137-1.909 2.61-3.355 4.417-4.339 1.834-1.006 3.841-1.45 6.021-1.332 2.565.139 4.598.754 6.101 1.845 1.528 1.092 2.725 2.503 3.593 4.233l-2.397 1.637c-1.415-3.154-3.896-4.826-7.443-5.019-1.605-.087-3.091.265-4.456 1.057-1.34.792-2.436 1.946-3.288 3.463-.826 1.493-1.293 3.246-1.403 5.259-.105 1.942.172 3.711.83 5.309.683 1.599 1.659 2.878 2.929 3.836a7.643 7.643 0 004.277 1.566c3.523.191 6.159-1.216 7.908-4.222l2.245 1.816c-2.265 3.651-5.698 5.352-10.299 5.102zm25.151 1.364c-2.324-.126-4.391-.803-6.199-2.031-1.807-1.251-3.196-2.889-4.168-4.913-.947-2.046-1.355-4.267-1.225-6.664.13-2.396.775-4.548 1.936-6.456 1.186-1.931 2.745-3.409 4.675-4.434 1.932-1.049 4.06-1.51 6.384-1.384 2.325.126 4.391.815 6.198 2.066 1.808 1.228 3.185 2.865 4.132 4.911.972 2.024 1.393 4.234 1.263 6.63-.13 2.397-.788 4.56-1.975 6.491-1.161 1.908-2.707 3.386-4.639 4.435-1.93 1.025-4.057 1.475-6.382 1.349zm.146-2.696c1.774.096 3.391-.261 4.853-1.071 1.464-.834 2.633-2.009 3.508-3.523.877-1.539 1.366-3.255 1.469-5.148.103-1.894-.199-3.641-.905-5.241-.706-1.625-1.741-2.919-3.107-3.882-1.364-.987-2.933-1.529-4.707-1.625-1.773-.096-3.392.273-4.855 1.107-1.462.81-2.631 1.984-3.508 3.523-.875 1.515-1.364 3.219-1.467 5.112-.102 1.893.199 3.652.904 5.277.706 1.6 1.742 2.894 3.106 3.881 1.366.964 2.936 1.494 4.709 1.59zm20.079 3.432l-3.02-.164 1.365-25.163 3.235.175 12.033 20.77 1.088-20.058 3.019.164-1.364 25.163-3.02-.164-12.229-21.141-1.107 20.418zm32.857 1.781l-3.02-.164 1.218-22.467-8.663-.469.146-2.696 20.346 1.103-.146 2.696-8.663-.47-1.218 22.467zm13.481.731l1.364-25.163 11.323.614c2.804.152 4.902.915 6.294 2.288 1.415 1.375 2.054 3.332 1.917 5.872-.124 2.277-.904 4.025-2.34 5.245-1.412 1.222-3.142 1.885-5.191 1.99l7.123 10.265-3.739-.203-7.093-10.155-6.111-.331-.528 9.742-3.019-.164zm11.997-11.824c3.739.203 5.699-1.373 5.881-4.728.181-3.331-1.598-5.098-5.337-5.301l-8.304-.45-.543 10.029 8.303.45zm14.183 13.244l-3.236-.176 11.717-24.602 2.373.129 8.988 25.724-3.235-.175-2.77-8.082-10.209-.553-3.628 7.735zm9.418-20.112l-4.566 9.739 8.052.437-3.486-10.176zm23.393 22.251c-2.157-.117-4.092-.775-5.806-1.973-1.712-1.223-3.031-2.844-3.955-4.865-.898-2.044-1.281-4.288-1.149-6.733.137-2.516.761-4.729 1.875-6.64 1.137-1.909 2.609-3.355 4.417-4.339 1.833-1.006 3.84-1.45 6.021-1.332 2.564.139 4.598.754 6.101 1.845 1.527 1.092 2.724 2.503 3.592 4.233l-2.396 1.636c-1.415-3.153-3.897-4.826-7.443-5.018-1.606-.087-3.091.265-4.456 1.056-1.341.793-2.437 1.947-3.288 3.463-.826 1.494-1.294 3.247-1.403 5.26-.105 1.941.171 3.711.83 5.309.682 1.599 1.658 2.878 2.928 3.836a7.643 7.643 0 004.278 1.566c3.523.191 6.159-1.216 7.908-4.222l2.245 1.816c-2.265 3.651-5.698 5.351-10.299 5.102zm24.908.99l-3.019-.164 1.218-22.467-8.663-.469.146-2.697 20.346 1.104-.146 2.696-8.664-.47-1.218 22.467zm23.267 1.261l-3.235-.175 11.717-24.602 2.372.129 8.989 25.724-3.235-.175-2.771-8.082-10.209-.554-3.628 7.735zm9.419-20.111l-4.566 9.739 8.052.436-3.486-10.175zm23.176 22.239c-3.546-.192-6.091-1.352-7.634-3.478-1.518-2.15-2.171-5.177-1.96-9.084l.733-13.516 3.02.164-.758 13.983c-.165 3.044.312 5.317 1.433 6.82 1.121 1.479 2.892 2.284 5.313 2.415 2.42.131 4.268-.478 5.543-1.826 1.276-1.373 1.996-3.582 2.161-6.625l.759-13.984 3.019.164-.733 13.516c-.211 3.907-1.2 6.845-2.965 8.817-1.74 1.948-4.384 2.826-7.931 2.634zm16.314.524l1.364-25.163 7.945.431c3.618.196 6.486 1.385 8.603 3.567 2.142 2.159 3.097 5.383 2.865 9.673-.233 4.29-1.531 7.404-3.896 9.343-2.339 1.916-5.318 2.776-8.937 2.58l-7.944-.431zm8.234-2.257c5.992.324 9.166-2.808 9.523-9.399.357-6.59-2.459-10.048-8.451-10.372l-5.068-.275-1.072 19.771 5.068.275zm19.78 3.776l-3.019-.164 1.364-25.163 3.019.164-1.364 25.163zm16.498.894l-3.019-.163 1.218-22.467-8.663-.47.146-2.696 20.346 1.103-.146 2.696-8.664-.47-1.218 22.467zm22.117 1.2l1.364-25.163 11.683.633c1.582.086 2.907.47 3.975 1.153 1.094.66 1.889 1.52 2.384 2.581.497 1.036.711 2.177.644 3.424-.068 1.246-.413 2.285-1.035 3.116-.62.808-1.252 1.386-1.896 1.736a6.195 6.195 0 012.647 2.379c.665 1.021.957 2.299.874 3.833-.084 1.533-.515 2.844-1.295 3.931-.779 1.064-1.808 1.861-3.086 2.393-1.278.507-2.695.719-4.253.635l-12.006-.651zm12.466-13.818c1.294.07 2.342-.185 3.142-.767.825-.58 1.276-1.577 1.352-2.991.077-1.414-.263-2.454-1.02-3.12-.732-.688-1.745-1.068-3.039-1.138l-8.664-.47-.434 8.017 8.663.469zm-.421 11.767c1.749.094 3.088-.229 4.018-.972.954-.742 1.469-1.831 1.547-3.269.078-1.438-.317-2.577-1.184-3.417-.844-.839-2.141-1.306-3.89-1.401l-8.879-.481-.491 9.058 8.879.482zm21.106 3.848l-3.019-.164.522-9.634-7.749-15.995 3.451.188 6.027 12.512 7.309-11.789 3.415.185-9.435 15.099-.521 9.598zm32.311 2.113c-2.321-.127-4.387-.803-6.195-2.031-1.807-1.252-3.196-2.889-4.168-4.913-.947-2.046-1.355-4.268-1.225-6.664.13-2.397.775-4.549 1.936-6.457 1.186-1.93 2.745-3.408 4.675-4.433 1.932-1.049 4.057-1.511 6.387-1.384 2.32.126 4.39.814 6.19 2.066 1.81 1.228 3.19 2.865 4.14 4.911.97 2.024 1.39 4.234 1.26 6.63-.13 2.397-.79 4.56-1.97 6.491-1.17 1.908-2.71 3.386-4.64 4.435-1.93 1.025-4.06 1.475-6.39 1.349zm.15-2.697c1.77.097 3.39-.26 4.85-1.07 1.47-.834 2.64-2.009 3.51-3.524.88-1.538 1.37-3.254 1.47-5.148.1-1.893-.2-3.64-.91-5.24-.7-1.625-1.74-2.919-3.1-3.882-1.37-.988-2.94-1.529-4.71-1.625-1.77-.097-3.391.272-4.854 1.106-1.462.81-2.631 1.985-3.508 3.524-.875 1.514-1.364 3.218-1.467 5.112-.102 1.893.199 3.652.904 5.276.706 1.601 1.742 2.895 3.106 3.882 1.366.964 2.939 1.493 4.709 1.589zm16.64 3.246l-3.52-.191 9.93-12.945-7.2-12.144 3.63.197 5.54 9.458 6.64-8.797 3.49.189-8.65 11.212 8.33 14.007-3.56-.193-6.63-11.319-8 10.526zm31.41 2.064c-2.32-.126-4.39-.803-6.2-2.031-1.8-1.252-3.19-2.889-4.16-4.913-.95-2.046-1.36-4.267-1.23-6.664.13-2.396.78-4.549 1.94-6.456 1.18-1.931 2.74-3.409 4.67-4.434 1.93-1.049 4.06-1.51 6.39-1.384 2.32.126 4.39.815 6.19 2.066 1.81 1.228 3.19 2.865 4.14 4.911.97 2.024 1.39 4.234 1.26 6.63-.13 2.397-.79 4.56-1.98 6.491-1.16 1.908-2.7 3.386-4.63 4.435-1.94 1.025-4.06 1.475-6.39 1.349zm.15-2.696c1.77.096 3.39-.261 4.85-1.071 1.47-.834 2.63-2.009 3.51-3.523.88-1.539 1.37-3.255 1.47-5.148.1-1.894-.2-3.641-.91-5.241-.7-1.625-1.74-2.919-3.1-3.882-1.37-.987-2.94-1.529-4.71-1.625-1.77-.096-3.39.273-4.86 1.107-1.46.81-2.63 1.984-3.5 3.523-.88 1.515-1.37 3.219-1.47 5.112-.1 1.893.2 3.652.9 5.277.71 1.6 1.75 2.894 3.11 3.881 1.37.964 2.94 1.494 4.71 1.59zm17.06 3.268l1.36-25.163 11.33.614c2.8.152 4.9.915 6.29 2.288 1.41 1.375 2.05 3.332 1.92 5.872-.13 2.277-.91 4.025-2.34 5.245-1.42 1.222-3.15 1.885-5.19 1.99l7.12 10.265-3.74-.203-7.09-10.155-6.11-.331-.53 9.742-3.02-.164zm12-11.824c3.73.203 5.69-1.373 5.88-4.728.18-3.331-1.6-5.098-5.34-5.301l-8.3-.45-.55 10.029 8.31.45zm16.05 13.345l-3.02-.164 1.36-25.163 3.02.164-1.36 25.163zm17.16 1.291c-2.33-.126-4.39-.803-6.2-2.031-1.81-1.251-3.2-2.889-4.17-4.913-.94-2.046-1.35-4.267-1.22-6.664.13-2.396.77-4.548 1.93-6.456 1.19-1.931 2.75-3.409 4.68-4.434 1.93-1.049 4.06-1.51 6.38-1.384 2.33.126 4.39.815 6.2 2.066 1.81 1.228 3.18 2.865 4.13 4.911.97 2.024 1.39 4.234 1.26 6.63-.13 2.397-.78 4.56-1.97 6.491a12.127 12.127 0 01-4.64 4.435c-1.93 1.025-4.06 1.475-6.38 1.349zm.15-2.696c1.77.096 3.39-.261 4.85-1.071 1.46-.834 2.63-2.009 3.51-3.523.87-1.539 1.36-3.255 1.46-5.148.11-1.894-.19-3.641-.9-5.241-.71-1.625-1.74-2.919-3.11-3.882-1.36-.987-2.93-1.529-4.7-1.625-1.78-.096-3.4.273-4.86 1.107-1.46.81-2.63 1.984-3.51 3.523-.87 1.515-1.36 3.219-1.46 5.112-.11 1.893.19 3.652.9 5.277.71 1.6 1.74 2.894 3.11 3.881 1.36.964 2.93 1.494 4.71 1.59zm41.82 4.971c-2.28-.123-4.32-.763-6.13-1.918-1.79-1.179-3.04-2.761-3.75-4.746l2.77-1.256c.56 1.617 1.49 2.869 2.79 3.757 1.3.887 2.84 1.379 4.61 1.475 1.96.107 3.53-.241 4.71-1.043 1.19-.8 1.83-1.919 1.91-3.357.05-1.006-.14-1.822-.59-2.447-.42-.624-1.16-1.133-2.22-1.527-1.04-.393-2.5-.724-4.38-.995-2.79-.415-4.9-1.239-6.32-2.469-1.4-1.23-2.05-2.863-1.94-4.9a5.991 5.991 0 011.31-3.463c.82-1.013 1.93-1.794 3.33-2.343 1.43-.547 3.04-.772 4.84-.675 2.13.116 3.96.612 5.5 1.488 1.54.877 2.7 2.13 3.48 3.758l-2.54 1.629a6.773 6.773 0 00-2.55-2.95c-1.11-.734-2.46-1.143-4.04-1.229-1.87-.101-3.38.19-4.52.873-1.12.66-1.71 1.638-1.78 2.932-.07 1.318.42 2.366 1.49 3.145 1.09.756 2.97 1.338 5.64 1.748 3.07.479 5.25 1.318 6.53 2.517 1.3 1.2 1.9 2.891 1.78 5.072a6.767 6.767 0 01-1.36 3.748c-.83 1.085-1.99 1.911-3.49 2.479-1.47.569-3.16.801-5.08.697zm17.68.598l-3.02-.163 1.36-25.163 5.18.28 6.94 21.684 9.24-20.807 5.17.281-1.36 25.163-3.02-.164 1.23-22.61-10.04 22.133-2.87-.156-7.58-23.088-1.23 22.61zm30.71 1.665l-3.24-.175 11.72-24.602 2.37.129 8.99 25.724-3.23-.175-2.77-8.082-10.21-.554-3.63 7.735zm9.42-20.111l-4.57 9.739 8.05.436-3.48-10.175zm14.39 21.402l1.36-25.163 11.32.614c2.81.152 4.91.915 6.3 2.288 1.41 1.375 2.05 3.332 1.92 5.873-.13 2.276-.91 4.025-2.34 5.245-1.42 1.221-3.15 1.884-5.2 1.989l7.13 10.265-3.74-.203-7.09-10.154-6.12-.332-.52 9.742-3.02-.164zm11.99-11.824c3.74.203 5.7-1.373 5.89-4.728.18-3.331-1.6-5.098-5.34-5.301l-8.31-.45-.54 10.029 8.3.45zm22.8 13.71l-3.02-.163 1.21-22.467-8.66-.47.15-2.696 20.34 1.103-.14 2.696-8.67-.47-1.21 22.467zm32.55 2.126c-2.15-.117-4.09-.775-5.8-1.973-1.71-1.223-3.03-2.844-3.96-4.865-.9-2.044-1.28-4.288-1.15-6.732.14-2.517.76-4.73 1.88-6.641 1.14-1.909 2.61-3.355 4.42-4.339 1.83-1.006 3.84-1.45 6.02-1.332 2.56.139 4.59.754 6.1 1.845 1.52 1.092 2.72 2.503 3.59 4.233l-2.4 1.636c-1.41-3.153-3.89-4.826-7.44-5.018-1.61-.087-3.09.265-4.46 1.056-1.34.793-2.43 1.947-3.28 3.464-.83 1.493-1.3 3.246-1.41 5.259-.1 1.941.17 3.711.83 5.309.69 1.599 1.66 2.878 2.93 3.836 1.27.958 2.7 1.48 4.28 1.566 3.52.191 6.16-1.216 7.91-4.222l2.24 1.816c-2.26 3.651-5.7 5.352-10.3 5.102zm25.15 1.364c-2.32-.126-4.39-.803-6.2-2.031-1.8-1.252-3.19-2.889-4.16-4.913-.95-2.046-1.36-4.267-1.23-6.664.13-2.396.78-4.549 1.94-6.456 1.18-1.931 2.74-3.409 4.67-4.434 1.93-1.049 4.06-1.51 6.39-1.384 2.32.126 4.39.815 6.19 2.066 1.81 1.228 3.19 2.865 4.14 4.911.97 2.024 1.39 4.234 1.26 6.63-.13 2.397-.79 4.56-1.97 6.491-1.17 1.908-2.71 3.386-4.64 4.435-1.93 1.025-4.06 1.475-6.39 1.349zm.15-2.696c1.77.096 3.39-.261 4.85-1.071 1.47-.834 2.64-2.009 3.51-3.523.88-1.539 1.37-3.255 1.47-5.148.1-1.894-.2-3.641-.91-5.241-.7-1.625-1.74-2.919-3.1-3.882-1.37-.987-2.94-1.529-4.71-1.625-1.77-.096-3.39.273-4.85 1.107-1.47.81-2.64 1.984-3.51 3.523-.88 1.515-1.37 3.219-1.47 5.112-.1 1.893.2 3.652.9 5.277.71 1.6 1.75 2.894 3.11 3.881 1.37.964 2.94 1.494 4.71 1.59zm20.08 3.432l-3.02-.164 1.36-25.163 3.24.175 12.03 20.77 1.09-20.058 3.02.163-1.37 25.164-3.01-.164-12.23-21.141-1.11 20.418zm32.86 1.781l-3.02-.164 1.21-22.467-8.66-.469.15-2.696 20.34 1.103-.14 2.696-8.67-.47-1.21 22.467zm13.48.731l1.36-25.163 11.32.614c2.81.152 4.91.915 6.3 2.288 1.41 1.375 2.05 3.332 1.91 5.872-.12 2.277-.9 4.025-2.33 5.245-1.42 1.222-3.15 1.885-5.2 1.99l7.13 10.265-3.74-.203-7.09-10.155-6.12-.331-.52 9.742-3.02-.164zm11.99-11.824c3.74.203 5.7-1.373 5.88-4.728.19-3.331-1.59-5.098-5.33-5.301l-8.31-.45-.54 10.029 8.3.45zm14.19 13.243l-3.24-.175 11.72-24.602 2.37.129 8.99 25.724-3.24-.175-2.77-8.082-10.21-.553-3.62 7.734zm9.42-20.111l-4.57 9.739 8.05.437-3.48-10.176zm23.39 22.251c-2.16-.117-4.09-.775-5.81-1.973-1.71-1.223-3.03-2.845-3.95-4.866-.9-2.043-1.28-4.287-1.15-6.732.13-2.516.76-4.729 1.87-6.64 1.14-1.909 2.61-3.356 4.42-4.339 1.83-1.006 3.84-1.45 6.02-1.332 2.57.139 4.6.754 6.1 1.845a11.29 11.29 0 013.59 4.233l-2.39 1.636c-1.42-3.153-3.9-4.826-7.45-5.018-1.6-.087-3.09.265-4.45 1.056-1.34.793-2.44 1.947-3.29 3.463-.83 1.494-1.29 3.247-1.4 5.26-.11 1.941.17 3.711.83 5.309.68 1.599 1.66 2.878 2.93 3.836a7.624 7.624 0 004.27 1.566c3.53.191 6.16-1.216 7.91-4.222l2.25 1.816c-2.27 3.651-5.7 5.351-10.3 5.102zm24.91.99l-3.02-.164 1.21-22.467-8.66-.47.15-2.696 20.34 1.104-.14 2.696-8.67-.47-1.21 22.467zm23.26 1.261l-3.23-.175 11.71-24.602 2.38.129 8.99 25.724-3.24-.175-2.77-8.082-10.21-.554-3.63 7.735zm9.42-20.111l-4.56 9.739 8.05.436-3.49-10.175zm23.18 22.239c-3.55-.192-6.09-1.352-7.64-3.478-1.51-2.15-2.17-5.177-1.96-9.084l.74-13.516 3.02.164-.76 13.983c-.17 3.044.31 5.317 1.43 6.82 1.12 1.479 2.89 2.284 5.31 2.415 2.42.131 4.27-.478 5.55-1.827 1.27-1.372 1.99-3.581 2.16-6.624l.76-13.984 3.02.164-.74 13.516c-.21 3.906-1.2 6.845-2.96 8.817-1.74 1.948-4.38 2.826-7.93 2.634zm16.31.524l1.37-25.163 7.94.431c3.62.196 6.49 1.385 8.6 3.567 2.15 2.159 3.1 5.383 2.87 9.673-.23 4.29-1.53 7.404-3.9 9.343-2.34 1.916-5.31 2.776-8.93 2.58l-7.95-.431zm8.24-2.257c5.99.324 9.16-2.808 9.52-9.399.36-6.59-2.46-10.048-8.45-10.372l-5.07-.275-1.07 19.771 5.07.275zm19.78 3.776l-3.02-.164 1.36-25.163 3.02.164-1.36 25.163zm16.49.894l-3.02-.163 1.22-22.467-8.66-.47.15-2.696 20.34 1.103-.14 2.696-8.67-.47-1.22 22.467zm22.12 1.2l1.37-25.164 11.68.634c1.58.086 2.9.47 3.97 1.153 1.1.66 1.89 1.52 2.39 2.581.49 1.036.71 2.177.64 3.423-.07 1.247-.41 2.286-1.03 3.117-.62.808-1.26 1.386-1.9 1.736a6.22 6.22 0 012.65 2.379c.66 1.021.95 2.299.87 3.833-.08 1.533-.51 2.844-1.29 3.931-.78 1.064-1.81 1.861-3.09 2.393-1.28.507-2.7.719-4.25.634l-12.01-.65zm12.47-13.818c1.29.07 2.34-.185 3.14-.767.82-.58 1.27-1.577 1.35-2.991.08-1.414-.26-2.454-1.02-3.12-.73-.689-1.74-1.068-3.04-1.138l-8.66-.47-.44 8.016 8.67.47zm-.42 11.767c1.74.094 3.08-.23 4.01-.972.96-.742 1.47-1.831 1.55-3.269.08-1.438-.32-2.577-1.18-3.417-.85-.839-2.14-1.306-3.89-1.401l-8.88-.482-.49 9.059 8.88.482zm21.1 3.848l-3.02-.164.52-9.634-7.74-15.995 3.45.187 6.02 12.513 7.31-11.789 3.42.185-9.44 15.099-.52 9.598zm32.32 2.112c-2.33-.126-4.39-.802-6.2-2.03-1.81-1.252-3.2-2.889-4.17-4.913-.95-2.046-1.36-4.268-1.23-6.664.13-2.397.78-4.549 1.94-6.457 1.19-1.93 2.75-3.408 4.68-4.433 1.93-1.049 4.06-1.511 6.38-1.385 2.32.126 4.39.815 6.2 2.067 1.81 1.228 3.18 2.865 4.13 4.911.97 2.023 1.39 4.234 1.26 6.63-.13 2.396-.79 4.56-1.97 6.491a12.127 12.127 0 01-4.64 4.435c-1.93 1.025-4.06 1.474-6.38 1.348zm.14-2.696c1.78.097 3.39-.26 4.86-1.07 1.46-.834 2.63-2.009 3.5-3.524.88-1.538 1.37-3.254 1.47-5.148.11-1.893-.2-3.64-.9-5.24-.71-1.625-1.74-2.919-3.11-3.882-1.36-.988-2.93-1.529-4.71-1.625-1.77-.097-3.39.272-4.85 1.106-1.46.81-2.63 1.985-3.51 3.524-.87 1.514-1.36 3.218-1.47 5.112-.1 1.893.2 3.652.91 5.276.7 1.601 1.74 2.895 3.1 3.882 1.37.964 2.94 1.493 4.71 1.589zm16.64 3.246l-3.52-.191 9.93-12.945-7.2-12.144 3.63.197 5.55 9.458 6.64-8.797 3.48.189-8.64 11.212 8.32 14.007-3.56-.193-6.63-11.319-8 10.526zm31.42 2.064c-2.33-.126-4.4-.803-6.2-2.031-1.81-1.252-3.2-2.889-4.17-4.913-.95-2.046-1.36-4.267-1.23-6.664.13-2.396.78-4.549 1.94-6.457 1.19-1.93 2.74-3.408 4.67-4.433 1.94-1.049 4.06-1.51 6.39-1.384 2.32.126 4.39.815 6.2 2.066 1.8 1.228 3.18 2.865 4.13 4.911.97 2.024 1.39 4.234 1.26 6.63-.13 2.397-.79 4.56-1.97 6.491a12.127 12.127 0 01-4.64 4.435c-1.93 1.025-4.06 1.475-6.38 1.349zm.14-2.696c1.78.096 3.39-.261 4.85-1.071 1.47-.834 2.64-2.009 3.51-3.523.88-1.539 1.37-3.255 1.47-5.148.1-1.894-.2-3.641-.9-5.241-.71-1.625-1.74-2.919-3.11-3.882-1.36-.987-2.93-1.529-4.71-1.625-1.77-.096-3.39.272-4.85 1.107-1.46.81-2.63 1.984-3.51 3.523-.88 1.515-1.36 3.219-1.47 5.112-.1 1.893.2 3.652.91 5.277.7 1.6 1.74 2.894 3.1 3.881 1.37.964 2.94 1.493 4.71 1.59zm17.06 3.268l1.37-25.163 11.32.614c2.8.152 4.9.915 6.29 2.288 1.42 1.375 2.06 3.332 1.92 5.872-.12 2.277-.9 4.025-2.34 5.245-1.41 1.222-3.14 1.885-5.19 1.99l7.12 10.265-3.74-.203-7.09-10.155-6.11-.331-.53 9.742-3.02-.164zm12-11.824c3.74.203 5.7-1.373 5.88-4.728.18-3.332-1.6-5.098-5.34-5.301l-8.3-.45-.55 10.029 8.31.45zm16.05 13.345l-3.02-.164 1.36-25.163 3.02.164-1.36 25.163zm17.16 1.291c-2.32-.126-4.39-.803-6.2-2.031-1.8-1.252-3.19-2.889-4.17-4.913-.94-2.046-1.35-4.267-1.22-6.664.13-2.396.77-4.549 1.94-6.456 1.18-1.931 2.74-3.409 4.67-4.434 1.93-1.049 4.06-1.51 6.39-1.384 2.32.126 4.39.815 6.19 2.066 1.81 1.228 3.19 2.865 4.13 4.911.98 2.024 1.4 4.234 1.27 6.63-.13 2.397-.79 4.56-1.98 6.491-1.16 1.908-2.7 3.386-4.64 4.435-1.93 1.025-4.05 1.475-6.38 1.349zm.15-2.696c1.77.096 3.39-.261 4.85-1.071 1.46-.834 2.63-2.009 3.51-3.523.88-1.539 1.37-3.255 1.47-5.148.1-1.894-.2-3.641-.91-5.241-.7-1.625-1.74-2.919-3.1-3.882-1.37-.987-2.94-1.529-4.71-1.625-1.77-.096-3.39.273-4.86 1.107-1.46.81-2.63 1.984-3.5 3.523-.88 1.515-1.37 3.219-1.47 5.112-.1 1.893.2 3.652.9 5.277.71 1.6 1.74 2.894 3.11 3.881 1.37.964 2.93 1.494 4.71 1.59z" fill="#202020"/></g></g><defs><clipPath id="clip0_2742_33253"><path fill="#fff" d="M0 0h1440v312H0z"/></clipPath><clipPath id="clip1_2742_33253"><path fill="#fff" transform="rotate(-9.066 1540.087 1067.74)" d="M0 0h1701v79H0z"/></clipPath><clipPath id="clip2_2742_33253"><path fill="#fff" transform="rotate(3.103 -1791.07 -2703.704)" d="M0 0h1701v79H0z"/></clipPath><filter id="filter0_bd_2742_33253" x="-157.277" y="89" width="1710.78" height="182.973" filterUnits="userSpaceOnUse" color-interpolation-filters="sRGB"><feFlood flood-opacity="0" result="BackgroundImageFix"/><feGaussianBlur in="BackgroundImageFix" stdDeviation="2"/><feComposite in2="SourceAlpha" operator="in" result="effect1_backgroundBlur_2742_33253"/><feColorMatrix in="SourceAlpha" values="0 0 0 0 0 0 0 0 0 0 0 0 0 0 0 0 0 0 127 0" result="hardAlpha"/><feOffset dy="4"/><feGaussianBlur stdDeviation="2"/><feComposite in2="hardAlpha" operator="out"/><feColorMatrix values="0 0 0 0 0 0 0 0 0 0 0 0 0 0 0 0 0 0 0.25 0"/><feBlend in2="effect1_backgroundBlur_2742_33253" result="effect2_dropShadow_2742_33253"/><feBlend in="SourceGraphic" in2="effect2_dropShadow_2742_33253" result="shape"/></filter></defs></svg>