<svg width="42" height="48" fill="none" xmlns="http://www.w3.org/2000/svg"><g clip-path="url(#clip0_2884_25933)"><path d="M40.342 12.876l-19.4 11.25V46.84l19.732-11.424-.332-22.54z" fill="url(#paint0_linear_2884_25933)"/><path d="M20.942 47.86a3.576 3.576 0 01-1.8-.489L1.8 37.228a3.665 3.665 0 01-1.8-3.16V13.782a3.67 3.67 0 011.801-3.16L19.141.486a3.576 3.576 0 013.602 0l17.34 10.143a3.666 3.666 0 011.802 3.16v20.286a3.67 3.67 0 01-1.801 3.16L22.744 47.38a3.56 3.56 0 01-1.802.488v-.008zm0-45.422a1.2 1.2 0 00-.595.16L3.008 12.74a1.213 1.213 0 00-.595 1.04v20.287c0 .43.23.826.595 1.04l17.34 10.144c.367.215.824.215 1.19 0l17.34-10.144a1.21 1.21 0 00.595-1.04V13.782c0-.43-.228-.826-.594-1.041L21.538 2.598a1.19 1.19 0 00-.596-.16z" fill="#fff"/><path d="M20.942 37.363a2.49 2.49 0 01-1.248-.337l-9.325-5.453a2.542 2.542 0 01-1.248-2.187v-10.91c0-.902.478-1.736 1.248-2.187l9.325-5.453c.77-.45 1.726-.45 2.496 0l9.325 5.453a2.542 2.542 0 011.248 2.187v10.91a2.54 2.54 0 01-1.248 2.187l-9.325 5.453a2.478 2.478 0 01-1.248.337zm0-24.424s-.029 0-.041.013l-9.326 5.452a.087.087 0 00-.041.072v10.91c0 .03.016.055.041.072l9.326 5.453c.025.016.054.012.079 0l9.325-5.453a.082.082 0 00.041-.072v-10.91a.087.087 0 00-.041-.072l-9.325-5.452s-.025-.013-.042-.013h.004z" fill="#fff"/><path d="M18.92 23.078v1.698c0 .206.108.396.282.497l1.452.851a.565.565 0 00.566 0l1.451-.851a.573.573 0 00.283-.497v-1.698a.574.574 0 00-.283-.498l-1.451-.851a.566.566 0 00-.566 0l-1.452.851a.574.574 0 00-.283.498z" fill="#fff"/><path d="M39.753 11.626L20.28 22.874l1.195 2.123L40.948 13.75l-1.195-2.123z" fill="#fff"/></g><defs><linearGradient id="paint0_linear_2884_25933" x1="30.808" y1="43.191" x2="30.808" y2="11.249" gradientUnits="userSpaceOnUse"><stop stop-color="#FF6C1A" stop-opacity="0"/><stop offset="1" stop-color="#FF6C1A"/></linearGradient><clipPath id="clip0_2884_25933"><path fill="#fff" d="M0 0h42v48H0z"/></clipPath></defs></svg>