<svg width="28" height="31" fill="none" xmlns="http://www.w3.org/2000/svg"><g clip-path="url(#clip0_2772_30858)"><path d="M26.923 8.315L13.99 15.582v14.669l13.155-7.378-.222-14.558z" fill="url(#paint0_linear_2772_30858)"/><path d="M13.99 30.91a2.44 2.44 0 01-1.2-.316l-11.561-6.55a2.356 2.356 0 01-1.2-2.042V8.901c0-.838.46-1.622 1.2-2.041L12.789.314a2.45 2.45 0 012.402 0l11.56 6.551c.74.42 1.2 1.2 1.2 2.041v13.101c0 .839-.46 1.622-1.2 2.042l-11.56 6.55c-.37.21-.785.316-1.201.316v-.005zm0-29.336a.82.82 0 00-.396.104l-11.56 6.55a.78.78 0 00-.397.673v13.101c0 .278.152.534.396.672l11.56 6.551a.807.807 0 00.793 0l11.56-6.55a.78.78 0 00.397-.673V8.901a.776.776 0 00-.396-.672l-11.56-6.551a.813.813 0 00-.397-.104z" fill="#FF6C1A"/><path d="M13.99 24.13c-.289 0-.574-.073-.832-.218l-6.217-3.521a1.633 1.633 0 01-.832-1.413v-7.046c0-.582.32-1.12.832-1.412l6.217-3.522a1.693 1.693 0 011.664 0l6.217 3.522c.513.291.831.833.831 1.412v7.046c0 .58-.318 1.121-.831 1.413l-6.217 3.521a1.693 1.693 0 01-.832.218zm0-15.774s-.02 0-.028.008l-6.217 3.522a.055.055 0 00-.027.046v7.046c0 .02.01.036.027.047l6.217 3.521c.017.011.036.008.053 0l6.217-3.521a.053.053 0 00.027-.047v-7.046a.056.056 0 00-.027-.046l-6.217-3.522s-.017-.008-.028-.008h.003z" fill="#FF6C1A"/><path d="M12.642 14.904v1.097c0 .133.072.256.188.321l.968.55c.116.065.26.065.377 0l.968-.55a.368.368 0 00.188-.321v-1.097a.368.368 0 00-.188-.32l-.968-.55a.388.388 0 00-.377 0l-.968.55a.368.368 0 00-.188.32z" fill="#FF6C1A"/><path d="M26.53 7.508l-12.982 7.265.796 1.37L27.326 8.88l-.797-1.372z" fill="#FF6C1A"/></g><defs><linearGradient id="paint0_linear_2772_30858" x1="20.568" y1="27.894" x2="20.568" y2="7.265" gradientUnits="userSpaceOnUse"><stop stop-color="#FF6C1A" stop-opacity="0"/><stop offset="1" stop-color="#FF6C1A"/></linearGradient><clipPath id="clip0_2772_30858"><path fill="#fff" d="M0 0h28v31H0z"/></clipPath></defs></svg>