<svg width="142" height="31" fill="none" xmlns="http://www.w3.org/2000/svg"><g clip-path="url(#clip0_4324_11793)"><mask id="mask0_4324_11793" style="mask-type:alpha" maskUnits="userSpaceOnUse" x="-19" y="0" width="179" height="31"><path d="M159.867.5H-18.808v30h178.675V.5z" fill="#D9D9D9"/></mask><g mask="url(#mask0_4324_11793)" fill="#413F41"><path d="M70.895 14.275v-4.168h3.701c.353 0 .688.033 1.007.1.336.05.63.15.881.3.253.15.454.357.605.623.15.266.227.607.227 1.023 0 .75-.227 1.29-.68 1.623-.453.332-1.033.499-1.738.499h-4.003zM66.94 7.062v17.819h8.713c.806 0 1.586-.1 2.342-.3a6.168 6.168 0 002.04-.923 4.55 4.55 0 001.434-1.597c.353-.666.53-1.448.53-2.346 0-1.115-.278-2.063-.831-2.845-.537-.799-1.36-1.356-2.468-1.672.806-.383 1.41-.873 1.813-1.472.42-.6.63-1.348.63-2.246 0-.832-.144-1.531-.429-2.097a3.258 3.258 0 00-1.158-1.347c-.504-.35-1.108-.6-1.813-.749a11.296 11.296 0 00-2.342-.224H66.94zm3.954 14.774v-4.891H75.2c.857 0 1.545.2 2.066.599.519.383.78 1.031.78 1.946 0 .466-.084.849-.252 1.148-.151.3-.36.541-.63.724a3.12 3.12 0 01-.932.374c-.351.067-.72.1-1.107.1h-4.23zm13.146-9.857v12.902h3.576v-5.814a7.1 7.1 0 01.177-1.623c.117-.499.31-.931.579-1.297a2.925 2.925 0 011.108-.899c.453-.216 1.007-.324 1.661-.324.219 0 .445.016.68.05.236.016.438.041.605.075v-3.295a2.816 2.816 0 00-.78-.124c-.454 0-.89.066-1.31.2a4.54 4.54 0 00-1.183.573 4.03 4.03 0 00-.982.874 4.149 4.149 0 00-.681 1.098h-.05v-2.396h-3.4zm13.209-1.997v-2.92h-3.577v2.92h3.577zm-3.577 1.997V24.88h3.577V11.979h-3.577zm15.383 6.413a7.78 7.78 0 01-.151 1.547c-.1.5-.268.949-.504 1.348a2.66 2.66 0 01-.957.924c-.385.233-.873.349-1.46.349-.554 0-1.033-.116-1.435-.35a3.514 3.514 0 01-.982-.948 4.4 4.4 0 01-.555-1.347 6.486 6.486 0 01-.176-1.498c0-.532.051-1.04.152-1.522.117-.5.293-.94.528-1.323.252-.382.579-.69.982-.923.403-.233.899-.35 1.486-.35s1.075.117 1.46.35c.387.233.697.54.932.923.252.366.429.799.529 1.298.101.483.151.99.151 1.522zm.051 4.842v1.647h3.398V7.062h-3.575v6.489h-.051a3.725 3.725 0 00-1.662-1.422 4.964 4.964 0 00-2.19-.5c-.957 0-1.796.192-2.518.574a5.373 5.373 0 00-1.813 1.473 6.8 6.8 0 00-1.083 2.146 8.79 8.79 0 00-.352 2.495c0 .899.117 1.764.352 2.596a7.399 7.399 0 001.083 2.221 5.436 5.436 0 001.838 1.522c.738.366 1.595.55 2.569.55.855 0 1.619-.15 2.291-.45.689-.316 1.243-.823 1.662-1.522h.051zm11.921-1.397c-.553 0-1.015-.117-1.385-.35a2.92 2.92 0 01-.906-.898 4.154 4.154 0 01-.479-1.223 7.861 7.861 0 01-.126-1.398c0-.482.051-.94.151-1.372.119-.45.294-.84.53-1.173.251-.35.553-.624.906-.824.369-.2.805-.3 1.309-.3.588 0 1.074.109 1.461.325a2.6 2.6 0 01.932.874 3.8 3.8 0 01.504 1.272c.101.466.15.965.15 1.498 0 .466-.066.915-.201 1.347a3.36 3.36 0 01-.554 1.123 2.798 2.798 0 01-.957.799c-.386.2-.83.3-1.335.3zm6.447 2.22V11.98h-3.4v1.722h-.049c-.438-.749-.983-1.281-1.638-1.597-.637-.316-1.385-.474-2.241-.474-.906 0-1.712.174-2.417.524a5.116 5.116 0 00-1.737 1.422 6.28 6.28 0 00-1.084 2.046 8.115 8.115 0 00-.352 2.396c0 .882.101 1.722.302 2.52a6.122 6.122 0 001.008 2.072 4.934 4.934 0 001.737 1.398c.705.332 1.545.499 2.518.499.789 0 1.536-.158 2.241-.474a3.592 3.592 0 001.663-1.523h.049v1.697c.017.915-.209 1.672-.68 2.271-.453.6-1.183.899-2.19.899-.638 0-1.201-.133-1.688-.4-.486-.25-.814-.707-.982-1.372h-3.55c.05.732.252 1.356.604 1.872.37.532.823.964 1.36 1.297a6.174 6.174 0 001.813.724c.672.166 1.326.25 1.965.25 1.493 0 2.685-.2 3.575-.6.89-.399 1.57-.89 2.04-1.472.47-.566.772-1.181.906-1.847.151-.665.227-1.256.227-1.771zm11.389-7.012h-5.817c.017-.25.066-.532.151-.849.101-.316.261-.615.478-.898a2.75 2.75 0 01.906-.699c.387-.2.865-.3 1.436-.3.873 0 1.519.234 1.939.7.436.465.739 1.148.907 2.046zm-5.817 2.246h9.392a9.035 9.035 0 00-.252-2.87 6.876 6.876 0 00-1.158-2.445 5.53 5.53 0 00-2.015-1.698c-.822-.432-1.787-.648-2.895-.648-.991 0-1.898.174-2.72.524a6.346 6.346 0 00-2.09 1.447 6.195 6.195 0 00-1.36 2.146 7.464 7.464 0 00-.478 2.695c0 .999.151 1.914.453 2.746a6.394 6.394 0 001.334 2.146 5.917 5.917 0 002.09 1.397c.823.316 1.747.474 2.771.474 1.477 0 2.736-.332 3.777-.998 1.041-.665 1.813-1.771 2.317-3.319h-3.148c-.117.4-.437.782-.957 1.148-.521.35-1.142.524-1.863.524-1.007 0-1.779-.258-2.317-.773-.537-.516-.831-1.348-.881-2.496zm-86.491-.899c0 .533-.05 1.049-.15 1.547-.102.5-.27.949-.505 1.348-.235.383-.553.69-.956.924-.387.233-.873.349-1.46.349-.555 0-1.033-.116-1.436-.35a3.536 3.536 0 01-.982-.948 4.392 4.392 0 01-.554-1.347 6.508 6.508 0 01-.177-1.498c0-.532.05-1.04.152-1.522.117-.5.293-.94.528-1.323.252-.382.58-.69.982-.923.403-.233.898-.35 1.486-.35s1.074.117 1.46.35c.387.233.697.54.932.923.252.366.428.799.53 1.298.1.483.15.99.15 1.522zm.05 4.842v1.647h3.4V7.062h-3.576v6.489h-.05a3.735 3.735 0 00-1.662-1.422 4.97 4.97 0 00-2.19-.5c-.958 0-1.797.192-2.519.574a5.382 5.382 0 00-1.813 1.473 6.817 6.817 0 00-1.083 2.146 8.794 8.794 0 00-.352 2.495 9.5 9.5 0 00.352 2.596 7.418 7.418 0 001.083 2.221c.487.632 1.1 1.14 1.838 1.522.739.366 1.595.55 2.569.55.856 0 1.62-.15 2.291-.45.688-.316 1.242-.823 1.662-1.522h.05zm14.619-6.189h-5.816c.017-.25.067-.532.15-.849a2.91 2.91 0 01.48-.898 2.74 2.74 0 01.906-.699c.386-.2.864-.3 1.435-.3.873 0 1.52.234 1.939.7.436.465.739 1.148.907 2.046zm-5.816 2.246H64.8a9.026 9.026 0 00-.252-2.87 6.876 6.876 0 00-1.158-2.445 5.537 5.537 0 00-2.014-1.698c-.823-.432-1.788-.648-2.896-.648-.99 0-1.897.174-2.72.524a6.343 6.343 0 00-2.09 1.447 6.188 6.188 0 00-1.36 2.146 7.466 7.466 0 00-.478 2.695c0 .999.151 1.914.453 2.746a6.382 6.382 0 001.335 2.146 5.901 5.901 0 002.09 1.397c.822.316 1.746.474 2.77.474 1.477 0 2.736-.332 3.777-.998 1.04-.665 1.813-1.771 2.317-3.319h-3.148c-.118.4-.437.782-.957 1.148-.52.35-1.142.524-1.863.524-1.008 0-1.78-.258-2.317-.773-.537-.516-.831-1.348-.881-2.496zM27.963 25.15H22.55c-1.164 0-1.651-.955-1.75-1.433a6.89 6.89 0 00-.36-1.185c-.259-.817.182-1.264.435-1.385l2.168-1.25c.3.498.54 1.038.74 1.597.114.31.542.881 1.335.699l2.374-.63c.3 1.153.47 2.348.47 3.587z"/><path fill-rule="evenodd" clip-rule="evenodd" d="M23.853 15.286a13.882 13.882 0 00-6.288-3.63l-.899 3.374c1.797.47 3.423 1.452 4.706 2.733l2.481-2.477z"/><path d="M4.861 19.855a10.646 10.646 0 00-1.412 5.294H1.855c-.342 0-.862-.118-1.366-.654-.403-.428-.43-1.108-.392-1.395.206-1.356.608-2.65 1.156-3.86.152-.352.683-.956 1.593-.546l2.015 1.16zm23.105 5.295a14.22 14.22 0 00-.47-3.587l2.21-.586c.394-.104 1.236-.067 1.453.906.081.421.148.85.198 1.282.04.249.004.88-.464 1.412-.469.532-1.138.572-1.317.572h-1.61zm-6.591-7.387l4.13-4.122c.289-.27 1.03-.633 1.686.08.476.546.92 1.123 1.327 1.737.17.344.329 1.138-.408 1.562l-5.066 2.92a10.512 10.512 0 00-1.669-2.177zm-.384-4.697a13.892 13.892 0 00-7.016-1.879c-.88 0-1.738.086-2.576.243-.74.14-1.162-.448-1.28-.758l-.337-1.266c-.078-.385-.021-1.201.837-1.389a17.337 17.337 0 013.356-.331c2.735 0 5.341.637 7.682 1.774.336.157.91.69.52 1.556l-1.186 2.05z"/><path d="M13.927 14.688c.94 0 1.882.128 2.738.342l-.624 2.342c-.081.306-.444.9-1.25.825a7.018 7.018 0 00-7.693 5.536c-.053.222-.25.733-.614 1.006-.455.34-.829.41-1.122.41H3.446c0-5.806 4.705-10.46 10.48-10.46z"/></g></g><defs><clipPath id="clip0_4324_11793"><path fill="#fff" transform="translate(0 .5)" d="M0 0h142v30H0z"/></clipPath></defs></svg>