<svg width="85" height="27" fill="none" xmlns="http://www.w3.org/2000/svg"><path d="M3.113 21.907c1.272 0 2.304-1.002 2.304-2.24 0-1.237-1.032-2.24-2.304-2.24-1.272 0-2.303 1.003-2.303 2.24 0 1.238 1.03 2.24 2.303 2.24zM.81 14.901v-3.359c5.456 2.663 10.35-2.662 15.809 0v3.36c-5.457-2.663-10.353 2.66-15.81 0zm72.93.359c0-1.432-.802-2.125-1.852-2.125-1.049 0-1.962.694-1.962 2.125v6.375H66.47V10.36h3.456v1.39c.625-.934 1.695-1.606 3.234-1.606 1.36 0 2.543.565 3.278 1.778.715-1.02 1.963-1.778 3.792-1.778 2.453 0 4.238 1.519 4.238 4.989v6.505h-3.456v-6.375c0-1.433-.803-2.125-1.853-2.125-1.114 0-1.962.695-1.962 2.125v6.375h-3.456V15.26zm-20.672.738c0-3.84 3.122-5.857 6.157-5.857 3.034 0 6.156 2.018 6.156 5.857 0 3.839-3.122 5.856-6.157 5.856-3.034 0-6.156-2.017-6.156-5.856zm6.157 2.819c1.494 0 2.744-1.084 2.744-2.82 0-1.734-1.248-2.818-2.745-2.818-1.495 0-2.742 1.084-2.742 2.819 0 1.735 1.248 2.819 2.742 2.819zm-40.859-2.819c0-3.926 2.9-5.857 5.531-5.857 2.052 0 3.258 1.084 3.436 1.496h.067v-1.28h3.457v11.279H27.4v-1.28h-.067c-.178.412-1.384 1.496-3.436 1.496-2.632 0-5.53-1.93-5.53-5.856v.002zm6.245 2.862c1.518 0 2.878-1.02 2.878-2.862s-1.36-2.863-2.878-2.863c-1.517 0-2.833 1.041-2.833 2.863 0 1.821 1.36 2.862 2.833 2.862zm9.053-.693v-5.139h-1.717V10.36h1.717V7.475h3.456v2.885h2.431v2.668h-2.43v4.597c0 .565.334 1.17 1.383 1.17.267 0 .67-.042 1.094-.172v2.56c-.447.434-1.429.584-2.23.584-2.14 0-3.702-1.02-3.702-3.6h-.002zm7.094-11.928h3.456v5.553c.647-.954 1.785-1.649 3.435-1.649 2.342 0 4.328 1.41 4.328 4.86v6.637H48.52v-6.05c0-1.41-.735-2.45-2.163-2.45-1.429 0-2.14 1.04-2.14 2.45v6.05H40.76V6.239h-.002zm-24.139-.825H.809v3.359h15.81V5.414z" fill="#413F41"/></svg>