<svg width="78" height="21" fill="none" xmlns="http://www.w3.org/2000/svg"><g clip-path="url(#clip0_4324_11794)" fill="#413F41"><path d="M43.145 18.994H40.13V6.907h3.016v12.087z"/><path fill-rule="evenodd" clip-rule="evenodd" d="M77.14 12.543c0-2.806-1.985-5.828-6.054-5.828-3.996 0-5.959 3.094-5.959 6.236 0 3.141 2.13 6.235 6.127 6.235 2.824 0 4.93-1.343 5.6-3.621l-2.825-.768c-.31 1.175-1.315 1.847-2.727 1.847-1.724 0-2.896-1.08-3.16-2.902h8.95c.025-.24.049-.768.049-1.2zm-8.926-1.007c.335-1.631 1.388-2.519 2.872-2.519 1.747 0 2.68 1.08 2.824 2.519h-5.696z"/><path d="M38.616 6.907l-.191 2.926c-.43-.192-1.006-.288-1.532-.288-1.699 0-3.231 1.415-3.231 5.012v4.437h-3.015V6.907h3.015v2.206c.598-1.367 2.178-2.398 3.638-2.398.43 0 .957.072 1.316.192z"/><path fill-rule="evenodd" clip-rule="evenodd" d="M24.94 6.907h3.015v12.087H24.94v-1.39c-.598.959-1.939 1.582-3.446 1.582-3.614 0-5.743-2.542-5.743-6.236 0-3.693 2.13-6.235 5.695-6.235 1.508 0 2.8.623 3.494 1.535V6.907zm-6.198 6.043c0 2.183 1.268 3.622 3.183 3.622 1.938 0 3.206-1.439 3.206-3.621 0-2.183-1.268-3.622-3.206-3.622-1.915 0-3.183 1.439-3.183 3.621zm-3.705 6.044l-3.684-7.507c1.652-.815 2.633-2.422 2.633-4.317 0-3.022-2.13-4.964-5.409-4.964H.58l.024 16.788h3.255v-6.883h4.168l3.229 6.883h3.78zM3.859 5.012h4.216c1.675 0 2.632.815 2.632 2.158S9.75 9.305 8.075 9.305H3.859V5.012z"/><path d="M60.077 18.994h3.015V2.014h-3.015v16.98z"/><path fill-rule="evenodd" clip-rule="evenodd" d="M58.031 12.95c0 3.694-2.13 6.236-5.743 6.236-1.484 0-2.848-.623-3.446-1.583v1.391h-3.015V2.014h3.015V8.25c.694-.912 1.986-1.535 3.494-1.535 3.565 0 5.695 2.542 5.695 6.236zm-9.38 0c0 2.183 1.267 3.622 3.206 3.622 1.915 0 3.183-1.439 3.183-3.621 0-2.183-1.268-3.622-3.183-3.622-1.938 0-3.206 1.44-3.206 3.622z"/><path d="M39.772 2.637c0-.767.62-1.39 1.383-1.39h.989c.763 0 1.382.623 1.382 1.39v.994c0 .768-.619 1.39-1.382 1.39h-.99a1.386 1.386 0 01-1.382-1.39v-.994z"/></g><defs><clipPath id="clip0_4324_11794"><path fill="#fff" transform="translate(0 .5)" d="M0 0h78v20H0z"/></clipPath></defs></svg>