<svg width="135" height="23" fill="none" xmlns="http://www.w3.org/2000/svg"><g clip-path="url(#clip0_4324_11791)"><mask id="mask0_4324_11791" style="mask-type:alpha" maskUnits="userSpaceOnUse" x="-17" y="-6" width="168" height="29"><path d="M150.882-5.308H-16.765V23h167.647V-5.308z" fill="#413F41"/></mask><g mask="url(#mask0_4324_11791)" fill="#413F41"><path d="M67.401 7.69V3.758h3.473c.331 0 .646.031.945.094.315.047.59.141.827.282.236.142.425.338.567.59.141.25.213.572.213.965 0 .706-.213 1.216-.638 1.53-.425.314-.969.471-1.63.471H67.4zM63.691.885v16.813h8.176c.756 0 1.487-.094 2.197-.283a5.768 5.768 0 001.914-.871 4.286 4.286 0 001.346-1.507c.331-.628.497-1.366.497-2.214 0-1.051-.26-1.946-.78-2.684-.504-.753-1.276-1.28-2.315-1.578.756-.36 1.322-.824 1.7-1.389.394-.565.591-1.272.591-2.12 0-.784-.134-1.444-.401-1.977a3.069 3.069 0 00-1.088-1.272c-.472-.33-1.039-.565-1.7-.706A10.54 10.54 0 0071.63.885h-7.939zm3.71 13.94V10.21h4.04c.803 0 1.45.188 1.938.565.487.361.732.973.732 1.837 0 .44-.079.8-.236 1.083a1.78 1.78 0 01-.591.683 2.916 2.916 0 01-.875.353 5.53 5.53 0 01-1.039.094h-3.969zm12.334-9.301v12.174h3.355v-5.486c0-.55.055-1.06.165-1.531.11-.471.292-.88.544-1.224a2.748 2.748 0 011.04-.848c.425-.204.944-.306 1.558-.306.205 0 .418.015.638.047.221.015.41.039.568.07V5.312a2.627 2.627 0 00-.732-.118c-.426 0-.835.063-1.23.189a4.288 4.288 0 00-1.11.541c-.346.22-.654.495-.92.825-.27.313-.482.659-.64 1.036h-.046V5.524h-3.19zM92.128 3.64V.885h-3.356V3.64h3.356zm-3.356 1.884v12.174h3.356V5.524h-3.356zm14.433 6.051c0 .503-.047.99-.141 1.46a4.064 4.064 0 01-.473 1.272c-.22.361-.52.652-.898.871-.362.22-.819.33-1.37.33-.52 0-.97-.11-1.347-.33a3.312 3.312 0 01-.921-.895c-.237-.376-.41-.8-.52-1.271a6.182 6.182 0 01-.166-1.413c0-.502.048-.981.142-1.436a4.23 4.23 0 01.496-1.248 2.72 2.72 0 01.921-.872c.379-.22.844-.33 1.395-.33s1.008.11 1.37.33c.363.22.654.51.874.872.237.345.403.753.497 1.224.094.455.141.934.141 1.437zm.048 4.569v1.554h3.189V.885h-3.355v6.122h-.048a3.501 3.501 0 00-1.559-1.342 4.635 4.635 0 00-2.055-.471c-.898 0-1.685.18-2.363.542a5.048 5.048 0 00-1.7 1.389 6.424 6.424 0 00-1.016 2.025 8.338 8.338 0 00-.331 2.355c0 .848.11 1.664.33 2.449a6.992 6.992 0 001.016 2.096 5.108 5.108 0 001.725 1.436c.693.345 1.497.518 2.41.518.803 0 1.519-.141 2.15-.424.646-.298 1.166-.777 1.559-1.436h.048zm11.187-1.319c-.52 0-.953-.11-1.3-.33a2.734 2.734 0 01-.85-.847 3.898 3.898 0 01-.449-1.154 7.442 7.442 0 01-.119-1.319c0-.455.048-.886.142-1.295a3.42 3.42 0 01.497-1.106c.236-.33.519-.59.851-.777.346-.189.755-.283 1.228-.283.552 0 1.008.102 1.37.306.363.204.654.479.875.824.219.346.377.746.473 1.201.094.44.141.91.141 1.413 0 .44-.063.864-.189 1.272a3.17 3.17 0 01-.52 1.06 2.62 2.62 0 01-.898.753 2.672 2.672 0 01-1.252.282zm6.049 2.096V5.524h-3.19v1.625h-.047c-.41-.707-.922-1.209-1.536-1.507-.598-.299-1.3-.448-2.103-.448-.85 0-1.606.165-2.268.495a4.81 4.81 0 00-1.63 1.342 5.943 5.943 0 00-1.016 1.931 7.68 7.68 0 00-.331 2.26c0 .833.095 1.625.284 2.379.205.738.52 1.39.945 1.954.424.55.969.99 1.63 1.32.661.313 1.449.47 2.362.47.741 0 1.441-.15 2.103-.447a3.374 3.374 0 001.56-1.437h.047v1.601c.016.864-.197 1.578-.638 2.143-.425.566-1.11.848-2.055.848-.599 0-1.127-.126-1.584-.377-.456-.235-.764-.667-.921-1.295h-3.332c.048.69.237 1.28.568 1.766.346.503.772.91 1.275 1.225.52.314 1.087.541 1.702.683.63.157 1.244.235 1.843.235 1.401 0 2.52-.188 3.355-.565.834-.377 1.472-.84 1.913-1.39a3.913 3.913 0 00.851-1.742c.141-.628.213-1.185.213-1.672zm10.685-6.617h-5.458c.015-.235.062-.502.142-.8.094-.299.244-.581.448-.848a2.58 2.58 0 01.85-.66c.363-.188.811-.282 1.348-.282.819 0 1.425.22 1.819.66.409.439.693 1.082.851 1.93zm-5.458 2.12h8.812a8.553 8.553 0 00-.236-2.708 6.512 6.512 0 00-1.087-2.308 5.198 5.198 0 00-1.89-1.601c-.772-.409-1.677-.613-2.717-.613-.93 0-1.78.165-2.552.495a5.95 5.95 0 00-1.961 1.366 5.842 5.842 0 00-1.276 2.025 7.085 7.085 0 00-.448 2.543c0 .942.141 1.805.424 2.59.3.785.718 1.46 1.252 2.025a5.55 5.55 0 001.962 1.319c.772.298 1.638.447 2.599.447 1.386 0 2.567-.314 3.544-.942.976-.628 1.701-1.671 2.174-3.131h-2.953c-.111.376-.411.738-.899 1.083-.488.33-1.071.494-1.748.494-.945 0-1.669-.243-2.174-.73-.504-.486-.779-1.271-.826-2.354zm-81.152-.849c0 .503-.047.99-.142 1.46a4.09 4.09 0 01-.472 1.272 2.51 2.51 0 01-.898.871c-.363.22-.82.33-1.37.33-.52 0-.97-.11-1.347-.33a3.325 3.325 0 01-.922-.895 4.16 4.16 0 01-.52-1.271 6.177 6.177 0 01-.165-1.413c0-.502.047-.981.142-1.436a4.23 4.23 0 01.496-1.248c.236-.361.543-.652.921-.872.379-.22.843-.33 1.394-.33.552 0 1.008.11 1.37.33.363.22.654.51.875.872.236.345.402.753.496 1.224.095.455.142.934.142 1.437zm.047 4.569v1.554h3.19V.885h-3.355v6.122h-.047a3.51 3.51 0 00-1.56-1.342 4.641 4.641 0 00-2.056-.471c-.897 0-1.685.18-2.362.542a5.056 5.056 0 00-1.701 1.389 6.444 6.444 0 00-1.016 2.025 8.341 8.341 0 00-.331 2.355c0 .848.11 1.664.33 2.449a7.014 7.014 0 001.017 2.096 5.118 5.118 0 001.724 1.436c.694.345 1.497.518 2.41.518.804 0 1.52-.141 2.15-.424.646-.298 1.166-.777 1.56-1.436h.047zm13.716-5.84H52.87c.015-.235.063-.502.141-.8.095-.299.244-.581.45-.848.22-.267.503-.487.85-.66.362-.188.811-.282 1.347-.282.819 0 1.425.22 1.819.66.41.439.693 1.082.85 1.93zm-5.457 2.12h8.813a8.565 8.565 0 00-.237-2.708 6.502 6.502 0 00-1.087-2.308 5.203 5.203 0 00-1.89-1.601c-.772-.409-1.677-.613-2.717-.613-.93 0-1.78.165-2.552.495-.756.33-1.41.785-1.96 1.366a5.841 5.841 0 00-1.276 2.025 7.08 7.08 0 00-.45 2.543c0 .942.142 1.805.426 2.59.3.785.717 1.46 1.252 2.025a5.534 5.534 0 001.961 1.319c.772.298 1.638.447 2.6.447 1.385 0 2.567-.314 3.543-.942.977-.628 1.701-1.671 2.174-3.131h-2.954c-.11.376-.41.738-.897 1.083-.489.33-1.072.494-1.749.494-.945 0-1.67-.243-2.173-.73-.504-.486-.78-1.271-.827-2.354zm-25.751 5.528H22.04c-1.092 0-1.55-.902-1.641-1.353a6.527 6.527 0 00-.338-1.117c-.243-.772.17-1.193.408-1.307l2.034-1.18c.28.47.506.98.694 1.507.107.292.509.832 1.253.66l2.227-.595c.281 1.088.442 2.216.442 3.385z"/><path fill-rule="evenodd" clip-rule="evenodd" d="M23.263 8.645a13.009 13.009 0 00-5.9-3.425l-.843 3.183c1.686.443 3.211 1.37 4.415 2.578l2.328-2.336z"/><path d="M5.443 12.956a10.09 10.09 0 00-1.324 4.996H2.622c-.32 0-.808-.112-1.281-.618-.378-.404-.403-1.046-.368-1.316.193-1.28.57-2.5 1.085-3.642.142-.333.64-.903 1.495-.516l1.89 1.096zm21.679 4.995c0-1.168-.16-2.296-.441-3.384l2.073-.553c.37-.098 1.16-.063 1.364.856.076.397.139.8.186 1.209.038.235.003.83-.436 1.332-.44.502-1.068.54-1.235.54h-1.51zm-6.183-6.969l3.874-3.89c.27-.255.966-.597 1.582.077.447.514.863 1.059 1.245 1.638.16.324.308 1.073-.383 1.474l-4.753 2.755a9.913 9.913 0 00-1.566-2.054zm-.361-4.432a12.978 12.978 0 00-6.583-1.773c-.826 0-1.632.081-2.417.229-.696.132-1.09-.422-1.201-.716l-.316-1.194c-.074-.363-.02-1.134.785-1.31a16.18 16.18 0 013.149-.313c2.565 0 5.01.601 7.207 1.674.316.148.854.65.488 1.468L20.578 6.55z"/><path d="M13.95 8.08c.882 0 1.765.121 2.568.323l-.585 2.21a1.074 1.074 0 01-1.173.778 6.22 6.22 0 00-.77-.047c-3.193 0-5.833 2.277-6.448 5.27-.05.21-.234.693-.576.95-.427.322-.778.387-1.053.387H4.115c0-5.479 4.415-9.87 9.834-9.87z"/></g></g><defs><clipPath id="clip0_4324_11791"><path fill="#fff" d="M0 0h135v23H0z"/></clipPath></defs></svg>