<svg width="201" height="29" fill="none" xmlns="http://www.w3.org/2000/svg"><g clip-path="url(#clip0_4324_11792)"><mask id="mask0_4324_11792" style="mask-type:alpha" maskUnits="userSpaceOnUse" x="-4" y="-3" width="207" height="32"><path d="M203-3H-4v32h207V-3z" fill="#413F41"/></mask><g mask="url(#mask0_4324_11792)" fill="#413F41"><path d="M39.043 25.87V9.154h2.487l.237 1.349h.118c.711-.924 1.919-1.586 3.6-1.586 3.077 0 5.54 2.51 5.54 6.226s-2.46 6.226-5.54 6.226c-1.658 0-2.817-.687-3.433-1.468h-.118v5.966h-2.889l-.002.003zm9.092-10.725c0-2.178-1.398-3.55-3.103-3.55-1.704 0-3.102 1.372-3.102 3.55s1.398 3.551 3.102 3.551c1.705 0 3.103-1.373 3.103-3.55zm4.357 0c0-3.623 2.604-6.226 6.085-6.226 3.48 0 6.084 2.603 6.084 6.226 0 3.623-2.603 6.226-6.084 6.226-3.481 0-6.085-2.628-6.085-6.226zm9.257 0c0-2.132-1.421-3.55-3.172-3.55-1.751 0-3.196 1.42-3.196 3.55s1.445 3.528 3.196 3.528c1.75 0 3.172-1.396 3.172-3.528zm5.005 5.989V4.563h2.889v16.575h-2.89v-.003zm13.611-11.98h3.077l-5.209 14.56c-.52 1.445-1.23 2.155-3.102 2.155h-2.794v-2.675h2.369c.427 0 .662-.213.805-.569l.284-.78-4.877-12.691h3.077l3.103 8.311h.473l2.794-8.311zm3.627 12.573h2.935c.119.78.9 1.846 2.748 1.846 1.728 0 2.865-1.09 2.865-2.747v-1.682h-.118c-.639.688-1.823 1.303-3.34 1.303-3.076 0-5.445-2.369-5.445-5.778 0-3.409 2.368-5.752 5.446-5.752 1.586 0 2.747.638 3.48 1.54h.12l.236-1.303h2.51v11.672c0 3.172-2.132 5.28-5.754 5.28-4.048 0-5.611-2.652-5.683-4.38zm8.548-7.056c0-1.87-1.326-3.172-3.007-3.172s-2.984 1.303-2.984 3.172c0 1.87 1.326 3.196 2.984 3.196s3.007-1.303 3.007-3.196zm4.901.474c0-3.622 2.604-6.226 6.085-6.226s6.084 2.604 6.084 6.226c0 3.623-2.603 6.227-6.084 6.227-3.481 0-6.085-2.63-6.085-6.227zm9.257 0c0-2.131-1.421-3.55-3.172-3.55-1.751 0-3.196 1.42-3.196 3.55s1.445 3.528 3.196 3.528c1.751 0 3.172-1.396 3.172-3.528zm4.925 5.989V9.154h2.485l.237 1.135h.119c.473-.543 1.658-1.372 3.456-1.372 2.746 0 4.734 1.988 4.734 5.018v7.197h-2.888v-6.818c0-1.54-1.089-2.652-2.58-2.652s-2.676 1.16-2.676 2.652v6.818h-2.889l.002.002zM22.23 19.736l7.101-4.1c.377-.218.61-.622.61-1.056v-8.2a1.22 1.22 0 00-.61-1.055L22.23 1.223a1.222 1.222 0 00-1.219 0l-7.101 4.1a1.222 1.222 0 00-.61 1.056v14.656L8.32 23.91l-4.98-2.874v-5.75l4.98-2.874 3.284 1.897V10.45L8.93 8.904a1.228 1.228 0 00-1.218 0l-7.102 4.1c-.377.22-.61.624-.61 1.056v8.202c0 .433.233.837.61 1.055l7.1 4.1c.377.216.843.216 1.219 0l7.102-4.1c.376-.218.609-.622.609-1.055V7.603l.089-.05 4.89-2.824 4.98 2.875v5.75l-4.98 2.874-3.28-1.893v3.858l2.67 1.541c.377.216.844.216 1.218 0l.003.002zM129.386 4.263l5.812 14.648 5.813-14.648h1.564L135.84 21h-1.283l-6.735-16.737h1.564zM145.405 21V9.351h1.401V21h-1.401zm-.303-15.022a1.01 1.01 0 011.004-1.003 1.01 1.01 0 011.003 1.003 1.01 1.01 0 01-1.003 1.004 1.011 1.011 0 01-1.004-1.004zM152.087 21h-1.4V3.305h1.4V21zm4.978 0h-1.401V3.305h1.401V21zM170.33 9.351h1.4V21h-1.4v-2.533c-.63 1.436-2.323 2.766-4.354 2.766-3.408 0-5.801-2.474-5.801-6.057 0-3.584 2.393-6.058 5.801-6.058 2.031 0 3.724 1.33 4.354 2.766V9.351zm-4.354.98c-2.696 0-4.353 2.079-4.353 4.845 0 2.766 1.657 4.844 4.353 4.844 2.696 0 4.354-2.078 4.354-4.844 0-2.767-1.658-4.844-4.354-4.844zm19.019-.98h1.401V21c0 4.949-2.813 6.21-5.708 6.21-2.194 0-3.746-.55-4.68-1.285l.794-.98c.852.537 2.101 1.05 3.886 1.05 2.848 0 4.307-1.599 4.307-4.995v-2.533c-.63 1.436-2.322 2.766-4.353 2.766-3.408 0-5.801-2.474-5.801-6.057 0-3.584 2.393-6.058 5.801-6.058 2.031 0 3.723 1.33 4.353 2.766V9.351zm-4.353.98c-2.696 0-4.354 2.079-4.354 4.845 0 2.766 1.658 4.844 4.354 4.844s4.353-2.078 4.353-4.844c0-2.767-1.657-4.844-4.353-4.844zm14.397 9.689c1.762 0 3.034-.549 3.875-1.378l.934.91c-.876.841-2.3 1.681-4.809 1.681-3.525 0-5.533-2.416-5.533-6.057 0-3.63 2.008-6.058 5.533-6.058 3.326 0 5.626 2.136 5.532 6.665H191c.035 2.194 1.238 4.237 4.039 4.237zM191 14.569h8.077c-.058-2.3-1.214-4.237-4.038-4.237-2.801 0-4.004 1.937-4.039 4.237z"/></g></g><defs><clipPath id="clip0_4324_11792"><path fill="#fff" d="M0 0h201v29H0z"/></clipPath></defs></svg>