<svg width="35" height="60" fill="none" xmlns="http://www.w3.org/2000/svg"><g clip-path="url(#clip0_4322_1897)" fill="#FF8947"><path d="M16.592 46.4h-3.63v5.539h1.815v-3.693h1.815v1.846c0 1.016.817 1.847 1.815 1.847v-3.693c0-1.015-.816-1.846-1.815-1.846zm-7.259 0v5.538h1.815v-3.692c0-1.015-.817-1.846-1.815-1.846zm19.965 0h-1.815v-1.846c0-1.016-.817-1.846-1.815-1.846v7.384h-3.63v-1.846h1.814V46.4h-1.814c-.999 0-1.816.83-1.816 1.846v1.846c0 1.016.817 1.846 1.816 1.846h5.445v-3.692h1.815v1.846c0 1.016.817 1.846 1.815 1.846v-3.692c0-1.015-.817-1.846-1.815-1.846zM9.333 42.708v1.846h1.815c0-1.016-.817-1.846-1.815-1.846zm-5.446 1.846h1.815v7.384h1.815v-9.23H5.702c-.998 0-1.815.83-1.815 1.846z"/><path fill-rule="evenodd" clip-rule="evenodd" d="M27.474 13.345c-1.021-.674-1.747-.965-1.747-.965a36.425 36.425 0 002.023.143c.245.023.5.05.758.078-.454-.36-.903-.687-1.348-.978-2.695-1.772-5.227-2.326-7.332-2.326-1.86 0-3.39.429-4.416.826-.825.323-1.32.623-1.393.67h-.004L15.08 9.07l.082-.84c.286.027.54.207.667.47a.868.868 0 01.086.351 12.995 12.995 0 013.916-.604c2.636 0 5.85.807 9.193 3.484a.86.86 0 01.255.988.829.829 0 01-.368.42c.603.47 1.248 1.043 1.883 1.735 2.305 2.506 4.438 6.522 3.866 12.517a.842.842 0 01-.59.73.811.811 0 01-.444.009c-.187 2.561-1.285 6.798-6.008 10.407a.82.82 0 01-.967.023.866.866 0 01-.277-.314 2 2 0 01-.145.134c-1.343 1.237-3.39 2.59-6.153 2.982a.942.942 0 01-.113.01h-.027a.833.833 0 01-.822-.707c-.68.139-1.484.23-2.4.23-1.543 0-3.413-.267-5.6-1.047a.847.847 0 01-.522-1.038.83.83 0 01.994-.582 7.782 7.782 0 001.879.226c4.188 0 7.464-3.18 7.464-6.983 0-1.874-.78-3.595-2.1-4.864-.005.004-.01.009-.01.013l-.921 1.214c-.413.591-.563.919-.526 1.219a3.47 3.47 0 01-.69 2.607c-.01.01-.014.019-.023.028-.213.254-.617.614-.98.932l-.05.042a22.98 22.98 0 00-.98.904.096.096 0 01-.023.019c-.644.614-1.483.701-1.987.701-.14 0-.263-.009-.35-.018h-.008c-.081-.01-.113-.01-.136-.01h-.113c-.014.01-.046.028-.086.066-.06.05-.136.115-.245.212-.205.194-.45.281-.613.323a2.48 2.48 0 01-.576.064c-.486 0-1.044-.11-1.502-.226a12.84 12.84 0 01-1.153-.35c-.009-.005-.018-.005-.027-.01a1.555 1.555 0 01-.54-.387c-.127-.139-.24-.3-.336-.457a7.214 7.214 0 01-.499-1.034c-.272-.683-.499-1.463-.535-1.846a1.666 1.666 0 01.08-.645c.055-.176.127-.356.2-.527.15-.336.345-.715.513-1.038l.009-.014c.118-.23.222-.43.304-.6.04-.083.068-.152.09-.203.014-.037.019-.055.023-.055.046-.222.186-1.297.332-2.451.145-1.14.28-2.276.304-2.506a1.153 1.153 0 000-.379c-.023-.097-.078-.249-.24-.526 0-.005-.005-.005-.005-.01v-.004c-.363-.628-.382-1.246-.227-2.003-1.852-1.306-6.57-4.85-6.866-5.095l-.004-.005a1.152 1.152 0 01-.404-.66.953.953 0 01.013-.41c.014-.06.037-.111.055-.158.009-.023.023-.041.032-.064a.095.095 0 01.018-.028c.004-.005.004-.01.009-.014l.004-.004v-.005l.695.466s-.055.083.109.222c.013.009.036.032.072.055.005.005.01.01.018.014.087.065.218.17.395.3.236.18.55.415.903.683 1.856 1.399 5.01 3.739 5.899 4.33-.272 1-.272 1.472 0 1.942.381.637.408.974.354 1.445-.055.47-.545 4.555-.653 5.054-.046.203-.26.61-.49 1.061-.345.67-.74 1.426-.708 1.74.054.526.762 2.779 1.393 3.028.462.166 1.61.526 2.373.526.272 0 .517-.055.626-.166.463-.415.599-.498.93-.498h.082a1.5 1.5 0 01.204.014c.086.009.182.013.286.013.436 0 1.012-.083 1.42-.47.282-.287.663-.623 1.021-.942.4-.355.772-.683.944-.89a2.62 2.62 0 00.517-1.971c-.081-.665.273-1.251.681-1.833.517-.692 1.475-1.943 1.475-1.943.068.05.131.102.195.157.154.125.3.254.44.388 1.507 1.421 2.419 3.383 2.419 5.538 0 3.748-2.782 6.877-6.507 7.648a8.815 8.815 0 01-3.867-.065c.731.263 1.425.462 2.074.61.65.147 1.257.249 1.824.309.504.055.98.078 1.42.078 1.18 0 2.147-.166 2.891-.37 1.207-.331 1.833-.765 1.833-.765s-.163.212-.453.54c-.24.268-.563.614-.958.988-.023.018-.04.041-.063.06l-.005.004c-.009.01-.018.014-.023.023h.028a10.318 10.318 0 001.474-.323c2.369-.706 4.039-2.155 5.028-3.254.726-.808 1.084-1.421 1.084-1.421s-.063.461-.163 1.029a18.615 18.615 0 01-.272 1.302c.367-.282.712-.568 1.04-.854 3.997-3.563 4.646-7.528 4.673-9.605v-.277a8.42 8.42 0 00-.086-1.14v-.028c0 .005.004.01.009.014.004.005.004.01.009.014.045.065.163.208.308.388.082.101.177.217.268.332.109.134.222.272.322.397.064.078.123.152.173.217.036-.37.059-.734.072-1.085v-.004c0-.047.005-.093.005-.139.258-7.43-3.948-11.312-6.425-12.95zM8.846 11.812c.019.07.041.134.06.208.122.401.263.845.412 1.223.141-.425.3-.803.481-1.15 1.171-2.22 3.095-2.824 4.27-2.976.604-.079 1.008-.042 1.008-.042.081-.84.077-.844.077-.844h-.027c-.014 0-.032 0-.05-.005-.041-.005-.1-.005-.173-.005a6.764 6.764 0 00-2.432.425 6.19 6.19 0 00-2.99 2.358c-.014-.05-.028-.092-.037-.133-.018-.074-.031-.13-.045-.167-.005-.018-.009-.032-.009-.046l-.005-.009v-.004a.84.84 0 00-.558-.6.818.818 0 00-.794.17l.55.637-.55-.637-.004.005-.01.01-.027.027c-.022.023-.054.05-.09.092-.073.079-.173.185-.286.323a5.755 5.755 0 00-.754 1.21 5.836 5.836 0 00-.54 2.912c-.916-.337-1.864-.679-2.681-.974-.622-.226-1.171-.42-1.57-.563l-.486-.171a6.662 6.662 0 01-.154-.05h-.005a1.331 1.331 0 00-.154-.042c-.013-.005-.032-.005-.045-.01a1.188 1.188 0 00-.658.084c-.1.046-.182.106-.25.166-.032.032-.063.06-.086.092-.014.014-.023.028-.032.041-.004.01-.009.014-.013.019l-.01.01-.004.004v.005l.69.47s.054-.083.245-.055c.009 0 .032.01.068.023h.004c.091.032.264.088.5.17.28.098.648.232 1.075.384 1.044.374 2.432.877 3.703 1.348.33.12.649.24.957.355a6.103 6.103 0 01-.227-.983 5.03 5.03 0 01.749-3.462c.336-.521.649-.803.649-.803s.1.42.258.96z"/><path opacity=".7" d="M15.272 30.648c-.087.106-.377.378-.658.636-.082.079-.168.153-.24.222l-.346.318c-.217.199-.43.393-.608.573-.108.11-.326.166-.653.166h-.817c.164-.222.454-.563.772-.905.172-.166.349-.323.512-.457a5.19 5.19 0 01.803-.535c.45-.254.781-.443.781-.91.018-.945-.608-1.13-1.07-1.135.135-.032.294-.06.44-.06-.518-.138-1.176 0-1.476.305-.217.203-.267.752-.317 1.302-.023.272-.05.549-.095.78-.123.646-.509 1.001-1.099 1.55-.068.065-.14.13-.213.199-.018.018-.036.032-.05.046l-1.806-.406s1.203-.637 1.393-1.362c.173-.623-.272-2.534-.385-3.027a.784.784 0 01-.023-.111l.01.009c.08.078.575.535.807 1.27.435-1.224 1.012-2.387 1.175-2.498.14-.097 1.792-.992 2.255-1.241-.204.558-.395 1.112-.535 1.518-.49.139-.985.416-1.339.974.19-.138.79-.221 1.23-.277.381-.028 1.556.61 1.856 1.805v.055a1.81 1.81 0 01-.304 1.195z"/><path opacity=".7" d="M14.342 26.845c.558-.051 1.025.064 1.143.11 1.067-2.054 1.91-3.166 2.128-3.166.023-.005.073 0 .146 0 .608.023 2.772.097 3.675-2.11.967-2.404-.395-4.462-.49-4.6l-.005-.005c1.149 3.83-1.392 5.967-3.112 5.995-.958 0-2.237.637-2.237.637l-1.248 3.139z"/><path opacity=".7" d="M20.949 17.074c.122.06 2.16 1.066 2.75 4.19a10.737 10.737 0 012.436 5.751c0 .139.19.333.381.499.246.249.49.498.49.747 0 .665-.054 1.334-.163 1.971-.05.199-.268.328-.508.471l-.023.014a.085.085 0 00-.027.018l-.04.028-.123.078c-.146.093-.295.19-.318.254-.554 2.003-1.72 3.794-3.276 5.151a11.366 11.366 0 005.3-6.877 9.232 9.232 0 00.1-3.604c-.976-5.668-6.653-8.553-6.98-8.691z"/><path opacity=".7" d="M23.594 25.681c.272-1.417.3-2.635.218-3.637 1.066 1.445 1.72 3.194 1.91 4.999.027.221.245.443.463.665.19.166.408.387.408.526 0 .637-.054 1.278-.163 1.915-.027.078-.25.208-.436.314l-.032.018c-.272.139-.517.277-.571.499a10.342 10.342 0 01-3.603 5.358c2.546-2.69 3.775-7.13 1.806-10.657zm-9.208-8.331a4.056 4.056 0 002.6-.78c.105.245.205.495.305.735-1.248.346-2.374.17-2.905.046zm3.767-.355c.68-.318 1.366-.817 1.992-1.578-.604-.176-1.23-.3-1.87-.37a6.53 6.53 0 01-.571.803c.108.287.272.693.449 1.145z"/><path fill-rule="evenodd" clip-rule="evenodd" d="M11.5 15.13s-.49-3.58 1.966-5.08c-.01.004-.028.008-.05.018-.5.193-4.152 1.587-1.915 5.063zm5.3-3.276c1.884-.72 4.507-1.113 8.572-.333-1.801-.918-3.684-1.389-5.567-1.417-.708 0-1.366.056-1.965.167a5.73 5.73 0 00-4.479 4.024s.436-.692 1.475-1.417l.045-.06a41.38 41.38 0 011.511-1.993c.16.36.35.807.409 1.029zm9.444 4.606c3.848 2.584 5.595 5.441 6.824 8.801-.054-3.553-1.23-6.609-3.494-9.05l-.054-.056c-1.992-2.137-4.915-3.138-7.805-2.723-1.094.139-2.183.36-3.031.637a2.247 2.247 0 00-.409.11h.055c.218-.022 4.202-.216 7.914 2.28zm3.548 17.658c-.408.554-.871 1.14-1.42 1.694 3.52-6.886.163-13.186.027-13.44.245.25.49.526.708.776 2.704 3.06 3.031 7.638.685 10.97zM8.247 12.768c-.104.401-1.025 3.973 2.083 4.084-1.856-1.14-2.074-4.08-2.074-4.107v.014l-.009.008zm5.414 7.444l-1.42 2.47s1.31-.61 1.828-1.39c.408-.665-.408-1.08-.408-1.08zm-.949 11.446a8.7 8.7 0 01.513-.457c.281-.235.558-.396.803-.535.45-.254.78-.443.78-.91.019-.945-.607-1.13-1.07-1.135.009 0 .013-.004.023-.004-.255.055-.454.143-.454.143s.79-.139 1.093.443c.3.582.055.918-.435 1.25-.25.167-.78.693-1.253 1.205zm2.587-8.561c-.127.11-.55 1.209-.94 2.284-.462.25-2.114 1.145-2.255 1.242-.163.11-.735 1.278-1.175 2.497-.231-.73-.726-1.19-.808-1.27l-.009-.009a.72.72 0 01.023.111c.113.494.553 2.405.386 3.028-.191.72-1.393 1.361-1.393 1.361l1.806.407c-.354.323-.613.424-.822.424a9.331 9.331 0 01-1.393-.36c-.272-.36-.68-1.555-.79-2.054.06-.198.246-.558.404-.867.064-.12.123-.236.168-.328l.046-.088c.3-.586.476-.928.526-1.246.109-.47.463-3.388.6-4.61.353.47.843 1.25.734 1.748.79-1.14.218-2.247-.054-2.695-.245-.443-.572-1.334-.3-2.275.272-.946 1.257-3.554 1.257-3.554s.327.581.79.47c.463-.11 4.202-5.828 4.202-5.828s1.012 2.247-.055 3.886c-1.084 1.647-2.15 1.952-2.15 1.952s.108.018.29.028c.53.124 1.651.3 2.908-.042.45 1.098.817 2.077.84 2.234l-.118.286c-.304.738-1.076 2.598-1.166 2.737-.055.055-.436.166-.708.222-.463.143-.735.226-.844.309zm.735-9.937s.245 1.112-.381 1.86c-.79.918-1.475.886-1.448.886l1.829-2.746zM9.727 28.926l-.218 1.112s.435-.055.435.443c0 .388-.435.919-.79.946-.353.028-.49-.415-.408-.664.082-.226.98-1.837.98-1.837zm4.179-9.272c.957.194 1.23 1.334.708 1.943-.518.581-1.83 1.417-2.591 1.61-.164.637-1.557.36-1.04-1.666 0 0 .245.974.49.886.245-.082 3.032-4.527 3.032-4.527s-.354 1.172-.6 1.754zm-.971 10.338c-.014.268-.041.706-.232.992l.155-.166c.145-.152.349-.373.471-.503.087-.078.182-.138.273-.198.204-.13.38-.25.38-.494 0-.388-.516-.47-.734-.416-.218.056-.272.416-.3.61a4.209 4.209 0 00-.013.175zm12.682 1.075c-.599 2.193-1.965 4.136-3.739 5.525.223-.106.44-.226.658-.346a10.666 10.666 0 003.276-5.15c.023-.065.173-.162.318-.255.04-.027.082-.055.123-.078l.027-.014.018-.01a.095.095 0 00.027-.018l.023-.014c.24-.143.458-.272.508-.47.109-.637.163-1.306.163-1.971 0-.25-.245-.498-.49-.748-.19-.166-.38-.36-.38-.498a10.736 10.736 0 00-2.438-5.75c.014.064.023.128.037.198a10.931 10.931 0 012.237 5.524c0 .102.122.24.24.37.041.046.082.087.114.129.245.249.49.498.49.747 0 .665-.055 1.334-.163 1.971-.055.222-.327.388-.6.526a5 5 0 00-.117.079c-.16.092-.314.189-.332.253zm-4.669-13.993c.331.138 6.003 3.027 6.988 8.69a9.235 9.235 0 01-.1 3.605c.263-.965.404-1.975.404-3.023 0-5.188-3.426-9.568-8.095-10.93-.626.762-1.311 1.26-1.992 1.58.463 1.176 1.02 2.616 1.02 2.718 0 .166-.516 1.527-.57 1.583-.055.027-.681.083-.931.083-.272.665-.545 1.306-.599 1.39-.082.11-.327.193-.844.331-.055.019-.118.037-.177.056-.245.074-.513.152-.558.198-.136.166-.871 2.137-1.366 3.526a1.86 1.86 0 01.218-.027l1.252-3.139s1.284-.637 2.237-.637c1.72-.037 4.261-2.174 3.113-6.004zM9.563 18.6c.19-.36.027-.609-.136-.747l-.054-.056c-.327-.166-2.374-.946-4.397-1.666 1.774 1.195 3.739 2.359 4.065 2.525.25.11.413.138.522-.056z"/></g><defs><clipPath id="clip0_4322_1897"><path fill="#fff" transform="translate(0 8)" d="M0 0h35v44H0z"/></clipPath></defs></svg>