<svg width="146" height="164" fill="none" xmlns="http://www.w3.org/2000/svg"><g clip-path="url(#clip0_2772_4897)" stroke="#BD5114" stroke-width=".6"><rect x=".3" y="-.3" width="77.4" height="73.4" rx="4.7" transform="matrix(1 0 0 -1 68 73.4)"/><rect x=".3" y="-.3" width="77.4" height="73.4" rx="4.7" transform="matrix(1 0 0 -1 60 78.4)"/><rect x=".3" y="-.3" width="77.4" height="73.4" rx="4.7" transform="matrix(1 0 0 -1 52 83.4)"/><rect x=".3" y="-.3" width="77.4" height="73.4" rx="4.7" transform="matrix(1 0 0 -1 44 88.4)"/><rect x=".3" y="-.3" width="77.4" height="73.4" rx="4.7" transform="matrix(1 0 0 -1 28 98.4)"/><rect x=".3" y="-.3" width="77.4" height="73.4" rx="4.7" transform="matrix(1 0 0 -1 20 103.4)"/><rect x=".3" y="-.3" width="77.4" height="73.4" rx="4.7" transform="matrix(1 0 0 -1 12 108.4)"/><rect x=".3" y="-.3" width="77.4" height="73.4" rx="4.7" transform="matrix(1 0 0 -1 4 113.4)"/><rect x=".3" y="-.3" width="77.4" height="73.4" rx="4.7" transform="matrix(1 0 0 -1 -4 118.4)"/><rect x=".3" y="-.3" width="77.4" height="73.4" rx="4.7" transform="matrix(1 0 0 -1 -12 123.4)"/><rect x=".3" y="-.3" width="77.4" height="73.4" rx="4.7" transform="matrix(1 0 0 -1 -20 128.4)"/><rect x=".3" y="-.3" width="77.4" height="73.4" rx="4.7" transform="matrix(1 0 0 -1 -28 133.4)"/><rect x=".3" y="-.3" width="77.4" height="73.4" rx="4.7" transform="matrix(1 0 0 -1 -36 138.4)"/><rect x=".3" y="-.3" width="77.4" height="73.4" rx="4.7" transform="matrix(1 0 0 -1 -44 143.4)"/><rect x=".3" y="-.3" width="77.4" height="73.4" rx="4.7" transform="matrix(1 0 0 -1 -52 148.4)"/><rect x=".3" y="-.3" width="77.4" height="73.4" rx="4.7" transform="matrix(1 0 0 -1 -60 153.4)"/><rect x=".3" y="-.3" width="77.4" height="73.4" rx="4.7" transform="matrix(1 0 0 -1 -68 158.4)"/><rect x=".3" y="-.3" width="77.4" height="73.4" rx="4.7" transform="matrix(1 0 0 -1 -76 163.4)"/><rect x=".3" y="-.3" width="77.4" height="73.4" rx="4.7" transform="matrix(1 0 0 -1 36 93.4)"/></g><defs><clipPath id="clip0_2772_4897"><path fill="#fff" transform="matrix(1 0 0 -1 0 164)" d="M0 0h146v164H0z"/></clipPath></defs></svg>