<svg width="146" height="164" fill="none" xmlns="http://www.w3.org/2000/svg"><g clip-path="url(#clip0_2772_4918)" stroke="#BD5114" stroke-width=".6"><rect x="-.3" y=".3" width="77.4" height="73.4" rx="4.7" transform="matrix(-1 0 0 1 77.4 90)"/><rect x="-.3" y=".3" width="77.4" height="73.4" rx="4.7" transform="matrix(-1 0 0 1 85.4 85)"/><rect x="-.3" y=".3" width="77.4" height="73.4" rx="4.7" transform="matrix(-1 0 0 1 93.4 80)"/><rect x="-.3" y=".3" width="77.4" height="73.4" rx="4.7" transform="matrix(-1 0 0 1 101.4 75)"/><rect x="-.3" y=".3" width="77.4" height="73.4" rx="4.7" transform="matrix(-1 0 0 1 117.4 65)"/><rect x="-.3" y=".3" width="77.4" height="73.4" rx="4.7" transform="matrix(-1 0 0 1 125.4 60)"/><rect x="-.3" y=".3" width="77.4" height="73.4" rx="4.7" transform="matrix(-1 0 0 1 133.4 55)"/><rect x="-.3" y=".3" width="77.4" height="73.4" rx="4.7" transform="matrix(-1 0 0 1 141.4 50)"/><rect x="-.3" y=".3" width="77.4" height="73.4" rx="4.7" transform="matrix(-1 0 0 1 149.4 45)"/><rect x="-.3" y=".3" width="77.4" height="73.4" rx="4.7" transform="matrix(-1 0 0 1 157.4 40)"/><rect x="-.3" y=".3" width="77.4" height="73.4" rx="4.7" transform="matrix(-1 0 0 1 165.4 35)"/><rect x="-.3" y=".3" width="77.4" height="73.4" rx="4.7" transform="matrix(-1 0 0 1 173.4 30)"/><rect x="-.3" y=".3" width="77.4" height="73.4" rx="4.7" transform="matrix(-1 0 0 1 181.4 25)"/><rect x="-.3" y=".3" width="77.4" height="73.4" rx="4.7" transform="matrix(-1 0 0 1 189.4 20)"/><rect x="-.3" y=".3" width="77.4" height="73.4" rx="4.7" transform="matrix(-1 0 0 1 197.4 15)"/><rect x="-.3" y=".3" width="77.4" height="73.4" rx="4.7" transform="matrix(-1 0 0 1 205.4 10)"/><rect x="-.3" y=".3" width="77.4" height="73.4" rx="4.7" transform="matrix(-1 0 0 1 213.4 5)"/><rect x="-.3" y=".3" width="77.4" height="73.4" rx="4.7" transform="matrix(-1 0 0 1 221.4 0)"/><rect x="-.3" y=".3" width="77.4" height="73.4" rx="4.7" transform="matrix(-1 0 0 1 109.4 70)"/></g><defs><clipPath id="clip0_2772_4918"><path fill="#fff" transform="matrix(-1 0 0 1 146 0)" d="M0 0h146v164H0z"/></clipPath></defs></svg>