<svg width="11" height="226" fill="none" xmlns="http://www.w3.org/2000/svg"><g clip-path="url(#clip0_4328_13759)"><path d="M11 221l-.697-.715-3.803 3.79V214h-1v10.075l-3.787-3.79L1 221l5 5 5-5z" fill="url(#paint0_linear_4328_13759)"/></g><g clip-path="url(#clip1_4328_13759)"><path transform="rotate(-90 5 210)" fill="url(#paint1_linear_4328_13759)" d="M5 210h6v1H5z"/><path transform="rotate(-90 5 198)" fill="url(#paint2_linear_4328_13759)" d="M5 198h6v1H5z"/><path transform="rotate(-90 5 186)" fill="url(#paint3_linear_4328_13759)" d="M5 186h6v1H5z"/><path transform="rotate(-90 5 174)" fill="url(#paint4_linear_4328_13759)" d="M5 174h6v1H5z"/><path transform="rotate(-90 5 162)" fill="url(#paint5_linear_4328_13759)" d="M5 162h6v1H5z"/><path transform="rotate(-90 5 150)" fill="url(#paint6_linear_4328_13759)" d="M5 150h6v1H5z"/><path transform="rotate(-90 5 138)" fill="url(#paint7_linear_4328_13759)" d="M5 138h6v1H5z"/><path transform="rotate(-90 5 126)" fill="url(#paint8_linear_4328_13759)" d="M5 126h6v1H5z"/><path transform="rotate(-90 5 114)" fill="url(#paint9_linear_4328_13759)" d="M5 114h6v1H5z"/><path transform="rotate(-90 5 102)" fill="url(#paint10_linear_4328_13759)" d="M5 102h6v1H5z"/><path transform="rotate(-90 5 90)" fill="url(#paint11_linear_4328_13759)" d="M5 90h6v1H5z"/><path transform="rotate(-90 5 78)" fill="url(#paint12_linear_4328_13759)" d="M5 78h6v1H5z"/><path transform="rotate(-90 5 66)" fill="url(#paint13_linear_4328_13759)" d="M5 66h6v1H5z"/><path transform="rotate(-90 5 54)" fill="url(#paint14_linear_4328_13759)" d="M5 54h6v1H5z"/><path transform="rotate(-90 5 42)" fill="url(#paint15_linear_4328_13759)" d="M5 42h6v1H5z"/><path transform="rotate(-90 5 30)" fill="url(#paint16_linear_4328_13759)" d="M5 30h6v1H5z"/><path transform="rotate(-90 5 18)" fill="url(#paint17_linear_4328_13759)" d="M5 18h6v1H5z"/><path transform="rotate(-90 5 6)" fill="url(#paint18_linear_4328_13759)" d="M5 6h6v1H5z"/></g><defs><linearGradient id="paint0_linear_4328_13759" x1="6" y1="214" x2="6" y2="226" gradientUnits="userSpaceOnUse"><stop stop-color="#FF6C1A"/><stop offset="1" stop-color="#994110"/></linearGradient><linearGradient id="paint1_linear_4328_13759" x1="5" y1="210.5" x2="11" y2="210.5" gradientUnits="userSpaceOnUse"><stop stop-color="#994110"/><stop offset="1" stop-color="#FF6C1A"/></linearGradient><linearGradient id="paint2_linear_4328_13759" x1="5" y1="198.5" x2="11" y2="198.5" gradientUnits="userSpaceOnUse"><stop stop-color="#994110"/><stop offset="1" stop-color="#FF6C1A"/></linearGradient><linearGradient id="paint3_linear_4328_13759" x1="5" y1="186.5" x2="11" y2="186.5" gradientUnits="userSpaceOnUse"><stop stop-color="#994110"/><stop offset="1" stop-color="#FF6C1A"/></linearGradient><linearGradient id="paint4_linear_4328_13759" x1="5" y1="174.5" x2="11" y2="174.5" gradientUnits="userSpaceOnUse"><stop stop-color="#994110"/><stop offset="1" stop-color="#FF6C1A"/></linearGradient><linearGradient id="paint5_linear_4328_13759" x1="5" y1="162.5" x2="11" y2="162.5" gradientUnits="userSpaceOnUse"><stop stop-color="#994110"/><stop offset="1" stop-color="#FF6C1A"/></linearGradient><linearGradient id="paint6_linear_4328_13759" x1="5" y1="150.5" x2="11" y2="150.5" gradientUnits="userSpaceOnUse"><stop stop-color="#994110"/><stop offset="1" stop-color="#FF6C1A"/></linearGradient><linearGradient id="paint7_linear_4328_13759" x1="5" y1="138.5" x2="11" y2="138.5" gradientUnits="userSpaceOnUse"><stop stop-color="#994110"/><stop offset="1" stop-color="#FF6C1A"/></linearGradient><linearGradient id="paint8_linear_4328_13759" x1="5" y1="126.5" x2="11" y2="126.5" gradientUnits="userSpaceOnUse"><stop stop-color="#994110"/><stop offset="1" stop-color="#FF6C1A"/></linearGradient><linearGradient id="paint9_linear_4328_13759" x1="5" y1="114.5" x2="11" y2="114.5" gradientUnits="userSpaceOnUse"><stop stop-color="#994110"/><stop offset="1" stop-color="#FF6C1A"/></linearGradient><linearGradient id="paint10_linear_4328_13759" x1="5" y1="102.5" x2="11" y2="102.5" gradientUnits="userSpaceOnUse"><stop stop-color="#994110"/><stop offset="1" stop-color="#FF6C1A"/></linearGradient><linearGradient id="paint11_linear_4328_13759" x1="5" y1="90.5" x2="11" y2="90.5" gradientUnits="userSpaceOnUse"><stop stop-color="#994110"/><stop offset="1" stop-color="#FF6C1A"/></linearGradient><linearGradient id="paint12_linear_4328_13759" x1="5" y1="78.5" x2="11" y2="78.5" gradientUnits="userSpaceOnUse"><stop stop-color="#994110"/><stop offset="1" stop-color="#FF6C1A"/></linearGradient><linearGradient id="paint13_linear_4328_13759" x1="5" y1="66.5" x2="11" y2="66.5" gradientUnits="userSpaceOnUse"><stop stop-color="#994110"/><stop offset="1" stop-color="#FF6C1A"/></linearGradient><linearGradient id="paint14_linear_4328_13759" x1="5" y1="54.5" x2="11" y2="54.5" gradientUnits="userSpaceOnUse"><stop stop-color="#994110"/><stop offset="1" stop-color="#FF6C1A"/></linearGradient><linearGradient id="paint15_linear_4328_13759" x1="5" y1="42.5" x2="11" y2="42.5" gradientUnits="userSpaceOnUse"><stop stop-color="#994110"/><stop offset="1" stop-color="#FF6C1A"/></linearGradient><linearGradient id="paint16_linear_4328_13759" x1="5" y1="30.5" x2="11" y2="30.5" gradientUnits="userSpaceOnUse"><stop stop-color="#994110"/><stop offset="1" stop-color="#FF6C1A"/></linearGradient><linearGradient id="paint17_linear_4328_13759" x1="5" y1="18.5" x2="11" y2="18.5" gradientUnits="userSpaceOnUse"><stop stop-color="#994110"/><stop offset="1" stop-color="#FF6C1A"/></linearGradient><linearGradient id="paint18_linear_4328_13759" x1="5" y1="6.5" x2="11" y2="6.5" gradientUnits="userSpaceOnUse"><stop stop-color="#994110"/><stop offset="1" stop-color="#FF6C1A"/></linearGradient><clipPath id="clip0_4328_13759"><path fill="#fff" transform="rotate(90 -101 112)" d="M0 0h13v11H0z"/></clipPath><clipPath id="clip1_4328_13759"><path fill="#fff" transform="matrix(0 -1 1 0 5 210)" d="M0 0h210v1H0z"/></clipPath></defs></svg>