<svg width="1" height="641" fill="none" xmlns="http://www.w3.org/2000/svg"><g clip-path="url(#clip0_2884_26023)"><path transform="rotate(-90 0 641)" fill="url(#paint0_linear_2884_26023)" d="M0 641h6v1H0z"/><path transform="rotate(-90 0 629)" fill="url(#paint1_linear_2884_26023)" d="M0 629h6v1H0z"/><path transform="rotate(-90 0 617)" fill="url(#paint2_linear_2884_26023)" d="M0 617h6v1H0z"/><path transform="rotate(-90 0 605)" fill="url(#paint3_linear_2884_26023)" d="M0 605h6v1H0z"/><path transform="rotate(-90 0 593)" fill="url(#paint4_linear_2884_26023)" d="M0 593h6v1H0z"/><path transform="rotate(-90 0 581)" fill="url(#paint5_linear_2884_26023)" d="M0 581h6v1H0z"/><path transform="rotate(-90 0 569)" fill="url(#paint6_linear_2884_26023)" d="M0 569h6v1H0z"/><path transform="rotate(-90 0 557)" fill="url(#paint7_linear_2884_26023)" d="M0 557h6v1H0z"/><path transform="rotate(-90 0 545)" fill="url(#paint8_linear_2884_26023)" d="M0 545h6v1H0z"/><path transform="rotate(-90 0 533)" fill="url(#paint9_linear_2884_26023)" d="M0 533h6v1H0z"/><path transform="rotate(-90 0 521)" fill="url(#paint10_linear_2884_26023)" d="M0 521h6v1H0z"/><path transform="rotate(-90 0 509)" fill="url(#paint11_linear_2884_26023)" d="M0 509h6v1H0z"/><path transform="rotate(-90 0 497)" fill="url(#paint12_linear_2884_26023)" d="M0 497h6v1H0z"/><path transform="rotate(-90 0 485)" fill="url(#paint13_linear_2884_26023)" d="M0 485h6v1H0z"/><path transform="rotate(-90 0 473)" fill="url(#paint14_linear_2884_26023)" d="M0 473h6v1H0z"/><path transform="rotate(-90 0 461)" fill="url(#paint15_linear_2884_26023)" d="M0 461h6v1H0z"/><path transform="rotate(-90 0 449)" fill="url(#paint16_linear_2884_26023)" d="M0 449h6v1H0z"/><path transform="rotate(-90 0 437)" fill="url(#paint17_linear_2884_26023)" d="M0 437h6v1H0z"/><path transform="rotate(-90 0 425)" fill="url(#paint18_linear_2884_26023)" d="M0 425h6v1H0z"/><path transform="rotate(-90 0 413)" fill="url(#paint19_linear_2884_26023)" d="M0 413h6v1H0z"/><path transform="rotate(-90 0 401)" fill="url(#paint20_linear_2884_26023)" d="M0 401h6v1H0z"/><path transform="rotate(-90 0 389)" fill="url(#paint21_linear_2884_26023)" d="M0 389h6v1H0z"/><path transform="rotate(-90 0 377)" fill="url(#paint22_linear_2884_26023)" d="M0 377h6v1H0z"/><path transform="rotate(-90 0 365)" fill="url(#paint23_linear_2884_26023)" d="M0 365h6v1H0z"/><path transform="rotate(-90 0 353)" fill="url(#paint24_linear_2884_26023)" d="M0 353h6v1H0z"/><path transform="rotate(-90 0 341)" fill="url(#paint25_linear_2884_26023)" d="M0 341h6v1H0z"/><path transform="rotate(-90 0 329)" fill="url(#paint26_linear_2884_26023)" d="M0 329h6v1H0z"/><path transform="rotate(-90 0 317)" fill="url(#paint27_linear_2884_26023)" d="M0 317h6v1H0z"/><path transform="rotate(-90 0 305)" fill="url(#paint28_linear_2884_26023)" d="M0 305h6v1H0z"/><path transform="rotate(-90 0 293)" fill="url(#paint29_linear_2884_26023)" d="M0 293h6v1H0z"/><path transform="rotate(-90 0 281)" fill="url(#paint30_linear_2884_26023)" d="M0 281h6v1H0z"/><path transform="rotate(-90 0 269)" fill="url(#paint31_linear_2884_26023)" d="M0 269h6v1H0z"/><path transform="rotate(-90 0 257)" fill="url(#paint32_linear_2884_26023)" d="M0 257h6v1H0z"/><path transform="rotate(-90 0 245)" fill="url(#paint33_linear_2884_26023)" d="M0 245h6v1H0z"/><path transform="rotate(-90 0 233)" fill="url(#paint34_linear_2884_26023)" d="M0 233h6v1H0z"/><path transform="rotate(-90 0 221)" fill="url(#paint35_linear_2884_26023)" d="M0 221h6v1H0z"/><path transform="rotate(-90 0 209)" fill="url(#paint36_linear_2884_26023)" d="M0 209h6v1H0z"/><path transform="rotate(-90 0 197)" fill="url(#paint37_linear_2884_26023)" d="M0 197h6v1H0z"/><path transform="rotate(-90 0 185)" fill="url(#paint38_linear_2884_26023)" d="M0 185h6v1H0z"/><path transform="rotate(-90 0 173)" fill="url(#paint39_linear_2884_26023)" d="M0 173h6v1H0z"/><path transform="rotate(-90 0 161)" fill="url(#paint40_linear_2884_26023)" d="M0 161h6v1H0z"/><path transform="rotate(-90 0 149)" fill="url(#paint41_linear_2884_26023)" d="M0 149h6v1H0z"/><path transform="rotate(-90 0 137)" fill="url(#paint42_linear_2884_26023)" d="M0 137h6v1H0z"/><path transform="rotate(-90 0 125)" fill="url(#paint43_linear_2884_26023)" d="M0 125h6v1H0z"/><path transform="rotate(-90 0 113)" fill="url(#paint44_linear_2884_26023)" d="M0 113h6v1H0z"/><path transform="rotate(-90 0 101)" fill="url(#paint45_linear_2884_26023)" d="M0 101h6v1H0z"/><path transform="rotate(-90 0 89)" fill="url(#paint46_linear_2884_26023)" d="M0 89h6v1H0z"/><path transform="rotate(-90 0 77)" fill="url(#paint47_linear_2884_26023)" d="M0 77h6v1H0z"/><path transform="rotate(-90 0 65)" fill="url(#paint48_linear_2884_26023)" d="M0 65h6v1H0z"/><path transform="rotate(-90 0 53)" fill="url(#paint49_linear_2884_26023)" d="M0 53h6v1H0z"/><path transform="rotate(-90 0 41)" fill="url(#paint50_linear_2884_26023)" d="M0 41h6v1H0z"/><path transform="rotate(-90 0 29)" fill="url(#paint51_linear_2884_26023)" d="M0 29h6v1H0z"/><path transform="rotate(-90 0 17)" fill="url(#paint52_linear_2884_26023)" d="M0 17h6v1H0z"/><path transform="rotate(-90 0 5)" fill="url(#paint53_linear_2884_26023)" d="M0 5h6v1H0z"/></g><defs><linearGradient id="paint0_linear_2884_26023" x1="0" y1="641.5" x2="6" y2="641.5" gradientUnits="userSpaceOnUse"><stop stop-color="#994110"/><stop offset="1" stop-color="#FF6C1A"/></linearGradient><linearGradient id="paint1_linear_2884_26023" x1="0" y1="629.5" x2="6" y2="629.5" gradientUnits="userSpaceOnUse"><stop stop-color="#994110"/><stop offset="1" stop-color="#FF6C1A"/></linearGradient><linearGradient id="paint2_linear_2884_26023" x1="0" y1="617.5" x2="6" y2="617.5" gradientUnits="userSpaceOnUse"><stop stop-color="#994110"/><stop offset="1" stop-color="#FF6C1A"/></linearGradient><linearGradient id="paint3_linear_2884_26023" x1="0" y1="605.5" x2="6" y2="605.5" gradientUnits="userSpaceOnUse"><stop stop-color="#994110"/><stop offset="1" stop-color="#FF6C1A"/></linearGradient><linearGradient id="paint4_linear_2884_26023" x1="0" y1="593.5" x2="6" y2="593.5" gradientUnits="userSpaceOnUse"><stop stop-color="#994110"/><stop offset="1" stop-color="#FF6C1A"/></linearGradient><linearGradient id="paint5_linear_2884_26023" x1="0" y1="581.5" x2="6" y2="581.5" gradientUnits="userSpaceOnUse"><stop stop-color="#994110"/><stop offset="1" stop-color="#FF6C1A"/></linearGradient><linearGradient id="paint6_linear_2884_26023" x1="0" y1="569.5" x2="6" y2="569.5" gradientUnits="userSpaceOnUse"><stop stop-color="#994110"/><stop offset="1" stop-color="#FF6C1A"/></linearGradient><linearGradient id="paint7_linear_2884_26023" x1="0" y1="557.5" x2="6" y2="557.5" gradientUnits="userSpaceOnUse"><stop stop-color="#994110"/><stop offset="1" stop-color="#FF6C1A"/></linearGradient><linearGradient id="paint8_linear_2884_26023" x1="0" y1="545.5" x2="6" y2="545.5" gradientUnits="userSpaceOnUse"><stop stop-color="#994110"/><stop offset="1" stop-color="#FF6C1A"/></linearGradient><linearGradient id="paint9_linear_2884_26023" x1="0" y1="533.5" x2="6" y2="533.5" gradientUnits="userSpaceOnUse"><stop stop-color="#994110"/><stop offset="1" stop-color="#FF6C1A"/></linearGradient><linearGradient id="paint10_linear_2884_26023" x1="0" y1="521.5" x2="6" y2="521.5" gradientUnits="userSpaceOnUse"><stop stop-color="#994110"/><stop offset="1" stop-color="#FF6C1A"/></linearGradient><linearGradient id="paint11_linear_2884_26023" x1="0" y1="509.5" x2="6" y2="509.5" gradientUnits="userSpaceOnUse"><stop stop-color="#994110"/><stop offset="1" stop-color="#FF6C1A"/></linearGradient><linearGradient id="paint12_linear_2884_26023" x1="0" y1="497.5" x2="6" y2="497.5" gradientUnits="userSpaceOnUse"><stop stop-color="#994110"/><stop offset="1" stop-color="#FF6C1A"/></linearGradient><linearGradient id="paint13_linear_2884_26023" x1="0" y1="485.5" x2="6" y2="485.5" gradientUnits="userSpaceOnUse"><stop stop-color="#994110"/><stop offset="1" stop-color="#FF6C1A"/></linearGradient><linearGradient id="paint14_linear_2884_26023" x1="0" y1="473.5" x2="6" y2="473.5" gradientUnits="userSpaceOnUse"><stop stop-color="#994110"/><stop offset="1" stop-color="#FF6C1A"/></linearGradient><linearGradient id="paint15_linear_2884_26023" x1="0" y1="461.5" x2="6" y2="461.5" gradientUnits="userSpaceOnUse"><stop stop-color="#994110"/><stop offset="1" stop-color="#FF6C1A"/></linearGradient><linearGradient id="paint16_linear_2884_26023" x1="0" y1="449.5" x2="6" y2="449.5" gradientUnits="userSpaceOnUse"><stop stop-color="#994110"/><stop offset="1" stop-color="#FF6C1A"/></linearGradient><linearGradient id="paint17_linear_2884_26023" x1="0" y1="437.5" x2="6" y2="437.5" gradientUnits="userSpaceOnUse"><stop stop-color="#994110"/><stop offset="1" stop-color="#FF6C1A"/></linearGradient><linearGradient id="paint18_linear_2884_26023" x1="0" y1="425.5" x2="6" y2="425.5" gradientUnits="userSpaceOnUse"><stop stop-color="#994110"/><stop offset="1" stop-color="#FF6C1A"/></linearGradient><linearGradient id="paint19_linear_2884_26023" x1="0" y1="413.5" x2="6" y2="413.5" gradientUnits="userSpaceOnUse"><stop stop-color="#994110"/><stop offset="1" stop-color="#FF6C1A"/></linearGradient><linearGradient id="paint20_linear_2884_26023" x1="0" y1="401.5" x2="6" y2="401.5" gradientUnits="userSpaceOnUse"><stop stop-color="#994110"/><stop offset="1" stop-color="#FF6C1A"/></linearGradient><linearGradient id="paint21_linear_2884_26023" x1="0" y1="389.5" x2="6" y2="389.5" gradientUnits="userSpaceOnUse"><stop stop-color="#994110"/><stop offset="1" stop-color="#FF6C1A"/></linearGradient><linearGradient id="paint22_linear_2884_26023" x1="0" y1="377.5" x2="6" y2="377.5" gradientUnits="userSpaceOnUse"><stop stop-color="#994110"/><stop offset="1" stop-color="#FF6C1A"/></linearGradient><linearGradient id="paint23_linear_2884_26023" x1="0" y1="365.5" x2="6" y2="365.5" gradientUnits="userSpaceOnUse"><stop stop-color="#994110"/><stop offset="1" stop-color="#FF6C1A"/></linearGradient><linearGradient id="paint24_linear_2884_26023" x1="0" y1="353.5" x2="6" y2="353.5" gradientUnits="userSpaceOnUse"><stop stop-color="#994110"/><stop offset="1" stop-color="#FF6C1A"/></linearGradient><linearGradient id="paint25_linear_2884_26023" x1="0" y1="341.5" x2="6" y2="341.5" gradientUnits="userSpaceOnUse"><stop stop-color="#994110"/><stop offset="1" stop-color="#FF6C1A"/></linearGradient><linearGradient id="paint26_linear_2884_26023" x1="0" y1="329.5" x2="6" y2="329.5" gradientUnits="userSpaceOnUse"><stop stop-color="#994110"/><stop offset="1" stop-color="#FF6C1A"/></linearGradient><linearGradient id="paint27_linear_2884_26023" x1="0" y1="317.5" x2="6" y2="317.5" gradientUnits="userSpaceOnUse"><stop stop-color="#994110"/><stop offset="1" stop-color="#FF6C1A"/></linearGradient><linearGradient id="paint28_linear_2884_26023" x1="0" y1="305.5" x2="6" y2="305.5" gradientUnits="userSpaceOnUse"><stop stop-color="#994110"/><stop offset="1" stop-color="#FF6C1A"/></linearGradient><linearGradient id="paint29_linear_2884_26023" x1="0" y1="293.5" x2="6" y2="293.5" gradientUnits="userSpaceOnUse"><stop stop-color="#994110"/><stop offset="1" stop-color="#FF6C1A"/></linearGradient><linearGradient id="paint30_linear_2884_26023" x1="0" y1="281.5" x2="6" y2="281.5" gradientUnits="userSpaceOnUse"><stop stop-color="#994110"/><stop offset="1" stop-color="#FF6C1A"/></linearGradient><linearGradient id="paint31_linear_2884_26023" x1="0" y1="269.5" x2="6" y2="269.5" gradientUnits="userSpaceOnUse"><stop stop-color="#994110"/><stop offset="1" stop-color="#FF6C1A"/></linearGradient><linearGradient id="paint32_linear_2884_26023" x1="0" y1="257.5" x2="6" y2="257.5" gradientUnits="userSpaceOnUse"><stop stop-color="#994110"/><stop offset="1" stop-color="#FF6C1A"/></linearGradient><linearGradient id="paint33_linear_2884_26023" x1="0" y1="245.5" x2="6" y2="245.5" gradientUnits="userSpaceOnUse"><stop stop-color="#994110"/><stop offset="1" stop-color="#FF6C1A"/></linearGradient><linearGradient id="paint34_linear_2884_26023" x1="0" y1="233.5" x2="6" y2="233.5" gradientUnits="userSpaceOnUse"><stop stop-color="#994110"/><stop offset="1" stop-color="#FF6C1A"/></linearGradient><linearGradient id="paint35_linear_2884_26023" x1="0" y1="221.5" x2="6" y2="221.5" gradientUnits="userSpaceOnUse"><stop stop-color="#994110"/><stop offset="1" stop-color="#FF6C1A"/></linearGradient><linearGradient id="paint36_linear_2884_26023" x1="0" y1="209.5" x2="6" y2="209.5" gradientUnits="userSpaceOnUse"><stop stop-color="#994110"/><stop offset="1" stop-color="#FF6C1A"/></linearGradient><linearGradient id="paint37_linear_2884_26023" x1="0" y1="197.5" x2="6" y2="197.5" gradientUnits="userSpaceOnUse"><stop stop-color="#994110"/><stop offset="1" stop-color="#FF6C1A"/></linearGradient><linearGradient id="paint38_linear_2884_26023" x1="0" y1="185.5" x2="6" y2="185.5" gradientUnits="userSpaceOnUse"><stop stop-color="#994110"/><stop offset="1" stop-color="#FF6C1A"/></linearGradient><linearGradient id="paint39_linear_2884_26023" x1="0" y1="173.5" x2="6" y2="173.5" gradientUnits="userSpaceOnUse"><stop stop-color="#994110"/><stop offset="1" stop-color="#FF6C1A"/></linearGradient><linearGradient id="paint40_linear_2884_26023" x1="0" y1="161.5" x2="6" y2="161.5" gradientUnits="userSpaceOnUse"><stop stop-color="#994110"/><stop offset="1" stop-color="#FF6C1A"/></linearGradient><linearGradient id="paint41_linear_2884_26023" x1="0" y1="149.5" x2="6" y2="149.5" gradientUnits="userSpaceOnUse"><stop stop-color="#994110"/><stop offset="1" stop-color="#FF6C1A"/></linearGradient><linearGradient id="paint42_linear_2884_26023" x1="0" y1="137.5" x2="6" y2="137.5" gradientUnits="userSpaceOnUse"><stop stop-color="#994110"/><stop offset="1" stop-color="#FF6C1A"/></linearGradient><linearGradient id="paint43_linear_2884_26023" x1="0" y1="125.5" x2="6" y2="125.5" gradientUnits="userSpaceOnUse"><stop stop-color="#994110"/><stop offset="1" stop-color="#FF6C1A"/></linearGradient><linearGradient id="paint44_linear_2884_26023" x1="0" y1="113.5" x2="6" y2="113.5" gradientUnits="userSpaceOnUse"><stop stop-color="#994110"/><stop offset="1" stop-color="#FF6C1A"/></linearGradient><linearGradient id="paint45_linear_2884_26023" x1="0" y1="101.5" x2="6" y2="101.5" gradientUnits="userSpaceOnUse"><stop stop-color="#994110"/><stop offset="1" stop-color="#FF6C1A"/></linearGradient><linearGradient id="paint46_linear_2884_26023" x1="0" y1="89.5" x2="6" y2="89.5" gradientUnits="userSpaceOnUse"><stop stop-color="#994110"/><stop offset="1" stop-color="#FF6C1A"/></linearGradient><linearGradient id="paint47_linear_2884_26023" x1="0" y1="77.5" x2="6" y2="77.5" gradientUnits="userSpaceOnUse"><stop stop-color="#994110"/><stop offset="1" stop-color="#FF6C1A"/></linearGradient><linearGradient id="paint48_linear_2884_26023" x1="0" y1="65.5" x2="6" y2="65.5" gradientUnits="userSpaceOnUse"><stop stop-color="#994110"/><stop offset="1" stop-color="#FF6C1A"/></linearGradient><linearGradient id="paint49_linear_2884_26023" x1="0" y1="53.5" x2="6" y2="53.5" gradientUnits="userSpaceOnUse"><stop stop-color="#994110"/><stop offset="1" stop-color="#FF6C1A"/></linearGradient><linearGradient id="paint50_linear_2884_26023" x1="0" y1="41.5" x2="6" y2="41.5" gradientUnits="userSpaceOnUse"><stop stop-color="#994110"/><stop offset="1" stop-color="#FF6C1A"/></linearGradient><linearGradient id="paint51_linear_2884_26023" x1="0" y1="29.5" x2="6" y2="29.5" gradientUnits="userSpaceOnUse"><stop stop-color="#994110"/><stop offset="1" stop-color="#FF6C1A"/></linearGradient><linearGradient id="paint52_linear_2884_26023" x1="0" y1="17.5" x2="6" y2="17.5" gradientUnits="userSpaceOnUse"><stop stop-color="#994110"/><stop offset="1" stop-color="#FF6C1A"/></linearGradient><linearGradient id="paint53_linear_2884_26023" x1="0" y1="5.5" x2="6" y2="5.5" gradientUnits="userSpaceOnUse"><stop stop-color="#994110"/><stop offset="1" stop-color="#FF6C1A"/></linearGradient><clipPath id="clip0_2884_26023"><path fill="#fff" transform="matrix(0 -1 1 0 0 641)" d="M0 0h641v1H0z"/></clipPath></defs></svg>