<svg width="450" height="1" fill="none" xmlns="http://www.w3.org/2000/svg"><g clip-path="url(#clip0_2886_22460)"><path transform="rotate(-180 450 1)" fill="url(#paint0_linear_2886_22460)" d="M450 1h6v1h-6z"/><path transform="rotate(-180 438 1)" fill="url(#paint1_linear_2886_22460)" d="M438 1h6v1h-6z"/><path transform="rotate(-180 426 1)" fill="url(#paint2_linear_2886_22460)" d="M426 1h6v1h-6z"/><path transform="rotate(-180 414 1)" fill="url(#paint3_linear_2886_22460)" d="M414 1h6v1h-6z"/><path transform="rotate(-180 402 1)" fill="url(#paint4_linear_2886_22460)" d="M402 1h6v1h-6z"/><path transform="rotate(-180 390 1)" fill="url(#paint5_linear_2886_22460)" d="M390 1h6v1h-6z"/><path transform="rotate(-180 378 1)" fill="url(#paint6_linear_2886_22460)" d="M378 1h6v1h-6z"/><path transform="rotate(-180 366 1)" fill="url(#paint7_linear_2886_22460)" d="M366 1h6v1h-6z"/><path transform="rotate(-180 354 1)" fill="url(#paint8_linear_2886_22460)" d="M354 1h6v1h-6z"/><path transform="rotate(-180 342 1)" fill="url(#paint9_linear_2886_22460)" d="M342 1h6v1h-6z"/><path transform="rotate(-180 330 1)" fill="url(#paint10_linear_2886_22460)" d="M330 1h6v1h-6z"/><path transform="rotate(-180 318 1)" fill="url(#paint11_linear_2886_22460)" d="M318 1h6v1h-6z"/><path transform="rotate(-180 306 1)" fill="url(#paint12_linear_2886_22460)" d="M306 1h6v1h-6z"/><path transform="rotate(-180 294 1)" fill="url(#paint13_linear_2886_22460)" d="M294 1h6v1h-6z"/><path transform="rotate(-180 282 1)" fill="url(#paint14_linear_2886_22460)" d="M282 1h6v1h-6z"/><path transform="rotate(-180 270 1)" fill="url(#paint15_linear_2886_22460)" d="M270 1h6v1h-6z"/><path transform="rotate(-180 258 1)" fill="url(#paint16_linear_2886_22460)" d="M258 1h6v1h-6z"/><path transform="rotate(-180 246 1)" fill="url(#paint17_linear_2886_22460)" d="M246 1h6v1h-6z"/><path transform="rotate(-180 234 1)" fill="url(#paint18_linear_2886_22460)" d="M234 1h6v1h-6z"/><path transform="rotate(-180 222 1)" fill="url(#paint19_linear_2886_22460)" d="M222 1h6v1h-6z"/><path transform="rotate(-180 210 1)" fill="url(#paint20_linear_2886_22460)" d="M210 1h6v1h-6z"/><path transform="rotate(-180 198 1)" fill="url(#paint21_linear_2886_22460)" d="M198 1h6v1h-6z"/><path transform="rotate(-180 186 1)" fill="url(#paint22_linear_2886_22460)" d="M186 1h6v1h-6z"/><path transform="rotate(-180 174 1)" fill="url(#paint23_linear_2886_22460)" d="M174 1h6v1h-6z"/><path transform="rotate(-180 162 1)" fill="url(#paint24_linear_2886_22460)" d="M162 1h6v1h-6z"/><path transform="rotate(-180 150 1)" fill="url(#paint25_linear_2886_22460)" d="M150 1h6v1h-6z"/><path transform="rotate(-180 138 1)" fill="url(#paint26_linear_2886_22460)" d="M138 1h6v1h-6z"/><path transform="rotate(-180 126 1)" fill="url(#paint27_linear_2886_22460)" d="M126 1h6v1h-6z"/><path transform="rotate(-180 114 1)" fill="url(#paint28_linear_2886_22460)" d="M114 1h6v1h-6z"/><path transform="rotate(-180 102 1)" fill="url(#paint29_linear_2886_22460)" d="M102 1h6v1h-6z"/><path transform="rotate(-180 90 1)" fill="url(#paint30_linear_2886_22460)" d="M90 1h6v1h-6z"/><path transform="rotate(-180 78 1)" fill="url(#paint31_linear_2886_22460)" d="M78 1h6v1h-6z"/><path transform="rotate(-180 66 1)" fill="url(#paint32_linear_2886_22460)" d="M66 1h6v1h-6z"/><path transform="rotate(-180 54 1)" fill="url(#paint33_linear_2886_22460)" d="M54 1h6v1h-6z"/><path transform="rotate(-180 42 1)" fill="url(#paint34_linear_2886_22460)" d="M42 1h6v1h-6z"/><path transform="rotate(-180 30 1)" fill="url(#paint35_linear_2886_22460)" d="M30 1h6v1h-6z"/><path transform="rotate(-180 18 1)" fill="url(#paint36_linear_2886_22460)" d="M18 1h6v1h-6z"/><path transform="rotate(-180 6 1)" fill="url(#paint37_linear_2886_22460)" d="M6 1h6v1H6z"/></g><defs><linearGradient id="paint0_linear_2886_22460" x1="450" y1="1.5" x2="456" y2="1.5" gradientUnits="userSpaceOnUse"><stop stop-color="#994110"/><stop offset="1" stop-color="#FF6C1A"/></linearGradient><linearGradient id="paint1_linear_2886_22460" x1="438" y1="1.5" x2="444" y2="1.5" gradientUnits="userSpaceOnUse"><stop stop-color="#994110"/><stop offset="1" stop-color="#FF6C1A"/></linearGradient><linearGradient id="paint2_linear_2886_22460" x1="426" y1="1.5" x2="432" y2="1.5" gradientUnits="userSpaceOnUse"><stop stop-color="#994110"/><stop offset="1" stop-color="#FF6C1A"/></linearGradient><linearGradient id="paint3_linear_2886_22460" x1="414" y1="1.5" x2="420" y2="1.5" gradientUnits="userSpaceOnUse"><stop stop-color="#994110"/><stop offset="1" stop-color="#FF6C1A"/></linearGradient><linearGradient id="paint4_linear_2886_22460" x1="402" y1="1.5" x2="408" y2="1.5" gradientUnits="userSpaceOnUse"><stop stop-color="#994110"/><stop offset="1" stop-color="#FF6C1A"/></linearGradient><linearGradient id="paint5_linear_2886_22460" x1="390" y1="1.5" x2="396" y2="1.5" gradientUnits="userSpaceOnUse"><stop stop-color="#994110"/><stop offset="1" stop-color="#FF6C1A"/></linearGradient><linearGradient id="paint6_linear_2886_22460" x1="378" y1="1.5" x2="384" y2="1.5" gradientUnits="userSpaceOnUse"><stop stop-color="#994110"/><stop offset="1" stop-color="#FF6C1A"/></linearGradient><linearGradient id="paint7_linear_2886_22460" x1="366" y1="1.5" x2="372" y2="1.5" gradientUnits="userSpaceOnUse"><stop stop-color="#994110"/><stop offset="1" stop-color="#FF6C1A"/></linearGradient><linearGradient id="paint8_linear_2886_22460" x1="354" y1="1.5" x2="360" y2="1.5" gradientUnits="userSpaceOnUse"><stop stop-color="#994110"/><stop offset="1" stop-color="#FF6C1A"/></linearGradient><linearGradient id="paint9_linear_2886_22460" x1="342" y1="1.5" x2="348" y2="1.5" gradientUnits="userSpaceOnUse"><stop stop-color="#994110"/><stop offset="1" stop-color="#FF6C1A"/></linearGradient><linearGradient id="paint10_linear_2886_22460" x1="330" y1="1.5" x2="336" y2="1.5" gradientUnits="userSpaceOnUse"><stop stop-color="#994110"/><stop offset="1" stop-color="#FF6C1A"/></linearGradient><linearGradient id="paint11_linear_2886_22460" x1="318" y1="1.5" x2="324" y2="1.5" gradientUnits="userSpaceOnUse"><stop stop-color="#994110"/><stop offset="1" stop-color="#FF6C1A"/></linearGradient><linearGradient id="paint12_linear_2886_22460" x1="306" y1="1.5" x2="312" y2="1.5" gradientUnits="userSpaceOnUse"><stop stop-color="#994110"/><stop offset="1" stop-color="#FF6C1A"/></linearGradient><linearGradient id="paint13_linear_2886_22460" x1="294" y1="1.5" x2="300" y2="1.5" gradientUnits="userSpaceOnUse"><stop stop-color="#994110"/><stop offset="1" stop-color="#FF6C1A"/></linearGradient><linearGradient id="paint14_linear_2886_22460" x1="282" y1="1.5" x2="288" y2="1.5" gradientUnits="userSpaceOnUse"><stop stop-color="#994110"/><stop offset="1" stop-color="#FF6C1A"/></linearGradient><linearGradient id="paint15_linear_2886_22460" x1="270" y1="1.5" x2="276" y2="1.5" gradientUnits="userSpaceOnUse"><stop stop-color="#994110"/><stop offset="1" stop-color="#FF6C1A"/></linearGradient><linearGradient id="paint16_linear_2886_22460" x1="258" y1="1.5" x2="264" y2="1.5" gradientUnits="userSpaceOnUse"><stop stop-color="#994110"/><stop offset="1" stop-color="#FF6C1A"/></linearGradient><linearGradient id="paint17_linear_2886_22460" x1="246" y1="1.5" x2="252" y2="1.5" gradientUnits="userSpaceOnUse"><stop stop-color="#994110"/><stop offset="1" stop-color="#FF6C1A"/></linearGradient><linearGradient id="paint18_linear_2886_22460" x1="234" y1="1.5" x2="240" y2="1.5" gradientUnits="userSpaceOnUse"><stop stop-color="#994110"/><stop offset="1" stop-color="#FF6C1A"/></linearGradient><linearGradient id="paint19_linear_2886_22460" x1="222" y1="1.5" x2="228" y2="1.5" gradientUnits="userSpaceOnUse"><stop stop-color="#994110"/><stop offset="1" stop-color="#FF6C1A"/></linearGradient><linearGradient id="paint20_linear_2886_22460" x1="210" y1="1.5" x2="216" y2="1.5" gradientUnits="userSpaceOnUse"><stop stop-color="#994110"/><stop offset="1" stop-color="#FF6C1A"/></linearGradient><linearGradient id="paint21_linear_2886_22460" x1="198" y1="1.5" x2="204" y2="1.5" gradientUnits="userSpaceOnUse"><stop stop-color="#994110"/><stop offset="1" stop-color="#FF6C1A"/></linearGradient><linearGradient id="paint22_linear_2886_22460" x1="186" y1="1.5" x2="192" y2="1.5" gradientUnits="userSpaceOnUse"><stop stop-color="#994110"/><stop offset="1" stop-color="#FF6C1A"/></linearGradient><linearGradient id="paint23_linear_2886_22460" x1="174" y1="1.5" x2="180" y2="1.5" gradientUnits="userSpaceOnUse"><stop stop-color="#994110"/><stop offset="1" stop-color="#FF6C1A"/></linearGradient><linearGradient id="paint24_linear_2886_22460" x1="162" y1="1.5" x2="168" y2="1.5" gradientUnits="userSpaceOnUse"><stop stop-color="#994110"/><stop offset="1" stop-color="#FF6C1A"/></linearGradient><linearGradient id="paint25_linear_2886_22460" x1="150" y1="1.5" x2="156" y2="1.5" gradientUnits="userSpaceOnUse"><stop stop-color="#994110"/><stop offset="1" stop-color="#FF6C1A"/></linearGradient><linearGradient id="paint26_linear_2886_22460" x1="138" y1="1.5" x2="144" y2="1.5" gradientUnits="userSpaceOnUse"><stop stop-color="#994110"/><stop offset="1" stop-color="#FF6C1A"/></linearGradient><linearGradient id="paint27_linear_2886_22460" x1="126" y1="1.5" x2="132" y2="1.5" gradientUnits="userSpaceOnUse"><stop stop-color="#994110"/><stop offset="1" stop-color="#FF6C1A"/></linearGradient><linearGradient id="paint28_linear_2886_22460" x1="114" y1="1.5" x2="120" y2="1.5" gradientUnits="userSpaceOnUse"><stop stop-color="#994110"/><stop offset="1" stop-color="#FF6C1A"/></linearGradient><linearGradient id="paint29_linear_2886_22460" x1="102" y1="1.5" x2="108" y2="1.5" gradientUnits="userSpaceOnUse"><stop stop-color="#994110"/><stop offset="1" stop-color="#FF6C1A"/></linearGradient><linearGradient id="paint30_linear_2886_22460" x1="90" y1="1.5" x2="96" y2="1.5" gradientUnits="userSpaceOnUse"><stop stop-color="#994110"/><stop offset="1" stop-color="#FF6C1A"/></linearGradient><linearGradient id="paint31_linear_2886_22460" x1="78" y1="1.5" x2="84" y2="1.5" gradientUnits="userSpaceOnUse"><stop stop-color="#994110"/><stop offset="1" stop-color="#FF6C1A"/></linearGradient><linearGradient id="paint32_linear_2886_22460" x1="66" y1="1.5" x2="72" y2="1.5" gradientUnits="userSpaceOnUse"><stop stop-color="#994110"/><stop offset="1" stop-color="#FF6C1A"/></linearGradient><linearGradient id="paint33_linear_2886_22460" x1="54" y1="1.5" x2="60" y2="1.5" gradientUnits="userSpaceOnUse"><stop stop-color="#994110"/><stop offset="1" stop-color="#FF6C1A"/></linearGradient><linearGradient id="paint34_linear_2886_22460" x1="42" y1="1.5" x2="48" y2="1.5" gradientUnits="userSpaceOnUse"><stop stop-color="#994110"/><stop offset="1" stop-color="#FF6C1A"/></linearGradient><linearGradient id="paint35_linear_2886_22460" x1="30" y1="1.5" x2="36" y2="1.5" gradientUnits="userSpaceOnUse"><stop stop-color="#994110"/><stop offset="1" stop-color="#FF6C1A"/></linearGradient><linearGradient id="paint36_linear_2886_22460" x1="18" y1="1.5" x2="24" y2="1.5" gradientUnits="userSpaceOnUse"><stop stop-color="#994110"/><stop offset="1" stop-color="#FF6C1A"/></linearGradient><linearGradient id="paint37_linear_2886_22460" x1="6" y1="1.5" x2="12" y2="1.5" gradientUnits="userSpaceOnUse"><stop stop-color="#994110"/><stop offset="1" stop-color="#FF6C1A"/></linearGradient><clipPath id="clip0_2886_22460"><path fill="#fff" transform="rotate(-180 225 .5)" d="M0 0h450v1H0z"/></clipPath></defs></svg>