<svg width="438" height="1" fill="none" xmlns="http://www.w3.org/2000/svg"><g clip-path="url(#clip0_2886_22472)"><path fill="url(#paint0_linear_2886_22472)" d="M0 0h6v1H0z"/><path fill="url(#paint1_linear_2886_22472)" d="M12 0h6v1h-6z"/><path fill="url(#paint2_linear_2886_22472)" d="M24 0h6v1h-6z"/><path fill="url(#paint3_linear_2886_22472)" d="M36 0h6v1h-6z"/><path fill="url(#paint4_linear_2886_22472)" d="M48 0h6v1h-6z"/><path fill="url(#paint5_linear_2886_22472)" d="M60 0h6v1h-6z"/><path fill="url(#paint6_linear_2886_22472)" d="M72 0h6v1h-6z"/><path fill="url(#paint7_linear_2886_22472)" d="M84 0h6v1h-6z"/><path fill="url(#paint8_linear_2886_22472)" d="M96 0h6v1h-6z"/><path fill="url(#paint9_linear_2886_22472)" d="M108 0h6v1h-6z"/><path fill="url(#paint10_linear_2886_22472)" d="M120 0h6v1h-6z"/><path fill="url(#paint11_linear_2886_22472)" d="M132 0h6v1h-6z"/><path fill="url(#paint12_linear_2886_22472)" d="M144 0h6v1h-6z"/><path fill="url(#paint13_linear_2886_22472)" d="M156 0h6v1h-6z"/><path fill="url(#paint14_linear_2886_22472)" d="M168 0h6v1h-6z"/><path fill="url(#paint15_linear_2886_22472)" d="M180 0h6v1h-6z"/><path fill="url(#paint16_linear_2886_22472)" d="M192 0h6v1h-6z"/><path fill="url(#paint17_linear_2886_22472)" d="M204 0h6v1h-6z"/><path fill="url(#paint18_linear_2886_22472)" d="M216 0h6v1h-6z"/><path fill="url(#paint19_linear_2886_22472)" d="M228 0h6v1h-6z"/><path fill="url(#paint20_linear_2886_22472)" d="M240 0h6v1h-6z"/><path fill="url(#paint21_linear_2886_22472)" d="M252 0h6v1h-6z"/><path fill="url(#paint22_linear_2886_22472)" d="M264 0h6v1h-6z"/><path fill="url(#paint23_linear_2886_22472)" d="M276 0h6v1h-6z"/><path fill="url(#paint24_linear_2886_22472)" d="M288 0h6v1h-6z"/><path fill="url(#paint25_linear_2886_22472)" d="M300 0h6v1h-6z"/><path fill="url(#paint26_linear_2886_22472)" d="M312 0h6v1h-6z"/><path fill="url(#paint27_linear_2886_22472)" d="M324 0h6v1h-6z"/><path fill="url(#paint28_linear_2886_22472)" d="M336 0h6v1h-6z"/><path fill="url(#paint29_linear_2886_22472)" d="M348 0h6v1h-6z"/><path fill="url(#paint30_linear_2886_22472)" d="M360 0h6v1h-6z"/><path fill="url(#paint31_linear_2886_22472)" d="M372 0h6v1h-6z"/><path fill="url(#paint32_linear_2886_22472)" d="M384 0h6v1h-6z"/><path fill="url(#paint33_linear_2886_22472)" d="M396 0h6v1h-6z"/><path fill="url(#paint34_linear_2886_22472)" d="M408 0h6v1h-6z"/><path fill="url(#paint35_linear_2886_22472)" d="M420 0h6v1h-6z"/><path fill="url(#paint36_linear_2886_22472)" d="M432 0h6v1h-6z"/></g><defs><linearGradient id="paint0_linear_2886_22472" x1="0" y1=".5" x2="6" y2=".5" gradientUnits="userSpaceOnUse"><stop stop-color="#994110"/><stop offset="1" stop-color="#FF6C1A"/></linearGradient><linearGradient id="paint1_linear_2886_22472" x1="12" y1=".5" x2="18" y2=".5" gradientUnits="userSpaceOnUse"><stop stop-color="#994110"/><stop offset="1" stop-color="#FF6C1A"/></linearGradient><linearGradient id="paint2_linear_2886_22472" x1="24" y1=".5" x2="30" y2=".5" gradientUnits="userSpaceOnUse"><stop stop-color="#994110"/><stop offset="1" stop-color="#FF6C1A"/></linearGradient><linearGradient id="paint3_linear_2886_22472" x1="36" y1=".5" x2="42" y2=".5" gradientUnits="userSpaceOnUse"><stop stop-color="#994110"/><stop offset="1" stop-color="#FF6C1A"/></linearGradient><linearGradient id="paint4_linear_2886_22472" x1="48" y1=".5" x2="54" y2=".5" gradientUnits="userSpaceOnUse"><stop stop-color="#994110"/><stop offset="1" stop-color="#FF6C1A"/></linearGradient><linearGradient id="paint5_linear_2886_22472" x1="60" y1=".5" x2="66" y2=".5" gradientUnits="userSpaceOnUse"><stop stop-color="#994110"/><stop offset="1" stop-color="#FF6C1A"/></linearGradient><linearGradient id="paint6_linear_2886_22472" x1="72" y1=".5" x2="78" y2=".5" gradientUnits="userSpaceOnUse"><stop stop-color="#994110"/><stop offset="1" stop-color="#FF6C1A"/></linearGradient><linearGradient id="paint7_linear_2886_22472" x1="84" y1=".5" x2="90" y2=".5" gradientUnits="userSpaceOnUse"><stop stop-color="#994110"/><stop offset="1" stop-color="#FF6C1A"/></linearGradient><linearGradient id="paint8_linear_2886_22472" x1="96" y1=".5" x2="102" y2=".5" gradientUnits="userSpaceOnUse"><stop stop-color="#994110"/><stop offset="1" stop-color="#FF6C1A"/></linearGradient><linearGradient id="paint9_linear_2886_22472" x1="108" y1=".5" x2="114" y2=".5" gradientUnits="userSpaceOnUse"><stop stop-color="#994110"/><stop offset="1" stop-color="#FF6C1A"/></linearGradient><linearGradient id="paint10_linear_2886_22472" x1="120" y1=".5" x2="126" y2=".5" gradientUnits="userSpaceOnUse"><stop stop-color="#994110"/><stop offset="1" stop-color="#FF6C1A"/></linearGradient><linearGradient id="paint11_linear_2886_22472" x1="132" y1=".5" x2="138" y2=".5" gradientUnits="userSpaceOnUse"><stop stop-color="#994110"/><stop offset="1" stop-color="#FF6C1A"/></linearGradient><linearGradient id="paint12_linear_2886_22472" x1="144" y1=".5" x2="150" y2=".5" gradientUnits="userSpaceOnUse"><stop stop-color="#994110"/><stop offset="1" stop-color="#FF6C1A"/></linearGradient><linearGradient id="paint13_linear_2886_22472" x1="156" y1=".5" x2="162" y2=".5" gradientUnits="userSpaceOnUse"><stop stop-color="#994110"/><stop offset="1" stop-color="#FF6C1A"/></linearGradient><linearGradient id="paint14_linear_2886_22472" x1="168" y1=".5" x2="174" y2=".5" gradientUnits="userSpaceOnUse"><stop stop-color="#994110"/><stop offset="1" stop-color="#FF6C1A"/></linearGradient><linearGradient id="paint15_linear_2886_22472" x1="180" y1=".5" x2="186" y2=".5" gradientUnits="userSpaceOnUse"><stop stop-color="#994110"/><stop offset="1" stop-color="#FF6C1A"/></linearGradient><linearGradient id="paint16_linear_2886_22472" x1="192" y1=".5" x2="198" y2=".5" gradientUnits="userSpaceOnUse"><stop stop-color="#994110"/><stop offset="1" stop-color="#FF6C1A"/></linearGradient><linearGradient id="paint17_linear_2886_22472" x1="204" y1=".5" x2="210" y2=".5" gradientUnits="userSpaceOnUse"><stop stop-color="#994110"/><stop offset="1" stop-color="#FF6C1A"/></linearGradient><linearGradient id="paint18_linear_2886_22472" x1="216" y1=".5" x2="222" y2=".5" gradientUnits="userSpaceOnUse"><stop stop-color="#994110"/><stop offset="1" stop-color="#FF6C1A"/></linearGradient><linearGradient id="paint19_linear_2886_22472" x1="228" y1=".5" x2="234" y2=".5" gradientUnits="userSpaceOnUse"><stop stop-color="#994110"/><stop offset="1" stop-color="#FF6C1A"/></linearGradient><linearGradient id="paint20_linear_2886_22472" x1="240" y1=".5" x2="246" y2=".5" gradientUnits="userSpaceOnUse"><stop stop-color="#994110"/><stop offset="1" stop-color="#FF6C1A"/></linearGradient><linearGradient id="paint21_linear_2886_22472" x1="252" y1=".5" x2="258" y2=".5" gradientUnits="userSpaceOnUse"><stop stop-color="#994110"/><stop offset="1" stop-color="#FF6C1A"/></linearGradient><linearGradient id="paint22_linear_2886_22472" x1="264" y1=".5" x2="270" y2=".5" gradientUnits="userSpaceOnUse"><stop stop-color="#994110"/><stop offset="1" stop-color="#FF6C1A"/></linearGradient><linearGradient id="paint23_linear_2886_22472" x1="276" y1=".5" x2="282" y2=".5" gradientUnits="userSpaceOnUse"><stop stop-color="#994110"/><stop offset="1" stop-color="#FF6C1A"/></linearGradient><linearGradient id="paint24_linear_2886_22472" x1="288" y1=".5" x2="294" y2=".5" gradientUnits="userSpaceOnUse"><stop stop-color="#994110"/><stop offset="1" stop-color="#FF6C1A"/></linearGradient><linearGradient id="paint25_linear_2886_22472" x1="300" y1=".5" x2="306" y2=".5" gradientUnits="userSpaceOnUse"><stop stop-color="#994110"/><stop offset="1" stop-color="#FF6C1A"/></linearGradient><linearGradient id="paint26_linear_2886_22472" x1="312" y1=".5" x2="318" y2=".5" gradientUnits="userSpaceOnUse"><stop stop-color="#994110"/><stop offset="1" stop-color="#FF6C1A"/></linearGradient><linearGradient id="paint27_linear_2886_22472" x1="324" y1=".5" x2="330" y2=".5" gradientUnits="userSpaceOnUse"><stop stop-color="#994110"/><stop offset="1" stop-color="#FF6C1A"/></linearGradient><linearGradient id="paint28_linear_2886_22472" x1="336" y1=".5" x2="342" y2=".5" gradientUnits="userSpaceOnUse"><stop stop-color="#994110"/><stop offset="1" stop-color="#FF6C1A"/></linearGradient><linearGradient id="paint29_linear_2886_22472" x1="348" y1=".5" x2="354" y2=".5" gradientUnits="userSpaceOnUse"><stop stop-color="#994110"/><stop offset="1" stop-color="#FF6C1A"/></linearGradient><linearGradient id="paint30_linear_2886_22472" x1="360" y1=".5" x2="366" y2=".5" gradientUnits="userSpaceOnUse"><stop stop-color="#994110"/><stop offset="1" stop-color="#FF6C1A"/></linearGradient><linearGradient id="paint31_linear_2886_22472" x1="372" y1=".5" x2="378" y2=".5" gradientUnits="userSpaceOnUse"><stop stop-color="#994110"/><stop offset="1" stop-color="#FF6C1A"/></linearGradient><linearGradient id="paint32_linear_2886_22472" x1="384" y1=".5" x2="390" y2=".5" gradientUnits="userSpaceOnUse"><stop stop-color="#994110"/><stop offset="1" stop-color="#FF6C1A"/></linearGradient><linearGradient id="paint33_linear_2886_22472" x1="396" y1=".5" x2="402" y2=".5" gradientUnits="userSpaceOnUse"><stop stop-color="#994110"/><stop offset="1" stop-color="#FF6C1A"/></linearGradient><linearGradient id="paint34_linear_2886_22472" x1="408" y1=".5" x2="414" y2=".5" gradientUnits="userSpaceOnUse"><stop stop-color="#994110"/><stop offset="1" stop-color="#FF6C1A"/></linearGradient><linearGradient id="paint35_linear_2886_22472" x1="420" y1=".5" x2="426" y2=".5" gradientUnits="userSpaceOnUse"><stop stop-color="#994110"/><stop offset="1" stop-color="#FF6C1A"/></linearGradient><linearGradient id="paint36_linear_2886_22472" x1="432" y1=".5" x2="438" y2=".5" gradientUnits="userSpaceOnUse"><stop stop-color="#994110"/><stop offset="1" stop-color="#FF6C1A"/></linearGradient><clipPath id="clip0_2886_22472"><path fill="#fff" d="M0 0h438v1H0z"/></clipPath></defs></svg>