<svg width="1" height="132" fill="none" xmlns="http://www.w3.org/2000/svg"><g clip-path="url(#clip0_2886_22461)"><path transform="rotate(-90 0 132)" fill="url(#paint0_linear_2886_22461)" d="M0 132h6v1H0z"/><path transform="rotate(-90 0 120)" fill="url(#paint1_linear_2886_22461)" d="M0 120h6v1H0z"/><path transform="rotate(-90 0 108)" fill="url(#paint2_linear_2886_22461)" d="M0 108h6v1H0z"/><path transform="rotate(-90 0 96)" fill="url(#paint3_linear_2886_22461)" d="M0 96h6v1H0z"/><path transform="rotate(-90 0 84)" fill="url(#paint4_linear_2886_22461)" d="M0 84h6v1H0z"/><path transform="rotate(-90 0 72)" fill="url(#paint5_linear_2886_22461)" d="M0 72h6v1H0z"/><path transform="rotate(-90 0 60)" fill="url(#paint6_linear_2886_22461)" d="M0 60h6v1H0z"/><path transform="rotate(-90 0 48)" fill="url(#paint7_linear_2886_22461)" d="M0 48h6v1H0z"/><path transform="rotate(-90 0 36)" fill="url(#paint8_linear_2886_22461)" d="M0 36h6v1H0z"/><path transform="rotate(-90 0 24)" fill="url(#paint9_linear_2886_22461)" d="M0 24h6v1H0z"/><path transform="rotate(-90 0 12)" fill="url(#paint10_linear_2886_22461)" d="M0 12h6v1H0z"/></g><defs><linearGradient id="paint0_linear_2886_22461" x1="0" y1="132.5" x2="6" y2="132.5" gradientUnits="userSpaceOnUse"><stop stop-color="#994110"/><stop offset="1" stop-color="#FF6C1A"/></linearGradient><linearGradient id="paint1_linear_2886_22461" x1="0" y1="120.5" x2="6" y2="120.5" gradientUnits="userSpaceOnUse"><stop stop-color="#994110"/><stop offset="1" stop-color="#FF6C1A"/></linearGradient><linearGradient id="paint2_linear_2886_22461" x1="0" y1="108.5" x2="6" y2="108.5" gradientUnits="userSpaceOnUse"><stop stop-color="#994110"/><stop offset="1" stop-color="#FF6C1A"/></linearGradient><linearGradient id="paint3_linear_2886_22461" x1="0" y1="96.5" x2="6" y2="96.5" gradientUnits="userSpaceOnUse"><stop stop-color="#994110"/><stop offset="1" stop-color="#FF6C1A"/></linearGradient><linearGradient id="paint4_linear_2886_22461" x1="0" y1="84.5" x2="6" y2="84.5" gradientUnits="userSpaceOnUse"><stop stop-color="#994110"/><stop offset="1" stop-color="#FF6C1A"/></linearGradient><linearGradient id="paint5_linear_2886_22461" x1="0" y1="72.5" x2="6" y2="72.5" gradientUnits="userSpaceOnUse"><stop stop-color="#994110"/><stop offset="1" stop-color="#FF6C1A"/></linearGradient><linearGradient id="paint6_linear_2886_22461" x1="0" y1="60.5" x2="6" y2="60.5" gradientUnits="userSpaceOnUse"><stop stop-color="#994110"/><stop offset="1" stop-color="#FF6C1A"/></linearGradient><linearGradient id="paint7_linear_2886_22461" x1="0" y1="48.5" x2="6" y2="48.5" gradientUnits="userSpaceOnUse"><stop stop-color="#994110"/><stop offset="1" stop-color="#FF6C1A"/></linearGradient><linearGradient id="paint8_linear_2886_22461" x1="0" y1="36.5" x2="6" y2="36.5" gradientUnits="userSpaceOnUse"><stop stop-color="#994110"/><stop offset="1" stop-color="#FF6C1A"/></linearGradient><linearGradient id="paint9_linear_2886_22461" x1="0" y1="24.5" x2="6" y2="24.5" gradientUnits="userSpaceOnUse"><stop stop-color="#994110"/><stop offset="1" stop-color="#FF6C1A"/></linearGradient><linearGradient id="paint10_linear_2886_22461" x1="0" y1="12.5" x2="6" y2="12.5" gradientUnits="userSpaceOnUse"><stop stop-color="#994110"/><stop offset="1" stop-color="#FF6C1A"/></linearGradient><clipPath id="clip0_2886_22461"><path fill="#fff" transform="rotate(-90 66 66)" d="M0 0h132v1H0z"/></clipPath></defs></svg>