<svg width="48" height="52" fill="none" xmlns="http://www.w3.org/2000/svg"><path d="M19.028 2.806L6.058 10.18A10 10 0 001 18.873v13.905a10 10 0 004.932 8.62l12.97 7.627a10 10 0 0010.124.007l13.03-7.635A10 10 0 0047 32.769V18.883a10 10 0 00-5.07-8.7L28.9 2.799a10 10 0 00-9.872.007z" fill="#202020" stroke="#FF6C1A"/><g clip-path="url(#clip0_4340_3237)"><mask id="mask0_4340_3237" style="mask-type:luminance" maskUnits="userSpaceOnUse" x="13" y="13" width="22" height="26"><path d="M34.455 13h-20.91v26h20.91V13z" fill="#fff"/></mask><g mask="url(#mask0_4340_3237)"><path d="M33.07 18.273c.556 0 1.007-.421 1.007-.94 0-.519-.451-.94-1.008-.94-.556 0-1.008.421-1.008.94 0 .519.452.94 1.008.94zm-4.815 3.654c.557 0 1.008-.42 1.008-.94 0-.519-.451-.94-1.008-.94-.556 0-1.007.421-1.007.94 0 .52.45.94 1.007.94zm-4.815-5.325c.557 0 1.008-.42 1.008-.94 0-.519-.45-.94-1.007-.94-.557 0-1.008.421-1.008.94 0 .52.451.94 1.008.94zm-4.907 5.325c.556 0 1.007-.42 1.007-.94 0-.519-.45-.94-1.007-.94-.557 0-1.008.421-1.008.94 0 .52.451.94 1.008.94zm-3.601-5.325c.556 0 1.008-.42 1.008-.94 0-.519-.451-.94-1.008-.94-.556 0-1.008.421-1.008.94 0 .52.452.94 1.008.94zm3.6-1.514v3.383m11.291-3.853v1.462l-1.791.835v2" stroke="#FF6C1A" stroke-miterlimit="10"/><path d="M14.932 16.9v4.795l6.046 3.051M31.44 21.71l1.63-.88v-2.557m-2.804 4.073l.614-.332m-5.055 2.732l3.622-1.958m-1.192-.861v1.506m-6.925 4.409a2.444 2.444 0 01-.633-1.634c0-1.413 1.229-2.558 2.743-2.558 1.515 0 2.743 1.145 2.743 2.558 0 .64-.252 1.224-.667 1.672M23.44 16.602v4.385" stroke="#FF6C1A" stroke-miterlimit="10"/><path d="M18.532 14.149c.278 0 .504-.21.504-.47s-.226-.47-.504-.47-.504.21-.504.47.226.47.504.47zm11.292-.209c.278 0 .503-.21.503-.47s-.225-.47-.503-.47c-.279 0-.504.21-.504.47s.225.47.504.47zm-6.384 8.77c.28 0 .505-.21.505-.47s-.226-.47-.504-.47-.504.21-.504.47.226.47.504.47z" fill="#FF6C1A"/><path d="M18.532 21.927v1.506m4.07 15.356l-1.093-1.646a2.144 2.144 0 01-.363-1.19v-2.235c0-.377.133-.742.38-1.041l1.076-1.302m0 1.762v-7.263s0-.658 1.007-.658c.903 0 .971.783.971.783v7.138m2.094.001V30.21s-.267-.714-1.051-.714c-.547 0-.893.31-1.008.522" stroke="#FF6C1A" stroke-miterlimit="10"/><path d="M26.632 30.958s.336-.626 1.008-.626c1.12 0 1.12.791 1.12.791v2.014-1.865s0-.617.971-.672c1.044-.06 1.044.776 1.044.776v4.717c0 .47-.115.932-.337 1.352l-.708 1.344" stroke="#FF6C1A" stroke-miterlimit="10"/></g></g><defs><clipPath id="clip0_4340_3237"><path fill="#fff" transform="translate(13.545 13)" d="M0 0h20.909v26H0z"/></clipPath></defs></svg>