<svg width="48" height="52" fill="none" xmlns="http://www.w3.org/2000/svg"><path d="M19.028 2.806L6.058 10.18A10 10 0 001 18.873v13.905a10 10 0 004.932 8.62l12.97 7.627a10 10 0 0010.124.007l13.03-7.635A10 10 0 0047 32.769V18.883a10 10 0 00-5.07-8.7L28.9 2.799a10 10 0 00-9.872.007z" fill="#202020" stroke="#FF6C1A"/><g clip-path="url(#clip0_4340_3292)"><path d="M17.994 13.56h16.88l2.904 2.861v21.287H17.995V13.56z" stroke="#FF6C1A"/><path d="M20.615 34.766h14.387" stroke="#FF6C1A" stroke-linecap="square"/><path d="M16.905 32.927v3.33h1.005" stroke="#FF6C1A"/><path d="M22.264 31.976h6.7" stroke="#FF6C1A" stroke-linecap="square"/><path d="M31.555 30.986c.023.011.043.033.043.059v2.42c0 .033-.031.059-.067.059-.039 0-.066-.026-.066-.06v-2.268l-.366.354c-.027.022-.066.026-.094 0-.027-.022-.027-.062 0-.088l.48-.461c.015-.019.046-.023.07-.015z" fill="#FF6C1A"/><mask id="mask0_4340_3292" style="mask-type:luminance" maskUnits="userSpaceOnUse" x="30" y="30" width="2" height="4"><path d="M31.92 30.67h-1.34v3.17h1.34v-3.17z" fill="#fff"/><path d="M31.555 30.986c.023.011.043.033.043.059v2.42c0 .033-.031.059-.067.059-.039 0-.066-.026-.066-.06v-2.268l-.366.354c-.027.022-.066.026-.094 0-.027-.022-.027-.062 0-.088l.48-.461c.015-.019.046-.023.07-.015z" fill="#202020"/></mask><g mask="url(#mask0_4340_3292)"><path d="M31.555 30.986l.045-.085-.006-.003-.007-.002-.032.09zm-.09.21h.101v-.233l-.172.167.072.066zm-.366.354l.066.072.003-.002.003-.003-.072-.067zm-.093 0l.07-.067-.002-.003-.003-.002-.065.072zm0-.088l.07.067h.001l-.071-.067zm.479-.461l.072.066.003-.003.004-.004-.079-.06zm.025.07a.016.016 0 01-.006-.005.035.035 0 01-.007-.021h.201c0-.073-.052-.122-.098-.144l-.09.17zm-.013-.026v2.42h.201v-2.42h-.2zm0 2.42c0-.013.007-.023.013-.028a.033.033 0 01.022-.008v.19c.082 0 .166-.061.166-.154h-.2zm.035-.036c.004 0 .013.002.022.01a.037.037 0 01.012.026h-.2c0 .09.075.154.166.154v-.19zm.034.036v-2.269h-.2v2.269h.2zm-.172-2.335l-.367.354.144.133.366-.354-.143-.133zm-.36.348a.025.025 0 01.015-.005.04.04 0 01.028.01l-.142.134c.073.07.172.052.23.005l-.131-.144zm.037 0a.04.04 0 01.015.03.03.03 0 01-.01.021l-.141-.134c-.064.06-.072.165.005.227l.131-.144zm.006.05l.48-.46-.144-.134-.479.461.143.134zm.486-.468a.05.05 0 01-.027.017h-.013l.064-.181a.186.186 0 00-.089-.006.156.156 0 00-.091.051l.157.12z" fill="#FF6C1A"/></g><path d="M25.356 29.191h9.643m-12.062-2.665h11.97m-14.259-2.168H30.65" stroke="#FF6C1A" stroke-linecap="square"/><path d="M33.599 25.329c.03.007.05.03.046.063v.007a.057.057 0 01-.07.052c-.48-.093-.787-.58-.787-1.255 0-.678.308-1.162.787-1.258.035-.007.063.015.066.052v.008a.06.06 0 01-.046.066c-.413.081-.674.52-.674 1.132 0 .613.265 1.052.678 1.133zm.257-2.339a.057.057 0 01.07-.052c.48.096.783.58.783 1.258 0 .675-.304 1.162-.783 1.255-.035.007-.066-.012-.07-.048v-.011c-.004-.034.015-.06.047-.063.413-.085.678-.52.678-1.133 0-.612-.265-1.051-.678-1.132-.032-.008-.051-.033-.047-.063v-.01z" fill="#FF6C1A"/><mask id="mask1_4340_3292" style="mask-type:luminance" maskUnits="userSpaceOnUse" x="32" y="22" width="4" height="4"><path d="M35.012 22.612h-2.345v3.17h2.345v-3.17z" fill="#fff"/><path d="M33.599 25.329c.03.007.05.03.046.063v.007a.057.057 0 01-.07.052c-.48-.093-.787-.58-.787-1.255 0-.678.308-1.162.787-1.258.035-.007.063.015.066.052v.008a.06.06 0 01-.046.066c-.413.081-.674.52-.674 1.132 0 .613.265 1.052.678 1.133zm.257-2.339a.057.057 0 01.07-.052c.48.096.783.58.783 1.258 0 .675-.304 1.162-.783 1.255-.035.007-.066-.012-.07-.048v-.011c-.004-.034.015-.06.047-.063.413-.085.678-.52.678-1.133 0-.612-.265-1.051-.678-1.132-.032-.008-.051-.033-.047-.063v-.01z" fill="#202020"/></mask><g mask="url(#mask1_4340_3292)"><path d="M33.599 25.329l.024-.093h-.003l-.021.093zm.047.062l-.1-.01v.01h.1zm0 .008l.1.01v-.01h-.1zm-.07.051l.021-.092h-.001l-.02.092zm0-2.512l.02.093h.001l-.021-.093zm.066.052h.1v-.01l-.1.01zm0 .007h-.1v.012l.1-.012zm-.047.067l.02.093.005-.001-.025-.092zm.261-.074l-.1-.01v.01h.1zm.07-.052l-.021.093.021-.093zm0 2.512l-.02-.093h-.001l.021.093zm-.07-.047h-.1v.009l.1-.01zm0-.012h.1v-.01l-.1.01zm.047-.062l.012.094h.005l.004-.001-.021-.093zm0-2.265l-.024.092h.004l.02-.092zM33.856 23l.1.012V23h-.1zm-.281 2.42a.039.039 0 01-.02-.014.038.038 0 01-.01-.026l.2.02a.146.146 0 00-.029-.107.165.165 0 00-.093-.058l-.048.185zm-.03-.03v.008h.201v-.008h-.2zm0-.002a.04.04 0 01.016-.023.047.047 0 01.036-.008l-.043.185c.1.021.182-.047.192-.135l-.2-.019zm.05-.032c-.41-.079-.706-.505-.706-1.16h-.201c0 .693.319 1.241.868 1.347l.04-.187zm-.706-1.16c0-.66.297-1.083.707-1.166l-.041-.186c-.548.11-.867.653-.867 1.351h.201zm.708-1.166a.052.052 0 01-.04-.01c-.013-.01-.015-.02-.015-.021l.2-.02a.154.154 0 00-.057-.105.158.158 0 00-.131-.03l.043.186zm-.056-.041v.007h.201v-.007h-.2zm.001.02a.032.032 0 01.005-.023.04.04 0 01.024-.015l.049.184a.156.156 0 00.122-.17l-.2.023zm.033-.04c-.486.096-.755.6-.755 1.226h.202c0-.598.253-.972.594-1.039l-.041-.186zm-.755 1.226c0 .628.274 1.13.759 1.226l.04-.186c-.34-.067-.597-.443-.597-1.04h-.201zM33.957 23a.036.036 0 01-.015.024.047.047 0 01-.036.008l.043-.185a.156.156 0 00-.192.134l.2.02zm-.05.032c.41.082.703.505.703 1.165h.201c0-.697-.315-1.241-.863-1.35l-.041.185zm.703 1.165c0 .657-.293 1.082-.703 1.161l.04.187c.55-.106.864-.654.864-1.348h-.2zm-.704 1.162a.044.044 0 01.032.007c.014.01.019.022.02.028l-.2.019a.148.148 0 00.065.11c.04.025.085.03.126.021l-.043-.185zm.052.044v-.01h-.201v.01h.2zm0-.021c0 .003 0 .013-.009.023a.05.05 0 01-.033.02l-.024-.19a.15.15 0 00-.135.168l.2-.021zm-.033.04c.484-.099.758-.596.758-1.225h-.202c0 .596-.256.97-.598 1.04l.042.186zm.758-1.225c0-.627-.274-1.13-.759-1.225l-.04.186c.34.067.597.442.597 1.04h.202zm-.755-1.225a.038.038 0 01.021.015.038.038 0 01.008.027l-.2-.024c-.01.08.045.149.123.167l.048-.184zm.03.03v-.011h-.201v.011h.2z" fill="#FF6C1A"/></g><path d="M29.434 21.416h5.531" stroke="#FF6C1A" stroke-linecap="square"/><path d="M26.48 22.698c.032.008.051.03.047.063v.008a.057.057 0 01-.07.051c-.48-.092-.787-.579-.787-1.254 0-.679.308-1.162.787-1.258.035-.007.062.015.066.052v.007a.06.06 0 01-.046.066c-.413.082-.675.52-.675 1.133 0 .612.265 1.051.678 1.132zm.258-2.338a.057.057 0 01.07-.052c.48.096.783.58.783 1.258 0 .675-.304 1.162-.783 1.254-.035.008-.066-.01-.07-.048v-.01c-.004-.034.015-.06.046-.064.414-.084.678-.52.678-1.132 0-.612-.264-1.051-.678-1.133-.03-.007-.05-.033-.046-.062v-.011z" fill="#FF6C1A"/><mask id="mask2_4340_3292" style="mask-type:luminance" maskUnits="userSpaceOnUse" x="25" y="19" width="3" height="5"><path d="M27.893 19.981h-2.345v3.17h2.345v-3.17z" fill="#fff"/><path d="M26.48 22.698c.03.008.05.03.046.063v.008a.057.057 0 01-.07.051c-.48-.092-.787-.579-.787-1.254 0-.679.308-1.162.787-1.258.035-.007.062.015.066.052v.007a.06.06 0 01-.046.066c-.413.082-.674.52-.674 1.133 0 .612.264 1.051.678 1.132zm.257-2.338a.057.057 0 01.07-.052c.48.096.783.58.783 1.258 0 .675-.304 1.162-.783 1.254-.035.008-.066-.01-.07-.048v-.01c-.004-.034.015-.06.046-.064.413-.085.678-.52.678-1.132 0-.612-.264-1.051-.678-1.133-.03-.007-.05-.033-.046-.062v-.011z" fill="#202020"/></mask><g mask="url(#mask2_4340_3292)"><path d="M26.48 22.698l.024-.092H26.5l-.02.092zm.047.063l-.1-.01v.01h.1zm0 .007l.1.01v-.01h-.1zm-.07.052l.021-.093h-.002l-.02.093zm0-2.512l.02.093h.001l-.022-.093zm.066.052h.1v-.01l-.1.01zm0 .007h-.1v.012l.1-.012zm-.047.066l.02.094.004-.001-.024-.093zm.261-.073l-.1-.01v.01h.1zm.07-.052l-.022.093h.001l.021-.093zm0 2.512l-.02-.093h-.002l.022.093zm-.07-.048h-.1v.01l.1-.01zm0-.011h.1v-.011l-.1.011zm.047-.063l.012.095h.005l.004-.002-.021-.093zm0-2.265l-.025.093h.004l.02-.093zm-.047-.062l.1.011v-.011h-.1zm-.281 2.42a.039.039 0 01-.02-.015.038.038 0 01-.01-.026l.2.021a.145.145 0 00-.029-.108.164.164 0 00-.093-.057l-.049.185zm-.03-.03v.007h.201v-.007h-.2zm0-.002a.044.044 0 01.016-.024.047.047 0 01.036-.008l-.043.186c.1.02.182-.047.192-.135l-.2-.02zm.05-.032c-.41-.079-.706-.505-.706-1.161h-.201c0 .694.319 1.242.867 1.347l.04-.186zm-.706-1.161c0-.66.297-1.083.707-1.165l-.041-.186c-.548.11-.867.653-.867 1.35h.2zm.708-1.165a.052.052 0 01-.041-.01c-.013-.01-.014-.02-.014-.022l.2-.019a.154.154 0 00-.057-.106.157.157 0 00-.131-.029l.043.186zm-.056-.041v.007h.201v-.007h-.2zm.001.019a.032.032 0 01.005-.023.04.04 0 01.024-.015l.048.185a.156.156 0 00.122-.17l-.199.023zm.033-.039c-.486.096-.755.599-.755 1.226h.201c0-.598.254-.972.594-1.04l-.04-.186zm-.755 1.226c0 .627.274 1.13.758 1.226l.041-.187c-.341-.067-.598-.442-.598-1.04h-.2zm1.136-1.197a.035.035 0 01-.015.024.047.047 0 01-.037.008l.044-.186a.156.156 0 00-.192.135l.2.02zm-.05.032c.41.082.703.505.703 1.165h.201c0-.698-.315-1.241-.863-1.351l-.042.186zm.703 1.165c0 .657-.293 1.082-.703 1.16l.04.187c.55-.105.864-.654.864-1.347h-.201zm-.705 1.161a.044.044 0 01.033.008.04.04 0 01.019.028l-.2.019a.147.147 0 00.066.109c.039.025.085.03.126.022l-.044-.186zm.052.045v-.011h-.2v.011h.2zm0-.021c0 .003 0 .012-.008.023a.05.05 0 01-.033.019l-.025-.19a.15.15 0 00-.134.168l.2-.02zm-.032.04c.484-.099.757-.597.757-1.225h-.2c0 .596-.257.969-.6 1.04l.043.185zm.757-1.225c0-.628-.273-1.13-.758-1.226l-.04.186c.34.068.597.443.597 1.04h.201zm-.754-1.225a.038.038 0 01.021.014.038.038 0 01.008.027l-.2-.023c-.01.08.045.148.122.167l.05-.185zm.03.03v-.011h-.201v.01h.2z" fill="#FF6C1A"/></g><path d="M24.773 18.783h10.192" stroke="#FF6C1A" stroke-linecap="square"/><path d="M22.635 17.555c.024.01.043.033.043.059v2.42c0 .033-.031.059-.066.059-.039 0-.066-.026-.066-.06v-2.268l-.367.354c-.027.022-.066.026-.093 0-.027-.022-.027-.063 0-.088l.48-.461c.015-.019.046-.023.07-.015z" fill="#FF6C1A"/><mask id="mask3_4340_3292" style="mask-type:luminance" maskUnits="userSpaceOnUse" x="21" y="17" width="3" height="4"><path d="M23 17.24h-1.339v3.17h1.34v-3.17z" fill="#fff"/><path d="M22.635 17.555c.024.01.043.033.043.059v2.42c0 .033-.031.059-.066.059-.039 0-.066-.026-.066-.06v-2.268l-.367.354c-.027.022-.066.026-.093 0-.027-.022-.027-.063 0-.088l.48-.461c.015-.019.046-.023.07-.015z" fill="#202020"/></mask><g mask="url(#mask3_4340_3292)"><path d="M22.636 17.555l.045-.085-.007-.003-.006-.002-.032.09zm-.09.21h.1v-.233l-.172.167.072.066zm-.366.354l.065.073.003-.003.004-.003-.072-.067zm-.094 0l.071-.067-.002-.003-.003-.002-.066.072zm0-.088l.071.067-.07-.067zm.48-.461l.071.066.004-.003.003-.004-.078-.06zm.025.07a.016.016 0 01-.006-.005.034.034 0 01-.007-.021h.201c0-.073-.052-.122-.098-.144l-.09.17zm-.013-.026v2.42h.201v-2.42h-.2zm0 2.42c0-.013.006-.023.013-.028a.033.033 0 01.021-.008v.19c.083 0 .167-.061.167-.154h-.2zm.034-.036a.03.03 0 01.022.009.037.037 0 01.013.027h-.201c0 .09.076.154.166.154v-.19zm.035.036v-2.269h-.201v2.269h.2zm-.173-2.335l-.366.354.144.133.366-.354-.144-.133zm-.36.348a.026.026 0 01.016-.005c.005 0 .01 0 .015.003.006.002.01.004.012.007l-.142.134c.073.07.173.052.23.006l-.13-.145zm.038 0c.01.008.014.02.014.03a.03.03 0 01-.009.021l-.142-.134c-.063.06-.072.165.006.228l.13-.145zm.006.05l.48-.46-.144-.134-.48.461.144.133zm.486-.468a.048.048 0 01-.027.017h-.013l.064-.181a.188.188 0 00-.09-.006.156.156 0 00-.09.051l.156.119z" fill="#FF6C1A"/></g><mask id="mask4_4340_3292" style="mask-type:alpha" maskUnits="userSpaceOnUse" x="11" y="19" width="15" height="15"><path d="M18.252 32.94c3.694 0 6.688-2.834 6.688-6.33 0-3.497-2.994-6.331-6.688-6.331-3.693 0-6.687 2.834-6.687 6.33 0 3.497 2.994 6.331 6.687 6.331z" fill="#FF6C1A" stroke="#FF6C1A"/></mask><g mask="url(#mask4_4340_3292)" stroke="#FF6C1A"><path d="M16.114 11.135h20.43l3.528 3.475v25.748H16.114V11.135z"/><path d="M25 30.075h11.713M21.84 33.253h13.885" stroke-linecap="square"/></g><path d="M20.615 16.185h8.17" stroke="#FF6C1A" stroke-linecap="square"/><path d="M32.894 15.252c.023.011.043.034.043.06v2.42c0 .033-.032.058-.067.058-.039 0-.066-.025-.066-.059v-2.268l-.366.354c-.028.022-.067.026-.094 0-.027-.022-.027-.063 0-.089l.48-.46c.015-.02.046-.023.07-.016z" fill="#FF6C1A"/><mask id="mask5_4340_3292" style="mask-type:luminance" maskUnits="userSpaceOnUse" x="31" y="14" width="3" height="5"><path d="M33.26 14.937h-1.34v3.17h1.34v-3.17z" fill="#fff"/><path d="M32.894 15.252c.023.011.043.034.043.06v2.42c0 .032-.032.058-.067.058-.039 0-.066-.026-.066-.059v-2.269l-.366.355c-.028.022-.067.025-.094 0-.027-.023-.027-.063 0-.089l.48-.461c.015-.018.046-.022.07-.015z" fill="#202020"/></mask><g mask="url(#mask5_4340_3292)"><path d="M32.894 15.252l.045-.085-.006-.003-.007-.002-.032.09zm-.09.21h.1v-.233l-.171.167.071.066zm-.366.355l.066.072.003-.003.003-.003-.072-.066zm-.093 0l.07-.068-.002-.002-.003-.003-.065.073zm0-.089l.07.067h.001l-.071-.067zm.479-.461l.072.067.003-.004.003-.004-.078-.059zm.025.07a.016.016 0 01-.006-.005.034.034 0 01-.007-.02h.201c0-.073-.052-.123-.098-.145l-.09.17zm-.013-.026v2.42h.201v-2.42h-.2zm0 2.42a.04.04 0 01.013-.028.033.033 0 01.022-.008v.19c.082 0 .166-.06.166-.154h-.2zm.035-.036c.004 0 .013.002.021.01a.037.037 0 01.013.026h-.201c0 .09.076.154.167.154v-.19zm.034.036v-2.269h-.201v2.27h.2zm-.172-2.335l-.367.354.144.133.366-.354-.143-.133zm-.36.348a.027.027 0 01.015-.005.04.04 0 01.028.01l-.142.135c.072.069.172.051.23.005l-.131-.145zm.037 0c.01.009.015.02.015.03a.03.03 0 01-.01.021l-.142-.134a.15.15 0 00.006.228l.131-.145zm.006.05l.48-.46-.144-.134-.48.461.144.134zm.486-.468a.049.049 0 01-.027.017h-.013l.064-.181a.187.187 0 00-.089-.006.156.156 0 00-.092.052l.157.118z" fill="#FF6C1A"/></g><path d="M33.485 13.427l-1.172-1.11H16.905v7.927" stroke="#FF6C1A"/><path d="M18.25 33.042c3.753 0 6.796-2.88 6.796-6.432 0-3.553-3.043-6.433-6.796-6.433s-6.795 2.88-6.795 6.433c0 3.552 3.042 6.432 6.795 6.432zm-5.639-2.688l-7.094 4.22" stroke="#FF6C1A"/></g><defs><clipPath id="clip0_4340_3292"><path fill="#fff" transform="translate(5.182 12)" d="M0 0h34.5v26H0z"/></clipPath></defs></svg>