<svg width="169" height="15" fill="none" xmlns="http://www.w3.org/2000/svg"><g clip-path="url(#clip0_4340_3441)"><path fill="url(#paint0_linear_4340_3441)" d="M15 7h6v1h-6z"/><path fill="url(#paint1_linear_4340_3441)" d="M27 7h6v1h-6z"/><path fill="url(#paint2_linear_4340_3441)" d="M39 7h6v1h-6z"/><path fill="url(#paint3_linear_4340_3441)" d="M51 7h6v1h-6z"/><path fill="url(#paint4_linear_4340_3441)" d="M63 7h6v1h-6z"/><path fill="url(#paint5_linear_4340_3441)" d="M75 7h6v1h-6z"/><path fill="url(#paint6_linear_4340_3441)" d="M87 7h6v1h-6z"/><path fill="url(#paint7_linear_4340_3441)" d="M99 7h6v1h-6z"/><path fill="url(#paint8_linear_4340_3441)" d="M111 7h6v1h-6z"/><path fill="url(#paint9_linear_4340_3441)" d="M123 7h6v1h-6z"/><path fill="url(#paint10_linear_4340_3441)" d="M135 7h6v1h-6z"/><path fill="url(#paint11_linear_4340_3441)" d="M147 7h6v1h-6z"/></g><circle cx="4" cy="8" r="3.25" transform="rotate(-90 4 8)" fill="#202020" stroke="url(#paint12_linear_4340_3441)" stroke-width="1.5"/><g clip-path="url(#clip1_4340_3441)"><path fill-rule="evenodd" clip-rule="evenodd" d="M168.198 7.5l-6.43-6.43-.707.707 5.23 5.23H156.15v1h10.128l-5.217 5.216.707.708 6.43-6.43z" fill="url(#paint13_linear_4340_3441)"/></g><defs><linearGradient id="paint0_linear_4340_3441" x1="15" y1="7.5" x2="21" y2="7.5" gradientUnits="userSpaceOnUse"><stop stop-color="#FF6C1A"/><stop offset="1" stop-color="#994110"/></linearGradient><linearGradient id="paint1_linear_4340_3441" x1="27" y1="7.5" x2="33" y2="7.5" gradientUnits="userSpaceOnUse"><stop stop-color="#FF6C1A"/><stop offset="1" stop-color="#994110"/></linearGradient><linearGradient id="paint2_linear_4340_3441" x1="39" y1="7.5" x2="45" y2="7.5" gradientUnits="userSpaceOnUse"><stop stop-color="#FF6C1A"/><stop offset="1" stop-color="#994110"/></linearGradient><linearGradient id="paint3_linear_4340_3441" x1="51" y1="7.5" x2="57" y2="7.5" gradientUnits="userSpaceOnUse"><stop stop-color="#FF6C1A"/><stop offset="1" stop-color="#994110"/></linearGradient><linearGradient id="paint4_linear_4340_3441" x1="63" y1="7.5" x2="69" y2="7.5" gradientUnits="userSpaceOnUse"><stop stop-color="#FF6C1A"/><stop offset="1" stop-color="#994110"/></linearGradient><linearGradient id="paint5_linear_4340_3441" x1="75" y1="7.5" x2="81" y2="7.5" gradientUnits="userSpaceOnUse"><stop stop-color="#FF6C1A"/><stop offset="1" stop-color="#994110"/></linearGradient><linearGradient id="paint6_linear_4340_3441" x1="87" y1="7.5" x2="93" y2="7.5" gradientUnits="userSpaceOnUse"><stop stop-color="#FF6C1A"/><stop offset="1" stop-color="#994110"/></linearGradient><linearGradient id="paint7_linear_4340_3441" x1="99" y1="7.5" x2="105" y2="7.5" gradientUnits="userSpaceOnUse"><stop stop-color="#FF6C1A"/><stop offset="1" stop-color="#994110"/></linearGradient><linearGradient id="paint8_linear_4340_3441" x1="111" y1="7.5" x2="117" y2="7.5" gradientUnits="userSpaceOnUse"><stop stop-color="#FF6C1A"/><stop offset="1" stop-color="#994110"/></linearGradient><linearGradient id="paint9_linear_4340_3441" x1="123" y1="7.5" x2="129" y2="7.5" gradientUnits="userSpaceOnUse"><stop stop-color="#FF6C1A"/><stop offset="1" stop-color="#994110"/></linearGradient><linearGradient id="paint10_linear_4340_3441" x1="135" y1="7.5" x2="141" y2="7.5" gradientUnits="userSpaceOnUse"><stop stop-color="#FF6C1A"/><stop offset="1" stop-color="#994110"/></linearGradient><linearGradient id="paint11_linear_4340_3441" x1="147" y1="7.5" x2="153" y2="7.5" gradientUnits="userSpaceOnUse"><stop stop-color="#FF6C1A"/><stop offset="1" stop-color="#994110"/></linearGradient><linearGradient id="paint12_linear_4340_3441" x1="0" y1="8" x2="8" y2="8" gradientUnits="userSpaceOnUse"><stop stop-color="#FF6C1A"/><stop offset="1" stop-color="#994110"/></linearGradient><linearGradient id="paint13_linear_4340_3441" x1="156.15" y1="7.5" x2="168.198" y2="7.5" gradientUnits="userSpaceOnUse"><stop stop-color="#994110"/><stop offset="1" stop-color="#FF6C1A"/></linearGradient><clipPath id="clip0_4340_3441"><path fill="#fff" transform="translate(15 7)" d="M0 0h139v1H0z"/></clipPath><clipPath id="clip1_4340_3441"><path fill="#fff" transform="translate(156 1)" d="M0 0h13v13H0z"/></clipPath></defs></svg>