<svg width="48" height="52" fill="none" xmlns="http://www.w3.org/2000/svg"><path d="M19.028 2.806L6.058 10.18A10 10 0 001 18.873v13.905a10 10 0 004.932 8.62l12.97 7.627a10 10 0 0010.124.007l13.03-7.635A10 10 0 0047 32.769V18.883a10 10 0 00-5.07-8.7L28.9 2.799a10 10 0 00-9.872.007z" fill="#202020" stroke="#FF6C1A"/><g clip-path="url(#clip0_4340_3268)" stroke="#FF6C1A" stroke-miterlimit="10"><path d="M18.095 17.956a9.568 9.568 0 00-3.46 2.084 8.646 8.646 0 00-2.167 3.247 8.098 8.098 0 00-.46 3.789 8.288 8.288 0 001.333 3.609 9.096 9.096 0 002.874 2.74 9.954 9.954 0 003.866 1.348c1.38.18 2.787.078 4.12-.302a9.683 9.683 0 003.586-1.892M23.83 30.53h.88"/><path d="M9.682 26.409c.07 2.424 1.02 4.757 2.697 6.624 1.677 1.868 3.984 3.163 6.552 3.678m8.458-8.346h-6.77v1.23l-5.203-3.462 5.203-3.3v1.333h10.899l1.843-2.63h1.949m0 9.291h-2.02l-1.805-2.462h-1.118m-4.683 2.165h3.63l1.999 2.64"/><path d="M32.564 32.528c-.816 0-1.478.61-1.478 1.363 0 .754.662 1.364 1.478 1.364s1.478-.61 1.478-1.364c0-.753-.662-1.363-1.478-1.363zm4.224-3.065c-.816 0-1.477.61-1.477 1.364 0 .753.661 1.363 1.477 1.363.817 0 1.478-.61 1.478-1.363s-.661-1.364-1.478-1.364zm-7.378-1.099h-1.018m-2.625-2.073h9.542m-11.479 0h.88m-2.646 0h.902m13.822-1.364c-.816 0-1.477.611-1.477 1.364 0 .753.661 1.364 1.477 1.364.817 0 1.478-.61 1.478-1.364 0-.753-.661-1.364-1.478-1.364zm-12.958-2.87h.88m12.078-1.885c-.816 0-1.477.61-1.477 1.364 0 .753.661 1.364 1.477 1.364.817 0 1.478-.61 1.478-1.364 0-.753-.661-1.364-1.478-1.364zm-11.104 1.885h3.63l2.391-3.167m-16.582-1.915c-2.243 1.319-3.936 3.299-4.805 5.618"/><path d="M32.564 16.393c-.816 0-1.478.61-1.478 1.364 0 .753.662 1.363 1.478 1.363s1.478-.61 1.478-1.363c0-.754-.662-1.364-1.478-1.364zm-3.426 1.563c-2.137-1.722-4.879-2.67-7.716-2.666"/></g><defs><clipPath id="clip0_4340_3268"><path fill="#fff" transform="translate(9.364 15)" d="M0 0h29.273v22H0z"/></clipPath></defs></svg>