<svg width="46" height="52" fill="none" xmlns="http://www.w3.org/2000/svg"><g clip-path="url(#clip0_4340_3220)" stroke="#FF6C1A"><path d="M17.863 3.032L5.89 10.15A10 10 0 001 18.745v14.163a10 10 0 004.763 8.52l11.973 7.358a10 10 0 0010.46.008l12.028-7.369A10 10 0 0045 32.898V18.754a10 10 0 00-4.903-8.603L28.07 3.025a10 10 0 00-10.206.007z" fill="#202020"/><g clip-path="url(#clip1_4340_3220)" stroke-miterlimit="10"><path d="M20.16 39.796c.386 0 .7-.348.7-.778 0-.43-.314-.78-.7-.78-.386 0-.7.35-.7.78 0 .43.314.778.7.778zm3.694-2.141a.79.79 0 00.799-.78.79.79 0 00-.8-.778.79.79 0 00-.798.779c0 .43.357.779.799.779zm2.996-4.673a.79.79 0 00.8-.78.79.79 0 00-.8-.778.79.79 0 00-.798.779c0 .43.358.779.799.779z"/><path d="M22.456 27.92v5.87l1.598.947v1.36m.6-9.346v3.31m-4.594 8.178V26.61s-1.53-2.019-1.82-2.907c-.245-.748-.378-2.643-.378-3.383 0-.805 1.229-1.163 1.229-1.163"/><path d="M28.05 17.72l3.032-.006h.101s.547-2.256 2.83-2.256c2.072 0 2.628 2.041 2.628 2.041h-2.73v2.041h2.73c-.203.86-1.213 2.149-2.679 2.149-2.071 0-2.88-2.041-2.88-2.041h-2.93" stroke-linecap="square"/><path d="M26.814 31.23v-4.58l1.235-3.021v-7.442s-.105-.729-.946-.729c-.84 0-1.051.743-1.051.743v2.997m0-3.11s-.105-.825-.946-.825a.99.99 0 00-1.051.825v2.875m-.001-2.875s-.115-.825-1.04-.825c-1.041 0-1.157.825-1.157.825v2.875"/><path d="M21.858 16.318s-.105-.86-.947-.86c-.946 0-1.051.86-1.051.86v4.397"/><path d="M19.06 17.72l-3.102-.006h-.104s-.56-2.256-2.895-2.256c-2.12 0-2.689 2.041-2.689 2.041h2.792v2.041H10.27c.207.86 1.241 2.149 2.74 2.149 2.12 0 2.948-2.041 2.948-2.041h1.95" stroke-linecap="square"/></g></g><defs><clipPath id="clip0_4340_3220"><path fill="#fff" d="M0 0h46v52H0z"/></clipPath><clipPath id="clip1_4340_3220"><path fill="#fff" transform="translate(10 15)" d="M0 0h27v25H0z"/></clipPath></defs></svg>