<svg width="156" height="162" fill="none" xmlns="http://www.w3.org/2000/svg"><path d="M130.302 13.046l-4.374-3.233-.201.272.169-.293-6.826-3.942-.169.293.123-.314-4.531-1.745-.123.314-.023-.34-4.178.313.023.34-.045-.336-8.431 1.138.045.336-.151-.302-3.64 1.838.151.302-.237-.24-6.038 6.02-3.1 2.86.23.248-.284-.183-2.777 4.286.283.183-.309-.14-2.51 5.527.31.14-.32-.11-.234.666-1.896.053.009.338-.034-.337-7.26.737.033.337-.062-.335-7.06 1.34.062.335-.096-.326-6.724 2.015.096.326-.136-.311-6.225 2.753.136.311-.181-.285-5.563 3.526.181.286-.202-.27-3.4 2.583.203.27-.234-.243-5.148 4.944.234.243-.281-.189-3.915 5.773.281.19-.316-.124-2.55 6.444.315.124-.334-.055-1.144 6.915.334.055-.34.012.24 7.181.34-.013-.33.072 1.537 7.256.317-.068-.302.112 2.082 5.732.084-.03.005.012-.08.034.23.543-4.757 3.097.183.284-.209-.268-7.694 6.016.208.268-.234-.243-6.403 6.204.233.243-.266-.21-4.958 6.221.266.211-.294-.166-3.444 6.051.294.166-.317-.113-2.22 6.171-2.28 6.355.317.113-.335-.036-.655 5.757.335.036-.336.052.759 5.027.335-.051-.312.133 3.076 7.189.312-.133.004-.004v.008l-.307.145 1.98 4.263.307-.145-.253.227 3.034 3.371.254-.227-.18.287 3.91 2.435.18-.288-.147.306 6.788 3.224.146-.306-.1.323 4.396 1.363.1-.323-.025.338 4.971.342.026-.338.045.336 5.42-.756-.046-.336.104.322 5.966-1.936 5.098-1.61-.102-.323.152.302 5.246-2.679-.151-.302.197.276 5.264-3.754-.196-.276.23.248 5.141-4.807-.23-.248.26.219 4.897-5.774-.258-.219.28.191 4.564-6.64-.28-.191.295.166 1.976-3.483 5.139 2.18.133-.313-.091.327 8.136 2.283.092-.326-.044.338 8.316 1.061.044-.338-.012.34 6.291.198.011-.34.034.337 8.399-.837-.033-.336.097.324 8.133-2.47-.098-.324.163.297 7.584-4.2-.164-.297.224.254 6.738-5.923-.224-.254.27.202 5.621-7.503-.27-.202.303.147 4.31-8.819-.303-.147.325.097 2.939-9.773-.325-.097.334.051 1.604-10.373-.334-.05.34.009.371-10.64-.34-.01.34-.026-.73-10.597-.34.025.333-.057-1.688-10.294-.333.058.327-.086-2.501-9.72-.328.085.32-.115-3.179-8.897-.319.116.307-.146-3.704-7.832-.307.145.286-.183-4.096-6.524-.286.182.257-.223-4.316-4.99-.258.224.202-.272.001-.01zM75.974 127.037l-1.706 3.01-.208-.229 1.826-2.82.088.039zm-32.072 28.532l-3.925.473 3.75-5.899 3.228-.258-3.055 5.686.002-.002zM7.129 119.26l3.633-6.074 3.344 6.222-3.887 6.124-3.09-6.276v.004zm29.33-33.929l.053-.022.178.276.714-.465 2.703-1.754 2.002 3.223-9.113 5.458-1.125-3.324 4.773-3.106-.183-.284-.003-.002zM122.81 9.715l-7.949 1.704-3.869-3.335 7.821-1.58 4.001 3.21h-.004zM93.1 126.355l-6.867-1.119-.306-8.337 5.888 1.004 1.282 8.454.002-.002zm-7.551-1.293l-6.85-2.103.474-8.099 6.072 1.889.302 8.315.002-.002zm-15.14-.89l-1.593 2.144-6.379-3.864 1.74-2.169 2.237 1.611.2-.275-.168.295 3.965 2.259-.003-.001zM43.2 149.432l-2.975-.395.722-7.993 2.425.442-.17 7.948-.002-.002zm-15.908 2.97l-7.48 1.77-2.27-2.604 7.88-1.508 1.87 2.342zm-11.648-4.811l8.33-1.135 1.13 2.975-8 1.53-1.456-3.37h-.004zm-5.298-20.855l7.259 4.629-2.225 5.29-7.255-4.154 2.223-5.767-.002.002zm4.243-6.826l7.134 5.215-3.79 5.644-7.284-4.647 3.94-6.212zm-3.403-7.369l5.353-6.332 3.684 6.301-5.656 6.328-3.383-6.295.002-.002zm29.497-29.528l.58-.321 8.372-4.65 2.788 3.221-9.725 4.994-2.014-3.244zm13.782-43.428l3.878-2.424 3.98 5.696-2.864 1.828-4.994-5.1zm4.485-2.74l4.416-1.956 2.938 6.089-3.388 1.547-3.968-5.682.002.002zm5.056-2.188l4.894-1.49 1.944 6.329-3.902 1.235-2.931-6.075h-.005zm5.553-1.653l5.272-1.032 1.016 6.453-4.347.898-1.938-6.317-.002-.002zm13.11.325l2.22-4.073 3.608 6.993-2.314 3.605-3.514-6.525zm2.63-4.757l2.359-2.966 3.696 7.515-2.384 2.559-3.67-7.11-.002.002zm2.857-3.49l2.463-1.821 3.65 7.877-2.372 1.552-3.741-7.608zm3.07-2.126l2.507-.716 3.415 7.979-2.26.636-3.66-7.9-.001.001zm3.245-.717l2.486.3 2.989 7.724-2.1-.146-3.37-7.878h-.005zm5.013-9.009l3.285 1.663-2.467 8.52-2.715-1.374 1.899-8.81-.002.001zm21.405 103.862l-5.605 4.454-5.05-7.623 4.365-3.591 6.292 6.758-.002.002zm-6.187 4.808l-6.202 2.862-3.732-8.176 4.889-2.298 5.043 7.61.002.002zm-6.854 3.065l-6.588 1.363-2.444-8.436 5.309-1.083 3.723 8.156zm-15.978-7.747l-5.822-.993 3.354-7.925 4.906.673-2.436 8.247-.002-.002zm-6.495-1.146l-6.028-1.873 4.078-7.543 5.302 1.493-3.352 7.923zm-20.363 14.471l-6.033-4.537 2.998-3.039 6.393 3.873-3.356 3.705-.002-.002zm-25.114 9.388l-1.699-.769-3.004-6.235 1.517.736 3.186 6.268zm-2.315-.373l-1.18 7.894-1.973-1.498 1.562-7.735 1.587 1.34.004-.001zm-12.99 6.627l6.43-5.247.793 2.455-6.12 5.698-1.103-2.906zm-8.77-8.707l8.65.098-.826 4.001-8.606.597.784-4.694-.002-.002zm2.412-5.886l8.413.942-1.979 4.365-8.625-.095 2.193-5.21-.002-.002zm4.094-6.173l7.848 1.864-3.19 4.604-8.371-.937 3.715-5.533-.002.002zm5.722-6.212l6.96 2.792-4.386 4.695-7.801-1.856 5.227-5.631zm22.2-41.488l5.426-2.644.66-.32-.148-.306.15.304 2.133-1.04 1.102-.538 3.45 3.23-9.972 4.542-2.796-3.228h-.005zm2.72-23.607l1.351-2.802 4.187 5.525-.838 2.169-4.7-4.892zm3.106-6.372l-1.916 2.495-6.668-3.411 2.653-3.427 5.931 4.343zm.914-.004l2.293-2.06 2.953 6.512-1.643 1.628-3.601-6.078-.002-.002zm2.844-2.494l2.778-1.776 2.295 6.822-2.123 1.464-2.95-6.51zm3.382-2.115l3.307-1.51 1.662 7.03-2.677 1.3-2.295-6.822.002.002zm3.944-1.762l3.828-1.212 1.099 7.156-3.264 1.088-1.663-7.032zm4.486-1.387l4.277-.882.605 7.217-3.783.82-1.099-7.155zm49.806 57.924l-2.791 5.861-3.622-6.159 1.927-4.563 4.484 4.863.002-.002zm-3.168 6.56l-3.545 4.695-2.535-7.248 2.435-3.645 3.643 6.196.002.002zm-4.055 5.293l-4.205 3.461-1.26-8.003 2.92-2.747 2.548 7.29-.003-.001zm-4.823 3.899l-4.742 2.227.063-8.387 3.413-1.876 1.266 8.036zm-5.421 2.487l-5.184 1.058 1.324-8.44 3.923-1.024-.061 8.408-.002-.002zm-14.865-8.588l-5.051-1.422 5.767-3.751 4.672 1.048-5.388 4.125zm-36.182 2.575l.173.256-.073.066-.091.043-.173-.256-2.279 1.55-.962-.114 6.577-3.986.16.179-.278.186-3.052 2.074-.002.002zm2.175 18.229l-5.485-3.144 2.663-2.366 5.583 3.246-2.763 2.267.002-.003zm-9.269 4.727l-5.36-2.663 2.28-.852 5.267 2.753-2.187.762zm-3.886-4.512l1.928-.355-1.225.665-2.262.677 1.559-.987zm6.93 3.431l-5.378-2.813 2.402-1.304 5.331 2.941-2.354 1.176zm-3.105-4.822l-2.752.504 2.501-2.1 2.47.017-2.22 1.579zm.407-2.267l2.794-2.964 2.563.651-2.626 2.333-2.735-.019.004-.001zm6.136-7.262l2.64 1.32-2.83 3.079-2.68-.682 2.868-3.719.002.002zm6.083 7.966l-5.627-3.269 2.803-3.049 5.787 3.31-2.965 3.006.002.002zm-2.988-7.177l-2.704-1.352 2.546-3.966 2.496 2.225-2.336 3.091-.002.002zm-2.236-7.174l1.566 1.402-2.8 4.366-3.332 4.321-3.441 3.649-3.547 2.977-3.669 2.323.034.053-.254.05-1.33.261-2.61.021-.002-.716.408-.875 2.816-4.095 3.73-4.164 4.6-4.203 5.423-4.222 2.134-1.45.25.277.25-.229-.224.256-.002-.002zm-20.62 32.151l1.819-7.352 1.03 1.592-1.536 7.604-1.313-1.84v-.004zm-1.02-3.066l1.91-6.677.042.144.398 1.41-1.735 7.022-.613-1.897-.002-.002zm5.404-2.222l-.896-.756-2.144-4.607-.12-.425-.327.094-.325-.093-1.648 5.757-.025-1.243 1.66-5.295v.523l.677-.001-.002-.028.39.349 2.76 5.729v-.004zm-11.763-.68l6.328-3.785-.69 2.941-6.397 4.516.759-3.672zm2.22-4.957l5.796-2.84-.046.101-.528 1.127-.862 1.845-6.126 3.663 1.767-3.898-.002.002zm3.547-5.15l4.914-1.852-2.184 3.174-5.522 2.706 2.79-4.026.002-.002zm4.241-14.143l5.823 3.613-5.484 4.657-6.92-2.774 6.583-5.498-.002.002zm5.154 7.092l-3.416.877 4.796-4.073 2.411-.269-3.793 3.467.002-.002zm4.657-4.242l-2.144.239 5.743-4.046 1.118.133-4.715 3.672-.002.002zm2.977-4.195l-6.404 4.51-5.788-3.595 7.657-5.185 4.535 4.27zm-12.208 10.311l3.745-.961-2.956 3.302-4.59 1.73 3.805-4.071h-.004zm-2.523 8.982l.053-.118.158-.001v.074l-.091.2-.166.001.05-.157-.004.001zm22.444-24.002l-7.134 4.323-4.513-4.251 8.423-4.812 3.224 4.74zm-2.622-5.061l8.901-4.446 1.986 5.052-7.677 4.115-3.212-4.723.002.002zm19.542-3.617l-8.046 3.913-1.98-5.037 9.13-4.143.896 5.267zm.639-.296l-.893-5.253 9.166-3.89-.04 5.421-2.39 1.078.27.618.274-.12 2.317 1.48-3.518-.917.501-.244.119-.057-.275-.618-5.531 2.498v.004zm-4.428-13.814l9.934-4.107 2.689 8.074-9.285 3.944-3.338-7.91zm-9.44-12.68l-.274-.599-.609-2.244.204.002.035-3.078.693-2.8 1.29-2.445 1.897-2.16 1.357-1.023 2.208-1.143 4.676-1.604 4.208-.909-2.036 7.657-1.549 5.934-1.952.791.126.314-.134-.31-9.83 4.304-.31-.688zm-1.44-4.896l-.286-3.81.075-.533.328 3.288-.016 1.428-.102-.375.002.002zm.193-7.12l.477-1.23.16 4.371-.23.928-.407-4.069zm1.095-2.793l.934-1.385-.06 4.75-.7 1.322-.172-4.689-.002.002zm1.623-2.375l1.409-1.395-.209 4.866-1.265 1.44.063-4.913.002.002zm2.114-2.06l1.963-1.35-.27 4.878-1.905 1.435.212-4.962zm2.665-1.802l2.573-1.249-.246 4.856-2.599 1.33.272-4.937zm3.266-1.555l3.204-1.067-.175 4.822-3.275 1.136.25-4.891h-.004zm3.89-1.269l3.754-.815-.016 1.573-.99 3.443-2.928.64.177-4.843.002.002zm32.344-12.572l1.4-.085-1.637.176.237-.091zm9.984 15.548l.001.017-.005-.016.004.003v-.004zm-.578-.618l-.07.534.168.02-.199.084-.102-.198-.707.366-1.044-.643.604-3.92 1.353 3.759-.003-.002zm2.881 9.493l-.278.051.804 4.444-1.065.43-4.576-6.766 4.035-1.556.565 2.125.235 1.321.278-.051.002.002zm1.455 14.922l-.155.002.019 3.018-.122 1.318-2.421 1.056 2.263-5.89.256-.11.003.61h.153l.004-.004zM100.3 103.202l-4.96-.29-.221-.048.06-.182-5.151-1.718-1.254-.613 2.612-7.416-.319-.111.323.103.725-2.268 7.476-3.089 8.373-3.422-.126-.314.13.313 7.76-3.226-.13-.314.134.31 2.821-1.228-.332 3.582-1.041 4.996-1.499 4.267-1.951 3.559-2.435 2.868-3.008 2.185-3.654 1.445-4.331.613-.002-.002zm-10.429-1.515l-.505-.186.439.105.614.206-.548-.125zm-9.484-5.99l2.112-.948 1.358-.58 1.413.224-1.317 3.585-2.516-1.614-.183.282.18-.284-1.047-.666zM60.242 72.864l9.367-4.098 3.99 3.192-9.905 4.14-3.454-3.232.002-.002zM75.6 54.32l3.162 4.836-1.614 5.822-.625.254-2.79-3.883 1.867-7.03zm-3.192-.928l2.92-.64-.053.187-3.155.68.288-.227zm37.769-13.082l.281.459-.149.222-1.394-.436.654-1.22.604.976h.004zm-1.643.952l.053-.1 1.484.466-1.12 7.14-2.931-.93.196-1.306 2.32-5.272-.002.002zm3.846 10.367l-.245.126.125.245-.033.082-.12-.317-.528.201-.76.29-.972-2.406 2.114.915.417.862.002.002zm-4.644 1.81l-1.568-4.84 2.801.888 1.219 3.014-.484.186-1.969.753.001-.002zm10.351 11.482l.619 6.487.01 1.835-.252.109-1.331-8.132.939-.378.013.08.002-.001zm-9.707 18.32l1.88-5.823 7.343-2.978-2.271 5.914-6.952 2.888zm-8.432 3.452l1.404-5.704 8.094-3.245-1.885 5.835-7.61 3.112-.003.002zm-9.145 5.849l-4.57 1.11.19-.58 4.42-1.886.451-.188-.491 1.544zm-5.308 1.203l-.468-.073.57-.244-.102.317zm5.64-3.41l.797-5.567 8.645-3.467-1.405 5.71-7.463 3.083-.577.24.002.001zM77.938 64.661l1.406-5.067 4.992 2.596-4.983 1.9.12.316-.126-.314-1.409.57zm7.34-2.108l1.944-.741 1.556-.597 4.862 2.94-9.002 3.438-4.447-3.094 5.088-1.942v-.004zm11.719-4.39l.456-.167 5.244 2.744-8.252 3.107-4.855-2.934 3.434-1.273 3.97-1.474.002-.002zm12.607 18.791l-8.295 3.326-1.782-8.193 8.559-3.325 1.518 8.192zm-1.766-8.82l-8.56 3.326-4.36-7.067 8.471-3.19 4.449 6.93zm-13.566-3.498l4.363 7.074-9.206 3.583-4.333-7.151 9.176-3.506zm4.62 7.7l1.784 8.199-8.816 3.536-2.167-8.155 9.199-3.58zm18.934 1.285l-7.577 3.073-1.514-8.184 7.758-3.037 1.333 8.148zm-1.584-8.776l-7.754 3.036-4.445-6.923 7.619-2.882 4.578 6.771.002-.002zm-12.688-4.428l-5.235-2.74 4.258-1.58 2.73-1.007 5.603 2.545-7.356 2.782zm-.551-5.202l.409-1.232 2.002.332-2.411.9zm.222-1.876l-.033.194-.138-.256.171.062zm1.484-2.87l.728-1.944 1.569 4.848-3.113-.716.818-2.186-.002-.002zm.897-2.398l.041.005-.048.016.009-.023-.002.002zm-.217-1.332l-4.885 3.02 2.065-4.198 4.861-3.459-2.043 4.639.002-.002zm-.399 1.04l-.033.09-1.834 4.911.317.117-.003.005-.03.077-.32-.115-.136.373.059.02-5.11 2.794 2.057-5.16 5.033-3.111zm-7.474 9.254l5.092-2.783-.418 1.269-4.444 1.647.096.26-.202-.104-.157.3-.086-.236.119-.353zm-.899.548l-7.913 2.935.116.316-.12-.316-1.044.401 1.415-4.298 7.707.492-.158.472-.003-.002zm-9.776 3.646l-.881.337-.77.297-5.645-2.936 1.955-6.314 6.922 3.815-1.58 4.803-.002-.002zM75.88 65.49l-3.609 1.458 1.24-4.752 2.367 3.292.002.002zm1.173.258l2.378-.963 4.452 3.098-9.563 3.776-3.99-3.192 6.723-2.72zm-2.294 6.465l9.694-3.83 4.335 7.154-9.678 3.837-4.352-7.165v.004zm14.298 3.948l2.167 8.16-9.146 3.742-2.686-8.07 9.665-3.832zm2.154 8.897l-.799 5.573-3.36 1.433-4.819 2.06-.065.027.04-5.413 9.001-3.682.002.002zm-5.222 9.347l4.559-1.107-2.379 6.753-3.606-1.757 1.428-3.887-.002-.001zm18.929 8.798l2.618-1.036-3.349 4.824-3.375.883 4.103-4.673.003.002zm3.782-1.517l1.845-1.339-2.389 4.492-2.661 1.464 3.203-4.615.002-.002zm3.11-2.284l1.152-1.355-1.415 3.618-1.883 1.77 2.146-4.033zm2.51-2.976l.619-1.127-.586 2.182-1.071 1.604 1.038-2.659zm1.996-3.657l.272-.776-.053.33-.276.654.055-.206.002-.002zm-.008-37.956l-.323.089.187.706-4.368 1.683-5.606-2.545.57-.218.484-.181-.09-.245.094.244.443-.172-.137-.355.004-.004.139.36 4.121-1.576.405-.156 3.469 1.39.285 1.069.325-.087-.002-.002zm-3.627-9.51l-.726 4.711-2.349-1.017 1.117-7.123.441.194 1.515 3.233.002.002zm-4.703-4.422l-4.486 3.193 1.835-2.938 3.56-2.927.281.46-1.19 2.212zm.55-3.252l-.986.81.596-.722.288-.25.1.165.002-.002zm.061-.56l.271-.07-.214.135-.057-.066zm-6.122-.8l4.581-.489.971 1.145-.257.224-7.105.397 1.81-1.277zm-2.815 2.013l7.491-.42-2.235 2.71-7.491.081 2.233-2.373.002.002zm-2.845 3.058l7.646-.084-2.332 3.731-7.651-.19 2.335-3.455.002-.002zm4.964 4.316l-2.287 4.655-7.708-.374 2.278-4.474 7.721.193h-.004zm-2.574 5.322l-2.181 5.466-7.697-.491 2.138-5.351 7.738.374.002.002zm-10.535 4.801l-6.941-3.824 2.082-5.61 7.009 4.056-2.15 5.378zm-7.73-3.622l-1.905 6.148-3.268-4.998-.165.109-.067-.328.386.108.232-.807 1.058-3.678-.324-.093.326.09.531-1.85 3.2 5.3h-.005zm-21.301 20.61l-.076.087-.021-.041.097-.046zm4.494 3.885l9.997-4.18 4.352 7.165-9.954 4.114-4.397-7.1.002.001zm19.739 22.05l.082-.307.192.069-.15.306 1.23.599.15-.307-.149.304 1.75.854-2.914-.7-3.118-1.585 2.93.763-.003.005zm11.533 4.89l1.501.089 2.603.153-4.866 4.488-4.591-.627 5.355-4.101-.002-.002zm5.069.27l3.396-.48-4.188 4.769-4.024.155 4.818-4.442-.002-.002zm16.77-11.545l1.354-5.452 5.053 3.419-1.944 6.873-4.463-4.84zm1.503-6.17l.727-6.217 5.371 1.954-1.062 7.67-5.036-3.407zm-3.01-34.053l-.454.12.211.797-2.348-.94 1.824-.75.296.813.317-.117.132-.01.024.09-.002-.003zm-.731-2.82l.015.179-.58-1.617-.609-1.683-.06-.41 1.232 3.53.002.001zm-2.414-6.907l.24 1.633-1.364-2.909-.432-2.154 1.558 3.431-.002-.001zm-2.793-6.141l.638 3.184-1.167-1.89-.345-.556-.007.009-.969-3.886 1.851 3.143-.001-.004zm-6.27-9.238l1.78 6.006-1.138-.9-.656-.514-2.26-6.591 2.273 1.995.001.004zm-3.166 3.972l4.587 2.621.779.615.212-.267.324-.1-1.612-5.43 2.09 2.653 1.162 4.675-.848-1.002-.368.31-.014-.231.259-.218-.637-.759-.519.44.205.245-.817.05-6.153-3.689 1.35.095v-.008zm3.944 3.87l-1.919.733-6.838-4.199 2.025-.57 6.734 4.039-.002-.002zm-2.57 1.13l-2.24 1.584L92.4 33.16l2.313-1.511 7.022 4.31h-.004zm-2.76 2.06l-2.398 2.548-7.15-4.388 2.4-2.577 7.148 4.417zm-2.82 3.084l-2.4 3.557-7.112-4.266 2.36-3.68 7.152 4.39zm-2.747 4.143l-2.305 4.532-7.03-4.067 2.24-4.719 7.097 4.256-.002-.002zm-10.146.632l-2.025 5.454-3.238-5.364 1.967-5.927 3.297 5.835-.001.002zM54.69 50.657l1.836-2.392 3.599 6.077-1.244 1.847-4.193-5.53.002-.002zm2.75 9.075l-.365 2.58-5.08-4.207.76-3.252 4.684 4.877.002.002zm-.442 3.4l.228 3.044-5.324-3.523.044-3.704L57 63.131zm.326 3.92l.94 3.47-5.43-2.893-.786-4.068 5.276 3.492zm-4.145 1.534l5.355 2.853.553 1.216-2.244 1.092-1.992-.865-1.672-4.296zm2.223 5.275l.637.275-.37.183-.267-.458zm8.093 3.064l4.397 7.097-10 4.436-4.434-6.963 10.04-4.572-.003.002zm4.71 7.698l3.34 7.916-9.233 4.19-4.082-7.681 9.977-4.427-.002.002zM61.701 97.02l-9.002 4.496-4.87-7.354 9.785-4.827 4.087 7.685zm-9.602 4.818l-8.527 4.87-5.63-6.93 9.285-5.3 4.874 7.358-.002.002zm-9.106 5.238l-7.775 5.262-6.296-6.401 8.437-5.794 5.634 6.933zm-8.32 5.678l-6.705 5.599-6.81-5.819 7.215-6.184 6.298 6.402.002.002zm-10.394 29.3l6.524-4.608.053 2.747-6.369 5.194-.21-3.335.002.002zm15.574-8.393l-5.029-2.31 1.552-.013 4.89 2.325-1.409-.003-.004.001zm2.964-.011l-5.294-2.516 2.067-.409 5.172 2.57-1.945.355zm3.534-.032l2.417-.841 4.707 6.051-2.852 1.101-4.272-6.311zm3.058-1.123l2.49-1.242 5.174 5.662-2.96 1.629-4.704-6.049zm3.086-1.594l2.62-1.712 5.634 5.155-3.086 2.209-5.164-5.652h-.004zm-.533-.46l-5.407-2.984 2.518-1.789 5.43 3.111-2.539 1.66-.002.002zm3.704-1.667l2.81-2.308 6.048 4.546-3.239 2.904-5.621-5.143.002.001zm6.18-6.685l-5.82-3.33 2.242-2.966 1.214 1.081.225-.256-.197.277 4.12 2.975-1.78 2.219h-.005zm-6.648-9.491l.225-.256-1.729-1.545-.132-.277.803-.544.572-.39 1.807 1.599 1.935 4.066-2.982-2.661-.268-.243-.229.252-.002-.001zm.318-3.406l.855-.582.592-.399.446-.269-.588 2.407-1.309-1.157h.004zm1.334-1.703l-.131-.146 3.461-1.856-3.33 2.002zm21.122-10.288l5.243 2.663-6.134 3.459-5.5-2.957 6.393-3.163-.002-.002zm5.99 3.019l5.062 1.879-5.798 3.769-5.367-2.207 6.102-3.441zm11.04 8.791l4.428-.173-1.326 8.446-5.54-.026 2.44-8.25-.003.003zm20.071.825l3.687-4.883 7.374 5.63-4.761 6.014-6.296-6.762-.004.001zm4.047-5.462l2.893-6.078 8.192 4.315-3.711 7.393-7.374-5.63zm3.142-6.713l2.004-7.085 8.756 2.92-2.568 8.48-8.192-4.315zm2.15-7.752l1.09-7.859 9.076 1.541-1.41 9.237-8.756-2.92zm.472-8.731l-5.363-1.95.061-6.784 5.49.522-.19 8.214.002-.002zm.166-8.897l-5.489-.519-.607-7.1 5.452-.85.648 8.47h-.004zm-.729-9.143l-5.456.85-1.228-7.118 5.285-2.166 1.399 8.434zm-1.535-9.11l-5.299 2.172-1.769-6.853 5.016-3.427 2.052 8.108zm-2.246-8.793l-5.034 3.438-2.203-6.315 4.648-4.637 2.589 7.514zm-2.85-8.209l-4.67 4.661-2.517-5.545 4.188-5.788 3.001 6.674-.002-.002zm-3.336-7.363l-4.212 5.824-2.706-4.594 3.645-6.855 3.271 5.627.002-.002zm-3.685-6.287l-3.677 6.908-2.79-3.54 3.056-7.773 3.411 4.405zm-3.909-4.988l-3.08 7.84-2.782-2.444 2.452-8.46 3.413 3.066-.003-.002zm-8.923 4.534l2.399 1.215 2.415 7.05-1.932-.812-2.884-7.451.002-.002zM85.779 40.525l-2.18 4.594-3.35-5.927 2.076-5.078 3.454 6.41zm-6.96-.249l.315.093-.32-.085-.026.1-1.096 4.048-.478 1.763-.012.001-.605-7.213 2.699-.309-.48 1.604.002-.002zm-19.902 4.82l-2.377 2.132-5.918-4.332 3.287-2.916 5.008 5.115zm-8.94-2.528l-5.538-.79 4.05-3.702 4.77 1.576-3.284 2.914.002.002zm-.517.61L46.81 46.6l-6.174.131 3.198-4.355 5.626.802zm4.353 7.634l-1.42 2.945-7.204-2.398 1.943-3.966 6.683 3.417-.002.002zm-1.646 3.585l-.807 3.449-7.526-1.364 1.12-4.488 7.215 2.4-.002.003zm-8.424 2.759l7.53 1.363-.048 3.961-7.66-.385.176-4.937.002-.002zm-.125 5.62l7.66.384.846 4.383-7.652.482-.854-5.25zm1.038 5.914l7.648-.482 1.813 4.658-7.548 1.216-1.911-5.394-.002.002zm2.216 6.03l7.538-1.212.646 1.11-3.182 1.55-2.31 1.13.145.305-.164-.297-.968.537-1.709-3.118.004-.004zm5.969 7.074l4.43 6.957-9.814 4.843-4.393-6.778 9.78-5.022h-.003zm-5.986 12.12l-9.318 5.318-4.259-6.587 9.186-5.503 4.389 6.77.002.002zm-9.893 5.681l-8.464 5.813-4.015-6.43 8.23-5.954 4.249 6.571zm-9.008 6.227l-7.227 6.193-3.704-6.339 6.932-6.262 4.001 6.41-.002-.002zm-7.285 7.187l6.81 5.818-5.334 5.749-7.144-5.221 5.67-6.344-.002-.002zM7.97 133.187l7.199 4.119-.786 4.709-7.087-3.733.679-5.095H7.97zm7.042 9.661l8.6-.595.222 3.526-8.382 1.144-.442-4.073.002-.002zm11.01 6.858l6.134-5.711 1.47 2.062-5.712 6.021-1.895-2.37.003-.002zm12.196-9.802l2.066.934-.722 7.996-2.528-.994 1.184-7.936zm2.65.421l-3.279-6.445 1.963.42 3.52 6.427-2.204-.402zm-.518-5.985l2.227.003 3.87 6.424-2.533.077-3.564-6.504zm2.963-.091l2.355-.431 4.263 6.299-2.73.589-3.892-6.457h.004zm7.562 6.309l2.927-1.131 1.938 6.736-3.693 1.676-1.172-7.281zm3.55-1.414l3.032-1.668 2.68 5.92-3.788 2.421-1.922-6.675-.002.002zm3.611-2.027l3.163-2.265 3.34 4.924-3.848 3.203-2.655-5.862zm3.695-2.689l3.314-2.973 3.846 3.831-3.854 4.02-3.308-4.876.002-.002zm3.797-3.453l3.428-3.783 4.18 2.729-3.8 4.849-3.81-3.792.002-.003zm.18-10.442l-3.364-2.428-2.367-1.71-2.083-4.38 5.615 4.027 2.198 4.489.002.002zm-8.302-9.704l.823-3.381 1.957-1.179 1.404-.846 3.415 2.384-1.459 7.426-6.143-4.406.003.002zm6.422-6.749l1.447-.777 4.91-2.64-4.88 6.528-3.078-2.15 1.601-.961zm7.11-3.294l5.66 3.045-4.633 7.14-6.088-3.42 5.057-6.765h.004zm6.276 3.34l5.57 2.289-4.075 7.542-6.13-2.685 4.637-7.144-.002-.002zm15.293 13.808l5.631.026 2.437 8.415-6.785.033-1.285-8.476.002.002zm9.217 8.977l6.527-1.351 5.778 4.421-7.275 1.777-5.032-4.844.002-.003zm7.264-1.641l6.196-2.86 6.591 3.913-6.938 3.422-5.853-4.475h.004zm6.812-3.283l5.634-4.479 7.324 3.284-6.301 5.146-6.657-3.951zm6.122-5.004l4.804-6.067 7.923 2.561-5.353 6.811-7.374-3.305zm5.164-6.665l3.751-7.467 8.376 1.803-4.17 8.235-7.957-2.571zm3.996-8.108l2.592-8.564 8.676 1.074-2.869 9.297-8.399-1.807zm11.426-8.154l-8.685-1.075 1.422-9.318 8.842.401-1.579 9.992zm-7.879-11.145l-9.078-1.543.192-8.369 9.201.236-.315 9.676zm.299-10.354l-9.202-.234-.659-8.606 9.174-.974.687 9.814zm-.766-10.487l-9.176.977-1.421-8.56 9.025-2.09 1.572 9.673zm-1.707-10.337l-9.025 2.089-2.085-8.24 8.776-3.111 2.338 9.262h-.004zm-2.528-9.912l-8.776 3.11-2.64-7.659 8.447-4.034 2.971 8.584-.002-.002zm-3.221-9.215l-8.449 4.036-3.072-6.828 8.049-4.86 3.474 7.654-.002-.002zm-3.783-8.256l-8.049 4.86-3.361-5.78 7.589-5.552 3.823 6.474-.002-.002zm-4.205-7.031l-7.585 5.551-3.511-4.535 7.085-6.08 4.009 5.066.002-.002zm-8.469-8.99l3.991 3.44-7.071 6.068-3.5-3.142 6.582-6.363-.002-.002zm-7.139 5.963l-3.302-1.673 6.109-6.344 3.728 1.697-6.535 6.32zm1.942-8.093l-5.937 6.165-2.875-.258 5.655-5.935 3.155.03.002-.002zm-9.26 6.548l3.041.272-1.9 8.822-2.613-.316 1.472-8.778zm-2.162 8.806l-2.466.706 1.213-8.322 2.703-1.028-1.448 8.646-.002-.002zm-3.191.987l-2.257 1.67 1.1-7.488 2.316-2.137-1.16 7.955zm-3.033 2.287l-1.958 2.46 1.06-6.319 1.896-2.924-.998 6.783zm-2.833 3.583l-1.518 2.787.949-4.72 1.42-3.133-.85 5.066zm-2.614 4.81l-.75 1.835.481-2.025-.329-.078-.324-.096-1.528 5.106-2.993.342-1.018-6.446 5.517-.589.044 1.587.338-.01.32.11.68-1.927-.44 2.19.002.001zm-.962-2.631l-5.648.604-.918-2.843 6.48-.658.085 2.899.002-.002zm-6.327.71l-5.387 1.054-1.8-2.722 6.266-1.188.92 2.857zm-6.077 1.24l-4.978 1.515-2.747-2.492 5.907-1.768 1.816 2.747.002-.002zm-5.677 1.797L58.46 36.31l-3.731-2.112 5.405-2.39 2.783 2.53zm-5.14 2.368l-3.891 2.432-4.686-1.547 4.786-3.034 3.794 2.149h-.004zm-16.028 7.368l-2.044 2.786-1.61 1.568 2.023-2.984 1.631-1.37zm4.683 3.21l-1.944 3.968-6.559 1.134 2.25-4.968 6.25-.133.003-.002zm-8.791 5.84l6.62-1.145-1.124 4.508-6.689 2.127 1.194-5.492-.001.002zm-1.313 6.24l6.736-2.142-.177 4.974-6.636 3.038.077-5.87zm-.046 6.6l6.67-3.054.86 5.302-6.477 3.838-1.053-6.085zm1.216 6.775l6.506-3.856 1.935 5.458-6.276 4.514-2.165-6.116zm2.435 6.753l6.296-4.528 1.757 3.206-2.78 1.543-3.972 2.208-1.303-2.431.002.002zm.709 2.758l-.598.333.164.297-.183-.284-2.071 1.344 1.58-3.762 1.11 2.074-.002-.002zM32.4 92.412l-8.075 5.844-.213-3.515 7.175-5.612 1.11 3.281.003.002zm-8.722 6.337l-6.604 5.966.604-3.761 5.794-5.614.206 3.409zm-7.41 6.715l-4.71 5.572 1.152-3.866 4.114-5.16-.556 3.458v-.004zm-6.46 20.765l-2.133 5.539-2.847-6.201 1.962-5.47 3.019 6.132zm-2.457 6.465l-.603 4.531-2.598-5.936.508-4.457 2.693 5.862zm0 6.387l6.967 3.669.43 3.971-6.799-3.384-.598-4.256zm7.537 8.47l1.33 3.078-6.342-3.056-1.522-3.274 6.532 3.25.002.002zm1.796 4.054l1.674 1.924-5.494-2.607-1.837-2.039 5.657 2.722zm3.866 3.073l7.27-1.72 2.434 1.656-6.843 1.877-2.865-1.813h.004zm13.547-8.14l2.071 1.572-5.175 6.181-2.582-1.756 5.686-5.997zm2.662 1.922l2.567 1.009-4.545 6.181-3.145-1.068 5.125-6.12-.002-.002zm3.25 1.218l2.951.393-3.828 6.022-3.599-.324 4.48-6.092-.003.001zm3.869-.243l.17-7.917 2.67-.08.467 7.731-3.31.268.003-.002zm3.514-8.077l2.824-.609 1.182 7.335-3.54.962-.464-7.686-.002-.002zm4.645 7.226l3.548-1.611-1.409 4.369-4.283 2.188 2.144-4.946zm4.39-2.017l3.652-2.334-.664 3.394-4.323 3.082 1.335-4.146v.004zm4.445-2.859l3.75-3.121-.09 2.28-4.277 3.999.617-3.158zm4.453-3.726l3.837-4 .234 1.17-4.156 4.899.083-2.071.002.002zm4.405-4.616l3.918-5.002.25.273-3.959 5.758-.205-1.03-.004.001zm3.8-5.996l-4.145-2.707 1.612-2.17 2.862 1.63.17-.294-.134.314 1.356.571-1.72 2.656zm-.342-4.417l-5.595-3.184-.17.298.168-.295-.723-.409-2.299-4.692 6.105 3.5 2.514 4.786v-.004zm-9.03-9.308l1.465-7.463 6.09 3.422-1.05 7.77-6.502-3.731-.002.002zm8.197-3.731l6.154 2.695-.474 8.072-6.734-2.966 1.054-7.801zm6.726 11.858l6.609 2.03 3.5 5.056-7.098-1.991-3.011-5.095zm7.556 2.204l6.685 1.09 4.184 4.992-7.306-.932-3.563-5.146v-.004zm11.838 6.18l-4.25-5.069 6.666-.034 4.961 4.778-1.461.066-3.445.153-2.468.112-.003-.006zm11.587-.505l4.797-1.171 2.538-.3-4.441 1.349-2.894.122zm6.655-2.072l5.879-2.899 4.148-.77-5.702 3.159-4.323.512-.002-.002zm7.009-3.798l5.826-4.759 4.671-1.109-5.646 4.963-4.849.903-.002.002zm6.538-5.621l5.15-6.553 4.822-1.264-4.965 6.63-5.007 1.187zm5.594-7.369l4.092-8.081 4.823-1.248-3.922 8.019-4.993 1.31zm4.36-8.848l2.843-9.216 4.784-1.09-2.715 9.035-4.912 1.271zm2.99-9.944l1.574-9.957 4.752-.823-1.496 9.68-4.83 1.1zm.951-10.605l-8.85-.4.316-9.748 8.914-.18-.378 10.33-.002-.002zm.368-11.008l-8.913.181-.692-9.879 8.912-.667.697 10.365h-.004zm-.774-11.039l-8.908.667-1.579-9.73 8.849-1.052 1.64 10.117-.002-.002zm-1.78-10.781l-8.843 1.054-2.347-9.308 8.753-1.356 2.439 9.612-.002-.002zM139.332 40.3l-8.74 1.355-2.982-8.62 8.619-1.574 3.105 8.837-.002.002zm-3.371-9.478l-8.601 1.57-3.484-7.674 8.465-1.712 3.618 7.818.002-.002zm-3.963-8.44l-8.434 1.708-3.822-6.471 8.286-1.774L132 22.38l-.002.002zm-4.423-7.13l-8.229 1.76-3.978-5.021 8.078-1.733 4.125 4.993h.004zm-4.995-6.608l2.961 1.709.809.599-2.58-1.355-1.188-.955-.002.002zm-4.887-2.62l-7.407 1.497-3.301-1.504 7.353-1.286 3.358 1.296-.003-.002zm-17.526.992l-4.838 5.078-1.887.718 4.881-4.863 1.846-.93-.002-.003zM82.891 27.614l-1.03 2.927-.18.006-.087-2.897 1.297-.036zm-46.65 23.562l2.678-2.606-1.846 4.074-2.618 3.043 1.786-4.511zm-2.519 6.4l3.027-3.518-1.067 4.916-2.85 3.987.89-5.386zm-1.118 6.867l3.042-4.256-.073 5.48-2.772 4.686-.197-5.91zm.255 7.137l2.874-4.858 1.005 5.813-2.574 5.217-1.307-6.174.002.002zm1.547 7.215l2.634-5.342 2.098 5.923-2.19 5.214-.274.177-2.27-5.974.002.002zM9.273 113.2l1.971-3.464-.775 2.612-2.229 3.727 1.031-2.872.002-.003zm-4.377 23.074l-.37-2.446 2.074 4.738.353 2.519-2.057-4.811zm19.675 20.6l6.476-1.776 2.751.937-6.038 1.83-3.189-.987v-.004zm5.049 1.133l5.319-1.613 2.675.24-4.926 1.584-3.068-.211zm6.942-.322l2.816-.904 1.325-.159-2.63.853-1.511.21zm8.245-2.389l2.97-5.528 3.416-.927-2.228 5.141-4.158 1.314zm31.16-28.603l-.21-.135.133-.313-1.614-.683-2.593-4.94 6.424 2.832 2.945 4.983-4.936-2.093-.15.349zm73.645-44.18l-4.77.827.379-10.319 4.742-.485-.349 9.976-.002.002zm.339-10.656l-4.746.486-.695-10.355 4.756-.078.687 9.949-.002-.002zm-.768-10.627l-4.748.077-1.637-10.087 4.802.366 1.58 9.642.003.002zm-1.736-10.336l-4.781-.363-2.423-9.54 4.874.853 2.33 9.05zm-2.571-9.78l-4.835-.846-3.056-8.697 4.967 1.361 2.924 8.181zm-3.284-8.986l-4.901-1.341-3.504-7.569 5.075 1.87 3.326 7.04h.004zm-3.899-7.973l-4.928-1.819-3.713-6.111 5.132 2.331 3.511 5.597-.002.002zm-4.55-6.812l-4.744-2.156-3.486-4.218 4.969 2.608 3.259 3.768.002-.002z" fill="#FD971F" fill-opacity=".6"/></svg>