<svg width="157" height="156" fill="none" xmlns="http://www.w3.org/2000/svg"><path d="M156.368 74.482l-.8-3.182-.001-.004-.001-.005-1.199-3.464-1.237-3.569-1.276-3.679-1.314-3.797-1.356-3.918-1.401-4.044-1.449-4.18-1.497-4.318-1.547-4.467-1.599-4.623-1.658-4.784-1.719-4.958-1.78-5.138-.001-.004-.001-.005-2.196-5.222-.001-.004-.001-.005-3.038-5.877-.001-.005c-.001-.004-.007-.008-.01-.012a.014.014 0 00-.004-.01l-2.557-2.898-.008-.006-.01-.01a.024.024 0 00-.01-.005s-.003-.004-.006-.004h-.004l-.001-.004-4.253-2.085-.008-.003c-.002 0-.008-.004-.01-.006a.02.02 0 01-.011-.002.022.022 0 01-.01-.003h-.004l-3.691-.166-.014.002h-.012l-6.541 1.176-.007.001-.005.001-5.251 1.56-.005.001-.004.001-4.922 1.84-4.745 1.772-4.577 1.71-4.418 1.651-4.265 1.594-4.123 1.539-3.983 1.49-3.857 1.438-3.732 1.395-3.614 1.351-3.503 1.309-3.394 1.267-3.294 1.231-.005.001h-.004L53.59 23.72h-.003l-2.346 1.217-.005.001-.01.01c-.005 0-.01.001-.01.006l-2.033 1.69-.002.001-2.362 2.078-.004.001-.004.008s-.004.001-.004.003l-2.413 2.56-2.489 2.637-2.566 2.722-2.647 2.81-2.736 2.9-2.824 2.997-2.92 3.098-3.02 3.203-3.124 3.316-3.235 3.434-3.353 3.559-3.477 3.688-3.605 3.825h-.003l.001.005h-.004l-3.463 4.223a.095.095 0 00-.028.039L1.292 79.31l-.005.01-.008.012L.001 82.8 0 82.807l-.001.007c0 .003-.001.008-.003.01v.023l.276 4.728v.004l.002.007.002.012.003.014.002.009 1.683 3.476.003.004a.021.021 0 00.01.015v.005l4.244 5.076.003.002v.005l3.968 4.046h.002l.001.007 4.051 3.63 3.908 3.503 3.773 3.38 3.644 3.264 3.521 3.156 3.405 3.052 3.294 2.951 3.188 2.856 3.09 2.767 2.992 2.681 2.902 2.601 2.814 2.521 2.73 2.447s.002-.001.005.001c0 0 0 .003.003.005l2.626 1.969s.005.001.005.004l.006.006 2.227 1.262s.004-.001.005.001c0 0 0 .003.005.004l2.506 1.106.005-.001c.002 0 .005.004.01.005l2.987.843.005-.001s.003.002.005.001l3.43.635 3.536.655 3.65.675 3.766.698 3.889.72 4.019.744 4.156.77 4.298.797 4.45.825 4.609.854 4.777.885 4.955.917 5.139.953.007-.001 5.436.637.007-.001 6.692.365s.019.001.029-.001l.004-.001 3.656-.834s.007-.001.012-.004a.058.058 0 00.026-.013l3.979-2.643s.002 0 .004-.003l.008-.007.012-.012c.003 0 .007-.003.009-.006l2.184-3.046.005-.011a.068.068 0 00.011-.019l2.261-6.307-.001-.004 1.524-5.26-.001-.005 1.12-5.11 1.078-4.921 1.04-4.746 1.004-4.58.968-4.421.934-4.273.903-4.129.874-3.994.847-3.866.818-3.742.795-3.627.77-3.514.745-3.408-.002-.007v-.002l.384-3.082-.002-.007c0-.002.002-.005.001-.01l-.051-2.738-.001-.005-.002-.007-.298-2.543-.001-.007-.002-.006.001.004zm-99.457 66.186l1.828.499 1.602 1.217-3.43-1.716zm3.36 1.944l-1.79-.499-1.573-1.183 3.363 1.685v-.003zm24.62-67.296l6.893-4.578.519 8.254-7.412-3.676zm7.307 3.887l-6.895 4.578-.517-8.254 7.412 3.676zm-7.13 4.593l-7.408-3.678 6.893-4.578.517 8.254-.002.002zm7.26-4.398l.52 8.26-7.415-3.681 6.895-4.579zm.21-.421l-.519-8.254 7.416 3.672-6.895 4.579-.002.003zm7.025-4.383l.522 8.257-7.417-3.679 6.895-4.578zm-14.805.525l-.515-8.247 7.408 3.669-6.89 4.578h-.003zm-.235.015l-7.403-3.672 6.888-4.575.515 8.247zm-7.534-3.868l-.511-8.24 7.4 3.666-6.889 4.575zm7.43 4.081l-6.89 4.578-.514-8.25 7.404 3.672zm.542 8.663l-6.896 4.578-.512-8.257 7.408 3.679zm.13.195l.515 8.262-7.41-3.683 6.895-4.579zm.41 8.475l-6.899 4.582-.513-8.265 7.41 3.683h.003zm-.175-8.49l7.415 3.682-6.897 4.582-.516-8.264h-.002zm7.235-4.804l7.417 3.679-6.899 4.582-.52-8.26.002-.001zm7.236-4.805l7.421 3.676-6.899 4.582-.522-8.258zm.105-.21l6.895-4.58.527 8.258-7.422-3.676v-.003zm-7.782-3.855l6.893-4.579.523 8.25-7.416-3.671zm-7.773-3.852l6.888-4.575.518 8.247-7.408-3.67.002-.002zm-7.766-3.848l6.884-4.574.516 8.24-7.4-3.666zm.171 8.468l-7.398-3.668 6.885-4.572.511 8.24h.002zm.539 8.657l-7.402-3.675 6.889-4.575.513 8.25zm.538 8.665l-7.406-3.679 6.89-4.577.513 8.257h.003zm.539 8.673l-7.41-3.685 6.896-4.579.514 8.264zm7.265-4.399l.517 8.271-7.417-3.69 6.9-4.581zm7.24-4.808l.52 8.268-7.418-3.686 6.897-4.582zm7.239-4.807l.524 8.267-7.424-3.686 6.9-4.581zm7.239-4.808l.528 8.264-7.425-3.683 6.9-4.582h-.003zm.21-.422l-.526-8.257 7.424 3.676-6.9 4.582h.002zm7.03-4.386l.53 8.263-7.429-3.679 6.899-4.582v-.002zm-14.817.528l-.523-8.25 7.419 3.671-6.896 4.579zm-7.781-3.855l-.518-8.247 7.41 3.669-6.892 4.578zm-7.774-3.852l-.516-8.24 7.405 3.665-6.889 4.575zm-7.765-3.848l-.513-8.233 7.397 3.661-6.884 4.574v-.002zm-.236.015l-7.394-3.662 6.882-4.571.512 8.233zm-7.52-3.863l-.316-7.928 7.187 3.364-6.874 4.565.002-.001zm7.413 4.074l-6.885 4.572-.508-8.236 7.395 3.662-.002.002zm.537 8.65l-6.889 4.574-.51-8.243 7.399 3.669zm.538 8.656l-6.89 4.577-.51-8.25 7.403 3.675-.003-.002zm.54 8.665l-6.895 4.579-.51-8.258 7.405 3.679zm.54 8.673l-6.898 4.581-.511-8.267 7.408 3.686zm.13.198l.515 8.271-7.412-3.69 6.9-4.582h-.003zm.405 8.48l-6.735 4.282-.667-7.969 7.404 3.687h-.002zm-.17-8.496l7.417 3.689-6.901 4.585-.516-8.271v-.003zm7.24-4.807l7.418 3.686-6.901 4.584-.517-8.27zm7.24-4.808l7.422 3.685-6.901 4.585-.522-8.268v-.002zm7.239-4.808l7.425 3.683-6.902 4.584-.523-8.267zm7.239-4.808l7.429 3.68-6.901 4.584-.528-8.263zm7.241-4.803l7.09 3.706-6.56 4.548-.53-8.251v-.003zm.096-.216l6.56-4.536.53 8.24-7.09-3.704zm-7.782-3.857l6.896-4.579.528 8.254-7.424-3.675zm-7.783-3.852l6.893-4.578.525 8.25-7.418-3.672zm-7.776-3.85l6.89-4.574.52 8.243-7.41-3.668zm-7.77-3.844l6.888-4.572.517 8.237-7.404-3.665zm-7.761-3.842l6.882-4.571.514 8.233-7.397-3.662zm-7.549-3.538l6.862-4.557.325 7.921-7.186-3.364zM68.47 58.8l-7.176-3.371 6.861-4.558.315 7.929zm.53 8.636l-7.39-3.665 6.88-4.571.508 8.236zm.535 8.652l-7.394-3.67 6.884-4.573.51 8.243zm.534 8.66L62.67 81.07l6.89-4.574.508 8.25zm.535 8.666l-7.4-3.683 6.89-4.577.51 8.257v.003zm.535 8.673l-7.405-3.686 6.896-4.579.512 8.267-.003-.002zm.696 8.371l-7.392-3.685 6.722-4.284.667 7.969h.003zm7.11-4.097l.663 7.97-7.398-3.688 6.735-4.282zm7.239-4.803l.518 8.278-7.42-3.694 6.901-4.584zm7.24-4.81l.521 8.274-7.422-3.692 6.901-4.585v.002zm7.242-4.811l.523 8.274-7.426-3.69 6.901-4.584h.002zm7.244-4.811l.527 8.271-7.429-3.689 6.902-4.584v.002zm7.244-4.811l.529 8.27-7.433-3.685 6.901-4.585h.003zm6.893-4.773l.531 8.246-7.092-3.7 6.56-4.548.001.002zm.208-.443l-.528-8.215 6.375 3.762-5.848 4.451.001.002zm5.955-4.236l.53 8.189-6.378-3.738 5.848-4.451zm-13.403.356l-.529-8.244 7.087 3.709-6.56 4.536h.002zm-7.79-3.85l-.525-8.25 7.42 3.669-6.895 4.578v.003zm-7.783-3.853l-.522-8.243 7.413 3.666-6.893 4.578h.002zm-7.776-3.848l-.517-8.237 7.406 3.662-6.889 4.575zm-7.77-3.846l-.514-8.232 7.4 3.658-6.886 4.572v.002zm-7.757-3.845l-.326-7.921 7.2 3.357-6.874 4.564zm-7.542-3.541l.07-7.281 6.767 2.738-6.84 4.543h.003zm-.236.046l-6.74-2.757 6.81-4.523-.07 7.28zm-6.847-2.97l.685-6.303 6.076 1.812-6.761 4.49v.002zm6.71 3.17l-6.839 4.544.098-7.3 6.74 2.757h.002zm.341 8.325l-6.874 4.565-.304-7.935 7.176 3.37h.002zm.538 8.642l-6.884 4.574-.506-8.237 7.39 3.666v-.003zm.535 8.652l-6.889 4.575-.505-8.247 7.394 3.672zm.534 8.66l-6.89 4.577-.507-8.254 7.397 3.676zm.536 8.666l-6.895 4.578-.509-8.26 7.401 3.682h.003zm.532 8.672l-6.723 4.284-.674-7.968 7.397 3.684zm.69 8.366l-6.37 3.662-.998-7.334 7.368 3.672zm.156.183l.975 7.327-7.344-3.663 6.37-3.662v-.002zm.849 7.527l-5.83 2.692-1.467-6.332 7.297 3.64zm-.61-7.512l7.376 3.676-6.401 3.651-.975-7.327zm7.066-4.504l7.41 3.691-6.748 4.28-.662-7.971zm7.239-4.812l7.422 3.693-6.904 4.585-.518-8.278zm7.241-4.81l7.427 3.689-6.906 4.585-.52-8.275zm7.242-4.811l7.428 3.689-6.906 4.585-.522-8.274zm7.241-4.81l7.433 3.685-6.906 4.585-.527-8.27zm7.242-4.806l7.092 3.7-6.562 4.56-.53-8.26zm6.892-4.766l6.378 3.738-5.848 4.485-.53-8.223zm6.165-4.662l5.271 3.805-4.744 4.331-.527-8.136zm.054-.252l4.744-4.266.526 8.072-5.27-3.806zm-6.696-3.968l5.847-4.42.529 8.182-6.376-3.762zm-7.429-3.898l6.555-4.524.531 8.232-7.086-3.708zm-7.781-3.853l6.893-4.578.529 8.247-7.42-3.67-.002.001zm-7.78-3.848l6.886-4.574.526 8.24-7.412-3.666zm-7.775-3.844l6.887-4.574.522 8.236-7.407-3.662h-.002zm-7.767-3.84l6.883-4.572.518 8.23-7.4-3.659zm-7.56-3.532l6.86-4.555.339 7.912-7.2-3.357zm-7.126-2.895l6.81-4.525-.043 7.263-6.767-2.738zm-6.43-1.941l6.711-4.456-.634 6.267-6.076-1.811zm-1.105 6.581l-6.023-1.846 6.708-4.455-.685 6.301zm-.117 7.677l-6.712-2.775 6.81-4.523-.097 7.3v-.002zm.31 8.327l-7.166-3.378 6.861-4.558.305 7.936zm.525 8.64l-7.389-3.669 6.883-4.571.506 8.237v.002zm.53 8.652l-7.391-3.672 6.884-4.572.506 8.247.002-.003zm.532 8.66l-7.395-3.679 6.889-4.575.506 8.254zm.532 8.67l-7.4-3.684 6.892-4.577.508 8.26zm.702 8.368l-7.383-3.679 6.71-4.287.674 7.968v-.002zm1.042 7.725l-7.339-3.659 6.339-3.675.998 7.334h.002zm1.532 6.704l-7.238-3.614 5.773-2.716 1.466 6.33zm6.274-2.472l1.418 6.308-7.246-3.617 5.828-2.691zm6.734-3.825l.951 7.316-7.352-3.665 6.4-3.651zm7.083-4.481l.657 7.971-7.405-3.691 6.748-4.28zm7.242-4.806l.522 8.284-7.425-3.697 6.906-4.585-.003-.002zm7.246-4.812l.524 8.282-7.43-3.696 6.906-4.586zm7.246-4.811l.528 8.278-7.434-3.693 6.906-4.585zm7.246-4.811l.531 8.277-7.437-3.692 6.906-4.585zm6.895-4.786l.532 8.256-7.096-3.695 6.562-4.56h.002zm6.164-4.713l.532 8.196-6.378-3.714 5.848-4.484-.002.002zm5.034-4.568l.525 8.079-5.269-3.75 4.744-4.33zm.199-.564l-.517-7.941 3.773 3.883L134 76.365zm3.316-3.755l.513 7.848-3.767-3.793 3.256-4.058-.002.003zm-8.904-.22l-.526-8.13 5.272 3.86-4.746 4.27zm-6.72-3.943l-.529-8.208 6.377 3.788-5.848 4.42zm-7.443-3.886l-.528-8.237 7.085 3.713-6.555 4.524h-.002zm-7.787-3.846l-.526-8.24 7.419 3.664-6.893 4.578v-.002zm-7.78-3.848l-.523-8.236 7.409 3.661-6.886 4.575zm-7.775-3.845l-.519-8.229 7.404 3.658-6.887 4.572h.002zm-7.762-3.841l-.338-7.912 7.21 3.347-6.874 4.565h.002zm-7.555-3.535l.043-7.263 6.798 2.722-6.84 4.541zm-7.112-2.902l.634-6.27 6.127 1.778-6.76 4.492zm-6.393-1.966l1.419-4.924 5.168.551-6.587 4.373zm-.288.146l-5.088-.602 6.504-4.321-1.416 4.923zm-5.112-.87l1.968-3.863 4.324-.314-6.292 4.178zm4.864 1.08l-6.587 4.374 1.5-4.979 5.087.603v.002zm-.668 6.654l-6.76 4.492.737-6.338 6.026 1.846h-.003zm-.08 7.682l-6.84 4.543.126-7.318 6.712 2.778.002-.003zm.33 8.332l-6.871 4.564-.292-7.943 7.165 3.378h-.002zm.536 8.642l-6.885 4.572-.502-8.24 7.39 3.667h-.003zm.53 8.653l-6.889 4.575-.503-8.247 7.392 3.672zm.532 8.66l-6.89 4.577-.505-8.254 7.395 3.679v-.002zm.528 8.667l-6.71 4.287-.678-7.967 7.39 3.68h-.002zm.698 8.368l-6.338 3.674-1.022-7.343 7.362 3.668-.002.001zm1.031 7.719l-5.772 2.719-1.516-6.354 7.29 3.635h-.002zm1.503 6.688l-5 1.427-2.121-4.982 7.121 3.555zm.255.173l2.038 4.941-7.038-3.514 5-1.427zm1.85 5.112l-4.374.449-2.472-3.868 6.847 3.419zm-1.552-5.007l7.129 3.558-5.091 1.385-2.038-4.943zm6.124-2.884l7.304 3.641-5.886 2.667-1.418-6.308zm6.72-3.859l7.384 3.679-6.432 3.638-.952-7.319v.002zm7.079-4.502l7.418 3.694-6.76 4.277-.658-7.971zm7.24-4.815l7.431 3.696-6.908 4.588-.523-8.284zm7.246-4.811l7.435 3.692-6.908 4.588-.524-8.281-.003.001zm7.246-4.812l7.437 3.692-6.908 4.589-.529-8.28zm7.247-4.807l7.096 3.695-6.564 4.573-.532-8.268zm6.897-4.778l6.381 3.713-5.85 4.516-.531-8.23zm6.165-4.699l5.269 3.75-4.744 4.392-.526-8.144.001.002zm5.037-4.526l3.768 3.793-3.252 4.156-.517-7.951.001.002zm3.519-4.264l2.612 3.775-2.113 3.86-.497-7.638-.002.003zm-.007-.424l2.12-3.738.49 7.514-2.61-3.776zm-4.051-4.19l3.26-3.957.512 7.841-3.772-3.883zm-5.564-4.095l4.745-4.204.525 8.065-5.272-3.86.002-.001zm-6.696-3.995l5.845-4.385.532 8.174-6.376-3.787-.001-.002zm-7.425-3.904l6.553-4.51.53 8.224-7.086-3.713h.003zm-7.778-3.846l6.892-4.575.528 8.24-7.42-3.665zm-7.774-3.842l6.885-4.574.524 8.233-7.41-3.661.001.002zm-7.77-3.838l6.882-4.57.52 8.228-7.403-3.658zm-7.574-3.52l6.86-4.558.35 7.905-7.21-3.348zm-7.155-2.878l6.81-4.523-.015 7.246-6.795-2.723zm-6.485-1.904l6.708-4.457-.583 6.233-6.127-1.775h.002zm-5.531-.635l6.504-4.32-1.336 4.868-5.169-.55.001.002zm-4.736.285l6.191-4.112-1.87 3.798-4.321.314zm-2.716 4.36l-4.224.249 6.192-4.112-1.968 3.863zm-1.631 5.37l-5.007-.657 6.504-4.32-1.498 4.975v.002zm-.8 6.706l-5.972-1.88 6.708-4.457-.738 6.338h.002zm-.147 7.696l-6.685-2.795 6.81-4.524-.125 7.319zm.296 8.333l-7.152-3.385 6.861-4.557.291 7.942zm.521 8.64l-7.384-3.668 6.883-4.572.501 8.24zm.529 8.656l-7.388-3.675 6.885-4.572.503 8.247zm.527 8.663l-7.39-3.68 6.888-4.574.505 8.254h-.003zm.708 8.368l-7.379-3.677 6.698-4.29.678 7.967h.003zm1.065 7.732l-7.331-3.655 6.31-3.686 1.02 7.343v-.002zm1.582 6.728l-7.233-3.61 5.715-2.744 1.516 6.352.002.002zm2.227 5.34l-7.03-3.51 4.91-1.469 2.12 4.979zm2.645 4.243l-6.737-3.364 4.266-.502 2.47 3.869.001-.003zm5.12-.077l2.367 3.817-6.742-3.368 4.374-.449zm5.479-1.475l1.955 4.901-7.044-3.517 5.089-1.384zm6.229-2.802l1.366 6.287-7.252-3.62 5.886-2.667zm6.765-3.812l.929 7.309-7.358-3.669 6.432-3.639-.003-.001zm7.096-4.479l.65 7.973-7.412-3.695 6.762-4.278zm7.247-4.807l.525 8.288-7.433-3.7 6.91-4.588h-.002zm7.25-4.815l.528 8.288-7.438-3.699 6.91-4.589zm7.25-4.814l.532 8.284-7.44-3.696 6.911-4.589h-.003zm6.898-4.798l.532 8.263-7.097-3.69 6.565-4.573zm6.165-4.747l.533 8.205-6.38-3.687 5.849-4.516-.002-.002zm5.032-4.633l.527 8.086-5.268-3.695 4.741-4.391zm3.512-4.422l.512 7.856-3.764-3.7 3.252-4.156zm2.35-4.182l.491 7.52-2.604-3.661 2.113-3.859zm.173-.958l-.47-7.207 1.822 3.682-1.352 3.525zm1.398-2.986l.463 7.084-1.816-3.558 1.351-3.526h.002zm-4.285-1.057l-.498-7.63 2.618 3.89-2.12 3.74zm-4.062-4.093l-.518-7.934 3.777 3.976-3.259 3.96v-.002zm-5.589-4.038l-.528-8.12 5.273 3.916-4.747 4.207.002-.003zm-6.717-3.97l-.53-8.198 6.374 3.813-5.844 4.386zm-7.442-3.89l-.527-8.23 7.079 3.719-6.552 4.51zm-7.784-3.84l-.524-8.233 7.415 3.657-6.891 4.576zm-7.774-3.842l-.521-8.23 7.405 3.656-6.884 4.574zm-7.767-3.841l-.348-7.905 7.222 3.34-6.873 4.567v-.002zM82.8 40.867l.015-7.245 6.823 2.702-6.838 4.543zm-7.144-2.884l.582-6.235 6.179 1.743-6.762 4.49v.002zm-6.453-1.925l1.338-4.872 5.25.497-6.588 4.375zm-5.49-.662l1.87-3.799 4.421-.379-6.292 4.178zm-4.673.241l2.141-3.02 3.714-.87-5.855 3.89zm-.534.344l-3.612.8 5.752-3.82-2.14 3.02zm-3.563.486l2.19-2.56 3.204-1.025-5.397 3.585h.003zm3.04-.128l-5.855 3.89 2.243-3.09 3.612-.8zm-2.037 4.214l-6.292 4.178 2.065-3.929 4.227-.249zm-1.52 5.32l-6.586 4.375 1.58-5.033 5.007.657zm-.724 6.693l-6.762 4.49.79-6.37 5.972 1.88zm-.11 7.702l-6.837 4.543.153-7.338 6.684 2.795zm.317 8.341l-6.874 4.565-.28-7.95 7.152 3.386h.002zm.532 8.646l-6.885 4.572-.5-8.243 7.384 3.669v.002zm.528 8.656l-6.889 4.575-.5-8.25 7.387 3.675h.002zm.525 8.66l-6.698 4.29-.685-7.966 7.383 3.677zm.705 8.367l-6.31 3.686-1.045-7.351 7.355 3.665zm1.057 7.728l-5.717 2.744-1.566-6.375 7.283 3.634v-.003zm1.558 6.716l-4.913 1.47-2.202-5.021 7.115 3.551zm2.201 5.329l-4.265.502-2.573-3.918 6.84 3.416h-.002zm2.61 4.226l-3.77-.123-2.69-3.104 6.46 3.227zm.48.251l2.58 3.049-6.348-3.172 3.769.123zm2.374 3.212l-3.455-.423-2.623-2.614 6.078 3.037zm-1.858-2.965l6.465 3.23-3.885-.179-2.58-3.049v-.002zm4.711-.569l6.852 3.423-4.483.396-2.369-3.819zm5.395-1.54l7.134 3.562-5.179 1.341-1.955-4.901v-.002zm6.187-2.856l7.31 3.645-5.944 2.642-1.368-6.287h.002zm6.754-3.846l7.39 3.682-6.464 3.627-.928-7.309h.002zm7.091-4.5l7.426 3.697-6.775 4.276-.65-7.973zm7.245-4.816l7.439 3.699-6.913 4.589-.526-8.288zm7.251-4.815l7.44 3.697-6.913 4.589-.528-8.288.001.002zm7.248-4.81l7.098 3.69-6.567 4.586-.531-8.275zm6.897-4.792l6.382 3.687-5.85 4.55-.532-8.237zm6.164-4.735l5.269 3.698-4.741 4.456-.529-8.15.001-.004zm5.036-4.595l3.764 3.702-3.246 4.256-.518-7.958zm3.513-4.377l2.605 3.662-2.108 3.981-.499-7.644.002.001zm2.354-4.122l1.817 3.558-1.345 3.654-.472-7.215v.003zm1.574-3.923l1.398 3.431-.956 3.354-.444-6.785h.002zm-.04-.724l.961-3.227.439 6.656-1.397-3.429H142zm-2.104-4.256l1.36-3.397.464 7.076-1.821-3.68-.003.001zm-2.894-4.311l2.127-3.619.491 7.506-2.618-3.89v.003zm-4.055-4.287l3.264-3.86.511 7.834-3.778-3.973h.003zm-5.566-4.155l4.749-4.145.524 8.058-5.273-3.913zm-6.694-4.022l5.845-4.354.528 8.167-6.373-3.813zm-7.422-3.91l6.55-4.498.529 8.218-7.079-3.72zm-7.774-3.839l6.887-4.575.529 8.233-7.416-3.658zm-7.773-3.837l6.883-4.57.523 8.227-7.406-3.655v-.002zm-7.586-3.512l6.863-4.557.36 7.898-7.223-3.338v-.003zm-7.183-2.857l6.81-4.523.013 7.226-6.823-2.703zm-6.537-1.87l6.71-4.455-.532 6.199-6.178-1.743zm-5.617-.577l6.504-4.32-1.255 4.814-5.248-.494zm-4.84.354l6.191-4.115-1.771 3.736-4.42.379zm-4.235.921l5.752-3.82-2.038 2.951-3.714.87zm-3.884 1.187l5.294-3.517-2.092 2.492-3.205 1.025h.003zm-3.604 3.497l-3.105.958 5.295-3.517-2.19 2.56zm-2.656 3.651l-3.508.733 5.751-3.821-2.243 3.088zm-2.316 4.39l-4.126.184 6.191-4.113-2.065 3.929zm-1.718 5.428l-4.926-.711 6.504-4.321-1.579 5.03v.002zm-.855 6.741l-5.92-1.915 6.709-4.455-.79 6.37zm-.177 7.715l-6.657-2.812 6.81-4.523-.153 7.336zm.283 8.341l-7.142-3.392 6.861-4.557.281 7.95zm.52 8.644l-7.383-3.672 6.882-4.571.5 8.243zm.523 8.656l-7.385-3.676 6.884-4.571.502 8.25-.001-.003zm.714 8.367L41.18 95.2l6.685-4.292.685 7.966zm1.089 7.741l-7.323-3.652 6.278-3.699 1.045 7.351zm1.635 6.751l-7.225-3.606 5.66-2.769 1.565 6.375zm2.312 5.382l-7.024-3.507 4.823-1.512 2.201 5.019zm2.754 4.296l-6.729-3.361 4.156-.555 2.574 3.918v-.002zm2.974 3.521l-6.342-3.168 3.653.066 2.689 3.102zm3.046 3.096l-5.964-2.98 3.34.366 2.623 2.612v.002zm4.72 1.056l2.514 2.559-5.97-2.982 3.456.423zm4.492.21l2.468 2.994-6.354-3.175 3.886.179v.002zm4.967-.431l2.265 3.767-6.748-3.371 4.483-.396zm5.575-1.43l1.873 4.862-7.052-3.52 5.18-1.342zm6.29-2.775l1.316 6.263-7.26-3.624 5.942-2.639h.002zm6.8-3.8l.904 7.299-7.365-3.672 6.46-3.627zm7.11-4.477l.643 7.972-7.419-3.698 6.775-4.276.001.002zm7.248-4.809l.527 8.295-7.439-3.704 6.913-4.589-.001-.002zm7.253-4.816l.531 8.292-7.444-3.702 6.912-4.592.001.002zm6.9-4.81l.532 8.27-7.101-3.684 6.567-4.585.002-.001zm6.165-4.78l.532 8.212-6.382-3.663 5.85-4.55zm5.03-4.698l.526 8.096-5.267-3.64 4.741-4.454v-.002zm3.506-4.524l.513 7.863-3.758-3.61 3.247-4.254h-.002zm2.343-4.313l.493 7.527-2.601-3.547 2.108-3.98zm1.562-4.087l.465 7.09-1.81-3.436 1.345-3.654zm1.16-3.923l.438 6.663-1.39-3.31.952-3.353zm.147-1.376l-.434-6.606 1.346 3.399-.91 3.207h-.002zm.963-2.525l.427 6.49-1.337-3.282.91-3.205v-.003zm-2.648-1.595l-.444-6.777 1.405 3.55-.961 3.227zm-2.099-4.117l-.471-7.2 1.831 3.802-1.36 3.398zm-2.894-4.177l-.497-7.623 2.624 4.004-2.127 3.619zm-4.068-4.195l-.517-7.927 3.781 4.066-3.267 3.861h.003zm-5.592-4.1l-.524-8.113 5.274 3.968-4.75 4.145zm-6.715-3.996l-.528-8.192 6.374 3.837-5.846 4.355zm-7.439-3.9l-.527-8.22 7.078 3.723-6.551 4.498zm-7.782-3.835l-.523-8.226 7.409 3.652-6.886 4.575zm-7.77-3.838l-.36-7.898 7.234 3.334-6.874 4.564zm-7.582-3.514l-.012-7.226 6.852 2.685-6.84 4.543v-.002zm-7.174-2.864l.532-6.201 6.229 1.709-6.762 4.49v.002zm-6.51-1.887l1.258-4.815 5.33.442-6.588 4.373zm-5.585-.6l1.772-3.737 4.52-.441-6.291 4.178zm-4.789.319l2.038-2.952 3.818-.938-5.856 3.89zm-4.224.915l2.092-2.492 3.305-1.09-5.394 3.584-.003-.002zm-4.019 1.275l2.09-2.44 3.154-1.042-5.244 3.482zm-.71.465l-3.058.98 5.148-3.418-2.09 2.44v-.002zm-3.163.765l2.088-2.392 3.01-.994-5.098 3.386zm2.46-.294l-5.244 3.483 2.186-2.503 3.057-.98zm-2.74 3.211l-5.396 3.585 2.29-2.624 3.104-.96h.003zm-2.486 3.54l-5.855 3.89 2.348-3.157 3.508-.732zm-2.154 4.294l-6.292 4.177 2.163-3.994 4.127-.183h.002zm-1.612 5.38l-6.588 4.373 1.662-5.084 4.925.711zm-.786 6.73l-6.76 4.492.839-6.406 5.921 1.914zm-.141 7.723L39.53 69.6l.18-7.355 6.657 2.812h.003zm.304 8.349l-6.872 4.564-.27-7.957 7.142 3.393zm.527 8.648l-6.885 4.572-.495-8.244 7.382 3.672h-.002zm.521 8.655l-6.685 4.292-.69-7.965 7.375 3.673zm.712 8.365l-6.278 3.699-1.069-7.361 7.349 3.661h-.002zm1.083 7.738l-5.66 2.768-1.616-6.399 7.275 3.628v.003zm1.614 6.74l-4.823 1.512-2.285-5.06 7.108 3.548zm2.294 5.373l-4.159.556-2.674-3.968 6.833 3.412zm2.73 4.284l-3.654-.066-2.798-3.157 6.454 3.223h-.002zm2.986 3.529l-3.34-.366-2.73-2.668 6.073 3.033-.002.001zm3.148 3.148l-3.305-.405-2.614-2.554 5.921 2.958-.002.001zm.61.312l2.51 2.502-5.815-2.906 3.305.404zm2.424 2.724l-3.268-.438-2.504-2.446 5.772 2.884zm-1.77-2.404l5.927 2.962-3.414-.46-2.51-2.502h-.002zm4.154.502l6.084 3.041-3.57-.48-2.514-2.561zm4.361.14l6.473 3.233-4.002-.237-2.47-2.996zm4.837-.507l6.86 3.424-4.593.343-2.268-3.769v.002zm5.495-1.491l7.143 3.566-5.27 1.299-1.872-4.862v-.003zm6.251-2.828l7.318 3.649-6 2.615-1.316-6.266-.002.002zm6.788-3.833l7.397 3.686-6.492 3.614-.906-7.302v.002zm7.106-4.495l7.431 3.7-6.787 4.274-.644-7.974zm7.25-4.82l7.443 3.703-6.916 4.593-.527-8.296zm7.253-4.812l7.1 3.684-6.571 4.598-.529-8.282zm6.9-4.806l6.383 3.663-5.851 4.583-.532-8.246zm6.165-4.77l5.268 3.642-4.739 4.517-.528-8.157-.001-.003zm5.034-4.666l3.76 3.61-3.241 4.353-.517-7.966-.002.003zm3.508-4.488l2.602 3.55-2.103 4.102-.501-7.652h.002zm2.348-4.264l1.81 3.437-1.337 3.785-.473-7.222zm1.565-4.077l1.39 3.31-.946 3.482-.447-6.792h.003zm1.154-4.023l1.338 3.285-.903 3.328-.435-6.613zm1.109-3.88l1.288 3.257-.865 3.186-.423-6.442zm-.042-.748l.874-3.07.414 6.326-1.288-3.256zm-1.636-4.135l.92-3.084.426 6.485-1.345-3.399-.001-.002zm-1.694-4.287l.97-3.099.435 6.65-1.405-3.55zm-2.112-4.396l1.368-3.27.463 7.07-1.832-3.802.001.002zm-2.9-4.438l2.134-3.498.49 7.5-2.624-4.002zm-4.058-4.384l3.271-3.764.509 7.828-3.78-4.064zm-5.566-4.214l4.75-4.082.522 8.05-5.274-3.968h.002zm-6.694-4.048l5.844-4.323.53 8.16-6.374-3.837zm-7.421-3.917l6.546-4.485.529 8.208-7.077-3.722h.002zM104.94 35l6.883-4.57.527 8.222-7.41-3.651zm-7.597-3.506l6.863-4.558.373 7.89-7.233-3.332h-.003zm-7.212-2.837l6.812-4.526.04 7.208-6.852-2.682zm-6.59-1.833l6.707-4.457-.478 6.166-6.23-1.709zm-5.702-.522l6.504-4.32-1.174 4.762-5.33-.442zm-4.945.422l6.192-4.112-1.674 3.671-4.518.441zm-4.347 1l5.752-3.82-1.933 2.882-3.816.937h-.003zm-4.001 1.264l5.295-3.516-1.993 2.426-3.302 1.09zm-4.018 1.329l5.148-3.42-1.997 2.378-3.153 1.042h.002zm-3.875 1.28l5.007-3.327-1.996 2.333-3.011.995zm-3.55 3.362l-2.92.936 5.008-3.325-2.086 2.389h-.003zm-2.785 3.189l-2.964.915 5.148-3.42-2.187 2.503.003.002zm-2.89 3.31l-3.004.895 5.294-3.519-2.29 2.624zm-2.778 3.73l-3.403.664 5.751-3.82-2.346 3.154-.002.003zm-2.424 4.462l-4.028.119 6.191-4.112-2.163 3.993zm-1.805 5.487l-4.845-.764 6.504-4.32-1.66 5.084zm-.91 6.778l-5.869-1.949 6.709-4.455-.84 6.404zm-.207 7.736l-6.63-2.833 6.81-4.523-.18 7.356zm.271 8.35L32.443 74.6l6.861-4.557.27 7.956.001.002zm.515 8.647l-7.378-3.673 6.882-4.571.496 8.244zm.719 8.365l-7.363-3.67 6.672-4.295.69 7.965zm1.114 7.751l-7.318-3.648 6.248-3.71 1.07 7.358zm1.686 6.775l-7.22-3.603 5.602-2.793 1.616 6.397.002-.001zm2.397 5.422l-7.017-3.506 4.732-1.553 2.285 5.057v.002zm2.863 4.349l-6.724-3.359 4.05-.609 2.674 3.968zm3.093 3.58l-6.337-3.167 3.54.01 2.797 3.157zm3.171 3.158l-5.958-2.977 3.229.311 2.73 2.666zm3.183 3.109l-5.809-2.903 3.196.352 2.614 2.554v-.003zm3.073 3l-5.666-2.833 3.162.387 2.504 2.446zm4.576 1.093l2.404 2.396-5.67-2.834 3.266.438zm4.155.559l2.406 2.451-5.82-2.909 3.414.458zm4.313.578l2.404 2.506-5.974-2.986 3.57.48zm4.626.278l2.358 2.941-6.36-3.179 4.002.238zm5.086-.374l2.164 3.718-6.756-3.375 4.592-.343zm5.673-1.384l1.79 4.821-7.057-3.524 5.267-1.297zm6.351-2.746l1.266 6.242-7.265-3.628 6-2.614zm6.831-3.787l.882 7.292-7.374-3.676 6.493-3.614-.001-.002zm7.123-4.472l.639 7.972-7.427-3.701 6.788-4.273v.002zm7.254-4.811l.533 8.302-7.447-3.707 6.916-4.593-.002-.002zm6.902-4.822l.533 8.277-7.105-3.681 6.571-4.599.001.003zm6.166-4.815l.533 8.22-6.384-3.638 5.851-4.582zm5.029-4.762l.527 8.103-5.266-3.586 4.739-4.515v-.002zm3.5-4.626l.515 7.869-3.757-3.516 3.242-4.353zm2.336-4.442l.493 7.535-2.593-3.433 2.1-4.102zm1.555-4.227l.465 7.095-1.8-3.313 1.337-3.783h-.002zm1.15-4.07l.436 6.668-1.383-3.189.945-3.479h.002zm1.099-4.048l.428 6.494-1.331-3.168.903-3.329v.003zm1.06-3.906l.415 6.331-1.28-3.144.866-3.184-.001-.003zm.144-1.425l-.412-6.277 1.242 3.227-.828 3.05h-.002zm.881-2.343l.405 6.17-1.235-3.12.827-3.05h.003zm-2.459-1.623l-.422-6.438 1.296 3.367-.874 3.07zm-1.633-4.114l-.433-6.601 1.352 3.515-.919 3.086zm-1.695-4.265l-.445-6.772 1.412 3.671-.97 3.1.003.001zm-2.109-4.267l-.47-7.193 1.837 3.924-1.369 3.27.002-.001zm-2.901-4.31l-.496-7.616 2.632 4.116-2.136 3.5zm-4.072-4.3l-.516-7.92 3.787 4.157-3.271 3.763zm-5.591-4.16l-.526-8.106 5.276 4.023-4.753 4.083h.003zm-6.717-4.025l-.529-8.184 6.374 3.861-5.845 4.323zm-7.435-3.904l-.527-8.214 7.073 3.728-6.546 4.486zm-7.772-3.833l-.37-7.89 7.244 3.325-6.874 4.565zm-7.593-3.51l-.04-7.208 6.88 2.665-6.84 4.543zm-7.206-2.843l.478-6.166 6.283 1.674-6.764 4.492h.003zm-6.568-1.849l1.174-4.765 5.41.39-6.586 4.375h.002zm-5.675-.54l1.673-3.67 4.618-.51-6.291 4.18zm-4.907.396l1.936-2.88 3.92-1.007-5.856 3.89v-.003zm-4.354 1.003l1.992-2.426 3.403-1.156-5.395 3.582zm-4.143 1.36l1.996-2.378 3.25-1.104-5.246 3.483zm-3.995 1.312L62.37 27.8l3.103-1.056-5.099 3.39zm-3.85 1.264l1.994-2.284 2.963-1.01-4.96 3.295h.003zm-.734.482l-2.878.951 4.872-3.235-1.994 2.284zm-2.98.736l1.988-2.238 2.832-.963-4.818 3.2-.003.001zm4.511-5.079l2.787-.974-4.687 3.113 1.9-2.14v.001zm-2.659 2.64l-2.706.92 4.608-3.061-1.9 2.14-.002.001zm-2.81.707l1.891-2.095 2.663-.931-4.555 3.026zm2.057-.2l-4.687 3.113 1.979-2.19 2.706-.92.002-.003zm.13.198L52.05 33.12l-2.749.909 4.736-3.146h.002zm1.023 1.49l-4.958 3.294 2.08-2.342 2.879-.951zM52.4 35.434l-5.097 3.386 2.178-2.45 2.919-.936zm-2.758 3.173l-5.246 3.486 2.282-2.57 2.964-.916zm-2.864 3.296l-5.395 3.582 2.388-2.69 3.004-.894.003.002zm-2.614 3.626l-5.855 3.89 2.45-3.226 3.405-.664zm-2.27 4.371l-6.292 4.178 2.26-4.059 4.029-.118h.002zm-1.704 5.442l-6.587 4.376 1.742-5.14 4.845.764zm-.843 6.77l-6.76 4.492.89-6.44 5.87 1.948zm-.172 7.74l-6.837 4.541.208-7.373 6.63 2.833zm.292 8.357l-6.872 4.564-.257-7.966 7.131 3.401h-.002zm.522 8.647l-6.673 4.294-.695-7.964 7.37 3.67h-.002zm.716 8.366l-6.247 3.71-1.094-7.368 7.341 3.658zm1.11 7.748l-5.604 2.793-1.667-6.42 7.27 3.627zm1.669 6.766l-4.735 1.554-2.367-5.099 7.102 3.545zm2.386 5.417l-4.049.608-2.778-4.017 6.828 3.409zm2.85 4.342l-3.539-.01-2.907-3.212 6.446 3.219v.003zm3.12 3.593l-3.228-.311-2.84-2.721 6.068 3.032zm3.278 3.211l-3.196-.351-2.717-2.606 5.913 2.955v.002zm3.161 3.098l-3.161-.387-2.603-2.496 5.767 2.882-.003.001zm3.051 2.989l-3.127-.42-2.495-2.39 5.623 2.81zm.632.322l2.399 2.342-5.527-2.762 3.128.42zm2.313 2.563l-3.09-.449-2.391-2.29 5.48 2.742v-.003zm-1.637-2.232l5.628 2.814-3.229-.47-2.4-2.344zm3.985.527l5.777 2.888-3.372-.49-2.405-2.398zm4.134.548l5.932 2.963-3.524-.512-2.408-2.451zm4.292.568l6.091 3.042-3.684-.536-2.405-2.506h-.002zm4.5.209l6.477 3.235-4.12-.294-2.358-2.941zm4.963-.445l6.865 3.428-4.701.29-2.164-3.718zm5.597-1.444l7.15 3.569-5.36 1.255-1.79-4.824zm6.314-2.799l7.325 3.652-6.057 2.59-1.266-6.243-.002.001zm6.819-3.818l7.403 3.689-6.523 3.603-.882-7.292h.002zm7.119-4.493l7.439 3.704-6.799 4.271-.64-7.975zm7.253-4.815l7.105 3.681-6.574 4.611-.531-8.29v-.002zm6.903-4.821l6.385 3.638-5.852 4.615-.533-8.253zm6.167-4.805l5.267 3.588-4.738 4.58-.531-8.165.002-.003zm5.03-4.734l3.757 3.519-3.238 4.454-.519-7.973zm3.503-4.6l2.594 3.436-2.094 4.223-.5-7.659zm2.339-4.406l1.802 3.313-1.33 3.913-.472-7.226zm1.553-4.232l1.384 3.19-.937 3.606-.444-6.796h-.003zm1.144-4.177l1.331 3.169-.898 3.45-.434-6.62.001.001zm1.101-4.024l1.281 3.147-.857 3.303-.423-6.448-.001-.002zm1.063-3.88l1.235 3.12-.822 3.162-.413-6.282zm1.025-3.742l1.189 3.093-.787 3.027-.402-6.12zm-.045-.773l.794-2.92.395 6.011-1.189-3.09zm-1.533-3.986l.833-2.938.406 6.163-1.239-3.225zm-1.588-4.128l.88-2.953.415 6.319-1.296-3.368.001.002zm-1.645-4.277l.925-2.962.424 6.475-1.351-3.513h.002zm-1.706-4.433l.975-2.973.436 6.642-1.411-3.672v.003zm-2.121-4.537l1.373-3.138.464 7.062-1.837-3.924zm-2.908-4.564l2.141-3.378.49 7.492-2.629-4.114h-.002zm-4.063-4.484l3.272-3.665.512 7.82-3.784-4.155zm-5.568-4.273l4.75-4.02.525 8.04-5.275-4.023v.003zm-6.692-4.075l5.844-4.29.529 8.151-6.373-3.861zm-7.417-3.92l6.545-4.476.528 8.201-7.074-3.727.001.002zm-.12-.203l-.383-7.874 6.92 3.405-6.537 4.47zm-.235.028l-7.244-3.327 6.861-4.557.383 7.884zm-14.486-6.146l6.81-4.523.07 7.188-6.88-2.665zm-6.646-1.797l6.71-4.456-.428 6.13-6.282-1.674zm-5.784-.468l6.506-4.32-1.096 4.708-5.409-.39-.001.002zm-5.05.491l6.192-4.112-1.576 3.604-4.615.508zm-4.461 1.075l5.751-3.82-1.831 2.814-3.92 1.006zm-4.118 1.344l5.294-3.517-1.892 2.36-3.403 1.157zm-4.14 1.407l5.15-3.42-1.9 2.314-3.248 1.103-.001.003zm-3.992 1.357l5.007-3.327-1.905 2.271-3.102 1.056zm-3.853 1.31l4.87-3.235-1.908 2.226-2.962 1.007v.002zm-3.722 1.268l4.738-3.147-1.906 2.183-2.832.964zm2.549-2.858l4.606-3.061-1.822 2.087-2.784.973zm-3.578 1.25L59 25.289l-1.817 2.045-2.663.93zm-3.457 3.134l-2.589.88 4.48-2.975-1.89 2.095zm-2.63 2.91l-2.627.869 4.606-3.058-1.979 2.19zm2.884-.704l-4.821 3.201 2.072-2.292 2.749-.91zm.104.212l-2.08 2.343-2.791.893 4.871-3.236zm-4.884 5.497l-2.83.874 5.005-3.324-2.177 2.45h.002zm-2.904 3.272l-2.87.854 5.15-3.42-2.28 2.566zm-3.013 3.392l-2.905.827 5.292-3.516-2.388 2.687v.002zm-2.901 3.813l-3.302.595 5.751-3.82-2.45 3.223v.002zm-2.535 4.534l-3.931.053 6.192-4.112-2.261 4.059zm-1.893 5.544l-4.764-.818 6.504-4.32-1.74 5.136v.002zm-.965 6.816L26.509 64.7l6.708-4.455-.891 6.438zm-.237 7.754l-6.602-2.85 6.81-4.523-.208 7.373zm.26 8.357l-7.118-3.409 6.86-4.557.258 7.966zm-.118.206l-6.65 4.293-.457-7.696L32.233 83h-.003zm.142.191l.694 7.964-7.357-3.667 6.66-4.296h.003zm1.832 15.723l-7.31-3.645 6.219-3.721 1.094 7.368-.003-.002zm1.738 6.795l-7.212-3.599 5.546-2.819 1.666 6.418zm2.482 5.464l-7.012-3.503 4.646-1.594 2.366 5.097zm2.972 4.401l-6.716-3.356 3.94-.661 2.776 4.015v.002zm3.214 3.64l-6.33-3.163 3.423-.047 2.907 3.21zm3.296 3.22l-5.953-2.973 3.114.255 2.839 2.718zm3.308 3.172l-5.804-2.902 3.087.296 2.717 2.603v.003zm3.196 3.061l-5.66-2.829 3.058.336 2.602 2.493zm3.085 2.956l-5.521-2.76 3.026.371 2.495 2.389zm2.981 2.857l-5.385-2.694 2.995.404 2.39 2.29zm4.444 1.127l2.3 2.245-5.39-2.695 3.09.45zm3.99.581l2.304 2.295-5.532-2.765 3.226.47h.003zm4.135.601l2.307 2.348-5.676-2.838 3.372.49h-.003zm4.289.624l2.302 2.399-5.826-2.912 3.524.513zm4.449.647l2.296 2.453-5.98-2.989 3.684.536zm4.76.343l2.246 2.886-6.367-3.18 4.118.294h.002zm5.206-.313l2.06 3.668-6.761-3.376 4.701-.29v-.002zm5.769-1.338l1.705 4.782-7.065-3.527 5.357-1.255h.002zm6.413-2.721l1.216 6.219-7.273-3.631 6.057-2.59v.002zm6.865-3.774l.856 7.283-7.379-3.68 6.523-3.603zm7.135-4.47l.634 7.974-7.434-3.705 6.8-4.271v.002zm.236-.001l7.098 3.671-6.466 4.294-.634-7.964.002-.001zm.091-.217l6.574-4.611.535 8.286-7.109-3.675zM131 116.11l.532 8.226-6.384-3.611L131 116.11zm5.025-4.827l.527 8.11-5.265-3.53 4.737-4.578.001-.002zm3.497-4.731l.514 7.877-3.753-3.426 3.236-4.453.003.002zm2.328-4.57l.493 7.542-2.587-3.319 2.094-4.223zm1.548-4.37l.464 7.103-1.795-3.19 1.331-3.913zm1.14-4.218l.437 6.673L143.599 97l.936-3.607.003.001zm1.091-4.198l.427 6.502-1.325-3.051.898-3.45zm1.052-4.045l.416 6.336-1.273-3.033.857-3.3v-.003zm1.014-3.906l.406 6.174-1.226-3.014.822-3.16h-.002zm.98-3.772l.396 6.015-1.18-2.992.786-3.026-.002.003zm.139-1.475l-.393-5.963 1.147 3.063-.754 2.9zm.807-2.17l.385 5.863-1.139-2.966.754-2.9v.003zm-2.288-1.66l-.403-6.114 1.197 3.195-.794 2.92zm-1.531-3.962l-.413-6.27 1.246 3.333-.836 2.937h.003zm-1.588-4.103l-.423-6.431 1.303 3.477-.88 2.954zm-1.642-4.254l-.434-6.595 1.358 3.63-.925 2.962.001.003zm-1.704-4.41l-.444-6.766 1.419 3.793-.975 2.973zm-2.117-4.415l-.471-7.186 1.844 4.046-1.375 3.14h.002zm-2.91-4.443l-.497-7.606 2.637 4.227-2.14 3.38zm-4.078-4.402l-.516-7.91 3.79 4.245-3.274 3.665zm-5.594-4.223l-.524-8.098 5.276 4.078-4.75 4.02h-.002zm-6.717-4.05l-.527-8.178 6.371 3.889-5.844 4.289zm-7.705-11.996l6.528-4.45.392 7.855-6.92-3.405zm-7.329 4.588l-.07-7.189 6.908 2.648-6.838 4.543v-.002zm-7.236-2.823l.427-6.133 6.334 1.64-6.761 4.49v.003zm-6.627-1.811l1.095-4.711 5.492.335-6.587 4.374v.002zm-5.767-.478l1.577-3.604 4.715-.574-6.292 4.178zm-5.025.477l1.83-2.815 4.025-1.075-5.855 3.89zm-4.484 1.088l1.892-2.36 3.502-1.224-5.394 3.584zm-4.269 1.443l1.901-2.314 3.343-1.168-5.244 3.482zm-4.113 1.39l1.907-2.271 3.192-1.115-5.1 3.387zm-3.967 1.343l1.907-2.226 3.05-1.065-4.957 3.293v-.002zm-3.83 1.294l1.905-2.185 2.915-1.02-4.82 3.202v.003zm4.327-4.958l2.865-1.026-4.687 3.112 1.822-2.086zm-5.496 3.364l1.818-2.045 2.74-.982-4.555 3.026h-.003zm-3.555 1.234l1.81-2.008 2.621-.936-4.433 2.945h.002zm-.783.516l-2.549.888 4.36-2.896-1.81 2.008zm-2.654.673l1.8-1.962 2.507-.897-4.306 2.862v-.003zm1.874-.154l-4.432 2.942 1.884-2.053 2.548-.889zm-2.517 2.8l-4.557 3.026 1.968-2.147 2.59-.88zm-2.604 2.893l-4.689 3.115 2.059-2.247 2.63-.868zm.08.231l-2.07 2.293-2.666.854 4.735-3.147zm.853 1.606l-4.96 3.292 2.169-2.4 2.79-.894.001.002zm-2.778 3.137l-5.099 3.387 2.269-2.512 2.83-.875zm-2.88 3.256L37.721 46.5l2.376-2.629 2.87-.854h-.002zm-2.99 3.376l-5.395 3.582 2.487-2.755 2.907-.827zm-2.744 3.711l-5.856 3.89 2.552-3.292 3.302-.595.002-.003zm-2.388 4.45l-6.29 4.177 2.36-4.124 3.93-.053zm-1.797 5.504l-6.585 4.373 1.82-5.191 4.765.818zm-.9 6.807l-6.761 4.49.944-6.475 5.817 1.983v.002zm-.204 7.762l-6.838 4.54.236-7.392 6.602 2.85v.002zM25.332 87.3l-7.09-3.407 6.633-4.29.457 7.697zm7.614 4.056l-6.218 3.721L25.61 87.7l7.333 3.655.003.002zm1.135 7.757l-5.548 2.819-1.716-6.442 7.261 3.62.003.003zm1.725 6.791l-4.645 1.594-2.45-5.135 7.095 3.541zm2.48 5.463l-3.94.662-2.88-4.067 6.82 3.405zm2.972 4.4l-3.425.047-3.017-3.265 6.442 3.218zm3.253 3.659l-3.114-.255-2.946-2.774 6.06 3.029zm3.408 3.276l-3.086-.296-2.821-2.655 5.908 2.954v-.003zm3.288 3.162l-3.058-.336-2.703-2.543 5.76 2.879zm3.17 3.049l-3.028-.37-2.588-2.436 5.617 2.809v-.003zm3.065 2.946l-2.994-.403-2.482-2.337 5.475 2.738v.002zm2.96 2.846l-2.961-.431-2.381-2.24 5.342 2.671zm.653.333l2.293 2.196-5.255-2.628 2.962.432zm2.207 2.418L60.337 137l-2.284-2.148 5.21 2.606-.001-.002zm-1.507-2.076l5.345 2.673-3.054-.476-2.294-2.196.003-.001zm3.831.551l5.487 2.743-3.187-.498-2.3-2.245zm3.97.569l5.633 2.815-3.328-.52-2.303-2.296-.002.001zm4.113.591l5.782 2.889-3.476-.542-2.306-2.347zm4.267.613l5.937 2.967-3.633-.568-2.302-2.399h-.002zm4.428.637l6.097 3.046-3.8-.593-2.297-2.453zm4.64.277l6.484 3.239-4.235-.353-2.25-2.888.001.002zm5.092-.384l6.873 3.431-4.81.237-2.06-3.668h-.003zm5.697-1.393l7.156 3.572-5.45 1.212-1.706-4.784zm6.378-2.771l7.331 3.655-6.116 2.563-1.216-6.221.001.003zm6.853-3.806l7.411 3.693-6.555 3.59-.856-7.283zm14.364-.618l.625 7.955-7.091-3.661 6.466-4.294zm-.329-8.703l6.384 3.612-5.852 4.649-.532-8.261zm6.168-4.841l5.265 3.533-4.736 4.642-.529-8.173v-.002zm5.028-4.803l3.753 3.425-3.233 4.554-.52-7.979zm3.497-4.712l2.588 3.321-2.086 4.344-.502-7.665zm2.331-4.547l1.794 3.19-1.318 4.043-.474-7.233h-.002zm1.546-4.389l1.376 3.068-.93 3.736-.446-6.804zm1.132-4.33l1.326 3.053-.89 3.574-.435-6.625-.001-.003zm1.094-4.173l1.274 3.036-.849 3.416-.425-6.452zm1.054-4.024l1.226 3.013-.815 3.273-.411-6.286zm1.017-3.88l1.183 2.99-.78 3.134-.401-6.125h-.002zm.981-3.746l1.139 2.966-.748 3.002-.391-5.968zm.948-3.619l1.1 2.937-.715 2.878-.383-5.815h-.002zm-.047-.799l.722-2.778.378 5.716-1.1-2.938zm-1.439-3.846l.76-2.798.384 5.861-1.146-3.063h.002zm-1.489-3.979l.8-2.813.395 6.008-1.194-3.193-.001-.002zm-1.54-4.117l.84-2.826.405 6.157-1.245-3.331zm-1.596-4.263l.889-2.838.414 6.314-1.303-3.476zm-1.653-4.418l.934-2.844.424 6.474-1.358-3.63zm-1.713-4.579l.983-2.846.435 6.637-1.418-3.79zm-2.13-4.679l1.381-3.012.462 7.055-1.844-4.045.001.002zm-2.916-4.687l2.148-3.257.49 7.485-2.638-4.228zm-4.067-4.58l3.279-3.567.508 7.813-3.787-4.246zm-5.57-4.33l4.753-3.958.522 8.037-5.277-4.079h.002zm-6.69-4.102l5.843-4.258.528 8.144-6.371-3.886zm-.105-.215l-.39-7.832 6.227 3.58-5.837 4.252zm-7.273-3.58l-.097-7.164 6.602 2.727-6.507 4.437h.002zm-.236.046l-6.908-2.647 6.812-4.526.095 7.17.001.003zm-13.605-4.408l6.71-4.458-.376 6.098-6.334-1.64zm-5.869-.412l6.504-4.32-1.013 4.655-5.489-.336h-.002zm-5.155.562l6.192-4.112-1.477 3.538-4.713.574h-.002zm-4.58 1.149l5.752-3.821-1.73 2.747-4.022 1.074zm-4.236 1.424l5.294-3.516-1.792 2.293-3.5 1.223h-.002zm-4.26 1.49l5.15-3.421-1.808 2.255-3.342 1.168v-.002zm-4.11 1.435l5.01-3.328-1.816 2.213-3.191 1.115h-.003zm-3.963 1.385l4.87-3.233-1.822 2.169-3.048 1.064zm-3.83 1.337l4.737-3.147-1.823 2.128-2.915 1.019zm2.444-2.79l4.608-3.06-1.743 2.035-2.865 1.025zm-3.679 1.317l4.479-2.975-1.741 1.994-2.738.981zm-3.561 1.274l4.36-2.894-1.74 1.958-2.62.936zm-3.446 1.232l4.237-2.812-1.73 1.915-2.507.897zm-3.415 3.035l-2.436.852 4.236-2.815-1.8 1.963zm-2.558 2.787l-2.476.844 4.357-2.894-1.88 2.053-.001-.003zm-2.643 2.882l-2.512.831 4.48-2.976-1.968 2.145zm-2.734 2.981l-2.551.815 4.608-3.06-2.059 2.246h.002zm2.798-.65l-4.818 3.202 2.152-2.347 2.666-.854zm.056.247l-2.166 2.398-2.703.835 4.869-3.235v.002zM39.96 43.66l-2.74.814 5.008-3.328-2.269 2.512v.002zm-3.026 3.352l-2.775.79 5.148-3.42-2.376 2.628.003.002zm-3.139 3.475l-2.807.762 5.293-3.516-2.488 2.755.002-.001zm-3.022 3.892l-3.2.527 5.751-3.82-2.552 3.29v.003zm-2.643 4.606l-3.833-.012 6.191-4.112-2.358 4.124zm-1.98 5.602l-4.683-.87 6.503-4.32-1.82 5.19zm-1.02 6.853l-5.767-2.017 6.708-4.455-.944 6.473h.002zm-.267 7.774l-6.572-2.867 6.81-4.524-.236 7.39-.002.001zm-.136.198l-6.612 4.275.045-7.141 6.566 2.864v.002zm.481 8.09l-6.18 3.728-.89-7.124 7.068 3.397h.002zm.158.18l1.117 7.376-7.304-3.641 6.187-3.734zm2.906 14.195l-7.206-3.596 5.49-2.843 1.716 6.439zm2.57 5.504l-7.005-3.499 4.556-1.637 2.449 5.136zm3.078 4.453l-6.71-3.352 3.83-.715 2.877 4.065.003.002zm3.334 3.7l-6.324-3.159 3.307-.104 3.017 3.263zm3.421 3.282l-5.945-2.972 2.999.198 2.946 2.772v.002zm3.436 3.233l-5.798-2.898 2.977.243 2.821 2.655zm3.315 3.122l-5.654-2.828 2.953.284 2.701 2.544zm3.203 3.014l-5.515-2.756 2.927.32 2.588 2.436zm3.094 2.914l-5.38-2.69 2.898.355 2.482 2.335zm2.993 2.815l-5.25-2.624 2.869.385 2.378 2.24.003-.001zm2.895 2.725l-5.121-2.561 2.837.413 2.284 2.148zm4.321 1.155l2.199 2.107-5.124-2.562 2.925.455zm3.839.6l2.205 2.154-5.257-2.63 3.052.476zm3.972.619l2.208 2.201-5.396-2.698 3.186.497h.002zm4.114.641l2.207 2.25-5.534-2.768 3.327.521v-.003zm4.262.665l2.205 2.298-5.68-2.839 3.475.541zm4.422.689l2.198 2.347-5.831-2.915 3.632.565v.003zm4.588.716l2.186 2.398-5.985-2.991 3.799.593zm4.895.41l2.137 2.83-6.372-3.183 4.234.35v.003zm5.328-.256l1.956 3.617-6.766-3.38 4.81-.237zm5.867-1.29l1.624 4.743-7.07-3.531 5.446-1.212zm6.473-2.691l1.165 6.197-7.278-3.635 6.113-2.562zm6.898-3.762l.833 7.275-7.387-3.682 6.555-3.591-.001-.002zm.239.018l7.071 3.651-6.24 3.615-.831-7.266zm6.791-4.51l6.379 3.582-5.756 4.348-.625-7.932.002.002zm.075-.229l5.853-4.649.534 8.234-6.387-3.587v.002zm10.878-9.54l.528 8.117-5.264-3.475 4.736-4.642zm3.49-4.834l.513 7.885-3.746-3.333 3.233-4.552zm2.322-4.698l.492 7.547-2.579-3.206 2.087-4.344v.003zm1.537-4.512l.465 7.107-1.785-3.066 1.32-4.041zm1.132-4.365l.439 6.68-1.369-2.945.93-3.735zm1.082-4.345l.425 6.507-1.316-2.936.891-3.571zm1.042-4.189l.417 6.34-1.266-2.923.849-3.417zm1.006-4.044l.407 6.18-1.222-2.91.815-3.272v.002zm.972-3.904l.397 6.022-1.177-2.889.78-3.133zm.939-3.772l.387 5.87-1.135-2.867.748-3.003zm.907-3.647l.379 5.72-1.094-2.844.715-2.878v.002zm.137-1.522l-.373-5.669 1.061 2.91-.688 2.759zm.743-2.006l.37 5.578-1.056-2.819.688-2.76-.002.001zm-2.134-1.694l-.382-5.811 1.104 3.03-.722 2.779v.002zm-1.439-3.823l-.391-5.958 1.151 3.16-.76 2.798zm-1.488-3.954l-.403-6.11 1.202 3.294-.8 2.813.001.003zm-1.539-4.094l-.411-6.262 1.252 3.436-.841 2.826zm-1.595-4.24l-.422-6.425 1.308 3.589-.889 2.837h.003zm-1.651-4.393l-.432-6.587 1.366 3.745-.933 2.844-.001-.002zm-1.714-4.557l-.442-6.759 1.428 3.912-.983 2.846-.003.001zm-2.126-4.562l-.47-7.179 1.851 4.167-1.381 3.012zm-2.917-4.574l-.495-7.6 2.643 4.343-2.147 3.26-.001-.003zm-4.082-4.505l-.512-7.906 3.793 4.336-3.281 3.568v.002zm-5.596-4.282l-.524-8.089 5.277 4.131-4.755 3.959h.002zm-7.012-12.137l5.825-4.213.402 7.796-6.226-3.58-.001-.003zm-.103-.218l-.123-7.113 5.929 2.914-5.806 4.2zm-.235.052l-6.602-2.728 6.48-4.407.122 7.135zm-13.898 1.841l.376-6.098 6.385 1.606-6.763 4.493h.002zm-6.682-1.773l1.012-4.656 5.575.28-6.587 4.376zm-5.861-.419l1.478-3.538 4.811-.639-6.29 4.177zm-5.143.553l1.73-2.746 4.126-1.143-5.856 3.89zm-4.613 1.172l1.794-2.293 3.603-1.29-5.397 3.583zm-4.395 1.528l1.808-2.255 3.438-1.23-5.246 3.485zm-4.234 1.472l1.816-2.213 3.283-1.176-5.101 3.39h.002zm-4.082 1.418l1.822-2.168 3.135-1.123-4.957 3.291zm-3.942 1.371l1.823-2.128 2.998-1.073-4.82 3.201zm4.138-4.831l2.944-1.078-4.688 3.116 1.742-2.036.002-.002zm-5.523 3.381l1.74-1.994 2.815-1.032-4.555 3.026zm-3.655 1.302l1.739-1.957 2.693-.987-4.43 2.942-.002.002zm-3.534 1.257l1.733-1.915 2.574-.942-4.307 2.86v-.003zm-3.421 1.218l1.722-1.88 2.465-.9-4.19 2.78h.003zm-.809.532l-2.398.86 4.119-2.739-1.724 1.877.003.002zm-2.503.647l1.711-1.841 2.36-.864-4.07 2.705zm1.698-.108l-4.185 2.78 1.79-1.921 2.395-.859zM49.343 30.3l-4.306 2.86 1.87-2.01 2.436-.852v.002zm-2.532 2.771l-4.43 2.942 1.953-2.1 2.476-.844v.002zm-2.617 2.865l-4.558 3.027 2.043-2.196 2.512-.83.002-.001zM41.485 38.9L36.8 42.012l2.137-2.299 2.552-.814h-.003zm.028.264l-2.152 2.347-2.583.8 4.736-3.145v-.002zm.684 1.716l-4.959 3.294 2.253-2.458 2.703-.835h.003zm-2.894 3.218l-5.1 3.386 2.359-2.57 2.741-.814v-.002zm-3 3.334l-5.246 3.483 2.47-2.694 2.775-.789zm-3.116 3.461l-5.394 3.582 2.587-2.82 2.807-.762zm-2.872 3.797l-5.854 3.89 2.657-3.36 3.2-.528-.003-.002zm-2.506 4.526l-6.289 4.177 2.456-4.188 3.833.011zm-1.889 5.563l-6.584 4.375 1.901-5.245 4.683.87zm-.957 6.845l-6.761 4.49.995-6.51 5.766 2.018v.002zM17.88 83.717l-6.53-2.878 6.576-4.26-.046 7.138zm-.138.199l-6.122 3.723-.388-6.594 6.51 2.87zm.16.18l.89 7.124-7.031-3.39 6.143-3.735h-.002zm8.47 11.165l-5.49 2.846-1.764-6.463 7.257 3.62-.003-.003zm1.78 6.817l-4.557 1.637-2.531-5.175 7.089 3.538zm2.573 5.507l-3.833.715-2.98-4.116 6.811 3.402.003-.001zm3.09 4.461l-3.308.103-3.125-3.318 6.433 3.215zm3.384 3.724l-3-.198-3.054-2.827 6.054 3.025zm3.54 3.342l-2.98-.243-2.925-2.706 5.902 2.95.002-.001zm3.414 3.223l-2.954-.284-2.801-2.591 5.755 2.875zm3.294 3.109l-2.928-.32-2.684-2.485 5.612 2.805zm3.18 3.002l-2.9-.354-2.572-2.382 5.473 2.736zm3.073 2.901l-2.87-.384-2.467-2.283 5.337 2.67v-.003zm2.969 2.806l-2.837-.413-2.367-2.189 5.204 2.602zm2.874 2.714l-2.806-.438-2.273-2.102 5.076 2.538.003.002zm.676.345l2.19 2.061-4.996-2.499 2.804.438h.002zm2.104 2.282l-2.772-.459-2.18-2.017 4.95 2.476h.002zm-1.385-1.929l5.082 2.542-2.89-.479-2.19-2.063h-.002zm3.689.569l5.214 2.607-3.013-.5-2.199-2.107h-.002zm3.817.587l5.35 2.677-3.145-.523-2.205-2.154zm3.95.609l5.493 2.747-3.285-.546-2.207-2.201zm4.093.631l5.639 2.819-3.43-.57-2.209-2.249zm4.242.655l5.787 2.892-3.583-.594-2.205-2.298zm4.4.678l5.942 2.971-3.742-.622-2.198-2.347-.002-.002zm4.566.706l6.103 3.049-3.914-.649-2.187-2.401-.002.001zm4.78.348l6.489 3.243-4.352-.41-2.137-2.833zm5.217-.32l6.878 3.435-4.921.185-1.957-3.62zm5.798-1.346l7.162 3.576-5.538 1.17-1.623-4.744-.001-.002zm6.441-2.743l7.339 3.659-6.174 2.538-1.165-6.197zm14.108.05l.808 7.247-7.045-3.633 6.24-3.614h-.003zm.241.023l6.351 3.543-5.547 3.685-.804-7.226v-.002zm.072-.229l5.753-4.348.618 7.903-6.371-3.555zm5.424-13.019l5.263 3.478-4.732 4.704-.531-8.182zm5.026-4.872l3.749 3.334-3.228 4.652-.521-7.986zm3.492-4.825l2.58 3.206-2.08 4.465-.5-7.671zm2.322-4.686l1.785 3.066-1.313 4.172-.472-7.24v.002zm1.535-4.543l1.369 2.947-.921 3.863-.447-6.808-.001-.002zm1.124-4.486l1.316 2.938-.882 3.695-.434-6.63v-.003zm1.084-4.319l1.266 2.924-.843 3.533-.423-6.457zm1.042-4.166l1.222 2.908-.81 3.385-.412-6.293zm1.009-4.018l1.177 2.89-.772 3.243-.405-6.131v-.002zm.974-3.88l1.134 2.869-.74 3.104-.395-5.975.001.003zm.94-3.746l1.094 2.844-.711 2.976-.383-5.82zm.909-3.624l1.055 2.82-.681 2.853-.374-5.673zm.88-3.502l1.018 2.793-.654 2.736-.364-5.529zm-.05-.822l.658-2.645.361 5.437-1.018-2.79-.001-.002zm-1.355-3.716l.692-2.665.368 5.571-1.06-2.906zm-1.399-3.84l.727-2.681.377 5.709-1.105-3.03.001.001zm-1.447-3.97l.766-2.696.386 5.853-1.152-3.158zm-1.497-4.105l.807-2.706.396 6-1.203-3.294zm-1.547-4.249l.849-2.714.403 6.15-1.252-3.436zm-1.605-4.398l.895-2.72.415 6.306-1.308-3.586h-.002zm-1.661-4.558l.942-2.723.423 6.467-1.365-3.744zm-1.723-4.723l.992-2.719.433 6.63-1.425-3.909v-.002zm-2.136-4.82l1.389-2.884.461 7.049-1.851-4.167.001.002zm-2.922-4.813l2.155-3.139.488 7.478-2.643-4.34zm-4.073-4.68l3.284-3.47.51 7.806-3.794-4.336zm-5.571-4.388l4.753-3.898.524 8.027-5.277-4.131v.002zm-.083-.236l-.398-7.744 5.145 3.85-4.749 3.892.002.002zm-6.566-11.086l5.39-3.398.512 6.297-5.902-2.899zm-6.95 4.436l.325-6.055 6.108 1.678-6.433 4.377zm-.241.081l-6.385-1.606 6.708-4.455-.323 6.061zm-12.339-1.96l6.504-4.319-.932 4.6-5.572-.281zm-5.257.63l6.19-4.112-1.38 3.471-4.81.639v.002zM89 14.104l5.751-3.82-1.625 2.677L89 14.104zm-4.356 1.501l5.294-3.517-1.692 2.228-3.602 1.289zm-4.38 1.568l5.149-3.418-1.713 2.188-3.435 1.23zm-4.226 1.514l5.008-3.325-1.725 2.15-3.28 1.174-.003.001zm-4.075 1.46l4.867-3.232-1.735 2.11-3.135 1.123.003-.001zm-3.939 1.411l4.738-3.146-1.74 2.075-2.998 1.074v-.003zm2.632-2.826l4.178-2.452-1.52 1.479-2.658.973zm-3.778 1.384l4.04-2.371-1.515 1.446-2.527.925h.002zm-3.66 1.342l3.914-2.296-1.507 1.416-2.406.882v-.002zm-3.54 1.296l3.786-2.223-1.496 1.386-2.29.837zM56.25 24.01l3.66-2.147-1.48 1.35-2.18.797zm-3.319 1.214l3.533-2.074L55 24.465l-2.07.758zm-3.673 3.06l-1.782.837 3.285-2.455-1.505 1.618h.002zm-2.49 2.672l-1.815.84 3.397-2.537-1.581 1.698zm-2.57 2.762l-1.85.842 3.51-2.625-1.66 1.783zm-2.655 2.853l-1.886.84 3.633-2.715-1.745 1.877-.002-.002zm-2.745 2.95l-1.92.834 3.754-2.806-1.834 1.972zm-2.838 3.05l-1.95.828 3.88-2.9-1.93 2.072zm2.72-.598l-4.819 3.201 2.235-2.402 2.583-.8zm.004.28l-2.252 2.458-2.62.778 4.87-3.235h.002zm-5.287 5.766l-2.65.755 5.006-3.325-2.358 2.57h.002zm-3.145 3.43l-2.68.728 5.15-3.421-2.468 2.693h-.002zm-3.264 3.56l-2.707.697 5.292-3.516-2.585 2.82zm-3.143 3.974l-3.096.458 5.75-3.818-2.654 3.36zm-2.752 4.678l-3.733-.077 6.19-4.112-2.457 4.189zm-2.067 5.66l-4.6-.925 6.502-4.318-1.902 5.243zM17.95 76.21l-5.713-2.052 6.708-4.455-.995 6.507zm-.17.19l-6.528 4.229.82-6.28 5.709 2.05zm-6.398 11.249l-5.607-2.914 5.22-3.65.387 6.564zm7.289 3.784L13.243 94.3l-1.557-6.233 6.986 3.368-.001-.002zm.187.167l1.764 6.461-7.199-3.592 5.435-2.871v.002zm4.419 12.008l-6.999-3.495 4.468-1.68 2.53 5.173v.002zm3.187 4.506l-6.703-3.349 3.725-.766 2.98 4.115h-.002zm3.453 3.759l-6.318-3.156 3.193-.16 3.126 3.318v-.002zm3.547 3.343l-5.94-2.969 2.888.143 3.052 2.826zm3.561 3.295l-5.793-2.895 2.87.19 2.923 2.705zm3.438 3.182l-5.65-2.824 2.85.232 2.8 2.592zm3.32 3.073l-5.51-2.756 2.826.273 2.684 2.483zm3.209 2.97l-5.375-2.689 2.804.307 2.572 2.379-.001.003zm3.102 2.871l-5.244-2.623 2.777.34 2.467 2.283zm3.002 2.777l-5.116-2.559 2.75.37 2.366 2.189zM56 136.072l-4.99-2.497 2.72.395 2.27 2.102zm2.814 2.603l-4.87-2.437 2.689.421 2.178 2.017.003-.001zm4.21 1.18l2.104 1.98-4.873-2.439 2.771.459h-.002zm3.697.614l2.11 2.021-4.999-2.501 2.89.48zm3.822.634l2.115 2.065-5.129-2.566 3.014.501zm3.953.656l2.117 2.111-5.262-2.631 3.145.522v-.002zm4.092.679l2.117 2.155-5.399-2.701 3.282.544v.002zm4.24.703l2.113 2.201-5.54-2.771 3.428.568-.002.002zm4.39.729l2.106 2.248-5.687-2.843 3.58.595zm4.555.756l2.094 2.296-5.836-2.917 3.742.621zm4.726.785l2.077 2.345-5.99-2.995 3.913.65zm5.029.477l2.025 2.776-6.377-3.185 4.349.409h.003zm5.451-.196l1.855 3.568-6.775-3.383 4.92-.185zm5.96-1.243l1.541 4.702-7.076-3.535 5.535-1.169v.002zm6.536-2.666l1.115 6.174-7.289-3.635 6.172-2.538.002-.001zm.248.05l6.999 3.608-5.886 2.559-1.113-6.167zm13.036-.067l.313 6.459-5.837-2.792 5.524-3.667zm-.407-8.322l5.257 3.417-4.642 4.433-.615-7.85zm.05-.248l4.733-4.704.529 8.124-5.262-3.42zm8.217-9.639l.515 7.891-3.743-3.242 3.228-4.652v.003zm2.314-4.827l.493 7.554-2.573-3.089 2.08-4.465zm1.53-4.655l.466 7.114-1.779-2.942 1.313-4.172zm1.122-4.512l.438 6.687-1.359-2.823.922-3.862-.001-.002zm1.074-4.493l.427 6.514-1.31-2.819.883-3.695zm1.033-4.333l.418 6.345-1.26-2.812.842-3.533zm.999-4.182l.408 6.186-1.216-2.801.81-3.385h-.002zm.964-4.035l.396 6.027-1.169-2.787.773-3.24zm.931-3.9l.388 5.875-1.128-2.77.74-3.105zm.9-3.77l.377 5.725-1.087-2.75.71-2.975zm.87-3.647l.369 5.583-1.05-2.729.682-2.852-.001-.002zm.844-3.529l.36 5.443-1.014-2.704.654-2.736v-.003zm.132-1.57l-.356-5.388.984 2.764-.626 2.624h-.002zm.683-1.847l.352 5.305-.977-2.68.625-2.625zm-1.996-1.73l-.364-5.524 1.023 2.878-.657 2.645h-.002zm-1.354-3.694l-.374-5.663 1.066 2.997-.692 2.664v.002zm-1.399-3.818l-.383-5.803 1.11 3.122-.727 2.681zm-1.447-3.946l-.392-5.95 1.158 3.255-.766 2.695zm-1.497-4.08l-.401-6.103 1.208 3.396-.807 2.707zm-1.547-4.225l-.412-6.257 1.261 3.543-.848 2.716-.001-.002zm-1.603-4.374l-.42-6.42 1.315 3.696-.895 2.721v.003zm-1.661-4.534l-.431-6.583 1.374 3.86-.943 2.723zm-1.721-4.702l-.441-6.752 1.434 4.03-.991 2.721h-.002zm-2.134-4.71l-.468-7.172 1.858 4.288-1.39 2.884zm-2.924-4.707l-.496-7.592 2.648 4.452-2.154 3.14h.002zm-4.088-4.607l-.515-7.898 3.799 4.426-3.284 3.47v.002zm-5.928-12.335l4.333-3.307.792 7.142-5.125-3.835zm-.095-.224l-.508-6.252 4.825 2.958-4.315 3.291-.002.003zm-6.257-3.076l.106-5.352 5.242 1.98-5.348 3.372zm-.237.063l-6.082-1.67 6.188-3.703-.106 5.373zm-13.334 2.846l.932-4.601 5.653.228-6.585 4.373zm-5.954-.354l1.379-3.473 4.91-.704-6.291 4.177h.002zm-5.26.631l1.626-2.678 4.228-1.211-5.853 3.89zm-4.74 1.258l1.695-2.228 3.7-1.355-5.395 3.582zm-4.52 1.61l1.712-2.188 3.532-1.295-5.244 3.483zM79.963 17.1l1.725-2.15 3.372-1.233-5.096 3.386V17.1zm-4.2 1.497l1.734-2.11 3.222-1.181-4.957 3.291zm-4.053 1.446l1.742-2.076 3.081-1.126-4.82 3.201h-.003zm3.974-4.251l2.73-1.016-4.25 2.495 1.52-1.479zm-5.399 2.893l1.515-1.447 2.596-.965-4.11 2.412zm-3.748 1.366l1.507-1.416 2.47-.919-3.977 2.335zm-3.625 1.32l1.496-1.385 2.352-.874-3.85 2.26h.002zm-3.506 1.276l1.481-1.351 2.235-.832-3.716 2.183zm-3.397 1.234l1.464-1.316 2.126-.79-3.59 2.106zm-3.29 1.199l1.446-1.284 2.023-.753-3.47 2.035v.002zm-1.045.613l-1.312.627 2.398-1.592-1.088.965h.002zm-.97.726l-3.22 2.406 1.478-1.571 1.742-.835zm-2.38 2.57L44.99 31.48l1.555-1.654 1.78-.838zm-2.457 2.65l-3.455 2.582 1.637-1.742 1.818-.84zm-2.544 2.741l-3.565 2.665 1.716-1.825 1.85-.84zm-2.621 2.83l-3.694 2.762 1.806-1.923 1.888-.84zm-2.716 2.927l-3.817 2.854 1.898-2.018 1.92-.834-.001-.002zm-2.806 3.027l-3.95 2.952 1.997-2.124 1.953-.828zm-.13.39l-2.027 2.179-1.98.817 4.005-2.995h.002zm.726 1.603l-4.959 3.294 2.34-2.516 2.619-.778zm-3.011 3.294l-5.097 3.383 2.447-2.629 2.65-.754zm-3.12 3.413L24.4 55.347l2.564-2.758 2.682-.727v.002zm-3.24 3.543l-5.393 3.582 2.686-2.885 2.707-.697zm-3.003 3.884L17.55 63.18l2.758-3.429 3.096-.458v-.002zm-2.622 4.604l-6.29 4.177 2.555-4.254 3.735.077zm-1.983 5.624l-6.584 4.373 1.982-5.3 4.602.925v.002zm-7.793 11.187l-4.996-1.987 5.812-4.268-.816 6.255zm-.15.195l-5.18 3.621.207-5.598 4.974 1.98V80.9zm.412 6.957L6.56 90.556l-.86-5.591 5.564 2.893h.002zm.17.176l1.552 6.207-6.278-3.498 4.726-2.71zm9.075 10.24l-4.47 1.68-2.61-5.214 7.08 3.534zm2.666 5.552l-3.725.766-3.081-4.164 6.806 3.398zm3.21 4.519l-3.194.16-3.235-3.371 6.428 3.211zm3.516 3.789l-2.887-.143-3.162-2.879 6.05 3.022zm3.67 3.405l-2.87-.189-3.027-2.756 5.897 2.945zm3.54 3.285l-2.85-.232-2.9-2.642 5.75 2.874zm3.416 3.169l-2.829-.272-2.778-2.531 5.607 2.801v.002zm3.298 3.061l-2.804-.309-2.664-2.426 5.468 2.733v.002zm3.187 2.958l-2.777-.341-2.555-2.325 5.332 2.666zm3.081 2.86l-2.75-.37-2.448-2.23 5.198 2.6zm2.978 2.766l-2.72-.395L48 131.101l5.07 2.537h.003zm2.884 2.678l-2.69-.42-2.255-2.055 4.947 2.475h-.002zm2.792 2.593l-2.658-.441-2.167-1.973 4.825 2.414zm.698.355l2.092 1.936-4.75-2.377 2.658.441zm2.006 2.157l-2.625-.459-2.08-1.895 4.708 2.356-.003-.002zm-1.265-1.791l4.83 2.416-2.738-.48-2.092-1.936zm3.556.583l4.956 2.478-2.853-.501-2.103-1.979v.002zm3.676.603l5.084 2.544-2.974-.52-2.11-2.022v-.002zm3.8.624l5.217 2.609-3.103-.543-2.116-2.065.002-.001zm3.932.646l5.356 2.678-3.239-.567-2.117-2.111zm4.071.669l5.497 2.749-3.38-.592-2.117-2.157zm4.218.693l5.641 2.821-3.53-.617-2.113-2.201.002-.003zm4.371.718l5.793 2.894-3.686-.646-2.106-2.248zm4.534.746l5.948 2.972-3.854-.676-2.094-2.296zm4.705.774l6.108 3.051-4.028-.706-2.077-2.345h-.003zm4.921.417l6.497 3.243-4.469-.467-2.029-2.778.001.002zm5.347-.259l6.884 3.438-5.029.129-1.855-3.567zm5.897-1.296l7.171 3.576-5.63 1.126-1.541-4.704v.002zm13.687 1.078l.813 5.512-6.675-2.965 5.861-2.549.001.002zm.245.034l5.795 2.771-4.984 2.719-.811-5.49zm5.849-3.884l4.753 2.874-4.442 3.538-.311-6.412zm.064-.236l4.624-4.416.145 7.301-4.771-2.885h.002zm4.313-13.03l3.743 3.242-3.223 4.752-.52-7.994zm3.484-4.936l2.574 3.091-2.073 4.587-.501-7.678zm2.313-4.829l1.78 2.945-1.306 4.303-.474-7.248zm1.526-4.7l1.362 2.824-.914 3.989-.448-6.815v.002zm1.115-4.637l1.31 2.821-.875 3.816-.435-6.637zm1.074-4.469l1.26 2.812-.836 3.652-.424-6.464zm1.035-4.31l1.215 2.802-.801 3.496-.414-6.3v.002zm1.001-4.156l1.169 2.787-.766 3.348-.403-6.135zm.964-4.013l1.128 2.77-.734 3.209-.394-5.98zm.931-3.876l1.088 2.752-.705 3.076-.383-5.828zm.902-3.744l1.05 2.728-.675 2.947-.375-5.675zm.873-3.624l1.014 2.707-.648 2.829-.365-5.533-.001-.003zm.844-3.504l.977 2.68-.621 2.71-.356-5.39zm.817-3.394l.943 2.654-.596 2.602-.347-5.256zm-.053-.852l.306-2.162.566 4.613-.872-2.451zm-1.281-3.597l.33-2.184.583 4.745-.913-2.56zm-1.318-3.712l.353-2.2.599 4.876-.952-2.676zm-1.364-3.832l.381-2.22.614 5.017-.995-2.797zm-1.406-3.96l.407-2.232.63 5.154-1.04-2.923.003.002zm-1.456-4.09l.437-2.244.648 5.297-1.085-3.056v.003zm-1.505-4.23l.469-2.25.666 5.444-1.137-3.194h.002zm-1.558-4.38l.503-2.256.686 5.597-1.187-3.34h-.002zm-1.611-4.533l.54-2.257.702 5.753-1.242-3.496zm-1.672-4.698l.579-2.254.724 5.911-1.303-3.657zm-1.732-4.868l.621-2.246.742 6.076-1.361-3.83h-.002zm-2.147-4.957l.999-2.439.807 6.607-1.806-4.168zm-2.928-4.935l1.745-2.726.87 7.122-2.615-4.396zm-4.08-4.774l2.863-3.082.912 7.483-3.777-4.399.002-.003zm-.068-.273l-.777-7.007 3.634 3.932-2.859 3.075h.002zM124.205 6.11l3.493-1.97 1.255 4.883-4.748-2.913zm-.137-.195l-.451-3.861 3.904 1.916-3.453 1.948v-.003zm-.236.011l-5.162-1.951 4.704-1.955.458 3.906zm-11.917 1.767l.877-4.03 5.18.406-6.057 3.624zm-.267.12l-5.617-.226 6.494-3.811-.877 4.038zm-10.942.462l6.13-3.598-1.292 2.903-4.838.695zm-4.72 1.265l5.561-3.264-1.492 2.099-4.069 1.165zm-4.343 1.518l4.908-2.88-1.495 1.63-3.413 1.25zm-4.5 1.65l4.753-2.79-1.508 1.602-3.245 1.19v-.003zm-4.341 1.589l4.602-2.702-1.517 1.572-3.085 1.13zm-4.19 1.536l4.457-2.618-1.523 1.542-2.937 1.076h.002zm-4.048 1.48l4.318-2.532-1.524 1.51-2.794 1.022zm-24.295 8.791l1.055-.93 1.264-.61-2.321 1.54h.002zM32.267 46.308l-4.075 3.047 2.096-2.228 1.979-.817v-.002zm-.157.411l-2.132 2.292-2.01.804 4.142-3.096zm-5.284 5.676l-2.032.79 4.272-3.193-2.24 2.406v-.003zm-3.266 3.512l-2.058.768 4.414-3.301-2.356 2.531v.002zm-3.389 3.643l-2.08.743 4.557-3.404-2.477 2.66zm-3.264 4.055l-2.51.559 5.163-3.861-2.654 3.3v.002zm-2.86 4.75l-3.174.062 5.69-4.253-2.517 4.188v.003zm-2.155 5.716l-4.06-.758 6.03-4.508-1.97 5.264v.002zm-.213.2l-5.688 4.177 1.634-4.933 4.052.757h.002zM5.433 84.566l-3.422-1.934 3.624-3.576-.202 5.51zm-.102.213l-3.132 2.427-.252-4.34 3.384 1.913zm.126.2l.846 5.506-4.015-3.048 3.17-2.457zm7.421 9.487l-3.943 1.438-2.216-4.871 6.16 3.433zm.224.17l2.595 5.183-6.545-3.741 3.95-1.442zm5.865 9.718l-6.227-3.558 3.186-.551 3.042 4.112v-.003zm3.522 3.776l-5.778-3.303 2.634.027 3.144 3.276zm3.602 3.355l-5.309-3.036 2.306.301 3.003 2.735zm3.687 3.358l-5.165-2.953 2.296.342 2.869 2.611zm3.557 3.24l-5.024-2.875 2.284.378 2.74 2.495v.002zm3.437 3.13l-4.888-2.797 2.27.412 2.619 2.387v-.002zm3.32 3.025l-4.755-2.722 2.253.442 2.505 2.279-.002.001zm3.212 2.924l-4.629-2.649 2.233.468 2.396 2.181zm3.106 2.829l-4.502-2.577 2.211.491 2.29 2.086zm3.006 2.738l-4.379-2.505 2.188.51 2.191 1.995zm2.913 2.654l-4.26-2.438 2.162.527 2.098 1.911zm2.821 2.57l-4.143-2.371 2.135.544 2.006 1.828.002-.001zm2.736 2.491l-4.029-2.305 2.106.558 1.922 1.75.001-.003zm4.279 1.352l1.847 1.426-4.289-1.854 2.439.426.003.002zm3.564.625l1.862 1.46-4.413-1.908 2.551.448zm3.682.645l1.873 1.496-4.538-1.962 2.665.469v-.003zm3.804.667l1.882 1.53-4.67-2.02 2.788.49zm3.933.689l1.889 1.564-4.804-2.077 2.917.51-.002.003zm4.068.713l1.891 1.6-4.943-2.137 3.051.534v.003zm4.212.737l1.891 1.636-5.085-2.197 3.193.559v.002zm4.362.765l1.886 1.674-5.23-2.26 3.344.586zm4.52.792l1.88 1.711-5.38-2.325 3.5.614zm4.689.821l1.868 1.749-5.535-2.39 3.667.644v-.003zm4.865.854l1.851 1.786-5.695-2.459 3.844.673zm5.164.542l1.836 2.219-6.19-2.674 4.354.455zm5.568-.137l1.699 3.009-6.668-2.88 4.969-.129zm6.059-1.198l1.416 4.147-7.011-3.027 5.598-1.119-.003-.001zm.278.082l6.551 2.908-5.139 1.23-1.412-4.138zm12.138.228l.062 4.104-4.971-1.424 4.91-2.678-.001-.002zm.235-.016l3.72 1.629-3.66 2.431-.06-4.06zm.105-.21l4.375-3.486-.613 5.132-3.762-1.646zm4.494-11.275l3.273 2.907-3.128 4.259-.143-7.166h-.002zm.032-.287l3.207-4.725.072 7.638-3.278-2.911-.001-.002zm5.505-9.652l.071 7.263-2.118-2.732 2.047-4.533v.002zm1.513-4.74l.064 6.744-1.337-2.554 1.273-4.193v.003zm1.104-4.586l.06 6.204-.931-2.398.871-3.806zm1.063-4.642l.058 6.034-.891-2.401.833-3.635v.002zm1.024-4.475l.056 5.863-.851-2.397.793-3.468.002.002zm.991-4.32l.055 5.702-.814-2.39.759-3.312zm.955-4.169l.054 5.542-.778-2.378.724-3.164zm.922-4.03l.054 5.391-.747-2.365.693-3.025zm.894-3.894l.05 5.24-.714-2.348.662-2.891h.002zm.862-3.765l.052 5.09-.684-2.327.632-2.763zm.837-3.648l.048 4.951-.656-2.308.607-2.645.001.002zm.807-3.528l.05 4.811-.627-2.283.577-2.528zm.784-3.42l.047 4.677-.603-2.26.556-2.418zm.719-2.793l.482 1.913-.233 1.847-.249-3.76zm.011 3.74l-.503-1.952.25-1.882.254 3.836-.001-.003zm-.619-2.877l-.559-4.554.843 2.416-.284 2.138zm-1.236-3.456l-.576-4.686.881 2.524-.305 2.162zm-1.276-3.566l-.589-4.818.92 2.636-.33 2.184-.001-.002zm-1.315-3.684l-.607-4.954.961 2.754-.354 2.2zm-1.36-3.802l-.623-5.097 1.004 2.877-.381 2.22zm-1.403-3.93l-.641-5.241 1.049 3.008-.408 2.232zm-1.45-4.064l-.659-5.386 1.098 3.142-.437 2.244h-.002zm-1.502-4.202l-.678-5.536 1.147 3.286-.468 2.252-.001-.002zm-1.555-4.35l-.695-5.692 1.199 3.437-.503 2.257-.001-.002zm-1.608-4.506l-.715-5.854 1.255 3.597-.54 2.257zm-1.668-4.67l-.734-6.018 1.312 3.764-.578 2.255zm-1.729-4.84l-.755-6.187 1.376 3.941-.621 2.246zm-2.134-4.82l-.82-6.722 1.821 4.283-.998 2.441-.003-.002zm-2.924-4.815l-.881-7.228 2.629 4.504-1.745 2.726-.003-.002zm-4.861-12.055l2.038-2.185 1.525 6.037-3.563-3.855v.003zm-.1-.238l-1.223-4.765 3.251 2.592-2.026 2.173h-.002zm-5.261-7.09l2.252-.104 1.234 1.815-3.486-1.71zm-5.421 1.834l.655-2.832 3.92.93-4.575 1.9v.002zm-.258.07l-5.073-.398 5.73-2.446-.657 2.845zm-12.375 3.544l1.291-2.905 4.935-.75-6.226 3.655zm-5.338.695l1.492-2.098 4.17-1.224-5.662 3.325v-.003zm-4.802 1.313l1.495-1.63 3.503-1.304-4.998 2.934zm-4.639 1.692l1.509-1.602 3.333-1.239-4.842 2.84zm-4.468 1.629l1.52-1.573 3.168-1.18-4.688 2.753zm-4.309 1.57l1.523-1.541 3.017-1.123-4.54 2.665zm-4.156 1.515l1.524-1.51 2.87-1.068-4.394 2.578zM29.248 49.54l-4.215 3.15 2.205-2.346 2.01-.804zm-3.122 3.364l-4.35 3.255 2.316-2.466 2.034-.79zm-3.237 3.49l-4.494 3.358 2.436-2.59 2.058-.768zm-3.357 3.619l-4.643 3.47 2.563-2.727 2.08-.743zm-3.078 3.92l-5.256 3.93 2.746-3.371 2.51-.56zm-2.711 4.65l-5.782 4.322 2.606-4.257 3.176-.063v-.002zM5.676 78.616L2.8 78.117l4.474-4.33-1.6 4.83h.002zm-.166.21l-3.523 3.477.664-3.974 2.862.498H5.51zM1.72 83.11l.225 3.875L.75 85.143l.968-2.036v.002zM.65 84.802l-.443-1.84 1.401-.175L.651 84.8zm5.561 5.905L3.428 91.73l-1.132-3.999 3.916 2.975zm.181.185l2.174 4.776-4.973-3.746 2.8-1.03zm9.233 9.149l-3.186.551-3.137-4.165 6.322 3.612v.002zm3.31 4.559l-2.633-.028-3.244-3.333 5.878 3.361zm3.62 3.829l-2.306-.302-3.098-2.79 5.406 3.091-.003.001zm3.797 3.467l-2.297-.342-2.96-2.666 5.257 3.008zm3.662 3.342l-2.285-.378-2.829-2.545 5.114 2.925v-.002zm3.533 3.226l-2.27-.412-2.703-2.433 4.973 2.845zm3.41 3.115l-2.254-.442-2.586-2.326 4.837 2.769.003-.001zm3.296 3.011l-2.233-.468-2.472-2.226 4.704 2.691v.003zm3.186 2.909l-2.21-.491-2.364-2.129 4.576 2.617-.002.003zm3.082 2.815l-2.188-.51-2.262-2.037 4.45 2.547zm2.982 2.724l-2.163-.527-2.165-1.948 4.328 2.477v-.002zm2.888 2.639l-2.135-.544-2.071-1.866 4.208 2.407-.002.003zm2.797 2.556l-2.108-.557-1.984-1.784 4.09 2.342.002-.001zm2.71 2.477l-2.078-.568-1.898-1.709 3.975 2.277zm1.707.853l4.233 1.83-2.4-.437-1.833-1.393zm3.426.595l4.357 1.884-2.509-.456-1.847-1.426v-.002zm3.538.613l4.486 1.938-2.621-.477-1.862-1.462-.002.001zm3.656.633l4.614 1.995-2.741-.499-1.873-1.496zm3.777.655l4.751 2.052-2.869-.522-1.882-1.53zm3.907.678l4.888 2.111-2.999-.547-1.889-1.564zm4.041.701l5.03 2.172-3.138-.572-1.892-1.6zm4.186.726l5.174 2.235-3.282-.599-1.892-1.636zm4.336.753l5.327 2.302-3.438-.626-1.889-1.673v-.003zm4.494.78l5.48 2.368-3.6-.657-1.88-1.711zm4.662.81l5.64 2.436-3.77-.687-1.868-1.75-.002.001zm4.839.842l5.805 2.507-3.952-.722-1.851-1.786-.002.001zm5.024.478l6.304 2.721-4.466-.504-1.836-2.22-.002.003zm5.448-.2l6.777 2.926-5.079.083-1.698-3.009zm12.834 1.839l1.045 2.972-6.09-1.765 5.045-1.207zm.262.037l4.854 1.392-3.815 1.565-1.039-2.957zm8.94-.962l-1.002 2.069-2.298.125 3.301-2.192-.001-.002zm1.052-5.674l2.325 2.103-2.925 2.911.598-5.011.002-.003zm.067-.256l3.071-4.181-.733 6.296-2.337-2.113-.001-.002zm3.282-12.54l2.118 2.731-2.048 4.652-.07-7.383zm2.299-4.947l1.337 2.554-1.272 4.315-.065-6.869zm1.513-4.817l.931 2.401-.871 3.925-.06-6.324v-.002zm1.101-4.789l.891 2.401-.831 3.748-.06-6.149zm1.065-4.611l.852 2.397-.794 3.576-.058-5.973zm1.025-4.447l.814 2.39-.759 3.418-.057-5.808h.002zm.992-4.289l.778 2.378-.723 3.262-.055-5.64zm.953-4.142l.747 2.365-.694 3.119-.053-5.484zm.924-3.999l.714 2.348-.661 2.98-.054-5.33.001.002zm.892-3.865l.684 2.33-.631 2.849-.051-5.18-.002.001zm.863-3.737l.656 2.309-.606 2.726-.05-5.032v-.003zm.836-3.616l.627 2.286-.578 2.608-.049-4.891v-.003zm.808-3.5l.603 2.26-.555 2.495-.048-4.755zm.785-3.389l.575 2.23-.528 2.385-.047-4.615zm-.819-7.555l-.083-.762.45 1.815-.367-1.053zm-1.252-3.587l-.084-.811.492 1.975-.406-1.165h-.002zm-1.292-3.7l-.085-.852.528 2.12-.444-1.27.001.002zm-1.332-3.818l-.083-.89.565 2.274-.482-1.384zm-1.377-3.943l-.079-.934.61 2.447-.528-1.514h-.003zm-1.421-4.074l-.076-.97.65 2.617-.576-1.646h.002zm-1.469-4.208l-.071-1.001.692 2.78-.621-1.777v-.002zm-1.52-4.353l-.064-1.03.736 2.953-.672-1.923zm-1.571-4.503l-.054-1.055.776 3.124-.722-2.07zm-1.629-4.663l-.043-1.083.824 3.319-.781-2.238v.002zm-1.686-4.832l-.032-1.095.869 3.495-.837-2.398v-.002zm-1.751-5.009l-.015-1.113.918 3.698-.903-2.585zm-2.161-5.091l.257-1.595 1.316 5.292-1.57-3.698h-.003zm-2.941-5.05l.943-2.005 1.563 6.3-2.506-4.295zm-.1-.344l-1.436-5.682 2.378 3.68-.944 2.003h.002zm-5.199-9.27l.691-1.284 2.315 3.68-3.006-2.397zm-.162-.197l-1.227-1.806 1.901.557-.672 1.248-.002.001zm-4.079-2.01l.708-1.224 1.523 1.123-2.23.104-.001-.002zm-.268-.006L119.8.854l4.327-.398-.722 1.25-.002.004zm-10.409 1.56l1.185-1.828 4.124-.438-5.307 2.266h-.002zm-.379.152l-4.657.71 5.84-2.536-1.182 1.828-.001-.002zm-8.872 1.817l4.418-1.92-1.138.957-3.28.963zm-2.499.788l.93-.403-.271.16-.658.245-.001-.002zM96.609 7.75l.722-.313-.22.128-.5.185h-.002zm-4.447 1.654l.476-.207-.151.085-.325.122zm-4.307 1.602l.26-.111-.085.047-.172.066-.003-.002zM83.7 12.552l.037-.017-.012.008-.025.01zM27.128 50.14l-.006.006h-.005l.011-.006zm-3.153 3.353l-.073.057.194-.185-.121.128zm-3.26 3.468l-.14.107.38-.364-.24.257zm-3.38 3.594l-.192.147.54-.516-.348.37zm-3.506 3.73l-.25.187.729-.694-.477.507h-.002zm-3.376 4.14l-1.32.678 3.482-3.33-2.164 2.653h.002zM7.495 73.25l-2.142.38 4.601-4.399-2.459 4.019zm-.286.29l-4.144 4.01 2.002-3.63 2.142-.38zm-5.473 8.986l-1.432.18 2.041-3.833-.61 3.651v.002zM.723 85.482l1.187 1.831-1.409.134.222-1.965zM2.03 87.54l1.046 3.695L.58 87.678l1.45-.14v.003zm6.532 8.384l-2.207.09-2.472-3.613 4.679 3.523zm.277.224l2.991 3.973-5.199-3.88 2.207-.09.001-.003zm6.318 7.542l-4.361-3.256 1.564.383 2.798 2.876v-.003zm3.075 2.903l-3.022-2.257 1.006.443 2.016 1.814zm3.806 3.424l-2.866-2.138.988.451 1.875 1.688.003-.001zm3.67 3.305l-2.71-2.025.967.455 1.744 1.57zm3.546 3.192l-2.561-1.913.944.458 1.617 1.455zm3.429 3.085l-2.415-1.804.916.453 1.498 1.349v.002zm3.314 2.983l-2.271-1.696.885.45 1.387 1.248v-.002zm3.206 2.886l-2.127-1.589.852.44 1.275 1.149zm3.104 2.794l-1.992-1.487.817.43 1.175 1.057zm3.007 2.707l-1.856-1.386.777.416 1.077.97h.002zm2.914 2.622l-1.721-1.285.738.402.983.885v-.002zm2.823 2.541l-1.591-1.188.696.384.895.804zm2.738 2.465l-1.461-1.092.651.364.808.728h.002zm11.034 5.198l.897.404-2.14-.63 1.243.226zm3.552.646l.938.428-2.288-.673 1.35.245zm3.664.668l.98.453-2.444-.719 1.464.266zm3.787.689l1.018.477-2.6-.765 1.584.288h-.002zm3.911.713l1.054.501-2.763-.813 1.71.312zm4.044.737l1.085.526-2.926-.862 1.84.336zm4.183.762l1.114.549-3.094-.91 1.98.361zm4.331.791l1.138.573-3.263-.961 2.125.388zm4.486.818l1.161.597-3.44-1.013 2.28.415-.001.001zm4.649.847l1.179.621-3.62-1.066 2.441.445zm4.82.88l1.19.642-3.802-1.119 2.61.477h.002zm5.004.912l1.199.665-3.993-1.175 2.794.508v.002zm5.296.598l1.472 1.144-5.395-1.588 3.925.443-.002.001zm5.686-.088l1.474 1.942-6.337-1.863 4.863-.079zm.367.093l5.748 1.667-4.277.276-1.471-1.943zm10.628.144l.916 1.337-4.474.124 3.558-1.461zm.26-.039l2.286-.123-1.396 1.426-.893-1.302.003-.001zm3.819-2.537l.856 1.326-1.855.735.997-2.058.002-.003zm.136-.224l2.729-2.716-1.849 4.076-.88-1.36zm3.989-9.852l1.222 2.108-1.915 3.836.693-5.944zm.056-.374l1.961-4.454-.739 6.561-1.223-2.11.001.003zm3.406-9.004l-.629 5.596-.489-1.801 1.118-3.795zm1.006-4.106l-.467 4.156-.15-1.37.617-2.786zm1.064-4.789l-.445 3.965-.133-1.354.58-2.611h-.002zm1.023-4.612l-.423 3.772-.116-1.333.54-2.437-.001-.002zm.989-4.459l-.403 3.592-.103-1.311.508-2.284-.002.003zm.954-4.296l-.382 3.406-.09-1.281.472-2.125zm.924-4.158l-.363 3.234-.079-1.249.44-1.984.002-.001zm.89-4.011l-.344 3.052-.066-1.211.408-1.841h.002zm.861-3.888l-.323 2.89-.056-1.175.38-1.713-.001-.002zm.835-3.755l-.304 2.717-.046-1.13.353-1.585-.003-.002zm.808-3.64l-.289 2.556-.039-1.089.325-1.468.003.001zm.784-3.526l-.269 2.398-.033-1.042.302-1.356zm.756-3.41l-.25 2.228-.024-.988.274-1.24zm-.376-10.268l-.414-1.667.333.964.081.703zm-1.198-3.409l-.458-1.838.375 1.078.083.76zm-1.237-3.516l-.501-2.01.415 1.197.084.813h.002zm-1.278-3.643l-.533-2.15.449 1.301.084.85zm-1.315-3.756l-.575-2.312.492 1.42.082.89.001.002zm-1.36-3.874l-.62-2.489.539 1.555.079.935h.002zm-1.406-4.007l-.661-2.661.587 1.69.077.97-.003.001zm-1.453-4.15l-.703-2.825.633 1.825.07 1zm-1.504-4.288l-.748-3.004.684 1.974.062 1.031h.002zm-1.557-4.443l-.79-3.18.735 2.123.055 1.054v.003zm-1.611-4.597l-.838-3.376.795 2.296.043 1.08zm-1.67-4.77l-.884-3.56.853 2.463.031 1.097zm-1.732-4.943l-.934-3.761.919 2.65.015 1.114v-.003zM136.037 18l-1.336-5.382 1.593 3.787-.257 1.595zm-4.508-11.21l-.123-.805 1.589 3.074-1.466-2.269zm-.315-.5l-1.715-2.724 1.569 1.779.143.945h.003zm-4.894-4.693l-.819-.603 1.838.902-1.019-.299zm-6.449-.995l.83-.34 1.936.087-2.766.253zm-.8.074l-1.694.179 2.232-.4-.538.221zm-11.263 3.262l1.138-.956 3.359-.999-4.498 1.952.001.003zm-4.064 1.044l.274-.16.678-.255-.955.415h.003zM99.052 6.72l.22-.128.513-.192-.733.318v.002zm-4.51 1.67l.154-.085.335-.126-.487.211h-.002zm-4.35 1.614l.083-.048.177-.066-.259.114h-.002zm-4.195 1.553l.013-.007.027-.01-.04.017zm-60.65 40.287l.008-.007-.022.021.014-.014zM22.22 55.16l.073-.058-.197.188.124-.13zm-3.236 3.434l.138-.106-.385.367.247-.26zm-3.353 3.558l.192-.146-.552.528.36-.382zm-3.476 3.689l.249-.186-.74.706.49-.52zm-3.61 3.83l1.321-.677-3.545 3.39 2.227-2.713h-.003zm-6.057 8.44l-.41.409 1.226-1.888-.816 1.48zm-1.012 1.34l.633-.63L.807 81.27l.67-1.816v-.002zm-.948 5.7l-.12 1.048-.118-2.033.238.984zm2.431 6.324l-.81-.499L1.12 88.85l1.842 2.627-.003-.002zm.342.486l1.515 2.215-2.205-2.64.69.424zm8.588 8.494l-1.564-.383-2.874-2.93 4.438 3.313zm3.499 3.697l-1.006-.443-2.07-1.854 3.078 2.297h-.002zm3.892 3.511l-.988-.452-1.926-1.725 2.916 2.176-.002.001zm3.752 3.384l-.968-.455-1.791-1.606 2.76 2.061zm3.618 3.267l-.944-.458-1.66-1.49 2.604 1.945v.003zm3.495 3.154l-.917-.454-1.54-1.379 2.455 1.835.002-.002zm3.375 3.045l-.885-.45-1.423-1.274 2.308 1.724zm3.26 2.943l-.85-.44-1.313-1.176 2.164 1.616zm3.154 2.847l-.817-.431-1.207-1.081 2.024 1.512zm3.05 2.753l-.778-.416-1.105-.991 1.885 1.407h-.002zm2.953 2.667l-.738-.402-1.011-.906 1.749 1.306v.002zm2.86 2.582l-.696-.384-.918-.823 1.614 1.207zm2.77 2.502l-.652-.364-.83-.745 1.482 1.109zm2.687 2.426l-.608-.341-.748-.67 1.354 1.014.002-.003zm9.704 4.819l-.855-.379 2.023.595-1.17-.215.002-.001zm3.429.635l-.897-.404 2.172.64-1.275-.236zm3.537.654l-.938-.427 2.326.684-1.388-.257zm3.649.676l-.982-.453 2.487.732-1.505-.279zm3.767.698l-1.018-.477 2.645.778-1.627-.301zm3.888.719l-1.053-.501 2.81.827-1.757-.326zm4.02.745l-1.086-.526 2.977.875-1.892-.349zm4.155.77l-1.114-.55 3.148.927-2.034-.377zm4.299.797l-1.14-.573 3.324.978-2.184-.405zm4.45.825l-1.162-.598 3.504 1.032-2.342-.434zm4.608.853l-1.178-.62 3.689 1.086-2.511-.466zm4.778.886l-1.193-.642 3.876 1.14-2.683-.496v-.002zm4.954.917l-1.199-.664 4.07 1.195-2.868-.531h-.003zm5.147.952l-1.472-1.145 5.497 1.616-4.025-.471zm10.383.546l1.004.41-4.003-.216 2.999-.194zm1.708.441l-1.127-.457 3.578-.099-2.451.559v-.003zm5.421-2.353l1.204-.476-2.11 1.4.906-.924zm4.285-5.301l-.012 1.217-1.468 2.045 1.48-3.262zm.242-.529l1.345-2.697-1.356 3.784.011-1.087zm3.038-11.583l.489 1.801-1.129 3.898.64-5.699zm1.459-4.684l.151 1.37-.627 2.87.476-4.24zm1.095-4.908l.134 1.356-.587 2.685.453-4.041zm1.057-4.727l.117 1.335-.55 2.509.433-3.844zm1.017-4.559l.103 1.312-.514 2.348.409-3.657.002-.003zm.983-4.393l.09 1.281-.479 2.187.389-3.468zm.948-4.241l.079 1.249-.448 2.041.369-3.29zm.915-4.091l.066 1.211-.414 1.892.348-3.103zm.886-3.96l.057 1.176-.387 1.765.33-2.939v-.002zm.855-3.822l.046 1.133-.358 1.631.31-2.761.002-.003zm.827-3.698l.039 1.086-.329 1.508.292-2.595h-.002zm.802-3.58l.031 1.041-.306 1.396.273-2.437h.002zm.775-3.463l.025.99-.279 1.277.254-2.267zm.752-3.361l.021.943-.258 1.177.236-2.123.001.003z" fill="#FD971F" fill-opacity=".6"/></svg>