<svg width="149" height="153" fill="none" xmlns="http://www.w3.org/2000/svg"><path d="M136.881 1.239h-.018l-.009.001-4.501 1.415s-.006.005-.008.005c-.003 0-.007 0-.009.003l-3.727 1.995-8.19 4.447-8.509 4.886-8.418 4.835-8.327 4.784-8.24 4.735-8.156 4.684-8.07 4.637-7.988 4.587-7.906 4.541-7.825 4.494-7.745 4.45-7.667 4.405-7.591 4.36-7.512 4.317h-.005l-6.695 4.084h-.004l-1.566 1.034-.005.005s-.004 0-.006.002l-2.788 2.372v.002h-.004l-.01.012-.006.007c-.004.005-.009.007-.01.011l-.262.45v.003H5.1l-.885 1.762-.004.007s0 .004-.004.009l-.005.02c0 .005-.004.01-.004.014v.008l.002.02v.013c0 .002.003.007.006.009v.009l.83 1.62v.002s.005.004.005.007c0 .002 0 .004.003.006l.894 1.297v.002l2.348 3.19.007.006c.002.002.002.007.007.009l3.697 3.423s.003 0 .003.002l.002.005 4.013 3.205 4.151 3.317 4.296 3.433 4.45 3.556 4.615 3.687 4.784 3.823 4.968 3.97 5.157 4.121 5.361 4.286 5.577 4.455 5.803 4.638 6.047 4.832 6.306 5.039h.004v.002l6.149 4.291v.002h.007v.002l1.14.662h.005l.004.004 5.41 2.449s.007.001.01.004c0 0 .008-.001.013.001.004 0 .009.002.013.004l.005-.001h.009l2.67-.09h.007l4.223-.4 3.301-.41 3.126-.391 2.967-.368 2.818-.349 2.682-.335 2.555-.317 2.437-.302 2.328-.291 2.223-.276 2.129-.264 2.039-.252 1.953-.244 1.875-.233 1.801-.225h.013l1.382-.353.015-.008c.005 0 .009 0 .013-.005h.005l.02-.021c.003-.003.005-.003.007-.007l2.062-2.702.004-.007a.04.04 0 00.008-.016l.007-.016 1.17-4.588-.001-.011c0-.002 0-.004.002-.006l.628-6.598.073-.763v-.007l.313-7.542.317-7.684.325-7.827.331-7.977.337-8.128.342-8.287.351-8.448.358-8.616.365-8.787.373-8.963.378-9.146.387-9.335.226-6.544v-.005l-.035-9.033-.001-.013-.866-6.807s-.002-.009-.005-.013a.058.058 0 00-.006-.022l-1.288-2.523-.003-.004v-.004l-.461-.737s-.005-.004-.005-.006c0 0 0-.005-.003-.007 0 0-.004-.002-.004-.004a.045.045 0 00-.01-.01h-.004s-.012-.01-.019-.012c-.004-.002-.009-.006-.015-.008l-1.608-.451h-.009l-.014-.003h-.011l.004.016zm-25.324 65.634l3.987 5.674-6.762 2.558 2.778-8.232h-.003zM108.55 75.1l-5.142-4.532 7.929-3.724-2.784 8.256h-.003zm-5.152-4.772l2.815-8.073 5.108 4.352-7.923 3.721zm5.004 4.936l-8.043 3.777 2.898-8.31 5.145 4.533zm7.134-2.477l-2.744 8.386-4.022-5.828 6.766-2.558zm-3.844-6.1l6.649-2.473-2.665 8.146-3.984-5.672zm-5.33-4.593l7.812-3.671-2.707 8.02-5.105-4.35zm-3.215 8.278L97.4 66.773l8.564-4.482-2.817 8.08zm-.162.158l-8.676 4.51 2.926-8.11 5.749 3.598.001.002zm-8.934 4.579l-5.925-3.273L96.977 67l-2.926 8.109zm8.959-4.345l-2.9 8.317-5.782-3.802 8.684-4.515h-.002zm5.402 4.737l-2.869 8.502-5.181-4.722 8.05-3.78zm.22.033l4.022 5.83-6.884 2.647 2.86-8.477h.002zm7.078-2.577l2.335 7.264-5.055 1.048 2.72-8.312zm.144-.271l4.943-.92-2.611 8.178-2.332-7.258zm5.058-.552l1.033 8.177-3.606-.112 2.576-8.065h-.003zm-5.039.326l2.642-8.072 2.3 7.154-4.941.92-.001-.002zm-4.176-6.009l2.697-7.995 3.949 5.524-6.646 2.471zm-5.347-4.595l2.737-7.846 5.07 4.178-7.805 3.668h-.002zm-8.973 4.681l2.843-7.881 5.713 3.407-8.558 4.476.002-.002zM88.103 71.6l2.945-7.901 5.895 3.07-8.84 4.83zm5.777 3.669l-8.956 4.856 3.03-8.128 5.926 3.272zm6.068 3.972l-8.795 4.546 3.013-8.348 5.784 3.803-.002-.001zm5.448 4.928l-8.167 3.835 2.985-8.557 5.182 4.724v-.002zm7.251-2.566l-2.828 8.639-4.061-5.99 6.886-2.649h.003zm5.374-1.151l-2.689 8.42-2.368-7.372 5.057-1.048zm3.895.079l-2.547 8.136-1.061-8.248 3.608.111zm-.835-8.784l3.503.263-2.474 7.9-1.029-8.163zm-2.426-7.627l4.834-.797-2.537 7.944-2.297-7.145v-.002zm-4.127-5.851l6.536-2.39-2.589 7.914-3.947-5.522v-.002zm-5.294-4.417l7.698-3.618-2.63 7.795-5.068-4.177zm-3.139 8.053l-5.713-3.404 8.45-4.446-2.739 7.85h.002zm-8.983 4.705l-5.895-3.069 8.738-4.812-2.843 7.881zm-9.28 5.07l-5.688-3.142 8.633-4.752-2.943 7.896-.002-.002zm-.17.158l-8.733 4.772 3.043-7.916 5.69 3.144zm-9 4.852l-5.487-3.213 8.53-4.696-3.043 7.911v-.002zm9.022-4.613L84.655 80.2l-5.714-3.347 8.743-4.777zm6.22 3.429l-3.011 8.347-5.954-3.487 8.967-4.86h-.003zm6.062 3.974l-2.986 8.566-5.816-4.015 8.803-4.55v-.001zm5.436 4.93l-2.955 8.762-5.216-4.923 8.173-3.838h-.002zm.22.036l4.061 5.993-7.008 2.74 2.945-8.733h.002zm7.198-2.67l2.371 7.379-5.174 1.185 2.803-8.564zm5.316-.963l1.064 8.261-3.716.05 2.654-8.31h-.002zm3.833.285l.199 8.644-2.704-.64 2.505-8.004zm.208-.52l2.604.814-2.406 7.81-.2-8.623h.002zm2.613 1.54l-.22 8.633-2.153-.931 2.373-7.703zm-2.587-1.761l2.432-7.766.173 8.58-2.605-.814zm-1.1-8.825l2.5-7.832 1.001 8.095-3.503-.263h.002zm-2.428-7.634l2.565-7.842 2.267 7.044-4.834.796.002.002zm-4.139-5.86l2.623-7.772 3.911 5.381-6.532 2.39h-.002zm-5.314-4.42l2.66-7.627 5.031 4.012-7.691 3.616zm-8.863 4.65l2.764-7.662 5.677 3.221-8.441 4.441zm-9.167 5.041l2.863-7.682 5.864 2.875-8.727 4.807zm-9.063 4.99l2.96-7.696 5.663 2.949-8.623 4.747zm-8.96 4.933l3.053-7.71 5.468 3.02-8.521 4.69zm5.327 3.618l-8.628 4.715 3.14-7.928 5.488 3.215v-.002zm5.995 3.51l-8.847 4.797 3.13-8.141 5.715 3.347.002-.002zm6.237 3.653l-9.073 4.879 3.12-8.366 5.953 3.487zm6.097 4.192l-8.918 4.58 3.1-8.597 5.817 4.017zm5.48 5.134l-8.293 3.894 3.074-8.819 5.219 4.925zm7.373-2.659l-2.913 8.9-4.097-6.16 7.012-2.742-.002.002zm5.494-1.293l-2.77 8.675-2.404-7.49 5.174-1.185zm4.006-.093l-2.623 8.38-1.093-8.329 3.718-.05-.002-.001zm2.968.668l-2.478 8.046-.226-8.686 2.704.64zm2.398 1.016l-2.349 7.734.196-8.664 2.153.932v-.002zm.484-9.48l2.06 1.101-2.28 7.505.22-8.607v.002zm-.182-9.425l2.51.974-2.336 7.584-.174-8.558zm-1.066-8.76l3.401.407-2.401 7.674-1-8.082zm-2.391-7.524l4.729-.682-2.465 7.72-2.264-7.038zm-4.092-5.707l6.426-2.313-2.517 7.691-3.909-5.378zm-5.259-4.25l7.586-3.567-2.557 7.577-5.029-4.01zm-3.064 7.835l-5.678-3.222 8.339-4.41-2.661 7.632zm-8.873 4.674l-5.864-2.875 8.628-4.785-2.764 7.66zm-9.171 5.05l-5.664-2.949 8.526-4.728-2.862 7.677zm-9.065 4.99l-5.467-3.018 8.425-4.674-2.958 7.692zm-8.96 4.934l-5.273-3.09 8.327-4.62-3.052 7.707-.002.003zm-.167.155l-8.419 4.636 3.146-7.725 5.273 3.09zm-8.691 4.721l-5.085-3.156 8.228-4.565-3.143 7.721zm8.7-4.472l-3.138 7.923-5.29-3.282 8.43-4.641h-.003zm5.77 3.372l-3.13 8.137-5.506-3.42 8.638-4.72-.002.003zm6 3.506l-3.118 8.36-5.739-3.56 8.856-4.802v.002zm6.241 3.65l-3.101 8.596-5.984-3.715 9.085-4.883v.002zm6.092 4.193l-3.079 8.825-5.848-4.24 8.927-4.585zm5.468 5.136l-3.047 9.029-5.254-5.132 8.301-3.897zm.218.038l4.1 6.16-7.137 2.841 3.037-9.001zm7.322-2.769l2.406 7.496-5.295 1.33 2.889-8.826zm5.436-1.11l1.096 8.34-3.831.224 2.735-8.564zm3.946.108l.227 8.706-2.809-.457 2.582-8.249zm2.922.825l-.197 8.69-2.247-.749 2.447-7.94h-.003zm2.39 1.054l-.215 8.427-2.129-.71 2.344-7.717zm.236-.642l2.04.883-2.254 7.52.214-8.401v-.002zm2.038 1.648l-.231 8.174-2.018-.671 2.249-7.5v-.003zm-2.01-1.877l2.276-7.492-.236 8.373-2.04-.883v.002zm.244-9.59l2.303-7.476-.241 8.576-2.06-1.1h-.002zm-.186-9.416l2.358-7.54.15 8.516-2.511-.974.003-.002zm-1.07-8.755l2.427-7.606.974 8.012-3.402-.408.001.002zm-2.396-7.53l2.493-7.619 2.234 6.938-4.729.682h.002zm-4.103-5.717l2.549-7.555 3.875 5.245-6.422 2.31h-.002zm-5.278-4.25l2.587-7.417 4.993 3.854-7.58 3.562zm-8.754 4.616l2.688-7.453 5.643 3.045-8.331 4.406v.002zm-9.061 5.019l2.786-7.47 5.833 2.69-8.62 4.78zm-8.96 4.97l2.88-7.486 5.636 2.763-8.516 4.723zm-8.86 4.914l2.971-7.503 5.445 2.835-8.417 4.668zm-8.76 4.86l3.061-7.516 5.255 2.904-8.316 4.612zm-8.662 4.804l3.149-7.529 5.071 2.97-8.22 4.56zm4.912 3.568l-8.318 4.581 3.235-7.737 5.085 3.156h-.002zm5.562 3.451l-8.526 4.658 3.234-7.94 5.292 3.282zm5.78 3.588l-8.74 4.737 3.23-8.154 5.51 3.42v-.003zm6.012 3.732l-8.96 4.817 3.222-8.378 5.738 3.561zM87.494 93L78.3 97.9l3.211-8.614L87.494 93zm6.124 4.425l-9.044 4.614 3.196-8.857 5.85 4.243h-.002zm5.511 5.349l-8.424 3.956 3.168-9.087 5.257 5.134v-.003zm7.497-2.756l-3.002 9.178-4.137-6.335 7.141-2.844-.002.001zm5.615-1.442l-2.855 8.943-2.443-7.613 5.298-1.33zm4.121-.274l-2.705 8.637-1.126-8.413 3.831-.224zm3.077.467l-2.554 8.294-.256-8.751 2.81.457zm2.498.814l-2.421 7.97.173-8.72 2.248.75zm2.371.79l-2.319 7.746.191-8.454 2.129.711-.001-.003zm2.259.754l-2.227 7.528.209-8.201 2.016.671.002.002zm.501-9.06l1.933.835-2.163 7.313.23-8.147zm.263-9.34l1.953 1.043-2.188 7.304.235-8.346zm.271-9.545l1.972 1.26-2.213 7.287.241-8.547zm-.156-9.38l2.419 1.126-2.268 7.366-.15-8.49-.001-.003zm-1.037-8.695l3.306.544-2.335 7.458-.971-8v-.002zm-2.358-7.424l4.627-.572-2.396 7.503-2.231-6.931zm-4.055-5.57l6.32-2.239-2.448 7.478-3.872-5.242v.002zm-5.224-4.09l7.48-3.516-2.487 7.368-4.993-3.854v.002zm-2.995 7.629l-5.64-3.046 8.229-4.377-2.589 7.42v.002zm-8.766 4.643l-5.833-2.69 8.522-4.758-2.689 7.45v-.002zm-9.067 5.028l-5.636-2.763 8.42-4.704-2.784 7.467zm-8.962 4.971l-5.445-2.834 8.323-4.65-2.878 7.482v.002zm-8.862 4.914l-5.255-2.903 8.224-4.596-2.97 7.5zm-8.762 4.86l-5.072-2.97 8.13-4.541-3.058 7.513v-.002zm-8.664 4.803l-4.891-3.036 8.037-4.49-3.146 7.526zm-.165.155l-8.125 4.505 3.232-7.54 4.89 3.035h.003zm-8.401 4.595l-4.714-3.1 7.946-4.437-3.23 7.537h-.002zm8.394-4.339l-3.233 7.733-4.9-3.222 8.133-4.51zm5.36 3.32l-3.232 7.936-5.097-3.352 8.33-4.586v.002zm5.566 3.449L66.22 90.2l-5.306-3.486 8.534-4.663zm5.786 3.585l-3.22 8.373-5.527-3.631 8.747-4.742zm6.017 3.728l-3.208 8.608-5.761-3.787 8.97-4.821zm6.265 3.882L84.32 102.1l-6.009-3.953 9.205-4.904v.002zm6.119 4.424l-3.172 9.096-5.88-4.476 9.052-4.62zm5.5 5.351l-3.139 9.31-5.29-5.353 8.432-3.957h-.002zm.22.04l4.138 6.339-7.27 2.943 3.131-9.28v-.002zm7.449-2.871l2.445 7.619-5.423 1.482 2.978-9.101zm5.56-1.264l1.129 8.424-3.948.406 2.821-8.832-.002.002zm4.062-.082l.255 8.769-2.919-.261 2.661-8.507h.003zm3.031.623l-.174 8.744-2.348-.556 2.522-8.188zm2.489.849l-.192 8.479-2.223-.526 2.415-7.953zm2.369.811l-.21 8.226-2.105-.498 2.315-7.728zm2.255.773l-.224 7.982-1.995-.471 2.221-7.511h-.002zm.24-.689l1.915.638-2.138 7.32.223-7.958zm1.912 1.427l-.239 7.749-1.894-.449 2.133-7.302v.002zm-1.883-1.649l2.157-7.295-.245 7.933-1.914-.638h.002zm.257-9.144l2.185-7.287-.251 8.122-1.934-.835zm.263-9.348l2.21-7.274-.257 8.317-1.953-1.043zm.268-9.557l2.235-7.255-.263 8.515-1.972-1.26zm-.162-9.37l2.291-7.318.125 8.446-2.418-1.127h.002zm-1.041-8.68l2.359-7.391.947 7.933-3.306-.544v.002zm-2.362-7.428l2.424-7.406 2.201 6.836-4.625.572v-.002zm-4.069-5.581l2.478-7.348 3.838 5.113-6.316 2.235zm-5.244-4.09l2.516-7.215 4.955 3.702-7.473 3.511.002.002zm-8.648 4.584l2.614-7.25L114.321 38l-8.22 4.373zm-8.959 4.997l2.71-7.27 5.801 2.516-8.51 4.754zm-8.86 4.95l2.802-7.286 5.608 2.586-8.41 4.7zm-8.762 4.894l2.891-7.302 5.421 2.657-8.312 4.645zm-8.664 4.84l2.979-7.316 5.237 2.726-8.216 4.59zm-8.568 4.786l3.064-7.33 5.056 2.794-8.12 4.536zm-8.474 4.734l3.146-7.342 4.88 2.858-8.029 4.484h.003zm-8.38 4.682l3.227-7.355 4.71 2.92-7.938 4.433v.002zm4.531 3.518l-8.03 4.454 3.314-7.553 4.716 3.1zm5.162 3.394l-8.22 4.527 3.32-7.75 4.9 3.223zm5.361 3.525l-8.42 4.601 3.323-7.952 5.097 3.351zm5.57 3.662l-8.632 4.68 3.326-8.166 5.306 3.489v-.002zm5.793 3.808L63 98.923l3.324-8.39 5.526 3.63zm6.03 3.963l-9.08 4.839 3.318-8.627 5.761 3.788zm6.279 4.13l-9.318 4.922 3.307-8.873 6.009 3.953.002-.002zm6.149 4.667l-9.174 4.649 3.292-9.125 5.88 4.479.002-.003zm5.543 5.575l-8.56 4.014 3.269-9.368 5.291 5.354zm7.625-2.859l-3.097 9.464-4.177-6.52 7.274-2.944zm5.742-1.599l-2.944 9.221-2.481-7.736 5.425-1.483v-.002zm4.239-.467l-2.787 8.903-1.163-8.497 3.95-.406zm3.188.256l-2.633 8.547-.286-8.81 2.918.261.001.002zm2.602.598l-2.494 8.215.145-8.771 2.349.556zm2.469.584l-2.392 7.977.169-8.503 2.223.526zm2.35.556l-2.293 7.748.188-8.248 2.105.498v.002zm2.241.529l-2.201 7.534.204-8.005 1.997.471zm2.138.507l-2.114 7.326.22-7.773 1.894.45v-.003zm.513-8.678l1.818.606-2.056 7.119.238-7.725zm.276-8.92l1.833.795-2.078 7.113.245-7.908zm.281-9.11l1.853.99-2.101 7.104.248-8.094zm.288-9.306l1.869 1.196-2.126 7.092.255-8.288h.002zm.293-9.51l1.886 1.412-2.149 7.076.263-8.487zm-.131-9.335l2.329 1.269-2.203 7.154-.126-8.423zm-1.01-8.63l3.213.67-2.269 7.25-.944-7.92zm-2.328-7.329l4.53-.467-2.329 7.297-2.201-6.83zm-4.02-5.438l6.216-2.166-2.381 7.274-3.835-5.108zm-5.188-3.935l7.372-3.465-2.419 7.167-4.955-3.702h.002zm-2.928 7.428l-5.604-2.878 8.124-4.342-2.517 7.22h-.003zm-8.66 4.613l-5.8-2.513 8.415-4.733-2.615 7.248v-.002zm-8.964 5.006l-5.609-2.586 8.317-4.678-2.708 7.264zm-8.863 4.95l-5.42-2.658 8.22-4.623-2.8 7.28zm-8.764 4.895l-5.238-2.726 8.127-4.572-2.889 7.298zm-8.666 4.84l-5.057-2.792 8.034-4.52-2.977 7.312zm-8.57 4.786l-4.88-2.857 7.941-4.468-3.061 7.325zm-8.475 4.734l-4.707-2.92 7.852-4.417-3.145 7.337zm-8.382 4.682l-4.537-2.984 7.762-4.367-3.225 7.351zm-.163.156l-7.843 4.382 3.306-7.367 4.537 2.985zm-8.126 4.475l-4.373-3.043 7.677-4.318-3.304 7.36zm8.105-4.212l-3.313 7.548-4.539-3.16 7.852-4.388zm4.98 3.266l-3.32 7.743-4.72-3.284 8.04-4.459zm5.167 3.392L51.79 91.37l-4.907-3.415 8.228-4.532zm5.366 3.52l-3.324 8.162-5.108-3.556 8.432-4.606zm5.576 3.66l-3.321 8.386-5.32-3.702 8.641-4.684zm5.8 3.805l-3.316 8.621-5.543-3.858 8.859-4.763zm6.033 3.96l-3.305 8.868-5.782-4.024 9.087-4.844zm6.286 4.125l-3.292 9.126-6.035-4.201 9.327-4.925zm6.145 4.668l-3.27 9.377-5.91-4.726 9.18-4.651zm5.532 5.578l-3.239 9.6-5.325-5.584 8.566-4.018-.002.002zm.219.044l4.179 6.522-7.409 3.049 3.23-9.571zm7.584-2.978l2.484 7.742-5.557 1.643 3.073-9.387v.002zm5.689-1.428l1.163 8.508-4.072.602 2.909-9.11zm4.182-.279l.287 8.828-3.031-.053 2.746-8.775h-.002zm3.144.407l-.147 8.792-2.455-.351 2.602-8.444v.003zm2.593.633l-.167 8.525-2.322-.33 2.489-8.195zm2.466.604l-.187 8.271-2.197-.314 2.384-7.959v.002zm2.347.576l-.204 8.027-2.081-.296 2.287-7.731h-.002zm2.238.55l-.221 7.796-1.974-.281 2.195-7.513v-.002zm2.135.527l-.235 7.57-1.874-.265 2.109-7.305zm.242-.734l1.8.427-2.032 7.122.234-7.549h-.002zm1.796 1.236l-.245 7.357-1.781-.255 2.026-7.104v.002zm-1.766-1.453l2.051-7.102-.25 7.528-1.801-.426zm.267-8.739l2.075-7.098-.257 7.704-1.818-.606zm.274-8.924l2.097-7.088-.262 7.882-1.833-.794h-.002zm.279-9.116l2.12-7.079-.268 8.068-1.852-.99zm.284-9.315l2.146-7.063-.274 8.259-1.869-1.196h-.003zm.292-9.52l2.169-7.043-.282 8.453-1.889-1.41h.002zm-.134-9.318l2.224-7.11.104 8.379-2.33-1.27h.002zm-1.013-8.61l2.293-7.182.92 7.853-3.213-.671zm-2.33-7.33l2.358-7.203 2.17 6.737-4.528.467zm-4.034-5.447l2.411-7.148 3.802 4.984-6.213 2.164zm-5.21-3.936l2.448-7.022 4.918 3.559-7.366 3.463zm-8.544 4.553l2.544-7.054 5.568 2.717-8.115 4.337h.003zM99.99 39.72l2.639-7.073 5.765 2.347-8.404 4.728v-.002zm-8.762 4.928l2.728-7.092 5.578 2.419-8.306 4.673zm-8.666 4.873l2.814-7.108 5.398 2.49-8.213 4.618zm-8.57 4.822l2.899-7.124 5.216 2.557-8.116 4.567zm-8.478 4.767l2.983-7.138 5.04 2.623-8.025 4.513.002.002zm-8.384 4.715l3.065-7.152 4.868 2.69-7.933 4.462zm-8.294 4.666l3.145-7.163 4.699 2.752-7.844 4.41zm-8.203 4.614l3.22-7.177 4.533 2.813-7.754 4.362v.002zm-8.12 4.565l3.298-7.188 4.372 2.873-7.67 4.312v.003zm4.182 3.473l-7.006 4.122 2.638-7.16 4.368 3.038zm4.792 3.337l-7.176 4.183 2.642-7.34 4.534 3.157zm4.976 3.462l-7.355 4.248 2.64-7.528 4.715 3.282v-.002zm5.163 3.595l-7.541 4.311 2.638-7.723 4.903 3.412zm5.365 3.736l-7.736 4.374 2.633-7.926 5.1 3.552h.003zm5.579 3.882l-7.939 4.444 2.627-8.142 5.312 3.698zm5.805 4.04l-8.15 4.512 2.614-8.365 5.538 3.853h-.002zm6.044 4.209l-8.373 4.58 2.598-8.6 5.775 4.02zm6.3 4.385l-8.61 4.652 2.582-8.848 6.028 4.196zm6.173 4.922l-8.458 4.382 2.555-9.102 5.903 4.72zm5.575 5.811l-7.84 3.767 2.522-9.343 5.318 5.574v.002zm.347.085l7.41-3.052-3.195 9.763-4.215-6.714v.003zm4.086 6.917l-6.683 2.838 2.478-9.534 4.205 6.696zm9.202-11.732l-3.037 9.508-2.522-7.866 5.556-1.644.003.002zm4.365-.674l-2.874 9.182-1.198-8.581 4.072-.603v.002zm3.304.033l-2.715 8.817-.319-8.87 3.032.053h.002zm2.712.369l-2.571 8.471.118-8.82 2.455.351-.002-.002zm2.57.368l-2.463 8.22.142-8.55 2.321.33zm2.446.35l-2.361 7.979.164-8.293 2.197.314zm2.33.332l-2.264 7.751.183-8.048 2.081.297zm2.224.317l-2.174 7.532.2-7.813 1.974.281zm2.123.301l-2.089 7.324.215-7.59 1.874.266zm2.028.289l-2.009 7.12.228-7.376 1.781.256zm.523-8.329l1.711.405-1.955 6.93.244-7.335zm.284-8.532l1.728.576-1.977 6.927.249-7.503zm.291-8.71l1.743.754-2 6.924.257-7.677zm.295-8.89l1.759.94-2.02 6.917.261-7.857zm.301-9.075l1.775 1.135-2.042 6.904.267-8.04zm.31-9.27L134 68.009l-2.066 6.89.274-8.23zm.315-9.47l1.807 1.55-2.089 6.873.28-8.424.002.002zm-.106-9.288l2.245 1.402-2.141 6.95-.104-8.354v.002zm-.982-8.566l3.126.791-2.206 7.047-.92-7.84v.002zm-2.295-7.236l4.434-.369-2.266 7.097-2.168-6.728zm-3.987-5.312l6.115-2.096-2.316 7.078-3.799-4.982zm-.005-.231l2.346-6.956 3.765 4.86-6.113 2.096h.002zm-.231 0l-4.916-3.556 7.269-3.418-2.353 6.977v-.003zm-7.778 3.678l-5.568-2.716 8.017-4.308-2.449 7.024zm-8.559 4.583l-5.765-2.348 8.31-4.706-2.545 7.052v.002zm-8.862 4.984l-5.578-2.418 8.214-4.652-2.636 7.07zm-8.764 4.93l-5.395-2.488 8.123-4.598-2.726 7.087h-.002zm-8.669 4.874L77.07 47.06l8.03-4.546-2.814 7.103zm-8.572 4.822l-5.04-2.623 7.94-4.495-2.9 7.12v-.002zm-8.48 4.767l-4.867-2.688 7.85-4.445-2.982 7.133zm-8.386 4.716l-4.7-2.752 7.763-4.396-3.063 7.148zm-8.296 4.666l-4.533-2.813 7.676-4.346-3.143 7.159zM40.347 73.2l-4.371-2.874 7.59-4.296-3.218 7.172V73.2zm-8.118 4.564l-4.212-2.931 7.507-4.25-3.295 7.183v-.002zm-.158.157l-6.842 4.062 2.632-6.99 4.208 2.929h.002zm-7.106 4.142l-4.06-2.978 6.69-4.006-2.63 6.984zm7.1-3.881l-2.636 7.156-4.213-3.09 6.849-4.064v-.002zm4.63 3.215l-2.64 7.335-4.375-3.21 7.015-4.125zm4.796 3.334l-2.637 7.523-4.545-3.335 7.182-4.188zm4.98 3.46l-2.636 7.719-4.725-3.47 7.364-4.25-.002.001zm5.168 3.592l-2.631 7.921L44.09 96.1l7.548-4.316zm5.369 3.732l-2.625 8.136-5.117-3.758 7.742-4.378zm5.583 3.88l-2.613 8.36-5.334-3.912 7.945-4.448h.002zm5.81 4.037l-2.597 8.596-5.56-4.08 8.158-4.516H68.4zm6.048 4.204l-2.58 8.842-5.802-4.257 8.382-4.585zm6.303 4.383l-2.557 9.102-6.06-4.446 8.615-4.656h.002zm6.17 4.922l-2.527 9.356-5.94-4.971 8.464-4.385h.002zm5.562 5.814l-2.49 9.572-5.355-5.8 7.845-3.77v-.002zm4.394 7.016l-2.863 8.501-3.799-5.674 6.662-2.827zm-7.236 15.393l1.919-.959-.63 1.013-1.287-.054h-.002zm1.48.161l.635-1.015.027 1.892-.66-.875-.002-.002zm2.905-6.454l1.259 4.857-3.26.092 2.001-4.949zm-2.204 4.864l-2.893-3.064 4.923-1.955-2.028 5.017-.002.002zm5.232-13.799l2.12 7.022-4.954 1.401 2.834-8.421v-.002zm3.349-10.217l2.522 7.872-5.694 1.814 3.172-9.686zm5.824-1.6l1.201 8.592-4.201.807 3.002-9.399h-.002zm4.31-.491l.32 8.888-3.153.165 2.833-9.053zm3.262.179l-.117 8.841-2.565-.13 2.682-8.711zm2.703.404l-.143 8.572-2.423-.124 2.566-8.448zm2.567.386l-.165 8.316-2.293-.116 2.458-8.2zm2.443.368l-.184 8.07-2.172-.111 2.356-7.959zm2.327.352l-.201 7.835-2.058-.104 2.259-7.729v-.002zm2.22.337l-.214 7.611-1.955-.1 2.169-7.511zm2.118.321l-.227 7.398-1.855-.095 2.084-7.303h-.002zm2.025.309l-.24 7.191-1.764-.089 2.004-7.1v-.002zm.246-.776l1.694.241-1.933 6.929.239-7.17zm1.692 1.072l-.25 6.992-1.678-.085 1.927-6.909.001.002zm-1.657-1.29l1.95-6.91-.256 7.153-1.694-.241v-.002zm.276-8.364l1.972-6.909-.261 7.314-1.711-.405zm.282-8.535l1.994-6.906-.266 7.482-1.728-.576zm.288-8.715l2.016-6.9-.273 7.656-1.743-.754v-.002zm.294-8.897l2.039-6.89-.28 7.83-1.759-.94zm.301-9.087l2.062-6.877-.284 8.013-1.776-1.136h-.002zm.309-9.28l2.083-6.861-.293 8.198-1.792-1.34.002.002zm.314-9.483l2.106-6.84-.299 8.39-1.807-1.55zm-.111-9.269l2.161-6.905.084 8.308-2.245-1.403zm-.987-8.54l2.23-6.983.896 7.773-3.123-.79h-.003zm-2.3-7.234l2.292-7.006 2.141 6.637-4.433.369zm-1.51-12.453l6.017-2.03-2.255 6.89-3.765-4.86h.003zm-.008-.23l2.285-6.772 3.731 4.742-6.016 2.03zm-7.656 3.57l2.384-6.834 4.881 3.42-7.263 3.414h-.002zm-8.446 4.521l2.477-6.867 5.532 2.565-8.009 4.302zm-8.758 4.952l2.568-6.888 5.732 2.187-8.3 4.699v.002zm-8.667 4.907l2.656-6.905 5.551 2.26-8.207 4.645zm-8.572 4.854l2.742-6.922 5.37 2.327-8.113 4.593v.002zm-8.48 4.8l2.826-6.938 5.195 2.395-8.02 4.541v.003zm-8.387 4.75l2.906-6.953 5.023 2.463-7.929 4.49zm-8.298 4.698l2.987-6.966 4.855 2.526-7.842 4.44zm-8.208 4.648l3.063-6.98 4.69 2.591-7.753 4.39v-.001zM44.039 65.5l3.14-6.993 4.527 2.652-7.667 4.341zm-8.036 4.55l3.214-7.005 4.368 2.712-7.582 4.292zm-7.953 4.5l3.286-7.014 4.213 2.77-7.499 4.245zm-7.132 4.261l2.628-6.825L27.6 74.81l-6.685 4.001h.002zm3.902 3.418l-5.27 3.59 1.226-6.556 4.044 2.966zm4.465 3.275l-5.409 3.635 1.212-6.713 4.197 3.078zM33.91 88.9l-5.556 3.68 1.197-6.878L33.91 88.9h.002zm4.799 3.522L33 96.146l1.18-7.046 4.53 3.322zm4.98 3.656l-5.87 3.77 1.162-7.224 4.709 3.454zm5.176 3.794l-6.037 3.815 1.139-7.407 4.898 3.592zm5.378 3.948l-6.213 3.858 1.114-7.602 5.099 3.744zm5.595 4.103l-6.4 3.905 1.086-7.803 5.314 3.898zm5.823 4.273l-6.596 3.952 1.054-8.017 5.542 4.065zm6.067 4.452l-6.8 3.998 1.019-8.24 5.782 4.242zm6.327 4.641l-7.018 4.044.978-8.475 6.04 4.431zm6.207 5.18l-6.85 3.758.932-8.71 5.917 4.95v.002zm5.609 6.045l-6.21 3.15.882-8.921 5.33 5.771h-.002zm4.01 5.952l-5.005 1.986 1.24-7.613 3.766 5.625-.001.002zm-2.203 5.433l-2.375 1.185-.424-4.149 2.799 2.962v.002zm-.746 1.538l.606.805-1.793-.854 1.187.049zm1.039-1.397l3.116-.09-3.086 2.363-.03-2.275v.002zm2.21-5.444l4.9-1.385-3.618 6.333-1.281-4.946v-.002zm3.014-8.95l5.679-1.808-3.548 8.863-2.13-7.055zm10.176-2.701l-3.368 8.556-.822-7.75 4.19-.806zm3.431-.207l-3.191 8.214.047-8.049 3.144-.165zm2.827.128l-3.03 7.895.472-8.023 2.558.131v-.003zm2.677.135l-2.905 7.656.489-7.78 2.418.122-.002.002zm2.548.13l-2.789 7.428.502-7.545 2.287.117zm2.423.124l-2.679 7.212.514-7.323 2.167.108-.002.003zm2.311.117l-2.577 7.003.522-7.107 2.055.104zm2.204.113l-2.478 6.805.53-6.905 1.948.1zm2.107.108l-2.386 6.612.536-6.707 1.85.095zm2.015.102l-2.301 6.429.541-6.518 1.76.089zm1.928.097l-2.217 6.251.543-6.337 1.674.086zm.545-8.006l1.612.23-1.861 6.742.249-6.972zm.292-8.178l1.628.386-1.883 6.745.255-7.131zm.297-8.339l1.643.546-1.903 6.744.26-7.29zm.303-8.507l1.657.715-1.922 6.742.265-7.457zm.31-8.682l1.673.895-1.943 6.735.273-7.628-.003-.002zm.317-8.858l1.686 1.079-1.965 6.725.277-7.802.002-.002zm.323-9.044l1.702 1.27-1.986 6.711.284-7.981zm.33-9.234l1.716 1.472-2.007 6.695.291-8.167zm.335-9.43l1.729 1.682-2.028 6.677.299-8.36zm-.082-9.245l2.165 1.529-2.08 6.754-.082-8.283h-.003zm-.955-8.5l3.037.904-2.144 6.853-.893-7.76v.002zm-2.266-7.146l4.343-.275-2.205 6.906-2.138-6.63zm.007-.22l2.23-6.82 2.111 6.545-4.341.274zM130.06 12.26l5.925-1.967L133.789 17l-3.729-4.74zm-2.661 6.944l-4.879-3.417 7.168-3.372-2.289 6.79zm-7.68 3.632l-5.53-2.564 7.916-4.273-2.383 6.837h-.003zm-8.456 4.55l-5.732-2.186 8.209-4.678-2.477 6.864zm-8.765 4.961l-5.549-2.259 8.115-4.624-2.566 6.883zm-8.669 4.907l-5.37-2.327 8.026-4.573-2.653 6.902-.003-.002zm-8.572 4.855l-5.196-2.396 7.936-4.522-2.74 6.918zm-8.482 4.8l-5.023-2.463 7.847-4.471-2.824 6.934zm-8.39 4.75l-4.855-2.527 7.76-4.422-2.907 6.948h.003zm-8.297 4.698l-4.69-2.59 7.675-4.372-2.985 6.964v-.002zm-8.21 4.648l-4.529-2.653 7.591-4.325-3.06 6.977h-.003zm-8.124 4.598l-4.368-2.713 7.505-4.276-3.137 6.989zm-8.036 4.548l-4.213-2.77 7.425-4.23-3.212 7zm-7.952 4.502l-4.06-2.826 7.343-4.185-3.283 7.011zm-7.111 4.243l-3.916-2.872 6.54-3.948-2.625 6.818v.002zm-.14.172l-5.136 3.548 1.237-6.408 3.9 2.86zm-5.37 3.595L11.37 79.77l5.011-3.507-1.235 6.401zm5.403-3.35l-1.227 6.55-3.916-3 5.14-3.55h.003zm4.312 3.159l-1.213 6.708-4.064-3.112 5.274-3.594.003-.002zm4.466 3.27l-1.196 6.871-4.217-3.233 5.413-3.637zm4.63 3.391l-1.18 7.04-4.378-3.358 5.56-3.682h-.002zm4.803 3.52l-1.16 7.216-4.554-3.488 5.714-3.728zm4.985 3.653l-1.14 7.401-4.734-3.629 5.874-3.772zm5.177 3.792l-1.112 7.595-4.931-3.778 6.043-3.819v.002zm5.38 3.945l-1.084 7.796-5.133-3.935 6.217-3.863v.002zm5.597 4.102l-1.054 8.01-5.352-4.101 6.404-3.909h.002zm5.828 4.27l-1.016 8.233-5.584-4.279 6.6-3.954zm6.072 4.449l-.978 8.469-5.828-4.466 6.806-4v-.003zm6.33 4.639l-.931 8.715-6.09-4.669 7.023-4.046h-.002zm6.2 5.18l-.884 8.946-5.97-5.183 6.854-3.763zm5.582 6.058l-1.247 7.665-4.94-4.527 6.184-3.138h.003zm-.827 12.328l-4.013-1.947 3.578-2.307.435 4.254zm2.462 1.417l-2.552.477.303-1.55 2.251 1.073h-.002zm.338.161l1.644.755-3.865-.34 2.224-.415h-.003zm1.066.925l-2.63.252-.984-.571 3.614.319zm-.84-1.065l3.096-2.372-1.121 3.28-1.975-.908zm7.095-9.069l.026 5.903-3.602.354 3.576-6.26v.003zm3.797-9.33l.822 7.759-4.33 1.004 3.508-8.763zm4.435-.726l-.045 8.064-3.277.377 3.325-8.441h-.003zm3.381-.076l-.472 8.042-2.682.079 3.154-8.121zm2.816.162l-.489 7.798-2.532.076 3.021-7.872v-.002zm2.675.155l-.504 7.563-2.394.072 2.898-7.635zm2.541.147l-.515 7.339-2.266.067 2.781-7.408v.002zm2.42.14l-.523 7.125-2.148.064 2.671-7.191v.002zm2.308.135l-.532 6.923-2.037.06 2.569-6.983zm2.201.131l-.537 6.725-1.934.058 2.471-6.783zm2.101.126l-.541 6.535-1.837.057 2.378-6.592zm2.009.12l-.544 6.355-1.747.053 2.291-6.408zm1.923.117l-.548 6.181-1.663.05 2.209-6.231h.002zm.286-.738l1.594.081-2.139 6.082.545-6.163zm-.574 6.912l2.131-6.061-.547 6.013-1.584.048zm1.492.176l-2.676 4.752 1.113-4.706 1.563-.046zm-.877-7.307l1.856-6.719-.259 6.803-1.599-.082.002-.002zm.285-8.019l1.877-6.724-.263 6.955-1.612-.231h-.002zm.289-8.177l1.897-6.726-.268 7.112-1.629-.386zm.296-8.342l1.919-6.725-.277 7.271-1.642-.546zm.302-8.513l1.94-6.72-.283 7.434-1.657-.714zm.308-8.688l1.959-6.71-.287 7.604-1.672-.894zm.314-8.87l1.98-6.698-.294 7.777-1.686-1.079zm.32-9.054l2.003-6.684-.301 7.954-1.702-1.273v.003zm.329-9.247l2.024-6.663-.308 8.137-1.716-1.472v-.002zm.336-9.444l2.045-6.64-.316 8.322-1.729-1.682zm-.088-9.217l2.1-6.71.064 8.238-2.164-1.528zm-.963-8.47l2.169-6.789.871 7.695-3.037-.904-.003-.002zm.111-14.209l4.254-.186-2.146 6.721-2.108-6.535zm.004-.22l2.171-6.637 2.081 6.45-4.254.186h.002zm-3.906-5.09l2.57-5.873 3.32 3.918-5.89 1.956v-.002zm-7.552 3.518l2.66-5.922 4.455 2.575-7.115 3.347zm-8.342 4.483l2.742-5.944 5.101 1.711-7.843 4.235v-.002zm-8.659 4.926l2.823-5.962 5.305 1.33-8.13 4.632h.002zm-8.57 4.883l2.902-5.982 5.136 1.402-8.037 4.58h-.002zm-8.48 4.831l2.98-6 4.964 1.473-7.946 4.528h.002zm-8.388 4.78l3.055-6.018 4.803 1.542-7.858 4.478v-.002zm-8.298 4.73l3.13-6.036 4.64 1.61-7.77 4.426zm-8.21 4.678l3.2-6.053 4.482 1.674-7.683 4.377v.002zm-8.124 4.63l3.27-6.07 4.327 1.739-7.597 4.33zm-8.039 4.579l3.34-6.084 4.174 1.8-7.514 4.282v.002zm-7.953 4.532l3.406-6.096 4.023 1.862-7.429 4.234zm-7.872 4.486l3.469-6.11 3.881 1.923-7.35 4.187zm-7.791 4.44l3.532-6.123 3.737 1.98-7.27 4.142zm-6.994 4.21l2.886-5.945 3.593 2.034-6.48 3.91zm-5.431 3.77l1.518-5.555 3.45 2.079-4.968 3.478v-.002zm3.683 3.37l-2.866 2.86-.854-5.712 3.72 2.851zm4.175 3.2l-2.966 2.882-.893-5.84 3.86 2.957zm4.326 3.314l-3.075 2.905-.934-5.974 4.006 3.07.003-.001zm4.48 3.435l-3.183 2.925-.976-6.113 4.16 3.188zm4.645 3.562l-3.3 2.943-1.02-6.255 4.32 3.312zm4.82 3.695l-3.423 2.961-1.07-6.407 4.493 3.444v.002zm5.006 3.835l-3.555 2.98-1.122-6.562 4.677 3.584v-.002zm5.204 3.987l-3.695 2.995-1.174-6.727 4.871 3.731-.002.001zm5.408 4.146l-3.842 3.008-1.23-6.895 5.072 3.889v-.002zm5.63 4.313l-3.998 3.02-1.292-7.074 5.29 4.054zm5.862 4.491l-4.162 3.03-1.356-7.26 5.518 4.23zm6.11 4.683l-4.338 3.039-1.425-7.457 5.764 4.418zm6.375 4.885l-4.526 3.041-1.499-7.659 6.025 4.618zm6.254 5.419l-4.322 2.727-1.572-7.846 5.894 5.119zm5.21 4.771l-3.633 2.344-1.227-6.801 4.86 4.455v.002zm.529 4.705l-.304 1.563-3.39-3.356 3.694 1.793zm6.42-1.385l3.473-.341-4.605 3.659 1.135-3.318h-.003zm3.915-6.815l4.289-.995-4.263 6.936-.026-5.941zm7.866-1.437l-4.054 6.661.806-6.285 3.246-.376h.002zm2.963-.107l-3.863 6.4 1.202-6.322 2.661-.078zm2.798-.084l-3.712 6.201 1.202-6.126 2.51-.075zm2.66-.08l-3.569 6.009 1.197-5.94 2.372-.072v.003zm2.531-.077l-3.435 5.83 1.19-5.762 2.245-.068zm2.411-.074l-3.309 5.655 1.184-5.592 2.125-.065v.002zm2.299-.069l-3.189 5.488 1.174-5.427 2.015-.061zm2.196-.065l-3.075 5.329 1.163-5.273 1.912-.056zm2.097-.064l-2.968 5.178 1.153-5.123 1.815-.055zm2.007-.06l-2.867 5.03 1.142-4.978 1.725-.052zm1.92-.057l-2.769 4.89 1.128-4.841 1.641-.049zm-.092.612l-1.118 4.718-1.639.151 2.757-4.869zm1.835-.041l-1.103 4.59-1.561.141 2.664-4.731zm2.14-.671l.873.146-1.888 4.018 1.015-4.164zm-1.469 5.1l-1.489.135 2.577-4.603-1.088 4.468zm-1.394-.486l1.099-4.579 1.487-.046-2.586 4.623v.002zm1.748-11.564l1.519.075-2.065 5.921.546-5.996zm.303-7.848l1.537.219-1.795 6.561.258-6.78zm.303-8l1.55.368-1.814 6.565.262-6.933h.002zm.309-8.155l1.564.52-1.832 6.565.268-7.087v.002zm.315-8.316l1.578.684-1.852 6.563.274-7.247zm.322-8.48l1.59.85-1.871 6.559.281-7.409zm.327-8.651l1.603 1.024-1.89 6.55.287-7.576v.002zm.335-8.827l1.616 1.21-1.91 6.539.294-7.746v-.003zm.34-9.007l1.631 1.398-1.932 6.525.301-7.923zm.35-9.195l1.642 1.597-1.95 6.506.308-8.103zm.355-9.388l1.655 1.804-1.969 6.485.314-8.289zm-.059-9.197l2.086 1.645-2.023 6.566-.065-8.213.002.002zm-.929-8.439l2.956 1.013-2.088 6.67-.868-7.68v-.003zm.008-.23l2.109-6.604.847 7.617-2.956-1.013zm.083-13.929l3.52.024-1.461 6.362-2.061-6.384.002-.002zm-3.497-4.23l4.988-1.453-1.689 5.349-3.301-3.895h.002zm-2.985 6.046l-4.453-2.573 7.027-3.306-2.574 5.879zm-7.583 3.584l-5.101-1.711 7.759-4.204-2.658 5.915zm-8.36 4.518l-5.305-1.331 8.046-4.609-2.741 5.94zm-8.669 4.94l-5.133-1.403 7.956-4.558-2.82 5.96h-.003zm-8.575 4.885l-4.965-1.473 7.866-4.505-2.9 5.98v-.002zM88.152 34.8l-4.802-1.542 7.779-4.456-2.98 5.998h.003zm-8.39 4.782l-4.64-1.61 7.693-4.406-3.053 6.016zm-8.303 4.73l-4.481-1.674 7.609-4.358-3.127 6.034v-.002zm-8.213 4.68l-4.326-1.738 7.525-4.31-3.198 6.048zm-8.127 4.63l-4.175-1.801 7.443-4.264-3.268 6.065zm-8.043 4.582l-4.024-1.863 7.362-4.217-3.338 6.08zm-7.955 4.532l-3.882-1.922 7.283-4.172-3.404 6.092.003.002zm-7.875 4.486l-3.737-1.979 7.204-4.125-3.467 6.104zm-7.793 4.44l-3.595-2.037 7.125-4.081-3.53 6.118zm-6.964 4.192l-3.462-2.084 6.345-3.855-2.883 5.94zm-5.379 3.733L7.768 77.47l4.859-3.434-1.517 5.55zm-.107.194l-2.756 2.823-.54-4.911 3.298 2.087h-.002zm-2.98 2.801l-2.738-2.34 2.206-2.505.535 4.845h-.003zm3.079-2.587l.854 5.703-3.626-2.863 2.774-2.84h-.002zm4.036 3.09l.893 5.83-3.76-2.967 2.867-2.863zm4.178 3.198l.931 5.965-3.899-3.08 2.968-2.885zm4.328 3.312l.972 6.104-4.05-3.197 3.078-2.907zm4.482 3.43l1.02 6.247-4.208-3.32 3.186-2.926h.002zm4.647 3.56l1.068 6.396-4.372-3.45 3.302-2.946h.002zm4.823 3.692l1.119 6.554-4.545-3.59 3.426-2.964zm5.007 3.834l1.173 6.717-4.73-3.735 3.557-2.982zm5.206 3.984l1.23 6.886-4.927-3.889 3.697-2.997zm5.41 4.143l1.29 7.066-5.134-4.055 3.844-3.011zm5.63 4.311l1.355 7.252-5.355-4.227 4-3.022v-.003zm5.864 4.489l1.425 7.447-5.59-4.414 4.165-3.033zm6.113 4.681l1.499 7.65-5.84-4.609 4.341-3.041zm6.376 4.882l1.576 7.864-6.104-4.82 4.528-3.044zm6.246 5.425l1.234 6.848-5.543-4.129 4.309-2.719zm4.893 10.724l-4.439-1.979.956-1.469 3.483 3.448zm6.134.687l4.51-3.583-1.87 3.48-2.642.103h.002zm9.289-10.995l-.808 6.294-3.4.552 4.208-6.846zm3.509-.328l-1.207 6.333-2.806.257 4.011-6.59h.002zm2.942-.073l-1.203 6.137-2.645.242 3.848-6.377v-.002zm2.793-.068l-1.198 5.951-2.5.227 3.698-6.178zm2.653-.065l-1.192 5.773-2.364.216 3.556-5.989zm2.524-.06L117 141.45l-2.236.204 3.423-5.807-.002.001zm2.404-.058l-1.177 5.439-2.12.192 3.294-5.633.003.002zm2.291-.054l-1.167 5.284-2.01.184 3.177-5.465v-.003zm2.188-.051l-1.156 5.133-1.907.176 3.063-5.307v-.002zm2.091-.05l-1.142 4.992-1.813.165 2.955-5.157zm2.001-.045l-1.129 4.852-1.723.158 2.854-5.01h-.002zm4.678 4.352l1.875-3.996-.997 4.059-.878-.063zm2.147-5.172l-.881-.147 1.386-5.152-.505 5.297v.002zm-2.628-.118l2.058-5.9-.548 5.852-1.51.046v.002zm.623-6.981l1.789-6.541-.266 6.616-1.523-.077v.002zm.295-7.848l1.808-6.546-.272 6.764-1.537-.22.001.002zm.3-8.002l1.828-6.547-.276 6.916-1.55-.369h-.002zm.307-8.159l1.848-6.546-.283 7.066-1.563-.52h-.002zm.314-8.32l1.866-6.543-.29 7.225-1.578-.684.002.002zm.319-8.488l1.887-6.536-.296 7.385-1.591-.85zm.327-8.66l1.907-6.527-.304 7.55-1.603-1.024zm.334-8.838l1.925-6.512-.309 7.72-1.616-1.208zm.34-9.02l1.946-6.496-.316 7.893-1.63-1.4v.002zm.348-9.212l1.967-6.474-.322 8.072-1.643-1.598h-.002zm.356-9.405l1.987-6.451-.332 8.255-1.655-1.806v.002zm-.067-9.166l2.041-6.52.047 8.168-2.086-1.645-.002-.003zm1.356-15.333l2.227 1.218-1.398 6.221-.827-7.44h-.002zm-.007-.256l1.415-6.17.81 7.386-2.227-1.218.002.002zm-2.206-6.961l1.665-5.277 1.839 5.3-3.504-.023zm-3.442-4.254l2.2-3.518 2.667 2.1-4.867 1.418zm-.294.057l-3.594-1.071 5.784-2.43-2.19 3.501zm-.26.152l-6.823 3.21 3.205-4.288 3.618 1.078zm-15.047 7.638l3.251-4.282 4.227.23-7.478 4.052zm-8.555 4.887l3.301-4.288 4.421-.136-7.722 4.424zm-8.482 4.858l3.364-4.31 4.27-.063-7.634 4.373zm-8.39 4.806l3.426-4.33 4.123.007-7.547 4.322h-.003zM83.523 32.9l3.485-4.35 3.977.077-7.462 4.273zm-8.216 4.705l3.544-4.37 3.833.144-7.379 4.226h.002zm-8.128 4.656l3.601-4.39 3.694.21-7.295 4.18zm-8.044 4.606l3.656-4.406 3.56.276-7.215 4.132v-.002zm-7.96 4.56l3.71-4.423 3.424.337-7.134 4.086zM43.3 55.94l3.762-4.438 3.293.399-7.055 4.041v-.002zm-7.798 4.466l3.814-4.455 3.164.46-6.978 3.997v-.002zm-7.718 4.422l3.864-4.472 3.036.519-6.9 3.953zm-7.638 4.376l3.911-4.485 2.914.577-6.825 3.908zm-6.893 4.169l3.294-4.336 2.799.635-6.093 3.7zm-5.388 3.76l1.996-4.004 2.694.687-4.692 3.316h.002zm-.343.194l-1.871-.94 3.836-3-1.965 3.94zm-.128.182l-2.13 2.42.277-3.35 1.851.93h.002zm-1.64 3.421l2.304 1.97.156 1.439-2.46-3.409zm6.24 5.077l-.032 1.827-3.23-4.402 3.262 2.575zm4.075 3.217l-.085 1.828-3.31-4.509 3.395 2.68v.001zm4.217 3.33l-.14 1.827-3.394-4.618 3.534 2.79v.001zm4.369 3.449l-.205 1.824-3.48-4.732 3.685 2.908zm4.526 3.576l-.273 1.817-3.566-4.85 3.84 3.03v.003zm4.696 3.706l-.346 1.811-3.66-4.973 4.004 3.162h.002zm4.874 3.848l-.427 1.796-3.753-5.097 4.18 3.299v.002zm5.059 3.995l-.511 1.782-3.851-5.226 4.362 3.444zm5.258 4.151l-.603 1.763-3.954-5.361 4.56 3.598h-.003zm5.47 4.321l-.704 1.738-4.06-5.5 4.763 3.762zm5.693 4.494l-.814 1.71-4.17-5.643 4.984 3.933zm5.93 4.683l-.93 1.675-4.285-5.793 5.214 4.118zm6.181 4.882l-1.057 1.636-4.404-5.947 5.462 4.313v-.002zm6.451 5.094l-1.197 1.589-4.526-6.108 5.723 4.521v-.002zm5.9 4.398l-.96 1.476-4.187-5.309 5.146 3.833zm14.714.38l3.243-.528-5.123 4.021 1.878-3.493h.002zm6.394-.845l-4.903 3.871 2.222-3.626 2.681-.245zm2.946-.269l-4.711 3.736 2.188-3.506 2.523-.23zm2.797-.254l-4.528 3.61 2.152-3.393 2.376-.215v-.002zm2.659-.243l-4.355 3.489 2.115-3.285 2.24-.204zm2.532-.231l-4.192 3.374 2.077-3.182 2.115-.192zm2.414-.22l-4.039 3.266 2.039-3.082 2-.184zm2.303-.21l-3.89 3.159 2.001-2.987 1.889-.172zm2.199-.202l-3.749 3.056 1.96-2.892 1.789-.164zm2.104-.192l-3.616 2.957 1.922-2.803 1.694-.154zm2.013-.184l-3.487 2.864 1.882-2.718 1.605-.146zm1.929-.177l-3.365 2.775 1.843-2.636 1.522-.139zm1.85-.167l-3.249 2.686 1.804-2.557 1.445-.132v.003zm1.776-.161l-3.138 2.602 1.765-2.479 1.373-.125v.002zm1.21.032l-2.437 2.2 1.624-2.258.813.058zm.661-6.781l.508-5.429.883.253-1.391 5.176zm.824-13.101l.891.373-1.136 5.747.245-6.12zm.314-7.82l.899.501-1.149 5.761.252-6.262h-.002zm.32-7.97l.905.634-1.162 5.774.257-6.408zm.326-8.121l.911.771-1.174 5.778.263-6.551v.002zm.332-8.28l.918.919-1.187 5.785.27-6.701-.001-.003zm.338-8.443l.925 1.068-1.198 5.787.275-6.855h-.002zm.345-8.61l.93 1.226-1.211 5.787.281-7.011v-.003zm.353-8.784l.935 1.39-1.223 5.782.288-7.172zm.359-8.962l.941 1.56-1.236 5.778.295-7.338zm.365-9.146l.948 1.739-1.247 5.771.301-7.51h-.002zm.374-9.336l.952 1.926-1.261 5.76.309-7.686zm-.033-9.207l1.369 1.81-1.325 5.981-.044-7.791zm.007-.355l1.338-5.945.031 7.757-1.369-1.81v-.002zm.699-14.719l.863 1.312-.173 4.961-.687-6.273h-.003zm-1.984-6.036l1.975.592-.231 4.434-1.744-5.026zm-.048-.244l.436-2.182L140 4.867l-1.915-.574zm-.202-.12l-2.569-2.021 3.021-.24-.451 2.263-.001-.002zm-5.478-1.318l1.174-.305-2.818 1.185 1.644-.88zm-7.334 6.481l-4.227-.23 7.407-4.023-3.18 4.253zm-8.271 4.486l-4.423.137 7.655-4.398-3.235 4.261h.003zm-8.58 4.915l-4.271.063 7.57-4.349-3.299 4.286zm-8.489 4.862l-4.122-.007 7.484-4.3-3.362 4.307zm-8.399 4.811l-3.977-.075 7.402-4.253-3.425 4.328zm-8.31 4.76l-3.833-.144 7.319-4.204-3.483 4.347h-.003zM74.8 37.88l-3.694-.21 7.238-4.157-3.541 4.366H74.8zm-8.135 4.66l-3.559-.275 7.157-4.112-3.6 4.385.002.002zm-8.05 4.611l-3.423-.336 7.078-4.065-3.654 4.403v-.002zm-7.966 4.562l-3.293-.4 7.001-4.02-3.708 4.42zm-7.883 4.515l-3.165-.46 6.922-3.976-3.76 4.436h.003zm-7.805 4.469l-3.038-.519 6.847-3.934-3.811 4.453h.002zm-7.724 4.424l-2.914-.577 6.773-3.89-3.859 4.467zm-7.645 4.38l-2.794-.633L23.5 65.02l-3.907 4.48zm-6.824 4.141l-2.687-.685 5.98-3.645-3.293 4.33zm-8.35 4.987l.871-1.682-.242 2.911-.63-1.229zm4.053 6.058l-.156-1.448 2.98 4.062-2.824-2.614zm3.704 3.425l.032-1.83 3.29 4.483-3.32-2.653h-.002zm4.013 3.208l.085-1.83 3.374 4.591-3.46-2.763v.002zm4.154 3.318l.14-1.827 3.458 4.706-3.6-2.876.002-.003zm4.298 3.436l.204-1.825 3.546 4.824-3.75-3zm4.452 3.558l.273-1.82 3.64 4.946-3.913-3.126zm4.618 3.689l.346-1.811 3.733 5.07-4.08-3.259zm4.786 3.825l.426-1.799 3.832 5.201-4.258-3.402zm4.97 3.972l.51-1.782 3.935 5.334-4.445-3.552zm5.161 4.123l.603-1.762 4.04 5.474-4.645-3.712h.002zm5.364 4.288l.703-1.738 4.15 5.618-4.855-3.88h.002zm5.581 4.459l.813-1.709 4.265 5.767-5.078-4.058zm5.808 4.642l.93-1.674 4.385 5.92-5.315-4.246zm6.054 4.836l1.06-1.636 4.51 6.085-5.568-4.449h-.002zm6.315 5.039l1.195-1.587 4.247 5.387-5.444-3.8h.002zm24.888 2.792l-2.226 3.634-2.853.354 5.079-3.988zm3.092-.269l-2.191 3.512-2.683.335 4.874-3.847zm2.931-.255l-2.156 3.399-2.524.315 4.68-3.714zm2.783-.242l-2.119 3.292-2.38.294 4.499-3.586zm2.644-.232l-2.081 3.189-2.247.279 4.328-3.468zm2.517-.219l-2.043 3.089-2.122.264 4.163-3.353h.002zm2.399-.207l-2.004 2.992-2.004.249 4.008-3.241zm2.29-.197l-1.965 2.899-1.896.237 3.861-3.136zm2.184-.188l-1.926 2.811-1.796.224 3.722-3.032v-.003zm2.09-.177l-1.887 2.724-1.702.212 3.589-2.936zm1.999-.17l-1.847 2.642-1.612.2 3.459-2.842zm1.915-.163l-1.808 2.561-1.53.19 3.338-2.753v.002zm1.835-.156l-1.769 2.484-1.45.181 3.222-2.665h-.003zm1.761-.148l-1.731 2.408-1.378.172 3.109-2.58zm.976.271l-1.326 1.791-.914.232 2.24-2.023zm1.68-13.16l1.131-5.723-.247 5.975-.884-.252zm.306-7.683l1.146-5.741-.254 6.114-.892-.373zm.314-7.831l1.158-5.751-.259 6.252-.899-.501zm.319-7.984l1.171-5.76-.266 6.395-.905-.635zm.325-8.138l1.182-5.767-.271 6.539-.911-.774v.002zm.331-8.299l1.195-5.77-.277 6.689-.918-.919zm.339-8.465l1.208-5.772-.284 6.84-.924-1.068zm.346-8.633l1.221-5.77-.291 6.996-.93-1.226zm.353-8.81l1.232-5.764-.297 7.155-.935-1.391zm.359-8.989l1.246-5.758-.304 7.319-.942-1.56zm.369-9.174l1.257-5.748-.31 7.489-.947-1.741zm.374-9.365l1.271-5.735-.316 7.661-.953-1.926h-.002zm1.514-13.829l.032.316-.029.822-.006-1.14.003.002zm-.009-2.206l.029-.832.004 1.152-.033-.322v.002zm-.904-8.268l.2-3.821.651 5.116-.851-1.297v.002zm-4.314-8.207l1.119-.44.976.276-2.097.167.002-.003z" fill="#FD971F"/></svg>