<svg width="21" height="21" viewBox="0 0 21 21" fill="none" xmlns="http://www.w3.org/2000/svg">
<g clip-path="url(#clip0_306_833)">
<path d="M19.8762 16.8566L11.4842 2.32064C11.3435 2.07638 11.141 1.8735 10.8969 1.73243C10.6529 1.59136 10.376 1.51709 10.0942 1.51709C9.81229 1.51709 9.5354 1.59136 9.29138 1.73243C9.04735 1.8735 8.84481 2.07638 8.70415 2.32064L0.312153 16.8566C0.171086 17.1006 0.0967673 17.3774 0.0966798 17.6591C0.0965922 17.9409 0.170738 18.2178 0.311654 18.4618C0.45257 18.7058 0.655283 18.9084 0.899387 19.0492C1.14349 19.1899 1.42037 19.2639 1.70215 19.2636H18.4872C18.7689 19.2639 19.0458 19.1899 19.2899 19.0492C19.534 18.9084 19.7367 18.7058 19.8777 18.4618C20.0186 18.2178 20.0927 17.9409 20.0926 17.6591C20.0925 17.3774 20.0182 17.1006 19.8772 16.8566H19.8762ZM18.4862 17.7936H1.70215C1.67852 17.7939 1.65522 17.7879 1.63468 17.7763C1.61413 17.7646 1.59707 17.7476 1.58526 17.7271C1.57344 17.7067 1.56729 17.6834 1.56745 17.6598C1.56761 17.6361 1.57406 17.613 1.58615 17.5926L9.97815 3.05464C10.0302 2.96464 10.1582 2.96464 10.2102 3.05464L18.6032 17.5916C18.615 17.6119 18.6212 17.635 18.6213 17.6585C18.6213 17.682 18.6151 17.7051 18.6033 17.7254C18.5915 17.7457 18.5746 17.7625 18.5542 17.7742C18.5338 17.7858 18.5106 17.7918 18.4872 17.7916L18.4862 17.7936Z" fill="#4B94D6"/>
<path d="M10.0934 7.61664C9.89846 7.61664 9.71151 7.69408 9.57367 7.83191C9.43583 7.96975 9.3584 8.1567 9.3584 8.35164V12.5666C9.3584 12.7616 9.43583 12.9485 9.57367 13.0864C9.71151 13.2242 9.89846 13.3016 10.0934 13.3016C10.2883 13.3016 10.4753 13.2242 10.6131 13.0864C10.751 12.9485 10.8284 12.7616 10.8284 12.5666V8.35064C10.8281 8.15588 10.7506 7.96918 10.6128 7.83156C10.475 7.69394 10.2882 7.61664 10.0934 7.61664ZM10.0934 14.2566C9.89846 14.2566 9.71151 14.3341 9.57367 14.4719C9.43583 14.6098 9.3584 14.7967 9.3584 14.9916V15.4316C9.3584 15.6266 9.43583 15.8135 9.57367 15.9514C9.71151 16.0892 9.89846 16.1666 10.0934 16.1666C10.2883 16.1666 10.4753 16.0892 10.6131 15.9514C10.751 15.8135 10.8284 15.6266 10.8284 15.4316V14.9916C10.8284 14.7967 10.751 14.6098 10.6131 14.4719C10.4753 14.3341 10.2883 14.2566 10.0934 14.2566Z" fill="#4B94D6"/>
</g>
<defs>
<clipPath id="clip0_306_833">
<rect width="20" height="20" fill="white" transform="translate(0.09375 0.390625)"/>
</clipPath>
</defs>
</svg>
