<svg width="49" height="49" viewBox="0 0 49 49" fill="none" xmlns="http://www.w3.org/2000/svg">
<g clip-path="url(#clip0_306_885)">
<path d="M48.1562 32.6715C48.1562 26.7155 44.7392 21.3995 39.6212 18.8135C39.4622 30.2335 30.2032 39.4935 18.7822 39.6535C21.3682 44.7695 26.6842 48.1875 32.6402 48.1875C35.4179 48.1908 38.1451 47.4457 40.5352 46.0305L48.0882 48.1205L45.9992 40.5665C47.4144 38.1764 48.1595 35.4491 48.1562 32.6715Z" fill="url(#paint0_linear_306_885)"/>
<path d="M36.8122 18.5155C36.8122 8.4095 28.5902 0.1875 18.4842 0.1875C8.37825 0.1875 0.15625 8.4095 0.15625 18.5155C0.15625 21.8095 1.03325 25.0155 2.69825 27.8315L0.22325 36.7775L9.16825 34.3035C11.9895 35.9707 15.2072 36.8483 18.4842 36.8445C28.5902 36.8445 36.8122 28.6225 36.8122 18.5165V18.5155ZM15.6722 14.2505H12.8593C12.8606 12.759 13.4536 11.3289 14.5082 10.2741C15.5628 9.21937 16.9927 8.62609 18.4842 8.6245C19.9758 8.62609 21.4057 9.21937 22.4603 10.2741C23.5149 11.3289 24.1079 12.759 24.1092 14.2505C24.1081 15.0312 23.9449 15.8032 23.6299 16.5176C23.3149 17.232 22.855 17.8731 22.2792 18.4005L19.8902 20.5885V22.7815H17.0783V19.3495L20.3813 16.3265C20.9713 15.7865 21.2973 15.0485 21.2973 14.2505C21.2965 13.5047 20.9998 12.7897 20.4725 12.2623C19.9451 11.7349 19.2301 11.4383 18.4842 11.4375C17.7386 11.4386 17.0238 11.7353 16.4967 12.2626C15.9695 12.79 15.673 13.5049 15.6722 14.2505ZM17.0783 25.5935H19.8902V28.4065H17.0783V25.5935Z" fill="url(#paint1_linear_306_885)"/>
</g>
<defs>
<linearGradient id="paint0_linear_306_885" x1="18.7822" y1="31.6175" x2="48.1562" y2="31.6175" gradientUnits="userSpaceOnUse">
<stop stop-color="#145896"/>
<stop offset="1" stop-color="#377EBF"/>
</linearGradient>
<linearGradient id="paint1_linear_306_885" x1="0.15625" y1="16.1655" x2="36.8122" y2="16.1655" gradientUnits="userSpaceOnUse">
<stop stop-color="#145896"/>
<stop offset="1" stop-color="#377EBF"/>
</linearGradient>
<clipPath id="clip0_306_885">
<rect width="48" height="48" fill="white" transform="translate(0.15625 0.1875)"/>
</clipPath>
</defs>
</svg>
