<svg width="49" height="49" viewBox="0 0 49 49" fill="none" xmlns="http://www.w3.org/2000/svg">
<g clip-path="url(#clip0_306_875)">
<path d="M30.2754 0.795492L26.3574 4.40249C25.9286 4.79524 25.3683 5.01309 24.7869 5.01309C24.2054 5.01309 23.6451 4.79524 23.2164 4.40249L19.2604 0.834492C18.0584 -0.251508 16.1584 0.174492 15.5374 1.64849L12.3184 9.40549H37.2164L33.9974 1.61049C33.3774 0.136492 31.4784 -0.289508 30.2754 0.795492Z" fill="url(#paint0_linear_306_875)"/>
<path d="M4.9507 16.5025C3.8257 17.0455 4.2527 18.7125 5.4547 18.7125H44.0417C45.2817 18.7125 45.6707 17.0455 44.5847 16.5025L39.8527 14.0585H9.6817L4.9507 16.5025Z" fill="url(#paint1_linear_306_875)"/>
<path d="M0.994304 35.1565L3.0493 46.3265C3.2433 47.4505 4.2133 48.1875 5.3373 48.1875H44.2363C45.3603 48.1875 46.3303 47.4115 46.5243 46.3265L48.5793 35.1565C48.675 34.6247 48.5846 34.0761 48.3235 33.603C48.0623 33.1298 47.6463 32.761 47.1453 32.5585C42.1803 30.6185 36.9843 29.5725 32.8733 28.9515C31.8263 28.7965 30.8173 29.3785 30.4293 30.3085L26.5123 39.1895C25.8143 40.7405 23.6043 40.7405 22.9443 39.1505L19.1443 30.3475C18.7173 29.3775 17.7083 28.7965 16.6613 28.9505C12.5513 29.5325 7.3543 30.6185 2.4283 32.5575C1.91639 32.7458 1.48954 33.1123 1.22613 33.5899C0.962709 34.0675 0.880399 34.6231 0.994304 35.1565Z" fill="url(#paint2_linear_306_875)"/>
</g>
<defs>
<linearGradient id="paint0_linear_306_875" x1="12.3184" y1="4.20549" x2="37.2164" y2="4.20549" gradientUnits="userSpaceOnUse">
<stop stop-color="#145896"/>
<stop offset="1" stop-color="#377EBF"/>
</linearGradient>
<linearGradient id="paint1_linear_306_875" x1="4.2957" y1="16.0875" x2="45.2207" y2="16.0875" gradientUnits="userSpaceOnUse">
<stop stop-color="#145896"/>
<stop offset="1" stop-color="#377EBF"/>
</linearGradient>
<linearGradient id="paint2_linear_306_875" x1="0.945304" y1="37.3225" x2="48.6163" y2="37.3225" gradientUnits="userSpaceOnUse">
<stop stop-color="#145896"/>
<stop offset="1" stop-color="#377EBF"/>
</linearGradient>
<clipPath id="clip0_306_875">
<rect width="48" height="48" fill="white" transform="translate(0.78125 0.1875)"/>
</clipPath>
</defs>
</svg>
