<svg width="49" height="49" viewBox="0 0 49 49" fill="none" xmlns="http://www.w3.org/2000/svg">
<g clip-path="url(#clip0_306_867)">
<path d="M48.9688 24.2155L44.8607 18.8635L45.7798 12.2155L39.5098 9.72852L37.0228 3.45851L30.3738 4.37752L24.9688 0.215515L19.6178 4.32352L12.9688 3.40352L10.4827 9.67552L4.21275 12.1615L5.13075 18.8115L0.96875 24.2145L5.07675 29.5645L4.15775 36.2145L10.4277 38.7005L12.9148 44.9705L19.5637 44.0515L24.9137 48.1595L30.2658 44.0515L36.9147 44.9715L39.4007 38.7015L45.6707 36.1605L44.7528 29.5105L48.9688 24.2155ZM23.0228 31.9975L15.0227 25.4035L16.7528 23.2955L22.6987 28.1595L32.8608 16.4295L34.9147 18.2145L23.0228 31.9975Z" fill="url(#paint0_linear_306_867)"/>
</g>
<defs>
<linearGradient id="paint0_linear_306_867" x1="0.96875" y1="21.1145" x2="48.9688" y2="21.1145" gradientUnits="userSpaceOnUse">
<stop stop-color="#145896"/>
<stop offset="1" stop-color="#377EBF"/>
</linearGradient>
<clipPath id="clip0_306_867">
<rect width="48" height="48" fill="white" transform="translate(0.96875 0.1875)"/>
</clipPath>
</defs>
</svg>
