<svg width="33" height="32" viewBox="0 0 33 32" fill="none" xmlns="http://www.w3.org/2000/svg">
<g clip-path="url(#clip0_306_969)">
<path d="M15.8555 0C20.2125 0.027 23.9305 1.459 27.0345 4.385C30.1295 7.31 31.8185 10.939 32.0235 15.199C32.2365 19.753 30.7785 23.737 27.6215 27.036C24.5175 30.282 20.6845 31.954 16.1845 31.999C11.9945 32.043 8.32247 30.639 5.24447 27.801C1.61647 24.448 -0.126531 20.251 0.0604691 15.315C0.210469 11.179 1.80347 7.622 4.72947 4.705C7.81547 1.619 11.5865 0.08 15.8555 0Z" fill="#2B76BA"/>
<path d="M11.1234 18.16C10.2524 17.894 9.37139 17.618 8.50039 17.351L7.21939 16.951C7.06124 16.9069 6.91106 16.838 6.77439 16.747C6.52539 16.56 6.50739 16.329 6.72139 16.097C6.86339 15.937 7.04139 15.831 7.23739 15.75L8.78439 15.137C12.3424 13.767 15.8994 12.389 19.4654 11.019L22.8454 9.71202C22.9956 9.64404 23.1619 9.61945 23.3254 9.64102C23.6634 9.69402 23.9214 9.97002 23.9574 10.325C23.9744 10.521 23.9664 10.717 23.9304 10.913C23.4944 12.958 23.0584 15.013 22.6234 17.058C22.2674 18.748 21.9034 20.438 21.5464 22.136L21.3064 23.283C21.2741 23.4689 21.2141 23.6489 21.1284 23.817C20.9514 24.147 20.6664 24.271 20.3014 24.199C20.0848 24.1535 19.8814 24.0594 19.7064 23.924C18.4784 23.017 17.2514 22.101 16.0154 21.194C15.9614 21.149 15.8994 21.114 15.8454 21.078C15.6324 21.015 15.4814 20.855 15.3124 20.731C14.7254 20.304 14.1384 19.859 13.5524 19.432C13.5074 19.397 13.4624 19.362 13.4274 19.317C13.3734 19.227 13.4274 19.175 13.4804 19.121C14.2804 18.41 15.0724 17.681 15.8724 16.969C16.4504 16.444 17.0374 15.919 17.6164 15.395C18.1944 14.87 18.7724 14.355 19.3504 13.838C19.8034 13.429 20.2574 13.029 20.7024 12.62L20.8084 12.513C20.8354 12.478 20.8714 12.443 20.8534 12.398C20.8354 12.344 20.7824 12.344 20.7374 12.344C20.5774 12.326 20.4444 12.389 20.3104 12.469C19.8214 12.762 19.3504 13.074 18.8704 13.376C17.4114 14.292 15.9434 15.216 14.4854 16.133C13.4783 16.7641 12.4733 17.3984 11.4704 18.036C11.3544 18.098 11.2744 18.213 11.1234 18.16Z" fill="#FCFDFE"/>
<path d="M11.124 18.16C11.364 18.063 11.569 17.903 11.791 17.77C12.431 17.37 13.071 16.969 13.712 16.56C14.166 16.275 14.61 15.982 15.064 15.697C15.811 15.226 16.567 14.754 17.323 14.283C17.848 13.953 18.373 13.616 18.906 13.278L20.293 12.398C20.4378 12.3028 20.6103 12.2588 20.783 12.273C20.836 12.282 20.889 12.282 20.907 12.335C20.934 12.389 20.916 12.442 20.872 12.495C20.765 12.602 20.667 12.718 20.542 12.815C20.32 12.993 20.124 13.198 19.911 13.385C19.564 13.678 19.244 13.998 18.897 14.292C18.755 14.416 18.621 14.55 18.479 14.674C18.275 14.844 18.079 15.048 17.883 15.226C17.581 15.501 17.27 15.768 16.967 16.035C16.834 16.16 16.691 16.284 16.567 16.409C16.237 16.719 15.891 17.013 15.562 17.325C15.162 17.689 14.752 18.045 14.362 18.419C14.077 18.685 13.774 18.934 13.481 19.192C13.437 19.228 13.437 19.263 13.463 19.308C13.401 20.313 13.33 21.318 13.267 22.323C13.25 22.59 13.214 22.847 13.223 23.114C13.223 23.194 13.223 23.265 13.161 23.328C13.107 23.346 13.045 23.346 12.991 23.346C12.831 23.336 12.716 23.256 12.671 23.106C12.627 22.946 12.574 22.794 12.529 22.634C12.094 21.202 11.658 19.761 11.222 18.33C11.1846 18.2762 11.1518 18.2193 11.124 18.16Z" fill="#CCD9E9"/>
<path d="M13.1336 23.319C13.1066 22.972 13.1696 22.625 13.1786 22.287C13.1956 21.914 13.2316 21.54 13.2486 21.167L13.3286 20.028C13.3386 19.833 13.3556 19.637 13.3556 19.45C13.3556 19.388 13.3736 19.343 13.4356 19.308C14.1556 19.842 14.8766 20.366 15.5886 20.9C15.6686 20.962 15.7576 21.007 15.8196 21.087C15.1526 21.736 14.4766 22.385 13.8096 23.034C13.6316 23.212 13.4186 23.354 13.1336 23.319Z" fill="#B1C8DB"/>
</g>
<defs>
<clipPath id="clip0_306_969">
<rect width="32" height="32" fill="white" transform="translate(0.046875)"/>
</clipPath>
</defs>
</svg>
