<svg width="38" height="34" viewBox="0 0 38 34" fill="none" xmlns="http://www.w3.org/2000/svg">
<g clip-path="url(#clip0_105_2204)">
<path d="M33.8411 8.52539H3.22535C2.49791 8.52539 1.9082 9.12909 1.9082 9.87378V32.629C1.9082 33.3737 2.49791 33.9774 3.22535 33.9774H33.8411C34.5685 33.9774 35.1582 33.3737 35.1582 32.629V9.87378C35.1582 9.12909 34.5685 8.52539 33.8411 8.52539Z" fill="#4989F5"/>
<path d="M33.4577 8.33398H3.57381C2.64809 8.33398 1.92773 15.6683 1.92773 16.6159L18.2931 33.9772H33.4577C34.3863 33.9746 35.1384 33.2047 35.1409 32.2541V10.0568C35.1382 9.10631 34.3862 8.33658 33.4577 8.33398Z" fill="url(#paint0_linear_105_2204)"/>
<path d="M9.50195 12.7878H19.002V0.0234375H10.9245L9.50195 12.7878Z" fill="#3C4BA6"/>
<path d="M28.502 12.7878H19.002V0.0234375H27.0795L28.502 12.7878ZM35.1598 2.44309L35.1716 2.4866C35.1687 2.47124 35.163 2.45698 35.1598 2.44309Z" fill="#7BABF7"/>
<path d="M35.1703 2.48611L35.1585 2.4426C34.8573 1.0307 33.6366 0.0238633 32.2249 0.0229492H27.0781L28.4996 12.7877H37.9996L35.1703 2.48611Z" fill="#3F51B5"/>
<path d="M2.84415 2.44287L2.83203 2.48638C2.83497 2.47102 2.84085 2.45676 2.84415 2.44287Z" fill="#7BABF7"/>
<path d="M2.83107 2.48611L2.84286 2.4426C3.14404 1.0307 4.36475 0.0238633 5.77643 0.0229492H10.9236L9.5 12.7877H0L2.83107 2.48611Z" fill="#7BABF7"/>
<path fill-rule="evenodd" clip-rule="evenodd" d="M9.51808 12.7847C9.51808 15.4687 7.39262 17.6446 4.77076 17.6446C2.1489 17.6446 0.0234375 15.4687 0.0234375 12.7847H9.51808Z" fill="#709BE0"/>
<path fill-rule="evenodd" clip-rule="evenodd" d="M19.0122 12.7847C19.0122 15.4687 16.8868 17.6446 14.2649 17.6446C11.643 17.6446 9.51758 15.4687 9.51758 12.7847H19.0122Z" fill="#3C4BA6"/>
<path fill-rule="evenodd" clip-rule="evenodd" d="M28.5064 12.7847C28.5064 15.4687 26.3809 17.6446 23.759 17.6446C21.1372 17.6446 19.0117 15.4687 19.0117 12.7847H28.5064Z" fill="#709BE0"/>
<path fill-rule="evenodd" clip-rule="evenodd" d="M38.0005 12.7847C38.0005 15.4687 35.875 17.6446 33.2532 17.6446C30.6313 17.6446 28.5059 15.4687 28.5059 12.7847H38.0005Z" fill="#3C4BA6"/>
<path d="M33.2523 25.9513C33.2355 25.7198 33.2076 25.5085 33.168 25.2387H27.9894C27.9894 25.9801 27.9894 26.7892 27.9865 27.5311H30.9866C30.9228 27.8768 30.793 28.2062 30.6045 28.5004C30.4161 28.7946 30.1727 29.0478 29.8883 29.2455C29.8883 29.2455 29.8883 29.2327 29.8862 29.2323C29.519 29.4791 29.1053 29.6444 28.6719 29.7175C28.2374 29.7989 27.7918 29.7969 27.358 29.7116C26.9174 29.6183 26.5004 29.4332 26.1326 29.1679C25.5898 28.7739 25.1712 28.2262 24.928 27.5921C24.9094 27.5428 24.8923 27.4931 24.8748 27.4426V27.4371L24.8794 27.4335C24.6434 26.7243 24.6428 25.9552 24.8776 25.2456C25.0431 24.7478 25.3153 24.2943 25.6744 23.9184C26.5168 23.0264 27.7754 22.6908 28.9358 23.049C29.3808 23.1887 29.7874 23.4337 30.1226 23.7641L31.1348 22.728C31.3133 22.5433 31.4987 22.3646 31.6705 22.1737C31.1573 21.6836 30.5549 21.3017 29.8976 21.0498C28.7015 20.6058 27.393 20.594 26.1894 21.0165C26.1475 21.0312 26.1058 21.0464 26.0644 21.0622C24.766 21.5619 23.6978 22.542 23.0708 23.8087C22.8494 24.2571 22.6882 24.734 22.5915 25.2266C22.0183 28.1432 23.7567 31.0141 26.5633 31.7858C27.4808 32.0373 28.4562 32.0311 29.3808 31.8161C30.2209 31.6219 30.9977 31.2087 31.6358 30.6165C32.3015 29.9895 32.7787 29.1541 33.0287 28.2667C33.2377 27.5148 33.3134 26.7305 33.2523 25.9513Z" fill="white"/>
</g>
<defs>
<linearGradient id="paint0_linear_105_2204" x1="1.92773" y1="11915.4" x2="35340.4" y2="11915.4" gradientUnits="userSpaceOnUse">
<stop offset="0.03" stop-color="#4079D8"/>
<stop offset="1" stop-color="#4989F5"/>
</linearGradient>
<clipPath id="clip0_105_2204">
<rect width="38" height="34" fill="white"/>
</clipPath>
</defs>
</svg>
