<svg width="38" height="38" viewBox="0 0 38 38" fill="none" xmlns="http://www.w3.org/2000/svg">
<g clip-path="url(#clip0_105_2182)">
<path d="M19 38C29.4934 38 38 29.4934 38 19C38 8.5066 29.4934 0 19 0C8.5066 0 0 8.5066 0 19C0 29.4934 8.5066 38 19 38Z" fill="#34AADF"/>
<path d="M8.22132 18.8779C8.22132 18.8779 17.6941 14.9345 20.9794 13.546C22.2388 12.9906 26.5097 11.2133 26.5097 11.2133C26.5097 11.2133 28.481 10.4357 28.3167 12.3241C28.2619 13.1017 27.8238 15.8231 27.3858 18.7668C26.7287 22.9324 26.0169 27.4867 26.0169 27.4867C26.0169 27.4867 25.9074 28.7642 24.9766 28.9863C24.0457 29.2085 22.5125 28.2088 22.2388 27.9866C22.0197 27.82 18.1321 25.3206 16.7084 24.0987C16.3251 23.7655 15.8871 23.099 16.7632 22.3214C18.7344 20.4886 21.0889 18.2114 22.5125 16.7674C23.1696 16.1009 23.8266 14.5457 21.0889 16.4341C17.2013 19.1556 13.3684 21.7105 13.3684 21.7105C13.3684 21.7105 12.4922 22.2659 10.8496 21.766C9.20686 21.2662 7.29041 20.5997 7.29041 20.5997C7.29041 20.5997 5.97635 19.7666 8.22132 18.8779Z" fill="white"/>
</g>
<defs>
<clipPath id="clip0_105_2182">
<rect width="38" height="38" fill="white"/>
</clipPath>
</defs>
</svg>
