<svg width="27" height="27" viewBox="0 0 27 27" fill="none" xmlns="http://www.w3.org/2000/svg">
<path d="M19.3241 9.74652C21.0604 10.9921 23.1874 11.725 25.4847 11.725V7.28856C25.0499 7.28865 24.6162 7.24315 24.1909 7.15272V10.6448C21.8938 10.6448 19.7671 9.91193 18.0303 8.66645V17.7199C18.0303 22.2488 14.3719 25.92 9.85933 25.92C8.17557 25.92 6.61058 25.4092 5.31055 24.5331C6.79432 26.0556 8.86356 27.0001 11.1528 27.0001C15.6657 27.0001 19.3243 23.3289 19.3243 18.7997V9.74652H19.3241ZM20.9201 5.27074C20.0328 4.29788 19.4502 3.04063 19.3241 1.65069V1.08008H18.0981C18.4067 2.84669 19.4593 4.35598 20.9201 5.27074ZM8.16477 21.0577C7.66901 20.4053 7.4011 19.6073 7.4023 18.7868C7.4023 16.7154 9.07563 15.0359 11.1401 15.0359C11.5248 15.0358 11.9072 15.0949 12.2739 15.2117V10.6761C11.8454 10.6172 11.413 10.5922 10.9807 10.6013V14.1316C10.6138 14.0148 10.2311 13.9555 9.84632 13.9559C7.78188 13.9559 6.10864 15.6352 6.10864 17.7069C6.10864 19.1717 6.94503 20.4399 8.16477 21.0577Z" fill="#FF004F"/>
<path d="M18.0291 8.66636C19.7658 9.91183 21.8926 10.6447 24.1897 10.6447V7.15262C22.9074 6.87853 21.7723 6.20608 20.9189 5.27074C19.458 4.35588 18.4054 2.8466 18.0968 1.08008H14.8764V18.7996C14.8691 20.8653 13.1987 22.5379 11.1387 22.5379C9.92472 22.5379 8.84627 21.9572 8.16326 21.0577C6.9436 20.4399 6.10721 19.1716 6.10721 17.707C6.10721 15.6355 7.78045 13.956 9.84489 13.956C10.2404 13.956 10.6217 14.0178 10.9793 14.1317V10.6014C6.54594 10.6933 2.98047 14.3287 2.98047 18.7997C2.98047 21.0315 3.86835 23.0548 5.3094 24.5331C6.60943 25.4092 8.17442 25.9201 9.85818 25.9201C14.3709 25.9201 18.0292 22.2487 18.0292 17.7199V8.66636H18.0291Z" fill="#181818"/>
<path d="M24.1904 7.15253V6.2083C23.0341 6.21006 21.9006 5.88509 20.9196 5.27055C21.788 6.2247 22.9315 6.8826 24.1904 7.15253ZM18.0975 1.07998C18.0681 0.91115 18.0455 0.741207 18.0298 0.570616V0H13.5833V17.7197C13.5762 19.7851 11.9058 21.4578 9.84559 21.4578C9.24075 21.4578 8.66968 21.3137 8.16395 21.0576C8.84696 21.9571 9.92542 22.5377 11.1393 22.5377C13.1992 22.5377 14.8699 20.8653 14.8771 18.7996V1.07998H18.0975ZM10.9802 10.6013V9.59613C10.6086 9.54516 10.234 9.51959 9.85897 9.51978C5.3459 9.51968 1.6875 13.1911 1.6875 17.7197C1.6875 20.5588 3.12532 23.061 5.31019 24.5329C3.86914 23.0546 2.98126 21.0312 2.98126 18.7995C2.98126 14.3286 6.54664 10.6933 10.9802 10.6013Z" fill="#00F2EA"/>
</svg>
