<svg width="70" height="70" viewBox="0 0 70 70" fill="none" xmlns="http://www.w3.org/2000/svg">
<path d="M31.0835 44.2383H26.2764L29.2808 25.7747H34.0883L31.0835 44.2383ZM22.2325 25.7747L17.6497 38.4741L17.1074 35.7395L17.1079 35.7405L15.4904 27.4372C15.4904 27.4372 15.2948 25.7747 13.2101 25.7747H5.63382L5.54492 26.0874C5.54492 26.0874 7.86176 26.5694 10.5732 28.1978L14.7495 44.2388H19.7581L27.406 25.7747H22.2325ZM60.0422 44.2383H64.4561L60.6077 25.7742H56.7435C54.9591 25.7742 54.5245 27.1502 54.5245 27.1502L47.3552 44.2383H52.3662L53.3683 41.4958H59.4792L60.0422 44.2383ZM54.7527 37.7071L57.2784 30.7976L58.6993 37.7071H54.7527ZM47.731 30.2148L48.417 26.2499C48.417 26.2499 46.3002 25.4448 44.0935 25.4448C41.708 25.4448 36.0431 26.4874 36.0431 31.5572C36.0431 36.3272 42.6919 36.3865 42.6919 38.892C42.6919 41.3975 36.7281 40.9485 34.76 39.3686L34.0453 43.5143C34.0453 43.5143 36.1918 44.5569 39.4712 44.5569C42.7516 44.5569 47.7004 42.8584 47.7004 38.2356C47.7004 33.435 40.9919 32.988 40.9919 30.9008C40.9924 28.8132 45.674 29.0813 47.731 30.2148Z" fill="#2566AF"/>
<path d="M17.1079 35.7396L15.4904 27.4364C15.4904 27.4364 15.2948 25.7739 13.2101 25.7739H5.63382L5.54492 26.0866C5.54492 26.0866 9.18637 26.8412 12.6792 29.6687C16.0188 32.3713 17.1079 35.7396 17.1079 35.7396Z" fill="#E6A540"/>
</svg>
