<svg width="49" height="49" viewBox="0 0 49 49" fill="none" xmlns="http://www.w3.org/2000/svg">
<g clip-path="url(#clip0_105_2188)">
<path d="M25.3743 38.0752L17.2761 37.9276C14.6541 37.8761 12.0256 37.9788 9.45496 37.4457C5.54449 36.6493 5.26746 32.7441 4.97757 29.4683C4.57814 24.8631 4.73277 20.1742 5.48655 15.6074C5.91208 13.0449 7.58673 11.5159 10.1765 11.3495C18.9189 10.7456 27.7194 10.8172 36.4425 11.0989C37.3637 11.1248 38.2913 11.2659 39.1997 11.4266C43.6838 12.2102 43.7932 16.6357 44.0839 20.3611C44.3737 24.125 44.2513 27.9082 43.6973 31.6464C43.2528 34.7415 42.4023 37.3371 38.8131 37.5877C34.3162 37.9153 29.9224 38.1791 25.4128 38.0951C25.413 38.0752 25.3871 38.0752 25.3743 38.0752ZM20.6133 30.2392C24.0022 28.2993 27.3263 26.3917 30.6958 24.4649C27.3006 22.525 23.9828 20.6174 20.6133 18.6905V30.2392Z" fill="#FF0000"/>
<g clip-path="url(#clip1_105_2188)">
<path d="M31.0788 3.40272C31.0788 3.27744 31.1804 3.17585 31.3057 3.17585C31.431 3.17585 31.5326 3.27744 31.5326 3.40272C31.5326 3.52801 31.431 3.62959 31.3057 3.62959C31.1804 3.62959 31.0788 3.52801 31.0788 3.40272ZM30.9562 3.40272C30.9562 3.59573 31.1126 3.75218 31.3057 3.75218C31.4987 3.75218 31.6552 3.59573 31.6552 3.40272C31.6552 3.20972 31.4987 3.05327 31.3057 3.05327C31.1126 3.05327 30.9562 3.20972 30.9562 3.40272ZM31.5874 3.03941C31.5874 3.05556 31.5922 3.07135 31.6011 3.08479C31.6101 3.09822 31.6228 3.10869 31.6378 3.11488C31.6527 3.12107 31.6691 3.12269 31.685 3.11955C31.7008 3.1164 31.7154 3.10863 31.7268 3.09721C31.7382 3.0858 31.746 3.07125 31.7492 3.05541C31.7523 3.03957 31.7507 3.02315 31.7445 3.00822C31.7384 2.9933 31.7279 2.98054 31.7145 2.97156C31.701 2.96258 31.6852 2.95778 31.6691 2.95778H31.6691C31.6474 2.95779 31.6266 2.96639 31.6113 2.9817C31.596 2.997 31.5874 3.01776 31.5874 3.03941ZM31.0307 3.95668C30.9643 3.95366 30.9283 3.94261 30.9043 3.93327C30.8725 3.9209 30.8498 3.90617 30.826 3.88236C30.8021 3.85856 30.7874 3.83591 30.7751 3.80414C30.7657 3.78018 30.7547 3.74411 30.7517 3.67776C30.7484 3.60602 30.7477 3.58447 30.7477 3.40273C30.7477 3.22099 30.7484 3.1995 30.7517 3.1277C30.7547 3.06135 30.7658 3.02535 30.7751 3.00132C30.7874 2.96955 30.8022 2.94688 30.826 2.92304C30.8498 2.8992 30.8725 2.88445 30.9043 2.87214C30.9282 2.86279 30.9643 2.85174 31.0307 2.84872C31.1024 2.84542 31.124 2.84477 31.3057 2.84477C31.4874 2.84477 31.509 2.84548 31.5808 2.84872C31.6471 2.85175 31.6832 2.86288 31.7072 2.87214C31.739 2.88445 31.7616 2.89924 31.7855 2.92304C31.8093 2.94684 31.824 2.96955 31.8364 3.00132C31.8457 3.02528 31.8568 3.06135 31.8598 3.1277C31.8631 3.1995 31.8638 3.22099 31.8638 3.40273C31.8638 3.58447 31.8631 3.60596 31.8598 3.67776C31.8568 3.74411 31.8457 3.78017 31.8364 3.80414C31.824 3.83591 31.8093 3.85858 31.7855 3.88236C31.7617 3.90614 31.739 3.9209 31.7072 3.93327C31.6832 3.94261 31.6471 3.95366 31.5808 3.95668C31.509 3.95998 31.4875 3.96064 31.3057 3.96064C31.1239 3.96064 31.1024 3.95998 31.0307 3.95668ZM31.0251 2.72629C30.9526 2.72959 30.9031 2.74108 30.8598 2.7579C30.815 2.77527 30.7771 2.79858 30.7393 2.8364C30.7014 2.87421 30.6781 2.91218 30.6607 2.95695C30.6439 3.00022 30.6324 3.04969 30.6291 3.12214C30.6258 3.19471 30.625 3.21791 30.625 3.40272C30.625 3.58754 30.6258 3.61074 30.6291 3.6833C30.6324 3.75576 30.6439 3.80523 30.6607 3.84849C30.6781 3.89324 30.7014 3.93125 30.7393 3.96905C30.7771 4.00685 30.815 4.03013 30.8598 4.04755C30.9032 4.06437 30.9526 4.07586 31.0251 4.07916C31.0977 4.08246 31.1208 4.08328 31.3057 4.08328C31.4905 4.08328 31.5138 4.08251 31.5863 4.07916C31.6588 4.07586 31.7083 4.06437 31.7516 4.04755C31.7963 4.03013 31.8342 4.00687 31.8721 3.96905C31.91 3.93123 31.9332 3.89324 31.9506 3.84849C31.9675 3.80523 31.979 3.75575 31.9823 3.6833C31.9856 3.61068 31.9863 3.58754 31.9863 3.40272C31.9863 3.21791 31.9856 3.19471 31.9823 3.12214C31.979 3.04969 31.9675 3.00019 31.9506 2.95695C31.9332 2.91221 31.91 2.87427 31.8721 2.8364C31.8343 2.79852 31.7963 2.77527 31.7516 2.7579C31.7083 2.74108 31.6588 2.72953 31.5864 2.72629C31.5138 2.72299 31.4906 2.72217 31.3057 2.72217C31.1209 2.72217 31.0977 2.72294 31.0251 2.72629Z" fill="url(#paint0_radial_105_2188)"/>
<path d="M31.0788 3.40272C31.0788 3.27744 31.1804 3.17585 31.3057 3.17585C31.431 3.17585 31.5326 3.27744 31.5326 3.40272C31.5326 3.52801 31.431 3.62959 31.3057 3.62959C31.1804 3.62959 31.0788 3.52801 31.0788 3.40272ZM30.9562 3.40272C30.9562 3.59573 31.1126 3.75218 31.3057 3.75218C31.4987 3.75218 31.6552 3.59573 31.6552 3.40272C31.6552 3.20972 31.4987 3.05327 31.3057 3.05327C31.1126 3.05327 30.9562 3.20972 30.9562 3.40272ZM31.5874 3.03941C31.5874 3.05556 31.5922 3.07135 31.6011 3.08479C31.6101 3.09822 31.6228 3.10869 31.6378 3.11488C31.6527 3.12107 31.6691 3.12269 31.685 3.11955C31.7008 3.1164 31.7154 3.10863 31.7268 3.09721C31.7382 3.0858 31.746 3.07125 31.7492 3.05541C31.7523 3.03957 31.7507 3.02315 31.7445 3.00822C31.7384 2.9933 31.7279 2.98054 31.7145 2.97156C31.701 2.96258 31.6852 2.95778 31.6691 2.95778H31.6691C31.6474 2.95779 31.6266 2.96639 31.6113 2.9817C31.596 2.997 31.5874 3.01776 31.5874 3.03941ZM31.0307 3.95668C30.9643 3.95366 30.9283 3.94261 30.9043 3.93327C30.8725 3.9209 30.8498 3.90617 30.826 3.88236C30.8021 3.85856 30.7874 3.83591 30.7751 3.80414C30.7657 3.78018 30.7547 3.74411 30.7517 3.67776C30.7484 3.60602 30.7477 3.58447 30.7477 3.40273C30.7477 3.22099 30.7484 3.1995 30.7517 3.1277C30.7547 3.06135 30.7658 3.02535 30.7751 3.00132C30.7874 2.96955 30.8022 2.94688 30.826 2.92304C30.8498 2.8992 30.8725 2.88445 30.9043 2.87214C30.9282 2.86279 30.9643 2.85174 31.0307 2.84872C31.1024 2.84542 31.124 2.84477 31.3057 2.84477C31.4874 2.84477 31.509 2.84548 31.5808 2.84872C31.6471 2.85175 31.6832 2.86288 31.7072 2.87214C31.739 2.88445 31.7616 2.89924 31.7855 2.92304C31.8093 2.94684 31.824 2.96955 31.8364 3.00132C31.8457 3.02528 31.8568 3.06135 31.8598 3.1277C31.8631 3.1995 31.8638 3.22099 31.8638 3.40273C31.8638 3.58447 31.8631 3.60596 31.8598 3.67776C31.8568 3.74411 31.8457 3.78017 31.8364 3.80414C31.824 3.83591 31.8093 3.85858 31.7855 3.88236C31.7617 3.90614 31.739 3.9209 31.7072 3.93327C31.6832 3.94261 31.6471 3.95366 31.5808 3.95668C31.509 3.95998 31.4875 3.96064 31.3057 3.96064C31.1239 3.96064 31.1024 3.95998 31.0307 3.95668ZM31.0251 2.72629C30.9526 2.72959 30.9031 2.74108 30.8598 2.7579C30.815 2.77527 30.7771 2.79858 30.7393 2.8364C30.7014 2.87421 30.6781 2.91218 30.6607 2.95695C30.6439 3.00022 30.6324 3.04969 30.6291 3.12214C30.6258 3.19471 30.625 3.21791 30.625 3.40272C30.625 3.58754 30.6258 3.61074 30.6291 3.6833C30.6324 3.75576 30.6439 3.80523 30.6607 3.84849C30.6781 3.89324 30.7014 3.93125 30.7393 3.96905C30.7771 4.00685 30.815 4.03013 30.8598 4.04755C30.9032 4.06437 30.9526 4.07586 31.0251 4.07916C31.0977 4.08246 31.1208 4.08328 31.3057 4.08328C31.4905 4.08328 31.5138 4.08251 31.5863 4.07916C31.6588 4.07586 31.7083 4.06437 31.7516 4.04755C31.7963 4.03013 31.8342 4.00687 31.8721 3.96905C31.91 3.93123 31.9332 3.89324 31.9506 3.84849C31.9675 3.80523 31.979 3.75575 31.9823 3.6833C31.9856 3.61068 31.9863 3.58754 31.9863 3.40272C31.9863 3.21791 31.9856 3.19471 31.9823 3.12214C31.979 3.04969 31.9675 3.00019 31.9506 2.95695C31.9332 2.91221 31.91 2.87427 31.8721 2.8364C31.8343 2.79852 31.7963 2.77527 31.7516 2.7579C31.7083 2.74108 31.6588 2.72953 31.5864 2.72629C31.5138 2.72299 31.4906 2.72217 31.3057 2.72217C31.1209 2.72217 31.0977 2.72294 31.0251 2.72629Z" fill="url(#paint1_radial_105_2188)"/>
</g>
</g>
<defs>
<radialGradient id="paint0_radial_105_2188" cx="0" cy="0" r="1" gradientUnits="userSpaceOnUse" gradientTransform="translate(30.8059 4.08971) scale(1.77718 1.77682)">
<stop offset="0.09" stop-color="#FA8F21"/>
<stop offset="0.78" stop-color="#D82D7E"/>
</radialGradient>
<radialGradient id="paint1_radial_105_2188" cx="0" cy="0" r="1" gradientUnits="userSpaceOnUse" gradientTransform="translate(31.4506 4.15069) scale(1.40066 1.40038)">
<stop offset="0.64" stop-color="#8C3AAA" stop-opacity="0"/>
<stop offset="1" stop-color="#8C3AAA"/>
</radialGradient>
<clipPath id="clip0_105_2188">
<rect width="49" height="49" fill="white"/>
</clipPath>
<clipPath id="clip1_105_2188">
<rect width="1.36139" height="1.36111" fill="white" transform="translate(30.625 2.72217)"/>
</clipPath>
</defs>
</svg>
