<svg width="312" height="54" fill="none" xmlns="http://www.w3.org/2000/svg"><g clip-path="url(#clip0_1002_11)"><path fill-rule="evenodd" clip-rule="evenodd" d="M4.575 15.643A37.855 37.855 0 005.915 54h6.404c-4.317-5.556-7.087-12.045-7.132-19.726a31.105 31.105 0 012.074-11.33l.98-2.575 2.719.502c9.27 1.7 16.957 7.114 22.421 14.697.097.13.187.264.283.4l.097.135.342.495.045.097.264.393.135.206v.032l.226.347.18.29.193.303c.045.083.097.167.148.244l.194.322.16.283.194.335.174.303.142.25.193.355.142.258.2.38c0 .057.058.115.09.173l.251.496.071.135c.07.155.148.31.226.464v.051l.057-.122.168-.348c.052-.096.097-.187.142-.283.045-.097.11-.213.16-.316.052-.103.098-.18.143-.27.045-.09.07-.135.103-.2l.283-.521.123-.225.116-.213.064-.11a2.21 2.21 0 00.122-.218 5.28 5.28 0 00.187-.322l.2-.341c.058-.084.11-.174.161-.264a6.91 6.91 0 01.22-.354l.192-.316.13-.2.186-.295.2-.31.212-.315.194-.283.174-.258.2-.283.193-.264a39.6 39.6 0 014.561-5.337l-.077-.785-.135-.74-.155-.728-.174-.721-.18-.721-.22-.708-.244-.695-.264-.696-.206-.502a37.256 37.256 0 00-4.22 4.275l-2.578 3.032-2.526-3.032a35.518 35.518 0 00-27.24-12.811c-1.012 0-2.023.045-3.028.128zm65.608 0a36.514 36.514 0 00-3.028-.128 34.715 34.715 0 00-4.252.257l.167.393.58 1.487.528 1.513.47 1.538 1.87-.34.978 2.574a31.105 31.105 0 012.088 11.337c-.07 7.68-2.816 14.163-7.132 19.726h6.404a37.858 37.858 0 001.34-38.357" fill="#DAC48F"/><path fill-rule="evenodd" clip-rule="evenodd" d="M21.404 33.412l-.11-.084-.535-.412-.547-.399-.555-.386-.56-.367-.574-.36-.58-.342-.586-.328-.605-.31-.606-.295-.27-.129a36.718 36.718 0 00-.058 2.066 34.27 34.27 0 003.401 14.93h5.354a30.997 30.997 0 01-3.17-13.584zM37.369 0a35.143 35.143 0 00-14.433 11.105l.915.367 1.07.464 1.05.489 1.038.515 1.024.54.341.194a35.36 35.36 0 017.062-6.728l1.933-1.397 1.933 1.397C47.87 13.114 53.34 22.68 53.34 33.341a30.951 30.951 0 01-3.157 13.655h5.36a34.354 34.354 0 003.39-14.91 34.744 34.744 0 00-5.91-19.313A34.786 34.786 0 0037.37 0z" fill="#DAC48F"/><path d="M93.635 24.064a61.96 61.96 0 003.1.078c.644 0 1.237 0 1.733-.065a6.918 6.918 0 00-.29-.914c-.548-1.455-.857-2.26-.915-2.414l-1.16-2.897-.122-.225c-.052.103-.239.532-.56 1.287-.542 1.288-.929 2.303-1.16 3.045-.117.329-.226.644-.349.972a6.063 6.063 0 00-.219.683 2.037 2.037 0 01-.135.392l.077.058zm-6.062 7.63a.695.695 0 01.315-.104h.599a5.06 5.06 0 001.16-.174c.333-.2.6-.493.767-.843a30.64 30.64 0 001.482-3.676c.264-.753.425-1.21.496-1.371.213-.509.412-1.043.606-1.603l1.198-3.348a487.6 487.6 0 011.34-3.611c.18-.477.393-1.114.644-1.932h.838c.386.758.713 1.543.98 2.35.154.444.405 1.1.753 1.976l1.933 5.247 1.031 2.846c.548 1.616.902 2.613 1.069 2.98a2.2 2.2 0 00.471.734c.151.074.311.126.477.155.277.064.47.122.579.154.278.067.55.157.812.27a.559.559 0 01.052.213.696.696 0 01-.039.18h-5.689a2.64 2.64 0 01-.316 0h-.554a.575.575 0 01-.258-.077c0-.12.02-.24.058-.354a.984.984 0 01.278-.09l1.288-.09c.266 0 .53-.049.78-.142a1.18 1.18 0 00.077-.348 5.535 5.535 0 00-.335-1.19 30.005 30.005 0 01-.4-1.224c-.115-.386-.566-1.648-1.352-3.791a5.027 5.027 0 00-.915-.09h-3.512a7.23 7.23 0 00-.953.064c-.11.25-.18.438-.22.547l-1.108 3.515a18.233 18.233 0 00-.715 2.215c.016.134.055.265.116.386.233.062.47.11.709.142l1.733.148c.097.083.142.148.142.212a.712.712 0 01-.039.193h-.876c-.683 0-1.47-.032-2.371-.103h-2.468c-.148 0-.47 0-.792-.038v-.078a.962.962 0 01.129-.25zm41.512-15.136c.099.661.148 1.328.148 1.996v.54a1.366 1.366 0 01-.264.04 1.145 1.145 0 01-.219 0 4.386 4.386 0 00-1.746-2.273 5.3 5.3 0 00-2.996-.798 5.206 5.206 0 00-1.592.212 6.856 6.856 0 00-2.01 1.088 6.496 6.496 0 00-1.462 1.648 8.06 8.06 0 00-.948 2.33 10.97 10.97 0 00-.354 2.788c-.054 1.545.23 3.083.831 4.507a5.243 5.243 0 002.262 2.523c.893.49 1.893.751 2.912.76h.593a9.099 9.099 0 001.391-.245 6.412 6.412 0 001.534-.643 5.139 5.139 0 001.185-1.024c.4-.464.732-.982.986-1.539l.161-.051c.07.009.136.035.193.077v.393c-.36 1.435-.644 2.414-.786 2.935-.135 0-.302.084-.509.155-1.294.378-2.64.55-3.988.508a12.004 12.004 0 01-3.009-.276 12.326 12.326 0 01-2.203-.882 6.999 6.999 0 01-2.068-1.526 7.202 7.202 0 01-1.444-2.408 9.039 9.039 0 01-.547-3.174c-.018-.962.13-1.92.438-2.832a9.737 9.737 0 011.334-2.46 8.424 8.424 0 012.132-2.066 7.967 7.967 0 012.732-1.172 15.367 15.367 0 012.996-.225c.9-.009 1.797.115 2.661.367a5.008 5.008 0 011.669.727m10.579 1.159l.528-1.932c.006-.171.053-.339.135-.489a.28.28 0 01.207-.11c.154 0 .322.18.515.548.092.188.214.36.361.508a.88.88 0 00.406.142h.129l.547.052 3.003.038h4.613l1.978-.032h.316c.579.058.934.084 1.069.084a.389.389 0 00.303-.13c0-.031.167-.315.425-.843.11-.238.245-.36.406-.36a.91.91 0 01.258.052c.038.147.059.298.064.45v1.584c0 .257 0 1.1-.064 2.523a.65.65 0 01-.052.258.482.482 0 01-.238.084.22.22 0 01-.187-.097 1.91 1.91 0 01-.187-.58 4.336 4.336 0 00-.644-1.622 1.425 1.425 0 00-.728-.457 11.318 11.318 0 00-2.281-.135h-2.146v.927l.097 7.893c0 .315 0 .907-.051 1.783v2.633c-.022.226.032.453.154.644.237.193.522.32.825.367.786.2 1.288.315 1.572.36a.914.914 0 01.393.11v.412l-1.811-.052c-.992 0-1.746 0-2.242-.058l-1.868.084-1.36.077a6.227 6.227 0 01-.702 0l-.18-.077c0-.131.041-.26.116-.367a1.06 1.06 0 01.47-.129c.434-.067.865-.16 1.289-.276.342-.067.666-.203.953-.4a.68.68 0 00.187-.38c.093-.732.13-1.47.11-2.208v-2.201l-.11-4.72-.052-1.016v-3.4h-2.055a6.323 6.323 0 00-2.229.22 8.098 8.098 0 00-1.856 2.02c-.277.42-.515.645-.721.645h-.116a.274.274 0 01-.058-.187c.044-.312.113-.62.206-.92.125-.437.229-.88.309-1.327m24.38 14.118a3.453 3.453 0 011.431-.373c.324.013.648-.038.953-.149a.437.437 0 00.155-.186c.194-.845.289-1.709.283-2.575.071-1.81.2-4.21.361-7.217.137-2.292.206-3.721.206-4.288v-.302c-.605-.123-1.572-.245-2.893-.374a.611.611 0 01-.129-.296.657.657 0 01.091-.225c.106-.043.22-.07.335-.077l.438.038c.574.05 1.15.072 1.727.065.238 0 .644 0 1.224-.058l.683-.045c.159.003.318.03.47.077.068.076.126.16.174.251l.541 1.19 3.582 7.97 1.553 3.303a56.21 56.21 0 002.745-6.205c.042-.128.094-.253.154-.374.083-.156.157-.318.22-.483.064-.174.341-.85.824-2.028.194-.47.348-.882.471-1.216.483-1.352.766-2.131.85-2.324.132-.06.274-.094.419-.103h.522c.476.038 1.256.051 2.326.051h1.63v.206a1.02 1.02 0 01-.039.238 2.261 2.261 0 01-.979.239 6.441 6.441 0 00-1.411.18.644.644 0 00-.387.296 5.197 5.197 0 00-.142 1.165v1.191c0 1.288 0 3.4.097 6.393v4.088a3.68 3.68 0 00.09 1.107.93.93 0 00.509.328c.731.21 1.476.367 2.229.47a.186.186 0 01.097.168v.257h-.586c-.509 0-1.05 0-1.637-.045l-.947-.045c-1.739 0-2.893 0-3.46.065l-.644.038a.377.377 0 01-.193-.051v-.168a.84.84 0 01.038-.244 3.645 3.645 0 011.147-.245c.413-.096.81-.25 1.179-.457.094-.652.131-1.311.11-1.97v-2.575c0-.283 0-.805.032-1.565.032-.76.039-2.008.039-3.727 0-1.365-.033-2.401-.084-3.097-.142.297-.425.94-.857 1.932l-.193.489v.077l-2.004 4.494-.677 1.719-.889 2.092a83.19 83.19 0 00-.985 2.575c-.123.335-.219.605-.297.798h-.251a101.13 101.13 0 00-3.447-8.613c-1.332-2.945-2.266-4.876-2.803-5.794-.064.36-.141 1.422-.232 3.174a147.612 147.612 0 00-.167 7.081c.006.898.066 1.794.18 2.685a.814.814 0 00.367.643 3.959 3.959 0 001.65.239c.326-.004.651.02.973.07a.903.903 0 01.09.296.66.66 0 01-.065.226l-3.988-.238c-.292 0-.743.019-1.353.058-.341 0-.824.038-1.469.045l.013-.335zm30.823.059a.647.647 0 01.219-.136c.243-.062.491-.097.741-.103a5.063 5.063 0 001.534-.231 1.19 1.19 0 00.18-.708v-8.853l-.064-3.624a3.569 3.569 0 00-.168-1.461c-.148-.161-.605-.251-1.359-.277a6.131 6.131 0 01-.851-.084.254.254 0 01-.167-.225.657.657 0 01.064-.238.44.44 0 01.206-.071h.432c.516.058 1.034.086 1.553.084h.94l2.243.051c1.121 0 1.997 0 2.622-.051a15.566 15.566 0 011.288-.058c.232 0 .683.032 1.45.096h1.811l.212.039 1.057-.039.129.065a.656.656 0 01.09.212 3.865 3.865 0 01-.058.547 4.135 4.135 0 00-.058.457c0 .882.032 1.63.09 2.24a.104.104 0 01-.024.061.105.105 0 01-.053.036.793.793 0 01-.251-.038 8.014 8.014 0 01-.374-.85 9.54 9.54 0 00-.709-1.41 1.986 1.986 0 00-.496-.644 1.778 1.778 0 00-.734-.096h-1.708l-3.653.032h-.322c-.464 0-.748.051-.838.174a4.064 4.064 0 00-.219 1.79c0 .096 0 1.107.065 3.038v1.758c.098.026.2.04.302.038h1.747c.087.007.176.007.264 0 .908 0 2.074-.051 3.505-.051.451-.071.708-.161.786-.264.182-.373.279-.782.283-1.198.065-.643.213-1.01.432-1.094a.7.7 0 01.309.07.649.649 0 010 .187 2 2 0 010 .29v2.955c0 .438 0 .927.065 1.468.064.54.064.837.064.882a1.713 1.713 0 01-.039.302.403.403 0 01-.167.052h-.084a4.586 4.586 0 01-.393-1.107 3.579 3.579 0 00-.696-1.603 1.72 1.72 0 00-1.172-.329h-2.868c-.771-.016-1.544.01-2.313.078v5.678a3.83 3.83 0 00.168 1.5c.142.186.457.276.941.276h3.286c1.095.04 2.191-.029 3.273-.206a2.86 2.86 0 001.34-.746 8.793 8.793 0 001.301-2.221c.161-.348.316-.522.477-.522.092.008.18.044.251.103-.166.546-.303 1.1-.412 1.661a15.34 15.34 0 00-.161 1.828c.007.248-.065.492-.206.696h-.277l-3.583.038h-1.61l-3.828.052h-2.106c-1.527.064-2.655.09-3.383.09a.374.374 0 01-.258-.064.236.236 0 01-.058-.085.235.235 0 01-.013-.102l.013-.135zm30.701-8.279v1.332a47.538 47.538 0 00.136 5.19 1.43 1.43 0 00.747.939c.678.298 1.42.424 2.158.367a4.178 4.178 0 002.932-1.178 3.708 3.708 0 001.289-2.833 3.56 3.56 0 00-1.225-2.871 5.11 5.11 0 00-3.427-1.056h-2.288a.818.818 0 00-.296.045m7.873-7.61a.554.554 0 01.091.213c0 .122 0 .296-.046.509a3 3 0 00-.057.515c-.005.756.03 1.513.103 2.266 0 .07-.058.103-.155.103a.597.597 0 01-.18-.039 5.007 5.007 0 01-.368-.817 11.347 11.347 0 00-.605-1.25c-.284-.527-.503-.817-.645-.875a2.434 2.434 0 00-.734-.077h-4.549a5.538 5.538 0 00-.779.064l-.058 3.296c0 .406 0 1.146.09 2.228v.773a9.954 9.954 0 011.333-.078h.497a22.5 22.5 0 011.559-.051c1.1-.028 2.199.096 3.266.367a3.72 3.72 0 012.036 1.448 4.5 4.5 0 01.767 2.691 4.253 4.253 0 01-1.817 3.419 7.412 7.412 0 01-4.684 1.41h-2.487c-.612 0-1.153.038-1.617.038h-2.706c-.29.002-.581-.01-.87-.038a1.22 1.22 0 010-.149c0-.186.116-.309.361-.36a9.31 9.31 0 001.836-.47c.193-.186.304-.44.309-.708.077-.753.107-1.51.091-2.266l-.039-1.487-.039-5.55-.045-2.388v-.644a2.576 2.576 0 00-.148-1.107c-.097-.161-.374-.264-.818-.303-.653-.06-1.3-.176-1.933-.348a.64.64 0 01-.103-.347h1.327l3.93.11 1.289-.084h2.467l.883.083 1.811-.058.219.084 1.043-.084.174-.038zm12.029 15.954a.647.647 0 01.219-.136c.244-.062.495-.097.747-.103a5.111 5.111 0 001.534-.231 1.24 1.24 0 00.174-.708v-8.853l-.065-3.624a3.483 3.483 0 00-.161-1.461 2.379 2.379 0 00-1.366-.277 6.322 6.322 0 01-.85-.084.254.254 0 01-.115-.088.257.257 0 01-.046-.137.55.55 0 01.064-.238.395.395 0 01.2-.071h.432c.517.058 1.038.086 1.559.084h.934l2.249.051c1.121 0 1.991 0 2.616-.051a15.534 15.534 0 011.288-.058c.232 0 .683.032 1.45.096h1.81l.219.039 1.057-.039.122.065a.52.52 0 01.091.212 3.717 3.717 0 01-.052.547 4.388 4.388 0 00-.058.457c0 .882 0 1.63.084 2.24a.121.121 0 01-.022.059.123.123 0 01-.049.038.76.76 0 01-.251-.038 6.944 6.944 0 01-.374-.85 10.953 10.953 0 00-.709-1.41 2.08 2.08 0 00-.496-.644 1.818 1.818 0 00-.741-.096h-1.701l-3.627.077h-.322c-.464 0-.741.051-.838.174a4.155 4.155 0 00-.219 1.79c0 .096 0 1.107.064 3.038v1.712c.101.027.205.04.31.04h1.746c.088.006.176.006.264 0 .908 0 2.081-.052 3.511-.052.445-.071.709-.161.78-.264.186-.372.285-.782.29-1.198.064-.643.206-1.01.425-1.094a.7.7 0 01.309.07.649.649 0 010 .187 2 2 0 010 .29v2.955c0 .438 0 .927.065 1.468.064.54.064.837.064.882a1.624 1.624 0 01-.038.302.389.389 0 01-.162.052h-.09a4.586 4.586 0 01-.393-1.107 3.587 3.587 0 00-.689-1.603 1.74 1.74 0 00-1.179-.329h-2.867c-.772-.016-1.544.01-2.313.078v5.678a3.967 3.967 0 00.167 1.5c.142.186.458.276.941.276h3.286c1.095.04 2.191-.029 3.273-.206a2.87 2.87 0 001.346-.746 9.04 9.04 0 001.257-2.221c.161-.348.322-.522.477-.522a.486.486 0 01.257.103c-.169.545-.306 1.1-.412 1.661-.096.605-.15 1.216-.161 1.828.007.248-.065.492-.206.696h-.284l-3.582.038h-1.611l-3.827.052h-2.1c-1.534.064-2.661.09-3.383.09a.4.4 0 01-.264-.064.23.23 0 01-.056-.086.248.248 0 01-.015-.101l.013-.135zm33.413-14.312a54.235 54.235 0 00-2.718 7.442l-.516 1.462-1.288 3.946a1.904 1.904 0 00-.168.586c.016.135.057.267.122.386a6.352 6.352 0 001.521.22l.947.083c.097.077.148.148.148.219a.849.849 0 01-.038.206h-.883a30.12 30.12 0 01-2.365-.103h-.895l-1.192.077c-.118.033-.239.05-.361.052a7.5 7.5 0 01-.786-.046.982.982 0 01.052-.36.599.599 0 01.315-.116 3.997 3.997 0 001.933-.296c.435-.392.763-.889.954-1.442.335-.76.882-2.215 1.636-4.352l.612-1.603 1.205-3.335c0-.038.296-.779.838-2.227.541-1.449.94-2.543 1.166-3.29h.779c.071 0 .787 1.854 2.159 5.491a322.786 322.786 0 013.028 8.324c.348.927.58 1.513.702 1.745.073.176.186.332.329.457.265.127.547.214.838.258.177.045.351.101.521.167l.522.187a.831.831 0 01.052.225.755.755 0 01-.039.2h-.573l-2.288-.052-1.423-.051-1.366.103a3.148 3.148 0 01-1.141-.123c-.001-.131.02-.262.065-.386a3.865 3.865 0 011.288-.167c.377.01.752-.046 1.108-.168a1.35 1.35 0 00.084-.354 5.605 5.605 0 00-.335-1.184 29.288 29.288 0 01-.399-1.217c-.045-.129-.496-1.378-1.373-3.747-.876-2.369-1.61-4.3-2.222-5.794l-.445-1.19a1.133 1.133 0 00-.129-.245m23.607 6.037v1.333a50 50 0 00.122 5.15 1.499 1.499 0 00.709.895c.61.306 1.291.44 1.971.386a4.37 4.37 0 003.261-1.21 3.859 3.859 0 001.192-2.755 3.503 3.503 0 00-1.257-2.878 5.015 5.015 0 00-3.286-1.03 23.95 23.95 0 00-2.699.09m2.938-7.828l-.116.45-1.579.361a2.145 2.145 0 00-.921.341c-.182.21-.289.476-.303.753a17.474 17.474 0 00-.084 2.17c0 .408.013 1.148.039 2.221v.773a28.14 28.14 0 013.402-.161c2.401 0 4.018.429 4.851 1.287a4.425 4.425 0 011.244 3.22 4.245 4.245 0 01-1.817 3.45 7.381 7.381 0 01-4.678 1.41h-2.487c-.612 0-1.159.038-1.623.038h-2.7c-.29.002-.581-.01-.87-.038a.612.612 0 010-.148c0-.187.116-.31.355-.361a9.328 9.328 0 001.836-.47c.193-.186.304-.44.309-.708.08-.753.11-1.51.09-2.266l-.038-1.487v-5.55l-.065-2.369v-.643a2.472 2.472 0 00-.148-1.108c-.097-.16-.374-.264-.831-.302a12.254 12.254 0 01-1.933-.335.564.564 0 01-.103-.335h2.017l2.377.032a51.143 51.143 0 003.763-.206l.013-.02zM91.69 47.362a3.514 3.514 0 00-.593-.051 2.263 2.263 0 00-1.81.644 2.606 2.606 0 00-.548 1.732 2.38 2.38 0 00.696 1.815c.44.42 1.028.65 1.636.644a3.76 3.76 0 00.644-.065l-.025-4.719zm1.076 0v4.745c.192.027.385.042.58.045a2.25 2.25 0 001.816-.644 2.573 2.573 0 00.554-1.725 2.38 2.38 0 00-.36-1.5 2.538 2.538 0 00-.87-.766 2.283 2.283 0 00-1.708-.155h-.012zm-2.133 6.123h.335c.176.025.355.007.522-.052a.36.36 0 00.167-.193c0-.077.04-.302.065-.644h-.786a3.758 3.758 0 01-2.487-.753 2.363 2.363 0 01-.896-1.873 2.816 2.816 0 01.999-2.15 3.616 3.616 0 012.577-.921c.216.002.43.017.644.045 0-.328-.038-.521-.051-.592a.244.244 0 00-.129-.168 1.025 1.025 0 00-.464-.064h-.412v-.412c.373 0 .863.039 1.475.039.79 0 1.358-.013 1.701-.039v.367h-.47a.851.851 0 00-.548.11.92.92 0 00-.11.553v.161h.78a3.797 3.797 0 012.455.74 2.339 2.339 0 01.921 1.88 2.816 2.816 0 01-1.005 2.157 3.61 3.61 0 01-2.545.914c-.215 0-.43-.014-.644-.045-.028.27.012.541.116.792.07.103.264.154.573.154h.355v.36h-3.177l.039-.366zm10.463-2.852h2.88l-1.436-3.425-1.444 3.425zm3.093.464h-3.305l-.387.927a4.725 4.725 0 00-.386 1.12.242.242 0 00.07.187c.112.058.236.09.361.09l.554.064v.36h-2.687v-.36h.168a1.16 1.16 0 00.516-.083.773.773 0 00.25-.348c.272-.55.548-1.142.832-1.777l1.572-3.553c.419-.947.709-1.63.857-2.054h.387l2.899 6.715c.109.283.238.559.387.824a.548.548 0 00.225.2c.183.057.375.085.567.083v.36h-3.099v-.36h.567c.123 0 .245-.023.361-.065a.188.188 0 00.065-.069.186.186 0 00.025-.091 2.232 2.232 0 00-.174-.535l-.625-1.635zm6.63 2.183c.285.05.574.075.863.076a2.164 2.164 0 001.572-.54 1.932 1.932 0 00.555-1.455c0-.296-.057-.589-.168-.863a1.36 1.36 0 00-.644-.644 3.224 3.224 0 00-1.527-.264h-.696v3.702m0-6.998c0 .535-.045 1.223-.045 2.067v.753h1.166c2.027 0 3.043.693 3.047 2.08a2.32 2.32 0 01-.953 1.93 3.488 3.488 0 01-2.281.767h-2.596v-.258a1.28 1.28 0 00.418-.257 1.39 1.39 0 00.097-.541v-4.918a10.153 10.153 0 00-.064-1.5c-.045-.226-.258-.335-.645-.335h-.386v-.374h4.922a8.37 8.37 0 01.954.046 5.83 5.83 0 00-.2 1.718h-.374a6.747 6.747 0 00-.141-1.068 6.008 6.008 0 00-1.605-.206c-.424.007-.848.035-1.269.083l-.045.013zm8.202.058c0 .54-.039 1.126-.039 1.744v3.219a8.384 8.384 0 00.103 1.931c.064.136.29.206.644.206h.393v.36h-3.414v-.36h.509c.16.022.323-.01.463-.09a.528.528 0 00.136-.36c0-.174.038-.728.058-1.655v-4.191a1.679 1.679 0 00-.161-.901c-.097-.11-.329-.161-.709-.161h-.284v-.386h4.034a3.222 3.222 0 012.016.502 1.662 1.662 0 01.645 1.365c-.001.424-.124.84-.355 1.197a2.57 2.57 0 01-1.024.927c-.432.23-.915.35-1.405.348a3.95 3.95 0 01-.857-.11l-.116-.431c.273.079.554.122.838.129a1.651 1.651 0 001.25-.47 1.8 1.8 0 00.464-1.288 1.603 1.603 0 00-.49-1.249 2.158 2.158 0 00-1.475-.444 3.949 3.949 0 00-1.212.213m9.104-.303h-.245c-.444 0-.702.058-.76.187a7.277 7.277 0 00-.097 1.706v4.803l1.225-1.706 1.746-2.576 1.862-2.8.869.039 1.289-.039v.367h-.445c-.373 0-.592.07-.644.206a9.946 9.946 0 00-.084 1.873v3.155a10.57 10.57 0 00.084 1.931c.052.161.271.238.644.238h.477v.36h-3.421v-.36h.393c.367 0 .586-.077.644-.231.116-.637.155-1.286.116-1.932v-3.141c0-.31 0-.824.045-1.545l-3.685 5.427a17.42 17.42 0 01-1.224 1.7 4.044 4.044 0 01-1.063.244c.064-.934.096-1.764.096-2.485v-3.528c.036-.563 0-1.127-.109-1.68-.069-.142-.284-.213-.644-.213h-.426v-.386c.593.026 1.134.039 1.624.039.676 0 1.25 0 1.727-.039l.006.386zm10.734 3.245l3.866 3.63.354.336a.512.512 0 00.22.148c.122.014.245.014.367 0v.36h-1.63l-3.943-3.727c-.129-.13-.213-.193-.245-.193s-.116.077-.116.225v1.738c-.024.464-.006.93.051 1.39.058.136.265.207.645.207h.431v.36h-3.279v-.36h.464c.303 0 .483-.058.541-.168.098-.476.13-.963.097-1.448V48.05a7.836 7.836 0 00-.097-1.764c-.056-.128-.236-.193-.541-.193h-.464v-.386c.696 0 1.205.039 1.514.039l1.765-.039v.367h-.457a.944.944 0 00-.49.11.49.49 0 00-.129.347v3.051h.078c.315-.257.58-.489.805-.701.226-.213.599-.58 1.108-1.107l1.624-1.68v-.387c.429.026.777.039 1.044.039.266 0 .582-.013.947-.039v.367h-.322a1.422 1.422 0 00-.696.154c-.46.33-.891.7-1.289 1.101l-2.223 2.009zm8.769 1.294h2.874l-1.43-3.425-1.444 3.425zm3.093.464h-3.305l-.393.927a4.684 4.684 0 00-.387 1.12.216.216 0 00.078.187.78.78 0 00.36.09l.548.064v.36h-2.68v-.36h.167c.178.012.357-.017.522-.083a.773.773 0 00.245-.348c.271-.55.548-1.142.831-1.777l1.579-3.553c.418-.947.702-1.63.856-2.054h.387l2.893 6.715c.113.282.244.558.393.824a.538.538 0 00.219.2c.183.057.375.085.567.083v.36h-3.093v-.36h.567a1.14 1.14 0 00.361-.065.186.186 0 00.084-.16 2.232 2.232 0 00-.174-.535l-.625-1.635zm15.675-4.101l-1.7 3.527A73.958 73.958 0 00163.09 54h-.244c-.142-.341-.542-1.204-1.205-2.575l-2.03-4.204v4.378a6.006 6.006 0 00.123 1.738c.083.135.335.206.766.206h.213v.36h-2.725v-.36h.373a.827.827 0 00.503-.11.573.573 0 00.155-.392c.045-.528.07-1.101.07-1.72v-3.218a14.75 14.75 0 00-.051-1.545.381.381 0 00-.168-.296 1.082 1.082 0 00-.58-.103h-.302v-.451l1.25.039c.219 0 .528 0 .921-.039.464 1.03.994 2.163 1.591 3.4l1.502 3.096 1.398-2.871c.489-1.005 1.05-2.209 1.675-3.625.477.026.812.039 1.005.039.193 0 .599-.013 1.218-.039v.367h-.387c-.335 0-.541.058-.612.174a3.486 3.486 0 00-.116 1.249v4.165a5.164 5.164 0 00.122 1.597c.078.135.297.206.645.206h.322v.36h-3.196v-.36h.38c.303 0 .484-.065.548-.2a7.806 7.806 0 00.09-1.687l.019-4.583zm6.005 2.967v3.322c.561.039 1.154.058 1.791.058.362.004.724-.015 1.083-.058.203-.025.402-.074.593-.148.098-.335.195-.764.29-1.287h.412c-.097.837-.148 1.397-.148 1.673v.258c-.438 0-.87.045-1.289.045h-4.864v-.36h.18c.22.023.441-.01.644-.097a.68.68 0 00.168-.457c0-.238.045-.766.045-1.584v-3.11c0-.514 0-.933-.039-1.287a2.9 2.9 0 00-.077-.58.356.356 0 00-.122-.147 1.631 1.631 0 00-.497-.09l-.444-.02v-.386h5.264c.354 0 .709 0 1.076.039a6.121 6.121 0 00-.245 1.764h-.38a7.734 7.734 0 00-.058-1.043 4.87 4.87 0 00-1.669-.251c-.522 0-1.069 0-1.643.064v3.116h1.012a6.15 6.15 0 001.559-.097c.122-.064.18-.257.18-.592v-.373h.38a25.54 25.54 0 00-.045 1.384c0 .347 0 .792.045 1.287h-.38v-.328c0-.367-.071-.592-.212-.644a4.93 4.93 0 00-1.534-.122h-1.005m7.996 3.368c.285.048.574.074.863.076a2.164 2.164 0 001.572-.54 1.932 1.932 0 00.554-1.455 2.277 2.277 0 00-.167-.863 1.371 1.371 0 00-.612-.644 3.266 3.266 0 00-1.534-.283h-.695v3.702m0-6.998c0 .534-.046 1.223-.046 2.067v.753h1.167c2.031 0 3.047.693 3.047 2.08a2.332 2.332 0 01-.953 1.93 3.49 3.49 0 01-2.281.767h-2.597v-.258a1.22 1.22 0 00.419-.258 1.39 1.39 0 00.097-.54v-4.899a9.893 9.893 0 00-.071-1.5c-.045-.226-.258-.335-.644-.335h-.387v-.374h4.922a8.37 8.37 0 01.954.046 6.04 6.04 0 00-.2 1.718h-.373a6.748 6.748 0 00-.142-1.068 6.002 6.002 0 00-1.598-.206c-.424.007-.848.035-1.269.083l-.045-.006zm8.227 3.688v3.322c.554.039 1.154.058 1.791.058.36.004.719-.015 1.076-.058.205-.025.407-.074.6-.148.098-.335.195-.764.289-1.287h.374a16.461 16.461 0 00-.148 1.673v.258c-.438 0-.87.045-1.289.045h-4.864v-.36h.174c.219.026.442-.007.644-.097a.64.64 0 00.174-.457c0-.238.045-.766.045-1.584v-3.11c0-.514 0-.933-.038-1.287a2.902 2.902 0 00-.078-.58.348.348 0 00-.122-.147 1.68 1.68 0 00-.496-.09l-.438-.045v-.361h5.264c.354 0 .708 0 1.069.039a6.378 6.378 0 00-.245 1.764h-.373a6.737 6.737 0 00-.065-1.043 4.802 4.802 0 00-1.662-.251c-.522 0-1.07 0-1.643.064v3.116h1.011a6.192 6.192 0 001.56-.097c.122-.064.18-.257.18-.592v-.373h.374c0 .573-.039 1.036-.039 1.384 0 .347 0 .792.039 1.287h-.374v-.328c0-.367-.071-.592-.213-.644a4.923 4.923 0 00-1.533-.122h-1.005m5.618 3.084c.159.114.346.183.541.2a.813.813 0 00.548-.22 2.01 2.01 0 00.419-.92c.157-.71.247-1.431.27-2.157.058-.96.084-1.77.084-2.427a5.56 5.56 0 00-.071-1.1c-.045-.188-.27-.278-.644-.278h-.412v-.386c.934.052 2.126.07 3.575.07l3.486-.064h.438v.367h-.431c-.381 0-.6.071-.645.206a10.963 10.963 0 00-.077 1.874v3.753c-.024.444.004.889.084 1.326.058.155.27.232.644.232h.451v.36h-3.415v-.36h.406c.354 0 .567-.07.644-.206.119-.442.161-.902.123-1.358v-3.734c0-.36 0-.985-.077-1.887-.348 0-.896-.045-1.631-.045-.734 0-1.359 0-1.829.045-.033.297-.045.799-.045 1.507 0 2.365-.174 3.985-.522 4.86-.348.876-.877 1.305-1.585 1.288a2.807 2.807 0 01-.4-.039v-.875l.071-.032zm13.041-6.902h-.238c-.451 0-.703.058-.767.187a7.44 7.44 0 00-.09 1.706v4.803l1.217-1.706 1.746-2.576 1.869-2.8.87.039 1.288-.039v.367h-.438c-.38 0-.593.07-.644.206a10.57 10.57 0 00-.084 1.873v3.155a11.33 11.33 0 00.084 1.931c.058.161.27.238.644.238h.464v.36h-3.415v-.36h.393c.361 0 .587-.077.645-.231.116-.637.155-1.286.116-1.932v-3.141c0-.31 0-.824.051-1.545l-3.692 5.427a15.93 15.93 0 01-1.224 1.7 3.83 3.83 0 01-1.056.244c.064-.934.09-1.764.09-2.485v-3.528a6.761 6.761 0 00-.103-1.68c-.078-.142-.29-.213-.645-.213h-.418v-.386c.592 0 1.127.039 1.623.039.644 0 1.25 0 1.72-.039l-.006.386zm103.834 3.103h-89.144v1.268h89.144v-1.268z" fill="#2B2B2A"/></g><defs><clipPath id="clip0_1002_11"><path fill="#fff" d="M0 0h312v54H0z"/></clipPath></defs></svg>