<svg width="30" height="19" fill="none" xmlns="http://www.w3.org/2000/svg"><path fill-rule="evenodd" clip-rule="evenodd" d="M29.312 2.127c.207-.702 0-1.219-.994-1.219h-3.281c-.835 0-1.22.446-1.429.939 0 0-1.669 4.109-4.032 6.778-.765.774-1.113 1.02-1.53 1.02-.209 0-.523-.246-.523-.95V2.128c0-.843-.23-1.219-.925-1.219h-5.16c-.52 0-.835.391-.835.763 0 .798 1.183.983 1.304 3.23v4.884c0 1.07-.191 1.265-.608 1.265-1.113 0-3.82-4.129-5.425-8.852-.312-.92-.627-1.29-1.465-1.29H1.125C.187.908 0 1.354 0 1.847 0 2.724 1.112 7.08 5.181 12.84c2.713 3.934 6.531 6.067 10.01 6.067 2.086 0 2.344-.473 2.344-1.29v-2.973c0-.948.197-1.137.858-1.137.488 0 1.322.247 3.269 2.144 2.225 2.248 2.591 3.256 3.844 3.256h3.28c.938 0 1.408-.473 1.138-1.409-.297-.93-1.36-2.282-2.768-3.885-.765-.913-1.913-1.897-2.261-2.39-.487-.63-.348-.912 0-1.474 0 0 4-5.69 4.416-7.623z" fill="#AD945A"/></svg>