<svg width="260" height="46" fill="none" xmlns="http://www.w3.org/2000/svg"><g clip-path="url(#clip0_1002_564)"><path fill-rule="evenodd" clip-rule="evenodd" d="M3.812 13.944A31.546 31.546 0 004.93 45.908h5.337C6.668 41.278 4.36 35.87 4.322 29.47a25.92 25.92 0 011.729-9.442l.816-2.146 2.266.418c7.726 1.417 14.132 5.928 18.684 12.248.081.108.156.22.237.333l.08.113.285.413.037.08.22.327.113.172v.027l.188.29.15.241.162.252c.037.07.08.14.123.204l.161.268.134.236.162.28.144.251.119.21.16.295.119.214.166.317c0 .048.048.096.075.145l.21.413.059.112c.059.13.123.258.188.387v.043l.048-.102.14-.29c.043-.08.08-.156.118-.236.037-.08.091-.177.134-.263.043-.086.08-.15.118-.225.038-.075.06-.113.086-.167l.236-.434.102-.188.097-.177.054-.091c.037-.06.07-.12.102-.182.053-.086.107-.178.155-.269l.167-.284c.048-.07.091-.145.134-.22.043-.075.118-.199.183-.295l.16-.263.108-.166.156-.247.166-.258.177-.262.161-.236.145-.215.167-.236.16-.22a33.008 33.008 0 013.802-4.448l-.064-.654-.113-.617-.129-.606-.145-.601-.15-.601-.183-.59-.204-.58-.22-.579-.172-.418a31.045 31.045 0 00-3.516 3.562L31.14 27.04l-2.105-2.527A29.597 29.597 0 003.812 13.944zm54.674 0a30.45 30.45 0 00-2.524-.107 28.967 28.967 0 00-3.543.215l.14.327.483 1.239.44 1.26.392 1.283 1.557-.284.816 2.146a25.92 25.92 0 011.74 9.447c-.06 6.4-2.347 11.803-5.944 16.438h5.337a31.548 31.548 0 001.117-31.964" fill="#DAC48F"/><path fill-rule="evenodd" clip-rule="evenodd" d="M17.837 28.752l-.092-.07-.445-.343-.457-.333-.461-.322-.468-.306-.477-.3-.483-.285-.49-.273-.504-.258-.505-.247-.225-.107a30.646 30.646 0 00-.048 1.722 28.557 28.557 0 002.835 12.441h4.461a25.83 25.83 0 01-2.641-11.32zM31.141.908a29.285 29.285 0 00-12.027 9.255l.763.305.891.387.875.407.864.43.854.45.285.161a29.465 29.465 0 015.884-5.606l1.611-1.164 1.61 1.164c7.142 5.14 11.7 13.111 11.7 21.995a25.794 25.794 0 01-2.63 11.38h4.466a28.629 28.629 0 002.825-12.426 28.954 28.954 0 00-4.924-16.094A28.988 28.988 0 0031.14.908z" fill="#DAC48F"/><path d="M78.029 20.961c.757.038 1.61.065 2.582.065.537 0 1.031 0 1.445-.054a5.76 5.76 0 00-.242-.762c-.456-1.212-.714-1.883-.762-2.012l-.967-2.414-.102-.187a38.6 38.6 0 00-.467 1.072c-.45 1.073-.773 1.92-.966 2.538-.097.274-.188.537-.29.81a5.044 5.044 0 00-.183.569 1.69 1.69 0 01-.113.327l.065.048zm-5.052 6.358a.58.58 0 01.263-.086h.499c.327-.01.65-.06.966-.145.278-.166.5-.41.64-.703a25.35 25.35 0 001.234-3.063c.22-.628.355-1.009.414-1.143.177-.424.343-.869.504-1.336l.999-2.79c.157-.436.53-1.439 1.117-3.009.15-.397.327-.928.537-1.61h.698c.321.632.594 1.286.816 1.959.129.37.338.917.628 1.647l1.61 4.372.86 2.371c.456 1.347.751 2.178.891 2.484.088.228.222.436.392.612.126.06.26.104.397.128.231.054.392.102.484.13.231.055.457.13.676.225a.46.46 0 01.043.177.582.582 0 01-.032.15h-4.741a2.22 2.22 0 01-.263 0h-.462a.479.479 0 01-.215-.064c0-.1.016-.2.049-.296a.815.815 0 01.23-.075l1.074-.075c.222 0 .442-.04.65-.118a.985.985 0 00.064-.29 4.592 4.592 0 00-.279-.992 24.738 24.738 0 01-.333-1.02c-.096-.321-.472-1.373-1.127-3.16a4.187 4.187 0 00-.763-.074h-2.926c-.266 0-.531.018-.794.053a7.4 7.4 0 00-.183.456l-.923 2.93a15.199 15.199 0 00-.597 1.845.977.977 0 00.097.322c.194.052.392.091.59.118l1.445.123c.08.07.118.124.118.177a.597.597 0 01-.032.161h-.73c-.57 0-1.224-.027-1.976-.085H73.53c-.124 0-.392 0-.66-.033v-.064a.802.802 0 01.106-.21zm34.594-12.613c.082.55.123 1.107.123 1.663v.451a1.129 1.129 0 01-.22.032.954.954 0 01-.182 0 3.658 3.658 0 00-1.456-1.893 4.414 4.414 0 00-2.496-.666 4.33 4.33 0 00-1.326.177 5.713 5.713 0 00-1.676.907 5.43 5.43 0 00-1.218 1.373 6.708 6.708 0 00-.79 1.942 9.118 9.118 0 00-.295 2.323 8.851 8.851 0 00.693 3.756c.378.89 1.04 1.63 1.884 2.103a5.136 5.136 0 002.427.633h.494a7.577 7.577 0 001.16-.204 5.352 5.352 0 001.278-.537c.371-.232.704-.52.988-.853.333-.386.61-.817.821-1.282l.134-.043c.059.008.114.03.161.065v.327c-.3 1.196-.537 2.012-.655 2.446-.112 0-.252.07-.424.13-1.078.314-2.2.457-3.323.423a10.067 10.067 0 01-2.508-.23 10.28 10.28 0 01-1.836-.736 5.841 5.841 0 01-1.723-1.271 5.998 5.998 0 01-1.203-2.007 7.538 7.538 0 01-.457-2.645c-.014-.802.109-1.6.366-2.36a8.13 8.13 0 011.111-2.05 7.025 7.025 0 011.777-1.72 6.637 6.637 0 012.277-.977c.824-.144 1.66-.207 2.496-.188a7.644 7.644 0 012.218.306 4.18 4.18 0 011.39.606m8.816.965l.441-1.61a.91.91 0 01.112-.407.236.236 0 01.172-.091c.129 0 .269.15.43.456.076.156.178.3.3.423a.74.74 0 00.339.118h.107l.456.043 2.502.032h3.845l1.648-.026h.263c.483.048.779.07.891.07a.32.32 0 00.253-.108c0-.027.139-.263.354-.703.091-.198.204-.3.338-.3a.754.754 0 01.215.043c.032.123.05.248.054.375v1.32c0 .215 0 .917-.054 2.103a.528.528 0 01-.043.215.402.402 0 01-.199.07.183.183 0 01-.155-.081 1.612 1.612 0 01-.156-.483 3.603 3.603 0 00-.537-1.352 1.186 1.186 0 00-.607-.38 9.415 9.415 0 00-1.9-.113h-1.788v.772l.08 6.577c0 .263 0 .757-.043 1.486v2.195a.852.852 0 00.129.536c.198.161.435.267.687.306.655.166 1.074.263 1.311.3a.765.765 0 01.327.091v.344l-1.509-.043c-.827 0-1.455 0-1.868-.048l-1.557.07-1.133.064a5.19 5.19 0 01-.585 0l-.151-.065a.54.54 0 01.097-.305.89.89 0 01.392-.108 9.73 9.73 0 001.074-.23 2.11 2.11 0 00.794-.333.563.563 0 00.156-.317c.078-.61.108-1.225.091-1.84v-1.834l-.091-3.933-.043-.847V15.29h-1.713a5.267 5.267 0 00-1.857.182 6.745 6.745 0 00-1.547 1.685c-.23.349-.429.536-.601.536h-.097a.235.235 0 01-.048-.155 4.89 4.89 0 01.172-.767c.104-.364.19-.733.258-1.105m20.317 11.766c.37-.188.777-.295 1.192-.311.27.01.54-.031.794-.123a.358.358 0 00.129-.156 9.223 9.223 0 00.236-2.146c.059-1.508.167-3.509.301-6.014.115-1.91.172-3.1.172-3.573v-.252c-.505-.102-1.31-.204-2.411-.311a.51.51 0 01-.107-.247.532.532 0 01.075-.188.899.899 0 01.279-.064l.365.032c.479.042.959.06 1.439.054.199 0 .537 0 1.02-.049l.569-.037c.133.003.265.024.392.064.057.064.105.134.145.21l.451.992 2.986 6.642 1.294 2.752a46.89 46.89 0 002.287-5.172c.035-.107.078-.21.129-.311.069-.13.13-.265.182-.402.054-.145.285-.709.687-1.69.162-.392.29-.735.392-1.014.403-1.127.639-1.776.709-1.937.11-.049.229-.078.349-.086h.435c.397.032 1.047.043 1.938.043h1.359v.172a.835.835 0 01-.033.198 1.88 1.88 0 01-.816.199c-.396.006-.79.057-1.176.15a.538.538 0 00-.322.247 4.294 4.294 0 00-.118.97v.993c0 1.073 0 2.833.081 5.328V25.8c-.022.31.003.62.075.923a.774.774 0 00.424.273c.609.175 1.23.306 1.858.392a.153.153 0 01.08.14v.214h-.488c-.424 0-.875 0-1.364-.037l-.789-.038c-1.45 0-2.411 0-2.884.054l-.536.032a.313.313 0 01-.161-.043v-.14c0-.069.011-.137.032-.203a3.01 3.01 0 01.955-.204 3.73 3.73 0 00.983-.381 9.39 9.39 0 00.091-1.642v-2.146c0-.236 0-.67.027-1.303.027-.633.032-1.674.032-3.107a38.03 38.03 0 00-.069-2.58 63.4 63.4 0 00-.715 1.61l-.161.407v.065l-1.669 3.744-.564 1.433-.741 1.743a69.592 69.592 0 00-.822 2.146c-.102.28-.182.504-.247.665h-.209a84.047 84.047 0 00-2.872-7.178c-1.11-2.453-1.889-4.063-2.336-4.828-.054.3-.118 1.185-.193 2.645-.09 1.788-.136 3.755-.14 5.901.005.748.055 1.495.15 2.237a.671.671 0 00.306.537c.439.163.908.23 1.375.198a4.79 4.79 0 01.811.06.76.76 0 01.075.246.56.56 0 01-.054.188l-3.323-.199c-.244 0-.62.016-1.128.049-.284 0-.687.032-1.224.037l.011-.279zm25.685.048a.54.54 0 01.183-.113c.202-.052.409-.08.617-.085.434.001.865-.064 1.278-.194a.99.99 0 00.151-.59v-7.376l-.054-3.02a2.977 2.977 0 00-.14-1.219c-.123-.134-.504-.209-1.133-.23a5.098 5.098 0 01-.708-.07.217.217 0 01-.14-.188.53.53 0 01.054-.198.362.362 0 01.172-.06h.359c.43.049.862.072 1.294.07h.784l1.869.043c.934 0 1.664 0 2.185-.043.521-.043.88-.048 1.074-.048.193 0 .569.027 1.208.08h1.508l.178.033.88-.032.108.053a.543.543 0 01.075.177 3.172 3.172 0 01-.049.456 3.75 3.75 0 00-.048.381c0 .735.027 1.357.075 1.867a.091.091 0 01-.019.05.097.097 0 01-.045.03.667.667 0 01-.21-.032 6.783 6.783 0 01-.311-.708 7.952 7.952 0 00-.591-1.175 1.658 1.658 0 00-.413-.536 1.484 1.484 0 00-.612-.08h-1.423l-3.044.026h-.269c-.386 0-.622.043-.698.145a3.377 3.377 0 00-.182 1.492c0 .08 0 .922.054 2.532v1.464a.924.924 0 00.252.032h1.455c.073.006.147.006.22 0 .757 0 1.729-.042 2.921-.042.376-.06.59-.134.655-.22a2.32 2.32 0 00.236-.998c.054-.537.177-.843.36-.912.089 0 .177.02.258.059a.58.58 0 010 .155c.005.08.005.161 0 .242v2.462c0 .365 0 .773.053 1.223.054.451.054.698.054.735-.003.085-.014.17-.032.253a.34.34 0 01-.14.042h-.07a3.827 3.827 0 01-.327-.922 2.98 2.98 0 00-.58-1.336 1.434 1.434 0 00-.977-.274h-2.389a17.668 17.668 0 00-1.928.065v4.731c-.037.422.01.847.14 1.25.118.156.381.231.783.231h2.739c.912.033 1.826-.024 2.727-.172a2.378 2.378 0 001.117-.622 7.35 7.35 0 001.085-1.85c.134-.29.263-.435.397-.435.077.006.15.036.209.085a14.07 14.07 0 00-.343 1.385 12.96 12.96 0 00-.135 1.523.965.965 0 01-.171.58h-.231l-2.985.032h-1.343l-3.189.043h-1.756a71.591 71.591 0 01-2.818.075.311.311 0 01-.215-.054.175.175 0 01-.059-.156l.01-.112zm25.585-6.899v1.11a39.739 39.739 0 00.112 4.325 1.189 1.189 0 00.623.783 3.763 3.763 0 001.799.306 3.482 3.482 0 002.443-.982 3.093 3.093 0 001.074-2.36 2.975 2.975 0 00-1.021-2.393 4.258 4.258 0 00-2.856-.88h-1.906a.681.681 0 00-.247.038m6.561-6.341a.46.46 0 01.075.177c0 .101 0 .246-.037.423a2.495 2.495 0 00-.049.43c-.003.63.025 1.26.086 1.888 0 .059-.048.086-.129.086a.503.503 0 01-.15-.032 4.243 4.243 0 01-.306-.682 9.374 9.374 0 00-.505-1.04c-.236-.44-.418-.682-.537-.73a2.028 2.028 0 00-.612-.065h-3.79a4.71 4.71 0 00-.65.054l-.048 2.747c0 .338 0 .955.075 1.856v.644a8.26 8.26 0 011.111-.064h.414c.386-.027.816-.043 1.299-.043.917-.023 1.833.08 2.722.305a3.106 3.106 0 011.697 1.208c.446.66.669 1.446.639 2.242a3.546 3.546 0 01-1.514 2.849 6.18 6.18 0 01-3.904 1.175h-2.072c-.51 0-.961.032-1.348.032h-2.255a7.106 7.106 0 01-.725-.032 1.27 1.27 0 010-.124c0-.155.097-.257.301-.3a7.751 7.751 0 001.53-.392.84.84 0 00.258-.59 15.26 15.26 0 00.075-1.888l-.032-1.24-.032-4.624-.038-1.99v-.537a2.147 2.147 0 00-.123-.923c-.081-.134-.312-.22-.682-.252a9.482 9.482 0 01-1.611-.29.533.533 0 01-.086-.29h1.106l3.275.092 1.074-.07h2.057l.735.07 1.509-.048.182.07.87-.07.145-.032zm10.024 13.293a.54.54 0 01.183-.113c.203-.052.412-.08.623-.085.433 0 .864-.065 1.277-.194a1.02 1.02 0 00.145-.59v-7.376l-.053-3.02a2.908 2.908 0 00-.135-1.219 1.98 1.98 0 00-1.138-.23 5.319 5.319 0 01-.709-.07.211.211 0 01-.134-.188.46.46 0 01.054-.198.33.33 0 01.166-.06h.36c.432.049.865.072 1.299.07h.779l1.874.043c.934 0 1.659 0 2.18-.043.52-.043.88-.048 1.073-.048.194 0 .57.027 1.209.08h1.508l.183.033.88-.032.102.053a.442.442 0 01.076.177 3.167 3.167 0 01-.043.456 3.752 3.752 0 00-.049.381c0 .735 0 1.357.07 1.867a.104.104 0 01-.018.049.102.102 0 01-.041.032.63.63 0 01-.209-.032 5.735 5.735 0 01-.312-.709 9.208 9.208 0 00-.59-1.175 1.748 1.748 0 00-.414-.536 1.513 1.513 0 00-.617-.08h-1.418l-3.023.064h-.268c-.387 0-.617.043-.698.145a3.483 3.483 0 00-.183 1.491c0 .08 0 .923.054 2.532v1.427a.976.976 0 00.258.032h1.455c.073.006.147.006.22 0 .757 0 1.734-.042 2.926-.042.371-.06.591-.134.65-.22a2.29 2.29 0 00.241-.998c.054-.537.172-.843.355-.912.089 0 .177.02.258.059a.58.58 0 010 .155c.005.08.005.161 0 .242v2.462c0 .365 0 .773.053 1.223.054.451.054.698.054.735-.003.085-.014.17-.032.253a.317.317 0 01-.135.042h-.075a3.827 3.827 0 01-.327-.922 2.99 2.99 0 00-.575-1.336 1.447 1.447 0 00-.982-.274h-2.389a17.668 17.668 0 00-1.928.065v4.731c-.034.422.013.846.14 1.25.118.156.381.231.783.231h2.739c.912.034 1.826-.024 2.727-.172a2.391 2.391 0 001.122-.622 7.497 7.497 0 001.047-1.85c.135-.29.269-.435.398-.435a.404.404 0 01.214.085c-.14.455-.255.917-.343 1.385-.08.504-.125 1.013-.134 1.523a.965.965 0 01-.172.58h-.236l-2.986.032h-1.342l-3.189.043h-1.751a72.057 72.057 0 01-2.818.075.335.335 0 01-.221-.054.2.2 0 01-.059-.155l.011-.113zm27.844-11.926a45.401 45.401 0 00-2.266 6.201l-.429 1.218-1.074 3.289a1.626 1.626 0 00-.14.488.912.912 0 00.102.322c.414.112.839.173 1.267.182l.79.07c.08.064.123.123.123.182a.67.67 0 01-.032.172h-.736c-.569 0-1.229-.027-1.97-.086h-.746l-.994.065a1.115 1.115 0 01-.3.043 6.249 6.249 0 01-.655-.038.807.807 0 01.043-.3.497.497 0 01.263-.097 3.33 3.33 0 001.61-.247 2.88 2.88 0 00.795-1.201c.279-.634.736-1.846 1.364-3.627l.51-1.336 1.004-2.779c0-.032.247-.649.698-1.856.451-1.207.784-2.12.972-2.742h.649c.059 0 .655 1.546 1.799 4.577a268.834 268.834 0 012.524 6.936c.289.773.483 1.261.585 1.454.061.147.154.277.274.381.22.106.456.178.698.215.147.038.292.084.434.14l.435.155c.024.06.038.123.043.188a.629.629 0 01-.032.166h-.478l-1.906-.043-1.186-.043-1.139.086c-.32.024-.642-.01-.95-.102a.928.928 0 01.054-.322 3.22 3.22 0 011.074-.14c.313.01.626-.038.923-.139.036-.095.06-.194.07-.295a4.702 4.702 0 00-.279-.987c-.124-.343-.231-.687-.333-1.014a398.02 398.02 0 00-1.144-3.122 157.323 157.323 0 00-1.852-4.829l-.371-.992a.927.927 0 00-.107-.204m19.673 5.033v1.11a42.094 42.094 0 00.102 4.292 1.255 1.255 0 00.591.746 3.127 3.127 0 001.643.322 3.641 3.641 0 002.716-1.009 3.213 3.213 0 00.994-2.296 2.918 2.918 0 00-1.047-2.398 4.18 4.18 0 00-2.738-.858 19.996 19.996 0 00-2.25.075m2.448-6.524l-.096.376-1.316.3a1.796 1.796 0 00-.768.284 1.05 1.05 0 00-.252.628c-.061.6-.084 1.204-.07 1.808 0 .34.011.957.032 1.85v.645a23.45 23.45 0 012.835-.134c2.001 0 3.349.357 4.043 1.073A3.686 3.686 0 01260 23.547a3.527 3.527 0 01-1.514 2.876 6.15 6.15 0 01-3.898 1.174h-2.072c-.51 0-.967.033-1.353.033h-2.25a7.078 7.078 0 01-.725-.033.51.51 0 010-.123c0-.156.097-.258.296-.3a7.744 7.744 0 001.53-.392.844.844 0 00.258-.59c.066-.627.091-1.258.075-1.889l-.032-1.239V18.44l-.054-1.975v-.536a2.072 2.072 0 00-.124-.923c-.08-.134-.311-.22-.692-.252a10.212 10.212 0 01-1.611-.279.464.464 0 01-.086-.279h1.681l1.981.027c.898-.01 1.944-.068 3.135-.172l.011-.016zM76.408 40.377a2.931 2.931 0 00-.494-.043 1.886 1.886 0 00-1.509.536c-.32.411-.482.923-.456 1.444a1.985 1.985 0 00.58 1.512c.367.35.856.542 1.364.537.18-.003.36-.02.537-.054l-.022-3.932zm.897 0v3.954c.16.022.321.035.483.037a1.874 1.874 0 001.514-.536 2.15 2.15 0 00.462-1.438 1.983 1.983 0 00-.301-1.25 2.112 2.112 0 00-.725-.638 1.901 1.901 0 00-1.423-.13h-.01zm-1.778 5.102h.28c.146.02.295.006.435-.043a.3.3 0 00.14-.161c0-.064.031-.252.053-.537h-.655a3.132 3.132 0 01-2.073-.627 1.97 1.97 0 01-.746-1.561 2.35 2.35 0 01.832-1.792 3.014 3.014 0 012.148-.768c.18.002.359.015.537.038 0-.273-.032-.434-.043-.493a.203.203 0 00-.108-.14.855.855 0 00-.386-.054h-.344v-.343c.312 0 .72.032 1.23.032.658 0 1.13-.01 1.417-.032v.306h-.392a.71.71 0 00-.456.091.767.767 0 00-.091.461v.134h.65a3.164 3.164 0 012.045.617 1.947 1.947 0 01.768 1.567 2.347 2.347 0 01-.838 1.797 3.008 3.008 0 01-2.12.762c-.18 0-.36-.012-.538-.037-.023.224.01.45.097.66.06.085.22.128.478.128h.295v.3h-2.647l.032-.305zm8.72-2.377h2.4l-1.198-2.854-1.202 2.854zm2.577.386H84.07l-.323.773a3.93 3.93 0 00-.322.933.198.198 0 00.06.156.655.655 0 00.3.075l.462.054v.3h-2.239v-.3h.14a.968.968 0 00.429-.07.644.644 0 00.21-.29c.225-.458.456-.951.692-1.48l1.31-2.962c.349-.788.59-1.357.714-1.711h.322l2.416 5.595c.091.237.199.466.323.687.045.072.11.13.187.166.153.049.313.072.473.07v.3H86.64v-.3h.473a.899.899 0 00.3-.054.161.161 0 00.076-.134 1.85 1.85 0 00-.145-.445l-.521-1.363zm5.526 1.819c.237.042.478.063.719.065a1.805 1.805 0 001.31-.45 1.608 1.608 0 00.462-1.213c0-.247-.047-.49-.14-.72a1.133 1.133 0 00-.537-.536 2.686 2.686 0 00-1.272-.22h-.58v3.085m0-5.831c0 .445-.038 1.019-.038 1.722v.627h.972c1.69 0 2.536.578 2.54 1.733a1.94 1.94 0 01-.795 1.61 2.906 2.906 0 01-1.9.638h-2.165v-.215c.129-.048.247-.12.349-.214.056-.143.083-.297.08-.45v-4.099a8.461 8.461 0 00-.054-1.25c-.037-.188-.214-.28-.537-.28h-.322V39h4.102c.266-.003.531.01.795.037-.127.466-.183.95-.166 1.432h-.312a5.611 5.611 0 00-.118-.89 5.007 5.007 0 00-1.337-.172c-.353.007-.706.03-1.058.07l-.037.01zm6.834.048c0 .45-.032.94-.032 1.454v2.683a6.964 6.964 0 00.086 1.609c.054.113.242.172.537.172h.327v.3h-2.846v-.3h.425a.618.618 0 00.386-.076.44.44 0 00.113-.3c0-.145.032-.606.049-1.379v-3.492a1.394 1.394 0 00-.135-.751c-.08-.091-.273-.134-.59-.134h-.236v-.322h3.36a2.684 2.684 0 011.68.418 1.395 1.395 0 01.537 1.138c-.001.354-.103.7-.295.997a2.15 2.15 0 01-.854.773c-.36.192-.762.291-1.17.29a3.265 3.265 0 01-.715-.092l-.096-.359a2.7 2.7 0 00.698.107 1.373 1.373 0 001.041-.391c.265-.293.404-.679.387-1.073a1.33 1.33 0 00-.408-1.041 1.8 1.8 0 00-1.23-.37 3.282 3.282 0 00-1.009.177m7.588-.253h-.204c-.371 0-.586.048-.634.155-.083.47-.11.947-.081 1.422V44.9l1.021-1.421 1.455-2.146 1.551-2.334.725.032 1.074-.032v.306h-.37c-.312 0-.494.059-.537.171a8.234 8.234 0 00-.07 1.562v2.628a8.749 8.749 0 00.07 1.61c.043.134.225.198.537.198h.397v.3h-2.851v-.3h.327c.306 0 .489-.064.537-.193.097-.53.129-1.07.097-1.61v-2.617c0-.258 0-.687.037-1.288l-3.071 4.523c-.311.492-.651.965-1.02 1.416a3.318 3.318 0 01-.886.204c.054-.778.081-1.47.081-2.07v-2.94a5.48 5.48 0 00-.091-1.401c-.058-.118-.237-.177-.537-.177h-.355v-.322c.494.022.945.032 1.353.032.564 0 1.042 0 1.439-.032l.006.322zm8.944 2.704l3.221 3.026.296.279a.427.427 0 00.182.123c.102.012.205.012.306 0v.3h-1.358l-3.286-3.106c-.107-.107-.177-.16-.204-.16-.027 0-.097.064-.097.187v1.448c-.019.387-.005.775.043 1.16.049.112.22.17.537.17h.36v.301h-2.733v-.3h.387c.252 0 .402-.048.451-.14a4.48 4.48 0 00.08-1.207v-3.154a6.519 6.519 0 00-.08-1.47c-.047-.107-.197-.161-.451-.161h-.387v-.322c.58 0 1.004.032 1.262.032l1.471-.032v.306h-.381a.784.784 0 00-.408.091.408.408 0 00-.108.29v2.543h.065c.263-.215.483-.408.671-.585.188-.177.499-.483.923-.923l1.353-1.4v-.322c.358.022.648.032.87.032.222 0 .485-.01.789-.032v.306h-.268a1.187 1.187 0 00-.58.129 8.468 8.468 0 00-1.074.917l-1.852 1.674zm7.308 1.078h2.394l-1.192-2.854-1.202 2.854zm2.577.386h-2.754l-.328.773a3.95 3.95 0 00-.322.933.18.18 0 00.064.156.656.656 0 00.301.075l.456.054v.3h-2.233v-.3h.139a.994.994 0 00.435-.07.639.639 0 00.204-.29c.226-.458.457-.951.693-1.48l1.315-2.962c.349-.788.586-1.357.715-1.711h.322l2.41 5.595c.094.236.204.465.328.687.044.072.107.13.182.166.153.049.313.072.473.07v.3h-2.577v-.3h.472a.975.975 0 00.301-.054.154.154 0 00.052-.058.167.167 0 00.018-.076 1.882 1.882 0 00-.145-.445l-.521-1.363zm13.063-3.417l-1.417 2.94a60.424 60.424 0 00-1.31 2.897h-.204a57.888 57.888 0 00-1.004-2.146l-1.692-3.503v3.648a5.03 5.03 0 00.102 1.448c.07.113.279.172.639.172h.177v.3h-2.271v-.3h.312a.686.686 0 00.418-.091.47.47 0 00.129-.327c.038-.44.059-.918.059-1.433v-2.682a12.3 12.3 0 00-.043-1.288.326.326 0 00-.139-.247.901.901 0 00-.483-.085h-.253v-.376l1.042.032c.182 0 .44 0 .768-.032.386.858.828 1.803 1.326 2.833l1.251 2.58 1.165-2.393a88.66 88.66 0 001.396-3.02 18 18 0 00.837.032c.162 0 .5-.01 1.015-.032v.306h-.322c-.279 0-.451.048-.51.145-.095.338-.128.69-.097 1.04v3.472a4.31 4.31 0 00.102 1.33c.065.113.247.172.537.172h.269v.3h-2.663v-.3h.316c.253 0 .403-.054.457-.167.076-.464.101-.935.075-1.405l.016-3.82zm5.004 2.473v2.768a21.7 21.7 0 001.493.049c.301.003.603-.013.902-.049a2.08 2.08 0 00.494-.123c.082-.279.163-.637.242-1.073h.343c-.08.697-.123 1.164-.123 1.395v.214c-.365 0-.725.038-1.074.038h-4.054v-.3h.151c.182.02.367-.008.536-.08a.567.567 0 00.14-.382c0-.198.038-.638.038-1.32v-2.59c0-.43 0-.779-.033-1.074a2.383 2.383 0 00-.064-.483.294.294 0 00-.102-.123 1.363 1.363 0 00-.413-.075l-.371-.016v-.322h4.387c.295 0 .59 0 .896.032a5.113 5.113 0 00-.204 1.47h-.316c.003-.29-.013-.58-.049-.869a4.052 4.052 0 00-1.39-.21c-.435 0-.892 0-1.37.054v2.597h.843c.435.029.872.002 1.3-.08.102-.054.15-.215.15-.494v-.311h.317c-.027.477-.038.864-.038 1.153 0 .29 0 .66.038 1.073h-.317v-.273c0-.306-.059-.494-.177-.537a4.103 4.103 0 00-1.278-.102h-.838m6.664 2.806c.237.041.478.063.719.065a1.806 1.806 0 001.31-.45 1.616 1.616 0 00.462-1.213c0-.247-.047-.49-.14-.72a1.144 1.144 0 00-.51-.536c-.4-.18-.839-.262-1.278-.236h-.58v3.085m0-5.831c0 .445-.037 1.019-.037 1.722v.627h.972c1.693 0 2.539.578 2.539 1.733a1.94 1.94 0 01-.794 1.61 2.909 2.909 0 01-1.901.638h-2.164v-.215c.13-.047.249-.12.349-.214a1.16 1.16 0 00.081-.45v-4.084a8.288 8.288 0 00-.059-1.25c-.038-.187-.215-.279-.537-.279h-.322V39h4.102c.265-.003.53.01.794.037-.123.467-.18.95-.166 1.432h-.312a5.565 5.565 0 00-.118-.89 4.995 4.995 0 00-1.331-.172c-.354.007-.707.03-1.058.07l-.038-.005zm6.857 3.073v2.768c.462.033.961.049 1.493.049.3.003.599-.013.897-.049.171-.02.338-.062.499-.123.082-.279.163-.637.242-1.073h.311c-.065.463-.106.928-.123 1.395v.214c-.366 0-.725.038-1.074.038h-4.054v-.3h.145c.183.022.368-.006.537-.08a.538.538 0 00.145-.382c0-.198.037-.638.037-1.32v-2.59c0-.43 0-.779-.032-1.074a2.456 2.456 0 00-.064-.483.294.294 0 00-.102-.123 1.408 1.408 0 00-.414-.075l-.365-.038v-.3h4.387c.295 0 .59 0 .891.032a5.334 5.334 0 00-.204 1.47h-.311a5.741 5.741 0 00-.054-.869 4.003 4.003 0 00-1.385-.21c-.435 0-.892 0-1.369.054v2.597h.843a5.15 5.15 0 001.299-.08c.102-.054.15-.215.15-.494v-.311h.312c0 .477-.033.864-.033 1.153 0 .29 0 .66.033 1.073h-.312v-.273c0-.306-.059-.494-.177-.537a4.103 4.103 0 00-1.278-.102h-.837m4.68 2.57a.906.906 0 00.451.166.678.678 0 00.457-.182c.18-.222.3-.486.349-.767a9.718 9.718 0 00.225-1.797c.049-.8.07-1.476.07-2.023a4.62 4.62 0 00-.059-.917c-.037-.156-.225-.231-.537-.231h-.343v-.322c.778.043 1.771.06 2.979.06l2.905-.055h.365v.306h-.36c-.316 0-.499.06-.536.172a9.051 9.051 0 00-.065 1.561v3.128c-.02.37.004.74.07 1.105.048.129.225.193.537.193h.376v.3h-2.846v-.3h.338c.296 0 .473-.059.537-.172.099-.368.134-.751.102-1.132v-3.111c0-.3 0-.821-.064-1.572-.29 0-.746-.038-1.359-.038-.612 0-1.132 0-1.524.038-.027.247-.038.665-.038 1.255 0 1.97-.145 3.321-.435 4.05-.29.73-.73 1.088-1.321 1.074a2.332 2.332 0 01-.333-.033v-.729l.059-.027zm10.868-5.751h-.199c-.375 0-.585.048-.638.155a6.21 6.21 0 00-.076 1.422V44.9l1.015-1.421 1.455-2.146 1.557-2.334.725.032 1.074-.032v.306h-.365c-.317 0-.494.059-.537.171a8.763 8.763 0 00-.07 1.562v2.628c-.023.538 0 1.076.07 1.61.048.134.225.198.537.198h.386v.3h-2.845v-.3h.327c.301 0 .489-.064.537-.193a6.73 6.73 0 00.097-1.61v-2.617c0-.258 0-.687.043-1.288l-3.077 4.523c-.309.494-.649.967-1.02 1.416-.282.11-.579.178-.88.204.053-.778.075-1.47.075-2.07v-2.94c.03-.47.001-.94-.086-1.401-.065-.118-.242-.177-.537-.177h-.349v-.322c.494 0 .94.032 1.353.032.537 0 1.042 0 1.434-.032l-.006.322zm86.529 2.586h-74.288v1.057h74.288v-1.057z" fill="#fff"/></g><defs><clipPath id="clip0_1002_564"><path fill="#fff" transform="translate(0 .908)" d="M0 0h260v45H0z"/></clipPath></defs></svg>