<svg width="815" height="654" fill="none" xmlns="http://www.w3.org/2000/svg"><g clip-path="url(#clip0_2143_3188)"><g clip-path="url(#clip1_2143_3188)" stroke-width=".5" stroke-miterlimit="10"><path d="M1301.1 1143.44s-632.675 40.06-660.278-228.685C613.22 646.007-35.307 738.172-35.307 738.172" stroke="#fff"/><path opacity=".99" d="M1306.26 1134.19s-635.687 43.08-664.545-229.693C612.862 631.732-34.606 730.394-34.606 730.394" stroke="#FAFAFB"/><path opacity=".98" d="M1311.42 1124.92s-638.71 46.1-668.814-230.681c-30.1-276.791-676.51-171.631-676.51-171.631" stroke="#F6F6F6"/><path opacity=".97" d="M1316.58 1115.67s-641.731 49.12-673.082-231.69c-31.351-280.807-676.69-169.155-676.69-169.155" stroke="#F1F1F2"/><path opacity=".96" d="M1321.73 1106.4s-644.738 52.15-677.345-232.69C611.784 588.886-32.496 707.036-32.496 707.036" stroke="#ECEDED"/><path opacity=".95" d="M1326.89 1097.15s-647.759 55.16-681.608-233.686c-33.848-288.85-677.07-164.202-677.07-164.202" stroke="#E8E8E9"/><path opacity=".94" d="M1332.05 1087.89s-650.777 58.18-685.876-234.685C611.075 560.339-31.084 691.476-31.084 691.476" stroke="#E3E3E5"/><path opacity=".94" d="M1337.21 1078.62s-653.794 61.21-690.149-235.685C610.714 546.043-30.381 683.69-30.381 683.69" stroke="#DEDFE0"/><path opacity=".93" d="M1342.37 1069.37s-656.815 64.23-694.412-236.682c-37.596-300.909-677.63-156.773-677.63-156.773" stroke="#DADADC"/><path opacity=".92" d="M1347.52 1060.1s-659.828 67.24-698.675-237.682c-38.847-304.926-677.819-154.3-677.819-154.3" stroke="#D5D5D7"/><path opacity=".91" d="M1352.68 1050.85s-662.84 70.26-702.934-238.688C609.651 503.211-28.256 660.346-28.256 660.346" stroke="#D1D1D3"/><path opacity=".9" d="M1357.84 1041.59s-665.86 73.29-707.205-239.677c-41.346-312.969-678.19-149.344-678.19-149.344" stroke="#CCCCCF"/><path opacity=".89" d="M1362.99 1032.33s-668.873 76.3-711.469-240.688C608.926 474.657-26.858 644.771-26.858 644.771" stroke="#C7C8CA"/><path opacity=".88" d="M1368.15 1023.07s-671.885 79.33-715.728-241.683C608.579 460.376-26.14 637-26.14 637" stroke="#C3C3C6"/><path opacity=".87" d="M1373.31 1013.81s-674.912 82.34-720.005-242.684C608.212 446.098-25.445 629.21-25.445 629.21" stroke="#BEBEC1"/><path opacity=".86" d="M1378.47 1004.55s-677.929 85.36-724.273-243.683C607.854 431.823-24.742 621.425-24.742 621.425" stroke="#B9BABD"/><path opacity=".85" d="M1383.62 995.293s-680.94 88.387-728.534-244.676c-47.591-333.07-679.13-136.961-679.13-136.961" stroke="#B5B5B8"/><path opacity=".84" d="M1388.78 986.029S704.822 1077.44 655.981 740.35C607.139 403.263-23.33 605.864-23.33 605.864" stroke="#B0B1B4"/><path opacity=".83" d="M1393.94 976.774S706.962 1071.2 656.873 730.091c-50.089-341.112-679.5-132.014-679.5-132.014" stroke="#ABACB0"/><path opacity=".82" d="M1399.1 967.508s-689.995 97.452-741.335-247.675C606.426 374.704-21.926 590.3-21.926 590.3" stroke="#A7A7AB"/><path opacity=".81" d="M1404.26 958.253S711.247 1058.72 658.657 709.575C606.067 360.428-21.214 582.517-21.214 582.517" stroke="#A2A3A7"/><path opacity=".81" d="M1409.41 948.986s-696.029 103.494-749.861-249.67c-53.84-353.163-680.06-124.585-680.06-124.585" stroke="#9D9EA2"/><path opacity=".8" d="M1414.57 939.731S715.523 1046.23 660.441 689.058C605.36 331.881-19.81 566.954-19.81 566.954" stroke="#999A9E"/><path opacity=".79" d="M1419.72 930.473S717.662 1040 661.325 678.796c-56.338-361.205-680.44-119.631-680.44-119.631" stroke="#94959A"/><path opacity=".78" d="M1424.89 921.21s-705.085 112.55-762.662-252.678C604.64 303.31-18.392 551.376-18.392 551.376" stroke="#8F9095"/><path opacity=".77" d="M1430.05 911.955S721.956 1027.52 663.117 658.282C604.282 289.034-17.695 543.607-17.695 543.607" stroke="#8B8C91"/><path opacity=".76" d="M1435.2 902.688S724.09 1021.28 664.004 648.012c-60.086-373.265-681-112.203-681-112.203" stroke="#86878C"/><path opacity=".75" d="M1440.36 893.434S726.229 1015.04 664.905 637.757C603.58 260.469-16.275 528.03-16.275 528.03" stroke="#828388"/><path opacity=".74" d="M1445.51 884.176S728.372 1008.8 665.785 627.504C603.198 246.205-15.587 520.257-15.587 520.257" stroke="#7D7E84"/><path opacity=".73" d="M1450.68 874.912s-720.166 127.648-784-257.675C602.854 231.915-14.881 512.463-14.881 512.463" stroke="#78797F"/><path opacity=".72" d="M1455.83 865.654S732.645 996.325 667.572 606.978c-65.073-389.347-681.75-102.301-681.75-102.301" stroke="#74757B"/><path opacity=".71" d="M1460.99 856.391S734.787 990.083 668.464 596.72C602.14 203.356-13.469 496.902-13.469 496.902" stroke="#6F7076"/><path opacity=".7" d="M1466.15 847.136S736.938 983.845 669.356 586.461C601.782 189.08-12.765 489.116-12.765 489.116" stroke="#6A6B72"/><path opacity=".69" d="M1471.3 837.878S739.069 977.609 670.248 576.203c-68.822-401.406-682.31-94.873-682.31-94.873" stroke="#66676E"/><path opacity=".69" d="M1476.46 828.615S741.211 971.368 671.14 565.944c-70.072-405.423-682.493-92.388-682.493-92.388" stroke="#616269"/><path opacity=".68" d="M1481.62 819.357S743.354 965.126 672.032 555.686-10.65 465.77-10.65 465.77" stroke="#5C5E65"/><path opacity=".67" d="M1486.78 810.093S745.496 958.884 672.927 545.419c-72.57-413.466-682.87-87.444-682.87-87.444" stroke="#585960"/><path opacity=".66" d="M1491.93 800.835S747.627 952.648 673.807 535.166c-73.82-417.483-683.053-84.96-683.053-84.96" stroke="#53545C"/><path opacity=".65" d="M1497.09 791.572s-747.309 154.829-822.379-266.67c-75.07-421.5-683.242-82.488-683.242-82.488" stroke="#4E5058"/><path opacity=".64" d="M1502.25 782.317S751.921 940.168 675.603 514.643C599.286 89.118-7.827 434.628-7.827 434.628" stroke="#4A4B53"/><path opacity=".63" d="M1507.4 773.059S754.051 933.932 676.483 504.391C598.915 74.849-7.139 426.857-7.139 426.857" stroke="#45474F"/><path opacity=".62" d="M1512.57 763.796s-756.367 163.898-835.183-269.67C598.569 60.568-6.415 419.068-6.415 419.068" stroke="#40424A"/><path opacity=".61" d="M1517.72 754.538S758.336 921.449 678.27 483.865C598.205 46.281-5.72 411.278-5.72 411.278" stroke="#3C3D46"/><path opacity=".6" d="M1522.88 745.274S760.478 915.207 679.162 473.606C597.846 32.005-5.02 403.501-5.02 403.501" stroke="#373941"/><path opacity=".59" d="M1528.03 736.016S762.618 908.975 680.054 463.348C597.488 17.73-4.308 395.718-4.308 395.718" stroke="#32343D"/><path opacity=".58" d="M1533.19 726.762S764.76 902.733 680.946 453.09C597.133 3.446-3.604 387.932-3.604 387.932" stroke="#2E3039"/><path opacity=".57" d="M1538.36 717.498S766.903 896.491 681.838 442.831C596.774-10.829-2.904 380.155-2.904 380.155" stroke="#292B34"/><path opacity=".56" d="M1543.51 708.24S769.042 890.258 682.731 432.573C596.419-25.113-2.2 372.369-2.2 372.369" stroke="#252630"/><path opacity=".56" d="M1548.67 698.977S771.188 884.008 683.623 422.314C596.06-39.389-1.489 364.586-1.489 364.586" stroke="#20222B"/><path opacity=".55" d="M1553.82 689.718S773.318 877.772 684.515 412.055C595.711-53.661-.788 356.808-.788 356.808" stroke="#1B1D27"/><path opacity=".54" d="M1558.98 680.464S775.467 871.542 685.407 401.797C595.347-67.948-.085 349.022-.085 349.022" stroke="#171823"/><path opacity=".53" d="M1564.15 671.2S777.612 865.292 686.299 391.539C594.985-82.215.627 341.239.627 341.239" stroke="#12141E"/><path opacity=".52" d="M1569.3 661.943S779.743 859.056 687.191 381.28C594.63-96.499 1.328 333.461 1.328 333.461" stroke="#0D0F1A"/><path opacity=".51" d="M1574.46 652.679S781.894 852.818 688.086 371.013C594.278-110.792 2.034 325.667 2.034 325.667" stroke="#090B15"/><path opacity=".5" d="M1579.61 643.421S784.025 846.581 688.966 360.76c-95.058-485.821-686.24-42.874-686.24-42.874" stroke="#040611"/></g></g><defs><clipPath id="clip0_2143_3188"><path fill="#fff" d="M0 0h815v654H0z"/></clipPath><clipPath id="clip1_2143_3188"><path fill="#fff" transform="rotate(-160.897 787.403 525.18)" d="M0 0h1596.9v800.494H0z"/></clipPath></defs></svg>