<svg width="48" height="40" fill="none" xmlns="http://www.w3.org/2000/svg"><g clip-path="url(#clip0_2143_3597)"><path d="M9.34 25.788h30.224c.917 0 1.022-.066 1.375-.904l1.126-2.702c1.742-4.151 3.484-8.316 5.212-12.468.118-.28.236-.625.223-.918-.013-.346-.236-.572-.615-.626a4.975 4.975 0 00-.786-.053H10.558c-.668 0-1.048-.226-1.376-.812-.602-1.117-1.23-2.222-1.86-3.34a150.92 150.92 0 01-1.78-3.18C5.202.186 4.822-.04 4.167 0 3.59.04 3 .027 2.438.027 2.098.013 1.77.013 1.43.013.867.027.513.333.5.812c0 .226.065.412.196.559.17.173.446.266.76.28h.301c.576 0 1.166 0 1.755-.014.55-.027.799.28.969.572a268.472 268.472 0 001.86 3.313c.615 1.105 1.244 2.21 1.86 3.314.156.28.274.612.366 1.011 1.008 4.165 1.99 8.343 2.986 12.508l.21.905c.025.12.052.24.078.373l.091.532h-1.087a31.233 31.233 0 00-1.584 0c-1.833 0-3.064 1.224-3.143 3.06-.026.865-.026 1.557.04 2.196.143 1.677 1.414 2.861 3.09 2.888h3.968l-.223.399c-.825 1.49-.969 2.874-.458 4.258.34.932.93 1.677 1.742 2.236a4.507 4.507 0 005.33-.187c2.907-2.422 1.27-6.2.55-6.666h14.038l-.21.386c-.536.998-.772 1.916-.733 2.874a4.606 4.606 0 004.806 4.378c1.192-.053 2.344-.626 3.156-1.557.825-.932 1.244-2.103 1.166-3.3-.158-2.582-2.122-4.445-4.689-4.445H9.72c-1.493 0-1.99-.505-2.003-2.009v-1.264c.039-1.091.563-1.61 1.624-1.623zm11.105-1.65h-6.81l-1.506-6.347h8.316v6.347zm21.476-5.841l-.314.785a695.125 695.125 0 01-1.938 4.63c-.118.267-.498.426-.733.44-.393.013-.8.013-1.192.013h-4.688v-6.374h8.865l.026.253c0 .093.014.173-.026.253zm-8.879-8.49h12.454l-.602 1.45c-.629 1.49-1.231 2.941-1.846 4.392-.092.226-.393.466-.655.466-2.043.013-4.086.013-6.129.013h-3.222v-6.32zM22.134 9.78h9.22v6.308h-9.22V9.78zm0 8.011h9.232v6.334h-9.232v-6.334zM11.63 15.65c-.353-1.477-.707-2.954-1.06-4.445l-.328-1.397H20.47v6.32h-2.633c-1.885 0-3.758 0-5.644-.012-.222 0-.51-.227-.563-.466zm24.122 17.538a2.892 2.892 0 014.177.027 3.01 3.01 0 01.865 2.129c0 1.663-1.336 3.007-2.96 3.007-1.623 0-2.946-1.357-2.946-3.02 0-.812.301-1.57.877-2.143h-.013zm-21.044.04a2.958 2.958 0 012.095-.918c.786 0 1.52.306 2.095.878.576.559.89 1.317.89 2.116v.026c0 1.664-1.309 3.008-2.933 3.021h-.026c-1.624 0-2.96-1.33-2.986-2.98 0-.8.302-1.558.865-2.143z" fill="#24FCFF"/></g><defs><clipPath id="clip0_2143_3597"><path fill="#fff" transform="translate(.5)" d="M0 0h47v40H0z"/></clipPath></defs></svg>