<svg width="30" height="30" fill="none" xmlns="http://www.w3.org/2000/svg"><path d="M14.397 9.107c-1.08 0-2.753-1.228-4.514-1.184-2.324.03-4.455 1.347-5.654 3.434-2.412 4.188-.621 10.375 1.732 13.779 1.154 1.657 2.516 3.522 4.321 3.463 1.732-.074 2.383-1.125 4.485-1.125 2.087 0 2.679 1.125 4.514 1.08 1.865-.03 3.049-1.687 4.188-3.36 1.317-1.923 1.865-3.788 1.895-3.892-.045-.014-3.626-1.39-3.67-5.535-.03-3.463 2.826-5.12 2.96-5.195-1.629-2.383-4.13-2.649-5.003-2.708-2.28-.178-4.189 1.243-5.254 1.243zm3.848-3.493c.962-1.154 1.598-2.767 1.42-4.366-1.376.06-3.033.918-4.025 2.072-.888 1.021-1.658 2.664-1.45 4.233 1.524.118 3.093-.784 4.055-1.939z" fill="#fff"/></svg>