<svg width="30" height="30" fill="none" xmlns="http://www.w3.org/2000/svg"><path d="M3.78 9.462A12.333 12.333 0 0114.8 2.667c3.324 0 6.116 1.222 8.251 3.212l-3.536 3.538C18.236 8.194 16.611 7.57 14.8 7.57c-3.213 0-5.932 2.171-6.9 5.085A7.409 7.409 0 007.512 15c0 .814.141 1.603.388 2.343.969 2.916 3.687 5.085 6.9 5.085 1.659 0 3.071-.438 4.176-1.178a5.674 5.674 0 002.462-3.722H14.8v-4.77h11.616c.145.806.224 1.647.224 2.522 0 3.757-1.344 6.919-3.678 9.065-2.04 1.884-4.832 2.988-8.162 2.988A12.33 12.33 0 013.78 9.463z" fill="#fff"/></svg>