<svg width="112" height="49" fill="none" xmlns="http://www.w3.org/2000/svg"><g clip-path="url(#clip0_2143_3362)"><path opacity=".2" d="M111.231.882l-7.646 6.708-4.731 7.428L88.62 18.8l-9.836-9.54-4.616 4.387-10.022 1.486-7.926 12.882-8.414-7.01-5.618 1.51-4.871 6.382-4.056-4.062-5.617 1.857-10.91 7.73-9.09 3.226-6.922-5.57s-.303 16.503 0 16.805c.303.301 110.508 0 110.508 0V.882z" fill="url(#paint0_linear_2143_3362)"/><path d="M111.231.882l-7.645 6.708-4.732 7.428L88.62 18.8l-9.836-9.54-4.615 4.387-10 1.486-7.925 12.882-8.438-7.033-5.617 1.509-4.872 6.406-4.033-4.062-5.617 1.857-10.909 7.73-9.09 3.25-6.946-5.595" stroke="#1BBCBC" stroke-miterlimit="10"/></g><defs><linearGradient id="paint0_linear_2143_3362" x1="55.918" y1="15.505" x2="55.918" y2="42.268" gradientUnits="userSpaceOnUse"><stop stop-color="#1BBCBC"/><stop offset="1" stop-color="#fff" stop-opacity="0"/></linearGradient><clipPath id="clip0_2143_3362"><path fill="#fff" d="M0 0h112v49H0z"/></clipPath></defs></svg>