<svg width="113" height="49" fill="none" xmlns="http://www.w3.org/2000/svg"><path d="M1.101.4l6.467 18.15 8.317-3.832 7.966 3.833L36.644 7.9l11.785 8.653 7.965 11.333 8.459-4.985 5.646-.587 4.897 7.994 4.076-4.256 5.647.494 10.965 7.853 9.114-3.174 6.982 7.006" stroke="#BC1B1B" stroke-miterlimit="10"/><path opacity=".2" d="M112.18 37.832l-6.982-7.007-9.114 3.174-10.965-7.83-5.647-.493-4.076 4.232-4.897-7.994-5.646.587-8.458 5.009-7.967-11.333L36.645 7.5 23.85 18.175l-7.966-3.832-8.317 3.832L1.1 0v47.777h111.08v-9.945z" fill="url(#paint0_linear_2143_3404)"/><defs><linearGradient id="paint0_linear_2143_3404" x1="56.652" y1="15.024" x2="56.652" y2="43.028" gradientUnits="userSpaceOnUse"><stop stop-color="#BC1B1B"/><stop offset="1" stop-color="#fff" stop-opacity="0"/></linearGradient></defs></svg>