<svg width="1468" height="868" fill="none" xmlns="http://www.w3.org/2000/svg"><g clip-path="url(#clip0_2110_1813)" stroke-width=".5" stroke-miterlimit="10"><path d="M74.397 897.386C541.288 77.822 615.043 390.647 651.172 470.319c33.552 73.299 123.045 115.895 201.092 95.72 111.379-28.798 162.985-152.277 227.765-247.351 110.86-162.724 302.23-267.576 499.04-273.425 39.62-1.175 80.8 1.813 115.71 20.59 46.78 25.17 75.58 75.753 86.96 127.636 11.37 51.882 7.66 105.74 3.88 158.73" stroke="url(#paint0_linear_2110_1813)"/><path opacity=".99" d="M75.647 905.691C175.753 733.523 258.1 611.454 325.842 526.945c243.871-306.553 295.821-105.549 325.153-45.426 33.711 71.138 122.204 112.356 199.414 92.157 110.665-29.1 162.501-150.417 227.141-243.578 110.98-159.434 300.5-260.91 496.02-266.607 39.29-1.15 80.13 1.746 114.84 20.084 46.42 24.587 75.26 74.006 87.06 124.631 12.56 50.348 11.87 96.252 10.21 155.629" stroke="url(#paint1_linear_2110_1813)"/><path opacity=".98" d="M76.896 913.996C176.967 745.451 259.918 625.24 327.617 541.045c241.745-300.646 292.926-105.996 323.194-48.315 33.873 68.984 121.36 108.808 197.737 88.594 109.951-29.403 162.012-148.549 226.522-239.806 111.11-156.154 298.76-254.257 493-259.797 38.95-1.118 79.44 1.69 113.96 19.579 46.07 23.996 74.93 72.269 87.15 121.621 13.75 48.806 16.08 86.763 16.54 152.538" stroke="url(#paint2_linear_2110_1813)"/><path opacity=".97" d="M78.146 922.301c100.04-164.932 183.431-283.392 251.247-367.157 239.026-295.216 290.022-106.439 321.243-51.207 34.031 66.824 120.518 105.27 196.062 85.04 109.236-29.706 161.312-146.834 225.902-236.033 110.87-153.124 297.02-247.604 489.96-252.993 38.62-1.083 78.77 1.632 113.09 19.066 45.71 23.413 74.62 70.529 87.25 118.618 14.93 47.272 20.28 77.275 22.85 149.44" stroke="url(#paint3_linear_2110_1813)"/><path opacity=".96" d="M79.396 930.606c100.009-161.319 183.838-278.037 251.775-361.354 236.28-289.788 287.12-106.876 319.284-54.097 34.19 64.662 119.72 101.913 194.392 81.475 108.598-29.726 160.773-145.023 225.293-232.261 110.88-149.926 295.27-240.946 486.92-246.18 38.29-1.058 78.12 1.504 112.21 18.56 45.41 22.727 74.29 68.792 87.34 115.616 16.12 45.73 24.49 67.789 29.2 146.347" stroke="url(#paint4_linear_2110_1813)"/><path opacity=".95" d="M80.647 938.911c99.97-157.703 184.244-272.681 252.308-355.562 233.509-284.384 284.216-107.32 317.332-56.988 34.352 62.508 118.891 98.412 192.715 77.911 107.904-29.967 160.218-143.211 224.668-228.488 110.9-146.728 293.53-234.292 483.9-239.369 37.96-1.027 77.46 1.424 111.34 18.046 45.06 22.115 73.97 67.044 87.43 112.606 17.3 44.195 28.7 58.301 35.52 143.257" stroke="url(#paint5_linear_2110_1813)"/><path opacity=".94" d="M81.896 947.216c99.94-154.091 184.651-267.325 252.834-349.768 230.718-278.99 281.313-107.763 315.381-59.879 34.51 60.347 118.062 94.911 191.041 74.356 107.212-30.2 159.668-141.4 224.048-224.716 110.91-143.541 291.79-227.639 480.87-232.556 37.61-1 76.78 1.347 110.45 17.543 44.72 21.501 73.65 65.307 87.53 109.603 18.48 42.654 32.91 48.813 41.84 140.159" stroke="url(#paint6_linear_2110_1813)"/><path opacity=".93" d="M83.146 955.522c99.912-150.471 185.05-261.968 253.359-343.974 227.9-273.605 278.412-108.199 313.422-62.769 34.67 58.187 117.234 91.411 189.372 70.792 106.518-30.441 159.125-139.59 223.431-220.944 110.93-140.346 290.06-220.98 477.85-225.746 37.28-.967 76.1 1.271 109.57 17.037 44.38 20.898 73.32 63.57 87.63 106.601 19.65 41.114 37.11 39.325 48.17 137.066" stroke="url(#paint7_linear_2110_1813)"/><path opacity=".92" d="M84.397 963.827C184.27 816.972 269.838 707.22 338.28 625.648c225.062-268.249 275.516-108.646 311.471-65.661 34.831 56.033 116.403 87.902 187.696 67.236 105.825-30.682 158.589-137.773 222.812-217.17 110.96-137.154 288.31-214.328 474.82-218.934 36.94-.933 75.43 1.194 108.69 16.524 44.03 20.286 73.01 61.83 87.72 103.591 20.84 39.579 41.32 29.836 54.49 133.967" stroke="url(#paint8_linear_2110_1813)"/><path opacity=".91" d="M85.647 972.132c99.842-143.242 185.84-251.249 254.41-332.385 222.207-262.894 272.612-109.089 309.519-68.552 34.99 53.872 115.574 84.401 186.019 63.674 105.128-30.931 158.049-135.965 222.195-213.399 110.98-133.96 286.57-207.666 471.78-212.121 36.61-.908 74.76 1.118 107.82 16.018 43.69 19.675 72.69 60.094 87.82 100.589 22.02 38.037 45.53 20.348 60.81 130.877" stroke="url(#paint9_linear_2110_1813)"/><path opacity=".9" d="M86.897 980.436c99.811-139.628 186.228-245.895 254.935-326.589 219.319-257.564 269.711-109.525 307.56-71.442 35.149 51.711 114.743 80.893 184.35 60.109 104.434-31.172 157.509-134.157 221.578-209.626 111.02-130.771 284.82-201.014 468.76-205.311 36.27-.876 74.08 1.041 106.94 15.505 43.33 19.073 72.36 58.346 87.91 97.586 23.21 36.503 49.74 10.867 67.15 127.783" stroke="url(#paint10_linear_2110_1813)"/><path opacity=".89" d="M88.147 988.741c99.775-136.005 186.609-240.539 255.461-320.795 216.41-252.242 266.807-109.969 305.608-74.333 35.311 49.557 113.91 77.377 182.676 56.554 103.737-31.421 156.971-132.341 220.958-205.854 111.06-127.583 283.09-194.355 465.73-198.498 35.93-.849 73.4.974 106.06 14.999 42.99 18.462 72.04 56.609 88 94.576 24.39 34.961 53.95 1.379 73.47 124.685" stroke="url(#paint11_linear_2110_1813)"/><path opacity=".88" d="M89.397 997.047c99.744-132.393 186.99-235.185 255.995-315.004 213.477-246.939 263.903-110.412 303.649-77.222 35.47 47.396 113.078 73.869 180.998 52.991 103.041-31.669 156.44-130.535 220.341-202.081 111.1-124.396 281.34-187.702 462.7-191.688 35.6-.817 72.73.897 105.19 14.486 42.64 17.858 71.72 54.869 88.1 91.573 25.57 33.427 58.16-8.109 79.79 121.595" stroke="url(#paint12_linear_2110_1813)"/><path opacity=".87" d="M90.647 1005.35c99.706-128.776 187.369-229.835 256.52-309.207 210.523-241.655 261-110.856 301.698-80.115 35.631 45.243 112.245 70.353 179.321 49.429 102.352-31.92 155.918-128.723 219.724-198.309 111.14-121.208 279.6-181.041 459.67-184.875 35.26-.782 72.05.821 104.31 13.98 42.29 17.249 71.4 53.132 88.19 88.571 26.76 31.885 62.37-17.597 86.13 118.494" stroke="url(#paint13_linear_2110_1813)"/><path opacity=".86" d="M91.897 1013.66c99.675-125.168 187.742-224.482 257.046-303.418 207.544-236.388 258.106-111.294 299.746-83.006 35.79 43.082 111.419 66.835 177.654 45.871 101.653-32.176 155.388-126.909 219.107-194.536 111.2-118.018 277.86-174.388 456.64-178.065 34.93-.757 71.37.747 103.44 13.474 41.94 16.648 71.08 51.385 88.28 85.561 27.94 30.343 66.58-27.085 92.45 115.404" stroke="url(#paint14_linear_2110_1813)"/><path opacity=".85" d="M93.147 1021.96C192.79 900.41 281.26 802.834 350.718 724.342 555.265 493.21 605.92 612.604 648.506 638.447c35.949 40.92 110.965 64.474 175.977 42.308 100.364-34.219 154.866-125.098 218.487-190.756 111.26-114.835 276.12-167.737 453.61-171.252 34.6-.725 70.7.677 102.56 12.961 41.59 16.036 70.76 49.647 88.38 82.558 29.13 28.809 70.79-36.573 98.77 112.313" stroke="url(#paint15_linear_2110_1813)"/><path opacity=".84" d="M94.397 1030.27c99.608-117.932 188.481-213.789 258.097-291.828C554.009 512.543 604.792 626.26 648.33 649.655c36.111 38.767 110.155 61.001 174.302 38.753 99.638-34.561 154.352-123.29 217.868-186.984 111.32-111.645 274.38-161.076 450.58-164.439 34.26-.699 70.02.603 101.68 12.458 41.24 15.435 70.43 47.91 88.47 79.556 30.3 27.268 75-46.062 105.1 109.214" stroke="url(#paint16_linear_2110_1813)"/><path opacity=".83" d="M95.647 1038.57c99.577-114.314 188.844-208.431 258.625-286.021 198.462-220.676 249.397-112.618 293.882-91.686 36.277 36.603 109.341 57.521 172.633 35.188 98.9-34.907 153.837-121.482 217.253-183.212 111.4-108.46 272.63-154.422 447.55-157.629 33.93-.666 69.34.529 100.8 11.945 40.89 14.833 70.11 46.17 88.57 76.546 31.49 25.734 79.2-55.551 111.43 106.121" stroke="url(#paint17_linear_2110_1813)"/><path opacity=".82" d="M96.897 1046.88c99.547-110.706 189.205-203.09 259.151-280.231 195.392-215.482 246.493-113.062 291.923-94.576 36.436 34.442 108.528 54.041 170.955 31.626 98.168-35.238 153.326-119.666 216.634-179.439 111.48-105.267 270.89-147.762 444.52-150.817 33.6-.634 68.66.46 99.93 11.439 40.53 14.232 69.78 44.433 88.66 73.543 32.67 24.193 83.4-65.036 117.75 103.024" stroke="url(#paint18_linear_2110_1813)"/><path opacity=".81" d="M98.147 1055.18c99.508-107.085 189.555-197.745 259.684-274.434 192.295-210.295 243.598-113.508 289.972-97.468 36.598 32.289 107.72 50.551 169.281 28.071 97.433-35.576 152.822-117.852 216.016-175.667 111.55-102.074 269.15-141.111 441.49-144.006 33.26-.607 67.99.386 99.05 10.933 40.19 13.631 69.47 42.686 88.76 70.541 33.86 22.658 87.61-74.524 124.08 99.933" stroke="url(#paint19_linear_2110_1813)"/><path opacity=".8" d="M99.397 1063.49c99.477-103.477 189.905-192.41 260.209-268.645 189.171-205.133 240.696-113.944 288.013-100.357 36.757 30.128 106.419 45.695 167.604 24.509 97.478-33.756 152.318-116.038 215.397-171.895 111.65-98.878 267.41-134.45 438.46-137.193 32.93-.575 67.31.319 98.17 10.42 39.83 13.032 69.15 40.948 88.86 67.53 35.03 21.116 91.82-84.012 130.4 96.833" stroke="url(#paint20_linear_2110_1813)"/><path opacity=".79" d="M100.647 1071.79c99.449-99.851 190.245-187.07 260.735-262.845 186.027-199.983 237.793-114.388 286.061-103.249 36.916 27.967 105.583 42.171 165.935 20.943 96.781-34.029 151.816-114.216 214.772-168.121 111.75-95.684 265.68-127.797 435.44-130.381 32.58-.548 66.62.245 97.29 9.914 39.48 12.431 68.83 39.209 88.95 64.528 36.22 19.574 96.03-93.5 136.73 93.742" stroke="url(#paint21_linear_2110_1813)"/><path opacity=".78" d="M101.897 1080.1c99.411-96.241 190.578-181.738 261.261-257.056 182.849-194.855 234.888-114.831 284.11-106.14 37.077 25.813 104.744 38.64 164.259 17.388 96.078-34.301 151.323-112.397 214.153-164.349 111.86-92.49 263.93-121.136 432.41-123.57 32.26-.516 65.94.181 96.42 9.4 39.12 11.832 68.5 37.472 89.05 61.526 37.4 18.039 100.23-102.989 143.05 90.651" stroke="url(#paint22_linear_2110_1813)"/><path opacity=".77" d="M103.147 1088.4c99.38-92.623 190.915-176.406 261.786-251.256C544.59 647.396 596.921 721.877 647.084 728.115c37.236 23.652 103.91 35.097 162.582 13.825 95.379-34.583 150.838-110.581 213.534-160.577 111.98-89.285 262.2-114.485 429.38-116.757 31.93-.484 65.26.114 95.55 8.894 38.75 11.234 68.18 35.732 89.14 58.514 38.59 16.497 104.44-112.478 149.38 87.55" stroke="url(#paint23_linear_2110_1813)"/><path opacity=".76" d="M104.397 1096.71c99.341-89.01 191.237-171.078 262.312-245.466 176.441-184.66 229.084-115.711 280.199-111.921 37.396 21.49 103.072 31.566 160.916 10.268 94.679-34.866 150.353-108.758 212.916-156.805 112.1-86.081 260.45-107.832 426.36-109.947 31.58-.457 64.57.047 94.66 8.381 38.41 10.64 67.86 33.987 89.24 55.511 39.77 14.963 108.65-121.966 155.7 84.46" stroke="url(#paint24_linear_2110_1813)"/><path opacity=".75" d="M105.647 1105.01c99.313-85.39 191.557-165.749 262.837-239.667 173.195-179.586 226.188-116.157 278.241-114.81 37.557 19.337 102.238 28.024 159.238 6.705 93.978-35.155 149.87-106.933 212.297-153.032 112.23-82.871 258.71-101.171 423.32-103.134 31.26-.425 63.89-.017 93.8 7.875 38.04 10.049 67.53 32.25 89.33 52.508 40.95 13.424 112.86-131.453 162.02 81.362" stroke="url(#paint25_linear_2110_1813)"/><path opacity=".75" d="M106.897 1113.32c99.282-81.78 191.874-160.437 263.363-233.877C540.19 704.902 593.547 762.85 646.549 761.741c37.716 17.176 101.397 24.485 157.561 3.142 93.279-35.437 149.397-105.104 211.68-149.259 112.36-79.663 256.97-94.518 420.3-96.325 30.92-.392 63.21-.082 92.91 7.37 37.69 9.453 67.22 30.51 89.43 49.498 42.13 11.89 117.07-140.941 168.36 78.269" stroke="url(#paint26_linear_2110_1813)"/><path opacity=".74" d="M108.147 1121.62c99.244-78.16 192.173-155.118 263.896-228.08 166.635-169.511 220.383-117.037 274.338-120.594 37.877 15.023 100.563 20.944 155.886-.412 92.575-35.735 148.927-103.267 211.063-145.488 112.51-76.44 255.23-87.859 417.27-89.511 30.58-.366 62.52-.147 92.03 6.859 37.32 8.861 66.89 28.773 89.52 46.496 43.31 10.347 121.28-150.43 174.68 75.178" stroke="url(#paint27_linear_2110_1813)"/><path opacity=".73" d="M109.397 1129.93c99.213-74.55 192.477-149.818 264.422-222.291 163.314-164.507 217.479-117.48 272.378-123.483 38.037 12.862 99.72 17.397 154.217-3.977 91.871-36.032 148.456-101.43 210.446-141.715 112.65-73.212 253.48-81.206 414.23-82.698 30.25-.334 61.84-.211 91.16 6.352 36.97 8.271 66.57 27.026 89.62 43.494 44.49 8.805 125.48-159.918 181 72.08" stroke="url(#paint28_linear_2110_1813)"/><path opacity=".72" d="M110.647 1138.23c99.183-70.93 192.764-144.512 264.948-216.491 159.981-159.516 214.578-117.917 270.427-126.375 38.195 10.701 98.883 13.848 152.54-7.54 91.166-36.329 147.995-99.588 209.828-137.942 112.81-69.978 251.74-74.546 411.21-75.889 29.9-.306 61.15-.267 90.27 5.84 36.61 7.682 66.25 25.289 89.71 40.483 45.68 7.271 129.7-169.406 187.34 68.987" stroke="url(#paint29_linear_2110_1813)"/><path opacity=".71" d="M111.897 1146.54c99.146-67.31 193.047-139.22 265.475-210.694C533.984 781.29 589.054 817.483 645.848 806.58c38.357 8.547 98.037 10.293 150.865-11.095 90.46-36.635 147.535-97.746 209.207-134.17 112.99-66.731 250-67.893 408.18-69.076 29.57-.274 60.47-.334 89.4 5.334 36.25 7.098 65.93 23.549 89.81 37.481 46.86 5.728 133.9-178.895 193.65 65.888" stroke="url(#paint30_linear_2110_1813)"/><path opacity=".7" d="M113.147 1154.84c99.116-63.7 193.321-133.93 266.001-204.894 153.23-149.609 208.778-118.807 266.517-132.156 38.516 6.386 97.201 6.744 149.196-14.66 89.745-36.937 147.087-95.891 208.589-130.398 113.16-63.484 248.27-61.234 405.15-62.265 29.25-.242 59.79-.39 88.53 4.828 35.88 6.51 65.61 21.812 89.9 34.478 48.05 4.195 138.11-188.383 199.98 62.798" stroke="url(#paint31_linear_2110_1813)"/><path opacity=".69" d="M114.397 1163.15c99.085-60.09 193.582-128.66 266.527-199.105 149.812-144.692 205.877-119.242 264.565-135.047 38.675 4.225 96.354 3.189 147.521-18.215 89.036-37.25 146.632-94.034 207.97-126.625 113.35-60.217 246.52-54.581 402.12-55.453 28.91-.215 59.1-.444 87.65 4.315 35.52 5.929 65.29 20.072 89.99 31.468 49.23 2.652 142.32-197.869 206.32 59.705" stroke="url(#paint32_linear_2110_1813)"/><path opacity=".68" d="M115.647 1171.45c99.047-56.47 193.84-123.39 267.053-193.305 146.381-139.789 202.973-119.686 262.606-137.937 38.844 2.069 95.515-.368 145.844-21.777 88.324-37.571 146.186-92.171 207.351-122.853 113.539-56.949 244.779-47.927 399.089-48.64 28.57-.183 58.41-.5 86.77 3.809 35.16 5.348 64.97 18.327 90.09 28.466 50.41 1.12 146.52-207.357 212.64 56.606" stroke="url(#paint33_linear_2110_1813)"/><path opacity=".67" d="M116.897 1179.76c99.018-52.85 194.085-118.14 267.586-187.518 142.923-134.919 200.069-120.13 260.652-140.836 39.003-.092 94.667-3.93 144.167-25.34 87.613-37.891 145.744-90.301 206.733-119.081 113.735-53.658 243.035-41.266 396.065-41.829 28.23-.156 57.72-.557 85.89 3.295 34.8 4.768 64.64 16.59 90.19 25.464 51.59-.422 150.73-216.846 218.96 53.516" stroke="url(#paint34_linear_2110_1813)"/><path opacity=".66" d="M118.147 1188.06c98.98-49.23 194.318-112.89 268.111-181.72C525.7 876.275 583.427 885.776 644.959 862.614c39.162-2.253 93.818-7.493 142.5-28.898 86.893-38.209 145.304-88.422 206.114-115.308 113.937-50.36 241.297-34.616 393.027-35.017 27.91-.124 57.05-.612 85.03 2.79 34.43 4.187 64.32 14.85 90.27 22.453 52.78-1.963 154.94-226.333 225.29 50.416" stroke="url(#paint35_linear_2110_1813)"/><path opacity=".65" d="M119.397 1196.37c98.949-45.62 194.538-107.66 268.637-175.93 135.942-125.242 194.272-121.011 256.742-146.616 39.323-4.407 92.976-11.057 140.822-32.46 86.177-38.545 144.864-86.545 205.496-111.536 114.136-47.046 239.556-27.955 390.006-28.207 27.57-.091 56.35-.666 84.14 2.277 34.08 3.614 64 13.113 90.38 19.451 53.95-3.498 159.14-235.822 231.61 47.325" stroke="url(#paint36_linear_2110_1813)"/><path opacity=".64" d="M120.647 1204.67c98.918-42.01 194.74-102.43 269.163-170.13C522.227 914.096 581.178 913.085 644.6 885.032c39.483-6.568 92.125-14.627 139.145-36.023 85.452-38.878 144.43-84.651 204.878-107.763 114.347-43.717 237.817-21.302 386.977-21.394 27.23-.065 55.66-.715 83.26 1.773 33.71 3.033 63.67 11.366 90.46 16.441 55.14-5.04 163.36-245.31 237.94 44.226" stroke="url(#paint37_linear_2110_1813)"/><path opacity=".63" d="M121.897 1212.98c98.879-38.39 194.931-97.24 269.688-164.34 128.869-115.664 188.467-121.891 252.831-152.398 39.644-8.721 91.274-18.197 137.479-39.58 84.735-39.214 143.162-85.284 204.261-103.983 116.144-35.551 236.074-14.641 383.944-14.589 26.89-.032 54.97-.761 82.38 1.268 33.36 2.459 63.35 9.628 90.56 13.438 56.33-6.574 167.56-254.798 244.27 41.133" stroke="url(#paint38_linear_2110_1813)"/><path opacity=".62" d="M123.148 1221.28c98.851-34.77 195.11-92.05 270.213-158.54 125.301-110.921 185.563-122.335 250.88-155.29 39.803-10.882 90.422-21.767 135.801-43.143 84.006-39.563 142.824-83.277 203.642-100.21 116.176-32.351 234.336-7.99 380.916-7.779 26.57-.008 54.3-.809 81.51.754 32.99 1.897 63.03 7.889 90.65 10.436 57.51-8.116 171.77-264.286 250.59 38.043" stroke="url(#paint39_linear_2110_1813)"/><path opacity=".61" d="M124.397 1229.59c98.821-31.16 195.274-86.9 270.739-152.75 121.717-106.198 182.66-122.779 248.929-158.182 39.962-13.043 89.568-25.345 134.127-46.698 83.275-39.911 143.123-78.919 203.023-96.438 114.985-33.632 232.595-1.329 377.885-.966 26.23.027 53.61-.855 80.63.248 32.63 1.324 62.71 6.152 90.75 7.426 58.69-9.651 175.98-273.775 256.91 34.945" stroke="url(#paint40_linear_2110_1813)"/><path opacity=".6" d="M125.648 1237.89c98.781-27.54 195.412-81.75 271.264-146.95 118.105-101.508 179.766-123.218 246.97-161.072 40.123-15.196 88.714-28.922 132.449-50.26 82.544-40.268 142.689-77 202.405-92.666 115.204-30.236 230.844 5.324 374.864 5.844 25.89.059 52.91-.893 79.75-.265 32.27.761 62.39 4.412 90.84 4.424 59.88-11.193 180.19-283.263 263.25 31.851" stroke="url(#paint41_linear_2110_1813)"/><path opacity=".59" d="M126.898 1246.2c98.75-23.93 195.539-76.65 271.797-141.16 114.478-96.84 176.863-123.665 245.018-163.966 40.283-17.358 87.858-32.508 130.78-53.826 81.81-40.632 142.252-75.063 201.787-88.893 115.41-26.822 229.1 11.977 371.83 12.657 25.55.086 52.24-.935 78.88-.771 31.91.196 62.06 2.667 90.94 1.421 61.05-12.732 184.39-292.751 269.56 28.754" stroke="url(#paint42_linear_2110_1813)"/><path opacity=".58" d="M128.148 1254.5c98.722-20.31 195.634-71.57 272.325-135.36 110.831-92.2 173.959-124.101 243.067-166.851 40.442-19.519 87.004-36.085 129.105-57.38 81.065-41.002 141.816-73.119 201.168-85.121 115.627-23.383 227.367 18.636 368.807 19.467 25.22.118 51.55-.973 78-1.276 31.54-.368 61.75.927 91.03-1.59 62.24-14.266 188.61-302.239 275.89 25.663" stroke="url(#paint43_linear_2110_1813)"/><path opacity=".57" d="M129.398 1262.81c98.684-16.7 195.716-66.53 272.851-129.57 107.168-87.59 171.057-124.54 241.108-169.74 40.603-21.673 86.136-39.676 127.428-60.944 80.319-41.371 141.375-71.163 200.549-81.348 115.816-19.931 225.626 25.289 365.766 26.28 24.9.142 50.87-1.012 77.13-1.79 31.19-.925 61.43-.81 91.13-4.591 63.42-15.809 192.81-311.728 282.22 22.569" stroke="url(#paint44_linear_2110_1813)"/><path opacity=".56" d="M130.648 1271.11c98.653-13.08 195.763-61.51 273.377-123.77 103.492-83.01 168.153-124.98 239.156-172.632 40.762-23.834 85.28-43.262 125.759-64.509 79.569-41.755 140.927-69.206 199.93-77.576 116.02-16.46 223.88 31.95 362.74 33.093 24.55.177 50.19-1.045 76.25-2.296 30.84-1.482 61.1-2.547 91.22-7.594 64.61-17.343 197.02-321.213 288.55 19.472" stroke="url(#paint45_linear_2110_1813)"/><path opacity=".55" d="M131.897 1279.42c98.623-9.47 195.784-56.55 273.903-117.98 99.796-78.48 165.25-125.43 237.197-175.522 40.921-25.995 84.414-46.852 124.084-68.063 78.82-42.141 140.475-67.239 199.312-73.804 116.197-12.977 222.147 38.601 359.717 39.903 24.22.209 49.5-1.075 75.37-2.809 30.47-2.038 60.78-4.287 91.32-10.607 65.79-18.885 201.23-330.701 294.87 16.381" stroke="url(#paint46_linear_2110_1813)"/><path opacity=".54" d="M133.148 1287.72c98.584-5.85 195.771-51.63 274.428-112.18 96.098-73.97 162.356-125.86 235.246-178.414 41.082-28.148 83.547-50.443 122.407-71.626 78.056-42.538 140.016-65.26 198.693-70.032 116.368-9.466 220.408 45.262 356.678 46.716 23.89.234 48.83-1.108 74.5-3.314 30.12-2.588 60.46-6.032 91.42-13.61 66.97-20.427 205.43-340.189 301.2 13.281" stroke="url(#paint47_linear_2110_1813)"/><path opacity=".53" d="M134.398 1296.03c98.556-2.23 195.731-46.78 274.954-106.39 92.381-69.49 159.452-126.31 233.294-181.31 41.241-30.306 82.677-54.037 120.74-75.18 77.291-42.943 139.552-63.272 198.075-66.259 116.529-5.95 218.659 51.915 353.659 53.526 23.55.269 48.14-1.139 73.61-3.825 29.77-3.138 60.14-7.771 91.52-16.612 68.15-21.961 209.63-349.678 307.52 10.19" stroke="url(#paint48_linear_2110_1813)"/><path opacity=".52" d="M135.648 1304.33c98.517 1.39 195.642-41.99 275.487-100.59 88.66-65.06 156.549-126.76 231.335-184.2 41.403-32.461 81.808-57.637 119.063-78.745 76.518-43.346 139.081-61.281 197.456-62.486 116.671-2.411 216.921 58.576 350.621 60.339 23.22.292 47.47-1.165 72.74-4.332 29.42-3.688 59.82-9.508 91.61-19.621 69.33-23.504 213.85-359.167 313.84 7.099" stroke="url(#paint49_linear_2110_1813)"/><path opacity=".51" d="M136.898 1312.64c98.486 4.99 195.507-37.3 276.012-94.8 84.935-60.67 153.648-127.19 229.384-187.09 41.57-34.627 80.901-61.302 117.386-82.309 75.666-43.885 138.595-59.286 196.838-58.714 116.812 1.138 215.182 65.226 347.592 67.151 22.88.328 46.8-1.149 71.86-4.837 29.08-4.189 59.5-11.248 91.71-22.624 70.52-25.038 218.05-368.655 320.17 3.998" stroke="url(#paint50_linear_2110_1813)"/><path opacity=".5" d="M138.148 1320.94c98.455 8.61 195.319-32.68 276.538-89 81.219-56.32 150.744-127.64 227.422-189.99 371.272-327.3 473.552 36.11 819.292-97.821 71.69-26.578 222.26-378.143 326.5.908" stroke="#040611"/></g><defs><linearGradient id="paint0_linear_2110_1813" x1="17.006" y1="723.591" x2="1767.93" y2="146.862" gradientUnits="userSpaceOnUse"><stop stop-color="#040611"/><stop offset=".02" stop-color="#151721"/><stop offset=".1" stop-color="#4B4C54"/><stop offset=".17" stop-color="#7B7C82"/><stop offset=".25" stop-color="#A3A4A8"/><stop offset=".33" stop-color="#C4C5C7"/><stop offset=".41" stop-color="#DEDEE0"/><stop offset=".49" stop-color="#F0F0F1"/><stop offset=".58" stop-color="#FBFBFB"/><stop offset=".68" stop-color="#fff"/></linearGradient><linearGradient id="paint1_linear_2110_1813" x1="19.773" y1="736.502" x2="1761.7" y2="162.739" gradientUnits="userSpaceOnUse"><stop stop-color="#040611"/><stop offset=".02" stop-color="#10121C"/><stop offset=".09" stop-color="#46474F"/><stop offset=".17" stop-color="#76777D"/><stop offset=".25" stop-color="#9E9FA3"/><stop offset=".32" stop-color="#BFC0C2"/><stop offset=".41" stop-color="#D9D9DB"/><stop offset=".49" stop-color="#EBEBEC"/><stop offset=".58" stop-color="#F6F6F6"/><stop offset=".68" stop-color="#FAFAFA"/></linearGradient><linearGradient id="paint2_linear_2110_1813" x1="22.631" y1="749.664" x2="1755.58" y2="178.856" gradientUnits="userSpaceOnUse"><stop stop-color="#0B0D18"/><stop offset=".08" stop-color="#41434B"/><stop offset=".16" stop-color="#717279"/><stop offset=".24" stop-color="#999A9F"/><stop offset=".32" stop-color="#BABBBE"/><stop offset=".4" stop-color="#D4D4D7"/><stop offset=".49" stop-color="#E6E6E8"/><stop offset=".58" stop-color="#F1F1F2"/><stop offset=".68" stop-color="#F5F5F6"/></linearGradient><linearGradient id="paint3_linear_2110_1813" x1="25.439" y1="762.698" x2="1749.47" y2="194.828" gradientUnits="userSpaceOnUse"><stop stop-color="#060813"/><stop offset=".08" stop-color="#3C3E46"/><stop offset=".16" stop-color="#6C6D74"/><stop offset=".24" stop-color="#94959A"/><stop offset=".32" stop-color="#B5B6B9"/><stop offset=".4" stop-color="#CFCFD2"/><stop offset=".49" stop-color="#E1E1E3"/><stop offset=".58" stop-color="#ECECED"/><stop offset=".68" stop-color="#F0F0F1"/></linearGradient><linearGradient id="paint4_linear_2110_1813" x1="28.241" y1="775.716" x2="1743.58" y2="210.711" gradientUnits="userSpaceOnUse"><stop stop-color="#040611"/><stop offset=".07" stop-color="#383A42"/><stop offset=".15" stop-color="#67686F"/><stop offset=".23" stop-color="#8F9095"/><stop offset=".31" stop-color="#B0B1B4"/><stop offset=".4" stop-color="#CACACD"/><stop offset=".49" stop-color="#DCDCDE"/><stop offset=".58" stop-color="#E7E7E8"/><stop offset=".68" stop-color="#EBEBEC"/></linearGradient><linearGradient id="paint5_linear_2110_1813" x1="31.044" y1="788.735" x2="1740.17" y2="225.774" gradientUnits="userSpaceOnUse"><stop stop-color="#040611"/><stop offset=".07" stop-color="#33353E"/><stop offset=".15" stop-color="#62646A"/><stop offset=".23" stop-color="#8A8C91"/><stop offset=".31" stop-color="#ABADB0"/><stop offset=".4" stop-color="#C5C6C9"/><stop offset=".48" stop-color="#D7D8DA"/><stop offset=".57" stop-color="#E2E3E4"/><stop offset=".68" stop-color="#E6E7E8"/></linearGradient><linearGradient id="paint6_linear_2110_1813" x1="33.844" y1="801.746" x2="1738.27" y2="240.335" gradientUnits="userSpaceOnUse"><stop stop-color="#040611"/><stop offset=".06" stop-color="#2E3039"/><stop offset=".14" stop-color="#5D5F66"/><stop offset=".22" stop-color="#85878C"/><stop offset=".31" stop-color="#A6A8AB"/><stop offset=".39" stop-color="#C0C1C4"/><stop offset=".48" stop-color="#D2D3D5"/><stop offset=".57" stop-color="#DDDEDF"/><stop offset=".68" stop-color="#E1E2E3"/></linearGradient><linearGradient id="paint7_linear_2110_1813" x1="36.652" y1="814.754" x2="1737.19" y2="254.622" gradientUnits="userSpaceOnUse"><stop stop-color="#040611"/><stop offset=".06" stop-color="#2A2C35"/><stop offset=".14" stop-color="#595A61"/><stop offset=".22" stop-color="#818287"/><stop offset=".3" stop-color="#A2A3A7"/><stop offset=".39" stop-color="#BCBCBF"/><stop offset=".48" stop-color="#CECED0"/><stop offset=".57" stop-color="#D9D9DA"/><stop offset=".68" stop-color="#DDDDDE"/></linearGradient><linearGradient id="paint8_linear_2110_1813" x1="39.447" y1="827.75" x2="1736.62" y2="268.726" gradientUnits="userSpaceOnUse"><stop stop-color="#040611"/><stop offset=".05" stop-color="#252730"/><stop offset=".13" stop-color="#54555D"/><stop offset=".22" stop-color="#7C7D83"/><stop offset=".3" stop-color="#9D9EA2"/><stop offset=".39" stop-color="#B7B7BB"/><stop offset=".48" stop-color="#C9C9CC"/><stop offset=".57" stop-color="#D4D4D6"/><stop offset=".68" stop-color="#D8D8DA"/></linearGradient><linearGradient id="paint9_linear_2110_1813" x1="42.242" y1="840.745" x2="1736.37" y2="282.723" gradientUnits="userSpaceOnUse"><stop stop-color="#040611"/><stop offset=".04" stop-color="#20222C"/><stop offset=".13" stop-color="#4F5058"/><stop offset=".21" stop-color="#77787E"/><stop offset=".3" stop-color="#98999E"/><stop offset=".38" stop-color="#B2B2B6"/><stop offset=".48" stop-color="#C4C4C7"/><stop offset=".57" stop-color="#CFCFD1"/><stop offset=".68" stop-color="#D3D3D5"/></linearGradient><linearGradient id="paint10_linear_2110_1813" x1="45.032" y1="853.725" x2="1736.33" y2="296.637" gradientUnits="userSpaceOnUse"><stop stop-color="#040611"/><stop offset=".04" stop-color="#1B1D27"/><stop offset=".12" stop-color="#4A4B53"/><stop offset=".21" stop-color="#727379"/><stop offset=".29" stop-color="#939499"/><stop offset=".38" stop-color="#ADADB1"/><stop offset=".47" stop-color="#BFBFC2"/><stop offset=".57" stop-color="#CACACC"/><stop offset=".68" stop-color="#CECED0"/></linearGradient><linearGradient id="paint11_linear_2110_1813" x1="47.822" y1="866.705" x2="1736.44" y2="310.5" gradientUnits="userSpaceOnUse"><stop stop-color="#040611"/><stop offset=".03" stop-color="#161822"/><stop offset=".11" stop-color="#45464F"/><stop offset=".2" stop-color="#6D6E75"/><stop offset=".29" stop-color="#8E8F94"/><stop offset=".38" stop-color="#A8A8AD"/><stop offset=".47" stop-color="#BABABE"/><stop offset=".57" stop-color="#C5C5C8"/><stop offset=".68" stop-color="#C9C9CC"/></linearGradient><linearGradient id="paint12_linear_2110_1813" x1="50.614" y1="879.667" x2="1736.65" y2="324.312" gradientUnits="userSpaceOnUse"><stop stop-color="#040611"/><stop offset=".02" stop-color="#11131D"/><stop offset=".11" stop-color="#40414A"/><stop offset=".19" stop-color="#686970"/><stop offset=".28" stop-color="#898A8F"/><stop offset=".37" stop-color="#A3A3A8"/><stop offset=".47" stop-color="#B5B5B9"/><stop offset=".57" stop-color="#C0C0C3"/><stop offset=".68" stop-color="#C4C4C7"/></linearGradient><linearGradient id="paint13_linear_2110_1813" x1="53.397" y1="892.624" x2="1736.95" y2="338.088" gradientUnits="userSpaceOnUse"><stop stop-color="#040611"/><stop offset=".01" stop-color="#0C0E19"/><stop offset=".1" stop-color="#3B3D45"/><stop offset=".19" stop-color="#64656B"/><stop offset=".28" stop-color="#84868B"/><stop offset=".37" stop-color="#9E9FA3"/><stop offset=".47" stop-color="#B0B1B4"/><stop offset=".57" stop-color="#BBBCBE"/><stop offset=".68" stop-color="#BFC0C2"/></linearGradient><linearGradient id="paint14_linear_2110_1813" x1="56.176" y1="905.573" x2="1737.31" y2="351.834" gradientUnits="userSpaceOnUse"><stop stop-color="#070914"/><stop offset=".09" stop-color="#363841"/><stop offset=".18" stop-color="#5E6067"/><stop offset=".27" stop-color="#7F8186"/><stop offset=".37" stop-color="#999A9F"/><stop offset=".46" stop-color="#ABACB0"/><stop offset=".56" stop-color="#B6B7BA"/><stop offset=".68" stop-color="#BABBBE"/></linearGradient><linearGradient id="paint15_linear_2110_1813" x1="58.961" y1="918.512" x2="1737.71" y2="365.557" gradientUnits="userSpaceOnUse"><stop stop-color="#040611"/><stop offset=".09" stop-color="#32333C"/><stop offset=".18" stop-color="#5A5B62"/><stop offset=".27" stop-color="#7A7C81"/><stop offset=".36" stop-color="#94959A"/><stop offset=".46" stop-color="#A6A7AB"/><stop offset=".56" stop-color="#B1B2B5"/><stop offset=".68" stop-color="#B5B6B9"/></linearGradient><linearGradient id="paint16_linear_2110_1813" x1="61.736" y1="931.446" x2="1738.15" y2="379.259" gradientUnits="userSpaceOnUse"><stop stop-color="#040611"/><stop offset=".08" stop-color="#2D2F38"/><stop offset=".17" stop-color="#55565D"/><stop offset=".26" stop-color="#75777D"/><stop offset=".36" stop-color="#8F9095"/><stop offset=".46" stop-color="#A1A2A6"/><stop offset=".56" stop-color="#ACADB0"/><stop offset=".68" stop-color="#B0B1B4"/></linearGradient><linearGradient id="paint17_linear_2110_1813" x1="64.505" y1="944.365" x2="1738.62" y2="392.936" gradientUnits="userSpaceOnUse"><stop stop-color="#040611"/><stop offset=".07" stop-color="#282A33"/><stop offset=".16" stop-color="#505159"/><stop offset=".26" stop-color="#707278"/><stop offset=".35" stop-color="#8A8B91"/><stop offset=".45" stop-color="#9C9DA2"/><stop offset=".56" stop-color="#A7A8AC"/><stop offset=".68" stop-color="#ABACB0"/></linearGradient><linearGradient id="paint18_linear_2110_1813" x1="67.278" y1="957.265" x2="1739.11" y2="406.59" gradientUnits="userSpaceOnUse"><stop stop-color="#040611"/><stop offset=".06" stop-color="#23252E"/><stop offset=".16" stop-color="#4B4C54"/><stop offset=".25" stop-color="#6B6D73"/><stop offset=".35" stop-color="#85868C"/><stop offset=".45" stop-color="#97989D"/><stop offset=".56" stop-color="#A2A3A7"/><stop offset=".68" stop-color="#A6A7AB"/></linearGradient><linearGradient id="paint19_linear_2110_1813" x1="70.04" y1="970.16" x2="1739.62" y2="420.226" gradientUnits="userSpaceOnUse"><stop stop-color="#040611"/><stop offset=".05" stop-color="#1E2029"/><stop offset=".15" stop-color="#46474F"/><stop offset=".25" stop-color="#66686E"/><stop offset=".35" stop-color="#808187"/><stop offset=".45" stop-color="#929398"/><stop offset=".56" stop-color="#9D9EA2"/><stop offset=".68" stop-color="#A1A2A6"/></linearGradient><linearGradient id="paint20_linear_2110_1813" x1="72.799" y1="983.048" x2="1740.14" y2="433.85" gradientUnits="userSpaceOnUse"><stop stop-color="#040611"/><stop offset=".05" stop-color="#1A1B26"/><stop offset=".14" stop-color="#42434B"/><stop offset=".24" stop-color="#62636B"/><stop offset=".34" stop-color="#7C7C83"/><stop offset=".45" stop-color="#8E8E94"/><stop offset=".56" stop-color="#99999E"/><stop offset=".68" stop-color="#9D9DA2"/></linearGradient><linearGradient id="paint21_linear_2110_1813" x1="75.559" y1="995.91" x2="1740.68" y2="447.445" gradientUnits="userSpaceOnUse"><stop stop-color="#040611"/><stop offset=".04" stop-color="#151721"/><stop offset=".13" stop-color="#3D3E46"/><stop offset=".23" stop-color="#5D5E66"/><stop offset=".34" stop-color="#77777E"/><stop offset=".44" stop-color="#89898F"/><stop offset=".55" stop-color="#949499"/><stop offset=".68" stop-color="#98989D"/></linearGradient><linearGradient id="paint22_linear_2110_1813" x1="78.306" y1="1008.76" x2="1741.22" y2="461.019" gradientUnits="userSpaceOnUse"><stop stop-color="#040611"/><stop offset=".03" stop-color="#10121C"/><stop offset=".13" stop-color="#383942"/><stop offset=".23" stop-color="#585A61"/><stop offset=".33" stop-color="#727379"/><stop offset=".44" stop-color="#84858A"/><stop offset=".55" stop-color="#8F9094"/><stop offset=".68" stop-color="#939498"/></linearGradient><linearGradient id="paint23_linear_2110_1813" x1="81.057" y1="1021.6" x2="1741.78" y2="474.581" gradientUnits="userSpaceOnUse"><stop stop-color="#040611"/><stop offset=".02" stop-color="#0B0D17"/><stop offset=".12" stop-color="#33343D"/><stop offset=".22" stop-color="#54555C"/><stop offset=".33" stop-color="#6D6E75"/><stop offset=".43" stop-color="#7F8086"/><stop offset=".55" stop-color="#8A8B90"/><stop offset=".68" stop-color="#8E8F94"/></linearGradient><linearGradient id="paint24_linear_2110_1813" x1="83.594" y1="1033.81" x2="1742.13" y2="487.512" gradientUnits="userSpaceOnUse"><stop stop-color="#060813"/><stop offset=".11" stop-color="#2E2F38"/><stop offset=".21" stop-color="#4E5058"/><stop offset=".32" stop-color="#686970"/><stop offset=".43" stop-color="#7A7B81"/><stop offset=".55" stop-color="#85868B"/><stop offset=".68" stop-color="#898A8F"/></linearGradient><linearGradient id="paint25_linear_2110_1813" x1="86.033" y1="1045.72" x2="1742.4" y2="500.144" gradientUnits="userSpaceOnUse"><stop stop-color="#040611"/><stop offset=".1" stop-color="#292B34"/><stop offset=".2" stop-color="#4A4B53"/><stop offset=".31" stop-color="#63646B"/><stop offset=".43" stop-color="#75767C"/><stop offset=".54" stop-color="#808186"/><stop offset=".68" stop-color="#84858A"/></linearGradient><linearGradient id="paint26_linear_2110_1813" x1="88.453" y1="1057.55" x2="1742.64" y2="512.69" gradientUnits="userSpaceOnUse"><stop stop-color="#040611"/><stop offset=".09" stop-color="#24262F"/><stop offset=".2" stop-color="#44464E"/><stop offset=".31" stop-color="#5E5F67"/><stop offset=".42" stop-color="#707178"/><stop offset=".54" stop-color="#7B7C82"/><stop offset=".68" stop-color="#7F8086"/></linearGradient><linearGradient id="paint27_linear_2110_1813" x1="90.837" y1="1069.3" x2="1742.87" y2="525.148" gradientUnits="userSpaceOnUse"><stop stop-color="#040611"/><stop offset=".08" stop-color="#1F212B"/><stop offset=".19" stop-color="#404149"/><stop offset=".3" stop-color="#595A62"/><stop offset=".42" stop-color="#6B6C73"/><stop offset=".54" stop-color="#76777D"/><stop offset=".68" stop-color="#7A7B81"/></linearGradient><linearGradient id="paint28_linear_2110_1813" x1="93.201" y1="1080.96" x2="1743.08" y2="537.519" gradientUnits="userSpaceOnUse"><stop stop-color="#040611"/><stop offset=".06" stop-color="#1A1C26"/><stop offset=".18" stop-color="#3B3C45"/><stop offset=".29" stop-color="#54555D"/><stop offset=".41" stop-color="#66676E"/><stop offset=".54" stop-color="#717278"/><stop offset=".68" stop-color="#75767C"/></linearGradient><linearGradient id="paint29_linear_2110_1813" x1="95.527" y1="1092.53" x2="1743.26" y2="549.797" gradientUnits="userSpaceOnUse"><stop stop-color="#040611"/><stop offset=".05" stop-color="#151721"/><stop offset=".17" stop-color="#363740"/><stop offset=".28" stop-color="#4F5059"/><stop offset=".41" stop-color="#61626A"/><stop offset=".53" stop-color="#6C6D74"/><stop offset=".68" stop-color="#707178"/></linearGradient><linearGradient id="paint30_linear_2110_1813" x1="97.827" y1="1104" x2="1743.41" y2="561.973" gradientUnits="userSpaceOnUse"><stop stop-color="#040611"/><stop offset=".04" stop-color="#10121C"/><stop offset=".16" stop-color="#31333B"/><stop offset=".28" stop-color="#4A4C54"/><stop offset=".4" stop-color="#5C5E65"/><stop offset=".53" stop-color="#67696F"/><stop offset=".68" stop-color="#6B6D73"/></linearGradient><linearGradient id="paint31_linear_2110_1813" x1="100.097" y1="1115.38" x2="1743.54" y2="574.053" gradientUnits="userSpaceOnUse"><stop stop-color="#040611"/><stop offset=".02" stop-color="#0B0D18"/><stop offset=".14" stop-color="#2C2E36"/><stop offset=".27" stop-color="#45474F"/><stop offset=".39" stop-color="#575960"/><stop offset=".53" stop-color="#62646A"/><stop offset=".68" stop-color="#66686E"/></linearGradient><linearGradient id="paint32_linear_2110_1813" x1="102.326" y1="1126.66" x2="1743.63" y2="586.034" gradientUnits="userSpaceOnUse"><stop stop-color="#040611"/><stop offset=".01" stop-color="#070914"/><stop offset=".13" stop-color="#282933"/><stop offset=".26" stop-color="#41424B"/><stop offset=".39" stop-color="#53545C"/><stop offset=".52" stop-color="#5E5F66"/><stop offset=".68" stop-color="#62636A"/></linearGradient><linearGradient id="paint33_linear_2110_1813" x1="104.53" y1="1137.83" x2="1743.7" y2="597.912" gradientUnits="userSpaceOnUse"><stop stop-color="#040611"/><stop offset=".12" stop-color="#23242E"/><stop offset=".25" stop-color="#3C3D46"/><stop offset=".38" stop-color="#4E4F57"/><stop offset=".52" stop-color="#595A61"/><stop offset=".68" stop-color="#5D5E65"/></linearGradient><linearGradient id="paint34_linear_2110_1813" x1="106.696" y1="1148.89" x2="1743.73" y2="609.675" gradientUnits="userSpaceOnUse"><stop stop-color="#040611"/><stop offset=".11" stop-color="#1E1F29"/><stop offset=".24" stop-color="#373841"/><stop offset=".37" stop-color="#494A52"/><stop offset=".52" stop-color="#54555C"/><stop offset=".68" stop-color="#585960"/></linearGradient><linearGradient id="paint35_linear_2110_1813" x1="108.821" y1="1159.85" x2="1743.73" y2="621.337" gradientUnits="userSpaceOnUse"><stop stop-color="#040611"/><stop offset=".09" stop-color="#191A25"/><stop offset=".22" stop-color="#32333D"/><stop offset=".36" stop-color="#44454E"/><stop offset=".51" stop-color="#4F5058"/><stop offset=".68" stop-color="#53545C"/></linearGradient><linearGradient id="paint36_linear_2110_1813" x1="110.916" y1="1170.7" x2="1743.7" y2="632.881" gradientUnits="userSpaceOnUse"><stop stop-color="#040611"/><stop offset=".07" stop-color="#141520"/><stop offset=".21" stop-color="#2D2E38"/><stop offset=".36" stop-color="#3F4049"/><stop offset=".51" stop-color="#4A4B53"/><stop offset=".68" stop-color="#4E4F57"/></linearGradient><linearGradient id="paint37_linear_2110_1813" x1="112.976" y1="1181.43" x2="1743.64" y2="644.318" gradientUnits="userSpaceOnUse"><stop stop-color="#040611"/><stop offset=".05" stop-color="#0F111B"/><stop offset=".2" stop-color="#282A33"/><stop offset=".34" stop-color="#3A3B44"/><stop offset=".5" stop-color="#45464E"/><stop offset=".68" stop-color="#494A52"/></linearGradient><linearGradient id="paint38_linear_2110_1813" x1="114.999" y1="1192.06" x2="1743.53" y2="655.646" gradientUnits="userSpaceOnUse"><stop stop-color="#040611"/><stop offset=".03" stop-color="#0A0C16"/><stop offset=".18" stop-color="#23252F"/><stop offset=".33" stop-color="#353640"/><stop offset=".5" stop-color="#40414A"/><stop offset=".68" stop-color="#44454E"/></linearGradient><linearGradient id="paint39_linear_2110_1813" x1="116.935" y1="1202.45" x2="1743.36" y2="666.726" gradientUnits="userSpaceOnUse"><stop stop-color="#050712"/><stop offset=".16" stop-color="#1E202A"/><stop offset=".32" stop-color="#30323B"/><stop offset=".49" stop-color="#3B3D45"/><stop offset=".68" stop-color="#3F4149"/></linearGradient><linearGradient id="paint40_linear_2110_1813" x1="118.92" y1="1212.96" x2="1743.23" y2="677.936" gradientUnits="userSpaceOnUse"><stop stop-color="#040611"/><stop offset=".14" stop-color="#191B25"/><stop offset=".31" stop-color="#2B2D36"/><stop offset=".48" stop-color="#363840"/><stop offset=".68" stop-color="#3A3C44"/></linearGradient><linearGradient id="paint41_linear_2110_1813" x1="120.815" y1="1223.25" x2="1743.02" y2="688.916" gradientUnits="userSpaceOnUse"><stop stop-color="#040611"/><stop offset=".12" stop-color="#141620"/><stop offset=".29" stop-color="#262832"/><stop offset=".47" stop-color="#31333C"/><stop offset=".68" stop-color="#353740"/></linearGradient><linearGradient id="paint42_linear_2110_1813" x1="122.668" y1="1233.41" x2="1742.78" y2="699.77" gradientUnits="userSpaceOnUse"><stop stop-color="#040611"/><stop offset=".09" stop-color="#0F111C"/><stop offset=".27" stop-color="#21232D"/><stop offset=".46" stop-color="#2C2E37"/><stop offset=".68" stop-color="#30323B"/></linearGradient><linearGradient id="paint43_linear_2110_1813" x1="124.474" y1="1243.43" x2="1742.49" y2="710.477" gradientUnits="userSpaceOnUse"><stop stop-color="#040611"/><stop offset=".05" stop-color="#0A0C17"/><stop offset=".25" stop-color="#1C1E28"/><stop offset=".45" stop-color="#272932"/><stop offset=".68" stop-color="#2B2D36"/></linearGradient><linearGradient id="paint44_linear_2110_1813" x1="126.231" y1="1253.3" x2="1742.14" y2="721.041" gradientUnits="userSpaceOnUse"><stop stop-color="#040611"/><stop offset=".01" stop-color="#050712"/><stop offset=".22" stop-color="#171924"/><stop offset=".44" stop-color="#22242E"/><stop offset=".68" stop-color="#262832"/></linearGradient><linearGradient id="paint45_linear_2110_1813" x1="127.941" y1="1263.02" x2="1741.76" y2="731.456" gradientUnits="userSpaceOnUse"><stop stop-color="#040611"/><stop offset=".19" stop-color="#13151F"/><stop offset=".42" stop-color="#1E1F29"/><stop offset=".68" stop-color="#22232D"/></linearGradient><linearGradient id="paint46_linear_2110_1813" x1="129.601" y1="1272.6" x2="1741.33" y2="741.721" gradientUnits="userSpaceOnUse"><stop stop-color="#040611"/><stop offset=".15" stop-color="#0E101A"/><stop offset=".4" stop-color="#191A24"/><stop offset=".68" stop-color="#1D1E28"/></linearGradient><linearGradient id="paint47_linear_2110_1813" x1="131.219" y1="1282.05" x2="1740.85" y2="751.859" gradientUnits="userSpaceOnUse"><stop stop-color="#040611"/><stop offset=".1" stop-color="#090B16"/><stop offset=".37" stop-color="#141620"/><stop offset=".68" stop-color="#181A24"/></linearGradient><linearGradient id="paint48_linear_2110_1813" x1="132.807" y1="1291.38" x2="1740.34" y2="761.881" gradientUnits="userSpaceOnUse"><stop stop-color="#040611"/><stop offset=".01" stop-color="#040611"/><stop offset=".33" stop-color="#0F111B"/><stop offset=".68" stop-color="#13151F"/></linearGradient><linearGradient id="paint49_linear_2110_1813" x1="134.356" y1="1300.62" x2="1739.8" y2="771.808" gradientUnits="userSpaceOnUse"><stop stop-color="#040611"/><stop offset=".26" stop-color="#0A0C16"/><stop offset=".68" stop-color="#0E101A"/></linearGradient><linearGradient id="paint50_linear_2110_1813" x1="135.87" y1="1309.75" x2="1739.23" y2="781.627" gradientUnits="userSpaceOnUse"><stop stop-color="#040611"/><stop offset=".1" stop-color="#050712"/><stop offset=".68" stop-color="#090B16"/></linearGradient><clipPath id="clip0_2110_1813"><path fill="#fff" d="M0 0h1468v868H0z"/></clipPath></defs></svg>