<svg width="24" height="24" fill="none" xmlns="http://www.w3.org/2000/svg"><g clip-path="url(#clip0_2110_2238)" stroke="#fff" stroke-width=".5" stroke-miterlimit="10"><path d="M12 23.747c6.488 0 11.747-5.26 11.747-11.747C23.747 5.512 18.488.253 12 .253 5.512.253.253 5.513.253 12c0 6.488 5.26 11.747 11.747 11.747z"/><path d="M12 23.747c3.305 0 5.985-5.26 5.985-11.747C17.985 5.512 15.305.253 12 .253S6.015 5.513 6.015 12c0 6.488 2.68 11.747 5.985 11.747zM.253 12h23.494M12 23.747V.253"/></g><defs><clipPath id="clip0_2110_2238"><path fill="#fff" d="M0 0h24v24H0z"/></clipPath></defs></svg>