<svg width="152" height="27" fill="none" xmlns="http://www.w3.org/2000/svg"><g clip-path="url(#clip0_2110_2239)"><path d="M2.003 20.67A13.697 13.697 0 010 13.495c0-3.608 1.368-6.998 3.849-9.549a12.924 12.924 0 0118.595 0 13.58 13.58 0 012.348 3.28l-5.183 2.79a7.617 7.617 0 00-1.31-1.822A7.158 7.158 0 009.49 7.016c-4.446 2.71-7.022 7.15-7.487 13.654z" fill="#fff"/><path d="M24.992 19.35a13.507 13.507 0 01-2.545 3.69c-2.486 2.555-5.787 3.96-9.3 3.96-1.762 0-3.429-.823-4.507-1.883-2.816-2.804-3.778-7.472-2.783-11.543A7.53 7.53 0 007.99 18.79a7.143 7.143 0 005.158 2.197c1.947 0 3.777-.779 5.155-2.194a7.533 7.533 0 001.414-2.044l5.275 2.602z" fill="#24FCFF"/></g><path d="M150.464 20c-1.175-.024-2.399-.672-2.423-2.16-.528 1.464-1.847 2.256-3.431 2.4-2.303.216-4.894-.792-5.062-3.288-.216-3.264 2.519-4.008 5.134-4.008h3.359V11.72c0-.984-1.008-1.512-2.591-1.512-1.464-.024-2.495.504-2.495 1.584h-2.736c-.072-2.856 2.328-3.888 5.159-3.888 3.575 0 5.686 1.368 5.686 3.552v5.568c0 .528.24.888.768.888H152V20h-1.536zm-7.989-3.6c-.096 1.296.959 1.776 2.231 1.776 1.368-.024 2.999-.864 3.335-2.256v-1.248l-3.047.024c-1.152.024-2.399.24-2.519 1.704zM120.567 20h-3.071V8.216h2.999v3c.6-1.344 1.8-2.88 3.479-3.072 1.848-.288 3.695.864 4.343 2.928 1.079-2.184 2.183-2.928 3.983-2.976 3.215-.096 4.894 1.944 4.894 5.16V20h-3.071v-6.504c0-1.608-.6-2.832-2.399-2.832-1.992 0-2.855 1.176-2.855 3.024V20h-3.071v-6.504c0-1.608-.6-2.832-2.376-2.832-1.991 0-2.855 1.416-2.855 3.264V20zm-7.006 0c-1.175-.024-2.399-.672-2.423-2.16-.528 1.464-1.847 2.256-3.431 2.4-2.303.216-4.894-.792-5.062-3.288-.216-3.264 2.519-4.008 5.134-4.008h3.359V11.72c0-.984-1.007-1.512-2.591-1.512-1.464-.024-2.495.504-2.495 1.584h-2.735c-.072-2.856 2.327-3.888 5.158-3.888 3.575 0 5.686 1.368 5.686 3.552v5.568c0 .528.24.888.768.888h.168V20h-1.536zm-7.989-3.6c-.096 1.296.96 1.776 2.231 1.776 1.368-.024 2.999-.864 3.335-2.256v-1.248l-3.047.024c-1.152.024-2.399.24-2.519 1.704zm-16.576 5.736h5.063c1.92 0 2.975-.12 3.095-1.896l.024-3.216c-.696 1.776-2.255 2.688-3.67 2.76-3.936.24-6.047-2.784-6.047-5.856s2.04-6 5.998-5.856c1.632.048 2.951.912 3.839 2.832V8.168h2.975v12.096c0 3.072-1.703 4.512-5.782 4.512h-5.495v-2.64zm4.919-4.872c1.943 0 3.335-1.368 3.335-3.336 0-2.016-1.368-3.336-3.335-3.336-1.991 0-3.359 1.296-3.359 3.336 0 1.968 1.392 3.336 3.359 3.336zM76.471 20H73.4V8.216h2.999v3.144c.792-2.136 2.64-3.216 4.199-3.24 3.814-.096 4.486 2.544 4.486 5.16V20h-3.07v-6.504c0-1.776-.745-2.832-2.496-2.832-2.04 0-3.047 1.296-3.047 3.264V20zM66.573 5.216c0-.744.624-1.68 1.896-1.68 1.247 0 1.895.864 1.895 1.632 0 .768-.576 1.728-1.895 1.728-1.272 0-1.896-.912-1.896-1.68zM70.004 20h-3.07V8.192h3.07V20zm-18.298-5.904c0-3.816 2.231-6.024 6.358-6.024s6.358 2.232 6.358 6.024c0 4.32-2.807 6.024-6.358 6.024-3.527 0-6.358-1.704-6.358-6.024zm6.358 3.504c2.016 0 3.383-.816 3.383-3.504s-1.367-3.504-3.383-3.504c-1.991 0-3.383.816-3.383 3.504 0 2.664 1.392 3.504 3.383 3.504zm-15.765-.072c2.04 0 3.91-.624 4.75-2.568l3.287.024c-.911 3.672-4.534 5.184-8.037 5.184-4.559 0-8.422-2.28-8.422-7.848 0-5.688 3.863-7.824 8.422-7.824 4.175 0 7.462 1.848 8.181 5.688h-3.263c-.671-2.28-2.567-3.072-4.918-3.072-3 0-5.255 1.248-5.255 5.208 0 3.84 2.256 5.208 5.255 5.208z" fill="#fff"/><defs><clipPath id="clip0_2110_2239"><path fill="#fff" d="M0 0h24.992v27H0z"/></clipPath></defs></svg>