<svg width="1919" height="1050" fill="none" xmlns="http://www.w3.org/2000/svg"><g clip-path="url(#clip0_2144_5012)"><g clip-path="url(#clip1_2144_5012)" stroke-width=".5" stroke-miterlimit="10"><path d="M-1187.27 629.535c237.603 51.889 484.52 14.932 724.874-22.191 79.959-12.343 161.045-25.019 234.857-58.153 55.074-24.722 104.542-60.17 153.589-95.365 88.107-63.228 176.203-126.453 264.311-189.68 70.056-50.281 141.277-101.17 222.417-130.378 64.491-23.213 141.944-30.111 196.999 10.723 50.552 37.505 68.811 104.685 110.74 151.63 75.316 84.319 209.257 84.667 316.113 47.705 106.83-36.972 202.14-103.51 310.7-135.037 78.49-22.793 161.31-26.46 242.98-23.748 108.65 3.606 232.17 27.662 287.59 121.188" stroke="#757880"/><path d="M-1186.36 635.567c237.797 52.376 484.401 15.931 724.3-21.017 79.934-12.299 160.952-24.994 234.722-58.053 55.051-24.666 104.525-60.003 153.582-95.113 88.09-63.06 176.177-126.181 264.298-189.312 70.032-50.187 141.24-100.984 222.314-130.249 64.421-23.244 141.709-30.286 196.797 10.074 50.561 37.076 69.073 103.622 111.11 150.086 75.441 83.493 209.128 83.647 315.987 46.795 106.75-36.822 202.1-102.982 310.69-134.316 78.42-22.65 161.18-26.301 242.84-23.598 109.47 3.621 233.71 27.57 290.33 120.464" stroke="#767981"/><path d="M-1185.46 641.587c237.982 52.853 484.293 16.941 723.734-19.844 79.919-12.257 160.857-24.968 234.597-57.956 55.029-24.61 104.519-59.838 153.588-94.863 88.085-62.895 176.15-125.91 264.297-188.948 69.995-50.089 141.188-100.806 222.211-130.12 64.337-23.272 141.484-30.463 196.603 9.411 50.569 36.647 69.335 102.558 111.482 148.552 75.552 82.659 208.985 82.619 315.868 45.887 106.66-36.685 202.05-102.443 310.66-133.607 78.38-22.511 161.08-26.146 242.71-23.448 110.28 3.65 235.24 27.466 293.07 119.74" stroke="#777A82"/><path d="M-1184.55 647.619c238.175 53.34 484.174 17.94 723.168-18.685 79.894-12.213 160.761-24.955 234.476-57.848 55.019-24.556 104.515-59.673 153.59-94.625 88.08-62.731 176.125-125.639 264.282-188.592 69.971-49.994 141.139-100.617 222.111-129.98 64.267-23.302 141.26-30.64 196.413 8.76 50.566 36.221 69.597 101.494 111.851 147.007 75.663 81.825 208.854 81.587 315.759 44.987 106.58-36.536 202.02-101.908 310.66-132.89 78.32-22.383 160.97-25.991 242.58-23.313 111.1 3.676 236.78 27.371 295.81 119.016" stroke="#787B83"/><path d="M-1183.64 653.651c238.365 53.815 484.058 18.951 722.595-17.512 79.868-12.168 160.667-24.929 234.352-57.752 54.996-24.499 104.506-59.52 153.595-94.375 88.064-62.562 176.101-125.356 264.281-188.227 69.947-49.9 141.09-100.428 222.008-129.851 64.183-23.33 141.024-30.815 196.222 8.109 50.574 35.791 69.859 100.43 112.22 145.461 75.786 80.988 208.711 80.558 315.637 44.079 106.49-36.4 201.98-101.381 310.64-132.17 78.27-22.244 160.85-25.844 242.45-23.163 111.92 3.702 238.31 27.278 298.55 118.292" stroke="#797C84"/><path d="M-1182.73 659.683c238.543 54.293 483.942 19.961 722.021-16.339 79.843-12.123 160.574-24.903 234.216-57.651 54.974-24.443 104.501-59.355 153.601-94.125 88.058-62.398 176.074-125.086 264.268-187.86 69.926-49.793 141.053-100.242 221.905-129.723 64.112-23.361 140.8-30.992 196.028 7.446 50.583 35.362 70.118 99.355 112.589 143.916 75.898 80.154 208.58 79.527 315.512 43.182 106.41-36.262 201.95-100.845 310.63-131.449 78.21-22.101 160.74-25.689 242.32-23.013 112.74 3.728 239.83 27.175 301.29 117.568" stroke="#7A7D85"/><path d="M-1181.84 665.707c238.742 54.779 483.828 20.96 721.449-15.177 79.818-12.079 160.481-24.878 234.092-57.555 54.952-24.387 104.484-59.187 153.603-93.887 88.041-62.23 176.048-124.815 264.267-187.495 69.89-49.696 141.005-100.053 221.803-129.594 64.04-23.392 140.575-31.169 195.837 6.794 50.591 34.933 70.469 98.204 112.958 142.371 76.17 79.175 208.44 78.51 315.391 42.274 106.32-36.114 201.91-100.307 310.61-130.729 78.16-21.974 160.63-25.534 242.18-22.863 113.57 3.754 241.38 27.079 304.03 116.844" stroke="#7B7E86"/><path d="M-1180.93 671.738c238.931 55.255 483.713 21.971 720.887-14.006 79.792-12.034 160.396-24.868 233.971-57.446 54.941-24.334 104.475-59.035 153.609-93.638 88.035-62.065 176.021-124.544 264.254-187.127 69.865-49.601 140.956-99.864 221.711-129.469 63.958-23.419 140.343-31.332 195.635 6.146 50.588 34.507 70.74 97.125 113.327 140.826 76.31 78.308 208.309 77.478 315.266 41.365 106.23-35.976 201.88-99.771 310.6-130.02 78.1-21.835 160.5-25.375 242.04-22.725 114.39 3.781 242.91 26.976 306.77 116.109" stroke="#7C7F86"/><path d="M-1180.03 677.771c239.132 55.73 483.604 22.97 720.324-12.833 79.763-12.001 160.302-24.842 233.834-57.346 54.92-24.278 104.471-58.87 153.603-93.385 88.03-61.9 175.995-124.273 264.239-186.771 69.84-49.507 140.918-99.678 221.607-129.34 63.887-23.45 140.119-31.509 195.442 5.483 50.596 34.077 71.021 96.043 113.696 139.281 76.453 77.452 208.166 76.449 315.165 40.465 106.14-35.828 201.83-99.244 310.57-129.3 78.06-21.695 160.4-25.22 241.92-22.578 115.21 3.795 244.44 26.883 309.51 115.384" stroke="#7D8087"/><path d="M-1179.12 683.802c239.313 56.22 483.488 23.981 719.747-11.671 79.738-11.956 160.209-24.816 233.71-57.249 54.897-24.222 104.465-58.705 153.605-93.147 88.014-61.733 175.972-123.99 264.238-186.407 69.805-49.409 140.87-99.489 221.505-129.211 63.804-23.478 139.882-31.684 195.251 4.832 50.601 33.636 71.292 94.964 114.065 137.735 76.596 76.596 208.035 75.418 315.039 39.557 106.04-35.688 201.79-98.706 310.56-128.58 77.99-21.553 160.29-25.076 241.78-22.428 116.03 3.824 245.99 26.776 312.26 114.657" stroke="#7E8188"/><path d="M-1178.21 689.834c239.503 56.694 483.369 24.98 719.173-10.498 79.725-11.914 160.116-24.79 233.586-57.152 54.875-24.165 104.449-58.537 153.61-92.897 88.01-61.568 175.946-123.719 264.226-186.04 69.78-49.314 140.821-99.299 221.402-129.082 63.733-23.509 139.729-31.968 195.06 4.181 50.672 33.114 71.562 93.885 114.434 136.19 76.724 75.732 207.895 74.4 314.919 38.66 105.96-35.551 201.77-98.17 310.54-127.859 77.94-21.426 160.17-24.919 241.65-22.279 116.85 3.851 247.52 26.684 315.01 113.934" stroke="#7F8289"/><path d="M-1177.31 695.855c239.703 57.181 483.26 25.99 718.607-9.324 79.698-11.871 160.018-24.777 233.45-57.053 54.855-24.097 104.439-58.384 153.615-92.647 88.004-61.404 175.919-123.448 264.225-185.675 69.755-49.22 140.769-99.122 221.299-128.954 63.649-23.536 139.513-32.161 194.87 3.529 50.676 32.674 71.844 92.804 114.805 134.657 76.867 74.877 207.764 73.369 314.799 37.751 105.87-35.401 201.72-97.642 310.52-127.138 77.9-21.286 160.06-24.763 241.51-22.14 117.68 3.876 249.06 26.577 317.75 113.209" stroke="#80838A"/><path d="M-1176.4 701.887c239.881 57.659 483.144 27.001 718.041-8.166 79.674-11.825 159.925-24.751 233.329-56.944 54.845-24.044 104.435-58.219 153.618-92.409C16.575 483.132 104.481 421.191 192.8 359.06c69.72-49.121 140.732-98.935 221.196-128.825 63.579-23.567 139.286-32.349 194.677 2.867 50.693 32.229 72.114 91.725 115.174 133.111 77.007 74.01 207.621 72.34 314.683 36.84 105.79-35.265 201.69-97.107 310.51-126.43 77.83-21.144 159.95-24.608 241.37-21.99 118.5 3.903 250.59 26.485 320.49 112.485" stroke="#81848B"/><path d="M-1175.49 707.919c240.071 58.134 483.025 28 717.468-6.992 79.648-11.781 159.831-24.726 233.204-56.848 54.823-23.987 104.43-58.054 153.624-92.16 87.98-61.07 175.866-122.906 264.196-184.951 69.695-49.027 140.683-98.746 221.093-128.696 63.507-23.598 139.061-32.527 194.474 2.218 50.698 31.788 72.385 90.646 115.544 131.566 77.138 73.158 207.49 71.309 314.567 35.943 105.7-35.115 201.65-96.568 310.49-125.709 77.78-21.016 159.83-24.45 241.24-21.84 119.32 3.928 252.12 26.392 323.23 111.761" stroke="#82858C"/><path d="M-1174.58 713.951c240.265 58.62 482.91 29.01 716.894-5.819 79.623-11.737 159.738-24.701 233.069-56.748 54.8-23.931 104.412-57.887 153.617-91.907 87.976-60.906 175.84-122.635 264.196-184.586 69.67-48.933 140.634-98.558 220.989-128.569 63.425-23.625 138.846-32.718 194.284 1.568 50.707 31.359 72.667 89.564 115.913 130.021 77.278 72.29 207.347 70.28 314.438 35.034 105.62-34.978 201.61-96.041 310.48-124.989 77.73-20.877 159.72-24.306 241.11-21.693 120.15 3.955 253.67 26.285 325.97 111.037" stroke="#83868D"/><path d="M-1173.68 719.983c240.453 59.098 482.801 30.009 716.331-4.646 79.597-11.691 159.641-24.686 232.944-56.651 54.778-23.874 104.404-57.733 153.623-91.657C17.177 506.292 105.034 444.677 193.4 382.81c69.646-48.837 140.585-98.368 220.887-128.439 63.35-23.668 138.618-32.908 194.089.904 50.724 30.915 72.937 88.486 116.282 128.476 77.421 71.435 207.219 69.26 314.321 34.137 105.53-34.841 201.58-95.505 310.46-124.268 77.68-20.738 159.61-24.151 240.98-21.555 120.96 3.969 255.19 26.193 328.71 110.313" stroke="#84878E"/><path d="M-1172.78 726.006c240.641 59.585 482.68 31.02 715.761-3.487 79.571-11.647 159.559-24.664 232.823-56.542 54.768-23.822 104.399-57.569 153.625-91.419 87.954-60.573 175.79-122.082 264.182-183.855 69.61-48.74 140.548-98.182 220.795-128.314 63.267-23.695 138.394-33.085 193.899.253 50.729 30.474 73.208 87.407 116.651 126.931 77.549 70.57 207.076 68.231 314.214 33.225 105.44-34.692 201.53-94.966 310.44-123.547 77.61-20.596 159.49-23.993 240.84-21.406 121.79 3.996 256.73 26.09 331.45 109.59" stroke="#85888F"/><path d="M-1171.88 732.039c240.841 60.06 482.574 32.03 715.197-2.314 79.546-11.602 159.466-24.638 232.687-56.442 54.746-23.766 104.394-57.405 153.63-91.17 87.938-60.405 175.764-121.81 264.17-183.486 69.586-48.646 140.5-97.994 220.693-128.186 63.196-23.726 138.166-33.274 193.708-.398 50.734 30.032 73.478 86.328 117.008 125.388 77.692 69.715 206.945 67.2 314.087 32.318 105.35-34.556 201.51-94.432 310.42-122.839 77.57-20.468 159.39-23.838 240.71-21.256 122.6 4.025 258.27 25.994 334.19 108.865" stroke="#868990"/><path d="M-1170.97 738.071c241.031 60.535 482.456 33.03 714.624-1.14 79.532-11.561 159.372-24.613 232.563-56.346 54.723-23.709 104.385-57.251 153.635-90.919 87.932-60.241 175.738-121.54 264.166-183.134 69.561-48.551 140.451-97.804 220.589-128.057 63.113-23.754 137.951-33.467 193.515-1.062 50.754 29.601 73.745 85.238 117.377 123.844 77.82 68.851 206.802 66.171 313.971 31.42 105.26-34.406 201.46-93.904 310.4-122.118 77.52-20.329 159.28-23.682 240.58-21.106 123.42 4.051 259.79 25.89 336.94 108.138" stroke="#878A91"/><path d="M-1170.06 744.102c241.213 61.025 482.34 34.04 714.047.022 79.506-11.517 159.279-24.588 232.438-56.249 54.701-23.653 104.369-57.083 153.638-90.682 87.927-60.076 175.711-121.268 264.153-182.766 69.526-48.453 140.414-97.618 220.487-127.928 63.042-23.785 137.726-33.644 193.312-1.71 50.759 29.16 74.028 84.156 117.746 122.298 77.952 67.999 206.674 65.151 313.849 30.512 105.16-34.266 201.43-93.368 310.39-121.398 77.45-20.186 159.16-23.526 240.44-20.97 124.25 4.077 261.33 25.798 339.69 107.414" stroke="#888B91"/><path d="M-1169.16 750.123c241.41 61.5 482.228 35.039 713.48 1.195 79.481-11.471 159.182-24.573 232.306-56.137 54.678-23.596 104.363-56.918 153.643-90.432 87.91-59.908 175.688-120.985 264.141-182.398 69.501-48.359 140.365-97.429 220.383-127.8 62.971-23.815 137.499-33.833 193.122-2.361 50.764 28.719 74.298 83.078 118.118 120.765 78.091 67.132 206.531 64.122 313.727 29.603 105.08-34.117 201.39-92.829 310.37-120.677 77.4-20.047 159.04-23.38 240.31-20.821 125.07 4.103 262.87 25.703 342.43 106.691" stroke="#898C92"/><path d="M-1168.25 756.155c241.603 61.986 482.112 36.05 712.918 2.365 79.455-11.427 159.089-24.548 232.182-56.04 54.667-23.543 104.357-56.754 153.637-90.179 87.904-59.743 175.661-120.715 264.139-182.034 69.477-48.264 140.313-97.252 220.281-127.671 62.887-23.843 137.271-34.022 192.928-3.024 50.769 28.277 74.568 81.999 118.487 119.219 78.223 66.28 206.4 63.091 313.618 28.704 104.99-33.98 201.35-92.303 310.35-119.957 77.35-19.92 158.94-23.225 240.18-20.671 125.9 4.129 264.4 25.599 345.17 105.966" stroke="#8A8D93"/><path d="M-1167.34 762.187c241.781 62.464 481.993 37.048 712.341 3.527 79.43-11.383 158.995-24.523 232.057-55.944 54.646-23.487 104.35-56.601 153.64-89.941 87.896-59.59 175.635-120.444 264.127-181.667 69.441-48.166 140.264-97.062 220.177-127.542 62.817-23.873 137.047-34.199 192.738-3.675 50.786 27.833 74.839 80.92 118.856 117.674 78.351 65.416 206.257 62.062 313.494 27.795 104.9-33.843 201.32-91.767 310.34-119.236 77.3-19.781 158.83-23.07 240.04-20.533 126.71 4.144 265.93 25.507 347.9 105.231" stroke="#8B8E94"/><path d="M-1166.44 768.219c241.981 62.939 481.887 38.059 711.777 4.7 79.405-11.338 158.902-24.497 231.922-55.844 54.623-23.43 104.332-56.432 153.645-89.691 87.879-59.422 175.608-120.173 264.123-181.313 69.416-48.072 140.227-96.877 220.074-127.414 62.734-23.901 136.82-34.388 192.547-4.326 50.794 27.403 75.109 79.841 119.225 116.128 78.479 64.552 206.126 61.031 313.377 26.899 104.82-33.695 201.28-91.229 310.32-118.528 77.23-19.638 158.7-22.911 239.9-20.383 127.54 4.17 267.48 25.4 350.65 104.507" stroke="#8C8F95"/><path d="M-1165.53 774.251c242.174 63.426 481.772 39.07 711.204 5.874 79.379-11.293 158.805-24.483 231.797-55.747 54.601-23.374 104.327-56.268 153.65-89.442 87.874-59.257 175.582-119.901 264.111-180.946 69.392-47.977 140.178-96.687 219.971-127.285 62.663-23.932 136.604-34.58 192.354-4.989 50.799 26.963 75.376 78.751 119.594 114.584 78.61 63.699 205.985 60.013 313.249 25.99 104.73-33.558 201.25-90.693 310.3-117.808 77.19-19.51 158.6-22.756 239.79-20.236 128.35 4.2 269 25.308 353.38 103.783" stroke="#8D8F96"/><path d="M-1164.62 780.271c242.349 63.904 481.649 40.069 710.635 7.033 79.354-11.249 158.724-24.461 231.677-55.639 54.59-23.321 104.322-56.103 153.655-89.192 87.869-59.092 175.556-119.63 264.098-180.578 69.367-47.882 140.13-96.498 219.88-127.159 62.58-23.96 136.379-34.758 192.163-5.641 50.804 26.522 75.647 77.672 119.963 113.038 78.738 62.836 205.854 58.982 313.139 25.078 104.65-33.408 201.27-89.943 310.29-117.086 77.17-19.22 158.48-22.613 239.64-20.087 129.18 4.226 270.54 25.204 356.13 103.059" stroke="#8E9097"/><path d="M-1163.72 786.303c242.549 64.379 481.544 41.08 710.072 8.206 79.34-11.207 158.63-24.435 231.552-55.542 54.568-23.265 104.313-55.95 153.658-88.954C19.413 591.088 107.094 530.665 195.659 469.8c69.331-47.785 140.092-96.312 219.777-127.031 62.508-23.991 136.152-34.947 191.96-6.289 50.81 26.081 75.917 76.594 120.332 111.493 78.866 61.971 205.712 57.953 313.022 24.181 104.56-33.271 201.22-89.404 310.27-116.366 77.11-19.077 158.37-22.454 239.51-19.948 129.99 4.252 272.08 25.109 358.87 102.335" stroke="#8F9198"/><path d="M-1162.82 792.338c242.741 64.865 481.423 42.078 709.497 9.379 79.314-11.162 158.536-24.409 231.416-55.442 54.545-23.208 104.296-55.782 153.663-88.704 87.846-58.76 175.506-119.077 264.084-179.846 69.307-47.69 140.044-96.123 219.674-126.902 62.426-24.018 135.925-35.136 191.767-6.952 50.818 25.652 76.188 75.515 120.701 109.948 78.998 61.119 205.58 56.922 312.898 23.273 104.47-33.134 201.18-88.866 310.25-115.646 77.07-18.926 158.26-22.299 239.38-19.798 130.82 4.278 273.6 25.004 361.61 101.611" stroke="#909299"/><path d="M-1161.91 798.371c242.931 65.34 481.307 43.089 708.92 10.541 79.289-11.118 158.439-24.396 231.291-55.346 54.524-23.152 104.292-55.617 153.658-88.451 87.83-58.592 175.479-118.806 264.08-179.493 69.283-47.596 139.995-95.934 219.571-126.774 62.354-24.048 135.7-35.313 191.577-7.603 50.822 25.211 76.454 74.425 121.069 108.403 79.126 60.255 205.441 55.905 312.784 22.376 104.37-32.982 201.15-88.319 310.23-114.937 77.02-18.787 158.15-22.144 239.24-19.649 131.64 4.305 275.15 24.91 364.36 100.885" stroke="#91939A"/><path d="M-1161.01 804.403c243.123 65.83 481.19 44.103 708.356 11.714 79.264-11.073 158.346-24.37 231.171-55.236 54.504-23.084 104.283-55.465 153.66-88.213C20 614.24 107.628 554.132 196.243 493.542c69.247-47.498 139.946-95.745 219.468-126.645 62.28-24.091 135.473-35.503 191.386-8.254 50.839 24.766 76.713 73.348 121.442 106.868 79.254 59.392 205.309 54.874 312.67 21.465 104.28-32.845 201.11-87.78 310.21-114.217 76.96-18.644 158.03-21.985 239.12-19.501 132.46 4.318 276.68 24.817 367.1 100.16" stroke="#92949B"/><path d="M-1160.1 810.423c243.309 66.305 481.068 45.101 707.791 12.884 79.238-11.028 158.253-24.344 231.035-55.136 54.493-23.031 104.277-55.301 153.665-87.964 87.818-58.263 175.426-118.264 264.066-178.761 69.222-47.403 139.906-95.57 219.365-126.516 62.197-24.119 135.249-35.68 191.196-8.906 50.844 24.325 76.983 72.27 121.811 105.324 79.385 58.539 205.166 53.844 312.541 20.556 104.2-32.696 201.08-87.241 310.21-113.5 76.91-18.505 157.92-21.842 238.98-19.363 133.29 4.345 278.22 24.713 369.85 99.436" stroke="#93959C"/><path d="M-1159.19 816.455c243.499 66.779 480.952 46.112 707.217 14.058 79.213-10.984 158.16-24.32 230.911-55.04 54.471-22.975 104.272-55.136 153.67-87.714 87.802-58.095 175.404-117.982 264.054-178.394 69.198-47.308 139.858-95.381 219.262-126.387 62.126-24.15 135.021-35.869 191.002-9.569 50.853 23.896 77.254 71.192 122.18 103.779 79.502 57.678 205.035 52.812 312.424 19.659 104.11-32.559 201.05-86.694 310.2-112.779 76.85-18.366 157.81-21.687 238.84-19.214 134.1 4.374 279.76 24.618 372.59 98.712" stroke="#94969D"/><path d="M-1158.29 822.487c243.691 67.27 480.843 47.111 706.651 15.22 79.187-10.939 158.062-24.305 230.786-54.943 54.449-22.919 104.255-54.968 153.672-87.476 87.797-57.93 175.377-117.71 264.042-178.026 69.173-47.214 139.808-95.192 219.159-126.259 62.043-24.177 134.793-36.058 190.799-10.217 50.858 23.455 77.521 70.102 122.549 102.234 79.63 56.814 204.892 51.784 312.302 18.751 104.03-32.422 201.01-86.156 310.18-112.059 76.79-18.223 157.69-21.528 238.71-19.064 134.92 4.401 281.28 24.515 375.32 97.989" stroke="#95979D"/><path d="M-1157.38 828.519c243.881 67.744 480.727 48.121 706.077 16.393 79.161-10.895 157.969-24.28 230.653-54.832 54.427-22.862 104.247-54.814 153.678-87.226C20.82 645.089 108.38 585.415 197.066 525.181c69.137-47.116 139.771-95.006 219.056-126.13 61.972-24.208 134.569-36.235 190.609-10.868 50.863 23.014 77.78 69.025 122.918 100.688 79.761 55.962 204.764 50.764 312.181 17.842 103.94-32.273 200.98-85.62 310.16-111.35 76.74-18.084 157.58-21.373 238.57-18.913 135.75 4.426 282.82 24.422 378.07 97.264" stroke="#96989E"/><path d="M-1156.48 834.539c244.081 68.231 480.618 49.132 705.522 17.563 79.148-10.853 157.887-24.257 230.529-54.735 54.416-22.808 104.242-54.649 153.672-86.973 87.775-57.597 175.324-117.168 264.025-177.305 69.113-47.022 139.722-94.817 218.964-126.005 61.889-24.236 134.342-36.424 190.416-11.531 50.868 22.573 78.05 67.947 123.286 99.143 79.878 55.101 204.621 49.736 312.076 16.942 103.85-32.136 200.93-85.081 310.14-110.629 76.69-17.945 157.47-21.218 238.43-18.776 136.57 4.453 284.36 24.315 380.81 96.541" stroke="#97999F"/><path d="M-1155.57 840.571c244.259 68.709 480.5 50.131 704.945 18.725 79.122-10.808 157.794-24.232 230.405-54.638 54.394-22.752 104.237-54.485 153.674-86.735 87.77-57.433 175.298-116.897 264.024-176.941 69.089-46.927 139.674-94.627 218.862-125.876 61.817-24.266 134.114-36.613 190.225-12.182 50.876 22.143 78.32 66.868 123.643 97.6 80.006 54.238 204.49 48.704 311.952 16.034 103.76-31.987 200.89-84.542 310.12-109.908 76.64-17.803 157.35-21.072 238.31-18.629 137.4 4.478 285.9 24.222 383.56 95.816" stroke="#989AA0"/><path d="M-1154.66 846.604c244.449 69.183 480.384 51.141 704.371 19.898 79.097-10.764 157.697-24.218 230.269-54.538 54.372-22.696 104.22-54.317 153.68-86.485 87.764-57.269 175.27-116.627 264.01-176.574 69.053-46.829 139.625-94.438 218.759-125.748 61.746-24.297 133.878-36.787 190.034-12.833 50.881 21.703 78.576 65.781 124.013 96.056 80.125 53.388 204.42 47.894 311.833 15.137 103.73-31.64 200.87-83.995 310.11-109.189 76.58-17.663 157.24-20.916 238.17-18.479 138.22 4.494 287.42 24.119 386.29 95.081" stroke="#999BA1"/><path d="M-1153.76 852.639c244.641 69.67 480.263 52.14 703.796 21.072 79.068-10.731 157.604-24.193 230.145-54.442 54.349-22.64 104.211-54.164 153.685-86.235 87.747-57.101 175.248-116.344 263.999-176.206 69.028-46.735 139.588-94.252 218.656-125.619 61.663-24.325 133.65-36.977 189.84-13.497 50.875 21.265 78.846 64.703 124.385 94.522 80.242 52.528 204.276 46.866 311.704 14.229 103.65-31.491 200.83-83.456 310.1-108.468 76.53-17.524 157.13-20.761 238.04-18.329 139.03 4.519 288.96 24.024 389.03 94.357" stroke="#9A9CA2"/><path d="M-1152.86 858.671c244.841 70.145 480.158 53.151 703.229 22.233 79.043-10.686 157.51-24.166 230.024-54.332 54.327-22.584 104.206-54 153.69-85.986 87.742-56.936 175.222-116.073 263.995-175.853 69.004-46.64 139.539-94.063 218.553-125.491 61.592-24.355 133.426-37.153 189.638-14.144 50.883 20.836 79.105 63.627 124.754 92.977 80.37 51.663 204.149 45.845 311.597 13.317 103.56-31.354 200.79-82.918 310.07-107.76 76.47-17.381 157.03-20.605 237.9-18.19 139.85 4.548 290.5 23.931 391.79 93.629" stroke="#9B9DA3"/><path d="M-1151.95 864.691c245.019 70.636 480.035 54.151 702.664 23.404 79.017-10.641 157.417-24.141 229.888-54.233 54.316-22.53 104.201-53.834 153.692-85.748C22.02 691.347 109.49 632.312 198.278 572.629c68.967-46.542 139.487-93.885 218.45-125.362 61.509-24.383 133.198-37.342 189.447-14.795 50.888 20.394 79.376 62.548 125.123 91.431 80.486 50.803 204.009 44.829 311.473 12.42 103.48-31.205 200.76-82.382 310.06-107.038 76.42-17.243 156.91-20.448 237.77-18.041 140.67 4.575 292.02 23.827 394.52 92.905" stroke="#9C9EA4"/><path d="M-1151.05 870.723c245.219 71.11 479.93 55.16 702.1 24.577 78.992-10.597 157.32-24.128 229.764-54.136 54.294-22.474 104.192-53.682 153.698-85.498 87.72-56.604 175.169-115.531 263.982-175.121 68.943-46.448 139.438-93.697 218.346-125.233 61.438-24.414 132.972-37.532 189.254-15.459 50.893 19.953 79.631 61.461 125.492 89.886 80.606 49.953 203.878 43.797 311.354 11.512 103.39-31.056 200.72-81.843 310.04-106.318 76.37-17.103 156.79-20.304 237.64-17.895 141.5 4.601 293.57 23.733 397.27 92.182" stroke="#9D9FA5"/><path d="M-1150.14 876.755c245.409 71.585 479.814 56.171 701.524 25.739 78.978-10.556 157.226-24.102 229.639-54.04 54.272-22.417 104.175-53.513 153.692-85.245 87.714-56.438 175.142-115.26 263.969-174.753 68.918-46.353 139.401-93.51 218.243-125.105 61.356-24.441 132.736-37.705 189.064-16.11 50.901 19.525 79.901 60.383 125.861 88.341 80.722 49.093 203.737 42.781 311.238 10.615 107.5-32.165 200.67-81.304 310.02-105.597 76.31-16.961 156.69-20.149 237.51-17.745 142.32 4.627 295.1 23.629 400.01 91.458" stroke="#9EA0A6"/><path d="M-1149.23 882.787c245.591 72.075 479.695 57.17 700.95 26.912 78.953-10.51 157.133-24.076 229.506-53.927 54.25-22.362 104.171-53.349 153.695-85.007 87.697-56.271 175.119-114.978 263.968-174.389 68.894-46.259 139.352-93.321 218.152-124.979 61.284-24.472 132.508-37.895 188.873-16.762 50.906 19.084 80.16 59.307 126.23 86.796 80.842 48.244 203.606 41.749 311.126 9.703 103.21-30.767 200.64-80.768 310-104.877 76.26-16.821 156.57-19.99 237.38-17.606 143.14 4.653 296.63 23.536 402.74 90.734" stroke="#9FA1A7"/><path d="M-1148.32 888.819c245.781 72.55 479.579 58.181 700.388 28.083 78.927-10.466 157.051-24.054 229.382-53.831 54.239-22.308 104.165-53.184 153.7-84.758 87.692-56.105 175.092-114.706 263.952-174.032 68.858-46.161 139.304-93.132 218.049-124.851 61.198-24.511 132.284-38.072 188.679-17.424 50.912 18.642 80.431 58.228 126.599 85.251 80.959 47.382 203.467 40.731 311.001 8.794 103.12-30.618 200.6-80.23 309.99-104.156 76.21-16.683 156.46-19.836 237.24-17.457 143.96 4.668 298.17 23.43 405.49 90.01" stroke="#A0A2A8"/><path d="M-1147.42 894.84c245.981 73.036 479.467 59.18 699.818 29.244 78.902-10.421 156.955-24.04 229.258-53.734 54.217-22.252 104.157-53.031 153.705-84.508 87.687-55.941 175.066-114.435 263.94-173.665 68.834-46.066 139.266-92.946 217.946-124.722 61.127-24.542 132.056-38.261 188.477-18.072 50.908 18.216 80.689 57.153 126.968 83.705 81.075 46.522 203.335 39.7 310.878 7.898 103.04-30.469 200.57-79.691 309.97-103.448 76.16-16.543 156.35-19.68 237.11-17.306 144.78 4.694 299.7 23.337 408.22 89.286" stroke="#A1A3A8"/><path d="M-1146.51 900.871c246.17 73.511 479.351 60.191 699.244 30.418 78.876-10.377 156.861-24.015 229.134-53.638 54.195-22.195 104.14-52.863 153.707-84.269 87.67-55.774 175.04-114.165 263.939-173.301 68.81-45.971 139.218-92.757 217.844-124.593 61.055-24.573 131.82-38.436 188.286-18.724 50.913 17.775 80.945 56.066 127.337 82.16 81.194 45.673 203.195 38.683 310.759 6.99 102.95-30.333 200.54-79.144 309.95-102.728 76.1-16.4 156.23-19.533 236.98-17.159 145.6 4.723 301.25 23.241 410.97 88.561" stroke="#A2A4A9"/><path d="M-1145.6 906.903c246.349 73.989 479.236 61.201 698.671 31.591 78.85-10.332 156.767-23.989 229.001-53.525 54.175-22.128 104.134-52.699 153.712-84.02C23.45 745.34 110.798 687.055 199.711 628.016c68.773-45.874 139.169-92.568 217.74-124.465 60.973-24.6 131.593-38.624 188.096-19.375 50.918 17.334 81.203 54.99 127.709 80.627 81.299 44.815 203.053 37.654 310.644 6.092 102.86-30.183 200.49-78.605 309.93-102.007 76.05-16.261 156.12-19.378 236.84-17.021 146.42 4.749 302.78 23.138 413.71 87.838" stroke="#A3A5AA"/><path d="M-1144.7 912.936c246.552 74.475 479.127 62.2 698.107 32.764 78.825-10.287 156.674-23.963 228.877-53.429 54.153-22.071 104.126-52.546 153.706-83.767 87.66-55.444 174.987-113.623 263.926-172.568 68.749-45.78 139.12-92.379 217.637-124.336 60.902-24.632 131.368-38.802 187.902-20.038 50.927 16.905 81.474 53.911 128.078 79.081 81.419 43.966 202.925 36.635 310.527 5.181 102.78-30.035 200.47-78.07 309.92-101.287 76-16.122 156.01-19.222 236.71-16.871 147.24 4.775 304.31 23.046 416.45 87.114" stroke="#A4A6AB"/><path d="M-1143.8 918.959c246.737 74.951 479.006 63.211 697.537 33.923 78.8-10.243 156.581-23.938 228.753-53.332 54.142-22.018 104.12-52.381 153.708-83.529 87.643-55.276 174.964-113.34 263.91-172.213 68.725-45.684 139.083-92.192 217.534-124.207 60.819-24.659 131.13-38.988 187.712-20.689 50.92 16.467 81.732 52.835 128.447 77.536 81.535 43.105 202.782 35.606 310.409 4.272 102.69-29.897 200.42-77.53 309.9-100.566 75.94-15.979 155.89-19.064 236.57-16.721 148.07 4.801 305.85 22.938 419.21 86.386" stroke="#A5A7AC"/><path d="M-1142.9 924.991c246.926 75.429 478.897 64.21 696.974 35.097 78.785-10.202 156.483-23.924 228.616-53.233 54.12-21.961 104.104-52.213 153.714-83.279 87.638-55.111 174.938-113.069 263.897-171.845 68.701-45.59 139.032-92.015 217.432-124.078 60.747-24.69 130.905-39.165 187.521-21.341 50.928 16.038 81.991 51.76 128.816 75.991 81.643 42.259 202.653 34.586 310.29 3.376 102.6-29.749 200.38-76.992 309.88-99.858 75.89-15.84 155.78-18.909 236.44-16.571 148.89 4.827 307.38 22.846 421.94 85.662" stroke="#A6A8AD"/><path d="M-1141.99 931.023c247.119 75.917 478.725 64.784 696.4 36.27 78.731-10.312 156.39-23.898 228.492-53.135 54.098-21.906 104.099-52.049 153.72-83.03 87.62-54.943 174.911-112.798 263.896-171.48 68.664-45.492 138.982-91.826 217.328-123.95 60.665-24.718 130.666-39.351 187.327-22.004 50.934 15.597 82.247 50.673 129.185 74.446 81.76 41.399 202.511 33.557 310.162 2.467 102.52-29.611 200.36-76.456 309.87-99.137 75.84-15.701 155.67-18.765 236.31-16.436 149.71 4.842 308.91 22.742 424.68 84.927" stroke="#A7A9AE"/><path d="M-1141.08 937.055c247.309 76.385 478.606 65.785 695.823 37.431 78.717-10.27 156.309-23.876 228.371-53.027 54.076-21.849 104.09-51.895 153.725-82.78 87.616-54.778 174.885-112.527 263.884-171.112 68.64-45.398 138.945-91.64 217.237-123.825 60.593-24.748 130.441-39.528 187.125-22.652 50.927 15.16 82.505 49.598 129.554 72.901 81.867 40.553 202.379 32.526 310.051 1.555 102.42-29.459 200.31-75.917 309.85-98.416 75.78-15.559 155.55-18.607 236.18-16.287 150.53 4.869 310.45 22.648 427.42 84.203" stroke="#A8AAAF"/><path d="M-1140.17 943.087c247.49 76.883 478.487 66.783 695.261 38.602 78.691-10.226 156.215-23.851 228.235-52.927 54.065-21.796 104.085-51.731 153.728-82.542 87.61-54.614 174.858-112.256 263.882-170.748 68.616-45.303 138.897-91.451 217.134-123.696 60.522-24.779 130.203-39.714 186.935-23.303 50.935 14.73 82.764 48.522 129.922 71.355 81.973 39.695 202.24 31.509 309.933.659 102.34-29.311 200.27-75.379 309.83-97.696 75.73-15.42 155.45-18.452 236.04-16.137 151.35 4.898 311.99 22.543 430.17 83.479" stroke="#A9ABB0"/><path d="M-1139.27 949.107c247.687 77.353 478.378 67.793 694.694 39.776 78.663-10.193 156.119-23.837 228.111-52.831 54.043-21.739 104.08-51.566 153.733-82.292 87.594-54.446 174.835-111.973 263.867-170.392 68.579-45.205 138.848-91.262 217.031-123.567 60.439-24.807 129.978-39.892 186.741-23.966 50.94 14.289 83.023 47.446 130.28 69.813 82.092 38.846 202.108 30.477 309.813-.25 102.25-29.173 200.24-74.843 309.81-96.975 75.68-15.281 155.34-18.297 235.91-15.987 152.17 4.924 313.52 22.451 432.91 82.755" stroke="#AAACB1"/><path d="M-1138.36 955.14c247.877 77.83 478.259 68.79 694.118 40.937 78.637-10.149 156.024-23.811 227.986-52.734 54.021-21.683 104.063-51.398 153.727-82.039 87.588-54.282 174.808-111.703 263.866-170.028 68.555-45.111 138.799-91.072 216.928-123.439 60.368-24.837 129.742-40.065 186.55-24.617 50.937 13.863 83.282 46.371 130.649 68.268 82.2 38 201.969 29.46 309.696-1.146 102.16-29.025 200.2-74.305 309.79-96.267 75.61-15.15 155.22-18.139 235.77-15.849 152.99 4.95 315.06 22.356 435.65 82.031" stroke="#ABADB2"/><path d="M-1137.46 961.172c248.08 78.318 478.15 69.788 693.554 42.108 78.612-10.101 155.931-23.783 227.854-52.62 53.998-21.627 104.054-51.245 153.729-81.801 87.583-54.116 174.782-111.431 263.853-169.66 68.531-45.016 138.762-90.886 216.825-123.31 60.285-24.865 129.515-40.255 186.36-25.269 50.942 13.422 83.54 45.296 131.021 66.735 82.305 37.143 201.838 28.428 309.584-2.058 102.07-28.888 200.15-73.778 309.78-95.547 75.56-15.01 155.1-17.995 235.63-15.698 153.82 4.976 316.59 22.252 438.39 81.307" stroke="#ACAEB3"/><path d="M-1136.55 967.203C-888.291 1046-658.515 1038-443.569 1010.49c78.586-10.06 155.837-23.763 227.729-52.528 53.976-21.571 104.049-51.081 153.734-81.552C25.46 822.462 112.65 765.25 201.735 707.118c68.495-44.918 138.713-90.697 216.722-123.182 60.214-24.895 129.279-40.428 186.166-25.931 50.938 12.996 83.799 44.22 131.39 65.189 82.413 36.297 201.698 27.412 309.457-2.967 101.99-28.738 200.13-73.241 309.76-94.825 75.52-14.871 155-17.84 235.51-15.552 154.65 5.002 318.12 22.159 441.13 80.583" stroke="#ADAFB4"/><path d="M-1135.64 973.224c248.449 79.276 477.912 71.796 692.412 44.446 78.572-10.02 155.741-23.75 227.605-52.432 53.966-21.518 104.044-50.916 153.74-81.302 87.56-53.784 174.729-110.89 263.84-168.928 68.47-44.824 138.664-90.508 216.619-123.053 60.131-24.923 129.051-40.618 185.964-26.579 50.943 12.554 84.057 43.144 131.759 63.643 82.52 35.451 201.566 26.38 309.341-3.863 101.9-28.602 200.08-72.703 309.75-94.109 75.46-14.728 154.89-17.684 235.38-15.402 155.46 5.017 319.66 22.053 443.88 79.856" stroke="#AEB0B4"/><path d="M-1134.75 979.259c248.647 79.751 477.802 72.801 691.847 45.611 78.547-9.97 155.647-23.72 227.469-52.324 53.943-21.461 104.024-50.759 153.742-81.064 87.556-53.619 174.703-110.618 263.824-168.571 68.446-44.73 138.624-90.334 216.516-122.925 60.057-24.966 128.815-40.792 185.773-27.231 50.952 12.126 84.305 42.073 132.128 62.099 82.629 34.605 201.424 25.351 309.221-4.772 101.8-28.45 200.04-72.164 309.74-93.388 75.4-14.589 154.76-17.526 235.23-15.264 156.29 5.043 321.2 21.961 446.63 79.132" stroke="#AFB1B5"/><path d="M-1133.84 985.291c248.825 80.229 477.686 73.809 691.273 46.789 78.521-9.93 155.554-23.69 227.348-52.22 53.921-21.405 104.019-50.595 153.748-80.814 87.538-53.451 174.679-110.336 263.823-168.207 68.422-44.635 138.575-90.145 216.416-122.784 59.986-24.997 128.591-40.969 185.58-27.894 50.948 11.699 84.563 40.997 132.497 60.553 82.736 33.76 201.295 24.332 309.095-5.668 101.72-28.313 200.02-71.629 309.72-92.679 75.35-14.451 154.66-17.372 235.1-15.115 157.1 5.073 322.74 21.854 449.37 78.409" stroke="#B0B2B6"/><path d="M-1132.93 991.323c249.018 80.717 477.567 74.807 690.696 47.947 78.493-9.89 155.473-23.67 227.224-52.119 53.899-21.349 104.014-50.43 153.741-80.561 87.534-53.287 174.653-110.065 263.811-167.84 68.386-44.537 138.527-89.955 216.325-122.658 59.903-25.024 128.355-41.144 185.389-28.546 50.953 11.259 84.822 39.922 132.866 59.009 82.844 32.913 201.153 23.302 308.988-6.581 101.63-28.164 199.97-71.09 309.7-91.959 75.29-14.319 154.55-17.227 234.97-14.964 157.92 5.099 324.27 21.762 452.11 77.685" stroke="#B1B3B7"/><path d="M-1132.03 997.355c249.219 81.195 477.461 75.815 690.145 49.125 78.467-9.85 155.375-23.66 227.087-52.027 53.888-21.295 104.009-50.265 153.747-80.311 87.517-53.119 174.627-109.794 263.81-167.475 68.361-44.443 138.478-89.767 216.222-122.53 59.831-25.055 128.116-41.33 185.198-29.197 50.95 10.833 85.081 38.846 133.235 57.463 82.952 32.068 201.178 22.844 308.866-7.488 101.4-28.565 199.93-70.552 309.68-91.239 75.24-14.18 154.43-17.069 234.85-14.817 158.74 5.124 325.79 21.657 454.85 76.96" stroke="#B2B4B8"/><path d="M-1131.12 1003.38c249.397 81.68 477.339 76.81 689.568 50.29 78.441-9.81 155.282-23.63 226.963-51.93 53.866-21.235 103.989-50.105 153.75-80.069 87.51-52.954 174.6-109.523 263.797-167.108 68.336-44.348 138.441-89.58 216.119-122.401 59.748-25.083 127.891-41.507 185.008-29.848 50.955 10.391 85.327 37.773 133.603 55.918 83.049 31.224 201.039 21.827 308.742-8.386 101.31-28.427 199.9-70.015 309.67-90.518 75.19-14.041 154.32-16.914 234.71-14.679 159.57 5.151 327.34 21.562 457.59 76.236" stroke="#B3B5B9"/><path d="M-1130.21 1009.41c249.587 82.16 477.22 77.81 688.994 51.47 78.416-9.77 155.189-23.61 226.839-51.83 53.847-21.176 103.983-49.949 153.755-79.828C26.883 876.432 113.95 819.97 203.159 762.47c68.301-44.25 138.392-89.391 216.016-122.273 59.677-25.113 127.656-41.68 184.803-30.507 50.951 9.965 85.586 36.698 133.972 54.373 83.157 30.378 200.908 20.795 308.62-9.295 101.23-28.278 199.86-69.488 309.66-89.797 75.12-13.899 154.21-16.759 234.57-14.529 160.39 5.176 328.87 21.47 460.33 75.512" stroke="#B4B6BA"/><path d="M-1129.31 1015.44c249.787 82.63 477.115 78.83 688.427 52.63 78.403-9.72 155.095-23.58 226.707-51.72 53.824-21.114 103.977-49.779 153.76-79.573 87.489-52.621 174.55-108.969 263.78-166.387 68.276-44.155 138.343-89.202 215.913-122.144 59.594-25.141 127.431-41.858 184.612-31.159 50.948 9.539 85.848 35.634 134.345 52.839 83.264 29.533 200.767 19.778 308.516-10.194 101.13-28.141 199.81-68.95 309.63-89.077 75.08-13.759 154.09-16.6 234.44-14.38 161.21 5.192 330.4 21.367 463.07 74.789" stroke="#B5B7BB"/><path d="M-1128.4 1021.47c249.98 83.12 476.996 79.83 687.854 53.8 78.377-9.67 154.998-23.56 226.582-51.62 53.802-21.05 103.972-49.612 153.762-79.333 87.484-52.456 174.524-108.698 263.768-166.019 68.252-44.061 138.295-89.013 215.81-122.015 59.523-25.172 127.192-42.044 184.421-31.81 50.954 9.098 86.096 34.561 134.714 51.293 83.361 28.69 200.625 18.75 308.389-11.102 101.05-27.993 199.79-68.414 309.62-88.368 75.02-13.632 153.98-16.457 234.3-14.23 162.04 5.218 331.95 21.271 465.81 74.053" stroke="#B6B8BC"/><path d="M-1127.49 1027.5c250.158 83.6 476.88 80.84 687.292 54.98 78.351-9.63 154.905-23.55 226.458-51.53 53.791-21 103.964-49.459 153.767-79.084 87.479-52.292 174.498-108.427 263.768-165.654 68.227-43.967 138.257-88.827 215.707-121.887 59.44-25.199 126.955-42.218 184.227-32.473 50.95 8.672 86.354 33.486 135.083 49.748 83.468 27.844 200.337 17.146 308.268-12.011 101.1-27.303 199.75-67.875 309.6-87.648 74.96-13.489 153.87-16.301 234.18-14.094 162.84 5.247 333.47 21.167 468.55 73.329" stroke="#B7B9BD"/><path d="M-1126.59 1033.52c250.355 84.08 476.768 81.84 686.722 56.14 78.326-9.59 154.811-23.52 226.333-51.43 53.77-20.95 103.948-49.292 153.762-78.832 87.458-52.136 174.471-108.156 263.755-165.287 68.191-43.868 138.205-88.649 215.604-121.758 59.369-25.23 126.719-42.392 184.037-33.124 50.958 8.242 86.601 32.414 135.451 48.203 83.568 27.013 200.194 16.117 308.146-12.908 101.02-27.166 199.72-67.34 309.59-86.927 74.91-13.35 153.75-16.143 234.04-13.945 163.67 5.273 335 21.075 471.3 72.602" stroke="#B8BABE"/><path d="M-1125.68 1039.56c250.548 84.56 476.652 82.84 686.148 57.3 78.301-9.54 154.718-23.49 226.201-51.31 53.747-20.89 103.942-49.131 153.763-78.597 87.454-51.971 174.445-107.886 263.74-164.932 68.167-43.773 138.156-88.46 215.501-121.629 59.297-25.261 126.495-42.57 183.846-33.776 50.955 7.817 86.863 31.35 135.821 46.658 83.664 26.171 200.062 15.085 308.03-13.816 100.92-27.017 199.67-66.813 309.56-86.207 74.86-13.211 153.64-15.988 233.91-13.795 164.49 5.3 336.54 20.968 474.04 71.878" stroke="#B9BBBF"/><path d="M-1124.78 1045.59c250.725 85.04 476.535 83.86 685.573 58.48 78.275-9.49 154.633-23.48 226.077-51.22 53.724-20.83 103.933-48.97 153.768-78.342 87.449-51.807 174.419-107.615 263.739-164.567 68.142-43.679 138.119-88.274 215.409-121.504 59.215-25.289 126.26-42.744 183.641-34.436 50.96 7.376 87.11 30.278 136.19 45.113 83.772 25.325 199.923 14.068 307.913-14.728 100.84-26.88 199.63-66.274 309.55-85.486 74.81-13.084 153.54-15.833 233.77-13.645 165.32 5.325 338.08 20.876 476.79 71.154" stroke="#BABCC0"/><path d="M-1123.88 1051.62c250.928 85.53 476.426 84.86 685.018 59.64 78.249-9.45 154.539-23.45 225.952-51.12 53.714-20.78 103.928-48.81 153.774-78.095C28.296 930.406 115.26 874.713 204.59 817.846c68.106-43.582 138.071-88.085 215.307-121.376 59.143-25.319 126.023-42.918 183.45-35.086 50.957 6.949 87.369 29.202 136.559 43.567 83.871 24.494 199.791 13.037 307.794-15.625 100.75-26.742 199.6-65.738 309.53-84.777 74.75-12.941 153.42-15.675 233.63-13.507 166.15 5.352 339.62 20.784 479.53 70.43" stroke="#BBBCC0"/><path d="M-1122.97 1057.64c251.115 86 476.307 85.87 684.441 60.82 78.236-9.41 154.446-23.43 225.816-51.03 53.692-20.72 103.912-48.64 153.777-77.853 87.426-51.474 174.369-107.061 263.725-163.835 68.082-43.487 138.021-87.896 215.203-121.247 59.061-25.346 125.788-43.092 183.26-35.738 50.953 6.524 87.619 28.142 136.916 42.026 83.971 23.663 199.649 12.008 307.672-16.533 100.67-26.594 199.56-65.212 309.52-84.057 74.69-12.802 153.3-15.531 233.49-13.357 166.97 5.366 341.15 20.676 482.27 69.706" stroke="#BCBDC1"/><path d="M-1122.06 1063.68c251.305 86.47 476.188 86.86 683.867 61.98 78.207-9.37 154.353-23.4 225.696-50.91 53.669-20.67 103.906-48.48 153.782-77.609 87.409-51.306 174.342-106.79 263.712-163.467 68.057-43.393 137.973-87.707 215.1-121.119 58.987-25.389 125.564-43.269 183.067-36.4 50.961 6.094 87.866 27.069 137.285 40.48 84.078 22.817 199.517 10.976 307.551-17.43 100.58-26.457 199.52-64.673 309.5-83.337 74.64-12.674 153.19-15.376 233.37-13.21 167.79 5.392 342.69 20.584 485.01 68.982" stroke="#BDBEC2"/><path d="M-1121.16 1069.71c251.497 86.96 476.082 87.87 683.3 63.15 78.182-9.34 154.256-23.39 225.572-50.82 53.647-20.61 103.897-48.33 153.775-77.36 87.404-51.137 174.316-106.514 263.709-163.11 68.021-43.294 137.936-87.521 214.997-120.99 58.904-25.416 125.328-43.443 182.876-37.052 50.958 5.668 88.128 26.006 137.657 38.947 84.178 21.986 199.378 9.959 307.444-18.342 100.49-26.308 199.49-64.137 309.48-82.616 74.58-12.532 153.07-15.217 233.24-13.06 168.6 5.421 344.21 20.48 487.75 68.258" stroke="#BEBFC3"/><path d="M-1120.25 1075.74c251.687 87.44 475.967 88.89 682.727 64.32 78.156-9.29 154.162-23.36 225.435-50.72 53.625-20.55 103.893-48.16 153.781-77.1 87.4-50.978 174.29-106.249 263.696-162.748 67.997-43.2 137.887-87.332 214.895-120.861 58.832-25.447 125.091-43.618 182.685-37.703 50.951 5.23 88.375 24.933 138.026 37.401 84.278 21.155 199.246 8.928 307.315-19.25 100.4-26.168 199.45-63.598 309.47-81.896 74.53-12.392 152.96-15.062 233.1-12.922 169.42 5.448 345.76 20.385 490.49 67.534" stroke="#BFC0C4"/><path d="M-1119.34 1081.77c251.88 87.93 475.847 89.89 682.165 65.49 78.13-9.24 154.069-23.34 225.311-50.62 53.614-20.5 103.887-47.99 153.783-76.86 87.382-50.813 174.263-105.981 263.683-162.383 67.973-43.105 137.839-87.142 214.792-120.732 58.761-25.479 124.855-43.792 182.479-38.364 50.96 4.801 88.626 23.873 138.396 35.857 84.374 20.312 199.103 7.899 307.201-20.147 100.31-26.031 199.4-63.072 309.44-81.187 74.48-12.265 152.86-14.907 232.97-12.772 170.25 5.473 347.29 20.281 493.23 66.81" stroke="#C0C1C5"/><path d="M-1118.44 1087.79c252.065 88.41 475.739 90.9 681.595 66.66 78.105-9.2 153.975-23.32 225.186-50.53 53.592-20.45 103.871-47.83 153.79-76.62 87.376-50.639 174.239-105.689 263.682-162.01 67.948-43.01 137.801-86.956 214.688-120.604 58.678-25.505 124.631-43.969 182.289-39.014 50.956 4.375 88.884 22.797 138.764 34.311 84.474 19.481 198.973 6.867 307.076-21.055 100.22-25.882 199.37-62.536 309.43-80.467 74.42-12.123 152.73-14.76 232.83-12.622 171.07 5.5 348.83 20.186 495.97 66.086" stroke="#C1C2C6"/><path d="M-1117.53 1093.82c252.255 88.88 475.623 91.91 681.021 67.83 78.08-9.15 153.882-23.29 225.054-50.41 53.57-20.39 103.862-47.68 153.794-76.37 87.372-50.478 174.214-105.422 263.67-161.645 67.916-42.901 137.75-86.779 214.586-120.475 58.607-25.537 124.395-44.144 182.098-39.666 50.953 3.948 89.134 21.737 139.133 32.766 84.573 18.65 198.83 5.838 306.974-21.956 100.13-25.744 199.32-62.008 309.41-79.746 74.37-11.983 152.62-14.605 232.71-12.475 171.89 5.526 350.35 20.082 498.72 65.359" stroke="#C2C3C7"/><path d="M-1116.62 1099.86c252.448 89.36 475.504 92.9 680.448 69 78.066-9.12 153.796-23.28 224.929-50.32 53.548-20.33 103.857-47.51 153.797-76.13 87.354-50.309 174.187-105.15 263.669-161.28 67.891-42.807 137.7-86.59 214.494-120.35 58.524-25.564 124.159-44.317 181.905-40.329 50.961 3.52 89.384 20.676 139.502 31.221 84.672 17.819 198.686 4.81 306.846-22.864 100.05-25.607 199.3-61.473 309.4-79.025 74.31-11.856 152.51-14.45 232.57-12.338 172.71 5.541 351.89 19.99 501.46 64.635" stroke="#C3C4C8"/><path d="M-1115.73 1105.89c252.635 89.85 475.397 93.92 679.894 70.17 78.04-9.07 153.703-23.25 224.805-50.22 53.537-20.28 103.852-47.34 153.802-75.88 87.35-50.143 174.161-104.877 263.654-160.922 67.866-42.712 137.651-86.401 214.391-120.221 58.452-25.595 123.923-44.492 181.714-40.98 50.957 3.093 89.634 19.615 139.871 29.675 84.772 16.988 198.558 3.79 306.719-23.772 99.97-25.459 199.26-60.935 309.38-78.306 74.26-11.713 152.41-14.294 232.44-12.187 173.53 5.567 353.43 19.895 504.2 63.899" stroke="#C4C5C9"/><path d="M-1114.82 1111.92c252.828 90.33 475.281 94.93 679.317 71.34 78.015-9.03 153.61-23.23 224.67-50.12 53.517-20.22 103.831-47.19 153.795-75.63 87.344-49.98 174.134-104.61 263.641-160.559 67.83-42.614 137.614-86.215 214.288-120.092 58.37-25.623 123.69-44.654 181.524-41.632 50.954 2.667 89.893 18.54 140.24 28.131 84.874 16.168 198.415 2.761 306.605-24.67 99.87-25.321 199.21-60.407 309.36-77.596 74.2-11.574 152.29-14.136 232.3-12.038 174.35 5.597 354.96 19.791 506.94 63.176" stroke="#C5C6CA"/><path d="M-1113.92 1117.94c253.025 90.81 475.172 95.94 678.75 72.51 77.99-8.98 153.517-23.2 224.548-50.01 53.496-20.16 103.827-47.03 153.799-75.39 87.327-49.81 174.111-104.327 263.639-160.194 67.807-42.52 137.566-86.026 214.186-119.964 58.298-25.653 123.454-44.828 181.333-42.282 50.962 2.237 90.143 17.479 140.609 26.584 84.974 15.338 198.284 1.73 306.486-25.577 99.78-25.185 199.18-59.872 309.34-76.876 74.15-11.447 152.17-13.993 232.16-11.888 175.17 5.622 356.5 19.699 509.69 62.452" stroke="#C6C7CB"/><path d="M-1113.01 1123.98c253.215 91.28 475.041 96.93 678.177 73.68 77.964-8.94 153.419-23.19 224.424-49.92 53.473-20.1 103.821-46.86 153.803-75.14 87.322-49.65 174.085-104.054 263.627-159.824 67.782-42.425 137.518-85.837 214.083-119.835 58.215-25.681 123.23-45.006 181.127-42.943 50.959 1.812 90.394 16.419 140.981 25.052 85.074 14.506 198.142.701 306.378-26.478 99.68-25.044 199.14-59.345 309.32-76.156 74.1-11.307 152.07-13.837 232.04-11.752 176 5.648 358.04 19.591 512.43 61.727" stroke="#C7C8CB"/><path d="M-1112.1 1130.01c253.396 91.77 474.926 97.95 677.6 74.84 77.938-8.89 153.326-23.16 224.288-49.81 53.451-20.05 103.816-46.7 153.809-74.89 87.305-49.49 174.058-103.79 263.626-159.466 67.758-42.331 137.48-85.65 213.979-119.707 58.145-25.711 122.994-45.179 180.937-43.593 50.956 1.385 90.644 15.358 141.35 23.506 85.176 13.687 198.01-.331 306.251-27.386 99.6-24.896 199.1-58.806 309.31-75.435 74.04-11.177 151.95-13.679 231.9-11.603 176.82 5.674 359.57 19.5 515.17 61.003" stroke="#C8C9CC"/><path d="M-1111.19 1136.04c253.586 92.25 474.81 98.96 677.038 76.01 77.913-8.84 153.233-23.13 224.164-49.71 53.44-20 103.795-46.54 153.81-74.66 87.3-49.31 174.033-103.511 263.612-159.103 67.721-42.233 137.431-85.461 213.876-119.578 58.073-25.742 122.761-45.342 180.746-44.245 50.956.971 90.894 14.298 141.719 21.961 85.276 12.856 197.867-1.359 306.125-28.295 99.52-24.758 199.07-58.281 309.31-74.717 73.98-11.038 151.84-13.524 231.77-11.453 177.64 5.701 361.09 19.396 517.91 60.28" stroke="#C9CACD"/><path d="M-1110.29 1142.06c253.783 92.72 474.701 99.97 676.471 77.19 77.888-8.8 153.139-23.11 224.04-49.62 53.418-19.94 103.79-46.38 153.816-74.41 87.295-49.15 174.006-103.24 263.61-158.738 67.697-42.138 137.383-85.272 213.774-119.449 57.99-25.77 122.525-45.517 180.552-44.908 50.964.541 91.156 13.233 142.088 20.415 85.378 12.037 197.736-2.39 306.009-29.191 99.42-24.621 199.02-57.743 309.29-73.997 73.93-10.899 151.73-13.369 231.63-11.303 178.46 5.715 362.64 19.3 520.65 59.555" stroke="#CACBCE"/><path d="M-1109.38 1148.09c253.965 93.21 474.585 100.98 675.894 78.35 77.874-8.76 153.043-23.1 223.907-49.51 53.396-19.88 103.785-46.21 153.81-74.15C31.51 1053.8 118.21 999.808 207.83 944.407c67.672-42.043 137.33-85.094 213.67-119.32 57.919-25.801 122.289-45.691 180.362-45.56 50.96.116 91.406 12.173 142.457 18.871 85.466 11.209 197.593-3.419 305.902-30.103 99.34-24.472 198.99-57.22 309.26-73.289 73.88-10.767 151.61-13.222 231.5-11.164 179.29 5.741 364.17 19.196 523.39 58.831" stroke="#CBCCCF"/><path d="M-1108.47 1154.12c254.154 93.69 474.469 102 675.321 79.52 77.848-8.71 152.96-23.07 223.782-49.41 53.374-19.82 103.78-46.04 153.816-73.9 87.272-48.82 173.956-102.69 263.585-158.003 67.636-41.946 137.293-84.909 213.579-119.195 57.833-25.84 122.056-45.853 180.171-46.211 50.957-.31 91.657 11.113 142.826 17.325 85.569 10.39 197.462-4.451 305.78-31.011 99.25-24.335 198.95-56.681 309.25-72.568 73.82-10.628 151.5-13.067 231.37-11.018 180.1 5.771 365.7 19.104 526.14 58.104" stroke="#CCCDD0"/><path d="M-1107.57 1160.16c254.358 94.17 474.364 103 674.769 80.69 77.826-8.66 152.867-23.05 223.658-49.32 53.363-19.77 103.771-45.89 153.818-73.66 87.267-48.65 173.929-102.42 263.584-157.641 67.612-41.852 137.245-84.72 213.476-119.067 57.762-25.871 121.82-46.027 179.966-46.87 50.965-.74 91.907 10.051 143.195 15.78 85.671 9.57 197.319-5.48 305.654-31.909 99.16-24.198 198.91-56.153 309.24-71.847 73.76-10.501 151.39-12.912 231.24-10.868 180.92 5.797 367.24 19.009 528.88 57.38" stroke="#CDCED1"/><path d="M-1106.66 1166.19c254.536 94.65 474.245 104 674.192 81.85 77.801-8.61 152.774-23.02 223.534-49.22 53.34-19.71 103.755-45.72 153.823-73.41 87.25-48.49 173.903-102.15 263.568-157.285 67.588-41.757 137.196-84.53 213.373-118.938 57.679-25.898 121.597-46.204 179.776-47.521 50.962-1.166 92.16 9.002 143.552 14.237 85.774 8.751 197.191-6.499 305.532-32.816 99.06-24.058 198.88-55.618 309.22-71.127 73.71-10.359 151.27-12.754 231.1-10.719 181.75 5.823 368.78 18.906 531.63 56.657" stroke="#CECFD2"/><path d="M-1105.77 1172.21c254.731 95.13 474.134 105.01 673.623 83.03 77.776-8.57 152.677-23.01 223.402-49.11 53.318-19.66 103.749-45.56 153.829-73.16 87.245-48.32 173.876-101.88 263.567-156.922 67.551-41.659 137.147-84.341 213.27-118.809 57.607-25.93 121.363-46.367 179.585-48.173 50.961-1.581 92.41 7.942 143.921 12.692 85.876 7.932 197.048-7.528 305.423-33.716 98.98-23.921 198.83-55.091 309.2-70.407 73.66-10.231 151.17-12.598 230.97-10.58 182.57 5.849 370.32 18.81 534.37 55.932" stroke="#CFD0D3"/><path d="M-1104.86 1178.24c254.924 95.62 474.018 106.03 673.05 84.2 77.75-8.52 152.583-22.98 223.277-49.01 53.296-19.6 103.741-45.4 153.831-72.92 87.24-48.16 173.85-101.61 263.554-156.554 67.528-41.564 137.11-84.155 213.167-118.681 57.537-25.96 121.128-46.541 179.392-48.836 50.958-2.006 92.66 6.882 144.293 11.159 85.967 7.116 196.917-8.559 305.306-34.625 98.89-23.771 198.8-54.555 309.18-69.698 73.6-10.091 151.05-12.454 230.83-10.43 183.39 5.876 371.85 18.706 537.11 55.209" stroke="#D0D1D4"/><path d="M-1103.95 1184.28c255.114 96.08 473.903 107.03 672.473 85.36 77.724-8.48 152.49-22.96 223.153-48.92 53.273-19.54 103.735-45.24 153.836-72.67 87.223-47.99 173.827-101.32 263.542-156.187 67.503-41.47 137.061-83.966 213.064-118.552 57.454-25.988 120.895-46.704 179.201-49.487 50.967-2.436 92.926 5.829 144.662 9.614 86.07 6.296 196.774-9.589 305.179-35.534 98.8-23.635 198.76-54.028 309.17-68.977 73.55-9.964 150.93-12.297 230.69-10.281 184.21 5.89 373.38 18.614 539.85 54.485" stroke="#D1D2D5"/><path d="M-1103.05 1190.31c255.306 96.57 473.797 108.04 671.921 86.53 77.699-8.44 152.397-22.93 223.017-48.81 53.263-19.5 103.719-45.08 153.83-72.43 87.218-47.82 173.8-101.05 263.541-155.817 67.479-41.375 137.013-83.777 212.961-118.424 57.383-26.018 120.662-46.866 179.011-50.138 50.966-2.85 93.175 4.769 145.031 8.069 86.172 5.476 196.642-10.621 305.058-36.431 98.72-23.497 198.72-53.489 309.15-68.257 73.49-9.821 150.82-12.141 230.57-10.133 185.04 5.915 374.92 18.506 542.59 53.76" stroke="#D2D3D6"/><path d="M-1102.14 1196.34c255.496 97.05 473.681 109.05 671.347 87.7 77.685-8.39 152.3-22.91 222.896-48.7 53.241-19.44 103.714-44.91 153.833-72.18 87.2-47.66 173.774-100.79 263.525-155.47 67.443-41.276 136.975-83.59 212.858-118.294 57.3-26.046 120.426-47.04 178.805-50.798 50.963-3.276 93.426 3.708 145.4 6.523 86.275 4.658 196.5-11.648 304.936-37.339 98.63-23.36 198.69-52.965 309.13-67.536 73.44-9.694 150.72-11.986 230.44-9.995 185.85 5.945 376.45 18.414 545.33 53.024" stroke="#D3D4D7"/><path d="M-1101.23 1202.36c255.683 97.53 473.562 110.07 670.771 88.88 77.659-8.35 152.206-22.89 222.771-48.61 53.219-19.38 103.705-44.76 153.838-71.93 87.196-47.5 173.748-100.51 263.525-155.1 67.418-41.187 136.923-83.418 212.755-118.17 57.228-26.077 120.193-47.203 178.614-51.45 50.971-3.705 93.679 2.659 145.769 4.978 86.381 3.85 196.354-12.689 304.827-38.239 98.54-23.223 198.64-52.438 309.12-66.816 73.38-9.554 150.59-11.827 230.3-9.845 186.67 5.971 377.98 18.322 548.07 52.301" stroke="#D4D5D7"/><path d="M-1100.33 1208.39c255.874 98.02 473.457 111.08 670.204 90.04 77.634-8.3 152.125-22.87 222.635-48.51 53.197-19.32 103.7-44.59 153.844-71.68 87.19-47.33 173.721-100.24 263.512-154.73 67.394-41.091 136.874-83.227 212.664-118.044 57.145-26.104 119.968-47.38 178.423-52.101 50.971-4.119 93.93 1.599 146.138 3.433 86.484 3.031 196.223-13.72 304.71-39.147 98.45-23.086 198.61-51.903 309.09-66.107 73.34-9.428 150.49-11.684 230.17-9.696 187.49 5.998 379.52 18.216 550.81 51.577" stroke="#D5D6D8"/><path d="M-1099.42 1214.42c256.064 98.49 473.329 112.09 669.642 91.21 77.608-8.26 152.031-22.84 222.511-48.41 53.186-19.27 103.695-44.42 153.85-71.43 87.173-47.16 173.694-99.97 263.51-154.37 67.358-40.991 136.826-83.035 212.561-117.913 57.074-26.135 119.736-47.542 178.233-52.752 50.968-4.546 94.183.55 146.507 1.888 86.578 2.226 196.079-14.749 304.586-40.056 98.36-22.937 198.57-51.376 309.08-65.387 73.27-9.285 150.37-11.528 230.03-9.545 188.32 6.023 381.06 18.123 553.56 50.85" stroke="#D6D7D9"/><path d="M-1098.51 1220.46c256.258 98.97 473.214 113.1 669.068 92.38 77.583-8.22 151.935-22.83 222.387-48.31 53.167-19.21 103.678-44.26 153.852-71.2 87.168-47 173.671-99.69 263.498-154 67.333-40.898 136.789-82.851 212.458-117.786 57.003-26.166 119.503-47.705 178.039-53.415 50.979-4.964 94.437-.499 146.876.343 86.681 1.406 195.948-15.781 304.462-40.953 98.27-22.797 198.53-50.849 309.07-64.666 73.21-9.158 150.26-11.374 229.9-9.411 189.14 6.05 382.59 18.019 556.3 50.126" stroke="#D7D8DA"/><path d="M-1097.61 1226.48c256.443 99.45 473.104 114.11 668.498 93.54 77.561-8.16 151.841-22.8 222.254-48.2 53.145-19.15 103.67-44.11 153.857-70.95 87.163-46.83 173.645-99.41 263.483-153.64 67.308-40.8 136.74-82.663 212.354-117.658 56.921-26.193 119.268-47.879 177.849-54.066 50.976-5.39 94.699-1.563 147.245-1.203 86.787.599 195.805-16.809 304.35-41.864 98.18-22.66 198.5-50.313 309.05-63.946 73.17-9.018 150.15-11.215 229.77-9.261 189.96 6.065 384.13 17.924 559.04 49.402" stroke="#D8D9DB"/><path d="M-1096.71 1232.51c256.631 99.93 473.031 115.51 667.923 94.72 77.55-7.97 151.747-22.78 222.13-48.11 53.122-19.08 103.664-43.94 153.85-70.69 87.146-46.66 173.619-99.14 263.482-153.28 67.284-40.71 136.691-82.471 212.252-117.526 56.849-26.225 119.034-48.042 177.646-54.715 50.976-5.804 94.952-2.612 147.618-2.736 86.888-.22 195.673-17.841 304.229-42.773 98.09-22.523 198.45-49.786 309.03-63.225 73.1-8.888 150.04-11.06 229.63-9.111 190.79 6.09 385.66 17.82 561.79 48.678" stroke="#D9DADC"/><path d="M-1095.8 1238.54c256.824 100.42 472.915 116.53 667.349 95.9 77.525-7.93 151.654-22.76 222.006-48.01 53.1-19.04 103.659-43.78 153.853-70.46 87.14-46.5 173.592-98.87 263.469-152.91 67.248-40.61 136.654-82.287 212.149-117.4 56.763-26.263 118.801-48.204 177.453-55.377 50.983-6.234 95.205-3.661 147.986-4.282 86.995-1.027 195.531-18.869 304.115-43.669 98-22.386 198.41-49.262 309.01-62.517 73.05-8.748 149.92-10.916 229.5-8.961 191.59 6.12 387.19 17.728 564.52 47.954" stroke="#DADBDD"/><path d="M-1094.9 1244.58c257.024 100.89 472.806 117.52 666.794 97.05 77.499-7.88 151.558-22.74 221.87-47.91 53.089-18.98 103.639-43.62 153.858-70.21 87.136-46.33 173.566-98.6 263.469-152.55 67.223-40.51 136.605-82.093 212.045-117.266 56.692-26.294 118.581-48.37 177.263-56.029 50.983-6.648 95.458-4.71 148.355-5.827 87.1-1.835 195.399-19.901 303.986-44.578 97.92-22.248 198.37-48.735 309-61.796 73-8.62 149.8-10.758 229.36-8.823 192.42 6.146 388.73 17.622 567.27 47.231" stroke="#DBDCDE"/><path d="M-1093.99 1250.61c257.203 101.37 472.69 118.53 666.221 98.22 77.485-7.84 151.463-22.71 221.748-47.8 53.067-18.92 103.634-43.46 153.864-69.96 87.118-46.16 173.542-98.31 263.456-152.18 67.199-40.42 136.556-81.903 211.942-117.137 56.609-26.322 118.348-48.532 177.073-56.68 50.979-7.074 95.711-5.759 148.723-7.372 87.207-2.643 195.257-20.93 303.883-45.478 97.82-22.111 198.34-48.199 308.97-61.076 72.95-8.493 149.7-10.602 229.24-8.676 193.25 6.172 390.27 17.529 570.01 46.506" stroke="#DCDDDF"/><path d="M-1093.08 1256.63c257.392 101.85 472.571 119.54 665.644 99.4 77.46-7.8 151.37-22.69 221.624-47.71 53.045-18.87 103.628-43.29 153.866-69.72 87.113-46 173.516-98.05 263.452-151.83 67.163-40.32 136.504-81.72 211.851-117.01 56.538-26.353 118.112-48.706 176.878-57.343 50.992-7.492 95.974-6.823 149.093-8.917 87.313-3.451 195.126-21.962 303.762-46.387 97.73-21.974 198.29-47.672 308.96-60.355 72.88-8.351 149.59-10.448 229.1-8.526 194.07 6.198 391.8 17.437 572.75 45.782" stroke="#DDDEE0"/><path d="M-1092.18 1262.66c257.592 102.33 472.462 120.54 665.077 100.56 77.434-7.75 151.288-22.67 221.488-47.6 53.023-18.82 103.623-43.13 153.872-69.47 87.096-45.84 173.489-97.78 263.439-151.46 67.139-40.23 136.467-81.55 211.748-116.89 56.455-26.38 117.879-48.869 176.688-57.994 50.988-7.918 96.227-7.872 149.462-10.463 87.418-4.258 194.982-22.99 303.636-47.295 97.65-21.837 198.26-47.148 308.94-59.635 72.84-8.223 149.47-10.289 228.97-8.376 194.89 6.224 393.34 17.33 575.49 45.058" stroke="#DEDFE1"/><path d="M-1091.27 1268.69c257.774 102.82 472.347 121.55 664.515 101.73 77.409-7.7 151.195-22.64 221.364-47.51 53.012-18.75 103.603-42.97 153.865-69.21 87.091-45.67 173.463-97.51 263.427-151.09 67.115-40.14 136.418-81.36 211.645-116.762 56.384-26.411 117.658-49.034 176.486-58.642 50.987-8.332 96.48-8.92 149.831-12.008 87.523-5.066 194.847-24.033 303.517-48.191 97.56-21.7 198.22-46.622 308.93-58.915 72.78-8.084 149.36-10.145 228.83-8.238 195.71 6.239 394.87 17.238 578.24 44.331" stroke="#DFE0E2"/><path d="M-1090.36 1274.72c257.964 103.3 472.228 122.56 663.942 102.91 77.383-7.66 151.098-22.63 221.242-47.4 52.99-18.7 103.598-42.81 153.868-68.98 87.086-45.5 173.437-97.23 263.426-150.73 67.078-40.03 136.369-81.16 211.542-116.626 56.312-26.442 117.425-49.197 176.292-59.306 50.999-8.75 96.734-9.969 150.188-13.55 87.63-5.873 194.659-25.275 303.39-49.1 97.42-21.75 198.18-46.082 308.91-58.205 72.73-7.957 149.25-9.991 228.7-8.088 196.53 6.265 396.41 17.13 580.98 43.607" stroke="#E0E1E2"/><path d="M-1089.46 1280.74c258.161 103.77 472.119 123.57 663.372 104.07 77.357-7.61 151.004-22.6 221.106-47.3 52.968-18.65 103.593-42.64 153.873-68.73 87.07-45.33 173.41-96.96 263.413-150.36 67.055-39.94 136.333-80.98 211.44-116.5 56.229-26.469 117.192-49.358 176.101-59.956 50.996-9.176 96.999-11.021 150.56-15.083 87.739-6.67 194.528-26.308 303.285-50 97.33-21.613 198.15-45.559 308.89-57.485 72.67-7.826 149.13-9.832 228.57-7.942 197.36 6.291 397.95 17.038 583.73 42.872" stroke="#E1E2E3"/><path d="M-1088.55 1286.78c258.354 104.25 472.003 124.57 662.798 105.24 77.333-7.57 150.911-22.58 220.983-47.21 52.944-18.59 103.587-42.47 153.878-68.48 87.064-45.17 173.387-96.68 263.409-150 67.03-39.85 136.284-80.79 211.336-116.37 56.159-26.505 116.96-49.526 175.911-60.613 51.007-9.593 97.256-12.058 150.929-16.628 87.845-7.477 194.385-27.336 303.166-50.909 97.25-21.464 198.1-45.031 308.87-56.764 72.62-7.687 149.02-9.677 228.44-7.792 198.17 6.321 399.47 16.934 586.46 42.148" stroke="#E2E3E4"/><path d="M-1087.64 1292.81c258.532 104.73 471.884 125.57 662.224 106.41 77.307-7.52 150.818-22.55 220.859-47.11 52.922-18.53 103.579-42.32 153.883-68.22 87.059-45.01 173.361-96.41 263.397-149.64 67.005-39.76 136.235-80.6 211.233-116.25 56.076-26.525 116.739-49.685 175.717-61.268 51.007-10.008 97.509-13.108 151.298-18.174 87.963-8.288 194.258-28.356 303.039-51.817 97.16-21.327 198.07-44.508 308.86-56.044 72.56-7.559 148.91-9.522 228.3-7.653 198.99 6.346 401.01 16.839 589.2 41.423" stroke="#E3E4E5"/><path d="M-1086.75 1298.84c258.734 105.23 471.777 126.59 661.671 107.59 77.293-7.49 150.721-22.54 220.734-47.01 52.912-18.48 103.562-42.16 153.886-67.99 87.042-44.84 173.334-96.14 263.384-149.28 66.969-39.65 136.186-80.41 211.13-116.11 56.004-26.559 116.506-49.851 175.526-61.923 51.004-10.434 97.775-14.16 151.668-19.719 88.071-9.084 194.114-29.385 302.921-52.714 97.07-21.178 198.03-43.98 308.85-55.327 72.51-7.431 148.79-9.375 228.17-7.503 199.81 6.373 402.54 16.735 591.94 40.699" stroke="#E4E5E6"/><path d="M-1085.84 1304.88c258.924 105.69 471.658 127.58 661.094 108.74 77.268-7.44 150.627-22.51 220.601-46.9 52.89-18.42 103.557-41.99 153.892-67.74 87.036-44.67 173.307-95.87 263.383-148.91 66.945-39.56 136.149-80.22 211.027-115.98 55.921-26.59 116.273-50.015 175.336-62.576 51.015-10.851 98.027-15.209 152.036-21.264 88.177-9.892 193.983-30.416 302.811-53.626 96.99-21.041 197.99-43.456 308.83-54.618 72.45-7.289 148.68-9.22 228.03-7.353 200.64 6.399 404.08 16.643 594.69 39.975" stroke="#E5E6E7"/><path d="M-1084.94 1310.9c259.109 106.17 471.549 128.59 660.527 109.91 77.242-7.39 150.534-22.48 220.477-46.8 52.867-18.36 103.549-41.83 153.885-67.49 87.028-44.51 173.282-95.59 263.371-148.54 66.92-39.46 136.101-80.03 210.936-115.86 55.85-26.61 116.052-50.174 175.13-63.229 51.015-11.266 98.281-16.258 152.405-22.809 88.287-10.688 193.84-31.445 302.689-54.523 96.9-20.904 197.95-42.929 308.82-53.897 72.39-7.162 148.57-9.065 227.89-7.204 201.46 6.413 405.62 16.548 597.43 39.252" stroke="#E6E7E8"/><path d="M-1084.03 1316.93c259.302 106.66 471.43 129.59 659.954 111.09 77.216-7.35 150.452-22.47 220.352-46.7 52.845-18.31 103.544-41.68 153.888-67.25 87.01-44.36 173.258-95.32 263.366-148.19 66.885-39.37 136.049-79.86 210.837-115.72 55.778-26.65 115.818-50.342 174.939-63.887 51.027-11.683 98.55-17.298 152.774-24.354 88.404-11.499 193.709-32.477 302.57-55.431 96.8-20.752 197.91-42.406 308.8-53.177 72.34-7.034 148.45-8.907 227.77-7.069 202.28 6.44 407.15 16.444 600.17 38.528" stroke="#E7E8E9"/><path d="M-1083.12 1322.96c259.492 107.14 471.315 130.6 659.388 112.25 77.192-7.31 150.356-22.45 220.217-46.6 52.838-18.25 103.526-41.51 153.893-67.01 87.006-44.18 173.232-95.04 263.354-147.81 66.86-39.28 136-79.67 210.733-115.6 55.696-26.67 115.586-50.5 174.75-64.532 51.023-12.11 98.802-18.347 153.143-25.9 88.512-12.294 193.569-33.494 302.442-56.34 96.72-20.614 197.88-41.866 308.79-52.456 72.29-6.895 148.34-8.751 227.63-6.919 203.11 6.466 408.68 16.352 602.91 37.804" stroke="#E8E8EA"/><path d="M-1082.21 1328.99c259.674 107.63 471.187 131.62 658.815 113.42 77.165-7.25 150.262-22.42 220.095-46.49 52.816-18.19 103.522-41.34 153.899-66.75 86.989-44.02 173.205-94.77 263.353-147.46 66.835-39.17 135.963-79.48 210.63-115.46 55.621-26.72 115.365-50.67 174.559-65.19 51.034-12.524 99.067-19.396 153.512-27.442 88.621-13.09 193.437-34.525 302.337-57.239 96.63-20.466 197.84-41.343 308.77-51.736 72.23-6.767 148.23-8.608 227.49-6.769 203.92 6.495 410.23 16.245 605.67 37.076" stroke="#E9E9EB"/><path d="M-1081.31 1335.02c259.874 108.11 471.078 132.62 658.251 114.6 77.14-7.21 150.169-22.4 219.971-46.4 52.794-18.13 103.513-41.19 153.901-66.51 86.984-43.86 173.179-94.5 263.341-147.09 66.799-39.08 135.914-79.29 210.527-115.33 55.538-26.75 115.132-50.83 174.365-65.85 51.034-12.945 99.324-20.439 153.884-28.982 88.739-13.901 193.295-35.553 302.22-58.147 96.54-20.329 197.77-41.036 308.74-51.028 72.16-6.771 148.13-8.452 227.36-6.619 204.75 6.521 411.76 16.153 608.41 36.353" stroke="#EAEAEC"/><path d="M-1080.4 1341.04c260.061 108.58 470.959 133.63 657.671 115.76 77.115-7.17 150.075-22.37 219.836-46.3 52.77-18.07 103.507-41.02 153.906-66.26 86.978-43.69 173.152-94.23 263.328-146.72 66.775-38.98 135.865-79.1 210.424-115.2 55.467-26.78 114.914-50.99 174.174-66.51 51.046-13.36 99.59-21.484 154.253-30.52 88.849-14.697 193.164-36.585 302.088-59.056 96.46-20.18 197.75-40.501 308.73-50.307 72.11-6.644 148.01-8.294 227.23-6.481 205.57 6.547 413.28 16.049 611.15 35.629" stroke="#EBEBED"/><path d="M-1079.49 1347.08c260.254 109.06 470.84 134.62 657.097 116.93 77.102-7.13 149.979-22.36 219.712-46.2 52.748-18.02 103.49-40.86 153.9-66.01 86.961-43.53 173.126-93.96 263.324-146.37 66.75-38.89 135.828-78.92 210.321-115.08 55.384-26.8 114.537-51.67 173.972-67.15 51.17-13.32 99.846-22.52 154.622-32.066 88.969-15.497 193.024-37.603 301.972-59.954 96.37-20.042 197.7-39.973 308.71-49.586 72.06-6.505 147.9-8.139 227.11-6.334 206.39 6.573 414.82 15.953 613.88 34.905" stroke="#ECECEE"/><path d="M-1078.59 1353.11c260.442 109.54 470.735 135.63 656.546 118.1 77.075-7.08 149.884-22.33 219.59-46.09 52.738-17.97 103.482-40.71 153.905-65.76 86.956-43.36 173.103-93.68 263.311-146 66.727-38.8 135.78-78.73 210.218-114.95 55.314-26.84 114.449-51.31 173.779-67.81 51.053-14.21 100.111-23.58 154.991-33.619 89.089-16.295 192.893-38.634 301.85-60.861 96.28-19.906 197.67-39.438 308.7-48.866 71.99-6.362 147.79-7.984 226.96-6.184 207.21 6.588 416.36 15.861 616.63 34.18" stroke="#EDEDEE"/><path d="M-1077.69 1359.14c260.63 110.02 470.617 136.65 655.967 119.27 77.05-7.04 149.792-22.31 219.454-46 52.716-17.91 103.477-40.53 153.908-65.52 86.951-43.19 173.076-93.41 263.31-145.63 66.691-38.7 135.731-78.54 210.116-114.82 55.242-26.87 114.227-51.48 173.588-68.47 51.065-14.62 100.379-24.62 155.36-35.16 89.198-17.089 192.749-39.66 301.747-61.759 96.19-19.757 197.63-38.899 308.67-48.145 71.95-6.223 147.67-7.837 226.84-6.035 208.03 6.614 417.9 15.755 619.37 33.457" stroke="#EEEEEF"/><path d="M-1076.79 1365.16c260.83 110.51 470.505 137.65 655.4 120.44 77.025-6.99 149.698-22.28 219.33-45.9 52.693-17.85 103.472-40.37 153.913-65.27 86.934-43.02 173.05-93.13 263.298-145.27 66.666-38.6 135.682-78.35 210.024-114.69 55.159-26.89 113.994-51.64 173.397-69.12 51.065-15.03 100.633-25.66 155.729-36.7 89.319-17.891 192.619-40.695 301.619-62.67 96.11-19.62 197.59-38.361 308.66-47.437 71.89-6.095 147.56-7.682 226.69-5.896 208.86 6.64 419.44 15.662 622.11 32.733" stroke="#EFEFF0"/><path d="M-1075.88 1371.2c261.009 110.98 470.389 138.65 654.826 121.61 77-6.95 149.613-22.28 219.206-45.8 52.671-17.8 103.467-40.21 153.918-65.03 86.93-42.86 173.024-92.86 263.286-144.9 66.642-38.51 135.641-78.17 209.921-114.56 55.088-26.93 113.776-51.79 173.203-69.78 51.077-15.45 100.901-26.71 156.098-38.25 89.44-18.69 192.476-41.723 301.502-63.579 96.02-19.47 197.55-37.836 308.64-46.716 71.84-5.956 147.45-7.526 226.56-5.746 209.67 6.67 420.96 15.558 624.85 31.997" stroke="#F0F0F1"/><path d="M-1074.97 1377.23C-813.768 1488.7-604.7 1516.88-420.709 1500c76.974-6.91 149.52-22.25 219.07-45.7 52.661-17.75 103.447-40.05 153.92-64.79 86.925-42.69 172.998-92.59 263.282-144.54 66.606-38.42 135.593-77.99 209.818-114.44 55.005-26.95 113.544-51.96 173.013-70.43 51.076-15.87 101.166-27.76 156.467-39.8 89.549-19.48 192.348-42.739 301.379-64.472 95.92-19.33 197.51-37.297 308.62-45.996 71.79-5.813 147.34-7.368 226.44-5.599 210.49 6.696 422.51 15.463 627.59 31.273" stroke="#F1F1F2"/><path d="M-1074.06 1383.26c261.392 111.94 470.155 140.66 653.688 123.94 76.948-6.86 149.426-22.22 218.948-45.59 52.639-17.69 103.442-39.89 153.927-64.53 86.907-42.53 172.973-92.31 263.268-144.18 66.581-38.32 135.544-77.8 209.715-114.31 54.934-26.98 113.323-52.12 172.811-71.08 51.088-16.28 101.423-28.8 156.824-41.34 89.67-20.28 192.205-43.768 301.269-65.383 95.83-19.194 197.48-36.762 308.61-45.276 71.73-5.686 147.22-7.213 226.3-5.449 211.31 6.722 424.03 15.359 630.33 30.549" stroke="#F2F2F3"/><path d="M-1073.16 1389.29c261.58 112.42 470.046 141.66 653.124 125.12 76.92-6.83 149.333-22.2 218.825-45.5 52.615-17.63 103.435-39.72 153.92-64.28 86.901-42.36 172.947-92.04 263.267-143.81 66.557-38.23 135.507-77.62 209.612-114.18 54.851-27.01 113.09-52.29 172.617-71.74 51.099-16.71 101.691-29.84 157.197-42.88 89.79-21.08 192.073-44.799 301.148-66.279 95.75-19.045 197.44-36.235 308.59-44.555 71.68-5.547 147.12-7.058 226.16-5.311 212.14 6.748 425.57 15.266 633.09 29.822" stroke="#F3F3F4"/><path d="M-1072.25 1395.31c261.77 112.91 469.927 142.67 652.547 126.29 76.906-6.79 149.236-22.18 218.689-45.39 52.594-17.58 103.43-39.56 153.922-64.05 86.885-42.19 172.921-91.77 263.255-143.44 66.533-38.13 135.458-77.43 209.509-114.06 54.78-27.04 112.872-52.43 172.427-72.39 51.098-17.11 101.956-30.89 157.565-44.41 89.911-21.89 191.93-45.836 301.026-67.196 95.66-18.908 197.41-35.699 308.57-43.834 71.63-5.408 147-6.912 226.03-5.162 212.96 6.763 427.11 15.16 635.83 29.098" stroke="#F4F4F5"/><path d="M-1071.35 1401.34c261.97 113.39 469.821 143.69 651.981 127.45 76.88-6.74 149.142-22.15 218.564-45.29 52.571-17.52 103.41-39.4 153.927-63.8 86.88-42.03 172.895-91.5 263.255-143.08 66.496-38.03 135.409-77.23 209.406-113.92 54.696-27.07 112.651-52.6 172.236-73.05 51.11-17.53 102.224-31.93 157.934-45.96 90.032-22.68 191.802-46.849 300.897-68.098 95.58-18.758 197.38-35.16 308.56-43.125 71.57-5.265 146.88-6.756 225.89-5.012 213.79 6.789 428.64 15.068 638.57 28.374" stroke="#F5F5F6"/><path d="M-1070.44 1407.38c262.163 113.86 469.702 144.68 651.419 128.62 76.854-6.7 149.048-22.13 218.443-45.19 52.56-17.47 103.405-39.24 153.933-63.55 86.874-41.86 172.868-91.22 263.238-142.72 66.472-37.94 135.361-77.05 209.303-113.8 54.626-27.1 112.419-52.76 172.043-73.7 51.121-17.96 102.481-32.97 158.303-47.51 90.152-23.48 191.659-47.88 300.798-69.001 95.48-18.621 197.33-34.621 308.54-42.405 71.51-5.137 146.77-6.6 225.75-4.861 214.61 6.814 430.18 14.975 641.31 27.65" stroke="#F6F6F7"/><path d="M-1069.53 1413.41c262.342 114.34 469.586 145.69 650.845 129.79 76.829-6.65 148.955-22.1 218.307-45.09 52.539-17.41 103.4-39.07 153.935-63.3 86.858-41.7 172.842-90.96 263.227-142.36 66.447-37.84 135.323-76.86 209.199-113.67 54.552-27.14 112.244-52.8 171.852-74.35 51.159-18.28 102.746-34.02 158.672-49.06 90.277-24.27 191.529-48.91 300.673-69.906 95.4-18.484 197.3-34.098 308.52-41.684 71.47-4.999 146.66-6.443 225.63-4.727 215.42 6.844 431.72 14.868 644.05 26.926" stroke="#F7F7F8"/><path d="M-1068.62 1419.44c262.532 114.82 469.467 146.69 650.268 130.96 76.804-6.61 148.859-22.1 218.183-45 52.516-17.35 103.392-38.92 153.94-63.05 86.853-41.54 172.819-90.68 263.226-142 66.411-37.74 135.275-76.67 209.108-113.54 54.469-27.17 112.009-52.98 171.65-75 51.167-18.71 103.014-35.06 159.041-50.6 90.397-25.07 191.385-49.94 300.554-70.806 95.31-18.336 197.25-33.559 308.5-40.965 71.41-4.856 146.55-6.287 225.5-4.576 216.24 6.87 433.25 14.776 646.79 26.202" stroke="#F8F8F9"/><path d="M-1067.73 1425.46c262.73 115.31 469.357 147.71 649.7 132.13 76.778-6.56 148.777-22.07 218.058-44.89 52.497-17.29 103.387-38.76 153.935-62.81 86.847-41.37 172.792-90.4 263.213-141.62 66.387-37.65 135.222-76.5 209.005-113.42 54.397-27.19 111.784-53.15 171.459-75.65 51.175-19.14 103.283-36.1 159.41-52.14 90.53-25.87 191.254-50.98 300.43-71.719 95.23-18.198 197.23-33.023 308.49-40.243 71.35-4.717 146.43-6.144 225.36-4.427 217.07 6.896 434.78 14.672 649.53 25.478" stroke="#F9F9F9"/><path d="M-1066.82 1431.5c262.908 115.78 469.241 148.71 649.138 133.3 76.753-6.52 148.683-22.05 217.937-44.79 52.487-17.23 103.37-38.59 153.94-62.56 86.83-41.2 172.766-90.13 263.212-141.26 66.363-37.55 135.186-76.31 208.903-113.28 54.314-27.23 111.548-53.33 171.265-76.32 51.172-19.56 103.551-37.14 159.779-53.69 90.65-26.67 191.114-51.99 300.306-72.62 95.13-18.048 197.18-32.498 308.47-39.537 71.3-4.589 146.31-5.985 225.23-4.276 217.89 6.922 436.32 14.577 652.27 24.754" stroke="#FAFAFA"/><path d="M-1065.92 1437.53c263.111 116.27 469.132 149.71 648.571 134.46 76.727-6.47 148.59-22.02 217.801-44.69 52.465-17.17 103.365-38.42 153.942-62.31 86.825-41.04 172.74-89.86 263.197-140.91 66.326-37.46 135.136-76.12 208.799-113.15 54.243-27.26 111.324-53.51 171.075-76.98 51.18-19.99 103.841-38.1 160.148-55.23 90.813-27.32 190.983-53.02 300.197-73.52 95.04-17.911 197.14-31.959 308.45-38.816 71.26-4.45 146.21-5.83 225.09-4.139 218.71 6.937 437.85 14.473 655.02 24.031" stroke="#FBFBFB"/><path d="M-1065.01 1443.56c263.302 116.75 469.016 150.72 647.997 135.63 76.714-6.43 148.497-21.99 217.678-44.59 52.441-17.12 103.355-38.26 153.947-62.06 86.82-40.87 172.713-89.59 263.184-140.54 66.302-37.36 135.087-75.93 208.696-113.03 54.16-27.28 111.099-53.68 170.884-77.62 51.189-20.42 104.104-39.16 160.52-56.76 90.939-28.15 190.84-54.05 300.074-74.44 94.96-17.769 197.11-31.418 308.44-38.09 71.19-4.308 146.1-5.675 224.97-3.992 219.53 6.963 439.37 14.381 657.75 23.306" stroke="#FCFCFC"/><path d="M-1064.1 1449.58c263.488 117.22 468.894 151.72 647.421 136.81 76.688-6.39 148.399-21.98 217.553-44.5 52.419-17.06 103.35-38.1 153.953-61.81 86.802-40.7 172.689-89.31 263.182-140.18 66.278-37.26 135.039-75.74 208.594-112.89 54.089-27.32 110.866-53.85 170.69-78.29 51.185-20.84 104.366-40.23 160.89-58.31 91.049-28.98 190.708-55.08 299.957-75.34 94.86-17.623 197.06-30.895 308.42-37.373 71.13-4.18 145.99-5.52 224.83-3.842 220.35 6.989 440.92 14.274 660.5 22.579" stroke="#FDFDFD"/><path d="M-1063.2 1455.61c263.68 117.71 468.789 152.73 646.854 137.97 76.662-6.34 148.306-21.95 217.417-44.39 52.397-17.01 103.334-37.94 153.955-61.58 86.798-40.54 172.663-89.04 263.17-139.81 66.254-37.17 135.002-75.55 208.491-112.77 54.017-27.34 110.642-54.02 170.5-78.93a2224.858 2224.858 0 01161.258-59.86c91.161-29.81 190.569-56.1 299.835-76.24 94.78-17.48 197.04-30.355 308.4-36.649 71.09-4.041 145.87-5.373 224.7-3.692 221.17 7.019 442.45 14.182 663.24 21.841" stroke="#FEFEFE"/><path d="M-1062.29 1461.64C70.013 1968.81 114.596 954.274 1591.41 985.455c221.99 7.045 443.99 14.086 665.98 21.115" stroke="#fff"/></g></g><defs><clipPath id="clip0_2144_5012"><path fill="#fff" d="M0 0h1919v1050H0z"/></clipPath><clipPath id="clip1_2144_5012"><path fill="#fff" transform="rotate(-15.285 1586.278 5136.717)" d="M0 0h3322.5v1329.87H0z"/></clipPath></defs></svg>