<svg width="217" height="51" fill="none" xmlns="http://www.w3.org/2000/svg"><path d="M193.91 38.578l7.804-.098c.315.98 1.357 1.951 3.286 1.927 2.613-.033 3.492-1.667 3.462-4.066l-.021-1.709-.173.003c-1.271 1.517-2.97 2.644-5.496 2.675-4.975.063-9.347-3.56-9.437-10.748-.083-6.585 3.408-11.765 8.772-11.833 3.089-.039 4.991 1.18 6.261 3.133l.13-.002-.032-2.52 7.717-.097.251 19.927c.046 3.677-1.207 6.559-3.115 8.3-1.993 1.82-4.856 2.582-8.118 2.623-6.133.077-10.448-2.398-11.291-7.515zm14.768-12.598c-.036-2.865-1.432-5.16-3.794-5.131-2.275.028-3.703 2.1-3.664 5.225.039 3.081 1.529 5.28 3.796 5.252 2.353-.02 3.7-2.308 3.662-5.346zm-24.049-6.413l.13-.002c1.629-3.231 3.803-4.45 6.589-4.485.64-.008 1.074.073 1.335.2l.089 7.059-.174.002c-4.769-.794-7.526 1.51-7.461 6.68l.121 9.623-8.106.102-.289-23.009 7.717-.097.049 3.927zM.076 8.716l15.866-.2c3.002-.038 5.322.658 6.973 1.967 1.862 1.47 2.876 3.684 2.91 6.334.038 3.08-1.183 5.02-3.738 6.253l.002.13c3.362 1.07 5.329 4.041 5.375 7.675.043 3.46-1.255 6.178-3.415 7.828-1.826 1.353-4.215 2.021-7.39 2.061l-16.178.204L.076 8.716zm15.412 24.916c1.93-.024 3.325-1.198 3.298-3.339-.028-2.227-1.581-3.277-3.424-3.254l-6.264.079.083 6.585 6.307-.08v.009zm-.979-12.478c1.713-.022 2.947-.978 2.924-2.86-.024-1.838-1.324-2.72-3.037-2.697l-5.442.068.07 5.558 5.485-.069zM28.634 8.357l8.314-.105.406 32.252-8.314.105-.406-32.252zm10.167 20.657c-.09-7.267 4.562-12.245 11.855-12.337 7.294-.092 11.984 4.77 12.075 12.036.092 7.319-4.475 12.245-11.768 12.337-7.293.1-12.07-4.717-12.162-12.036zm15.694-.197c-.05-4.022-1.371-6.526-3.854-6.495-2.483.032-3.654 2.567-3.603 6.589.05 4.065 1.285 6.57 3.768 6.538 2.483-.022 3.74-2.567 3.69-6.632zm9.18-.116c-.092-7.267 4.561-12.245 11.854-12.337 7.293-.092 11.984 4.77 12.075 12.037.092 7.318-4.475 12.244-11.768 12.336-7.293.1-12.07-4.717-12.162-12.036zm15.693-.197c-.05-4.022-1.371-6.526-3.854-6.494-2.483.03-3.654 2.566-3.603 6.588.05 4.065 1.285 6.57 3.768 6.539 2.483-.023 3.74-2.568 3.689-6.633zm9.674-11.662l7.717-.098.044 3.461.13-.001c1.506-2.712 3.589-4.197 6.894-4.239 2.916-.037 5.123 1.386 6.27 3.9l.13-.001c1.848-3.062 4.285-4.033 7.114-4.069 5.363-.067 7.723 3.84 7.79 9.138l.181 14.456-8.106.102-.164-12.997c-.029-2.356-.775-3.883-2.834-3.857-2.016.025-3.022 1.92-2.991 4.405l.158 12.531-8.115.102-.164-13.006c-.029-2.356-.775-3.883-2.834-3.857-2.016.025-3.022 1.92-2.99 4.405l.157 12.532-8.097.101-.29-23.008zm46.13 19.437h-.087l.038 2.996-7.717.097L127 7.12l8.107-.102.146 11.633.13-.001c1.515-2.03 3.56-3.126 6.519-3.164 5.788-.072 9.202 5.107 9.289 12.029.098 7.827-3.488 12.361-9.492 12.437-2.491.04-5.076-1.128-6.527-3.673zm7.781-8.739c-.046-3.72-1.443-6.101-3.892-6.07-2.483.03-4.044 2.45-3.998 6.17.047 3.676 1.661 6.099 4.152 6.067 2.483-.04 3.785-2.447 3.738-6.167zm9.267-.03c-.09-7.189 4.605-12.246 11.509-12.333 3.426-.043 6.104.994 8.144 2.893 2.688 2.53 3.941 6.537 3.915 11.285l-15.478.194c.382 2.861 1.768 4.303 4.216 4.272 1.419-.018 2.648-.672 3.148-2.224l7.803-.098c-1.301 5.273-5.342 7.983-11.13 8.055-7.172.082-12.034-4.69-12.127-12.044zm8.033-2.5l7.371-.093c-.165-2.778-1.723-4.217-3.652-4.193-2.232.029-3.458 1.632-3.719 4.285z" fill="#757880"/></svg>