<svg width="294" height="51" fill="none" xmlns="http://www.w3.org/2000/svg"><path d="M49.773 25.404v-.098C49.724 11.44 38.556.125 24.887.125 11.217.125 0 11.441 0 25.404 0 39.369 11.167 50.66 24.887 50.66a24.462 24.462 0 0016.905-6.765 2.291 2.291 0 00-3.09-3.383l-.05.05a20.125 20.125 0 01-29-1.322l10.63-17.049v7.89c0 3.769 1.47 4.996 2.706 5.339 1.236.343 3.089.094 5.096-3.089l5.833-9.471c.155-.277.336-.539.535-.786v4.804c0 3.526 1.421 6.368 3.87 7.738a7.125 7.125 0 007.302-.292c2.828-1.836 4.347-5.05 4.15-8.921zm-6.468 4.961a2.676 2.676 0 01-2.705.194c-.98-.586-1.57-1.907-1.57-3.72v-5.553c0-2.643-1.029-4.555-2.791-5.042-2.99-.903-5.241 2.791-6.076 4.163l-5.276 8.474V18.448c-.05-2.4-.835-3.82-2.305-4.264-.98-.292-2.45-.143-3.87 2.013L6.907 35.106a20.95 20.95 0 01-2.4-9.702c0-11.415 9.16-20.675 20.38-20.675 11.222 0 20.381 9.26 20.381 20.675v.1c.117 2.201-.59 3.968-1.96 4.847l-.002.014zM84.46 16.782a2.463 2.463 0 011.129 1.91 2.17 2.17 0 01-2.107 2.157 3.51 3.51 0 01-.786-.15 8.068 8.068 0 00-4.753-1.613c-4.163 0-7.003 3.378-7.003 7.59s2.89 7.546 7.003 7.546a7.595 7.595 0 005.29-2.156c.361-.254.788-.39 1.227-.392a1.986 1.986 0 011.733 2.99c-.17.298-.412.552-.704.736a11.631 11.631 0 11-7.495-20.577 11.084 11.084 0 016.466 1.959zm11.659 4.884a8.303 8.303 0 00-8.339 8.242 8.435 8.435 0 008.33 8.383c4.312 0 7.987-3.871 7.987-8.383 0-4.508-3.617-8.242-7.978-8.242zm-.05 12.542c-2.056 0-3.77-1.862-3.77-4.263 0-2.497 1.714-4.018 3.77-4.018 1.913 0 3.527 1.57 3.527 4.018 0 2.45-1.614 4.277-3.526 4.277v-.014zm10.779 1.533V24.177a2.265 2.265 0 01.646-1.623 2.25 2.25 0 011.61-.676 2.287 2.287 0 012.255 2.299v11.564a2.284 2.284 0 01-2.255 2.301 2.325 2.325 0 01-2.256-2.301zm-.343-18.224a2.626 2.626 0 01.733-1.898 2.637 2.637 0 011.866-.81 2.676 2.676 0 012.642 2.708 2.62 2.62 0 01-5.241 0zm13.473 11.956v6.268a2.255 2.255 0 11-4.511 0V23.64a1.74 1.74 0 113.479 0 6.54 6.54 0 014.961-1.96c4.51 0 6.517 3.38 6.517 7.252v6.809a2.256 2.256 0 01-4.512 0v-6.268c0-1.962-.243-3.609-3.085-3.609-2.005 0-2.84 1.664-2.84 3.608h-.009zm25.036 2.399a1.465 1.465 0 01-1.178-.592l-5.241-5.682v10.143a2.255 2.255 0 01-2.255 2.319 2.257 2.257 0 01-2.255-2.319V15.653a.958.958 0 01.835-.587c.388.066.738.276.98.587l8.379 9.408a1.078 1.078 0 00.735.451 1.23 1.23 0 00.735-.451l8.375-9.408a1.473 1.473 0 01.978-.587.862.862 0 01.835.587v20.09a2.247 2.247 0 01-.645 1.623 2.263 2.263 0 01-1.61.676 2.286 2.286 0 01-2.255-2.301V25.598l-5.246 5.682a1.805 1.805 0 01-1.173.592h.006zm42.376-6.026h-.492c-2.84.144-3.377 1.764-3.377 3.609v6.269a2.259 2.259 0 01-2.256 2.256 2.259 2.259 0 01-2.254-2.258v-12.08a1.746 1.746 0 011.741-1.742 1.743 1.743 0 011.74 1.742c1.664-1.57 3.036-1.913 4.406-1.964h.452a2.112 2.112 0 012.056 2.107 2.066 2.066 0 01-2.007 2.061h-.009zm17.391 8.817c.207.324.326.695.343 1.078a2.356 2.356 0 01-2.255 2.256c-.781 0-1.47-.592-2.008-1.278l-5.19-6.034v5.005a2.258 2.258 0 01-2.255 2.255 2.254 2.254 0 01-2.255-2.255V17.324a2.256 2.256 0 011.39-2.086 2.255 2.255 0 012.458.492c.424.421.662.997.662 1.592v11.463l5.19-5.73c.538-.59 1.178-1.225 1.959-1.225a2.254 2.254 0 012.156 2.205c.002.364-.1.72-.294 1.027l-4.113 4.51 4.212 5.098v-.007zm27.241 3.577h-1.227c-3.428 0-5.439-1.52-5.439-6.86v-5.534h-1.172a2.084 2.084 0 110-4.168h1.155v-4.261a2.244 2.244 0 012.254-2.3 2.295 2.295 0 012.255 2.3v4.249h1.859a2.072 2.072 0 012.011 2.105 2.142 2.142 0 01-2.011 2.061h-1.859v4.655c0 3.086.144 3.721 1.516 3.721h.641a2.015 2.015 0 012.007 2.013 2.058 2.058 0 01-2.007 2.007l.017.012zm21.798-21.459a2.46 2.46 0 011.127 1.912 2.165 2.165 0 01-2.107 2.155 3.73 3.73 0 01-.784-.148 8.046 8.046 0 00-4.75-1.614c-4.166 0-7.008 3.378-7.008 7.59s2.891 7.546 7.008 7.546a7.597 7.597 0 005.291-2.156 2.157 2.157 0 011.223-.392 1.999 1.999 0 011.428.581 1.982 1.982 0 01.308 2.411 2.07 2.07 0 01-.709.732 11.613 11.613 0 01-10.461 2.275 11.624 11.624 0 01-8.493-12.719 11.623 11.623 0 0111.459-10.13 10.972 10.972 0 016.468 1.958zm-80.588 5.047a1.713 1.713 0 00-1.23.52 1.71 1.71 0 00-.488 1.243l-.094.542a7.058 7.058 0 00-5.245-2.499c-4.407 0-7.59 3.72-7.59 8.225 0 4.506 3.133 8.381 7.347 8.381 1.764 0 4.555-.786 5.439-2.499l.099.537a1.696 1.696 0 001.086 1.61c.216.082.446.12.676.109a1.762 1.762 0 001.765-1.764V23.605a1.805 1.805 0 00-1.765-1.777zm-6.566 12.394c-2.007 0-3.576-1.907-3.576-4.263 0-2.354 1.615-4.06 3.576-4.06 1.96 0 3.726 1.615 3.726 4.06 0 2.445-1.717 4.263-3.726 4.263zm54.578-4.655c-.1-5.047-3.383-7.889-7.741-7.889-5.411 0-7.694 3.92-7.694 8.43 0 5.733 3.776 8.181 8.331 8.181 1.714 0 3.527-.247 4.897-1.276a1.982 1.982 0 00.98-1.615 1.853 1.853 0 00-1.804-1.862 2.246 2.246 0 00-1.173.343 7.298 7.298 0 01-2.941.586c-1.127 0-3.725-.451-3.725-3.134h9.101a1.805 1.805 0 001.769-1.764zm-10.88-1.137c0-1.908 2.012-2.543 3.234-2.543 1.223 0 3.234.635 3.283 2.543h-6.517zm61.428-6.602a1.72 1.72 0 00-1.599 1.091 1.71 1.71 0 00-.115.672l-.098.542a7.04 7.04 0 00-5.242-2.499c-4.41 0-7.595 3.72-7.595 8.225 0 4.506 3.157 8.381 7.347 8.381 1.764 0 4.56-.786 5.439-2.499l.1.537a1.7 1.7 0 001.087 1.609c.216.082.446.12.676.11a1.77 1.77 0 001.632-1.089 1.79 1.79 0 00.132-.675V23.605a1.802 1.802 0 00-1.764-1.777zm-6.567 12.394c-1.957 0-3.575-1.907-3.575-4.263 0-2.354 1.569-4.06 3.575-4.06 2.007 0 3.726 1.615 3.726 4.06 0 2.445-1.705 4.263-3.716 4.263h-.01zM286.4 21.666a7.248 7.248 0 00-5.29 2.156c0-1.124-.736-1.959-1.714-1.959a1.757 1.757 0 00-1.633 1.088 1.762 1.762 0 00-.134.677v19.01a2.259 2.259 0 002.254 2.254 2.257 2.257 0 002.256-2.254v-5.72c1.221.928 3.183 1.322 4.509 1.354 4.263 0 7.352-3.87 7.352-8.38 0-4.511-3.238-8.226-7.6-8.226zm-.541 12.542c-2.007 0-3.72-1.802-3.72-4.261s1.713-4.06 3.72-4.06 3.577 1.615 3.577 4.06c0 2.366-1.564 4.275-3.577 4.275v-.014z" fill="#757880"/></svg>