<svg width="148" height="55" fill="none" xmlns="http://www.w3.org/2000/svg"><path d="M30.101 20.43c-5.314.068-9.416 4.134-9.348 9.506.067 5.373 4.165 9.302 9.584 9.233 5.419-.068 9.486-4.167 9.418-9.506-.066-5.304-4.165-9.301-9.654-9.232zm.223 14.867c-3.026.038-5.273-2.273-5.313-5.413-.04-3.176 2.113-5.54 5.139-5.578 3.062-.039 5.308 2.306 5.347 5.446.04 3.14-2.147 5.507-5.173 5.545zM40.85 24.38l2.64-.033.18 14.307 4.222-.053-.227-18.042-6.862.086.047 3.735zm-30.794.177c2.218-.028 3.994 1.31 4.688 3.326l4.47-.056c-.865-4.316-4.491-7.203-9.17-7.144-5.316.067-9.417 4.133-9.35 9.507.068 5.374 4.165 9.301 9.584 9.233 4.575-.058 8.198-3.035 8.953-7.408l-4.435.056c-.608 2.032-2.35 3.45-4.568 3.479-3.062.038-5.237-2.273-5.277-5.414-.038-3.175 2.044-5.54 5.104-5.579zm111.071 2.373l-3.102-.414c-1.48-.19-2.542-.666-2.557-1.818-.016-1.256 1.349-1.901 3.214-1.925 2.041-.025 3.354.83 3.654 2.258l4.082-.052c-.504-3.623-3.346-5.716-7.674-5.662-4.469.057-7.396 2.362-7.356 5.573.039 3.07 1.997 4.826 5.909 5.335l3.102.414c1.517.19 2.369.773 2.383 1.89.018 1.43-1.452 2.042-3.493 2.068-2.5.031-3.92-.963-4.15-2.495l-4.153.052c.433 3.52 3.243 5.962 8.31 5.898 4.611-.058 7.645-2.19 7.6-5.785-.041-3.21-2.278-4.858-5.769-5.337zM45.46 13.153c-1.548.02-2.696 1.15-2.676 2.685.02 1.536 1.194 2.637 2.743 2.618 1.548-.02 2.696-1.15 2.677-2.686-.02-1.535-1.195-2.637-2.744-2.617zm62.141 12.83c-.049-3.907-2.475-6.494-7.542-6.43-4.786.06-7.43 2.502-7.912 6.207l4.188-.052c.193-1.434 1.304-2.634 3.697-2.664 2.148-.027 3.215.901 3.229 2.053.019 1.501-1.912 1.909-4.301 2.183-3.234.39-7.231 1.556-7.178 5.744.04 3.246 2.495 5.308 6.366 5.26 3.026-.038 4.911-1.319 5.836-3.32.164 1.778 1.515 2.913 3.381 2.89l2.463-.032-.047-3.733-2.077.026-.103-8.131zm-4.096 4.59c.031 2.408-2.058 4.214-4.627 4.246-1.584.02-2.93-.626-2.947-2.021-.023-1.78 2.118-2.296 4.086-2.53 1.898-.197 2.948-.63 3.466-1.44l.022 1.745zM80.951 19.79c-2.359.03-4.317 1.032-5.704 2.69l-.124-9.876-4.222.054.322 25.649 4.152-.053-.03-2.372c1.43 1.692 3.449 2.678 5.841 2.648 5.067-.063 8.854-4.09 8.786-9.464-.067-5.374-4.024-9.338-9.021-9.276zm-.447 14.875c-3.026.038-5.273-2.273-5.312-5.413-.04-3.14 2.183-5.541 5.209-5.58 3.062-.038 5.237 2.274 5.277 5.448.04 3.14-2.148 5.507-5.174 5.545zM60.892 20.044c-2.745.034-4.526 1.173-5.562 2.757l-.03-2.338-4.188.052.227 18.041 4.223-.053-.123-9.805c-.035-2.757 1.7-4.733 4.304-4.766 2.428-.03 3.962 1.66 3.993 4.139l.13 10.33 4.223-.054-.134-10.643c-.055-4.538-2.453-7.718-7.063-7.66zm86.079 7.713c-.064-5.164-3.911-8.745-9.014-8.681-5.418.068-9.344 4.166-9.277 9.505.07 5.618 4.375 9.298 9.584 9.232 4.399-.055 7.815-2.68 8.648-6.355l-4.4.055c-.613 1.613-2.15 2.54-4.226 2.566-2.71.034-4.773-1.615-5.266-4.541l13.97-.176-.019-1.605zm-13.742-1.224c.638-2.52 2.522-3.765 4.704-3.793 2.393-.03 4.24 1.308 4.692 3.675l-9.396.118z" fill="#757880"/></svg>