<svg width="144" height="45" fill="none" xmlns="http://www.w3.org/2000/svg"><g clip-path="url(#clip0_2144_4774)" fill="#757880"><path d="M18.013 16.057v4.807h11.631c-.309 2.659-1.235 4.704-2.676 6.034-1.647 1.636-4.323 3.477-8.955 3.477-7.102 0-12.66-5.727-12.66-12.784s5.455-12.784 12.66-12.784c3.808 0 6.69 1.534 8.749 3.477l3.397-3.375C27.277 2.148 23.365 0 18.013 0 8.234 0 0 7.875 0 17.59c0 9.717 8.234 17.592 18.013 17.592 5.25 0 9.264-1.739 12.352-4.91 3.19-3.17 4.22-7.67 4.22-11.25a23.67 23.67 0 00-.206-2.965H18.013zm30.982-3.989c-6.279 0-11.528 4.807-11.528 11.353 0 6.545 5.146 11.352 11.528 11.352 6.382 0 11.528-4.705 11.528-11.25 0-6.648-5.146-11.455-11.528-11.455zm0 18.307c-3.5 0-6.485-2.863-6.485-6.852 0-4.091 2.985-6.852 6.485-6.852 3.5 0 6.485 2.761 6.485 6.852 0 3.989-2.985 6.852-6.485 6.852zm56.303-15.75h-.206c-1.132-1.33-3.294-2.557-6.073-2.557-5.764 0-10.705 4.91-10.705 11.353 0 6.34 4.941 11.352 10.705 11.352 2.779 0 4.941-1.227 6.073-2.557h.206v1.636c0 4.296-2.367 6.648-6.073 6.648-3.088 0-4.94-2.148-5.764-4.09l-4.323 1.84C90.373 41.216 93.77 45 99.328 45c5.867 0 10.911-3.477 10.911-11.864V12.682h-4.735v1.943h-.206zm-5.764 15.75c-3.5 0-6.073-2.966-6.073-6.852 0-3.989 2.676-6.852 6.073-6.852 3.397 0 6.073 2.966 6.073 6.954.103 3.887-2.573 6.75-6.073 6.75zM74.625 12.068c-6.28 0-11.529 4.807-11.529 11.353 0 6.545 5.147 11.352 11.529 11.352 6.381 0 11.528-4.705 11.528-11.25 0-6.648-5.147-11.455-11.528-11.455zm0 18.307c-3.5 0-6.485-2.863-6.485-6.852 0-4.091 2.985-6.852 6.485-6.852 3.5 0 6.484 2.761 6.484 6.852 0 3.989-2.985 6.852-6.484 6.852zM114.047.512h4.941v34.363h-4.941V.512zm20.175 29.863c-2.574 0-4.324-1.125-5.559-3.477L144 20.659l-.515-1.33c-.926-2.556-3.911-7.26-9.778-7.26-5.867 0-10.808 4.602-10.808 11.352 0 6.34 4.838 11.352 11.323 11.352 5.249 0 8.234-3.17 9.572-5.012l-3.911-2.556c-1.338 1.943-3.088 3.17-5.661 3.17zm-.309-14.011c2.058 0 3.808 1.023 4.323 2.454l-10.293 4.296c-.103-4.705 3.396-6.75 5.97-6.75z"/></g><defs><clipPath id="clip0_2144_4774"><path fill="#fff" d="M0 0h144v45H0z"/></clipPath></defs></svg>