<svg width="207" height="53" fill="none" xmlns="http://www.w3.org/2000/svg"><path d="M.424 7.004l41.097-.517.528 41.997-41.097.517L.424 7.004zm3.107 6.569c1.951 8.478 3.7 17.062 5.55 25.593.32 1.02.131 2.355 1.165 3.059 1.798.285 3.641.159 5.433.034.975.039 1.216-1.142 1.36-1.912 1.153-6.11 2.41-12.17 3.563-18.28.095-.566.242-1.13.491-1.646 1.62 6.536 2.984 13.076 4.45 19.614.214.714.275 1.533.947 1.986 1.95.231 3.95.206 5.893-.075.712-.418.701-1.289.897-2.008 1.682-8.935 3.26-17.919 5.044-26.854l-5.175.065c-1.286 7.802-2.264 15.6-3.704 23.353-1.774-6.534-3.037-13.228-4.607-19.868-.373-1.122-.24-2.763-1.477-3.362a33.894 33.894 0 00-4.56.058c-.871.062-1.063 1.089-1.208 1.756-1.095 6.673-2.448 13.247-3.697 19.82-.147.616-.344 1.182-.542 1.799-1.48-7.716-2.86-15.485-4.187-23.203l-5.636.07zM82.31 5.974l41.097-.517.528 41.997-41.096.517-.528-41.997zm9.358 6.49l.362 28.783 5.688-.072-.141-11.267 9.275-.117c1.126-.116 2.468.687 2.484 1.916.193 3.122.488 6.192.732 9.313l5.432-.068c-.557-3.527.012-7.171-1.005-10.59-.535-1.787-2.538-2.171-4.081-2.613 1.17-.63 2.656-.7 3.462-1.836 1.21-1.552 1.287-3.602 1.263-5.497-.028-2.202-.007-4.61-1.465-6.436-1.146-1.522-3.25-1.7-4.992-1.679-5.74.021-11.377.092-17.014.163zm72.631-7.521l41.609-.523.528 41.997-41.609.523-.528-41.997zm9.358 6.49l.362 28.783 14.348-.18c2.971-.089 6.398-.695 8.107-3.33 2.059-3.355 1.65-7.396 2.012-11.14-.405-3.734-.149-7.835-2.292-11.138-1.671-2.438-4.856-3.063-7.625-3.131-4.971-.04-9.941.074-14.912.136zM52.054 12.655l19.882-.25.065 5.173-7.02.088.24 19.052 7.02-.088c.02 1.69.043 3.432.065 5.173l-19.883.25a87.043 87.043 0 01-.065-5.173l7.02-.088-.239-19.052-7.02.088-.065-5.173zm78.76-.99c8.096-.154 16.244-.256 24.341-.307l.12 9.578-5.278.066-.055-4.404-9.532.12.084 6.606 7.686-.097.062 4.917-7.687.097.095 7.529c3.279-.093 6.508-.082 9.787-.124l-.063-5.019 5.381-.067.128 10.192-24.699.31c-.073-1.74-.043-3.431-.065-5.173l3.894-.049-.239-19.052-3.895.05-.065-5.174z" fill="#757880"/><path d="M97.416 17.105c3.639.005 7.326-.195 10.967-.087 1.447.955 1.165 3.008 1.235 4.492-.034 1.384-.058 3.587-1.901 3.712-3.38.197-6.815.086-10.248.18.017-2.715-.018-5.531-.053-8.297zm81.988-1.031l9.275-.117c1.384-.017 2.981.629 3.408 2.006 1.008 2.754.636 5.78.775 8.647-.073 2.306.213 4.71-.734 6.874-.648 1.39-2.335 1.77-3.718 1.788l-8.763.11-.243-19.308z" fill="#757880"/></svg>