<svg width="154" height="59" fill="none" xmlns="http://www.w3.org/2000/svg"><path d="M7.194 44.205a703.729 703.729 0 002.104-5.14c.415-1.005.83-2.026 1.245-3.016a.78.78 0 00-.008-.65 4299.617 4299.617 0 01-9.91-22.584 3.786 3.786 0 01-.164-.379.634.634 0 01.333-.004l8.2-.103a.46.46 0 01.495.343l5.196 12.845c.002.095.003.206.147.363l.14-.304c1.655-4.34 3.3-8.68 4.934-13.019.107-.271.217-.368.502-.371l8.31-.105-.644 1.596-12.02 30.067a.702.702 0 00-.106.35l-8.754.111zm55.952-30.334c.341-.412.712-.799 1.11-1.157a7.9 7.9 0 015.79-1.66 7.117 7.117 0 015.033 2.35 8.906 8.906 0 012.018 4.357c.153.885.228 1.782.223 2.68l.175 13.909c.004.317-.09.382-.39.386l-7.489.094c-.285.003-.349-.075-.352-.345l-.154-12.241a5.616 5.616 0 00-.244-1.775 2.472 2.472 0 00-2.225-1.862 2.736 2.736 0 00-2.723 1.241 4.007 4.007 0 00-.61 1.93l.018 1.364.143 11.352c.003.302.005.381-.391.386l-7.488.094c-.253.003-.333.004-.337-.33l-.414-32.91c-.003-.255-.004-.318.313-.322l7.52-.095c.269-.003.348-.004.352.33l.148 11.795-.026.43zm-10.915-1.768c-.003-.206-.005-.365-.29-.346l-7.376.093c-.222.003-.285.004-.282.29l.022 1.762c-.24-.22-.464-.423-.704-.61a8.405 8.405 0 00-6.989-1.787 10.27 10.27 0 00-7.039 4.329 13.001 13.001 0 00-2.145 10.681A11.416 11.416 0 0032.4 34.09a9.917 9.917 0 009.243 1.027 6.156 6.156 0 002.87-2.163l.023 1.81c.003.254.005.349.337.345l7.314-.092c.269-.004.3-.083.296-.338l-.035-2.794-.217-19.782zM39.895 28.327a4.757 4.757 0 01-4.809-4.703 4.756 4.756 0 014.69-4.822 4.756 4.756 0 014.808 4.703 4.757 4.757 0 01-4.689 4.823zm63.857-7.377a11.482 11.482 0 00-6-8.689 12.633 12.633 0 00-8.281-1.388 11.805 11.805 0 00-8.219 4.978 12.062 12.062 0 00-2.095 8.347 11.701 11.701 0 003.096 7.043 12.189 12.189 0 009.374 3.852l.934-.012c.301-.004.729-.01 1.091-.125 6.56-.951 11.108-7.055 10.159-13.633a11.514 11.514 0 00-.059-.372zM91.517 27.6a4.757 4.757 0 01-4.809-4.704 4.757 4.757 0 014.69-4.823 4.756 4.756 0 014.809 4.704 4.583 4.583 0 01-4.69 4.822zm38.534-6.615a11.443 11.443 0 00-3.783-7.416 12.451 12.451 0 00-10.773-3.04c-6.036.885-10.435 6.194-10.2 12.307l.012.953.006.492a11.563 11.563 0 005.954 8.865 12.636 12.636 0 008.49 1.481 11.707 11.707 0 008.013-4.864 12.174 12.174 0 002.281-8.778zm-12.239 6.283a4.756 4.756 0 01-4.901-4.607 4.757 4.757 0 014.593-4.914 4.756 4.756 0 014.903 4.811 4.582 4.582 0 01-4.595 4.71zm16.314-5.778l.998-2.522L142.445.615c-.002-.174.123-.303.376-.306l9.499-.12c-.384.958-.752 1.915-1.136 2.857a8842.405 8842.405 0 00-7.168 17.986.443.443 0 01-.487.34l-9.403.117zm2.521 12.877c-2.919.064-5.338-2.258-5.401-5.186a3.505 3.505 0 01-.001-.145c-.013-3.042 2.436-5.519 5.47-5.531h.049c2.902-.072 5.313 2.228 5.385 5.14l.002.159c.038 3.034-2.383 5.524-5.408 5.563h-.096zm-.404 18.186a.953.953 0 00-.091.367 3.87 3.87 0 01-2.292 2.791 6.479 6.479 0 01-2.478.62 11.26 11.26 0 01-5.22-.824c-.334-.155-.653-.326-.972-.496 0 0-.096-.11-.002-.19.478-.991.956-1.998 1.419-2.988-.002-.127.125-.097.206-.003a9.129 9.129 0 002.957.98c.494.065.995.059 1.488-.02a.908.908 0 00.347-.115.397.397 0 00-.009-.73 2.718 2.718 0 00-.811-.275 19.468 19.468 0 01-2.51-.652 5.348 5.348 0 01-1.595-.885 3.179 3.179 0 01-1.061-2.559 3.856 3.856 0 012.645-3.733 7.43 7.43 0 012.685-.478 11.28 11.28 0 014.939 1.16c.111-.001.112.094.002.19-.399.99-.814 1.964-1.213 2.954.001.127-.094.144-.221.098a8.814 8.814 0 00-2.353-.812 4.753 4.753 0 00-1.585-.076.62.62 0 00-.33.132.365.365 0 00.008.635c.223.107.458.19.699.245.912.206 1.809.47 2.686.792a5.763 5.763 0 011.595.885c.579.46.961 1.126 1.068 1.86l.001.111-.002 1.016zm-20.777-2.866c-.26.781-.503 1.594-.747 2.36-.41 1.338-.837 2.677-1.247 4.016a.222.222 0 01-.251.178l-3.483.044a.19.19 0 01-.224-.14l-4.156-11.952c-.002-.16-.002-.191.125-.177l4.179-.052c.142-.002.206-.003.239.156.628 2.024 1.27 4.033 1.897 6.041l.002.128.456-1.467c.503-1.594.99-3.188 1.524-4.783-.002-.127-.003-.19.219-.193l2.976-.038c.143-.002.19-.002.24.172.674 1.992 1.332 3.985 2.006 5.977l.003.19a.556.556 0 00.092-.255l1.73-5.945c-.002-.143.092-.207.266-.21l4.037-.05c.206-.003.206-.003.145.189l-3.885 12.117a.175.175 0 01-.267.161l-3.451.044c-.127.002-.19.002-.224-.156l-2.12-6.166s-.018-.142-.081-.189zM83.86 45.702c.196-.309.432-.59.702-.835a3.591 3.591 0 012.173-.98 4.038 4.038 0 014.616 3.229c.122.52.181 1.052.179 1.585l.095 7.558c.001.143.002.19-.172.192l-4.164.053c-.142.002-.174.002-.176-.173l-.08-6.43a2.724 2.724 0 00-.155-.95 1.361 1.361 0 00-1.263-.937 1.408 1.408 0 00-1.384.716 2.31 2.31 0 00-.317 1.21l.081 6.494c.002.143.002.175-.156.177l-4.18.052c-.142.002-.173.002-.175-.172l-.151-11.987c-.002-.143-.002-.159.172-.161l4.163-.053c.143-.001.19-.002.177.173l.016 1.239zm21.551 2.714a5.823 5.823 0 00-3.344-4.071 6.619 6.619 0 00-3.87-.475 6.175 6.175 0 00-4.705 3.505 6.813 6.813 0 00-.48 4.642 5.647 5.647 0 003.966 4.444 8.133 8.133 0 005.209-.065 5.748 5.748 0 003.04-2.5c-.001-.08.094-.128-.002-.19l-3.611-1.32a.143.143 0 00-.202-.002l-.004.004a2.417 2.417 0 01-2.522.873 2.013 2.013 0 01-1.603-1.567c-.002-.143-.003-.207.156-.209l8.01-.1c.269-.004.269-.004.281-.274.04-.91-.067-1.82-.319-2.695zm-4.301.435l-3.767.047c-.159.002-.175.003-.145-.173a1.854 1.854 0 011.565-1.48 2.4 2.4 0 011.49.188c.502.222.867.672.981 1.21.097.094.098.174-.092.176l-.032.032z" fill="#757880"/></svg>