<svg width="24" height="24" fill="none" xmlns="http://www.w3.org/2000/svg"><path fill-rule="evenodd" clip-rule="evenodd" d="M23.37 4.136a5.865 5.865 0 00-1.382-2.124A5.865 5.865 0 0019.864.631c-.76-.297-1.641-.501-2.912-.557h-.022C15.668.017 15.246 0 12 0 8.736 0 8.328.01 7.048.074c-1.28.056-2.152.26-2.912.557a5.865 5.865 0 00-2.124 1.381A5.865 5.865 0 00.631 4.136C.334 4.896.13 5.777.074 7.048v.021C.017 8.332 0 8.754 0 12c0 3.264.01 3.672.074 4.952.056 1.28.26 2.152.557 2.912a5.865 5.865 0 001.381 2.124 5.865 5.865 0 002.124 1.381c.76.297 1.641.501 2.912.557h.021C8.332 23.983 8.754 24 12 24c3.264 0 3.672-.01 4.952-.074 1.28-.056 2.152-.26 2.912-.557a5.865 5.865 0 002.124-1.381 5.865 5.865 0 001.381-2.124c.297-.76.501-1.641.557-2.912v-.021C23.983 15.668 24 15.246 24 12c0-3.264-.01-3.672-.074-4.952-.056-1.28-.26-2.152-.557-2.912zm-2.438 12.296c-.05 1.068-.229 1.653-.381 2.034-.195.509-.44.881-.822 1.263a3.432 3.432 0 01-1.263.822c-.39.152-.966.33-2.034.381l-.055.003C15.26 20.984 14.885 21 12 21c-2.932 0-3.28-.009-4.432-.068-1.068-.05-1.653-.229-2.034-.381a3.396 3.396 0 01-1.263-.822 3.432 3.432 0 01-.822-1.263c-.152-.39-.33-.966-.381-2.034l-.002-.046C3.016 15.262 3 14.885 3 12c0-2.924.008-3.28.068-4.432.05-1.068.229-1.653.381-2.034.195-.509.44-.881.822-1.263a3.433 3.433 0 011.263-.822c.39-.152.966-.33 2.034-.381l.046-.002C8.738 3.016 9.115 3 12 3c2.924 0 3.28.008 4.432.068 1.068.05 1.653.229 2.034.381a3.4 3.4 0 011.263.822c.381.382.618.746.822 1.263.152.39.33.966.381 2.034l.002.046C20.984 8.739 21 9.115 21 12c0 2.896-.017 3.273-.066 4.4l-.002.032zM18 7.5a1.5 1.5 0 100-3 1.5 1.5 0 000 3zM12 6c-3.311 0-6 2.689-6 6s2.689 6 6 6 6-2.689 6-6-2.689-6-6-6zm-3 6a3 3 0 003 3c1.653 0 3-1.347 3-3a3 3 0 00-6 0z" fill="#fff"/></svg>