<svg width="24" height="24" fill="none" xmlns="http://www.w3.org/2000/svg"><path fill-rule="evenodd" clip-rule="evenodd" d="M11.996 0C5.381 0 0 5.383 0 12c0 2.624.846 5.058 2.285 7.034L.79 23.492l4.612-1.474A11.905 11.905 0 0012.004 24C18.619 24 24 18.617 24 12S18.619 0 12.004 0h-.008zm-3.35 6.095c-.232-.557-.409-.578-.761-.592a6.766 6.766 0 00-.402-.014c-.459 0-.938.134-1.228.43-.352.36-1.227 1.2-1.227 2.92 0 1.722 1.256 3.387 1.425 3.62.176.232 2.447 3.816 5.974 5.277 2.757 1.143 3.575 1.037 4.203.903.917-.198 2.066-.875 2.356-1.694.289-.818.289-1.516.204-1.665-.085-.148-.317-.232-.67-.409-.352-.176-2.066-1.023-2.39-1.136-.318-.12-.621-.077-.861.262-.339.472-.67.952-.938 1.241-.212.226-.557.254-.846.134-.388-.162-1.474-.543-2.815-1.735-1.036-.924-1.742-2.074-1.946-2.42-.205-.352-.021-.557.14-.748.177-.218.346-.373.523-.578.176-.205.275-.31.388-.55.12-.233.035-.473-.05-.65-.084-.176-.79-1.897-1.079-2.596z" fill="#fff"/></svg>