<svg width="28" height="24" fill="none" xmlns="http://www.w3.org/2000/svg"><path fill-rule="evenodd" clip-rule="evenodd" d="M28 2.84c-1.03.483-2.136.809-3.3.954a6.035 6.035 0 002.527-3.35 11.15 11.15 0 01-3.648 1.469C22.531.736 21.038 0 19.384 0c-3.172 0-5.743 2.712-5.743 6.058 0 .475.05.938.148 1.381-4.774-.253-9.007-2.665-11.84-6.33a6.296 6.296 0 00-.778 3.046c0 2.103 1.014 3.956 2.555 5.043a5.503 5.503 0 01-2.601-.757l-.001.075c0 2.937 1.98 5.386 4.608 5.942a5.502 5.502 0 01-2.593.104c.73 2.406 2.852 4.158 5.365 4.208-1.965 1.625-4.442 2.595-7.133 2.595-.464 0-.922-.029-1.371-.085C2.542 22.997 5.561 24 8.806 24 19.37 24 25.15 14.768 25.15 6.762c0-.263-.007-.525-.017-.785A12.028 12.028 0 0028 2.84z" fill="#fff"/></svg>