<svg width="305" height="182" fill="none" xmlns="http://www.w3.org/2000/svg"><g clip-path="url(#clip0_2174_2098)" stroke-width=".5" stroke-miterlimit="10"><g clip-path="url(#clip1_2174_2098)"><path opacity=".5" d="M-240.688 155.992c126.436-80.916 269.761-91.279 375.042-27.108 9.199 5.61 19.034 13.947 17.754 27.982-.575 6.322-3.393 12.622-6.198 18.642-23.17 49.837-50.945 108.311-35.619 151.738 11.593 32.852 44.735 43.145 76.656 40.919 31.92-2.226 65.002-14.219 96.66-14.862 22.56-.456 43.816 4.861 64.731 10.596 12.307 3.377 25.408 7.618 31.489 20.397 5.443 11.426 4.082 27.333 7.241 40.46 6.286 26.101 28.792 37.056 49.439 46.166 112.445 49.629 220.977 108.027 324.892 174.825" stroke="#fff"/><path opacity=".5" d="M-242.632 160.413C-115.82 79.959 27.64 70.05 133.066 134.518c9.224 5.641 19.073 13.992 17.924 28.019-.516 6.322-3.263 12.641-6.001 18.691-5.737 12.674-11.806 25.922-17.36 39.31-16.371 39.505-28.18 80.171-16.514 112.551 11.667 32.381 44.437 42.818 76.065 40.799 31.637-2.008 64.426-13.635 95.823-14.11 22.364-.345 43.447 4.987 64.196 10.72 12.209 3.373 25.201 7.605 31.295 20.223 5.468 11.298 4.243 26.993 7.47 39.952 6.382 25.759 28.721 36.611 49.237 45.643a2416.854 2416.854 0 01179.481 88.078c48.699 26.446 96.577 54.608 143.276 84.865" stroke="#FBFBFB"/><path opacity=".5" d="M-244.569 164.836c127.182-79.993 270.782-89.448 376.349-24.689 9.253 5.681 19.119 14.039 18.091 28.061-.458 6.328-3.131 12.66-5.804 18.74-5.604 12.72-11.576 26.033-17.004 39.465-15.99 39.663-27.022 80.181-15.121 112.515 11.813 32.1 44.142 42.484 75.477 40.672 31.361-1.794 63.85-13.051 94.987-13.363 22.168-.235 43.078 5.112 63.667 10.847 12.115 3.376 24.997 7.585 31.102 20.048 5.494 11.164 4.404 26.648 7.693 39.442 6.477 25.416 28.652 36.161 49.035 45.119a2481.91 2481.91 0 01178.326 87.044c48.413 26.078 96.06 53.824 142.302 84.02" stroke="#F7F7F7"/><path opacity=".5" d="M-246.513 169.258c127.556-79.526 271.296-88.539 377.007-23.482 9.282 5.72 19.167 14.08 18.255 28.095-.398 6.329-2.995 12.682-5.604 18.784-5.467 12.769-11.342 26.145-16.646 39.613-15.606 39.829-25.866 80.198-13.731 112.484 11.923 31.725 43.852 42.155 74.887 40.553 31.076-1.577 63.276-12.473 94.148-12.612 21.969-.118 42.709 5.238 63.133 10.971 12.017 3.372 24.799 7.569 30.902 19.872 5.516 11.027 4.57 26.31 7.923 38.934 6.574 25.067 28.58 35.716 48.827 44.593a2546.596 2546.596 0 01177.171 86.011c48.122 25.707 95.546 53.033 141.33 83.168" stroke="#F3F3F3"/><path opacity=".5" d="M-248.457 173.679c127.938-79.06 271.807-87.623 377.663-22.269 9.313 5.755 19.212 14.128 18.424 28.133-.341 6.334-2.864 12.701-5.407 18.832-5.335 12.816-11.114 26.261-16.284 39.77-15.221 39.99-24.714 80.207-12.347 112.451 12.366 32.245 43.554 41.828 74.296 40.432 30.798-1.357 62.706-11.885 93.313-11.865 21.773-.008 42.34 5.364 62.598 11.095 11.922 3.376 24.568 7.564 30.708 19.698 5.522 10.91 4.763 25.958 8.153 38.425 6.722 24.71 28.508 35.272 48.624 44.07A2620.385 2620.385 0 01607.3 577.429c47.831 25.336 95.033 52.242 140.361 82.325" stroke="#EFEFEF"/><path opacity=".5" d="M-250.394 178.103c128.308-78.601 272.313-86.716 378.314-21.064 9.336 5.792 19.252 14.172 18.594 28.169-.284 6.341-2.733 12.721-5.21 18.882-5.2 12.87-10.879 26.374-15.928 39.924-14.84 40.149-23.556 80.218-10.955 112.415s43.26 41.495 73.714 40.309c30.513-1.14 62.132-11.307 92.478-11.12 21.576.104 41.972 5.485 62.062 11.22 11.831 3.374 24.362 7.551 30.515 19.524 5.541 10.779 4.931 25.615 8.382 37.917 6.831 24.366 28.436 34.828 48.416 43.544a2697.973 2697.973 0 01174.855 83.941c47.546 24.968 94.517 51.458 139.39 81.475" stroke="#EAEBEB"/><path opacity=".5" d="M-252.338 182.524c128.685-78.139 272.825-85.8 378.978-19.853 9.365 5.831 19.299 14.213 18.761 28.211-.224 6.341-2.597 12.742-5.01 18.925-5.068 12.916-10.653 26.49-15.564 40.075-14.455 40.31-22.411 80.23-9.566 112.385 12.221 30.595 42.965 41.162 73.124 40.188 30.229-.922 61.555-10.723 91.639-10.368 21.378.22 41.604 5.611 61.537 11.341 11.73 3.376 24.147 7.54 30.315 19.347 5.56 10.649 5.098 25.273 8.609 37.415 6.942 24.018 28.364 34.383 48.214 43.021a2788.056 2788.056 0 01173.7 82.907c47.254 24.597 93.997 50.665 138.415 80.63" stroke="#E6E7E8"/><path opacity=".5" d="M-254.28 186.945c129.061-77.676 273.337-84.89 379.633-18.64 9.396 5.865 19.344 14.261 18.925 28.245-.168 6.347-2.466 12.762-4.813 18.975-4.936 12.962-10.418 26.602-15.209 40.229-14.074 40.468-21.258 80.238-8.181 112.351 12.314 30.226 42.667 40.835 72.536 40.063 29.95-.703 60.979-10.139 90.804-9.622 21.181.331 41.234 5.737 61.001 11.465 11.638 3.374 23.941 7.527 30.121 19.174 5.58 10.517 5.27 24.924 8.839 36.907 7.053 23.668 28.301 33.935 48.011 42.497a2881.502 2881.502 0 01172.545 81.874c46.963 24.226 93.481 49.879 137.444 79.778" stroke="#E2E2E4"/><path opacity=".5" d="M-256.219 191.368c129.429-77.21 273.843-83.977 380.285-17.434 9.425 5.905 19.393 14.302 19.095 28.282-.107 6.347-2.335 12.781-4.616 19.024-4.798 13.011-10.191 26.718-14.852 40.383-13.691 40.635-20.114 80.25-6.789 112.315 12.402 29.854 42.377 40.505 71.945 39.942 29.668-.491 60.406-9.56 89.966-8.87 20.985.442 40.865 5.862 60.467 11.59 11.537 3.375 23.728 7.511 29.927 18.999 5.599 10.387 5.438 24.581 9.068 36.399 7.156 23.323 28.229 33.49 47.804 41.971a2991.713 2991.713 0 01171.384 80.838c46.677 23.857 92.967 49.089 136.469 78.933" stroke="#DEDEE0"/><path opacity=".5" d="M-258.162 195.789c129.811-76.745 274.361-83.064 380.94-16.22 9.453 5.944 19.405 14.347 19.264 28.318-.064 6.354-2.198 12.803-4.418 19.073-4.667 13.058-9.986 26.824-14.492 40.539-13.389 40.765-18.966 80.257-5.404 112.283 12.485 29.479 42.082 40.172 71.357 39.816 29.39-.271 59.83-8.976 89.131-8.123 20.786.557 40.495 5.987 59.937 11.716 11.446 3.373 23.522 7.497 29.728 18.822 5.624 10.259 5.606 24.239 9.292 35.889 7.267 22.974 28.157 33.046 47.601 41.447a3114.849 3114.849 0 01170.229 79.805c46.386 23.486 92.453 48.298 135.498 78.081" stroke="#DADADC"/><path opacity=".5" d="M-260.105 200.211c130.187-76.284 274.872-82.15 381.598-15.013 9.479 5.976 19.444 14.392 19.426 28.358-.007 6.359-2.068 12.822-4.219 19.117-4.53 13.106-9.757 26.934-14.133 40.688-13.012 40.928-17.828 80.265-4.013 112.246 12.568 29.104 41.785 39.844 70.773 39.698 29.105-.053 59.261-8.395 88.292-7.372 20.59.669 40.127 6.114 59.403 11.841 11.345 3.374 23.315 7.483 29.534 18.648 5.643 10.128 5.776 23.89 9.521 35.381 7.372 22.622 28.085 32.601 47.399 40.924a3254.1 3254.1 0 01169.074 78.77c46.095 23.116 91.937 47.514 134.529 77.239" stroke="#D6D6D8"/><path opacity=".5" d="M-262.043 204.634c130.557-75.824 275.377-81.237 382.25-13.808 9.508 6.016 19.49 14.439 19.596 28.395.047 6.358-1.932 12.844-4.022 19.166-4.4 13.158-9.53 27.05-13.772 40.844-12.637 41.085-16.688 80.275-2.622 112.216 12.648 28.735 41.489 39.512 70.182 39.578 28.826.166 58.685-7.811 87.456-6.625 20.4.782 39.76 6.234 58.869 11.964 11.252 3.373 23.1 7.473 29.339 18.475 5.663 9.996 5.945 23.547 9.751 34.872 7.481 22.28 28.014 32.157 47.191 40.398a3404.848 3404.848 0 01167.919 77.737c45.804 22.745 91.418 46.721 133.558 76.388" stroke="#D2D2D4"/><path opacity=".5" d="M-263.986 209.055c130.934-75.361 275.89-80.327 382.911-12.592 9.536 6.055 19.532 14.478 19.765 28.432.104 6.363-1.8 12.863-3.825 19.215-4.268 13.204-9.3 27.16-13.416 40.998-12.259 41.249-15.546 80.279-1.238 112.183 12.726 28.358 41.195 39.179 69.594 39.452 28.543.384 58.109-7.227 86.619-5.874 20.203.893 39.391 6.36 58.339 12.091 11.158 3.377 22.894 7.46 29.14 18.299 5.688 9.868 6.113 23.204 9.981 34.364 7.586 21.928 27.941 31.712 46.989 39.875a3577.672 3577.672 0 01166.755 76.706c45.518 22.377 90.904 45.931 132.583 75.542" stroke="#CECED0"/><path opacity=".5" d="M-265.929 213.476c131.307-74.893 276.4-79.411 383.568-11.384 9.568 6.089 19.578 14.525 19.927 28.472.161 6.369-1.67 12.882-3.625 19.258-4.131 13.253-9.074 27.276-13.052 41.15-11.884 41.404-14.413 80.285.154 112.146 12.792 27.989 40.902 38.795 69.003 39.332 28.101.537 57.536-6.648 85.778-5.13 20.005 1.009 39.022 6.486 57.805 12.215 11.06 3.373 22.687 7.447 28.946 18.125 5.706 9.737 6.283 22.855 10.207 33.861 7.697 21.58 27.873 31.262 46.787 39.351a3776.83 3776.83 0 01165.6 75.673c45.227 22.006 90.388 45.146 131.612 74.692" stroke="#CACACC"/><path opacity=".5" d="M-267.867 217.9c131.678-74.433 276.908-78.504 384.221-10.179 9.59 6.126 19.617 14.57 20.096 28.508.221 6.37-1.52 12.903-3.428 19.308-3.968 13.306-8.844 27.386-12.696 41.304-11.506 41.568-13.279 80.291 1.538 112.113 12.867 27.617 40.61 38.457 68.416 39.206 27.982.755 56.959-6.064 84.942-4.384 19.808 1.12 38.652 6.612 57.272 12.334 10.966 3.376 22.481 7.433 28.753 17.95 5.725 9.607 6.451 22.513 10.436 33.354 7.8 21.234 27.801 30.817 46.579 38.825a4012.547 4012.547 0 01164.445 74.64c44.936 21.635 89.874 44.355 130.637 73.845" stroke="#C5C6C8"/><path opacity=".5" d="M-269.811 222.321c132.06-73.969 277.424-77.586 384.876-8.965 9.62 6.165 19.662 14.616 20.266 28.544.278 6.376-1.389 12.923-3.236 19.355-3.839 13.358-8.618 27.502-12.341 41.457-11.131 41.724-12.153 80.302 2.928 112.083 12.929 27.246 40.315 38.124 67.831 39.088 27.701.967 56.391-5.483 84.105-3.632 19.611 1.231 38.283 6.737 56.743 12.461 10.867 3.372 22.274 7.419 28.553 17.774 5.75 9.477 6.619 22.169 10.66 32.843 7.906 20.882 27.729 30.372 46.376 38.301a4293.347 4293.347 0 01163.285 73.604c44.65 21.267 89.352 43.567 129.669 73.002" stroke="#C1C2C4"/><path opacity=".5" d="M-271.754 226.742c132.435-73.506 277.937-76.676 385.533-7.757 9.651 6.199 19.702 14.661 20.436 28.581.33 6.379-1.253 12.944-3.037 19.398-3.701 13.407-8.385 27.62-11.979 41.614-10.753 41.888-11.02 80.308 4.32 112.047 12.993 26.883 40.02 37.791 67.243 38.962 27.424 1.182 55.809-4.842 83.269-2.886 19.409 1.386 37.914 6.863 56.208 12.585 10.773 3.376 22.063 7.403 28.359 17.6 5.77 9.347 6.788 21.827 10.89 32.335 8.011 20.531 27.657 29.928 46.174 37.778a4631.49 4631.49 0 01162.13 72.57c44.359 20.896 88.838 42.777 128.697 72.152" stroke="#BDBEC1"/><path opacity=".5" d="M-273.692 231.166c132.804-73.041 278.443-75.764 386.192-6.55 9.679 6.239 19.747 14.708 20.596 28.621.39 6.379-1.121 12.963-2.839 19.447-3.564 13.456-8.155 27.731-11.62 41.763-10.373 42.047-9.9 80.315 5.704 112.014 13.054 26.511 39.725 37.458 66.653 38.841 27.142 1.394 55.232-4.257 82.43-2.133 19.21 1.501 37.547 6.983 55.674 12.708 10.675 3.372 21.856 7.39 28.165 17.426 5.795 9.219 6.958 21.479 11.119 31.827 8.114 20.186 27.591 29.486 45.967 37.252a5026.582 5026.582 0 01160.974 71.537c44.068 20.525 88.324 41.986 127.722 71.306" stroke="#B9BABD"/><path opacity=".5" d="M-275.635 235.587c133.18-72.578 278.953-74.848 386.847-5.336 9.708 6.278 19.789 14.747 20.766 28.657.447 6.385-.985 12.985-2.642 19.497-3.432 13.502-7.929 27.846-11.259 41.919-9.995 42.21-8.774 80.325 7.094 111.983 13.108 26.143 39.432 37.12 66.062 38.721 26.63 1.601 54.656-3.673 81.595-1.387 19.014 1.612 37.178 7.108 55.139 12.833 10.581 3.375 21.649 7.376 27.966 17.249 5.814 9.088 7.126 21.135 11.348 31.319 8.22 19.834 27.522 29.036 45.765 36.729a5533.58 5533.58 0 01159.819 70.502c43.782 20.157 87.808 41.202 126.751 70.456" stroke="#B5B6B9"/><path opacity=".5" d="M-277.573 240.011c133.551-72.119 279.46-73.941 387.499-4.131 9.733 6.31 19.835 14.794 20.936 28.694.504 6.391-.854 13.004-2.445 19.546-3.295 13.55-7.699 27.956-10.904 42.073-9.614 42.369-7.654 80.332 8.487 111.947 13.158 25.78 39.137 36.787 65.474 38.595 26.582 1.825 54.086-3.086 80.757-.636 18.821 1.732 36.809 7.235 54.61 12.96 10.483 3.371 21.443 7.363 27.772 17.076 5.841 8.953 7.294 20.792 11.575 30.816 8.325 19.483 27.45 28.591 45.562 36.205a6149.132 6149.132 0 01158.658 69.467c43.491 19.786 87.295 40.411 125.777 69.61" stroke="#B1B1B5"/><path opacity=".5" d="M-279.517 244.432c133.933-71.654 279.972-73.026 388.157-2.923 9.762 6.349 19.874 14.838 21.1 28.728.564 6.391-.718 13.026-2.246 19.589-3.162 13.597-7.472 28.072-10.539 42.224-9.237 42.534-6.539 80.337 9.871 111.914 13.209 25.418 38.847 36.457 64.883 38.475 26.037 2.018 53.51-2.502 79.922.111 18.625 1.842 36.439 7.36 54.075 13.084 10.388 3.374 21.236 7.349 27.578 16.901 5.86 8.823 7.46 20.442 11.805 30.309 8.428 19.137 27.378 28.146 45.354 35.679a6981.955 6981.955 0 01157.503 68.433c43.2 19.415 86.775 39.618 124.805 68.759" stroke="#ADADB1"/><path opacity=".5" d="M-281.46 248.853c134.309-71.191 280.485-72.116 388.812-1.71 9.791 6.389 19.92 14.886 21.267 28.771.621 6.397-.587 13.045-2.048 19.638-3.025 13.646-7.238 28.185-10.184 42.378-8.859 42.698-5.422 80.35 11.263 111.878 13.255 25.053 38.552 36.125 64.301 38.352 26.016 2.254 52.934-1.919 79.084.862 18.426 1.958 36.07 7.486 53.541 13.208 10.295 3.373 21.029 7.336 27.378 16.725 5.885 8.694 7.628 20.099 12.034 29.801 8.534 18.785 27.307 27.702 45.152 35.155a8094.163 8094.163 0 01156.348 67.4c42.914 19.046 86.258 38.833 123.836 67.915" stroke="#A9A9AD"/><path opacity=".5" d="M-283.397 253.277c134.676-70.726 280.994-71.201 389.463-.505 9.822 6.423 19.968 14.927 21.437 28.808.678 6.402-.456 13.064-1.851 19.687-2.893 13.692-7.011 28.301-9.828 42.532-8.478 42.856-4.315 80.358 12.647 111.845 13.3 24.688 38.258 35.792 63.711 38.231 25.74 2.469 52.357-1.334 78.248 1.609 18.227 2.074 35.701 7.612 53.014 13.329 10.195 3.374 20.823 7.322 27.184 16.551 5.905 8.563 7.797 19.756 12.259 29.29 8.636 18.44 27.234 27.257 44.944 34.629a9810.124 9810.124 0 01155.187 66.364c42.623 18.676 85.745 38.043 122.865 67.065" stroke="#A4A5A9"/><path opacity=".5" d="M-285.34 257.698c135.052-70.264 281.508-70.291 390.127.706 9.845 6.46 20.007 14.971 21.6 28.841.738 6.403-.316 13.081-1.651 19.731-2.755 13.741-6.784 28.417-9.466 42.689-8.101 43.02-3.204 80.368 14.037 111.814 13.337 24.326 37.962 35.459 63.123 38.106 25.457 2.68 51.786-.748 77.41 2.36 18.03 2.185 35.328 7.73 52.479 13.454 10.103 3.372 20.616 7.308 26.99 16.376 5.929 8.435 7.959 19.411 12.488 28.782 8.736 18.086 27.165 26.808 44.741 34.106a12377.708 12377.708 0 01154.033 65.33c42.331 18.305 85.228 37.258 121.89 66.219" stroke="#A0A1A5"/><path opacity=".5" d="M-287.284 262.119c135.429-69.801 282.018-69.376 390.782 1.919 9.874 6.5 20.052 15.019 21.768 28.884.795 6.409-.186 13.099-1.455 19.78-2.623 13.787-6.548 28.529-9.108 42.837-7.714 43.181-2.096 80.375 15.43 111.778 13.374 23.964 37.669 35.121 62.532 37.985 25.179 2.901 51.21-.163 76.575 3.107 17.832 2.302 34.959 7.855 51.944 13.578 10.003 3.373 20.41 7.295 26.791 16.2 5.954 8.306 8.13 19.062 12.717 28.274 8.84 17.74 27.094 26.362 44.539 33.582a17094.913 17094.913 0 01152.878 64.297c42.046 17.936 84.714 36.467 120.918 65.368" stroke="#9C9DA1"/><path opacity=".5" d="M-289.222 266.543c135.799-69.342 282.526-68.468 391.434 3.124 9.905 6.534 20.098 15.066 21.938 28.921.852 6.414-.05 13.121-1.258 19.829-2.485 13.836-6.321 28.645-8.746 42.994-7.337 43.344-.993 80.388 16.813 111.745 13.409 23.606 37.38 34.79 61.942 37.864 24.898 3.113 50.634.421 75.74 3.853 17.635 2.413 34.59 7.982 51.415 13.705 9.91 3.371 20.208 7.284 26.597 16.026 5.975 8.17 8.292 18.716 12.946 27.766 8.939 17.386 27.022 25.918 44.332 33.056a27982.093 27982.093 0 01151.716 63.261c41.757 17.56 84.195 35.674 119.944 64.522" stroke="#98999D"/><path opacity=".5" d="M-291.162 270.958c136.176-68.865 283.034-67.547 392.087 4.343 9.933 6.574 20.145 15.107 22.106 28.957.912 6.416.082 13.141-1.057 19.873-2.354 13.883-6.087 28.758-8.391 43.148-6.95 43.506.104 80.405 18.204 111.715 13.438 23.247 37.084 34.457 61.359 37.741 24.621 3.326 50.058 1.005 74.901 4.604 17.437 2.529 34.221 8.108 50.881 13.829 9.81 3.373 20.002 7.271 26.403 15.852 6 8.042 8.46 18.374 13.173 27.264 9.037 17.038 26.951 25.473 44.129 32.533a86451.558 86451.558 0 01150.562 62.226c41.466 17.19 83.679 34.89 118.972 63.672" stroke="#94959A"/><path opacity=".5" d="M-293.106 275.379c136.553-68.403 283.545-66.632 392.745 5.551 9.957 6.611 20.185 15.152 22.271 28.992.969 6.421.213 13.16-.86 19.922-2.222 13.928-5.86 28.873-8.027 43.299-6.573 43.669 1.202 80.415 19.59 111.675 13.467 22.889 36.79 34.126 60.769 37.621 23.98 3.496 49.482 1.589 74.06 5.349 17.241 2.639 33.852 8.233 50.346 13.953 9.718 3.371 19.795 7.257 26.206 15.67 6.025 7.913 8.623 18.028 13.403 26.755 9.14 16.693 26.884 25.031 43.927 32.01a79065.537 79065.537 0 00149.406 61.193c41.18 16.821 83.165 34.099 118.004 62.829" stroke="#909196"/><path opacity=".5" d="M-295.044 279.803c136.923-67.943 284.058-65.722 393.397 6.756 9.988 6.645 20.23 15.199 22.438 29.034 1.026 6.427.349 13.181-.663 19.971-2.087 13.983-5.631 28.984-7.671 43.453-6.187 43.831 2.292 80.429 20.98 111.645 13.494 22.535 36.494 33.792 60.181 37.495 24.06 3.758 48.908 2.168 73.222 6.1 17.042 2.756 33.482 8.359 49.817 14.08 9.623 3.375 19.591 7.238 26.012 15.496 6.049 7.785 8.785 17.683 13.632 26.247 9.239 16.339 26.815 24.581 43.719 31.484a26280.9 26280.9 0 00148.248 60.165c40.889 16.45 82.652 33.308 117.03 61.983" stroke="#8C8D92"/><path opacity=".5" d="M-296.987 284.224c137.299-67.481 284.571-64.812 394.06 7.967 10.017 6.684 20.276 15.245 22.608 29.07 1.08 6.425.48 13.201-.472 20.018-1.955 14.029-5.398 29.102-7.315 43.607-5.808 43.995 3.381 80.448 22.37 111.614 13.515 22.179 36.205 33.463 59.591 37.375 23.776 3.975 48.331 2.752 72.386 6.846 16.846 2.867 33.116 8.479 49.285 14.199 9.525 3.37 19.384 7.224 25.818 15.322 6.077 7.651 8.956 17.334 13.856 25.737 9.337 15.99 26.743 24.136 43.517 30.96a15405.377 15405.377 0 00147.087 59.129c40.598 16.079 82.135 32.523 116.058 61.132" stroke="#88898E"/><path opacity=".5" d="M-298.931 288.645c137.676-67.018 285.082-63.897 394.71 9.178 10.046 6.723 20.324 15.287 22.772 29.104 1.137 6.431.611 13.22-.272 20.062-1.818 14.078-5.169 29.212-6.954 43.763-5.423 44.156 4.469 80.468 23.756 111.576 13.534 21.829 35.91 33.13 59.003 37.249 23.094 4.119 47.762 3.338 71.549 7.598 16.647 2.984 32.746 8.605 48.75 14.323 9.43 3.374 19.183 7.213 25.618 15.145 6.097 7.52 9.119 16.989 14.086 25.229 9.434 15.642 26.671 23.692 43.314 30.437a10766.253 10766.253 0 00145.933 58.095c40.312 15.711 81.616 31.731 115.084 60.287" stroke="#84858A"/><path opacity=".5" d="M-300.868 293.069c138.052-66.556 285.587-62.984 395.368 10.385 10.076 6.758 20.368 15.335 22.938 29.147 1.198 6.431.748 13.242-.074 20.111-1.686 14.124-4.937 29.33-6.596 43.912-5.036 44.316 5.552 80.484 25.146 111.545 13.548 21.475 35.615 32.797 58.418 37.131 23.222 4.41 47.185 3.922 70.713 8.344 16.451 3.094 32.378 8.731 48.216 14.447 9.332 3.37 18.979 7.195 25.424 14.972 6.121 7.391 9.281 16.643 14.315 24.72 9.532 15.294 26.6 23.248 43.107 29.911a8264.93 8264.93 0 00144.777 57.062c40.021 15.34 81.102 30.94 114.112 59.436" stroke="#7F8086"/><path opacity=".5" d="M-302.812 297.49c138.427-66.094 286.1-62.074 396.025 11.593 10.1 6.795 20.414 15.381 23.108 29.183 1.255 6.437.878 13.261.123 20.16-1.554 14.171-4.707 29.441-6.234 44.069-4.653 44.483 6.631 80.507 26.538 111.509 13.566 21.125 35.323 32.472 57.828 37.011 22.505 4.538 46.608 4.506 69.875 9.096 16.254 3.205 32.008 8.856 47.686 14.573 9.238 3.374 18.772 7.181 25.23 14.798 6.458 7.617 9.444 16.298 14.545 24.213 9.624 14.943 26.528 22.802 42.904 29.387a6615.705 6615.705 0 00143.617 56.025c39.73 14.97 80.585 30.155 113.138 58.591" stroke="#7B7C82"/><path opacity=".5" d="M-304.755 301.911c138.795-65.628 286.61-61.159 396.68 12.806 10.129 6.835 20.456 15.421 23.272 29.218 1.312 6.443 1.015 13.283.322 20.203-1.416 14.22-4.474 29.559-5.878 44.223-4.273 44.642 7.709 80.535 27.923 111.476 13.576 20.777 35.027 32.14 57.24 36.885 22.66 4.841 46.035 5.085 69.039 9.842 16.055 3.322 31.639 8.983 47.151 14.698 9.141 3.37 18.572 7.17 25.032 14.621 6.459 7.451 9.606 15.953 14.771 23.71 9.721 14.595 26.458 22.353 42.702 28.864a5513.493 5513.493 0 00142.461 54.992c39.439 14.599 80.072 29.364 112.172 57.742" stroke="#77787E"/><path opacity=".5" d="M-306.693 306.334c139.172-65.165 287.124-60.248 397.339 14.015 10.159 6.868 20.501 15.467 23.441 29.254 1.377 6.446 1.146 13.302.519 20.253-1.284 14.265-4.239 29.671-5.519 44.371-3.887 44.803 8.781 80.56 29.312 111.445 13.587 20.43 34.738 31.81 56.649 36.765 21.912 4.955 45.459 5.669 68.202 10.594 15.859 3.432 31.269 9.108 46.616 14.822 9.046 3.373 18.368 7.151 24.837 14.447 6.201 6.995 9.775 15.61 15.001 23.202 9.813 14.244 26.387 21.908 42.494 28.338 46.944 18.792 94.127 36.821 141.307 53.958 39.153 14.231 79.55 28.577 111.197 56.897" stroke="#73747A"/><path opacity=".5" d="M-308.636 310.755c139.548-64.703 287.634-59.333 397.996 15.223 10.188 6.908 20.549 15.509 23.609 29.296 1.434 6.452 1.276 13.321.716 20.302-1.152 14.312-4.012 29.787-5.158 44.528-3.504 44.969 9.85 80.591 30.699 111.407 13.59 20.085 34.443 31.476 56.061 36.638 22.098 5.279 44.883 6.254 67.366 11.341 15.663 3.542 30.901 9.233 46.088 14.948 8.948 3.369 18.166 7.14 24.643 14.273s9.937 15.265 15.225 22.692c9.908 13.901 26.315 21.463 42.291 27.814a4043.875 4043.875 0 00140.152 52.925c38.862 13.859 79.036 27.786 110.226 56.045" stroke="#6F7076"/><path opacity=".5" d="M-310.58 315.177c139.925-64.241 288.142-58.426 398.646 16.433 10.211 6.945 20.594 15.556 23.778 29.333 1.494 6.452 1.416 13.338.914 20.351-1.017 14.366-3.778 29.9-4.803 44.682-3.117 45.13 10.912 80.625 32.089 111.376 13.593 19.741 34.145 31.149 55.477 36.521 21.819 5.498 44.309 6.832 66.53 12.087 15.464 3.659 30.534 9.354 45.553 15.072 8.853 3.373 17.962 7.121 24.444 14.097 6.481 6.976 10.097 14.924 15.454 22.183 10 13.551 26.243 21.019 42.089 27.291a3544.927 3544.927 0 00138.991 51.889c38.571 13.489 78.522 26.996 109.251 55.2" stroke="#6B6C73"/><path opacity=".5" d="M-312.518 319.6c140.298-63.772 288.653-57.51 399.304 17.641 10.242 6.979 20.639 15.603 23.942 29.368 1.551 6.457 1.546 13.356 1.113 20.394-.885 14.413-3.55 30.016-4.441 44.838-2.726 45.294 11.974 80.66 33.479 111.346 13.593 19.402 33.855 30.819 54.888 36.395 21.033 5.576 43.733 7.416 65.693 12.838 15.267 3.77 30.164 9.48 45.02 15.192 8.761 3.371 17.764 7.104 24.25 13.922 6.486 6.819 10.255 14.577 15.684 21.676 10.095 13.208 26.177 20.577 41.879 26.77a3149.377 3149.377 0 00137.835 50.855c38.285 13.121 78.006 26.212 108.28 54.349" stroke="#67686F"/><path opacity=".5" d="M-314.46 324.021c140.673-63.31 289.162-56.595 399.958 18.855 10.271 7.018 20.687 15.644 24.112 29.404 1.61 6.458 1.677 13.375 1.31 20.443-.753 14.459-3.315 30.129-4.083 44.987-2.34 45.455 13.027 80.696 34.866 111.307 13.595 19.057 33.56 30.487 54.298 36.275s43.159 7.994 64.857 13.584c15.071 3.881 29.795 9.606 44.491 15.319 8.661 3.372 17.557 7.09 24.056 13.748 6.307 6.465 10.417 14.231 15.913 21.167 10.187 12.858 26.105 20.133 41.677 26.247 45.243 17.818 90.888 34.469 136.68 49.822 37.994 12.75 77.492 25.421 107.311 53.506" stroke="#63646B"/><path opacity=".5" d="M-316.403 328.443c141.044-62.851 289.675-55.686 400.616 20.062 10.3 7.058 20.732 15.691 24.279 29.446 1.667 6.464 1.808 13.395 1.507 20.493-.621 14.505-3.083 30.247-3.721 45.143-1.957 45.621 14.086 80.736 36.255 111.277 13.593 18.724 33.268 30.161 53.708 36.154 20.979 6.15 42.582 8.579 64.018 14.336 14.873 3.997 29.427 9.732 43.957 15.443 8.569 3.37 17.359 7.074 23.857 13.572 6.331 6.336 10.577 13.891 16.142 20.659 10.276 12.512 26.036 19.682 41.469 25.721 44.816 17.572 90.079 33.877 135.52 48.786 37.702 12.378 76.973 24.627 106.339 52.654" stroke="#5F6067"/><path opacity=".5" d="M-318.342 332.866c141.421-62.388 290.186-54.77 401.274 21.27 10.33 7.092 20.78 15.733 24.443 29.481 1.725 6.47 1.944 13.416 1.707 20.536-.484 14.554-2.854 30.357-3.366 45.297-1.57 45.783 15.129 80.782 37.642 111.239 13.586 18.387 32.974 29.828 53.12 36.028 20.147 6.199 42.009 9.157 63.183 15.082 14.677 4.108 29.057 9.858 43.422 15.567 8.468 3.372 17.155 7.055 23.663 13.398 6.508 6.343 10.74 13.546 16.369 20.157 10.366 12.167 25.964 19.237 41.267 25.197 44.389 17.326 89.267 33.291 134.364 47.752 37.417 12.011 76.457 23.843 105.366 51.81" stroke="#5A5C63"/></g><g clip-path="url(#clip2_2174_2098)"><path opacity=".5" d="M501.116-73.361C377.697-65.335 277.514-2.236 238.97 91.754c-3.366 8.214-5.823 18.549 1.879 27.24 3.468 3.915 8.414 6.72 13.215 9.346 39.709 21.764 86.692 47.012 97.723 83.316 8.345 27.464-8.626 50.476-30.898 64.583-22.272 14.108-50.083 22.299-71.408 37.329-15.196 10.712-26.707 24.619-37.788 38.636-6.519 8.25-13.144 17.461-10.941 28.911 1.967 10.241 10.636 20.134 14.949 30.388 8.571 20.393-1.018 38.651-10.273 54.778-50.398 87.837-93.918 179.584-130.272 274.651" stroke="#fff"/><path opacity=".5" d="M504.564-71.376C381.121-62.86 281.07.606 242.576 94.864c-3.368 8.248-5.828 18.599 1.784 27.347 3.429 3.945 8.337 6.797 13.108 9.475 9.995 5.611 20.492 11.441 30.714 17.615 30.152 18.226 57.845 39.449 65.911 66.636 8.066 27.187-8.588 50.113-30.565 64.215-21.977 14.113-49.415 22.405-70.485 37.419-15.011 10.689-26.4 24.521-37.372 38.457-6.456 8.2-13.013 17.351-10.897 28.701 1.887 10.167 10.363 19.986 14.548 30.163 8.341 20.211-1.187 38.32-10.393 54.331a1991.237 1991.237 0 00-76.118 146.084c-19.409 41.329-37.435 83.395-53.657 126.276" stroke="#FBFBFB"/><path opacity=".5" d="M508.01-69.386C384.545-60.383 284.624 3.451 246.177 97.972c-3.367 8.288-5.835 18.652 1.694 27.457 3.394 3.976 8.259 6.873 13.001 9.604 9.93 5.706 20.393 11.625 30.553 17.89 29.977 18.517 57.082 40.023 64.969 67.292 7.832 27.073-8.554 49.748-30.235 63.844-21.69 14.121-48.749 22.512-69.567 37.506-14.826 10.668-26.094 24.426-36.959 38.283-6.392 8.156-12.887 17.239-10.853 28.491 1.804 10.092 10.086 19.836 14.15 29.934 8.11 20.03-1.361 37.988-10.515 53.885a2045.184 2045.184 0 00-75.855 144.834c-19.4 40.944-37.476 82.622-53.423 125.239" stroke="#F7F7F7"/><path opacity=".5" d="M511.459-67.4c-123.484 9.495-223.282 73.691-261.68 168.48-3.367 8.328-5.846 18.702 1.602 27.559 3.354 4.006 8.179 6.955 12.89 9.73 9.863 5.806 20.292 11.815 30.388 18.164 29.804 18.815 56.322 40.598 64.031 67.951 7.576 26.876-8.523 49.387-29.902 63.476-21.395 14.125-48.085 22.615-68.643 37.595-14.638 10.648-25.788 24.329-36.544 38.105-6.329 8.105-12.763 17.131-10.807 28.276 1.723 10.012 9.812 19.693 13.75 29.708 7.876 19.847-1.53 37.658-10.634 53.435a2098.191 2098.191 0 00-75.593 143.584c-19.387 40.556-37.521 81.846-53.194 124.2" stroke="#F3F3F3"/><path opacity=".5" d="M514.907-65.415C391.396-55.424 291.732 9.135 253.385 104.19c-3.372 8.367-5.854 18.756 1.506 27.667 3.32 4.037 8.102 7.031 12.784 9.859 9.798 5.901 20.198 12.003 30.224 18.444 29.626 19.11 55.562 41.167 63.097 68.605 7.535 27.437-8.485 49.024-29.57 63.107-21.102 14.136-47.419 22.727-67.724 37.684-14.453 10.625-25.481 24.231-36.128 37.925-6.264 8.062-12.612 17.016-10.763 28.066 1.661 9.938 9.512 19.554 13.349 29.483 7.602 19.682-1.699 37.328-10.755 52.989a2158.936 2158.936 0 00-75.331 142.334c-19.375 40.168-37.566 81.071-52.962 123.167" stroke="#EFEFEF"/><path opacity=".5" d="M518.353-63.426C394.82-52.948 295.284 11.974 256.986 107.3c-3.368 8.402-5.858 18.805 1.412 27.774 3.284 4.069 8.025 7.108 12.677 9.988 9.734 6.002 20.097 12.192 30.063 18.72 29.451 19.401 54.799 41.739 62.155 69.26 7.357 27.521-8.452 48.66-29.243 62.742-20.808 14.141-46.757 22.83-66.805 37.77-14.27 10.603-25.179 24.133-35.713 37.747-6.204 8.016-12.482 16.906-10.72 27.856 1.585 9.86 9.234 19.408 12.95 29.258 7.362 19.507-1.869 36.998-10.874 52.538a2222.797 2222.797 0 00-75.067 141.08c-19.365 39.784-37.606 80.298-52.733 122.128" stroke="#EAEBEB"/><path opacity=".5" d="M521.801-61.44c-123.556 10.968-222.96 76.257-261.216 171.852-3.368 8.442-5.869 18.856 1.322 27.883 3.245 4.099 7.945 7.189 12.565 10.115 9.67 6.097 20.004 12.38 29.896 18.998 29.274 19.696 54.045 42.306 61.218 69.918 6.827 26.273-8.419 48.295-28.91 62.374-20.513 14.146-46.089 22.936-65.882 37.86-14.081 10.583-24.873 24.035-35.304 37.57-6.137 7.968-12.345 16.794-10.674 27.642 1.509 9.782 8.955 19.262 12.554 29.035 7.118 19.329-2.039 36.668-10.995 52.092a2296.3 2296.3 0 00-74.805 139.83c-19.353 39.395-37.649 79.518-52.5 121.091" stroke="#E6E7E8"/><path opacity=".5" d="M525.249-59.455c-123.58 11.459-222.857 77.111-261.058 172.977-3.372 8.48-5.876 18.909 1.23 27.986 3.209 4.131 7.867 7.266 12.458 10.244 9.605 6.193 19.902 12.569 29.735 19.274 29.098 19.987 53.283 42.874 60.283 70.572 6.584 26.073-8.381 47.933-28.582 62.003-20.22 14.156-45.421 23.043-64.963 37.947-13.896 10.561-24.566 23.939-34.888 37.392-6.077 7.921-12.214 16.684-10.63 27.431 1.432 9.705 8.671 19.115 12.153 28.81 6.875 19.152-2.215 36.34-11.116 51.646a2374.346 2374.346 0 00-74.543 138.58c-19.341 39.007-37.689 78.745-52.27 120.052" stroke="#E2E2E4"/><path opacity=".5" d="M528.695-57.465C405.098-45.518 305.949 20.5 267.792 116.631c-3.372 8.52-5.887 18.96 1.136 28.093 3.17 4.16 7.789 7.342 12.351 10.372 9.537 6.292 19.808 12.757 29.574 19.55 28.925 20.285 52.529 43.441 59.341 71.228 6.344 25.869-8.35 47.572-28.248 61.635-19.93 14.159-44.758 23.147-64.04 38.037-13.712 10.539-24.26 23.842-34.473 37.213-6.009 7.873-12.081 16.57-10.586 27.221 1.355 9.628 8.392 18.969 11.753 28.585 6.637 18.973-2.384 36.01-11.236 51.195a2465.618 2465.618 0 00-74.278 137.326c-19.331 38.623-37.734 77.969-52.036 119.015" stroke="#DEDEE0"/><path opacity=".5" d="M532.144-55.48C408.52-43.037 309.499 23.343 271.399 119.742c-3.372 8.561-5.874 18.997 1.04 28.2 3.145 4.186 7.71 7.424 12.245 10.502 9.472 6.387 19.724 12.927 29.41 19.83 28.789 20.517 51.771 44.005 58.407 71.882 6.106 25.66-8.317 47.207-27.92 61.264-19.638 14.169-44.09 23.253-63.121 38.125-13.523 10.518-23.953 23.745-34.06 37.039-5.949 7.827-11.951 16.46-10.54 27.006 1.276 9.554 8.114 18.824 11.355 28.356 6.394 18.795-2.553 35.679-11.356 50.748a2566.773 2566.773 0 00-74.017 136.076c-19.319 38.235-37.779 77.194-51.806 117.976" stroke="#DADADC"/><path opacity=".5" d="M535.592-53.494C411.945-40.56 313.055 26.185 275 122.85c-3.373 8.594-5.878 19.045.953 28.305 3.109 4.217 7.632 7.5 12.133 10.628 9.405 6.487 19.626 13.112 29.245 20.103 28.618 20.811 51.02 44.568 57.465 72.538 5.868 25.452-8.278 46.845-27.589 60.9-19.343 14.175-43.429 23.362-62.197 38.215-13.339 10.496-23.647 23.649-33.645 36.86-5.882 7.779-11.82 16.351-10.496 26.797 1.199 9.476 7.83 18.675 10.955 28.13 6.152 18.614-2.723 35.349-11.478 50.302a2680.419 2680.419 0 00-73.754 134.826c-19.307 37.847-37.82 76.421-51.575 116.944" stroke="#D6D6D8"/><path opacity=".5" d="M539.038-51.504C415.369-38.085 316.611 29.027 278.601 125.958c-3.373 8.634-5.885 19.099.858 28.412 3.073 4.243 7.553 7.582 12.027 10.757 9.344 6.585 19.531 13.3 29.081 20.384 28.446 21.097 50.269 45.13 56.528 73.196 5.635 25.246-8.245 46.48-27.256 60.532-19.05 14.185-42.762 23.468-61.279 38.302-13.157 10.479-23.344 23.549-33.228 36.682-5.822 7.732-11.683 16.238-10.453 26.586 1.123 9.399 7.551 18.53 10.554 27.905 5.913 18.439-2.892 35.019-11.596 49.852a2804.676 2804.676 0 00-73.492 133.576c-19.295 37.458-37.863 75.641-51.346 115.904" stroke="#D2D2D4"/><path opacity=".5" d="M542.486-49.519c-123.693 13.91-222.323 81.386-260.281 178.592-3.373 8.674-5.895 19.145.763 28.519 3.037 4.274 7.475 7.658 11.92 10.886 9.279 6.68 19.433 13.485 28.92 20.66 28.275 21.391 49.512 45.689 55.593 73.85 5.399 25.033-8.212 46.115-26.927 60.161-18.756 14.19-42.095 23.575-60.356 38.392-12.972 10.456-23.038 23.453-32.816 36.508-5.756 7.688-11.552 16.128-10.406 26.371 1.044 9.326 7.272 18.385 10.154 27.68 5.671 18.257-3.062 34.689-11.718 49.406a2946.956 2946.956 0 00-73.223 132.324c-19.285 37.074-37.907 74.865-51.112 114.867" stroke="#CECED0"/><path opacity=".5" d="M545.934-47.533C422.222-33.131 323.72 34.709 285.807 132.18c-3.378 8.712-5.902 19.198.675 28.625 3.002 4.306 7.397 7.734 11.809 11.012 9.211 6.779 19.338 13.672 28.752 20.938 28.102 21.677 48.763 46.247 54.651 74.505 5.175 24.822-8.205 45.718-26.594 59.794-18.388 14.076-41.431 23.678-59.434 38.474-12.784 10.437-22.731 23.356-32.4 36.329-5.694 7.638-11.422 16.019-10.363 26.161.967 9.249 6.989 18.237 9.758 27.458 5.428 18.079-3.235 34.356-11.839 48.959a3109.746 3109.746 0 00-72.961 131.074c-19.273 36.687-37.948 74.093-50.883 113.829" stroke="#CACACC"/><path opacity=".5" d="M549.38-45.543C425.647-30.655 327.272 37.549 289.408 135.289c-3.374 8.748-5.906 19.247.581 28.732 2.963 4.335 7.308 7.822 11.702 11.141 9.13 6.894 19.24 13.858 28.591 21.214 27.932 21.97 48.014 46.805 53.717 75.159 4.943 24.612-8.177 45.35-26.266 59.423-18.202 14.163-40.763 23.785-58.515 38.562-12.6 10.414-22.425 23.259-31.989 36.148-5.629 7.594-11.292 15.909-10.319 25.951.89 9.171 6.71 18.091 9.358 27.232 5.19 17.901-3.405 34.026-11.958 48.509a3304.436 3304.436 0 00-72.699 129.824c-19.261 36.298-37.993 73.317-50.649 112.792" stroke="#C5C6C8"/><path opacity=".5" d="M552.829-43.558C429.069-28.174 330.826 40.396 293.014 138.4c-3.374 8.788-5.913 19.3.486 28.839 2.928 4.367 7.231 7.898 11.598 11.265 9.069 6.992 19.146 14.046 28.43 21.49 27.759 22.257 47.272 47.361 52.779 75.818 4.722 24.395-8.143 44.985-25.934 59.059-17.912 14.166-40.103 23.893-57.593 38.652-12.415 10.392-22.118 23.162-31.576 35.973-5.566 7.544-11.161 15.799-10.272 25.737.811 9.098 6.43 17.946 8.96 27.002 4.948 17.719-3.575 33.696-12.08 48.063a3537.75 3537.75 0 00-72.434 128.57c-19.251 35.914-38.031 72.54-50.418 111.759" stroke="#C1C2C4"/><path opacity=".5" d="M556.276-41.572c-123.784 15.874-221.899 84.808-259.661 183.08-3.378 8.826-5.918 19.349.391 28.946 2.895 4.395 7.151 7.98 11.486 11.392 9.002 7.091 19.05 14.237 28.268 21.77 27.588 22.551 46.522 47.919 51.837 76.474 4.502 24.185-8.11 44.62-25.606 58.688-17.624 14.174-39.403 24.034-56.673 38.739-12.205 10.396-21.812 23.066-31.161 35.795-5.501 7.5-11.028 15.685-10.228 25.527.734 9.02 6.151 17.8 8.559 26.777 4.707 17.537-3.744 33.366-12.201 47.616a3816.8 3816.8 0 00-72.172 127.32c-19.239 35.526-38.076 71.764-50.188 110.72" stroke="#BDBEC1"/><path opacity=".5" d="M559.722-39.583C435.921-23.22 337.933 46.077 300.214 144.621c-3.378 8.866-5.925 19.403.304 29.051 2.855 4.424 7.073 8.056 11.379 11.521 8.934 7.19 18.951 14.422 28.102 22.043 27.413 22.842 45.782 48.471 50.902 77.128 4.28 23.969-8.076 44.255-25.273 58.32-17.333 14.177-38.735 24.141-55.75 38.829-12.016 10.376-21.51 22.966-30.745 35.617-5.439 7.449-10.897 15.575-10.185 25.316.655 8.947 5.868 17.652 8.16 26.552 4.469 17.358-3.916 33.04-12.32 47.166a4141.038 4141.038 0 00-71.911 126.07c-19.226 35.137-38.12 70.988-49.954 109.683" stroke="#B9BABD"/><path opacity=".5" d="M563.171-37.597C439.346-20.744 341.49 48.92 303.82 147.73c-3.377 8.907-5.934 19.45.209 29.159 2.821 4.456 6.994 8.137 11.273 11.649 8.869 7.286 18.857 14.61 27.938 22.324 27.242 23.135 45.041 49.027 49.965 77.786 4.065 23.75-8.047 43.888-24.939 57.952-16.893 14.064-38.068 24.247-54.831 38.917-11.833 10.353-21.204 22.869-30.33 35.437-5.374 7.406-10.767 15.465-10.139 25.102.578 8.87 5.589 17.507 7.759 26.327 4.228 17.176-4.09 32.707-12.441 46.719a4555.263 4555.263 0 00-71.648 124.821c-19.217 34.753-38.162 70.215-49.725 108.644" stroke="#B5B6B9"/><path opacity=".5" d="M566.617-35.607C442.771-18.268 345.042 51.76 307.422 150.839c-3.379 8.941-5.941 19.503.114 29.266 2.786 4.488 6.916 8.214 11.166 11.778 8.802 7.385 18.759 14.796 27.777 22.6 27.067 23.426 44.301 49.579 49.024 78.442 3.854 23.534-8.014 43.523-24.611 57.581-16.751 14.19-37.403 24.358-53.908 39.007-11.646 10.337-20.897 22.772-29.917 35.263-5.311 7.355-10.636 15.355-10.095 24.892.495 8.794 5.311 17.361 7.364 26.104 3.986 16.995-4.26 32.377-12.563 46.273a5068.118 5068.118 0 00-71.384 123.566c-19.204 34.365-38.206 69.44-49.491 107.607" stroke="#B1B1B5"/><path opacity=".5" d="M570.064-33.622c-123.872 17.834-221.466 88.224-259.042 187.57-3.378 8.98-5.945 19.551.023 29.368 2.746 4.517 6.836 8.295 11.054 11.905 8.737 7.48 18.665 14.983 27.61 22.878 26.896 23.719 43.563 50.126 48.089 79.095 3.643 23.319-7.983 43.163-24.278 57.213-16.295 14.051-36.736 24.465-52.989 39.094-11.462 10.315-20.591 22.676-29.501 35.085-5.247 7.311-10.506 15.245-10.052 24.681.419 8.717 5.03 17.209 6.963 25.879 3.75 16.816-4.428 32.048-12.681 45.823a5756.468 5756.468 0 00-71.122 122.316c-19.192 33.977-38.249 68.66-49.262 106.568" stroke="#ADADB1"/><path opacity=".5" d="M573.513-31.637C449.616-13.312 352.15 57.442 314.628 157.058c-3.378 9.021-5.952 19.605-.067 29.478 2.711 4.549 6.758 8.371 10.947 12.034 8.67 7.579 18.564 15.172 27.449 23.153 26.725 24.013 42.827 50.68 47.147 79.751 3.435 23.099-7.95 42.798-23.952 56.848-16.165 14.198-36.067 24.57-52.066 39.183-11.272 10.296-20.284 22.579-29.085 34.906-5.186 7.265-10.375 15.136-10.005 24.467.339 8.644 4.75 17.064 6.562 25.654 3.509 16.634-4.598 31.717-12.802 45.377a6665.214 6665.214 0 00-70.86 121.066c-19.182 33.593-38.289 67.887-49.03 105.535" stroke="#A9A9AD"/><path opacity=".5" d="M576.959-29.646C453.045-10.834 355.704 60.288 318.23 160.166c-3.383 9.058-5.964 19.655-.162 29.585 2.676 4.58 6.68 8.448 10.84 12.162 8.605 7.675 18.47 15.36 27.288 23.43 26.551 24.304 42.097 51.225 46.212 80.405 3.227 22.878-7.916 42.433-23.618 56.479-15.878 14.205-35.4 24.677-51.147 39.271-11.084 10.275-19.978 22.482-28.677 34.729-5.119 7.217-10.245 15.026-9.961 24.257.262 8.566 4.471 16.918 6.164 25.424 3.271 16.455-4.767 31.387-12.921 44.926a8079.847 8079.847 0 00-70.596 119.812c-19.17 33.205-38.334 67.111-48.8 104.496" stroke="#A4A5A9"/><path opacity=".5" d="M580.407-27.661C456.47-8.358 359.256 63.129 321.829 163.279c-3.38 9.094-5.969 19.704-.255 29.688 2.637 4.61 6.597 8.526 10.73 12.289 8.537 7.774 18.376 15.547 27.124 23.71 26.38 24.597 41.364 51.775 45.275 81.063 3.025 22.656-7.883 42.068-23.29 56.108-15.587 14.209-34.735 24.788-50.223 39.361-10.9 10.253-19.674 22.379-28.262 34.551-5.058 7.171-10.114 14.916-9.917 24.046.183 8.493 4.194 16.768 5.764 25.199 3.032 16.269-4.941 31.055-13.043 44.48a10184.108 10184.108 0 00-70.333 118.562c-19.158 32.817-38.375 66.339-48.567 103.46" stroke="#A0A1A5"/><path opacity=".5" d="M583.855-25.676C459.894-5.88 362.812 65.971 325.435 166.39c-3.38 9.134-5.976 19.758-.345 29.797 2.601 4.642 6.519 8.604 10.622 12.418 8.473 7.87 18.275 15.737 26.959 23.984 26.202 24.892 40.633 52.32 44.333 81.719 2.824 22.433-7.853 41.7-22.956 55.74-15.295 14.218-34.068 24.894-49.305 39.448-10.711 10.233-19.367 22.282-27.846 34.372-4.992 7.123-9.984 14.806-9.871 23.832.104 8.42 3.911 16.62 5.364 24.974 2.795 16.09-5.111 30.725-13.164 44.034a14090.689 14090.689 0 00-70.072 117.311c-19.148 32.433-38.419 65.564-48.337 102.421" stroke="#9C9DA1"/><path opacity=".5" d="M587.301-23.686C463.318-3.406 366.364 68.81 329.036 169.498c-3.384 9.172-5.983 19.811-.439 29.904 2.566 4.674 6.439 8.685 10.515 12.547 8.405 7.969 18.181 15.925 26.796 24.264 26.031 25.186 39.907 52.868 43.398 82.373 2.626 22.214-7.822 41.34-22.623 55.372-15.005 14.221-33.4 25-48.386 39.535-10.527 10.212-19.061 22.185-27.433 34.198-4.931 7.077-9.856 14.701-9.828 23.622.023 8.34 3.635 16.47 4.964 24.749 2.556 15.903-5.28 30.394-13.283 43.583a23030.625 23030.625 0 00-69.807 116.057c-19.14 32.042-38.462 64.784-48.103 101.384" stroke="#98999D"/><path opacity=".5" d="M590.745-21.703c-124 20.78-220.825 93.356-258.103 194.311-3.383 9.213-5.994 19.862-.534 30.012 2.527 4.703 6.361 8.761 10.404 12.673 8.34 8.065 18.08 16.115 26.635 24.54 25.854 25.481 39.187 53.415 42.461 83.031 2.432 21.99-7.789 40.975-22.297 55.006-14.717 14.229-32.732 25.107-47.463 39.625-10.338 10.192-18.754 22.088-27.017 34.02-4.864 7.028-9.725 14.59-9.784 23.411-.056 8.267 3.356 16.325 4.568 24.526 2.321 15.72-5.45 30.065-13.405 43.137a70872.815 70872.815 0 00-69.544 114.808c-19.128 31.653-38.503 64.01-47.875 100.344" stroke="#94959A"/><path opacity=".5" d="M594.193-19.718C470.169 1.553 373.476 74.495 336.244 175.716c-3.381 9.249-5.999 19.911-.627 30.115 2.492 4.735 6.284 8.838 10.298 12.802 8.275 8.159 17.986 16.302 26.467 24.818 25.683 25.774 38.463 53.958 41.522 83.682 2.236 21.766-7.756 40.61-21.965 54.638-14.208 14.028-32.064 25.213-46.541 39.708-10.154 10.169-18.447 21.992-26.602 33.841-4.804 6.982-9.594 14.481-9.742 23.194-.135 8.194 3.079 16.175 4.168 24.301 2.084 15.541-5.622 29.739-13.526 42.691a64669.424 64669.424 0 01-69.283 113.558c-19.118 31.269-38.547 63.234-47.643 99.311" stroke="#909196"/><path opacity=".5" d="M597.64-17.728C473.594 4.03 377.027 77.34 339.846 178.825c-3.385 9.286-6.006 19.964-.717 30.224 2.457 4.766 6.204 8.919 10.191 12.931 8.212 8.261 17.887 16.487 26.306 25.094 25.505 26.069 37.746 54.499 40.584 84.34 2.047 21.545-7.722 40.246-21.635 54.267-14.134 14.242-31.401 25.317-45.618 39.798-9.965 10.15-18.141 21.895-26.189 33.667-4.739 6.938-9.468 14.368-9.698 22.984-.215 8.12 2.802 16.025 3.767 24.076 1.845 15.355-5.795 29.406-13.645 42.24a21676.261 21676.261 0 01-69.016 112.31c-19.106 30.881-38.592 62.459-47.409 98.275" stroke="#8C8D92"/><path opacity=".5" d="M601.087-15.742C477.018 6.505 380.578 80.178 343.444 181.937c-3.385 9.327-6.013 20.018-.811 30.332 2.419 4.791 6.126 8.995 10.086 13.055 8.147 8.357 17.791 16.679 26.145 25.37 25.335 26.363 37.034 55.043 39.647 84.999 1.859 21.318-7.691 39.884-21.302 53.899-13.839 14.247-30.734 25.423-44.7 39.885-9.78 10.127-17.838 21.795-25.777 33.485-4.676 6.888-9.338 14.259-9.654 22.775-.298 8.044 2.519 15.877 3.369 23.846 1.61 15.171-5.965 29.076-13.766 41.794a12689.82 12689.82 0 01-68.752 111.056c-19.094 30.493-38.633 61.686-47.18 97.235" stroke="#88898E"/><path opacity=".5" d="M604.536-13.757c-124.093 22.738-220.401 96.778-257.483 198.8-3.384 9.367-6.025 20.069-.904 30.434 2.385 4.824 6.049 9.072 9.975 13.182 8.08 8.456 17.693 16.864 25.982 25.65 25.157 26.659 36.321 55.588 38.708 85.651 1.675 21.095-7.658 39.52-20.973 53.528-13.316 14.009-30.069 25.534-43.777 39.975-9.591 10.107-17.532 21.699-25.362 33.307-4.611 6.844-9.21 14.153-9.608 22.56-.374 7.967 2.243 15.727 2.969 23.621 1.376 14.987-6.134 28.745-13.887 41.347a8854.45 8854.45 0 01-68.49 109.806c-19.084 30.109-38.675 60.907-46.946 96.199" stroke="#84858A"/><path opacity=".5" d="M607.982-11.767c-124.117 23.229-220.291 97.63-257.33 199.923-3.389 9.405-6.032 20.122-.994 30.544 2.345 4.852 5.969 9.153 9.868 13.31 8.015 8.552 17.596 17.057 25.817 25.924 24.979 26.954 35.61 56.127 37.77 86.309 1.494 20.867-7.624 39.155-20.643 53.164-13.258 14.264-29.4 25.641-42.857 40.063-9.407 10.085-17.226 21.602-24.946 33.128-4.549 6.793-9.084 14.041-9.565 22.349-.454 7.894 1.966 15.578 2.569 23.396 1.141 14.805-6.304 28.416-14.006 40.897a6801.713 6801.713 0 01-68.228 108.556c-19.072 29.721-38.721 60.131-46.716 95.16" stroke="#7F8086"/><path opacity=".5" d="M611.43-9.782c-124.141 23.72-220.187 98.485-257.177 201.046-3.386 9.44-6.039 20.175-1.088 30.651 2.31 4.884 5.891 9.229 9.761 13.439 7.95 8.647 17.498 17.242 25.653 26.204 24.806 27.252 34.905 56.67 36.829 86.965 1.31 20.643-7.589 38.796-20.31 52.796-12.72 14-28.733 25.747-41.934 40.152-9.223 10.063-16.919 21.505-24.533 32.954-4.484 6.75-8.954 13.931-9.521 22.139-.567 8.209 1.689 15.428 2.168 23.171.909 14.616-6.473 28.086-14.127 40.451a5453.152 5453.152 0 01-67.963 107.302c-19.06 29.332-38.762 59.358-46.483 94.123" stroke="#7B7C82"/><path opacity=".5" d="M614.878-7.796C490.72 16.41 394.799 91.545 357.859 194.375c-3.385 9.48-6.048 20.221-1.181 30.753 2.276 4.916 5.812 9.311 9.651 13.566 7.882 8.746 17.401 17.433 25.492 26.48 24.631 27.542 34.203 57.214 35.894 87.618 1.133 20.418-7.556 38.432-19.981 52.426-12.676 14.277-28.07 25.851-41.016 40.24-9.034 10.043-16.613 21.408-24.118 32.775-4.421 6.699-8.825 13.826-9.474 21.925-.649 8.099 1.413 15.278 1.772 22.948.674 14.433-6.647 27.753-14.248 40.005a4540.607 4540.607 0 01-67.701 106.051c-19.048 28.944-38.807 58.583-46.256 93.088" stroke="#77787E"/><path opacity=".5" d="M618.324-5.806C494.142 18.892 398.349 94.389 361.458 197.487c-3.39 9.519-6.055 20.275-1.275 30.861 2.233 4.95 5.734 9.387 9.543 13.695 7.817 8.841 17.3 17.623 25.327 26.753 24.454 27.838 33.504 57.754 34.957 88.277.956 20.192-7.525 38.071-19.648 52.058-12.124 13.986-27.403 25.957-40.092 40.329-8.85 10.02-16.307 21.311-23.703 32.597-4.356 6.655-8.699 13.713-9.43 21.714-.7 7.67 1.133 15.132 1.372 22.723.441 14.245-6.817 27.423-14.368 39.554a3852.351 3852.351 0 01-67.439 104.802c-19.038 28.56-38.844 57.805-46.022 92.051" stroke="#73747A"/><path opacity=".5" d="M621.772-3.82C497.566 21.367 401.905 97.231 365.059 200.595c-3.389 9.558-6.066 20.325-1.365 30.97 2.198 4.982 5.657 9.464 9.436 13.824 7.752 8.936 17.206 17.81 25.164 27.034 24.28 28.135 32.809 58.296 34.017 88.927.787 19.966-7.491 37.707-19.319 51.688-12.089 14.292-26.735 26.063-39.173 40.416-8.666 9.999-16 21.215-23.29 32.423-4.293 6.604-8.57 13.608-9.386 21.504-.816 7.897.857 14.983.974 22.493.211 14.064-6.986 27.093-14.489 39.108a3330.35 3330.35 0 01-67.177 103.552c-19.026 28.172-38.889 57.029-45.793 91.012" stroke="#6F7076"/><path opacity=".5" d="M625.221-1.835C500.991 23.844 405.46 100.067 368.668 203.702c-3.386 9.595-6.073 20.379-1.46 31.077 2.159 5.011 5.572 9.543 9.33 13.953 7.689 9.038 17.105 18 25.002 27.31 24.103 28.43 32.121 58.837 33.08 89.586.617 19.738-7.454 37.344-18.988 51.323-11.797 14.302-26.072 26.168-38.255 40.504-8.476 9.979-15.698 21.116-22.874 32.244-4.228 6.561-8.444 13.496-9.34 21.29-.896 7.794.585 14.835.574 22.268-.021 13.876-7.156 26.763-14.61 38.662a2921.319 2921.319 0 01-66.913 102.297C245.201 702 225.28 730.47 218.655 764.192" stroke="#6B6C73"/><path opacity=".5" d="M628.667.154c-124.25 26.172-219.653 102.76-256.4 206.66-3.391 9.633-6.08 20.432-1.552 31.18 2.123 5.043 5.495 9.62 9.218 14.079 7.624 9.134 17.011 18.188 24.839 27.591 23.923 28.73 31.434 59.378 32.143 90.244.451 19.513-7.423 36.983-18.66 50.953-11.237 13.969-25.404 26.273-37.331 40.593-8.292 9.957-15.391 21.019-22.463 32.063-4.168 6.515-8.321 13.388-9.296 21.08-.976 7.692.31 14.681.173 22.043-.251 13.694-7.327 26.437-14.725 38.213a2595.072 2595.072 0 01-66.65 101.048c-19.004 27.4-38.975 55.481-45.329 88.936" stroke="#67686F"/><path opacity=".5" d="M632.115 2.14C507.842 28.803 412.57 105.756 375.873 209.925c-3.391 9.673-6.092 20.483-1.647 31.287 2.084 5.073 5.417 9.696 9.111 14.208 7.559 9.229 16.911 18.377 24.674 27.864 23.745 29.025 30.752 59.917 31.204 90.896.281 19.285-7.39 36.618-18.327 50.584-10.938 13.966-24.741 26.378-36.412 40.681-8.108 9.934-15.085 20.922-22.05 31.889-4.101 6.466-8.19 13.278-9.253 20.869-1.03 7.37.034 14.532-.227 21.818-.483 13.507-7.496 26.107-14.846 37.768a2322.419 2322.419 0 01-66.388 99.797c-18.992 27.012-39.02 54.706-45.098 87.904" stroke="#63646B"/><path opacity=".5" d="M635.563 4.125c-124.295 27.15-219.441 104.471-256.089 208.908-3.39 9.713-6.099 20.537-1.737 31.397 2.049 5.104 5.34 9.773 9.005 14.337 7.494 9.324 16.813 18.569 24.51 28.144 23.572 29.323 30.069 60.46 30.266 91.554.12 19.063-7.354 36.26-17.993 50.216-10.922 14.325-24.074 26.484-35.489 40.771-7.92 9.914-14.779 20.826-21.635 31.71-4.041 6.421-8.066 13.17-9.206 20.655-1.109 7.297-.238 14.384-.627 21.593-.712 13.321-7.671 25.774-14.965 37.317a2098.086 2098.086 0 01-66.124 98.543c-18.98 26.623-39.063 53.926-44.869 86.865" stroke="#5F6067"/><path opacity=".5" d="M639.009 6.115C514.69 33.755 419.675 111.442 383.073 216.146c-3.394 9.75-6.11 20.587-1.829 31.499 2.014 5.136 5.26 9.854 8.893 14.463 7.427 9.424 16.716 18.755 24.349 28.42 23.395 29.619 29.399 61 29.328 92.206-.039 18.836-7.321 35.895-17.665 49.846-10.345 13.95-23.41 26.588-34.57 40.858-7.735 9.892-14.472 20.728-21.219 31.531-3.974 6.372-7.941 13.058-9.163 20.445-1.223 7.387-.515 14.234-1.023 21.37-.939 13.136-7.84 25.444-15.086 36.871-21.002 33.171-42.992 65.677-65.862 97.293-18.97 26.239-39.103 53.152-44.635 85.828" stroke="#5A5C63"/><path opacity=".5" d="M642.457 8.1C518.119 36.233 423.23 114.278 386.679 219.256c-3.392 9.787-6.118 20.641-1.924 31.607 1.974 5.165 5.182 9.93 8.786 14.592 7.362 9.518 16.619 18.946 24.184 28.694 23.215 29.918 28.727 61.543 28.39 92.863-.198 18.61-7.285 35.538-17.332 49.478-10.046 13.94-22.742 26.694-33.644 40.944-7.551 9.869-14.166 20.631-20.806 31.357-3.913 6.326-7.817 12.949-9.119 20.234-1.278 7.15-.787 14.087-1.423 21.145-1.168 12.95-8.01 25.114-15.208 36.424-20.84 32.804-42.746 64.894-65.6 96.044-18.957 25.851-39.147 52.377-44.401 84.791" stroke="#56585F"/><path opacity=".5" d="M645.906 10.086C521.543 38.71 426.786 117.12 390.283 222.36c-3.391 9.827-6.129 20.692-2.014 31.716 1.939 5.198 5.105 10.008 8.679 14.721 7.297 9.614 16.518 19.136 24.021 28.974 23.037 30.214 28.06 62.086 27.452 93.522-.356 18.383-7.251 35.173-17.005 49.112-10.042 14.349-22.079 26.798-32.726 41.031-7.366 9.847-13.863 20.532-20.39 31.178-3.846 6.278-7.693 12.842-9.073 20.02-1.38 7.179-1.061 13.933-1.821 20.915-1.395 12.765-8.179 24.784-15.326 35.974-20.673 32.434-42.493 64.109-65.338 94.794-18.945 25.463-39.189 51.604-44.172 83.752" stroke="#52545B"/><path opacity=".5" d="M649.351 12.076c-124.386 29.113-219.012 107.891-255.47 213.397-3.395 9.864-6.135 20.744-2.108 31.823 1.9 5.226 5.025 10.088 8.57 14.843 7.237 9.711 16.424 19.323 23.86 29.25 22.86 30.509 27.399 62.63 26.514 94.173-.512 18.159-7.217 34.815-16.673 48.744-9.75 14.359-21.416 26.902-31.802 41.12-7.182 9.825-13.557 20.436-19.975 31-3.786 6.232-7.567 12.73-9.029 19.81-1.463 7.081-1.333 13.785-2.222 20.69-1.618 12.582-8.348 24.454-15.447 35.528a1464.635 1464.635 0 01-65.074 93.539c-18.935 25.079-39.233 50.828-43.938 82.715" stroke="#4E4F57"/><path opacity=".5" d="M652.799 14.062c-124.41 29.603-218.908 108.745-255.312 214.521-3.395 9.905-6.147 20.796-2.201 31.927 1.865 5.258 4.957 10.158 8.464 14.971 7.19 9.794 16.323 19.513 23.696 29.531 22.68 30.808 26.745 63.172 25.576 94.831-.661 17.937-7.178 34.452-16.343 48.373-9.455 14.365-20.748 27.008-30.884 41.208-6.997 9.803-13.25 20.339-19.559 30.821-3.719 6.184-7.443 12.622-8.983 19.596-1.54 6.974-1.605 13.637-2.622 20.465-1.844 12.392-8.522 24.121-15.569 35.081-20.348 31.695-41.991 62.535-64.811 92.289-18.923 24.691-39.276 50.049-43.711 81.68" stroke="#4A4B53"/><path opacity=".5" d="M656.248 16.047C531.821 46.14 437.448 125.65 401.089 231.692c-3.392 9.941-6.154 20.849-2.295 32.033 1.825 5.288 4.879 10.235 8.357 15.101 7.122 9.893 16.222 19.702 23.531 29.804 22.502 31.103 26.094 63.717 24.638 95.489-.811 17.715-7.145 34.087-16.01 48.005-8.866 13.918-20.085 27.112-29.96 41.298-6.813 9.78-12.945 20.242-19.151 30.644-3.658 6.138-7.319 12.514-8.939 19.386-1.612 6.847-1.875 13.485-3.022 20.239-2.068 12.209-8.692 23.792-15.688 34.631a1255.698 1255.698 0 01-64.545 91.042c-18.911 24.302-39.316 49.275-43.477 80.643" stroke="#46474F"/><path opacity=".5" d="M659.694 18.037C535.243 48.62 440.998 128.493 404.693 234.807c-3.396 9.978-6.166 20.899-2.386 32.142 1.791 5.32 4.802 10.312 8.25 15.23 7.058 9.989 16.126 19.894 23.368 30.084 22.322 31.403 25.451 64.26 23.699 96.141-.959 17.489-7.11 33.729-15.677 47.637-8.866 14.387-19.422 27.216-29.042 41.385-6.621 9.756-12.637 20.146-18.734 30.466-3.594 6.093-7.194 12.401-8.896 19.175-1.702 6.774-2.147 13.338-3.418 20.017-2.291 12.026-8.861 23.461-15.809 34.185-20.022 30.95-41.491 60.961-64.281 89.787-18.901 23.918-39.361 48.5-43.247 79.604" stroke="#42434C"/><path opacity=".5" d="M663.142 20.022C538.667 51.096 444.557 131.331 408.294 237.915c-3.396 10.018-6.173 20.952-2.478 32.245 1.751 5.349 4.722 10.393 8.139 15.356 6.992 10.084 16.027 20.08 23.207 30.36 22.142 31.703 24.81 64.81 22.762 96.8-1.105 17.269-7.072 33.366-15.351 47.27-8.571 14.392-18.759 27.32-28.123 41.473-6.437 9.734-12.331 20.048-18.319 30.287-3.531 6.043-7.074 12.291-8.85 18.96-1.775 6.67-2.419 13.191-3.818 19.792-2.515 11.843-9.033 23.135-15.93 33.739a1086.918 1086.918 0 01-64.019 88.537c-18.889 23.53-39.406 47.725-43.014 78.567" stroke="#3E3F48"/><path opacity=".5" d="M666.588 22.012C542.09 53.576 448.111 134.177 411.896 241.023c-3.396 10.059-6.184 21.003-2.573 32.352 1.714 5.385 4.644 10.47 8.032 15.485 6.925 10.184 15.927 20.269 23.042 30.634 21.964 31.998 24.175 65.358 21.827 97.453-1.248 17.046-7.037 33.009-15.018 46.902-8.275 14.405-18.091 27.427-27.199 41.563-6.258 9.709-12.03 19.949-17.907 30.113-3.466 5.999-6.95 12.183-8.806 18.75-1.855 6.567-2.689 13.039-4.218 19.567-2.732 11.658-9.202 22.805-16.05 33.288a1012.637 1012.637 0 01-63.756 87.287c-18.877 23.142-39.444 46.947-42.784 77.528" stroke="#393B44"/><path opacity=".5" d="M670.036 23.997c-124.518 32.057-218.374 113.02-254.535 220.136-3.4 10.097-6.196 21.055-2.667 32.46 1.674 5.415 4.564 10.551 7.925 15.614 6.864 10.281 15.83 20.461 22.878 30.914 21.784 32.298 23.552 65.906 20.886 98.109-1.394 16.826-7 32.646-14.69 46.532-7.982 14.414-17.427 27.53-26.28 41.65-6.073 9.686-11.723 19.852-17.491 29.934-3.403 5.948-6.828 12.068-8.762 18.54-1.933 6.472-2.957 12.894-4.616 19.337-2.955 11.475-9.376 22.473-16.171 32.842a948.027 948.027 0 01-63.492 86.033c-18.867 22.758-39.489 46.172-42.551 76.491" stroke="#353740"/><path opacity=".5" d="M673.485 25.983C548.943 58.53 455.219 139.859 419.103 247.242c-3.397 10.132-6.202 21.107-2.755 32.565 1.639 5.446 4.487 10.627 7.814 15.74 6.797 10.38 15.729 20.65 22.717 31.19 21.6 32.595 22.926 66.459 19.948 98.767-1.533 16.605-6.963 32.288-14.356 46.164-7.683 14.422-16.764 27.634-25.357 41.739-5.889 9.665-11.416 19.756-17.075 29.756-3.339 5.905-6.705 11.96-8.716 18.325-2.045 6.467-3.227 12.743-5.017 19.112-3.174 11.295-9.545 22.143-16.292 32.396a887.941 887.941 0 01-63.23 84.783c-18.855 22.37-39.529 45.399-42.323 75.457" stroke="#31333C"/><path opacity=".5" d="M676.93 27.972C552.367 61.006 458.768 142.704 422.702 250.354c-3.397 10.173-6.217 21.163-2.85 32.672 1.6 5.476 4.409 10.704 7.707 15.869 6.732 10.476 15.61 20.853 22.554 31.471 21.358 32.934 22.311 67.012 19.009 99.418-1.668 16.386-6.926 31.926-14.028 45.793-7.39 14.432-16.101 27.739-24.438 41.827-5.704 9.643-11.11 19.659-16.662 29.582-3.276 5.854-6.586 11.85-8.672 18.115-2.087 6.266-3.495 12.598-5.417 18.887-3.394 11.114-9.715 21.812-16.411 31.945a834.342 834.342 0 01-62.968 83.533c-18.842 21.981-39.575 44.623-42.09 74.42" stroke="#2D2F38"/><path opacity=".5" d="M680.379 29.958C555.791 63.482 462.327 145.542 426.307 253.465c-3.4 10.211-6.248 21.219-2.944 32.779 1.551 5.511 4.33 10.785 7.601 15.998 6.666 10.571 15.515 21.04 22.388 31.744 21.182 33.225 21.7 67.568 18.072 100.077-1.805 16.171-6.889 31.563-13.697 45.429-7.092 14.44-15.438 27.842-23.515 41.917-5.52 9.62-10.804 19.562-16.247 29.402-3.211 5.811-6.459 11.738-8.628 17.906-2.219 6.317-3.767 12.45-5.818 18.661-3.61 10.929-9.884 21.482-16.532 31.499a784.118 784.118 0 01-62.706 82.283c-18.832 21.597-39.619 43.848-41.86 73.381" stroke="#292B34"/><path opacity=".5" d="M683.827 31.943C559.215 65.958 465.879 148.381 429.911 256.57c-3.4 10.251-6.255 21.272-3.034 32.888 1.516 5.543 4.252 10.862 7.489 16.125 6.599 10.67 15.415 21.23 22.225 32.024 21.009 33.523 21.097 68.122 17.137 100.731-1.939 15.952-6.853 31.205-13.364 45.061-6.511 13.856-14.779 27.943-22.596 42.004-5.336 9.598-10.497 19.465-15.836 29.222-3.151 5.764-6.34 11.627-8.582 17.69-2.242 6.064-4.032 12.301-6.213 18.439-3.825 10.751-10.054 21.152-16.654 31.053a738.41 738.41 0 01-62.441 81.029c-18.82 21.209-39.658 43.07-41.627 72.343" stroke="#252730"/><path opacity=".5" d="M687.273 33.933c-124.631 34.508-217.84 117.295-253.758 225.751-3.398 10.286-6.267 21.323-3.127 32.991 1.477 5.573 4.175 10.939 7.382 16.254 6.535 10.765 15.317 21.414 22.064 32.3 20.835 33.813 20.5 68.684 16.196 101.386-2.07 15.736-6.811 30.845-13.036 44.691-6.498 14.464-14.115 28.047-21.672 42.093-5.152 9.576-10.195 19.367-15.423 29.048-3.084 5.716-6.22 11.517-8.538 17.48-2.395 6.162-4.301 12.156-6.614 18.214-4.044 10.571-10.227 20.82-16.772 30.602a695.848 695.848 0 01-62.179 79.779c-18.809 20.821-39.703 42.295-41.393 71.307" stroke="#21232C"/><path opacity=".5" d="M690.722 35.919C566.067 70.917 472.989 154.07 437.117 262.792c-3.402 10.325-6.272 21.373-3.222 33.099 1.444 5.6 4.095 11.019 7.276 16.382 6.471 10.867 15.219 21.607 21.898 32.574 20.657 34.108 19.909 69.245 15.258 102.044-2.202 15.524-6.773 30.483-12.702 44.323-5.929 13.839-13.452 28.151-20.754 42.181-4.971 9.55-9.888 19.269-15.007 28.869-3.023 5.67-6.098 11.402-8.494 17.27s-4.564 12.013-7.014 17.988c-4.262 10.397-10.397 20.49-16.894 30.156a656.394 656.394 0 01-61.917 78.529c-18.796 20.433-39.748 41.52-41.164 70.268" stroke="#1D1E28"/><path opacity=".5" d="M694.17 37.904C569.491 73.394 476.541 156.91 440.718 265.9c-3.401 10.365-6.278 21.426-3.316 33.206 1.405 5.629 4.017 11.096 7.169 16.511 6.406 10.963 15.121 21.792 21.735 32.854 20.479 34.404 19.327 69.812 14.323 102.699-2.333 15.307-6.735 30.12-12.373 43.951-5.905 14.478-12.818 28.245-19.829 42.267-4.804 9.519-9.581 19.173-14.591 28.69-2.956 5.622-5.979 11.292-8.448 17.056-2.571 6.005-4.832 11.869-7.412 17.759-4.477 10.219-10.567 20.16-17.013 29.705a619.644 619.644 0 01-61.653 77.275c-18.786 20.049-39.788 40.746-40.932 69.235" stroke="#191A25"/><path opacity=".5" d="M697.615 39.894c-124.7 35.975-217.518 119.858-253.294 229.121-3.401 10.405-6.29 21.477-3.404 33.311 1.369 5.661 3.935 11.171 7.06 16.633 6.341 11.058 15.025 21.984 21.574 33.13 20.304 34.695 18.756 70.379 13.382 103.355-2.461 15.097-6.672 29.772-12.043 43.588-5.579 14.5-12.15 28.351-18.91 42.354-4.615 9.498-9.275 19.076-14.176 28.511-2.895 5.576-5.857 11.177-8.404 16.846-2.547 5.668-5.1 11.723-7.812 17.534-4.691 10.04-10.738 19.833-17.134 29.259a586.563 586.563 0 01-61.391 76.024c-18.774 19.661-39.833 39.971-40.702 68.196" stroke="#141621"/><path opacity=".5" d="M701.064 41.88C576.344 78.347 483.65 162.591 447.923 272.123c-3.403 10.439-6.297 21.53-3.499 33.418 1.335 5.693 3.856 11.252 6.953 16.763 6.274 11.157 14.927 22.169 21.411 33.41 20.127 34.99 18.183 70.949 12.444 104.012-2.585 14.891-6.638 29.408-11.714 43.218-5.286 14.51-11.486 28.455-17.99 42.441-4.431 9.477-8.969 18.979-13.763 28.337-2.829 5.528-5.743 11.065-8.361 16.636-2.75 5.846-5.363 11.581-8.212 17.308-4.904 9.87-10.908 19.504-17.256 28.813a555.097 555.097 0 01-61.128 74.775c-18.766 19.27-39.876 39.191-40.469 67.159" stroke="#10121D"/><path opacity=".5" d="M704.511 43.865C579.768 80.823 487.205 165.434 451.526 275.227c-3.403 10.479-6.306 21.577-3.593 33.525 1.295 5.722 3.778 11.328 6.846 16.891 6.209 11.253 14.83 22.361 21.246 33.684 19.953 35.288 17.625 71.524 11.509 104.666-2.709 14.684-6.6 29.045-11.381 42.85-4.992 14.515-10.819 28.561-17.067 42.531-4.25 9.458-8.663 18.882-13.348 28.159-2.768 5.481-5.62 10.949-8.314 16.42-2.843 5.766-5.631 11.437-8.613 17.084-5.119 9.691-11.082 19.171-17.374 28.362-17.901 26.142-38.239 50.741-60.867 73.525-18.756 18.886-39.916 38.418-40.239 66.12" stroke="#0C0E19"/><path opacity=".5" d="M707.958 45.855C583.19 83.304 490.759 168.28 455.13 278.342c-3.403 10.519-6.313 21.63-3.681 33.631 1.26 5.754 3.698 11.409 6.735 17.017 6.141 11.352 14.731 22.546 21.084 33.96 19.779 35.579 17.07 72.104 10.568 105.322-2.833 14.476-6.567 28.68-11.048 42.481-4.701 14.519-10.158 28.67-16.148 42.618-4.065 9.437-8.36 18.784-12.932 27.981-2.701 5.433-5.51 10.834-8.271 16.21-2.939 5.683-5.881 11.301-9.009 16.861-5.314 9.53-11.251 18.841-17.495 27.916-17.737 25.77-37.986 49.955-60.602 72.271-18.744 18.497-39.961 37.642-40.006 65.083" stroke="#080A15"/><path opacity=".5" d="M711.406 47.84C586.614 85.78 494.311 171.121 458.731 281.45c-3.406 10.557-6.32 21.684-3.775 33.738 3.688 17.486 18.151 34.194 27.549 51.387 19.601 35.874 16.525 72.685 9.633 105.976-19.384 93.583-65.523 177.482-134.058 243.744-18.732 18.109-40.002 36.869-39.779 64.048" stroke="#040611"/></g></g><defs><clipPath id="clip0_2174_2098"><path fill="#fff" d="M0 0h305v182H0z"/></clipPath><clipPath id="clip1_2174_2098"><path fill="#fff" transform="rotate(24.303 -61.537 -390.556)" d="M0 0h1115v524H0z"/></clipPath><clipPath id="clip2_2174_2098"><path fill="#fff" transform="scale(-1 1) rotate(60.642 -60.09 -390.5)" d="M0 0h918.675v431.736H0z"/></clipPath></defs></svg>