<svg width="533" height="148" fill="none" xmlns="http://www.w3.org/2000/svg"><g clip-path="url(#clip0_2174_2102)"><g clip-path="url(#clip1_2174_2102)" stroke-width=".5" stroke-miterlimit="10"><path opacity=".5" d="M-455.535 110.891c80.356-145.1 214.21-230.506 350.262-223.472 11.889.618 25.83 3.552 31.963 17.866 2.764 6.447 3.336 14.051 3.774 21.376 3.675 60.617 7.413 132.05 45.134 166.203 28.535 25.837 66.155 18.421 96.01-.52 29.855-18.94 55.703-47.985 86.135-65.25 21.687-12.3 45.141-18.305 68.482-23.724 13.737-3.186 28.699-5.95 41.326 3.273 11.295 8.246 18.333 24.42 28.303 35.52 19.829 22.065 47.46 20.883 72.315 18.886 135.373-10.866 271.551-11.151 407.656-.846" stroke="#fff"/><path opacity=".5" d="M-455.1 116.21c80.965-144.85 215.187-229.885 351.536-222.637 11.931.635 25.892 3.574 32.148 17.812 2.822 6.416 3.473 14.001 3.991 21.32 1.086 15.334 2.15 31.401 3.79 47.333 4.852 47 14.748 92.733 43.106 118.073 28.358 25.34 65.694 18.26 95.373-.327 29.692-18.58 55.45-47.115 85.715-64.078 21.554-12.09 44.848-17.99 68.028-23.323 13.639-3.139 28.491-5.855 41.045 3.206 11.252 8.107 18.311 24.006 28.259 34.905 19.741 21.682 47.157 20.489 71.844 18.484a2670.663 2670.663 0 01220.735-8.73c61.231.108 122.566 2.315 183.857 7.178" stroke="#FBFBFB"/><path opacity=".5" d="M-454.659 121.528c81.567-144.597 216.165-229.263 352.804-221.808 11.98.658 25.96 3.596 32.332 17.765 2.88 6.391 3.61 13.951 4.209 21.265 1.238 15.309 2.431 31.387 4.216 47.294C-55.792 33-45.218 78.18-16.658 103.351c28.354 24.991 65.233 18.091 94.736-.14 29.536-18.227 55.197-46.244 85.295-62.914 21.422-11.88 44.555-17.673 67.58-22.921 13.55-3.086 28.283-5.767 40.766 3.138 11.208 7.963 18.287 23.585 28.208 34.292 19.653 21.298 46.853 20.087 71.372 18.08a2742.02 2742.02 0 01219.069-9.126c60.76-.1 121.652 1.823 182.466 6.867" stroke="#F7F7F7"/><path opacity=".5" d="M-454.224 126.847c82.175-144.34 217.142-228.649 354.078-220.98 12.028.681 26.029 3.61 32.509 17.712 2.939 6.36 3.755 13.9 4.426 21.202 1.398 15.284 2.719 31.373 4.642 47.25 5.766 46.916 17.012 91.545 45.776 116.547 28.262 24.568 64.777 17.923 94.098.054 29.374-17.867 54.943-45.381 84.876-61.744 21.289-11.661 44.262-17.356 67.125-22.519 13.453-3.038 28.081-5.678 40.48 3.072 11.157 7.819 18.27 23.17 28.164 33.677 19.565 20.909 46.549 19.693 70.893 17.679a2813.52 2813.52 0 01217.403-9.525c60.282-.307 120.737 1.326 181.074 6.552" stroke="#F3F3F3"/><path opacity=".5" d="M-453.789 132.165C-370.998-11.923-235.67-95.862-98.437-87.98c12.077.698 26.098 3.633 32.694 17.658 2.997 6.337 3.892 13.85 4.643 21.147 1.55 15.26 3 31.366 5.076 47.213 6.226 46.868 18.137 90.947 47.103 115.786 28.967 24.84 64.316 17.761 93.461.247 29.22-17.506 54.698-44.51 84.457-60.578 21.157-11.452 43.969-17.04 66.671-22.118 13.362-2.985 27.854-5.561 40.199 3.005 11.102 7.702 18.272 22.726 28.12 33.062 19.521 20.483 46.246 19.299 70.422 17.277a2895.096 2895.096 0 01215.736-9.922c59.805-.515 119.823.827 179.69 6.241" stroke="#EFEFEF"/><path opacity=".5" d="M-453.348 137.483C-369.954-6.352-234.258-89.929-96.728-81.834c12.118.722 26.16 3.656 32.878 17.606 3.056 6.312 4.03 13.8 4.86 21.09 1.71 15.242 3.288 31.353 5.503 47.176 6.679 46.823 19.269 90.349 48.438 115.02 29.17 24.67 63.854 17.593 92.83.433 29.057-17.146 54.444-43.647 84.036-59.414 21.025-11.24 43.677-16.73 66.217-21.716 13.272-2.939 27.647-5.466 39.919 2.937 11.052 7.565 18.256 22.305 28.077 32.448 19.445 20.092 45.942 18.904 69.943 16.875a2980.838 2980.838 0 01214.064-10.319c59.333-.723 118.908.336 178.298 5.925" stroke="#EAEBEB"/><path opacity=".5" d="M-452.913 142.802C-368.911-.782-232.846-83.989-95.012-75.688c12.167.746 26.228 3.672 33.062 17.56 3.114 6.28 4.173 13.75 5.078 21.028 1.862 15.217 3.569 31.345 5.935 47.13 7.139 46.777 20.387 89.76 49.773 114.26 27.958 23.314 63.392 17.425 92.192.626 28.896-16.784 54.192-42.776 83.618-58.243 20.892-11.022 43.383-16.414 65.768-21.32 13.175-2.885 27.433-5.364 39.633 2.87 11.001 7.427 18.239 21.883 28.032 31.84 19.371 19.695 45.64 18.51 69.472 16.472A3079.523 3079.523 0 01589.949 85.82c58.855-.93 117.987-.162 176.907 5.615" stroke="#E6E7E8"/><path opacity=".5" d="M-452.477 148.12C-367.867 4.788-231.433-78.056-93.302-69.534c12.215.762 26.297 3.693 33.24 17.506 3.173 6.256 4.31 13.7 5.295 20.972 2.015 15.193 3.856 31.332 6.362 47.094 7.592 46.73 21.512 89.161 51.1 113.5 27.855 22.905 62.932 17.263 91.556.813 28.74-16.425 53.938-41.906 83.197-57.079 20.76-10.812 43.091-16.098 65.314-20.92 13.084-2.837 27.225-5.267 39.353 2.804 10.951 7.29 18.221 21.455 27.988 31.226 19.295 19.298 45.342 18.108 69 16.07a3184.398 3184.398 0 01210.732-11.114c58.377-1.137 117.072-.653 175.515 5.299" stroke="#E2E2E4"/><path opacity=".5" d="M-452.036 153.438C-366.823 10.365-230.021-72.117-91.593-63.387c12.264.785 26.365 3.708 33.424 17.452 3.231 6.226 4.448 13.65 5.512 20.916 2.175 15.169 4.138 31.325 6.79 47.057 8.051 46.69 22.63 88.57 52.434 112.733 27.745 22.497 62.476 17.094 90.918 1.006 28.578-16.071 53.685-41.041 82.778-55.907 20.628-10.601 42.799-15.782 64.86-20.518 12.988-2.784 27.01-5.172 39.073 2.736C295.097 69.241 302.4 83.122 312.14 92.7c19.213 18.907 45.039 17.714 68.521 15.668a3305.259 3305.259 0 01209.06-11.511c57.906-1.346 116.157-1.152 174.124 4.989" stroke="#DEDEE0"/><path opacity=".5" d="M-451.601 158.757C-365.773 15.935-228.603-66.184-89.884-57.233c12.313.808 26.401 3.745 33.608 17.398 3.277 6.209 4.592 13.599 5.73 20.86 2.327 15.144 4.393 31.32 7.223 47.019 8.412 46.658 23.749 87.974 53.762 111.973 27.63 22.09 62.015 16.926 90.281 1.193 28.422-15.71 53.432-40.171 82.358-54.743 20.496-10.383 42.506-15.465 64.412-20.116 12.897-2.737 26.802-5.076 38.786 2.67 10.858 7.014 18.188 20.611 27.894 29.998 19.138 18.509 44.735 17.319 68.049 15.265a3441.117 3441.117 0 01207.394-11.908c57.428-1.553 115.243-1.651 172.732 4.672" stroke="#DADADC"/><path opacity=".5" d="M-451.166 164.075C-364.729 21.505-227.19-60.244-88.174-51.087c12.353.826 26.463 3.768 33.785 17.353 3.336 6.184 4.73 13.548 5.947 20.798 2.487 15.119 4.674 31.306 7.65 46.974 8.865 46.62 24.86 87.384 55.096 111.206 27.512 21.682 61.553 16.765 89.65 1.387 28.26-15.35 53.185-39.308 81.939-53.572 20.363-10.173 42.213-15.149 63.958-19.715 12.8-2.683 26.594-4.98 38.506 2.603 10.807 6.877 18.17 20.183 27.849 29.383 19.056 18.113 44.432 16.925 67.578 14.863a3594.382 3594.382 0 01205.727-12.306c56.951-1.76 114.329-2.142 171.348 4.363" stroke="#D6D6D8"/><path opacity=".5" d="M-450.725 169.394C-363.686 27.075-225.779-54.304-86.465-44.94c12.401.85 26.53 3.79 33.969 17.299 3.387 6.154 4.873 13.498 6.164 20.742 2.64 15.101 4.955 31.3 8.083 46.937 9.311 46.574 25.972 86.794 56.431 110.446 27.396 21.281 61.092 16.596 89.013 1.579 28.105-14.989 52.932-38.437 81.519-52.407 20.237-9.962 41.92-14.839 63.503-19.313 12.71-2.636 26.38-4.878 38.227 2.535 10.757 6.74 18.153 19.762 27.805 28.77 18.981 17.722 44.129 16.53 67.099 14.46a3762.303 3762.303 0 01204.062-12.703c56.472-1.967 113.407-2.639 169.956 4.046" stroke="#D2D2D4"/><path opacity=".5" d="M-450.29 174.712c87.648-142.067 225.923-223.083 365.54-213.5 12.451.873 26.593 3.806 34.154 17.246 3.446 6.13 5.01 13.448 6.382 20.686 2.792 15.077 5.236 31.287 8.51 46.9 9.765 46.534 27.083 86.197 57.759 109.686 27.273 20.874 60.63 16.428 88.375 1.766 27.943-14.629 52.679-37.566 81.1-51.236 20.104-9.751 41.627-14.523 63.055-18.912 12.62-2.582 26.172-4.782 37.94 2.47 10.714 6.601 18.137 19.339 27.761 28.154 18.899 17.325 43.825 16.136 66.628 14.058a3952.026 3952.026 0 01202.389-13.093c56.001-2.176 112.492-3.138 168.565 3.736" stroke="#CECED0"/><path opacity=".5" d="M-449.854 180.031C-361.598 38.222-222.954-42.431-83.04-32.64c12.499.89 26.662 3.827 34.331 17.199 3.505 6.105 5.148 13.398 6.599 20.624 2.952 15.052 5.517 31.28 8.943 46.855 10.211 46.489 28.189 85.608 59.093 108.919 27.144 20.48 60.144 16.208 87.738 1.959 27.594-14.248 52.426-36.702 80.673-50.071 19.973-9.533 41.335-14.206 62.602-18.51 12.522-2.535 25.964-4.687 37.659 2.402 10.664 6.464 18.12 18.912 27.718 27.547 18.823 16.928 43.521 15.735 66.156 13.655a4171.716 4171.716 0 01200.723-13.49c55.524-2.383 111.578-3.629 167.173 3.42" stroke="#CACACC"/><path opacity=".5" d="M-449.413 185.348C-360.555 43.793-221.542-36.498-81.331-26.494c12.54.914 26.723 3.85 34.515 17.146C-43.253-3.274-41.511 3.992-40 11.22c3.137 15.019 5.799 31.266 9.37 46.818 10.665 46.449 29.295 85.018 60.421 108.159 27.022 20.08 59.682 16.033 87.101 2.146 27.594-13.973 52.172-35.831 80.253-48.906 19.84-9.323 41.042-13.89 62.147-18.115 12.432-2.482 25.756-4.592 37.379 2.334 10.614 6.327 18.103 18.49 27.674 26.933 18.742 16.538 43.218 15.34 65.677 13.253a4434.21 4434.21 0 01199.058-13.887c55.045-2.591 110.663-4.128 165.782 3.11" stroke="#C5C6C8"/><path opacity=".5" d="M-448.978 190.667C-359.504 49.362-220.123-30.559-79.622-20.34c12.59.937 26.793 3.872 34.7 17.092 3.621 6.05 5.442 13.29 7.027 20.513 3.29 15 6.08 31.26 9.796 46.78 11.112 46.404 30.394 84.437 61.756 107.4 26.886 19.686 59.22 15.864 86.471 2.339 27.431-13.62 51.925-34.969 79.833-47.736 19.708-9.112 40.749-13.574 61.699-17.714 12.335-2.434 25.549-4.496 37.093 2.268 10.571 6.189 18.086 18.068 27.623 26.319 18.66 16.141 42.915 14.946 65.206 12.851a4745.441 4745.441 0 01197.385-14.285c54.574-2.798 109.741-4.619 164.397 2.8" stroke="#C1C2C4"/><path opacity=".5" d="M-448.543 195.986c90.082-141.053 229.832-220.611 370.63-210.18 12.638.954 26.854 3.895 34.884 17.04 3.673 6.026 5.586 13.238 7.244 20.45 3.45 14.976 6.367 31.252 10.23 46.742 11.564 46.365 31.499 83.847 63.09 106.633 26.757 19.299 58.759 15.696 85.833 2.525 27.275-13.265 51.696-34.039 79.413-46.571 19.592-8.855 40.456-13.257 61.245-17.312 12.244-2.381 25.334-4.4 36.813 2.201 10.52 6.052 18.069 17.646 27.579 25.704 18.577 15.744 42.611 14.552 64.734 12.449a5117.384 5117.384 0 01195.719-14.683c54.096-3.005 108.826-5.116 163.005 2.484" stroke="#BDBEC1"/><path opacity=".5" d="M-448.101 201.303C-357.417 60.509-217.299-18.686-76.197-8.047c12.686.976 26.923 3.916 35.061 16.992 3.732 5.995 5.724 13.189 7.462 20.394 3.608 14.951 6.648 31.239 10.656 46.699C-11 122.357 9.573 159.303 41.4 181.91c26.622 18.906 58.297 15.528 85.196 2.719 27.112-12.912 51.444-33.169 78.994-45.4 19.46-8.638 40.163-12.948 60.79-16.91 12.148-2.335 25.126-4.305 36.533 2.133 10.477 5.914 18.052 17.218 27.536 25.09 18.495 15.354 42.314 14.156 64.255 12.046a5552.618 5552.618 0 01194.053-15.079c53.618-3.213 107.912-5.615 161.614 2.174" stroke="#B9BABD"/><path opacity=".5" d="M-447.666 206.622C-356.373 66.08-215.886-12.746-74.488-1.893c12.736 1 26.985 3.931 35.246 16.938 3.79 5.971 5.868 13.139 7.68 20.338 3.76 14.927 6.93 31.233 11.089 46.661 12.471 46.28 33.69 82.684 65.753 105.113 26.48 18.521 57.835 15.353 84.558 2.912 26.724-12.44 51.191-32.297 78.575-44.235 19.327-8.427 39.87-12.632 60.336-16.508 12.057-2.281 24.918-4.21 36.246 2.066 10.427 5.777 18.035 16.797 27.491 24.476 18.414 14.957 42.01 13.755 63.784 11.644a6111.446 6111.446 0 01192.387-15.477c53.147-3.421 106.997-6.107 160.222 1.857" stroke="#B5B6B9"/><path opacity=".5" d="M-447.224 211.94C-355.329 71.65-214.474-6.813-72.778 4.253c12.777 1.017 27.053 3.954 35.43 16.885 3.848 5.947 6.004 13.088 7.896 20.283 3.92 14.902 7.21 31.218 11.516 46.623 12.925 46.234 34.784 82.102 67.087 104.346 26.34 18.141 57.374 15.185 83.922 3.099 26.794-12.197 50.944-31.428 78.155-43.064 19.202-8.21 39.577-12.315 59.888-16.107 11.96-2.234 24.71-4.114 35.966 1.999 10.383 5.632 18.018 16.375 27.448 23.868 18.331 14.56 41.706 13.361 63.311 11.242a6793.375 6793.375 0 01190.715-15.874c52.669-3.629 106.082-6.605 158.831 1.547" stroke="#B1B1B5"/><path opacity=".5" d="M-446.789 217.258C-354.279 77.22-213.062-.873-71.069 10.4c12.825 1.04 27.115 3.976 35.607 16.832 3.907 5.916 6.149 13.038 8.113 20.22 4.073 14.878 7.493 31.212 11.95 46.58 13.378 46.194 35.869 81.519 68.415 103.585 26.198 17.762 56.918 15.016 83.284 3.292 26.366-11.723 50.691-30.557 77.735-41.899 19.07-7.999 39.285-11.999 59.434-15.706 11.87-2.18 24.502-4.018 35.686 1.932 10.333 5.495 17.995 15.948 27.404 23.254 18.249 14.17 41.403 12.967 62.833 10.84a7718.469 7718.469 0 01189.048-16.272c52.192-3.835 105.162-7.102 157.44 1.232" stroke="#ADADB1"/><path opacity=".5" d="M-446.354 222.577C-353.235 82.79-211.65 5.06-69.36 16.553c12.874 1.064 27.184 3.999 35.792 16.786 3.965 5.891 6.286 12.987 8.33 20.164 4.233 14.853 7.78 31.198 12.377 46.542C.971 146.2 24.101 180.99 56.889 202.864c26.05 17.383 56.456 14.848 82.652 3.478 26.471-11.482 50.439-29.686 77.316-40.728 18.938-7.782 38.992-11.683 58.98-15.304 11.779-2.133 24.294-3.923 35.399 1.866 10.29 5.357 17.978 15.525 27.36 22.639 18.167 13.773 41.1 12.572 62.361 10.437a8943.062 8943.062 0 01187.383-16.669c51.72-4.043 104.247-7.594 156.055.921" stroke="#A9A9AD"/><path opacity=".5" d="M-445.912 227.895C-352.191 88.367-210.231 10.999-67.651 22.7c12.923 1.08 27.253 4.014 35.976 16.732C-27.65 45.3-25.25 52.37-23.126 59.54c4.385 14.829 8.06 31.191 12.803 46.505 14.284 46.109 38.041 80.371 71.077 102.059 25.902 17.005 55.995 14.68 82.016 3.672 26.314-11.129 50.185-28.816 76.896-39.564 18.806-7.564 38.699-11.366 58.531-14.909 11.682-2.079 24.086-3.828 35.12 1.798 10.239 5.22 17.961 15.104 27.309 22.025 18.085 13.384 40.796 12.178 61.883 10.036a10828.259 10828.259 0 01185.709-17.066c51.242-4.251 103.332-8.093 154.664.605" stroke="#A4A5A9"/><path opacity=".5" d="M-445.478 233.214C-351.148 93.937-208.82 16.933-65.935 28.847c12.964 1.104 27.314 4.035 36.153 16.679 4.082 5.835 6.567 12.88 8.765 20.045 4.544 14.804 8.343 31.185 13.237 46.467 14.738 46.07 39.127 79.796 72.412 101.299 25.747 16.633 55.533 14.511 81.378 3.859 26.152-10.776 49.939-27.946 76.477-38.393 18.673-7.353 38.399-11.056 58.077-14.508 11.591-2.032 23.878-3.732 34.839 1.732 10.196 5.081 17.938 14.682 27.265 21.41 17.997 12.987 40.493 11.777 61.411 9.633a13656.355 13656.355 0 01184.044-17.463c50.764-4.458 102.418-8.584 153.272.295" stroke="#A0A1A5"/><path opacity=".5" d="M-445.043 238.532C-350.104 99.507-207.407 22.872-64.226 35c13.013 1.127 27.383 4.057 36.338 16.632 4.141 5.811 6.704 12.83 8.983 19.99 4.697 14.779 8.63 31.17 13.663 46.422 15.198 46.024 40.207 79.223 73.746 100.533 25.593 16.261 55.071 14.336 80.741 4.052 25.996-10.416 49.686-27.076 76.057-37.229 18.541-7.135 38.107-10.74 57.622-14.105 11.495-1.979 23.671-3.637 34.553 1.664 10.153 4.944 17.921 14.254 27.221 20.796 17.916 12.597 40.189 11.383 60.94 9.231a18901.411 18901.411 0 01182.377-17.861c50.293-4.666 101.503-9.082 151.881-.021" stroke="#9C9DA1"/><path opacity=".5" d="M-444.602 243.85C-349.061 105.077-205.996 28.805-62.517 41.146c13.061 1.145 27.452 4.08 36.522 16.58 4.2 5.786 6.848 12.778 9.2 19.933 4.856 14.754 8.912 31.164 14.096 46.385 15.652 45.985 41.288 78.655 75.075 99.773 25.44 15.896 54.616 14.167 80.104 4.245 25.834-10.061 49.433-26.205 75.637-36.064 18.408-6.925 37.814-10.424 57.174-13.705 11.405-1.931 23.47-3.541 34.274 1.598 10.101 4.8 17.896 13.833 27.176 20.182 17.827 12.2 39.886 10.988 60.461 8.828a30888.353 30888.353 0 01180.705-18.257c49.815-4.881 100.582-9.581 150.49-.331" stroke="#98999D"/><path opacity=".5" d="M-444.167 249.162C-348.01 110.654-204.583 34.745-60.807 47.3c13.11 1.168 27.52 4.095 36.705 16.526 4.258 5.756 6.986 12.729 9.418 19.87 5.008 14.731 9.199 31.151 14.523 46.348 16.111 45.939 42.361 78.095 76.409 99.013 25.279 15.532 54.154 13.999 79.473 4.431 25.678-9.707 49.18-25.334 75.218-34.893 18.276-6.707 37.521-10.107 56.72-13.302 11.308-1.878 23.261-3.446 33.993 1.53 10.059 4.662 17.88 13.411 27.133 19.574 17.738 11.811 39.583 10.594 59.989 8.426a95811.84 95811.84 0 01179.04-18.655c49.336-5.087 99.667-10.072 149.097-.647" stroke="#94959A"/><path opacity=".5" d="M-443.731 254.481C-346.966 116.224-203.17 40.685-59.098 53.447c13.152 1.192 27.582 4.117 36.883 16.472 4.317 5.732 7.124 12.68 9.635 19.816 5.162 14.706 9.48 31.143 14.956 46.303 16.565 45.899 43.435 77.528 77.737 98.246 25.119 15.168 53.692 13.831 78.836 4.625 25.144-9.207 48.927-24.464 74.791-33.728 18.144-6.496 37.229-9.791 56.266-12.901 11.217-1.831 23.054-3.351 33.706 1.457 10.015 4.524 17.857 12.99 27.089 18.96 17.657 11.42 39.286 10.198 59.518 8.023a87187.641 87187.641 0 00177.373-19.052c48.865-5.296 98.752-10.57 147.713-.958" stroke="#909196"/><path opacity=".5" d="M-443.29 259.799C-345.922 121.794-201.752 46.618-57.389 59.594c13.2 1.208 27.65 4.139 37.068 16.425 4.375 5.707 7.267 12.629 9.852 19.76 5.321 14.687 9.762 31.13 15.383 46.266 17.025 45.852 44.502 76.967 79.071 97.485 24.96 14.811 53.231 13.663 78.199 4.812 25.36-8.994 48.674-23.6 74.372-32.557 18.012-6.279 36.935-9.474 55.818-12.499 11.127-1.778 22.845-3.263 33.426 1.389 9.972 4.386 17.833 12.569 27.045 18.346 17.568 11.024 38.982 9.797 59.039 7.621a29103.417 29103.417 0 00175.708-19.443c48.387-5.503 97.837-11.068 146.321-1.267" stroke="#8C8D92"/><path opacity=".5" d="M-442.855 265.117C-344.879 127.364-200.34 52.551-55.673 65.74c13.248 1.231 27.72 4.16 37.252 16.372 4.427 5.677 7.404 12.578 10.063 19.704 5.474 14.663 10.05 31.122 15.81 46.228 17.478 45.814 45.57 76.415 80.405 96.726 24.793 14.453 52.776 13.494 77.562 5.005 25.198-8.633 48.421-22.729 73.952-31.393 17.879-6.067 36.642-9.164 55.363-12.104 11.03-1.73 22.637-3.167 33.146 1.322 9.928 4.242 17.816 12.141 26.995 17.732 17.479 10.634 38.678 9.403 58.567 7.219a16988.51 16988.51 0 00174.035-19.84c47.909-5.71 96.923-11.56 144.93-1.584" stroke="#88898E"/><path opacity=".5" d="M-442.42 270.435C-343.836 132.934-198.928 58.49-53.97 71.894c13.297 1.255 27.787 4.176 37.429 16.319 4.485 5.652 7.542 12.528 10.28 19.641 5.633 14.639 10.33 31.11 16.243 46.191 17.938 45.767 46.637 75.862 81.733 95.959 24.627 14.103 52.314 13.326 76.924 5.192 24.61-8.135 48.175-21.859 73.533-30.222 17.747-5.85 36.35-8.848 54.909-11.702 10.939-1.677 22.436-3.072 32.859 1.255 9.878 4.105 17.792 11.72 26.951 17.118 17.391 10.244 38.374 9.009 58.095 6.816 57.675-6.35 115.227-13.1 172.369-20.237 47.438-5.918 96.001-12.058 143.539-1.894" stroke="#84858A"/><path opacity=".5" d="M-441.978 275.754C-342.785 138.504-197.515 64.431-52.255 78.04c13.346 1.272 27.857 4.198 37.614 16.272 4.544 5.622 7.686 12.478 10.497 19.586C1.642 128.512 6.475 145 12.526 160.045c18.398 45.721 47.698 75.309 83.068 95.199 24.454 13.752 51.853 13.157 76.294 5.384 24.886-7.919 47.921-20.988 73.112-29.057 17.615-5.639 36.057-8.532 54.455-11.3 10.842-1.63 22.227-2.983 32.579 1.188 9.834 3.967 17.769 11.298 26.907 16.503 17.302 9.855 38.071 8.614 57.617 6.414a9122.355 9122.355 0 00170.703-20.634c46.96-6.126 95.086-12.556 142.147-2.21" stroke="#7F8086"/><path opacity=".5" d="M-441.543 281.072c99.802-136.997 245.44-210.708 390.998-196.885 13.387 1.296 27.924 4.22 37.797 16.219 4.603 5.597 7.824 12.427 10.715 19.53 5.938 14.589 10.9 31.088 17.104 46.109 18.857 45.681 48.759 74.763 84.402 94.432 24.288 13.402 51.398 12.995 75.656 5.577 24.258-7.417 47.668-20.117 72.694-27.885 17.482-5.428 35.764-8.216 54.006-10.9 10.752-1.576 22.02-2.887 32.3 1.122 10.28 4.008 17.745 10.877 26.862 15.888 17.208 9.466 37.768 8.22 57.145 6.012a7312.617 7312.617 0 00169.031-21.032c46.482-6.333 94.172-13.047 140.756-2.519" stroke="#7B7C82"/><path opacity=".5" d="M-441.108 286.391C-340.704 149.652-194.691 76.303-48.836 90.341c13.436 1.318 27.986 4.235 37.975 16.165 4.661 5.573 7.967 12.377 10.932 19.467 6.098 14.565 11.187 31.082 17.53 46.072 19.31 45.635 49.822 74.224 85.73 93.673 24.116 13.058 50.936 12.827 75.019 5.764 24.569-7.205 47.415-19.254 72.274-26.721 17.35-5.211 35.471-7.9 53.552-10.498 10.655-1.529 21.818-2.793 32.013 1.054 10.195 3.847 17.722 10.456 26.819 15.281 17.119 9.076 37.464 7.819 56.673 5.61a6086.504 6086.504 0 00167.365-21.43c46.004-6.54 93.257-13.545 139.37-2.836" stroke="#77787E"/><path opacity=".5" d="M-440.667 291.709C-339.654 155.222-193.273 82.236-47.121 96.486c13.484 1.336 28.055 4.258 38.16 16.113 4.725 5.541 8.104 12.327 11.149 19.411 6.25 14.541 11.475 31.068 17.956 46.028 19.77 45.589 50.877 73.685 87.065 92.912 23.944 12.715 50.481 12.659 74.382 5.958 23.9-6.701 47.162-18.383 71.854-25.55 17.218-5 35.179-7.583 53.098-10.096 10.565-1.476 21.61-2.704 31.733.987 9.703 3.54 17.705 10.034 26.774 14.667 17.025 8.687 37.161 7.424 56.195 5.207 55.504-6.409 110.837-13.685 165.699-21.827 45.533-6.748 92.336-14.036 137.98-3.146" stroke="#73747A"/><path opacity=".5" d="M-440.232 297.027C-338.61 160.792-191.86 88.176-45.412 102.633c13.533 1.359 28.124 4.273 38.345 16.066 4.784 5.517 8.242 12.276 11.366 19.355 6.403 14.517 11.757 31.061 18.39 45.99 20.23 45.549 51.933 73.153 88.392 92.146 23.765 12.379 50.02 12.49 73.745 6.144 24.251-6.484 46.908-17.512 71.434-24.385 17.085-4.789 34.886-7.267 52.65-9.695 10.468-1.428 21.409-2.609 31.453.92 10.045 3.529 17.682 9.613 26.724 14.053 16.937 8.304 36.857 7.03 55.723 4.805a4465.993 4465.993 0 00164.033-22.224c45.055-6.955 91.421-14.535 136.588-3.463" stroke="#6F7076"/><path opacity=".5" d="M-439.797 302.346c102.23-135.984 249.341-208.237 396.088-193.559 13.575 1.383 28.192 4.295 38.528 16.012 4.842 5.486 8.385 12.22 11.584 19.3 6.563 14.498 12.044 31.047 18.817 45.952 20.69 45.503 52.982 72.628 89.727 91.386 23.586 12.043 49.558 12.329 73.113 6.337 24.096-6.124 46.656-16.648 71.015-23.221 16.953-4.571 34.593-6.957 52.196-9.293 10.377-1.375 21.2-2.52 31.166.854 9.966 3.373 17.659 9.198 26.68 13.438 16.841 7.915 36.554 6.636 55.251 4.402 54.421-6.432 108.648-13.977 162.361-22.621 44.577-7.162 90.506-15.033 135.196-3.772" stroke="#6B6C73"/><path opacity=".5" d="M-439.355 307.664c102.839-135.726 250.319-207.615 397.362-192.731 13.623 1.4 28.26 4.317 38.706 15.959 4.9 5.462 8.522 12.17 11.8 19.238 6.716 14.473 12.326 31.04 19.251 45.914 21.157 45.456 54.032 72.103 91.062 90.626 23.408 11.713 49.103 12.16 72.476 6.524 23.373-5.636 46.402-15.778 70.595-22.05 16.82-4.361 34.3-6.641 51.741-8.898 10.287-1.328 20.999-2.432 30.886.786 9.888 3.218 17.629 8.778 26.636 12.824 16.754 7.532 36.257 6.241 54.774 4.007 53.876-6.447 107.55-14.127 160.694-23.018 44.106-7.371 89.592-15.525 133.805-4.089" stroke="#67686F"/><path opacity=".5" d="M-438.921 312.982c103.448-135.473 251.297-206.993 398.637-191.895 13.672 1.423 28.329 4.332 38.89 15.906 4.959 5.43 8.66 12.119 12.018 19.181 6.868 14.449 12.613 31.026 19.677 45.871 21.616 45.409 55.075 71.585 92.389 89.859 23.23 11.377 48.641 11.991 71.839 6.717 23.197-5.274 46.149-14.914 70.175-20.885 16.688-4.15 34.008-6.325 51.294-8.497 10.189-1.274 20.79-2.336 30.606.719 9.528 2.969 17.605 8.357 26.592 12.21 16.658 7.142 35.953 5.846 54.301 3.604 53.339-6.461 106.453-14.27 159.029-23.415 43.628-7.578 88.677-16.023 132.42-4.399" stroke="#63646B"/><path opacity=".5" d="M-438.486 318.301c104.05-135.221 252.273-206.379 399.911-191.067 13.72 1.446 28.398 4.354 39.074 15.859 5.018 5.406 8.798 12.069 12.236 19.125 7.02 14.425 12.901 31.019 20.11 45.833 22.077 45.37 56.125 71.067 93.724 89.099 23.053 11.054 48.187 11.829 71.202 6.91 23.623-5.049 45.896-14.043 69.756-19.714 16.556-3.932 33.715-6.008 50.839-8.095 10.099-1.227 20.589-2.248 30.32.652 9.484 2.831 17.581 7.943 26.547 11.596 16.564 6.76 35.65 5.445 53.824 3.202 52.793-6.476 105.354-14.419 157.355-23.812 43.15-7.786 87.756-16.521 131.029-4.715" stroke="#5F6067"/><path opacity=".5" d="M-438.044 323.619c104.658-134.97 253.251-205.758 401.185-190.239 13.768 1.463 28.466 4.369 39.251 15.806 5.077 5.382 8.942 12.018 12.453 19.063 7.18 14.4 13.182 31.005 20.537 45.795 22.537 45.324 57.163 70.563 95.052 88.333 22.868 10.731 47.725 11.661 70.564 7.097 22.839-4.564 45.642-13.179 69.336-18.55 16.423-3.721 33.422-5.691 50.385-7.693 10.002-1.173 20.38-2.159 30.04.585 9.659 2.744 17.558 7.521 26.504 10.988 16.469 6.377 35.346 5.051 53.351 2.8 52.249-6.491 104.257-14.563 155.69-24.21 42.679-7.993 86.841-17.013 129.637-5.025" stroke="#5A5C63"/><path opacity=".5" d="M-437.608 328.937c105.267-134.711 254.22-205.142 402.46-189.404 13.81 1.487 28.534 4.392 39.435 15.753 5.135 5.351 9.079 11.968 12.67 19.007 7.332 14.375 13.47 30.998 20.963 45.752 23.003 45.276 58.207 70.058 96.386 87.572 22.685 10.409 47.271 11.499 69.928 7.29 22.656-4.208 45.389-12.309 68.91-17.378 16.291-3.51 33.129-5.375 49.937-7.292 9.911-1.126 20.179-2.071 29.76.518 9.403 2.541 17.535 7.107 26.46 10.373 16.374 5.995 35.042 4.657 52.879 2.398 51.711-6.506 103.166-14.712 154.024-24.608 42.201-8.2 85.926-17.51 128.246-5.334" stroke="#56585F"/><path opacity=".5" d="M-437.174 334.256c105.876-134.459 255.198-204.521 403.727-188.575 13.859 1.51 28.602 4.406 39.62 15.705 5.193 5.327 9.216 11.919 12.888 18.952 7.484 14.351 13.757 30.984 21.396 45.714 23.463 45.23 59.245 69.561 97.721 86.812 22.5 10.086 46.809 11.33 69.296 7.476 23.15-3.968 45.136-11.445 68.491-16.213 16.158-3.3 32.836-5.066 49.482-6.89 9.815-1.073 19.977-1.983 29.473.451 9.496 2.433 17.505 6.685 26.41 9.759 16.28 5.612 34.739 4.262 52.401 1.996 51.167-6.515 102.069-14.856 152.358-25.005 41.723-8.408 85.012-18.003 126.854-5.651" stroke="#52545B"/><path opacity=".5" d="M-436.732 339.574c106.484-134.208 256.175-203.9 405-187.747 13.908 1.527 28.672 4.429 39.805 15.652 5.252 5.296 9.36 11.868 13.098 18.889 7.638 14.334 14.039 30.978 21.824 45.677 23.922 45.184 60.283 69.071 99.048 86.046 22.316 9.77 46.354 11.168 68.659 7.67 22.995-3.609 44.882-10.581 68.071-15.043 16.026-3.088 32.543-4.749 49.028-6.488 9.724-1.026 19.769-1.894 29.193.384 9.425 2.278 17.482 6.271 26.365 9.145 16.187 5.236 34.436 3.867 51.93 1.593 50.622-6.529 100.971-15.005 150.685-25.402 41.252-8.616 84.097-18.5 125.463-5.961" stroke="#4E4F57"/><path opacity=".5" d="M-436.297 344.892C-329.204 210.936-179.145 141.607-30.022 157.98c13.956 1.551 28.74 4.444 39.982 15.6 5.31 5.271 9.485 11.825 13.316 18.833 7.764 14.324 14.326 30.964 22.257 45.639 24.388 45.137 61.315 68.587 100.382 85.285 22.134 9.462 45.894 11.007 68.022 7.857 22.833-3.248 44.63-9.711 67.651-13.878 15.894-2.878 32.251-4.433 48.574-6.087 9.628-.972 19.567-1.805 28.907.317 9.339 2.123 17.459 5.857 26.321 8.531 16.085 4.854 34.132 3.466 51.457 1.191 50.085-6.544 99.874-15.148 149.019-25.8 40.774-8.823 83.176-18.998 124.079-6.277" stroke="#4A4B53"/><path opacity=".5" d="M-435.862 350.211c107.696-133.697 258.13-202.664 407.55-186.084 13.998 1.574 28.808 4.466 40.165 15.546 5.369 5.24 9.622 11.775 13.533 18.777C33.31 212.75 40 229.4 48.07 244.045c24.848 45.091 62.349 68.11 101.717 84.525 21.95 9.153 45.432 10.839 67.385 8.05 21.953-2.788 44.376-8.846 67.232-12.706 15.761-2.667 31.957-4.117 48.125-5.693 9.537-.925 19.366-1.717 28.627.251 9.227 1.962 17.429 5.442 26.277 7.916 15.991 4.478 33.829 3.072 50.979.788 49.54-6.558 98.776-15.297 147.354-26.19 40.296-9.03 82.261-19.489 122.687-6.587" stroke="#46474F"/><path opacity=".5" d="M-435.421 355.529C-327.116 222.084-176.314 153.48-26.596 170.28c14.046 1.591 28.876 4.481 40.35 15.499 5.427 5.216 9.759 11.725 13.75 18.722 8.077 14.275 14.902 30.942 23.117 45.557 25.315 45.043 63.376 67.64 103.045 83.759 21.76 8.844 44.977 10.676 66.748 8.243 22.522-2.521 44.122-7.983 66.812-11.542 15.622-2.449 31.665-3.801 47.671-5.291 9.447-.872 19.157-1.628 28.346.183 9.19 1.811 17.407 5.028 26.234 7.309 15.897 4.102 33.525 2.677 50.507.386 48.995-6.573 97.678-15.44 145.681-26.587 39.825-9.239 81.347-19.988 121.295-6.904" stroke="#42434C"/><path opacity=".5" d="M-434.985 360.847c108.913-133.193 260.077-201.427 410.098-184.42 14.095 1.614 28.945 4.503 40.528 15.446 5.485 5.184 9.903 11.674 13.967 18.659 8.23 14.251 15.183 30.929 23.544 45.519 25.781 44.997 64.409 67.178 104.38 82.999 21.577 8.542 44.515 10.515 66.116 8.43 22.36-2.16 43.869-7.119 66.392-10.378 15.49-2.238 31.372-3.484 47.217-4.889 9.35-.824 18.955-1.547 28.06.116s17.383 4.614 26.19 6.694c15.803 3.727 33.228 2.283 50.035-.016 48.457-6.588 96.58-15.589 144.015-26.984 39.347-9.446 80.432-20.486 119.904-7.213" stroke="#3E3F48"/><path opacity=".5" d="M-434.543 366.166c109.521-132.942 261.054-200.807 411.365-183.592 14.143 1.637 29.013 4.518 40.712 15.392 5.55 5.16 10.04 11.624 14.185 18.603 8.388 14.226 15.47 30.916 23.97 45.476 26.24 44.95 65.436 66.721 105.707 82.239 21.388 8.24 44.062 10.353 65.48 8.623 22.205-1.793 43.616-6.248 65.973-9.207 15.356-2.034 31.079-3.174 46.769-4.487 9.259-.771 18.753-1.459 27.78.049 9.027 1.507 17.353 4.199 26.145 6.079 15.703 3.359 32.925 1.889 49.557-.418 47.913-6.596 95.49-15.732 142.349-27.382 38.869-9.653 79.511-20.977 118.513-7.529" stroke="#393B44"/><path opacity=".5" d="M-434.109 371.484c110.131-132.683 262.032-200.192 412.64-182.757 14.192 1.654 29.082 4.534 40.896 15.339 5.609 5.129 10.184 11.574 14.402 18.547 8.542 14.209 15.759 30.909 24.404 45.438 26.707 44.904 66.459 66.279 107.042 81.472 21.205 7.938 43.6 10.192 64.842 8.81 22.05-1.433 43.362-5.384 65.553-8.042 15.224-1.823 30.786-2.858 46.314-4.086 9.162-.724 18.544-1.376 27.5-.018 8.956 1.358 17.331 3.792 26.095 5.466 15.609 2.982 32.621 1.487 49.085-.821 47.369-6.611 94.392-15.882 140.677-27.779 38.398-9.861 78.596-21.475 117.121-7.839" stroke="#353740"/><path opacity=".5" d="M-433.674 376.802C-322.935 244.37-170.665 177.232-19.76 194.874c14.234 1.677 29.15 4.555 41.074 15.292 5.667 5.105 10.322 11.524 14.619 18.485 8.7 14.184 16.046 30.894 24.83 45.401 27.174 44.85 67.488 65.835 108.377 80.711 21.016 7.643 43.146 10.03 64.205 9.003 21.888-1.065 43.109-4.52 65.133-6.871 15.092-1.612 30.494-2.542 45.861-3.683 9.072-.671 18.342-1.289 27.213-.085 9.013 1.219 17.301 3.377 26.051 4.851 15.515 2.613 32.317 1.093 48.613-1.223 46.831-6.626 93.295-16.025 139.011-28.176 37.92-10.069 77.681-21.967 115.736-8.157" stroke="#31333C"/><path opacity=".5" d="M-433.232 382.121c111.341-132.18 263.986-198.956 415.188-181.101 14.282 1.702 29.225 4.57 41.258 15.239 5.725 5.074 10.459 11.474 14.837 18.429 8.853 14.159 16.359 30.865 25.264 45.363 27.723 44.75 68.51 65.407 109.704 79.946 20.827 7.353 42.684 9.867 63.567 9.189 21.733-.705 42.855-3.656 64.714-5.706 14.958-1.402 30.2-2.226 45.412-3.283 8.975-.623 18.14-1.206 26.934-.152 8.793 1.054 17.278 2.97 26.006 4.237 15.422 2.244 32.014.699 48.135-1.625a1118.828 1118.828 0 00137.345-28.574c37.442-10.276 76.766-22.465 114.345-8.466" stroke="#2D2F38"/><path opacity=".5" d="M-432.797 387.439c111.949-131.928 264.956-198.334 416.463-180.266 14.33 1.718 29.311 4.564 41.441 15.186 5.797 5.035 10.604 11.423 15.054 18.373 9.007 14.135 16.641 30.858 25.69 45.319 28.177 44.704 69.534 64.984 111.039 79.185 20.646 7.065 42.224 9.706 62.937 9.383 21.572-.339 42.602-2.793 64.295-4.536 14.826-1.19 29.908-1.909 44.958-2.881 8.884-.569 17.932-1.117 26.653-.219 8.932.924 17.256 2.555 25.963 3.623 15.321 1.875 31.711.304 47.663-2.028a1051.373 1051.373 0 00135.679-28.971c36.97-10.483 75.851-22.963 112.953-8.782" stroke="#292B34"/><path opacity=".5" d="M-432.362 392.758c112.558-131.677 265.933-197.72 417.73-179.437 14.38 1.741 29.38 4.586 41.626 15.139 5.856 5.01 10.741 11.372 15.272 18.31 9.165 14.11 16.928 30.845 26.124 45.281 28.636 44.665 70.55 64.569 112.366 78.426 20.458 6.776 41.769 9.544 62.3 9.576 20.531.031 42.348-1.935 63.874-3.371 14.694-.98 29.616-1.593 44.504-2.486 8.794-.523 17.73-1.036 26.367-.286s17.226 2.148 25.919 3.015c15.228 1.513 31.407-.09 47.191-2.43a990.36 990.36 0 00134.006-29.368c36.493-10.691 74.931-23.455 111.562-9.092" stroke="#252730"/><path opacity=".5" d="M-431.921 398.075C-318.754 266.658-165.01 200.977-12.916 219.473c14.42 1.766 29.448 4.602 41.803 15.086 5.914 4.98 10.878 11.323 15.489 18.255 9.318 14.086 17.21 30.831 26.55 45.244 29.09 44.618 71.576 64.166 113.701 77.658 20.27 6.495 41.308 9.39 61.662 9.763 21.262.395 42.095-1.071 63.456-2.2 14.561-.769 29.322-1.283 44.055-2.084 8.698-.469 17.528-.955 26.087-.353 8.843.621 17.204 1.74 25.875 2.4 15.135 1.144 31.104-.491 46.713-2.832a933.028 933.028 0 00132.34-29.765c36.015-10.899 74.016-23.953 110.171-9.402" stroke="#21232C"/><path opacity=".5" d="M-431.486 403.394C-317.71 272.228-163.598 206.918-11.207 225.621c14.47 1.782 29.51 4.623 41.988 15.032 5.965 4.956 11.022 11.272 15.706 18.199 9.478 14.067 17.497 30.824 26.977 45.2 29.549 44.572 72.594 63.771 115.035 76.898 20.089 6.212 40.847 9.228 61.025 9.956 20.179.728 41.842-.207 63.036-1.035 14.428-.565 29.029-.967 43.601-1.683 8.607-.422 17.319-.873 25.807-.42 8.488.452 17.182 1.339 25.831 1.786 15.048.78 30.8-.886 46.241-3.235a880.317 880.317 0 00130.674-30.163c35.537-11.105 73.101-24.451 108.779-9.718" stroke="#1D1E28"/></g></g><defs><clipPath id="clip0_2174_2102"><path fill="#fff" d="M0 0h533v148H0z"/></clipPath><clipPath id="clip1_2174_2102"><path fill="#fff" transform="rotate(-4.101 -1476.686 6519.9)" d="M0 0h1232v579H0z"/></clipPath></defs></svg>