<svg width="305" height="216" fill="none" xmlns="http://www.w3.org/2000/svg"><g clip-path="url(#clip0_2174_2101)"><g clip-path="url(#clip1_2174_2101)" stroke-width=".5" stroke-miterlimit="10"><path opacity=".5" d="M-150.748 229.521C-120.258 109.658-39.882 22.722 59.576 2.041 68.268.234 78.88-.289 86.012 8.874c3.214 4.127 5.066 9.503 6.768 14.703 14.125 43.023 30.343 93.835 64.014 111.327 25.472 13.232 51.202.762 69.149-18.55 17.947-19.313 31.092-45.154 49.773-63.366 13.313-12.977 29.093-21.747 44.902-30.074 9.304-4.899 19.572-9.725 30.425-5.462 9.708 3.808 17.846 14.142 27.138 20.26 18.478 12.16 38.183 6.076 55.732-.069 95.58-33.463 193.745-59.447 293.861-77.78" stroke="#fff"/><path opacity=".5" d="M-149.427 233.274C-118.45 113.477-37.739 26.739 61.975 6.154c8.725-1.8 19.35-2.323 26.557 6.762 3.25 4.093 5.156 9.44 6.915 14.622 3.686 10.853 7.495 22.24 11.693 33.42 12.397 32.98 28.191 64.09 53.441 76.997 25.25 12.908 50.838.734 68.726-18.289 17.898-19.022 31.074-44.478 49.692-62.442 13.257-12.8 28.941-21.464 44.65-29.698 9.243-4.846 19.441-9.617 30.211-5.458 9.65 3.717 17.751 13.848 26.989 19.825 18.343 11.9 37.89 5.85 55.316-.27a1991.471 1991.471 0 01157.552-48.08c44.184-11.514 88.84-21.533 133.966-29.629" stroke="#FBFBFB"/><path opacity=".5" d="M-148.102 237.026C-116.643 117.297-35.591 30.754 64.371 10.265c8.764-1.793 19.405-2.321 26.682 6.692 3.288 4.065 5.245 9.379 7.06 14.54 3.792 10.807 7.696 22.177 11.994 33.313 12.715 32.86 28.894 63.444 54.259 76.192 25.18 12.657 50.473.699 68.301-18.034 17.853-18.738 31.057-43.802 49.61-61.523 13.201-12.623 28.79-21.18 44.403-29.324 9.188-4.79 19.307-9.513 29.996-5.454 9.591 3.622 17.654 13.549 26.837 19.393 18.206 11.64 37.595 5.618 54.899-.47A2044.822 2044.822 0 01594.687-2.464c43.805-11.575 88.087-21.714 132.904-29.588" stroke="#F7F7F7"/><path opacity=".5" d="M-146.782 240.78C-114.835 121.122-33.45 34.766 66.767 14.374c8.804-1.785 19.457-2.323 26.8 6.62 3.324 4.032 5.339 9.316 7.205 14.455 3.902 10.759 7.9 22.112 12.293 33.2 13.039 32.745 29.598 62.804 55.077 75.391 25.035 12.369 50.113.664 67.878-17.774 17.804-18.447 31.038-43.131 49.529-60.599 13.148-12.44 28.639-20.896 44.152-28.948 9.127-4.738 19.178-9.411 29.777-5.447 9.527 3.527 17.563 13.252 26.688 18.957 18.069 11.377 37.302 5.391 54.478-.67 51.028-18 102.731-34.02 154.999-48.024 43.42-11.633 87.332-21.9 131.84-29.552" stroke="#F3F3F3"/><path opacity=".5" d="M-145.461 244.533C-113.023 124.94-31.307 38.783 69.165 18.489c8.842-1.783 19.51-2.32 26.922 6.547 3.362 4.002 5.429 9.252 7.352 14.372 4.007 10.713 8.102 22.055 12.598 33.09 13.362 32.625 30.297 62.161 55.891 74.593 25.594 12.432 49.75.635 67.455-17.514 17.761-18.158 31.025-42.457 49.447-59.68 13.092-12.263 28.488-20.613 43.9-28.572 9.073-4.683 19.037-9.284 29.563-5.443 9.465 3.454 17.481 12.933 26.54 18.523 17.956 11.077 37.008 5.164 54.062-.87A2158.763 2158.763 0 01596.616 5.538c43.037-11.693 86.579-22.086 130.783-29.514" stroke="#EFEFEF"/><path opacity=".5" d="M-144.135 248.285c32.92-119.525 114.97-205.49 215.696-225.686 8.877-1.774 19.56-2.316 27.045 6.473 3.4 3.974 5.519 9.19 7.499 14.291 4.118 10.67 8.306 21.99 12.898 32.983 13.681 32.506 31 61.515 56.709 73.787 25.708 12.271 49.385.6 67.035-17.261 17.712-17.866 31.006-41.786 49.364-58.76 13.037-12.086 28.335-20.334 43.649-28.197 9.016-4.631 18.905-9.175 29.347-5.438 9.403 3.364 17.389 12.632 26.392 18.088 17.829 10.81 36.715 4.937 53.641-1.07A2222.841 2222.841 0 01597.58 9.53c42.657-11.753 85.826-22.267 129.719-29.479" stroke="#EAEBEB"/><path opacity=".5" d="M-142.815 252.039C-109.408 132.58-27.022 46.811 73.962 26.707c8.916-1.766 19.612-2.318 27.17 6.405 3.435 3.94 5.612 9.127 7.642 14.205 4.224 10.623 8.508 21.932 13.203 32.869 14.003 32.385 31.695 60.877 57.527 72.985 24.578 11.523 49.02.567 66.613-17 17.663-17.576 30.988-41.11 49.283-57.836 12.983-11.905 28.184-20.05 43.4-27.827 8.956-4.575 18.77-9.062 29.128-5.433 9.341 3.275 17.297 12.33 26.246 17.658 17.699 10.538 36.421 4.71 53.224-1.27a2296.394 2296.394 0 01151.163-47.937c42.274-11.812 85.068-22.452 128.657-29.439" stroke="#E6E7E8"/><path opacity=".5" d="M-141.495 255.792C-107.602 136.4-24.881 50.822 76.359 30.821c8.955-1.763 19.666-2.315 27.288 6.333 3.473 3.912 5.702 9.065 7.789 14.124 4.329 10.576 8.713 21.867 13.503 32.76 14.322 32.267 32.393 60.234 58.341 72.187 24.427 11.247 48.657.538 66.188-16.745 17.62-17.287 30.971-40.434 49.202-56.916 12.926-11.728 28.032-19.768 43.148-27.452 8.899-4.524 18.638-8.953 28.913-5.428 9.279 3.185 17.204 12.025 26.098 17.223 17.569 10.266 36.13 4.477 52.808-1.472a2374.627 2374.627 0 01149.886-47.907c41.889-11.871 84.315-22.633 127.593-29.404" stroke="#E2E2E4"/><path opacity=".5" d="M-140.17 259.544C-105.793 140.224-22.738 54.839 78.755 34.931c8.994-1.755 19.718-2.317 27.41 6.26 3.509 3.878 5.792 9.002 7.936 14.041 4.439 10.529 8.914 21.81 13.804 32.654 14.646 32.15 33.088 59.596 59.158 71.38 24.27 10.974 48.297.502 65.765-16.485 17.569-17 30.951-39.763 49.121-55.992 12.871-11.55 27.881-19.484 42.896-27.076 8.84-4.466 18.502-8.843 28.699-5.423 9.216 3.095 17.112 11.724 25.949 16.788 17.437 10 35.838 4.25 52.387-1.67A2465.185 2465.185 0 01600.485 21.53c41.51-11.932 83.561-22.82 126.531-29.364" stroke="#DEDEE0"/><path opacity=".5" d="M-138.848 263.298C-103.98 144.042-20.591 58.85 81.154 39.045c9.033-1.747 19.751-2.296 27.533 6.187 3.539 3.857 5.886 8.938 8.081 13.96 4.546 10.482 9.098 21.758 14.11 32.544 14.899 32.059 33.782 58.954 59.972 70.581 24.109 10.702 47.932.468 65.341-16.23 17.525-16.711 30.933-39.087 49.038-55.072 12.817-11.369 27.73-19.2 42.649-26.702 8.784-4.416 18.37-8.735 28.48-5.417 9.159 3.004 17.02 11.423 25.797 16.355 17.307 9.727 35.543 4.023 51.97-1.872A2566.352 2566.352 0 01601.453 25.53c41.126-11.99 82.806-23.005 125.468-29.328" stroke="#DADADC"/><path opacity=".5" d="M-137.529 267.051C-102.174 147.862-18.449 62.866 83.549 43.155c9.067-1.743 19.8-2.292 27.653 6.12 3.576 3.828 5.976 8.876 8.226 13.874 4.655 10.433 9.297 21.694 14.409 32.431 15.219 31.945 34.472 58.318 60.789 69.776 23.948 10.429 47.569.439 64.923-15.972 17.476-16.42 30.918-38.417 48.957-54.148 12.761-11.192 27.578-18.917 42.397-26.327 8.725-4.358 18.239-8.626 28.266-5.412 9.097 2.914 16.926 11.117 25.648 15.92 17.173 9.457 35.25 3.796 51.554-2.073a2680.85 2680.85 0 01146.051-47.82c40.742-12.05 82.054-23.186 124.41-29.29" stroke="#D6D6D8"/><path opacity=".5" d="M-136.203 270.803c35.837-119.121 119.898-203.92 222.15-223.538 9.105-1.736 19.853-2.29 27.774 6.046 3.608 3.797 6.07 8.812 8.373 13.792 4.762 10.392 9.499 21.637 14.714 32.323 15.532 31.827 35.163 57.682 61.608 68.974 23.788 10.162 47.204.405 64.5-15.711 17.432-16.131 30.901-37.742 48.874-53.23 12.711-11.015 27.426-18.637 42.146-25.95 8.668-4.307 18.104-8.512 28.051-5.407 9.035 2.824 16.834 10.816 25.501 15.485 17.044 9.189 34.956 3.569 51.132-2.272a2805.018 2805.018 0 01144.775-47.791c40.358-12.11 81.294-23.372 123.346-29.255" stroke="#D2D2D4"/><path opacity=".5" d="M-134.883 274.557C-98.56 155.502-14.165 70.895 88.347 51.377c9.146-1.727 19.901-2.289 27.898 5.973 3.646 3.769 6.16 8.75 8.519 13.711 4.868 10.346 9.699 21.574 15.015 32.215 15.852 31.714 35.852 57.041 62.422 68.175 23.622 9.892 46.839.371 64.075-15.456 17.385-15.84 30.884-37.066 48.794-52.305 12.655-10.839 27.275-18.354 41.9-25.576 8.612-4.252 17.971-8.404 27.831-5.402 8.977 2.734 16.742 10.516 25.352 15.051 16.91 8.918 34.663 3.342 50.716-2.474a2947.36 2947.36 0 01143.495-47.755c39.979-12.17 80.541-23.558 122.284-29.215" stroke="#CECED0"/><path opacity=".5" d="M-133.562 278.31C-96.751 159.327-12.021 74.912 90.745 55.487c9.183-1.724 19.954-2.286 28.017 5.906 3.683 3.74 6.249 8.688 8.664 13.625 4.978 10.297 9.9 21.515 15.319 32.1 16.165 31.597 36.536 56.407 63.239 67.37 23.454 9.632 46.447.304 63.652-15.196s30.864-36.395 48.707-51.384c12.6-10.657 27.123-18.07 41.647-25.2 8.552-4.2 17.839-8.296 27.617-5.398 8.915 2.644 16.648 10.21 25.206 14.621 16.78 8.646 34.368 3.11 50.299-2.674A3110.397 3110.397 0 01605.33 41.529C644.925 29.3 685.118 17.79 726.551 12.35" stroke="#CACACC"/><path opacity=".5" d="M-132.237 282.062C-94.944 163.147-9.88 78.923 93.141 59.597c9.218-1.716 20.003-2.282 28.14 5.832 3.719 3.706 6.351 8.617 8.809 13.544 5.106 10.238 10.101 21.452 15.62 31.992 16.485 31.483 37.223 55.773 64.053 66.571 23.291 9.366 46.081.265 63.228-14.941 17.257-15.301 30.846-35.719 48.625-50.465 12.545-10.479 26.971-17.787 41.394-24.83 8.496-4.143 17.707-8.187 27.402-5.392 8.853 2.555 16.556 9.909 25.057 14.186 16.648 8.38 34.075 2.883 49.879-2.874a3306.71 3306.71 0 01140.941-47.698c39.211-12.288 79.034-23.925 120.159-29.14" stroke="#C5C6C8"/><path opacity=".5" d="M-130.917 285.816C-93.132 166.965-7.732 82.938 95.538 63.711c9.258-1.707 20.057-2.28 28.263 5.759 3.757 3.678 6.441 8.555 8.951 13.464 5.213 10.196 10.302 21.394 15.921 31.885 16.798 31.365 37.905 55.145 64.871 65.769 23.118 9.109 45.716.232 62.81-14.682 17.206-15.015 30.832-35.05 48.544-49.541 12.489-10.302 26.82-17.503 41.147-24.455 8.435-4.091 17.575-8.08 27.182-5.386 8.796 2.463 16.465 9.607 24.906 13.752 16.513 8.11 33.78 2.656 49.461-3.075a3538.388 3538.388 0 01139.66-47.667c38.832-12.35 78.277-24.106 119.101-29.102" stroke="#C1C2C4"/><path opacity=".5" d="M-129.596 289.569C-91.325 170.785-5.591 86.95 97.934 67.821c9.296-1.705 20.107-2.275 28.386 5.685 3.79 3.651 6.535 8.491 9.096 13.378 5.323 10.148 10.508 21.335 16.226 31.776 17.118 31.25 38.591 54.51 65.689 64.963 22.952 8.854 45.351.198 62.385-14.426 17.161-14.731 30.843-34.337 48.461-48.622 12.455-10.095 26.67-17.22 40.896-24.08 8.38-4.035 17.439-7.969 26.967-5.381 8.734 2.373 16.373 9.307 24.758 13.318 16.379 7.838 33.487 2.428 49.045-3.276a3815.757 3815.757 0 01138.383-47.64c38.448-12.407 77.522-24.29 118.038-29.065" stroke="#BDBEC1"/><path opacity=".5" d="M-128.271 293.321C-89.517 174.609-3.448 90.967 100.335 71.929c9.335-1.697 20.16-2.272 28.505 5.618 3.826 3.618 6.624 8.429 9.242 13.297 5.433 10.1 10.708 21.271 16.525 31.663 17.436 31.132 39.269 53.884 66.503 64.164 22.78 8.596 44.986.164 61.962-14.166 17.111-14.445 30.825-33.661 48.381-47.698 12.4-9.914 26.516-16.941 40.644-23.704 8.319-3.983 17.307-7.861 26.753-5.377 8.676 2.282 16.279 9.001 24.609 12.883 16.246 7.573 33.199 2.2 48.624-3.475a4140.842 4140.842 0 01137.106-47.61c38.064-12.468 76.769-24.478 116.976-29.026" stroke="#B9BABD"/><path opacity=".5" d="M-126.951 297.075C-87.709 178.429-1.305 94.984 102.733 76.044c9.375-1.69 20.207-2.273 28.627 5.544 3.864 3.59 6.719 8.365 9.389 13.215 5.538 10.054 10.91 21.214 16.831 31.554 17.755 31.018 39.951 53.256 67.321 63.364 22.605 8.344 44.62.124 61.539-13.907 16.92-14.031 30.808-32.985 48.299-46.778 12.344-9.737 26.365-16.658 40.392-23.328 8.264-3.928 17.175-7.753 26.534-5.371 8.614 2.192 16.187 8.7 24.461 12.448 16.112 7.302 32.903 1.969 48.207-3.676a4556.595 4556.595 0 01135.83-47.582C647.847 49 686.179 36.868 726.075 32.537" stroke="#B5B6B9"/><path opacity=".5" d="M-125.625 300.827C-85.902 182.249.837 98.995 105.13 80.153c9.408-1.685 20.261-2.27 28.75 5.472 3.901 3.56 6.808 8.302 9.534 13.133 5.649 10.006 11.111 21.151 17.132 31.446 18.074 30.899 40.629 52.63 68.139 62.558 22.431 8.098 44.254.091 61.114-13.651 17.017-13.87 30.795-32.311 48.218-45.855 12.295-9.556 26.214-16.374 40.145-22.953 8.203-3.875 17.043-7.645 26.319-5.367 8.555 2.097 16.096 8.399 24.315 12.019 15.977 7.031 32.61 1.741 47.791-3.878a5067.995 5067.995 0 01134.548-47.55c37.3-12.588 75.262-24.846 114.85-28.952" stroke="#B1B1B5"/><path opacity=".5" d="M-124.304 304.58C-84.09 186.068 2.98 103.012 107.526 84.263c9.447-1.677 20.31-2.265 28.868 5.4 3.938 3.526 6.903 8.239 9.679 13.047 5.754 9.959 11.312 21.093 17.436 31.332 18.393 30.785 41.302 52.005 68.952 61.759 22.258 7.851 43.895.055 60.692-13.392 16.797-13.446 30.777-31.634 48.135-44.935 12.24-9.378 26.063-16.09 39.894-22.578 8.148-3.819 16.911-7.536 26.104-5.362 8.493 2.008 15.997 8.096 24.167 11.584 15.845 6.765 32.316 1.514 47.37-4.076a5756.44 5756.44 0 01133.271-47.523c36.917-12.646 74.503-25.03 113.786-28.915" stroke="#ADADB1"/><path opacity=".5" d="M-122.984 308.334C-82.283 189.887 5.121 107.024 109.924 88.377c9.486-1.67 20.363-2.262 28.992 5.331 3.975 3.498 6.992 8.177 9.825 12.966 5.865 9.911 11.517 21.028 17.737 31.224 18.713 30.671 41.981 51.384 69.769 60.953 22.079 7.606 43.53.022 60.272-13.137 16.918-13.293 30.76-30.959 48.055-44.011 12.185-9.197 25.911-15.807 39.642-22.202 8.091-3.769 16.779-7.429 25.885-5.356 8.435 1.916 15.905 7.794 24.018 11.149 15.711 6.494 32.023 1.287 46.954-4.278a6669.955 6669.955 0 01131.994-47.494c36.538-12.707 73.75-25.211 112.729-28.877" stroke="#A9A9AD"/><path opacity=".5" d="M-121.659 312.085C-80.475 193.712 7.269 111.039 112.32 92.487c9.524-1.667 20.415-2.264 29.114 5.258 4.013 3.469 7.082 8.114 9.972 12.884 5.97 9.864 11.719 20.97 18.037 31.117 19.032 30.551 42.652 50.764 70.584 60.153 21.901 7.361 43.165-.013 59.849-12.878 16.873-13.008 30.742-30.283 47.972-43.091 12.132-9.015 25.76-15.523 39.393-21.833 8.033-3.711 16.648-7.32 25.671-5.351 8.373 1.826 15.813 7.493 23.865 10.716 15.578 6.228 31.73 1.06 46.533-4.477a8076.318 8076.318 0 01130.713-47.464c36.153-12.766 72.996-25.397 111.665-28.841" stroke="#A4A5A9"/><path opacity=".5" d="M-120.339 315.839C-78.668 197.532 9.41 115.051 114.72 96.595c9.56-1.657 20.465-2.26 29.233 5.186 4.049 3.436 7.174 8.046 10.116 12.798 6.08 9.817 11.92 20.912 18.343 31.008 19.351 30.437 43.326 50.144 71.402 59.352 21.719 7.122 42.8-.046 59.425-12.622 16.822-12.722 30.728-29.609 47.891-42.168 12.076-8.837 25.603-15.242 39.142-21.457 7.975-3.66 16.515-7.212 25.456-5.346 8.315 1.735 15.716 7.194 23.717 10.281 15.439 5.959 31.435.828 46.116-4.678a10189.518 10189.518 0 01129.436-47.435c35.77-12.825 72.244-25.579 110.603-28.802" stroke="#A0A1A5"/><path opacity=".5" d="M-119.018 319.593c42.157-118.241 130.57-200.525 236.136-218.883 9.599-1.65 20.518-2.257 29.357 5.117 4.087 3.407 7.264 7.984 10.263 12.717 6.185 9.77 12.125 20.847 18.642 30.895 19.673 30.317 43.995 49.526 72.219 58.546 21.538 6.884 42.434-.085 59.002-12.362 16.778-12.433 30.711-28.933 47.809-41.248 12.022-8.656 25.451-14.959 38.89-21.081 7.916-3.603 16.383-7.104 25.236-5.341 8.258 1.644 15.623 6.889 23.57 9.846 15.305 5.694 31.14.602 45.699-4.878a14081.142 14081.142 0 01128.159-47.406c35.391-12.886 71.49-25.765 109.54-28.767" stroke="#9C9DA1"/><path opacity=".5" d="M-117.693 323.345c42.64-118.174 131.388-200.266 237.208-218.526 9.637-1.647 20.571-2.254 29.479 5.044 4.125 3.379 7.359 7.92 10.409 12.635 6.296 9.722 12.327 20.79 18.948 30.786 19.993 30.203 44.667 48.913 73.033 57.747 21.358 6.65 42.074-.12 58.579-12.102 16.728-12.146 30.693-28.257 47.726-40.328 11.966-8.479 25.3-14.676 38.643-20.708 7.86-3.552 16.257-6.997 25.022-5.336 8.195 1.55 15.526 6.589 23.421 9.412 15.167 5.424 30.848.374 45.279-5.078a23016.545 23016.545 0 01126.877-47.376c35.005-12.95 70.731-25.95 108.478-28.727" stroke="#98999D"/><path opacity=".5" d="M-116.374 327.094c43.134-118.099 132.211-199.998 238.286-218.16 9.677-1.639 20.624-2.256 29.602 4.97 4.161 3.346 7.448 7.858 10.554 12.549 6.401 9.676 12.531 20.725 19.248 30.678 20.316 30.083 45.336 48.306 73.852 56.947 21.174 6.417 41.709-.155 58.159-11.848 16.683-11.863 30.676-27.582 47.646-39.405 11.912-8.297 25.149-14.392 38.391-20.332 7.8-3.494 16.125-6.889 24.807-5.331 8.138 1.458 15.435 6.288 23.276 8.981 15.029 5.161 30.553.148 44.862-5.279 41.972-15.871 83.9-31.669 125.6-47.347 34.621-13.008 69.978-26.13 107.414-28.69" stroke="#94959A"/><path opacity=".5" d="M-115.053 330.847c43.62-118.033 133.034-199.735 239.362-217.804 9.711-1.63 20.672-2.251 29.72 4.899 4.198 3.316 7.537 7.796 10.7 12.467 6.506 9.629 12.733 20.667 19.552 30.564 20.636 29.968 46.002 47.693 74.664 56.143 20.989 6.184 41.344-.189 57.736-11.589 16.392-11.399 30.658-26.905 47.559-38.483 11.856-8.12 24.998-14.109 38.14-19.956 7.743-3.444 15.993-6.781 24.586-5.33 8.079 1.367 15.338 5.989 23.127 8.547 14.896 4.894 30.265-.082 44.445-5.48a64583.437 64583.437 0 00124.324-47.319c34.242-13.069 69.224-26.317 106.357-28.652" stroke="#909196"/><path opacity=".5" d="M-113.728 334.599c44.103-117.965 133.855-199.476 240.433-217.446 9.749-1.627 20.727-2.249 29.844 4.83 4.236 3.288 7.632 7.732 10.847 12.386 6.618 9.586 12.933 20.604 19.852 30.456 20.959 29.848 46.667 47.088 75.484 55.342 20.805 5.956 40.979-.223 57.311-11.333 16.589-11.287 30.639-26.235 47.478-37.56 11.802-7.938 24.846-13.825 37.893-19.581 7.688-3.389 15.859-6.678 24.371-5.326 8.023 1.276 15.241 5.69 22.979 8.112 14.758 4.625 29.97-.313 44.025-5.679a21700.677 21700.677 0 00123.048-47.285c33.858-13.129 68.47-26.504 105.295-28.613" stroke="#8C8D92"/><path opacity=".5" d="M-112.408 338.353c44.59-117.899 134.676-199.218 241.513-217.091 9.789-1.62 20.781-2.247 29.967 4.756 4.268 3.256 7.722 7.67 10.988 12.306 6.724 9.539 13.14 20.544 20.154 30.349 21.278 29.733 47.331 46.486 76.302 54.54 20.617 5.731 40.619-.258 56.888-11.073 16.54-10.996 30.621-25.559 47.396-36.64 11.747-7.761 24.693-13.546 37.639-19.21 7.628-3.336 15.728-6.57 24.157-5.321 7.963 1.18 15.148 5.383 22.826 7.678 14.62 4.361 29.677-.54 43.608-5.88a12687.545 12687.545 0 00121.767-47.254c33.474-13.188 67.717-26.685 104.231-28.578" stroke="#88898E"/><path opacity=".5" d="M-111.087 342.106c45.075-117.832 135.498-198.955 242.586-216.729 9.828-1.612 20.832-2.248 30.084 4.685 4.306 3.227 7.812 7.608 11.133 12.22 6.834 9.491 13.339 20.481 20.459 30.239 21.601 29.613 47.997 45.885 77.115 53.737 20.431 5.509 40.253-.293 56.463-10.818s30.609-24.885 47.315-35.716c11.693-7.579 24.542-13.263 37.388-18.835 7.573-3.28 15.6-6.462 23.937-5.315 7.902 1.091 15.051 5.085 22.679 7.244 14.482 4.097 29.383-.767 43.191-6.081a8866.283 8866.283 0 00120.49-47.226c33.095-13.248 66.959-26.87 103.169-28.537" stroke="#84858A"/><path opacity=".5" d="M-109.763 345.858C-64.2 228.092 26.554 147.168 133.899 129.485c9.866-1.609 20.886-2.245 30.209 4.616 4.342 3.194 7.906 7.544 11.279 12.139 6.939 9.445 13.546 20.421 20.758 30.127 21.924 29.492 48.658 45.285 77.934 52.935 20.24 5.29 39.889-.326 56.045-10.559 16.451-10.423 30.591-24.209 47.233-34.797 11.637-7.402 24.391-12.979 37.136-18.459 7.511-3.228 15.467-6.359 23.723-5.31 7.843.999 14.954 4.785 22.53 6.809 14.345 3.832 29.089-.994 42.77-6.281 40-15.405 79.807-31.161 119.213-47.197 32.711-13.307 66.205-27.055 102.105-28.502" stroke="#7F8086"/><path opacity=".5" d="M-108.442 349.611c46.05-117.699 137.137-198.431 244.738-216.016 9.9-1.6 20.939-2.242 30.331 4.543 4.379 3.165 7.995 7.482 11.425 12.057 7.045 9.398 13.746 20.359 21.064 30.017 22.249 29.377 49.32 44.691 78.751 52.13 20.054 5.068 39.53-.357 55.622-10.299 16.093-9.942 30.573-23.533 47.152-33.873 11.581-7.224 24.24-12.695 36.889-18.084 7.457-3.173 15.335-6.251 23.508-5.306 8.174.945 14.858 4.486 22.382 6.374 14.203 3.57 28.796-1.221 42.354-6.482a5449.799 5449.799 0 00117.932-47.166c32.327-13.367 65.452-27.237 101.043-28.462" stroke="#7B7C82"/><path opacity=".5" d="M-107.121 353.365c46.532-117.627 137.96-198.169 245.815-215.656 9.94-1.592 20.987-2.242 30.449 4.471 4.417 3.137 8.09 7.418 11.57 11.971 7.155 9.35 13.952 20.299 21.364 29.91 22.567 29.258 49.984 44.101 79.565 51.331 19.865 4.852 39.166-.392 55.198-10.044 16.357-9.848 30.554-22.862 47.069-32.954 11.528-7.042 24.089-12.412 36.638-17.709 7.395-3.119 15.208-6.144 23.289-5.299 8.081.844 14.761 4.186 22.235 5.944 14.065 3.305 28.501-1.453 41.938-6.683a4537.417 4537.417 0 00116.655-47.138c31.942-13.425 64.697-27.423 99.984-28.428" stroke="#77787E"/><path opacity=".5" d="M-105.796 357.117c47.02-117.56 138.78-197.91 246.891-215.299 9.978-1.589 21.04-2.24 30.572 4.397 4.457 3.102 8.179 7.356 11.716 11.89 7.26 9.303 14.157 20.234 21.664 29.797 22.889 29.137 50.642 43.513 80.383 50.53 19.676 4.638 38.805-.427 54.775-9.784 15.97-9.357 30.536-22.186 46.989-32.03 11.471-6.865 23.937-12.128 36.385-17.333 7.341-3.064 15.075-6.041 23.075-5.295 7.668.716 14.668 3.886 22.087 5.51 13.923 3.042 28.207-1.68 41.516-6.882a3854.24 3854.24 0 00115.378-47.109c31.564-13.487 63.941-27.603 98.923-28.389" stroke="#73747A"/><path opacity=".5" d="M-104.476 360.871C-56.97 243.376 35.128 163.224 143.491 145.928c10.017-1.582 21.092-2.242 30.696 4.328 4.495 3.073 8.269 7.294 11.862 11.808 7.366 9.258 14.359 20.177 21.97 29.688 23.213 29.022 51.303 42.929 81.195 49.726 19.484 4.429 38.441-.461 54.351-9.529 16.264-9.267 30.518-21.51 46.906-31.11 11.416-6.688 23.786-11.845 36.139-16.959 7.279-3.011 14.947-5.934 22.859-5.29 7.913.643 14.573 3.586 21.935 5.076 13.787 2.783 27.914-1.907 41.1-7.083a3329.705 3329.705 0 00114.101-47.08c31.18-13.546 63.186-27.789 97.859-28.354" stroke="#6F7076"/><path opacity=".5" d="M-103.155 364.624c47.992-117.428 140.419-197.387 249.038-214.58 10.053-1.573 21.147-2.239 30.819 4.255 4.532 3.04 8.362 7.225 12.009 11.726 7.477 9.214 14.564 20.112 22.27 29.581 23.536 28.901 51.961 42.352 82.014 48.924 19.292 4.221 38.078-.489 53.933-9.27 16.22-8.978 30.499-20.839 46.824-30.19 11.362-6.507 23.633-11.567 35.887-16.584 7.224-2.956 14.813-5.83 22.64-5.284 7.826.546 14.477 3.292 21.786 4.642 13.645 2.52 27.621-2.134 40.684-7.284a2921.374 2921.374 0 00112.82-47.05c30.795-13.605 62.432-27.976 96.796-28.314" stroke="#6B6C73"/><path opacity=".5" d="M-101.83 368.376c48.481-117.357 141.242-197.124 250.115-214.224 10.09-1.57 21.2-2.237 30.937 4.183 4.569 3.011 8.451 7.163 12.153 11.64 7.583 9.168 14.765 20.054 22.576 29.471 23.863 28.779 52.618 41.775 82.832 48.124 19.101 4.017 37.718-.525 53.509-9.015 15.79-8.489 30.481-20.163 46.743-29.266 11.306-6.329 23.481-11.283 35.633-16.212 7.168-2.906 14.685-5.729 22.426-5.28 7.741.449 14.376 2.994 21.638 4.207 13.51 2.26 27.332-2.363 40.264-7.479a2595.13 2595.13 0 00111.543-47.021c30.417-13.666 61.68-28.157 95.733-28.278" stroke="#67686F"/><path opacity=".5" d="M-100.509 372.129c48.967-117.29 142.064-196.861 251.191-213.863 10.13-1.562 21.253-2.238 31.06 4.11 4.605 2.978 8.54 7.101 12.299 11.559 7.689 9.121 14.971 19.989 22.875 29.358 24.187 28.659 53.274 41.204 83.646 47.32 18.908 3.808 37.352-.559 53.085-8.754 15.733-8.196 30.462-19.493 46.66-28.348 11.251-6.152 23.331-10.999 35.387-15.838 7.108-2.848 14.553-5.621 22.211-5.275 7.434.337 14.279 2.694 21.491 3.772 13.367 1.998 27.038-2.59 39.847-7.68a2320.92 2320.92 0 00110.266-46.992c30.033-13.724 60.926-28.343 94.676-28.24" stroke="#63646B"/><path opacity=".5" d="M-99.19 375.883C-49.74 258.66 43.697 179.28 153.079 162.376c10.17-1.555 21.306-2.236 31.184 4.041 4.643 2.949 8.63 7.039 12.446 11.477 7.794 9.075 15.176 19.93 23.18 29.25 24.511 28.543 53.933 40.631 84.464 46.518 18.719 3.609 36.994-.59 52.663-8.494 16.082-8.114 30.444-18.817 46.579-27.424 11.197-5.97 23.18-10.715 35.136-15.462 7.051-2.797 14.424-5.519 21.991-5.269 7.376.246 14.184 2.4 21.342 3.337 13.227 1.74 26.743-2.821 39.427-7.878a2096.767 2096.767 0 00108.984-46.963c29.649-13.783 60.167-28.527 93.612-28.204" stroke="#5F6067"/><path opacity=".5" d="M-97.863 379.635c49.935-117.156 143.708-196.34 253.343-213.151 10.207-1.552 21.358-2.237 31.302 3.969 4.68 2.921 8.724 6.976 12.59 11.392 7.904 9.026 15.376 19.866 23.481 29.141 24.834 28.423 54.585 40.071 85.276 45.715 18.526 3.411 36.63-.624 52.238-8.239 15.609-7.615 30.425-18.146 46.498-26.504 11.14-5.793 23.028-10.432 34.883-15.087 6.992-2.74 14.291-5.415 21.777-5.265 7.486.151 14.087 2.101 21.196 2.908 13.086 1.482 26.449-3.048 39.01-8.08 36.455-14.573 72.439-30.239 107.708-46.934 29.269-13.844 59.414-28.709 92.549-28.164" stroke="#5A5C63"/><path opacity=".5" d="M-96.544 383.389C-46.12 266.304 47.98 187.309 157.877 170.598c10.242-1.542 21.411-2.234 31.424 3.896 4.717 2.888 8.814 6.914 12.737 11.31 8.009 8.98 15.583 19.807 23.78 29.029 25.162 28.301 55.243 39.51 86.095 44.914 18.332 3.213 36.271-.655 51.815-7.979 15.544-7.324 30.407-17.47 46.412-25.578 11.085-5.616 22.877-10.149 34.637-14.713 6.935-2.689 14.162-5.313 21.562-5.26 7.263.053 13.992 1.806 21.048 2.473 12.945 1.224 26.156-3.275 38.593-8.281 36.065-14.481 71.623-30.141 106.431-46.905 28.885-13.903 58.66-28.895 91.488-28.124" stroke="#56585F"/><path opacity=".5" d="M-95.223 387.142c50.91-117.019 145.347-195.816 255.491-212.432 10.282-1.535 21.464-2.237 31.549 3.827 4.754 2.858 8.903 6.851 12.883 11.228 8.115 8.934 15.788 19.743 24.086 28.92 25.484 28.18 55.897 38.955 86.914 44.113 18.137 3.015 35.905-.689 51.395-7.725 15.945-7.245 30.388-16.799 46.329-24.659 11.03-5.439 22.724-9.87 34.385-14.337 6.876-2.632 14.033-5.212 21.343-5.254 7.31-.042 13.891 1.508 20.895 2.039 12.805.966 25.863-3.502 38.172-8.48a1589.232 1589.232 0 00105.155-46.876c28.501-13.962 57.907-29.076 90.424-28.089" stroke="#52545B"/><path opacity=".5" d="M-93.897 390.894C-42.5 273.941 52.272 195.341 162.67 178.818c10.319-1.532 21.517-2.234 31.671 3.754 4.791 2.825 8.998 6.787 13.023 11.143 8.222 8.892 15.989 19.685 24.387 28.813 25.807 28.059 56.554 38.404 87.726 43.308 17.945 2.823 35.547-.719 50.972-7.465 15.902-6.956 30.369-16.128 46.249-23.735 10.974-5.261 22.572-9.586 34.133-13.961 6.82-2.581 13.9-5.108 21.128-5.249 7.229-.141 13.796 1.213 20.747 1.604 12.666.713 25.569-3.729 37.756-8.681a1464.332 1464.332 0 00103.873-46.845c28.122-14.023 57.153-29.263 89.362-28.05" stroke="#4E4F57"/><path opacity=".5" d="M-92.577 394.647c51.883-116.886 146.99-195.294 257.644-211.715 10.359-1.524 21.57-2.235 31.789 3.682 4.828 2.797 9.08 6.733 13.169 11.063 8.312 8.861 16.195 19.62 24.693 28.702 26.134 27.938 57.207 37.86 88.544 42.508 17.755 2.635 35.185-.749 50.548-7.21 15.853-6.664 30.351-15.452 46.167-22.815 10.918-5.085 22.421-9.303 33.881-13.585 6.76-2.524 13.771-5.007 20.909-5.244 7.138-.237 13.701.919 20.599 1.17 12.52.456 25.274-3.961 37.339-8.882 34.885-14.201 69.166-29.831 102.596-46.817 27.738-14.082 56.394-29.447 88.303-28.015" stroke="#4A4B53"/><path opacity=".5" d="M-91.257 398.401c52.368-116.813 147.813-195.032 258.72-211.359 10.394-1.515 21.623-2.233 31.912 3.609 4.864 2.763 9.169 6.671 13.316 10.981 8.422 8.813 16.398 19.555 24.991 28.59 26.457 27.817 57.862 37.32 89.363 41.707 17.564 2.446 34.82-.783 50.125-6.95 15.306-6.167 30.332-14.781 46.086-21.892 10.863-4.907 22.27-9.019 33.633-13.215 6.703-2.473 13.642-4.905 20.694-5.239 7.027-.331 13.601.626 20.451.735 12.381.203 24.98-4.188 36.918-9.082a1255.803 1255.803 0 00101.321-46.783c27.354-14.141 55.642-29.629 87.241-27.976" stroke="#46474F"/><path opacity=".5" d="M-89.931 402.153c52.853-116.747 148.633-194.774 259.797-210.999 10.432-1.511 21.675-2.234 32.036 3.541 4.902 2.734 9.259 6.608 13.462 10.899 8.527 8.767 16.605 19.496 25.297 28.481 26.784 27.695 58.513 36.787 90.176 40.903 17.368 2.259 34.46-.814 49.702-6.69 15.767-6.082 30.312-14.11 46.003-20.972 10.804-4.724 22.119-8.736 33.381-12.84 6.649-2.417 13.509-4.801 20.48-5.234 6.971-.433 13.506.331 20.304.305 12.242-.051 24.687-4.415 36.502-9.283 34.093-14.015 67.527-29.626 100.039-46.753 26.975-14.202 54.887-29.815 86.177-27.94" stroke="#42434C"/><path opacity=".5" d="M-88.611 405.907c53.34-116.681 149.451-194.509 260.873-210.642 10.471-1.505 21.729-2.232 32.154 3.468 4.938 2.701 9.353 6.545 13.606 10.813 8.633 8.72 16.806 19.433 25.598 28.373 27.112 27.573 59.171 36.258 90.995 40.102 17.179 2.076 34.097-.843 49.282-6.436 15.718-5.791 30.293-13.439 45.921-20.053 10.748-4.546 21.967-8.452 33.129-12.464 6.588-2.365 13.379-4.704 20.261-5.228 6.881-.524 13.411.037 20.156-.13 12.103-.303 24.398-4.643 36.085-9.483a1087.12 1087.12 0 0098.763-46.724c26.59-14.261 54.133-30.001 85.115-27.901" stroke="#3E3F48"/><path opacity=".5" d="M-87.285 409.658c53.827-116.614 150.274-194.245 261.944-210.284 10.51-1.496 21.781-2.233 32.276 3.395 4.981 2.671 9.443 6.483 13.753 10.732 8.743 8.672 17.01 19.368 25.897 28.261 27.435 27.452 59.826 35.734 91.808 39.302 16.986 1.894 33.739-.873 48.86-6.176 15.676-5.497 30.275-12.763 45.84-19.129 10.69-4.374 21.814-8.173 32.882-12.09 6.533-2.309 13.25-4.601 20.046-5.223 6.796-.622 13.311-.256 20.008-.565 11.961-.55 24.105-4.87 35.664-9.682a1012.905 1012.905 0 0097.486-46.696c26.207-14.32 53.376-30.181 84.051-27.865" stroke="#393B44"/><path opacity=".5" d="M-85.965 413.412C-31.65 296.869 65.13 219.425 177.056 203.489c10.549-1.494 21.833-2.236 32.4 3.321 5.016 2.637 9.536 6.419 13.899 10.65 8.85 8.631 17.216 19.309 26.202 28.152 27.762 27.33 60.479 35.221 92.626 38.497 16.796 1.711 33.375-.903 48.434-5.921 15.633-5.208 30.256-12.092 45.758-18.21 10.635-4.196 21.664-7.889 32.631-11.714 6.471-2.256 13.114-4.503 19.831-5.218 6.716-.716 13.218-.547 19.855-.998 11.823-.804 23.81-5.103 35.248-9.884a948.026 948.026 0 0096.204-46.665c25.828-14.381 52.622-30.367 82.99-27.825" stroke="#353740"/><path opacity=".5" d="M-84.645 417.165c54.802-116.477 151.918-193.724 264.097-209.567 10.584-1.484 21.887-2.232 32.519 3.255 5.054 2.608 9.627 6.357 14.044 10.564 8.96 8.582 17.421 19.244 26.503 28.044 28.088 27.203 61.137 34.707 93.444 37.696 16.605 1.533 33.018-.934 48.012-5.661 15.586-4.912 30.237-11.421 45.677-17.286 10.58-4.019 21.512-7.605 32.379-11.338 6.417-2.201 12.986-4.401 19.612-5.213 6.732-.826 13.118-.839 19.707-1.432 11.685-1.053 23.516-5.33 34.831-10.085a888.225 888.225 0 0094.928-46.636c25.444-14.44 51.869-30.549 81.93-27.792" stroke="#31333C"/><path opacity=".5" d="M-83.32 420.917c55.284-116.409 152.739-193.465 265.173-209.21 10.623-1.477 21.944-2.237 32.642 3.18 5.09 2.576 9.716 6.295 14.19 10.483 9.065 8.536 17.641 19.164 26.808 27.935 28.466 27.027 61.794 34.204 94.257 36.892 16.414 1.361 32.654-.963 47.587-5.406 15.542-4.623 30.218-10.749 45.595-16.366 10.524-3.842 21.361-7.322 32.132-10.964 6.355-2.149 12.856-4.304 19.397-5.208 6.542-.904 13.025-1.129 19.56-1.868 11.547-1.301 23.222-5.556 34.409-10.284a834.177 834.177 0 0093.651-46.607c25.06-14.499 51.115-30.735 80.869-27.752" stroke="#2D2F38"/><path opacity=".5" d="M-82 424.671c55.771-116.343 153.557-193.201 266.251-208.85 10.661-1.474 22.005-2.257 32.764 3.107 5.134 2.534 9.81 6.231 14.336 10.402 9.171 8.489 17.843 19.105 27.108 27.822 28.784 26.908 62.452 33.705 95.075 36.091 16.229 1.187 32.291-.993 47.169-5.147 15.495-4.328 30.199-10.079 45.514-15.443 10.468-3.665 21.21-7.038 31.881-10.588 6.3-2.093 12.722-4.201 19.182-5.204 6.617-1.024 12.93-1.423 19.411-2.302 11.406-1.547 22.929-5.783 33.994-10.485a783.978 783.978 0 0092.374-46.579c24.68-14.559 50.361-30.92 79.804-27.716" stroke="#292B34"/><path opacity=".5" d="M-80.678 428.424c56.257-116.276 154.377-192.942 267.321-208.492 10.7-1.466 22.058-2.254 32.888 3.039 5.172 2.505 9.9 6.169 14.481 10.315 9.281 8.442 18.048 19.041 27.413 27.713 29.109 26.792 63.107 33.214 95.89 35.292 16.037 1.014 31.932-1.024 46.746-4.887 14.814-3.864 30.177-9.413 45.431-14.523 10.413-3.488 21.059-6.755 31.628-10.217 6.243-2.042 12.591-4.104 18.963-5.198 6.371-1.094 12.831-1.712 19.264-2.732 11.27-1.792 22.636-6.011 33.577-10.686a738.47 738.47 0 0091.093-46.549c24.296-14.619 49.604-31.1 78.742-27.676" stroke="#252730"/><path opacity=".5" d="M-79.354 432.176c56.746-116.205 155.2-192.679 268.399-208.131 10.735-1.457 22.11-2.256 33.006 2.967 5.208 2.472 9.989 6.107 14.627 10.234 9.387 8.395 18.248 18.978 27.714 27.605 29.427 26.674 63.77 32.729 96.707 34.486 15.848.847 31.57-1.048 46.321-4.632 15.41-3.739 30.158-8.741 45.351-13.598 10.357-3.311 20.906-6.477 31.38-9.844 6.185-1.984 12.462-4.006 18.749-5.193 6.495-1.225 12.738-2.001 19.117-3.166 11.132-2.041 22.34-6.243 33.155-10.886a695.632 695.632 0 0089.816-46.52c23.912-14.678 48.849-31.287 77.681-27.636" stroke="#21232C"/><path opacity=".5" d="M-78.032 435.93C-20.801 319.791 77.99 243.513 191.44 228.155c10.774-1.454 22.16-2.252 33.13 2.894 5.24 2.444 10.083 6.043 14.773 10.152 9.498 8.351 18.454 18.918 28.013 27.492 29.749 26.554 64.43 32.252 97.525 33.686 15.665.677 31.208-1.078 45.899-4.372 14.692-3.295 30.139-8.07 45.268-12.68 10.3-3.138 20.755-6.192 31.129-9.467 6.128-1.934 12.326-3.908 18.534-5.188 6.207-1.281 12.646-2.287 18.968-3.602 11.002-2.286 22.047-6.469 32.74-11.086a656.597 656.597 0 0088.538-46.491c23.529-14.737 48.096-31.473 76.618-27.601" stroke="#1D1E28"/><path opacity=".5" d="M-76.712 439.684c57.718-116.073 156.842-192.159 270.549-207.42 10.813-1.446 22.214-2.248 33.252 2.821 5.277 2.411 10.173 5.981 14.919 10.07 9.604 8.306 18.655 18.856 28.319 27.384 30.072 26.433 65.093 31.783 98.34 32.886 15.475.509 30.844-1.107 45.474-4.117 15.314-3.153 30.114-7.429 45.183-11.753 10.237-2.981 20.603-5.91 30.877-9.092 6.068-1.877 12.195-3.811 18.314-5.182 6.374-1.427 12.552-2.577 18.816-4.035 10.865-2.53 21.753-6.696 32.318-11.286a619.84 619.84 0 0087.257-46.461c23.15-14.797 47.343-31.654 75.56-27.562" stroke="#191A25"/><path opacity=".5" d="M-75.388 443.435c58.2-116.005 157.661-191.894 271.627-207.058 10.853-1.439 22.266-2.251 33.372 2.753 5.314 2.383 10.261 5.914 15.059 9.986 9.71 8.259 18.861 18.796 28.619 27.276 30.391 26.314 65.755 31.326 99.157 32.08 15.293.345 30.491-1.107 45.056-3.858 15.277-2.829 30.097-6.753 45.1-10.834 10.184-2.798 20.452-5.626 30.626-8.716 6.011-1.826 12.06-3.712 18.1-5.178 6.039-1.466 12.459-2.866 18.667-4.469 10.73-2.774 21.465-6.925 31.902-11.487a586.636 586.636 0 0085.98-46.432c22.766-14.857 46.589-31.841 74.496-27.527" stroke="#141621"/><path opacity=".5" d="M-74.067 447.189c58.689-115.934 158.482-191.635 272.703-206.702 10.885-1.434 22.319-2.248 33.494 2.68 5.352 2.354 10.355 5.85 15.205 9.904 9.82 8.211 19.061 18.734 28.925 27.167 30.713 26.193 66.421 30.867 99.976 31.279 15.112.185 30.125-1.141 44.631-3.603 15.233-2.54 30.078-6.082 45.018-9.915 10.128-2.621 20.301-5.342 30.379-8.341 5.951-1.769 11.928-3.62 17.885-5.174 6.251-1.633 12.367-3.151 18.519-4.904 10.601-3.014 21.171-7.152 31.485-11.688a555.087 555.087 0 0084.704-46.403c22.38-14.921 45.83-32.025 73.434-27.487" stroke="#10121D"/><path opacity=".5" d="M-72.746 450.943C-13.571 335.075 86.558 259.57 201.027 244.598c10.925-1.426 22.367-2.248 33.617 2.607 5.388 2.32 10.445 5.788 15.352 9.823 9.925 8.164 19.267 18.674 29.224 27.054 31.038 26.078 67.087 30.424 100.789 30.48 14.931.025 29.763-1.171 44.209-3.343 15.184-2.249 30.06-5.406 44.937-8.991 10.077-2.445 20.149-5.058 30.127-7.966 5.895-1.717 11.793-3.52 17.665-5.167 6.189-1.738 12.274-3.441 18.372-5.339 10.465-3.258 20.876-7.383 31.064-11.887 28.978-12.811 56.885-28.301 83.427-46.374 22.001-14.982 45.077-32.207 72.37-27.452" stroke="#0C0E19"/><path opacity=".5" d="M-71.42 454.694c59.66-115.801 160.126-191.109 274.85-205.983 10.964-1.419 22.42-2.245 33.736 2.539 5.426 2.293 10.539 5.725 15.496 9.738 10.035 8.116 19.468 18.61 29.525 26.946 31.356 25.958 67.76 29.983 101.607 29.674 14.749-.134 29.397-1.204 43.785-3.082 15.134-1.964 30.046-4.737 44.855-8.072 10.021-2.269 19.996-4.78 29.875-7.59 5.836-1.661 11.66-3.433 17.451-5.163 6.125-1.849 12.187-3.713 18.225-5.769 10.342-3.48 20.583-7.611 30.648-12.088 28.582-12.719 56.066-28.197 82.145-46.344 21.617-15.041 44.323-32.393 71.309-27.412" stroke="#080A15"/><path opacity=".5" d="M-70.1 458.448C-9.952 342.713 90.847 267.597 205.825 252.821c11.002-1.416 22.474-2.243 33.859 2.465 16.514 6.828 30.292 24.106 45.473 36.493 31.679 25.838 68.431 29.555 102.421 28.875 95.549-1.921 186.479-31.917 264.17-87.16 21.232-15.1 43.57-32.574 70.249-27.379" stroke="#040611"/></g></g><defs><clipPath id="clip0_2174_2101"><path fill="#fff" d="M0 0h305v216H0z"/></clipPath><clipPath id="clip1_2174_2101"><path fill="#fff" transform="rotate(-18.807 166.67 644.89)" d="M0 0h918.675v431.736H0z"/></clipPath></defs></svg>