<svg width="305" height="129" fill="none" xmlns="http://www.w3.org/2000/svg"><g clip-path="url(#clip0_2174_2096)"><g clip-path="url(#clip1_2174_2096)" stroke-width=".5" stroke-miterlimit="10"><path opacity=".5" d="M-815.447-180.764c120.459-120.373 276.782-166.67 409.054-121.136 11.558 3.982 24.484 10.831 26.477 26.695.899 7.145-.694 14.81-2.339 22.162-13.567 60.852-30.139 132.394-2.6 176.792 20.832 33.587 60.062 36.942 94.898 26.722 34.836-10.22 68.584-31.545 103.512-39.947 24.892-5.985 49.741-5.256 74.314-3.982 14.46.753 30.01 2.27 39.855 14.953C-63.468-67.165-61.11-49.21-54.42-35.43-41.11-8.035-13.505-1.363 11.59 3.718c136.68 27.68 271.153 66.028 402.55 114.805" stroke="#fff"/><path opacity=".5" d="M-816.526-175.392c120.988-119.953 277.57-165.78 410.075-119.952 11.594 4.011 24.539 10.872 26.673 26.694.966 7.132-.543 14.8-2.108 22.169-3.278 15.438-6.784 31.592-9.686 47.777-8.542 47.751-11.748 95.682 9.051 128.728 20.799 33.047 59.653 36.652 94.214 26.732 34.573-9.91 68.087-30.758 102.766-38.91 24.702-5.815 49.363-5.027 73.751-3.714 14.351.772 29.778 2.305 39.598 14.806 8.805 11.191 11.261 28.88 17.988 42.457C-40.872-1.612-13.477 4.987 11.455 10.012A2742.965 2742.965 0 01231.77 64.014c60.398 17.476 120.303 37.053 179.41 59.237" stroke="#FBFBFB"/><path opacity=".5" d="M-817.599-170.02c121.511-119.533 278.359-164.89 411.091-118.774 11.635 4.048 24.6 10.912 26.869 26.7 1.03 7.124-.394 14.79-1.878 22.176-3.12 15.456-6.503 31.658-9.254 47.86-8.083 47.835-10.462 95.413 10.585 128.35 20.893 32.702 59.245 36.355 93.532 26.736 34.319-9.605 67.59-29.97 102.022-37.88 24.51-5.645 48.983-4.798 73.195-3.446 14.247.8 29.547 2.334 39.34 14.661C-63.294-52.6-60.739-35.179-53.985-21.8-40.63 4.79-13.444 11.31 11.323 16.285a2816.303 2816.303 0 01218.784 53.137c59.991 17.137 119.539 36.309 178.124 58.537" stroke="#F7F7F7"/><path opacity=".5" d="M-818.678-164.649c122.039-119.105 279.148-164.006 412.113-117.595 11.677 4.084 24.663 10.946 27.059 26.698 1.096 7.11-.237 14.78-1.646 22.175-2.956 15.478-6.215 31.727-8.821 47.938-7.617 47.926-9.177 95.15 12.118 127.98 20.924 32.257 58.844 36.059 92.848 26.745 34.058-9.296 67.096-29.19 101.276-36.844 24.319-5.467 48.605-4.57 72.633-3.178 14.138.818 29.323 2.363 39.077 14.514C-63.228-45.336-60.562-28.172-53.78-15c13.378 26.18 40.354 32.636 64.95 37.554a2889.575 2889.575 0 01217.252 52.273c59.579 16.797 118.778 35.557 176.841 57.83" stroke="#F3F3F3"/><path opacity=".5" d="M-819.758-159.278c122.575-118.683 279.937-163.116 413.134-116.41 11.72 4.115 24.725 10.988 27.256 26.698 1.161 7.102-.088 14.77-1.416 22.182-2.798 15.496-5.935 31.799-8.382 48.024-7.15 48.01-7.897 94.88 13.644 127.605 21.541 32.726 58.434 35.77 92.165 26.756 33.801-8.984 66.605-28.401 100.531-35.814 24.128-5.297 48.226-4.34 72.07-2.91 14.034.845 29.067 2.414 38.82 14.368C-63.165-38.031-60.35-21.172-53.563-8.18c13.455 25.747 40.166 32.16 64.598 37.023A2973.49 2973.49 0 01226.756 80.25c59.166 16.456 118.017 34.806 175.563 57.13" stroke="#EFEFEF"/><path opacity=".5" d="M-820.83-153.906c123.097-118.263 280.72-162.233 414.15-115.232 11.754 4.15 24.78 11.027 27.453 26.697 1.226 7.095.062 14.759-1.186 22.188-2.635 15.524-5.648 31.868-7.95 48.108-6.69 48.094-6.611 94.611 15.178 127.228 21.789 32.617 58.027 35.472 91.49 26.76 33.539-8.674 66.11-27.62 99.786-34.784 23.937-5.126 47.849-4.117 71.508-2.642 13.93.865 28.834 2.45 38.562 14.222 8.761 10.599 11.69 27.186 18.505 39.98 13.492 25.34 39.978 31.685 64.24 36.49a3061.457 3061.457 0 01214.182 50.543c58.76 16.117 117.254 34.061 174.279 56.423" stroke="#EAEBEB"/><path opacity=".5" d="M-821.909-148.535c123.626-117.842 281.507-161.343 415.179-114.052 11.795 4.187 24.842 11.062 27.648 26.703 1.292 7.081.218 14.75-.954 22.188-2.478 15.544-5.368 31.941-7.51 48.187-6.223 48.179-5.34 94.346 16.711 126.857 20.978 30.934 57.618 35.175 90.806 26.77 33.277-8.364 65.613-26.834 99.04-33.748 23.745-4.948 47.471-3.888 70.954-2.38 13.82.891 28.593 2.49 38.298 14.075 8.75 10.45 11.793 26.766 18.634 39.368 13.53 24.927 39.79 31.21 63.888 35.96A3162.81 3162.81 0 01223.437 91.07c58.347 15.778 116.485 33.31 172.994 55.724" stroke="#E6E7E8"/><path opacity=".5" d="M-822.988-143.163c124.155-117.422 282.297-160.46 416.2-112.868 11.838 4.217 24.904 11.103 27.838 26.702 1.357 7.073.368 14.74-.723 22.195-2.321 15.562-5.081 32.008-7.079 48.271-5.763 48.261-4.06 94.075 18.237 126.483 20.993 30.502 57.209 34.885 90.124 26.774 33.021-8.053 65.117-26.047 98.296-32.718 23.554-4.778 47.092-3.66 70.391-2.113 13.717.912 28.361 2.526 38.041 13.93 8.74 10.299 11.897 26.338 18.764 38.75C-39.33 36.755-13.286 42.97 10.639 47.67A3270.684 3270.684 0 01221.76 96.484c57.934 15.437 115.722 32.564 171.71 55.016" stroke="#E2E2E4"/><path opacity=".5" d="M-824.062-137.791c124.677-116.995 283.08-159.571 417.216-111.69 11.88 4.254 24.967 11.137 28.035 26.701 1.423 7.059.518 14.729-.492 22.201-2.157 15.583-4.801 32.082-6.647 48.356-5.298 48.353-2.789 93.81 19.771 126.105 21 30.068 56.808 34.59 89.44 26.784 32.761-7.75 64.622-25.266 97.55-31.681 23.364-4.608 46.713-3.43 69.829-1.846 13.606.938 28.122 2.56 37.784 13.784 8.73 10.15 12 25.917 18.895 38.13C-39.083 43.16-13.258 49.308 10.497 53.95a3394.764 3394.764 0 01209.583 47.947c57.528 15.098 114.961 31.813 170.425 54.316" stroke="#DEDEE0"/><path opacity=".5" d="M-825.14-132.42c125.212-116.573 283.875-158.686 418.237-110.505 11.921 4.291 24.992 11.185 28.231 26.701 1.473 7.055.675 14.72-.262 22.208-1.999 15.602-4.548 32.149-6.208 48.441-4.933 48.423-1.516 93.538 21.297 125.732 21.001 29.633 56.4 34.292 88.758 26.787 32.505-7.439 64.125-24.479 96.805-30.651 23.172-4.431 46.335-3.201 69.274-1.577 13.504.958 27.89 2.595 37.52 13.637 8.725 10.001 12.103 25.497 19.019 37.51 13.636 23.693 39.236 29.78 62.827 34.366a3534.604 3534.604 0 01208.051 47.082c57.115 14.758 114.199 31.062 169.141 53.609" stroke="#DADADC"/><path opacity=".5" d="M-826.22-127.049C-700.478-243.2-541.556-284.845-406.961-236.375c11.958 4.319 25.047 11.225 28.421 26.705 1.538 7.048.824 14.71-.03 22.208-1.835 15.623-4.268 32.215-5.775 48.519-4.474 48.512-.251 93.272 22.831 125.354 21.002 29.197 55.991 34.002 88.081 26.798 32.243-7.129 63.637-23.697 96.059-29.614 22.982-4.26 45.956-2.973 68.711-1.31 13.393.984 27.658 2.63 37.263 13.491 8.715 9.852 12.207 25.07 19.15 36.893 13.668 23.277 39.048 29.303 62.475 33.834a3692.198 3692.198 0 01206.52 46.217c56.703 14.418 113.436 30.318 167.863 52.911" stroke="#D6D6D8"/><path opacity=".5" d="M-827.293-121.676c126.265-115.732 285.446-156.907 420.275-108.149 11.999 4.356 25.109 11.265 28.617 26.704 1.598 7.033.981 14.701.201 22.215-1.679 15.649-3.988 32.288-5.337 48.604-4.021 48.595 1.014 93.005 24.364 124.983 21.001 28.768 55.583 33.705 87.398 26.808 31.987-6.817 63.14-22.91 95.314-28.585 22.798-4.088 45.579-2.75 68.149-1.041 13.29 1.004 27.418 2.67 37.005 13.345 8.705 9.702 12.31 24.648 19.281 36.273C-38.32 62.352-13.165 68.31 10.092 72.784a3863.973 3863.973 0 01204.988 45.352c56.29 14.078 112.668 29.566 166.579 52.203" stroke="#D2D2D4"/><path opacity=".5" d="M-828.372-116.305c126.793-115.311 286.235-156.024 421.303-106.962 12.04 4.393 25.164 11.298 28.814 26.704 1.662 7.025 1.13 14.69.43 22.221-1.521 15.668-3.706 32.355-4.904 48.688-3.562 48.685 2.279 92.732 25.89 124.61 20.995 28.332 55.175 33.408 86.715 26.812 31.726-6.508 62.643-22.122 94.569-27.548 22.607-3.918 45.2-2.521 67.593-.773C-94.776-1.522-80.777.152-71.221 10.645c8.701 9.553 12.414 24.228 19.412 35.655 13.736 22.456 38.673 28.353 61.766 32.77a4058.767 4058.767 0 01203.448 44.494c55.884 13.739 111.907 28.815 165.294 51.503" stroke="#CECED0"/><path opacity=".5" d="M-829.451-110.934c127.321-114.884 287.023-155.133 422.325-105.784 12.083 4.423 25.226 11.34 29.002 26.709 1.727 7.018 1.281 14.68.663 22.221-1.357 15.689-3.427 32.428-4.465 48.768-3.108 48.766 3.538 92.464 27.425 124.231 20.979 27.907 54.758 33.053 86.031 26.822 31.274-6.23 62.149-21.342 93.818-26.52 22.415-3.74 44.821-2.292 67.03-.505 13.077 1.05 26.953 2.74 36.484 13.052 8.691 9.404 12.518 23.8 19.541 35.043 13.775 22.042 38.487 27.871 61.415 32.24a4282.51 4282.51 0 01201.917 43.629c55.471 13.399 111.144 28.07 164.011 50.796" stroke="#CACACC"/><path opacity=".5" d="M-830.523-105.562c127.843-114.463 287.806-154.251 423.34-104.606 12.118 4.459 25.282 11.379 29.2 26.708 1.793 7.004 1.452 14.667.893 22.228-1.164 15.708-3.146 32.494-4.033 48.851-2.65 48.857 4.796 92.197 28.95 123.859 20.972 27.477 54.352 32.75 85.35 26.825 31.195-5.96 61.651-20.554 93.072-25.49 22.225-3.57 44.444-2.062 66.47-.244 12.973 1.078 26.72 2.776 36.227 12.907 8.68 9.254 12.621 23.379 19.672 34.424 13.805 21.634 38.3 27.395 61.056 31.708A4556.018 4556.018 0 01210.06 134.37c55.058 13.059 110.382 27.319 162.725 50.096" stroke="#C5C6C8"/><path opacity=".5" d="M-831.603-100.191c128.38-114.041 288.601-153.359 424.361-103.421 12.159 4.496 25.343 11.421 29.397 26.708 1.858 6.997 1.601 14.656 1.117 22.233-1.008 15.734-2.867 32.567-3.602 48.936-2.196 48.938 6.046 91.933 30.484 123.487 20.949 27.05 53.944 32.452 84.672 26.837 30.935-5.657 61.163-19.773 92.327-24.454 22.034-3.4 44.064-1.833 65.914.025 12.863 1.096 26.488 2.81 35.963 12.76 8.676 9.105 12.724 22.958 19.796 33.803C-37.338 87.943-13.062 93.643 9.53 97.9a4872.766 4872.766 0 01198.847 41.898c54.652 12.72 109.613 26.573 161.447 49.397" stroke="#C1C2C4"/><path opacity=".5" d="M-832.682-94.82c128.909-113.62 289.392-152.475 425.384-102.242 12.202 4.526 25.398 11.46 29.594 26.707 1.915 6.988 1.757 14.647 1.348 22.233-.844 15.755-2.58 32.642-3.162 49.021-1.738 49.028 7.303 91.666 32.017 123.11 20.933 26.632 53.536 32.155 83.991 26.84 30.68-5.352 60.673-18.921 91.581-23.424 21.847-3.18 43.686-1.605 65.352.292 12.76 1.124 26.25 2.845 35.706 12.614 8.666 8.956 12.827 22.537 19.926 33.185C-37.076 94.32-13.02 99.961 9.41 104.162a5254.157 5254.157 0 01197.316 41.033c54.24 12.38 108.851 25.822 160.163 48.69" stroke="#BDBEC1"/><path opacity=".5" d="M-833.754-89.447c129.43-113.194 290.173-151.587 426.406-101.064 12.243 4.562 25.46 11.501 29.782 26.712 1.982 6.974 1.908 14.637 1.579 22.239-.679 15.776-2.299 32.709-2.729 49.1-1.278 49.11 8.547 91.4 33.543 122.735 20.911 26.207 53.129 31.858 83.307 26.85 30.42-5.048 60.178-18.133 90.836-22.386 21.655-3.003 43.309-1.383 64.789.56 12.65 1.142 26.018 2.879 35.449 12.467 8.662 8.808 12.931 22.11 20.057 32.567 13.898 20.396 37.744 25.971 59.996 30.113a5706.846 5706.846 0 01195.785 40.168c53.826 12.04 108.089 25.071 158.878 47.991" stroke="#B9BABD"/><path opacity=".5" d="M-834.834-84.076c129.96-112.773 290.961-150.697 427.428-99.878 12.284 4.599 25.515 11.534 29.978 26.711 2.047 6.966 2.065 14.628 1.81 22.245-.522 15.795-2.02 32.782-2.291 49.185-.819 49.202 9.797 91.14 35.076 122.365 20.88 25.785 52.722 31.554 82.624 26.86 29.902-4.694 59.68-17.346 90.091-21.357 21.464-2.832 42.93-1.153 64.227.827 12.546 1.17 25.785 2.915 35.184 12.321 8.652 8.658 13.035 21.69 20.189 31.948 13.929 19.982 37.557 25.49 59.644 29.583a6274.6 6274.6 0 01194.253 39.303c53.42 11.701 107.327 24.327 157.594 47.283" stroke="#B5B6B9"/><path opacity=".5" d="M-835.906-78.704c130.482-112.353 291.744-149.814 428.443-98.701 12.321 4.628 25.577 11.576 30.175 26.711 2.112 6.959 2.214 14.617 2.04 22.252-.357 15.816-1.738 32.849-1.859 49.27-.358 49.284 11.04 90.874 36.611 121.986 20.848 25.371 52.314 31.257 81.941 26.863 29.903-4.434 59.191-16.557 89.345-20.32 21.279-2.653 42.552-.924 63.671 1.096 12.437 1.189 25.553 2.95 34.928 12.175 8.649 8.503 13.137 21.268 20.317 31.336 13.961 19.567 37.37 25.014 59.293 29.052a6978.982 6978.982 0 01192.715 38.437c53.008 11.361 106.565 23.576 156.31 46.583" stroke="#B1B1B5"/><path opacity=".5" d="M-836.985-73.333c131.017-111.931 292.532-148.924 429.465-97.522 12.362 4.665 25.632 11.615 30.366 26.709 2.178 6.944 2.37 14.608 2.272 22.252-.2 15.835-1.459 32.921-1.419 49.348.1 49.374 12.276 90.609 38.136 121.613 20.816 24.957 51.913 30.962 81.258 26.874 29.345-4.088 58.694-15.77 88.6-19.29 21.089-2.483 42.173-.696 63.109 1.363 12.332 1.216 25.32 2.985 34.67 12.03 8.64 8.352 13.236 20.839 20.449 30.717 13.99 19.158 37.182 24.539 58.934 28.519a7927.721 7927.721 0 01191.184 37.573c52.595 11.02 105.797 22.822 155.026 45.875" stroke="#ADADB1"/><path opacity=".5" d="M-838.065-67.962c131.547-111.51 293.322-148.041 430.486-96.337 12.404 4.702 25.694 11.656 30.561 26.715 2.243 6.938 2.521 14.598 2.503 22.259-.036 15.855-1.172 32.989-.988 49.432.559 49.465 13.518 90.352 39.671 121.236 20.778 24.54 51.505 30.664 80.582 26.878 29.38-3.821 58.198-14.983 87.855-18.254 20.896-2.306 41.794-.466 62.546 1.63 12.23 1.237 25.089 3.022 34.407 11.883 8.634 8.205 13.338 20.419 20.579 30.099 14.022 18.743 36.995 24.064 58.583 27.988a9181.636 9181.636 0 01189.652 36.708c52.189 10.682 105.034 22.079 153.747 45.177" stroke="#A9A9AD"/><path opacity=".5" d="M-839.138-62.59c132.068-111.083 294.111-147.15 431.502-95.159 12.447 4.732 25.757 11.691 30.758 26.714 2.308 6.93 2.67 14.587 2.733 22.265.121 15.875-.892 33.063-.555 49.517 1.018 49.548 14.745 90.092 41.196 120.863 20.739 24.125 51.097 30.368 79.899 26.888 29.126-3.517 57.701-14.196 87.11-17.224 20.704-2.129 41.415-.237 61.992 1.893 12.119 1.263 24.856 3.056 34.149 11.737 8.624 8.055 13.441 19.997 20.703 29.478 14.053 18.336 36.807 23.589 58.225 27.456a11123.64 11123.64 0 01188.114 35.842c51.776 10.342 104.273 21.327 152.464 44.47" stroke="#A4A5A9"/><path opacity=".5" d="M-840.216-57.218c132.597-110.663 294.9-146.267 432.531-93.98 12.481 4.767 25.811 11.73 30.948 26.712 2.374 6.916 2.828 14.572 2.965 22.265.285 15.896-.612 33.136-.117 49.603 1.477 49.637 15.981 89.833 42.729 120.49 20.693 23.716 50.689 30.072 79.217 26.892 28.865-3.213 57.211-13.407 86.364-16.187 20.513-1.958 41.031-.016 61.429 2.16 12.017 1.283 24.624 3.092 33.892 11.592 8.62 7.906 13.538 19.575 20.834 28.859 14.078 17.919 36.621 23.107 57.874 26.925a14052.851 14052.851 0 01186.583 34.977c51.363 10.002 103.509 20.583 151.178 43.77" stroke="#A0A1A5"/><path opacity=".5" d="M-841.296-51.847c133.127-110.242 295.689-145.377 433.553-92.795 12.522 4.805 25.873 11.772 31.143 26.719 2.439 6.909 2.978 14.561 3.195 22.272.444 15.914-.324 33.203.317 49.68C-371.144 3.75-355.879 43.6-328.825 74.14c20.646 23.305 50.283 29.768 78.533 26.902 28.61-2.902 56.714-12.62 85.619-15.158 20.322-1.78 40.653.214 60.868 2.429 11.905 1.308 24.391 3.126 33.628 11.444 8.617 7.758 13.642 19.147 20.965 28.241 14.107 17.511 36.433 22.631 57.521 26.394a19420.311 19420.311 0 01185.052 34.112c50.957 9.663 102.748 19.832 149.895 43.063" stroke="#9C9DA1"/><path opacity=".5" d="M-842.369-46.474c133.649-109.823 296.472-144.495 434.568-91.618 12.566 4.834 25.935 11.813 31.341 26.718 2.503 6.902 3.134 14.552 3.425 22.278.608 15.936-.045 33.277.755 49.766 2.403 49.812 18.436 89.32 45.79 119.74 20.597 22.901 49.881 29.472 77.849 26.912 28.349-2.599 56.218-11.833 84.875-14.128 20.131-1.61 40.274.442 60.311 2.697 11.803 1.33 24.166 3.163 33.371 11.298 8.608 7.602 13.738 18.726 21.096 27.623 14.132 17.094 36.246 22.156 57.164 25.861a31699.394 31699.394 0 01183.513 33.247c50.545 9.315 101.98 19.079 148.609 42.362" stroke="#98999D"/><path opacity=".5" d="M-843.446-41.11c134.182-109.386 297.258-143.598 435.588-90.425 12.606 4.871 25.997 11.847 31.537 26.717 2.569 6.887 3.283 14.541 3.657 22.278.765 15.955.243 33.345 1.187 49.85 2.87 49.897 19.654 89.07 47.322 119.368 20.543 22.497 49.474 29.175 77.174 26.917 28.095-2.294 55.721-11.046 84.129-13.091 19.939-1.433 39.895.671 59.749 2.964 11.692 1.355 23.934 3.198 33.113 11.153 8.604 7.453 13.842 18.305 21.225 27.01 14.156 16.685 36.059 21.681 56.813 25.331a97682.294 97682.294 0 01181.982 32.382c50.133 8.975 101.216 18.335 147.326 41.655" stroke="#94959A"/><path opacity=".5" d="M-844.526-35.74c134.711-108.964 298.047-142.707 436.61-89.246 12.641 4.907 26.052 11.887 31.727 26.716 2.634 6.88 3.434 14.53 3.888 22.284.923 15.974.523 33.418 1.627 49.93 3.328 49.986 20.874 88.815 48.85 118.988 20.487 22.091 49.065 28.878 76.49 26.926 27.425-1.951 55.224-10.258 83.377-12.062 19.748-1.263 39.517.9 59.187 3.232 11.59 1.375 23.702 3.233 32.851 10.998 8.6 7.305 13.938 17.883 21.356 26.392 14.185 16.277 35.877 21.207 56.46 24.8a88949.731 88949.731 0 00180.452 31.517c49.726 8.637 100.455 17.584 146.047 40.957" stroke="#909196"/><path opacity=".5" d="M-845.598-30.366c135.234-108.546 298.837-141.824 437.626-88.07 12.684 4.937 26.114 11.928 31.922 26.722 2.699 6.872 3.59 14.522 4.119 22.29 1.085 16.002.803 33.485 2.058 50.014 3.796 50.071 22.087 88.566 50.383 118.617 20.431 21.693 48.657 28.581 75.808 26.93 27.579-1.68 54.729-9.478 82.631-11.026 19.556-1.085 39.139 1.13 58.631 3.501 11.485 1.403 23.471 3.262 32.594 10.853 8.596 7.157 14.034 17.46 21.487 25.773 14.21 15.861 35.69 20.725 56.102 24.268a29869.967 29869.967 0 00178.918 30.658c49.314 8.297 99.694 16.833 144.762 40.257" stroke="#8C8D92"/><path opacity=".5" d="M-846.678-24.995c135.763-108.125 299.626-140.941 438.655-86.89 12.725 4.974 26.175 11.97 32.119 26.722 2.759 6.856 3.74 14.51 4.342 22.296 1.243 16.02 1.09 33.558 2.491 50.097 4.254 50.161 23.297 88.323 51.915 118.246 20.368 21.293 48.256 28.285 75.125 26.94 27.316-1.37 54.232-8.691 81.886-9.996 19.366-.915 38.761 1.351 58.07 3.761 11.376 1.422 23.239 3.297 32.337 10.708 8.594 7.001 14.138 17.032 21.61 25.153 14.234 15.451 35.504 20.249 55.752 23.736a17475.15 17475.15 0 00177.38 29.793c48.901 7.956 98.93 16.088 143.478 39.55" stroke="#88898E"/><path opacity=".5" d="M-847.757-19.624c136.292-107.704 300.415-140.05 439.669-85.706 12.767 5.01 26.239 12.003 32.31 26.72 2.823 6.849 3.889 14.5 4.574 22.295 1.407 16.042 1.371 33.626 2.928 50.184 4.721 50.245 24.508 88.08 53.443 117.866 20.304 20.9 47.849 27.988 74.443 26.943 26.594-1.045 53.743-7.902 81.14-8.96 19.174-.737 38.383 1.581 57.508 4.03 11.272 1.448 23.013 3.333 32.073 10.56 8.583 6.852 14.234 16.61 21.741 24.534 14.257 15.042 35.316 19.775 55.4 23.206a12230.384 12230.384 0 00175.849 28.928c48.494 7.617 98.162 15.335 142.193 38.849" stroke="#84858A"/><path opacity=".5" d="M-848.829-14.252c136.821-107.283 301.196-139.161 440.691-84.527 12.81 5.04 26.3 12.044 32.505 26.725 2.89 6.836 4.046 14.492 4.805 22.303 1.564 16.06 1.657 33.7 3.362 50.26 5.187 50.331 25.711 87.837 54.976 117.495 20.232 20.506 47.44 27.691 73.765 26.955 26.807-.754 53.246-7.115 80.396-7.93 18.983-.567 38.004 1.81 56.945 4.297 11.162 1.468 22.782 3.362 31.816 10.414 8.58 6.704 14.33 16.189 21.872 23.916 14.28 14.632 35.128 19.299 55.042 22.673a9370.331 9370.331 0 00174.317 28.064c48.082 7.277 97.4 14.584 140.909 38.142" stroke="#7F8086"/><path opacity=".5" d="M-849.909-8.881C-712.558-115.743-547.923-147.16-408.195-92.23c12.844 5.076 26.361 12.085 32.701 26.725 2.955 6.828 4.196 14.48 5.035 22.309 1.722 16.08 1.939 33.766 3.801 50.346 5.653 50.422 26.914 87.599 56.51 117.117 20.168 20.113 47.038 27.402 73.082 26.964 26.044-.437 52.749-6.327 79.65-6.893 18.792-.397 37.625 2.039 56.39 4.566 11.058 1.495 22.55 3.397 31.557 10.269 9.009 6.871 14.428 15.765 22.004 23.296 14.297 14.221 34.94 18.825 54.69 22.143a7507.761 7507.761 0 00172.779 27.197c47.669 6.937 96.638 13.84 139.624 37.442" stroke="#7B7C82"/><path opacity=".5" d="M-850.988-3.51c137.872-106.435 302.774-137.387 442.735-82.163 12.886 5.113 26.418 12.119 32.892 26.723 3.019 6.82 4.352 14.472 5.267 22.309 1.886 16.1 2.224 33.84 4.232 50.43 6.113 50.506 28.115 87.368 58.036 116.744 20.096 19.726 46.63 27.106 72.4 26.968 26.29-.139 52.254-5.547 78.905-5.863 18.6-.22 37.247 2.268 55.827 4.833 10.95 1.514 22.325 3.434 31.294 10.122 8.97 6.687 14.524 15.344 22.133 22.685 14.32 13.811 34.755 18.342 54.339 21.611a6251.55 6251.55 0 00171.248 26.333c47.256 6.597 95.876 13.089 138.347 36.736" stroke="#77787E"/><path opacity=".5" d="M-852.061 1.862c138.402-106.014 303.564-136.503 443.758-80.984 12.928 5.143 26.479 12.16 33.088 26.722 3.093 6.808 4.502 14.462 5.498 22.316 2.044 16.12 2.512 33.909 4.665 50.508 6.581 50.59 29.309 87.136 59.569 116.372 20.023 19.338 46.229 26.81 71.716 26.979 25.488.168 51.758-4.76 78.159-4.827 18.41-.049 36.869 2.497 55.266 5.101 10.844 1.54 22.093 3.462 31.036 9.975 8.572 6.245 14.627 14.923 22.264 22.067 14.337 13.4 34.567 17.867 53.98 21.079 56.593 9.421 113.265 17.938 169.717 25.467 46.85 6.259 95.106 12.344 137.062 36.037" stroke="#73747A"/><path opacity=".5" d="M-853.14 7.233C-714.21-98.36-548.788-128.38-408.36-72.572c12.97 5.18 26.542 12.194 33.284 26.728 3.157 6.8 4.652 14.451 5.728 22.323 2.201 16.138 2.792 33.981 5.104 50.593 7.045 50.682 30.502 86.91 61.096 115.993 19.942 18.955 45.821 26.513 71.034 26.981 25.773.482 51.261-3.972 77.415-3.796 18.219.121 36.489 2.726 54.71 5.369 10.734 1.56 21.867 3.499 30.779 9.83 8.911 6.331 14.722 14.501 22.387 21.446 14.359 12.998 34.38 17.392 53.63 20.548a4587.226 4587.226 0 00168.184 24.604c46.437 5.918 94.345 11.592 135.779 35.329" stroke="#6F7076"/><path opacity=".5" d="M-854.219 12.605C-714.76-92.568-549.084-122.127-408.425-66.017c13.004 5.215 26.604 12.235 33.481 26.728 3.223 6.787 4.81 14.435 5.958 22.329 2.364 16.166 3.08 34.05 5.536 50.678 7.512 50.766 31.687 86.69 62.629 115.621 19.862 18.573 45.412 26.222 70.357 26.993 25.517.793 50.766-3.192 76.67-2.767 18.027.298 36.112 2.948 54.147 5.637 10.631 1.587 21.637 3.528 30.516 9.683 8.878 6.155 14.817 14.085 22.518 20.828 14.376 12.586 34.192 16.916 53.278 20.017 55.531 9.091 111.187 17.028 166.647 23.737 46.024 5.577 93.583 10.841 134.493 34.629" stroke="#6B6C73"/><path opacity=".5" d="M-855.292 17.977c139.987-104.744 305.924-133.841 446.817-77.443 13.047 5.245 26.665 12.276 33.67 26.726 3.288 6.78 4.96 14.425 6.19 22.329 2.522 16.185 3.36 34.123 5.975 50.763 7.986 50.852 32.871 86.47 64.162 115.25 19.779 18.197 45.01 25.927 69.675 26.996 24.665 1.07 50.269-2.405 75.924-1.73 17.836.469 35.733 3.177 53.586 5.898 10.528 1.607 21.413 3.557 30.258 9.537 8.845 5.98 14.907 13.661 22.649 20.209 14.398 12.184 34.011 16.443 52.918 19.491a3574.914 3574.914 0 00165.116 22.873c45.618 5.239 92.82 10.096 133.209 33.922" stroke="#67686F"/><path opacity=".5" d="M-856.371 23.348C-715.855-80.976-549.659-109.603-408.534-52.91c13.089 5.282 26.729 12.31 33.868 26.726 3.354 6.765 5.109 14.414 6.42 22.335 2.68 16.205 3.648 34.19 6.408 50.841 8.453 50.937 34.048 86.255 65.69 114.87 19.698 17.815 44.602 25.63 68.991 27.007 24.389 1.376 49.774-1.625 75.179-.701 17.646.639 35.355 3.407 53.03 6.167 10.418 1.633 21.181 3.593 30.002 9.391 8.56 5.632 15.003 13.24 22.78 19.591 14.414 11.772 33.823 15.967 52.566 18.96 54.472 8.755 109.104 16.117 163.585 22.008 45.205 4.899 92.058 9.345 131.931 33.223" stroke="#63646B"/><path opacity=".5" d="M-857.45 28.72c141.039-103.905 307.502-132.068 448.86-75.08 13.13 5.32 26.79 12.352 34.063 26.732 3.419 6.758 5.259 14.404 6.651 22.342 2.837 16.224 3.933 34.265 6.846 50.927 8.918 51.028 35.231 86.041 67.222 114.498 19.615 17.446 44.2 25.341 68.308 27.016 24.746 1.719 49.277-.837 74.433.337 17.454.816 34.977 3.635 52.468 6.434 10.315 1.654 20.957 3.622 29.737 9.244 8.557 5.484 15.099 12.824 22.911 18.972 14.43 11.368 33.638 15.485 52.209 18.428 53.938 8.586 108.063 15.658 162.046 21.141 44.792 4.559 91.29 8.593 130.647 32.517" stroke="#5F6067"/><path opacity=".5" d="M-858.523 34.092c141.568-103.483 308.29-131.177 449.882-73.9 13.173 5.348 26.853 12.385 34.254 26.729 3.483 6.75 5.415 14.395 6.882 22.342 3.001 16.244 4.215 34.331 7.278 51.01 9.386 51.113 36.398 85.839 68.75 114.12 19.525 17.075 43.792 25.044 67.626 27.019 23.834 1.976 48.782-.056 73.688 1.366 17.264.987 34.598 3.865 51.906 6.702 10.204 1.68 20.726 3.651 29.48 9.099 8.754 5.447 15.194 12.401 23.04 18.359 14.444 10.965 33.45 15.011 51.857 17.897 53.405 8.417 107.021 15.207 160.515 20.277 44.386 4.22 90.527 7.849 129.362 31.817" stroke="#5A5C63"/><path opacity=".5" d="M-859.602 39.463C-717.506-63.593-550.529-90.832-408.698-33.252c13.207 5.384 26.914 12.427 34.45 26.729 3.55 6.736 5.565 14.384 7.113 22.348 3.158 16.264 4.501 34.406 7.711 51.089 9.859 51.198 37.572 85.636 70.283 113.747 19.434 16.705 43.389 24.755 66.942 27.03 23.553 2.274 48.285.731 72.936 2.401 17.072 1.158 34.219 4.094 51.35 6.971 10.101 1.7 20.501 3.681 29.222 8.953 8.56 5.174 15.29 11.986 23.171 17.741 14.46 10.56 33.262 14.535 51.506 17.366 52.878 8.249 105.986 14.748 158.983 19.412 43.974 3.88 89.766 7.097 128.077 31.116" stroke="#56585F"/><path opacity=".5" d="M-860.681 44.834C-718.056-57.8-550.82-84.571-408.762-26.704c13.249 5.421 26.978 12.462 34.646 26.735 3.614 6.73 5.714 14.374 7.343 22.355 3.316 16.283 4.789 34.474 8.15 51.175 10.326 51.283 38.737 85.44 71.815 113.376 19.344 16.334 42.982 24.458 66.267 27.034 23.972 2.651 47.79 1.511 72.191 3.431 16.882 1.328 33.842 4.316 50.788 7.238 9.99 1.726 20.277 3.711 28.959 8.806 8.68 5.095 15.378 11.562 23.294 17.121 14.475 10.156 33.075 14.06 51.148 16.834 52.343 8.087 104.944 14.296 157.452 18.547 43.56 3.54 89.003 6.353 126.793 30.409" stroke="#52545B"/><path opacity=".5" d="M-861.754 50.206c143.155-102.213 310.65-128.514 452.942-70.36 13.291 5.452 27.039 12.504 34.842 26.736 3.681 6.714 5.871 14.364 7.569 22.353 3.472 16.309 5.068 34.547 8.581 51.258 10.793 51.368 39.902 85.251 73.343 112.997 19.252 15.971 42.579 24.169 65.583 27.044 23.717 2.963 47.295 2.292 71.445 4.468 16.692 1.498 33.464 4.545 50.226 7.506 9.887 1.746 20.046 3.739 28.701 8.66 8.655 4.921 15.474 11.147 23.426 16.502 14.488 9.758 32.887 13.584 50.796 16.303 51.81 7.918 103.902 13.837 155.914 17.681 43.154 3.201 88.241 5.602 125.508 29.709" stroke="#4E4F57"/><path opacity=".5" d="M-862.834 55.577c143.684-101.792 311.44-127.63 453.963-69.174 13.333 5.489 27.102 12.538 35.032 26.733 3.746 6.708 6.007 14.358 7.8 22.36 3.6 16.336 5.356 34.615 9.02 51.344 11.266 51.454 41.057 85.067 74.875 112.625 19.16 15.614 42.17 23.879 64.901 27.048 23.455 3.272 46.799 3.079 70.701 5.498 16.501 1.668 33.084 4.774 49.663 7.773 9.777 1.772 19.822 3.769 28.437 8.513 8.615 4.744 15.569 10.731 23.556 15.883 14.498 9.353 32.702 13.103 50.445 15.772 51.284 7.751 102.86 13.385 154.383 16.817 42.741 2.86 87.473 4.849 124.231 29.003" stroke="#4A4B53"/><path opacity=".5" d="M-863.913 60.949C-719.708-40.419-551.685-65.792-408.928-7.047c13.368 5.524 27.164 12.578 35.23 26.732 3.812 6.694 6.156 14.348 8.029 22.367 3.764 16.357 5.644 34.683 9.454 51.422 11.733 51.538 42.212 84.889 76.408 112.253 19.066 15.257 41.761 23.582 64.217 27.058 22.456 3.476 46.304 3.859 69.955 6.534 16.31 1.839 32.706 5.003 49.108 8.035 9.675 1.793 19.599 3.799 28.18 8.368 8.55 4.554 15.658 10.314 23.688 15.264 14.51 8.955 32.513 12.628 50.087 15.24 50.75 7.582 101.819 12.926 152.849 15.958 42.329 2.521 86.711 4.105 122.946 28.304" stroke="#46474F"/><path opacity=".5" d="M-864.985 66.32C-720.251-34.623-551.967-59.535-408.979-.49c13.411 5.555 27.227 12.613 35.425 26.74 3.876 6.685 6.305 14.336 8.26 22.372 3.921 16.376 5.93 34.758 9.892 51.508 12.206 51.624 43.358 84.717 77.936 111.873 18.966 14.899 41.358 23.294 63.533 27.068 22.942 3.902 45.808 4.64 69.21 7.564 16.112 2.015 32.327 5.233 48.546 8.303 9.57 1.82 19.368 3.828 27.923 8.222 8.556 4.394 15.752 9.899 23.817 14.652 14.525 8.558 32.326 12.153 49.735 14.709 50.217 7.413 100.777 12.474 151.311 15.092 41.923 2.182 85.949 3.354 121.663 27.597" stroke="#42434C"/><path opacity=".5" d="M-866.065 71.692C-720.801-28.832-552.266-53.276-409.036 6.061c13.452 5.59 27.288 12.653 35.614 26.736 3.943 6.672 6.463 14.328 8.492 22.373 4.079 16.395 6.211 34.824 10.324 51.592 12.68 51.71 44.51 84.553 79.469 111.502 18.871 14.549 40.949 23.003 62.858 27.073 22.68 4.211 45.313 5.42 68.465 8.593 15.921 2.186 31.949 5.462 47.984 8.571 9.46 1.838 19.145 3.851 27.659 8.074 8.514 4.224 15.847 9.484 23.947 14.034 14.539 8.16 32.145 11.679 49.384 14.178 49.69 7.245 99.736 12.015 149.78 14.228 41.51 1.841 85.188 2.602 120.377 26.896" stroke="#3E3F48"/><path opacity=".5" d="M-867.137 77.064C-721.345-23.039-552.55-47.014-409.093 12.61c13.493 5.628 27.351 12.688 35.812 26.736 4.014 6.666 6.612 14.318 8.722 22.38 4.243 16.415 6.499 34.891 10.757 51.669 13.147 51.795 45.654 84.394 80.995 111.129 18.77 14.197 40.547 22.714 62.174 27.083 22.423 4.529 44.817 6.207 67.719 9.63 15.732 2.35 31.572 5.684 47.429 8.84 9.356 1.865 18.92 3.88 27.401 7.928 8.481 4.048 15.935 9.067 24.079 13.416 14.544 7.767 31.957 11.203 49.025 13.645 49.156 7.083 98.7 11.564 148.249 13.363 41.097 1.501 84.418 1.857 119.094 26.189" stroke="#393B44"/><path opacity=".5" d="M-868.216 82.435c146.32-99.675 315.377-123.194 459.065-63.269 13.536 5.658 27.414 12.723 36.008 26.736 4.081 6.652 6.769 14.309 8.953 22.386 4.4 16.442 6.785 34.966 11.196 51.755 13.62 51.881 46.787 84.248 82.529 110.751 18.675 13.847 40.137 22.424 61.492 27.086 22.168 4.841 44.321 6.988 66.975 10.66 15.541 2.52 31.193 5.913 46.865 9.107 9.248 1.885 18.692 3.903 27.145 7.783 8.453 3.881 16.028 8.658 24.202 12.796 14.558 7.37 31.772 10.721 48.675 13.114 48.622 6.914 97.658 11.105 146.71 12.497 40.691 1.162 83.656 1.106 117.808 25.489" stroke="#353740"/><path opacity=".5" d="M-869.296 87.807c146.85-99.255 316.166-122.305 460.088-62.09 13.57 5.693 27.475 12.763 36.197 26.74 4.145 6.644 6.918 14.298 9.184 22.385 4.564 16.463 7.073 35.035 11.628 51.84 14.095 51.96 47.928 84.102 84.061 110.379 18.573 13.502 39.735 22.135 60.809 27.096 21.904 5.158 43.826 7.769 66.229 11.697 15.35 2.691 30.814 6.142 46.303 9.375 9.144 1.912 18.468 3.932 26.88 7.636 8.55 3.76 16.117 8.24 24.334 12.176 14.57 6.98 31.584 10.246 48.323 12.584 48.095 6.746 96.616 10.653 145.179 11.632 40.278.822 82.893.361 116.531 24.783" stroke="#31333C"/><path opacity=".5" d="M-870.368 93.18c147.372-98.836 316.956-121.421 461.11-60.913 13.612 5.73 27.546 12.8 36.394 26.74 4.212 6.63 7.068 14.288 9.415 22.392 4.722 16.482 7.391 35.095 12.066 51.926 14.667 52.018 49.06 83.969 85.589 110 18.469 13.164 39.326 21.844 60.127 27.099 21.648 5.469 43.331 8.549 65.484 12.727 15.16 2.86 30.436 6.371 45.748 9.643 9.034 1.931 18.245 3.956 26.623 7.49 8.379 3.535 16.21 7.832 24.464 11.558 14.583 6.589 31.396 9.771 47.965 12.051a1149.094 1149.094 0 00143.647 10.768c39.866.482 82.132-.39 115.247 24.083" stroke="#2D2F38"/><path opacity=".5" d="M-871.447 98.55C-723.546.136-553.71-21.982-409.316 38.824c13.655 5.76 27.632 12.818 36.59 26.739 4.293 6.612 7.225 14.278 9.646 22.398 4.879 16.502 7.67 35.168 12.499 52.003 15.127 52.102 50.189 83.843 87.122 109.629 18.371 12.827 38.916 21.554 59.45 27.111 21.385 5.785 42.835 9.329 64.738 13.763 14.969 3.031 30.057 6.6 45.185 9.911 8.93 1.958 18.014 3.984 26.366 7.344 8.553 3.445 16.305 7.416 24.595 10.939 14.588 6.197 31.209 9.296 47.613 11.521a1080.046 1080.046 0 00142.116 9.902c39.46.144 81.371-1.141 113.963 23.376" stroke="#292B34"/><path opacity=".5" d="M-872.527 103.921C-724.096 5.928-554-15.727-409.38 45.371c13.697 5.798 27.694 12.86 36.786 26.746 4.358 6.605 7.374 14.268 9.878 22.399 5.043 16.522 7.957 35.235 12.937 52.088 15.593 52.193 51.311 83.722 88.648 109.256 18.268 12.489 38.514 21.265 58.767 27.121 20.253 5.855 42.341 10.103 63.993 14.793 14.779 3.202 29.678 6.829 44.624 10.172 8.828 1.978 17.791 4.007 26.103 7.197 8.31 3.19 16.391 7.006 24.724 10.327 14.599 5.812 31.02 8.82 47.261 10.989a1017.112 1017.112 0 00140.578 9.037c39.047-.197 80.601-1.887 112.678 22.676" stroke="#252730"/><path opacity=".5" d="M-873.599 109.294C-724.64 11.729-554.284-9.464-409.431 51.93c13.731 5.832 27.757 12.893 36.976 26.743 4.424 6.59 7.524 14.258 10.108 22.405 5.201 16.542 8.239 35.302 13.37 52.173 16.052 52.276 52.436 83.615 90.182 108.878 18.161 12.157 38.103 20.982 58.084 27.124 20.871 6.421 41.846 10.884 63.247 15.83 14.588 3.372 29.301 7.051 44.069 10.44 8.716 2.004 17.568 4.03 25.845 7.052 8.55 3.121 16.485 6.597 24.854 9.708 14.612 5.422 30.835 8.339 46.904 10.457a958.349 958.349 0 00139.047 8.172c38.634-.537 79.839-2.638 111.392 21.976" stroke="#21232C"/><path opacity=".5" d="M-874.678 114.665C-725.19 17.521-554.575-3.203-409.488 58.48c13.774 5.862 27.812 12.933 37.173 26.742 4.482 6.582 7.68 14.249 10.338 22.412 5.364 16.569 8.525 35.377 13.803 52.25 16.519 52.361 53.554 83.515 91.715 108.506 18.063 11.828 37.694 20.692 57.401 27.135 19.707 6.442 41.351 11.664 62.502 16.859 14.399 3.536 28.923 7.281 43.507 10.708 8.613 2.025 17.339 4.052 25.587 6.906 8.249 2.854 16.577 6.195 24.986 9.09 14.63 5.039 30.647 7.863 46.552 9.926a904.154 904.154 0 00137.516 7.307c38.22-.877 79.077-3.389 110.108 21.269" stroke="#1D1E28"/><path opacity=".5" d="M-875.757 120.036C-725.74 23.313-554.864 3.052-409.545 65.029c13.815 5.9 27.874 12.975 37.37 26.743 4.548 6.567 7.83 14.237 10.569 22.418 5.521 16.588 8.806 35.443 14.241 52.336 16.986 52.445 54.668 83.426 93.241 108.133 17.957 11.496 37.284 20.401 56.719 27.137 20.345 7.048 40.871 12.407 61.749 17.895 14.215 3.68 28.544 7.51 42.944 10.976 8.503 2.05 17.117 4.075 25.324 6.759 8.549 2.797 16.67 5.786 25.11 8.469 14.64 4.655 30.46 7.388 46.194 9.394a853.73 853.73 0 00135.977 6.441c37.815-1.216 78.315-4.133 108.83 20.57" stroke="#191A25"/><path opacity=".5" d="M-876.831 125.408c150.54-96.303 321.675-116.095 467.234-53.821 13.857 5.936 27.937 13.008 37.558 26.747 4.613 6.56 7.982 14.221 10.795 22.417 5.678 16.607 9.092 35.517 14.673 52.42 17.446 52.528 55.772 83.351 94.775 107.755 17.857 11.173 36.866 20.151 56.041 27.149 20.073 7.405 40.375 13.193 61.005 18.924 14.023 3.857 28.166 7.739 42.382 11.244 8.4 2.07 16.887 4.096 25.067 6.613 8.18 2.516 16.763 5.377 25.24 7.851 14.651 4.27 30.279 6.914 45.843 8.862a807.944 807.944 0 00134.446 5.577c37.402-1.556 77.553-4.885 107.546 19.862" stroke="#141621"/><path opacity=".5" d="M-877.909 130.779c151.067-95.876 322.464-115.212 468.256-52.642 13.892 5.965 27.998 13.05 37.755 26.746 4.678 6.553 8.138 14.212 11.024 22.423 5.843 16.628 9.374 35.584 15.112 52.506 17.913 52.613 56.885 83.277 96.308 107.384 17.755 10.856 36.458 19.854 55.359 27.152 19.818 7.716 39.88 13.974 60.261 19.955 13.831 4.027 27.787 7.967 41.826 11.512 8.29 2.096 16.666 4.113 24.81 6.467 8.547 2.467 16.855 4.975 25.37 7.232 14.668 3.895 30.092 6.439 45.492 8.332a764.526 764.526 0 00132.914 4.712c36.991-1.903 76.785-5.637 106.261 19.162" stroke="#10121D"/><path opacity=".5" d="M-878.989 136.15c151.597-95.455 323.253-114.321 469.272-51.465 13.934 6.002 28.054 13.083 37.952 26.746 4.744 6.539 8.287 14.201 11.255 22.43 6 16.647 9.659 35.658 15.545 52.583 18.378 52.705 57.985 83.222 97.834 107.011 17.653 10.539 36.049 19.564 54.676 27.162 19.555 8.026 39.382 14.761 59.514 20.991 13.648 4.199 27.408 8.197 41.264 11.78 8.186 2.117 16.436 4.135 24.545 6.32 8.549 2.299 16.95 4.567 25.502 6.614 14.678 3.51 29.905 5.956 45.133 7.799 43.314 5.237 87.247 6.551 131.383 3.847 36.585-2.242 76.022-6.382 104.978 18.455" stroke="#0C0E19"/><path opacity=".5" d="M-880.061 141.523c152.125-95.034 324.041-113.432 470.292-50.28 13.976 6.038 28.117 13.123 38.141 26.75 4.809 6.532 8.444 14.192 11.487 22.43 6.164 16.668 9.941 35.725 15.977 52.668 18.838 52.787 59.091 83.174 99.368 106.632 17.552 10.223 35.641 19.267 53.992 27.172 19.294 8.33 38.895 15.543 58.77 22.021 13.457 4.37 27.031 8.42 40.701 12.048 8.076 2.142 16.217 4.144 24.288 6.174 8.55 2.124 17.037 4.185 25.632 6.002 14.689 3.161 29.717 5.481 44.781 7.268 42.781 5.068 86.205 6.099 129.846 2.981 36.171-2.582 75.26-7.133 103.692 17.755" stroke="#080A15"/><path opacity=".5" d="M-881.141 146.894C-728.486 52.281-556.31 34.346-409.826 97.792c14.018 6.069 28.178 13.165 38.338 26.751 14.74 19.703 18.884 49.847 28.132 75.189 19.306 52.873 60.188 83.14 100.895 106.26 114.44 64.983 243.173 93.491 374.011 82.806 35.758-2.922 74.497-7.877 102.415 17.05" stroke="#040611"/></g></g><defs><clipPath id="clip0_2174_2096"><path fill="#fff" d="M0 0h305v129H0z"/></clipPath><clipPath id="clip1_2174_2096"><path fill="#fff" transform="rotate(11.937 1440.379 -3888.1)" d="M0 0h1265.07v594.423H0z"/></clipPath></defs></svg>