<svg width="114" height="24" viewBox="0 0 114 24" fill="none" xmlns="http://www.w3.org/2000/svg">
<g clip-path="url(#clip0_3_232)">
<path d="M23.4461 14.9025C21.8565 21.3323 15.3988 25.2435 9.02178 23.6408C2.6481 22.038 -1.2322 15.5265 0.358155 9.09825C1.94702 2.6685 8.40438 -1.24387 14.7792 0.358876C21.1555 1.96163 25.0357 8.47388 23.4461 14.9025Z" fill="#F7931A"/>
<path d="M17.1492 10.2903C17.3861 8.69353 16.1803 7.83515 14.5316 7.26253L15.0664 5.09953L13.7606 4.7714L13.2399 6.8774C12.8921 6.79124 12.5434 6.70848 12.194 6.62915L12.7184 4.50928L11.413 4.18115L10.8781 6.3434C10.594 6.27815 10.315 6.21365 10.0443 6.14578L10.0458 6.13903L8.24491 5.68565L7.89753 7.0919C7.89753 7.0919 8.8664 7.31578 8.84594 7.32965C9.37482 7.46278 9.4704 7.81565 9.45441 8.0954L8.8452 10.5595C8.88165 10.5689 8.92888 10.5828 8.98095 10.6034L8.84297 10.5689L7.98903 14.0208C7.92431 14.1828 7.76029 14.4258 7.39023 14.3335C7.40362 14.3527 6.44145 14.0947 6.44145 14.0947L5.79318 15.6022L7.49251 16.0297C7.80864 16.1092 8.11846 16.1928 8.42344 16.2715L7.88303 18.4593L9.18737 18.7874L9.7222 16.6225C10.0785 16.7204 10.4244 16.81 10.7628 16.8952L10.2295 19.0495L11.535 19.3777L12.0757 17.194C14.3025 17.6189 15.9769 17.4475 16.6817 15.4173C17.2496 13.7823 16.6534 12.8392 15.4818 12.2238C16.335 12.025 16.9777 11.4592 17.1492 10.2903ZM14.1652 14.5083C13.7617 16.1433 11.0314 15.2598 10.1462 15.0378L10.8633 12.1394C11.7484 12.3625 14.587 12.8035 14.1652 14.5083ZM14.5691 10.267C14.2009 11.7539 11.9285 10.9983 11.1913 10.813L11.8414 8.18428C12.5786 8.36953 14.9526 8.71565 14.5691 10.267Z" fill="white"/>
<path d="M34.8788 7.2603C35.844 7.2603 36.6778 7.43468 37.3782 7.77705C38.0826 8.1228 38.6635 8.58856 39.1296 9.1743C39.5893 9.76305 39.9314 10.4512 40.1524 11.2398C40.3718 12.0311 40.4819 12.8808 40.4819 13.7906C40.4819 15.1893 40.2279 16.5093 39.715 17.7543C39.2017 19.0012 38.5062 20.0831 37.621 21.0056C36.7366 21.9269 35.6922 22.6529 34.4879 23.1896C33.2855 23.7266 31.9782 23.9951 30.5745 23.9951C30.393 23.9951 30.0739 23.9898 29.6232 23.9804C29.1724 23.9711 28.6543 23.9242 28.0741 23.8454C27.4504 23.7556 26.8318 23.6332 26.2208 23.4787C25.5813 23.323 24.9601 23.0992 24.3675 22.8112L29.5789 0.73193L34.2466 0.00292969L32.3806 7.83781C32.7687 7.66097 33.1714 7.51892 33.5842 7.41331C34.0078 7.30947 34.4428 7.25809 34.8788 7.2603ZM30.9636 20.2616C31.6665 20.2616 32.3285 20.0872 32.9511 19.7452C33.5769 19.4002 34.1261 18.9298 34.5649 18.3629C35.0235 17.7718 35.3843 17.1099 35.6335 16.4028C35.8947 15.6719 36.0274 14.9005 36.0255 14.1236C36.0255 13.1516 35.8644 12.3948 35.5435 11.8462C35.2225 11.3006 34.6285 11.0261 33.7657 11.0261C33.483 11.0261 33.1193 11.0804 32.6677 11.1776C32.2147 11.2807 31.8093 11.4948 31.446 11.8169L29.4588 20.1374C29.5785 20.1588 29.6845 20.1791 29.7749 20.1982C29.8634 20.2188 29.9609 20.2334 30.0587 20.2436C30.1617 20.2552 30.2796 20.2612 30.4221 20.2612L30.9636 20.2616ZM45.3225 23.5728H40.8642L44.6292 7.59893H49.118L45.3225 23.5728ZM47.4919 5.65268C46.8837 5.65777 46.2908 5.4606 45.8049 5.09168C45.3002 4.71968 45.0499 4.14705 45.0499 3.3753C45.0499 2.9508 45.1354 2.55255 45.3054 2.1768C45.4696 1.81281 45.7 1.48302 45.9845 1.20443C46.2697 0.929975 46.6009 0.708675 46.9627 0.550805C47.3392 0.388559 47.7448 0.306102 48.1543 0.308555C48.7762 0.308555 49.337 0.495305 49.8399 0.869555C50.3405 1.24568 50.5923 1.8183 50.5923 2.58593C50.5947 3.00027 50.5071 3.41013 50.3357 3.78668C50.173 4.15102 49.9433 4.48097 49.6588 4.75905C49.3742 5.03386 49.0429 5.25465 48.6806 5.4108C48.3079 5.57505 47.9129 5.65268 47.4919 5.65268ZM53.025 3.61905L57.6946 2.88968L56.5479 7.59818H61.5488L60.6458 11.3024H55.675L54.351 16.8899C54.229 17.3553 54.1598 17.7903 54.1404 18.1949C54.1181 18.6011 54.1695 18.9498 54.29 19.2434C54.4097 19.5378 54.6247 19.7647 54.9371 19.9248C55.2484 20.0879 55.6936 20.1701 56.2775 20.1701C56.7584 20.1701 57.2274 20.1239 57.6797 20.0324C58.1444 19.9396 58.6018 19.813 59.0484 19.6537L59.3816 23.1168C58.7418 23.3504 58.0879 23.5427 57.4238 23.6924C56.7197 23.8559 55.8863 23.9343 54.923 23.9343C53.5379 23.9343 52.4642 23.7269 51.6991 23.3144C50.9352 22.8989 50.3952 22.3304 50.072 21.6112C49.7532 20.8949 49.6108 20.0688 49.6506 19.1377C49.6915 18.2047 49.8313 17.2237 50.072 16.1913L53.025 3.61905ZM61.3528 17.1944C61.3528 15.8182 61.5737 14.5211 62.0148 13.3061C62.4556 12.0903 63.0905 11.0272 63.9139 10.1152C64.7347 9.20768 65.7348 8.48806 66.9123 7.96006C68.0832 7.43506 69.3953 7.17031 70.8406 7.17031C71.7459 7.17031 72.5541 7.25656 73.2656 7.42943C73.9797 7.60381 74.6253 7.82918 75.2096 8.11193L73.6725 11.6369C73.2627 11.4709 72.8456 11.324 72.4224 11.1967C71.991 11.0628 71.4647 10.9983 70.8417 10.9983C69.3533 10.9983 68.1773 11.5158 67.3018 12.5463C66.4292 13.5779 65.99 14.9666 65.99 16.7088C65.99 17.7412 66.2113 18.5756 66.6546 19.2142C67.0957 19.8528 67.9106 20.1708 69.0937 20.1708C69.6772 20.1708 70.2411 20.1093 70.7807 19.9893C71.3245 19.8678 71.8047 19.7148 72.2275 19.5341L72.5608 23.1476C71.9508 23.3835 71.3272 23.5818 70.6933 23.7416C70.009 23.9103 69.1956 23.9973 68.252 23.9973C67.0068 23.9973 65.952 23.8139 65.0899 23.4517C64.2271 23.0846 63.5141 22.5967 62.9521 21.9787C62.3875 21.3592 61.9825 20.6354 61.7318 19.8056C61.4811 18.9757 61.3528 18.1031 61.3528 17.1944ZM81.1578 23.9962C80.0937 23.9962 79.1691 23.8327 78.3851 23.5091C77.6033 23.1858 76.9562 22.7313 76.4437 22.1426C75.9304 21.5568 75.547 20.8627 75.284 20.0628C75.0211 19.2633 74.8946 18.3779 74.8946 17.4078C74.8946 16.1913 75.088 14.9748 75.48 13.7609C75.8702 12.5459 76.4485 11.4532 77.2132 10.4823C77.973 9.50993 78.9103 8.71493 80.0127 8.09505C81.1147 7.4793 82.3818 7.16955 83.8059 7.16955C84.8507 7.16955 85.7697 7.33343 86.5649 7.65705C87.356 7.97993 88.0076 8.43781 88.5227 9.02355C89.0322 9.6123 89.4198 10.3034 89.6794 11.1048C89.9419 11.9024 90.0714 12.7901 90.0714 13.7609C90.0714 14.9737 89.8802 16.1909 89.5012 17.4074C89.1215 18.6187 88.558 19.7137 87.8142 20.6864C87.0718 21.6577 86.1438 22.4519 85.0284 23.0692C83.9153 23.6868 82.6236 23.9962 81.1578 23.9962ZM83.3857 10.9987C82.7247 10.9987 82.1405 11.1918 81.6402 11.5739C81.1381 11.9606 80.7167 12.4469 80.3768 13.0327C80.0331 13.6214 79.7787 14.2634 79.6065 14.9613C79.4354 15.6607 79.3518 16.3226 79.3518 16.9499C79.3518 17.9636 79.5143 18.7537 79.8327 19.3214C80.1555 19.8862 80.7364 20.1708 81.58 20.1708C82.2431 20.1708 82.8248 19.9784 83.3276 19.5926C83.8268 19.2089 84.2493 18.7226 84.5914 18.1349C84.9329 17.5499 85.1899 16.9057 85.3621 16.2063C85.5305 15.5092 85.6165 14.8443 85.6165 14.2173C85.6165 13.2063 85.455 12.4151 85.133 11.8477C84.8124 11.2826 84.2288 10.9987 83.3857 10.9987ZM94.9298 23.5728H90.4682L94.2332 7.59893H98.7238L94.9298 23.5728ZM97.0959 5.65268C96.4883 5.65786 95.8959 5.46066 95.4107 5.09168C94.9079 4.71968 94.6557 4.14705 94.6557 3.3753C94.6557 2.9508 94.7428 2.55255 94.9124 2.1768C95.0755 1.81238 95.3057 1.48243 95.5907 1.20443C95.8763 0.929877 96.2078 0.708573 96.57 0.550805C96.9451 0.388528 97.3494 0.306057 97.7576 0.308555C98.3813 0.308555 98.944 0.495305 99.4457 0.869555C99.9475 1.24568 100.2 1.8183 100.2 2.58593C100.2 3.01193 100.11 3.41168 99.9419 3.78668C99.7734 4.16168 99.5469 4.48455 99.2665 4.75905C98.9815 5.03322 98.6502 5.25392 98.2883 5.4108C97.9145 5.57505 97.5195 5.65268 97.0959 5.65268ZM101.937 8.3253C102.275 8.22556 102.653 8.10555 103.064 7.97505C103.521 7.83223 103.984 7.71159 104.452 7.61355C104.961 7.50105 105.536 7.40918 106.168 7.3383C106.799 7.26593 107.52 7.23068 108.32 7.23068C110.671 7.23068 112.292 7.92106 113.187 9.29768C114.081 10.6743 114.235 12.5579 113.655 14.9463L111.604 23.5713H107.117L109.105 15.1274C109.226 14.6006 109.32 14.0906 109.391 13.5926C109.462 13.0991 109.458 12.6637 109.375 12.2876C109.302 11.927 109.106 11.6039 108.82 11.3752C108.526 11.1431 108.081 11.0264 107.479 11.0264C106.882 11.0288 106.287 11.0906 105.702 11.2109L102.78 23.5702H98.2909L101.937 8.3253Z" fill="#4D4D4D"/>
</g>
<defs>
<clipPath id="clip0_3_232">
<rect width="114" height="24" fill="white"/>
</clipPath>
</defs>
</svg>
