<svg width="35" height="36" viewBox="0 0 35 36" fill="none" xmlns="http://www.w3.org/2000/svg">
<path d="M21.4063 29.0051C21.4063 31.2403 19.6029 33.0616 17.3896 33.0616C15.1764 33.0616 13.3679 31.2455 13.3679 29.0051V24.095H11.2622V29.0051C11.2622 32.4148 14.0083 35.1881 17.3845 35.1881C20.7607 35.1881 23.5068 32.4148 23.5068 29.0051V24.095H21.4012V29.0051H21.4063Z" fill="#1F8BC3"/>
<path d="M28.3739 11.729H23.512V13.8555H28.3739C30.5872 13.8555 32.3906 15.6768 32.3906 17.912C32.3906 20.1472 30.5872 21.9684 28.3739 21.9684H23.512V24.0949H28.3739C31.7502 24.0949 34.4963 21.3217 34.4963 17.912C34.4963 14.5023 31.7451 11.729 28.3739 11.729Z" fill="#1F8BC3"/>
<path d="M17.3844 0.635986C14.0082 0.635986 11.2621 3.40927 11.2621 6.81896V11.7291H6.40014C3.0239 11.7291 0.277832 14.5024 0.277832 17.9121C0.277832 21.3218 3.0239 24.0951 6.40014 24.0951H11.2621H13.3678H21.4062H23.5119V21.9685V13.8556V11.7291V6.81896C23.5067 3.40927 20.7607 0.635986 17.3844 0.635986ZM6.40014 21.9685C4.18689 21.9685 2.3835 20.1473 2.3835 17.9121C2.3835 15.6769 4.18689 13.8556 6.40014 13.8556H11.2621V21.9737H6.40014V21.9685ZM21.4062 21.9685H13.3678V13.8556H21.4062V21.9685ZM13.3678 11.7291V6.81896C13.3678 4.58378 15.1712 2.76251 17.3844 2.76251C19.5977 2.76251 21.4011 4.58378 21.4011 6.81896V11.7291H13.3678Z" fill="#EC325B"/>
</svg>
