<svg width="149" height="44" viewBox="0 0 149 44" fill="none" xmlns="http://www.w3.org/2000/svg">
<path d="M25.4063 33.0052C25.4063 35.2403 23.6029 37.0616 21.3897 37.0616C19.1764 37.0616 17.3679 35.2455 17.3679 33.0052V28.095H15.2623V33.0052C15.2623 36.4149 18.0083 39.1881 21.3846 39.1881C24.7608 39.1881 27.5069 36.4149 27.5069 33.0052V28.095H25.4012V33.0052H25.4063Z" fill="#1F8BC3"/>
<path d="M32.3739 15.7291H27.512V17.8556H32.3739C34.5872 17.8556 36.3906 19.6769 36.3906 21.912C36.3906 24.1472 34.5872 25.9685 32.3739 25.9685H27.512V28.095H32.3739C35.7502 28.095 38.4963 25.3217 38.4963 21.912C38.4963 18.5023 35.7451 15.7291 32.3739 15.7291Z" fill="#1F8BC3"/>
<path d="M21.3845 4.63593C18.0083 4.63593 15.2622 7.40921 15.2622 10.8189V15.7291H10.4003C7.02403 15.7291 4.27795 18.5023 4.27795 21.912C4.27795 25.3217 7.02403 28.095 10.4003 28.095H15.2622H17.3679H25.4063H27.512V25.9685V17.8556V15.7291V10.8189C27.5068 7.40921 24.7608 4.63593 21.3845 4.63593ZM10.4003 25.9685C8.18701 25.9685 6.38362 24.1472 6.38362 21.912C6.38362 19.6768 8.18701 17.8556 10.4003 17.8556H15.2622V25.9736H10.4003V25.9685ZM25.4063 25.9685H17.3679V17.8556H25.4063V25.9685ZM17.3679 15.7291V10.8189C17.3679 8.58371 19.1713 6.76245 21.3845 6.76245C23.5978 6.76245 25.4012 8.58371 25.4012 10.8189V15.7291H17.3679Z" fill="#EC325B"/>
<path d="M48.7223 17.3434C48.7223 18.4454 48.3586 19.2681 47.6259 19.801C46.9702 20.2874 46.089 20.5358 44.9772 20.5358H42.4719V10.1773H48.0255V12.0348H44.4495V14.12H44.9618C46.0992 14.12 46.9906 14.358 47.6413 14.8391C48.3637 15.3928 48.7223 16.231 48.7223 17.3434ZM46.7294 17.333C46.7294 16.7691 46.5552 16.381 46.2017 16.1585C45.9148 15.9878 45.4844 15.8998 44.9055 15.8998H44.4495V18.6783H44.9055C46.1248 18.6783 46.7294 18.2281 46.7294 17.333Z" fill="#014763"/>
<path d="M55.2698 21.0946V20.1167C54.2913 20.1167 53.405 19.858 52.616 19.3354C51.8219 18.8128 51.2481 18.0988 50.8843 17.1882C50.6487 16.6138 50.5308 15.993 50.5308 15.3307C50.5308 13.9699 50.9868 12.8368 51.8987 11.9365C52.8107 11.0362 53.9327 10.5861 55.275 10.5861V9.85138H57.2833V10.5861C58.2618 10.5861 59.143 10.8448 59.932 11.357C60.721 11.8693 61.2999 12.5781 61.6688 13.4784C61.8942 14.0527 62.0121 14.6736 62.0121 15.3359C62.0121 16.707 61.5612 17.8453 60.6544 18.7559C59.7476 19.6665 58.6256 20.1218 57.2884 20.1218V21.0997H55.2698V21.0946ZM52.6109 15.3152C52.6109 16.1378 52.8517 16.8363 53.3384 17.4003C53.8405 17.9953 54.486 18.2902 55.275 18.2902V12.4074C54.5065 12.428 53.8712 12.723 53.3691 13.2921C52.8619 13.8613 52.6109 14.5391 52.6109 15.3152ZM59.9423 15.3152C59.9423 14.5287 59.6861 13.8509 59.1789 13.2869C58.6717 12.723 58.0364 12.428 57.2782 12.4074V18.2902C58.0774 18.2902 58.7281 17.9901 59.2301 17.3848C59.7066 16.8208 59.9423 16.1275 59.9423 15.3152Z" fill="#014763"/>
<path d="M79.1084 10.1773V20.5306H77.1308V14.7512C77.1308 14.5235 77.1462 14.1717 77.1718 13.7112C77.2025 13.2455 77.2128 12.8989 77.2128 12.6712H77.182L74.4462 20.5358H73.0578L70.322 12.6712H70.2912C70.2912 12.8989 70.3066 13.2507 70.3322 13.7112C70.363 14.1769 70.3732 14.5235 70.3732 14.7512V20.5306H68.3956V10.1773H71.2493L73.7494 17.6745L76.2496 10.1773H79.1084Z" fill="#014763"/>
<path d="M86.5115 20.5358H80.9989V10.1773H86.5115V12.0348H83.038V14.3631H86.4706V16.2206H83.038V18.6524H86.5115V20.5358Z" fill="#014763"/>
<path d="M97.0193 20.5358H87.4798V18.6783H88.3354L91.1276 10.1773H93.3613L96.1535 18.6783H97.0244V20.5358H97.0193ZM94.1144 18.6783L92.2547 12.6919L90.3744 18.6783H94.1144Z" fill="#014763"/>
<path d="M106.39 20.5358H104.356V13.675L99.8269 20.5358H98.0747V10.1773H100.109V17.0174L104.638 10.1773H106.385V20.5358H106.39Z" fill="#014763"/>
<path d="M114.92 20.5358H112.886V16.5517C112.112 16.7328 111.528 16.826 111.129 16.826C110.12 16.826 109.336 16.5259 108.782 15.9257C108.224 15.3255 107.947 14.5132 107.947 13.4887V10.1825H109.915V13.4732C109.915 14.4718 110.401 14.9685 111.375 14.9685C111.892 14.9685 112.394 14.8754 112.891 14.6943V10.1773H114.925V20.5358H114.92Z" fill="#014763"/>
<path d="M124.291 20.5358H122.257V16.2051H118.87V20.5358H116.836V10.1773H118.87V14.3166H122.257V10.1773H124.291V20.5358Z" fill="#014763"/>
<path d="M134.527 20.5358H132.493V13.675L127.964 20.5358H126.212V10.1773H128.246V17.0174L132.775 10.1773H134.522V20.5358H134.527Z" fill="#014763"/>
<path d="M144.748 20.5358H142.714V13.675L138.185 20.5358H136.433V10.1773H138.467V17.0174L142.996 10.1773H144.743V20.5358H144.748Z" fill="#014763"/>
<path d="M47.1904 33.4657V32.4878C46.2119 32.4878 45.3256 32.2291 44.5366 31.7065C43.7425 31.1839 43.1687 30.4699 42.8049 29.5541C42.5693 28.9798 42.4514 28.3589 42.4514 27.6966C42.4514 26.3358 42.9074 25.2027 43.8193 24.3025C44.7313 23.4022 45.8533 22.952 47.1956 22.952V22.2173H49.2039V22.952C50.1824 22.952 51.0636 23.2107 51.8526 23.723C52.6416 24.2352 53.2205 24.944 53.5894 25.8443C53.8148 26.4186 53.9327 27.0395 53.9327 27.7018C53.9327 29.0729 53.4818 30.2112 52.575 31.1218C51.6682 32.0325 50.5462 32.4878 49.209 32.4878V33.4657H47.1904ZM44.5315 27.6811C44.5315 28.5038 44.7723 29.2023 45.259 29.7662C45.761 30.3612 46.4066 30.6562 47.1956 30.6562V24.7785C46.4271 24.7992 45.7918 25.0941 45.2897 25.6632C44.7825 26.2324 44.5315 26.905 44.5315 27.6811ZM51.8629 27.6811C51.8629 26.8946 51.6067 26.2168 51.0995 25.6529C50.5923 25.0889 49.957 24.794 49.1988 24.7733V30.6562C49.998 30.6562 50.6486 30.3561 51.1507 29.7507C51.6272 29.1867 51.8629 28.4986 51.8629 27.6811Z" fill="#014763"/>
<path d="M62.2734 25.7408C62.2734 26.8326 61.9352 27.6811 61.2641 28.2865C60.5929 28.8918 59.7117 29.1919 58.6153 29.1919H57.3294V32.9017H55.2955V22.5485H58.3848C58.9996 22.5485 59.517 22.6002 59.9372 22.7089C60.68 22.8899 61.2538 23.2521 61.6586 23.7851C62.0684 24.3232 62.2734 24.9751 62.2734 25.7408ZM58.4053 24.4059H57.3294V27.3396H58.3899C59.6502 27.3396 60.2804 26.8533 60.2804 25.8805C60.2804 25.3476 60.096 24.9544 59.722 24.706C59.4146 24.5042 58.974 24.4059 58.4053 24.4059Z" fill="#014763"/>
<path d="M74.0927 27.6966C74.0927 29.223 73.5753 30.501 72.5455 31.5409C71.5157 32.5809 70.2554 33.1035 68.7645 33.1035C67.2737 33.1035 66.0133 32.5757 64.9836 31.5202C63.9538 30.4647 63.4363 29.1919 63.4363 27.6966C63.4363 26.2013 63.9589 24.9337 65.0092 23.8989C66.0595 22.8641 67.3147 22.3467 68.7748 22.3467C70.2657 22.3467 71.5209 22.8693 72.5506 23.9092C73.5804 24.9492 74.0927 26.2117 74.0927 27.6966ZM72.0178 27.6811C72.0178 26.7601 71.7002 25.9582 71.07 25.2804C70.4398 24.5974 69.6714 24.2611 68.7697 24.2611C67.8577 24.2611 67.0892 24.6026 66.4642 25.2907C65.8392 25.9737 65.5266 26.7808 65.5266 27.7018C65.5266 28.6435 65.8392 29.461 66.4642 30.1543C67.0892 30.8476 67.8577 31.1943 68.7697 31.1943C69.7277 31.1943 70.5167 30.8424 71.1315 30.144C71.7207 29.461 72.0178 28.6435 72.0178 27.6811Z" fill="#014763"/>
<path d="M83.038 32.9017H80.9989V28.571H77.6124V32.9017H75.5785V22.5485H77.6124V26.6877H80.9989V22.5485H83.0328V32.9017H83.038Z" fill="#014763"/>
<path d="M90.0568 24.4059H88.1919V32.9069H86.158V24.4059H84.2778V22.5485H90.0568V24.4059Z" fill="#014763"/>
<path d="M139.732 12.8006L141.807 9.65475H139.732V12.8006Z" fill="#014763"/>
</svg>
