<svg width="52" height="40" viewBox="0 0 52 40" fill="none" xmlns="http://www.w3.org/2000/svg">
<g clip-path="url(#clip0_3_215)">
<path d="M50.9753 39.4576V39.5604H51.0723C51.0905 39.5607 51.1085 39.5562 51.1243 39.5473C51.1306 39.5429 51.1357 39.537 51.1391 39.5301C51.1426 39.5233 51.1442 39.5156 51.1438 39.508C51.1441 39.5005 51.1425 39.493 51.1391 39.4863C51.1357 39.4796 51.1306 39.4739 51.1243 39.4697C51.1087 39.4604 51.0906 39.4558 51.0723 39.4566H50.9753V39.4576ZM51.0734 39.3849C51.1149 39.3823 51.1561 39.3942 51.1898 39.4183C51.2034 39.4292 51.2141 39.4432 51.2212 39.459C51.2283 39.4748 51.2315 39.492 51.2307 39.5093C51.2313 39.5242 51.2287 39.539 51.223 39.5528C51.2174 39.5666 51.2088 39.579 51.1979 39.5892C51.1719 39.6116 51.1392 39.625 51.1048 39.6275L51.2348 39.7741H51.1347L51.0151 39.6286H50.9764V39.7741H50.8927V39.3851H51.0747L51.0734 39.3849ZM51.0474 39.9083C51.0913 39.9087 51.1348 39.8999 51.175 39.8826C51.2138 39.866 51.2491 39.8424 51.279 39.8129C51.309 39.7834 51.3329 39.7485 51.3495 39.7101C51.3836 39.6286 51.3836 39.537 51.3495 39.4556C51.3327 39.4172 51.3088 39.3824 51.279 39.3527C51.2491 39.3232 51.2138 39.2996 51.175 39.2831C51.1345 39.2667 51.0911 39.2584 51.0474 39.2589C51.0029 39.2585 50.9587 39.2667 50.9174 39.2831C50.8777 39.2993 50.8416 39.3229 50.811 39.3527C50.765 39.3994 50.7339 39.4584 50.7216 39.5224C50.7092 39.5864 50.7162 39.6525 50.7416 39.7126C50.7574 39.7512 50.7811 39.7862 50.811 39.8155C50.8416 39.8452 50.8777 39.8689 50.9174 39.8851C50.9584 39.9025 51.0027 39.9112 51.0474 39.9108M51.0474 39.1653C51.1616 39.1652 51.2714 39.2095 51.3529 39.2887C51.3922 39.3267 51.4234 39.3721 51.4449 39.4221C51.4671 39.4735 51.4786 39.5288 51.4786 39.5847C51.4786 39.6406 51.4671 39.6959 51.4449 39.7473C51.4229 39.7971 51.3917 39.8424 51.3529 39.8808C51.313 39.9186 51.2666 39.949 51.2158 39.9707C51.1626 39.9931 51.1052 40.0045 51.0474 40.0041C50.9888 40.0046 50.9308 39.9932 50.8768 39.9707C50.8255 39.9495 50.7787 39.919 50.7387 39.8808C50.6999 39.841 50.6691 39.7942 50.648 39.743C50.6258 39.6916 50.6143 39.6363 50.6143 39.5804C50.6143 39.5245 50.6258 39.4692 50.648 39.4178C50.6695 39.3677 50.7007 39.3224 50.74 39.2844C50.7794 39.2454 50.8264 39.2148 50.8781 39.1944C50.9321 39.1719 50.9901 39.1605 51.0487 39.161M11.2362 37.6633C11.2362 36.9216 11.7276 36.3124 12.5307 36.3124C13.2982 36.3124 13.8161 36.8954 13.8161 37.6633C13.8161 38.4311 13.2982 39.0142 12.5307 39.0142C11.7276 39.0142 11.2362 38.4049 11.2362 37.6633ZM14.691 37.6633V35.5527H13.7631V36.0669C13.4688 35.6869 13.0224 35.4486 12.4153 35.4486C11.2193 35.4486 10.2807 36.3761 10.2807 37.6643C10.2807 38.9525 11.2187 39.88 12.4153 39.88C13.0221 39.88 13.4688 39.6414 13.7631 39.2617V39.7741H14.69V37.6633H14.691ZM46.045 37.6633C46.045 36.9216 46.5364 36.3124 47.3398 36.3124C48.1081 36.3124 48.6252 36.8954 48.6252 37.6633C48.6252 38.4311 48.1081 39.0142 47.3398 39.0142C46.5366 39.0142 46.045 38.4049 46.045 37.6633ZM49.5009 37.6633V33.8586H48.5722V36.0669C48.2778 35.6869 47.8314 35.4486 47.2243 35.4486C46.0283 35.4486 45.0897 36.3761 45.0897 37.6643C45.0897 38.9525 46.0278 39.88 47.2243 39.88C47.8314 39.88 48.2778 39.6414 48.5722 39.2617V39.7741H49.5009V37.6633ZM26.208 36.2689C26.806 36.2689 27.19 36.6396 27.288 37.2923H25.0739C25.1729 36.6831 25.5471 36.2689 26.2083 36.2689M26.2267 35.4463C24.9761 35.4463 24.1012 36.346 24.1012 37.662C24.1012 39.0036 25.0112 39.8777 26.2889 39.8777C26.9316 39.8777 27.5202 39.7191 28.0381 39.2864L27.5834 38.6065C27.2256 38.8892 26.7701 39.0478 26.3419 39.0478C25.7439 39.0478 25.1995 38.7741 25.0656 38.0144H28.2342C28.2433 37.9003 28.2526 37.7851 28.2526 37.6617C28.2433 36.3463 27.4206 35.446 26.2262 35.446M37.4296 37.6617C37.4296 36.9201 37.921 36.3108 38.7241 36.3108C39.4917 36.3108 40.0096 36.8939 40.0096 37.6617C40.0096 38.4296 39.4917 39.0126 38.7241 39.0126C37.921 39.0126 37.4293 38.4034 37.4293 37.6617M40.8842 37.6617V35.5527H39.9568V36.0669C39.6614 35.6869 39.2161 35.4486 38.609 35.4486C37.413 35.4486 36.4744 36.3761 36.4744 37.6643C36.4744 38.9525 37.4124 39.88 38.609 39.88C39.2161 39.88 39.6614 39.6414 39.9568 39.2617V39.7741H40.8845V37.6633L40.8842 37.6617ZM32.1893 37.6617C32.1893 38.9417 33.0905 39.8774 34.4659 39.8774C35.1086 39.8774 35.5368 39.736 35.9999 39.3743L35.5542 38.6327C35.2058 38.8802 34.84 39.0126 34.4362 39.0126C33.6955 39.0036 33.1508 38.4741 33.1508 37.6617C33.1508 36.8494 33.6955 36.3201 34.4362 36.3108C34.839 36.3108 35.2048 36.4432 35.5542 36.6908L35.9999 35.9491C35.536 35.5874 35.1078 35.446 34.4659 35.446C33.0905 35.446 32.1893 36.3815 32.1893 37.6617ZM44.1519 35.446C43.6166 35.446 43.2679 35.6936 43.0269 36.0643V35.5527H42.1073V39.7718H43.0362V37.4067C43.0362 36.7085 43.3397 36.3206 43.9462 36.3206C44.1449 36.3178 44.3421 36.3538 44.5266 36.4268L44.8126 35.562C44.6072 35.482 44.3394 35.4468 44.1514 35.4468M19.2787 35.8882C18.8323 35.5972 18.2172 35.4468 17.5386 35.4468C16.4575 35.4468 15.7615 35.9592 15.7615 36.7975C15.7615 37.4854 16.2796 37.9098 17.2338 38.0422L17.6722 38.1039C18.181 38.1746 18.4213 38.307 18.4213 38.5453C18.4213 38.8715 18.0833 39.0576 17.4486 39.0576C16.8059 39.0576 16.342 38.8545 16.0293 38.6162L15.5932 39.3317C16.1021 39.7023 16.7448 39.8792 17.4408 39.8792C18.6732 39.8792 19.3874 39.3054 19.3874 38.5021C19.3874 37.7604 18.8253 37.3725 17.8966 37.2401L17.4593 37.1774C17.0576 37.126 16.7357 37.046 16.7357 36.7633C16.7357 36.4548 17.0391 36.2692 17.5482 36.2692C18.0929 36.2692 18.6202 36.4723 18.8786 36.6309L19.2803 35.8892L19.2787 35.8882ZM31.252 35.4476C30.7167 35.4476 30.368 35.6951 30.128 36.0658V35.5527H29.2084V39.7718H30.1363V37.4067C30.1363 36.7085 30.4398 36.3206 31.0463 36.3206C31.245 36.3178 31.4422 36.3538 31.6267 36.4268L31.9127 35.562C31.7073 35.482 31.4395 35.4468 31.2515 35.4468M23.3334 35.5527H21.8161V34.2728H20.878V35.5527H20.0125V36.3913H20.878V38.316C20.878 39.2949 21.2623 39.8779 22.36 39.8779C22.7627 39.8779 23.2266 39.7545 23.5209 39.5517L23.2528 38.7661C22.9759 38.9247 22.6725 39.0047 22.4312 39.0047C21.9674 39.0047 21.8161 38.7219 21.8161 38.2985V36.3921H23.3334V35.5527ZM9.46011 39.7728V37.125C9.46011 36.1278 8.81739 35.4568 7.78129 35.4478C7.23659 35.4389 6.67473 35.6065 6.28135 36.1985C5.98703 35.7306 5.52319 35.4478 4.87111 35.4478C4.41533 35.4478 3.96995 35.5802 3.62129 36.0743V35.5527H2.69257V39.7718H3.62857V37.4324C3.62857 36.7 4.03937 36.3108 4.67377 36.3108C5.28997 36.3108 5.60171 36.708 5.60171 37.4232V39.7712H6.53979V37.4319C6.53979 36.6995 6.96801 36.3103 7.58395 36.3103C8.21757 36.3103 8.51995 36.7075 8.51995 37.4227V39.7707L9.46011 39.7728Z" fill="#231F20"/>
<path d="M51.5044 25.7383V25.1213H51.3419L51.154 25.5447L50.967 25.1213H50.804V25.7383H50.9194V25.2735L51.0952 25.6746H51.2148L51.3906 25.2725V25.7383H51.505H51.5044ZM50.4735 25.7383V25.227H50.6815V25.1229H50.1501V25.227H50.3581V25.7383H50.4725H50.4735Z" fill="#F79410"/>
<path d="M33.0348 28.3844H18.9725V3.39722H33.0351L33.0348 28.3844Z" fill="#FF5F00"/>
<path d="M19.864 15.891C19.864 10.8224 22.2643 6.30723 26.0021 3.39746C23.1728 1.19167 19.6734 -0.0054906 16.0703 -0.000226857C7.19472 -0.000226857 0 7.11443 0 15.891C0 24.6676 7.19472 31.7823 16.0703 31.7823C19.6735 31.7876 23.173 30.5905 26.0023 28.3846C22.2648 25.4754 19.864 20.9599 19.864 15.891Z" fill="#EB001B"/>
<path d="M52.0065 15.8913C52.0065 24.6679 44.8118 31.7825 35.9362 31.7825C32.3327 31.7878 28.8328 30.5906 26.0029 28.3849C29.7417 25.4751 32.142 20.9602 32.142 15.8913C32.142 10.8224 29.7417 6.30747 26.0029 3.3977C28.8327 1.19198 32.3325 -0.00515419 35.9359 1.66811e-05C44.8115 1.66811e-05 52.0062 7.11467 52.0062 15.8913" fill="#F79E1B"/>
</g>
<defs>
<clipPath id="clip0_3_215">
<rect width="52" height="40" fill="white"/>
</clipPath>
</defs>
</svg>
