<svg width="174" height="16" viewBox="0 0 174 16" fill="none" xmlns="http://www.w3.org/2000/svg">
<g clip-path="url(#clip0_3_180)">
<path fill-rule="evenodd" clip-rule="evenodd" d="M11.7043 11.3334V5.74938C11.7043 4.16538 10.8753 3.41338 9.48333 3.41338C8.32593 3.41338 7.32494 4.11738 6.88701 4.82138C6.60548 3.94138 5.90166 3.41338 4.79119 3.41338C3.6338 3.41338 2.63281 4.14938 2.32 4.61338V3.60538H0.333664V11.3334H2.32V6.13338C2.61717 5.70138 3.19587 5.22138 3.88405 5.22138C4.69735 5.22138 5.01016 5.73338 5.01016 6.45338V11.3334H7.01214V6.11738C7.29366 5.70138 7.87236 5.22138 8.57618 5.22138C9.38948 5.22138 9.70229 5.73338 9.70229 6.45338V11.3334H11.7043ZM17.1628 11.5254C14.676 11.5254 13.1745 9.66938 13.1745 7.46138C13.1745 5.26938 14.676 3.41338 17.1628 3.41338C19.6653 3.41338 21.1667 5.26938 21.1667 7.46138C21.1667 9.66938 19.6653 11.5254 17.1628 11.5254ZM17.1628 9.71738C18.3984 9.71738 19.1022 8.67738 19.1022 7.46138C19.1022 6.26138 18.3984 5.22138 17.1628 5.22138C15.9272 5.22138 15.239 6.26138 15.239 7.46138C15.239 8.67738 15.9272 9.71738 17.1628 9.71738ZM29.7221 11.3334V5.87738C29.7221 4.37338 28.9244 3.41338 27.2665 3.41338C26.0309 3.41338 25.1081 4.02138 24.6233 4.61338V3.60538H22.6369V11.3334H24.6233V6.13338C24.9517 5.66938 25.5617 5.22138 26.3437 5.22138C27.1883 5.22138 27.7357 5.58938 27.7357 6.66138V11.3334H29.7221ZM35.1962 11.5254C32.7094 11.5254 31.2079 9.66938 31.2079 7.46138C31.2079 5.26938 32.7094 3.41338 35.1962 3.41338C37.6987 3.41338 39.2002 5.26938 39.2002 7.46138C39.2002 9.66938 37.6987 11.5254 35.1962 11.5254ZM35.1962 9.71738C36.4318 9.71738 37.1356 8.67738 37.1356 7.46138C37.1356 6.26138 36.4318 5.22138 35.1962 5.22138C33.9606 5.22138 33.2724 6.26138 33.2724 7.46138C33.2724 8.67738 33.9606 9.71738 35.1962 9.71738ZM42.6567 8.85338C42.9852 9.34938 43.7203 9.71738 44.3615 9.71738C45.5189 9.71738 46.2853 8.82138 46.2853 7.47738C46.2853 6.13338 45.5189 5.22138 44.3615 5.22138C43.7203 5.22138 42.9852 5.60538 42.6567 6.11738V8.85338ZM42.6567 11.3334H40.6704V0.661377H42.6567V4.59738C43.2511 3.81338 44.0956 3.41338 44.9871 3.41338C46.9109 3.41338 48.3342 4.94938 48.3342 7.47738C48.3342 10.0534 46.8953 11.5254 44.9871 11.5254C44.08 11.5254 43.2511 11.1094 42.6567 10.3414V11.3334ZM56.3578 11.3334H54.3714V10.5334C53.8553 11.1574 52.9638 11.5254 51.9784 11.5254C50.7741 11.5254 49.3508 10.6934 49.3508 8.96538C49.3508 7.15738 50.7741 6.46938 51.9784 6.46938C52.9794 6.46938 53.8709 6.80538 54.3714 7.41338V6.37338C54.3714 5.58938 53.7145 5.07738 52.7135 5.07738C51.9002 5.07738 51.1495 5.38138 50.5082 5.98938L49.7575 4.62938C50.6803 3.79738 51.8689 3.41338 53.0576 3.41338C54.7781 3.41338 56.3578 4.11738 56.3578 6.34138V11.3334ZM52.7761 10.1494C53.4174 10.1494 54.043 9.92538 54.3714 9.47738V8.51738C54.043 8.06938 53.4174 7.84538 52.7761 7.84538C51.9941 7.84538 51.3528 8.26138 51.3528 9.01338C51.3528 9.73338 51.9941 10.1494 52.7761 10.1494ZM65.4136 11.3334V5.87738C65.4136 4.37338 64.6159 3.41338 62.958 3.41338C61.7224 3.41338 60.7996 4.02138 60.3148 4.61338V3.60538H58.3284V11.3334H60.3148V6.13338C60.6432 5.66938 61.2532 5.22138 62.0352 5.22138C62.8798 5.22138 63.4272 5.58938 63.4272 6.66138V11.3334H65.4136ZM74.7666 11.3334L71.6854 7.10938L74.6727 3.60538H72.2328L69.3706 7.04538V0.661377H67.3843V11.3334H69.3706V9.34938L70.2778 8.35738L72.2797 11.3334H74.7666Z" fill="#828282"/>
<g opacity="0.6">
<path fill-rule="evenodd" clip-rule="evenodd" d="M167.983 2.12133H169.61V7.41599H169.702L171.818 4.87266L173.319 4.86866L170.998 7.64866L173.794 11.1253H171.92L169.634 7.88933H169.61V11.1253H167.983V2.12133ZM90.6266 2.52399V7.46133C90.6266 9.14333 91.1134 10.0627 92.4774 10.0627C93.7828 10.0627 94.3048 8.94799 94.3048 7.55866V2.52399H95.8427V7.86599C95.8427 10.038 94.452 11.2687 92.4292 11.2687C90.1131 11.2687 88.9088 10.124 88.9088 7.77999V2.52399H90.6266ZM99.4374 5.70466C99.9881 5.11599 100.754 4.83333 101.523 4.83333C102.949 4.83333 103.704 5.61733 103.704 7.16466V11.12H102.086V7.35066C102.086 6.48999 101.709 5.92466 100.866 5.92466C100.073 5.92466 99.4511 6.45333 99.4511 7.46133V11.12H97.831V4.97933H99.4374V5.70466ZM105.608 11.12H107.229V4.97933H105.608V11.12ZM105.449 3.13799C105.449 2.67199 105.838 2.19199 106.389 2.19199C106.949 2.19199 107.386 2.65933 107.386 3.13799C107.386 3.66533 107.011 4.16933 106.412 4.16933C105.839 4.16933 105.449 3.66533 105.449 3.13799ZM110.815 11.12L108.221 4.95333H109.938C110.463 6.36599 111.008 7.69466 111.519 9.40133H111.544C112.094 7.69466 112.613 6.36599 113.172 4.95333H114.693L111.947 11.12H110.815ZM119.515 7.31399C119.578 6.37799 119.249 5.74133 118.446 5.74133C117.516 5.74133 117.099 6.48999 117.117 7.31399H119.515ZM117.09 8.19799C117.054 9.35333 117.858 10.2113 118.869 10.2113C119.47 10.2113 120.101 10.0027 120.505 9.71933L120.968 10.58C120.139 11.0707 119.272 11.2687 118.578 11.2687C116.737 11.2687 115.361 9.95333 115.361 7.92733C115.361 6.03533 116.724 4.83333 118.468 4.83333C120.37 4.83333 121.163 6.36733 121.043 8.19799H117.09ZM124.224 6.05999H124.246L124.576 5.58133C124.757 5.30999 125.124 4.83333 125.623 4.83333C125.989 4.83333 126.381 5.02999 126.722 5.38466L126.111 6.51466C125.843 6.37799 125.672 6.30599 125.345 6.30599C124.783 6.30599 124.235 6.76066 124.235 8.08599V11.12H122.609V4.97933H124.224V6.05999ZM131.049 6.13333C130.684 5.86333 130.306 5.74133 130.011 5.74133C129.646 5.74133 129.28 5.94933 129.28 6.36733C129.28 6.85866 129.867 7.14199 130.548 7.64333C131.416 8.29733 131.67 8.93533 131.67 9.49733C131.67 10.36 130.73 11.2687 129.391 11.2687C128.55 11.2687 127.928 10.9727 127.357 10.568L127.869 9.71933C128.232 10.016 128.755 10.3087 129.193 10.3087C129.66 10.3087 130.073 10.0627 130.073 9.54733C130.073 8.96999 129.438 8.65133 128.855 8.23333C128.159 7.75533 127.685 7.28799 127.685 6.52799C127.685 5.55599 128.609 4.83333 129.803 4.83333C130.477 4.83333 131.133 5.00399 131.575 5.39866L131.049 6.13333ZM135.667 7.85333C134.875 8.11133 134.473 8.56533 134.473 9.26466C134.473 9.80599 134.815 10.1747 135.208 10.1747C135.851 10.1747 136.693 9.36333 136.572 7.55866L135.667 7.85333ZM136.181 10.5313C135.742 10.9 135.181 11.2687 134.622 11.2687C133.67 11.2687 132.875 10.5313 132.875 9.40133C132.875 8.23333 133.719 7.58333 135.133 7.16466L136.572 6.73466C136.488 6.17066 135.986 5.81533 135.465 5.81533C134.767 5.81533 134.279 6.07333 133.853 6.44199L133.327 5.66799C134.085 5.04199 134.827 4.83333 135.667 4.83333C136.791 4.83333 138.169 5.19933 138.169 7.11733V9.62133C138.169 10.1133 138.228 10.692 138.425 11.12H136.707C136.582 10.9107 136.547 10.556 136.547 10.224L136.181 10.5313ZM139.985 11.12H141.608V2.09399H139.985V11.12ZM155.967 7.85333C155.173 8.11133 154.771 8.56533 154.771 9.26466C154.771 9.80599 155.11 10.1747 155.503 10.1747C156.146 10.1747 156.988 9.36333 156.87 7.55866L155.967 7.85333ZM156.475 10.5313C156.038 10.9 155.477 11.2687 154.915 11.2687C153.966 11.2687 153.172 10.5313 153.172 9.40133C153.172 8.23333 154.013 7.58333 155.43 7.16466L156.87 6.73466C156.781 6.17066 156.283 5.81533 155.755 5.81533C155.063 5.81533 154.574 6.07333 154.148 6.44199L153.623 5.66799C154.379 5.04199 155.124 4.83333 155.967 4.83333C157.086 4.83333 158.462 5.19933 158.462 7.11733V9.62133C158.462 10.1133 158.522 10.692 158.717 11.12H157.001C156.88 10.9107 156.84 10.556 156.84 10.224L156.475 10.5313ZM161.888 5.70466C162.438 5.11599 163.207 4.83333 163.974 4.83333C165.4 4.83333 166.155 5.61733 166.155 7.16466V11.12H164.534V7.35066C164.534 6.48999 164.156 5.92466 163.315 5.92466C162.522 5.92466 161.901 6.45333 161.901 7.46133V11.12H160.28V4.97933H161.888V5.70466ZM147.522 10.086H148.399C149.351 10.086 150.072 9.58333 150.072 8.62666C150.072 7.61866 149.328 7.18933 148.389 7.18933H147.522V10.086ZM147.522 6.13333H148.061C149.05 6.13333 149.721 5.49533 149.721 4.69533C149.721 3.93533 149.157 3.60466 148.414 3.60466H147.521L147.522 6.13333ZM145.805 11.1433V2.54733H148.89C150.327 2.54733 151.34 3.20999 151.34 4.37666C151.34 5.75133 150.231 6.31799 149.634 6.47666V6.50133C150.695 6.55133 151.876 7.28666 151.876 8.60066C151.876 10.086 150.644 11.1433 148.635 11.1433H145.805Z" fill="#828282"/>
</g>
<path opacity="0.4" fill-rule="evenodd" clip-rule="evenodd" d="M81.4607 0H82.1124V16H81.4607V0Z" fill="#828282"/>
</g>
<defs>
<clipPath id="clip0_3_180">
<rect width="174" height="16" fill="white"/>
</clipPath>
</defs>
</svg>
