<svg width="67" height="22" viewBox="0 0 67 22" fill="none" xmlns="http://www.w3.org/2000/svg">
<path fill-rule="evenodd" clip-rule="evenodd" d="M8.86026 7.85862V3.74669C8.86026 2.58027 8.21433 2.02651 7.12965 2.02651C6.22778 2.02651 5.44778 2.54492 5.10653 3.06333C4.88716 2.41532 4.33873 2.02651 3.47342 2.02651C2.57155 2.02651 1.79155 2.56848 1.5478 2.91016V2.16789H0V7.85862H1.5478V4.02946C1.77937 3.71134 2.2303 3.35788 2.76655 3.35788C3.40029 3.35788 3.64404 3.7349 3.64404 4.2651V7.85862H5.20403V4.01767C5.42341 3.71134 5.87434 3.35788 6.42278 3.35788C7.05652 3.35788 7.30027 3.7349 7.30027 4.2651V7.85862H8.86026ZM13.1137 8C11.1759 8 10.0059 6.63329 10.0059 5.00736C10.0059 3.39323 11.1759 2.02651 13.1137 2.02651C15.0637 2.02651 16.2337 3.39323 16.2337 5.00736C16.2337 6.63329 15.0637 8 13.1137 8ZM13.1137 6.66863C14.0765 6.66863 14.6249 5.9028 14.6249 5.00736C14.6249 4.12371 14.0765 3.35788 13.1137 3.35788C12.1509 3.35788 11.6146 4.12371 11.6146 5.00736C11.6146 5.9028 12.1509 6.66863 13.1137 6.66863ZM22.9002 7.85862V3.84094C22.9002 2.73343 22.2786 2.02651 20.9868 2.02651C20.024 2.02651 19.3049 2.47423 18.9271 2.91016V2.16789H17.3793V7.85862H18.9271V4.02946C19.183 3.68778 19.6583 3.35788 20.2677 3.35788C20.9258 3.35788 21.3524 3.62887 21.3524 4.41826V7.85862H22.9002ZM27.1658 8C25.228 8 24.058 6.63329 24.058 5.00736C24.058 3.39323 25.228 2.02651 27.1658 2.02651C29.1158 2.02651 30.2858 3.39323 30.2858 5.00736C30.2858 6.63329 29.1158 8 27.1658 8ZM27.1658 6.66863C28.1286 6.66863 28.677 5.9028 28.677 5.00736C28.677 4.12371 28.1286 3.35788 27.1658 3.35788C26.203 3.35788 25.6667 4.12371 25.6667 5.00736C25.6667 5.9028 26.203 6.66863 27.1658 6.66863ZM32.9792 6.0324C33.2351 6.39764 33.8079 6.66863 34.3076 6.66863C35.2095 6.66863 35.8067 6.00884 35.8067 5.01915C35.8067 4.02946 35.2095 3.35788 34.3076 3.35788C33.8079 3.35788 33.2351 3.64065 32.9792 4.01767V6.0324ZM32.9792 7.85862H31.4314V0H32.9792V2.89838C33.4423 2.32106 34.1004 2.02651 34.7951 2.02651C36.2942 2.02651 37.4032 3.15758 37.4032 5.01915C37.4032 6.91605 36.282 8 34.7951 8C34.0883 8 33.4423 7.69367 32.9792 7.12813V7.85862ZM43.6554 7.85862H42.1076V7.26951C41.7054 7.72901 41.0107 8 40.2429 8C39.3045 8 38.1954 7.38733 38.1954 6.11488C38.1954 4.78351 39.3045 4.27688 40.2429 4.27688C41.0229 4.27688 41.7176 4.5243 42.1076 4.97202V4.20619C42.1076 3.62887 41.5957 3.25184 40.8157 3.25184C40.182 3.25184 39.597 3.4757 39.0973 3.92342L38.5123 2.92194C39.2313 2.30928 40.1576 2.02651 41.0838 2.02651C42.4245 2.02651 43.6554 2.54492 43.6554 4.18262V7.85862ZM40.8645 6.98675C41.3642 6.98675 41.8516 6.8218 42.1076 6.4919V5.78498C41.8516 5.45508 41.3642 5.29013 40.8645 5.29013C40.2551 5.29013 39.7554 5.59647 39.7554 6.15022C39.7554 6.68041 40.2551 6.98675 40.8645 6.98675ZM50.7119 7.85862V3.84094C50.7119 2.73343 50.0904 2.02651 48.7985 2.02651C47.8357 2.02651 47.1166 2.47423 46.7388 2.91016V2.16789H45.191V7.85862H46.7388V4.02946C46.9947 3.68778 47.4701 3.35788 48.0794 3.35788C48.7375 3.35788 49.1641 3.62887 49.1641 4.41826V7.85862H50.7119ZM58 7.85862L55.5991 4.74816L57.9269 2.16789H56.0256L53.7953 4.70103V0H52.2475V7.85862H53.7953V6.39764L54.5022 5.66716L56.0622 7.85862H58Z" fill="#828282"/>
<path opacity="0.4" fill-rule="evenodd" clip-rule="evenodd" d="M63 0H64V12H63V0Z" fill="#828282"/>
<g opacity="0.6">
<path fill-rule="evenodd" clip-rule="evenodd" d="M62.4133 15.0209H63.6977V19.0605H63.7702L65.4404 17.12L66.625 17.117L64.7928 19.238L67 21.8906H65.5207L63.7162 19.4217H63.6977V21.8906H62.4133V15.0209ZM1.3559 15.3281V19.0951C1.3559 20.3784 1.74013 21.0799 2.81672 21.0799C3.84701 21.0799 4.25903 20.2294 4.25903 19.1694V15.3281H5.47296V19.4039C5.47296 21.061 4.37528 22 2.77865 22C0.950563 22 0 21.1267 0 19.3383V15.3281H1.3559ZM8.31026 17.7548C8.7449 17.3057 9.3498 17.09 9.95677 17.09C11.0822 17.09 11.6779 17.6882 11.6779 18.8688V21.8866H10.4007V19.0107C10.4007 18.354 10.1028 17.9227 9.43776 17.9227C8.81228 17.9227 8.32106 18.326 8.32106 19.0951V21.8866H7.04231V17.2014H8.31026V17.7548ZM13.1809 21.8866H14.4601V17.2014H13.1809V21.8866ZM13.0554 15.7965C13.0554 15.441 13.3625 15.0748 13.7971 15.0748C14.2395 15.0748 14.5841 15.4313 14.5841 15.7965C14.5841 16.1989 14.2878 16.5834 13.8156 16.5834C13.363 16.5834 13.0554 16.1989 13.0554 15.7965ZM17.2902 21.8866L15.243 17.1816H16.5984C17.013 18.2594 17.443 19.2731 17.8463 20.5753H17.8658C18.3005 19.2731 18.7094 18.2594 19.1512 17.1816H20.3513L18.1837 21.8866H17.2902ZM24.1577 18.9827C24.2075 18.2686 23.9473 17.7828 23.3141 17.7828C22.5801 17.7828 22.2509 18.354 22.2648 18.9827H24.1577ZM22.2437 19.6572C22.2149 20.5387 22.8496 21.1933 23.6479 21.1933C24.1222 21.1933 24.6201 21.0341 24.939 20.8179L25.3042 21.4746C24.6499 21.8489 23.9658 22 23.418 22C21.9649 22 20.8785 20.9964 20.8785 19.4507C20.8785 18.0071 21.9546 17.09 23.3311 17.09C24.832 17.09 25.458 18.2604 25.3634 19.6572H22.2437ZM27.874 18.0259H27.892L28.1523 17.6607C28.2953 17.4537 28.5844 17.09 28.9789 17.09C29.2675 17.09 29.5766 17.2401 29.8461 17.5107L29.3636 18.3728C29.1522 18.2686 29.017 18.2136 28.7587 18.2136C28.3159 18.2136 27.8833 18.5605 27.8833 19.5717V21.8866H26.5999V17.2014H27.874V18.0259ZM33.2611 18.0819C32.973 17.8759 32.6747 17.7828 32.4422 17.7828C32.1541 17.7828 31.8651 17.9415 31.8651 18.2604C31.8651 18.6353 32.328 18.8515 32.866 19.234C33.5512 19.733 33.7513 20.2197 33.7513 20.6485C33.7513 21.3067 33.0095 22 31.953 22C31.2884 22 30.7982 21.7742 30.3471 21.4654L30.7509 20.8179C31.0379 21.0443 31.451 21.2675 31.7966 21.2675C32.1649 21.2675 32.4905 21.0799 32.4905 20.6867C32.4905 20.2462 31.9895 20.0031 31.5292 19.6841C30.9803 19.3194 30.6064 18.9629 30.6064 18.383C30.6064 17.6414 31.3358 17.09 32.2781 17.09C32.8095 17.09 33.3274 17.2202 33.6762 17.5214L33.2611 18.0819ZM36.9059 19.3942C36.2815 19.591 35.9641 19.9374 35.9641 20.471C35.9641 20.884 36.2337 21.1653 36.5438 21.1653C37.0515 21.1653 37.7161 20.5463 37.6209 19.1694L36.9059 19.3942ZM37.3123 21.4374C36.9651 21.7187 36.5227 22 36.0814 22C35.3304 22 34.7029 21.4374 34.7029 20.5753C34.7029 19.6841 35.3685 19.1882 36.4852 18.8688L37.6209 18.5407C37.5541 18.1104 37.158 17.8393 36.7465 17.8393C36.1961 17.8393 35.8108 18.0361 35.4744 18.3174L35.0593 17.7269C35.6576 17.2492 36.2429 17.09 36.9059 17.09C37.7932 17.09 38.8811 17.3693 38.8811 18.8327V20.7431C38.8811 21.1185 38.9279 21.56 39.0833 21.8866H37.7269C37.6281 21.7269 37.6009 21.4563 37.6009 21.203L37.3123 21.4374ZM40.3147 21.8866H41.5955V15H40.3147V21.8866ZM52.9287 19.3942C52.3022 19.591 51.9849 19.9374 51.9849 20.471C51.9849 20.884 52.2529 21.1653 52.5625 21.1653C53.0702 21.1653 53.7353 20.5463 53.6417 19.1694L52.9287 19.3942ZM53.33 21.4374C52.9853 21.7187 52.5419 22 52.0991 22C51.3496 22 50.7226 21.4374 50.7226 20.5753C50.7226 19.6841 51.3872 19.1882 52.5049 18.8688L53.6417 18.5407C53.5712 18.1104 53.1787 17.8393 52.7621 17.8393C52.2153 17.8393 51.8295 18.0361 51.4931 18.3174L51.079 17.7269C51.6757 17.2492 52.2637 17.09 52.9287 17.09C53.8119 17.09 54.8983 17.3693 54.8983 18.8327V20.7431C54.8983 21.1185 54.9461 21.56 55.0994 21.8866H53.7451C53.6499 21.7269 53.618 21.4563 53.618 21.203L53.33 21.4374ZM57.6029 17.7548C58.0365 17.3057 58.6435 17.09 59.2489 17.09C60.3743 17.09 60.9705 17.6882 60.9705 18.8688V21.8866H59.6912V19.0107C59.6912 18.354 59.3929 17.9227 58.7288 17.9227C58.1029 17.9227 57.6127 18.326 57.6127 19.0951V21.8866H56.3334V17.2014H57.6029V17.7548ZM46.2635 21.0977H46.9558C47.7068 21.0977 48.2762 20.7141 48.2762 19.9842C48.2762 19.2152 47.6888 18.8876 46.9481 18.8876H46.2635V21.0977ZM46.2635 18.0819H46.6889C47.4692 18.0819 47.999 17.5951 47.999 16.9847C47.999 16.4049 47.554 16.1526 46.9676 16.1526H46.263L46.2635 18.0819ZM44.9081 21.9044V15.3459H47.3431C48.4773 15.3459 49.2772 15.8515 49.2772 16.7416C49.2772 17.7904 48.4017 18.2228 47.9305 18.3438V18.3627C48.768 18.4008 49.7 18.9619 49.7 19.9644C49.7 21.0977 48.7273 21.9044 47.142 21.9044H44.9081Z" fill="#828282"/>
</g>
</svg>
