<svg width="159" height="53" viewBox="0 0 159 53" fill="none" xmlns="http://www.w3.org/2000/svg">
<mask id="mask0_6_361" style="mask-type:alpha" maskUnits="userSpaceOnUse" x="0" y="0" width="159" height="53">
<g clip-path="url(#clip0_6_361)">
<path fill-rule="evenodd" clip-rule="evenodd" d="M10.4697 32.1668L6.3777 18.0579C6.04591 17.1296 5.27174 15.8301 3.46534 15.8301C1.6958 15.8301 0 16.8697 0 18.9118C0 19.5059 0.147461 19.9514 0.442383 20.7311L5.78785 35.9539C6.82008 38.9614 7.81544 39.9638 10.4697 39.9638H10.9859C13.7139 39.9638 14.3775 38.9614 15.4097 36.0282L20.8289 20.7311C21.0869 19.9514 21.2344 19.4687 21.2344 18.9118C21.2344 16.8697 19.6123 15.8301 17.7691 15.8301C15.9627 15.8301 15.1516 17.1296 14.8936 18.0579L10.7278 32.1668H10.4697ZM76.7904 4.39446C76.7904 2.24099 78.1544 0.792969 80.0345 0.792969C81.9884 0.792969 83.3524 2.24099 83.3524 4.39446V36.3252C83.3524 38.4787 81.9884 39.9267 80.0345 39.9267C78.1544 39.9267 76.7904 38.4787 76.7904 36.3252V4.39446ZM88.5873 19.2831C88.5873 17.1668 89.9513 15.793 91.9052 15.793C93.859 15.793 95.1493 17.1668 95.1493 19.2831V36.3252C95.1493 38.4787 93.859 39.9267 91.9052 39.9267C89.9513 39.9267 88.5873 38.4787 88.5873 36.3252V19.2831ZM121.803 36.3995C121.803 38.5158 120.365 39.9267 118.485 39.9267C116.605 39.9267 115.167 38.4787 115.167 36.3995V25.5207C115.167 22.8846 113.729 21.1395 111.001 21.1395C108.347 21.1395 106.688 22.5133 106.688 25.5207V36.3995C106.688 38.5158 105.324 39.9267 103.37 39.9267C101.49 39.9267 100.126 38.4787 100.126 36.3995V26.5232C100.126 19.1717 103.96 15.5702 111.001 15.5702C117.895 15.5702 121.803 19.1717 121.803 26.449V36.3995ZM24.7366 19.0975C24.7366 16.9811 26.1744 15.5702 28.0545 15.5702C29.9346 15.5702 31.2986 17.0182 31.2986 19.0975V30.0505C31.2986 32.6866 32.7364 34.3945 35.4644 34.3945C38.1187 34.3945 39.8145 33.095 39.8145 30.0505V19.0975C39.8145 16.9811 41.1785 15.5702 43.1324 15.5702C45.0125 15.5702 46.3765 17.0182 46.3765 19.0975V29.0851C46.3765 36.3623 42.5425 40.0381 35.5013 40.0381C28.6075 40.0381 24.6997 36.3623 24.6997 29.0851V19.0975H24.7366ZM142.374 23.0331C142.374 22.2534 140.862 21.1395 138.134 21.1395C134.042 21.1395 132.457 23.7757 132.457 27.897C132.457 32.6123 134.005 34.3945 137.36 34.3945C140.678 34.3945 142.374 32.1668 142.374 27.7113V23.0331ZM145.581 17.1296C147.387 17.9093 148.567 19.0232 148.567 21.1395V40.9663C148.567 48.0579 144.844 52.699 136.586 52.699C132.531 52.699 127.259 50.5455 127.259 47.7238C127.259 46.2757 128.365 44.9762 129.655 44.9762C131.757 44.9762 133.305 46.7955 137.065 46.7955C140.825 46.7955 142.337 44.902 142.337 41.746V37.996C141.231 39.1099 139.203 40.0381 136.291 40.0381C130.171 40.0381 125.932 35.5084 125.932 27.897C125.932 20.4712 130.687 15.5702 137.913 15.5702C141.6 15.5702 144.143 16.4613 145.581 17.1296ZM66.1732 25.6693C65.9889 22.5133 64.5511 20.6197 61.4913 20.6197C58.4315 20.6197 57.0675 21.9935 56.8094 25.6693H66.1732ZM56.8094 30.0505C57.2149 32.7237 58.5789 34.5802 61.8968 34.5802C65.141 34.5802 66.9842 33.3178 68.6063 33.3178C69.8966 33.3178 71.0026 34.6916 71.0026 35.9911C71.0026 38.5529 66.6524 39.9267 61.8231 39.9267C54.7818 39.9267 50.4317 35.2856 50.4317 27.7856C50.4317 20.3227 54.745 15.3846 61.7125 15.3846C69.0856 15.3846 72.3297 20.3598 72.3297 27.1173C72.3297 29.0108 71.5555 30.0133 69.6754 30.0133H56.8094V30.0505Z" fill="#7E8082"/>
<path fill-rule="evenodd" clip-rule="evenodd" d="M159 7.21602C159 9.62939 157.452 11.3373 154.761 11.3373C152.106 11.3373 150.521 9.62939 150.521 7.21602C150.521 4.80265 152.069 3.09473 154.761 3.09473C157.415 3.09473 159 4.80265 159 7.21602Z" fill="#FFE14F"/>
</g>
</mask>
<g mask="url(#mask0_6_361)">
<rect x="-19.5263" y="-22.6465" width="188.568" height="92.6105" fill="#7F7F7F"/>
</g>
<defs>
<clipPath id="clip0_6_361">
<rect width="159" height="51.8842" fill="white" transform="translate(0 0.785156)"/>
</clipPath>
</defs>
</svg>
