<svg width="247" height="54" viewBox="0 0 247 54" fill="none" xmlns="http://www.w3.org/2000/svg">
<path d="M170.571 12.4422L170.819 16.709C171.602 15.2043 172.66 14.0417 173.992 13.2212C175.323 12.4012 176.9 11.9907 178.721 11.9907C181.37 11.9907 183.387 12.8002 184.771 14.4178C186.156 16.0358 186.848 18.5602 186.848 21.992V36.8689H184.139V21.9845C184.139 19.1795 183.616 17.1964 182.57 16.0353C181.523 14.8742 180.038 14.2934 178.111 14.2934C176.215 14.2934 174.668 14.7948 173.472 15.7976C172.275 16.8004 171.414 18.1312 170.887 19.7902V36.8689H168.178V12.4422H170.571ZM191.199 24.2942C191.199 20.6971 192.185 17.7472 194.157 15.4445C196.128 13.1418 198.74 11.9902 201.991 11.9902C205.256 11.9902 207.875 13.1418 209.847 15.4445C211.818 17.7472 212.804 20.6976 212.804 24.2942V25.0393C212.804 28.6514 211.822 31.6053 209.858 33.9005C207.894 36.1957 205.287 37.3433 202.036 37.3433C198.755 37.3433 196.129 36.1957 194.157 33.9005C192.185 31.6053 191.2 28.6514 191.2 25.0393V24.2942H191.199ZM193.908 25.0278C193.908 27.8544 194.623 30.23 196.053 32.1541C197.483 34.0783 199.477 35.0401 202.035 35.0401C204.549 35.0401 206.524 34.0783 207.962 32.1541C209.398 30.2295 210.118 27.8544 210.118 25.0278V24.2837C210.118 21.5026 209.395 19.142 207.95 17.2029C206.505 15.2632 204.518 14.2939 201.99 14.2939C199.462 14.2939 197.482 15.2632 196.052 17.2029C194.622 19.142 193.907 21.5026 193.907 24.2837V25.0278H193.908ZM222.506 28.945L223.432 33.3022H223.568L224.719 28.945L229.911 12.4422H232.236L237.428 28.945L238.602 33.4146H238.738L239.753 28.945L244.201 12.4422H247L239.889 36.8689H237.586L232.168 20.1628L231.107 15.9409H230.972L229.888 20.1628L224.56 36.8689H222.235L215.147 12.4422H217.946L222.506 28.945Z" fill="#7F7F7F"/>
<path d="M112.464 15.7141C113.65 16.6934 116.122 18.7544 116.122 22.6721C116.122 26.482 113.958 28.2903 111.794 29.9902C111.124 30.6569 110.349 31.382 110.349 32.5171C110.349 33.6488 111.123 34.2685 111.689 34.7329L113.546 36.1727C115.813 38.0808 117.874 39.8337 117.874 43.3899C117.874 48.2349 113.183 53.132 104.321 53.132C96.8448 53.132 93.2387 49.5748 93.2387 45.7605C93.2387 43.9032 94.1641 41.2749 97.2074 39.4706C100.399 37.516 104.731 37.2568 107.05 37.101C106.328 36.1727 105.504 35.1949 105.504 33.5988C105.504 32.7224 105.764 32.206 106.021 31.5888C105.452 31.6407 104.886 31.6906 104.37 31.6906C98.9088 31.6906 95.8166 27.6206 95.8166 23.6025C95.8166 21.2299 96.9002 18.6011 99.1135 16.6954C102.053 14.2729 105.556 13.8609 108.342 13.8609H118.956L115.657 15.7146L112.464 15.7141ZM108.804 38.5972C108.394 38.5448 108.133 38.5448 107.621 38.5448C107.158 38.5448 104.37 38.6496 102.206 39.3743C101.072 39.7803 97.7732 41.0192 97.7732 44.6803C97.7732 48.3353 101.333 50.9701 106.848 50.9701C111.79 50.9701 114.422 48.5915 114.422 45.3999C114.422 42.7661 112.722 41.3818 108.804 38.5972ZM110.3 28.8037C111.483 27.6171 111.585 25.9691 111.585 25.0408C111.585 21.3303 109.37 15.5588 105.094 15.5588C103.752 15.5588 102.31 16.229 101.484 17.2603C100.611 18.3439 100.35 19.7347 100.35 21.0751C100.35 24.5274 102.36 30.2474 106.796 30.2474C108.084 30.2474 109.47 29.6302 110.3 28.8037ZM80.0193 37.7732C71.8388 37.7732 67.4652 31.3915 67.4652 25.627C67.4652 18.8823 72.9699 13.1238 80.7934 13.1238C88.3532 13.1238 93.0894 19.0406 93.0894 25.2705C93.0884 31.3391 88.4091 37.7732 80.0193 37.7732ZM86.448 33.6043C87.6865 31.9563 87.9941 29.8993 87.9941 27.8893C87.9941 23.3613 85.8342 14.7164 79.4535 14.7164C77.7566 14.7164 76.0577 15.3865 74.8237 16.4687C72.8161 18.2685 72.4536 20.5333 72.4536 22.7481C72.4536 27.8403 74.9775 36.2246 81.2044 36.2246C83.2104 36.2271 85.2674 35.2493 86.448 33.6043ZM52.1294 37.7732C43.9484 37.7732 39.5737 31.3915 39.5737 25.627C39.5737 18.8823 45.0825 13.1238 52.9034 13.1238C60.4667 13.1238 65.2009 19.0406 65.2009 25.2705C65.1984 31.3391 60.5161 37.7732 52.1294 37.7732ZM58.5605 33.6043C59.7965 31.9563 60.1051 29.8993 60.1051 27.8893C60.1051 23.3613 57.9423 14.7164 51.5621 14.7164C49.8661 14.7164 48.1667 15.3865 46.9337 16.4687C44.9262 18.2685 44.5661 20.5333 44.5661 22.7481C44.5661 27.8403 47.084 36.2246 53.3159 36.2246C55.3215 36.2271 57.3785 35.2493 58.5605 33.6043ZM35.643 36.9662L28.2455 38.6721C25.2427 39.1365 22.5535 39.548 19.7104 39.548C5.42937 39.548 0 29.0499 0 20.8229C0 10.7882 7.70659 1.47852 20.9 1.47852C23.6936 1.47852 26.3813 1.89051 28.8143 2.56369C32.6926 3.64887 34.5029 4.99372 35.643 5.77128L31.3467 9.85879L29.5379 10.2688L30.8319 8.19881C29.0725 6.49439 25.8639 3.33825 19.7619 3.33825C11.5884 3.33825 5.43237 9.54916 5.43237 18.6006C5.43237 28.3252 12.4673 37.4801 23.7435 37.4801C27.058 37.4801 28.7624 36.8104 30.3145 36.1861V27.8638L22.505 28.2728L26.642 26.047H37.6106L36.2657 27.3384C35.9007 27.6516 35.8507 27.7559 35.7479 28.1649C35.6929 28.6324 35.6445 30.134 35.6445 30.6534L35.643 36.9662Z" fill="#7F7F7F"/>
<path d="M128.816 35.4758C127.109 35.3215 126.749 35.0114 126.749 32.9899V3.71011C126.76 3.59675 126.768 3.48338 126.777 3.37502C126.987 1.56622 127.502 1.2561 129.108 0.323242H121.709L117.829 2.18547H121.781V2.20894L121.778 2.18996V34.127C121.778 35.1572 121.576 35.316 120.386 36.8686H129.543L131.458 35.731C130.575 35.6301 129.696 35.5807 128.816 35.4758ZM149.867 35.9513C149.304 36.2614 148.738 36.6214 148.174 36.8771C146.475 37.6517 144.729 37.8539 143.185 37.8539C141.547 37.8539 138.976 37.7476 136.352 35.8494C132.707 33.2795 131.114 28.8614 131.114 25.0056C131.114 17.0453 137.588 13.1406 142.881 13.1406C144.728 13.1406 146.632 13.602 148.174 14.5793C150.739 16.2708 151.409 18.4801 151.765 19.6621L139.695 24.5447L135.738 24.8553C137.02 31.3788 141.438 35.1772 146.321 35.1772C148.94 35.1772 150.843 34.2538 152.59 33.3804L149.867 35.9513ZM145.039 20.6404C146.014 20.2804 146.527 19.9733 146.527 19.2536C146.527 17.1996 144.215 14.8355 141.439 14.8355C139.382 14.8355 135.531 16.4296 135.531 21.9773C135.531 22.8507 135.634 23.7731 135.687 24.7015L145.039 20.6404ZM154.824 13.4922V16.8835H154.412V13.4922H153.289V13.1426H155.943V13.4922H154.824ZM159.445 16.8835V13.4607H159.426L158.382 16.8835H158.06L157.007 13.4607H156.994V16.8835H156.619V13.1411H157.261L158.215 16.1654H158.226L159.168 13.1411H159.819V16.8835H159.445Z" fill="#7F7F7F"/>
</svg>
