<svg width="182" height="34" viewBox="0 0 182 34" fill="none" xmlns="http://www.w3.org/2000/svg">
<mask id="mask0_6_362" style="mask-type:alpha" maskUnits="userSpaceOnUse" x="0" y="0" width="182" height="34">
<g clip-path="url(#clip0_6_362)">
<path d="M64.8397 32.7219C58.2468 32.7219 52.1269 30.7481 48.0418 27.0876C44.9555 24.3221 43.4724 20.5657 43.4724 16.6994C43.4724 12.8802 45.0194 9.09784 48.0414 6.34691C51.8352 2.89511 58.5334 0.733398 64.8397 0.733398C71.8185 0.733398 77.4042 2.4883 81.6742 6.35639C84.7123 9.10878 86.1811 12.8744 86.1811 16.6998C86.1811 20.4077 84.6224 24.3564 81.6742 27.0876C77.698 30.7718 71.4494 32.7219 64.8397 32.7219V28.5029C68.339 28.5029 71.585 27.2967 73.8519 25.0449C76.1032 22.8084 77.152 20.0592 77.152 16.6994C77.152 13.4807 76.0206 10.4715 73.8519 8.33714C71.6153 6.13785 68.2918 4.90029 64.8397 4.90029C61.377 4.90029 58.0513 6.12508 55.8129 8.33714C53.6559 10.4708 52.5216 13.4888 52.5216 16.6994C52.5216 19.9002 53.6691 22.9163 55.8129 25.0452C58.0532 27.27 61.3671 28.5029 64.8397 28.5029V32.7219ZM16.6525 0.748722C13.1258 0.748722 9.1193 1.40727 5.71505 2.92502C2.5732 4.32457 0.00146559 6.58807 0.00146559 10.3405C3.75265e-06 13.7201 2.15146 15.6993 2.09299 15.6446C3.0081 16.4856 4.48126 17.9176 8.33283 18.7586C10.0541 19.1344 13.7343 19.7115 17.3991 20.0939C21.0369 20.477 24.6169 20.8411 26.0751 21.2096C27.2336 21.504 29.1797 21.905 29.1797 24.0846C29.1797 26.2554 27.1295 26.918 26.7732 27.0617C26.4172 27.2022 23.9577 28.3288 19.5363 28.3288C16.2721 28.3288 12.3478 27.3489 10.9174 26.8381C9.26841 26.2521 7.53869 25.4772 5.92519 23.5096C5.52391 23.0218 4.89094 21.6803 4.89094 20.3519H0.889531V31.5453H5.33717V30.033C5.33717 29.8608 5.55279 29.1526 6.29942 29.4894C7.22842 29.9108 9.95547 30.9947 12.8068 31.5891C15.1446 32.0772 16.6521 32.4271 19.5586 32.4271C24.3008 32.4271 26.8484 31.6558 28.6096 31.1538C30.2688 30.6795 32.319 29.828 33.9844 28.5021C34.8863 27.7852 36.8642 25.9475 36.8642 22.6117C36.8642 19.4098 35.1429 17.4225 34.5373 16.818C33.7125 15.9941 32.7049 15.3557 31.655 14.8635C30.7402 14.4337 29.2967 13.9174 28.1155 13.6289C25.823 13.067 20.6393 12.3738 18.1604 12.1147C15.5609 11.8437 11.0515 11.4708 9.2505 10.9144C8.7045 10.7455 7.59132 10.2161 7.59132 8.926C7.59132 8.00841 8.1004 7.23056 9.10651 6.60193C10.7036 5.60299 13.9295 4.98202 17.2921 4.98202C21.2675 4.96743 24.6341 5.8748 26.7757 6.83069C27.5041 7.1554 28.3563 7.62168 29.0332 8.17332C29.797 8.79502 30.8692 10.0869 31.257 11.8889H34.8494V2.14535H30.8382V3.27783C30.8382 3.6434 30.4599 4.11843 29.7447 3.72586C27.9496 2.78565 22.8741 0.757113 16.6518 0.748722M104.558 2.51932L124.125 20.1486L123.924 8.27913C123.904 6.7227 123.617 6.07291 121.931 6.07291H118.252V2.52223H134.983V6.07291H131.394C129.674 6.07291 129.565 6.622 129.545 8.27913L129.848 30.959H124.118L101.58 10.8779L101.585 25.1295C101.605 26.6786 101.678 27.4083 103.276 27.4083H107.295V30.9575H90.8637V27.4087H94.7047C96.1395 27.4087 96.0824 26.0431 96.0824 25.0489V8.41412C96.0824 7.34038 95.9315 6.07546 93.6788 6.07546H90.5622V2.51932H104.558ZM154.101 27.4018C154.258 27.4018 154.956 27.3817 155.091 27.3405C155.261 27.2892 155.418 27.2016 155.551 27.0838C155.684 26.966 155.79 26.8208 155.861 26.6582C155.912 26.5378 155.938 26.0051 155.938 25.8895L155.941 20.2782C155.941 20.1432 155.931 20.0848 155.701 19.7842C155.449 19.4558 145.452 8.14559 144.994 7.64758C144.426 7.02917 143.428 6.07327 141.912 6.07327H138.436V2.52114H158.056V6.06889H155.691C155.144 6.06889 154.78 6.58697 155.248 7.1627C155.248 7.1627 161.849 15.0459 161.911 15.1284C161.973 15.2123 162.025 15.2323 162.11 15.1557C162.192 15.0773 168.876 7.23494 168.929 7.17292C169.247 6.79275 169.031 6.07291 168.346 6.07291H165.92V2.52114H182V6.07291H178.408C177.104 6.07291 176.574 6.3137 175.594 7.42028C175.145 7.92669 165.041 19.4401 164.766 19.752C164.622 19.9151 164.635 20.1424 164.635 20.2774V25.888C164.635 26.0018 164.66 26.5352 164.712 26.6549C164.783 26.8178 164.889 26.9632 165.022 27.081C165.155 27.1988 165.312 27.2863 165.483 27.3372C165.618 27.3788 166.306 27.3992 166.463 27.3992H170.138V30.9506H150.619V27.3988L154.102 27.4018H154.101Z" fill="black"/>
</g>
</mask>
<g mask="url(#mask0_6_362)">
<rect x="-31.7248" y="-36.2861" width="282.183" height="138.587" fill="#7F7F7F"/>
</g>
<defs>
<clipPath id="clip0_6_362">
<rect width="182" height="32.5596" fill="white" transform="translate(0 0.448242)"/>
</clipPath>
</defs>
</svg>
