<svg width="202" height="76" viewBox="0 0 202 76" fill="none" xmlns="http://www.w3.org/2000/svg">
<mask id="mask0_6_309" style="mask-type:alpha" maskUnits="userSpaceOnUse" x="0" y="0" width="202" height="76">
<g clip-path="url(#clip0_6_309)">
<path d="M5.09083 20.6439L1.032 20.9158C0.960004 20.9303 0.890747 20.9467 0.823312 20.9658C0.424173 21.084 0.160813 21.3176 0.0332336 21.6658V49.4688C0.140764 49.9552 0.383165 50.2043 0.760434 50.2125H4.30075C4.65524 50.2061 4.92042 49.9661 5.09721 49.4942L5.07898 38.3931C7.01727 38.6504 8.88721 38.7395 10.6852 38.6576L15.5149 49.5197C15.5183 49.5254 15.5207 49.5315 15.5222 49.5379C15.7227 49.9561 16.0171 50.1807 16.4062 50.2125H20.3201C20.8286 50.0761 21.0564 49.6761 21.0036 49.0142L15.7555 37.1566C17.2527 36.4692 18.4201 35.5655 19.2585 34.4445C20.8523 32.3652 21.1977 29.5921 20.2946 26.1254C20.286 26.094 20.2777 26.0625 20.27 26.0308C19.2949 23.1942 17.1306 21.434 13.7771 20.7512C11.3449 20.4057 8.4498 20.3693 5.09083 20.6439ZM11.5071 25.2353V25.2108L11.539 25.2362C14.0104 25.5963 15.3773 27.0019 15.6416 29.4548C15.6507 31.9842 14.1653 33.5125 11.1855 34.0408V34.0281C9.15604 34.1644 7.11751 34.1217 5.07169 33.8962L5.08445 25.5317H5.1291C5.6139 25.2008 7.73991 25.1026 11.508 25.2362M73.9488 34.8736L74.05 36.7656L67.1407 37.3584C64.2082 37.7303 62.3665 39.1468 61.6156 41.6089C61.314 43.7118 61.4042 45.422 61.8862 46.7367C62.752 48.9924 64.426 50.277 66.9065 50.5916C69.5328 50.6807 72.1226 50.1807 74.676 49.0906C75.9965 50.0634 77.2249 50.5153 78.3612 50.4462C78.3788 50.4392 78.3959 50.431 78.4123 50.4216C78.7166 50.2361 78.8834 50.0016 78.9117 49.7215L78.9044 33.9326C78.5563 32.0051 77.9384 30.6322 77.0517 29.814C75.7249 28.742 74.0946 28.1911 72.1582 28.1611C69.2361 28.2593 66.3228 28.5356 63.4345 28.9884C63.0563 29.1039 62.8668 29.3139 62.8659 29.6185L62.9734 32.7852C63.1283 33.1752 63.4081 33.3598 63.8136 33.3398C63.8318 33.3416 63.8519 33.3416 63.871 33.3398C67.8014 32.8961 70.5534 32.7679 72.1272 32.9552C72.1378 32.9561 72.1485 32.9561 72.1591 32.9552C73.1569 33.2443 73.7538 33.8835 73.9479 34.8727M68.935 40.8642H68.9796C70.6737 40.6933 72.3514 40.6215 74.0117 40.6506V45.5011C72.3969 46.0211 70.6455 46.343 68.7582 46.4648C67.2519 46.4221 66.4581 45.512 66.3743 43.7336L66.387 43.7154C66.418 41.9889 67.2673 41.0379 68.935 40.8642ZM41.0043 48.0041C42.4168 46.3475 43.2178 43.6754 43.4073 39.9878C43.4192 35.6819 42.5744 32.5688 40.8722 30.6468C39.0724 28.9312 36.6657 28.0965 33.6521 28.1429C30.6367 28.0974 28.23 28.9321 26.433 30.6468C24.728 32.5697 23.8832 35.6837 23.8978 39.9878C24.0846 43.6736 24.8856 46.3457 26.2999 48.0041C27.778 49.6706 30.2293 50.5389 33.6521 50.6098C37.0749 50.5389 39.5253 49.6706 41.0043 48.0041ZM38.3434 39.9496C38.4154 44.1846 36.8516 46.2721 33.6521 46.213C30.4526 46.2712 28.8889 44.1837 28.9618 39.9496C28.6966 34.8581 30.2603 32.4215 33.6521 32.6397C37.0448 32.4215 38.6095 34.8581 38.3434 39.9496ZM53.0232 24.3389C52.9657 23.9952 52.6996 23.7788 52.2258 23.6897L48.6672 24.5534C48.3392 24.7225 48.1451 24.9698 48.0849 25.298V28.5711H46.1712C45.7566 28.6839 45.517 28.9375 45.4513 29.3348V32.337C45.4914 32.8025 45.6937 33.0616 46.0573 33.1125H48.0868V43.8045C48.2235 48.1596 49.8701 50.4262 53.0241 50.6034C55.0981 50.7453 56.9143 50.6007 58.4735 50.167C58.7469 50.137 58.9045 49.887 58.9474 49.4179C58.9513 49.3947 58.9537 49.3713 58.9547 49.3479L58.8663 46.7049C58.7815 46.2294 58.5665 45.9639 58.2211 45.9111C58.2 45.9072 58.1787 45.9047 58.1573 45.9039L54.5851 45.9993C53.6191 45.7866 53.0997 44.961 53.0241 43.52V33.1134H58.1637C58.51 33.0634 58.7442 32.8934 58.8654 32.6034V29.2348C58.859 28.9575 58.6166 28.7375 58.1391 28.5729H53.0241V24.3398M95.116 28.5038C95.0945 28.5006 95.0732 28.4961 95.0522 28.4902C93.0301 28.6448 91.079 29.4394 89.1982 30.875V29.2657C89.1161 28.8875 88.8701 28.6684 88.4591 28.6111H85.0573C84.6081 28.6729 84.3301 28.9384 84.2235 29.4048V49.3797C84.3329 49.8115 84.5516 50.0634 84.8796 50.137H88.6678C88.9494 49.9997 89.1262 49.7988 89.1982 49.5315V35.5928C91.3871 33.9799 93.3199 33.1352 94.9957 33.057C95.3666 33.0025 95.6199 32.7525 95.7539 32.3061V29.1903C95.6719 28.8202 95.4596 28.5911 95.116 28.5029M99.0737 28.5975C98.6354 28.7566 98.3993 29.093 98.3656 29.6067L103.195 47.9613C103.607 49.1778 104.36 49.8979 105.452 50.1252C105.88 50.147 106.294 50.1507 106.691 50.137C106.664 51.2126 106.247 52.1009 105.445 52.7991C104.714 53.1983 103.882 53.3556 102.948 53.2719L99.8382 53.0901C99.0181 52.9537 98.6053 53.2428 98.5989 53.9538L98.6436 55.9267C98.7493 56.4059 99.0053 56.6904 99.4145 56.7795C99.5138 56.8041 99.6168 56.8359 99.7243 56.8732C101.523 57.2069 103.266 57.4078 104.952 57.4787L104.984 57.4669C106.735 57.4905 108.208 56.7986 109.404 55.3903C110.089 54.4348 110.587 53.4865 110.896 52.5464L116.888 29.6503C116.943 29.0612 116.701 28.7093 116.161 28.5975H112.823C112.515 28.6657 112.266 28.8639 112.078 29.1903L107.893 45.262C107.799 45.4574 107.666 45.4574 107.495 45.262L103.252 29.2221C103.053 28.8475 102.792 28.6393 102.468 28.5975H99.0737Z" fill="#01256D" fill-opacity="0.996"/>
<path d="M191.746 12.0404C191.226 11.4131 190.648 10.8365 190.019 10.3184C188.055 10.8366 186.31 11.8576 184.785 13.3842C184.058 12.7591 183.3 12.1699 182.516 11.6185C183.637 9.74741 184.176 7.79812 184.133 5.77154C183.49 5.27239 182.782 4.86255 182.028 4.55323C180.28 5.54606 178.865 6.97167 177.786 8.83004C176.892 8.41575 175.981 8.03902 175.055 7.70083C175.334 6.74619 175.479 5.76063 175.492 4.74325C175.508 3.63768 175.376 2.60939 175.093 1.65929C174.347 1.34652 173.563 1.13433 172.76 1.02831C171.302 2.47028 170.301 4.21774 169.758 6.26977C168.805 6.09403 167.842 5.97592 166.875 5.9161C166.891 4.91255 166.771 3.91146 166.521 2.93942C166.255 1.87567 165.863 0.916479 165.345 0.0627528H165.301L164.776 0.0254758C164.566 0.00803915 164.355 -0.000454199 164.144 1.87073e-05C163.92 1.87073e-05 163.71 0.00820128 163.512 0.0254758L162.924 0.0627528C161.9 1.78293 161.387 3.73405 161.387 5.9161C160.494 5.97065 159.529 6.08884 158.493 6.26977C158.235 5.29528 157.852 4.35805 157.353 3.48129C156.823 2.51847 156.193 1.69474 155.463 1.00922C154.58 1.14741 153.801 1.35834 153.131 1.63928C152.597 3.58222 152.608 5.60334 153.17 7.70083C152.318 8.00814 151.407 8.39182 150.438 8.84914C149.317 6.9653 147.894 5.53333 146.171 4.55414C145.989 4.62142 145.794 4.71142 145.583 4.82507C145.404 4.91557 145.228 5.01448 145.058 5.12147C144.955 5.16647 144.858 5.22128 144.766 5.28512L144.072 5.74608C144.03 7.7472 144.56 9.70468 145.664 11.6176C144.839 12.2359 144.134 12.7896 143.548 13.2769C141.992 11.7258 140.24 10.7057 138.288 10.2175C137.662 10.7283 137.086 11.2966 136.567 11.9149C137.087 13.886 138.108 15.6335 139.634 17.1564C138.905 18.0647 138.31 18.8402 137.851 19.4839C135.928 18.3774 133.98 17.8455 132.003 17.8874C131.767 18.1992 131.55 18.5202 131.352 18.8529L130.79 19.9685C131.767 21.7141 133.203 23.1397 135.095 24.2453C134.563 25.5027 134.214 26.3628 134.045 26.8247C131.901 26.2655 129.868 26.2573 127.951 26.8001C127.656 27.4847 127.445 28.2639 127.32 29.1331C128.735 30.5842 130.493 31.5834 132.591 32.1298L132.237 34.9428C131.222 34.9439 130.212 35.0691 129.228 35.3156C128.216 35.5638 127.247 35.9609 126.352 36.4939C126.255 37.2941 126.255 38.103 126.352 38.9032C128.076 39.9251 130.031 40.437 132.219 40.437C132.26 40.9107 132.394 41.8681 132.616 43.3064C130.514 43.9074 128.754 44.9211 127.338 46.3467C127.464 47.1577 127.675 47.9342 127.97 48.6743C129.918 49.2334 131.949 49.227 134.065 48.6552C134.393 49.5324 134.764 50.3932 135.177 51.2345C133.288 52.3237 131.854 53.743 130.872 55.4922C130.968 55.7559 131.087 56.0014 131.226 56.2232C131.251 56.2746 131.28 56.3233 131.315 56.3687C131.55 56.8324 131.8 57.2306 132.065 57.5679C134.056 57.6097 136.011 57.086 137.933 55.9959C138.489 56.7815 139.077 57.5435 139.697 58.2798C138.142 59.8018 137.119 61.5438 136.631 63.5022C137.119 64.1459 137.686 64.7205 138.331 65.2251C140.253 64.7205 142.005 63.7049 143.585 62.1775C144.325 62.7978 145.09 63.3872 145.88 63.9441C144.784 65.8988 144.257 67.8481 144.298 69.791C144.932 70.2829 145.626 70.6884 146.385 71.0084C148.135 70.0456 149.564 68.6055 150.672 66.688C151.624 67.0953 152.472 67.4381 153.214 67.7154C152.958 68.6815 152.825 69.6756 152.815 70.6748C152.803 71.7803 152.934 72.8077 153.214 73.7587C153.955 74.0651 154.733 74.2824 155.546 74.4079C156.263 73.7105 156.886 72.8777 157.418 71.9104C157.924 71.0148 158.293 70.092 158.53 69.141C159.398 69.3264 160.365 69.4592 161.431 69.5392C161.461 71.7503 161.98 73.7024 162.987 75.3916C163.029 75.3916 163.078 75.398 163.133 75.4098L163.619 75.4553H164.84L165.403 75.3916C166.443 73.6842 166.963 71.734 166.963 69.5392C167.887 69.4595 168.805 69.3266 169.713 69.141C170.304 71.2821 171.313 73.0368 172.741 74.4079C173.611 74.2815 174.387 74.0779 175.074 73.796C175.635 71.854 175.63 69.8265 175.056 67.7163C175.894 67.409 176.769 67.0326 177.68 66.5871C178.8 68.4873 180.228 69.9201 181.965 70.8821C182.694 70.5748 183.39 70.1774 184.052 69.691C184.094 67.7054 183.567 65.7488 182.471 63.8177C183.224 63.2821 183.954 62.7142 184.658 62.1157C186.256 63.654 188.015 64.6687 189.938 65.1615C190.577 64.6638 191.154 64.0919 191.657 63.4576C191.139 61.5147 190.117 59.7691 188.59 58.2171C189.216 57.49 189.799 56.7278 190.336 55.9341C192.254 57.0224 194.207 57.5461 196.196 57.5034L196.26 57.4415C196.403 57.2479 196.571 56.9888 196.765 56.6651C196.947 56.3578 197.1 56.0932 197.226 55.8696L197.27 55.7823C197.326 55.6432 197.374 55.525 197.416 55.4295C196.465 53.7212 195.035 52.2965 193.13 51.1527C193.395 50.5935 193.754 49.7398 194.206 48.5906C195.171 48.8561 196.156 48.9961 197.164 49.0088C198.272 49.0243 199.302 48.8925 200.256 48.6106C200.55 47.9251 200.76 47.1495 200.887 46.2831C199.442 44.8284 197.69 43.8292 195.633 43.2864C195.798 42.4336 195.922 41.5162 196.006 40.537C198.193 40.537 200.155 40.0188 201.893 38.986C201.993 38.1904 201.993 37.3876 201.893 36.5766C200.185 35.541 198.232 35.0237 196.032 35.0237C195.943 34.0817 195.817 33.1436 195.653 32.2116C196.628 31.9546 197.567 31.5749 198.447 31.0815C199.416 30.5487 200.242 29.9259 200.925 29.2149C200.786 28.3194 200.577 27.5438 200.299 26.8874C198.366 26.3283 196.34 26.3346 194.224 26.9065C193.983 26.221 193.625 25.3609 193.148 24.3271C194.734 23.4179 195.996 22.2878 196.936 20.9331L197.352 20.3022C197.395 20.2185 197.438 20.1412 197.48 20.0694C197.288 19.6159 197.055 19.1807 196.784 18.7693C196.713 18.6165 196.63 18.4692 196.537 18.3283C196.45 18.2071 196.357 18.0894 196.26 17.9756C194.269 17.9328 192.317 18.4565 190.398 19.5457C189.853 18.7688 189.278 18.0135 188.673 17.2818C190.215 15.7308 191.239 13.9833 191.746 12.0404ZM185.102 17.3891C185.228 17.1918 185.429 17.0936 185.709 17.0936C186.015 17.0936 186.274 17.2191 186.485 17.471C189.709 20.8568 191.974 24.889 193.274 29.5695C194.637 34.4764 194.749 39.4406 193.61 44.462C193.543 44.7257 193.418 44.9284 193.237 45.0666C193.027 45.2221 192.779 45.2575 192.498 45.173L188.002 43.8556C187.788 43.7947 187.603 43.6609 187.478 43.4773C187.323 43.2724 187.247 43.0194 187.263 42.7636C188.818 34.7373 187.039 27.8848 181.927 22.2078C181.806 22.1317 181.707 22.0266 181.638 21.9023C181.568 21.7779 181.531 21.6382 181.53 21.4959C181.511 21.1759 181.617 20.8904 181.845 20.6377L185.102 17.3891ZM167.444 16.6136C167.583 16.5127 167.827 16.5045 168.177 16.5881C170.701 17.1891 172.938 18.0583 174.886 19.1939C176.819 20.3122 178.682 21.8069 180.473 23.678C180.811 24.0271 180.915 24.3217 180.789 24.5608C180.721 24.6872 180.492 24.8472 180.1 25.0399L169.542 30.1368C169.15 30.3178 168.809 30.3241 168.518 30.155C168.223 30.0041 168.061 29.7122 168.032 29.2786L167.191 17.6164C167.148 17.0736 167.234 16.74 167.444 16.6136ZM171.856 15.4153C169.362 14.5493 166.74 14.1101 164.1 14.1161C161.423 14.1161 158.831 14.5488 156.323 15.4153C153.917 16.2405 151.665 17.4597 149.66 19.0229C149.352 19.2757 149.081 19.4075 148.845 19.4203C148.591 19.4503 148.352 19.3448 148.124 19.1048L144.995 15.6489C144.591 15.1571 144.689 14.667 145.292 14.1788C147.9 12.1017 150.833 10.4653 153.972 9.33464C157.22 8.16891 160.647 7.57368 164.1 7.57537C167.563 7.57537 170.936 8.16179 174.215 9.33464C177.325 10.4657 180.225 12.0804 182.914 14.1788C183.546 14.6661 183.658 15.1562 183.248 15.6489L180.12 19.1048C179.896 19.3448 179.658 19.4503 179.405 19.4203C179.165 19.4075 178.885 19.2748 178.564 19.0229C176.544 17.458 174.277 16.2388 171.856 15.4153ZM183.147 30.2814C183.594 29.975 183.924 29.8786 184.133 29.9923C184.285 30.0586 184.412 30.2696 184.512 30.6223C185.255 33.1072 185.626 35.4683 185.626 37.7058C185.626 39.9597 185.255 42.3154 184.512 44.7766C184.374 45.2512 184.178 45.4894 183.925 45.4894C183.756 45.4894 183.497 45.3685 183.147 45.1284L173.437 38.5695C173.083 38.3295 172.906 38.0422 172.906 37.7058C172.906 37.3731 173.083 37.0876 173.437 36.8475L183.147 30.2814ZM164.1 30.2187C166.173 30.2187 167.954 30.9551 169.442 32.4262C170.912 33.8936 171.647 35.6683 171.647 37.7495C171.647 39.8188 170.912 41.5953 169.442 43.08C167.953 44.5465 166.173 45.2803 164.1 45.2803C162.026 45.2803 160.253 44.5465 158.783 43.08C157.298 41.5953 156.557 39.8188 156.557 37.7495C156.557 35.6683 157.299 33.8936 158.783 32.4262C160.253 30.9551 162.026 30.2187 164.1 30.2187ZM168.076 46.0949C168.101 45.6776 168.255 45.3857 168.538 45.2175C168.832 45.0493 169.175 45.0557 169.567 45.2375L180.12 50.3335C180.608 50.5681 180.861 50.8063 180.878 51.0454C180.878 51.2272 180.751 51.4436 180.499 51.6955C178.716 53.583 176.851 55.0868 174.904 56.2051C172.969 57.3106 170.736 58.1707 168.202 58.7844C167.727 58.8944 167.425 58.8381 167.299 58.6153C167.214 58.4753 167.184 58.1898 167.211 57.7561L168.076 46.0949ZM186.005 46.7441C186.157 46.3949 186.367 46.1658 186.637 46.0567C186.817 45.9858 187.015 45.9769 187.2 46.0312L191.701 47.5641C191.954 47.6487 192.128 47.7951 192.226 48.0051C192.34 48.216 192.34 48.4597 192.226 48.737C189.984 54.414 186.325 59.0081 181.251 62.5184C176.084 66.097 170.366 67.8872 164.1 67.8872C157.824 67.8872 152.107 66.1043 146.949 62.5385C141.903 59.0435 138.259 54.4585 136.017 48.7824C135.907 48.487 135.907 48.2278 136.017 48.0051C136.118 47.796 136.296 47.6487 136.549 47.5641L141.043 46.0312C141.225 45.9767 141.414 45.9767 141.613 46.0312C141.865 46.1313 142.055 46.3222 142.182 46.5995C143.943 50.989 146.806 54.5403 150.773 57.2524C154.798 60.0064 159.241 61.3847 164.1 61.3847C168.964 61.3847 173.393 60.0273 177.388 57.3161C181.312 54.6576 184.185 51.1336 186.005 46.7441ZM146.803 21.4959C146.801 21.6383 146.764 21.778 146.694 21.9024C146.625 22.0267 146.525 22.1317 146.404 22.2078C141.288 27.8721 139.501 34.7246 141.043 42.7636C141.056 43.0291 140.993 43.2664 140.854 43.4773C140.724 43.6646 140.531 43.7989 140.31 43.8556L135.828 45.1739C135.537 45.2575 135.292 45.2221 135.095 45.0666C134.913 44.9402 134.787 44.7384 134.715 44.4611C133.582 39.4396 133.694 34.4846 135.051 29.5941C136.34 24.9227 138.597 20.8968 141.822 17.5155C142.074 17.2628 142.334 17.1282 142.599 17.1118C142.719 17.1037 142.839 17.1247 142.949 17.173C143.059 17.2213 143.155 17.2954 143.23 17.3891L146.468 20.6377C146.703 20.8904 146.815 21.1759 146.803 21.4959ZM147.516 24.6426C147.378 24.4199 147.477 24.1253 147.814 23.7598L153.17 19.4203C153.253 19.3657 153.331 19.3175 153.402 19.2748C155.405 18.1274 157.64 17.2609 160.111 16.6772C160.459 16.5927 160.705 16.599 160.844 16.6954C161.053 16.8345 161.139 17.1709 161.097 17.7046L160.256 29.3604C160.214 29.7941 160.052 30.0877 159.769 30.2441C159.602 30.3503 159.403 30.395 159.207 30.3705L158.801 30.2441C158.79 30.2268 158.776 30.2187 158.763 30.2187L148.212 25.1227C147.833 24.959 147.602 24.799 147.516 24.6426ZM144.388 29.9923C144.539 29.9923 144.799 30.1096 145.165 30.345L154.85 36.9294C155.217 37.1694 155.401 37.4567 155.401 37.794C155.401 38.1259 155.225 38.4123 154.877 38.6514L145.165 45.2175C144.714 45.5248 144.384 45.6212 144.172 45.5085C144.033 45.4403 143.908 45.2303 143.8 44.8766C143.055 42.4045 142.681 40.0433 142.681 37.794C142.681 35.5574 143.055 33.1935 143.8 30.7042C143.939 30.2414 144.134 30.0041 144.388 29.9923ZM158.928 45.3821C159.308 45.2003 159.644 45.1948 159.94 45.3639C160.235 45.5312 160.397 45.8249 160.426 46.2458L161.287 57.9016C161.328 58.4489 161.25 58.7917 161.052 58.9299C160.914 59.0135 160.662 59.0135 160.3 58.9299C157.788 58.3289 155.552 57.4688 153.593 56.3496C151.658 55.2313 149.794 53.7284 148.005 51.84C147.667 51.4909 147.561 51.2054 147.688 50.9827C147.772 50.8436 148.002 50.6763 148.377 50.4781L158.928 45.3821ZM138.982 52.9311L143.124 50.5417L142.617 49.6389L138.502 52.0301L138.982 52.9311ZM150.102 60.1918L150.672 59.3281C151.764 59.9282 152.429 60.2864 152.669 60.3991L153.105 59.6863C152.381 59.3208 151.47 58.7744 150.375 58.0471L147.663 62.0148C148.648 62.6649 149.652 63.2873 150.672 63.8813L151.115 63.1685L148.946 61.8884L149.66 60.841L151.115 61.6984L151.532 61.0492C151.098 60.8101 150.621 60.5237 150.102 60.1918ZM146.443 54.8422L145.854 55.4104L146.993 56.496L144.363 59.4154L145.165 60.0846L147.688 57.107L148.927 58.028L149.433 57.3979C148.198 56.3923 147.202 55.5404 146.443 54.8422ZM144.154 52.0937C143.972 51.7737 143.813 51.53 143.674 51.3618L139.658 54.0666C139.785 54.2476 139.982 54.5121 140.247 54.8613L142.662 53.1838L141.504 56.4951C141.547 56.5369 141.652 56.6724 141.821 56.8988C141.948 57.0797 142.067 57.2124 142.182 57.2961L145.899 54.1048L145.247 53.4548L143.023 55.3659L144.154 52.0937ZM162.083 62.1402C161.678 62.153 161.37 62.1384 161.16 62.0966L160.824 65.0105L159.415 61.8438L158.575 61.6365L157.48 66.3352C157.691 66.3898 158.02 66.4443 158.466 66.4989L159.08 63.6486L160.483 66.858L161.54 67.0035L162.083 62.1402ZM156.324 61.031L154.18 60.21L152.31 64.595C152.604 64.7282 152.906 64.8457 153.213 64.9469L153.972 63.1058L154.914 63.5022L154.978 65.597C155.217 65.697 155.561 65.8033 156.007 65.9124L155.862 63.6931C156.182 63.6504 156.457 63.4967 156.685 63.2322C156.894 62.9785 157.013 62.6848 157.038 62.3484L157.064 62.0775C157.021 61.5593 156.776 61.211 156.324 61.031ZM155.906 61.762C156.059 61.8338 156.141 61.9384 156.16 62.0775C156.172 62.1233 156.174 62.171 156.166 62.2177C156.158 62.2643 156.141 62.3089 156.115 62.3484C156.071 62.5022 155.975 62.6358 155.843 62.7267C155.784 62.7739 155.714 62.8047 155.639 62.8159C155.565 62.827 155.489 62.8182 155.419 62.7903L154.326 62.3684V62.3484L154.705 61.302L155.906 61.762ZM172.886 60.671L171.9 61.0047L173.476 65.496C173.883 65.3833 174.206 65.2778 174.442 65.1805L172.886 60.671ZM170.978 62.1775L170.763 61.402C168.887 61.7975 167.601 62.0502 166.899 62.1593L167.027 62.9785L168.556 62.7457L169.252 66.6252L170.282 66.4161L169.461 62.5821L170.978 62.1775ZM164.207 62.2666L164.189 62.3484L162.632 66.9853L163.6 67.0289L163.872 66.1898L165.952 66.127L166.242 66.9407L167.191 66.8389L165.345 62.3484L165.282 62.222L164.206 62.2675M164.795 63.3585L165.553 65.2624L164.143 65.326L164.795 63.3585ZM174.632 61.3392C174.632 61.6338 174.701 61.9702 174.841 62.3484L174.967 62.5575C175.117 62.8347 175.325 63.0773 175.575 63.2695C175.826 63.4616 176.114 63.5992 176.421 63.6731C177.065 63.8368 177.669 63.7595 178.23 63.4404C178.676 63.1585 178.998 62.7948 179.196 62.3484C179.348 62.012 179.424 61.6756 179.424 61.3392C179.424 60.9356 179.319 60.5446 179.107 60.1664C178.949 59.8956 178.737 59.6594 178.485 59.472C178.233 59.2845 177.946 59.1497 177.64 59.0754C177.339 58.9907 177.023 58.9677 176.713 59.0077C176.402 59.0476 176.103 59.1499 175.833 59.3081C175.061 59.7536 174.661 60.4291 174.632 61.3392ZM175.492 61.3401C175.492 60.7419 175.75 60.3028 176.269 60.0218C176.441 59.9188 176.632 59.8507 176.83 59.8214C177.029 59.7921 177.231 59.8021 177.426 59.8509C177.834 59.9645 178.152 60.2018 178.374 60.5637C178.513 60.8455 178.583 61.1038 178.583 61.3401C178.583 61.7184 178.45 62.0548 178.185 62.3493C178.112 62.4621 177.987 62.5675 177.806 62.6648C177.494 62.8437 177.131 62.9101 176.776 62.853C176.421 62.8038 176.099 62.6237 175.872 62.3484L175.707 62.0966C175.586 61.8614 175.513 61.6041 175.492 61.3401ZM181.485 55.0076C181.135 55.3986 180.925 55.6232 180.853 55.6823L182.869 57.8198L179.531 56.836C179.35 56.9751 179.112 57.1406 178.817 57.3333L181.693 61.2192L182.452 60.5882L180.689 58.2607L184.051 59.2636C184.469 58.9153 184.727 58.678 184.829 58.5517L181.485 55.0076ZM188.023 54.7167C188.203 54.4767 188.309 54.3358 188.337 54.2939L183.546 52.7238L182.869 53.562L185.481 57.8198L186.132 57.1261L185.644 56.3696L186.947 54.754L187.768 55.0695L188.023 54.7167ZM186.068 54.4831L185.184 55.5932L184.115 53.8339L186.068 54.4831ZM190.734 50.3517L190 49.9544L188.818 52.0292L185.354 50.0989L184.892 50.9199L189.115 53.2475L190.734 50.3517ZM168.936 32.9244C167.592 31.5961 165.979 30.9315 164.1 30.9315C162.223 30.9315 160.619 31.5952 159.288 32.9244C157.945 34.2536 157.271 35.8611 157.271 37.7495C157.271 39.626 157.945 41.2335 159.288 42.5754C160.619 43.9028 162.223 44.5675 164.1 44.5675C165.979 44.5675 167.592 43.9038 168.935 42.5754C170.267 41.2335 170.934 39.626 170.934 37.7495C170.934 35.862 170.268 34.2536 168.936 32.9244ZM167.444 35.0246C167.541 35.1337 167.632 35.2519 167.716 35.3783L167.842 35.5929C168.234 36.2611 168.43 36.9803 168.43 37.7495V37.7949L168.284 38.9041C168.17 39.2533 168.016 39.5951 167.823 39.9315C167.456 40.5628 166.934 41.0907 166.307 41.4653C166.166 41.5453 166.033 41.6199 165.908 41.6926L164.586 42.0263C164.44 42.0432 164.292 42.0517 164.144 42.0517H163.998C163.418 42.0398 162.846 41.9111 162.317 41.6735L162.19 41.6099C162.064 41.539 161.938 41.4693 161.811 41.4008C161.135 40.9768 160.591 40.3749 160.237 39.6615C160.198 39.5699 160.162 39.4771 160.129 39.3833C159.933 38.9193 159.826 38.4228 159.813 37.9195V37.8577V37.794V37.7495V37.6049V37.5158L160.147 36.072C160.219 35.9165 160.297 35.7693 160.382 35.6301C160.764 34.9548 161.324 34.3964 162.001 34.0154C162.195 33.9063 162.396 33.8154 162.608 33.7445L162.967 33.6181L163.05 32.4453H164.94L165.004 33.5554C165.733 33.7108 166.371 34.0182 166.918 34.4764L167.399 34.9619C167.42 34.9787 167.435 34.9998 167.444 35.0246ZM152.119 11.9595C151.643 11.5503 151.193 11.4585 150.773 11.6813C149.794 12.1859 149.069 12.5859 148.592 12.8796L150.924 16.9855L151.867 16.399L150.987 14.9107L151.829 14.4497L153.34 15.5862L154.306 15.1434L152.581 13.8633C152.681 13.6833 152.739 13.5151 152.751 13.3596C152.793 12.8414 152.583 12.375 152.119 11.9595ZM151.703 13.3596C151.706 13.4227 151.692 13.4855 151.662 13.5411C151.632 13.5966 151.587 13.6427 151.532 13.6742L150.526 14.1788L149.913 13.1514L150.924 12.5641C151.148 12.4386 151.344 12.4804 151.512 12.6914C151.587 12.7845 151.642 12.8916 151.675 13.0063C151.708 13.121 151.718 13.2411 151.704 13.3596M159.497 9.62558L161.015 9.41647L161.431 13.3214L162.461 13.2332L162.063 9.33464L163.6 9.22736L163.536 8.38909C162.15 8.46707 160.769 8.60814 159.396 8.81186L159.496 9.62558M154.768 10.2556C154.355 10.6838 154.128 11.2571 154.136 11.8513L154.161 12.0786C154.229 12.7386 154.515 13.2769 155.021 13.6933C155.527 14.1306 156.102 14.3134 156.747 14.2424C157.347 14.1952 157.904 13.9167 158.302 13.466C158.719 13.0032 158.928 12.4659 158.928 11.8513V11.6622C158.907 11.3478 158.819 11.0415 158.671 10.7633C158.522 10.4851 158.317 10.2412 158.068 10.0474C157.829 9.84317 157.552 9.68972 157.251 9.59654C156.951 9.50335 156.635 9.47239 156.323 9.50557C155.728 9.55015 155.172 9.81822 154.768 10.2556ZM155.04 11.9776V11.8513C155.03 11.6604 155.058 11.4695 155.123 11.2898C155.188 11.1101 155.289 10.9452 155.419 10.8048C155.547 10.6609 155.702 10.5438 155.876 10.4603C156.049 10.3768 156.238 10.3285 156.43 10.3184C156.851 10.2938 157.223 10.4138 157.544 10.6784C157.865 10.943 158.045 11.2858 158.087 11.7058V11.8513C158.087 12.2422 157.954 12.5859 157.689 12.8796C157.423 13.1741 157.088 13.3423 156.685 13.3842C156.487 13.4005 156.289 13.3771 156.101 13.3154C155.913 13.2537 155.739 13.1549 155.59 13.025C155.253 12.7468 155.071 12.3977 155.04 11.9776ZM174.088 11.1203C174.058 10.4893 173.821 10.1038 173.374 9.96562C171.97 9.51557 171.178 9.27009 170.995 9.22736L169.631 13.7569C169.909 13.8406 170.274 13.9333 170.725 14.0342L171.161 12.375L172.091 12.6459L172.318 14.5134L173.33 14.9107L173.032 12.7723C173.386 12.705 173.661 12.5032 173.855 12.1668C174.035 11.8431 174.114 11.494 174.088 11.1203ZM172.824 10.6975C173.034 10.7521 173.14 10.893 173.14 11.1203C173.127 11.3258 173.049 11.5131 172.906 11.6813C172.755 11.8658 172.6 11.9376 172.445 11.8958L171.376 11.5358L171.712 10.3629C172.313 10.5311 172.686 10.643 172.823 10.6975M167.317 8.5782L166.268 8.47728L163.998 13.1505L164.966 13.1696L165.402 12.3568C166.148 12.3813 166.814 12.4359 167.399 12.5204L167.677 13.4033L168.663 13.5487L167.317 8.5782ZM166.686 9.66922L167.254 11.7058C166.76 11.6282 166.262 11.5778 165.762 11.5549L166.686 9.66922ZM176.63 11.2212L175.58 10.7602L176.124 13.7815L175.094 15.7499L175.997 16.2354L177.028 14.2606L179.847 12.9623C179.437 12.7259 179.128 12.5459 178.918 12.4195L176.983 13.296L176.63 11.2212Z" fill="#FEBD11" fill-opacity="0.996"/>
</g>
</mask>
<g mask="url(#mask0_6_309)">
<rect x="-12.5759" y="-33.7979" width="240.514" height="165.844" fill="#7F7F7F"/>
</g>
<defs>
<clipPath id="clip0_6_309">
<rect width="202" height="75.4553" fill="white"/>
</clipPath>
</defs>
</svg>
