<svg width="236" height="41" viewBox="0 0 236 41" fill="none" xmlns="http://www.w3.org/2000/svg">
<mask id="mask0_6_364" style="mask-type:alpha" maskUnits="userSpaceOnUse" x="0" y="0" width="236" height="41">
<g clip-path="url(#clip0_6_364)">
<mask id="mask1_6_364" style="mask-type:luminance" maskUnits="userSpaceOnUse" x="0" y="0" width="236" height="41">
<path d="M0.546394 0.352943H235.504V40.3652H0.546394V0.352943Z" fill="white"/>
</mask>
<g mask="url(#mask1_6_364)">
<mask id="mask2_6_364" style="mask-type:luminance" maskUnits="userSpaceOnUse" x="0" y="0" width="236" height="41">
<path d="M0.546394 40.3652H235.504V0.352943H0.546394V40.3652Z" fill="white"/>
</mask>
<g mask="url(#mask2_6_364)">
<path d="M92.6848 4.73159C92.6848 3.78125 93.0609 2.86983 93.7305 2.19784C94.4001 1.52584 95.3083 1.14832 96.2552 1.14832C97.2021 1.14832 98.1102 1.52584 98.7798 2.19784C99.4494 2.86983 99.8255 3.78125 99.8255 4.73159C99.791 5.65879 99.3998 6.53647 98.734 7.18021C98.0681 7.82394 97.1797 8.18359 96.2552 8.18359C95.3307 8.18359 94.4421 7.82394 93.7763 7.18021C93.1105 6.53647 92.7192 5.65879 92.6848 4.73159Z" fill="#273B7D"/>
<path d="M149.018 28.63C149.018 26.6412 150.614 25.0342 152.58 25.0342C153.53 25.0342 154.441 25.4128 155.112 26.0867C155.784 26.7605 156.161 27.6745 156.161 28.6275C156.161 29.5804 155.784 30.4944 155.112 31.1683C154.441 31.8421 153.53 32.2207 152.58 32.2207C150.616 32.2207 149.018 30.6112 149.018 28.6275" fill="#499FDD"/>
<path d="M34.0896 27.0751C31.0165 27.0751 28.8782 24.6247 28.8782 21.1212C28.8782 17.6203 31.0164 15.1724 34.092 15.1724C37.1825 15.1724 39.3431 17.6203 39.3431 21.1212C39.3431 24.6796 37.2298 27.0751 34.0896 27.0751ZM34.0896 9.93977C27.5854 9.93977 22.8638 14.6434 22.8638 21.1212C22.8638 27.6016 27.5878 32.3027 34.0896 32.3027C40.6212 32.3027 45.36 27.6016 45.36 21.1237C45.36 14.6434 40.6187 9.93977 34.0896 9.93977ZM85.7702 21.6827C85.5439 21.2433 85.2578 20.8377 84.92 20.4775L84.721 20.2703L84.93 20.0707C85.2284 19.7538 85.5341 19.3795 85.8275 18.9453L91.5709 10.3814H84.5993L80.2854 17.0813C80.0418 17.4407 79.5496 17.6203 78.8111 17.6203H77.829V4.95414C77.829 2.4214 76.2552 2.07704 74.557 2.07704H71.6479L71.6554 31.9734H77.8314V23.0052H78.4108C79.1145 23.0052 79.5917 23.0876 79.813 23.4718L83.2193 29.9247C84.1715 31.6764 85.1188 31.9734 86.904 31.9734H91.6355L88.11 26.1243L85.7728 21.6827M115.75 9.88986C112.608 9.88986 110.604 11.2922 109.48 12.4775L109.107 12.8568L108.973 12.3403C108.645 11.0701 107.531 10.374 105.857 10.374H103.09L103.107 31.9659H109.241V22.0146C109.241 21.0414 109.365 20.198 109.624 19.4269C110.305 17.0938 112.21 15.644 114.589 15.644C116.504 15.644 117.252 16.6596 117.252 19.2797V28.6845C117.252 30.9203 118.284 31.9659 120.514 31.9659H123.433L123.423 18.2317C123.423 12.7769 120.77 9.88986 115.75 9.88986ZM96.3297 10.3814H93.4232L93.443 27.0776V31.9734H96.5435L96.6529 31.9783L98.1001 31.9734H99.5372V31.9659H99.547L99.5595 13.6628C99.5595 11.4544 98.5078 10.3839 96.3323 10.3839M58.1795 27.0751C55.1064 27.0751 52.9657 24.6247 52.9657 21.1212C52.9657 17.6203 55.1065 15.1724 58.1821 15.1724C61.2651 15.1724 63.4332 17.6203 63.4332 21.1212C63.4332 24.6796 61.3198 27.0751 58.1821 27.0751H58.1795ZM58.1795 9.93977C51.6703 9.93977 46.9463 14.6434 46.9463 21.1212C46.9463 27.6016 51.6704 32.3027 58.1821 32.3027C64.7037 32.3027 69.4525 27.6016 69.4525 21.1237C69.4525 14.6434 64.7037 9.93977 58.1821 9.93977" fill="#273B7D"/>
</g>
</g>
<mask id="mask3_6_364" style="mask-type:luminance" maskUnits="userSpaceOnUse" x="0" y="0" width="236" height="41">
<path d="M0.546394 0.352943H235.504V40.3652H0.546394V0.352943Z" fill="white"/>
</mask>
<g mask="url(#mask3_6_364)">
<mask id="mask4_6_364" style="mask-type:luminance" maskUnits="userSpaceOnUse" x="0" y="1" width="236" height="40">
<path d="M0.546394 1.14113H235.454V40.3125H0.546394V1.14113Z" fill="white"/>
</mask>
<g mask="url(#mask4_6_364)">
<mask id="mask5_6_364" style="mask-type:luminance" maskUnits="userSpaceOnUse" x="0" y="0" width="236" height="41">
<path d="M0.546394 40.3652H235.504V0.352943H0.546394V40.3652Z" fill="white"/>
</mask>
<g mask="url(#mask5_6_364)">
<path d="M189.644 27.0751C186.571 27.0751 184.428 24.6247 184.428 21.1213C184.428 17.6203 186.571 15.1724 189.644 15.1724C192.732 15.1724 194.898 17.6203 194.898 21.1213C194.898 24.6796 192.784 27.0751 189.644 27.0751ZM189.644 9.93977C183.135 9.93977 178.413 14.6434 178.413 21.1213C178.413 27.6016 183.135 32.3027 189.644 32.3027C196.168 32.3027 200.915 27.6016 200.915 21.1237C200.915 14.6434 196.166 9.93977 189.644 9.93977Z" fill="#499FDD"/>
<path d="M136.355 26.1241C133.001 26.1241 131.807 23.1896 131.807 20.4373C131.807 19.2245 132.113 15.2745 136.034 15.2745C137.981 15.2745 140.574 15.8334 140.574 20.6394C140.574 25.1734 138.279 26.1241 136.355 26.1241ZM143.759 10.3238C142.595 10.3238 141.7 10.7904 141.25 11.6413L141.081 11.9707L140.798 11.7211C139.808 10.8628 138.033 9.84217 135.151 9.84217C129.415 9.84217 125.554 14.1665 125.554 20.597C125.554 27.0249 129.55 31.5164 135.266 31.5164C137.217 31.5164 138.761 31.0573 139.985 30.129L140.457 29.7722V30.3711C140.457 33.2557 138.6 34.8477 135.231 34.8477C133.592 34.8477 132.103 34.4484 131.103 34.0841C129.806 33.6898 129.04 34.0167 128.515 35.3268L128.028 36.5345L127.339 38.3012L127.764 38.5283C129.922 39.6761 132.73 40.3623 135.266 40.3623C140.487 40.3623 146.588 37.6798 146.588 30.129L146.611 10.3238H143.759Z" fill="#273B7D"/>
</g>
</g>
</g>
<mask id="mask6_6_364" style="mask-type:luminance" maskUnits="userSpaceOnUse" x="0" y="0" width="236" height="41">
<path d="M0.546394 0.352943H235.504V40.3652H0.546394V0.352943Z" fill="white"/>
</mask>
<g mask="url(#mask6_6_364)">
<mask id="mask7_6_364" style="mask-type:luminance" maskUnits="userSpaceOnUse" x="0" y="0" width="236" height="41">
<path d="M0.546394 40.3652H235.504V0.352943H0.546394V40.3652Z" fill="white"/>
</mask>
<g mask="url(#mask7_6_364)">
<path d="M11.25 26.8282L6.25748 26.8232V20.8344C6.25748 19.5519 6.75226 18.8881 7.84376 18.7334H11.25C13.6792 18.7334 15.2505 20.2705 15.253 22.7583C15.2505 25.3135 13.7189 26.8257 11.25 26.8257V26.8282ZM6.25748 10.6686V9.09152C6.25748 7.71162 6.8393 7.05535 8.11479 6.97051H10.6708C12.8612 6.97051 14.174 8.28554 14.174 10.4889C14.174 12.1657 13.2739 14.1246 10.7503 14.1246H6.25748V10.6686ZM17.625 16.6473L16.7224 16.1383L17.5106 15.462C18.4281 14.671 19.9622 12.8919 19.9622 9.82265C19.9622 5.12148 16.3321 2.08719 10.7105 2.08719H3.56477C2.76072 2.11661 1.99882 2.45537 1.43688 3.03328C0.874944 3.61119 0.556077 4.38392 0.546394 5.19135V31.8662H10.8372C17.0854 31.8662 21.1182 28.4526 21.1182 23.1651C21.1182 20.3179 19.8155 17.885 17.625 16.6473Z" fill="#273B7D"/>
<path d="M228.311 9.96246C227.045 9.96714 225.796 10.2573 224.657 10.8114C223.517 11.3655 222.516 12.1695 221.728 13.1639L221.285 13.7279L220.937 13.0966C219.798 11.018 217.844 9.96246 215.126 9.96246C212.275 9.96246 210.363 11.5595 209.475 12.5077L208.893 13.139L208.669 12.3081C208.346 11.1103 207.285 10.454 205.678 10.454H203.1L203.075 31.9636H208.93V22.469C208.93 21.6355 209.035 20.8146 209.241 19.9537C209.801 17.658 211.337 15.1901 213.92 15.4372C215.512 15.5919 216.292 16.8271 216.292 19.2126V31.9636H222.19V22.469C222.19 21.4284 222.287 20.6499 222.521 19.8713C222.993 17.6805 224.599 15.4347 227.091 15.4347C228.896 15.4347 229.562 16.4578 229.562 19.2126V28.8195C229.562 30.9904 230.527 31.9636 232.692 31.9636H235.447L235.452 18.2319C235.452 12.7447 233.045 9.96246 228.311 9.96246ZM175.019 24.4951C175.002 24.5176 172.483 27.1826 169.164 27.1826C166.141 27.1826 163.088 25.3211 163.088 21.1664C163.088 17.5781 165.455 15.0704 168.846 15.0704C169.945 15.0704 171.198 15.4646 171.394 16.1309L171.422 16.2432C171.547 16.7018 171.82 17.1062 172.197 17.3936C172.575 17.681 173.036 17.8353 173.51 17.8327L176.718 17.8377V15.0229C176.718 11.3099 172.011 9.96246 168.846 9.96246C162.073 9.96246 157.16 14.6936 157.16 21.2113C157.16 27.7241 162.018 32.4502 168.722 32.4502C174.535 32.4502 177.697 28.6149 177.727 28.5775L177.896 28.3679L175.355 24.1383L175.019 24.4951Z" fill="#499FDD"/>
</g>
</g>
</g>
</mask>
<g mask="url(#mask0_6_364)">
<rect x="-23.4326" y="-50.4072" width="282.865" height="138.922" fill="#7F7F7F"/>
</g>
<defs>
<clipPath id="clip0_6_364">
<rect width="236" height="40.1702" fill="white" transform="translate(0 0.642578)"/>
</clipPath>
</defs>
</svg>
