<svg width="33" height="33" viewBox="0 0 33 33" fill="none" xmlns="http://www.w3.org/2000/svg">
<g clip-path="url(#clip0_105_2128)">
<path d="M11.0013 16.5C11.0013 13.4625 13.4631 10.9996 16.5007 10.9996C19.5382 10.9996 22.0013 13.4625 22.0013 16.5C22.0013 19.5375 19.5382 22.0004 16.5007 22.0004C13.4631 22.0004 11.0013 19.5375 11.0013 16.5ZM8.02777 16.5C8.02777 21.1794 11.8211 24.9726 16.5007 24.9726C21.1802 24.9726 24.9736 21.1794 24.9736 16.5C24.9736 11.8206 21.1802 8.02745 16.5007 8.02745C11.8211 8.02745 8.02777 11.8206 8.02777 16.5ZM23.3289 7.69151C23.3287 8.08311 23.4447 8.46597 23.6622 8.79167C23.8796 9.11737 24.1887 9.37127 24.5505 9.52128C24.9123 9.67128 25.3104 9.71065 25.6945 9.63441C26.0786 9.55816 26.4315 9.36973 26.7085 9.09293C26.9856 8.81613 27.1743 8.46341 27.2509 8.07936C27.3274 7.6953 27.2884 7.29718 27.1386 6.93532C26.9889 6.57346 26.7352 6.26413 26.4097 6.04643C26.0842 5.82873 25.7014 5.71246 25.3098 5.7123H25.309C24.784 5.71254 24.2807 5.92112 23.9094 6.29222C23.5381 6.66332 23.3294 7.16659 23.3289 7.69151ZM9.83439 29.9306C8.22565 29.8573 7.35124 29.5894 6.77016 29.363C5.99977 29.0631 5.4501 28.7059 4.87218 28.1288C4.29426 27.5517 3.93653 27.0026 3.63793 26.2322C3.41141 25.6514 3.14344 24.7768 3.07031 23.1681C2.99032 21.4289 2.97434 20.9064 2.97434 16.5001C2.97434 12.0938 2.99164 11.5728 3.07031 9.83215C3.14357 8.22347 3.41352 7.35055 3.63793 6.76804C3.93785 5.99768 4.29506 5.44804 4.87218 4.87014C5.44931 4.29224 5.99845 3.93452 6.77016 3.63594C7.35098 3.40943 8.22565 3.14147 9.83439 3.06834C11.5737 2.98835 12.0962 2.97238 16.5007 2.97238C20.9051 2.97238 21.4282 2.98967 23.1689 3.06834C24.7777 3.1416 25.6506 3.41154 26.2331 3.63594C27.0035 3.93452 27.5532 4.29304 28.1311 4.87014C28.709 5.44724 29.0655 5.99768 29.3654 6.76804C29.5919 7.34884 29.8599 8.22347 29.933 9.83215C30.013 11.5728 30.029 12.0938 30.029 16.5001C30.029 20.9064 30.013 21.4274 29.933 23.1681C29.8597 24.7768 29.5904 25.6512 29.3654 26.2322C29.0655 27.0026 28.7082 27.5522 28.1311 28.1288C27.554 28.7054 27.0035 29.0631 26.2331 29.363C25.6523 29.5895 24.7777 29.8575 23.1689 29.9306C21.4296 30.0106 20.9071 30.0266 16.5007 30.0266C12.0942 30.0266 11.5732 30.0106 9.83439 29.9306ZM9.69777 0.099924C7.94117 0.179916 6.74085 0.458436 5.6926 0.866316C4.60698 1.28753 3.68796 1.85262 2.7696 2.76949C1.85124 3.68636 1.28758 4.6068 0.866351 5.69237C0.458454 6.74124 0.179923 7.94086 0.099928 9.69738C0.0186127 11.4567 0 12.0191 0 16.5C0 20.9809 0.0186127 21.5433 0.099928 23.3026C0.179923 25.0593 0.458454 26.2588 0.866351 27.3076C1.28758 28.3925 1.85137 29.314 2.7696 30.2305C3.68783 31.147 4.60698 31.7113 5.6926 32.1337C6.74283 32.5416 7.94117 32.8201 9.69777 32.9001C11.4581 32.9801 12.0196 33 16.5007 33C20.9817 33 21.5442 32.9814 23.3036 32.9001C25.0603 32.8201 26.2598 32.5416 27.3087 32.1337C28.3937 31.7113 29.3134 31.1474 30.2317 30.2305C31.1501 29.3136 31.7126 28.3925 32.135 27.3076C32.5429 26.2588 32.8227 25.0591 32.9014 23.3026C32.9814 21.542 33 20.9809 33 16.5C33 12.0191 32.9814 11.4567 32.9014 9.69738C32.8214 7.94072 32.5429 6.74058 32.135 5.69237C31.7126 4.60746 31.1486 3.68782 30.2317 2.76949C29.3148 1.85117 28.3937 1.28753 27.31 0.866316C26.2598 0.458436 25.0601 0.178596 23.3049 0.099924C21.5455 0.019932 20.983 0 16.502 0C12.0209 0 11.4581 0.018612 9.69777 0.099924Z" fill="url(#paint0_radial_105_2128)"/>
<path d="M11.0013 16.5C11.0013 13.4625 13.4631 10.9996 16.5007 10.9996C19.5382 10.9996 22.0013 13.4625 22.0013 16.5C22.0013 19.5375 19.5382 22.0004 16.5007 22.0004C13.4631 22.0004 11.0013 19.5375 11.0013 16.5ZM8.02777 16.5C8.02777 21.1794 11.8211 24.9726 16.5007 24.9726C21.1802 24.9726 24.9736 21.1794 24.9736 16.5C24.9736 11.8206 21.1802 8.02745 16.5007 8.02745C11.8211 8.02745 8.02777 11.8206 8.02777 16.5ZM23.3289 7.69151C23.3287 8.08311 23.4447 8.46597 23.6622 8.79167C23.8796 9.11737 24.1887 9.37127 24.5505 9.52128C24.9123 9.67128 25.3104 9.71065 25.6945 9.63441C26.0786 9.55816 26.4315 9.36973 26.7085 9.09293C26.9856 8.81613 27.1743 8.46341 27.2509 8.07936C27.3274 7.6953 27.2884 7.29718 27.1386 6.93532C26.9889 6.57346 26.7352 6.26413 26.4097 6.04643C26.0842 5.82873 25.7014 5.71246 25.3098 5.7123H25.309C24.784 5.71254 24.2807 5.92112 23.9094 6.29222C23.5381 6.66332 23.3294 7.16659 23.3289 7.69151ZM9.83439 29.9306C8.22565 29.8573 7.35124 29.5894 6.77016 29.363C5.99977 29.0631 5.4501 28.7059 4.87218 28.1288C4.29426 27.5517 3.93653 27.0026 3.63793 26.2322C3.41141 25.6514 3.14344 24.7768 3.07031 23.1681C2.99032 21.4289 2.97434 20.9064 2.97434 16.5001C2.97434 12.0938 2.99164 11.5728 3.07031 9.83215C3.14357 8.22347 3.41352 7.35055 3.63793 6.76804C3.93785 5.99768 4.29506 5.44804 4.87218 4.87014C5.44931 4.29224 5.99845 3.93452 6.77016 3.63594C7.35098 3.40943 8.22565 3.14147 9.83439 3.06834C11.5737 2.98835 12.0962 2.97238 16.5007 2.97238C20.9051 2.97238 21.4282 2.98967 23.1689 3.06834C24.7777 3.1416 25.6506 3.41154 26.2331 3.63594C27.0035 3.93452 27.5532 4.29304 28.1311 4.87014C28.709 5.44724 29.0655 5.99768 29.3654 6.76804C29.5919 7.34884 29.8599 8.22347 29.933 9.83215C30.013 11.5728 30.029 12.0938 30.029 16.5001C30.029 20.9064 30.013 21.4274 29.933 23.1681C29.8597 24.7768 29.5904 25.6512 29.3654 26.2322C29.0655 27.0026 28.7082 27.5522 28.1311 28.1288C27.554 28.7054 27.0035 29.0631 26.2331 29.363C25.6523 29.5895 24.7777 29.8575 23.1689 29.9306C21.4296 30.0106 20.9071 30.0266 16.5007 30.0266C12.0942 30.0266 11.5732 30.0106 9.83439 29.9306ZM9.69777 0.099924C7.94117 0.179916 6.74085 0.458436 5.6926 0.866316C4.60698 1.28753 3.68796 1.85262 2.7696 2.76949C1.85124 3.68636 1.28758 4.6068 0.866351 5.69237C0.458454 6.74124 0.179923 7.94086 0.099928 9.69738C0.0186127 11.4567 0 12.0191 0 16.5C0 20.9809 0.0186127 21.5433 0.099928 23.3026C0.179923 25.0593 0.458454 26.2588 0.866351 27.3076C1.28758 28.3925 1.85137 29.314 2.7696 30.2305C3.68783 31.147 4.60698 31.7113 5.6926 32.1337C6.74283 32.5416 7.94117 32.8201 9.69777 32.9001C11.4581 32.9801 12.0196 33 16.5007 33C20.9817 33 21.5442 32.9814 23.3036 32.9001C25.0603 32.8201 26.2598 32.5416 27.3087 32.1337C28.3937 31.7113 29.3134 31.1474 30.2317 30.2305C31.1501 29.3136 31.7126 28.3925 32.135 27.3076C32.5429 26.2588 32.8227 25.0591 32.9014 23.3026C32.9814 21.542 33 20.9809 33 16.5C33 12.0191 32.9814 11.4567 32.9014 9.69738C32.8214 7.94072 32.5429 6.74058 32.135 5.69237C31.7126 4.60746 31.1486 3.68782 30.2317 2.76949C29.3148 1.85117 28.3937 1.28753 27.31 0.866316C26.2598 0.458436 25.0601 0.178596 23.3049 0.099924C21.5455 0.019932 20.983 0 16.502 0C12.0209 0 11.4581 0.018612 9.69777 0.099924Z" fill="url(#paint1_radial_105_2128)"/>
</g>
<defs>
<radialGradient id="paint0_radial_105_2128" cx="0" cy="0" r="1" gradientUnits="userSpaceOnUse" gradientTransform="translate(4.38442 33.1559) scale(43.0805 43.0787)">
<stop offset="0.09" stop-color="#FA8F21"/>
<stop offset="0.78" stop-color="#D82D7E"/>
</radialGradient>
<radialGradient id="paint1_radial_105_2128" cx="0" cy="0" r="1" gradientUnits="userSpaceOnUse" gradientTransform="translate(20.0138 34.6343) scale(33.9533 33.952)">
<stop offset="0.64" stop-color="#8C3AAA" stop-opacity="0"/>
<stop offset="1" stop-color="#8C3AAA"/>
</radialGradient>
<clipPath id="clip0_105_2128">
<rect width="33" height="33" fill="white"/>
</clipPath>
</defs>
</svg>
