<svg width="43" height="43" viewBox="0 0 43 43" fill="none" xmlns="http://www.w3.org/2000/svg">
<rect width="43" height="43" fill="white"/>
<path d="M35.2063 16.1967L26.5346 15.4442L23.1483 7.47125C22.5392 6.02 20.4608 6.02 19.8517 7.47125L16.4654 15.4621L7.81167 16.1967C6.23501 16.3221 5.59001 18.2929 6.79042 19.3321L13.3658 25.0296L11.395 33.4863C11.0367 35.0271 12.7029 36.2454 14.0646 35.4213L21.5 30.9421L28.9354 35.4392C30.2971 36.2633 31.9633 35.045 31.605 33.5042L29.6342 25.0296L36.2096 19.3321C37.41 18.2929 36.7829 16.3221 35.2063 16.1967ZM21.5 27.5917L14.7633 31.6588L16.555 23.9904L10.6067 18.8304L18.4542 18.1496L21.5 10.9292L24.5638 18.1675L32.4113 18.8483L26.4629 24.0083L28.2546 31.6767L21.5 27.5917Z" fill="#2029FF"/>
</svg>
