<svg width="70" height="70" viewBox="0 0 70 70" fill="none" xmlns="http://www.w3.org/2000/svg">
<path d="M31.083 44.2383H26.2759L29.2803 25.7747H34.0878L31.083 44.2383ZM22.232 25.7747L17.6491 38.4741L17.1069 35.7395L17.1074 35.7405L15.4899 27.4372C15.4899 27.4372 15.2943 25.7747 13.2096 25.7747H5.6333L5.5444 26.0874C5.5444 26.0874 7.86124 26.5694 10.5727 28.1978L14.749 44.2388H19.7576L27.4055 25.7747H22.232ZM60.0417 44.2383H64.4556L60.6072 25.7742H56.743C54.9586 25.7742 54.524 27.1502 54.524 27.1502L47.3546 44.2383H52.3657L53.3678 41.4958H59.4787L60.0417 44.2383ZM54.7521 37.7071L57.2779 30.7976L58.6988 37.7071H54.7521ZM47.7305 30.2148L48.4165 26.2499C48.4165 26.2499 46.2997 25.4448 44.093 25.4448C41.7075 25.4448 36.0426 26.4874 36.0426 31.5572C36.0426 36.3272 42.6913 36.3865 42.6913 38.892C42.6913 41.3975 36.7276 40.9485 34.7595 39.3686L34.0448 43.5143C34.0448 43.5143 36.1913 44.5569 39.4707 44.5569C42.7511 44.5569 47.6999 42.8584 47.6999 38.2356C47.6999 33.435 40.9914 32.988 40.9914 30.9008C40.9919 28.8132 45.6735 29.0813 47.7305 30.2148Z" fill="#2566AF"/>
<path d="M17.1074 35.7399L15.4899 27.4366C15.4899 27.4366 15.2943 25.7742 13.2096 25.7742H5.6333L5.5444 26.0868C5.5444 26.0868 9.18585 26.8415 12.6786 29.669C16.0183 32.3715 17.1074 35.7399 17.1074 35.7399Z" fill="#E6A540"/>
</svg>
