<svg width="38" height="38" viewBox="0 0 38 38" fill="none" xmlns="http://www.w3.org/2000/svg">
<g clip-path="url(#clip0_105_2112)">
<path d="M19 38C29.4934 38 38 29.4934 38 19C38 8.5066 29.4934 0 19 0C8.5066 0 0 8.5066 0 19C0 29.4934 8.5066 38 19 38Z" fill="#34AADF"/>
<path d="M8.22223 18.8776C8.22223 18.8776 17.695 14.9343 20.9803 13.5457C22.2397 12.9904 26.5106 11.213 26.5106 11.213C26.5106 11.213 28.4819 10.4355 28.3176 12.3238C28.2628 13.1014 27.8248 15.8229 27.3867 18.7666C26.7296 22.9322 26.0178 27.4865 26.0178 27.4865C26.0178 27.4865 25.9083 28.7639 24.9775 28.9861C24.0466 29.2082 22.5134 28.2086 22.2397 27.9863C22.0206 27.8198 18.133 25.3204 16.7094 24.0985C16.3261 23.7653 15.888 23.0988 16.7641 22.3212C18.7353 20.4884 21.0898 18.2112 22.5134 16.7671C23.1705 16.1006 23.8276 14.5455 21.0898 16.4338C17.2022 19.1554 13.3693 21.7103 13.3693 21.7103C13.3693 21.7103 12.4932 22.2656 10.8505 21.7658C9.20778 21.266 7.29132 20.5994 7.29132 20.5994C7.29132 20.5994 5.97726 19.7663 8.22223 18.8776Z" fill="white"/>
</g>
<defs>
<clipPath id="clip0_105_2112">
<rect width="38" height="38" fill="white"/>
</clipPath>
</defs>
</svg>
