<svg width="38" height="34" viewBox="0 0 38 34" fill="none" xmlns="http://www.w3.org/2000/svg">
<g clip-path="url(#clip0_105_2134)">
<path d="M33.8418 8.52515H3.22608C2.49864 8.52515 1.90894 9.12884 1.90894 9.87354V32.6288C1.90894 33.3735 2.49864 33.9772 3.22608 33.9772H33.8418C34.5692 33.9772 35.1589 33.3735 35.1589 32.6288V9.87354C35.1589 9.12884 34.5692 8.52515 33.8418 8.52515Z" fill="#4989F5"/>
<path d="M33.4575 8.33398H3.57356C2.64785 8.33398 1.92749 15.6683 1.92749 16.6159L18.2928 33.9772H33.4575C34.3861 33.9746 35.1382 33.2047 35.1407 32.2541V10.0568C35.138 9.10631 34.3859 8.33658 33.4575 8.33398Z" fill="url(#paint0_linear_105_2134)"/>
<path d="M9.50107 12.7874H19.0011V0.0229492H10.9236L9.50107 12.7874Z" fill="#3C4BA6"/>
<path d="M28.5011 12.7874H19.0011V0.0229492H27.0786L28.5011 12.7874ZM35.1589 2.4426L35.1707 2.48611C35.1679 2.47075 35.1621 2.45649 35.1589 2.4426Z" fill="#7BABF7"/>
<path d="M35.1707 2.48586L35.1589 2.44236C34.8578 1.03045 33.637 0.0236191 32.2254 0.0227051H27.0786L28.5 12.7875H38L35.1707 2.48586Z" fill="#3F51B5"/>
<path d="M2.84354 2.44263L2.83142 2.48614C2.83436 2.47078 2.84024 2.45652 2.84354 2.44263Z" fill="#7BABF7"/>
<path d="M2.83107 2.48586L2.84286 2.44236C3.14404 1.03045 4.36475 0.0236191 5.77643 0.0227051H10.9236L9.5 12.7875H0L2.83107 2.48586Z" fill="#7BABF7"/>
<path fill-rule="evenodd" clip-rule="evenodd" d="M9.51713 12.7842C9.51713 15.4682 7.39167 17.6441 4.76981 17.6441C2.14796 17.6441 0.0224915 15.4682 0.0224915 12.7842H9.51713Z" fill="#709BE0"/>
<path fill-rule="evenodd" clip-rule="evenodd" d="M19.0118 12.7842C19.0118 15.4682 16.8863 17.6441 14.2645 17.6441C11.6426 17.6441 9.51715 15.4682 9.51715 12.7842H19.0118Z" fill="#3C4BA6"/>
<path fill-rule="evenodd" clip-rule="evenodd" d="M28.5064 12.7842C28.5064 15.4682 26.381 17.6441 23.7591 17.6441C21.1372 17.6441 19.0118 15.4682 19.0118 12.7842H28.5064Z" fill="#709BE0"/>
<path fill-rule="evenodd" clip-rule="evenodd" d="M38 12.7842C38 15.4682 35.8745 17.6441 33.2527 17.6441C30.6308 17.6441 28.5054 15.4682 28.5054 12.7842H38Z" fill="#3C4BA6"/>
<path d="M33.2529 25.9513C33.2361 25.7198 33.2082 25.5085 33.1686 25.2387H27.99C27.99 25.9801 27.99 26.7892 27.9872 27.5311H30.9872C30.9234 27.8768 30.7936 28.2062 30.6051 28.5004C30.4167 28.7946 30.1733 29.0478 29.8889 29.2455C29.8889 29.2455 29.8889 29.2327 29.8868 29.2323C29.5196 29.4791 29.106 29.6444 28.6725 29.7175C28.238 29.7989 27.7924 29.7969 27.3586 29.7116C26.9181 29.6183 26.501 29.4332 26.1332 29.1679C25.5904 28.7739 25.1718 28.2262 24.9286 27.5921C24.91 27.5428 24.8929 27.4931 24.8754 27.4426V27.4371L24.88 27.4335C24.644 26.7243 24.6434 25.9552 24.8782 25.2456C25.0437 24.7478 25.3159 24.2943 25.675 23.9184C26.5174 23.0264 27.7761 22.6908 28.9364 23.049C29.3814 23.1887 29.788 23.4337 30.1232 23.7641L31.1354 22.728C31.3139 22.5433 31.4993 22.3646 31.6711 22.1737C31.1579 21.6836 30.5555 21.3017 29.8982 21.0498C28.7021 20.6058 27.3936 20.594 26.19 21.0165C26.1481 21.0312 26.1064 21.0464 26.065 21.0622C24.7666 21.5619 23.6984 22.542 23.0714 23.8087C22.8501 24.2571 22.6888 24.734 22.5922 25.2266C22.0189 28.1432 23.7573 31.0141 26.5639 31.7858C27.4814 32.0373 28.4568 32.0311 29.3814 31.8161C30.2216 31.6219 30.9984 31.2087 31.6364 30.6165C32.3022 29.9895 32.7793 29.1541 33.0293 28.2667C33.2383 27.5148 33.314 26.7305 33.2529 25.9513Z" fill="white"/>
</g>
<defs>
<linearGradient id="paint0_linear_105_2134" x1="1.92749" y1="11915.4" x2="35340.4" y2="11915.4" gradientUnits="userSpaceOnUse">
<stop offset="0.03" stop-color="#4079D8"/>
<stop offset="1" stop-color="#4989F5"/>
</linearGradient>
<clipPath id="clip0_105_2134">
<rect width="38" height="34" fill="white"/>
</clipPath>
</defs>
</svg>
