<svg width="36" height="33" viewBox="0 0 36 33" fill="none" xmlns="http://www.w3.org/2000/svg">
<path d="M34.0863 11.0448L23.9069 10.1979L19.9319 1.22496C19.2168 -0.408321 16.7771 -0.408321 16.062 1.22496L12.087 10.2181L1.92854 11.0448C0.0777287 11.186 -0.679421 13.404 0.729718 14.5735L8.44843 20.9857L6.13492 30.5031C5.71428 32.2372 7.67025 33.6083 9.26867 32.6808L17.9969 27.6398L26.7252 32.7009C28.3236 33.6285 30.2796 32.2573 29.8589 30.5232L27.5454 20.9857L35.2641 14.5735C36.6733 13.404 35.9371 11.186 34.0863 11.0448ZM17.9969 23.8691L10.0889 28.4463L12.1921 19.8162L5.20952 14.0089L14.4215 13.2427L17.9969 5.11661L21.5934 13.2629L30.8054 14.0291L23.8228 19.8363L25.926 28.4665L17.9969 23.8691Z" fill="white"/>
</svg>
