<svg width="131" height="41" viewBox="0 0 131 41" fill="none" xmlns="http://www.w3.org/2000/svg">
<path d="M20.8868 0.499756C31.7656 0.499756 40.5873 9.45569 40.5873 20.5001C40.5873 31.5444 31.7656 40.5004 20.8868 40.5004C10.008 40.5004 1.18632 31.5444 1.18632 20.5001C1.18632 9.45569 10.008 0.499756 20.8868 0.499756Z" fill="url(#paint0_linear_3_186)"/>
<path d="M20.8868 0.371582C9.94489 0.371582 1.06011 9.37877 1.06011 20.5C1.06011 31.6213 9.93227 40.6285 20.8868 40.6285C31.8413 40.6285 40.7135 31.6213 40.7135 20.5C40.7135 9.37877 31.8413 0.371582 20.8868 0.371582ZM20.8868 38.4119C11.1438 38.4119 3.24345 30.3913 3.24345 20.5C3.24345 10.6088 11.1438 2.58814 20.8868 2.58814C30.6298 2.58814 38.5301 10.6088 38.5301 20.5C38.5301 30.3913 30.6298 38.4119 20.8868 38.4119Z" fill="#8DC641"/>
<path d="M27.8154 15.926L23.3983 22.5757H27.8154V15.926ZM29.4813 13.2354V22.5885H31.4249V24.2797H29.4813V27.7775H27.8028V24.2797H21.5557V22.4604L27.8533 13.2482L29.4813 13.2354ZM19.7131 26.0735V27.7647H10.3487V27.7135C10.4371 26.1247 10.8409 24.9588 11.6234 23.9979C12.2544 23.2035 13.0243 22.6141 14.6018 21.6147C14.6018 21.6147 15.1571 21.256 15.3212 21.1535C16.1668 20.6025 16.7094 20.1669 17.1512 19.6672C17.6938 19.0266 17.9715 18.3347 17.9715 17.5147C17.9715 15.926 16.8609 14.8369 15.2707 14.8369C13.4155 14.8369 12.469 16.2719 12.4185 18.4116V18.45H10.7526V18.4116L10.74 18.0272C10.74 15.1572 12.5826 13.2354 15.3591 13.2354C18.0724 13.2354 19.8393 14.901 19.8393 17.4763C19.8393 18.796 19.3724 19.8594 18.4763 20.7947C17.8074 21.5122 17.1133 21.9863 15.561 22.9472C15.5357 22.96 15.5231 22.9728 15.4979 22.9857C15.4222 23.0241 15.0814 23.2291 14.9931 23.2932C14.2485 23.7416 13.7941 24.0619 13.3903 24.4463C12.8981 24.9204 12.5699 25.4457 12.4185 26.0607H19.7131V26.0735Z" fill="white"/>
<path d="M50.9613 12.3896H57.5618C59.2024 12.3896 60.4897 12.7868 61.4362 13.5684C62.3828 14.3628 62.8623 15.5287 62.8623 17.0918C62.8623 18.5653 62.4206 19.7312 61.5372 20.5896C60.6538 21.4481 59.4548 21.8837 57.9277 21.8837H53.6368V27.8287H50.9613V12.3896ZM53.6368 14.6575V19.7184H57.3598C59.3034 19.7184 60.2625 18.8728 60.2625 17.1815C60.2625 15.5031 59.215 14.6703 57.12 14.6703L53.6368 14.6575Z" fill="#181818"/>
<path d="M70.788 16.4255V18.7958C70.3589 18.7574 70.0812 18.7318 69.9298 18.7318C67.8095 18.7318 66.7494 20.1283 66.7494 22.9215V27.8415H64.3389V16.6433H66.6232V18.8727C67.4057 17.2071 68.6425 16.3743 70.321 16.3743L70.788 16.4255Z" fill="#181818"/>
<path d="M74.7634 12.3257V14.7601H72.3276V12.3257H74.7634ZM74.7634 16.6435V27.8416H72.3276V16.6435H74.7634Z" fill="#181818"/>
<path d="M76.4924 16.6436H79.1427L81.9697 25.2536L84.683 16.6436H87.2071L83.2569 27.8673H80.5183L76.4924 16.6436Z" fill="#181818"/>
<path d="M88.0401 20.1028C88.2925 17.5659 89.9079 16.3103 92.8737 16.3103C94.2493 16.3103 95.3599 16.5794 96.1802 17.1303C97.0006 17.6812 97.4044 18.5397 97.4044 19.6928V25.3687C97.4044 25.6891 97.4423 25.9069 97.518 26.0222C97.5937 26.1375 97.7452 26.2016 97.9723 26.2016C98.149 26.2016 98.3257 26.1887 98.5276 26.1631V27.9056C97.8966 28.0594 97.3792 28.1491 96.9501 28.1491C95.9152 28.1491 95.3094 27.7006 95.158 26.8037C94.2367 27.7006 92.9368 28.1491 91.2835 28.1491C90.1477 28.1491 89.239 27.8544 88.5701 27.2522C87.9012 26.65 87.5605 25.8428 87.5605 24.805C87.5605 24.4847 87.5983 24.19 87.6614 23.9209C87.7372 23.6519 87.8129 23.4084 87.9139 23.2034C88.0022 22.9984 88.1536 22.8191 88.3682 22.6397C88.5701 22.4603 88.7468 22.3194 88.8856 22.2041C89.0245 22.0887 89.239 21.9862 89.5545 21.8837C89.8574 21.7812 90.0846 21.7044 90.236 21.6531C90.3875 21.6019 90.6399 21.5506 91.0185 21.4866C91.3845 21.4353 91.6369 21.3841 91.7505 21.3712C91.8767 21.3456 92.1291 21.32 92.5077 21.2687C93.3785 21.1534 93.9717 21.0509 94.2872 20.9741C94.6027 20.8972 94.8172 20.7691 94.9308 20.6153C95.0318 20.5 95.0823 20.2309 95.0823 19.8081C95.0823 18.6806 94.325 18.1169 92.8106 18.1169C92.0155 18.1169 91.435 18.2706 91.0563 18.5781C90.6904 18.8856 90.4506 19.3981 90.3496 20.1156H88.0401V20.1028ZM95.0444 22.2297C94.8551 22.3322 94.6405 22.4219 94.4008 22.4987C94.161 22.5756 93.959 22.6269 93.8076 22.6525C93.6562 22.6781 93.429 22.7037 93.1009 22.755C92.7853 22.7934 92.5708 22.8319 92.4698 22.8447C92.1669 22.8831 91.9398 22.9344 91.7631 22.96C91.5864 22.9984 91.3845 23.0625 91.1321 23.1394C90.8797 23.2291 90.6904 23.3316 90.5515 23.4597C90.4127 23.5878 90.2991 23.7544 90.1982 23.9594C90.0972 24.1644 90.0467 24.4206 90.0467 24.7025C90.0467 25.2406 90.2234 25.6506 90.5641 25.9325C90.9175 26.2272 91.3971 26.3681 92.0281 26.3681C93.1135 26.3681 93.9464 26.0734 94.527 25.4841C94.8551 25.1509 95.0192 24.5103 95.0192 23.5494V22.2297H95.0444Z" fill="#181818"/>
<path d="M105.519 16.6434V18.4499H103.298V24.3437C103.298 24.6896 103.311 24.9331 103.323 25.074C103.336 25.2149 103.374 25.3687 103.45 25.5352C103.525 25.7018 103.652 25.8171 103.828 25.8684C104.005 25.9324 104.257 25.9581 104.56 25.9581C104.964 25.9581 105.28 25.9452 105.519 25.9196V27.8671C105.04 27.9184 104.484 27.9568 103.879 27.9568C103.45 27.9568 103.071 27.9184 102.755 27.8543C102.44 27.7902 102.162 27.7134 101.948 27.6237C101.733 27.534 101.557 27.3931 101.418 27.1752C101.279 26.9702 101.165 26.7909 101.09 26.6499C101.014 26.509 100.951 26.2656 100.913 25.9196C100.875 25.5737 100.862 25.3046 100.862 25.1252C100.862 24.9459 100.862 24.6256 100.862 24.1771C100.862 24.1259 100.862 24.0746 100.862 24.0362C100.862 23.9977 100.862 23.9593 100.862 23.9081C100.862 23.8568 100.862 23.8056 100.862 23.7671V18.4499H99.0198V16.6434H100.862V13.2737H103.298V16.6434H105.519Z" fill="#181818"/>
<path d="M118.329 25.6506V27.8416H108.119C108.132 27.1625 108.22 26.5347 108.397 25.9709C108.574 25.4072 108.763 24.9203 108.99 24.5231C109.205 24.1259 109.533 23.7159 109.974 23.3059C110.403 22.8959 110.795 22.55 111.148 22.2809C111.501 22.0119 111.981 21.6659 112.587 21.2559C112.625 21.2303 112.839 21.0894 113.218 20.8331C113.596 20.5769 113.824 20.4231 113.912 20.3591C114 20.295 114.19 20.1413 114.492 19.8978C114.795 19.6544 114.985 19.4622 115.086 19.3213C115.174 19.1803 115.3 18.9753 115.464 18.7319C115.628 18.4884 115.742 18.2322 115.792 17.9887C115.843 17.7325 115.881 17.4634 115.881 17.1816C115.881 16.3872 115.666 15.7594 115.224 15.3109C114.795 14.8497 114.202 14.6319 113.458 14.6319C113.029 14.6319 112.663 14.6959 112.347 14.8369C112.032 14.9778 111.792 15.1572 111.615 15.3622C111.438 15.58 111.287 15.8619 111.173 16.195C111.06 16.5409 110.984 16.8612 110.946 17.1559C110.908 17.4634 110.883 17.8094 110.87 18.2194H108.498V17.835C108.498 16.195 108.952 14.9009 109.861 13.94C110.769 12.9791 111.994 12.4922 113.521 12.4922C114.972 12.4922 116.146 12.9022 117.029 13.735C117.913 14.5678 118.354 15.6697 118.354 17.0406C118.354 17.5916 118.266 18.1169 118.102 18.6038C117.925 19.0906 117.749 19.4878 117.559 19.7953C117.37 20.1028 117.029 20.4488 116.562 20.8588C116.095 21.2688 115.742 21.5506 115.515 21.7044C115.288 21.8581 114.871 22.1528 114.253 22.5756C112.473 23.7416 111.4 24.7666 111.047 25.6378H118.329V25.6506Z" fill="#181818"/>
<path d="M129.94 22.1527V24.2411H128.034V27.8415H125.687L125.662 24.2411H119.313V21.794L125.725 12.5305H128.034V22.1655L129.94 22.1527ZM125.699 22.1527V15.5799L121.32 22.1527H125.699Z" fill="#181818"/>
<defs>
<linearGradient id="paint0_linear_3_186" x1="1.18632" y1="20.5001" x2="40.5873" y2="20.5001" gradientUnits="userSpaceOnUse">
<stop stop-color="#333333"/>
<stop offset="1"/>
</linearGradient>
</defs>
</svg>
