<svg width="24" height="24" fill="none" xmlns="http://www.w3.org/2000/svg"><rect width="24" height="24" rx="3" fill="#fff"/><path fill-rule="evenodd" clip-rule="evenodd" d="M8.55 3.75a.3.3 0 00-.3.3v1.2H6.748a.9.9 0 00-.637.264L4.014 7.61a.9.9 0 00-.264.637v9.004a.9.9 0 00.264.637l2.097 2.097a.9.9 0 00.637.264h10.504a.9.9 0 00.637-.264l2.097-2.097a.9.9 0 00.264-.637V8.248a.9.9 0 00-.264-.637L17.89 5.514a.9.9 0 00-.637-.264H15.75v-1.2a.3.3 0 00-.3-.3h-.9a.3.3 0 00-.3.3v1.2h-4.5v-1.2a.3.3 0 00-.3-.3h-.9zm5.7 3.375h-4.5v.825a.3.3 0 01-.3.3h-.9a.3.3 0 01-.3-.3v-.825H6.525a.9.9 0 00-.9.9V9.75h12.75V8.025a.9.9 0 00-.9-.9H15.75v.825a.3.3 0 01-.3.3h-.9a.3.3 0 01-.3-.3v-.825zm-8.625 10.35V11.25h12.75v6.225a.9.9 0 01-.9.9H6.525a.9.9 0 01-.9-.9z" fill="#87D10E"/></svg>