<svg width="38" height="28" fill="none" xmlns="http://www.w3.org/2000/svg"><path d="M16.87 18.85h-2.53l1.583-9.137h2.53L16.87 18.85zm9.173-8.914a6.623 6.623 0 00-2.27-.39c-2.498 0-4.257 1.245-4.268 3.024-.02 1.313 1.26 2.041 2.217 2.48.98.446 1.312.738 1.312 1.137-.01.612-.791.894-1.52.894-1.01 0-1.55-.145-2.373-.486l-.333-.146-.354 2.051c.593.253 1.686.477 2.821.487 2.655 0 4.383-1.225 4.404-3.121.01-1.04-.666-1.837-2.124-2.489-.885-.418-1.427-.7-1.427-1.128.01-.389.458-.787 1.457-.787a4.558 4.558 0 011.885.35l.229.097.344-1.973z" fill="#77A0F1"/><path fill-rule="evenodd" clip-rule="evenodd" d="M30.572 9.714h1.957l2.04 9.138h-2.342s-.229-1.05-.301-1.371h-3.249l-.53 1.37h-2.655l3.758-8.379c.26-.593.718-.758 1.322-.758zm-.156 3.343l-1.01 2.557h2.103a804.4 804.4 0 01-.584-2.644l-.176-.787a62.17 62.17 0 01-.333.874zM3.378 9.714h4.07c.552.02 1 .184 1.146.768l.883 4.194.002.005.27 1.264 2.478-6.231h2.675l-3.976 9.128H8.25l-2.255-7.94A10.739 10.739 0 003.336 9.9l.042-.185z" fill="#77A0F1"/></svg>