<svg width="38" height="28" fill="none" xmlns="http://www.w3.org/2000/svg"><path d="M9.156 14.952c.047-.185.183-.232.183-.37a58.82 58.82 0 011.006-3.34c.228-.788.778-1.159 1.51-1.159h2.195c.32 0 .365.185.365.464v7.557c0 .325-.045.372-.365.372h-1.877c-.319 0-.365-.186-.365-.372v-4.358h-.183c-.046.185-.184.325-.229.464-.457 1.391-.823 2.735-1.188 4.126a.706.706 0 01-.457.186h-1.19c-.32 0-.365-.046-.457-.372-.365-1.39-.823-2.735-1.28-4.126 0-.185-.045-.325-.045-.463h-.046c0 .184-.046.324-.046.463v3.988c0 .464-.182.556-.548.556h-1.83c-.32 0-.365-.046-.365-.372v-7.65c-.045-.37.045-.416.274-.416h2.423c.64 0 1.143.37 1.282 1.066.365 1.16.639 2.272 1.005 3.43.046.186.182.325.182.464-.045-.138.046-.138.046-.138zm9.491.24c.048-.187.188-.328.236-.468a127.107 127.107 0 001.644-3.563c.33-.656.847-1.03 1.552-1.03h1.786c.33 0 .376.046.376.374v7.734c0 .234-.046.329-.33.329h-1.927c-.33 0-.47-.047-.376-.375v-4.078c0-.188 0-.328-.188-.563-.047.188-.188.234-.235.375-.563 1.172-1.08 2.39-1.645 3.562-.33.797-.846 1.078-1.691 1.078h-1.787c-.235 0-.376-.046-.33-.328V10.41c0-.234.048-.328.33-.328h2.068c.33 0 .33.187.33.374v4.595c0 .048.095.141.187.141z" fill="#40A548"/><path d="M24.896 10.083h6.17c1.846 0 3.256 1.566 2.965 3.09 0 .043 0 .043-.05.173h-4.906c-1.748 0-3.45-1.131-4.032-2.654a1.391 1.391 0 01-.146-.609z" fill="#1291D0"/><path d="M34.07 14.137c-.24 1.006-1.353 1.736-2.463 1.827h-2.802c-.338 0-.482.046-.482.366v1.873c0 .228-.049.366-.339.366h-2.077c-.24 0-.337-.046-.337-.32V14.32c-.049-.183 0-.32.24-.32h7.97c.145.045.193.137.29.137z" fill="#40A548"/></svg>