<svg width="38" height="28" fill="none" xmlns="http://www.w3.org/2000/svg"><path d="M22.482 19.859h-6.781V7.808h6.781v12.05z" fill="#FF5F00"/><path d="M16.133 13.832a7.62 7.62 0 012.96-6.026 7.773 7.773 0 00-4.79-1.639c-4.28 0-7.75 3.432-7.75 7.665 0 4.232 3.47 7.664 7.75 7.664a7.773 7.773 0 004.79-1.639 7.62 7.62 0 01-2.96-6.025z" fill="#EB001B"/><path d="M31.625 13.832c0 4.233-3.47 7.664-7.75 7.664a7.775 7.775 0 01-4.79-1.639 7.62 7.62 0 002.96-6.025 7.62 7.62 0 00-2.96-6.026 7.775 7.775 0 014.79-1.638c4.28 0 7.75 3.431 7.75 7.664z" fill="#F79E1B"/></svg>