<svg width="16" height="16" fill="none" xmlns="http://www.w3.org/2000/svg"><rect width="16" height="16" rx="1.333" fill="#F1F4F8"/><path fill-rule="evenodd" clip-rule="evenodd" d="M5.602 6.09h4.8V3.746c0-.361-.323-.654-.72-.654h-3.36c-.398 0-.72.293-.72.654v2.346zm6.148 0h.19c.168 0 .33.054.46.152l1.34 1.016c.165.125.26.309.26.503v4.331c0 .174-.076.34-.21.463l-1.38 1.253a.758.758 0 01-.508.192H4.098a.758.758 0 01-.509-.192l-1.378-1.253A.626.626 0 012 12.092V7.761c0-.194.095-.378.26-.503L3.6 6.242a.765.765 0 01.46-.151h.19V3.609c0-.284.147-.55.396-.72l1.04-.71c.171-.116.38-.18.594-.18H9.7c.263 0 .515.095.7.264l1.06.963a.86.86 0 01.29.637V6.09zM4.22 7.455c-.398 0-.72.293-.72.655v3.872c0 .362.322.655.72.655h7.56c.398 0 .72-.293.72-.655V8.11c0-.362-.322-.655-.72-.655H4.22zM7.398 9.31c0-.12.108-.218.24-.218h.72c.133 0 .24.097.24.218v1.473c0 .12-.107.218-.24.218h-.72c-.132 0-.24-.098-.24-.218V9.309z" fill="#8F95A3"/></svg>