<svg width="24" height="16" fill="none" xmlns="http://www.w3.org/2000/svg"><mask id="path-1-inside-1_1235_4668" fill="#fff"><path fill-rule="evenodd" clip-rule="evenodd" d="M2 4.06c0-.279.11-.546.308-.743l2.01-2.01A1.05 1.05 0 015.06 1h7.88c.278 0 .545.11.742.308l2.01 2.01c.197.196.307.463.307.742v4.38c0 .279-.11.546-.307.743l-2.01 2.01a1.05 1.05 0 01-.742.307H9.963l.175 1.75h2.712c.29 0 .525.235.525.525v.7c0 .29-.235.525-.525.525h-7.7a.525.525 0 01-.525-.525v-.7c0-.29.235-.525.525-.525h2.712l.175-1.75H5.06a1.05 1.05 0 01-.743-.307l-2.01-2.01A1.05 1.05 0 012 8.44V4.06zm2.8-1.31c-.58 0-1.05.47-1.05 1.05v4.9c0 .58.47 1.05 1.05 1.05h8.4c.58 0 1.05-.47 1.05-1.05V3.8c0-.58-.47-1.05-1.05-1.05H4.8zm12.075.525c0-.29.235-.525.525-.525h3.325c.29 0 .525.235.525.525v11.2c0 .29-.235.525-.525.525H17.4a.525.525 0 01-.525-.525v-11.2zm1.313.525c0-.097.078-.175.175-.175h1.4c.096 0 .174.078.174.175v.525a.175.175 0 01-.175.175h-1.4a.175.175 0 01-.174-.175V3.8z"/></mask><path fill-rule="evenodd" clip-rule="evenodd" d="M2 4.06c0-.279.11-.546.308-.743l2.01-2.01A1.05 1.05 0 015.06 1h7.88c.278 0 .545.11.742.308l2.01 2.01c.197.196.307.463.307.742v4.38c0 .279-.11.546-.307.743l-2.01 2.01a1.05 1.05 0 01-.742.307H9.963l.175 1.75h2.712c.29 0 .525.235.525.525v.7c0 .29-.235.525-.525.525h-7.7a.525.525 0 01-.525-.525v-.7c0-.29.235-.525.525-.525h2.712l.175-1.75H5.06a1.05 1.05 0 01-.743-.307l-2.01-2.01A1.05 1.05 0 012 8.44V4.06zm2.8-1.31c-.58 0-1.05.47-1.05 1.05v4.9c0 .58.47 1.05 1.05 1.05h8.4c.58 0 1.05-.47 1.05-1.05V3.8c0-.58-.47-1.05-1.05-1.05H4.8zm12.075.525c0-.29.235-.525.525-.525h3.325c.29 0 .525.235.525.525v11.2c0 .29-.235.525-.525.525H17.4a.525.525 0 01-.525-.525v-11.2zm1.313.525c0-.097.078-.175.175-.175h1.4c.096 0 .174.078.174.175v.525a.175.175 0 01-.175.175h-1.4a.175.175 0 01-.174-.175V3.8z" fill="#8F95A3"/><path d="M2.308 3.317L.76 1.771l1.546 1.546zm2.01-2.01l1.546 1.547-1.547-1.546zm9.364 0L15.23-.238l-1.547 1.547zm2.01 2.01l1.547-1.546-1.547 1.546zm.307.743h-2.187H16zm0 4.38h-2.187H16zm-.307.743l-1.547-1.547 1.547 1.547zm-2.01 2.01l-1.546-1.547 1.546 1.546zm-3.72.307V9.312H7.546l.24 2.406 2.178-.218zm.175 1.75l-2.176.218.197 1.97h1.98V13.25zm-2.275 0v2.188h1.98l.197-1.97-2.176-.218zm.175-1.75l2.177.218.24-2.405H8.038V11.5zm-3.72-.307l1.547-1.547-1.547 1.546zm-2.01-2.01L.762 10.729l1.547-1.546zM.762 1.77a3.238 3.238 0 00-.95 2.29h4.375c0 .302-.12.59-.333.804L.761 1.771zM2.77-.24L.76 1.77l3.093 3.093 2.01-2.01L2.77-.239zm2.289-.949c-.859 0-1.682.342-2.29.949l3.094 3.093a1.138 1.138 0 01-.804.333v-4.374zm7.88 0H5.06v4.375h7.88v-4.374zm2.29.949a3.238 3.238 0 00-2.29-.949v4.375a1.14 1.14 0 01-.805-.333L15.23-.239zm2.009 2.01l-2.01-2.01-3.094 3.093 2.01 2.01 3.094-3.093zm.948 2.289a3.24 3.24 0 00-.948-2.29l-3.094 3.094a1.138 1.138 0 01-.333-.804h4.375zm0 4.38V4.06h-4.375v4.38h4.375zm-.948 2.29a3.24 3.24 0 00.948-2.29h-4.375c0-.302.12-.59.333-.804l3.094 3.093zm-2.01 2.01l2.01-2.01-3.094-3.094-2.01 2.01 3.094 3.093zm-2.29.947c.86 0 1.683-.34 2.29-.948l-3.093-3.093c.213-.214.502-.334.804-.334v4.376zm-2.976 0h2.977V9.314H9.963v4.374zm2.351-.655l-.175-1.75-4.353.436.175 1.75 4.353-.436zm.536-1.97h-2.713v4.376h2.713v-4.376zm2.713 2.713a2.712 2.712 0 00-2.713-2.713v4.376a1.662 1.662 0 01-1.662-1.663h4.374zm0 .7v-.7h-4.376v.7h4.376zm-2.713 2.713a2.712 2.712 0 002.713-2.713h-4.376c0-.918.745-1.662 1.663-1.662v4.374zm-3.117 0h3.117v-4.375H9.733v4.374zm0 0v-4.375 4.374zm-1.465 0h1.464v-4.375H8.268v4.374zm0 0v-4.375 4.374zm-3.118 0h3.117v-4.375H5.15v4.374zm-2.713-2.713a2.712 2.712 0 002.713 2.713v-4.375c.918 0 1.662.744 1.662 1.662H2.438zm0-.7v.7h4.376v-.7H2.438zm2.713-2.713a2.712 2.712 0 00-2.713 2.713h4.376c0 .918-.745 1.662-1.663 1.662v-4.374zm2.712 0H5.15v4.376h2.712v-4.376zm-2.001.22l-.175 1.75 4.353.436.175-1.75-4.353-.436zm-.801 2.405h2.978V9.314H5.06v4.374zm-2.29-.948a3.24 3.24 0 002.29.948V9.314c.302 0 .59.12.804.333L2.77 12.74zM.76 10.73l2.01 2.01 3.094-3.093-2.01-2.01L.761 10.73zm-.947-2.29c0 .859.342 1.682.949 2.29l3.093-3.094c.214.213.333.502.333.804H-.188zm0-4.38v4.38h4.375V4.06H-.188zm6.125-.26c0 .628-.509 1.138-1.137 1.138V.563A3.238 3.238 0 001.563 3.8h4.375zm0 4.9V3.8H1.563v4.9h4.375zM4.8 7.563c.628 0 1.138.509 1.138 1.137H1.563A3.238 3.238 0 004.8 11.938V7.561zm8.4 0H4.8v4.375h8.4V7.561zM12.063 8.7c0-.628.509-1.137 1.137-1.137v4.375A3.238 3.238 0 0016.438 8.7h-4.375zm0-4.9v4.9h4.374V3.8h-4.375zM13.2 4.938c-.628 0-1.137-.51-1.137-1.138h4.374A3.238 3.238 0 0013.2.563v4.375zm-8.4 0h8.4V.563H4.8v4.375zM17.4.563a2.712 2.712 0 00-2.712 2.712h4.374c0 .918-.744 1.663-1.662 1.663V.563zm3.325 0H17.4v4.375h3.325V.563zm2.712 2.712A2.712 2.712 0 0020.726.563v4.375a1.662 1.662 0 01-1.663-1.663h4.375zm0 11.2v-11.2h-4.375v11.2h4.375zm-2.712 2.713a2.712 2.712 0 002.712-2.713h-4.375c0-.918.745-1.662 1.663-1.662v4.374zm-3.325 0h3.325v-4.375H17.4v4.374zm-2.712-2.713a2.712 2.712 0 002.712 2.713v-4.375c.918 0 1.663.744 1.663 1.662h-4.375zm0-11.2v11.2h4.374v-11.2h-4.375zm3.675-1.837A2.362 2.362 0 0016 3.8h4.375a2.012 2.012 0 01-2.012 2.013V1.438zm1.4 0h-1.4v4.375h1.4V1.438zM22.124 3.8a2.362 2.362 0 00-2.363-2.362v4.375A2.012 2.012 0 0117.75 3.8h4.375zm0 .525V3.8H17.75v.525h4.375zm-2.363 2.362a2.362 2.362 0 002.363-2.362H17.75c0-1.111.901-2.013 2.012-2.013v4.376zm-1.4 0h1.4V2.313h-1.4v4.376zM16 4.325a2.362 2.362 0 002.363 2.362V2.313c1.111 0 2.012.902 2.012 2.013H16zm0-.525v.525h4.375V3.8H16z" fill="#8F95A3" mask="url(#path-1-inside-1_1235_4668)"/></svg>