<svg width="25" height="24" fill="none" xmlns="http://www.w3.org/2000/svg"><rect x="1.5" y="1" width="22" height="22" rx="11" fill="#204982"/><path d="M10.116 9.104c-.18-.635-.668-.565-1.002-.27-.823.792-1.893 2.453-1.208 4.844C8.48 15.704 10.868 17 10.868 17H8.084s-1.437-1.678-1.566-3.652c-.163-2.496.797-4.07 1.91-5.096C9.474 7.287 10.468 7 10.468 7l2.032 6.938L14.533 7s.993.287 2.039 1.252c1.113 1.026 2.073 2.6 1.91 5.096C18.353 15.322 16.916 17 16.916 17h-2.784s2.388-1.296 2.962-3.322c.685-2.391-.385-4.052-1.208-4.844-.334-.295-.822-.365-1.002.27L12.5 16.935l-2.384-7.831z" fill="#fff"/><rect x="1.5" y="1" width="22" height="22" rx="11" stroke="#fff" stroke-width="2"/></svg>