<svg width="16" height="16" fill="none" xmlns="http://www.w3.org/2000/svg"><rect width="16" height="16" rx="1.333" fill="#F1F4F8"/><path fill-rule="evenodd" clip-rule="evenodd" d="M7.452 2a.655.655 0 00-.463.191l-.707.708a.655.655 0 00-.192.463v4.912l-.898.898A.655.655 0 005 9.635v2.73c0 .174.069.34.192.463l.98.98c.123.123.29.192.463.192h2.73c.174 0 .34-.069.463-.192l.98-.98a.655.655 0 00.192-.463v-2.73a.654.654 0 00-.192-.463l-.9-.9v-4.91a.655.655 0 00-.192-.463l-.707-.708A.655.655 0 008.546 2H7.452zm-.054.818a.218.218 0 00-.218.218v5.239L6.154 9.3a.218.218 0 00-.064.154v3.237c0 .12.098.218.218.218H9.69c.12 0 .218-.098.218-.218V9.455a.218.218 0 00-.064-.154L8.816 8.272V3.036a.218.218 0 00-.218-.218h-1.2zm.004 7.363a.218.218 0 00-.218.219v1.2c0 .12.097.218.218.218h1.2c.12 0 .218-.098.218-.218v-1.2a.218.218 0 00-.218-.219h-1.2z" fill="#8F95A3"/></svg>