<svg width="16" height="16" fill="none" xmlns="http://www.w3.org/2000/svg"><rect width="16" height="16" rx="1.333" fill="#F1F4F8"/><path fill-rule="evenodd" clip-rule="evenodd" d="M4.321 2a.62.62 0 00-.438.181L2.181 3.883A.62.62 0 002 4.321v5.164a.62.62 0 00.181.438l1.702 1.702a.62.62 0 00.438.181h.82l1.451 1.866c.161.207.41.329.672.329h.83a.852.852 0 00.673-.33l1.45-1.864h.817a.62.62 0 00.438-.182l1.702-1.702a.62.62 0 00.18-.438V4.321a.62.62 0 00-.18-.438l-1.702-1.702A.62.62 0 0011.034 2H4.32zM3.29 3.91a.62.62 0 01.62-.619h7.535a.62.62 0 01.62.62v5.987a.62.62 0 01-.62.619H9.84a.206.206 0 00-.161.077l-2.003 2.504-2.002-2.504a.206.206 0 00-.162-.077H3.908a.62.62 0 01-.619-.62V3.91zm3.87 2.942c0-.114.093-.206.207-.206h.619c.114 0 .206.092.206.206v2.684a.206.206 0 01-.206.206h-.62a.206.206 0 01-.206-.206V6.852zm.207-2.272a.206.206 0 00-.207.207v.619c0 .114.093.206.207.206h.619a.206.206 0 00.206-.206v-.62a.206.206 0 00-.206-.206h-.62z" fill="#8F95A3"/></svg>