<svg width="16" height="16" fill="none" xmlns="http://www.w3.org/2000/svg"><rect width="16" height="16" rx="1.333" fill="#F1F4F8"/><path fill-rule="evenodd" clip-rule="evenodd" d="M4.726 2a.655.655 0 00-.463.192l-2.071 2.07A.655.655 0 002 4.727v6.548c0 .174.069.34.192.463l2.07 2.071c.124.123.29.192.464.192h6.548c.174 0 .34-.07.463-.192l2.071-2.071a.654.654 0 00.192-.463V4.726a.654.654 0 00-.192-.463l-2.071-2.071A.654.654 0 0011.274 2H4.726zM3.363 4.018c0-.362.293-.655.655-.655h7.963c.362 0 .655.293.655.655v7.963a.655.655 0 01-.655.655H4.018a.655.655 0 01-.655-.655V4.018zm4.09.655c0-.12.098-.218.218-.218h.655c.12 0 .218.098.218.218v3.148l1.647 1.648a.218.218 0 010 .308l-.462.463a.218.218 0 01-.309 0L7.453 8.273v-3.6z" fill="#8F95A3"/></svg>