<svg width="30" height="30" fill="none" xmlns="http://www.w3.org/2000/svg"><path fill-rule="evenodd" clip-rule="evenodd" d="M17.764 3.219l4.017 4.017c.46.46.719 1.084.719 1.735v2.058c0 .65-.259 1.275-.719 1.735l-4.017 4.017c-.46.46-1.084.719-1.735.719H13.97a2.454 2.454 0 01-1.735-.719l-4.017-4.017A2.454 2.454 0 017.5 11.03V8.97c0-.65.259-1.275.719-1.735l4.017-4.017A2.454 2.454 0 0113.97 2.5h2.058c.65 0 1.275.259 1.735.719zm2.27 7.822a1.473 1.473 0 000-2.082L16.04 4.967a1.473 1.473 0 00-2.082 0L9.967 8.959a1.473 1.473 0 000 2.082l3.992 3.992a1.473 1.473 0 002.082 0l3.992-3.992z" fill="#2B2E34"/><path d="M5 26.449h2.5v-2.074c0-1.035.84-1.875 1.875-1.875h11.25c1.035 0 1.875.84 1.875 1.875v2.074H25v-1.387c0-.497-.198-.974-.55-1.326l-3.186-3.187A1.875 1.875 0 0019.938 20h-9.876c-.497 0-.974.198-1.325.55l-3.188 3.186A1.88 1.88 0 005 25.062v1.387z" fill="#2B2E34"/></svg>