<svg width="1888" height="303" fill="none" xmlns="http://www.w3.org/2000/svg"><path fill-rule="evenodd" clip-rule="evenodd" d="M0 297.637h53.278V196.781h59.88c54.934 0 93.342-39.509 93.342-96.328 0-56.806-38.408-95.09-93.342-95.09H0v292.274zm53.278-146.965V51.045h50.784c30.166 0 48.338 19.343 48.338 49.408 0 30.471-18.172 50.219-49.171 50.219h-49.95zm201.494 146.965h52.731V188.552h50.696l57.21 109.085h59.273L415 188.968c-5.728-10.71-9.398-15.23-9.398-15.23v-.816c30.649-12.359 48.65-45.303 48.65-79.883 0-39.513-19.221-67.523-49.049-79.862-12.264-5.355-26.171-7.814-54.77-7.814h-95.661v292.274zm52.731-155.204V51.045h38.423c15.95 0 24.508 1.649 31.871 4.96 15.95 6.585 22.9 21.383 22.9 39.93 0 28.823-17.584 46.498-45.79 46.498h-47.404zm189.975 7.021C497.478 235.728 560.222 303 648.99 303c88.77 0 151.533-67.272 151.533-153.546C800.523 65.639 737.76 0 648.99 0c-88.768 0-151.512 65.639-151.512 149.454zm54.923 0c0-56.962 40.458-100.726 96.589-100.726 56.162 0 96.62 43.764 96.62 100.726 0 59.438-40.458 104.85-96.62 104.85-56.131 0-96.589-45.412-96.589-104.85zm277.621 113.501C856.533 289.376 894.23 303 930.704 303c62.977 0 97.776-39.207 97.776-86.684 0-93.294-137.143-79.265-137.143-133.732 0-20.247 17.809-33.457 44.756-33.457 23.199 0 48.476 11.147 64.607 25.6l23.65-43.337C1001.14 10.323 968.818 0 938.151 0c-57.18 0-100.264 33.44-100.264 85.037 0 91.234 137.137 79.677 137.137 135.397 0 19.826-16.572 33.451-43.079 33.451-27.353 0-55.543-15.29-72.934-30.969l-28.989 40.039zm318.308 34.682h52.6V51.045h95.73V5.363h-244.05v45.682h95.72v246.592zm161.74-148.183c0 86.274 62.74 153.546 151.52 153.546 88.76 0 151.52-67.272 151.52-153.546C1613.11 65.639 1550.35 0 1461.59 0c-88.78 0-151.52 65.639-151.52 149.454zm54.92 0c0-56.962 40.46-100.726 96.6-100.726 56.15 0 96.62 43.764 96.62 100.726 0 59.438-40.47 104.85-96.62 104.85-56.14 0-96.6-45.412-96.6-104.85zm300.42 148.183h53.37V188.552h51.31l57.92 109.085H1888l-60.4-108.669c-5.81-10.71-9.53-15.23-9.53-15.23v-.816c31.03-12.359 49.23-45.303 49.23-79.883 0-39.513-19.45-67.523-49.64-79.862-12.41-5.355-26.48-7.814-55.43-7.814h-96.82v292.274zm53.37-155.204V51.045h38.89c16.14 0 24.82 1.649 32.27 4.96 16.14 6.585 23.17 21.383 23.17 39.93 0 28.823-17.79 46.498-46.33 46.498h-48z" fill="#2B2E34"/></svg>