<svg width="16" height="14" fill="none" xmlns="http://www.w3.org/2000/svg"><path d="M1.1 6.078c4.295-1.87 7.159-3.104 8.592-3.7C13.783.675 14.633.38 15.188.37c.121-.002.394.028.57.172.15.12.19.284.21.399.02.114.044.375.025.58-.222 2.33-1.181 7.983-1.67 10.592-.206 1.104-.613 1.474-1.006 1.51-.856.079-1.505-.565-2.334-1.108-1.297-.85-2.03-1.38-3.288-2.209-1.455-.958-.512-1.485.317-2.346.217-.226 3.987-3.654 4.06-3.965.01-.04.018-.184-.069-.261-.086-.077-.213-.05-.305-.03-.13.03-2.201 1.4-6.214 4.108-.588.404-1.12.6-1.598.59-.526-.011-1.538-.297-2.29-.542-.923-.3-1.656-.458-1.592-.968.033-.265.398-.536 1.096-.814z" fill="#fff"/></svg>