<svg width="46" height="10" fill="none" xmlns="http://www.w3.org/2000/svg"><g clip-path="url(#clip0_1232_1997)" fill-rule="evenodd" clip-rule="evenodd"><path d="M9.288 4.778c0-2.628-2.03-4.76-4.534-4.76C2.249.019.219 2.15.219 4.779c0 2.628 2.03 4.76 4.535 4.76 2.504 0 4.534-2.132 4.534-4.76z" fill="#FC3F1D"/><path d="M5.36 2.716h-.416c-.774 0-1.171.416-1.171 1.01 0 .675.283.992.85 1.409l.473.337-1.36 2.141H2.714L3.943 5.71c-.7-.535-1.096-1.051-1.096-1.904 0-1.09.718-1.824 2.097-1.824h1.36v5.651H5.36V2.716z" fill="#fff"/><path d="M14.551.028c-2.01 0-3.64 1.71-3.64 3.82 0 1.056.407 2.01 1.065 2.702.659.692 2.21 1.693 2.302 2.744.014.158.122.287.273.287.15 0 .26-.13.273-.287.091-1.051 1.643-2.052 2.302-2.744a3.907 3.907 0 001.066-2.701c0-2.11-1.63-3.821-3.64-3.821z" fill="#F43"/><path d="M14.548 5.187c.703 0 1.274-.6 1.274-1.338 0-.738-.57-1.337-1.274-1.337-.704 0-1.275.599-1.275 1.337 0 .739.57 1.338 1.275 1.338z" fill="#fff"/><path d="M42.225 7.284h-.542v-1.66h.57c.501 0 .795.237.795.835s-.325.825-.823.825zm2.46-4.214v5.183h1.171V3.07h-1.17zm-4.17 0v5.183h1.778c1.148 0 1.963-.618 1.963-1.836 0-1.154-.728-1.76-1.945-1.76h-.628V3.07h-1.167zm-.687.969V3.07h-3.916v.969h1.375v4.214h1.167V4.039h1.374zM33.5 7.385c-.619 0-.934-.523-.934-1.719 0-1.205.334-1.728.993-1.728.638 0 .95.523.95 1.719 0 1.205-.334 1.728-1.009 1.728zM32.48 3.07H31.4v6.674h1.166V7.645c.298.461.728.708 1.23.708 1.136 0 1.922-.955 1.922-2.696 0-1.732-.764-2.687-1.864-2.687-.55 0-1.003.266-1.315.77l-.06-.67zm-3.19 3.945c-.149.227-.424.412-.836.412-.49 0-.737-.289-.737-.73 0-.589.403-.803 1.406-.803h.167v1.12zm1.167-2.297c0-1.254-.61-1.729-1.845-1.729a3.36 3.36 0 00-1.737.475v1.02c.313-.25 1-.517 1.6-.517.558 0 .815.205.815.764v.286h-.189c-1.786 0-2.579.62-2.579 1.67 0 1.05.607 1.637 1.511 1.637.687 0 .981-.237 1.207-.484h.05c.01.133.05.309.087.413h1.139a13.33 13.33 0 01-.059-1.267V4.718zM25.09 8.253h1.384l-2.424-3.76 2.198-3.398H25.04L22.928 4.39V1.095h-1.186v7.158h1.186v-3.36l2.16 3.36z" fill="#000"/></g><defs><clipPath id="clip0_1232_1997"><path fill="#fff" d="M0 0h46v10H0z"/></clipPath></defs></svg>