<svg width="21" height="21" fill="none" xmlns="http://www.w3.org/2000/svg"><path d="M16.079 9.35c0 .52-1.865.956-4.365 1.066h.001c-.416.023-.833.032-1.25.028-.649 0-1.108-.019-1.27-.027-2.505-.11-4.375-.546-4.375-1.068 0-.521 1.87-.958 4.375-1.07v1.704c.164.012.633.04 1.281.04.778 0 1.167-.034 1.238-.04V8.281c2.5.11 4.365.547 4.365 1.068zm4.325.454l-9.85 9.438a.15.15 0 01-.208 0L.497 9.804a.148.148 0 01-.032-.173L4.112 1.97a.148.148 0 01.136-.085h12.407a.147.147 0 01.133.086l3.647 7.66a.148.148 0 01-.031.173zm-3.732-.336c0-.672-2.127-1.234-4.956-1.365V6.58h3.489V4.255H5.707V6.58h3.488v1.524c-2.835.13-4.967.692-4.967 1.364 0 .674 2.132 1.234 4.967 1.365v4.885h2.52v-4.886c2.829-.131 4.957-.692 4.957-1.364z" fill="#1BA27A"/></svg>