<svg width="21" height="21" fill="none" xmlns="http://www.w3.org/2000/svg"><path d="M10.45 20.584c5.523 0 10-4.477 10-10s-4.477-10-10-10c-5.522 0-10 4.477-10 10s4.478 10 10 10z" fill="#F3BA2F"/><path d="M8.023 9.587l2.427-2.428 2.43 2.429 1.412-1.413-3.842-3.84-3.84 3.84 1.413 1.412zm-3.823.997l1.413-1.412 1.412 1.412-1.412 1.413L4.2 10.584zm3.823.998l2.427 2.427 2.43-2.428 1.412 1.411-3.842 3.842-3.84-3.84-.001-.002 1.414-1.41zm5.852-.998l1.413-1.412 1.412 1.412-1.412 1.413-1.413-1.413zm-1.992-.001h.001v.001l-1.434 1.434-1.431-1.431-.003-.003.003-.002.25-.25.122-.123 1.06-1.059 1.433 1.434-.001-.001z" fill="#fff"/></svg>