<svg width="21" height="19" fill="none" xmlns="http://www.w3.org/2000/svg"><g clip-path="url(#clip0_0_203)"><path d="M9.86 18.221a.554.554 0 111.107.05.554.554 0 01-1.108-.05zm-4.538-.6a.436.436 0 11.728.479.436.436 0 01-.728-.478zm9.732-.17a.433.433 0 01.585.193.435.435 0 11-.585-.193zm-8.68-2.135a.672.672 0 11.7 1.024.673.673 0 01-.7-1.024zm7.314-.248a.67.67 0 01.904.295.672.672 0 11-.923-.285l.019-.01zm-3.998-.41a.792.792 0 111.424.692.792.792 0 01-1.424-.692zm-7.003-1.226a.554.554 0 11-.016.009l.016-.009zm14.832.158a.554.554 0 11.933.598.554.554 0 01-.933-.598zm-9.29-2.458a1.346 1.346 0 111.28 2.37 1.346 1.346 0 01-1.28-2.37zm3.402-.1a1.346 1.346 0 11.825 2.56 1.346 1.346 0 01-.825-2.56zm-6.484.747a.793.793 0 111.201 1.034.793.793 0 01-1.2-1.034zm9.355.06a.791.791 0 111.324.87.791.791 0 01-1.324-.87zm-8.574-2.34a1.346 1.346 0 111.37 1.423H7.2a1.35 1.35 0 01-1.27-1.4l.002-.024h-.004zm6.352-.015a1.347 1.347 0 111.373 1.421h-.106a1.347 1.347 0 01-1.267-1.421zm-9.556.06a.673.673 0 111.343.077.673.673 0 01-1.343-.076zm14.111-.03a.672.672 0 111.119.54.674.674 0 01-1.119-.54zM.894 9.155H.91a.434.434 0 11-.017 0zm19.128-.045h.018a.436.436 0 11-.018 0zM8.856 5.477a1.342 1.342 0 011.15 2.05A1.347 1.347 0 118.2 5.648c.2-.112.426-.17.655-.171zm3.176-.01a1.346 1.346 0 11-.003 2.692 1.346 1.346 0 01.003-2.692zm-6.959.957a.792.792 0 111.324.869.792.792 0 01-1.324-.869zm9.724-.293a.79.79 0 11.714 1.412.79.79 0 01-.713-1.412zM2.455 4.937a.554.554 0 11.926.607.554.554 0 01-.926-.607zm15.258-.225a.554.554 0 01.5.99.555.555 0 01-.5-.99zm-8.066-.627a.792.792 0 111.58.09.792.792 0 01-1.58-.09zM6.606 2.864a.672.672 0 11.605 1.2.672.672 0 01-.605-1.2zm6.793.216a.673.673 0 111.127.736.673.673 0 01-1.127-.736zM5.45.906a.436.436 0 11.39.779.436.436 0 01-.39-.78zm9.4.128a.436.436 0 11.73.478.436.436 0 01-.73-.478zM10.248.357a.554.554 0 11.38 1.042.554.554 0 01-.38-1.042z" fill="#0033AD"/></g><defs><clipPath id="clip0_0_203"><path fill="#fff" transform="translate(.45 .326)" d="M0 0h20v18.516H0z"/></clipPath></defs></svg>