<svg width="21" height="21" fill="none" xmlns="http://www.w3.org/2000/svg"><g clip-path="url(#clip0_0_89)"><path d="M20.151 13.002c-1.336 5.36-6.766 8.619-12.119 7.283C2.672 18.948-.586 13.518.75 8.165A9.994 9.994 0 0112.869.885c5.352 1.328 8.619 6.758 7.282 12.119z" fill="url(#paint0_linear_0_89)"/><path d="M15.212 9.338c.195-1.328-.813-2.047-2.203-2.523l.453-1.805-1.094-.273-.438 1.757c-.288-.07-.585-.14-.882-.203l.437-1.765-1.093-.274-.446 1.797a71.35 71.35 0 01-.703-.164v-.008l-1.516-.375-.289 1.172s.813.188.797.195c.446.11.524.407.508.641l-.516 2.055c.032.008.07.015.118.039a.65.65 0 01-.118-.031l-.718 2.874c-.055.133-.196.336-.5.258.007.016-.797-.195-.797-.195l-.547 1.258 1.43.36c.265.07.523.132.78.202l-.452 1.82 1.093.274.454-1.805c.296.079.593.157.875.227l-.446 1.797 1.094.273.453-1.82c1.875.351 3.281.21 3.867-1.484.477-1.36-.023-2.149-1.008-2.665.727-.164 1.266-.64 1.407-1.609zm-2.508 3.516c-.336 1.36-2.633.625-3.375.437l.602-2.414c.742.188 3.132.555 2.773 1.977zm.344-3.54c-.313 1.243-2.219.61-2.836.454l.547-2.188c.617.157 2.609.446 2.289 1.735z" fill="#fff"/></g><defs><linearGradient id="paint0_linear_0_89" x1="999.91" y1=".104" x2="999.91" y2="2000.38" gradientUnits="userSpaceOnUse"><stop stop-color="#F9AA4B"/><stop offset="1" stop-color="#F7931A"/></linearGradient><clipPath id="clip0_0_89"><path fill="#fff" transform="translate(.45 .584)" d="M0 0h20v20H0z"/></clipPath></defs></svg>