<svg width="21" height="21" fill="none" xmlns="http://www.w3.org/2000/svg"><g clip-path="url(#clip0_0_164)"><path fill="#555ABE" d="M.45.584h20v20h-20z"/><path fill-rule="evenodd" clip-rule="evenodd" d="M6.528 4.162a.833.833 0 01.59-.244H17.95a.833.833 0 01.59 1.422l-2.5 2.5a.833.833 0 01-.59.244H4.617a.833.833 0 01-.59-1.422l2.5-2.5zM3.882 9.358a.833.833 0 01.735-.44H15.45a.834.834 0 01.694.37l1.666 2.5a.833.833 0 01-.693 1.296H6.284a.833.833 0 01-.694-.37l-1.666-2.5a.833.833 0 01-.042-.856zm1.813 4.804a.834.834 0 01.589-.244h10.833a.833.833 0 01.59 1.422l-2.5 2.5a.834.834 0 01-.59.244H3.784a.834.834 0 01-.59-1.422l2.5-2.5z" fill="#fff"/></g><defs><clipPath id="clip0_0_164"><path fill="#fff" transform="translate(.45 .584)" d="M0 0h20v20H0z"/></clipPath></defs></svg>