<svg width="91" height="32" fill="none" xmlns="http://www.w3.org/2000/svg"><path d="M.77 32v-8.708c2.252 0 4.184-14.28 6.436-14.28 2.253 0 4.185 8.707 6.437 8.707C15.896 17.72 17.828 1 20.081 1s4.184 9.056 6.437 9.056 4.184 13.236 6.437 13.236 4.184-6.618 6.437-6.618 4.184 8.36 6.437 8.36 4.184-5.573 6.437-5.573 4.184-1.394 6.437-1.394 4.184-4.876 6.437-4.876S69.324 1 71.577 1s4.184 9.056 6.437 9.056 4.184 13.236 6.437 13.236 4.184-19.157 6.437-19.157V32" fill="url(#paint0_linear_0_96)"/><path d="M.77 23.292c2.252 0 4.184-14.28 6.436-14.28 2.253 0 4.185 8.707 6.437 8.707C15.896 17.72 17.828 1 20.081 1s4.184 9.056 6.437 9.056 4.184 13.236 6.437 13.236 4.184-6.618 6.437-6.618 4.184 8.36 6.437 8.36 4.184-5.573 6.437-5.573 4.184-1.394 6.437-1.394 4.184-4.876 6.437-4.876S69.324 1 71.577 1s4.184 9.056 6.437 9.056 4.184 13.236 6.437 13.236 4.184-19.157 6.437-19.157" stroke="#58BD7D" stroke-width=".3"/><defs><linearGradient id="paint0_linear_0_96" x1=".769" y1="1" x2=".769" y2="32" gradientUnits="userSpaceOnUse"><stop stop-color="#58BD7D" stop-opacity=".422"/><stop offset="1" stop-color="#ACDEBE" stop-opacity=".25"/></linearGradient></defs></svg>