<svg width="91" height="33" fill="none" xmlns="http://www.w3.org/2000/svg"><path d="M.572 32.5V5c2.103 0 3.905-.5 6.008-.5 2.102 0 3.905 2.5 6.008 2.5 2.102 0 3.905 1 6.008 1 2.102 0 3.905-7 6.007-7 2.103 0 3.906 14 6.008 14 2.103 0 3.905-4.5 6.008-4.5s3.905 2 6.008 2 3.905 2 6.008 2 3.905-2 6.008-2 3.905-7 6.008-7S64.556 8 66.659 8c2.102 0 3.905-7 6.008-7 2.102 0 3.905 14 6.007 14 2.103 0 3.906-4.5 6.008-4.5 2.103 0 3.906 20.5 6.008 20.5v1.5" fill="url(#paint0_linear_0_114)"/><path d="M.572 5c2.103 0 3.905-.5 6.008-.5 2.102 0 3.905 2.5 6.008 2.5 2.102 0 3.905 1 6.008 1 2.102 0 3.905-7 6.007-7 2.103 0 3.906 14 6.008 14 2.103 0 3.905-4.5 6.008-4.5s3.905 2 6.008 2 3.905 2 6.008 2 3.905-2 6.008-2 3.905-7 6.008-7S64.556 8 66.659 8c2.102 0 3.905-7 6.008-7 2.102 0 3.905 14 6.007 14 2.103 0 3.906-4.5 6.008-4.5 2.103 0 3.906 20.5 6.008 20.5" stroke="#D33535" stroke-width=".3"/><defs><linearGradient id="paint0_linear_0_114" x1=".572" y1="1" x2=".572" y2="32.5" gradientUnits="userSpaceOnUse"><stop stop-color="#D33535" stop-opacity=".422"/><stop offset="1" stop-color="#E99A9A" stop-opacity=".25"/></linearGradient></defs></svg>