<svg width="94" height="29" fill="none" xmlns="http://www.w3.org/2000/svg"><path d="M6.605 22L.64.182h2.685l4.56 17.77h.213L12.742.182h2.982l4.645 17.77h.213l4.56-17.77h2.685L21.86 22h-2.727L14.318 4.614h-.17L9.332 22H6.605zm25.965.384c-1.037 0-1.978-.196-2.824-.586a4.845 4.845 0 01-2.013-1.716c-.497-.753-.746-1.662-.746-2.727 0-.937.185-1.697.554-2.28a3.91 3.91 0 011.481-1.385 7.784 7.784 0 012.046-.745 24.87 24.87 0 012.269-.405c.994-.128 1.8-.224 2.418-.288.625-.07 1.08-.188 1.364-.351.29-.164.436-.448.436-.853v-.085c0-1.051-.287-1.868-.862-2.45-.569-.583-1.432-.874-2.59-.874-1.2 0-2.14.263-2.823.789-.681.525-1.16 1.086-1.438 1.683l-2.386-.852c.426-.995.994-1.769 1.704-2.323a6.388 6.388 0 012.344-1.172 9.73 9.73 0 012.515-.34c.525 0 1.129.063 1.81.191.69.12 1.353.373 1.993.756.646.384 1.182.963 1.608 1.737.426.774.64 1.811.64 3.11V22h-2.515v-2.216h-.127c-.17.355-.455.735-.853 1.14-.397.405-.927.75-1.587 1.033-.66.284-1.467.427-2.418.427zm.383-2.259c.994 0 1.832-.195 2.514-.586.69-.39 1.208-.895 1.556-1.513a3.855 3.855 0 00.532-1.95v-2.3c-.106.127-.34.245-.703.351-.355.1-.767.188-1.235.266a57.79 57.79 0 01-1.353.192c-.434.05-.785.093-1.055.128a9.6 9.6 0 00-1.833.416c-.56.184-1.015.465-1.363.841-.341.37-.512.874-.512 1.513 0 .873.324 1.534.97 1.982.653.44 1.48.66 2.482.66zM45.673.182V22h-2.514V.182h2.514zm5.619 0V22h-2.514V.182h2.514zm9.966 22.159c-1.577 0-2.937-.348-4.08-1.044-1.137-.703-2.014-1.683-2.632-2.94-.61-1.265-.916-2.735-.916-4.411 0-1.676.305-3.153.916-4.432.618-1.285 1.477-2.287 2.578-3.004 1.108-.724 2.4-1.087 3.878-1.087.852 0 1.694.142 2.525.426a6.255 6.255 0 012.269 1.385c.682.632 1.225 1.47 1.63 2.515.405 1.044.607 2.33.607 3.856v1.066H55.42v-2.174h10.056c0-.923-.184-1.747-.554-2.471a4.174 4.174 0 00-1.555-1.716c-.668-.419-1.456-.628-2.365-.628-1.002 0-1.868.248-2.6.746a4.906 4.906 0 00-1.672 1.917 5.634 5.634 0 00-.586 2.536v1.448c0 1.236.213 2.284.64 3.143.432.853 1.033 1.502 1.8 1.95.767.44 1.658.66 2.674.66a5.44 5.44 0 001.79-.277 3.831 3.831 0 001.395-.852c.39-.383.692-.86.906-1.427l2.428.681a5.386 5.386 0 01-1.288 2.174c-.604.618-1.35 1.1-2.238 1.448-.888.341-1.885.512-2.993.512zM77.474 5.636v2.131h-8.48v-2.13h8.48zm-6.008-3.92h2.514v15.596c0 .71.103 1.243.309 1.598.213.349.483.583.81.704.333.113.685.17 1.054.17.277 0 .504-.014.682-.043l.426-.085.512 2.259a5.12 5.12 0 01-.714.192c-.306.07-.693.106-1.161.106a5.06 5.06 0 01-2.088-.458 4.148 4.148 0 01-1.684-1.396c-.44-.625-.66-1.413-.66-2.365V1.716zm9.91 26.42a5.5 5.5 0 01-1.14-.106c-.334-.064-.565-.128-.693-.192l.64-2.216c.61.156 1.15.213 1.619.17.468-.042.884-.252 1.246-.628.37-.37.707-.97 1.012-1.8l.469-1.279-6.051-16.449h2.727l4.517 13.04h.17l4.518-13.04h2.727l-6.946 18.75c-.313.846-.7 1.545-1.161 2.1a4.352 4.352 0 01-1.609 1.245c-.604.27-1.286.405-2.046.405z" fill="#fff"/></svg>