<svg width="25" height="25" fill="none" xmlns="http://www.w3.org/2000/svg"><g clip-path="url(#clip0_0_435)" fill="#ECEBEB"><path d="M19.767 4.626a.608.608 0 10.002 1.215.608.608 0 00-.002-1.215zM12.5 7.119A5.387 5.387 0 007.12 12.5a5.387 5.387 0 005.38 5.38 5.387 5.387 0 005.38-5.38 5.387 5.387 0 00-5.38-5.38z"/><path d="M18.147 0H6.853A6.861 6.861 0 000 6.853v11.294A6.861 6.861 0 006.853 25h11.294A6.861 6.861 0 0025 18.147V6.853A6.861 6.861 0 0018.147 0zM12.5 19.357A6.865 6.865 0 015.643 12.5 6.865 6.865 0 0112.5 5.643a6.865 6.865 0 016.857 6.857 6.865 6.865 0 01-6.857 6.857zm7.267-12.04a2.086 2.086 0 01-2.083-2.084c0-1.149.934-2.083 2.083-2.083s2.083.934 2.083 2.083a2.086 2.086 0 01-2.083 2.083z"/></g><defs><clipPath id="clip0_0_435"><path fill="#fff" d="M0 0h25v25H0z"/></clipPath></defs></svg>