<svg width="19" height="19" fill="none" xmlns="http://www.w3.org/2000/svg"><path d="M7.59 4.8c.95-1.648 1.426-2.472 2.137-2.472.711 0 1.187.824 2.138 2.473l.247.427c.27.468.405.703.615.857.21.155.473.212 1 .327l.477.104c1.847.405 2.77.606 2.99 1.29.22.681-.41 1.393-1.67 2.816l-.325.368c-.358.404-.537.607-.617.856-.08.25-.054.52 0 1.06l.05.491c.19 1.9.285 2.848-.29 3.27-.575.422-1.44.037-3.17-.732l-.447-.2c-.492-.218-.737-.327-.998-.327-.26 0-.506.109-.998.328l-.447.199c-1.73.769-2.594 1.153-3.169.733-.576-.423-.48-1.372-.29-3.271l.05-.49c.053-.54.08-.81 0-1.06s-.26-.453-.617-.856l-.326-.369C2.67 9.2 2.04 8.488 2.26 7.805c.22-.683 1.144-.885 2.991-1.289l.478-.104c.525-.115.787-.172.998-.327.21-.154.345-.389.616-.857l.246-.427z" stroke="#fff" stroke-width="1.5"/></svg>