<svg width="121" height="13" fill="none" xmlns="http://www.w3.org/2000/svg"><path d="M.011 12.5V.864h2.46v4.8h4.995v-4.8H9.92V12.5H7.466V7.693H2.472V12.5H.012zm22.631-5.818c0 1.269-.24 2.348-.721 3.238-.478.89-1.13 1.57-1.955 2.04-.822.466-1.746.7-2.773.7-1.034 0-1.962-.236-2.784-.706-.822-.47-1.472-1.15-1.949-2.04-.477-.89-.716-1.967-.716-3.232 0-1.27.239-2.349.716-3.239.477-.89 1.127-1.568 1.95-2.034.821-.47 1.75-.704 2.783-.704 1.027 0 1.95.234 2.773.704.826.466 1.477 1.144 1.954 2.034.481.89.722 1.97.722 3.239zm-2.494 0c0-.822-.123-1.515-.37-2.08-.242-.564-.585-.992-1.028-1.284-.443-.291-.962-.437-1.557-.437s-1.114.146-1.557.437c-.443.292-.787.72-1.034 1.284-.242.565-.363 1.258-.363 2.08 0 .822.12 1.515.363 2.08.246.564.591.992 1.034 1.284.444.291.963.437 1.557.437.595 0 1.114-.146 1.557-.438.443-.291.786-.72 1.028-1.284.247-.564.37-1.257.37-2.08zM24.465.864h3.034l3.204 7.818h.137L34.044.864h3.034V12.5h-2.386V4.926h-.097l-3.011 7.517h-1.625l-3.012-7.545h-.096V12.5h-2.386V.864zM39.105 12.5V.864h7.841v2.028h-5.38v2.773h4.977v2.028h-4.978v2.779h5.404V12.5h-7.864zm11.803 0H48.27L52.288.864h3.17L59.47 12.5h-2.636l-2.915-8.977h-.09L50.907 12.5zm-.165-4.574h6.227v1.92h-6.227v-1.92zM64.996 12.5H60.87V.864h4.159c1.17 0 2.178.233 3.023.699A4.714 4.714 0 0170 3.556c.459.867.688 1.905.688 3.113 0 1.213-.23 2.254-.688 3.125a4.724 4.724 0 01-1.96 2.006c-.848.466-1.863.699-3.045.699zm-1.665-2.108h1.563c.727 0 1.338-.129 1.835-.386.5-.262.875-.665 1.125-1.21.254-.55.38-1.258.38-2.126 0-.86-.126-1.562-.38-2.107-.25-.546-.623-.947-1.12-1.205-.496-.258-1.108-.386-1.835-.386h-1.568v7.42zM73.957.864l2.813 8.84h.108l2.818-8.84h2.727L78.412 12.5h-3.17L71.224.864h2.733zm12.327 0V12.5h-2.46V.864h2.46zm1.9 11.636v-1.46l5.806-8.148h-5.818V.864h8.909v1.46l-5.813 8.148h5.824V12.5h-8.909zm20.942-5.818c0 1.269-.24 2.348-.721 3.238-.477.89-1.129 1.57-1.955 2.04-.822.466-1.746.7-2.772.7-1.035 0-1.963-.236-2.785-.706-.822-.47-1.471-1.15-1.948-2.04-.478-.89-.716-1.967-.716-3.232 0-1.27.238-2.349.716-3.239.477-.89 1.126-1.568 1.948-2.034.822-.47 1.75-.704 2.785-.704 1.026 0 1.95.234 2.772.704.826.466 1.478 1.144 1.955 2.034.481.89.721 1.97.721 3.239zm-2.494 0c0-.822-.123-1.515-.369-2.08-.243-.564-.585-.992-1.029-1.284-.443-.291-.962-.437-1.556-.437-.595 0-1.114.146-1.557.437-.443.292-.788.72-1.034 1.284-.243.565-.364 1.258-.364 2.08 0 .822.121 1.515.364 2.08.246.564.591.992 1.034 1.284.443.291.962.437 1.557.437.594 0 1.113-.146 1.556-.438.444-.291.786-.72 1.029-1.284.246-.564.369-1.257.369-2.08zm4.317 5.818V.864h4.591c.879 0 1.629.157 2.25.471.625.31 1.1.752 1.426 1.324.329.568.494 1.237.494 2.006 0 .772-.166 1.437-.5 1.994-.333.553-.816.977-1.449 1.273-.628.295-1.39.443-2.284.443h-3.074V6.398h2.677c.469 0 .859-.065 1.17-.193.311-.13.542-.322.693-.58.155-.258.233-.578.233-.96 0-.387-.078-.712-.233-.978a1.424 1.424 0 00-.699-.602c-.31-.14-.702-.21-1.176-.21h-1.659V12.5h-2.46zm6.284-5.295l2.892 5.295h-2.716l-2.829-5.295h2.653z" fill="#fff"/></svg>