<svg width="36" height="27" fill="none" xmlns="http://www.w3.org/2000/svg"><g clip-path="url(#clip0_79_2504)"><path d="M35.75 5.964A5.464 5.464 0 0030.552.256 255.91 255.91 0 0018.627.004h-1.265c-4.049 0-8.028.07-11.922.252A5.476 5.476 0 00.242 5.978 105.213 105.213 0 000 13.486c.007 2.502.07 5.004.239 7.511a5.482 5.482 0 005.198 5.729c4.091.19 8.288.274 12.555.267 4.273.014 8.458-.075 12.554-.267a5.484 5.484 0 005.198-5.729 107.3 107.3 0 00.24-7.52c.013-2.502-.065-5.006-.234-7.513zM14.55 20.38V6.57l10.198 6.898L14.55 20.38z" fill="#fff"/></g><defs><clipPath id="clip0_79_2504"><path fill="#fff" transform="translate(0 .004)" d="M0 0h35.984v26.993H0z"/></clipPath></defs></svg>