<svg width="48" height="48" fill="none" xmlns="http://www.w3.org/2000/svg"><path d="M16.8 31.6c0-4.122 1.697-7.853 4.425-10.539a11.529 11.529 0 00-4.825-1.06C9.994 20 4.8 25.193 4.8 31.6s5.194 11.6 11.6 11.6a11.54 11.54 0 004.825-1.06A14.752 14.752 0 0116.8 31.6z" fill="#FC7018"/><path d="M31.6 31.2a14.746 14.746 0 01-10.54-4.427A11.539 11.539 0 0020 31.6c0 6.406 5.194 11.6 11.6 11.6s11.6-5.194 11.6-11.6a11.56 11.56 0 00-1.06-4.827A14.747 14.747 0 0131.6 31.2z" fill="#FC7018"/><path d="M31.6 4.8a11.54 11.54 0 00-4.827 1.06A14.747 14.747 0 0131.2 16.4a14.75 14.75 0 01-4.427 10.54A11.558 11.558 0 0031.6 28c6.406 0 11.6-5.194 11.6-11.6S38.006 4.8 31.6 4.8z" fill="#FC7018"/><path d="M16.4 16.8c4.122 0 7.853 1.697 10.54 4.425A11.529 11.529 0 0028 16.4c0-6.406-5.194-11.6-11.6-11.6S4.8 9.994 4.8 16.4c0 1.725.386 3.355 1.06 4.825A14.752 14.752 0 0116.4 16.8z" fill="#FC7018"/></svg>