<svg width="46" height="42" fill="none" xmlns="http://www.w3.org/2000/svg"><path d="M2.598 38.919L23 3.58l20.402 35.34H2.598z" stroke="#151414" stroke-width="3"/><path d="M22.856 33.548c-1.056 0-1.949-.176-2.68-.528-.716-.352-1.264-.834-1.642-1.447-.378-.625-.567-1.343-.567-2.15h2.347c0 .651.202 1.16.606 1.525.417.351 1.063.527 1.936.527.847 0 1.48-.176 1.897-.527.43-.366.645-.874.645-1.526 0-.665-.195-1.186-.586-1.564-.392-.391-1.043-.587-1.956-.587h-1.369v-1.956h1.369c.782 0 1.369-.163 1.76-.488.391-.34.587-.822.587-1.448 0-.625-.19-1.095-.567-1.408-.366-.312-.959-.469-1.78-.469-.808 0-1.408.163-1.8.489-.377.326-.566.782-.566 1.369h-2.347c0-.795.176-1.486.528-2.073.365-.587.9-1.043 1.604-1.369.704-.326 1.564-.489 2.581-.489 1.03 0 1.89.17 2.581.509.691.326 1.213.769 1.565 1.33a3.24 3.24 0 01.547 1.838c0 .782-.208 1.44-.625 1.975-.418.521-.991.893-1.721 1.114.795.235 1.414.633 1.858 1.193.456.548.684 1.291.684 2.23 0 .73-.19 1.395-.567 1.994-.365.6-.913 1.076-1.643 1.428-.717.339-1.61.508-2.679.508z" fill="#151414"/></svg>