<svg width="20" height="20" fill="none" xmlns="http://www.w3.org/2000/svg"><path d="M0 9.85c.054-2.732 1.08-5.153 3.143-7.11C4.553 1.399 6.227.573 8.128.189a9.962 9.962 0 012.806-.152c1.234.103 2.405.448 3.522.987.572.276 1.12.594 1.637.964a8.595 8.595 0 012.047 2.108 10.28 10.28 0 011.678 3.94 9.89 9.89 0 01.108 3.1c-.497 4.092-3.332 6.966-6.404 8.16-.824.32-1.672.545-2.548.64-2.333.257-4.488-.26-6.443-1.571a10.34 10.34 0 01-3.207-3.392c-.166-.282-.292-.588-.433-.884a10.822 10.822 0 01-.251-.562c-.178-.44-.287-.9-.388-1.362C.09 11.441.015 10.706 0 9.851zm2.985-3.962c.047.07.073.114.106.153.46.551.915 1.105 1.382 1.65.368.43.303.39.83.244.66-.18 1.318-.367 1.976-.556.295-.085.585-.183.88-.268.162-.048.225-.149.226-.317.003-.38.031-.76.028-1.14-.006-.71-.028-1.418-.046-2.128a1.68 1.68 0 00-.034-.275.242.242 0 00-.2-.207c-.17-.035-.337-.081-.507-.11-.946-.163-1.9-.259-2.853-.368-.368-.042-.41-.025-.577.312-.168.34-.33.685-.467 1.037-.258.648-.494 1.305-.744 1.973zm7.617-4.457c-.694-.042-1.4.527-1.405 1.323a1.384 1.384 0 001.38 1.393 1.369 1.369 0 001.362-1.339c.026-.639-.494-1.4-1.337-1.377z" fill="url(#paint0_linear_2256_2172)"/><defs><linearGradient id="paint0_linear_2256_2172" x1="10" y1="0" x2="10" y2="20" gradientUnits="userSpaceOnUse"><stop stop-color="#C80000"/><stop offset="1" stop-color="#700000"/></linearGradient></defs></svg>