<svg width="183" height="53" fill="none" xmlns="http://www.w3.org/2000/svg"><path d="M12.024 42.681c-1.764 2.035-4.852 2.238-6.496.102A26.661 26.661 0 01.515 31.716C-.608 26.061.114 20.161 2.6 14.973A26.332 26.332 0 0114.25 2.91 25.74 25.74 0 0125.9 0c2.667-.02 4.411 2.563 3.95 5.228-.461 2.666-3.008 4.354-5.654 4.68a16.44 16.44 0 00-5.575 1.708 16.633 16.633 0 00-7.338 7.609 16.956 16.956 0 00-1.324 10.558 16.66 16.66 0 002.146 5.493c1.423 2.32 1.684 5.391-.08 7.405z" fill="url(#paint0_linear_2241_2692)"/><path d="M20.205 5.737c-.742-2.584.742-5.35 3.388-5.615a26.05 26.05 0 017.64.387c4.11.834 7.96 2.644 11.229 5.31a26.671 26.671 0 017.559 9.968 26.991 26.991 0 012.186 12.369 26.731 26.731 0 01-3.69 12.003 26.543 26.543 0 01-8.722 8.93 25.95 25.95 0 01-11.79 3.846 26.06 26.06 0 01-7.64-.59c-2.587-.59-3.73-3.52-2.667-6.002 1.063-2.482 3.91-3.54 6.557-3.235 1.023.123 2.045.143 3.068.062a16.194 16.194 0 007.439-2.421 16.667 16.667 0 005.494-5.636 16.773 16.773 0 002.326-7.567c.16-2.665-.3-5.35-1.384-7.813a16.798 16.798 0 00-4.772-6.286 16.565 16.565 0 00-7.078-3.356 17.04 17.04 0 00-3.048-.326c-2.667-.02-5.354-1.424-6.095-4.028z" fill="url(#paint1_linear_2241_2692)"/><g opacity=".2"><path d="M14.27 39.976c-1.484 1.688-4.07 1.872-5.434.081A22.53 22.53 0 014.324 28.3a22.48 22.48 0 014.772-15.787c3.53-4.435 8.602-7.344 14.157-8.077 4.23-.57 8.481.143 12.271 1.994 2.005.977 2.386 3.58 1.083 5.391-1.324 1.831-3.85 2.157-5.955 1.404a13.725 13.725 0 00-6.357-.671 13.659 13.659 0 00-8.923 5.106 14.122 14.122 0 00-3.007 9.948c.18 2.217.882 4.333 2.005 6.205 1.163 1.912 1.383 4.476-.1 6.164z" fill="url(#paint2_linear_2241_2692)"/><path d="M9.278 20.324c-2.106-.773-3.229-3.133-2.086-5.107a21.985 21.985 0 018.462-8.3 21.704 21.704 0 0115.48-2.095c5.233 1.261 9.825 4.435 12.913 8.91a22.417 22.417 0 013.79 15.36c-.642 5.411-3.229 10.416-7.26 14.017a21.828 21.828 0 01-14.616 5.554 21.754 21.754 0 01-14.578-5.737 22.117 22.117 0 01-6.276-10.111c-.642-2.177 1.003-4.211 3.228-4.456 2.226-.244 4.15 1.445 5.033 3.52a13.861 13.861 0 003.47 4.943 13.617 13.617 0 009.183 3.622 13.672 13.672 0 009.223-3.5c2.547-2.278 4.17-5.431 4.592-8.849.401-3.418-.441-6.876-2.386-9.684a13.831 13.831 0 00-8.141-5.615 13.607 13.607 0 00-9.765 1.323 13.772 13.772 0 00-4.552 3.987c-1.343 1.81-3.609 2.99-5.714 2.218z" fill="url(#paint3_linear_2241_2692)"/></g><path d="M182.883 41.702h-7.471l-4.04-5.734-4.04 5.733h-7.471l7.775-11.033-7.515-10.686h7.472l3.779 5.386 3.779-5.386h7.472l-7.515 10.686 7.775 11.034zm-38.695-8.254c.753 2.027 2.49 3.04 5.212 3.04 1.767 0 3.157-.55 4.17-1.65l5.213 2.997c-2.143 2.983-5.299 4.475-9.47 4.475-3.648 0-6.573-1.086-8.774-3.258-2.172-2.172-3.258-4.909-3.258-8.21 0-3.273 1.071-5.995 3.214-8.167 2.172-2.2 4.952-3.301 8.341-3.301 3.156 0 5.777 1.1 7.862 3.301 2.114 2.172 3.171 4.894 3.171 8.167 0 .926-.087 1.795-.261 2.606h-15.42zm-.131-4.865h9.34c-.637-2.288-2.172-3.432-4.605-3.432-2.519 0-4.098 1.144-4.735 3.432zm-18.398-9.209c2.491 0 4.489.825 5.995 2.476 1.506 1.622 2.259 3.793 2.259 6.516v13.336h-6.516V28.93c0-1.1-.275-1.969-.826-2.606-.521-.637-1.288-.956-2.302-.956-1.071 0-1.911.362-2.519 1.086-.58.724-.869 1.723-.869 2.998v12.25h-6.516V28.93c0-1.1-.275-1.969-.825-2.606-.522-.637-1.289-.956-2.303-.956-1.071 0-1.911.362-2.519 1.086-.579.724-.869 1.723-.869 2.998v12.25h-6.516v-21.72h6.516v1.998c1.188-1.737 3.128-2.606 5.821-2.606 2.519 0 4.416.956 5.691 2.867 1.332-1.912 3.431-2.867 6.298-2.867zM93.033 37.748c-3.07 3.041-6.806 4.562-11.207 4.562-4.402 0-8.138-1.52-11.208-4.562-3.07-3.04-4.604-6.79-4.604-11.25s1.535-8.21 4.604-11.25c3.07-3.042 6.806-4.562 11.208-4.562 4.401 0 8.137 1.52 11.207 4.561 3.07 3.04 4.604 6.791 4.604 11.25 0 4.46-1.535 8.21-4.604 11.252zm-17.55-4.734c1.709 1.68 3.823 2.52 6.343 2.52 2.519 0 4.619-.84 6.298-2.52 1.709-1.68 2.563-3.852 2.563-6.516s-.854-4.836-2.563-6.516c-1.68-1.68-3.78-2.52-6.298-2.52-2.52 0-4.634.84-6.343 2.52-1.68 1.68-2.52 3.852-2.52 6.516s.84 4.836 2.52 6.516z" fill="#E1E7EB"/><defs><linearGradient id="paint0_linear_2241_2692" x1="14.972" y1=".001" x2="14.972" y2="52.989" gradientUnits="userSpaceOnUse"><stop stop-color="#68E1FC"/><stop offset="1" stop-color="#DBFFFF" stop-opacity=".5"/></linearGradient><linearGradient id="paint1_linear_2241_2692" x1="26.331" y1="53.96" x2="40.214" y2="2.895" gradientUnits="userSpaceOnUse"><stop stop-color="#68E1FC"/><stop offset="1" stop-color="#DBFFFF" stop-opacity=".5"/></linearGradient><linearGradient id="paint2_linear_2241_2692" x1="20.809" y1="4.247" x2="20.809" y2="48.651" gradientUnits="userSpaceOnUse"><stop stop-color="#DBFFFF"/><stop offset="1" stop-color="#68E1FC"/></linearGradient><linearGradient id="paint3_linear_2241_2692" x1="20.735" y1="47.994" x2="32.38" y2="5.162" gradientUnits="userSpaceOnUse"><stop stop-color="#DBFFFF"/><stop offset="1" stop-color="#68E1FC"/></linearGradient></defs></svg>