<svg width="18" height="20" fill="none" xmlns="http://www.w3.org/2000/svg"><path d="M9.77 16.068S8.746 13.852 11 13.75c-.101-.003-1.144-.055-.7-1.109-.045.036-2.62 2.258-4.097-.177-1.469-2.423.443-4.43 2.494-4.32-.353-.033-1.75-.26-1.2-1.821 0 0-1.689.845-2.514-.567-.827-1.418.547-2.363.547-2.363s-.532-.447-.4-1.097c.134-.65 1.245-.42 1.245-.42S6.202.64 7.195.191c.992-.455 2.462.41 2.33 1.945 0 0 1.723-1.235 3.618.216 1.895 1.451 1.548 3.746.768 4.271 0 0 2.267-.732 3.475.959 1.214 1.69.298 2.743-.328 2.879 0 0 1.768 1.362.063 2.677 0 0 .845 1.886-.496 3.478-.1.119-.201.225-.307.313-1.28 1.106-2.736.083-2.736.083.002.064.03 2.063-2.062 2.667-2.137.614-3.47-2.881-1.75-3.61z" fill="#A0490E"/><path d="M16.62 16.617c1.34-1.592.495-3.478.495-3.478 1.706-1.315-.063-2.677-.063-2.677.626-.136 1.54-1.195.328-2.879-1.214-1.69-3.475-.959-3.475-.959.786-.526 1.133-2.82-.768-4.27-1.895-1.451-3.612-.218-3.612-.218C9.657.6 8.187-.264 7.195.191c-.992.455-.803 1.682-.803 1.682S8.015-.7 9.14 2.608c0 0 2.468-1.04 3.703.496.99 1.24.566 2.936.36 3.55-.468-.48-1.247-.363-1.247-.363 1.556.47 1.284 1.985 1.284 1.985s.465-.767.14-1.382c.748.038 2.874.248 3.504 1.392.77 1.399-.725 1.93-.725 1.93s.945.617 1.072 1.67c.128 1.052-1.054 1.043-1.054 1.043s1.323 1.919.136 4a2.33 2.33 0 00.307-.312z" fill="#CC8411"/><path d="M11.51 19.681c2.093-.597 2.062-2.602 2.06-2.666-.424 2.188-3.444 2.476-3.507 1.086-.058-1.392.984-1.366.984-1.366-1.803-1.988.427-2.726 1.065-2.89-.014.236.068.529.322.875 0 0-.305-1.157.445-1.792 0 0-.695.26-.765.871a2.064 2.064 0 01-1.172-.592c-.655-.628.075-1.55.075-1.55s-3.809 1.54-4.245-.714c-.427-2.21 3.185-2.846 3.323-2.87-.095.002-1.575.026-2.023-.802-.45-.834.37-1.594.41-1.628-.06.026-2.156.915-2.862 0-.714-.924-.08-2.259-.08-2.259s-1.373.952-.547 2.364c.827 1.418 2.514.566 2.514.566-.55 1.562.842 1.79 1.2 1.822-2.05-.11-3.963 1.896-2.494 4.32 1.477 2.434 4.052.212 4.098.176-.457 1.083.652 1.107.706 1.108-2.268.099-1.237 2.32-1.237 2.32-1.73.738-.397 4.233 1.73 3.622z" fill="#823500"/><path d="M10.114 8.956s-.843.539.108 1.432c.007.005-.49-.936-.108-1.432z" fill="#823500"/><path d="M7.94 2.63s-1.513-.105-.86 1.312c0 0-.063-.976.86-1.312zm-.86 1.312s-.73.01-.326.886c-.001-.006-.105-.676.326-.886zm7.072 6.943s1.24.494.65 1.483c-.006.001.043-.786-.65-1.483z" fill="#CC8411"/><path d="M.299 12.344C-.01 10.93 5.01 9.696 7.06 9.367L4.038 10.76l7.964-.96-7.072 1.801 2.77-.039c.004-.007-7.028 2.498-7.401.781z" fill="#FF4800"/><path d="M.85 12.25c-.154-.71 2.973-1.74 2.973-1.74l-1.264.825 4.17-.615-4.106 1.293 2.216.05s-3.848.836-3.988.187z" fill="#FF8500"/><path d="M3.912 11.332l-1.822.396.326-.42s-1.352.443-1.19.809c.164.365 1.715.04 1.715.04l-.825-.117 1.796-.708z" fill="#FFF42C"/><path d="M7.352 5.604S3.214 7.137 3.553 7.846c.335.716 3.8-2.242 3.8-2.242zm1.479 8.806s-2.36-.988-2.593-.304c-.234.679 2.593.303 2.593.303z" fill="#FF4800"/><path d="M6.027 6.364s-2.426.96-2.198 1.325c.223.366 2.198-1.325 2.198-1.325zm2.039 7.953s-1.484-.544-1.592-.165c-.108.38 1.592.165 1.592.165z" fill="#FF8500"/></svg>