<svg width="375" height="45" fill="none" xmlns="http://www.w3.org/2000/svg"><path d="M261.035 8.044L253.232.256h-64.976L173.472 15.01H55.589L40.805.256H0v23.352h189.962l20.974 20.93h97.916l20.973-20.93H375V8.044H261.035z" fill="url(#paint0_radial_2241_7673)"/><path d="M253.232.256h-64.976l-11.268 11.235h38.224l20.974 20.93h61.984l20.973-20.93H375V8.044H261.035L253.232.256z" fill="url(#paint1_radial_2241_7673)"/><path d="M309.037 45h-98.286l-.144-.133-20.83-20.797H0v-.924h190.158l20.973 20.93h97.526l20.973-20.93H375v.924h-44.99L309.037 45z" fill="url(#paint2_radial_2241_7673)"/><path d="M173.574 15.267H55.476L40.692.513H0V0h40.908l14.784 14.754h117.666L188.143 0h65.191l7.814 7.787H375V8.3H260.932L253.129.513h-64.771l-14.784 14.754z" fill="url(#paint3_radial_2241_7673)"/><defs><radialGradient id="paint0_radial_2241_7673" cx="0" cy="0" r="1" gradientUnits="userSpaceOnUse" gradientTransform="matrix(216.741 0 0 219.804 212.012 55.707)"><stop stop-color="#7B8499"/><stop offset="1" stop-color="#151E28"/></radialGradient><radialGradient id="paint1_radial_2241_7673" cx="0" cy="0" r="1" gradientUnits="userSpaceOnUse" gradientTransform="matrix(280.473 0 0 206.772 115.932 96.904)"><stop stop-color="#7B8499"/><stop offset="1" stop-color="#151E28"/></radialGradient><radialGradient id="paint2_radial_2241_7673" cx="0" cy="0" r="1" gradientUnits="userSpaceOnUse" gradientTransform="matrix(169.17 0 0 347.632 187.498 51.136)"><stop stop-color="#B8BFC9"/><stop offset="1" stop-color="#151E28"/></radialGradient><radialGradient id="paint3_radial_2241_7673" cx="0" cy="0" r="1" gradientUnits="userSpaceOnUse" gradientTransform="matrix(197.54 0 0 197.135 187.498 7.633)"><stop stop-color="#3D4753"/><stop offset="1" stop-color="#0B1318"/></radialGradient></defs></svg>