<svg width="60" height="62" fill="none" xmlns="http://www.w3.org/2000/svg"><path d="M13.806 49.465c-2.026 2.336-5.571 2.57-7.46.117A30.613 30.613 0 01.592 36.875c-1.29-6.493-.46-13.267 2.395-19.223C5.84 11.672 10.536 6.814 16.36 3.8A29.553 29.553 0 0129.739.46c3.062-.023 5.064 2.943 4.535 6.003-.53 3.06-3.454 4.999-6.492 5.372-2.21.257-4.398.935-6.4 1.963a19.096 19.096 0 00-8.427 8.736 19.469 19.469 0 00-1.52 12.122 19.128 19.128 0 002.464 6.307c1.635 2.663 1.934 6.19-.092 8.502z" fill="url(#paint0_linear_2241_7779)"/><path d="M23.199 7.047c-.852-2.966.852-6.143 3.89-6.447a29.91 29.91 0 018.772.444c4.72.958 9.14 3.037 12.893 6.097a30.623 30.623 0 018.68 11.445 30.99 30.99 0 012.509 14.202c-.3 4.858-1.75 9.6-4.236 13.781a30.475 30.475 0 01-10.015 10.254 29.794 29.794 0 01-13.537 4.415 29.914 29.914 0 01-8.772-.678c-2.97-.677-4.282-4.04-3.062-6.89 1.22-2.85 4.49-4.065 7.528-3.714 1.175.14 2.349.163 3.523.07a18.595 18.595 0 008.541-2.78 19.135 19.135 0 006.308-6.47 19.256 19.256 0 002.67-8.69 19.395 19.395 0 00-1.588-8.969 19.287 19.287 0 00-5.479-7.217 19.017 19.017 0 00-8.127-3.854 19.555 19.555 0 00-3.5-.374c-3.061-.023-6.146-1.635-6.998-4.625z" fill="url(#paint1_linear_2241_7779)"/><g opacity=".2"><path d="M16.385 46.36c-1.704 1.939-4.674 2.149-6.24.093a25.868 25.868 0 01-5.18-13.5 25.812 25.812 0 015.48-18.127c4.052-5.092 9.877-8.432 16.254-9.273a24.573 24.573 0 0114.09 2.29c2.302 1.12 2.74 4.11 1.243 6.19-1.52 2.101-4.42 2.475-6.838 1.611a15.758 15.758 0 00-7.298-.77 15.682 15.682 0 00-10.245 5.862 16.214 16.214 0 00-3.453 11.422 16.44 16.44 0 002.302 7.124c1.335 2.196 1.589 5.14-.115 7.078z" fill="url(#paint2_linear_2241_7779)"/><path d="M10.653 23.795c-2.418-.888-3.707-3.597-2.395-5.863a25.242 25.242 0 019.716-9.53 24.92 24.92 0 0117.773-2.406c6.009 1.448 11.281 5.092 14.827 10.23a25.738 25.738 0 014.35 17.636c-.736 6.213-3.706 11.96-8.333 16.094a25.061 25.061 0 01-16.784 6.377 24.976 24.976 0 01-16.737-6.587 25.394 25.394 0 01-7.206-11.61c-.737-2.499 1.151-4.834 3.707-5.115 2.555-.28 4.765 1.659 5.778 4.041a15.916 15.916 0 003.983 5.676 15.634 15.634 0 0010.544 4.158 15.699 15.699 0 0010.59-4.018c2.925-2.616 4.79-6.236 5.273-10.16.46-3.925-.507-7.895-2.74-11.119a15.881 15.881 0 00-9.347-6.447 15.624 15.624 0 00-11.212 1.519 15.812 15.812 0 00-5.226 4.578c-1.542 2.079-4.144 3.434-6.561 2.546z" fill="url(#paint3_linear_2241_7779)"/></g><defs><linearGradient id="paint0_linear_2241_7779" x1="17.19" y1=".461" x2="17.19" y2="61.3" gradientUnits="userSpaceOnUse"><stop stop-color="#68E1FC"/><stop offset="1" stop-color="#DBFFFF" stop-opacity=".5"/></linearGradient><linearGradient id="paint1_linear_2241_7779" x1="30.234" y1="62.416" x2="46.173" y2="3.784" gradientUnits="userSpaceOnUse"><stop stop-color="#68E1FC"/><stop offset="1" stop-color="#DBFFFF" stop-opacity=".5"/></linearGradient><linearGradient id="paint2_linear_2241_7779" x1="23.893" y1="5.337" x2="23.893" y2="56.32" gradientUnits="userSpaceOnUse"><stop stop-color="#DBFFFF"/><stop offset="1" stop-color="#68E1FC"/></linearGradient><linearGradient id="paint3_linear_2241_7779" x1="23.808" y1="55.566" x2="37.178" y2="6.386" gradientUnits="userSpaceOnUse"><stop stop-color="#DBFFFF"/><stop offset="1" stop-color="#68E1FC"/></linearGradient></defs></svg>