<svg width="20" height="20" fill="none" xmlns="http://www.w3.org/2000/svg"><path d="M5.545 6.727a.58.58 0 000 .546l3.91 6.909V6.545H6c-.182 0-.364 0-.455.182zM14 6.545h-3.454v7.637l3.909-6.91c.09-.181.09-.363 0-.454-.091-.273-.182-.273-.455-.273z" fill="#08C"/><path d="M10 0C4.455 0 0 4.455 0 10c0 5.546 4.455 10 10 10a9.97 9.97 0 0010-10c0-5.545-4.454-10-10-10zm5.454 7.818l-4.818 8.546c-.181.272-.363.363-.636.363s-.545-.181-.636-.363L4.545 7.818c-.363-.545-.363-1.182 0-1.636.273-.546.819-.818 1.455-.818h8.09c.637 0 1.183.272 1.456.818.181.273.181.545.181.818 0 .273-.09.545-.273.818z" fill="#08C"/></svg>