<svg width="20" height="20" fill="none" xmlns="http://www.w3.org/2000/svg"><path d="M4.538 16.106c-.666.768-1.832.845-2.452.039a10.061 10.061 0 01-1.892-4.177A10.096 10.096 0 01.981 5.65a9.937 9.937 0 014.396-4.552A9.713 9.713 0 019.774 0c1.006-.008 1.664.967 1.49 1.973-.174 1.006-1.135 1.643-2.134 1.766a6.203 6.203 0 00-2.103.645 6.276 6.276 0 00-2.77 2.87 6.398 6.398 0 00-.499 3.985c.144.737.424 1.443.81 2.073.537.875.635 2.034-.03 2.794z" fill="url(#paint0_linear_2241_2756)"/><path d="M7.624 2.165c-.28-.975.28-2.02 1.28-2.119a9.772 9.772 0 017.12 2.15 10.064 10.064 0 013.677 8.429 10.088 10.088 0 01-1.393 4.53 10.016 10.016 0 01-3.291 3.37 9.793 9.793 0 01-4.45 1.45 9.832 9.832 0 01-2.882-.222c-.976-.223-1.408-1.329-1.006-2.265.4-.937 1.475-1.336 2.474-1.22a5.89 5.89 0 001.157.022 6.112 6.112 0 002.808-.913 6.33 6.33 0 002.95-4.982 6.375 6.375 0 00-.522-2.948 6.25 6.25 0 00-4.472-3.639 6.429 6.429 0 00-1.15-.123c-1.006-.008-2.02-.538-2.3-1.52z" fill="url(#paint1_linear_2241_2756)"/><g opacity=".2"><path d="M5.384 15.086c-.56.637-1.536.706-2.05.03a8.483 8.483 0 01.098-10.395 8.217 8.217 0 015.342-3.047 8.076 8.076 0 014.631.752c.757.369.9 1.352.409 2.035-.5.69-1.453.814-2.248.53a5.18 5.18 0 00-2.398-.254A5.154 5.154 0 005.8 6.664a5.33 5.33 0 00-1.135 3.754c.068.837.333 1.635.756 2.341.44.722.522 1.69-.038 2.327z" fill="url(#paint2_linear_2241_2756)"/><path d="M3.5 7.67c-.795-.292-1.218-1.183-.787-1.928A8.296 8.296 0 015.906 2.61a8.19 8.19 0 015.841-.79 8.286 8.286 0 014.873 3.362 8.46 8.46 0 011.43 5.796 8.43 8.43 0 01-2.739 5.29 8.237 8.237 0 01-5.516 2.095 8.208 8.208 0 01-5.5-2.165 8.346 8.346 0 01-2.369-3.815c-.242-.821.378-1.59 1.218-1.681.84-.092 1.566.545 1.9 1.328a5.232 5.232 0 001.308 1.865 5.16 5.16 0 006.946.046 5.355 5.355 0 001.733-3.34 5.333 5.333 0 00-.9-3.653 5.22 5.22 0 00-3.072-2.12 5.135 5.135 0 00-3.685.5 5.197 5.197 0 00-1.718 1.505c-.507.683-1.362 1.128-2.156.836z" fill="url(#paint3_linear_2241_2756)"/></g><defs><linearGradient id="paint0_linear_2241_2756" x1="5.65" y1="0" x2="5.65" y2="19.996" gradientUnits="userSpaceOnUse"><stop stop-color="#68E1FC"/><stop offset="1" stop-color="#DBFFFF" stop-opacity=".5"/></linearGradient><linearGradient id="paint1_linear_2241_2756" x1="9.936" y1="20.362" x2="15.175" y2="1.093" gradientUnits="userSpaceOnUse"><stop stop-color="#68E1FC"/><stop offset="1" stop-color="#DBFFFF" stop-opacity=".5"/></linearGradient><linearGradient id="paint2_linear_2241_2756" x1="7.852" y1="1.603" x2="7.852" y2="18.359" gradientUnits="userSpaceOnUse"><stop stop-color="#DBFFFF"/><stop offset="1" stop-color="#68E1FC"/></linearGradient><linearGradient id="paint3_linear_2241_2756" x1="7.823" y1="18.111" x2="12.217" y2="1.948" gradientUnits="userSpaceOnUse"><stop stop-color="#DBFFFF"/><stop offset="1" stop-color="#68E1FC"/></linearGradient></defs></svg>