<svg width="80" height="80" fill="none" xmlns="http://www.w3.org/2000/svg"><circle cx="40" cy="40" r="39.75" fill="url(#paint0_linear_2256_2174)"/><path d="M68.437 41.198l-11.745 6.566c-1.14.636-2.477-.463-2.03-1.667L56.919 40l-2.255-6.096c-.448-1.208.89-2.303 2.029-1.667l11.745 6.566c.95.529.948 1.865 0 2.395zm-58.2 0l11.745 6.566c1.14.636 2.477-.463 2.03-1.667L21.755 40l2.255-6.096c.448-1.208-.89-2.303-2.029-1.667l-11.745 6.566a1.363 1.363 0 000 2.395zM38.802 9.575L32.236 21.32c-.636 1.139.462 2.477 1.667 2.029l6.096-2.256 6.096 2.256c1.208.448 2.303-.89 1.667-2.03L41.196 9.576a1.363 1.363 0 00-2.394 0zm0 60.188l-6.566-11.746c-.636-1.139.462-2.476 1.667-2.029l6.096 2.256 6.096-2.256c1.208-.447 2.303.89 1.667 2.03l-6.566 11.745a1.363 1.363 0 01-2.394 0z" fill="#1A1B1C"/><defs><linearGradient id="paint0_linear_2256_2174" x1="40.008" y1="2.132" x2="40.008" y2="103.679" gradientUnits="userSpaceOnUse"><stop offset=".071" stop-color="#fff"/><stop offset="1" stop-color="#1B1B28"/></linearGradient></defs></svg>