<svg width="20" height="23" fill="none" xmlns="http://www.w3.org/2000/svg"><path fill-rule="evenodd" clip-rule="evenodd" d="M10.323 7.438V9.39c0 .1.053.186.142.231.09.046.19.038.271-.022l5.813-4.264a.252.252 0 00.106-.201.252.252 0 00-.093-.208L10.749.061a.255.255 0 00-.276-.036.255.255 0 00-.15.236v1.813c-9.062 0-12.035 6.662-9.402 11.4 1.457-5.671 6.212-6.036 9.402-6.036zm-1.46 8.124c3.19 0 7.945-.365 9.402-6.036 2.633 4.738-.34 11.4-9.402 11.4v1.813a.254.254 0 01-.15.236.255.255 0 01-.276-.036l-5.813-4.865a.252.252 0 01-.093-.208.252.252 0 01.106-.2L8.45 13.4a.254.254 0 01.27-.022c.09.045.143.13.143.231v1.952z" fill="#4BB7BB"/></svg>