<svg width="32" height="21" fill="none" xmlns="http://www.w3.org/2000/svg"><path d="M16 7.679c2.104 0 3.81-1.72 3.81-3.84S18.104 0 16 0s-3.809 1.719-3.809 3.84c0 2.12 1.705 3.839 3.81 3.839zM5.333 10.75c2.104 0 3.81-1.718 3.81-3.839 0-2.12-1.706-3.84-3.81-3.84s-3.81 1.72-3.81 3.84 1.706 3.84 3.81 3.84zm21.334 0c2.104 0 3.81-1.718 3.81-3.839 0-2.12-1.706-3.84-3.81-3.84s-3.81 1.72-3.81 3.84 1.706 3.84 3.81 3.84z" fill="#4B6D74"/><path fill-rule="evenodd" clip-rule="evenodd" d="M22.857 14.59v5.642a.769.769 0 01-.762.768H9.905a.769.769 0 01-.762-.768V14.59c0-2.969 2.388-5.375 5.333-5.375h3.048c2.945 0 5.333 2.406 5.333 5.375zM7.955 12.448a3.788 3.788 0 00-1.098-.162H3.81c-2.104 0-3.81 1.72-3.81 3.84v4.106c0 .424.341.768.762.768H7.75a2.31 2.31 0 01-.131-.768V14.59c0-.748.118-1.467.336-2.142zM24.25 21h6.988c.42 0 .762-.344.762-.768v-4.106c0-2.12-1.706-3.84-3.81-3.84h-3.047c-.382 0-.75.057-1.098.162.218.675.336 1.394.336 2.142v5.642c0 .264-.045.524-.131.768z" fill="#4B6D74"/></svg>