<svg width="24" height="23" fill="none" xmlns="http://www.w3.org/2000/svg"><path d="M20.508 7.987h-9.667a2.677 2.677 0 00-2.67 2.675v9.663A2.677 2.677 0 0010.84 23h9.667a2.677 2.677 0 002.67-2.675v-9.663a2.677 2.677 0 00-2.67-2.675zM12.83 14.4a1.757 1.757 0 110-3.511 1.756 1.756 0 010 3.51zm5.689 5.693a1.756 1.756 0 010-3.51c.97 0 1.753.787 1.753 1.757 0 .966-.783 1.753-1.753 1.753z" fill="#4B6D74"/><path d="M10.84 7.021h4.168v-4.35A2.673 2.673 0 0012.338 0H2.67A2.673 2.673 0 000 2.67v9.668a2.673 2.673 0 002.67 2.67h4.535v-4.346a3.643 3.643 0 013.636-3.64zm-.487-4.119a1.753 1.753 0 110 3.506c-.97 0-1.758-.782-1.758-1.753 0-.966.788-1.753 1.758-1.753zm-5.693 9.2a1.754 1.754 0 110-3.507 1.753 1.753 0 110 3.506zm0-5.694c-.97 0-1.758-.782-1.758-1.753a1.756 1.756 0 013.51 0c0 .97-.786 1.753-1.752 1.753z" fill="#4B6D74"/></svg>