<svg width="26" height="21" fill="none" xmlns="http://www.w3.org/2000/svg"><path d="M13 4.24l-9.273 7.758a.224.224 0 01-.008.049.227.227 0 00-.008.049v7.856c0 .284.102.53.306.736a.986.986 0 00.726.312h6.193v-6.286h4.129V21h6.192c.28 0 .522-.104.726-.312.204-.206.306-.452.306-.736v-7.856a.234.234 0 00-.016-.098L13 4.239z" fill="#4B6D74"/><path d="M25.82 10.23l-3.53-2.98V.573a.497.497 0 00-.516-.524h-3.097a.499.499 0 00-.516.524v3.192L14.226.425A1.864 1.864 0 0013 0c-.473 0-.881.142-1.225.426L.179 10.23a.478.478 0 00-.177.352.535.535 0 00.113.384l1 1.212a.548.548 0 00.338.18.593.593 0 00.387-.115L13 2.8l11.16 9.444a.493.493 0 00.338.114h.049a.548.548 0 00.339-.18l1-1.21a.535.535 0 00.112-.386.48.48 0 00-.177-.351z" fill="#4B6D74"/></svg>