<svg width="117" height="33" fill="none" xmlns="http://www.w3.org/2000/svg"><path d="M116.883 31.701h-7.471l-4.04-5.733-4.04 5.733h-7.471l7.775-11.033-7.515-10.686h7.472l3.779 5.386 3.779-5.386h7.472l-7.515 10.686 7.775 11.034zm-38.695-8.253c.753 2.027 2.49 3.04 5.212 3.04 1.767 0 3.157-.55 4.17-1.65l5.213 2.997c-2.143 2.983-5.3 4.475-9.47 4.475-3.648 0-6.573-1.086-8.774-3.258-2.172-2.172-3.258-4.909-3.258-8.21 0-3.273 1.071-5.995 3.214-8.167 2.172-2.2 4.952-3.301 8.34-3.301 3.157 0 5.778 1.1 7.863 3.301 2.114 2.172 3.171 4.894 3.171 8.167 0 .926-.087 1.795-.26 2.606H78.188zm-.13-4.865h9.339c-.637-2.288-2.172-3.432-4.605-3.432-2.52 0-4.098 1.144-4.735 3.432zM59.66 9.374c2.49 0 4.488.825 5.994 2.476 1.506 1.622 2.259 3.793 2.259 6.516V31.7h-6.516V18.93c0-1.101-.275-1.97-.826-2.607-.52-.637-1.288-.956-2.302-.956-1.071 0-1.911.362-2.52 1.086-.579.724-.868 1.723-.868 2.998v12.25h-6.516V18.93c0-1.1-.275-1.969-.825-2.606-.522-.637-1.289-.956-2.303-.956-1.071 0-1.91.362-2.519 1.086-.58.724-.869 1.723-.869 2.998v12.25h-6.516V9.982h6.516v1.998c1.188-1.737 3.128-2.606 5.821-2.606 2.52 0 4.416.955 5.69 2.867 1.333-1.912 3.432-2.867 6.3-2.867zM27.033 27.748c-3.07 3.041-6.806 4.562-11.208 4.562-4.401 0-8.137-1.52-11.207-4.562-3.07-3.04-4.604-6.79-4.604-11.25s1.535-8.21 4.604-11.25C7.688 2.205 11.424.685 15.825.685c4.402 0 8.138 1.52 11.208 4.561 3.07 3.04 4.604 6.791 4.604 11.25 0 4.46-1.535 8.21-4.604 11.252zm-17.55-4.734c1.709 1.68 3.823 2.52 6.342 2.52 2.52 0 4.62-.84 6.3-2.52 1.708-1.68 2.562-3.852 2.562-6.516s-.854-4.836-2.563-6.516c-1.68-1.68-3.78-2.52-6.298-2.52-2.52 0-4.634.84-6.343 2.52-1.68 1.68-2.52 3.852-2.52 6.516s.84 4.836 2.52 6.516z" fill="#E1E7EB"/></svg>