<svg width="355" height="355" fill="none" xmlns="http://www.w3.org/2000/svg"><path d="M354.756.03V355h-7.505v-69.407h-26.97v34.871h-77.218v-34.871H181.07v34.871h-7.353v-34.841h-61.963v34.841h-7.658v-42.163h146.595v34.536h61.871V278.24h34.536V77.096h-96.285v61.902h34.291v7.566h-76.79V42.377h-34.506V34.84h42.072v104.096h27.061V69.651h34.841v-34.78h42.346v7.475h-34.841V69.56h61.781V7.719h-96.316v34.536h-7.75V7.78H42.132v26.939h69.469v34.902h27V34.902h7.689v34.78h34.505v77.065h-69.102v27.122h104.126v34.689h61.902v-27.214h-34.597v-7.353h69.316v-61.963h-34.536v-7.535h42.194v76.79h-34.902v34.963h-76.913v-34.78c-.61-.03-1.037-.091-1.495-.091l-84.356-.092c-3.112 0-6.194.122-9.306.031-1.342-.031-1.586.457-1.586 1.678.031 10.739-.03 21.447-.03 32.186v1.038h-7.536V139.15h69.438V77.096h-69.499V42.468h-69.56V.153C141.195.03 247.884.03 354.756.03z" fill="#6F788C"/><path d="M7.353 69.59H76.76v34.628h69.499v7.597H76.943v131.37h61.75V208.68h42.254v34.505h131.615V208.71h7.597v42.164h-34.902v34.505h-7.292v-34.444H173.747v-34.628h-27.274v34.567h-69.56v69.529H34.566v-42.194h7.506v34.597h27.305V77.035H7.597v166.15h26.786V104.309h7.628v146.565H7.597v96.468h131.157v-34.383h7.688v34.414h61.872v-34.414h7.688v34.444H320.22v7.505H.03C0 236.657 0 118.374 0 0h7.353v69.59z" fill="#6F788C"/></svg>