<svg width="355" height="353" fill="none" xmlns="http://www.w3.org/2000/svg"><path d="M355 353H0V0h355v353zm-230.107-69.22H74.758v-34.644h-49.79v-41.477H79.95v7.038H30.31v27.401h49.986v34.371h19.678v-69.015h24.722v-62.045H74.708V76.121H49.987v-7.243h24.87V34.576H229.86v7.175h-74.758v34.233h-5.339V41.82H80.246v61.84h24.622v7.175H80.246v26.99h119.652v-33.892h5.339v68.946h74.906v34.576h49.789v75.985h-5.191v-34.371h-49.74v-7.38h49.641v-26.991h-94.733v34.234h-4.894v-41.75h49.739V179.78H199.7v-34.234h-69.517v27.332h49.888v34.508h25.068v103.385h19.876v-34.302h24.869v-34.303h5.34v34.508h24.722v41.819h-24.722v26.991h94.486v-27.196h-49.74v-41.477h5.093v33.96h44.647v-165.43h-24.771v-7.38h24.82V76.189h-24.82v-7.38h24.771V7.107h-94.535v61.84h24.672v7.243h-24.821v34.235h-5.339V76.463h-19.58v61.361h69.517V110.56h-24.672v-7.106h24.672V41.477h-24.623v-6.97h54.931v7.244h-24.721v62.044h24.672v7.039h-24.721v62.113h24.82c.049 1.025.099 1.708.099 2.391.099 4.579.049 4.579-3.313 4.579h-24.227c-.89 0-1.73-.137-2.818-.205v-34.439h-74.906V76.531h-44.944v34.029h-55.178V76.121H99.974V69.22h30.11v34.165h44.845V68.946h74.758V7.106H5.142v131.197h24.771v7.175H5.143v27.195H49.74v-61.908H24.92v-76.19h29.912v7.244H30.358v62.045h24.82v69.151h49.74v7.107H5.191v130.991c6.923 0 13.696-.068 20.42 0 4.796.068 4.55-1.64 4.4 6.423 0 .205-.148.41-.345.957H5.19v27.059h94.486v-27.196H49.838V283.78h-24.87v-6.901H55.03v34.302h50.135v34.371h44.746v-69.015h24.87v-27.264h-49.789v-7.448h24.968v-34.166h5.192v34.439h24.672v41.887H155.3v61.635h94.535v-3.895c0-8.883.049-17.766-.049-26.649-.05-2.87.444-4.168 2.719-3.895 2.62.274 5.29.069 7.911.069h14.289v-27.265h-44.647v34.303h-55.03v-7.038h24.573v-96.758H174.83v-34.165h-44.845v34.439h-24.721v62.045h24.672v41.545h-5.093c.05-11.48.05-22.823.05-34.576z" fill="#6F788C"/></svg>