<svg width="355" height="355" fill="none" xmlns="http://www.w3.org/2000/svg"><path d="M126.568 285.342v-31.383h6.1v69.384H95.033v-6.161h31.474v-25.313H5.977v56.848h57.154v-25.191H31.688v-6.283h37.818v31.474h120.742v-88.506H164.63v63.101h-5.947v-95.154H37.97v25.588h63.071v6.221H31.657v-69.383h6.16v31.443H94.85v-31.413h6.313v31.413h63.345v31.719h31.687v95.032H323.19v6.192H0C.03 236.697.03 118.394.03.03h5.795v31.597h31.962v37.787h-6.19V38.031H5.976v88.72h31.871v31.901h88.72V69.658H95.063v-6.222h95.216V31.75h5.886v31.565h31.718v63.345h89.116V31.75h6.191v132.91h-63.162v57.459h63.132v5.917h-31.413v57.428h31.443v6.252h-63.162v31.627h-37.97v-95.185H190.37v-31.749h-63.65v-5.947h31.871v-63.62h31.688V95.216h5.825v69.383h-5.764v-31.535h-25.68c-.03.518-.091 1.006-.091 1.494 0 18.086 0 36.202-.031 54.287 0 1.312.397 1.617 1.647 1.617 9.363 0 18.696.061 28.059.091h1.982v31.535h31.688v31.719h31.931v6.282h-31.809v56.971h25.588v-31.505h31.596v-57.397h-31.352v-69.384h63.101v-25.68h-88.994v63.193h-5.917V69.719h-89.085v25.314h31.443v6.221h-31.504v63.437H69.597v31.596h-6.344v-31.566H31.596v-31.627H6.04v152.278c40.074-.03 80.24-.03 120.529-.03z" fill="#6F788C"/><path d="M259.906 95.002h25.405V31.718h6.222v69.414h-37.848V37.94h-31.627V5.978H69.688v25.588h94.728v6.252H69.658v88.841H94.85V95.185h6.221v37.605H63.314v-31.505H31.688v-6.222H63.13V5.886H31.627V0h323.19v355h-6.161v-31.566h-63.223v-6.313h63.071v-57.093H317.06v-6.252h31.444v-57.428h-63.101v-5.947h63.101V5.978h-120.56v25.557h31.871c.091 21.288.091 42.332.091 63.467z" fill="#6F788C"/></svg>