<svg width="355" height="355" fill="none" xmlns="http://www.w3.org/2000/svg"><path d="M354.951 0v26.32c0 108.474 0 216.948.049 325.423 0 3.062-.934 3.257-2.753 3.257-27.183-.065-54.366-.065-81.598-.065-37.702 0-75.355.065-113.057.065-44.977 0-89.954-.065-134.931-.065-6.636 0-13.272.065-19.908.065-.885 0-1.77-.13-2.753-.195C.05 236.428.05 118.312.05 0h354.9zm-63.558 277.472h-29.1v-77.658H145.795v-6.776h145.844V38.634h4.964v34.138c0 4.3 0 4.3 3.146 4.3 7.767 0 15.583.065 23.349-.065 2.065-.065 2.802.586 2.802 3.583-.098 25.864-.049 51.664-.049 77.528 0 1.042-.098 2.085-.148 3.062h-5.308V84.303h-23.644v147.629h28.854v6.515h-34.212v-38.242h-23.791v70.361h29.051v77.072h52.842v-69.971h-23.742v38.048h-5.014v-45.409h28.854v-70.427h-28.854v-6.645h25.757c3.244 0 3.244 0 3.244-4.17V6.841h-23.938v38.373h-5.309V6.84H209.402v108.865h52.793v-69.97h-23.791v38.047h-5.113V38.634h34.016V161.31h-92.363v-3.974c0-10.424-.049-20.848.049-31.272.049-2.736-.59-3.453-2.654-3.453-15.976.131-31.951.066-47.927.066h-2.408v31.858h28.805v7.036h-29.1v38.568H92.756v31.793h58.298v77.138h53.137v-38.374h5.113v38.439h23.742v-70.166h-52.99v38.373h-4.866v-45.214h63.459v77.332h28.756v6.385H116.842v-6.71h28.756v-70.492H87.546v-38.634h-58.25v-6.906h87.35v-77.332h58.347V38.634h5.161v115.575h82.09v-31.663h-58.2V6.841h-53.137v77.267H92.559v77.072H29.297V77.007h29.05V38.634h5.063v83.717h-5.112V84.238H34.605v69.906h52.99V77.137h58.003V6.906H92.854v31.663h28.806v6.645H87.497V6.776H5.308v31.597h28.903c.098 1.043.197 1.76.246 2.476.098 4.495.098 4.495-3.195 4.56H5.357v186.458h58.25v38.569h55.005c.639 0 1.376-.196 1.966.065.492.195 1.18.912 1.229 1.498.147 1.759.049 3.584.049 5.668H92.609v38.178H29.395v-45.279c.786-.065 1.327-.13 1.917-.13 3.146-.065 3.146 0 3.146 4.3v30.946c0 1.107.098 2.28.147 3.322h52.793v-31.662h-29.1v-38.439H5.358v108.735H291.54c-.147-23.389-.147-46.452-.147-70.166z" fill="#6F788C"/></svg>