<svg width="355" height="355" fill="none" xmlns="http://www.w3.org/2000/svg"><path d="M63.106 196.426H31.66V158.94h6.192v31.477h63.167v69.603H95.01v-63.503H69.664v88.971h31.507v31.599h25.469v-31.599h63.625v-25.315H126.67V133.075H69.664v25.682h31.355v5.826h-37.76v-31.508H6.009v120.631h25.498v-31.415h6.223v37.76H5.978v88.727h57.19V317.27h6.344v31.477h184.133V285.58h6.284v63.228h63.32V355H.061C0 236.718 0 118.404 0 .03h5.795v63.29H37.7v6.222H5.98v57.159h215.946V69.664h-63.137v-6.222h63.167v-31.66h5.948v63.29h31.995v31.69h63.29v6.191h-31.416v89.155h31.416v37.912h-6.162v-31.873h-31.69v-95.133h-31.63v-31.629h-25.773v31.568h-94.98v120.845h63.107v38.004h-63.198v31.569H94.919v-31.447H37.882v31.538c-2.043 0-3.904.061-5.765-.061-.244 0-.58-.915-.61-1.403-.03-6.039-.03-12.109-.03-18.148v-18.301h31.568c.061-29.768.061-59.324.061-89.123z" fill="#6F788C"/><path d="M260.02 63.411h31.538V94.98h25.316V37.913h-31.447V31.75h37.761v69.359h-37.822V69.634h-31.69V6.009H101.232v31.69h-6.344V6.01H37.943V31.6h31.538v63.35h57.006V69.603H95.01v-6.192h31.538v-31.69h69.542v6.13h-63.137V94.98h63.107v6.1H31.66v-5.978h31.446v-57.19H31.63V0h323.218v355h-6.13v-63.076h-57.006v25.163h31.446v6.284h-37.791v-63.198h-31.69v-63.717h-63.228v-5.917h63.045v-25.773h-88.91v57.311h63.198v101.324h-69.054v-6.161h63.106v-89.063h-63.106V158.94h101.141v94.827h31.66v31.63h56.975V164.766H323.34v31.477h-6.283v-37.455h31.446V6.008h-88.544c.061 19.125.061 38.157.061 57.403z" fill="#6F788C"/></svg>