<svg width="355" height="355" fill="none" xmlns="http://www.w3.org/2000/svg"><path d="M354.756 355h-6.13v-31.533h-31.532v-6.251h31.41V37.906h-94.719v-6.252h94.78V6.07H132.931v57.27h31.441v37.785h-37.663v-6.008h31.838V69.622h-31.899V6.069H69.622v25.555h31.532v127.045h94.903v5.947h-94.811v63.461H69.652v25.555h56.905v-63.034h69.591v31.38h25.708v-88.956H126.74v-6.191h63.522v-63.4h31.624V37.998H158.73v-6.16h69.103V63.37h95.299v133.053H291.63v31.624h-6.221v-37.51h31.441v-57.484h-31.411v-6.161h31.441V69.744H196.301v56.996h31.502v101.276h-37.449v-31.502H132.9v63.553H69.56v31.746H37.968v25.342h63.065v6.251H31.685v-37.845h31.441v-57.392H31.655v-5.978H94.81v-89.169H63.339v-6.191h31.502V37.937H63.248V6.007H31.655V.092h323.132c-.031 118.232-.031 236.525-.031 354.909z" fill="#6F788C"/><path d="M.061 0h5.733v31.654h31.96V63.31h31.593v37.937h-31.44v57.514h31.47v37.48H31.656v-5.703h31.44v-25.799h-31.44V95.147h31.41V69.56H31.533V37.998H5.915v215.787h31.777v6.221H5.916v88.712h120.519v-56.966H94.933v-6.282h63.614v-63.248h5.886v31.441h89.047V101.246H222.1v-6.038h69.347v5.977h-31.471v57.545h31.471v5.855h-31.502v89.078h56.966v-31.38h6.16v69.438h-31.502v31.594h-6.16V285.47h31.41v-25.281h-88.925v31.441h-37.51v-6.16h31.441v-25.312h-57.331v31.563h-31.655v57.027H253.48v-25.311h-94.842v-6.282h94.933v-31.594h6.191v63.187h63.279v6.221H0C.061 236.707.061 118.415.061 0z" fill="#6F788C"/></svg>