<svg width="355" height="355" fill="none" xmlns="http://www.w3.org/2000/svg"><path d="M164.494 260.128v63.248H69.622v25.311h120.671V285.5h5.825v63.248h127.045v6.191H.03C0 236.646 0 118.354 0 0h5.794v63.309h32.051v31.746h31.563v164.921h-6.19v-95.299H31.623v-5.886h31.502v-57.454H31.594V69.683H5.947v57.087h31.807v6.1H6.008v215.817h57.179v-31.502h95.329v-57.087h-31.807v-6.252h31.777V132.992h-31.777V63.401h31.838V31.806h37.571v31.472h57.423V31.806h6.282V63.34h31.685v31.715h31.655V196.27h-6.191v-63.187h-56.996v31.472h-6.344v-31.472H196.27v31.472h-5.825V95.207h5.764v31.502h57.362V95.238h6.313v31.502h56.966v-25.342h-31.533V69.744h-57.423v31.441h-5.916V69.652h-31.655V37.998h-1.738c-7.471 0-14.943.03-22.414-.03-1.403 0-1.647.487-1.647 1.737.031 9.302-.03 18.603-.03 27.904v1.982h-31.502v57.088h25.616V95.207h5.947v158.486h57.484v-31.41h5.886v94.811h31.898v6.252h-37.784v-63.157c-19.304-.061-38.303-.061-57.545-.061z" fill="#6F788C"/><path d="M63.248 37.906H31.655V.061h323.101V355h-6.099v-63.157h-31.594V285.5h31.441v-57.331h-63.217v-31.655h-25.342v88.895h25.25v-31.441h37.907v6.069h-31.441v57.118h31.441v6.191h-37.785v-31.442h-31.685v-95.39h-57.453v31.563h-5.764v-37.479h31.502v-31.624h5.886v31.441h57.392v-31.411h6.344v63.126h56.965v-216h-56.813v25.646h31.472v37.815h-6.13V38.12h-31.655V6.22h-57.423v31.655h-5.947V6.16H37.968v25.647H69.53v31.624h25.373V31.929h37.784v6.069h-31.38V222.16h25.28v-63.096h6.1v69.134h-31.38v57.393h31.38v6.312h-94.72v31.563h-6.282V190.781h6.16V285.5h56.996V69.774H63.31c-.061-10.795-.061-21.164-.061-31.868z" fill="#6F788C"/></svg>