<svg width="355" height="355" fill="none" xmlns="http://www.w3.org/2000/svg"><path d="M285.36 323.337v-31.54h-63.325v-31.632h-31.663v-32.06h-31.723v-31.693H94.957v-63.447H63.264v-6.192h31.54V69.518H31.603v-6.132h31.48V5.918h-31.45V0h323.215v355h-6.161v-63.234h-31.571v-69.548h6.161v63.081h25.318V101.272h-56.889v63.203H253.82v-5.765h31.388v-57.53h-31.51V69.548h-31.602V37.794h-31.632v-6.192h37.428v31.54h57.468v-31.51h37.886v6.131h-31.51v31.694h-31.663v25.44h88.582v-25.38h-31.449v-6.222h31.449V5.918h-88.612V37.64h-6.284V5.918H132.904v126.864h-6.223V37.855H95.079V31.57h31.541V5.948H69.7v57.286h31.511V190.22h89.192v-63.447h5.826v69.426H164.75v25.775h95.201v37.916h-6.131v-31.815h-57.408v25.501h31.541v31.662h57.377v-88.917h-63.173V101.18h-31.754V69.517h-25.714v94.897h-37.886v-5.796h31.846V31.632h5.917v31.54h31.663v31.725h31.724v31.662h31.937v6.192h-31.754v57.438h88.918v-63.447h6.222v69.457h-31.449v120.763h31.449v6.284c-12.659.091-25.165.091-37.916.091z" fill="#6F788C"/><path d="M69.365 94.988v6.192H37.946v57.53h31.51v63.386h63.326v31.602h31.693v31.723h31.693v31.663h63.63v6.223h-69.456v-31.48h-57.53v31.541H33.218c-.945 0-1.769.152-1.738-1.342.06-11.805.03-23.58.03-35.384 0-.336.061-.702.092-1.221h31.54V253.82h6.162v37.824H37.885v25.349h88.644v-31.572h31.998v-25.378H126.62v-31.968h-25.44v63.478h-6.223v-63.509H31.632v-37.55h6.131v31.419h25.349v-57.377H31.51V101.15H5.948v152.487h31.785v6.222H5.948v88.735h152.67v-31.54h5.857v31.601h158.74v6.131H.031C0 236.677 0 118.384 0 0h5.765v31.571h31.937v6.223H5.948v57.225c21.078-.031 42.187-.031 63.417-.031z" fill="#6F788C"/></svg>