<svg width="355" height="354" fill="none" xmlns="http://www.w3.org/2000/svg"><path d="M0 0h355v354H0V0zm164.377 223.936v79.502h26.591v-43.041h4.884v50.024H95.163v-86.217H68.474v86.15H31.721v-6.849h31.573v-79.771H31.721V43.511h5.23v86.217h58.41V86.687h63.442V50.495h-31.475V43.51h36.951v43.377H196v43.243h31.672v7.252h-31.771v42.907c-.592.134-.838.269-1.085.269-11.347 0-22.693 0-34.04.067-1.875 0-1.924-1.276-1.875-3.156.05-10.878 0-21.689 0-32.566v-7.387h-26.639v129.729h-5.131v-86.754H63.689v-7.051h63.59v-43.108h37v43.108h26.393V94.006h-90.131v43.444H37.049v79.637h63.59v86.485H159v-86.754h63.738v-43.31h31.623V93.805H222.59V50.427h-31.819V7.388h-90.23v43.376H68.573v42.84h-4.785v-50.36h31.375V7.453H5.18v252.944h31.622v7.252H5.23v79.099h217.559v-86.485h31.819v-43.042h5.328v43.243h31.524v7.118h-63.294v79.233h121.803V180.559h-31.573v-50.092h5.229v43.041h26.443V7.453H196.345V43.58h31.721v43.444h31.968v86.485h26.591v-86.62h31.573V50.696h-63.344V43.78h68.622v50.226h-31.622v123.215h31.573v93.402h-68.622v-6.849h63.294v-79.771h-31.573c0-13.362-.049-26.456.049-39.55.05-2.887-.444-3.827-2.713-3.827-17.661.134-35.372.067-53.033.067-.888 0-1.776.134-2.911.202v43.242c-21.361-.201-42.327-.201-63.541-.201z" fill="#6F788C"/></svg>