<svg width="355" height="355" fill="none" xmlns="http://www.w3.org/2000/svg"><path d="M355 0v355H0V0h355zM250.154 56.933v240.995h64.874v-49.366h5.04v49.435h29.648V206.14h-64.581v49.435h-5.137V99.217h35.03V49.85h4.746v106.3h-4.844v-49.296h-29.648v91.649h64.385V7.499H180.24v191.42h34.737v6.735h-40.119v-49.018H75.344v141.639h34.542v6.804H69.865v-99.216H35.128v-56.656h5.088v49.296h29.502V56.725h-34.59v-6.943h40.07v98.869h64.728v-98.87h5.235v98.801h29.648V7.429h-64.874v98.8h-5.04V7.499H5.333v91.787h34.54v7.429H5.334v240.717H35.08v-98.87h5.04v98.87h134.837v-49.018h39.923v7.082h-34.737v42.005H349.57v-42.283H244.821v-49.226h-99.758v49.087h-5.284V206.14h-29.796v49.435h-4.843v-56.656h39.972v49.157h99.611V57.072h-29.649v93.176c0 6.735 0 6.735-4.745 5.902-.147 0-.245-.278-.343-.347V49.851h74.904v7.013c-11.693.07-23.141.07-34.736.07z" fill="#6F788C"/></svg>