<svg width="354" height="353" fill="none" xmlns="http://www.w3.org/2000/svg"><path d="M191.692 260.531v-23.127h40.193v46.216h6.192v-23.089h23.192v-6.213h-23.192V231.23h-46.385v-63.206h40.193v23.127h6.192v-23.127h46.346v-29.302h-6.192v23.127H162.308v6.175H185.5v40.079h-46.385v6.175h23.193v23.126h6.192v-23.126h17v40.04h-23.192v46.254h-40.193v-23.127h-6.192v23.127H52.577V283.62h23.192v-23.089h16.962v23.089h6.23v-23.089h23.154v-23.127h17v46.216h6.193v-52.39h-23.193v-46.254h-6.192v23.127H98.961v-40.079h40.154v23.127H168.5v-6.175h-23.192V121.77h46.384V69.38H185.5v46.216h-17V46.254h-23.192V6.174H168.5V0H0v353h168.5v-6.175H75.77v-16.952h69.538v-6.175H69.577v23.127H6.192v-16.952h23.193v-6.175H6.192v-63.167h17v23.089h6.193v-23.089h23.192v-23.127h46.385v-6.174H46.385v23.088H6.192V144.897h23.193v-6.175H6.192V75.555h23.193V69.38H6.192V29.302h23.193v-6.175H6.192V6.175h63.385v23.127h6.192V6.175h16.962V69.38H52.577V52.428h23.192v-6.174H52.577V23.127h-6.192v23.127H23.192v6.174h23.193v63.168h-17V92.469h-6.193v29.301h23.193v63.206h-17v-23.127h-6.193v29.302H75.77v-6.175H52.577v-40.079h69.538v-6.175H52.577V75.555H92.73v23.127h6.23V6.175h40.154v92.507h6.193V52.428h17v63.168h-40.193v-92.47h-6.192v92.47H75.769V92.469h-6.192v29.301h69.538v40.079H69.577v6.175H92.73v40.079H23.192v29.301h6.193v-23.126h86.538v40.04H69.577v23.127H46.385v23.127H23.192v6.174h23.193v23.127h6.192v-23.127h109.731v23.127h6.192v-69.342h23.192z" fill="#6F788C"/><path d="M185.5 0v6.175h23.192v23.127h69.539V69.38h-46.346v6.175h69.538v23.127h23.192v109.421h-46.384v6.175h52.577V69.38h-6.193v23.09h-17V29.302h23.193v-6.175h-29.385V69.38h-17V23.127h-69.538V6.175h132.923v40.079h-23.193v6.174h23.193v201.89h-23.193v46.254h-23.192v23.126h-69.538v6.175h75.73v-23.127h23.193v-46.215h17v86.294h-17v-23.127h-6.193v23.127H191.692V283.62h17v46.253h6.193v-23.127h46.384V283.62h16.962v23.126h6.192v-69.342h17v46.216h6.192v-46.216h23.193v-6.174h-69.539v-40.079h46.346v-75.555h-52.577v23.126h-40.153v-40.04h17v23.088h6.192V98.682h46.346v-6.213h-69.538v-40.04h46.384v-6.175h-69.577V23.127h-29.384v6.175H185.5v23.126h23.192v86.294h-46.384v6.175h98.961V121.77h40.154v63.206h-46.385v23.127h-40.153v-23.127h-6.193v29.302h46.346v23.126h23.193v40.041h-23.193v23.127h-40.153v-46.254h-6.193v23.127H185.5V353H354V0H185.5z" fill="#6F788C"/></svg>