<svg width="355" height="355" fill="none" xmlns="http://www.w3.org/2000/svg"><path d="M355 0v355H0V0h355zM164.112 268.254v43.036h-5.03V173.829h63.268v-80.01h-31.314V43.574h4.931c0 13.268.099 26.267-.049 39.265-.049 3.233.543 4.176 2.959 4.176 28.207-.135 56.364-.068 84.571-.068.887 0 1.726-.134 2.86-.202V43.508h5.128v43.508h31.659v50.445h-5.129V94.155h-26.431v79.607h58.238V50.647h-31.659v-7.341h31.61v-36.1h-90.291V50.31h-36.787v-7.139h31.51V7.274H164.21v123.115h31.462v7.341h-63.663v173.493h-5.03V180.901h-95.32v-7.072h31.806V87.218h5.03v86.611h58.632V43.709h5.08v86.545h26.382V7.341H4.931v122.846h26.58V43.71h68.692v93.751h-5.227V50.984H36.639v86.746H4.981v123.452H36.59v7.072H4.93v79.54h89.946V224.948h-26.53v86.409H31.511v-6.667h31.658v-80.012H31.56v-6.869h68.89v130.052h90.143v-42.902h36.837v6.735h-31.56v36.167h153.608V224.678H190.74v-7.071h63.515v-86.814h5.178v86.612h90.093c.05-1.078.099-1.953.099-2.829 0-9.968-.049-20.003.049-29.971.05-2.896-.739-3.502-2.712-3.502-19.33.068-38.612.068-57.942.068h-3.156V94.29h-58.386v87.015h-63.465v79.81h95.42v43.305h58.139v-36.301h-31.56v-6.937h36.787v50.108h-68.84v-42.969c-29.736-.067-59.57-.067-89.847-.067z" fill="#6F788C"/></svg>