<svg width="355" height="355" fill="none" xmlns="http://www.w3.org/2000/svg"><path d="M323.249 348.717v6.252H0V0h5.856v31.568H37.73v6.253H5.978v88.849h152.596V95.071h63.351v-63.32h5.947V94.95h57.433V31.69h6.223v164.583H260.02v89.124h31.508v6.253h-69.512v-63.503h-57.433v31.904h-31.752v31.66h-31.629v31.721h-1.708c-22.113 0-44.226-.031-66.34.03-1.372 0-1.769-.396-1.677-1.708.122-1.464.03-2.928.03-4.575h31.569v-89.032H31.629v-69.268h6.162v31.416h57.067v-31.416H132.8v31.416h57.433v-31.507h31.721v-31.935h37.882v6.039h-31.904v63.351h-5.917v-31.508h-25.743v31.569h-63.381v31.629H95.01v-5.825h31.508v-57.373h-25.286v31.538H37.974v25.743H69.48v94.98h25.407v-31.538h31.63v-25.316H95.01v-6.405h63.595V222.23h69.298v63.075h25.742v-94.888h31.569v-25.804h-31.416v-5.886h31.446v-57.434c-.579-.03-1.098-.061-1.586-.061-36.052-.03-72.073-.061-108.125-.061-3.264 0-6.497.061-9.761.061-.762 0-1.25.122-1.22 1.068.031 7.93.031 15.86.031 23.791 0 .152.091.274.183.61h31.355v6.13h-31.508v31.63h-5.917v-31.447H69.542v31.477H63.29v-31.477H5.948v152.291h25.498V253.89h6.284v37.79H5.978v57.037H323.25z" fill="#6F788C"/><path d="M63.076 5.917h-1.434c-9.455-.03-18.91-.091-28.366-.06-1.372 0-1.921-.336-1.769-1.77.122-1.311.03-2.623.03-4.056h323.249V355h-6.1V5.978h-25.315v221.986h-31.63v25.742h31.416v69.604H190.326v-31.447h-25.804v31.477H126.67v-6.131h31.843v-31.69h31.691V253.89h5.917v63.106h120.753v-56.854h-31.447v-38.004h31.447V6.008h-56.976V69.42h-6.253V6.01h-89.123v31.72H94.98v-6.07h63.503V5.98H69.481v63.563H37.882V94.98h88.575V69.634H94.98v-6.192h95.254v-31.69h5.765v37.79h-63.168v31.568H31.568V63.472h31.447c.06-19.246.06-38.278.06-57.555z" fill="#6F788C"/></svg>