<svg width="355" height="355" fill="none" xmlns="http://www.w3.org/2000/svg"><path d="M323.332 348.808V355H0V0h5.858v31.568h63.671v63.35h57.082V63.32h32.004v-31.6h69.255v6.07h-31.485v57.19h31.485v101.263h-5.797v-31.508h-57.356v88.971h31.546v31.721h63.641v6.253h-63.55v31.63h-37.556v-37.73h5.705v31.416h25.75v-56.915H31.638v-6.283h126.916v-57.403H31.638v-6.008h127.008V95.102h5.888v63.472h57.417v-57.281h-25.658v31.508h-5.888V37.943h-25.81v31.538h-31.638v31.69h-31.668v31.63h-6.285v-31.416H37.892v31.446h-6.254V63.472h6.193V94.95h25.322V37.974H5.98v120.692h57.234v-31.752h6.346v31.782h57.082v-31.782h6.132v37.699H6.01v57.495h126.764v5.978H5.98v89.062h63.458v6.375H6.01v25.255h120.601v-56.823h-25.322v31.446h-6.285v-31.568H31.7v-6.192h101.258v63.228c63.489-.061 126.856-.061 190.375-.061z" fill="#6F788C"/><path d="M354.908 355h-6.132v-63.198H317.2v-6.253h31.454v-57.433h-63.092v-37.699h31.424v-57.433h-31.393v-6.1h37.708v69.45h-31.485v25.682h56.869V6.009h-56.93v31.66h-6.284V5.948h-25.323v88.94h56.869V69.512h-31.455v-6.223h31.485V31.721h6.254v69.481h-63.183v57.494h31.515v5.887h-31.546v63.411h-32.003v25.682h95.187v6.375h-31.455v57.006h31.455v6.253H222.226v-6.192h63.092v-56.976h-63.214v-32.056h-31.577V190.57h5.705v31.355h57.418V69.573h-31.363V63.32h31.393V5.978H101.35v25.59h31.424v6.223H101.32V69.39h-6.285V5.916H31.729V0H355c-.092 118.282-.092 236.565-.092 355z" fill="#6F788C"/></svg>