<svg width="355" height="355" fill="none" xmlns="http://www.w3.org/2000/svg"><path d="M291.6 285.409h31.563v6.252h-31.441v31.593h-6.344v-63.096h-89.077v56.814h31.471v6.282h-37.449v-63.187h-31.624v-63.766H31.654V63.431h6.191v95.146h88.742V126.77h31.99V37.937H94.963V5.917H31.716V0h323.132v354.939h-6.13v-94.841h-31.624v-31.99H285.5v-5.856h37.785v31.35h25.311v-88.895H285.5v-37.845h6.13v31.776h56.996V69.591h-31.563V37.937H285.5v-6.191h37.785v31.502h25.311V6.038H227.955v95.116h-37.449V31.777h5.673v63.186h25.707V6.038H101.307v25.556h63.217v127.075h31.716v31.746h31.624v5.855h-37.48v-31.563h-31.685v-31.685H132.9v31.594H37.998v25.707h126.526v63.309h89.047v-25.585h-63.095V222.1h63.065v-89.108h-25.586v31.502h-5.916v-31.563h-31.502v-6.191h63.095V95.025h31.655V69.5h-31.441V31.685h6.099v31.533h31.685v31.715h31.655v37.784h-6.191v-31.471h-56.966v89.077h63.157v5.856h-63.157v57.484h31.563c-.091 10.704-.091 21.103-.091 31.746z" fill="#6F788C"/><path d="M5.825 31.624h63.614v31.685h63.217v37.906h-31.471v31.594H63.278V95.207h6.16v31.441h25.403V95.116h31.625V69.591H63.218V37.967H5.947V222.04h126.801v63.339h31.563v37.937h-5.703v-31.502H31.624v-37.906h37.723v6.16h-31.41v25.281h88.529V228.17h-25.281v31.807h-6.282V228.17H5.916v120.549h120.55V323.56c-.519-.031-.946-.061-1.403-.061-30.557-.031-61.083-.031-91.64-.061-1.952 0-1.952 0-1.952-2.013v-4.178h101.246v31.533h120.702v-56.936h-31.35v-6.251h37.693v63.126h57.057v-31.441h6.252V355H0C.061 236.646.061 118.354.061 0h5.764v31.624z" fill="#6F788C"/></svg>