<svg width="20" height="19" fill="none" xmlns="http://www.w3.org/2000/svg"><path d="M6.666 6c3.816 0 6.667-1.584 6.667-3s-2.851-3-6.667-3C2.851 0 0 1.584 0 3s2.85 3 6.666 3zm0 12c.557 0 1.093-.034 1.603-.096a8.117 8.117 0 01-1.051-1.915c-.183.007-.367.011-.552.011-2.18 0-4.244-.454-5.813-1.277a7.466 7.466 0 01-.853-.52V15c0 1.416 2.85 3 6.666 3zm0-4h.059a8.452 8.452 0 010-2h-.059c-2.18 0-4.244-.454-5.813-1.277a7.476 7.476 0 01-.853-.52V11c0 1.416 2.85 3 6.666 3zm0-4c.19 0 .376-.004.56-.012.295-.762.7-1.465 1.192-2.089-.57.066-1.156.101-1.752.101-2.18 0-4.244-.454-5.813-1.277A7.475 7.475 0 010 6.203V7c0 1.416 2.85 3 6.666 3zm2.858-.316a6.137 6.137 0 00-.852 2.185 6.29 6.29 0 00-.043 1.986c.093.687.298 1.336.595 1.928.31.62.722 1.178 1.21 1.647 1.017.975 2.37 1.57 3.851 1.57C17.436 19 20 16.308 20 13c0-3.31-2.564-6.002-5.715-6.002-.326 0-.645.03-.956.085-1.584.28-2.949 1.249-3.805 2.601z" fill="#68E1FC"/></svg>