<svg width="20" height="20" fill="none" xmlns="http://www.w3.org/2000/svg"><path d="M20 10c0-5.523-4.477-10-10-10S0 4.477 0 10s4.477 10 10 10 10-4.477 10-10z" fill="#425F66"/><path d="M6.55 7.66c0-.436.14-.88.42-1.328.281-.448.69-.82 1.229-1.114.538-.295 1.166-.442 1.884-.442.667 0 1.256.123 1.766.37.511.245.906.58 1.184 1.003.274.409.42.89.418 1.38 0 .392-.08.734-.239 1.029-.149.281-.34.538-.566.762-.218.214-.61.574-1.176 1.08a4.8 4.8 0 00-.376.376c-.082.09-.153.19-.21.297a1.44 1.44 0 00-.108.27c-.025.09-.063.247-.114.472-.087.479-.36.718-.82.718a.838.838 0 01-.605-.235c-.163-.156-.245-.389-.245-.697 0-.386.06-.72.18-1.004a2.55 2.55 0 01.476-.745c.254-.268.521-.523.8-.763.295-.258.508-.452.639-.583.13-.13.242-.278.331-.438.09-.16.136-.341.135-.525a1.22 1.22 0 00-.41-.931c-.275-.253-.628-.38-1.06-.38-.506 0-.879.128-1.118.383-.24.255-.442.631-.607 1.128-.157.52-.454.78-.89.78a.875.875 0 01-.653-.272c-.177-.182-.265-.379-.265-.59zm3.367 7.564a1.086 1.086 0 01-.735-.273c-.21-.181-.314-.436-.314-.762a.983.983 0 01.304-.732 1.026 1.026 0 01.745-.297 1.014 1.014 0 011.028 1.029c0 .322-.103.575-.31.759-.196.18-.452.278-.718.276z" fill="#fff"/></svg>