<svg width="81" height="29" fill="none" xmlns="http://www.w3.org/2000/svg"><path d="M6.45 22.895c-.947 1.09-2.603 1.2-3.485.054a14.302 14.302 0 01-2.689-5.936 14.352 14.352 0 011.119-8.981A14.125 14.125 0 017.644 1.56 13.807 13.807 0 0113.893 0c1.43-.012 2.366 1.374 2.119 2.804-.248 1.43-1.614 2.335-3.033 2.51a8.818 8.818 0 00-2.99.916 8.922 8.922 0 00-3.937 4.081 9.095 9.095 0 00-.71 5.664 8.936 8.936 0 001.151 2.946c.764 1.244.903 2.892-.043 3.973z" fill="url(#paint0_linear_2241_2677)"/><path d="M10.838 3.077c-.398-1.385.398-2.87 1.818-3.011a13.974 13.974 0 014.097.207 13.89 13.89 0 016.024 2.848 14.306 14.306 0 014.054 5.347 14.478 14.478 0 011.173 6.635 14.339 14.339 0 01-1.98 6.438 14.24 14.24 0 01-4.678 4.791 13.92 13.92 0 01-6.324 2.063 13.977 13.977 0 01-4.098-.317c-1.388-.316-2-1.888-1.43-3.22.57-1.33 2.097-1.898 3.517-1.734a8.291 8.291 0 001.645.033 8.686 8.686 0 003.99-1.3 8.938 8.938 0 002.947-3.022 9.062 9.062 0 00.506-8.25 9.01 9.01 0 00-2.56-3.372 8.885 8.885 0 00-3.797-1.8 9.14 9.14 0 00-1.635-.175c-1.43-.01-2.871-.764-3.27-2.16z" fill="url(#paint1_linear_2241_2677)"/><g opacity=".2"><path d="M7.654 21.503c-.796.906-2.184 1.004-2.915.044a12.085 12.085 0 01-2.42-6.308 12.059 12.059 0 012.56-8.468c1.893-2.379 4.614-3.94 7.593-4.332a11.48 11.48 0 016.583 1.07c1.076.523 1.28 1.92.58 2.89-.71.983-2.064 1.158-3.194.754a7.362 7.362 0 00-3.41-.36 7.326 7.326 0 00-4.786 2.739 7.575 7.575 0 00-1.613 5.336 7.68 7.68 0 001.076 3.328c.623 1.026.742 2.401-.054 3.307z" fill="url(#paint2_linear_2241_2677)"/><path d="M5.107 10.961c-1.129-.415-1.731-1.68-1.118-2.739A11.792 11.792 0 018.528 3.77a11.642 11.642 0 018.303-1.124 11.778 11.778 0 016.927 4.78 12.025 12.025 0 012.033 8.238 11.983 11.983 0 01-3.894 7.52 11.708 11.708 0 01-7.84 2.978 11.669 11.669 0 01-7.82-3.077 11.864 11.864 0 01-3.367-5.424c-.344-1.167.538-2.259 1.732-2.39 1.194-.13 2.226.775 2.7 1.888a7.435 7.435 0 001.86 2.652 7.304 7.304 0 004.926 1.943 7.334 7.334 0 004.948-1.877 7.613 7.613 0 002.463-4.747 7.581 7.581 0 00-1.28-5.195 7.42 7.42 0 00-4.367-3.012 7.3 7.3 0 00-5.238.71 7.388 7.388 0 00-2.441 2.139c-.72.97-1.936 1.604-3.066 1.19z" fill="url(#paint3_linear_2241_2677)"/></g><path d="M80.815 20.263h-2.902l-1.57-2.282-1.569 2.282h-2.902l3.02-4.39-2.919-4.252h2.903l1.468 2.143 1.468-2.143h2.902l-2.92 4.252 3.021 4.39zm-15.031-3.284c.292.807.967 1.21 2.025 1.21.686 0 1.226-.22 1.62-.657l2.025 1.193c-.833 1.186-2.06 1.78-3.679 1.78-1.417 0-2.553-.432-3.408-1.296-.844-.865-1.266-1.953-1.266-3.267 0-1.302.416-2.385 1.249-3.25.843-.875 1.923-1.313 3.24-1.313 1.226 0 2.244.438 3.054 1.314.82.864 1.231 1.947 1.231 3.249 0 .369-.033.714-.1 1.037h-5.991zm-.05-1.936h3.627c-.247-.91-.844-1.365-1.788-1.365-.98 0-1.592.455-1.84 1.365zm-7.147-3.663c.967 0 1.743.327 2.328.984.585.645.878 1.51.878 2.593v5.306h-2.531V15.18c0-.437-.107-.783-.32-1.036-.203-.254-.502-.38-.895-.38-.416 0-.743.143-.979.431-.225.288-.337.686-.337 1.193v4.874H54.2V15.18c0-.437-.107-.783-.32-1.036-.203-.254-.502-.38-.895-.38-.416 0-.743.143-.979.431-.225.288-.337.686-.337 1.193v4.874h-2.531V11.62h2.53v.795c.462-.691 1.215-1.037 2.262-1.037.978 0 1.715.38 2.21 1.14.518-.76 1.333-1.14 2.447-1.14zm-12.674 7.31c-1.192 1.21-2.643 1.815-4.353 1.815s-3.161-.605-4.353-1.815c-1.193-1.21-1.789-2.702-1.789-4.476 0-1.775.596-3.267 1.789-4.477 1.192-1.21 2.643-1.815 4.353-1.815s3.16.605 4.353 1.815c1.193 1.21 1.789 2.702 1.789 4.477 0 1.774-.596 3.266-1.789 4.476zm-6.817-1.884c.664.668 1.485 1.003 2.464 1.003.979 0 1.794-.335 2.447-1.003.663-.668.995-1.532.995-2.592s-.332-1.925-.995-2.593c-.653-.668-1.468-1.002-2.447-1.002-.979 0-1.8.334-2.464 1.002-.652.668-.978 1.533-.978 2.593s.326 1.924.978 2.592z" fill="#E1E7EB"/><defs><linearGradient id="paint0_linear_2241_2677" x1="8.031" y1=".001" x2="8.031" y2="28.424" gradientUnits="userSpaceOnUse"><stop stop-color="#68E1FC"/><stop offset="1" stop-color="#DBFFFF"/></linearGradient><linearGradient id="paint1_linear_2241_2677" x1="14.124" y1="28.945" x2="21.571" y2="1.553" gradientUnits="userSpaceOnUse"><stop stop-color="#68E1FC"/><stop offset="1" stop-color="#DBFFFF"/></linearGradient><linearGradient id="paint2_linear_2241_2677" x1="11.162" y1="2.338" x2="11.162" y2="26.156" gradientUnits="userSpaceOnUse"><stop stop-color="#DBFFFF"/><stop offset="1" stop-color="#68E1FC"/></linearGradient><linearGradient id="paint3_linear_2241_2677" x1="11.253" y1="25.804" x2="17.499" y2="2.828" gradientUnits="userSpaceOnUse"><stop stop-color="#DBFFFF"/><stop offset="1" stop-color="#68E1FC"/></linearGradient></defs></svg>