<svg width="19" height="23" fill="none" xmlns="http://www.w3.org/2000/svg"><path d="M15.632 7.752L17.1 4.089c.345-.937.26-1.96-.346-2.811C16.15.426 15.287 0 14.25 0h-9.5C3.714 0 2.764.511 2.245 1.278c-.604.852-.69 1.874-.345 2.81l1.468 3.664A9.192 9.192 0 000 14.907c0 3.237 1.727 6.39 4.577 8.008.087.085.173.085.26.085h9.327c.086 0 .172 0 .259-.085C17.273 21.21 19 18.145 19 14.907a9.192 9.192 0 00-3.368-7.155zm-2.764 5.878l-3.282 5.45c-.086.17-.345.256-.518.17-.173-.084-.345-.255-.345-.425v-3.408h-2.16a.476.476 0 01-.431-.255c-.087-.17-.087-.34 0-.426l3.282-5.452c.086-.17.345-.255.518-.17.172.085.345.255.345.426v3.407h2.16c.172 0 .345.085.431.256.086.17.086.34 0 .426zm1.814-10.478l-1.296 3.237c-1.209-.511-2.504-.852-3.886-.852-1.382 0-2.677.256-3.886.852L4.318 3.152c-.086-.17 0-.256 0-.426a.664.664 0 01.432-.17h9.586c.173 0 .26.085.346.17.086.17.086.255 0 .426z" fill="#4B6D74"/></svg>