<svg width="21" height="20" fill="none" xmlns="http://www.w3.org/2000/svg"><path d="M4.869 3.807l8.306-2.267-.44-.89a1.17 1.17 0 00-1.568-.528L3.732 3.807h1.137zm10.884-2.202c-.103 0-.206.015-.309.043l-7.91 2.16h9.712l-.365-1.34a1.168 1.168 0 00-1.128-.863zm2.712 3.021H1.172a1.168 1.168 0 00-1.13.863A1.21 1.21 0 000 5.796V18.83C0 19.476.524 20 1.17 20h17.292a1.17 1.17 0 001.17-1.17v-3.264H12.69a1.99 1.99 0 01-1.988-1.988v-2.602c0-.538.215-1.027.563-1.385a1.97 1.97 0 011.423-.602h6.944V5.796a1.167 1.167 0 00-1.167-1.17z" fill="#425F66"/><path d="M20.453 10.108a1.167 1.167 0 00-.788-.307H12.69a1.17 1.17 0 00-1.17 1.17v2.604c0 .646.525 1.17 1.17 1.17h6.975c.133 0 .26-.023.379-.063a1.166 1.166 0 00.79-1.107v-2.604c0-.341-.147-.65-.38-.863zm-5.32 2.398a.585.585 0 01-.585.585h-.388a.585.585 0 01-.585-.585v-.388a.591.591 0 01.585-.585h.388c.323 0 .585.262.585.585v.388z" fill="#425F66"/></svg>