<svg width="69" height="49" fill="none" xmlns="http://www.w3.org/2000/svg"><path d="M.162 6.518C.162 3.18 2.888.471 6.248.471h46.257c3.36 0 6.086 2.71 6.086 6.047v26.608c0 3.338-2.727 6.047-6.086 6.047H6.248c-3.36 0-6.086-2.71-6.086-6.047V6.518zm14.607 1.21v-2.42h-4.87v2.42c0 .641-.256 1.257-.712 1.71a2.443 2.443 0 01-1.722.709H5.031v4.837h2.434a7.328 7.328 0 005.165-2.125 7.233 7.233 0 002.139-5.131zm24.346 12.094a9.644 9.644 0 00-2.853-6.842 9.77 9.77 0 00-6.886-2.833 9.77 9.77 0 00-6.886 2.833 9.644 9.644 0 00-2.852 6.842 9.644 9.644 0 002.852 6.841 9.77 9.77 0 006.886 2.834 9.77 9.77 0 006.886-2.834 9.644 9.644 0 002.852-6.841zm9.738-14.513h-4.87v2.419c0 1.924.77 3.77 2.14 5.13a7.328 7.328 0 005.164 2.126h2.435v-4.837h-2.435a2.443 2.443 0 01-1.721-.709 2.41 2.41 0 01-.713-1.71v-2.42zM14.769 31.916a7.23 7.23 0 00-2.14-5.13 7.328 7.328 0 00-5.164-2.126H5.031v4.837h2.434c.646 0 1.265.255 1.722.709.456.454.713 1.069.713 1.71v2.42h4.869v-2.42zm34.084 2.42v-2.42c0-.641.256-1.256.713-1.71a2.443 2.443 0 011.721-.709h2.435V24.66h-2.435a7.328 7.328 0 00-5.164 2.125 7.233 7.233 0 00-2.14 5.131v2.42h4.87zm-31.65 14.512a7.336 7.336 0 01-4.293-1.384 7.259 7.259 0 01-2.655-3.628c.677.116 1.368.175 2.08.175h40.17c2.905 0 5.692-1.147 7.746-3.189a10.85 10.85 0 003.21-7.696V10.558a7.298 7.298 0 013.529 2.653 7.224 7.224 0 011.34 4.192v15.723c0 2.064-.41 4.109-1.205 6.016a15.716 15.716 0 01-3.43 5.101 15.832 15.832 0 01-5.135 3.408 15.915 15.915 0 01-6.055 1.197H17.203z" fill="#77BE1D"/></svg>