<svg width="539" height="462" fill="none" xmlns="http://www.w3.org/2000/svg"><path d="M431.729 133.312l38.619-8.995s25.823-2.314 29.316 20.63c3.493 22.944 2.479 158.925 1.387 186.97-.361 9.245-.316 17.783.469 25.23 1.638 15.512-10.464 29.061-26.06 29.332l-71.898 1.243 28.167-254.41z" fill="#77BE1D"/><path d="M411.183 398.776s7.715-108.18 62.589-174.124c.716-.86 1.956-.645 2.334.413 5.978 16.705 39.588 124.13-64.923 173.711z" fill="#65B097"/><path d="M471.402 256.044c-.461 6.312-1.375 12.539-2.433 18.755a279.552 279.552 0 01-3.897 18.505 280.562 280.562 0 01-11.443 36.075c-2.342 5.867-4.827 11.683-7.604 17.358-1.348 2.859-2.852 5.642-4.299 8.453-1.532 2.767-3.026 5.551-4.685 8.246-6.424 10.886-13.947 21.145-22.535 30.378a.682.682 0 01-1.038-.878v-.008a238.322 238.322 0 0020.499-31.245c1.539-2.706 2.908-5.505 4.374-8.249 1.362-2.799 2.784-5.566 4.053-8.411.637-1.42 1.323-2.81 1.944-4.245l1.88-4.274c.617-1.43 1.195-2.876 1.794-4.313a171.036 171.036 0 001.732-4.338c1.157-2.889 2.239-5.812 3.326-8.732 1.039-2.937 2.077-5.876 3.049-8.839 2.002-5.903 3.78-11.883 5.496-17.884a403.464 403.464 0 004.649-18.144 329.038 329.038 0 003.779-18.35v-.02a.679.679 0 011.347.165l.012-.005z" fill="url(#paint0_linear_2171_2016)"/><path d="M417.983 386.934s56.569-95.153 118.114-96.641c.256-.005.509.047.742.153a1.708 1.708 0 01.942 1.137c.061.248.065.507.012.757-2.62 12.433-20.943 77.542-119.81 94.594z" fill="#97E8AD"/><path d="M523.062 305.386c-3.728 3.916-7.568 7.684-11.462 11.407-1.967 1.841-3.932 3.683-5.919 5.501a388.981 388.981 0 01-6.01 5.403 469.256 469.256 0 01-24.95 20.543c-4.241 3.325-8.635 6.448-12.969 9.647l-6.633 4.628c-1.107.767-2.207 1.546-3.328 2.295l-3.384 2.209c-8.943 6.019-18.288 11.406-27.7 16.655a.678.678 0 01-1.011-.505.679.679 0 01.337-.675l.016-.01 6.944-4.074 3.471-2.036c1.148-.696 2.275-1.427 3.412-2.138l6.823-4.272c2.248-1.463 4.463-2.975 6.705-4.452l3.349-2.233 3.297-2.314 6.589-4.629c4.308-3.201 8.672-6.325 12.886-9.651 4.272-3.25 8.448-6.623 12.627-9.992l6.189-5.148 6.117-5.24c2.037-1.749 4.029-3.546 6.047-5.317 2.019-1.77 3.978-3.605 5.952-5.417 3.939-3.637 7.855-7.33 11.616-11.132l.01-.01a.68.68 0 01.975.947l.004.01z" fill="#65B097"/><path d="M353.214 135.18s70.328 3.863 117.134-10.863c0 0-31.119-2.132-31.119 69.717 0 54.932 8.147 159.782 1.033 179.686-7.113 19.904-33.711 46.659-71.839 23.665-38.128-22.993-15.209-262.205-15.209-262.205z" fill="#77B627"/><path d="M334.519 27.462s77.588 8.457 87.583-4.695c0 0-7.952-23.669-31.563-22.093-23.612 1.575-56.02 26.788-56.02 26.788z" fill="#289F49"/><path d="M82.168 54.09c6.778 76.036 20.982 236.864 27.165 315.208a35.221 35.221 0 0032.861 32.384c62.281 3.997 202.442 11.753 256.237 4.537a35.796 35.796 0 01-19.968-32.401l2.855-351.553c.101-12.421 12.475-21.347 24.106-16.989 7.328 2.748 12.878 8.596 16.685 17.489C417.031 7.967 409.049-2.86 390.546.672c0 0-180.915 1.809-268.705 7.25C97.979 9.405 80.054 30.284 82.169 54.09z" fill="#A3E74C"/><path opacity=".53" d="M126.926 17.989l243.097-9.36c-10.026 74.226-5.786 225.389-1.969 374.362a23.4 23.4 0 0013.39 20.554s-162.143 1.87-231.812-3.073a35.112 35.112 0 01-32.221-29.836c-9.563-63.83-32.446-228.714-27.683-316.007 1.089-19.99 17.194-35.87 37.198-36.64z" fill="url(#paint1_linear_2171_2016)"/><path d="M123.71 133.123l2.837 27.233a10.081 10.081 0 009.644 9.032l15.854.609a10.078 10.078 0 007.383-2.813 10.083 10.083 0 003.089-7.272v-29.369a10.084 10.084 0 00-10.91-10.053l-18.688 1.536a10.08 10.08 0 00-8.83 7.125 10.068 10.068 0 00-.379 3.972zm55.749-8.392c26.386-.827 127.677-4.113 153.254-4.945a5.701 5.701 0 014.158 1.606 5.696 5.696 0 011.736 4.104 5.715 5.715 0 01-5.502 5.708l-153.155 5.687a5.717 5.717 0 01-5.879-4.969l-.096-.741a5.717 5.717 0 013.185-5.888 5.71 5.71 0 012.299-.562zm-1.658 35.897a2.429 2.429 0 002.149 1.186l105.156-2.285a2.433 2.433 0 002.382-2.43v-6.933c0-.327-.066-.651-.193-.951a2.442 2.442 0 00-1.37-1.32 2.447 2.447 0 00-.958-.158l-102.237 3.822c-4.554.17-7.262 5.16-4.929 9.069zm-54.091 48.069l2.837 27.228a10.08 10.08 0 009.644 9.035l15.854.607a10.078 10.078 0 007.383-2.813 10.083 10.083 0 003.089-7.272v-29.368a10.075 10.075 0 00-3.251-7.417 10.091 10.091 0 00-7.659-2.634l-18.688 1.536a10.08 10.08 0 00-8.83 7.125 10.072 10.072 0 00-.379 3.973zm55.75-8.393c26.386-.827 127.677-4.115 153.255-4.947a5.717 5.717 0 014.156 1.607 5.706 5.706 0 011.737 4.103c0 1.479-.574 2.9-1.599 3.965a5.718 5.718 0 01-3.903 1.745l-153.155 5.686a5.718 5.718 0 01-5.879-4.975l-.096-.74a5.712 5.712 0 015.484-6.444z" fill="#161119"/><path opacity=".78" d="M177.8 236.2a2.434 2.434 0 002.15 1.185l105.164-2.284a2.426 2.426 0 001.684-.731 2.422 2.422 0 00.693-1.7v-6.933a2.428 2.428 0 00-2.521-2.427l-102.232 3.822c-4.562.176-7.27 5.155-4.938 9.068z" fill="#fff"/><path d="M123.71 284.268l2.837 27.231a10.085 10.085 0 009.644 9.033l15.854.608a10.096 10.096 0 007.383-2.813 10.08 10.08 0 003.089-7.271v-29.36a10.084 10.084 0 00-10.91-10.053l-18.688 1.528a10.08 10.08 0 00-8.83 7.125 10.068 10.068 0 00-.379 3.972zm55.75-8.393c26.386-.826 127.677-4.113 153.255-4.944a5.698 5.698 0 014.157 1.605 5.706 5.706 0 011.736 4.105 5.715 5.715 0 01-5.502 5.708l-153.155 5.685a5.713 5.713 0 01-5.879-4.974l-.096-.741a5.709 5.709 0 011.314-4.437 5.714 5.714 0 014.17-2.007zm-1.66 35.899a2.431 2.431 0 002.15 1.183l105.164-2.284a2.431 2.431 0 002.377-2.429v-6.933a2.428 2.428 0 00-2.521-2.428l-102.232 3.822c-4.562.17-7.27 5.154-4.938 9.069z" fill="#161119"/><path d="M430.095 292.24c-.31 0-.606-.121-.827-.338a1.178 1.178 0 01-.355-.819c0-.036-.073-3.766-.432-16.543a1.183 1.183 0 011.149-1.246 1.194 1.194 0 01.857.334 1.178 1.178 0 01.36.846c.36 12.794.431 16.531.433 16.564a1.184 1.184 0 01-1.157 1.206l-.028-.004zm-.862-31.19a1.183 1.183 0 01-1.182-1.147c-.254-8.317-.651-17.512-1.071-27.247-.565-13.152-1.157-26.754-1.463-39.857-.817-34.579 4.887-47.852 9.816-52.901 2.679-2.742 4.924-2.822 5.17-2.822a1.182 1.182 0 011.196 1.171 1.184 1.184 0 01-1.171 1.197c-.27.019-13.869 1.512-12.644 53.299.31 13.078.895 26.668 1.462 39.809.42 9.743.816 18.945 1.071 27.277a1.168 1.168 0 01-.32.847 1.168 1.168 0 01-.826.373l-.038.001z" fill="#fff"/><path opacity=".78" d="M330.185 90.707l-193.658 5.747a12.776 12.776 0 01-13.14-12.143l-.716-14.488a12.775 12.775 0 0112.421-13.398l194.622-5.145a12.77 12.77 0 0112.175 7.964c.649 1.599.967 3.313.936 5.038l-.252 13.886a12.772 12.772 0 01-12.388 12.54z" fill="#161119"/><path d="M269.182 243.287s-6.458-4.237-7.353-3.26c-.319.347-1.061 1.528-1.754 2.81a2.373 2.373 0 00.379 2.773l1.666 1.721a3.759 3.759 0 002.899 1.152 3.754 3.754 0 002.773-1.43 6.827 6.827 0 001.39-3.766z" fill="url(#paint2_linear_2171_2016)"/><path d="M275.771 235.243s-2.217-5.836-4.806-5.302c-2.588.534-5.422 2.524-5.422 2.524l-4.159 5.621s11.676 4.599 15.782 1.962c0 0 11.928 2.062 26.988-.41-2.181-4.602-3.472-9.211-4.242-12.788-7.628 4.318-15.845 7.543-24.141 8.393z" fill="url(#paint3_linear_2171_2016)"/><path d="M338.945 192.913s-17.07 21.501-39.034 33.937c.762 3.578 2.062 8.187 4.242 12.789 11.392-1.87 24.576-6.33 35.753-16.242l-.961-30.484z" fill="#77BE1D"/><path d="M360.24 288.24c-3.34-15.862-6.679-25.046-17.854-55.113-3.518-9.461-6.714-19.034-5.17-29.009l1.734-11.205s21.731-7.352 45.817-.309c0 0 32.863 14.276 10.542 84.783-10.067 11.253-21.843 14.463-35.069 10.853z" fill="#77BE1D"/><path d="M342.644 178.615l5.633 13.536a2.705 2.705 0 002.039 1.62c3.248.559 11.106 1.428 16.265-1.964a1.322 1.322 0 00.352-1.845l-10.415-14.944-13.874 3.597z" fill="url(#paint4_linear_2171_2016)"/><path d="M348.472 157.902c-.236.223-9.987 19.372-9.987 19.372l11.052 5.335 11.937-16.775s-9.041-11.66-13.002-7.932z" fill="url(#paint5_linear_2171_2016)"/><path d="M356.452 167.846l-5.512 9.188a1.748 1.748 0 01-.303.377c-.661.61-2.901 2.386-4.628-.031-1.488-2.062-2.867-3.936-4.355-4.708a1.757 1.757 0 00-2.377.782c-.909 1.8-2.668 5.468-3.772 8.948a1.75 1.75 0 001.02 2.149c2.238.908 6.662 2.548 10.58 3.088a1.757 1.757 0 001.666-.707c1.688-2.315 6.447-8.778 8.071-10.397 1.509-1.503 4.298-.936 5.549-.575a1.772 1.772 0 001.409-.185c1.273-.767 3.495-2.677 1.463-5.91a1.764 1.764 0 01.545-2.397c1.422-.934 2.964-2.69 1.488-5.532-1.488-2.878-4.144-3.141-5.951-2.916a1.83 1.83 0 01-1.921-1.066 1.161 1.161 0 00-.909-.718 1.7 1.7 0 01-1.114-.714 1.711 1.711 0 01-.272-1.294c.319-1.629.08-3.745-2.521-5.175-4.767-2.62-8.945 1.654-10.006 5.257-1.061 3.604 4.268 6.155 7.622 6.58 2.464.312 3.814 3 4.358 4.407a1.759 1.759 0 01-.13 1.549z" fill="#1D1D1D"/><path d="M354.519 179.287s2.372-5.579 5.086-5.353c2.715.227 4.851 2.933 1.488 5.972-4.186 3.78-6.574-.619-6.574-.619z" fill="url(#paint6_linear_2171_2016)"/><path d="M358.102 428.033c5.248.453 14.357 1.19 21.537 1.506 4.316.19 6.802-.233 8.232-.805 0 .165 0 .314-.013.455a1.484 1.484 0 01-1.41 1.403c-9.392.535-18.807.544-28.201.028a1.052 1.052 0 01-.878-.551 1.053 1.053 0 01.017-1.037c.214-.35.453-.684.716-.999z" fill="#021E14"/><path d="M379.638 429.539c-7.18-.316-16.289-1.053-21.537-1.506 5.159-6.332 21.537-10.598 21.537-10.598h4.629c3.182 4.585 3.636 8.951 3.607 11.299-1.434.572-3.92.995-8.236.805z" fill="#063022"/><path d="M385.044 409.883l-.433 8.566a1.958 1.958 0 01-1.671 1.84 7.609 7.609 0 01-3.472-.287 2.314 2.314 0 01-1.557-1.781l-1.488-8.338h8.621z" fill="url(#paint7_linear_2171_2016)"/><path d="M445.124 429.474c2.276-.317 3.306-1.499 3.738-2.764v.035c.33 1.334-.442 2.714-1.984 3.372-1.876.794-3.928.929-5.52.865-1.708-.071-3.277-.779-4.133-1.91l-.013-.016c1.706.848 4.116.947 7.912.418z" fill="url(#paint8_linear_2171_2016)"/><path d="M434.392 409.828h3.815c5.811-.119 9.459 12.137 10.653 16.882-.431 1.265-1.461 2.447-3.738 2.764-3.802.529-6.202.43-7.917-.418-3.141-4.133-4.695-10.182-5.443-13.713-.85-4.016 2.63-5.515 2.63-5.515z" fill="#021E14"/><path d="M437.716 401.88l2.119 8.431a2.285 2.285 0 01-1.19 2.592c-1.185.607-2.853 1.247-4.387 1.061a1.911 1.911 0 01-1.558-1.273l-3.109-8.864 8.125-1.947z" fill="url(#paint9_linear_2171_2016)"/><path d="M440.238 404.313c-2.645 2.338-11.208 2.645-11.208 2.645-30.878-74.109-43.751-94.51-43.751-94.51 4.464 27.971.961 99.77.961 99.77-5.095 2.249-11.665 0-11.665 0-.413-45.792-6.86-95.001-15.176-126.485 20.87-.469 32.212-5.019 35.836-7.885 17.396 28.047 45.003 126.465 45.003 126.465z" fill="#083E2C"/><path d="M354.149 306.444l3.841 23.885a7.863 7.863 0 008.733 6.54l57.482-7.011a5.675 5.675 0 005-5.509c.123-6.173-.119-17.154-2.709-27.162l-72.347 9.257z" fill="url(#paint10_linear_2171_2016)"/><path d="M368.658 335.266a.188.188 0 01-.136-.047.187.187 0 01-.017-.266.19.19 0 01.13-.064l1.501-.183a.204.204 0 01.074.005.205.205 0 01.066.033.213.213 0 01.048.056.199.199 0 01.018.144.205.205 0 01-.033.066.213.213 0 01-.056.048.199.199 0 01-.07.023l-1.501.184-.024.001zm-3.503-.066a.119.119 0 01-.046 0 7.58 7.58 0 01-1.456-.519.189.189 0 01-.083-.251.187.187 0 01.105-.096.191.191 0 01.143.005 7.4 7.4 0 001.385.496c.046.01.085.037.112.075a.196.196 0 01.033.131.191.191 0 01-.063.119.195.195 0 01-.126.047l-.004-.007zm8.508-.544a.187.187 0 01-.137-.047.182.182 0 01-.064-.13.19.19 0 01.177-.2l1.503-.183c.05-.006.1.008.139.039a.187.187 0 01.032.265.189.189 0 01-.126.071l-1.501.184-.023.001zm5.004-.61a.19.19 0 01-.137-.047.186.186 0 01-.063-.13.18.18 0 01.047-.136.185.185 0 01.129-.064l1.503-.183a.184.184 0 01.21.165.19.19 0 01-.165.212l-1.503.183h-.021zm5.005-.611a.19.19 0 01-.023-.377l1.501-.182a.18.18 0 01.14.038.178.178 0 01.07.127.19.19 0 01-.165.212l-1.493.187-.03-.005zm5.004-.61a.19.19 0 01-.023-.377l1.501-.184a.184.184 0 01.21.165.184.184 0 01-.095.188.17.17 0 01-.07.022l-1.501.184-.022.002zm-27.663-.331a.188.188 0 01-.151-.073 7.449 7.449 0 01-.815-1.322.184.184 0 01.028-.208.187.187 0 01.203-.053c.047.016.086.05.108.095.216.442.475.861.775 1.25a.189.189 0 01.039.14.224.224 0 01-.024.07.198.198 0 01-.049.055.177.177 0 01-.111.049l-.003-.003zm32.667-.283a.188.188 0 01-.136-.047.187.187 0 01-.017-.266.19.19 0 01.13-.064l1.501-.183a.19.19 0 01.075.003.18.18 0 01.115.091c.012.022.02.046.022.071a.19.19 0 01-.165.212l-1.501.183h-.024zm5.004-.611a.192.192 0 01-.125-.047.19.19 0 01.104-.33l1.503-.182a.181.181 0 01.073.006.186.186 0 01.137.159.185.185 0 01-.04.139.186.186 0 01-.126.071l-1.501.182-.025.002zm5.005-.61a.19.19 0 01-.125-.047.19.19 0 01.103-.33l1.501-.184a.19.19 0 01.211.165.188.188 0 01-.165.21l-1.502.184-.023.002zm5.005-.61a.19.19 0 01-.023-.377l1.501-.184a.173.173 0 01.075.004.164.164 0 01.066.033.177.177 0 01.069.128.204.204 0 01-.005.074.207.207 0 01-.034.066.186.186 0 01-.126.07l-1.501.184-.022.002zm5.004-.612a.193.193 0 01-.128-.052.19.19 0 01-.016-.256.19.19 0 01.121-.067l1.501-.184a.193.193 0 01.189.095c.012.022.02.046.023.07a.192.192 0 01-.165.21l-1.502.184h-.023zm5.004-.61a.193.193 0 01-.128-.052.19.19 0 01-.058-.125.184.184 0 01.043-.131.185.185 0 01.12-.067l1.501-.184a.19.19 0 01.142.037.203.203 0 01.048.057.196.196 0 01-.017.211.188.188 0 01-.126.072l-1.501.182h-.024zm4.983-.728a.187.187 0 01-.166-.287.185.185 0 01.105-.081 5.249 5.249 0 001.296-.661.191.191 0 01.141-.032.192.192 0 01.122.078.19.19 0 01.031.141.192.192 0 01-.078.122 5.622 5.622 0 01-1.448.724l-.003-.004zm-64.334-.611a.194.194 0 01-.187-.165l-.239-1.488a.19.19 0 01.293-.173.19.19 0 01.08.112l.24 1.487a.184.184 0 01-.003.074.184.184 0 01-.154.143l-.03.01zm67.733-2.852a.154.154 0 01-.056-.01.18.18 0 01-.111-.092.177.177 0 01-.021-.071.18.18 0 01.008-.073c.147-.465.228-.948.239-1.435a.186.186 0 01.057-.131.185.185 0 01.132-.054.192.192 0 01.132.058.196.196 0 01.051.135 5.453 5.453 0 01-.256 1.541.188.188 0 01-.175.124v.008zm-68.533-2.126a.189.189 0 01-.185-.165l-.241-1.488a.19.19 0 01.036-.144.18.18 0 01.057-.049.17.17 0 01.072-.023.184.184 0 01.191.085.179.179 0 01.025.07l.24 1.488a.186.186 0 01-.033.14.18.18 0 01-.053.05.176.176 0 01-.069.026l-.04.01zm68.794-2.898a.188.188 0 01-.188-.188c0-.496-.012-.992-.024-1.511 0-.05.018-.099.053-.135a.195.195 0 01.133-.059.175.175 0 01.075.01.175.175 0 01.118.177c.012.519.018 1.025.023 1.514a.19.19 0 01-.188.192h-.002zm-69.597-2.088a.192.192 0 01-.125-.047.195.195 0 01-.062-.118l-.24-1.488a.204.204 0 01-.004-.078.193.193 0 01.029-.073.173.173 0 01.055-.056.191.191 0 01.294.146l.239 1.488a.19.19 0 01-.036.143.17.17 0 01-.057.05.17.17 0 01-.072.023l-.021.01zm69.453-2.952a.193.193 0 01-.131-.052.196.196 0 01-.059-.128c-.025-.494-.054-.997-.086-1.508a.192.192 0 01.177-.202.18.18 0 01.073.01.17.17 0 01.064.037.175.175 0 01.045.059.173.173 0 01.018.071c.033.513.061 1.017.088 1.513a.2.2 0 01-.049.137.202.202 0 01-.06.044.195.195 0 01-.072.017l-.008.002zm-70.258-2.025a.19.19 0 01-.187-.166l-.24-1.487a.177.177 0 01.004-.076.185.185 0 01.161-.141.204.204 0 01.074.001.19.19 0 01.118.085.191.191 0 01.025.069l.24 1.488a.195.195 0 01-.037.144.196.196 0 01-.057.05.196.196 0 01-.072.023l-.029.01zm69.885-3.006a.191.191 0 01-.189-.165 46.88 46.88 0 00-.165-1.503.187.187 0 01.305-.168c.04.032.065.077.07.127.058.506.114 1.008.165 1.508a.187.187 0 01-.165.205l-.021-.004zm-70.686-1.972a.19.19 0 01-.186-.165l-.271-1.686 1.385-.177a.19.19 0 01.075.003.21.21 0 01.067.033.187.187 0 01.07.129.19.19 0 01-.166.213l-.992.128.209 1.299a.195.195 0 01-.037.144.161.161 0 01-.057.05.18.18 0 01-.072.024l-.025.005zm4.452-2.093a.192.192 0 01-.125-.047.194.194 0 01-.063-.118.19.19 0 01.165-.212l1.501-.191a.177.177 0 01.144.034c.02.016.036.036.048.058a.185.185 0 01.02.073.19.19 0 01-.039.14.189.189 0 01-.126.073l-1.501.192-.024-.002zm5.001-.64a.188.188 0 01-.18-.177.188.188 0 01.04-.129.183.183 0 01.115-.07l1.501-.192a.177.177 0 01.191.093.182.182 0 01.021.072.19.19 0 01-.165.212l-1.5.191h-.023zm60.616-.297a.194.194 0 01-.187-.165 69.732 69.732 0 00-.24-1.488.19.19 0 01.348-.134.193.193 0 01.026.069c.084.496.165.992.24 1.498a.172.172 0 01-.004.075.172.172 0 01-.033.068.18.18 0 01-.057.049.18.18 0 01-.072.023l-.021.005zm-55.615-.344a.187.187 0 01-.188-.176.19.19 0 01.042-.132.19.19 0 01.121-.067l1.501-.194a.19.19 0 01.142.037.187.187 0 01.07.129.189.189 0 01-.095.188.18.18 0 01-.071.023l-1.499.192h-.023zm5.001-.638a.19.19 0 01-.025-.377l1.501-.193a.19.19 0 01.075.003.187.187 0 01.137.162.185.185 0 01-.006.074.189.189 0 01-.16.138l-1.499.193h-.023zm5-.641a.188.188 0 01-.136-.047.187.187 0 01-.064-.13.187.187 0 01.176-.2l1.501-.192a.184.184 0 01.211.165.19.19 0 01-.094.189.197.197 0 01-.071.023l-1.499.192h-.024zm5.001-.64a.192.192 0 01-.125-.047.19.19 0 01-.023-.259.192.192 0 01.127-.071l1.499-.192a.183.183 0 01.212.165.185.185 0 01-.039.141.186.186 0 01-.127.071l-1.499.192h-.025zm5.001-.64a.185.185 0 01-.125-.047.183.183 0 01-.062-.118.193.193 0 01.165-.214l1.5-.191a.168.168 0 01.074.004.168.168 0 01.067.033c.02.015.036.035.048.057.013.022.02.046.022.071a.168.168 0 01-.005.074.189.189 0 01-.16.138l-1.499.191-.025.002zm5.001-.64a.186.186 0 01-.124-.054.189.189 0 01-.017-.253.198.198 0 01.116-.07l1.501-.191a.168.168 0 01.074.004.193.193 0 01.116.09.196.196 0 01-.073.26.178.178 0 01-.071.022l-1.499.192h-.023zm5-.64a.19.19 0 01-.024-.376l1.501-.192a.19.19 0 01.075.003.175.175 0 01.067.033.176.176 0 01.069.129.168.168 0 01-.005.074.187.187 0 01-.16.138l-1.499.191h-.024zm5.001-.639a.19.19 0 01-.023-.377l1.499-.192a.172.172 0 01.075.004.168.168 0 01.067.033.18.18 0 01.07.128.19.19 0 01-.165.212l-1.5.192h-.023zm19.697-.136a.193.193 0 01-.185-.149c-.11-.492-.223-.982-.339-1.469a.191.191 0 01.283-.209c.022.013.04.031.055.051a.194.194 0 01.029.068c.119.492.233.985.343 1.478a.19.19 0 01-.146.225l-.04.005zm-14.696-.496a.191.191 0 01-.137-.047.19.19 0 01-.016-.266.187.187 0 01.13-.064l1.499-.191a.172.172 0 01.075.002.176.176 0 01.137.163.18.18 0 01-.039.14.179.179 0 01-.126.071l-1.5.192h-.023zm5.001-.64a.187.187 0 01-.2-.176.19.19 0 01.047-.137.186.186 0 01.13-.063l1.499-.192a.172.172 0 01.075.002.18.18 0 01.116.091.182.182 0 01.021.072.19.19 0 01-.166.212l-1.499.191h-.023zm5-.639a.189.189 0 01-.023-.377l1.5-.192a.19.19 0 01.075.003.187.187 0 01.115.09.186.186 0 01.021.072.19.19 0 01-.165.212l-1.499.192h-.024z" fill="#fff"/><path d="M368.753 286.879l-.065-1.872a1.43 1.43 0 01.973-.968c1.752-.513 6.126-1.582 8.467-.258l.593 2.108-9.968.99z" fill="url(#paint11_linear_2171_2016)"/><path d="M374.114 284.384a2.578 2.578 0 01-1.238.166 1.129 1.129 0 01-.992-.974l-.742-5.786 2.947-.377.741 5.786a1.133 1.133 0 01-.716 1.185z" fill="url(#paint12_linear_2171_2016)"/><path d="M397.3 283.227l-.065-1.873a1.438 1.438 0 01.972-.967c1.753-.514 6.127-1.584 8.468-.26l.593 2.108-9.968.992z" fill="url(#paint13_linear_2171_2016)"/><path d="M402.661 280.731a2.575 2.575 0 01-1.238.157 1.126 1.126 0 01-.992-.974l-.827-6.402 2.948-.377.827 6.397a1.136 1.136 0 01-.718 1.199z" fill="url(#paint14_linear_2171_2016)"/><path d="M371.025 279.234l31.563-5.105a1.532 1.532 0 001.299-1.442 12.974 12.974 0 00-.414-4.03 3.686 3.686 0 00-3.94-2.645c-5.931.615-20.985 2.546-28.862 6.89a2.92 2.92 0 00-1.488 2.234 7.078 7.078 0 00.331 3.228 1.376 1.376 0 001.511.87z" fill="url(#paint15_linear_2171_2016)"/><path d="M370.246 278.022a.502.502 0 01-.496-.39 7.94 7.94 0 01-.122-2.545 3.034 3.034 0 011.78-2.344c1.716-.75 5.013-2.076 7.798-2.513a.503.503 0 01.549.216.509.509 0 01-.031.589.494.494 0 01-.362.187c-2.774.433-6.203 1.85-7.549 2.44a2.034 2.034 0 00-.795.625 2.036 2.036 0 00-.392.933 7.047 7.047 0 00.106 2.178.508.508 0 01-.06.383.488.488 0 01-.136.143.483.483 0 01-.181.08.653.653 0 01-.109.018z" fill="url(#paint16_linear_2171_2016)"/><path d="M353.954 288.041c10.223-1.442 54.464-7.577 67.53-7.671a2.647 2.647 0 012.512 1.743c1.2 3.339 3.752 11.129 4.584 19.067a2.316 2.316 0 01-1.599 2.428l-28.662 9.316-10.435 1.339-32.094-2.217a2.474 2.474 0 01-1.48-.619 2.474 2.474 0 01-.785-1.399c-.712-3.958-2.226-13.26-1.919-19.413a2.733 2.733 0 012.348-2.574z" fill="url(#paint17_linear_2171_2016)"/><path d="M387.834 311.884l-1.545-.104a.185.185 0 01-.176-.2.204.204 0 01.067-.127.205.205 0 01.135-.05l1.509.105.809-.106a.19.19 0 01.075.003.175.175 0 01.067.033c.02.015.036.035.048.057.012.022.02.047.021.072a.188.188 0 01-.165.213l-.845.104zm-5.053-.345h-.013l-1.508-.104a.202.202 0 01-.072-.019.197.197 0 01-.059-.045.186.186 0 01-.046-.138.204.204 0 01.067-.127.2.2 0 01.135-.048l1.509.104a.189.189 0 01.121.065.189.189 0 01-.008.257.196.196 0 01-.126.057v-.002zm9.376-.21a.19.19 0 01-.137-.046.19.19 0 01.113-.331l1.501-.192a.19.19 0 01.075.003.18.18 0 01.115.091.177.177 0 01.021.072.19.19 0 01-.165.211l-1.501.192h-.022zm-14.405-.137h-.013l-1.51-.104a.199.199 0 01-.129-.065.195.195 0 01-.037-.064.18.18 0 01-.009-.073.2.2 0 01.066-.128.198.198 0 01.136-.047l1.509.104a.188.188 0 01.167.195.193.193 0 01-.054.127.19.19 0 01-.126.056v-.001zm-5.029-.347h-.013l-1.51-.105a.183.183 0 01-.129-.064.195.195 0 01-.037-.064.2.2 0 01-.009-.073.191.191 0 01.202-.175l1.508.104a.189.189 0 01.113.321.187.187 0 01-.125.057v-.001zm24.435-.156a.186.186 0 01-.137-.046.196.196 0 01-.064-.13.191.191 0 01.176-.201l.6-.076.827-.272a.192.192 0 01.24.122.194.194 0 01-.012.144.191.191 0 01-.111.094l-.861.279-.636.085-.022.001zm-29.465-.192h-.014l-1.507-.104a.178.178 0 01-.131-.064.185.185 0 01-.046-.137.199.199 0 01.067-.126.208.208 0 01.134-.05l1.51.105a.192.192 0 01.167.195.191.191 0 01-.18.183v-.002zm-5.029-.347h-.014l-1.509-.104a.192.192 0 01-.129-.064.188.188 0 01-.046-.138.198.198 0 01.066-.127.204.204 0 01.136-.048l1.507.104a.192.192 0 01.114.322.191.191 0 01-.125.057v-.002zm-5.031-.347h-.013l-1.509-.104a.202.202 0 01-.072-.019.185.185 0 01-.094-.109.207.207 0 01-.01-.074.21.21 0 01.202-.175l1.509.104a.19.19 0 01-.013.379v-.002zm44.344-.562a.186.186 0 01-.19-.158.19.19 0 01.131-.211l1.439-.467a.19.19 0 01.144.013.185.185 0 01.082.253.19.19 0 01-.11.094l-1.438.468a.235.235 0 01-.06.008h.002zm4.794-1.557a.19.19 0 01-.185-.161.191.191 0 01.025-.128.194.194 0 01.102-.081l1.439-.467a.193.193 0 01.137.019.198.198 0 01.088.107.196.196 0 01-.008.139.195.195 0 01-.1.096l-1.438.466a.186.186 0 01-.061.01h.001zm-51.317-1.379a.19.19 0 01-.124-.047.189.189 0 01-.061-.118c-.076-.478-.154-.979-.23-1.498a.19.19 0 01.3-.179.19.19 0 01.074.124c.078.518.154 1.017.228 1.488a.195.195 0 01-.003.076.21.21 0 01-.033.067.21.21 0 01-.057.05.188.188 0 01-.072.022l-.022.015zm56.113-.18a.185.185 0 01-.111-.037.186.186 0 01-.078-.167.176.176 0 01.02-.071.182.182 0 01.109-.094l1.439-.468a.194.194 0 01.239.123.19.19 0 01-.122.238l-1.438.468a.247.247 0 01-.06.008h.002zm4.794-1.557a.19.19 0 01-.185-.161.191.191 0 01.127-.21l1.438-.466a.194.194 0 01.144.012.194.194 0 01.094.109.192.192 0 01-.01.144.2.2 0 01-.046.058.203.203 0 01-.064.036l-1.438.468a.217.217 0 01-.062.01h.002zm4.794-1.559a.194.194 0 01-.122-.046.185.185 0 01-.064-.114.183.183 0 01.025-.129.193.193 0 01.102-.082l1.438-.466a.195.195 0 01.24.121.193.193 0 01-.123.24l-1.438.466a.191.191 0 01-.058.01zm4.794-1.559a.192.192 0 01-.18-.131.19.19 0 01-.004-.103.19.19 0 01.052-.09 43.363 43.363 0 00-.165-1.291.193.193 0 01.165-.214.204.204 0 01.074.005.21.21 0 01.067.033.197.197 0 01.071.128c.064.476.124.954.175 1.433l.016.152-.216.071a.202.202 0 01-.055.007zm-71.199-.141a.185.185 0 01-.125-.047.186.186 0 01-.063-.118c-.06-.498-.115-1-.166-1.506a.194.194 0 01.17-.196.191.191 0 01.207.155c.053.496.113 1.005.166 1.501a.181.181 0 01-.006.073.184.184 0 01-.16.137l-.023.001zm70.525-4.794a.19.19 0 01-.121-.043.19.19 0 01-.064-.111c-.096-.495-.195-.991-.298-1.487a.19.19 0 01.147-.218.188.188 0 01.222.14c.104.496.205.992.299 1.488a.189.189 0 01-.15.221l-.035.01zm-71.016-.225a.187.187 0 01-.188-.177 50.185 50.185 0 01-.088-1.514.202.202 0 01.01-.073.212.212 0 01.038-.063.212.212 0 01.059-.044.182.182 0 01.072-.018.175.175 0 01.14.044.19.19 0 01.044.062c.01.023.015.049.014.074.022.496.051.999.088 1.508a.191.191 0 01-.177.201h-.012zm69.913-4.696a.188.188 0 01-.183-.142c-.127-.5-.255-.986-.386-1.46a.199.199 0 01.018-.144.195.195 0 01.188-.094.197.197 0 01.071.023.189.189 0 01.087.116c.131.474.26.963.389 1.464a.195.195 0 01-.02.144.194.194 0 01-.116.088.26.26 0 01-.048.005zm-70.032-.344a.2.2 0 01-.072-.017.184.184 0 01-.099-.107.2.2 0 01-.011-.073l.013-.322a.371.371 0 01.318-.351l.931-.13a.173.173 0 01.075.002.187.187 0 01.117.091.182.182 0 01.021.072.19.19 0 01-.094.19.17.17 0 01-.072.023l-.93.131v.314a.193.193 0 01-.062.129.19.19 0 01-.135.048zm4.597-1.113a.182.182 0 01-.129-.05.186.186 0 01-.06-.125.181.181 0 01.042-.132.186.186 0 01.121-.068l1.499-.208a.195.195 0 01.076.003.175.175 0 01.067.033.18.18 0 01.071.129.19.19 0 01-.166.213l-1.499.207-.022-.002zm4.996-.686a.188.188 0 01-.18-.177.192.192 0 01.155-.2l1.5-.203a.184.184 0 01.074.005.168.168 0 01.067.033c.02.015.037.034.049.056a.192.192 0 01-.142.285l-1.498.203-.025-.002zm4.999-.674a.191.191 0 01-.201-.176.191.191 0 01.177-.201l1.499-.2a.193.193 0 01.213.165.19.19 0 01-.165.212l-1.5.2h-.023zm4.999-.661a.188.188 0 01-.136-.047.185.185 0 01-.064-.129.187.187 0 01.176-.201l1.499-.197a.184.184 0 01.074.005.184.184 0 01.138.158.18.18 0 01-.037.14.194.194 0 01-.125.072l-1.5.197-.025.002zm5.001-.65a.188.188 0 01-.136-.047.187.187 0 01-.017-.267.19.19 0 01.13-.063l1.501-.193a.168.168 0 01.074.004.168.168 0 01.067.033.177.177 0 01.069.128.184.184 0 01-.038.14.206.206 0 01-.057.049.17.17 0 01-.07.022l-1.5.194h-.023zm5.036-.64l-.048-.375 1.488-.187a.185.185 0 01.211.165.19.19 0 01-.165.212l-1.486.185zm39.025-.079a.193.193 0 01-.181-.132c-.166-.515-.314-.992-.462-1.44a.203.203 0 01.011-.144.2.2 0 01.046-.058.177.177 0 01.064-.036.181.181 0 01.144.011.182.182 0 01.094.109c.148.447.303.928.465 1.443a.192.192 0 01-.124.239.273.273 0 01-.057.004v.004zm-34.054-.539a.191.191 0 01-.137-.047.19.19 0 01-.016-.267.19.19 0 01.13-.063l1.501-.182a.191.191 0 01.204.239.205.205 0 01-.033.066.185.185 0 01-.127.07l-1.499.182-.023.002zm5.004-.6a.192.192 0 01-.137-.048.185.185 0 01-.062-.13.188.188 0 01.177-.199l1.503-.177a.178.178 0 01.139.039.173.173 0 01.069.126.184.184 0 01-.095.188.17.17 0 01-.07.022l-1.503.177-.021.002zm5.009-.579a.199.199 0 01-.073-.01.193.193 0 01-.126-.168.2.2 0 01.049-.137.186.186 0 01.13-.062l1.503-.165a.187.187 0 01.138.04.194.194 0 01.07.127.188.188 0 01-.167.208l-1.503.166-.021.001zm5.012-.547a.188.188 0 11-.02-.377l1.505-.165a.187.187 0 01.2.093.19.19 0 01.016.151.186.186 0 01-.039.068.18.18 0 01-.062.047.197.197 0 01-.076.018l-1.504.155-.02.01zm5.017-.506a.178.178 0 01-.072-.011.181.181 0 01-.107-.097.177.177 0 01-.018-.071.18.18 0 01.011-.073.177.177 0 01.038-.063.172.172 0 01.059-.044.173.173 0 01.071-.018l1.506-.14a.176.176 0 01.138.039.191.191 0 01.069.126.19.19 0 01-.165.207l-1.506.14-.024.005zm5.023-.445a.194.194 0 01-.127-.055.19.19 0 01.112-.323c.52-.041 1.023-.081 1.509-.116a.19.19 0 01.203.175.19.19 0 01-.175.202l-1.507.116-.015.001zm5.03-.33a.19.19 0 01-.131-.315.195.195 0 01.121-.064 75.398 75.398 0 011.515-.059.188.188 0 01.137.318.188.188 0 01-.133.059c-.466.014-.968.034-1.507.059l-.002.002z" fill="#fff"/><path d="M397.896 317.43l-9.14 1.171a2.388 2.388 0 01-2.615-1.776l-2.181-8.661a2.386 2.386 0 011.07-2.605 2.39 2.39 0 01.942-.329l10.98-1.405a2.37 2.37 0 011.841.539 2.378 2.378 0 01.844 1.722l.342 8.896a2.376 2.376 0 01-2.083 2.448z" fill="url(#paint18_linear_2171_2016)"/><path d="M396.564 315.957l-6.956.89a1.816 1.816 0 01-1.984-1.351l-1.653-6.591a1.806 1.806 0 011.532-2.233l8.359-1.07a1.811 1.811 0 012.041 1.721l.26 6.778a1.818 1.818 0 01-1.599 1.856z" fill="url(#paint19_linear_2171_2016)"/><path d="M391.128 245.861c2.149 8.909 2.213 17.624 1.886 20.798a2.482 2.482 0 01-2.286 2.216c-1.363.094-3.217.22-4.876.315-1.818.105-3.845-1.046-5.197-2.01a.814.814 0 00-1.268.505.82.82 0 00.069.525c.662 1.299 1.819 2.315 2.965 3.194.689.524 2.975 1.453 2.81 2.48-.072.323-.229.62-.456.861-1.273 1.527-3.199 2.342-5.099 2.926a1.396 1.396 0 00-.661.331c-.046 1.228 3.735 2.593 4.71 2.917 1.461.499 3.011.679 4.548.529 3.802-.4 7.316-3.025 9.365-6.191 5.478-8.464 8.31-18.68 9.345-26.499-5.085-5.084-12.779-3.793-15.855-2.897z" fill="url(#paint20_linear_2171_2016)"/><path d="M406.993 249.571c4.064-30.696-19.593-54.298-19.593-54.298l-14.073 16.408c10.686 13.319 15.765 25.523 18.086 35.109 3.076-.896 10.485-2.312 15.58 2.781z" fill="#77BE1D"/><path d="M391.077 246.64a.875.875 0 01-.848-.661c-2.858-11.817-8.888-23.516-17.917-34.769a.87.87 0 111.359-1.091c9.191 11.454 15.333 23.382 18.254 35.45a.87.87 0 01-.848 1.076v-.005z" fill="#2F305C"/><path d="M200.464 428.611a1.786 1.786 0 00-.046-.455c-2.263-8.973-13.498-14.562-13.498-14.562l-4.452.354c-2.559 7.91-2.23 12.76-1.818 14.921.011.061.03.117.046.177 3.67.322 11.23.537 19.768-.435z" fill="#063022"/><path d="M180.696 429.041a1.935 1.935 0 001.414 1.427c5.224 1.097 13.526.215 17.012-.242.769-.1 1.323-.811 1.344-1.615-8.54.972-16.1.757-19.77.43z" fill="#021E14"/><path d="M180.679 407.312l1.886 9.078a1.483 1.483 0 001.268 1.22c.972.098 1.952.083 2.921-.046.972-.143 1.653-1.131 1.478-2.192l-1.311-8.06h-6.242z" fill="url(#paint21_linear_2171_2016)"/><path d="M219.745 428.925c-4.917-.137-7.461-.716-8.775-1.253 0 .488 0 .992.015 1.501a.971.971 0 00.927.992l26.996-.174c.861 0 1.365-1.005.992-1.795-3.54.288-12.556.942-20.155.729z" fill="#021E14"/><path d="M239.9 428.192a1.327 1.327 0 00-.108-.204c-2.384-3.331-8.456-9.965-20.454-12.841l-5.756-.182s-2.564 4.455-2.612 12.708c1.322.537 3.858 1.115 8.775 1.253 7.599.213 16.615-.442 20.155-.734z" fill="#063022"/><path d="M212.259 406.509c.091.424 1.288 6.883 1.752 9.386a1.253 1.253 0 001.126 1.063c.992.055 2.576.061 3.943-.309.737-.2 1.231-.952 1.18-1.787l-.645-10.216-7.356 1.863z" fill="url(#paint22_linear_2171_2016)"/><path d="M207.896 287.258s7.917 54.41 13.632 119.159c.105 1.205-.855 2.254-2.039 2.504-1.746.367-4.313.803-6.437.744a2.38 2.38 0 01-2.272-1.984c-1.947-11.416-15.838-72.684-19.484-86.168 0 0-4.187 57.278-2.848 86.995a1.405 1.405 0 01-1.243 1.464c-1.718.184-3.451.18-5.168-.013a1.887 1.887 0 01-1.678-1.6c-1.387-9.663-9.368-67.172-9.029-108.6.02-2.336 2.741-21.53 2.741-21.53l33.825 9.029z" fill="#083E2C"/><path d="M172.884 290.394a2.244 2.244 0 01-1.471-1.886c-1.053-10.217-6.152-73.565 26.035-99.614 0 0 1.847-4.83 17.019 7.041 15.173 11.871 7.049 24.316 3.417 41.479-4.395 20.768-12.109 37.745-8.695 50.525a1.772 1.772 0 01-1.086 2.123c-11.786 4.344-23.526 4.488-35.219.332z" fill="#77BE1D"/><path d="M210.003 169.914c-.01.903-12.863 19.158-12.863 19.158s2.314 4.543 13.321 8.231l9.507-19.545-9.965-7.844z" fill="url(#paint23_linear_2171_2016)"/><path d="M220.121 159.455s4.574 10.504 4.882 16.019c.307 5.515 1.488 9.092-4.882 10.202-6.369 1.109-11.737-2.065-14.655-7.559 0 0-4.559-8.462-3.536-11.929 1.023-3.466 18.191-6.733 18.191-6.733z" fill="url(#paint24_linear_2171_2016)"/><path d="M207.642 174.167l.362-.165a.895.895 0 00.29-.205.886.886 0 00.233-.656.888.888 0 00-.095-.342c-.9-1.736-2.645-5.717-.387-6.646 2.918-1.197 14.475-3.554 16.969-7.656 2.397-3.941.273-9.029-2.917-10.476a.44.44 0 00-.576.187l-.266.504a.438.438 0 01-.8-.082.431.431 0 00-.78-.113c-.766 1.228-2.835 3.217-8.37 4.239-7.866 1.451-13.06 4.629-13.196 10.069a.429.429 0 01-.229.376.43.43 0 01-.44-.019c-.582-.354-1.511-.519-2.753.524-2.16 1.819-1.276 6.529 3.459 10.405a.432.432 0 01.114.545.423.423 0 01-.134.148c-.858.559-2.137 1.889 1.179 3.662 3.428 1.833 5.989 1.682 6.976 1.52a.44.44 0 00.287-.186.436.436 0 00.063-.336l-1.053-4.776a.444.444 0 01.085-.365.43.43 0 01.339-.162l1.64.006z" fill="#1D1D1D"/><path d="M207.843 175.176s-1.744-6.71-4.753-4.829c-3.008 1.882 1.563 7.519 3.981 7.77l.772-2.941z" fill="url(#paint25_linear_2171_2016)"/><path d="M219.347 201.444l.886 23.806c2.357.818 4.76 1.5 7.196 2.043 1.427-4.596 4.569-10.235 7.143-14.429-9.456-3.349-15.225-11.42-15.225-11.42z" fill="#77BE1D"/><path d="M266.554 201.039c-12.971 14.004-23.475 14.829-31.982 11.818-2.574 4.194-5.717 9.833-7.143 14.429 34.636 7.636 42.793-24.205 42.793-24.205l-3.668-2.042z" fill="url(#paint26_linear_2171_2016)"/><path d="M269.183 199.552s1.487-1.604 4.26-1.1c2.772.505 5.225 1.465 6.943 0 1.718-1.464 2.329.496 2.329.496l-5.146 3.927-8.386-3.323z" fill="url(#paint27_linear_2171_2016)"/><path d="M266.099 202.294s1.023-4.28 4.108-3.693c3.084.587 10.084 4.396 11.902 3.693 1.819-.702 4.113-2.38 5.29-1.787l-2.086 2.594s5.363-3.093 6.282-1.194l-8.927 5.021s-13.047-1.306-16.569-4.634z" fill="#161119"/><path d="M204.948 232.598s24.384 20.422 50.715 11.511a6.28 6.28 0 014.945.372l7.57 3.999a6.756 6.756 0 008.956-2.508c1.052-1.759 1.949-3.769 2.128-5.693l-14.814-5.998 1.093-1.818s-7.233-.613-9.125 4.569c0 0-13.774 5.73-37.006-19.821 0-.002-10.542 8.962-14.462 15.387z" fill="url(#paint28_linear_2171_2016)"/><path d="M203.637 232.382a.42.42 0 01-.233-.071c-10.268-6.944-15.098-18.135-15.146-18.248a.421.421 0 01.084-.457.415.415 0 01.294-.126.421.421 0 01.298.118.405.405 0 01.092.135c.047.109 4.795 11.086 14.844 17.88a.419.419 0 01-.233.764v.005zm15.293-15.52a.422.422 0 01-.352-.192c-.03-.048-3.167-4.929-9.142-15.629-1.837-3.289-4.252-5.372-7.176-6.191-4.844-1.352-9.511 1.244-9.557 1.27a.417.417 0 01-.592-.474.418.418 0 01.179-.252c.201-.114 5.002-2.8 10.188-1.349 3.141.88 5.736 3.097 7.687 6.59 5.951 10.671 9.092 15.539 9.116 15.584a.407.407 0 01.057.314.408.408 0 01-.181.263.426.426 0 01-.227.066z" fill="#2F305C"/><path fill="url(#paint29_linear_2171_2016)" d="M0 184h539v278H0z"/><defs><linearGradient id="paint0_linear_2171_2016" x1="413.327" y1="324.674" x2="471.404" y2="324.674" gradientUnits="userSpaceOnUse"><stop stop-color="#DAE3FE"/><stop offset="1" stop-color="#E9EFFD"/></linearGradient><linearGradient id="paint1_linear_2171_2016" x1="345.178" y1="83.181" x2="-29.153" y2="562.209" gradientUnits="userSpaceOnUse"><stop stop-color="#fff"/><stop offset="1" stop-color="#fff"/></linearGradient><linearGradient id="paint2_linear_2171_2016" x1="269.004" y1="243.135" x2="259.787" y2="244.943" gradientUnits="userSpaceOnUse"><stop stop-color="#FEBBBA"/><stop offset="1" stop-color="#FF928E"/></linearGradient><linearGradient id="paint3_linear_2171_2016" x1="261.384" y1="233.857" x2="304.154" y2="233.857" gradientUnits="userSpaceOnUse"><stop stop-color="#FEBBBA"/><stop offset="1" stop-color="#FF928E"/></linearGradient><linearGradient id="paint4_linear_2171_2016" x1="357.079" y1="191.08" x2="350.222" y2="170.503" gradientUnits="userSpaceOnUse"><stop stop-color="#FEBBBA"/><stop offset="1" stop-color="#FF928E"/></linearGradient><linearGradient id="paint5_linear_2171_2016" x1="341.061" y1="165.829" x2="365.711" y2="176.546" gradientUnits="userSpaceOnUse"><stop stop-color="#FEBBBA"/><stop offset="1" stop-color="#FF928E"/></linearGradient><linearGradient id="paint6_linear_2171_2016" x1="339.525" y1="169.362" x2="364.175" y2="180.079" gradientUnits="userSpaceOnUse"><stop stop-color="#FEBBBA"/><stop offset="1" stop-color="#FF928E"/></linearGradient><linearGradient id="paint7_linear_2171_2016" x1="385.044" y1="415.127" x2="376.415" y2="415.127" gradientUnits="userSpaceOnUse"><stop stop-color="#FEBBBA"/><stop offset="1" stop-color="#FF928E"/></linearGradient><linearGradient id="paint8_linear_2171_2016" x1="448.948" y1="428.852" x2="437.209" y2="428.852" gradientUnits="userSpaceOnUse"><stop stop-color="#4042E2"/><stop offset="1" stop-color="#4F52FF"/></linearGradient><linearGradient id="paint9_linear_2171_2016" x1="439.905" y1="407.934" x2="429.591" y2="407.934" gradientUnits="userSpaceOnUse"><stop stop-color="#FEBBBA"/><stop offset="1" stop-color="#FF928E"/></linearGradient><linearGradient id="paint10_linear_2171_2016" x1="403.518" y1="394.753" x2="391.341" y2="307.225" gradientUnits="userSpaceOnUse"><stop stop-color="#FF928E"/><stop offset="1" stop-color="#FE7062"/></linearGradient><linearGradient id="paint11_linear_2171_2016" x1="374.551" y1="291.021" x2="372.819" y2="280.843" gradientUnits="userSpaceOnUse"><stop stop-color="#E1473D"/><stop offset="1" stop-color="#E9605A"/></linearGradient><linearGradient id="paint12_linear_2171_2016" x1="372.051" y1="275.73" x2="377.915" y2="304.777" gradientUnits="userSpaceOnUse"><stop stop-color="#E1473D"/><stop offset="1" stop-color="#E9605A"/></linearGradient><linearGradient id="paint13_linear_2171_2016" x1="402.9" y1="286.196" x2="401.167" y2="276.02" gradientUnits="userSpaceOnUse"><stop stop-color="#E1473D"/><stop offset="1" stop-color="#E9605A"/></linearGradient><linearGradient id="paint14_linear_2171_2016" x1="400.211" y1="270.046" x2="406.076" y2="299.093" gradientUnits="userSpaceOnUse"><stop stop-color="#E1473D"/><stop offset="1" stop-color="#E9605A"/></linearGradient><linearGradient id="paint15_linear_2171_2016" x1="386.676" y1="257.27" x2="386.504" y2="278.512" gradientUnits="userSpaceOnUse"><stop stop-color="#E1473D"/><stop offset="1" stop-color="#E9605A"/></linearGradient><linearGradient id="paint16_linear_2171_2016" x1="374.399" y1="272.046" x2="364.675" y2="216.819" gradientUnits="userSpaceOnUse"><stop stop-color="#FEBBBA"/><stop offset="1" stop-color="#FF928E"/></linearGradient><linearGradient id="paint17_linear_2171_2016" x1="389.616" y1="273.423" x2="391.658" y2="372.195" gradientUnits="userSpaceOnUse"><stop stop-color="#FF928E"/><stop offset="1" stop-color="#FE7062"/></linearGradient><linearGradient id="paint18_linear_2171_2016" x1="391.913" y1="285.35" x2="391.975" y2="318.462" gradientUnits="userSpaceOnUse"><stop stop-color="#E1473D"/><stop offset="1" stop-color="#E9605A"/></linearGradient><linearGradient id="paint19_linear_2171_2016" x1="386.373" y1="312.044" x2="398.332" y2="310.512" gradientUnits="userSpaceOnUse"><stop stop-color="#FF928E"/><stop offset="1" stop-color="#FE7062"/></linearGradient><linearGradient id="paint20_linear_2171_2016" x1="399.354" y1="250.841" x2="376.001" y2="295.751" gradientUnits="userSpaceOnUse"><stop stop-color="#FEBBBA"/><stop offset="1" stop-color="#FF928E"/></linearGradient><linearGradient id="paint21_linear_2171_2016" x1="185.957" y1="398.576" x2="182.117" y2="432.08" gradientUnits="userSpaceOnUse"><stop stop-color="#A22B25"/><stop offset="1" stop-color="#C0423C"/></linearGradient><linearGradient id="paint22_linear_2171_2016" x1="216.73" y1="402.125" x2="215.007" y2="435.804" gradientUnits="userSpaceOnUse"><stop stop-color="#A22B25"/><stop offset="1" stop-color="#C0423C"/></linearGradient><linearGradient id="paint23_linear_2171_2016" x1="197.599" y1="208.062" x2="218.27" y2="161.554" gradientUnits="userSpaceOnUse"><stop stop-color="#A22B25"/><stop offset="1" stop-color="#C0423C"/></linearGradient><linearGradient id="paint24_linear_2171_2016" x1="190.756" y1="135.248" x2="220.113" y2="180.017" gradientUnits="userSpaceOnUse"><stop stop-color="#A22B25"/><stop offset="1" stop-color="#C0423C"/></linearGradient><linearGradient id="paint25_linear_2171_2016" x1="183.082" y1="140.282" x2="212.439" y2="185.05" gradientUnits="userSpaceOnUse"><stop stop-color="#A22B25"/><stop offset="1" stop-color="#C0423C"/></linearGradient><linearGradient id="paint26_linear_2171_2016" x1="283.677" y1="199.039" x2="227.591" y2="226.939" gradientUnits="userSpaceOnUse"><stop stop-color="#A22B25"/><stop offset="1" stop-color="#C0423C"/></linearGradient><linearGradient id="paint27_linear_2171_2016" x1="282.854" y1="192.043" x2="263.669" y2="212.079" gradientUnits="userSpaceOnUse"><stop stop-color="#A22B25"/><stop offset="1" stop-color="#C0423C"/></linearGradient><linearGradient id="paint28_linear_2171_2016" x1="307.38" y1="246.048" x2="144.612" y2="216.616" gradientUnits="userSpaceOnUse"><stop stop-color="#A22B25"/><stop offset="1" stop-color="#C0423C"/></linearGradient><linearGradient id="paint29_linear_2171_2016" x1="269.5" y1="184" x2="269.5" y2="357.419" gradientUnits="userSpaceOnUse"><stop stop-color="#06030F" stop-opacity="0"/><stop offset="1" stop-color="#06030F"/></linearGradient></defs></svg>