<svg width="53" height="52" fill="none" xmlns="http://www.w3.org/2000/svg"><path fill-rule="evenodd" clip-rule="evenodd" d="M23.151 1.776l-3.892 3.89a1.68 1.68 0 01-1.185.492h-6.125a5.125 5.125 0 00-5.126 5.126v6.125c0 .445-.178.873-.492 1.188l-3.893 3.89a5.126 5.126 0 000 7.247l3.893 3.892c.314.315.491.74.492 1.185v6.125a5.125 5.125 0 005.126 5.126h6.125c.445 0 .873.178 1.188.492l3.89 3.893a5.126 5.126 0 007.247 0l3.893-3.893a1.68 1.68 0 011.185-.492H41.6a5.125 5.125 0 005.126-5.126v-6.125c0-.445.178-.872.493-1.188l3.892-3.89a5.126 5.126 0 000-7.247l-3.892-3.892a1.68 1.68 0 01-.493-1.185v-6.125A5.125 5.125 0 0041.6 6.158h-6.124c-.446 0-.874-.177-1.189-.492L30.4 1.773a5.126 5.126 0 00-7.248.003zm-6.207 31.726L34.168 16.28l2.438 2.439L19.383 35.94l-2.44-2.439zm1.22-16.004v3.445h3.444v-3.445h-3.445zm13.778 17.224h3.445v-3.445h-3.445v3.445z" fill="#77BE1D"/></svg>