<svg width="66" height="71" fill="none" xmlns="http://www.w3.org/2000/svg"><path d="M40.785.885v17.317a7.39 7.39 0 002.192 5.247 7.517 7.517 0 005.293 2.174h17.464V62.73a7.39 7.39 0 01-2.192 5.248 7.517 7.517 0 01-5.293 2.174H39.103A27.214 27.214 0 0049.885 54.8a27.001 27.001 0 00-1.762-18.625A27.336 27.336 0 0034.65 23.078 27.662 27.662 0 0015.835 21.7V8.306a7.39 7.39 0 012.192-5.248A7.517 7.517 0 0123.32.885h17.465zm4.99 1.237v16.08c0 .656.263 1.285.73 1.749a2.506 2.506 0 001.765.724h16.217L45.775 2.122zm0 45.765a22.169 22.169 0 01-6.577 15.744 22.552 22.552 0 01-15.878 6.52 22.552 22.552 0 01-15.878-6.52A22.17 22.17 0 01.865 47.887a22.17 22.17 0 016.577-15.743 22.552 22.552 0 0115.878-6.521 22.552 22.552 0 0115.878 6.521 22.169 22.169 0 016.577 15.743zm-19.96-9.895a2.47 2.47 0 00-.73-1.75 2.506 2.506 0 00-3.53 0 2.463 2.463 0 00-.73 1.75v7.422H13.34c-.662 0-1.296.26-1.764.724a2.463 2.463 0 000 3.498 2.506 2.506 0 001.764.725h7.485v7.422c0 .656.263 1.285.73 1.749a2.506 2.506 0 001.765.725c.662 0 1.296-.261 1.764-.725.468-.464.73-1.093.73-1.75v-7.42H33.3c.662 0 1.296-.261 1.764-.725a2.463 2.463 0 000-3.499 2.506 2.506 0 00-1.764-.724h-7.485v-7.422z" fill="#77BE1D"/></svg>