<svg width="89" height="72" fill="none" xmlns="http://www.w3.org/2000/svg"><path d="M86.607 49.147h-2.2V34.29a6.6 6.6 0 00-1.937-4.66L68.74 15.902a6.597 6.597 0 00-4.659-1.938h-6.06V7.367A6.599 6.599 0 0051.423.77H16.24a6.599 6.599 0 00-6.597 6.597v6.596H1.947c-.605 0-1.1.495-1.1 1.1v2.199c0 .604.495 1.1 1.1 1.1H39.33c.605 0 1.1.494 1.1 1.099v2.199c0 .604-.495 1.1-1.1 1.1H6.345c-.605 0-1.1.494-1.1 1.099v2.199c0 .604.495 1.1 1.1 1.1h28.586c.605 0 1.1.494 1.1 1.099v2.198c0 .605-.495 1.1-1.1 1.1H1.947c-.605 0-1.1.495-1.1 1.1v2.198c0 .605.495 1.1 1.1 1.1h28.586c.605 0 1.1.495 1.1 1.1v2.198c0 .605-.495 1.1-1.1 1.1H9.643v17.591c0 7.285 5.91 13.194 13.194 13.194 7.284 0 13.194-5.91 13.194-13.194h17.592c0 7.285 5.91 13.194 13.193 13.194 7.284 0 13.194-5.91 13.194-13.194h6.597c1.21 0 2.199-.99 2.199-2.199v-4.397c0-1.21-.99-2.2-2.2-2.2zm-63.77 15.392a6.599 6.599 0 01-6.597-6.597 6.599 6.599 0 016.597-6.596 6.598 6.598 0 016.597 6.596 6.599 6.599 0 01-6.597 6.597zm43.98 0a6.599 6.599 0 01-6.598-6.597 6.598 6.598 0 016.597-6.596 6.599 6.599 0 016.597 6.596 6.599 6.599 0 01-6.597 6.597zM77.81 35.953H58.02V20.56h6.06l13.73 13.73v1.663z" fill="#77BE1D"/></svg>