<svg width="72" height="71" fill="none" xmlns="http://www.w3.org/2000/svg"><path fill-rule="evenodd" clip-rule="evenodd" d="M29.408 4.036c0-.657-.207-1.297-.594-1.831a3.189 3.189 0 00-1.563-1.15 3.234 3.234 0 00-1.949-.039c-.638.188-1.2.568-1.608 1.087L1.348 30.438a3.12 3.12 0 00-.673 1.933c0 .7.237 1.38.673 1.933L23.694 62.64c.408.518.97.898 1.608 1.086.638.188 1.32.175 1.95-.038a3.188 3.188 0 001.562-1.15 3.119 3.119 0 00.594-1.831V48.145c17.171.352 25.42 3.567 29.564 7.061 3.939 3.322 4.66 7.23 5.41 11.322l.195 1.055a3.142 3.142 0 001.175 1.904 3.223 3.223 0 004.22-.257 3.14 3.14 0 00.93-2.031c.545-8.652-.275-21.189-6.472-31.676-6.014-10.179-16.845-18.006-35.022-18.824V4.036z" fill="#77BE1D"/></svg>