<svg width="70" height="71" fill="none" xmlns="http://www.w3.org/2000/svg"><path fill-rule="evenodd" clip-rule="evenodd" d="M.068 28.674c0-15.408 12.492-27.9 27.9-27.9h13.468c15.408 0 27.9 12.492 27.9 27.9 0 15.408-12.492 27.9-27.9 27.9H40.09v13.468S.07 63.308.07 28.674zm41.736-15.427c1.981 1.316 3.477 3.45 3.477 6.31 0 3.037-1.226 5.269-3.21 6.635-.783.53-1.647.93-2.559 1.181v2.948a2.887 2.887 0 01-5.772 0V24.94a2.886 2.886 0 012.694-2.88c1.066-.071 1.874-.283 2.362-.62.198-.13.357-.31.462-.523.115-.23.25-.642.25-1.36 0-.602-.236-1.062-.9-1.505-.755-.5-1.967-.87-3.423-.916-1.44-.046-2.838.235-3.868.733-1.03.5-1.408 1.063-1.516 1.476a2.885 2.885 0 11-5.59-1.435c.663-2.58 2.594-4.266 4.59-5.234 2-.971 4.354-1.381 6.569-1.31 2.197.07 4.544.623 6.434 1.882zm-5.178 31.782a3.848 3.848 0 100-7.697 3.848 3.848 0 000 7.697z" fill="#77BE1D"/></svg>