<svg width="69" height="92" fill="none" xmlns="http://www.w3.org/2000/svg"><path d="M67.16 11.97L35.85.487c-.378-.14-.885-.209-1.392-.209-.507 0-1.014.07-1.391.209L1.757 11.97C.992 12.249.365 13.2.365 14.074v47.845c0 .872.525 2.023 1.161 2.568l31.762 26.64c.322.268.737.407 1.16.407.425 0 .849-.139 1.162-.407l31.761-26.64c.636-.535 1.161-1.686 1.161-2.568V14.074c.019-.873-.608-1.816-1.373-2.103zM51.273 28.912l-19.59 29.03a1.518 1.518 0 01-.526.482 1.398 1.398 0 01-1.343 0 1.519 1.519 0 01-.526-.482L17.642 40.684c-.35-.526 0-1.26.599-1.26h5.086c.47 0 .922.248 1.198.655l5.962 8.827 13.904-20.61a1.453 1.453 0 011.198-.654h5.086c.6.01.95.743.6 1.27z" fill="#77BE1D"/></svg>