<svg width="17" height="18" fill="none" xmlns="http://www.w3.org/2000/svg"><path fill-rule="evenodd" clip-rule="evenodd" d="M12.826 2.585v.622h1.513l.043.001h1.628c.547 0 .99.44.99.982a.986.986 0 01-.99.982h-.68v10.242a2.55 2.55 0 01-.79 1.84 2.705 2.705 0 01-1.87.746H4.327a2.699 2.699 0 01-1.869-.747 2.55 2.55 0 01-.79-1.838V5.171H.99A.986.986 0 010 4.19c0-.542.443-.982.99-.982h3.18v-.623c0-.695.288-1.356.79-1.838A2.699 2.699 0 016.83 0h3.337c.696 0 1.369.265 1.87.747a2.55 2.55 0 01.79 1.838zM6.34 2.157a.71.71 0 01.49-.193h3.338a.71.71 0 01.491.193.594.594 0 01.188.428v.622H6.15v-.622c0-.154.064-.31.188-.428zM3.648 5.172v10.242c0 .155.064.31.188.43a.71.71 0 00.49.192h8.345a.71.71 0 00.49-.193.595.595 0 00.188-.428V5.171H3.648z" fill="#1E1C27"/></svg>