<svg width="138" height="50" fill="none" xmlns="http://www.w3.org/2000/svg"><g clip-path="url(#clip0_1804_8320)"><path d="M1.964 6.052v4.036c0 11.215.021 18.96 6.516 25.482 2.502 2.513 8.61 6.63 8.61 6.63V2.312c-6.353 0-12.706 2.85-15.126 3.74z" fill="#66BB6A"/><path d="M32.216 6c-3.025-.942-8.773-3.688-15.126-3.688v39.885s6.135-4.114 8.64-6.63c6.507-6.536 6.486-13.4 6.486-23.984V6z" fill="#388E3C"/><path d="M33.532 6.047H.799V8.75h32.733V6.047z" fill="url(#paint0_linear_1804_8320)"/><path fill-rule="evenodd" clip-rule="evenodd" d="M25.622 28.37a12.044 12.044 0 00-3.785-2.5 12.001 12.001 0 00-6.961-.69 12.032 12.032 0 00-6.085 3.228c.31.48.658.95 1.047 1.41a10.283 10.283 0 017.388-3.13v.004a10.304 10.304 0 017.335 3.083c.397-.463.749-.931 1.06-1.406zm-2.363 2.756a8.405 8.405 0 00-12.114.05c.362.328.804.688 1.281 1.057a6.765 6.765 0 014.8-1.998 6.78 6.78 0 014.751 1.955 20.48 20.48 0 001.282-1.064zm-2.756 2.154a4.888 4.888 0 00-3.337-1.256 4.889 4.889 0 00-3.264 1.3 87.78 87.78 0 003.264 2.209v-3.509 3.507s1.644-1.045 3.337-2.251z" fill="#FAFAFA"/><path d="M16.99 22.076c2.754 0 4.986-2.242 4.986-5.008s-2.232-5.008-4.985-5.008-4.986 2.242-4.986 5.008c0 2.765 2.232 5.008 4.986 5.008z" fill="#FAFAFA"/><path d="M32.216 5.864v-3.1c0-1.114-1.534-2.673-2.904-2.673H4.617c-1.367 0-2.65 1.559-2.65 2.674v3.1H32.22h-.003z" fill="#E0E0E0"/><path d="M5.698 4.232c.49 0 .889-.4.889-.893a.891.891 0 00-.89-.894c-.49 0-.889.4-.889.894 0 .493.398.893.89.893zm3.254 0c.492 0 .89-.4.89-.893a.891.891 0 00-.89-.894c-.49 0-.889.4-.889.894 0 .493.398.893.89.893z" fill="#fff"/></g><path d="M45.797 18.267a6.025 6.025 0 01-1.994-.333c-.63-.23-1.117-.523-1.463-.877l.385-.758c.328.319.767.59 1.317.81.558.214 1.143.32 1.755.32.585 0 1.06-.07 1.423-.213.372-.15.643-.35.811-.598a1.38 1.38 0 00.266-.824c0-.364-.106-.657-.319-.878a2.034 2.034 0 00-.811-.519 8.3 8.3 0 00-1.117-.345 61.56 61.56 0 01-1.223-.306 5.566 5.566 0 01-1.13-.453 2.433 2.433 0 01-.825-.73c-.204-.311-.306-.715-.306-1.21 0-.462.12-.883.359-1.264.248-.39.625-.7 1.13-.931.505-.24 1.153-.36 1.942-.36.523 0 1.041.076 1.556.227a4.38 4.38 0 011.33.598l-.333.785a4.38 4.38 0 00-1.277-.585 4.775 4.775 0 00-1.29-.186c-.558 0-1.02.075-1.383.226-.363.15-.633.354-.81.611a1.48 1.48 0 00-.253.851c0 .364.102.657.306.878.212.222.487.395.824.519.346.124.722.235 1.13.332.408.098.811.204 1.21.32.408.114.78.265 1.117.451.346.178.62.417.825.719.212.3.319.695.319 1.183 0 .452-.124.873-.373 1.263-.248.381-.629.692-1.143.931-.505.23-1.157.346-1.955.346zm9.79-.08v-1.543l-.04-.252v-2.58c0-.594-.168-1.05-.505-1.37-.328-.319-.82-.478-1.476-.478-.452 0-.882.075-1.29.226-.408.15-.753.35-1.037.598l-.425-.705c.354-.301.78-.531 1.276-.691a4.848 4.848 0 011.57-.253c.903 0 1.6.226 2.087.679.496.443.745 1.12.745 2.034v4.335h-.905zm-2.407.066c-.523 0-.98-.084-1.37-.252-.38-.178-.673-.417-.877-.718a1.893 1.893 0 01-.306-1.064c0-.364.084-.692.253-.984.177-.301.461-.54.851-.718.399-.186.93-.28 1.596-.28h2.407v.705h-2.38c-.674 0-1.144.12-1.41.36a1.167 1.167 0 00-.386.89c0 .4.155.718.466.958.31.24.744.359 1.303.359.532 0 .988-.12 1.37-.36.39-.247.673-.602.85-1.063l.213.652a2.21 2.21 0 01-.93 1.103c-.435.275-.985.412-1.65.412zm6.035-.066v-7.859c0-.62.182-1.121.546-1.502.363-.382.886-.572 1.569-.572.266 0 .523.035.771.106s.457.182.625.333l-.32.704a1.25 1.25 0 00-.465-.252 1.72 1.72 0 00-.571-.093c-.4 0-.705.11-.918.332-.213.222-.319.55-.319.984v1.064l.027.439v6.316h-.944zm-1.25-6.197v-.784h4.322v.784h-4.322zm8.445 6.263c-.727 0-1.365-.15-1.914-.452-.55-.31-.98-.731-1.29-1.263-.31-.54-.466-1.157-.466-1.848 0-.692.147-1.303.44-1.835.3-.532.708-.949 1.223-1.25a3.374 3.374 0 011.755-.466c.656 0 1.236.151 1.742.452.514.293.917.71 1.21 1.25.292.532.439 1.148.439 1.849a.891.891 0 01-.014.146v.146h-6.077v-.704h5.572l-.372.279c0-.505-.111-.953-.333-1.343a2.339 2.339 0 00-.877-.931 2.474 2.474 0 00-1.29-.332c-.479 0-.909.11-1.29.332a2.311 2.311 0 00-.891.93c-.213.4-.32.856-.32 1.37v.147c0 .531.116 1.001.347 1.41.239.398.567.713.984.943.425.222.908.333 1.45.333.425 0 .82-.076 1.183-.226a2.47 2.47 0 00.957-.692l.532.612c-.31.372-.7.656-1.17.851a3.89 3.89 0 01-1.53.293zm8.74-.066V8.879h4.016c1.037 0 1.84.208 2.407.625.576.416.864 1.006.864 1.768 0 .506-.12.931-.359 1.277a2.15 2.15 0 01-.957.784 3.205 3.205 0 01-1.317.266l.226-.319c.594 0 1.104.093 1.53.28.434.177.77.447 1.01.81.24.355.36.799.36 1.33 0 .79-.293 1.401-.879 1.835-.576.435-1.449.652-2.62.652h-4.28zm.984-.811h3.285c.815 0 1.44-.138 1.875-.412.434-.284.651-.732.651-1.343 0-.603-.217-1.042-.651-1.317-.435-.284-1.06-.425-1.875-.425h-3.391v-.811H79.1c.744 0 1.32-.142 1.728-.426.417-.284.625-.705.625-1.263 0-.568-.208-.989-.625-1.264-.408-.283-.984-.425-1.728-.425h-2.966v7.686zm8.842.811v-6.981h.904v1.901l-.093-.332c.195-.532.523-.935.984-1.21.46-.284 1.033-.426 1.715-.426v.918h-.106a.44.44 0 00-.106-.014c-.736 0-1.313.227-1.73.679-.416.443-.624 1.077-.624 1.901v3.564h-.944zm8.014.066c-.674 0-1.281-.15-1.822-.452a3.453 3.453 0 01-1.263-1.263c-.31-.54-.466-1.157-.466-1.848 0-.7.156-1.317.466-1.849a3.36 3.36 0 011.263-1.25c.532-.301 1.14-.452 1.822-.452.691 0 1.303.151 1.835.452.54.302.962.719 1.263 1.25.31.532.466 1.148.466 1.849 0 .691-.156 1.307-.466 1.848a3.325 3.325 0 01-1.263 1.263c-.54.302-1.153.453-1.835.453zm0-.837c.505 0 .953-.111 1.343-.333.39-.23.696-.55.917-.957.23-.417.346-.896.346-1.436 0-.55-.115-1.029-.346-1.436a2.353 2.353 0 00-.917-.944 2.564 2.564 0 00-1.33-.346c-.496 0-.94.115-1.33.345-.39.222-.7.537-.93.945-.231.407-.346.886-.346 1.436 0 .54.115 1.02.346 1.436.23.408.54.727.93.957.39.222.83.333 1.317.333zm6.72.771l-2.634-6.981h.904l2.394 6.476h-.412l2.46-6.476h.811l2.433 6.476h-.412l2.434-6.476h.864l-2.646 6.981h-.891l-2.341-6.09h.28l-2.354 6.09h-.89zm12.061.066c-.577 0-1.122-.08-1.636-.239-.514-.168-.918-.377-1.21-.625l.425-.744c.284.212.648.398 1.091.558.443.15.909.226 1.396.226.665 0 1.144-.102 1.436-.306.293-.213.439-.492.439-.838 0-.257-.084-.456-.253-.598a1.454 1.454 0 00-.638-.332 7.029 7.029 0 00-.891-.2 19.226 19.226 0 01-.984-.186 3.78 3.78 0 01-.877-.306 1.844 1.844 0 01-.652-.572c-.16-.239-.239-.558-.239-.957 0-.381.106-.723.319-1.024.213-.301.523-.536.931-.705.416-.177.922-.266 1.515-.266.453 0 .905.062 1.357.187.452.115.824.27 1.117.465l-.412.758a3.076 3.076 0 00-.998-.452 3.993 3.993 0 00-1.064-.146c-.629 0-1.094.11-1.396.332-.292.213-.439.488-.439.824 0 .266.08.475.24.625.168.151.385.27.651.36.275.08.572.146.891.199.328.053.652.12.971.2.328.07.625.172.891.305.275.124.492.306.652.545.168.23.252.537.252.918a1.7 1.7 0 01-.346 1.064c-.221.292-.549.523-.984.691-.425.16-.944.24-1.555.24zm4.618-.066v-6.981h.944v6.981h-.944zm.478-8.524a.669.669 0 01-.492-.2.652.652 0 01-.199-.478.61.61 0 01.199-.465.669.669 0 01.492-.2c.195 0 .359.062.492.186s.2.28.2.466a.669.669 0 01-.2.492.641.641 0 01-.492.2zm6.656 1.476c.568 0 1.064.111 1.49.333.434.213.771.54 1.01.984.249.443.373 1.002.373 1.675v4.056h-.944v-3.963c0-.736-.187-1.29-.559-1.662-.363-.381-.878-.572-1.542-.572-.497 0-.931.102-1.304.306a2.056 2.056 0 00-.851.865c-.195.372-.292.824-.292 1.356v3.67h-.944v-6.981h.904v1.915l-.146-.36a2.5 2.5 0 011.064-1.183c.487-.292 1.068-.439 1.741-.439zm8.402 9.694c-.639 0-1.25-.093-1.835-.279-.586-.186-1.06-.452-1.423-.798l.478-.718c.328.293.732.523 1.211.692a4.472 4.472 0 001.542.265c.887 0 1.538-.208 1.955-.625.416-.407.625-1.046.625-1.914v-1.742l.133-1.197-.093-1.197v-2.114h.904v6.13c0 1.206-.297 2.088-.891 2.646-.585.567-1.454.851-2.606.851zm-.173-2.912c-.665 0-1.264-.142-1.795-.425a3.32 3.32 0 01-1.264-1.21c-.301-.515-.452-1.104-.452-1.77 0-.664.151-1.25.452-1.754a3.223 3.223 0 011.264-1.197c.531-.284 1.13-.426 1.795-.426.62 0 1.179.129 1.675.386a2.88 2.88 0 011.184 1.143c.292.506.439 1.122.439 1.849 0 .727-.147 1.343-.439 1.848a2.969 2.969 0 01-1.184 1.157 3.49 3.49 0 01-1.675.4zm.093-.838c.514 0 .971-.106 1.369-.319.399-.221.714-.523.945-.904.23-.39.345-.838.345-1.343s-.115-.949-.345-1.33a2.41 2.41 0 00-.945-.89 2.768 2.768 0 00-1.369-.333c-.505 0-.962.11-1.37.332a2.41 2.41 0 00-.944.891c-.222.381-.332.825-.332 1.33 0 .505.11.953.332 1.343a2.5 2.5 0 00.944.904c.408.213.865.32 1.37.32zm-84.532 17.63a5.8 5.8 0 01-2.034-.346 4.95 4.95 0 01-1.61-1.01 4.746 4.746 0 01-1.063-1.53 4.887 4.887 0 01-.373-1.927c0-.7.125-1.343.373-1.929a4.648 4.648 0 011.077-1.529 4.746 4.746 0 011.622-.997 5.644 5.644 0 012.048-.36c.825 0 1.565.138 2.22.413a4.4 4.4 0 011.676 1.197l-1.383 1.276a3.286 3.286 0 00-1.103-.784 3.172 3.172 0 00-1.304-.266c-.452 0-.864.07-1.236.213a2.823 2.823 0 00-.971.611 2.887 2.887 0 00-.625.944 3.304 3.304 0 00-.213 1.21c0 .435.071.834.213 1.197.15.364.359.683.625.958.275.266.594.47.957.611.373.142.78.213 1.224.213.425 0 .837-.066 1.236-.2a3.67 3.67 0 001.184-.704l1.223 1.556a5.6 5.6 0 01-1.768.877 6.771 6.771 0 01-1.995.306zm1.795-1.462v-3.498h1.968v3.777l-1.968-.28zm7.227 1.41c-.762 0-1.44-.16-2.034-.48a3.727 3.727 0 01-1.397-1.303c-.336-.558-.505-1.192-.505-1.901 0-.718.169-1.352.505-1.902a3.591 3.591 0 011.397-1.303c.594-.32 1.272-.479 2.034-.479.754 0 1.428.16 2.021.479.594.31 1.06.74 1.397 1.29.337.55.505 1.188.505 1.915 0 .709-.168 1.343-.505 1.901a3.6 3.6 0 01-1.397 1.303c-.593.32-1.267.48-2.02.48zm0-1.703c.346 0 .656-.08.931-.24a1.71 1.71 0 00.652-.678c.16-.3.24-.655.24-1.063 0-.417-.08-.772-.24-1.064a1.715 1.715 0 00-.652-.678 1.82 1.82 0 00-.93-.24c-.346 0-.657.08-.931.24a1.81 1.81 0 00-.665.678c-.16.292-.24.647-.24 1.064 0 .407.08.762.24 1.064.168.292.39.518.664.678.275.16.586.239.931.239zm8.714 1.702c-.763 0-1.44-.16-2.035-.479a3.726 3.726 0 01-1.396-1.303c-.337-.558-.505-1.192-.505-1.901 0-.718.168-1.352.505-1.902a3.59 3.59 0 011.396-1.303c.594-.32 1.272-.479 2.035-.479.753 0 1.427.16 2.021.479.594.31 1.06.74 1.396 1.29.337.55.506 1.188.506 1.915 0 .709-.169 1.343-.506 1.901a3.6 3.6 0 01-1.396 1.303c-.594.32-1.268.48-2.021.48zm0-1.702c.346 0 .656-.08.93-.24.275-.159.493-.385.652-.678.16-.3.24-.655.24-1.063 0-.417-.08-.772-.24-1.064a1.714 1.714 0 00-.651-.678 1.82 1.82 0 00-.931-.24c-.346 0-.656.08-.931.24a1.81 1.81 0 00-.665.678c-.16.292-.24.647-.24 1.064 0 .407.08.762.24 1.064.169.292.39.518.665.678.275.16.585.239.93.239zm8.673 4.282a7.531 7.531 0 01-1.954-.253c-.62-.16-1.14-.403-1.556-.731l.824-1.49c.302.249.683.444 1.144.586.47.15.93.226 1.383.226.736 0 1.268-.164 1.596-.492.337-.328.505-.816.505-1.463v-1.077l.133-1.795-.027-1.809V27.4h1.968v5.957c0 1.33-.345 2.31-1.037 2.939-.691.63-1.684.944-2.978.944zm-.319-3.032a3.834 3.834 0 01-1.808-.425 3.52 3.52 0 01-1.29-1.21c-.32-.524-.479-1.13-.479-1.822 0-.7.16-1.308.479-1.822a3.378 3.378 0 011.29-1.21 3.832 3.832 0 011.808-.426c.603 0 1.135.124 1.596.373.461.239.82.616 1.077 1.13.257.505.386 1.157.386 1.955 0 .789-.129 1.44-.386 1.954A2.56 2.56 0 0175 33.835c-.46.249-.993.373-1.596.373zm.413-1.702c.363 0 .687-.071.97-.213.284-.15.506-.359.665-.625.16-.266.24-.572.24-.917 0-.355-.08-.66-.24-.918a1.584 1.584 0 00-.665-.612 2.037 2.037 0 00-.97-.226c-.364 0-.688.076-.971.226a1.67 1.67 0 00-.678.612c-.16.257-.24.563-.24.918 0 .345.08.651.24.917.168.266.394.474.678.625.284.142.607.213.97.213zm5.853 2.048v-9.867h2.075v9.867h-2.075zm7.55.106c-.815 0-1.533-.16-2.154-.479a3.556 3.556 0 01-1.423-1.303c-.337-.558-.505-1.192-.505-1.901 0-.718.164-1.352.492-1.902a3.52 3.52 0 011.37-1.303c.576-.32 1.227-.479 1.954-.479.7 0 1.33.151 1.888.452a3.267 3.267 0 011.344 1.277c.328.55.492 1.21.492 1.981 0 .08-.005.173-.014.28l-.026.279h-5.811v-1.21h4.72l-.798.359c0-.373-.075-.696-.226-.971a1.604 1.604 0 00-.625-.638 1.774 1.774 0 00-.93-.24c-.355 0-.67.08-.945.24-.266.15-.474.368-.625.651-.15.275-.226.603-.226.984v.32c0 .39.085.735.253 1.037a1.8 1.8 0 00.731.678c.32.15.692.226 1.117.226.382 0 .714-.058.998-.173.292-.115.558-.288.797-.519l1.104 1.197c-.328.373-.74.66-1.236.864-.497.196-1.069.293-1.716.293z" fill="#fff"/><defs><linearGradient id="paint0_linear_1804_8320" x1="17.166" y1="5.621" x2="17.166" y2="7.855" gradientUnits="userSpaceOnUse"><stop stop-color="#263238" stop-opacity=".35"/><stop offset=".42" stop-color="#263238" stop-opacity=".15"/><stop offset=".89" stop-color="#263238" stop-opacity=".02"/><stop offset="1" stop-color="#263238" stop-opacity="0"/></linearGradient><clipPath id="clip0_1804_8320"><path fill="#fff" transform="translate(.8 .073)" d="M0 0h32.732v49.099H0z"/></clipPath></defs></svg>