<svg width="134" height="33" fill="none" xmlns="http://www.w3.org/2000/svg"><path fill-rule="evenodd" clip-rule="evenodd" d="M3.665 2.233C1.641 2.233 0 3.836 0 5.813v21.481c0 1.977 1.641 3.58 3.665 3.58H40.32c2.024 0 3.665-1.603 3.665-3.58V5.814c0-1.978-1.64-3.58-3.665-3.58H3.665zm20.399 22.57l-4.356-4.72 1.222-1.039-3.081-3.32 1.221-1.038-3.08-3.32 4.833-4.203 1.54 1.608L25.02 6.54l1.54 1.556 1.01-.882a9.582 9.582 0 01-.346-.181 9.326 9.326 0 00-.345-.182c-1.54-.622-3.187-1.037-4.94-1.037-6.109 0-11.102 4.825-11.102 10.74s4.993 10.74 11.155 10.74a11.25 11.25 0 005.471-1.4c.532-.312 1.01-.623 1.488-.935l-2.231-2.438-2.656 2.283zm-6.056-13.282l2.39 2.542 2.657-2.283-2.39-2.542-2.657 2.283zm6.959 4.618l-2.39-2.543-2.657 2.283 2.39 2.595 2.657-2.335zm-.531 1.868l2.39 2.542-2.656 2.335-2.39-2.543 2.656-2.334zm.212-5.812l-1.753-1.92 1.966-1.712 1.806 1.92-2.019 1.712zm3.825 2.128l-1.806-1.92-1.966 1.764 1.806 1.868 1.966-1.712zm-.106 2.127l1.806 1.92-1.966 1.764-1.806-1.972 1.966-1.712zm1.912-4.41l-1.328 1.141 1.222 1.297 1.275-1.141-1.169-1.297zm1.54 6.226l-1.168-1.297 1.275-1.142 1.222 1.298-1.329 1.141zm-4.568-8.872l1.222 1.297 1.275-1.142-1.169-1.297-1.328 1.142zm2.71 14.58l-1.807-1.92 1.966-1.712 1.806 1.92-1.966 1.712z" fill="#137ABE"/><path d="M56.302 13.187l-3.099-6.981h.984l2.846 6.476h-.465l2.885-6.476h.93l-3.11 6.981h-.971zm8.182.067c-.727 0-1.365-.151-1.915-.453-.55-.31-.98-.731-1.29-1.263-.31-.54-.465-1.157-.465-1.848 0-.692.146-1.303.439-1.835a3.307 3.307 0 011.223-1.25 3.375 3.375 0 011.755-.466c.657 0 1.237.151 1.743.452.514.293.917.71 1.21 1.25.292.532.438 1.148.438 1.849a.903.903 0 01-.013.146v.146h-6.077v-.704h5.572l-.373.279c0-.506-.11-.953-.332-1.343a2.339 2.339 0 00-.878-.931 2.473 2.473 0 00-1.29-.333 2.52 2.52 0 00-1.29.333 2.31 2.31 0 00-.89.93c-.213.4-.32.856-.32 1.37v.147c0 .531.116 1.001.346 1.41.24.398.568.713.984.943a3.09 3.09 0 001.45.333c.425 0 .82-.076 1.183-.226.373-.151.692-.381.958-.692l.531.612c-.31.372-.7.656-1.17.851a3.88 3.88 0 01-1.529.293zm5.06-.067V6.206h.904v1.901l-.093-.332c.195-.532.523-.935.984-1.21.461-.284 1.033-.426 1.716-.426v.918h-.107a.436.436 0 00-.106-.013c-.736 0-1.312.226-1.729.678-.416.443-.625 1.077-.625 1.901v3.564h-.944zm5.233 0V6.206h.945v6.981h-.945zm.48-8.524a.669.669 0 01-.493-.2.653.653 0 01-.2-.478.61.61 0 01.2-.465.669.669 0 01.492-.2c.195 0 .36.062.492.186.133.125.2.28.2.466a.668.668 0 01-.2.492.641.641 0 01-.492.2zm3.251 8.524V5.328c0-.62.182-1.121.545-1.502.364-.382.887-.572 1.57-.572.265 0 .522.035.77.106.249.071.457.182.626.333l-.32.704a1.25 1.25 0 00-.465-.252 1.72 1.72 0 00-.572-.093c-.399 0-.705.11-.917.332-.213.222-.32.55-.32.984v1.064l.027.439v6.316h-.944zm-1.25-6.197v-.784h4.322v.784h-4.322zm5.598 6.197V6.206h.945v6.981h-.945zm.48-8.524a.669.669 0 01-.493-.2.653.653 0 01-.2-.478.61.61 0 01.2-.465.669.669 0 01.492-.2c.195 0 .36.062.492.186.133.125.2.28.2.466a.668.668 0 01-.2.492.641.641 0 01-.492.2zm6.081 8.59c-.727 0-1.365-.15-1.915-.452-.55-.31-.98-.731-1.29-1.263-.31-.54-.465-1.157-.465-1.848 0-.692.146-1.303.439-1.835a3.307 3.307 0 011.223-1.25 3.375 3.375 0 011.755-.466c.656 0 1.237.151 1.742.452a3.1 3.1 0 011.21 1.25c.293.532.44 1.148.44 1.849a.903.903 0 01-.014.146v.146h-6.077v-.704h5.572l-.373.279c0-.506-.11-.953-.332-1.343a2.34 2.34 0 00-.878-.931 2.474 2.474 0 00-1.29-.333 2.52 2.52 0 00-1.29.333 2.311 2.311 0 00-.89.93c-.213.4-.32.856-.32 1.37v.147c0 .531.116 1.001.346 1.41.24.398.568.713.984.943a3.09 3.09 0 001.45.333c.425 0 .82-.076 1.183-.226.373-.151.692-.381.958-.692l.532.612c-.31.372-.7.656-1.17.851a3.893 3.893 0 01-1.53.293zm7.84 0c-.666 0-1.264-.15-1.796-.452a3.284 3.284 0 01-1.237-1.25c-.301-.54-.452-1.16-.452-1.861 0-.71.15-1.33.452-1.862a3.19 3.19 0 011.237-1.237 3.577 3.577 0 011.795-.452c.612 0 1.157.138 1.636.413.487.274.873.678 1.157 1.21.292.523.438 1.165.438 1.928 0 .753-.141 1.396-.425 1.928-.284.532-.67.94-1.157 1.223-.479.275-1.028.413-1.649.413zm.066-.837c.496 0 .94-.111 1.33-.333.398-.23.709-.55.93-.957.23-.417.346-.896.346-1.436 0-.55-.115-1.029-.346-1.436a2.328 2.328 0 00-.93-.945 2.564 2.564 0 00-1.33-.345c-.488 0-.927.115-1.317.345-.39.222-.7.537-.93.945-.231.407-.346.886-.346 1.436 0 .54.115 1.02.345 1.436.23.408.541.727.931.957.39.222.83.333 1.317.333zm2.633.771v-2.101l.093-1.41-.133-1.41V3.32h.944v9.867h-.904zM56.528 29.554l-3.045-9.309h2.234l2.646 8.245h-1.117l2.766-8.245h1.994l2.66 8.245h-1.077l2.712-8.245h2.061l-3.045 9.309h-2.313L60.65 22.32h.612l-2.42 7.234h-2.314zm15.909.106c-.816 0-1.534-.16-2.154-.479a3.555 3.555 0 01-1.423-1.303c-.337-.558-.505-1.192-.505-1.901 0-.718.163-1.352.492-1.902a3.519 3.519 0 011.37-1.303c.575-.32 1.227-.479 1.954-.479.7 0 1.33.151 1.888.452a3.266 3.266 0 011.343 1.277c.328.55.492 1.21.492 1.981 0 .08-.004.173-.013.28l-.027.279h-5.81v-1.21h4.72l-.798.359c0-.373-.075-.696-.226-.971a1.604 1.604 0 00-.625-.638 1.774 1.774 0 00-.93-.24c-.356 0-.67.08-.945.24-.266.15-.474.368-.625.651-.15.275-.226.603-.226.984v.32c0 .39.084.735.253 1.037a1.8 1.8 0 00.731.678c.32.15.691.226 1.117.226.381 0 .714-.058.997-.173.293-.115.559-.288.798-.519l1.104 1.197c-.328.372-.74.66-1.237.864-.496.196-1.068.293-1.715.293zm9.067 0c-.63 0-1.17-.133-1.622-.399-.453-.266-.798-.67-1.038-1.21-.239-.55-.359-1.241-.359-2.074 0-.843.124-1.534.373-2.075.257-.54.611-.944 1.063-1.21.453-.266.98-.399 1.583-.399.674 0 1.276.151 1.808.452.541.302.967.727 1.277 1.277.319.55.479 1.201.479 1.955 0 .744-.16 1.392-.48 1.941-.31.55-.735.98-1.276 1.29-.532.301-1.134.452-1.808.452zm-4.229-.106v-9.867h2.075v4.162l-.133 2.114.04 2.128v1.463h-1.982zm3.87-1.596a1.742 1.742 0 001.569-.917c.168-.302.253-.657.253-1.064 0-.417-.085-.772-.253-1.064a1.714 1.714 0 00-.652-.678 1.748 1.748 0 00-.917-.24c-.346 0-.656.08-.931.24-.275.16-.492.385-.652.678-.16.292-.239.647-.239 1.064 0 .407.08.762.24 1.064.159.292.376.518.651.678.275.16.585.239.93.239zm5.458 1.596v-9.309h1.781l3.963 6.57h-.944l3.896-6.57h1.769l.026 9.309h-2.02l-.014-6.21h.372L92.32 28.57h-.97l-3.178-5.226h.452v6.21h-2.021zm15.958.106c-.763 0-1.441-.16-2.035-.479a3.726 3.726 0 01-1.396-1.303c-.337-.558-.505-1.192-.505-1.901 0-.718.168-1.352.505-1.902a3.59 3.59 0 011.396-1.303c.594-.32 1.272-.479 2.035-.479.753 0 1.427.16 2.021.479a3.5 3.5 0 011.396 1.29c.337.55.505 1.188.505 1.915 0 .709-.168 1.343-.505 1.901a3.6 3.6 0 01-1.396 1.303c-.594.32-1.268.48-2.021.48zm0-1.702c.345 0 .656-.08.93-.24.275-.159.492-.385.652-.677.16-.302.239-.657.239-1.064 0-.417-.079-.772-.239-1.064a1.718 1.718 0 00-.652-.678 1.816 1.816 0 00-.93-.24c-.346 0-.656.08-.931.24-.275.16-.497.385-.665.678-.16.292-.239.647-.239 1.064 0 .407.079.762.239 1.064.168.292.39.518.665.678.275.16.585.239.931.239zm9.657-5.665c.568 0 1.073.116 1.516.346.452.222.807.567 1.064 1.037.257.461.386 1.055.386 1.782v4.096h-2.075v-3.777c0-.576-.128-1.002-.385-1.276-.249-.275-.603-.413-1.064-.413-.328 0-.625.071-.891.213a1.44 1.44 0 00-.612.625c-.142.284-.213.647-.213 1.09v3.538h-2.074V22.4h1.981v1.981l-.372-.598a2.649 2.649 0 011.104-1.104c.478-.257 1.024-.386 1.635-.386zm8.448 7.367c-.815 0-1.533-.16-2.154-.479a3.561 3.561 0 01-1.423-1.303c-.336-.558-.505-1.192-.505-1.901 0-.718.164-1.352.492-1.902a3.516 3.516 0 011.37-1.303c.576-.32 1.228-.479 1.954-.479.701 0 1.33.151 1.889.452a3.268 3.268 0 011.343 1.277c.328.55.492 1.21.492 1.981 0 .08-.005.173-.014.28-.008.097-.017.19-.026.279h-5.811v-1.21h4.72l-.797.359c0-.373-.076-.696-.226-.971a1.606 1.606 0 00-.625-.638 1.776 1.776 0 00-.931-.24c-.355 0-.67.08-.944.24-.266.15-.475.368-.625.651-.151.275-.226.603-.226.984v.32c0 .39.084.735.252 1.037.178.292.421.518.732.678.319.15.691.226 1.117.226.381 0 .713-.058.997-.173.292-.115.558-.288.798-.519l1.103 1.197a3.28 3.28 0 01-1.236.864c-.497.196-1.068.293-1.716.293zm5.613 2.58c-.372 0-.74-.058-1.103-.173a2.428 2.428 0 01-.891-.479l.758-1.476a1.791 1.791 0 001.17.452c.292 0 .523-.07.691-.212.178-.133.337-.36.479-.679l.372-.877.16-.226 2.566-6.17h1.995l-3.231 7.593c-.231.576-.497 1.028-.798 1.356a2.448 2.448 0 01-.984.691 3.35 3.35 0 01-1.184.2zm1.224-2.407l-3.192-7.433h2.141l2.473 5.984-1.422 1.449z" fill="#fff"/></svg>