<svg width="20" height="21" fill="none" xmlns="http://www.w3.org/2000/svg"><path fill-rule="evenodd" clip-rule="evenodd" d="M2.216 2.191L0 1.986.188 0l3.556.33.92 2.94L20 4.69l-.697 7.363-13.306 2.23-3.78-12.092zm3.092 3.141l2.093 6.693 10.04-1.683.364-3.852L5.308 5.332zm10.334 13.673a.501.501 0 00.504-.498.501.501 0 00-.504-.499.501.501 0 00-.504.499c0 .275.226.498.504.498zm0 1.995c1.392 0 2.52-1.116 2.52-2.493 0-1.377-1.128-2.494-2.52-2.494-1.391 0-2.52 1.117-2.52 2.494 0 1.377 1.129 2.493 2.52 2.493zm-8.064-1.995a.501.501 0 00.504-.498.501.501 0 00-.504-.499.501.501 0 00-.504.499c0 .275.226.498.504.498zm0 1.995c1.392 0 2.52-1.116 2.52-2.493 0-1.377-1.128-2.494-2.52-2.494-1.391 0-2.52 1.117-2.52 2.494 0 1.377 1.129 2.493 2.52 2.493z" fill="#CCC"/></svg>