<svg width="17" height="20" fill="none" xmlns="http://www.w3.org/2000/svg"><path fill-rule="evenodd" clip-rule="evenodd" d="M8.5 2a2.911 2.911 0 00-2.9 2.923 2.911 2.911 0 002.9 2.924c1.596 0 2.9-1.303 2.9-2.924A2.911 2.911 0 008.5 2zM3.6 4.923C3.6 2.21 5.788 0 8.5 0s4.9 2.21 4.9 4.923c0 2.714-2.188 4.924-4.9 4.924s-4.9-2.21-4.9-4.924zm1.3 8.538c-1.596 0-2.9 1.303-2.9 2.925V18h13v-1.614c0-1.621-1.304-2.925-2.9-2.925H4.9zM0 16.386c0-2.714 2.188-4.925 4.9-4.925h7.2c2.712 0 4.9 2.21 4.9 4.925V20H0v-3.614z" fill="#504E57"/></svg>