<svg width="20" height="18" fill="none" xmlns="http://www.w3.org/2000/svg"><path fill-rule="evenodd" clip-rule="evenodd" d="M16.313 1.072L5.399 18l-1.712-1.072L14.602 0l1.711 1.072zm.253 14.628c.777 0 1.406-.621 1.406-1.387 0-.765-.63-1.386-1.406-1.386-.776 0-1.406.621-1.406 1.386 0 .766.63 1.386 1.406 1.386zm0 1.998c1.897 0 3.434-1.515 3.434-3.385 0-1.869-1.537-3.384-3.434-3.384-1.896 0-3.434 1.515-3.434 3.384 0 1.87 1.538 3.385 3.434 3.385zM3.434 5.072c.777 0 1.406-.62 1.406-1.386 0-.765-.63-1.386-1.406-1.386-.777 0-1.406.621-1.406 1.386 0 .766.63 1.386 1.406 1.386zm0 1.999c1.896 0 3.434-1.515 3.434-3.385C6.868 1.817 5.33.302 3.434.302 1.537.302 0 1.817 0 3.686c0 1.87 1.537 3.385 3.434 3.385z" fill="#504E57"/></svg>