<svg width="23" height="28" fill="none" xmlns="http://www.w3.org/2000/svg"><path d="M12.385 7.875V0H6.192c-.704 0-1.379.277-1.876.769a2.61 2.61 0 00-.778 1.856v19.25c0 .696.28 1.364.778 1.856a2.669 2.669 0 001.876.769h14.154c.704 0 1.379-.277 1.877-.769A2.61 2.61 0 0023 21.875V10.5h-7.961a2.669 2.669 0 01-1.877-.769 2.61 2.61 0 01-.777-1.856zm1.769 0V.437l8.404 8.313h-7.52a.89.89 0 01-.625-.256.87.87 0 01-.26-.619zM0 5.25c0-.464.186-.91.518-1.237A1.78 1.78 0 011.77 3.5v18.375c0 1.16.466 2.273 1.296 3.094a4.448 4.448 0 003.127 1.281h13.27c0 .464-.187.91-.519 1.237a1.78 1.78 0 01-1.25.513H6.276a6.312 6.312 0 01-4.438-1.819A6.175 6.175 0 010 21.791V5.25z" fill="#4277FF"/></svg>