<svg width="58" height="55" fill="none" xmlns="http://www.w3.org/2000/svg"><path d="M29 2.948l6.29 17.44.23.639.678.022 18.53.591-14.643 11.371-.537.416.19.652L44.9 51.886 29.56 41.473 29 41.09l-.562.382L13.1 51.886l5.163-17.807.19-.652-.537-.416-14.643-11.37 18.53-.592.679-.022.23-.639L29 2.948z" fill="url(#paint0_linear_1437_3487)"/><path d="M29 2.948l6.29 17.44.23.639.678.022 18.53.591-14.643 11.371-.537.416.19.652L44.9 51.886 29.56 41.473 29 41.09l-.562.382L13.1 51.886l5.163-17.807.19-.652-.537-.416-14.643-11.37 18.53-.592.679-.022.23-.639L29 2.948z" stroke="url(#paint1_linear_1437_3487)" stroke-width="2" style="mix-blend-mode:overlay"/><path d="M29 2.948l6.29 17.44.23.639.678.022 18.53.591-14.643 11.371-.537.416.19.652L44.9 51.886 29.56 41.473 29 41.09l-.562.382L13.1 51.886l5.163-17.807.19-.652-.537-.416-14.643-11.37 18.53-.592.679-.022.23-.639L29 2.948z" stroke="url(#paint2_linear_1437_3487)" stroke-width="2" style="mix-blend-mode:overlay"/><defs><linearGradient id="paint0_linear_1437_3487" x1="-9.372" y1="48.517" x2="70.483" y2="-2.166" gradientUnits="userSpaceOnUse"><stop stop-color="#2C1AFF"/><stop offset=".98" stop-color="#13C6FF" stop-opacity="0"/></linearGradient><linearGradient id="paint1_linear_1437_3487" x1="48.636" y1="3.818" x2="1.727" y2="61.773" gradientUnits="userSpaceOnUse"><stop stop-color="#fff" stop-opacity=".7"/><stop offset="1" stop-color="#fff" stop-opacity="0"/></linearGradient><linearGradient id="paint2_linear_1437_3487" x1="14.136" y1="12.273" x2="3.909" y2="3.955" gradientUnits="userSpaceOnUse"><stop stop-color="#fff"/><stop offset="1" stop-color="#fff" stop-opacity="0"/></linearGradient></defs></svg>