<svg width="24" height="25" fill="none" xmlns="http://www.w3.org/2000/svg"><path fill-rule="evenodd" clip-rule="evenodd" d="M2.66 2.609L0 2.364.225 0l4.268.392 1.103 3.5L24 5.582l-.836 8.767-15.968 2.655L2.66 2.609zm3.71 3.739l2.511 7.967 12.047-2.003.438-4.586L6.37 6.348zm12.4 16.277a.6.6 0 00.605-.593.6.6 0 00-.604-.594.6.6 0 00-.605.594.6.6 0 00.605.593zm0 2.375c1.67 0 3.025-1.329 3.025-2.968 0-1.64-1.354-2.968-3.024-2.968s-3.024 1.329-3.024 2.968c0 1.64 1.354 2.968 3.024 2.968zm-9.676-2.375a.6.6 0 00.605-.593.6.6 0 00-.605-.594.6.6 0 00-.605.594.6.6 0 00.605.593zm0 2.375c1.67 0 3.024-1.329 3.024-2.968 0-1.64-1.354-2.968-3.024-2.968S6.07 20.393 6.07 22.032C6.07 23.672 7.424 25 9.094 25z" fill="#fff" fill-opacity=".1"/></svg>