<svg width="21" height="17" fill="none" xmlns="http://www.w3.org/2000/svg"><path fill-rule="evenodd" clip-rule="evenodd" d="M5.798 2C3.622 2 2 3.607 2 5.42c0 .879.378 1.74 1.083 2.389L10.5 14.64l7.417-6.831C18.622 7.16 19 6.299 19 5.419 19 3.607 17.378 2 15.202 2c-1.033 0-2.008.379-2.716 1.03l-1.309 1.206a1 1 0 01-1.354 0L8.513 3.03C7.807 2.379 6.832 2 5.799 2zM0 5.42C0 2.35 2.675 0 5.798 0c1.513 0 2.978.553 4.07 1.559l.632.581.631-.581C12.224.553 13.69 0 15.201 0 18.326 0 21 2.35 21 5.42c0 1.465-.633 2.851-1.728 3.86l-8.094 7.455a1 1 0 01-1.355 0L1.728 9.28C.633 8.271 0 6.885 0 5.42z" fill="#77BE1D"/></svg>