<svg width="108" height="42" fill="none" xmlns="http://www.w3.org/2000/svg"><path d="M7.984 33V13.112H.32V9.96h18.672v3.152h-7.664V33H7.984zm18.51.48c-1.728 0-3.227-.39-4.496-1.168-1.27-.779-2.25-1.85-2.944-3.216-.683-1.376-1.024-2.96-1.024-4.752 0-1.803.352-3.387 1.056-4.752.704-1.376 1.69-2.443 2.96-3.2 1.27-.768 2.752-1.152 4.448-1.152 1.728 0 3.227.39 4.496 1.168 1.27.779 2.25 1.85 2.944 3.216.693 1.365 1.04 2.939 1.04 4.72 0 1.803-.352 3.392-1.056 4.768-.693 1.365-1.675 2.437-2.944 3.216-1.27.768-2.763 1.152-4.48 1.152zm0-3.152c1.653 0 2.885-.555 3.696-1.664.821-1.12 1.232-2.56 1.232-4.32 0-1.803-.416-3.243-1.248-4.32-.821-1.088-2.048-1.632-3.68-1.632-1.12 0-2.043.256-2.768.768-.725.501-1.264 1.2-1.616 2.096-.352.885-.528 1.915-.528 3.088 0 1.813.416 3.264 1.248 4.352.832 1.088 2.053 1.632 3.664 1.632zM38.474 33V15.72H53.05V33h-3.344V18.872h-7.888V33h-3.344zm35.214 0v-4.016h-10.4v-3.168L70.775 9.96H74.6l-7.488 15.856h6.576v-6.24h3.391v6.24h2.289v3.168H77.08V33h-3.392z" fill="#fff"/><path d="M7.984 33V13.112H.32V9.96h18.672v3.152h-7.664V33H7.984zm18.51.48c-1.728 0-3.227-.39-4.496-1.168-1.27-.779-2.25-1.85-2.944-3.216-.683-1.376-1.024-2.96-1.024-4.752 0-1.803.352-3.387 1.056-4.752.704-1.376 1.69-2.443 2.96-3.2 1.27-.768 2.752-1.152 4.448-1.152 1.728 0 3.227.39 4.496 1.168 1.27.779 2.25 1.85 2.944 3.216.693 1.365 1.04 2.939 1.04 4.72 0 1.803-.352 3.392-1.056 4.768-.693 1.365-1.675 2.437-2.944 3.216-1.27.768-2.763 1.152-4.48 1.152zm0-3.152c1.653 0 2.885-.555 3.696-1.664.821-1.12 1.232-2.56 1.232-4.32 0-1.803-.416-3.243-1.248-4.32-.821-1.088-2.048-1.632-3.68-1.632-1.12 0-2.043.256-2.768.768-.725.501-1.264 1.2-1.616 2.096-.352.885-.528 1.915-.528 3.088 0 1.813.416 3.264 1.248 4.352.832 1.088 2.053 1.632 3.664 1.632zM38.474 33V15.72H53.05V33h-3.344V18.872h-7.888V33h-3.344zm35.214 0v-4.016h-10.4v-3.168L70.775 9.96H74.6l-7.488 15.856h6.576v-6.24h3.391v6.24h2.289v3.168H77.08V33h-3.392z" fill="url(#paint0_angular_2074_2017)"/><path d="M7.984 33V13.112H.32V9.96h18.672v3.152h-7.664V33H7.984zm18.51.48c-1.728 0-3.227-.39-4.496-1.168-1.27-.779-2.25-1.85-2.944-3.216-.683-1.376-1.024-2.96-1.024-4.752 0-1.803.352-3.387 1.056-4.752.704-1.376 1.69-2.443 2.96-3.2 1.27-.768 2.752-1.152 4.448-1.152 1.728 0 3.227.39 4.496 1.168 1.27.779 2.25 1.85 2.944 3.216.693 1.365 1.04 2.939 1.04 4.72 0 1.803-.352 3.392-1.056 4.768-.693 1.365-1.675 2.437-2.944 3.216-1.27.768-2.763 1.152-4.48 1.152zm0-3.152c1.653 0 2.885-.555 3.696-1.664.821-1.12 1.232-2.56 1.232-4.32 0-1.803-.416-3.243-1.248-4.32-.821-1.088-2.048-1.632-3.68-1.632-1.12 0-2.043.256-2.768.768-.725.501-1.264 1.2-1.616 2.096-.352.885-.528 1.915-.528 3.088 0 1.813.416 3.264 1.248 4.352.832 1.088 2.053 1.632 3.664 1.632zM38.474 33V15.72H53.05V33h-3.344V18.872h-7.888V33h-3.344zm35.214 0v-4.016h-10.4v-3.168L70.775 9.96H74.6l-7.488 15.856h6.576v-6.24h3.391v6.24h2.289v3.168H77.08V33h-3.392z" fill="url(#paint1_radial_2074_2017)" fill-opacity=".52"/><path d="M7.984 33V13.112H.32V9.96h18.672v3.152h-7.664V33H7.984zm18.51.48c-1.728 0-3.227-.39-4.496-1.168-1.27-.779-2.25-1.85-2.944-3.216-.683-1.376-1.024-2.96-1.024-4.752 0-1.803.352-3.387 1.056-4.752.704-1.376 1.69-2.443 2.96-3.2 1.27-.768 2.752-1.152 4.448-1.152 1.728 0 3.227.39 4.496 1.168 1.27.779 2.25 1.85 2.944 3.216.693 1.365 1.04 2.939 1.04 4.72 0 1.803-.352 3.392-1.056 4.768-.693 1.365-1.675 2.437-2.944 3.216-1.27.768-2.763 1.152-4.48 1.152zm0-3.152c1.653 0 2.885-.555 3.696-1.664.821-1.12 1.232-2.56 1.232-4.32 0-1.803-.416-3.243-1.248-4.32-.821-1.088-2.048-1.632-3.68-1.632-1.12 0-2.043.256-2.768.768-.725.501-1.264 1.2-1.616 2.096-.352.885-.528 1.915-.528 3.088 0 1.813.416 3.264 1.248 4.352.832 1.088 2.053 1.632 3.664 1.632zM38.474 33V15.72H53.05V33h-3.344V18.872h-7.888V33h-3.344zm35.214 0v-4.016h-10.4v-3.168L70.775 9.96H74.6l-7.488 15.856h6.576v-6.24h3.391v6.24h2.289v3.168H77.08V33h-3.392z" fill="url(#paint2_angular_2074_2017)" style="mix-blend-mode:screen"/><path d="M108 18.8h-6.955l1.546-8.8L91 23.2h6.954L96.41 32 108 18.8z" fill="url(#paint3_angular_2074_2017)"/><path d="M108 18.8h-6.955l1.546-8.8L91 23.2h6.954L96.41 32 108 18.8z" fill="url(#paint4_radial_2074_2017)" fill-opacity=".52"/><path d="M108 18.8h-6.955l1.546-8.8L91 23.2h6.954L96.41 32 108 18.8z" fill="url(#paint5_angular_2074_2017)" style="mix-blend-mode:screen"/><defs><radialGradient id="paint0_angular_2074_2017" cx="0" cy="0" r="1" gradientUnits="userSpaceOnUse" gradientTransform="matrix(0 21 -38.5575 0 40.057 21)"><stop offset=".156" stop-color="#D6DFE6"/><stop offset=".371" stop-color="#FAFBFC"/><stop offset=".599" stop-color="#F6D0FF"/><stop offset=".865" stop-color="#D7E0E7"/><stop offset=".872" stop-color="#F7F8F9"/><stop offset=".99" stop-color="#E8EDF1"/></radialGradient><radialGradient id="paint1_radial_2074_2017" cx="0" cy="0" r="1" gradientUnits="userSpaceOnUse" gradientTransform="matrix(63.43282 19.11007 -12.35018 40.99446 9.534 11.861)"><stop offset=".076" stop-color="#6E7CFB"/><stop offset=".351" stop-color="#FB42FF"/><stop offset=".635" stop-color="#FF42F7"/><stop offset="1" stop-color="#4277FF"/></radialGradient><radialGradient id="paint2_angular_2074_2017" cx="0" cy="0" r="1" gradientUnits="userSpaceOnUse" gradientTransform="matrix(0 21 -39.75 0 41.25 21)"><stop offset=".047" stop-color="#fff" stop-opacity=".72"/><stop offset=".245"/><stop offset=".422" stop-color="#fff" stop-opacity=".72"/><stop offset=".625"/><stop offset=".802" stop-color="#fff" stop-opacity=".72"/><stop offset="1"/></radialGradient><radialGradient id="paint3_angular_2074_2017" cx="0" cy="0" r="1" gradientUnits="userSpaceOnUse" gradientTransform="matrix(0 11 -8.245 0 99.245 21)"><stop offset=".156" stop-color="#D6DFE6"/><stop offset=".371" stop-color="#FAFBFC"/><stop offset=".599" stop-color="#F6D0FF"/><stop offset=".865" stop-color="#D7E0E7"/><stop offset=".872" stop-color="#F7F8F9"/><stop offset=".99" stop-color="#E8EDF1"/></radialGradient><radialGradient id="paint4_radial_2074_2017" cx="0" cy="0" r="1" gradientUnits="userSpaceOnUse" gradientTransform="matrix(13.5642 10.01005 -11.19056 15.16387 92.718 16.213)"><stop offset=".076" stop-color="#6E7CFB"/><stop offset=".351" stop-color="#FB42FF"/><stop offset=".635" stop-color="#FF42F7"/><stop offset="1" stop-color="#4277FF"/></radialGradient><radialGradient id="paint5_angular_2074_2017" cx="0" cy="0" r="1" gradientUnits="userSpaceOnUse" gradientTransform="matrix(0 11 -8.5 0 99.5 21)"><stop offset=".047" stop-color="#fff" stop-opacity=".72"/><stop offset=".245"/><stop offset=".422" stop-color="#fff" stop-opacity=".72"/><stop offset=".625"/><stop offset=".802" stop-color="#fff" stop-opacity=".72"/><stop offset="1"/></radialGradient></defs></svg>