<svg width="85" height="38" fill="none" xmlns="http://www.w3.org/2000/svg"><rect width="85" height="38" rx="8" fill="#06030F"/><path d="M17.44 23.666l1.871-9.301H15.68l.4-1.992h9.44l-.4 1.992h-3.632l-1.87 9.301H17.44zm9.654.236c-.87 0-1.594-.191-2.173-.573a3.03 3.03 0 01-1.22-1.576c-.226-.675-.252-1.449-.076-2.322.177-.884.52-1.66 1.028-2.33a5.41 5.41 0 011.861-1.576 5.122 5.122 0 012.378-.564c.869 0 1.593.19 2.172.572.585.382.993.91 1.226 1.585.233.669.262 1.44.087 2.313a5.666 5.666 0 01-1.029 2.33 5.405 5.405 0 01-1.86 1.576 5.155 5.155 0 01-2.394.565zm.4-1.992c.699 0 1.265-.23 1.699-.69.44-.466.733-1.062.88-1.789.151-.753.096-1.354-.166-1.804-.256-.45-.728-.674-1.416-.674-.475 0-.885.104-1.231.314a2.51 2.51 0 00-.855.87 4.14 4.14 0 00-.476 1.294c-.153.758-.101 1.362.155 1.812.263.444.733.667 1.41.667zm9.983 1.992c-.859 0-1.537-.196-2.034-.589-.497-.392-.824-.925-.982-1.6-.152-.674-.143-1.435.027-2.282.17-.847.467-1.608.89-2.282a4.897 4.897 0 011.594-1.6c.64-.392 1.37-.588 2.19-.588.828 0 1.509.193 2.044.58.536.387.904.918 1.104 1.592.207.67.223 1.435.05 2.298a5.998 5.998 0 01-.963 2.282 5.305 5.305 0 01-1.714 1.6 4.32 4.32 0 01-2.206.589zM32.51 27.43l2.46-12.235h1.92L35.724 21h.272l-1.293 6.431h-2.192zm4.995-5.427c.47 0 .877-.115 1.222-.345a2.71 2.71 0 00.85-.926c.223-.392.382-.826.478-1.302.095-.47.106-.9.035-1.286-.071-.392-.24-.703-.509-.933-.262-.236-.636-.353-1.12-.353-.454 0-.844.107-1.17.321a2.43 2.43 0 00-.789.902c-.206.387-.36.837-.463 1.35-.103.512-.13.961-.08 1.348.05.387.198.688.443.902.25.215.618.322 1.104.322zm26.466 1.662l.354-1.756h-5.008l.4-1.993 5.15-7.545h2.495l-5.149 7.545h2.512l.568-2.823h2.208l-.568 2.823h1.024l-.4 1.992h-1.025l-.353 1.757h-2.208z" fill="#fff"/><path d="M17.44 23.666l1.871-9.301H15.68l.4-1.992h9.44l-.4 1.992h-3.632l-1.87 9.301H17.44zm9.654.236c-.87 0-1.594-.191-2.173-.573a3.03 3.03 0 01-1.22-1.576c-.226-.675-.252-1.449-.076-2.322.177-.884.52-1.66 1.028-2.33a5.41 5.41 0 011.861-1.576 5.122 5.122 0 012.378-.564c.869 0 1.593.19 2.172.572.585.382.993.91 1.226 1.585.233.669.262 1.44.087 2.313a5.666 5.666 0 01-1.029 2.33 5.405 5.405 0 01-1.86 1.576 5.155 5.155 0 01-2.394.565zm.4-1.992c.699 0 1.265-.23 1.699-.69.44-.466.733-1.062.88-1.789.151-.753.096-1.354-.166-1.804-.256-.45-.728-.674-1.416-.674-.475 0-.885.104-1.231.314a2.51 2.51 0 00-.855.87 4.14 4.14 0 00-.476 1.294c-.153.758-.101 1.362.155 1.812.263.444.733.667 1.41.667zm9.983 1.992c-.859 0-1.537-.196-2.034-.589-.497-.392-.824-.925-.982-1.6-.152-.674-.143-1.435.027-2.282.17-.847.467-1.608.89-2.282a4.897 4.897 0 011.594-1.6c.64-.392 1.37-.588 2.19-.588.828 0 1.509.193 2.044.58.536.387.904.918 1.104 1.592.207.67.223 1.435.05 2.298a5.998 5.998 0 01-.963 2.282 5.305 5.305 0 01-1.714 1.6 4.32 4.32 0 01-2.206.589zM32.51 27.43l2.46-12.235h1.92L35.724 21h.272l-1.293 6.431h-2.192zm4.995-5.427c.47 0 .877-.115 1.222-.345a2.71 2.71 0 00.85-.926c.223-.392.382-.826.478-1.302.095-.47.106-.9.035-1.286-.071-.392-.24-.703-.509-.933-.262-.236-.636-.353-1.12-.353-.454 0-.844.107-1.17.321a2.43 2.43 0 00-.789.902c-.206.387-.36.837-.463 1.35-.103.512-.13.961-.08 1.348.05.387.198.688.443.902.25.215.618.322 1.104.322zm26.466 1.662l.354-1.756h-5.008l.4-1.993 5.15-7.545h2.495l-5.149 7.545h2.512l.568-2.823h2.208l-.568 2.823h1.024l-.4 1.992h-1.025l-.353 1.757h-2.208z" fill="url(#paint0_angular_486_654)"/><path d="M17.44 23.666l1.871-9.301H15.68l.4-1.992h9.44l-.4 1.992h-3.632l-1.87 9.301H17.44zm9.654.236c-.87 0-1.594-.191-2.173-.573a3.03 3.03 0 01-1.22-1.576c-.226-.675-.252-1.449-.076-2.322.177-.884.52-1.66 1.028-2.33a5.41 5.41 0 011.861-1.576 5.122 5.122 0 012.378-.564c.869 0 1.593.19 2.172.572.585.382.993.91 1.226 1.585.233.669.262 1.44.087 2.313a5.666 5.666 0 01-1.029 2.33 5.405 5.405 0 01-1.86 1.576 5.155 5.155 0 01-2.394.565zm.4-1.992c.699 0 1.265-.23 1.699-.69.44-.466.733-1.062.88-1.789.151-.753.096-1.354-.166-1.804-.256-.45-.728-.674-1.416-.674-.475 0-.885.104-1.231.314a2.51 2.51 0 00-.855.87 4.14 4.14 0 00-.476 1.294c-.153.758-.101 1.362.155 1.812.263.444.733.667 1.41.667zm9.983 1.992c-.859 0-1.537-.196-2.034-.589-.497-.392-.824-.925-.982-1.6-.152-.674-.143-1.435.027-2.282.17-.847.467-1.608.89-2.282a4.897 4.897 0 011.594-1.6c.64-.392 1.37-.588 2.19-.588.828 0 1.509.193 2.044.58.536.387.904.918 1.104 1.592.207.67.223 1.435.05 2.298a5.998 5.998 0 01-.963 2.282 5.305 5.305 0 01-1.714 1.6 4.32 4.32 0 01-2.206.589zM32.51 27.43l2.46-12.235h1.92L35.724 21h.272l-1.293 6.431h-2.192zm4.995-5.427c.47 0 .877-.115 1.222-.345a2.71 2.71 0 00.85-.926c.223-.392.382-.826.478-1.302.095-.47.106-.9.035-1.286-.071-.392-.24-.703-.509-.933-.262-.236-.636-.353-1.12-.353-.454 0-.844.107-1.17.321a2.43 2.43 0 00-.789.902c-.206.387-.36.837-.463 1.35-.103.512-.13.961-.08 1.348.05.387.198.688.443.902.25.215.618.322 1.104.322zm26.466 1.662l.354-1.756h-5.008l.4-1.993 5.15-7.545h2.495l-5.149 7.545h2.512l.568-2.823h2.208l-.568 2.823h1.024l-.4 1.992h-1.025l-.353 1.757h-2.208z" fill="url(#paint1_radial_486_654)" fill-opacity=".52"/><path d="M17.44 23.666l1.871-9.301H15.68l.4-1.992h9.44l-.4 1.992h-3.632l-1.87 9.301H17.44zm9.654.236c-.87 0-1.594-.191-2.173-.573a3.03 3.03 0 01-1.22-1.576c-.226-.675-.252-1.449-.076-2.322.177-.884.52-1.66 1.028-2.33a5.41 5.41 0 011.861-1.576 5.122 5.122 0 012.378-.564c.869 0 1.593.19 2.172.572.585.382.993.91 1.226 1.585.233.669.262 1.44.087 2.313a5.666 5.666 0 01-1.029 2.33 5.405 5.405 0 01-1.86 1.576 5.155 5.155 0 01-2.394.565zm.4-1.992c.699 0 1.265-.23 1.699-.69.44-.466.733-1.062.88-1.789.151-.753.096-1.354-.166-1.804-.256-.45-.728-.674-1.416-.674-.475 0-.885.104-1.231.314a2.51 2.51 0 00-.855.87 4.14 4.14 0 00-.476 1.294c-.153.758-.101 1.362.155 1.812.263.444.733.667 1.41.667zm9.983 1.992c-.859 0-1.537-.196-2.034-.589-.497-.392-.824-.925-.982-1.6-.152-.674-.143-1.435.027-2.282.17-.847.467-1.608.89-2.282a4.897 4.897 0 011.594-1.6c.64-.392 1.37-.588 2.19-.588.828 0 1.509.193 2.044.58.536.387.904.918 1.104 1.592.207.67.223 1.435.05 2.298a5.998 5.998 0 01-.963 2.282 5.305 5.305 0 01-1.714 1.6 4.32 4.32 0 01-2.206.589zM32.51 27.43l2.46-12.235h1.92L35.724 21h.272l-1.293 6.431h-2.192zm4.995-5.427c.47 0 .877-.115 1.222-.345a2.71 2.71 0 00.85-.926c.223-.392.382-.826.478-1.302.095-.47.106-.9.035-1.286-.071-.392-.24-.703-.509-.933-.262-.236-.636-.353-1.12-.353-.454 0-.844.107-1.17.321a2.43 2.43 0 00-.789.902c-.206.387-.36.837-.463 1.35-.103.512-.13.961-.08 1.348.05.387.198.688.443.902.25.215.618.322 1.104.322zm26.466 1.662l.354-1.756h-5.008l.4-1.993 5.15-7.545h2.495l-5.149 7.545h2.512l.568-2.823h2.208l-.568 2.823h1.024l-.4 1.992h-1.025l-.353 1.757h-2.208z" fill="url(#paint2_angular_486_654)" style="mix-blend-mode:screen"/><path d="M57 17.4h-4.91l1.092-6.4L45 20.6h4.91L48.817 27 57 17.4z" fill="url(#paint3_angular_486_654)"/><path d="M57 17.4h-4.91l1.092-6.4L45 20.6h4.91L48.817 27 57 17.4z" fill="url(#paint4_radial_486_654)" fill-opacity=".52"/><path d="M57 17.4h-4.91l1.092-6.4L45 20.6h4.91L48.817 27 57 17.4z" fill="url(#paint5_angular_486_654)" style="mix-blend-mode:screen"/><defs><radialGradient id="paint0_angular_486_654" cx="0" cy="0" r="1" gradientUnits="userSpaceOnUse" gradientTransform="matrix(-2.07001 10.29393 -25.16347 -5.06014 42.13 17.294)"><stop offset=".156" stop-color="#D6DFE6"/><stop offset=".371" stop-color="#FAFBFC"/><stop offset=".599" stop-color="#F6D0FF"/><stop offset=".865" stop-color="#D7E0E7"/><stop offset=".872" stop-color="#F7F8F9"/><stop offset=".99" stop-color="#E8EDF1"/></radialGradient><radialGradient id="paint1_radial_486_654" cx="0" cy="0" r="1" gradientUnits="userSpaceOnUse" gradientTransform="matrix(41.18797 9.36758 -4.9567 21.79394 22.304 12.814)"><stop offset=".076" stop-color="#6E7CFB"/><stop offset=".351" stop-color="#FB42FF"/><stop offset=".635" stop-color="#FF42F7"/><stop offset="1" stop-color="#4277FF"/></radialGradient><radialGradient id="paint2_angular_486_654" cx="0" cy="0" r="1" gradientUnits="userSpaceOnUse" gradientTransform="rotate(101.37 14.388 26.229) scale(10.5 26.461)"><stop offset=".047" stop-color="#fff" stop-opacity=".72"/><stop offset=".245"/><stop offset=".422" stop-color="#fff" stop-opacity=".72"/><stop offset=".625"/><stop offset=".802" stop-color="#fff" stop-opacity=".72"/><stop offset="1"/></radialGradient><radialGradient id="paint3_angular_486_654" cx="0" cy="0" r="1" gradientUnits="userSpaceOnUse" gradientTransform="matrix(0 8 -5.82 0 50.82 19)"><stop offset=".156" stop-color="#D6DFE6"/><stop offset=".371" stop-color="#FAFBFC"/><stop offset=".599" stop-color="#F6D0FF"/><stop offset=".865" stop-color="#D7E0E7"/><stop offset=".872" stop-color="#F7F8F9"/><stop offset=".99" stop-color="#E8EDF1"/></radialGradient><radialGradient id="paint4_radial_486_654" cx="0" cy="0" r="1" gradientUnits="userSpaceOnUse" gradientTransform="rotate(37.247 .081 76.325) scale(12.0281 13.5599)"><stop offset=".076" stop-color="#6E7CFB"/><stop offset=".351" stop-color="#FB42FF"/><stop offset=".635" stop-color="#FF42F7"/><stop offset="1" stop-color="#4277FF"/></radialGradient><radialGradient id="paint5_angular_486_654" cx="0" cy="0" r="1" gradientUnits="userSpaceOnUse" gradientTransform="matrix(0 8 -6 0 51 19)"><stop offset=".047" stop-color="#fff" stop-opacity=".72"/><stop offset=".245"/><stop offset=".422" stop-color="#fff" stop-opacity=".72"/><stop offset=".625"/><stop offset=".802" stop-color="#fff" stop-opacity=".72"/><stop offset="1"/></radialGradient></defs></svg>