<svg width="14" height="13" fill="none" xmlns="http://www.w3.org/2000/svg"><path fill-rule="evenodd" clip-rule="evenodd" d="M13.517 6.553a.911.911 0 00-.243-.625.809.809 0 00-.59-.258H3.042l3.574-3.792a.89.89 0 00.18-.287.932.932 0 00-.18-.963.832.832 0 00-.27-.192.792.792 0 00-.909.192l-4.994 5.3a.889.889 0 00-.181.286.93.93 0 00.18.964l4.995 5.3a.81.81 0 00.59.26.81.81 0 00.589-.26.912.912 0 00.244-.625.912.912 0 00-.244-.626l-3.574-3.79h9.644c.22 0 .432-.094.588-.26a.911.911 0 00.244-.624z" fill="#77BE1D"/></svg>