<svg width="81" height="81" fill="none" xmlns="http://www.w3.org/2000/svg"><circle cx="40.472" cy="40.557" r="39.114" stroke="#77BE1D" stroke-width="1.057"/><g filter="url(#filter0_b_1804_8778)"><circle cx="41.001" cy="41.086" r="32.771" fill="#77BE1D"/><circle cx="41.001" cy="41.086" r="32.243" stroke="#77BE1D" stroke-width="1.057"/></g><path d="M53.243 42.312l-.003.002-19.338 11.708c-1.27.768-2.945-.149-2.945-1.758V28.849c0-1.607 1.671-2.526 2.945-1.755h0L53.24 38.801l.003.002c.292.174.537.427.709.735a2.1 2.1 0 01.262 1.02 2.1 2.1 0 01-.262 1.02c-.172.308-.417.56-.709.734z" fill="#fff" stroke="#77BE1D" stroke-width="1.057"/><defs><filter id="filter0_b_1804_8778" x="4.001" y="4.086" width="74" height="74" filterUnits="userSpaceOnUse" color-interpolation-filters="sRGB"><feFlood flood-opacity="0" result="BackgroundImageFix"/><feGaussianBlur in="BackgroundImage" stdDeviation="2.114"/><feComposite in2="SourceAlpha" operator="in" result="effect1_backgroundBlur_1804_8778"/><feBlend in="SourceGraphic" in2="effect1_backgroundBlur_1804_8778" result="shape"/></filter></defs></svg>