<svg width="1789" height="474" fill="none" xmlns="http://www.w3.org/2000/svg"><path d="M1354.27 186.407a5.917 5.917 0 00-1.79-4.191 5.647 5.647 0 00-1.93-1.235 5.644 5.644 0 00-2.26-.371l-117.63 4.832c-.98.051-1.91.486-2.57 1.211a3.754 3.754 0 00-.99 2.666l5.98 257.608 118.96-1.487a5.65 5.65 0 004.04-1.78 5.928 5.928 0 001.63-4.187l-3.44-253.066z" fill="#5E931B"/><path d="M1259.21 226.559l-17.39-.007-.86-25.74h17.49l.76 25.747zm27.08-.072l-16.53-.007-.69-25.668h16.64l.58 25.675zm27.7-.068l-17.2-.007-.51-25.6h17.3l.41 25.607zm27.53-.072l-17.1-.007-.34-25.528h17.21l.23 25.535z" fill="#161119"/><path d="M1260.43 268.426l-17.2.116-.85-25.16 17.31-.071.74 25.115zm26.81-.177l-16.37.109-.67-25.092 16.47-.068.57 25.051zm27.4-.185l-17.02.116-.5-25.026 17.13-.072.39 24.982z" fill="#BDD0FB"/><path d="M1341.9 267.884l-16.93.112-.33-24.958 17.03-.068.23 24.914zm-80.26 41.461l-17.03.181-.83-24.645 17.13-.14.73 24.604zm26.53-.286l-16.2.174-.66-24.577 16.3-.136.56 24.539zm27.12-.291l-16.84.181-.5-24.515 16.95-.14.39 24.474zm26.97-.286l-16.75.178-.32-24.451 16.85-.14.22 24.413zm-79.45 40.954l-16.85.245-.81-24.147 16.95-.208.71 24.11zm26.26-.386l-16.03.235-.64-24.085 16.13-.198.54 24.048zm26.85-.396l-16.67.246-.49-24.025 16.78-.204.38 23.983zm26.7-.391l-16.58.245-.32-23.963 16.69-.204.21 23.922zm-78.65 40.458l-16.68.31-.8-23.663 16.78-.272.7 23.625zm25.99-.481l-15.87.293-.63-23.601 15.97-.259.53 23.567zm26.58-.494l-16.51.307-.47-23.547 16.61-.27.37 23.51zm26.44-.491l-16.42.307-.31-23.489 16.51-.266.22 23.448zm-77.88 39.978l-16.51.369-.78-23.196 16.61-.331.68 23.158zm25.73-.577l-15.71.352-.62-23.138 15.81-.317.52 23.103zm26.32-.589l-16.34.365-.47-23.08 16.44-.331.37 23.046zm26.17-.583l-16.25.362-.31-23.025 16.36-.328.2 22.991z" fill="#161119"/><path d="M1252.28 252.06c-.01-.69-.17-1.37-.45-2a5.187 5.187 0 00-1.19-1.666 5.325 5.325 0 00-3.81-1.428l-114.4 3.59c-1.39.031-2.71.61-3.66 1.61a5.226 5.226 0 00-1.46 3.726l5.65 186.003a5.211 5.211 0 001.64 3.604 5.222 5.222 0 003.69 1.428l112.86-.341c1.41 0 1.99-1.306 2.97-2.294.49-.487.87-1.067 1.13-1.704.25-.637.38-1.319.37-2.006l-3.34-188.522z" fill="#5E931B"/><path d="M1146.9 268.447l-.18-4.655 37.22-1.633.16 4.665-37.2 1.623zm.5 13.034l-.17-4.644 37.17-1.606.17 4.658-37.17 1.592zm.51 13.011l-.18-4.634 37.14-1.575.17 4.648-37.13 1.561zm.49 12.988l-.18-4.627 37.12-1.544.16 4.64-37.1 1.531zm.5 12.966l-.18-4.62 37.08-1.514.17 4.627-37.07 1.507zm1 25.853l-.18-4.6 37.01-1.456.16 4.613-36.99 1.443zm1.48 38.604l-.18-4.576 36.91-1.367.16 4.586-36.89 1.357zm-1.98-51.52l-.18-4.606 37.04-1.487.17 4.62-37.03 1.473zm.99 25.808l-.18-4.593 36.98-1.425.17 4.603-36.97 1.415zm.49 12.868l-.17-4.583 36.94-1.398.16 4.596-36.93 1.385zm.99 25.664l-.18-4.566 36.88-1.34.16 4.58-36.86 1.326zm.49 12.796l-.18-4.558 36.85-1.31.16 4.569-36.83 1.299zm.49 12.772l-.18-4.551 36.82-1.279.16 4.559-36.8 1.271zm.49 12.749l-.18-4.542 36.78-1.251.16 4.552-36.76 1.241zm42.1-169.715l-.16-4.664 37.42-1.643.15 4.674-37.41 1.633zm.46 13.076l-.17-4.657 37.39-1.613.15 4.668-37.37 1.602zm.45 13.053l-.16-4.651 37.36-1.582.15 4.661-37.35 1.572zm.46 13.028l-.17-4.644 37.33-1.551.15 4.651-37.31 1.544zm.45 13.001l-.16-4.634 37.29-1.521.15 4.641-37.28 1.514zm.9 25.933l-.16-4.616 37.23-1.463.14 4.623-37.21 1.456zm1.36 38.717l-.16-4.59 37.12-1.377.15 4.6-37.11 1.367zm-1.81-51.673l-.16-4.624 37.26-1.493.15 4.633-37.25 1.484zm.91 25.886l-.16-4.607 37.18-1.435.15 4.616-37.17 1.426zm.45 12.905l-.16-4.599 37.15-1.405.15 4.61-37.14 1.394zm.9 25.74l-.16-4.583 37.08-1.346.15 4.592-37.07 1.337zm.45 12.834l-.16-4.572 37.05-1.316.15 4.582-37.04 1.306zm.44 12.809l-.16-4.565 37.02-1.286.15 4.572-37.01 1.279zm.45 12.787l-.16-4.555 36.99-1.259.14 4.566-36.97 1.248zm289.72-186.906c-.04-1.364-2.04-2.472-4.46-2.472h-147.43c-2.47 0-5.08 1.135-5.08 2.527v194.083c0 1.023 1.02 2.046 2.34 2.765 1.32.719 3.22 1.142 5.06 1.139l149.05-.229c1.73.031 3.44-.372 4.97-1.173 1.3-.746 2.05-1.759 1.99-2.806l-6.44-193.834z" fill="#5E931B"/><path d="M1406.37 258.797l-48.23-.095.01-3.403 48.18.085.04 3.413zm.13 12.538l-48.43-.127.02-3.43 48.37.116.04 3.441zm.13 12.639l-48.63-.154.02-3.461 48.57.147.04 3.468zm.13 12.749l-48.83-.188.02-3.491 48.78.181.03 3.498zm.14 12.85l-49.03-.222.02-3.515 48.97.211.04 3.526zm.28 26.026l-49.45-.283.02-3.577 49.39.276.04 3.584zm.41 39.875l-50.07-.388.02-3.669 50.02.378.03 3.679zm-.55-52.941l-49.24-.252.02-3.55 49.18.246.04 3.556zm.27 26.247l-49.65-.32.02-3.607 49.59.31.04 3.617zm.14 13.292l-49.86-.355.02-3.638 49.8.344.04 3.649zm.29 26.918l-50.29-.422.02-3.7 50.23.413.04 3.709zm.14 13.636l-50.5-.46.02-3.73 50.44.45.04 3.74zm.15 13.751l-50.73-.495.02-3.764 50.67.484.04 3.775zm.14 13.87l-50.94-.532.02-3.795 50.88.522.04 3.805zm61.43-171.327l-48.54-.096-.05-3.413 48.48.085.11 3.424zm.39 12.578l-48.73-.127-.05-3.443 48.67.119.11 3.451zm.4 12.681l-48.94-.157-.05-3.471 48.88.15.11 3.478zm.4 12.786l-49.14-.187-.06-3.499 49.09.178.11 3.508zm.4 12.895l-49.34-.222-.06-3.529 49.29.212.11 3.539zm.82 26.114l-49.76-.286-.06-3.59 49.71.279.11 3.597zm1.25 40.009l-50.4-.392-.06-3.679 50.35.379.11 3.692zm-1.66-53.122l-49.56-.253-.05-3.559 49.5.245.11 3.567zm.82 26.336l-49.97-.321-.06-3.617 49.92.31.11 3.628zm.42 13.335l-50.18-.354-.06-3.649 50.13.345.11 3.658zm.85 27.015l-50.62-.427-.06-3.713 50.56.416.12 3.724zm.42 13.682l-50.83-.464-.06-3.744 50.78.451.11 3.757zm.44 13.799l-51.06-.498-.06-3.778 51 .488.12 3.788zm.43 13.918l-51.28-.535-.06-3.808 51.22.525.12 3.818z" fill="#BDD0FB"/><path d="M1419.53 5.181c-20.68-.16-41.54 3.117-60.01 10.775-42.94 17.829-79.42 64.994-65.14 113.176 4.63 15.65 2.2 32.916 17.79 39.719 8.44 3.679 31.41 5.871 40.14 2.969 23.22-7.709 38.48-28.804 25.86-52.198-4.05-7.501-9.28-14.337-12.77-22.1-3.49-7.765-5.09-16.98-1.53-24.717 6.99-15.18 30.21-20.008 45.26-19.551 17.77.538 33.87 9.325 43.43 24.403 11.93 18.787 14.93 41.641 13.19 63.453-1.87 23.335-11.71 41.158-26.46 59.062-12.69 15.415-26.67 30.209-35.11 48.307-7.75 16.615-10.28 35.027-10.63 53.191-.07 3.525-17.59 36.728-17.52 46.872 0 1.432 19.88 6.178 21.31 6.195l36.45.406a2.91 2.91 0 002.95-2.864c.55-49.351 15.73-96.404 54.16-129.546 13.98-12.06 29.04-21.883 39.91-37.104 15.5-21.695 23.14-43.05 20.93-69.825-2.01-24.454-10.06-48.925-26-67.9-17.14-20.393-42.22-33.128-68.28-38.624a192.419 192.419 0 00-37.93-4.099zm38.14 405.3c0 22.695-12.58 42.771-35.27 42.771-4.9 0-21.58.044-25.94-1.531-15.82-5.715-15.87-17.867-15.87-35.658 0-22.695 7.66-45.007 30.34-45.007 22.69 0 46.74 16.731 46.74 39.425z" fill="#165227"/><path d="M1399.88.006c-20.68-.164-41.54 3.116-60.01 10.774-42.95 17.833-79.41 65.002-65.14 113.18 4.63 15.65 15.34 35.351 30.94 42.153 8.44 3.679 18.26 3.437 27 .535 23.21-7.705 38.47-28.804 25.85-52.198-4.04-7.501-9.28-14.32-12.77-22.101-3.49-7.78-5.08-16.98-1.52-24.713 6.99-15.183 30.2-20.008 45.25-19.554 17.77.538 33.87 9.325 43.43 24.402 11.92 18.79 14.94 41.642 13.19 63.454-1.86 23.339-11.7 41.161-26.45 59.061-12.71 15.415-26.69 30.21-35.12 48.312-7.75 16.615-10.28 35.023-10.63 53.19-.07 3.522 1.12 40.315 1.2 50.463 0 .687.27 1.346.76 1.833.48.487 1.14.764 1.83.771l36.46.41a2.912 2.912 0 002.94-2.868c.55-49.351 15.73-96.4 54.16-129.546 13.98-12.059 29.04-21.879 39.91-37.103 15.5-21.696 23.14-43.047 20.94-69.826-2.02-24.454-10.07-48.922-26.01-67.896-17.13-20.383-42.21-33.121-68.27-38.614a192.295 192.295 0 00-37.94-4.12zm31.2 439.939c16.05-16.046 16.05-42.063 0-58.109-16.05-16.047-42.06-16.047-58.11 0-16.04 16.046-16.04 42.063 0 58.109 16.05 16.047 42.06 16.047 58.11 0z" fill="#77BE1D"/><path d="M1288.33 119.046a.347.347 0 01-.22-.07.36.36 0 01-.12-.192c-2.87-12.957-3.29-33.275 11.01-56.382 13.98-22.565 33.56-37.663 58.24-44.874 26.39-7.716 57.73-6.063 93.15 4.913.05.005.1.02.14.047a.4.4 0 01.11.104.378.378 0 01.04.29.345.345 0 01-.08.13.277.277 0 01-.12.085.358.358 0 01-.15.024.31.31 0 01-.14-.042c-35.29-10.935-66.49-12.589-92.76-4.91-24.52 7.16-43.99 22.162-57.86 44.584-14.19 22.916-13.77 43.04-10.91 55.888a.344.344 0 01-.26.398l-.07.007zm8.64 20.919c-.05 0-.1-.013-.15-.036a.304.304 0 01-.12-.101c-.03-.04-3.07-4.241-5.81-11.422a.298.298 0 01.04-.225c.04-.068.1-.121.17-.149a.343.343 0 01.41.135c2.71 7.093 5.7 11.228 5.73 11.269.04.051.05.109.06.169a.353.353 0 01-.16.306.341.341 0 01-.17.054zm118.8 244.099c-.05 0-.1-.012-.15-.034a29.742 29.742 0 00-13.6-3.24.349.349 0 01-.24-.099.36.36 0 01-.1-.242c0-.09.04-.177.1-.241a.349.349 0 01.24-.099c4.83-.015 9.6 1.12 13.9 3.31.08.042.14.112.17.196s.02.175-.02.254a.378.378 0 01-.12.139.33.33 0 01-.18.056zm-30.76 52.399a.36.36 0 01-.19-.058 30.826 30.826 0 01-10.32-11.757 30.856 30.856 0 01-3.21-15.31c.27-5.295 1.9-10.43 4.74-14.91a30.747 30.747 0 0111.45-10.658c.08-.04.17-.049.25-.023a.32.32 0 01.22.414.311.311 0 01-.16.199 30.233 30.233 0 00-11.2 10.425 30.12 30.12 0 00-4.62 14.585 29.988 29.988 0 003.13 14.976c2.32 4.638 5.8 8.6 10.1 11.5a.353.353 0 010 .538.36.36 0 01-.19.072v.007z" fill="#5E931B"/><path d="M1451.2 140.288l-4.17 23.581c-6.7 28.842-7.34 52.884-3.86 73.181-5.75.239-11.8.645-18.09 1.265-7.77.767-15.11 1.777-21.97 2.943 3.63-29.323 23.15-78.044 23.15-78.044 11.77-16.993 13.17-5.932 24.94-22.926z" fill="url(#paint0_linear_2170_2014)"/><path d="M1403.53 90.6c2.33-.063 4.65.4 6.78 1.355s4.01 2.377 5.52 4.161l29.75 35.252s5.41-1.104 5.92-11.473c.51-10.369 11.52-11.62 11.52-11.62s-1.59 14.464-4.61 35.866c-1.73 12.24-8.96 21.174-14.85 26.595l-17.2-5.923c-15.79-22.568-25.58-47.441-31.03-73.989l8.2-.225z" fill="url(#paint1_linear_2170_2014)"/><path d="M1590.39 104.951c10.68 21.273 15.13 42.941 16.47 63.116-2.3.856-32.93 22.105-53.43 1.534 4.38-14.116 3.66-35.368 2.54-57.166l34.42-7.484z" fill="url(#paint2_linear_2170_2014)"/><path d="M1534.83 49.019c-.59.951-15.9 73.143-15.9 73.143l41.41 7.863 24.67-66.26s-40.36-30.642-50.18-14.746z" fill="url(#paint3_linear_2170_2014)"/><path d="M1569.2 69.65c.55.747.92 1.608 1.08 2.519.16.91.11 1.847-.14 2.736l-10.11 35.382a6.014 6.014 0 01-.68 1.517c-1.64 2.608-7.5 10.498-15.41 4.02-6.74-5.52-13.01-10.502-18.63-11.743a6.073 6.073 0 00-2.38-.03c-.79.147-1.53.448-2.2.886a6.077 6.077 0 00-1.7 1.667 6.219 6.219 0 00-.92 2.189c-1.41 6.779-3.98 20.516-4.55 33.04a6.047 6.047 0 001.43 4.152 6.055 6.055 0 003.87 2.077c8.23 1.023 24.36 2.52 37.85.825a6.028 6.028 0 002.98-1.241 6.05 6.05 0 001.92-2.595c3.54-9.175 13.58-34.853 17.52-41.665 3.67-6.329 13.42-6.925 17.9-6.847.84.017 1.67-.14 2.45-.46.77-.322 1.47-.8 2.05-1.405 3.55-3.676 9.21-11.988-.4-20.908a6.059 6.059 0 01-1.87-4.153 6.032 6.032 0 011.55-4.282c3.88-4.365 7.43-11.562.03-19.68-7.5-8.225-16.54-6.718-22.34-4.372-2.57 1.023-5.64.365-7.32-1.834-.75-.979-1.9-1.678-3.66-1.569-3.31.205-6.14-2.117-6.38-5.431-.39-5.688-3.07-12.49-12.96-14.917-18.15-4.457-28.2 13.43-28.51 26.339-.32 12.909 19.64 16.615 31.14 15.043 8.47-1.155 15.36 6.56 18.39 10.74z" fill="#272039"/><path d="M1572.96 116.809s3.85-22.844 13.06-24.511c9.21-1.668 18.7 5.407 10.23 18.483-10.5 16.264-23.29 6.028-23.29 6.028z" fill="url(#paint4_linear_2170_2014)"/><path d="M1588.15 34.586a21.4 21.4 0 00-5.28.495c-4.37.927-10.2 3.178-8.68 7.388 2.28 6.322 14.11.413 20.41 10.608 5.55 8.98 1.02 18.732 2.7 28.412.83 4.71 3.86 11.699 8.06 14.45 1.88 1.231 16.74 3.584 17.55.948 0 0 4.13-13.396 4.13-13.403 3.72-12.053-10.57-32.136-17.92-40.254-5.68-6.274-13.39-8.333-20.97-8.644z" fill="url(#paint5_linear_2170_2014)"/><path d="M1602.23 82.959l14.21 11.835c27.24 11.593 47.05 25.231 61.37 40.022 5.19-9.772 13.6-21.068 27.01-29.882-27.47-13.53-47.91-19.148-47.91-19.148-55.42-22.3-54.68-2.827-54.68-2.827z" fill="url(#paint6_linear_2170_2014)"/><path d="M1711.15 170.065c-1.33-5.422-8.28-9.47-33.32-35.256 5.19-9.772 13.6-21.068 27-29.882 40.57 22.565 154.91 103.349 17.9 162.53v-.033c-13.7 8.328-30.34 14.146-49.48 16.983l-.01-.009a84.11 84.11 0 01-1.57 6.047c-22.39 73.621-22.99 134.694-22.79 148.766.02.933-.25 1.849-.76 2.629a4.604 4.604 0 01-2.11 1.745c-30.35 12.534-89.11 5.882-108.84 3.154a6.607 6.607 0 01-4.34-2.571 6.586 6.586 0 01-1.27-4.889c4.45-34.965-5.95-81.002-19.16-121.941-11.13 13.52-26.73 26.816-47.8 33.25v.001c-9.23 2.816-22.96 7.008-35.73 1.519-25.21-10.836-37.04-55.236-25.76-110.85 5.31-1.971 12.64-4.068 40.06-4.208 3.49 24.812 7.16 30.516 10.04 30.663 3.38.175 5.26-7.446 7.98-18.544 4.62-18.757 11.67-47.447 32.59-65.227 6.44-5.466 13.59-9.398 21.07-12.164 39.36-17.402 86.26-12.487 120.18-6.38 25.41 2.175 42.48 9.532 56.88 15.741 6.4 2.759 12.28 5.292 18.12 7.042.51-10.624 1.96-14.651 1.12-18.116zm-599.88 163.233h98.8c1.72 0 3.43.339 5.02.999 1.59.66 3.04 1.627 4.26 2.846a13.132 13.132 0 012.85 4.258c.65 1.593.99 3.3.99 5.024v100.502h-125.05V346.425c0-1.724.34-3.431 1-5.024a13.265 13.265 0 012.84-4.258 13.177 13.177 0 014.26-2.846c1.6-.66 3.3-.999 5.03-.999z" fill="#77BE1D"/><path d="M1207.05 446.927H1082V346.425c0-1.724.34-3.431 1-5.024a13.104 13.104 0 0112.13-8.103h98.8c3.48.001 6.82 1.384 9.28 3.846 2.46 2.462 3.84 5.8 3.84 9.281v100.502z" fill="#5E931B"/><path d="M1211.2 333.673a1.838 1.838 0 01-1.87-1.408l-29.48-156.018c-.17-.921.53-1.794 1.56-1.95 1.03-.157 2.01.467 2.18 1.387l29.47 156.015c.18.924-.52 1.797-1.55 1.95-.1.016-.21.024-.31.024zm-99.43.004a2.333 2.333 0 01-.38-.035c-1.02-.187-1.7-1.077-1.48-1.994l34.74-154a1.89 1.89 0 012.23-1.323c1.02.184 1.71 1.078 1.48 1.992l-34.74 153.999a1.83 1.83 0 01-.69 1.003 1.87 1.87 0 01-1.16.358z" fill="#77BE1D"/><path d="M1187.79 214.813h-48.53a1.677 1.677 0 01-1.34-.412c-.19-.16-.33-.357-.43-.577a1.7 1.7 0 01-.15-.702 1.697 1.697 0 01.58-1.28 1.688 1.688 0 011.34-.411h48.53a1.717 1.717 0 011.35.411c.18.16.32.357.42.578.1.22.15.46.15.702a1.717 1.717 0 01-.57 1.279 1.717 1.717 0 01-1.35.412zm.93 28.201h-50.38a1.82 1.82 0 01-.7-.101 1.861 1.861 0 01-.6-.359 1.79 1.79 0 01-.59-1.245c0-.934.85-1.705 1.89-1.705h50.38c1.05 0 1.9.757 1.9 1.705 0 .948-.88 1.705-1.9 1.705z" fill="#77BE1D"/><path d="M1193.28 243.014h-61.06c-1.05 0-1.9-.757-1.9-1.705 0-.948.85-1.705 1.9-1.705h61.06c1.05 0 1.89.757 1.89 1.705 0 .948-.84 1.705-1.89 1.705zm-4.56 28.208h-50.38c-1.04 0-1.89-.757-1.89-1.705 0-.948.85-1.705 1.89-1.705h50.38c1.05 0 1.9.757 1.9 1.705 0 .948-.88 1.705-1.9 1.705z" fill="#77BE1D"/><path d="M1199.11 271.222h-73.09c-1.04 0-1.89-.757-1.89-1.705 0-.948.85-1.705 1.89-1.705h73.09c1.05 0 1.89.757 1.89 1.705 0 .948-.84 1.705-1.89 1.705zm-10.39 28.211h-68.57c-1.05 0-1.9-.757-1.9-1.705 0-.948.85-1.705 1.9-1.705h68.57c1.05 0 1.9.757 1.9 1.705 0 .948-.88 1.705-1.9 1.705z" fill="#77BE1D"/><path d="M1203.83 299.433h-83.68c-1.05 0-1.9-.757-1.9-1.705 0-.948.85-1.705 1.9-1.705h83.68c1.05 0 1.89.757 1.89 1.705 0 .948-.84 1.705-1.89 1.705z" fill="#77BE1D"/><path d="M1143.4 204.73s-1.23 1.937-1.54 7.362c-.01.119.01.239.05.352.04.113.1.216.19.304a.864.864 0 00.64.278h9.61a.559.559 0 00.56-.478.479.479 0 00-.02-.265c-.57-1.668-2.27-5.735-6.07-8.057l-3.42.504z" fill="url(#paint7_linear_2170_2014)"/><path d="M1142.98 201.055l.54 4.559c.02.191.11.369.25.505.13.137.31.224.5.248.68.084 1.37.078 2.04-.02.33-.059.63-.231.84-.487.21-.256.33-.579.33-.911v-4.402l-4.5.508z" fill="url(#paint8_linear_2170_2014)"/><path d="M1167.18 204.243a13.464 13.464 0 00-1.8 6.785c.01.445.19.867.51 1.177.32.31.75.484 1.19.484h14.93a.75.75 0 00.43-.139c.12-.09.21-.216.25-.36.05-.145.05-.3 0-.444a.74.74 0 00-.26-.356c-2.83-1.985-8.38-5.691-12.4-7.161l-2.85.014z" fill="url(#paint9_linear_2170_2014)"/><path d="M1165.64 199.302l1.16 5.63c.03.149.09.292.18.419.08.127.19.236.32.32.12.085.26.144.41.174.15.03.31.03.46 0 .46-.107.91-.292 1.31-.549.22-.142.4-.348.51-.591.1-.243.13-.512.09-.772l-1.2-6.82-3.24 2.189z" fill="url(#paint10_linear_2170_2014)"/><path d="M1145.11 121.018s-4.03 3.556-4.79 7.842c-.76 4.286 2.15 73.798 2.15 73.798s4.03.682 6.11-.59c0 0 2.46-45.116 4.34-55.543 0 0 9.83 46.736 12.55 55.182 0 0 3.88.47 5.14-.27 0 0-2.58-60.582-5.8-71.353l-19.7-9.066z" fill="#272039"/><path d="M1184.9 80.848c-16.98-1.398-21.41 2.104-21.41 2.104l8.16 12.865s16.68-.341 28.64-9.547a28.831 28.831 0 01-4.77-7.16 22.506 22.506 0 01-10.62 1.738z" fill="url(#paint11_linear_2170_2014)"/><path d="M1211.48 55.924a.468.468 0 00-.12-.317.519.519 0 00-.63-.126c-.1.053-.19.14-.24.246l-2.16 4.63a4.869 4.869 0 00-.39 2.864l.76 2.69c.11.648.09 1.313-.07 1.95a4.754 4.754 0 01-.87 1.746c-1.99 2.49-6.23 7.034-12.28 9.547a29.147 29.147 0 004.78 7.16c4.38-3.382 8.13-7.954 10.18-14.15.48-.147.9-.448 1.19-.856.29-.408.43-.9.42-1.4l-.57-13.984z" fill="url(#paint12_linear_2170_2014)"/><path d="M1190.49 88.315c-5.98-6.44-17.36-9.35-23.95-10.546a6.023 6.023 0 00-4.07.69 6.06 6.06 0 00-2.69 3.146c-2.96 7.972-11.03 28.712-12.59 32.276a255.923 255.923 0 01-3.47 7.569 2.106 2.106 0 00-.09 1.633c.18.535.58.974 1.09 1.221 5.54 2.673 15.52 5.697 19.56 6.877a1.38 1.38 0 001.22-.225c.18-.13.32-.298.41-.491.1-.193.15-.405.15-.621 0-.785.21-1.556.62-2.229l15.32-25.528c9.54 10.586 17.9 11.555 24.33 9.236a48.412 48.412 0 01-2.13-10.031c-9.49-1.626-13.71-12.977-13.71-12.977z" fill="url(#paint13_linear_2170_2014)"/><path d="M1219.89 99.516l-1.71-2.285c-5.54 3.809-10.17 4.713-13.98 4.061.35 3.41 1.07 6.773 2.13 10.031 8.46-3.051 13.56-11.807 13.56-11.807z" fill="url(#paint14_linear_2170_2014)"/><path d="M1218.68 99.568l9.65.375 8.86-4.961c-1.27-.798-8.48.835-8.48.835s-7.54-1.139-9.58-1.142c-1.7 0-1.45 2.434-1.32 3.26.02.166.05.269.05.269l.82 1.364z" fill="url(#paint15_linear_2170_2014)"/><path d="M1175.6 65.944l-5.09 12.422s5.85 4.047 10.57 3.662l2.53-11.167-8.01-4.917z" fill="url(#paint16_linear_2170_2014)"/><path d="M1184.2 57.476c.09.126 2.16 8.224 3.16 12.148.27 1.057-.42 2.336-1.51 2.336l-5.49.2c-1.13-.34-2.38-1.363-2.72-2.676l-2.35-8.786s6.95-5.988 8.91-3.222z" fill="url(#paint17_linear_2170_2014)"/><path d="M1178.02 62.46a4.445 4.445 0 00-.01 2.114c.34 1.258 1.02 2.386 1.47 3.607a9.996 9.996 0 00-2.23-1.193 2.06 2.06 0 00-1.42.035c-.45.18-.82.516-1.05.947-.32.59-.32 1.289-.48 1.943-.42 1.736-1.6 2.684-3.41 2.046a2.582 2.582 0 001.5-1.817c.06-.177.06-.364.02-.544-.04-.18-.13-.345-.26-.48-.37-.296-.91-.098-1.38-.088-3.71.068-.69-5.455-1.29-6.857-.48-1.176-1.52-1.756-1.59-3.16-.13-3 3.41-4.511 5.94-3.935.23.051.5.099.65-.075.05-.07.09-.15.11-.235.7-2.483 3.33-4.433 5.93-3.29 1.45.681 2.92-.038 4.32 1.022a5.48 5.48 0 011.42 1.726c.35.665.57 1.394.63 2.144.2 2.329-3.37 3.222-5.46 3.069-1.8-.133-3.01 1.38-3.41 3.02z" fill="#272039"/><path d="M1179.13 67.96s-1.46-2.957-3.15-3.154c-1.68-.198-3.02.924-1.06 2.945 1.96 2.022 4.21.209 4.21.209z" fill="url(#paint18_linear_2170_2014)"/><path d="M1215.24 45.545l87.8-.556c2.01 0 3.65 1.524 3.63 3.41l-.37 45.553c0 1.899-1.7 3.41-3.71 3.358l-86.85-2.451c-1.93-.055-3.47-1.528-3.5-3.342l-.58-42.545c-.03-1.879 1.58-3.417 3.58-3.427z" fill="#5E931B"/><path d="M1302.7 94.524l-86.87-2.458a.596.596 0 01-.42-.173.597.597 0 01-.18-.417l-.6-42.539c0-.081.02-.162.05-.238a.623.623 0 01.57-.369l87.8-.555c.17-.003.32.058.44.17.06.055.11.122.14.197a.64.64 0 01.05.236l-.37 45.553a.648.648 0 01-.18.42.635.635 0 01-.43.173zm.37-46.463v.283l-87.8.556.53 42.576.05.027 86.86 2.452.41-45.58-.05-.314z" fill="#BDD0FB"/><path d="M1220.31 54.628c0 1.47.91 2.66 2.04 2.66h74.67c1.12 0 2.05-1.19 2.05-2.66 0-1.47-.91-2.66-2.05-2.66h-74.67c-1.13 0-2.04 1.19-2.04 2.66zm2 5.47h29.9a1.848 1.848 0 011.33.503 1.922 1.922 0 01.59 1.297v23.185c-.01.25-.07.493-.17.72a1.87 1.87 0 01-.44.596 1.859 1.859 0 01-1.36.485l-29.29-.764c-.48.002-.94-.18-1.28-.505a1.81 1.81 0 01-.58-1.247l-.62-22.426c0-.248.06-.493.15-.72a1.874 1.874 0 011.04-1.002c.23-.089.48-.13.73-.122zm38.38.599h35.09c.77 0 1.39.713 1.39 1.593 0 .883-.62 1.595-1.39 1.595h-35.09c-.76 0-1.38-.712-1.38-1.595-.01-.88.62-1.593 1.38-1.593zm-1.39 8.425c0 .88.62 1.592 1.38 1.592h35.1c.77 0 1.38-.712 1.38-1.592v-.985c0-.894-.64-1.613-1.41-1.593l-35.09.972c-.76.034-1.36.74-1.36 1.606z" fill="#111813"/><path d="M1222.66 207.966l91.93-.825a3.232 3.232 0 012.31.942c.3.302.54.662.71 1.058.16.396.24.821.24 1.249l-.4 70.546c0 .43-.09.856-.26 1.252s-.42.754-.72 1.054c-.31.299-.68.534-1.08.689-.4.156-.83.229-1.26.216-16.63-.494-90.43-2.68-93.68-2.543-3.26.136-1.48-56.539-.99-70.522.02-.832.37-1.62.97-2.201s1.39-.909 2.23-.915z" fill="#070707"/><path d="M1314.23 281.597h-.04c-13.21-.395-79.78-2.387-91.95-2.543h-.25l-.05-.249c-1.15-6.506-1.13-33.053.06-67.63a.68.68 0 01.68-.652l91.93-.825a.657.657 0 01.49.198c.06.064.11.139.15.222.03.083.05.172.05.262l-.41 70.546c0 .176-.07.345-.19.47a.7.7 0 01-.47.201zm-91.72-3.15c12.83.194 78.58 2.144 91.72 2.537h.02a.11.11 0 00.03-.028c.01-.012.01-.026.01-.041l.4-70.535-.07-.375v.307l-91.94.818c-.01 0-.03.007-.04.018-.01.012-.02.027-.02.044-1.17 34.113-1.22 60.381-.11 67.255z" fill="#BDD0FB"/><path d="M1224.62 219.497c0 .425.09.846.25 1.238s.4.749.7 1.049a3.226 3.226 0 002.29.946h78.88c.42 0 .84-.083 1.23-.245.4-.163.75-.401 1.05-.701.3-.3.54-.657.7-1.049.16-.392.25-.813.25-1.238 0-.424-.09-.844-.25-1.236s-.4-.748-.7-1.048c-.3-.3-.66-.538-1.05-.7a3.194 3.194 0 00-1.23-.244h-78.88c-.43-.001-.85.082-1.24.244-.39.162-.75.4-1.05.7-.3.3-.54.656-.7 1.048a3.28 3.28 0 00-.25 1.236zm59.63 53.072a1.54 1.54 0 01-1.18-.549l-2.09-2.475a18.11 18.11 0 01-4.54-.116l-2.21 2.386a1.543 1.543 0 01-1.75.341l-4.28-1.895a1.546 1.546 0 01-.91-1.542l.28-3.229a18.448 18.448 0 01-3.14-3.293l-3.23.116c-.32.01-.64-.08-.9-.256a1.493 1.493 0 01-.59-.73l-1.69-4.367c-.11-.3-.13-.629-.05-.94.08-.311.25-.589.5-.796l2.48-2.083c-.16-1.514-.12-3.041.11-4.545l-2.38-2.206c-.24-.22-.4-.507-.46-.821-.07-.315-.03-.642.1-.935l1.9-4.276a1.513 1.513 0 011.54-.91l3.22.276c.97-1.178 2.07-2.23 3.3-3.134l-.12-3.235c-.01-.321.08-.637.26-.905.17-.268.43-.474.73-.589l4.36-1.681a1.543 1.543 0 011.74.447l2.08 2.475a17.99 17.99 0 014.55.116l2.21-2.386a1.527 1.527 0 011.75-.341l4.28 1.899a1.55 1.55 0 01.91 1.541l-.28 3.229a18.32 18.32 0 013.14 3.294l3.23-.116c.32-.012.64.077.91.253.26.177.47.433.59.732l1.68 4.364c.11.3.13.628.05.939-.08.311-.25.59-.5.797l-2.48 2.083c.16 1.514.12 3.041-.11 4.545l2.39 2.21c.23.218.39.504.46.818.06.314.03.641-.1.934l-1.9 4.276a1.53 1.53 0 01-.63.701c-.27.164-.59.238-.91.213l-3.23-.28a17.972 17.972 0 01-3.3 3.137l.12 3.232c.01.321-.08.637-.25.905a1.57 1.57 0 01-.74.589l-4.36 1.684c-.18.066-.37.1-.56.099zm-2.25-5.619l2.53 3.004 3.16-1.218-.14-3.927.56-.379a16.025 16.025 0 003.7-3.522l.4-.539 3.92.341 1.36-3.099-2.87-2.68.13-.662c.32-1.686.36-3.414.13-5.114l-.1-.682 3.01-2.53-1.22-3.164-3.93.14-.38-.556a15.461 15.461 0 00-3.51-3.682l-.54-.41.34-3.914-3.1-1.364-2.68 2.878-.66-.126a15.704 15.704 0 00-5.11-.13l-.68.092-2.53-3.004-3.15 1.204.14 3.925-.57.385a15.802 15.802 0 00-3.68 3.532l-.41.539-3.92-.341-1.36 3.096 2.88 2.68-.13.661a15.684 15.684 0 00-.13 5.115l.09.682-3 2.53 1.21 3.164 3.93-.14.38.556a15.558 15.558 0 003.52 3.699l.54.406-.34 3.918 3.1 1.364 2.67-2.875.67.126c1.68.322 3.41.366 5.11.13l.66-.109zm-2.92-3.147a12.551 12.551 0 01-6.75-1.98 12.436 12.436 0 01-4.6-5.301c-1-2.172-1.36-4.584-1.03-6.951a12.461 12.461 0 012.89-6.404 12.504 12.504 0 0112.91-3.896c2.3.653 4.36 1.95 5.95 3.739a12.54 12.54 0 012.99 6.356 1.227 1.227 0 01-1.02 1.397 1.223 1.223 0 01-1.4-1.018 10.01 10.01 0 00-3.2-5.926 10.069 10.069 0 00-6.23-2.573c-2.31-.116-4.59.567-6.45 1.935a10.076 10.076 0 00-3.79 5.574 10.082 10.082 0 005.27 11.551 10.09 10.09 0 006.7.794 10.087 10.087 0 005.69-3.609c.2-.24.49-.391.8-.423a1.231 1.231 0 011.34 1.044c.04.312-.03.63-.22.887a12.575 12.575 0 01-4.37 3.534 12.58 12.58 0 01-5.48 1.27z" fill="#77BE1D"/><path d="M1279.18 256.696a5.351 5.351 0 01-2.64-.685 5.328 5.328 0 01-1.96-1.89 5.472 5.472 0 01-.79-2.609 5.363 5.363 0 012.43-4.681 5.36 5.36 0 015.25-.36 5.405 5.405 0 012.09 1.756c.57.804.9 1.749.97 2.731.07.982-.13 1.964-.59 2.839a5.349 5.349 0 01-4.76 2.906v-.007zm0-8.305c-.61-.001-1.2.188-1.69.538-.47.335-.83.803-1.04 1.343a2.888 2.888 0 00-.12 1.695c.13.564.42 1.078.84 1.476a2.935 2.935 0 003.21.55 2.964 2.964 0 001.74-2.748c-.02-.579-.2-1.14-.54-1.613-.22-.315-.5-.583-.83-.789a2.837 2.837 0 00-1.06-.408 2.873 2.873 0 00-.53-.044h.02z" fill="#BDD0FB"/><path d="M1244.6 251.385h-.12l-2.24-.28a1.04 1.04 0 01-.59-.272.991.991 0 01-.32-.567l-.29-1.364a8.926 8.926 0 01-1.67-.947l-1.32.45a1.068 1.068 0 01-1.19-.341l-1.38-1.773a1.065 1.065 0 01-.23-.614c0-.224.06-.444.18-.631l.75-1.159a9.844 9.844 0 01-.51-1.852l-1.24-.627a1.052 1.052 0 01-.6-1.094l.28-2.23c.03-.221.12-.429.27-.593.15-.165.35-.278.57-.325l1.36-.286c.26-.591.57-1.152.95-1.674l-.46-1.299c-.08-.21-.08-.437-.02-.651.06-.214.18-.403.36-.543l1.77-1.384a1.073 1.073 0 011.25-.048l1.15.751a9.15 9.15 0 011.86-.512l.61-1.244c.09-.2.25-.365.45-.471.2-.106.42-.149.64-.123l2.23.276c.22.028.43.124.59.275.17.151.28.35.33.568l.29 1.364c.59.255 1.15.572 1.67.944l1.31-.447a1.07 1.07 0 011.19.341l1.38 1.78a1.06 1.06 0 01.06 1.241l-.76 1.163c.24.597.41 1.218.51 1.851l1.25.611c.2.091.37.244.49.437.11.194.16.417.14.64l-.28 2.233a1.02 1.02 0 01-.27.593c-.15.165-.35.278-.57.325l-1.36.286a8.98 8.98 0 01-.95 1.674l.45 1.309c.08.21.08.437.02.65a1.08 1.08 0 01-.36.54l-1.8 1.392c-.17.137-.39.217-.61.226-.22.01-.44-.05-.63-.172l-1.16-.753c-.6.235-1.22.406-1.85.511l-.61 1.245a1.094 1.094 0 01-.97.6zm-1.59-2.039l1.15.143.81-1.65.5-.055a7.346 7.346 0 002.27-.624l.45-.211 1.55.999.91-.713-.59-1.739.31-.392c.5-.614.89-1.305 1.16-2.046l.18-.474 1.79-.381.15-1.153-1.65-.808-.06-.505a7.161 7.161 0 00-.63-2.264l-.21-.46 1-1.538-.71-.917-1.74.597-.39-.321a7.365 7.365 0 00-2.05-1.156l-.48-.173-.37-1.801-1.16-.14-.8 1.661-.51.054c-.78.082-1.54.293-2.26.624l-.46.212-1.54-.999-.91.712.59 1.739-.32.392a7.304 7.304 0 00-1.15 2.046l-.18.474-1.8.382-.14 1.153 1.65.808.05.504c.09.784.3 1.549.63 2.264l.21.457-1 1.541.72.917 1.73-.596.4.317c.61.495 1.3.887 2.04 1.159l.48.174.38 1.787zm1.63-2.483a6.32 6.32 0 01-3.66-1.164 6.306 6.306 0 01-2.01-2.338 6.321 6.321 0 01.16-5.975 6.289 6.289 0 012.12-2.229 6.364 6.364 0 012.93-.965 6.325 6.325 0 013.03.527 6.295 6.295 0 012.43 1.895c.28.357.52.742.72 1.149.05.109.09.229.1.352a.899.899 0 01-.22.682.916.916 0 01-.29.223c-.12.053-.24.084-.36.09a.895.895 0 01-.36-.056.873.873 0 01-.31-.193.795.795 0 01-.21-.3 4.55 4.55 0 00-2.94-2.409 4.515 4.515 0 00-5.06 2.168 4.511 4.511 0 00-.52 2.858c.14.984.61 1.892 1.33 2.583a4.494 4.494 0 005.46.613 4.52 4.52 0 001.87-2.226c.1-.206.27-.367.49-.45a.9.9 0 01.66-.002c.22.082.39.242.49.448a.85.85 0 01.06.662 6.31 6.31 0 01-2.33 2.943 6.334 6.334 0 01-3.58 1.114z" fill="#77BE1D"/><path d="M1213.46 455.806c4.77.218 9.4.082 12.49-.079-2.81-2.001-9.29-6.355-14.71-8.087l-3.72-.222s-1.26 1.916-1.71 6.304c.61.788 2.42 1.842 7.65 2.084z" fill="url(#paint19_linear_2170_2014)"/><path d="M1225.99 455.755l-.04-.027c-3.09.16-7.72.296-12.49.078-5.23-.242-7.04-1.313-7.65-2.083-.02.201-.05.402-.06.613-.02.229 0 .46.08.679.07.218.18.421.33.596.15.175.33.319.53.423.21.104.43.167.66.185 3.91.296 13.61.964 18.29.722a.616.616 0 00.37-.141.66.66 0 00.23-.33.764.764 0 00-.01-.397.698.698 0 00-.24-.318z" fill="#77BE1D"/><path d="M1179.28 454.527c-.34-2.243-.91-5.486-1.34-6.314-.68-1.303-3.01 0-3.01 0s-1.64.76-2.39 2.045c-.48.809-1.8 3.113-2.7 4.678a.99.99 0 00-.14.556l9.32.341c.25-.388.34-.853.26-1.306z" fill="url(#paint20_linear_2170_2014)"/><path d="M1169.7 455.479a1.061 1.061 0 001.02 1.022l6.64.181c.33.01.66-.067.95-.223.29-.155.53-.384.7-.663l-9.31-.317z" fill="#77BE1D"/><path d="M1180 440.756c-.08.269-1.29 6.11-1.81 8.674a1.55 1.55 0 01-.54.862c-.28.215-.62.323-.97.307a17.6 17.6 0 01-1.33-.119 1.75 1.75 0 01-1.08-.56 1.745 1.745 0 01-.46-1.124c-.09-2.244-.13-6.554.68-8.224 1.15-2.305 5.51.184 5.51.184z" fill="url(#paint21_linear_2170_2014)"/><path d="M1206.79 442.43c.52 0-.21 2.666.57 5.305.07.289.22.55.45.743.22.194.5.308.8.328.4 0 .88 0 1.36-.045.36-.026.69-.178.94-.428.26-.249.41-.581.44-.936l.64-6.839-5.2 1.872z" fill="url(#paint22_linear_2170_2014)"/><path d="M1221.24 369.692c-.23 1.122-8.37 48.598-8.87 73.164 0 .199-.07.391-.21.541a.826.826 0 01-.51.274c-1.65.244-3.34.234-4.99-.031a.586.586 0 01-.49-.542c-.28-4.579-2.57-43.302.23-61.506 0 0-23.14 48.706-26.65 62.137a.667.667 0 01-.27.393.689.689 0 01-.45.135c-1.6-.06-3.17-.34-4.69-.832a1.188 1.188 0 01-.66-.571 1.19 1.19 0 01-.11-.867c1.95-8.037 15.68-63.42 25.02-75.616l22.65 3.321z" fill="#272039"/><path d="M1206.4 381.885a.306.306 0 01-.21-.085.214.214 0 01-.06-.099.242.242 0 010-.232.21.21 0 01.06-.099l3.1-3.171a.326.326 0 01.22-.088c.08 0 .15.032.21.088a.37.37 0 01.07.099.44.44 0 01.02.116c0 .04-.01.079-.02.116a.386.386 0 01-.07.099l-3.09 3.167a.325.325 0 01-.11.067.257.257 0 01-.12.022zm43.49-71.661a29.38 29.38 0 01-15.39.038c-6.77-1.777-20.12-4.712-29.22-3.069l-.75 23.786 31.08 3.549.28-6.314s18.89-2.728 29.11-15.149a50.753 50.753 0 01-5.7-7.744 24.443 24.443 0 01-9.41 4.903z" fill="#77BE1D"/><path d="M1270.49 286.784l-2.39-1.051s.12 11.968-8.8 19.589a51.424 51.424 0 005.71 7.736c5.03-6.123 7.96-14.603 5.48-26.274z" fill="url(#paint23_linear_2170_2014)"/><path d="M1220.17 293.968s-1.81 10.764-2.05 14.15c0 0 8.72 2.404 10.99 1.115l-.29-13.022-8.65-2.243z" fill="url(#paint24_linear_2170_2014)"/><path d="M1170.69 326.233l76.79-.515a3.155 3.155 0 012.94 1.956c.16.387.23.801.23 1.218l-.32 42.423c-.01.42-.09.835-.26 1.221-.16.385-.4.734-.71 1.026a3.138 3.138 0 01-2.28.88l-75.95-2.282a3.174 3.174 0 01-2.17-.936 3.152 3.152 0 01-.9-2.173l-.48-39.627c-.01-.414.07-.825.22-1.21.16-.385.38-.735.67-1.032.29-.296.64-.533 1.02-.696a3.13 3.13 0 011.2-.253z" fill="#165227"/><path d="M1247.18 371.881l-75.97-2.271a.59.59 0 01-.58-.59l-.51-39.613c0-.079.01-.158.04-.231a.538.538 0 01.13-.197.553.553 0 01.19-.133.59.59 0 01.23-.046l76.79-.515c.08-.001.16.015.23.044a.7.7 0 01.2.13c.05.055.1.122.13.195.03.073.04.152.04.231l-.32 42.416a.626.626 0 01-.18.41.602.602 0 01-.42.17zm-75.94-2.895l75.95 2.284.3-42.402-76.77.529.52 39.589z" fill="#77BE1D"/><path d="M1175.12 333.642c0 1.364.8 2.475 1.78 2.475h65.31c.99 0 1.78-1.108 1.78-2.475 0-1.364-.79-2.479-1.78-2.479h-65.31c-.98 0-1.78 1.108-1.78 2.479zm.32 6.141h27.5c.23 0 .46.045.68.133.21.089.4.219.57.383a1.733 1.733 0 01.51 1.247v22.701c0 .236-.04.469-.14.686-.09.217-.22.414-.39.578a1.756 1.756 0 01-1.28.499l-26.93-.747a1.742 1.742 0 01-1.19-.515c-.32-.317-.5-.742-.52-1.189l-.56-21.958c-.01-.236.03-.47.12-.69.08-.22.21-.421.37-.59a1.78 1.78 0 011.26-.538zm35 .559h30.69c.68 0 1.21.682 1.21 1.483 0 .822-.54 1.487-1.21 1.487h-30.69c-.68 0-1.21-.682-1.21-1.487 0-.818.54-1.483 1.21-1.483zm-1.21 7.846c0 .818.54 1.483 1.21 1.483h30.69c.68 0 1.2-.665 1.2-1.483v-.917c0-.832-.55-1.504-1.23-1.483l-30.69.917c-.65.02-1.18.678-1.18 1.483z" fill="#77BE1D"/><path d="M1212.93 320.02l-7.63-12.833s-15.96 13.665-20.78 32.66l8.45 5.316c3.47-6.199 9.52-14.453 19.96-25.143z" fill="#77BE1D"/><path d="M1196.22 373.361a2.016 2.016 0 01-1.09-.334 2.096 2.096 0 01-.75-.87c-.86-1.878-2.56-5.455-3.45-6.618 0 0 .98-.477 2.73-.075 1.75.403 3.2-.303 3.25-1.265l-8.11-3.474c-.29-.825-1.47-5.456 4.18-15.555l-8.46-5.316c-1.81 7.113-2.04 14.976.68 23.149 0 0 1.6 9.284 4.83 11.163 3.23 1.878 8.14-.764 8.14-.764l-1.95-.041z" fill="url(#paint25_linear_2170_2014)"/><path d="M1229.98 284.045s2.89 6.652 3.09 10.144c.19 3.491.95 5.758-3.09 6.478-4.04.719-7.44-1.306-9.29-4.774 0 0-2.88-5.36-2.23-7.555.65-2.196 11.52-4.293 11.52-4.293z" fill="url(#paint26_linear_2170_2014)"/><path d="M1222.06 293.364h.51s-2.1-4.314-.26-5.07c1.85-.757 9.17-2.254 10.75-4.849 1.52-2.506.16-5.738-1.86-6.645a.281.281 0 00-.2-.001.333.333 0 00-.15.13l-.16.317a.313.313 0 01-.12.114.255.255 0 01-.15.031.261.261 0 01-.15-.062.33.33 0 01-.09-.134.235.235 0 00-.08-.13.274.274 0 00-.41.055c-.49.774-1.79 2.046-5.3 2.687-4.99.921-8.28 2.936-8.36 6.379 0 .049-.02.097-.04.139a.27.27 0 01-.11.099.254.254 0 01-.14.031.272.272 0 01-.14-.044c-.36-.225-.95-.341-1.74.341-1.36 1.153-.81 4.136 2.19 6.591.04.026.06.059.08.096a.262.262 0 010 .244.233.233 0 01-.08.097c-.54.341-1.36 1.196.75 2.318 2.15 1.149 3.41 1.023 3.9.904a.298.298 0 00.21-.287l-.19-3.051a.4.4 0 01.01-.11.962.962 0 01.06-.094.417.417 0 01.09-.064.288.288 0 01.11-.022l1.07-.01z" fill="url(#paint27_linear_2170_2014)"/><path d="M1222.18 294.001s-1.1-4.248-3.01-3.068c-1.91 1.179.99 4.773 2.52 4.923l.49-1.855z" fill="url(#paint28_linear_2170_2014)"/><path d="M1261.48 276.804v4.807s3.92 4.978 9.01 5.173c0 0 4.49-.294 4.34-3.618l-7.16-1.364s-3.02-.886-3.86-1.364c-.01.011-.64-3.481-2.33-3.634z" fill="url(#paint29_linear_2170_2014)"/><path d="M1702.21 267.611s-19.31 24.73 2.73 49.88l8.29-.771s-15.96-25.61-8.85-46.03l11.74.856 6.47-4.232-20.38.297z" fill="url(#paint30_linear_2170_2014)"/><path d="M1645.27 212.014l91.72-4.733c1.8-.095 3.31.992 3.36 2.411l2.08 55.536c.05 1.429-1.4 2.636-3.21 2.677-16.6.341-90.32 1.906-93.57 2.158-3.24.252-3.45-44.428-3.46-55.451-.02-1.364 1.34-2.506 3.08-2.598z" fill="#5E931B"/><path d="M1647.1 268.051l-.06-.236c-1.36-5.077-2.29-25.981-2.32-53.255a.636.636 0 01.65-.6l91.72-4.736c.16-.01.32.035.46.13.07.049.13.114.17.191.05.076.07.161.07.248l2.07 55.537a.636.636 0 01-.64.624h-.02c-13.21.279-79.75 1.684-91.85 2.086l-.25.011zm90.02-58.217h-.02l-91.72 4.733c-.01 0-.03.002-.04.006a.137.137 0 00-.03.021c.03 26.79.91 47.415 2.24 52.829 12.73-.416 78.48-1.804 91.62-2.08.01.001.02-.001.03-.005.01-.004.02-.011.02-.019l-2.08-55.502s.01.017-.01.017h-.01z" fill="#BDD0FB"/><path d="M1705.2 218.438c.07 1.404.58 2.523 1.16 2.499l25.49-1.136c.58-.027 1-1.186.93-2.591-.06-1.405-.57-2.52-1.15-2.496l-25.49 1.122c-.58.041-1 1.2-.94 2.602zm.12 6.917c.03.702.52 1.251 1.1 1.224l25.49-1.135c.58-.024 1.02-.614.99-1.316-.03-.703-.52-1.252-1.1-1.228l-25.5 1.136c-.57.027-1.02.617-.98 1.319zm0 5.296c.03.702.52 1.251 1.1 1.224l25.49-1.135c.58-.024 1.02-.614.99-1.316-.03-.703-.52-1.252-1.1-1.228l-25.5 1.135c-.57.028-1.02.618-.98 1.32zm-34.67 27.464h-.83a1.012 1.012 0 01-.66-.253.996.996 0 01-.32-.623l-1.8-15.49c-.01-.13 0-.262.03-.388.04-.125.1-.243.18-.345a.925.925 0 01.3-.25.942.942 0 01.37-.115 7.01 7.01 0 002.71-.986c.41-.269.88-1.517 1.29-2.615.64-1.705 1.44-3.815 2.91-5.493 2.39-2.728 1.99-6.799 1.93-7.256-.12-1.002.66-2.475 1.87-2.945.74-.287 2.22-.437 3.83 1.8 2.02 2.789 1.14 6.546.56 9.035-.17.642-.3 1.295-.38 1.954v.044c.51.317 2.79-.037 4.17-.249.73-.112 1.48-.231 2.22-.313 2.56-.3 5.57-.188 6.13 3.331.09.582.05 1.177-.13 1.739a3.838 3.838 0 01-.89 1.5c1.13.968 1.7 2.025 1.75 3.154a3.913 3.913 0 01-.89 2.452c.48.433.84.987 1.04 1.604.2.617.23 1.277.09 1.911a4.33 4.33 0 01-1.36 2.387c.38.417.58.962.57 1.524-.05 1.705-2.12 3.437-4.93 4.091-3.4.737-16.32.795-19.76.795zm-1.54-15.685l1.6 13.721c3.46 0 16.12-.065 19.26-.784 2.23-.515 3.38-1.705 3.41-2.21 0-.198-.37-.44-.92-.6a.969.969 0 01-.55-.393 1.005 1.005 0 01-.17-.652c.02-.23.12-.446.29-.609a.977.977 0 01.61-.283c.68-.061 1.4-.835 1.57-1.704.12-.618 0-1.487-1.18-2.121a1.004 1.004 0 01-.53-.809.93.93 0 01.1-.49.947.947 0 01.32-.382s1.02-.788 1.02-1.736-1.04-1.762-1.89-2.305a1.12 1.12 0 01-.35-.37.945.945 0 01-.11-.495c0-.172.05-.34.14-.487a1 1 0 01.37-.352c.04-.028 1.36-.819 1.14-2.125-.16-.985-.34-2.1-3.96-1.681-.68.079-1.42.195-2.13.304-2.65.409-4.73.733-5.83-.256-.22-.2-.39-.447-.5-.723a1.98 1.98 0 01-.12-.869c.08-.78.22-1.552.42-2.308.53-2.264 1.26-5.367-.23-7.427-.58-.797-1.15-1.231-1.49-1.121a1.21 1.21 0 00-.42.378c-.12.157-.19.338-.22.529.06.521.53 5.404-2.41 8.766-1.23 1.405-1.93 3.253-2.55 4.882-.61 1.63-1.11 2.946-2.04 3.57-.81.527-1.71.913-2.65 1.142z" fill="#BDD0FB"/><path d="M1712.8 388.684s15.65 34.096 23.87 48.233c0 0 1.63 8.892 0 11.684l-1.4.621 6.48-.194s.58-11.958.13-12.616a1.68 1.68 0 00-.6-.472 1.628 1.628 0 00-.75-.152s-2.78-22.033-10.83-26.735l-7.81-26.885-9.09 6.516z" fill="url(#paint31_linear_2170_2014)"/><path d="M1732.5 450.896c0 .153 5.06.085 7.82.034.5-.009.97-.185 1.35-.499.38-.314.65-.747.75-1.23l2.09-10.938c.09-.5-.01-1.017-.29-1.442a1.969 1.969 0 00-1.21-.842l-1.16-.266s-1.66 2.274-1.14 4.432c.53 2.159.99 7.686-.34 8.334-1.32.647-5.11.76-5.11.76s-2.67.249-2.76 1.657zm-34.53.204a.592.592 0 00-.25.278.524.524 0 00-.02.37.553.553 0 00.56.423c4.61-.048 14.94-.194 15.86-.576 1.19-.491-.43-4.753-2.13-6.196l-9.4 3.069-4.62 2.632z" fill="#77BE1D"/><path d="M1695.05 386.509s10.11 48.908 12.96 58.455l-6.77 4.248s3.41-.58 5.9-.76c2.5-.181 4.83-3.069 4.83-3.069l-.81-1.292s-2.53-48.656-1.91-54.183l-14.2-3.399z" fill="url(#paint32_linear_2170_2014)"/><path d="M1669.95 272.398s-1.4 25.449 21.77 38.454l-5.58 12.728s-20.98-12.688-20.2-47.292a4.018 4.018 0 00-.98-2.711l-4.46-5.172a8.009 8.009 0 01-1.73-3.372 8.084 8.084 0 01.02-3.788l.59-2.346c.05-.183.13-.353.26-.497a1.206 1.206 0 011.53-.26l.47.269a8.237 8.237 0 013.36 3.751l2.19 4.893a4.65 4.65 0 001.9 2.133c.85.495 1.82.716 2.79.632l1.37-.116-3.3 2.694z" fill="url(#paint33_linear_2170_2014)"/><path d="M1690.91 308.943c3.88 1.077 17.01 4.531 25.21 4.388l-5.04 28.406.4 4.633-16.41-.075s-4.62-10.727-8.27-16.076c-1.05-1.545-.27-3.389.34-5.159l-.82-.549c-.4-.27-.71-.665-.87-1.126-.16-.46-.17-.961-.01-1.424l3.99-12.227c.1-.296.31-.543.58-.69.28-.148.6-.184.9-.101z" fill="#77BE1D"/><path d="M1693.76 343.871l.34 2.806s-4.64 13.891 2.32 46.33c0 0 15.06 4.269 27.45-5.946 0 0-3.5-30.615-4.43-32.051-4.75-7.102-7.92-8.646-7.92-8.646l-.14-3.069s-13.28 2.404-17.62.576z" fill="#272039"/><path d="M1700.18 311.234c-.05-.079 3.41-10.519 3.41-10.519l4.99.453 1.95 11.845s-7.8 1.579-10.35-1.779z" fill="url(#paint34_linear_2170_2014)"/><path d="M1707.4 284.246c-.34.208-10.66 4.477-8.44 15.204.06.313.2.607.4.856.2.25.46.448.75.579a17.516 17.516 0 008.68 1.436c5.41-.549 8.96-9.994 8.81-12.742-.15-2.748-6.9-7.385-10.2-5.333z" fill="url(#paint35_linear_2170_2014)"/><path d="M1710.55 280.076c-.27.038-5.97 2.022-3.15 6.138 2.83 4.115 3.89 6.56 2.55 8.374-1.21 1.65-3.91.709-3.68 4.146.03.337-.03.675-.17.981-.15.306-.37.569-.65.761-2.54 1.722-8.74 7.017-2.6 14.57.25.296.4.66.44 1.044.04.384-.04.771-.22 1.111-1.8 3.225-5.58 12.683 8.11 17.927 13.52 5.183 18.41-3.658 19.77-7.19.15-.371.41-.685.74-.9.34-.214.73-.317 1.13-.294 1.49.072 3.59-.177 3.49-2.162-.05-1.207-.81-2.287-1.7-3.153-.21-.203-.36-.45-.46-.723-.1-.273-.13-.564-.09-.851.03-.287.14-.561.29-.803.16-.242.37-.443.62-.59.45-.238.84-.564 1.15-.958.31-.394.54-.847.67-1.333.83-3.038-.81-12.118-9.52-13.659a2.051 2.051 0 01-1.59-1.538v-.031c-.07-.341-.04-.695.08-1.022a1.9 1.9 0 01.6-.829c1.39-1.023 3.18-3.069 1.73-6.366-1.29-2.918-3.75-3.904-5.58-4.217a1.935 1.935 0 01-.71-.27 1.793 1.793 0 01-.55-.529 1.829 1.829 0 01-.3-.703 1.78 1.78 0 01.01-.762c.62-2.899.09-7.543-10.41-6.169z" fill="#272039"/><path fill="url(#paint36_linear_2170_2014)" d="M0 264h1788v210H0z"/><defs><linearGradient id="paint0_linear_2170_2014" x1="2327.91" y1="-320.839" x2="2188.9" y2="-241.072" gradientUnits="userSpaceOnUse"><stop stop-color="#FF928E"/><stop offset="1" stop-color="#FEB3B1"/></linearGradient><linearGradient id="paint1_linear_2170_2014" x1="2296.06" y1="-376.314" x2="2157.06" y2="-296.552" gradientUnits="userSpaceOnUse"><stop stop-color="#FF928E"/><stop offset="1" stop-color="#FEB3B1"/></linearGradient><linearGradient id="paint2_linear_2170_2014" x1="1566.55" y1="98.102" x2="1671.7" y2="295.578" gradientUnits="userSpaceOnUse"><stop stop-color="#FF928E"/><stop offset="1" stop-color="#FEB3B1"/></linearGradient><linearGradient id="paint3_linear_2170_2014" x1="1697.9" y1="71.564" x2="1494.11" y2="95.732" gradientUnits="userSpaceOnUse"><stop stop-color="#FF928E"/><stop offset="1" stop-color="#FEB3B1"/></linearGradient><linearGradient id="paint4_linear_2170_2014" x1="1700.58" y1="94.196" x2="1496.8" y2="118.364" gradientUnits="userSpaceOnUse"><stop stop-color="#FF928E"/><stop offset="1" stop-color="#FEB3B1"/></linearGradient><linearGradient id="paint5_linear_2170_2014" x1="1232.92" y1="-142.054" x2="1305.99" y2="-100.878" gradientUnits="userSpaceOnUse"><stop stop-color="#FF928E"/><stop offset="1" stop-color="#FEB3B1"/></linearGradient><linearGradient id="paint6_linear_2170_2014" x1="1231.38" y1="-139.32" x2="1304.44" y2="-98.144" gradientUnits="userSpaceOnUse"><stop stop-color="#FF928E"/><stop offset="1" stop-color="#FEB3B1"/></linearGradient><linearGradient id="paint7_linear_2170_2014" x1="1144.97" y1="205.577" x2="1151" y2="215.22" gradientUnits="userSpaceOnUse"><stop stop-color="#0A0442"/><stop offset="1" stop-color="#1A0F91"/></linearGradient><linearGradient id="paint8_linear_2170_2014" x1="1109.67" y1="178.514" x2="1201.49" y2="241.943" gradientUnits="userSpaceOnUse"><stop stop-color="#A22B25"/><stop offset="1" stop-color="#C0423C"/></linearGradient><linearGradient id="paint9_linear_2170_2014" x1="1170.25" y1="205.529" x2="1174.57" y2="216.774" gradientUnits="userSpaceOnUse"><stop stop-color="#0A0442"/><stop offset="1" stop-color="#1A0F91"/></linearGradient><linearGradient id="paint10_linear_2170_2014" x1="1117.84" y1="166.686" x2="1209.67" y2="230.115" gradientUnits="userSpaceOnUse"><stop stop-color="#A22B25"/><stop offset="1" stop-color="#C0423C"/></linearGradient><linearGradient id="paint11_linear_2170_2014" x1="1172.09" y1="73.282" x2="1253.27" y2="173.754" gradientUnits="userSpaceOnUse"><stop stop-color="#E1473D"/><stop offset="1" stop-color="#E9605A"/></linearGradient><linearGradient id="paint12_linear_2170_2014" x1="1155.14" y1="51.717" x2="1255.83" y2="89.864" gradientUnits="userSpaceOnUse"><stop stop-color="#A22B25"/><stop offset="1" stop-color="#C0423C"/></linearGradient><linearGradient id="paint13_linear_2170_2014" x1="1167.32" y1="100.975" x2="1226.64" y2="202.207" gradientUnits="userSpaceOnUse"><stop stop-color="#FE7062"/><stop offset="1" stop-color="#FF928E"/></linearGradient><linearGradient id="paint14_linear_2170_2014" x1="1181.72" y1="103.26" x2="1294.84" y2="107.031" gradientUnits="userSpaceOnUse"><stop stop-color="#A22B25"/><stop offset="1" stop-color="#C0423C"/></linearGradient><linearGradient id="paint15_linear_2170_2014" x1="1181.98" y1="95.67" x2="1295.09" y2="99.442" gradientUnits="userSpaceOnUse"><stop stop-color="#A22B25"/><stop offset="1" stop-color="#C0423C"/></linearGradient><linearGradient id="paint16_linear_2170_2014" x1="1187.7" y1="61.781" x2="1162.93" y2="94.06" gradientUnits="userSpaceOnUse"><stop stop-color="#A22B25"/><stop offset="1" stop-color="#C0423C"/></linearGradient><linearGradient id="paint17_linear_2170_2014" x1="1174.84" y1="49.685" x2="1183.02" y2="68.325" gradientUnits="userSpaceOnUse"><stop stop-color="#A22B25"/><stop offset="1" stop-color="#C0423C"/></linearGradient><linearGradient id="paint18_linear_2170_2014" x1="1169.85" y1="51.873" x2="1178.03" y2="70.513" gradientUnits="userSpaceOnUse"><stop stop-color="#A22B25"/><stop offset="1" stop-color="#C0423C"/></linearGradient><linearGradient id="paint19_linear_2170_2014" x1="1205.74" y1="451.67" x2="1226.26" y2="451.67" gradientUnits="userSpaceOnUse"><stop stop-color="#09005D"/><stop offset="1" stop-color="#1A0F91"/></linearGradient><linearGradient id="paint20_linear_2170_2014" x1="1169.7" y1="451.721" x2="1179.31" y2="451.721" gradientUnits="userSpaceOnUse"><stop stop-color="#09005D"/><stop offset="1" stop-color="#1A0F91"/></linearGradient><linearGradient id="paint21_linear_2170_2014" x1="1173.76" y1="445.096" x2="1180" y2="445.096" gradientUnits="userSpaceOnUse"><stop stop-color="#FF928E"/><stop offset="1" stop-color="#FEB3B1"/></linearGradient><linearGradient id="paint22_linear_2170_2014" x1="1206.79" y1="444.687" x2="1211.98" y2="444.687" gradientUnits="userSpaceOnUse"><stop stop-color="#FF928E"/><stop offset="1" stop-color="#FEB3B1"/></linearGradient><linearGradient id="paint23_linear_2170_2014" x1="1279.48" y1="279.286" x2="1253.56" y2="319.993" gradientUnits="userSpaceOnUse"><stop stop-color="#FF928E"/><stop offset="1" stop-color="#FEB3B1"/></linearGradient><linearGradient id="paint24_linear_2170_2014" x1="1229.44" y1="289.747" x2="1220.4" y2="312.08" gradientUnits="userSpaceOnUse"><stop stop-color="#FF928E"/><stop offset="1" stop-color="#FEB3B1"/></linearGradient><linearGradient id="paint25_linear_2170_2014" x1="1224.77" y1="320.743" x2="1210.79" y2="335.746" gradientUnits="userSpaceOnUse"><stop stop-color="#FF928E"/><stop offset="1" stop-color="#FEB3B1"/></linearGradient><linearGradient id="paint26_linear_2170_2014" x1="1223.58" y1="285.306" x2="1228.52" y2="299.286" gradientUnits="userSpaceOnUse"><stop stop-color="#FF928E"/><stop offset="1" stop-color="#FEB3B1"/></linearGradient><linearGradient id="paint27_linear_2170_2014" x1="1218.93" y1="279.899" x2="1233.93" y2="299.204" gradientUnits="userSpaceOnUse"><stop stop-color="#0A0442"/><stop offset="1" stop-color="#1A0F91"/></linearGradient><linearGradient id="paint28_linear_2170_2014" x1="1218.24" y1="287.196" x2="1223.18" y2="301.175" gradientUnits="userSpaceOnUse"><stop stop-color="#FF928E"/><stop offset="1" stop-color="#FEB3B1"/></linearGradient><linearGradient id="paint29_linear_2170_2014" x1="1271.97" y1="274.506" x2="1246.05" y2="315.213" gradientUnits="userSpaceOnUse"><stop stop-color="#FF928E"/><stop offset="1" stop-color="#FEB3B1"/></linearGradient><linearGradient id="paint30_linear_2170_2014" x1="1713.94" y1="301.247" x2="1707.13" y2="276.926" gradientUnits="userSpaceOnUse"><stop stop-color="#FF928E"/><stop offset="1" stop-color="#FEB3B1"/></linearGradient><linearGradient id="paint31_linear_2170_2014" x1="1712.8" y1="415.688" x2="1742.05" y2="415.688" gradientUnits="userSpaceOnUse"><stop stop-color="#FF928E"/><stop offset="1" stop-color="#FEB3B1"/></linearGradient><linearGradient id="paint32_linear_2170_2014" x1="1695.05" y1="417.864" x2="1711.99" y2="417.864" gradientUnits="userSpaceOnUse"><stop stop-color="#FF928E"/><stop offset="1" stop-color="#FEB3B1"/></linearGradient><linearGradient id="paint33_linear_2170_2014" x1="1702.62" y1="215.487" x2="1691.71" y2="243.446" gradientUnits="userSpaceOnUse"><stop stop-color="#FF928E"/><stop offset="1" stop-color="#FEB3B1"/></linearGradient><linearGradient id="paint34_linear_2170_2014" x1="1700.18" y1="307.05" x2="1710.55" y2="307.05" gradientUnits="userSpaceOnUse"><stop stop-color="#FF928E"/><stop offset="1" stop-color="#FEB3B1"/></linearGradient><linearGradient id="paint35_linear_2170_2014" x1="1720.71" y1="267.751" x2="1714.8" y2="279.572" gradientUnits="userSpaceOnUse"><stop stop-color="#FF928E"/><stop offset="1" stop-color="#FEB3B1"/></linearGradient><linearGradient id="paint36_linear_2170_2014" x1="894" y1="264" x2="894" y2="395" gradientUnits="userSpaceOnUse"><stop stop-color="#06030F" stop-opacity="0"/><stop offset="1" stop-color="#06030F"/></linearGradient></defs></svg>