<svg width="50" height="50" fill="none" xmlns="http://www.w3.org/2000/svg"><g clip-path="url(#clip0_301_507)"><g clip-path="url(#clip1_301_507)"><path d="M19.175 48.26V36.678h1.619v13.246c-1.069 0-2.139.122-3.17-.026-2.032-.291-3.442-2.021-3.454-4.078-.015-2.793-.025-5.587.011-8.38.01-.786.193-1.57.305-2.414-.121-.01-.302-.036-.482-.036-2.134-.003-4.268-.013-6.402 0-3.376.022-5.923 2.575-5.92 5.947.001 1.367-.049 2.75.125 4.099.205 1.595 1.664 2.933 3.193 3.143v-9h1.658v9.117h7.47v1.656c-.171.008-.339.024-.507.024-2.532.001-5.066.004-7.598 0C2.541 49.97.009 47.45.013 43.975c.003-1.403-.068-2.822.104-4.207.453-3.665 3.56-6.389 7.287-6.433 2.565-.032 5.132.046 7.698.059a.642.642 0 00.451-.235c1.591-2.158 3.734-3.18 6.397-3.172 2.064.006 4.13-.006 6.194.003 2.6.013 4.706 1.032 6.247 3.144.19.259.381.261.656.26 2.79-.01 5.59-.152 8.369.04 3.52.241 6.373 3.355 6.532 6.908.07 1.59.097 3.203-.094 4.777-.332 2.737-2.781 4.817-5.539 4.848-2.808.03-5.616.006-8.461.006v-1.649h7.444v-9.146h1.657v9.051c.247-.067.43-.1.598-.165 1.553-.612 2.559-1.744 2.694-3.397.128-1.564.14-3.167-.048-4.722-.336-2.77-2.621-4.824-5.413-4.93-2.355-.088-4.717-.02-7.077-.019-.082 0-.165.027-.208.034.618 3.672.256 7.35.29 11.011.018 2.124-1.836 3.864-3.96 3.926-.866.025-1.732.004-2.637.004V36.682h1.629v11.555c1.954.379 3.327-.745 3.329-2.683.002-2.62.003-5.239 0-7.859-.004-3.503-2.534-6.029-6.045-6.037-2.064-.004-4.13-.005-6.193 0-3.58.008-6.075 2.516-6.08 6.105-.003 2.532.067 5.068-.023 7.598-.063 1.735 1.072 3.255 3.364 2.9z" fill="#29355D"/><path d="M4.985 25.857v1.583c-1.24.113-2.436-.966-2.464-2.29-.038-1.768-.04-3.538.001-5.307.03-1.31 1.147-2.316 2.518-2.34.937-.018 1.874.009 2.81-.018.16-.004.402-.133.46-.267.425-1 .814-2.017 1.24-3.095-.646-.643-1.346-1.337-2.043-2.037-1.228-1.234-1.233-2.658-.013-3.885a643.82 643.82 0 013.201-3.2c1.191-1.182 2.667-1.177 3.867.007.617.609 1.237 1.217 1.835 1.844.204.215.36.23.625.11.867-.39 1.745-.762 2.632-1.105.255-.099.35-.206.346-.476-.014-.937-.012-1.874-.003-2.811.015-1.46 1.062-2.536 2.524-2.554a194.08 194.08 0 014.945 0c1.46.018 2.508 1.095 2.523 2.556.01.92.017 1.84-.005 2.759-.007.318.107.435.399.546.873.331 1.734.696 2.583 1.083.269.122.422.105.624-.108.61-.639 1.243-1.26 1.872-1.88 1.148-1.133 2.641-1.142 3.791-.01 1.113 1.095 2.216 2.2 3.313 3.312 1.123 1.14 1.114 2.59-.017 3.737-.706.716-1.43 1.415-2.117 2.096.435 1.101.843 2.162 1.282 3.209.043.102.277.17.423.173.901.015 1.804.002 2.706.009 1.584.014 2.63 1.067 2.635 2.657.005 1.614.012 3.227-.003 4.84-.014 1.397-1.071 2.463-2.457 2.473v-1.584c.695-.296.792-.445.793-1.245.001-1.475.003-2.95 0-4.424-.003-.745-.296-1.044-1.04-1.048-1.284-.007-2.569.006-3.852-.013-.169-.002-.456-.112-.483-.224a16.93 16.93 0 00-2.158-5.024c1.004-.996 1.988-1.972 2.97-2.95.632-.63.634-.995.014-1.618-1.04-1.045-2.081-2.089-3.126-3.13-.573-.571-.972-.572-1.548.005-.992.993-1.977 1.993-2.974 2.998-.482-.27-.898-.562-1.358-.748a69.405 69.405 0 00-3.492-1.314c-.338-.116-.457-.237-.45-.6.024-1.266.012-2.533.008-3.8-.002-.777-.29-1.068-1.07-1.07a729.41 729.41 0 00-4.529 0c-.773.002-1.058.297-1.06 1.08-.002 1.249-.01 2.498.006 3.747.005.356-.055.548-.462.641-1.583.36-3.062.996-4.438 1.855-.277.173-.437.143-.656-.082a239.67 239.67 0 00-2.721-2.725c-.553-.547-.973-.549-1.515-.01a729.385 729.385 0 00-3.238 3.24c-.507.51-.507.917.002 1.429 1.013 1.019 2.033 2.03 3.07 3.064a16.845 16.845 0 00-2.144 4.973c-.03.122-.294.26-.452.263-1.265.022-2.532.01-3.799.013-.875.002-1.139.27-1.14 1.156 0 1.44.016 2.88-.008 4.32-.012.627.14 1.094.817 1.214z" fill="#00A3FF"/><path d="M36.677 22.473h-1.673c-.114-3.145-1.31-5.76-3.751-7.748-1.918-1.561-4.142-2.292-6.606-2.208-5.096.175-9.52 4.218-9.676 9.942h-1.652c.14-4.013 1.73-7.278 5.053-9.522 3.987-2.693 8.23-2.89 12.419-.519 3.826 2.169 5.678 5.627 5.886 10.055z" fill="#00A3FF"/><path d="M24.94 29.155c-2.752-.02-4.966-2.276-4.944-5.039.022-2.737 2.313-4.986 5.047-4.95a5.018 5.018 0 014.945 5.051c-.024 2.751-2.282 4.96-5.047 4.938zm.05-1.667a3.319 3.319 0 003.33-3.293c.013-1.84-1.491-3.36-3.326-3.362-1.814 0-3.319 1.493-3.33 3.306a3.318 3.318 0 003.326 3.349zM10.8 32.486a4.99 4.99 0 01-4.96-5.023c.014-2.74 2.294-4.99 5.03-4.966a5.018 5.018 0 014.961 5.036c-.016 2.752-2.267 4.968-5.031 4.953zm.025-1.667a3.318 3.318 0 003.339-3.284c.015-1.842-1.484-3.364-3.32-3.37-1.833-.006-3.345 1.512-3.338 3.351a3.319 3.319 0 003.32 3.303zm28.292 1.667a4.99 4.99 0 01-4.964-5.019c.013-2.74 2.29-4.992 5.026-4.97a5.018 5.018 0 014.966 5.031c-.015 2.753-2.264 4.97-5.028 4.958zm-.004-1.667a3.318 3.318 0 003.364-3.311 3.349 3.349 0 00-3.293-3.344c-1.83-.024-3.36 1.49-3.363 3.325a3.318 3.318 0 003.292 3.33zM21.686 49.942v-1.604h6.594v1.604h-6.594z" fill="#29355D"/></g></g><defs><clipPath id="clip0_301_507"><path fill="#fff" d="M0 0h50v50H0z"/></clipPath><clipPath id="clip1_301_507"><path fill="#fff" d="M0 0h50v49.982H0z"/></clipPath></defs></svg>