<svg width="50" height="50" fill="none" xmlns="http://www.w3.org/2000/svg"><g clip-path="url(#clip0_17_1047)"><g clip-path="url(#clip1_17_1047)"><path d="M.018 27.419c0-5.237-.008-10.474.002-15.712.008-3.794 2.227-6.973 5.79-8.182.891-.303 1.873-.419 2.82-.462 1.46-.067 2.927-.036 4.388.022 3.895.152 7.36 3.333 7.88 7.205.066.498.104 1.004.105 1.506.005 10.572.004 21.145.003 31.717 0 1.966-1.024 3.372-2.816 3.83-.387.1-.804.114-1.208.115-4.31.008-8.621-.03-12.93.018-2.547.026-4.073-1.818-4.052-4.053.053-5.333.018-10.67.018-16.004zm15.618 1.737c0-1.708.002-3.415 0-5.122-.002-.718-.245-.973-.966-.974-2.764-.005-5.528-.005-8.293 0-.751.001-.988.247-.989 1v10.195c0 .752.238.997.99.999 2.748.005 5.496.005 8.244 0 .782-.001 1.012-.24 1.014-1.024v-5.074zm3.904-10.84c0-2.033.005-3.934-.014-5.833 0-.105-.19-.277-.317-.303-3.817-.81-6.429-3.498-7.076-7.324-.047-.275-.153-.352-.407-.349-.7.01-1.399.016-2.098-.003-.311-.008-.403.108-.452.411-.578 3.59-3.162 6.346-6.7 7.172-.325.076-.653.135-.956.197v5.967c4.184-6.714 13.81-6.683 18.02.064zm-.02 21.98c-1.102.829-2.334.723-3.548.722H5.146c-1.243-.002-2.51.126-3.662-.737v1.208c0 .682-.002 1.365 0 2.048.005 1.564.874 2.449 2.446 2.452 4.389.008 8.778.003 13.167.002.145 0 .292-.012.437-.026 1.053-.104 1.905-.852 1.967-1.896.074-1.225.019-2.457.019-3.773zm-9.005-25.633c-2.963.082-5.354 1.255-7.183 3.572-.188.238-.187.389-.013.626.51.694 1.025 1.388 1.479 2.12.317.51.64.86 1.295.62.13-.046.29-.013.437-.013 2.651 0 5.302-.002 7.954.002.307.001.617.064.923.051.157-.007.371-.073.456-.188.634-.865 1.237-1.754 1.864-2.624.144-.2.166-.334 0-.547-1.838-2.358-4.255-3.546-7.212-3.619zM1.773 38.58l.174-.016c.59-.836 1.165-1.68 1.771-2.504.272-.369.478-.7.255-1.184-.095-.205-.049-.48-.049-.723-.002-3.283-.01-6.566.008-9.848.003-.477.14-.954.202-1.432.015-.115.022-.264-.037-.35-.577-.842-1.168-1.675-1.784-2.551a8.311 8.311 0 00-.82 3.616c-.014 4.584-.014 9.166.005 13.749.001.415.178.829.275 1.243zm16.94-18.608c-.618.876-1.21 1.708-1.784 2.552-.063.094-.04.265-.022.395.056.398.185.794.187 1.19.015 3.202.015 6.403.002 9.605-.002.53-.1 1.06-.148 1.59-.007.09-.01.203.037.269.698 1.008 1.403 2.008 2.108 3.01l.18-.002c.09-.464.252-.927.256-1.39.027-2.308.012-4.616.012-6.924 0-2.144.003-4.29 0-6.434-.005-1.326-.232-2.605-.829-3.861zm-.77 19.533c-.634-.904-1.205-1.69-1.744-2.499-.22-.33-.41-.534-.852-.35-.24.1-.544.066-.82.066-2.681.004-5.364.006-8.045-.002-.322 0-.656-.017-.963-.104-.273-.078-.407-.017-.558.206-.539.792-1.1 1.57-1.648 2.356-.058.084-.092.186-.16.328h14.79zM7.717 4.598c-3.483.259-6.18 3.713-6.083 6.143 3.012-.333 5.873-3.207 6.083-6.143zm11.71 6.094c-.224-3.07-3.128-5.834-5.8-6.008.319 2.878 2.748 5.406 5.8 6.008z" fill="#00A3FF"/><path d="M29.01 27.429c0-5.237-.008-10.475.003-15.712.007-3.797 2.219-6.974 5.782-8.188.891-.304 1.871-.42 2.818-.465 1.46-.067 2.928-.037 4.39.02 3.902.154 7.361 3.324 7.888 7.197.065.482.104.971.104 1.458.006 10.605.006 21.21.003 31.814 0 1.93-1.028 3.327-2.807 3.787-.388.1-.805.117-1.208.118-4.31.008-8.62-.03-12.93.019-2.55.028-4.089-1.81-4.063-4.092.06-5.319.02-10.638.02-15.956zm15.62 1.716c0-1.69.001-3.383-.002-5.073 0-.76-.233-1.012-.975-1.013a1976.12 1976.12 0 00-8.293 0c-.744.002-.978.252-.978 1.01-.002 3.398-.002 6.796 0 10.195 0 .73.236.986.95.988 2.781.007 5.562.007 8.342 0 .716-.002.953-.257.954-.984.003-1.709.001-3.416.001-5.123zm3.89-16.885c-.094-.035-.137-.06-.182-.069-3.903-.76-6.523-3.421-7.212-7.347-.05-.283-.174-.339-.418-.336a53.88 53.88 0 01-2.05-.003c-.318-.009-.435.087-.492.422-.494 2.856-2 5.025-4.576 6.36-.951.493-2.022.752-3.072 1.13v5.84c2.183-3.262 5.149-5.043 9.022-5.035 3.857.01 6.808 1.812 8.98 5.064V12.26zm-.015 28.04c-1.067.802-2.261.722-3.445.72-3.642-.004-7.283 0-10.924-.002-1.244 0-2.51.125-3.66-.735v1.21c0 .682-.002 1.365 0 2.048.005 1.563.876 2.447 2.45 2.449 4.389.007 8.777.003 13.166 0 .146 0 .292-.01.438-.025 1.035-.102 1.886-.823 1.955-1.85.084-1.24.02-2.489.02-3.815zM32.09 18.532c.598.854 1.198 1.647 1.724 2.485.317.505.646.8 1.266.585.117-.041.259-.014.389-.014 2.683 0 5.368-.002 8.051.002.292.001.585.064.875.05.158-.008.374-.07.458-.184.634-.864 1.233-1.756 1.865-2.622.169-.233.144-.372-.026-.586-1.742-2.206-3.994-3.443-6.813-3.55-3.255-.124-5.803 1.235-7.789 3.834zm-1.311 20.062l.148-.012c.69-.982 1.386-1.96 2.064-2.949.067-.098.062-.265.05-.397-.03-.353-.12-.705-.12-1.058-.01-3.332-.013-6.663.003-9.994.002-.43.133-.857.194-1.288.017-.116.041-.268-.016-.351-.581-.853-1.18-1.696-1.8-2.578-.545 1.166-.81 2.334-.815 3.547-.015 4.616-.015 9.231.004 13.846.002.412.188.823.288 1.234zm17.304-.011c.056 0 .111.003.167.004.094-.446.27-.89.271-1.337.02-4.518.017-9.035.009-13.553a8.653 8.653 0 00-.821-3.73c-.622.885-1.222 1.732-1.806 2.588-.056.082-.023.235-.007.352.06.414.19.826.191 1.24.017 3.234.016 6.468.002 9.702-.002.481-.1.962-.142 1.444-.009.102-.004.232.05.311.689.997 1.389 1.988 2.086 2.979zm-15.996.902H46.92c-.618-.882-1.187-1.669-1.727-2.476-.217-.326-.403-.537-.849-.355-.257.104-.577.067-.869.067-2.65.004-5.299.008-7.948-.003-.369-.002-.737-.094-1.107-.117-.123-.008-.308.023-.369.106-.646.89-1.273 1.795-1.964 2.778zM36.69 4.578c-3.632.386-6.111 3.778-6.077 6.153 3.153-.304 5.9-3.333 6.077-6.153zm11.725 6.115c-.194-3.188-3.386-5.97-5.813-5.98.454 3.018 2.92 5.462 5.813 5.98zM24.36 2.917h1.404v44.08H24.36V2.917zm1.39-1.494h-1.388V0h1.388v1.423zm.005 48.506h-1.403v-1.406h1.403v1.406z" fill="#29355D"/><path d="M2.913 44.491v-1.386h1.418v1.386H2.913zm15.188-1.395v1.405h-1.4v-1.405h1.4z" fill="#00A3FF"/><path d="M32.108 44.5v-1.402h1.401V44.5h-1.4zm13.769-.005v-1.394h1.394v1.394h-1.394z" fill="#29355D"/></g></g><defs><clipPath id="clip0_17_1047"><path fill="#fff" d="M0 0h50v50H0z"/></clipPath><clipPath id="clip1_17_1047"><path fill="#fff" d="M0 0h50v49.929H0z"/></clipPath></defs></svg>