<svg width="50" height="50" fill="none" xmlns="http://www.w3.org/2000/svg"><g clip-path="url(#clip0_301_393)"><g clip-path="url(#clip1_301_393)"><path d="M13.658 39.43v-2.654c0-1.123-.004-2.246.002-3.368.003-.537.283-.853.725-.853.434 0 .731.329.737.854.01.928.003 1.855.003 2.782v12.292h19.75V26.816c0-.903-.18-1.085-1.082-1.085H16.22c-.918 0-1.094.173-1.095 1.071v2.733c0 .147.01.297-.022.438-.091.397-.338.633-.762.604-.418-.027-.67-.272-.674-.69-.012-1.235-.034-2.474.016-3.708.038-.93.851-1.74 1.777-1.877.24-.035.486-.039.73-.039 5.873-.002 11.748.025 17.622-.018 1.546-.012 2.592 1.005 2.55 2.57-.07 2.487-.02 4.978-.02 7.468v.58H47.46c1.686.001 2.541.863 2.541 2.562v11.52c0 .824-.219 1.044-1.036 1.044H1.027c-.795 0-1.025-.224-1.026-1.003-.001-2.391-.003-4.783 0-7.175.002-1.477.891-2.378 2.364-2.38 3.548-.005 7.094-.002 10.642-.002h.651zm34.875 9.08V37.392c0-.841-.221-1.06-1.074-1.06H36.87c-.157 0-.316.015-.486.024V48.51h12.15zm-47.065-.018H13.62V40.93c-.084-.014-.132-.03-.18-.03-3.725-.001-7.451-.004-11.177 0-.514.002-.782.274-.792.786-.014.635-.004 1.27-.004 1.903v4.903z" fill="#29355D"/><path d="M17.962 16.9c.156-.886.28-1.992.56-3.057.266-1.016.108-1.762-.77-2.415-.726-.54-1.346-1.226-2.01-1.85-.719-.675-.985-1.482-.647-2.43.34-.955 1.088-1.378 2.05-1.48.447-.048.792.22.841.625.051.421-.187.73-.643.828-.064.013-.145-.003-.19.03-.236.17-.588.316-.656.544-.068.224.077.612.26.797.802.808 1.633 1.59 2.489 2.34.808.71 1.045 1.553.83 2.588-.235 1.13-.417 2.27-.621 3.406-.062.339-.037.654.271.876.306.22.603.156.911-.019 1.048-.59 2.106-1.164 3.152-1.757.806-.457 1.602-.463 2.409-.01 1.035.581 2.074 1.153 3.107 1.736.315.178.625.293.956.06.35-.244.34-.594.272-.965-.213-1.15-.413-2.303-.632-3.454-.182-.96.062-1.753.807-2.413.84-.744 1.645-1.529 2.466-2.295.258-.24.488-.492.373-.885-.12-.41-.45-.52-.822-.574-1.159-.17-2.315-.35-3.475-.51-.93-.128-1.586-.595-1.987-1.453-.48-1.031-.996-2.046-1.491-3.07-.163-.335-.353-.635-.781-.63-.429.005-.609.313-.77.647-.52 1.068-1.043 2.132-1.565 3.197-.365.745-.968 1.163-1.782 1.28-.446.065-.803-.173-.877-.574-.08-.42.134-.763.595-.85.433-.08.674-.323.854-.705.493-1.043 1.01-2.074 1.515-3.112.415-.85 1.077-1.345 2.034-1.348.957-.003 1.623.49 2.038 1.339.507 1.036 1.028 2.066 1.514 3.113.207.446.508.661.998.725 1.225.162 2.445.359 3.664.558.865.142 1.447.653 1.72 1.475.284.847.086 1.62-.548 2.242a78.68 78.68 0 01-2.638 2.467c-.374.334-.481.694-.39 1.17.22 1.15.412 2.305.628 3.454.18.948-.046 1.758-.836 2.337-.788.578-1.627.572-2.475.096-1.02-.574-2.054-1.125-3.065-1.713-.432-.251-.803-.239-1.23.008-1.07.617-2.14 1.238-3.242 1.792-1.49.754-3.179-.307-3.171-2.162zm3.248 16.4v1.564c.674 0 1.335-.002 1.996.001.777.004 1.011.241 1.011 1.027v8.036h3.086c0-.545-.006-1.078.002-1.611.008-.568.292-.908.734-.902.442.005.723.346.73.916.009.732.01 1.464 0 2.196-.01.667-.252.902-.929.905-1.383.006-2.765.006-4.15 0-.698-.003-.938-.244-.939-.938v-8.163c-.71 0-1.388.002-2.065-.001-.735-.003-.964-.229-.965-.956-.003-.895-.006-1.79.001-2.684.005-.57.268-.835.832-.856.309-.01.619.003.928-.004.76-.018 1.24-.494 1.267-1.256.01-.325-.006-.65.006-.976.018-.507.282-.787.793-.792 1.464-.013 2.929-.012 4.394-.001.565.004.823.296.828.915.009 1.123.003 2.245.003 3.368 0 1.757.002 3.514-.002 5.271 0 .194-.002.396-.053.58-.1.358-.384.586-.727.488-.25-.07-.483-.32-.643-.547-.095-.134-.042-.378-.042-.574-.002-2.473-.001-4.946-.001-7.42v-.596h-3.066c.003.834-.19 1.604-.801 2.214-.602.602-1.338.84-2.228.796zM11.392 9.859c-.505 0-1.009.01-1.514-.003-.458-.012-.766-.306-.779-.708-.013-.416.312-.743.79-.75.977-.013 1.953-.013 2.929 0 .465.006.76.299.768.71.01.436-.29.735-.78.748-.47.013-.942.003-1.414.003zm27.237 0c-.472 0-.945.008-1.416-.002-.497-.01-.8-.294-.8-.728-.001-.431.302-.727.797-.733.96-.01 1.92-.01 2.88 0 .486.006.81.313.812.73 0 .417-.322.718-.809.729-.488.013-.976.004-1.465.004zm-23.508 5.046c-.101.119-.241.4-.467.52-.832.438-1.687.833-2.543 1.223-.443.203-.865.05-1.034-.333-.173-.392-.02-.777.43-.997a87.852 87.852 0 012.509-1.184c.55-.247 1.086.065 1.105.771zm23.861.979c-.013.629-.455 1.004-.904.815a41.004 41.004 0 01-2.86-1.344c-.334-.171-.43-.524-.26-.89.18-.385.526-.541.89-.383a45.41 45.41 0 012.808 1.344c.18.094.266.367.326.458zM11.697 1.377c1.143.582 2.206 1.09 3.23 1.668.281.158.255.548.067.84-.202.316-.528.43-.85.287a62.094 62.094 0 01-2.81-1.34.59.59 0 01-.271-.8c.117-.241.385-.408.634-.655zm23.82 2.931c-.198-.202-.514-.378-.563-.612-.05-.24.082-.676.27-.78a33.1 33.1 0 012.802-1.35c.366-.159.722-.01.89.376.151.348.094.714-.256.894-.923.472-1.868.902-2.807 1.344-.07.034-.159.028-.239.04l-.097.088z" fill="#00A3FF"/></g></g><defs><clipPath id="clip0_301_393"><path fill="#fff" d="M0 0h50v50H0z"/></clipPath><clipPath id="clip1_301_393"><path fill="#fff" d="M0 0h50v49.99H0z"/></clipPath></defs></svg>