<svg width="50" height="50" fill="none" xmlns="http://www.w3.org/2000/svg"><g clip-path="url(#clip0_301_479)"><g clip-path="url(#clip1_301_479)"><path d="M23.541 39.2c-.257-.183-.511-.408-.77-.626-2.681 0-5.362-.001-8.043.004-.207 0-.483-.023-.606.093-.2.19-.433.502-.404.73.03.231.35.436.57.622.066.058.22.018.333.018 3.404 0 6.808.002 10.212 0a13.458 13.458 0 01-1.292-.84zM14.78 17.8c-.194 0-.395.005-.58.055-.358.099-.541.364-.517.73.024.363.231.604.6.664.175.029.357.024.535.024 1.469 0 2.937 0 4.405.002.347-.503.68-1.017 1.08-1.481l.002-.001c-1.843.01-3.685.005-5.526.008zM.757 9.097c.396-.008.679-.289.714-.716.01-.13.004-.26.004-.391V2.572c0-.891.203-1.098 1.08-1.098h23.613c0 2.29-.002 4.501.001 6.713.002 1.47.904 2.37 2.373 2.372 2.05.003 4.1.001 6.15.001h.526v3.45c.365.127.76.206 1.099.344.137.055.271.118.402.185.006-1.452-.006-2.905.012-4.357.005-.46-.133-.795-.46-1.12A1736.165 1736.165 0 0127.68.47C27.339.129 26.987 0 26.514 0 18.527.01 10.539.007 2.552.007c-.163 0-.326-.005-.488.006C.99.08.048.949.025 2.02-.018 4.135.004 6.25.014 8.365c.002.452.327.74.743.732zm26.88-6.334l6.326 6.325c-1.8 0-3.713.009-5.627-.007-.434-.003-.694-.308-.695-.778-.01-1.88-.003-3.764-.003-5.54z" fill="#29355D"/><path d="M48.923 40.491c-1.432-1.444-2.884-2.868-4.306-4.322-.414-.423-.82-.623-1.292-.3l-1.774-1.765.27-.466a12.83 12.83 0 001.717-5.488c.046-.573-.202-.92-.653-.963-.448-.043-.761.28-.808.835-.56 6.554-6.27 11.225-12.795 10.463-6.513-.761-11.038-6.894-9.868-13.374.95-5.258 5.527-9.262 10.734-9.388 5.661-.136 10.402 3.445 11.654 8.802.059.252.096.515.193.753.14.347.436.476.796.412.368-.065.568-.306.577-.678a2.219 2.219 0 00-.068-.53c-.836-3.742-2.916-6.583-6.212-8.53a.87.87 0 01-.245-.198 5.134 5.134 0 00-1.441-.678l-.184-.056v.035c-1.463-.513-2.92-.808-4.43-.808h-2.345c-.744.16-1.47.373-2.197.646-.534.2-1.001.338-1.473.675-.266.19-.545.36-.805.559a1.716 1.716 0 01-.248.152c-.546.413-1.084.82-1.634 1.21a1.605 1.605 0 01-.102.067c-.249.247-.522.474-.766.699-.328.302-.591.67-.843 1.045l.028.002c-1.118 1.502-1.878 3.1-2.304 4.866-.093.73-.213 1.457-.346 2.18v1.697c.112.659.24 1.313.344 1.974a.495.495 0 01.006.064 12.436 12.436 0 002.04 4.54c.074.104.133.22.232.386.082.106.163.21.246.314.223.28.435.589.69.84.145.145.312.271.48.396a.404.404 0 01.073.04c.839.62 1.662 1.265 2.496 1.908.18.077.359.128.529.25.233.166.448.345.701.482.526.282 1.155.382 1.734.505.46.098.93.198 1.404.29.699 0 1.398-.002 2.096-.004a11.696 11.696 0 001.986-.181c.675-.12 1.34-.295 2.026-.465.329-.11.666-.271.956-.414.405-.198.816-.386 1.227-.57.14-.154.333-.276.593-.367.03-.01.062-.009.028-.004l1.775 1.75c-.248.378-.263.759.097 1.118 1.557 1.55 3.097 3.114 4.669 4.648.766.747 1.729 1.028 2.785.88 1.395-.195 2.376-.962 2.824-2.304.459-1.366.156-2.6-.867-3.63zm-8.468-1.852l-1.409-1.433 1.603-1.614 1.425 1.424-1.62 1.623zm7.493 5.762c-.826.837-2.04.8-2.947-.1-1.326-1.316-2.647-2.637-3.964-3.95l2.913-2.913c.136.185.268.414.448.597 1.142 1.156 2.3 2.296 3.442 3.452.877.884.913 2.097.108 2.914z" fill="#00A3FF"/><path d="M36.127 39.896c-.267.132-.57.273-.873.381v7.102c0 .962-.18 1.145-1.128 1.145H2.647c-.991 0-1.172-.179-1.172-1.154V11.791c0-.178.013-.359-.008-.536-.049-.414-.301-.643-.707-.676-.378-.031-.701.278-.746.688-.014.129-.006.26-.006.39V47.53c0 1.588.882 2.462 2.486 2.462h31.772c1.574 0 2.456-.873 2.457-2.436.003-2.646.035-5.291-.02-7.936-.193.09-.385.182-.576.277zM14.586 14.248c-.065 0-.13 0-.195.004-.42.028-.66.26-.71.667-.048.386.232.718.645.782.16.024.324.014.487.014h7.976c.217-.15.456-.256.67-.42.244-.186.504-.343.754-.518a4.79 4.79 0 01.984-.529H14.586z" fill="#29355D"/><path d="M14.532 24.52c-.527.003-.854.293-.857.73-.003.436.325.728.85.731.77.006 1.538.004 2.307.003.09-.487.171-.977.242-1.467-.856-.001-1.7-.002-2.542.003zm-.112 3.59c-.431.007-.724.297-.743.683-.018.387.254.703.672.765.128.018.26.012.39.012.766 0 1.533.007 2.3 0-.087-.489-.177-.977-.259-1.467-.786 0-1.573-.005-2.36.007zm.113 6.913c-.54.002-.855.286-.856.726 0 .437.319.717.851.745.13.006.261.002.391.002 1.796 0 3.593 0 5.39.002-.128-.16-.251-.325-.377-.483-.257-.322-.51-.665-.774-.995-1.543-.001-3.084-.003-4.625.003z" fill="#29355D"/><path d="M40.246 27.164c-.03 4.017-2.593 7.648-6.359 8.974-3.869 1.363-8.057.184-10.646-2.996-.43-.528-.452-.977-.064-1.275.37-.282.773-.159 1.2.34 2.13 2.494 4.83 3.506 8.027 2.81 3.078-.668 5.12-2.623 6.023-5.64 1.33-4.442-1.467-9.118-5.978-10.116-4.563-1.01-9.03 2.011-9.77 6.613a8.058 8.058 0 00.213 3.478c.056.199.149.465.067.608-.137.238-.373.503-.62.576-.365.107-.65-.139-.77-.51-.354-1.093-.526-2.218-.444-3.364.33-4.638 3.48-8.13 8.047-8.948 5.194-.93 10.414 2.989 10.966 8.237.043.404.072.81.108 1.213z" fill="#00A3FF"/><path d="M29.759 25.918c.75-.71 1.493-1.39 2.212-2.094 1.014-.997 2.408-1.067 3.347-.145.94.923.896 2.315-.11 3.35a1036.88 1036.88 0 01-3.54 3.63c-1.116 1.136-2.417 1.142-3.557.027-.582-.568-1.168-1.132-1.745-1.703-.992-.981-1.048-2.373-.138-3.308.894-.917 2.273-.911 3.278.014.105.098.213.192.253.229zm4.869-.671c-.207-.242-.355-.527-.59-.667-.341-.202-.687-.068-.964.218-.86.885-1.717 1.772-2.584 2.65-.423.428-.804.44-1.227.052-.264-.241-.51-.5-.772-.742-.41-.378-.878-.394-1.209-.054-.334.345-.31.808.089 1.205.61.607 1.226 1.207 1.848 1.801.452.432.885.436 1.318-.002a417.895 417.895 0 003.668-3.768c.16-.165.247-.4.423-.693z" fill="#00A3FF"/><path d="M11.52 16.715c0 .536.012 1.073-.001 1.608-.024.968-.694 1.66-1.662 1.68-1.055.021-2.111.02-3.167 0-.953-.019-1.631-.668-1.662-1.625a49.181 49.181 0 01.002-3.265c.033-.955.714-1.589 1.677-1.606 1.04-.02 2.08-.02 3.12 0 1 .017 1.671.702 1.693 1.697.01.505.002 1.008 0 1.511zm-5.031.033c0 .455.01.911-.004 1.366-.009.308.1.438.424.433a105.9 105.9 0 012.733-.002c.28.003.418-.083.416-.39a112.09 112.09 0 010-2.781c.004-.293-.107-.41-.399-.407-.926.009-1.853.01-2.78-.001-.305-.004-.4.135-.392.415.01.457.003.912.002 1.367zm5.033 20.795c0 .504.007 1.007-.001 1.511-.016 1.008-.665 1.704-1.662 1.73a65.852 65.852 0 01-3.167 0c-.98-.023-1.642-.683-1.668-1.671a60.09 60.09 0 01.001-3.167c.029-1.004.719-1.649 1.73-1.659 1.006-.01 2.013-.01 3.02 0 1.053.01 1.731.694 1.746 1.747.007.502 0 1.005 0 1.509zm-1.468-.009c0-.455-.014-.91.005-1.365.012-.325-.125-.427-.434-.422-.91.011-1.822.011-2.732 0-.294-.004-.41.108-.406.4.007.927.008 1.854 0 2.781-.003.296.12.402.409.4.91-.01 1.821-.01 2.732 0 .308.003.444-.103.43-.427-.02-.455-.004-.91-.004-1.367zM8.265 23.806c.553 0 1.105-.017 1.657.004.899.032 1.57.682 1.592 1.581.027 1.105.028 2.21 0 3.314-.024.892-.712 1.554-1.605 1.57a97.92 97.92 0 01-3.215.003c-.94-.011-1.624-.627-1.659-1.564a42.879 42.879 0 01.002-3.36c.037-.918.707-1.52 1.622-1.548.535-.015 1.071-.003 1.607-.003v.003zm-1.762 1.472c0 1.143-.006 2.242.015 3.339 0 .067.207.185.32.187.957.015 1.915.02 2.873-.007.117-.003.324-.213.327-.33a58.59 58.59 0 00.003-2.874c-.002-.107-.169-.3-.262-.301-1.069-.022-2.138-.014-3.276-.014z" fill="#29355D"/></g></g><defs><clipPath id="clip0_301_479"><path fill="#fff" d="M0 0h50v50H0z"/></clipPath><clipPath id="clip1_301_479"><path fill="#fff" d="M0 0h50v49.99H0z"/></clipPath></defs></svg>