<svg width="50" height="50" fill="none" xmlns="http://www.w3.org/2000/svg"><g clip-path="url(#clip0_301_426)"><path d="M44.215 42.535c2.386-.228 3.444-1.846 3.417-3.99-.074-6.12-.024-12.242-.03-18.363 0-.368-.001-.748-.083-1.105-.36-1.58-1.658-2.574-3.361-2.576-5.06-.005-10.119-.002-15.179-.002.003.474.022.946.032 1.42 4.999-.002 9.997-.003 14.996 0 1.46 0 2.178.714 2.178 2.168.002 6.273.002 12.545 0 18.818 0 1.446-.726 2.161-2.185 2.164h-.303c-.681.01-.898.222-.9.919-.005 1.618-.002 3.237-.002 4.856v.683c-.212-.194-.342-.303-.462-.424-1.873-1.87-3.751-3.737-5.613-5.62-.296-.299-.607-.422-1.026-.421-3.473.012-6.947.007-10.42.006-1.492 0-2.209-.71-2.21-2.191-.002-3.964 0-7.928 0-11.89-.474-.022-.955-.048-1.42-.013.002 3.955.044 7.911-.018 11.864-.036 2.253 1.621 3.701 3.656 3.666 3.32-.06 6.643-.012 9.965-.023.33 0 .562.096.793.33 1.565 1.584 3.143 3.153 4.717 4.727.716.716 1.43 1.431 2.147 2.146.242.242.554.443.848.219.22-.168.327-.496.455-.765.046-.096.008-.233.008-.351v-6.252z" fill="#00A3FF"/><path d="M21.369 25.997c.588-.055 1.184-.029 1.778-.012.438 0 .83.002 1.222 0 2.238-.007 3.597-1.358 3.602-3.584l.007-4.3c0-.026.01-.05.024-.104-.01-.512-.032-1.024-.034-1.536 0-.024.001-.046.004-.068v-.579c0-4.148.008-8.297-.004-12.444C27.963 1.484 26.59.018 24.775.012c-6.526-.018-13.05-.014-19.577 0C4.138.014 3.29.505 2.65 1.347c-.516.678-.651 1.458-.65 2.287.005 6.239.003 12.479.004 18.717 0 .203.007.405.023.606a3.282 3.282 0 002.482 2.92c.277.066.564.091.894.143v6.267c0 .101.002.202 0 .303-.01.365.089.667.453.825.377.163.644-.026.895-.277 2.265-2.266 4.534-4.527 6.791-6.8.244-.245.482-.362.835-.359 2.242.016 4.485.008 6.728.01.084-.003.17.002.264.008zm-7.286-1.443c-.555-.004-.944.17-1.327.56-1.796 1.829-3.618 3.63-5.426 5.447-.13.13-.217.301-.325.454-.061-.037-.122-.075-.184-.111V29.15c0-1.247.004-2.495-.002-3.742-.003-.596-.235-.82-.821-.843-.354-.014-.712-.001-1.057-.06-.824-.144-1.404-.793-1.495-1.624-.011-.1-.02-.201-.02-.302-.001-6.39-.004-12.779.002-19.17 0-1.014.545-1.721 1.446-1.935.195-.045.401-.051.601-.051 6.34-.003 12.678-.003 19.018-.001 1.317 0 2.057.747 2.057 2.078.002 6.322.002 12.644 0 18.966 0 1.344-.751 2.097-2.1 2.099-3.455.003-6.911.011-10.367-.012z" fill="#29355D"/><path d="M12.306 14.252c1.33 0 2.66-.002 3.99 0 .559.002.878.247.896.669.02.445-.319.745-.885.746-2.66.006-5.321.006-7.981 0-.57 0-.91-.295-.898-.736.012-.423.336-.677.888-.678 1.33-.003 2.66-.001 3.99-.001zm.01-6.45c-1.33 0-2.66.002-3.991-.001-.567-.002-.91-.287-.895-.727.014-.422.344-.689.888-.69 2.66-.003 5.321-.003 7.982 0 .572.001.908.287.893.733-.014.429-.334.682-.886.683-1.33.004-2.66.002-3.991.002zm5.357 3.934c-1.346 0-2.694.007-4.04-.003-.674-.006-1.076-.576-.726-1.053.136-.184.438-.345.666-.347 2.727-.023 5.455-.018 8.183-.012.497.001.802.3.79.724-.014.418-.32.685-.831.689-1.347.007-2.695.002-4.042.002zm-.019 7.856c-1.262 0-2.524.002-3.787-.002-.184-.001-.374-.002-.55-.046-.36-.088-.588-.366-.503-.7.062-.244.327-.45.537-.634.081-.07.26-.037.394-.037h7.877c.118 0 .237.004.352.025.369.068.563.316.57.67.004.353-.183.613-.548.686-.18.035-.367.037-.552.038-1.265.002-2.528 0-3.79 0zm3.372-11.794c-.253 0-.508.019-.757-.004-.413-.039-.647-.287-.652-.698-.005-.391.224-.663.602-.69.57-.042 1.147-.042 1.717 0 .38.027.61.303.603.69-.006.407-.239.664-.654.698-.284.023-.572.004-.859.004zm-12.14 3.931c-.27 0-.542.027-.808-.007-.404-.05-.653-.306-.64-.715.013-.402.257-.664.673-.68.522-.021 1.045-.02 1.567 0 .41.013.656.244.684.663.028.396-.245.701-.668.739-.268.023-.539.004-.808.004v-.005zm-.001 7.874c-.285-.013-.573-.004-.856-.043-.39-.055-.6-.322-.59-.7.008-.377.23-.647.625-.666.554-.027 1.11-.03 1.665-.003.387.018.617.26.632.654.016.42-.211.673-.619.722-.282.033-.57.006-.857.006v.03zm12.202-5.346c.27 0 .54-.013.809.004.397.025.617.271.643.65.024.359-.157.67-.517.702-.616.053-1.242.058-1.858.009-.382-.03-.577-.344-.544-.73.034-.383.263-.613.659-.633.268-.013.538-.002.808-.002z" fill="#29355D"/><path d="M26.798 32.03c-.464-.729-.53-1.453-.103-2.21.055-.1.022-.286-.033-.402-.698-1.463.164-2.869 1.783-2.885 1.012-.01 2.023-.002 3.034-.002h.584c0-.796-.005-1.533.001-2.27.013-1.45.599-2.607 1.803-3.428.22-.15.468-.274.718-.363 1.013-.359 2.008.054 1.94 1.372-.06 1.166-.032 2.34.451 3.428.235.528.588 1.009.929 1.48.065.09.338.07.502.038.306-.06.602-.237.905-.245 1.18-.03 2.36-.017 3.54-.01.956.005 1.449.475 1.453 1.423.01 2.715.01 5.429 0 8.143-.002.98-.49 1.437-1.482 1.44-1.096.003-2.192-.017-3.287.008-.612.014-1.136-.11-1.525-.697-1.037.757-2.223.7-3.405.693-1.804-.011-3.608-.001-5.412-.003-1.509-.002-2.338-1.014-2.048-2.478a.503.503 0 00-.09-.38c-.78-.887-.854-1.538-.258-2.652zm8.205-10.157c-.821.263-1.459 1.116-1.495 2.116-.037.976-.007 1.954-.007 2.931 0 .81-.21 1.028-1.005 1.03h-3.842c-.374.001-.812-.037-.806.507.006.507.419.48.781.48.421-.001.843-.007 1.264.002.5.011.803.29.795.716-.007.4-.305.682-.772.696-.489.014-.977.008-1.466.003-.347-.003-.614.1-.608.5.006.372.272.473.589.478.471.007.944-.004 1.415.006.54.01.824.243.842.669.02.438-.291.728-.829.744-.471.014-.944.005-1.415.004-.344 0-.617.102-.601.505.014.373.28.458.6.454.49-.004.978-.013 1.467.005.495.019.796.321.779.743-.016.409-.3.654-.79.67-.319.01-.653-.045-.954.033-.18.047-.444.315-.425.447.028.186.265.364.448.494.09.064.262.015.397.015 1.988 0 3.976-.02 5.964.01a3.935 3.935 0 002.2-.605c.28-.173.384-.355.382-.682-.015-1.887-.022-3.774.002-5.661.006-.507-.05-.875-.592-1.101-.305-.128-.558-.43-.784-.696-.632-.75-1.014-1.64-1.187-2.59-.172-.951-.232-1.925-.347-2.923zm4.355 14.226h3.49v-8.121h-3.49v8.121z" fill="#00A3FF"/></g><defs><clipPath id="clip0_301_426"><path fill="#fff" transform="translate(2)" d="M0 0h45.632v50H0z"/></clipPath></defs></svg>