<svg width="190" height="48" fill="none" xmlns="http://www.w3.org/2000/svg"><path fill-rule="evenodd" clip-rule="evenodd" d="M83.646 13.651c-2.881-1.081-6.576-2.592-9.902-2.784.085-.08 1.195-.309 1.388-.35.217-.045 1.28-.232 1.38-.388C60.1-1.307 41.61 19.613 55.58 29.16c.905.403 1.698.55 2.6.762.395.092 2.245.316 2.473.233-.325-.11-.61-.125-.95-.237a5.956 5.956 0 01-1.975-1.087c-.17-.142-.639-.671-.775-.693-.07-.233-.184-.29-.383-.577a7.427 7.427 0 01-.344-.545 7.508 7.508 0 01-.551-1.167c-.628-1.674-.913-3.182-.633-5.14a11 11 0 01.658-2.553c4.41-11.05 25.69-4.78 27.945-4.504z" fill="#00A3FF"/><path fill-rule="evenodd" clip-rule="evenodd" d="M54.486 32.89c2.537.623 5.805 1.54 8.616 1.269-.062.087-.969.451-1.126.515-.177.072-1.047.391-1.114.55C80.366 41.14 91.18 20.06 76.303 14.56c-.804-.255-1.485-.285-2.266-.362-.341-.033-1.918.007-2.1.115.285.06.526.036.824.094a4.744 4.744 0 011.777.752c.16.11.61.542.727.545.086.208.187.247.386.488a7.132 7.132 0 01.941 1.484c.713 1.485 1.12 2.858 1.102 4.732a11.647 11.647 0 01-.268 2.482c-2.47 10.951-21.018 7.955-22.94 8z" fill="#00A3FF"/><path d="M55.6 42.266c0-.089-.033-.151-.1-.187-.062-.04-.182-.073-.36-.1-.044-.009-.066-.046-.066-.113 0-.027.004-.062.013-.107.142.01.289.018.44.027a12.959 12.959 0 00.767 0l.42-.027c.009.045.013.08.013.107 0 .071-.024.109-.073.113-.165.027-.278.06-.34.1-.058.036-.087.098-.087.187v2.887c0 .312-.013.578-.04.8a1.813 1.813 0 01-.173.6 1.851 1.851 0 01-.38.514 4.7 4.7 0 01-.654.527c-.058-.044-.086-.091-.086-.14a.11.11 0 01.033-.08c.244-.236.418-.476.52-.72.102-.245.153-.523.153-.834v-3.554zm4.032 2.274h-1.487l-.427 1.074a.362.362 0 00-.033.133c0 .093.136.16.407.2.03.004.05.018.06.04.013.018.02.04.02.067a.573.573 0 01-.014.106l-.38-.026a11.934 11.934 0 00-.393-.007c-.09 0-.18.002-.273.007a3.631 3.631 0 00-.294.026.438.438 0 01-.013-.106.21.21 0 01.013-.08c.013-.023.038-.036.073-.04.138-.023.24-.05.307-.08a.316.316 0 00.154-.16l1.607-3.868c.03-.076.073-.114.126-.114.018 0 .045.005.08.014l1.614 3.988c.027.062.087.11.18.146.093.036.185.06.273.074a.12.12 0 01.06.04c.018.013.027.04.027.08a.574.574 0 01-.013.106l-.42-.026a12.16 12.16 0 00-.814 0c-.16.008-.304.017-.433.026a.581.581 0 01-.014-.106c0-.04.007-.067.02-.08.018-.018.034-.027.047-.027.116-.022.209-.047.28-.073.071-.032.107-.076.107-.134a.257.257 0 00-.027-.1l-.42-1.1zm-.107-.273l-.62-1.634-.647 1.633h1.267zm3.265 1.393c0 .09.03.151.093.187.062.031.178.064.347.1.044.009.067.044.067.107a.574.574 0 01-.014.106l-.413-.026a12.354 12.354 0 00-.794 0c-.142.008-.278.017-.407.026a.573.573 0 01-.013-.106c0-.063.022-.098.067-.107.169-.031.284-.065.346-.1.063-.036.094-.098.094-.187v-3.394c0-.089-.031-.151-.093-.187-.063-.04-.178-.073-.347-.1-.027-.004-.045-.017-.054-.04a.196.196 0 01-.013-.073.66.66 0 01.013-.107c.134.01.272.018.414.027a13.295 13.295 0 00.773 0l.427-.027a.58.58 0 01.014.107c0 .067-.023.104-.067.113-.17.027-.285.06-.347.1-.062.036-.093.098-.093.187v3.394zm2.293-.013c0 .075.033.129.1.16a.658.658 0 00.273.047h.727c.129 0 .24-.016.333-.047a.728.728 0 00.24-.147.901.901 0 00.174-.226c.053-.094.1-.198.14-.314.013-.035.04-.053.08-.053a.12.12 0 01.066.02c.027.009.054.02.08.033-.03.133-.062.276-.093.427a8.354 8.354 0 00-.073.5c-.005.049-.018.08-.04.093a.153.153 0 01-.08.02 2.44 2.44 0 01-.287-.02 3.729 3.729 0 00-.293-.013h-1.667c-.103 0-.232.002-.387.007-.156.008-.305.017-.447.026a.574.574 0 01-.013-.106c0-.063.022-.098.066-.107.183-.031.307-.065.374-.1.067-.04.1-.1.1-.18v-3.401c0-.089-.031-.151-.094-.187-.062-.04-.182-.073-.36-.1a.085.085 0 01-.053-.033.195.195 0 01-.013-.073c0-.031.004-.07.013-.114l.447.027a12.808 12.808 0 00.853 0c.17-.009.32-.018.454-.027.009.045.013.08.013.107 0 .075-.024.115-.073.12a1.432 1.432 0 00-.427.1c-.089.04-.133.116-.133.227v3.334zm3.462-1.44l-1.114-2.001a.405.405 0 00-.167-.147.872.872 0 00-.273-.08.08.08 0 01-.053-.04.216.216 0 01-.014-.08v-.026c0-.014.003-.025.007-.034 0-.013.002-.026.007-.04.097.01.222.018.373.027.151.004.298.007.44.007h.187a3.49 3.49 0 01.22-.007 33.547 33.547 0 00.393-.027.16.16 0 00.007.047v.033a.06.06 0 01.007.027.14.14 0 01-.02.073.061.061 0 01-.047.04.963.963 0 00-.273.067c-.05.022-.074.056-.074.1 0 .035.016.078.047.127l.827 1.493.78-1.387a.43.43 0 00.067-.186c0-.058-.031-.103-.094-.134a.984.984 0 00-.28-.08c-.049-.004-.073-.042-.073-.113a.25.25 0 01.007-.06c0-.013.002-.029.006-.047.098.01.212.018.34.027a8.103 8.103 0 00.687 0l.34-.027c0 .018.002.034.007.047v.033a.06.06 0 01.007.027c0 .062-.025.1-.074.113a1.09 1.09 0 00-.333.087.387.387 0 00-.16.167l-1.08 1.914v1.493c0 .098.035.167.106.207.076.035.2.067.374.093.049.01.073.045.073.107 0 .009-.002.02-.007.033v.034a.18.18 0 00-.006.04l-.314-.014a38.291 38.291 0 00-.286-.013 5.723 5.723 0 00-.52 0l-.28.013-.307.014a.094.094 0 01-.007-.04.073.073 0 01-.007-.034v-.033c0-.062.022-.098.067-.107.173-.035.298-.069.373-.1.076-.035.114-.102.114-.2v-1.434zm6.633 1.953c.19.04.367.116.527.227.164.116.317.231.46.347.142.115.275.218.4.306.129.094.255.14.38.14a.43.43 0 00.173-.033.466.466 0 01.147-.026c.022 0 .033.01.033.033a.252.252 0 01-.1.14.665.665 0 01-.18.107.868.868 0 01-.207.066.882.882 0 01-.166.02 1.19 1.19 0 01-.447-.086 1.932 1.932 0 01-.4-.214 3.712 3.712 0 01-.38-.286l-.347-.3a5.04 5.04 0 00-.327-.254.99.99 0 00-.306-.153 2.185 2.185 0 01-.78-.227 1.973 1.973 0 01-.594-.467 2.118 2.118 0 01-.38-.68 2.665 2.665 0 01-.133-.86c0-.307.055-.596.166-.867.111-.271.263-.51.454-.714.19-.204.413-.366.666-.486.254-.12.52-.18.8-.18.387 0 .725.062 1.014.186.29.12.527.285.714.494.19.204.333.442.427.713.093.271.14.556.14.854 0 .289-.043.558-.127.807a2.04 2.04 0 01-1.627 1.367v.026zm-.334-.273a1.326 1.326 0 001.02-.453 1.5 1.5 0 00.287-.507c.072-.196.107-.41.107-.64 0-.32-.033-.616-.1-.887a2.128 2.128 0 00-.307-.714 1.435 1.435 0 00-.513-.48 1.44 1.44 0 00-.72-.173 1.345 1.345 0 00-1.267.886 1.786 1.786 0 00-.114.66c0 .33.036.636.107.92.071.281.173.526.307.734.138.205.306.365.507.48.2.116.428.174.686.174zm2.701-1.927a2.325 2.325 0 01.62-1.58 2.18 2.18 0 01.667-.487c.254-.12.52-.18.8-.18.387 0 .725.062 1.014.186.289.12.527.285.713.494.192.204.334.442.427.713.094.271.14.556.14.854 0 .351-.058.667-.173.947a2.076 2.076 0 01-.48.707c-.2.19-.438.337-.714.44a2.457 2.457 0 01-.873.153 2.28 2.28 0 01-.867-.16 1.984 1.984 0 01-.68-.453 2.192 2.192 0 01-.44-.714 2.628 2.628 0 01-.154-.92zm2.294 1.927a1.326 1.326 0 001.02-.453 1.49 1.49 0 00.287-.507 1.86 1.86 0 00.107-.64c0-.32-.034-.616-.1-.887a2.126 2.126 0 00-.307-.714 1.435 1.435 0 00-.514-.48 1.439 1.439 0 00-.72-.173 1.345 1.345 0 00-1.267.886 1.786 1.786 0 00-.113.66c0 .33.036.636.107.92.07.281.173.526.306.734.138.205.307.365.507.48.2.116.43.174.687.174zm3.483-.033h1.528c.146 0 .266-.016.36-.047a.682.682 0 00.393-.38c.044-.098.089-.211.133-.34.01-.036.027-.06.054-.074a.13.13 0 01.066-.026c.05 0 .094.013.134.04-.04.195-.071.382-.094.56a9.688 9.688 0 00-.046.44c-.005.049-.02.084-.047.107a.151.151 0 01-.1.033 3.1 3.1 0 01-.313-.02 3.561 3.561 0 00-.394-.02h-2.58c0-.044.008-.082.026-.113l2.534-3.948H83.49a2.17 2.17 0 00-.38.027.533.533 0 00-.233.1.485.485 0 00-.147.206 1.896 1.896 0 00-.093.354.13.13 0 01-.054.08.152.152 0 01-.08.02.233.233 0 01-.073-.014.767.767 0 01-.06-.026 19.274 19.274 0 00.107-.92c.004-.09.05-.134.14-.134.084 0 .18.007.286.02.107.01.231.014.374.014h2.567a.273.273 0 01-.027.133l-2.494 3.928zm6.68.24c-.2.035-.404.062-.613.08a7.012 7.012 0 01-.734.033 2.66 2.66 0 01-1-.173 1.97 1.97 0 01-.7-.474 1.953 1.953 0 01-.42-.707 2.895 2.895 0 01-.133-.893c0-.267.044-.534.133-.8.093-.267.231-.507.413-.72a2.193 2.193 0 011.68-.727c.134 0 .26.004.38.013.125.004.248.015.368.033.12.018.24.04.36.067.124.022.257.051.4.087.009.155.024.317.046.486.027.165.06.327.1.487-.008.01-.026.016-.053.02a.424.424 0 01-.067.007c-.07 0-.115-.03-.133-.087-.08-.298-.216-.511-.407-.64-.19-.129-.464-.193-.82-.193-.284 0-.533.046-.747.14a1.475 1.475 0 00-.533.386 1.62 1.62 0 00-.314.58 2.372 2.372 0 00-.106.727c0 .307.044.59.133.847.093.258.218.48.374.667a1.627 1.627 0 001.266.587 2.824 2.824 0 00.72-.093v-1.02c0-.12-.035-.203-.106-.247-.071-.05-.191-.085-.36-.107-.036-.005-.06-.02-.074-.047a.177.177 0 01-.02-.08c0-.035.005-.07.014-.106l.427.026a14.632 14.632 0 00.8 0l.393-.026c.01.044.014.08.014.106 0 .045-.01.076-.027.093a.1.1 0 01-.053.027c-.143.018-.243.05-.3.094-.054.04-.08.104-.08.193v1.187a.15.15 0 01-.034.1c-.022.027-.084.049-.187.067zm6.208-1.554h-1.487l-.427 1.074a.364.364 0 00-.033.133c0 .093.136.16.407.2.03.004.05.018.06.04.013.018.02.04.02.067a.573.573 0 01-.013.106l-.38-.026a11.934 11.934 0 00-.394-.007c-.089 0-.18.002-.273.007a3.631 3.631 0 00-.294.026.438.438 0 01-.013-.106.21.21 0 01.013-.08c.013-.023.038-.036.073-.04a1.24 1.24 0 00.307-.08.316.316 0 00.154-.16l1.607-3.868c.03-.076.073-.114.126-.114.018 0 .045.005.08.014l1.614 3.988c.027.062.087.11.18.146.093.036.185.06.274.074a.12.12 0 01.06.04c.017.013.026.04.026.08a.574.574 0 01-.013.106l-.42-.026a12.16 12.16 0 00-.814 0c-.16.008-.304.017-.433.026a.574.574 0 01-.013-.106c0-.04.006-.067.02-.08.017-.018.033-.027.046-.027.116-.022.21-.047.28-.073.071-.032.107-.076.107-.134a.258.258 0 00-.027-.1l-.42-1.1zm-.106-.273l-.62-1.634-.647 1.633h1.266zm3.297 1.38c0 .075.034.129.1.16a.658.658 0 00.273.047h.727c.129 0 .24-.016.334-.047a.734.734 0 00.24-.147.895.895 0 00.173-.226c.054-.094.1-.198.14-.314.014-.035.04-.053.08-.053.023 0 .045.006.067.02.027.009.053.02.08.033-.031.133-.062.276-.093.427a8.655 8.655 0 00-.074.5c-.004.049-.017.08-.04.093a.153.153 0 01-.08.02c-.075 0-.171-.006-.286-.02a3.747 3.747 0 00-.294-.013h-1.667c-.102 0-.231.002-.387.007-.155.008-.304.017-.447.026a.573.573 0 01-.013-.106c0-.063.022-.098.067-.107a1.4 1.4 0 00.373-.1c.067-.04.1-.1.1-.18v-3.401c0-.089-.03-.151-.093-.187-.062-.04-.182-.073-.36-.1a.085.085 0 01-.053-.033.195.195 0 01-.014-.073c0-.031.005-.07.013-.114l.447.027a12.808 12.808 0 00.854 0c.169-.009.32-.018.453-.027a.58.58 0 01.014.107c0 .075-.025.115-.074.12a1.43 1.43 0 00-.427.1c-.088.04-.133.116-.133.227v3.334zm3.462-1.44l-1.113-2.001a.407.407 0 00-.167-.147.876.876 0 00-.274-.08.079.079 0 01-.053-.04.214.214 0 01-.013-.08v-.026c0-.014.002-.025.006-.034a.14.14 0 01.007-.04c.098.01.222.018.374.027.151.004.297.007.44.007h.186a3.52 3.52 0 01.22-.007 27.423 27.423 0 00.394-.027c0 .018.002.034.007.047v.033a.065.065 0 01.006.027.134.134 0 01-.02.073.06.06 0 01-.046.04.965.965 0 00-.274.067c-.049.022-.073.056-.073.1a.25.25 0 00.046.127l.827 1.493.781-1.387a.433.433 0 00.066-.186c0-.058-.031-.103-.093-.134a.984.984 0 00-.28-.08c-.049-.004-.074-.042-.074-.113 0-.022.003-.042.007-.06 0-.013.002-.029.007-.047.098.01.211.018.34.027a8.107 8.107 0 00.687 0l.34-.027c0 .018.002.034.006.047v.033a.053.053 0 01.007.027c0 .062-.024.1-.073.113a1.094 1.094 0 00-.334.087.392.392 0 00-.16.167l-1.08 1.914v1.493c0 .098.036.167.107.207.075.035.2.067.373.093.049.01.073.045.073.107 0 .009-.002.02-.006.033v.034a.158.158 0 00-.007.04l-.313-.014a39.168 39.168 0 00-.287-.013 5.712 5.712 0 00-.52 0l-.28.013-.307.014a.1.1 0 01-.007-.04.081.081 0 01-.006-.034v-.033c0-.062.022-.098.066-.107.174-.035.298-.069.374-.1.075-.035.113-.102.113-.2v-1.434zm5.128-1.367a.568.568 0 01-.1.013c-.058 0-.1-.011-.127-.034a.221.221 0 01-.06-.073c-.116-.253-.253-.438-.413-.553-.16-.116-.378-.174-.654-.174a1.01 1.01 0 00-.307.047.682.682 0 00-.246.127.638.638 0 00-.174.2.588.588 0 00-.06.266c0 .21.087.38.26.514.178.133.438.269.78.407.427.169.741.358.941.567.204.204.306.457.306.76 0 .182-.028.353-.086.513-.054.156-.14.294-.26.413a1.203 1.203 0 01-.454.274c-.186.067-.411.1-.673.1-.276 0-.527-.029-.754-.087a2.166 2.166 0 01-.567-.226 6.403 6.403 0 00-.06-.54 9.471 9.471 0 00-.093-.52.287.287 0 01.113-.02c.054 0 .094.013.12.04.032.022.058.06.08.113.112.32.254.555.427.706.178.152.425.227.74.227.143 0 .267-.02.374-.06a.718.718 0 00.48-.694.674.674 0 00-.24-.546c-.156-.133-.38-.254-.674-.36a6 6 0 01-.52-.22 1.819 1.819 0 01-.4-.274 1.12 1.12 0 01-.26-.353 1.25 1.25 0 01-.087-.487 1.133 1.133 0 01.347-.84 1.3 1.3 0 01.414-.253c.16-.063.34-.094.54-.094.209 0 .409.02.6.06.191.04.407.107.647.2.009.134.02.278.033.434.018.15.04.293.067.427zm2.934-.774v3.56c0 .103.042.176.126.22.085.04.227.072.427.094.049 0 .074.036.074.107a.592.592 0 01-.014.113 64.754 64.754 0 00-.453-.026 16.813 16.813 0 00-.954 0c-.16.008-.311.017-.453.026a.592.592 0 01-.014-.113c0-.062.023-.098.067-.107.2-.026.345-.06.434-.1.088-.04.133-.11.133-.213v-3.561h-.687a1.25 1.25 0 00-.34.04.674.674 0 00-.407.327c-.049.084-.1.182-.153.293a.082.082 0 01-.047.047.117.117 0 01-.053.013.207.207 0 01-.127-.04 4.43 4.43 0 00.1-.427c.022-.124.042-.226.06-.306.018-.085.036-.15.054-.194.022-.044.055-.066.1-.066.031 0 .075.002.133.006l.18.014.2.013c.067.004.129.007.187.007h2.227c.053 0 .113-.003.18-.007l.2-.013.18-.014a2.14 2.14 0 01.14-.006c.045 0 .076.024.093.073a.804.804 0 01.061.193c.017.085.035.19.053.314.022.124.058.262.107.413l-.067.027a.162.162 0 01-.127 0 .082.082 0 01-.047-.047 2.803 2.803 0 00-.146-.293.725.725 0 00-.174-.207.61.61 0 00-.233-.12c-.089-.027-.2-.04-.333-.04h-.687zm4.17 2.474h-1.487l-.427 1.074a.366.366 0 00-.033.133c0 .093.135.16.407.2.031.004.051.018.06.04a.11.11 0 01.02.067.575.575 0 01-.014.106l-.38-.026a11.887 11.887 0 00-.393-.007c-.089 0-.18.002-.274.007a3.63 3.63 0 00-.293.026.433.433 0 01-.013-.106.21.21 0 01.013-.08c.013-.023.038-.036.073-.04.138-.023.24-.05.307-.08a.316.316 0 00.153-.16l1.608-3.868c.031-.076.073-.114.126-.114.018 0 .045.005.08.014l1.614 3.988c.027.062.087.11.18.146.093.036.184.06.273.074a.117.117 0 01.06.04c.018.013.027.04.027.08a.56.56 0 01-.013.106l-.42-.026a12.188 12.188 0 00-.814 0c-.16.008-.304.017-.433.026a.575.575 0 01-.014-.106c0-.04.007-.067.02-.08.018-.018.034-.027.047-.027.116-.022.209-.047.28-.073.071-.032.107-.076.107-.134a.256.256 0 00-.027-.1l-.42-1.1zm-.107-.273l-.62-1.634-.647 1.633h1.267zm4.791-.54c.392 0 .672-.07.841-.207.173-.138.26-.356.26-.654 0-.271-.087-.471-.26-.6-.169-.133-.449-.2-.841-.2h-.1v1.66h.1zm-.1 1.887c0 .048.016.088.047.12a.335.335 0 00.113.073c.049.018.1.031.154.04a2.427 2.427 0 00.613-.033.937.937 0 00.354-.14.666.666 0 00.226-.267c.054-.116.08-.26.08-.434 0-.32-.111-.562-.333-.727-.218-.164-.518-.246-.9-.246h-.354v1.614zm1.081-1.8c.142.017.284.05.426.1.143.044.272.108.387.192a.966.966 0 01.28.32.888.888 0 01.107.447c0 .196-.038.372-.113.527a1.044 1.044 0 01-.314.394 1.434 1.434 0 01-.487.246 2.18 2.18 0 01-.633.087h-1.054c-.075 0-.162.002-.26.007a181.215 181.215 0 01-.567.027.102.102 0 01-.006-.04.067.067 0 01-.007-.034v-.033c0-.063.025-.098.073-.107a1.85 1.85 0 00.36-.1c.067-.036.101-.098.101-.187v-3.394a.188.188 0 00-.027-.107.146.146 0 00-.074-.073.453.453 0 00-.14-.053 2.244 2.244 0 00-.22-.054c-.048-.009-.073-.05-.073-.126a.16.16 0 01.007-.054.14.14 0 01.006-.04c.134.01.276.018.427.027.156.004.287.007.394.007h.82c.249 0 .46.029.633.086.178.054.323.13.434.227a.854.854 0 01.24.34c.053.125.08.256.08.394 0 .102-.02.202-.06.3a1.03 1.03 0 01-.167.273 1.148 1.148 0 01-.573.38v.02zm1.738.146c0-.307.055-.596.166-.867.112-.271.263-.51.454-.714.191-.204.413-.366.667-.486.253-.12.52-.18.8-.18.387 0 .725.062 1.013.186.289.12.527.285.714.494.191.204.333.442.427.713.093.271.14.556.14.854 0 .351-.058.667-.174.947a2.06 2.06 0 01-.48.707c-.2.19-.438.337-.713.44a2.46 2.46 0 01-.874.153 2.28 2.28 0 01-.867-.16 1.985 1.985 0 01-.68-.453 2.194 2.194 0 01-.44-.714 2.635 2.635 0 01-.153-.92zm2.294 1.927a1.336 1.336 0 001.02-.453c.124-.143.22-.312.287-.507.071-.196.106-.41.106-.64 0-.32-.033-.616-.1-.887a2.13 2.13 0 00-.306-.714 1.441 1.441 0 00-.514-.48 1.436 1.436 0 00-.72-.173 1.347 1.347 0 00-.967.406 1.445 1.445 0 00-.3.48 1.778 1.778 0 00-.113.66c0 .33.035.636.106.92a2.5 2.5 0 00.307.734c.138.205.307.365.507.48.2.116.429.174.687.174zm3.874-.24c0 .075.033.129.1.16a.659.659 0 00.273.047h.727c.129 0 .24-.016.334-.047a.734.734 0 00.24-.147.919.919 0 00.173-.226c.054-.094.1-.198.14-.314.014-.035.04-.053.08-.053a.13.13 0 01.067.02c.027.009.053.02.08.033-.031.133-.062.276-.093.427a7.863 7.863 0 00-.074.5c-.004.049-.018.08-.04.093a.153.153 0 01-.08.02c-.075 0-.171-.006-.287-.02a3.703 3.703 0 00-.293-.013h-1.667c-.102 0-.231.002-.387.007a93.38 93.38 0 00-.447.026.655.655 0 01-.013-.106c0-.063.022-.098.067-.107a1.39 1.39 0 00.373-.1c.067-.04.1-.1.1-.18v-3.401c0-.089-.031-.151-.093-.187-.062-.04-.182-.073-.36-.1a.09.09 0 01-.054-.033.215.215 0 01-.013-.073c0-.031.005-.07.013-.114l.447.027a12.815 12.815 0 00.854 0c.169-.009.32-.018.453-.027a.58.58 0 01.014.107c0 .075-.025.115-.074.12a1.44 1.44 0 00-.427.1c-.088.04-.133.116-.133.227v3.334zM15.921 28.939c-.447.264-1.067.396-1.86.396-.671 0-1.21-.183-1.617-.549-.386-.386-.58-1.006-.58-1.86-.71.854-1.545 1.474-2.5 1.86-.936.366-1.952.55-3.05.55a8.395 8.395 0 01-2.044-.244 4.724 4.724 0 01-1.647-.763 3.832 3.832 0 01-1.128-1.342c-.265-.57-.397-1.25-.397-2.044 0-.894.153-1.626.458-2.196a3.913 3.913 0 011.19-1.372 5.542 5.542 0 011.707-.824 21.57 21.57 0 011.983-.457 20.25 20.25 0 012.013-.305c.65-.082 1.22-.183 1.708-.305.488-.143.874-.336 1.159-.58.284-.264.427-.64.427-1.128 0-.57-.112-1.027-.336-1.373a2.059 2.059 0 00-.823-.793 3.206 3.206 0 00-1.129-.366 8.214 8.214 0 00-1.22-.091c-1.098 0-2.013.213-2.745.64-.732.407-1.128 1.19-1.19 2.349H1.709c.04-.976.244-1.8.61-2.47a4.491 4.491 0 011.464-1.617 5.982 5.982 0 012.074-.915 11.235 11.235 0 012.532-.275c.711 0 1.413.05 2.104.152a5.36 5.36 0 011.922.641 3.54 3.54 0 011.373 1.312c.345.569.518 1.311.518 2.226v8.113c0 .61.03 1.058.091 1.342.082.285.326.427.732.427.224 0 .489-.05.793-.152v2.013zm-4.209-8.083c-.325.244-.752.427-1.28.55-.53.1-1.089.192-1.678.274-.57.06-1.15.142-1.739.244a6.03 6.03 0 00-1.586.427 2.948 2.948 0 00-1.159.884c-.285.366-.427.875-.427 1.525 0 .427.081.793.244 1.098.183.285.407.519.671.702.285.183.61.315.976.396.366.082.753.122 1.16.122.853 0 1.585-.111 2.195-.335.61-.244 1.108-.539 1.495-.885.386-.366.67-.752.854-1.159.183-.427.274-.823.274-1.19v-2.653zM34.38 29h-2.44v-2.501h-.061c-.55.976-1.25 1.698-2.105 2.166-.854.447-1.86.67-3.02.67-1.036 0-1.9-.132-2.592-.396-.691-.285-1.25-.681-1.677-1.19a4.577 4.577 0 01-.915-1.8 10.544 10.544 0 01-.244-2.348v-10.37h2.592v10.675c0 .976.285 1.75.854 2.318.57.57 1.352.854 2.349.854.793 0 1.474-.122 2.043-.366a3.837 3.837 0 001.464-1.037 4.3 4.3 0 00.854-1.555c.204-.61.305-1.271.305-1.983v-8.906h2.593V29zm8.91-15.769h3.14v2.288h-3.14v9.79c0 .305.02.55.06.732a.83.83 0 00.305.427c.142.102.336.173.58.214.264.02.6.03 1.006.03h1.19V29h-1.983c-.67 0-1.25-.04-1.738-.122-.468-.102-.854-.274-1.16-.518-.284-.244-.498-.59-.64-1.038-.142-.447-.213-1.037-.213-1.769V15.52h-2.685v-2.29h2.684V8.503h2.593v4.728zm17.967 8.193c0 .955.122 1.81.366 2.562.265.732.62 1.352 1.068 1.86a4.7 4.7 0 001.555 1.129 4.79 4.79 0 001.922.396 4.57 4.57 0 001.891-.396 4.618 4.618 0 001.586-1.129c.448-.508.793-1.128 1.037-1.86.265-.753.397-1.607.397-2.563 0-.955-.132-1.8-.397-2.531-.244-.752-.59-1.383-1.037-1.891a4.445 4.445 0 00-1.586-1.16 4.57 4.57 0 00-1.89-.396 4.77 4.77 0 00-1.922.397A4.52 4.52 0 0062.69 17c-.447.508-.803 1.139-1.068 1.89-.244.733-.366 1.577-.366 2.533zm-2.745 0c0-1.16.163-2.237.488-3.234.326-1.016.814-1.89 1.464-2.623a6.809 6.809 0 012.41-1.769c.956-.427 2.054-.64 3.294-.64 1.26 0 2.359.213 3.294.64a6.809 6.809 0 012.41 1.77c.65.731 1.138 1.606 1.464 2.622.325.997.488 2.074.488 3.233 0 1.16-.163 2.237-.488 3.234a7.538 7.538 0 01-1.464 2.623 6.99 6.99 0 01-2.41 1.738c-.935.407-2.033.61-3.294.61-1.24 0-2.338-.203-3.294-.61a6.99 6.99 0 01-2.41-1.738A7.538 7.538 0 0159 24.657c-.325-.997-.488-2.075-.488-3.233zm28.69 2.86c.02.564.151 1.047.393 1.45.241.382.553.694.936.935.402.222.845.383 1.328.483a7.808 7.808 0 001.54.151c.403 0 .825-.03 1.268-.09a4.43 4.43 0 001.208-.332 2.34 2.34 0 00.936-.695c.241-.322.362-.724.362-1.207 0-.665-.252-1.168-.755-1.51-.503-.342-1.137-.614-1.902-.815a23.123 23.123 0 00-2.446-.574 14.824 14.824 0 01-2.475-.725 5.277 5.277 0 01-1.872-1.328c-.504-.564-.755-1.349-.755-2.355 0-.785.17-1.46.513-2.023a4.375 4.375 0 011.359-1.359 5.955 5.955 0 011.872-.785 8.345 8.345 0 012.083-.272c.886 0 1.7.081 2.446.242a5.166 5.166 0 011.962.785 3.874 3.874 0 011.39 1.51c.341.624.543 1.409.603 2.355h-2.567c-.04-.503-.17-.916-.392-1.238a2.516 2.516 0 00-.845-.815 3.558 3.558 0 00-1.148-.423 5.112 5.112 0 00-1.238-.151c-.382 0-.775.03-1.177.09a3.6 3.6 0 00-1.057.333 1.95 1.95 0 00-.785.604c-.201.241-.302.563-.302.966 0 .442.151.815.453 1.117a4.37 4.37 0 001.208.724c.483.182 1.026.343 1.63.484.604.12 1.208.251 1.812.392.644.141 1.268.312 1.872.513a5.622 5.622 0 011.63.816c.483.322.866.734 1.147 1.238.302.503.453 1.127.453 1.871 0 .947-.2 1.732-.603 2.355a4.424 4.424 0 01-1.54 1.51c-.624.383-1.339.644-2.144.785-.785.161-1.57.242-2.355.242-.866 0-1.69-.09-2.476-.272a6.256 6.256 0 01-2.083-.876 4.716 4.716 0 01-1.45-1.63c-.362-.684-.563-1.51-.603-2.476h2.566zM100.73 7.648h2.566v8.242h.06a3.27 3.27 0 01.846-1.207 4.405 4.405 0 011.207-.815 6.217 6.217 0 011.419-.484 7.4 7.4 0 011.45-.15c1.026 0 1.882.14 2.566.422.685.282 1.238.675 1.661 1.178.422.503.714 1.107.875 1.811.182.685.272 1.45.272 2.295v10.266h-2.566V18.638c0-.966-.282-1.731-.846-2.295-.563-.563-1.338-.845-2.325-.845-.785 0-1.469.12-2.053.362a3.855 3.855 0 00-1.419 1.027 4.595 4.595 0 00-.875 1.57 6.502 6.502 0 00-.272 1.932v8.817h-2.566V7.648zm29.699 21.558h-2.415V26.73h-.061c-.543.966-1.238 1.68-2.083 2.143-.845.443-1.842.665-2.989.665-1.027 0-1.882-.131-2.566-.393-.685-.282-1.238-.674-1.661-1.177a4.526 4.526 0 01-.906-1.782 10.442 10.442 0 01-.241-2.325V13.596h2.566v10.567c0 .966.282 1.731.845 2.295.564.564 1.339.845 2.325.845.785 0 1.46-.12 2.023-.362a3.79 3.79 0 001.449-1.026c.383-.443.665-.957.846-1.54a6.178 6.178 0 00.302-1.963v-8.816h2.566v15.61zm3.855-15.61h2.415v2.294h.061c1.167-1.77 2.848-2.657 5.042-2.657.966 0 1.842.202 2.627.604.785.403 1.338 1.087 1.66 2.053a5.49 5.49 0 012.053-1.962 5.926 5.926 0 012.838-.695c.785 0 1.49.091 2.114.272.644.161 1.188.423 1.63.785a3.42 3.42 0 011.057 1.42c.262.563.393 1.247.393 2.052v11.444h-2.567V18.97c0-.483-.04-.936-.121-1.358a2.646 2.646 0 00-.452-1.087 2.205 2.205 0 00-.936-.755c-.383-.181-.886-.272-1.51-.272-1.268 0-2.265.362-2.989 1.087-.725.725-1.087 1.69-1.087 2.898v9.723h-2.566V18.97a6.03 6.03 0 00-.151-1.389 2.661 2.661 0 00-.453-1.087 2.03 2.03 0 00-.906-.724c-.362-.181-.835-.272-1.419-.272-.745 0-1.389.15-1.933.453a4.611 4.611 0 00-1.298 1.087 4.778 4.778 0 00-.724 1.328c-.141.443-.212.816-.212 1.117v9.723h-2.566v-15.61zm25.891-5.948h2.567v12.771l7.125-6.823h3.442l-6.189 5.676 6.642 9.934H170.5l-5.344-8.152-2.415 2.234v5.918h-2.567V7.648zm29.334 21.497c-.442.262-1.056.393-1.841.393-.665 0-1.198-.181-1.601-.544-.382-.382-.573-.996-.573-1.842-.705.846-1.53 1.46-2.476 1.842-.926.363-1.932.544-3.019.544-.705 0-1.379-.08-2.023-.242a4.679 4.679 0 01-1.631-.755 3.795 3.795 0 01-1.117-1.328c-.261-.564-.392-1.238-.392-2.023 0-.886.151-1.61.453-2.174a3.874 3.874 0 011.177-1.359 5.486 5.486 0 011.691-.815 21.379 21.379 0 011.962-.453c.705-.14 1.369-.241 1.993-.302a14.44 14.44 0 001.691-.302c.483-.14.866-.332 1.147-.573.282-.262.423-.634.423-1.117 0-.564-.111-1.017-.332-1.36a2.036 2.036 0 00-.815-.784 3.175 3.175 0 00-1.117-.362 8.143 8.143 0 00-1.208-.091c-1.087 0-1.993.211-2.718.634-.724.403-1.117 1.178-1.177 2.325h-2.566c.04-.966.241-1.782.603-2.446a4.453 4.453 0 011.45-1.6 5.922 5.922 0 012.053-.906c.785-.18 1.62-.272 2.506-.272.704 0 1.399.05 2.083.151a5.3 5.3 0 011.902.634 3.502 3.502 0 011.359 1.299c.342.563.513 1.298.513 2.204v8.031c0 .604.03 1.047.091 1.329.08.282.322.422.724.422.222 0 .484-.05.785-.15v1.992zm-4.166-8c-.322.24-.745.422-1.268.543-.524.1-1.077.19-1.661.271-.563.06-1.137.141-1.721.242a5.968 5.968 0 00-1.57.422 2.917 2.917 0 00-1.147.876c-.282.362-.423.866-.423 1.51 0 .422.081.785.242 1.087.181.282.402.513.664.694.282.181.604.312.966.393.362.08.745.12 1.147.12.846 0 1.57-.11 2.174-.332.604-.241 1.097-.533 1.48-.875.382-.363.664-.745.845-1.148.181-.422.272-.815.272-1.177v-2.627z" fill="#fff"/></svg>