<svg width="16" height="16" fill="none" xmlns="http://www.w3.org/2000/svg"><g clip-path="url(#clip0_14_583)" fill="#00A3FF"><path d="M7.886 7.707a3.73 3.73 0 002.725-1.129 3.729 3.729 0 001.129-2.725 3.73 3.73 0 00-1.13-2.724A3.73 3.73 0 007.887 0c-1.06 0-1.976.38-2.726 1.129a3.729 3.729 0 00-1.129 2.724c0 1.06.38 1.976 1.13 2.725a3.73 3.73 0 002.724 1.13zm6.743 4.596a9.526 9.526 0 00-.13-1.01 7.979 7.979 0 00-.248-1.017 5.024 5.024 0 00-.418-.948 3.576 3.576 0 00-.63-.821 2.778 2.778 0 00-.905-.57 3.147 3.147 0 00-1.156-.208c-.163 0-.321.067-.626.265-.188.123-.408.264-.653.421-.21.134-.493.259-.844.372-.342.11-.69.167-1.032.167a3.35 3.35 0 01-1.033-.167 3.73 3.73 0 01-.844-.372 89.424 89.424 0 01-.653-.42c-.305-.2-.463-.266-.626-.266-.416 0-.805.07-1.155.209-.352.14-.657.33-.906.569a3.58 3.58 0 00-.63.82 5.03 5.03 0 00-.417.949c-.1.313-.184.654-.249 1.016a9.489 9.489 0 00-.13 1.012c-.02.306-.032.623-.032.944 0 .836.266 1.512.79 2.01.517.493 1.2.742 2.033.742h7.704c.832 0 1.516-.25 2.033-.742.524-.498.79-1.174.79-2.01 0-.322-.012-.64-.033-.945z"/></g><defs><clipPath id="clip0_14_583"><path fill="#fff" d="M0 0h16v16H0z"/></clipPath></defs></svg>