<svg width="592" height="529" fill="none" xmlns="http://www.w3.org/2000/svg"><g opacity=".1" fill-rule="evenodd" clip-rule="evenodd" fill="#E1E7EC"><path d="M592 122.945c-51.683-19.397-117.979-46.517-177.648-49.947 1.517-1.445 21.449-5.544 24.911-6.273 3.887-.82 22.95-4.17 24.742-6.967C169.555-145.423-162.169 229.9 88.479 401.173c16.241 7.234 30.464 9.862 46.662 13.668 7.077 1.663 40.268 5.674 44.364 4.193-5.829-1.966-10.946-2.254-17.055-4.254-6.449-2.112-12.366-4.611-18.68-8.088-5.882-3.24-11.594-7.112-16.75-11.413-3.064-2.556-11.454-12.046-13.901-12.448-1.272-4.165-3.309-5.208-6.88-10.338-2.12-3.051-4.055-6.102-6.174-9.779-4.02-6.979-7.013-13.286-9.881-20.938-11.262-30.048-16.384-57.092-11.345-92.223 2.289-15.967 5.898-31.008 11.805-45.81C169.763 5.511 551.557 117.98 592 122.945z"/><path d="M68.842 468.099c45.51 11.188 104.139 27.638 154.573 22.782-1.111 1.559-17.375 8.094-20.2 9.248-3.168 1.292-18.785 7.012-19.978 9.877 349.914 106.106 543.939-272.093 277.035-370.773-14.428-4.581-26.649-5.121-40.661-6.496-6.121-.601-34.408.129-37.681 2.07 5.11 1.053 9.434.633 14.78 1.679 5.647 1.107 10.888 2.648 16.573 5.053a85.722 85.722 0 0115.316 8.431c2.854 1.982 10.952 9.74 13.049 9.786 1.53 3.731 3.352 4.435 6.917 8.759 2.119 2.571 4.08 5.171 6.265 8.331 4.15 5.996 7.363 11.503 10.621 18.284 12.789 26.641 20.093 51.292 19.774 84.901-.146 15.271-1.499 29.855-4.809 44.528-44.322 196.485-377.096 142.723-411.574 143.54z"/></g></svg>