<svg width="50" height="48" fill="none" xmlns="http://www.w3.org/2000/svg"><g clip-path="url(#clip0_68_1662)"><path d="M24.953.001c.683-.018 1.024.362 1.286.896 1.619 3.293 3.25 6.58 4.875 9.869.587 1.187 1.183 2.369 1.75 3.566.185.391.412.6.865.663 3.242.449 6.48.924 9.72 1.395 1.78.258 3.557.53 5.337.777.56.078.963.322 1.147.868.18.533-.022.962-.4 1.33l-5.25 5.116c-1.913 1.863-3.822 3.73-5.742 5.586-.239.23-.331.434-.27.785.87 5.015 1.717 10.033 2.581 15.048.098.568.044 1.064-.446 1.422-.486.355-.982.276-1.491.008-4.484-2.365-8.974-4.72-13.455-7.09-.34-.182-.592-.178-.93.002-4.463 2.365-8.935 4.713-13.4 7.072-.522.276-1.036.394-1.543.017-.46-.341-.55-.81-.453-1.367.868-5.034 1.716-10.07 2.591-15.104.062-.355-.035-.551-.271-.78C7.838 26.57 4.23 23.052.618 19.541c-.428-.416-.768-.846-.553-1.491.211-.636.715-.802 1.319-.888 4.982-.713 9.962-1.445 14.943-2.162.37-.054.583-.21.754-.56 2.214-4.518 4.45-9.024 6.673-13.537.263-.528.588-.928 1.2-.903zm-13.038 44.13c.25-.126.42-.207.586-.295 3.868-2.031 7.741-4.056 11.6-6.103.616-.327 1.145-.33 1.762-.002 3.858 2.051 7.73 4.077 11.598 6.11.173.09.351.172.594.292-.78-4.566-1.533-9.041-2.32-13.511-.128-.73.037-1.255.573-1.773 3.123-3.01 6.22-6.047 9.325-9.075.15-.147.293-.301.493-.51-4.561-.665-8.996-1.33-13.438-1.944-.824-.114-1.316-.46-1.678-1.208-1.88-3.88-3.801-7.742-5.709-11.609-.086-.174-.183-.342-.312-.583-.146.282-.242.464-.335.648-1.936 3.916-3.876 7.831-5.8 11.754-.267.54-.636.861-1.239.946-3.26.462-6.518.931-9.778 1.402-1.3.188-2.598.383-4.05.597.27.242.442.384.602.54 3.12 3.04 6.237 6.084 9.363 9.119.41.397.638.825.535 1.41a936.583 936.583 0 00-.95 5.48c-.471 2.742-.938 5.482-1.422 8.316z" fill="#00A3FF"/></g><defs><clipPath id="clip0_68_1662"><path fill="#fff" d="M0 0h50v47.571H0z"/></clipPath></defs></svg>