<svg width="16" height="16" fill="none" xmlns="http://www.w3.org/2000/svg"><g opacity=".6" clip-path="url(#clip0_31_559)"><path d="M15.915 11.68a1.12 1.12 0 00-.054-.104c-.278-.5-.808-1.114-1.591-1.841l-.017-.017-.008-.008-.008-.009h-.009c-.355-.338-.58-.566-.675-.683-.172-.222-.21-.447-.116-.675.066-.172.316-.535.75-1.09.227-.295.408-.531.54-.709.962-1.277 1.378-2.094 1.25-2.45l-.05-.082c-.032-.05-.118-.096-.257-.138a1.312 1.312 0 00-.534-.02l-2.399.016a.311.311 0 00-.166.004l-.109.025-.041.021-.034.025a.37.37 0 00-.091.088.569.569 0 00-.083.145 13.603 13.603 0 01-.892 1.875c-.205.344-.394.643-.566.895a4.302 4.302 0 01-.434.558 3.02 3.02 0 01-.316.288c-.095.072-.167.103-.217.091a6.075 6.075 0 01-.141-.033.554.554 0 01-.188-.204.914.914 0 01-.096-.325 3.582 3.582 0 01-.029-.337 7.047 7.047 0 01.005-.4c.005-.172.008-.289.008-.35 0-.211.004-.44.012-.687l.021-.588c.006-.144.008-.297.008-.458 0-.16-.01-.287-.029-.379a1.297 1.297 0 00-.087-.266.449.449 0 00-.17-.2.963.963 0 00-.28-.113 5.544 5.544 0 00-1.125-.108c-1.032-.011-1.696.055-1.99.2a1.122 1.122 0 00-.317.25c-.1.122-.114.189-.042.2.333.05.57.169.708.358l.05.1c.04.072.078.2.117.383.039.183.064.386.075.608.028.405.028.753 0 1.041-.028.29-.054.514-.08.675a1.35 1.35 0 01-.212.575.143.143 0 01-.041.042.624.624 0 01-.225.041c-.078 0-.172-.039-.283-.116a1.999 1.999 0 01-.346-.321 4.288 4.288 0 01-.404-.57 9.956 9.956 0 01-.467-.867l-.133-.242a20.783 20.783 0 01-.341-.679 13.089 13.089 0 01-.384-.862.55.55 0 00-.2-.267l-.041-.025a.884.884 0 00-.325-.125l-2.283.017c-.233 0-.391.053-.475.158l-.033.05A.27.27 0 000 4.195c0 .06.017.136.05.225a27.49 27.49 0 001.087 2.266 25.46 25.46 0 001.02 1.757c.29.444.584.864.884 1.258.3.394.498.647.595.758.097.111.174.194.23.25l.208.2c.133.133.329.293.587.479.258.186.544.37.858.55.314.18.679.327 1.095.441.417.114.822.16 1.217.138h.958c.194-.017.341-.078.441-.183l.033-.042a.551.551 0 00.063-.154c.02-.07.03-.146.03-.23a2.746 2.746 0 01.053-.645c.042-.191.089-.336.142-.433a1.065 1.065 0 01.32-.366.543.543 0 01.067-.03c.133-.044.29-.001.471.13.18.13.35.291.508.483.159.192.349.407.57.645.223.24.417.417.584.534l.167.1c.11.066.255.127.433.183.177.055.333.07.466.041l2.133-.033c.21 0 .375-.035.491-.104.117-.07.186-.146.209-.229a.646.646 0 00.004-.283 1.06 1.06 0 00-.059-.221z" fill="#00A3FF"/></g><defs><clipPath id="clip0_31_559"><path fill="#fff" d="M0 0h16v16H0z"/></clipPath></defs></svg>