<svg width="600" height="1450" fill="none" xmlns="http://www.w3.org/2000/svg"><g opacity=".5" stroke="#2B2C3B" stroke-width="2"><path opacity=".034" d="M415.999 312.722c-7.045-8.397-17.646-13.575-31.512-15.654-13.875-2.081-30.955-1.049-50.839 2.926-39.768 7.948-90.544 27.62-148.89 57.302-116.679 59.358-263.43 158.643-412.58 283.794-149.15 125.152-272.41 252.434-351.127 357.032-39.363 52.308-67.553 98.898-82.286 136.678-7.367 18.89-11.35 35.53-11.71 49.56-.36 14.01 2.898 25.35 9.944 33.75 7.046 8.4 17.647 13.57 31.513 15.65 13.874 2.09 30.954 1.05 50.839-2.92 39.768-7.95 90.543-27.62 148.89-57.3 116.678-59.36 263.43-158.65 412.58-283.798C129.97 764.59 253.23 637.308 331.947 532.71c39.363-52.306 67.553-98.894 82.287-136.678 7.367-18.892 11.349-35.533 11.709-49.558.36-14.017-2.898-25.356-9.944-33.752z"/><path opacity=".069" d="M374.492 261.795c-7.751-7.751-18.763-11.985-32.757-12.848-14.003-.864-30.928 1.653-50.391 7.345-38.923 11.385-87.792 35.407-143.329 70.062-111.06 69.3-248.601 180.998-386.276 318.673-137.674 137.674-249.372 275.214-318.672 386.273-34.655 55.54-58.677 104.41-70.062 143.33-5.692 19.46-8.209 36.39-7.346 50.39.864 14 5.098 25.01 12.848 32.76 7.751 7.75 18.763 11.98 32.757 12.85 14.003.86 30.929-1.66 50.391-7.35 38.924-11.38 87.792-35.41 143.329-70.06 111.061-69.3 248.601-181 386.276-318.673 137.675-137.675 249.372-275.215 318.673-386.275 34.654-55.538 58.677-104.406 70.061-143.33 5.692-19.462 8.21-36.388 7.346-50.39-.863-13.995-5.098-25.007-12.848-32.757z"/><path opacity=".103" d="M329.194 214.656c-8.397-7.046-19.736-10.304-33.752-9.944-14.025.359-30.667 4.342-49.559 11.709-37.783 14.734-84.372 42.924-136.677 82.287-104.599 78.716-231.88 201.976-357.032 351.126-125.152 149.15-224.437 295.902-283.794 412.576-29.682 58.35-49.354 109.13-57.303 148.89-3.974 19.89-5.007 36.97-2.926 50.84 2.08 13.87 7.258 24.47 15.654 31.52 8.397 7.04 19.736 10.3 33.752 9.94 14.025-.36 30.667-4.34 49.559-11.71 37.783-14.73 84.372-42.92 136.678-82.29 104.598-78.71 231.879-201.97 357.031-351.123 125.152-149.15 224.437-295.901 283.794-412.58 29.682-58.346 49.354-109.122 57.303-148.89 3.974-19.884 5.007-36.965 2.926-50.839-2.08-13.866-7.258-24.467-15.654-31.512z"/><path opacity=".138" d="M280.451 171.622c-8.978-6.286-20.558-8.544-34.49-6.964-13.94 1.581-30.171 6.999-48.349 15.984-36.356 17.971-80.31 50.114-128.986 93.886-97.34 87.533-213.394 221.418-325.07 380.908-111.677 159.49-197.794 314.336-246.756 435.744-24.484 60.71-39.656 113.01-44.108 153.32-2.226 20.15-1.766 37.26 1.516 50.9 3.28 13.63 9.362 23.74 18.341 30.03 8.979 6.28 20.559 8.54 34.49 6.96 13.94-1.58 30.172-7 48.35-15.98 36.355-17.97 80.31-50.12 128.986-93.89 97.339-87.53 213.394-221.42 325.07-380.907C121.12 682.123 207.238 527.277 256.2 405.869c24.484-60.711 39.656-113.008 44.108-153.318 2.227-20.155 1.767-37.26-1.516-50.9-3.28-13.632-9.362-23.742-18.341-30.029z"/><path opacity=".172" d="M228.634 132.981c-9.493-5.481-21.225-6.72-34.967-3.932-13.749 2.79-29.446 9.602-46.772 20.137-34.651 21.071-75.636 56.923-120.312 104.771-89.34 95.684-193.284 239.173-290.635 407.79-97.351 168.616-169.644 330.379-207.839 455.593-19.1 62.61-29.655 116.03-30.578 156.58-.461 20.27 1.488 37.27 5.947 50.57 4.456 13.3 11.396 22.84 20.888 28.32 9.493 5.48 21.225 6.72 34.966 3.93 13.75-2.79 29.447-9.6 46.773-20.14 34.651-21.07 75.636-56.92 120.312-104.77 89.34-95.68 193.284-239.172 290.635-407.788S186.696 493.663 224.89 368.45c19.099-62.614 29.655-116.035 30.577-156.579.462-20.272-1.488-37.272-5.946-50.575-4.456-13.294-11.396-22.835-20.888-28.315z"/><path opacity=".207" d="M174.137 98.98c-9.934-4.632-21.73-4.844-35.176-.87-13.454 3.978-28.497 12.133-44.84 24.138C61.44 146.259 23.735 185.546-16.6 237.106c-80.662 103.106-171.705 255.109-253.99 431.568-82.285 176.46-140.205 343.906-167.341 471.976-13.569 64.04-19.429 118.18-16.814 158.65 1.307 20.23 4.731 37 10.332 49.86 5.597 12.85 13.342 21.75 23.276 26.39 9.934 4.63 21.73 4.84 35.176.87 13.454-3.98 28.497-12.14 44.839-24.14 32.683-24.01 70.388-63.3 110.723-114.86 80.661-103.11 171.704-255.108 253.988-431.568C105.874 629.393 163.793 461.945 190.93 333.88c13.569-64.041 19.429-118.178 16.814-158.648-1.307-20.236-4.731-37.002-10.332-49.864-5.597-12.856-13.342-21.755-23.276-26.388z"/><path opacity=".241" d="M117.374 69.836c-10.3-3.75-22.07-2.933-35.117 2.2C69.2 77.17 54.925 86.603 39.692 99.988 9.226 126.756-24.911 169.18-60.6 224.059c-71.367 109.744-148.815 269.104-215.407 452.063-66.592 182.96-109.698 354.818-125.569 484.758-7.936 64.98-9.056 119.43-2.923 159.51 3.066 20.05 7.937 36.45 14.638 48.78 6.697 12.32 15.188 20.51 25.488 24.26 10.3 3.74 22.069 2.93 35.118-2.2 13.056-5.14 27.331-14.57 42.564-27.96 30.466-26.77 64.604-69.19 100.292-124.07 71.367-109.74 148.816-269.102 215.407-452.061C95.6 604.179 138.706 432.32 154.577 302.377c7.937-64.979 9.056-119.421 2.924-159.51-3.067-20.044-7.938-36.447-14.639-48.773-6.697-12.319-15.188-20.51-25.488-24.258z"/><path opacity=".276" d="M58.778 45.733c-10.588-2.837-22.242-.998-34.793 5.252C11.427 57.238-1.973 67.88-15.98 82.542c-28.017 29.321-58.327 74.559-89.097 132.339-61.531 115.547-124.795 281.05-175.188 469.117-50.392 188.067-78.355 363.032-82.841 493.862-2.243 65.42 1.387 119.76 10.99 159.16 4.802 19.7 11.084 35.61 18.834 47.31 7.745 11.69 16.917 19.11 27.505 21.94 10.587 2.84 22.241 1 34.792-5.25 12.559-6.25 25.958-16.89 39.967-31.56 28.017-29.32 58.327-74.55 89.096-132.34 61.531-115.54 124.796-281.045 175.188-469.112 50.392-188.067 78.355-363.029 82.841-493.861 2.243-65.424-1.387-119.756-10.99-159.157-4.801-19.701-11.084-35.618-18.833-47.313C78.538 55.99 69.365 48.57 58.778 45.733z"/><path opacity=".31" d="M-1.206 26.805C-12 24.9-23.449 27.748-35.408 35.069c-11.966 7.324-24.386 19.094-37.064 34.92-25.355 31.651-51.607 79.359-77.223 139.601-51.227 120.47-99.826 290.857-133.635 482.6-33.81 191.744-46.417 368.48-39.483 499.2 3.467 65.37 11.819 119.18 24.819 157.6 6.5 19.2 14.146 34.51 22.886 45.49 8.734 10.97 18.518 17.56 29.313 19.46 10.794 1.9 22.243-.94 34.202-8.26 11.966-7.33 24.386-19.1 37.064-34.92 25.355-31.66 51.607-79.36 77.223-139.61C-46.079 1110.69 2.52 940.298 36.33 748.555c33.81-191.744 46.417-368.477 39.483-499.202-3.467-65.371-11.819-119.18-24.82-157.594-6.5-19.208-14.145-34.516-22.885-45.49C19.373 35.298 9.59 28.707-1.206 26.804z"/><path opacity=".345" d="M-62.119 13.154c-10.92-.955-22.076 2.88-33.352 11.214-11.282 8.339-22.629 21.147-33.879 38.017-22.5 33.741-44.494 83.555-64.762 145.801-40.532 124.476-74.096 298.45-91.066 492.411-16.969 193.96-14.125 371.123 4.176 500.743 9.152 64.82 22.161 117.7 38.46 154.83 8.15 18.57 17.101 33.15 26.763 43.32 9.657 10.17 19.979 15.88 30.898 16.84 10.919.95 22.077-2.88 33.352-11.21 11.282-8.34 22.629-21.15 33.88-38.02 22.5-33.74 44.493-83.56 64.762-145.8 40.532-124.48 74.096-298.453 91.065-492.413 16.97-193.961 14.126-371.121-4.176-500.744-9.151-64.819-22.161-117.696-38.46-154.83-8.15-18.569-17.1-33.153-26.763-43.324-9.657-10.166-19.979-15.88-30.898-16.835z"/><path opacity=".379" d="M-123.501 4.842c-10.96 0-21.741 4.792-32.247 14.078-10.512 9.29-20.7 23.038-30.437 40.825-19.474 35.574-37.042 87.115-51.809 150.89-29.529 127.535-47.802 303.773-47.802 498.474 0 194.702 18.273 370.941 47.802 498.471 14.767 63.78 32.335 115.32 51.809 150.89 9.737 17.79 19.925 31.54 30.437 40.83 10.506 9.28 21.287 14.08 32.247 14.08 10.961 0 21.742-4.8 32.248-14.08 10.512-9.29 20.7-23.04 30.437-40.83 19.474-35.57 37.042-87.11 51.809-150.89 29.529-127.53 47.802-303.769 47.802-498.471 0-194.701-18.273-370.939-47.802-498.474-14.767-63.775-32.335-115.316-51.809-150.89C-70.553 41.958-80.74 28.21-91.253 18.92c-10.506-9.286-21.287-14.078-32.248-14.078z"/><path opacity=".414" d="M-184.882 1.889c-10.919.955-21.241 6.67-30.897 16.835-9.663 10.171-18.614 24.755-26.764 43.323-16.298 37.135-29.308 90.011-38.46 154.831-18.301 129.623-21.145 306.783-4.175 500.743 16.969 193.961 50.533 367.939 91.065 492.409 20.268 62.25 42.262 112.06 64.762 145.8 11.25 16.87 22.598 29.68 33.88 38.02 11.275 8.33 22.432 12.17 33.351 11.21 10.92-.95 21.241-6.67 30.898-16.83 9.663-10.17 18.614-24.76 26.763-43.32 16.3-37.14 29.309-90.02 38.46-154.84 18.302-129.62 21.146-306.778 4.176-500.739-16.97-193.96-50.533-367.935-91.065-492.41-20.269-62.246-42.262-112.06-64.762-145.8-11.25-16.872-22.598-29.68-33.88-38.018-11.275-8.335-22.432-12.17-33.352-11.214z"/><path opacity=".448" d="M-245.796 4.277c-10.794 1.903-20.578 8.495-29.313 19.464-8.739 10.975-16.385 26.283-22.885 45.49-13 38.415-21.352 92.224-24.82 157.595-6.934 130.725 5.674 307.458 39.483 499.201 33.81 191.744 82.409 362.133 133.636 482.603 25.616 60.24 51.868 107.95 77.223 139.6 12.677 15.82 25.098 27.59 37.064 34.92 11.959 7.32 23.408 10.17 34.202 8.26 10.794-1.9 20.579-8.49 29.313-19.46 8.74-10.98 16.385-26.28 22.886-45.49 13-38.42 21.351-92.22 24.819-157.6 6.934-130.72-5.673-307.454-39.483-499.197-33.81-191.744-82.409-362.131-133.635-482.6-25.617-60.243-51.868-107.95-77.223-139.601-12.678-15.827-25.098-27.597-37.064-34.92-11.959-7.32-23.408-10.168-34.203-8.265z"/><path opacity=".483" d="M-305.778 11.947c-10.588 2.837-19.76 10.256-27.505 21.944-7.75 11.695-14.032 27.611-18.834 47.313-9.603 39.401-13.233 93.733-10.99 159.157 4.486 130.832 32.449 305.794 82.841 493.861 50.393 188.067 113.657 353.568 175.188 469.118 30.77 57.78 61.08 103.02 89.097 132.34 14.008 14.66 27.407 25.3 39.966 31.56 12.551 6.24 24.205 8.08 34.793 5.25 10.587-2.84 19.76-10.26 27.505-21.95 7.75-11.69 14.032-27.61 18.833-47.31 9.603-39.4 13.233-93.73 10.99-159.16-4.486-130.83-32.448-305.791-82.841-493.858-50.392-188.067-113.657-353.57-175.188-469.117-30.77-57.78-61.079-103.018-89.096-132.34-14.009-14.66-27.408-25.303-39.967-31.556-12.551-6.25-24.205-8.09-34.792-5.252z"/><path opacity=".517" d="M-364.374 24.79c-10.3 3.749-18.791 11.94-25.488 24.258-6.7 12.326-11.572 28.73-14.638 48.774-6.132 40.088-5.013 94.53 2.924 159.51 15.871 129.943 58.976 301.802 125.568 484.761 66.592 182.96 144.04 342.317 215.408 452.067 35.688 54.87 69.825 97.3 100.291 124.07 15.233 13.38 29.509 22.82 42.565 27.95 13.048 5.13 24.818 5.95 35.118 2.2 10.299-3.75 18.791-11.94 25.487-24.26 6.701-12.32 11.573-28.73 14.639-48.77 6.132-40.09 5.013-94.53-2.924-159.51C138.705 985.895 95.6 814.036 29.008 631.077c-66.592-182.96-144.04-342.319-215.408-452.063-35.688-54.879-69.825-97.303-100.291-124.07-15.233-13.385-29.509-22.82-42.565-27.954-13.048-5.132-24.818-5.949-35.118-2.2z"/><path opacity=".552" d="M-421.136 42.672c-9.934 4.633-17.679 13.532-23.277 26.388-5.601 12.862-9.024 29.628-10.332 49.864-2.615 40.47 3.245 94.607 16.815 158.647 27.136 128.066 85.056 295.514 167.34 471.973 82.285 176.46 173.327 328.466 253.988 431.566 40.335 51.56 78.04 90.85 110.723 114.86 16.342 12.01 31.386 20.16 44.839 24.14 13.446 3.97 25.242 3.76 35.176-.87 9.934-4.63 17.679-13.53 23.277-26.39 5.601-12.86 9.024-29.63 10.332-49.86 2.615-40.47-3.245-94.61-16.815-158.65-27.136-128.066-85.056-295.514-167.34-471.974-82.285-176.459-173.327-328.462-253.988-431.568-40.336-51.56-78.041-90.847-110.723-114.858-16.342-12.005-31.386-20.16-44.84-24.137-13.445-3.975-25.241-3.763-35.175.87z"/><path opacity=".586" d="M-475.634 65.41c-9.492 5.48-16.432 15.022-20.888 28.316-4.458 13.302-6.408 30.302-5.946 50.575.922 40.544 11.478 93.964 30.577 156.578 38.195 125.213 110.488 286.976 207.839 455.593 97.351 168.616 201.295 312.108 290.635 407.788 44.676 47.85 85.661 83.7 120.312 104.77 17.326 10.54 33.023 17.35 46.773 20.14 13.741 2.79 25.473 1.55 34.966-3.93 9.492-5.48 16.432-15.02 20.888-28.32 4.459-13.3 6.408-30.3 5.947-50.57-.923-40.55-11.478-93.97-30.578-156.58-38.195-125.215-110.488-286.977-207.839-455.594-97.35-168.616-201.295-312.106-290.635-407.79-44.676-47.848-85.661-83.699-120.312-104.77-17.326-10.536-33.023-17.348-46.773-20.138-13.741-2.788-25.473-1.548-34.966 3.932z"/><path opacity=".621" d="M-527.451 92.792c-8.978 6.287-15.06 16.396-18.341 30.028-3.282 13.64-3.742 30.746-1.516 50.901 4.453 40.309 19.624 92.606 44.108 153.318 48.963 121.407 135.08 276.254 246.756 435.744 111.676 159.49 227.73 293.377 325.07 380.907 48.676 43.77 92.63 75.92 128.986 93.89 18.178 8.98 34.409 14.4 48.349 15.98 13.932 1.58 25.512-.68 34.491-6.96 8.978-6.29 15.06-16.4 18.341-30.03 3.282-13.64 3.742-30.75 1.516-50.9-4.453-40.31-19.624-92.61-44.108-153.32-48.963-121.408-135.08-276.255-246.756-435.745-111.676-159.49-227.73-293.374-325.07-380.907-48.676-43.772-92.63-75.916-128.986-93.886-18.178-8.986-34.409-14.404-48.349-15.984-13.932-1.58-25.512.677-34.491 6.964z"/><path opacity=".655" d="M-576.194 124.561c-8.397 7.046-13.575 17.647-15.654 31.513-2.081 13.874-1.049 30.954 2.926 50.839 7.948 39.768 27.62 90.544 57.302 148.89 59.358 116.678 158.643 263.43 283.794 412.58 125.152 149.15 252.434 272.407 357.032 351.127 52.306 39.36 98.894 67.55 136.678 82.29 18.892 7.36 35.533 11.35 49.558 11.71 14.017.36 25.356-2.9 33.752-9.95 8.397-7.04 13.575-17.65 15.654-31.51 2.081-13.88 1.049-30.96-2.926-50.84-7.948-39.77-27.62-90.54-57.302-148.89C225.262 855.642 125.977 708.89.826 559.74c-125.152-149.15-252.434-272.41-357.032-351.126-52.306-39.364-98.894-67.554-136.678-82.287-18.892-7.367-35.533-11.35-49.558-11.71-14.017-.359-25.356 2.899-33.752 9.944z"/><path opacity=".69" d="M-621.492 160.439c-7.751 7.75-11.985 18.762-12.848 32.757-.864 14.003 1.653 30.928 7.346 50.39 11.384 38.924 35.407 87.792 70.061 143.33 69.301 111.06 180.998 248.6 318.673 386.275 137.675 137.675 275.215 249.369 386.276 318.669 55.537 34.66 104.405 58.68 143.329 70.07 19.462 5.69 36.388 8.21 50.391 7.34 13.994-.86 25.006-5.1 32.757-12.85 7.75-7.75 11.984-18.76 12.847-32.75.864-14.01-1.653-30.93-7.345-50.39-11.385-38.93-35.407-87.796-70.062-143.334-69.3-111.06-180.998-248.6-318.673-386.275-137.674-137.675-275.214-249.373-386.275-318.673-55.538-34.655-104.406-58.677-143.329-70.061-19.463-5.693-36.388-8.21-50.391-7.346-13.994.863-25.006 5.097-32.757 12.848z"/><path opacity=".724" d="M-663.001 200.106c-7.046 8.396-10.304 19.736-9.944 33.752.36 14.025 4.343 30.666 11.709 49.559 14.734 37.783 42.924 84.372 82.287 136.677 78.717 104.599 201.977 231.88 351.127 357.032 149.15 125.152 295.901 224.434 412.579 283.794 58.347 29.68 109.123 49.35 148.891 57.3 19.884 3.98 36.964 5.01 50.839 2.93 13.866-2.08 24.467-7.26 31.512-15.66 7.046-8.39 10.304-19.73 9.944-33.75-.36-14.02-4.342-30.66-11.709-49.56-14.734-37.779-42.924-84.368-82.287-136.674C253.23 780.908 129.971 653.626-19.18 528.475c-149.149-125.152-295.9-224.437-412.579-283.794-58.347-29.683-109.123-49.354-148.891-57.303-19.884-3.974-36.964-5.007-50.839-2.926-13.865 2.08-24.467 7.257-31.512 15.654z"/><path opacity=".759" d="M-700.402 243.218c-6.287 8.978-8.544 20.558-6.964 34.49 1.58 13.94 6.998 30.171 15.984 48.349 17.97 36.356 50.114 80.31 93.886 128.986 87.533 97.34 221.417 213.394 380.907 325.07C-57.099 891.79 97.748 977.907 219.155 1026.87c60.712 24.48 113.009 39.65 153.318 44.11 20.156 2.22 37.261 1.76 50.901-1.52 13.632-3.28 23.741-9.36 30.028-18.34 6.287-8.98 8.545-20.56 6.965-34.49-1.581-13.94-6.999-30.172-15.985-48.35-17.97-36.355-50.113-80.31-93.886-128.986-87.533-97.339-221.417-213.394-380.907-325.07-159.49-111.676-314.337-197.793-435.744-246.755-60.712-24.485-113.009-39.656-153.318-44.108-20.155-2.227-37.261-1.767-50.901 1.516-13.632 3.28-23.741 9.362-30.028 18.341z"/><path opacity=".793" d="M-733.414 289.405c-5.48 9.492-6.72 21.225-3.932 34.966 2.79 13.749 9.602 29.446 20.138 46.772 21.07 34.651 56.922 75.636 104.77 120.312 95.684 89.34 239.173 193.284 407.79 290.635 168.616 97.351 330.379 169.645 455.592 207.839 62.614 19.101 116.035 29.651 156.579 30.581 20.272.46 37.272-1.49 50.575-5.95 13.294-4.46 22.835-11.4 28.315-20.888 5.48-9.493 6.72-21.225 3.932-34.966-2.79-13.749-9.602-29.447-20.137-46.773-21.071-34.651-56.923-75.636-104.771-120.312-95.684-89.34-239.173-193.284-407.79-290.635-168.616-97.351-330.379-169.644-455.592-207.839-62.614-19.099-116.035-29.655-156.579-30.577-20.272-.461-37.272 1.488-50.574 5.946-13.295 4.456-22.835 11.396-28.316 20.889z"/><path opacity=".828" d="M-761.784 338.271c-4.632 9.933-4.844 21.729-.869 35.175 3.977 13.454 12.131 28.498 24.137 44.839 24.01 32.683 63.298 70.388 114.858 110.724 103.106 80.66 255.109 171.703 431.568 253.987 176.46 82.285 343.908 140.205 471.973 167.341 64.041 13.57 118.178 19.429 158.648 16.814 20.236-1.307 37.001-4.73 49.864-10.331 12.855-5.598 21.755-13.343 26.387-23.277 4.633-9.934 4.845-21.73.87-35.176-3.978-13.453-12.132-28.497-24.138-44.839-24.01-32.683-63.298-70.388-114.857-110.723-103.106-80.661-255.109-171.703-431.569-253.988-176.459-82.284-343.907-140.204-471.973-167.34-64.04-13.57-118.177-19.43-158.648-16.815-20.235 1.308-37.001 4.731-49.864 10.332-12.855 5.598-21.755 13.343-26.387 23.277z"/><path opacity=".862" d="M-785.295 389.403c-3.749 10.3-2.932 22.069 2.2 35.117 5.135 13.056 14.569 27.332 27.953 42.565 26.768 30.466 69.192 64.603 124.071 100.291 109.744 71.368 269.103 148.816 452.063 215.408C3.952 849.376 175.81 892.481 305.753 908.353c64.98 7.936 119.422 9.055 159.51 2.923 20.045-3.066 36.448-7.937 48.774-14.638 12.318-6.697 20.509-15.188 24.258-25.488 3.749-10.3 2.932-22.07-2.2-35.118-5.135-13.056-14.569-27.331-27.953-42.565-26.768-30.465-69.192-64.603-124.071-100.291C274.327 621.808 114.968 544.36-67.992 477.768-250.95 411.177-422.81 368.071-552.753 352.2c-64.98-7.937-119.422-9.056-159.51-2.924-20.045 3.066-36.448 7.938-48.774 14.639-12.318 6.697-20.509 15.188-24.258 25.488z"/><path opacity=".897" d="M-803.77 442.368c-2.837 10.587-.998 22.241 5.252 34.792 6.253 12.559 16.896 25.958 31.557 39.967 29.321 28.017 74.559 58.327 132.339 89.096 115.547 61.531 281.05 124.796 469.117 175.188 188.067 50.393 363.029 78.356 493.861 82.841 65.424 2.243 119.756-1.387 159.157-10.99 19.701-4.801 35.618-11.084 47.313-18.833 11.688-7.745 19.107-16.918 21.944-27.505 2.837-10.588.998-22.241-5.252-34.793-6.253-12.558-16.896-25.958-31.557-39.966-29.321-28.017-74.559-58.327-132.339-89.097-115.547-61.531-281.05-124.795-469.117-175.188-188.067-50.392-363.029-78.355-493.861-82.841-65.424-2.243-119.756 1.387-159.157 10.99-19.701 4.802-35.618 11.084-47.313 18.834-11.688 7.745-19.107 16.918-21.944 27.505z"/><path opacity=".931" d="M-817.068 496.72c-1.903 10.794.945 22.243 8.265 34.202 7.324 11.966 19.094 24.386 34.92 37.064 31.651 25.355 79.359 51.607 139.601 77.223 120.469 51.227 290.856 99.826 482.6 133.635 191.744 33.81 368.477 46.417 499.202 39.483 65.37-3.467 119.18-11.819 157.594-24.819 19.207-6.501 34.516-14.147 45.491-22.886 10.968-8.734 17.56-18.518 19.463-29.313 1.904-10.794-.944-22.243-8.264-34.202-7.324-11.966-19.094-24.387-34.92-37.064-31.651-25.355-79.359-51.607-139.601-77.223-120.47-51.227-290.857-99.826-482.6-133.635-191.744-33.81-368.477-46.418-499.202-39.483-65.371 3.467-119.18 11.819-157.594 24.819-19.208 6.5-34.516 14.146-45.491 22.886-10.968 8.734-17.56 18.518-19.464 29.313z"/><path opacity=".966" d="M-825.087 552.004c-.955 10.92 2.88 22.077 11.214 33.352 8.339 11.282 21.147 22.63 38.017 33.88 33.741 22.499 83.555 44.493 145.801 64.762 124.476 40.532 298.45 74.096 492.411 91.065 193.96 16.97 371.12 14.126 500.743-4.175 64.819-9.152 117.696-22.162 154.831-38.461 18.568-8.149 33.152-17.1 43.323-26.763 10.166-9.657 15.88-19.978 16.835-30.898.955-10.919-2.88-22.076-11.214-33.351-8.339-11.282-21.146-22.63-38.017-33.88-33.741-22.5-83.555-44.494-145.801-64.762-124.475-40.532-298.45-74.096-492.41-91.065-193.961-16.97-371.121-14.126-500.744 4.175-64.819 9.152-117.696 22.162-154.831 38.46-18.568 8.15-33.151 17.101-43.323 26.764-10.165 9.656-15.88 19.978-16.835 30.897z"/><path d="M-827.768 607.753c0 10.961 4.793 21.742 14.078 32.248 9.29 10.512 23.038 20.7 40.825 30.437 35.574 19.474 87.115 37.042 150.89 51.809 127.535 29.529 303.773 47.802 498.474 47.802 194.702 0 370.939-18.273 498.474-47.802 63.775-14.767 115.317-32.335 150.89-51.809 17.787-9.737 31.535-19.925 40.826-30.437 9.285-10.506 14.078-21.287 14.078-32.248 0-10.96-4.793-21.741-14.078-32.247-9.291-10.512-23.039-20.7-40.826-30.437-35.573-19.474-87.115-37.042-150.89-51.809-127.535-29.529-303.772-47.802-498.474-47.802-194.701 0-370.939 18.273-498.474 47.802-63.775 14.767-115.316 32.335-150.89 51.809-17.787 9.737-31.535 19.925-40.825 30.437-9.285 10.506-14.078 21.287-14.078 32.247z"/></g></svg>