<svg width="80" height="80" fill="none" xmlns="http://www.w3.org/2000/svg"><g filter="url(#filter0_b_348_117)"><path d="M0 39.895C0 17.862 17.966 0 40 0s40 17.862 40 39.895c0 22.034-17.966 39.896-40 39.896S0 61.929 0 39.895z" fill="url(#paint0_radial_348_117)"/><path d="M.5 39.895C.5 18.14 18.24.5 40 .5s39.5 17.64 39.5 39.395c0 21.756-17.74 39.396-39.5 39.396S.5 61.65.5 39.895z" stroke="url(#paint1_radial_348_117)"/><path d="M.5 39.895C.5 18.14 18.24.5 40 .5s39.5 17.64 39.5 39.395c0 21.756-17.74 39.396-39.5 39.396S.5 61.65.5 39.895z" stroke="url(#paint2_radial_348_117)"/><path d="M.5 39.895C.5 18.14 18.24.5 40 .5s39.5 17.64 39.5 39.395c0 21.756-17.74 39.396-39.5 39.396S.5 61.65.5 39.895z" stroke="url(#paint3_radial_348_117)"/></g><g clip-path="url(#clip0_348_117)" fill="#46DF83"><path d="M40 56.32a16.242 16.242 0 01-11.686-4.943c-.045.041-5.402 5.416-5.448 5.449 8.893 9.503 25.296 9.527 34.217.053l-5.448-5.45A16.242 16.242 0 0140 56.322zM23.701 40.007c0-8.508 6.506-15.493 14.809-16.246l-.004-7.73c-18.912.939-29.23 23.67-17.599 38.53l5.535-5.498a16.248 16.248 0 01-2.74-9.056zm17.793-23.976c-.004.09.006 7.646-.004 7.73 12.148.942 18.982 15.322 12.034 25.354l5.523 5.506c11.702-14.856 1.386-37.652-17.553-38.59zm-4.229 21.395v8.616h4.38v-8.616a.867.867 0 00-.866-.867h-2.648a.867.867 0 00-.866.867z"/><path d="M48.72 45.159V32.634a.867.867 0 00-.866-.867h-2.648a.867.867 0 00-.866.867v13.408h3.497a.883.883 0 00.884-.883zm-17.568-4.288a.866.866 0 00-.867.867v3.42c0 .489.396.884.883.884h3.404v-4.304a.867.867 0 00-.866-.867h-2.554z"/></g><defs><radialGradient id="paint0_radial_348_117" cx="0" cy="0" r="1" gradientUnits="userSpaceOnUse" gradientTransform="matrix(80.0001 88.67778 -64.4307 58.12575 6.692 0)"><stop stop-color="#fff" stop-opacity=".36"/><stop offset="1" stop-color="#fff" stop-opacity="0"/></radialGradient><radialGradient id="paint1_radial_348_117" cx="0" cy="0" r="1" gradientUnits="userSpaceOnUse" gradientTransform="matrix(75.448 52.90976 -31.22766 44.52987 -42.597 8.163)"><stop stop-color="#fff"/><stop offset="1" stop-color="#fff" stop-opacity=".06"/></radialGradient><radialGradient id="paint2_radial_348_117" cx="0" cy="0" r="1" gradientUnits="userSpaceOnUse" gradientTransform="rotate(161.385 47.335 35.175) scale(66.8428 45.1784)"><stop stop-color="#8470FF"/><stop offset="1" stop-color="#865CFF" stop-opacity="0"/></radialGradient><radialGradient id="paint3_radial_348_117" cx="0" cy="0" r="1" gradientUnits="userSpaceOnUse" gradientTransform="matrix(30.32378 32.76379 -23.54952 21.79572 40.871 -18.236)"><stop/><stop offset="1" stop-color="#fff" stop-opacity="0"/></radialGradient><clipPath id="clip0_348_117"><path fill="#fff" transform="translate(16 16)" d="M0 0h48v48H0z"/></clipPath><filter id="filter0_b_348_117" x="-5" y="-5" width="90" height="89.791" filterUnits="userSpaceOnUse" color-interpolation-filters="sRGB"><feFlood flood-opacity="0" result="BackgroundImageFix"/><feGaussianBlur in="BackgroundImageFix" stdDeviation="2.5"/><feComposite in2="SourceAlpha" operator="in" result="effect1_backgroundBlur_348_117"/><feBlend in="SourceGraphic" in2="effect1_backgroundBlur_348_117" result="shape"/></filter></defs></svg>