<svg width="600" height="1045" fill="none" xmlns="http://www.w3.org/2000/svg"><g opacity=".5" stroke="#2B2C3B" stroke-width="2"><path opacity=".034" d="M129.929 801.637c4.908 5.849 12.306 9.474 22.031 10.933 9.735 1.46 21.738.738 35.736-2.06 27.994-5.596 63.759-19.449 104.877-40.367 82.222-41.828 185.65-111.801 290.775-200.011 105.125-88.211 191.994-177.916 247.465-251.626 27.74-36.861 47.594-69.677 57.965-96.274 5.186-13.3 7.982-24.995 8.234-34.835.253-9.831-2.033-17.747-6.94-23.595-4.908-5.848-12.306-9.473-22.031-10.932-9.735-1.46-21.738-.738-35.736 2.06-27.994 5.595-63.759 19.449-104.877 40.367-82.222 41.828-185.65 111.801-290.775 200.011-105.125 88.21-191.994 177.916-247.465 251.625-27.74 36.861-47.594 69.677-57.965 96.275-5.186 13.299-7.982 24.995-8.234 34.835-.253 9.831 2.033 17.746 6.94 23.594z"/><path opacity=".069" d="M159.17 837.517c5.399 5.398 13.084 8.365 22.9 8.971 9.825.606 21.719-1.16 35.42-5.167 27.401-8.014 61.822-24.932 100.961-49.354 78.263-48.835 175.198-127.556 272.235-224.593 97.037-97.037 175.758-193.972 224.593-272.236 24.422-39.138 41.34-73.56 49.354-100.96 4.007-13.701 5.773-25.595 5.167-35.42-.606-9.816-3.573-17.502-8.971-22.9s-13.084-8.365-22.9-8.971c-9.824-.606-21.719 1.16-35.42 5.167-27.4 8.014-61.821 24.932-100.96 49.354-78.264 48.835-175.199 127.556-272.236 224.593-97.037 97.037-175.757 193.972-224.593 272.236-24.422 39.138-41.34 73.56-49.354 100.96-4.007 13.701-5.772 25.595-5.166 35.42.605 9.816 3.572 17.502 8.97 22.9z"/><path opacity=".103" d="M191.083 870.728c5.848 4.907 13.763 7.193 23.595 6.941 9.839-.253 21.535-3.048 34.834-8.234 26.598-10.372 59.414-30.225 96.275-57.966 73.709-55.47 163.415-142.34 251.625-247.465 88.21-105.125 158.183-208.552 200.012-290.774 20.917-41.118 34.771-76.883 40.366-104.878 2.798-13.998 3.52-26.001 2.06-35.735-1.458-9.726-5.084-17.124-10.932-22.031-5.848-4.907-13.763-7.193-23.595-6.941-9.84.253-21.535 3.048-34.834 8.234-26.598 10.372-59.414 30.225-96.275 57.966-73.71 55.47-163.415 142.34-251.626 247.465-88.21 105.125-158.182 208.552-200.011 290.774-20.918 41.119-34.771 76.883-40.367 104.878-2.797 13.998-3.52 26.001-2.06 35.735 1.459 9.726 5.085 17.124 10.933 22.031z"/><path opacity=".138" d="M225.422 901.047c6.253 4.379 14.337 5.966 24.109 4.858 9.781-1.109 21.188-4.914 33.985-11.239 25.592-12.65 56.553-35.288 90.856-66.136 68.594-61.683 150.388-156.041 229.1-268.454 78.712-112.413 139.404-221.545 173.908-307.1 17.254-42.785 27.938-79.621 31.072-107.997 1.567-14.188 1.241-26.208-1.062-35.778-2.301-9.562-6.558-16.616-12.811-20.995-6.254-4.379-14.338-5.966-24.11-4.858-9.781 1.11-21.188 4.914-33.985 11.24-25.592 12.649-56.553 35.287-90.856 66.135-68.594 61.684-150.387 156.041-229.1 268.454-78.712 112.413-139.404 221.545-173.907 307.1-17.255 42.785-27.939 79.621-31.073 107.997-1.567 14.188-1.24 26.209 1.063 35.779 2.3 9.561 6.557 16.615 12.811 20.994z"/><path opacity=".172" d="M261.927 928.272c6.611 3.817 14.803 4.693 24.441 2.738 9.647-1.957 20.679-6.742 32.876-14.158 24.392-14.833 53.262-40.083 84.746-73.803 62.957-67.427 136.215-168.554 204.831-287.4 68.615-118.845 119.565-232.852 146.48-321.088 13.46-44.126 20.893-81.753 21.542-110.294.324-14.271-1.049-26.217-4.177-35.55-3.125-9.325-7.98-15.981-14.592-19.798-6.611-3.817-14.803-4.694-24.441-2.738-9.647 1.957-20.679 6.741-32.876 14.158-24.392 14.832-53.262 40.083-84.746 73.802-62.958 67.428-136.216 168.555-204.831 287.4C342.564 560.387 291.615 674.394 264.7 762.63c-13.46 44.126-20.893 81.753-21.542 110.294-.325 14.271 1.048 26.217 4.176 35.55 3.126 9.325 7.981 15.981 14.593 19.798z"/><path opacity=".207" d="M300.319 952.227c6.919 3.227 15.156 3.386 24.587.598 9.439-2.791 20.013-8.518 31.516-16.97 23.008-16.902 49.567-44.572 77.992-80.908 56.841-72.658 121.007-179.785 179.003-304.158 57.996-124.373 98.816-242.387 117.938-332.633 9.563-45.132 13.688-83.263 11.847-111.752-.92-14.245-3.329-26.026-7.259-35.05-3.926-9.018-9.343-15.225-16.262-18.452-6.919-3.226-15.156-3.385-24.587-.597-9.439 2.79-20.013 8.518-31.517 16.97-23.007 16.901-49.566 44.572-77.991 80.907-56.841 72.658-121.007 179.785-179.003 304.159-57.996 124.373-98.816 242.387-117.938 332.633-9.563 45.131-13.688 83.263-11.847 111.752.92 14.245 3.329 26.026 7.259 35.05 3.926 9.017 9.343 15.225 16.262 18.451z"/><path opacity=".241" d="M340.307 972.762c7.174 2.611 15.394 2.051 24.546-1.548 9.16-3.603 19.194-10.23 29.918-19.652 21.446-18.843 45.492-48.723 70.643-87.397 50.292-77.336 104.877-189.648 151.812-318.602 46.936-128.955 77.314-250.077 88.499-341.647 5.593-45.793 6.379-84.139 2.062-112.359-2.159-14.11-5.585-25.637-10.286-34.285-4.698-8.64-10.635-14.352-17.809-16.963-7.174-2.611-15.393-2.052-24.545 1.548-9.16 3.602-19.194 10.23-29.918 19.651-21.446 18.843-45.493 48.723-70.643 87.398-50.292 77.335-104.877 189.647-151.813 318.602-46.935 128.955-77.314 250.077-88.498 341.646-5.593 45.793-6.379 84.139-2.062 112.36 2.158 14.11 5.585 25.636 10.286 34.284 4.697 8.641 10.634 14.352 17.808 16.964z"/><path opacity=".276" d="M381.587 989.744c7.375 1.976 15.514.702 24.318-3.681 8.811-4.388 18.229-11.864 28.091-22.185 19.722-20.64 41.073-52.502 62.757-93.222 43.361-81.424 87.949-198.066 123.467-330.621 35.518-132.554 55.224-255.863 58.385-348.059 1.581-46.106-.979-84.375-7.738-112.111-3.381-13.87-7.799-25.053-13.236-33.258-5.432-8.198-11.844-13.37-19.219-15.347-7.374-1.976-15.513-.702-24.317 3.681-8.811 4.388-18.229 11.864-28.091 22.185-19.722 20.64-41.073 52.502-62.757 93.222-43.361 81.424-87.949 198.066-123.467 330.621-35.518 132.554-55.224 255.863-58.385 348.059-1.581 46.106.978 84.375 7.738 112.111 3.38 13.869 7.798 25.053 13.236 33.258 5.432 8.198 11.844 13.371 19.218 15.347z"/><path opacity=".31" d="M423.845 1003.08c7.518 1.33 15.516-.65 23.904-5.785 8.395-5.139 17.126-13.408 26.051-24.549 17.848-22.281 36.341-55.882 54.393-98.336 36.099-84.894 70.352-204.978 94.182-340.124 23.83-135.146 32.714-259.703 27.827-351.824-2.443-46.068-8.328-83.968-17.48-111.01-4.576-13.521-9.952-24.278-16.083-31.978-6.127-7.693-12.965-12.287-20.484-13.613-7.518-1.326-15.516.652-23.904 5.787-8.395 5.138-17.126 13.407-26.05 24.548-17.849 22.28-36.341 55.882-54.394 98.337-36.099 84.893-70.351 204.978-94.181 340.123-23.83 135.146-32.714 259.704-27.828 351.824 2.444 46.069 8.329 83.969 17.48 111.01 4.576 13.522 9.952 24.278 16.084 31.978 6.126 7.693 12.965 12.292 20.483 13.612z"/><path opacity=".345" d="M466.758 1012.7c7.605.67 15.4-2 23.309-7.85 7.915-5.849 15.892-14.847 23.811-26.723 15.839-23.752 31.333-58.837 45.617-102.704 28.562-87.716 52.218-210.329 64.179-347.038 11.96-136.708 9.955-261.566-2.942-352.91-6.449-45.68-15.615-82.923-27.089-109.064-5.737-13.071-12.03-23.318-18.809-30.454-6.774-7.13-13.987-11.111-21.592-11.776-7.605-.666-15.4 2.002-23.309 7.848-7.915 5.85-15.892 14.848-23.812 26.725-15.838 23.752-31.332 58.837-45.616 102.703-28.562 87.717-52.218 210.33-64.179 347.038-11.96 136.709-9.955 261.566 2.942 352.91 6.449 45.681 15.615 82.923 27.089 109.065 5.737 13.071 12.03 23.317 18.809 30.45 6.773 7.13 13.987 11.11 21.592 11.78z"/><path opacity=".379" d="M510.001 1018.56c7.634 0 15.167-3.34 22.536-9.85 7.375-6.52 14.537-16.179 21.392-28.7 13.708-25.042 26.085-61.344 36.491-106.288 20.809-89.873 33.689-214.08 33.689-351.311 0-137.231-12.88-261.439-33.689-351.311-10.406-44.944-22.783-81.246-36.491-106.288-6.855-12.522-14.017-22.18-21.392-28.7-7.369-6.512-14.902-9.849-22.536-9.849-7.635 0-15.167 3.337-22.536 9.85-7.376 6.518-14.538 16.177-21.392 28.699-13.709 25.042-26.086 61.344-36.492 106.288-20.809 89.872-33.688 214.08-33.688 351.311 0 137.231 12.879 261.438 33.688 351.311 10.406 44.944 22.783 81.246 36.492 106.288 6.854 12.521 14.016 22.18 21.392 28.7 7.369 6.51 14.901 9.85 22.536 9.85z"/><path opacity=".414" d="M553.242 1020.64c7.606-.66 14.819-4.65 21.592-11.78 6.78-7.13 13.073-17.378 18.81-30.449 11.473-26.142 20.639-63.384 27.088-109.065 12.897-91.344 14.903-216.201 2.942-352.91-11.96-136.708-35.617-259.321-64.179-347.038-14.284-43.866-29.778-78.951-45.616-102.703-7.92-11.876-15.897-20.875-23.812-26.725-7.909-5.846-15.704-8.514-23.309-7.848-7.605.665-14.818 4.646-21.592 11.776-6.779 7.136-13.072 17.383-18.809 30.454-11.474 26.141-20.639 63.384-27.089 109.064-12.897 91.344-14.902 216.202-2.942 352.91 11.961 136.709 35.617 259.322 64.18 347.038 14.283 43.867 29.777 78.952 45.616 102.704 7.919 11.876 15.896 20.872 23.812 26.722 7.908 5.85 15.703 8.52 23.308 7.85z"/><path opacity=".448" d="M596.156 1018.96c7.518-1.32 14.357-5.92 20.483-13.61 6.132-7.702 11.508-18.459 16.084-31.98 9.151-27.042 15.036-64.942 17.48-111.01 4.886-92.121-3.998-216.678-27.828-351.824-23.83-135.146-58.082-255.23-94.181-340.124-18.053-42.454-36.545-76.056-54.394-98.337-8.925-11.14-17.655-19.41-26.051-24.548-8.388-5.134-16.385-7.112-23.904-5.786-7.518 1.325-14.357 5.92-20.483 13.613-6.131 7.7-11.507 18.456-16.083 31.978-9.152 27.041-15.037 64.941-17.481 111.01-4.886 92.12 3.998 216.677 27.828 351.823s58.083 255.231 94.181 340.124c18.053 42.455 36.546 76.056 54.394 98.337 8.925 11.141 17.655 19.414 26.051 24.544 8.388 5.14 16.385 7.12 23.904 5.79z"/><path opacity=".483" d="M638.412 1013.56c7.374-1.98 13.787-7.15 19.219-15.347 5.437-8.205 9.855-19.389 13.235-33.257 6.76-27.737 9.32-66.005 7.739-112.111-3.161-92.196-22.867-215.505-58.385-348.06s-80.107-249.197-123.467-330.621c-21.684-40.72-43.035-72.581-62.757-93.222-9.862-10.32-19.28-17.797-28.091-22.184-8.804-4.384-16.944-5.658-24.318-3.682-7.374 1.976-13.786 7.149-19.219 15.347-5.437 8.205-9.855 19.39-13.235 33.258-6.76 27.736-9.319 66.005-7.738 112.111 3.16 92.196 22.867 215.505 58.385 348.06 35.518 132.554 80.106 249.196 123.466 330.621 21.685 40.719 43.035 72.581 62.758 93.222 9.861 10.32 19.28 17.795 28.091 22.185 8.803 4.38 16.943 5.66 24.317 3.68z"/><path opacity=".517" d="M679.693 1004.51c7.174-2.61 13.111-8.318 17.808-16.959 4.701-8.648 8.128-20.174 10.287-34.284 4.316-28.221 3.531-66.567-2.063-112.36-11.184-91.569-41.562-212.691-88.498-341.646-46.936-128.955-101.52-241.267-151.812-318.602-25.151-38.675-49.197-68.555-70.644-87.398-10.723-9.421-20.757-16.049-29.917-19.651-9.153-3.6-17.372-4.16-24.546-1.548-7.174 2.611-13.111 8.323-17.808 16.963-4.701 8.648-8.128 20.174-10.287 34.285-4.316 28.22-3.531 66.566 2.063 112.359 11.184 91.57 41.562 212.692 88.498 341.646 46.936 128.955 101.52 241.267 151.812 318.603 25.151 38.674 49.197 68.554 70.644 87.397 10.723 9.422 20.757 16.049 29.917 19.655 9.153 3.6 17.372 4.16 24.546 1.54z"/><path opacity=".552" d="M719.681 991.919c6.919-3.226 12.336-9.434 16.262-18.451 3.93-9.024 6.339-20.806 7.259-35.051 1.841-28.489-2.284-66.62-11.847-111.751-19.122-90.247-59.941-208.26-117.938-332.634-57.996-124.373-122.161-231.5-179.002-304.158-28.426-36.335-54.985-64.006-77.992-80.908-11.504-8.451-22.077-14.179-31.517-16.97-9.431-2.788-17.668-2.628-24.587.598-6.919 3.226-12.336 9.434-16.262 18.451-3.929 9.025-6.338 20.806-7.259 35.051-1.841 28.489 2.284 66.62 11.847 111.751 19.123 90.247 59.942 208.26 117.938 332.634 57.996 124.373 122.162 231.5 179.003 304.158 28.425 36.336 54.985 64.006 77.992 80.908 11.504 8.451 22.077 14.179 31.516 16.969 9.431 2.789 17.668 2.629 24.587-.597z"/><path opacity=".586" d="M758.074 975.903c6.612-3.817 11.467-10.473 14.592-19.798 3.129-9.333 4.502-21.279 4.177-35.55-.649-28.541-8.082-66.168-21.542-110.294-26.915-88.237-77.865-202.243-146.48-321.089-68.615-118.845-141.873-219.972-204.831-287.4-31.484-33.719-60.354-58.97-84.746-73.802-12.197-7.417-23.229-12.201-32.876-14.158-9.638-1.956-17.83-1.079-24.441 2.738-6.612 3.817-11.467 10.473-14.592 19.798-3.128 9.333-4.501 21.279-4.177 35.55.649 28.541 8.082 66.168 21.542 110.294 26.915 88.236 77.865 202.243 146.48 321.088 68.615 118.846 141.874 219.973 204.831 287.4 31.484 33.72 60.354 58.97 84.746 73.803 12.197 7.416 23.229 12.2 32.876 14.158 9.638 1.955 17.83 1.079 24.441-2.738z"/><path opacity=".621" d="M794.578 956.615c6.254-4.379 10.511-11.433 12.811-20.994 2.303-9.57 2.63-21.591 1.063-35.779-3.135-28.376-13.818-65.212-31.073-107.997-34.503-85.555-95.195-194.687-173.907-307.1-78.713-112.413-160.506-206.77-229.1-268.454-34.303-30.847-65.264-53.485-90.857-66.136-12.796-6.325-24.203-10.129-33.984-11.239-9.772-1.108-17.856.479-24.11 4.858-6.253 4.379-10.51 11.433-12.811 20.995-2.303 9.57-2.629 21.59-1.062 35.778 3.134 28.376 13.818 65.212 31.072 107.997 34.504 85.555 95.196 194.687 173.908 307.1 78.712 112.413 160.505 206.771 229.1 268.454 34.303 30.848 65.264 53.486 90.856 66.136 12.797 6.325 24.204 10.13 33.985 11.239 9.772 1.108 17.856-.479 24.109-4.858z"/><path opacity=".655" d="M828.918 934.236c5.848-4.907 9.473-12.305 10.932-22.031 1.46-9.734.738-21.737-2.06-35.735-5.596-27.995-19.449-63.759-40.367-104.878-41.828-82.222-111.801-185.649-200.011-290.774S419.496 288.823 345.787 233.353c-36.862-27.74-69.678-47.594-96.275-57.966-13.3-5.186-24.995-7.981-34.835-8.234-9.831-.252-17.746 2.034-23.595 6.941-5.848 4.907-9.473 12.305-10.932 22.031-1.46 9.734-.738 21.737 2.06 35.735 5.595 27.995 19.449 63.76 40.367 104.878 41.828 82.222 111.801 185.65 200.011 290.774 88.21 105.125 177.916 191.995 251.625 247.466 36.862 27.74 69.677 47.593 96.275 57.965 13.3 5.186 24.995 7.982 34.835 8.234 9.831.252 17.746-2.033 23.595-6.941z"/><path opacity=".69" d="M860.829 908.963c5.398-5.398 8.365-13.084 8.971-22.9.606-9.824-1.16-21.719-5.167-35.419-8.014-27.401-24.932-61.822-49.354-100.961-48.835-78.263-127.556-175.199-224.593-272.236C493.649 380.41 396.714 301.69 318.45 252.854c-39.138-24.422-73.56-41.339-100.96-49.353-13.701-4.008-25.595-5.773-35.42-5.167-9.816.605-17.502 3.572-22.9 8.971-5.398 5.398-8.365 13.084-8.971 22.9-.606 9.824 1.16 21.719 5.167 35.419 8.014 27.401 24.932 61.822 49.354 100.961 48.835 78.263 127.556 175.199 224.593 272.235 97.037 97.037 193.972 175.758 272.236 224.593 39.138 24.422 73.56 41.34 100.96 49.354 13.701 4.007 25.595 5.773 35.42 5.167 9.816-.606 17.502-3.572 22.9-8.971z"/><path opacity=".724" d="M890.071 881.021c4.907-5.849 7.193-13.764 6.941-23.595-.253-9.84-3.048-21.535-8.234-34.835-10.372-26.597-30.225-59.413-57.965-96.274-55.471-73.71-142.341-163.415-247.466-251.626-105.125-88.21-208.552-158.183-290.774-200.011-41.118-20.918-76.883-34.771-104.878-40.367-13.998-2.798-26.001-3.52-35.735-2.06-9.726 1.459-17.124 5.084-22.031 10.932-4.907 5.849-7.193 13.764-6.941 23.595.253 9.84 3.048 21.536 8.234 34.835 10.372 26.598 30.225 59.413 57.966 96.275 55.47 73.709 142.34 163.415 247.465 251.625 105.125 88.21 208.552 158.183 290.774 200.011 41.119 20.918 76.883 34.772 104.878 40.367 13.998 2.798 26.001 3.52 35.735 2.06 9.726-1.459 17.124-5.084 22.031-10.932z"/><path opacity=".759" d="M916.42 850.652c4.379-6.254 5.967-14.338 4.858-24.11-1.109-9.781-4.913-21.188-11.238-33.985-12.651-25.592-35.289-56.553-66.136-90.856-61.684-68.594-156.041-150.388-268.454-229.1-112.413-78.712-221.546-139.404-307.1-173.907-42.785-17.255-79.621-27.939-107.997-31.073-14.188-1.567-26.209-1.241-35.779 1.062-9.562 2.301-16.615 6.558-20.994 12.811-4.38 6.254-5.966 14.338-4.858 24.11 1.109 9.781 4.913 21.188 11.239 33.985 12.65 25.592 35.288 56.553 66.135 90.856 61.684 68.594 156.042 150.387 268.454 229.1 112.413 78.712 221.546 139.404 307.1 173.907 42.785 17.255 79.622 27.939 107.997 31.073 14.189 1.567 26.209 1.24 35.779-1.062 9.562-2.301 16.616-6.558 20.994-12.811z"/><path opacity=".793" d="M939.676 818.116c3.817-6.612 4.694-14.804 2.738-24.442-1.957-9.646-6.741-20.679-14.158-32.875-14.832-24.393-40.083-53.263-73.802-84.747-67.428-62.957-168.555-136.215-287.4-204.831-118.845-68.615-232.852-119.565-321.089-146.48-44.126-13.46-81.753-20.892-110.294-21.542-14.271-.324-26.217 1.049-35.55 4.177-9.324 3.126-15.98 7.981-19.798 14.592-3.817 6.612-4.693 14.803-2.738 24.442 1.958 9.646 6.742 20.678 14.158 32.875 14.833 24.393 40.083 53.263 73.803 84.747 67.427 62.957 168.554 136.215 287.4 204.83 118.845 68.616 232.852 119.565 321.088 146.481 44.126 13.46 81.753 20.892 110.294 21.541 14.271.325 26.218-1.048 35.55-4.176 9.325-3.126 15.981-7.981 19.798-14.592z"/><path opacity=".828" d="M959.662 783.693c3.227-6.919 3.386-15.156.598-24.588-2.791-9.439-8.518-20.012-16.97-31.516-16.902-23.007-44.572-49.566-80.908-77.992-72.658-56.841-179.785-121.006-304.158-179.002-124.373-57.997-242.387-98.816-332.633-117.939-45.132-9.563-83.263-13.687-111.752-11.847-14.245.921-26.026 3.33-35.05 7.26-9.018 3.926-15.225 9.342-18.452 16.261-3.226 6.92-3.385 15.157-.597 24.588 2.79 9.439 8.518 20.012 16.97 31.516 16.902 23.007 44.572 49.566 80.907 77.992 72.658 56.841 179.785 121.006 304.159 179.003 124.373 57.996 242.387 98.815 332.633 117.938 45.131 9.563 83.263 13.687 111.752 11.847 14.245-.921 26.026-3.33 35.05-7.259 9.017-3.927 15.225-9.343 18.451-16.262z"/><path opacity=".862" d="M976.226 747.673c2.612-7.174 2.052-15.394-1.547-24.546-3.603-9.16-10.23-19.194-19.652-29.917-18.843-21.447-48.723-45.493-87.398-70.644-77.335-50.292-189.647-104.876-318.602-151.812-128.954-46.936-250.077-77.314-341.646-88.499-45.793-5.593-84.139-6.378-112.36-2.062-14.11 2.159-25.636 5.585-34.284 10.287-8.64 4.697-14.352 10.634-16.963 17.808-2.611 7.174-2.052 15.393 1.548 24.546 3.602 9.16 10.23 19.194 19.651 29.917 18.843 21.447 48.723 45.493 87.398 70.644 77.335 50.292 189.647 104.876 318.602 151.812 128.955 46.936 250.077 77.314 341.646 88.498 45.793 5.594 84.139 6.379 112.359 2.062 14.111-2.158 25.637-5.585 34.285-10.286 8.64-4.697 14.352-10.634 16.963-17.808z"/><path opacity=".897" d="M989.242 710.362c1.976-7.374.702-15.514-3.681-24.317-4.388-8.812-11.864-18.23-22.185-28.091-20.64-19.723-52.502-41.074-93.222-62.758-81.424-43.36-198.066-87.949-330.621-123.466-132.554-35.518-255.863-55.225-348.059-58.386-46.106-1.581-84.375.979-112.111 7.739-13.87 3.38-25.053 7.798-33.258 13.235-8.198 5.432-13.371 11.845-15.347 19.219-1.976 7.374-.702 15.514 3.681 24.317 4.388 8.812 11.864 18.23 22.185 28.091 20.64 19.723 52.502 41.074 93.222 62.758 81.424 43.36 198.066 87.948 330.621 123.466 132.554 35.518 255.863 55.225 348.059 58.386 46.106 1.58 84.375-.979 112.111-7.739 13.869-3.38 25.053-7.798 33.258-13.235 8.198-5.433 13.371-11.845 15.347-19.219z"/><path opacity=".931" d="M998.61 672.074c1.326-7.518-.652-15.516-5.786-23.904-5.139-8.395-13.408-17.126-24.549-26.05-22.281-17.849-55.882-36.341-98.336-54.394-84.894-36.099-204.978-70.352-340.124-94.181-135.146-23.83-259.703-32.715-351.824-27.828-46.068 2.444-83.968 8.329-111.01 17.48-13.521 4.576-24.278 9.952-31.978 16.084-7.693 6.126-12.287 12.965-13.613 20.483-1.326 7.518.652 15.516 5.787 23.904 5.138 8.395 13.407 17.126 24.548 26.051 22.28 17.848 55.882 36.341 98.337 54.393 84.893 36.099 204.978 70.352 340.124 94.182 135.146 23.829 259.703 32.714 351.823 27.827 46.069-2.443 83.969-8.328 111.01-17.48 13.522-4.576 24.278-9.952 31.978-16.083 7.693-6.127 12.288-12.965 13.613-20.484z"/><path opacity=".966" d="M1004.26 633.129c.67-7.605-2-15.4-7.848-23.309-5.851-7.915-14.849-15.892-26.725-23.811-23.752-15.839-58.838-31.333-102.704-45.617-87.717-28.562-210.329-52.218-347.038-64.179-136.708-11.96-261.566-9.955-352.91 2.942-45.68 6.449-82.923 15.615-109.064 27.089-13.071 5.737-23.318 12.03-30.454 18.809-7.13 6.774-11.111 13.987-11.777 21.592-.665 7.605 2.003 15.4 7.848 23.309 5.851 7.915 14.85 15.892 26.726 23.812 23.751 15.838 58.837 31.332 102.703 45.616 87.717 28.562 210.329 52.218 347.038 64.179 136.709 11.96 261.566 9.955 352.91-2.942 45.68-6.449 82.923-15.615 109.064-27.089 13.072-5.737 23.318-12.03 30.455-18.809 7.13-6.773 11.106-13.987 11.776-21.592z"/><path d="M1006.15 593.857c0-7.634-3.34-15.167-9.852-22.536-6.518-7.375-16.177-14.538-28.699-21.392-25.041-13.708-61.344-26.085-106.288-36.491-89.872-20.809-214.08-33.689-351.311-33.689-137.231 0-261.438 12.88-351.311 33.689-44.944 10.406-81.246 22.783-106.288 36.491-12.521 6.854-22.18 14.017-28.699 21.392-6.513 7.369-9.85 14.902-9.85 22.536 0 7.634 3.337 15.167 9.85 22.536 6.518 7.376 16.178 14.538 28.699 21.392 25.042 13.708 61.344 26.085 106.288 36.491 89.873 20.809 214.08 33.689 351.311 33.689 137.231 0 261.439-12.88 351.311-33.689 44.944-10.406 81.247-22.783 106.288-36.491 12.522-6.854 22.181-14.016 28.699-21.392 6.512-7.369 9.852-14.902 9.852-22.536z"/></g></svg>