<svg width="80" height="80" fill="none" xmlns="http://www.w3.org/2000/svg"><g filter="url(#filter0_b_348_166)"><path d="M0 39.895C0 17.862 17.966 0 40 0s40 17.862 40 39.895c0 22.034-17.966 39.896-40 39.896S0 61.929 0 39.895z" fill="url(#paint0_radial_348_166)"/><path d="M.5 39.895C.5 18.14 18.24.5 40 .5s39.5 17.64 39.5 39.395c0 21.756-17.74 39.396-39.5 39.396S.5 61.65.5 39.895z" stroke="url(#paint1_radial_348_166)"/><path d="M.5 39.895C.5 18.14 18.24.5 40 .5s39.5 17.64 39.5 39.395c0 21.756-17.74 39.396-39.5 39.396S.5 61.65.5 39.895z" stroke="url(#paint2_radial_348_166)"/><path d="M.5 39.895C.5 18.14 18.24.5 40 .5s39.5 17.64 39.5 39.395c0 21.756-17.74 39.396-39.5 39.396S.5 61.65.5 39.895z" stroke="url(#paint3_radial_348_166)"/></g><path fill-rule="evenodd" clip-rule="evenodd" d="M56.558 23.256v35.348a1.395 1.395 0 01-2.182 1.152l-4.642-3.168-4.389 3.15a1.391 1.391 0 01-1.732-.084l-3.334-2.916-3.334 2.916a1.391 1.391 0 01-1.732.083l-4.389-3.15-4.642 3.169A1.393 1.393 0 0124 58.604V23.256A3.256 3.256 0 0127.256 20h26.046c1.8 0 3.256 1.459 3.256 3.256zm-23.72 14.418H47.72a1.396 1.396 0 000-2.79H32.837a1.396 1.396 0 000 2.79zm0-7.441H47.72a1.396 1.396 0 000-2.791H32.837a1.396 1.396 0 000 2.79zm0 14.883h7.441a1.396 1.396 0 000-2.79h-7.442a1.396 1.396 0 000 2.79z" fill="#46DF83"/><defs><radialGradient id="paint0_radial_348_166" cx="0" cy="0" r="1" gradientUnits="userSpaceOnUse" gradientTransform="matrix(80.0001 88.67778 -64.4307 58.12575 6.692 0)"><stop stop-color="#fff" stop-opacity=".36"/><stop offset="1" stop-color="#fff" stop-opacity="0"/></radialGradient><radialGradient id="paint1_radial_348_166" cx="0" cy="0" r="1" gradientUnits="userSpaceOnUse" gradientTransform="matrix(75.448 52.90976 -31.22766 44.52987 -42.597 8.163)"><stop stop-color="#fff"/><stop offset="1" stop-color="#fff" stop-opacity=".06"/></radialGradient><radialGradient id="paint2_radial_348_166" cx="0" cy="0" r="1" gradientUnits="userSpaceOnUse" gradientTransform="rotate(161.385 47.335 35.175) scale(66.8428 45.1784)"><stop stop-color="#8470FF"/><stop offset="1" stop-color="#865CFF" stop-opacity="0"/></radialGradient><radialGradient id="paint3_radial_348_166" cx="0" cy="0" r="1" gradientUnits="userSpaceOnUse" gradientTransform="matrix(30.32378 32.76379 -23.54952 21.79572 40.871 -18.236)"><stop/><stop offset="1" stop-color="#fff" stop-opacity="0"/></radialGradient><filter id="filter0_b_348_166" x="-5" y="-5" width="90" height="89.791" filterUnits="userSpaceOnUse" color-interpolation-filters="sRGB"><feFlood flood-opacity="0" result="BackgroundImageFix"/><feGaussianBlur in="BackgroundImageFix" stdDeviation="2.5"/><feComposite in2="SourceAlpha" operator="in" result="effect1_backgroundBlur_348_166"/><feBlend in="SourceGraphic" in2="effect1_backgroundBlur_348_166" result="shape"/></filter></defs></svg>