<svg width="54" height="50" fill="none" xmlns="http://www.w3.org/2000/svg"><path d="M40.47.072c-6.399 11.82-9.934 17.716-13.5 17.716-3.564 0-7.1-5.895-13.47-17.716 6.37 11.82 9.41 18.059 7.627 21.334C19.344 24.68 12.77 25.024 0 25.024c13.237 0 19.812.343 21.302 3.961 1.402 3.369-1.636 9.575-7.802 20.991C19.9 38.155 23.435 32.26 27 32.26c3.565 0 7.1 5.895 13.5 17.716-6.78-12.57-9.76-18.808-7.247-21.927 2.221-2.744 8.767-3.025 20.747-3.025-13.5 0-20.075-.374-21.39-4.21-1.198-3.432 1.841-9.607 7.86-20.742z" fill="#fff"/></svg>