<svg width="80" height="80" fill="none" xmlns="http://www.w3.org/2000/svg"><g filter="url(#filter0_b_347_81)"><path d="M0 39.895C0 17.862 17.966 0 40 0s40 17.862 40 39.895c0 22.034-17.966 39.896-40 39.896S0 61.929 0 39.895z" fill="url(#paint0_radial_347_81)"/><path d="M.5 39.895C.5 18.14 18.24.5 40 .5s39.5 17.64 39.5 39.395c0 21.756-17.74 39.396-39.5 39.396S.5 61.65.5 39.895z" stroke="url(#paint1_radial_347_81)"/><path d="M.5 39.895C.5 18.14 18.24.5 40 .5s39.5 17.64 39.5 39.395c0 21.756-17.74 39.396-39.5 39.396S.5 61.65.5 39.895z" stroke="url(#paint2_radial_347_81)"/><path d="M.5 39.895C.5 18.14 18.24.5 40 .5s39.5 17.64 39.5 39.395c0 21.756-17.74 39.396-39.5 39.396S.5 61.65.5 39.895z" stroke="url(#paint3_radial_347_81)"/></g><path d="M56.078 25.453h-.059v-3.172a1.026 1.026 0 00-2.05 0v3.172h-.06a2.67 2.67 0 00-2.666 2.666v20.626a2.67 2.67 0 002.666 2.666h.06v3.172a1.026 1.026 0 002.05 0V51.41h.06a2.67 2.67 0 002.665-2.666V28.119a2.67 2.67 0 00-2.666-2.666zm-9.995 9.945h-.06v-1.573a1.026 1.026 0 00-2.05 0v1.573h-.059a2.67 2.67 0 00-2.666 2.666V53.48a2.67 2.67 0 002.666 2.666h.06v1.573a1.026 1.026 0 002.05 0v-1.573h.059a2.67 2.67 0 002.666-2.666V38.064a2.67 2.67 0 00-2.666-2.666zm-9.996-3.378h-.06v-2.128a1.026 1.026 0 00-2.05 0v2.127h-.059a2.67 2.67 0 00-2.666 2.666v9.446a2.67 2.67 0 002.666 2.666h.059v2.127a1.026 1.026 0 002.05 0v-2.127h.06a2.67 2.67 0 002.666-2.666v-9.446a2.67 2.67 0 00-2.666-2.666zm-9.997-6.085h-.058V22.28a1.026 1.026 0 00-2.051 0v3.654h-.06a2.67 2.67 0 00-2.665 2.666v19.041a2.67 2.67 0 002.666 2.666h.059v3.654a1.026 1.026 0 002.05 0v-3.654h.06a2.67 2.67 0 002.666-2.666v-19.04a2.67 2.67 0 00-2.666-2.666z" fill="#46DF83"/><defs><radialGradient id="paint0_radial_347_81" cx="0" cy="0" r="1" gradientUnits="userSpaceOnUse" gradientTransform="matrix(80.0001 88.67778 -64.4307 58.12575 6.692 0)"><stop stop-color="#fff" stop-opacity=".36"/><stop offset="1" stop-color="#fff" stop-opacity="0"/></radialGradient><radialGradient id="paint1_radial_347_81" cx="0" cy="0" r="1" gradientUnits="userSpaceOnUse" gradientTransform="matrix(75.448 52.90976 -31.22766 44.52987 -42.597 8.163)"><stop stop-color="#fff"/><stop offset="1" stop-color="#fff" stop-opacity=".06"/></radialGradient><radialGradient id="paint2_radial_347_81" cx="0" cy="0" r="1" gradientUnits="userSpaceOnUse" gradientTransform="rotate(161.385 47.335 35.175) scale(66.8428 45.1784)"><stop stop-color="#8470FF"/><stop offset="1" stop-color="#865CFF" stop-opacity="0"/></radialGradient><radialGradient id="paint3_radial_347_81" cx="0" cy="0" r="1" gradientUnits="userSpaceOnUse" gradientTransform="matrix(30.32378 32.76379 -23.54952 21.79572 40.871 -18.236)"><stop/><stop offset="1" stop-color="#fff" stop-opacity="0"/></radialGradient><filter id="filter0_b_347_81" x="-5" y="-5" width="90" height="89.791" filterUnits="userSpaceOnUse" color-interpolation-filters="sRGB"><feFlood flood-opacity="0" result="BackgroundImageFix"/><feGaussianBlur in="BackgroundImageFix" stdDeviation="2.5"/><feComposite in2="SourceAlpha" operator="in" result="effect1_backgroundBlur_347_81"/><feBlend in="SourceGraphic" in2="effect1_backgroundBlur_347_81" result="shape"/></filter></defs></svg>