<svg width="131" height="19" fill="none" xmlns="http://www.w3.org/2000/svg"><path d="M130.5 9.5c0 .407-.287.917-1.12 1.507-.816.578-2.051 1.156-3.69 1.718-3.271 1.122-8.031 2.14-13.946 2.998C99.921 17.437 83.571 18.5 65.5 18.5s-34.42-1.063-46.244-2.777c-5.915-.858-10.675-1.877-13.947-2.998-1.638-.562-2.873-1.14-3.69-1.718C.788 10.417.5 9.907.5 9.5c0-.407.287-.917 1.12-1.507.816-.578 2.05-1.156 3.69-1.718 3.27-1.122 8.031-2.14 13.946-2.998C31.08 1.563 47.43.5 65.5.5s34.42 1.063 46.244 2.777c5.915.858 10.675 1.876 13.946 2.998 1.639.562 2.874 1.14 3.69 1.718.833.59 1.12 1.1 1.12 1.507z" stroke="#46DF83"/></svg>