<svg width="32" height="32" fill="none" xmlns="http://www.w3.org/2000/svg"><path d="M26.667 16c0-5.891-4.776-10.667-10.667-10.667-3.356 0-6.305 1.552-8.243 3.991l2.24-.006a1.333 1.333 0 01.007 2.666l-4.59.014a1.347 1.347 0 01-.155 0L4.671 12a1.333 1.333 0 01-1.338-1.333V5.333a1.333 1.333 0 112.667 0v1.933c2.417-2.812 5.97-4.6 10-4.6 7.364 0 13.333 5.97 13.333 13.334S23.363 29.333 16 29.333c-5.248 0-9.685-3.03-11.86-7.406a1.333 1.333 0 012.387-1.187c1.752 3.526 5.298 5.927 9.473 5.927 5.891 0 10.667-4.776 10.667-10.667z" fill="#7B839A"/><path fill-rule="evenodd" clip-rule="evenodd" d="M16 9.333c.736 0 1.333.597 1.333 1.334v4.78l2.276 2.277a1.333 1.333 0 11-1.885 1.886l-2.276-2.277c-.5-.5-.781-1.178-.781-1.885v-4.781c0-.737.597-1.334 1.333-1.334z" fill="#7B839A"/></svg>