<svg width="202" height="40" fill="none" xmlns="http://www.w3.org/2000/svg"><path fill-rule="evenodd" clip-rule="evenodd" d="M25.556 11.685A10 10 0 0020 10V0A20 20 0 110 20h10a10 10 0 1015.556-8.315z" fill="#40FF8D"/><path fill-rule="evenodd" clip-rule="evenodd" d="M10 0A10 10 0 010 10v10A20 20 0 0020 0H10z" fill="#40FF8D"/><path d="M54.46 10.2h6.529c1.696 0 3.12.552 4.272 1.656 1.152 1.104 1.728 2.512 1.728 4.224 0 1.712-.576 3.12-1.728 4.224-1.152 1.104-2.576 1.656-4.272 1.656h-2.232V27H54.46V10.2zm4.297 7.68h2.232c.48 0 .88-.168 1.2-.504.336-.336.504-.768.504-1.296s-.168-.952-.504-1.272a1.589 1.589 0 00-1.2-.504h-2.232v3.576zM72.363 15v2.232a3.138 3.138 0 011.32-1.8c.672-.448 1.432-.672 2.28-.672v4.416c-.912-.144-1.744.024-2.496.504-.736.48-1.104 1.264-1.104 2.352V27h-3.984V15h3.984zM83 27.336c-1.792 0-3.304-.608-4.536-1.824-1.248-1.216-1.872-2.72-1.872-4.512 0-1.76.624-3.256 1.872-4.488 1.264-1.232 2.776-1.848 4.536-1.848 1.792 0 3.304.616 4.536 1.848 1.248 1.232 1.872 2.728 1.872 4.488 0 1.792-.624 3.296-1.872 4.512-1.216 1.216-2.728 1.824-4.536 1.824zm0-3.84c.704 0 1.28-.232 1.728-.696.464-.464.696-1.064.696-1.8s-.232-1.336-.696-1.8c-.448-.464-1.024-.696-1.728-.696-.688 0-1.264.24-1.728.72-.448.464-.672 1.056-.672 1.776s.224 1.32.672 1.8c.464.464 1.04.696 1.728.696zm15.552-8.832c1.6 0 2.936.608 4.008 1.824 1.088 1.216 1.632 2.72 1.632 4.512 0 1.792-.544 3.304-1.632 4.536-1.088 1.2-2.424 1.8-4.008 1.8-1.456 0-2.592-.48-3.408-1.44V31.8H91.16V15h3.984v1.104c.816-.96 1.952-1.44 3.408-1.44zm-2.712 8.232c.464.48 1.072.72 1.824.72s1.36-.24 1.824-.72c.464-.496.696-1.128.696-1.896s-.232-1.4-.696-1.896c-.464-.48-1.072-.72-1.824-.72s-1.36.24-1.824.72c-.464.496-.696 1.128-.696 1.896s.232 1.4.696 1.896zm21.917-.432h-8.28c.4.976 1.296 1.464 2.688 1.464.848 0 1.576-.28 2.184-.84l2.88 2.016c-1.168 1.488-2.888 2.232-5.16 2.232-2.032 0-3.664-.592-4.896-1.776-1.216-1.2-1.824-2.712-1.824-4.536 0-1.808.6-3.32 1.8-4.536 1.2-1.216 2.728-1.824 4.584-1.824 1.792 0 3.272.6 4.44 1.8 1.168 1.184 1.752 2.688 1.752 4.512 0 .56-.056 1.056-.168 1.488zm-8.328-2.76h4.608c-.304-1.12-1.056-1.68-2.256-1.68-1.232 0-2.016.56-2.352 1.68zM123.62 15v2.232a3.138 3.138 0 011.32-1.8c.672-.448 1.432-.672 2.28-.672v4.416c-.912-.144-1.744.024-2.496.504-.736.48-1.104 1.264-1.104 2.352V27h-3.984V15h3.984zm9.636-4.8h12.6v4.152h-4.152V27h-4.296V14.352h-4.152V10.2zm16.755 4.8v2.232a3.138 3.138 0 011.32-1.8c.672-.448 1.432-.672 2.28-.672v4.416c-.912-.144-1.744.024-2.496.504-.736.48-1.104 1.264-1.104 2.352V27h-3.984V15h3.984zm13.277 1.104V15h3.984v12h-3.984v-1.104c-.816.96-1.952 1.44-3.408 1.44-1.616 0-2.96-.6-4.032-1.8-1.072-1.216-1.608-2.728-1.608-4.536 0-1.824.536-3.328 1.608-4.512 1.072-1.216 2.416-1.824 4.032-1.824 1.456 0 2.592.48 3.408 1.44zm-4.344 6.792c.448.48 1.056.72 1.824.72s1.376-.24 1.824-.72c.464-.496.696-1.128.696-1.896s-.232-1.4-.696-1.896c-.448-.48-1.056-.72-1.824-.72s-1.376.24-1.824.72c-.464.496-.696 1.128-.696 1.896s.232 1.4.696 1.896zm19.086-6.792V10.2h3.984V27h-3.984v-1.104c-.816.96-1.952 1.44-3.408 1.44-1.616 0-2.96-.6-4.032-1.8-1.072-1.216-1.608-2.728-1.608-4.536 0-1.824.536-3.328 1.608-4.512 1.072-1.216 2.416-1.824 4.032-1.824 1.456 0 2.592.48 3.408 1.44zm-4.344 6.792c.448.48 1.056.72 1.824.72s1.376-.24 1.824-.72c.464-.496.696-1.128.696-1.896s-.232-1.4-.696-1.896c-.448-.48-1.056-.72-1.824-.72s-1.376.24-1.824.72c-.464.496-.696 1.128-.696 1.896s.232 1.4.696 1.896zm22.446-.432h-8.28c.4.976 1.296 1.464 2.688 1.464.848 0 1.576-.28 2.184-.84l2.88 2.016c-1.168 1.488-2.888 2.232-5.16 2.232-2.032 0-3.664-.592-4.896-1.776-1.216-1.2-1.824-2.712-1.824-4.536 0-1.808.6-3.32 1.8-4.536 1.2-1.216 2.728-1.824 4.584-1.824 1.792 0 3.272.6 4.44 1.8 1.168 1.184 1.752 2.688 1.752 4.512 0 .56-.056 1.056-.168 1.488zm-8.328-2.76h4.608c-.304-1.12-1.056-1.68-2.256-1.68-1.232 0-2.016.56-2.352 1.68z" fill="#fff"/></svg>