<svg width="148" height="125" fill="none" xmlns="http://www.w3.org/2000/svg"><path d="M134.708 11.94l9.244 13.89c7.007 10.53 4.781 26.999-8.031 45.212-21.475 30.528-64.675 54.572-96.302 53.601a31.18 31.18 0 01-14.7-2.693 31.13 31.13 0 01-11.75-9.219L3.922 98.839a31.146 31.146 0 0011.751 9.22 31.18 31.18 0 0014.7 2.691c31.627.972 74.828-23.072 96.302-53.6 12.812-18.213 15.038-34.682 8.032-45.21z" fill="#37AB65"/><path d="M108.259.028c31.627.972 39.887 26.598 18.415 57.123-21.474 30.527-64.675 54.572-96.302 53.6-31.63-.971-39.892-26.595-18.418-57.122C33.426 23.105 76.628-.942 108.26.029z" fill="#71FFA9"/><path d="M106.314 2.796c-30.098-.925-71.06 21.873-91.493 50.921-20.434 29.048-12.596 53.339 17.5 54.262 30.093.925 71.051-21.868 91.485-50.916 20.433-29.048 12.599-53.344-17.492-54.267z" fill="#49D581"/><path d="M138.608 26.75c.011-.403.008-.799.004-1.195-.002-.153.004-.308.001-.46l-.004-.228v-.055c-.019-.645-.06-1.28-.124-1.902l-.022-.215a12.27 12.27 0 00-.07-.585l-.017-.141-.014-.097c-.037-.265-.073-.526-.119-.786l-.01-.046-.018-.098c-.041-.24-.085-.48-.134-.718l-.018-.093c-.04-.212-.087-.418-.138-.625l-.058-.272-.023-.09a16.164 16.164 0 00-.21-.792 14.484 14.484 0 00-.225-.745l-.055-.174-.037-.11c-.063-.2-.133-.397-.201-.594l-.005-.004a6.044 6.044 0 00-.137-.366l-.155-.407-.106-.256c-.087-.21-.178-.416-.27-.617l-.128-.275c-.078-.178-.16-.347-.247-.52l-.12-.23-.238-.452-.123-.22-.032-.063-.129-.215-.182-.316v-.004l-.042-.064-.141-.229-.019-.032-.128-.201-.115-.174-.091-.146-.133-.196a21.637 21.637 0 00-1.117-1.495 21.85 21.85 0 00-1.296-1.454 24.287 24.287 0 00-.852-.837 25.8 25.8 0 00-.732-.649l-.449-.374a16.822 16.822 0 00-.797-.618 27.26 27.26 0 00-5.287-3.054 31.311 31.311 0 00-2.02-.81 34.965 34.965 0 00-2.143-.698 43.91 43.91 0 00-1.497-.403 40.926 40.926 0 00-3.16-.653 42.358 42.358 0 00-1.661-.248 55.133 55.133 0 00-2.592-.273 63.859 63.859 0 00-2.715-.147 65.588 65.588 0 00-8.003.26h-.005a75.407 75.407 0 00-5.013.618c-.691.105-1.388.224-2.084.352a82.44 82.44 0 00-4.35.896c-.65.147-1.304.302-1.963.47-.216.051-.436.11-.65.165-.536.137-1.071.284-1.608.43-.54.146-1.08.302-1.62.462-.495.146-.993.297-1.488.448l-.138.041h-.01a92.22 92.22 0 00-1.482.48l-.137.042a87.796 87.796 0 00-2.789.946c-.508.178-1.016.36-1.52.553-1.296.47-2.587.973-3.883 1.499-1.09.448-2.18.91-3.27 1.385-1.094.48-2.183.979-3.273 1.486a161.2 161.2 0 00-2.701 1.312 140.666 140.666 0 00-7.577 4.05c-.674.385-1.342.778-2.01 1.171-.93.553-1.852 1.117-2.766 1.692-.847.52-1.685 1.056-2.523 1.6-1.245.814-2.48 1.645-3.704 2.495a140.772 140.772 0 00-5.375 3.914c-.98.75-1.95 1.51-2.912 2.282a138.021 138.021 0 00-5.609 4.758 128.932 128.932 0 00-9.03 8.892c-.402.438-.8.883-1.194 1.326a106.22 106.22 0 00-7.619 9.573 83.8 83.8 0 00-5.824 9.504 66.55 66.55 0 00-1.96 4.078c-.145.338-.292.672-.43 1.006a59.47 59.47 0 00-1.483 3.945 55.791 55.791 0 00-.6 1.934 32.242 32.242 0 00-.141 19.956 22.208 22.208 0 001.263 2.861 23.064 23.064 0 001.19 1.998l.023.027.064.1c.106.156.211.312.326.463.22.306.448.603.686.9l.243.302.11.133c.155.182.31.365.476.544l.05.054c.152.17.307.338.467.503l.037.037.234.233.178.178.229.219c.178.174.362.339.545.503.17.156.348.307.526.458l.188.159c.183.151.37.302.563.449.156.118.307.238.467.352a24.514 24.514 0 001.914 1.28l.215.132.412.238.22.124.11.059c.09.056.184.108.28.155.255.142.517.279.782.407l.01.005c.205.101.411.206.622.302l.357.164c.224.101.454.202.682.297l.261.114c.197.083.394.16.595.238.307.119.618.238.935.348.288.105.577.201.875.297.305.101.618.202.933.293.54.16 1.095.31 1.663.452l.1.023c.17.045.34.087.508.123l.294.065c.214.05.434.095.65.141a41.316 41.316 0 002.678.467c.17.027.338.05.508.068.64.092 1.291.164 1.955.224.32.032.64.055.966.083l.238.018c.344.023.691.04 1.044.059l.27.014c.307.014.614.027.92.037 4.19.106 8.38-.162 12.523-.801a86.509 86.509 0 003.145-.53 91.862 91.862 0 006.396-1.431 108.57 108.57 0 008.128-2.446c1.09-.375 2.18-.763 3.27-1.174a131.205 131.205 0 0011.45-4.933 140.292 140.292 0 006.465-3.352c.535-.292 1.071-.59 1.607-.895 1.062-.604 2.12-1.223 3.173-1.856.53-.311 1.057-.636 1.58-.96a132.29 132.29 0 003.122-1.98h.004a144.48 144.48 0 003.073-2.062h.004c2.034-1.4 4.039-2.848 5.998-4.347h.005a122.11 122.11 0 002.903-2.282c.481-.38.961-.772 1.433-1.165a133.983 133.983 0 004.18-3.594h.005a118.08 118.08 0 0017.838-19.79 84.18 84.18 0 005.824-9.505 65.418 65.418 0 001.959-4.078c.147-.338.294-.672.431-1.006a56.475 56.475 0 001.484-3.945 56.26 56.26 0 00.599-1.934 45.033 45.033 0 001.104-4.726c.296-1.698.472-3.413.526-5.135l.004-.073zm-14.802 30.315c-20.434 29.048-61.39 51.837-91.484 50.914-30.096-.924-37.934-25.212-17.5-54.26A133.217 133.217 0 0177.576 7.745a83.67 83.67 0 0127.71-4.974c.343.004.687.014 1.03.023a31.61 31.61 0 0123.25 8.869 23.903 23.903 0 015.348 19.768 58.99 58.99 0 01-11.108 25.633z" fill="#71FFA9"/><path d="M103.209 7.206l-.467-.014-1.713 2.474.44.01c.407.012.81.03 1.209.054l1.804-2.469a59.633 59.633 0 00-1.273-.055zm3.246.206l-1.905 2.46c.444.046.875.096 1.305.15l1.973-2.454c-.452-.056-.911-.11-1.373-.156zm3.237.448l-2.069 2.437c.526.095 1.039.196 1.547.31l2.152-2.418a29.637 29.637 0 00-1.63-.329zm-18.15.16l-1.144 2.428a98.56 98.56 0 011.95-.284l1.25-2.446c-.682.092-1.37.192-2.056.302zm-2.866.517l-.993 2.4a60.927 60.927 0 011.991-.366l1.099-2.423a69.64 69.64 0 00-2.097.389zm-4.39.996l-.706 2.172-.06.178.248-.06a62.808 62.808 0 011.685-.406l.874-2.377a90.23 90.23 0 00-2.042.493zm33.872 1.056l-2.509 2.295c.371.187.732.384 1.084.585l2.565-2.267c-.371-.21-.751-.416-1.14-.613zm-36.753-.27l-.38.11-.6 2.309c.71-.21 1.415-.412 2.12-.599l.28-.91.434-1.426c-.612.165-1.236.334-1.854.516zm38.474 1.23l-2.592 2.25c.367.224.719.452 1.063.69l2.651-2.209a21.901 21.901 0 00-1.122-.73zm2.344 1.65l-2.715 2.163c.339.274.669.558.98.846l2.77-2.117a22.41 22.41 0 00-1.035-.891zm-51.568.91l-.064 2.117a91.72 91.72 0 012.11-.845l.179-2.163c-.741.288-1.483.585-2.225.892zm-2.463 1.052c-.705.311-1.41.63-2.111.96l.17 2.012c.663-.311 1.33-.613 2-.905l-.06-2.067zm58.22 2.692l-2.93 1.925c.234.361.454.736.66 1.116l2.962-1.865a18.194 18.194 0 00-.692-1.176zm-61.38-1.238c-.664.315-1.327.635-1.991.969l.325 1.938c.627-.315 1.254-.621 1.886-.923l-.22-1.984zm62.365 2.971l-2.98 1.838c.183.356.348.723.508 1.093l3.003-1.778a20.766 20.766 0 00-.531-1.153zm1.063 2.55l-3.031 1.706c.137.408.261.824.375 1.244l3.054-1.641a21.7 21.7 0 00-.398-1.308zm.521 1.807l-3.058 1.614c.101.425.192.859.27 1.298l3.072-1.545a18.467 18.467 0 00-.284-1.367zm-76.173-.654c-.714.444-1.43.891-2.134 1.349l.952 1.581c.673-.433 1.348-.86 2.024-1.28l-.842-1.65zm-4.46 2.89c-.55.37-1.1.744-1.639 1.129l1.153 1.44a122.87 122.87 0 011.557-1.07l-1.071-1.5zm-3.91 2.747c-.641.47-1.277.946-1.909 1.427l1.373 1.284c.6-.457 1.2-.905 1.809-1.348l-1.273-1.363zm81.993 4.499c-.042.47-.096.942-.16 1.417l3.081-1.11c.069-.504.124-1.002.17-1.496l-3.091 1.189zm-.434 3.1c-.074.406-.161.813-.253 1.225l3.05-.956c.1-.435.187-.864.27-1.29l-3.067 1.02zm-.688 2.962a47.095 47.095 0 01-.476 1.59l3.004-.772a59.75 59.75 0 00.499-1.678l-3.027.86zm-91.7-1.669c-.6.553-1.19 1.106-1.776 1.669l1.923.813c.559-.53 1.117-1.06 1.685-1.581l-1.831-.901zm-2.412 2.286c-.577.567-1.146 1.135-1.709 1.705l2.047.695c.532-.545 1.072-1.08 1.617-1.614l-1.955-.786zM27.67 43.71a110.11 110.11 0 00-1.502 1.642l2.216.512c.467-.52.943-1.042 1.424-1.56l-2.138-.594zm93.93 5.062c-.257.498-.522.996-.802 1.499l2.785-.274c.292-.531.572-1.056.842-1.582l-2.825.357zm-96.164-2.588a91.746 91.746 0 00-1.539 1.797l2.33.379c.482-.576.967-1.143 1.461-1.71l-2.252-.466zm94.918 4.882a60.04 60.04 0 01-.943 1.6l2.71-.145c.34-.563.674-1.126.989-1.683l-2.756.228zm-2.115 3.465a80.616 80.616 0 01-1.131 1.692l2.583.046c.407-.6.81-1.193 1.19-1.783l-2.642.046zm-99.31-.018a74.74 74.74 0 00-1.194 1.778l2.646-.04c.366-.563.742-1.125 1.131-1.691l-2.583-.047zM16.5 58.262c-.343.563-.672 1.12-.989 1.683l2.757-.234c.302-.53.618-1.06.943-1.595l-2.711.146zm95.89 4.16a80.548 80.548 0 01-1.457 1.705l2.253.472c.522-.6 1.035-1.2 1.539-1.802l-2.335-.374zm-97.35-1.645a85.29 85.29 0 00-.842 1.581l2.824-.351c.257-.5.522-.998.802-1.5l-2.784.27zm95.198 4.137a92.07 92.07 0 01-1.424 1.558l2.138.6a97.217 97.217 0 001.501-1.646l-2.215-.512zm-3.151 3.36a89.892 89.892 0 01-1.611 1.61l1.955.786c.577-.563 1.14-1.13 1.698-1.697l-2.042-.7zm-2.22 2.204c-.554.53-1.118 1.06-1.685 1.581l1.836.901c.595-.549 1.19-1.111 1.772-1.669l-1.923-.813zm-94.076-.005a34.431 34.431 0 00-.504 1.682l3.026-.86c.147-.53.307-1.06.477-1.595l-2.999.773zm-.961 3.511c-.102.434-.189.864-.27 1.289l3.067-1.02c.074-.406.16-.813.252-1.225l-3.05.956zm-.559 3.067c-.07.499-.124.997-.165 1.49l3.085-1.188c.042-.466.093-.942.162-1.417L9.27 77.05zm85.454 2.09c-.599.457-1.203.906-1.812 1.349l1.272 1.357c.642-.466 1.278-.94 1.91-1.422l-1.37-1.285zm-3.96 2.889a107.8 107.8 0 01-1.561 1.07l1.072 1.504c.549-.375 1.099-.754 1.642-1.134l-1.153-1.44zm-3.768 2.532c-.668.43-1.346.86-2.024 1.28l.847 1.642a104.27 104.27 0 002.13-1.344l-.953-1.578zm-74.567-.634l-3.072 1.54c.082.462.173.92.283 1.367l3.06-1.61a22.209 22.209 0 01-.271-1.297zm.39 1.764l-3.05 1.641c.114.444.248.878.394 1.307l3.03-1.704a21.842 21.842 0 01-.375-1.244zm.878 2.57l-3.004 1.773c.166.393.344.777.532 1.152l2.976-1.833a18.172 18.172 0 01-.504-1.093zm61.559 2.998c-.627.311-1.254.617-1.881.919l.22 1.984a114.6 114.6 0 001.982-.964l-.321-1.939zm-60.775-1.376l-2.963 1.865c.215.398.448.791.691 1.175L15.139 91a16.878 16.878 0 01-.658-1.116zm57.89 2.766c-.663.306-1.33.608-2 .905l.06 2.062c.705-.31 1.41-.631 2.11-.955l-.17-2.012zm-6.45 2.752l-.18 2.158c.743-.288 1.484-.585 2.226-.892l.069-2.116a103.7 103.7 0 01-2.115.85zm-47.787-.832l-2.766 2.117c.33.306.673.603 1.03.89l2.711-2.161a19.266 19.266 0 01-.975-.846zm2.138 1.72l-2.651 2.207c.362.252.737.498 1.122.732l2.591-2.246a25.067 25.067 0 01-1.062-.694zm35.805 2.349l-.715 2.34c.746-.201 1.493-.411 2.24-.63l.599-2.304a81.06 81.06 0 01-2.124.594zm-34.188-1.33l-2.565 2.267c.371.21.751.416 1.14.612l2.51-2.294a24.946 24.946 0 01-1.085-.586zm31.285 2.057l-.875 2.377c.678-.16 1.356-.32 2.038-.498l.764-2.35c-.645.164-1.286.32-1.927.47zm-4.221.845l-1.104 2.423a72.897 72.897 0 002.097-.388l.993-2.405c-.663.133-1.327.256-1.986.37zm-2.68.403l-1.25 2.445a64.53 64.53 0 002.062-.296l1.14-2.433c-.65.106-1.306.201-1.951.284zm-16.82-.443l-2.153 2.422a41.53 41.53 0 001.63.329l2.07-2.441a30.712 30.712 0 01-1.548-.31zm3.314.584l-1.973 2.455c.453.06.907.11 1.373.156l1.9-2.46a34.815 34.815 0 01-1.3-.151zm4.39.348c-.41-.014-.814-.027-1.212-.05l-1.804 2.468c.42.023.846.041 1.277.055l.462.009 1.713-2.468-.435-.014zm81.795-73.466a20.675 20.675 0 00-8.51-9.834 20.718 20.718 0 00-12.707-2.815 50.5 50.5 0 00-7.875.406 99.606 99.606 0 00-62.406 38.713C11.782 76.38 17.808 95.082 40.897 95.79c23.08.708 54.604-16.837 70.277-39.115a34.204 34.204 0 007.779-29.039zm-8.901 29.002C94.806 78.32 64.12 95.398 41.662 94.708c-22.467-.691-28.337-18.89-13.09-40.57a96.025 96.025 0 0162.845-37.893 47.58 47.58 0 015.554-.17 20.7 20.7 0 0111.744 2.448 20.662 20.662 0 018.407 8.547c3.186 7.452 1.057 18.017-7.07 29.57z" fill="#71FFA9"/><path d="M119.783 56.94l-.547-.017-2.56-.079-2.7-.083c-1.269 1.758-2.582 3.52-4.054 5.261l2.471.4 2.332.376.486.078c1.657-1.964 3.143-3.95 4.572-5.936zm-11.232 6.695l-.659.737 2.347.544 2.215.51.466.105.747-.834-.483-.097-2.251-.474-2.382-.491zm-1.995 2.212l-1.618 1.694 2.154.737 2.039.694.44.149 1.837-1.922-.457-.132-2.136-.597-2.259-.623zm-14.98 13.219l-2.03 1.448 1.222 1.51 1.151 1.448.255.316 2.295-1.641-.282-.299-1.274-1.36-1.337-1.422zm-3.498 2.458l-1.037.702-1.046.676 1.002 1.659.95 1.58.21.342 1.187-.764 1.16-.79-.228-.325-1.072-1.5-1.126-1.58zm15.337-12.464c-.196.188-.375.376-.572.558l2.025.858 1.922.815.417.176c.219-.207.426-.42.644-.631l-.418-.168-1.956-.783-2.062-.825zM73.14 90.082l-.94.456.176 2.107.167 2.018.035.44 1.064-.51-.044-.43-.229-1.984-.228-2.097zm-2.83 1.298l-1.098.492-1.108.448-.07 2.23-.062 2.115-.017.465 1.248-.518 1.24-.553-.01-.439-.061-2.062-.061-2.177zm-4.202 1.748l-.73.272-.501 4.942.826-.308.035-.474.185-2.159.184-2.273zm35.146-22.016a111.06 111.06 0 01-7.974 6.672l1.444 1.356 1.37 1.287.295.278a126.119 126.119 0 009.02-7.552l-.392-.193-1.832-.9-1.931-.948zM84.085 84.114a109.51 109.51 0 01-9.168 5.108l.34 2.039.322 1.937.071.425a124.72 124.72 0 0010.354-5.775l-.185-.362-.846-1.646-.888-1.726z" fill="#71FFA9"/><path d="M65.38 93.404c-2.199.853-4.382 1.55-6.55 2.217l-.629 2.422-.599 2.305-.13.504c2.446-.75 4.92-1.544 7.405-2.506l.503-4.942zm-8.55 2.771c-.306.083-.613.175-.919.242l-.808 2.478-.766 2.352-.165.506c.338-.075.687-.181 1.04-.278l.15-.497.715-2.337.753-2.466zm-2.734.68c-.713.181-1.397.293-2.1.445l-1.054 2.542-.995 2.404-.21.506c.794-.168 1.573-.303 2.377-.507l.186-.504.873-2.377.923-2.51zm-18.008 1.442l-2.018 2.609-1.903 2.462-.398.513c.642.085 1.325.112 2.001.147l.371-.508 1.802-2.469 1.912-2.618c-.595-.034-1.2-.057-1.767-.136zm-2.894-.4l-2.193 2.586-2.068 2.438-.431.508c.626.101 1.233.227 1.88.297l.415-.516 1.971-2.453 2.087-2.595c-.573-.063-1.105-.176-1.66-.265zm16.933-.257l-.694.122-1.204 2.572-1.143 2.423-.238.509.774-.123.229-.509 1.099-2.423 1.177-2.572zM24.06 94.62l-2.725 2.361-2.593 2.247-.563.492.598.333.545-.474 2.567-2.273 2.708-2.388-.536-.298zm-2.08-1.485l-2.866 2.282-2.716 2.16-.58.464c.393.335.807.645 1.24.929l.566-.472 2.651-2.21 2.798-2.33a10.42 10.42 0 01-1.094-.823zm-1.25-1.105l-2.935 2.213-2.787 2.097-.606.457.369.342.597-.456 2.77-2.116 2.91-2.22-.317-.316zm26.867 5.995c-2.712.37-5.448.528-8.184.47l-1.819 2.62-1.715 2.472-.358.516a60.092 60.092 0 009.239-.531l.262-.512 1.25-2.445 1.325-2.59zm-21.986-2.548l-2.637 2.416-2.506 2.297-.542.497a30.18 30.18 0 006.926 2.411l.451-.507 2.152-2.421 2.28-2.567a26.375 26.375 0 01-6.124-2.126z" fill="#71FFA9"/><path d="M18.212 88.983L15.14 91l-2.928 1.922-.644.422a19.533 19.533 0 002.835 3.453l.604-.454 2.785-2.099 2.936-2.211a17.501 17.501 0 01-2.516-3.05zm-.877-1.559l-3.132 1.93-2.977 1.835-.65.4c.084.196.181.386.292.569l.65-.41 2.964-1.862 3.109-1.956a5.221 5.221 0 01-.256-.506zm-.956-2.276l-3.183 1.791-3.032 1.703-.669.377.528 1.414.668-.395 3.006-1.773 3.148-1.861-.466-1.255zm-.529-11.972l-3.225 1.08-3.068 1.018-.66.22-.307 1.799.685-.246 3.077-1.115 3.226-1.167.273-1.589zm.654-2.788l-3.19.906-3.026.86-.652.187c-.197.63-.313 1.231-.463 1.848l.656-.205 3.05-.953 3.218-1.006c.13-.546.23-1.077.407-1.637zm-.592 13.146l-3.209 1.694-3.059 1.606-.677.36.132.5.668-.36 3.05-1.641 3.218-1.72-.123-.44zm5.275-24.069l-2.919.246-2.76.229-.571.052-.484.843.589-.053 2.778-.28 2.945-.282.422-.755zm1.987-3.265l-2.796.053-2.637.044-.572.009-1.24 1.983.572-.026 2.708-.15 2.866-.149 1.099-1.764zm1.478-2.177l-2.699-.087-2.567-.08-.545-.017-.448.667.536.009 2.585.044 2.734.044.404-.58zm-9.213 22.079l-3.247 1.25-3.087 1.19-.668.256a26.86 26.86 0 00.25 7.007l.67-.337 3.073-1.542 3.235-1.623a24.002 24.002 0 01-.226-6.201zm4.575-14.474l-2.99.377-2.826.355-.59.075a54.442 54.442 0 00-3.473 8.205l.655-.168 3-.772 3.151-.811a48.876 48.876 0 013.073-7.26z" fill="#71FFA9"/><path d="M23.412 47.904c-1.657 1.964-3.142 3.95-4.572 5.937l.547.017 2.56.078 2.7.083c1.273-1.763 2.585-3.524 4.055-5.261l-2.471-.4-2.332-.376-.487-.078zm2.292-2.658l-.747.834.475.105 2.26.465 2.373.492.668-.738-2.347-.535-2.216-.518-.466-.105zm3.352-3.59l-1.838 1.922.458.132 2.136.597 2.25.632 1.627-1.703-2.154-.729-2.04-.702-.44-.15zm17.395-14.668l-2.294 1.642.281.298 1.275 1.36 1.336 1.423 2.03-1.449-1.212-1.518-1.16-1.44-.256-.316zm4.019-2.694l-1.186.763-1.17.799.238.325 1.072 1.5 1.125 1.572 1.029-.694 1.055-.675-1.002-1.668-.959-1.571-.202-.351zM31.417 39.313c-.219.207-.426.419-.635.627l.415.166 1.956.783 2.06.826c.192-.183.371-.37.572-.558l-2.026-.856-1.925-.812-.417-.176zm34.63-23.63l-1.063.5.044.43.228 1.984.229 2.098.94-.448-.175-2.115-.168-2.01-.035-.439zm4.623-2.028l-1.249.51-1.239.552.009.448.061 2.063.062 2.168 1.099-.492 1.107-.448.07-2.229.062-2.115.018-.457zm3.078-1.22l-.826.307-.035.474-.185 2.16-.184 2.273.73-.272.228-2.291.22-2.186.052-.465zm-31.512 17.64a126.321 126.321 0 00-9.017 7.547l.393.193 1.83.903 1.929.95a111.387 111.387 0 017.977-6.677l-1.445-1.353-1.372-1.286-.295-.277zm20.737-12.918a125.56 125.56 0 00-10.352 5.77l.187.363.845 1.648.885 1.728a109.242 109.242 0 019.168-5.108l-.34-2.038-.323-1.939-.07-.424z" fill="#71FFA9"/><path d="M81.16 9.928c-2.452.749-4.917 1.539-7.41 2.506l-.05.47-.22 2.177-.234 2.295c2.202-.859 4.382-1.55 6.549-2.217l.632-2.423.602-2.306.13-.502zm3.291-.901c-.338.075-.687.182-1.036.273l-.153.502-.716 2.337-.753 2.466c.306-.082.616-.18.922-.247l.805-2.473.766-2.35.165-.508zm4.437-.999c-.794.168-1.575.303-2.374.502l-.187.509-.875 2.377-.92 2.504c.71-.176 1.398-.293 2.1-.444l1.05-2.538.996-2.404.21-.506zm15.97-1.282l-.375.514-1.802 2.469-1.911 2.618c.593.034 1.199.057 1.769.131l2.015-2.605 1.904-2.46.396-.514c-.641-.085-1.324-.112-1.996-.153zm3.386.308l-.414.516-1.973 2.453-2.083 2.59c.574.063 1.102.181 1.661.264l2.189-2.58 2.069-2.439.43-.507c-.625-.1-1.233-.226-1.879-.297zm-16.467.456l-.773.132-.229.5-1.099 2.423-1.169 2.563.677-.105 1.213-2.572L91.54 8.02l.237-.51zm28.063 3.214l-.536.482-2.567 2.265-2.708 2.387.536.299 2.726-2.361 2.593-2.247.563-.483-.607-.342zm1.732 1.081l-.57.475-2.651 2.21-2.798 2.332c.382.25.748.525 1.094.823l2.865-2.282 2.715-2.163.585-.466c-.404-.318-.796-.646-1.24-.93zm2.284 1.832l-.598.457-2.769 2.115-2.909 2.23.316.307 6.321-4.766-.361-.343zm-20.75-6.964a59.38 59.38 0 00-9.242.535l-.262.513-1.251 2.445-1.325 2.59c2.715-.37 5.455-.53 8.194-.476l1.812-2.615 1.713-2.472.361-.52zm8.664 1.009l-.449.507-2.153 2.42-2.277 2.563a26.342 26.342 0 016.121 2.132l2.638-2.418 2.506-2.297.542-.496a29.631 29.631 0 00-6.928-2.41zm12.453 6.302l-6.326 4.763c.954.916 1.798 1.94 2.517 3.05l3.072-2.018 2.929-1.924.646-.424a19.823 19.823 0 00-2.838-3.447zm3.538 4.633l-.653.411-2.964 1.865-3.11 1.956c.101.156.17.336.259.502l3.129-1.927 2.979-1.837.651-.401a5.547 5.547 0 00-.291-.569zm.843 1.726l-.677.395-2.998 1.782-3.156 1.861.475 1.247 3.182-1.791 3.033-1.703.668-.377-.527-1.414zm1.431 13.141l-.686.245-3.077 1.115-3.226 1.168-.272 1.588L126 36.53l3.059-1.028.668-.219.308-1.8zm-.584 3.106l-.653.205-3.051.955-3.219 1.005c-.131.546-.23 1.078-.408 1.637l3.191-.906 3.027-.861.652-.185c.195-.63.316-1.237.461-1.85zm.074-13.499l-.668.36-3.059 1.633-3.209 1.72.123.439 3.209-1.685 3.059-1.615.677-.36-.132-.492zm-5.353 26.851l-.589.052-2.778.272-2.945.29-.43.755 2.927-.246 2.751-.228.581-.044.483-.851zm-1.474 2.545l-.571.036-2.708.14-2.866.158-1.099 1.756 2.787-.044 2.646-.044.563-.009 1.248-1.992zm-2.465 3.793l-.545-.01-2.585-.052-2.733-.044-.396.588 2.699.079 2.558.079.554.018.448-.659zm9.703-31.304l-.668.335-3.075 1.543-3.235 1.623c.344 2.049.42 4.133.226 6.201l3.248-1.252 3.088-1.19.67-.26a26.785 26.785 0 00-.254-7zm-1.445 15.159l-.656.169-3.002.774-3.151.813a48.93 48.93 0 01-3.068 7.255l2.989-.375 2.825-.357.591-.073a54.755 54.755 0 003.472-8.206zM95.732 18.476c-.027-.124-.151-.188-.316-.197l-.064.005c-.222.017-.434.1-.609.238L42.785 57.544c-.155.11-.28.258-.361.43a.284.284 0 00.054.342l15.486 12.82a.405.405 0 00.224.068.894.894 0 00.307-.05l32.49-11.347a1.54 1.54 0 00.516-.325.809.809 0 00.248-.434l3.988-40.5-.005-.073zm-2.715 2.381l-17.83 25.346L45.533 56.51l47.485-35.654zM44.324 57.874l29.985-10.429L58.64 69.72 44.324 57.874zM59.79 69.755l15.673-22.277L89.82 59.272 59.79 69.755zm30.745-11.858L76.342 46.234l17.833-25.35-3.64 37.013z" fill="#71FFA9"/><path d="M88.783 62.55a.913.913 0 00-.313.055L56.348 73.824 41.023 61.147a.358.358 0 00-.22-.068 1.104 1.104 0 00-.576.182.911.911 0 00-.504.7l2.907 30.703c.01.141.12.228.298.233a1.11 1.11 0 00.604-.206l45.072-29.23c.311-.206.513-.494.476-.7-.019-.133-.133-.206-.297-.21zm-47.485.8l13.795 11.416-11.209 15.932-2.586-27.348zm3.735 27.39l11.209-15.937 28.932-10.104-40.14 26.04z" fill="#71FFA9"/></svg>