<svg width="125" height="71" fill="none" xmlns="http://www.w3.org/2000/svg"><path d="M124.238 39.788l-2.626 13.63c-1.639 8.5-13.135 14.92-32.17 16.343-29.602 2.215-66.232-8.49-81.816-23.91a17.881 17.881 0 01-5.364-6.938 17.855 17.855 0 01-1.417-8.65l2.627-13.63a17.856 17.856 0 001.418 8.65 17.883 17.883 0 005.364 6.938c15.583 15.42 52.214 26.125 81.814 23.91 19.036-1.423 30.532-7.842 32.17-16.343z" fill="#37AB65"/><path d="M35.639.29c29.604-2.214 66.235 8.49 81.818 23.911 15.584 15.422 4.216 29.717-25.389 31.93-29.6 2.215-66.231-8.49-81.814-23.91C-5.33 16.798 6.04 2.503 35.64.29z" fill="#3CAE6A"/><path d="M100.965 25.435C90.193 14.775 64.782 7.35 44.322 8.88c-20.463 1.53-28.348 11.447-17.575 22.108 10.771 10.66 36.183 18.086 56.646 16.555 20.459-1.53 28.344-11.447 17.572-22.107z" fill="#49D581"/><path d="M122.726 31.12l-.233-.44c-.151-.278-.312-.552-.476-.836a22.972 22.972 0 00-.948-1.43c-.165-.239-.339-.48-.522-.719a29.716 29.716 0 00-2.23-2.614 40.876 40.876 0 00-.856-.878h-.004a53.01 53.01 0 00-8.768-6.871A128.254 128.254 0 0051.511.262a130.52 130.52 0 00-2.66-.142c-.87-.042-1.745-.069-2.61-.092-.902-.018-1.8-.027-2.692-.027-.632 0-1.264.004-1.896.018l-.215.005a113.25 113.25 0 00-3.768.132l-.17.01c-.618.036-1.24.077-1.854.123a83.342 83.342 0 00-9.817 1.294C7.32 5.24-.726 14.773 5.222 25.744c.302.557.645 1.125 1.02 1.692l.01.013a28.675 28.675 0 002.737 3.46c.266.293.541.58.83.874l.435.439a42.595 42.595 0 002.518 2.294 53.786 53.786 0 004.45 3.383l.005.006c.586.397 1.181.79 1.795 1.183l.004.005a81.45 81.45 0 006.896 3.917l.004.005A134.773 134.773 0 0073.52 55.958c.449.036.893.072 1.337.105 5.73.452 11.484.475 17.216.068l.087-.008a87.326 87.326 0 006.69-.755l.525-.083c.239-.036.472-.077.705-.118a62.323 62.323 0 001.809-.33c.279-.054.554-.114.829-.169l.101-.023c.228-.045.457-.096.682-.146h.004l.436-.1a64.294 64.294 0 001.868-.462h.008c.5-.137.985-.274 1.466-.412h.009c14.404-4.265 20.356-12.75 15.434-22.405zm-3.809 13.025l-.027.031-.074.097a37.66 37.66 0 01-25.553 10.23c-.847.088-1.717.165-2.6.23a85.17 85.17 0 01-2.656.164c-27.623 1.303-60.73-8.686-75.07-22.877C.038 19.256 6.572 7.306 27.06 3.045a79.166 79.166 0 019.995-1.362c.436-.032.88-.059 1.319-.087 27.88-1.696 61.83 8.384 76.404 22.808 7.344 7.264 8.388 14.269 4.139 19.74z" fill="#49D280"/><path d="M114.777 24.404C100.204 9.98 66.253-.1 38.374 1.596c-.44.028-.883.055-1.318.087a79.162 79.162 0 00-9.995 1.362C6.57 7.306.038 19.257 12.936 32.02c14.34 14.191 47.447 24.18 75.07 22.877a83.332 83.332 0 002.656-.165 87.465 87.465 0 002.6-.228 37.656 37.656 0 0025.553-10.231l.074-.097.027-.031c4.249-5.472 3.206-12.477-4.139-19.741zm-2.999 6.405l.288.654c.191.425.355.862.491 1.308l-3.736-.352c-.125-.41-.273-.81-.444-1.203l-.275-.604c-.096-.2-.22-.406-.326-.607l3.649.15c.115.215.248.434.353.654zm-4.395-5.851c.59.617 1.204 1.234 1.712 1.86l-3.471.105c-.462-.576-1.034-1.147-1.579-1.719l-.206-.188 3.324-.264.22.206zm-6.479-5.157l.92.617.879.626c.596.416 1.136.842 1.671 1.266l-3.108.453c-.5-.393-.994-.786-1.543-1.17l-.81-.58-.852-.568 2.843-.644zm-8.645-4.773a77.171 77.171 0 014.442 2.24l-2.514.841c-1.323-.709-2.664-1.408-4.107-2.066l2.18-1.015zm-10.205-4.019l.412.137c1.236.421 2.464.846 3.654 1.304l-1.703 1.211a92.455 92.455 0 00-3.375-1.207l-.384-.124 1.396-1.32zM71.441 8.074c1.863.43 3.717.883 5.54 1.395l-1.008 1.435c-1.684-.47-3.397-.891-5.118-1.289l.586-1.541zm-5.97-1.179l-.124 1.636a109.287 109.287 0 00-5.233-.768l-.311-1.696c1.886.238 3.777.499 5.668.828zM48.855 5.322c1.268.005 2.563.069 3.864.128l.857 1.746c-1.196-.054-2.395-.114-3.572-.118l-.39-.009-1.19-1.756.431.01zm-7.958.22c.847-.05 1.69-.11 2.541-.151l1.575 1.75c-.792.038-1.575.092-2.357.138-.756.073-1.534.128-2.28.215L38.43 5.77c.805-.092 1.643-.151 2.467-.23zm-7.395.95l2.322 1.669a46.578 46.578 0 00-3.937.9l-2.646-1.59a51.904 51.904 0 014.261-.979zm-11.244 3.713c.696-.393 1.483-.745 2.266-1.097l3.022 1.462c-.733.325-1.456.65-2.097 1.015l-.224.12-3.205-1.373.238-.127zm-2.807 1.787l3.407 1.244a14.809 14.809 0 00-1.964 1.824l-3.572-1.093a15.826 15.826 0 012.129-1.975zm-4.226 5.404c.137-.384.325-.764.504-1.147l3.686.919c-.165.352-.335.704-.462 1.06a8.38 8.38 0 00-.317 1.093l-3.75-.741c.082-.403.195-.799.34-1.184zm-.12 6.117a13.21 13.21 0 01-.365-1.81l3.768.498c.068.566.18 1.125.339 1.673l.064.192-3.731-.348-.074-.205zm1.933 3.995l-.434-.662-.363-.659 3.654.156.335.608.398.607c.27.422.562.83.875 1.221l-3.517.05c-.33-.443-.683-.882-.948-1.32zm6.396 6.68a38.987 38.987 0 01-2.957-2.583l3.328-.26a34.07 34.07 0 002.734 2.385l-3.105.457zm7.688 5.02l-.338-.183-1.457-.832c-.48-.28-.934-.567-1.392-.85l2.752-.7c.43.26.843.525 1.287.786l1.346.768.306.17-2.504.84zM40.11 43.4c-.82-.334-1.653-.663-2.44-1.015l-1.195-.522-1.163-.54 2.183-1.005 1.076.498 1.1.48c.732.325 1.5.627 2.261.938L40.11 43.4zm10.787 3.602c-.907-.257-1.818-.508-2.706-.787a86.385 86.385 0 01-2.665-.845l1.405-1.317c.807.266 1.622.535 2.455.777.829.26 1.667.494 2.514.731l-1.003 1.44zm11.483 2.546l-.444-.077-1.003-.174-.998-.192c-.673-.133-1.341-.252-2.005-.398l.457-1.573c.614.137 1.227.247 1.845.37l.93.179.925.16.411.068-.118 1.637zm8.177 1.089c-.939-.097-1.882-.193-2.824-.307l-.294-1.696c.866.105 1.735.196 2.606.283.856.069 1.73.165 2.582.215l.723 1.733c-.92-.05-1.858-.151-2.793-.228zm11.259.466c-.884 0-1.758.027-2.665.004l-1.177-1.755c.839.022 1.64-.005 2.464-.005.815-.01 1.607-.05 2.412-.073l1.58 1.75c-.87.023-1.725.07-2.614.079zm2.143-3.004c-21.057 1.577-47.206-6.066-58.286-17.034C14.59 20.098 22.702 9.894 43.76 8.322c21.052-1.578 47.196 6.066 58.28 17.033 11.085 10.967 2.972 21.171-18.08 22.744zm10.013 1.87l-.796.146-.815.128c-.554.078-1.09.174-1.663.238l-2.055-1.705c.535-.06 1.025-.151 1.534-.22l.76-.12.727-.136.33-.06 2.33 1.665-.352.064zm6.346-1.572c-.655.196-1.287.406-1.974.589l-2.641-1.595c.632-.165 1.213-.362 1.818-.545.567-.2 1.158-.393 1.698-.608l2.94 1.495c-.591.234-1.227.439-1.841.664zm6.731-3.118c-.477.282-.907.584-1.429.85l-3.21-1.372c.49-.242.884-.525 1.323-.786.417-.275.807-.557 1.186-.841l3.417 1.238c-.417.307-.839.613-1.287.91zm4.871-4.989l-.462.787-.549.76-3.608-1.044.508-.703.421-.727.1-.16 3.691.91-.101.178zm1.081-3.588a7.188 7.188 0 01-.188 1.212l-3.75-.741c.087-.37.143-.746.169-1.125.014-.188.041-.375.041-.567l-.013-.576 3.772.558.019.627c-.004.205-.036.406-.05.612z" fill="#3FC976"/><path d="M102.038 25.355C90.953 14.388 64.81 6.745 43.758 8.322 22.7 9.894 14.587 20.098 25.672 31.065 36.752 42.033 62.9 49.676 83.957 48.1c21.052-1.573 29.165-11.777 18.081-22.744zM83.394 47.542c-20.466 1.53-45.877-5.894-56.646-16.555C15.974 20.327 23.859 10.411 44.32 8.88c20.46-1.532 45.872 5.898 56.641 16.559 10.773 10.656 2.889 20.576-17.568 22.104zm23.988-22.587l-3.339.25c.548.572 1.119 1.143 1.583 1.72l3.47-.11c-.511-.622-1.121-1.242-1.714-1.86z" fill="#71FFA9"/><path d="M108.329 39.2l-.097.166 3.684.922.105-.176-3.692-.913zm-.551-9.196c.106.203.23.407.324.608l.273.604c.173.391.322.793.446 1.203l3.737.35a11.66 11.66 0 00-.492-1.305l-.288-.654c-.107-.218-.236-.438-.353-.657l-3.647-.15zm1.478 4.901l.018.577c-.003.193-.027.378-.043.568a7.192 7.192 0 01-.17 1.121l3.751.743c.097-.397.159-.803.188-1.21.014-.207.043-.409.048-.615l-.015-.626-3.777-.558z" fill="#71FFA9"/><path d="M108.233 39.366l-.422.72-.51.711 3.604 1.036.554-.755.457-.79-3.683-.922zM91.994 48.24l-.334.062 2.312 1.668.351-.062-2.33-1.668zm12.926-5.11c-.381.285-.769.568-1.185.84-.44.262-.836.543-1.323.786l3.21 1.372c.522-.263.95-.568 1.428-.85.448-.295.87-.602 1.286-.91l-3.416-1.238zm-5.701 3.107c-.54.216-1.13.407-1.697.611-.607.18-1.185.378-1.819.542l2.644 1.594c.683-.181 1.315-.394 1.973-.588.612-.221 1.249-.429 1.838-.662l-2.94-1.497z" fill="#71FFA9"/><path d="M91.665 48.303l-.728.135-.76.116c-.51.07-1 .162-1.531.22L90.7 50.48c.57-.061 1.106-.159 1.659-.238l.817-.126.797-.146-2.309-1.667zm-29.577-.457l-.15 1.623.44.08.123-1.633-.413-.07zM77.97 49.35l1.178 1.756c.906.024 1.782-.004 2.667-.005.888-.01 1.743-.052 2.615-.077l-1.58-1.749c-.807.023-1.597.062-2.412.072-.826 0-1.629.027-2.467.003zm-10.533-.714l.295 1.694c.941.114 1.884.211 2.823.309.934.076 1.875.175 2.795.228l-.726-1.735c-.85-.05-1.723-.144-2.581-.212-.868-.09-1.74-.181-2.606-.284z" fill="#71FFA9"/><path d="M58.389 47.134l-.456 1.572c.663.148 1.332.265 2 .4l1 .192 1.006.174.148-1.63-.925-.161-.926-.176c-.618-.125-1.236-.232-1.847-.37zM33.32 38.199l-2.537.827.34.182 2.504-.843-.308-.166zm13.612 5.855l-1.404 1.315c.88.292 1.76.577 2.663.845.89.279 1.8.532 2.71.786l1-1.44a78.853 78.853 0 01-2.512-.728 79.693 79.693 0 01-2.457-.778zm-9.436-3.736l-2.184 1.007 1.164.54 1.195.521c.787.352 1.62.679 2.44 1.012l1.82-1.165c-.757-.308-1.53-.61-2.258-.937l-1.102-.48-1.075-.498z" fill="#71FFA9"/><path d="M30.687 36.64l-2.754.701c.462.282.911.573 1.394.85l1.456.834 2.536-.826-1.343-.771c-.449-.258-.858-.525-1.289-.787zm-15.58-13.126l.07.202 3.737.35-.07-.192-3.737-.36zm8.698 7.83l-3.328.26c.942.91 1.93 1.773 2.96 2.585l3.102-.457a34.915 34.915 0 01-2.734-2.388zm-7.56-5.156l.362.657.43.663c.269.438.621.88.952 1.32l3.514-.05a14.66 14.66 0 01-.876-1.22l-.397-.609-.333-.607-3.652-.154z" fill="#71FFA9"/><path d="M14.742 21.703c.077.612.2 1.217.367 1.81l3.737.362a10.808 10.808 0 01-.336-1.673l-3.768-.499zm7.514-11.496l-.238.123 3.21 1.37.219-.115-3.191-1.378zm-6.53 6.043c-.176.381-.364.76-.503 1.147a8.02 8.02 0 00-.339 1.185l3.752.738c.08-.37.184-.735.313-1.091.13-.36.3-.71.465-1.06l-3.688-.919zm3.725-4.257a15.658 15.658 0 00-2.128 1.976l3.568 1.093a14.753 14.753 0 011.964-1.826l-3.404-1.243z" fill="#71FFA9"/><path d="M24.525 9.105c-.784.354-1.568.707-2.266 1.1l3.19 1.381c.643-.365 1.366-.692 2.096-1.016l-3.02-1.465zM48.426 5.31l1.186 1.763H50l-1.143-1.755-.43-.009zM33.501 6.494a50.915 50.915 0 00-4.262.978l2.648 1.589c1.26-.335 2.55-.65 3.937-.9L33.5 6.494zm7.395-.951c-.822.075-1.661.138-2.468.228l1.948 1.722c.744-.085 1.523-.14 2.28-.213.784-.046 1.563-.101 2.356-.14L43.44 5.39c-.854.043-1.694.1-2.544.153z" fill="#71FFA9"/><path d="M48.855 5.321l1.15 1.755c1.174.006 2.375.065 3.571.12l-.858-1.748c-1.297-.056-2.595-.12-3.863-.127zm33.195 5.685l-1.388 1.325.378.123 1.424-1.308-.413-.14zM59.804 6.067l.31 1.698c1.742.219 3.49.458 5.236.766l.124-1.634a118.956 118.956 0 00-5.67-.83zM71.44 8.072l-.582 1.544c1.72.399 3.434.816 5.117 1.29l1.007-1.437c-1.82-.513-3.674-.966-5.542-1.397zm11.026 3.073l-1.426 1.31c1.139.387 2.278.78 3.375 1.204l1.703-1.211a99.59 99.59 0 00-3.651-1.303zm24.702 13.606l-3.323.264.202.193 3.332-.255-.211-.202zM92.262 15.03l-2.179 1.01a71.37 71.37 0 014.104 2.07l2.513-.84a74.41 74.41 0 00-4.438-2.24zm8.641 4.772l-2.843.642.854.569.81.58c.547.383 1.043.776 1.544 1.169l3.108-.453a34.349 34.349 0 00-1.672-1.264l-.879-.628-.922-.615zM97.62 37.095a13.199 13.199 0 00-6.826-5.303 35.115 35.115 0 00-14.372-2.733 7.895 7.895 0 01-3.265-.618l-.357-.15c-1.053-.458-1.68-1.08-1.63-1.615.046-.498.66-.869 1.644-.987 4.317-.517 7.014-2.14 7.22-4.343.334-3.685-6.323-7.882-14.835-9.358a32.099 32.099 0 00-7.773-.439c-4.73.352-8.05 1.975-8.275 4.443-.2 2.227 2.162 4.741 6.324 6.726.87.416 1.364.946 1.323 1.416l-.028.288c-.045.508-.714.865-1.749.942l-.206.019a7.627 7.627 0 01-3.145-.512 34.759 34.759 0 00-14.445-2.268 10.095 10.095 0 00-7.79 3.132c-1.08 1.728-.292 3.794 2.227 5.82a31.607 31.607 0 0018.13 5.367c.623-.01 1.223-.033 1.8-.074 4.487-.338 7.555-1.783 8.173-3.917.137-.503.833-.851 1.845-.928l.38-.028a7.867 7.867 0 013.493.608c.976.42 1.58.979 1.626 1.495.192 2.272 2.88 4.74 7.198 6.61a34.787 34.787 0 0015.457 2.67c2.03-.086 4.02-.584 5.851-1.463 2.207-1.188 2.917-2.893 2.006-4.8zm-2.99 4.375a13.807 13.807 0 01-5.407 1.354A32.11 32.11 0 0174.93 40.35c-3.993-1.724-6.483-4.014-6.657-6.107-.065-.691-.87-1.431-2.166-1.994a10.512 10.512 0 00-4.656-.809l-.38.027c-1.351.101-2.271.559-2.464 1.221-.567 1.975-3.401 3.31-7.55 3.621-.535.041-1.098.064-1.675.068a29.218 29.218 0 01-16.763-4.96c-2.326-1.874-3.054-3.785-2.055-5.38a9.327 9.327 0 017.201-2.894 32.095 32.095 0 0113.361 2.093c1.346.523 2.788.755 4.231.681l.206-.017c1.401-.101 2.312-.595 2.372-1.277l.027-.288c.055-.64-.614-1.357-1.804-1.924-3.842-1.833-6.03-4.156-5.843-6.218.207-2.285 3.274-3.785 7.657-4.11a29.67 29.67 0 017.178.408c7.875 1.362 14.033 5.248 13.722 8.65-.183 2.043-2.679 3.542-6.675 4.022-1.305.155-2.125.644-2.189 1.308-.064.722.774 1.545 2.175 2.153l.357.155c1.373.577 2.852.856 4.34.819a32.54 32.54 0 0113.292 2.528 12.246 12.246 0 016.319 4.905c.842 1.765.183 3.338-1.86 4.44z" fill="#71FFA9"/></svg>