<svg width="100" height="71" fill="none" xmlns="http://www.w3.org/2000/svg"><path d="M98.673 55.37l-5.928 10.72c-3.524 6.374-17.545 6.554-36.63-.586C30.825 56.044 6.079 37.263.948 23.639a9.567 9.567 0 01-.077-8.141L6.8 4.778a9.568 9.568 0 00.076 8.141c5.13 13.624 29.879 32.405 55.168 41.865 19.085 7.14 33.105 6.96 36.63.585z" fill="#37AB65"/><path d="M43.433 5.363c25.29 9.46 50.034 28.24 55.164 41.866 5.131 13.624-11.264 17.014-36.553 7.555-25.29-9.46-50.038-28.241-55.168-41.865C1.746-.707 18.144-4.096 43.433 5.363z" fill="#71FFA9"/><path d="M96.303 46.37C91.421 33.406 67.957 15.599 43.898 6.599 19.835-2.403 4.286.81 9.168 13.776c4.882 12.965 28.345 30.77 52.409 39.771 24.06 9 39.609 5.789 34.726-7.176z" fill="#49D581"/><path d="M98.597 47.23a24.833 24.833 0 00-.256-.645 25.274 25.274 0 00-1.296-2.638 37.32 37.32 0 00-1.254-2.044 55.528 55.528 0 00-7.17-8.516 114.276 114.276 0 00-18.86-14.78A144.985 144.985 0 0051.127 8.53a122.588 122.588 0 00-4.831-2.053 102.47 102.47 0 00-2.862-1.116l-.407-.15a90.432 90.432 0 00-2.903-1.028 84.301 84.301 0 00-2.285-.751A64.493 64.493 0 0018.811 0a29.54 29.54 0 00-2.157.087 16.85 16.85 0 00-6.69 1.71 8.381 8.381 0 00-1.872 1.33h-.004A6.725 6.725 0 006.8 4.777a7.468 7.468 0 00-.85 4.083c.017.352.059.713.114 1.083a14.163 14.163 0 00.586 2.355h.005c.068.206.141.411.22.622.315.83.68 1.64 1.093 2.427 6.919 13.349 30.256 30.525 54.073 39.435a71.286 71.286 0 0025.196 5.354c.207-.005.417-.01.619-.019l.173-.009c.225-.01.45-.023.665-.041.197-.01.394-.028.58-.046l.477-.05.38-.046a5.28 5.28 0 00.403-.055c.12-.014.233-.032.343-.055a7.73 7.73 0 00.486-.082 7.88 7.88 0 00.49-.1c.115-.019.224-.046.33-.073.141-.028.279-.064.411-.101l.166-.046c.127-.032.255-.064.38-.105.182-.05.36-.11.535-.17l.032-.008.357-.133.147-.055a8.56 8.56 0 00.504-.206l.274-.123.055-.028.283-.137.014-.01c.106-.05.206-.104.307-.163l.362-.206.174-.115c.096-.059.188-.123.28-.187l.132-.096.275-.206.036-.027.27-.229.055-.05.088-.077.205-.197.078-.078.247-.27.056-.063c.087-.101.174-.206.251-.316l.179-.247.028-.046.054-.068.042-.069.023-.037c.054-.09.114-.182.164-.278a9.512 9.512 0 00-.05-8.183zM61.58 53.548C39.09 45.135 17.126 29.035 10.363 16.38a21.862 21.862 0 01-1.195-2.605 7.922 7.922 0 011.493-9.628h.005a8.823 8.823 0 012.046-1.263c.852-.378 1.74-.669 2.651-.868a24.612 24.612 0 015.655-.521c1.354.016 2.706.1 4.052.252 2.257.262 4.498.648 6.712 1.156 1.365.31 2.77.672 4.226 1.084a105.324 105.324 0 017.784 2.57l.105.04c.64.243 1.282.485 1.923.74 1.103.435 2.202.882 3.296 1.354a138.07 138.07 0 0119.378 10.213 70.426 70.426 0 0127.81 27.466c4.88 12.965-10.668 16.18-34.725 7.178z" fill="#71FFA9"/><path d="M87.59 48.084l-9.565-3.575-5.984-15.905-18.424 3.809L39.67 21.83 25.816 11.315l3.686 9.783 2.303 6.117-9.56-3.575-.01-.005.156.197c.105.133.215.26.325.393l.01.005 10.136 3.79-2.573-6.826-3.164-8.407 11.891 9.024 14.858 11.273 17.719-3.666 5.737 15.238 10.132 3.79.01.004c.033-.08.062-.16.086-.243l.041-.118-.01-.005zm-1.753 2.528l-13.292-4.974-4.016-10.66-12.934 2.679-19.527-14.822 4.015 10.661-13.292-4.969-.018-.01.16.156.558.521.018.01L41.14 34.3l-3.763-9.989 18.47 14.016 12.235-2.532 3.763 9.989 13.626 5.097.019.01.284-.211.077-.064-.013-.005z" fill="#71FFA9"/><path d="M88.436 44.491l-.004-.018-.027-.096-.019-.074-.037-.118-.031-.096-.019-.064-.046-.15-.013-.042-.05-.142-.01-.032-.06-.164-.013-.041-.064-.174a13.7 13.7 0 00-.357-.87 33.842 33.842 0 00-6.91-9.371c-.178-.183-.361-.36-.544-.544a73.932 73.932 0 00-4.176-3.794 96.168 96.168 0 00-9.28-6.854 107.676 107.676 0 00-3.091-1.942l-.079-.05c-.54-.325-1.08-.65-1.63-.97-.819-.475-1.648-.944-2.486-1.408-.562-.306-1.126-.613-1.69-.91a105.419 105.419 0 00-12.229-5.518 82.345 82.345 0 00-4.084-1.416 58.043 58.043 0 00-2.22-.668h-.005a62.902 62.902 0 00-3.127-.818 55.399 55.399 0 00-1.86-.398 35.377 35.377 0 00-1.55-.284c-.637-.11-1.26-.2-1.864-.273a25.75 25.75 0 00-8.146.1l-.233.05-.005.005a6.366 6.366 0 00-5.17 3.36 6.343 6.343 0 00.115 6.157c.283.74.615 1.459.994 2.154a29.926 29.926 0 003.168 4.65 52.37 52.37 0 004.661 4.969 103.612 103.612 0 0029.317 18.72c1.442.618 2.894 1.198 4.34 1.742 1.443.54 2.85 1.026 4.222 1.458a27.75 27.75 0 0022.527.673 5.267 5.267 0 001.836-2.538 7.34 7.34 0 00-.05-4.2zM87.6 48.09l-.042.119a5.058 5.058 0 01-1.708 2.41l-.077.063-.284.21a26.195 26.195 0 01-20.008-.36l-.037-.01a79.571 79.571 0 01-3.705-1.184c-.425-.15-.855-.302-1.29-.462l-.11-.04-.12-.046-.15-.056-.101-.036-.252-.092-.252-.095-.101-.037-.15-.06-.124-.045-.11-.045a91.485 91.485 0 01-3.338-1.354 50.77 50.77 0 01-1.108-.48A101.156 101.156 0 0127.49 29.194l-.558-.521-.16-.155a52.308 52.308 0 01-4.057-4.293c-.11-.132-.22-.26-.325-.393l-.156-.197a33.69 33.69 0 01-.53-.68c-.18-.23-.349-.458-.513-.686a18.93 18.93 0 01-.477-.677c-.261-.375-.498-.74-.723-1.107a18.435 18.435 0 01-.522-.886 5.239 5.239 0 01-.197-.366 14.81 14.81 0 01-.467-.928l-.01-.019-.086-.187-.027-.069-.037-.086-.064-.138-.023-.059-.05-.123-.019-.046-.064-.16-.019-.04-.064-.17c-2.05-5.45.49-8.718 6.19-9.5l.01-.005h.005c4.32-.383 8.675.03 12.847 1.216h.005a77.02 77.02 0 018.36 2.624 106.25 106.25 0 0117.376 8.458 58.584 58.584 0 0123.992 22.936l.064.169.014.041.054.16.014.037.042.123.018.055.041.137.023.069.023.082.046.151.009.037c.089.308.162.62.22.936a6.7 6.7 0 01-.096 3.155z" fill="#71FFA9"/><path d="M44.482 9.047l-.311-.114-.76-.275.123.29.207.474 1.035.375-.294-.75zm-1.9-.077l-.343-.718c-.334-.114-.668-.228-.998-.334l.408.787c.265.087.526.173.792.265l.169.059-.027-.06zm7 2.116c-.37-.16-.745-.32-1.121-.476l.157.696c.361.15.718.302 1.08.457l-.115-.677zm-8.84-3.333l-.925-.292.458.8c.293.096.595.188.893.288l-.426-.796zm10.393 4.01c-.343-.151-.686-.306-1.035-.453l.096.668c.335.141.665.288.999.439l-.06-.654zm1.213.549l.019.635c.352.16.7.325 1.053.489l.023-.613c-.361-.174-.728-.342-1.095-.511zm1.498.704l-.037.608c.353.164.706.338 1.054.507l.077-.59c-.361-.174-.728-.352-1.094-.526zM35.087 6.148c-.352-.087-.705-.17-1.049-.247a53.525 53.525 0 00-6.363-1.06 27.065 27.065 0 00-7.756.205l-.124.023 1.168.892a17.009 17.009 0 011.858-.275 39.689 39.689 0 0112.894 1.312l-.628-.85zm30.636 13.358a121.085 121.085 0 00-5.691-3.324l-.257.494c1.75.96 3.462 1.957 5.138 2.99a104.585 104.585 0 0112.54 8.979l.912-.05a107.702 107.702 0 00-12.642-9.089zM44.171 8.933c-.21.004-.425.014-.636.014l.206.475 1.035.375-.294-.75-.311-.114zm-1.73.037l.169.059-.027-.06h-.142zm-22.87-3.85a16.12 16.12 0 00-.582.142l1.195.882c.183-.05.37-.095.563-.137L19.57 5.12zm-1.195.32c-.174.055-.34.11-.504.17l1.236.868.485-.164-1.217-.874zm-.747.261c-.146.059-.297.123-.44.187l.665.453.6.406.393-.168h.004l.024-.01-1.246-.868zM78.76 28.93l-.925.042c.251.215.503.429.746.644l.952-.019c-.257-.223-.513-.447-.773-.667zm1.652 1.445l-.98-.01c.252.23.5.453.742.677l1.012.037c-.257-.233-.513-.471-.774-.704zm1.053.965l-1.021-.046c.242.228.48.452.719.681l1.043.064c-.241-.233-.494-.467-.74-.7zM15.244 7.095a7.356 7.356 0 00-.335.306l1.342.805c.105-.1.21-.2.325-.297l-1.333-.814zm-.669.668a3.948 3.948 0 00-.22.27l1.36.782.21-.261-1.35-.791zm-.494.667a4.704 4.704 0 00-.206.356l1.378.755c.064-.115.129-.233.201-.343l-1.373-.768zm71.293 26.872l-1.158-.183c.187.211.37.416.554.627l1.181.21c-.188-.22-.38-.435-.576-.654zm1.218 1.409l-1.204-.238c.146.174.284.342.426.516l1.218.256a20.874 20.874 0 00-.44-.534zm1.026 1.28l-1.241-.284c.17.215.33.43.485.64l1.26.306a22.34 22.34 0 00-.504-.663zM13.253 10.76a6.801 6.801 0 00-.046.467l1.4.668.047-.448-1.401-.687zm-.056.64c-.004.16-.009.32-.004.486l1.405.644a8.23 8.23 0 010-.466l-1.401-.664zm1.429 1.66l-1.402-.621c.014.16.033.32.056.484l1.4.609a8.695 8.695 0 01-.054-.472zm75.483 28.62l-1.333-.416c.105.182.206.36.302.54l1.337.433c-.096-.187-.201-.37-.306-.557zM14.717 13.77l-1.396-.6c.027.184.064.367.106.55l1.391.58a11.975 11.975 0 01-.101-.53zm75.854 28.755l-1.346-.443.28.558 1.354.466a21.711 21.711 0 00-.288-.581zm.59 1.24l-1.368-.485c.082.187.16.379.237.567l1.374.507c-.078-.192-.155-.389-.242-.59zm-75.72-27.467l-1.373-.508c.077.197.155.393.242.59l1.364.485c-.082-.192-.16-.38-.234-.567zm.526 1.207l-1.354-.462.288.576 1.341.44a14.98 14.98 0 01-.275-.554zm76.078 28.92l-1.396-.58c.04.178.073.352.105.525l1.397.6a8.115 8.115 0 00-.106-.545zM16.471 18.483l-.077-.141-1.337-.435.095.178.211.38 1.328.416a8.648 8.648 0 01-.22-.398zM92.192 47.22l-1.401-.607c.023.155.041.31.055.466l1.4.626a8.96 8.96 0 00-.054-.485zm-1.318.393c.004.161.004.316 0 .467l1.4.663c.01-.16.01-.32.005-.485l-1.405-.645zm-.01.636a4.778 4.778 0 01-.046.453l1.406.685a8.06 8.06 0 00.041-.466l-1.401-.672zm-72.26-26.456l-1.258-.302c.16.22.33.44.499.663l1.24.283c-.164-.215-.325-.43-.48-.644zm1.16 1.5l-.11-.138-1.223-.256.119.142.32.393 1.205.233-.312-.375zm.928 1.1l-1.181-.204c.192.215.38.434.578.65l1.157.186c-.187-.21-.37-.42-.554-.631zm69.535 26.215c-.064.114-.127.233-.201.343l1.374.768c.073-.114.142-.233.206-.357l-1.379-.754zm-.462.727c-.069.087-.137.178-.21.26l1.354.796.216-.275-1.36-.781zm-.535.613c-.102.1-.206.2-.321.296l1.332.82c.115-.102.229-.207.335-.312l-1.346-.804zM24.698 28.55c-.137-.124-.265-.252-.398-.38l-1.048-.068.412.393.33.31 1.02.046-.316-.3zm.587.553l-1.012-.037c.256.234.512.472.773.704l.985.01c-.251-.224-.5-.453-.746-.677zm1.588 1.426l-.948.019c.253.224.508.448.77.667l.924-.041-.746-.645zM87.04 53.415c-.137.06-.274.123-.42.178l1.25.869c.146-.06.292-.123.434-.187l-1.264-.86zM28 31.495l-.911.054c.284.242.572.48.866.722l.879-.077c-.28-.234-.56-.467-.834-.7zm58.386 22.19a7.16 7.16 0 01-.48.164l1.221.878c.17-.055.34-.114.5-.174l-1.24-.868zm-1.071.343l-.56.137 1.182.886c.197-.045.39-.09.578-.14l-1.2-.883zm-.774.183a35.139 35.139 0 01-14.77-1.048l.626.851a36.441 36.441 0 0015.316 1.087l-1.172-.89zm-31.436-7.008a115.73 115.73 0 01-21.121-12.531l-.765.168a120.056 120.056 0 0021.904 12.997l-.018-.634zm2.17.969l-.998-.44.054.654 1.04.453-.097-.667zm9.93 3.716a44.211 44.211 0 01-.901-.288l.425.795c.312.101.624.201.935.298l-.458-.805zm-8.35-3.045a98.234 98.234 0 01-1.081-.457l.114.676c.376.161.747.317 1.122.472l-.156-.69zm6.972 2.602c-.32-.106-.64-.215-.96-.325l.37.777c.334.115.664.224.998.334l-.408-.786zm-2.096-.718a67.24 67.24 0 01-1.03-.38l.293.75c.357.133.714.26 1.066.389l-.33-.76zm31.885-5.362l-2.13-.797-1.378-.515-.207-.078c.22.581.399 1.176.537 1.78l.21.088 1.398.58 2.158.897a14.737 14.737 0 00-.588-1.955z" fill="#71FFA9"/><path d="M90.54 46.282l.036.237.211.096 1.407.606 2.162.94-.035-.264-2.171-.922-1.398-.605-.211-.088zm.09.702c.02.18.025.357.03.53l.215.1 1.404.644 2.172.997a7.016 7.016 0 00-.035-.582l-2.169-.968-1.403-.625-.213-.096zm-.811 3.85c-.083.13-.169.258-.261.382l.207.119 1.363.783 2.109 1.212c.102-.136.197-.278.289-.42L91.4 51.72l-1.373-.769-.21-.117zm-.467.643a7.493 7.493 0 01-.322.348l.203.12 1.343.806L92.656 54c.125-.124.239-.253.353-.382l-2.097-1.228-1.356-.793-.204-.119zm1.305-3.501l-.01.175.22.097 1.398.667 2.172 1.036.008-.185-2.17-1.026-1.399-.659-.22-.105zm-4.239 5.477l-.247.079.211.149 1.24.869 1.899 1.334.264-.096-1.917-1.326-1.248-.869-.202-.14zm-.723.247a3.33 3.33 0 01-.588.172l.21.153 1.2.883 1.827 1.343c.22-.046.438-.109.65-.187l-1.867-1.337-1.221-.875-.211-.152zm-1.15.306l-.202.052.202.15 1.169.895 1.785 1.352.228-.053-1.793-1.352-1.178-.886-.211-.158zm6.062-5.411a5.517 5.517 0 01-.59 1.896l.21.116 1.38.756 2.136 1.17a6.24 6.24 0 00.65-2.088l-2.17-1.06-1.401-.685-.215-.105zm-1.899 3.525a7.143 7.143 0 01-.871.617 7 7 0 01-1.005.533l.21.144 1.263.86 1.932 1.315a7.119 7.119 0 001.105-.585c.337-.204.658-.431.961-.68l-2.061-1.264-1.332-.815-.202-.125zm-24.468-.65l-.484-.159.07.132.405.79.624 1.203.519.166-.642-1.211-.422-.79-.07-.132zm-1.433-.466l-1.134-.404.062.123.325.764.51 1.167 1.24.439-.572-1.194-.369-.781-.062-.114zm-2.154-.772l-.378-.132.756 2.001.413.14-.449-1.14-.298-.755-.044-.114zm9.016 2.792l-2.237-.583-2.298-.678.07.124.459.804.705 1.238 2.528.745c.825.22 1.64.428 2.463.642l-.961-1.304-.628-.85-.101-.138zm-12.841-4.299l.026.116.153.694.234 1.06.955.398c.314.127.629.246.944.37l1.887.735-.754-2.002-1.716-.668c-.287-.114-.573-.222-.861-.337l-.868-.366zm-1.575-.661l.017.105.097.667.15 1.036.544.228-.175-1.036-.115-.676-.017-.114-.501-.21zm-2.151-.966l.009.105.008.632.027.974 1.274.571-.088-.992-.061-.658-.009-.105-1.16-.527zm-21.31-12.701l-.132.026-.783.167-1.178.237.352.272 1.17-.254.764-.176.123-.026-.316-.246z" fill="#71FFA9"/><path d="M28.983 32.178l-.152.014-.88.079-1.342.12c.505.408.995.817 1.515 1.225l1.574 1.214 1.181-.244.776-.16.136-.029-1.435-1.105c-.47-.371-.914-.744-1.373-1.114zm-1.209-1.012l-.158.01-.923.043-1.415.061.413.352 1.398-.08.905-.06h.15l-.37-.326zm-1.587-1.385l-.16-.001-.981-.01-1.51-.016c.29.273.61.55.929.822l1.457-.027.951-.019.159-.003a23.816 23.816 0 01-.845-.746zm-5.934-6.076l-.18-.036-1.203-.235-1.859-.364c.22.264.444.53.675.796l1.826.323 1.18.207.178.032a44.263 44.263 0 01-.617-.723zm-.977-1.225l-.19-.043-1.24-.282-1.917-.436c.201.26.406.523.618.784l1.885.395 1.22.256.186.039c-.196-.24-.381-.477-.562-.713zm5.904 6.378l-.167-.009-1.02-.044-1.565-.07.3.272 1.546.062 1.011.035h.167l-.272-.246zm-8.728-10.726l-.211-.07-1.336-.448-2.084-.685.159.307 2.074.676 1.336.43.211.062-.15-.272zm-.567-1.192l-.21-.076-1.364-.486-2.112-.752c.101.23.207.462.32.697l2.096.718 1.352.463.207.07c-.102-.213-.2-.426-.289-.634zm-.311-.766l-.211-.079-1.38-.518-2.128-.798.088.228 2.127.781 1.372.51.21.078-.078-.202zm5.848 8.878l-.175-.028-1.157-.184-1.796-.287a65.33 65.33 0 003.34 3.442l1.62.108 1.046.07.16.01a59.39 59.39 0 01-3.038-3.13zm-4.528-6.109l-.204-.063-1.328-.414-2.051-.638a32.039 32.039 0 002.091 3.19l1.942.471 1.258.306.192.046a29.529 29.529 0 01-1.9-2.898z" fill="#71FFA9"/><path d="M11.272 12.826c.086.322.15.634.252.961l.332.994 2.13.797 1.374.514.21.078-.3-.903c-.096-.3-.153-.583-.227-.874l-.223-.093-1.394-.58-2.154-.894zm-.146-.839l.035.264 2.162.921 1.398.597.22.097-.035-.237-.229-.097-1.398-.605-2.153-.94zm-.099-1.097l.027.58 2.171.965 1.398.632.22.097-.027-.536-.22-.097-1.406-.649-2.163-.992zm1.213-4.073l-.29.422 2.128 1.194 1.37.763.212.114.255-.377-.202-.114-1.354-.781-2.119-1.22zm.581-.667l-.351.387 2.1 1.228 1.354.79.211.123.308-.36-.193-.114-1.337-.798-2.092-1.256zm-1.776 4.047l-.018.184L13.2 11.4l1.397.668.229.105.009-.176-.229-.105-1.398-.667-2.162-1.027zm4.895-5.942l-.246.105 1.934 1.343 1.248.86.176.132.228-.097-.176-.123-1.23-.86-1.934-1.36zm1.183-.367c-.233.05-.432.126-.645.191l1.896 1.36 1.22.875.18.129c.192-.068.388-.125.586-.172l-.174-.128-1.197-.882-1.866-1.373zm.841-.204l-.22.061 1.83 1.378 1.177.878.167.132.211-.053-.167-.123-1.17-.886-1.828-1.387zm-6.226 3.932L11.5 8.1c-.063.169-.114.345-.174.515a7.11 7.11 0 00-.248 1.084l2.173 1.062 1.4.685.213.104c.049-.334.124-.663.225-.984.054-.156.096-.318.16-.467l.214-.44-.212-.117-1.378-.755-2.136-1.17zm3.492-3.063c-.196.08-.387.172-.571.278-.179.102-.375.193-.54.304-.33.206-.643.437-.937.691l2.063 1.267 1.33.816.2.123a7.13 7.13 0 01.85-.63c.151-.1.33-.183.494-.275.165-.098.338-.184.517-.255l-.185-.127-1.26-.858-1.96-1.334zm25.384 2.151c-.18-.062-.354-.122-.526-.174l.655 1.223.425.794.065.12c.156.048.319.103.478.159l-.063-.122-.407-.788-.627-1.212zm2.29.786c-.42-.154-.828-.295-1.237-.431l.572 1.192.373.776.059.124c.368.122.744.25 1.123.39l-.053-.12-.33-.76-.507-1.17zm1.537.556l-.413-.15.448 1.15.3.747.043.123.378.131-.044-.114-.281-.737-.43-1.15zm-5.329-1.823c-.86-.277-1.69-.504-2.535-.751-.418-.12-.823-.219-1.233-.328-.413-.107-.829-.222-1.223-.31l.967 1.313.627.85.096.13c.36.08.736.185 1.11.283.374.099.74.187 1.123.297.765.225 1.518.427 2.302.682l-.072-.126-.458-.804-.704-1.236z" fill="#71FFA9"/><path d="M44.444 8.048l.432 1.147.28.743.041.111 1.718.664c.574.225 1.152.469 1.725.7l-.024-.108-.153-.693-.235-1.067c-.633-.255-1.268-.522-1.9-.77l-1.884-.727zm4.966 1.999l.176 1.036.114.676.018.105.492.22-.009-.105-.097-.668-.149-1.027-.545-.237zm1.636.712l.096 1 .053.659.009.096 1.17.527-.01-.097-.017-.632-.018-.974-1.283-.58zm2.431 1.123l-.035.94-.026.614v.096l.387.185v-.097l.044-.605.052-.94-.422-.193zm1.583.75l-.119.91-.076.59-.012.087c.819.413 1.64.806 2.452 1.238.407.213.81.42 1.219.636l1.213.66.038-.076.259-.494.399-.764-1.333-.724c-.443-.234-.891-.465-1.342-.7-.89-.472-1.796-.909-2.697-1.363zm24.721 15.884l-1.415.079-.914.052-.132.009.378.316h.14l.924-.044 1.433-.061-.414-.351zm1.231 1.053l-1.477.026-.958.018h-.132l.844.746.14.009.985.008 1.53.018-.932-.825zm6.76 6.709l-1.823-.323-1.18-.21-.181-.032c.208.242.436.488.62.725l.18.035 1.204.236 1.863.365c-.209-.262-.456-.531-.683-.796zm1.142 1.36l-1.88-.394-1.22-.255-.188-.04c.197.24.394.48.562.714l.191.043 1.242.282 1.914.435a17.89 17.89 0 00-.621-.785zm-6.16-6.506l-1.565-.053-1.011-.035-.15-.009.264.255h.15l1.02.044 1.582.07-.29-.272zm9.731 11.773l-2.068-.669-1.34-.433-.206-.066c.053.089.101.182.143.277l.21.068 1.346.445 2.072.683a4.68 4.68 0 00-.157-.305zm.458.912l-2.084-.713-1.356-.464-.216-.074c.11.218.211.43.292.634l.216.078 1.367.488 2.1.75a7.088 7.088 0 00-.32-.7zm.577 1.315l-2.118-.782-1.371-.5-.22-.088.088.21.211.08 1.38.518 2.128.798-.097-.236zM83.825 32.15l-1.618-.106-1.046-.07-.158-.009.809.781.773.782.387.395.352.386.73.781.158.026 1.16.185 1.802.29-.79-.852-.397-.43-.421-.43-.844-.87-.897-.86zm6.24 6.976l-1.943-.471-1.258-.306-.19-.046c.197.252.352.493.525.737.162.242.349.493.498.731.294.477.627.966.872 1.428l.209.065 1.33.414 2.044.636c-.274-.51-.63-1.044-.957-1.569-.167-.265-.369-.54-.55-.806-.192-.27-.367-.538-.58-.813z" fill="#71FFA9"/></svg>