<svg width="804" height="824" fill="none" xmlns="http://www.w3.org/2000/svg"><g opacity=".5" stroke-opacity=".35" stroke-width="2"><path opacity=".034" d="M102.516 631.362c3.823 4.556 9.597 7.395 17.224 8.539 7.635 1.145 17.064.58 28.077-1.621 22.026-4.403 50.181-15.306 82.564-31.781 64.753-32.941 146.216-88.053 229.021-157.534 82.804-69.482 151.225-140.137 194.91-198.186 21.848-29.031 37.474-54.864 45.635-75.791 4.08-10.464 6.274-19.651 6.472-27.369.197-7.71-1.595-13.889-5.418-18.446-3.824-4.556-9.598-7.394-17.225-8.538-7.635-1.146-17.064-.581-28.077 1.621-22.026 4.402-50.18 15.306-82.564 31.78-64.753 32.942-146.216 88.053-229.021 157.535-82.804 69.481-151.224 140.136-194.91 198.185-21.847 29.031-37.474 54.864-45.634 75.791-4.08 10.464-6.274 19.652-6.472 27.37-.198 7.709 1.594 13.889 5.418 18.445z" stroke="url(#paint0_linear_72_13)"/><path opacity=".069" d="M125.538 659.613c4.206 4.205 10.206 6.53 17.903 7.005 7.706.475 17.05-.909 27.83-4.062 21.558-6.306 48.655-19.621 79.48-38.856 61.635-38.459 137.985-100.461 214.419-176.895 76.433-76.434 138.435-152.783 176.895-214.419 19.234-30.825 32.55-57.922 38.855-79.48 3.153-10.78 4.538-20.124 4.062-27.829-.474-7.698-2.799-13.698-7.005-17.903-4.205-4.206-10.205-6.53-17.902-7.005-7.706-.476-17.05.909-27.83 4.062-21.558 6.305-48.655 19.621-79.48 38.855-61.635 38.46-137.985 100.462-214.419 176.896-76.434 76.434-138.435 152.783-176.895 214.419-19.234 30.824-32.55 57.921-38.856 79.479-3.152 10.78-4.537 20.124-4.062 27.83.475 7.698 2.8 13.697 7.005 17.903z" stroke="url(#paint1_linear_72_13)"/><path opacity=".103" d="M150.664 685.763c4.556 3.823 10.735 5.616 18.445 5.418 7.718-.198 16.906-2.392 27.37-6.472 20.926-8.161 46.76-23.787 75.791-45.635 58.049-43.685 128.704-112.105 198.185-194.91 69.482-82.805 124.593-164.267 157.535-229.02 16.474-32.384 27.378-60.539 31.78-82.564 2.201-11.014 2.766-20.443 1.621-28.078-1.144-7.627-3.982-13.401-8.539-17.224-4.556-3.823-10.735-5.616-18.445-5.418-7.718.198-16.906 2.392-27.369 6.472-20.927 8.16-46.76 23.787-75.791 45.635-58.049 43.685-128.705 112.105-198.186 194.91-69.481 82.804-124.593 164.267-157.534 229.02-16.475 32.384-27.378 60.538-31.781 82.564-2.201 11.013-2.766 20.442-1.621 28.078 1.144 7.627 3.983 13.401 8.539 17.224z" stroke="url(#paint2_linear_72_13)"/><path opacity=".138" d="M177.7 709.635c4.872 3.412 11.184 4.659 18.847 3.79 7.671-.87 16.633-3.856 26.701-8.833 20.136-9.953 44.509-27.772 71.525-52.066 54.021-48.579 118.444-122.897 180.444-211.442 62-88.545 109.802-174.501 136.975-241.879 13.589-33.696 21.997-62.694 24.463-85.019 1.233-11.164.974-20.606-.832-28.112-1.804-7.499-5.135-13.003-10.007-16.415-4.872-3.411-11.184-4.659-18.847-3.79-7.672.87-16.633 3.856-26.702 8.833-20.136 9.953-44.509 27.772-71.525 52.067-54.021 48.578-118.444 122.896-180.444 211.441-62 88.546-109.802 174.502-136.974 241.879-13.59 33.697-21.998 62.694-24.464 85.02-1.233 11.163-.974 20.606.832 28.112 1.805 7.498 5.136 13.003 10.008 16.414z" stroke="url(#paint3_linear_72_13)"/><path opacity=".172" d="M206.441 731.072c5.151 2.974 11.548 3.666 19.106 2.133 7.566-1.535 16.234-5.291 25.83-11.127 19.192-11.67 41.919-31.545 66.715-58.102 49.581-53.102 107.282-132.751 161.329-226.363C533.468 344 573.596 254.205 594.793 184.716c10.601-34.753 16.45-64.373 16.961-86.828.255-11.229-.826-20.613-3.28-27.933-2.451-7.312-6.249-12.506-11.399-15.48-5.151-2.974-11.548-3.666-19.106-2.132-7.567 1.535-16.234 5.29-25.83 11.126-19.192 11.67-41.919 31.545-66.715 58.102-49.582 53.102-107.282 132.752-161.329 226.364-54.047 93.612-94.175 183.407-115.372 252.897-10.601 34.752-16.45 64.372-16.961 86.828-.255 11.228.826 20.612 3.279 27.932 2.451 7.313 6.249 12.506 11.4 15.48z" stroke="url(#paint4_linear_72_13)"/><path opacity=".207" d="M236.669 749.935c5.39 2.513 11.823 2.646 19.219.459 7.404-2.189 15.711-6.686 24.762-13.335 18.101-13.299 39.01-35.079 61.397-63.696 44.765-57.221 95.304-141.597 140.986-239.563 45.683-97.966 77.832-190.917 92.892-261.99 7.532-35.544 10.777-65.561 9.328-87.976-.724-11.207-2.618-20.462-5.701-27.54-3.079-7.071-7.315-11.914-12.705-14.427-5.391-2.514-11.824-2.646-19.219-.46-7.404 2.19-15.711 6.686-24.762 13.336-18.102 13.298-39.01 35.078-61.398 63.695-44.764 57.221-95.303 141.597-140.986 239.563-45.682 97.967-77.832 190.917-92.891 261.99-7.532 35.544-10.777 65.561-9.329 87.976.724 11.208 2.619 20.462 5.701 27.54 3.079 7.071 7.316 11.914 12.706 14.428z" stroke="url(#paint5_linear_72_13)"/><path opacity=".241" d="M268.153 766.104c5.589 2.034 12.009 1.605 19.186-1.218 7.185-2.825 15.069-8.029 23.506-15.442 16.873-14.826 35.804-38.346 55.612-68.805 39.607-60.905 82.6-149.364 119.57-250.939 36.971-101.575 60.897-196.974 69.705-269.089 4.405-36.065 5.021-66.25 1.625-88.454-1.698-11.102-4.392-20.156-8.08-26.939-3.683-6.775-8.326-11.23-13.915-13.265-5.589-2.034-12.008-1.605-19.186 1.218-7.184 2.825-15.068 8.03-23.505 15.442-16.874 14.826-35.804 38.346-55.612 68.805-39.607 60.905-82.6 149.364-119.57 250.939-36.971 101.575-60.897 196.974-69.705 269.089-4.405 36.065-5.021 66.251-1.625 88.454 1.698 11.102 4.392 20.156 8.08 26.939 3.683 6.775 8.325 11.231 13.914 13.265z" stroke="url(#paint6_linear_72_13)"/><path opacity=".276" d="M300.655 779.476c5.745 1.54 12.103.553 19.006-2.885 6.912-3.441 14.311-9.312 22.07-17.432 15.518-16.24 32.326-41.32 49.404-73.39 34.148-64.125 69.268-155.995 97.245-260.405 27.977-104.411 43.497-201.532 45.986-274.14 1.245-36.312-.771-66.437-6.09-88.26-2.659-10.911-6.132-19.696-10.397-26.132-4.26-6.429-9.273-10.462-15.018-12.002-5.745-1.539-12.103-.552-19.007 2.885-6.911 3.442-14.311 9.313-22.07 17.433-15.517 16.24-32.326 41.32-49.404 73.39-34.148 64.125-69.267 155.994-97.244 260.405-27.977 104.411-43.497 201.532-45.987 274.14-1.244 36.312.772 66.437 6.091 88.259 2.659 10.912 6.132 19.697 10.397 26.132 4.26 6.429 9.273 10.463 15.018 12.002z" stroke="url(#paint7_linear_72_13)"/><path opacity=".31" d="M333.925 789.979c5.858 1.033 12.105-.504 18.683-4.531 6.585-4.03 13.445-10.524 20.467-19.289 14.043-17.531 28.602-43.981 42.82-77.417 28.429-66.857 55.408-161.438 74.178-267.89 18.77-106.451 25.767-204.556 21.919-277.104-1.925-36.283-6.559-66.117-13.76-87.393-3.6-10.638-7.825-19.087-12.634-25.126-4.805-6.034-10.15-9.615-16.007-10.648-5.858-1.032-12.105.505-18.683 4.53-6.585 4.031-13.445 10.525-20.467 19.29-14.043 17.53-28.602 43.98-42.82 77.417-28.429 66.857-55.408 161.438-74.178 267.89-18.771 106.451-25.767 204.556-21.919 277.104 1.925 36.283 6.559 66.117 13.759 87.393 3.601 10.639 7.826 19.087 12.635 25.127 4.805 6.033 10.15 9.614 16.007 10.647z" stroke="url(#paint8_linear_72_13)"/><path opacity=".345" d="M367.712 797.554c5.925.518 12.015-1.558 18.217-6.142 6.209-4.589 12.477-11.656 18.708-21 12.462-18.688 24.66-46.306 35.909-80.854 22.494-69.08 41.127-165.653 50.548-273.335 9.421-107.683 7.841-206.024-2.316-277.961-5.079-35.977-12.296-65.293-21.323-85.86-4.514-10.285-9.46-18.333-14.777-23.93-5.312-5.592-10.949-8.694-16.874-9.212-5.925-.519-12.015 1.557-18.217 6.141-6.209 4.59-12.477 11.656-18.708 21-12.461 18.688-24.659 46.306-35.909 80.854-22.494 69.081-41.127 165.653-50.548 273.336-9.421 107.682-7.841 206.023 2.316 277.96 5.079 35.977 12.296 65.294 21.324 85.861 4.513 10.285 9.459 18.333 14.776 23.93 5.312 5.591 10.949 8.693 16.874 9.212z" stroke="url(#paint9_linear_72_13)"/><path opacity=".379" d="M401.758 802.168c5.948 0 11.834-2.599 17.613-7.706 5.785-5.113 11.413-12.699 16.806-22.551 10.785-19.702 20.53-48.278 28.726-83.675 16.387-70.778 26.533-168.607 26.533-276.701 0-108.094-10.146-205.923-26.533-276.701-8.196-35.397-17.941-63.974-28.726-83.676-5.393-9.852-11.021-17.438-16.806-22.55-5.779-5.108-11.665-7.707-17.613-7.707-5.947 0-11.833 2.599-17.612 7.706-5.785 5.113-11.413 12.7-16.806 22.551-10.786 19.703-20.531 48.279-28.726 83.676-16.388 70.778-26.533 168.607-26.533 276.701 0 108.094 10.145 205.923 26.533 276.701 8.195 35.397 17.94 63.973 28.726 83.675 5.393 9.852 11.021 17.438 16.806 22.551 5.779 5.107 11.665 7.706 17.612 7.706z" stroke="url(#paint10_linear_72_13)"/><path opacity=".414" d="M435.804 803.809c5.925-.518 11.562-3.62 16.874-9.211 5.317-5.598 10.263-13.646 14.777-23.93 9.027-20.568 16.244-49.884 21.323-85.861 10.157-71.937 11.738-170.278 2.317-277.961-9.421-107.682-28.055-204.255-50.549-273.335-11.249-34.548-23.447-62.166-35.909-80.854-6.231-9.344-12.499-16.41-18.708-21-6.202-4.584-12.292-6.66-18.217-6.142-5.925.519-11.562 3.62-16.874 9.212-5.317 5.598-10.263 13.646-14.776 23.93-9.028 20.567-16.245 49.884-21.324 85.861-10.157 71.937-11.737 170.278-2.316 277.96 9.421 107.683 28.054 204.255 50.548 273.336 11.25 34.548 23.448 62.166 35.909 80.853 6.231 9.345 12.499 16.412 18.708 21.001 6.202 4.584 12.292 6.66 18.217 6.141z" stroke="url(#paint11_linear_72_13)"/><path opacity=".448" d="M469.591 802.488c5.857-1.033 11.203-4.614 16.007-10.647 4.809-6.04 9.034-14.488 12.635-25.126 7.2-21.277 11.834-51.111 13.759-87.393 3.848-72.549-3.148-170.653-21.919-277.105-18.77-106.452-45.749-201.033-74.178-267.89-14.218-33.436-28.777-59.886-42.82-77.416-7.022-8.766-13.882-15.26-20.467-19.29-6.577-4.026-12.825-5.563-18.683-4.53-5.857 1.032-11.202 4.614-16.006 10.647-4.81 6.04-9.035 14.488-12.635 25.127-7.201 21.276-11.835 51.11-13.76 87.392-3.848 72.549 3.149 170.653 21.919 277.105 18.77 106.451 45.749 201.033 74.179 267.89 14.217 33.436 28.776 59.886 42.819 77.416 7.022 8.766 13.882 15.259 20.467 19.29 6.578 4.026 12.826 5.563 18.683 4.53z" stroke="url(#paint12_linear_72_13)"/><path opacity=".483" d="M502.861 798.238c5.745-1.54 10.758-5.573 15.018-12.002 4.265-6.436 7.738-15.22 10.397-26.132 5.319-21.823 7.335-51.947 6.09-88.259-2.489-72.608-18.009-169.73-45.986-274.14-27.977-104.411-63.096-196.281-97.245-260.406-17.077-32.069-33.886-57.15-49.403-73.39-7.759-8.12-15.159-13.99-22.071-17.432-6.903-3.438-13.261-4.424-19.006-2.885-5.745 1.54-10.758 5.573-15.018 12.002-4.265 6.436-7.738 15.22-10.397 26.132-5.319 21.823-7.335 51.947-6.09 88.259 2.489 72.608 18.009 169.73 45.986 274.14 27.977 104.411 63.097 196.281 97.245 260.406 17.077 32.069 33.886 57.15 49.404 73.389 7.759 8.121 15.158 13.992 22.07 17.433 6.903 3.437 13.261 4.424 19.006 2.885z" stroke="url(#paint13_linear_72_13)"/><path opacity=".517" d="M535.363 791.117c5.589-2.034 10.231-6.489 13.914-13.264 3.688-6.784 6.382-15.837 8.08-26.939 3.397-22.203 2.78-52.389-1.625-88.455-8.808-72.114-32.734-167.513-69.704-269.088-36.971-101.575-79.964-190.035-119.571-250.939-19.808-30.46-38.738-53.98-55.612-68.805-8.437-7.413-16.321-12.617-23.505-15.443-7.177-2.822-13.597-3.251-19.186-1.217s-10.232 6.49-13.915 13.265c-3.688 6.783-6.382 15.837-8.08 26.939-3.396 22.203-2.78 52.389 1.625 88.454 8.809 72.115 32.735 167.514 69.705 269.089 36.97 101.575 79.963 190.034 119.57 250.939 19.808 30.459 38.739 53.979 55.612 68.804 8.438 7.413 16.321 12.617 23.506 15.443 7.177 2.823 13.597 3.252 19.186 1.217z" stroke="url(#paint14_linear_72_13)"/><path opacity=".552" d="M566.847 781.202c5.39-2.513 9.626-7.356 12.705-14.427 3.083-7.079 4.977-16.333 5.702-27.54 1.448-22.415-1.797-52.432-9.329-87.976-15.06-71.073-47.209-164.024-92.892-261.99-45.682-97.966-96.221-182.342-140.986-239.563-22.387-28.617-43.295-50.397-61.397-63.696-9.051-6.65-17.358-11.146-24.762-13.335-7.396-2.187-13.828-2.054-19.219.46-5.39 2.513-9.627 7.356-12.706 14.427-3.082 7.078-4.977 16.332-5.701 27.54-1.448 22.415 1.797 52.432 9.329 87.976 15.059 71.073 47.209 164.023 92.891 261.99 45.683 97.966 96.222 182.342 140.986 239.563 22.388 28.617 43.296 50.397 61.398 63.695 9.051 6.65 17.358 11.147 24.762 13.336 7.395 2.186 13.828 2.054 19.219-.46z" stroke="url(#paint15_linear_72_13)"/><path opacity=".586" d="M597.075 768.594c5.151-2.974 8.949-8.168 11.4-15.48 2.453-7.32 3.534-16.704 3.279-27.933-.511-22.455-6.36-52.075-16.961-86.828-21.196-69.489-61.325-159.284-115.372-252.896S367.674 212.195 318.092 159.093c-24.796-26.557-47.523-46.432-66.715-58.102-9.596-5.835-18.263-9.591-25.83-11.127-7.558-1.533-13.955-.84-19.106 2.133-5.15 2.974-8.948 8.167-11.399 15.48-2.454 7.32-3.535 16.704-3.28 27.932.511 22.456 6.36 52.076 16.961 86.829 21.197 69.489 61.325 159.284 115.372 252.896s111.748 173.262 161.329 226.364c24.796 26.557 47.523 46.432 66.715 58.102 9.596 5.835 18.264 9.591 25.83 11.127 7.558 1.533 13.955.841 19.106-2.133z" stroke="url(#paint16_linear_72_13)"/><path opacity=".621" d="M625.816 753.41c4.872-3.412 8.203-8.916 10.007-16.415 1.807-7.506 2.066-16.948.833-28.112-2.466-22.325-10.875-51.323-24.464-85.019-27.173-67.378-74.974-153.334-136.975-241.879-62-88.546-126.423-162.863-180.443-211.442-27.017-24.294-51.39-42.113-71.526-52.066-10.068-4.977-19.03-7.963-26.701-8.833-7.663-.869-13.975.378-18.847 3.79-4.872 3.411-8.203 8.916-10.008 16.414-1.806 7.506-2.065 16.949-.832 28.112 2.466 22.326 10.874 51.323 24.464 85.02 27.172 67.377 74.974 153.333 136.974 241.879 62 88.545 126.423 162.863 180.444 211.441 27.017 24.295 51.39 42.114 71.525 52.067 10.069 4.976 19.03 7.963 26.702 8.833 7.663.869 13.975-.379 18.847-3.79z" stroke="url(#paint17_linear_72_13)"/><path opacity=".655" d="M652.852 735.792c4.557-3.823 7.395-9.597 8.539-17.224 1.145-7.635.58-17.064-1.621-28.078-4.402-22.026-15.306-50.18-31.78-82.564-32.942-64.753-88.053-146.215-157.535-229.02-69.481-82.805-140.136-151.225-198.185-194.91-29.031-21.848-54.865-37.475-75.791-45.635-10.464-4.08-19.652-6.274-27.37-6.472-7.71-.198-13.889 1.595-18.445 5.418-4.556 3.823-7.395 9.597-8.539 17.224-1.145 7.635-.58 17.064 1.621 28.078 4.403 22.026 15.306 50.18 31.781 82.564 32.941 64.753 88.053 146.215 157.534 229.02s140.137 151.225 198.186 194.91c29.031 21.848 54.864 37.475 75.791 45.635 10.463 4.08 19.651 6.274 27.369 6.472 7.71.198 13.889-1.595 18.445-5.418z" stroke="url(#paint18_linear_72_13)"/><path opacity=".69" d="M677.977 715.895c4.206-4.205 6.53-10.205 7.005-17.902.476-7.706-.909-17.05-4.062-27.83-6.305-21.558-19.621-48.655-38.855-79.48-38.46-61.635-100.462-137.985-176.896-214.419-76.433-76.434-152.783-138.435-214.418-176.895-30.825-19.234-57.922-32.55-79.48-38.856-10.78-3.152-20.124-4.537-27.83-4.062-7.697.475-13.697 2.8-17.903 7.005-4.205 4.206-6.53 10.206-7.005 17.903-.475 7.706.91 17.05 4.062 27.83 6.306 21.558 19.622 48.655 38.856 79.48 38.46 61.635 100.461 137.985 176.895 214.419 76.434 76.433 152.784 138.435 214.419 176.895 30.825 19.234 57.922 32.55 79.48 38.855 10.78 3.153 20.124 4.538 27.83 4.062 7.697-.474 13.697-2.799 17.902-7.005z" stroke="url(#paint19_linear_72_13)"/><path opacity=".724" d="M701.001 693.897c3.823-4.556 5.615-10.736 5.418-18.445-.198-7.718-2.392-16.906-6.473-27.37-8.16-20.927-23.787-46.76-45.634-75.791-43.685-58.049-112.106-128.704-194.91-198.185-82.805-69.482-164.268-124.593-229.021-157.535-32.384-16.474-60.538-27.378-82.564-31.78-11.013-2.202-20.442-2.767-28.077-1.621-7.627 1.144-13.401 3.982-17.224 8.538-3.824 4.557-5.616 10.736-5.418 18.446.198 7.718 2.391 16.905 6.472 27.369 8.16 20.927 23.787 46.76 45.634 75.791C192.89 371.363 261.31 442.018 344.114 511.5c82.805 69.481 164.268 124.593 229.021 157.534 32.384 16.475 60.538 27.378 82.564 31.781 11.013 2.201 20.442 2.766 28.077 1.621 7.627-1.144 13.401-3.983 17.225-8.539z" stroke="url(#paint20_linear_72_13)"/><path opacity=".759" d="M721.746 669.988c3.412-4.872 4.659-11.184 3.79-18.847-.87-7.672-3.856-16.633-8.833-26.702-9.953-20.135-27.772-44.508-52.067-71.525C616.058 498.893 541.74 434.47 453.195 372.47c-88.545-62-174.501-109.802-241.879-136.974-33.696-13.59-62.694-21.998-85.02-24.464-11.163-1.233-20.605-.974-28.112.832-7.498 1.805-13.003 5.136-16.414 10.008-3.411 4.872-4.659 11.184-3.79 18.847.87 7.672 3.856 16.633 8.833 26.701 9.953 20.136 27.772 44.509 52.067 71.526 48.578 54.02 122.896 118.443 211.441 180.444 88.545 62 174.501 109.801 241.879 136.974 33.696 13.589 62.694 21.998 85.02 24.464 11.163 1.233 20.605.974 28.112-.833 7.498-1.804 13.003-5.135 16.414-10.007z" stroke="url(#paint21_linear_72_13)"/><path opacity=".793" d="M740.056 644.373c2.974-5.151 3.667-11.547 2.133-19.106-1.535-7.566-5.291-16.233-11.126-25.83-11.67-19.191-31.546-41.918-58.103-66.715-53.101-49.581-132.751-107.282-226.363-161.329-93.612-54.046-183.407-94.175-252.897-115.372-34.752-10.601-64.372-16.449-86.828-16.96-11.228-.256-20.612.825-27.933 3.279-7.312 2.451-12.505 6.249-15.48 11.4-2.973 5.151-3.666 11.547-2.132 19.106 1.535 7.566 5.291 16.233 11.126 25.83 11.67 19.191 31.546 41.919 58.103 66.715 53.101 49.581 132.751 107.282 226.363 161.329 93.612 54.047 183.407 94.175 252.897 115.372 34.752 10.601 64.372 16.45 86.828 16.96 11.228.256 20.612-.825 27.933-3.279 7.312-2.451 12.506-6.249 15.479-11.4z" stroke="url(#paint22_linear_72_13)"/><path opacity=".828" d="M755.792 617.273c2.514-5.391 2.646-11.824.459-19.219-2.188-7.404-6.685-15.711-13.335-24.762-13.298-18.102-35.079-39.01-63.696-61.398-57.221-44.764-141.596-95.303-239.563-140.986-97.966-45.682-190.917-77.832-261.989-92.892-35.545-7.531-65.562-10.776-87.976-9.328-11.208.724-20.462 2.619-27.54 5.701-7.072 3.079-11.915 7.315-14.428 12.706-2.514 5.39-2.646 11.823-.46 19.219 2.19 7.404 6.686 15.711 13.336 24.762 13.298 18.101 35.079 39.01 63.696 61.397 57.221 44.765 141.596 95.304 239.563 140.986 97.966 45.683 190.917 77.832 261.989 92.892 35.544 7.532 65.561 10.777 87.976 9.328 11.208-.724 20.462-2.619 27.541-5.701 7.071-3.079 11.913-7.315 14.427-12.705z" stroke="url(#paint23_linear_72_13)"/><path opacity=".862" d="M768.833 588.915c2.034-5.589 1.605-12.009-1.218-19.186-2.825-7.185-8.029-15.068-15.442-23.506-14.826-16.873-38.346-35.804-68.805-55.612-60.905-39.607-149.364-82.6-250.939-119.57-101.575-36.97-196.974-60.896-269.089-69.705-36.065-4.405-66.25-5.021-88.454-1.625-11.102 1.698-20.156 4.392-26.939 8.08-6.775 3.684-11.23 8.326-13.265 13.915-2.034 5.589-1.605 12.009 1.218 19.186 2.825 7.184 8.03 15.068 15.442 23.505 14.826 16.874 38.346 35.804 68.805 55.612 60.905 39.607 149.364 82.6 250.939 119.571 101.575 36.97 196.974 60.896 269.089 69.704 36.065 4.405 66.251 5.022 88.454 1.625 11.102-1.698 20.156-4.392 26.939-8.08 6.775-3.683 11.231-8.325 13.265-13.914z" stroke="url(#paint24_linear_72_13)"/><path opacity=".897" d="M779.081 559.54c1.539-5.745.552-12.103-2.885-19.007-3.441-6.911-9.313-14.311-17.433-22.07-16.239-15.517-41.32-32.326-73.389-49.404-64.125-34.148-155.995-69.267-260.406-97.244-104.411-27.977-201.532-43.497-274.14-45.987-36.312-1.245-66.437.772-88.26 6.091-10.91 2.659-19.695 6.132-26.131 10.397-6.43 4.26-10.463 9.272-12.002 15.017-1.54 5.746-.553 12.104 2.885 19.007 3.441 6.911 9.312 14.311 17.432 22.07 16.24 15.518 41.32 32.326 73.39 49.404 64.125 34.148 155.995 69.268 260.406 97.245 104.41 27.976 201.532 43.497 274.14 45.986 36.312 1.245 66.436-.771 88.259-6.09 10.912-2.659 19.696-6.132 26.132-10.397 6.429-4.26 10.462-9.273 12.002-15.018z" stroke="url(#paint25_linear_72_13)"/><path opacity=".931" d="M786.457 529.397c1.032-5.858-.505-12.105-4.531-18.683-4.03-6.585-10.524-13.445-19.29-20.467-17.53-14.043-43.98-28.602-77.416-42.82-66.857-28.429-161.438-55.408-267.89-74.178-106.451-18.771-204.556-25.767-277.105-21.919-36.282 1.925-66.116 6.559-87.392 13.759-10.639 3.601-19.087 7.826-25.127 12.635-6.033 4.805-9.614 10.15-10.647 16.007-1.033 5.858.504 12.105 4.53 18.683 4.031 6.585 10.525 13.445 19.29 20.467 17.53 14.043 43.98 28.602 77.417 42.82 66.857 28.429 161.438 55.408 267.89 74.178 106.451 18.77 204.556 25.767 277.104 21.919 36.283-1.925 66.117-6.559 87.393-13.76 10.638-3.6 19.087-7.825 25.126-12.634 6.033-4.805 9.615-10.15 10.648-16.007z" stroke="url(#paint26_linear_72_13)"/><path opacity=".966" d="M790.904 498.736c.519-5.925-1.557-12.015-6.141-18.217-4.589-6.209-11.656-12.477-21-18.708-18.688-12.462-46.306-24.66-80.854-35.909-69.08-22.494-165.653-41.128-273.335-50.549-107.683-9.42-206.024-7.84-277.961 2.317-35.977 5.079-65.293 12.296-85.86 21.323-10.285 4.514-18.333 9.46-23.93 14.777-5.592 5.312-8.694 10.949-9.212 16.874-.519 5.925 1.557 12.015 6.141 18.217 4.59 6.209 11.656 12.477 21 18.708 18.688 12.461 46.306 24.659 80.854 35.909 69.081 22.494 165.653 41.127 273.336 50.548 107.682 9.421 206.023 7.841 277.96-2.316 35.977-5.079 65.294-12.296 85.861-21.324 10.284-4.513 18.332-9.459 23.93-14.776 5.591-5.312 8.693-10.949 9.211-16.874z" stroke="url(#paint27_linear_72_13)"/><path d="M792.391 467.817c0-5.947-2.598-11.833-7.706-17.612-5.112-5.785-12.699-11.413-22.55-16.806-19.703-10.786-48.279-20.531-83.676-28.726-70.778-16.388-168.607-26.533-276.701-26.533-108.094 0-205.923 10.145-276.701 26.533-35.397 8.195-63.973 17.94-83.676 28.726-9.851 5.393-17.438 11.021-22.55 16.806-5.108 5.779-7.706 11.665-7.706 17.612 0 5.948 2.598 11.834 7.706 17.613 5.112 5.785 12.699 11.413 22.55 16.806 19.703 10.785 48.279 20.53 83.676 28.726 70.778 16.387 168.607 26.533 276.701 26.533 108.094 0 205.923-10.146 276.701-26.533 35.397-8.196 63.973-17.941 83.676-28.726 9.851-5.393 17.438-11.021 22.55-16.806 5.108-5.779 7.706-11.665 7.706-17.613z" stroke="url(#paint28_linear_72_13)"/></g><defs><linearGradient id="paint0_linear_72_13" x1="343.472" y1="310.805" x2="460.045" y2="449.731" gradientUnits="userSpaceOnUse"><stop stop-color="#46DF83"/><stop offset="1" stop-color="#46DF83" stop-opacity="0"/></linearGradient><linearGradient id="paint1_linear_72_13" x1="337.639" y1="319.275" x2="465.877" y2="447.512" gradientUnits="userSpaceOnUse"><stop stop-color="#46DF83"/><stop offset="1" stop-color="#46DF83" stop-opacity="0"/></linearGradient><linearGradient id="paint2_linear_72_13" x1="332.295" y1="328.234" x2="471.221" y2="444.807" gradientUnits="userSpaceOnUse"><stop stop-color="#46DF83"/><stop offset="1" stop-color="#46DF83" stop-opacity="0"/></linearGradient><linearGradient id="paint3_linear_72_13" x1="327.479" y1="337.637" x2="476.036" y2="441.658" gradientUnits="userSpaceOnUse"><stop stop-color="#46DF83"/><stop offset="1" stop-color="#46DF83" stop-opacity="0"/></linearGradient><linearGradient id="paint4_linear_72_13" x1="323.229" y1="347.435" x2="480.287" y2="438.113" gradientUnits="userSpaceOnUse"><stop stop-color="#46DF83"/><stop offset="1" stop-color="#46DF83" stop-opacity="0"/></linearGradient><linearGradient id="paint5_linear_72_13" x1="319.576" y1="357.579" x2="483.94" y2="434.223" gradientUnits="userSpaceOnUse"><stop stop-color="#46DF83"/><stop offset="1" stop-color="#46DF83" stop-opacity="0"/></linearGradient><linearGradient id="paint6_linear_72_13" x1="316.549" y1="368.015" x2="486.967" y2="430.042" gradientUnits="userSpaceOnUse"><stop stop-color="#46DF83"/><stop offset="1" stop-color="#46DF83" stop-opacity="0"/></linearGradient><linearGradient id="paint7_linear_72_13" x1="314.17" y1="378.684" x2="489.346" y2="425.622" gradientUnits="userSpaceOnUse"><stop stop-color="#46DF83"/><stop offset="1" stop-color="#46DF83" stop-opacity="0"/></linearGradient><linearGradient id="paint8_linear_72_13" x1="312.458" y1="389.534" x2="491.058" y2="421.026" gradientUnits="userSpaceOnUse"><stop stop-color="#46DF83"/><stop offset="1" stop-color="#46DF83" stop-opacity="0"/></linearGradient><linearGradient id="paint9_linear_72_13" x1="311.426" y1="400.504" x2="492.091" y2="416.31" gradientUnits="userSpaceOnUse"><stop stop-color="#46DF83"/><stop offset="1" stop-color="#46DF83" stop-opacity="0"/></linearGradient><linearGradient id="paint10_linear_72_13" x1="311.081" y1="411.535" x2="492.436" y2="411.535" gradientUnits="userSpaceOnUse"><stop stop-color="#46DF83"/><stop offset="1" stop-color="#46DF83" stop-opacity="0"/></linearGradient><linearGradient id="paint11_linear_72_13" x1="311.426" y1="422.565" x2="492.091" y2="406.759" gradientUnits="userSpaceOnUse"><stop stop-color="#46DF83"/><stop offset="1" stop-color="#46DF83" stop-opacity="0"/></linearGradient><linearGradient id="paint12_linear_72_13" x1="312.458" y1="433.535" x2="491.058" y2="402.043" gradientUnits="userSpaceOnUse"><stop stop-color="#46DF83"/><stop offset="1" stop-color="#46DF83" stop-opacity="0"/></linearGradient><linearGradient id="paint13_linear_72_13" x1="314.17" y1="444.384" x2="489.346" y2="397.446" gradientUnits="userSpaceOnUse"><stop stop-color="#46DF83"/><stop offset="1" stop-color="#46DF83" stop-opacity="0"/></linearGradient><linearGradient id="paint14_linear_72_13" x1="316.549" y1="455.056" x2="486.967" y2="393.029" gradientUnits="userSpaceOnUse"><stop stop-color="#46DF83"/><stop offset="1" stop-color="#46DF83" stop-opacity="0"/></linearGradient><linearGradient id="paint15_linear_72_13" x1="319.576" y1="465.49" x2="483.94" y2="388.846" gradientUnits="userSpaceOnUse"><stop stop-color="#46DF83"/><stop offset="1" stop-color="#46DF83" stop-opacity="0"/></linearGradient><linearGradient id="paint16_linear_72_13" x1="323.229" y1="475.634" x2="480.287" y2="384.957" gradientUnits="userSpaceOnUse"><stop stop-color="#46DF83"/><stop offset="1" stop-color="#46DF83" stop-opacity="0"/></linearGradient><linearGradient id="paint17_linear_72_13" x1="327.479" y1="485.432" x2="476.037" y2="381.411" gradientUnits="userSpaceOnUse"><stop stop-color="#46DF83"/><stop offset="1" stop-color="#46DF83" stop-opacity="0"/></linearGradient><linearGradient id="paint18_linear_72_13" x1="332.295" y1="494.836" x2="471.221" y2="378.263" gradientUnits="userSpaceOnUse"><stop stop-color="#46DF83"/><stop offset="1" stop-color="#46DF83" stop-opacity="0"/></linearGradient><linearGradient id="paint19_linear_72_13" x1="337.639" y1="503.795" x2="465.877" y2="375.557" gradientUnits="userSpaceOnUse"><stop stop-color="#46DF83"/><stop offset="1" stop-color="#46DF83" stop-opacity="0"/></linearGradient><linearGradient id="paint20_linear_72_13" x1="343.472" y1="512.266" x2="460.045" y2="373.34" gradientUnits="userSpaceOnUse"><stop stop-color="#46DF83"/><stop offset="1" stop-color="#46DF83" stop-opacity="0"/></linearGradient><linearGradient id="paint21_linear_72_13" x1="349.748" y1="520.209" x2="453.769" y2="371.651" gradientUnits="userSpaceOnUse"><stop stop-color="#46DF83"/><stop offset="1" stop-color="#46DF83" stop-opacity="0"/></linearGradient><linearGradient id="paint22_linear_72_13" x1="356.419" y1="527.586" x2="447.097" y2="370.527" gradientUnits="userSpaceOnUse"><stop stop-color="#46DF83"/><stop offset="1" stop-color="#46DF83" stop-opacity="0"/></linearGradient><linearGradient id="paint23_linear_72_13" x1="363.436" y1="534.366" x2="440.08" y2="370.002" gradientUnits="userSpaceOnUse"><stop stop-color="#46DF83"/><stop offset="1" stop-color="#46DF83" stop-opacity="0"/></linearGradient><linearGradient id="paint24_linear_72_13" x1="370.744" y1="540.519" x2="432.771" y2="370.101" gradientUnits="userSpaceOnUse"><stop stop-color="#46DF83"/><stop offset="1" stop-color="#46DF83" stop-opacity="0"/></linearGradient><linearGradient id="paint25_linear_72_13" x1="378.289" y1="546.025" x2="425.227" y2="370.849" gradientUnits="userSpaceOnUse"><stop stop-color="#46DF83"/><stop offset="1" stop-color="#46DF83" stop-opacity="0"/></linearGradient><linearGradient id="paint26_linear_72_13" x1="386.012" y1="550.864" x2="417.504" y2="372.264" gradientUnits="userSpaceOnUse"><stop stop-color="#46DF83"/><stop offset="1" stop-color="#46DF83" stop-opacity="0"/></linearGradient><linearGradient id="paint27_linear_72_13" x1="393.855" y1="555.022" x2="409.661" y2="374.357" gradientUnits="userSpaceOnUse"><stop stop-color="#46DF83"/><stop offset="1" stop-color="#46DF83" stop-opacity="0"/></linearGradient><linearGradient id="paint28_linear_72_13" x1="401.758" y1="558.495" x2="401.758" y2="377.14" gradientUnits="userSpaceOnUse"><stop stop-color="#46DF83"/><stop offset="1" stop-color="#46DF83" stop-opacity="0"/></linearGradient></defs></svg>