<svg width="201" height="165" fill="none" xmlns="http://www.w3.org/2000/svg"><path d="M197.025 110.163l-6.69 17.086c-7.911 20.205-29.763 34.603-60.799 36.722-50.233 3.43-105.798-26.589-123.859-66.913a54.357 54.357 0 01-2.45-42.633l6.69-17.086a54.34 54.34 0 002.45 42.632c18.06 40.325 73.626 70.344 123.858 66.914 31.037-2.119 52.889-16.517 60.8-36.722z" fill="#37AB65"/><path d="M70.717.617c50.238-3.43 105.797 26.586 123.859 66.914 18.06 40.325-8.113 75.924-58.35 79.354-50.233 3.43-105.798-26.589-123.858-66.914C-5.692 39.643 20.485 4.047 70.718.617z" fill="#71FFA9"/><path d="M190.019 67.843C172.833 29.47 120.152 1.008 72.358 4.271 24.555 7.535-.263 41.287 16.923 79.661c17.186 38.373 69.865 66.829 117.668 63.564 47.794-3.262 72.615-37.009 55.428-75.382z" fill="#49D581"/><path d="M194.578 67.53a72.589 72.589 0 00-1.259-2.668l-.004-.005a80.805 80.805 0 00-3.347-6.104l-.005-.004a60.836 60.836 0 00-1.058-1.705l-.004-.005a91.711 91.711 0 00-5.311-7.488 72.57 72.57 0 00-1.291-1.609l-.004-.004a105.277 105.277 0 00-7.056-7.786 105.169 105.169 0 00-3.068-2.967 131.164 131.164 0 00-3.214-2.885 138.515 138.515 0 00-32.869-20.933c-1.036-.476-2.079-.94-3.128-1.39-.353-.146-.701-.297-1.058-.448a146.721 146.721 0 00-8.548-3.296h-.004a159.11 159.11 0 00-2.175-.74A134.966 134.966 0 0076.635.368c-1.979.033-3.95.117-5.916.252A86.115 86.115 0 0033.11 11.318a64.549 64.549 0 00-3.667 2.304 66.174 66.174 0 00-2.308 1.642 57.457 57.457 0 00-5.265 4.453c-.33.315-.651.632-.966.95A48.721 48.721 0 009.686 37.95c-.036.08-.067.162-.091.246-.115.302-.225.603-.326.91l-.11.31c-.132.39-.255.774-.375 1.167-.123.392-.243.795-.353 1.193l-.045.178c-.096.33-.183.654-.261.983-.03.094-.055.19-.073.288-.092.37-.179.74-.261 1.111l-.01.032c-.073.338-.142.676-.206 1.015a40.356 40.356 0 00-.467 2.775l-.013.087c-.05.36-.096.727-.132 1.092a9.89 9.89 0 00-.056.521l-.004.037c-.028.251-.051.503-.069.759l-.005.022a6.968 6.968 0 00-.036.517l-.005.027c-.022.284-.04.567-.055.851l-.009.188c-.022.375-.037.75-.045 1.124l-.01.187c-.1 4.31.306 8.618 1.213 12.833.156.731.325 1.463.513 2.199a63.132 63.132 0 001.442 4.923c.087.266.179.536.276.8a67.492 67.492 0 001.217 3.22c.215.538.444 1.078.678 1.617.114.27.238.54.357.81a77.75 77.75 0 003.104 6.185 89.034 89.034 0 004.245 6.84 95.695 95.695 0 003.635 4.95 104.91 104.91 0 006.135 7.118c.48.513.97 1.024 1.466 1.527.494.504.994 1.007 1.501 1.509a132.983 132.983 0 0032.096 22.959l.046.027h.004A147.406 147.406 0 0093.91 142.46c1.94.521 3.896 1.006 5.86 1.441h.005l.064.018.169.036a127.527 127.527 0 0036.221 2.931 78.069 78.069 0 002.088-.165c.458-.036.911-.082 1.364-.128.174-.014.348-.032.518-.055.275-.023.55-.055.824-.087.215-.023.435-.045.65-.073l.152-.018.109-.014a69.051 69.051 0 001.511-.197h.004c.491-.064.976-.132 1.457-.209l.05-.006c.243-.036.485-.073.728-.118.49-.073.98-.156 1.465-.242.293-.046.586-.101.875-.156l.6-.11.123-.022.014-.005c.444-.082.883-.174 1.323-.265l.045-.01.174-.036c.179-.036.358-.073.537-.114.251-.051.503-.105.75-.165l.087-.018c.225-.05.449-.101.669-.155.472-.106.943-.22 1.405-.339.49-.119.971-.242 1.452-.375l.023-.004c.499-.133.998-.27 1.492-.412l.069-.023.197-.059c.43-.119.856-.247 1.277-.38l.161-.05c.37-.114.741-.232 1.108-.352l.352-.114h.005l.196-.068a69.997 69.997 0 001.759-.609l.833-.302.009-.008c.197-.069.394-.143.586-.22l.06-.023c.192-.068.389-.146.581-.229.142-.05.284-.104.426-.164h.005c.11-.041.224-.087.334-.137a6.31 6.31 0 00.458-.188c.261-.1.517-.209.773-.319.564-.238 1.122-.48 1.672-.737a42.586 42.586 0 001.882-.886c.265-.128.526-.256.782-.389a54.188 54.188 0 002.148-1.13l.165-.091c.173-.096.353-.191.531-.301.1-.05.198-.105.293-.165.228-.128.457-.261.686-.398.289-.165.577-.337.866-.517.783-.475 1.55-.965 2.303-1.472.233-.155.467-.315.7-.475.133-.086.266-.183.398-.279.184-.128.371-.26.55-.393l.151-.105c.238-.169.477-.343.71-.521l.064-.046.119-.092c.293-.219.587-.438.875-.667l.11-.087.009-.004c.247-.197.495-.393.737-.594l.096-.078.247-.197.381-.319.255-.22c.138-.115.276-.229.413-.352l.16-.142.105-.091c.257-.22.508-.444.761-.677h.004c.279-.256.554-.512.824-.773.242-.229.481-.461.719-.699l.073-.069c.242-.237.485-.48.719-.726.243-.243.476-.485.705-.732.105-.11.207-.215.298-.324a29.65 29.65 0 001.131-1.271c.178-.207.356-.412.53-.623a5.27 5.27 0 00.28-.338c.156-.187.307-.374.458-.567.089-.102.173-.208.251-.319.152-.184.289-.366.431-.549.243-.311.476-.626.701-.942.169-.237.338-.475.504-.713l.15-.215c.161-.224.312-.448.458-.676.197-.284.381-.572.559-.86a32.61 32.61 0 00.948-1.55l.123-.21.096-.164c.115-.197.229-.398.335-.6l.087-.155c.105-.187.205-.375.302-.562.069-.124.137-.247.197-.37.133-.252.265-.508.388-.764.079-.151.152-.297.216-.448.242-.484.467-.969.678-1.459.105-.232.205-.466.302-.699.064-.141.123-.284.178-.425l.073-.169c.079-.192.156-.388.23-.585.104-.261.206-.521.301-.786a54.562 54.562 0 00-2.747-41.845zm-59.988 75.694a122.596 122.596 0 01-37.792-3.561l-.293-.074a139.078 139.078 0 01-24.751-8.782l-.11-.046A109.924 109.924 0 0116.92 79.66C-.263 41.29 24.553 7.533 72.358 4.273c47.792-3.263 100.472 25.195 117.66 63.57 17.188 38.374-7.636 72.121-55.428 75.381z" fill="#34BA6A"/><path d="M183.19 68.31l-4.92.336c.491 1.228 1.067 2.457 1.501 3.689l5.017-.098c-.469-1.312-1.071-2.62-1.598-3.928zm-3.015 5.166l.185.527 5.046.008-.194-.553-5.037.018zm.533 1.58l.352 1.229 5.099.167-.378-1.317-5.073-.079zm2.051 10.068l.115 1.211 5.222.825-.123-1.29-5.214-.746zm.156 2.071l.035 1.186 5.222.965-.026-1.273-5.231-.877zm-1.537-9.795l.114.403 5.134.272-.123-.439-5.125-.237zm1.143 17.967l-.088.483 5.196 1.457.097-.518-5.205-1.422zm-.263 1.466l-.22 1.132 5.169 1.598.229-1.212-5.178-1.518zm-.475 2.142l-.096.369 5.151 1.694.097-.404-5.152-1.66zm-.036-20.059a50.65 50.65 0 01.923 5.173l5.203.676a55.286 55.286 0 00-.979-5.509l-5.147-.34zm1.235 10.551l-.099 2.496c-.031.837-.167 1.647-.239 2.466l5.197 1.361c.091-.874.228-1.738.26-2.63l.109-2.659-5.228-1.034z" fill="#71FFA9"/><path d="M181.686 99.344a33.763 33.763 0 01-.999 3.297l5.075 1.899c.385-1.159.8-2.307 1.075-3.506l-5.151-1.69zm-1.372 4.292l-.194.456 5.038 1.993.202-.483-5.046-1.966zm-.569 1.362c-.139.355-.296.703-.47 1.043l4.984 2.129c.186-.361.353-.733.499-1.113l-5.013-2.059zm-4.828 8.188l-.729.913 4.659 2.659.773-.983-4.703-2.589zm-1.238 1.571l-.8.886 4.571 2.757.844-.948-4.615-2.695zm5.132-7.786l-.176.351 4.949 2.204.185-.369-4.958-2.186zm-11.114 13.631c-.125.117-.276.215-.42.326l4.201 3.099c.15-.119.305-.225.444-.35l-4.225-3.075zm-1.264.966l-.993.746 4.079 3.195 1.055-.798-4.141-3.143zm-1.925 1.396l-.352.237 3.983 3.248.378-.255-4.009-3.23zm13.652-14.72l-1.239 2.106-1.398 2.028 4.747 2.546 1.477-2.168 1.319-2.248-4.906-2.264zm-5.997 8.2a44.338 44.338 0 01-3.718 3.509l4.277 3.04a46.225 46.225 0 003.959-3.745l-4.518-2.804z" fill="#71FFA9"/><path d="M164.152 123.197c-.529.349-1.044.71-1.586 1.045l-1.667.975 3.78 3.385 1.772-1.044c.586-.352 1.13-.742 1.69-1.112l-3.989-3.249zm-4.294 2.611l-.492.263 3.675 3.432.527-.272-3.71-3.423zm-1.502.77c-.394.196-.762.412-1.17.595l3.533 3.51c.429-.191.836-.416 1.256-.627l-3.619-3.478zm-10.384 4.119l-1.363.378 2.831 3.765 1.459-.395-2.927-3.748zm-2.334.649c-.458.127-.909.252-1.391.346l2.679 3.813c.504-.102.995-.231 1.473-.372l-2.761-3.787zm10.45-3.677l-.414.184 3.438 3.555.43-.193-3.454-3.546zm-20.414 5.591l-.642.088 2.066 3.924.677-.097-2.101-3.915zm-1.915.237l-1.521.132 1.89 3.941 1.617-.141-1.986-3.932zm-2.884.255l-.501.052 1.767 3.941.537-.044-1.803-3.949zm23.702-5.41l-2.689 1.052c-.891.352-1.851.621-2.773.942l2.994 3.723c.989-.339 2.007-.632 2.963-1.01l2.863-1.117-3.358-3.59zm-11.604 3.641l-1.487.339-1.533.275c-1.022.171-2.027.381-3.088.502l2.189 3.907c1.125-.131 2.2-.353 3.293-.537l1.633-.295 1.588-.359-2.595-3.832zm-17.243 2.005l1.471 3.963c1.665-.019 3.285-.136 4.938-.201l-1.769-3.95c-1.554.059-3.073.175-4.64.188zm-2.124.018l1.327 3.968.721-.009-1.38-3.968-.668.009zm-2.928-.061l1.143 3.967 1.687.053-1.248-3.967-1.582-.053zm-13.233-1.255l.264 3.888 1.723.246-.369-3.897-1.618-.237zm-2.786-.474l.088 3.844 1.723.307-.185-3.862-1.626-.289zm14.049 1.667l1.02 3.959.553.018-1.037-3.959-.536-.018zm-24.368-4.064l-.606 3.678.73.219.562-3.704-.686-.193zm-3-.869l-.8 3.625 1.715.501.695-3.661-1.61-.465zm-1.975-.649l-.923 3.59.562.184.897-3.599-.536-.175zm21.092 4.83l.456 3.904c2.43.295 4.866.563 7.266.697l-.914-3.946c-2.255-.131-4.531-.383-6.808-.655zm-14.127-2.773l-.471 3.723c1.223.296 2.433.64 3.658.903l3.665.787.018-3.827-3.441-.741c-1.14-.241-2.284-.57-3.43-.845z" fill="#71FFA9"/><path d="M84.603 126.634l-1.247 3.478c1.684.611 3.364 1.248 5.08 1.776l.93-3.584c-1.611-.501-3.18-1.099-4.763-1.67zm-2.125-.826l-1.397 3.423.72.29 1.346-3.45-.669-.263zm-2.898-1.184l-1.578 3.343c.55.248 1.1.474 1.663.694l1.464-3.39a31.847 31.847 0 01-1.549-.647zm-12.352-6.128l-2.382 2.941 1.547.869 2.295-2.993-1.46-.817zm-2.451-1.439l-2.55 2.844 1.512.913 2.453-2.906-1.415-.851zm12.904 6.732l-1.705 3.283.545.245 1.661-3.3-.5-.228zm-21.607-12.538l-3.122 2.465c.202.149.39.306.595.442l3.082-2.498c-.194-.129-.376-.272-.555-.409zm-2.394-1.813l-3.27 2.352 1.372 1.036 3.191-2.414-1.292-.974zm-1.538-1.247l-3.375 2.274.44.351 3.349-2.291-.414-.334zm17.786 11.806l-2.198 3.037 3.34 1.747 3.43 1.633 1.784-3.248-3.209-1.536-3.147-1.633zm-12.221-7.576l-3.01 2.546c1.994 1.432 4.073 2.789 6.174 4.103l2.625-2.797c-1.973-1.236-3.928-2.506-5.789-3.852zm-9.194-7.315l-3.605 2.064 1.897 1.668c.633.547 1.302 1.078 1.96 1.623l3.377-2.272c-.616-.508-1.25-1-1.848-1.522l-1.78-1.561zm-1.566-1.444l-3.71 1.975.51.492 3.684-2.002-.483-.465zm-2.095-1.997l-3.85 1.837c.387.395.8.767 1.2 1.153l3.777-1.907c-.373-.36-.76-.714-1.127-1.083zm-8.138-9.344l-4.396 1.23.94 1.246 4.326-1.3-.87-1.176zm-1.474-2.005l-4.493 1.08c.285.428.588.841.903 1.26l4.438-1.164c-.3-.386-.586-.78-.848-1.176zm8.296 9.984l-3.947 1.756.378.386 3.93-1.773-.36-.369zM30.533 82.64l-4.8.588.3.544 4.781-.606-.28-.526zm-1.132-2.265l-4.879.43.633 1.308 4.826-.518-.58-1.22zm-.732-1.518l-4.914.342.202.43 4.905-.36-.193-.412zm9.725 15.632l-4.282 1.364c.715.86 1.398 1.743 2.155 2.586l2.291 2.551 4.004-1.684-2.14-2.384c-.722-.8-1.354-1.624-2.028-2.433zM31.35 84.143l-4.745.684c.478.917 1.068 1.82 1.616 2.726l.835 1.353.906 1.342 4.542-1.008-.853-1.264-.78-1.27c-.518-.854-1.073-1.697-1.52-2.563z" fill="#71FFA9"/><path d="M22.154 75.268c.468 1.311 1.071 2.62 1.597 3.928l4.92-.337c-.491-1.228-1.058-2.457-1.5-3.689l-5.017.098zm-.624-1.783l.194.561 5.046-.017-.175-.527-5.064-.017zm-.746-2.432l.37 1.308 5.08.088-.35-1.238-5.1-.158zm-1.932-10.708l.123 1.29 5.204.737-.105-1.202-5.222-.825zm-.09-2.186l.036 1.264 5.23.886-.035-1.194-5.23-.956zM20.32 69.43l.123.438 5.117.237-.115-.413-5.125-.263zm-1.002-19.232l-.097.517 5.195 1.422.088-.482-5.186-1.457zm.42-2.256l-.229 1.21 5.178 1.52.211-1.133-5.16-1.597zm.37-1.475l-.105.395 5.16 1.668.088-.377-5.143-1.686zM19.071 62.74c.233 1.851.56 3.69.98 5.509l5.143.334a50.804 50.804 0 01-.92-5.168l-5.203-.676zm.028-11.032c-.088.88-.225 1.745-.26 2.63l-.107 2.666 5.229 1.033.098-2.496c.031-.837.168-1.646.248-2.466L19.1 51.708z" fill="#71FFA9"/><path d="M21.178 42.958c-.382 1.166-.797 2.313-1.072 3.513l5.148 1.683c.25-1.123.646-2.201 1.002-3.29l-5.078-1.906zm.602-1.538l-.194.483 5.047 1.966.193-.456-5.046-1.993zm.902-2.086a11.01 11.01 0 00-.499 1.113l5.013 2.059c.145-.356.289-.711.467-1.05l-4.98-2.122zm5.418-8.588l-.783.984 4.703 2.589.73-.922-4.65-2.65zm1.387-1.641l-.843.94 4.623 2.694.8-.878-4.58-2.756zM23.36 37.97l-.185.37 4.959 2.193.166-.35-4.94-2.213zm12.105-14.492a5.819 5.819 0 00-.444.348l4.226 3.077c.125-.117.283-.216.42-.327l-4.202-3.098zm1.951-1.483l-1.054.799 4.149 3.142.984-.755-4.078-3.186zm1.384-.939l-.379.255 4.018 3.23.351-.237-3.99-3.248zM26.666 32.58l-1.477 2.169-1.319 2.247 4.914 2.264 1.231-2.106 1.407-2.028-4.756-2.545zm7.554-8.068a46.193 46.193 0 00-3.958 3.743l4.517 2.806a44.569 44.569 0 013.715-3.517l-4.273-3.032z" fill="#71FFA9"/><path d="M42.261 18.903l-1.771 1.043c-.587.352-1.13.742-1.69 1.113l3.989 3.248c.528-.348 1.043-.71 1.586-1.044l1.667-.976-3.78-3.384zm1.646-.901l-.536.272 3.718 3.423.493-.263-3.675-3.432zm2.311-1.188c-.426.199-.833.424-1.246.634l3.608 3.472c.394-.197.766-.405 1.173-.59l-3.535-3.515zm11.279-4.158l-1.45.404 2.918 3.748 1.371-.378-2.84-3.774zm2.517-.664c-.5.11-.991.238-1.47.38l2.77 3.785c.447-.132.909-.252 1.38-.352l-2.68-3.813zm-12.178 4.105l-.44.193 3.464 3.546.405-.184-3.429-3.555zm22.001-5.864l-.677.097 2.11 3.915.642-.088-2.075-3.924zm2.974-.298l-1.608.14 1.995 3.933 1.512-.132-1.899-3.941zm2.003-.185l-.545.053 1.802 3.95.51-.053-1.767-3.95zm-19.979 3.695c-.99.339-2.007.633-2.962 1.01l-2.866 1.11 3.357 3.59 2.692-1.045c.89-.352 1.848-.627 2.773-.941l-2.994-3.724zm13.053-2.947c-1.128.125-2.203.348-3.292.538l-1.634.295-1.589.359 2.595 3.831 1.488-.339 1.533-.274c1.019-.178 2.03-.39 3.088-.503l-2.19-3.906z" fill="#71FFA9"/><path d="M74.813 9.754l1.769 3.95c1.545-.059 3.064-.176 4.63-.187l-1.47-3.963c-1.66.011-3.285.136-4.929.2zm6.481-.214l1.38 3.967.66-.008-1.328-3.968-.712.009zm2.152 0l1.23 3.967 1.591.044-1.142-3.959-1.68-.052zm14.066 1.14l.36 3.89 1.618.236-.255-3.88-1.723-.245zm2.953.457L100.65 15l1.626.299-.079-3.854-1.732-.307zm-13.8-1.492l1.037 3.959.528.009-1.011-3.95-.554-.018zm25.819 4.143l-.563 3.695.695.202.598-3.686-.73-.211zm2.197.641l-.694 3.651 1.608.474.8-3.625-1.714-.5zm3.262 1.001l-.897 3.598.528.176.932-3.59-.563-.184zM88.76 9.765l.917 3.954c2.252.123 4.531.382 6.816.654l-.466-3.91c-2.429-.289-4.864-.556-7.267-.698zm15.002 1.967l-.018 3.827 3.443.742c1.138.242 2.279.564 3.428.845l.47-3.722c-1.214-.298-2.433-.642-3.658-.904l-3.665-.788zm14.746 3.885l-.93 3.584c1.607.494 3.179 1.1 4.758 1.662l1.251-3.47c-1.684-.61-3.364-1.249-5.079-1.777zm6.636 2.367l-1.345 3.44.677.273 1.38-3.423-.712-.29zm2.141.859l-1.473 3.391c.521.202 1.037.41 1.549.647l1.575-3.35a49.963 49.963 0 00-1.651-.688zm13.269 6.356l-2.294 2.993 1.459.816 2.382-2.94-1.547-.87zm2.653 1.492l-2.453 2.897 1.416.86 2.54-2.844-1.503-.913zm-12.789-6.504l-1.662 3.3.51.229 1.705-3.292-.553-.237zm22.973 13.154l-3.082 2.496c.196.136.378.28.559.416l3.118-2.471c-.2-.142-.388-.3-.595-.441zm1.771 1.338l-3.2 2.405 1.292.983 3.279-2.352-1.371-1.036zm2.578 2.01l-3.349 2.29.404.334 3.385-2.273-.44-.351zm-25.293-15.598l-1.784 3.248 3.199 1.527 3.148 1.642 2.206-3.037-3.349-1.747-3.42-1.633zm13.633 7.336l-2.631 2.805c1.973 1.236 3.928 2.506 5.79 3.85l3.006-2.552c-1.991-1.424-4.069-2.78-6.165-4.103z" fill="#71FFA9"/><path d="M158.178 37.044l-3.38 2.265c.617.507 1.254 1.007 1.848 1.522l1.784 1.568 3.604-2.065-1.887-1.668c-.645-.553-1.314-1.083-1.969-1.622zm5.013 4.332l-3.675 2.001.475.457 3.718-1.966-.518-.492zm1.557 1.473l-3.785 1.906c.373.362.767.715 1.124 1.076l3.851-1.836c-.385-.387-.8-.766-1.19-1.146zm8.937 9.859l-4.334 1.3.87 1.167 4.405-1.22-.941-1.247zm1.606 2.14l-4.438 1.165c.3.386.586.78.848 1.176l4.491-1.087a26.233 26.233 0 00-.901-1.254zm-8.321-9.794l-3.921 1.782.36.36 3.939-1.747-.378-.395zm13.932 18.67l-4.782.614.281.518 4.809-.579-.308-.553zm.89 1.668l-4.835.518.589 1.22 4.87-.44-.624-1.298zm1.195 2.484l-4.906.36.185.412 4.923-.342-.202-.43zm-14.604-21.362L164.38 48.2l2.14 2.384c.722.799 1.353 1.624 2.036 2.432l4.274-1.364c-.715-.86-1.397-1.742-2.159-2.593l-2.288-2.544zm8.594 10.736l-4.54 1.015.851 1.258.782 1.276c.518.853 1.074 1.697 1.517 2.555l4.75-.677c-.479-.917-1.068-1.819-1.618-2.725l-.829-1.36-.913-1.342zM86.497 18.6l-.939-.004a83.823 83.823 0 00-6.699.197l-.123.009-.907.068.655 1.46.912-.06.123-.01a87.03 87.03 0 016.52-.196l.938.005-.48-1.468zm-13.47.792l-.875.137c-2.17.329-4.263.75-6.287 1.248l-.829.206.995 1.412.828-.205a70.827 70.827 0 016.122-1.22l.884-.13-.838-1.448zm27.59.526l-.966-.151a98.205 98.205 0 00-7.097-.851l-.957-.077.289 1.458.956.078c2.312.192 4.617.468 6.914.828l.962.155-.101-1.44zm-39.902 2.345l-.78.274a57.27 57.27 0 00-5.502 2.258l-.71.339 1.3 1.303.72-.344a55.154 55.154 0 015.352-2.193l.773-.27-1.153-1.367zm53.184.763a107.452 107.452 0 00-7.106-1.883l-.97-.224-.091 1.404.97.219c2.326.53 4.629 1.147 6.913 1.833l.958.293.284-1.354-.958-.288zm-63.843 4.096l-.645.403a43.565 43.565 0 00-4.511 3.177l-.572.457 1.56 1.143.573-.457a43.848 43.848 0 014.387-3.09l.65-.403-1.442-1.23zm77.685 1.12a107.032 107.032 0 00-6.836-2.838l-.939-.357-.471 1.29.943.356c2.248.84 4.468 1.769 6.652 2.761l.916.411.645-1.211-.91-.412zm-86.289 5.532l-.498.512a39.389 39.389 0 00-3.343 3.969l-.408.562 1.75.946.407-.562a37.44 37.44 0 013.26-3.859l.495-.517-1.663-1.051zm99.195 1.422a106.51 106.51 0 00-6.3-3.68l-.879-.471-.824 1.12.875.471a108.455 108.455 0 016.144 3.584l.829.526.989-1.033-.834-.517zM35.221 41.957l-.32.608a35.442 35.442 0 00-2.06 4.604l-.234.645 1.877.708.238-.64a33.7 33.7 0 011.996-4.484l.33-.609-1.827-.832zm116.919 1.664a99.043 99.043 0 00-5.54-4.384l-.779-.571-1.145.919.784.571a97.613 97.613 0 015.388 4.265l.715.618 1.3-.8-.723-.618zM31.6 51.356l-.138.673a36.98 36.98 0 00-.686 5.074l-.042.704 1.932.444.05-.705a35.01 35.01 0 01.66-4.932l.137-.677-1.914-.58zm130.155 1.852a80.385 80.385 0 00-4.542-4.919l-.655-.65-1.428.678.645.654a76.895 76.895 0 014.432 4.782l.577.68 1.557-.548-.586-.677zM33.44 67.842a41.735 41.735 0 01-.71-5.202l-.05-.714-1.937-.31.05.722a43.31 43.31 0 00.733 5.344l.147.732 1.904.16-.137-.732zm135.687-4.252a65.492 65.492 0 00-3.389-5.262l-.494-.704-1.657.402.498.71a65.885 65.885 0 013.288 5.124l.412.718 1.757-.27-.415-.718zM36.855 78.362l-.027-.06a52.273 52.273 0 01-2.005-5.202l-.247-.735-1.874-.014.244.73a51.901 51.901 0 002.064 5.346l.028.058.33.737 1.817-.128-.33-.732zm137.161-3.877a53.093 53.093 0 00-2.083-5.407l-.059-.124-.33-.736-1.827.127.339.733.054.128a51.234 51.234 0 012.029 5.257l.233.74 1.882.014-.238-.732zM42.817 88.707a63.287 63.287 0 01-3.283-5.12l-.417-.727-1.748.27.416.718a63.747 63.747 0 003.374 5.27l.495.704 1.657-.411-.494-.704zm133.328-3.479a41.285 41.285 0 00-.719-5.344l-.141-.732-1.914-.16.141.732c.345 1.717.579 3.455.701 5.202l.046.713 1.936.302-.05-.713zM51.105 98.476a74.946 74.946 0 01-4.414-4.786l-.587-.686-1.547.549.572.681a80.62 80.62 0 004.547 4.919l.645.654 1.443-.677-.66-.654zm123.163-9.161l-.041.695a35.7 35.7 0 01-.682 4.937l-.138.677 1.919.58.137-.676c.353-1.673.584-3.369.691-5.075l.056-.695-1.942-.443zM61.42 107.299a91.163 91.163 0 01-5.389-4.273l-.724-.618-1.287.809.715.608a92.3 92.3 0 005.536 4.385l.782.576 1.145-.92-.778-.567zm111.016-8.265l-.233.645a35.021 35.021 0 01-2.01 4.48l-.33.604 1.827.832.321-.604a34.795 34.795 0 002.069-4.604l.229-.64-1.873-.713zm-99.084 15.791a97.367 97.367 0 01-6.15-3.589l-.824-.526-.993 1.028.837.531a103.602 103.602 0 006.305 3.68l.866.467.828-1.12-.87-.471zm94.593-7.041l-.403.563a37.128 37.128 0 01-3.269 3.858l-.495.516 1.667 1.048.49-.508a38.38 38.38 0 003.356-3.968l.417-.558-1.763-.951zm-81.526 13.002a107.912 107.912 0 01-6.648-2.771l-.912-.415-.65 1.211.916.416a113.177 113.177 0 006.831 2.843l.935.352.475-1.279-.947-.357zm74.589-5.55l-.576.462a44.811 44.811 0 01-4.392 3.085l-.649.399 1.437 1.234.651-.407a45.418 45.418 0 004.509-3.168l.577-.453-1.557-1.152zm-60.853 9.706a105.723 105.723 0 01-6.919-1.843l-.956-.288-.276 1.348.958.289c2.344.709 4.71 1.339 7.101 1.893l.971.224.087-1.404-.966-.219zm51.701-3.841l-.724.334a53.63 53.63 0 01-5.352 2.19l-.783.269 1.159 1.368.773-.27a56.761 56.761 0 005.518-2.259l.709-.333-1.3-1.299zm-36.881 6.099l-.956-.078-.005-.004a98.426 98.426 0 01-6.914-.833l-.961-.151.105 1.436.962.151c2.362.371 4.729.657 7.101.86l.957.077-.289-1.458zm25.855-2.071l-.828.206c-1.965.48-4.004.882-6.117 1.207l-.879.132.833 1.441.87-.133a72.989 72.989 0 006.3-1.239l.829-.206-1.008-1.408zm-12.457 2.053l-.908.059-.041.005a85.71 85.71 0 01-6.598.192l-.943-.01.481 1.472.935.006c2.27.022 4.534-.045 6.79-.202h.031l.907-.064-.654-1.458zm22.298-42.896l-.815-1.824a29.978 29.978 0 00-17.591-14.67 10.185 10.185 0 00.023-9.276l-.715-1.587a29 29 0 00-11.442-11.205 29.06 29.06 0 00-15.653-3.433l-1.97.132-5.883-13.138-12.055.822 5.884 13.14-6.026.411-5.884-13.139-12.05.823 5.882 13.139-20.694 1.413L56.31 56.23l13.274-.91 18.475 41.26-11.314.772 2.509 10.483 20.86-1.422 5.709 12.75 12.051-.823-5.71-12.75 6.026-.411 5.709 12.75 12.057-.823-5.71-12.751 5.975-.406c12.44-.851 18.922-9.67 14.45-19.663zm-15.105 18.195l-7.798.531 5.714 12.754-8.415.576-5.714-12.755-9.665.659L115.402 117l-8.407.576-5.714-12.755-20.54 1.4-1.79-7.507 11.59-.79L70.746 53.73l-13.278.905-3.315-7.402 20.704-1.413-5.883-13.138 8.402-.577 5.888 13.14 9.665-.659-5.883-13.14 8.41-.575 5.884 13.14 3.791-.262c4.941-.312 9.87.77 14.224 3.122a26.365 26.365 0 0110.4 10.182l.709 1.586a8.972 8.972 0 01-.421 8.97l-.503.74 1.24.389a27.967 27.967 0 0110.057 5.146 27.915 27.915 0 017.195 8.701l.82 1.824c4.111 9.185-1.85 17.29-13.287 18.072zm-10.512-24.883a19.406 19.406 0 00-10.412-2.396l-17.431 1.189 9.222 20.581 17.43-1.188c7.065-.485 10.746-5.496 8.205-11.169a15.632 15.632 0 00-7.014-7.017zm-1.851 16.718l-15.608 1.065-7.907-17.655 15.609-1.066a16.71 16.71 0 018.932 2.058 13.423 13.423 0 016.017 6.02c2.183 4.87-.98 9.162-7.043 9.578zM114.926 58a12.243 12.243 0 00-5.486-5.495 15.187 15.187 0 00-8.14-1.879l-15.155 1.038 7.211 16.097 15.15-1.033c5.526-.38 8.406-4.294 6.42-8.728zm-20.398 8.175L88.63 53.002l13.324-.91a12.45 12.45 0 016.661 1.537 9.995 9.995 0 014.487 4.494c1.626 3.625-.723 6.834-5.252 7.14l-13.323.91zm37.54 18.441a15.632 15.632 0 00-7.014-7.017 19.406 19.406 0 00-10.412-2.396l-17.431 1.189 9.222 20.581 17.43-1.188c7.065-.485 10.746-5.496 8.205-11.169zm-8.865 9.701l-15.608 1.065-7.907-17.655 15.609-1.066a16.71 16.71 0 018.932 2.058 13.423 13.423 0 016.017 6.02c2.183 4.87-.98 9.162-7.043 9.578zM114.926 58a12.243 12.243 0 00-5.486-5.495 15.187 15.187 0 00-8.14-1.879l-15.155 1.038 7.211 16.097 15.15-1.033c5.526-.38 8.406-4.294 6.42-8.728zm-20.398 8.175L88.63 53.002l13.324-.91a12.45 12.45 0 016.661 1.537 9.995 9.995 0 014.487 4.494c1.626 3.625-.723 6.834-5.252 7.14l-13.323.91zM114.926 58a12.243 12.243 0 00-5.486-5.495 15.187 15.187 0 00-8.14-1.879l-15.155 1.038 7.211 16.097 15.15-1.033c5.526-.38 8.406-4.294 6.42-8.728zm-7.075 7.264l-13.323.91-5.897-13.171 13.324-.91a12.45 12.45 0 016.661 1.537 9.995 9.995 0 014.487 4.494c1.626 3.625-.723 6.834-5.252 7.14zm24.217 19.352a15.632 15.632 0 00-7.014-7.017 19.406 19.406 0 00-10.412-2.396l-17.431 1.189 9.222 20.581 17.43-1.188c7.065-.485 10.746-5.496 8.205-11.169zm-8.865 9.701l-15.608 1.065-7.907-17.655 15.609-1.066a16.71 16.71 0 018.932 2.058 13.423 13.423 0 016.017 6.02c2.183 4.87-.98 9.162-7.043 9.578z" fill="#71FFA9"/></svg>