<svg width="83" height="53" fill="none" xmlns="http://www.w3.org/2000/svg"><g filter="url(#filter0_f_72_578)"><path d="M75.734 29.151L74.27 36.74c-.912 4.733-7.312 8.307-17.91 9.1-16.48 1.232-36.873-4.727-45.55-13.313a9.956 9.956 0 01-3.775-8.678L8.5 16.26a9.94 9.94 0 003.776 8.678c8.675 8.585 29.069 14.545 45.548 13.312 10.598-.792 16.998-4.366 17.91-9.099z" fill="#37AB65"/><path d="M26.407 7.162c16.482-1.233 36.875 4.726 45.551 13.312 8.676 8.585 2.347 16.544-14.135 17.776-16.479 1.233-36.873-4.727-45.548-13.312C3.599 16.353 9.928 8.394 26.407 7.162z" fill="#3CAE6A"/><path d="M62.777 21.16c-5.998-5.934-20.145-10.069-31.535-9.217-11.393.852-15.783 6.373-9.785 12.308 5.997 5.935 20.144 10.07 31.537 9.217 11.39-.851 15.78-6.373 9.783-12.307z" fill="#49D581"/><path d="M74.891 24.325l-.13-.244c-.083-.155-.173-.308-.264-.466-.16-.264-.337-.53-.528-.796a16.564 16.564 0 00-1.532-1.856 23.303 23.303 0 00-.477-.489h-.002a29.492 29.492 0 00-4.882-3.825 71.401 71.401 0 00-31.832-9.503c-.495-.031-.99-.059-1.481-.08a69.414 69.414 0 00-1.453-.05 72.237 72.237 0 00-2.554-.006l-.12.003a63.07 63.07 0 00-2.098.074l-.094.005c-.345.02-.691.043-1.033.069-1.834.131-3.66.372-5.465.72C10.64 9.917 6.162 15.224 9.473 21.333c.168.31.36.626.568.941l.006.008c.457.68.967 1.324 1.524 1.927.148.162.3.323.461.486l.242.244c.439.433.905.86 1.402 1.277a29.954 29.954 0 002.478 1.884l.003.003c.326.221.657.44.999.659l.002.002a45.345 45.345 0 003.84 2.181l.002.003a75.032 75.032 0 0027.242 7.264c3.189.252 6.393.264 9.584.038l.048-.005a48.55 48.55 0 003.724-.42l.294-.046c.132-.02.262-.043.392-.066a35.247 35.247 0 001.007-.183c.155-.03.309-.064.461-.095l.057-.012c.127-.026.254-.053.38-.081h.002l.242-.056c.354-.082.701-.169 1.04-.258h.005c.278-.076.548-.152.816-.229h.005c8.019-2.374 11.333-7.098 8.592-12.474zm-2.12 7.252l-.015.017-.041.054a20.965 20.965 0 01-14.226 5.696c-.472.048-.956.091-1.448.127-.49.038-.982.069-1.479.092-15.378.725-33.81-4.836-41.794-12.736-7.18-7.106-3.543-13.76 7.864-16.132a44.072 44.072 0 015.564-.758c.243-.018.49-.033.734-.048 15.522-.945 34.423 4.667 42.537 12.697 4.088 4.045 4.67 7.944 2.304 10.99z" fill="#49D280"/><path d="M70.466 20.586C62.353 12.556 43.451 6.944 27.93 7.89c-.244.015-.492.03-.734.048a44.17 44.17 0 00-5.565.758c-11.407 2.373-15.044 9.026-7.863 16.132 7.983 7.9 26.415 13.461 41.794 12.736.497-.023.99-.053 1.479-.092a48.53 48.53 0 001.447-.127 20.966 20.966 0 0014.226-5.696l.041-.054.016-.017c2.365-3.047 1.784-6.946-2.305-10.99zm-1.67 3.566l.161.364c.106.237.197.48.273.729l-2.08-.196a6.223 6.223 0 00-.247-.67l-.153-.336c-.054-.112-.123-.226-.181-.338l2.031.084c.064.119.138.241.196.363zm-2.447-3.257c.33.343.67.687.954 1.035l-1.932.059c-.258-.32-.577-.639-.88-.957l-.115-.105 1.851-.147.122.115zm-3.606-2.871l.512.343.49.349c.331.231.631.468.93.705l-1.731.252c-.278-.219-.553-.438-.859-.652l-.451-.323-.474-.316 1.583-.358zm-4.813-2.658c.869.4 1.68.82 2.472 1.247l-1.399.47a39.558 39.558 0 00-2.286-1.151l1.213-.566zm-5.682-2.237l.23.076c.688.235 1.371.472 2.034.726l-.948.675a51.395 51.395 0 00-1.88-.672l-.213-.07.777-.735zm-5.909-1.634c1.038.24 2.07.492 3.085.777l-.561.799a64.683 64.683 0 00-2.85-.718l.326-.858zm-3.323-.656l-.07.91a60.684 60.684 0 00-2.913-.427l-.173-.944c1.05.132 2.103.277 3.156.46zm-9.25-.876c.705.002 1.426.038 2.15.071l.477.972c-.665-.03-1.333-.063-1.988-.066l-.217-.005-.663-.977.24.005zm-4.431.122c.471-.028.94-.06 1.414-.084l.877.975c-.44.02-.877.05-1.312.076-.421.041-.854.072-1.27.12l-1.083-.96c.448-.05.915-.083 1.374-.127zm-4.117.53l1.292.928c-.772.138-1.49.314-2.192.502l-1.473-.886a28.868 28.868 0 012.373-.545zm-6.26 2.067c.387-.22.825-.415 1.262-.611l1.681.814c-.407.18-.81.361-1.167.565l-.125.066-1.784-.764.133-.07zm-1.563.995l1.896.692a8.25 8.25 0 00-1.093 1.015l-1.989-.608c.361-.402.758-.77 1.186-1.1zm-2.353 3.008c.077-.214.181-.425.28-.639l2.053.512c-.092.196-.187.392-.258.59a4.66 4.66 0 00-.176.608l-2.088-.412c.046-.224.11-.445.19-.66zm-.066 3.405a7.35 7.35 0 01-.204-1.008l2.098.278c.037.315.1.626.189.931l.035.107-2.077-.193-.041-.115zm1.075 2.225l-.241-.37-.202-.366 2.034.087.186.339.222.338c.15.235.313.462.487.68l-1.957.027c-.184-.246-.38-.49-.529-.735zm3.562 3.718a21.686 21.686 0 01-1.647-1.438l1.853-.145c.483.47.992.913 1.522 1.329l-1.728.254zm4.28 2.795l-.189-.102-.81-.463c-.268-.155-.52-.316-.776-.474l1.532-.389c.24.145.47.293.717.438l.749.427.17.095-1.394.468zm5.003 2.334c-.456-.186-.92-.369-1.358-.565l-.665-.29-.648-.3 1.216-.56.599.277.612.267c.407.18.835.349 1.259.522l-1.015.649zm6.006 2.005c-.505-.142-1.012-.282-1.506-.437-.505-.15-.995-.308-1.484-.471l.782-.733c.45.148.903.298 1.367.433.461.145.928.275 1.4.406l-.559.802zm6.393 1.418l-.247-.043-.559-.097-.555-.107c-.375-.074-.747-.14-1.116-.221l.254-.876c.341.077.683.138 1.027.206l.518.1.515.089.229.038-.066.911zm4.552.606c-.522-.054-1.047-.107-1.572-.17l-.163-.945c.482.059.966.11 1.45.158.477.038.963.092 1.438.12l.402.964c-.512-.028-1.034-.084-1.555-.127zm6.268.26c-.491 0-.978.015-1.483.002l-.655-.977c.467.012.913-.003 1.372-.003.453-.005.894-.028 1.343-.04l.879.974c-.484.013-.96.038-1.456.044zm1.194-1.673c-11.723.879-26.281-3.377-32.45-9.483-6.171-6.106-1.654-11.787 10.069-12.662 11.72-.878 26.275 3.377 32.447 9.483 6.17 6.106 1.654 11.787-10.066 12.662zm5.574 1.041l-.443.082-.454.071c-.308.043-.607.097-.925.133l-1.145-.95c.298-.033.571-.084.854-.122l.423-.067.406-.076.183-.033 1.298.926-.197.036zm3.533-.875c-.364.11-.716.226-1.098.328l-1.471-.888c.352-.092.675-.201 1.012-.303.316-.112.645-.219.946-.339l1.636.833c-.329.13-.683.244-1.025.369zm3.747-1.736c-.265.157-.504.326-.795.473l-1.787-.763c.273-.135.492-.293.737-.438.232-.153.449-.31.66-.468l1.902.69c-.232.17-.467.34-.717.506zm2.713-2.777l-.258.438-.306.423-2.008-.581.283-.392.234-.404.056-.09 2.055.507-.056.099zm.601-1.998c-.015.228-.05.453-.105.675l-2.087-.413c.048-.206.08-.415.094-.626.008-.104.023-.208.023-.316l-.007-.32 2.1.31.01.35c-.002.114-.02.226-.028.34z" fill="#3FC976"/><path d="M63.374 21.116c-6.171-6.106-20.726-10.361-32.447-9.483-11.723.875-16.24 6.556-10.069 12.662 6.169 6.106 20.727 10.361 32.45 9.483 11.72-.875 16.237-6.556 10.066-12.662zm-10.38 12.352c-11.394.852-25.541-3.281-31.537-9.217-5.998-5.934-1.608-11.455 9.784-12.308 11.391-.853 25.538 3.284 31.534 9.22 5.998 5.932 1.608 11.455-9.78 12.305zm13.355-12.575l-1.859.14c.305.318.623.636.881.957l1.932-.06c-.284-.348-.624-.693-.954-1.037z" fill="#71FFA9"/><path d="M66.876 28.823l-.054.093 2.051.514.059-.098-2.056-.509zm-.306-5.119c.059.113.128.227.18.339l.152.336c.096.218.18.441.248.67l2.08.194a6.48 6.48 0 00-.273-.726l-.16-.364c-.06-.121-.132-.244-.197-.366l-2.03-.083zm.823 2.729l.01.321c-.002.107-.016.21-.025.316-.014.21-.046.42-.094.624l2.088.414c.054-.221.089-.447.105-.674.007-.115.023-.227.027-.342l-.009-.349-2.102-.31zm-.57 2.484l-.235.4-.284.396 2.006.577.309-.42.254-.44-2.05-.513zm-9.041 4.94l-.186.034 1.287.929.196-.034-1.297-.929zm7.196-2.845a12.63 12.63 0 01-.66.468c-.245.146-.465.302-.736.437l1.787.764c.29-.146.529-.316.795-.473.25-.164.484-.335.716-.507l-1.902-.69zm-3.174 1.73c-.3.12-.63.226-.944.34-.338.1-.66.21-1.013.301l1.472.888c.38-.1.732-.219 1.099-.328.34-.123.695-.238 1.023-.368l-1.637-.833z" fill="#71FFA9"/><path d="M57.6 33.892l-.407.075-.422.065c-.284.039-.557.09-.853.122l1.144.95c.318-.034.616-.088.924-.132l.455-.07.444-.082-1.286-.928zm-16.468-.255l-.083.904.245.044.068-.909-.23-.039zm8.843.838l.655.977c.505.014.992-.002 1.485-.002.494-.006.97-.03 1.456-.043l-.88-.974c-.45.013-.89.035-1.343.04-.46 0-.906.015-1.373.002zm-5.865-.397l.165.943c.523.063 1.049.117 1.571.171.52.043 1.044.098 1.556.127l-.404-.965c-.473-.028-.96-.08-1.437-.119-.483-.05-.968-.1-1.45-.157z" fill="#71FFA9"/><path d="M39.073 33.241l-.254.875c.37.083.742.148 1.114.223l.556.107.56.096.083-.907-.515-.09-.516-.098c-.344-.069-.688-.129-1.028-.206zm-13.957-4.974l-1.412.46.19.102 1.393-.47-.171-.092zm7.579 3.259l-.782.733c.49.162.98.32 1.483.47.495.155 1.001.296 1.508.438l.556-.802c-.47-.13-.936-.26-1.397-.406a44.533 44.533 0 01-1.368-.433zm-5.254-2.079l-1.216.56.648.3.666.29c.438.197.902.379 1.358.564l1.014-.649c-.422-.171-.852-.34-1.258-.521l-.614-.267-.598-.277zm-3.791-2.048l-1.533.39c.257.157.508.32.776.473l.81.465 1.413-.46-.748-.43c-.25-.143-.478-.292-.718-.438zm-8.673-7.309l.039.113 2.08.196-.04-.108-2.08-.2zm4.843 4.36l-1.854.145c.525.507 1.075.987 1.647 1.44l1.728-.255c-.53-.417-1.038-.86-1.522-1.33zm-4.21-2.87l.202.365.24.37c.149.244.345.49.529.735l1.957-.028a8.162 8.162 0 01-.488-.68l-.221-.338-.186-.339-2.033-.085z" fill="#71FFA9"/><path d="M14.774 19.083c.042.34.11.677.204 1.008l2.08.2a6 6 0 01-.187-.93l-2.097-.278zm4.182-6.4l-.132.068 1.787.762.122-.063-1.777-.767zm-3.635 3.364c-.098.212-.203.423-.28.638-.08.215-.143.436-.188.66l2.088.411c.045-.206.103-.409.174-.608.073-.2.168-.394.26-.59l-2.054-.51zm2.074-2.37c-.428.33-.825.697-1.185 1.1l1.987.608a8.208 8.208 0 011.093-1.016l-1.895-.692zm2.825-1.607a15.75 15.75 0 00-1.262.612l1.776.768c.358-.203.76-.385 1.167-.566l-1.681-.815zm13.306-2.114l.66.982h.216l-.636-.977-.24-.005zm-8.309.66a28.34 28.34 0 00-2.373.544l1.475.884a26.897 26.897 0 012.191-.5l-1.293-.928zm4.117-.53c-.457.042-.925.077-1.374.127l1.084.959c.415-.048.848-.079 1.27-.12.436-.025.87-.055 1.312-.076L30.75 10c-.475.024-.942.056-1.416.085z" fill="#71FFA9"/><path d="M33.765 9.963l.64.977c.654.003 1.322.036 1.989.066l-.478-.973c-.722-.031-1.445-.066-2.151-.07zm18.481 3.164l-.773.738.21.069.793-.729-.23-.078zm-12.385-2.749l.173.945c.97.122 1.942.255 2.914.426l.07-.91a66.083 66.083 0 00-3.157-.461zm6.479 1.116l-.325.86c.957.221 1.912.454 2.849.718l.56-.8a66.961 66.961 0 00-3.085-.778zm6.138 1.711l-.795.729a48.96 48.96 0 011.88.67l.948-.674a55.447 55.447 0 00-2.033-.725zM66.23 20.78l-1.85.146.113.108 1.854-.142-.117-.112zm-8.299-5.413l-1.213.563c.801.368 1.55.757 2.285 1.152l1.4-.467a41.28 41.28 0 00-2.472-1.248zm4.811 2.657l-1.583.358.476.317.45.323c.305.213.581.432.86.65l1.73-.252a19.456 19.456 0 00-.93-.703l-.49-.35-.513-.343zm-1.828 9.628a7.348 7.348 0 00-3.8-2.952 19.55 19.55 0 00-8.002-1.522 4.395 4.395 0 01-1.817-.344l-.199-.084c-.586-.254-.935-.6-.907-.898.025-.278.367-.484.915-.55 2.403-.288 3.905-1.191 4.02-2.418.185-2.052-3.52-4.388-8.26-5.21a17.873 17.873 0 00-4.327-.244c-2.633.196-4.482 1.1-4.607 2.473-.112 1.24 1.204 2.64 3.52 3.745.485.231.76.526.737.788l-.015.16c-.025.283-.398.482-.974.525l-.114.01a4.246 4.246 0 01-1.752-.285 19.352 19.352 0 00-8.042-1.262 5.62 5.62 0 00-4.336 1.743c-.602.962-.163 2.113 1.24 3.24a17.598 17.598 0 0010.093 2.988c.347-.005.68-.018 1.002-.04 2.498-.189 4.206-.993 4.55-2.181.076-.28.464-.474 1.027-.517l.212-.016a4.379 4.379 0 011.945.339c.543.234.88.545.904.832.108 1.265 1.604 2.64 4.008 3.68a19.369 19.369 0 008.605 1.487 8.346 8.346 0 003.258-.815c1.228-.661 1.624-1.61 1.116-2.672zm-1.664 2.436a7.689 7.689 0 01-3.01.753 17.877 17.877 0 01-7.959-1.377c-2.222-.96-3.609-2.234-3.706-3.4-.036-.384-.484-.797-1.205-1.11a5.851 5.851 0 00-2.593-.45l-.211.015c-.753.056-1.265.31-1.372.68-.316 1.1-1.894 1.842-4.203 2.015-.298.023-.612.036-.933.039a16.269 16.269 0 01-9.332-2.762c-1.296-1.043-1.7-2.107-1.145-2.996a5.19 5.19 0 014.01-1.61c2.534-.145 5.07.252 7.438 1.165.75.29 1.552.42 2.355.379l.115-.01c.78-.056 1.287-.33 1.32-.71l.016-.16c.03-.357-.342-.756-1.005-1.072-2.138-1.02-3.357-2.314-3.252-3.462.115-1.272 1.822-2.107 4.262-2.288a16.5 16.5 0 013.997.227c4.384.758 7.812 2.922 7.639 4.816-.102 1.137-1.491 1.972-3.716 2.24-.727.086-1.183.358-1.219.727-.035.403.43.86 1.211 1.199l.199.087c.764.32 1.588.476 2.416.455a18.11 18.11 0 017.4 1.407 6.818 6.818 0 013.518 2.732c.469.982.102 1.857-1.035 2.47z" fill="#71FFA9"/></g><defs><filter id="filter0_f_72_578" x="0" y="0" width="82.847" height="53" filterUnits="userSpaceOnUse" color-interpolation-filters="sRGB"><feFlood flood-opacity="0" result="BackgroundImageFix"/><feBlend in="SourceGraphic" in2="BackgroundImageFix" result="shape"/><feGaussianBlur stdDeviation="3.5" result="effect1_foregroundBlur_72_578"/></filter></defs></svg>