<svg width="69" height="51" fill="none" xmlns="http://www.w3.org/2000/svg"><g filter="url(#filter0_f_72_352)"><path d="M63.873 37.597l-3.597 6.505c-2.138 3.868-10.646 3.977-22.226-.355C22.705 38.007 7.688 26.61 4.575 18.344a5.805 5.805 0 01-.046-4.94l3.597-6.505a5.806 5.806 0 00.046 4.94c3.113 8.267 18.13 19.663 33.474 25.403 11.581 4.332 20.089 4.223 22.227.355z" fill="#37AB65"/><path d="M30.354 7.254c15.346 5.74 30.36 17.135 33.473 25.404 3.113 8.266-6.835 10.324-22.18 4.584-15.345-5.74-30.362-17.136-33.475-25.403C5.06 3.571 15.01 1.514 30.354 7.254z" fill="#71FFA9"/><path d="M62.435 32.137c-2.962-7.867-17.2-18.672-31.799-24.133C16.036 2.542 6.6 4.492 9.563 12.359c2.962 7.867 17.2 18.671 31.801 24.132 14.599 5.462 24.034 3.513 21.071-4.354z" fill="#49D581"/><path d="M63.827 32.658c-.05-.13-.1-.258-.155-.391a15.353 15.353 0 00-.786-1.6 22.71 22.71 0 00-.762-1.24 33.689 33.689 0 00-4.35-5.169A69.34 69.34 0 0046.33 15.29a87.961 87.961 0 00-13.133-6.907 53.637 53.637 0 00-1.105-.452 61.477 61.477 0 00-1.737-.677l-.247-.092a56.418 56.418 0 00-1.762-.624c-.469-.16-.93-.313-1.386-.455A39.134 39.134 0 0015.414 4c-.456.003-.892.02-1.309.053a10.23 10.23 0 00-4.059 1.037 5.086 5.086 0 00-1.136.807h-.002A4.08 4.08 0 008.127 6.9a4.531 4.531 0 00-.517 2.477c.01.214.036.433.07.657a8.597 8.597 0 00.355 1.429h.003c.042.125.086.25.133.377.192.504.413.996.664 1.473 4.198 8.1 18.359 18.522 32.81 23.929a43.256 43.256 0 0015.29 3.248c.124-.002.252-.006.375-.011l.105-.005c.136-.006.272-.015.403-.025.12-.006.239-.017.352-.028l.29-.031.23-.028c.083-.008.164-.019.244-.033a2.54 2.54 0 00.209-.033c.1-.014.197-.03.294-.05.1-.017.2-.039.297-.061.07-.011.137-.028.2-.044.087-.017.17-.04.25-.062l.101-.027c.077-.02.155-.039.23-.064.111-.03.22-.067.325-.103l.02-.005.217-.08.089-.034c.105-.04.205-.08.305-.125l.167-.075.033-.016.172-.084.009-.005c.064-.03.125-.064.186-.1l.22-.125.105-.07a3.13 3.13 0 00.17-.113l.08-.058.167-.125.022-.017.164-.138.033-.03.053-.048.125-.12.047-.047.15-.163.034-.039a2.5 2.5 0 00.152-.191l.108-.15.018-.028.033-.042.025-.041.014-.022c.033-.056.069-.111.1-.17a5.77 5.77 0 00-.03-4.965zm-22.462 3.834C27.72 31.387 14.392 21.618 10.288 13.939a13.273 13.273 0 01-.725-1.58 4.807 4.807 0 01.906-5.843h.003a5.35 5.35 0 011.242-.766 8.353 8.353 0 011.608-.527 14.933 14.933 0 013.431-.316c.822.01 1.642.06 2.459.153 1.37.159 2.73.393 4.073.701.828.189 1.68.408 2.564.658a63.9 63.9 0 014.723 1.56l.064.024c.389.147.778.294 1.167.45.67.263 1.336.534 2 .82a83.789 83.789 0 0111.758 6.197 42.734 42.734 0 0116.875 16.667c2.961 7.866-6.474 9.817-21.07 4.355z" fill="#71FFA9"/><path d="M57.148 33.177l-5.804-2.17-3.63-9.65-11.18 2.31-8.462-6.421-8.408-6.38 2.237 5.936 1.398 3.711-5.801-2.169-.006-.003.094.12c.064.08.131.158.198.238l.006.003 6.15 2.3-1.56-4.142-1.92-5.101 7.214 5.476 9.016 6.84 10.75-2.225 3.481 9.246 6.149 2.3.005.002a1.34 1.34 0 00.053-.147l.025-.072-.006-.002zm-1.064 1.534l-8.065-3.019-2.437-6.468-7.848 1.625-11.849-8.993 2.436 6.469-8.065-3.015-.01-.006.096.094.34.317.01.005 8.271 3.093-2.284-6.06 11.208 8.504 7.423-1.537 2.284 6.061 8.268 3.093.011.006.172-.128.047-.039-.008-.002z" fill="#71FFA9"/><path d="M57.662 30.996l-.003-.01-.017-.059-.01-.044-.023-.072-.02-.058-.01-.04-.028-.091-.009-.025-.03-.086-.006-.02-.036-.1-.008-.024-.04-.106a8.293 8.293 0 00-.216-.527 20.535 20.535 0 00-4.192-5.687c-.109-.11-.22-.218-.33-.33a44.942 44.942 0 00-2.534-2.302 58.338 58.338 0 00-5.632-4.158 64.813 64.813 0 00-1.875-1.179l-.048-.03a84.897 84.897 0 00-.989-.589c-.497-.288-1-.573-1.508-.854a82.47 82.47 0 00-1.026-.552 63.964 63.964 0 00-7.42-3.349 49.973 49.973 0 00-3.826-1.264h-.002a33.552 33.552 0 00-3.026-.738c-.32-.067-.633-.122-.941-.172a22.615 22.615 0 00-1.131-.166 15.626 15.626 0 00-4.943.06l-.141.031-.004.003a3.863 3.863 0 00-3.137 2.038 3.848 3.848 0 00.07 3.737c.172.448.373.885.604 1.306.55 1 1.194 1.944 1.922 2.822a31.788 31.788 0 002.828 3.015 62.873 62.873 0 0017.789 11.36c.875.374 1.756.726 2.634 1.057.875.327 1.73.622 2.561.884a16.839 16.839 0 0013.67.408 3.197 3.197 0 001.113-1.54 4.455 4.455 0 00-.03-2.549zm-.509 2.184l-.025.072a3.07 3.07 0 01-1.036 1.462l-.047.038-.172.128a15.894 15.894 0 01-12.141-.22l-.022-.004a48.433 48.433 0 01-2.248-.719c-.259-.092-.52-.183-.783-.28l-.067-.025-.073-.028-.091-.033-.061-.022-.153-.056-.153-.058-.061-.023-.091-.035-.076-.028-.066-.028a55.472 55.472 0 01-2.698-1.112A61.38 61.38 0 0120.68 21.715l-.338-.317-.097-.094a31.729 31.729 0 01-2.462-2.604c-.067-.08-.133-.159-.197-.24l-.095-.118a21.877 21.877 0 01-.633-.83 11.62 11.62 0 01-.29-.41 14.031 14.031 0 01-.754-1.21 3.19 3.19 0 01-.12-.222 8.978 8.978 0 01-.284-.563l-.005-.011-.053-.114-.016-.042-.023-.052-.039-.083-.014-.036-.03-.075-.011-.028-.04-.097-.01-.025-.04-.103c-1.244-3.306.298-5.29 3.757-5.764l.005-.003h.004a21.539 21.539 0 017.795.738h.003c1.72.434 3.414.966 5.073 1.592a64.48 64.48 0 0110.543 5.132 35.548 35.548 0 0114.558 13.917l.039.103.008.025.033.097.009.022.025.075.011.033.025.083.014.042.014.05.028.092.005.022c.054.187.099.377.133.568.134.634.114 1.29-.058 1.915z" fill="#71FFA9"/><path d="M30.991 9.49l-.189-.07-.46-.166.074.175.125.288.628.227-.178-.454zm-1.153-.047l-.208-.436c-.203-.07-.406-.138-.606-.202l.248.477c.161.053.319.105.48.16l.103.036-.017-.035zm4.248 1.284a53.932 53.932 0 00-.68-.289l.094.422c.22.092.436.183.656.278l-.07-.411zm-5.364-2.022l-.562-.178.278.485c.178.059.361.114.542.175l-.258-.482zm6.306 2.433c-.209-.092-.417-.186-.628-.275l.058.405c.204.086.404.175.606.266l-.036-.396zm.736.332l.011.386c.214.097.425.197.64.297l.013-.372a33.669 33.669 0 00-.664-.31zm.909.428l-.022.369c.214.1.427.205.639.308l.047-.358-.664-.32zM25.29 7.73a31.72 31.72 0 00-.636-.15 32.482 32.482 0 00-3.861-.643 16.423 16.423 0 00-4.707.125l-.075.013.709.542a10.32 10.32 0 011.128-.167 24.072 24.072 0 017.823.796l-.38-.516zm18.59 8.106a73.484 73.484 0 00-3.454-2.017l-.155.3c1.061.582 2.1 1.187 3.117 1.814a63.47 63.47 0 017.61 5.448l.552-.03a65.363 65.363 0 00-7.67-5.515zM30.802 9.42c-.127.003-.258.009-.386.009l.125.288.628.227-.178-.454-.189-.07zm-1.05.023l.103.035-.017-.035h-.085zM15.876 7.107c-.12.027-.239.055-.353.086l.725.535a6.27 6.27 0 01.342-.083l-.714-.538zm-.725.194a7.164 7.164 0 00-.306.103l.75.527.295-.1-.739-.53zm-.453.158c-.089.036-.18.075-.266.114l.402.275.364.246.239-.102h.003l.014-.006-.756-.527zM51.79 21.554l-.56.025c.152.13.305.26.452.39l.578-.01c-.156-.136-.311-.272-.47-.405zm1.003.877l-.595-.006c.153.139.303.274.45.41l.615.023c-.156-.142-.311-.286-.47-.428zm.64.585l-.62-.028c.147.139.291.274.436.413l.633.04c-.147-.142-.3-.284-.45-.425zM13.248 8.306a4.331 4.331 0 00-.202.185l.814.488c.064-.06.128-.122.197-.18l-.809-.494zm-.405.404a2.402 2.402 0 00-.133.164l.825.475.128-.159-.82-.48zm-.3.405c-.045.07-.086.142-.125.216l.836.459c.04-.07.078-.142.122-.209l-.833-.466zm43.26 16.306l-.703-.111c.113.128.225.252.336.38l.717.127a20.71 20.71 0 00-.35-.396zm.739.854l-.731-.144.259.313.738.156a12.86 12.86 0 00-.266-.325zm.622.777l-.753-.172c.103.13.2.26.294.388l.765.186c-.098-.133-.2-.269-.306-.402zM12.042 10.53a4.072 4.072 0 00-.028.283l.85.405.028-.272-.85-.416zm-.034.388c-.003.098-.006.195-.003.295l.853.39a4.937 4.937 0 010-.282l-.85-.403zm.867 1.007l-.85-.377c.008.097.019.194.033.294l.85.37a5.311 5.311 0 01-.034-.287zm45.801 17.366l-.808-.253c.064.11.125.219.183.328l.811.263c-.058-.114-.122-.225-.186-.338zM12.93 12.355l-.847-.363a5 5 0 00.064.333l.845.352a7.135 7.135 0 01-.062-.322zm46.027 17.448l-.817-.268.17.338.822.283a12.935 12.935 0 00-.175-.353zm.358.752l-.83-.293c.05.113.097.23.144.344l.834.307c-.048-.116-.095-.236-.148-.358zM13.37 13.89l-.833-.309c.047.12.094.239.147.358l.828.294a13.23 13.23 0 01-.142-.343zm.32.732l-.822-.28.175.35.814.265a9.097 9.097 0 01-.168-.335zM59.852 32.17l-.847-.352c.024.108.044.213.063.319l.848.363a4.933 4.933 0 00-.064-.33zM13.994 15.215l-.047-.085-.811-.264.058.108.128.23.806.252a5.216 5.216 0 01-.134-.24zm45.947 17.437l-.85-.368c.013.094.024.188.033.283l.85.38a5.606 5.606 0 00-.033-.295zm-.8.239c.002.098.002.192 0 .283l.85.403a3.6 3.6 0 00.002-.294l-.852-.392zm-.006.386a2.915 2.915 0 01-.028.274l.853.416c.011-.094.02-.188.025-.282l-.85-.408zM15.289 17.224l-.764-.183c.097.133.2.266.303.402l.753.172c-.1-.13-.197-.261-.292-.391zm.703.91l-.067-.084-.742-.155.073.086.194.239.731.14-.189-.227zm.564.668l-.717-.125c.117.13.23.264.35.394l.703.114c-.114-.127-.225-.255-.336-.383zm42.193 15.906c-.04.07-.078.141-.123.208l.834.466a3.04 3.04 0 00.125-.216l-.837-.458zm-.281.441c-.042.053-.083.108-.128.158l.822.483.131-.167-.825-.474zm-.325.372a3.1 3.1 0 01-.195.18l.81.497c.068-.061.138-.125.202-.19l-.817-.487zM18.987 21.324c-.084-.075-.162-.153-.242-.23l-.636-.042.25.238.2.189.62.027-.192-.182zm.355.335l-.614-.022c.156.142.311.286.47.427l.597.006c-.152-.136-.303-.275-.453-.41zm.964.866l-.575.011c.153.136.308.272.467.405l.561-.025-.453-.391zM56.815 36.41c-.084.036-.167.075-.256.109l.759.526c.089-.035.177-.074.264-.113l-.767-.522zM20.99 23.11l-.553.032c.172.147.347.291.525.438l.534-.046c-.17-.142-.34-.284-.506-.425zm35.428 13.464c-.095.036-.192.07-.292.1l.742.532c.102-.033.205-.069.302-.105l-.752-.527zm-.65.208l-.34.083.717.538c.12-.027.236-.055.35-.085l-.727-.536zm-.47.111c-2.999.427-6.054.21-8.962-.635l.38.516a22.112 22.112 0 009.293.66l-.71-.54zm-19.075-4.252a70.224 70.224 0 01-12.816-7.604l-.464.102a72.845 72.845 0 0013.291 7.887l-.011-.385zm1.316.588l-.605-.267.033.397.631.275-.059-.405zm6.027 2.255c-.18-.056-.364-.114-.547-.175l.258.483c.189.06.378.122.567.18l-.278-.488zm-5.068-1.848a58.9 58.9 0 01-.655-.277l.069.41c.228.098.453.192.68.286l-.094-.419zm4.231 1.579c-.194-.064-.389-.13-.583-.197l.225.471c.203.07.403.136.606.203l-.248-.477zm-1.272-.436c-.208-.074-.416-.152-.625-.23l.178.455.647.236-.2-.46zm19.348-3.252l-1.293-.484-.836-.313-.125-.046c.133.352.241.713.325 1.08l.128.053.848.352 1.31.544a9.044 9.044 0 00-.357-1.186z" fill="#71FFA9"/><path d="M58.939 32.083l.021.144.128.058.854.368 1.312.57-.021-.16-1.318-.56-.848-.367-.128-.053zm.054.426c.011.11.015.217.018.322l.13.06.852.391 1.318.605a4.272 4.272 0 00-.02-.353l-1.317-.587-.851-.38-.13-.058zm-.493 2.336c-.05.079-.102.157-.158.232l.126.072.827.475 1.28.736c.061-.083.119-.17.175-.255l-1.29-.722-.833-.467-.127-.071zm-.283.39a4.31 4.31 0 01-.195.211l.123.074.815.489 1.263.757c.075-.075.144-.154.214-.232l-1.273-.745-.823-.481-.124-.073zm.792-2.125l-.005.107.133.059.848.405 1.318.628.005-.112-1.318-.623-.848-.4-.133-.063zm-2.572 3.324l-.15.048.129.09.752.528 1.152.81.16-.059-1.163-.804-.758-.527-.122-.086zm-.439.15a2.01 2.01 0 01-.357.104l.127.094.728.535 1.11.815c.133-.028.265-.066.394-.113l-1.133-.812-.74-.53-.129-.093zm-.698.186l-.122.032.122.09.71.543 1.083.82.138-.031-1.088-.82-.715-.538-.128-.096zm3.679-3.283a3.35 3.35 0 01-.358 1.15l.127.07.838.46 1.296.71a3.77 3.77 0 00.394-1.268l-1.317-.643-.85-.416-.13-.063zm-1.153 2.139a4.323 4.323 0 01-.528.374 4.255 4.255 0 01-.61.324l.128.087.766.521 1.172.799a4.32 4.32 0 00.671-.356c.204-.123.399-.261.583-.412l-1.25-.767-.809-.495-.123-.075zM42.98 35.23l-.294-.095.043.08.245.479.379.73.314.1-.389-.734-.256-.48-.043-.08zm-.87-.282l-.688-.245.038.075.197.463.31.709.752.266-.347-.724-.224-.474-.038-.07zm-1.307-.468l-.23-.08.46 1.214.25.085-.272-.692-.181-.458-.027-.07zm5.471 1.694l-1.358-.354-1.394-.411.043.075.278.488.428.751 1.534.452c.5.134.995.26 1.494.39l-.583-.791-.38-.516-.062-.084z" fill="#71FFA9"/><path d="M38.483 33.566l.015.07.093.42.142.644.58.242c.19.077.38.15.572.225l1.145.445-.457-1.214-1.041-.406c-.175-.069-.348-.135-.523-.205l-.526-.221zm-.957-.402l.011.064.059.405.09.628.331.139-.107-.629-.069-.41-.01-.069-.305-.128zm-1.305-.586l.006.064.005.383.016.592.773.346-.053-.602-.037-.4-.006-.063-.704-.32zM23.29 24.871l-.08.016-.474.102-.715.143.213.165.71-.154.464-.107.075-.015-.192-.15z" fill="#71FFA9"/><path d="M21.586 23.525l-.092.008-.534.048-.814.073c.306.248.604.496.92.744l.954.736.717-.148.47-.097.083-.017-.87-.671c-.285-.225-.555-.451-.834-.676zm-.733-.614l-.096.006-.56.026-.859.037.25.213.849-.047.55-.038h.09l-.224-.197zm-.963-.841h-.097l-.596-.006-.916-.01c.176.166.37.334.564.499l.884-.017.577-.01.096-.002a14.854 14.854 0 01-.512-.453zm-3.6-3.686l-.11-.022-.73-.143-1.128-.22c.134.16.27.32.41.482l1.108.196.715.126.108.02a27.093 27.093 0 01-.374-.44zm-.594-.744l-.114-.026-.753-.17-1.164-.265c.123.158.247.317.375.475l1.144.24.74.156.114.023a17.56 17.56 0 01-.342-.433zm3.583 3.87l-.102-.005-.618-.026-.95-.043.181.165.94.037.613.022h.101l-.165-.15zm-5.296-6.508l-.128-.043-.811-.271-1.264-.416.096.187 1.258.41.811.26.128.038-.09-.165zm-.344-.723l-.128-.046-.827-.295-1.282-.457c.062.14.126.281.194.424l1.272.435.82.281.126.043a10.39 10.39 0 01-.175-.385zm-.189-.465l-.128-.048-.838-.314-1.29-.485.053.139 1.29.474.833.309.128.048-.048-.123zm3.549 5.387l-.107-.017-.702-.112-1.09-.174c.62.69 1.295 1.386 2.027 2.089l.983.066.635.042.097.006a36.029 36.029 0 01-1.843-1.9zm-2.748-3.707l-.124-.038-.806-.251-1.244-.387c.384.67.808 1.316 1.269 1.935l1.178.286.764.186.116.028a17.943 17.943 0 01-1.153-1.759z" fill="#71FFA9"/><path d="M10.84 11.782c.052.196.09.386.153.584l.2.603 1.293.483.834.312.127.048-.182-.548c-.058-.182-.092-.354-.137-.53l-.136-.057-.846-.352-1.307-.543zm-.09-.508l.022.16 1.312.559.848.362.134.059-.022-.144-.138-.059-.848-.367-1.307-.57zm-.059-.666l.016.351 1.318.586.848.384.133.058-.016-.325-.133-.058-.854-.394-1.312-.602zm.736-2.471l-.176.255 1.291.725.832.463.128.07.155-.23-.123-.069-.821-.474-1.286-.74zm.353-.405l-.214.234 1.275.746.822.48.128.074.186-.219-.117-.069-.81-.484-1.27-.762zm-1.078 2.455l-.01.112 1.317.618.848.405.139.064.005-.107-.139-.064-.848-.405-1.312-.623zm2.97-3.605l-.15.063 1.174.815.758.522.106.08.139-.058-.107-.075-.747-.522-1.173-.825zm.718-.222c-.142.03-.262.076-.391.115l1.15.826.74.53.109.078c.117-.04.236-.075.356-.104l-.106-.078-.726-.535-1.132-.833zm.51-.125l-.133.038 1.11.836.714.532.102.08.128-.032-.102-.074-.709-.538-1.11-.842zm-3.778 2.386l-.143.293c-.039.103-.07.21-.106.313a4.32 4.32 0 00-.15.658l1.318.644.85.416.129.063a3.95 3.95 0 01.136-.598c.033-.094.059-.192.098-.283l.13-.267-.13-.07-.836-.459-1.296-.71zm2.12-1.858c-.12.048-.236.104-.347.168-.109.062-.228.118-.327.185-.2.125-.39.265-.57.42l1.252.768.807.495.122.075a4.28 4.28 0 01.516-.383c.091-.06.2-.11.3-.166.1-.06.204-.112.313-.155l-.112-.077-.765-.52-1.19-.81zm15.402 1.305a10.074 10.074 0 00-.32-.106l.398.743.258.481.04.074c.094.028.193.061.29.095l-.039-.074-.247-.478-.38-.735zm1.389.477c-.255-.093-.502-.18-.75-.262l.347.724.226.47.036.075c.223.075.451.153.681.237l-.032-.072-.2-.462-.308-.71zm.933.337l-.25-.09.271.697.182.453.026.075.23.08-.027-.07-.17-.447-.262-.698zm-3.233-1.106c-.523-.168-1.026-.306-1.539-.456-.253-.073-.5-.132-.748-.199-.25-.065-.503-.134-.742-.188l.587.797.38.516.058.078c.219.05.447.112.674.172.227.06.449.114.681.18.465.137.922.26 1.397.415l-.043-.077-.278-.488-.427-.75zm3.235 1.107l.262.696.17.451.025.068 1.042.402c.349.137.7.285 1.047.425l-.015-.066-.092-.42-.143-.647c-.384-.155-.77-.317-1.153-.467l-1.143-.442zm3.013 1.214l.107.628.07.41.01.064.299.133-.006-.064-.058-.405-.091-.623-.33-.143zm.993.431l.058.607.032.4.006.058.709.32-.005-.059-.011-.383-.01-.591-.78-.352zm1.476.682l-.022.57-.016.373v.058l.235.112v-.059l.026-.367.032-.57-.256-.117zm.96.455l-.073.552-.046.358-.007.053c.497.25.995.489 1.488.751.247.13.492.255.74.386l.735.4.024-.046.157-.3.242-.463-.809-.44c-.269-.142-.54-.282-.814-.424-.54-.287-1.09-.552-1.637-.827zm15 9.638l-.859.048-.555.032-.08.005.23.192h.085l.56-.027.87-.037-.251-.213zm.747.639l-.897.016-.581.01h-.08l.512.453.085.006.598.005.928.01-.566-.5zm4.101 4.071l-1.105-.196-.717-.127-.11-.02c.127.147.265.296.377.44l.11.021.73.144 1.13.22c-.127-.158-.276-.322-.415-.482zm.693.825l-1.14-.239-.741-.155-.114-.024c.12.146.24.291.342.433l.115.026.754.171 1.161.264a10.865 10.865 0 00-.377-.476zm-3.737-3.948l-.95-.032-.614-.021-.09-.005.16.154h.09l.62.027.96.042-.176-.165zm5.904 7.144l-1.254-.406-.814-.262-.125-.04c.033.053.062.11.087.167l.128.042.816.27 1.258.414a2.785 2.785 0 00-.096-.185zm.278.553l-1.264-.432-.823-.282-.131-.045c.067.132.128.26.177.385l.13.047.83.296 1.275.455a4.346 4.346 0 00-.194-.424zm.351.798l-1.286-.474-.832-.303-.133-.054.053.128.128.048.838.314 1.29.485-.058-.144zm-5.883-7.877l-.982-.064-.635-.043-.096-.005.491.474.47.474.234.24.214.234.442.474.096.016.704.112 1.094.176-.48-.517-.24-.261-.256-.261-.512-.527-.544-.522zm3.786 4.232l-1.18-.285-.762-.185-.116-.029c.12.153.214.3.319.448.098.147.212.299.302.443.178.29.38.587.529.867l.127.04.807.25 1.24.386c-.166-.309-.382-.633-.58-.951-.102-.161-.224-.328-.335-.49-.115-.163-.222-.326-.351-.493z" fill="#71FFA9"/></g><defs><filter id="filter0_f_72_352" x="0" y="0" width="68.404" height="51" filterUnits="userSpaceOnUse" color-interpolation-filters="sRGB"><feFlood flood-opacity="0" result="BackgroundImageFix"/><feBlend in="SourceGraphic" in2="BackgroundImageFix" result="shape"/><feGaussianBlur stdDeviation="2" result="effect1_foregroundBlur_72_352"/></filter></defs></svg>