<svg width="122" height="76" fill="none" xmlns="http://www.w3.org/2000/svg"><path d="M119.921 25.494l1.377 12.884c.106 1 .116 2.007.029 3.008-1.449 16.938-29.488 32.241-62.502 34.112-31.028 1.758-55.578-8.963-57.22-24.32L.23 38.296C1.87 53.65 26.42 64.372 57.45 62.614c33.013-1.87 61.052-17.173 62.501-34.111a15.665 15.665 0 00-.029-3.009z" fill="#37AB65"/><path d="M62.703 1.172c33.014-1.87 58.694 10.389 57.245 27.33-1.449 16.938-29.489 32.24-62.502 34.111C24.43 64.483-1.252 52.225.198 35.286c1.45-16.94 29.489-32.243 62.505-34.114z" fill="#71FFA9"/><path d="M62.574 2.708C31.156 4.488 4.57 18.998 3.19 35.118 1.812 51.234 26.162 62.856 57.578 61.076c31.412-1.78 57.996-16.287 59.376-32.406 1.379-16.12-22.97-27.743-54.38-25.963z" fill="#49D581"/><path d="M120.002 26.742a13.39 13.39 0 00-.039-.724l-.012-.237-.005-.04v-.005l-.027-.229a18.24 18.24 0 00-5.847-11.123 29.99 29.99 0 00-3.164-2.67 36.216 36.216 0 00-2.958-1.956 43.128 43.128 0 00-2.453-1.358 51.874 51.874 0 00-4.506-2.038 57.77 57.77 0 00-3.96-1.418 72.085 72.085 0 00-6.475-1.751 80.233 80.233 0 00-2.289-.475c-.39-.078-.778-.151-1.167-.22a94.748 94.748 0 00-8.585-1.125 111.999 111.999 0 00-15.81-.201A88.586 88.586 0 007.6 21.292c-.705.7-1.364 1.413-1.978 2.14-.104.123-.205.242-.301.366a26.05 26.05 0 00-1.393 1.838c-.169.246-.338.493-.498.745-.243.375-.472.75-.687 1.129a31.69 31.69 0 00-.417.759c-.133.255-.256.507-.38.763s-.238.512-.348.768a19.16 19.16 0 00-.824 2.332c-.074.26-.137.52-.201.781a15.2 15.2 0 00-.23 1.184l-.059.398c-.037.26-.064.526-.087.79a15.325 15.325 0 00.032 3.009l.004.023c.023.215.051.43.083.64.032.224.069.444.114.663.027.164.064.33.101.489l.042.16.008.032c.046.197.096.39.152.58.054.202.114.403.182.6l.07.201c.04.141.091.283.146.42l.037.092c.068.188.142.374.224.562v.005l.027.06c.078.19.166.387.261.58l.019.036c.091.202.192.398.297.6v.004c.105.206.22.416.34.617.242.42.499.836.777 1.243v.005c.137.2.28.397.427.6.123.168.251.337.384.501.105.133.21.27.325.403l.133.164.096.114v.006c.078.091.15.182.234.27l.215.242c.155.178.315.351.485.525l.407.416.083.083.174.174.265.25c.138.138.28.27.421.394.147.137.298.27.45.402l.058.05c.129.115.257.225.39.33.197.169.398.334.6.489l.174.137.234.182.137.106c.114.091.233.183.352.26l.193.147c.118.091.242.178.366.265.179.128.361.251.544.375.193.137.39.27.591.398l.311.2c.147.097.298.188.45.28.141.09.283.178.43.265l.224.132.358.21.242.142.361.206c.193.11.39.215.587.324l.132.069.307.16c.193.105.384.206.581.302.275.142.555.279.834.411.28.137.563.27.851.402.486.23.985.449 1.489.659h.004a48.21 48.21 0 002.102.846l.005.004.462.17h.004l.472.173.046.019c.302.104.608.214.915.315.216.078.431.15.65.22.395.132.793.26 1.195.379a45 45 0 001.676.494c.238.073.48.137.72.2.269.079.544.147.818.216.226.059.454.118.683.174l.014.004c.23.06.462.114.696.17l.297.068h.004l.06.013.247.06c.303.072.61.142.92.205.156.037.317.074.477.105l.257.056.324.064c.275.059.55.114.83.164.169.037.343.068.517.096l.398.078c.216.037.43.078.65.114.22.041.44.078.665.114l.338.06.238.037.481.072a82.74 82.74 0 003.063.42c.5.065 1.007.12 1.515.175.33.032.66.068.994.096.43.046.866.082 1.304.114a65.896 65.896 0 002.162.155c.38.023.76.046 1.14.065.65.036 1.305.06 1.964.077h.005c.316.014.627.023.943.028.307.009.613.013.92.018h.005c1.044.018 2.102.02 3.173.005h.142c.315-.01.632-.014.952-.023.21 0 .426-.01.636-.014l.261-.009.34-.01a75.85 75.85 0 001.716-.072c.343-.014.691-.033 1.04-.05.53-.033 1.062-.064 1.588-.101.674-.046 1.342-.101 2.01-.16A85.724 85.724 0 00112.9 42.144c.229-.234.453-.472.673-.709.11-.12.22-.238.325-.361.216-.238.426-.476.627-.718.106-.123.207-.243.302-.366.202-.242.394-.484.582-.732.284-.365.554-.735.81-1.105.174-.247.339-.495.499-.746a20.51 20.51 0 002.944-6.93c.056-.261.102-.521.143-.787a16.441 16.441 0 00.197-2.073c.009-.293.009-.585 0-.875zm-3.045 1.929c-1.379 16.042-27.71 30.484-58.917 32.376l-.458.027a82.9 82.9 0 01-1.841.087 90.241 90.241 0 01-3.118.083c-.289.004-.577.008-.86.004-.29.01-.573.01-.852 0a6.889 6.889 0 01-.426 0c-.261 0-.517-.004-.774-.009a92.907 92.907 0 01-3.214-.096 91.25 91.25 0 01-13.754-1.632 70.557 70.557 0 01-2.903-.64l-.229-.06a6.564 6.564 0 01-.43-.105c-.408-.1-.81-.205-1.21-.31-.489-.133-.974-.27-1.455-.411a61.456 61.456 0 01-3.883-1.277 53.407 53.407 0 01-2.747-1.087C8.953 50.93 2.465 43.657 3.193 35.117 4.57 18.997 31.159 4.487 62.573 2.71c31.412-1.78 55.761 9.842 54.383 25.96zM29.611 58.81l.105.083.124-.023-.229-.06z" fill="#71FFA9"/><path d="M115.313 28.764l-4.596.26c-.07.81-.209 1.612-.416 2.398l4.553-.046c.096-.437.214-.873.289-1.31l.17-1.302zM94.675 48.02l-.38.21 3.126 1.49.406-.23-3.152-1.47zm13.833-12.323a23.312 23.312 0 01-2.349 3.314l4.183.647.73-.892c.23-.301.438-.602.657-.903.459-.602.79-1.214 1.18-1.822l-4.401-.344zm-5.674 6.682a41.751 41.751 0 01-3.891 3.009l3.538 1.232c.397-.26.759-.533 1.124-.802.367-.271.749-.535 1.095-.814.686-.553 1.397-1.1 2.02-1.67l-3.886-.955z" fill="#71FFA9"/><path d="M94.294 48.23a64.008 64.008 0 01-3.571 1.803l2.797 1.653 1.986-.963 1.915-1.003-3.127-1.49zm-35.922 9.614l-.516.031-.202 2.361.56-.04.158-2.352zm25.354-4.978a86.438 86.438 0 01-5.997 1.846l1.61 2.078 1.666-.471.835-.235.816-.255 1.63-.51 1.592-.548-2.152-1.905zM71.07 56.243c-2.12.408-4.29.752-6.496 1.025l.4 2.3c1.196-.13 2.377-.327 3.566-.497.592-.088 1.176-.198 1.768-.297.588-.106 1.18-.197 1.76-.32l-.998-2.21z" fill="#71FFA9"/><path d="M53.21 58.03l-.617 2.37c.843-.018 1.68-.022 2.525-.053l2.535-.111.203-2.361a98.63 98.63 0 01-4.646.154zm-30.499-5.745l-3.414 1.862.393.178 3.372-1.874-.35-.166zm16.249 4.76l-1.92 2.285 1.642.243c.55.073 1.114.135 1.672.202 1.102.147 2.254.228 3.387.334l1.356-2.35a81.973 81.973 0 01-6.139-.713zM27.569 54.27l-2.963 2.035c.447.17.922.315 1.397.466.476.147.935.305 1.422.443.979.272 1.94.558 2.967.794l2.475-2.176a59.308 59.308 0 01-5.298-1.562z" fill="#71FFA9"/><path d="M19.727 50.7l-3.68 1.716 1.582.89 1.67.84 3.414-1.86a38.152 38.152 0 01-2.986-1.585zM9.433 34.764l-4.597.26-.014.286 4.59-.282.021-.264zm3.125 9.881L8.23 45.806l.667.8.335.396.37.386.748.772.827.748 4.073-1.42a21.092 21.092 0 01-2.693-2.843zM9.58 38.18l-4.569.565c.102.602.24 1.197.416 1.781.082.296.213.585.316.876.099.297.216.587.35.87l4.493-.862a13.512 13.512 0 01-1.005-3.23z" fill="#71FFA9"/><path d="M5.296 32.411c-.091.435-.215.874-.284 1.307l-.176 1.306 4.597-.26c.07-.81.209-1.612.415-2.398l-4.552.045zM22.73 14.065l-.407.232 3.152 1.47.38-.21-3.126-1.492zM9.806 24.13l-.73.891c-.23.3-.438.603-.657.904-.459.602-.79 1.214-1.18 1.82l4.401.346a23.312 23.312 0 012.35-3.314l-4.184-.648zm7.862-6.961c-.398.258-.76.532-1.125.801-.366.271-.749.535-1.094.813-.686.554-1.397 1.1-2.02 1.67l3.886.955a41.777 41.777 0 013.89-3.009l-3.537-1.23z" fill="#71FFA9"/><path d="M26.63 12.1l-1.986.965-1.914 1 3.126 1.492a62.824 62.824 0 013.57-1.803L26.632 12.1zm35.872-8.549l-.566.04-.157 2.35.522-.031.2-2.359zM40.81 6.995l-1.664.472-.835.237-.816.255-1.63.51-1.592.544 2.151 1.908a86.507 86.507 0 015.996-1.847l-1.61-2.079zM55.172 4.22c-1.197.13-2.377.324-3.566.496-.592.089-1.175.2-1.768.299-.588.104-1.18.195-1.76.319l.998 2.208a99.515 99.515 0 016.496-1.025l-.4-2.297z" fill="#71FFA9"/><path d="M62.5 3.551l-.2 2.359a98.562 98.562 0 014.638-.155l.618-2.366c-.843.017-1.68.02-2.525.051l-2.53.111zm37.957 5.912l-3.372 1.872.352.166 3.413-1.862-.393-.176zM76.406 3.676l-1.354 2.351a81.18 81.18 0 016.138.713l1.918-2.285-1.642-.242c-.552-.074-1.115-.135-1.672-.203-1.103-.144-2.254-.224-3.388-.333zm13.35 2.103L87.28 7.953c1.852.456 3.621.98 5.298 1.562L95.54 7.48c-.446-.167-.922-.31-1.391-.463-.481-.146-.94-.308-1.427-.442-.98-.272-1.941-.558-2.967-.795z" fill="#71FFA9"/><path d="M100.85 9.638l-3.413 1.863c1.05.5 2.044 1.029 2.985 1.585l3.68-1.717-1.582-.887-1.67-.844zm14.475 18.836l-4.591.286-.02.265 4.597-.26.014-.29zM108.97 14.88l-4.073 1.42a20.896 20.896 0 012.692 2.84l4.328-1.162-.666-.796-.336-.396-.37-.386-.748-.775-.827-.746zm5.086 6.636l-4.493.862c.469 1.03.807 2.116 1.005 3.23l4.57-.565a14.941 14.941 0 00-.416-1.784c-.082-.295-.213-.582-.311-.874a8.782 8.782 0 00-.355-.869z" fill="#71FFA9"/><path d="M110.566 25.607a13.511 13.511 0 00-1.003-3.232 16.117 16.117 0 00-1.973-3.236 20.772 20.772 0 00-2.693-2.84 28.981 28.981 0 00-4.473-3.213 38.926 38.926 0 00-2.985-1.586l-.352-.165a48.32 48.32 0 00-4.506-1.82 59.37 59.37 0 00-5.297-1.563 70.568 70.568 0 00-6.09-1.211 79.822 79.822 0 00-6.14-.714 92.312 92.312 0 00-8.113-.274c-1.525.019-3.071.07-4.638.156l-.522.031a100.51 100.51 0 00-12.701 1.6c-2.28.44-4.5.95-6.658 1.532a87.867 87.867 0 00-5.998 1.847 74.825 74.825 0 00-6.996 2.834 64.2 64.2 0 00-3.57 1.801l-.38.211a53.625 53.625 0 00-4.273 2.633 42.062 42.062 0 00-3.887 3.008 31.98 31.98 0 00-3.328 3.37 23.721 23.721 0 00-2.349 3.314 17.224 17.224 0 00-1.79 4.274 14.36 14.36 0 00-.417 2.401l-.018.26a13.137 13.137 0 00.164 3.154c.201 1.115.54 2.2 1.008 3.232a16.192 16.192 0 001.969 3.233 21.163 21.163 0 002.696 2.843 29.317 29.317 0 004.474 3.215 41.582 41.582 0 002.985 1.586l.353.165a44.29 44.29 0 003.51 1.458c.326.123.66.242.995.356 1.085.38 2.208.73 3.37 1.052.632.182 1.272.352 1.927.511 1.941.48 3.98.888 6.094 1.217 1.978.306 4.03.544 6.136.708.274.023.553.042.833.056 1.35.1 2.722.165 4.116.196a94.783 94.783 0 007.806-.133c.174-.009.348-.018.518-.032a97.85 97.85 0 006.204-.576 96.471 96.471 0 0013.154-2.556 82.878 82.878 0 005.998-1.846 75.054 75.054 0 006.997-2.83 60.84 60.84 0 003.57-1.806l.38-.205a53.126 53.126 0 004.267-2.634 41.181 41.181 0 003.892-3.013 31.747 31.747 0 003.329-3.364 23.728 23.728 0 002.349-3.315 17.204 17.204 0 001.79-4.275c.207-.786.346-1.59.417-2.4l.018-.264a12.889 12.889 0 00-.169-3.15zm-1.118 3.489c-1.194 13.966-24.312 26.589-51.536 28.13-3.38.195-6.77.205-10.151.03a81.288 81.288 0 01-6.057-.53 72.842 72.842 0 01-6.713-1.155 58.684 58.684 0 01-6.258-1.747C17.135 49.883 9.993 42.962 10.702 34.69 11.897 20.725 35.019 8.103 62.243 6.563c27.225-1.54 48.401 8.567 47.205 22.533z" fill="#71FFA9"/><path d="M96.935 19.162a12.63 12.63 0 00-7.605-1.595l-51.623 2.925-5.815 8.504 14.816-.837 1.049-1.536 28.218-1.6a2.818 2.818 0 011.694.356.663.663 0 01.229 1.002l-5.444 7.963a2.88 2.88 0 01-2.116.896l-29.614 1.678 1.049-1.54-14.817.84-5.81 8.508L75.1 41.672a20.044 20.044 0 0014.812-6.248l8.068-11.805a2.958 2.958 0 00-1.045-4.457zm-.031 4.338l-8.068 11.81a18.505 18.505 0 01-13.685 5.77L22.77 44.05l4.977-7.292 12.404-.699-1.049 1.536 31.185-1.77a4.398 4.398 0 003.247-1.362l5.443-7.968a1.01 1.01 0 00-.352-1.513 4.325 4.325 0 00-2.6-.549L46.964 26.08l-1.049 1.536-12.403.704 4.976-7.287 50.791-2.876c2.326-.247 4.67.246 6.699 1.408a2.617 2.617 0 011.406 2.896 2.612 2.612 0 01-.481 1.04z" fill="#71FFA9"/><path d="M24.482 29.75l-4.46 6.529 30.889-1.752L55.374 28l-30.893 1.75zm25.645 4.238l-28.483 1.614 3.626-5.312 28.488-1.615-3.63 5.313z" fill="#71FFA9"/></svg>