<svg width="52" height="36" fill="none" xmlns="http://www.w3.org/2000/svg"><g filter="url(#filter0_f_72_623)"><path d="M7.063 19.226l.807 4.189c.503 2.612 4.036 4.584 9.885 5.022 9.096.68 20.352-2.61 25.141-7.348a5.495 5.495 0 002.084-4.79l-.807-4.188a5.488 5.488 0 01-2.084 4.79c-4.789 4.739-16.045 8.028-25.14 7.348-5.85-.438-9.383-2.41-9.886-5.023z" fill="#37AB65"/><path d="M34.288 7.09c-9.097-.681-20.353 2.608-25.142 7.347-4.788 4.739-1.295 9.131 7.802 9.812 9.096.68 20.352-2.61 25.14-7.348 4.79-4.739 1.296-9.132-7.8-9.812z" fill="#3CAE6A"/><path d="M14.214 14.816c3.31-3.276 11.119-5.558 17.406-5.088 6.288.47 8.71 3.518 5.4 6.794-3.31 3.276-11.118 5.558-17.406 5.087-6.287-.47-8.71-3.518-5.4-6.793z" fill="#49D581"/><path d="M7.527 16.563l.072-.135c.046-.086.096-.17.146-.257a6.83 6.83 0 01.292-.44 9.126 9.126 0 01.846-1.024c.084-.09.172-.18.262-.27h.002a16.28 16.28 0 012.694-2.111A39.41 39.41 0 0129.41 7.08 40.053 40.053 0 0131.858 7c.194 0 .388.002.582.006l.066.001c.388.007.775.021 1.158.041l.052.003c.19.011.381.024.57.038a25.61 25.61 0 013.017.397c5.688 1.124 8.16 4.053 6.332 7.425a6.949 6.949 0 01-.314.52l-.003.004a8.797 8.797 0 01-.84 1.063c-.082.09-.167.178-.256.269l-.133.134c-.242.24-.5.475-.774.706a16.535 16.535 0 01-1.368 1.039v.002c-.181.122-.364.243-.553.363v.002c-.66.42-1.368.822-2.12 1.204l-.001.001a41.417 41.417 0 01-15.036 4.01c-1.76.138-3.529.145-5.29.02l-.027-.002a26.673 26.673 0 01-2.056-.232l-.161-.026c-.073-.01-.145-.023-.217-.036a18.942 18.942 0 01-.556-.101l-.254-.052-.031-.007-.21-.045h-.001l-.134-.031a19.442 19.442 0 01-.574-.142h-.003a37.869 37.869 0 01-.45-.126h-.003c-4.426-1.31-6.255-3.918-4.743-6.885zm1.17 4.002l.01.01.022.03c2.126 2 4.93 3.123 7.852 3.143.26.027.527.05.799.07.27.022.542.038.816.051 8.488.4 18.662-2.669 23.068-7.03 3.964-3.922 1.956-7.594-4.34-8.903a24.324 24.324 0 00-3.071-.419c-.134-.01-.27-.018-.406-.027-8.566-.52-18.999 2.577-23.477 7.009-2.257 2.232-2.578 4.385-1.272 6.066z" fill="#49D280"/><path d="M9.97 14.499c4.478-4.432 14.91-7.53 23.478-7.009.135.01.271.017.405.027 1.032.074 2.057.214 3.071.419 6.296 1.309 8.304 4.981 4.34 8.903-4.406 4.361-14.58 7.43-23.068 7.03a31.304 31.304 0 01-1.615-.12 11.572 11.572 0 01-7.852-3.144l-.023-.03-.008-.01c-1.306-1.681-.985-3.834 1.272-6.066zm.921 1.968l-.088.201c-.059.13-.109.265-.15.402l1.147-.108c.039-.126.084-.25.137-.37l.084-.185c.03-.062.068-.125.1-.187L11 16.267c-.035.065-.076.133-.108.2zm1.351-1.798c-.181.19-.37.38-.526.572l1.067.032c.142-.177.317-.352.485-.528l.063-.058-1.021-.081-.068.063zm1.99-1.584l-.282.19-.27.191c-.183.128-.349.26-.513.39l.955.139c.153-.12.305-.242.474-.36l.249-.178.262-.175-.874-.197zm2.657-1.467c-.48.22-.927.452-1.364.688l.772.259c.406-.218.819-.433 1.262-.635l-.67-.312zm3.136-1.235l-.126.042c-.38.13-.757.26-1.123.4l.523.373c.338-.13.688-.252 1.037-.371l.118-.038-.429-.406zm3.262-.902a36.22 36.22 0 00-1.703.429l.31.44a35.987 35.987 0 011.573-.395l-.18-.474zm1.834-.362l.038.503a33.565 33.565 0 011.608-.236l.096-.522c-.58.074-1.16.154-1.742.255zm5.106-.484c-.39.002-.788.021-1.188.04l-.263.536c.368-.016.736-.035 1.098-.036l.12-.003.365-.54-.132.003zm2.445.068c-.26-.015-.519-.034-.78-.047l-.485.539c.244.01.485.028.725.042.232.022.471.039.7.066l.599-.53c-.248-.028-.505-.046-.759-.07zm2.273.292l-.714.513c.426.076.823.173 1.21.276l.813-.488a15.95 15.95 0 00-1.31-.301zm3.455 1.14c-.214-.12-.456-.228-.697-.336l-.928.45c.225.099.447.199.644.31l.07.038.984-.422-.073-.04zm.863.55l-1.047.382c.218.168.42.356.603.56l1.098-.335a4.858 4.858 0 00-.654-.607zm1.298 1.66c-.042-.117-.1-.234-.155-.352l-1.132.282c.05.109.102.217.142.326.04.11.072.222.097.336l1.152-.228a2.422 2.422 0 00-.104-.364zm.037 1.88c.05-.182.088-.368.112-.556l-1.158.153a3.24 3.24 0 01-.104.514l-.02.06 1.147-.108.023-.063zm-.594 1.228l.133-.204.112-.202-1.123.048-.103.187-.122.186a4.51 4.51 0 01-.269.376l1.08.015c.102-.136.21-.271.292-.406zm-1.965 2.052c.316-.249.619-.514.908-.793l-1.023-.08c-.266.259-.547.503-.84.733l.954.14zm-2.363 1.543l.104-.056.448-.256c.147-.086.287-.174.427-.261l-.845-.215c-.133.08-.26.161-.396.241l-.413.236-.094.053.77.258zm-2.762 1.288c.252-.102.508-.203.75-.312l.367-.16.358-.166-.671-.309-.33.153-.339.148c-.225.1-.461.192-.695.288l.56.358zM29.6 21.443c.28-.079.56-.156.832-.242.279-.082.549-.17.819-.26l-.432-.404c-.248.082-.498.164-.754.239-.255.08-.512.152-.773.224l.308.443zm-3.528.783l.136-.024.309-.054.306-.059c.207-.04.413-.077.616-.122l-.14-.483c-.189.042-.377.076-.567.114l-.286.054-.284.05-.127.02.037.504zm-2.513.334c.289-.03.579-.06.868-.094l.09-.521c-.266.032-.533.06-.8.087-.263.02-.532.05-.794.066l-.222.532c.283-.015.571-.046.858-.07zm-3.46.143c.272 0 .54.009.82.002l.361-.54c-.258.007-.504-.001-.757-.001-.25-.003-.494-.016-.741-.023l-.486.538c.267.007.53.021.804.024zm-.658-.923c6.47.485 14.506-1.864 17.91-5.234 3.407-3.37.914-6.506-5.557-6.989-6.47-.485-14.503 1.864-17.909 5.234-3.406 3.37-.913 6.506 5.556 6.99zm-3.077.575l.245.045.25.04c.17.023.335.053.511.072l.632-.524c-.165-.018-.315-.046-.472-.067l-.233-.037-.224-.042-.101-.018-.716.511.108.02zm-1.95-.483c.201.06.396.125.607.18l.811-.49c-.194-.05-.372-.11-.558-.167-.175-.061-.356-.12-.522-.187l-.904.46c.182.072.378.135.566.204zm-2.068-.958c.146.086.278.18.439.26l.986-.42c-.15-.075-.271-.162-.406-.242a7.566 7.566 0 01-.365-.259l-1.05.38c.128.095.258.19.396.28zm-1.497-1.533l.142.241.169.234 1.108-.32-.156-.217-.13-.223-.03-.05-1.134.28.03.055zm-.332-1.103c.008.126.028.25.058.372l1.152-.227a2.166 2.166 0 01-.052-.346c-.005-.058-.013-.115-.013-.174l.004-.177-1.159.171-.006.193c.002.063.011.125.016.188z" fill="#3FC976"/><path d="M13.885 14.791c3.406-3.37 11.44-5.719 17.909-5.234 6.47.483 8.963 3.619 5.557 6.989-3.405 3.37-11.44 5.719-17.91 5.234-6.47-.483-8.962-3.619-5.556-6.989zm5.729 6.818c6.289.47 14.097-1.81 17.406-5.087 3.31-3.276.888-6.323-5.4-6.794-6.287-.47-14.096 1.813-17.405 5.089-3.31 3.274-.888 6.323 5.399 6.792zm-7.372-6.941l1.026.077c-.168.176-.344.351-.486.529l-1.066-.034c.157-.191.344-.382.526-.572z" fill="#71FFA9"/><path d="M11.951 19.046l.03.05-1.132.284-.032-.054 1.134-.28zm.169-2.826c-.032.062-.07.125-.099.187l-.084.185c-.053.12-.099.244-.137.37l-1.148.107a3.59 3.59 0 01.151-.4l.088-.201c.033-.067.073-.135.109-.202l1.12-.046zm-.454 1.506l-.005.177c0 .06.008.116.013.175a2.2 2.2 0 00.052.344l-1.152.229a2.242 2.242 0 01-.058-.372c-.004-.064-.013-.126-.015-.19l.005-.192 1.16-.171zm.315 1.371l.13.221.156.218-1.107.319-.17-.232-.14-.243 1.131-.283zm4.99 2.727l.103.019-.71.512-.109-.019.716-.512zm-3.972-1.571c.117.088.236.175.364.259.135.08.257.166.407.24l-.987.423c-.16-.081-.292-.175-.439-.261a9.174 9.174 0 01-.395-.28l1.05-.38zm1.751.955c.166.067.348.125.522.188.187.055.364.116.56.166l-.813.49c-.21-.055-.404-.12-.607-.18-.188-.069-.383-.132-.564-.204l.903-.46z" fill="#71FFA9"/><path d="M17.072 21.843l.224.041.233.036c.157.022.307.05.47.068l-.63.524c-.176-.019-.34-.049-.51-.073l-.252-.039-.244-.045.709-.512zm9.088-.141l.047.5-.135.024-.038-.502.127-.022zm-4.88.463l-.362.54c-.278.007-.547-.002-.82-.002-.272-.003-.535-.016-.803-.024l.486-.537c.248.007.49.019.741.022.254 0 .5.008.758 0zm3.237-.22l-.09.52c-.29.036-.58.066-.868.096-.287.023-.576.053-.859.07l.223-.533c.261-.016.53-.044.793-.066.267-.027.535-.055.801-.087z" fill="#71FFA9"/><path d="M27.297 21.484l.14.483c-.203.045-.409.081-.614.123l-.308.059-.309.053-.045-.5.284-.05.285-.054c.19-.039.38-.072.567-.114zM35 18.738l.78.254-.104.056-.77-.259.095-.05zm-4.182 1.799l.431.405c-.27.089-.54.177-.818.259-.273.086-.553.164-.833.242L29.291 21c.26-.072.517-.144.772-.224.256-.075.506-.157.755-.239zm2.899-1.147l.672.309-.358.166-.367.16c-.242.108-.498.208-.75.31l-.56-.357c.233-.095.47-.188.695-.288l.338-.148.33-.153zm2.093-1.13l.846.214c-.142.087-.28.177-.428.262l-.448.256-.779-.254.413-.237c.138-.08.264-.161.396-.242zm4.787-4.034l-.021.061-1.148.108.021-.059 1.148-.11zm-2.672 2.406l1.022.08c-.29.28-.593.544-.909.794l-.954-.14c.293-.23.573-.475.84-.734zm2.323-1.585l-.111.202-.133.204c-.082.135-.19.27-.292.406l-1.08-.016a4.57 4.57 0 00.27-.375l.121-.187.102-.187 1.123-.047zm.462-1.377a3.82 3.82 0 01-.113.556l-1.148.11a3.44 3.44 0 00.103-.514l1.157-.153zm-2.31-3.534l.074.038-.986.421-.068-.035.98-.424zm2.007 1.857c.054.118.112.234.155.353.044.118.079.24.104.364l-1.153.227a2.638 2.638 0 00-.096-.335c-.04-.11-.092-.219-.143-.326l1.133-.283zm-1.144-1.308c.236.182.455.385.654.607l-1.097.336a4.533 4.533 0 00-.603-.56l1.046-.383z" fill="#71FFA9"/><path d="M37.703 9.798c.241.109.482.217.697.338l-.98.424a7.523 7.523 0 00-.645-.312l.928-.45zm-7.344-1.167l-.365.543h-.119l.352-.54.132-.003zm4.586.365c.462.083.893.188 1.31.3l-.814.488c-.387-.103-.783-.2-1.21-.276l.714-.512zm-2.272-.293c.252.023.51.043.758.07l-.598.53c-.23-.027-.468-.044-.701-.066-.241-.014-.48-.031-.724-.043l.483-.538c.263.013.52.031.782.047z" fill="#71FFA9"/><path d="M30.227 8.635l-.353.54c-.361.001-.73.02-1.098.036l.264-.537c.399-.017.797-.037 1.187-.039zm-10.201 1.747l.427.407-.116.038-.438-.402.127-.043zm6.836-1.518l-.095.522c-.535.067-1.072.141-1.609.235l-.038-.502a36.576 36.576 0 011.742-.255zm-3.575.616l.179.475c-.529.122-1.056.25-1.573.396l-.31-.441c.56-.158 1.13-.297 1.704-.43z" fill="#71FFA9"/><path d="M19.899 10.425l.438.402c-.35.12-.7.24-1.037.37l-.524-.372c.366-.14.743-.271 1.123-.4zm-7.591 4.181l1.021.08-.062.06-1.024-.078.065-.062zm4.581-2.988l.67.311c-.443.203-.856.418-1.262.636l-.772-.258c.436-.237.885-.469 1.364-.689zm-2.656 1.467l.874.197-.262.175-.25.178c-.168.118-.32.239-.474.36l-.955-.14c.165-.13.33-.26.514-.388l.27-.193.283-.19zm1.009 5.314a4.056 4.056 0 012.098-1.63 10.79 10.79 0 014.416-.84c.344.009.686-.056 1.003-.19l.11-.046c.324-.14.516-.331.5-.496-.013-.153-.202-.267-.504-.303-1.327-.159-2.156-.657-2.219-1.335-.102-1.132 1.943-2.422 4.559-2.875a9.862 9.862 0 012.389-.135c1.453.108 2.473.607 2.542 1.365.062.684-.664 1.457-1.943 2.067-.268.128-.42.29-.407.435l.009.089c.014.156.22.265.537.29l.063.005c.33.016.66-.038.967-.158a10.68 10.68 0 014.439-.696 3.1 3.1 0 012.393.962c.332.531.09 1.166-.684 1.788a9.713 9.713 0 01-6.124 1.627c-1.379-.104-2.322-.548-2.511-1.204-.043-.154-.256-.261-.567-.285l-.117-.009a2.417 2.417 0 00-1.074.187c-.3.13-.485.301-.5.46-.058.698-.884 1.456-2.211 2.031a10.69 10.69 0 01-4.75.82 4.606 4.606 0 01-1.798-.45c-.678-.364-.896-.888-.616-1.474zm.919 1.344c.52.25 1.085.392 1.661.416a9.866 9.866 0 004.393-.76c1.227-.53 1.992-1.233 2.046-1.877.02-.212.267-.44.665-.612a3.23 3.23 0 011.43-.249l.117.008c.416.032.699.172.758.376.174.607 1.045 1.017 2.32 1.112a8.978 8.978 0 005.666-1.503c.714-.576.938-1.163.63-1.653a2.867 2.867 0 00-2.212-.89 9.865 9.865 0 00-4.105.644c-.414.16-.857.232-1.3.209l-.064-.005c-.43-.031-.71-.183-.729-.393l-.008-.088c-.017-.197.189-.417.554-.591 1.18-.564 1.853-1.277 1.796-1.911-.064-.702-1.006-1.163-2.353-1.263a9.104 9.104 0 00-2.206.125c-2.42.419-4.312 1.613-4.216 2.658.056.628.823 1.089 2.05 1.236.402.048.654.198.673.402.02.222-.237.475-.668.662l-.11.048a3.238 3.238 0 01-1.334.251 10 10 0 00-4.084.777 3.763 3.763 0 00-1.941 1.507c-.26.543-.057 1.026.57 1.364z" fill="#71FFA9"/></g><defs><filter id="filter0_f_72_623" x="0" y="0" width="52" height="35.526" filterUnits="userSpaceOnUse" color-interpolation-filters="sRGB"><feFlood flood-opacity="0" result="BackgroundImageFix"/><feBlend in="SourceGraphic" in2="BackgroundImageFix" result="shape"/><feGaussianBlur stdDeviation="3.5" result="effect1_foregroundBlur_72_623"/></filter></defs></svg>