<svg width="145" height="108" fill="none" xmlns="http://www.w3.org/2000/svg"><path d="M135.157 9.962l8.258 15.058a23.845 23.845 0 01-3.839 23.689c-14.937 24.358-55.214 49.848-89.79 56.822-20.697 4.175-34.73.783-39.458-7.837L2.07 82.636c4.728 8.62 18.761 12.012 39.458 7.837 34.576-6.974 74.853-32.463 89.79-56.822a23.847 23.847 0 003.839-23.689z" fill="#36AB65"/><path d="M95.7 2.127c34.577-6.975 50.552 7.168 35.617 31.525-14.937 24.36-55.213 49.847-89.79 56.822C6.954 97.448-9.027 83.307 5.91 58.95 20.844 34.593 61.127 9.1 95.7 2.127z" fill="#71FFA9"/><path d="M94.347 4.333C61.446 10.968 23.254 35.138 9.042 58.316c-14.211 23.178.94 36.583 33.842 29.946 32.895-6.636 71.083-30.8 85.295-53.978 14.212-23.178-.937-36.587-33.832-29.951z" fill="#49D581"/><path d="M92.586 7.206C61.983 13.382 26.339 35.938 13.12 57.493c-13.218 21.556.925 34.072 31.528 27.9 30.6-6.175 66.243-28.732 79.461-50.287 13.214-21.555-.924-34.072-31.523-27.9zm30.269 28.152c-12.916 21.065-47.764 43.12-77.667 49.15-29.912 6.034-43.734-6.2-30.814-27.266 12.921-21.07 47.764-43.12 77.672-49.154 29.903-6.03 43.73 6.2 30.809 27.27z" fill="#38B46A"/><path d="M112.458 22.749l-24.802-3.94a.676.676 0 00-.252.008c-.08.02-.16.043-.237.073L47.759 34.493a1.615 1.615 0 00-.692.503c-.123.188-.078.33.11.362l24.803 3.945a.777.777 0 00.25-.014 1.42 1.42 0 00.243-.073l39.413-15.604c.27-.1.506-.274.682-.502.124-.187.087-.334-.11-.361zm-39.604 15.57l-23.461-3.73 37.389-14.803 23.46 3.73L72.854 38.32zm-3.674 2.835L46.34 37.52a.693.693 0 00-.252.008 1.805 1.805 0 00-.398.147c-.219.1-.407.256-.545.453L26.14 69.123c-.11.179-.064.316.12.344l22.842 3.63a.82.82 0 00.252-.015c.139-.029.273-.076.398-.141.216-.105.403-.26.545-.453l19.005-30.991c.11-.178.06-.315-.123-.343zM49.426 72.026l-21.79-3.46L46.017 38.59l21.79 3.465-18.38 29.971zm61.542-46.704a.63.63 0 00-.335-.004 1.57 1.57 0 00-.238.069L75.872 39.06a1.518 1.518 0 00-.69.517l-8.256 13.459c-.105.174-.064.306.114.338l23.479 4.334a.682.682 0 00.266-.014c.133-.027.263-.071.385-.132.22-.104.41-.261.553-.458l19.285-31.457c.093-.15.078-.274-.04-.325zM90.863 56.624l-22.445-4.141 7.875-12.842 32.998-13.066-18.428 30.05z" fill="#71FFA9"/></svg>