<svg width="26" height="25" fill="none" xmlns="http://www.w3.org/2000/svg"><path d="M26 11.72c0 6.473-5.82 11.72-13 11.72-1.288.002-2.57-.17-3.814-.512-.949.496-3.128 1.447-6.794 2.066-.325.054-.572-.294-.444-.606.576-1.4 1.096-3.265 1.252-4.966C1.209 17.362 0 14.667 0 11.72 0 5.247 5.82 0 13 0s13 5.247 13 11.72zm-17.875 0a1.7 1.7 0 00-.476-1.184 1.601 1.601 0 00-1.149-.49c-.431 0-.844.176-1.149.49a1.7 1.7 0 00-.476 1.184c0 .444.171.87.476 1.184.305.314.718.49 1.149.49.431 0 .844-.176 1.149-.49a1.7 1.7 0 00.476-1.184zm6.5 0a1.7 1.7 0 00-.476-1.184 1.6 1.6 0 00-1.149-.49 1.6 1.6 0 00-1.149.49 1.7 1.7 0 00-.476 1.184c0 .444.171.87.476 1.184a1.6 1.6 0 001.149.49 1.6 1.6 0 001.149-.49 1.7 1.7 0 00.476-1.184zm4.875 1.675a1.6 1.6 0 001.149-.49 1.7 1.7 0 00.476-1.185 1.7 1.7 0 00-.476-1.184 1.6 1.6 0 00-1.149-.49 1.6 1.6 0 00-1.149.49 1.7 1.7 0 00-.476 1.184c0 .444.171.87.476 1.184a1.6 1.6 0 001.149.49z" fill="#fff"/></svg>