<svg width="238" height="45" fill="none" xmlns="http://www.w3.org/2000/svg"><g clip-path="url(#clip0_147_95)"><path d="M0 13.045h7.806l6.398 18.17 6.873-18.17h4.78l6.758 17.962 6.398-17.962h7.864L35.29 44.953h-5.055L23.438 26.8 16.47 44.953h-4.99L0 13.045zM51.417-.047h7.921V17.08c1.562-1.345 3.123-2.35 4.703-3.022 1.58-.673 3.17-1.004 4.789-1.004 3.16 0 5.769 1.051 7.977 3.278 1.847 1.894 2.78 4.67 2.78 8.327v20.302h-7.863V31.727c0-3.685-.172-6.177-.524-7.484-.352-1.307-.952-2.283-1.8-2.918-.847-.644-1.894-.966-3.14-.966-1.62 0-3.01.54-4.17 1.61-1.162 1.071-1.962 2.54-2.41 4.387-.237.957-.351 3.136-.351 6.546v12.06h-7.921l.01-45.01zm38.994 13.092c-2.246 0-3.989 1.848-3.989 4.008v27.9H94.4v-27.91c0-2.15-1.742-3.998-3.989-3.998zm20.183 0V-.047h-7.978v45h7.978V19.989h4.731v-6.944h-4.731z" fill="#fff"/><path fill-rule="evenodd" clip-rule="evenodd" d="M150.587 31.197h-24.418c.352 2.16 1.294 3.875 2.827 5.144 1.533 1.27 3.484 1.914 5.864 1.914 2.837 0 5.284-.995 7.321-2.985l6.407 3.013c-1.599 2.264-3.513 3.95-5.74 5.04-2.228 1.09-4.875 1.63-7.94 1.63-4.751 0-8.625-1.497-11.615-4.51-2.989-3.003-4.483-6.764-4.483-11.283 0-4.633 1.494-8.479 4.474-11.539 2.98-3.06 6.712-4.585 11.205-4.585 4.77 0 8.654 1.534 11.643 4.585 2.989 3.06 4.484 7.096 4.484 12.117l-.029 1.459zM142.99 25.2c-.504-1.696-1.494-3.07-2.97-4.13-1.475-1.062-3.199-1.592-5.15-1.592-2.123 0-3.98.597-5.579 1.78-1 .75-1.932 2.057-2.789 3.933h16.488v.009z" fill="#fff"/><path d="M90.335-.047c1.447 0 2.685.511 3.713 1.544C95.086 2.529 95.6 3.77 95.6 5.239c0 1.44-.514 2.672-1.533 3.695-1.019 1.023-2.247 1.525-3.675 1.525-1.466 0-2.713-.521-3.75-1.554-1.038-1.042-1.552-2.302-1.552-3.79 0-1.42.514-2.642 1.532-3.647C87.651.455 88.888-.047 90.335-.047zm109.756 0h8.359v45h-8.359v-45zm13.462 0H238v8.44h-8.054v36.56h-8.539V8.393h-7.845l-.009-8.44zM173.645 16.57l-.867 1.61c-.104.199-.18.35-.209.455a1.001 1.001 0 00.267 1.042c.209.208.485.322.799.322.305 0 .571-.104.781-.303a.974.974 0 00.324-.749 1.04 1.04 0 00-.315-.767 1.042 1.042 0 00-.561-.294l.514-.966-.733-.35zm.257 2.358a.314.314 0 01-.076.209c-.115.104-.267.113-.381 0a.278.278 0 01-.086-.209c0-.085.029-.151.076-.208a.245.245 0 01.181-.076.29.29 0 01.2.076.279.279 0 01.086.208zm3.836-14.779l-1.39 1.971-.019.028v.683h1.371v.615h.838v-.615h.276v-.768h-.276V4.14l-.8.01zm-.39 1.924l.343-.484v.484h-.343zm-17.85 26.08l1.142-2.226h-1.237v-.776h2.313l-.009.473-1.466 2.87-.743-.34zm14.356 7.731a.354.354 0 00.105-.265.344.344 0 00-.095-.256c-.095-.095-.21-.123-.353-.057a.823.823 0 00-.152.114l-.047.047-.676-.142.428-1.876h1.695v.768h-1.048l-.066.265h.038c.314 0 .59.104.8.313.209.208.314.473.314.795 0 .323-.115.597-.353.825a1.188 1.188 0 01-.847.331 1.27 1.27 0 01-.771-.246 1.074 1.074 0 01-.419-.663l-.038-.152h.866l.038.067a.406.406 0 00.143.16.334.334 0 00.438-.028zm-.39-16.048a.974.974 0 00.324-.749 1.04 1.04 0 00-.315-.767 1.042 1.042 0 00-.561-.294l.514-.966-.733-.35-.867 1.61c-.104.199-.18.35-.209.455a1.002 1.002 0 00.267 1.042c.209.208.485.322.799.322.305 0 .562-.104.781-.303zm-1.057-.758c0-.085.029-.152.076-.209.048-.056.105-.075.181-.075a.29.29 0 01.2.075c.057.057.076.114.076.2a.309.309 0 01-.076.208.263.263 0 01-.381 0 .273.273 0 01-.076-.2zm18.317 9.294v-.616H191v-.768h-.276v-1.923h-.791l-1.389 1.97-.019.03v.681h1.37v.616l.829.01zm-1.181-1.384l.343-.483v.483h-.343zm-18.64-6.972a1.01 1.01 0 00.571-.92c0-.18-.047-.35-.133-.501a1.082 1.082 0 00-.257-.294.834.834 0 00.238-.587.952.952 0 00-.133-.483.909.909 0 00-.381-.351 1.302 1.302 0 00-1.095 0 .954.954 0 00-.381.341.943.943 0 00-.057.853c.038.075.086.151.143.227-.105.095-.19.19-.257.303a1.074 1.074 0 00-.124.483c0 .2.048.389.152.55a.959.959 0 00.41.37c.162.075.39.113.657.113.266.019.476-.019.647-.104zm-.495-2.094c-.076.076-.229.085-.314 0-.048-.038-.067-.095-.067-.16a.2.2 0 01.057-.152.202.202 0 01.153-.057.25.25 0 01.171.056.192.192 0 01.057.143.247.247 0 01-.057.17zm-.419.928a.392.392 0 01.276-.094c.105 0 .191.028.267.095.066.066.104.132.104.217 0 .086-.028.162-.095.209-.123.113-.419.113-.552-.01a.273.273 0 01-.095-.218c-.01-.075.019-.142.095-.198zm8.216 17.83v-2.454h-.743l.505-.776h1.085v3.23h-.847zm-10.415-2.245a.828.828 0 00-.267.634c0 .18.039.332.115.474.076.133.19.237.333.313.266.142.638.151.914.038.124-.057.276-.161.438-.313l.095-.085.581.578-.086.085c-.248.227-.476.388-.695.474a2.084 2.084 0 01-.752.132c-.524 0-.952-.16-1.285-.473-.334-.313-.505-.73-.505-1.223 0-.322.076-.606.229-.852a1.69 1.69 0 01.656-.606 1.975 1.975 0 011.714-.057c.257.113.476.265.666.473l.077.086-.6.54-.086-.086c-.257-.265-.542-.388-.866-.388a.865.865 0 00-.676.256zm3.408 2.32c.305 0 .571-.103.781-.302a.973.973 0 00.323-.749c0-.303-.104-.559-.314-.767a1.045 1.045 0 00-.561-.294l.514-.966-.733-.35-.867 1.61c-.104.199-.181.35-.209.455a1.004 1.004 0 00.266 1.042c.21.218.486.322.8.322zm-.276-1.06c0-.086.029-.152.076-.209.048-.056.105-.075.181-.075s.143.028.2.075a.25.25 0 01.076.2.31.31 0 01-.076.208c-.114.104-.267.113-.381 0a.273.273 0 01-.076-.2zm9.063.767l1.142-2.226h-1.237v-.777h2.313l-.009.474-1.466 2.87-.743-.34zm-3.97-17.886c.105-.2.181-.35.21-.445.028-.105.047-.209.047-.313a1 1 0 00-.314-.73 1.108 1.108 0 00-.8-.322 1.12 1.12 0 00-.78.304.974.974 0 00-.324.748c0 .303.105.559.314.758.162.16.353.256.571.293l-.523.967.733.35.866-1.61zm-.58-.749a.27.27 0 01-.077.2c-.104.104-.276.094-.38 0a.269.269 0 01-.086-.2c0-.085.028-.151.086-.208a.244.244 0 01.19-.076.28.28 0 01.181.076.279.279 0 01.086.208zm-4.018-2.71a.354.354 0 00.105-.264.344.344 0 00-.095-.256c-.096-.095-.21-.123-.353-.057a.823.823 0 00-.152.114l-.048.047-.675-.142.428-1.876h1.694v.768h-1.047l-.066.265h.038c.323 0 .59.104.799.312.21.209.315.474.315.796 0 .322-.115.597-.353.824-.228.228-.514.332-.847.332-.295 0-.552-.076-.771-.246a1.075 1.075 0 01-.419-.664l-.038-.151h.866l.038.066a.399.399 0 00.143.161.335.335 0 00.438-.028zm18.355 7.523c0 .417.047.72.142.957.096.237.238.417.419.53.181.114.41.18.667.18.266 0 .485-.056.657-.18a1.15 1.15 0 00.409-.54c.105-.236.143-.559.143-.966 0-.407-.048-.73-.143-.966a1.157 1.157 0 00-.428-.55 1.193 1.193 0 00-.667-.18c-.39 0-.704.152-.933.455-.171.265-.266.682-.266 1.26zm.856.01c0-.275.019-.493.058-.626a.46.46 0 01.133-.256.325.325 0 01.181-.066c.066 0 .162.02.247.161.057.085.124.294.124.749 0 .36-.048.625-.133.767-.076.133-.172.142-.238.142-.067 0-.162-.019-.257-.161-.048-.076-.115-.275-.115-.71zM160.479 8.26l-.867 1.61c-.104.2-.181.351-.209.455a1.004 1.004 0 00.266 1.042c.21.209.486.323.8.323.305 0 .571-.105.781-.304a.973.973 0 00.323-.748c0-.303-.104-.559-.314-.767a1.045 1.045 0 00-.561-.294l.514-.966-.733-.351zm.257 2.359a.31.31 0 01-.077.208c-.114.105-.266.114-.38 0a.278.278 0 01-.086-.208c0-.085.029-.152.076-.208a.245.245 0 01.181-.076.29.29 0 01.2.076c.067.056.086.123.086.208zm.009 8.507a.292.292 0 00.095-.227.31.31 0 00-.133-.246c-.105-.076-.257-.114-.457-.114h-.124v-.72l.115-.01a.707.707 0 00.276-.056.266.266 0 00.114-.086.179.179 0 00.038-.113.155.155 0 00-.048-.114c-.019-.019-.057-.047-.142-.047a.289.289 0 00-.153.047.233.233 0 00-.095.133l-.028.085h-.81l.019-.133a.989.989 0 01.286-.596c.219-.209.486-.313.809-.313.286 0 .533.085.733.265.2.18.305.398.305.644a.736.736 0 01-.133.427.733.733 0 01-.172.17.875.875 0 01.467.777.977.977 0 01-.353.767c-.228.209-.523.313-.875.313-.343 0-.619-.095-.838-.294-.219-.199-.333-.464-.352-.796l-.01-.132h.838l.019.104a.445.445 0 00.133.275c.105.113.343.113.476-.01zm7.264-13.613a.703.703 0 00.105-.313.245.245 0 00-.086-.199.327.327 0 00-.447.02c-.067.065-.096.17-.105.293v.113h-.838l.01-.123c.019-.35.133-.634.352-.843.219-.208.504-.313.847-.313a1.093 1.093 0 01.962.513.996.996 0 01.152.501c0 .19-.057.408-.171.625-.115.218-.305.465-.6.758l-.143.152h.942v.767h-2.427V7.02l1.009-.976c.219-.227.371-.407.438-.53zm.752 11.056l-.866 1.61c-.105.199-.181.35-.21.455a1.209 1.209 0 00-.047.312 1 1 0 00.314.73c.209.208.485.322.799.322.305 0 .572-.104.781-.303a.974.974 0 00.324-.749c0-.303-.105-.559-.314-.767a1.048 1.048 0 00-.562-.294l.514-.966-.733-.35zm.257 2.358a.314.314 0 01-.076.209.263.263 0 01-.381 0 .278.278 0 01-.086-.209.31.31 0 01.077-.208.242.242 0 01.18-.076.29.29 0 01.2.076c.067.057.086.123.086.208zm-1.219 14.258l-.866 1.61c-.105.2-.181.351-.209.456a1.004 1.004 0 00.266 1.042c.21.208.486.322.8.322.305 0 .571-.104.781-.303a.973.973 0 00.323-.749c0-.303-.104-.559-.314-.767a1.044 1.044 0 00-.562-.294l.515-.966-.734-.35zm.267 2.36a.314.314 0 01-.076.208.263.263 0 01-.381 0 .279.279 0 01-.086-.209.31.31 0 01.077-.208.242.242 0 01.18-.076.29.29 0 01.2.076.279.279 0 01.086.208zm-8.654-7.959c.105.237.238.417.419.53.181.115.41.18.667.18.266 0 .485-.056.657-.18.171-.113.314-.302.409-.54.047-.103.076-.227.105-.36v.39h1.37v.615h.838v-.616h.276v-.767h-.276v-1.923h-.79l-1.371 1.951c.01-.085.01-.17.01-.255 0-.408-.048-.73-.143-.967a1.157 1.157 0 00-.428-.55 1.193 1.193 0 00-.667-.18c-.39 0-.704.152-.933.456-.19.274-.285.682-.285 1.26-.01.416.038.729.142.956zm3.285-.748l.342-.483v.483h-.342zm-2.58-.19c0-.274.019-.492.057-.625a.466.466 0 01.133-.256.327.327 0 01.181-.066c.067 0 .162.02.248.161.057.085.123.294.123.749 0 .36-.047.625-.133.767-.076.133-.171.142-.238.142-.066 0-.162-.019-.257-.161-.048-.076-.114-.275-.114-.71zm7.682-5.93l-.866 1.61c-.105.2-.181.351-.209.455a1.004 1.004 0 00.266 1.042c.21.209.486.322.8.322.305 0 .571-.104.781-.303a.973.973 0 00.323-.748c0-.303-.104-.56-.314-.768a1.044 1.044 0 00-.562-.293l.515-.966-.734-.351zm.267 2.359a.314.314 0 01-.076.208.263.263 0 01-.381 0 .278.278 0 01-.086-.208.31.31 0 01.077-.209c.047-.056.104-.075.18-.075a.29.29 0 01.2.075.294.294 0 01.086.209zm-2.675-7.2l.866-1.61c.115-.2.181-.351.21-.446.028-.104.047-.208.047-.313a1 1 0 00-.314-.729 1.108 1.108 0 00-.8-.322 1.12 1.12 0 00-.78.303.974.974 0 00-.324.748c0 .304.105.56.314.758.162.161.353.256.571.294l-.523.966.733.35zm-.267-2.36c0-.084.029-.15.086-.208a.244.244 0 01.19-.075.28.28 0 01.181.075.279.279 0 01.086.209.273.273 0 01-.076.199c-.105.104-.276.095-.381 0a.258.258 0 01-.086-.2zm15.147 1.46a.295.295 0 00.095-.227.312.312 0 00-.133-.247c-.105-.076-.257-.114-.457-.114h-.124v-.72l.114-.009a.7.7 0 00.276-.057.253.253 0 00.114-.085.174.174 0 00.039-.104.155.155 0 00-.048-.114c-.019-.019-.057-.047-.143-.047a.286.286 0 00-.152.047.228.228 0 00-.095.133l-.029.085h-.809l.019-.133a1.04 1.04 0 01.285-.596c.219-.209.486-.313.81-.313.285 0 .533.085.733.265.2.18.304.398.304.644a.781.781 0 01-.133.436.748.748 0 01-.171.17.874.874 0 01.466.777.976.976 0 01-.352.768c-.229.208-.524.313-.876.313-.333 0-.619-.105-.828-.294-.21-.19-.333-.464-.352-.796l-.01-.133h.838l.019.105a.495.495 0 00.124.274c.104.095.342.095.476-.028zm-18.555-4.339c0 .199.048.388.153.55a.956.956 0 00.409.369c.171.076.39.114.657.114.257 0 .466-.038.638-.124a.929.929 0 00.409-.379c.105-.17.152-.35.152-.54 0-.18-.047-.35-.133-.502a1.082 1.082 0 00-.257-.293.834.834 0 00.238-.587.952.952 0 00-.133-.484.908.908 0 00-.381-.35 1.301 1.301 0 00-1.095 0 .954.954 0 00-.381.34.884.884 0 00-.133.484.96.96 0 00.076.37 1.6 1.6 0 00.143.227c-.105.094-.19.19-.257.303a1.312 1.312 0 00-.105.502zm1.362-1.184c-.086.076-.229.085-.315 0a.209.209 0 01-.066-.161.2.2 0 01.057-.152.202.202 0 01.152-.057c.076 0 .124.02.172.057a.193.193 0 01.057.142c.009.085-.01.133-.057.17zm-.143.833c.105 0 .19.029.266.095.067.067.105.133.105.218 0 .085-.028.161-.095.208-.133.114-.419.114-.552-.009a.287.287 0 01-.096-.218c0-.076.039-.142.105-.208a.41.41 0 01.267-.086zm-.019 2.123l-.867 1.61c-.104.199-.18.35-.209.455a1.001 1.001 0 00.267 1.042c.209.208.485.322.799.322.305 0 .562-.104.781-.303a.974.974 0 00.324-.749 1.04 1.04 0 00-.315-.767 1.041 1.041 0 00-.561-.294l.514-.966-.733-.35zm.266 2.359a.31.31 0 01-.076.208c-.114.104-.266.114-.381 0a.278.278 0 01-.085-.208.31.31 0 01.076-.209.26.26 0 01.181-.076.31.31 0 01.2.076.293.293 0 01.085.209zm2.39 11.51a.716.716 0 00.105-.313.245.245 0 00-.086-.199.328.328 0 00-.448.02.412.412 0 00-.104.293v.114h-.838l.009-.123c.02-.35.134-.635.353-.844.219-.208.504-.312.847-.312.209 0 .4.047.562.132.162.086.295.218.399.38a.988.988 0 01.153.502c0 .189-.057.407-.172.625-.114.218-.304.464-.599.758l-.143.151h.942v.768h-2.427v-.446l1.009-.976c.219-.227.362-.397.438-.53zm-.21-18.019l-.866 1.61c-.105.2-.181.351-.209.455a1.004 1.004 0 00.266 1.042c.21.209.486.323.8.323.305 0 .562-.105.78-.304a.974.974 0 00.324-.748c0-.303-.105-.559-.314-.767a1.044 1.044 0 00-.562-.294l.514-.966-.733-.351zm.257 2.359a.278.278 0 01-.085.208.263.263 0 01-.381 0 .278.278 0 01-.086-.208c0-.085.029-.152.076-.208a.263.263 0 01.181-.076.29.29 0 01.2.076c.076.056.095.123.095.208zm-3.674 13.225l1.142-2.226h-1.238v-.777h2.314l-.01.474-1.466 2.87-.742-.34zm2.284-5.551c0-.322.077-.607.229-.853.152-.246.371-.455.657-.606a1.973 1.973 0 011.713-.057c.258.114.476.275.667.474l.076.085-.6.54-.085-.085c-.257-.266-.543-.389-.867-.389a.93.93 0 00-.666.256.828.828 0 00-.267.635c0 .18.038.331.115.473.076.133.19.237.333.323.266.142.638.151.914.037a1.72 1.72 0 00.438-.312l.095-.085.58.577-.085.086c-.248.227-.476.388-.695.473a2.084 2.084 0 01-.752.133c-.524 0-.952-.161-1.285-.474a1.64 1.64 0 01-.515-1.231zm3.694 9.928h.838v-.616h.276v-.767h-.276v-1.923h-.79l-1.39 1.97-.019.029v.682h1.371v.625h-.01zm-.342-1.383l.342-.483v.483h-.342zm-5.465-7.172c.21.209.486.322.8.322.304 0 .561-.104.78-.303a.974.974 0 00.324-.748c0-.303-.105-.559-.314-.767a1.045 1.045 0 00-.562-.294l.514-.966-.733-.351-.866 1.61c-.105.2-.181.351-.21.455a1.208 1.208 0 00-.047.313c0 .275.105.521.314.73zm.524-.739a.31.31 0 01.076-.208.26.26 0 01.181-.076.31.31 0 01.2.076.251.251 0 01.076.199.314.314 0 01-.076.208c-.115.105-.267.114-.381 0a.27.27 0 01-.076-.199zm4.522 13.406c.171.075.39.113.657.113.257 0 .466-.038.637-.123a.926.926 0 00.41-.379 1.017 1.017 0 00-.238-1.335.834.834 0 00.238-.587.943.943 0 00-.134-.484.9.9 0 00-.38-.35 1.302 1.302 0 00-1.095 0 .954.954 0 00-.381.34.884.884 0 00-.133.484.82.82 0 00.085.37c.039.075.086.15.143.227-.104.094-.19.189-.247.303a.96.96 0 00-.124.483c0 .199.048.388.152.55a.95.95 0 00.41.388zm.799-2.113c-.085.076-.228.085-.314 0-.047-.038-.066-.095-.066-.161a.2.2 0 01.057-.152.2.2 0 01.152-.056c.076 0 .124.018.171.056a.193.193 0 01.057.142c.01.086-.009.133-.057.171zm-.142.834a.38.38 0 01.266.095c.067.066.105.132.105.217 0 .086-.029.161-.095.209-.124.113-.419.113-.553-.01a.275.275 0 01-.095-.218c0-.075.038-.142.105-.208a.47.47 0 01.267-.085zm-3.104 5.371c.181.114.4.18.666.18.267 0 .486-.056.657-.18.172-.113.314-.303.41-.54.095-.236.142-.559.142-.966 0-.407-.047-.73-.142-.966a1.16 1.16 0 00-.429-.55 1.188 1.188 0 00-.666-.18c-.39 0-.705.152-.933.455-.191.275-.286.682-.286 1.26 0 .417.048.72.143.957.114.237.257.417.438.53zm.286-1.468c0-.275.019-.493.057-.625.038-.123.076-.209.133-.256a.325.325 0 01.181-.066c.067 0 .162.018.247.16.058.086.124.294.124.749 0 .36-.047.625-.133.767-.076.133-.171.143-.238.143-.067 0-.162-.02-.257-.162-.048-.075-.114-.274-.114-.71zm-5.589-19.828c.105.236.238.407.419.53.181.114.41.18.667.18.266 0 .485-.057.657-.18.171-.114.314-.303.409-.54.095-.237.143-.559.143-.966 0-.408-.048-.73-.143-.967a1.153 1.153 0 00-.429-.55 1.187 1.187 0 00-.666-.18c-.39 0-.704.152-.933.456-.19.274-.285.682-.285 1.26.009.416.057.73.161.957zm.705-.948c0-.275.019-.492.057-.625a.465.465 0 01.133-.256.327.327 0 01.181-.066c.067 0 .162.019.248.16.057.086.123.295.123.75 0 .36-.047.625-.133.767-.076.132-.171.142-.238.142-.066 0-.162-.02-.257-.161-.048-.076-.114-.266-.114-.71zm-.705 9.256c.105.237.238.407.419.53.181.114.41.18.667.18.266 0 .485-.056.657-.18a1.15 1.15 0 00.409-.54c.095-.236.143-.559.143-.975 0-.408-.048-.73-.143-.967a1.153 1.153 0 00-.429-.55 1.188 1.188 0 00-.666-.18c-.39 0-.704.152-.933.456-.19.274-.285.682-.285 1.26.009.426.057.738.161.966zm.705-.947c0-.275.019-.493.057-.626a.465.465 0 01.133-.255.327.327 0 01.181-.067c.067 0 .162.02.248.161.057.085.123.294.123.749 0 .36-.047.625-.133.767-.076.133-.171.142-.238.142-.066 0-.162-.019-.257-.16-.048-.077-.114-.266-.114-.712zm7.711-10.772l.866-1.61c.105-.2.181-.351.21-.446.028-.104.047-.208.047-.312a1 1 0 00-.314-.73 1.107 1.107 0 00-.799-.322 1.12 1.12 0 00-.781.303.988.988 0 00-.324.749c0 .303.105.558.314.757.162.162.353.256.572.294l-.524.966.733.35zm-.257-2.359c0-.085.029-.152.086-.208a.244.244 0 01.19-.076.278.278 0 01.267.284.27.27 0 01-.077.199c-.104.104-.276.095-.38 0a.245.245 0 01-.086-.199zm-3.189 14.485l1.142-2.226h-1.237v-.777h2.313l-.01.474-1.466 2.87-.742-.34zm2.351-11.311h2.314l-.01.473-1.466 2.87-.733-.34 1.142-2.227h-1.237l-.01-.776zm-2.627 23.997h-2.428v-.446l1.009-.976a2.83 2.83 0 00.448-.511.712.712 0 00.104-.313.244.244 0 00-.085-.199.328.328 0 00-.448.02c-.066.066-.095.17-.104.293v.114h-.838l.009-.123c.019-.351.134-.635.353-.844.219-.208.504-.312.847-.312.209 0 .4.047.562.132.161.086.295.218.399.38a.974.974 0 01.143.501c0 .19-.057.408-.171.626-.114.218-.305.464-.6.758l-.143.151h.943v.749zm.038-6.907l-1.466 2.87-.733-.34 1.142-2.227h-1.238v-.776h2.314l-.019.473zm1.218-.597l-.866 1.61c-.105.2-.181.351-.209.456a1.004 1.004 0 00.266 1.042c.21.208.486.322.8.322.305 0 .562-.104.78-.303a.974.974 0 00.324-.749c0-.303-.105-.559-.314-.767a1.045 1.045 0 00-.562-.294l.514-.966-.733-.35zm.257 2.36a.278.278 0 01-.085.208.263.263 0 01-.381 0 .278.278 0 01-.086-.209c0-.085.029-.151.076-.208a.227.227 0 01.181-.076.29.29 0 01.2.076.241.241 0 01.095.208zm-3.96-23.931h-2.428V7.01l1.01-.976c.228-.218.371-.389.447-.512a.703.703 0 00.105-.312.245.245 0 00-.086-.2.327.327 0 00-.447.02c-.067.066-.096.17-.105.293v.114h-.838l.01-.123c.019-.35.133-.635.352-.843.219-.209.504-.313.847-.313.21 0 .4.038.562.133a.957.957 0 01.4.379.996.996 0 01.152.502c0 .19-.057.407-.171.625-.115.218-.305.464-.6.758l-.143.151h.943l-.01.749zm1.428-6.613h-1.238V.066h2.314l-.01.474-1.466 2.87-.733-.34 1.133-2.227zm-2.447 0h-1.237V.066h2.313l-.009.474-1.466 2.87-.733-.34L160.64.842zm1.428 39.62c-.218-.2-.333-.465-.352-.797l-.009-.132h.837l.019.104c.02.123.067.218.134.275.124.113.362.113.504-.01a.293.293 0 00.096-.227.31.31 0 00-.134-.247c-.104-.075-.257-.113-.457-.113h-.123v-.72l.114-.01a.701.701 0 00.276-.056.36.36 0 00.114-.086.173.173 0 00.038-.104.158.158 0 00-.047-.114.206.206 0 00-.143-.047.293.293 0 00-.153.047.233.233 0 00-.095.133l-.028.085h-.81l.02-.132a1.04 1.04 0 01.285-.597c.219-.209.486-.313.809-.313.286 0 .533.085.733.265.2.18.305.398.305.645a.79.79 0 01-.133.435.735.735 0 01-.172.17.875.875 0 01.467.777.977.977 0 01-.352.768c-.229.208-.524.313-.876.313-.371-.02-.648-.114-.867-.313zm-1.599.293c.305 0 .571-.104.781-.303a.973.973 0 00.323-.749c0-.303-.104-.559-.314-.767a1.045 1.045 0 00-.561-.294l.514-.966-.733-.35-.867 1.61c-.104.199-.181.35-.209.455a1.004 1.004 0 00.266 1.042c.219.218.486.322.8.322zm-.266-1.061a.31.31 0 01.076-.209c.047-.056.104-.075.181-.075a.29.29 0 01.199.075c.058.057.077.114.077.2a.31.31 0 01-.077.208c-.114.104-.266.113-.38 0-.057-.048-.076-.114-.076-.2zm-.8 1.913h2.313l-.009.474-1.466 2.87-.733-.34 1.142-2.227h-1.238l-.009-.777zm5.95-38.235c.305 0 .562-.105.78-.304a.974.974 0 00.324-.748c0-.303-.105-.559-.314-.758a1.045 1.045 0 00-.562-.294l.514-.966-.733-.35-.866 1.61c-.105.2-.181.35-.209.455a1.004 1.004 0 00.266 1.042c.219.208.486.313.8.313zm-.276-1.061a.31.31 0 01.076-.209.261.261 0 01.181-.076c.085 0 .143.029.2.076a.257.257 0 01.085.2.278.278 0 01-.085.208.263.263 0 01-.381 0 .269.269 0 01-.076-.2zm-5.408 34.048a1.073 1.073 0 01-.418-.663l-.039-.152h.867l.038.067a.399.399 0 00.143.16.347.347 0 00.428-.047.354.354 0 00.105-.265.344.344 0 00-.095-.256c-.096-.095-.21-.123-.353-.066a.823.823 0 00-.152.114l-.048.047-.676-.142.429-1.876h1.694v.767h-1.047l-.066.266h.038c.323 0 .59.104.799.312.21.209.315.474.315.796 0 .322-.115.597-.353.824a1.188 1.188 0 01-.847.332 1.081 1.081 0 01-.762-.218zm4.351-31.481a1.151 1.151 0 00-.428-.55 1.193 1.193 0 00-.667-.18c-.39 0-.704.152-.933.455-.19.275-.285.682-.285 1.26 0 .408.047.72.142.957.096.237.239.407.419.53.181.114.41.18.667.18.266 0 .485-.056.657-.18.171-.113.314-.303.419-.54.038-.104.076-.227.104-.36v.389h1.371v.616h.838V6.84h.276v-.767h-.276V4.149h-.79l-1.371 1.952c.009-.085.009-.17.009-.265-.009-.408-.057-.73-.152-.957zm-.714.966c0 .36-.048.626-.133.768-.076.132-.172.142-.238.142-.067 0-.162-.02-.257-.161-.057-.086-.124-.275-.124-.72 0-.275.019-.493.057-.626.038-.123.076-.208.133-.255a.33.33 0 01.181-.067c.067 0 .162.02.248.161.066.095.133.304.133.758zm1.828.228l.343-.484v.484h-.343zm8.768.55l-.038-.152h.866l.038.066a.361.361 0 00.581.114.354.354 0 00.105-.266.341.341 0 00-.096-.256c-.095-.094-.209-.123-.352-.056a.793.793 0 00-.152.113l-.048.048-.676-.142.429-1.876h1.694v.767h-1.047l-.067.265h.038a1.1 1.1 0 01.8.313c.21.208.314.474.314.796 0 .322-.114.597-.352.824a1.152 1.152 0 01-.847.332c-.295 0-.552-.076-.771-.247a.984.984 0 01-.419-.644zm1.39-5.78h-1.238V.066h2.313l-.009.474-1.476 2.87-.733-.34 1.143-2.227zm-2.799 1.26l-.524.966.733.351.867-1.61c.114-.2.181-.351.209-.446a1.001 1.001 0 00-.267-1.042 1.107 1.107 0 00-.799-.322 1.12 1.12 0 00-.781.303.974.974 0 00-.324.749 1 1 0 00.315.757c.171.162.361.256.571.294zm-.038-1.051c0-.086.028-.152.085-.209a.248.248 0 01.191-.076.28.28 0 01.181.076.278.278 0 01.085.209.269.269 0 01-.076.199c-.104.104-.276.094-.381 0-.066-.048-.085-.114-.085-.2zm3.865.947v.682h1.371v.616h.838V2.68h.276v-.767h-.276V-.01h-.791l-1.39 1.97-.028.038zm1.028-.085l.343-.483v.483h-.343zm-7.111 1.459c.304 0 .571-.105.78-.304a.974.974 0 00.324-.748c0-.303-.105-.559-.314-.758a1.045 1.045 0 00-.562-.294l.514-.966-.733-.35-.866 1.61c-.105.2-.181.35-.21.455a1.208 1.208 0 00-.047.313c0 .274.105.52.314.729.219.208.485.313.8.313zm-.276-1.061a.31.31 0 01.076-.209.26.26 0 01.181-.076c.076 0 .142.029.199.076a.255.255 0 01.086.2.275.275 0 01-.086.208.262.262 0 01-.38 0 .269.269 0 01-.076-.2zm-2.799.947c.171.076.39.114.657.114.257 0 .466-.038.637-.124a.926.926 0 00.41-.378 1.016 1.016 0 00-.238-1.336.834.834 0 00.238-.587.97.97 0 00-.134-.484.9.9 0 00-.38-.35 1.301 1.301 0 00-1.095 0 .954.954 0 00-.381.34.863.863 0 00-.133.484c0 .133.028.256.085.37.039.075.086.15.143.227a1.06 1.06 0 00-.247.303.959.959 0 00-.124.483c0 .199.048.388.152.55.105.18.238.303.41.388zm.799-2.113c-.085.076-.228.086-.314 0a.209.209 0 01-.066-.16.2.2 0 01.057-.152.2.2 0 01.152-.057c.076 0 .124.019.171.057a.193.193 0 01.057.142c.01.085-.009.132-.057.17zm-.142.834a.38.38 0 01.266.095c.067.066.105.132.105.218 0 .085-.029.16-.095.208-.124.114-.419.114-.553-.01a.29.29 0 01-.095-.217c0-.076.038-.142.105-.209a.471.471 0 01.267-.085zm3.389 2.17h-.791l-1.389 1.97-.019.028v.683h1.37v.615h.838V6.83h.276v-.768h-.276V4.15h-.009zm-1.19 1.923l.342-.484v.484h-.342zm2.475.18l-.524.966.733.35.867-1.61c.114-.199.181-.35.209-.445a1.001 1.001 0 00-.267-1.042 1.107 1.107 0 00-.799-.323 1.12 1.12 0 00-.781.304.974.974 0 00-.324.748c0 .303.105.559.315.758.171.161.361.256.571.294zm-.038-1.042c0-.086.028-.152.085-.209a.248.248 0 01.191-.076.28.28 0 01.181.076.278.278 0 01.085.209.269.269 0 01-.076.198.271.271 0 01-.381 0c-.066-.047-.085-.113-.085-.198zm16.507 32.352a1.187 1.187 0 00-.666-.18c-.39 0-.704.152-.933.455-.19.275-.286.682-.286 1.26 0 .417.048.72.143.957.095.237.238.417.419.53.181.114.41.18.667.18.266 0 .485-.057.656-.18a1.15 1.15 0 00.41-.54c.095-.237.143-.559.143-.966 0-.407-.048-.73-.143-.966a1.034 1.034 0 00-.41-.55zm-.276 1.516c0 .36-.047.625-.133.767-.076.133-.171.142-.238.142-.067 0-.162-.019-.257-.16-.057-.086-.124-.275-.124-.72 0-.275.019-.493.057-.626.038-.123.077-.208.134-.256a.325.325 0 01.181-.066c.066 0 .161.019.247.161.067.095.133.294.133.758zm-3.551 4.993h.943v.767h-2.428v-.445l1.009-.976a2.83 2.83 0 00.448-.512.668.668 0 00.105-.312.245.245 0 00-.086-.2.328.328 0 00-.448.02c-.066.066-.095.17-.104.293v.114h-.838l.009-.123c.02-.35.134-.635.353-.843.219-.209.504-.313.847-.313.209 0 .4.047.562.133.162.085.295.218.4.379a.996.996 0 01.152.502c0 .19-.057.407-.172.625-.114.218-.304.464-.599.758l-.153.133zm.952-4.16h.943v.768h-2.428v-.445l1-.976c.228-.218.371-.389.447-.512a.703.703 0 00.105-.312.245.245 0 00-.086-.2.327.327 0 00-.447.02c-.067.066-.095.17-.105.293v.114h-.838l.01-.123c.019-.35.133-.635.352-.843.219-.209.505-.313.847-.313.21 0 .4.047.562.133.162.085.295.218.4.379a.997.997 0 01.152.502c0 .19-.057.407-.171.625-.114.218-.305.464-.6.758l-.143.133zm-5.854 2.89l.514-.966-.733-.35-.867 1.61c-.104.199-.181.35-.209.455a1.004 1.004 0 00.266 1.042c.21.208.486.322.8.322.305 0 .571-.105.781-.303a.973.973 0 00.323-.749c0-.303-.104-.559-.314-.767a1.114 1.114 0 00-.561-.294zm.038 1.052a.314.314 0 01-.076.208c-.115.104-.267.114-.381 0a.278.278 0 01-.086-.208c0-.086.029-.152.076-.209a.245.245 0 01.181-.076.31.31 0 01.2.076.278.278 0 01.086.209zm-18.422-2.246h2.314l-.01.474-1.466 2.87-.733-.34 1.143-2.227h-1.238l-.01-.777zm17.841-36.18h-.838l.01-.123c.019-.35.133-.634.352-.843.219-.208.505-.313.847-.313.21 0 .4.038.562.133a.957.957 0 01.4.38.996.996 0 01.152.501c0 .19-.057.408-.171.625-.114.218-.305.465-.6.758l-.143.152h.943v.767h-2.428V7.02l1.009-.976c.229-.218.371-.388.448-.511a.712.712 0 00.104-.313.244.244 0 00-.085-.199.328.328 0 00-.448.019c-.066.066-.095.17-.105.294l-.009.094zm13.299 25.21a1.042 1.042 0 00-.561-.294l.514-.966-.733-.35-.867 1.61c-.104.199-.18.35-.209.455a1.001 1.001 0 00.267 1.042c.209.208.485.322.799.322.305 0 .562-.104.781-.303a.974.974 0 00.324-.749 1.01 1.01 0 00-.315-.767zm-.523.748a.278.278 0 01-.086.209.263.263 0 01-.381 0 .278.278 0 01-.085-.209.31.31 0 01.076-.208.225.225 0 01.181-.076c.085 0 .152.029.2.076.066.066.095.123.095.208zm-3.684 4.377h.942v.768h-2.428v-.446l1.01-.976c.228-.217.371-.388.447-.511a.703.703 0 00.105-.313.245.245 0 00-.086-.199.326.326 0 00-.447.02c-.067.066-.096.17-.105.293v.114h-.838l.01-.123c.019-.351.133-.635.352-.844.219-.208.504-.312.847-.312.21 0 .4.047.562.132.162.086.295.218.4.38a.996.996 0 01.152.501c0 .19-.057.408-.171.626-.115.218-.305.464-.6.758l-.152.132zm2.875-2.359a1.194 1.194 0 00-.667-.18c-.39 0-.704.152-.933.455-.19.275-.285.682-.285 1.26 0 .417.047.72.142.957.096.237.238.417.419.53.181.114.41.18.667.18.266 0 .485-.056.657-.18a1.15 1.15 0 00.409-.54c.105-.236.143-.559.143-.966 0-.407-.048-.73-.143-.966a1.076 1.076 0 00-.409-.55zm-.276 1.516c0 .36-.048.625-.134.767-.076.133-.171.143-.238.143-.066 0-.162-.02-.257-.162-.057-.085-.124-.274-.124-.72 0-.274.019-.492.058-.625a.459.459 0 01.133-.256A.325.325 0 01191 34c.066 0 .162.019.247.161.067.104.134.303.134.758zm-8.092 8.043c.209.209.314.474.314.796 0 .322-.115.597-.353.824a1.188 1.188 0 01-.847.332 1.27 1.27 0 01-.771-.247 1.074 1.074 0 01-.419-.663l-.038-.151h.866l.038.066a.361.361 0 00.581.114.354.354 0 00.105-.266.345.345 0 00-.095-.255c-.095-.095-.21-.123-.353-.067a.823.823 0 00-.152.114l-.047.047-.676-.142.428-1.876h1.695v.768h-1.048l-.066.265h.038c.324.029.59.133.8.341zm-17.708-4.31l.514-.967-.733-.35-.866 1.61c-.105.2-.181.35-.209.455a1.004 1.004 0 00.266 1.042c.21.209.486.322.8.322.305 0 .562-.104.78-.303a.974.974 0 00.324-.748c0-.303-.105-.56-.314-.768a1.045 1.045 0 00-.562-.293zm.038 1.042a.278.278 0 01-.085.208.263.263 0 01-.381 0 .279.279 0 01-.086-.208c0-.086.029-.152.076-.209a.227.227 0 01.181-.075.29.29 0 01.2.075c.076.057.095.123.095.209zm3.028 3.382a.834.834 0 00.238-.587.943.943 0 00-.134-.484.964.964 0 00-.38-.35 1.3 1.3 0 00-1.095 0 .889.889 0 00-.381.34.884.884 0 00-.133.484c0 .133.028.256.085.37.039.075.086.151.143.227-.104.095-.19.19-.247.303a.959.959 0 00-.124.483c0 .2.048.389.152.55a.959.959 0 00.41.37c.171.075.39.113.657.113.257 0 .466-.038.637-.123a.926.926 0 00.41-.38c.105-.17.152-.35.152-.54a.92.92 0 00-.133-.501 1.382 1.382 0 00-.257-.275zm-.686-.389a.225.225 0 01-.314 0c-.047-.038-.066-.094-.066-.16a.2.2 0 01.057-.152.2.2 0 01.152-.057c.076 0 .124.019.171.057a.193.193 0 01.057.142c.01.076-.009.133-.057.17zm-.419.929a.394.394 0 01.277-.095c.104 0 .19.029.266.095.067.066.105.133.105.218a.257.257 0 01-.095.208c-.124.114-.419.114-.553-.01a.275.275 0 01-.095-.217c-.009-.076.029-.142.095-.2zm-1.961-.815l.514-.966-.733-.35-.866 1.61a2.64 2.64 0 00-.209.455 1.004 1.004 0 00.266 1.042c.21.208.486.322.8.322.305 0 .562-.105.78-.303a.974.974 0 00.324-.749c0-.303-.105-.559-.314-.767a1.113 1.113 0 00-.562-.294zm.038 1.052a.278.278 0 01-.085.208.263.263 0 01-.381 0 .278.278 0 01-.086-.208c0-.086.029-.152.076-.209a.263.263 0 01.181-.076.29.29 0 01.2.076c.076.057.095.123.095.209zm4.846-1.052l.514-.966-.733-.35-.866 1.61c-.105.199-.181.35-.21.455a1.209 1.209 0 00-.047.312c0 .275.105.521.314.73.209.208.485.322.8.322.304 0 .571-.105.78-.303a.974.974 0 00.324-.749c0-.303-.105-.559-.314-.767a1.113 1.113 0 00-.562-.294zm.038 1.052a.275.275 0 01-.086.208.262.262 0 01-.38 0 .278.278 0 01-.086-.208c0-.086.029-.152.076-.209a.261.261 0 01.181-.076.31.31 0 01.2.076.254.254 0 01.095.209zm5.845-1.772l-1.466 2.87-.733-.34 1.143-2.227h-1.238v-.777h2.313l-.019.474zm2.181-.55h-.791l-1.39 1.971-.019.029v.682h1.371v.616h.838v-.616h.276v-.768h-.276v-1.913h-.009zm-1.181 1.924l.343-.483v.483h-.343zm-4.636-1.923a1.12 1.12 0 00-.781.303.974.974 0 00-.324.748c0 .303.105.56.315.758.162.161.352.256.571.294l-.524.966.733.35.867-1.61c.114-.199.181-.35.209-.445a1.002 1.002 0 00-.267-1.042c-.209-.218-.476-.322-.799-.322zm.276 1.06a.273.273 0 01-.076.2c-.105.104-.276.094-.381 0a.263.263 0 01-.076-.2c0-.085.028-.15.085-.208a.248.248 0 01.191-.075.28.28 0 01.181.075c.057.057.076.123.076.209zm14.727-19.44l-.142.152h.942v.768h-2.428v-.446l1.01-.975c.228-.218.371-.389.447-.512a.703.703 0 00.105-.313.245.245 0 00-.086-.199.326.326 0 00-.447.02c-.067.066-.096.17-.105.293v.114h-.838l.01-.123c.019-.35.133-.635.352-.844.219-.208.504-.312.847-.312.21 0 .4.038.562.132.162.086.304.218.4.38a.996.996 0 01.152.502c0 .189-.057.407-.171.625-.115.199-.315.445-.61.739zm-2.789-6.081c-.19.274-.286.682-.286 1.26 0 .407.048.72.143.956.095.237.238.408.419.53.181.115.409.181.666.181.267 0 .486-.057.657-.18.172-.114.314-.303.419-.54.095-.237.143-.559.143-.966 0-.408-.048-.73-.143-.967a1.15 1.15 0 00-.428-.55 1.193 1.193 0 00-.667-.18c-.39-.009-.704.143-.923.456zm1.19.483c.057.085.124.293.124.748 0 .36-.048.625-.134.767-.076.133-.171.143-.228.143-.067 0-.162-.02-.257-.161-.057-.086-.124-.275-.124-.72 0-.275.019-.493.057-.626.038-.123.076-.208.134-.255a.324.324 0 01.18-.067c.067.01.162.029.248.17zm-6.112-14.182c.305 0 .571-.105.781-.304a.973.973 0 00.323-.748c0-.303-.104-.559-.314-.758a1.045 1.045 0 00-.561-.294l.514-.966-.733-.35-.867 1.61c-.104.2-.181.35-.209.455a1.004 1.004 0 00.266 1.042c.219.208.486.313.8.313zm-.276-1.061c0-.086.029-.152.076-.209a.246.246 0 01.181-.076.31.31 0 01.2.076c.057.057.076.114.076.2a.31.31 0 01-.076.208c-.114.104-.267.113-.381 0a.273.273 0 01-.076-.2zm2.723 18.407l-.867 1.61c-.104.2-.18.351-.209.455a1.001 1.001 0 00.267 1.042c.209.209.485.322.799.322.305 0 .571-.104.781-.303a.974.974 0 00.324-.748 1.04 1.04 0 00-.315-.768 1.041 1.041 0 00-.561-.293l.514-.966-.733-.351zm.257 2.359a.278.278 0 01-.086.208.263.263 0 01-.381 0 .278.278 0 01-.085-.208c0-.085.028-.152.076-.209.047-.056.105-.075.181-.075a.31.31 0 01.2.075.241.241 0 01.095.209zm4.617-10.667l-.866 1.61c-.105.199-.181.35-.21.455a1.208 1.208 0 00-.047.312 1 1 0 00.314.73c.209.208.485.322.799.322.305 0 .572-.104.781-.303a.974.974 0 00.324-.749c0-.303-.105-.559-.314-.767a1.048 1.048 0 00-.562-.294l.514-.966-.733-.35zm.257 2.359a.314.314 0 01-.076.208.263.263 0 01-.381 0 .279.279 0 01-.086-.208.31.31 0 01.077-.209.259.259 0 01.18-.076c.077 0 .143.029.2.076a.258.258 0 01.086.209zm-3.789 4.225l-.143.151h.943v.768h-2.428v-.446l1.009-.975c.229-.218.372-.389.448-.512a.712.712 0 00.104-.313.244.244 0 00-.085-.198.328.328 0 00-.448.018c-.066.067-.095.17-.104.294v.114h-.838l.009-.123c.019-.35.134-.635.353-.843.219-.209.504-.313.847-.313.209 0 .4.038.562.133a.96.96 0 01.399.378.988.988 0 01.153.503c0 .189-.057.407-.172.625-.114.199-.314.445-.609.739zm-3.646 6.982c0 .303.105.559.314.758.162.16.352.256.571.293l-.523.967.733.35.866-1.61c.114-.2.181-.35.209-.445a1.004 1.004 0 00-.266-1.042 1.11 1.11 0 00-.8-.323 1.12 1.12 0 00-.78.303.974.974 0 00-.324.749zm.838 0a.28.28 0 01.085-.209.247.247 0 01.191-.075.28.28 0 01.181.075.278.278 0 01.085.209.27.27 0 01-.076.199.271.271 0 01-.381 0 .244.244 0 01-.085-.2zm2.637 2.32a1.27 1.27 0 01-.771-.245 1.075 1.075 0 01-.419-.664l-.038-.151h.866l.038.066a.4.4 0 00.143.161.377.377 0 00.438-.047.358.358 0 00.104-.265.34.34 0 00-.095-.256c-.095-.095-.209-.123-.352-.057a.764.764 0 00-.152.114l-.048.047-.676-.142.429-1.876h1.694v.768h-1.047l-.067.265h.038a1.1 1.1 0 01.8.312c.21.209.314.474.314.796 0 .322-.114.597-.352.824a1.13 1.13 0 01-.847.35zm1.932-15.66a1.187 1.187 0 00-.666-.18c-.39 0-.705.152-.933.456-.19.274-.286.682-.286 1.26 0 .407.048.72.143.957.095.236.238.407.419.53.181.114.409.18.666.18.267 0 .486-.057.657-.18.172-.114.314-.303.41-.54.095-.237.142-.559.142-.966 0-.408-.047-.73-.142-.967a1.072 1.072 0 00-.41-.55zm-.285 1.517c0 .36-.048.625-.134.767-.076.133-.171.142-.238.142-.066 0-.161-.019-.257-.16-.057-.086-.123-.276-.123-.72 0-.276.019-.493.057-.626.038-.123.076-.209.133-.256a.325.325 0 01.181-.066c.067 0 .162.019.247.16.067.096.134.295.134.759zm-2.057 17.99a.974.974 0 00.324-.748c0-.303-.105-.56-.314-.768a1.045 1.045 0 00-.562-.293l.514-.967-.733-.35-.866 1.61c-.105.2-.181.351-.21.455a1.208 1.208 0 00-.047.313c0 .274.105.52.314.73.21.208.486.321.8.321.304 0 .571-.104.78-.303zm-1.056-.758a.31.31 0 01.076-.208c.047-.057.105-.076.181-.076a.31.31 0 01.2.076.251.251 0 01.076.199.314.314 0 01-.076.208c-.115.104-.267.114-.381 0a.27.27 0 01-.076-.199zm6.768-4.083l-.142.152h.942v.767h-2.428v-.445l1.01-.976c.228-.218.371-.388.447-.511a.703.703 0 00.105-.313.245.245 0 00-.086-.2.326.326 0 00-.447.02c-.067.066-.096.17-.105.293v.114h-.838l.01-.123c.019-.35.133-.635.352-.843.219-.209.504-.313.847-.313.21 0 .4.048.562.133.162.085.295.218.4.379a.997.997 0 01.152.502c0 .19-.057.407-.171.625-.115.2-.315.445-.61.74zM182.613 8.3l-1.39 1.97-.019.029v.682h1.371v.616h.837v-.616h.276v-.767h-.276V8.289l-.799.01zm-.391 1.923l.343-.483v.483h-.343zm5.322.588a.354.354 0 00.105-.266.341.341 0 00-.096-.256c-.095-.094-.209-.123-.352-.056a.823.823 0 00-.152.113l-.048.048-.676-.143.429-1.875h1.694v.767h-1.047l-.066.265h.038c.323 0 .59.105.799.313.21.208.314.474.314.796 0 .322-.114.597-.352.824a1.152 1.152 0 01-.847.332c-.295 0-.552-.076-.771-.247a1.075 1.075 0 01-.419-.663l-.038-.152h.866l.038.067a.4.4 0 00.143.16.335.335 0 00.438-.027zm-.476 17.412v-.616h.276v-.767h-.276v-1.923h-.79l-1.39 1.97-.019.029v.682h1.371v.616l.828.01zm-1.19-1.383l.343-.483v.483h-.343zm-.971 5.656l.866-1.61c.105-.2.181-.351.21-.446a1.21 1.21 0 00.047-.313 1 1 0 00-.314-.73 1.107 1.107 0 00-.8-.321 1.12 1.12 0 00-.78.303.974.974 0 00-.324.748c0 .303.105.56.314.758.162.161.353.256.571.294l-.523.966.733.35zm-.257-2.36c0-.085.028-.15.086-.208a.244.244 0 01.19-.075.278.278 0 01.267.284.27.27 0 01-.077.199c-.104.104-.285.104-.38 0a.24.24 0 01-.086-.2zm-3.475-12.163a.703.703 0 00.105-.313.245.245 0 00-.086-.199.327.327 0 00-.447.019c-.067.066-.096.17-.105.294v.113h-.838l.01-.123c.019-.35.133-.635.352-.843.219-.208.505-.313.847-.313a1.093 1.093 0 01.962.512.997.997 0 01.152.502c0 .19-.057.407-.171.625-.114.218-.305.465-.6.758l-.152.152h.942v.767h-2.427v-.445l1.009-.976c.228-.227.38-.398.447-.53zm1.476-4.15a.712.712 0 00.104-.313.244.244 0 00-.085-.199.328.328 0 00-.448.02c-.066.066-.095.17-.104.293l-.01.114h-.838l.01-.123c.019-.35.133-.635.352-.844.219-.208.505-.312.847-.312a1.093 1.093 0 01.962.512.996.996 0 01.152.502c0 .19-.057.407-.171.625-.114.218-.305.464-.6.758l-.143.151h.943v.768h-2.428v-.446l1.009-.975c.229-.228.381-.408.448-.53zm-1.409 22.822l.866-1.61c.114-.2.181-.35.209-.446a1.004 1.004 0 00-.266-1.042 1.11 1.11 0 00-.8-.322 1.12 1.12 0 00-.78.303.974.974 0 00-.324.749c0 .303.105.559.314.758.162.16.352.255.571.293l-.523.967.733.35zm-.257-2.359c0-.085.028-.151.085-.208a.246.246 0 01.191-.076.28.28 0 01.181.076.278.278 0 01.085.208.269.269 0 01-.076.2.271.271 0 01-.381 0 .244.244 0 01-.085-.2zm3.322-13.443h1.695v.768h-1.047l-.067.265h.038c.314 0 .59.104.8.312.209.209.314.474.314.796 0 .322-.114.597-.352.824a1.193 1.193 0 01-.848.332 1.21 1.21 0 01-.771-.246 1.12 1.12 0 01-.419-.663l-.038-.152h.867l.038.066a.362.362 0 00.58.114.354.354 0 00.105-.265.34.34 0 00-.095-.256c-.095-.095-.21-.123-.352-.057a.796.796 0 00-.153.114l-.047.047-.686-.142.438-1.857zm3.189-15.84h-1.237v-.777h2.313l-.009.474-1.466 2.87-.734-.34 1.133-2.227zm-2.599 30.505l-.009-.132h.838l.019.104a.495.495 0 00.123.275c.124.113.362.113.505-.01a.292.292 0 00.095-.227.31.31 0 00-.133-.247c-.105-.075-.257-.113-.457-.113h-.124v-.72l.114-.01a.713.713 0 00.277-.056.265.265 0 00.114-.086.18.18 0 00.038-.104.155.155 0 00-.048-.114c-.019-.019-.057-.047-.143-.047a.29.29 0 00-.152.047.233.233 0 00-.095.133l-.029.085h-.809l.019-.132c.038-.247.133-.446.286-.597a1.12 1.12 0 01.809-.313c.286 0 .533.085.733.265.2.18.305.398.305.645a.782.782 0 01-.134.435.712.712 0 01-.171.171.875.875 0 01.467.777.978.978 0 01-.353.767c-.228.209-.523.313-.876.313-.342 0-.618-.104-.837-.294a1.149 1.149 0 01-.372-.815zm3.647-5.883l-1.467 2.87-.733-.34 1.143-2.227h-1.238v-.776h2.314l-.019.473zm-3.485-24.622h-1.237v-.777h2.313l-.01.474-1.466 2.87-.733-.34 1.133-2.227zm4.389 4.576h-.838l.01-.123c.019-.35.133-.635.352-.843.219-.209.505-.313.847-.313a1.093 1.093 0 01.962.512.996.996 0 01.152.502c0 .19-.057.407-.171.625-.114.218-.305.464-.6.758l-.143.151h.943v.768h-2.428v-.446l1-.975c.228-.218.371-.389.447-.512a.703.703 0 00.105-.313.273.273 0 00-.086-.198.327.327 0 00-.447.018c-.067.067-.096.171-.105.294v.095zM182.67 2.5a.358.358 0 00.104-.265.34.34 0 00-.095-.256c-.095-.095-.209-.123-.352-.057a.763.763 0 00-.152.114l-.048.047-.676-.142.429-1.876h1.694v.768h-1.047l-.067.265h.038c.324 0 .591.104.8.313.209.208.314.473.314.795 0 .322-.114.597-.352.825a1.151 1.151 0 01-.847.331c-.295 0-.552-.076-.771-.246a1.075 1.075 0 01-.419-.663l-.038-.152h.866l.038.066a.399.399 0 00.143.161.335.335 0 00.438-.028zm.447 1.828a1.188 1.188 0 00-.666-.18 1.11 1.11 0 00-.933.455c-.191.275-.286.682-.286 1.26 0 .408.048.72.143.957.095.237.238.407.419.53.181.114.409.18.666.18.267 0 .486-.056.657-.18.172-.113.314-.303.419-.54.095-.236.143-.558.143-.966 0-.407-.048-.73-.143-.966a1.035 1.035 0 00-.419-.55zm-.276 1.516c0 .36-.048.626-.133.768-.076.132-.172.142-.238.142-.067 0-.162-.02-.257-.161-.057-.086-.124-.275-.124-.72 0-.275.019-.493.057-.626a.466.466 0 01.133-.255.33.33 0 01.181-.067c.067 0 .162.02.248.161.066.095.133.304.133.758zm2.037 5.836c.305 0 .572-.104.781-.303a.974.974 0 00.324-.748c0-.304-.105-.56-.314-.768a1.048 1.048 0 00-.562-.294l.514-.966-.733-.35-.866 1.61c-.105.2-.181.35-.21.455a1.21 1.21 0 00-.047.313 1 1 0 00.314.729c.219.218.485.322.799.322zm-.276-1.061c0-.085.029-.152.076-.208a.245.245 0 01.181-.076.29.29 0 01.2.076c.057.056.076.113.076.198a.309.309 0 01-.076.209.263.263 0 01-.381 0 .273.273 0 01-.076-.199zm-8.52 30.136c.305 0 .571-.104.781-.303a.973.973 0 00.323-.749c0-.303-.104-.559-.314-.767a1.045 1.045 0 00-.562-.294l.514-.966-.733-.35-.866 1.61a2.64 2.64 0 00-.209.455 1.004 1.004 0 00.266 1.042c.21.218.476.322.8.322zm-.276-1.061a.31.31 0 01.076-.209c.048-.056.105-.075.181-.075s.143.028.2.075a.25.25 0 01.076.2.314.314 0 01-.076.208.263.263 0 01-.381 0 .27.27 0 01-.076-.2zm-.286-23.012h1.085v3.23h-.847V17.46h-.742l.504-.777zm3.408-8.308h2.314l-.01.473-1.466 2.87-.733-.34 1.142-2.226h-1.237l-.01-.777zm5.96 25.399l-1.466 2.87-.733-.34 1.142-2.227h-1.237V33.3h2.313l-.019.474zm-7.435-17.09h2.313l-.009.473-1.466 2.87-.734-.34 1.143-2.227h-1.238l-.009-.777zm7.14 23.996h-2.428v-.445l1.009-.976c.229-.218.372-.389.448-.512a.712.712 0 00.104-.312.244.244 0 00-.085-.2.328.328 0 00-.448.02c-.066.066-.095.17-.104.293v.114h-.838l.009-.123c.019-.35.134-.635.353-.843.219-.209.504-.313.847-.313.209 0 .4.047.562.133.161.085.304.218.399.379a.988.988 0 01.153.502c0 .19-.057.407-.172.625-.114.218-.304.464-.599.758l-.143.152h.942l-.009.748zm-7.274-16.494l-.733-.34 1.143-2.227h-1.238v-.777h2.314l-.01.474-1.476 2.87zm2.809-.123h.838v-.616h.276v-.767h-.276v-1.923h-.791l-1.389 1.98-.019.028v.682h1.37v.616h-.009zm-.343-1.373l.343-.484v.483h-.343z" fill="#F2D080"/></g><defs><clipPath id="clip0_147_95"><path fill="#fff" d="M0 0h238v45H0z"/></clipPath></defs></svg>