<svg width="143" height="48" fill="none" xmlns="http://www.w3.org/2000/svg"><g clip-path="url(#clip0_147_85)"><path d="M101.908 37.005V0h7.384v37.005h-7.384z" fill="#F7A600"/><path d="M15.862 47.994H.034v-37h15.193c7.378 0 11.686 4.057 11.686 10.396 0 4.108-2.763 6.753-4.68 7.64 2.283 1.038 5.206 3.377 5.206 8.316 0 6.903-4.834 10.648-11.577 10.648zm-1.219-30.552h-7.23v8.523h7.23c3.135 0 4.89-1.717 4.89-4.264s-1.755-4.259-4.89-4.259zm.475 15.017H7.413v9.093h7.7c3.351 0 4.941-2.08 4.941-4.575s-1.595-4.518-4.936-4.518zm34.841.357v15.178h-7.334V32.816L31.26 10.994h8.025l7.059 14.913 6.96-14.912h8.02L49.96 32.816zm32.295 15.178H66.426v-37H81.62c7.379 0 11.686 4.057 11.686 10.396 0 4.108-2.763 6.753-4.68 7.64 2.283 1.038 5.206 3.377 5.206 8.316 0 6.903-4.828 10.648-11.577 10.648zm-1.219-30.552h-7.224v8.523h7.224c3.135 0 4.89-1.717 4.89-4.264-.005-2.547-1.76-4.259-4.89-4.259zm.475 15.017h-7.7v9.093h7.7c3.352 0 4.942-2.08 4.942-4.575s-1.596-4.518-4.942-4.518zm51.577-15.017V48h-7.384V17.442h-9.879v-6.447h27.142v6.447h-9.879z" fill="#fff"/></g><defs><clipPath id="clip0_147_85"><path fill="#fff" d="M0 0h143v48H0z"/></clipPath></defs></svg>