<svg width="211" height="38" fill="none" xmlns="http://www.w3.org/2000/svg"><g clip-path="url(#clip0_147_76)"><path d="M42.585 10.609c-7.665 0-13.654 5.866-13.654 13.72 0 7.853 5.838 13.67 13.654 13.67 7.817 0 13.756-5.918 13.756-13.72 0-7.754-5.838-13.67-13.756-13.67zm.052 21.73c-4.365 0-7.563-3.418-7.563-8.008 0-4.643 3.146-8.058 7.511-8.058 4.417 0 7.614 3.468 7.614 8.058s-3.197 8.007-7.562 8.007zm15.378-15.761h3.808V37.49h6.09V11.12h-9.898v5.459zm-44.412-.308c3.198 0 5.736 1.99 6.7 4.948h6.446c-1.168-6.324-6.345-10.61-13.095-10.61C5.99 10.609 0 16.476 0 24.332 0 32.186 5.838 38 13.654 38c6.599 0 11.877-4.285 13.046-10.661h-6.398c-.913 2.958-3.451 5-6.65 5-4.416 0-7.511-3.418-7.511-8.008.001-4.643 3.047-8.06 7.462-8.06zm160.14 5.51l-4.466-.663c-2.132-.305-3.655-1.02-3.655-2.703 0-1.836 1.981-2.754 4.67-2.754 2.944 0 4.822 1.275 5.229 3.366h5.887c-.661-5.304-4.721-8.415-10.963-8.415-6.447 0-10.711 3.315-10.711 8.008 0 4.487 2.793 7.09 8.426 7.905l4.466.662c2.184.305 3.402 1.174 3.402 2.806 0 2.091-2.132 2.958-5.076 2.958-3.604 0-5.634-1.479-5.939-3.723h-5.989c.559 5.152 4.568 8.773 11.877 8.773 6.65 0 11.065-3.06 11.065-8.315 0-4.692-3.197-7.14-8.223-7.905zM64.868.255c-2.233 0-3.909 1.632-3.909 3.875 0 2.244 1.674 3.876 3.91 3.876 2.233 0 3.909-1.632 3.909-3.876 0-2.243-1.677-3.875-3.91-3.875zm89.385 19.893c0-5.712-3.452-9.537-10.761-9.537-6.902 0-10.76 3.52-11.522 8.927h6.041c.304-2.091 1.928-3.825 5.38-3.825 3.097 0 4.62 1.376 4.62 3.06 0 2.194-2.793 2.754-6.244 3.11-4.67.51-10.456 2.142-10.456 8.264 0 4.744 3.503 7.803 9.086 7.803 4.365 0 7.106-1.837 8.477-4.745.204 2.601 2.132 4.285 4.823 4.285h3.553v-5.457h-2.995V20.148h-.002zm-5.99 6.631c0 3.52-3.045 6.121-6.751 6.121-2.285 0-4.214-.97-4.214-3.008 0-2.601 3.097-3.316 5.94-3.62 2.741-.256 4.263-.868 5.025-2.042v2.549zm-32.332-16.17c-3.402 0-6.244 1.429-8.274 3.825V0h-6.091v37.49h5.989v-3.468c2.03 2.499 4.924 3.978 8.376 3.978 7.309 0 12.842-5.814 12.842-13.67 0-7.855-5.635-13.721-12.842-13.721zm-.914 21.73c-4.365 0-7.563-3.418-7.563-8.008 0-4.59 3.248-8.058 7.613-8.058 4.417 0 7.512 3.417 7.512 8.058 0 4.59-3.197 8.007-7.562 8.007zm-28.02-21.73c-3.958 0-6.548 1.632-8.07 3.928v-3.418h-6.041v26.37h6.09V23.156c0-4.03 2.538-6.887 6.294-6.887 3.504 0 5.685 2.5 5.685 6.122V37.49h6.09V21.934c.003-6.633-3.397-11.325-10.047-11.325zM211 23.463c0-7.548-5.482-12.852-12.842-12.852-7.817 0-13.553 5.916-13.553 13.72 0 8.212 6.142 13.669 13.654 13.669 6.346 0 11.32-3.775 12.588-9.13h-6.346c-.913 2.346-3.147 3.673-6.142 3.673-3.909 0-6.853-2.448-7.512-6.733h20.151v-2.346H211zm-19.797-2.04c.966-3.673 3.706-5.458 6.853-5.458 3.452 0 6.091 1.99 6.7 5.457h-13.553z" fill="#0052FF"/></g><defs><clipPath id="clip0_147_76"><path fill="#fff" d="M0 0h211v38H0z"/></clipPath></defs></svg>