<svg width="237" height="47" fill="none" xmlns="http://www.w3.org/2000/svg"><g clip-path="url(#clip0_147_63)" fill="#F3BA2F"><path d="M14.314 19.75l9.22-9.127 9.225 9.132 5.365-5.311L23.534 0 8.95 14.439l5.365 5.31zm-3.789 3.75L5.16 18.187-.205 23.5l5.365 5.31 5.365-5.31zm3.789 3.75l9.22 9.127 9.225-9.131 5.368 5.308-.003.003L23.534 47 8.948 32.562l-.007-.008 5.373-5.304zm27.595 1.563l5.365-5.311-5.365-5.311-5.365 5.311 5.365 5.31z"/><path d="M28.976 23.497h.002l-5.444-5.39-4.023 3.984-.463.457-.953.944-.008.008.008.008 5.44 5.384 5.443-5.39.003-.002-.005-.003zm26.662-12.108h11.668c2.896 0 5.086.735 6.57 2.207 1.149 1.14 1.723 2.552 1.723 4.237v.071c0 .712-.089 1.341-.268 1.887a5.845 5.845 0 01-.715 1.477c-.297.44-.643.826-1.036 1.157a6.953 6.953 0 01-1.269.855c1.456.546 2.602 1.288 3.438 2.226.835.938 1.253 2.237 1.253 3.898v.071c0 1.14-.221 2.137-.664 2.992a5.83 5.83 0 01-1.904 2.136c-.826.57-1.82.997-2.98 1.282-1.161.284-2.448.427-3.86.427H55.638V11.389zM66.14 21.465c1.223 0 2.194-.208 2.913-.623.72-.416 1.079-1.087 1.079-2.012v-.071c0-.83-.312-1.465-.936-1.905-.623-.44-1.522-.659-2.697-.659h-5.467v5.27h5.108zm1.474 10.04c1.223 0 2.182-.218 2.878-.658.695-.44 1.043-1.122 1.043-2.048v-.07c0-.831-.324-1.49-.971-1.977-.648-.486-1.69-.73-3.13-.73h-6.402v5.484h6.582zm16.337-20.116h5.54v24.923h-5.54V11.39zm13.929 0h5.107l11.798 15.346V11.389h5.467v24.923h-4.712l-12.193-15.844v15.844H97.88V11.39zm39.141-.179h5.107l10.791 25.102h-5.791l-2.302-5.59H134.18l-2.302 5.59h-5.648l10.791-25.101zm5.827 14.67l-3.345-8.082-3.345 8.082h6.69zm16.05-14.491h5.108l11.797 15.346V11.389h5.467v24.923h-4.712l-12.193-15.844v15.844h-5.467V11.39zm42.306 25.351c-1.847 0-3.56-.333-5.143-.997-1.583-.665-2.95-1.573-4.1-2.724a12.37 12.37 0 01-2.698-4.077c-.647-1.567-.971-3.24-.971-5.02v-.072c0-1.78.324-3.447.971-5.002a12.826 12.826 0 012.698-4.095c1.15-1.175 2.529-2.1 4.135-2.777 1.606-.677 3.382-1.015 5.324-1.015 1.174 0 2.247.096 3.218.285.971.19 1.852.451 2.644.783.792.333 1.522.736 2.195 1.21.67.476 1.294.998 1.869 1.568l-3.524 4.023c-.984-.878-1.985-1.567-3.003-2.065-1.02-.498-2.164-.748-3.435-.748-1.056 0-2.033.202-2.931.606a6.947 6.947 0 00-2.321 1.673 7.818 7.818 0 00-1.511 2.474 8.366 8.366 0 00-.538 3.009v.07c0 1.069.18 2.078.538 3.027.361.95.857 1.78 1.494 2.492a6.95 6.95 0 002.301 1.692c.9.416 1.889.623 2.968.623 1.439 0 2.655-.261 3.65-.783.995-.522 1.985-1.234 2.968-2.137l3.524 3.525a18.187 18.187 0 01-2.014 1.852 11.953 11.953 0 01-2.284 1.407c-.827.39-1.733.688-2.715.89-.984.2-2.086.302-3.309.302zm16.841-25.351H237v4.878h-13.487v5.056h11.869V26.2h-11.869v5.235h13.668v4.877h-19.136V11.39z"/></g><defs><clipPath id="clip0_147_63"><path fill="#fff" d="M0 0h237v47H0z"/></clipPath></defs></svg>