<svg width="225" height="62" fill="none" xmlns="http://www.w3.org/2000/svg"><g clip-path="url(#clip0_147_82)"><path d="M177.518 57.797v3.848h26.449V44.24h-3.865v13.558h-22.584zm0-57.468v3.849h22.584v13.557h3.84V.33h-26.424zm-13.632 29.868v-8.97h6.053c2.95 0 3.993.994 3.993 3.67v1.58c0 2.752-1.017 3.695-3.993 3.695l-6.053.025zm9.588 1.58c2.747-.713 4.68-3.287 4.68-6.37 0-1.912-.789-3.773-2.188-5.072-1.805-1.733-4.221-2.6-7.375-2.6h-8.494V44.24h3.789V33.663h5.671c2.9 0 4.07 1.223 4.07 4.23v6.32h3.865v-5.708c0-4.154-.991-5.76-3.993-6.218l-.025-.51zm-31.816.892h11.648v-3.491h-11.648v-7.951h12.767v-3.492h-16.607V44.24h17.192v-3.491h-13.352V32.67zm-12.64 1.376v1.81c0 3.823-1.398 5.071-4.908 5.071h-.839c-3.51 0-5.214-1.147-5.214-6.396v-7.11c0-5.301 1.78-6.397 5.29-6.397h.763c3.433 0 4.527 1.274 4.578 4.842h4.145c-.381-5.224-3.84-8.512-9.054-8.512-2.543 0-4.654.79-6.231 2.32-2.39 2.242-3.687 6.014-3.687 11.314 0 5.097 1.144 8.894 3.484 11.239a8.58 8.58 0 005.926 2.395c2.263 0 4.349-.917 5.391-2.88h.534v2.524h3.485v-13.66h-10.25v3.466h6.587v-.026zM95.702 21.227h4.12c3.891 0 6.002.994 6.002 6.269v6.957c0 5.3-2.111 6.295-6.002 6.295h-4.12V21.227zm4.451 23.012c7.222 0 9.893-5.479 9.893-13.252 0-7.874-2.874-13.252-9.97-13.252h-8.163V44.24h8.24zM73.677 32.67h11.648v-3.491H73.678v-7.951h12.767v-3.492H69.813V44.24h17.192v-3.491H73.677V32.67zM51.373 17.735h-3.865V44.24h17.37v-3.491H51.373V17.735zM21.058 44.24v17.406h26.45v-3.874h-22.61V44.214h-3.84v.025zm0-43.91v17.406h3.84V4.178h22.584V.329H21.058z" fill="#fff"/></g><defs><clipPath id="clip0_147_82"><path fill="#fff" d="M0 0h225v62H0z"/></clipPath></defs></svg>