<svg width="1440" height="426" fill="none" xmlns="http://www.w3.org/2000/svg"><g clip-path="url(#clip0_72_1451)"><path d="M1194.67-220.174c-8.69 34.303-33 62.963-69.6 85.407-36.61 22.446-85.48 38.654-143.221 48.05-115.48 18.79-266.329 10.312-425.165-29.91C397.848-156.85 261.145-221.19 168.527-292.678c-46.31-35.744-81.578-73.26-103.089-110.423-21.509-37.159-29.246-73.935-20.56-108.238 8.687-34.302 32.995-62.963 69.598-85.407 36.605-22.445 85.479-38.654 143.219-48.049 115.48-18.791 266.329-10.313 425.165 29.91 158.836 40.222 295.539 104.562 388.16 176.05 46.31 35.744 81.57 73.261 103.09 110.423 21.5 37.16 29.24 73.935 20.56 108.238z" stroke="url(#paint0_linear_72_1451)"/><path d="M1455.27-154.18c-12.64 49.913-48 91.598-101.22 124.229-53.22 32.632-124.26 56.189-208.17 69.843C978.06 67.199 758.855 54.877 528.054-3.57 297.254-62.016 98.604-155.51-35.994-259.4c-67.3-51.945-118.566-106.475-149.839-160.503-31.271-54.025-42.535-107.518-29.895-157.431 12.64-49.913 48.006-91.598 101.221-124.228 53.218-32.632 124.259-56.19 208.17-69.843 167.821-27.308 387.026-14.986 617.827 43.461 230.8 58.446 429.45 151.939 564.05 255.829 67.3 51.945 118.56 106.475 149.84 160.503 31.27 54.025 42.53 107.519 29.89 157.431z" stroke="url(#paint1_linear_72_1451)"/><path d="M1772.38-73.877c-17.45 68.907-66.27 126.44-139.7 171.466-73.43 45.028-171.45 77.527-287.2 96.362-231.51 37.671-533.895 20.671-852.263-59.95C174.849 53.38-99.179-75.587-284.857-218.904c-92.841-71.659-163.573-146.891-206.725-221.441-43.15-74.548-58.704-148.383-41.255-217.29 17.45-68.908 66.272-126.441 139.701-171.467 73.433-45.027 171.447-77.526 287.203-96.362 231.511-37.67 533.893-20.671 852.261 59.951C1064.7-784.892 1338.72-655.925 1524.4-512.608c92.84 71.659 163.58 146.891 206.73 221.441 43.15 74.547 58.7 148.383 41.25 217.29z" stroke="url(#paint2_linear_72_1451)"/></g><defs><linearGradient id="paint0_linear_72_1451" x1="84.696" y1="-531.204" x2="1080.75" y2="-117.975" gradientUnits="userSpaceOnUse"><stop stop-color="#484848"/><stop offset=".491" stop-color="#484848" stop-opacity=".36"/><stop offset="1" stop-color="#484848"/></linearGradient><linearGradient id="paint1_linear_72_1451" x1="-157.657" y1="-606.141" x2="1289.55" y2="-5.747" gradientUnits="userSpaceOnUse"><stop stop-color="#484848"/><stop offset=".491" stop-color="#484848" stop-opacity=".36"/><stop offset="1" stop-color="#484848"/></linearGradient><linearGradient id="paint2_linear_72_1451" x1="-452.554" y1="-697.324" x2="1543.61" y2="130.813" gradientUnits="userSpaceOnUse"><stop stop-color="#484848"/><stop offset=".491" stop-color="#484848" stop-opacity=".36"/><stop offset="1" stop-color="#484848"/></linearGradient><clipPath id="clip0_72_1451"><path fill="#fff" d="M0 0h1440v426H0z"/></clipPath></defs></svg>