<svg width="32" height="32" fill="none" xmlns="http://www.w3.org/2000/svg"><path fill-rule="evenodd" clip-rule="evenodd" d="M12.598 4.374c-.243.729-.797 1.302-1.469 1.675a11.02 11.02 0 00-.31.18c-.66.396-1.434.59-2.187.436l-1.603-.328a2.667 2.667 0 00-2.844 1.28L3.357 9.05a2.667 2.667 0 00.314 3.103l1.087 1.225c.51.575.73 1.34.717 2.108-.002.12-.002.24 0 .361.012.768-.208 1.534-.717 2.108L3.671 19.18a2.667 2.667 0 00-.314 3.103l.828 1.434a2.667 2.667 0 002.844 1.28l1.603-.329c.753-.154 1.528.04 2.187.437l.31.179c.672.374 1.226.947 1.47 1.676l.516 1.55a2.667 2.667 0 002.53 1.823h1.656a2.666 2.666 0 002.53-1.823l.517-1.55c.243-.73.797-1.302 1.469-1.676.104-.058.207-.118.31-.18.66-.395 1.434-.59 2.188-.436l1.602.328a2.667 2.667 0 002.844-1.279l.828-1.434a2.667 2.667 0 00-.314-3.103l-1.087-1.225c-.51-.574-.73-1.34-.717-2.108.002-.12.002-.24 0-.361-.012-.768.208-1.533.717-2.108l1.087-1.225a2.667 2.667 0 00.314-3.103l-.828-1.434a2.667 2.667 0 00-2.844-1.279l-1.603.328c-.753.154-1.528-.04-2.187-.436a10.88 10.88 0 00-.31-.18c-.672-.373-1.226-.946-1.47-1.675l-.516-1.55A2.667 2.667 0 0017.3 1h-1.656a2.667 2.667 0 00-2.53 1.823l-.517 1.55zm7.875 11.293a4 4 0 11-8 0 4 4 0 018 0z" fill="#7B839A"/></svg>