<svg width="80" height="80" fill="none" xmlns="http://www.w3.org/2000/svg"><g filter="url(#filter0_b_347_50)"><path d="M0 39.895C0 17.862 17.966 0 40 0s40 17.862 40 39.895c0 22.034-17.966 39.896-40 39.896S0 61.929 0 39.895z" fill="url(#paint0_radial_347_50)"/><path d="M.5 39.895C.5 18.14 18.24.5 40 .5s39.5 17.64 39.5 39.395c0 21.756-17.74 39.396-39.5 39.396S.5 61.65.5 39.895z" stroke="url(#paint1_radial_347_50)"/><path d="M.5 39.895C.5 18.14 18.24.5 40 .5s39.5 17.64 39.5 39.395c0 21.756-17.74 39.396-39.5 39.396S.5 61.65.5 39.895z" stroke="url(#paint2_radial_347_50)"/><path d="M.5 39.895C.5 18.14 18.24.5 40 .5s39.5 17.64 39.5 39.395c0 21.756-17.74 39.396-39.5 39.396S.5 61.65.5 39.895z" stroke="url(#paint3_radial_347_50)"/></g><path d="M33.593 27.625h12.512l2.296-4.084a2.767 2.767 0 00-.247-3.107 2.782 2.782 0 00-2.97-.949l-6.875 1.953-3.19-1.307a2.779 2.779 0 00-3.163.743 2.782 2.782 0 00-.343 3.231l1.98 3.534v-.014zm21.106 23.32l-4.483-13.544a8.219 8.219 0 00-3.809-4.592l-.783-2.434H34.046l-.797 2.461s0 .124-.028.193A8.194 8.194 0 0029.77 37.4l-4.482 13.544a7.272 7.272 0 001.017 6.627 7.288 7.288 0 005.968 3.053h15.413a7.288 7.288 0 005.968-3.053 7.272 7.272 0 001.017-6.627h.028zM41.953 45.5c.66 0 1.278.289 1.69.77.372.44.55 1.004.496 1.567v2.792c.041.495-.138.962-.495 1.306-.399.385-.908.481-1.334.481-.179 0-.344-.013-.481-.041h-.44a1.38 1.38 0 01-1.375 1.375 1.379 1.379 0 01-1.375-1.375h-1.375A1.379 1.379 0 0135.889 51c0-.756.618-1.375 1.375-1.375h4.125V48.25h-3.314c-1.073 0-1.788-.935-2.104-1.801a1.34 1.34 0 01-.082-.468V43.63a2.271 2.271 0 012.268-2.269h.482a1.38 1.38 0 011.375-1.375 1.38 1.38 0 011.375 1.375h1.375a1.38 1.38 0 011.375 1.375c0 .757-.619 1.375-1.375 1.375h-4.125v1.375h3.313v.014z" fill="#46DF83"/><defs><radialGradient id="paint0_radial_347_50" cx="0" cy="0" r="1" gradientUnits="userSpaceOnUse" gradientTransform="matrix(80.0001 88.67778 -64.4307 58.12575 6.692 0)"><stop stop-color="#fff" stop-opacity=".36"/><stop offset="1" stop-color="#fff" stop-opacity="0"/></radialGradient><radialGradient id="paint1_radial_347_50" cx="0" cy="0" r="1" gradientUnits="userSpaceOnUse" gradientTransform="matrix(75.448 52.90976 -31.22766 44.52987 -42.597 8.163)"><stop stop-color="#fff"/><stop offset="1" stop-color="#fff" stop-opacity=".06"/></radialGradient><radialGradient id="paint2_radial_347_50" cx="0" cy="0" r="1" gradientUnits="userSpaceOnUse" gradientTransform="rotate(161.385 47.335 35.175) scale(66.8428 45.1784)"><stop stop-color="#8470FF"/><stop offset="1" stop-color="#865CFF" stop-opacity="0"/></radialGradient><radialGradient id="paint3_radial_347_50" cx="0" cy="0" r="1" gradientUnits="userSpaceOnUse" gradientTransform="matrix(30.32378 32.76379 -23.54952 21.79572 40.871 -18.236)"><stop/><stop offset="1" stop-color="#fff" stop-opacity="0"/></radialGradient><filter id="filter0_b_347_50" x="-5" y="-5" width="90" height="89.791" filterUnits="userSpaceOnUse" color-interpolation-filters="sRGB"><feFlood flood-opacity="0" result="BackgroundImageFix"/><feGaussianBlur in="BackgroundImageFix" stdDeviation="2.5"/><feComposite in2="SourceAlpha" operator="in" result="effect1_backgroundBlur_347_50"/><feBlend in="SourceGraphic" in2="effect1_backgroundBlur_347_50" result="shape"/></filter></defs></svg>