<svg width="80" height="80" fill="none" xmlns="http://www.w3.org/2000/svg"><g filter="url(#filter0_b_347_30)"><path d="M0 39.895C0 17.862 17.966 0 40 0s40 17.862 40 39.895c0 22.034-17.966 39.896-40 39.896S0 61.929 0 39.895z" fill="url(#paint0_radial_347_30)"/><path d="M.5 39.895C.5 18.14 18.24.5 40 .5s39.5 17.64 39.5 39.395c0 21.756-17.74 39.396-39.5 39.396S.5 61.65.5 39.895z" stroke="url(#paint1_radial_347_30)"/><path d="M.5 39.895C.5 18.14 18.24.5 40 .5s39.5 17.64 39.5 39.395c0 21.756-17.74 39.396-39.5 39.396S.5 61.65.5 39.895z" stroke="url(#paint2_radial_347_30)"/><path d="M.5 39.895C.5 18.14 18.24.5 40 .5s39.5 17.64 39.5 39.395c0 21.756-17.74 39.396-39.5 39.396S.5 61.65.5 39.895z" stroke="url(#paint3_radial_347_30)"/></g><path fill-rule="evenodd" clip-rule="evenodd" d="M59.75 26.956a4.965 4.965 0 00-1.45-3.505A4.965 4.965 0 0054.793 22H25.956a4.965 4.965 0 00-3.505 1.45A4.965 4.965 0 0021 26.957v19.826a4.97 4.97 0 001.45 3.506 4.965 4.965 0 003.506 1.45h8.336l5.002 6.669a1.352 1.352 0 002.162 0l5.002-6.669h8.336a4.965 4.965 0 003.505-1.45 4.965 4.965 0 001.451-3.506V26.956zM30.109 37.448a7.728 7.728 0 00-2.504 4.493c-.003.022-.007.043-.009.065a2.252 2.252 0 002.24 2.523c2.344 0 8.385 0 10.73-.025.624 0 1.231-.274 1.653-.75a2.221 2.221 0 00.544-1.745c-.002-.018-.003-.036-.007-.052a7.656 7.656 0 00-2.48-4.508 6.297 6.297 0 01-5.083 2.574 6.302 6.302 0 01-5.084-2.575zm19.503-1.93v-2.254a1.352 1.352 0 00-2.704 0v2.253h-2.252a1.352 1.352 0 000 2.704h2.252v2.253a1.352 1.352 0 002.704 0V38.22h2.253a1.352 1.352 0 000-2.704h-2.253zm-14.419-6.309a4.507 4.507 0 00-4.505 4.506 4.507 4.507 0 004.505 4.506 4.507 4.507 0 004.506-4.506 4.507 4.507 0 00-4.506-4.506z" fill="#46DF83"/><defs><radialGradient id="paint0_radial_347_30" cx="0" cy="0" r="1" gradientUnits="userSpaceOnUse" gradientTransform="matrix(80.0001 88.67778 -64.4307 58.12575 6.692 0)"><stop stop-color="#fff" stop-opacity=".36"/><stop offset="1" stop-color="#fff" stop-opacity="0"/></radialGradient><radialGradient id="paint1_radial_347_30" cx="0" cy="0" r="1" gradientUnits="userSpaceOnUse" gradientTransform="matrix(75.448 52.90976 -31.22766 44.52987 -42.597 8.163)"><stop stop-color="#fff"/><stop offset="1" stop-color="#fff" stop-opacity=".06"/></radialGradient><radialGradient id="paint2_radial_347_30" cx="0" cy="0" r="1" gradientUnits="userSpaceOnUse" gradientTransform="rotate(161.385 47.335 35.175) scale(66.8428 45.1784)"><stop stop-color="#8470FF"/><stop offset="1" stop-color="#865CFF" stop-opacity="0"/></radialGradient><radialGradient id="paint3_radial_347_30" cx="0" cy="0" r="1" gradientUnits="userSpaceOnUse" gradientTransform="matrix(30.32378 32.76379 -23.54952 21.79572 40.871 -18.236)"><stop/><stop offset="1" stop-color="#fff" stop-opacity="0"/></radialGradient><filter id="filter0_b_347_30" x="-5" y="-5" width="90" height="89.791" filterUnits="userSpaceOnUse" color-interpolation-filters="sRGB"><feFlood flood-opacity="0" result="BackgroundImageFix"/><feGaussianBlur in="BackgroundImageFix" stdDeviation="2.5"/><feComposite in2="SourceAlpha" operator="in" result="effect1_backgroundBlur_347_30"/><feBlend in="SourceGraphic" in2="effect1_backgroundBlur_347_30" result="shape"/></filter></defs></svg>