<svg width="80" height="80" fill="none" xmlns="http://www.w3.org/2000/svg"><g filter="url(#filter0_b_347_2)"><path d="M0 39.895C0 17.862 17.966 0 40 0s40 17.862 40 39.895c0 22.034-17.966 39.896-40 39.896S0 61.929 0 39.895z" fill="url(#paint0_radial_347_2)"/><path d="M.5 39.895C.5 18.14 18.24.5 40 .5s39.5 17.64 39.5 39.395c0 21.756-17.74 39.396-39.5 39.396S.5 61.65.5 39.895z" stroke="url(#paint1_radial_347_2)"/><path d="M.5 39.895C.5 18.14 18.24.5 40 .5s39.5 17.64 39.5 39.395c0 21.756-17.74 39.396-39.5 39.396S.5 61.65.5 39.895z" stroke="url(#paint2_radial_347_2)"/><path d="M.5 39.895C.5 18.14 18.24.5 40 .5s39.5 17.64 39.5 39.395c0 21.756-17.74 39.396-39.5 39.396S.5 61.65.5 39.895z" stroke="url(#paint3_radial_347_2)"/></g><g clip-path="url(#clip0_347_2)" fill="#46DF83"><path d="M40.243 38.838c2.393 0 4.465-.858 6.158-2.551 1.693-1.693 2.551-3.765 2.551-6.158 0-2.393-.858-4.465-2.551-6.158-1.694-1.693-3.765-2.551-6.158-2.551-2.393 0-4.465.858-6.158 2.551-1.693 1.693-2.552 3.765-2.552 6.158 0 2.393.859 4.465 2.552 6.158 1.694 1.693 3.765 2.551 6.158 2.551zm15.24 10.387a21.53 21.53 0 00-.293-2.285 18.015 18.015 0 00-.562-2.297 11.354 11.354 0 00-.945-2.142 8.085 8.085 0 00-1.424-1.856 6.28 6.28 0 00-2.045-1.286 7.07 7.07 0 00-2.612-.472c-.37 0-.726.151-1.415.6-.425.277-.921.597-1.475.95-.474.303-1.116.586-1.908.842a7.578 7.578 0 01-2.334.377c-.774 0-1.56-.127-2.334-.377-.791-.256-1.433-.539-1.906-.84-.549-.351-1.045-.672-1.476-.952-.689-.449-1.046-.6-1.415-.6-.94 0-1.819.159-2.611.473a6.274 6.274 0 00-2.046 1.285 8.089 8.089 0 00-1.424 1.856c-.392.69-.71 1.412-.944 2.143a18.04 18.04 0 00-.562 2.297 21.56 21.56 0 00-.293 2.285c-.048.692-.072 1.41-.072 2.136 0 1.887.6 3.415 1.783 4.542 1.169 1.112 2.715 1.676 4.595 1.676h17.412c1.88 0 3.426-.563 4.595-1.676 1.184-1.126 1.784-2.654 1.784-4.543 0-.728-.025-1.447-.073-2.136z"/></g><defs><radialGradient id="paint0_radial_347_2" cx="0" cy="0" r="1" gradientUnits="userSpaceOnUse" gradientTransform="matrix(80.0001 88.67778 -64.4307 58.12575 6.692 0)"><stop stop-color="#fff" stop-opacity=".36"/><stop offset="1" stop-color="#fff" stop-opacity="0"/></radialGradient><radialGradient id="paint1_radial_347_2" cx="0" cy="0" r="1" gradientUnits="userSpaceOnUse" gradientTransform="matrix(75.448 52.90976 -31.22766 44.52987 -42.597 8.163)"><stop stop-color="#fff"/><stop offset="1" stop-color="#fff" stop-opacity=".06"/></radialGradient><radialGradient id="paint2_radial_347_2" cx="0" cy="0" r="1" gradientUnits="userSpaceOnUse" gradientTransform="rotate(161.385 47.335 35.175) scale(66.8428 45.1784)"><stop stop-color="#8470FF"/><stop offset="1" stop-color="#865CFF" stop-opacity="0"/></radialGradient><radialGradient id="paint3_radial_347_2" cx="0" cy="0" r="1" gradientUnits="userSpaceOnUse" gradientTransform="matrix(30.32378 32.76379 -23.54952 21.79572 40.871 -18.236)"><stop/><stop offset="1" stop-color="#fff" stop-opacity="0"/></radialGradient><clipPath id="clip0_347_2"><path fill="#fff" transform="translate(22.42 21.42)" d="M0 0h36.161v36.161H0z"/></clipPath><filter id="filter0_b_347_2" x="-5" y="-5" width="90" height="89.791" filterUnits="userSpaceOnUse" color-interpolation-filters="sRGB"><feFlood flood-opacity="0" result="BackgroundImageFix"/><feGaussianBlur in="BackgroundImageFix" stdDeviation="2.5"/><feComposite in2="SourceAlpha" operator="in" result="effect1_backgroundBlur_347_2"/><feBlend in="SourceGraphic" in2="effect1_backgroundBlur_347_2" result="shape"/></filter></defs></svg>