<svg width="266" height="27" fill="none" xmlns="http://www.w3.org/2000/svg"><path d="M124.903 0h26.313v26.313h-26.313V0zm28.505 0h26.313v26.313h-26.313V0zm28.506 0h26.312v26.313h-26.312V0zm28.505 0h26.312v26.313h-26.312V0zm28.505 0h26.313v26.313h-26.313V0z" fill="#00B67A"/><path d="M138.059 17.733l4.002-1.014 1.672 5.153-5.674-4.139zm9.21-6.66h-7.044l-2.166-6.633-2.165 6.633h-7.044l5.701 4.111-2.165 6.633 5.701-4.11 3.508-2.523 5.674-4.11zm19.296 6.66l4.001-1.014 1.672 5.153-5.673-4.139zm9.209-6.66h-7.044l-2.165-6.633-2.166 6.633h-7.044l5.701 4.111-2.165 6.633 5.701-4.11 3.508-2.523 5.674-4.11zm19.296 6.66l4.002-1.014 1.672 5.153-5.674-4.139zm9.209-6.66h-7.044L195.07 4.44l-2.165 6.633h-7.044l5.701 4.111-2.166 6.633 5.701-4.11 3.509-2.523 5.673-4.11zm19.296 6.66l4.002-1.014 1.672 5.153-5.674-4.139zm9.21-6.66h-7.045l-2.165-6.633-2.165 6.633h-7.044l5.701 4.111-2.165 6.633 5.701-4.11 3.508-2.523 5.674-4.11zm19.295 6.66l4.002-1.014 1.672 5.153-5.674-4.139zm9.21-6.66h-7.044L252.08 4.44l-2.165 6.633h-7.044l5.701 4.111-2.165 6.633 5.701-4.11 3.508-2.523 5.674-4.11zM28.17 9.325h10.843v2.018h-4.269v11.38h-2.34v-11.38h-4.252l.018-2.018zm10.379 3.697h2v1.876h.036c.072-.268.197-.518.375-.768a2.97 2.97 0 01.661-.679c.25-.214.536-.375.858-.5.303-.125.625-.197.947-.197.25 0 .428.018.518.018.089.018.196.036.285.036v2.054c-.142-.036-.303-.053-.464-.071-.16-.018-.304-.036-.465-.036a2.48 2.48 0 00-1.018.214 2.59 2.59 0 00-.84.626 3.388 3.388 0 00-.57 1.036c-.144.41-.215.893-.215 1.429v4.609h-2.144l.036-9.647zm15.505 9.7h-2.108v-1.358h-.035c-.268.5-.661.876-1.18 1.18a3.111 3.111 0 01-1.59.446c-1.267 0-2.196-.304-2.768-.947-.572-.625-.857-1.59-.857-2.858v-6.163h2.143v5.949c0 .857.16 1.465.5 1.804.322.357.786.536 1.376.536.446 0 .822-.072 1.125-.215.304-.142.554-.321.733-.553.196-.232.321-.518.41-.84.09-.321.125-.679.125-1.054v-5.627h2.144v9.7h-.018zm3.644-3.108c.072.625.304 1.054.715 1.322.41.25.91.375 1.482.375.197 0 .43-.018.68-.054.25-.035.5-.089.714-.178.232-.09.41-.215.553-.393a.915.915 0 00.197-.661c-.018-.268-.107-.5-.304-.68-.196-.178-.428-.303-.714-.428a6.198 6.198 0 00-1-.268c-.376-.071-.75-.16-1.144-.25-.393-.09-.786-.196-1.16-.321a3.326 3.326 0 01-1.001-.518 2.229 2.229 0 01-.697-.822c-.178-.34-.268-.732-.268-1.233 0-.536.125-.964.393-1.322.25-.357.59-.643.983-.857.393-.214.84-.375 1.322-.464.482-.09.946-.126 1.375-.126.5 0 .982.054 1.429.161.447.107.875.268 1.233.518.375.233.678.554.91.93.25.374.394.839.465 1.375h-2.233c-.107-.518-.34-.858-.697-1.036a2.877 2.877 0 00-1.268-.268c-.143 0-.34.018-.536.035a3.153 3.153 0 00-.59.143 1.411 1.411 0 00-.464.304.714.714 0 00-.196.518c0 .268.09.464.268.625.178.161.41.286.714.411a6.2 6.2 0 001 .268c.376.072.769.16 1.162.25.393.09.768.197 1.143.322s.715.285 1 .518c.286.214.536.482.715.803.179.322.268.733.268 1.197 0 .572-.125 1.054-.393 1.465a3.342 3.342 0 01-1.018.983c-.411.25-.893.428-1.394.553a7.484 7.484 0 01-1.518.179 6.398 6.398 0 01-1.697-.214 4.32 4.32 0 01-1.358-.626 2.998 2.998 0 01-.893-1.053c-.214-.411-.34-.912-.357-1.501h2.161v.018h.018zm7.056-6.592h1.626v-2.93h2.143v2.912h1.93v1.59h-1.93v5.18c0 .233.018.412.036.59.018.16.072.304.125.411a.698.698 0 00.304.25c.143.054.321.09.571.09.143 0 .304 0 .447-.018.143-.018.304-.036.447-.072v1.661a9.197 9.197 0 01-.697.072c-.232.036-.447.036-.697.036-.571 0-1.018-.054-1.357-.161a1.951 1.951 0 01-.804-.465 1.66 1.66 0 01-.393-.768 6.096 6.096 0 01-.125-1.072v-5.716h-1.626v-1.625.035zm7.2 0h2.018v1.322h.035c.304-.571.715-.964 1.25-1.214a4.05 4.05 0 011.751-.376c.769 0 1.43.125 2.001.411a3.754 3.754 0 011.411 1.108 4.62 4.62 0 01.84 1.643c.178.625.286 1.304.286 2 0 .662-.09 1.287-.25 1.894-.18.608-.43 1.162-.769 1.626a3.8 3.8 0 01-1.304 1.125c-.535.286-1.143.429-1.857.429a5.45 5.45 0 01-.93-.09 3.956 3.956 0 01-.892-.267 3.208 3.208 0 01-.786-.483 2.724 2.724 0 01-.608-.678h-.035v4.84H71.97v-13.29h-.018zm7.484 4.86c0-.43-.054-.858-.179-1.27a3.234 3.234 0 00-.518-1.089 2.857 2.857 0 00-.84-.768c-.339-.196-.732-.286-1.16-.286-.894 0-1.573.304-2.037.93-.447.624-.679 1.464-.679 2.5 0 .5.054.947.179 1.358.125.41.286.768.536 1.071.232.304.518.536.857.715.34.179.715.268 1.161.268.5 0 .894-.107 1.233-.304a2.88 2.88 0 00.84-.768c.214-.322.375-.679.464-1.09.09-.428.143-.84.143-1.268zm3.769-8.557h2.144v2.018h-2.144V9.325zm0 3.697h2.144v9.7h-2.144v-9.7zm4.055-3.697h2.144v13.397h-2.144V9.325zm8.681 13.665c-.768 0-1.464-.125-2.072-.393a4.701 4.701 0 01-1.536-1.054c-.41-.447-.732-1-.947-1.625a6.349 6.349 0 01-.34-2.055c0-.732.108-1.41.34-2.036a4.75 4.75 0 01.947-1.626c.41-.446.929-.803 1.536-1.054a5.422 5.422 0 012.072-.393c.769 0 1.465.125 2.073.393.607.25 1.107.608 1.536 1.054.41.447.732 1 .947 1.626a6.25 6.25 0 01.339 2.036c0 .75-.107 1.43-.339 2.055-.233.625-.536 1.16-.947 1.625a4.29 4.29 0 01-1.536 1.054 5.356 5.356 0 01-2.073.393zm0-1.697c.465 0 .894-.107 1.233-.304.357-.196.625-.464.857-.786.233-.321.393-.696.5-1.09a4.899 4.899 0 000-2.482 3.205 3.205 0 00-.5-1.09 2.714 2.714 0 00-.857-.768 2.52 2.52 0 00-1.233-.304c-.464 0-.893.107-1.232.304a2.737 2.737 0 00-.858.768 3.203 3.203 0 00-.5 1.09 4.865 4.865 0 000 2.483c.107.41.268.768.5 1.09.233.32.519.589.858.785.357.215.768.304 1.232.304zm5.538-8.27h1.626v-2.93h2.143v2.912h1.929v1.59h-1.929v5.18c0 .232.018.41.036.59.018.16.071.303.125.41a.696.696 0 00.304.25c.143.054.321.09.571.09.143 0 .304 0 .447-.018.143-.018.303-.036.446-.072v1.661a9.118 9.118 0 01-.696.072c-.232.036-.447.036-.697.036-.572 0-1.018-.054-1.358-.161a1.947 1.947 0 01-.803-.465 1.652 1.652 0 01-.393-.768 5.966 5.966 0 01-.125-1.072v-5.716h-1.626v-1.625.035z" fill="#fff"/><path d="M25.67 9.325h-9.807L12.843 0 9.808 9.325 0 9.307l7.931 5.77L4.895 24.4l7.93-5.77 7.932 5.77-3.019-9.324 7.931-5.752z" fill="#00B67A"/><path d="M18.417 17.184l-.679-2.107-4.894 3.554 5.573-1.447z" fill="#005128"/></svg>