<svg width="65" height="53" fill="none" xmlns="http://www.w3.org/2000/svg"><g clip-path="url(#clip0_2196_2236)"><path fill-rule="evenodd" clip-rule="evenodd" d="M-200 26c0-14.36 11.641-26 26-26H0a25.918 25.918 0 0118.37 7.6c3.923 3.918 8.738 7.4 14.282 7.4 5.482 0 10.259-3.4 14.142-7.27A26.417 26.417 0 0165.5 0C80.136 0 92 11.864 92 26.5S80.136 53 65.5 53a26.394 26.394 0 01-17.13-6.28C43.68 42.742 38.29 39 32.142 39c-5.955 0-11.211 3.528-15.85 7.262A25.891 25.891 0 010 52h-174c-14.359 0-26-11.64-26-26z" fill="#FFF200"/></g><defs><clipPath id="clip0_2196_2236"><path fill="#fff" d="M0 0h65v53H0z"/></clipPath></defs></svg>