<svg width="14" height="17" fill="none" xmlns="http://www.w3.org/2000/svg"><path d="M7 0C5.144.002 3.365.706 2.053 1.958.74 3.21.003 4.908 0 6.678a6.415 6.415 0 001.41 4.008s.191.24.222.274L7 17l5.37-6.043c.028-.032.22-.271.22-.271v-.002A6.412 6.412 0 0014 6.679c-.002-1.771-.74-3.469-2.053-4.72C10.635.705 8.856.001 7 0zm0 9.107c-.503 0-.996-.142-1.414-.41a2.457 2.457 0 01-.938-1.089 2.325 2.325 0 01-.145-1.403c.099-.471.341-.904.697-1.244.356-.34.81-.57 1.303-.664a2.66 2.66 0 011.471.138c.465.184.863.495 1.142.894.28.4.43.87.43 1.35a2.38 2.38 0 01-.747 1.716A2.612 2.612 0 017 9.107z" fill="#969697"/></svg>