<svg width="15" height="11" fill="none" xmlns="http://www.w3.org/2000/svg"><path d="M5.504 5.5c0 .501.203.982.565 1.336a1.95 1.95 0 002.725 0c.36-.354.564-.835.564-1.336 0-.501-.203-.982-.564-1.336A1.946 1.946 0 007.43 3.61c-.51 0-1 .2-1.362.554A1.871 1.871 0 005.504 5.5zm9.397-.435C13.27 1.695 10.805 0 7.5 0 4.194 0 1.73 1.696.1 5.066a1.001 1.001 0 000 .87C1.73 9.303 4.194 11 7.5 11s5.77-1.696 7.4-5.066a1 1 0 000-.87zM7.43 8.469C5.76 8.47 4.403 7.14 4.403 5.5s1.356-2.97 3.028-2.97S10.46 3.86 10.46 5.5c0 1.64-1.356 2.97-3.028 2.97z" fill="#fff"/></svg>