<svg width="52" height="48" fill="none" xmlns="http://www.w3.org/2000/svg"><path d="M51.678 20.266l-7.23-5.497V.812A.812.812 0 0043.636 0h-8.092a.812.812 0 00-.813.812v6.592l-8.239-6.258a.815.815 0 00-.984 0L.322 20.266a.811.811 0 10.982 1.294l4.265-3.234v28.862c0 .449.363.812.812.812h39.237c.45 0 .813-.363.813-.812V18.325l4.265 3.235a.811.811 0 10.982-1.294zm-6.872 26.11H7.194V17.102L26 2.812l9.052 6.875a.81.81 0 00.853.081.81.81 0 00.451-.727V1.624h6.467v13.543c0 .252.117.489.316.643l1.666 1.288v29.278z" fill="#222"/><path d="M34.1 25.619c-1.727 3.116-5.056 4.46-8.06 3.368-.054-.03-.096-.043-.155-.068a6.52 6.52 0 01-1.124-.57 7.384 7.384 0 01-1.15-.914c-2.536-2.442-3.282-6.687-1.636-10.129.586-1.245 1.417-2.239 2.386-2.944a9.1 9.1 0 00-.255.49c-1.646 3.442-.9 7.687 1.635 10.129a7.44 7.44 0 001.15.914 6.54 6.54 0 001.125.57c.058.025.101.037.154.068 2.025.736 4.198.368 5.93-.914z" fill="#DAE8F0"/><path d="M32.28 14.089c-4.193-2.282-9.384-.732-11.616 3.372a8.542 8.542 0 001.547 10.254l-5.044 7.642c-.06.08-.12.18-.15.237a2.989 2.989 0 001.193 4.069 2.995 2.995 0 004.167-1.384l3.778-8.385a8.569 8.569 0 009.5-4.195c2.266-4.123.753-9.331-3.376-11.61zM21.173 37.737a1.672 1.672 0 01-2.329.77 1.671 1.671 0 01-.673-2.274l.071-.113 4.988-7.556a7.983 7.983 0 001.582.88c.027.011.052.027.08.038l-3.719 8.255zm13.324-12.673c-1.942 3.535-6.394 4.77-9.819 2.854-3.662-2.061-4.71-6.462-2.857-9.824 1.897-3.488 6.294-4.77 9.822-2.85 3.49 1.927 4.771 6.332 2.854 9.82z" fill="#4580F0"/><path fill="#D617AA" d="M7 44h38v3H7z"/></svg>