<svg width="56" height="42" fill="none" xmlns="http://www.w3.org/2000/svg"><path d="M55 34v4.428C55 39.842 53.868 41 52.474 41H3.534C2.132 41 1 39.842 1 38.428V34h19.492l.784 2.545h13.457L35.516 34H55z" fill="#DAE8F0"/><path d="M17 16h4v4h-4v-4zm5 0h4v4h-4v-4zm-5 5h4v4h-4v-4zm5 0h4v4h-4v-4z" fill="#D617AA"/><path d="M33.549 14.59L21.925 8.11a.877.877 0 00-.854 0L9.45 14.59a.882.882 0 00.428 1.65.87.87 0 00.426-.11l1.685-.94v13.93c0 .486.393.88.878.88h17.264a.879.879 0 00.878-.88V15.19l1.685.94a.876.876 0 001.194-.342.882.882 0 00-.34-1.198zm-4.295 13.65H13.746V14.21l7.752-4.323 7.756 4.324v14.027z" fill="#222"/><path d="M55.125 33.388h-1.313V3.396C53.812 1.523 52.276 0 50.389 0H5.604C3.716 0 2.18 1.523 2.18 3.396v29.992H.875a.871.871 0 00-.875.869v4.349C0 40.477 1.535 42 3.421 42h49.167C54.47 42 56 40.477 56 38.605v-4.348a.871.871 0 00-.875-.869zM3.931 3.396c0-.915.75-1.66 1.673-1.66h44.785c.922 0 1.673.745 1.673 1.66v29.992h-1.75V4.341a.871.871 0 00-.875-.869H6.556a.871.871 0 00-.875.869v29.047H3.93V3.396zm31.62 29.992a.873.873 0 00-.835.61l-.595 1.89H21.889l-.597-1.89a.873.873 0 00-.835-.61H7.431V5.208h41.13v28.18h-13.01zm18.699 5.218c0 .914-.746 1.658-1.662 1.658H3.421a1.666 1.666 0 01-1.671-1.659v-3.48h18.064l.596 1.891a.873.873 0 00.835.609h13.52a.873.873 0 00.834-.61l.596-1.89H54.25v3.48z" fill="#222"/><path d="M5.45 36.45a1.465 1.465 0 000 2.113c.621.62 1.571.543 2.115 0a1.5 1.5 0 000-2.113 1.467 1.467 0 00-2.115 0zm6.11-.002c-.67-.7-1.731-.485-2.122 0-.543.487-.624 1.492 0 2.116.6.599 1.56.563 2.122 0 .543-.54.629-1.49 0-2.116z" fill="#4580F0"/><path d="M46.133 27H34.867c-.48 0-.867.447-.867 1 0 .553.388 1 .867 1h11.266c.48 0 .867-.447.867-1 0-.553-.388-1-.867-1zm-9.303-4c-.458 0-.83.447-.83 1 0 .553.372 1 .83 1h7.34c.458 0 .83-.447.83-1 0-.553-.372-1-.83-1h-7.34zm-1.963-2h11.266c.48 0 .867-.447.867-1 0-.553-.388-1-.867-1H34.867c-.48 0-.867.447-.867 1 0 .553.388 1 .867 1z" fill="#222"/></svg>