<svg width="52" height="52" fill="none" xmlns="http://www.w3.org/2000/svg"><path d="M33.601 31L35 32.333 34.595 35h-3.178L31 32.333 32.399 31" fill="#D617AA"/><path d="M15 45h15v3H15v-3zm21 0h15v3H36v-3zm4-40.413v7.888h-3.294a14.097 14.097 0 01-8.144-2.57L25 13V6.376c0-1.978 1.63-3.578 3.654-3.578h5.92c1.287-.025 1.84-.649 1.78-1.798C38.37 1 40 2.6 40 4.587z" fill="#DAE8F0"/><path d="M36 47.063l-.37.61L33 52l-2.63-4.326-.37-.611L31.353 35h3.307L36 47.063z" fill="#D617AA"/><path d="M15 17.974V23H9v-5.026C9 16.33 10.343 15 12 15s3 1.331 3 2.974z" fill="#DAE8F0"/><path d="M51.85 39.868c0-4.01-2.242-7.623-5.852-9.428l-6.737-3.345v-5.112a8.161 8.161 0 001.978-5.343V4.47c0-2.354-1.931-4.47-4.472-4.47a.84.84 0 00-.836.88c.04.74-.236.927-.939.94h-5.91c-2.4 0-4.479 2-4.479 4.465v6.719c0 .01.004.018.004.027v3.61c0 1.99.714 3.887 1.978 5.353v5.15l-6.708 3.304C16.252 32.242 14 35.855 14 39.876v8.291c0 .46.373.833.834.833H28.49a.833.833 0 100-1.665h-6.06v-5.02a.833.833 0 00-1.669 0v5.02h-5.092v-7.459c0-3.384 1.897-6.425 4.947-7.936l2.982-1.467 3.115 6.16a.832.832 0 001.314.235l4.891-4.567 4.892 4.567a.836.836 0 001.313-.233l3.144-6.188 2.986 1.482c3.04 1.52 4.929 4.563 4.929 7.954l.135 7.452h-5.23v-5.02a.833.833 0 00-1.668 0v5.02h-6.076a.833.833 0 100 1.665h13.824a.836.836 0 00.834-.847l-.15-8.285zm-18.932-9.82l-1.59-1.41h3.186l-1.596 1.41zm0-5.103a8.415 8.415 0 004.675-1.437v3.465h-9.34v-3.456a8.464 8.464 0 004.664 1.428zM39.57 4.47v7.167h-2.453a13.1 13.1 0 01-7.639-2.449.83.83 0 00-1.04.052l-2.162 1.91V6.287c0-1.542 1.291-2.798 2.807-2.798h5.923c1.234-.024 2.213-.555 2.508-1.718a2.825 2.825 0 012.056 2.7zm-13.294 8.904l2.782-2.456a14.763 14.763 0 008.059 2.384h2.454v3.337c0 3.62-2.954 6.64-6.654 6.64-3.736 0-6.641-3.045-6.641-6.64v-3.265zM27.7 34.893l-2.605-5.152 2.23-1.102h1.488l2.866 2.539-3.98 3.715zm10.436.002l-3.98-3.716 2.876-2.54h1.594l2.147 1.066-2.637 5.19z" fill="#222"/><path d="M19.209 23a.83.83 0 00.84-.82V9.506h2.111a.838.838 0 00.796-.56.81.81 0 00-.29-.915L12.006.166a.855.855 0 00-1.012 0L.334 8.03a.81.81 0 00-.29.915c.114.334.435.56.796.56h2.112V22.18c0 .453.375.82.84.82h15.416zM3.79 7.865h-.446L11.5 1.848l8.155 6.017h-.447a.83.83 0 00-.84.82V21.36h-3.157v-3.92c0-2-1.665-3.626-3.711-3.626s-3.71 1.627-3.71 3.626v3.92H4.63V8.686a.83.83 0 00-.84-.82zM9.47 21.36v-3.92c0-1.095.91-1.985 2.03-1.985 1.12 0 2.032.89 2.032 1.985v3.92H9.47z" fill="#222"/><path d="M13 9a2 2 0 11-4 0 2 2 0 014 0z" fill="#D617AA"/></svg>