<svg width="718" height="725" fill="none" xmlns="http://www.w3.org/2000/svg"><g filter="url(#filter0_f_214_61)"><rect x="210.879" y="477.762" width="386" height="126" rx="27" fill="#C9D1D9"/></g><path d="M349.879 535.016c7.869-8.719 25.259-21.162 31.869-1.189 8.262 24.967 20.065 8.322 20.065-27.345s18.886-71.334 22.427-32.1c0 4.755 2.36 14.267 11.803 14.267 11.803 0 4.721 41.611 25.967 30.911 9.443-5.944-3.541-52.312 16.525-61.823 9.442-4.755 9.442-23.778 9.442-42.8 0-19.023 17.705-22.59 21.246-3.567 1.18 13.078-2.36 29.722 11.803 33.289 11.804 2.378 7.082 29.723 10.623 59.445 3.541 17.834 17.705 16.645 23.607-8.322 1.888-8.56 7.869-8.322 10.623-7.133" stroke="#0F8CE9" stroke-width="3" stroke-linecap="round"/><rect x="28" y="106" width="512" height="478" rx="14" transform="rotate(-11.931 28 106)" fill="#E4EEFA"/><path d="M632.879 305.762c0 65.169-52.83 118-118 118s-118-52.831-118-118c0-65.17 52.83-118 118-118s118 52.83 118 118zm-220.867 0c0 56.811 46.055 102.866 102.867 102.866 56.812 0 102.866-46.055 102.866-102.866 0-56.812-46.054-102.867-102.866-102.867S412.012 248.95 412.012 305.762z" fill="#25B98F" fill-opacity=".4"/><path d="M595.879 306.262c0 45.011-36.265 81.5-81 81.5s-81-36.489-81-81.5 36.265-81.5 81-81.5 81 36.489 81 81.5zm-148.013 0c0 37.239 30.003 67.427 67.013 67.427 37.01 0 67.013-30.188 67.013-67.427 0-37.239-30.003-67.427-67.013-67.427-37.01 0-67.013 30.188-67.013 67.427z" fill="#25B98F" fill-opacity=".4"/><g filter="url(#filter1_d_214_61)"><rect x="90.879" y="70.762" width="414" height="257" rx="14" fill="#F8F9FE"/></g><path d="M124.668 276.23l2.461 6.54 2.455-6.54h1.916v8.532h-1.477v-2.813l.147-3.761-2.52 6.574h-1.06l-2.514-6.569.147 3.756v2.813h-1.477v-8.532h1.922zm8.186 5.303c0-.621.123-1.179.369-1.676a2.67 2.67 0 011.037-1.148c.445-.27.957-.404 1.535-.404.855 0 1.549.275 2.08.826.535.551.824 1.281.867 2.191l.006.334c0 .625-.121 1.184-.363 1.676a2.65 2.65 0 01-1.031 1.143c-.446.269-.961.404-1.547.404-.895 0-1.612-.297-2.151-.891-.535-.597-.802-1.392-.802-2.384v-.071zm1.423.123c0 .653.135 1.164.405 1.535.269.368.644.551 1.125.551.48 0 .853-.187 1.119-.562.269-.375.404-.924.404-1.647 0-.64-.139-1.148-.416-1.523a1.31 1.31 0 00-1.119-.563c-.465 0-.834.186-1.107.557-.274.367-.411.918-.411 1.652zm6.996-3.234l.041.732c.469-.566 1.084-.849 1.846-.849 1.32 0 1.992.756 2.016 2.267v4.19h-1.424v-4.108c0-.402-.088-.699-.264-.89-.172-.196-.455-.293-.849-.293-.575 0-1.002.259-1.284.779v4.512h-1.423v-6.34h1.341zm45.637-.996h-2.66v7.336h-1.471v-7.336h-2.636v-1.196h6.767v1.196zm4.442 6.715c-.418.492-1.012.738-1.782.738-.687 0-1.209-.201-1.564-.604-.352-.402-.527-.984-.527-1.746v-4.107h1.423v4.09c0 .804.334 1.207 1.002 1.207.692 0 1.158-.248 1.401-.744v-4.553h1.424v6.34h-1.342l-.035-.621zm5.619.738c-.903 0-1.635-.283-2.198-.85-.558-.57-.837-1.328-.837-2.273v-.176c0-.633.121-1.197.363-1.693.246-.5.59-.889 1.031-1.166a2.713 2.713 0 011.477-.416c.863 0 1.529.275 1.998.826.472.551.709 1.33.709 2.338v.574h-4.143c.043.523.217.937.522 1.242.308.305.695.457 1.16.457.652 0 1.183-.263 1.593-.791l.768.733a2.591 2.591 0 01-1.019.884 3.192 3.192 0 01-1.424.311zm-.17-5.432c-.391 0-.707.137-.949.41-.239.274-.391.655-.457 1.143h2.712v-.105c-.031-.477-.158-.836-.38-1.079-.223-.246-.532-.369-.926-.369zm104.109-2.021h-2.66v7.336h-1.471v-7.336h-2.636v-1.196h6.767v1.196zm2.391 1.687a2.228 2.228 0 011.763-.808c1.352 0 2.038.771 2.057 2.314v4.143h-1.424v-4.09c0-.438-.095-.746-.287-.926-.187-.184-.465-.275-.832-.275-.57 0-.996.254-1.277.761v4.53h-1.424v-9h1.424v3.351zm9.105 5.028c-.418.492-1.011.738-1.781.738-.687 0-1.209-.201-1.564-.604-.352-.402-.528-.984-.528-1.746v-4.107h1.424v4.09c0 .804.334 1.207 1.002 1.207.691 0 1.158-.248 1.4-.744v-4.553h1.424v6.34h-1.342l-.035-.621zm42.256-2.995h-3.433v3.616h-1.483v-8.532h5.42v1.196h-3.937v2.537h3.433v1.183zm4.711-1.423a3.44 3.44 0 00-.58-.047c-.652 0-1.092.25-1.318.75v4.336h-1.424v-6.34h1.359l.035.709c.344-.551.821-.826 1.43-.826.203 0 .371.027.504.082l-.006 1.336zm2.414 5.039h-1.424v-6.34h1.424v6.34zm-1.512-7.987c0-.218.069-.4.205-.545.141-.144.34-.216.598-.216.258 0 .457.072.598.216.14.145.211.327.211.545a.744.744 0 01-.211.539c-.141.141-.34.211-.598.211-.258 0-.457-.07-.598-.211a.756.756 0 01-.205-.539zm41.93 5.789c0-.375-.133-.664-.398-.867-.262-.203-.737-.408-1.424-.615-.688-.207-1.235-.437-1.641-.691-.777-.489-1.166-1.125-1.166-1.911 0-.687.279-1.253.838-1.699.563-.445 1.291-.668 2.186-.668.593 0 1.123.11 1.588.328.464.219.83.532 1.095.938.266.402.399.85.399 1.342h-1.477c0-.446-.141-.793-.422-1.043-.277-.254-.676-.381-1.195-.381-.484 0-.861.103-1.131.31-.266.207-.398.497-.398.868 0 .312.144.574.433.785.289.207.766.41 1.43.609.664.195 1.197.42 1.599.674.403.25.698.539.885.867.188.324.282.705.282 1.143 0 .711-.274 1.277-.821 1.699-.543.418-1.281.627-2.215.627a4.214 4.214 0 01-1.705-.34c-.515-.23-.918-.547-1.207-.949a2.37 2.37 0 01-.428-1.406h1.483c0 .484.16.859.48 1.125.321.265.78.398 1.377.398.516 0 .903-.103 1.16-.311.262-.21.393-.488.393-.832zm6.434 2.198c-.063-.121-.118-.319-.164-.592a2.217 2.217 0 01-1.664.709c-.637 0-1.157-.182-1.559-.545a1.746 1.746 0 01-.604-1.348c0-.675.25-1.193.75-1.552.504-.364 1.223-.545 2.157-.545h.873v-.416c0-.328-.092-.59-.276-.785-.183-.2-.463-.299-.838-.299-.324 0-.589.082-.796.246a.745.745 0 00-.311.615h-1.424c0-.348.115-.672.346-.973.23-.304.543-.543.937-.715a3.342 3.342 0 011.33-.257c.743 0 1.334.187 1.776.562.441.371.668.895.68 1.571v2.859c0 .57.08 1.025.24 1.365v.1h-1.453zm-1.565-1.026a1.6 1.6 0 00.791-.205c.25-.136.438-.32.563-.551v-1.195h-.768c-.527 0-.924.092-1.189.276a.89.89 0 00-.399.779c0 .273.09.492.27.656.183.16.428.24.732.24zm6.053-6.855v1.541h1.119v1.055h-1.119v3.539c0 .242.047.418.141.527.097.105.269.158.515.158.164 0 .33-.019.498-.058v1.101c-.324.09-.636.135-.937.135-1.094 0-1.641-.604-1.641-1.811v-3.591h-1.043v-1.055h1.043v-1.541h1.424zm41.199 5.683c0-.375-.133-.664-.398-.867-.262-.203-.737-.408-1.424-.615-.688-.207-1.234-.437-1.641-.691-.777-.489-1.166-1.125-1.166-1.911 0-.687.28-1.253.838-1.699.563-.445 1.291-.668 2.186-.668.593 0 1.123.11 1.588.328.464.219.83.532 1.095.938.266.402.399.85.399 1.342h-1.477c0-.446-.14-.793-.422-1.043-.277-.254-.675-.381-1.195-.381-.484 0-.861.103-1.131.31-.266.207-.398.497-.398.868 0 .312.144.574.433.785.289.207.766.41 1.43.609.664.195 1.197.42 1.6.674.402.25.697.539.884.867.188.324.282.705.282 1.143 0 .711-.274 1.277-.821 1.699-.543.418-1.281.627-2.215.627a4.214 4.214 0 01-1.705-.34c-.515-.23-.918-.547-1.207-.949-.285-.402-.427-.871-.427-1.406h1.482c0 .484.16.859.48 1.125.321.265.78.398 1.377.398.516 0 .903-.103 1.161-.311.261-.21.392-.488.392-.832zm6.486 1.577c-.417.492-1.011.738-1.781.738-.687 0-1.209-.201-1.564-.604-.352-.402-.528-.984-.528-1.746v-4.107h1.424v4.09c0 .804.334 1.207 1.002 1.207.692 0 1.158-.248 1.401-.744v-4.553h1.423v6.34h-1.341l-.036-.621zm4.149-5.719l.041.732c.469-.566 1.084-.849 1.846-.849 1.32 0 1.992.756 2.015 2.267v4.19h-1.424v-4.108c0-.402-.087-.699-.263-.89-.172-.196-.455-.293-.85-.293-.574 0-1.002.259-1.283.779v4.512h-1.424v-6.34h1.342z" fill="#636975"/><mask id="mask0_214_61" style="mask-type:alpha" maskUnits="userSpaceOnUse" x="90" y="70" width="415" height="258"><path fill="#F8F9FE" d="M90.879 70.762h414v257h-414z"/></mask><g filter="url(#filter2_d_214_61)" mask="url(#mask0_214_61)"><path d="M87.879 239.762c5.667 1.5 19.5-2.7 29.5-31.5 12.5-36 23-37.5 41-10.5s40.5 7 52-10.5 28-22 47 2.5 42.5 5.5 54-12 28.5-35.5 48.5-4 23 57 45 30.5c17.5-20 23-52.5 39-33.5s16 46.5 61.5 37" stroke="#F8C63D" stroke-width="4"/></g><rect x="221.879" y="100.762" width="51" height="208" rx="6" fill="#0F8CE9"/><path d="M242.438 284.652l1.312-6.422h1.471l-1.969 8.532h-1.418l-1.623-6.229-1.658 6.229h-1.424l-1.969-8.532h1.471l1.324 6.411 1.629-6.411h1.242l1.612 6.422zm6.333 2.227c-.902 0-1.634-.283-2.197-.85-.558-.57-.838-1.328-.838-2.273v-.176c0-.633.121-1.197.364-1.693.246-.5.589-.889 1.031-1.166a2.71 2.71 0 011.476-.416c.864 0 1.53.275 1.998.826.473.551.709 1.33.709 2.338v.574h-4.142c.043.523.217.937.521 1.242.309.305.696.457 1.161.457.652 0 1.183-.263 1.593-.791l.768.733a2.587 2.587 0 01-1.02.884 3.189 3.189 0 01-1.424.311zm-.169-5.432c-.391 0-.707.137-.95.41-.238.274-.39.655-.457 1.143h2.713v-.105c-.031-.477-.158-.836-.381-1.079-.222-.246-.531-.369-.925-.369zm3.556 2.098c0-.977.227-1.76.68-2.35.453-.593 1.06-.89 1.822-.89.672 0 1.215.234 1.629.703v-3.246h1.424v9h-1.289l-.07-.657c-.426.516-.995.774-1.706.774-.742 0-1.343-.299-1.804-.897-.457-.597-.686-1.41-.686-2.437zm1.424.123c0 .644.123 1.148.369 1.512.25.359.604.539 1.061.539.582 0 1.008-.26 1.277-.78v-2.707c-.262-.507-.684-.761-1.266-.761-.461 0-.816.183-1.066.55-.25.364-.375.913-.375 1.647zm-14.904-161.133c0-.332-.106-.605-.317-.82-.211-.219-.562-.414-1.054-.586a8.585 8.585 0 01-1.149-.486c-.91-.489-1.365-1.211-1.365-2.168 0-.649.197-1.182.592-1.6.394-.418.929-.666 1.605-.744v-1.277h.938v1.289c.679.097 1.205.386 1.576.867.371.476.557 1.097.557 1.863h-1.418c0-.492-.112-.879-.334-1.16-.219-.285-.518-.428-.897-.428-.375 0-.668.102-.879.305-.211.203-.316.494-.316.873 0 .34.103.613.31.82.211.203.567.397 1.067.58.5.184.892.354 1.177.51.286.156.526.336.721.539.196.199.346.43.451.692.106.261.159.568.159.919 0 .661-.204 1.196-.61 1.606-.402.41-.965.652-1.687.726v1.143h-.932v-1.137c-.773-.086-1.369-.363-1.787-.832-.414-.468-.621-1.09-.621-1.863h1.424c0 .492.123.873.369 1.143.25.269.601.404 1.054.404.446 0 .784-.108 1.014-.322.235-.215.352-.5.352-.856zm3.041-2.004l.463-4.301h4.582v1.231h-3.399l-.234 2.039c.394-.227.84-.34 1.336-.34.812 0 1.443.26 1.892.779.453.52.68 1.219.68 2.098 0 .867-.25 1.559-.75 2.074-.5.512-1.185.768-2.057.768-.781 0-1.429-.221-1.945-.662-.512-.446-.789-1.031-.832-1.758h1.377c.055.414.203.732.445.955.243.219.559.328.95.328.437 0 .777-.156 1.019-.469.246-.312.369-.738.369-1.277 0-.519-.135-.93-.404-1.23-.27-.305-.641-.457-1.113-.457-.258 0-.477.035-.657.105-.179.066-.375.199-.586.398l-1.136-.281zm10.476.662c-.476.504-1.033.756-1.67.756-.75 0-1.347-.261-1.793-.785-.445-.527-.668-1.219-.668-2.074a3.4 3.4 0 01.34-1.529 2.54 2.54 0 01.967-1.067c.418-.254.902-.381 1.453-.381.86 0 1.541.321 2.045.961.504.641.756 1.498.756 2.572v.399c0 1.539-.348 2.713-1.043 3.521-.695.809-1.732 1.219-3.111 1.231h-.17v-1.178h.205c.84-.012 1.484-.213 1.933-.603.45-.395.702-1.002.756-1.823zm-1.371-.357c.285 0 .553-.082.803-.246.25-.164.443-.391.58-.68v-.556c0-.629-.129-1.135-.387-1.518s-.591-.574-1.002-.574c-.41 0-.738.17-.984.509-.242.336-.363.762-.363 1.278 0 .535.123.967.369 1.295.246.328.574.492.984.492zm9.715.334c0 1.226-.23 2.152-.691 2.777-.457.621-1.155.932-2.092.932-.922 0-1.617-.303-2.086-.908-.465-.61-.703-1.51-.715-2.701v-1.477c0-1.227.229-2.147.686-2.76.461-.613 1.162-.92 2.103-.92.934 0 1.629.299 2.086.897.461.597.697 1.492.709 2.683v1.477zm-1.424-1.594c0-.801-.109-1.387-.328-1.758-.219-.375-.566-.562-1.043-.562-.465 0-.806.178-1.025.533-.219.352-.334.902-.346 1.652v1.934c0 .797.111 1.391.334 1.781.223.391.572.586 1.049.586.457 0 .795-.18 1.014-.539.218-.363.334-.93.345-1.699v-1.928z" fill="#fff"/><path d="M330.408 120.762v-11.92h4.096c.779 0 1.461.154 2.048.464a3.21 3.21 0 011.36 1.28c.331.544.496 1.178.496 1.904 0 .725-.165 1.36-.496 1.904-.32.544-.773.97-1.36 1.28-.576.298-1.259.448-2.048.448h-2.816v4.64h-1.28zm1.28-5.84h2.88c.512 0 .96-.096 1.344-.288a2.22 2.22 0 00.896-.848c.213-.374.32-.811.32-1.312 0-.502-.107-.934-.32-1.296a2.107 2.107 0 00-.896-.832c-.384-.203-.832-.304-1.344-.304h-2.88v4.88zm8.825 5.84v-8.576h1.2v1.408l-.16-.208c.203-.406.507-.726.912-.96.416-.235.918-.352 1.504-.352h.544v1.2h-.752c-.618 0-1.114.192-1.488.576-.373.384-.56.928-.56 1.632v5.28h-1.2zm9.423.192a4.315 4.315 0 01-2.208-.576 4.457 4.457 0 01-1.584-1.6c-.384-.683-.576-1.456-.576-2.32 0-.854.192-1.616.576-2.288.384-.672.901-1.2 1.552-1.584.661-.395 1.408-.592 2.24-.592.832 0 1.573.192 2.224.576a4.108 4.108 0 011.552 1.584c.384.672.576 1.44.576 2.304 0 .874-.198 1.653-.592 2.336a4.343 4.343 0 01-1.584 1.584 4.202 4.202 0 01-2.176.576zm0-1.2c.576 0 1.093-.144 1.552-.432a3.036 3.036 0 001.104-1.184 3.419 3.419 0 00.416-1.68c0-.619-.139-1.174-.416-1.664a3.062 3.062 0 00-1.104-1.168 2.858 2.858 0 00-1.552-.432c-.576 0-1.099.144-1.568.432a3.22 3.22 0 00-1.104 1.168c-.278.49-.416 1.045-.416 1.664 0 .618.138 1.178.416 1.68a3.19 3.19 0 001.104 1.184c.469.288.992.432 1.568.432zm6.468 4.208v-11.776h1.2v1.92l-.192-.336a3.774 3.774 0 011.36-1.296c.576-.32 1.232-.48 1.968-.48.811 0 1.531.197 2.16.592.64.384 1.141.912 1.504 1.584.373.672.56 1.44.56 2.304 0 .853-.187 1.621-.56 2.304a4.178 4.178 0 01-1.504 1.6c-.629.384-1.349.576-2.16.576a4.066 4.066 0 01-2-.496 3.282 3.282 0 01-1.328-1.44l.192-.176v5.12h-1.2zm4.272-4.208c.576 0 1.088-.144 1.536-.432a2.981 2.981 0 001.072-1.168 3.52 3.52 0 00.4-1.68c0-.63-.133-1.19-.4-1.68a2.975 2.975 0 00-1.072-1.168 2.778 2.778 0 00-1.536-.432c-.576 0-1.099.144-1.568.432a3.182 3.182 0 00-1.104 1.184c-.267.49-.4 1.045-.4 1.664 0 .618.133 1.178.4 1.68.277.49.645.88 1.104 1.168.469.288.992.432 1.568.432zm10.304 1.2a4.2 4.2 0 01-2.176-.576 4.268 4.268 0 01-1.52-1.616c-.374-.683-.56-1.456-.56-2.32 0-.864.181-1.627.544-2.288.362-.672.853-1.2 1.472-1.584a3.973 3.973 0 012.112-.576c.618 0 1.168.117 1.648.352.49.224.906.533 1.248.928.341.384.602.821.784 1.312a4.184 4.184 0 01.256 1.856 6.276 6.276 0 01-.048.4h-7.248v-1.12h6.56l-.576.48c.096-.587.026-1.11-.208-1.568a2.58 2.58 0 00-.976-1.104 2.581 2.581 0 00-1.44-.416c-.534 0-1.03.138-1.488.416-.448.277-.8.666-1.056 1.168-.256.49-.358 1.077-.304 1.76-.054.682.053 1.28.32 1.792.277.501.65.89 1.12 1.168.48.277.992.416 1.536.416.629 0 1.157-.15 1.584-.448a3.614 3.614 0 001.04-1.12l1.024.544a3.344 3.344 0 01-.784 1.072c-.352.32-.774.581-1.264.784a4.275 4.275 0 01-1.6.288zm5.94-.192v-8.576h1.2v1.408l-.16-.208c.202-.406.506-.726.912-.96.416-.235.917-.352 1.504-.352h.544v1.2h-.752c-.619 0-1.115.192-1.488.576-.374.384-.56.928-.56 1.632v5.28h-1.2zm8.686.096c-.768 0-1.36-.224-1.776-.672-.416-.448-.624-1.088-.624-1.92v-4.88h-1.584v-1.2h.4c.362 0 .65-.118.864-.352.213-.246.32-.55.32-.912v-.72h1.2v1.984h1.888v1.2h-1.888v4.88c0 .288.042.544.128.768.085.213.229.384.432.512.213.128.496.192.848.192.085 0 .186-.006.304-.016.117-.011.218-.022.304-.032v1.072a2.495 2.495 0 01-.432.064c-.16.021-.288.032-.384.032zm3.099 3.424a3.03 3.03 0 01-.528-.048 2.286 2.286 0 01-.512-.128v-1.12c.107.01.24.026.4.048.171.032.341.048.512.048.523 0 .923-.112 1.2-.336.277-.214.549-.63.816-1.248l.544-1.28-.032 1.056-3.632-9.088h1.296l2.976 7.504h-.336l2.96-7.504h1.328l-3.92 9.664c-.171.416-.389.81-.656 1.184a2.91 2.91 0 01-.976.896c-.395.234-.875.352-1.44.352zm15.313-3.328c-.758 0-1.446-.144-2.064-.432a4.74 4.74 0 01-1.568-1.152 4.447 4.447 0 01-.912-1.616l1.152-.432c.277.81.709 1.429 1.296 1.856.586.416 1.285.624 2.096.624.512 0 .96-.08 1.344-.24.394-.171.698-.406.912-.704.213-.299.32-.646.32-1.04 0-.587-.16-1.04-.48-1.36-.32-.32-.779-.566-1.376-.736l-2.144-.64c-.843-.246-1.494-.656-1.952-1.232a3.12 3.12 0 01-.672-1.968c0-.63.154-1.184.464-1.664.309-.491.73-.875 1.264-1.152.544-.278 1.157-.416 1.84-.416.714 0 1.354.133 1.92.4a4.373 4.373 0 011.456 1.024c.394.426.677.901.848 1.424l-1.12.448c-.256-.704-.656-1.238-1.2-1.6-.534-.363-1.163-.544-1.888-.544-.459 0-.864.08-1.216.24-.342.16-.608.389-.8.688-.192.298-.288.65-.288 1.056 0 .49.154.933.464 1.328.309.384.784.672 1.424.864l1.888.56c.938.277 1.648.677 2.128 1.2.48.522.72 1.178.72 1.968 0 .64-.166 1.205-.496 1.696-.32.48-.774.858-1.36 1.136-.576.277-1.243.416-2 .416zm9.432-.096c-.768 0-1.36-.224-1.776-.672-.416-.448-.625-1.088-.625-1.92v-4.88h-1.584v-1.2h.401c.362 0 .65-.118.864-.352.213-.246.319-.55.319-.912v-.72h1.201v1.984h1.888v1.2h-1.888v4.88c0 .288.042.544.128.768.085.213.229.384.432.512.213.128.496.192.848.192.085 0 .186-.006.304-.016.117-.011.218-.022.304-.032v1.072a2.495 2.495 0 01-.432.064c-.16.021-.288.032-.384.032zm5.246.096a3.364 3.364 0 01-1.456-.304 2.602 2.602 0 01-1.008-.864 2.179 2.179 0 01-.368-1.248c0-.448.096-.854.288-1.216.192-.374.491-.688.896-.944.406-.256.923-.438 1.552-.544l3.36-.56v1.088l-3.072.512c-.618.106-1.066.304-1.344.592-.266.288-.4.629-.4 1.024 0 .384.15.709.448.976.31.266.704.4 1.184.4.587 0 1.099-.123 1.536-.368a2.771 2.771 0 001.392-2.448v-2.176c0-.512-.186-.928-.56-1.248-.373-.32-.858-.48-1.456-.48-.522 0-.981.133-1.376.4a2.367 2.367 0 00-.88 1.008l-1.088-.592c.16-.363.411-.694.752-.992a4.066 4.066 0 011.2-.704 3.664 3.664 0 011.392-.272c.63 0 1.184.122 1.664.368.491.245.87.586 1.136 1.024.278.426.416.922.416 1.488v5.888h-1.2v-1.712l.176.176c-.149.32-.384.613-.704.88a3.807 3.807 0 01-1.104.624 4.053 4.053 0 01-1.376.224zm9.8-.096c-.768 0-1.36-.224-1.776-.672-.416-.448-.624-1.088-.624-1.92v-4.88h-1.584v-1.2h.4c.363 0 .651-.118.864-.352.214-.246.32-.55.32-.912v-.72h1.2v1.984h1.888v1.2h-1.888v4.88c0 .288.043.544.128.768.086.213.23.384.432.512.214.128.496.192.848.192.086 0 .187-.006.304-.016.118-.011.219-.022.304-.032v1.072a2.495 2.495 0 01-.432.064c-.16.021-.288.032-.384.032zm2.924-.096v-8.576h1.2v8.576h-1.2zm0-10.16v-1.76h1.2v1.76h-1.2zm6.632 10.352c-.822 0-1.542-.208-2.16-.624a3.53 3.53 0 01-1.344-1.696l1.008-.48c.245.522.586.938 1.024 1.248.448.309.938.464 1.472.464.512 0 .944-.123 1.296-.368.352-.256.528-.587.528-.992 0-.299-.086-.534-.256-.704a1.75 1.75 0 00-.592-.416 3.95 3.95 0 00-.592-.208l-1.232-.352c-.79-.224-1.36-.539-1.712-.944a2.085 2.085 0 01-.528-1.408c0-.502.128-.939.384-1.312a2.497 2.497 0 011.04-.864 3.413 3.413 0 011.456-.304c.725 0 1.381.192 1.968.576a3.02 3.02 0 011.264 1.568l-1.024.48a2.539 2.539 0 00-.928-1.12 2.253 2.253 0 00-1.328-.416c-.48 0-.864.122-1.152.368a1.166 1.166 0 00-.432.928c0 .288.074.517.224.688.149.17.32.298.512.384.202.085.378.149.528.192l1.424.416c.693.202 1.232.517 1.616.944.394.426.592.928.592 1.504 0 .469-.134.89-.4 1.264a2.599 2.599 0 01-1.072.88c-.459.202-.987.304-1.584.304zm8.444-.096c-.768 0-1.36-.224-1.776-.672-.416-.448-.624-1.088-.624-1.92v-4.88h-1.584v-1.2h.4c.363 0 .651-.118.864-.352.214-.246.32-.55.32-.912v-.72h1.2v1.984h1.888v1.2h-1.888v4.88c0 .288.043.544.128.768.086.213.23.384.432.512.214.128.496.192.848.192.086 0 .187-.006.304-.016.118-.011.219-.022.304-.032v1.072a2.495 2.495 0 01-.432.064c-.16.021-.288.032-.384.032zm2.924-.096v-8.576h1.2v8.576h-1.2zm0-10.16v-1.76h1.2v1.76h-1.2zm7.576 10.352c-.843 0-1.584-.198-2.224-.592a4.17 4.17 0 01-1.504-1.6c-.363-.683-.544-1.451-.544-2.304 0-.854.181-1.616.544-2.288.362-.672.864-1.2 1.504-1.584.64-.395 1.381-.592 2.224-.592.533 0 1.034.096 1.504.288.469.192.885.453 1.248.784.362.32.634.693.816 1.12l-1.088.56a2.675 2.675 0 00-.976-1.12 2.675 2.675 0 00-1.504-.432c-.566 0-1.078.144-1.536.432a2.98 2.98 0 00-1.072 1.168c-.256.49-.384 1.05-.384 1.68 0 .618.128 1.178.384 1.68.266.49.624.88 1.072 1.168.458.288.97.432 1.536.432.565 0 1.061-.144 1.488-.432a2.74 2.74 0 00.992-1.152l1.088.592a3.309 3.309 0 01-.816 1.12c-.363.33-.779.592-1.248.784-.47.192-.971.288-1.504.288zm8.65 0c-.822 0-1.542-.208-2.16-.624a3.53 3.53 0 01-1.344-1.696l1.008-.48c.245.522.586.938 1.024 1.248.448.309.938.464 1.472.464.512 0 .944-.123 1.296-.368.352-.256.528-.587.528-.992 0-.299-.086-.534-.256-.704a1.75 1.75 0 00-.592-.416 3.95 3.95 0 00-.592-.208l-1.232-.352c-.79-.224-1.36-.539-1.712-.944a2.085 2.085 0 01-.528-1.408c0-.502.128-.939.384-1.312a2.497 2.497 0 011.04-.864 3.413 3.413 0 011.456-.304c.725 0 1.381.192 1.968.576a3.02 3.02 0 011.264 1.568l-1.024.48a2.539 2.539 0 00-.928-1.12 2.253 2.253 0 00-1.328-.416c-.48 0-.864.122-1.152.368a1.166 1.166 0 00-.432.928c0 .288.074.517.224.688.149.17.32.298.512.384.202.085.378.149.528.192l1.424.416c.693.202 1.232.517 1.616.944.394.426.592.928.592 1.504 0 .469-.134.89-.4 1.264a2.599 2.599 0 01-1.072.88c-.459.202-.987.304-1.584.304z" fill="#000"/><circle cx="247.379" cy="149.262" r="11.5" fill="#58B5FA"/><circle cx="247.379" cy="149.262" r="6.5" fill="#fff"/><rect x="195.879" y="375.762" width="403" height="206" rx="14" fill="#F8F9FE"/><path d="M381.423 534.343c-7.319-20.095-23.675-7.404-31.544 1.474v20.945h216v-67.791c-2.754-1.21-8.805-.709-10.693 8.007-6.416 25.088-19.248 24.02-23.537 9.05-3.541-30.265 1.181-58.109-10.623-60.531-14.163-3.632-10.622-20.58-11.803-33.897-3.541-19.37-21.246-15.738-21.246 3.632s0 38.74-9.442 43.582c-20.066 9.685-7.471 55.064-16.914 61.117-21.245 10.895-13.325-30.96-25.128-30.96-9.443 0-12.253-8.366-12.253-13.208-3.541-39.951-22.427-3.632-22.427 32.686 0 36.319-11.835 49.38-20.39 25.894z" fill="url(#paint0_linear_214_61)"/><rect x="235" y="410.762" width="120" height="36" rx="18" fill="#25B98F"/><path d="M258.584 434.762v-13.41h1.26l7.866 11.286h-.486v-11.286h1.44v13.41h-1.26l-7.866-11.358h.486v11.358h-1.44zm17.448.216c-.9 0-1.716-.216-2.448-.648a4.796 4.796 0 01-1.71-1.818c-.42-.768-.63-1.638-.63-2.61s.204-1.83.612-2.574c.408-.756.96-1.35 1.656-1.782.708-.432 1.5-.648 2.376-.648.696 0 1.314.132 1.854.396.552.252 1.02.6 1.404 1.044.384.432.678.924.882 1.476a4.699 4.699 0 01.288 2.088 6.53 6.53 0 01-.054.45h-8.154v-1.26h7.38l-.648.54c.108-.66.03-1.248-.234-1.764a2.907 2.907 0 00-1.098-1.242 2.908 2.908 0 00-1.62-.468c-.6 0-1.158.156-1.674.468-.504.312-.9.75-1.188 1.314-.288.552-.402 1.212-.342 1.98-.06.768.06 1.44.36 2.016a3.406 3.406 0 001.26 1.314c.54.312 1.116.468 1.728.468.708 0 1.302-.168 1.782-.504.48-.336.87-.756 1.17-1.26l1.152.612a3.752 3.752 0 01-.882 1.206c-.396.36-.87.654-1.422.882-.54.216-1.14.324-1.8.324zm8.806-.216l-3.312-9.648h1.53l2.736 8.442h-.54l2.574-8.442h1.35l2.574 8.442h-.54l2.754-8.442h1.512l-3.312 9.648h-1.35l-2.502-8.262h.378l-2.502 8.262h-1.35zm14.09 0l4.896-13.41h1.548l4.896 13.41h-1.512l-1.152-3.276h-5.994l-1.17 3.276h-1.512zm3.15-4.626h5.022l-2.718-7.704h.432l-2.736 7.704zm13.785 4.842c-.9 0-1.71-.216-2.43-.648a4.833 4.833 0 01-1.71-1.8c-.408-.768-.612-1.632-.612-2.592 0-.972.204-1.836.612-2.592a4.74 4.74 0 011.692-1.782c.72-.444 1.536-.666 2.448-.666.828 0 1.566.18 2.214.54.648.36 1.158.846 1.53 1.458l-.216.378v-6.138h1.35v13.626h-1.35v-2.16l.216.198a3.656 3.656 0 01-1.512 1.62c-.66.372-1.404.558-2.232.558zm.072-1.35c.648 0 1.23-.162 1.746-.486a3.441 3.441 0 001.242-1.314 3.838 3.838 0 00.468-1.89c0-.696-.156-1.32-.468-1.872a3.408 3.408 0 00-1.242-1.332 3.215 3.215 0 00-1.746-.486c-.636 0-1.212.162-1.728.486a3.488 3.488 0 00-1.224 1.314c-.288.552-.432 1.182-.432 1.89 0 .696.144 1.326.432 1.89.3.552.702.99 1.206 1.314a3.215 3.215 0 001.746.486zm10.926 1.35c-.924 0-1.734-.234-2.43-.702a3.972 3.972 0 01-1.512-1.908l1.134-.54c.276.588.66 1.056 1.152 1.404a2.853 2.853 0 001.656.522c.576 0 1.062-.138 1.458-.414.396-.288.594-.66.594-1.116 0-.336-.096-.6-.288-.792a1.975 1.975 0 00-.666-.468 4.5 4.5 0 00-.666-.234l-1.386-.396c-.888-.252-1.53-.606-1.926-1.062a2.343 2.343 0 01-.594-1.584c0-.564.144-1.056.432-1.476.288-.42.678-.744 1.17-.972a3.849 3.849 0 011.638-.342c.816 0 1.554.216 2.214.648a3.393 3.393 0 011.422 1.764l-1.152.54c-.24-.54-.588-.96-1.044-1.26a2.538 2.538 0 00-1.494-.468c-.54 0-.972.138-1.296.414a1.313 1.313 0 00-.486 1.044c0 .324.084.582.252.774.168.192.36.336.576.432.228.096.426.168.594.216l1.602.468c.78.228 1.386.582 1.818 1.062a2.41 2.41 0 01.666 1.692c0 .528-.15 1.002-.45 1.422-.288.42-.69.75-1.206.99-.516.228-1.11.342-1.782.342z" fill="#F8F9FE"/><path d="M236.619 485.123h3.33c.21-1.53 1.32-2.97 3.72-2.97 2.34 0 3.57 1.26 3.57 3.15 0 2.34-1.89 3.24-4.98 3.27h-.81v2.82h.78c3.57 0 5.43.99 5.43 3.87 0 2.04-1.26 3.6-3.81 3.6-2.58 0-4.08-1.56-4.23-3.6h-3.3c.21 4.29 3.42 6.45 7.56 6.45 4.56 0 7.02-2.64 7.02-6.12 0-3.03-1.47-4.92-3.75-5.61v-.12c1.71-.57 3.36-2.34 3.36-4.95 0-3.18-2.37-5.7-6.72-5.7-3.99 0-6.93 2.13-7.17 5.91zm16.222 20.64h2.22l3.63-8.28h-3.72l-2.13 8.28zm7.789-25.95v2.91h11.1l-8.43 18.87h3.45l8.34-19.23v-2.55h-14.46zm17.117 21.48h14.58v-2.85h-9.51c3.51-3.21 8.91-7.26 8.91-12.57 0-3.93-2.52-6.6-6.96-6.6-3.87 0-6.93 2.31-7.05 7.05h3.3c.09-2.46 1.38-4.14 3.78-4.14 2.55 0 3.54 1.56 3.54 3.84 0 4.29-5.43 8.25-10.59 12.78v2.49zm18.694-5.64c.27 3.12 2.37 5.91 6.9 5.91 5.73 0 7.29-3.93 7.29-11.31 0-7.17-1.89-11.04-7.53-11.04-4.59 0-7.26 2.88-7.26 7.23 0 4.62 3.12 6.99 6.96 6.99 1.98 0 3.87-.75 4.86-2.13 0 5.58-1.38 7.41-4.11 7.41-2.28 0-3.57-1.11-3.96-3.06h-3.15zm6.96-5.1c-3.03 0-4.29-1.95-4.29-4.2 0-2.52 1.53-4.29 4.08-4.29 2.49 0 4.08 1.59 4.08 4.38 0 2.46-1.44 4.11-3.87 4.11z" fill="#161C28"/><path d="M235.599 524.286v1.746h6.66l-5.058 11.322h2.07l5.004-11.538v-1.53h-8.676zm10.432 6.336c0 3.816 1.008 6.696 4.68 6.696 3.672 0 4.68-2.88 4.68-6.696 0-3.744-1.008-6.624-4.68-6.624-3.672 0-4.68 2.88-4.68 6.624zm7.344 0c0 2.574-.27 4.824-2.664 4.824s-2.664-2.25-2.664-4.824c0-2.448.27-4.752 2.664-4.752s2.664 2.304 2.664 4.752zm6.581 5.544c0-.738-.576-1.314-1.296-1.314-.738 0-1.314.576-1.314 1.314 0 .738.576 1.314 1.314 1.314.72 0 1.296-.576 1.296-1.314zm1.948-5.544c0 3.816 1.008 6.696 4.68 6.696 3.672 0 4.68-2.88 4.68-6.696 0-3.744-1.008-6.624-4.68-6.624-3.672 0-4.68 2.88-4.68 6.624zm7.344 0c0 2.574-.27 4.824-2.664 4.824s-2.664-2.25-2.664-4.824c0-2.448.27-4.752 2.664-4.752s2.664 2.304 2.664 4.752zm3.863-3.222c0 1.8 1.17 2.826 2.736 2.826 1.566 0 2.736-1.026 2.736-2.826 0-1.782-1.17-2.808-2.736-2.808-1.566 0-2.736 1.026-2.736 2.808zm2.736-1.566c.684 0 1.134.45 1.134 1.566s-.45 1.584-1.134 1.584c-.702 0-1.134-.468-1.134-1.584s.432-1.566 1.134-1.566zm-.954 11.52h2.016l7.182-12.528h-2.016l-7.182 12.528zm5.544-2.592c0 1.8 1.17 2.826 2.736 2.826 1.548 0 2.718-1.026 2.718-2.826s-1.17-2.808-2.718-2.808c-1.566 0-2.736 1.008-2.736 2.808zm2.718-1.566c.684 0 1.134.45 1.134 1.566s-.45 1.566-1.134 1.566c-.684 0-1.134-.45-1.134-1.566s.45-1.566 1.134-1.566z" fill="#B7BECB"/><path d="M350.879 535.016c7.832-8.719 25.142-21.162 31.721-1.189 8.224 24.967 19.973 8.322 19.973-27.345s18.798-71.334 22.322-32.1c0 4.755 2.35 14.267 11.749 14.267 11.749 0 4.699 41.611 25.847 30.911 9.399-5.944-3.525-52.312 16.448-61.823 9.399-4.755 9.399-23.778 9.399-42.8 0-19.023 17.623-22.59 21.147-3.567 1.175 13.078-2.349 29.722 11.749 33.289 11.749 2.378 7.049 29.723 10.574 59.445 3.524 17.834 17.623 16.645 23.497-8.322 1.88-8.56 7.833-8.322 10.574-7.133" stroke="#0F8CE9" stroke-width="3" stroke-linecap="round"/><circle cx="200.5" cy="384.5" r="26.5" fill="#161C28"/><path d="M194 385.651l4.75 4.349 9.25-11" stroke="#fff" stroke-width="3" stroke-linecap="round" stroke-linejoin="round"/><defs><filter id="filter0_f_214_61" x="89.879" y="356.762" width="628" height="368" filterUnits="userSpaceOnUse" color-interpolation-filters="sRGB"><feFlood flood-opacity="0" result="BackgroundImageFix"/><feBlend in="SourceGraphic" in2="BackgroundImageFix" result="shape"/><feGaussianBlur stdDeviation="60.5" result="effect1_foregroundBlur_214_61"/></filter><filter id="filter1_d_214_61" x=".879" y="5.762" width="594" height="437" filterUnits="userSpaceOnUse" color-interpolation-filters="sRGB"><feFlood flood-opacity="0" result="BackgroundImageFix"/><feColorMatrix in="SourceAlpha" values="0 0 0 0 0 0 0 0 0 0 0 0 0 0 0 0 0 0 127 0" result="hardAlpha"/><feOffset dy="25"/><feGaussianBlur stdDeviation="45"/><feComposite in2="hardAlpha" operator="out"/><feColorMatrix values="0 0 0 0 0.494118 0 0 0 0 0.517647 0 0 0 0 0.533333 0 0 0 0.25 0"/><feBlend in2="BackgroundImageFix" result="effect1_dropShadow_214_61"/><feBlend in="SourceGraphic" in2="effect1_dropShadow_214_61" result="shape"/></filter><filter id="filter2_d_214_61" x="73.367" y="149.521" width="446.421" height="115.515" filterUnits="userSpaceOnUse" color-interpolation-filters="sRGB"><feFlood flood-opacity="0" result="BackgroundImageFix"/><feColorMatrix in="SourceAlpha" values="0 0 0 0 0 0 0 0 0 0 0 0 0 0 0 0 0 0 127 0" result="hardAlpha"/><feOffset dy="9"/><feGaussianBlur stdDeviation="7"/><feColorMatrix values="0 0 0 0 0.725 0 0 0 0 0.320208 0 0 0 0 0.320208 0 0 0 0.04 0"/><feBlend in2="BackgroundImageFix" result="effect1_dropShadow_214_61"/><feBlend in="SourceGraphic" in2="effect1_dropShadow_214_61" result="shape"/></filter><linearGradient id="paint0_linear_214_61" x1="457.879" y1="398.762" x2="457.879" y2="541.17" gradientUnits="userSpaceOnUse"><stop stop-color="#67BEFF"/><stop offset="1" stop-color="#F8F9FE"/></linearGradient></defs></svg>