<svg width="17" height="15" fill="none" xmlns="http://www.w3.org/2000/svg"><path d="M7.896 14.995C4.719 15.106 1.089 13.144.13 8.43c-.437-2.153.228-3.96 1.88-5.406C3.25 1.94 4.705 1.363 6.332 1.262c.856-.054 1.702.12 2.324.792 1.214 1.31.98 2.923-.33 3.843-.672.472-1.519.697-2.286 1.043-.628.282-.837.92-.59 1.595.44 1.208 1.275 1.912 2.546 2.086a6.186 6.186 0 003.405-.491c1.573-.704 2.309-2.252 1.88-3.916-.32-1.246-.875-2.365-1.721-3.348-.549-.634-1.024-1.332-1.522-2.01-.165-.225.067-.549.396-.691.64-.276 1.259-.181 1.83.12 3.043 1.604 4.993 5.498 4.385 8.801-.302 1.636-1.265 2.882-2.543 3.89-1.259.993-3.646 2.15-6.208 2.014l-.003.006z" fill="#4580F0"/></svg>