<svg width="200" height="63" fill="none" xmlns="http://www.w3.org/2000/svg"><g clip-path="url(#clip0_80_284)"><path d="M57.426 27.467c-.294-.507-.749-.883-1.143-1.304-.195-.193-.373-.406-.605-.55-.379-.515-.873-.92-1.3-1.388-.21-.211-.405-.453-.674-.586-.286-.45-.693-.797-1.061-1.174-.76-.744-1.423-1.58-2.2-2.309-.334-.347-.646-.722-1.035-1.007a7.156 7.156 0 00-.817-.901c-1.588-1.594-3.132-3.233-4.76-4.786a3.368 3.368 0 00-.408-.534c-1.488-1.494-2.95-3.014-4.444-4.5-.438-.497-.935-.939-1.39-1.42-.84-.834-1.627-1.722-2.509-2.512-.684-.826-1.508-1.512-2.236-2.295-.336-.322-.622-.71-1.02-.953C31.44.613 30.739.27 30.047.098c-.938-.206-1.919-.075-2.806.279-.025.031-.071.097-.094.13-.415.13-.732.435-1.02.75-2.7 2.695-5.353 5.437-8.016 8.168-.199.198-.373.42-.529.654a1.722 1.722 0 00-.511.394c-1.17 1.268-2.458 2.423-3.574 3.74-.164.065-.272.218-.395.339-.53.59-1.117 1.125-1.641 1.722-.505.196-.82.66-1.198 1.024-2.16 2.188-4.287 4.41-6.43 6.613-.76.676-1.386 1.488-2.15 2.159A5.141 5.141 0 00.14 28.366c-.314 1.282-.11 2.734.72 3.777.586.658 1.372 1.126 2.207 1.376 1.252.242 2.538.004 3.797.159.305.043.332.385.331.634-.002 7.272.014 14.544.004 21.817-.015.375.088.74.278 1.062.124.8.76 1.33 1.275 1.885.092.082.187.184.317.2.422.315.913.53 1.427.63.965.14 1.941.048 2.912.072 5.013.04 10.026.01 15.04.021.39.005.785-.016 1.166-.117.592-.176 1.083-.637 1.346-1.198.403-1.078-.118-2.582-1.325-2.82a2.762 2.762 0 00-.838-.139c-5.09.009-10.181.003-15.272.006-.675.01-1.356-.05-2.024.075-.149-.746-.082-1.51-.091-2.264v-21.22c.01-.539-.064-1.117-.438-1.527-.314-.71-1.045-1.253-1.798-1.343-.696-.196-1.42-.093-2.13-.114-.815-.026-1.634.055-2.445-.055.418-.597 1.016-1.023 1.473-1.585 1.471-1.501 2.943-3.003 4.42-4.501 1.628-1.605 3.218-3.252 4.81-4.893a2.3 2.3 0 00.266-.408c.174-.097.35-.199.488-.347a103.955 103.955 0 014.208-4.303 229.17 229.17 0 012.88-2.944c.113-.125.237-.254.29-.419.551-.405.994-.935 1.481-1.414 1.386-1.362 2.715-2.784 4.112-4.132.972.882 1.81 1.906 2.805 2.763.528.654 1.15 1.229 1.756 1.808 1.089 1.1 2.136 2.243 3.246 3.322.35.348.672.728 1.073 1.02.371.55.92.942 1.353 1.437.267.307.518.63.823.899.71.775 1.468 1.501 2.198 2.256.84.827 1.627 1.714 2.5 2.505.73.822 1.53 1.577 2.305 2.356.365.376.707.784 1.144 1.079.265.453.688.78 1.037 1.165 1.112 1.18 2.295 2.286 3.407 3.464.159.162.342.3.533.422.1.168.215.326.33.484a5.306 5.306 0 00-.085.056c-1.236-.092-2.477-.011-3.714-.042-.663-.04-1.312.172-1.866.53-.864.565-1.295 1.68-1.225 2.698.004 3.558 0 7.117 0 10.674-.014.44.092.884.352 1.242.629 1.012 2.264 1.295 3.09.377.521-.39.724-1.104.718-1.74-.001-3.191-.012-6.383.002-9.575.761.008 1.523.001 2.284.004.624-.009 1.264.057 1.867-.14 1.26-.261 2.356-1.225 2.786-2.452a4.047 4.047 0 00-.32-3.482h-.001z" fill="#222"/><path d="M48.753 53.805c-.334-.316-.612-.711-1.02-.934-.281-.453-.693-.797-1.06-1.175-.692-.705-1.395-1.4-2.078-2.113-.21-.215-.42-.432-.674-.593-.479-.644-1.093-1.166-1.644-1.743-.543-.509-1.01-1.101-1.602-1.553-.06-.147-.12-.293-.177-.438 2.074-3.332 2.551-7.614 1.283-11.334-.17-.446-.271-.958-.611-1.308-.05-.408-.26-.763-.452-1.113-.589-1.144-1.462-2.103-2.363-3.003-.321-.334-.64-.68-1.031-.93-.51-.449-1.1-.833-1.733-1.069-.486-.45-1.12-.675-1.717-.927-.973-.351-1.985-.636-3.019-.694-1.486-.266-3.03-.167-4.494.187-.9.133-1.736.505-2.573.848-.611.291-1.243.577-1.764 1.02-.561.268-1.066.64-1.544 1.035-.87.843-1.74 1.706-2.371 2.756-.643.791-1.014 1.75-1.375 2.697-.318 1.053-.693 2.1-.77 3.209-.24 1.668-.035 3.363.325 4.998.05.218.151.419.25.62.055.318.127.636.257.934.46 1.051.966 2.098 1.69 2.992.478.778 1.14 1.413 1.772 2.06.357.329.7.708 1.16.89.497.389 1.013.758 1.59 1.013 1.204.56 2.435 1.205 3.786 1.248l.027.096c.31.023.63.107.94.037.583.184 1.199.12 1.8.126 1.631.02 3.233-.412 4.742-1.01.486-.237 1.049-.39 1.408-.824a7.54 7.54 0 00.575-.126c.83.687 1.463 1.59 2.333 2.227.659.945 1.574 1.675 2.38 2.485.37.517.875.909 1.32 1.356.827.841 1.656 1.68 2.483 2.522.406.404.779.848 1.253 1.174l.02.078c1.132.707 2.764.647 3.722-.342.805-.78 1.12-2.029.766-3.1-.32-.956-1.151-1.574-1.81-2.28zm-28.24-13.052c-.365-1.299-.358-2.672-.224-4.005.514-2.711 2.197-5.224 4.614-6.547 1.019-.618 2.181-.9 3.342-1.095.922.038 1.861-.044 2.767.18 1.08.235 2.087.715 3.05 1.25.503.373.988.774 1.445 1.206a10.4 10.4 0 011.53 2.07c.726 1.263 1.029 2.725 1.12 4.171.023 2.254-.734 4.529-2.23 6.214-1.27 1.55-3.11 2.55-5.043 2.951-.939.208-1.903.138-2.857.151-.584-.178-1.183-.295-1.767-.473-1.187-.38-2.21-1.125-3.175-1.9-1.19-1.14-2.05-2.607-2.573-4.173z" fill="#D617AA"/></g><path d="M83.022 9.468l8.262 21.284c.317.816.669 1.383 1.054 1.7.408.295.77.453 1.088.476v.68a36.959 36.959 0 00-2.414-.068 121.436 121.436 0 00-5.712 0c-.93 0-1.666.023-2.21.068v-.68c1.156-.045 1.881-.238 2.176-.578.317-.363.25-1.122-.204-2.278l-5.78-15.81.612-.884-5.168 13.464c-.499 1.247-.805 2.267-.918 3.06-.09.793-.034 1.405.17 1.836.227.43.578.737 1.054.918.499.159 1.088.25 1.768.272v.68a35.491 35.491 0 00-2.142-.068 62.17 62.17 0 00-2.074-.034c-.499 0-.975.011-1.428.034-.43 0-.816.023-1.156.068v-.68c.476-.09.963-.397 1.462-.918s.986-1.405 1.462-2.652l7.752-19.89c.363.023.748.034 1.156.034.43 0 .827-.011 1.19-.034zm2.38 14.348v.68H75.27l.34-.68h9.792zM100.6 40c-1.406 0-2.664-.125-3.774-.374-1.088-.227-1.95-.59-2.584-1.088-.612-.476-.918-1.065-.918-1.768 0-.703.317-1.337.952-1.904.634-.544 1.575-.975 2.822-1.292l.306.544c-.43.34-.748.703-.952 1.088a3.068 3.068 0 00-.272 1.258c0 .952.43 1.677 1.292 2.176.884.521 2.074.782 3.57.782 1.02 0 1.926-.136 2.72-.408.816-.272 1.45-.68 1.904-1.224.476-.544.714-1.213.714-2.006 0-.68-.25-1.258-.748-1.734-.499-.453-1.496-.68-2.992-.68h-2.108c-.93 0-1.746-.102-2.448-.306-.68-.204-1.213-.521-1.598-.952-.386-.453-.578-1.02-.578-1.7 0-.952.374-1.79 1.122-2.516.748-.725 1.858-1.405 3.332-2.04l.34.272c-.431.272-.839.567-1.224.884-.363.295-.544.68-.544 1.156 0 .725.453 1.088 1.36 1.088H104c1.246 0 2.357.147 3.332.442.997.295 1.779.782 2.346 1.462.589.657.884 1.519.884 2.584 0 1.11-.363 2.142-1.088 3.094-.703.952-1.791 1.711-3.264 2.278-1.474.59-3.344.884-5.61.884zm.34-13.634c-1.292 0-2.448-.193-3.468-.578-1.02-.385-1.825-.975-2.414-1.768-.59-.793-.884-1.813-.884-3.06s.294-2.267.884-3.06c.59-.816 1.394-1.405 2.414-1.768 1.02-.385 2.176-.578 3.468-.578 1.292 0 2.448.193 3.468.578 1.02.363 1.824.952 2.414 1.768.589.793.884 1.813.884 3.06s-.295 2.267-.884 3.06c-.59.793-1.394 1.383-2.414 1.768-1.02.385-2.176.578-3.468.578zm0-.612c.612 0 1.088-.34 1.428-1.02.34-.703.51-1.96.51-3.774 0-1.813-.17-3.06-.51-3.74-.34-.703-.816-1.054-1.428-1.054-.59 0-1.066.351-1.428 1.054-.34.68-.51 1.927-.51 3.74 0 1.813.17 3.071.51 3.774.362.68.838 1.02 1.428 1.02zm5.304-7.276l-.68-.238c.34-.884.884-1.62 1.632-2.21.77-.59 1.598-.884 2.482-.884.725 0 1.269.204 1.632.612.385.385.578.895.578 1.53 0 .68-.182 1.19-.544 1.53a1.812 1.812 0 01-1.224.476c-.386 0-.748-.136-1.088-.408-.318-.272-.499-.68-.544-1.224-.046-.567.147-1.292.578-2.176l.238.204c-.862.317-1.508.691-1.938 1.122-.431.408-.805.963-1.122 1.666zm14.793-2.924c1.995 0 3.559.59 4.692 1.768 1.134 1.179 1.7 3.105 1.7 5.78h-11.186l-.068-.646h6.97c.023-1.11-.045-2.13-.204-3.06-.158-.952-.408-1.711-.748-2.278s-.793-.85-1.36-.85c-.793 0-1.473.499-2.04 1.496-.544.997-.872 2.652-.986 4.964l.102.204-.068.85v.918c0 1.564.216 2.833.646 3.808.454.975 1.02 1.689 1.7 2.142.68.43 1.372.646 2.074.646a5.54 5.54 0 001.462-.204c.522-.159 1.043-.43 1.564-.816.522-.408 1.009-.975 1.462-1.7l.612.204a8.834 8.834 0 01-1.292 2.516 7.076 7.076 0 01-2.244 2.006c-.906.521-1.994.782-3.264.782-1.541 0-2.901-.329-4.08-.986-1.178-.657-2.108-1.655-2.788-2.992-.657-1.337-.986-3.037-.986-5.1 0-2.108.352-3.865 1.054-5.27.726-1.405 1.712-2.448 2.958-3.128 1.27-.703 2.709-1.054 4.318-1.054zm20.81 0c.952 0 1.723.125 2.312.374.612.227 1.088.544 1.428.952.363.43.623.986.782 1.666.181.68.272 1.598.272 2.754v9.146c0 .952.159 1.598.476 1.938.34.34.907.51 1.7.51v.714a80.838 80.838 0 00-1.938-.068 48.533 48.533 0 00-5.1 0c-.816.023-1.439.045-1.87.068v-.714c.68 0 1.156-.17 1.428-.51.272-.34.408-.986.408-1.938V19.872c0-.567-.057-1.054-.17-1.462-.113-.43-.317-.76-.612-.986-.295-.25-.737-.374-1.326-.374a3.05 3.05 0 00-1.7.51c-.499.34-.907.816-1.224 1.428-.295.59-.442 1.258-.442 2.006v9.452c0 .952.136 1.598.408 1.938.295.34.771.51 1.428.51v.714a72.753 72.753 0 00-1.802-.068 41.18 41.18 0 00-2.414-.068c-.861 0-1.745.023-2.652.068-.907.023-1.587.045-2.04.068v-.714c.793 0 1.349-.17 1.666-.51.34-.34.51-.986.51-1.938v-10.71c0-1.02-.159-1.768-.476-2.244-.295-.499-.861-.748-1.7-.748v-.714c.725.068 1.428.102 2.108.102.952 0 1.836-.034 2.652-.102.839-.09 1.609-.215 2.312-.374v3.06c.567-1.156 1.337-1.972 2.312-2.448.975-.476 2.063-.714 3.264-.714zm15.173-8.568v23.46c0 .952.158 1.598.476 1.938.34.34.906.51 1.7.51v.714a80.838 80.838 0 00-1.938-.068 49.863 49.863 0 00-2.618-.068c-.884 0-1.78.023-2.686.068-.884.023-1.553.045-2.006.068v-.714c.793 0 1.348-.17 1.666-.51.34-.34.51-.986.51-1.938v-19.38c0-1.02-.159-1.768-.476-2.244-.295-.499-.862-.748-1.7-.748V7.36c.725.068 1.428.102 2.108.102.929 0 1.813-.034 2.652-.102a20.6 20.6 0 002.312-.374zm8.042.272c.952 0 1.7.238 2.244.714.567.453.85 1.088.85 1.904 0 .816-.283 1.462-.85 1.938-.544.453-1.292.68-2.244.68-.952 0-1.711-.227-2.278-.68-.544-.476-.816-1.122-.816-1.938 0-.816.272-1.45.816-1.904.567-.476 1.326-.714 2.278-.714zm2.652 8.398v14.79c0 .952.159 1.598.476 1.938.34.34.907.51 1.7.51v.714a72.291 72.291 0 00-1.904-.068 49.834 49.834 0 00-2.618-.068 54.2 54.2 0 00-2.686.068c-.906.023-1.586.045-2.04.068v-.714c.794 0 1.349-.17 1.666-.51.34-.34.51-.986.51-1.938v-10.71c0-1.02-.158-1.768-.476-2.244-.294-.499-.861-.748-1.7-.748v-.714c.726.068 1.428.102 2.108.102.952 0 1.836-.034 2.652-.102.839-.09 1.61-.215 2.312-.374zm10.385-.102c.952 0 1.779.125 2.482.374.725.227 1.247.453 1.564.68.771.521 1.247.181 1.428-1.02h.714a52.397 52.397 0 00-.102 2.346c-.023.907-.034 2.12-.034 3.638h-.714a10.83 10.83 0 00-.646-2.482c-.317-.816-.782-1.485-1.394-2.006-.589-.521-1.36-.782-2.312-.782-.657 0-1.213.193-1.666.578-.453.363-.68.895-.68 1.598 0 .68.204 1.28.612 1.802.408.499.929.986 1.564 1.462.657.453 1.337.94 2.04 1.462a26.99 26.99 0 012.04 1.7 6.826 6.826 0 011.462 1.802c.363.657.544 1.44.544 2.346 0 1.02-.295 1.915-.884 2.686-.589.748-1.371 1.326-2.346 1.734-.952.408-2.017.612-3.196.612-.68 0-1.292-.068-1.836-.204a6.314 6.314 0 01-1.36-.51c-.295-.136-.578-.26-.85-.374a6.627 6.627 0 00-.714-.34c-.227-.068-.431.011-.612.238-.159.227-.283.544-.374.952h-.714c.045-.725.079-1.61.102-2.652.023-1.043.034-2.425.034-4.148h.714c.136 1.224.385 2.312.748 3.264.363.93.85 1.666 1.462 2.21.635.521 1.428.782 2.38.782.385 0 .759-.08 1.122-.238.363-.159.657-.42.884-.782.249-.363.374-.827.374-1.394 0-.997-.329-1.825-.986-2.482-.635-.657-1.451-1.371-2.448-2.142a92.677 92.677 0 01-2.074-1.734 8.726 8.726 0 01-1.564-1.904c-.408-.703-.612-1.496-.612-2.38 0-1.02.272-1.881.816-2.584.544-.703 1.258-1.224 2.142-1.564a7.71 7.71 0 012.89-.544zm15.875-5.1v5.576h4.012v.68h-4.012v13.736c0 .68.125 1.167.374 1.462.249.272.623.408 1.122.408.408 0 .816-.147 1.224-.442.408-.317.771-.85 1.088-1.598l.578.306c-.363 1.02-.918 1.859-1.666 2.516-.725.657-1.723.986-2.992.986-.748 0-1.405-.102-1.972-.306a3.478 3.478 0 01-1.428-.85 3.635 3.635 0 01-.986-1.836c-.159-.748-.238-1.711-.238-2.89V16.71h-2.856v-.68h2.856v-4.488c.952 0 1.825-.08 2.618-.238a8.587 8.587 0 002.278-.85zM71.222 60v-9.685h5.915v.78h-5.07v3.653h4.615v.78h-4.615V60h-.845zm7.487 0v-6.903h.78V60h-.78zm0-8.255v-1.43h.78v1.43h-.78zM81.629 60v-6.903h.78v1.391l-.195-.052a2.09 2.09 0 01.832-1.092c.407-.269.88-.403 1.417-.403.477 0 .91.108 1.3.325.39.217.702.52.936.91.234.381.35.819.35 1.313V60h-.78v-4.29c0-.416-.082-.771-.246-1.066a1.65 1.65 0 00-.69-.689 1.944 1.944 0 00-.987-.247c-.39 0-.733.091-1.027.273-.295.182-.52.433-.676.754-.156.32-.234.689-.234 1.105V60h-.78zm10.546.156a3.32 3.32 0 01-1.742-.468 3.424 3.424 0 01-1.209-1.3c-.294-.546-.442-1.161-.442-1.846s.148-1.3.442-1.846a3.325 3.325 0 011.21-1.287 3.32 3.32 0 011.741-.468c.633 0 1.196.152 1.69.455.494.295.867.693 1.118 1.196l-.13.247v-4.68h.78V60h-.78v-1.755l.13.182a2.849 2.849 0 01-1.118 1.274c-.494.303-1.057.455-1.69.455zm.026-.78c.503 0 .95-.121 1.34-.364.398-.251.714-.59.948-1.014.234-.433.351-.919.351-1.456a2.94 2.94 0 00-.35-1.443 2.638 2.638 0 00-.95-1.001 2.418 2.418 0 00-1.339-.377c-.494 0-.936.126-1.326.377-.39.243-.697.576-.923 1.001a3.03 3.03 0 00-.338 1.443c0 .537.113 1.023.338 1.456.226.425.533.763.923 1.014.39.243.832.364 1.326.364zm7.877.624v-9.685h3.25c.616 0 1.157.121 1.625.364a2.66 2.66 0 011.092 1.027c.269.442.403.953.403 1.534 0 .58-.134 1.092-.403 1.534-.26.433-.624.776-1.092 1.027-.459.243-1.001.364-1.625.364h-2.405V60h-.845zm.845-4.615h2.431a2.53 2.53 0 001.17-.26c.338-.182.603-.433.793-.754.191-.33.286-.71.286-1.144 0-.433-.095-.806-.286-1.118a1.92 1.92 0 00-.793-.741 2.43 2.43 0 00-1.17-.273h-2.431v4.29zM108.302 60v-6.903h.78v1.287l-.143-.117a1.83 1.83 0 01.754-.923c.364-.225.793-.338 1.287-.338h.442v.78h-.533c-.564 0-1.006.182-1.326.546-.321.355-.481.836-.481 1.443V60h-.78zm7.616.156a3.438 3.438 0 01-1.781-.468 3.454 3.454 0 01-1.261-1.287 3.814 3.814 0 01-.455-1.859c0-.685.152-1.3.455-1.846a3.49 3.49 0 011.248-1.287c.529-.312 1.127-.468 1.794-.468.659 0 1.252.156 1.781.468.529.312.945.741 1.248 1.287.303.537.455 1.153.455 1.846 0 .693-.156 1.313-.468 1.859a3.454 3.454 0 01-1.261 1.287 3.345 3.345 0 01-1.755.468zm0-.767c.494 0 .94-.121 1.339-.364a2.68 2.68 0 00.962-1.027c.234-.433.351-.919.351-1.456a2.94 2.94 0 00-.351-1.443 2.735 2.735 0 00-.949-1.014 2.482 2.482 0 00-1.352-.377c-.503 0-.958.126-1.365.377a2.61 2.61 0 00-.949 1.014 2.94 2.94 0 00-.351 1.443c0 .537.117 1.023.351 1.456.243.433.563.776.962 1.027.399.243.849.364 1.352.364zm5.358 3.211v-9.503h.78v1.742l-.13-.247c.26-.503.633-.901 1.118-1.196.494-.303 1.058-.455 1.69-.455.65 0 1.231.156 1.742.468.512.312.915.741 1.209 1.287.295.546.442 1.166.442 1.859 0 .676-.147 1.287-.442 1.833a3.41 3.41 0 01-1.209 1.3c-.511.312-1.092.468-1.742.468-.632 0-1.2-.152-1.703-.455a2.874 2.874 0 01-1.105-1.274l.13-.182V62.6h-.78zm3.432-3.224c.494 0 .936-.121 1.326-.364.39-.251.698-.59.923-1.014a3.1 3.1 0 00.338-1.456c0-.537-.112-1.018-.338-1.443a2.571 2.571 0 00-.923-1.001 2.395 2.395 0 00-1.326-.377c-.494 0-.94.126-1.339.377a2.642 2.642 0 00-.949 1.001 2.94 2.94 0 00-.351 1.443c0 .537.117 1.023.351 1.456.234.425.546.763.936 1.014.399.243.85.364 1.352.364zm8.449.78c-.65 0-1.235-.156-1.755-.468a3.488 3.488 0 01-1.235-1.3 3.814 3.814 0 01-.455-1.859c0-.685.147-1.296.442-1.833a3.36 3.36 0 011.196-1.287 3.14 3.14 0 011.69-.468c.477 0 .906.087 1.287.26.39.173.724.416 1.001.728.286.303.503.654.65 1.053a3.294 3.294 0 01.182 1.807h-5.993v-.715h5.551l-.351.273c.052-.503-.022-.953-.221-1.352a2.305 2.305 0 00-.858-.962 2.198 2.198 0 00-1.248-.364 2.33 2.33 0 00-1.287.377 2.55 2.55 0 00-.923 1.014c-.225.425-.329.919-.312 1.482-.017.563.091 1.062.325 1.495.234.433.555.776.962 1.027a2.59 2.59 0 001.352.364c.503 0 .94-.117 1.313-.351.373-.243.676-.563.91-.962l.663.351c-.156.32-.377.611-.663.871a3.33 3.33 0 01-1.001.598c-.373.147-.78.221-1.222.221zm4.915-.156v-6.903h.78v1.287l-.143-.117c.147-.39.399-.698.754-.923.364-.225.793-.338 1.287-.338h.442v.78h-.533c-.563 0-1.005.182-1.326.546-.321.355-.481.836-.481 1.443V60h-.78zm6.914.078c-.572 0-1.014-.16-1.326-.481-.312-.33-.468-.806-.468-1.43v-4.329h-1.3v-.741h.494c.26 0 .46-.078.598-.234.139-.156.208-.368.208-.637v-.741h.78v1.612h1.508v.741h-1.508v4.329c0 .19.026.377.078.559.061.182.174.33.338.442.165.113.403.169.715.169a4.387 4.387 0 00.494-.039V60a1.69 1.69 0 01-.325.052 2.141 2.141 0 01-.286.026zm2.507 2.782c-.122 0-.256-.013-.403-.039a2.086 2.086 0 01-.403-.091v-.728a3.19 3.19 0 00.728.091c.424-.009.758-.113 1.001-.312.242-.2.463-.529.663-.988l.494-1.157v.728l-2.925-7.267h.858l2.509 6.266h-.312l2.522-6.266h.871l-3.224 7.865a5.228 5.228 0 01-.481.871c-.2.295-.455.537-.767.728-.304.2-.681.299-1.131.299zm8.193-2.86l3.562-9.685h.871L163.681 60h-.91l-.884-2.47h-4.407l-.897 2.47h-.897zm2.067-3.25h3.848l-2.08-5.785h.312l-2.08 5.785zm10.191 6.11c-.46 0-.884-.074-1.274-.221a3.269 3.269 0 01-1.014-.598 2.891 2.891 0 01-.676-.858l.702-.377c.19.373.476.68.858.923.39.243.853.364 1.391.364.433 0 .836-.087 1.209-.26a2.09 2.09 0 00.91-.78c.242-.347.364-.784.364-1.313v-1.755l.143.182a2.874 2.874 0 01-1.105 1.274 3.095 3.095 0 01-1.651.455 3.25 3.25 0 01-1.729-.468 3.368 3.368 0 01-1.209-1.261 3.629 3.629 0 01-.429-1.755c0-.641.143-1.222.429-1.742a3.404 3.404 0 011.196-1.261c.511-.312 1.092-.468 1.742-.468a3.03 3.03 0 011.638.455c.485.295.858.693 1.118 1.196l-.143.247v-1.742h.78v6.643a3.08 3.08 0 01-.416 1.599c-.278.477-.663.85-1.157 1.118-.486.269-1.045.403-1.677.403zm-.117-3.744c.485 0 .918-.121 1.3-.364a2.63 2.63 0 00.923-.975c.225-.416.338-.871.338-1.365a2.75 2.75 0 00-.338-1.352 2.63 2.63 0 00-.923-.975 2.372 2.372 0 00-1.3-.364c-.494 0-.936.121-1.326.364a2.52 2.52 0 00-.91.975 2.83 2.83 0 00-.325 1.352c0 .494.108.949.325 1.365.216.407.515.732.897.975.39.243.836.364 1.339.364zm8.672 1.04c-.65 0-1.235-.156-1.755-.468a3.488 3.488 0 01-1.235-1.3 3.803 3.803 0 01-.455-1.859c0-.685.147-1.296.442-1.833a3.352 3.352 0 011.196-1.287 3.138 3.138 0 011.69-.468c.476 0 .905.087 1.287.26.39.173.723.416 1.001.728.286.303.502.654.65 1.053a3.294 3.294 0 01.182 1.807h-5.993v-.715h5.551l-.351.273c.052-.503-.022-.953-.221-1.352a2.318 2.318 0 00-.858-.962 2.198 2.198 0 00-1.248-.364 2.33 2.33 0 00-1.287.377 2.55 2.55 0 00-.923 1.014c-.226.425-.33.919-.312 1.482-.018.563.091 1.062.325 1.495.234.433.554.776.962 1.027a2.59 2.59 0 001.352.364c.502 0 .94-.117 1.313-.351.372-.243.676-.563.91-.962l.663.351c-.156.32-.377.611-.663.871a3.33 3.33 0 01-1.001.598c-.373.147-.78.221-1.222.221zm4.915-.156v-6.903h.78v1.391l-.195-.052a2.09 2.09 0 01.832-1.092c.407-.269.88-.403 1.417-.403.477 0 .91.108 1.3.325.39.217.702.52.936.91.234.381.351.819.351 1.313V60h-.78v-4.29c0-.416-.082-.771-.247-1.066a1.65 1.65 0 00-.689-.689 1.943 1.943 0 00-.988-.247c-.39 0-.732.091-1.027.273a1.78 1.78 0 00-.676.754c-.156.32-.234.689-.234 1.105V60h-.78zm9.948.078c-.572 0-1.014-.16-1.326-.481-.312-.33-.468-.806-.468-1.43v-4.329h-1.3v-.741h.494c.26 0 .46-.078.598-.234.139-.156.208-.368.208-.637v-.741h.78v1.612h1.508v.741h-1.508v4.329c0 .19.026.377.078.559.061.182.174.33.338.442.165.113.403.169.715.169a4.387 4.387 0 00.494-.039V60a1.69 1.69 0 01-.325.052 2.141 2.141 0 01-.286.026zm4.808.078c-.642 0-1.205-.16-1.69-.481a2.789 2.789 0 01-1.066-1.313l.676-.312c.216.425.507.763.871 1.014a2.13 2.13 0 001.209.364c.45 0 .827-.108 1.131-.325.312-.225.468-.52.468-.884a.906.906 0 00-.182-.572 1.253 1.253 0 00-.442-.377 2.295 2.295 0 00-.585-.234l-1.066-.299c-.598-.165-1.04-.407-1.326-.728a1.67 1.67 0 01-.416-1.131c0-.39.099-.728.299-1.014a1.92 1.92 0 01.806-.676c.338-.165.71-.247 1.118-.247.572 0 1.092.147 1.56.442.468.295.797.693.988 1.196l-.702.325a2.148 2.148 0 00-.767-.91 1.895 1.895 0 00-1.092-.338c-.416 0-.754.113-1.014.338-.26.217-.39.494-.39.832 0 .217.052.399.156.546.104.139.238.256.403.351.173.087.351.156.533.208l1.157.338c.563.156.996.403 1.3.741.312.338.468.737.468 1.196 0 .373-.104.706-.312 1.001a2.16 2.16 0 01-.858.702 2.965 2.965 0 01-1.235.247z" fill="#222"/><defs><clipPath id="clip0_80_284"><path fill="#fff" d="M0 0h58v60H0z"/></clipPath></defs></svg>