<svg width="60" height="60" fill="none" xmlns="http://www.w3.org/2000/svg"><g clip-path="url(#clip0_80_357)" fill="#222"><path d="M40 55h-5v-5H25v5h-5a2.5 2.5 0 000 5h20a2.5 2.5 0 100-5zm15.625-45H47.5v5H55v30H5V15h7.5v-5H4.375C1.975 10 0 11.975 0 14.375v31.25C0 48.025 1.975 50 4.375 50h51.25c2.4 0 4.375-1.975 4.375-4.375v-31.25c0-2.4-1.975-4.375-4.375-4.375z"/><path d="M37.625 4h-16.25C18.962 4 17 5.927 17 8.295v18.41C17 29.073 18.962 31 21.375 31h16.25C40.038 31 42 29.073 42 26.704V8.296C42 5.927 40.038 4 37.625 4zm-5 19.636h-6.25c-1.035 0-1.875-.824-1.875-1.84 0-1.017.84-1.841 1.875-1.841h6.25c1.035 0 1.875.824 1.875 1.84 0 1.017-.84 1.841-1.875 1.841zm0-7.363h-6.25c-1.035 0-1.875-.825-1.875-1.841s.84-1.841 1.875-1.841h6.25c1.035 0 1.875.825 1.875 1.84 0 1.017-.84 1.842-1.875 1.842z"/><path d="M33.75 7.5a1.876 1.876 0 01-1.875-1.875v-3.75a1.876 1.876 0 013.75 0v3.75c0 1.035-.84 1.875-1.875 1.875zm-7.5 0a1.876 1.876 0 01-1.875-1.875v-3.75a1.876 1.876 0 013.75 0v3.75c0 1.035-.84 1.875-1.875 1.875z"/></g><defs><clipPath id="clip0_80_357"><path fill="#fff" d="M0 0h60v60H0z"/></clipPath></defs></svg>