<svg width="60" height="60" fill="none" xmlns="http://www.w3.org/2000/svg"><g clip-path="url(#clip0_80_369)" fill="#222"><path d="M52.5 6.9V4.375C52.5 1.975 50.525 0 48.125 0h-5.05c-.675 0-1.3.35-1.625.95a1.925 1.925 0 000 1.875c.275.45.425 1 .425 1.55a3.126 3.126 0 01-6.25 0c0-.55.15-1.1.425-1.55.325-.575.325-1.3 0-1.875A1.83 1.83 0 0034.425 0h-5.05C26.975 0 25 1.975 25 4.375v6.5C30.825 12.9 35 18.475 35 25c0 .85-.075 1.7-.225 2.5h13.35c2.4 0 4.375-1.975 4.375-4.375V20.6c3.975.375 7.5-2.85 7.5-6.85 0-4-3.55-7.2-7.5-6.85zM20 35c-5.515 0-10-4.485-10-10s4.485-10 10-10 10 4.485 10 10-4.485 10-10 10zm20 25H0v-8.125C0 45.318 5.317 40 11.875 40h16.25C34.682 40 40 45.318 40 51.875V60z"/></g><defs><clipPath id="clip0_80_369"><path fill="#fff" d="M0 0h60v60H0z"/></clipPath></defs></svg>