<svg width="60" height="60" fill="none" xmlns="http://www.w3.org/2000/svg"><g clip-path="url(#clip0_80_363)" fill="#222"><path d="M41.436 60a2.56 2.56 0 01-1.387-.407l-10.88-6.946a2.508 2.508 0 01-.758-3.494 2.583 2.583 0 013.54-.748l10.88 6.947a2.508 2.508 0 01.758 3.494A2.57 2.57 0 0141.436 60z"/><path d="M19.561 60c-.84 0-1.661-.407-2.15-1.154a2.507 2.507 0 01.758-3.493l10.88-6.947a2.58 2.58 0 013.54.748 2.507 2.507 0 01-.758 3.493l-10.88 6.946a2.58 2.58 0 01-1.39.407z"/><path d="M28 48v10.4c0 1.435 1.12 2.6 2.5 2.6s2.5-1.165 2.5-2.6V48h-5zm25.756-31.872H5.244c-.426 0-.836-.063-1.244-.128v24.606C4 43.03 5.953 45 8.354 45h42.292C53.047 45 55 43.03 55 40.606V16c-.408.065-.819.128-1.244.128zm-9.274 7.87l-9.499 11.658a2.473 2.473 0 01-3.276.512l-5.456-3.573-8.078 7.929a2.47 2.47 0 01-3.518-.05 2.527 2.527 0 01.05-3.55l9.498-9.325a2.466 2.466 0 013.09-.306l5.26 3.442 8.087-9.925a2.477 2.477 0 013.503-.344A2.525 2.525 0 0144.482 24zM54.375 12H5.625C2.522 12 0 9.534 0 6.5S2.522 1 5.625 1h48.75C57.477 1 60 3.466 60 6.5S57.477 12 54.375 12z"/></g><defs><clipPath id="clip0_80_363"><path fill="#fff" d="M0 0h60v60H0z"/></clipPath></defs></svg>