<svg width="33" height="25" fill="none" xmlns="http://www.w3.org/2000/svg"><path d="M8.624 24.904c1.819 0 3.403-.645 4.752-1.936 1.35-1.35 2.024-3.256 2.024-5.72 0-3.755-1.085-7.187-3.256-10.296C9.914 3.842 6.189 1.525.968 0v3.696c5.573 1.819 8.36 4.459 8.36 7.92 0 .88-.323 1.555-.968 2.024-.645.47-1.379.91-2.2 1.32a7.19 7.19 0 00-2.288 1.672c-.645.704-.968 1.73-.968 3.08 0 1.701.557 2.992 1.672 3.872 1.056.88 2.405 1.32 4.048 1.32zm17.6 0c1.819 0 3.403-.645 4.752-1.936 1.35-1.35 2.024-3.256 2.024-5.72 0-3.755-1.085-7.187-3.256-10.296-2.23-3.11-5.955-5.427-11.176-6.952v3.696c5.573 1.819 8.36 4.459 8.36 7.92 0 .88-.323 1.555-.968 2.024-.645.47-1.379.91-2.2 1.32a7.19 7.19 0 00-2.288 1.672c-.645.704-.968 1.73-.968 3.08 0 1.701.557 2.992 1.672 3.872 1.056.88 2.405 1.32 4.048 1.32z" fill="#CFDEEF"/></svg>