<svg width="13" height="16" fill="none" xmlns="http://www.w3.org/2000/svg"><path d="M3.495 16c.417-.675 1.026-1.76 1.249-2.633l.635-2.404c.325.632 1.294 1.164 2.321 1.164 3.057 0 5.262-2.803 5.262-6.288C12.962 2.495 10.222 0 6.707 0 2.322 0 0 2.928 0 6.113c0 1.49.793 3.328 2.063 3.918.192.092.3.05.342-.133l.098-.393c.064-.256.142-.57.186-.755a.3.3 0 00-.067-.29c-.417-.508-.751-1.44-.751-2.305 0-2.23 1.695-4.383 4.585-4.383 2.497 0 4.243 1.688 4.243 4.109 0 2.728-1.387 4.624-3.19 4.624-.995 0-1.746-.823-1.504-1.83.104-.429.24-.87.374-1.299.24-.776.47-1.512.47-2.07 0-.773-.418-1.422-1.287-1.422-1.019 0-1.837 1.048-1.837 2.454 0 .89.3 1.497.3 1.497S3.024 12.07 2.84 12.86c-.2.873-.126 2.102-.034 2.9.226.089.456.169.689.241z" fill="#CC2127"/></svg>