<svg width="19" height="15" fill="none" xmlns="http://www.w3.org/2000/svg"><path d="M18.457 1.776a7.555 7.555 0 01-2.175.595A3.797 3.797 0 0017.948.277a7.581 7.581 0 01-2.405.918A3.787 3.787 0 009.09 4.65 10.75 10.75 0 011.285.694 3.787 3.787 0 002.457 5.75 3.76 3.76 0 01.74 5.274v.049a3.789 3.789 0 003.038 3.712 3.774 3.774 0 01-1.71.066 3.79 3.79 0 003.537 2.63A7.598 7.598 0 010 13.299 10.712 10.712 0 005.804 15C12.77 15 16.58 9.23 16.58 4.225c0-.164-.004-.327-.011-.49a7.68 7.68 0 001.89-1.96z" fill="#55ACEE"/></svg>