<svg width="17" height="16" fill="none" xmlns="http://www.w3.org/2000/svg"><path d="M16.742 9.808V16h-3.589v-5.776c0-1.45-.518-2.442-1.818-2.442-.99 0-1.58.668-1.84 1.314-.096.23-.12.55-.12.874V16h-3.59s.048-9.783 0-10.796h3.59v1.53c-.006.012-.016.023-.023.035h.024v-.035C9.853 6 10.704 4.95 12.61 4.95c2.362 0 4.131 1.544 4.131 4.858zM2.032 0C.801 0 0 .806 0 1.865 0 2.902.779 3.73 1.984 3.73h.022c1.253 0 2.032-.828 2.032-1.865C4.014.807 3.258 0 2.03 0zM.212 16H3.8V5.204H.213V16z" fill="#0A7BBA"/></svg>