<svg width="1290" height="329" fill="none" xmlns="http://www.w3.org/2000/svg"><rect width="1290" height="329" rx="10" fill="#FFF7F7"/><mask id="mask0_213_59" style="mask-type:alpha" maskUnits="userSpaceOnUse" x="0" y="0" width="1290" height="329"><rect width="1290" height="329" rx="10" fill="#FFF7F7"/></mask><g mask="url(#mask0_213_59)"><path d="M-161.25 327.865a846.325 846.325 0 0112.349 7.36c4.831 2.942 9.648 6.144 14.311 9.242 9.252 6.151 18.826 12.508 29.065 17.249 22.589 10.452 47.065 17.042 70.742 23.419a2421.81 2421.81 0 0111.886 3.221c26.014 7.134 44.995 17.152 59.722 31.523 15.978 15.593 24.544 35.578 31.317 53.086 11.126 28.768 22.635 58.519 37.698 86.459 15.655 29.039 24.289 55.556 26.412 81.065 1.599 19.247 2.869 41.58-2.439 62.994-5.63 22.714-16.925 39.258-34.521 50.583-18.362 11.816-39.647 17.915-59.87 23.147-8.003 2.07-16.22 3.972-24.168 5.808-13.552 3.131-27.56 6.371-41.032 10.581-35.837 11.202-65.776 25.612-91.536 44.058-18.476 13.226-31.658 28.353-39.929 45.829v8.647c7.639-20.095 21.439-37.156 41.958-51.844 25.458-18.226 55.08-32.48 90.562-43.572 13.344-4.172 27.292-7.393 40.776-10.51 7.969-1.843 16.206-3.745 24.255-5.827 20.499-5.304 42.08-11.493 60.879-23.588 18.093-11.635 30.187-29.317 35.945-52.549 5.422-21.88 4.145-44.516 2.52-64.023-2.157-25.954-10.918-52.879-26.788-82.313-14.963-27.759-26.432-57.412-37.524-86.09-6.894-17.831-15.628-38.191-32.082-54.243-15.158-14.792-34.609-25.075-61.215-32.371-3.964-1.086-7.935-2.153-11.905-3.227-23.536-6.338-47.865-12.89-70.185-23.219-10.004-4.631-19.457-10.911-28.608-16.99-4.69-3.117-9.534-6.338-14.425-9.313-4.676-2.853-9.44-5.666-14.163-8.428v3.842l-.007-.006zm372.057 671.277c.928-.472 1.868-.931 2.782-1.429 18.799-10.336 32.062-26.576 43.598-42.596 5.697-7.91 11.442-15.988 17.005-23.794 10.723-15.063 21.809-30.637 33.023-45.726 19.827-26.666 37.128-56.514 51.425-88.71 11.509-25.915 22.951-45.544 36.013-61.765 11.213-13.925 23.186-27.675 34.769-40.972a3576.293 3576.293 0 0015.01-17.321c10.515-12.243 16.011-27.002 16.326-43.85.336-17.805-6.739-33.877-13.39-47.543-14.143-29.04-35.045-55.764-67.759-86.653-3.923-3.706-7.948-7.418-11.852-11.008-13.753-12.676-27.97-25.78-39.781-40.571-22.374-28.024-31.652-57.406-28.353-89.835 1.941-19.092 7.632-36.373 17.388-52.827 8.217-13.86 19.074-24.221 33.19-31.678 16.26-8.596 33.984-10.581 50.707-11.441 19.733-1.016 40.4.135 61.416 3.434 37.585 5.892 69.337 24.538 94.385 55.421 13.028 16.065 25.041 33.366 36.657 50.098 3.534 5.09 7.068 10.186 10.636 15.25 17.335 24.616 33.58 42.945 51.123 57.685 36.275 30.475 78.032 51.087 124.129 61.254 27.849 6.144 48.328 19.772 62.619 41.664 4.333 6.643 8.331 13.679 12.188 20.483 3.03 5.343 6.167 10.866 9.46 16.195a6396.71 6396.71 0 016.006 9.74c9.621 15.626 19.565 31.789 30.208 47.156 18.396 26.562 44.579 44.794 77.83 54.198 11.872 3.357 24.425 5.879 35.495 8.104l2.08.42c18.08 3.641 36.77 7.393 55.87 7.121 15.41-.226 28.62-5.375 39.28-15.302 14.93-13.906 23.18-31.711 29.73-47.311 11.47-27.248 18.86-56.035 26.03-83.878a2435.5 2435.5 0 012.09-8.149l.98-3.816c3.24-12.651 6.3-24.603 12.29-35.94 9.49-17.948 27.44-25.644 48.02-20.587 12.73 3.131 25.37 8.408 39.77 16.603 16.24 9.248 30.78 21.252 44.84 32.861 3.63 3.001 7.4 6.112 11.14 9.126 6.44 5.194 12.93 10.555 19.19 15.742 12.25 10.129 24.91 20.6 37.86 30.32l1.85 1.391c22.55 16.919 45.64 34.272 67.17 53.248v-4.444c-20.96-18.271-43.28-35.028-65.08-51.398l-1.85-1.39c-12.88-9.676-25.51-20.121-37.73-30.223-6.28-5.194-12.77-10.568-19.23-15.775-3.72-3.001-7.47-6.105-11.1-9.1-14.17-11.699-28.83-23.8-45.33-33.191-14.69-8.363-27.61-13.75-40.65-16.958-21.9-5.388-41.78 3.149-51.89 22.274-6.18 11.674-9.42 24.37-12.57 36.646l-.97 3.802c-.71 2.717-1.4 5.433-2.1 8.15-7.14 27.733-14.51 56.404-25.88 83.438-6.43 15.289-14.5 32.726-28.95 46.185-10.16 9.462-22.25 14.171-36.96 14.384-18.74.272-37.23-3.454-55.13-7.056l-2.08-.421c-11.55-2.321-23.487-4.721-35.231-8.039-32.459-9.184-58.017-26.97-75.956-52.872-10.588-15.296-20.512-31.42-30.113-47.007-2.002-3.253-3.998-6.5-6.007-9.746-3.265-5.271-6.383-10.769-9.399-16.085-3.884-6.85-7.901-13.931-12.296-20.658-14.794-22.662-35.972-36.768-64.742-43.113-45.539-10.044-86.806-30.41-122.65-60.53-17.314-14.552-33.379-32.681-50.545-57.057a2778.543 2778.543 0 01-10.623-15.231c-11.65-16.784-23.704-34.136-36.805-50.299-25.592-31.549-58.064-50.609-96.515-56.636-21.258-3.338-42.167-4.502-62.148-3.473-17.126.886-35.301 2.929-52.165 11.842-14.68 7.761-25.968 18.529-34.507 32.926-10.004 16.861-15.83 34.576-17.825 54.14-3.386 33.296 6.114 63.441 29.045 92.157 11.973 14.992 26.284 28.186 40.131 40.946 3.89 3.583 7.915 7.296 11.818 10.982 32.418 30.605 53.099 57.038 67.06 85.702 6.497 13.33 13.398 28.988 13.068 46.089-.302 16.091-5.536 30.158-15.547 41.819-4.965 5.788-10.065 11.642-14.996 17.301-11.603 13.323-23.596 27.093-34.85 41.069-13.25 16.447-24.833 36.303-36.456 62.483-14.197 31.983-31.377 61.617-51.056 88.095-11.24 15.115-22.333 30.702-33.063 45.778-5.556 7.806-11.301 15.878-16.992 23.781-13.068 18.142-25.289 32.164-42.489 41.613a88.068 88.068 0 01-8.949 4.281h7.854l.006.007z" fill="#222" fill-opacity=".02"/><path d="M817.9 102.954c-4.36-9.766-8.868-19.868-13.578-29.686-11.315-23.574-20.822-48.513-29.059-76.24-9.265-31.193-13.135-60.039-11.818-88.173.141-3.059.181-6.137.181-9.209h-1.135c0 3.059-.041 6.124-.182 9.158-1.323 28.25 2.56 57.212 11.859 88.522 8.251 27.778 17.778 52.769 29.112 76.395 4.703 9.805 9.212 19.894 13.565 29.66 2.607 5.847 5.308 11.894 8.023 17.812 8.815 19.234 5.509 38.857.618 57.193-3.649 13.698-7.451 27.603-11.127 41.05-7.645 27.972-15.553 56.895-22.527 85.527-2.863 11.745-4.321 23.995-5.732 35.843-.873 7.348-1.78 14.941-3.01 22.333-.443 2.678-.88 5.355-1.316 8.033-2.587 15.897-5.261 32.331-10.018 48.235-6.457 21.595-28.326 33.321-53.159 28.516-32.129-6.216-59.615-22.359-86.51-50.79-13.855-14.649-25.713-31.122-37.175-47.046-7.519-10.445-15.299-21.252-23.576-31.452-13.136-16.188-31.424-36.522-56.492-50.24-19.524-10.684-41.844-17.249-68.215-20.069-13.975-1.494-28.226-2.567-42.012-3.602l-8.298-.628c-7.633-.588-15.52-1.19-23.294-1.105-32.048.355-54.751 13.743-69.405 40.92-9.507 17.644-15.681 35.766-18.335 53.856-6.457 43.94 4.448 83.05 32.418 116.235 11.583 13.744 24.886 26.181 37.752 38.204 3.367 3.143 6.733 6.293 10.072 9.462 23.825 22.624 53.011 53.83 67.335 94.647 9.816 27.979 5.382 54.354-13.182 78.407-5.53 7.166-11.442 14.248-17.16 21.097-7.699 9.229-15.668 18.769-22.803 28.632-16.918 23.387-31.209 44.853-43.692 65.627-10.979 18.271-24.329 36.878-41.999 58.557-16.333 20.037-29.784 42.227-42.785 63.687-3.212 5.297-6.524 10.768-9.836 16.13-10.945 17.721-23.872 35.798-44.176 48.028-13.868 8.356-29.65 12.825-46.897 13.297-21.977.596-43.148-2.296-60.966-5.206-13.102-2.141-26.492-3.952-39.432-5.704-14.828-2.005-30.167-4.081-45.144-6.662-35.387-6.092-63.304-14.397-87.86-26.129-12.988-6.209-25.377-12.78-34.118-24.861-11.046-15.258-11.409-31.071-1.143-49.762 12.443-22.669 33.6-36.102 54.61-47.246 28.071-14.888 59.347-22.429 89.595-29.725 2.452-.588 4.905-1.183 7.357-1.778 19.639-4.767 40.44-10.193 59.783-19.403 22.938-10.918 37.699-25.049 45.144-43.197 3.823-9.314 6.456-19.759 7.625-30.198 1.485-13.258 1.694-26.452 1.552-42.194-.161-17.792-3.184-36.348-9.513-58.396-6.014-20.929-16.394-40.312-26.432-59.062l-2.392-4.476c-10.965-20.541-19.444-42.408-27.634-63.557l-2.627-6.771c-8.19-21.046-17.778-43.01-36.819-59.877-11.146-9.876-24.644-17.508-41.26-23.329-10.017-3.512-20.317-6.758-30.281-9.895-7.129-2.244-14.499-4.573-21.708-6.972-26.788-8.925-50.545-22.818-70.614-41.296-5.382-4.954-11.039-9.798-16.515-14.481-3.689-3.156-7.498-6.416-11.187-9.682-3.601-3.188-7.511-5.866-11.596-8.214v1.275c3.816 2.237 7.464 4.766 10.83 7.748 3.696 3.272 7.512 6.532 11.2 9.688 5.463 4.676 11.113 9.514 16.482 14.455 20.183 18.582 44.081 32.558 71.023 41.535 7.216 2.406 14.594 4.728 21.729 6.979 9.957 3.136 20.244 6.383 30.248 9.889 16.474 5.775 29.844 13.329 40.877 23.108 18.86 16.706 28.38 38.534 36.523 59.457l2.627 6.771c8.21 21.175 16.696 43.075 27.688 63.674l2.398 4.482c10.011 18.698 20.365 38.029 26.345 58.849 6.302 21.951 9.312 40.416 9.473 58.111.141 15.703-.067 28.865-1.545 42.072-1.163 10.348-3.77 20.689-7.552 29.912-7.33 17.883-21.917 31.827-44.593 42.622-19.249 9.164-39.976 14.571-59.561 19.325-2.453.595-4.905 1.19-7.357 1.778-30.315 7.309-61.665 14.869-89.87 29.822-21.164 11.228-42.483 24.771-55.06 47.692-10.488 19.099-10.099 35.275 1.216 50.907 8.895 12.295 21.419 18.943 34.547 25.217 24.652 11.784 52.669 20.114 88.164 26.226 14.996 2.581 30.342 4.657 45.184 6.668 12.933 1.753 26.31 3.564 39.398 5.698 16.273 2.658 35.341 5.297 55.289 5.297 1.955 0 3.93-.026 5.899-.078 17.455-.472 33.426-4.999 47.468-13.459 20.505-12.353 33.526-30.559 44.545-48.397 3.313-5.361 6.632-10.839 9.843-16.136 12.987-21.427 26.412-43.585 42.698-63.557 17.71-21.725 31.081-40.371 42.093-58.687 12.463-20.742 26.74-42.188 43.638-65.549 7.115-9.837 15.063-19.364 22.756-28.574 5.725-6.862 11.644-13.951 17.187-21.13 18.799-24.357 23.294-51.074 13.35-79.415-14.398-41.037-43.699-72.366-67.611-95.074a1721.85 1721.85 0 00-10.078-9.468c-12.839-12.004-26.122-24.416-37.658-38.107-27.762-32.94-38.586-71.765-32.17-115.395 2.641-17.974 8.775-35.973 18.222-53.507 14.438-26.788 36.818-39.982 68.41-40.332 7.72-.077 15.581.518 23.186 1.106l8.298.628c13.773 1.035 28.017 2.108 41.972 3.602 26.223 2.801 48.395 9.32 67.785 19.933 24.893 13.621 43.088 33.858 56.156 49.963 8.257 10.173 16.024 20.961 23.535 31.4 11.483 15.955 23.362 32.454 37.269 47.155 27.064 28.619 54.752 44.866 87.122 51.126 25.444 4.929 47.845-7.121 54.476-29.285 4.777-15.962 7.451-32.435 10.045-48.365.436-2.677.873-5.348 1.316-8.026 1.237-7.418 2.137-15.024 3.017-22.384 1.404-11.817 2.862-24.034 5.711-35.714 6.974-28.619 14.882-57.536 22.521-85.502 3.676-13.446 7.478-27.358 11.127-41.056 4.938-18.53 8.27-38.372-.686-57.911-2.714-5.918-5.408-11.959-8.015-17.805l.013-.007z" fill="#222" fill-opacity=".02"/><path d="M794.573 149.683c-3.669-17.288-7.74-34.79-11.671-51.722-2.284-9.817-4.642-19.972-6.9-29.97-5.966-26.453-11.778-52.343-17.307-78.304-3.219-15.127-6.625-32.771-6.269-50.731.255-12.683.598-25.573.927-38.043.014-.42.02-.847.034-1.267h-1.136c-.013.413-.02.827-.033 1.241-.329 12.47-.672 25.366-.927 38.05-.363 18.07 3.057 35.784 6.288 50.97 5.53 25.961 11.342 51.857 17.308 78.316 2.257 10 4.616 20.153 6.9 29.978 3.93 16.925 8.002 34.427 11.664 51.695l.39 1.83c2.351 11.021 4.776 22.424 4.192 33.451-.981 18.452-3.406 38.346-7.424 60.821-4.898 27.436-10.73 55.343-17.328 82.947-.813 3.415-1.592 6.843-2.372 10.27-3.977 17.495-8.096 35.592-17.341 51.955-11.032 19.525-26.351 28.742-46.809 28.147-12.336-.35-25.081-4.295-37.887-11.713-27.379-15.878-47.233-39.588-63.049-60.692-12.302-16.415-26.237-35.022-41.025-52.168-25.027-29.026-57.297-47.815-95.91-55.841-6.101-1.268-12.329-2.464-18.349-3.622-13.142-2.529-26.74-5.142-39.822-8.653-22.393-6.009-44.102-13.485-62.397-20.005-12.517-4.462-24.637-2.289-34.118 6.132-12.927 11.473-19.403 26.523-25.665 41.075-.605 1.41-1.216 2.82-1.828 4.23-7.632 17.534-11.039 35.831-14.405 56.21-2.58 15.613-3.292 32.461-2.237 53.008.853 16.596 4.999 33.535 12.335 50.357 9.447 21.653 23.919 41.774 43.027 59.806 16.77 15.826 30.436 29.013 42.994 41.489 21.419 21.285 36.106 42.893 44.888 66.067 11.18 29.492 8.949 54.696-6.82 77.048-8.351 11.842-17.186 23.665-25.733 35.1-3.433 4.592-6.86 9.184-10.273 13.789-4.266 5.762-8.559 11.648-12.712 17.339-10.01 13.725-20.364 27.915-31.121 41.438-15.802 19.862-32.31 38.767-47.79 56.229-16.031 18.084-27.5 38.748-37.511 58.383-11.644 22.844-22.602 43.178-38.828 60.699-15.95 17.229-35.159 26.873-57.089 28.645l-2.546.207c-8.486.698-17.261 1.423-25.814 1.002-11.321-.549-22.803-1.979-33.903-3.356l-4.212-.524a2316.338 2316.338 0 01-49.94-6.681c-27.823-4.043-52.75-10.581-76.198-19.992-14.177-5.685-26.17-13.084-36.65-22.604-8.352-7.586-13.11-17.676-13.754-29.169-.363-6.519 2.27-14.875 7.236-22.934 14.68-23.82 39.325-36.425 59.152-44.749 19.975-8.382 41.32-13.718 61.96-18.879 6.732-1.682 13.693-3.421 20.506-5.245 24.86-6.642 48.939-13.744 70.244-27.475 20.304-13.09 32.035-31.367 35.858-55.88 2.5-16.02 3.252-32.861 2.365-53.001-1.068-24.215-3.11-52.239-13.941-78.407-7.572-18.297-16.212-36.096-25.686-52.905-14.069-24.965-24.147-51.961-33.89-78.064l-.59-1.591c-6.8-18.219-16.079-39.025-33.325-55.175-10.347-9.688-23.234-17.327-40.541-24.027-8.742-3.383-17.731-6.565-26.419-9.643-9.547-3.376-19.424-6.875-28.984-10.646-21.843-8.615-37.672-18.316-49.82-30.527-3.44-3.46-6.86-6.933-10.286-10.406-10.381-10.536-21.111-21.434-32.149-31.672-7.68-7.121-16.159-12.961-25.357-17.508v1.229c8.896 4.456 17.113 10.148 24.57 17.062 11.019 10.225 21.742 21.11 32.116 31.639 3.427 3.48 6.846 6.953 10.286 10.413 12.256 12.327 28.213 22.113 50.21 30.786 9.58 3.777 19.47 7.276 29.025 10.658 8.687 3.072 17.663 6.254 26.391 9.63 17.173 6.649 29.939 14.216 40.178 23.801 17.039 15.949 25.955 35.747 33.05 54.761l.59 1.591c9.757 26.149 19.848 53.183 33.957 78.219 9.454 16.771 18.081 34.531 25.632 52.789 10.757 26.006 12.8 53.92 13.861 78.044.887 20.063.135 36.84-2.351 52.789-3.776 24.195-15.346 42.227-35.368 55.136-21.164 13.647-45.15 20.716-69.915 27.332-6.806 1.817-13.76 3.557-20.486 5.239-20.68 5.174-42.066 10.523-62.128 18.937-19.981 8.388-44.827 21.104-59.676 45.189-5.08 8.24-7.773 16.822-7.397 23.555.658 11.784 5.543 22.126 14.11 29.906 10.581 9.611 22.682 17.075 36.993 22.818 23.529 9.442 48.543 16 76.459 20.062a2356.773 2356.773 0 0049.967 6.688l4.213.524c11.12 1.384 22.622 2.807 33.99 3.363 1.767.084 3.548.123 5.328.123 6.9 0 13.861-.576 20.633-1.132l2.54-.207c22.226-1.798 41.69-11.558 57.842-29.007 16.32-17.631 27.318-38.03 39.002-60.944 9.978-19.571 21.406-40.158 37.356-58.151 15.494-17.475 32.009-36.393 47.831-56.274 10.77-13.543 21.131-27.74 31.148-41.47 4.153-5.692 8.446-11.577 12.705-17.333 3.414-4.605 6.84-9.197 10.273-13.789 8.547-11.441 17.382-23.271 25.747-35.119 15.99-22.663 18.261-48.19 6.947-78.038-8.842-23.316-23.603-45.054-45.137-66.455-12.564-12.489-26.236-25.676-43.013-41.509-18.994-17.928-33.386-37.926-42.772-59.45-7.283-16.706-11.408-33.521-12.248-49.988-1.048-20.476-.343-37.247 2.224-52.782 3.353-20.308 6.746-38.534 14.331-55.958.611-1.41 1.223-2.819 1.828-4.229 6.214-14.443 12.638-29.376 25.383-40.688 9.158-8.123 20.862-10.225 32.962-5.911 18.309 6.525 40.051 14.015 62.485 20.03 13.128 3.525 26.74 6.137 39.909 8.673 6.02 1.157 12.242 2.354 18.335 3.622 38.364 7.974 70.42 26.64 95.279 55.472 14.761 17.12 28.689 35.708 40.978 52.11 15.876 21.194 35.824 45.014 63.378 60.989 12.974 7.522 25.9 11.512 38.438 11.868 20.646.576 36.744-9.074 47.844-28.723 9.325-16.498 13.457-34.672 17.448-52.245.78-3.421 1.559-6.849 2.372-10.257a1470.475 1470.475 0 0017.341-83.005c4.018-22.521 6.457-42.46 7.438-60.951.591-11.17-1.848-22.637-4.213-33.729l-.389-1.83-.007-.006z" fill="#222" fill-opacity=".02"/><path d="M406.451 611.482c-.619-15.458-5.476-30.986-15.279-48.882-11.24-20.522-27.197-37.441-39.835-49.891-12.497-12.302-25.377-24.635-37.84-36.562l-3.091-2.955c-33.715-32.287-51.613-74.41-54.724-128.783-1.599-27.94-.82-50.796 2.445-71.939.739-4.773 1.304-9.637 1.855-14.345.84-7.153 1.7-14.552 3.171-21.68 2.278-11.053 4.871-22.254 7.377-33.081 3.071-13.278 6.249-27.015 8.882-40.623 2.056-10.613 2.527-21.628 1.364-31.86-2.049-18.038-10.246-35.028-24.362-50.492-12.356-13.537-27.271-24.24-44.323-31.808-24.94-11.066-52.064-14.571-78.294-17.967l-2.654-.342a1544.58 1544.58 0 00-5.422-.692c-13.31-1.695-27.07-3.448-40.09-6.804-16.804-4.327-33.642-9.728-49.921-14.953-5.086-1.63-10.179-3.267-15.272-4.87C.101-3.45-21.205-6.445-41.804-9.35c-4.092-.575-8.19-1.151-12.276-1.753-4.44-.653-8.976-1.17-13.356-1.675-7.236-.828-14.714-1.681-21.883-3.169-24.826-5.148-50.062-11.085-71.945-16.298v3.382c21.715 5.174 46.669 11.034 71.233 16.124 7.33 1.52 14.888 2.387 22.198 3.221 4.354.498 8.856 1.015 13.243 1.656 4.098.601 8.197 1.183 12.295 1.759C-21.836-3.218-.679-.242 19.383 6.07a3201.37 3201.37 0 0115.252 4.864c16.327 5.238 33.21 10.652 50.115 15.004 13.236 3.409 27.11 5.18 40.528 6.888 1.807.233 3.614.46 5.415.692l2.654.343c25.981 3.363 52.843 6.836 77.319 17.695 16.616 7.373 31.148 17.8 43.188 30.993 13.646 14.953 21.567 31.336 23.536 48.682 1.122 9.915.665 20.599-1.33 30.895-2.621 13.556-5.792 27.261-8.862 40.513-2.513 10.847-5.107 22.068-7.391 33.16-1.498 7.263-2.372 14.726-3.211 21.951-.545 4.676-1.116 9.514-1.841 14.228-3.299 21.363-4.092 44.433-2.48 72.599 3.151 55.22 21.379 98.042 55.726 130.93l3.09 2.956c12.45 11.92 25.323 24.24 37.807 36.529 12.476 12.288 28.218 28.975 39.257 49.128 9.554 17.443 14.284 32.525 14.882 47.472.551 13.776-2.721 26.84-9.466 37.79-10.455 16.958-21.373 32.9-32.465 47.388-13.767 17.98-32.123 41.515-52.03 64.081-11.335 12.844-24.873 25.935-41.381 40.015-22.77 19.415-34.655 44.717-44.875 68.97l-.329.783c-8.089 19.202-16.461 39.064-30.295 55.899-16.521 20.095-37.739 30.799-64.869 32.713-2.029.143-4.085.362-6.074.576-4.334.466-8.822.944-13.081.608-13.881-1.093-32.176-2.684-50.525-5.323-20.022-2.885-36.51-5.86-51.876-9.365-18.698-4.269-40.252-10.646-58.319-25.566-13.417-11.086-18.51-22.508-16.004-35.954 2.13-11.46 8.755-21.142 20.842-30.469 22.064-17.022 47.965-25.12 77.09-33.23l8.896-2.471c22.905-6.357 46.588-12.935 69.513-20.483 14.29-4.708 32.512-12.016 46.688-26.872 10.495-10.995 16.334-23.303 17.368-36.581 1.848-23.736 2.305-44.368 1.398-63.072-1.095-22.488-2.822-48.604-9.501-73.951-4.857-18.432-12.832-36.955-24.382-56.643-12.161-20.735-27.412-48.481-37.47-79.273-6.148-18.814-13.149-38.683-25.108-56.611-9.42-14.119-22.528-25.288-40.084-34.142-14.688-7.412-30.362-12.955-45.52-18.31-3.628-1.281-7.25-2.561-10.87-3.874-30.88-11.163-56.17-30.133-77.307-57.989-13.746-18.115-31.222-38.003-56.619-48.19-2.513-1.008-5.072-1.933-7.639-2.826v3.486c2.13.757 4.253 1.539 6.329 2.374 24.624 9.876 41.71 29.35 55.181 47.103 21.54 28.386 47.34 47.731 78.858 59.12 3.628 1.313 7.263 2.594 10.891 3.881 15.057 5.323 30.624 10.827 45.117 18.135 17.018 8.589 29.71 19.384 38.8 33.011 11.731 17.585 18.645 37.221 24.725 55.822 10.152 31.083 25.512 59.029 37.753 79.9 11.395 19.429 19.263 37.693 24.047 55.835 6.604 25.049 8.317 50.965 9.399 73.291.9 18.568.45 39.07-1.391 62.671-.974 12.521-6.517 24.163-16.481 34.601-13.652 14.313-31.37 21.408-45.284 25.987-22.85 7.528-46.494 14.093-69.358 20.438l-8.896 2.47c-29.481 8.208-55.718 16.421-78.273 33.826-12.772 9.85-19.78 20.166-22.064 32.454-2.735 14.707 2.714 27.106 17.146 39.026 18.725 15.464 41.764 22.164 59.743 26.264 15.46 3.532 32.035 6.526 52.158 9.417 18.45 2.658 36.812 4.256 50.746 5.349 1.096.084 2.197.123 3.299.123 3.501 0 7.015-.375 10.435-.744 1.955-.207 3.977-.427 5.946-.563 28.131-1.985 50.142-13.09 67.288-33.948 14.143-17.204 22.602-37.286 30.785-56.701l.329-.783c10.072-23.891 21.756-48.798 43.975-67.748 16.629-14.183 30.274-27.377 41.716-40.345 19.982-22.643 38.378-46.237 52.178-64.262 11.153-14.571 22.139-30.611 32.653-47.66 7.082-11.492 10.522-25.184 9.944-39.594l.014.026z" fill="#222" fill-opacity=".02"/><path d="M385.952 587.331c-6.746-22.662-20.392-43.953-41.724-65.102-9.03-8.952-18.55-17.728-27.761-26.214-5.449-5.018-11.08-10.212-16.549-15.386-28.655-27.093-47.206-61.591-56.713-105.454-.846-3.9-1.74-7.793-2.633-11.693-2.681-11.694-5.456-23.782-6.807-35.799-2.365-21.006-3.258-40.015-2.734-58.111.544-18.788 3.245-37.434 6.087-54.787 1.485-9.08 3.521-18.251 5.489-27.118 2.842-12.806 5.778-26.045 7.115-39.233 3.4-33.528-10.729-60.737-40.856-78.685-13.256-7.896-28.709-12.702-50.109-15.58a2740.444 2740.444 0 00-18.046-2.348c-16.401-2.102-33.366-4.268-49.88-7.205-14.056-2.496-27.319-8.233-40.152-13.782-4.098-1.772-8.33-3.602-12.537-5.303-26.532-10.737-50.84-17.605-74.309-21l-1.283-.188C-77.796-1.485-119.513-7.52-159.617-18.061c-.538-.142-1.089-.278-1.626-.42v1.131c.443.117.887.227 1.33.343C-119.742-6.445-77.991-.41-37.618 5.423l1.283.187c23.381 3.376 47.596 10.226 74.04 20.923 4.186 1.694 8.42 3.525 12.51 5.29 12.894 5.575 26.224 11.338 40.407 13.86 16.549 2.943 33.527 5.116 49.941 7.218 6.013.77 12.033 1.54 18.04 2.348 21.238 2.852 36.556 7.612 49.672 15.425 29.73 17.721 43.671 44.568 40.319 77.65-1.331 13.129-4.26 26.336-7.095 39.11-1.969 8.886-4.005 18.07-5.496 27.177-2.842 17.391-5.55 36.076-6.101 54.929-.524 18.141.37 37.201 2.741 58.26 1.358 12.075 4.139 24.195 6.827 35.914.893 3.894 1.787 7.787 2.627 11.681 9.554 44.083 28.212 78.762 57.028 106.01 5.476 5.174 11.113 10.368 16.562 15.393 9.198 8.479 18.712 17.249 27.728 26.187 21.198 21.014 34.757 42.156 41.448 64.637 4.475 15.038 4.495 29.777.054 43.799-4.81 15.192-12.94 29.99-24.174 43.973-2.835 3.531-5.657 7.069-8.486 10.613-12.631 15.827-25.692 32.19-39.493 47.473-18.993 21.032-43.45 35.934-64.876 48.248-11.825 6.797-26.23 16.706-32.66 33.127-2.734 6.978-4.461 14.442-6.134 21.66a488.254 488.254 0 01-1.686 7.114c-.437 1.759-.867 3.518-1.297 5.278-4.858 19.816-9.876 40.312-21.581 58.111-10.991 16.719-23.213 27.132-38.471 32.784-16.669 6.177-34.548 8.589-54.657 7.38-23.637-1.417-43-4.042-60.94-8.259-19.322-4.541-39.606-10.038-56.638-22.708-9.843-7.321-15.373-15.399-16.434-24.008-.995-8.039 2.009-16.324 8.929-24.635 8.21-9.856 19.706-17.656 35.146-23.846 22.978-9.203 47.333-15.626 70.89-21.828 9.48-2.497 19.289-5.083 28.87-7.813 3.634-1.035 7.283-2.037 10.924-3.046 19.612-5.4 39.89-10.982 57.97-21.608 13.155-7.729 19.887-17.372 20.015-28.665.242-21.517-1.089-42.679-2.594-64.275-.826-11.893-2.284-23.943-3.695-35.597-.591-4.877-1.182-9.753-1.727-14.63-.342-3.066-.678-6.138-1.014-9.21-.961-8.841-1.955-17.98-3.185-26.937-3.554-25.948-13.478-51.541-31.215-80.541-15.688-25.638-27.077-49.445-34.817-72.774a1368.81 1368.81 0 01-2.553-7.799c-5.482-16.836-11.153-34.24-20.747-50.021-8.244-13.556-18.591-24.066-31.646-32.118C39.03 355.811 19.31 348.386.671 342.003c-34.043-11.655-59.326-29.57-77.298-54.781-10.549-14.798-22.092-30.339-36.994-43.494-12.806-11.306-28.279-19.856-47.629-26.233v1.158c19.027 6.319 34.259 14.759 46.863 25.883 14.815 13.078 26.31 28.561 36.819 43.307 18.114 25.411 43.578 43.462 77.857 55.195 18.577 6.357 38.223 13.756 56.041 24.751 12.9 7.962 23.126 18.349 31.276 31.749 9.527 15.671 15.177 33.017 20.64 49.794a923.764 923.764 0 002.56 7.8c7.766 23.407 19.188 47.285 34.924 72.994 17.663 28.864 27.533 54.327 31.067 80.127 1.223 8.944 2.224 18.076 3.185 26.911.336 3.072.672 6.144 1.014 9.21.551 4.883 1.136 9.76 1.727 14.636 1.411 11.642 2.862 23.672 3.689 35.54 1.505 21.576 2.828 42.718 2.586 64.19-.121 11.041-6.49 20.115-19.471 27.74-17.945 10.549-38.149 16.111-57.693 21.492a1276.577 1276.577 0 00-10.939 3.046c-9.574 2.729-19.37 5.31-28.85 7.806-23.59 6.216-47.985 12.645-71.03 21.874-15.622 6.26-27.265 14.164-35.596 24.169-7.116 8.55-10.2 17.113-9.171 25.45 1.101 8.912 6.779 17.236 16.87 24.745 17.2 12.8 37.619 18.329 57.063 22.902 18.006 4.236 37.43 6.869 61.133 8.285 3.367.2 6.672.304 9.917.304 16.314 0 31.189-2.555 45.218-7.755 15.493-5.736 27.889-16.292 39.022-33.217 11.805-17.954 16.851-38.534 21.728-58.442.431-1.759.861-3.518 1.297-5.277.585-2.367 1.136-4.747 1.693-7.134 1.667-7.179 3.387-14.604 6.088-21.517 6.308-16.105 20.512-25.864 32.182-32.571 21.507-12.36 46.051-27.319 65.152-48.468 13.821-15.309 26.895-31.685 39.54-47.524a4018.76 4018.76 0 018.486-10.607c11.314-14.093 19.511-29.001 24.355-44.323 4.508-14.235 4.488-29.175-.047-44.419l.007.032z" fill="#222" fill-opacity=".02"/><path d="M266.069 999.143a69.317 69.317 0 001.727-1.96c13.27-15.781 25.793-32.577 37.907-48.817l3.931-5.265c18.53-24.816 41.306-58.428 53.044-98.462 6.161-21.001 12.739-39.582 20.123-56.792 13.948-32.513 37.027-61.966 70.567-90.042 11.865-9.934 20.801-19.965 27.312-30.663 2.707-4.443 8.848-15.891 7.464-26.148-2.036-15.109-8.062-30.275-19.525-49.161-19.161-31.555-43.49-61.526-72.307-89.071-6.409-6.125-13.027-12.25-19.43-18.174-8.916-8.246-18.141-16.777-26.922-25.437-14.237-14.041-24.974-29.712-31.894-46.573-7.257-17.676-9.044-36.626-5.469-57.93 4.3-25.638 15.997-45.481 35.757-60.654 20.089-15.431 43.282-19.784 71.924-21.582 13.061-.821 26.62.796 39.385 2.516 30.678 4.139 56.955 16.867 78.099 37.829 15.272 15.141 29.119 33.192 43.585 56.811 28.339 46.282 56.175 81.595 87.592 111.139a460.256 460.256 0 0027.795 24.105c13.962 11.157 30.826 23.788 50.021 32.901 18.752 8.899 37.424 17.488 54.805 25.45 16.125 7.379 30.456 18.866 42.604 34.129 13.881 17.45 26.922 36.005 39.533 53.94l1.505 2.147c23.193 32.985 51.217 53.455 85.664 62.581 14.062 3.725 28.797 8.627 46.374 15.431 9.26 3.59 16.35 7.845 21.08 12.657 6.62 6.746 6.02 9.663.14 17.67-1.11 1.513-2.89 2.567-4.78 3.686-.87.518-1.77 1.048-2.59 1.63-8.31 5.853-18.19 6.371-27.75 6.869-1.3.064-2.59.135-3.879.213-24.322 1.52-48.388-3.454-71.669-8.265l-7.975-1.65c-25.202-5.213-51.257-10.6-77.017-15.224-21.581-3.875-43.632-7.263-64.95-10.543-6.329-.97-12.665-1.946-18.994-2.936-2.049-.317-4.092-.653-6.141-.989-14.573-2.38-29.636-4.845-44.686-1.578l-.41.09c-8.909 1.934-18.127 3.939-25.982 8.13-15.392 8.214-25.397 22.287-31.47 44.29-3.655 13.233-6.739 26.847-9.716 40.008-1.397 6.19-2.848 12.586-4.34 18.86-7.169 30.21-17.946 52.885-33.909 71.35l-3.709 4.301c-8.788 10.193-17.879 20.735-27.554 30.398-15.547 15.529-28.481 31.633-39.19 48.785h1.323c10.596-16.867 23.368-32.726 38.68-48.022 9.702-9.695 18.806-20.25 27.608-30.462l3.708-4.301c16.085-18.601 26.936-41.419 34.145-71.803 1.492-6.28 2.936-12.677 4.34-18.866 2.977-13.155 6.054-26.75 9.702-39.957 5.993-21.699 15.816-35.552 30.927-43.618 7.713-4.113 16.844-6.098 25.679-8.019l.41-.091c14.828-3.221 29.784-.776 44.249 1.591 2.049.336 4.099.673 6.148.99 6.329.989 12.658 1.959 18.994 2.936 21.312 3.279 43.349 6.668 64.923 10.536 25.746 4.618 51.795 10.005 76.99 15.218l7.975 1.649c23.355 4.825 47.502 9.812 71.978 8.285 1.282-.077 2.572-.149 3.872-.213 9.72-.511 19.77-1.035 28.35-7.082.79-.557 1.67-1.074 2.52-1.578 1.9-1.126 3.87-2.29 5.12-3.984 6.12-8.331 6.83-11.843-.25-19.054-4.83-4.928-12.06-9.275-21.48-12.922-17.61-6.824-32.389-11.739-46.492-15.477-34.178-9.055-61.993-29.382-85.025-62.141l-1.512-2.147c-12.618-17.954-25.672-36.516-39.573-53.991-12.255-15.406-26.728-27.003-43.021-34.453-17.381-7.955-36.046-16.544-54.791-25.444-19.088-9.061-35.885-21.647-49.793-32.758a458.395 458.395 0 01-27.728-24.047c-31.343-29.473-59.118-64.714-87.404-110.912-14.513-23.691-28.407-41.813-43.746-57.019-21.325-21.142-47.817-33.974-78.757-38.152-12.826-1.733-26.452-3.35-39.621-2.529-28.857 1.805-52.238 6.209-72.562 21.815-19.988 15.354-31.827 35.417-36.174 61.333-3.608 21.504-1.801 40.642 5.536 58.512 6.981 16.997 17.792 32.79 32.136 46.935 8.795 8.673 18.027 17.21 26.949 25.463 6.396 5.918 13.014 12.043 19.417 18.161 28.75 27.481 53.018 57.374 72.126 88.845 11.388 18.756 17.361 33.787 19.384 48.747.927 6.888-1.808 16.401-7.317 25.456-6.443 10.594-15.305 20.535-27.077 30.385-33.674 28.186-56.854 57.775-70.869 90.449-7.397 17.249-13.995 35.869-20.17 56.915-11.69 39.873-34.4 73.381-52.876 98.12l-3.931 5.264c-12.1 16.227-24.617 33.011-37.867 48.766a64.176 64.176 0 01-2.365 2.652h1.519l.013.019z" fill="#222" fill-opacity=".02"/><path d="M391.925 489.238c4.824 4.249 9.809 8.647 14.633 13.038 21.245 19.339 39.775 40.798 53.542 57.342 12.268 14.74 24.994 29.538 37.302 43.844 8.218 9.559 16.717 19.435 25.001 29.214 4.105 4.844 7.72 10.225 11.072 15.322 4.213 6.409 3.461 13.252-2.123 19.26-4.286 4.618-9.668 8.324-14.364 11.344-6.081 3.907-12.37 7.736-18.457 11.435-10.206 6.209-20.754 12.631-30.637 19.616-18.544 13.11-37.746 27.578-50.841 47.537-11.469 17.489-20.378 37.338-26.479 58.998-2.842 10.089-5.449 20.405-7.968 30.384-5.355 21.182-10.891 43.087-18.947 63.978-8.802 22.83-20.002 46.101-36.308 75.444-2.459 4.43-5.113 8.809-7.807 13.142h1.323c2.587-4.158 5.12-8.369 7.485-12.625 16.333-29.388 27.554-52.697 36.375-75.58 8.076-20.948 13.619-42.886 18.981-64.1 2.519-9.973 5.126-20.289 7.962-30.359 6.067-21.556 14.929-41.302 26.337-58.7 12.987-19.803 32.095-34.194 50.552-47.239 9.85-6.959 20.385-13.375 30.57-19.571 6.087-3.706 12.39-7.541 18.477-11.454 4.757-3.053 10.206-6.817 14.579-11.519 5.953-6.409 6.746-13.718 2.238-20.58-3.366-5.122-7.001-10.535-11.153-15.431-8.291-9.779-16.791-19.662-25.008-29.215-12.302-14.306-25.027-29.097-37.289-43.837-13.786-16.57-32.35-38.068-53.649-57.451-4.837-4.405-9.823-8.796-14.653-13.052-16.072-14.164-32.687-28.813-46.239-45.875-26.613-33.508-32.673-66.59-18.517-101.127 10.226-24.939 28.945-42.259 55.638-51.469 18.625-6.429 37.545-7.515 60.234-7.166 17.643.271 34.816 4.204 52.5 12.017 32.122 14.196 51.842 39.711 66.905 62.8 7.982 12.243 15.702 24.939 23.173 37.214 9.984 16.422 20.311 33.399 31.404 49.516 12.94 18.802 27.594 36.943 41.764 54.483a3244.17 3244.17 0 0112.832 15.956l2.036 2.555c7.351 9.248 14.943 18.814 23.811 26.814 19.156 17.288 43.336 26.543 64.467 33.315 16.83 5.394 36.227 12.534 52.514 24.622 30.288 22.481 52.89 53.681 69.095 95.39 2.621 6.746 2.896 12.121.833 16.422-2.062 4.301-6.497 7.58-13.538 10.024-5.926 2.057-13.081 3.182-21.251 3.344-11.758.226-23.59-.459-34.622-1.242-10.817-.769-20.324-1.862-29.072-3.343-9.413-1.598-18.947-3.422-28.165-5.194-8.278-1.584-16.831-3.227-25.276-4.695-7.001-1.216-14.15-2.277-21.063-3.312-8.567-1.274-17.429-2.593-26.076-4.217-16.011-2.994-32.935 4.683-39.358 17.87-2.896 5.944-5.066 12.457-6.276 18.84-1.928 10.161-3.493 20.554-5.012 30.605-.685 4.521-1.364 9.042-2.083 13.556l-1.961 12.424c-2.056 13.039-4.179 26.524-6.383 39.77-3.783 22.759-10.817 41.942-21.5 58.635-10.777 16.835-24.907 31.484-38.572 45.648-5.812 6.021-11.819 12.25-17.489 18.569-12.296 13.691-21.776 25.98-29.193 37.964h1.323c7.337-11.751 16.669-23.82 28.73-37.247 5.664-6.306 11.663-12.521 17.462-18.542 13.699-14.203 27.869-28.891 38.706-45.823 10.771-16.822 17.852-36.135 21.662-59.043 2.203-13.252 4.326-26.737 6.382-39.782l1.962-12.424c.719-4.521 1.398-9.042 2.083-13.563 1.519-10.044 3.084-20.424 5.006-30.565 1.195-6.293 3.332-12.716 6.187-18.569 6.215-12.748 22.602-20.166 38.116-17.262 8.667 1.623 17.543 2.943 26.123 4.223 6.906 1.029 14.042 2.089 21.029 3.305 8.439 1.468 16.985 3.105 25.263 4.696 9.224 1.772 18.765 3.602 28.192 5.193 8.788 1.488 18.335 2.587 29.186 3.357 11.066.783 22.931 1.475 34.729 1.248 8.298-.161 15.567-1.313 21.614-3.408 7.344-2.548 11.986-6.015 14.183-10.601 2.197-4.579 1.935-10.225-.799-17.262-16.286-41.903-39.009-73.265-69.465-95.875-16.414-12.185-35.925-19.371-52.843-24.79-21.01-6.733-45.049-15.93-64.05-33.076-8.795-7.942-16.367-17.469-23.684-26.679l-2.035-2.561a2986.596 2986.596 0 00-12.84-15.962c-14.163-17.527-28.803-35.649-41.717-54.418-11.072-16.091-21.392-33.056-31.369-49.464-7.472-12.282-15.198-24.991-23.194-37.241-15.15-23.225-34.998-48.895-67.389-63.214-17.831-7.884-35.159-11.848-52.957-12.12-22.803-.349-41.851.75-60.63 7.231-27.016 9.32-45.963 26.853-56.31 52.096-14.317 34.925-8.21 68.35 18.672 102.195 13.612 17.139 30.268 31.82 46.373 46.016l-.007.033z" fill="#222" fill-opacity=".02"/><path d="M367.946 572.534c-12.564-27.624-34.098-48.423-53.502-65.123-26.062-22.429-54.865-50.667-70.889-90.041-12.86-31.608-23.65-65.407-32.069-100.468-5.281-21.983-4.334-45.034-2.526-66.668 1.169-13.996 4.071-28.102 6.887-41.748 1.518-7.367 3.083-14.979 4.367-22.501.497-2.93 1.028-5.86 1.558-8.796 2.063-11.383 4.193-23.154 4.388-34.776.295-17.954-5.953-34.194-18.087-46.974-4.898-5.161-12.161-9.812-22.206-14.222-15.13-6.643-32.646-10.239-53.535-10.989-31.907-1.145-59.514-8.757-84.4-23.264C22.48 32.127-1.176 22.504-24.397 17.543c-10.992-2.348-22.3-4.113-33.23-5.827-6.162-.964-12.538-1.96-18.78-3.053-3.251-.57-6.497-1.132-9.748-1.688-15.024-2.6-30.557-5.284-45.715-8.42-9.823-2.038-19.706-4.405-29.374-6.766v1.125c9.594 2.342 19.39 4.683 29.139 6.7 15.178 3.144 30.718 5.835 45.755 8.428l9.75 1.688c6.255 1.093 12.63 2.09 18.799 3.053 10.918 1.707 22.212 3.473 33.17 5.814 23.092 4.928 46.635 14.507 71.985 29.285 25.054 14.61 52.843 22.268 84.945 23.426 20.741.744 38.115 4.307 53.112 10.891 9.896 4.347 17.045 8.913 21.836 13.964 11.932 12.573 18.08 28.554 17.784 46.217-.195 11.539-2.318 23.264-4.367 34.609-.531 2.936-1.062 5.872-1.566 8.808-1.276 7.503-2.842 15.109-4.36 22.469-2.815 13.672-5.731 27.81-6.907 41.871-1.814 21.718-2.761 44.872 2.553 67.004 8.426 35.113 19.236 68.964 32.116 100.623 16.111 39.588 45.029 67.942 71.192 90.456 19.316 16.621 40.742 37.311 53.219 64.747 6.235 13.705 8.902 25.87 8.157 37.182-1.089 16.531-6.894 32.616-17.268 47.796-13.095 19.176-31.06 43.805-53.924 64.165-20.009 17.818-37.646 27.532-57.19 31.497-10.616 2.153-22.629-2.005-28.575-9.889-7.525-9.986-11.268-21.609-13.686-30.624-4.845-18.051-8.096-36.833-9.944-57.426-1.559-17.372-3.823-35.332-6.927-54.91-3.407-21.472-8.694-38.107-16.649-52.362-5.684-10.18-11.664-20.431-17.442-30.339-4.058-6.953-8.251-14.138-12.309-21.24-11.099-19.448-17.569-40.914-23.831-61.681-1.902-6.306-3.87-12.832-5.933-19.202-8.64-26.627-21.728-44.795-41.206-57.167-17.28-10.982-36.698-18.181-55.477-25.146a1672.72 1672.72 0 01-9.843-3.674c-26.969-10.193-47.306-24.803-62.175-44.665-3.017-4.029-6.013-8.182-8.909-12.192-6.242-8.64-12.698-17.578-19.72-25.844-13.82-16.266-27.466-27.261-42.946-34.582-10.172-4.819-20.902-9.113-32.351-12.994v1.165c11.268 3.828 21.83 8.065 31.854 12.812 15.332 7.256 28.857 18.154 42.57 34.297 6.994 8.234 13.438 17.153 19.666 25.78 2.902 4.017 5.906 8.175 8.922 12.211 14.997 20.037 35.502 34.77 62.68 45.047 3.278 1.242 6.564 2.458 9.85 3.673 18.724 6.94 38.081 14.119 55.26 25.037 19.243 12.223 32.19 30.203 40.75 56.578 2.063 6.358 4.025 12.877 5.926 19.176 6.275 20.82 12.766 42.35 23.926 61.902 4.058 7.108 8.257 14.3 12.315 21.252 5.778 9.902 11.758 20.147 17.435 30.32 7.888 14.138 13.142 30.67 16.528 52.006 3.098 19.552 5.362 37.493 6.914 54.839 1.848 20.657 5.113 39.498 9.971 57.607 2.445 9.106 6.228 20.858 13.867 30.992 5.1 6.766 14.479 10.905 23.791 10.905a29.48 29.48 0 005.939-.589c19.754-4.01 37.558-13.802 57.728-31.769 22.951-20.444 40.971-45.137 54.106-64.365 10.481-15.348 16.347-31.607 17.449-48.332.752-11.493-1.942-23.82-8.251-37.687l-.013.007zM1451.25 242.862c-22.58 15.761-48.44 27.978-76.96 36.322a541.4 541.4 0 01-56.69 13.297c-15.13 2.697-30.77 4.281-45.9 5.808-3.37.343-6.75.685-10.13 1.035-18.23 1.908-33.19 3.169-47.09 3.958-6.03.343-12.22.259-18.2.181-4.47-.058-9.09-.123-13.65-.007-9.26.233-17.73-3.059-26.62-10.354-9.97-8.182-16.93-18.976-23.67-29.415l-1.55-2.406c-16.4-25.314-39.99-45.415-76.46-65.18-19.62-10.626-41.98-17.282-66.432-19.772-10.636-1.086-18.611 1.048-23.059 6.171-4.327 4.98-5.072 12.346-2.224 21.899 3.669 12.282 8.211 25.456 13.888 40.267 6.497 16.952 14.956 36.71 28.407 54.742 11.23 15.056 25.38 25.32 43.26 31.387 12.29 4.172 25.11 5.691 37.51 7.166 5.55.66 11.3 1.345 16.91 2.257 13.23 2.154 21.23 7.199 25.95 16.35 7.65 14.818 5.24 30.075 2.29 41.71-5.08 20.043-18.97 32.959-40.16 37.344-18.84 3.9-38.39 5.555-55.22 6.797-10.31.763-20.85 1.067-31.04 1.365-11.668.336-23.728.692-35.553 1.727-18.685 1.636-38.707 4.475-61.201 8.686l-.746.142c-17.905 3.35-36.422 6.823-55.053 5.646a47.282 47.282 0 00-1.68-.058c-1.491-.032-2.896-.058-3.89-.524-11.106-5.193-19.565-12.799-25.861-23.251-12.785-21.22-15.54-44.749-16.555-64.96-.866-17.353.041-36.148 2.708-55.868 3.292-24.389 9.292-46.747 17.825-66.454 6.524-15.076 14.19-29.622 22.777-43.242 11.603-18.407 29.623-30.417 47.078-41.141 17.24-10.587 15.023-19.053 9.682-30.766l-.148-.323c-.806-1.766-1.633-3.59-2.782-5.265-9.372-13.66-22.037-24.506-34.279-34.996l-5.98-5.129c-12.389-10.62-25.202-21.595-35.864-33.884-15.984-18.42-28.468-41.586-38.149-70.82-8.043-24.273-12.087-49.516-12.369-77.158-.021-2.154-.027-4.327-.034-6.494h-3.4c0 2.18.007 4.36.034 6.526.289 27.972 4.387 53.532 12.53 78.122 9.816 29.648 22.501 53.177 38.781 71.926 10.824 12.47 23.731 23.53 36.207 34.227l5.98 5.129c12.08 10.348 24.57 21.052 33.701 34.355.988 1.436 1.754 3.131 2.506 4.774l.148.329c4.898 10.737 6.927 17.269-8.392 26.679-17.018 10.452-36.173 23.193-48.16 42.201-8.674 13.763-16.414 28.458-23.005 43.682-8.647 19.979-14.727 42.622-18.06 67.296-2.687 19.913-3.608 38.902-2.727 56.449 1.028 20.612 3.856 44.62 17.011 66.448 6.645 11.034 15.581 19.066 27.319 24.557 1.666.776 3.601.815 5.308.854.517.013 1.028.019 1.525.052 2.607.161 5.214.239 7.807.239 16.374 0 32.472-3.014 48.113-5.937l.746-.143c22.38-4.184 42.294-7.01 60.865-8.64 11.724-1.029 23.731-1.378 35.337-1.714 10.24-.298 20.82-.602 31.21-1.371 16.94-1.255 36.62-2.924 55.67-6.862 22.23-4.599 37.41-18.724 42.75-39.77 3.09-12.178 5.59-28.179-2.55-43.953-6.82-13.201-19.5-16.667-28.44-18.123-5.68-.924-11.46-1.61-17.06-2.276-12.22-1.449-24.85-2.949-36.8-7.005-17.2-5.833-30.81-15.716-41.62-30.203-13.208-17.721-21.552-37.221-27.976-53.966-5.65-14.739-10.172-27.836-13.813-40.041-2.52-8.44-1.996-14.798 1.558-18.885 3.689-4.243 10.636-5.976 20.096-5.012 23.995 2.444 45.905 8.964 65.115 19.37 35.96 19.474 59.16 39.232 75.25 64.055l1.55 2.4c6.87 10.652 13.98 21.666 24.35 30.177 9.57 7.852 18.74 11.39 28.92 11.131 4.49-.11 9.08-.052 13.51.013 6.05.078 12.3.168 18.45-.181 13.96-.796 28.97-2.057 47.26-3.971 3.38-.356 6.75-.692 10.12-1.035 15.19-1.533 30.9-3.124 46.17-5.847a544.846 544.846 0 0057.06-13.381c28.05-8.208 53.57-20.114 75.97-35.43v-4.029l-.01-.006z" fill="#222" fill-opacity=".02"/><path d="M356.745 581.543c-7.961-23.445-24.2-41.173-37.463-53.991-11.711-11.325-24.221-22.223-36.322-32.765-5.355-4.67-10.898-9.495-16.293-14.287-10.589-9.417-19.511-21.524-27.278-37.027-5.462-10.904-10.757-22.126-15.87-32.978-3.897-8.266-7.928-16.81-12.013-25.172-3.01-6.17-6.228-12.366-9.339-18.355-5.261-10.141-10.703-20.632-15.292-31.232-5.213-12.036-8.096-22.572-8.815-32.196-2.163-28.897.598-59.398 8.439-93.237l.215-.944c4.072-17.553 8.278-35.707 7.666-54.308-.974-29.686-15.063-46.761-43.06-52.194-14.09-2.736-29.368-4.456-48.08-5.413-17.959-.919-32.84-8.447-49.671-19.468-7.532-4.928-14.91-10.386-22.045-15.658C24.463 57.1 17.16 51.705 9.682 46.783c-22.42-14.733-47.952-20.586-69.97-24.37-8.8-1.513-17.797-2.703-26.498-3.86-9.749-1.294-19.827-2.633-29.63-4.418-15.003-2.73-30.113-6.08-44.841-9.378v3.37c14.52 3.253 29.402 6.538 44.21 9.235 9.883 1.798 20.008 3.143 29.797 4.443 8.668 1.152 17.63 2.342 26.365 3.842 21.66 3.719 46.762 9.462 68.652 23.853 7.404 4.87 14.667 10.231 21.695 15.425 7.175 5.303 14.593 10.781 22.205 15.768 17.294 11.325 32.653 19.066 51.399 20.03 18.537.951 33.661 2.652 47.589 5.355 26.579 5.155 39.398 20.748 40.325 49.083.598 18.187-3.56 36.128-7.585 53.487l-.215.944c-7.915 34.155-10.703 64.96-8.513 94.187.746 9.986 3.716 20.852 9.071 33.224 4.629 10.698 10.098 21.24 15.392 31.433 3.098 5.976 6.302 12.153 9.299 18.284 4.072 8.337 8.096 16.874 11.993 25.126 5.126 10.866 10.427 22.107 15.903 33.043 7.955 15.878 17.126 28.316 28.038 38.01 5.408 4.806 10.951 9.637 16.313 14.313 12.067 10.51 24.55 21.382 36.194 32.649 12.994 12.566 28.897 29.912 36.637 52.698 6 17.669 4.743 35.474-3.749 52.93-17.287 35.566-40.165 61.158-69.936 78.239-9.258 5.316-20.371 10.322-32.579 7.198-10.871-2.781-19.128-10.335-25.242-23.096-8.278-17.281-11.362-36.011-13.807-53.713-1.102-7.962-1.969-16.098-2.802-23.969-1.841-17.307-3.749-35.209-8.277-52.523-4.804-18.362-13.559-36.878-26.775-56.598-17.361-25.909-28.823-51.812-35.024-79.196-.679-2.994-1.344-5.995-2.003-9.003-2.667-12.094-5.428-24.602-9.305-36.593-6.611-20.431-19.928-35.514-40.716-46.114-17.764-9.061-36.765-15.535-55.14-21.796l-5.658-1.934c-30.933-10.594-54.684-30.339-72.602-60.355-20.11-33.69-49.578-57.568-87.579-70.969-7.801-2.749-15.749-5.388-23.556-7.949v3.467c7.437 2.445 14.983 4.954 22.387 7.567 37.228 13.129 66.099 36.522 85.798 69.526 18.342 30.728 42.684 50.946 74.417 61.811l5.664 1.934c18.255 6.222 37.134 12.657 54.684 21.602 19.948 10.173 32.727 24.628 39.056 44.193 3.829 11.842 6.577 24.273 9.225 36.296.665 3.007 1.33 6.015 2.009 9.016 6.295 27.772 17.905 54.03 35.495 80.276 13.014 19.409 21.627 37.602 26.337 55.614 4.468 17.081 6.363 34.861 8.19 52.052.84 7.897 1.707 16.059 2.816 24.065 2.485 17.948 5.616 36.956 14.095 54.658 6.565 13.705 15.548 21.848 27.46 24.894a34.696 34.696 0 008.607 1.086c9.937 0 18.879-4.216 26.586-8.634 30.375-17.423 53.689-43.481 71.279-79.661 8.869-18.239 10.179-36.859 3.897-55.35l-.014.013zm411.793-421.978c-5.033-14.616-9.003-29.847-12.84-44.587l-1.794-6.875c-.987-3.764-1.149-7.826-1.31-11.758-.047-1.17-.094-2.341-.161-3.5-.329-5.658-.591-11.427-.84-16.996-.504-11.118-1.021-22.61-2.13-33.864-.914-9.262-2.425-18.614-3.883-27.662-.981-6.08-1.996-12.36-2.815-18.556-1.028-7.735-1.68-15.651-2.312-23.309-.168-2.037-.336-4.068-.51-6.105-.135-1.54-.283-3.085-.43-4.631-.491-5.051-.995-10.277-.867-15.387.309-12.644 1.122-25.495 1.908-37.926l.094-1.539c.155-2.4.349-4.812.564-7.218h-1.135c-.208 2.38-.41 4.773-.558 7.147l-.094 1.54c-.786 12.436-1.606 25.3-1.915 37.964-.127 5.174.383 10.426.874 15.516.148 1.54.296 3.078.43 4.618.175 2.03.343 4.068.511 6.099.631 7.67 1.283 15.606 2.317 23.36.827 6.21 1.841 12.502 2.822 18.588 1.458 9.03 2.963 18.368 3.877 27.598 1.102 11.227 1.626 22.707 2.123 33.812.249 5.575.511 11.344.84 17.016.067 1.152.114 2.316.161 3.48.161 3.991.329 8.11 1.344 11.984l1.794 6.869c3.843 14.753 7.821 30.01 12.866 44.665 6.847 19.882 10.542 37.81 11.288 54.807.477 10.762-.403 22.533-2.694 35.985-3.971 23.335-7.935 42.454-12.477 60.175-5.886 22.979-11.798 43.527-24.577 62.192-15.379 22.462-42.342 28.606-68.693 15.652-17.737-8.719-33.802-21.906-47.763-39.187-4.898-6.067-9.79-12.147-14.681-18.22-12.88-16-26.19-32.551-39.499-48.668-12.383-14.999-26.479-27.119-41.898-36.018-18.222-10.517-39.144-18.523-65.851-25.204-20.311-5.084-38.398-10.232-54.025-21.783-13.109-9.695-19.411-21.505-18.726-35.106.417-8.298 3.131-17.185 7.445-24.377 14.721-24.551 37.437-43.844 67.53-57.341 23.018-10.33 47.468-14.882 74.739-19.37 13.492-2.22 25.854-6.908 36.738-13.932 6.047-3.9 11.946-10.193 17.53-18.698 9.856-15.018 8.324-31.833 5.912-47.77-2.163-14.312-8.23-26.898-14.781-39.6-7.256-14.061-14.909-28.225-22.306-41.923-.336-.621-.666-1.242-1.001-1.857h-1.277c.423.79.847 1.578 1.277 2.361 7.397 13.692 15.043 27.856 22.299 41.91 6.511 12.618 12.537 25.12 14.674 39.271 2.378 15.736 3.897 32.332-5.751 47.026-5.496 8.376-11.288 14.559-17.2 18.375-10.757 6.94-22.965 11.57-36.302 13.763-27.352 4.5-51.875 9.074-75.028 19.454-30.308 13.595-53.199 33.036-68.034 57.788-4.401 7.347-7.176 16.408-7.599 24.874-.706 13.983 5.744 26.104 19.169 36.031 15.795 11.681 33.996 16.861 54.435 21.977 26.599 6.655 47.427 14.623 65.548 25.088 15.305 8.835 29.3 20.864 41.596 35.759 13.303 16.111 26.613 32.655 39.486 48.656 4.891 6.073 9.776 12.153 14.68 18.219 14.063 17.411 30.255 30.695 48.14 39.491 9.131 4.489 18.457 6.662 27.399 6.662 17.005 0 32.613-7.871 42.752-22.688 12.88-18.815 18.819-39.453 24.731-62.536 4.549-17.747 8.52-36.897 12.49-60.258 2.305-13.53 3.192-25.372 2.708-36.206-.752-17.1-4.468-35.125-11.348-55.104l.014-.013z" fill="#222" fill-opacity=".02"/><path d="M741.145 154.714c-2.17-4.255-4.414-8.653-6.524-13-10.702-22.015-14.075-43.604-10.32-65.988 1.069-6.377 1.324-12.826 1.432-18.29.154-7.885.121-15.898.087-23.646a2310.54 2310.54 0 01-.027-9.85v-1.365c-.134-7.554-.343-15.231-.544-22.656-.471-17.566-.954-35.733-.565-53.564.222-10.096 1.727-20.38 3.185-30.327.719-4.922 1.465-10.018 2.049-15.044.054-.446.088-.892.135-1.338h-3.413c-.034.323-.061.653-.094.97-.578 4.98-1.324 10.044-2.036 14.946-1.472 10.044-2.99 20.425-3.212 30.715-.389 17.909.094 36.115.565 53.72.194 7.418.403 15.088.537 22.636v1.307c0 3.285.013 6.577.027 9.863.034 7.729.067 15.723-.087 23.568-.101 5.348-.35 11.648-1.384 17.824-3.87 23.064-.404 45.273 10.595 67.91 2.123 4.372 4.374 8.783 6.551 13.052 5.778 11.331 11.751 23.05 15.916 35.067 7.371 21.265 9.366 41.671 5.933 60.653-.994 5.504-1.767 11.124-2.513 16.563-.913 6.649-1.854 13.524-3.211 20.179-4.918 24.163-11.684 42.473-21.312 57.627-15.991 25.184-36.557 32.35-62.861 21.899-14.23-5.653-27.526-15.581-39.526-29.512-15.285-17.747-30.147-36.361-44.519-54.36-2.768-3.466-5.536-6.933-8.311-10.393-23.361-29.182-53.252-50.344-88.842-62.904-1.485-.524-2.969-1.041-4.461-1.565-15.426-5.388-31.37-10.963-44.35-21.434-10.797-8.712-15.225-22.746-11.288-35.766 6.739-22.28 22.998-38.061 51.17-49.658 22.555-9.287 47.293-11.467 71.219-13.569l3.151-.278c19.169-1.7 35.22-6.558 49.067-14.85 7.444-4.456 14.371-11.628 18.544-19.189 13.377-24.26 9.339-50.434 4.327-70.522-4.777-19.144-14.809-36.575-24.504-53.43-1.021-1.771-2.035-3.537-3.05-5.303-4.858-8.492-9.568-17.223-14.15-25.76h-3.829c4.844 9.035 9.836 18.316 15.003 27.345 1.014 1.772 2.029 3.544 3.05 5.316 9.588 16.66 19.504 33.897 24.174 52.601 4.871 19.526 8.815 44.93-4.025 68.214-3.896 7.069-10.38 13.782-17.334 17.948-13.39 8.02-28.958 12.721-47.589 14.37l-3.151.279c-24.187 2.127-49.201 4.333-72.247 13.82-29.172 12.011-46.05 28.458-53.098 51.754-4.32 14.268.538 29.661 12.369 39.207 13.438 10.84 29.67 16.512 45.372 21.996 1.485.518 2.97 1.035 4.448 1.559 35.468 12.515 64.03 32.739 87.323 61.824 2.769 3.46 5.537 6.926 8.305 10.393 14.391 18.025 29.273 36.658 44.599 54.457 12.356 14.345 26.095 24.59 40.843 30.45 8.123 3.227 15.803 4.837 23.019 4.837 17.421 0 32.176-9.378 44.041-28.056 9.843-15.496 16.75-34.149 21.749-58.706 1.377-6.759 2.324-13.679 3.245-20.38.739-5.407 1.505-10.995 2.492-16.434 3.528-19.526 1.492-40.474-6.06-62.257-4.233-12.224-10.26-24.046-16.091-35.475h.006zM1196.32-41.06c11.57 4.224 23.91 9.1 38.83 15.361 29.5 12.373 55.84 29.15 77.73 43.928 35.94 24.273 73.66 51.294 105.98 84.376 13.19 13.498 22.84 25.605 30.36 38.101a72.689 72.689 0 012.03 3.602v-2.315c-.35-.608-.68-1.223-1.05-1.837-7.57-12.573-17.27-24.745-30.51-38.301-32.4-33.153-70.17-60.213-106.16-84.519-21.93-14.81-48.34-31.62-77.93-44.031-14.94-6.267-27.3-11.157-38.88-15.38-21.07-7.683-45.25-18.07-64.91-36.833-7.35-7.024-13.43-14.119-18.34-21.427h-1.35c5.03 7.586 11.28 14.94 18.89 22.203 19.81 18.905 44.13 29.357 65.3 37.079l.01-.007zm254.93 236.365c-11.1 21.53-29.48 39.09-57.38 54.864-27.53 15.568-59.42 24.467-97.49 27.203-23.28 1.675-42.41.977-60.22-2.192-21.36-3.803-40.62-11.739-57.23-23.581-11.89-8.479-23.06-17.702-35.4-28.005-32.63-27.261-68.16-51.553-105.63-72.204-40.159-22.132-69.204-41.955-94.184-64.275-17.604-15.736-38.378-29.777-65.367-44.187-15.164-8.097-31.014-17.43-44.183-30.779-14.667-14.862-25.605-33.017-32.505-53.953-6.02-18.258-9.393-37.531-10.239-58.538h-1.136c.847 21.117 4.24 40.5 10.293 58.868 6.954 21.097 17.98 39.394 32.761 54.38 13.276 13.452 29.213 22.837 44.458 30.98 26.909 14.37 47.602 28.36 65.145 44.03 25.041 22.379 54.153 42.247 94.387 64.425 37.41 20.618 72.89 44.865 105.46 72.081 12.35 10.322 23.54 19.551 35.47 28.056 16.75 11.946 36.16 19.946 57.7 23.775 11.64 2.07 23.83 3.092 37.36 3.092 7.29 0 14.96-.298 23.14-.886 38.25-2.756 70.3-11.7 97.98-27.352 27.27-15.412 45.52-32.545 56.81-53.396v-2.406z" fill="#222" fill-opacity=".02"/><path d="M1401.05 99.772c-32.49-35.17-72.18-61.48-110.57-86.924-25.2-16.7-54.48-30.598-89.52-42.473-24.02-8.143-49.2-18.116-70.67-35.824-11.26-9.28-20.86-20.754-29.21-34.899h-1.31c8.49 14.507 18.28 26.245 29.78 35.727 21.61 17.825 46.92 27.85 71.04 36.024 34.94 11.843 64.13 25.696 89.25 42.344 38.33 25.41 77.97 51.682 110.37 86.75 11.15 12.075 23.61 26.847 31.43 44.891 6.13 14.125 6.89 27.688 2.28 40.306-8.84 24.131-26.49 43.598-52.47 57.866-36.6 20.094-76.86 27.312-123.09 22.074-24.64-2.794-46.67-10.698-65.5-23.504-10.76-7.315-21.27-15.347-31.44-23.115-9.67-7.386-19.66-15.024-29.86-22.041-35.79-24.623-68.48-46.295-99.92-66.254-26.42-16.771-52.423-36.762-79.499-61.113-23.213-20.877-50.498-36.14-76.527-49.529-27.036-13.905-45.801-31.975-57.371-55.259-9.85-19.823-15.406-41.27-16.878-65.173h-1.135c1.471 24.072 7.068 45.68 16.992 65.646 11.677 23.503 30.604 41.735 57.862 55.757 25.961 13.349 53.165 28.567 76.284 49.36 27.117 24.39 53.172 44.42 79.642 61.223 31.43 19.952 64.11 41.618 99.88 66.234 10.18 7.005 20.17 14.63 29.82 22.009 10.18 7.781 20.71 15.82 31.49 23.154 18.98 12.91 41.2 20.878 66.03 23.691 9.41 1.067 18.65 1.598 27.7 1.598 35.02 0 67.23-7.968 96.08-23.808 26.23-14.396 44.05-34.064 52.98-58.454 4.72-12.883 3.94-26.711-2.29-41.095-7.89-18.193-20.42-33.062-31.64-45.202l-.01.013z" fill="#222" fill-opacity=".02"/><path d="M1314.87 40.167c-27.26-18.847-50.7-33.767-76.55-45.305-10.78-4.812-22.19-8.745-33.22-12.541-4.12-1.416-8.37-2.885-12.53-4.372-21.55-7.716-46.3-17.34-67.25-33.916-14.72-11.648-26.65-26.246-36.28-44.381h-1.27c9.74 18.498 21.84 33.367 36.83 45.222 21.08 16.686 45.93 26.349 67.57 34.097 4.16 1.494 8.42 2.955 12.54 4.378 11.01 3.79 22.4 7.71 33.13 12.502 25.76 11.506 49.16 26.394 76.35 45.202 29.39 20.321 62.72 45.674 87.11 79.655 11.44 15.943 16.93 30.281 17.27 45.131.46 20.069-7.89 37.855-25.5 54.373-15.97 14.972-36.5 25.489-62.77 32.144-15.53 3.932-31.61 3.952-47.16 3.971-1.59 0-3.16 0-4.75.006h-.32c-14.11 0-27.44-3.55-39.74-7.392-23.25-7.257-42.91-20.205-57.44-30.682-6.24-4.502-12.48-9.01-18.72-13.524-21.31-15.406-43.34-31.329-65.28-46.651-9.8-6.836-19.96-13.523-29.78-19.991-14.47-9.52-29.43-19.364-43.47-29.861-13.33-9.96-26.114-21.039-38.483-31.75-7.424-6.435-15.104-13.083-22.824-19.434l-2.849-2.342c-11.059-9.106-22.494-18.53-34.776-26.303-10.81-6.85-22.387-12.916-33.587-18.782-5.113-2.678-10.394-5.446-15.534-8.253-23.589-12.877-40.104-29.64-50.484-51.25-7.142-14.855-11.657-31.438-13.733-50.485h-1.142c2.082 19.209 6.638 35.947 13.847 50.945 10.488 21.822 27.157 38.74 50.955 51.74 5.146 2.808 10.434 5.582 15.547 8.26 11.18 5.86 22.736 11.92 33.506 18.736 12.222 7.742 23.63 17.14 34.662 26.22l2.849 2.341c7.713 6.339 15.386 12.987 22.804 19.416 12.382 10.73 25.192 21.822 38.542 31.801 14.07 10.523 29.04 20.373 43.53 29.9 9.82 6.461 19.97 13.142 29.75 19.972 21.93 15.309 43.97 31.238 65.26 46.638 6.25 4.508 12.48 9.022 18.73 13.523 14.6 10.523 34.35 23.536 57.76 30.844 12.4 3.868 25.83 7.445 40.1 7.445h.31c1.59 0 3.17-.007 4.75-.007 15.62-.019 31.78-.039 47.44-4.01 26.47-6.707 47.16-17.307 63.28-32.422 17.85-16.745 26.31-34.796 25.84-55.181-.34-15.076-5.89-29.609-17.47-45.733-24.49-34.116-57.91-59.547-87.38-79.92l.03.026z" fill="#222" fill-opacity=".02"/><path d="M1347.9 77.369c-19.66-16.505-41.35-31.355-62.31-45.713-24.86-17.016-53.75-30.488-90.94-42.395-23.11-7.406-49.92-17.288-73.52-34.505-19.36-14.112-33.9-32.208-44.26-55.104h-1.23c10.45 23.27 25.17 41.652 44.81 55.97 23.73 17.308 50.65 27.242 73.85 34.674 37.07 11.874 65.87 25.3 90.63 42.252 20.95 14.34 42.61 29.17 62.22 45.642 23.05 19.358 38.16 37.674 47.55 57.633 6.58 13.989 8.88 26.827 7.03 39.252-2.71 18.128-12.81 33.78-30.02 46.515-27.46 20.308-60.67 28.321-98.76 23.813-23.68-2.8-46.19-11.337-66.91-25.359-33.42-22.624-66.99-46.185-99.46-68.964-14.28-10.018-29.05-20.379-43.61-30.527-31.68-22.074-61.66-46.961-91.66-76.085-16.576-16.091-36.974-30.21-62.371-43.171-3.325-1.701-6.759-3.383-10.071-5.012-11.939-5.873-24.288-11.94-34.696-19.946-24.275-18.66-38.256-43.844-42.503-76.68h-1.142c4.26 33.198 18.39 58.667 42.94 77.54 10.501 8.071 22.897 14.17 34.89 20.062 3.313 1.63 6.739 3.312 10.058 5.006 25.29 12.903 45.6 26.963 62.095 42.977 30.04 29.17 60.07 54.095 91.81 76.201 14.55 10.142 29.32 20.503 43.6 30.521 32.48 22.785 66.06 46.347 99.48 68.977 20.87 14.132 43.56 22.727 67.43 25.553 6.92.822 13.67 1.229 20.27 1.229 30 0 56.61-8.459 79.31-25.256 17.46-12.916 27.7-28.806 30.45-47.226 1.89-12.638-.44-25.676-7.11-39.86-9.46-20.114-24.66-38.54-47.84-58.008l-.01-.006z" fill="#222" fill-opacity=".02"/><path d="M1354.55 96.442c-33.23-33.36-71.95-60.427-115.05-80.444-14.35-6.662-29.68-11.823-44.52-16.81-2.77-.93-5.54-1.862-8.3-2.806-24.24-8.26-49.81-17.67-72.52-33.793-20.99-14.895-36.32-34.99-48.01-62.937h-3.65c11.98 29.17 27.82 50.085 49.63 65.582 23.1 16.395 48.93 25.909 73.41 34.246 2.77.944 5.54 1.875 8.31 2.813 14.75 4.96 29.99 10.09 44.16 16.674 42.75 19.849 81.12 46.683 114.08 79.758 12.03 12.081 20.78 24.182 26.75 36.994 6.2 13.343 8.21 25.955 6.12 38.554-2.56 15.457-11.43 28.677-27.14 40.422-22.39 16.745-49.42 22.889-82.62 18.795-19.38-2.387-38.3-9.391-54.73-20.25l-3.89-2.574c-32.13-21.233-65.36-43.191-97.3-65.73-25.64-18.097-52.95-38.502-85.93-64.217-12.27-9.572-24.1-20.535-35.139-32.584-17.851-19.486-36.22-34.601-56.168-46.204-14.909-8.673-31.189-17.379-52.783-28.212-30.086-15.095-47.965-38.844-55.45-74.06h-3.433c7.673 36.25 26.519 61.52 57.318 76.97 21.527 10.801 37.746 19.475 52.594 28.109 19.646 11.428 37.759 26.336 55.376 45.57 11.155 12.185 23.115 23.277 35.545 32.966 33.03 25.747 60.38 46.185 86.07 64.313 31.99 22.572 65.23 44.543 97.38 65.789l3.89 2.574c16.87 11.15 36.32 18.342 56.23 20.8 6.77.834 13.29 1.254 19.58 1.254 25.42 0 47-6.842 65.55-20.709 16.42-12.282 25.72-26.181 28.42-42.498 2.19-13.252.11-26.472-6.38-40.416-6.12-13.162-15.09-25.573-27.4-37.926v-.013z" fill="#222" fill-opacity=".02"/><path d="M1350.92 107.986c-22.39-25.954-51.54-48.727-91.72-71.674-22.91-13.084-47.92-21.724-69.36-28.45-16.59-5.207-36.06-11.668-54.69-20.102-39.34-17.825-65.67-45.331-78.24-81.757-.74-2.121-1.52-4.243-2.33-6.351h-1.21c.86 2.225 1.69 4.463 2.46 6.694 12.68 36.723 39.21 64.45 78.84 82.403 18.68 8.46 38.2 14.934 54.82 20.154 21.38 6.706 46.32 15.321 69.13 28.347 40.07 22.882 69.13 45.577 91.43 71.435 12.85 14.894 20.2 29.24 23.12 45.143 3.42 18.569-1.85 34.777-15.64 48.171-21.07 20.451-48.51 27.694-83.88 22.151-21.08-3.304-41.85-12.062-63.5-26.782-40.79-27.726-76.19-52.458-108.21-75.619-33.73-24.396-59.75-46.023-81.89-68.078a6564.164 6564.164 0 01-34.685-34.802c-12.194-12.327-27.224-22.675-48.731-33.54-5.865-2.963-11.872-5.9-17.677-8.739-9.252-4.52-18.819-9.203-28.051-14.099-24.711-13.116-40.984-34.136-48.368-62.483l-.101-.362h-1.176c.054.213.121.42.175.627 7.458 28.651 23.919 49.904 48.919 63.175 9.252 4.91 18.826 9.592 28.085 14.12 5.805 2.838 11.804 5.775 17.663 8.73 21.393 10.808 36.329 21.085 48.436 33.328a6528.704 6528.704 0 0034.691 34.802c22.18 22.093 48.24 43.766 82.03 68.194 32.03 23.161 67.43 47.906 108.23 75.639 21.79 14.817 42.72 23.639 63.97 26.97 7.71 1.209 15.05 1.817 22.04 1.817 25.39 0 46.09-8.026 62.83-24.273 14.08-13.659 19.44-30.197 15.96-49.134-2.97-16.098-10.39-30.605-23.37-45.655z" fill="#222" fill-opacity=".02"/><path d="M1312.56 86.01c-14.49-11.959-30.6-23.368-49.25-34.88-21.15-13.052-45.64-23.477-74.88-31.872-31.22-8.958-63.5-18.22-91.53-36.497-25.58-16.68-42.73-39.355-50.97-67.405-1.52-5.168-2.82-10.465-4.05-15.71h-1.17c1.25 5.336 2.58 10.736 4.12 16.007 8.31 28.303 25.61 51.185 51.42 68.014 28.18 18.374 60.54 27.655 91.85 36.638 29.14 8.363 53.54 18.744 74.6 31.743 18.59 11.48 34.66 22.857 49.12 34.79 15.45 12.754 32.48 28.793 41.64 51.094 6.57 16.007 6.52 30.682-.14 43.617-9.66 18.756-27.19 29.453-52.09 31.788-24.06 2.264-48.16-3.842-71.6-18.135-28.53-17.391-56.99-36.283-84.6-56.158-17.55-12.631-34.5-26.64-50.9-40.19-5.03-4.165-10.07-8.33-15.13-12.456-24.64-20.108-45.7-43.048-65.17-64.831-14.315-16.008-27.417-27.022-41.237-34.68-14.486-8.02-29.831-15.114-44.666-21.976-3.588-1.663-7.176-3.318-10.757-4.993-16.401-7.664-32.123-15.671-44.223-29.337-8.089-9.133-14.13-19.5-18.073-30.941h-1.19c3.985 11.713 10.139 22.32 18.403 31.652 12.242 13.828 28.078 21.893 44.586 29.609 3.581 1.675 7.169 3.33 10.763 4.993 14.822 6.849 30.147 13.937 44.592 21.938 13.707 7.593 26.714 18.536 40.942 34.446 19.49 21.809 40.6 44.788 65.3 64.948a3518.47 3518.47 0 0115.13 12.456c16.4 13.563 33.37 27.585 50.95 40.235 27.64 19.894 56.12 38.799 84.67 56.204 20.46 12.469 41.41 18.762 62.43 18.762 3.29 0 6.59-.155 9.88-.466 25.32-2.38 43.15-13.278 53-32.389 6.81-13.227 6.87-28.199.18-44.504-9.25-22.52-26.4-38.683-41.96-51.52l.01.006z" fill="#222" fill-opacity=".02"/><path d="M1296.76 88.519c-20.84-17.275-43.72-31.342-67.99-41.807-18.33-7.897-38.28-14.242-64.71-20.567-24.82-5.937-53.93-13.789-81.63-26.99-15.92-7.586-30.84-15.67-38.44-31.108-4.62-9.385-8.34-20.354-11.08-32.603-2.25-10.142-3.73-20.639-5.15-30.786-.23-1.65-.47-3.33-.7-5.006h-1.15c.25 1.727.49 3.46.74 5.155 1.42 10.167 2.89 20.683 5.16 30.87 2.75 12.333 6.51 23.38 11.16 32.842 7.76 15.755 22.86 23.95 38.96 31.62 27.79 13.24 56.98 21.117 81.87 27.067 26.35 6.306 46.25 12.631 64.51 20.502 24.17 10.42 46.95 24.428 67.71 41.638 15.13 12.541 32.01 27.675 40.82 48.579 5.62 13.323 5.83 24.99.63 35.655-8.13 16.693-30.55 28.581-49.98 26.505-18.76-2.005-33.21-6.274-45.48-13.44-20.45-11.952-40.52-24.325-59.65-36.762-29.75-19.351-54.02-38.353-74.18-58.092-1.57-1.54-3.15-3.072-4.73-4.611-8.86-8.64-18.02-17.573-26.37-26.893-10.24-11.447-20.96-23.8-29.46-37.816-8.36-13.788-16.12-23.774-24.4-31.432-14.67-13.556-33.797-20.405-52.3-27.035-1.969-.704-3.937-1.41-5.899-2.12-3.581-1.3-7.176-2.575-10.764-3.843-15.674-5.549-31.88-11.286-46.802-19.441-17.987-9.837-30.638-22.676-38.371-38.954h-1.243c7.807 16.705 20.68 29.854 39.049 39.904 15.003 8.202 31.256 13.958 46.971 19.52 3.588 1.267 7.176 2.541 10.757 3.841 1.962.712 3.93 1.417 5.905 2.122 18.39 6.584 37.407 13.394 51.907 26.795 8.21 7.587 15.9 17.501 24.2 31.193 8.56 14.093 19.31 26.492 29.59 37.978 8.37 9.352 17.55 18.297 26.42 26.95 1.58 1.533 3.15 3.073 4.72 4.612 20.22 19.791 44.54 38.838 74.36 58.228 19.14 12.45 39.23 24.829 59.7 36.794 12.41 7.25 27.01 11.57 45.95 13.588 1.51.162 3.04.239 4.59.239 18.69 0 38.86-11.59 46.54-27.37 5.34-10.957 5.14-22.909-.6-36.536-8.91-21.136-25.91-36.374-41.14-48.998v.013zM548.935-72.376l-1.968-3.628c-4.401-8.13-8.943-16.325-13.391-24.338h-1.283c4.542 8.175 9.178 16.544 13.673 24.849l1.975 3.634c8.009 14.727 16.293 29.958 19.713 47.026 4.945 24.7-5.422 46.211-27.043 56.139a268.255 268.255 0 01-40.118 14.688c-30.06 8.35-58.339 21.052-84.038 37.751-5.892 3.83-11.845 7.78-17.596 11.603-11.234 7.464-22.844 15.18-34.555 22.313-6.403 3.9-14.365 8.751-23.865 8.939-6.631.129-12.436-1.986-16.81-6.125-8.526-8.059-16.938-16.803-25.007-25.987-28.582-32.551-59.589-53.927-94.789-65.349-17.132-5.562-35.555-8.226-53.367-10.807l-.745-.11C109.717 12.427 74.995 5.268 43.571-3.67 22.601-9.634.504-13.055-20.869-16.367l-1.457-.226c-10.105-1.565-20.412-2.956-30.383-4.3-24.758-3.338-50.363-6.798-74.994-13.227a5843.853 5843.853 0 00-33.54-8.634v1.131a6840.318 6840.318 0 0133.244 8.557c24.698 6.448 50.337 9.908 75.13 13.252 9.963 1.345 20.263 2.736 30.354 4.295l1.458.226c21.34 3.305 43.403 6.72 64.299 12.664 31.47 8.95 66.24 16.117 106.304 21.925l.746.11c17.764 2.574 36.133 5.232 53.172 10.762 34.998 11.357 65.844 32.622 94.284 65.018 8.089 9.21 16.528 17.98 25.074 26.065 4.468 4.223 10.341 6.442 17.026 6.442h.604c9.81-.194 17.926-5.136 24.443-9.107 11.731-7.147 23.355-14.869 34.595-22.339 5.751-3.822 11.698-7.774 17.583-11.596 25.605-16.635 53.77-29.285 83.722-37.603a270.15 270.15 0 0040.293-14.752C563.199 22.14 573.801.17 568.756-25.04c-3.447-17.23-11.772-32.532-19.821-47.33v-.006z" fill="#222" fill-opacity=".02"/><path d="M515.402-79.528c-2.452-4.308-4.992-8.77-7.317-13.188a224.065 224.065 0 00-4.219-7.632h-1.297c1.552 2.684 3.071 5.4 4.509 8.124 2.331 4.436 4.871 8.899 7.33 13.22 6.268 11.014 12.752 22.403 16.367 34.342 6.765 22.34 6.295 40.287-18 55.272-10.253 6.326-21.319 11.817-32.028 17.127-2.93 1.455-5.866 2.91-8.782 4.385-9.655 4.87-19.551 9.681-29.119 14.338a4216.922 4216.922 0 00-17.334 8.466c-5.348 2.633-10.723 5.453-15.924 8.175-11.455 6.002-23.3 12.205-35.528 16.829-16.858 6.377-33.493 5.911-49.444-1.39-15.386-7.044-29.387-16.551-42.926-25.748-4.911-3.33-9.984-6.778-15.05-10.064-29.703-19.228-62.289-31.458-96.844-36.36C129.215.61 86.436-7.492 31.101-19.91c-13.484-3.027-27.5-4.806-41.051-6.526-2.513-.317-5.02-.64-7.532-.964-6.84-.892-13.8-1.727-20.533-2.542-23.878-2.884-48.563-5.86-72.347-11.622-16.999-4.113-34.199-8.53-50.895-12.825v1.132c16.609 4.275 33.715 8.66 50.619 12.754 23.852 5.776 48.577 8.757 72.482 11.642 6.732.815 13.686 1.649 20.52 2.541 2.505.324 5.018.647 7.531.964 13.525 1.714 27.513 3.493 40.944 6.507C86.21-6.425 129.013 1.684 169.628 7.44c34.387 4.877 66.818 17.049 96.374 36.186 5.059 3.273 10.125 6.72 15.03 10.045 13.579 9.222 27.627 18.762 43.094 25.844 8.674 3.971 17.543 5.957 26.546 5.957 7.854 0 15.802-1.514 23.798-4.534 12.295-4.65 24.174-10.872 35.656-16.887 5.194-2.723 10.562-5.536 15.897-8.162 5.764-2.84 11.549-5.653 17.327-8.466 9.574-4.657 19.471-9.469 29.133-14.345 2.916-1.468 5.845-2.924 8.774-4.379 10.723-5.323 21.816-10.826 32.116-17.178 26.358-16.253 24.456-36.761 18.477-56.5-3.655-12.056-10.166-23.504-16.461-34.563l.013.013zm935.848 299.947a365.205 365.205 0 01-5.45 5.096c-20.42 18.685-44.73 32.978-72.23 42.492-16.82 5.821-36.93 12.037-58.54 14.003-6.29.575-12.67 1.28-18.84 1.966-11.54 1.28-23.46 2.606-35.2 3.085-9.99.407-20.28-.686-30.24-1.74a1372.1 1372.1 0 00-6.96-.724c-22.2-2.186-40.03-9.275-54.5-21.673-6.85-5.866-13.66-12.011-20.26-17.948-9.66-8.692-19.63-17.689-29.93-26.019-14.73-11.907-30.88-22.746-45.12-32.312-17.46-11.719-36.59-21.181-55.09-30.326-10.45-5.168-21.25-10.51-31.603-16.189-11.281-6.183-22.77-13.763-37.269-24.577-6.323-4.715-12.524-9.805-18.517-14.726-10.81-8.867-21.984-18.045-34.393-25.483-14.573-8.744-28.972-18.238-43.672-28.01-29.032-19.307-48.785-47.68-60.375-86.744-5.335-17.967-8.143-37.208-8.828-60.925h-3.4c.685 24.04 3.541 43.566 8.963 61.83 11.818 39.828 32.001 68.79 61.711 88.542 14.735 9.798 29.167 19.318 43.807 28.095 12.194 7.315 23.274 16.408 33.983 25.198 6.027 4.947 12.262 10.063 18.645 14.823 14.626 10.911 26.243 18.569 37.665 24.836 10.421 5.711 21.263 11.072 31.733 16.253 18.4 9.093 37.42 18.504 54.7 30.1 14.19 9.52 30.27 20.321 44.87 32.131 10.23 8.272 20.18 17.236 29.8 25.903 6.61 5.956 13.44 12.114 20.32 18.005 15.03 12.871 33.48 20.231 56.41 22.488 2.32.227 4.63.472 6.94.718 8.58.912 17.42 1.85 26.18 1.85 1.53 0 3.05-.026 4.58-.091 11.85-.485 23.85-1.817 35.44-3.104 6.16-.686 12.52-1.391 18.78-1.96 21.99-2.005 42.35-8.291 59.38-14.183 27.95-9.669 52.64-24.202 73.42-43.204 1.06-.976 2.08-1.927 3.11-2.884v-4.592h-.02zM143.338 189.225c-.719-15.768-9.957-27.946-24.114-31.768-9.5-2.568-19.511-3.907-29.193-5.2l-2.056-.279c-12.416-1.668-23.226-6.454-33.036-14.629-11.019-9.184-18.275-21.266-25.29-32.946a652.895 652.895 0 00-3.547-5.866C6.746 66.975-20.055 47.417-53.562 40.406c-17.952-3.758-36.422-6.558-54.287-9.268-10.629-1.61-21.621-3.28-32.378-5.129-7.008-1.203-14.049-2.593-21.023-4.023v1.12c6.907 1.41 13.881 2.787 20.821 3.977 10.771 1.85 21.769 3.518 32.405 5.135 17.845 2.71 36.301 5.51 54.227 9.262 33.19 6.946 59.743 26.33 78.932 57.62 1.19 1.94 2.365 3.899 3.54 5.853 7.062 11.764 14.365 23.923 25.525 33.224 9.984 8.317 20.976 13.187 33.62 14.882l2.057.278c9.641 1.287 19.618 2.619 29.045 5.167 13.666 3.693 22.588 15.484 23.287 30.767.719 15.716-2.022 31.342-4.676 46.463l-.282 1.604c-2.903 16.576-5.778 31.484-11.617 46.114-6.047 15.153-19.794 24.57-34.185 23.425-14.11-1.119-28.313-4.339-40.843-7.185-20.425-4.631-36.692-12.004-49.733-22.54-8.593-6.946-14.519-16.156-20.25-25.062a626.336 626.336 0 00-3.198-4.934 508.313 508.313 0 01-5.415-8.473c-6.551-10.406-13.33-21.162-23.012-29.913-9.937-8.983-20.916-16.414-33.56-22.72-22.609-11.286-47.428-21.686-76.688-32.118v1.164c29.052 10.367 53.703 20.709 76.17 31.924 12.544 6.261 23.442 13.64 33.305 22.552 9.568 8.648 16.307 19.338 22.817 29.68 1.76 2.794 3.575 5.679 5.429 8.492a421.149 421.149 0 013.191 4.928c5.779 8.977 11.751 18.265 20.486 25.321 13.182 10.646 29.596 18.096 50.196 22.766 12.57 2.852 26.814 6.08 41.01 7.211.82.065 1.64.097 2.46.097 13.988 0 26.996-9.468 32.881-24.214 5.879-14.727 8.768-29.693 11.678-46.328l.282-1.604c2.66-15.173 5.415-30.863 4.69-46.689l-.007-.007z" fill="#222" fill-opacity=".02"/><path d="M473.941-100.348h-1.21c2.641 6.992 5.449 14.067 8.963 20.697 9.467 17.87 13.115 33.974 11.476 50.673-.672 6.875-3.85 13.162-10.3 20.405-15.205 17.075-34.709 28.49-56.774 40.61a441.42 441.42 0 01-41.555 20.05c-23.563 9.902-47.871 8.802-72.253-3.286-11.456-5.678-22.945-11.738-34.065-17.598-8.613-4.54-17.522-9.242-26.357-13.73-21.661-11.008-46.225-18.679-75.089-23.446-6.759-1.118-13.525-2.218-20.291-3.324-35.777-5.834-72.77-11.861-108.75-19.985C31.183-33.02 13.976-35.09-.86-36.739c-44.25-4.909-94.412-10.477-141.443-24.751-6.242-1.895-12.625-3.551-18.967-5.11v1.132c6.235 1.54 12.503 3.17 18.631 5.025C-95.507-46.136-45.291-40.56-.988-35.646c14.802 1.643 31.968 3.706 48.47 7.431 36.012 8.13 73.025 14.164 108.816 19.998 6.766 1.1 13.525 2.206 20.291 3.325 28.743 4.747 53.192 12.379 74.746 23.335 8.828 4.482 17.731 9.177 26.344 13.717 11.12 5.867 22.622 11.927 34.091 17.612 13.579 6.726 27.13 10.096 40.561 10.096 10.999 0 21.91-2.258 32.667-6.779a445.306 445.306 0 0041.663-20.1c22.158-12.173 41.743-23.646 57.069-40.85 6.611-7.418 9.87-13.905 10.562-21.013 1.632-16.687-2.157-33.457-11.597-51.275-3.42-6.462-6.181-13.369-8.768-20.199h.014z" fill="#222" fill-opacity=".02"/><path d="M447.865-98.207c-.248-.705-.497-1.43-.746-2.141h-3.587c.369 1.061.739 2.141 1.108 3.189 4.219 12.088 8.587 24.583 10.891 37.15 3.857 21.02-1.411 38.767-15.654 52.743-20.64 20.25-44.23 33.994-70.104 40.85-16.871 4.468-34.669 2.929-52.897-4.573-11.912-4.903-23.851-10.323-35.401-15.561-6.584-2.988-13.39-6.08-20.129-9.042-24.893-10.956-48.174-18.213-71.165-22.197-7.915-1.371-15.977-2.658-23.771-3.9-8.358-1.332-16.998-2.716-25.471-4.197-9.682-1.695-19.511-3.544-29.018-5.33-8.224-1.545-16.723-3.143-25.101-4.637l-7.807-1.397c-16.529-2.962-33.628-6.021-50.519-8.589-16.951-2.567-34.265-4.585-51.009-6.538l-1.767-.207c-5.314-.621-10.73-1.093-15.963-1.546-7.962-.692-16.193-1.41-24.174-2.658-14.95-2.342-29.361-5.653-41.489-8.596-13.666-3.311-27.513-6.881-40.897-10.335-4.75-1.222-9.581-2.47-14.438-3.713v3.396c4.562 1.17 9.097 2.341 13.558 3.493 13.404 3.46 27.258 7.036 40.951 10.348 12.194 2.955 26.7 6.293 41.777 8.647 8.096 1.267 16.387 1.992 24.41 2.69 5.213.453 10.595.925 15.862 1.54l1.767.207C-6.2-47.165 11.08-45.147 27.97-42.586c16.85 2.555 33.923 5.614 50.431 8.57l7.814 1.397c8.365 1.494 16.857 3.091 25.068 4.63 9.513 1.786 19.356 3.642 29.065 5.337 8.492 1.487 17.153 2.871 25.518 4.21 7.787 1.242 15.836 2.529 23.724 3.893 22.709 3.933 45.721 11.112 70.352 21.951 6.718 2.956 13.518 6.041 20.089 9.023 11.576 5.251 23.542 10.684 35.508 15.613 11.872 4.889 23.59 7.34 35.018 7.34 6.813 0 13.532-.873 20.116-2.62 26.459-7.01 50.559-21.045 71.629-41.715 14.855-14.572 20.586-33.8 16.582-55.615-2.352-12.812-6.759-25.424-11.019-37.628v-.007z" fill="#222" fill-opacity=".02"/><path d="M423.671-99.377c-.101-.324-.195-.647-.296-.971h-1.182l.383 1.28c2.902 9.605 5.906 19.54 8.076 29.46 6.436 29.415-7.055 58.293-34.373 73.57-8.137 4.546-17.651 9.643-27.641 12.527-17.845 5.155-37.209 3.473-59.193-5.135-8.035-3.15-16.138-6.513-23.979-9.772-13.901-5.776-28.272-11.746-42.758-16.7-23.811-8.142-48.422-12.262-69.358-15.211-18.093-2.555-36.382-5.886-54.072-9.107-8.654-1.578-17.603-3.208-26.418-4.728-4.851-.834-9.695-1.688-14.54-2.541-14.774-2.6-30.046-5.297-45.156-7.386-11.281-1.56-22.81-2.75-33.957-3.894-8.882-.912-18.067-1.856-27.07-2.988-37.248-4.67-66.999-10.75-93.632-19.131-12.907-4.062-26.391-7.076-39.433-9.993a5.713 5.713 0 00-.322-.07v1.125s.04.013.067.013c13.014 2.91 26.479 5.917 39.332 9.966 26.7 8.402 56.511 14.494 93.834 19.177C-19.001-58.755-9.81-57.81-.92-56.898c11.14 1.144 22.655 2.328 33.916 3.887 15.09 2.089 30.355 4.78 45.116 7.38 4.851.853 9.695 1.707 14.546 2.54 8.809 1.52 17.758 3.15 26.412 4.722 17.697 3.228 36.005 6.558 54.119 9.113 20.875 2.943 45.419 7.05 69.143 15.16 14.452 4.941 28.803 10.905 42.691 16.674 7.847 3.26 15.957 6.629 24.006 9.779 13.854 5.426 26.687 8.13 38.774 8.13 7.31 0 14.344-.99 21.171-2.956 10.105-2.917 19.692-8.052 27.882-12.632 27.749-15.515 41.455-44.852 34.918-74.739-2.177-9.96-5.187-19.914-8.096-29.537h-.007zM1451.25 627.58c-14.8-9.559-29.99-19.383-44.83-29.253-36.52-24.266-70.3-52.53-101.36-79.454-8.97-7.781-18.69-15.05-28.08-22.081-2.43-1.811-4.85-3.628-7.26-5.445-15.32-11.577-32.95-19.785-50.01-27.727-4.84-2.251-9.83-4.579-14.7-6.94-17.57-8.55-26.68-21.175-27.83-38.592-.79-12.004-1.12-26.135 2.53-39.983 3.81-14.461 8.21-28.224 20.08-37.731 12.64-10.122 28.64-17.107 48.92-21.343 26.7-5.576 53.45-10.711 78.38-15.432 32.35-6.125 60.73-13.614 86.77-22.889 13.42-4.78 25.79-9.824 37.39-15.192v-1.216c-11.7 5.445-24.21 10.548-37.78 15.38-25.98 9.255-54.31 16.725-86.6 22.837-24.93 4.721-51.68 9.863-78.39 15.438-20.47 4.275-36.64 11.331-49.42 21.569-12.13 9.715-16.59 23.659-20.44 38.301-3.69 13.996-3.37 28.238-2.57 40.319 1.18 17.838 10.49 30.754 28.45 39.498 4.87 2.367 9.88 4.695 14.72 6.953 17 7.916 34.58 16.097 49.8 27.603 2.42 1.824 4.84 3.635 7.27 5.452 9.38 7.018 19.08 14.274 28.02 22.029 31.09 26.951 64.9 55.24 101.47 79.545 15.06 10.005 30.47 19.978 45.48 29.667v-1.32l-.01.007z" fill="#222" fill-opacity=".02"/><path d="M1451.25 604.756c-15.14-7.36-30.69-14.979-45.47-23.342-39.01-22.074-71.85-51.566-102.13-79.888-10.34-9.662-21.43-18.891-32.16-27.817-6.73-5.601-13.69-11.389-20.39-17.229l-2.76-2.393c-8.09-7.024-16.46-14.281-23.41-22.411-11.77-13.75-16.07-30.423-12.42-48.215 4.54-22.094 18.08-38.082 39.15-46.237 17.91-6.927 37.01-13.007 56.79-18.071 13.47-3.447 27.33-6.409 40.72-9.274 13.27-2.84 26.99-5.769 40.34-9.178 20.46-5.219 41.07-11.195 61-16.971l.75-.213v-1.145c-.36.104-.72.207-1.07.311-19.92 5.775-40.53 11.751-60.96 16.964-13.34 3.402-27.04 6.332-40.3 9.171-13.41 2.865-27.27 5.834-40.76 9.288-19.82 5.077-38.97 11.169-56.92 18.115-21.45 8.305-35.23 24.571-39.84 47.039-3.72 18.129.66 35.119 12.65 49.128 7.02 8.188 15.42 15.477 23.53 22.527l2.75 2.386c6.71 5.847 13.68 11.642 20.41 17.243 10.72 8.912 21.8 18.135 32.11 27.778 30.33 28.367 63.23 57.911 102.35 80.043 14.98 8.472 30.72 16.175 46.05 23.619v-1.222l-.01-.006z" fill="#222" fill-opacity=".02"/><path d="M1451.25 584.512a265.64 265.64 0 01-38.63-15.076c-27.95-13.517-55.02-33.037-85.18-61.423-12.49-11.764-24.96-24.234-38.12-38.133-11.36-12.004-22.24-24.551-33.32-37.421-9.04-10.51-14.19-22.889-14.87-35.792-.83-15.645 5.76-29.46 19.6-41.056 16.36-13.724 36.67-20.237 56.06-25.741 21.43-6.073 43.3-10.704 63.75-14.804 19.35-3.881 39.2-7.005 58.4-10.032l4.69-.737c2.53-.401 5.07-.75 7.62-1.087v-1.106c-2.61.343-5.22.705-7.81 1.113l-4.69.737c-19.21 3.027-39.08 6.151-58.45 10.038-20.47 4.107-42.36 8.744-63.83 14.83-19.52 5.536-39.95 12.095-56.5 25.961-14.11 11.829-20.83 25.942-19.98 41.936.69 13.142 5.92 25.741 15.13 36.438 11.08 12.884 21.97 25.437 33.35 37.461 13.17 13.911 25.65 26.4 38.16 38.178 30.25 28.47 57.41 48.048 85.47 61.617a266.604 266.604 0 0039.14 15.244v-1.152l.01.007z" fill="#222" fill-opacity=".02"/><path d="M1451.25 563.395c-16.98-2.167-34.34-7.599-51.71-16.208-19.45-9.637-37.62-22.83-53.98-39.219-16.52-16.544-31.9-33.198-45.72-49.503-12.1-14.274-23.39-28.574-28.69-46.463-5.81-19.623-.03-38.01 15.86-50.435 14.08-11.014 30.3-16.848 42.87-20.702 18.22-5.588 34.55-9.269 49.9-11.235 5.06-.646 10.18-1.41 15.14-2.147 7.53-1.119 15.32-2.276 23.01-3.059 8.7-.886 18.1-1.3 30.46-1.358.95 0 1.91.019 2.86.039v-1.094c-.96-.019-1.91-.045-2.87-.038-12.4.051-21.83.472-30.57 1.364-7.72.783-15.52 1.947-23.06 3.066-4.96.737-10.08 1.494-15.13 2.147-15.41 1.979-31.8 5.666-50.09 11.28-12.66 3.88-29.01 9.766-43.24 20.89-16.26 12.715-22.17 31.517-16.23 51.586 5.35 18.089 16.73 32.48 28.9 46.851 13.84 16.33 29.24 33.01 45.78 49.567 16.45 16.473 34.71 29.745 54.28 39.433 17.54 8.693 35.08 14.171 52.23 16.344v-1.106zm0-444.918c-17.62-19.396-38.96-38.618-65.09-58.655-17.07-13.084-35.05-25.611-52.44-37.725-5.39-3.751-10.78-7.51-16.15-11.286-37.18-26.142-78.05-47.194-121.44-62.568-32.09-11.37-55.7-27.358-71.66-48.591h-1.39c16.09 21.738 40.02 38.062 72.66 49.62 43.3 15.334 84.06 36.341 121.17 62.425 5.37 3.777 10.76 7.528 16.15 11.286 17.38 12.107 35.35 24.628 52.39 37.7 26.5 20.32 48.06 39.801 65.8 59.469v-1.675z" fill="#222" fill-opacity=".02"/><path d="M1451.25 97.225c-3.69-2.924-7.36-5.847-10.97-8.719-17.33-13.795-35.25-28.063-53.45-41.38-22.22-16.252-45.61-31.755-68.23-46.747l-11.47-7.612c-31.11-20.684-58.44-35.443-86.02-46.45-17.17-6.856-34.89-14.96-52.65-24.086-11.33-5.82-21.03-13.394-28.99-22.591h-1.48c8.17 9.623 18.18 17.514 29.94 23.555 17.8 9.138 35.54 17.255 52.75 24.124 27.49 10.975 54.76 25.702 85.81 46.34 3.82 2.542 7.64 5.077 11.47 7.612 22.61 14.986 45.98 30.482 68.18 46.716 18.18 13.297 36.09 27.558 53.41 41.347l11.69 9.294v-1.416l.01.013z" fill="#222" fill-opacity=".02"/><path d="M1451.25 78.003c-9.33-6.326-18.81-12.742-28.23-19.015-12.92-8.602-26-17.404-38.67-25.916-34.69-23.322-70.57-47.446-106.59-70.102-16.38-10.296-34.56-18.458-52.16-26.355-5.39-2.42-10.96-4.916-16.38-7.432l-3.52-1.63c-16.76-7.76-33.95-15.735-48.07-27.901h-1.68c14.4 12.722 32.05 20.923 49.26 28.891l3.52 1.63c5.43 2.522 11.01 5.019 16.39 7.438 17.56 7.877 35.71 16.02 52.02 26.278 36 22.642 71.87 46.76 106.56 70.082 12.66 8.512 25.75 17.314 38.67 25.916 9.63 6.422 19.34 12.987 28.87 19.454v-1.338h.01zm0-16.325c-14.3-9.061-28.73-18.303-42.72-27.267-8.11-5.207-16.23-10.407-24.36-15.6-8.49-5.42-17-10.814-25.51-16.201-17.15-10.866-34.88-22.094-52.13-33.393-21.81-14.274-45.19-29.233-70.19-41.444-5.25-2.561-10.63-5.084-15.83-7.522-10.36-4.85-21.06-9.863-31.19-15.444-2.88-1.585-5.68-3.331-8.43-5.161h-1.98c3.2 2.173 6.47 4.249 9.85 6.105 10.16 5.6 20.88 10.62 31.25 15.477 5.2 2.438 10.58 4.954 15.82 7.509 24.94 12.185 48.28 27.118 70.06 41.373 17.27 11.299 35 22.533 52.14 33.399 8.52 5.387 17.02 10.781 25.51 16.2 8.13 5.188 16.24 10.394 24.36 15.594 14.19 9.1 28.84 18.485 43.34 27.669v-1.307l.01.013zM714.767-100.348a2511.769 2511.769 0 00-4.4 21.803c-1.499 7.631-2.95 15.276-4.401 22.914-1.948 10.258-3.964 20.871-6.06 31.284l-.108.537c-2.97 14.772-6.04 30.048-9.735 44.91-1.478 5.951-3.736 11.442-10.166 11.442h-.195c-6.194-.104-8.23-5.316-10.205-10.361l-.43-1.093c-13.122-33.05-29.65-64.644-49.128-93.89-5.939-8.925-11.381-18.349-16.649-27.546h-1.297c5.362 9.385 10.912 19.015 16.985 28.14 19.438 29.19 35.932 60.712 49.027 93.697l.423 1.086c2.002 5.136 4.28 10.95 11.247 11.073h.209c8.217 0 10.273-8.285 11.267-12.282 3.702-14.888 6.773-30.171 9.749-44.956l.107-.537c2.097-10.42 4.112-21.033 6.061-31.29a3743.344 3743.344 0 014.401-22.909 2521.295 2521.295 0 014.441-22.009h-1.156l.013-.013zM1451.25 43.505a746.285 746.285 0 01-15.03-8.693c-13.01-7.761-26.49-15.283-39.51-22.552-23.19-12.949-47.17-26.343-69.45-41.58a4281.72 4281.72 0 01-9.67-6.643c-16.42-11.292-33.41-22.966-50.8-33.386-17.95-10.742-36.55-21.032-54.66-30.999h-2.28c18.63 10.258 37.84 20.852 56.34 31.93 17.37 10.4 34.33 22.068 50.75 33.348 3.22 2.218 6.45 4.43 9.67 6.642 22.32 15.27 46.32 28.67 69.54 41.632 13.01 7.27 26.47 14.785 39.48 22.54 5.15 3.065 10.39 6.072 15.62 9.028v-1.267zm0-19.837c-.64-.304-1.28-.601-1.91-.899-4.93-2.354-9.86-4.701-14.8-7.043-16.13-7.657-32.81-15.58-48.99-23.788-37.02-18.781-70.27-41.515-97.92-61.274-15.19-10.852-31.21-21.097-46.78-31.012h-2.05c15.99 10.187 32.52 20.716 48.15 31.892 27.68 19.784 60.97 42.544 98.07 61.358 16.19 8.214 32.88 16.137 49.02 23.8 4.93 2.342 9.87 4.69 14.79 7.044.8.382 1.61.757 2.41 1.138v-1.216h.01zm0-20.159c-3.2-1.165-6.42-2.335-9.59-3.525-4.14-1.552-8.29-3.092-12.43-4.631-14.41-5.342-29.3-10.872-43.71-16.842-35.68-14.785-66.15-36.78-94.28-58.04-9.24-6.978-18.65-13.976-27.89-20.825h-1.86c9.61 7.127 19.42 14.416 29.05 21.685 28.2 21.305 58.73 43.34 94.53 58.183 14.43 5.976 29.33 11.512 43.75 16.86 4.14 1.54 8.29 3.08 12.43 4.632 3.31 1.241 6.66 2.464 10 3.673V3.51zM549.164 565.452c-9.622 0-19.653-2.141-29.885-6.442-22.367-9.397-40.944-24.784-58.904-39.672-2.62-2.167-5.233-4.333-7.861-6.487-9.345-7.645-18.691-15.587-27.735-23.264-8.862-7.528-18.019-15.309-27.17-22.805-22.044-18.064-36.429-35.571-45.264-55.104-7.451-16.466-8.58-33.476-3.36-50.576 7.498-24.545 25.115-41.529 52.353-50.493 5.294-1.739 10.824-3.046 16.172-4.314 2.479-.588 4.958-1.17 7.424-1.804a.592.592 0 01.49.097.583.583 0 01.35-.116c2.244 0 4.488-.013 6.732-.02 4.844-.026 9.856-.045 14.781.046 17.577.323 34.239 5.154 50.935 14.765 22.77 13.103 40.084 33.03 56.142 64.618 13.357 26.265 24.974 53.383 36.207 79.603 7.498 17.501 14.184 34.828 13.693 54.379-.41 16.105-7.652 28.788-21.54 37.687-10.286 6.59-21.608 9.902-33.56 9.902zm-123.74-259.991a.568.568 0 01-.201.097c-2.473.634-4.959 1.216-7.444 1.805-5.322 1.261-10.831 2.561-16.072 4.288-26.868 8.841-44.243 25.585-51.633 49.768-5.147 16.841-4.032 33.605 3.312 49.826 8.768 19.371 23.052 36.749 44.962 54.703 9.158 7.502 18.322 15.289 27.184 22.818 9.037 7.677 18.382 15.612 27.715 23.251 2.627 2.147 5.247 4.32 7.867 6.493 17.899 14.83 36.409 30.171 58.622 39.498 22.897 9.617 43.88 8.485 62.363-3.37 13.558-8.692 20.64-21.078 21.036-36.801.491-19.338-6.154-36.548-13.605-53.933-11.227-26.206-22.837-53.312-36.174-79.545-15.957-31.38-33.137-51.165-55.705-64.158-16.521-9.508-32.996-14.287-50.377-14.61-4.912-.091-9.917-.065-14.755-.046-2.244.013-4.494.02-6.738.02a.612.612 0 01-.35-.117l-.007.013z" fill="#222" fill-opacity=".02"/><path d="M562.588 600.203c-4.381 0-8.862-.175-13.451-.518-5.604-.42-10.824-1.636-15.09-3.505-18.302-8.033-34.38-18.666-47.798-31.601-19.578-18.879-40.534-38.689-67.953-64.236-12.752-11.881-23.314-21.201-33.244-29.337-16.643-13.634-29.388-27.843-38.962-43.43-13.021-21.201-17.489-41.244-13.66-61.28 6.309-33.043 26.338-55.686 59.528-67.296 7.27-2.541 14.997-4.048 22.475-5.503 3.379-.66 6.866-1.339 10.252-2.102.249-.059.498-.059.733-.007a1.63 1.63 0 01.302-.032c19.921-.505 35.972 1.17 50.518 5.271 27.319 7.703 49.921 23.794 67.175 47.834 11.979 16.68 22.393 34.776 32.465 52.271 1.525 2.652 3.057 5.31 4.588 7.955 10.69 18.472 21.601 38.405 33.359 60.944 2.452 4.696 5.053 9.437 7.565 14.022 10.67 19.448 21.702 39.556 24.866 62.723 2.312 16.939-5.556 34.123-19.141 41.793-19.055 10.756-40.266 16.047-64.527 16.047v-.013zM425.425 294.59c-3.42.769-6.927 1.455-10.314 2.114-7.35 1.43-14.956 2.911-21.99 5.369-31.975 11.188-51.264 32.991-57.345 64.805-3.668 19.221.659 38.527 13.243 59.01 9.379 15.27 21.883 29.208 38.236 42.602 9.991 8.182 20.607 17.553 33.406 29.479 27.433 25.56 48.402 45.384 67.994 64.282 13.128 12.657 28.87 23.063 46.796 30.934 3.91 1.714 8.734 2.833 13.948 3.228 29.26 2.192 54.119-2.743 75.996-15.089 12.436-7.024 19.632-22.87 17.489-38.534-3.084-22.585-13.969-42.428-24.497-61.617-2.519-4.598-5.126-9.352-7.599-14.08-11.738-22.501-22.629-42.395-33.291-60.821-1.532-2.652-3.064-5.304-4.589-7.962-10.031-17.423-20.405-35.442-32.284-51.993-16.803-23.406-38.787-39.07-65.333-46.553-14.197-4.004-29.918-5.634-49.477-5.142-.134 0-.262-.007-.389-.032zm469.062 57.024c-5.166 0-10.158-1.462-13.8-4.171-11.314-8.395-16.481-18.562-15.809-31.077.867-15.969 8.069-26.414 22.037-31.924a.584.584 0 01.565.071.605.605 0 01.41-.11c.651.071 1.31.116 1.968.162 1.438.103 2.923.207 4.347.562 14.553 3.648 24.228 20.192 25.941 33.903 1.008 8.04.014 14.145-3.218 19.804-3.655 6.41-9.722 10.756-17.079 12.237-1.774.356-3.574.53-5.355.53l-.007.013zm-7.014-66.228a.522.522 0 01-.134.071c-13.707 5.407-20.486 15.244-21.332 30.967-.652 12.127 4.374 21.99 15.365 30.152 4.65 3.447 11.637 4.766 18.235 3.434 7.028-1.416 12.826-5.568 16.32-11.693 3.104-5.446 4.058-11.351 3.084-19.144-1.673-13.356-11.039-29.454-25.101-32.979-1.324-.329-2.755-.433-4.146-.53a51.142 51.142 0 01-2.009-.168.604.604 0 01-.282-.11z" fill="#222" fill-opacity=".02"/><path d="M903.82 396.163c-14.069 0-25.612-2.813-36.295-8.692-15.332-8.44-25.33-20.742-29.71-36.562-6.014-21.718-4.428-44.335 4.71-67.217 8.66-21.699 22.165-35.365 41.266-41.781.303-.103.612-.116.907-.058.155-.032.316-.039.477-.032 1.935.148 3.944.129 5.886.122 5.093-.032 10.353-.071 15.661 2.6 15.561 7.833 27.352 19.714 36.033 36.329.954 1.83 1.942 3.641 2.929 5.459 2.352 4.333 4.791 8.808 6.766 13.42 8.902 20.754 16.165 39.666 14.902 60.931-.651 10.982-5.576 18.659-15.5 24.156-10.394 5.757-21.184 9.094-33.963 10.504-4.972.55-9.642.828-14.063.828l-.006-.007zm-19.095-151.089c-18.006 6.105-30.772 19.124-39.029 39.801-8.876 22.223-10.421 44.155-4.596 65.187 4.139 14.947 13.599 26.569 28.111 34.563 13.371 7.36 28.259 9.656 48.288 7.457 12.302-1.352 22.676-4.559 32.653-10.089 8.956-4.961 13.209-11.59 13.801-21.499 1.222-20.573-5.913-39.109-14.654-59.488-1.922-4.476-4.313-8.887-6.638-13.149a422.177 422.177 0 01-2.956-5.504c-8.352-15.981-19.666-27.397-34.568-34.893-4.556-2.289-9.178-2.263-14.063-2.224-2.009.012-4.091.025-6.174-.13a.925.925 0 01-.188-.026l.013-.006zm-216.572 23.793c-3.48 0-6.994-1.713-10.253-5.083a47.525 47.525 0 01-9.117-13.479c-2.406-5.368-2.829-9.727-1.304-13.323 1.458-3.434 4.663-6.079 9.789-8.084a.602.602 0 01.565.071.549.549 0 01.396-.11c13.747 1.132 21.158 12.482 23.328 21.854 1.458 6.312-1.834 13.31-7.828 16.641-1.82 1.009-3.695 1.513-5.576 1.513zm-10.32-39.031a.386.386 0 01-.134.071c-4.831 1.888-7.828 4.339-9.165 7.483-1.404 3.311-.981 7.392 1.297 12.476 2.13 4.753 5.287 9.429 8.902 13.168 4.616 4.773 9.742 5.969 14.432 3.369 5.577-3.098 8.64-9.598 7.283-15.451-2.083-9.016-9.178-19.926-22.313-21.006a.564.564 0 01-.295-.11h-.007zm404.507 58.428c-2.09 0-4.15-.259-6.09-.783-16.85-4.553-27.67-15.386-33.08-33.133-4.14-13.608-.84-20.683 12.2-26.11a.567.567 0 01.57.071c.1-.077.23-.122.38-.116 21.96 1.332 42.54 17.275 48.95 37.9.81 2.613-.06 5.905-.66 7.632-3.27 9.546-13.1 14.539-22.27 14.539zm-26.4-59.094c-.04.025-.08.051-.12.071-12.53 5.213-15.55 11.7-11.56 24.796 5.29 17.353 15.85 27.953 32.3 32.39 9.93 2.684 23.15-1.921 26.97-13.051.55-1.604 1.37-4.644.65-6.972-6.28-20.205-26.44-35.818-47.93-37.124a.547.547 0 01-.31-.117v.007z" fill="#222" fill-opacity=".02"/><path d="M909.685 423.282c-5.872 0-11.771-.363-17.522-.718-3.252-.201-6.618-.408-9.917-.544-10.609-.439-20.983-4.249-30-11.014-20.115-15.082-31.168-36.322-32.841-63.124-1.834-29.343 3.03-57.121 14.466-82.565 9.668-21.511 23.703-44.49 54.509-51.838a.605.605 0 01.484.097.741.741 0 01.349-.116h2.244c7.969.032 15.494.052 23.079 3.919 15.574 7.943 27.621 19.908 36.819 36.575 5.247 9.507 10.333 19.292 15.251 28.754 6.296 12.108 12.806 24.636 19.706 36.678 11.382 19.869 24.188 34.977 39.148 46.192 6.67 4.993 12.73 10.438 18.02 16.188 2.87 3.124 7.69 8.356 2.17 13.925-3.38 3.415-7.03 6.952-11.22 9.404-10.47 6.15-22.35 7.405-33.83 8.621-3.994.42-8.12.86-12.111 1.494-8.593 1.371-17.408 2.264-25.934 3.13-3.158.324-6.309.641-9.46.983-3.521.382-7.035.809-10.549 1.229-9.05 1.093-18.409 2.219-27.654 2.613a127.13 127.13 0 01-5.207.104v.013zM888.864 214.45a.634.634 0 01-.209.097c-30.328 7.23-44.182 29.944-53.743 51.21-11.368 25.282-16.199 52.892-14.378 82.061 1.66 26.478 12.564 47.446 32.405 62.328 8.835 6.623 18.987 10.348 29.354 10.781 3.312.136 6.685.343 9.937.544 7.431.452 15.104.925 22.608.608 9.198-.388 18.537-1.514 27.567-2.607 3.521-.427 7.042-.847 10.562-1.235 3.151-.343 6.316-.666 9.474-.983 8.506-.86 17.307-1.753 25.867-3.118 4.024-.64 8.163-1.08 12.172-1.5 11.36-1.203 23.1-2.445 33.36-8.466 4.07-2.387 7.66-5.866 10.99-9.229 4.43-4.47 1.34-8.596-2.2-12.444-5.24-5.698-11.25-11.098-17.87-16.053-15.09-11.305-27.986-26.523-39.442-46.521-6.914-12.062-13.424-24.596-19.726-36.717-4.918-9.462-10.004-19.241-15.238-28.735-9.091-16.473-20.976-28.289-36.349-36.122-7.337-3.744-14.727-3.764-22.555-3.783h-2.244a.682.682 0 01-.342-.123v.007zm-210.022 95.978a31.54 31.54 0 01-5.69-.53c-11.772-2.134-22.152-7.625-30.02-15.872-22.776-23.871-37.322-49.244-44.464-77.559-3.514-13.944 6.167-30.87 19.551-34.175 3.044-.75 6.074-1.526 9.104-2.302l4.065-1.035c.262-.065.531-.071.779-.019.114-.02.229-.033.35-.033.927 0 1.861-.045 2.795-.09 2.136-.104 4.347-.214 6.53.194 37.618 6.985 60.785 25.928 70.816 57.917 6.618 21.097 3.198 41.367-10.159 60.259-6.181 8.737-14.277 13.245-23.65 13.245h-.007zm-46.668-128.272l-3.978 1.016c-3.043.776-6.087 1.559-9.137 2.309-10.535 2.6-20.512 16.66-17.093 30.216 7.001 27.759 21.285 52.66 43.659 76.111 7.37 7.722 17.099 12.864 28.151 14.869 13.095 2.374 21.319-4.857 25.908-11.344 12.927-18.284 16.105-37.079 9.715-57.458-9.628-30.708-31.941-48.915-68.202-55.641-1.78-.33-3.695-.239-5.718-.136-.994.052-1.981.097-2.962.097-.115 0-.236-.013-.343-.032v-.007z" fill="#222" fill-opacity=".02"/><path d="M683.095 334.799c-.907 0-1.814-.033-2.727-.104-16.099-1.242-31.263-9.371-43.847-23.509-12.383-13.912-23.583-29.202-34.407-43.987l-3.971-5.413c-8.378-11.409-16.568-23.232-24.483-34.673a2930.397 2930.397 0 00-11.69-16.809c-2.097-2.988-4.3-5.982-6.437-8.88-4.421-6.002-8.996-12.211-12.846-18.685-7.31-12.282-8.11-19.118 6.436-27.196 6.645-3.687 14.325-5.582 22.945-7.515 7.37-1.65 14.969-2.827 22.32-3.971 3.198-.498 6.403-.997 9.594-1.533a.587.587 0 01.443.103.581.581 0 01.35-.116h6.53c4.764 0 9.521.013 14.285 0h.268c14.352 0 28.118 3.415 40.911 10.16 25.84 13.615 44.088 31.181 55.792 53.714 10.334 19.888 13.801 39.711 10.602 60.595-3.608 23.561-10.319 40.157-21.775 53.803-7.639 9.1-17.596 14.009-28.286 14.009l-.007.007zm-78.676-191.292a.574.574 0 01-.249.103 796.523 796.523 0 01-9.608 1.533c-7.33 1.138-14.909 2.315-22.239 3.958-8.533 1.908-16.125 3.777-22.635 7.393-13.794 7.657-13.068 13.853-6.02 25.708 3.823 6.429 8.385 12.619 12.786 18.595 2.136 2.904 4.347 5.905 6.45 8.899 3.923 5.588 7.807 11.202 11.697 16.816 7.915 11.428 16.098 23.244 24.47 34.647l3.964 5.413c10.81 14.766 21.99 30.029 34.346 43.902 12.383 13.912 27.278 21.912 43.074 23.135 11.328.879 22.004-3.92 30.039-13.505 11.315-13.485 17.96-29.912 21.534-53.273 3.165-20.658-.275-40.267-10.495-59.948-11.596-22.326-29.697-39.737-55.322-53.242-12.705-6.693-26.384-10.089-40.628-10.024-4.764.013-9.521.013-14.284 0h-6.531a.61.61 0 01-.349-.117v.007z" fill="#222" fill-opacity=".02"/><path d="M686.871 356.742c-6.121 0-12.544-1.241-19.162-3.751-12.241-4.644-22.03-12.806-29.992-20.179-15.312-14.183-27.91-30.921-40.091-47.103-2.822-3.745-5.637-7.49-8.492-11.208-17.214-22.43-32.68-40.274-52.205-54.451-7.659-5.562-16.259-10.206-24.577-14.695-5.328-2.878-10.838-5.846-16.065-9.048l-1.942-1.183c-9.117-5.562-18.543-11.312-26.398-18.459-7.901-7.198-10.064-16.835-6.087-27.144 6.047-15.691 19.384-22.993 30.322-27.597 19.189-8.085 39.97-9.501 60.066-10.866 3.151-.213 6.302-.427 9.446-.666 2.735-.207 5.476-.388 8.21-.576 7.788-.517 15.837-1.054 23.644-2.199 20.815-3.052 40.87-9.016 63.062-15.93a.565.565 0 01.517.091.629.629 0 01.33-.116c8.768-.285 15.332 3.175 20.68 10.904a5067.307 5067.307 0 0047.139 66.94c17.368 24.247 25.934 50.253 25.457 77.3-.329 18.465-3.675 37.008-9.95 55.111-3.944 11.383-9.205 24.589-18.296 36.25-9.56 12.269-21.836 18.562-35.622 18.569l.006.006zm-29.73-264.097a.485.485 0 01-.175.084c-22.232 6.927-42.342 12.909-63.237 15.968-7.854 1.152-15.93 1.688-23.737 2.206-2.735.181-5.469.362-8.204.569-3.144.239-6.302.453-9.453.666-20.002 1.365-40.682 2.768-59.696 10.782-15.944 6.719-25.108 15.037-29.717 26.976-3.81 9.869-1.747 19.092 5.805 25.967 7.773 7.076 17.153 12.793 26.223 18.329l1.942 1.184c5.207 3.182 10.696 6.144 16.011 9.016 8.344 4.508 16.978 9.171 24.704 14.772 19.633 14.254 35.166 32.163 52.44 54.67 2.856 3.719 5.671 7.464 8.493 11.215 12.154 16.15 24.718 32.843 39.956 46.955 7.881 7.302 17.563 15.38 29.623 19.952 21.003 7.968 39.99 2.833 53.461-14.455 8.99-11.538 14.21-24.641 18.127-35.94 6.242-17.999 9.568-36.432 9.897-54.787.477-26.815-8.022-52.607-25.256-76.66a5032.533 5032.533 0 01-47.145-66.953c-5.113-7.38-11.348-10.678-19.699-10.42a.596.596 0 01-.363-.11v.014zm611.769 63.169c-5.65 0-11.44-.731-17.22-3.292-22.82-10.115-41.16-21.233-56.04-33.987l-2.09-1.779c-7.75-6.59-15.78-13.407-19.96-23.587-4.3-10.465-3.87-13.776 7.44-18.847.2-.09.43-.058.59.065a.46.46 0 01.36-.117c2.17.072 4.37.072 6.54.072 4.73 0 9.62 0 14.33.743 17.51 2.775 34.55 10.66 53.62 24.823 11.19 8.311 23.68 18.446 30.15 33.567 2.31 5.381 1.88 12.133-1.06 16.803-1.91 3.014-4.69 4.825-7.84 5.096-2.89.246-5.84.453-8.83.453l.01-.013zm-87.28-80.567s-.07.045-.11.065c-10.76 4.825-10.91 7.612-6.87 17.456 4.08 9.934 12 16.667 19.65 23.173l2.09 1.785c14.81 12.683 33.05 23.743 55.77 33.813 8.59 3.809 16.95 3.466 25.48 2.742 3.57-.304 5.75-2.652 6.96-4.572 2.76-4.385 3.16-10.743.99-15.82-6.37-14.876-18.72-24.894-29.8-33.121-18.93-14.047-35.81-21.867-53.12-24.609-4.62-.73-9.47-.718-14.14-.73-2.16 0-4.39 0-6.57-.072a.558.558 0 01-.33-.11z" fill="#222" fill-opacity=".02"/><path d="M1286.82 183.126c-5.31 0-10.73-.756-16.09-1.662-21.33-3.615-39.42-14.506-54.31-24.686l-1.17-.796c-20.72-14.183-42.16-28.845-61.85-44.892-13.32-10.859-29.83-25.986-39.33-46.728-3.59-7.826-2.06-12.916-.14-15.807 2.65-4.01 7.73-6.37 13.91-6.474 1.68-.026 3.43-.407 5.11-.776.81-.175 1.62-.35 2.42-.491.17-.026.33.013.45.103a.596.596 0 01.41-.11c2.74.278 5.48.517 8.23.763 5.96.53 12.13 1.074 18.15 1.992 22.32 3.422 39.05 7.541 54.24 13.35 24.92 9.533 47.79 22.92 67.96 39.782 14.19 11.855 29.78 26.29 35.23 47.543 2.61 10.193.78 18.665-5.77 26.653-7.8 9.52-17.41 12.23-27.47 12.23l.02.006zM1135.84 41.784a.581.581 0 01-.24.103c-.8.142-1.59.31-2.38.485-1.74.382-3.54.77-5.35.802-5.8.097-10.53 2.27-12.97 5.97-2.54 3.822-2.46 8.932.22 14.772 9.41 20.54 25.8 35.552 39.03 46.334 19.64 16.02 41.06 30.669 61.78 44.833l1.16.796c14.78 10.108 32.73 20.922 53.84 24.499 15.17 2.567 30.94 3.9 42.48-10.167 6.4-7.807 8.11-15.736 5.55-25.715-5.37-20.942-20.81-35.229-34.87-46.981-20.07-16.783-42.83-30.107-67.63-39.595-15.11-5.782-31.76-9.876-54-13.284-5.98-.919-12.13-1.462-18.08-1.986-2.74-.245-5.5-.485-8.24-.763a.614.614 0 01-.29-.11l-.01.007zM534.584 533.417c-5.261 0-10.676-.73-16.071-1.752-12.773-2.419-24.88-9.165-35.227-15.303-26.055-15.444-51.418-33.637-75.391-54.069-12.161-10.361-25.988-22.688-36.274-37.913-11.221-16.608-15.386-33.424-12.383-49.968 4.152-22.844 17.14-39.356 38.613-49.057 10.77-4.87 21.903-7.548 32.391-9.869.248-.052.497-.059.726-.007.134-.026.282-.039.43-.032 2.942.136 5.952.213 8.862.278 6.483.155 13.182.317 19.712 1.209 21.138 2.904 39.89 12.741 55.732 29.24 20.519 21.369 32.103 47.744 40.729 70.723 7.861 20.949 15.467 43.695 17.845 68.033.484 4.915.74 14.403-2.942 22.74-8.93 20.224-22.286 25.754-36.759 25.754l.007-.007zm-103.61-214.736c-10.293 2.283-21.218 4.908-31.672 9.636-20.412 9.229-32.761 24.926-36.704 46.657-2.856 15.704 1.142 31.718 11.878 47.615 10.052 14.882 23.691 27.028 35.677 37.247 23.825 20.308 49.033 38.385 74.914 53.726 10.091 5.983 21.883 12.567 34.098 14.875 21.775 4.12 38.444 1.947 49.046-22.067 3.387-7.671 3.138-16.538 2.688-21.142-2.345-23.976-9.87-46.477-17.657-67.225-8.506-22.669-19.914-48.668-40.024-69.61-15.298-15.93-33.372-25.424-53.716-28.218-6.336-.867-12.94-1.029-19.323-1.184-2.929-.071-5.966-.142-8.943-.285-.087 0-.174-.013-.262-.032v.007z" fill="#222" fill-opacity=".02"/><g filter="url(#filter0_f_213_59)"><ellipse cx="1204.24" cy="364.069" rx="203.242" ry="94.981" fill="#D48BF7"/></g><g filter="url(#filter1_f_213_59)"><ellipse cx="222.523" cy="90.899" rx="203.242" ry="94.981" fill="#CF9EE6"/></g></g><defs><filter id="filter0_f_213_59" x="501" y="-230.912" width="1406.48" height="1189.96" filterUnits="userSpaceOnUse" color-interpolation-filters="sRGB"><feFlood flood-opacity="0" result="BackgroundImageFix"/><feBlend in="SourceGraphic" in2="BackgroundImageFix" result="shape"/><feGaussianBlur stdDeviation="250" result="effect1_foregroundBlur_213_59"/></filter><filter id="filter1_f_213_59" x="-480.719" y="-504.082" width="1406.48" height="1189.96" filterUnits="userSpaceOnUse" color-interpolation-filters="sRGB"><feFlood flood-opacity="0" result="BackgroundImageFix"/><feBlend in="SourceGraphic" in2="BackgroundImageFix" result="shape"/><feGaussianBlur stdDeviation="250" result="effect1_foregroundBlur_213_59"/></filter></defs></svg>