<svg width="15" height="15" fill="none" xmlns="http://www.w3.org/2000/svg"><path fill-rule="evenodd" clip-rule="evenodd" d="M7.083 13.109l-3.247 1.783a.878.878 0 01-1.21-.393.975.975 0 01-.091-.595l.62-3.777a.964.964 0 00-.258-.83L.271 6.622a.967.967 0 01-.016-1.325.884.884 0 01.513-.274l3.63-.55a.9.9 0 00.675-.514L6.696.523a.88.88 0 011.608 0l1.623 3.436a.9.9 0 00.676.513l3.629.551c.49.075.83.55.759 1.063a.953.953 0 01-.262.536l-2.626 2.675a.964.964 0 00-.258.83l.62 3.777c.084.51-.244.995-.733 1.082a.862.862 0 01-.569-.094L7.917 13.11a.863.863 0 00-.834 0z" fill="#F3D327"/></svg>