<svg width="83" height="50" fill="none" xmlns="http://www.w3.org/2000/svg"><g clip-path="url(#clip0_65_78)"><path fill-rule="evenodd" clip-rule="evenodd" d="M16.172.1c0 .065-.288.13-.64.145-1.11.043-1.487.121-1.627.335-.11.171-.136.173-.137.006-.002-.157-.05-.164-.215-.03-.14.114-.245.122-.307.024-.088-.139-.318-.069-1.513.455a2.81 2.81 0 01-.677.174c-.523.06-1.73.549-2.705 1.099-.124.07-.699.341-1.278.604-1.563.708-2.558 1.403-4 2.791C1.671 7.051.897 8.234.278 9.972c-.297.836-.336 1.114-.214 1.545.246.868 1.18 1.319 1.18.57 0-.202-.06-.367-.132-.367-.072 0-.132-.094-.132-.207 0-.251.51-.151.766.15.241.283.401.255.512-.09.054-.162.212-.292.353-.292.25 0 .418-.256 1.07-1.638.421-.895 1.375-1.94 2.2-2.412 2.264-1.295 4.693-1.878 7.771-1.867 1.137.004 2.068-.045 2.068-.108 0-.062.186-.026.413.084.356.172.808.237 2.82.415.166.014.368.068.45.118.164.1 1.006.295 1.534.356.182.02.417.088.522.152.105.064.493.133.86.155.368.021.716.113.774.205.058.092.379.178.712.19.334.013.581.063.552.111-.079.126 1.12.492 1.237.379.053-.052.172.004.263.124.091.122.59.304 1.11.409.52.104.898.235.84.291-.058.058-.026.112.07.122.392.04.455.059.563.165.063.06.271.11.464.11.192 0 .35.058.35.127 0 .068.424.307.94.525 1.346.572 1.595.693 2.52 1.23 1.359.788 1.406.816 1.976 1.237.302.22.623.403.714.403.091 0 .166.073.166.162 0 .089.102.125.226.078.124-.047.225-.005.227.095 0 .098.235.335.523.525.287.19.685.488.884.661l1.384 1.194c.563.484 1.18 1.037 1.37 1.23.302.301.383.322.613.153.226-.166.237-.165.077.01-.215.235-.257.645-.053.523.073-.045.175.022.225.148.079.198.159.184.58-.104.27-.184.406-.232.302-.107-.103.126-.142.27-.087.324.054.053-.008.096-.138.096-.163 0-.212.092-.159.293.088.33.209.366.447.136.116-.113.142-.061.095.184-.051.264.087.464.611.891.383.31.718.486.771.404.14-.223.526-.176.526.065 0 .117-.08.259-.175.318-.12.072-.144.026-.08-.139.099-.25-.113-.346-.257-.118-.119.188.259.899.48.899.108 0 .233.1.28.221.047.12.156.176.244.125.094-.056.113-.025.047.08-.144.23.306.897.605.897.127 0 .19.067.136.148-.052.081.099.335.332.564.235.23.508.59.608.806.1.213.25.39.335.39.085 0 .154.073.154.161 0 .231.773 1.093.938 1.044.075-.021.094.028.04.113-.053.084.112.353.365.601.254.248.461.483.461.525 0 .142.581.798.69.78.062-.01.2.191.31.447.11.255.334.607.496.78.161.173.699.843 1.193 1.489.495.645 1.09 1.38 1.324 1.633.233.252.594.678.8.945.207.268.665.783 1.015 1.143.353.36.64.704.64.765 0 .06.236.254.526.428.29.175.526.382.526.46 0 .256.816 1.169 1.24 1.389.228.116.414.302.414.41 0 .434.996.835 1.222.493.058-.088.133-.08.197.02.057.09.032.163-.056.163-.414 0-.066.58.874 1.458.898.839 1.004.991.811 1.167-.177.162-.246.166-.34.018-.072-.116-.195-.14-.322-.061-.31.188-.732.223-.732.059 0-.257-1.079-.165-1.312.11-.173.205-.202.211-.144.027.05-.162-.026-.227-.251-.22-.243.008-.32-.071-.305-.322.014-.267-.024-.3-.188-.165-.18.146-.254.095-.237-.162.003-.041-.194-.088-.439-.105-.253-.017-.405.03-.354.11.15.238-.328.158-.538-.09-.152-.179-.43-.22-1.222-.184-.746.035-1.026-.001-1.025-.135 0-.101-.067-.184-.15-.184a.155.155 0 00-.15.159c0 .162-.83.055-1.128-.146-.177-.12-1.408-.081-1.54.048-.05.048-.214-.022-.366-.154-.152-.134-.276-.173-.276-.09 0 .085-.232.149-.517.141-.285-.008-.484-.067-.442-.132.041-.066-.048-.117-.197-.116-.54.005-.923.178-.996.452-.041.154-.154.28-.25.28-.095 0-.134-.062-.085-.137.047-.074.007-.183-.09-.243-.11-.065-.136-.042-.069.064.065.102.01.17-.133.17-.142 0-.224.102-.197.251.031.182-.074.26-.384.285-.454.038-.861.26-1.414.775-.187.173-.339.246-.339.162 0-.243-.274-.178-.603.142-.255.249-.272.34-.114.587.103.16.476.408.827.55.352.142.64.341.64.446 0 .146-.07.15-.317.022-.246-.128-.293-.127-.207.01.08.125.023.15-.194.083-.17-.053-.351-.025-.406.06-.055.087-.163.118-.241.07-.079-.047-.108-.14-.068-.206.043-.066-.058-.155-.222-.197-.377-.096-.537.125-.186.258.249.093.249.105 0 .243-.34.185-.358.637-.02.51.162-.06.217-.026.165.105-.042.108.066.282.24.388.313.192 2.386.78 4.693 1.336.662.159 1.339.352 1.503.428.378.175 2.61.806 3.61 1.022l2.766.608c1.107.245 2.105.412 2.218.37.114-.043.206-.02.206.048s.423.194.94.279c.517.084 1.584.293 2.368.464.787.172 1.598.33 1.805.354.207.023.512.084.678.137a5.8 5.8 0 00.752.16c.248.036.754.114 1.126.175.373.06.89.115 1.151.12.262.005.448.051.416.103-.033.051.16.126.427.165a52.7 52.7 0 011.692.302c3.21.619 8.03.88 8.316.452.06-.089.293-.206.52-.26.32-.076.413-.186.413-.488 0-.213.043-.347.094-.296.052.052.288-.006.527-.126.238-.12.432-.172.432-.115 0 .275.74-.62.782-.945.028-.226.151-.386.316-.41.395-.054.706-.35.706-.666 0-.152.068-.276.15-.276.264 0 .162-.563-.112-.633-.161-.04-.105-.073.15-.084.227-.01.42-.1.43-.201.083-1.005.069-1.038-.735-1.678-.459-.365-.952-.633-1.165-.633-.213 0-.372-.083-.373-.184 0-.125-.047-.114-.143.033-.12.185-.155.179-.24-.038a.441.441 0 00-.383-.252c-.157 0-.285-.06-.285-.137 0-.077-.124-.175-.274-.221-.15-.047-.505-.251-.785-.454l-.512-.368.521.094.522.093-.64-.62c-.525-.511-.638-.718-.638-1.173 0-.304-.096-.63-.212-.723-.116-.096-.192-.334-.17-.532.021-.198 0-.36-.052-.36-.05 0-.099-.191-.108-.424a2.251 2.251 0 00-.138-.696c-.147-.327-.133-.28-.282-1.005-.066-.323-.163-.653-.215-.734a1.435 1.435 0 01-.14-.441c-.068-.427-1.418-4.374-1.56-4.555-.223-.288-.297-1.122-.117-1.334.141-.165.13-.19-.053-.122-.18.067-.316-.193-.631-1.207a68.116 68.116 0 00-.957-2.908 14.545 14.545 0 01-.307-1.027c-.083-.323-.566-2.007-1.072-3.741-1.12-3.842-1.442-5.514-1.123-5.825.223-.219.27-.38.229-.797-.013-.13.088-.28.226-.332.294-.11.128-.361-.556-.836-.39-.271-.455-.276-.865-.07a2.644 2.644 0 00-.736.587c-.162.2-.466.394-.677.432-.89.157-1.499.787-2.002 2.072-.542 1.382-.363 3.064.978 9.244 1.527 7.036 2.276 10.431 2.337 10.592.13.344-.549.123-.748-.243-.211-.39-1.246-1.255-1.364-1.141-.106.104.105.548.26.548.077 0 .323.181.548.404.226.221.658.602.96.843.488.388.937 1.247.654 1.247-.093 0-1.37-1.049-2.455-2.015-.202-.18-.437-.285-.521-.234-.085.052-.113.028-.063-.053.097-.154-1.844-2.046-2.04-1.987-.062.019-.112-.048-.112-.15 0-.1-.44-.602-.978-1.115-.537-.513-.977-.965-.977-1.003 0-.17-.967-1.052-1.08-.984-.068.04-.123-.056-.123-.215s-.052-.312-.114-.338c-.063-.026-.345-.346-.627-.71a11.733 11.733 0 00-.99-1.107c-.261-.246-.662-.756-.888-1.13-.225-.375-.54-.723-.7-.771-.16-.05-.29-.187-.29-.306 0-.296-.619-1.09-.775-.997-.07.042-.127-.023-.127-.145 0-.121-.17-.399-.376-.617-.207-.218-.376-.44-.376-.495 0-.055-.21-.326-.465-.602a28.5 28.5 0 01-1.153-1.384 30.174 30.174 0 00-.952-1.173c-.146-.16-.588-.656-.98-1.1-.391-.444-.836-.893-.988-1-.152-.105-.275-.253-.275-.33 0-.328-4.582-4.81-6.853-6.7-.41-.34-.848-.706-.975-.812-.127-.106-.5-.388-.827-.628-.327-.238-.63-.474-.672-.524-.211-.25-1.384-.864-1.508-.79-.078.047-.107-.006-.063-.118.055-.139-.236-.363-.904-.698-.541-.271-.985-.542-.985-.603 0-.061-.288-.193-.639-.295-.35-.101-.725-.297-.83-.438-.168-.224-.694-.265-.896-.068-.084.082-.644-.376-.644-.53 0-.19.718-.128.93.081.24.234.574.156.574-.134 0-.122-.149-.207-.357-.207-.197 0-.442-.098-.544-.218-.102-.12-.24-.186-.308-.145-.068.04-.162.012-.209-.061-.047-.075-.22-.101-.386-.06-.166.043-.301.012-.301-.071 0-.083-.12-.139-.263-.128-.145.011-.246-.065-.224-.17.03-.143-.032-.152-.254-.037-.415.217-.66.19-.56-.062.098-.251-.139-.448-.277-.228-.051.081-.242.226-.424.32-.288.15-.307.143-.141-.053.155-.183.147-.26-.036-.407-.124-.1-.335-.142-.47-.092-.175.065-.22.03-.157-.131.105-.268-.073-.29-.33-.039-.149.145-.213.142-.313-.019-.07-.11-.198-.159-.282-.107-.085.051-.262-.011-.393-.139-.13-.128-.239-.178-.24-.11 0 .067-.058.034-.127-.07-.099-.152-.163-.146-.316.037-.132.154-.14.227-.026.227.093 0 .17.066.17.147 0 .279-.253.146-.425-.223-.144-.307-.247-.357-.626-.291-.359.062-.453.024-.453-.173 0-.198-.038-.215-.186-.069-.15.145-.144.207.02.307.17.103.157.192-.077.503-.285.382-.66.516-.66.236 0-.102-.104-.097-.313.012-.172.09-.358.117-.413.06-.055-.058-.016-.135.088-.172.103-.036.188-.192.188-.348 0-.155.075-.28.169-.28.117 0 .111-.069-.019-.22-.153-.179-.144-.22.047-.22.128 0 .28.144.337.318.094.292.116.296.25.06.196-.34.005-.513-.689-.622-.492-.078-.545-.056-.471.188.055.183.022.166-.096-.053-.2-.372-.514-.455-.374-.098.05.128.09.326.09.441 0 .116.135.209.301.209.362 0 .4.266.057.394-.148.055-.3-.004-.384-.15-.21-.369-.468-.302-.265.068.122.22.122.282.005.21-.09-.055-.207.003-.257.13-.05.126-.185.228-.3.228-.113 0-.209.07-.209.156s-.077.11-.17.053c-.11-.067-.044-.171.187-.297.198-.108.292-.201.209-.21-.083-.009-.016-.072.15-.143.268-.112.255-.127-.108-.135-.313-.008-.387-.066-.317-.248.079-.198.044-.212-.21-.078-.167.087-.352.11-.413.053-.06-.057-.096-.006-.077.115.054.37.003.588-.136.588-.197 0-.315-.572-.138-.678.096-.058.075-.14-.052-.22-.169-.106-.166-.152.022-.275.2-.131.2-.164 0-.292-.2-.128-.2-.145 0-.151.179-.005.171-.037-.036-.156-.278-.159-.866.048-.866.306 0 .074-.102.1-.225.053-.124-.047-.226-.042-.226.007 0 .05.174.158.387.237.343.128.362.169.161.363-.288.28-.412.28-.3 0 .062-.16-.02-.22-.3-.22-.213 0-.473-.091-.58-.204-.162-.17-.251-.14-.57.206l-.375.41-.022-.352c-.013-.193.039-.352.113-.352.073 0 .134-.066.134-.147 0-.271-.228-.15-.487.257-.244.385-.257.388-.26.074-.001-.181-.072-.33-.155-.33s-.15.07-.15.155c0 .086-.07.114-.154.064-.084-.05-.114-.154-.066-.23.047-.074-.018-.136-.148-.136s-.235-.066-.235-.147c0-.08.067-.146.15-.146.083 0 .15-.103.15-.23 0-.126-.067-.188-.15-.138-.083.05-.15.026-.15-.051 0-.078-.12-.12-.264-.094L19.78.57c-.04.008 0 .063.093.122.269.173.391.73.188.852-.123.074-.154.036-.093-.118.063-.16-.017-.25-.27-.296-.197-.038-.386.006-.419.095-.033.089-.108.118-.168.064-.153-.139.202-.736.376-.631.079.046.143.023.143-.052 0-.232-.575-.304-.663-.082-.128.328-.645.241-.744-.125-.088-.324-.09-.324-.313-.036-.125.162-.227.209-.23.108-.003-.102-.11-.184-.24-.184s-.193.065-.14.146c.05.081.021.147-.067.147-.087 0-.16-.064-.16-.142 0-.078-.112-.1-.25-.048-.157.059-.213.035-.152-.063.055-.085-.008-.196-.138-.244-.312-.117-.363-.113-.363.03L16.172.1zm2.255.32c0 .082.073.147.16.147.088 0 .118-.065.066-.146-.052-.081-.122-.147-.16-.147-.037 0-.066.066-.066.147zm4.675.233c.007.171.042.206.09.089.044-.106.038-.232-.012-.282-.05-.049-.086.037-.078.193zM20.938.525c.099.034.143.156.097.271-.103.262.339.287.464.027.069-.145.107-.144.177.006.069.145.14.15.3.019.167-.134.212-.12.212.067 0 .13.068.238.15.238a.148.148 0 00.151-.146c0-.081.066-.147.146-.147.08 0 .106.1.058.221-.063.16-.02.197.16.13.175-.066.201-.145.093-.273-.084-.1-.117-.215-.073-.257.044-.042-.195-.062-.528-.044-.334.02-.608-.006-.608-.056 0-.048-.22-.096-.489-.104-.269-.008-.407.012-.308.047l-.002.001zm4.947.446c-.063.06-.26.11-.439.11-.249 0-.337.103-.376.438-.05.437-.048.437.264.16.278-.245.314-.248.314-.033 0 .134.102.243.226.243.255 0 .302-.23.075-.368-.1-.06-.099-.187.005-.376.158-.288.131-.366-.07-.174zm.216.44c0 .06.067.208.149.33.117.177.145.157.147-.111.002-.18-.066-.33-.147-.33-.082 0-.149.05-.149.11zm-3.086.183c.052.081.122.147.16.147.038 0 .066-.066.066-.147 0-.08-.072-.146-.16-.146-.088 0-.117.065-.066.146zM37.38 4.647c0 .086.135.196.3.248.167.051.301.154.301.23 0 .077.13.137.29.137.16 0 .38.086.489.192.11.106.32.237.468.291.148.055 1.13.66 2.18 1.344 2.386 1.552 2.565 1.676 3.104 2.156.244.219.535.354.66.307.187-.07.18-.113-.048-.275a11.93 11.93 0 01-.706-.572c-.24-.21-.821-.622-1.293-.921a27.254 27.254 0 01-1.43-.97 10.72 10.72 0 00-1.203-.755l-1.36-.705c-.403-.207-.815-.444-.917-.526-.102-.083-.227-.108-.28-.056-.054.051-.2.009-.325-.092-.135-.11-.22-.125-.229-.032l-.001-.001zm7.971 5.138c0 .067.17.275.376.466.207.19.376.293.376.229 0-.064.186-.002.414.138l.413.254-.376-.364c-.207-.201-.418-.342-.471-.312-.054.03-.132-.078-.174-.238-.074-.275-.544-.421-.558-.17v-.003zm1.805 1.43c0 .047.338.391.752.765.413.376.751.77.751.88 0 .108.065.158.141.111.079-.046.209.031.29.173.082.142.199.21.26.15s-.366-.57-.95-1.136c-.986-.958-1.244-1.153-1.244-.944v.001zm2.407 2.242c0 .11.185.378.412.597.227.22.65.692.94 1.05.29.356.874 1.001 1.298 1.434.998 1.016 1.228.739.251-.302-1.712-1.825-2.9-2.962-2.902-2.779h.001zm3.551 3.955c-.04.066.124.326.367.579.242.254.441.531.441.615 0 .084.068.154.15.154.084 0 .151.092.151.204 0 .113.102.242.226.289.123.046.225.162.225.257s.304.461.677.813c.373.354.678.69.681.75.003.06.17.29.368.511.358.396.68.527.68.277 0-.207-.924-1.27-1.07-1.23-.073.02-.133-.096-.133-.258s-.066-.293-.147-.293c-.081 0-.254-.204-.385-.452-.14-.263-.323-.42-.439-.377-.124.047-.232-.073-.285-.318-.078-.357-1.131-1.639-1.344-1.639-.049 0-.122.053-.165.118h.002zm3.929 4.694c-.342.069-.184.324.202.324.24 0 .277.069.2.366-.056.217-.03.367.064.367.088 0 .28.197.425.439.147.241.346.441.441.441.096 0 .212.134.256.298.044.163.17.279.28.257.115-.024.184.062.16.2-.022.133.147.398.376.588.229.19.501.532.605.758.103.226.256.37.338.32.083-.05.15.013.15.14 0 .126.063.228.141.228.079 0 .182.13.234.287a.663.663 0 00.386.377c.162.05.293.186.293.3 0 .116.068.211.15.211.084 0 .151-.075.151-.166 0-.22-1.236-1.724-1.428-1.74-.083-.006-.35-.324-.59-.704-.444-.696-.571-.858-1.133-1.461-.17-.181-.309-.38-.309-.442 0-.06-.155-.275-.343-.476-.19-.201-.443-.5-.564-.664-.119-.162-.33-.271-.485-.246v-.002zm17.347 5.607c0 .212.425 1.052.436.86.003-.051-.094-.315-.215-.588-.116-.26-.212-.383-.22-.274v.002zm-12.493.364c-.154.18-.118.242.208.363.216.08.392.237.392.346 0 .201.46.688.651.688.25 0 .043-.416-.488-.99-.486-.523-.602-.589-.763-.405v-.002zm13.159 1.69c.051.08.122.146.16.146.037 0 .065-.065.065-.146 0-.081-.072-.147-.16-.147-.087 0-.117.066-.065.147zm-10.82.864c-.046.072.006.166.115.206.11.04.2-.017.2-.13 0-.231-.19-.277-.317-.076h.001zm.667.593c0 .173.097.303.225.303.129 0 .226.1.226.22s.07.22.155.22c.175 0-.077-.531-.406-.85-.17-.166-.202-.149-.202.107h.002zm.827.891c-.052.081-.022.146.065.146.088 0 .16-.065.16-.146 0-.081-.03-.147-.066-.147-.036 0-.108.066-.16.147zm10.905 2.412c0 .117.06.248.136.295.075.046.102-.05.058-.212-.093-.343-.194-.387-.194-.083zm2.713 7.172c.12.105.405.27.634.363.327.134.414.13.414-.017 0-.103-.226-.267-.5-.364-.647-.229-.822-.222-.548.018zm1.198.451c0 .032.102.096.225.142.124.047.226.02.226-.057 0-.078-.102-.142-.225-.142-.124 0-.226.026-.226.057zm.688.365c-.046.072.12.212.366.312.248.1.45.232.45.293 0 .06.169.143.376.182.617.115.443-.271-.273-.61-.72-.339-.802-.358-.92-.177z" fill="#4580F0"/></g><defs><clipPath id="clip0_65_78"><path fill="#fff" transform="matrix(1 0 0 -1 0 50)" d="M0 0h83v50H0z"/></clipPath></defs></svg>