<svg width="42" height="50" fill="none" xmlns="http://www.w3.org/2000/svg"><path fill-rule="evenodd" clip-rule="evenodd" d="M41.99 16.273l-7.678 6.743v7.013c-.166 3.249-1.548 6.294-3.886 8.593a13.4 13.4 0 01-9.422 3.833c-3.546 0-6.918-1.369-9.423-3.833a12.94 12.94 0 010-18.52 13.4 13.4 0 019.422-3.833H41.99V0l-9.597 8.724H20.886c-5.546.041-10.814 2.191-14.736 6.045C2.201 18.651 0 23.873 0 29.362c0 5.489 2.202 10.711 6.151 14.593C10.101 47.836 15.415 50 21 50c5.585 0 10.9-2.164 14.849-6.045C39.799 40.073 42 34.85 42 29.362c0-2.972-.01-5.952-.014-8.935v-.062c0-1.365-.004-2.734-.004-4.096h.007v.004z" fill="#666"/><path fill-rule="evenodd" clip-rule="evenodd" d="M26.398 30.987c-1.185 0-2.149-.947-2.149-2.112s.964-2.112 2.149-2.112 2.149.947 2.149 2.112-.964 2.112-2.15 2.112zm-5.43 0c-1.186 0-2.15-.947-2.15-2.112s.964-2.112 2.15-2.112c1.185 0 2.148.947 2.148 2.112s-.963 2.112-2.148 2.112zm-5.348 0c-1.186 0-2.15-.947-2.15-2.112s.964-2.112 2.15-2.112c1.184 0 2.148.947 2.148 2.112s-.964 2.112-2.149 2.112z" fill="#666"/></svg>