<svg width="50" height="50" fill="none" xmlns="http://www.w3.org/2000/svg"><path d="M49.996 25.001C49.996 11.247 38.473 0 24.382 0H0v5.554h24.382c10.95 0 19.921 8.76 19.921 19.445 0 10.686-8.973 19.445-19.92 19.445H5.692V36.11c0-4.572 3.854-8.334 8.537-8.334h10.152c1.525 0 2.845-1.29 2.845-2.777s-1.322-2.777-2.845-2.777H14.23c-3.689 0-6.862-2.334-8.042-5.555h18.196c4.667 0 8.538 3.779 8.538 8.334s-3.871 8.334-8.538 8.334H14.232c-1.39 0-2.845 1.553-2.845 2.777v2.777h13c7.807 0 14.228-6.269 14.228-13.888 0-7.62-6.42-13.888-14.229-13.888H.005v2.777c0 4.359 2.135 8.505 5.718 11.111C2.141 27.605.004 31.753.004 36.111V50h24.383C38.477 50 50 38.753 50 24.999l-.004.002z" fill="#666"/></svg>