<svg width="47" height="55" fill="none" xmlns="http://www.w3.org/2000/svg"><path fill-rule="evenodd" clip-rule="evenodd" d="M23.508 42.797l3.215-1.847 5.645-3.238-.01-.023 4.022-2.306v-7.355l-.011-.012V6.096L46.98 0l.02.011v28.017h-.008v13.507l-11.734 6.732-.012-.019L23.492 55l-10.62-6.096.012-.01L0 41.5V28.009h.008v-13.5l11.734-6.736.012.019L23.508 1.04l9.922 5.7v12.195l-3.484-1.998-.004.012-6.45-3.702-6.426 3.686.007.02-6.445 3.701v7.355l.007.019v7.388l6.42 3.687.003-.007 6.45 3.702z" fill="#666"/></svg>