<svg width="338" height="348" fill="none" xmlns="http://www.w3.org/2000/svg"><path d="M12.625 259.674c22.65 31.425 53.775 58.425 92.7 65.325 46.425 8.325 92.7-10.275 132.525-33.15 29.325-16.5 55.35-40.275 65.85-73.05 10.425-32.025 4.575-67.05-8.625-97.425-14.55-32.325-37.95-67.8-70.95-82.5C176.275 17.724 120.775 51.4 83.2 80.8c-5.025 4.125-9.9 8.55-14.4 13.275-41.625 42.825-18.975 78.3 9.525 120.225 10.425 14.925 23.175 31.95 41.1 36.45 12.6 3 26.175-.75 38.7-5.7 16.05-6.45 31.575-15.45 46.425-24.6 15.15-9.075 29.4-22.65 29.1-41.325-.075-17.175-9.225-34.35-18.75-48.75-14.85-21.75-36.15-27.825-60.9-18.975-12.3 4.425-27.6 12.675-36.675 22.425-6.75 7.425-6.525 13.875-2.7 22.95 2.625 6.3 6.9 13.575 10.05 19.875 7.8 15.75 10.65 20.175 28.8 14.85 2.625-.825 5.4-1.8 8.025-2.85 4.8-1.95 9.975-4.35 12.15-8.7 1.65-3.675.225-7.95-1.5-11.625-1.5-3.075-3.6-6.225-5.925-9.225-4.8-6.675 4.125-14.175 9.9-8.25 10.875 11.7 19.05 28.05 7.2 42.15-4.95 5.85-11.475 9.15-18.225 12.15-13.95 6.225-31.125 10.725-44.175-.45-7.425-6.3-11.4-14.85-15.975-22.65-6.9-12.075-15.3-24.825-14.175-39.825.825-13.425 10.2-24.825 20.175-32.7 18.075-13.95 38.775-25.05 62.325-26.475 27.15-1.575 50.325 12.825 65.1 34.95 21.825 31.725 34.65 70.575 8.175 104.025-8.625 11.1-20.1 19.35-31.95 26.475-27.525 16.65-60.825 36.675-94.5 33.15-29.775-3-51.6-26.7-67.425-49.8-10.95-15.975-21.9-31.875-29.625-50.175C5.425 140.8 15.475 103.6 45.85 72.25c17.4-18.075 38.175-32.475 59.775-45 62.55-36.45 126.6-39.525 177.3 18.6 3.6 4.05 7.125 8.55 10.425 12.975 34.725 47.55 56.4 111.075 36.375 168.9-12.6 36.525-41.175 64.275-74.4 82.65-20.325 11.4-41.625 21.225-63.975 28.05-37.125 11.55-78.825 13.65-114.975-2.775C44.8 321.699 20.05 295.824 1.9 267.024c-4.125-7.35 5.7-13.875 10.725-7.35z" fill="url(#paint0_linear_123_3869)"/><defs><linearGradient id="paint0_linear_123_3869" x1=".952" y1="174.109" x2="337.499" y2="174.109" gradientUnits="userSpaceOnUse"><stop stop-color="#B51F2F"/><stop offset="1" stop-color="#43001C"/></linearGradient></defs></svg>