<svg width="70" height="65" fill="none" xmlns="http://www.w3.org/2000/svg"><path d="M68.35 33.4c-6 3.525-22.426 13.65-41.55 30a3.057 3.057 0 01-3.9.075C14.123 56.425 6.623 50.2 1.9 46.3c-2.026-1.725-1.126-5.025 1.5-5.4l21.074-2.925c1.725-.225 2.925-1.95 2.55-3.675l-2.4-11.325c-.525-2.325 1.8-4.275 4.05-3.525l14.175 5.1c1.725.6 3.675-.45 4.05-2.25l3.9-19.05c.6-2.85 4.425-3.375 5.7-.75l13.125 26.925c.675 1.425.15 3.15-1.275 3.975z" fill="url(#paint0_linear_123_3870)"/><defs><linearGradient id="paint0_linear_123_3870" x1=".808" y1="32.451" x2="69.893" y2="32.451" gradientUnits="userSpaceOnUse"><stop stop-color="#B51F2F"/><stop offset="1" stop-color="#43001C"/></linearGradient></defs></svg>