<svg width="19" height="19" fill="none" xmlns="http://www.w3.org/2000/svg"><g clip-path="url(#clip0_123_3631)" fill="#fff"><path d="M6.194 12.22h9.633a.531.531 0 00.51-.386L18.46 4.4a.531.531 0 00-.51-.677H4.969l-.38-1.708a.531.531 0 00-.518-.416H.885a.531.531 0 100 1.062h2.76l1.918 8.629a1.594 1.594 0 00.633 3.055h9.63a.531.531 0 000-1.062h-9.63a.532.532 0 01-.002-1.062zm11.053-7.436l-1.821 6.374H6.622L5.205 4.784h12.042z"/><path d="M5.664 15.937a1.595 1.595 0 003.187 0c0-.878-.715-1.593-1.594-1.593-.878 0-1.593.715-1.593 1.593zm1.593-.531a.532.532 0 11-.001 1.064.532.532 0 01.001-1.064zm5.913.531a1.595 1.595 0 003.188 0c0-.878-.715-1.593-1.594-1.593-.878 0-1.593.715-1.593 1.593zm1.594-.531a.532.532 0 11-.001 1.064.532.532 0 01.001-1.064z"/></g><defs><clipPath id="clip0_123_3631"><path fill="#fff" transform="translate(.354 .5)" d="M0 0h18.128v18.128H0z"/></clipPath></defs></svg>