<svg width="19" height="19" fill="none" xmlns="http://www.w3.org/2000/svg"><g clip-path="url(#clip0_123_3638)"><path d="M9.132 2.466l.135.125.136-.125a5.156 5.156 0 015.478-.96c.63.262 1.203.647 1.685 1.132h0c2.059 2.068 2.058 5.293.002 7.349l-6.724 6.724-.011.011-.01.013a.699.699 0 01-.244.21l.091.178-.091-.178a.702.702 0 01-.931-.267l-.014-.023-.019-.02-6.648-6.648h0C-.09 7.931-.091 4.707 1.965 2.642h0a5.188 5.188 0 013.679-1.536c1.292 0 2.537.486 3.488 1.36zm6.435 1.172h0c-1.448-1.441-3.897-1.445-5.347.001h0l-.453.454h0a.706.706 0 01-1 0h0l-.453-.454a3.76 3.76 0 00-2.67-1.12c-1.002 0-1.954.4-2.68 1.122h0a3.75 3.75 0 00.002 5.347h0l6.16 6.16.141.141.142-.141 6.16-6.16h0c1.494-1.496 1.493-3.848-.002-5.35z" fill="#fff" stroke="#A71B2F" stroke-width=".4"/></g><defs><clipPath id="clip0_123_3638"><path fill="#fff" transform="translate(.224)" d="M0 0h18.13v18.13H0z"/></clipPath></defs></svg>