<svg width="161" height="65" fill="none" xmlns="http://www.w3.org/2000/svg"><path d="M79.863 49.301v6.313h-.643v-1.461c-.526.935-1.52 1.578-2.747 1.578-1.812 0-3.274-1.461-3.274-3.332 0-1.87 1.462-3.332 3.274-3.332 1.227 0 2.22.643 2.747 1.579v-1.462h.643v.117zm-.643 3.157c0-1.52-1.17-2.69-2.689-2.69-1.52 0-2.689 1.17-2.689 2.69s1.17 2.689 2.69 2.689c1.519 0 2.688-1.17 2.688-2.69zm5.318-3.273v.585c-1.11 0-2.104.643-2.104 2.28v3.507h-.643v-6.313h.643v1.227c.41-.935 1.228-1.285 2.104-1.285zm2.747.701v4.15c0 1.11.585 1.17 1.87 1.053v.584c-1.636.234-2.513-.175-2.513-1.578v-4.15H85.24V49.3h1.403v-1.578l.643-.175V49.3h1.87v.643h-1.87v-.058zm11.049 4.093c0 1.052-.936 1.812-2.28 1.812-1.286 0-2.105-.585-2.397-1.403l.526-.292c.234.701.936 1.11 1.87 1.11.878 0 1.638-.409 1.638-1.169 0-1.753-3.858-.76-3.858-3.04 0-.993.876-1.812 2.162-1.812 1.053 0 1.813.468 2.163 1.286l-.526.293c-.292-.643-.935-.935-1.637-.935-.818 0-1.52.409-1.52 1.169 0 1.636 3.859.643 3.859 2.98zm2.631-4.093v4.15c0 1.11.584 1.17 1.87 1.053v.584c-1.636.234-2.513-.175-2.513-1.578v-4.15h-1.403V49.3h1.403v-1.578l.643-.175V49.3h1.87v.643h-1.87v-.058zm8.653-.584v6.313h-.643v-1.228c-.468.936-1.286 1.345-2.28 1.345-1.519 0-2.455-.994-2.455-2.514v-3.916h.643v3.916c0 1.17.643 1.93 1.871 1.93 1.227 0 2.221-.82 2.221-2.514v-3.332h.643zm8.183-2.572v8.885h-.643v-1.462c-.527.994-1.52 1.637-2.748 1.637-1.812 0-3.273-1.461-3.273-3.332 0-1.87 1.461-3.332 3.273-3.332 1.228 0 2.221.643 2.748 1.637V46.73h.643zm-.643 5.728c0-1.52-1.17-2.689-2.689-2.689-1.52 0-2.689 1.17-2.689 2.689 0 1.52 1.169 2.689 2.689 2.689a2.682 2.682 0 002.689-2.689zm2.396-5.202c0-.293.234-.468.526-.468.292 0 .526.234.526.468a.524.524 0 01-.526.526c-.292-.059-.526-.292-.526-.526zm.175 2.046h.643v6.313h-.643v-6.313zm2.158 3.158a3.294 3.294 0 013.332-3.331 3.33 3.33 0 013.332 3.332 3.294 3.294 0 01-3.332 3.332c-1.871-.059-3.332-1.462-3.332-3.332zm6.021 0c0-1.519-1.17-2.688-2.689-2.688-1.52 0-2.689 1.169-2.689 2.689s1.169 2.689 2.689 2.689c1.519 0 2.689-1.17 2.689-2.69zm-31.509-8.008h-5.086v-4.15c-2.572 2.864-5.67 4.325-9.236 4.325-2.63 0-4.793-.76-6.313-2.221-1.578-1.52-2.338-3.566-2.338-6.197V20.134c0-.993-.117-1.578-.35-1.87-.235-.234-.76-.41-1.637-.41v-.291h7.13v.292c-.759 0-1.285.117-1.577.35-.293.234-.468.819-.468 1.696v14.73c0 3.098.701 5.32 2.163 6.606 1.461 1.344 3.098 1.987 4.91 1.987h.059c4.267-.058 7.657-3.624 7.657-7.891V21.187c0-1.579-.117-2.514-.41-2.865-.291-.292-.7-.467-1.285-.467h-.234v-.293h7.073v.293c-.877.058-1.403.175-1.637.409-.233.234-.35.701-.35 1.403v21.862c0 .877.058 1.403.117 1.695.058.292.233.468.526.643.233.175.701.292 1.344.292v.293h-.058zm15.898-26.482l1.286 3.332-.234.059s-.35-.351-.993-1.053a8.058 8.058 0 00-2.339-1.636c-.876-.41-1.87-.585-2.922-.585-1.812 0-3.274.526-4.384 1.579-1.053 1.052-1.637 2.338-1.637 3.799 0 .994.234 1.87.76 2.572.526.76 1.578 1.403 3.156 2.046 2.748.935 4.618 1.637 5.67 2.104 1.053.468 1.988 1.286 2.923 2.397.935 1.11 1.403 2.572 1.403 4.326 0 .701-.058 1.403-.234 2.104-.175.643-.467 1.286-.818 1.929a9.027 9.027 0 01-1.345 1.695 6.054 6.054 0 01-1.636 1.17c-.526.233-1.403.467-2.572.584-1.169.117-1.929.175-2.339.175h-7.19v-7.774h.293c0 2.572.643 4.384 1.812 5.436 1.169.994 3.04 1.52 5.553 1.52 2.28 0 4.033-.526 5.203-1.637 1.169-1.052 1.753-2.397 1.753-3.916 0-.936-.234-1.696-.643-2.339a5.427 5.427 0 00-1.753-1.695c-.76-.467-2.163-1.11-4.209-1.812-2.046-.701-3.507-1.344-4.326-1.87-.818-.527-1.52-1.345-2.104-2.456a7.01 7.01 0 01-.819-3.331c0-2.105.702-3.8 2.163-5.203 1.403-1.403 3.274-2.104 5.612-2.104.877 0 1.87.117 2.923.292 1.052.234 1.636.35 1.753.41.117-.118.176-.118.234-.118zm26.131-1.286l-1.286 3.274h-.293c.059-.176.059-.468.059-.76s-.117-.468-.293-.526c-.175-.059-.526-.117-.935-.117h-7.014v22.914c0 .935.058 1.578.233 1.929.176.35.351.585.643.643.234.117.702.117 1.286.117v.292h-7.248v-.292c.935-.059 1.461-.234 1.695-.526.234-.292.351-.877.351-1.812V18.438h-6.722c-.702 0-1.111.058-1.345.117-.234.058-.292.292-.292.584 0 .176.058.41.117.702h-.292l-1.286-3.274h.292c.234.41.409.702.643.819.234.117.643.117 1.403.117h17.828c.702 0 1.228-.059 1.52-.117.293-.117.526-.351.702-.819h.234v.117zm7.071 15.432h-2.456l-4.091 10.112c-.293.702-.41 1.17-.41 1.345 0 .409.293.584.877.584v.293h-3.975v-.293c.526 0 .994-.116 1.345-.409.351-.234.76-.935 1.227-2.046l9.762-24.55h.468l9.586 23.732c0 .117.234.701.76 1.695.468 1.052 1.228 1.52 2.222 1.52v.292h-6.255V44.1c.585 0 .877-.234.877-.701 0-.293-.117-.819-.409-1.462-.059-.058-.117-.117-.117-.234a.255.255 0 00-.059-.175l-1.812-4.501a8.238 8.238 0 00-7.54-4.91zm-2.163-.76h7.248l-3.624-9.178-3.624 9.178z" fill="#15141B"/><path d="M2.057 49.48c4.033 5.553 9.528 10.347 16.367 11.574 8.184 1.462 16.367-1.812 23.44-5.845 5.203-2.923 9.762-7.132 11.633-12.919 1.87-5.67.818-11.866-1.52-17.244-2.572-5.728-6.722-11.983-12.568-14.555-8.476-3.74-18.296 2.222-24.901 7.424-.877.701-1.754 1.52-2.572 2.338-7.366 7.6-3.332 13.854 1.695 21.278 1.87 2.63 4.092 5.67 7.248 6.43 2.221.526 4.618-.117 6.84-.994 2.805-1.17 5.553-2.748 8.242-4.326 2.688-1.636 5.202-4.033 5.144-7.307 0-3.04-1.637-6.079-3.332-8.65-2.63-3.859-6.372-4.911-10.756-3.333-2.163.76-4.852 2.222-6.488 3.975-1.17 1.286-1.17 2.455-.468 4.034.468 1.11 1.227 2.396 1.753 3.507 1.403 2.806 1.871 3.566 5.086 2.63a6.852 6.852 0 001.403-.526c.877-.35 1.754-.76 2.163-1.52.292-.643.058-1.403-.293-2.046a12.845 12.845 0 00-1.052-1.636c-.877-1.17.76-2.514 1.754-1.462 1.929 2.046 3.39 4.969 1.286 7.482-.877 1.053-2.046 1.637-3.215 2.163-2.455 1.11-5.495 1.87-7.833-.058-1.286-1.11-1.987-2.63-2.806-4.033-1.227-2.105-2.689-4.385-2.513-7.015.175-2.397 1.812-4.384 3.565-5.787 3.215-2.455 6.84-4.443 10.99-4.677 4.793-.292 8.885 2.28 11.515 6.197 3.858 5.611 6.138 12.45 1.462 18.413-1.52 1.929-3.566 3.39-5.67 4.676-4.852 2.923-10.756 6.489-16.718 5.846-5.261-.526-9.12-4.735-11.925-8.827-1.93-2.806-3.858-5.611-5.261-8.885-2.923-7.307-1.17-13.912 4.209-19.465 3.098-3.215 6.722-5.729 10.58-7.95 11.048-6.43 22.388-6.956 31.332 3.273.643.702 1.286 1.52 1.812 2.28 6.137 8.418 9.995 19.64 6.43 29.87-2.221 6.43-7.307 11.34-13.153 14.614-3.565 1.987-7.365 3.741-11.281 4.968-6.547 2.046-13.97 2.397-20.342-.467C7.785 60.47 3.4 55.91.186 50.825c-.76-1.286.994-2.455 1.87-1.345z" fill="url(#paint0_linear_123_3589)"/><path d="M16.145 5.812c-1.053.643-3.975 2.396-7.366 5.32-.175.175-.467.175-.701 0a182.865 182.865 0 01-3.683-3.04c-.35-.293-.175-.877.292-.936l3.741-.526c.293-.058.527-.35.468-.643L8.486 4c-.058-.41.293-.76.702-.643l2.514.877a.519.519 0 00.701-.41l.702-3.39c.117-.526.76-.585.994-.117l2.338 4.735a.761.761 0 01-.293.76z" fill="url(#paint1_linear_123_3589)"/><defs><linearGradient id="paint0_linear_123_3589" x1="9.329" y1="54.25" x2="79.363" y2="-11.712" gradientUnits="userSpaceOnUse"><stop stop-color="#B51825"/><stop offset="1" stop-color="#480E1D"/></linearGradient><linearGradient id="paint1_linear_123_3589" x1="-14.04" y1="29.435" x2="55.994" y2="-36.527" gradientUnits="userSpaceOnUse"><stop stop-color="#B51825"/><stop offset="1" stop-color="#480E1D"/></linearGradient></defs></svg>