<svg width="19" height="19" fill="none" xmlns="http://www.w3.org/2000/svg"><path fill-rule="evenodd" clip-rule="evenodd" d="M14.274 12.918L18.1 16.75a.48.48 0 01-.02.661l-.67.67a.478.478 0 01-.678 0l-3.827-3.831a2.499 2.499 0 01-.287-.345l-.718-.958a6.69 6.69 0 01-4.18 1.466A6.709 6.709 0 014.8 1.66a6.69 6.69 0 018.149 1.885 6.713 6.713 0 01-.044 8.376l.957.66c.149.097.287.21.41.336zM2.938 7.706a4.787 4.787 0 004.784 4.79 4.78 4.78 0 003.382-1.403 4.793 4.793 0 001.401-3.387 4.787 4.787 0 00-4.783-4.79 4.787 4.787 0 00-4.784 4.79z" fill="#fff"/><path d="M18.1 16.75l.28-.25-.007-.008-.007-.007-.265.265zm-3.826-3.832l-.268.262.003.003.265-.265zm3.807 4.493l-.263-.266-.002.001.265.265zm-.67.67l-.265-.264.266.265zm-.678 0l.266-.263-.001-.001-.265.265zm-3.827-3.831l-.266.265.266-.265zm-.287-.345l.309-.213-.005-.006-.004-.006-.3.225zm-.718-.958l.3-.225-.232-.31-.302.242.234.293zm-4.18 1.466v-.375h-.002l.002.375zM4.8 1.66l-.162-.338.162.338zm8.149 1.886l-.294.233.294-.233zm-.044 8.376l-.292-.236-.254.315.333.23.213-.31zm.957.66l-.214.31.011.007.203-.316zm-2.759-1.489l.265.265-.265-.265zm7.262 5.392l-3.827-3.832-.53.53 3.826 3.832.531-.53zm-.02 1.193a.854.854 0 00.034-1.178l-.558.5a.104.104 0 01-.004.145l.527.533zm-.669.669l.67-.67-.53-.53-.67.67.53.53zm-.605.252a.853.853 0 00.606-.253l-.533-.528a.103.103 0 01-.073.03v.75zm-.606-.253c.16.161.378.253.606.253v-.75a.103.103 0 01-.073-.031l-.533.528zm-3.826-3.831l3.827 3.832.531-.53-3.827-3.832-.53.53zm-.33-.397c.098.142.209.275.33.397l.531-.53a2.116 2.116 0 01-.243-.293l-.618.426zm-.709-.946l.718.958.6-.45-.718-.958-.6.45zm-3.88 1.616a7.066 7.066 0 004.415-1.548l-.469-.586a6.316 6.316 0 01-3.946 1.384v.75zm-6.917-5.5a7.074 7.074 0 006.918 5.5l-.003-.75A6.324 6.324 0 011.536 9.12l-.732.168zM4.64 1.323A7.084 7.084 0 00.804 9.29l.732-.168a6.334 6.334 0 013.427-7.123l-.324-.676zm8.605 1.992A7.066 7.066 0 004.64 1.322l.324.676a6.316 6.316 0 017.693 1.78l.588-.464zm-.046 8.843a7.088 7.088 0 00.046-8.843l-.588.465a6.338 6.338 0 01-.042 7.907l.584.471zm.878.117l-.957-.66-.426.616.956.661.427-.617zm.466.382a2.713 2.713 0 00-.477-.389l-.405.632c.126.08.242.174.345.281l.537-.524zm-6.82-.535a4.412 4.412 0 01-4.409-4.415h-.75a5.162 5.162 0 005.159 5.165v-.75zm3.117-1.293a4.405 4.405 0 01-3.117 1.293v.75c1.368 0 2.68-.544 3.647-1.513l-.53-.53zm1.291-3.122a4.418 4.418 0 01-1.291 3.122l.53.53a5.169 5.169 0 001.511-3.652h-.75zM7.722 3.291a4.412 4.412 0 014.408 4.415h.75a5.162 5.162 0 00-5.158-5.165v.75zM3.313 7.706a4.412 4.412 0 014.409-4.415v-.75a5.162 5.162 0 00-5.159 5.165h.75z" fill="#A71B2F"/></svg>