<svg width="20" height="20" fill="none" xmlns="http://www.w3.org/2000/svg"><path d="M.237 5.234a.824.824 0 011.151 0H.238zm0 0a.784.784 0 00-.175.257m.175-.257l-.175.257m0 0A.784.784 0 000 5.796m.062-.305L0 5.796m0 0c0 .105.021.209.062.305M0 5.796l.062.305m0 0c.04.096.1.184.175.257L.062 6.1zM19.189 5.1c.175 0 .343.063.474.177l.03.03a.686.686 0 010 .98h0l-9.161 8.928.07.072-.07-.072a.762.762 0 01-1.064 0l-.07.072.07-.072L.307 6.286h0a.684.684 0 010-.98h0a.724.724 0 011.011 0h0l8.612 8.397.07.068.07-.068 8.613-8.397h0a.724.724 0 01.506-.206z" fill="#000" stroke="#F2F1F0" stroke-width=".2"/></svg>