<svg width="19" height="18" fill="none" xmlns="http://www.w3.org/2000/svg"><path fill-rule="evenodd" clip-rule="evenodd" d="M0 2.118a2.118 2.118 0 114.235 0 2.118 2.118 0 01-4.235 0zm18.53 8.904a4.881 4.881 0 00-3.759-4.828 4.722 4.722 0 00-4.182 1.133v-.445a.53.53 0 00-.53-.53H7.412a.53.53 0 00-.53.53V17.47c0 .293.238.53.53.53h2.647a.53.53 0 00.53-.53V11.5a2.192 2.192 0 011.757-2.203 2.118 2.118 0 012.478 2.118v6.056c0 .293.237.53.53.53H18a.53.53 0 00.53-.53v-6.448zM4.235 6.882V17.47a.53.53 0 01-.53.53H1.06a.53.53 0 01-.53-.53V6.882a.53.53 0 01.53-.53h2.647a.53.53 0 01.53.53z" fill="#15141B"/></svg>