<svg width="20" height="20" fill="none" xmlns="http://www.w3.org/2000/svg"><path fill-rule="evenodd" clip-rule="evenodd" d="M14.1 5.532a4.533 4.533 0 01-4.533 4.533A4.533 4.533 0 1114.1 5.533zm-1.815 0a2.72 2.72 0 10-5.44.001 2.72 2.72 0 005.44 0zm6.248 12.283l-1.714-3.435a4.534 4.534 0 00-4.053-2.502H6.364a4.534 4.534 0 00-4.053 2.502L.597 17.815a.906.906 0 00.807 1.315h16.322a.907.907 0 00.807-1.315zm-14.6-2.62l-1.06 2.122h13.384l-1.061-2.121a2.72 2.72 0 00-2.43-1.505H6.364a2.72 2.72 0 00-2.43 1.505z" fill="#fff"/><path d="M16.82 14.38l.357-.179-.358.179zm1.713 3.435l-.358.179v.002l.358-.18zm-5.767-5.937v-.4.4zm-6.402 0v-.4.4zM2.311 14.38l-.358-.18v.001l.358.179zM.597 17.815l.357.18v-.001l-.357-.179zm.037.883l-.34.209.34-.21zm.77.432l-.001.4h.001v-.4zm16.322 0v.4h.001l-.001-.4zM2.873 17.317l-.358-.179-.29.579h.648v-.4zm1.06-2.121l.359.179-.358-.18zm12.324 2.12v.4h.647l-.29-.578-.357.179zm-1.061-2.12l-.358.178.358-.178zm-2.43-1.505v-.4.4zm-6.402 0v-.4.4zm3.203-3.226A4.933 4.933 0 0014.5 5.532h-.8a4.133 4.133 0 01-4.134 4.133v.8zM4.633 5.532a4.933 4.933 0 004.934 4.933v-.8a4.133 4.133 0 01-4.134-4.132h-.8zM9.567.6a4.933 4.933 0 00-4.934 4.933h.8A4.133 4.133 0 019.567 1.4V.6zM14.5 5.533A4.933 4.933 0 009.567.6v.8A4.133 4.133 0 0113.7 5.533h.8zm-4.936-2.32a2.32 2.32 0 012.32 2.32h.8a3.12 3.12 0 00-3.12-3.12v.8zm-2.32 2.32a2.32 2.32 0 012.32-2.32v-.8a3.12 3.12 0 00-3.12 3.12h.8zm2.32 2.319a2.32 2.32 0 01-2.32-2.32h-.8a3.12 3.12 0 003.12 3.12v-.8zm2.32-2.32a2.32 2.32 0 01-2.32 2.32v.8a3.12 3.12 0 003.12-3.12h-.8zm4.576 9.026l1.714 3.436.716-.357-1.714-3.436-.716.357zm-3.695-2.28c1.564 0 2.995.883 3.696 2.281l.715-.358a4.934 4.934 0 00-4.411-2.723v.8zm-6.402 0h6.402v-.8H6.364v.8zm-3.696 2.281a4.134 4.134 0 013.696-2.281v-.8a4.934 4.934 0 00-4.41 2.723l.714.358zM.955 17.994l1.714-3.436-.716-.357-1.714 3.436.716.357zm.02.494a.506.506 0 01-.02-.492l-.715-.36c-.204.404-.184.885.053 1.27l.682-.418zm.43.242a.507.507 0 01-.43-.242l-.682.419c.237.386.657.622 1.11.623l.002-.8zm16.321 0H1.404v.8h16.322v-.8zm.43-.242a.507.507 0 01-.431.242l.002.8a1.306 1.306 0 001.11-.623l-.682-.419zm.02-.492a.506.506 0 01-.02.492l.68.419c.238-.386.258-.867.054-1.272l-.714.36zm-14.945-.5l1.06-2.121-.715-.358-1.06 2.121.715.358zm13.026-.58H2.873v.8h13.384v-.8zm-1.419-1.541l1.061 2.12.716-.357-1.061-2.121-.716.358zm-2.073-1.284a2.32 2.32 0 012.073 1.283l.716-.357a3.12 3.12 0 00-2.788-1.726v.8zm-6.401 0h6.402v-.8H6.364v.8zm-2.072 1.283a2.32 2.32 0 012.072-1.283v-.8a3.12 3.12 0 00-2.788 1.726l.716.357z" fill="#A71B2F"/></svg>