<svg width="465" height="178" fill="none" xmlns="http://www.w3.org/2000/svg"><path d="M384.356.463c7.38 1.876 14.697 4.128 21.89 6.942 7.192 2.815 14.26 6.004 21.077 10.007 6.817 3.94 13.322 8.631 19.326 14.26 5.942 5.692 11.195 12.571 14.698 20.89 1.751 4.127 2.939 8.63 3.377 13.259.5 4.628.313 9.381-.5 13.947-.813 4.628-2.315 9.006-4.253 13.134-1.939 4.128-4.253 7.943-6.818 11.508-5.128 7.13-11.257 13.134-17.699 18.45-3.253 2.627-6.567 5.129-9.945 7.443a161.402 161.402 0 01-10.382 6.567c-7.005 4.065-14.197 7.693-21.515 10.945-7.317 3.252-14.76 6.067-22.203 8.694-7.505 2.564-15.073 4.94-22.641 6.942-3.815 1.001-7.63 1.939-11.445 2.877-3.815.875-7.693 1.751-11.508 2.502-30.772 6.254-62.043 9.006-93.252 9.068-31.21 0-62.481-2.814-93.253-9.006-7.693-1.563-15.385-3.315-22.953-5.379a286.112 286.112 0 01-22.64-6.942c-7.506-2.627-14.949-5.441-22.266-8.693-7.318-3.253-14.51-6.88-21.515-10.946-7.005-4.065-13.822-8.693-20.327-14.009-6.442-5.316-12.571-11.258-17.763-18.451-2.564-3.564-4.878-7.38-6.817-11.507C3.153 88.837 1.59 84.395.776 79.83c-.813-4.628-1-9.381-.5-13.947a49.175 49.175 0 013.377-13.259c3.503-8.318 8.756-15.26 14.698-20.952 5.942-5.691 12.509-10.382 19.326-14.26 6.817-3.94 13.885-7.192 21.077-10.007 7.193-2.752 14.51-5.066 21.89-6.88-13.447 7.193-26.393 15.073-37.65 24.517-5.567 4.754-10.758 9.82-14.949 15.386-4.19 5.504-7.442 11.508-8.943 17.512-1.564 6.004-1.314 11.946.437 17.512 1.814 5.504 5.066 10.758 9.382 15.448 4.315 4.691 9.507 8.944 15.135 12.759a122.383 122.383 0 008.82 5.379c3.064 1.689 6.128 3.315 9.318 4.816 6.317 3.065 12.947 5.754 19.639 8.131a280.043 280.043 0 0020.514 6.567c13.947 3.815 28.145 6.879 42.592 9.256 28.833 4.691 58.166 6.755 87.499 6.817 29.332 0 58.728-2.064 87.56-6.754 14.385-2.377 28.645-5.379 42.592-9.257a279.924 279.924 0 0020.515-6.567c6.754-2.376 13.321-5.128 19.638-8.13 6.317-3.065 12.509-6.38 18.138-10.195 5.629-3.815 10.82-8.068 15.136-12.759 4.315-4.69 7.567-9.944 9.381-15.448a32.812 32.812 0 001.501-8.569c.125-2.939-.313-5.941-1.063-8.943-1.501-6.004-4.753-12.009-8.944-17.512-4.19-5.567-9.381-10.695-14.948-15.386-11.132-9.632-24.142-17.45-37.588-24.642z" fill="#DBC0C0" fill-opacity=".56"/></svg>