<svg width="117" height="45" fill="none" xmlns="http://www.w3.org/2000/svg"><path d="M18.186 37.347c-1.132 1.087-2.716 1.63-4.752 1.63-1.29 0-2.422-.204-3.372-.589a5.392 5.392 0 01-2.33-1.787c-.612-.815-.996-1.833-1.177-3.078H.264c.294 2.399 1.018 4.435 2.15 6.155a10.96 10.96 0 004.525 3.892c1.879.905 4.028 1.335 6.495 1.335 2.647 0 4.933-.475 6.81-1.425 1.879-.95 3.327-2.331 4.3-4.141.996-1.81 1.471-4.005 1.471-6.563v-.724c0-2.828-.656-5.182-1.968-7.014-1.313-1.833-3.169-3.01-5.567-3.53 2.172-.747 3.847-1.924 5.046-3.576 1.2-1.63 1.788-3.552 1.788-5.747v-.725c0-3.62-1.041-6.426-3.123-8.417-2.082-1.992-5-2.987-8.802-2.987-2.218 0-4.187.452-5.884 1.335-1.72.882-3.123 2.195-4.254 3.892-1.109 1.72-1.878 3.756-2.286 6.155h6.246c.271-1.222.679-2.24 1.244-3.078.566-.814 1.268-1.425 2.105-1.81.814-.385 1.765-.588 2.806-.588 1.833 0 3.258.475 4.254 1.425.996.95 1.493 2.286 1.493 4.028v1.358c0 1.878-.475 3.326-1.425 4.345-.95 1.018-2.286 1.538-3.983 1.538h-3.123v5.861h3.123c1.946 0 3.462.588 4.526 1.788 1.063 1.199 1.607 2.896 1.607 5.091v1.335c.045 1.991-.52 3.53-1.652 4.616zm38.778 1.401c.95-2.014 1.425-4.435 1.425-7.241v-.023c0-2.76-.43-5.114-1.267-7.083-.837-1.968-2.082-3.462-3.71-4.48-1.63-1.018-3.576-1.539-5.862-1.539-1.29 0-2.42.272-3.394.792a5.31 5.31 0 00-.837.543L53.117.551h-6.653l-9.549 18.917c-.136.272-.271.566-.43.86-.136.294-.271.588-.385.883-.724 1.742-1.29 3.484-1.651 5.295a24.434 24.434 0 00-.566 5.136v.023c0 2.806.475 5.182 1.425 7.173.95 1.992 2.354 3.485 4.187 4.526 1.833 1.04 4.028 1.561 6.607 1.561 2.58 0 4.797-.52 6.63-1.561 1.856-1.064 3.259-2.602 4.232-4.616zm-4.73-6.721c0 2.24-.52 3.96-1.584 5.16-1.063 1.199-2.556 1.81-4.525 1.81-1.924 0-3.44-.589-4.48-1.788-1.064-1.2-1.585-2.92-1.585-5.16v-.022c0-2.466.498-4.367 1.517-5.702.995-1.358 2.42-2.014 4.254-2.014 2.059 0 3.643.678 4.752 2.014 1.108 1.335 1.651 3.236 1.651 5.702zm26.871 12.89c4.096 0 7.196-1.086 9.346-3.28 2.127-2.196 3.213-5.25 3.213-9.21V12.468c0-3.96-1.064-7.037-3.19-9.21C86.345 1.087 83.223 0 79.127 0s-7.196 1.086-9.346 3.281c-2.127 2.195-3.213 5.25-3.213 9.21v19.958c0 3.938 1.063 6.992 3.19 9.187 2.105 2.173 5.228 3.281 9.346 3.281zm-6.381-32.449c0-2.127.52-3.779 1.538-4.91 1.019-1.132 2.648-1.697 4.843-1.697s3.802.565 4.843 1.697c1.018 1.131 1.538 2.783 1.538 4.91v19.959c0 2.127-.52 3.779-1.561 4.91-1.041 1.131-2.648 1.697-4.82 1.697s-3.779-.566-4.82-1.697c-1.04-1.131-1.561-2.783-1.561-4.91V12.468zm34.704 5.62c2.806 0 4.979-.792 6.517-2.353 1.562-1.561 2.331-3.78 2.331-6.608 0-2.873-.769-5.114-2.285-6.675-1.539-1.561-3.712-2.353-6.563-2.353-2.828 0-5.001.792-6.539 2.353-1.54 1.561-2.308 3.779-2.308 6.653 0 2.828.769 5.046 2.308 6.63 1.538 1.561 3.711 2.353 6.539 2.353zm-2.783-12.106c.634-.724 1.561-1.064 2.738-1.064 1.199 0 2.104.363 2.783 1.064.657.724.996 1.72.996 3.032 0 1.38-.317 2.421-.973 3.168-.656.724-1.584 1.109-2.783 1.109-1.2 0-2.105-.362-2.738-1.086-.634-.724-.973-1.765-.973-3.123-.023-1.335.316-2.376.95-3.1z" fill="#DBC0C0"/></svg>