<svg width="100" height="38" fill="none" xmlns="http://www.w3.org/2000/svg"><g clip-path="url(#clip0_1602_20)"><path d="M8.525 37.094H3.567c-.484 0-1.088-.423-1.088-1.39 0-.906.544-1.268 1.088-1.268h4.897c1.874 0 3.386-1.027 3.386-3.263v-.966H6.953c-3.507 0-6.046-1.994-6.046-5.92v-8.7c0-.544.423-1.088 1.33-1.088s1.39.544 1.39 1.088v8.7c0 2.355 1.633 3.201 3.386 3.201h4.837V15.526c0-.543.423-1.087 1.39-1.087.907 0 1.391.544 1.391 1.087v15.647c0 4.048-2.66 5.92-6.106 5.92zm12.031-13.231v.725c0 1.934 1.39 3.081 3.386 3.081h4.716c.544 0 1.088.302 1.088 1.27 0 .905-.605 1.328-1.088 1.328H23.76c-3.385 0-5.925-2.054-5.925-5.8v-3.745c0-3.806 2.721-5.981 6.167-5.981h1.149c3.204 0 5.986 2.114 5.986 5.98v1.692c0 .544-.363 1.45-1.512 1.45h-9.069zm7.8-3.141c0-2.296-1.452-3.262-3.386-3.262h-1.15c-1.752 0-3.324 1.027-3.324 3.262v.846h7.86v-.846zm6.71 9.545c-.423 0-1.088-.302-1.088-1.39 0-1.027.786-1.329 1.088-1.329h6.893c1.088 0 1.874-.604 1.874-1.631 0-.846-.665-1.33-1.935-1.692l-3.99-1.208c-2.297-.665-4.111-1.45-4.111-4.168 0-2.357 1.572-4.169 4.595-4.169h6.288c.362 0 1.088.363 1.088 1.33 0 1.026-.665 1.328-1.088 1.328h-6.288c-1.028 0-1.814.423-1.814 1.45 0 .785.665 1.148 1.874 1.51l3.99 1.088c2.419.665 4.112 1.692 4.112 4.41 0 2.296-1.512 4.35-4.595 4.35h-6.893v.12zm40.448-6.404v.725c0 1.933 1.39 3.081 3.386 3.081h4.716c.544 0 1.088.302 1.088 1.269 0 .906-.605 1.33-1.088 1.33h-4.897c-3.386 0-5.925-2.055-5.925-5.8v-3.746c0-3.806 2.72-5.981 6.166-5.981h1.15c3.203 0 5.984 2.114 5.984 5.98v1.692c0 .544-.362 1.45-1.51 1.45h-9.07zm7.86-3.141c0-2.296-1.512-3.263-3.386-3.263H78.84c-1.753 0-3.325 1.027-3.325 3.263v.846h7.86v-.846z" fill="#161F35"/><path d="M51.088 30.388l-1.33-.242a.683.683 0 01-.544-.785l1.814-10.029c.06-.362.423-.604.786-.544l1.33.242c.363.06.604.423.544.786l-1.814 10.028c-.06.302-.423.604-.786.544z" fill="url(#paint0_linear_1602_20)"/><path d="M63.362 29.663l-1.149.664c-.302.181-.726.06-.907-.242L51.633 13.29c-.182-.301-.06-.724.241-.906l1.15-.664c.301-.181.725-.06.906.241l9.674 16.795c.241.302.12.725-.242.907z" fill="url(#paint1_linear_1602_20)"/><path d="M66.264 25.433l-1.149.665c-.302.181-.725.06-.907-.242l-3.386-5.86c-.18-.302-.06-.725.242-.906l1.15-.665c.301-.18.725-.06.906.242l3.386 5.86c.181.302.06.725-.242.906z" fill="url(#paint2_linear_1602_20)"/><path d="M61.487 17.217l-1.148.665c-.303.181-.726.06-.907-.242l-2.177-3.745c-.181-.302-.06-.725.242-.906l1.149-.665c.302-.181.725-.06.907.242l2.176 3.745c.181.302.06.725-.242.906z" fill="url(#paint3_linear_1602_20)"/><path d="M68.259 21.749c-.665.362-1.451.181-1.814-.423l-1.45-2.537c-.364-.605-.122-1.39.543-1.752.665-.363 1.451-.181 1.814.423l1.451 2.537c.363.604.121 1.39-.544 1.752z" fill="url(#paint4_linear_1602_20)"/><path d="M70.798 17.64c-.665.363-1.451.181-1.814-.423l-1.45-2.537c-.364-.604-.122-1.39.543-1.752.665-.362 1.451-.181 1.814.423l1.451 2.537c.363.604.121 1.39-.544 1.752z" fill="url(#paint5_linear_1602_20)"/><path d="M73.338 13.593c-.665.363-1.451.181-1.814-.423l-1.451-2.537c-.363-.604-.121-1.39.544-1.752.665-.363 1.451-.181 1.814.423l1.45 2.537c.303.544.061 1.33-.543 1.752z" fill="url(#paint6_linear_1602_20)"/><path d="M75.937 9.484c-.665.363-1.45.182-1.814-.423l-1.45-2.537c-.363-.604-.121-1.39.543-1.752.666-.362 1.452-.181 1.814.423l1.451 2.537c.363.544.121 1.33-.544 1.752z" fill="url(#paint7_linear_1602_20)"/><path d="M78.719 5.678c-.666.363-1.452.182-1.814-.422l-1.451-2.538c-.363-.604-.121-1.39.544-1.752.665-.362 1.45-.181 1.814.423l1.45 2.538c.363.604.121 1.389-.543 1.751z" fill="#004E89"/><path d="M98.247 27.61h-1.753c-1.875 0-3.084-.786-3.084-3.082v-7.25h-2.72v7.431c0 3.988 2.176 5.558 5.44 5.558h2.117c.544 0 1.149-.422 1.149-1.329 0-.845-.605-1.329-1.15-1.329zM93.41 9.908c0-.544-.483-1.087-1.39-1.087-.968 0-1.33.543-1.33 1.087v4.773h2.78V9.908h-.06z" fill="#161F35"/><path d="M93.41 17.218h3.386c.786 0 1.45-.604 1.45-1.268 0-.665-.604-1.209-1.33-1.27H93.41v2.538z" fill="url(#paint8_linear_1602_20)"/></g><defs><linearGradient id="paint0_linear_1602_20" x1="50.392" y1="29.916" x2="52.563" y2="19.008" gradientUnits="userSpaceOnUse"><stop stop-color="#D7D678"/><stop offset=".106" stop-color="#B5C971"/><stop offset=".238" stop-color="#93BB6A"/><stop offset=".362" stop-color="#7AB164"/><stop offset=".476" stop-color="#6AAB61"/><stop offset=".567" stop-color="#65A960"/><stop offset=".709" stop-color="#519768"/><stop offset=".872" stop-color="#42896F"/><stop offset="1" stop-color="#3C8471"/></linearGradient><linearGradient id="paint1_linear_1602_20" x1="52.886" y1="12.867" x2="63.235" y2="30.806" gradientUnits="userSpaceOnUse"><stop stop-color="#004E89"/><stop offset=".142" stop-color="#236E7B"/><stop offset=".374" stop-color="#65A960"/><stop offset=".484" stop-color="#69AA61"/><stop offset=".588" stop-color="#74AF63"/><stop offset=".689" stop-color="#87B667"/><stop offset=".789" stop-color="#A2C16D"/><stop offset=".887" stop-color="#C5CF74"/><stop offset=".984" stop-color="#EEDF7D"/><stop offset="1" stop-color="#F6E27F"/></linearGradient><linearGradient id="paint2_linear_1602_20" x1="61.61" y1="18.74" x2="65.68" y2="25.794" gradientUnits="userSpaceOnUse"><stop stop-color="#65A960"/><stop offset=".231" stop-color="#68AA61"/><stop offset=".396" stop-color="#71AE63"/><stop offset=".539" stop-color="#81B466"/><stop offset=".671" stop-color="#97BD6B"/><stop offset=".795" stop-color="#B3C871"/><stop offset=".911" stop-color="#D6D578"/><stop offset="1" stop-color="#F6E27F"/></linearGradient><linearGradient id="paint3_linear_1602_20" x1="58.04" y1="12.622" x2="60.893" y2="17.568" gradientUnits="userSpaceOnUse"><stop stop-color="#004E89"/><stop offset=".38" stop-color="#236E7B"/><stop offset="1" stop-color="#65A960"/></linearGradient><linearGradient id="paint4_linear_1602_20" x1="65.543" y1="17.08" x2="68.252" y2="21.776" gradientUnits="userSpaceOnUse"><stop offset=".006" stop-color="#65A960"/><stop offset=".421" stop-color="#67AA60"/><stop offset=".57" stop-color="#6EAC62"/><stop offset=".677" stop-color="#79B164"/><stop offset=".763" stop-color="#8AB868"/><stop offset=".837" stop-color="#A0C06D"/><stop offset=".902" stop-color="#BCCB73"/><stop offset=".96" stop-color="#DBD779"/><stop offset="1" stop-color="#F6E27F"/></linearGradient><linearGradient id="paint5_linear_1602_20" x1="68.079" y1="12.966" x2="70.789" y2="17.663" gradientUnits="userSpaceOnUse"><stop stop-color="#3FA34D"/><stop offset=".378" stop-color="#42A34E"/><stop offset=".651" stop-color="#4BA553"/><stop offset=".89" stop-color="#5BA75B"/><stop offset="1" stop-color="#65A960"/></linearGradient><linearGradient id="paint6_linear_1602_20" x1="70.609" y1="8.902" x2="73.319" y2="13.598" gradientUnits="userSpaceOnUse"><stop stop-color="#47807D"/><stop offset="1" stop-color="#3FA34D"/></linearGradient><linearGradient id="paint7_linear_1602_20" x1="73.346" y1="5.355" x2="75.554" y2="8.668" gradientUnits="userSpaceOnUse"><stop stop-color="#004E89"/><stop offset=".208" stop-color="#075388"/><stop offset=".509" stop-color="#1A6085"/><stop offset=".864" stop-color="#39767F"/><stop offset="1" stop-color="#47807D"/></linearGradient><linearGradient id="paint8_linear_1602_20" x1="93.408" y1="15.992" x2="98.251" y2="15.992" gradientUnits="userSpaceOnUse"><stop stop-color="#47807D"/><stop offset="1" stop-color="#3FA34D"/></linearGradient><clipPath id="clip0_1602_20"><path fill="#fff" d="M0 0h100v38H0z"/></clipPath></defs></svg>