<svg width="121" height="48" fill="none" xmlns="http://www.w3.org/2000/svg"><path d="M36.549 31v-8.646c0-.719-.176-1.254-.528-1.606-.352-.367-.866-.55-1.54-.55h-6.006V17.8h6.16c1.598 0 2.801.381 3.608 1.144.806.748 1.21 1.863 1.21 3.344V31h-2.904zm-10.472 0l.308-2.398h.792c.308 0 .55-.059.726-.176.19-.117.33-.293.418-.528.102-.25.154-.55.154-.902v-8.602h2.904v8.58c0 1.305-.308 2.303-.924 2.992-.616.69-1.518 1.034-2.706 1.034h-1.672zm.374-10.802l.308-2.398h3.3v2.398H26.45zM43.566 31V17.8h2.904V31h-2.904zm-1.848-10.802l.308-2.398h3.454v2.398h-3.762zM56.727 17.8c1.584 0 2.779.381 3.586 1.144.82.748 1.232 1.863 1.232 3.344V31H58.64v-8.646c0-.719-.176-1.254-.528-1.606-.352-.367-.866-.55-1.54-.55h-3.344c-.074.117-.154.33-.242.638-.074.308-.11.807-.11 1.496V31h-2.904v-7.81c0-.616.058-1.166.176-1.65a2.91 2.91 0 01.638-1.276l-.264-.154V17.8h6.204zm-7.876 2.398l.33-2.398h5.72v2.398h-6.05zm16.522 5.17V17.8h2.904v7.568h-2.904zm-1.848-5.17l.308-2.398h3.19v2.398h-3.498zm13.405 11c-1.95 0-3.462-.623-4.532-1.87-1.056-1.247-1.584-3.08-1.584-5.5V17.8h2.904v6.028c0 1.657.278 2.919.836 3.784.557.85 1.334 1.276 2.332 1.276 1.041 0 1.855-.425 2.442-1.276.601-.865.902-2.127.902-3.784 0-1.217-.154-2.156-.462-2.816-.308-.675-.85-1.012-1.628-1.012a3.456 3.456 0 00-.88.066c-.279.059-.58.125-.902.198v-2.31c.41-.088.792-.154 1.144-.198a7.376 7.376 0 011.166-.088c1.54.015 2.662.55 3.366 1.606.718 1.056 1.078 2.574 1.078 4.554 0 2.42-.535 4.253-1.606 5.5-1.07 1.247-2.596 1.87-4.576 1.87zM91.832 31v-8.646c0-.719-.176-1.254-.528-1.606-.352-.367-.865-.55-1.54-.55h-4.268l.33-2.398h4.092c1.584 0 2.78.381 3.586 1.144.821.748 1.232 1.863 1.232 3.344v6.556a3.357 3.357 0 01-.506 1.1A13.62 13.62 0 0193.482 31h-1.65zm-6.996 0v-2.398h11.528L96.056 31h-11.22z" fill="#EEF2FF"/><rect x="1" y="1" width="119" height="46" rx="23" stroke="#B6E94A" stroke-width="2"/></svg>