<svg width="141" height="48" fill="none" xmlns="http://www.w3.org/2000/svg"><path d="M35.623 31v-8.646c0-.719-.176-1.254-.528-1.606-.352-.367-.865-.55-1.54-.55h-6.006V17.8h6.16c1.598 0 2.801.381 3.608 1.144.806.748 1.21 1.863 1.21 3.344V31h-2.904zM25.15 31l.308-2.398h.792c.308 0 .55-.059.726-.176.19-.117.33-.293.418-.528.102-.25.154-.55.154-.902v-8.602h2.904v8.58c0 1.305-.308 2.303-.924 2.992-.616.69-1.518 1.034-2.706 1.034H25.15zm.374-10.802l.308-2.398h3.3v2.398h-3.608zM42.64 31V17.8h2.904V31H42.64zm-1.849-10.802L41.1 17.8h3.454v2.398h-3.762zm9.003 5.17V17.8h2.904v7.568h-2.904zm-1.848-5.17l.308-2.398h3.19v2.398h-3.498zm6.959 11.616v-2.398l4.972-1.012a6.156 6.156 0 001.518-.55c.44-.25.821-.616 1.144-1.1.322-.499.579-1.159.77-1.98.205-.821.352-1.885.44-3.19l.242-3.784h2.904l-.242 3.85a21.785 21.785 0 01-.33 2.772 9.698 9.698 0 01-.682 2.288 6.826 6.826 0 01-1.21 1.848c-.499.528-1.122.975-1.87 1.342-.748.367-1.636.66-2.662.88l-4.994 1.034zm3.256-1.958l-2.618-11.858 2.838-.352 1.826 8.514c.102.41.124.836.066 1.276-.044.425-.154.85-.33 1.276a4.65 4.65 0 01-.704 1.144h-1.078zM70.42 31V17.8h2.904V31H70.42zm-1.848-10.802l.308-2.398h3.454v2.398h-3.762zm15.404 10.736L75.638 17.8h3.388l3.608 6.028 3.52 5.434-2.178 1.672zM75.814 31v-2.398h9.438l.902.66L85.868 31H75.814zm6.556-5.214l-.814-1.914c.41-.132.74-.345.99-.638.264-.308.47-.653.616-1.034.147-.381.257-.763.33-1.144.073-.396.132-.763.176-1.1l.264-2.156h2.882l-.242 2.42a8.693 8.693 0 01-.352 1.562 7.077 7.077 0 01-.726 1.65 5.076 5.076 0 01-1.232 1.408c-.513.41-1.144.726-1.892.946zM94.736 31l3.212-10.824H88.84l.308-2.376h12.1l-.198 1.76L97.64 31h-2.904zm-5.346 4.114v-11.99l2.904-.176v11.99l-2.904.176zM103.042 31l1.496-7.788-1.848-5.412h2.904l.924 3.168h.088c.19-.513.41-.975.66-1.386.249-.41.55-.763.902-1.056.366-.293.792-.52 1.276-.682.498-.161 1.07-.242 1.716-.242 1.026 0 1.921.242 2.684.726.762.484 1.364 1.203 1.804 2.156.44.939.66 2.105.66 3.498v.286c0 1.35-.235 2.53-.704 3.542-.455.997-1.122 1.782-2.002 2.354-.88.557-1.951.836-3.212.836h-2.156l.352-2.398h1.65c1.012 0 1.789-.396 2.332-1.188.557-.807.836-1.855.836-3.146v-.286c0-.895-.125-1.628-.374-2.2-.25-.587-.587-1.027-1.012-1.32a2.463 2.463 0 00-1.43-.44c-.558 0-1.027.095-1.408.286a2.538 2.538 0 00-.924.748 4.148 4.148 0 00-.572 1.144 8.938 8.938 0 00-.352 1.408L106.034 31h-2.992z" fill="#EEF2FF"/><rect x="1" y="1" width="139" height="46" rx="23" stroke="#B6E94A" stroke-width="2"/></svg>