<svg width="142" height="82" fill="none" xmlns="http://www.w3.org/2000/svg"><rect y="34.682" width="134" height="48" rx="24" transform="rotate(-15 0 34.682)" fill="#EEF2FF"/><path d="M41.581 57.453a1.72 1.72 0 01-.65.058.952.952 0 01-.528-.236c-.156-.15-.278-.389-.365-.713-.092-.343-.105-.61-.04-.801a.775.775 0 01.338-.468c.16-.12.35-.21.566-.267l2.326-.624-3.174-11.846 1.203.49c-.518.158-.966.287-1.345.389-.36.096-.667.14-.921.13a1.003 1.003 0 01-.574-.193c-.134-.138-.237-.343-.31-.613-.134-.505-.111-.888.07-1.15.181-.26.62-.494 1.32-.7l4.69-1.316c1.69-.472 3.186-.554 4.486-.245 1.318.304 2.43.992 3.336 2.063.923 1.067 1.634 2.529 2.132 4.386l1.739 6.49c.063.235.084.461.066.679a.775.775 0 01-.236.527c-.133.151-.362.27-.687.358-.325.087-.589.11-.794.068a.823.823 0 01-.453-.285 1.498 1.498 0 01-.253-.512l-1.775-6.626c-.353-1.316-.834-2.357-1.445-3.12-.592-.77-1.316-1.271-2.172-1.506-.86-.252-1.849-.229-2.967.07l-2.488.667 3.167 11.82c.155.576.165 1.047.03 1.412-.12.341-.388.568-.803.679l-3.489.934zm20.094-5.385c-.324.087-.582.099-.773.034a.952.952 0 01-.468-.339 2.438 2.438 0 01-.248-.6l-3.645-13.604a2.135 2.135 0 01-.078-.617.952.952 0 01.235-.527c.152-.156.39-.278.714-.365.343-.092.612-.096.808-.014.21.06.365.173.468.339.097.148.177.339.24.573l3.646 13.604c.058.217.075.425.05.624a.775.775 0 01-.235.527c-.133.152-.371.274-.714.365zm15.175-4.066c-.325.087-.59.11-.794.068a.823.823 0 01-.453-.284 1.499 1.499 0 01-.253-.512l-1.775-6.627c-.261-.973-.599-1.8-1.013-2.482-.397-.686-.876-1.215-1.44-1.585a3.75 3.75 0 00-1.865-.689c-.681-.088-1.436-.021-2.266.201l-3.272.877a2.355 2.355 0 01-.671.093.909.909 0 01-.534-.263c-.157-.151-.278-.39-.365-.714-.092-.342-.106-.61-.041-.8a.952.952 0 01.339-.468c.16-.12.358-.212.593-.275l3.218-.862c1.244-.334 2.374-.443 3.39-.329a5.96 5.96 0 012.774.938c.815.516 1.513 1.247 2.095 2.193.6.94 1.083 2.096 1.45 3.466l1.74 6.491c.062.235.084.46.065.678a.775.775 0 01-.235.527c-.134.152-.363.271-.687.358zm4.736-9.472c-.325.087-.583.098-.774.033a1.126 1.126 0 01-.475-.365 2.138 2.138 0 01-.24-.574l-1.595-5.95a2.136 2.136 0 01-.078-.616.951.951 0 01.235-.527c.152-.157.39-.279.714-.365.343-.092.612-.097.808-.014.21.06.365.173.468.338.097.148.178.34.24.574l1.595 5.95c.058.216.075.424.05.624a.775.775 0 01-.235.527c-.133.151-.37.273-.714.365zm15.496 4.167c-1.298.348-2.51.44-3.636.279a7.735 7.735 0 01-3.047-1.097 8.358 8.358 0 01-2.294-2.284c-.618-.936-1.091-2.017-1.42-3.243l-1.71-6.383a2.136 2.136 0 01-.078-.617.897.897 0 01.255-.561c.152-.157.39-.278.714-.365.325-.087.583-.098.774-.034.21.06.376.18.502.359.12.16.212.358.275.593l1.703 6.355c.333 1.245.848 2.266 1.545 3.065a5.097 5.097 0 002.547 1.607c1.001.273 2.105.248 3.313-.076 1.28-.343 2.283-.892 3.009-1.646a5.093 5.093 0 001.367-2.686c.2-1.058.138-2.191-.186-3.4l-1.746-6.518a1.293 1.293 0 01-.03-.542.823.823 0 01.25-.473c.152-.157.39-.279.714-.366.325-.086.585-.088.781-.006a.78.78 0 01.468.339c.12.16.212.358.274.593l1.718 6.41c.324 1.208.443 2.374.358 3.498a7.924 7.924 0 01-.898 3.14 7.975 7.975 0 01-2.146 2.488c-.916.69-2.042 1.214-3.376 1.571zm-5.942-1.944l-.847-1.541.676-.182c.487-.13.891-.422 1.214-.876.318-.472.567-1.06.745-1.765a8.945 8.945 0 00.253-2.3 11.48 11.48 0 00-.335-2.548l-.84-3.572a1.764 1.764 0 01-.01-.577.807.807 0 01.242-.5c.152-.156.39-.278.714-.365.343-.092.619-.108.828-.048.21.06.365.173.468.339.097.147.166.332.206.553l.758 3.478a15.33 15.33 0 01.321 3.364c-.004 1.064-.158 2.042-.46 2.935-.284.888-.703 1.628-1.26 2.222a4.124 4.124 0 01-2.024 1.209l-.649.174z" fill="#B6E94A"/></svg>