<svg width="180" height="60" fill="none" xmlns="http://www.w3.org/2000/svg"><path d="M46.43 38V26.996c0-.915-.225-1.596-.673-2.044-.448-.467-1.101-.7-1.96-.7h-7.644V21.2h7.84c2.035 0 3.565.485 4.592 1.456 1.027.952 1.54 2.37 1.54 4.256V38H46.43zM33.1 38l.392-3.052H34.5c.392 0 .7-.075.924-.224.243-.15.42-.373.532-.672.13-.317.196-.7.196-1.148V21.956h3.696v10.92c0 1.661-.392 2.93-1.176 3.808C37.89 37.561 36.741 38 35.23 38h-2.128zm.476-13.748l.392-3.052h4.2v3.052h-4.592zM55.361 38V21.2h3.696V38H55.36zm-2.352-13.748L53.4 21.2h4.396v3.052h-4.788zm11.457 6.58V21.2h3.696v9.632h-3.696zm-2.352-6.58l.392-3.052h4.06v3.052h-4.452zm8.857 14.784v-3.052l6.328-1.288a7.835 7.835 0 001.932-.7c.56-.317 1.045-.784 1.456-1.4.41-.635.737-1.475.98-2.52.261-1.045.448-2.399.56-4.06l.308-4.816h3.696l-.308 4.9a27.722 27.722 0 01-.42 3.528 12.343 12.343 0 01-.868 2.912 8.69 8.69 0 01-1.54 2.352c-.635.672-1.428 1.241-2.38 1.708-.952.467-2.082.84-3.388 1.12l-6.356 1.316zm4.144-2.492l-3.332-15.092 3.612-.448 2.324 10.836a4.3 4.3 0 01.084 1.624 5.795 5.795 0 01-.42 1.624 5.89 5.89 0 01-.896 1.456h-1.372zM90.716 38V21.2h3.696V38h-3.696zm-2.352-13.748l.392-3.052h4.396v3.052h-4.788zm19.606 13.664L97.358 21.2h4.312l4.592 7.672 4.48 6.916-2.772 2.128zM97.582 38v-3.052h12.012l1.148.84-.364 2.212H97.582zm8.344-6.636l-1.036-2.436c.522-.168.942-.439 1.26-.812.336-.392.597-.83.784-1.316.186-.485.326-.97.42-1.456.093-.504.168-.97.224-1.4l.336-2.744h3.668l-.308 3.08a11.089 11.089 0 01-.448 1.988 9.067 9.067 0 01-.924 2.1 6.465 6.465 0 01-1.568 1.792c-.654.523-1.456.924-2.408 1.204zM121.664 38l4.088-13.776H114.16l.392-3.024h15.4l-.252 2.24L125.36 38h-3.696zm-6.804 5.236v-15.26l3.696-.224v15.26l-3.696.224zM132.235 38l1.904-9.912-2.352-6.888h3.696l1.176 4.032h.112c.242-.653.522-1.241.84-1.764.317-.523.7-.97 1.148-1.344a5.203 5.203 0 011.624-.868c.634-.205 1.362-.308 2.184-.308 1.306 0 2.445.308 3.416.924.97.616 1.736 1.53 2.296 2.744.56 1.195.84 2.679.84 4.452v.364c0 1.717-.299 3.22-.896 4.508-.579 1.27-1.428 2.268-2.548 2.996-1.12.71-2.483 1.064-4.088 1.064h-2.744l.448-3.052h2.1c1.288 0 2.277-.504 2.968-1.512.709-1.027 1.064-2.361 1.064-4.004v-.364c0-1.139-.159-2.072-.476-2.8-.318-.747-.747-1.307-1.288-1.68a3.134 3.134 0 00-1.82-.56c-.71 0-1.307.121-1.792.364a3.231 3.231 0 00-1.176.952c-.299.41-.542.896-.728 1.456a11.385 11.385 0 00-.448 1.792L136.043 38h-3.808z" fill="#EEF2FF"/><rect x="1" y="1" width="178" height="58" rx="29" stroke="#B6E94A" stroke-width="2"/></svg>