<svg width="152" height="60" fill="none" xmlns="http://www.w3.org/2000/svg"><path d="M45.062 38V26.996c0-.915-.224-1.596-.672-2.044-.448-.467-1.101-.7-1.96-.7h-7.644V21.2h7.84c2.035 0 3.565.485 4.592 1.456 1.027.952 1.54 2.37 1.54 4.256V38h-3.696zm-13.328 0l.392-3.052h1.008c.392 0 .7-.075.924-.224.243-.15.42-.373.532-.672.13-.317.196-.7.196-1.148V21.956h3.696v10.92c0 1.661-.392 2.93-1.176 3.808-.784.877-1.932 1.316-3.444 1.316h-2.128zm.476-13.748l.392-3.052h4.2v3.052H32.21zM53.993 38V21.2h3.697V38h-3.697zm-2.352-13.748l.392-3.052h4.396v3.052h-4.788zM70.743 21.2c2.016 0 3.537.485 4.564 1.456 1.045.952 1.568 2.37 1.568 4.256V38h-3.696V26.996c0-.915-.224-1.596-.672-2.044-.448-.467-1.101-.7-1.96-.7H66.29c-.093.15-.196.42-.308.812-.093.392-.14 1.027-.14 1.904V38h-3.696v-9.94c0-.784.075-1.484.224-2.1.15-.635.42-1.176.812-1.624l-.336-.196V21.2h7.896zm-10.024 3.052l.42-3.052h7.28v3.052h-7.7zm21.028 6.58V21.2h3.696v9.632h-3.696zm-2.352-6.58l.392-3.052h4.06v3.052h-4.452zm17.061 14c-2.483 0-4.405-.793-5.768-2.38-1.344-1.587-2.016-3.92-2.016-7V21.2h3.696v7.672c0 2.11.355 3.715 1.064 4.816.71 1.083 1.699 1.624 2.968 1.624 1.325 0 2.361-.541 3.108-1.624.765-1.101 1.148-2.707 1.148-4.816 0-1.55-.196-2.744-.588-3.584-.392-.859-1.082-1.288-2.072-1.288a4.4 4.4 0 00-1.12.084 74.9 74.9 0 00-1.148.252v-2.94a17.127 17.127 0 011.456-.252 9.39 9.39 0 011.484-.112c1.96.019 3.388.7 4.284 2.044.915 1.344 1.372 3.276 1.372 5.796 0 3.08-.681 5.413-2.044 7-1.363 1.587-3.304 2.38-5.824 2.38zM115.422 38V26.996c0-.915-.224-1.596-.672-2.044-.448-.467-1.101-.7-1.96-.7h-5.432l.42-3.052h5.208c2.016 0 3.538.485 4.564 1.456 1.046.952 1.568 2.37 1.568 4.256v8.344a4.257 4.257 0 01-.644 1.4c-.298.467-.616.915-.952 1.344h-2.1zm-8.904 0v-3.052h14.672L120.798 38h-14.28z" fill="#EEF2FF"/><rect x="1" y="1" width="150" height="58" rx="29" stroke="#B6E94A" stroke-width="2"/></svg>