<svg width="186" height="135" fill="none" xmlns="http://www.w3.org/2000/svg"><path d="M38.248 46.655a1.723 1.723 0 01-.501-.42.95.95 0 01-.206-.539c-.004-.217.078-.472.246-.762.178-.308.357-.506.538-.595a.775.775 0 01.57-.092c.199.029.395.1.59.211l2.085 1.204 6.132-10.62.505 1.196c-.478-.254-.887-.48-1.227-.675-.323-.187-.571-.373-.744-.56a1.003 1.003 0 01-.268-.542c.003-.193.074-.41.214-.652.262-.453.549-.708.862-.764.313-.057.789.09 1.429.437l4.247 2.387c1.529.862 2.644 1.861 3.345 2.999.717 1.147 1.017 2.419.9 3.817-.101 1.407-.633 2.943-1.594 4.608l-3.36 5.82a1.95 1.95 0 01-.433.526.775.775 0 01-.54.206c-.2.013-.447-.064-.738-.232-.29-.168-.494-.34-.609-.514a.823.823 0 01-.12-.521 1.5 1.5 0 01.184-.541l3.43-5.941c.681-1.18 1.076-2.256 1.185-3.228.124-.963-.033-1.83-.471-2.6-.43-.787-1.146-1.47-2.148-2.048l-2.231-1.288-6.118 10.596c-.299.518-.624.858-.977 1.02-.327.157-.677.127-1.048-.087l-3.129-1.806zm18.016 10.401c-.29-.168-.48-.342-.57-.523a.951.951 0 01-.092-.57c.055-.206.138-.406.25-.6l7.042-12.197c.112-.194.239-.358.38-.492a.951.951 0 01.54-.206c.217-.003.472.079.763.247.307.177.5.364.58.562.106.19.137.38.092.57a1.963 1.963 0 01-.236.575L57.971 56.62a1.645 1.645 0 01-.404.478.775.775 0 01-.54.206c-.201.013-.456-.07-.763-.247zm10.196-3.263c-.291-.168-.481-.343-.57-.524a1.127 1.127 0 01-.078-.594c.045-.19.123-.381.235-.575l3.08-5.335c.112-.194.24-.358.381-.492a.952.952 0 01.54-.206c.217-.003.471.079.762.247.307.177.501.364.581.562.106.19.136.38.091.57a1.962 1.962 0 01-.235.575l-3.08 5.335a1.645 1.645 0 01-.405.477.775.775 0 01-.54.206c-.2.013-.455-.069-.762-.246zm7.17 13.257c-.29-.168-.485-.334-.584-.499a.69.69 0 01-.095-.507c.036-.174.093-.367.173-.58l3.39-8c.263-.603.492-1.15.689-1.64.196-.49.331-.93.405-1.318.083-.405.07-.757-.037-1.056-.108-.299-.346-.577-.715-.833-.395-.25-.722-.449-.98-.598-.25-.166-.42-.318-.513-.457a.625.625 0 01-.15-.411.974.974 0 01.193-.503l.346-.543c.166-.25.338-.398.516-.446.195-.039.473.058.836.288l.436.252c.226.131.484.301.772.51.61.439 1.042.904 1.297 1.396a3.03 3.03 0 01.406 1.592c.016.57-.089 1.2-.314 1.888a26.08 26.08 0 01-.802 2.285l-3.589 8.792c-.138.351-.347.564-.628.64-.28.075-.63-.009-1.051-.252zm-6.106-3.59a3.494 3.494 0 01-.665-.416.637.637 0 01-.286-.457c-.013-.201.056-.452.208-.752.245-.462.474-.729.688-.8.239-.077.528-.018.867.178a8.29 8.29 0 001.248.526c.46.137.926.244 1.398.323.482.062.982.092 1.5.09a9.94 9.94 0 001.564-.132 18.235 18.235 0 001.665-.364l-.9 1.614c-.464.206-.943.383-1.437.528-.468.14-.954.236-1.46.29a9.677 9.677 0 01-1.497.072 8.129 8.129 0 01-1.468-.2 6.333 6.333 0 01-1.425-.5zm11.798 6.909c-.29-.168-.48-.343-.57-.524a.952.952 0 01-.092-.57c.055-.206.138-.406.25-.6l7.042-12.197c.112-.194.239-.357.38-.491a.952.952 0 01.54-.206c.217-.004.472.078.763.246.307.178.5.365.58.562.106.19.137.38.092.57a1.965 1.965 0 01-.235.576L81.03 69.932a1.644 1.644 0 01-.405.477.775.775 0 01-.54.206c-.201.013-.456-.069-.763-.246zm8.07 4.562c-.276-.418-.405-.773-.387-1.065.017-.291.207-.526.569-.706a105.06 105.06 0 003.836-2.052 56.153 56.153 0 003.215-1.927 35.205 35.205 0 002.79-1.978 29.959 29.959 0 002.504-2.208l.91 2.174a34.49 34.49 0 01-3.325 2.736 66.506 66.506 0 01-3.738 2.498 149.3 149.3 0 01-4.631 2.758c-.21.138-.424.23-.644.275a.986.986 0 01-.6-.024c-.18-.06-.347-.221-.499-.481zm13.347-7.717l-1.171-1.387-7.275-4.2c-.404-.233-.652-.495-.743-.785-.091-.29-.037-.646.164-1.069l1.99-3.895c.122-.21.249-.374.381-.491a.772.772 0 01.574-.154c.234.006.504.097.811.275.291.168.473.337.547.51.073.17.083.36.029.565a1.808 1.808 0 01-.24.638l-1.38 2.727 6.159 3.556c.517.3.864.65 1.041 1.054.176.404.184.839.022 1.306-.137.46-.44.91-.909 1.35zm-2.272 14.208c-.29-.168-.48-.342-.57-.523a.951.951 0 01-.091-.57c.054-.206.137-.406.249-.6l7.042-12.197c.112-.194.239-.358.381-.492a.95.95 0 01.539-.206c.217-.003.472.079.763.247.307.177.501.364.581.562.105.19.136.38.091.57a1.987 1.987 0 01-.235.575l-7.042 12.197a1.644 1.644 0 01-.405.478.775.775 0 01-.54.206c-.201.013-.455-.07-.763-.247zm11.642 6.721c-.291-.168-.494-.339-.609-.513a.824.824 0 01-.12-.522c.029-.199.09-.379.183-.54l3.836-6.645c.588-1.018.957-1.937 1.107-2.756.149-.819.079-1.538-.21-2.157-.288-.62-.805-1.144-1.548-1.574l-.849-.49a2.554 2.554 0 01-.54-.409.914.914 0 01-.192-.563c-.004-.218.078-.472.246-.763.178-.307.357-.505.538-.595a.951.951 0 01.57-.091c.215.038.42.113.614.225l.824.476c1.213.7 2.078 1.534 2.597 2.502.535.977.72 2.075.555 3.294-.149 1.23-.653 2.587-1.511 4.075l-3.78 6.547c-.122.21-.258.39-.409.54a.776.776 0 01-.539.206c-.218.003-.472-.079-.763-.247zm-5.699-3.29a1.81 1.81 0 01-.526-.433.954.954 0 01-.206-.54c-.003-.217.079-.471.247-.762.177-.307.356-.506.537-.595a.777.777 0 01.57-.091 1.7 1.7 0 01.614.225l5.82 3.36-1.285 2.168-5.771-3.332zm14.295 8.415a9.756 9.756 0 01-2.112-1.607c-.567-.586-1.017-1.17-1.35-1.75a4.315 4.315 0 01-.361-.887c-.049-.287-.032-.504.052-.65.075-.128.178-.252.311-.37.132-.117.268-.222.407-.314.232-.103.433-.17.602-.202.185-.022.335 0 .448.065a.779.779 0 01.283.293c.092.139.18.286.262.442a6.627 6.627 0 001.001 1.515c.408.451.959.877 1.654 1.279.873.504 1.762.737 2.668.7.921-.03 1.787-.316 2.598-.861.82-.561 1.528-1.36 2.126-2.394.868-1.503 1.212-2.921 1.033-4.253-.18-1.332-.908-2.367-2.185-3.104l-3.613-2.086a1.675 1.675 0 01-.419-.34.836.836 0 01-.119-.52c.038-.216.136-.46.295-.736.168-.29.343-.48.524-.57a.909.909 0 01.584-.116c.215.038.419.113.613.225l3.686 2.128c1.164.672 2.005 1.567 2.523 2.686.535 1.127.732 2.373.592 3.736-.115 1.356-.583 2.746-1.405 4.168-.644 1.115-1.397 2.028-2.259 2.737-.862.71-1.774 1.207-2.736 1.492a6.902 6.902 0 01-2.901.265 7.492 7.492 0 01-2.802-.971zm15.855 9.121c-1.051-.606-1.864-1.345-2.439-2.216a6.78 6.78 0 01-1.067-2.911c-.12-1.061-.028-2.172.276-3.333.303-1.161.805-2.348 1.505-3.56l2.94-5.093c.112-.194.239-.357.381-.491a.938.938 0 01.553-.23c.218-.004.472.078.763.246.308.178.506.357.595.538.106.19.132.388.078.594a1.737 1.737 0 01-.225.614l-2.926 5.068c-1.12 1.94-1.609 3.662-1.465 5.168.17 1.499.957 2.654 2.364 3.466 1.422.821 2.776.978 4.061.47 1.301-.499 2.44-1.631 3.415-3.396.824-1.464 1.143-2.8.956-4.007-.187-1.207-.798-2.109-1.832-2.706l-1.164-.672a1.508 1.508 0 01-.419-.34.83.83 0 01-.119-.52c.029-.2.127-.445.295-.736.168-.29.342-.48.523-.57a.91.91 0 01.584-.116c.199.029.404.104.614.225l.97.56c1.164.672 2.011 1.538 2.541 2.599.546 1.07.746 2.273.599 3.611-.138 1.322-.651 2.696-1.54 4.123-.653 1.131-1.399 2.069-2.238 2.813-.83.728-1.723 1.247-2.678 1.558a6.423 6.423 0 01-2.915.289c-.988-.118-1.984-.466-2.986-1.045z" fill="#EEF2FF"/><rect x="24.366" y="1.366" width="184" height="46" rx="23" transform="rotate(30 24.366 1.366)" stroke="#B6E94A" stroke-width="2"/></svg>