<svg width="152" height="116" fill="none" xmlns="http://www.w3.org/2000/svg"><path d="M39.207 44.575l4.323-7.487c.359-.623.474-1.174.345-1.655-.121-.494-.474-.91-1.058-1.246l-5.202-3.003 1.2-2.077 5.334 3.08c1.384.8 2.235 1.73 2.553 2.794.324 1.052.116 2.219-.624 3.502l-4.357 7.544-2.514-1.452zm-9.07-5.236l1.466-1.922.686.396c.267.154.506.224.717.21.224-.006.432-.089.626-.248.214-.165.408-.4.584-.704l4.301-7.45 2.515 1.452-4.29 7.43c-.652 1.131-1.418 1.84-2.296 2.13-.878.289-1.832.136-2.86-.458l-1.448-.836zm5.725-9.167l1.466-1.923 2.858 1.65-1.199 2.076-3.125-1.803zm9.422 17.912l6.6-11.431 2.515 1.452-6.6 11.431-2.515-1.452zm3.8-10.279l1.466-1.922 2.992 1.727-1.2 2.076-3.257-1.88zm5.212 8.979l3.784-6.554 2.515 1.452-3.784 6.554-2.515-1.452zm.984-5.401l1.466-1.923 2.763 1.595-1.2 2.077-3.029-1.75zm4.356 15.114l.82-2.829-.171-.099c-.458.295-.89.528-1.294.701a4.23 4.23 0 01-1.153.325c-.364.044-.73.019-1.1-.075a4.66 4.66 0 01-1.162-.494l-.4-.231 1.22-2.115.382.22c.375.2.761.338 1.157.415.41.083.808.11 1.198.081.39-.029.738-.09 1.046-.183.328-.099.604-.21.828-.335l2.354-4.077c.279-.483.359-.886.24-1.208-.118-.323-.438-.634-.959-.935l-1.143-.66 1.477-1.942 1.543.891c.75.433 1.296.91 1.64 1.43a2.74 2.74 0 01.488 1.704c-.023.597-.232 1.238-.628 1.924l-2.904 5.03-1.008 3.33-2.471-.868zm5.035 2.78l6.6-11.431 2.516 1.452-6.6 11.431-2.516-1.451zM68.472 49l1.466-1.923 2.991 1.727-1.199 2.077L68.472 49zm9.738 2.853l6.726 3.883-1.06 1.395-9.16 7.947-2.61-1.507 8.697-7.452-6.307-3.641 2.805-4.859 2.67 1.186-1.76 3.048zm3.04 16.997l6.6-11.432 2.514 1.452-6.6 11.432-2.514-1.452zm3.8-10.279l1.466-1.923 2.991 1.727-1.199 2.077-3.258-1.881zm3.862 14.703l4.664-8.078c.184-.318.276-.595.277-.831a.879.879 0 00-.188-.643c-.14-.198-.362-.386-.666-.562l-1.143-.66 1.465-1.923 1.544.891c1.054.61 1.687 1.33 1.9 2.165.233.828.056 1.75-.53 2.767l-4.808 8.326-2.515-1.452zm-2.953-1.705l1.2-2.077 4.153 2.398-1.2 2.077-4.153-2.398zm7.44 4.295l1.199-2.076 3.296 1.902c.914.529 1.77.616 2.567.263.804-.366 1.532-1.114 2.184-2.244.697-1.207 1.007-2.256.929-3.148-.071-.904-.563-1.62-1.478-2.149L98.8 66.508l1.466-1.922 3.029 1.749c1.727.997 2.742 2.26 3.045 3.79.322 1.524-.052 3.213-1.122 5.068-1.034 1.79-2.285 2.915-3.751 3.372-1.454.465-3.045.199-4.772-.799l-3.296-1.903zm15.324 9.076c-1.689-.975-2.686-2.27-2.99-3.885-.291-1.608.168-3.46 1.378-5.555l3.014-5.22 2.515 1.451-3.014 5.22c-.828 1.436-1.218 2.668-1.168 3.696.058 1.015.518 1.772 1.382 2.27.902.522 1.819.56 2.753.117.953-.449 1.844-1.391 2.673-2.826.609-1.054.945-1.944 1.008-2.67.07-.738-.231-1.302-.904-1.69a3.443 3.443 0 00-.795-.383 59.64 59.64 0 00-.88-.28l1.155-2c.399.129.763.262 1.089.4.347.133.699.302 1.054.507 1.327.783 2.031 1.807 2.112 3.074.095 1.274-.353 2.768-1.343 4.483-1.21 2.096-2.59 3.416-4.141 3.96-1.551.544-3.183.321-4.898-.669z" fill="#EEF2FF"/><rect x="24.366" y="1.366" width="145" height="46" rx="23" transform="rotate(30 24.366 1.366)" stroke="#B6E94A" stroke-width="2"/></svg>