<svg width="342" height="176" fill="none" xmlns="http://www.w3.org/2000/svg"><path d="M149.248 46.655a1.718 1.718 0 01-.501-.42.947.947 0 01-.206-.539c-.004-.217.078-.472.246-.762.178-.308.357-.506.538-.595a.774.774 0 01.57-.092c.199.029.395.1.589.211l2.086 1.204 6.132-10.62.505 1.196c-.478-.254-.887-.48-1.227-.675-.323-.187-.571-.373-.744-.56a1.005 1.005 0 01-.268-.542c.003-.193.074-.41.214-.652.262-.453.549-.708.862-.764.313-.057.789.09 1.429.437l4.247 2.387c1.529.862 2.644 1.861 3.345 2.999.717 1.147 1.017 2.419.9 3.817-.101 1.407-.633 2.943-1.594 4.608l-3.36 5.82c-.121.21-.266.386-.433.526a.776.776 0 01-.539.206c-.202.013-.448-.064-.739-.232s-.494-.34-.609-.514a.823.823 0 01-.119-.521c.029-.2.09-.38.183-.541l3.43-5.941c.681-1.18 1.076-2.256 1.185-3.228.124-.963-.033-1.83-.471-2.6-.43-.787-1.146-1.47-2.148-2.048l-2.231-1.288-6.118 10.596c-.299.518-.624.858-.977 1.02-.327.157-.677.127-1.048-.087l-3.129-1.806zm18.016 10.401c-.291-.168-.481-.342-.57-.523a.953.953 0 01-.092-.57c.055-.206.138-.406.25-.6l7.042-12.197c.112-.194.239-.358.38-.492a.952.952 0 01.54-.206c.217-.003.472.079.763.247.307.177.5.364.581.562.105.19.136.38.091.57a1.987 1.987 0 01-.235.575l-7.042 12.197a1.645 1.645 0 01-.405.478.777.777 0 01-.54.206c-.201.013-.456-.07-.763-.247zm10.196-3.263c-.291-.168-.481-.343-.571-.524a1.125 1.125 0 01-.077-.594c.045-.19.123-.381.235-.575l3.08-5.335c.112-.194.239-.358.381-.492a.953.953 0 01.539-.206c.218-.003.472.079.763.247.307.177.501.364.581.562.106.19.136.38.091.57a1.958 1.958 0 01-.235.575l-3.08 5.335a1.645 1.645 0 01-.405.477.774.774 0 01-.539.206c-.202.013-.456-.069-.763-.246zm7.171 13.257c-.291-.168-.486-.334-.585-.499a.691.691 0 01-.095-.507c.036-.174.093-.367.173-.58l3.391-8c.262-.603.491-1.15.688-1.64.196-.49.331-.93.405-1.318.083-.405.07-.757-.037-1.056-.108-.299-.346-.577-.715-.833a29.49 29.49 0 00-.981-.598c-.249-.166-.42-.318-.512-.457a.631.631 0 01-.151-.411.974.974 0 01.194-.503l.346-.543c.165-.25.337-.398.516-.446.195-.039.473.058.836.288l.436.252c.226.131.484.301.772.51.61.439 1.042.904 1.297 1.396a3.03 3.03 0 01.406 1.592c.016.57-.089 1.2-.314 1.888a26.08 26.08 0 01-.802 2.285l-3.589 8.792c-.138.351-.347.564-.628.64-.28.075-.631-.009-1.051-.252zm-6.107-3.59a3.481 3.481 0 01-.665-.416.637.637 0 01-.286-.457c-.013-.201.056-.452.208-.752.245-.462.474-.729.688-.8.239-.077.528-.018.867.178a8.29 8.29 0 001.248.526c.46.137.926.244 1.398.323.482.062.982.092 1.5.09a9.947 9.947 0 001.564-.132 17.908 17.908 0 001.665-.364l-.9 1.614a11.73 11.73 0 01-1.436.528 8.1 8.1 0 01-1.46.29 9.684 9.684 0 01-1.498.072 8.136 8.136 0 01-1.468-.2 6.323 6.323 0 01-1.425-.5zm11.798 6.909c-.291-.168-.481-.343-.57-.524a.953.953 0 01-.092-.57c.055-.206.138-.406.25-.6l7.042-12.197c.112-.194.239-.357.38-.491a.953.953 0 01.54-.206c.217-.004.472.078.763.246.307.178.5.365.581.562.105.19.136.38.091.57a1.986 1.986 0 01-.235.576l-7.042 12.197a1.644 1.644 0 01-.405.477.777.777 0 01-.54.206c-.201.013-.455-.069-.763-.246zm8.07 4.562c-.276-.418-.405-.773-.387-1.065.017-.291.207-.526.569-.706a104.95 104.95 0 003.836-2.052 56.119 56.119 0 003.215-1.927 35.283 35.283 0 002.79-1.978 29.982 29.982 0 002.504-2.208l.91 2.174a34.562 34.562 0 01-3.325 2.736 66.336 66.336 0 01-3.738 2.498 149.3 149.3 0 01-4.631 2.758 1.84 1.84 0 01-.644.275.987.987 0 01-.601-.024c-.18-.06-.346-.221-.498-.481zm13.347-7.717l-1.171-1.387-7.275-4.2c-.404-.233-.652-.495-.743-.785-.091-.29-.037-.646.164-1.069l1.99-3.895c.122-.21.249-.374.381-.491a.772.772 0 01.574-.154c.234.006.504.097.811.275.291.168.473.337.547.51a.85.85 0 01.028.565 1.79 1.79 0 01-.239.638l-1.38 2.727 6.159 3.556c.517.3.864.65 1.041 1.054.176.404.184.839.022 1.306-.137.46-.44.91-.909 1.35zm-2.271 14.208c-.291-.168-.482-.342-.571-.523a.945.945 0 01-.091-.57 2.43 2.43 0 01.249-.6l7.042-12.197c.112-.194.239-.358.381-.492a.95.95 0 01.539-.206c.217-.003.472.079.763.247.307.177.501.364.581.562.105.19.136.38.091.57a1.987 1.987 0 01-.235.575l-7.042 12.197a1.643 1.643 0 01-.405.478.776.776 0 01-.54.206c-.201.013-.455-.07-.762-.247zm11.641 6.721c-.291-.168-.494-.339-.609-.513a.824.824 0 01-.12-.522c.029-.199.09-.379.183-.54l3.836-6.645c.588-1.018.957-1.937 1.107-2.756.149-.819.079-1.538-.21-2.157-.288-.62-.805-1.144-1.548-1.574l-.849-.49a2.554 2.554 0 01-.54-.409.914.914 0 01-.192-.563c-.004-.218.078-.472.246-.763.178-.307.357-.505.538-.595a.951.951 0 01.57-.091c.215.038.42.113.614.225l.824.476c1.213.7 2.078 1.534 2.597 2.502.535.977.72 2.075.555 3.294-.149 1.23-.653 2.587-1.511 4.075l-3.78 6.547c-.122.21-.258.39-.409.54a.776.776 0 01-.539.206c-.218.003-.472-.079-.763-.247zm-5.699-3.29a1.81 1.81 0 01-.526-.433.954.954 0 01-.206-.54c-.003-.217.079-.471.247-.762.177-.307.356-.506.537-.595a.777.777 0 01.57-.091 1.7 1.7 0 01.614.225l5.82 3.36-1.285 2.168-5.771-3.332zm14.295 8.415a9.756 9.756 0 01-2.112-1.607c-.567-.586-1.017-1.17-1.35-1.75a4.315 4.315 0 01-.361-.887c-.049-.287-.032-.504.052-.65.075-.128.178-.252.311-.37.132-.117.268-.222.407-.314.232-.103.433-.17.602-.202.185-.022.335 0 .448.065a.779.779 0 01.283.293c.092.139.18.286.262.442a6.627 6.627 0 001.001 1.515c.408.451.959.877 1.654 1.279.873.504 1.762.737 2.668.7.921-.03 1.787-.316 2.598-.861.82-.561 1.528-1.36 2.126-2.394.868-1.503 1.212-2.921 1.033-4.253-.18-1.332-.908-2.367-2.185-3.104l-3.613-2.086a1.675 1.675 0 01-.419-.34.836.836 0 01-.119-.52c.038-.216.136-.46.295-.736.168-.29.343-.48.524-.57a.909.909 0 01.584-.116c.215.038.419.113.613.225l3.686 2.128c1.164.672 2.005 1.567 2.523 2.686.535 1.127.732 2.373.592 3.736-.115 1.356-.583 2.746-1.405 4.168-.644 1.115-1.397 2.028-2.259 2.737-.862.71-1.774 1.207-2.736 1.492a6.902 6.902 0 01-2.901.265 7.492 7.492 0 01-2.802-.971zm15.855 9.121c-1.051-.606-1.864-1.345-2.439-2.216a6.78 6.78 0 01-1.067-2.911c-.12-1.061-.028-2.172.276-3.333.303-1.161.805-2.348 1.505-3.56l2.94-5.093c.112-.194.239-.357.381-.491a.938.938 0 01.553-.23c.218-.004.472.078.763.246.308.178.506.357.595.538.106.19.132.388.078.594a1.737 1.737 0 01-.225.614l-2.926 5.068c-1.12 1.94-1.609 3.662-1.465 5.168.17 1.499.957 2.654 2.364 3.466 1.422.821 2.776.978 4.061.47 1.301-.499 2.44-1.631 3.415-3.396.824-1.464 1.143-2.8.956-4.007-.187-1.207-.798-2.109-1.832-2.706l-1.164-.672a1.508 1.508 0 01-.419-.34.83.83 0 01-.119-.52c.029-.2.127-.445.295-.736.168-.29.342-.48.523-.57a.91.91 0 01.584-.116c.199.029.404.104.614.225l.97.56c1.164.672 2.011 1.538 2.541 2.599.546 1.07.746 2.273.599 3.611-.138 1.322-.651 2.696-1.54 4.123-.653 1.131-1.399 2.069-2.238 2.813-.83.728-1.723 1.247-2.678 1.558a6.423 6.423 0 01-2.915.289c-.988-.118-1.984-.466-2.986-1.045z" fill="#EEF2FF"/><rect x="135.366" y="1.366" width="184" height="46" rx="23" transform="rotate(30 135.366 1.366)" stroke="#B6E94A" stroke-width="2"/><path d="M33.492 160.28c-.242 0-.457-.037-.644-.112a.954.954 0 01-.448-.364c-.112-.187-.168-.448-.168-.784 0-.355.056-.616.168-.784a.774.774 0 01.448-.364c.187-.075.392-.112.616-.112h2.408v-12.264l1.036.784c-.541.019-1.008.028-1.4.028-.373 0-.681-.037-.924-.112a1.008 1.008 0 01-.504-.336c-.093-.168-.14-.392-.14-.672 0-.523.122-.887.364-1.092.243-.205.728-.317 1.456-.336l4.872-.056c1.755-.019 3.22.289 4.396.924 1.195.635 2.091 1.587 2.688 2.856.616 1.269.924 2.865.924 4.788v6.72c0 .243-.037.467-.112.672a.774.774 0 01-.364.448c-.168.112-.42.168-.756.168s-.597-.047-.784-.14a.821.821 0 01-.364-.392 1.5 1.5 0 01-.112-.56v-6.86c0-1.363-.196-2.492-.588-3.388-.373-.896-.942-1.568-1.708-2.016-.765-.467-1.726-.7-2.884-.7h-2.576v12.236c0 .597-.112 1.055-.336 1.372-.205.299-.522.448-.952.448h-3.612zm20.803 0c-.336 0-.588-.056-.756-.168a.95.95 0 01-.364-.448 2.435 2.435 0 01-.084-.644v-14.084c0-.224.028-.429.084-.616a.95.95 0 01.364-.448c.187-.112.448-.168.784-.168.355 0 .616.065.784.196a.774.774 0 01.364.448c.056.168.084.373.084.616v14.084c0 .224-.037.429-.112.616a.774.774 0 01-.364.448c-.168.112-.43.168-.784.168zm7.198-7.924c-.336 0-.588-.056-.756-.168a1.127 1.127 0 01-.364-.476 2.139 2.139 0 01-.084-.616v-6.16c0-.224.028-.429.084-.616a.95.95 0 01.364-.448c.187-.112.448-.168.784-.168.355 0 .616.065.784.196a.774.774 0 01.364.448c.056.168.084.373.084.616v6.16c0 .224-.037.429-.112.616a.774.774 0 01-.364.448c-.168.112-.43.168-.784.168zm6.89 8.596a2.735 2.735 0 01-.756.112.718.718 0 01-.56-.252c-.15-.149-.27-.401-.364-.756-.075-.336-.075-.597 0-.784.093-.187.243-.336.448-.448.206-.112.448-.205.728-.28l5.768-1.568c.859-.299 1.559-.681 2.1-1.148a4.074 4.074 0 001.204-1.792c.262-.709.392-1.54.392-2.492v-6.748c0-.205.028-.383.084-.532a.821.821 0 01.364-.392c.168-.112.42-.168.756-.168.355 0 .626.056.812.168a.898.898 0 01.392.476c.075.187.112.401.112.644l-.028 5.768c0 1.195-.13 2.259-.392 3.192-.261.933-.644 1.745-1.148 2.436a7.285 7.285 0 01-1.904 1.792c-.765.504-1.67.924-2.716 1.26l-5.292 1.512zm3.36-3.052a3.737 3.737 0 01-.756-.56c-.242-.261-.438-.607-.588-1.036l-3.332-10.892a3.37 3.37 0 01-.14-.644.77.77 0 01.168-.56c.13-.168.374-.299.728-.392.374-.112.663-.131.868-.056a.868.868 0 01.504.42c.112.205.206.439.28.7l3.78 12.572-1.512.448zm13.908 2.38c-.336 0-.588-.056-.756-.168a.95.95 0 01-.364-.448 2.435 2.435 0 01-.084-.644v-14.084c0-.224.028-.429.084-.616a.95.95 0 01.364-.448c.187-.112.448-.168.784-.168.355 0 .616.065.784.196a.774.774 0 01.364.448c.056.168.084.373.084.616v14.084c0 .224-.037.429-.112.616a.774.774 0 01-.364.448c-.168.112-.43.168-.784.168zm16.466 0l-2.1-2.912-8.428-11.592c-.224-.317-.308-.607-.252-.868.075-.261.27-.523.588-.784.299-.224.55-.336.756-.336a.767.767 0 01.56.168c.168.112.326.271.476.476l8.4 11.9c.205.299.401.588.588.868.187.261.327.476.42.644.112.205.177.448.196.728.019.28-.019.551-.112.812a1.567 1.567 0 01-.42.616c-.168.187-.392.28-.672.28zm-9.968 0c-.243 0-.467-.037-.672-.112a.954.954 0 01-.448-.364c-.112-.187-.168-.448-.168-.784 0-.355.056-.616.168-.784a.774.774 0 01.448-.364 1.86 1.86 0 01.644-.112h10.164l-.056 2.52h-10.08zm7.476-6.272l-1.736-1.12 3.808-8.512c.112-.187.233-.327.364-.42a.742.742 0 01.532-.14c.224 0 .485.084.784.252.28.168.457.345.532.532a.723.723 0 01.056.56c-.037.205-.121.42-.252.644l-4.088 8.204zm16.097 6.216c-.485-.168-.821-.364-1.008-.588-.168-.243-.186-.541-.056-.896.243-.616.523-1.353.84-2.212.318-.877.654-1.811 1.008-2.8.374-1.008.738-2.025 1.092-3.052a143.74 143.74 0 001.036-2.94c.318-.933.598-1.764.84-2.492l2.1 1.456a75.188 75.188 0 01-.756 2.436c-.298.896-.616 1.839-.952 2.828-.336.971-.672 1.923-1.008 2.856-.317.933-.616 1.792-.896 2.576-.28.765-.513 1.391-.7 1.876a2.526 2.526 0 01-.364.616.933.933 0 01-.476.336c-.168.075-.401.075-.7 0zm-6.188 4.284c-.336 0-.588-.056-.756-.168a.952.952 0 01-.364-.448 2.245 2.245 0 01-.084-.644v-12.04c0-.224.028-.429.084-.616a.806.806 0 01.364-.42c.187-.112.448-.168.784-.168.355 0 .616.056.784.168a.773.773 0 01.364.448c.056.168.084.373.084.616v12.04c0 .243-.037.448-.112.616a.773.773 0 01-.364.448c-.168.112-.429.168-.784.168zm11.984-17.64l-1.932-.644h-10.444a1.95 1.95 0 01-.672-.112.913.913 0 01-.448-.392c-.112-.187-.168-.448-.168-.784 0-.355.056-.616.168-.784a.805.805 0 01.448-.336c.206-.075.42-.112.644-.112h10.248c.672 0 1.204.14 1.596.42.392.28.635.663.728 1.148.112.467.056.999-.168 1.596zm18.358 4.396v7.756c0 .355-.028.625-.084.812a.505.505 0 01-.336.336c-.168.075-.43.112-.784.112h-6.804a1.86 1.86 0 01-.644-.112.952.952 0 01-.448-.364c-.112-.187-.168-.448-.168-.784 0-.355.056-.616.168-.784a.773.773 0 01.448-.364c.205-.075.429-.112.672-.112h5.516v-6.412c0-1.213-.159-2.212-.476-2.996-.299-.784-.747-1.363-1.344-1.736-.579-.373-1.288-.56-2.128-.56a3.4 3.4 0 00-1.68.42 3.943 3.943 0 00-1.316 1.12 7.64 7.64 0 00-.98 1.736 14.906 14.906 0 00-.672 2.184l-1.513 7.42a3.551 3.551 0 01-.167.672.902.902 0 01-.392.476c-.168.131-.411.196-.728.196-.486 0-.831-.103-1.036-.308-.206-.224-.271-.541-.196-.952l1.988-9.856.896.588c.186-.691.41-1.344.672-1.96.261-.635.55-1.204.868-1.708a5.86 5.86 0 011.175-1.344 5.084 5.084 0 011.513-.868c.578-.205 1.25-.308 2.016-.308 1.269 0 2.342.289 3.22.868.896.56 1.577 1.419 2.044 2.576.466 1.139.7 2.557.7 4.256zm-13.16.784l-1.792-6.692a2.568 2.568 0 01-.112-.7.78.78 0 01.196-.532c.149-.168.401-.299.756-.392.429-.093.746-.093.952 0a.765.765 0 01.42.448 3.5 3.5 0 01.167.532l1.317 5.124-1.904 2.212z" fill="#EEF2FF"/><rect x="1" y="129" width="170" height="46" rx="23" stroke="#B6E94A" stroke-width="2"/><path d="M225.572 160.28c-.243 0-.457-.037-.644-.112a.952.952 0 01-.448-.364c-.112-.187-.168-.448-.168-.784 0-.355.056-.616.168-.784a.773.773 0 01.448-.364c.187-.075.392-.112.616-.112h2.408v-12.264l1.036.784c-.541.019-1.008.028-1.4.028-.373 0-.681-.037-.924-.112a1.008 1.008 0 01-.504-.336c-.093-.168-.14-.392-.14-.672 0-.523.121-.887.364-1.092.243-.205.728-.317 1.456-.336l4.872-.056c1.755-.019 3.22.289 4.396.924 1.195.635 2.091 1.587 2.688 2.856.616 1.269.924 2.865.924 4.788v6.72c0 .243-.037.467-.112.672a.773.773 0 01-.364.448c-.168.112-.42.168-.756.168s-.597-.047-.784-.14a.823.823 0 01-.364-.392 1.491 1.491 0 01-.112-.56v-6.86c0-1.363-.196-2.492-.588-3.388-.373-.896-.943-1.568-1.708-2.016-.765-.467-1.727-.7-2.884-.7h-2.576v12.236c0 .597-.112 1.055-.336 1.372-.205.299-.523.448-.952.448h-3.612zm20.803 0c-.336 0-.588-.056-.756-.168a.946.946 0 01-.364-.448 2.435 2.435 0 01-.084-.644v-14.084c0-.224.028-.429.084-.616a.946.946 0 01.364-.448c.186-.112.448-.168.784-.168.354 0 .616.065.784.196a.777.777 0 01.364.448c.056.168.084.373.084.616v14.084c0 .224-.038.429-.112.616a.777.777 0 01-.364.448c-.168.112-.43.168-.784.168zm7.002 0c-.336 0-.598-.056-.784-.168a.946.946 0 01-.364-.448 1.86 1.86 0 01-.112-.644v-14.056c0-.224.037-.429.112-.616a.946.946 0 01.364-.448c.186-.112.448-.168.784-.168l5.488-.028c1.269 0 2.389.177 3.36.532.97.355 1.773.896 2.408 1.624.653.709 1.138 1.596 1.456 2.66.336 1.064.504 2.315.504 3.752v6.72c0 .243-.028.467-.084.672a.777.777 0 01-.364.448c-.168.112-.43.168-.784.168-.336 0-.598-.047-.784-.14a.818.818 0 01-.364-.392 1.94 1.94 0 01-.084-.56v-6.86c0-1.008-.112-1.895-.336-2.66-.224-.765-.551-1.4-.98-1.904a3.756 3.756 0 00-1.624-1.148c-.635-.261-1.382-.392-2.24-.392h-4.312v12.768c0 .243-.038.467-.112.672a.777.777 0 01-.364.448c-.168.112-.43.168-.784.168zm18.687-7.924c-.336 0-.588-.056-.756-.168a1.121 1.121 0 01-.364-.476 2.139 2.139 0 01-.084-.616v-6.16c0-.224.028-.429.084-.616a.946.946 0 01.364-.448c.186-.112.448-.168.784-.168.354 0 .616.065.784.196a.777.777 0 01.364.448c.056.168.084.373.084.616v6.16c0 .224-.038.429-.112.616a.777.777 0 01-.364.448c-.168.112-.43.168-.784.168zm12.798 8.036c-1.214 0-2.287-.233-3.22-.7a6.754 6.754 0 01-2.38-1.988c-.635-.859-1.111-1.867-1.428-3.024-.318-1.157-.476-2.436-.476-3.836v-5.88c0-.224.028-.429.084-.616a.937.937 0 01.364-.476c.186-.112.448-.168.784-.168.354 0 .616.056.784.168a.78.78 0 01.364.476c.074.187.112.401.112.644v5.852c0 2.24.438 3.976 1.316 5.208.896 1.213 2.156 1.82 3.78 1.82 1.642 0 2.893-.541 3.752-1.624.877-1.083 1.297-2.632 1.26-4.648-.019-1.68-.411-2.996-1.176-3.948-.766-.952-1.746-1.428-2.94-1.428h-1.344c-.206 0-.383-.028-.532-.084a.828.828 0 01-.364-.392c-.075-.187-.112-.448-.112-.784s.056-.588.168-.756a.908.908 0 01.448-.392c.186-.075.401-.112.644-.112h1.12c1.344 0 2.51.327 3.5.98 1.008.653 1.782 1.596 2.324 2.828.541 1.213.784 2.66.728 4.34 0 1.307-.178 2.492-.532 3.556-.355 1.045-.868 1.941-1.54 2.688a6.426 6.426 0 01-2.38 1.708c-.915.392-1.951.588-3.108.588zm22.189-.112c-.336 0-.597-.047-.784-.14a.823.823 0 01-.364-.392 1.305 1.305 0 01-.112-.532v-6.888c0-1.008-.112-1.895-.336-2.66-.205-.765-.522-1.4-.952-1.904a3.744 3.744 0 00-1.624-1.148c-.634-.261-1.39-.392-2.268-.392h-3.108c-.242 0-.466-.028-.672-.084a.913.913 0 01-.448-.392c-.112-.187-.168-.448-.168-.784 0-.355.056-.616.168-.784a.957.957 0 01.448-.364c.187-.075.402-.112.644-.112h3.052c1.288 0 2.418.187 3.388.56.971.355 1.774.896 2.408 1.624.654.709 1.139 1.596 1.456 2.66.336 1.064.504 2.305.504 3.724v6.748c0 .243-.028.457-.084.644a.773.773 0 01-.364.448c-.186.112-.448.168-.784.168zm-9.828 0a1.95 1.95 0 01-.672-.112.805.805 0 01-.448-.336c-.112-.187-.168-.448-.168-.784 0-.355.056-.616.168-.784a.776.776 0 01.448-.364c.206-.075.42-.112.644-.112h12.152c.243 0 .458.037.644.112a.773.773 0 01.448.364c.112.168.168.429.168.784 0 .336-.056.597-.168.784a.802.802 0 01-.448.336c-.186.075-.41.112-.672.112h-12.096z" fill="#EEF2FF"/><rect x="193" y="129" width="148" height="46" rx="23" stroke="#B6E94A" stroke-width="2"/><rect x="14" y="85.682" width="134" height="48" rx="24" transform="rotate(-15 14 85.682)" fill="#EEF2FF"/><path d="M55.581 108.453a1.736 1.736 0 01-.65.058.949.949 0 01-.528-.236c-.156-.151-.278-.389-.365-.713-.092-.343-.105-.61-.04-.801a.779.779 0 01.338-.468c.16-.12.35-.209.566-.267l2.326-.624-3.174-11.846 1.203.49c-.518.158-.966.287-1.345.389-.36.096-.667.14-.921.13a1.003 1.003 0 01-.574-.193c-.134-.138-.237-.343-.31-.613-.134-.505-.111-.888.07-1.15.181-.26.62-.494 1.32-.7l4.69-1.316c1.69-.472 3.186-.553 4.486-.245 1.318.304 2.43.992 3.336 2.063.923 1.067 1.634 2.529 2.132 4.386l1.739 6.491c.063.234.084.46.066.678a.776.776 0 01-.236.527c-.133.152-.362.271-.687.358-.325.087-.589.109-.793.068a.825.825 0 01-.454-.285 1.502 1.502 0 01-.253-.512l-1.775-6.626c-.353-1.316-.834-2.356-1.445-3.12-.592-.77-1.316-1.271-2.172-1.506-.86-.252-1.849-.229-2.967.07l-2.488.667 3.167 11.819c.155.577.165 1.048.03 1.413-.12.341-.388.568-.803.679l-3.489.935zm20.094-5.385c-.324.087-.582.098-.773.034a.955.955 0 01-.468-.339 2.445 2.445 0 01-.248-.6l-3.645-13.604a2.135 2.135 0 01-.078-.617.952.952 0 01.235-.527c.152-.156.39-.278.714-.365.343-.092.612-.096.808-.014.21.06.365.173.468.339.097.148.177.339.24.573l3.645 13.604c.059.217.076.425.052.624a.774.774 0 01-.236.527c-.133.152-.371.274-.714.365zm15.175-4.066c-.325.087-.59.11-.794.068a.823.823 0 01-.453-.284 1.499 1.499 0 01-.253-.512l-1.775-6.627c-.261-.973-.599-1.8-1.013-2.482-.397-.686-.876-1.215-1.44-1.586a3.75 3.75 0 00-1.865-.688c-.681-.088-1.436-.021-2.266.201l-3.272.877a2.355 2.355 0 01-.671.093.909.909 0 01-.534-.263c-.157-.151-.278-.39-.365-.714-.092-.342-.106-.61-.041-.8a.952.952 0 01.338-.468c.162-.12.36-.212.594-.275l3.218-.862c1.244-.334 2.374-.443 3.39-.329a5.96 5.96 0 012.774.938c.815.516 1.513 1.247 2.095 2.193.6.94 1.083 2.096 1.45 3.466l1.74 6.491c.062.235.084.46.065.678a.775.775 0 01-.235.527c-.134.152-.363.271-.687.358zm4.736-9.472c-.325.087-.583.098-.774.033a1.126 1.126 0 01-.475-.365 2.138 2.138 0 01-.24-.573l-1.595-5.95a2.136 2.136 0 01-.078-.617.951.951 0 01.235-.527c.152-.157.39-.279.714-.366.343-.091.612-.096.808-.013.21.06.365.173.468.338.097.148.178.34.24.574l1.595 5.95c.058.216.075.424.05.624a.775.775 0 01-.235.527c-.133.151-.37.273-.714.365zm15.496 4.167c-1.298.348-2.51.44-3.636.279a7.736 7.736 0 01-3.047-1.097 8.359 8.359 0 01-2.294-2.284c-.618-.936-1.091-2.017-1.42-3.243l-1.71-6.383a2.136 2.136 0 01-.078-.617.897.897 0 01.255-.561c.152-.157.39-.278.714-.365.325-.087.583-.098.774-.034a.9.9 0 01.502.359c.12.16.212.358.275.593l1.703 6.356c.333 1.244.848 2.265 1.545 3.064a5.104 5.104 0 002.547 1.607c1.001.273 2.105.248 3.313-.076 1.281-.343 2.283-.892 3.009-1.646a5.095 5.095 0 001.367-2.686c.2-1.058.138-2.191-.186-3.4l-1.746-6.518a1.278 1.278 0 01-.03-.542.825.825 0 01.25-.473c.152-.157.389-.279.714-.365.325-.087.585-.09.781-.007a.78.78 0 01.468.339c.12.16.212.358.274.593l1.718 6.41c.324 1.208.443 2.374.358 3.498a7.924 7.924 0 01-.898 3.14 7.975 7.975 0 01-2.146 2.488c-.916.69-2.042 1.214-3.376 1.571zm-5.942-1.944l-.847-1.541.676-.182c.487-.13.891-.422 1.214-.876.318-.471.567-1.06.745-1.765a8.933 8.933 0 00.253-2.3 11.469 11.469 0 00-.335-2.548l-.841-3.572a1.784 1.784 0 01-.01-.577.808.808 0 01.243-.5c.152-.156.39-.278.714-.365.343-.092.619-.108.828-.048a.78.78 0 01.468.339c.097.147.166.332.206.553l.758 3.478a15.33 15.33 0 01.321 3.364c-.004 1.064-.158 2.042-.46 2.935-.284.888-.704 1.628-1.26 2.222a4.121 4.121 0 01-2.024 1.209l-.649.174z" fill="#B6E94A"/></svg>