<svg width="303" height="155" fill="none" xmlns="http://www.w3.org/2000/svg"><path d="M218.549 138v-8.646c0-.719-.176-1.254-.528-1.606-.352-.367-.866-.55-1.54-.55h-6.006V124.8h6.16c1.598 0 2.801.381 3.608 1.144.806.748 1.21 1.863 1.21 3.344V138h-2.904zm-10.472 0l.308-2.398h.792c.308 0 .55-.059.726-.176.19-.117.33-.293.418-.528.102-.249.154-.55.154-.902v-8.602h2.904v8.58c0 1.305-.308 2.303-.924 2.992-.616.689-1.518 1.034-2.706 1.034h-1.672zm.374-10.802l.308-2.398h3.3v2.398h-3.608zM225.566 138v-13.2h2.904V138h-2.904zm-1.848-10.802l.308-2.398h3.454v2.398h-3.762zm15.009-2.398c1.584 0 2.779.381 3.586 1.144.821.748 1.232 1.863 1.232 3.344V138h-2.904v-8.646c0-.719-.176-1.254-.528-1.606-.352-.367-.866-.55-1.54-.55h-3.344c-.074.117-.154.33-.242.638-.074.308-.11.807-.11 1.496V138h-2.904v-7.81c0-.616.058-1.166.176-1.65a2.91 2.91 0 01.638-1.276l-.264-.154v-2.31h6.204zm-7.876 2.398l.33-2.398h5.72v2.398h-6.05zm16.522 5.17V124.8h2.904v7.568h-2.904zm-1.848-5.17l.308-2.398h3.19v2.398h-3.498zm13.405 11c-1.951 0-3.462-.623-4.532-1.87-1.056-1.247-1.584-3.08-1.584-5.5V124.8h2.904v6.028c0 1.657.278 2.919.836 3.784.557.851 1.334 1.276 2.332 1.276 1.041 0 1.855-.425 2.442-1.276.601-.865.902-2.127.902-3.784 0-1.217-.154-2.156-.462-2.816-.308-.675-.851-1.012-1.628-1.012a3.427 3.427 0 00-.88.066c-.279.059-.58.125-.902.198v-2.31c.41-.088.792-.154 1.144-.198a7.332 7.332 0 011.166-.088c1.54.015 2.662.55 3.366 1.606.718 1.056 1.078 2.574 1.078 4.554 0 2.42-.536 4.253-1.606 5.5-1.071 1.247-2.596 1.87-4.576 1.87zm14.902-.198v-8.646c0-.719-.176-1.254-.528-1.606-.352-.367-.865-.55-1.54-.55h-4.268l.33-2.398h4.092c1.584 0 2.779.381 3.586 1.144.821.748 1.232 1.863 1.232 3.344v6.556a3.363 3.363 0 01-.506 1.1 13.62 13.62 0 01-.748 1.056h-1.65zm-6.996 0v-2.398h11.528l-.308 2.398h-11.22z" fill="#EEF2FF"/><rect x="183" y="108" width="119" height="46" rx="23" stroke="#B6E94A" stroke-width="2"/><rect y="69.694" width="107" height="48" rx="24" transform="rotate(-15 0 69.694)" fill="#EEF2FF"/><path d="M42.981 90.27l-2.237-8.351c-.186-.694-.495-1.166-.926-1.415-.435-.263-.978-.307-1.63-.132l-5.801 1.554-.62-2.316 5.95-1.594c1.544-.414 2.804-.357 3.78.17.973.514 1.651 1.487 2.035 2.918l2.255 8.415-2.806.751zm-10.115 2.71l-.323-2.395.765-.205c.298-.08.516-.2.656-.358.154-.163.243-.369.267-.618a2.368 2.368 0 00-.085-.911l-2.226-8.31 2.805-.751 2.22 8.288c.338 1.26.3 2.304-.117 3.129-.417.825-1.2 1.391-2.347 1.699l-1.615.433zm-2.434-10.53l-.323-2.396 3.187-.854.62 2.316-3.484.934zm19.328 6.004l-3.416-12.75 2.805-.752 3.416 12.75-2.805.752zm-4.58-9.956l-.324-2.396 3.336-.894.621 2.317-3.634.973zm16.08 6.874l-2.237-8.35c-.186-.695-.495-1.167-.926-1.416-.435-.263-.978-.307-1.63-.132l-4.356 1.167-.323-2.396 4.207-1.127c1.53-.41 2.784-.351 3.76.177.987.51 1.672 1.48 2.056 2.91l2.255 8.416-2.805.752zm4.93-7.151l-1.958-7.31 2.805-.752 1.959 7.31-2.805.752zm-3.122-4.516l-.323-2.396 3.08-.825.621 2.316-3.378.905zm16.968 6.773c-1.431.384-2.732.429-3.904.135-1.176-.307-2.185-.955-3.027-1.945-.842-.989-1.49-2.333-1.946-4.033l-1.395-5.207 2.784-.745 1.389 5.185c.338 1.26.77 2.253 1.299 2.977.524.71 1.13 1.185 1.817 1.426.697.223 1.471.22 2.321-.007l.128-.034c.874-.25 1.558-.645 2.05-1.187.507-.546.803-1.255.888-2.128.095-.891-.022-1.953-.353-3.186l-1.4-5.227 2.805-.752 1.4 5.228c.452 1.686.56 3.167.326 4.445-.235 1.278-.78 2.334-1.633 3.17-.854.837-1.988 1.452-3.4 1.846l-.15.04zM73.84 76.65l-.656-1.852c.936-.19 1.628-.497 2.077-.92.444-.439.7-.986.767-1.641.064-.67-.024-1.451-.263-2.344l-.519-1.934 2.784-.746.484 1.807c.247.92.36 1.794.338 2.62-.026.811-.216 1.546-.572 2.203-.344.639-.885 1.2-1.62 1.686-.721.482-1.661.856-2.82 1.12z" fill="#9DC940"/><path d="M64.623 138v-8.646c0-.719-.176-1.254-.528-1.606-.352-.367-.865-.55-1.54-.55h-6.006V124.8h6.16c1.599 0 2.801.381 3.608 1.144.807.748 1.21 1.863 1.21 3.344V138h-2.904zm-10.472 0l.308-2.398h.792c.308 0 .55-.059.726-.176.19-.117.33-.293.418-.528.102-.249.154-.55.154-.902v-8.602h2.904v8.58c0 1.305-.308 2.303-.924 2.992-.616.689-1.518 1.034-2.706 1.034H54.15zm.374-10.802l.308-2.398h3.3v2.398h-3.608zM71.64 138v-13.2h2.903V138H71.64zm-1.849-10.802l.308-2.398h3.455v2.398h-3.763zm9.003 5.17V124.8h2.904v7.568h-2.904zm-1.848-5.17l.308-2.398h3.19v2.398h-3.498zm6.959 11.616v-2.398l4.972-1.012a6.144 6.144 0 001.518-.55c.44-.249.821-.616 1.144-1.1.322-.499.579-1.159.77-1.98.205-.821.352-1.885.44-3.19l.242-3.784h2.904l-.242 3.85a21.798 21.798 0 01-.33 2.772 9.694 9.694 0 01-.682 2.288 6.835 6.835 0 01-1.21 1.848c-.499.528-1.122.975-1.87 1.342-.748.367-1.636.66-2.662.88l-4.994 1.034zm3.256-1.958l-2.618-11.858 2.838-.352 1.826 8.514c.102.411.124.836.066 1.276a4.553 4.553 0 01-.33 1.276 4.63 4.63 0 01-.704 1.144h-1.078zM99.42 138v-13.2h2.904V138H99.42zm-1.848-10.802l.308-2.398h3.454v2.398h-3.762zm15.404 10.736l-8.338-13.134h3.388l3.608 6.028 3.52 5.434-2.178 1.672zm-8.162.066v-2.398h9.438l.902.66-.286 1.738h-10.054zm6.556-5.214l-.814-1.914c.411-.132.741-.345.99-.638.264-.308.469-.653.616-1.034.147-.381.257-.763.33-1.144.073-.396.132-.763.176-1.1l.264-2.156h2.882l-.242 2.42a8.713 8.713 0 01-.352 1.562 7.063 7.063 0 01-.726 1.65 5.085 5.085 0 01-1.232 1.408c-.513.411-1.144.726-1.892.946zM123.736 138l3.212-10.824h-9.108l.308-2.376h12.1l-.198 1.76-3.41 11.44h-2.904zm-5.346 4.114v-11.99l2.904-.176v11.99l-2.904.176zM132.042 138l1.496-7.788-1.848-5.412h2.904l.924 3.168h.088c.19-.513.41-.975.66-1.386.249-.411.55-.763.902-1.056a4.086 4.086 0 011.276-.682c.498-.161 1.07-.242 1.716-.242 1.026 0 1.921.242 2.684.726.762.484 1.364 1.203 1.804 2.156.44.939.66 2.105.66 3.498v.286c0 1.349-.235 2.53-.704 3.542-.455.997-1.122 1.782-2.002 2.354-.88.557-1.951.836-3.212.836h-2.156l.352-2.398h1.65c1.012 0 1.789-.396 2.332-1.188.557-.807.836-1.855.836-3.146v-.286c0-.895-.125-1.628-.374-2.2-.25-.587-.587-1.027-1.012-1.32a2.465 2.465 0 00-1.43-.44c-.558 0-1.027.095-1.408.286a2.535 2.535 0 00-.924.748 4.152 4.152 0 00-.572 1.144 8.938 8.938 0 00-.352 1.408L135.034 138h-2.992z" fill="#EEF2FF"/><rect x="30" y="108" width="139" height="46" rx="23" stroke="#B6E94A" stroke-width="2"/><path d="M123.207 44.575l4.323-7.487c.359-.623.474-1.174.345-1.655-.121-.494-.474-.91-1.058-1.246l-5.202-3.003 1.199-2.077 5.335 3.08c1.384.8 2.235 1.73 2.553 2.794.324 1.052.116 2.219-.624 3.502l-4.356 7.544-2.515-1.452zm-9.069-5.236l1.465-1.922.686.396c.267.154.506.224.717.21.224-.006.432-.089.626-.248.214-.165.408-.4.584-.704l4.301-7.45 2.515 1.452-4.29 7.43c-.652 1.131-1.418 1.84-2.296 2.13-.878.289-1.832.136-2.86-.458l-1.448-.836zm5.724-9.167l1.466-1.923 2.858 1.65-1.199 2.076-3.125-1.803zm9.422 17.912l6.6-11.431 2.515 1.452-6.6 11.431-2.515-1.452zm3.801-10.279l1.465-1.922 2.992 1.727-1.199 2.076-3.258-1.88zm5.211 8.979l3.784-6.554 2.515 1.452-3.784 6.554-2.515-1.452zm.984-5.401l1.466-1.923 2.763 1.595-1.199 2.077-3.03-1.75zm4.356 15.114l.82-2.829-.171-.099a8.84 8.84 0 01-1.294.701 4.234 4.234 0 01-1.153.325 2.963 2.963 0 01-1.099-.075 4.652 4.652 0 01-1.163-.494l-.401-.231 1.221-2.115.382.22c.375.2.761.338 1.157.415.409.083.809.11 1.198.081.389-.029.738-.09 1.046-.183a4.21 4.21 0 00.828-.335l2.354-4.077c.279-.483.359-.886.24-1.208-.118-.323-.438-.634-.959-.935l-1.143-.66 1.477-1.942 1.543.891c.749.433 1.296.91 1.639 1.43.356.527.519 1.095.489 1.704-.022.597-.232 1.238-.628 1.924l-2.904 5.03-1.008 3.33-2.471-.868zm5.036 2.78l6.6-11.431 2.514 1.452-6.6 11.431-2.514-1.451zm3.8-10.278l1.466-1.923 2.991 1.727-1.199 2.077-3.258-1.881zm9.738 2.853l6.726 3.883-1.06 1.395-9.16 7.947-2.61-1.507 8.697-7.452-6.307-3.641 2.805-4.859 2.669 1.186-1.76 3.048zm3.039 16.997l6.6-11.432 2.515 1.452-6.6 11.432-2.515-1.452zm3.801-10.279l1.466-1.923 2.991 1.727-1.199 2.077-3.258-1.881zm3.862 14.703l4.664-8.078c.184-.318.276-.595.277-.831a.881.881 0 00-.188-.643c-.139-.198-.361-.386-.666-.562l-1.143-.66 1.465-1.923 1.544.891c1.054.61 1.687 1.33 1.9 2.165.233.828.056 1.75-.531 2.767l-4.807 8.326-2.515-1.452zm-2.953-1.705l1.199-2.077 4.154 2.398-1.199 2.077-4.154-2.398zm7.44 4.295l1.199-2.076 3.296 1.902c.915.529 1.77.616 2.567.263.804-.366 1.532-1.114 2.184-2.244.697-1.207 1.007-2.256.929-3.148-.071-.904-.563-1.62-1.478-2.149l-3.296-1.903 1.466-1.922 3.029 1.749c1.727.997 2.742 2.26 3.045 3.79.322 1.524-.052 3.213-1.122 5.068-1.034 1.79-2.285 2.915-3.751 3.372-1.454.465-3.045.199-4.772-.799l-3.296-1.903zm15.324 9.076c-1.689-.975-2.686-2.27-2.99-3.885-.291-1.608.168-3.46 1.378-5.555l3.014-5.22 2.515 1.451-3.014 5.22c-.828 1.436-1.218 2.668-1.168 3.696.058 1.015.518 1.772 1.382 2.27.902.522 1.819.56 2.753.117.953-.449 1.844-1.391 2.673-2.826.609-1.054.945-1.944 1.008-2.67.07-.738-.231-1.302-.904-1.69a3.443 3.443 0 00-.795-.383 59.64 59.64 0 00-.88-.28l1.155-2c.399.129.763.262 1.089.4.347.133.699.302 1.054.507 1.327.783 2.031 1.807 2.112 3.074.095 1.274-.353 2.768-1.343 4.483-1.21 2.096-2.59 3.416-4.141 3.96-1.551.544-3.183.321-4.898-.669z" fill="#EEF2FF"/><rect x="108.366" y="1.366" width="145" height="46" rx="23" transform="rotate(30 108.366 1.366)" stroke="#B6E94A" stroke-width="2"/></svg>