<svg width="352" height="195" fill="none" xmlns="http://www.w3.org/2000/svg"><path d="M142.608 55.2l5.502-9.53c.458-.793.604-1.495.44-2.107-.154-.628-.603-1.157-1.347-1.586l-6.62-3.822 1.526-2.643 6.79 3.92c1.762 1.017 2.845 2.203 3.249 3.557.413 1.338.148 2.823-.795 4.456l-5.544 9.602-3.201-1.848zm-11.542-6.665l1.865-2.447.873.504c.34.196.644.285.913.268a1.29 1.29 0 00.796-.316c.272-.21.52-.508.744-.896l5.474-9.481 3.201 1.848-5.46 9.457c-.831 1.438-1.805 2.342-2.923 2.71-1.117.367-2.331.173-3.64-.583l-1.843-1.064zm7.286-11.668l1.866-2.447 3.637 2.1-1.526 2.643-3.977-2.296zm11.991 22.798l8.4-14.55 3.201 1.849-8.4 14.549-3.201-1.848zm4.837-13.082l1.866-2.447 3.807 2.198-1.526 2.643-4.147-2.394zm6.633 11.427l4.816-8.341 3.201 1.848-4.816 8.341-3.201-1.848zm1.253-6.874l1.865-2.448 3.517 2.03-1.526 2.644-3.856-2.226zm5.543 19.236l1.044-3.6-.218-.126c-.583.375-1.132.672-1.647.892a5.368 5.368 0 01-1.467.414c-.463.056-.93.024-1.399-.096-.47-.12-.963-.33-1.48-.629l-.51-.294 1.554-2.691.485.28c.478.254.97.43 1.474.527a5.518 5.518 0 001.524.104c.496-.037.94-.115 1.331-.234a5.379 5.379 0 001.055-.425l2.996-5.19c.354-.614.456-1.126.305-1.537-.151-.41-.558-.807-1.221-1.19l-1.454-.84 1.879-2.471 1.964 1.134c.954.55 1.649 1.157 2.086 1.819.453.67.661 1.394.623 2.17-.029.759-.296 1.575-.8 2.448l-3.696 6.402-1.283 4.238-3.145-1.105zm6.409 3.539l8.4-14.55 3.201 1.849-8.4 14.549-3.201-1.848zm4.837-13.082l1.866-2.447 3.807 2.198-1.526 2.643-4.147-2.394zm12.395 3.631l8.559 4.943-1.348 1.775-11.659 10.114-3.322-1.918 11.069-9.484-8.026-4.634 3.57-6.184 3.397 1.509-2.24 3.88zm3.868 21.633l8.4-14.55 3.2 1.848-8.4 14.55-3.2-1.848zm4.837-13.082l1.865-2.447 3.807 2.198-1.526 2.643-4.146-2.394zm4.915 18.712l5.936-10.281c.234-.404.351-.757.352-1.058a1.12 1.12 0 00-.239-.817c-.177-.253-.46-.492-.848-.716l-1.455-.84 1.866-2.447 1.964 1.134c1.342.775 2.148 1.693 2.419 2.755.296 1.054.071 2.228-.676 3.522l-6.118 10.596-3.201-1.848zm-3.758-2.17l1.526-2.643 5.286 3.052-1.526 2.643-5.286-3.052zm9.468 5.467l1.526-2.643 4.195 2.422c1.164.672 2.253.783 3.267.334 1.023-.465 1.95-1.417 2.781-2.856.886-1.536 1.28-2.871 1.181-4.006-.09-1.151-.717-2.063-1.881-2.735l-4.195-2.422 1.866-2.447 3.855 2.226c2.199 1.27 3.491 2.877 3.876 4.824.41 1.94-.066 4.09-1.429 6.45-1.316 2.28-2.907 3.71-4.773 4.292-1.851.591-3.875.252-6.074-1.017l-4.195-2.422zm19.504 11.552c-2.15-1.242-3.419-2.89-3.805-4.946-.371-2.046.214-4.402 1.754-7.07l3.836-6.644 3.201 1.848-3.836 6.644c-1.055 1.827-1.551 3.395-1.487 4.703.073 1.292.659 2.256 1.758 2.89 1.148.663 2.316.712 3.504.148 1.214-.571 2.348-1.77 3.402-3.597.775-1.341 1.202-2.474 1.283-3.398.09-.94-.294-1.656-1.15-2.151a4.43 4.43 0 00-1.012-.487 73.094 73.094 0 00-1.121-.356l1.47-2.546c.509.164.971.334 1.387.51a9.4 9.4 0 011.342.645c1.688.996 2.584 2.3 2.688 3.912.12 1.621-.45 3.523-1.71 5.705-1.54 2.668-3.297 4.348-5.27 5.04-1.974.693-4.052.41-6.234-.85z" fill="#EEF2FF"/><rect x="123.366" y="1.366" width="184" height="58" rx="29" transform="rotate(30 123.366 1.366)" stroke="#B6E94A" stroke-width="2"/><path d="M46.43 173v-11.004c0-.915-.225-1.596-.673-2.044-.448-.467-1.101-.7-1.96-.7h-7.644V156.2h7.84c2.035 0 3.565.485 4.592 1.456 1.027.952 1.54 2.371 1.54 4.256V173H46.43zm-13.33 0l.392-3.052H34.5c.392 0 .7-.075.924-.224.243-.149.42-.373.532-.672.13-.317.196-.7.196-1.148v-10.948h3.696v10.92c0 1.661-.392 2.931-1.176 3.808-.784.877-1.932 1.316-3.444 1.316H33.1zm.476-13.748l.392-3.052h4.2v3.052h-4.592zM55.361 173v-16.8h3.696V173H55.36zm-2.352-13.748l.392-3.052h4.396v3.052h-4.788zm11.457 6.58V156.2h3.696v9.632h-3.696zm-2.352-6.58l.392-3.052h4.06v3.052h-4.452zm8.857 14.784v-3.052l6.328-1.288a7.823 7.823 0 001.932-.7c.56-.317 1.045-.784 1.456-1.4.41-.635.737-1.475.98-2.52.261-1.045.448-2.399.56-4.06l.308-4.816h3.696l-.308 4.9a27.735 27.735 0 01-.42 3.528 12.339 12.339 0 01-.868 2.912 8.699 8.699 0 01-1.54 2.352c-.635.672-1.428 1.241-2.38 1.708-.952.467-2.082.84-3.388 1.12l-6.356 1.316zm4.144-2.492l-3.332-15.092 3.612-.448 2.324 10.836a4.3 4.3 0 01.084 1.624 5.795 5.795 0 01-.42 1.624 5.884 5.884 0 01-.896 1.456h-1.372zM90.716 173v-16.8h3.696V173h-3.696zm-2.352-13.748l.392-3.052h4.396v3.052h-4.788zm19.606 13.664L97.358 156.2h4.312l4.592 7.672 4.48 6.916-2.772 2.128zM97.582 173v-3.052h12.012l1.148.84-.364 2.212H97.582zm8.344-6.636l-1.036-2.436c.522-.168.942-.439 1.26-.812.336-.392.597-.831.784-1.316.186-.485.326-.971.42-1.456a27.1 27.1 0 00.224-1.4l.336-2.744h3.668l-.308 3.08a11.083 11.083 0 01-.448 1.988 9.078 9.078 0 01-.924 2.1 6.47 6.47 0 01-1.568 1.792c-.654.523-1.456.924-2.408 1.204zM121.664 173l4.088-13.776H114.16l.392-3.024h15.4l-.252 2.24-4.34 14.56h-3.696zm-6.804 5.236v-15.26l3.696-.224v15.26l-3.696.224zM132.235 173l1.904-9.912-2.352-6.888h3.696l1.176 4.032h.112c.242-.653.522-1.241.84-1.764.317-.523.7-.971 1.148-1.344a5.203 5.203 0 011.624-.868c.634-.205 1.362-.308 2.184-.308 1.306 0 2.445.308 3.416.924.97.616 1.736 1.531 2.296 2.744.56 1.195.84 2.679.84 4.452v.364c0 1.717-.299 3.22-.896 4.508-.579 1.269-1.428 2.268-2.548 2.996-1.12.709-2.483 1.064-4.088 1.064h-2.744l.448-3.052h2.1c1.288 0 2.277-.504 2.968-1.512.709-1.027 1.064-2.361 1.064-4.004v-.364c0-1.139-.159-2.072-.476-2.8-.318-.747-.747-1.307-1.288-1.68a3.136 3.136 0 00-1.82-.56c-.71 0-1.307.121-1.792.364a3.228 3.228 0 00-1.176.952 5.29 5.29 0 00-.728 1.456 11.385 11.385 0 00-.448 1.792L136.043 173h-3.808z" fill="#EEF2FF"/><rect x="1" y="136" width="178" height="58" rx="29" stroke="#B6E94A" stroke-width="2"/><path d="M245.062 173v-11.004c0-.915-.224-1.596-.672-2.044-.448-.467-1.101-.7-1.96-.7h-7.644V156.2h7.84c2.035 0 3.565.485 4.592 1.456 1.027.952 1.54 2.371 1.54 4.256V173h-3.696zm-13.328 0l.392-3.052h1.008c.392 0 .7-.075.924-.224.243-.149.42-.373.532-.672.131-.317.196-.7.196-1.148v-10.948h3.696v10.92c0 1.661-.392 2.931-1.176 3.808-.784.877-1.932 1.316-3.444 1.316h-2.128zm.476-13.748l.392-3.052h4.2v3.052h-4.592zM253.993 173v-16.8h3.696V173h-3.696zm-2.352-13.748l.392-3.052h4.396v3.052h-4.788zm19.102-3.052c2.016 0 3.537.485 4.564 1.456 1.045.952 1.568 2.371 1.568 4.256V173h-3.696v-11.004c0-.915-.224-1.596-.672-2.044-.448-.467-1.101-.7-1.96-.7h-4.256c-.093.149-.196.42-.308.812-.093.392-.14 1.027-.14 1.904V173h-3.696v-9.94c0-.784.075-1.484.224-2.1.149-.635.42-1.176.812-1.624l-.336-.196v-2.94h7.896zm-10.024 3.052l.42-3.052h7.28v3.052h-7.7zm21.028 6.58V156.2h3.696v9.632h-3.696zm-2.352-6.58l.392-3.052h4.06v3.052h-4.452zm17.061 14c-2.483 0-4.405-.793-5.768-2.38-1.344-1.587-2.016-3.92-2.016-7V156.2h3.696v7.672c0 2.109.355 3.715 1.064 4.816.709 1.083 1.699 1.624 2.968 1.624 1.325 0 2.361-.541 3.108-1.624.765-1.101 1.148-2.707 1.148-4.816 0-1.549-.196-2.744-.588-3.584-.392-.859-1.083-1.288-2.072-1.288a4.374 4.374 0 00-1.12.084c-.355.075-.737.159-1.148.252v-2.94a17.147 17.147 0 011.456-.252 9.354 9.354 0 011.484-.112c1.96.019 3.388.7 4.284 2.044.915 1.344 1.372 3.276 1.372 5.796 0 3.08-.681 5.413-2.044 7-1.363 1.587-3.304 2.38-5.824 2.38zm18.966-.252v-11.004c0-.915-.224-1.596-.672-2.044-.448-.467-1.101-.7-1.96-.7h-5.432l.42-3.052h5.208c2.016 0 3.538.485 4.564 1.456 1.046.952 1.568 2.371 1.568 4.256v8.344a4.257 4.257 0 01-.644 1.4c-.298.467-.616.915-.952 1.344h-2.1zm-8.904 0v-3.052h14.672l-.392 3.052h-14.28z" fill="#EEF2FF"/><rect x="201" y="136" width="150" height="58" rx="29" stroke="#B6E94A" stroke-width="2"/><rect x="14" y="102.682" width="134" height="60" rx="30" transform="rotate(-15 14 102.682)" fill="#EEF2FF"/><path d="M66.748 127.889L63.9 117.26c-.237-.883-.63-1.483-1.178-1.8-.554-.335-1.245-.391-2.075-.169l-7.383 1.978-.79-2.948 7.573-2.029c1.965-.526 3.57-.454 4.812.218 1.238.654 2.101 1.891 2.59 3.712l2.869 10.711-3.57.956zm-12.874 3.45l-.411-3.05.973-.261c.38-.101.657-.253.835-.455a1.29 1.29 0 00.34-.787c.044-.34.008-.727-.108-1.159l-2.834-10.575 3.57-.957 2.827 10.548c.43 1.605.38 2.932-.15 3.982-.53 1.051-1.526 1.772-2.986 2.163l-2.056.551zm-3.098-13.403l-.412-3.049 4.057-1.087.79 2.948-4.435 1.188zm24.6 7.642l-4.349-16.228 3.57-.957 4.348 16.228-3.57.957zm-5.831-12.671l-.411-3.05 4.246-1.137.79 2.948-4.625 1.239zm20.467 8.749l-2.848-10.629c-.237-.884-.63-1.484-1.178-1.801-.553-.335-1.245-.391-2.074-.169l-5.545 1.486-.411-3.05 5.355-1.434c1.947-.522 3.542-.447 4.785.225 1.257.649 2.129 1.884 2.617 3.705l2.87 10.71-3.57.957zm6.275-9.103l-2.493-9.303 3.57-.957 2.493 9.304-3.57.956zm-3.975-5.747l-.411-3.049 3.922-1.051.79 2.948-4.3 1.152zm21.596 8.621c-1.821.488-3.477.545-4.969.172-1.496-.392-2.78-1.217-3.852-2.476s-1.897-2.97-2.477-5.134l-1.775-6.626 3.543-.949 1.768 6.599c.43 1.605.981 2.868 1.653 3.789.667.904 1.438 1.509 2.312 1.816.888.283 1.873.28 2.955-.009l.162-.044c1.113-.317 1.983-.821 2.61-1.511.645-.694 1.021-1.597 1.129-2.708.122-1.134-.028-2.486-.448-4.055l-1.783-6.653 3.57-.956 1.783 6.653c.575 2.146.713 4.031.414 5.657-.298 1.626-.991 2.972-2.078 4.036-1.087 1.064-2.53 1.847-4.328 2.348l-.189.051zm-7.886-4.873l-.834-2.357c1.191-.242 2.072-.632 2.642-1.172.566-.557.892-1.253.977-2.088.081-.852-.031-1.846-.335-2.982l-.66-2.462 3.543-.949.616 2.299c.314 1.172.458 2.283.43 3.334-.032 1.033-.275 1.968-.727 2.804-.439.813-1.127 1.529-2.063 2.147-.918.613-2.114 1.088-3.589 1.426z" fill="#B6E94A"/></svg>