<svg width="192" height="145" fill="none" xmlns="http://www.w3.org/2000/svg"><path d="M49.608 55.2l5.502-9.53c.458-.793.604-1.495.44-2.107-.154-.628-.603-1.157-1.347-1.586l-6.62-3.822 1.526-2.643 6.79 3.92c1.762 1.017 2.845 2.203 3.248 3.557.414 1.338.149 2.823-.794 4.456l-5.544 9.602-3.2-1.848zm-11.542-6.665l1.865-2.447.873.504c.34.196.644.285.913.268a1.29 1.29 0 00.796-.316c.272-.21.52-.508.744-.896l5.474-9.481 3.2 1.848-5.46 9.457c-.83 1.438-1.804 2.342-2.921 2.71-1.118.367-2.332.173-3.641-.583l-1.843-1.064zm7.286-11.668l1.866-2.447 3.637 2.1-1.526 2.643-3.977-2.296zm11.991 22.798l8.4-14.55 3.201 1.849-8.4 14.549-3.2-1.848zm4.837-13.082l1.866-2.447 3.807 2.198-1.526 2.643-4.147-2.394zm6.633 11.427l4.816-8.341 3.2 1.848-4.815 8.341-3.201-1.848zm1.253-6.874l1.865-2.448 3.517 2.03-1.526 2.644-3.856-2.226zm5.543 19.236l1.044-3.6-.218-.126a11.24 11.24 0 01-1.647.892 5.4 5.4 0 01-1.467.414c-.463.056-.93.024-1.4-.096a5.93 5.93 0 01-1.48-.629l-.509-.294 1.554-2.691.485.28c.478.254.97.43 1.474.527.52.107 1.029.141 1.524.104.496-.037.94-.115 1.331-.234a5.373 5.373 0 001.055-.425l2.996-5.19c.354-.614.456-1.126.305-1.537-.15-.41-.558-.807-1.22-1.19l-1.455-.84 1.88-2.471 1.963 1.134c.954.55 1.65 1.157 2.086 1.819.454.67.66 1.394.623 2.17-.03.759-.296 1.575-.8 2.448l-3.696 6.402-1.283 4.238-3.145-1.105zm6.41 3.539l8.4-14.55 3.2 1.849-8.4 14.549-3.2-1.848zm4.836-13.082l1.866-2.447 3.807 2.198-1.526 2.643-4.147-2.394zM99.25 64.46l8.56 4.943-1.348 1.775-11.659 10.114-3.322-1.918 11.069-9.484-8.026-4.634 3.57-6.184 3.397 1.509-2.24 3.88zm3.869 21.633l8.4-14.55 3.2 1.848-8.4 14.55-3.2-1.848zm4.837-13.082l1.865-2.447 3.807 2.198-1.526 2.643-4.146-2.394zm4.915 18.712l5.936-10.281c.234-.404.351-.757.352-1.058a1.12 1.12 0 00-.239-.817c-.177-.253-.46-.492-.848-.716l-1.455-.84 1.866-2.447 1.964 1.134c1.342.775 2.148 1.693 2.419 2.755.296 1.054.071 2.228-.676 3.522l-6.118 10.596-3.201-1.848zm-3.758-2.17l1.526-2.643 5.286 3.052-1.526 2.643-5.286-3.052zm9.468 5.467l1.526-2.643 4.195 2.422c1.164.672 2.253.783 3.267.334 1.023-.465 1.95-1.417 2.781-2.856.886-1.536 1.28-2.871 1.181-4.006-.09-1.151-.717-2.063-1.881-2.735l-4.195-2.422 1.866-2.447 3.855 2.226c2.199 1.27 3.491 2.877 3.876 4.824.41 1.94-.066 4.09-1.429 6.45-1.316 2.28-2.907 3.71-4.773 4.292-1.851.591-3.875.252-6.074-1.017l-4.195-2.422zm19.504 11.552c-2.15-1.242-3.419-2.89-3.805-4.946-.371-2.046.214-4.402 1.754-7.07l3.836-6.644 3.201 1.848-3.836 6.644c-1.055 1.827-1.551 3.395-1.487 4.703.073 1.292.659 2.256 1.758 2.89 1.148.663 2.316.712 3.504.148 1.214-.571 2.348-1.77 3.402-3.597.775-1.341 1.202-2.474 1.283-3.398.09-.94-.294-1.656-1.15-2.151a4.43 4.43 0 00-1.012-.487 73.094 73.094 0 00-1.121-.356l1.47-2.546c.509.164.971.334 1.387.51a9.4 9.4 0 011.342.645c1.688.996 2.584 2.3 2.688 3.912.12 1.621-.45 3.523-1.71 5.705-1.54 2.668-3.297 4.348-5.27 5.04-1.974.693-4.052.41-6.234-.85z" fill="#EEF2FF"/><rect x="30.366" y="1.366" width="184" height="58" rx="29" transform="rotate(30 30.366 1.366)" stroke="#B6E94A" stroke-width="2"/></svg>