<svg width="172" height="48" fill="none" xmlns="http://www.w3.org/2000/svg"><path d="M33.492 32.28c-.242 0-.457-.037-.644-.112a.952.952 0 01-.448-.364c-.112-.187-.168-.448-.168-.784 0-.355.056-.616.168-.784a.775.775 0 01.448-.364c.187-.075.392-.112.616-.112h2.408V17.496l1.036.784c-.541.019-1.008.028-1.4.028-.373 0-.681-.037-.924-.112a1.004 1.004 0 01-.504-.336c-.093-.168-.14-.392-.14-.672 0-.523.122-.887.364-1.092.243-.205.728-.317 1.456-.336l4.872-.056c1.755-.019 3.22.29 4.396.924 1.195.635 2.091 1.587 2.688 2.856.616 1.27.924 2.865.924 4.788v6.72c0 .243-.037.467-.112.672a.775.775 0 01-.364.448c-.168.112-.42.168-.756.168s-.597-.047-.784-.14a.822.822 0 01-.364-.392 1.5 1.5 0 01-.112-.56v-6.86c0-1.363-.196-2.492-.588-3.388-.373-.896-.942-1.568-1.708-2.016-.765-.467-1.726-.7-2.884-.7h-2.576V30.46c0 .597-.112 1.055-.336 1.372-.205.299-.522.448-.952.448h-3.612zm20.803 0c-.336 0-.588-.056-.756-.168a.951.951 0 01-.364-.448 2.437 2.437 0 01-.084-.644V16.936c0-.224.028-.43.084-.616a.951.951 0 01.364-.448c.187-.112.448-.168.784-.168.355 0 .616.065.784.196a.775.775 0 01.364.448c.056.168.084.373.084.616v14.084c0 .224-.037.43-.112.616a.775.775 0 01-.364.448c-.168.112-.43.168-.784.168zm7.198-7.924c-.336 0-.588-.056-.756-.168-.168-.13-.29-.29-.364-.476a2.137 2.137 0 01-.084-.616v-6.16c0-.224.028-.43.084-.616a.952.952 0 01.364-.448c.187-.112.448-.168.784-.168.355 0 .616.065.784.196a.775.775 0 01.364.448c.056.168.084.373.084.616v6.16c0 .224-.037.43-.112.616a.775.775 0 01-.364.448c-.168.112-.43.168-.784.168zm6.89 8.596a2.747 2.747 0 01-.756.112.718.718 0 01-.56-.252c-.15-.15-.27-.401-.364-.756-.075-.336-.075-.597 0-.784.093-.187.243-.336.448-.448.206-.112.448-.205.728-.28l5.768-1.568c.859-.299 1.559-.681 2.1-1.148a4.074 4.074 0 001.204-1.792c.262-.71.392-1.54.392-2.492v-6.748c0-.205.028-.383.084-.532a.822.822 0 01.364-.392c.168-.112.42-.168.756-.168.355 0 .626.056.812.168a.89.89 0 01.392.476c.075.187.112.401.112.644l-.028 5.768c0 1.195-.13 2.259-.392 3.192-.261.933-.644 1.745-1.148 2.436a7.29 7.29 0 01-1.904 1.792c-.765.504-1.67.924-2.716 1.26l-5.292 1.512zm3.36-3.052a3.737 3.737 0 01-.756-.56c-.242-.261-.438-.607-.588-1.036l-3.332-10.892a3.37 3.37 0 01-.14-.644.77.77 0 01.168-.56c.13-.168.374-.299.728-.392.374-.112.663-.13.868-.056a.866.866 0 01.504.42c.112.205.206.439.28.7l3.78 12.572-1.512.448zm13.908 2.38c-.336 0-.588-.056-.756-.168a.951.951 0 01-.364-.448 2.437 2.437 0 01-.084-.644V16.936c0-.224.028-.43.084-.616a.951.951 0 01.364-.448c.187-.112.448-.168.784-.168.355 0 .616.065.784.196a.775.775 0 01.364.448c.056.168.084.373.084.616v14.084c0 .224-.037.43-.112.616a.775.775 0 01-.364.448c-.168.112-.43.168-.784.168zm16.466 0l-2.1-2.912-8.428-11.592c-.224-.317-.308-.607-.252-.868.075-.261.27-.523.588-.784.299-.224.55-.336.756-.336a.77.77 0 01.56.168c.168.112.326.27.476.476l8.4 11.9c.205.299.401.588.588.868.187.261.327.476.42.644.112.205.177.448.196.728.019.28-.019.55-.112.812a1.57 1.57 0 01-.42.616c-.168.187-.392.28-.672.28zm-9.968 0c-.243 0-.467-.037-.672-.112a.952.952 0 01-.448-.364c-.112-.187-.168-.448-.168-.784 0-.355.056-.616.168-.784a.775.775 0 01.448-.364 1.87 1.87 0 01.644-.112h10.164l-.056 2.52h-10.08zm7.476-6.272l-1.736-1.12 3.808-8.512a1.37 1.37 0 01.364-.42.743.743 0 01.532-.14c.224 0 .485.084.784.252.28.168.457.345.532.532a.723.723 0 01.056.56c-.037.205-.121.42-.252.644l-4.088 8.204zm16.097 6.216c-.485-.168-.821-.364-1.008-.588-.168-.243-.186-.541-.056-.896.243-.616.523-1.353.84-2.212.318-.877.654-1.81 1.008-2.8.374-1.008.738-2.025 1.092-3.052a142.48 142.48 0 001.036-2.94c.318-.933.598-1.764.84-2.492l2.1 1.456c-.205.71-.457 1.521-.756 2.436-.298.896-.616 1.839-.952 2.828-.336.97-.672 1.923-1.008 2.856-.317.933-.616 1.792-.896 2.576-.28.765-.513 1.39-.7 1.876a2.52 2.52 0 01-.364.616.933.933 0 01-.476.336c-.168.075-.401.075-.7 0zm-6.188 4.284c-.336 0-.588-.056-.756-.168a.953.953 0 01-.364-.448 2.245 2.245 0 01-.084-.644v-12.04c0-.224.028-.43.084-.616a.808.808 0 01.364-.42c.187-.112.448-.168.784-.168.355 0 .616.056.784.168a.774.774 0 01.364.448c.056.168.084.373.084.616v12.04c0 .243-.037.448-.112.616a.774.774 0 01-.364.448c-.168.112-.429.168-.784.168zm11.984-17.64l-1.932-.644h-10.444a1.95 1.95 0 01-.672-.112.913.913 0 01-.448-.392c-.112-.187-.168-.448-.168-.784 0-.355.056-.616.168-.784a.805.805 0 01.448-.336c.206-.075.42-.112.644-.112h10.248c.672 0 1.204.14 1.596.42.392.28.635.663.728 1.148.112.467.056.999-.168 1.596zm18.358 4.396v7.756c0 .355-.028.625-.084.812a.505.505 0 01-.336.336c-.168.075-.43.112-.784.112h-6.804a1.86 1.86 0 01-.644-.112.95.95 0 01-.448-.364c-.112-.187-.168-.448-.168-.784 0-.355.056-.616.168-.784a.774.774 0 01.448-.364 1.95 1.95 0 01.672-.112h5.516v-6.412c0-1.213-.159-2.212-.476-2.996-.299-.784-.747-1.363-1.344-1.736-.579-.373-1.288-.56-2.128-.56a3.4 3.4 0 00-1.68.42 3.943 3.943 0 00-1.316 1.12 7.647 7.647 0 00-.98 1.736 14.929 14.929 0 00-.672 2.184l-1.513 7.42a3.563 3.563 0 01-.167.672.901.901 0 01-.392.476c-.168.13-.411.196-.728.196-.486 0-.831-.103-1.036-.308-.206-.224-.271-.541-.196-.952l1.988-9.856.896.588c.186-.69.41-1.344.672-1.96.261-.635.55-1.204.868-1.708.336-.523.728-.97 1.175-1.344a5.084 5.084 0 011.513-.868c.578-.205 1.25-.308 2.016-.308 1.269 0 2.342.29 3.22.868.896.56 1.577 1.419 2.044 2.576.466 1.139.7 2.557.7 4.256zm-13.16.784l-1.792-6.692a2.568 2.568 0 01-.112-.7.78.78 0 01.196-.532c.149-.168.401-.299.756-.392.429-.093.746-.093.952 0a.765.765 0 01.42.448 3.5 3.5 0 01.167.532l1.317 5.124-1.904 2.212z" fill="#EEF2FF"/><rect x="1" y="1" width="170" height="46" rx="23" stroke="#B6E94A" stroke-width="2"/></svg>