<svg width="116" height="75" fill="none" xmlns="http://www.w3.org/2000/svg"><rect y="27.694" width="107" height="48" rx="24" transform="rotate(-15 0 27.694)" fill="#EEF2FF"/><path d="M42.981 48.27l-2.237-8.351c-.186-.694-.495-1.166-.926-1.415-.435-.263-.978-.307-1.63-.132l-5.801 1.554-.62-2.316 5.95-1.594c1.544-.414 2.804-.357 3.78.17.973.514 1.651 1.487 2.035 2.918l2.255 8.415-2.806.751zm-10.115 2.71l-.323-2.395.765-.205c.298-.08.516-.2.656-.358.154-.163.243-.369.267-.618a2.368 2.368 0 00-.085-.912l-2.226-8.308 2.805-.752 2.22 8.288c.338 1.26.3 2.304-.117 3.129-.417.825-1.2 1.392-2.347 1.699l-1.615.433zm-2.434-10.53l-.323-2.396 3.187-.854.62 2.316-3.484.934zm19.328 6.004l-3.416-12.75 2.805-.752 3.416 12.75-2.805.752zm-4.58-9.956l-.324-2.396 3.336-.893.621 2.316-3.634.973zm16.08 6.875l-2.237-8.352c-.186-.694-.495-1.166-.926-1.415-.435-.263-.978-.307-1.63-.132l-4.356 1.167-.323-2.396 4.207-1.127c1.53-.41 2.784-.351 3.76.177.987.51 1.672 1.48 2.056 2.91l2.255 8.416-2.805.752zm4.93-7.152l-1.958-7.31 2.805-.752 1.959 7.31-2.805.752zm-3.122-4.516l-.323-2.396 3.08-.825.621 2.316-3.378.905zm16.968 6.773c-1.431.384-2.732.429-3.904.135-1.176-.307-2.185-.955-3.027-1.944-.842-.99-1.49-2.334-1.946-4.034l-1.395-5.207 2.784-.745 1.389 5.185c.338 1.26.77 2.253 1.299 2.977.524.71 1.13 1.185 1.817 1.426.697.223 1.471.22 2.321-.007l.128-.034c.874-.25 1.558-.645 2.05-1.187.507-.546.803-1.255.888-2.128.095-.891-.022-1.953-.353-3.186l-1.4-5.227 2.805-.752 1.4 5.228c.452 1.685.56 3.167.326 4.445-.235 1.277-.78 2.334-1.633 3.17-.854.837-1.988 1.452-3.4 1.845l-.15.04zM73.84 34.65l-.656-1.852c.936-.19 1.628-.497 2.077-.92.444-.439.7-.986.767-1.641.064-.67-.024-1.451-.263-2.344l-.519-1.934 2.784-.746.484 1.807c.247.92.36 1.794.338 2.62-.026.811-.216 1.546-.572 2.203-.344.639-.885 1.2-1.62 1.686-.721.482-1.661.856-2.82 1.12z" fill="#9DC940"/></svg>