<svg width="150" height="48" fill="none" xmlns="http://www.w3.org/2000/svg"><path d="M33.572 32.28c-.243 0-.458-.037-.644-.112a.952.952 0 01-.448-.364c-.112-.187-.168-.448-.168-.784 0-.355.056-.616.168-.784a.775.775 0 01.448-.364c.187-.075.392-.112.616-.112h2.408V17.496l1.036.784c-.541.019-1.008.028-1.4.028-.373 0-.681-.037-.924-.112a1.004 1.004 0 01-.504-.336c-.093-.168-.14-.392-.14-.672 0-.523.121-.887.364-1.092.242-.205.728-.317 1.456-.336l4.872-.056c1.755-.019 3.22.29 4.396.924 1.195.635 2.09 1.587 2.688 2.856.616 1.27.924 2.865.924 4.788v6.72c0 .243-.038.467-.112.672a.775.775 0 01-.364.448c-.168.112-.42.168-.756.168s-.597-.047-.784-.14a.822.822 0 01-.364-.392 1.497 1.497 0 01-.112-.56v-6.86c0-1.363-.196-2.492-.588-3.388-.373-.896-.943-1.568-1.708-2.016-.766-.467-1.727-.7-2.884-.7h-2.576V30.46c0 .597-.112 1.055-.336 1.372-.206.299-.523.448-.952.448h-3.612zm20.803 0c-.336 0-.588-.056-.756-.168a.951.951 0 01-.364-.448 2.437 2.437 0 01-.084-.644V16.936c0-.224.028-.43.084-.616a.951.951 0 01.364-.448c.186-.112.448-.168.784-.168.354 0 .616.065.784.196a.775.775 0 01.364.448c.056.168.084.373.084.616v14.084c0 .224-.038.43-.112.616a.775.775 0 01-.364.448c-.168.112-.43.168-.784.168zm7.002 0c-.336 0-.598-.056-.784-.168a.952.952 0 01-.364-.448 1.871 1.871 0 01-.112-.644V16.964c0-.224.037-.43.112-.616a.952.952 0 01.364-.448c.186-.112.448-.168.784-.168l5.488-.028c1.27 0 2.39.177 3.36.532.97.355 1.773.896 2.408 1.624.653.71 1.138 1.596 1.456 2.66.336 1.064.504 2.315.504 3.752v6.72c0 .243-.028.467-.084.672a.775.775 0 01-.364.448c-.168.112-.43.168-.784.168-.336 0-.598-.047-.784-.14a.822.822 0 01-.364-.392 1.94 1.94 0 01-.084-.56v-6.86c0-1.008-.112-1.895-.336-2.66-.224-.765-.55-1.4-.98-1.904a3.75 3.75 0 00-1.624-1.148c-.635-.261-1.382-.392-2.24-.392h-4.312v12.768c0 .243-.038.467-.112.672a.775.775 0 01-.364.448c-.168.112-.43.168-.784.168zm18.687-7.924c-.336 0-.588-.056-.756-.168-.168-.13-.29-.29-.364-.476a2.137 2.137 0 01-.084-.616v-6.16c0-.224.028-.43.084-.616a.952.952 0 01.364-.448c.186-.112.448-.168.784-.168.354 0 .616.065.784.196a.775.775 0 01.364.448c.056.168.084.373.084.616v6.16c0 .224-.038.43-.112.616a.775.775 0 01-.364.448c-.168.112-.43.168-.784.168zm12.798 8.036c-1.214 0-2.287-.233-3.22-.7a6.762 6.762 0 01-2.38-1.988c-.635-.859-1.111-1.867-1.428-3.024-.318-1.157-.476-2.436-.476-3.836v-5.88c0-.224.028-.43.084-.616a.939.939 0 01.364-.476c.186-.112.448-.168.784-.168.354 0 .616.056.784.168.186.112.308.27.364.476.074.187.112.401.112.644v5.852c0 2.24.438 3.976 1.316 5.208.896 1.213 2.156 1.82 3.78 1.82 1.642 0 2.893-.541 3.752-1.624.877-1.083 1.297-2.632 1.26-4.648-.019-1.68-.411-2.996-1.176-3.948-.766-.952-1.746-1.428-2.94-1.428h-1.344c-.206 0-.383-.028-.532-.084a.832.832 0 01-.364-.392c-.075-.187-.112-.448-.112-.784s.056-.588.168-.756a.91.91 0 01.448-.392c.186-.075.401-.112.644-.112h1.12c1.344 0 2.51.327 3.5.98 1.008.653 1.782 1.596 2.324 2.828.541 1.213.784 2.66.728 4.34 0 1.307-.178 2.492-.532 3.556-.355 1.045-.868 1.941-1.54 2.688a6.422 6.422 0 01-2.38 1.708c-.915.392-1.951.588-3.108.588zm22.189-.112c-.336 0-.597-.047-.784-.14a.824.824 0 01-.364-.392 1.306 1.306 0 01-.112-.532v-6.888c0-1.008-.112-1.895-.336-2.66-.205-.765-.522-1.4-.952-1.904a3.744 3.744 0 00-1.624-1.148c-.634-.261-1.39-.392-2.268-.392h-3.108c-.242 0-.466-.028-.672-.084a.913.913 0 01-.448-.392c-.112-.187-.168-.448-.168-.784 0-.355.056-.616.168-.784a.955.955 0 01.448-.364c.187-.075.402-.112.644-.112h3.052c1.288 0 2.418.187 3.388.56.971.355 1.774.896 2.408 1.624.654.71 1.139 1.596 1.456 2.66.336 1.064.504 2.305.504 3.724v6.748c0 .243-.028.457-.084.644a.774.774 0 01-.364.448c-.186.112-.448.168-.784.168zm-9.828 0a1.95 1.95 0 01-.672-.112.805.805 0 01-.448-.336c-.112-.187-.168-.448-.168-.784 0-.355.056-.616.168-.784a.777.777 0 01.448-.364c.206-.075.42-.112.644-.112h12.152c.243 0 .458.037.644.112a.774.774 0 01.448.364c.112.168.168.43.168.784 0 .336-.056.597-.168.784a.802.802 0 01-.448.336c-.186.075-.41.112-.672.112h-12.096z" fill="#EEF2FF"/><rect x="1" y="1" width="148" height="46" rx="23" stroke="#B6E94A" stroke-width="2"/></svg>