<svg width="145" height="93" fill="none" xmlns="http://www.w3.org/2000/svg"><rect y="34.682" width="134" height="60" rx="30" transform="rotate(-15 0 34.682)" fill="#EEF2FF"/><path d="M52.748 59.89L49.9 49.26c-.237-.883-.63-1.483-1.178-1.8-.554-.335-1.245-.391-2.075-.17l-7.383 1.98-.79-2.949 7.573-2.029c1.965-.526 3.57-.454 4.812.218 1.238.654 2.101 1.891 2.59 3.712l2.869 10.71-3.57.957zm-12.874 3.449l-.411-3.05.973-.26c.38-.102.657-.254.835-.456.196-.207.309-.47.34-.787.044-.34.008-.727-.108-1.16L38.67 47.053l3.57-.957 2.827 10.548c.43 1.605.38 2.932-.15 3.983-.53 1.05-1.526 1.77-2.986 2.162l-2.056.55zm-3.098-13.403l-.412-3.05 4.057-1.087.79 2.949-4.435 1.188zm24.6 7.642l-4.35-16.228 3.57-.957 4.348 16.228-3.57.957zm-5.831-12.671l-.411-3.05 4.246-1.138.79 2.949-4.625 1.239zm20.467 8.749l-2.848-10.63c-.237-.883-.63-1.483-1.178-1.8-.553-.335-1.245-.391-2.074-.169l-5.545 1.486-.411-3.05 5.355-1.434c1.947-.522 3.542-.447 4.785.225 1.257.649 2.129 1.884 2.617 3.705l2.87 10.71-3.57.957zm6.275-9.103l-2.493-9.303 3.57-.957 2.493 9.304-3.57.956zm-3.975-5.747l-.411-3.05 3.922-1.05.79 2.948-4.3 1.152zm21.596 8.62c-1.821.489-3.478.546-4.969.173-1.496-.392-2.78-1.217-3.852-2.476s-1.897-2.97-2.477-5.134l-1.775-6.626 3.543-.95 1.768 6.6c.43 1.605.98 2.868 1.653 3.79.667.903 1.438 1.508 2.313 1.815.887.283 1.872.28 2.954-.01l.162-.043c1.113-.317 1.983-.821 2.61-1.51.645-.695 1.021-1.598 1.129-2.71.122-1.133-.028-2.485-.448-4.053l-1.783-6.654 3.57-.956 1.783 6.653c.575 2.145.713 4.031.414 5.657-.298 1.627-.991 2.972-2.078 4.036-1.087 1.064-2.53 1.847-4.328 2.348l-.19.05zm-7.886-4.872l-.834-2.357c1.191-.242 2.072-.632 2.642-1.172.566-.557.892-1.253.977-2.088.081-.852-.03-1.846-.335-2.982l-.66-2.462 3.543-.949.616 2.299c.314 1.172.458 2.283.43 3.334-.032 1.033-.275 1.968-.727 2.804-.44.813-1.127 1.53-2.063 2.147-.918.613-2.114 1.088-3.589 1.426z" fill="#B6E94A"/></svg>