<svg width="28" height="28" fill="none" xmlns="http://www.w3.org/2000/svg"><path d="M22.059 16.557l-4.393-2.196a.824.824 0 00-.823.052l-2.152 1.434a5.832 5.832 0 01-2.534-2.533l1.435-2.151a.824.824 0 00.053-.824l-2.197-4.392a.824.824 0 00-.738-.457 5.216 5.216 0 00-5.216 5.216A11.817 11.817 0 0017.299 22.51a5.217 5.217 0 005.216-5.216.823.823 0 00-.456-.737zm-4.76 4.306A10.17 10.17 0 017.14 10.706a3.568 3.568 0 013.077-3.534l1.738 3.475-1.426 2.138a.824.824 0 00-.074.773 7.471 7.471 0 003.99 3.99.822.822 0 00.773-.074l2.139-1.426 3.475 1.738a3.568 3.568 0 01-3.534 3.077zM14.004 0A14.002 14.002 0 001.698 20.683L.103 25.469a1.922 1.922 0 002.431 2.43l4.787-1.594a14.001 14.001 0 1012.833-24.88A14.002 14.002 0 0014.004 0zm0 26.353c-2.171 0-4.305-.571-6.185-1.658a.837.837 0 00-.412-.111.85.85 0 00-.26.042l-5.133 1.71a.275.275 0 01-.347-.347l1.71-5.126a.823.823 0 00-.069-.674A12.352 12.352 0 0120.17 3.297a12.354 12.354 0 01-6.165 23.056z" fill="#10142A"/></svg>