<svg width="28" height="27" fill="none" xmlns="http://www.w3.org/2000/svg"><path d="M21.343 15.893l-4.25-2.108a.803.803 0 00-.797.05l-2.082 1.377a5.62 5.62 0 01-2.452-2.432l1.39-2.065a.786.786 0 00.05-.79l-2.125-4.216a.792.792 0 00-.715-.439 5.068 5.068 0 00-3.568 1.466 4.986 4.986 0 00-1.479 3.54 11.298 11.298 0 003.35 8.008 11.482 11.482 0 008.072 3.323 5.068 5.068 0 003.569-1.467 4.986 4.986 0 001.478-3.54.786.786 0 00-.44-.707zm-4.606 4.133a9.88 9.88 0 01-6.946-2.86 9.722 9.722 0 01-2.882-6.89c0-.826.302-1.625.849-2.249a3.461 3.461 0 012.129-1.143l1.681 3.336-1.38 2.052a.788.788 0 00-.072.742 7.2 7.2 0 003.861 3.83.803.803 0 00.748-.071l2.07-1.369 3.362 1.668a3.417 3.417 0 01-1.153 2.112 3.47 3.47 0 01-2.267.842zM13.55 0C11.2 0 8.893.605 6.852 1.756a13.496 13.496 0 00-4.947 4.811 13.352 13.352 0 00-.261 13.286L.1 24.447a1.83 1.83 0 00.449 1.888 1.864 1.864 0 001.903.446l4.631-1.531a13.643 13.643 0 0011.891.5 13.54 13.54 0 004.9-3.617 13.4 13.4 0 002.8-5.386c.508-1.983.553-4.055.13-6.057a13.39 13.39 0 00-2.564-5.5 13.526 13.526 0 00-4.74-3.822A13.637 13.637 0 0013.55 0zm0 25.296c-2.102 0-4.166-.549-5.985-1.592a.814.814 0 00-.65-.066L1.948 25.28a.269.269 0 01-.272-.064.263.263 0 01-.064-.27l1.654-4.92a.784.784 0 00-.066-.647 11.778 11.778 0 01-1.508-7.476 11.821 11.821 0 013.393-6.841 11.99 11.99 0 016.89-3.378 12.034 12.034 0 017.539 1.481 11.888 11.888 0 015.071 5.729 11.77 11.77 0 01.507 7.607 11.853 11.853 0 01-4.267 6.341 12.016 12.016 0 01-7.276 2.454z" fill="#EEF2FF"/></svg>