<svg width="25" height="25" fill="none" xmlns="http://www.w3.org/2000/svg"><path d="M23.716 19.224c0 .402-.09.815-.281 1.216a4.603 4.603 0 01-.765 1.139c-.551.602-1.159 1.038-1.845 1.317a5.689 5.689 0 01-2.194.424c-1.147 0-2.373-.268-3.667-.815-1.294-.547-2.588-1.283-3.87-2.21a32.277 32.277 0 01-3.69-3.124 31.778 31.778 0 01-3.139-3.65C3.343 12.25 2.6 10.977 2.06 9.716c-.54-1.272-.81-2.489-.81-3.65 0-.758.135-1.484.405-2.153a5.138 5.138 0 011.294-1.864C3.669 1.346 4.456 1 5.289 1c.315 0 .63.067.911.2.292.135.551.336.754.626l2.61 3.65c.202.278.348.535.45.78.101.235.157.469.157.681 0 .268-.079.536-.236.792a3.8 3.8 0 01-.63.793l-.855.881a.595.595 0 00-.18.447c0 .09.011.167.034.257.034.089.067.156.09.223.202.368.551.848 1.046 1.428.506.58 1.046 1.172 1.631 1.763a33.71 33.71 0 001.789 1.64c.585.492 1.069.827 1.451 1.028.056.022.124.055.203.089.09.033.18.045.281.045a.621.621 0 00.461-.19l.855-.837c.281-.28.552-.491.81-.625a1.51 1.51 0 01.799-.234c.214 0 .439.044.686.145.248.1.507.245.788.435l3.724 2.622c.292.201.495.436.618.715.113.279.18.558.18.87z" stroke="#EEF2FF" stroke-width="1.5" stroke-miterlimit="10"/></svg>