<svg width="27" height="27" fill="none" xmlns="http://www.w3.org/2000/svg"><path d="M13.8 10.801c.734-.743 1.689-1.23 2.8-1.23 1.167 0 2.286.46 3.111 1.279A4.347 4.347 0 0121 13.936v5.952h-1.6v-5.952c0-.737-.295-1.443-.82-1.964a2.811 2.811 0 00-1.98-.814 2.81 2.81 0 00-1.98.814 2.766 2.766 0 00-.82 1.964v5.952h-1.6v-9.92h1.6v.833zm-5.6-2.42a1.21 1.21 0 01-.849-.349 1.186 1.186 0 010-1.683 1.205 1.205 0 011.698 0 1.186 1.186 0 010 1.683c-.226.223-.53.349-.849.349zm-.8 1.587H9v9.92H7.4v-9.92z" fill="#EEF2FF"/><circle cx="13.5" cy="13.5" r="12.75" stroke="#EEF2FF" stroke-width="1.5"/></svg>