<svg width="30" height="24" fill="none" xmlns="http://www.w3.org/2000/svg"><path d="M1 12.11c0-5.237 0-7.856 1.64-9.483C4.28 1 6.92 1 12.2 1h5.6c5.28 0 7.92 0 9.56 1.627C29 4.254 29 6.873 29 12.11c0 5.238 0 7.857-1.64 9.483-1.64 1.628-4.28 1.628-9.56 1.628h-5.6c-5.28 0-7.92 0-9.56-1.628C1 19.966 1 17.348 1 12.11z" stroke="#EEF2FF" stroke-width="1.5"/><path d="M6.602 6.555l3.022 2.498c2.571 2.126 3.857 3.189 5.378 3.189 1.52 0 2.806-1.063 5.377-3.189l3.023-2.498" stroke="#EEF2FF" stroke-width="1.5" stroke-linecap="round"/></svg>