<svg width="101" height="38" fill="none" xmlns="http://www.w3.org/2000/svg"><g clip-path="url(#clip0_1603_131)"><path d="M8.358 37.511H3.394c-.484 0-1.09-.427-1.09-1.405 0-.916.546-1.283 1.09-1.283h4.904c1.876 0 3.39-1.038 3.39-3.299v-.977H6.783c-3.51 0-6.053-2.016-6.053-5.987v-8.798c0-.55.424-1.1 1.332-1.1.908 0 1.392.55 1.392 1.1v8.798c0 2.382 1.634 3.238 3.39 3.238h4.842V15.7c0-.55.424-1.1 1.393-1.1.908 0 1.392.55 1.392 1.1v15.823c0 4.032-2.664 5.987-6.114 5.987zm12.047-13.379v.733c0 1.955 1.392 3.116 3.39 3.116h4.721c.545 0 1.09.305 1.09 1.283 0 .916-.606 1.344-1.09 1.344h-4.903c-3.39 0-5.932-2.077-5.932-5.865v-3.85c0-3.848 2.724-6.047 6.174-6.047h1.15c3.208 0 5.993 2.138 5.993 6.048v1.71c0 .55-.363 1.467-1.514 1.467h-9.08v.06zm7.808-3.238c0-2.322-1.452-3.3-3.39-3.3h-1.15c-1.755 0-3.329 1.04-3.329 3.3v.855h7.87v-.855zm6.72 9.653c-.424 0-1.09-.305-1.09-1.405 0-1.038.787-1.344 1.09-1.344h6.9c1.09 0 1.877-.61 1.877-1.65 0-.855-.666-1.344-1.937-1.71l-3.995-1.222c-2.3-.672-4.116-1.466-4.116-4.215 0-2.383 1.574-4.216 4.6-4.216h6.235c.363 0 1.09.367 1.09 1.344 0 1.039-.666 1.344-1.09 1.344h-6.295c-1.03 0-1.816.428-1.816 1.466 0 .795.665 1.161 1.876 1.528l3.995 1.1c2.422.671 4.117 1.71 4.117 4.46 0 2.32-1.514 4.398-4.601 4.398h-6.84v.122zm40.494-6.415v.733c0 1.955 1.392 3.116 3.39 3.116h4.721c.545 0 1.09.306 1.09 1.283 0 .916-.606 1.344-1.09 1.344h-4.903c-3.39 0-5.932-2.077-5.932-5.865v-3.787c0-3.85 2.724-6.049 6.174-6.049h1.15c3.208 0 5.993 2.139 5.993 6.049v1.71c0 .55-.363 1.466-1.513 1.466h-9.08zm7.869-3.177c0-2.321-1.514-3.299-3.39-3.299h-1.15c-1.755 0-3.33 1.039-3.33 3.3v.855h7.87v-.855z" fill="#EEF2FF"/><path d="M50.973 30.669l-1.331-.244c-.364-.062-.606-.428-.545-.795l1.816-10.141a.685.685 0 01.787-.55l1.331.244c.364.061.606.428.545.795L51.76 30.119a.684.684 0 01-.787.55z" fill="url(#paint0_linear_1603_131)"/><path d="M63.26 29.996l-1.15.673c-.303.183-.727.06-.908-.245L51.517 13.44c-.182-.305-.061-.733.242-.916l1.15-.672c.302-.184.726-.061.908.244l9.685 16.984c.242.306.121.733-.242.916z" fill="url(#paint1_linear_1603_131)"/><path d="M66.166 25.72l-1.15.672c-.303.183-.727.061-.909-.244l-3.39-5.927c-.18-.305-.06-.733.243-.916l1.15-.672c.303-.183.726-.061.908.245l3.39 5.925c.181.306.06.734-.242.917z" fill="url(#paint2_linear_1603_131)"/><path d="M61.383 17.35l-1.15.672c-.303.183-.726.061-.908-.244l-2.18-3.788c-.18-.306-.06-.733.243-.916l1.15-.672c.303-.184.727-.061.908.244l2.18 3.788c.18.305.06.733-.243.916z" fill="url(#paint3_linear_1603_131)"/><path d="M68.163 21.932c-.665.366-1.452.183-1.815-.428l-1.453-2.566c-.363-.61-.121-1.405.545-1.771.665-.367 1.452-.184 1.816.427l1.452 2.566c.364.611.121 1.405-.544 1.772z" fill="url(#paint4_linear_1603_131)"/><path d="M70.705 17.778c-.666.366-1.453.183-1.816-.428l-1.453-2.566c-.363-.61-.121-1.405.545-1.772.666-.366 1.452-.183 1.816.428l1.452 2.566c.364.61.121 1.405-.544 1.772z" fill="url(#paint5_linear_1603_131)"/><path d="M73.248 13.685c-.666.366-1.453.183-1.817-.428l-1.452-2.566c-.363-.61-.121-1.405.545-1.771.665-.367 1.452-.184 1.816.427l1.452 2.566c.303.611.06 1.405-.544 1.772z" fill="url(#paint6_linear_1603_131)"/><path d="M75.85 9.53c-.666.367-1.453.184-1.816-.427l-1.453-2.566c-.363-.611-.12-1.405.545-1.772.666-.366 1.453-.183 1.816.428l1.453 2.566c.363.61.12 1.405-.545 1.771z" fill="url(#paint7_linear_1603_131)"/><path d="M78.635 5.742c-.666.367-1.453.184-1.816-.427l-1.453-2.566c-.363-.611-.121-1.405.545-1.772.666-.366 1.453-.183 1.816.428L79.18 3.97c.363.61.12 1.405-.545 1.771z" fill="#004E89"/><path d="M98.188 27.92h-1.756c-1.876 0-3.087-.795-3.087-3.116v-7.331h-2.724v7.514c0 4.032 2.18 5.62 5.448 5.62h2.119c.544 0 1.15-.427 1.15-1.343-.06-.917-.666-1.344-1.15-1.344zm-4.843-17.9c0-.55-.484-1.1-1.392-1.1-.969 0-1.332.55-1.332 1.1v4.826h2.785V10.02h-.06z" fill="#EEF2FF"/><path d="M93.346 17.412h3.39c.786 0 1.452-.611 1.452-1.283 0-.672-.605-1.222-1.331-1.283h-3.511v2.566z" fill="#EEF2FF"/><path d="M93.346 17.412h3.39c.786 0 1.452-.611 1.452-1.283 0-.672-.605-1.222-1.331-1.283h-3.511v2.566z" fill="url(#paint8_linear_1603_131)"/></g><defs><linearGradient id="paint0_linear_1603_131" x1="50.282" y1="30.184" x2="52.498" y2="19.162" gradientUnits="userSpaceOnUse"><stop stop-color="#D7D678"/><stop offset=".106" stop-color="#B5C971"/><stop offset=".238" stop-color="#93BB6A"/><stop offset=".362" stop-color="#7AB164"/><stop offset=".476" stop-color="#6AAB61"/><stop offset=".567" stop-color="#65A960"/><stop offset=".709" stop-color="#519768"/><stop offset=".872" stop-color="#42896F"/><stop offset="1" stop-color="#3C8471"/></linearGradient><linearGradient id="paint1_linear_1603_131" x1="52.774" y1="12.948" x2="63.291" y2="30.997" gradientUnits="userSpaceOnUse"><stop stop-color="#004E89"/><stop offset=".142" stop-color="#236E7B"/><stop offset=".374" stop-color="#65A960"/><stop offset=".484" stop-color="#69AA61"/><stop offset=".588" stop-color="#74AF63"/><stop offset=".689" stop-color="#87B667"/><stop offset=".789" stop-color="#A2C16D"/><stop offset=".887" stop-color="#C5CF74"/><stop offset=".984" stop-color="#EEDF7D"/><stop offset="1" stop-color="#F6E27F"/></linearGradient><linearGradient id="paint2_linear_1603_131" x1="61.509" y1="18.887" x2="65.644" y2="25.984" gradientUnits="userSpaceOnUse"><stop stop-color="#65A960"/><stop offset=".231" stop-color="#68AA61"/><stop offset=".396" stop-color="#71AE63"/><stop offset=".539" stop-color="#81B466"/><stop offset=".671" stop-color="#97BD6B"/><stop offset=".795" stop-color="#B3C871"/><stop offset=".911" stop-color="#D6D578"/><stop offset="1" stop-color="#F6E27F"/></linearGradient><linearGradient id="paint3_linear_1603_131" x1="57.96" y1="12.684" x2="60.859" y2="17.661" gradientUnits="userSpaceOnUse"><stop stop-color="#004E89"/><stop offset=".38" stop-color="#236E7B"/><stop offset="1" stop-color="#65A960"/></linearGradient><linearGradient id="paint4_linear_1603_131" x1="65.473" y1="17.191" x2="68.226" y2="21.917" gradientUnits="userSpaceOnUse"><stop offset=".006" stop-color="#65A960"/><stop offset=".421" stop-color="#67AA60"/><stop offset=".57" stop-color="#6EAC62"/><stop offset=".677" stop-color="#79B164"/><stop offset=".763" stop-color="#8AB868"/><stop offset=".837" stop-color="#A0C06D"/><stop offset=".902" stop-color="#BCCB73"/><stop offset=".96" stop-color="#DBD779"/><stop offset="1" stop-color="#F6E27F"/></linearGradient><linearGradient id="paint5_linear_1603_131" x1="68.011" y1="13.032" x2="70.764" y2="17.758" gradientUnits="userSpaceOnUse"><stop stop-color="#3FA34D"/><stop offset=".378" stop-color="#42A34E"/><stop offset=".651" stop-color="#4BA553"/><stop offset=".89" stop-color="#5BA75B"/><stop offset="1" stop-color="#65A960"/></linearGradient><linearGradient id="paint6_linear_1603_131" x1="70.544" y1="8.922" x2="73.297" y2="13.648" gradientUnits="userSpaceOnUse"><stop stop-color="#47807D"/><stop offset="1" stop-color="#3FA34D"/></linearGradient><linearGradient id="paint7_linear_1603_131" x1="73.285" y1="5.333" x2="75.526" y2="8.663" gradientUnits="userSpaceOnUse"><stop stop-color="#004E89"/><stop offset=".208" stop-color="#075388"/><stop offset=".509" stop-color="#1A6085"/><stop offset=".864" stop-color="#39767F"/><stop offset="1" stop-color="#47807D"/></linearGradient><linearGradient id="paint8_linear_1603_131" x1="93.356" y1="16.112" x2="98.205" y2="16.112" gradientUnits="userSpaceOnUse"><stop stop-color="#47807D"/><stop offset="1" stop-color="#3FA34D"/></linearGradient><clipPath id="clip0_1603_131"><path fill="#fff" transform="translate(.004)" d="M0 0h100v38H0z"/></clipPath></defs></svg>