<svg width="1920" height="869" fill="none" xmlns="http://www.w3.org/2000/svg"><path d="M396.612 158.462C226 175.351-21.228 472.685-21.228 472.685L-96 593.885s300-197.511 461.824-197.511S548.717 517.218 792 501.351c243.28-15.866 358.49-104.977 558-104.977s599.22 412.977 599.22 412.977L2002 396.374S1558.54-12.649 1298.27 1.351c-260.27 14-374.995 262.623-506.27 258-131.275-4.622-224.776-117.777-395.388-100.889z" stroke="#263299"/><path d="M396.612 217.462C226 234.351-21.228 531.685-21.228 531.685L-96 652.885s300-197.511 461.824-197.511S548.717 576.218 792 560.351c243.28-15.866 358.49-104.977 558-104.977s599.22 412.977 599.22 412.977L2002 455.374S1558.54 46.351 1298.27 60.351c-260.27 14-374.995 262.623-506.27 258-131.275-4.622-224.776-117.777-395.388-100.889z" fill="#080A1C"/></svg>