<svg width="34" height="34" fill="none" xmlns="http://www.w3.org/2000/svg"><path d="M33.998 15.76a.512.512 0 00-.509-.477h-5.878l.954-2.137a.5.5 0 00.008-.384l-.488-1.232a5.31 5.31 0 00.787-.358l1.225.743c.226.125.441.095.646-.089l1.184-1.277a.495.495 0 00.025-.646l-.879-1.11c.108-.236.197-.48.267-.728l1.404-.319a.503.503 0 00.395-.514l-.089-1.72a.505.505 0 00-.445-.472l-1.43-.178a5.062 5.062 0 00-.34-.698l.76-1.19a.496.496 0 00-.09-.641l-1.31-1.154a.518.518 0 00-.652-.025l-1.142.862a5.31 5.31 0 00-.752-.262L27.324.387A.509.509 0 0026.801 0l-1.763.088a.507.507 0 00-.48.437l-.183 1.392a5.29 5.29 0 00-.722.335l-1.224-.744a.518.518 0 00-.647.089L20.6 2.874a.495.495 0 00-.026.647l.88 1.109a5.07 5.07 0 00-.217.563l-2.393-1.03c-.297-.097-.52-.01-.673.258l-2.03 4.551V1.175c0-.649-1.023-.649-1.023 0v2.199a10.945 10.945 0 00-8.67 4.892c-.347.526.48 1.119.858.548a9.92 9.92 0 017.813-4.436v21.25h-3.15a.776.776 0 01-.78-.77v-1.72a.5.5 0 00-.269-.443c-3.25-1.72-5.249-5.047-5.214-8.682.01-.95.16-1.89.447-2.793.196-.62-.779-.92-.976-.3a10.499 10.499 0 00-.492 3.083c-.038 3.908 2.055 7.494 5.482 9.43v1.425a1.78 1.78 0 001.29 1.701v2.378c0 1.536 1.272 2.785 2.835 2.785h.826v1.776c0 .649 1.022.649 1.022 0V21.484l5.206 2.242-.117.656a4.37 4.37 0 00-.503.203l-.917-.628a.518.518 0 00-.653.057l-1.01.992a.496.496 0 00-.057.642l.64.901a4.2 4.2 0 00-.206.494l-1.093.19a.505.505 0 00-.422.496l.006 1.407a.504.504 0 00.42.492l1.098.197c.06.171.131.338.213.5l-.631.895c-.141.2-.116.47.058.641l1.018.999c.174.171.45.195.652.057l.91-.62c.165.079.335.148.51.207l.201 1.08c.044.237.255.41.5.411l1.434.005h.001a.51.51 0 00.504-.416l.191-1.073c.172-.057.34-.125.503-.203l.917.628a.519.519 0 00.654-.057l1.008-.992a.495.495 0 00.058-.643l-.64-.9c.08-.16.148-.325.206-.494l1.093-.19a.505.505 0 00.422-.496l-.006-1.408a.505.505 0 00-.42-.491l-1.032-.186c1.462-.006 2.947-.006 4.39-.006a.527.527 0 00.469-.15l2.147-2.242a.497.497 0 00.139-.344v-8.552l-.002-.025zm-1.69.527l-1.165 1.216h-7.33l1.165-1.216h7.33zM26.541 7.64a.515.515 0 00-.27-.278l-1.94-.835c.093-.915.863-1.653 1.834-1.702 1.07-.05 1.98.75 2.034 1.79.044.853-.507 1.62-1.317 1.886l-.341-.861zm-.506 1.49l1.136 2.864-2.028-.88.892-1.984zm-3.582-4.87l-.81-1.023.608-.656 1.13.687c.17.102.383.1.55-.007a4.245 4.245 0 011.06-.493.502.502 0 00.355-.415l.17-1.284.91-.045.299 1.26c.045.192.2.34.396.378a4.31 4.31 0 011.106.385.52.52 0 00.547-.047l1.054-.795.672.593-.7 1.097a.495.495 0 00.007.544 4.1 4.1 0 01.503 1.033c.06.187.225.323.423.347l1.318.164.045.88-1.295.294a.506.506 0 00-.385.387 4.038 4.038 0 01-.394 1.077.495.495 0 00.048.543l.81 1.022-.608.657-1.13-.687a.519.519 0 00-.549.007 4.262 4.262 0 01-.88.432l-.46-1.158c1.212-.421 2.033-1.582 1.967-2.872-.082-1.593-1.476-2.823-3.107-2.742-1.368.068-2.475 1.037-2.748 2.288l-1.188-.512c.08-.275.188-.542.325-.797a.495.495 0 00-.049-.543zM14.29 30.718c-1 0-1.813-.799-1.813-1.78v-2.305h2.64v4.085h-.827zm1.848-19.246L18.9 5.284l6.49 2.796-1.388 3.088c-.099.291-.012.512.261.662l3.16 1.371-.929 2.082h-1.738a.515.515 0 00-.372.158l-2.148 2.243c-.105.11-.16.403-.147.562v4.648h-.134l-5.817-2.506v-8.916zm11.15 17.273l-.98.17a.507.507 0 00-.406.37 3.204 3.204 0 01-.35.84c-.1.17-.092.38.022.541l.574.808-.404.398-.823-.564a.519.519 0 00-.551-.02 3.31 3.31 0 01-.854.344.505.505 0 00-.377.4l-.172.962-.578-.001-.18-.971a.506.506 0 00-.374-.395 3.39 3.39 0 01-.859-.351.519.519 0 00-.551.02l-.817.557-.414-.406.567-.803a.495.495 0 00.02-.541 3.274 3.274 0 01-.359-.844.508.508 0 00-.402-.366l-.988-.178-.002-.568.979-.17a.508.508 0 00.406-.37 3.26 3.26 0 01.35-.84.49.49 0 00-.021-.54l-.575-.808.405-.398.823.564c.163.112.379.12.55.02a3.33 3.33 0 01.854-.344.505.505 0 00.377-.4l.172-.963.578.002.182.97a.506.506 0 00.373.396c.302.078.591.196.859.35.172.1.387.093.55-.019l.818-.557.413.405-.566.804a.495.495 0 00-.02.541c.158.263.279.547.358.844.05.188.207.331.403.366l.988.177.002.569zm4.565-3.433l-.001-1.715c0-.649-1.022-.649-1.022 0v2.472c-1.29 0-2.607.001-3.908.007l.285-.403c.14-.2.116-.47-.06-.641l-1.017-.999a.518.518 0 00-.652-.057l-.91.62a4.407 4.407 0 00-.51-.207l-.201-1.08c-.064-.345-.435-.456-.74-.412-.008-.557.054-3.473 0-4.367h7.713v2.446c0 .65 1.022.65 1.022 0l.001-2.75 1.124-1.175v7.087l-1.124 1.174z" fill="#fff"/><path d="M22.658 26.166h-.008a2.31 2.31 0 00-1.63.663 2.228 2.228 0 00-.673 1.61c.003.607.245 1.179.684 1.61.439.43 1.02.668 1.639.67h.007a2.31 2.31 0 001.63-.663 2.23 2.23 0 00.674-1.61 2.255 2.255 0 00-.684-1.609 2.336 2.336 0 00-1.639-.67zm.926 3.18a1.275 1.275 0 01-.911.369 1.311 1.311 0 01-.92-.377 1.266 1.266 0 01-.384-.903 1.24 1.24 0 01.374-.896 1.312 1.312 0 011.831.008c.247.242.383.563.385.903a1.24 1.24 0 01-.375.896zM6.624 5.777c.429 0 .665-.559.361-.857L5.243 3.208c-.467-.459-1.19.251-.722.71L6.263 5.63c.1.098.23.147.361.147zm-3.665 7.908H.495c-.66 0-.66 1.003 0 1.003H2.96c.66 0 .66-1.003 0-1.003zm3.46 8.995l-1.742 1.712c-.467.459.255 1.168.722.71l1.742-1.712c.467-.46-.255-1.17-.722-.71z" fill="#fff"/></svg>