<svg width="30" height="31" fill="none" xmlns="http://www.w3.org/2000/svg"><path d="M29.008 18.158h-.463v-4.179c0-.661-.33-1.247-.832-1.603v-.57c0-.824-.67-1.496-1.495-1.496h-.346l1.324-1.945a1.433 1.433 0 00-.376-1.988L17.836.25a1.418 1.418 0 00-1.071-.224 1.42 1.42 0 00-.915.6l-7.755 11.39H5.938l.52-5.275a.156.156 0 01.099-.131 3.355 3.355 0 001.636-1.331.155.155 0 01.147-.069l3.384.335a.442.442 0 00.087-.88L8.427 4.33a1.032 1.032 0 00-.978.474c-.283.445-.71.792-1.204.978-.371.14-.626.474-.665.871l-.53 5.363h-.562l.823-8.344c.03-.3.298-.52.598-.49l6.84.676a.442.442 0 00.086-.88l-6.839-.676a1.431 1.431 0 00-1.563 1.283L3.77 10.31H2.64c-.824 0-1.495.672-1.495 1.497v.388A1.966 1.966 0 000 13.979v15.058C0 30.119.88 31 1.961 31h24.622c1.082 0 1.962-.88 1.962-1.963v-4.179h.463a.994.994 0 00.992-.993v-4.714a.994.994 0 00-.992-.993zm-2.79-6.964c.338 0 .613.275.613.613v.225a1.963 1.963 0 00-.248-.016h-1.872l.56-.822h.947zM16.58 1.123a.544.544 0 01.76-.144l8.984 6.128c.249.17.314.511.144.76l-2.824 4.149h-.678l1.385-2.034c.224-.33.243-.75.048-1.095a2.47 2.47 0 01-.296-1.524c.051-.39-.12-.77-.446-.992L19 3.194a1.031 1.031 0 00-1.086-.053 2.465 2.465 0 01-1.524.282c-.387-.054-.78.12-1.001.446L9.84 12.016h-.677l7.415-10.893zm.194 7.501a3.642 3.642 0 00-3.627 3.392H10.91l5.208-7.65a.157.157 0 01.15-.068c.709.1 1.445-.037 2.073-.383a.156.156 0 01.161.01l4.658 3.177c.049.033.075.09.068.146a3.36 3.36 0 00.402 2.073.157.157 0 01-.009.164l-1.723 2.53h-1.496a3.643 3.643 0 00-3.628-3.39zm2.743 3.392h-5.485a2.76 2.76 0 012.742-2.508 2.76 2.76 0 012.743 2.508zm-17.49-.21c0-.337.275-.612.613-.612h1.043l-.08.822H2.026v-.21zM.884 13.98c0-.595.484-1.08 1.078-1.08h24.622a1.08 1.08 0 011.079 1.08v1.226H.882V13.98zm26.779 15.058a1.08 1.08 0 01-1.079 1.08H1.961a1.08 1.08 0 01-1.078-1.08V27.81h2.38a.441.441 0 000-.883H.882v-10.84h26.779v2.07h-4.196a3.35 3.35 0 00-3.01 1.888l-.006.01-.013.03a3.328 3.328 0 00-.318 1.422 3.352 3.352 0 003.347 3.35h4.196v2.07H6.088a.441.441 0 000 .883h21.574v1.226zm1.456-5.172c0 .06-.05.11-.11.11h-5.542a2.466 2.466 0 010-4.934h5.542c.06 0 .11.05.11.11v4.714z" fill="#fff"/><path d="M23.57 19.716a1.793 1.793 0 000 3.584 1.793 1.793 0 000-3.584zm0 2.7a.91.91 0 010-1.817.91.91 0 010 1.818z" fill="#fff"/></svg>