<svg width="27" height="31" fill="none" xmlns="http://www.w3.org/2000/svg"><path d="M26 21.087v7.162c0 .967-.753 1.75-1.683 1.75H2.683C1.753 30 1 29.216 1 28.25v-2.435m18.05 2.435c.762 0 1.38-.643 1.38-1.437v-2.92c0-.794.619-1.438 1.381-1.438h2.808c.763 0 1.381-.643 1.381-1.436M5.973 9.253H1m25 0H7.656M5.763 5.617c-.474 0-.859-.4-.859-.893V1.893c0-.494.385-.893.859-.893h.193c.474 0 .859.4.859.893v1.106m14.229 2.618c-.474 0-.859-.4-.859-.893V1.893c0-.494.385-.893.859-.893h.193c.474 0 .859.4.859.893v1.106m-7.14 20.724v-.6c0-.23.18-.417.4-.417h2.004c.22 0 .4.186.4.417v2.083a.41.41 0 01-.4.417h-2.003a.409.409 0 01-.401-.417m4.784 3.043H2.685c-.93 0-1.685-.785-1.685-1.753V4.753c0-.969.755-1.754 1.685-1.754h21.63C25.245 3 26 3.784 26 4.753v16.983c0 .465-.178.911-.494 1.24l-4.574 4.76a1.653 1.653 0 01-1.192.513zM5.928 14.797H3.925a.409.409 0 01-.401-.417v-2.084c0-.23.18-.417.4-.417h2.004c.22 0 .4.187.4.417v2.084a.41.41 0 01-.4.417zm5.715 0H9.64a.409.409 0 01-.4-.417v-2.084c0-.23.18-.417.4-.417h2.003a.41.41 0 01.401.417v2.084a.41.41 0 01-.4.417zm5.716 0h-2.003a.409.409 0 01-.4-.417v-2.084c0-.23.18-.417.4-.417h2.004c.22 0 .4.187.4.417v2.084a.41.41 0 01-.4.417zm5.716 0h-2.002a.409.409 0 01-.401-.417v-2.084c0-.23.18-.417.4-.417h2.004c.22 0 .4.187.4.417v2.084a.41.41 0 01-.4.417zM5.929 20.21H3.925a.409.409 0 01-.401-.417V17.71c0-.23.18-.417.4-.417h2.004c.22 0 .4.187.4.417v2.084a.41.41 0 01-.4.417zm5.715 0H9.64a.409.409 0 01-.4-.417V17.71c0-.23.18-.417.4-.417h2.003a.41.41 0 01.401.417v2.084a.41.41 0 01-.4.417zm5.716 0h-2.003a.409.409 0 01-.4-.417V17.71c0-.23.18-.417.4-.417h2.004c.22 0 .4.187.4.417v2.084a.41.41 0 01-.4.417zm5.716.13h-2.002a.409.409 0 01-.401-.417V17.84c0-.23.18-.417.4-.417h2.004c.22 0 .4.187.4.417v2.084a.41.41 0 01-.4.417zM5.929 25.623H3.925a.409.409 0 01-.401-.417v-2.084c0-.23.18-.416.4-.416h2.004c.22 0 .4.186.4.416v2.084a.41.41 0 01-.4.417zm5.715 0H9.64a.409.409 0 01-.4-.417v-2.084c0-.23.18-.416.4-.416h2.003c.222 0 .401.186.401.416v2.084a.41.41 0 01-.4.417z" stroke="#fff" stroke-miterlimit="10" stroke-linecap="round" stroke-linejoin="round"/></svg>