<svg width="31" height="36" fill="none" xmlns="http://www.w3.org/2000/svg"><path d="M7.18 30.537H2.256A1.25 1.25 0 011 29.294V2.24A1.25 1.25 0 012.257 1h20.307c.694 0 1.257.555 1.257 1.241V24.91M2.873 8.912v18.232a1.317 1.317 0 011.304 1.541h3.002m13.53-.696a1.323 1.323 0 011.238-.845V4.158a1.316 1.316 0 01-1.324-1.308H4.198c0 .722-.593 1.308-1.325 1.308v2.336m6.09 7.71h6.734M6.5 16.408h11.66M6.5 18.609h11.66m-6.524 2.202h1.388M9.63 24.485c.383-.718 2.263-1.463 1.93-.034.449-1.143 1.669-1.144 1.456-.065.146-.743 1.211-1.193 2.014-1.373m1.53 5.046l-7.034-1.533c-1.205-.264-2.347.643-2.347 1.862v4.69c0 1.22 1.142 2.127 2.347 1.863l7.985-1.74m3.073-5.184l7.078-1.506c1.202-.256 2.338.65 2.338 1.865v4.715c0 1.216-1.136 2.121-2.338 1.865l-8.014-1.706m.087-3.553v3.121c0 .625-.513 1.13-1.145 1.13a1.138 1.138 0 01-1.146-1.13v-3.122m-1.84-20.949H8.94c-.588 0-1.064-.47-1.064-1.05 0-.58.476-1.05 1.064-1.05h6.663c.588 0 1.063.47 1.063 1.05 0 .58-.476 1.05-1.063 1.05zm3.382 17.55c.675-.305 1.428.236 1.343.964a.934.934 0 00.245.745.938.938 0 01-.513 1.56.953.953 0 00-.641.46.959.959 0 01-1.66 0 .952.952 0 00-.642-.46.938.938 0 01-.513-1.56.934.934 0 00.245-.745c-.086-.728.668-1.269 1.343-.964a.964.964 0 00.793 0z" stroke="#fff" stroke-miterlimit="10" stroke-linecap="round" stroke-linejoin="round"/></svg>