<svg width="30" height="34" fill="none" xmlns="http://www.w3.org/2000/svg"><path d="M9.927 18.967a5.665 5.665 0 01-2.52.834 2.297 2.297 0 00-2.215-1.665H2.308C1.033 18.136 0 19.151 0 20.402v11.33C0 32.985 1.033 34 2.308 34h2.884a2.3 2.3 0 002.223-1.689c.49.026.97.145 1.413.35.223.104.436.227.65.348.318.191.65.36.992.505a7.67 7.67 0 002.8.486h10.384c.853 0 1.636-.463 2.037-1.203.4-.74.352-1.636-.125-2.33a2.276 2.276 0 001.432-1.42 2.222 2.222 0 00-.278-1.98 2.26 2.26 0 001.538-1.905 2.24 2.24 0 00-1.123-2.167c.358-.405.555-.923.557-1.459 0-1.251-1.033-2.266-2.307-2.266h-7.288c.902-1.687 2.542-5.458.946-8.201-.702-1.206-2.17-2.148-3.727-1.369-1.626.812-1.262 2.414-1.087 3.184.447 1.973-1 4.02-4.302 6.084zM5.192 32.866H2.308a1.144 1.144 0 01-1.154-1.133v-11.33c0-.627.516-1.134 1.154-1.134h2.884c.638 0 1.154.507 1.154 1.133v11.33c0 .626-.516 1.134-1.154 1.134zm10.163-20.23c-.26-1.146-.143-1.614.484-1.926 1.018-.51 1.864.34 2.202.92 1.725 2.966-1.39 7.853-1.422 7.902a.558.558 0 00-.018.577c.101.18.294.293.505.293h8.279c.637 0 1.153.507 1.153 1.133s-.516 1.133-1.153 1.133h-3.462a.572.572 0 00-.577.567c0 .313.259.566.577.566h4.039c.637 0 1.153.508 1.153 1.133 0 .626-.516 1.133-1.153 1.133h-4.039a.572.572 0 00-.577.567c0 .313.259.566.577.566h2.885c.637 0 1.154.508 1.154 1.134 0 .625-.517 1.133-1.154 1.133h-2.885a.572.572 0 00-.577.566c0 .313.259.567.577.567h1.73c.638 0 1.155.507 1.155 1.133 0 .625-.517 1.133-1.154 1.133H13.269a6.483 6.483 0 01-2.365-.404 6.951 6.951 0 01-.848-.434 10.22 10.22 0 00-.73-.39 5.007 5.007 0 00-1.826-.453V20.94a6.844 6.844 0 003.046-1.02c3.755-2.344 5.374-4.795 4.81-7.285zM21.929.557v.017c0 .208-.053 5.098-4.62 5.098a.572.572 0 00-.578.567c0 .313.259.567.577.567 4.55 0 4.62 4.89 4.62 5.098a.572.572 0 00.57.574.572.572 0 00.585-.559v-.015c0-.208.052-5.098 4.62-5.098a.572.572 0 00.578-.567.572.572 0 00-.577-.567c-4.55 0-4.62-4.89-4.621-5.098a.571.571 0 00-.57-.574.572.572 0 00-.584.558zm3.144 5.682a5.415 5.415 0 00-2.568 2.853 5.412 5.412 0 00-2.568-2.853 5.412 5.412 0 002.568-2.853 5.415 5.415 0 002.568 2.853z" fill="#fff"/><path d="M7.5 7.372v-.003a.572.572 0 00-.579-.565.572.572 0 00-.575.568c0 .139-.048 3.4-2.884 3.4a.572.572 0 00-.577.566c0 .313.258.566.577.566 2.836 0 2.884 3.262 2.884 3.4v.003c.001.313.26.566.579.565a.572.572 0 00.575-.569c0-.138.048-3.399 2.885-3.399a.572.572 0 00.576-.566.572.572 0 00-.576-.567C7.548 10.771 7.5 7.51 7.5 7.372zm.775 3.966a3.829 3.829 0 00-1.352 1.537 3.83 3.83 0 00-1.352-1.537A3.825 3.825 0 006.923 9.8c.3.623.768 1.154 1.352 1.537zm18.84.566a.572.572 0 00-.576.567v1.133a.57.57 0 00.576.566.572.572 0 00.577-.566V12.47a.572.572 0 00-.577-.567zm0 5.666a.572.572 0 00.577-.567V15.87a.572.572 0 00-.577-.567.572.572 0 00-.576.567v1.133c0 .313.258.567.576.567zm1.155-2.267h1.153a.572.572 0 00.577-.566.572.572 0 00-.577-.567H28.27a.572.572 0 00-.577.567c0 .313.259.566.577.566zm-2.308 0a.572.572 0 00.576-.566.572.572 0 00-.576-.567h-1.154a.572.572 0 00-.577.567c0 .313.258.566.577.566h1.154zM12.573 5.223l.865.85a.584.584 0 00.809-.007.56.56 0 00.007-.794l-.865-.85a.584.584 0 00-.561-.154.572.572 0 00-.412.404.56.56 0 00.157.551zm-1.731-1.699a.585.585 0 00.809-.007.56.56 0 00.007-.794l-.865-.85a.584.584 0 00-.81.007.56.56 0 00-.006.794l.865.85zm-.865 2.549c.225.221.59.221.816 0l.865-.85a.56.56 0 00.157-.55.572.572 0 00-.412-.405.584.584 0 00-.56.154l-.866.85a.56.56 0 000 .801zM12.98 3.69c.154 0 .3-.06.409-.166l.865-.85a.56.56 0 00.157-.551.572.572 0 00-.412-.405.584.584 0 00-.56.155l-.866.85a.559.559 0 00-.125.617c.09.212.3.35.533.35z" fill="#fff"/></svg>