<svg width="1920" height="434" fill="none" xmlns="http://www.w3.org/2000/svg"><path d="M2256 432.096c-54.4-1.11-108.32-8.882-162.71-8.723-50.75.158-101.5 5.234-152.09 7.454-93.09 4.124-186.82 1.111-279.91 1.111h-270.71c-49.48 0-99.12.158-148.6 0-27.28 0-52.97-2.855-79.93-6.503-34.73-4.759-61.37.793-95.63 6.503M2256 416.553c-52.02-.317-103.08-10.786-155.1-10.468-53.13.158-105.94 6.027-159.07 8.406-91.82 4.282-183.96-3.648-275.94-3.489-91.03.158-182.06 2.379-273.25 2.854-48.53.159-97.06.793-145.74.793-28.39 0-54.24-4.123-82.15-8.564-37.59-6.027-62.01 2.537-98.33 10.626M2256 401.326c-46.94-2.696-90.71-21.729-137.97-21.57-57.89.317-115.46 10.627-173.02 15.226-90.72 7.296-179.53-12.847-270.24-12.054-92.3.952-184.44 8.882-276.9 9.675-46.46.476-92.77 1.428-139.24 1.428-30.92 0-58.2-6.503-88.33-12.213-17.13-3.331-33.94-6.979-51.39-3.49-19.03 3.807-34.25 15.544-52.49 22.84M2256 386.735c-43.93-3.648-80.72-29.501-125.13-29.501-61.21 0-122.11 13.957-182.69 19.984-91.83 9.041-175.24-28.073-265.8-24.742-46.46 1.744-92.14 12.371-138.6 16.177-46.63 3.807-93.41 3.49-140.04 3.49-42.98 0-85.8-.317-128.77-.317-33.15 0-63.6-7.296-96.27-12.372-19.5-3.013-39.17-7.137-58.52-2.062-20.3 5.234-34.57 19.509-53.44 29.501M2256 372.46c-44.72-3.965-78.18-35.845-123.7-35.687-61.53.159-122.59 16.971-183.49 24.267-48.05 5.71-90.71 1.745-136.86-12.53-42.66-13.164-84.21-28.866-129.73-25.535-46.15 3.33-90.08 21.887-136.07 27.28-45.67 5.234-92.3 4.917-138.13 3.172-38.69-1.427-77.23-4.758-116.09-5.392-34.88-.635-68.51-6.345-103.24-9.517-21.72-2.062-44.4-5.075-65.65 1.11-21.73 6.503-36.16 21.571-56.46 32.673M2256 358.661c-49.16-7.137-87.86-47.899-138.29-47.423-56.3.634-111.81 24.267-166.68 34.735-50.43 9.675-93.41 1.744-141.3-15.068-44.41-15.543-91.98-37.748-140.03-32.673-44.25 4.758-84.22 29.025-127.83 37.114-42.98 7.93-88.97 10.151-132.42 4.758-34.57-4.282-67.72-14.433-102.61-16.654-35.52-2.061-71.52-3.33-107.05-3.489-23.47-.158-47.73-.317-70.41 6.662-22.99 7.137-40.76 21.57-62.8 32.038M2256 345.338c-57.41-8.723-108.95-55.512-167.47-53.768-47.42 1.428-89.92 29.819-134.64 42.031-51.07 13.958-98.17-.475-146.86-17.288-47.73-16.495-105.78-45.837-157.48-37.59-41.7 6.662-74.85 37.432-115.77 47.424-39.64 9.675-85.79 14.433-125.76 3.965-31.24-8.248-57.88-26.487-90.55-30.611-87.38-10.785-169.85 21.412-251.05 45.679M2256 332.332c-65.97-8.882-130.2-59.953-196.97-56.305-40.28 2.22-66.76 32.673-102.45 46.63-108 42.19-218.06-80.731-326.37-59.794-39.65 7.771-67.25 42.189-105.15 54.402-36.63 11.737-83.42 18.874-120.05 3.965-29.82-12.054-50.12-37.748-82.94-43.776-34.73-6.185-72.48 6.503-105.62 15.385-49.8 13.323-98.65 31.88-149.87 39.176M2256 319.803c-70.89-8.407-140.99-61.381-212.51-56.782-39.17 2.538-52.18 33.466-84.05 48.693-46.47 22.046-110.54-5.393-155.26-19.826-55.19-17.764-124.97-52.182-184.44-43.141-39.33 6.027-66.77 38.382-101.82 54.402-34.41 15.702-81.03 24.901-116.72 8.247-30.92-14.433-48.05-45.52-83.26-52.499-34.57-6.82-70.25 9.041-101.97 20.937-49.48 18.398-96.26 36.003-149.23 39.969M2256 307.748c-70.89-8.089-139.24-60.27-210.61-57.098-39.8 1.745-53.92 33.625-86.27 49.485-45.83 22.364-110.38-5.392-154.62-19.667-55.19-17.764-123.86-51.547-183.17-42.824-39.97 5.869-70.1 36.638-105.63 53.133-34.89 16.178-78.81 24.902-115.29 9.358-32.83-13.957-54.24-45.044-91.03-51.23-34.73-5.868-67.4 8.882-99.28 20.936-47.89 18.082-91.66 34.577-143.2 37.907M2256 296.011c-69.46-7.613-134.48-59.16-204.42-57.415-41.39.951-58.84 34.893-92.78 51.23-46.15 22.046-108.47-4.283-153.04-18.874-54.39-17.764-120.84-50.279-179.36-41.873-81.04 11.42-136.86 94.847-227.1 61.223-35.68-13.323-62.17-43.459-101.18-49.327-34.1-5.076-64.39 8.565-95.63 20.777-45.99 18.24-86.27 32.356-136.07 34.418M2256 284.75c-66.92-7.296-127.51-58.05-194.75-57.891-43.61.158-65.65 36.797-101.97 53.768-46.63 21.729-105.78-2.538-150.98-17.447-53.28-17.606-116.24-48.217-173.65-40.604-84.37 11.103-144.16 88.82-236.3 58.844-39.17-12.689-71.05-42.031-112.76-47.424-33.3-4.441-60.74 8.089-90.87 20.936-43.93 18.716-79.93 30.136-128.3 29.977M2256 273.965c-63.75-7.137-118.94-57.257-182.69-58.367-46.63-.793-74.22 39.017-113.4 56.781-47.1 21.253-102.6-.159-148.28-15.702-51.7-17.447-110.53-45.679-166.36-39.176-88.01 10.309-153.51 82.793-247.87 55.988-42.98-12.212-80.25-40.127-125.45-45.679-32.19-3.965-56.93 7.614-85.48 21.095-42.02 19.667-73.11 27.598-119.89 25.06M2256 263.497c-60.11-6.979-109.11-56.623-168.9-59.002-49.95-1.903-83.73 41.714-126.23 60.43-98.96 43.616-202.21-61.381-303.39-51.072-91.82 9.358-164.3 76.766-261.35 52.658-47.1-11.737-89.6-38.701-138.61-43.935-31.24-3.33-52.65 6.979-79.77 21.254-39.81 21.095-66.13 24.901-111.17 19.826M2256 253.346c-56.46-6.82-98.33-55.671-154.31-59.636-52.65-3.807-94.99 43.934-139.87 64.077-96.27 43.458-193.32-55.512-291.33-47.106-95.79 8.247-176.04 71.214-275.79 49.009-51.22-11.419-98.96-37.589-151.61-42.506-30.29-2.855-48.69 5.868-74.06 21.412-37.11 22.681-59.63 21.887-102.61 14.592M2256 243.671c-52.65-6.661-87.7-55.512-139.56-60.27-56.14-5.076-105.46 46.63-153.35 67.883-95 42.031-183.18-49.802-279.12-42.982-99.91 7.137-187.93 66.139-290.54 45.361-55.19-11.102-107.52-36.479-163.98-41.237-29.5-2.538-45.04 4.599-68.67 21.412-33.78 24.108-53.92 18.715-94.04 9.675m1189.26-9.2c-49.32-6.503-77.23-55.512-125.6-60.746-59.16-6.503-115.61 49.327-166.36 71.532-93.73 40.92-173.34-45.203-267.23-39.176-103.87 6.661-199.5 61.698-305.12 42.031-58.84-10.944-115.3-35.528-175.24-40.128-28.87-2.22-42.03 3.331-63.76 21.253-30.29 24.902-48.84 15.385-85.95 5.393M2256 225.273c-46.78-6.345-67.72-55.354-113.23-61.381-61.69-8.089-124.81 51.706-177.94 74.704-92.3 39.969-164.46-40.604-256.28-35.687-107.68 5.869-210.13 58.209-318.77 39.176-61.85-10.785-121.79-34.735-184.59-39.493-27.92-2.062-40.29 1.745-59.95 20.777-26.33 25.378-44.88 11.896-78.5 1.745M2256 216.708c-45.2-6.186-59.63-55.037-103.4-61.857-63.75-9.675-132.58 53.609-187.45 77.242-91.03 39.176-156.85-36.956-246.61-32.673-111.01 5.392-219.33 55.829-330.82 36.955-64.07-10.944-126.55-34.259-191.73-39.176-27.12-2.062-39.33.318-57.25 20.143-22.84 25.06-41.71 8.882-72-.634M2256 208.46c-44.72-6.027-53.76-54.719-96.74-62.174-64.86-11.261-138.29 55.037-194.27 79.145-89.92 38.7-150.82-34.735-239.15-30.611-113.4 5.393-226.95 54.878-340.5 35.687-65.49-11.103-129.4-33.942-195.85-39.335-27.76-2.22-37.43.476-56.3 18.874-22.36 22.205-36.32 7.455-66.77-1.586M2256 200.53c-45.2-5.71-50.91-54.085-94.04-62.491-65.03-12.53-141.47 55.671-197.61 79.938-43.93 19.033-82.78 16.654-125.76-2.221-36.79-16.336-67.08-29.501-108.47-27.28-114.82 6.027-232.65 55.354-347.15 35.528-65.66-11.42-129.89-33.942-196.5-39.81-27.12-2.38-38.22-.159-57.25 17.446-21.41 19.826-33.94 6.186-62.8-.951M2256 192.917c-44.56-5.869-51.86-53.926-95-61.54-65.18-11.419-141.3 54.878-197.91 78.987-43.46 18.557-82.15 17.288-124.34-2.697-36-16.971-64.54-30.294-105.78-27.914-116.4 6.502-236.14 60.429-352.22 38.858-65.03-12.054-128.46-35.845-194.44-42.189-27.27-2.538-38.53 0-58.04 17.288-22.2 19.667-32.67 6.979-61.85-.793M2256 185.621c-44.09-5.551-54.24-52.499-97.06-59.16-65.81-10.151-140.82 53.292-198.55 76.924-42.5 17.447-81.04 17.764-121.8-3.172-34.57-17.764-61.05-30.453-101.65-28.232-117.68 6.661-238.84 64.236-356.19 41.079-64.71-12.689-127.67-37.748-193.33-44.41-27.43-2.855-39.01.317-59.15 17.288-22.99 19.509-31.88 7.772-61.53-.476M2256 178.801c-44.09-5.076-57.73-50.278-100.7-56.147-66.61-9.041-140.51 51.071-199.51 74.228-41.07 16.019-79.77 18.399-118.62-3.489-32.99-18.557-56.78-30.294-96.43-28.074-118.78 6.82-240.74 66.932-359.36 42.348-64.55-13.481-127.19-39.493-193-46.63-26.33-2.855-40.92-.634-60.11 17.288-22.04 20.619-33.46 8.248-61.69.317M2256 172.139c-44.09-4.282-61.85-47.264-104.99-52.34-67.4-7.772-140.03 48.375-200.61 70.739-39.17 14.433-78.5 19.033-115.14-3.648-31.08-19.35-51.86-29.818-90.55-27.598-119.74 6.82-241.85 68.994-361.43 42.983-64.7-14.116-127.34-41.397-193.32-48.693-26.64-3.013-41.39-.475-61.05 17.289-22.68 20.46-33.47 9.199-62.33 1.427M2256 165.954c-44.4-3.49-66.29-44.093-109.9-48.217-68.2-6.661-139.4 45.679-201.57 67.25-37.9 13.164-76.76 19.032-111.33-3.966-29.66-19.667-46.31-29.183-84.53-27.121-120.37 6.82-242.16 70.421-362.69 43.141-64.86-14.751-127.51-43.3-193.96-50.913-26.96-3.172-41.86-.317-62.16 17.288-23.47 20.302-33.78 10.309-63.44 2.538M2256 159.927c-45.04-2.855-70.89-40.921-115.14-44.41-68.82-5.393-138.76 43.141-202.04 63.601-35.52 11.578-76.12 19.667-107.84-4.282-27.44-20.619-41.39-28.55-78.82-26.488-120.68 6.979-241.85 72.008-362.85 43.459-65.18-15.385-127.82-45.203-194.59-53.292-27.28-3.331-42.34-.159-63.12 17.288-24.1 20.302-34.41 11.42-64.86 3.965M2256 154.217c-45.83-2.221-75.33-38.224-120.53-40.921-69.14-4.124-137.97 40.762-202.2 60.429-33.78 10.31-75.33 19.826-104.67-4.441-25.69-21.253-36.63-28.232-73.74-26.17-120.85 6.979-240.9 73.435-362.22 43.617-65.34-16.019-128.14-47.265-195.22-55.512-27.76-3.49-42.98 0-64.07 17.605-24.9 20.46-35.37 12.53-66.61 5.551M2256 148.983c-46.63-1.903-79.29-36.321-125.6-38.383-69.15-2.855-136.87 38.859-201.57 57.733-32.04 9.199-75.17 20.302-102.29-4.758-23.95-22.047-32.99-28.074-69.94-26.012-120.84 7.137-239.15 75.656-360.63 44.41-65.5-16.812-128.14-49.327-195.54-58.05-28.07-3.648-43.45.317-65.18 17.764-25.53 20.619-36.32 13.799-68.35 7.296m1189.1-5.076c-47.58-2.062-82.94-35.686-130.36-36.796-68.67-1.745-135.44 37.748-200.14 55.829-30.93 8.565-75.49 20.619-101.02-5.075-22.68-23.157-30.77-28.549-67.72-26.329-120.53 7.455-236.93 78.669-358.09 45.996-65.5-17.605-127.83-51.547-195.39-60.746-28.54-3.966-44.08.634-66.13 18.239-26.32 20.937-37.27 15.068-70.41 8.882M2256 139.149c-48.53-2.538-85.96-36.638-134.33-36.955-67.55-.476-133.69 37.431-197.6 55.036-30.61 8.407-75.96 20.936-100.86-5.551-22.2-23.632-30.29-29.501-67.72-26.963-119.89 7.93-233.92 82.951-354.76 48.534-65.18-18.557-127.03-53.927-194.43-63.602-28.87-4.124-44.73.952-67.09 18.716-26.96 21.412-38.38 16.495-72.47 10.627M2256 134.55c-49.32-3.331-87.86-39.176-137.34-38.86-66.29.318-131.15 38.067-193.79 55.831-31.56 8.882-76.44 21.094-102.14-5.869-22.99-23.95-32.03-30.928-70.25-28.073-118.94 8.723-230.75 88.026-350.64 51.864-64.55-19.509-125.61-56.147-192.53-66.615-29.34-4.6-45.36 1.428-68.19 19.35-27.76 21.888-39.33 17.923-74.38 12.372M2256 130.426c-50.43-3.648-89.29-41.872-140.03-41.714-65.03.317-128.78 38.859-189.68 57.099-33.14 9.833-75.96 20.619-103.71-5.869-24.74-23.632-34.58-32.356-73.59-29.183-117.67 9.357-227.89 92.467-346.52 54.56-63.59-20.301-123.54-58.05-189.83-69.152-29.97-4.917-46.31 1.586-69.46 19.826-28.39 22.363-40.13 19.508-76.28 14.116m1189.1-3.648c-51.7-3.807-90.71-44.569-142.57-44.41-63.75.158-126.4 39.651-185.87 58.367-34.25 10.785-76.44 20.46-105.46-5.868-26.01-23.633-37.74-33.625-77.07-30.294-116.25 9.992-224.73 96.75-342.24 57.257-62.64-21.095-121.48-59.795-186.98-71.373-30.13-5.234-47.73 1.427-71.05 20.301-28.54 23.157-41.55 20.936-78.18 16.02M2256 122.654c-52.97-4.282-91.82-47.423-144.79-47.582-62.64 0-124.18 40.603-182.38 59.636-35.68 11.737-76.44 20.143-107.36-6.027-27.44-23.315-40.45-35.052-80.73-31.404-114.97 10.627-221.39 100.874-337.63 59.953-61.7-21.729-119.26-61.38-183.97-73.435-30.45-5.71-48.84 1.745-72.47 20.778-29.18 23.474-42.66 22.522-80.09 17.922m1189.42-3.33c-54.08-4.6-92.93-50.437-147.01-50.755-61.69-.158-122.12 41.397-178.89 60.906-36.48 12.529-77.39 20.143-109.27-6.028-28.39-23.315-43.77-36.48-84.37-32.514-113.71 11.103-217.9 104.839-333.04 62.491-60.58-22.205-117.04-62.808-180.79-75.18-30.92-6.027-49.95 2.062-74.06 21.254-29.81 23.791-43.61 23.949-81.99 19.667M2256 115.993c-55.19-5.076-93.88-53.61-149.07-53.927-60.59-.317-120.21 42.348-175.72 62.333-37.27 13.481-78.19 19.984-111.17-6.186-29.34-23.315-46.94-37.907-88.02-33.625-112.28 11.737-214.25 108.488-328.28 65.029-59.47-22.839-114.66-64.077-177.62-76.765-31.4-6.345-51.07 2.22-75.49 21.57-30.45 23.95-44.88 25.377-83.89 21.571M2256 112.979c-56.14-5.393-94.68-56.781-150.98-57.257-59.79-.476-118.62 43.141-172.86 63.443-38.54 14.433-78.82 19.667-113.39-6.186-30.61-22.998-49.8-39.335-91.51-34.735-111.01 12.213-210.6 112.135-323.52 67.408-58.36-23.157-112.12-65.029-174.29-78.035-31.72-6.661-52.33 2.538-77.07 21.888-31.09 24.108-46.15 26.646-85.8 23.474M2256 110.283c-57.09-5.869-95.31-59.954-152.56-60.588-59.16-.635-117.04 43.934-170.17 64.711-39.65 15.544-79.61 19.351-115.45-6.344-31.72-22.68-52.65-40.762-95.16-35.845-109.74 12.689-206.8 115.466-318.76 69.628-57.25-23.473-109.74-65.98-170.8-78.986-32.04-6.82-53.45 2.855-78.66 22.205-31.56 24.108-47.26 27.915-87.7 25.377M2256 107.745c-58.2-6.344-95.95-62.967-154.15-63.919-58.36-.793-115.45 44.886-167.63 65.981-40.6 16.495-80.56 19.191-117.51-6.344-32.83-22.523-55.51-42.19-98.65-36.956-108.47 13.323-202.99 118.797-314.16 71.691-56.14-23.792-107.21-66.774-167.47-79.938-32.35-7.138-54.56 3.172-80.25 22.363-32.19 24.108-48.68 29.342-89.6 27.122M2256 105.524c-31.88-3.647-52.97-14.591-78.82-33.307-22.52-16.337-47.73-33.466-76.91-33.942-57.73-.951-114.19 45.679-165.25 67.091-41.56 17.447-81.52 19.033-119.74-6.344-33.62-22.364-58.36-43.617-101.97-38.066-107.21 13.799-199.03 121.81-309.57 73.752-55.03-23.949-104.67-67.408-163.98-80.73-32.67-7.297-55.82 3.489-81.83 22.68-32.67 24.108-49.96 30.453-91.35 28.866M2256 103.463c-32.51-3.966-53.6-15.227-79.45-34.735-22.52-16.971-48.06-35.052-77.55-35.687-57.25-1.269-112.92 46.472-163.19 68.201-42.19 18.399-82.79 18.874-121.8-6.503-34.41-22.363-61.21-45.044-105.3-39.176-105.94 14.116-195.23 124.665-305.13 75.656-53.92-24.108-102.29-68.043-160.65-81.365-32.99-7.455-56.93 3.647-83.42 22.839-33.14 23.95-51.22 31.563-92.93 30.611M2256 101.559c-32.99-4.123-54.08-16.019-79.93-36.162-22.52-17.605-48.21-36.638-78.18-37.273-56.78-1.427-111.81 47.107-161.29 69.312-42.98 19.35-83.73 18.715-123.86-6.503-35.2-22.205-63.75-46.314-108.47-40.128-104.83 14.592-191.58 127.52-300.85 77.559-52.97-24.108-99.91-68.518-157.32-81.841-33.3-7.613-58.04 3.965-84.84 22.998-33.62 23.95-52.5 32.673-94.68 32.197M2256 99.973c-33.46-4.282-54.55-16.653-80.56-37.748-22.52-18.081-48.37-38.066-78.66-38.859-56.3-1.586-110.86 47.9-159.54 70.263-43.78 20.143-84.85 18.557-125.92-6.503-35.85-22.046-66.14-47.582-111.49-41.08-103.72 14.91-187.93 130.059-296.72 79.146-51.86-24.267-97.54-68.994-154.15-82.159-33.47-7.771-59.16 4.124-86.28 23.157-33.93 23.791-53.6 33.625-96.1 33.783M2256 98.546c-33.94-4.6-55.03-17.288-81.04-39.018-22.36-18.715-48.37-39.493-79.14-40.444-55.98-1.745-109.9 48.533-157.95 71.214-44.41 21.095-85.96 18.557-127.82-6.503-36.95-22.046-68.2-48.216-114.35-42.03-103.56 13.798-183.48 132.912-292.91 80.73-50.91-24.266-95.31-69.31-151.14-82.475-33.78-7.93-60.1 4.282-87.54 23.315-34.41 23.633-54.71 34.576-97.53 35.21M2256 97.278c-34.41-4.758-55.19-17.923-81.36-40.286-22.36-19.192-48.52-40.604-79.61-41.714-55.82-1.903-109.11 49.01-156.53 72.008-44.88 21.887-86.9 18.398-129.56-6.503-37.59-22.047-70.26-49.327-116.88-42.983-102.61 13.958-180.32 135.133-289.43 82.159-50.11-24.267-93.25-69.629-148.28-82.635-33.94-8.088-61.06 4.441-88.81 23.316-34.73 23.632-55.82 35.528-98.8 36.638M2256 96.167c-34.89-4.758-55.66-18.399-81.83-41.397-22.2-19.667-48.37-41.713-79.77-42.982-55.67-2.22-108.32 49.485-155.26 72.8-45.36 22.523-87.86 18.399-131.16-6.502-38.22-21.888-72.31-50.438-119.25-43.776-101.82 14.275-177.31 137.036-286.26 83.269-49.16-24.267-91.19-69.787-145.58-82.793-34.26-7.93-62.17 4.758-90.24 23.474-34.89 23.474-56.78 36.48-100.07 37.907M2256 95.215c-35.21-4.758-55.82-18.716-81.99-42.19-22.36-20.142-48.37-42.982-80.25-44.25-55.5-2.38-107.68 49.96-154.3 73.434-45.84 23.157-88.66 18.399-132.59-6.344-38.69-21.888-73.9-51.389-121.32-44.569-101.18 14.434-174.44 138.94-283.55 84.379-48.53-24.266-89.45-69.945-143.21-82.793-34.26-8.088-62.8 4.6-91.03 23.316-35.21 23.474-57.57 37.272-101.02 39.017M2256 94.581c-35.68-4.759-56.14-19.033-82.31-43.142-22.2-20.618-48.21-43.775-80.4-45.202-55.51-2.538-107.05 50.278-153.36 74.069-46.31 23.791-89.44 18.557-133.85-6.344-39.01-21.73-75.49-52.182-123.22-45.203-100.55 14.433-172.07 140.525-281.18 85.33-47.9-24.267-87.86-70.263-140.99-82.793-34.41-8.247-63.59 4.6-91.98 23.316-35.36 23.315-58.36 37.907-101.81 39.969m1189.1-.635c-36-4.758-56.3-19.191-82.31-43.617-22.36-20.936-48.37-44.41-80.88-46.154-55.5-2.855-106.57 50.437-152.56 74.545-46.63 24.267-90.08 18.557-134.96-6.186-39.33-21.729-76.76-52.816-124.81-45.837-100.23 14.592-169.85 141.953-279.28 85.965-47.26-24.267-86.27-70.422-139.24-82.793-34.57-8.248-64.23 4.6-92.77 23.315-35.53 23.315-58.84 38.7-102.61 40.92M2256 93.63c-36.16-4.6-56.46-19.35-82.47-44.093-22.36-21.412-48.21-45.203-81.04-46.947-55.66-3.014-106.09 50.595-151.92 74.862-46.79 24.743-90.72 18.716-135.92-6.027-39.64-21.73-77.7-53.45-125.92-46.472-99.91 14.592-168.1 143.222-277.84 86.758-46.95-24.108-85.17-70.58-137.66-82.793-34.73-8.089-64.7 4.441-93.57 23.157-35.68 23.315-59.15 39.335-103.08 41.555M2256 93.312c-36.48-4.283-56.46-19.192-82.47-44.252-22.36-21.729-48.05-45.52-81.19-47.423-55.83-3.172-105.62 50.596-151.46 75.021-46.94 25.06-91.03 18.874-136.54-5.868m0 0c-39.97-21.73-78.35-53.768-126.72-46.79-100.07 14.434-166.99 144.016-277.21 86.917-46.63-24.108-84.05-70.739-136.39-82.793-34.89-8.089-65.18 4.283-94.04 23.157-35.68 23.157-59.31 39.81-103.4 42.03m737.76-22.521c45.67 24.584 89.76 30.769 136.86 5.55 45.99-24.583 95.15-78.668 151.14-75.179 33.3 2.062 58.67 25.694 81.19 47.74 26.01 25.378 45.84 40.287 82.47 44.252M1804.34 70.79c-40.13-21.73-78.66-54.085-127.19-47.265-100.39 14.116-166.2 144.649-277.06 87.075-46.46-24.108-83.42-70.897-135.59-82.951-34.89-8.09-65.5 4.123-94.36 22.998-35.68 23.315-59.31 40.444-103.4 42.348M-123 432.096c54.396-1.11 108.317-8.882 162.713-8.723 50.748.158 101.497 5.234 152.087 7.454 93.092 4.124 186.818 1.111 279.91 1.111h270.712c49.48 0 99.119.158 148.599 0 27.277 0 52.969-2.855 79.929-6.503 34.73-4.759 61.37.793 95.63 6.503M-123 416.553c52.017-.317 103.083-10.786 155.1-10.468 53.128.158 105.938 6.027 159.066 8.406 91.823 4.282 183.963-3.648 275.945-3.489 91.031.158 182.061 2.379 273.25 2.854 48.528.159 97.057.793 145.743.793 28.388 0 54.238-4.123 82.15-8.564 37.586-6.027 62.006 2.537 98.326 10.626M-123 401.326c46.942-2.696 90.713-21.729 137.973-21.57 57.885.317 115.453 10.627 173.021 15.226 90.713 7.296 179.523-12.847 270.236-12.054 92.299.952 184.44 8.882 276.897 9.675 46.467.476 92.775 1.428 139.242 1.428 30.925 0 58.202-6.503 88.334-12.213 17.128-3.331 33.938-6.979 51.387-3.49 19.03 3.807 34.25 15.544 52.49 22.84M-123 386.735c43.93-3.648 80.722-29.501 125.127-29.501 61.216 0 122.114 13.957 182.695 19.984 91.823 9.041 175.241-28.073 265.796-24.742 46.467 1.744 92.14 12.371 138.607 16.177 46.625 3.807 93.409 3.49 140.035 3.49 42.977 0 85.796-.317 128.774-.317 33.145 0 63.595-7.296 96.264-12.372 19.506-3.013 39.172-7.137 58.522-2.062 20.3 5.234 34.57 19.509 53.44 29.501M-123 372.46c44.722-3.965 78.185-35.845 123.7-35.687 61.532.159 122.589 16.971 183.488 24.267 48.052 5.71 90.713 1.745 136.862-12.53 42.661-13.164 84.211-28.866 129.727-25.535 46.149 3.33 90.078 21.887 136.069 27.28 45.674 5.234 92.299 4.917 138.132 3.172 38.695-1.427 77.233-4.758 116.087-5.392 34.89-.635 68.511-6.345 103.242-9.517 21.727-2.062 44.405-5.075 65.653 1.11 21.73 6.503 36.16 21.571 56.46 32.673M-123 358.661c49.163-7.137 87.858-47.899 138.29-47.423 56.3.634 111.806 24.267 166.677 34.735 50.432 9.675 93.41 1.744 141.304-15.068 44.405-15.543 91.982-37.748 140.034-32.673 44.247 4.758 84.211 29.025 127.823 37.114 42.978 7.93 88.969 10.151 132.422 4.758 34.573-4.282 67.718-14.433 102.608-16.654 35.524-2.061 71.524-3.33 107.048-3.489 23.471-.158 47.735-.317 70.414 6.662 22.99 7.137 40.76 21.57 62.8 32.038M-123 345.338c57.41-8.723 108.95-55.512 167.47-53.768 47.419 1.428 89.921 29.819 134.643 42.031 51.066 13.958 98.167-.475 146.854-17.288 47.735-16.495 105.779-45.837 157.479-37.59 41.709 6.662 74.854 37.432 115.77 47.424 39.648 9.675 85.797 14.433 125.762 3.965 31.242-8.248 57.885-26.487 90.554-30.611 87.383-10.785 169.85 21.412 251.048 45.679M-123 332.332c65.973-8.882 130.202-59.953 196.968-56.305 40.282 2.22 66.766 32.673 102.449 46.63 107.999 42.19 218.06-80.731 326.377-59.794 39.647 7.771 67.242 42.189 105.145 54.402 36.634 11.737 83.418 18.874 120.052 3.965 29.815-12.054 50.114-37.748 82.942-43.776 34.731-6.185 72.475 6.503 105.621 15.385 49.797 13.323 98.646 31.88 149.866 39.176M-123 319.803c70.89-8.407 140.986-61.381 212.51-56.782 39.171 2.538 52.176 33.466 84.052 48.693 46.467 22.046 110.537-5.393 155.259-19.826 55.189-17.764 124.969-52.182 184.44-43.141 39.33 6.027 66.766 38.382 101.814 54.402 34.414 15.702 81.039 24.901 116.722 8.247 30.925-14.433 48.053-45.52 83.259-52.499 34.573-6.82 70.256 9.041 101.973 20.937 49.48 18.398 96.261 36.003 149.231 39.969M-123 307.748c70.89-8.089 139.242-60.27 210.607-57.098 39.806 1.745 53.92 33.625 86.272 49.485 45.833 22.364 110.379-5.392 154.625-19.667 55.189-17.764 123.858-51.547 183.171-42.824 39.964 5.869 70.096 36.638 105.62 53.133 34.89 16.178 78.819 24.902 115.295 9.358 32.828-13.957 54.238-45.044 91.03-51.23 34.731-5.868 67.401 8.882 99.277 20.936 47.894 18.082 91.663 34.577 143.203 37.907M-123 296.011c69.462-7.613 134.484-59.16 204.422-57.415 41.392.951 58.836 34.893 92.775 51.23 46.149 22.046 108.475-4.283 153.038-18.874 54.397-17.764 120.846-50.279 179.365-41.873 81.039 11.42 136.863 94.847 227.1 61.223 35.683-13.323 62.167-43.459 101.18-49.327 34.097-5.076 64.387 8.565 95.63 20.777 45.99 18.24 86.27 32.356 136.07 34.418M-123 284.75c66.925-7.296 127.506-58.05 194.748-57.891 43.612.158 65.656 36.797 101.973 53.768 46.625 21.729 105.779-2.538 150.977-17.447 53.286-17.606 116.246-48.217 173.655-40.604 84.37 11.103 144.158 88.82 236.299 58.844 39.171-12.689 71.048-42.031 112.757-47.424 33.303-4.441 60.739 8.089 90.871 20.936 43.93 18.716 79.93 30.136 128.3 29.977M-123 273.965c63.753-7.137 118.942-57.257 182.695-58.367 46.625-.793 74.22 39.017 113.391 56.781 47.102 21.253 102.608-.159 148.282-15.702 51.7-17.447 110.536-45.679 166.36-39.176 88.017 10.309 153.514 82.793 247.875 55.988 42.978-12.212 80.246-40.127 125.444-45.679 32.194-3.965 56.934 7.614 85.48 21.095 42.026 19.667 73.113 27.598 119.893 25.06M-123 263.497c60.105-6.979 109.11-56.623 168.898-59.002 49.955-1.903 83.735 41.714 126.237 60.43 98.96 43.616 202.201-61.381 303.382-51.072 91.823 9.358 164.298 76.766 261.355 52.658 47.101-11.737 89.603-38.701 138.607-43.935 31.242-3.33 52.652 6.979 79.771 21.254 39.805 21.095 66.13 24.901 111.17 19.826M-123 253.346c56.458-6.82 98.325-55.671 154.308-59.636 52.651-3.807 94.995 43.934 139.875 64.077 96.264 43.458 193.321-55.512 291.329-47.106 95.788 8.247 176.034 71.214 275.787 49.009 51.225-11.419 98.96-37.589 151.612-42.506 30.29-2.855 48.687 5.868 74.061 21.412 37.108 22.681 59.628 21.887 102.608 14.592M-123 243.671c52.652-6.661 87.7-55.512 139.559-60.27 56.14-5.076 105.462 46.63 153.356 67.883 94.995 42.031 183.17-49.802 279.117-42.982 99.911 7.137 187.929 66.139 290.536 45.361 55.189-11.102 107.523-36.479 163.981-41.237 29.498-2.538 45.04 4.599 68.67 21.412 33.781 24.108 53.921 18.715 94.041 9.675m-1189.26-9.2c49.321-6.503 77.233-55.512 125.603-60.746 59.154-6.503 115.611 49.327 166.36 71.532 93.726 40.92 173.338-45.203 267.223-39.176 103.876 6.661 199.506 61.698 305.126 42.031 58.837-10.944 115.295-35.528 175.242-40.128 28.863-2.22 42.026 3.331 63.753 21.253 30.293 24.902 48.843 15.385 85.953 5.393M-123 225.273c46.784-6.345 67.718-55.354 113.233-61.381 61.691-8.089 124.81 51.706 177.937 74.704 92.299 39.969 164.457-40.604 256.281-35.687 107.682 5.869 210.131 58.209 318.764 39.176 61.85-10.785 121.797-34.735 184.599-39.493 27.911-2.062 40.281 1.745 59.946 20.777 26.33 25.378 44.88 11.896 78.5 1.745M-123 216.708c45.198-6.186 59.63-55.037 103.4-61.857 63.753-9.675 132.581 53.609 187.453 77.242 91.03 39.176 156.845-36.956 246.607-32.673 111.012 5.392 219.329 55.829 330.817 36.955 64.07-10.944 126.554-34.259 191.735-39.176 27.119-2.062 39.33.318 57.25 20.143 22.838 25.06 41.708 8.882 71.998-.634M-123 208.46c44.722-6.027 53.762-54.719 96.74-62.174 64.863-11.261 138.29 55.037 194.272 79.145 89.92 38.7 150.818-34.735 239.152-30.611 113.392 5.393 226.942 54.878 340.492 35.687 65.497-11.103 129.409-33.942 195.858-39.335 27.753-2.22 37.427.476 56.299 18.874 22.357 22.205 36.317 7.455 66.767-1.586M-123 200.53c45.198-5.71 50.907-54.085 94.043-62.491 65.022-12.53 141.462 55.671 197.603 79.938 43.929 19.033 82.784 16.654 125.761-2.221 36.793-16.336 67.084-29.501 108.476-27.28 114.818 6.027 232.65 55.354 347.152 35.528 65.656-11.42 129.885-33.942 196.492-39.81 27.119-2.38 38.22-.159 57.253 17.446 21.41 19.826 33.94 6.186 62.8-.951M-123 192.917c44.564-5.869 51.859-53.926 94.995-61.54 65.18-11.419 141.303 54.878 197.92 78.987 43.453 18.557 82.149 17.288 124.334-2.697 36-16.971 64.546-30.294 105.779-27.914 116.405 6.502 236.14 60.429 352.227 38.858 65.022-12.054 128.457-35.845 194.431-42.189 27.277-2.538 38.537 0 58.044 17.288 22.2 19.667 32.67 6.979 61.85-.793M-123 185.621c44.088-5.551 54.238-52.499 97.057-59.16 65.814-10.151 140.827 53.292 198.554 76.924 42.502 17.447 81.039 17.764 121.796-3.172 34.573-17.764 61.057-30.453 101.656-28.232 117.674 6.661 238.836 64.236 356.192 41.079 64.705-12.689 127.664-37.748 193.321-44.41 27.435-2.855 39.013.317 59.154 17.288 22.99 19.509 31.88 7.772 61.53-.476M-123 178.801c44.088-5.076 57.727-50.278 100.704-56.147 66.608-9.041 140.511 51.071 199.506 74.228 41.074 16.019 79.77 18.399 118.625-3.489 32.986-18.557 56.775-30.294 96.422-28.074 118.784 6.82 240.739 66.932 359.364 42.348 64.546-13.481 127.188-39.493 193.003-46.63 26.326-2.855 40.916-.634 60.106 17.288 22.04 20.619 33.46 8.248 61.69.317M-123 172.139c44.088-4.282 61.85-47.264 104.986-52.34 67.4-7.772 140.035 48.375 200.616 70.739 39.171 14.433 78.502 19.033 115.136-3.648 31.083-19.35 51.859-29.818 90.554-27.598 119.735 6.82 241.849 68.994 361.426 42.983 64.704-14.116 127.347-41.397 193.32-48.693 26.643-3.013 41.392-.475 61.062 17.289 22.67 20.46 33.46 9.199 62.32 1.427M-123 165.954c44.405-3.49 66.29-44.093 109.903-48.217 68.193-6.661 139.4 45.679 201.567 67.25 37.902 13.164 76.757 19.032 111.329-3.966 29.657-19.667 46.309-29.183 84.529-27.121 120.369 6.82 242.166 70.421 362.694 43.141 64.863-14.751 127.506-43.3 193.954-50.913 26.961-3.172 41.868-.317 62.164 17.288 23.47 20.302 33.78 10.309 63.44 2.538M-123 159.927c45.04-2.855 70.89-40.921 115.136-44.41 68.828-5.393 138.766 43.141 202.043 63.601 35.524 11.578 76.123 19.667 107.841-4.282 27.436-20.619 41.392-28.55 78.819-26.488 120.686 6.979 241.848 72.008 362.852 43.459 65.18-15.385 127.823-45.203 194.589-53.292 27.278-3.331 42.344-.159 63.12 17.288 24.1 20.302 34.41 11.42 64.86 3.965M-123 154.217c45.832-2.221 75.33-38.224 120.528-40.921 69.145-4.124 137.973 40.762 202.201 60.429 33.78 10.31 75.33 19.826 104.669-4.441 25.692-21.253 36.635-28.232 73.745-26.17 120.845 6.979 240.897 73.435 362.218 43.617 65.339-16.019 128.14-47.265 195.223-55.512 27.754-3.49 42.978 0 64.071 17.605 24.895 20.46 35.365 12.53 66.605 5.551M-123 148.983c46.625-1.903 79.295-36.321 125.603-38.383 69.145-2.855 136.863 38.859 201.567 57.733 32.035 9.199 75.171 20.302 102.29-4.758 23.947-22.047 32.987-28.074 69.938-26.012 120.845 7.137 239.153 75.656 360.632 44.41 65.498-16.812 128.141-49.327 195.541-58.05 28.071-3.648 43.454.317 65.18 17.764 25.529 20.619 36.319 13.799 68.349 7.296M-123 143.907c47.577-2.062 82.942-35.686 130.36-36.796 68.67-1.745 135.436 37.748 200.14 55.829 30.925 8.565 75.489 20.619 101.022-5.075 22.678-23.157 30.766-28.549 67.718-26.329 120.527 7.455 236.932 78.669 358.094 45.996 65.498-17.605 127.823-51.547 195.383-60.746 28.546-3.966 44.087.634 66.131 18.239 26.322 20.937 37.272 15.068 70.412 8.882M-123 139.149c48.528-2.538 85.956-36.638 134.325-36.955 67.56-.476 133.691 37.431 197.603 55.036 30.607 8.407 75.964 20.936 100.863-5.551 22.202-23.632 30.29-29.501 67.717-26.963 119.894 7.93 233.92 82.951 354.765 48.534 65.18-18.557 127.03-53.927 194.43-63.602 28.864-4.124 44.723.952 67.084 18.716 26.963 21.412 38.383 16.495 72.473 10.627M-123 134.55c49.321-3.331 87.858-39.176 137.338-38.86 66.29.318 131.154 38.067 193.797 55.831 31.559 8.882 76.44 21.094 102.131-5.869 22.996-23.95 32.035-30.928 70.255-28.073 118.942 8.723 230.748 88.026 350.642 51.864 64.546-19.509 125.602-56.147 192.527-66.615 29.339-4.6 45.357 1.428 68.194 19.35 27.756 21.888 39.326 17.923 74.376 12.372M-123 130.426c50.431-3.648 89.286-41.872 140.035-41.714 65.021.317 128.774 38.859 189.672 57.099 33.146 9.833 75.965 20.619 103.718-5.869 24.74-23.632 34.572-32.356 73.585-29.183 117.674 9.357 227.893 92.467 346.518 54.56 63.595-20.301 123.541-58.05 189.832-69.152 29.973-4.917 46.308 1.586 69.462 19.826 28.388 22.363 40.128 19.508 76.278 14.116M-123 126.461c51.7-3.807 90.713-44.569 142.572-44.41 63.753.158 126.396 39.651 185.867 58.367 34.255 10.785 76.44 20.46 105.462-5.868 26.008-23.633 37.744-33.625 77.074-30.294 116.246 9.992 224.721 96.75 342.236 57.257 62.643-21.095 121.48-59.795 186.977-71.373 30.132-5.234 47.735 1.427 71.048 20.301 28.544 23.157 41.554 20.936 78.184 16.02M-123 122.654c52.969-4.282 91.823-47.423 144.792-47.582 62.643 0 124.176 40.603 182.378 59.636 35.683 11.737 76.44 20.143 107.365-6.027 27.436-23.315 40.44-35.052 80.722-31.404 114.977 10.627 221.391 100.874 337.637 59.953 61.691-21.729 119.259-61.38 183.964-73.435 30.449-5.71 48.845 1.745 72.475 20.778 29.177 23.474 42.657 22.522 80.087 17.922M-123 119.165c54.079-4.6 92.933-50.437 147.012-50.755 61.692-.158 122.114 41.397 178.889 60.906 36.476 12.529 77.392 20.143 109.268-6.028 28.388-23.315 43.771-36.48 84.37-32.514 113.709 11.103 217.902 104.839 333.038 62.491 60.581-22.205 117.039-62.808 180.792-75.18 30.925-6.027 49.955 2.062 74.061 21.254 29.81 23.791 43.61 23.949 81.99 19.667M-123 115.993c55.19-5.076 93.885-53.61 149.074-53.927 60.581-.317 120.211 42.348 175.717 62.333 37.269 13.481 78.185 19.984 111.171-6.186 29.339-23.315 46.943-37.907 88.017-33.625 112.282 11.737 214.255 108.488 328.281 65.029 59.471-22.839 114.66-64.077 177.62-76.765 31.4-6.345 51.066 2.22 75.488 21.57 30.452 23.95 44.882 25.377 83.892 21.571M-123 112.979c56.14-5.393 94.678-56.781 150.977-57.257 59.788-.476 118.625 43.141 172.863 63.443 38.537 14.433 78.819 19.667 113.391-6.186 30.608-22.998 49.797-39.335 91.506-34.735C516.75 90.457 616.344 190.38 729.26 145.652c58.361-23.157 112.122-65.029 174.289-78.035 31.718-6.661 52.335 2.538 77.075 21.888 31.086 24.108 46.146 26.646 85.796 23.474M-123 110.283c57.092-5.869 95.312-59.954 152.563-60.588 59.154-.635 117.039 43.934 170.166 64.711 39.648 15.544 79.612 19.351 115.454-6.344 31.717-22.68 52.651-40.762 95.153-35.845 109.744 12.689 206.801 115.466 318.765 69.628 57.251-23.473 109.744-65.98 170.801-78.986 32.035-6.82 53.444 2.855 78.66 22.205 31.558 24.108 47.258 27.915 87.698 25.377M-123 107.745c58.202-6.344 95.947-62.967 154.149-63.919 58.36-.793 115.453 44.886 167.629 65.981 40.599 16.495 80.563 19.191 117.515-6.344 32.828-22.523 55.506-42.19 98.642-36.956C523.411 79.83 617.93 185.304 729.101 138.198c56.141-23.792 107.206-66.774 167.47-79.938 32.353-7.138 54.555 3.172 80.247 22.363 32.192 24.108 48.682 29.342 89.602 27.122M-123 105.524c31.876-3.647 52.969-14.591 78.819-33.307 22.52-16.337 47.735-33.466 76.916-33.942 57.726-.951 114.184 45.679 165.25 67.091 41.55 17.447 81.515 19.033 119.735-6.344 33.621-22.364 58.361-43.617 101.973-38.066 107.206 13.799 199.03 121.81 309.567 73.752 55.03-23.949 104.669-67.408 163.981-80.73 32.669-7.297 55.824 3.489 81.832 22.68 32.667 24.108 49.957 30.453 91.347 28.866M-123 103.463c32.51-3.966 53.603-15.227 79.453-34.735 22.52-16.971 48.053-35.052 77.55-35.687 57.251-1.269 112.916 46.472 163.189 68.201 42.185 18.399 82.784 18.874 121.797-6.503 34.414-22.363 61.215-45.044 105.303-39.176C530.23 69.68 619.516 180.228 729.418 131.22c53.921-24.108 102.29-68.043 160.651-81.365 32.987-7.455 56.934 3.647 83.418 22.839 33.143 23.95 51.223 31.563 92.933 30.611M-123 101.559c32.987-4.123 54.079-16.019 79.93-36.162 22.519-17.605 48.21-36.638 78.184-37.273 56.775-1.427 111.805 47.107 161.285 69.312 42.978 19.35 83.735 18.715 123.858-6.503 35.207-22.205 63.753-46.314 108.476-40.128 104.827 14.592 191.576 127.52 300.844 77.559 52.969-24.108 99.911-68.518 157.32-81.841 33.304-7.613 58.044 3.965 84.846 22.998 33.617 23.95 52.497 32.673 94.677 32.197M-123 99.973c33.462-4.282 54.555-16.653 80.563-37.748 22.52-18.081 48.37-38.066 78.66-38.859 56.3-1.586 110.855 47.9 159.542 70.263 43.77 20.143 84.845 18.557 125.92-6.503 35.841-22.046 66.132-47.582 111.488-41.08 103.718 14.91 187.929 130.059 296.721 79.146 51.859-24.267 97.532-68.994 154.149-82.159 33.462-7.771 59.154 4.124 86.273 23.157 33.934 23.791 53.604 33.625 96.104 33.783M-123 98.546c33.938-4.6 55.03-17.288 81.04-39.018C-19.6 40.814 6.408 20.035 37.174 19.084c55.982-1.745 109.903 48.533 157.955 71.214 44.405 21.095 85.956 18.557 127.823-6.503 36.952-22.046 68.194-48.216 114.343-42.03 103.559 13.798 183.488 132.912 292.915 80.73 50.907-24.266 95.312-69.31 151.136-82.475 33.779-7.93 60.105 4.282 87.541 23.315 34.412 23.633 54.712 34.576 97.532 35.21M-123 97.278c34.414-4.758 55.19-17.923 81.356-40.286C-19.283 37.8 6.885 16.388 37.968 15.278c55.824-1.903 109.11 49.01 156.528 72.008 44.881 21.887 86.907 18.398 129.568-6.503 37.585-22.047 70.255-49.327 116.88-42.983C543.551 51.757 621.26 172.932 730.37 119.958c50.114-24.267 93.25-69.629 148.281-82.635 33.938-8.088 61.057 4.441 88.81 23.316 34.729 23.632 55.819 35.528 98.799 36.638M-123 96.167c34.89-4.758 55.665-18.399 81.832-41.397 22.203-19.667 48.37-41.713 79.77-42.982 55.666-2.22 108.317 49.485 155.26 72.8 45.356 22.523 87.858 18.399 131.153-6.502 38.22-21.888 72.317-50.438 119.259-43.776 101.815 14.275 177.303 137.036 286.254 83.269 49.163-24.267 91.189-69.787 145.585-82.793 34.256-7.93 62.167 4.758 90.238 23.474 34.889 23.474 56.779 36.48 100.069 37.907M-123 95.215c35.207-4.758 55.823-18.716 81.99-42.19 22.362-20.142 48.37-42.982 80.247-44.25 55.506-2.38 107.682 49.96 154.307 73.434 45.833 23.157 88.652 18.399 132.581-6.344 38.696-21.888 73.903-51.389 121.321-44.569 101.18 14.434 174.449 138.94 283.558 84.379 48.528-24.266 89.444-69.945 143.206-82.793 34.256-8.088 62.802 4.6 91.031 23.316 35.209 23.474 57.569 37.272 101.019 39.017M-123 94.581c35.683-4.759 56.14-19.033 82.308-43.142C-18.49 30.822 7.519 7.665 39.713 6.238 95.219 3.699 146.76 56.515 193.069 80.306c46.308 23.791 89.444 18.557 133.849-6.344 39.013-21.73 75.489-52.182 123.224-45.203 100.546 14.433 172.07 140.525 281.179 85.33 47.894-24.267 87.859-70.263 140.986-82.793 34.414-8.247 63.595 4.6 91.982 23.316 35.366 23.315 58.361 37.907 101.811 39.969M-123 93.946c36-4.758 56.3-19.191 82.308-43.617 22.361-20.936 48.37-44.41 80.88-46.154C95.696 1.32 146.762 54.612 192.752 78.72c46.625 24.267 90.078 18.557 134.959-6.186 39.33-21.729 76.757-52.816 124.81-45.837C552.75 41.289 622.37 168.65 731.797 112.662c47.26-24.267 86.273-70.422 139.241-82.793 34.573-8.248 64.229 4.6 92.775 23.315 35.524 23.315 58.837 38.7 102.607 40.92M-123 93.63c36.158-4.6 56.458-19.35 82.466-44.093C-18.172 28.124 7.678 4.333 40.507 2.59 96.17-.425 146.602 53.184 192.434 77.45c46.784 24.743 90.714 18.716 135.912-6.027 39.647-21.73 77.708-53.45 125.919-46.472 99.912 14.592 168.105 143.222 277.849 86.758 46.943-24.108 85.163-70.58 137.656-82.793 34.731-8.089 64.704 4.441 93.568 23.157 35.682 23.315 59.152 39.335 103.082 41.555M-123 93.312c36.476-4.283 56.458-19.192 82.466-44.252C-18.172 27.331 7.52 3.54 40.664 1.637c55.824-3.172 105.621 50.596 151.453 75.021 46.943 25.06 91.031 18.874 136.546-5.868m0 0C368.627 49.06 407.006 17.022 455.376 24c100.07 14.434 166.994 144.016 277.214 86.917 46.625-24.108 84.052-70.739 136.387-82.793 34.89-8.089 65.18 4.283 94.043 23.157 35.683 23.157 59.31 39.81 103.4 42.03M328.663 70.79c-45.674 24.584-89.762 30.769-136.863 5.55C145.809 51.758 96.646-2.327 40.664 1.162 7.361 3.223-18.014 26.855-40.534 48.901-66.541 74.28-86.365 89.189-123 93.154M328.663 70.79c40.123-21.73 78.66-54.085 127.188-47.265C556.238 37.64 622.053 168.174 732.907 110.6c46.467-24.108 83.418-70.897 135.594-82.951 34.89-8.09 65.498 4.123 94.361 22.998 35.682 23.315 59.308 40.444 103.398 42.348" stroke="url(#paint0_linear_1_2096)" stroke-width="1.5" stroke-miterlimit="10" stroke-linecap="round" stroke-linejoin="round"/><defs><linearGradient id="paint0_linear_1_2096" x1="1066.5" y1="1" x2="1066.5" y2="433" gradientUnits="userSpaceOnUse"><stop stop-color="#060E52"/><stop offset="1" stop-color="#060E52" stop-opacity="0"/></linearGradient></defs></svg>