<svg width="1920" height="1627" fill="none" xmlns="http://www.w3.org/2000/svg"><path opacity=".5" d="M-539.099 1091.29s176.612-153.404 408.989-260.233C102.267 724.228 163.064 1111.38 379.985 1201c216.921 89.63 257.059-946.984 450.49-1026.336 193.435-79.353 415.985 804.055 764.165 735.163 348.18-68.892 385.89-604.364 385.89-604.364M-540.321 1089.01s180.198-149.45 410.025-254.178C99.531 730.104 161.071 1102.16 374.751 1189.84c213.68 87.69 254.801-923.726 446.559-1000.712 191.76-76.986 414.02 785.263 763.26 712.862 349.25-72.402 391.47-591.182 396.92-593.364M-540.401 1086.11s182.908-145.753 410.796-247.238C98.282 737.388 159.689 1094.08 370.394 1178.94c210.704 84.87 251.933-901.605 442.627-975.081 190.699-73.477 412.049 766.469 761.479 690.293 349.43-76.177 397.32-578.876 407.95-582.363M-541.623 1083.82s186.229-140.912 411.832-241.173c225.603-100.26 287.488 242.203 495.827 325.403 208.34 83.19 248.799-878.616 438.697-949.461C994.631 147.745 1213.94 966 1565.58 885.702c351.63-80.297 402.63-564.816 417.82-570.75M-542.845 1081.54s189.816-136.959 412.603-234.241c222.787-97.282 285.415 230.081 490.779 310.461 205.364 80.38 246.541-855.35 435.642-923.563 189.101-68.213 407.241 728.617 759.941 644.81 352.7-83.807 408.21-551.633 428.58-558.872M-543.802 1078.37s192.261-132.38 413.374-227.296c221.113-94.915 284.484 217.356 485.465 296.406 201.247 78.17 243.407-832.36 431.711-897.941 188.304-65.58 405.272 709.825 758.162 622.243 352.88-87.582 413.79-538.451 439.61-547.872m-2529.544 752.18s195.847-128.427 414.41-221.241c218.563-92.814 282.412 205.231 480.417 281.461 198.005 76.24 240.539-810.235 427.78-872.306 187.242-62.071 403.307 691.032 757.257 599.94 353.94-91.091 420.24-525.003 450.37-535.994M-546.246 1073.8s199.434-124.463 415.18-214.299C84.681 769.665 149.54 1051.73 344.303 1126.03c194.764 74.29 238.282-786.979 423.849-846.684 185.568-59.704 400.728 671.096 755.478 577.373 354.74-93.724 425.82-511.821 461.39-524.994M-547.468 1071.52s201.878-119.898 416.217-208.244c214.339-88.347 278.532 180.114 470.32 251.594 191.789 71.47 235.147-763.986 419.918-821.059 184.771-57.072 398.763 652.303 754.833 554.193 356.07-98.11 431.41-498.638 472.16-513.116M-548.425 1068.35s205.465-115.931 416.988-201.299c211.523-85.368 276.725 167.109 466.149 236.919 189.424 69.8 232.279-741.865 416.864-795.163 183.708-53.563 396.794 633.509 753.934 531.89 357.13-101.619 436.98-485.455 483.18-502.116M-549.647 1066.07s208.786-111.1 417.758-194.367C77.084 788.436 142.764 1026.7 328.947 1094.56c186.183 67.87 230.021-718.602 412.932-769.533 182.912-50.931 394.831 614.716 752.151 509.322 357.32-105.395 442.56-472.273 493.33-491.381M-549.992 1064.05s211.495-107.406 418.794-188.307c207.299-80.9 272.846 141.997 455.788 207.917 182.941 65.93 226.886-695.604 409.001-743.903 182.114-48.299 392.859 595.923 751.249 487.019 358.38-108.903 448.14-459.089 504.09-479.502M-550.949 1060.89s215.082-103.45 419.565-181.372C73.099 801.596 139.39 1009.39 319.356 1072.5c179.966 63.11 223.752-672.611 405.07-718.278 181.317-45.667 390.014 576.864 750.344 464.717 360.32-112.148 453.72-445.907 515.12-468.502M-552.171 1058.6s218.403-98.609 420.601-175.307c201.933-75.821 269.844 117.137 445.692 178.047 176.724 61.17 221.76-650.23 400.873-691.776 179.112-41.545 388.055 558.072 748.825 441.272 360.78-116.8 460.18-432.459 525.88-456.624M-553.393 1056.31s221.113-94.911 421.372-168.365c199.382-73.72 267.771 105.02 441.52 163.375 173.749 58.35 218.626-627.234 397.819-665.882C886.51 346.789 1093.4 924.715 1455.24 804.406c361.84-120.308 465.76-419.276 536.9-445.623M-554.35 1053.15s224.435-90.077 422.143-161.43c197.709-71.353 265.698 92.899 436.206 149.31 170.508 56.42 215.492-604.234 393.888-640.25 178.395-36.016 384.123 520.485 746.143 396.401 362.02-124.084 471.34-406.094 547.66-433.746M-555.572 1050.87s228.021-86.123 423.179-155.375 263.891 79.901 431.158 134.375C466.032 1084.35 512 448.895 688.722 415.245 865.443 381.595 1070 916.671 1433.96 789.343c363.96-127.327 476.92-392.911 558.69-422.745M-556.794 1048.58s231.608-82.16 423.95-148.433c192.607-67.151 261.818 67.78 426.109 119.443 164.291 51.66 210.366-558.863 386.026-589.003C854.95 400.447 1058.6 913.22 1423.63 782.383c365.02-130.837 482.49-379.728 569.71-411.745M-558.016 1046.29s234.052-77.584 424.986-142.368c190.668-63.907 260.011 54.782 421.061 104.498 161.05 49.72 207.232-535.86 382.095-563.368 174.862-27.508 377.344 463.84 742.554 329.228 365.21-134.612 488.07-366.546 579.6-400.133M-558.972 1043.13s237.638-73.628 425.756-135.433c188.118-61.806 257.939 42.661 416.89 89.83 157.809 47.783 204.975-512.603 378.163-537.745 173.189-25.141 375.373 445.047 741.913 306.048 366.54-138.998 493.66-353.363 590.63-389.131M-559.318 1041.11s240.959-68.791 426.527-128.496c185.568-59.704 256.132 29.663 411.576 75.771 154.834 44.965 201.841-489.608 375.109-511.852 173.269-22.244 373.406 426.254 740.136 283.48 366.72-142.773 500.11-339.915 601.38-377.254M-560.54 1038.83s243.669-65.103 427.563-122.441c183.894-57.338 254.06 17.542 406.528 60.833C426.02 1020.51 473.4 509.998 644.729 490.998c171.329-19.001 370.571 407.195 739.231 261.177 368.66-146.017 505.42-325.855 612.41-366.253M-561.497 1035.66s247.256-61.137 428.335-115.496c181.343-55.237 253.129 4.809 401.48 45.896 148.35 41.09 196.714-444.229 367.246-460.597 170.532-16.368 368.596 388.402 738.326 238.875s511.01-312.673 623.17-354.376M-562.719 1033.38s250.577-56.306 429.371-109.441c178.527-52.259 251.056-7.312 396.431 30.958 146.252 38.536 193.58-421.233 363.316-434.969 169.735-13.737 366.899 368.731 736.551 216.307 369.64-152.424 516.58-299.49 634.19-343.375m-2561.081 638.23s253.287-52.607 430.141-102.499c176.854-49.892 249.25-20.31 392.261 16.287 143.01 36.596 191.322-397.973 359.384-409.343 168.673-10.226 364.933 349.939 735.905 193.128 370.98-156.811 522.17-286.307 644.96-331.498M-565.163 1028.81s256.608-47.776 430.912-95.567c174.304-47.791 247.177-32.431 387.212 1.349 139.769 34.657 188.454-375.854 356.33-383.449 167.875-7.595 362.09 330.88 734.129 170.559 372.04-160.32 527.74-273.124 655.1-320.762m-2564.64 624.7s260.195-43.81 431.948-89.499c171.754-45.69 245.371-45.429 381.899-12.711s185.32-352.859 352.398-357.822c167.079-4.963 360.124 312.087 733.225 148.257 373.1-163.83 533.32-259.942 666.13-309.762M-567.342 1023.36s262.905-40.122 432.719-82.567c170.08-43.323 243.298-57.55 376.85-27.648C375.78 943.046 425.29 583.547 590.429 581.828c165.14-1.719 358.157 293.293 732.321 125.954 374.16-167.339 539.78-246.494 676.89-297.884M-568.564 1021.07s266.226-35.281 433.755-76.502c167.264-40.345 241.491-70.548 371.802-42.586 130.311 27.963 179.928-306.602 344.271-305.689 164.343.913 356.19 274.5 730.536 103.386 374.35-171.114 546.5-233.923 688.79-286.618M-569.52 1017.91s269.812-31.324 434.525-69.568c164.714-38.243 239.418-82.668 367.631-57.257 128.212 25.411 177.059-284.484 340.34-280.062 163.28 4.423 354.223 255.707 729.904 80.206 375.67-175.5 550.93-220.128 698.67-275.005M-569.866 1015.89s272.522-27.631 435.562-63.507c163.04-35.877 238.488-95.402 362.583-72.195 124.094 23.207 174.802-261.224 337.285-254.169 162.483 7.054 351.38 236.648 728.116 57.638 376.74-179.01 556.52-206.946 709.7-264.005M-571.088 1013.6s275.843-22.789 436.333-56.565c160.49-33.776 236.415-107.522 357.268-86.255 120.854 21.268 171.668-238.228 333.354-228.542 161.687 9.687 349.414 217.856 727.213 35.336 377.81-182.519 562.1-193.763 720.46-252.127M-572.31 1011.32s279.43-18.836 437.103-49.633C22.466 930.89 99.401 841.167 217.014 860.495c117.612 19.329 168.533-215.233 329.423-202.914 160.889 12.318 347.447 199.062 726.313 13.033 378.86-186.029 567.67-180.58 731.48-241.126M-573.267 1008.16s281.874-14.267 438.14-43.575c156.265-29.308 232.536-132.642 347.172-116.13 114.637 16.512 166.542-192.849 325.492-177.287 158.95 15.563 345.481 180.269 724.533-9.534 379.05-189.804 573.25-167.398 741.37-229.514m-2577.929 573.75s285.461-10.304 438.91-36.633c153.45-26.33 230.464-144.762 343.001-130.802 111.396 14.573 163.408-169.853 321.561-151.659 158.153 18.195 342.638 161.211 723.627-31.837C1633.6 461.891 1831.44 500.724 2005 436.425M-575.711 1003.58s289.048-6.34 439.947-30.569c150.899-24.228 228.656-157.76 337.952-145.738 109.297 12.022 160.274-146.859 318.507-125.766 157.356 20.826 340.671 142.417 722.115-55.283 381.44-197.7 585.29-140.767 763.42-207.513M-576.667 1000.42s292.368-1.506 440.717-23.634C12.399 954.659 90.633 806.905 196.689 816.988 302.744 827.07 354.97 692.513 511.264 716.849c156.293 24.336 338.705 123.624 721.206-77.585 382.51-201.209 590.87-127.585 774.18-195.635M-577.89 998.136s295.079 2.184 441.488-16.698c146.41-18.883 224.777-182.879 327.591-174.735 102.814 8.143 155.147-101.48 310.644-74.512 155.497 26.968 336.738 104.831 720.307-99.888 383.56-204.718 596.45-114.401 785.2-184.634M-579.112 995.85s298.4 7.02 442.524-10.637C7.537 967.554 86.993 790.479 185.955 795.54c99.838 5.327 152.013-78.484 306.713-48.884 154.7 29.6 334.161 84.895 718.522-122.455 384.37-207.351 602.03-101.22 795.97-172.757M-579.191 992.952s301.985 10.978 443.294-3.699C5.412 974.572 85.877 781.521 182.474 784.909c96.598 3.387 149.756-55.224 302.782-23.257 153.026 31.966 332.194 66.102 717.624-144.758 385.42-210.86 607.6-88.037 806.99-161.757m-2590.284 535.53s304.696 14.673 444.331 2.361C3.552 980.714 83.619 773.175 177.24 773.746c93.622.571 146.888-33.105 299.728 2.636 152.84 35.742 330.227 47.309 716.102-168.203 385.88-215.512 613.19-74.854 817.75-149.878m-2592.456 530.08s308.017 19.509 445.102 9.3C.551 987.467 81.36 764.829 171.475 764.338c90.381-1.368 143.753-10.11 295.531 29.141 151.778 39.251 328.261 28.516 715.204-190.506 386.94-219.021 618.76-61.671 827.9-139.143M-582.858 986.096s311.604 23.474 445.872 16.234c134.27-7.232 215.822-244.97 302.961-248.277 87.14-3.307 141.496 13.151 291.6 54.769 150.104 41.617 326.295 9.722 714.295-212.809 388-222.531 625.23-48.223 838.66-127.265M-583.814 982.933s314.048 28.047 446.908 22.297c132.861-5.746 214.015-257.971 297.913-263.217 83.898-5.246 138.361 36.147 287.669 80.396 149.307 44.249 323.451-9.336 712.514-235.376 389.07-226.041 630.8-35.041 849.69-116.265M-585.036 980.647s317.634 32.003 447.679 29.233c130.044-2.76 211.942-270.089 293.741-277.886 80.923-8.063 135.493 58.264 283.737 106.023 148.511 46.881 321.485-28.13 711.609-257.679 390.13-229.55 636.39-21.858 860.71-105.265M-586.259 978.362s321.221 35.958 448.716 35.298c128.37-.4 210.135-283.093 288.693-292.829 77.681-10.002 133.235 81.525 280.683 131.916 147.448 50.391 319.518-46.922 710.097-281.124 390.58-234.202 641.96-8.675 871.47-93.387M-587.215 975.199s323.665 40.531 449.486 42.231c125.82 1.7 208.94-294.943 283.38-306.884 74.44-11.941 130.101 104.52 276.751 157.543 146.651 53.023 317.552-65.715 709.198-303.426 391.64-237.711 647.54 4.507 882.49-82.386M-588.437 972.913s327.252 44.497 450.257 49.167c123.004 4.68 207.132-307.939 278.331-321.819 71.199-13.88 126.967 127.516 272.821 183.171 145.853 55.655 314.708-84.775 708.288-325.73s653.12 17.69 893.26-70.508M-588.783 970.893s330.573 49.327 451.293 55.227c121.331 7.05 205.06-320.06 273.284-336.756 69.099-16.431 124.974 149.899 268.889 208.798 143.914 58.899 312.742-103.567 706.507-348.297 393.77-244.73 658.7 30.872 904.28-59.508m-2605.475 478.25s333.283 53.023 452.94 62.433c118.781 9.15 203.254-333.06 268.236-351.696 65.858-18.37 121.84 172.895 264.958 234.426 143.118 61.531 310.776-122.361 705.601-370.6 394.83-248.239 665.16 44.321 914.17-47.895M-590.961 965.444s336.869 56.986 453.976 68.496c117.108 11.51 201.18-345.184 264.064-366.37 62.617-20.31 118.707 195.89 261.904 260.318 143.197 64.429 308.809-141.153 703.827-393.167 395.01-252.015 670.73 57.503 925.19-36.895M-592.183 963.159s340.19 61.821 454.747 75.431c114.557 13.62 199.373-358.18 258.75-380.428 59.376-22.249 116.449 219.151 257.973 285.946C520.81 1010.9 686.129 784.161 1082.47 527.76c396.35-256.401 676.32 70.686 935.95-25.016M-709.661 990.802s393.946-469.753 871.254-206.469C638.901 1047.62 851.602 373.573 1083 241.544c231.39-132.03 374.25 404.482 689.1 556.32C2086.95 949.703 2125.52-28 2125.52-28M-708.599 987.293S-318 522.273 156.333 782.74c474.332 260.47 685.253-404.537 914.357-535.343 229.11-130.805 376.28 404.136 691.77 547.547C2077.95 938.356 2125.47-8.86 2124.54-21.593M-706.66 984.049s386.641-461.43 858.609-202.636C623.917 1040.21 831.305 383.71 1060.15 253.782c228.84-129.929 378.56 402.911 695.03 539.916 317.35 137.27 370.24-783.419 369.52-809.496M-705.597 980.539s382.416-456.961 851.409-200.984C614.805 1035.53 820.413 388.074 1046.97 259.37c226.56-128.705 380.58 402.565 698.57 531.408 318.59 129.986 378.95-761.625 378.18-800.17M-703.658 977.296s379.069-452.228 844.821-198.19c466.628 254.305 669.845-385.259 894.997-512.474 225.15-127.215 382.87 401.342 701.83 523.778C2056.96 912.845 2124.44 48.293 2123-3.861M-701.718 974.05s374.845-447.76 838.497-196.274c463.653 251.484 664.214-379.3 887.951-505.026 223.75-125.726 384.89 400.995 705.11 516.147C2050.05 904.049 2124.65 66.555 2122.89 2.81M-700.656 970.543s370.621-443.293 832.175-194.357C591.93 1025.73 790.711 403.983 1013.31 278.869c222.6-125.114 386.91 400.649 707.76 507.374 320.85 106.725 403.79-701.426 400.5-779.046M-698.982 968.175s366.662-439.702 824.709-191.829C584.04 1023.34 780.164 410.368 1000.48 286.477c220.32-123.89 389.19 399.425 711.02 499.743 321.84 100.319 411.9-680.774 408.82-771.739M-697.92 964.666s363.316-434.969 818.387-189.912c455.071 245.056 648.805-360.022 868.589-482.158 219.784-122.135 391.214 399.079 714.294 492.113 323.08 93.034 420-660.123 416.86-763.555M-695.98 961.422s359.091-430.502 812.064-187.995C569.056 1015.93 759.868 420.504 978.51 298.981c218.64-121.524 393.49 397.854 717.82 483.604 324.34 85.75 428.38-640.349 424.31-756.514M-694.041 958.178s354.867-426.034 804.598-185.467c449.732 240.569 638.153-346.965 855.386-467C1183.18 185.677 1361.46 703.22 1687.04 781.685c325.57 78.466 436.47-619.697 432.35-748.33M-692.978 954.67s351.52-421.301 798.275-183.55c446.756 237.75 633.397-340.744 849.223-459.29 215.83-118.545 397.53 397.162 724.63 467.466 325.95 70.916 444.57-599.046 440.66-741.023M-691.039 951.425s347.562-417.711 791.953-181.634c444.391 236.079 628.642-334.52 842.448-452.719 213.808-118.199 399.818 395.938 727.018 459.57 327.2 63.632 452.68-578.395 448.11-733.982M-689.977 947.916s343.338-413.243 784.754-179.983C536.192 1001.19 717.52 440.247 931.062 322.925 1144.6 205.604 1332.9 718.517 1661.35 774.865c328.44 56.347 461.05-558.622 456.15-725.798M-688.037 944.672s339.113-408.775 778.164-177.189C529.178 999.07 708.116 446.019 919.372 329.922c211.258-116.098 404.118 394.367 733.818 443.431 329.7 49.063 470.03-537.704 463.6-718.757M-686.098 941.428s335.766-404.042 771.842-175.272c436.075 228.77 613.233-315.242 823.082-429.85 209.844-114.608 406.144 394.021 737.084 435.8 330.94 41.78 478.14-517.052 471.65-710.572M-685.035 937.918s331.808-400.451 764.642-173.62C512.44 991.129 686.943 455.891 895.648 341.894 1104.35 227.898 1303.81 735.569 1636 770.064c331.32 34.229 486.24-496.402 479.96-703.266M-683.362 935.552s327.584-395.984 758.054-170.827C505.162 989.883 677.273 462.54 884.57 350.033c207.3-112.507 411.32 392.717 743.89 419.662 332.56 26.945 494.6-476.628 487.4-696.225M-682.299 932.042s324.237-391.25 751.73-168.909C496.927 985.473 667.258 467.17 872.27 355.887c205.01-111.284 413.34 392.37 746.28 411.765 332.93 19.396 502.71-455.976 495.45-688.04M-680.36 928.798s320.013-386.783 745.408-166.993C490.443 981.595 657.241 471.8 861.723 362.271c204.487-109.529 415.627 391.146 749.807 403.258 334.19 12.111 510.82-435.325 503.77-680.734M-678.421 925.554S-362.632 543.239 59.522 761.09c422.154 217.85 587.173-282.906 789.635-392.088 202.463-109.182 417.643 390.8 753.073 395.627 335.44 4.827 519.19-415.551 510.94-672.815M-677.358 922.045s311.83-378.725 731.62-162.548c419.79 216.177 582.417-276.683 783.472-384.376C1038.79 267.428 1257.4 765.574 1594.08 763.117c336.68-2.457 528.16-394.634 519.25-665.508M-675.419 918.8s308.483-373.991 725.297-160.63c416.814 213.36 576.785-270.726 777.309-376.665 200.523-105.938 421.943 389.23 759.873 379.489 337.93-9.742 536.27-373.983 526.7-658.468M-674.356 915.292s304.259-369.524 718.097-158.98C457.58 966.856 615.506 492.685 814.01 387.093c198.24-104.714 423.97 388.883 763.14 371.858 339.18-17.025 544.38-353.332 534.75-650.283m-2784.317 803.38s300.035-365.056 711.51-156.186C450.565 964.732 606.1 498.458 803.196 394.355c197.093-104.103 426.253 387.659 765.533 363.961 339.29-23.697 552.74-333.557 543.06-642.976M-670.478 908.804s295.811-360.589 705.187-154.269c408.498 206.053 561.376-251.448 757.065-354.061C987.462 297.86 1220.04 787.787 1560.84 755.927c340.8-31.859 560.85-312.906 550.24-635.058M-669.415 905.294s292.729-356.732 697.987-152.618c406.134 204.38 556.356-244.347 750.902-346.349C974.02 304.326 1209.76 793.294 1551.81 754.15c342.05-39.143 568.95-292.255 558.55-627.751M-667.742 902.928s288.506-352.265 691.399-149.824c402.892 202.441 551.601-238.125 743.862-338.903C959.78 313.423 1200.09 799.944 1543.39 753.516c343.29-46.428 577.05-271.604 566.6-619.567m-2776.669 765.47s284.282-347.798 685.075-147.908C419.19 951.401 564.365 519.343 756.095 420.32c191.73-99.023 434.595 385.396 779.135 331.684 344.55-53.712 585.42-251.83 574.04-612.526M-664.74 896.175s280.935-343.064 677.876-146.257C410.078 946.726 554.35 523.973 743.795 426.173 933.24 328.374 1180.67 810.346 1526.2 750.227c345.53-60.119 594.4-230.913 582.35-605.219M-662.8 892.931s276.71-338.597 671.553-144.34c394.842 194.257 536.192-218.846 724.495-316.033 188.303-97.188 438.892 383.826 785.062 315.28 346.16-68.546 602.5-210.262 589.53-597.301M-661.738 889.421S-388.986 554.415 3.227 747.876c392.478 192.583 530.56-212.89 717.455-308.588 186.895-95.698 440.918 383.48 788.328 307.65 347.41-75.83 610.61-189.61 597.84-589.994M-659.798 886.177S-391.271 555.639-1.157 746.549C388.08 937.193 524.648 539.882 710.135 445.673c185.487-94.209 443.205 382.256 791.595 300.019 348.4-82.237 618.98-169.837 605.89-581.81M-658.736 882.668S-393.555 556.863-7.294 744.69C379.844 932.783 513.49 545.123 696.958 451.261c183.468-93.863 445.222 381.909 795.132 291.511 349.91-90.398 627.08-149.185 613.33-574.769M-656.797 879.424S-395.84 558.087-11.943 744.24c383.897 186.154 515.152-193.61 698.089-285.717 182.937-92.108 448.384 380.951 798.394 283.88 350.02-97.071 635.19-128.534 621.65-567.462M-654.857 876.18s256.998-317.747 638.53-133.267C364.595 926.251 494.07 555.526 675.6 464.907c181.528-90.619 450.4 380.605 801.93 275.372 351.53-105.232 643.28-107.882 628.82-559.543M-653.795 872.671s253.651-313.014 631.331-131.616c378.557 181.664 505.642-181.165 684.886-270.56C841.666 381.1 1114.84 850.753 1466.74 737.971c351.9-112.781 651.66-88.108 637.14-552.236M-652.121 870.304s249.427-308.546 624.742-128.822C348.203 920.33 472.365 567.151 651.344 478.634c178.978-88.517 454.706 379.034 807.586 259.846 352.89-119.189 660.64-67.192 645.19-544.053M-651.059 866.795s245.203-304.079 618.42-126.905C340.578 917.063 462.35 571.781 639.044 484.487c176.693-87.293 456.726 378.688 811.116 251.338 354.4-127.35 668.74-46.54 652.63-537.011M-649.119 863.551S-408.14 563.94-37.899 738.297C332.342 912.654 452.334 576.411 627.62 490.606c175.285-85.804 459.01 377.464 814.39 243.707s677.11-26.766 660.94-529.704M-647.18 860.307S-409.283 564.552-42.283 736.97c367 172.418 484.336-155.052 658.479-240.245 174.144-85.192 461.024 377.118 817.654 236.077s685.21-6.115 668.99-521.521M-646.117 856.798S-412.444 565.51-47.809 736.254c364.636 170.745 479.581-148.829 652.316-232.532C777.242 420.018 1067.55 880.493 1425.7 731.29c358.14-149.203 693.31 14.536 676.43-514.48M-644.178 853.554s229.449-286.82 591.11-118.892C308.59 902.589 421.755 592.055 592.206 509.575c170.451-82.479 465.333 375.548 823.583 219.672 358.25-155.875 701.42 35.188 684.48-506.295M-643.116 850.044S-417.89 567.693-58.329 733.069c359.561 165.377 469.193-136.65 639.112-217.375 169.92-80.725 467.347 375.201 827.117 211.164 359.76-164.036 709.52 55.839 691.91-499.254M-641.176 846.801s221.878-277.619 578.197-114.182c356.32 163.438 464.173-129.55 632.073-209.929 168.777-80.113 469.636 373.978 830.376 203.534 360.75-170.444 718.77 75.878 700.24-491.948M-639.237 843.557s217.92-274.029 571.875-112.265c353.344 160.621 459.417-123.328 625.909-202.217 166.492-78.889 471.653 373.631 833.643 195.903 362-177.728 726.88 96.529 708.29-483.764M-638.175 840.047s213.696-269.56 564.676-110.613 453.785-117.371 619.746-194.506c165.961-77.134 473.673 373.285 837.183 187.395 363.51-185.889 734.97 117.181 715.72-476.722M-636.235 836.803s210.348-264.827 558.352-108.696c348.005 156.13 448.765-110.272 612.706-187.06 163.942-76.788 475.957 372.061 840.447 179.765 364.49-192.297 743.08 137.831 723.78-468.539M-635.438 834.171s206.124-260.36 551.764-105.903 444.009-104.049 606.808-180.225c162.8-76.176 477.976 371.714 842.836 171.869 364.87-199.846 751.45 157.606 732.09-461.232M-633.499 830.927s201.901-255.892 544.565-104.251c342.664 151.64 438.376-98.092 599.768-172.779 161.391-74.687 479.995 371.368 846.376 163.36 366.37-208.007 759.55 178.257 739.52-454.19M-631.56 827.683s197.942-252.301 538.242-102.335c340.3 149.967 433.356-90.992 593.605-165.067 160.249-74.075 482.28 370.144 849.643 155.73 367.36-214.414 767.65 198.908 747.58-446.007m-2728.007 554.17s194.595-247.569 531.653-99.541 428.601-84.77 586.565-157.621c157.965-72.851 484.299 369.797 853.169 147.222 368.88-222.576 775.76 219.56 755.02-438.966m73.03-73.665s-174.73 42.873-379.18 142.832c-204.46 99.959-146.78 310.895-287.65 488.528-140.01 177.897-446.79-259.788-614.794-172.737C719.31 747.277 786.806 1283 505.15 1473.56c-281.656 190.55-452.78-25.04-452.78-25.04M2168.6 199.583s-176.06 47.26-377.36 146.26c-201.29 99.001-149.56 304.304-287.62 478.958-138.06 174.655-439-250.726-604.986-164.022-165.987 86.704-103.38 613.281-387.401 802.171-284.02 188.88-453.683-15.73-458.252-13.28M2169.13 197.828s-177.12 50.769-376.66 150.301c-199.54 99.531-151.21 297.1-287.6 469.388-137 171.145-430.95-242.542-595.45-154.43C744.921 751.2 802.294 1266.61 516.786 1454.09c-285.509 187.48-454.32-7.3-462.583-2.14M2169.66 196.074s-178.45 55.155-375.71 153.463c-197.25 98.308-153.12 290.774-288.44 459.553-135.33 168.779-422.9-234.358-585.649-145.715-162.746 88.644-110.607 592.895-397.258 780.985-286.65 188.09-455.488 2.88-468.32 10.49M2169.31 194.053s-179.51 58.666-374.74 156.627c-195.24 97.961-154.77 283.571-288.43 449.983-133.38 165.535-414.85-226.174-576.104-136.122-161.258 90.051-113.476 583.409-402.491 769.819-289.016 186.42-455.516 12.45-473.793 22.24M2169.84 192.299s-180.83 63.052-372.91 160.055c-192.08 97.003-156.68 277.245-288.4 440.413-131.71 163.168-406.18-216.847-566.3-127.408-160.116 89.44-117.222 573.651-407.725 758.661-290.503 185.01-456.684 22.63-478.389 34.26M2169.5 190.279s-181.9 66.561-372.22 164.095c-190.33 97.534-158.6 270.919-288.37 430.843-129.78 159.925-398.14-208.663-556.505-118.692-158.362 89.97-120.968 563.895-412.959 747.495-291.991 183.6-457.587 31.94-483.861 46.01M2170.03 188.524s-184.11 70.683-371.27 167.258c-187.16 96.576-161.12 263.451-288.95 420.131-127.84 156.68-390.09-200.479-546.964-109.1-156.875 91.379-124.715 554.147-418.459 737.207-293.744 183.07-458.49 41.25-488.457 58.03M2169.42 187.381s-185.17 74.192-370.31 170.421c-185.14 96.229-163.03 257.125-288.93 410.561-125.9 153.437-382.04-192.295-536.282-100.12-154.245 92.176-127.584 544.657-422.816 726.317-295.233 181.66-459.393 50.54-493.93 69.78M2169.95 185.626s-186.5 78.579-368.74 174.727c-182.25 96.148-164.68 249.922-288.9 400.992-124.23 151.069-373.12-183.846-526.749-90.528-153.633 93.318-131.33 534.903-428.05 715.153s-461.173 59.58-500.279 81.26M2170.48 183.872s-187.56 82.088-367.78 177.889c-180.23 95.802-166.6 243.596-288.88 391.422-122.28 147.826-365.33-174.784-516.942-81.813-151.614 92.972-134.811 524.27-433.55 704.87-298.739 180.6-460.587 70.29-503.997 93.55M2170.14 181.852s-188.89 86.474-366.83 181.052c-177.95 94.578-168.24 236.393-289.73 381.587-121.49 145.193-357.28-166.601-507.14-73.098-149.858 93.502-137.678 514.777-438.782 693.707-301.103 178.92-461.49 79.6-509.47 105.3M2170.67 180.097s-189.95 89.984-366.14 185.093-170.16 230.067-289.7 372.016c-119.55 141.95-349.23-158.416-497.6-63.505-149.251 94.645-141.428 505.029-443.143 682.809-301.714 177.78-462.393 88.9-514.33 118.19M2170.32 178.077s-191.28 94.371-364.3 188.521c-173.03 94.151-172.95 223.476-289.68 362.447-116.73 138.971-340.3-149.967-487.79-54.791-147.5 95.176-145.177 495.276-448.645 672.526-303.468 177.25-463.296 98.21-519.803 129.94M2170.85 176.322s-192.34 97.88-363.35 191.684c-171 93.804-174.59 216.273-290.52 352.612-115.93 136.339-332.52-140.906-478.26-45.199-145.742 95.708-148.041 485.781-453.874 661.361-305.832 175.58-463.323 107.78-525.276 141.7M2170.51 174.302s-194.55 102.001-362.66 195.724c-168.11 93.723-176.5 209.947-290.5 343.042-113.99 133.096-324.46-132.721-468.45-36.483-143.993 96.238-151.792 476.025-459.112 650.195-307.321 174.17-464.492 117.96-529.872 153.72M2171.04 172.547s-195.61 105.511-361.7 198.888c-166.1 93.376-178.15 202.743-290.47 333.472-112.33 130.728-316.42-124.538-458.92-26.892-142.503 97.647-155.271 465.395-463.468 639.305-308.197 173.9-465.394 127.26-535.344 165.46M2170.69 170.527s-196.93 109.898-359.87 202.316c-163.8 92.153-180.06 196.417-290.44 323.902-110.38 127.485-308.37-116.353-449.11-18.176-141.629 97.912-158.143 455.911-468.97 629.011-310.827 173.11-466.298 136.57-539.94 177.49m2108.6-1315.42s-198 113.407-359.18 206.356c-160.91 92.072-181.71 189.214-291.29 314.067-108.45 124.241-299.71-107.027-439.31-9.461-139.876 98.442-161.89 446.158-474.205 617.848-312.315 171.7-467.2 145.88-545.412 189.24M2171.49 167.895s-199.33 117.794-358.22 209.519c-158.89 91.725-184.5 182.623-291.27 304.497-106.77 121.875-291.65-98.842-429.77.131-138.121 98.974-165.634 436.398-479.437 606.688-313.802 170.29-467.227 155.45-550.884 200.99M2171.15 165.875s-200.4 121.303-357.27 212.682c-156.87 91.379-186.41 176.297-291.24 294.927-104.83 118.631-283.61-90.658-419.97 8.846-136.367 99.505-168.503 426.91-484.936 596.41-316.433 169.49-468.395 165.62-555.48 213M2171.68 164.12s-201.72 125.69-356.58 216.723c-154.85 91.032-188.06 169.093-291.21 285.357-103.16 116.264-275.56-82.474-410.44 18.438C978.843 784.674 941.207 1101.8 624.163 1270.15 307.119 1438.5 154.865 1445.08 63.211 1494.9M2171.33 162.1s-202.78 129.199-354.74 220.151c-151.96 90.951-189.97 162.767-292.07 275.522-102.09 112.755-266.89-73.148-400.62 27.153-134.005 101.178-175.998 407.404-494.53 574.344-318.532 166.95-470.201 184.24-565.548 236.78M2171.86 160.345s-204.11 133.586-353.78 223.314c-149.68 89.728-191.62 155.565-292.04 265.953-100.42 110.388-258.85-64.964-391.09 36.745-132.25 101.709-178.6 397.033-500.028 564.063-321.427 167.02-471.104 193.54-571.02 248.53M2171.52 158.325s-206.05 136.83-353.1 227.354c-146.78 89.647-193.53 149.239-291.75 255.506-98.21 106.266-250.79-56.78-381.28 45.46-130.5 102.24-182.346 387.285-505.261 552.895-322.915 165.62-471.131 203.11-576.493 260.28M2172.05 156.571s-207.38 141.216-352.14 230.516c-144.76 89.301-196.06 141.77-291.72 245.936-95.67 104.166-242.74-48.596-371.48 54.175-128.74 102.771-186.094 377.532-509.621 542.002C323.563 1393.67 175.056 1441.61 66 1501.5M2172.58 154.816s-208.44 144.726-350.3 233.945c-142.75 88.954-197.98 135.444-292.58 236.1-94.6 100.657-234.69-40.411-361.94 63.768-126.99 103.302-188.962 368.041-514.853 530.841-325.891 162.8-473.202 222.59-586.561 284.05M2172.23 152.796s-209.76 149.112-349.61 237.985c-139.84 88.873-199.62 128.241-292.55 226.531-92.92 98.289-226.03-31.085-352.14 72.482-126.11 103.567-192.703 358.286-520.347 520.556-327.645 162.27-474.106 231.9-591.158 296.06M2172.77 151.041s-210.83 152.622-348.66 241.149c-137.83 88.526-201.53 121.915-292.52 216.96-90.99 95.046-217.98-22.9-342.61 82.075C1064.36 796.2 992.532 1039.76 663.4 1200.62c-329.132 160.86-475.008 241.2-596.895 308.69M2172.15 149.898S1960 306.907 1824.45 394.21c-135.54 87.302-203.18 114.711-292.49 207.391-89.32 92.679-209.93-14.717-332.8 90.789-122.87 105.507-199.06 338.16-529.942 498.49-330.885 160.33-475.034 250.78-602.367 320.45M2172.69 148.144s-213.23 160.518-345.87 247.739c-132.65 87.222-205.09 108.386-293.35 197.556-87.37 89.435-201.88-6.533-323.26 100.382-121.11 106.037-202.8 328.409-535.44 488.209-332.639 159.8-475.937 260.08-606.963 332.46M2172.34 146.123s-214.55 164.905-345.18 251.781c-130.36 85.997-206.74 101.182-293.31 187.985-86.58 86.804-193.23 2.795-313.46 109.097-120.24 106.303-206.55 318.654-540.678 477.044-334.127 158.39-477.107 270.26-612.436 344.22M2172.87 144.369s-215.61 168.414-344.22 254.943c-127.73 86.794-209.53 94.591-293.29 178.416-84.64 83.559-185.17 10.978-303.66 117.812-118.48 106.833-209.41 309.17-545.905 465.88-336.491 156.72-478.009 279.57-617.031 356.24M2173.4 142.614S1955.59 315.15 1830.14 400.72c-125.71 86.448-211.44 88.265-294.14 168.581-82.7 80.315-177.12 19.162-294.12 127.404-117 108.242-213.16 299.413-551.144 454.725-337.979 155.3-478.912 288.86-622.504 367.98M2173.06 140.594s-218.88 176.045-341.7 262.412c-122.81 86.366-213.09 81.062-294.11 159.011-80.77 77.071-169.08 27.346-283.44 136.384C1139.44 807.439 1036.9 988.06 698.042 1143.1c-338.856 155.05-478.939 298.44-627.976 379.74M2173.59 138.839s-220.21 180.432-340.74 265.575-215 74.736-294.09 149.441c-79.09 74.705-160.41 36.673-273.9 145.977-113.49 109.304-219.78 280.17-561 433.538-341.221 153.37-479.842 307.74-632.572 391.76M2173.24 136.819s-221.27 183.941-339.78 268.738c-118.51 84.796-216.92 68.41-294.06 139.871-77.15 71.461-152.36 44.857-264.1 154.692-111.74 109.834-223.26 269.538-566.233 422.38-342.974 152.83-481.011 317.92-638.045 403.5M2173.77 135.064s-222.59 188.328-339.09 272.778c-116.49 84.45-219.44 60.942-294.91 130.036-75.48 69.095-144.31 53.042-254.56 164.284-110.25 111.243-226.74 258.907-571.468 411.218-344.727 152.3-481.913 327.22-642.64 415.52M2173.43 133.044s-223.66 191.837-337.26 276.206c-113.6 84.37-221.35 54.617-294.89 120.467-73.53 65.85-136.26 61.225-244.75 172.999-108.5 111.774-229.88 250.295-576.093 401.194-346.215 150.9-482.816 336.53-648.113 427.28M2173.69 132.167s-224.98 196.224-336.3 279.369c-111.31 83.145-223 47.413-294.86 110.897-71.86 63.483-128.47 70.286-234.95 181.714-106.48 111.427-233.62 240.54-581.326 390.033-347.702 149.49-482.842 346.1-653.584 439.03M2173.35 130.147S1947.3 329.88 1837.74 413.556c-109.56 83.676-224.65 40.21-294.57 100.45-69.92 60.239-119.55 78.736-225.42 191.306-105.86 112.57-237.36 230.786-586.82 379.748-349.456 148.96-483.745 355.4-658.18 451.04M2173.88 128.392s-228.26 203.855-334.65 286.572c-106.4 82.718-226.56 33.884-295.42 90.615-68.86 56.73-111.5 86.92-215.62 200.021-104.11 113.101-240.23 221.298-591.177 368.85C386.07 1222 252.099 1440.04 73.36 1537.25M2174.41 126.637s-229.32 207.364-332.82 290.001c-103.5 82.637-228.47 27.558-295.39 81.045-66.92 53.486-103.45 95.104-206.08 209.613-102.62 114.509-243.71 210.666-596.412 357.684C391.011 1212 257.891 1439.87 75.459 1539.8M2174.07 124.617s-230.65 211.751-332.13 294.041c-102.36 82.025-230.39 21.232-295.37 71.475-64.98 50.243-95.67 104.165-196.27 218.328-100.61 114.163-247.47 200.912-601.651 346.529-354.185 145.61-486.72 384.19-673.987 487.44M2174.6 122.863s-231.71 215.259-331.18 297.203c-99.46 81.944-232.91 13.764-296.21 61.64-63.31 47.876-86.74 112.615-186.74 227.921-99.99 115.305-250.33 191.423-607.145 336.243-356.816 144.81-486.747 393.76-679.194 498.31M2174.25 120.842s-233.04 219.647-330.21 300.367c-97.18 80.721-234.83 7.438-296.2 52.07-61.37 44.632-78.68 120.799-176.93 236.635-98.24 115.837-254.08 181.669-612.379 325.076-358.303 143.41-487.649 403.07-684.054 511.21M2174.78 119.088s-234.1 223.156-329.52 304.407c-95.43 81.251-236.47.234-296.17 42.5-59.69 42.265-70.64 128.983-167.12 245.35-96.49 116.367-257.83 171.915-617.621 313.915-359.791 142-488.552 412.37-689.527 522.96M2174.44 117.068s-235.43 227.542-327.7 307.835c-92.26 80.293-238.38-6.091-296.13 32.93-57.76 39.022-62.59 137.167-157.59 254.943-95 117.776-260.7 162.426-622.242 303.894-361.544 141.47-489.721 422.56-694.123 534.98M2174.97 115.313s-236.49 231.052-326.74 310.998c-90.24 79.947-240.03-13.294-296.99 23.095-56.08 36.655-53.92 146.494-147.78 263.658-93.86 117.164-264.44 152.672-627.475 292.736-363.032 140.06-490.624 431.86-699.596 546.73M2175.5 113.558s-237.82 235.439-326.04 315.039c-87.35 79.865-241.95-19.621-296.97 13.525-54.14 33.411-45.88 154.678-138.24 273.25-92.37 118.572-267.93 142.04-632.713 281.57-364.785 139.528-490.65 441.428-705.068 558.488M2174.89 112.415s-239.76 238.683-325.09 318.202c-85.06 78.642-244.47-27.089-296.94 3.955-53.08 29.902-37.82 162.862-128.44 281.965-90.62 119.103-270.79 132.551-638.207 271.285C418.797 1126.55 294.66 1438.56 76.549 1558.33M2175.42 110.661s-241.09 243.069-323.26 321.63c-83.04 78.295-246.38-33.415-297.78-5.88-51.41 27.535-29.78 171.046-118.64 290.68-88.86 119.633-274.54 122.797-642.567 260.387C425.146 1115.07 300.717 1437.52 78.037 1559.73M2271.94 47.937s-423.74 40.269-714.72 460.746c-290.97 420.478-631.14 254.269-841.44 341.922-210.301 87.654-175.143 417.235-372.952 684.905-197.809 267.67-487.639-143.82-487.639-143.82M2269.31 47.141s-418.22 40.984-707.25 458.217c-289.04 417.234-627.717 252.433-835.999 339.74C516.903 932.14 549.51 1263.83 348.726 1528.68c-200.785 264.85-488.117-129.6-491.173-135.31M2267.55 46.61s-412.69 41.7-700.92 456.301c-288.24 414.601-623.414 250.862-830.553 337.558-207.14 86.695-178.836 419.951-381.719 682.251-202.883 262.3-488.861-114.5-495.582-127.07M2265.53 46.957s-407.16 42.414-693.46 453.771c-286.3 411.358-619.104 249.293-825.101 335.376-205.997 86.084-179.978 420.566-386.979 680.656-207.001 260.1-490.215-100.54-499.116-118.56M2262.9 46.16s-401.63 43.13-686.26 452.121c-284.62 408.991-614.801 247.722-819.921 334.071-205.121 86.349-182.263 421.788-391.097 678.448-208.835 256.67-490.693-86.31-503.525-110.31M2261.15 45.63s-396.11 43.844-679.94 450.203c-283.83 406.359-610.498 246.152-813.599 332.155C564.51 913.99 583.064 1251 372.13 1505.11c-210.933 254.12-491.17-72.09-507.058-101.8M2259.4 45.098s-390.59 44.56-672.48 447.676c-281.89 403.115-606.192 244.581-808.151 329.972-201.959 85.39-185.955 424.504-399.864 675.794-213.909 251.3-491.914-56.99-511.468-93.56M2257.64 44.567s-385.06 45.276-665.27 446.025c-280.22 400.748-601.892 243.011-802.709 327.79-200.816 84.779-187.974 424.848-405.124 674.208-217.15 249.36-493.269-43.04-515.001-85.06M2255.01 43.771s-379.26 45.114-658.68 443.23c-279.42 398.117-598.467 241.176-797.264 325.608-198.798 84.433-189.383 426.331-409.508 672.881-220.126 246.54-493.746-28.82-518.535-76.55M2252.99 44.118s-373.74 45.829-651.48 441.579c-277.75 395.749-594.16 239.605-791.818 323.425-197.655 83.821-191.667 427.558-413.891 671.548-222.225 244-494.49-13.71-522.944-68.3M2251.24 43.587s-368.21 46.544-644.02 439.05c-275.81 392.506-589.86 238.036-785.759 322.387-195.901 84.351-192.809 428.166-418.009 669.346-225.2 241.18-496.72-.03-528.231-60.33M2248.61 42.79s-362.69 47.26-637.7 437.134C1335.9 869.798 1025.36 716.389 830.6 800.128c-194.759 83.74-195.094 429.392-423.269 667.752-228.176 238.36-495.446 14.73-530.011-51.29M2246.86 42.26s-357.17 47.975-630.5 435.482c-273.34 387.507-581.25 234.895-774.867 318.022-193.617 83.128-197.379 430.616-427.654 666.426-230.274 235.81-496.8 28.68-534.42-43.05M2245.1 41.728s-351.63 48.691-623.03 432.955c-271.4 384.263-576.95 233.324-769.419 315.84-192.475 82.515-198.522 431.227-432.037 665.097-233.516 233.87-498.42 43.52-538.831-34.8M2243.35 41.198s-346.11 49.406-616.71 431.037-573.52 231.489-764.24 314.536c-190.721 83.046-200.806 432.449-437.297 663.509-236.491 231.05-498.897 57.74-542.363-26.3M2240.45 41.278S1899.87 91.4 1631.21 469.787c-268.66 378.388-569.22 229.919-757.917 312.619-188.702 82.7-202.214 433.944-441.681 662.184-239.467 228.23-499.375 71.96-546.773-18.06M2238.7 40.748s-335.06 50.836-602.04 426.857c-266.99 376.021-564.92 228.349-752.475 310.437-187.56 82.088-204.499 435.168-446.064 660.848-241.566 225.69-499.853 86.19-550.307-9.54M2236.95 40.217s-329.54 51.552-595.73 424.941c-266.18 373.389-560.6 226.778-747.02 308.254-186.417 81.476-205.641 435.778-450.182 658.648-244.541 222.87-501.473 101.02-554.716-1.3M2234.32 39.42s-324.01 52.268-588.26 422.413-556.3 225.208-741.578 306.072c-185.275 80.864-207.926 437.005-455.443 657.055-247.517 220.05-501.34 116.38-557.372 7.47M2232.56 38.89s-318.48 52.982-581.05 420.761c-262.58 367.778-552 223.638-736.136 303.89-184.133 80.253-210.21 438.229-459.826 655.729-249.616 217.5-502.429 129.46-562.659 15.44M2230.81 38.359s-312.96 53.698-574.47 417.967c-261.51 364.269-547.69 222.067-729.808 301.973-182.113 79.906-211.353 438.841-464.21 654.401-252.857 215.56-504.049 144.29-566.192 23.95M2228.18 37.562S1921.02 91.1 1660.91 453.878c-260.1 362.78-543.39 220.498-724.628 300.669-181.237 80.171-213.638 440.063-468.593 653.073-254.956 213.01-504.527 158.52-570.603 32.2M2226.16 37.909s-301.64 54.251-560.07 414.664c-258.43 360.413-539.96 218.662-719.182 298.487-179.217 79.825-215.045 441.55-473.853 651.48s-505.005 172.74-574.135 40.71M2224.41 37.378s-296.11 54.967-553.48 411.87c-257.37 356.904-535.66 217.092-713.74 296.305-178.076 79.213-217.065 441.897-477.972 649.277-260.907 207.38-505.748 187.84-577.668 49.21M2222.65 36.847s-290.58 55.682-546.28 410.219c-255.69 354.538-531.36 215.522-708.288 294.123-176.933 78.601-218.473 443.391-482.355 647.951-263.883 204.56-507.102 201.79-582.078 57.45M2220.02 36.05s-285.06 56.398-538.81 407.692c-253.76 351.293-527.06 213.951-702.847 291.94-175.79 77.989-220.757 444.608-486.738 646.618-265.982 202.01-507.846 216.9-585.612 65.97M2218.27 35.52s-279.53 57.113-532.49 405.774c-252.96 348.661-522.75 212.381-696.79 290.901-174.037 78.52-222.165 446.105-491.999 645.025-269.834 198.93-508.058 230.24-590.021 74.21M2216.52 34.989s-274.01 57.828-525.03 403.245c-251.02 345.418-518.45 210.811-691.34 288.719-172.897 77.909-224.187 446.447-496.385 643.697-272.198 197.26-509.678 245.08-594.43 82.45M2213.62 35.07s-268.48 58.544-517.83 401.594c-249.34 343.051-514.14 209.24-685.89 286.537-171.755 77.296-226.471 447.669-500.768 642.369-274.297 194.71-510.156 259.3-597.965 90.96M2211.87 34.539s-262.96 59.259-511.51 399.678c-248.55 340.418-510.71 207.404-680.45 284.354-169.73 76.95-227.874 449.159-505.146 641.049-277.273 191.88-510.368 272.64-600.967 97.71M2210.11 34.008s-257.43 59.974-504.04 397.149-506.41 205.835-675 282.173c-168.59 76.338-229.895 449.51-510.143 638.58-280.248 189.07-511.988 287.47-605.907 107.7M2208.36 33.477s-251.9 60.69-496.84 395.498c-244.94 334.808-502.11 204.264-668.68 280.256-166.572 75.992-231.304 450.999-514.528 637.249-283.223 186.25-512.731 302.57-609.44 116.22M2205.73 32.68s-246.38 61.406-490.25 392.705c-244.14 332.176-497.81 202.694-663.5 278.951-165.431 75.38-233.59 452.224-518.912 635.924-285.323 183.7-513.21 316.79-612.974 124.72M2203.98 32.15s-240.86 62.12-483.06 391.053c-242.2 328.932-493.76 202.001-658.05 276.769-164.286 74.767-234.73 452.828-523.294 634.598-288.563 181.76-513.687 331.01-617.117 132.08M2201.96 32.496s-235.33 62.836-475.86 389.402c-240.52 326.566-489.46 200.431-652.6 274.587-163.147 74.156-237.018 454.055-528.557 633.005-291.54 178.94-515.308 345.85-621.528 140.33M2199.33 31.7s-229.54 62.674-469.27 386.607c-239.73 323.934-485.16 198.861-647.16 272.405-161.389 74.687-239.298 455.278-532.936 631.678-293.639 176.39-515.785 360.07-625.061 148.84M2197.58 31.169s-224.01 63.39-462.07 384.956c-237.79 320.69-481.73 197.025-640.84 270.488-159.105 73.463-240.707 456.767-537.055 629.467-296.349 172.71-516.263 374.3-629.471 157.08M2195.82 30.638s-218.48 64.105-454.6 382.428c-236.12 318.323-477.43 195.455-635.66 269.183-158.226 73.729-242.724 457.111-541.437 628.141-298.712 171.03-517.617 388.25-633.003 165.59M2194.07 30.107s-212.96 64.82-448.28 380.511c-235.32 315.691-473.12 193.885-630.21 267.001-157.088 73.117-244.136 458.601-546.701 626.551C266.314 1472.12 50.519 1707.52-68.535 1478M2191.44 29.31s-207.43 65.536-440.81 377.983c-233.39 312.447-468.82 192.315-624.77 264.819-155.945 72.505-246.42 459.828-551.084 625.228-304.663 165.39-518.838 417.57-640.947 182.34M2189.42 29.657s-201.91 66.251-433.61 376.332c-231.71 310.08-464.52 190.744-619.32 262.636-153.929 72.159-247.566 460.435-555.471 623.895-307.905 163.46-519.316 431.79-645.356 190.58M2187.67 29.126s-196.38 66.966-427.29 374.415c-230.91 307.449-460.22 189.174-613 260.72-153.05 72.424-249.848 461.659-560.729 622.299-310.88 160.64-520.936 446.63-648.89 199.09M2185.04 28.33s-190.86 67.682-419.83 371.886c-228.97 304.205-455.91 187.604-607.55 258.538-151.64 70.935-252.132 462.886-565.111 620.976-312.98 158.09-521.414 460.85-652.423 207.6M2183.28 27.799s-185.33 68.397-412.62 370.235c-227.3 301.838-452.48 185.768-602.37 257.234-149.89 71.465-253.277 463.502-569.232 618.772-315.955 155.27-521.892 475.07-656.833 215.84M2181.53 27.268s-179.8 69.112-406.04 367.441c-226.23 298.329-448.18 184.198-596.92 255.051-148.75 70.854-255.561 464.72-573.615 617.44-318.054 152.73-523.246 489.03-660.365 224.35M2178.9 26.472s-174.28 69.827-398.84 365.79c-224.56 295.962-443.87 182.627-591.48 252.869-147.6 70.241-256.963 466.209-578.869 615.849-321.907 149.64-523.99 504.13-664.776 232.59M2177.15 25.94s-168.76 70.544-391.64 364.139c-222.89 293.596-439.57 181.058-585.16 250.953-145.58 69.895-259.249 467.438-583.254 614.528-324.005 147.08-524.467 518.34-668.309 241.09M2175.13 26.287s-163.23 71.259-385.05 361.345c-221.83 290.086-435.27 179.487-579.71 248.77-144.71 70.161-260.396 468.048-587.642 613.198-327.246 145.15-525.822 532.3-672.719 249.34M2173.37 25.756s-157.43 71.097-377.85 359.694C1575.37 673.169 1364.56 563.367 1221 632.915c-143.57 69.549-262.684 469.275-592.029 611.865-329.345 142.6-526.565 547.41-676.252 257.85M2170.74 24.96s-151.9 71.812-370.38 357.165-426.66 176.346-569.08 245.283c-141.55 69.203-264.967 470.492-597.022 609.402-332.055 138.9-527.043 561.62-680.662 266.09M2168.99 24.43s-146.38 72.526-364.06 355.247-422.36 174.777-562.76 243.367c-140.41 68.591-266.107 471.106-601.404 608.076-335.296 136.96-527.52 575.84-684.194 274.6M2167.24 23.898s-140.86 73.243-356.6 352.72c-215.74 279.477-418.93 172.94-558.19 240.919-139.26 67.979-268.391 472.333-605.786 606.743-337.395 134.42-528.875 589.81-688.605 282.84" stroke="url(#paint0_linear_2_3842)" stroke-width=".257" stroke-miterlimit="10"/><defs><linearGradient id="paint0_linear_2_3842" x1="2132.33" y1="-104.732" x2="-299.633" y2="533.204" gradientUnits="userSpaceOnUse"><stop stop-color="#11E9EF"/><stop offset=".149" stop-color="#4B1DC3"/><stop offset=".376" stop-color="#FF97B2"/><stop offset=".538" stop-color="#4319B3"/><stop offset=".705" stop-color="#F737F7"/><stop offset="1" stop-color="#3A14A3"/></linearGradient></defs></svg>