<svg width="85" height="78" fill="none" xmlns="http://www.w3.org/2000/svg"><path opacity=".2" d="M76.999 35.972c0 19-35.05 27.028-54.169 27.028-19.118 0-17.752-48 0-48C40.583 15 77 16.974 77 35.972z" fill="#063AC0"/><path opacity=".2" d="M69.674 17.427C80.226 33.212 55.29 59.53 39.255 70.246 23.222 80.963-2.29 40.314 12.598 30.363c14.889-9.95 46.526-28.723 57.076-12.936z" fill="#063AC0"/><path opacity=".2" d="M74.551 52.34c-9.157 16.635-44 6.613-60.894-2.687-16.895-9.3 7.446-50.661 23.134-42.025 15.688 8.636 46.917 28.079 37.76 44.713z" fill="#063AC0"/><path d="M38.745 28.553h.5-.5zm.517-1.371l.378.327-.378-.327zm4.691.095l-.396.305.396-.305zm.438 1.276h-.5.5zm-8.587 2.937l-.256-.43a.5.5 0 00.503.865l-.247-.435zm-.047.028l.25.433.008-.005-.258-.428zm-.023.013l-.25-.433a.5.5 0 00.498.867l-.248-.434zm-.026.015l.243.438.01-.007-.253-.43zm-.033.02l-.25-.433h-.002l.252.433zm-.152.089l.254.43h.001l-.255-.43zm-1.69.251l-.111.487.111-.487zm-1.92-3.355l.5-.037-.5.037zm3.85-4.076l-.306.395.306-.395zm.114.087l.361-.345a.504.504 0 00-.053-.048l-.309.393zm0 .002l-.361.345c.02.02.042.04.066.057l.296-.402zm.032.023l.306-.395-.006-.005-.3.4zm.087.067l-.307.395c.026.02.054.038.083.053l.224-.448zm.002.002h.5a.5.5 0 00-.5-.5v.5zm0 0h-.5a.5.5 0 00.194.396l.306-.395zm11.542 6.837l.257-.428-.257.428zm.011.007l-.25.433a.5.5 0 00.54-.84l-.29.407zm-3.903-4.62a.5.5 0 00.612.792l-.612-.791zm3.926-2.405l-.305-.396.306.396zm3.85 4.076l-.499-.037.499.037zm-1.92 3.355l.112.488-.111-.488zm-1.69-.251l.254-.431-.253.431zm-.233-.137l-.255.43h.002l.253-.43zm-.061-.037l.257-.428a.5.5 0 00-.257-.072v.5zm0 0l-.278.416a.5.5 0 00.277.085v-.5zm-.002 0l-.37.336c.027.03.058.057.092.08l.278-.417zm-.001-.001l.37-.337a.502.502 0 00-.117-.094l-.253.43zm2.567 6.175l-.13.483a.5.5 0 00.535-.777l-.405.294zm-3.11-.833l.13-.483a.5.5 0 00-.612.354l.483.129zm-.832 3.11l-.447.225a.5.5 0 00.93-.096l-.483-.13zm-9.147 0l-.483.129a.5.5 0 00.93.096l-.447-.225zm-.833-3.11l.483-.13a.5.5 0 00-.613-.353l.13.483zm-3.11.833l-.402-.298a.5.5 0 00.532.781l-.13-.483zm6.376-7.76a.5.5 0 00-.804-.596l.804.595zm12.016-1.842a.5.5 0 100 1v-1zM55 34.243v.5a.5.5 0 00.5-.5H55zm-7.396-.5a.5.5 0 000 1v-1zm-12.022 1a.5.5 0 100-1v1zm-8.582-.5h-.5a.5.5 0 00.5.5v-.5zm4.894-5.19a.5.5 0 100-1v1zm22.468 5.19a.5.5 0 10-1 0h1zm-25.724 0a.5.5 0 10-1 0h1zm7.81-6.19a.5.5 0 100 1v-1zm10.243 1a.5.5 0 000-1v1zm-2.915 5.205a.5.5 0 10-1 0h1zm-1 17.742a.5.5 0 001 0h-1zm-3.414 0a.5.5 0 001 0h-1zm1-17.742a.5.5 0 10-1 0h1zm-9.447 11.71a.5.5 0 10-1 0h1zm-1 3.756a.5.5 0 101 0h-1zm.5-6.102a.07.07 0 01.069.07h1c0-.591-.48-1.07-1.07-1.07v1zm.069.07a.07.07 0 01-.07.068v1c.59 0 1.07-.479 1.07-1.069h-1zm-.07.068a.07.07 0 01-.068-.069h-1c0 .59.478 1.07 1.069 1.07v-1zm-.068-.069a.07.07 0 01.069-.069v-1c-.59 0-1.07.479-1.07 1.07h1zm11.2-13.362c-1.13-.006-1.787-.467-2.087-.983l-.864.502c.508.876 1.528 1.474 2.946 1.481l.006-1zm-2.087-.983a1.57 1.57 0 01-.213-.792l-1-.002c0 .448.116.895.348 1.295l.865-.501zm-.213-.793c0-.367.13-.738.395-1.044l-.756-.654a2.594 2.594 0 00-.64 1.697l1 .002zm.395-1.044c.35-.404.97-.733 1.928-.733v-1c-1.195 0-2.113.418-2.684 1.079l.756.654zm1.928-.733c1.016 0 1.652.368 1.989.806l.792-.61c-.56-.727-1.513-1.196-2.78-1.196v1zm1.99.807c.224.29.334.63.334.97h1c0-.558-.181-1.114-.543-1.582l-.791.612zm.334.97c0 .247-.06.494-.178.723l.888.46a2.57 2.57 0 00.29-1.183h-1zm-.178.723c-.283.547-.949 1.047-2.124 1.053l.006 1c1.478-.008 2.522-.66 3.006-1.593l-.888-.46zm-4.688.32l-.253-.43h-.003c-.001.002-.004.003-.007.005l-.026.016-.102.06-.365.214-1.105.65-1.107.65c-.307.18-.503.296-.502.294l.495.87 1.62-.953 1.106-.65.364-.213.102-.06.027-.016.007-.004.002-.001-.253-.431zM36.06 31.92l.007-.004.003-.002.011-.007.008-.006.02-.014a.506.506 0 00.126-.139.883.883 0 00.039-.44c-.102-.162-.349-.306-.446-.32a.9.9 0 00-.137.014.91.91 0 00-.048.014c-.03.01-.052.022-.053.022a.421.421 0 00-.024.012l-.01.006-.003.002-.006.003-.047.029.516.856.04-.024-.007.004-.01.006a.746.746 0 01-.067.028.91.91 0 01-.047.014.889.889 0 01-.138.014c-.097-.014-.344-.158-.445-.32a.883.883 0 01.039-.44.884.884 0 01.066-.086.838.838 0 01.059-.052.512.512 0 01.028-.02l.01-.007.004-.002h.001l.511.859zm-.552-.835l-.02.012.495.868.025-.014-.5-.866zm.477.88l.007-.005-.002.001-.004.003c-.147.054-.733-.332-.502-.865l.005-.003h.001v-.001l-.003.002-.031.018.507.862.027-.016.002-.001h.001l.002-.002.004-.002c.232-.534-.355-.92-.502-.865l-.004.002-.001.001h-.001l-.006.004.5.866zm-.519-.856a.939.939 0 00-.03.018l-.01.006.5.866.024-.014c.006-.004.005-.003.002-.002l-.486-.874zm-.042.025l-.106.062-.035.02-.01.007-.003.001.254.431.255.43.003-.002.01-.005.034-.02.102-.06-.504-.864zm-.154.09a1.793 1.793 0 01-1.324.195l-.223.974a2.793 2.793 0 002.055-.307l-.508-.862zm-1.324.195c-.383-.088-.734-.39-1.016-.92-.28-.528-.46-1.229-.517-1.985l-.997.074c.064.854.269 1.7.63 2.38.362.68.91 1.25 1.677 1.425l.223-.974zm-1.532-2.905c-.076-1.016.077-2.064.438-2.836.36-.769.874-1.178 1.52-1.178v-1c-1.178 0-1.973.787-2.426 1.754-.45.964-.615 2.191-.53 3.334l.998-.074zM34.37 24.5c.41 0 .786.138 1.086.37l.612-.79a2.768 2.768 0 00-1.698-.58v1zm1.392-.025l-.305.395v.001a.183.183 0 01.016.012l.037.029a.42.42 0 01.038.03c.006.003.01.007.014.01a.087.087 0 00.005.003l.617-.786-.062-.048-.037-.03a1.12 1.12 0 00-.012-.008l-.004-.003-.001-.001-.306.396zm-.248.432v.002l.725-.69-.002-.002-.723.69zm.067.06l.01.007a.202.202 0 01.012.01l.005.003.6-.8.004.003h-.001l-.01-.008-.028-.021-.592.805zm.02.015l.087.067.613-.79-.087-.067-.613.79zm.17.12a.484.484 0 01-.056-.033l-.01-.007.013.01a.509.509 0 00.28.084v-1a.499.499 0 01.289.093l-.011-.008a.495.495 0 00-.058-.034l-.447.895zm-.274-.446h1-1zm.194.396l3.264 2.525.612-.79-3.264-2.526-.612.791zm11.59 6.87l.012.007.514-.857-.011-.007-.514.857zm-3.022-4.25l3.62-2.802-.611-.79-3.621 2.8.612.792zm3.62-2.802a1.77 1.77 0 011.087-.37v-1c-.64 0-1.229.216-1.698.579l.611.791zm1.087-.37c.645 0 1.16.41 1.52 1.178.361.772.514 1.82.438 2.836l.998.074c.085-1.143-.08-2.37-.53-3.334-.453-.967-1.248-1.754-2.426-1.754v1zm1.958 4.014c-.056.756-.235 1.457-.516 1.985-.281.53-.633.832-1.016.92l.224.974c.766-.175 1.315-.746 1.675-1.425.362-.68.567-1.526.63-2.38l-.997-.074zm-1.531 2.905a1.794 1.794 0 01-1.326-.195l-.507.862a2.794 2.794 0 002.055.308l-.222-.975zm-1.326-.195l-.233-.137-.507.862.233.137.507-.862zm-.232-.136a4.537 4.537 0 00-.042-.025l-.005-.003-.01-.005a.473.473 0 00-.032-.016l-.05-.02c-.008-.002-.049-.016-.103-.021a.89.89 0 00-.18.014.86.86 0 00-.347.328.884.884 0 00.022.366.89.89 0 00.066.105c.026.032.05.054.057.06.018.016.034.027.037.03a.44.44 0 00.02.013l.008.005.006.004a.865.865 0 00.017.01l.502-.865c-.005-.003-.003-.002 0 0a.58.58 0 00.013.008l.02.014c.004.003.02.014.037.03a.366.366 0 01.058.06c.015.018.048.07.066.105a.883.883 0 01.022.365.861.861 0 01-.348.329.897.897 0 01-.18.013.485.485 0 01-.153-.041l-.023-.011-.008-.004a.15.15 0 01-.006-.004l-.002-.001h-.001.002a.388.388 0 00.027.017l.51-.86zm.006.005a.553.553 0 00-.054-.034h-.001l.004.002a.42.42 0 01.026.016l-.555.832a.521.521 0 00.039.024h.001a.516.516 0 01-.041-.026l.58-.814zm-.045-.029l-.02-.011-.514.857.02.012.514-.858zm-.277-.082v1-1zm.277.083h-.002l-.555.831.002.002.555-.833zm.09.079l-.74.672.74-.672zm-.117-.095l-3.359-1.974-.506.862 3.359 1.974.506-.862zM43.754 29.8l5.926 8.15.809-.589-5.926-8.149-.81.588zm6.46 7.372l-3.11-.833-.259.966 3.11.833.259-.966zm-3.722-.48l-.834 3.11.966.259.834-3.11-.966-.258zm.096 3.014l-4.599-9.102-.892.45 4.598 9.103.893-.45zm-5.045-8.377h.05v-1h-.05v1zm-.396-.725l-4.599 9.102.893.451 4.598-9.102-.892-.451zm-3.67 9.198l-.832-3.11-.966.26.833 3.109.966-.259zm-1.445-3.463l-3.11.833.26.966 3.109-.833-.259-.966zm-2.578 1.614l5.974-8.059-.804-.595-5.974 8.058.804.596zm17.99-8.9h2.417v-1h-2.417v1zm2.417 0c.353 0 .638.285.638.638h1c0-.905-.733-1.638-1.638-1.638v1zm.638.638v4.553h1V29.69h-1zm.5 4.053h-7.396v1H55v-1zm-19.418 0h-8.582v1h8.582v-1zm-8.082.5V29.69h-1v4.553h1zm0-4.553c0-.353.286-.638.638-.638v-1c-.905 0-1.638.733-1.638 1.638h1zm.638-.638h3.756v-1h-3.756v1zm25.224 5.19v16.619h1V34.244h-1zm0 16.619c0 .082-.064.235-.293.396-.22.156-.49.242-.687.242v1c.433 0 .902-.169 1.264-.425.354-.25.716-.666.716-1.213h-1zm-.98.638H29.275v1h23.106v-1zm-23.106 0a.638.638 0 01-.638-.638h-1c0 .905.733 1.638 1.638 1.638v-1zm-.638-.638V34.244h-1v16.618h1zm7.81-21.81h2.298v-1h-2.299v1zm7.944 0h2.3v-1h-2.3v1zm-1.616 5.206V52h1V34.258h-1zM40.361 52V34.258h-1V52h1zm-10.447-6.032v3.756h1v-3.756h-1z" fill="#fff"/></svg>