<svg width="22" height="22" fill="none" xmlns="http://www.w3.org/2000/svg"><path d="M9.39 4.252h.35-.35zm.37-.98l.264.23-.265-.23zm3.35.069l-.277.213.277-.213zm.313.911h-.35.35zM7.29 6.35l-.179-.3a.35.35 0 00.352.604L7.29 6.35zm-.033.02l.175.303.005-.003-.18-.3zm-.017.01l-.174-.304a.35.35 0 00.348.607L7.24 6.38zm-.018.01l.17.306.007-.004-.177-.302zm-.024.014l-.175-.303h-.001l.176.303zm-.108.064l.177.302.001-.001-.178-.301zm-1.207.18l-.078.34.078-.34zM4.51 4.25l.349-.026-.35.026zm2.75-2.912l-.215.277.214-.277zm.08.063l.253-.242a.352.352 0 00-.037-.034l-.216.276zm0 0l-.252.242a.35.35 0 00.046.04l.207-.282zm.023.018l.215-.277-.005-.003-.21.28zm.062.047l-.215.277a.35.35 0 00.058.037l.157-.314zm.002.002h.35a.35.35 0 00-.35-.35v.35zm0 0h-.35c0 .108.05.21.136.277l.214-.277zm8.244 4.883l.18-.3-.18.3zm.008.005l-.176.303a.35.35 0 00.38-.587l-.204.284zm-2.784-3.294a.35.35 0 10.429.554l-.429-.554zm2.8-1.724l-.213-.277.214.277zm2.75 2.912l-.349-.026.35.026zm-1.37 2.396l.078.341-.078-.34zm-1.208-.18l.178-.3-.178.3zm-.166-.097l-.179.301h.001l.178-.301zm-.044-.026l.18-.3a.35.35 0 00-.18-.05v.35zm0 0l-.195.291a.35.35 0 00.194.059v-.35zm-.002 0l-.259.235c.02.02.041.04.065.055l.194-.29zm0-.001l.259-.236a.35.35 0 00-.082-.066l-.177.302zm1.833 4.41l-.09.339a.35.35 0 00.373-.544l-.283.206zm-2.22-.595l.09-.338a.35.35 0 00-.429.248l.338.09zm-.596 2.222l-.312.157a.35.35 0 00.65-.067l-.338-.09zm-6.533 0l-.338.09a.35.35 0 00.65.067l-.312-.157zm-.595-2.222l.338-.09a.35.35 0 00-.429-.248l.09.338zm-2.221.596l-.282-.209a.35.35 0 00.372.547l-.09-.338zm4.548-5.548a.35.35 0 10-.563-.417l.563.417zm8.589-1.304a.35.35 0 100 .7v-.7zM21 8.317v.35a.35.35 0 00.35-.35H21zm-5.283-.35a.35.35 0 100 .7v-.7zm-8.587.7a.35.35 0 100-.7v.7zM1 8.317H.65c0 .193.157.35.35.35v-.35zm3.496-3.715a.35.35 0 100-.7v.7zm16.041 3.715a.35.35 0 10-.7 0h.7zm-18.374 0a.35.35 0 10-.7 0h.7zm5.585-4.415a.35.35 0 100 .7v-.7zm7.317.7a.35.35 0 100-.7v.7zm-2.089 3.725a.35.35 0 10-.7 0h.7zM12.276 21a.35.35 0 10.7 0h-.7zm-2.439 0a.35.35 0 00.7 0h-.7zm.7-12.673a.35.35 0 10-.7 0h.7zm-6.748 8.364a.35.35 0 10-.7 0h.7zm-.7 2.683a.35.35 0 10.7 0h-.7zm.35-4.365c.031 0 .057.025.057.056h.7a.757.757 0 00-.757-.756v.7zm.057.056a.057.057 0 01-.057.056v.7a.757.757 0 00.757-.756h-.7zm-.057.056a.057.057 0 01-.056-.056h-.7c0 .418.338.757.756.757v-.7zm-.056-.056c0-.031.025-.056.056-.056v-.7a.757.757 0 00-.756.756h.7zm8.008-9.537c-.81-.004-1.282-.335-1.498-.706l-.605.351c.362.623 1.088 1.05 2.099 1.055l.003-.7zm-1.498-.706a1.13 1.13 0 01-.153-.57h-.7c0 .318.083.636.248.921l.605-.351zm-.153-.57c0-.264.094-.53.284-.75l-.53-.458a1.845 1.845 0 00-.454 1.208h.7zm.284-.75c.251-.29.696-.526 1.383-.526v-.7c-.853 0-1.506.297-1.912.768l.53.458zm1.383-.526c.727 0 1.183.263 1.426.578l.555-.427c-.399-.517-1.078-.851-1.982-.851v.7zm1.426.579c.162.208.24.453.24.697h.7c0-.397-.128-.793-.386-1.125l-.554.428zm.24.697c0 .178-.042.356-.127.52l.621.322c.137-.264.206-.553.206-.842h-.7zm-.127.52c-.204.393-.682.751-1.524.756l.004.7c1.054-.006 1.797-.47 2.141-1.134l-.621-.322zm-3.355.226l-.178-.302h-.001l-.005.004-.02.011-.072.043-.26.153-.79.464-.79.464c-.22.129-.36.212-.359.21l.346.61 1.158-.68a22505.31 22505.31 0 001.05-.618l.072-.043.02-.01.004-.004h.002l-.177-.302zM7.468 6.65a.852.852 0 00.005-.003l.002-.001.008-.005.005-.004a.356.356 0 00.102-.107.62.62 0 00.028-.309A.603.603 0 007.306 6a.631.631 0 00-.097.01.621.621 0 00-.033.01c-.02.006-.036.014-.037.014a.351.351 0 00-.01.005l-.007.004a.504.504 0 00-.047.028l.361.6.029-.017c.005-.004 0 0-.005.002l-.007.004a.36.36 0 01-.01.005s-.016.008-.037.015a.618.618 0 01-.033.01.631.631 0 01-.096.01.603.603 0 01-.312-.224.62.62 0 01.027-.308.63.63 0 01.068-.081.35.35 0 01.047-.035l.002-.001h.001l.358.6zm-.388-.584l-.014.008.347.608.018-.01-.35-.606zm.334.615l.005-.002h-.001l-.003.002c-.103.038-.513-.232-.351-.605l.003-.002h.001v-.001l-.002.001a7.614 7.614 0 00-.023.014l.355.603.02-.012h.002v-.001h.001l.003-.002c.162-.374-.248-.644-.351-.606a.298.298 0 00-.003.002h-.001l-.004.003.35.606zm-.363-.598a.484.484 0 01-.028.017l.349.606.017-.01c.004-.002.004-.002.002 0l-.34-.613zm-.03.018a18.782 18.782 0 00-.101.059l-.007.004-.002.001.178.302.178.301.002-.001.007-.004.024-.015.073-.042-.352-.605zm-.11.064a1.29 1.29 0 01-.951.14l-.156.682a1.988 1.988 0 001.462-.218l-.355-.604zm-.951.14c-.277-.063-.529-.28-.73-.66-.202-.378-.33-.88-.37-1.421l-.698.052c.045.61.191 1.212.45 1.697.256.484.647.89 1.192 1.014l.156-.682zm-1.1-2.081c-.054-.727.055-1.477.313-2.03.258-.55.628-.845 1.093-.845v-.7c-.838 0-1.404.56-1.726 1.249-.322.687-.44 1.562-.378 2.378l.698-.052zM6.266 1.35c.294 0 .564.1.78.266l.428-.554A1.97 1.97 0 006.266.65v.7zm.994-.011l-.214.277h.001l.002.002.009.007.026.02.028.022.01.007a.465.465 0 01.003.003l.432-.55-.044-.035-.027-.02c-.003-.003-.006-.006-.009-.007l-.002-.002-.215.276zm-.172.304v.001l.507-.483-.507.482zm.047.042a.395.395 0 01.007.005l.005.004.002.001.002.002.003.003.42-.56c.002 0 .003.002.003.002v-.001a4.178 4.178 0 00-.028-.02l-.414.564zm.015.011l.061.048.43-.553-.062-.048-.43.553zm.12.085a.344.344 0 01-.04-.023l-.006-.005.009.006a.353.353 0 00.195.06v-.7a.35.35 0 01.203.064c.004.004-.003-.002-.008-.005a.354.354 0 00-.04-.024l-.314.627zm-.192-.312h.7-.7zm.136.277L9.545 3.55l.429-.554-2.332-1.804-.428.554zm8.278 4.907l.008.004.36-.6-.008-.005-.36.6zm-2.167-3.036l2.586-2.001-.428-.554-2.587 2.001.429.554zm2.586-2.001a1.27 1.27 0 01.78-.266v-.7a1.97 1.97 0 00-1.208.412l.428.554zm.78-.266c.465 0 .835.295 1.092.846.26.552.368 1.302.314 2.029l.698.052c.061-.816-.056-1.691-.378-2.378-.323-.69-.888-1.249-1.726-1.249v.7zm1.406 2.875c-.04.54-.168 1.043-.369 1.42-.202.38-.454.598-.73.661l.156.682c.544-.124.935-.53 1.192-1.014.258-.485.404-1.088.45-1.697l-.699-.052zm-1.1 2.081a1.29 1.29 0 01-.951-.14l-.355.604c.417.245.93.34 1.463.218l-.156-.682zm-.951-.14l-.167-.098-.355.604.167.098.355-.604zm-.166-.097a2.369 2.369 0 00-.03-.018l-.003-.002-.007-.004a.22.22 0 00-.023-.01.337.337 0 00-.035-.014.311.311 0 00-.072-.016.629.629 0 00-.125.01.603.603 0 00-.244.23.619.619 0 00.015.256.347.347 0 00.112.136l.015.01.005.003a.218.218 0 01.016.01l.352-.605c-.004-.002-.003-.002 0 0l.004.002.005.003a.295.295 0 01.04.03c.005.005.022.02.04.043.01.013.034.05.046.073a.617.617 0 01.016.256.602.602 0 01-.244.23.627.627 0 01-.125.01c-.038-.004-.067-.014-.073-.016l-.035-.013a.328.328 0 01-.016-.008l-.006-.003-.004-.002-.002-.001h.001l.005.003.015.009.357-.602zm.003.004a.385.385 0 00-.038-.025l.003.002.018.011-.388.583.022.013.005.003-.008-.004a.32.32 0 01-.02-.014l.406-.57zm-.031-.02l-.014-.01-.36.601.014.009.36-.6zm-.194-.06v.7-.7zm.193.06v-.001l-.389.582.001.001.388-.582zm.064.055l-.518.47.518-.47zm-.082-.067l-2.4-1.41-.354.604 2.4 1.41.354-.604zm-2.86-.902l4.233 5.82.567-.411-4.233-5.82-.567.41zm4.607 5.277l-2.221-.596-.181.677 2.22.595.182-.676zm-2.65-.348l-.595 2.221.676.181.595-2.22-.676-.182zm.056 2.154L11.7 5.72l-.625.316 3.285 6.502.625-.316zm-3.597-5.994h.035v-.7h-.035v.7zm-.277-.508l-3.285 6.502.625.316 3.285-6.502-.625-.316zm-2.634 6.57l-.595-2.222-.676.181.595 2.221.676-.18zM7.454 9.82l-2.221.596.181.676 2.221-.595-.18-.677zm-1.85 1.142l4.268-5.756-.563-.417-4.267 5.756.563.417zm12.857-6.36h1.726v-.7h-1.726v.7zm1.726 0c.256 0 .463.207.463.463h.7c0-.642-.52-1.163-1.163-1.163v.7zm.463.463v3.252h.7V5.065h-.7zM21 7.967h-5.283v.7H21v-.7zm-13.87 0H1v.7h6.13v-.7zm-5.78.35V5.065h-.7v3.252h.7zm0-3.252c0-.256.207-.463.463-.463v-.7c-.642 0-1.163.52-1.163 1.163h.7zm.463-.463h2.683v-.7H1.813v.7zm18.024 3.715v11.87h.7V8.317h-.7zm0 11.87c0 .062-.048.173-.212.29a.93.93 0 01-.495.173v.7c.308 0 .641-.12.899-.302.252-.178.508-.474.508-.861h-.7zm-.707.463H2.626v.7H19.13v-.7zm-16.504 0a.463.463 0 01-.463-.463h-.7c0 .642.52 1.163 1.163 1.163v-.7zm-.463-.463V8.317h-.7v11.87h.7zM7.748 4.602H9.39v-.7H7.748v.7zm5.675 0h1.642v-.7h-1.642v.7zm-1.147 3.725V21h.7V8.327h-.7zM10.537 21V8.327h-.7V21h.7zm-7.448-4.309v2.683h.7v-2.683h-.7z" fill="#fff"/></svg>