<svg width="20" height="23" fill="none" xmlns="http://www.w3.org/2000/svg"><path d="M17.138 6.07h-1.862v6.972a.63.63 0 01-.62.634m0 0H5.344a.63.63 0 01-.62-.634V1.634A.63.63 0 015.344 1h9.31a.63.63 0 01.62.634v3.169m-.62 8.873h2.483m0-5.704h-1.862m1.862 1.901h-1.862m1.862 1.902h-1.862m1.862 3.803h-4.345M8.86 8.003c0 1.906-2.894.701-2.894 3.305v1.1h8.069v-1.1c0-2.604-2.895-1.399-2.895-3.305m1.653 10.194h5.586a.63.63 0 00.621-.634V3.607a.63.63 0 00-.62-.634h-1.863m-3.724 17.76h3.724a.63.63 0 00.62-.634v-.634m-4.344-5.789v7.69a.63.63 0 01-.62.634H1.62a.63.63 0 01-.62-.634V5.508a.63.63 0 01.62-.633h1.785m8.88-.201c0-1.29-1.023-2.335-2.285-2.335-1.262 0-2.286 1.045-2.286 2.335V5.98c0 1.29 1.024 2.334 2.286 2.334s2.286-1.045 2.286-2.334V4.674z" stroke="#5060B3" stroke-width=".7" stroke-miterlimit="10" stroke-linecap="round" stroke-linejoin="round"/></svg>