<svg width="22" height="22" fill="none" xmlns="http://www.w3.org/2000/svg"><path d="M3.748 15.611l.859-.235a1.676 1.676 0 01.952-1.621l4.599-2.22a1.491 1.491 0 011.955.618c.38.692.14 1.554-.542 1.958l-2.524 1.495 4.248.73a2.08 2.08 0 001.473-.297l4.225-2.71a1.31 1.31 0 011.735.291 1.276 1.276 0 01-.214 1.787h-.001l-5.254 4.164a2.074 2.074 0 01-1.536.432l-7.082-.851-1.443.527m4.494-7.027s.085.437.38.873c.134.197.4.261.611.15l.379-.2m-6.625 3.929c.325.895.622 1.8.893 2.713-.777.48-1.62.773-2.528.883A48.61 48.61 0 011 15.964a6.173 6.173 0 012.53-.883c.165.395.327.792.482 1.191m3.16-3.296a5.902 5.902 0 01-.028-.584c0-.242.014-.487.041-.733M18.49 8.116c.82 1.307 1.308 2.844 1.308 4.276 0 .254-.015.498-.045.732m-8.885-7.465c.794-.485 1.676-.771 2.604-.771 1.662 0 3.174.916 4.303 2.25m-5.96-1.943c-1.321-1.601-.58-3.188.595-2.69 0 0-.106-1.505 1.062-1.505 1.168 0 1.062 1.505 1.062 1.505 1.176-.498 1.916 1.089.595 2.69m1.373 3.151s-.59-.538-1.501-.267c-.836.249-1.044 1.38-.476 1.82.326.252.817.46 1.479.691 1.48.518.933 2.58-.573 2.59-.588.004-.863-.032-1.379-.366m1.379-5.508v6.628m-8.169-9.72L5.02 9.49m4.568.861a4.97 4.97 0 01-6.968 0 4.827 4.827 0 010-6.884 4.97 4.97 0 016.968 0 4.827 4.827 0 010 6.884zM5.581 5.105c0 .628-.443 1.137-.99 1.137-.547 0-.99-.509-.99-1.137s.443-1.137.99-1.137c.547 0 .99.51.99 1.137zm3.027 3.608c0 .628-.443 1.137-.99 1.137-.547 0-.99-.51-.99-1.137 0-.628.443-1.137.99-1.137.547 0 .99.509.99 1.137z" stroke="#fff" stroke-width=".7" stroke-miterlimit="10" stroke-linecap="round" stroke-linejoin="round"/></svg>