<svg width="26" height="20" fill="none" xmlns="http://www.w3.org/2000/svg"><path d="M23.543 4.263a.813.813 0 00-.435-.443.825.825 0 00-.624-.01l-2.928 1.145a.813.813 0 00-.448.43.8.8 0 00-.01.618l.122.307c-1.23.602-2.13.767-2.606.474a4.475 4.475 0 00-3.68-.21c-1.04-.5-2.254-.551-3.612-.148a2.185 2.185 0 01-1.595-.112 721.6 721.6 0 00-.804-.368.8.8 0 00-.043-.588.813.813 0 00-.436-.403L3.516 3.81a.826.826 0 00-.624.01.813.813 0 00-.435.443l-2.4 6.003a.8.8 0 00.01.617.813.813 0 00.449.43l2.928 1.146a.824.824 0 001.018-.369l.28.113a.197.197 0 01.13.177c.005.098.02.225.038.372.02.174.045.386.061.605L4.3 14.51a1.408 1.408 0 00.16 1.643 1.45 1.45 0 001.623.384c.048.339.218.65.478.874a1.443 1.443 0 001.483.245c.048.34.217.65.477.875a1.444 1.444 0 001.485.245 1.419 1.419 0 00.475.872 1.443 1.443 0 001.582.207c.255-.125.466-.321.609-.564l.038-.067.323.185a1.448 1.448 0 001.605-.113 1.406 1.406 0 00.491-1.516 1.443 1.443 0 001.1-.535 1.409 1.409 0 00.277-1.182 1.455 1.455 0 00.756-.14 1.432 1.432 0 00.775-.997 1.403 1.403 0 00-.022-.645l-.012-.041a1.436 1.436 0 00.983-.428c.18-.183.308-.41.368-.66l2.23-.986a.823.823 0 00.974.294l2.927-1.146a.813.813 0 00.449-.43.8.8 0 00.01-.617l-2.4-6.003zM3.668 11.9L.74 10.753a.204.204 0 01-.116-.266l2.4-6.002a.203.203 0 01.11-.112.21.21 0 01.158-.003L6.22 5.516a.203.203 0 01.116.266l-2.4 6.002a.206.206 0 01-.268.114zm1.462 4.03a.814.814 0 01-.303-1.118l.826-1.416a.82.82 0 01.503-.382.837.837 0 01.87.292.815.815 0 01.06.908L6.26 15.63a.837.837 0 01-1.13.3zm2.589 1.2a.836.836 0 01-.871-.292.812.812 0 01-.06-.907l.826-1.416.523-.896a.823.823 0 01.825-.402.834.834 0 01.549.313.814.814 0 01.06.908l-1.35 2.311a.816.816 0 01-.502.38zm1.96 1.12a.836.836 0 01-.87-.292.812.812 0 01-.06-.907l1.033-1.77a.82.82 0 01.503-.382.836.836 0 01.87.292.816.816 0 01.06.908l-1.033 1.77a.818.818 0 01-.503.38zm2.464.74a.836.836 0 01-1.13.3.811.811 0 01-.303-1.118l.757-1.3a.835.835 0 011.13-.299.81.81 0 01.302 1.118l-.756 1.298zm2.324-.403a.837.837 0 01-1.13.3l-.322-.185.413-.709a1.4 1.4 0 00.187-.83l.578.324a.811.811 0 01.274 1.1zm4.205-5.357a.84.84 0 01-1.13.3l-1.96-1.12a.308.308 0 00-.415.11.298.298 0 00.11.412l1.764 1.007a.825.825 0 01.385.497.81.81 0 01-.295.861.831.831 0 01-.918.06l-.392-.224-1.569-.896a.305.305 0 00-.446.339.3.3 0 00.142.183l1.568.896a.814.814 0 01.303 1.118.842.842 0 01-1.132.299l-.168-.095a1.395 1.395 0 00-.05-.03v.002l-1.4-.786a1.436 1.436 0 00-1.147-.276 1.41 1.41 0 00-.132-.82 1.437 1.437 0 00-1.523-.778c.059-.32.006-.65-.15-.935a1.432 1.432 0 00-.709-.634 1.451 1.451 0 00-1.732.495 1.423 1.423 0 00-.693-.696 1.446 1.446 0 00-1.47.145 6.855 6.855 0 01-.033-.32.796.796 0 00-.507-.698l-.281-.113L6.701 6.51l.769.352c.633.298 1.358.35 2.027.143 1.007-.3 1.916-.321 2.712-.068A16.546 16.546 0 018.583 9.58a.304.304 0 00-.154.31.3.3 0 00.043.115c.85 1.331 2.02 1.688 3.385 1.03.829-.272 1.691-.53 2.564-.764a1.188 1.188 0 01.938.12l3.01 1.72a.812.812 0 01.303 1.118zm.002-1.64l-3.01-1.72a1.792 1.792 0 00-1.403-.18c-.89.24-1.77.502-2.616.78a.298.298 0 00-.038.017c-1.002.488-1.783.317-2.437-.541a17.08 17.08 0 003.415-2.533 3.854 3.854 0 013.717-.11c.677.408 1.706.267 3.143-.429l1.895 4.739-1.987.88a1.41 1.41 0 00-.679-.903zm6.7-.945a.205.205 0 01-.114.109L22.332 11.9a.21.21 0 01-.268-.115l-2.4-6.003a.203.203 0 01.116-.265l2.928-1.146a.21.21 0 01.268.115l2.4 6.002a.2.2 0 01-.003.157zM3.006 9.574a.835.835 0 00-.766.505.811.811 0 00.18.893.832.832 0 001.414-.58.816.816 0 00-.243-.578.834.834 0 00-.585-.24zm0 1.036a.221.221 0 01-.203-.134.215.215 0 01.048-.237.22.22 0 01.374.154.216.216 0 01-.064.153.22.22 0 01-.155.064zm19.88-1.037a.835.835 0 00-.766.506.811.811 0 00.18.894.831.831 0 00.903.177.826.826 0 00.511-.757.816.816 0 00-.243-.58.834.834 0 00-.586-.24zm0 1.037a.22.22 0 01-.203-.134.214.214 0 01.047-.237.22.22 0 01.24-.046.219.219 0 01.135.2.216.216 0 01-.065.153.22.22 0 01-.155.064zM12.694 3.622V.302a.3.3 0 01.09-.214.307.307 0 01.43 0 .3.3 0 01.09.213v3.32a.3.3 0 01-.09.214.306.306 0 01-.52-.213zm-4.7-1.733a.299.299 0 01.112-.411.308.308 0 01.416.11L10.2 4.463a.299.299 0 01-.11.414.307.307 0 01-.417-.112L7.995 1.889zm7.895 2.237l1.678-2.875a.304.304 0 01.416-.11.299.299 0 01.111.412l-1.677 2.875a.301.301 0 01-.185.142.308.308 0 01-.322-.108.3.3 0 01-.021-.336z" fill="#fff"/></svg>