<svg width="21" height="24" fill="none" xmlns="http://www.w3.org/2000/svg"><path d="M13.505 12.573V4.817h-6.39v7.975c0 .368-.05.239.256.308.423.098.757.429.853.85.066.285-.06.252.27.252h3.1m.97 5.696c-2.154 0-2.62-2.37-2.62-4.014m5.255-5.907l2.08 1.53c1.027.777 1.12 1.807.893 2.982l-1.047 5.41m-3.132-2.771c-.08-.403-.369-.793-.555-.956l-1.413-1.253a1.4 1.4 0 01-.114-1.982 1.428 1.428 0 011.999-.114l1.968 1.742m-10.46-.648v-1.18 2.75c0 .219.18.397.399.397h7.298m-7.696-5.858v1.18-6.389M13.488 23h-2.236a.547.547 0 01-.547-.542V20.44c0-.298.246-.543.547-.543h6.015c.3 0 .547.245.547.543v2.018a.547.547 0 01-.547.542h-2.234M2.694 4.817h15.612M5.419 6.951H2.903a.209.209 0 01-.209-.207V2.888a.21.21 0 01.209-.207h15.193a.21.21 0 01.21.207v3.856a.21.21 0 01-.21.207h-2.897m0-2.134v9.149M5.42 8.634H2.21A1.21 1.21 0 011 7.432v-5.23A1.21 1.21 0 012.211 1H18.79c.665 0 1.21.54 1.21 1.202v5.23a1.21 1.21 0 01-1.211 1.202h-3.59m-6.527.055a1.63 1.63 0 011.637-1.623 1.63 1.63 0 011.637 1.623 1.63 1.63 0 01-1.637 1.625A1.63 1.63 0 018.672 8.69z" stroke="#fff" stroke-width=".7" stroke-miterlimit="10" stroke-linecap="round" stroke-linejoin="round"/></svg>