<svg width="23" height="21" fill="none" xmlns="http://www.w3.org/2000/svg"><path d="M4.6 8.418a3.288 3.288 0 00-3.279 3.291A3.288 3.288 0 004.6 15.001a3.288 3.288 0 003.279-3.292A3.288 3.288 0 004.6 8.418zm0 5.947a2.65 2.65 0 01-2.642-2.652A2.652 2.652 0 014.6 9.06a2.652 2.652 0 012.642 2.652A2.65 2.65 0 014.6 14.365z" fill="#fff"/><path d="M4.6 11.391a.448.448 0 01-.448-.449.448.448 0 11.896 0 .32.32 0 10.64 0c0-.49-.327-.902-.771-1.038l-.004-.19a.319.319 0 00-.317-.314h-.003a.318.318 0 00-.313.325l.003.183c-.44.139-.764.548-.764 1.034 0 .6.488 1.089 1.085 1.089.247 0 .447.2.447.45a.448.448 0 11-.895 0 .321.321 0 00-.32-.322.319.319 0 00-.32.321c0 .49.327.903.771 1.038l.004.19a.32.32 0 00.32.314h.003a.318.318 0 00.313-.325l-.003-.183c.44-.139.764-.548.764-1.034A1.09 1.09 0 004.6 11.391z" fill="#fff"/><path d="M8.57 15.688H6.922a4.615 4.615 0 002.176-3.022c.11-.548.131-1.04.07-1.505A4.6 4.6 0 004.6 7.091c-2.537 0-4.6 2.072-4.6 4.615 0 1.695.917 3.175 2.278 3.978H.63c-.35 0-.63.285-.63.632v1.706c0 .114.033.22.087.315A.607.607 0 000 18.65v1.71c0 .35.284.632.63.632h7.94c.346 0 .63-.285.63-.632v-1.707a.627.627 0 00-.087-.314.607.607 0 00.087-.314V16.32a.629.629 0 00-.63-.632zM.637 11.709A3.974 3.974 0 014.6 7.734a3.96 3.96 0 013.934 3.508v.007c.055.394.033.818-.062 1.293a3.973 3.973 0 01-3.876 3.15c-2.18-.004-3.96-1.787-3.96-3.983zm7.93 4.618l.007 1.695h-.637v-.445a.321.321 0 00-.32-.322.319.319 0 00-.32.322v.445h-.572v-.445a.321.321 0 00-.32-.322.319.319 0 00-.32.322v.445h-.572v-.445a.321.321 0 00-.32-.322.319.319 0 00-.32.322v.445h-.571v-.445a.321.321 0 00-.32-.322.319.319 0 00-.321.322v.445h-.553v-.445a.321.321 0 00-.32-.322.319.319 0 00-.32.322v.445h-.565v-.445a.321.321 0 00-.32-.322.319.319 0 00-.32.322v.445H.637L.63 16.327h7.937zm-.63 4.03v-.446a.321.321 0 00-.32-.321.319.319 0 00-.32.321v.45h-.572v-.45a.321.321 0 00-.32-.321.319.319 0 00-.32.321v.45h-.572v-.45a.321.321 0 00-.32-.321.319.319 0 00-.32.321v.45h-.571v-.45a.321.321 0 00-.32-.321.319.319 0 00-.321.321v.45H3.09v-.453a.321.321 0 00-.32-.322.319.319 0 00-.32.322v.453h-.572v-.453a.321.321 0 00-.32-.322.319.319 0 00-.32.322v.453H.61l-.007-1.7h7.934l.007 1.696h-.608zm5.317-5.849h-2.911a.321.321 0 00-.32.321v5.846a.32.32 0 00.32.321h2.911a.32.32 0 00.32-.321v-5.846a.326.326 0 00-.32-.321zm-.32 5.845h-2.275v-5.206h2.275v5.206zm4.687-9.499H14.71a.321.321 0 00-.32.322v9.502a.32.32 0 00.32.322h2.911a.32.32 0 00.32-.322v-9.506a.32.32 0 00-.32-.318zm-.317 9.5H15.03v-8.86h2.274v8.86zm4.688-13.157H19.08a.321.321 0 00-.32.322v13.16c0 .175.142.321.32.321h2.912c.174 0 .32-.142.32-.322V7.515a.323.323 0 00-.32-.318zm-.32 13.156h-2.275V7.837h2.274v12.516zM22.687 0h-3.985a.32.32 0 00-.295.197.315.315 0 00.07.347l1.186 1.191-3.105 3.117-1.404-1.414c-.426-.428-1.183-.431-1.613 0l-4.156 4.19a.323.323 0 000 .453l1.161 1.166a.325.325 0 00.226.095.31.31 0 00.226-.095l3.351-3.376 1.405 1.41c.426.428 1.187.428 1.609 0l3.908-3.923 1.186 1.19c.091.092.23.121.346.07A.322.322 0 0023 4.322V.318A.308.308 0 0022.687 0zm-.317 3.547l-.87-.873a.32.32 0 00-.45 0l-4.135 4.15a.52.52 0 01-.71 0l-1.63-1.636a.325.325 0 00-.226-.095.31.31 0 00-.225.095l-3.352 3.376-.71-.713 3.93-3.956c.19-.19.521-.19.71 0l1.63 1.64c.12.12.332.12.452 0l3.556-3.57a.323.323 0 000-.452l-.87-.874h2.9v2.908z" fill="#fff"/></svg>