<svg width="20" height="22" fill="none" xmlns="http://www.w3.org/2000/svg"><path d="M4.79 21c.7 0 1.268-.584 1.268-1.305v-1.818c0-.111.088-.201.196-.201h12.523c.108 0 .196.09.196.201v1.818c0 .72-.568 1.305-1.268 1.305H4.79zm0 0c-.694-.009-1.253-.59-1.253-1.305V16.75m12.9-11.282v1.659h.99m1.195-1.38c.24.402.378.874.378 1.38 0 1.457-1.148 2.638-2.564 2.638-1.416 0-2.564-1.181-2.564-2.638 0-1.457 1.148-2.638 2.564-2.638.459 0 .89.124 1.262.341M2.331 1h12.837c.7 0 1.268.584 1.268 1.305V4.19M5.233 11.68H8.51m-3.276 1.935H8.51m-3.276 1.934h4.45m-4.45-12.42h6.405M5.233 5.062h6.405m2.996 7.708h3.014c.136 0 .245.113.245.252v1.184c0 .139-.11.251-.245.251h-5.011v.835c0 .213-.238.332-.401.202l-2.1-1.678a.26.26 0 010-.404l2.1-1.679c.163-.13.4-.01.4.202v.835h.72m-9.82-5.34V4.364m0 11.072V9.28m12.9 5.34v2.975m0-7.788v2.804M1.196 4.324h2.34V2.305C3.537 1.585 2.97 1 2.269 1S1 1.584 1 2.305v1.818a.2.2 0 00.196.201zM2.35 7.543h5.013v-.835c0-.213.237-.333.4-.202l2.1 1.678a.26.26 0 010 .404l-2.1 1.679c-.163.13-.4.01-.4-.202V9.23H2.35a.248.248 0 01-.244-.252V7.794c0-.139.11-.251.244-.251z" stroke="#fff" stroke-width=".7" stroke-miterlimit="10" stroke-linecap="round" stroke-linejoin="round"/></svg>