<svg width="23" height="30" fill="none" xmlns="http://www.w3.org/2000/svg"><path d="M16.659 7.15a.92.92 0 01-.927-.913V0H7.994a.92.92 0 00-.928.912v4.214h2.525c.25 0 .486.1.657.268l7.269 7.15a.91.91 0 01.272.644v11.3h4.284a.92.92 0 00.927-.913V7.149h-6.341z" fill="#5060B3"/><path d="M17.586 1.29v4.035h4.103L17.586 1.29zM8.665 13.188V6.95H.928A.92.92 0 000 7.863v21.225A.92.92 0 00.928 30h14.078a.92.92 0 00.928-.912V14.1H9.592a.92.92 0 01-.927-.912z" fill="#5060B3"/><path d="M10.52 12.275h4.102l-4.103-4.034v4.034z" fill="#5060B3"/></svg>