<svg width="36" height="143" fill="none" xmlns="http://www.w3.org/2000/svg"><path d="M2.5 101.6v.5h31.2V.5H2.5v101.1zm2.958 13.635l-.006.006-.006.005C2.175 118.518.5 122.039.5 126c0 4.342 1.66 8.071 4.952 11.159 3.313 3.31 7.45 4.741 12.748 4.741 4.708 0 8.84-1.436 12.148-4.741C33.64 134.071 35.3 130.342 35.3 126c0-3.779-1.892-7.299-5.146-10.554-3.296-3.295-7.424-4.946-11.954-4.946-5.113 0-9.44 1.639-12.742 4.735z" stroke="url(#paint0_linear_1_3770)"/><path d="M2.5 101.6v.5h31.2V.5H2.5v101.1zm2.958 13.635l-.006.006-.006.005C2.175 118.518.5 122.039.5 126c0 4.342 1.66 8.071 4.952 11.159 3.313 3.31 7.45 4.741 12.748 4.741 4.708 0 8.84-1.436 12.148-4.741C33.64 134.071 35.3 130.342 35.3 126c0-3.779-1.892-7.299-5.146-10.554-3.296-3.295-7.424-4.946-11.954-4.946-5.113 0-9.44 1.639-12.742 4.735z" stroke="url(#paint1_linear_1_3770)"/><defs><linearGradient id="paint0_linear_1_3770" x1="17.9" y1="1" x2="17.9" y2="83" gradientUnits="userSpaceOnUse"><stop stop-color="#0036FF"/><stop offset="1" stop-opacity="0"/></linearGradient><linearGradient id="paint1_linear_1_3770" x1="18" y1="43.5" x2="17.9" y2="141.4" gradientUnits="userSpaceOnUse"><stop stop-opacity="0"/><stop offset="1" stop-color="#0036FF"/></linearGradient></defs></svg>