<svg width="382" height="631" fill="none" xmlns="http://www.w3.org/2000/svg"><path d="M126.186 475.982l-8.025 8.983-7.564 7.601m15.589-16.584l-13.576 16.181m13.576-16.181l5.436-3.771m-5.436 3.771l9.779-1.785m-25.368 18.369l2.013-.403m-2.013.403l-5.033 11.286-2.157 8.235m9.203-19.924l-9.203 19.924m9.203-19.924l9.808 4.751m-19.011 15.173l6.442 12.149m-6.442-12.149l-3.97 20.096m4.948 18.714l-4.948-18.714m4.948 18.714l2.588 21.363m-2.588-21.363l5.464-26.661m-5.464 26.661l13.316 16.699m-18.263-35.413l1.754 16.065 5.781 24.012m0 0l13.719 20.125m15.273-118.188l-4.343-1.986m4.343 1.986l2.79 1.296m-7.133-3.282l-1.985-.893m99.602-16.238l20.219 2.908m-20.219-2.908l5.838-3.685m-5.838 3.685l-1.036.662m21.255 2.246l-14.381-6.593m14.381 6.593l15.675 18.196m-30.056-24.789l9.002-5.672 15.56-10.912m-149.79 89.425l12.569-27.322m-12.569 27.322l14.295 12.784m-1.726-40.106l16.337-21.421m-16.337 21.421l16.164 8.896m.173-30.317l11.562 5.269m124.739 22.227l9.865 13.215m-9.865-13.215l-9.923-26.805m9.923 26.805l1.064 25.653m-1.064-25.653l-14.669-3.427m24.534 16.642l-7.219-23.955-12.569-16.065m19.788 40.02l1.323 21.104-2.215 16.699m.892-37.803l-1.524 22.63m-18.264-62.65l-19.644-3.426m-106.13 132.036l-18.667-12.409m18.667 12.409l12.252 14.655m-12.252-14.655l25.827 6.334m-25.827-6.334l-2.963-25.307m-15.704 12.898l12.31 14.425 18.609 12.639m-30.919-27.064l-2.991-24.789m33.91 51.853l24.447 4.923m107.339-85.538l.632 15.173m-.632-15.173l-7.277-10.192m7.277 10.192l-4.66 11.516m5.292 3.657l-5.436 17.937m5.436-17.937l-6.989 7.457m-159.339 6.132l6.443-30.576m-6.443 30.576l18.695 11.891m91.807-123.745l17.286 17.016m-17.286-17.016l-.23.144m17.516 16.872l14.898 26.804m-14.898-26.804l-22.377 10.969M205.05 620.342l-28.992 4.03m28.992-4.03l13.115 3.512m-13.115-3.512l23.326-11.287m-23.326 11.287l-8.772-9.876m-20.22 13.906L192.452 628l25.713-4.146m-42.107.518l-10.872-13.244m52.979 12.726l20.565-11.603m-20.565 11.603l15.186-3.397L245 613.259m-6.27-1.008l6.27 1.008m-6.27-1.008l14.035-12.265m-14.035 12.265l-10.354-3.196M245 613.259l11.907-9.559m-91.721 7.428l31.092-.662m-31.092.662l-2.3-22.917m113.234-59.569l-4.314 16.814m4.314-16.814l-9.376-7.285m-142.6 15.663l14.438-31.21m-14.438 31.21l18.925 11.315m120.309 39.415l-10.613 12.236m10.613-12.236l5.667 1.324m-5.667-1.324l8.169-12.841m-8.169 12.841l-12.166-3.944m1.553 16.18l4.142 3.714m-4.142-3.714l-10.871-3.628m15.013 7.342l12.138-14.626m0 0l9.548-17.13m-7.046 2.965l7.046-2.965m-7.046 2.965l5.493-13.445m-5.493 13.445l-12.31-3.772m17.803-9.673l1.697-11.114m-1.697 11.114l-10.814-3.225m-5.839-58.677l6.357 21.795m-6.357-21.795l-16.336 9.876m-107.655 70.049l26.49 8.724m-26.49-8.724l6.673-31.152m85.307 60.72l13.518-12.697m-13.518 12.697l-10.585-3.858m-79.209-99.387l18.407-25.106m-18.407 25.106l19.126 10.797m-.719-35.903l-6.672.058m6.672-.058l6.529-.057m-13.201.115l-10.182-14.655m138.602 84.243l-6.931-4.894m-75.528 65.01l21.513-5.269m-21.513 5.269l-.547-17.62m15.877-126.192l-5.35 2.908m5.35-2.908l16.365-10.768m-16.365 10.768l15.042-12.351m-20.392 15.259l16.854 14.165m-16.854-14.165l-14.381 7.831m31.235 6.334l20.939 25.711m-20.939-25.711l-21.686 20.615m26.547-48.456l16.106-10.998m-54.56 32.879l-18.206 2.793m18.206-2.793L178.1 488.132m11.419-10.365l2.358-.374m-20.564 3.167l-7.795.087m7.795-.087l.431-11.833m-8.226 11.92l14.582 7.485m0 0l-20.392 28.475m20.392-28.475l23.326 16.21m-38.54 83.869l32.845 4.635m-32.845-4.635l6.471-28.331m102.449-14.424l-5.58 12.783m5.58-12.783l-12.08-12.323m-17.832 63.225l9.318-12.552m-9.318 12.552l-17.976-2.591m42.826-72.41l-7.018 11.776m-116.657 15.202l14.639-31.728m-14.639 31.728l26.288 11.545m48.434 45.317l6.127-11.43m27.294-9.961l8.025-12.669m-8.025 12.669l-19.931-5.672m27.956-6.997l6.989-12.898m-6.989 12.898l-19.012-9.184m26.001-3.714l-16.049-11.545m-6.126-37.256l15.675 23.695m-15.675-23.695l-16.279 16.929m-70.064-9.76l25.196 14.165m12.827 62.074l28.187.921m-28.187-.921l6.27-22.227m57.725-37.486l-9.549 13.561m-26.259 47.073l7.363-15.633m-29.855-73.792l26.346 22.025m-26.346-22.025l-18.522 26.43m8.973-53.379l11.505-14.05m-34.025 96.537l32.644 10.739m-32.644-10.739l13.547-29.108m48.377 47.362l8.944-16.181m-8.944 16.181l-29.28-7.515m48.176-23.925l-9.952 15.259m9.952-15.259l-22.405-20.327m12.453 35.586l-27.007-14.424m14.554-21.162l-14.554 21.162m-30.314-16.757l30.314 16.757m-11.217 23.09l11.217-23.09m66.324-141.25l-5.666 15.547m5.666-15.547l5.523-19.406m-5.523 19.406l2.445-14.54m-2.445 14.54l-12.309 13.704m6.643 1.843l7.594-17.447 3.595-17.506m-11.189 34.953l-12.942 12.064-1.179.806m14.121-12.87l-14.121 12.87m25.31-47.823l1.15-14.827m-26.46 62.65l-.116.115m22.348-43.072l4.228-19.693m-4.228 19.693l1.697-14.107m-1.697 14.107l-11.246 13.417m15.474-33.11l.777-13.388m-42.913 86.23l15.56-10.077m-15.56 10.077l-17.429 9.415m17.429-9.415l7.881-15.317m7.679 5.24l7.594-14.828m-149.992 36.22l-11.706-14.857m11.706 14.857l12.396 15.115m-12.396-15.115l-2.847-22.601m2.847 22.601l22.894 9.904m-34.6-24.761l12.137 16.584 11.965 13.388m-24.102-29.972l-3.998-24.011m182.147-39.703l3.308-18.974m-3.308 18.974l1.841-14.223m-1.841 14.223l-10.498 12.61m13.806-31.584l.546-7.399m-20.305 68.724l3.508-14.827m-3.508 14.827l-15.273 9.588m-147.834-57.64l-1.525-16.958m1.525 16.958l-2.042 22.831m2.042-22.831l3.94-24.617m-3.94 24.617l13.431 14.914m-14.956-31.872l-1.006 21.219.489 18.57m.517-39.789l2.963-22.112m-3.48 61.901l13.23 16.008m-13.23-16.008l-.547 22.573m125.113 36.968l-23.268 9.04m23.268-9.04l6.529-16.872m52.346-74.022l2.013-12.15m-2.013 12.15l-9.779 11.343m11.792-23.493l.374-2.275m-173.518 84.618l-12.857-16.267m12.857 16.267l.92-22.832m-.92 22.832l23.785 10.422m1.956 22.083l31.609 2.62m-31.609-2.62l-1.956-22.083m-30.113-96.71l-2.502-14.453m2.502 14.453l6.615-25.941m-6.615 25.941l13.719 13.475m-16.221-27.928l3.192-13.762m161.985 86.057l2.445-14.914m-2.445 14.914l-15.243 8.695m-3.538 15.72l-18.781 7.86m18.781-7.86l3.538-15.72m-52.116 49.492l-31.638 5.384m31.638-5.384l3.796-19.031m-91.864-33.542l2.243-23.925m-2.243 23.925l23.469 10.567m-24.102-99.964l-1.553-4.836m1.553 4.836l2.56-7.226m-2.56 7.226l14.151 11.891m-15.704-16.727l-4.372 2.562m4.372-2.562l4.113-2.39m-8.485 4.952l-.115.057m164.545 71.086l2.56-15.49m-2.56 15.49l-15.1 7.515m-86.342 70.97l.46-20.816m60.975-10.48l-26.001 6.881m26.001-6.881l2.646-17.217m-97.646 23.81l.604-22.687m-.604 22.687l34.025 3.887m-54.647-61.066l4.228-26.056m-4.228 26.056l22.981 10.566m-23.297-83.264l7.104-4.146m151.401 64.751l3.192-16.008m-3.192 16.008l-14.697 6.162m-5.551 32.937l2.588-16.094m-2.588 16.094l-19.673 6.363M377.706 98.846l-.633 24.876m.633-24.876L379 127.637l-1.064 20.615m-.23-49.406l-8.427-23.925m7.794 48.801l.863 24.53m-.863-24.53l-6.874-20.615m6.874 20.615l-9.204 20.153m10.067 4.377l-4.861 26.891m4.861-26.891l-9.722 16.065m-89.276 194.427l8.974-9.76m-8.974 9.76l4.228-16.526m-4.228 16.526l-14.035 4.665m23.009-14.425l3.336-14.626m-84.07 109.954l-34.974 3.599m34.974-3.599l1.323-19.204m-86.716-64.319l7.047-27.525m-7.047 27.525l22.521 10.508m113.78 26.46l2.963-16.843m-2.963 16.843l-20.075 4.693m45.155-60.232l8.082-7.86m-8.082 7.86l5.695-17.274m-5.695 17.274l-13.144 3.11m21.226-10.97l4.66-15.086M138.783 421.337l1.755-23.926m-1.755 23.926l33.939 5.182m170.757-195.521l6.558-3.57m-6.558 3.57l11.649-21.795m-11.649 21.795l-13.172 20.154m13.172-20.154l-13 1.842m19.558-5.412l13.144-25.193m-13.144 25.193l-14.208 22.14m27.352-47.333l-8.053 6.968m8.053-6.968l9.894-27.092m-17.947 34.06l8.657-22.63m-8.657 22.63l-14.41 4.779m-10.411 37.17l5.522-1.584m-5.522 1.584l-13.058 18.772m13.058-18.772l-11.678-.288m17.2-1.296l-13.461 19.434m-5.119.922l5.119-.922m-5.119.922l-11.39 18.368m11.39-18.368l-10.786-1.267m15.905.345l-11.303 17.707m-75.24 133.505l-27.324 4.894m27.324-4.894l2.186-17.764m-65.807 45.461l.518-21.392m191.063-239.946l9.29-11.43m-9.29 11.43l4.429-22.256m-4.429 22.256l-15.387 8.234m-59.537 130.137l7.047-5.672m-7.047 5.672l7.565-18.197m-7.565 18.197l-12.051 1.497m19.098-7.169l6.442-15.864m3.509-15.116l5.206-1.583m-5.206 1.583l-9.433 18.455m9.433-18.455l-10.613-.979m15.819-.604l-8.715 16.699m0 0l-5.924 3.339m0 0l-11.074.029m-24.303 74.138l3.854-17.505m-3.854 17.505l-20.018 2.764m-112.199-50.414l9.836-27.611m-9.836 27.611l22.118 10.451m217.264-179.398l-.345-20.442m.345 20.442l-15.646 11.949m-212.03 221.145l3.768-26.114m-3.768 26.114l33.593 6.651m196.068-300.955l-.92-28.186m.92 28.186l-7.593 23.35m7.593-23.35l-12.454-15.778m11.534-12.408l-14.813-17.563m14.813 17.563l-10.844-24.012-16.077-18.024M208.501 425.108l-35.779 1.411m35.779-1.411l1.64-19.981m27.87-2.677l3.02-18.772m-3.02 18.772l-27.87 2.677m54.762-41.718l5.119-18.081m-5.119 18.081l-19.414.662M354.466 57.358l-12.108-24.473m12.108 24.473l3.279 29.971m-3.279-29.971l-18.752-11.344m6.644-13.129l-19.99-10.624m19.99 10.624l-17.2-13.244-19.615-9.817M172.722 426.519l1.409-22.457m-35.463-98.409l-2.617-1.842m2.617 1.842l1.985-4.347m-1.985 4.347l21.687 10.336m-24.304-12.178l-11.706 6.19m11.706-6.19l3.336-1.785m-15.042 7.975l18.177-11.315m225.347-154.811l-5.263-17.418m5.263 17.418l-15.042 15.317m-82.805 186.136l6.788-18.887m-6.788 18.887l-18.321-1.382m-107.395 27.351l6.644-27.582m-6.644 27.582l33.075 8.35m63.65 4.031l4.458-19.607m-4.458 19.607l-27.841-.029m127.528-169.667l-10.239 18.858m10.239-18.858l7.68-19.175m-7.68 19.175l-20.162 3.167m9.923 15.691l-11.85 18.024m11.85-18.024l-18.724.173m6.874 17.851l-12.166 17.793m12.166-17.793l-17.256-2.304m-161.986 53.466l1.266-.72m-1.266.72l15.618-8.926m-14.352 8.206l13.92-7.889.432-.317m151.458-24.443l-11.217 18.656m11.217-18.656l-16.25-3.57m-13.403 61.354l8.542-19.665m-8.542 19.665l-17.142-2.995m-49.527 81.681l-36.01-1.065m36.01 1.065l3.049-21.478m-9.032-188.496l-3.508 8.263m3.508-8.263l.231-.461m-.231.461l-2.157-1.123m-1.351 9.386l4.946-7.659m-4.946 7.659l-.058.086m5.004-7.745l-1.207-1.065m1.207 1.065l3.682-7.284m-3.682 7.284l20.766 9.041m-21.973-10.106l3.825-7.255m1.064 1.036l-1.064-1.036m1.064 1.036l2.646-6.622m-2.646 6.622l21.082 8.897m-22.146-9.933l2.847-5.442m137.337 12.812l4.17-18.541m-4.17 18.541l-21.284 6.334m-31.868 86.172l-9.894 19.463m9.894-19.463l-15.905-4.117m-68.28-101.201l.432-.633m-.432.633l.345-3.944m.518 3.8l-.431-.489m.431.489l.604-2.073m-.604 2.073l21.255 8.695m-21.686-9.184l1.035-1.584m-38.397 224.284l3.25-24.415m107.971-72.871l-16.279-3.887m53.295-280.628L305.543 9.824m16.825 12.437l13.346 23.753m-13.346-23.753l-21.341-4.779m4.516-7.658L284.72 5.965m-72.192 173.813l2.272-3.455m137.768-.057l.259-17.074m-.259 17.074l-21.686 9.53m-85.393 178.275l6.212-20.125m-6.212 20.125l-27.266-3.11m-67.273-17.246l9.405-27.726m-9.405 27.726l32.241 10.077m179.415-227.335l-13.604 17.879m13.604-17.879l-10.067-13.705m5.206-25.422l-5.206 25.422m5.206-25.422l-16.221-10.941M213.19 383.649l-35.809-4.002m35.809 4.002l5.033-22.688m33.478-17.015l7.967-20.5m-7.967 20.5l-26.173-6.018m-48.147 41.719l5.81-25.855m169.636-194.6l-3.825-14.856m3.825 14.856l-21.284 12.525m-10.987 45.432l-8.801 15.864m8.801-15.864l6.558-16.008m-6.558 16.008l-27.841-.144m19.04 16.008l-10.382 15.547m10.382-15.547l-26.518-3.253m16.136 18.8l-11.16 16.527m11.16-16.527l-25.253-5.787m59.594-196.759l5.81 30.375m-5.81-30.375l-20.363-6.19m-25.138 225.263l-10.872 18.109m10.872-18.109l-24.217-7.947m-6.328 66.306l9.405-20.557m-9.405 20.557l-24.936-8.407m-74.377.95l11.562-26.459m-11.562 26.459l31.292 11.632m87.694-44.425l-10.268 19.693m10.268-19.693l-23.728-9.328m71.501-72.727l3.768-15.345m-3.768 15.345l-28.992 3.311m-79.899 156.509l7.305-23.033m-7.305 23.033l-35.032-7.169m85.882-50.903l-24.016-9.587m-44.465-89.8l20.363 9.213m-20.363-9.213l-2.387 5.614m22.75 3.599l5.407-7.917m-5.407 7.917l-6.989 8.695m6.989-8.695l30.487 9.271m-25.08-17.188l3.998-7.428m-3.998 7.428l31.35 7.514M230.36 197.37l2.819-6.824m-2.819 6.824l31.926 5.7m-64.081 6.046l-1.41 4.118m1.41-4.118l-4.516 1.901m3.106 2.217l17.171 8.176m-17.171-8.176l-3.393 9.961m20.564-1.785l-8.37 10.855m8.37-10.855l29.567 10.912m87.349-46.526l.661-14.079m-.661 14.079l-29.509 6.65m-68.194-1.9l1.668-6.276m-1.668 6.276l32.098 3.829m-82.086 159.417l8.456-26.171m-19.73-38.091l-6.731-3.224m6.731 3.224l12.425-23.522m-12.425 23.522l30.343 12.611m-37.074-15.835l-7.506 5.269m7.506-5.269l6.184-4.348 9.549-16.382m-23.239 25.999l-2.675 1.525m2.675-1.525l-15.158 7.111m15.158-7.111l11.13-15.404m24.592-52.976l-.748 2.764m.748-2.764l-6.673 5.068m5.925-2.304l12.942 6.306m-12.942-6.306l-3.078 10.97m16.02-4.664l-9.75 14.539m9.75-14.539l28.935 12.149M214.8 176.323l20.047 7.947m-20.047-7.947l3.078-4.664m16.969 12.611l.374-5.874m-.374 5.874l31.839 2.217m82.316-42.151l-19.961 14.914m19.961-14.914l-7.737-12.121M225.528 337.928l9.204-22.889m-9.204 22.889l-33.881-10.307m-2.071-90.692l-1.582 6.046m1.582-6.046l-8.686 7.946m7.104-1.9l7.852 3.829m-7.852-3.829l-2.042 7.716m9.894-3.887l-11.504 19.204m11.504-19.204l28.819 12.87m-6.787-88.015l17.343 6.737m-17.343-6.737l.575-.921m16.768 7.658l-.892-5.672m.892 5.672l31.091.864m86.227-66.508l-11.274 19.463m11.274-19.463l-13.633-9.702M184.342 266.008l-3.078-1.497m3.078 1.497l29.365 12.985m-32.443-14.482l-.345 1.065m.345-1.065l4.688-13.82m-5.033 14.885l-12.109 10.595m17.142-25.48l-10.469 9.962m156.06-88.936l-2.502-12.467m2.502 12.467l-29.106 9.731m-9.722 35.557l-7.478 12.755m7.478-12.755l5.407-12.553m-5.407 12.553l-35.003-4.693m27.525 17.448l-9.117 13.013m9.117-13.013l-33.795-7.774m24.678 20.787l-10.124 14.367m10.124-14.367l-32.587-10.451m22.463 24.818l-10.383 16.728m10.383-16.728l-31.465-12.726m-13.461-76.699l-2.617 3.023m2.617-3.023l13.259 5.009m-13.259-5.009l2.733-3.196m-5.35 6.219l3.049-6.737m12.827 8.723l-2.128-5.096m2.128 5.096l29.74-.345m-29.337 142.66l10.325-21.737m-10.325 21.737l-32.472-12.898m98.767-284.659L284.72 5.965m16.307 11.517l14.324 22.342m-14.324-22.342l-21.398-.633m5.091-10.884l-20.853.23m20.853-.23L264.184 3l-19.299.345m10.728 270.523l-10.556 19.434m10.556-19.434l-30.948-14.194m73.457-55.222l3.251-12.006m-3.251 12.006l-35.836-1.382m-70.639 124.551l10.613-25.48m42.797-8.839l-31.35-14.309M341.524 76.389l-2.618 26.661m2.618-26.661l-18.005-6.68m-22.146 122.737l1.064-10.998m-1.064 10.998l-36.096 1.929m-13.835 27.611l6.27-9.674m-6.27 9.674l-7.909 10.336m14.179-20.01l4.574-9.242m0 0l2.991-8.695m-21.744 37.947l-9.002 12.092m-10.728-79.895l8.398 3.109m-8.398-3.109l1.984-2.275m6.414 5.384l-3.423-4.29m3.423 4.29l27.841-1.209m5.235 27.956l1.409-7.888m-32.155 57.927l-9.866 15.26m42.021-73.187l-.374-7.227m.374 7.227l35.751-5.039m26.604-22.198l-27.956 12.38m27.956-12.38l-5.608-10.682M202.26 302.141l11.447-23.148m10.958-19.319l-10.958 19.319m88.73-97.545l-1.352-9.818m-72.307-8.292l-2.991-1.094m2.991 1.094l-2.416-1.727m2.416 1.727l25.569-1.583m-28.56.489l.374-.46m115.104-29.569l-17.832 16.353m17.832-16.353l-11.045-9.04m-63.908 56.085l-2.243-6.881m2.243 6.881l34.773-7.63M263.867 6.196l-18.982-2.85m18.982 2.85l15.762 10.653M263.867 6.196l-20.622 3.426m1.64-6.277l-19.357 3.37m89.823 33.109l8.168 29.885m-8.168-29.885l-20.853-2.246M264.069 172.38l-4.027-5.96m4.027 5.96l33.133-9.559m-70.84-1.209l-.201.173m.201-.173l2.215-1.843m-2.416 2.016l6.011-9.501m68.913 19.347l-3.883-8.81m41.704-59.77l-8.686 20.125m8.686-20.125l-15.531-6.162m-63.333 69.531l-5.695-4.664m5.695 4.664l30.919-10.825m32.472-7.026l-26.231 14.252m26.231-14.252l-8.456-8.464m-60.63 21.651l-6.989-3.254m6.989 3.254l28.359-11.401m14.496 12.466l-6.241-7.226M279.629 16.849l14.869 20.73m-14.869-20.73l-21.255 2.648m65.145 50.212l-.144 27.18m.144-27.18l-18.695-3.167m25.396 56.633l-15.243 16.929m15.243-16.929l-13.172-5.96m-88.471 42.553l18.781-1.267m-18.781 1.267l2.962-2.476m15.819 1.209l-7.478-1.669m7.478 1.669l25.684-11.257m17.919 8.35l-8.255-5.24m8.255 5.24l24.016-15.49m0 0l-10.642-5.874M243.245 9.622l-17.717-2.908m17.717 2.908l15.129 9.875m-15.129-9.875l-20.65 6.305m2.933-9.213l-19.759 6.19m19.759-6.19l-21.341 5.5-18.407 5.498m45.759 139.58l8.341-.46m-8.341.46l.547-.489m7.794.029l-7.363-.116m7.363.116l22.894-10.624m19.932 4.146l-9.664-3.11m9.664 3.11l21.629-16.124m-9.837-96.652l10.326 28.964m-10.326-28.964l-20.88 1.066m-67.849-25.74l-19.989 4.808m19.989-4.808l16.826 3.023m-16.826-3.023l-20.277 9.04m.288-4.232l-19.328 8.465m156.923 70.711l-6.327 20.327m6.327-20.327l-16.365-3.023m-74.493 62.851l-.431.087m.431-.087l20.162-9.501m-20.593 9.588l2.215-1.843m38.741-7.716l-10.268-1.036m10.268 1.036l19.242-16.296m24.764-13.733l-12.713 17.015m12.713-17.015l-14.324-3.11m1.611 20.125l-12.051-3.282m-33.91-111.45l15.244 19.146m-15.244-19.147l-21.053 5.643m67.503 41.402l2.186 27.323m-2.186-27.323l-18.983-.115m-23.067 79.781l-10.095 1.007m10.095-1.007l16.768-15.951m12.742.691l10.44-16.843m-10.44 16.843l-12.742-.691m-56.947-114.33l14.726 9.213m-14.726-9.213l-20.738 9.127m-16.365-3.11l-19.04 4.233m19.04-4.232l-20.651 11.689m20.651-11.69l16.365 3.11m-35.405 1.123l-19.932 11.2m106.159 109.838l-9.577 2.937m9.577-2.937l14.266-15.115m40.065-38.235l-4.286 20.24m4.286-20.24l-16.653-.317m-16.739-54.904l12.223 27.783m-12.223-27.784l-20.709 4.29m49.815 71.172l-14.754-.46m-53.669 41.315l8.801-4.808m-8.801 4.808l9.002-11.977m-.201 7.169l11.763-13.849m24.677-6.046l-12.597 1.843m12.597-1.843l8.428-16.612m-50.649-88.504l15.588 17.792M237.321 25.14l-20.881 8.667m69.401 32.62l4.516 27.121m-4.516-27.12l-18.954 3.08M164.841 33.634l-18.321 3.743m18.321-3.743l-20.909 14.28m20.909-14.28l16.193 3.253m-34.514.49l-20.219 13.82M266.945 132.1l-12.08 4.203m12.08-4.203l6.558-16.152m14.467-2.303l2.387-20.097m-2.387 20.097l-14.467 2.303m-71.646-90.894l14.583 8.753m-14.583-8.753l-20.823 11.833m109.323 56.661l-16.452 2.592m-20.996-53.207l13.978 26.575m-13.978-26.575l-20.478 7.601M106.283 67.291l-10.786 9.328-17.544 17.189m28.33-26.517L86.667 85.516m19.616-18.225l20.018-16.094M106.283 67.29l16.739-2.793m-45.07 29.31l8.715-8.292m-8.714 8.291L61.5 112.868m25.166-27.351l-18.925 20.441m18.925-20.441l15.618-2.16m152.58 52.947l-11.562 6.68m11.562-6.68l4.487-15.345m-115.42-73.044L126.3 51.197m17.631-3.282l-20.91 16.584m20.91-16.584l16.192 3.455M61.5 112.868l6.241-6.91m-6.241 6.91l-9.146 12.755m15.387-19.665l-15.387 19.665m15.387-19.665l14.122-1.209m191.639 11.2l.402-19.808m-.402 19.808l-14.151 5.01m-211.31 10.68l-1.38 1.929m1.38-1.929l-2.589 4.031m2.589-4.031l1.87-2.879m-3.25 4.808l-1.209 2.102m1.208-2.102l3.25-4.808m-4.458 6.91l-11.706 18.138M216.44 33.807l15.991 16.727M216.44 33.807l-20.68 11.631M52.355 125.622l-2.445 3.138m0 0l12.023.288m204.954-59.54l7.018 26.632m-7.018-26.632l-18.867 6.449m-4.717 67.026l-11.131 9.3m11.131-9.3l2.128-14.021M142.522 298.686l-17.142 6.708m17.142-6.708l11.074-16.497m27.438-245.302l14.726 8.551m-14.726-8.55l-20.91 14.481m113.781 44.77l-16.423 5.644M168.81 276.171l6.673-15.518m-6.673 15.518l-15.214 6.018M13.038 218.474l-2.704-10.567m2.704 10.567l-8.6 31.296m8.6-31.296l13.374-31.642m-13.374 31.642l14.61 11.315m-17.314-21.882l-4.688 27.87-1.208 13.993m5.896-41.863l9.808-27.323M4.438 249.77l13.604 13.503M4.438 249.77L3 279.885M123.022 64.498l-20.737 18.858m20.737-18.858l16.308 3.8m120.022 52.66l-1.87-19.175m1.87 19.175l-13.921 8.004m-13.259 23.321l-10.67 11.718m10.67-11.718l-.316-12.237m.575-89.512l15.589 25.423m-15.589-25.423l-20.047 10.97M15.569 294.223L3 279.885m12.569 14.338l9.865 21.939m-9.865-21.939l2.473-30.95m-2.473 30.95l23.067 11.747M3 279.885l9.808 20.989 12.626 15.288m0 0l21.772 11.344m78.174-22.112l-16.739 13.762m16.739-13.762l-23.038 6.219m23.038-6.219l9.549-19.549m-26.288 33.311l-19.126 9.243m12.77-245.043l-20.42 21.392m20.42-21.392l16.423 4.348m77.052-42.266l16.624 16.066M195.76 45.438l-20.507 14.453M26.412 186.833l-6.27-6.248m6.27 6.248l16.74-30.317m-16.74 30.317l15.474 9.04m-21.744-15.288l13.604-26.776m126.378-102.44L139.33 68.3m20.794-16.93l15.129 8.523M221.502 164l-10.096 14.05M221.502 164l-2.733-10.25m38.713-51.968l-9.462-25.826m9.462 25.826l-16.221 9.069m6.759-34.895l-18.494 10.048m15.905 42.957l-13.575 11.084m13.575-11.084l-4.17-18.11m-65.778 149.801l5.407-15.778m-5.407 15.778l-14.668 4.117M47.207 327.506l20.334 1.44h.748m-21.083-1.44l21.083 1.44m-21.083-1.44l-8.57-21.536m29.653 22.976l.661.028m12.914-224.226l-19.932 24.3m19.932-24.3l16.423 5.039m-55.136 46.728l-9.405-2.707m9.405 2.707l18.781-27.467m-18.78 27.467l16.077 7.313m152.177 14.223l-9.405 15.979m9.405-15.979l-5.004-8.177m-188.36 93.399l9.607-33.484m-9.607 33.484l23.01 11.66m112.544 7.256l-18.667 3.656m18.667-3.656l7.219-17.419m-122.18 41.2l31.696 7.256m-31.695-7.256l2.416-31.037m171.332-213.43l17.142 24.502m-17.142-24.501l-19.558 14.194m-130.893 53.35l16.365 6.017m102.592 109.81l5.839-16.612m-5.839 16.612l-13.374 1.612m-65.174 65.126l-12.827 16.786m12.827-16.786l-32.011 1.613m32.011-1.613l6.644-24.156m-19.471 40.942l-20.565.575m162.906-188.928l-13.087 13.705m13.087-13.705l-6.356-16.814m-86.17-54.933l-20.622 19.405m20.622-19.405l15.761 8.723m46.91 117.008l-8.312 16.987m8.312-16.987l-7.219-6.075m46.479-77.103l-11.735-24.847m11.735 24.847l-15.761 12.38m-50.247-63.34l17.573 15.806m-17.573-15.806l-20.162 17.13m31.638 151.241l6.96-17.246m-6.96 17.246l-11.591-1.123m18.551-16.123l-9.434-3.686m45.271-121.326l-17.89 13.503M27.649 229.79l14.237-33.917M27.649 229.79l22.031 11.228m169.089-87.266l-12.367 16.123m12.367-16.123l-8.369-15.346m-91.692-50.701l-20.42 22.083m20.42-22.083l16.595 9.012m-.374 189.129l-25.943 1.612m25.943-1.612l6.961-20.931m18.925-.144l6.701-18.283m-6.701 18.283l-18.925.144m83.61-141.682l-13.864-23.724m13.864 23.724l-15.1 15.173m-17.574-62.707l18.81 23.81m-18.81-23.81l-18.838 17.13M70.331 313.227l-1.38 15.748m1.38-15.748l3.71-28.59m81.05-207.614l18.897 15.807m-18.897-15.807l-19.788 19.694m71.099 73.158l-11.62 18.081m11.62-18.081l-10.297-13.762m-97.818-46.325l-19.99 25.278m19.99-25.278l17.573 9.472m-73.974 76.613l17.343-32.044m-17.343 32.044l20.88 10.711m-21.714 68.35l8.628-33.916m-8.628 33.916l32.99 9.703M211.635 99.508l-17.084 16.498m-27.036 130.481l7.622-19.347m-7.622 19.347l-17.976-3.598m60.86-104.484l-15.848-22.399m15.848 22.399l-14.295 17.707m-1.323 31.843l-10.527 19.376m10.527-19.376l-12.195-11.948m-104.29-40.942L59.23 163.828m19.069-28.763l18.637 9.933m12.051 142.459l-34.945-2.821m34.945 2.821l6.414-26.142M59.23 163.828l19.73 10.336m95.029-81.335l20.564 23.177m-20.564-23.177l-18.149 19.75m19.299 114.561l9.117-19.809m-9.117 19.809l-16.222-7.025m-23.613-123.4L115.86 119.26m19.443-22.543l20.536 15.863M141.89 264.914l7.65-22.025m-7.65 22.025l-26.49-3.599m68.855-53.984l-14.208-9.789m24.505-81.536l-16.135 19.146m17.688 20.96l-13.518 19.895m13.518-19.895l-17.688-20.96M49.68 241.017l13.087-34.434M49.68 241.017l31.379 11.948m-7.018 31.671l7.018-31.671m34.801-133.706l-18.925 25.739m18.925-25.739l22.406 15.893m17.573-22.573l22.578 22.573m-22.578-22.573l-17.573 22.573m11.274 107.737l9.376-22.774m-9.376 22.774l-25.454-8.897m58.501-57.985l-12.54 21.535m12.54-21.535l-19.586-19.204M115.4 261.315l8.686-27.323m-8.686 27.323l-34.341-8.35m97.358-117.813l-15.416 21.651m-4.085 63.312l11.131-22.573m-11.131 22.573l-23.555-13.388m-38.426-61.729L78.96 174.164m17.976-29.166l24.534 15.72m-58.702 45.865l16.192-32.419m-16.193 32.419l29.136 13.848m78.145-22.889l-21.542-16.756m-10.239-45.634l24.735 21.651m-24.735-21.651l-16.797 25.566m-42.51 13.446l26.777 15.086m57.265-32.447l-14.496 23.983M81.06 252.965l10.843-32.534m32.184 13.561l11.275-27.265m-11.275 27.265l-32.184-13.561m29.567-59.713l-15.733 28.532m15.733-28.532l27.036 20.068m0 0l-13.144 25.941m0 0l-29.625-17.477m-13.834 31.181l13.834-31.181" stroke="#063AC0" stroke-width="4.152" stroke-linecap="round" stroke-linejoin="round"/></svg>