<svg width="433" height="154" fill="none" xmlns="http://www.w3.org/2000/svg"><path d="M0 143h-1v1h1v-1zM0 3V2h-1v1h1zm106 0h1V2h-1v1zm0 29v1h1v-1h-1zm-75 0v-1h-1v1h1zm0 30.6h-1v1h1v-1zm70 0h1v-1h-1v1zm0 29v1h1v-1h-1zm-70 0v-1h-1v1h1zm0 51.4v1h1v-1h-1zm-30 0V3h-2v140h2zM0 4h106V2H0v2zm105-1v29h2V3h-2zm1 28H31v2h75v-2zm-76 1v30.6h2V32h-2zm1 31.6h70v-2H31v2zm69-1v29h2v-29h-2zm1 28H31v2h70v-2zm-71 1V143h2V91.6h-2zm1 50.4H0v2h31v-2zm91.411 1l-.916-.402-.615 1.402h1.531v-1zm61.4-140V2h-.653l-.263.598.916.402zm23 0l.916-.402-.263-.598h-.653v1zm61.4 140v1h1.53l-.614-1.402-.916.402zm-32.4 0l-.916.402.263.598h.653v-1zm-11.4-26l.916-.402-.263-.598h-.653v1zm-58.6 0v-1h-.653l-.263.598.916.402zm-11.4 26v1h.653l.263-.598-.916-.402zm40.6-94l.918-.395-.908-2.11-.925 2.102.915.403zm-18.4 41.8l-.915-.403-.618 1.403h1.533v-1zm36.4 0v1h1.519l-.601-1.395-.918.395zm-89.684 52.602l61.4-140-1.832-.804-61.4 140 1.832.804zM183.811 4h23V2h-23v2zm22.084-.598l61.4 140 1.832-.804-61.4-140-1.832.804zM268.211 142h-32.4v2h32.4v-2zm-31.484.598l-11.4-26-1.832.804 11.4 26 1.832-.804zM224.411 116h-58.6v2h58.6v-2zm-59.516.598l-11.4 26 1.832.804 11.4-26-1.832-.804zM154.411 142h-32v2h32v-2zm39.685-93.403l-18.4 41.8 1.83.806 18.4-41.8-1.83-.806zM176.611 91.8h36.4v-2h-36.4v2zm37.318-1.395l-18-41.8-1.837.79 18 41.8 1.837-.79zm95.14-68.805l.712.702.005-.005-.717-.697zm103.4-.4l.712-.702-.712.702zm1.8 100.2l-.729-.684-.598.636.55.678.777-.63zm12 14.8l.627.779.781-.63-.631-.779-.777.63zm-21.6 17.4l-.773.634.628.766.772-.621-.627-.779zm-12.8-15.6l.773-.634-.495-.603-.705.333.427.904zm-83.4-12.4l.707-.707-.005-.005-.702.712zm23.4-21.8l.725-.688-.009-.01-.009-.009-.707.707zm42.8 9l.378.926 1.296-.531-.922-1.054-.752.659zm-11.2-12.8l-.647-.763-.775.657.669.765.753-.659zm19.6-16.6l.772-.636-.645-.782-.774.655.647.763zm11.2 13.6l-.772.636.842 1.023.753-1.091-.823-.568zm-5-54.8l.725-.688-.009-.01-.009-.01-.707.708zm-57.4 0l.716.698-.716-.698zm-42.4 30.8c0-20.15 6.704-36.893 20.312-50.698l-1.424-1.404C294.364 35.093 287.469 52.349 287.469 73h2zm20.317-50.703C323.184 8.504 340.119 1.6 360.669 1.6v-2c-21.051 0-38.516 7.096-52.318 21.303l1.435 1.394zM360.669 1.6c20.955 0 37.891 6.909 51.087 20.302l1.425-1.404C399.577 6.691 382.113-.4 360.669-.4v2zm51.087 20.302C424.955 35.298 431.669 52.438 431.669 73h2c0-21.038-6.887-38.698-20.488-52.502l-1.425 1.404zM431.669 73c0 18.965-6.116 34.914-18.129 47.716l1.458 1.368c12.386-13.198 18.671-29.649 18.671-49.084h-2zm-18.177 49.03l12 14.8 1.554-1.26-12-14.8-1.554 1.26zm12.149 13.391l-21.6 17.4 1.255 1.558 21.6-17.4-1.255-1.558zm-20.199 17.545l-12.8-15.6-1.546 1.268 12.8 15.6 1.546-1.268zm-14-15.87c-10.48 4.943-20.735 7.304-30.773 7.304v2c10.362 0 20.907-2.439 31.626-7.496l-.853-1.808zm-30.773 7.304c-21.38 0-38.51-6.524-51.493-19.507l-1.414 1.414c13.417 13.417 31.087 20.093 52.907 20.093v-2zm-51.498-19.512C295.995 111.909 289.469 94.584 289.469 73h-2c0 22.016 6.673 39.891 20.298 53.312l1.404-1.424zM319.669 73c0 12.992 3.659 23.674 11.493 31.507l1.414-1.414c-7.367-7.367-10.907-17.485-10.907-30.093h-2zm11.474 31.488c7.613 8.024 17.488 11.912 29.526 11.912v-2c-11.562 0-20.887-3.712-28.075-11.288l-1.451 1.376zm29.526 11.912c4.908 0 9.84-.818 14.378-2.674l-.757-1.852c-4.261 1.744-8.93 2.526-13.621 2.526v2zm14.752-4.259l-11.2-12.8-1.505 1.318 11.2 12.799 1.505-1.317zm-11.306-11.378l19.6-16.6-1.293-1.526-19.6 16.6 1.293 1.526zm18.182-16.727l11.2 13.6 1.544-1.272-11.2-13.6-1.544 1.272zm12.795 13.532c4.148-6.015 6.377-14.233 6.377-24.568h-2c0 10.065-2.172 17.847-6.023 23.432l1.646 1.136zM401.469 73c0-13.013-3.871-23.474-11.475-31.488l-1.451 1.376c7.197 7.586 10.926 17.525 10.926 30.112h2zm-11.493-31.507c-7.791-7.79-17.447-11.893-29.307-11.893v2c11.339 0 20.483 3.898 27.893 11.307l1.414-1.414zM360.669 29.6c-12.05 0-21.915 4.095-29.517 11.902l1.433 1.396c7.199-7.393 16.534-11.298 28.084-11.298v-2zm-29.516 11.902C323.333 49.528 319.669 60 319.669 73h2c0-12.6 3.536-22.528 10.916-30.102l-1.432-1.396z" fill="#063AC0"/></svg>