<svg width="30" height="20" fill="none" xmlns="http://www.w3.org/2000/svg"><rect width="30" height="20" rx="2" fill="#fff"/><mask id="mask0_1_3002" style="mask-type:luminance" maskUnits="userSpaceOnUse" x="0" y="0" width="30" height="20"><rect width="30" height="20" rx="2" fill="#fff"/></mask><g mask="url(#mask0_1_3002)"><path fill-rule="evenodd" clip-rule="evenodd" d="M30 0H0v1.333h30V0zm0 2.667H0V4h30V2.667zM0 5.333h30v1.334H0V5.333zM30 8H0v1.333h30V8zM0 10.667h30V12H0v-1.333zm30 2.666H0v1.334h30v-1.334zM0 16h30v1.333H0V16zm30 2.667H0V20h30v-1.333z" fill="#D02F44"/><path fill="#46467F" d="M0 0h12.857v9.333H0z"/><g filter="url(#filter0_d_1_3002)"><path fill-rule="evenodd" clip-rule="evenodd" d="M2.857 2c0 .368-.32.666-.714.666-.395 0-.715-.298-.715-.666 0-.369.32-.667.715-.667.394 0 .714.298.714.667zm2.857 0c0 .368-.32.666-.714.666-.395 0-.714-.298-.714-.666 0-.369.32-.667.714-.667.394 0 .714.298.714.667zm2.143.666c.395 0 .714-.298.714-.666 0-.369-.32-.667-.714-.667-.394 0-.714.298-.714.667 0 .368.32.666.714.666zM11.428 2c0 .368-.32.666-.714.666C10.32 2.666 10 2.368 10 2c0-.369.32-.667.714-.667.395 0 .714.298.714.667zM3.571 4c.395 0 .715-.299.715-.667 0-.368-.32-.667-.715-.667-.394 0-.714.299-.714.667 0 .368.32.667.714.667zm3.572-.667c0 .368-.32.667-.715.667-.394 0-.714-.299-.714-.667 0-.368.32-.667.714-.667.395 0 .715.299.715.667zM9.286 4C9.68 4 10 3.7 10 3.333c0-.368-.32-.667-.714-.667-.395 0-.715.299-.715.667 0 .368.32.667.715.667zm2.143.666c0 .369-.32.667-.715.667-.394 0-.714-.298-.714-.667 0-.368.32-.666.714-.666.395 0 .714.298.714.666zm-3.572.667c.395 0 .714-.298.714-.667 0-.368-.32-.666-.714-.666-.394 0-.714.298-.714.666 0 .369.32.667.714.667zm-2.143-.667c0 .369-.32.667-.714.667-.395 0-.714-.298-.714-.667 0-.368.32-.666.714-.666.394 0 .714.298.714.666zm-3.571.667c.394 0 .714-.298.714-.667 0-.368-.32-.666-.714-.666-.395 0-.715.298-.715.666 0 .369.32.667.715.667zM4.286 6c0 .368-.32.666-.715.666-.394 0-.714-.298-.714-.666 0-.369.32-.667.714-.667.395 0 .715.298.715.667zm2.142.666c.395 0 .715-.298.715-.666 0-.369-.32-.667-.715-.667-.394 0-.714.298-.714.667 0 .368.32.666.714.666zM10 6c0 .368-.32.666-.714.666-.395 0-.715-.298-.715-.666 0-.369.32-.667.715-.667.394 0 .714.298.714.667zm.714 2c.395 0 .714-.299.714-.667 0-.368-.32-.667-.714-.667-.394 0-.714.299-.714.667 0 .368.32.667.714.667zm-2.143-.667c0 .368-.32.667-.714.667-.394 0-.714-.299-.714-.667 0-.368.32-.667.714-.667.395 0 .714.299.714.667zM5 8c.394 0 .714-.299.714-.667 0-.368-.32-.667-.714-.667-.395 0-.714.299-.714.667 0 .368.32.667.714.667zm-2.143-.667c0 .368-.32.667-.714.667-.395 0-.715-.299-.715-.667 0-.368.32-.667.715-.667.394 0 .714.299.714.667z" fill="url(#paint0_linear_1_3002)"/></g></g><defs><linearGradient id="paint0_linear_1_3002" x1="1.428" y1="1.333" x2="1.428" y2="8" gradientUnits="userSpaceOnUse"><stop stop-color="#fff"/><stop offset="1" stop-color="#F0F0F0"/></linearGradient><filter id="filter0_d_1_3002" x="1.428" y="1.333" width="10" height="7.667" filterUnits="userSpaceOnUse" color-interpolation-filters="sRGB"><feFlood flood-opacity="0" result="BackgroundImageFix"/><feColorMatrix in="SourceAlpha" values="0 0 0 0 0 0 0 0 0 0 0 0 0 0 0 0 0 0 127 0" result="hardAlpha"/><feOffset dy="1"/><feColorMatrix values="0 0 0 0 0 0 0 0 0 0 0 0 0 0 0 0 0 0 0.06 0"/><feBlend in2="BackgroundImageFix" result="effect1_dropShadow_1_3002"/><feBlend in="SourceGraphic" in2="effect1_dropShadow_1_3002" result="shape"/></filter></defs></svg>