<svg width="130" height="121" fill="none" xmlns="http://www.w3.org/2000/svg"><path opacity=".2" d="M118 55.333C118 84.623 63.877 97 34.357 97c-29.52 0-27.412-74 0-74S118 26.043 118 55.333z" fill="#063AC0"/><path opacity=".2" d="M106.862 26.863c16.265 24.334-22.175 64.904-46.89 81.423-24.716 16.519-64.043-46.142-41.093-61.481 22.95-15.34 71.719-44.277 87.983-19.942z" fill="#063AC0"/><path opacity=".2" d="M114.38 80.682c-14.116 25.641-67.827 10.193-93.87-4.143C-5.53 62.203 31.99-1.555 56.174 11.757c24.182 13.313 72.322 43.284 58.207 68.925z" fill="#063AC0"/><path d="M34 53.481a17.24 17.24 0 014.98-10.523c6.752-6.759 17.7-6.759 24.452 0l5.302 5.306L44.947 72.07a.941.941 0 01-1.332 0l-4.635-4.64a17.237 17.237 0 01-4.94-10.16M91 52.036a17.24 17.24 0 00-4.974-10.468l-4.636-4.64a.941.941 0 00-1.332 0L56.272 60.737l5.301 5.306c6.752 6.759 17.7 6.759 24.453 0a17.236 17.236 0 004.909-9.915m-30.32 9.105L47.177 78.68m30.651-48.362L64.391 43.77m-11.25 7.96a5.4 5.4 0 01-5.397 5.403 5.4 5.4 0 01-5.398-5.403 5.4 5.4 0 015.398-5.402 5.4 5.4 0 015.397 5.402zm12.547-19.541a3.186 3.186 0 01-3.185 3.187 3.186 3.186 0 01-3.185-3.188A3.186 3.186 0 0162.503 29a3.186 3.186 0 013.185 3.188zm0 44.624A3.186 3.186 0 0162.503 80a3.186 3.186 0 01-3.185-3.188 3.186 3.186 0 013.185-3.187 3.186 3.186 0 013.185 3.188zm16.971-19.541a5.4 5.4 0 01-5.397 5.402 5.4 5.4 0 01-5.398-5.402 5.4 5.4 0 015.398-5.403 5.4 5.4 0 015.397 5.403z" stroke="#fff" stroke-width="2" stroke-miterlimit="10" stroke-linecap="round" stroke-linejoin="round"/></svg>