<svg width="130" height="121" fill="none" xmlns="http://www.w3.org/2000/svg"><path opacity=".2" d="M118 55.333C118 84.623 63.877 97 34.357 97c-29.52 0-27.412-74 0-74S118 26.043 118 55.333z" fill="#063AC0"/><path opacity=".2" d="M106.862 26.863c16.265 24.334-22.175 64.904-46.89 81.423-24.716 16.519-64.043-46.142-41.093-61.481 22.95-15.34 71.719-44.277 87.983-19.942z" fill="#063AC0"/><path opacity=".2" d="M114.38 80.682c-14.116 25.641-67.827 10.193-93.87-4.143C-5.53 62.203 31.99-1.555 56.174 11.757c24.182 13.313 72.322 43.284 58.207 68.925z" fill="#063AC0"/><path d="M38 46.19v31.94c0 .245.059.477.164.681.109.214.4.253.57.083l18.558-18.558m11.352-11.352l18.25-18.25a.358.358 0 00-.083-.57A1.491 1.491 0 0086.13 30H39.498C38.67 30 38 30.67 38 31.498v11.241m39.482-2.544a.217.217 0 00-.05-.346.904.904 0 00-.413-.1H48.756a.908.908 0 00-.908.908V68.92c0 .149.036.29.1.413.066.13.242.153.345.05M87 65.898v-14.21c-.002-.31-.387-.456-.606-.237L59.45 78.394c-.219.219-.073.603.237.606H86.15c.47 0 .85-.38.85-.85v-8.8m-24.64-7.919L45.696 78.096a.53.53 0 00.374.904h6.904a.53.53 0 00.375-.155l33.496-33.496a.53.53 0 00.155-.374V38.07a.53.53 0 00-.904-.375L69.54 54.251m-.11-.897a8.077 8.077 0 11-16.153 0 8.077 8.077 0 0116.153 0z" stroke="#fff" stroke-width="2" stroke-miterlimit="10" stroke-linecap="round" stroke-linejoin="round"/></svg>