<svg width="130" height="121" fill="none" xmlns="http://www.w3.org/2000/svg"><path opacity=".2" d="M117.839 55.333C117.839 84.623 63.378 97 33.673 97c-29.706 0-27.584-74 0-74s84.166 3.043 84.166 32.333z" fill="#063AC0"/><path opacity=".2" d="M106.632 26.863c16.366 24.334-22.315 64.904-47.185 81.423-24.87 16.519-64.444-46.142-41.35-61.481 23.095-15.34 72.168-44.277 88.535-19.942z" fill="#063AC0"/><path opacity=".2" d="M114.196 80.682c-14.203 25.641-68.251 10.193-94.457-4.143C-6.466 62.203 31.291-1.555 55.625 11.757 79.959 25.07 128.4 55.041 114.196 80.682z" fill="#063AC0"/><path d="M81.41 69.656c-.562 0-1.105.074-1.622.212l-8.725-17.255 3.88-7.675a9.42 9.42 0 003.33.607c5.172 0 9.378-4.16 9.378-9.273 0-5.112-4.206-9.272-9.377-9.272s-9.378 4.16-9.378 9.272c0 3.373 1.832 6.33 4.562 7.953l-3.318 6.563-8.591-16.99a2.467 2.467 0 00-2.216-1.354c-.944 0-1.793.519-2.216 1.354l-4.955 9.8c-2.25-.082-3.736-.658-5.816-2.603a2.979 2.979 0 00-2.569-.762 2.946 2.946 0 00-2.144 1.581l-6.25 12.362a.812.812 0 00.368 1.095.83.83 0 001.108-.365l6.25-12.362c.19-.374.538-.631.955-.704.42-.073.838.051 1.148.34 1.933 1.808 3.441 2.725 6.163 2.975L40.699 66.268c-2.719-.414-5.283-1.374-6.94-2.1a1.332 1.332 0 01-.662-1.822l2.025-4.007a.812.812 0 00-.369-1.095.83.83 0 00-1.107.365l-2.026 4.006a2.916 2.916 0 00-.14 2.336c.28.77.853 1.378 1.61 1.71 1.645.72 4.13 1.653 6.838 2.13l-3.233 6.395a2.41 2.41 0 00.109 2.383 2.467 2.467 0 002.106 1.161h17.606l-1.562 3.089a.812.812 0 00.37 1.095.828.828 0 001.107-.365l1.93-3.819h13.842a.82.82 0 00.826-.816.82.82 0 00-.826-.816H59.187l10.953-21.66L78.262 70.5c-1.85 1.072-3.095 3.058-3.095 5.327 0 3.403 2.8 6.172 6.242 6.172s6.242-2.769 6.242-6.172c0-3.404-2.8-6.172-6.242-6.172zM70.546 36.272c0-4.212 3.466-7.64 7.727-7.64 4.26 0 7.726 3.428 7.726 7.64 0 4.213-3.466 7.64-7.726 7.64a7.77 7.77 0 01-2.588-.442l3.326-6.578a.812.812 0 00-.37-1.095.83.83 0 00-1.106.365l-3.337 6.598c-2.19-1.35-3.652-3.753-3.652-6.488zm-17.362 8.954a33.06 33.06 0 001.57-.045c3.291-.17 5.148 2.155 5.526 4.532.525 3.299-1.494 5.368-3.727 5.956-5.832 1.537-6.584 4.445-7.189 6.782-.46 1.776-.791 3.06-3.262 3.688-1.17.298-2.41.376-3.65.311l10.731-21.224zm4.156 30.872H38.91a.816.816 0 01-.703-.387.798.798 0 01-.036-.795l3.484-6.892c.535.05 1.073.077 1.61.077 1.1 0 2.195-.113 3.248-.38 3.417-.87 3.966-2.993 4.45-4.866.575-2.22 1.117-4.318 6.015-5.608 4.07-1.072 5.41-4.788 4.933-7.788-.264-1.66-1.058-3.16-2.235-4.223-1.452-1.335-3.5-1.867-5.66-1.656l4.577-9.052a.812.812 0 01.74-.452c.319 0 .595.17.738.452l9.145 18.084L57.34 76.098zm24.068 4.27c-2.532 0-4.591-2.037-4.591-4.54 0-2.504 2.06-4.54 4.591-4.54 2.532 0 4.591 2.036 4.591 4.54 0 2.503-2.06 4.54-4.59 4.54z" fill="#fff"/></svg>