<svg width="569" height="420" fill="none" xmlns="http://www.w3.org/2000/svg"><g clip-path="url(#clip0_1_626)"><path d="M436.08 261.531c-24.976 76.22-91.58 133.636-155.886 136.364-93.159 3.875-183.447-111.962-144.547-220.192 45.359-126.028 111.532-166.22 198.662-122.01 71.484 36.173 142.537 81.819 101.771 205.838z" stroke="#0062D8" stroke-width=".75" stroke-miterlimit="10"/><path d="M133.493 178.134C176.269 45.79 252.489 12.632 339.045 54.833c74.211 36.172 142.968 85.263 98.183 208.134-27.273 75.215-96.748 134.641-163.207 135.359-92.011.861-174.834-113.972-140.528-220.192z" stroke="#0062D8" stroke-width=".75" stroke-miterlimit="10"/><path d="M131.341 178.565C171.532 39.905 257.801 13.78 343.783 53.972 420.578 90 487.181 142.68 438.52 264.259c-29.569 74.21-101.914 135.789-170.671 134.354-90.718-2.01-166.652-115.981-136.508-220.048z" stroke="#0062D8" stroke-width=".75" stroke-miterlimit="10"/><path d="M129.331 178.996C166.508 33.732 263.399 14.786 348.52 53.11c79.665 35.886 143.972 92.154 91.149 212.441-31.867 73.205-107.083 136.937-178.136 133.205-89.283-4.449-158.47-117.846-132.202-219.76z" stroke="#0062D8" stroke-width=".75" stroke-miterlimit="10"/><path d="M127.178 179.426C161.341 27.704 268.854 15.79 353.256 52.393c82.393 35.454 144.547 95.454 87.705 214.593-34.163 72.344-112.25 138.23-185.457 132.201-88.278-7.177-150.862-120.144-128.326-219.761z" stroke="#0062D8" stroke-width=".75" stroke-miterlimit="10"/><path d="M125.026 179.713C155.887 21.244 274.31 16.651 357.994 51.388c85.121 35.31 144.978 98.899 84.116 216.89-36.603 71.34-117.274 139.521-192.92 131.196-86.843-9.474-143.112-122.44-124.164-219.761z" stroke="#0062D8" stroke-width=".75" stroke-miterlimit="10"/><path d="M122.871 180.144C150 14.928 279.762 17.656 362.73 50.67c87.991 34.88 145.551 102.345 80.67 219.043-38.9 70.335-122.441 141.101-200.241 130.192-85.694-11.914-135.934-124.881-120.288-219.761z" stroke="#0062D8" stroke-width=".75" stroke-miterlimit="10"/><path d="M120.718 180.574C143.828 8.613 285.217 18.517 367.466 49.809c90.718 34.593 146.126 105.789 77.082 221.34-41.196 69.33-127.609 142.679-207.705 129.186-84.403-14.21-128.47-127.32-116.125-219.761z" stroke="#0062D8" stroke-width=".75" stroke-miterlimit="10"/><path d="M118.564 181.005C137.225 2.153 290.815 19.235 372.059 48.948c93.59 34.162 146.557 109.234 73.637 223.493-43.493 68.468-132.776 144.258-215.169 128.181-82.967-16.363-121.293-129.617-111.963-219.617z" stroke="#0062D8" stroke-width=".75" stroke-miterlimit="10"/><path d="M116.413 181.436C130.336-4.163 296.414 20.096 376.941 48.086c96.461 33.589 147.131 112.68 70.049 225.646-45.79 67.464-137.944 145.981-222.49 127.177-81.962-18.373-114.546-131.914-108.087-219.473z" stroke="#0062D8" stroke-width=".75" stroke-miterlimit="10"/><path d="M114.259 181.866c8.756-192.488 187.609-161.052 267.275-134.64 99.331 33.013 147.705 116.123 66.603 227.942-48.086 66.459-143.254 147.847-229.954 126.172-80.67-20.383-107.656-134.354-103.924-219.474z" stroke="#0062D8" stroke-width=".75" stroke-miterlimit="10"/><path d="M449.429 276.46c-50.526 65.454-148.566 149.856-237.274 125.023-79.81-22.105-101.198-136.507-100.049-219.186C115.12-16.938 307.323 21.387 386.271 46.364c102.345 32.44 148.279 119.569 63.158 230.096z" stroke="#0062D8" stroke-width=".75" stroke-miterlimit="10"/><path d="M295.408 345.215c-64.737 8.756-133.35 5.024-161.484-32.009-40.766-53.828 24.115-198.948 115.407-220.192 106.365-24.688 123.159 51.819 138.518 120.288 15.646 69.76-8.181 120.574-92.441 131.913z" stroke="#40C5FF" stroke-width=".75" stroke-miterlimit="10"/><path d="M248.326 91.58c109.092-27.991 127.466 56.554 141.963 123.444 16.795 78.23-7.894 122.44-95.886 132.345-64.881 7.32-139.092 2.153-166.652-37.034-38.325-54.402 32.297-196.22 120.575-218.756z" stroke="#40C5FF" stroke-width=".75" stroke-miterlimit="10"/><path d="M247.322 90.144c111.963-31.292 131.628 61.148 145.264 126.603 17.943 86.411-7.607 124.162-99.331 132.488-65.024 5.885-144.977-.575-171.963-41.914-35.598-54.689 40.766-193.35 126.03-217.177z" stroke="#40C5FF" stroke-width=".75" stroke-miterlimit="10"/><path d="M246.462 88.708c114.69-34.736 135.79 65.886 148.565 129.761 19.092 94.881-7.32 126.172-102.919 132.775-65.168 4.594-150.719-3.301-177.131-46.938-33.158-54.976 49.092-190.622 131.485-215.598z" stroke="#40C5FF" stroke-width=".75" stroke-miterlimit="10"/><path d="M245.457 87.416c117.561-38.325 139.81 70.623 152.011 133.063 20.096 103.205-7.033 128.038-106.364 133.062-65.168 3.301-156.748-6.029-182.299-51.962C77.8 246.173 166.079 113.254 245.457 87.416z" stroke="#40C5FF" stroke-width=".75" stroke-miterlimit="10"/><path d="M244.451 85.981c120.288-42.057 143.973 75.359 155.312 136.22 20.957 111.531-6.746 130.048-109.809 133.206-65.312 2.009-162.633-8.613-187.609-56.842-28.565-55.551 65.742-185.742 142.106-212.584z" stroke="#40C5FF" stroke-width=".75" stroke-miterlimit="10"/><path d="M243.589 84.69c123.016-45.934 147.848 80.095 158.758 139.377 21.818 119.857-6.46 132.201-113.398 133.493-65.456.718-168.662-11.34-192.777-61.866C69.617 240 169.952 112.106 243.589 84.689z" stroke="#40C5FF" stroke-width=".75" stroke-miterlimit="10"/><path d="M242.585 83.254c125.599-50.096 151.868 84.689 162.203 142.536 22.679 128.325-6.173 134.354-116.843 133.78-65.456-.287-174.834-13.924-198.088-66.747-24.546-55.837 82.106-181.435 152.728-209.57z" stroke="#40C5FF" stroke-width=".75" stroke-miterlimit="10"/><path d="M241.724 81.819c128.183-54.259 155.887 89.569 165.504 145.837 23.397 136.65-5.885 136.507-120.288 134.067-65.599-1.436-181.006-16.364-203.255-71.771-22.68-55.98 90-179.425 158.039-208.133z" stroke="#40C5FF" stroke-width=".75" stroke-miterlimit="10"/><path d="M240.718 80.526C371.341 21.818 400.48 174.69 409.523 229.522c24.115 145.119-5.598 138.803-123.876 134.21-65.742-2.584-187.179-18.947-208.423-76.651-20.527-56.124 98.326-177.416 163.494-206.555z" stroke="#40C5FF" stroke-width=".75" stroke-miterlimit="10"/><path d="M239.715 79.091c132.92-63.301 163.638 98.9 172.25 152.153 24.689 153.445-5.311 141.244-127.321 134.498-65.886-3.589-193.639-21.388-213.734-81.675-18.66-56.124 106.364-175.263 168.805-204.976z" stroke="#40C5FF" stroke-width=".75" stroke-miterlimit="10"/><path d="M283.638 367.751c-65.886-4.593-200.097-23.971-218.901-86.698-16.938-56.125 114.259-173.254 174.116-203.397C374.069 9.617 406.366 181.292 414.405 232.967c25.119 161.914-5.024 143.684-130.767 134.784z" stroke="#40C5FF" stroke-width=".75" stroke-miterlimit="10"/><path opacity=".4" d="M506.846 170.957c9.038 0 16.364-7.326 16.364-16.364 0-9.037-7.326-16.363-16.364-16.363-9.037 0-16.363 7.326-16.363 16.363 0 9.038 7.326 16.364 16.363 16.364zm-88.279 227.656c9.037 0 16.364-7.327 16.364-16.364 0-9.038-7.327-16.364-16.364-16.364-9.038 0-16.364 7.326-16.364 16.364 0 9.037 7.326 16.364 16.364 16.364zM392.3 28.421c7.849 0 14.211-6.362 14.211-14.21C406.511 6.361 400.149 0 392.3 0c-7.848 0-14.21 6.362-14.21 14.21 0 7.849 6.362 14.211 14.21 14.211zM172.108 420a8.182 8.182 0 100-16.365 8.182 8.182 0 000 16.365zm144.976-126.459a8.182 8.182 0 008.182-8.182 8.182 8.182 0 00-8.182-8.182 8.182 8.182 0 00-8.182 8.182 8.182 8.182 0 008.182 8.182zM426.75 30.574a8.182 8.182 0 100-16.364 8.182 8.182 0 100 16.364zM8.182 274.593a8.182 8.182 0 100-16.364 8.182 8.182 0 000 16.364zm552.492 35.455a8.182 8.182 0 008.182-8.182 8.182 8.182 0 00-8.182-8.182 8.182 8.182 0 00-8.182 8.182 8.182 8.182 0 008.182 8.182zM94.881 62.01a8.182 8.182 0 100-16.364 8.182 8.182 0 000 16.364z" fill="#063AC0"/></g><defs><clipPath id="clip0_1_626"><path fill="#fff" d="M0 0h569v420H0z"/></clipPath></defs></svg>