<svg width="223" height="40" fill="none" xmlns="http://www.w3.org/2000/svg"><path d="M58.518.8c0-.442-.365-.8-.816-.8a.808.808 0 00-.816.8v38.4c0 .442.365.8.816.8.45 0 .816-.358.816-.8V.8zM27.712 11.555a1.319 1.319 0 00-.498-1.822 1.376 1.376 0 00-1.858.488L14.576 28.52a1.32 1.32 0 00.499 1.822c.65.368 1.483.15 1.858-.489l10.779-18.297zm-18.002.19a1.316 1.316 0 00-.255-1.869 1.379 1.379 0 00-1.907.25L.28 19.45a1.316 1.316 0 00.254 1.87 1.381 1.381 0 001.907-.25l7.27-9.324z" fill="#fff"/><path d="M9.745 28.74c.459.583.348 1.42-.247 1.87a1.38 1.38 0 01-1.908-.243L.283 21.073a1.316 1.316 0 01.247-1.87 1.379 1.379 0 011.908.242l7.307 9.295zm22.678-16.995a1.316 1.316 0 01.255-1.869 1.379 1.379 0 011.907.25l7.27 9.323a1.316 1.316 0 01-.256 1.87 1.379 1.379 0 01-1.907-.25l-7.269-9.324z" fill="#fff"/><path d="M32.389 28.74a1.316 1.316 0 00.247 1.87 1.38 1.38 0 001.908-.243l7.307-9.294a1.316 1.316 0 00-.248-1.87 1.379 1.379 0 00-1.907.242l-7.307 9.295zm66.831 3.065c0 .486-.294.728-.881.728h-4.145c-.437 0-.921-.152-1.45-.457-.519-.316-.916-.694-1.192-1.134l-2.936-4.502c-1.21-1.851-2.671-2.777-4.387-2.777h-4.214v7.28c0 .44-.161.817-.484 1.133-.31.305-.69.457-1.14.457h-3.246c-.45 0-.835-.152-1.158-.457a1.533 1.533 0 01-.483-1.134V9.868c0-.44.155-.818.466-1.134.311-.316.69-.474 1.14-.474h14.248c2.637 0 4.796.694 6.477 2.082 1.693 1.388 2.539 3.261 2.539 5.62 0 3.284-2.17 5.343-6.512 6.178.692.248 1.33.677 1.918 1.287.587.598 1.26 1.472 2.02 2.623l3.144 4.892c.184.316.276.604.276.863zM80.015 18.873h7.357c1.186 0 2.228-.231 3.126-.694.91-.462 1.364-1.202 1.364-2.217 0-1.016-.454-1.755-1.364-2.218-.898-.462-1.94-.694-3.126-.694h-7.357v5.823zm22.089 12.035V9.834c0-.44.161-.812.484-1.117a1.625 1.625 0 011.157-.457h19.913c.449 0 .829.158 1.14.474.323.316.484.694.484 1.134v1.591c0 .44-.161.818-.484 1.134a1.567 1.567 0 01-1.14.457h-15.043v4.926h12.953c.449 0 .83.158 1.14.474.323.305.484.677.484 1.117v1.591c0 .44-.161.819-.484 1.134-.31.305-.691.457-1.14.457h-12.953v4.994h15.009c.437 0 .812.152 1.122.457.311.305.467.677.467 1.117v1.625c0 .44-.161.818-.484 1.134a1.625 1.625 0 01-1.157.457h-19.827c-.449 0-.835-.152-1.157-.457a1.57 1.57 0 01-.484-1.168zm26.356 0V9.834c0-.44.161-.812.483-1.117a1.626 1.626 0 011.157-.457h19.913c.449 0 .83.158 1.14.474.323.316.484.694.484 1.134v1.591c0 .44-.161.818-.484 1.134-.31.305-.691.457-1.14.457h-15.042v5.959h12.245c.449 0 .829.158 1.139.474.323.316.484.688.484 1.117v1.608c0 .44-.161.818-.484 1.134-.31.305-.69.457-1.139.457h-12.245v7.11c0 .462-.162.851-.484 1.167a1.567 1.567 0 01-1.14.457H130.1c-.449 0-.834-.152-1.157-.457a1.572 1.572 0 01-.483-1.168zm26.01.068V9.868c0-.44.161-.818.483-1.134a1.594 1.594 0 011.157-.474h3.212c.473 0 .864.158 1.175.474.322.316.484.694.484 1.134v21.074c0 .44-.168.818-.501 1.134a1.629 1.629 0 01-1.158.457h-3.212c-.449 0-.835-.146-1.157-.44a1.479 1.479 0 01-.483-1.117zm11.467-.034V9.868c0-.44.156-.818.467-1.134.31-.316.69-.474 1.14-.474h5.077c.403 0 .829.158 1.278.474.449.316.817.694 1.105 1.134l10.432 15.725V9.834c0-.44.155-.812.466-1.117a1.629 1.629 0 011.158-.457h2.97c.449 0 .829.152 1.14.457.322.305.483.688.483 1.151v21.074c0 .44-.161.818-.483 1.134a1.567 1.567 0 01-1.14.457h-5.734c-.449 0-.91-.152-1.381-.457a3.776 3.776 0 01-1.123-1.134l-9.551-14.523v14.523c0 .44-.161.818-.483 1.134a1.569 1.569 0 01-1.14.457h-3.04c-.449 0-.835-.152-1.157-.457a1.53 1.53 0 01-.484-1.134zm53.523-.914c-2.349 2.02-5.803 3.03-10.363 3.03-4.548 0-8.002-1.01-10.362-3.03-2.361-2.031-3.541-5.242-3.541-9.631 0-4.39 1.18-7.595 3.541-9.615 2.36-2.02 5.814-3.03 10.362-3.03 4.56 0 8.014 1.01 10.363 3.03 2.36 2.02 3.54 5.225 3.54 9.615 0 4.39-1.18 7.6-3.54 9.631zm-4.716-15.674c-1.162-1.354-3.045-2.032-5.647-2.032-2.591 0-4.473.678-5.648 2.032-1.163 1.354-1.744 3.374-1.744 6.06 0 2.674.581 4.688 1.744 6.042 1.175 1.343 3.057 2.015 5.648 2.015 2.602 0 4.485-.672 5.647-2.015 1.163-1.354 1.745-3.368 1.745-6.043 0-2.685-.582-4.705-1.745-6.06z" fill="#fff"/></svg>