<svg width="31" height="80" fill="none" xmlns="http://www.w3.org/2000/svg"><path d="M2.334 15.338c-1.092 4.146.215 8.296 3.494 11.105 3.537 3.028 8.444 3.729 12.776 1.836 1.535-.667 3.485-1.887 5.377-4.073 1.831 8.208 1.152 24.008-18.614 45.843l.266-6.22a2.138 2.138 0 00-2.053-2.23 2.064 2.064 0 00-.544.06 2.168 2.168 0 00-1.707 2.03l-.6 13.918c-.024.732.32 1.42.914 1.855a2.154 2.154 0 002.045.224l12.497-5.172a2.171 2.171 0 001.192-2.812c-.441-1.097-1.71-1.62-2.812-1.174l-6.11 2.516c9.994-11.008 16.422-21.82 19.156-32.16 2.534-9.594 1.331-16.703-.494-21.447 1.896-3.91 3.366-9.43 3.718-17.14a2.121 2.121 0 00-2.053-2.23c-.188-.002-.375-.004-.556.042-.93.195-1.663 1.02-1.702 2-.228 4.74-.927 8.877-2.06 12.311-3.484-5.023-8.577-7.952-13.361-7.44-4.27.446-7.464 3.482-8.77 8.358zm4.191 1.091c.824-3.113 2.565-4.903 5.014-5.172 3.103-.325 7.787 2.013 10.746 7.93a.164.164 0 01.031.085c-1.47 2.449-3.279 4.18-5.378 5.106-2.829 1.22-5.993.767-8.27-1.174-2.046-1.759-2.83-4.233-2.143-6.775z" fill="#232D86"/></svg>