<svg width="60" height="60" fill="none" xmlns="http://www.w3.org/2000/svg"><g id="Perfect Money" clip-path="url(#clip0_2_3750)"><g id="Perfect Money_2"><rect id="Rectangle" width="60" height="60" rx="30" fill="#063AC0"/><g id="Group" fill="#fff"><path id="Money" d="M26.706 40.861c1.394-.15 2.29-.48 2.684-.989.396-.52.593-1.717.593-3.59V21.85c0-1.284-.192-2.116-.576-2.498-.384-.393-1.257-.625-2.619-.694V18h6.67l7.808 17.918L48.728 18h6.72v.66c-1.252.092-2.059.334-2.421.728-.363.381-.544 1.202-.544 2.463v15.801c0 1.295.181 2.128.544 2.498.362.358 1.17.595 2.421.711v.642h-9.455v-.642c1.362-.116 2.208-.37 2.537-.763.34-.405.51-1.359.51-2.862V21.278l-8.63 20.225h-.461L31.466 22.11v14.17c0 1.944.269 3.21.807 3.8.351.381 1.136.641 2.355.78v.642h-7.922v-.642z"/><g id="P"><path id="Vector" d="M14.567 37.652v-5.16a29.587 29.587 0 01-3.382-.23v4.976c0 1.468-.16 2.41-.48 2.827-.321.405-1.128.67-2.422.798v.64h9.5v-.64c-1.359-.103-2.237-.33-2.635-.676-.388-.348-.581-1.192-.581-2.535z"/><path id="Vector_2" d="M23.834 19.752C22.31 18.584 20.11 18 17.236 18H8.283v.66c1.217.105 2 .352 2.354.746.365.392.548 1.208.548 2.446v7.87c1.095.054 2.25.056 3.382-.036v-9.188c0-.497.077-.816.232-.954.166-.151.597-.225 1.294-.225 1.47 0 2.687.22 3.648.66 1.79.808 2.687 2.3 2.687 4.476 0 1.35-.212 2.51-.833 3.295C17.615 32.763 5 29.848 5 29.848s7.454 2.938 15.18 1.125c1.72-.403 3.156-1.081 4.16-1.941l.077-.068.06-.057c1.095-1.084 1.646-2.596 1.646-4.539 0-1.91-.762-3.448-2.289-4.616z"/></g></g></g></g><defs><clipPath id="clip0_2_3750"><path fill="#fff" d="M0 0h60v60H0z"/></clipPath></defs></svg>