<svg width="81" height="71" fill="none" xmlns="http://www.w3.org/2000/svg"><path d="M11.717 23.014c.744 7.473 3.63 15.474 8.192 22.687 4.83 7.618 11.269 13.884 18.108 17.61 6.43 3.517 12.314 5.07 18.534 4.9 5.787-.163 11.574-1.828 17.011-3.741l-2.745 3.671a1.68 1.68 0 00.332 2.35c.543.414 1.264.43 1.838.11.203-.11.37-.256.513-.45l6.51-8.699a1.672 1.672 0 00.228-1.588 1.66 1.66 0 00-1.209-1.042l-10.25-2.187a1.684 1.684 0 00-1.995 1.285 1.67 1.67 0 001.277 1.99l5.245 1.116c-13.328 4.732-21.858 5.78-33.667-.651-12.449-6.797-22.673-22.302-24.47-36.74 1.874.121 3.817-.094 5.77-.657 3.75-1.088 6.952-3.192 9.235-6.077 2.08-2.63 3.208-5.766 3.125-8.611-.129-4.058-2.602-6.983-6.608-7.837-3.224-.683-6.196.048-8.594 2.13-4.627 4.017-6.244 12.01-6.481 16.853-1.338-.549-2.593-1.375-3.719-2.43-3.715-3.5-5.284-8.946-4.089-14.16A1.672 1.672 0 002.543.843 1.685 1.685 0 00.536 2.115c-1.462 6.383.477 13.025 5.051 17.343 1.803 1.673 3.878 2.874 6.13 3.556zM20.29 5.115c1.61-1.4 3.48-1.854 5.682-1.387 3.356.717 3.917 3.245 3.977 4.685.11 3.277-2.115 7.41-6.454 9.876-1.04.6-2.201 1.082-3.483 1.47-1.75.5-3.453.664-5.076.503.062-4.228 1.514-11.835 5.354-15.147z" fill="#232D86"/></svg>