<svg width="24" height="67" fill="none" xmlns="http://www.w3.org/2000/svg"><path d="M23.348 15.189c.5 3.375-.898 6.542-3.738 8.476-3.063 2.084-7.005 2.208-10.265.33-1.155-.661-2.59-1.797-3.895-3.692-2.168 6.33-3.017 18.885 10.698 37.888l.336-4.943a1.7 1.7 0 011.819-1.583c.148.014.286.042.425.095a1.725 1.725 0 011.172 1.756l-.747 11.06a1.754 1.754 0 01-.886 1.386 1.713 1.713 0 01-1.637-.003l-9.429-5.186a1.727 1.727 0 01-.696-2.329c.446-.829 1.495-1.132 2.327-.682l4.611 2.526C6.506 50.706 2.371 41.591 1.116 33.173c-1.162-7.81.413-13.326 2.272-16.917-1.156-3.258-1.834-7.753-1.436-13.88A1.688 1.688 0 013.772.79c.148.015.297.03.436.082a1.718 1.718 0 011.17 1.732c-.235 3.768-.046 7.101.55 9.916 3.195-3.667 7.48-5.536 11.218-4.711 3.338.727 5.598 3.408 6.202 7.379zm-3.41.495c-.379-2.534-1.599-4.102-3.512-4.53-2.426-.53-6.335.909-9.194 5.329-.011.013-.023.026-.032.063.948 2.066 2.226 3.594 3.805 4.511 2.13 1.213 4.672 1.132 6.644-.203 1.772-1.212 2.609-3.1 2.288-5.17z" fill="#232D86"/></svg>