<svg width="60" height="60" fill="none" xmlns="http://www.w3.org/2000/svg"><g id="Visa" clip-path="url(#clip0_2_3753)"><g id="Visa_2"><rect id="Rectangle" width="60" height="60" rx="30" fill="#063AC0"/><path id="Path" d="M29.247 23.38l-2.84 13.274h-3.434l2.84-13.274h3.434zm14.447 8.571l1.809-4.985 1.038 4.985h-2.847zm3.834 4.703h3.175L47.93 23.38H45c-.66 0-1.216.383-1.462.973l-5.153 12.301h3.606l.715-1.983h4.407l.416 1.983zm-8.965-4.334c.014-3.503-4.844-3.697-4.812-5.262.012-.476.465-.982 1.457-1.112.492-.063 1.85-.114 3.387.594l.602-2.816a9.258 9.258 0 00-3.212-.587c-3.395 0-5.784 1.804-5.803 4.388-.022 1.911 1.706 2.977 3.006 3.613 1.338.65 1.787 1.068 1.78 1.65-.009.89-1.068 1.284-2.053 1.299-1.727.027-2.729-.467-3.527-.839l-.624 2.91c.804.368 2.285.688 3.819.704 3.609 0 5.97-1.782 5.98-4.542zm-14.224-8.94l-5.564 13.274h-3.63L12.407 26.06c-.166-.65-.31-.89-.816-1.166-.826-.448-2.19-.868-3.388-1.129l.081-.385h5.844c.744 0 1.414.495 1.584 1.353l1.447 7.682 3.572-9.035h3.608z" fill="#fff"/></g></g><defs><clipPath id="clip0_2_3753"><path fill="#fff" d="M0 0h60v60H0z"/></clipPath></defs></svg>