<svg width="99" height="52" fill="none" xmlns="http://www.w3.org/2000/svg"><path d="M20.41 27.594c4.05 6.324 10.25 12.148 17.584 16.51 7.757 4.603 16.337 7.27 24.123 7.494 7.324.22 13.274-1.063 18.742-4.032 5.085-2.768 9.489-6.875 13.468-11.044l-.783 4.516a1.68 1.68 0 001.36 1.945c.673.123 1.322-.19 1.69-.734a1.53 1.53 0 00.253-.634l1.862-10.706a1.672 1.672 0 00-.517-1.518 1.66 1.66 0 00-1.551-.382l-10.127 2.696a1.684 1.684 0 00-1.197 2.05 1.67 1.67 0 002.04 1.195l5.182-1.382C82.802 43.826 75.673 48.626 62.23 48.244c-14.176-.417-30.317-9.605-38.463-21.662 1.726-.74 3.362-1.813 4.848-3.2 2.85-2.67 4.75-5.995 5.477-9.601.663-3.288.247-6.594-1.116-9.093-1.954-3.56-5.484-5.046-9.442-3.992-3.184.852-5.502 2.851-6.696 5.793-2.304 5.678-.123 13.537 1.86 17.961-1.441.117-2.935-.05-4.416-.482C9.385 22.532 5.519 18.389 4.22 13.2a1.672 1.672 0 00-2.035-1.212 1.685 1.685 0 00-1.213 2.044c1.59 6.351 6.328 11.394 12.363 13.17 2.365.674 4.76.804 7.075.392zm-.467-19.842c.8-1.977 2.261-3.23 4.435-3.811 3.318-.881 4.963 1.118 5.669 2.375 1.583 2.871 1.473 7.564-1.278 11.727-.655 1.007-1.471 1.963-2.439 2.889-1.332 1.24-2.777 2.158-4.296 2.75-1.86-3.798-4.014-11.237-2.091-15.93z" fill="#232D86"/></svg>