<svg width="60" height="60" fill="none" xmlns="http://www.w3.org/2000/svg"><g id="Payeer" clip-path="url(#clip0_2_3751)"><g id="Payeer_2"><rect id="Rectangle" width="60" height="60" rx="30" fill="#063AC0"/><g id="Group"><g id="Group_2"><path id="Vector" d="M41.602 41.592a3.363 3.363 0 013.36 3.359 3.363 3.363 0 01-3.36 3.36 3.363 3.363 0 01-3.36-3.36 3.363 3.363 0 013.36-3.36zm0-.429a3.795 3.795 0 00-3.795 3.794 3.795 3.795 0 007.59 0c0-2.095-1.7-3.794-3.795-3.794z" fill="#fff"/><g id="Group_3"><path id="Vector_2" d="M40.97 45.435v1.803h-.506V42.9h1.188c.533 0 .924.105 1.177.308.253.204.38.511.38.918 0 .572-.292.962-.875 1.166l.984 1.952h-.594l-.858-1.804h-.896v-.005zm0-.435h.693c.357 0 .616-.071.78-.214.166-.143.248-.352.248-.638 0-.286-.082-.495-.253-.621-.17-.126-.44-.192-.814-.192h-.654V45z" fill="#fff"/></g></g><path id="Vector_3" d="M45.397 22.95c0 4.033-1.265 7.122-3.786 9.259-2.522 2.136-6.109 3.209-10.76 3.209h-3.419V48.75h-7.95v-37.5h11.985c4.547 0 8.006.976 10.376 2.937 2.37 1.96 3.554 4.882 3.554 8.763zm-17.965 5.946h2.618c2.442 0 4.275-.48 5.492-1.449 1.217-.968 1.817-2.369 1.817-4.217 0-1.865-.512-3.241-1.529-4.13-1.016-.888-2.61-1.336-4.787-1.336h-3.61v11.132z" fill="#fff"/></g></g></g><defs><clipPath id="clip0_2_3751"><path fill="#fff" d="M0 0h60v60H0z"/></clipPath></defs></svg>