<svg width="60" height="60" fill="none" xmlns="http://www.w3.org/2000/svg"><g id="PayPal" clip-path="url(#clip0_2_3749)"><g id="PayPal_2"><rect id="Rectangle" width="60" height="60" rx="30" fill="#063AC0"/><g id="Group" fill="#fff"><path id="Vector" opacity=".68" d="M42.64 20.528c.457-2.918-.004-4.902-1.581-6.7C39.32 11.847 36.183 11 32.168 11H20.513c-.82 0-1.52.597-1.647 1.408l-4.854 30.775a1 1 0 00.989 1.156h7.195l-.497 3.15a.875.875 0 00.865 1.011h6.065c.717 0 1.329-.522 1.44-1.231l.06-.31 1.143-7.244.073-.4a1.46 1.46 0 011.441-1.232h.907c5.876 0 10.477-2.387 11.82-9.29.563-2.885.272-5.293-1.213-6.986a5.829 5.829 0 00-1.66-1.28z"/><path id="Vector_2" opacity=".7" d="M42.64 20.528c.457-2.918-.004-4.902-1.581-6.7C39.32 11.847 36.183 11 32.168 11H20.513c-.82 0-1.52.597-1.647 1.408l-4.854 30.775a1 1 0 00.989 1.156h7.195l1.807-11.461-.056.36a1.662 1.662 0 011.641-1.409h3.42c6.717 0 11.976-2.728 13.512-10.62.046-.233.085-.46.12-.681z"/><path id="Vector_3" d="M25.945 20.566a1.458 1.458 0 011.441-1.231h9.136c1.083 0 2.092.07 3.014.22.264.042.52.09.77.146a11.206 11.206 0 011.071.293c.453.15.875.328 1.263.534.458-2.917-.003-4.902-1.58-6.7C39.32 11.848 36.182 11 32.167 11H20.513c-.82 0-1.52.597-1.647 1.408l-4.854 30.775a1 1 0 00.989 1.156h7.195l1.807-11.461 1.942-12.312z"/></g></g></g><defs><clipPath id="clip0_2_3749"><path fill="#fff" d="M0 0h60v60H0z"/></clipPath></defs></svg>