<svg width="60" height="60" fill="none" xmlns="http://www.w3.org/2000/svg"><g id="XAUT" clip-path="url(#clip0_2_3757)"><g id="Layer 2"><g id="Layer 1"><g id="Layer_1" fill-rule="evenodd" clip-rule="evenodd"><path id="Vector" d="M10.993 5.267L.048 28.381a.432.432 0 00.088.516L29.681 57.38a.462.462 0 00.62 0l29.563-28.484a.437.437 0 00.088-.516L49.007 5.267A.406.406 0 0048.615 5H11.38a.439.439 0 00-.392.267h.004z" fill="#063AC0"/><path id="Vector_2" d="M33.802 30.746c-.212.017-1.308.088-3.749.088-1.944 0-3.324-.053-3.82-.088-7.513-.338-13.118-1.654-13.118-3.219s5.605-2.898 13.119-3.235v5.138c.49.036 1.892.125 3.837.125 2.333 0 3.5-.107 3.713-.125v-5.138c7.496.337 13.101 1.654 13.101 3.217 0 1.564-5.589 2.9-13.083 3.237zm0-6.97V19.17h10.467v-7.022H15.767v7.022h10.467v4.606c-8.505.395-14.905 2.08-14.905 4.125s6.4 3.716 14.905 4.125v14.74h7.568v-14.74c8.486-.395 14.87-2.081 14.87-4.107 0-2.027-6.384-3.752-14.87-4.142z" fill="#fff"/></g></g></g></g><defs><clipPath id="clip0_2_3757"><path fill="#fff" d="M0 0h60v60H0z"/></clipPath></defs></svg>