<svg width="67" height="26" fill="none" xmlns="http://www.w3.org/2000/svg"><path d="M50.458 6.395c-4.107-2.777-9.386-4.69-14.971-5.421C29.581.207 23.682.829 18.904 2.726c-4.498 1.778-7.771 4.109-10.312 7.336-2.36 3.006-3.959 6.645-5.284 10.212l-.704-2.943a1.11 1.11 0 00-1.332-.824c-.44.101-.752.46-.832.886a.994.994 0 00.012.45l1.665 6.978a1.102 1.102 0 001.75.612l5.436-4.278a1.11 1.11 0 00.19-1.555 1.103 1.103 0 00-1.548-.192l-2.781 2.19C8.39 12.838 11.46 8.066 19.71 4.79c8.705-3.447 20.89-2.088 28.976 3.096-.854.9-1.565 1.977-2.104 3.206-1.031 2.362-1.316 4.875-.816 7.251.457 2.167 1.572 4.063 3.05 5.222 2.114 1.648 4.643 1.628 6.768-.044 1.707-1.347 2.591-3.165 2.547-5.26-.084-4.044-3.458-8.24-5.815-10.405a8.102 8.102 0 012.803-.86c3.345-.408 6.77 1.095 8.912 3.903.375.482 1.06.581 1.55.204.48-.376.579-1.063.203-1.556-2.622-3.437-6.811-5.257-10.934-4.76-1.61.21-3.095.755-4.392 1.61zm5.462 11.91c.03 1.407-.529 2.548-1.695 3.468-1.781 1.4-3.3.617-4.057.04-1.71-1.328-2.867-4.202-2.286-7.445.135-.781.38-1.574.725-2.388.484-1.1 1.12-2.033 1.888-2.788 2.119 1.816 5.366 5.765 5.425 9.112z" fill="#232D86"/></svg>