<svg width="76" height="55" fill="none" xmlns="http://www.w3.org/2000/svg"><path d="M30.37 52.935c3.673-2.213 5.627-6.1 5.232-10.4-.428-4.636-3.459-8.558-7.885-10.22-1.565-.59-3.814-1.073-6.694-.824 4.405-7.164 15.901-18.023 45.294-19.913l-4.526 4.277a2.138 2.138 0 00-.081 3.03c.133.132.27.243.432.336a2.168 2.168 0 002.64-.267l10.127-9.566c.528-.508.76-1.24.637-1.967a2.153 2.153 0 00-1.311-1.585L61.668.838a2.17 2.17 0 00-2.815 1.187c-.447 1.094.097 2.353 1.199 2.801l6.136 2.452c-14.839.933-26.983 4.209-36.15 9.722-8.501 5.116-12.592 11.052-14.588 15.727C11.366 34.21 6.465 37.145.84 42.43a2.121 2.121 0 00-.081 3.03c.133.132.267.265.428.358.803.508 1.904.426 2.615-.25 3.466-3.24 6.85-5.72 10.056-7.394-1.002 6.03.61 11.68 4.399 14.646 3.374 2.656 7.78 2.704 12.113.115zm-2.246-3.703c-2.76 1.66-5.255 1.73-7.2.216-2.452-1.929-4.183-6.87-2.182-13.175a.163.163 0 01.036-.083c2.761-.732 5.265-.713 7.417.085 2.878 1.096 4.832 3.626 5.113 6.605.242 2.687-.92 5.008-3.184 6.352z" fill="#232D86"/></svg>