<svg width="60" height="60" fill="none" xmlns="http://www.w3.org/2000/svg"><g id="XBC" clip-path="url(#clip0_2_3756)"><g id="Group"><path id="Vector" d="M30 60c16.569 0 30-13.431 30-30C60 13.431 46.569 0 30 0 13.431 0 0 13.431 0 30c0 16.569 13.431 30 30 30z" fill="#063AC0"/><path id="Vector_2" d="M48.707 37.039l-1.022 4.093-2.728-.679 1.02-4.095-4.093-1.02.68-2.728 4.094 1.02 1.021-4.093 2.729.68-1.02 4.094 4.093 1.02-.68 2.73-4.094-1.022zM38.644 25.8c-.38 2.531-1.76 3.761-3.585 4.2 2.495 1.318 3.76 3.35 2.527 6.894-1.53 4.401-5.11 4.791-9.866 3.9l-1.181 4.73-2.786-.695 1.164-4.668c-.742-.184-1.482-.376-2.22-.576l-1.17 4.688-2.783-.694 1.182-4.74c-.653-.167-1.313-.343-1.988-.512l-3.628-.906 1.403-3.266s2.053.546 2.025.506c.79.193 1.143-.334 1.284-.684l1.864-7.478.296.074a2.241 2.241 0 00-.29-.094l1.33-5.338c.038-.606-.163-1.367-1.293-1.65.045-.029-2.023-.503-2.023-.503l.76-3.045 3.843.96-.004.013a72.49 72.49 0 001.781.418l1.168-4.683 2.787.693-1.146 4.594c.748.169 1.5.341 2.231.525l1.138-4.562 2.789.694-1.169 4.686c3.518 1.218 6.085 3.062 5.56 6.519zm-6.426 9.16c.92-3.694-5.141-4.613-7.031-5.086l-1.562 6.276c1.89.469 7.716 2.35 8.597-1.192l-.004.001zm.913-9.18c.837-3.363-4.233-4.082-5.807-4.474L25.905 27c1.573.394 6.422 2 7.226-1.22z" fill="#fff"/></g></g><defs><clipPath id="clip0_2_3756"><path fill="#fff" d="M0 0h60v60H0z"/></clipPath></defs></svg>