<svg width="716" height="301" fill="none" xmlns="http://www.w3.org/2000/svg"><g clip-path="url(#clip0_2_4390)"><path d="M596.675 170.406l53.639-29.653 20.318-35.34-62.579 15.436 41.449 19.498-54.859-6.906 1.22 36.965-25.195 27.216-29.664 2.031L580.827 170l-10.971 26.403 11.378-26.809-40.23 30.059 13.004-49.151-49.982-.812 64.611-34.934-40.636 4.062 2.844-34.122-13.409 7.718-15.848 6.906-15.442 8.124-13.409 8.53-10.159 6.093-12.191 6.906-11.784 5.687-11.378 6.905-9.347 5.687-8.939-.406-9.753-3.25-9.753-4.062-10.158-4.874-10.159-6.499-8.94-5.281-9.346-.406-11.378 3.249-10.972 2.031-10.972 1.219-12.597.406-11.784 1.625-11.784 1.219-12.191.812-10.972.406-8.127-2.843 1.219-6.5-12.597-4.468-21.943-12.998-19.912-6.906-20.724-11.374-21.943-10.155-62.985-28.84 15.035 19.091-27.632-13.405 65.017 60.931 4.876 39.809-54.858-32.497v-.406L80.603 77.79l-30.07 13-7.315 3.25 10.159 6.092 2.031 6.093-28.445-17.06 23.975 45.901 11.785-5.281 17.88-8.124-25.195-15.029-2.031-6.094 39.416 22.748v.406l-.406-.812.813.406 22.756 62.556 32.102-28.435-15.442 41.434-47.95 9.342 50.388 25.998 38.198 20.716 9.346-2.437 7.721-12.592 6.095-10.968 6.502-12.186 6.095-11.78 6.502 3.656 7.721 3.656-7.315 6.905-.406 9.343 2.844 9.343 9.347 5.687 10.158-1.219 8.534-2.437-.813 8.53-.812 9.749 4.469 7.718 8.94 5.281 10.159-3.25.407 8.124 6.501 5.281 3.251 2.437 5.689 3.656 4.064-1.219 4.063-1.218 6.908-3.656-2.031 6.905 2.438 5.281 5.689 6.093 7.72 2.031 9.347-1.625 6.501-5.28 6.502-4.469 7.721 2.438 5.689 3.656 8.127 2.843 7.721-4.062 4.876-2.844 2.844-6.499 2.032-3.25 8.127 2.032 9.347.406 7.314-6.906 1.625-8.53 8.534.812 10.972.406 5.689-7.311 2.031-8.531-4.47-4.874 3.658-7.312 6.501 2.844 9.753.406 4.063-8.937 9.753-2.031 1.219 5.687 4.064 6.499 6.095 6.5 13.003-5.687 12.191-6.906 9.346-7.311 11.378-4.469 10.159-6.499 8.534-5.281 13.816-3.656 10.971-6.499 23.569-9.343 12.191-4.874 10.159-3.656 17.067-6.093 37.791-27.622-62.173 14.623zm-546.143-35.34L26.557 89.571l28.445 17.061 6.908 23.153-11.378 5.281zm29.258-13.405l-17.474 8.124-6.908-22.747 24.382 14.623zM43.218 94.445l7.314-3.25 2.845 8.937-10.16-5.687zm10.159 5.687l-2.845-8.936 30.07-12.999 13.004 44.683-.406-1.219.406.813-40.23-22.342zm617.255 5.687l-20.318 34.934-41.854-19.904 62.172-15.03zm-20.318 34.934l-54.045 29.653-1.219-36.559 55.264 6.906zm-156.041 95.459l-4.47-9.343 15.848 6.499-9.346 7.312-2.032-4.468zm-320.615 18.685v-32.496l7.315 23.56-4.47 5.687-2.845 3.249zm242.595 10.562l-4.876 4.874-5.689-8.936 2.031.406 9.753 2.031-1.219 1.625zm-11.378-2.844l-2.438 6.906-9.346-2.437 12.19-5.281-.406.812zM276.06 277.239l.813-5.687 5.689 8.53.812 1.625-8.127-.406.813-4.062zm-29.258-37.778l-5.689-1.624 2.032-6.093 2.032 4.062 1.625 3.655zm-6.095-1.624l-8.94-2.438-3.657-1.218 14.629-2.437-.813 2.031-1.219 4.062zm0 0l-2.845 4.468-10.158-7.718 10.565 2.843 2.438.407zm-41.855-20.717l-3.251.406 2.439-4.062 7.314-11.78-2.032 14.624-4.47.812zm-25.194 4.062l-38.197 12.593-2.032-34.528 40.229 21.935zm84.522-87.335l-5.282 9.749-8.127-3.249 11.784-5.687 1.625-.813zm141.006 8.937l7.314 10.968-18.692-5.687 11.378-5.281zm64.204-20.717l19.099 8.937-26.413 14.217-.813.406 7.315-24.372.812.812zm-3.657 112.114l-10.565-5.687 8.127-2.844 2.438 8.531zm-43.074 2.843l13.004-4.468-7.315 7.718-5.689-3.25zm3.658 18.28l-.407-8.125 5.283 2.844-4.876 5.281zm-92.243 30.871l1.219 8.531-7.315-4.062.813-.407 5.283-4.062zm-112.155-89.772l-.406-.406 4.876-8.936v10.967l-4.47-1.625zm-25.6 43.465l-8.94 5.28 6.502-13.404 2.438 8.124zm-9.346 5.28l-7.315-23.56 13.816 9.749-6.095 12.593-.406 1.218zm48.762-112.925l14.629 8.53-1.625 4.062-3.251 7.718-.406-.406-18.693-25.185 9.346 5.281zm84.522-.813h-.812l4.063-2.843-.812 2.437-2.439.406zm60.141 7.312v2.031l-.406 12.592-10.565-10.155 9.752-4.468h1.219zm32.509 15.436l15.848-2.031-2.032 15.842-13.816-13.811zm36.165-9.749l11.378 1.625-15.035 8.936-4.063-11.78 7.72 1.219zm5.689 84.085l-1.219-2.437-.812-2.031 3.657.812-.406.812-1.22 2.844zm-7.72.406l-10.566 3.25 1.219-11.374 9.347 8.124zm-10.972 3.25l-13.41 4.468 1.219-10.155 3.251 1.625 8.94 4.062zm-95.087 47.526l-8.534-1.625 3.251-7.312.813.813 8.533 8.936-4.063-.812zm-27.633-10.561l.407-.813 2.438 10.968-4.876-6.5 2.031-3.655zm-92.242-73.118l-9.347 5.281-.406-36.559 9.753 31.278zm-41.042 25.591l21.536-3.249-7.72 13.405-13.816-10.156zm21.536-3.656l-21.536 3.25.812-12.186 1.626-28.841 4.47 8.124 14.628 29.653zm304.768-34.527l-20.318 16.654-6.095-25.997 30.476 5.687-4.063 3.656zm-33.728 54.432l4.876-5.281 2.439 6.905-7.315-1.624zm-.406 0l.406-6.906 4.47 2.031-4.063 4.468-.813.407zm1.219-14.624l-.813 7.312-4.876-1.625 5.689-5.687zm-49.576 3.25l-1.219 10.155-6.501-4.062 2.844-2.437 4.876-3.656zm-25.194 40.621l-4.47 9.749v-11.374l2.438.812 2.032.813zm-4.47 9.749l-6.908-10.968 6.908-.812v11.78zm-91.023-6.5l7.72 2.031-4.063 1.219-3.657-3.25zM250.46 148.471l.406 2.843-10.159 1.219 9.753-4.062zm62.578-15.842l.407 2.031-4.877 1.625 4.47-4.062v.406zm125.565 83.272l3.25 2.844-10.159 1.625 6.909-4.469zm-26.414 23.56l-2.844 13.405-6.502-12.186 9.346-1.219zm-22.349 23.56l4.47-8.936-1.626 12.592-2.844-3.656zm-134.098-41.026l-8.94 7.717-3.657-6.499 12.597-1.218zm94.275-76.774l13.003-1.625-10.565 8.125-2.438-6.5zm13.003-1.625l-.812 7.718-9.347.407 4.47-3.656 5.689-4.469zm82.491 22.342l9.752-19.498 18.693 27.216-18.286-4.875-10.159-2.843zm34.134 34.527l-15.442 5.281-4.47 1.625 1.219-17.061 10.159 5.687 8.534 4.468zm-40.636 15.03l-7.315 4.875 1.22-7.312.406-2.031 1.625 1.219 4.064 3.249zM380.9 258.147l1.219-.406-1.219 7.718-2.845-6.5 2.845-.812zm-54.452 20.31l-3.251 6.094-1.625-8.125 4.876 2.031zm-4.876-2.437l-10.972 2.844 2.438-14.218 8.534 11.374zm-24.788-6.093l-1.219-6.499-1.625-7.312 5.282 2.031 5.283 2.031-1.625 1.625-6.096 8.124zm-20.724-7.718v-12.592l6.095 5.28-4.063 4.875-2.032 2.437zm-8.533-8.53l-.407-8.124 8.534 4.062-7.721 9.342-.406-5.28zm-12.191-32.091l-12.191 1.219-.813-4.468 7.721 2.031 5.283 1.218zm-19.912-25.591l.813-13.405 15.848 8.531-17.067 8.936.406-4.062zm3.658-43.058l2.844 8.531-1.219.406-8.94 4.874 7.315-13.811zm34.133 12.186l6.096 6.094-8.94 6.905-1.219-11.78 4.063-1.219zm20.725-9.342l1.625-.813 4.064-2.437 2.844 10.968-.406-.407-8.127-7.311zm34.54-.813l6.908-4.062-.813 3.25-.812 3.249-1.219-.406-4.064-2.031zm7.314-4.062l7.721.406-4.876 2.844-4.876 2.843.406-1.625 1.625-4.468zm107.278 64.993l.407-1.218 2.438 4.062-3.657-.813.812-2.031zm-70.706 37.778l-5.689 12.592-6.095-4.874-5.689-4.875 3.251-.406 14.222-2.437zm-78.833 2.437l-6.095 14.217-5.283-15.436 11.378 1.219zm-56.077-91.803l5.283-2.437 4.063 11.78-1.219-.406-13.816-6.5 5.689-2.437zm38.604 9.343l3.251-2.437 4.47 4.062-13.004 2.437 5.283-4.062zm14.222-12.999v7.312l-2.438-5.281 2.032-3.249.406 1.218zm.407-1.218l3.251 5.28 2.438 4.062-2.032-.406-3.657-.406v-8.53zm173.514 56.056l-2.032 6.093-3.251-8.124 4.064 1.625 1.219.406zM275.654 249.21l1.625-6.499 1.219-4.468 8.127 10.155-4.47.406-6.501.406zm-29.258-75.148l-10.159 8.53-5.283-7.311 15.442-1.219zm.406 0l5.689 17.061-15.848-8.531 10.159-8.53zm86.961-16.248l10.565-.407h2.844l-.812 8.125-.813 8.124-5.283-7.312-6.501-8.53zm28.038-3.656l.407-2.844 4.876 7.718-6.096-2.843.813-2.031zM388.214 170l-.406 6.499-4.47-2.437 1.219-1.219 3.657-2.843zm47.95 8.124l-9.752 7.718 8.94-12.186.812 4.468zm-54.045 79.211l-4.876-2.438 4.876-7.718.813-1.624-.813 11.78zM305.318 154.97l-2.438 8.124-2.845-10.967 5.283 2.843zm53.639 4.062l-1.626 1.625-4.47-2.437 8.127-1.625-2.031 2.437zm2.031-2.031l.407 1.625.813 4.468-1.626-.812-3.657-1.625 1.219-1.218 2.844-2.438zm7.315 6.906l4.063 2.437-3.657-1.219v-.812l-.406-.406zm0 9.749l4.47-6.906 5.282 3.25-9.752 3.656zm28.038 10.155l8.534 1.219 1.219 6.093-4.47-3.25-5.283-4.062zm12.598 4.468l2.031 2.031-4.47 1.219-1.219-6.093 3.658 2.843zm39.822-8.53l-2.438 3.25-5.689-8.531 9.347 4.062-1.22 1.219zm3.251 34.934l1.219-4.875 4.877 3.25h-.407l-5.689 1.625zm-69.08 30.465l-8.94 4.062 2.032-15.842 2.844 4.469 4.064 7.311zm-50.388 8.531l1.625 6.499-.813-.406-4.876-2.031 2.844-3.25 1.22-.812zm-27.226 6.499l13.816-8.937-.407 7.312-13.409 1.625zm-35.353-48.745l.406-32.903 18.286 21.123-18.692 11.78zm33.321-47.932l2.438-8.125 1.219 9.749-3.657-1.624zm15.441-2.438l-.812 1.219-4.877 6.499-5.689-3.249 7.315-2.844 4.063-1.625zm.407 6.5v-6.5l6.095.407-6.095 6.093zm6.501-5.687l19.912 12.186-4.47-1.219-21.943-5.28 5.689-5.687h.812zm125.158 26.809l-4.063-5.686 3.657-4.469 1.219 10.968-.813-.813zm-114.186 50.776l15.035 2.032-9.346 15.435-5.689-17.467zm-9.752 20.311l-4.064 4.874v-8.124l5.689 1.219-1.625 2.031zm-34.134-83.679l2.438 1.219-4.47 1.624-2.845-4.874 4.877 2.031zm9.346 2.437l4.063-4.874 5.283 1.625h-.406l-8.94 3.249zm10.971-9.749l5.689-7.718v6.5l-5.689 1.218zm69.894 5.281l-1.219 11.78-13.41-11.78h14.629zm13.409 24.372l9.753-6.905 1.625 10.561-11.378-3.656zm21.537 1.219l-1.219-1.219-3.251-2.437 3.251.406.407.813.812 2.437zm-4.876-3.656l4.876 3.656-9.346 2.437 4.47-6.093zm0 0l-1.625-5.28 5.282 5.28h-3.657zm-6.502-4.062l6.096 4.062-4.47 6.093-.407-3.656-1.219-6.499zm1.219 10.562l-13.816 7.717 2.438-11.373 10.972 3.656h.406zm-32.102 31.278l-2.031 15.435-6.096-3.249 2.438-3.656 5.689-8.53zm-86.554-36.153l1.626-18.686h10.565l-8.94 14.624-3.657 5.687.406-1.625zm95.494 28.841l-1.625-3.656-2.032-4.062 6.095 4.874-.812.813-1.626 2.031zm-65.423 24.372l-4.064-11.78 11.378 4.875-3.251 2.843-4.063 4.062zm30.476-28.028l6.909-8.53-.813 18.685-8.127-7.312 2.031-2.843zm-23.162 25.185l.407-3.656.812 1.625 2.032 4.874-3.251-.812v-2.031zm-51.201-24.373l-2.844 6.093-.407-4.062 3.251-2.031zm.407-.406l3.25-2.437 4.064 5.281.813 1.218-6.096-2.843-2.031-1.219zm16.254-7.718l.813 4.875-2.845-.813h-.406l-.407-19.092 2.845 15.03zm30.477-27.622l29.664 8.53-17.067 15.436-12.597-23.966zm39.823 53.213l-3.658-1.625-.406-2.843 4.064 4.468zm17.473-28.028l.406 4.874-3.251-3.249 2.845-1.625zm-8.534 3.656l5.689-1.625 3.251 3.25-9.752-1.219.812-.406zm-18.286-20.717l17.474-.812-1.626 4.062-3.251-.813-12.597-2.437zm19.099 14.624l-2.032 5.687-.406-10.156 2.438 4.469zm-15.035 2.843l12.597-7.718.406 10.562v.406l-13.003-3.25zm13.003-7.718l4.877 2.437-2.439 2.031-2.438-4.468zm-1.219-6.093l.813 6.093-12.597 7.718 10.972-12.999.812-.812zm3.657 10.968l4.47 4.062-6.908 2.031 2.438-6.093zm-2.844-5.281l-.813-5.687 1.626.406 1.219.406-1.626 4.063-.406.812zm2.032-5.687l-2.032-.406h-.813l1.626-4.062.812 3.656.407.812zm-5.689 2.844l-9.346 10.967-4.47-17.061 16.254 3.25-2.438 2.844zm-.813 28.028l-9.346 2.437.813-18.685 8.533 16.248zm-.406 0l-6.908 5.687-2.032-3.25 8.94-2.437zm.406-.406l-5.689-10.968-2.844-5.281 13.003 3.25-.406 1.219-4.064 11.78zm11.784-15.842l-1.625-1.625-2.845-2.438.407-.406 1.625-1.625 1.219 3.25 1.219 2.844zm-7.314-8.937l.813-1.625 1.219-3.656 2.844 8.124-4.876-2.843zm2.438-5.281v-.812l-.813-4.062 3.251 1.218 7.721 2.844h-.813l-9.346.812zm-15.441 13.405l-21.537-2.031 17.067-15.03 2.031 8.125 2.439 8.936zm13.409 3.656l5.283 14.624.406 1.624-10.159-2.843 4.47-13.405zm0 0l10.159 1.219-4.47 15.029-5.689-16.248zm8.94-3.656l-2.032 1.219-2.031-5.687 4.47 4.062-.407.406zm-4.063-5.281l-2.845-8.124 9.753-.406-6.908 8.53zm4.063-19.498l2.845-2.437v12.999l-11.378-4.468 8.533-6.094zm-8.127 6.094l-.813-4.875 11.378-3.656-10.565 8.531zm-.813-4.875l.407 4.875-17.474 1.218 4.47-1.625 12.597-4.468zm-65.829 46.308l-5.283 3.249 1.219-7.717 4.064 4.468zm-19.506-8.937l2.032-3.249 2.845-4.469 3.251.813-.813.406-7.315 6.499zm30.071 11.78l-3.251-5.28 4.876-.407-.812 2.844-.813 2.843zm-6.908-4.874l-3.251 2.031-3.657-4.062 6.908 2.031zm12.597-.813l-5.283 5.281 1.626-5.687h.812l2.845.406zm-27.632 0l4.063-9.749 3.251 7.718-7.314 2.031zm23.568-.812l-8.127-7.312 5.689-14.623 2.438 21.935zm-8.127-7.312l-10.971-1.625 16.66-12.998-5.689 14.623zm-7.721 6.093l-3.25-7.718 6.095.813 4.876.812-3.657 2.844-4.064 3.249zm7.721-6.093l-.406 8.531-7.315-2.438 7.721-6.093zm8.534 7.312l-2.032-21.529 6.095 21.935h-.813l-3.25-.406zm-2.439-22.342l19.912 1.625-13.816 21.529-6.096-22.341v-.813zm-6.908 4.875l-10.565 8.124-3.657-2.437 19.911-10.155-5.689 4.468zm-14.222 5.687l3.657 2.437-.406 1.219-3.657 8.53.406-6.093v-6.093zm6.908 10.968l-1.219 7.717-6.095-5.686 7.314-2.031zm8.533-6.094l1.626 1.625 5.689 5.281-4.876.406-.407-1.218-2.032-6.094zm5.689-15.842l7.721-22.341 12.191 23.56-19.912-1.219zm-21.536 10.968v12.592l-8.128-5.687 7.315-6.093.813-.812zm15.035 12.999l.406-8.125 1.219 2.844 1.626 4.468h-.407l-2.844.813zm12.597 0l3.251 2.843-8.534 2.437 5.283-5.28zm.406-.407l2.845-4.468 10.159-16.248-10.159 23.56-2.845-2.844zm-19.099-54.432l19.912 8.531-7.721 22.341-12.191-30.872zm12.191 31.278l-8.127 4.063-12.597 6.093-4.064-20.717 24.788 10.561zm-24.788 9.749l-1.625 2.438-3.251 4.874v-7.718l4.876.406zm18.286 14.624l.813-.406 5.283 3.656 1.219.812-9.753-2.843 2.438-1.219zm.813-.406l1.626-.406 1.625-.407 3.251 5.281-2.438-1.625-4.064-2.843zm7.315 4.874l8.533-2.437.406.812 2.032 3.25-3.251-.406-7.72-1.219zm11.378 4.875v-2.844l8.939-1.218-4.876 2.437-4.063 1.625zm0-3.25l-2.032-3.656-.407-.406 8.94 2.031 2.438.406-8.939 1.625zm.406-3.656l-3.251-.406 10.159-24.372 2.032 27.215-8.94-2.437zm29.258-23.154l-8.94 11.374-12.597-13.405 21.537 2.031zm1.219 22.342l-5.689 4.874 4.063-7.718 1.626 2.844zm-5.689 4.874l5.689-4.468.406 3.25-6.095 1.218zm10.565 0l-4.47-4.874 6.908-5.687-.813 2.843-1.625 7.718zm17.88-22.747l4.469.406 1.626 4.468-6.095-4.874zm-.407-4.062v-1.219l4.876 5.281-4.469-.407-.407-3.655zm-10.159-24.373l-1.625.406-15.848 5.687 15.848-21.529v.813l1.625 14.623zm-15.441 2.437l-2.438 3.656-3.251-11.374-2.845-10.155h21.944l-13.41 17.873zm-52.827-13.405l12.191 30.872-24.788-10.561 9.347-15.03 3.25-5.281zm-17.473 40.621l4.47-19.092.406 19.092h-4.876zm0 7.718l-4.876-6.499 4.876-1.219v7.718zm-14.222-15.029l5.282 10.967-3.251 2.437-.812-6.905-1.219-6.499zm1.625 13.404l.406 4.062-4.876-2.031 2.032-.812 2.438-1.219zm3.657-1.624l.407-.813 8.533 4.468-11.784 2.438 2.844-6.093zm17.474 21.122v-11.373l6.095 5.686-4.47 4.063-1.625 1.624zm11.378-8.936v2.843l.406 5.687-5.689-5.281 5.283-3.249zm22.349 4.874v2.844l-10.971-4.469 10.971 1.625zm0 3.25v1.625l-.406 4.468-6.908.812 7.314-6.905zm.407-.406l9.346-4.469-6.096 11.374-2.844-6.093-.406-.812zm12.19-27.622l8.127 8.936-10.565 13.811-2.032-27.216 4.47 4.469zm36.572 17.467l-8.533 12.186-4.47-4.875 13.003-7.311zm-13.003 7.311l1.219-4.468 1.625-6.093 10.159 2.843-5.282 3.25-7.721 4.468zm17.067-28.434l-4.876-4.469 6.908-8.53-.813 5.281-1.219 7.718zm2.438-12.999l13.816-1.219-2.438 11.374-8.127-7.311-3.251-2.844zm-.406-13.405l-5.689 1.625-6.096 2.031-2.031-15.436 8.939 7.718 4.877 4.062zm-35.353-12.186l16.254-10.561 5.283 10.561H346.36zm-27.226-6.093l2.844 19.092-9.346-10.562-.813-.812 1.219-1.219 6.096-6.499zm2.438 19.498l-19.505-8.531 9.346-3.249 10.159 11.78zm-30.07-8.531l4.469-1.218 5.283 1.218h-9.752zm-12.598 41.84l-8.533-8.937 13.41 7.718-4.877 1.219zm0 0l-3.25 2.437-5.283-10.967 4.876 5.28 3.657 3.25zm-7.314 4.874l-4.47 2.031 2.845-15.435 1.625 13.404zm4.064 4.062l8.533-1.624-5.689 10.155-6.095-8.124 3.251-.407zm8.533-1.624l8.127 5.687-13.816 4.468 3.657-6.499 2.032-3.656zm8.127 5.687l.407 11.373-13.817-6.905 13.41-4.468zm6.502 6.093l5.689 5.28h-11.378l5.689-5.28zm5.689-2.844v-.812l10.159 2.843-9.753 6.093-.406-8.124zm21.537 13.811l2.438 6.906-5.689-1.219 1.625-2.437 1.626-3.25zm2.438 6.5l-2.032-6.906 3.251.812-1.219 6.094zm18.692-31.685l3.251 11.78 1.219 3.656-15.035-2.031 10.565-13.405zm.407 0l2.031 1.625 6.096 5.687-4.064 8.124-1.219-4.874-2.844-10.562zm4.47 15.843l6.095-1.625 4.064 5.28-10.159-3.655zm6.501-1.625l3.658 1.625v3.655l-3.251-4.062-.407-1.218zm4.064 4.468v-2.437l4.063 4.468-4.063-.812v-1.219zm13.41-10.968l4.47-14.623 3.657 8.124-8.127 6.499zm9.346-7.718l1.625-2.031 5.689 2.844-8.127.406.813-1.219zm1.625-2.031l2.845-1.624 2.844 4.468-5.689-2.844zm-6.908-10.561l3.657-.812 9.753-2.032-8.127 8.125-5.283-5.281zm0 0l.407-2.844 1.625-10.155 11.378 10.562-1.625.406-11.785 2.031zm15.848-14.624l-13.816.813v-12.999l2.844 2.437 10.972 9.749zm-49.575-24.778l4.876-5.687 6.095-6.499 4.877 2.031-15.848 10.155zm6.501-7.718l-6.501 7.718 6.095-14.624 4.876 2.438-4.47 4.468zm-6.908 8.124l6.096 21.935-29.664-8.53 8.533-4.875 15.035-8.53zm-27.226-6.093l-1.625 1.625-5.283 5.687v-.813l1.219-5.687 2.032-.406 3.657-.406zm-11.784-2.437l2.032 1.218 3.657 2.438-6.502 4.468.813-8.124zm4.47 10.155l-5.283-1.625 6.502-4.468-1.219 6.093zm-9.753 2.843l-5.689-1.625 1.22-7.717 4.469 9.342zm-29.664 51.589l-8.127 2.031 3.251-4.062 4.876 2.031zm47.138 21.122l6.908-.812-1.219 2.031-2.438 4.062-.407-.406-2.844-4.875zm3.251 7.718v5.687l-4.064-6.093 3.657-2.031.407 2.437zm-3.658 0l4.064 6.094-5.283-2.844.813-2.437.406-.813zm11.378-7.718l2.845 2.032-3.657 4.062.812-6.094zm0 0l4.064-6.905 2.032-4.062-3.251 12.999-1.219-.813-1.626-1.219zm21.537-9.748l7.315 2.437 3.251 1.218-7.315 10.968-1.625-7.312-1.626-7.311zm15.442 4.874l1.625 2.843-5.689-3.655 4.064.812zm.406.406l5.689 2.844h-4.063l-1.626-2.844zm8.534-13.405l8.127-6.499-1.219 18.279-6.908-11.78zm13.816-11.78l-2.845 1.625-1.625-4.468.813.406 3.657 2.437zm-4.47-2.843l6.908-6.499 1.625-1.625-3.657 10.967-4.876-2.843zm31.289-21.935l4.47 4.062-3.251-.813-1.219-3.249zm4.877 4.062l-4.064-3.656-.406-.406 4.876.812 4.064.812-.407.407-4.063 2.031zm20.317-12.999l-15.441-1.625 13.41-2.031 2.031 3.656zm13.41 9.749l-4.063 1.625-.813.406 1.219-8.53v-1.219l1.625 3.25 2.032 4.468zm-4.876 2.437l4.876-2.031-.406 6.5-4.47-4.469zm-23.162-2.843l-.813.406-.813-10.968 16.254 1.625-14.628 8.937zm27.225 7.312l-5.689.406 1.626-4.062.406-.813 3.657 4.469zm-26.006-5.687l-2.032-.813 16.66-2.843-5.689 8.124-8.939-4.468zm19.911 6.093l-4.47-9.343 6.502 4.874-.813 2.032-1.219 2.437zm-4.47-15.03l2.438 2.031-2.438 2.844-1.219-6.5 1.219 1.625zm2.438 2.031l3.658 7.718-6.096-4.874 2.438-2.844zm0-.406l-.406-.406-3.251-3.25 4.064-4.874-.407 8.53zm4.064 8.124l-1.219-2.437-2.845-5.281 4.877-1.625-.813 9.343zm-8.127-11.374l.812 3.656.813 3.25-16.66 2.843 10.158-6.499 4.877-3.25zm1.219 6.906l1.219 2.031 3.657 7.312-10.565-1.625 5.689-7.718zm10.971 9.343l-.812 3.249-.407 1.219-4.47-4.062 5.689-.406zm-5.689-13.811l-2.438.812v-8.53l4.877 6.499-2.439 1.219zm-4.469-5.281l-2.032 2.437-2.438-3.25 6.095-1.218-1.625 2.031zm-16.255 19.904l-3.251-.406 1.22-6.906 2.031 7.312zm.407 0l-2.032-7.312 10.971 5.281-4.063.812-4.876 1.219zm8.939-2.031l-4.469 6.905-4.47-4.874 8.939-2.031zm14.629-12.592l-.406-.407h9.346l-5.689 7.718-3.251-7.311zm-26.413-4.063l.813 10.968h-.406l-8.94-1.625 7.72-8.124.813-1.219zm-14.629 3.656l1.626 5.281-6.096-4.062 4.47-1.219zm-15.035-6.499v14.217l-13.816-11.78 10.565-1.625 3.251-.812zm-27.226-9.749l9.753-3.25 4.47 3.25h-14.223zm0-8.53l4.064 1.218-4.47 6.5.406-7.718zm-.406 0l-.406 8.124-5.283-10.155 4.063 1.624 1.626.407zm-22.35 7.718l1.626-16.249 4.876 1.219-6.502 15.03zm-23.975 14.217l-2.844-19.498 26.413 6.093-23.569 13.405zm-15.035-21.935l-.406 2.843-.813 5.281-2.438-9.343 3.657 1.219zm-19.099 7.718l2.845-4.875 4.876 8.53-7.721-3.655zm-3.657 2.437l3.657-2.031.813 1.218 2.032 3.656-3.251-1.625-3.251-1.218zm6.502 3.249l-2.032 19.905-4.064-19.092-.812-4.062h.406l6.502 3.249zm-2.032 20.717l-4.47 19.498-7.314-4.062-6.908-4.062 18.692-11.374zm-18.692 12.186l-2.845 16.249-10.971-6.5 13.816-9.749zm2.438 18.28l6.095 7.718-11.378 6.905 2.845-8.53 2.438-6.093zm6.501 8.124l12.191 6.093 1.626.812-6.096 3.656-7.721-10.561zm25.601 7.312l-10.972 10.155-.812-10.155h11.784zm8.127-4.875l2.032-1.219 4.063 11.78-13.816-6.093 7.721-4.468zm6.502 10.561l3.251 5.281-2.032 1.219-1.626.812v-1.218l.407-6.094zm32.508-9.342l3.251 14.623-12.191.406 8.94-15.029zm41.042-15.436l-9.752 18.279 1.219-17.873 8.533-.406zm.407 0l-.407-.813-2.438-3.655 8.127 2.843-1.219.406-4.063 1.219zm-2.845-4.875l3.657-11.374 4.47 14.218-8.127-2.844zm14.629-2.843l-10.972-8.531 14.223-7.717-2.845 15.435-.406.813zm6.502-17.061l6.501-1.625.813 11.374-10.565-8.936 3.251-.813zm26.413 1.625l10.565 1.625-10.565 6.093v-7.718zm6.095 11.374l4.876-9.343 3.658 3.656.812.812-7.314 4.062-2.032.813zm9.346-4.875l-1.219 4.875h-8.127l1.219-.406 8.127-4.469zm4.877 3.25l-1.626-1.219-3.251-2.031 2.845-1.218 3.251-1.219-1.219 5.687zm1.625-6.093l-1.625.812-4.47 1.625 1.219-4.874 4.876 2.437zm-19.099-32.903l5.689 8.53-1.219.407-5.282 1.218v-.812l.812-9.343zm-.812 10.155l-3.251-5.281 4.063-4.468-.812 9.749zm0 0l-13.816 2.031 10.158-7.718 3.658 5.687zm-14.629 2.437l-8.94 9.343-5.283-5.687 4.877-1.218 9.346-2.438zm-19.099 4.875l-6.502 4.468-3.251 2.031v-14.217l9.753 7.718zm-23.975-5.281l5.689-9.343 8.127 6.906-13.816 2.437zm0-.406l1.219-11.78 4.47 2.437-2.845 4.875-2.844 4.468zm-13.816-20.31l-4.876-2.031 4.47.406.406 1.625zm-5.689-2.438l-1.219-6.093 6.095 2.844-4.876 3.249zm-49.169-.406l-6.502 2.437-1.219-10.155 13.003 5.687-5.282 2.031zm-7.721 10.968l-4.064 4.874-4.876-9.342.407.406 8.533 4.062zm-10.159 3.249l-4.876-8.53 5.689.813-.813 7.717zm-4.876-8.53l-.813 1.219-2.032 3.656-2.438-6.5 5.283 1.625zm-2.845 29.653l-17.067-19.904 13.41-2.437 4.876 23.56-1.219-1.219zm-17.879 13.405l-13.816 10.155-3.251-29.653 17.067 19.498zm-13.41 10.562l10.565 5.686-2.438 2.844-.813 1.219-.812-.813-6.502-8.936zm30.477 26.809l5.689-3.249.406 4.874.406 5.281-6.501-6.906zm31.695 2.437l-13.816 8.937v-14.623l13.816 5.686zm-.406 7.312l-1.219 3.656-11.378-1.625 12.597-2.031zm4.064 6.5h-8.94l3.657-2.438 5.283 2.438zm.812 0l5.689-6.906h.407l5.282 2.437-11.378 4.469zm9.753-11.78l3.657-13.405 5.689 17.06-5.283-2.031-4.063-1.624zm29.664-7.718l6.095 4.062-13.41 6.499 7.315-10.561zm11.378 4.062l8.94-4.062-5.689 9.342-1.626-2.437-1.625-2.843zm21.13-23.56l3.251-.813v4.875l-5.282-3.656 2.031-.406zm3.658 4.468l4.876-1.219.406 4.469-5.282-3.25zm4.47-1.219l-4.877.813v-5.281l2.032 2.031 2.845 2.437zm3.25-17.467l1.626-9.342 10.565 8.936-13.816 7.312 1.625-6.906zm12.597-.812l-.812-10.968 3.251.813v.812l-2.439 9.343zm2.032-8.124l.407-2.031 3.25 4.062-5.689 6.093 2.032-8.124zm.407-2.031l4.47-2.844-1.22 6.906-.406-.406-2.844-3.656zm6.908 4.874l4.063 4.468-6.908-4.874 2.845.406zm9.346-2.031v7.312l-4.47-.406 4.47-6.906zm5.689 10.968l-5.689-3.656 10.565-6.093-4.876 9.749zm14.629-1.625l-2.845 5.687-3.251-4.062 6.096-1.625zm-2.032-8.124l-1.219-.813.406-6.499 1.219 2.437 3.251 6.5-3.657-1.625zm2.032-10.968l2.844-4.062-1.219 16.655-4.47-8.937 2.845-3.656zm-6.502-4.062l-1.219-11.374 10.565 11.374h-9.346zm-40.636.406l1.219-5.28.813-4.469 12.191 6.093-14.223 3.656zm0-.406l-5.282-5.281 7.72-4.468-2.438 9.749zm-11.784-8.936l-2.845 2.437-1.219-7.718 5.283 4.062-1.219 1.219zm-16.254-7.312l-4.47-3.25 4.876-1.625-.406 4.875zm-20.318-10.562l4.876-3.249.407 3.656-5.283-.407zm-9.346-4.874h-.813v-6.499l8.533 4.874-7.72 1.625zm-1.219-6.093v6.499l-4.877-1.219 2.032-2.437 2.845-2.843zm-23.975 3.249l-2.845 6.094-6.095-.407 7.314-4.468 1.626-1.219zm-9.347 5.281l-13.003-5.687 12.191-2.437.812 8.124zM285 167.156l2.438 6.5-3.657 2.031.812-7.718.407-.813zm0 0l-1.219 8.125-4.064-4.062 5.283-4.063zm-15.035 17.061l-.407 27.216-17.067-19.904 17.474-13.405v6.093zm-6.502 48.339l3.251 12.186-7.315-10.561 4.064-1.625zm.406 0l8.534-2.031-5.689 14.217-2.438-9.343-.407-2.843zm14.223 5.687l-1.219 6.499-1.219 4.468-8.534-4.062 10.972-6.905zm8.533 10.561l6.502 6.906-10.972-1.219 4.47-5.687zm30.477 13.405l-2.032 1.219-2.032 1.218-7.72-4.062 11.784 1.625zm13.003 0l4.47-1.625-4.063 10.155-7.721-5.686 7.314-2.844zm2.845-8.53l2.438.812 6.502 2.437-7.315 3.25-1.625-6.499zm21.943 2.843l-6.908 7.312-5.689-6.906 12.597-.406zm4.876-2.437l8.94-4.468 3.657 4.062-16.66 2.843 4.063-2.437zm9.347-4.468h4.47l-.813 3.656-2.845-2.844-.812-.812zm4.47.406l.812 1.625 2.032 3.249-4.064-1.218 1.22-3.656zm19.505-23.56l5.282 3.656-15.035 14.623 9.753-18.279zm9.752 2.031l-4.47-3.656 6.096-5.687-1.219 9.749-.407-.406zm-4.47-3.656l-4.47-14.217 10.972 8.53-6.502 5.687zm44.699-10.155l-4.063.406-1.219-4.062 5.282 3.656zm8.94.406l3.251 4.062h-8.533l5.282-4.062zm8.127-7.718l4.064 7.718-5.689-2.031 1.625-5.687zm-19.505-33.715l3.251-4.875 1.626-2.437 4.876 11.78-9.753-4.468zm-4.47 4.874l-.812-3.249-.407-1.219h4.877l-3.658 4.468zm-31.289 6.5l-8.534-1.219 4.064-3.656 4.47 4.875zm-10.159-9.343l.406 1.625.813 6.499-1.219-1.219-6.908-6.093h.406l6.502-.812zm-2.032 0l-4.876.812.406-6.499 6.502 5.281-2.032.406zm-4.876-6.093l-4.064 3.656-.812.406.406-4.875 2.032.407 2.438.406zm-10.972-8.937l1.219 9.343-5.282-3.25.406-.812 3.657-5.281zm-4.063 6.093l-4.47-2.843 8.533-3.25-.812.813-3.251 5.28zm-10.972-12.998l-.406 2.843-2.438-1.219-6.096-3.655 9.347-.407-.407 2.438zm-9.752-1.625l-4.47 4.874-2.032-2.843-1.626-2.844 8.128.813zm-17.88 5.28l9.752-6.093 3.251 5.687-13.003.406zm-.406.407l7.72 10.155 4.064 5.687-19.912-12.186 3.251-1.625 4.877-2.031zm-9.347-.407l-5.282 3.25-.407-3.656-.406-4.874 10.159 2.437-4.064 2.843zm-12.597-4.062l-6.095 1.219-2.438-8.124 14.629 5.687-6.096 1.218zm-8.939-6.499l1.219 4.062 1.219 4.062-5.283-2.843.406-.406 2.439-4.875zm0 17.061l2.844 9.749-8.94-4.468.407-.407 5.689-4.874zm-12.191 4.062l-5.283-1.625 2.845-4.062 1.625 3.25.813 2.437zm-37.791 23.154l5.689-15.03 11.378 2.031-17.067 12.999zm0 0l-5.689-17.061 11.378 2.031-5.689 15.03zm-21.131-23.967l11.378 5.281 3.251 1.219-15.442 1.218.407-5.28.406-2.438zm-6.502 10.968l5.689-3.25 5.283 7.312-3.251-1.218-7.721-2.844zm29.664 34.528l.813 8.936-16.66-7.718 13.409-22.341 2.438 21.123zm4.064 21.529l-7.314-.813 4.876-11.373 2.438 12.186zm-2.844-11.78l7.314 10.155-4.47 2.031-1.219-5.281-1.625-6.905zm30.476 26.403l-4.47 5.687-6.095-5.281 10.565-.406zm6.908 6.906l10.972-10.155v14.623l-6.095-2.437-4.877-2.031zm29.258 9.749l4.064 3.249 2.844 2.438-8.127 5.28.813-6.499.406-4.468zm19.505-8.124l-2.438 12.592-4.876-9.343 7.314-3.249zm0 0l4.064 5.28 1.219 1.625-7.721 5.687 2.438-12.592zm31.696-3.25l2.844.812.813 3.25-4.876-4.874 1.219.812zm3.657 2.437l-.406-1.218 3.251 1.624 1.219.813-4.064 1.218v-2.437zm5.283-10.155v-.406l11.378 8.124-11.785 4.062.407-11.78zm19.505-6.093l-4.064-9.749 5.689 3.25-1.625 6.499zm2.032-6.093l5.282-1.219 2.438 6.093-7.72-4.874zm.406-15.03l12.597 7.312-13.816 2.843 1.219-10.155zm8.127 4.468l-8.127-4.468 13.816-7.312-.813 14.624-4.876-2.844zm6.095-12.186l3.658-3.656 2.438-2.437 7.721 5.281h-1.626l-12.191.812zm24.788 3.25h8.127l-5.689 4.468-2.031-3.656-.407-.812zm13.004 1.625l1.625-3.25 3.657 8.124-6.095-2.031.813-2.843zm-6.502-38.184l11.378-2.031 11.784-2.031-12.597 15.436-10.565-11.374zm0 0l-1.626-4.062-3.25-7.718 28.038 7.718-23.162 4.062zm-15.848-11.78l4.876-10.968 5.689 10.562-10.565.406zm0 .406l10.565-.406-1.219 2.031-3.251 5.281-2.438-3.25-3.657-3.656zm-5.283 15.03l-3.657 4.468-4.876-17.873 14.222 5.281-5.689 8.124zm-3.657 4.468l-5.282-2.437-6.909-3.656 7.315-11.78 4.876 17.873zm-13.816-5.28l-6.502 4.062-2.438-2.844-2.032-2.437 12.191.406-1.219.813zm-15.848-4.875l-.813-.406 10.566-6.093-5.283 10.155-4.47-3.656zm-12.597-7.312l-4.876 1.625-1.219-9.749 6.095 8.124zm-15.441-5.28l-.407-4.062 8.534.812-8.127 3.25zm-34.541-6.094l-7.721 3.656 2.845-6.093 4.064 2.031.812.406zm-33.321-5.686l-.406-3.25 2.844-2.031-2.438 5.281zm0 .406l-5.689 3.249 5.283-6.499.406 3.25zm2.845 11.374l-3.658 3.249-2.438 2.438-6.095-9.749 12.191 4.062zm-56.078 10.155l-4.063-11.78 10.971 3.656-6.908 8.124zm-15.848 1.218l-5.282 2.844 6.095-10.155-.813 7.311zm-5.689 9.749l-4.47 1.625 4.064-7.718.406 6.093zm0-5.687v-.406l10.566 4.062-10.566 2.031v-5.687zm30.071 56.463l-3.657-1.624 6.501.406-2.844 1.218zm-.407 2.438l4.064-3.25 7.721 10.561-12.191-6.499.406-.812zm27.226 17.06l5.283 15.436-11.378-8.124.406-.406 5.689-6.906zm22.756 5.687l8.127 4.469-5.282 2.843-2.845-7.312zm8.534 4.469h9.346v2.031l-.813 8.53-8.533-10.561zm16.254 6.093l-3.251 7.311-4.47-2.031 7.721-5.28zm.406-.407l3.251-8.124.813-2.031 3.251 6.093 2.032 3.25-9.347.812zm17.474-6.499l3.657 14.624-11.378-8.531 7.721-6.093zm.406 0l9.753 7.718-6.096 6.499-3.657-14.217zm0-.406l6.908-7.312 2.845 13.811.406 1.219-10.159-7.718zm10.159 8.124l-.406-1.219-2.439-13.811 7.721 6.093 4.064 3.25-8.94 5.687zm27.226-9.749l-3.251-4.468 11.784-3.656-6.095 6.093-2.438 2.031zm-2.032-17.061l15.035-14.623 4.064 10.155-10.159 2.437-8.94 2.031zm20.724-10.967l7.721 4.874-8.94 1.625 1.219-6.499zm5.283-1.219l-2.438.406-2.438.407-.407-4.469 4.877 2.844.406.812zm23.569-21.935l-1.626 9.343-12.191-8.937 13.817-.406zm.406 0l4.47.406v.406l1.219 3.656-2.032-1.625-3.657-2.843zm6.095 4.468l4.064-.406-1.219 3.656-1.626-2.031-1.219-1.219zm6.908 4.062h8.94l-4.876 5.281-4.064-5.281zm16.255.813l1.625-4.469 3.251 6.906-5.283-1.219.407-1.218zm-2.439-13.405l19.506-6.5-15.442 14.624-4.064-8.124zm-21.13-51.182l-4.876 10.561-5.689-4.062 10.565-6.499zm-4.47 10.967l5.689 6.906h-4.876v-.406l-.813-6.5zm.813 6.906l-.813-.406-13.41-4.875 13.004-1.625.812 5.687.407 1.219zm-34.541 6.093l4.877-10.561 7.314 10.967-12.191-.406zm-6.095-4.468L388.214 170l1.219-8.124 2.439 7.312 2.844 6.093zm-6.502-5.687l-4.47-1.219 5.689-7.312-1.219 8.531zm-20.317-10.155l1.625-1.625 4.47-4.062 2.844 6.905-8.939-1.218zm6.095-6.094l-1.219 1.219-5.283 4.875-5.282-8.125 6.501 1.219 5.283.812zm-21.943-1.624h-.813l-7.315-.407 5.689-6.093 2.439 6.5zm-23.569 3.249l-10.972-13.811 17.88 9.749-6.908 4.062zm-.406 0h-.407l-9.346-2.437-.406-6.499-.813-4.875 4.064 5.281 6.908 8.53zm-21.537-14.623l10.565.406.406 4.468.407 6.906-.813-1.219-10.565-10.561zm10.971 11.78l-7.314-2.844-7.314-2.843 3.25-6.093 7.315 7.718 4.063 4.062zm-15.035 10.967l-11.378-4.062 3.251-3.249 8.127 7.311zm-12.191-4.062L285 166.344l-8.534-8.124 2.032-4.062 11.784 4.874zM285 166.75l-5.283 4.062-6.095-6.093 2.844-6.499 8.534 8.53zm-11.785-2.031l-4.063 1.219-2.032-16.655 8.94 8.937-2.845 6.499zm-2.844 12.999l-5.283-.813-6.501-1.218 2.844-8.124 7.315-1.625 1.625 11.78zm-11.784-2.031l-11.378-2.031 6.501-8.124 7.721 2.437-2.844 7.718zm-15.848-14.217l9.346-4.875 1.625 8.53-10.971-3.655zm-.407 0l-1.625-4.875-1.219-4.062.813-.406 10.971-1.219.813 5.281-9.753 5.281zm-17.067 16.654l-19.098-14.217 25.6 2.843-6.502 11.374zm0 0l-2.031 3.656-2.439 4.468-1.625-2.437-13.003-19.904 6.095 4.468 13.003 9.749zm6.096 5.687l4.876-.812-.406 6.905-.813 10.561-9.753-15.435 6.096-1.219zm21.13 7.718l-4.876 8.124-8.533 14.217-3.658-12.998 17.067-9.343zm-13.003 22.748l15.848 7.311-13.004-3.249-.812-1.219-2.032-2.843zm2.438 4.062l.813 4.062-11.785-4.469h1.219l9.753.407zm13.816 3.656l-3.251 7.717-1.219 3.25-4.063-3.656 8.533-7.311zm0 13.404l2.845-.812-4.064 3.25 1.219-2.438zm10.972 10.156l.406 8.53.407 5.281-12.191-10.562 1.219-.406 10.159-2.843zm20.724 25.184l6.095-14.217.813 3.656 2.032 10.155-8.94.406zm9.346-.812l4.47-5.687 3.251-3.656 2.844 7.312-5.689 1.219-4.876.812zm42.668.406l-.407 10.155-8.94-9.342 9.347-.813zm18.692 1.625l8.94-5.281.406 13.405-9.346-8.124zm8.94-5.687l4.47-10.561.812-2.031 3.251 3.249 1.626 1.625-2.438 1.625-7.721 6.093zm14.222-.406l1.219-7.718 3.251 4.468h-.406l-4.064 3.25zm8.534-2.844l-.407.813-1.219 1.219-2.438-2.844 2.438.406 1.626.406zm4.063-8.53l-4.063 8.53-1.219-.406-2.845-.406 3.657-3.25 4.47-4.468zm.407-.812l-4.47-3.25-6.502-4.874 4.064-.813 15.035-4.062-4.876 8.124-3.251 4.875zm17.879-14.218l4.064 4.063-6.502 8.936 1.626-7.718.812-5.281zm.407-.406l4.063-2.031-.406 6.093-3.657-4.062zm3.657-2.031l-4.064 2.031-1.625-4.468-.813-1.625.813.406 5.689 3.656zm-7.314-4.874l-5.283-3.25 13.41-2.843-7.721 6.093h-.406zm33.321-13.405l3.657.812.406 4.062-3.251-4.062-.812-.812zm13.003.812l1.626 6.093-6.502-.406 4.876-5.687zm11.785 1.625l-2.439-5.687 15.036-14.623-11.785 21.529-.812-1.219zm-5.689-31.278l12.597-15.842 6.095 25.997-18.692-10.155zm-32.915-28.028l-5.283-9.749 15.848 3.249-10.565 6.5zm0 .406l5.689 4.062-13.004 1.625 7.315-5.687zm-22.756 6.499l-10.566 6.5-2.031-5.687-2.845-8.531 8.534 4.469 6.908 3.249zm-21.944-.406l-6.501-7.718 12.597.406-6.096 7.312zm-10.158-15.03l-11.378-2.031 1.219-7.718 10.159 9.749zm-37.792-2.437l-1.625-14.623 9.346 15.029-7.721-.406zm-.812-4.874l.406 4.468-3.251-1.625-15.035-8.124 16.661-4.875 1.219 10.156zm-18.286-5.687l-8.534-4.062 4.876-1.625 3.251 5.281.407.406zm-8.534-3.656l3.657 1.625 4.877 2.437-10.159-.406 1.219-2.844.406-.812zm-5.282 9.749l-2.845 1.625 3.251-4.875-.406 3.25zm-24.788 7.312l-1.626 4.062-8.939-8.531 10.565 4.469zm-11.378-4.469l2.032 16.655-7.315 1.625-7.314-2.438 10.565-13.404 2.032-2.438zm-13.004 15.842l-1.625-8.53 14.222-7.312-12.597 15.842zm-1.625-8.53l-.813-5.281 14.629-2.031-13.816 7.312zm-13.003-3.656l-3.658 6.5-3.657 7.311-25.6-2.843 32.915-10.968zm-18.693 33.715l-4.876 9.343-9.346-31.278 14.222 21.935zm.406 0l4.47-2.031-4.47 12.593v-10.562zm17.88 27.216l-6.095-2.843h-.407l2.845-9.749 1.625 5.281 2.032 7.311zm.407.407l2.438 3.655.406.407-10.972-.407 3.658-1.624 4.47-2.031zm12.19 19.498l3.251 1.218.406.406v.407l-1.219 2.437-1.625-3.656-.813-.812zm2.845 4.468l-3.251 2.843.813-7.311 2.438 4.468zm0 .406l11.378 6.093.812.406-11.378 3.25-.406-7.718-.406-2.031zm18.692 14.217l2.845-3.249v12.592l-8.127-2.843 5.282-6.5zm5.283 11.374l8.94 6.499-10.159.813-.813-8.531 2.032 1.219zm29.664 3.656l5.282-2.843-2.438 13.811-2.032-9.343-.812-1.625zm3.251 11.374l10.971-2.844 1.626 8.531-12.597-5.687zm15.441-.406l1.626 7.311-4.877-1.218 3.251-6.093zm30.477-5.281l1.219-1.219 9.346 7.718-15.441-1.218 4.876-5.281zm10.565-7.312l7.721-5.281 2.844-2.031 2.845 6.906-13.41.406zm13.816-.406l3.251-2.844.813-.406.813.813 1.625 2.031-2.438.406h-4.064zm7.315-.406l1.219-2.031 2.844 3.656-4.063-1.625zm6.095-11.78l7.721-12.593 6.502 11.78-14.223.813zm25.194-6.5l-10.159 5.687 6.502-8.936 2.844 2.843.813.406zm-2.032-21.122l.813-14.624 8.94 6.499 3.251 2.438-.407.406-12.597 5.281zm15.442-5.687l8.533-1.219-.812 9.749-9.347-8.124 1.626-.406zm13.003 3.656l-.406-4.063 4.064 4.875-3.658-.812zm10.972 1.218l-1.625-6.093 6.095 2.031-4.47 4.062zm4.47-3.249l-.813 6.499-4.063-2.844 4.876-3.655zm-.406 6.499l.812-6.906 5.283 1.219-2.845 2.843-3.25 2.844zm9.752 4.062l-4.47-2.031.813-7.312.813 2.031 2.844 7.312zm2.845-58.9l-18.693-27.216 27.226-14.624-8.533 41.84zm-19.099-27.216l-5.689 11.78-3.657 7.718-5.689-10.562 13.409-7.718 1.626-1.218zm-15.442 8.936l-15.848-3.249 11.785-8.531 4.063 11.78zm-10.971 6.906l-3.658 2.843-3.657 2.844 2.032-15.436 5.283 9.749zm-7.721 6.093l-7.315 11.78-5.282-7.718-2.032-3.249h3.251l11.378-.813zm-15.035.406l-15.848-7.718 16.66-6.905-.812 14.623zm-28.852-8.53l5.283-6.093 5.283-6.093 2.031 12.592-12.597-.406zM363.02 143.19l-11.784 1.625h-1.219l3.251-14.217 1.625 2.031 8.127 10.561zm-45.918-2.843l-1.625-2.437-2.032-3.656 3.251-3.25.406 4.874v4.469zm-3.657-6.093l-.407-2.438 3.251-.406-2.844 2.844zm-5.689 2.031l-1.626 3.656-1.219-9.749 2.032 4.468.813 1.625zm-4.47 9.749v-3.25l2.438-2.031-2.438 5.281zm-21.537-5.687l17.473 8.124-5.282 6.905-3.251 3.25-.407-1.219-8.533-17.06zm8.533 18.685l-12.19-5.28 1.625-3.656 1.626-9.749h.406l8.533 18.685zm-10.565-8.936l-1.625 3.656-10.972-4.469 14.223-8.53-1.626 9.343zm-28.445.812l-.406-2.843 2.438-4.469 13.41 5.281-15.442 2.031zm-.812-2.843l-6.096-7.312 8.127 3.25-2.031 4.062zm-6.096-7.312l6.096 7.312-10.159 4.062h-.813l.813-2.031 4.063-9.343zm-38.604 22.748l-5.689-11.78-6.095-13.405 25.6-11.78-13.816 36.965zm-29.664 16.248l17.474-41.433 11.784 25.591-29.258 15.842zm0 0l29.664-15.842.407 37.371-30.071-21.529zm44.699 18.685l4.47-13.404 9.753 15.435-6.908-1.218-7.315-.813zm11.378 12.593l6.502 2.843-1.625.813-6.502 3.249 1.219-5.686.406-1.219zm8.94 11.374l1.626.812-15.035 10.562 2.844-15.843 10.565 4.469zm2.032 8.936v-8.124l1.626 2.844 2.031 3.655-.812.407-2.845 1.218zm10.972 7.312l.406 5.281.406 4.468-4.063-6.905 3.251-2.844zm33.321 32.09l-3.657 10.968-6.502-10.155 10.159-.813zm8.94-.406l1.219 5.281.406 2.031-10.565-6.499 8.94-.813zm8.533 2.031l-5.282 8.124.812-6.905 4.47-1.219zm.407 0l-6.096-1.625-2.031-.406 10.565-2.437-.813 1.219-1.625 3.249zm12.597 21.123l-6.908-13.811 6.095 2.437 6.502 2.844-1.219 1.625-4.47 6.905zm21.537-12.999v-10.155l11.378 8.531-11.378 1.624zm6.095-.406l5.689-.812v8.124l-11.784-6.499 6.095-.813zm63.798-26.809l5.283 1.218 5.282 1.219-2.438 8.124-1.625-2.031-6.502-8.53zm10.972 2.437l-10.566-2.437 10.566-5.687.406 7.718-.406.406zm-3.658-12.186l6.096-2.844-2.438 6.093-3.658-3.249zm-.406-.407l.406-6.093 5.689 3.25-6.095 2.843zm15.035-22.341l-1.219 11.374-12.191-5.687 13.41-5.687zm10.972-1.625l4.063 4.875-4.876 4.874.813-9.749zm19.099 9.749l2.844 1.219 2.032.812-6.502 3.656 1.626-5.687zm5.282 9.343l6.908 1.625-4.47 4.874-2.438-6.499zm4.064 4.874l2.844-2.843.813 9.749-4.876-4.875 1.219-2.031zm.406-10.561l-3.251-9.749 5.689 1.219 15.442 2.843-3.657 1.219-14.223 4.468zm12.597-6.906l-15.848-2.843.407-.812 11.784-21.53 9.346 25.998-5.689-.813zm15.848-41.433l5.283-4.062 4.063 27.622-28.851-7.312 19.505-16.248zm-25.6-10.561l6.095-30.466 2.438-11.78 20.724 18.28-29.257 23.966zm-53.233-5.281l-14.629.813.406-4.469.813-10.155 6.502 6.499 6.908 7.312zm-30.883-7.718l-1.626-9.343-.406-3.249 18.692 5.687-16.66 6.905zm-2.845-12.186l-10.159 11.78-2.844-6.906 6.095-2.437 6.908-2.437zm-33.727-17.873l15.441-2.437-5.282 15.029-10.159-12.592zm0 0l-3.658 14.217-15.441-8.937 19.099-5.28zm-10.159 10.561l6.908 4.062-6.096 6.093-6.501-10.155-3.251-5.281 8.94 5.281zm-21.943-12.592l-4.064 11.374-.406-8.937 3.657-2.031.813-.406zm-15.036 11.78l-2.844 2.437 1.625-12.186 1.219 9.749zm-2.844 2.437l-1.219 2.031-2.032 3.656-17.473-8.124 19.098 2.437h1.626zm-64.204 9.749l-20.318 6.906-13.004 4.062 11.378-30.06 2.845-7.312 19.099 26.404zm-64.205 41.433l-1.219 27.216-40.229-21.935 42.261-19.092-.813 13.811zm9.346 2.031l-8.127-15.842 29.664 21.123-10.159 16.248-11.378-21.529zm36.572 2.437l14.223 2.438-.813 2.843-2.032 7.312-7.314-8.124-4.064-4.469zm10.972 12.593l-1.625 6.905-6.502-5.686 8.127-1.219zm-3.657 22.748l8.127-6.094 6.502-4.874v8.124l-13.816 2.437-.813.407zm17.473-3.656l.813-.407 4.064 3.656-7.721-2.031 2.844-1.218zm5.283 3.656l-4.064 5.686-3.657-7.717 7.721 2.031zm4.063 15.029l12.191 10.562-9.752 2.437-1.219.406v-4.468l-1.22-8.937zm10.566 11.374l2.032-.406.406 4.468.406 3.656-11.784-5.281 8.94-2.437zm2.032-.812l2.438.812 5.282 2.031-6.908 5.281-.812-7.312v-.812zm8.127 3.249l.812 8.531-7.72-3.25 6.908-5.281zm11.784 8.531l.813 2.031 4.063 11.374-8.533-2.844 3.657-10.561zm0 0l2.844 1.624 7.721 4.875-5.282 6.906-3.251-8.937-2.032-4.468zm10.972 6.093l-1.626-6.906 3.657 3.25-.406.812-1.625 2.844zm10.565 13.811l1.625-11.374 6.908 13.811-8.533-2.437zm8.94 2.437l2.031-3.656 2.845-4.468-1.219 5.281-3.251 2.031-.406.812zm4.47-3.25l1.219-5.28 1.625.406 3.251.812-2.438 1.625-3.657 2.437zm4.47-11.78l12.19 2.031-10.565 5.281-1.625-7.312zm24.787.813l8.94 8.53-8.94-.406v-8.124zm9.346 8.53l-6.095-5.687-2.844-2.843h.406l15.035 1.218-5.282 6.5-1.22.812zm6.096-20.716l8.533 15.435-8.127-2.437-.406-12.998zm8.533 15.435l-8.533-15.842 13.816-.406-3.657 11.78-1.626 4.468zm17.474-15.435l1.625-12.999 10.565 7.718-7.72 3.25-4.47 2.031zm12.19-5.687l-10.565-7.718 14.223-.813-2.032 4.062-1.626 4.469zm4.064-8.124l8.127 10.561-12.191-2.437 4.064-8.124zm13.41-12.187l.812 4.875-3.25 1.218 2.438-6.093zm6.501 1.625l-5.282 2.844-1.219-4.875 6.501 2.031zm17.067-18.685l1.219 2.437.813 2.031-5.689.406h-1.219l4.876-4.874zm2.438 4.468l1.626-3.25 6.095.406-.812.407-6.909 2.437zm8.534-2.437l3.657 2.843-1.625 5.281-2.032-7.312v-.812zm19.911 10.561l-3.657 2.843-.406-.812-2.032-6.093 17.88-5.687-11.785 9.749zm32.103-28.841l-4.064-27.622 35.759 20.31-6.501 1.625-25.194 5.687zm-18.693-30.872l-16.66-3.249 29.257-23.966 1.219 29.653-13.816-2.438zm-55.671-33.715l-5.689 4.468-5.689 4.063 4.064-10.968 7.314 2.437zm-13.003 8.937l-15.035 1.625 10.565-7.312 5.283 5.281-.813.406zm-34.54-4.062l-11.785 4.468-1.625.812v-1.218l.406-13.405.813.406 12.191 8.937zm-34.541-17.873l-18.692 5.28 5.283-10.155 13.409 4.875zm-19.098 5.686l-16.255 4.875 4.064-11.78 7.721 4.468 4.47 2.437zm-21.131-4.062l-4.47 4.469-3.251-6.5 1.626.407 6.095 1.624zm-30.883 8.125l10.972-8.937 9.752 11.78-20.724-2.843zm-43.074-2.844l-18.692-10.968 18.692-6.499 5.689 20.717-5.689-3.25zm-19.099-10.968l-25.6 11.781 3.251-37.778 22.349 25.997zm-31.695 105.208l7.314-12.998.813 10.561-8.127 2.437zm18.286-30.059l8.94-4.875-5.689 7.718-1.22-.812-2.031-2.031zm25.6 9.749l-8.127.812-3.251-12.998 11.378 12.186zm-8.533 11.78l6.908-4.468-2.438 15.436-4.064-10.156-.406-.812zm23.975 16.654l1.625-2.031 2.438-3.655-.812 7.311-3.251-1.625zm3.251 2.032l4.063 6.905h-8.533l2.438-4.062 2.032-2.843zm4.469 7.311l1.626 13.405-10.972-4.062 9.346-9.343zm44.293 27.622l1.626-2.437-.813 6.499-1.219-3.249.406-.813zm4.47-1.218l1.626-2.844 2.438 3.656 2.438 3.25-7.721 1.218-2.844.407 4.063-5.687zm7.315 16.654l6.908 2.031-4.064 7.718-4.876-10.155 2.032.406zm10.565-.812l1.219 8.936-4.876-6.499 3.657-2.437zm52.014-5.281l-12.191 2.031 6.095-7.718.813.813 5.283 4.874zm2.438-3.25l1.219-4.062 3.657-12.186 6.908 10.968-11.784 5.28zm17.067-15.029l7.72 10.967-12.19-1.218 4.47-9.749zm24.787-3.656l2.439-8.124 7.72 7.718-10.159.406zm4.877-23.56l7.314-7.718-.813 9.749-6.501-2.031zm23.568-11.374h2.438l1.22 7.718-8.534-7.312 4.876-.406zm13.816 5.281l6.502-3.656-.406 7.312-1.219-.813-4.877-2.843zm8.94 10.561l-3.657 2.031 1.219-8.124 2.438 6.093zm4.47 4.468l.813.813-3.251 2.843-2.032-7.718 4.47 4.062zm.813.813l-.813-10.155 2.845 2.031 7.314 5.28-9.346 2.844zm-.406-10.155l15.441-12.593-5.283 20.311-10.158-7.718zm15.441-12.999l-3.251-9.343-6.095-16.654 7.721 2.031 21.13 5.28-5.689 5.281-13.816 13.405zm19.912-19.092l31.289-7.718-4.876 16.655-26.413-8.937zm-18.693-69.867l-7.721-6.906 44.7-12.592-23.975 30.465-13.004-10.967zm10.565-38.996l26.414 19.498-44.7 12.592 3.658-6.093 14.628-25.997zm-18.286 32.09l3.251-23.56 15.035-8.124-18.286 31.684zm-28.038 14.623l-4.876-17.466 11.784-6.5-6.908 23.966zm-2.845-10.155l2.845 10.562-3.657-2.844-12.597-9.343 11.378-5.686 2.031 7.311zm-13.816-1.218l16.254 11.78-19.505-2.844.407-1.218 2.844-7.718zm-31.289 19.498l2.032-7.718 8.533.406-10.565 7.312zm-19.099-5.687l1.625-8.937 9.347 3.656-10.972 5.281zm1.625-9.343l-1.219 6.905-.406 2.438-2.845-2.031-9.752-7.312h14.222zm-15.035-.406l-10.971 4.874 4.876-13.405.406-1.624.407.812 5.282 9.343zm-19.505-10.155l-1.625 1.624-2.438-8.124 8.939.406-4.876 6.094zm-21.13 7.311l-9.753-5.687-2.438-1.218 6.908-.813v.407l5.283 7.311zm-13.004-6.905l-4.063 2.437v-.406l.812-2.031h3.251zm-5.689 1.625l-2.032 1.624-7.314-2.031 11.784-1.218-2.438 1.625zm-11.784 12.186l-10.159-11.374 11.378-1.219-1.219 12.593zm-33.728-8.937l.813.406 10.972 6.094v.406l-14.223 8.53v-.812l2.438-14.624zm-2.844 15.436l-13.41-5.281 5.283-9.749 6.501 11.374 1.626 3.656zm-22.35-8.53l-5.282-20.311 10.971 10.968-2.844 4.468-2.845 4.875zm-24.788-14.624l-22.349-25.591 19.505 6.906 2.844 18.685zM193.57 137.91l-2.845-1.219-47.137-20.717 13.816-11.78 18.692-15.842 2.845 7.718 14.629 41.84zm-42.261-28.435l-7.315 6.499 10.565-37.37 21.537 10.154-24.787 20.717zm42.261 28.841l-17.88 41.433-26.82-22.748 6.096-2.437 38.604-16.248zm-10.972 112.519l-1.219-5.28 8.94-5.281-7.315 12.186-.406-1.625zm5.283-19.091l8.533-2.438-6.095 10.562-2.438-8.124zm7.72-13.812l2.032-.406 5.283-.812-6.096 11.78-1.219-10.562zm19.912-21.529l4.876 2.031-4.47 9.343-.406-4.468v-6.906zm8.533 15.843l6.096 5.28.406.406-6.908 4.469.406-5.281v-4.874zm-.812 10.561l-6.502-4.062 6.908-6.499-.406 10.561zm-7.315 5.687l5.283-4.062 1.625-1.219 3.251 8.531.813 2.437-2.032-1.625-8.94-4.062zm11.378 5.687v1.625l.407 7.311-8.94-5.28 8.533-3.656zm82.897 45.089l-1.626 11.374-6.908-7.718-1.625-1.625 10.159-2.031zm-1.626 12.186l4.47 10.155-7.314-2.031 2.844-8.124zm19.912-5.281l8.94-4.468 1.625-.812-3.251 9.749-4.876-2.844-2.438-1.625zm10.972-5.28l11.784 6.499-6.908 5.281-.407-1.219-4.469-10.561zm11.784 6.905l-1.626 8.531-5.689-3.25 7.315-5.281zm6.908 11.374l-6.502-11.374 9.346.406-1.219 4.469-1.625 6.499zm15.442-13.405l-5.689-5.281 7.72 2.438-2.031 2.843zm14.222-8.124l-4.064 7.312-8.127-2.031 12.191-5.281zm30.07-13.405l9.753-.406-5.689 6.905-4.064-6.499zm2.845-8.53l4.876-5.281 4.47 4.468-9.346.813zm4.47-6.093l-1.626-.813-3.657-1.625 1.219-.406 2.032-.812 1.219 2.437.813 1.219zm5.282-17.061l10.566-3.25-5.283 16.249-2.438-5.687-2.845-7.312zm18.286-3.656l10.566 5.687-9.346 2.031-1.22-7.718zm17.474 9.343l-1.219 8.124-4.064-6.093 5.283-2.031zm2.438 6.905l2.032 7.718-5.689-6.093 3.657-1.625zm4.47 6.093l1.219-1.218 8.533-2.031-11.378 4.874 1.626-1.625zm32.915-17.873l-16.255-6.499 19.099-18.686-2.438 21.529-.406 3.656zm34.946-32.903l8.534 12.999-13.41 3.25 4.876-16.249zm43.074-2.843l-13.003.406 24.788-26.809-11.785 26.403zm-13.816.812l-9.753 8.937-19.505-6.906 29.258-2.031zm-29.664 1.625l-18.286-10.561-17.473-9.749 48.762-28.841-13.003 49.151zm-35.759-20.31l-1.219-30.059 49.981 1.218-48.762 28.841zm-.813-30.466l23.975-30.465 40.229-4.062-64.204 34.527zm23.569-30.871l-10.159-25.998 13.003-7.311-2.844 33.309zm-10.159-25.998l10.159 25.998-26.007-19.498 15.848-6.5zm-31.696 15.03l-3.251 23.966-10.159-15.436 13.41-8.53zm-13.41 8.53l7.315 10.968 2.438 4.062-19.912-9.343 10.159-5.687zm-34.134 18.28l-3.251 8.936-7.72-2.437 10.971-6.499zm-15.441 17.873l-5.283-5.281 8.94-5.281-3.657 10.562zm-13.816-6.093l-2.032 7.718-7.315-10.968 9.347 3.25zm-23.163-7.312l-11.378-.406.407-.406 4.063-3.656 9.753 4.468h-2.845zm-6.908-4.468l-1.625 1.624-2.845 2.844-4.47-8.937-.812-1.624 9.752 6.093zm-25.194-4.062l6.095-7.312.407-.406 8.94 5.28-15.442 2.438zm-3.251-8.125l2.438 8.125-13.409-4.875 10.971-3.25zm-16.254 13.405l-5.283-8.124 10.566-2.031-5.283 10.155zm-9.753-7.718l-3.25.407h-1.626l4.876-.407zm-31.695 3.25l-10.972 8.937v-2.031l-.406-5.281 11.378-1.625zm-11.378 1.219v.812l.406 6.499-11.784-6.499 11.378-.812zm-12.191 1.218l-2.438 15.436-8.127-15.03 10.565-.406zm-24.381 6.906l4.469-7.718.813-1.625 8.127 2.843-13.409 6.5zm6.501-16.249l-1.219 6.5-3.251-3.25-7.72-7.718 12.19 4.468zm-18.286-2.843l-13.41 4.874-2.844-19.091 21.537 12.592-5.283 1.625zm-36.166-21.123l-1.625 20.717-1.219 17.061-17.473-49.152 20.317 11.374zM78.977 55.449l27.226 13.405 36.572 46.308-63.798-59.713zm27.632 13.405l28.445 13.811 8.127 32.903-36.572-46.714zm28.852 13.811l-28.852-14.217-15.035-18.686 62.579 28.435-10.565 37.371-8.127-32.903zm8.127 33.715l49.982 21.936-21.131 8.936-23.162 9.749-.407-.406-5.282-40.215zm-27.632 69.462l-22.35-62.15 54.858 32.497v.812l-32.508 28.841zm32.508-28.841l27.226 22.748-42.261 19.092 15.035-41.84zM85.073 208.59l47.95-8.937 1.219 19.092.812 15.842-49.981-25.997zm88.585 12.998l-.406 30.06v3.249l-37.791-20.716 38.197-12.593zm5.689 25.998l1.626-2.031 1.625 6.499-8.94 2.437 5.689-6.905zm23.975-31.685l2.438-14.217 3.251 2.844-5.689 11.373zm6.502-11.373l5.689-8.125.406 11.374-6.095-3.249zm8.127 0l2.844-5.687 2.032 8.936.813 4.062-7.721-3.656 2.032-3.655zm-1.625 14.217l6.501 4.062-6.908 5.687.407-9.749zm-.407 10.155l2.032.812 9.346 4.469-1.219.406-7.314 2.843-2.845-8.53zm12.191 14.217v-2.437l-.406-6.499 10.158 7.718-9.752 1.218zm10.159-.812l2.438-4.062 2.032.812 3.657 1.219-8.127 2.031zm8.533-2.437l3.251 1.625-4.063 6.499.812-8.124zm-.812 8.53h8.533l-9.346 9.343.813-9.343zm-.407 10.155l9.346 3.25 1.626.406-5.689 2.844-.813.406-4.47-6.906zm4.47 7.312l6.096-3.25 1.219 6.093.406 2.438-7.721-5.281zm8.534 5.281l-2.032-8.531 11.784 5.281-9.752 3.25zm10.159-2.844l7.72 3.25-7.72 4.468v-7.718zm7.314 3.656l-.813 9.343-6.095-5.281 6.908-4.062zm-.406 9.749l7.72.406-4.876 1.625-2.844-2.031zm2.844 2.031l4.876-1.625.407 5.281-5.283-3.656zm5.689 3.656l-.406-5.281 4.47 4.062-4.064 1.219zm4.064-1.219L285 283.332l-.813-.813 8.127 2.438-4.063 1.218zm10.159-8.53l1.219 3.25-6.502 3.656 5.283-6.906zm1.219 3.656l8.533 9.749-10.565-2.437 2.032-7.312zm-1.626 7.312l6.908 1.624 3.657.813-8.127 2.437-2.438-4.874zm10.565 2.843l-1.625 4.468-1.219 4.062-5.283-5.687 8.127-2.843zm5.283 10.155l.406-.406 3.658-7.312 2.844 3.656 2.032 2.844-8.94 1.218zm9.346-1.625l-.812-9.342 7.314 4.062-6.502 5.28zm6.502-4.874l-1.219-8.53 3.657 2.031 3.657 2.031-6.095 4.468zm6.502-4.468l3.251-9.749 4.469 11.78-7.72-2.031zm13.816 6.093l1.625-8.531 4.064 7.312 2.438 4.062-8.127-2.843zm8.127 2.437l.813-2.843 2.031-8.125 3.658 5.281 1.219 1.625-7.721 4.062zm8.127-4.062l-.813-1.219-4.063-5.687 9.346 4.062-4.47 2.844zm4.47-2.844l-9.346-4.062 12.191-2.031-2.845 6.093zm13.41-7.717l4.063-7.312 5.283 7.718-9.346-.406zm9.346.406l-4.876-7.718 12.19 1.218-7.314 6.5zm7.314-6.906l-7.72-10.967 9.346 2.437-1.626 8.53zm2.032-8.53l2.845-8.124 5.689 8.936-8.534-.812zm8.94.812l6.095-6.499 4.47 6.499h-10.565zm16.254-6.905l-2.844-3.25-4.47-4.468 9.752-.813-2.438 8.531zm-2.438-13.811l-1.219-2.438-.813-1.624 5.283-2.844-3.251 6.906zm4.876-17.061l5.283 12.592-6.095-2.843.812-9.749zm5.689 12.999l5.283-16.249 4.064 14.624.406 1.625h-9.753zm9.753 0l-4.47-16.249 4.876 4.062 3.658 3.25-4.064 8.937zm14.222-10.968l6.096 3.656-4.876 2.031-1.22-5.687zm24.382 12.592l5.282-20.31 4.877 9.749 2.032 4.062-12.191 6.499zm24.381-38.996l4.876 12.593 3.251 8.124-10.971 4.468 2.844-25.185zm8.534 20.717l-8.127-20.717 17.879 14.218-9.752 6.499zm10.159-6.499l-9.347-7.312-8.533-6.906 26.007 8.937-8.127 5.281zm21.943-8.937l-8.534-12.999 19.505 6.906-10.971 6.093zm16.254-10.561l5.283-4.469 12.597-.406-22.35 8.937 4.47-4.062zm30.071-31.684v21.935l-11.785 4.468 11.785-26.403zm.406 21.529v-21.936l9.752 17.873-9.752 4.063zm10.159-3.656l-10.159-17.873 26.819 11.78-16.66 6.093zm17.067-6.5l-26.82-11.78 64.205-15.436-37.385 27.216zm11.378-115.769L653.565 39.2l-44.293 21.935 25.601 5.687zm18.286-27.216l-18.286 27.216-25.194-5.687 43.48-21.53z" fill="#063AC0"/><path d="M567.417 96.476l45.512-9.343-35.759-4.468 20.724-29.654-41.448 20.31-1.626-3.655-9.346 8.937 21.943 17.873zm-21.536-17.467l14.222 1.625 7.314 15.436-21.536-17.061zm0-.406l10.565-5.281 3.251 6.905-13.816-1.624zm14.222 2.03l16.661 2.032-9.347 13.404-7.314-15.435zm52.42 6.5l-44.699 8.937 9.346-13.405 35.353 4.468zm-14.629-33.715L577.17 82.665l-17.067-2.031-3.251-7.312 41.042-19.904zm-42.667 16.654l1.625 3.25-10.565 5.28 8.94-8.53zM43.624 160.657l32.915 28.434 5.282-13.405-38.197-15.029zm32.915 28.434L44.03 161.063l37.791 14.623-5.282 13.405zm488.543-44.869l-10.798 38.739.392.109 10.797-38.739-.391-.109zm20.215-33.529l-55.671 29.247h.407l55.264-28.84v-.407zm53.639-41.839l21.131-31.278-.407-.406-21.13 31.684h.406zm-3.25 10.968l40.635-34.934-40.635 34.527v.407z" fill="#063AC0"/><path d="M39.417 25.56a1.625 1.625 0 10-3.236-.299 1.625 1.625 0 003.236.298zM18.355 56.633a1.625 1.625 0 10-3.236-.297 1.625 1.625 0 003.236.297zm36.649-16.825a1.625 1.625 0 10-3.236-.298 1.625 1.625 0 003.236.298zm12.829 44.453a1.625 1.625 0 10-3.236-.297 1.625 1.625 0 003.236.297zm13.407-1.05a1.625 1.625 0 10-3.236-.297 1.625 1.625 0 003.237.297zm-46.117 27.443a1.625 1.625 0 10-3.236-.298 1.625 1.625 0 003.236.298zm34.672 17.374a1.626 1.626 0 10-3.238-.296 1.626 1.626 0 003.238.296zm6.007 1.973a1.625 1.625 0 10-3.239-.298 1.625 1.625 0 003.239.298zm-28.924 42.857a1.625 1.625 0 10-3.235-.298 1.625 1.625 0 003.235.298zm104.099-16.41a1.625 1.625 0 10-3.237-.297 1.625 1.625 0 003.237.297zM13.876 101.317a1.625 1.625 0 10-3.238-.297 1.625 1.625 0 003.238.297zm18.132 70.209a1.625 1.625 0 10-3.236-.298 1.625 1.625 0 003.236.298zm4.794-7.846a1.625 1.625 0 10-3.236-.298 1.625 1.625 0 003.236.298zM87.12 84.912a1.625 1.625 0 10-3.237-.297 1.625 1.625 0 003.237.297zm42.611-17.688a1.626 1.626 0 10-3.236-.296 1.626 1.626 0 003.236.296zm15.544 48.959a1.625 1.625 0 10-3.237-.297 1.625 1.625 0 003.237.297zm49.901 21.93a1.625 1.625 0 10-3.237-.297 1.625 1.625 0 003.237.297z" fill="#060EC0"/><path d="M150.349 156.683a1.625 1.625 0 10-3.237-.297 1.625 1.625 0 003.237.297zm-14.985 42.267a1.625 1.625 0 10-3.236-.298 1.625 1.625 0 003.236.298zm-48.821 9.261a1.626 1.626 0 10-3.237-.297 1.626 1.626 0 003.237.297zm-32.297-44.717a1.624 1.624 0 10-3.237-.299 1.626 1.626 0 003.237.299zm10.601 35.546a1.624 1.624 0 10-3.235-.299 1.624 1.624 0 003.235.299zm13.077-9.694a1.625 1.625 0 10-3.237-.297 1.625 1.625 0 003.237.297zm-32.677-28.28a1.625 1.625 0 10-3.236-.298 1.625 1.625 0 003.236.298zm72.267 25.181a1.625 1.625 0 10-3.238-.3 1.625 1.625 0 003.238.3zm19.613 47.742a1.626 1.626 0 10-3.238-.296 1.626 1.626 0 003.238.296zm37.817 20.617a1.625 1.625 0 10-3.237-.297 1.625 1.625 0 003.237.297zm.366-32.664a1.624 1.624 0 10-3.237-.298 1.625 1.625 0 003.237.298zm21.664-4.167a1.625 1.625 0 10-3.238-.299 1.625 1.625 0 003.238.299zm20.195-21.931a1.626 1.626 0 10-3.238-.297 1.626 1.626 0 003.238.297zm54.532 15.714a1.625 1.625 0 10-3.237-.297 1.625 1.625 0 003.237.297zm18.889-11.725a1.625 1.625 0 10-3.237-.297 1.625 1.625 0 003.237.297zm32.995-12.097a1.626 1.626 0 10-3.238-.296 1.626 1.626 0 003.238.296zm23.911-13.687a1.626 1.626 0 10-3.238-.296 1.626 1.626 0 003.238.296zm-31.522 36.047a1.624 1.624 0 10-3.237-.298 1.625 1.625 0 003.237.298zm20.658 2.209a1.625 1.625 0 10-3.237-.3 1.625 1.625 0 003.237.3zm1.382 28.065a1.625 1.625 0 10-3.238-.298 1.625 1.625 0 003.238.298zm88.861-54.537a1.625 1.625 0 10-3.238-.298 1.625 1.625 0 003.238.298zm-68.856 27.898a1.625 1.625 0 10-3.237-.297 1.625 1.625 0 003.237.297zm-4.298-17.704a1.625 1.625 0 10-3.237-.297 1.625 1.625 0 003.237.297zm15.956-21.728a1.625 1.625 0 10-3.237-.3 1.625 1.625 0 003.237.3zm13.913 11.884a1.626 1.626 0 10-3.238-.296 1.626 1.626 0 003.238.296zm-111.511-8.081a1.626 1.626 0 10-3.237-.297 1.626 1.626 0 003.237.297zm-17.648 13.651a1.625 1.625 0 10-3.236-.298 1.625 1.625 0 003.236.298zm3.086 30.02a1.626 1.626 0 10-3.238-.296 1.626 1.626 0 003.238.296zm-27.897 11.902a1.625 1.625 0 10-3.237-.3 1.625 1.625 0 003.237.3zm7.154-33.117a1.625 1.625 0 10-3.236-.298 1.625 1.625 0 003.236.298zm11.451-26.486a1.625 1.625 0 10-3.238-.299 1.625 1.625 0 003.238.299zm19.971-24.749a1.625 1.625 0 10-3.237-.297 1.625 1.625 0 003.237.297zm14.857-8.897a1.627 1.627 0 00-3.238-.299 1.625 1.625 0 003.238.299zm-75.704 23.547a1.625 1.625 0 10-3.237-.297 1.625 1.625 0 003.237.297zm-29.596 15.647a1.624 1.624 0 10-3.237-.299 1.625 1.625 0 103.237.299zm43.689-53.243a1.626 1.626 0 00-3.237-.298 1.625 1.625 0 103.237.298zm-43.583-37.82a1.626 1.626 0 10-3.238-.296 1.626 1.626 0 003.238.296zm-21.861-10.145a1.624 1.624 0 10-3.235-.3 1.624 1.624 0 003.235.3zm42.703 21.385a1.624 1.624 0 10-3.235-.299 1.624 1.624 0 003.235.3zm41.429 19.46a1.624 1.624 0 10-3.237-.298 1.625 1.625 0 003.237.298zm.254 33.774a1.625 1.625 0 10-3.237-.297 1.625 1.625 0 003.237.297zm-32.553 48.084a1.625 1.625 0 10-3.238-.299 1.625 1.625 0 003.238.299zm-14.634 37.897a1.624 1.624 0 10-3.237-.298 1.625 1.625 0 003.237.298zM41.302 178.641a1.624 1.624 0 10-3.235-.299 1.624 1.624 0 003.235.299zm-5.012 7.266a1.624 1.624 0 10-3.238-.298 1.625 1.625 0 003.237.298zm15.809 11.256a1.625 1.625 0 10-3.236-.298 1.625 1.625 0 003.236.298zm22.428-158.17a1.625 1.625 0 10-3.236-.298 1.625 1.625 0 003.236.298zm29.499 16.502a1.626 1.626 0 10-3.236-.296 1.626 1.626 0 003.236.297zm315.317 91.121a1.625 1.625 0 10-3.237-.297 1.625 1.625 0 003.237.297zm84.931 2.86a1.625 1.625 0 10-3.237-.297 1.625 1.625 0 003.237.297zm-48.578-3.964a1.624 1.624 0 10-3.237-.298 1.625 1.625 0 003.237.298zm-15.24 9.671a1.625 1.625 0 10-3.237-.297 1.625 1.625 0 003.237.297zm-5.334 11.137a1.625 1.625 0 10-3.238-.298 1.625 1.625 0 003.238.298zm16.138 11.54a1.625 1.625 0 10-3.237-.297 1.625 1.625 0 003.237.297zm9.594 28.858a1.625 1.625 0 10-3.237-.297 1.625 1.625 0 003.237.297zm8.298 16.207a1.626 1.626 0 10-3.238-.296 1.626 1.626 0 003.238.296zm5.536 16.411a1.627 1.627 0 00-3.237-.299 1.625 1.625 0 003.237.299zm-2.111 13.719a1.625 1.625 0 10-3.237-.3 1.625 1.625 0 003.237.3zm33.894-20.03a1.625 1.625 0 10-3.237-.297 1.625 1.625 0 003.237.297zm29.017-15.661a1.626 1.626 0 10-3.238-.296 1.626 1.626 0 003.238.296zm-25.332-9.625a1.625 1.625 0 10-3.237-.297 1.625 1.625 0 003.237.297zm-36.243-34.438a1.626 1.626 0 10-3.238-.296 1.626 1.626 0 003.238.296zm9.651-42.056a1.625 1.625 0 10-3.238-.298 1.625 1.625 0 003.238.298zm-20.093-9.218a1.625 1.625 0 10-3.236-.298 1.625 1.625 0 003.236.298zm91.226 28.753a1.625 1.625 0 10-3.236-.298 1.625 1.625 0 003.236.298zm62.679-15.416a1.627 1.627 0 00-3.238-.299 1.625 1.625 0 003.238.299zm-48.152-31.385a1.625 1.625 0 10-3.237-.297 1.625 1.625 0 003.237.297zm-40.156 14.569a1.626 1.626 0 00-3.237-.298 1.625 1.625 0 103.237.298zm-26.763-19.524a1.624 1.624 0 10-3.235-.299 1.624 1.624 0 003.235.3zm29.167-14.484a1.624 1.624 0 10-3.237-.298 1.626 1.626 0 003.237.298zm38.856-32.042a1.626 1.626 0 10-3.238-.297 1.626 1.626 0 003.238.297zm31.462 13.267a1.626 1.626 0 10-3.238-.296 1.626 1.626 0 003.238.296zm36.68-55.917a1.624 1.624 0 10-3.237-.298 1.626 1.626 0 003.237.298zm42.013 134.18a1.625 1.625 0 10-3.237-.297 1.625 1.625 0 003.237.297zm-20.145-54.66a1.626 1.626 0 10-3.238-.296 1.626 1.626 0 003.238.296zm-63.281 80.681a1.625 1.625 0 10-3.237-.297 1.625 1.625 0 003.237.297zm-35.095 37.201a1.626 1.626 0 00-3.238-.298 1.625 1.625 0 003.238.298zm-20.354-7.135a1.625 1.625 0 10-3.237-.297 1.625 1.625 0 003.237.297zm30.183-1.986a1.625 1.625 0 10-3.236-.298 1.625 1.625 0 003.236.298zm51.923-16.01a1.625 1.625 0 10-3.239-.299 1.625 1.625 0 003.239.299zm37.639-12.887a1.624 1.624 0 10-3.235-.299 1.624 1.624 0 003.235.299zm-352.784 122.63a.813.813 0 10-.001-1.625.813.813 0 00.001 1.625zm2.031-11.78a.813.813 0 100-1.626.813.813 0 000 1.626zm-23.162-8.53a.812.812 0 100-1.624.812.812 0 000 1.624zm-10.971.406a.813.813 0 10-.002-1.626.813.813 0 00.002 1.626zm36.978-6.093a.813.813 0 10-.001-1.625.813.813 0 00.001 1.625zm8.533 11.373a.813.813 0 100-1.626.813.813 0 000 1.626zm-4.469 17.062a.813.813 0 10-.002-1.626.813.813 0 00.002 1.626zm-60.954-30.872a.813.813 0 100-1.626.813.813 0 000 1.626zm-1.625-13.811a1.22 1.22 0 100-2.439 1.22 1.22 0 000 2.439zm12.597 10.967a1.22 1.22 0 100-2.439 1.22 1.22 0 000 2.439zm-.813-14.217a1.22 1.22 0 100-2.439 1.22 1.22 0 000 2.439zm8.94 4.468a1.22 1.22 0 100-2.439 1.22 1.22 0 000 2.439zm2.844-11.373a1.219 1.219 0 100-2.437 1.219 1.219 0 000 2.437zm26.413 7.311a1.22 1.22 0 10.001-2.439 1.22 1.22 0 00-.001 2.439zm14.223 5.687a1.22 1.22 0 100-2.439 1.22 1.22 0 000 2.439zm-25.6 4.875a1.22 1.22 0 100-2.439 1.22 1.22 0 000 2.439zm10.971 4.061a1.218 1.218 0 10.001-2.437 1.218 1.218 0 00-.001 2.437zm-20.724 21.936a1.22 1.22 0 100-2.439 1.22 1.22 0 000 2.439zm-11.378-51.995a1.22 1.22 0 100-2.439 1.22 1.22 0 000 2.439zm12.191-2.843a1.22 1.22 0 100-2.439 1.22 1.22 0 000 2.439zm8.127 6.499a1.22 1.22 0 100-2.439 1.22 1.22 0 000 2.439zm22.349 5.686a1.218 1.218 0 10.001-2.437 1.218 1.218 0 00-.001 2.437zm36.166 47.933a1.22 1.22 0 100-2.439 1.22 1.22 0 000 2.439zm9.753.813a1.22 1.22 0 100-2.439 1.22 1.22 0 000 2.439zm-9.347-8.937a1.22 1.22 0 10.001-2.439 1.22 1.22 0 00-.001 2.439zm-12.19 1.625a1.22 1.22 0 100-2.439 1.22 1.22 0 000 2.439zm0-10.968a1.218 1.218 0 10.001-2.437 1.218 1.218 0 00-.001 2.437zm2.844-12.998a1.218 1.218 0 10.001-2.437 1.218 1.218 0 00-.001 2.437zm12.597-.406a1.22 1.22 0 100-2.439 1.22 1.22 0 000 2.439zm21.131-23.154a1.22 1.22 0 100-2.439 1.22 1.22 0 000 2.439zm28.851-14.217a1.22 1.22 0 100-2.439 1.22 1.22 0 000 2.439zm3.251-16.655a1.22 1.22 0 100-2.439 1.22 1.22 0 000 2.439zm-26.007-2.843a1.22 1.22 0 100-2.439 1.22 1.22 0 000 2.439zm37.385 11.779a1.219 1.219 0 100-2.437 1.219 1.219 0 000 2.437zm-35.353 15.436a1.218 1.218 0 10.001-2.437 1.218 1.218 0 00-.001 2.437zm-14.223-9.748a1.22 1.22 0 100-2.439 1.22 1.22 0 000 2.439zm-4.47 13.404a1.219 1.219 0 100-2.437 1.219 1.219 0 000 2.437zm16.255 35.747a1.22 1.22 0 100-2.439 1.22 1.22 0 000 2.439zm6.501 10.561a1.22 1.22 0 100-2.439 1.22 1.22 0 000 2.439zm17.067-15.436a1.218 1.218 0 10.001-2.437 1.218 1.218 0 00-.001 2.437zm4.064-8.53a1.22 1.22 0 100-2.439 1.22 1.22 0 000 2.439zm10.972 2.437a1.22 1.22 0 100-2.439 1.22 1.22 0 000 2.439zm10.158-23.154a1.219 1.219 0 100-2.437 1.219 1.219 0 000 2.437zm10.972-3.249a1.22 1.22 0 100-2.439 1.22 1.22 0 000 2.439zm-23.569 35.34a1.219 1.219 0 100-2.437 1.219 1.219 0 000 2.437zm-23.162-10.156a1.218 1.218 0 10.001-2.437 1.218 1.218 0 00-.001 2.437zm7.721-13.405a1.218 1.218 0 10.001-2.437 1.218 1.218 0 00-.001 2.437zm15.035-14.217a1.218 1.218 0 10.001-2.437 1.218 1.218 0 00-.001 2.437zm13.816-6.092a1.219 1.219 0 100-2.437 1.219 1.219 0 000 2.437zm-48.356 24.778a1.22 1.22 0 100-2.439 1.22 1.22 0 000 2.439zm-15.848 21.529a1.218 1.218 0 10.001-2.437 1.218 1.218 0 00-.001 2.437zm-19.099-2.844a1.218 1.218 0 10.001-2.437 1.218 1.218 0 00-.001 2.437z" fill="#060EC0"/><path d="M64.185 70.324a1.625 1.625 0 10-3.236-.298 1.625 1.625 0 003.236.298zm18.837 50.747a2.844 2.844 0 10-5.665-.522 2.844 2.844 0 005.665.522zM12.675 98.514a2.031 2.031 0 10-4.045-.372 2.031 2.031 0 004.045.372zm10.62-10.56a3.25 3.25 0 10-6.472-.597 3.25 3.25 0 006.472.597zM71.66 55.906a2.438 2.438 0 10-4.855-.447 2.438 2.438 0 004.855.447zM46.69 71.213a2.437 2.437 0 10-4.855-.447 2.437 2.437 0 004.854.447zM30.315 90.512a2.438 2.438 0 10-4.854-.447 2.438 2.438 0 004.854.447zm40.208 59.043a2.437 2.437 0 10-4.855-.448 2.438 2.438 0 004.855.448zm-26.27-88.823a1.625 1.625 0 10-3.237-.298 1.625 1.625 0 003.237.298zM27.57 58.977a1.219 1.219 0 10-2.428-.224 1.219 1.219 0 002.427.224zm45.058-18.763a2.031 2.031 0 10-4.046-.373 2.031 2.031 0 004.046.373zm36.061 29.223a2.031 2.031 0 10-4.045-.373 2.031 2.031 0 004.045.373zM70.824 50.012a2.844 2.844 0 10-5.664-.522 2.844 2.844 0 005.664.522zm-.754-25.718a.813.813 0 10-1.618-.149.813.813 0 001.619.149zm-9.128 6.656a1.219 1.219 0 10-2.427-.224 1.219 1.219 0 002.427.223zM1.693 44.97a.813.813 0 10-1.618-.15.813.813 0 001.618.15zm62.641 38.016a1.219 1.219 0 10-2.427-.224 1.219 1.219 0 002.427.224zm26.887 19.149a.813.813 0 10-1.618-.15.813.813 0 001.618.15zm4.202-5.666a.812.812 0 10-1.618-.15.812.812 0 001.618.15zm-3.427-46.312a.813.813 0 10-1.619-.148.813.813 0 001.619.148zm-66.474 75.942a.813.813 0 10-1.619-.149.813.813 0 001.62.149zm48.932 4.812a1.624 1.624 0 10-3.235-.299 1.624 1.624 0 003.235.299zm58.295 30.125a2.033 2.033 0 00-4.047-.373 2.031 2.031 0 004.047.373zm-107.34 7.582a.812.812 0 10-1.618-.148.812.812 0 001.618.148zm38.441 28.65a1.218 1.218 0 10-2.426-.224 1.218 1.218 0 002.426.224zm2.66-67.402a1.625 1.625 0 10-3.236-.298 1.625 1.625 0 003.235.298zm48.314-6.301a.813.813 0 10-1.62-.149.813.813 0 001.62.149zm-4.212 48.012a.812.812 0 10-1.617-.148.812.812 0 001.617.148zm-75.956 20.454a.813.813 0 10-1.62-.148.813.813 0 001.62.148zm24.996-73.355a1.219 1.219 0 10-2.427-.223 1.219 1.219 0 002.427.223zm3.344 16.485a.812.812 0 10-1.616-.15.812.812 0 001.616.15zM665.91 48.038a1.626 1.626 0 10-3.238-.297 1.626 1.626 0 003.238.297zm-33.325 17.828a2.844 2.844 0 10-5.664-.521 2.844 2.844 0 005.664.521zm-18.184 10.359a2.032 2.032 0 10-4.047-.372 2.032 2.032 0 004.047.372zm-82.715 64.433a2.031 2.031 0 10-4.045-.373 2.031 2.031 0 004.045.373zm55.587-29.618a2.032 2.032 0 10-4.047-.371 2.032 2.032 0 004.047.371zm-20.183 33.186a2.03 2.03 0 10-4.046-.373 2.031 2.031 0 004.046.373zm-10.879 37.982a2.032 2.032 0 10-4.047-.371 2.032 2.032 0 004.047.371zm40.929-48.309a2.031 2.031 0 10-4.045-.373 2.031 2.031 0 004.045.373zm27.475-68.269a3.251 3.251 0 00-6.475-.596 3.251 3.251 0 006.475.596zm48.806-32.412a2.439 2.439 0 10-4.856-.445 2.439 2.439 0 004.856.445zm-27.812 4.781a1.624 1.624 0 10-3.237-.299 1.624 1.624 0 103.237.299zm-16.316-1.312a1.219 1.219 0 10-2.428-.223 1.219 1.219 0 002.428.223zm44.692-19.201a2.032 2.032 0 10-4.046-.372 2.032 2.032 0 004.046.372zm-1.437 10.241a2.844 2.844 0 10-5.664-.522 2.844 2.844 0 005.664.522zm-1.157-25.769a.813.813 0 10-1.62-.148.813.813 0 001.62.148zm-8.688 6.294a1.218 1.218 0 10-2.426-.225 1.218 1.218 0 002.426.225zm-59.286 14.432a.812.812 0 10-1.617-.15.812.812 0 001.617.15zm62.238 37.967a1.219 1.219 0 10-2.428-.223 1.219 1.219 0 002.428.223zm27.327 18.795a.813.813 0 10-1.619-.148.813.813 0 001.619.148zm3.799-5.703a.813.813 0 10-1.619-.148.813.813 0 001.619.148zm-3.06-45.878a.813.813 0 10-1.62-.149.813.813 0 001.62.149zm-66.844 75.51a.812.812 0 10-1.617-.148.812.812 0 001.617.148zm48.896 5.214a1.626 1.626 0 00-3.238-.298 1.625 1.625 0 003.238.298zm-13.05 17.318a2.031 2.031 0 10-4.045-.373 2.031 2.031 0 004.045.373zm-.645 14.146a2.032 2.032 0 10-4.047-.371 2.032 2.032 0 004.047.371zm-34.908 5.872a.812.812 0 10-1.617-.148.812.812 0 001.617.148zm38.04 28.605a1.219 1.219 0 10-2.427-.223 1.219 1.219 0 002.427.223zm23.829-51.159a1.625 1.625 0 10-3.237-.297 1.625 1.625 0 003.237.297zm27.101-22.125a.812.812 0 10-1.617-.148.812.812 0 001.617.148zm-3.766 47.641a.813.813 0 10-1.62-.149.813.813 0 001.62.149zm-119.519 29.182a.812.812 0 10-1.617-.149.812.812 0 001.617.149zm68.523-81.689a1.22 1.22 0 10-2.428-.223 1.22 1.22 0 002.428.223zm26.808-.972a1.218 1.218 0 10-2.426-.225 1.218 1.218 0 002.426.225zm-51.017-15.696a1.218 1.218 0 10-2.426-.224 1.218 1.218 0 002.426.224zm2.73-10.632a1.22 1.22 0 10-2.429-.221 1.22 1.22 0 002.429.222zm20.916-31.526a1.22 1.22 0 10-2.43-.222 1.22 1.22 0 002.43.222zm16.651 7.58a1.22 1.22 0 10-2.43-.221 1.22 1.22 0 002.43.221zm-63.692 70.698a.814.814 0 10-1.62-.148.814.814 0 001.62.148z" opacity=".8" fill="#063AC0"/></g><defs><clipPath id="clip0_2_4390"><path fill="#fff" d="M0 0h716v301H0z"/></clipPath></defs></svg>