<svg width="60" height="60" fill="none" xmlns="http://www.w3.org/2000/svg"><g id="CHZ" clip-path="url(#clip0_2_3761)" fill="#063AC0"><path id="Vector" d="M35.6 31.4c0-.4 0-.6-.4-.8-1.4-1-3-2-4.4-3a.9.9 0 00-1 0l-4.4 3.2a1.1 1.1 0 00-.6 1 2.14 2.14 0 01-.4 1.2.9.9 0 000 1c1.6 3.2 3 6.4 4.6 9.6.6 1 1 2.2 1.6 3.4.2-.2.2-.4.4-.6 1.8-4 3.4-8 5.2-12 .2-.4.2-.6-.2-.8a2.618 2.618 0 01-.4-2.2z"/><path id="Vector_2" d="M28.8 26.2c-4-2.8-8-5.6-11.8-8.2l-.2.2c.2.4.2.6.4 1l4.2 9c.4.8.6 1.6 1.8 1.8a1.8 1.8 0 001-.2c1.2-1 2.6-1.8 3.8-2.8l.8-.8z"/><path id="Vector_3" d="M30 0a30 30 0 100 60 30 30 0 000-60zm16.2 17.4c-.4 0-.6.2-.8.6-1.6 4-3.4 8-5 12v.8a2.6 2.6 0 01-1.6 3.6c-.2 0-.4.2-.6.6-1.8 4-3.6 8.2-5.2 12.2a.9.9 0 000 1 2.52 2.52 0 01-.4 3.4 2.44 2.44 0 01-3.2.2 2.3 2.3 0 01-.6-3.2 1.28 1.28 0 000-1.2c-2-4-3.8-8-5.8-12a1.398 1.398 0 00-1-.8 2.56 2.56 0 01-1.8-3.8.9.9 0 000-1c-1.8-4-3.6-7.8-5.6-11.8 0-.2-.2-.4-.8-.4a2.56 2.56 0 01-2.2-2.4 3.08 3.08 0 011.8-2.6 2.48 2.48 0 013 1c.2.4.4.4 1 .4h25.4c.4 0 .8 0 1-.6a2.3 2.3 0 012.8-1 2.8 2.8 0 011.8 2.4 2.6 2.6 0 01-2.2 2.6z"/><path id="Vector_4" d="M30 24.8a.9.9 0 001 0c3.8-2.8 7.6-5.4 11.2-8.2.2-.2.4-.2.4-.4V16H17.4c.229.084.434.221.6.4l12 8.4z"/><path id="Vector_5" d="M32 26.2c1.6 1.2 3.2 2.2 4.8 3.2.4.2 1 0 1.6 0 .2 0 .4-.4.4-.6 1.4-3.2 2.8-6.6 4.2-9.8 0-.2.2-.4.2-.6H43c-3.4 2.4-7.2 5-11 7.8z"/></g><defs><clipPath id="clip0_2_3761"><path fill="#fff" d="M0 0h60v60H0z"/></clipPath></defs></svg>