<svg width="60" height="60" fill="none" xmlns="http://www.w3.org/2000/svg"><g id="XAS" clip-path="url(#clip0_2_3758)"><g id="Group"><path id="Vector" d="M30 60c16.569 0 30-13.431 30-30C60 13.431 46.569 0 30 0 13.431 0 0 13.431 0 30c0 16.569 13.431 30 30 30z" fill="#063AC0"/><path id="Vector_2" d="M48.735 27.133L30.981 47.777l-.797.973-18.92-21.409.06-.024-.074-.011 7.354-12.295.004.004-.004-.015H41.58l-.004.013 7.174 12.118-.015.002zm-24.63.86l-4.069 6.89 10.035 11.46 10.056-11.554-3.979-6.816-12.043.02zm-5.209 5.588l3.3-5.585-8.179.013 4.88 5.572zm18.23-7.211l9.29-.015-5.832-9.765-9.153.019 5.696 9.761zm8.947 1.586l-8.012.013 3.212 5.503 4.8-5.516zm-10.859-1.582l-5.045-8.648-5.119 8.663 10.164-.015zm-15.748-9.739l-5.812 9.774 9.487-.017 5.775-9.776-9.45.019z" fill="#fff"/></g></g><defs><clipPath id="clip0_2_3758"><path fill="#fff" d="M0 0h60v60H0z"/></clipPath></defs></svg>