<svg width="60" height="60" fill="none" xmlns="http://www.w3.org/2000/svg"><g id="Bitcoin" clip-path="url(#clip0_2_3755)"><g id="Bitcoin_2"><rect id="Rectangle" width="60" height="60" rx="30" fill="#063AC0"/><path id="Path" d="M43.79 26.278c.596-4.268-2.58-6.452-6.948-8.04l1.39-5.757-3.474-.794-1.39 5.559c-.893-.199-1.886-.397-2.779-.695l1.39-5.658L28.505 10l-1.39 5.757c-.794-.199-7.047-1.787-7.047-1.787l-.893 3.673s2.58.595 2.481.595c1.39.397 1.687 1.29 1.588 1.985l-3.87 15.683c-.2.397-.596 1.092-1.589.794 0 .099-2.58-.596-2.58-.596l-1.688 3.97s6.253 1.589 7.047 1.787l-1.489 5.757 3.474.893 1.39-5.757c.992.298 1.886.497 2.78.695l-1.39 5.658 3.473.893 1.49-5.757c5.955 1.092 10.421.695 12.307-4.665 1.489-4.367-.1-6.849-3.176-8.437 2.183-.198 3.87-1.687 4.367-4.863zm-7.94 11.216c-1.092 4.367-8.338 1.985-10.72 1.39l1.886-7.643c2.382.595 9.925 1.687 8.834 6.253zm1.091-11.216c-.992 3.97-7.047 1.985-9.032 1.489l1.688-6.948c1.985.397 8.337 1.29 7.344 5.459z" fill="#fff"/></g></g><defs><clipPath id="clip0_2_3755"><path fill="#fff" d="M0 0h60v60H0z"/></clipPath></defs></svg>