<svg width="60" height="60" fill="none" xmlns="http://www.w3.org/2000/svg"><g id="USDT" clip-path="url(#clip0_2_3759)"><g id="USDT_2"><g id="usdt"><g id="Group"><path id="Shape" d="M59.946 29.99c0 16.486-13.364 29.85-29.85 29.85S.245 46.476.245 29.99C.245 13.503 13.61.139 30.095.139c16.487 0 29.851 13.364 29.851 29.85z" fill="#063AC0"/><path id="Shape_2" d="M44.105 15.191H15.84v6.824h10.72v10.03h6.825v-10.03h10.72v-6.824z" fill="#fff"/><path id="Shape_3" d="M30.038 33.114c-8.87 0-16.06-1.404-16.06-3.136 0-1.731 7.19-3.135 16.06-3.135 8.868 0 16.058 1.404 16.058 3.135 0 1.732-7.19 3.136-16.058 3.136zm18.03-2.613c0-2.233-8.072-4.043-18.03-4.043-9.959 0-18.032 1.81-18.032 4.043 0 1.966 6.26 3.604 14.555 3.967v14.399h6.823V34.474c8.36-.352 14.685-1.997 14.685-3.973z" fill="#fff"/></g></g></g></g><defs><clipPath id="clip0_2_3759"><path fill="#fff" d="M0 0h60v60H0z"/></clipPath></defs></svg>