<svg width="60" height="60" fill="none" xmlns="http://www.w3.org/2000/svg"><g clip-path="url(#clip0_2_3752)"><rect width="60" height="60" rx="30" fill="#063AC0"/><path d="M29.851 30.198L26.869 40.26h15.949a.82.82 0 01.818.818.873.873 0 01-.035.229l-1.386 4.777a1.1 1.1 0 01-1.054.791H16.8l4.119-13.91-4.556 1.387 1.005-3.252 4.563-1.387 5.783-19.54a1.09 1.09 0 011.047-.798h6.172c.45 0 .818.36.818.818a.779.779 0 01-.028.222L30.87 26.94l4.556-1.387-.978 3.308-4.597 1.338z" fill="#fff"/></g><defs><clipPath id="clip0_2_3752"><path fill="#fff" d="M0 0h60v60H0z"/></clipPath></defs></svg>