<svg width="22" height="22" fill="none" xmlns="http://www.w3.org/2000/svg"><path d="M13.629 11.31a5.968 5.968 0 003.332-5.349A5.968 5.968 0 0011 0a5.968 5.968 0 00-5.96 5.961 5.968 5.968 0 003.33 5.349C3.571 12.44 0 16.595 0 21.534c0 .257.209.466.466.466h21.068a.467.467 0 00.466-.466c0-4.939-3.571-9.093-8.371-10.224zM5.972 5.96A5.034 5.034 0 0111 .932a5.034 5.034 0 015.028 5.028A5.034 5.034 0 0111 10.99a5.034 5.034 0 01-5.028-5.03zM.944 21.067c.256-5.075 4.668-9.13 10.056-9.13 5.387 0 9.8 4.055 10.056 9.13H.944z" fill="#063AC0"/></svg>