<svg width="983" height="603" fill="none" xmlns="http://www.w3.org/2000/svg"><g opacity=".2" fill="#4443F0"><path d="M24.04 592.304l-22.704 9.359v-65.514l22.705-9.36v65.515z"/><path d="M0 603v-68.188l24.04-9.36v66.852L0 603zm1.336-66.851v64.177l21.37-9.359v-64.178l-21.37 9.36zm61.437 1.337l-22.705 9.359v-36.1l22.705-9.359v36.1z"/><path d="M40.068 548.182v-37.437l24.04-9.359v37.437l-24.04 9.359zm1.336-37.437v33.426l20.033-8.022v-33.426l-20.033 8.022zm60.101-8.022l-21.37 8.022v-93.592l21.37-8.022v93.592z"/><path d="M78.8 512.082v-94.929l24.041-9.359v94.929l-24.04 9.359zm1.336-93.592v92.255l20.034-8.022v-90.918l-20.034 6.685zm58.766 68.189l-21.369 9.359v-34.763l21.369-9.359v34.763z"/><path d="M117.533 497.375v-37.437l22.705-9.359v36.099l-22.705 10.697zm1.335-36.1v33.426l20.034-8.022v-33.426l-20.034 8.022zm57.431 20.055l-20.034 9.36v-34.763l20.034-8.022v33.425z"/><path d="M154.929 492.027v-36.1l22.706-8.022v36.099l-22.706 8.023zm1.336-36.1v33.426l20.034-8.023v-33.425l-20.034 8.022zm57.431-6.685l-21.37 8.022v-44.122l21.37-8.022v44.122z"/><path d="M192.326 458.601v-45.459l21.37-8.022v45.459l-21.37 8.022zm1.336-45.459v41.448l18.698-8.022V405.12l-18.698 8.022zm54.759-16.044l-20.034 8.022v-16.045l20.034-6.685v14.708z"/><path d="M228.387 406.457v-17.382l21.37-8.022v17.382l-21.37 8.022zm1.336-16.045v13.371l18.698-6.685v-13.371l-18.698 6.685zm53.424-6.685l-18.699 8.022v-61.503l18.699-8.022v61.503z"/><path d="M263.113 393.086v-62.84l21.369-8.022v62.84l-21.369 8.022zm1.335-62.84v60.166l18.699-6.685v-58.829l-18.699 5.348zm53.424 22.73l-18.698 6.685v-33.426l18.698-6.685v33.426z"/><path d="M297.838 360.998v-34.763l20.034-8.022v34.763l-20.034 8.022zm1.336-33.426v32.089l17.363-6.685v-32.089l-17.363 6.685zm52.088-6.685l-18.698 8.022v-42.785l18.698-6.685v41.448z"/><path d="M332.564 330.246v-44.122l20.034-8.022v44.122l-20.034 8.022zm1.335-42.785v40.111l17.363-6.685v-40.111l-17.363 6.685zm50.753 4.011l-18.698 6.685v-60.166l18.698-6.685v60.166z"/><path d="M365.954 299.494v-61.503l20.034-6.685v61.503l-20.034 6.685zm1.335-60.166v57.492l17.363-6.685v-57.492l-17.363 6.685zm49.418-13.37l-17.363 6.685v-14.707l17.363-6.685v14.707z"/><path d="M398.008 233.98v-16.044l20.034-6.685v16.044l-20.034 6.685zm1.336-16.044v13.37l17.363-5.348v-13.37l-17.363 5.348zm49.417 14.707l-17.363 6.685V171.14l17.363-5.348v66.851z"/><path d="M430.062 239.328v-69.525l20.034-6.685v68.188l-20.034 8.022zm1.336-66.851v65.514l16.027-5.348v-65.514l-16.027 5.348zm49.417 65.514l-17.363 6.685v-40.111l17.363-6.685v40.111z"/><path d="M462.117 246.013v-42.785l18.698-6.685v41.448l-18.698 8.022zm1.335-41.448v38.774l16.028-5.348v-38.774l-16.028 5.348zm48.082 30.752l-17.363 6.685v-22.729l17.363-6.685v22.729z"/><path d="M492.836 243.339v-24.066l18.698-6.685v24.066l-18.698 6.685zm1.335-24.066v21.392l16.027-5.348v-21.392l-16.027 5.348zm46.746 5.348l-16.027 6.685v-57.492l16.027-6.685v57.492z"/><path d="M523.554 232.643v-58.829l18.699-6.685v58.829l-18.699 6.685zm1.336-58.829v54.818l16.027-5.348v-54.818l-16.027 5.348zm46.746 65.514l-17.363 5.348v-30.751l17.363-5.348v30.751z"/><path d="M552.938 246.013v-32.088l18.698-6.686v32.089l-18.698 6.685zm2.671-30.751v29.414l14.691-5.348v-29.414l-14.691 5.348zm44.074 37.436l-16.027 6.686v-30.752l16.027-6.685v30.751z"/><path d="M582.321 260.721v-32.089l18.698-6.685v32.088l-18.698 6.686zm2.671-32.089v29.415l14.691-5.349v-29.414l-14.691 5.348zm44.075-28.078l-16.028 6.685v-48.133l16.028-5.348v46.796z"/><path d="M611.704 207.239v-49.47l17.363-6.685v49.47l-17.363 6.685zm1.335-46.796v45.459l14.692-5.348v-45.459l-14.692 5.348zm44.075-12.033l-16.027 6.685v-54.818l16.027-6.685v54.818z"/><path d="M639.751 156.432V98.94l17.363-5.348v56.155l-17.363 6.685zm2.671-56.155v53.481l14.692-5.348V94.929l-14.692 5.348zm42.74 30.752l-16.028 5.348v-94.93l16.028-5.347v94.929z"/><path d="M667.799 137.714V40.111l17.363-5.348v96.266l-17.363 6.685zm1.335-96.266l.001 93.592 14.691-5.348V36.1l-14.692 5.348zm42.74 54.818l-16.028 5.348V56.155l16.028-5.348v45.46z"/><path d="M695.846 102.951V56.155l17.363-5.348V98.94l-17.363 4.011zm1.336-45.459v44.122l13.356-5.348V52.144l-13.356 5.348zm41.404 54.818l-14.692 5.349V70.862l14.692-4.01v45.458z"/><path d="M722.558 117.659V70.862l17.363-5.348v46.796l-17.363 5.349zm1.336-45.46v44.123l13.356-5.349V66.851L723.894 72.2zm41.403-1.337l-16.027 5.349v-5.349l16.027-5.348v5.349z"/><path d="M749.27 76.21v-6.684l16.027-5.349v6.685l-16.027 5.349zm1.336-5.347v4.01l13.356-4.01V66.85l-13.356 4.011zm40.068-17.382l-14.692 5.348V5.35l14.692-4.012v52.144z"/><path d="M774.647 60.166V5.348L792.009 0v54.818l-17.362 5.348zm2.671-53.48v50.806l13.356-4.01V2.673l-13.356 4.011zm38.732 80.221l-14.691 5.348v-36.1l14.691-5.348v36.1z"/><path d="M801.359 93.592V54.818l16.027-5.348v38.774l-16.027 5.348zm1.335-37.437v34.763l13.356-4.011V52.144l-13.356 4.011zm38.733 22.73l-14.692 5.348V54.818l14.692-4.01v28.077z"/><path d="M826.735 85.57V54.818l14.692-5.348v30.752l-14.692 5.348zm1.336-29.415v26.74l12.02-4.01v-26.74l-12.02 4.01zm37.396 78.885l-13.356 5.348V65.514l13.356-4.01v73.536z"/><path d="M850.776 141.725v-76.21l16.027-5.349v76.211l-16.027 5.348zm1.335-76.21v73.536l12.021-4.011v-72.2l-12.021 2.674zm37.397-2.675l-13.356 4.011V46.796l13.356-4.011V62.84z"/><path d="M874.817 68.189v-22.73l14.691-5.348v21.392l-14.691 6.686zm2.671-20.056v18.718l12.02-4.01v-18.72l-12.02 4.011zm36.061-8.023l-13.356 4.012V16.044l13.356-4.01V40.11z"/><path d="M898.857 45.459V16.044l14.692-4.01V40.11l-14.692 5.348zm2.671-28.078v26.741l12.021-4.011V13.37l-12.021 4.01zm36.062 57.493l-13.356 4.01v-49.47l13.356-4.01v49.47z"/><path d="M922.898 80.222V28.078l14.692-4.011V76.21l-14.692 4.01zm1.336-50.807v48.133l12.02-4.011V25.403l-12.02 4.012zm36.061 9.359l-13.356 4.01v-13.37l13.356-4.01v13.37z"/><path d="M946.939 42.785v-13.37l14.691-5.348v13.37l-14.691 5.348zm1.335-12.033v10.696l12.021-4.011V26.74l-12.021 4.01zM983 61.503l-13.356 4.011v-49.47L983 12.034v49.47z"/><path d="M969.644 65.514V14.707L983 10.697v50.806l-13.356 4.011zm1.336-49.47v48.133l10.684-4.01V12.032l-10.684 4.011z"/></g></svg>