<svg width="19" height="18" fill="none" xmlns="http://www.w3.org/2000/svg"><path d="M1.357 9c0 .355-.304.643-.678.643C.304 9.643 0 9.355 0 9c0-4.963 4.262-9 9.5-9 2.611 0 5.027.986 6.786 2.683V.643c0-.355.303-.643.678-.643.375 0 .679.288.679.643V4.5c0 .355-.304.643-.679.643h-4.071c-.375 0-.679-.288-.679-.643 0-.355.304-.643.679-.643h2.698C14.07 2.235 11.88 1.286 9.5 1.286c-4.49 0-8.143 3.46-8.143 7.714zm16.964-.643c-.374 0-.678.288-.678.643 0 4.254-3.653 7.714-8.143 7.714-2.379 0-4.569-.949-6.092-2.571h2.7c.374 0 .678-.288.678-.643 0-.355-.304-.643-.679-.643H2.036c-.375 0-.679.288-.679.643v3.857c0 .355.304.643.679.643.374 0 .678-.288.678-.643v-2.04C4.474 17.014 6.89 18 9.5 18c5.238 0 9.5-4.037 9.5-9 0-.355-.304-.643-.679-.643z" fill="#fff"/></svg>