<svg width="20" height="11" fill="none" xmlns="http://www.w3.org/2000/svg"><g opacity=".3" fill="#D9D9D9"><path d="M0 0h2v2H0V0z"/><path d="M1 1h2v2H1V1z"/><path d="M2 2h2v2H2V2z"/><path d="M3 3h2v2H3V3z"/><path d="M4 4h2v2H4V4z"/><path d="M5 5h2v2H5V5z"/><path d="M6 6h2v2H6V6z"/><path d="M7 7h2v2H7V7z"/><path d="M8 8h2v2H8V8z"/><path d="M9 9h2v2H9V9zm11-9h-2v2h2V0z"/><path d="M19 1h-2v2h2V1z"/><path d="M18 2h-2v2h2V2z"/><path d="M17 3h-2v2h2V3z"/><path d="M16 4h-2v2h2V4z"/><path d="M15 5h-2v2h2V5z"/><path d="M14 6h-2v2h2V6z"/><path d="M13 7h-2v2h2V7z"/><path d="M12 8h-2v2h2V8z"/><path d="M11 9H9v2h2V9z"/></g></svg>