<svg fill="#000" height="800" width="800" version="1.1" id="Capa_1" xmlns="http://www.w3.org/2000/svg" viewBox="0 0 488.189 488.189" xml:space="preserve"><path d="M326.9 67.166c6.7-14.5 13.5-28.9 20.6-44.2-78.6-33.1-155.2-31.5-228.4 12.1-70.8 42.1-109.2 106.1-119.1 188.5 16.8 1.5 32.7 2.9 48.6 4.2 8.7-124.5 146.3-220 278.3-160.6zm157.8 135.3c-15.8 2.7-31.5 5.5-47.9 8.3 8.5 57-3.3 108.4-38.1 153.4-34.6 44.8-81 69.4-137.7 75.7 1.4 16.1 2.8 31.8 4.1 47.5 118.7-4.2 245.9-123.4 219.6-284.9zm-436.8 59.6c-15.1 1.3-30.8 2.7-46.5 4 3.7 99.5 90.5 211.5 221.4 222.1 1.4-16.1 2.8-31.9 4.1-47.2-102.4-17.1-161.7-76.4-179-178.9zm351-136.5c12.2 15.8 21.6 33.2 28.9 52.4 15.2-5.5 30.2-11 45.9-16.7-18.1-48.2-47.6-86.6-89.5-116.7-9.3 13.3-18.5 26.3-28 39.9 16.2 11.9 30.6 25.4 42.7 41.1z"/><path d="M267.2 384.166v-19.1c16.3-3.1 32.1-9.6 46.3-19.4l13.6 13.6c5.1 5 13.2 5 18.3 0l14.1-14.1c5-5.1 5-13.2 0-18.3l-13.8-13.8c9.6-14.2 15.9-30 18.9-46.2h19.6c7.1 0 12.9-5.8 12.9-12.9v-20c0-7.1-5.8-12.9-12.9-12.9h-19.7c-3.1-16.2-9.5-31.8-19.1-45.9l14-14c5-5.1 5-13.2 0-18.3l-14.3-14.2c-5.1-5-13.2-5-18.3 0l-14 14c-14.1-9.6-29.8-16-46-19.1v-19.7c0-7.1-5.8-12.9-12.9-12.9h-20c-7.1 0-12.9 5.8-12.9 12.9v19.6c-16.2 3-32 9.4-46.2 19l-13.7-13.6c-5.1-5-13.2-5-18.3 0l-14.1 14.2c-5 5.1-5 13.2 0 18.3l13.6 13.6c-9.8 14.2-16.2 30-19.3 46.3h-19.1c-7.1 0-12.9 5.8-12.9 12.9v20c0 7.1 5.8 12.9 12.9 12.9h19c3.1 16.4 9.5 32.3 19.2 46.5l-13.2 13.5c-5 5.1-5 13.2 0 18.3l14.1 14.1c5.1 5 13.2 5 18.3 0l13.4-13.4c14.3 9.7 30.2 16.1 46.6 19.2v19c0 7.1 5.8 12.9 12.9 12.9h20c7.2-.1 13-5.9 13-13zm-70.2-92.9c-26-26-26.1-68.2-.1-94.2s68.2-26.1 94.2-.1 26.1 68.2.1 94.2c-25.9 26-68.1 26.1-94.2.1z"/></svg>