<svg width="504" height="626" fill="none" xmlns="http://www.w3.org/2000/svg"><g opacity=".56"><path d="M312.788 505.044l-14.142-8.307v-62.494l-10.182-19.257V370.24h1.886v44.368l10.182 19.258v61.738l12.256 7.174 62.603-38.515.943 1.699-63.546 39.082z" fill="#4443F0"/><path d="M381.425 465.962c-2.074 1.133-5.468 1.133-7.731 0-2.074-1.322-2.074-3.21 0-4.531 2.074-1.133 5.468-1.133 7.731 0 2.074 1.321 2.074 3.209 0 4.531zm-81.836 74.954l-14.142-8.307v-62.493l-10.182-19.258v-44.746h1.885v44.368l10.183 19.258v61.738l12.256 7.175 62.603-38.516.943 1.699-63.546 39.082z" fill="#4443F0"/><path d="M368.226 501.834c-2.074 1.133-5.469 1.133-7.731 0-2.074-1.321-2.074-3.209 0-4.531 2.074-1.133 5.468-1.133 7.731 0 2.074 1.322 2.074 3.21 0 4.531zm-195.351 3.776l-.565-.377-60.34-37.383.943-1.51 59.962 37.005 27.342-16.426v-38.893l20.742-33.418V370.24h1.885v44.934l-20.742 33.418v39.46l-29.227 17.558z" fill="#4443F0"/><path d="M113.478 468.794c-2.074 1.133-5.468 1.133-7.731 0-2.074-1.322-2.074-3.21 0-4.531 2.074-1.133 5.468-1.133 7.731 0 2.074 1.321 2.074 3.398 0 4.531zm59.586 72.311l-.566-.378-60.34-37.382.943-1.699 59.963 37.193 27.341-16.425v-38.893l20.742-33.607v-44.18h1.886v44.746l-20.742 33.607v39.459l-29.227 17.559z" fill="#4443F0"/><path d="M113.667 504.289c-2.074 1.133-5.469 1.133-7.731 0-2.074-1.322-2.074-3.21 0-4.531 2.074-1.133 5.468-1.133 7.731 0 2.074 1.321 2.074 3.209 0 4.531z" fill="#4443F0"/><path d="M243.398 573.956v16.804l107.857-63.06v-16.614l-107.857 62.87z" fill="#29299F"/><path d="M243.586 573.956v16.804l-108.235-63.249v-16.614l108.235 63.059z" fill="#4443F0"/><path d="M135.351 510.897l108.235 63.059 107.669-62.87-108.235-63.249-107.669 63.06z" fill="#4443F0"/><path d="M243.398 552.244v17.748l100.315-58.529v-17.747l-100.315 58.528z" fill="#4443F0"/><path d="M243.586 552.244v17.748l-100.692-58.718v-17.747l100.692 58.717z" fill="#4443F0"/><path d="M243.398 539.217v26.432l107.857-63.059v-26.433l-107.857 63.06z" fill="#29299F"/><path d="M243.586 539.217v-8.307l-108.235-28.509v-26.432l108.235 63.248z" fill="url(#paint0_linear_128_891)"/><path d="M135.351 475.969l108.235 63.248 107.669-63.06-108.235-63.248-107.669 63.06z" fill="#4443F0"/><path d="M243.398 517.505v17.747l100.315-58.528v-17.748l-100.315 58.529z" fill="#4443F0"/><path d="M243.586 517.505v17.747l-100.692-58.717v-17.559l100.692 58.529z" fill="#4443F0"/><path d="M243.398 494.66v36.25l107.857-63.06v-36.061L243.398 494.66z" fill="#29299F"/><path d="M243.586 494.66v36.25l-108.235-63.249V431.6l108.235 63.06z" fill="#29299F"/><path d="M135.351 431.6l108.235 63.06 107.669-62.871L243.02 368.54 135.351 431.6z" fill="#4443F0"/><path d="M243.398 472.57v17.747L343.713 431.6v-17.558L243.398 472.57z" fill="#4443F0"/><path d="M243.586 472.57v17.747L142.894 431.6v-17.747l50.346 29.358 50.346 29.359z" fill="#29299F"/><path d="M243.398 437.453v47.767l107.857-62.871v-47.956l-107.857 63.06z" fill="#29299F"/><path d="M243.586 437.453v47.767l-108.235-63.06v-47.955l108.235 63.248z" fill="#29299F"/><path d="M135.351 374.205l108.235 63.248 107.669-63.06-108.235-63.248-107.669 63.06zm33.753 41.536c0 2.454-1.697 3.398-3.771 2.265-2.074-1.321-3.771-4.153-3.771-6.608 0-2.454 1.697-3.398 3.771-2.265s3.771 4.153 3.771 6.608zm122 17.181c0 2.454-1.697 5.475-3.771 6.608-2.075 1.321-3.772.189-3.772-2.266 0-2.454 1.697-5.475 3.772-6.608 2.074-1.133 3.771-.189 3.771 2.266zm35.072 68.535c0 2.454-1.697 5.475-3.771 6.608-2.074 1.321-3.771.189-3.771-2.266 0-2.454 1.697-5.475 3.771-6.608s3.771-.189 3.771 2.266z" fill="#4443F0"/><path d="M294.875 607.752l-39.598-23.789.189-40.026 30.735-64.57v-44.18h1.886v44.935l-30.924 64.381v38.516l38.655 23.034-.943 1.699zm18.479-138.58c0 2.454-1.697 5.475-3.771 6.608-2.074 1.321-3.771.189-3.771-2.266 0-2.454 1.697-5.475 3.771-6.608s3.771-.189 3.771 2.266z" fill="#4443F0"/><path d="M353.329 607.563l-69.768-40.97v-11.705l.189-.189 24.89-38.893v-44.369h1.886v44.746l-.189.378-24.89 38.893v10.006l67.882 39.838 12.634-7.553.943 1.7-13.577 8.118zm-236.645-57.018l-.377-.189-60.529-37.382.943-1.7 59.963 37.194 27.341-16.425v-38.894l20.742-33.606v-44.18h1.886v44.746l-20.742 33.418v39.46l-29.227 17.558z" fill="#4443F0"/><path d="M57.287 513.918c-2.075 1.132-5.469 1.132-7.731 0-2.075-1.322-2.075-3.21 0-4.532 2.074-1.132 5.468-1.132 7.73 0 2.075 1.322 2.263 3.21 0 4.532zm137.839-25.489c0 2.455-1.697 3.399-3.772 2.266-2.074-1.322-3.771-4.154-3.771-6.608 0-2.454 1.697-3.398 3.771-2.266 2.075 1.133 3.772 4.154 3.772 6.608z" fill="#4443F0"/><path d="M129.506 585.473l-23.57-11.705.754-1.7 22.627 11.14 50.535-30.02v-25.11l10.937-16.615v-23.411h1.885v23.978l-10.936 16.614v25.677l-.377.189-51.855 30.963z" fill="#4443F0"/><path d="M106.879 575.278c-2.075 1.133-5.469 1.133-7.732 0-2.074-1.321-2.074-3.21 0-4.531 2.075-1.133 5.469-1.133 7.732 0 2.074 1.321 2.074 3.21 0 4.531zM218.13 457.277c0 2.455-1.697 3.399-3.771 2.266-2.074-1.322-3.771-4.154-3.771-6.608 0-2.455 1.697-3.399 3.771-2.266 2.074 1.322 3.771 4.154 3.771 6.608zm-9.805 71.745c0 2.454-1.697 3.398-3.771 2.265-2.074-1.321-3.771-4.153-3.771-6.608 0-2.454 1.697-3.398 3.771-2.265 2.074 1.321 3.771 4.153 3.771 6.608z" fill="#4443F0"/><path d="M211.342 595.669l-.943-1.511 19.045-11.139v-38.516l-16.028-42.102v-44.369h1.886v44.18l16.028 42.103v39.648l-19.988 11.706z" fill="#4443F0"/><path d="M214.359 597.745c-2.074 1.133-5.468 1.133-7.731 0-2.074-1.321-2.074-3.209 0-4.531 2.074-1.133 5.468-1.133 7.731 0 2.074 1.133 2.074 3.21 0 4.531zm-74.482 9.252l-.943-1.699 65.431-37.383v-38.704h1.886v39.648l-.377.377-65.997 37.761z" fill="#4443F0"/><path d="M142.705 608.885c-2.074 1.133-5.468 1.133-7.731 0-2.074-1.322-2.074-3.21 0-4.531 2.075-1.133 5.469-1.133 7.731 0 2.075 1.321 2.075 3.209 0 4.531zm158.958 2.265c-2.074 1.133-5.468 1.133-7.731 0-2.074-1.321-2.074-3.209 0-4.531 2.074-1.133 5.469-1.133 7.731 0 2.074 1.322 2.074 3.399 0 4.531zm93.339-57.962c-2.075 1.133-5.469 1.133-7.731 0-2.075-1.321-2.075-3.209 0-4.531 2.074-1.133 5.468-1.133 7.731 0 2.074 1.322 2.074 3.21 0 4.531zm-23.005 46.257c-2.074 1.132-5.468 1.132-7.731 0-2.074-1.322-2.074-3.21 0-4.532 2.074-1.132 5.468-1.132 7.731 0 2.074 1.322 2.074 3.21 0 4.532zm-36.204-194.843c0 2.454-1.697 5.475-3.771 6.608-2.074 1.321-3.771.188-3.771-2.266s1.697-5.475 3.771-6.608 3.771-.189 3.771 2.266z" fill="#4443F0"/><path d="M355.215 541.671l-14.142-8.307v-62.493l-9.994-19.258v-44.746h1.886v44.18l9.993 19.446v61.738l12.257 7.175 62.791-38.516.943 1.511-63.734 39.27z" fill="#4443F0"/><path d="M423.852 502.401c-2.075 1.133-5.469 1.133-7.731 0-2.075-1.322-2.075-3.21 0-4.532 2.074-1.132 5.468-1.132 7.731 0 2.262 1.322 2.262 3.399 0 4.532zm-33.187 49.843l-.943-1.699-28.285 16.237-38.466-22.467v-38.516h-1.886v39.648l39.975 23.223h.943l28.662-16.426z" fill="#4443F0"/><path d="M388.025 223.163c22.078 0 39.975-17.92 39.975-40.026 0-22.105-17.897-40.025-39.975-40.025-22.078 0-39.975 17.92-39.975 40.025 0 22.106 17.897 40.026 39.975 40.026z" fill="#29299F"/><path d="M269.231 389.875h-1.886v-11.706l-24.702-13.971V168.977l-30.358-45.878v-44.18h1.885v43.613l30.359 45.879v194.654l24.702 13.972v12.838z" fill="#4443F0"/><path d="M296.761 369.107h-1.886v-9.44l-22.439-13.216-23.947 14.16V191.067l.188-.378 51.666-69.856 1.509 1.133-51.478 69.668v165.767l22.062-13.027 24.325 14.16v10.573zM193.24 352.681h-1.886V318.13l39.033 22.279v-82.317l-22.251-46.823-63.922-29.264-.189-.189-35.638-41.348 1.32-1.133 35.638 41.159 64.111 29.264 22.816 48.145v85.716L193.24 321.34v31.341z" fill="#4443F0"/><path d="M214.925 262.623l-14.142-30.208-79.385-36.439.754-1.699 80.139 36.627 14.331 30.964-1.697.755z" fill="#4443F0"/><path d="M220.959 378.169h-1.886v-14.915l17.536-9.44V223.352l-14.896-30.397-30.736-11.706-24.136-28.131 1.509-1.322 23.759 27.754 31.112 12.084 15.274 31.341v131.972l-17.536 9.44v13.782zm11.125-193.521l-16.971-34.74-10.371-4.342-39.598-46.445 1.32-1.322 39.41 46.257 10.748 4.342 17.159 35.306-1.697.944zm12.256-58.906c2.5 0 4.526-2.029 4.526-4.531a4.529 4.529 0 00-4.526-4.532 4.529 4.529 0 00-4.525 4.532 4.528 4.528 0 004.525 4.531zm89.756 147.076c-11.125 0-20.176-9.062-20.176-20.013 0-11.139 9.051-20.013 20.176-20.013 11.125 0 19.988 9.063 19.988 20.013 0 10.951-8.863 20.013-19.988 20.013zm0-38.327c-9.994 0-18.291 8.119-18.291 18.125 0 10.007 8.109 18.125 18.291 18.125 9.994 0 18.102-8.118 18.102-18.125 0-10.006-8.108-18.125-18.102-18.125zm-181.02 27.377c-11.125 0-20.176-9.063-20.176-20.013 0-10.951 9.051-20.013 20.176-20.013 11.125 0 19.988 9.062 19.988 20.013 0 10.95-8.863 20.013-19.988 20.013zm0-38.327c-9.994 0-18.29 8.118-18.29 18.125 0 10.006 8.108 18.125 18.29 18.125 9.994 0 18.102-8.119 18.102-18.125 0-10.007-8.108-18.125-18.102-18.125zm-55.248-77.597c-11.126 0-20.177-9.063-20.177-20.013 0-10.951 9.051-20.202 20.177-20.202 10.936 0 19.987 9.062 19.987 20.013 0 10.95-9.051 20.202-19.987 20.202zm0-38.327c-9.994 0-18.291 8.118-18.291 18.125 0 10.006 8.108 18.125 18.29 18.125 9.994 0 18.103-8.119 18.103-18.125 0-10.007-8.109-18.125-18.102-18.125z" fill="#4443F0"/><path d="M157.602 156.516c-11.125 0-19.988-9.062-19.988-20.201 0-11.14 9.051-20.013 19.988-20.013 11.125 0 20.176 9.062 20.176 20.013-.189 11.139-9.051 20.201-20.176 20.201zm0-38.326c-9.994 0-18.102 8.118-18.102 18.125 0 10.006 8.108 18.313 18.102 18.313s18.29-8.118 18.29-18.313c-.188-10.007-8.296-18.125-18.29-18.125zm-54.683 90.436c-11.125 0-19.988-9.063-19.988-20.013 0-10.951 9.051-20.013 19.988-20.013 11.125 0 19.987 9.062 19.987 20.013 0 10.95-8.862 20.013-19.987 20.013zm0-38.327c-9.994 0-18.102 8.118-18.102 18.125 0 10.006 8.108 18.125 18.102 18.125s18.102-8.119 18.102-18.125c0-10.007-8.108-18.125-18.102-18.125zm50.534-67.591c-11.125 0-19.987-9.063-19.987-20.013 0-10.95 8.862-20.013 19.987-20.013 11.126 0 19.988 9.063 19.988 20.013 0 10.95-9.051 20.013-19.988 20.013zm0-38.138c-9.993 0-18.102 8.119-18.102 18.125 0 10.007 8.109 18.125 18.102 18.125 9.994 0 18.102-8.118 18.102-18.125 0-10.006-8.108-18.125-18.102-18.125zm59.775 14.16c-11.126 0-19.988-9.062-19.988-20.202 0-11.139 9.051-20.012 19.988-20.012 11.125 0 20.176 9.062 20.176 20.013-.189 11.139-9.051 20.201-20.176 20.201zm0-38.327c-9.994 0-18.102 8.119-18.102 18.126 0 10.006 8.108 18.313 18.102 18.313 9.993 0 18.29-8.118 18.29-18.313-.188-10.007-8.297-18.126-18.29-18.126zm31.112-.188c-11.125 0-19.987-9.063-19.987-20.013C224.353 9.252 233.404 0 244.34 0c11.126 0 19.988 9.062 19.988 20.013 0 10.95-8.862 20.202-19.988 20.202zm0-38.327c-9.993 0-18.102 8.119-18.102 18.125s8.109 18.125 18.102 18.125c9.994 0 18.102-8.119 18.102-18.125 0-10.007-7.919-18.125-18.102-18.125zm49.969 64.004c-11.125 0-19.987-9.063-19.987-20.013 0-11.14 9.051-20.202 19.987-20.202 10.937 0 19.988 9.063 19.988 20.202.189 10.95-8.862 20.013-19.988 20.013zm0-38.327c-9.993 0-18.102 8.119-18.102 18.314 0 10.006 8.109 18.125 18.102 18.125 9.994 0 18.102-8.119 18.102-18.125.189-10.195-7.919-18.314-18.102-18.314zm16.028 96.1c-11.125 0-19.987-9.063-19.987-20.013 0-11.14 9.051-20.202 19.987-20.202 11.125 0 19.988 9.063 19.988 20.202 0 10.95-8.863 20.013-19.988 20.013zm0-38.327c-9.994 0-18.102 8.119-18.102 18.314 0 10.006 8.108 18.125 18.102 18.125s18.102-8.119 18.102-18.125c0-10.195-8.108-18.314-18.102-18.314zm44.878-4.531c-11.125 0-19.988-9.062-19.988-20.013 0-10.95 9.051-20.013 19.988-20.013 11.125 0 20.176 9.063 20.176 20.013 0 10.95-9.051 20.013-20.176 20.013zm0-38.327c-9.994 0-18.102 8.119-18.102 18.125 0 10.007 8.108 18.125 18.102 18.125s18.291-8.118 18.291-18.125c0-10.006-8.297-18.125-18.291-18.125zm22.627 89.87c-11.125 0-19.987-9.063-19.987-20.202 0-11.139 9.051-20.013 19.987-20.013 11.126 0 20.177 9.063 20.177 20.013 0 11.139-9.051 20.202-20.177 20.202zm0-38.327c-9.993 0-18.102 8.119-18.102 18.125 0 10.007 8.109 18.314 18.102 18.314 9.994 0 18.291-8.119 18.291-18.314 0-10.006-8.297-18.125-18.291-18.125zm9.806 109.316c-11.125 0-20.176-9.062-20.176-20.202 0-11.139 9.051-20.013 20.176-20.013 11.125 0 19.987 9.063 19.987 20.013.189 11.14-8.862 20.202-19.987 20.202zm0-38.327c-9.994 0-18.291 8.119-18.291 18.125 0 10.007 8.108 18.314 18.291 18.314 9.993 0 18.102-8.118 18.102-18.314.188-10.006-7.92-18.125-18.102-18.125zM272.059 391.763c-2.074 1.133-5.468 1.133-7.731 0-2.074-1.322-2.074-3.21 0-4.531 2.074-1.133 5.468-1.133 7.731 0 2.074 1.321 2.074 3.398 0 4.531zm27.907-19.824c-2.074 1.133-5.468 1.133-7.731 0-2.074-1.322-2.074-3.21 0-4.531 2.074-1.133 5.469-1.133 7.731 0 2.074 1.321 2.074 3.398 0 4.531z" fill="#4443F0"/><path d="M254.334 339.843v-87.982l.189-.377 49.592-65.892.188-.189 62.414-30.775 6.223-23.977 1.885.566-6.599 24.733-62.791 31.152-49.215 65.326v84.205l20.93-12.65v14.16h-1.885v-10.95l-20.931 12.65z" fill="#4443F0"/><path d="M268.288 286.601l-.754-1.511 48.649-24.355.754 1.699-48.649 24.167zm11.502 53.808c-2.074 1.133-5.468 1.133-7.731 0-2.074-1.322-2.074-3.21 0-4.531 2.074-1.133 5.468-1.133 7.731 0 2.074 1.321 2.074 3.398 0 4.531zm-83.533 14.727c-2.074 1.132-5.468 1.132-7.731 0-2.263-1.133-2.074-3.21 0-4.532 2.074-1.132 5.468-1.132 7.731 0 2.074 1.322 2.074 3.399 0 4.532zm27.719 26.054c-2.074 1.133-5.469 1.133-7.731 0-2.075-1.321-2.075-3.209 0-4.531 2.074-1.133 5.468-1.133 7.731 0 2.074 1.322 2.074 3.21 0 4.531zm-4.149 20.58h-1.885v-9.063l19.044-11.328v-13.405h1.886v14.538l-19.045 11.139v8.119z" fill="#4443F0"/><path d="M222.844 404.79c-2.074 1.133-5.468 1.133-7.731 0-2.262-1.132-2.074-3.209 0-4.531 2.074-1.133 5.469-1.133 7.731 0 2.074 1.133 2.074 3.21 0 4.531zm19.045-30.774c0 2.454-1.697 3.398-3.771 2.265-2.074-1.321-3.771-4.153-3.771-6.608 0-2.454 1.697-3.398 3.771-2.265 2.074 1.321 3.771 4.153 3.771 6.608zm57.889 20.39h-1.886v-8.118l-29.604-16.992v-14.538h1.885v13.405l29.605 17.181v9.062z" fill="#4443F0"/><path d="M295.064 397.427c2.074 1.133 5.468 1.133 7.731 0 2.074-1.322 2.074-3.21 0-4.531-2.074-1.133-5.469-1.133-7.731 0-2.075 1.321-2.263 3.209 0 4.531zM265.459 360.8c0 2.454 1.697 3.398 3.772 2.265 2.074-1.321 3.771-4.153 3.771-6.608 0-2.454-1.697-3.398-3.771-2.265-2.075 1.132-3.772 4.153-3.772 6.608zm-82.778 31.529h-1.886v-14.537l34.507-19.824v-10.384h1.885V359.1l-34.506 19.825v13.404z" fill="#4443F0"/><path d="M185.698 395.162c-2.075 1.132-5.469 1.132-7.731 0-2.263-1.133-2.075-3.21 0-4.532 2.074-1.133 5.468-1.133 7.731 0 2.074 1.322 2.074 3.399 0 4.532zm34.318-47.578c0 2.454-1.697 3.398-3.771 2.265-2.075-1.321-3.772-4.153-3.772-6.608 0-2.454 1.697-3.398 3.772-2.266 2.074 1.133 3.771 4.154 3.771 6.609zm0-27.943c0 2.454-1.697 3.398-3.771 2.265-2.075-1.321-3.772-4.153-3.772-6.608 0-2.454 1.697-3.398 3.772-2.265 2.074 1.133 3.771 4.153 3.771 6.608zm0-54.375c0 2.454-1.697 3.398-3.771 2.266-2.075-1.322-3.772-4.154-3.772-6.608 0-2.455 1.697-3.399 3.772-2.266 2.074 1.133 3.771 4.154 3.771 6.608zm15.839-81.185c0 2.455-1.697 3.399-3.771 2.266-2.074-1.322-3.771-4.154-3.771-6.608 0-2.454 1.697-3.398 3.771-2.266 2.074 1.322 3.771 4.154 3.771 6.608zm34.696 81.751c0 2.455-1.698 5.476-3.772 6.609-2.074 1.321-3.771.188-3.771-2.266s1.697-5.475 3.771-6.608 3.772-.189 3.772 2.265zm-.378 19.447c0 2.454-1.697 5.475-3.771 6.608-2.074 1.322-3.771.189-3.771-2.266 0-2.454 1.697-5.475 3.771-6.608 2.074-1.321 3.771-.188 3.771 2.266zm.943-86.66c0 2.455-1.697 5.475-3.771 6.608-2.074 1.322-3.771.189-3.771-2.265 0-2.455 1.697-5.476 3.771-6.608 2.074-1.133 3.771-.189 3.771 2.265zm-17.725-56.829c0 2.454-1.697 5.475-3.771 6.608-2.074 1.322-3.771.189-3.771-2.266 0-2.454 1.697-5.475 3.771-6.608s3.771-.189 3.771 2.266z" fill="#4443F0"/><path d="M267.345 202.018l-1.509-1.133 27.153-36.628.189-.189 39.409-20.012 17.725-64.57 1.697.566-17.913 65.325-.377.189-39.41 20.202-26.964 36.25zm-18.479-56.263l-1.32-1.133 28.473-37.194 11.125-44.368 1.886.377-11.126 44.746-.188.189-28.85 37.383zm16.782 125.175l-1.509-1.133 30.736-40.97.189-.188 75.425-37.761.942 1.7-75.236 37.76-30.547 40.592zm-48.083 45.312h-1.886v-29.075l-9.994-20.768-35.072-15.671.754-1.699 35.638 16.048 10.56 21.524v29.641zM245.283 39.46h-1.885v78.73h1.885V39.46zm91.076 205.604c-1.697 0-3.017.378-3.96 1.133-.566.378-1.32 1.133-1.697 1.888-.566.944-.943 1.699-.943 2.455h9.805l-.377 1.888h-9.616v1.888h9.239l-.377 1.888h-8.485c.377 2.265 1.32 3.776 2.828 4.72 1.131.566 2.263.944 3.583.944 1.697 0 3.205-.378 4.148-1.322v3.021c-1.131.566-2.451.755-3.96.755-4.337 0-7.165-1.888-8.674-5.475-.377-.755-.565-1.699-.754-2.643h-2.263l.378-1.888h1.508v-1.888h-1.886l.378-1.888h1.697c.565-3.21 2.074-5.287 4.714-6.797 1.508-.755 3.205-1.322 5.091-1.322 1.697 0 3.205.378 4.525 1.133l-.565 2.643c-1.697-.755-3.017-1.133-4.337-1.133zm49.78-75.143v2.832h2.829v-2.832h2.262v3.021c.566.189 1.132.189 1.697.567.943.377 1.697 1.132 2.263 1.888.566.944.754 1.888.754 2.832s-.188 1.699-.754 2.454c-.566.755-1.131 1.51-2.263 1.888 1.32.378 2.263.944 3.017 1.888.755.944.943 1.888.943 3.21 0 .944-.188 1.888-.565 2.832-.378.755-.943 1.51-1.509 1.888-.566.377-1.32.755-2.263 1.133-.377.188-.754.188-1.32.188v3.021h-2.262v-2.832h-2.829v2.832h-2.263v-2.832h-2.828v-21.146h2.828v-2.832h2.263zm2.263 11.706c1.32 0 2.074 0 2.64-.189.754-.189 1.32-.566 1.508-1.133.377-.566.566-1.132.566-1.888 0-.755-.189-1.321-.566-1.888-.377-.566-.754-.944-1.508-1.132-.566-.189-1.697-.378-3.206-.378h-4.148v6.608h4.714zm-4.526 9.629h5.28c.943 0 1.509 0 1.886-.189l1.697-.566c.377-.189.754-.567 1.131-1.133.189-.567.377-1.133.377-1.699 0-.756-.188-1.511-.565-2.077-.377-.567-.943-.944-1.697-1.133a11.795 11.795 0 00-3.017-.378h-4.903v7.175h-.189zm-7.731-81.185h4.526v2.077h-4.149c.189.378.189.755.189 1.322 0 .755-.188 1.699-.566 2.643-.377.944-1.131 1.888-1.885 2.832.754-.189 1.508-.378 2.074-.378.754 0 1.697.189 2.64.378 1.697.378 2.828.566 3.394.566.754 0 1.697-.188 2.828-.755l.755 2.455c-.943.377-1.509.566-2.075.755-.565.189-.942.189-1.508.189-.377 0-.754 0-1.131-.189-.189 0-.943-.189-1.886-.567-.943-.377-1.697-.566-1.886-.566-.377 0-.942-.189-1.32-.189-.754 0-1.508.189-2.262.378-.755.189-1.509.566-2.075.944l-.942-2.455a6.498 6.498 0 002.262-2.265 6.524 6.524 0 00.943-3.399c0-.566 0-1.133-.188-1.699h-2.829v-2.077h2.263c-.377-1.133-.566-1.888-.566-2.265 0-.567-.188-.944-.188-1.511 0-2.077.754-3.587 2.262-4.72 1.132-.944 2.64-1.321 4.337-1.321 1.697 0 3.206.566 4.337 1.51 1.132.944 1.886 2.266 2.074 3.965l-2.639.377c-.189-1.132-.566-2.076-1.32-2.643-.755-.566-1.509-.944-2.64-.944-1.132 0-1.886.378-2.64.944-.754.567-1.131 1.511-1.131 2.455.188.944.377 2.454.942 4.153zm-66.562 6.797v-2.643c-1.32-.189-2.263-.378-3.206-.944-.754-.378-1.508-1.133-2.074-2.077a6.523 6.523 0 01-.943-3.398l2.64-.567c.189 1.322.566 2.455 1.132 3.021.754.944 1.508 1.51 2.639 1.51v-7.929c-1.131-.189-2.074-.567-3.205-1.322-.754-.377-1.509-1.133-1.886-1.888-.377-.755-.754-1.699-.754-2.832 0-1.888.566-3.398 1.886-4.531.942-.755 2.074-1.322 3.959-1.322v-1.321h1.509v1.321c1.508.19 2.64.567 3.583 1.322a5.838 5.838 0 012.074 3.776l-2.64.378c-.189-.944-.377-1.7-.943-2.266-.566-.567-1.131-.944-2.074-1.133v7.363c1.32.378 2.074.567 2.64.756.754.377 1.508.755 1.885 1.321.566.567.943 1.133 1.132 1.888.188.755.377 1.511.377 2.266 0 1.699-.566 3.209-1.697 4.531-1.131 1.133-2.64 1.888-4.337 1.888v2.643h-1.697v.189zm0-22.656c-.943.189-1.886.566-2.451 1.133-.566.566-.943 1.51-.943 2.265 0 .944.188 1.7.754 2.266a6.069 6.069 0 002.451 1.51v-7.174h.189zm1.508 17.936c.943-.189 1.886-.566 2.452-1.322a4.645 4.645 0 00.943-2.832c0-.944-.189-1.699-.755-2.265-.377-.567-1.32-1.133-2.828-1.511v7.93h.188zm-19.233-60.794h-6.034v-2.077h6.034V47.2h-6.034v-1.888h4.903l-5.846-10.195h2.829l4.148 7.363 1.131 2.266c.189-.567.566-1.322 1.132-2.266l3.96-7.363h3.017l-5.846 10.195h4.903v2.077h-5.846v2.077h5.846v2.077h-5.846v4.72h-2.451v-4.909zM99.147 117.812c-1.697 0-3.017.378-3.96 1.133-.565.378-1.32 1.133-1.696 1.888-.566.944-.943 1.699-.943 2.454h9.805l-.377 1.888h-9.617v1.888h9.24l-.377 1.888h-8.486c.377 2.266 1.32 3.776 2.829 4.72 1.131.567 2.263.944 3.582.944 1.698 0 3.206-.377 4.149-1.321v3.021c-1.132.566-2.451.755-3.96.755-4.337 0-7.165-1.888-8.674-5.475-.377-.756-.566-1.7-.754-2.644h-2.263l.377-1.888h1.509v-1.888h-1.886l.377-1.888h1.509c.566-3.209 2.074-5.286 4.714-6.796 1.508-.756 3.205-1.322 5.091-1.322 1.697 0 3.206.378 4.526 1.133l-.566 2.643c-1.32-.566-2.64-1.133-4.149-1.133zM243.209 6.42v2.83h2.828V6.42h2.263v3.02c.566.189 1.132.189 1.697.567.943.377 1.697 1.132 2.263 1.888.566.944.754 1.888.754 2.832s-.188 1.699-.754 2.454c-.566.755-1.131 1.51-2.263 1.888 1.32.378 2.263.944 3.017 1.888s.943 1.888.943 3.21c0 .944-.188 1.888-.566 2.832-.377.755-.942 1.51-1.508 1.888-.566.377-1.32.755-2.263 1.132-.377.19-.754.19-1.32.19v3.02h-2.263v-2.832h-2.828v2.832h-2.263v-2.832h-2.828V9.251h2.828V6.42h2.263zm2.263 11.705c1.32 0 2.074 0 2.64-.189.754-.189 1.32-.566 1.508-1.133.377-.566.566-1.133.566-1.888 0-.755-.189-1.321-.566-1.888-.377-.566-.754-.944-1.508-1.132-.566-.19-1.697-.378-3.206-.378h-4.148v6.608h4.714zm-4.526 9.818h5.28c.943 0 1.509 0 1.886-.19l1.697-.566c.377-.188.754-.566 1.131-1.132.189-.567.377-1.133.377-1.7 0-.755-.188-1.51-.565-2.076-.378-.567-.943-.944-1.698-1.133a11.8 11.8 0 00-3.017-.378h-4.902v7.175h-.189zm-89.001 53.43h4.525v2.077h-4.148c.189.378.189.755.189 1.322 0 .755-.189 1.7-.566 2.643-.377.944-1.131 1.888-1.886 2.832.755-.189 1.509-.377 2.074-.377.755 0 1.698.188 2.64.377 1.697.378 2.829.567 3.394.567.755 0 1.698-.19 2.829-.756l.754 2.455c-.943.377-1.508.566-2.074.755-.566.189-.943.189-1.509.189-.377 0-.754 0-1.131-.19-.188 0-.943-.188-1.886-.566-.942-.377-1.697-.566-1.885-.566-.377 0-.943-.189-1.32-.189-.754 0-1.509.19-2.263.378-.754.189-1.508.566-2.074.944l-.943-2.454a6.506 6.506 0 002.263-2.266 6.523 6.523 0 00.943-3.398c0-.567 0-1.133-.189-1.7h-2.828v-2.077h2.262c-.377-1.132-.565-1.888-.565-2.265 0-.567-.189-.944-.189-1.51 0-2.077.754-3.588 2.263-4.72 1.131-.945 2.64-1.322 4.337-1.322 1.697 0 3.205.566 4.337 1.51 1.131.944 1.885 2.266 2.074 3.965l-2.828.378c-.189-1.133-.566-2.077-1.32-2.644-.755-.566-1.509-.944-2.64-.944-1.132 0-1.886.378-2.64.944-.754.756-1.131 1.51-1.131 2.455.188 1.133.565 2.454 1.131 4.153zm-49.592 120.833v-2.643c-1.32-.189-2.263-.377-3.206-.944-.754-.377-1.508-1.133-2.074-2.077a6.523 6.523 0 01-.942-3.398l2.64-.566c.188 1.321.565 2.454 1.13 3.02.755.944 1.509 1.511 2.641 1.511v-8.308c-1.132-.188-2.075-.566-3.206-1.321-.754-.378-1.508-1.133-1.886-1.888-.377-.755-.754-1.699-.754-2.832 0-1.888.566-3.399 1.886-4.531.943-.756 2.074-1.322 3.96-1.322v-1.322h1.508v1.888c1.509.189 2.64.567 3.583 1.322a5.84 5.84 0 012.074 3.776l-2.64.378c-.188-.944-.377-1.7-.943-2.266-.565-.566-1.131-.944-2.074-1.133v7.363c1.32.378 2.074.567 2.64.756.754.377 1.508.755 1.886 1.321.565.567.942 1.133 1.131 1.888.189.755.377 1.511.377 2.266 0 1.699-.566 3.21-1.697 4.531-1.131 1.133-2.64 1.888-4.337 1.888v2.643h-1.697zm0-22.656c-.943.189-1.886.567-2.451 1.133-.566.566-.943 1.51-.943 2.266 0 .944.188 1.699.754 2.265a6.067 6.067 0 002.451 1.511v-7.175h.189zm1.509 17.936c.942-.188 1.885-.566 2.451-1.321a4.639 4.639 0 00.943-2.832c0-.944-.189-1.7-.755-2.266-.377-.566-1.32-1.133-2.828-1.51v7.929h.189zM344.655 70.423v-2.077l9.617-11.14h-9.051V55.13h12.445v1.7l-8.296 9.628-1.509 1.7c1.131 0 2.263-.19 3.206-.19h6.976v2.266h-13.388v.189zm15.84-8.307l-1.886 1.51v-2.265l1.886-1.51V49.276h2.64v8.307l1.885-1.699v2.266l-1.885 1.7v10.383h-2.64v-8.118zm-149.342-2.077v2.077h8.486v1.888h-8.486v5.286h-2.828v-5.286h-1.508v-1.888h1.508v-2.077h-1.508v-2.455h1.508v-9.25h6.6c1.885 0 3.394.188 4.337.566.942.377 1.697.944 2.262 2.076.566.944.943 2.077.943 3.21s-.188 2.077-.566 2.832c-.377.755-.942 1.322-1.697 1.888-.754.378-1.508.755-2.451.944-.943.189-1.885.189-2.828.189h-3.772zm3.772-2.455c.565 0 1.32 0 1.885-.188.566-.19 1.132-.378 1.509-.567.377-.189.754-.566 1.131-1.133.189-.377.377-1.132.377-1.699 0-.566-.188-1.133-.377-1.51-.188-.378-.566-.755-.943-1.133-.377-.189-.942-.378-1.508-.566-.566-.19-1.131-.19-1.697-.19h-3.96v6.986h3.583zm-61.283 83.262c0 .378-.189.755-.189 1.133 0 1.133.378 2.077.943 2.832.754.944 1.886 1.321 3.206 1.321s2.451-.377 3.205-1.321c.566-.755 1.132-1.511 1.132-2.643l2.64.566c-.189 1.699-.943 3.021-2.075 4.154-1.32.944-2.828 1.51-4.902 1.51-.943 0-1.886-.189-3.017-.566-.943-.378-1.697-.756-2.263-1.511-1.131-1.133-1.697-2.643-1.697-4.531v-.944h-.943v-2.455h1.886c.565-.755 1.508-1.51 2.64-2.076.188-.189 1.131-.378 3.017-.944h-7.354v-2.455h11.502c.189-.377.189-.944.189-1.51 0-.944-.378-1.699-.943-2.266-.754-.755-1.697-1.133-3.017-1.133-1.32 0-2.263.378-2.829.944-.565.567-.754 1.322-.942 2.266l-2.64-.378c.188-1.699.942-2.832 2.074-3.776 1.131-.944 2.451-1.321 4.148-1.321 2.074 0 3.771.377 4.903 1.321 1.32 1.133 1.885 2.644 1.885 4.532 0 .377 0 .755-.188 1.321h1.697v2.455h-2.64c-.377.377-.754.755-1.32.944-.754.377-2.263.944-4.714 1.51-.188 0-.566.189-.754.189h9.805v2.832h-12.445zm-9.617 90.625h2.64v12.083l6.034-6.231h3.394l-5.845 5.664 6.411 9.629h-3.206l-5.091-7.74-1.885 1.699v6.041h-2.452v-21.145zm14.52 20.957v-15.293h2.262v2.265c.566-1.133 1.132-1.888 1.697-2.077.566-.377 1.132-.566 1.697-.566.943 0 1.698.189 2.64.755l-.942 2.455c-.566-.378-1.32-.567-1.886-.567-.566 0-1.131.189-1.509.567-.377.377-.754.755-.942 1.321-.378.944-.378 1.888-.378 3.021v7.93h-2.639v.189z" fill="#4443F0"/></g><path fill="url(#paint1_linear_128_891)" d="M0 355h504v271H0z"/><defs><linearGradient id="paint0_linear_128_891" x1="-297.924" y1="539.886" x2="837.17" y2="409.143" gradientUnits="userSpaceOnUse"><stop stop-color="#4443F0"/><stop offset="1" stop-color="#45108A"/></linearGradient><linearGradient id="paint1_linear_128_891" x1="252" y1="355" x2="252" y2="626" gradientUnits="userSpaceOnUse"><stop stop-opacity="0"/><stop offset="1"/></linearGradient></defs></svg>