<svg width="16" height="12" fill="none" xmlns="http://www.w3.org/2000/svg"><g clip-path="url(#clip0_904_882)" fill-rule="evenodd" clip-rule="evenodd" fill="#000"><path d="M1.178 0h13.616C15.454 0 16 .548 16 1.183a1.211 1.211 0 01-1.207 1.212H1.178C.546 2.394 0 1.845 0 1.182 0 .548.546 0 1.178 0zm0 4.817h13.616c.66 0 1.206.52 1.206 1.183a1.211 1.211 0 01-1.207 1.212H1.178C.546 7.212 0 6.664 0 6a1.19 1.19 0 01.346-.835c.221-.221.52-.346.832-.348zm0 4.818h13.616c.66 0 1.206.519 1.206 1.183C16 11.48 15.454 12 14.793 12H1.178c-.313 0-.612-.124-.833-.346a1.185 1.185 0 01.833-2.02z"/></g><defs><clipPath id="clip0_904_882"><path fill="#fff" d="M0 0h16v12H0z"/></clipPath></defs></svg>