<svg width="18" height="18" fill="none" xmlns="http://www.w3.org/2000/svg"><g clip-path="url(#clip0_904_1912)" fill="#000"><path d="M9.43 14.478h-.86a.926.926 0 01-.94-.939V8.374a.927.927 0 01.94-.94h.86a.927.927 0 01.94.94v5.165a.927.927 0 01-.94.94zm0-8.022h-.86a.927.927 0 01-.94-.939v-.86a.927.927 0 01.94-.94h.86a.927.927 0 01.94.94v.86a.928.928 0 01-.94.94z"/><path d="M9 18A9 9 0 119 .001 9 9 0 019 18zM9 1.565a7.435 7.435 0 100 14.87 7.435 7.435 0 000-14.87z"/></g><defs><clipPath id="clip0_904_1912"><path fill="#fff" d="M0 0h18v18H0z"/></clipPath></defs></svg>