<svg width="24" height="18" fill="none" xmlns="http://www.w3.org/2000/svg"><path d="M23.788 0H.212a.216.216 0 00-.149.062A.212.212 0 000 .21v17.58c0 .056.023.108.063.148.04.039.093.061.15.062h23.575c.056 0 .11-.023.149-.062A.211.211 0 0024 17.79V.21a.211.211 0 00-.063-.148.216.216 0 00-.15-.062zm-3.49 1.996l-7.595 7.509a.992.992 0 01-.703.288 1.003 1.003 0 01-.703-.288L3.702 1.996a.21.21 0 01.152-.36h16.292a.214.214 0 01.2.13.208.208 0 01-.048.23zM21.98 15.36l-5.242-5.165a.494.494 0 00-.692 0l-.46.441a.482.482 0 000 .688l4.71 4.68a.21.21 0 01-.15.36H3.853a.214.214 0 01-.2-.13.208.208 0 01.048-.23l4.64-4.588a.482.482 0 00.108-.53.482.482 0 00-.108-.157l-.466-.46a.494.494 0 00-.693 0L2.02 15.351a.216.216 0 01-.364-.15V2.8a.208.208 0 01.13-.197.215.215 0 01.234.047l9.278 9.172a.99.99 0 00.703.288 1.002 1.002 0 00.703-.288l9.278-9.172a.213.213 0 01.364.15v12.4a.21.21 0 01-.133.194.217.217 0 01-.231-.043v.008z" fill="#000"/></svg>