<svg width="24" height="24" fill="none" xmlns="http://www.w3.org/2000/svg"><g clip-path="url(#clip0_904_1661)" fill="#000"><path d="M23.118 17.804l-3.003-2.824a2.232 2.232 0 00-1.629-.758 2.248 2.248 0 00-1.663.68l-1.528 1.464a17.025 17.025 0 01-4.214-2.954l-.132-.105a15.962 15.962 0 01-3.16-4.052l1.395-1.569a2.2 2.2 0 00.606-1.568 2.232 2.232 0 00-.843-1.674L5.945 1.57A2.552 2.552 0 004.259.76a2.588 2.588 0 00-1.923.784C2.205 1.673 1.02 2.77.572 4.13c-.317.758-2.66 7.19 5.162 14.536l.158.157C10.291 23.007 14.215 24 16.954 24a9.236 9.236 0 003.82-.732c1.343-.523 2.396-1.752 2.502-1.856a2.58 2.58 0 00.71-1.961 2.477 2.477 0 00-.868-1.647zm-1.423 2.248c-.237.262-.974 1.02-1.685 1.281l-.106.053c-.079 0-5.505 2.64-12.537-4.079l-.158-.157C.176 10.562 2.415 5.15 2.52 4.941l.052-.104c.237-.732.949-1.49 1.212-1.752a.675.675 0 01.369-.21.401.401 0 01.237.132l3.134 2.98c.132.105.158.183.158.21 0 .025-.026.051-.053.104L5.286 8.967l.316.628A17.88 17.88 0 009.5 14.85l.132.104a18.083 18.083 0 005.479 3.608l.632.262 2.555-2.432.026-.052a.38.38 0 01.079-.052c.026 0 .105.026.237.157l3.055 2.875.08.053c.078.068.134.16.157.261a1.414 1.414 0 01-.237.418z"/><path d="M12.345 0c-.28 0-.547.11-.745.306a1.042 1.042 0 00-.309.74V7.32c0 .278.111.544.31.74a1.058 1.058 0 001.489 0 1.04 1.04 0 00.309-.74V1.046a1.04 1.04 0 00-.309-.74A1.057 1.057 0 0012.345 0zm10.562 10.693h-6.585c-.28 0-.547.11-.745.306a1.042 1.042 0 000 1.48c.198.195.466.305.745.305h6.585c.28 0 .547-.11.745-.306a1.042 1.042 0 000-1.479 1.057 1.057 0 00-.745-.306zM21.406 4.81a1.05 1.05 0 00.457-.73 1.039 1.039 0 00-.602-1.087 1.06 1.06 0 00-1.225.249L14.742 7.79a1.043 1.043 0 00-.106 1.464 1.066 1.066 0 00.79.366c.255.005.5-.09.685-.262l5.295-4.549z"/></g><defs><clipPath id="clip0_904_1661"><path fill="#fff" d="M0 0h24v24H0z"/></clipPath></defs></svg>