<svg width="167" height="103" fill="none" xmlns="http://www.w3.org/2000/svg"><path d="M126.748 42.235l-.126 1.495.126-1.495zm23.401 35.345l1.422.476-1.422-.476zM68.246 96.234l.466-1.425-.466 1.425zM0 56.556l5.916 16.278 11.14-13.262L0 56.556zm2.084 3.709a1.5 1.5 0 101.898-2.323l-1.898 2.323zm8.09 2.539a1.5 1.5 0 00-1.81 2.392l1.81-2.392zm4.646 7.12a1.5 1.5 0 101.734-2.449l-1.734 2.449zm8.242 2.01a1.5 1.5 0 00-1.657 2.5l1.657-2.5zm5.07 6.802a1.5 1.5 0 101.575-2.554l-1.575 2.554zm8.364 1.475a1.5 1.5 0 00-1.485 2.606l1.485-2.606zm5.53 6.438a1.5 1.5 0 001.388-2.66l-1.388 2.66zm8.443.845a1.5 1.5 0 10-1.278 2.713l1.278-2.713zm6.041 5.965a1.5 1.5 0 001.154-2.77l-1.154 2.77zm8.486.075a1.5 1.5 0 00-1.012 2.824l1.012-2.824zm6.479 5.237a1.5 1.5 0 00.797-2.893l-.797 2.893zm8.084-1.207a1.5 1.5 0 10-.562 2.947l.562-2.947zm7.042 4.12a1.5 1.5 0 10.355-2.979l-.355 2.979zm7.826-2.34a1.5 1.5 0 00-.157 2.997l.157-2.996zm7.536 3.144a1.5 1.5 0 00-.044-3l.044 3zm7.431-3.377a1.5 1.5 0 10.262 2.988l-.262-2.988zm7.918 2.004a1.5 1.5 0 10-.509-2.957l.509 2.957zm6.752-4.574a1.5 1.5 0 00.804 2.89l-.804-2.89zm8.164.345a1.5 1.5 0 10-1.169-2.763l1.169 2.763zm5.325-6.157a1.5 1.5 0 001.624 2.523l-1.624-2.523zm7.771-2.477a1.5 1.5 0 10-2.161-2.081l2.161 2.081zm2.014-7.861a1.5 1.5 0 102.666 1.376l-2.666-1.376zm5.519-6.736a1.5 1.5 0 00-2.91-.73l2.91.73zm-1.446-9.302a1.499 1.499 0 102.987.28l-2.987-.28zm3.154-8.874a1.5 1.5 0 00-2.995.171l2.995-.17zm-4.157-8.441a1.5 1.5 0 002.932-.634l-2.932.634zm.241-9.415a1.5 1.5 0 10-2.779 1.13l2.779-1.13zm-6.812-6.462a1.5 1.5 0 002.476-1.695l-2.476 1.695zm-3.831-8.6a1.5 1.5 0 10-1.87 2.345l1.87-2.345zm-9.2-1.395a1.501 1.501 0 00.732-2.909l-.732 2.91zm-8.824-2.806a1.5 1.5 0 00.928 2.853l-.928-2.853zm-3.945 7.81a1.5 1.5 0 10-2.879-.844l2.879.845zm-2.224 8.674a1.499 1.499 0 102.788-1.108l-2.788 1.108zm7.579 4.775a1.5 1.5 0 00-1.519 2.587l1.519-2.587zm7.39 4.288a1.5 1.5 0 00-.004-3l.004 3zm7.671-3.79a1.5 1.5 0 10.639 2.93l-.639-2.93zm8.56.078a1.5 1.5 0 10-1.395-2.656l1.395 2.656zm4.748-7.107a1.5 1.5 0 102.085 2.157l-2.085-2.157zm7.33-4.403a1.5 1.5 0 00-2.55-1.58l2.55 1.58zm.849-8.54a1.5 1.5 0 002.805 1.065l-2.805-1.065zm5.134-6.86a1.5 1.5 0 10-2.931-.639l2.931.638zm-1.76-8.401a1.5 1.5 0 002.989.257l-2.989-.257zM8.364 65.196a251.289 251.289 0 006.456 4.728l1.734-2.449a248.396 248.396 0 01-6.38-4.671l-1.81 2.392zm13.041 9.239a246.964 246.964 0 006.727 4.3l1.575-2.553a243.998 243.998 0 01-6.645-4.249l-1.657 2.502zm13.606 8.382a215.516 215.516 0 007.015 3.832l1.388-2.66a212.316 212.316 0 01-6.918-3.778l-1.485 2.606zm14.18 7.39a177.016 177.016 0 007.32 3.252l1.153-2.77a174.103 174.103 0 01-7.195-3.195l-1.278 2.713zm14.793 6.151c1.257.45 2.523.885 3.795 1.302l.933-2.852a140.904 140.904 0 01-3.716-1.274l-1.012 2.824zm3.795 1.302c1.198.392 2.431.762 3.696 1.11l.797-2.892a78.483 78.483 0 01-3.56-1.07l-.933 2.852zm11.218 2.851c2.47.471 5.014.864 7.604 1.173l.355-2.979c-2.523-.3-4.998-.683-7.397-1.14l-.562 2.946zm15.273 1.83c2.553.134 5.125.185 7.693.147l-.044-3c-2.499.037-5.004-.013-7.492-.143l-.157 2.996zm15.386-.242a93.206 93.206 0 007.656-.984l-.509-2.957a89.93 89.93 0 01-7.409.953l.262 2.988zm15.212-2.668a60.63 60.63 0 007.36-2.545l-1.169-2.763a57.562 57.562 0 01-6.995 2.418l.804 2.89zm14.309-6.18c2.274-1.464 4.342-3.125 6.147-4.999l-2.161-2.081c-1.625 1.687-3.508 3.205-5.61 4.558l1.624 2.523zm10.827-11.484a26.34 26.34 0 001.567-3.71l-2.845-.953a23.242 23.242 0 01-1.388 3.287l2.666 1.376zm1.567-3.71c.489-1.461.917-2.93 1.286-4.402l-2.91-.73a55.556 55.556 0 01-1.221 4.179l2.845.952zm2.827-13.424c.289-3.092.338-6.158.167-9.154l-2.995.171a58.109 58.109 0 01-.159 8.703l2.987.28zm-1.058-18.229a53.048 53.048 0 00-2.691-8.781l-2.779 1.13a50.118 50.118 0 012.538 8.285l2.932-.634zm-7.027-16.938c-1.844-2.693-3.96-5.033-6.307-6.905l-1.87 2.345c2.083 1.662 4.002 3.773 5.701 6.255l2.476-1.695zm-14.775-11.209a19.58 19.58 0 00-4.79-.594v3c1.389 0 2.743.173 4.058.503l.732-2.909zm-4.79-.594c-1.776 0-3.364.24-4.766.697l.928 2.853c1.062-.346 2.332-.55 3.838-.55v-3zm-11.59 7.663c-.892 3.04-.551 6.482.655 9.518l2.788-1.108c-1.008-2.537-1.233-5.285-.564-7.565l-2.879-.845zm6.715 16.88a11.19 11.19 0 004.749 1.524l.251-2.99a8.186 8.186 0 01-3.481-1.12l-1.519 2.586zm4.749 1.524c1.435.12 2.821.178 4.16.177l-.004-3a46.091 46.091 0 01-3.905-.166l-.251 2.99zm12.47-.682c2.933-.64 5.564-1.615 7.921-2.853l-1.395-2.656c-2.115 1.11-4.491 1.994-7.165 2.578l.639 2.93zm14.754-7.803c2.073-2.002 3.802-4.233 5.245-6.56l-2.55-1.58c-1.33 2.144-2.908 4.174-4.78 5.983l2.085 2.157zm8.899-14.035a55.803 55.803 0 002.329-7.926l-2.931-.638a52.944 52.944 0 01-2.203 7.5l2.805 1.064zm3.558-16.07c.109-1.269.158-2.3.18-3.017.011-.36.015-.64.016-.834l.001-.224-.001-.061V.979l-1.5.021c-1.499.022-1.5.022-1.5.021l.001.001v.246c-.002.172-.005.429-.016.763-.02.67-.066 1.644-.17 2.853l2.989.257z" fill="#9D90D0"/></svg>