<svg width="117" height="51" fill="none" xmlns="http://www.w3.org/2000/svg"><path d="M1.219 45.54a1 1 0 00.562 1.92l-.562-1.92zM42 18l-.97.244L42 18zM17 9.5l-.6-.8.6.8zm99-9l-9.463 6.618L117 12.004 116 .5zM5.995 46.11a1 1 0 00-.639-1.894l.64 1.895zm7.556-4.897a1 1 0 10.737 1.859l-.737-1.86zm8.86-1.655a1 1 0 00-.856-1.807l.856 1.807zm6.82-5.876a1 1 0 101.03 1.715l-1.03-1.715zm8.302-3.529a1 1 0 10-1.339-1.485l1.34 1.485zm3.392-8.098a1 1 0 101.917.57l-1.917-.57zm.722-8.395a1 1 0 10-1.853.752l1.853-.752zM35.42 8.004a1 1 0 101.28-1.537l-1.28 1.537zm-7.13-4.306a1 1 0 10.102 1.998l-.102-1.998zm-7.32 4.388a1 1 0 00-.979-1.744l.98 1.744zm-7.478 3.81a1 1 0 001.722 1.017l-1.722-1.017zm.748 7.977a1 1 0 10-1.968.354l1.969-.354zm.986 7.997a1 1 0 101.734-.997l-1.734.997zm6.253 5.219a1 1 0 10-1.5 1.323l1.5-1.323zm4.291 6.908a1 1 0 101.273-1.542l-1.273 1.542zm7.595 2.917a1 1 0 00-1.023 1.718l1.023-1.718zm6.226 5.244a1 1 0 10.71-1.87l-.71 1.87zm8.114.07a1 1 0 00-.278 1.981l.278-1.98zm8.148 2.116a1 1 0 10-.144-1.995l.144 1.995zm8.181-3.222a1 1 0 00.44 1.951l-.44-1.95zm8.768-.59a1 1 0 00-.724-1.865l.724 1.865zm6.882-5.46a1 1 0 00.978 1.744l-.978-1.744zm8.268-2.99a1 1 0 10-1.192-1.606l1.192 1.606zm5.287-7.019a1 1 0 101.365 1.462l-1.365-1.462zm7.395-4.767a1 1 0 00-1.503-1.32l1.503 1.32zm3.801-7.935a1 1 0 001.613 1.182l-1.613-1.182zm6.426-5.984a1 1 0 00-1.704-1.047l1.704 1.047zm2.444-8.472a1 1 0 101.787.898l-1.787-.898zM1.5 46.5l.281.96h.002l.004-.002.015-.004.057-.017.221-.067a145.185 145.185 0 003.915-1.26l-.639-1.894a144.261 144.261 0 01-3.854 1.24l-.213.064-.053.015-.013.004-.003.001h-.001l.281.96zm12.788-3.428c2.572-1.02 5.348-2.2 8.123-3.514l-.856-1.807a136.048 136.048 0 01-8.004 3.462l.737 1.859zm15.972-7.675c2.695-1.62 5.2-3.375 7.273-5.244l-1.339-1.485c-1.949 1.756-4.34 3.437-6.964 5.014l1.03 1.715zm12.582-12.772c.47-1.576.546-3.21.128-4.87l-1.94.49c.324 1.284.27 2.55-.105 3.81l1.917.57zm.128-4.87a30.988 30.988 0 00-1.323-4.095l-1.853.752c.47 1.16.885 2.437 1.236 3.832l1.94-.488zM36.7 6.468c-2.4-1.998-5.261-2.93-8.409-2.769l.102 1.998c2.658-.137 5.023.64 7.028 2.308l1.28-1.537zm-16.708-.125A32.576 32.576 0 0016.4 8.7l1.2 1.6a30.583 30.583 0 013.371-2.214l-.979-1.744zM16.4 8.7c-1.234.926-2.2 2-2.907 3.196l1.722 1.017c.565-.955 1.348-1.835 2.385-2.613l-1.2-1.6zm-4.127 11.527c.448 2.489 1.482 5.081 2.954 7.643l1.734-.997c-1.39-2.416-2.322-4.791-2.72-7l-1.968.354zm7.708 14.185a51.283 51.283 0 005.79 5.585l1.273-1.542a49.287 49.287 0 01-5.564-5.366l-1.5 1.323zm12.362 10.22a46.409 46.409 0 007.249 3.526l.71-1.87a44.411 44.411 0 01-6.936-3.374l-1.023 1.718zm15.085 5.578c1.359.19 2.719.29 4.072.29v-2c-1.255 0-2.522-.093-3.794-.271l-.278 1.98zm4.072.29c1.477 0 2.929-.053 4.354-.156l-.144-1.995c-1.377.1-2.78.151-4.21.151v2zm12.974-1.427a58.434 58.434 0 008.329-2.541l-.724-1.865a56.433 56.433 0 01-8.044 2.455l.44 1.951zm16.189-6.257a68.21 68.21 0 007.29-4.734l-1.192-1.606a66.206 66.206 0 01-7.076 4.596l.978 1.744zm13.942-10.291a87.623 87.623 0 006.03-6.229l-1.503-1.32a85.631 85.631 0 01-5.892 6.087l1.365 1.462zm11.444-12.982a105.788 105.788 0 004.813-7.166l-1.704-1.047a104.025 104.025 0 01-4.722 7.031l1.613 1.182z" fill="#9D90D0"/></svg>