<svg width="459" height="456" fill="none" xmlns="http://www.w3.org/2000/svg"><path d="M325.206 358.658l-22.671 16.435v71.024" stroke="#9D90D0" stroke-miterlimit="10"/><path d="M325.611 358.365h0l-.003-.004c-1.63-2.206-1.153-5.325 1.107-6.96 2.26-1.635 5.381-1.104 6.963 1.102h0l.004.005c1.63 2.206 1.153 5.326-1.106 6.961h0l-.004.003c-2.206 1.63-5.326 1.153-6.961-1.107zm1.314-6.72c-2.134 1.485-2.598 4.442-1.07 6.563 1.298 1.865 3.719 2.454 5.724 1.554a.824.824 0 00.163-.016.92.92 0 00.06-.022l.028-.013.015-.008.017-.01.01-.007.012-.007.017-.012.036-.025.048-.034a110.817 110.817 0 00.913-.67l.046-.034.034-.026.017-.013a.203.203 0 00.014-.011l.012-.012.011-.01.016-.016.029-.034a.833.833 0 00.061-.1.255.255 0 00.012-.055c1.482-1.62 1.679-4.101.336-5.915-1.486-2.132-4.441-2.595-6.561-1.067zm-24.388 103.427v0l.011-.001c2.357-.053 4.34-1.771 4.669-4.056h.047v0-.001 0-.001 0-.001 0-.001 0-.001 0-.001 0-.001 0-.001 0-.003 0-.001 0-.002 0-.003 0-.002 0-.002 0-.003 0-.007 0-.002 0-.003 0-.012 0-.003 0-.003 0-.015 0-.004 0-.017 0-.004 0-.019 0-.016 0-.041 0-.019 0-.09 0-.017 0-.035 0-.068 0-.097 0-.148 0-.013 0-.028 0-.013 0-.148 0-.097 0-.068 0-.035 0-.017 0-.054 0-.036 0-.019 0-.041 0-.016 0-.019 0-.004 0-.017 0-.004 0-.015 0-.003 0-.003 0-.012 0-.003 0-.002 0-.012 0-.005 0-.002 0-.001 0-.003 0-.001 0-.001 0-.001 0-.001 0-.001 0-.001 0-.001 0-.001 0h-.047c-.328-2.286-2.307-4.057-4.68-4.057a4.741 4.741 0 00-4.728 4.728 4.741 4.741 0 004.728 4.728zm-4.996-4.728c0-2.736 2.26-4.996 4.996-4.996 2.736 0 4.996 2.26 4.996 4.996 0 2.736-2.26 4.996-4.996 4.996-2.736 0-4.996-2.26-4.996-4.996z" fill="#9D90D0" stroke="#9D90D0"/><path d="M257.039 364.048v-41.166" stroke="#9D90D0" stroke-miterlimit="10"/><path d="M257.039 363.227c2.736 0 4.996 2.259 4.996 4.995a4.992 4.992 0 01-4.996 4.996c-2.736 0-4.996-2.26-4.996-4.996 0-2.736 2.26-4.995 4.996-4.995zm0 .268a4.743 4.743 0 00-4.683 4.077h-.045v1.327h.049a4.742 4.742 0 004.679 4.051 4.74 4.74 0 004.727-4.728 4.74 4.74 0 00-4.727-4.727zm4.996-44.841c0 2.736-2.26 4.996-4.996 4.996-2.736 0-4.996-2.26-4.996-4.996 0-2.736 2.26-4.996 4.996-4.996a4.992 4.992 0 014.996 4.996zm-9.724.672v0h.048a4.743 4.743 0 004.68 4.056 4.74 4.74 0 004.727-4.728 4.74 4.74 0 00-4.727-4.727 4.743 4.743 0 00-4.68 4.056h-.048v1.343z" fill="#9D90D0" stroke="#9D90D0"/><path d="M338.523 293.5l-51.365 39.105v70.019" stroke="#9D90D0" stroke-miterlimit="10"/><path d="M338.824 286.975h0l.005-.003c2.152-1.675 5.323-1.25 7.008.962 1.637 2.217 1.246 5.337-.957 7.015-2.217 1.637-5.337 1.246-7.015-.957-1.638-2.218-1.246-5.339.959-7.017zm-.751 6.83c1.441 1.869 4.001 2.389 6.011 1.283a.84.84 0 00.075.012h0l.005-.004.009-.006.065-.051.455-.351.455-.351.065-.05.008-.006.005-.004h.001v-.001h0a.96.96 0 00.006-.074c1.584-1.656 1.791-4.256.343-6.134-1.592-2.063-4.547-2.482-6.62-.883-2.063 1.592-2.482 4.547-.883 6.62zm-50.915 119.043v0h.011c2.357-.054 4.34-1.772 4.669-4.056h.048v0-.001 0-.001 0-.001 0-.001 0-.001 0-.001 0-.001 0-.002 0-.001 0-.001 0-.002 0-.003 0-.002 0-.011 0-.002 0-.003 0-.005 0-.013 0-.003 0-.003 0-.012 0-.003 0-.004 0-.037 0-.016 0-.022 0-.038 0-.035 0-.038 0-.017 0-.017 0-.017 0-.018 0-.018 0-.049 0-.097 0-.047 0-.088 0-.027 0-.027 0-.014 0-.013 0-.088 0-.047 0-.097 0-.049 0-.018 0-.018 0-.051 0-.038 0-.055 0-.018 0-.043 0-.019 0-.017 0-.037 0-.002 0-.003 0-.002 0-.013 0-.002 0-.001 0-.002 0-.001 0-.002 0-.002 0-.001 0-.001 0-.001 0-.001 0-.001 0-.001 0h-.048a4.743 4.743 0 00-4.68-4.056 4.74 4.74 0 00-4.728 4.727 4.74 4.74 0 004.728 4.728zm-4.996-4.728c0-2.736 2.26-4.995 4.996-4.995 2.736 0 4.996 2.259 4.996 4.995s-2.26 4.996-4.996 4.996c-2.736 0-4.996-2.26-4.996-4.996z" fill="#9D90D0" stroke="#9D90D0"/><path d="M271.832 357.179v67.06" stroke="#9D90D0" stroke-miterlimit="10"/><path d="M271.832 357.947c-2.736 0-4.996-2.26-4.996-4.996 0-2.736 2.26-4.995 4.996-4.995 2.736 0 4.996 2.259 4.996 4.995s-2.26 4.996-4.996 4.996zm0-.268c2.373 0 4.351-1.77 4.68-4.056h.047v0-.001 0-.001 0-.001 0-.001 0-.001 0-.001 0-.001 0-.002 0-.001 0-.001 0-.002 0-.003 0-.002 0-.011 0-.002 0-.003 0-.005 0-.013 0-.003 0-.003 0-.015 0-.004 0-.037 0-.016 0-.022 0-.038 0-.035 0-.038 0-.017 0-.017 0-.017 0-.018 0-.018 0-.049 0-.097 0-.047 0-.088 0-.027 0-.027 0-.014 0-.013 0-.088 0-.047 0-.097 0-.049 0-.018 0-.018 0-.051 0-.038 0-.021 0-.034 0-.018 0-.043 0-.019 0-.017 0-.037 0-.002 0-.003 0-.002 0-.013 0-.002 0-.001 0-.002 0-.001 0-.002 0-.002 0-.001 0-.001 0-.001 0-.001 0-.001 0-.001 0h-.047c-.329-2.286-2.307-4.056-4.68-4.056a4.74 4.74 0 00-4.728 4.727 4.74 4.74 0 004.728 4.728zm-4.996 70.734c0-2.736 2.26-4.996 4.996-4.996 2.736 0 4.996 2.26 4.996 4.996 0 2.736-2.26 4.996-4.996 4.996a4.992 4.992 0 01-4.996-4.996zm9.676-.671c-.329-2.286-2.307-4.056-4.68-4.056a4.74 4.74 0 00-4.728 4.727 4.74 4.74 0 004.728 4.728c2.373 0 4.351-1.77 4.68-4.056h.047v0-.001 0-.001 0-.001 0-.001 0-.001 0-.001 0-.001 0-.002 0-.001 0-.003 0-.003 0-.002 0-.009 0-.002 0-.005 0-.005 0-.013 0-.003 0-.003 0-.012 0-.003 0-.004 0-.037 0-.016 0-.017 0-.005 0-.038 0-.035 0-.038 0-.017 0-.017 0-.017 0-.018 0-.018 0-.146 0-.047 0-.088 0-.027 0-.027 0-.014 0-.013 0-.088 0-.047 0-.097 0-.049 0-.018 0-.018 0-.051 0-.038 0-.055 0-.018 0-.043 0-.019 0-.017 0-.037 0-.002 0-.003 0-.002 0-.013 0-.002 0-.001 0-.002 0-.001 0-.003 0-.001 0-.001 0-.001 0-.001 0-.001 0-.001 0-.001 0h-.047z" fill="#9D90D0" stroke="#9D90D0"/><path d="M32.236 188.921l35.248 38.471h49.621l17.703-9.777 13.634.687" stroke="#9D90D0" stroke-miterlimit="10"/><path d="M24.619 188.008c-1.644-2.07-1.425-5.058.503-6.802h0l.005-.004c2.013-1.87 5.185-1.73 7.061.291 1.87 2.013 1.73 5.185-.29 7.061-1.932 1.793-4.928 1.738-6.825-.052l-.235-.256-.219-.238zm7.112.329a4.711 4.711 0 00.844-5.96.7.7 0 00-.026-.076.365.365 0 00-.013-.025l-.01-.018a.27.27 0 00-.023-.038l-.007-.01-.012-.016-.009-.012-.018-.023-.044-.053a44.77 44.77 0 00-.144-.167l-.044-.05a4.43 4.43 0 00-.204-.233l-.247-.262-.152-.159-.048-.049-.021-.02-.012-.011-.014-.013-.01-.008-.014-.011-.022-.017-.018-.012-.026-.015-.041-.021a1.011 1.011 0 00-.075-.026l-.022-.004c-1.787-1.262-4.294-1.166-5.95.335v.001c-1.948 1.77-2.071 4.784-.296 6.68 1.77 1.945 4.782 2.067 6.678.293zm120.7 35.173s0 0 0 0c-2.742-.144-4.902-2.504-4.758-5.234.144-2.742 2.504-4.902 5.234-4.759 2.743.145 4.903 2.504 4.759 5.235h0c-.144 2.792-2.501 4.902-5.235 4.758zm-4.488-5.189h0l-.001.012c-.118 2.605 1.894 4.784 4.482 4.96h0l.011.001c2.605.118 4.784-1.894 4.961-4.482l.001-.011v-.012c.051-2.295-1.416-4.26-3.526-4.805a.522.522 0 00-.065-.05c-.019-.012-.054-.028-.069-.035l-.038-.013-.024-.007-.017-.004-.021-.004-.014-.002-.01-.002-.015-.002-.012-.001-.024-.002-.024-.002-.06-.005-.157-.01a34.644 34.644 0 00-.824-.047l-.157-.007-.059-.003h-.025l-.024-.001h-.027l-.01.001h-.015l-.022.002-.018.002-.025.005-.043.01a.75.75 0 00-.078.03.693.693 0 00-.093.063c-2.141.361-3.805 2.174-3.958 4.421z" fill="#9D90D0" stroke="#9D90D0"/><path d="M301.059 349.675v-6.87l26.581-17.492" stroke="#9D90D0" stroke-miterlimit="10"/><path d="M301.058 348.906c2.736 0 4.996 2.26 4.996 4.996 0 2.736-2.26 4.996-4.996 4.996-2.736 0-4.996-2.26-4.996-4.996 0-2.736 2.26-4.996 4.996-4.996zm0 .269c-2.373 0-4.351 1.77-4.679 4.056h-.048v1.343h.048c.328 2.286 2.306 4.056 4.679 4.056a4.74 4.74 0 004.728-4.728 4.74 4.74 0 00-4.728-4.727zm25.945-23.393h0l-.004-.006c-1.535-2.302-.864-5.424 1.44-6.913v.001l.007-.005c2.302-1.534 5.424-.863 6.912 1.441h0l.002.004c1.419 2.151.917 5.1-1.144 6.702a66.006 66.006 0 00-.674.442c-2.255 1.233-5.13.516-6.539-1.666zm8.083-5.341a4.678 4.678 0 00-5.89-1.698.68.68 0 00-.049-.028h.001-.001 0-.001v.001h0-.001 0v.001h-.001 0-.001v.001h0-.001v.001h-.001 0-.001l-.001.001h0l-.001.001h0l-.001.001h0-.001 0l-.002.001h0l-.001.001h0l-.001.001h-.001l-.001.001-.001.001h-.001l-.001.001h0l-.001.001h-.001l-.001.001h-.001l-.002.002h0l-.002.001h0l-.002.001h0l-.002.002h0l-.002.001-.001.001h-.001l-.001.001-.001.001-.002.001h0l-.003.002h0l-.002.001v.001l-.003.001h0l-.002.002h-.001l-.002.001-.001.001-.001.001-.003.001v.001l-.003.002h0l-.003.001v.001l-.003.001-.001.001-.001.001-.002.001-.001.001-.003.002h0l-.004.002h0l-.003.002-.001.001-.002.001-.002.001-.001.001-.003.002h0l-.004.002v.001l-.003.002h-.001l-.003.002-.002.001-.001.001-.003.002h-.001l-.003.003h-.001l-.003.002-.002.001-.001.002-.003.001-.001.001-.004.002v.001l-.004.002-.001.001-.003.001-.002.002-.001.001-.004.002-.001.001-.003.002-.002.001-.002.002-.003.002h-.001l-.005.003h0l-.004.003-.002.001-.002.001-.003.003h-.001l-.004.003h-.001l-.004.003-.002.001-.002.001-.004.003h-.001l-.004.003-.002.001-.002.002-.004.002-.001.001-.004.003-.001.001-.004.002-.003.002-.002.001-.004.003h-.001l-.004.003-.003.002-.002.001-.004.003h0l-.005.003-.002.002-.003.001-.005.003h0l-.005.004-.002.001-.002.002-.005.003h0l-.005.003-.003.002-.002.001-.005.004h0l-.005.003-.003.002-.002.001-.006.003v.001l-.005.003-.003.002-.002.001-.005.003-.001.001-.004.003-.004.002-.001.001-.006.004-.001.001-.004.002-.005.003h0l-.005.004-.003.002-.003.001-.005.004h-.001l-.004.003-.005.003-.001.001-.005.003-.003.002-.003.002-.005.003-.001.001-.004.003-.005.003h-.001l-.005.004-.003.002-.003.001-.005.004-.002.001-.004.003-.005.003h-.001l-.005.004-.004.002-.002.001-.005.004-.003.002-.003.002-.005.003-.002.001-.004.003-.006.004h0l-.005.003-.005.003-.001.001-.006.004-.004.002-.001.001-.006.004-.003.002-.003.002-.005.003-.003.002-.003.002-.006.004-.001.001-.004.002-.006.004-.001.001-.005.003-.006.004h0l-.005.003-.006.004h0l-.006.004-.005.003h-.001l-.005.004-.006.004s0 0 0 0 0 0 0 0l-.006.004-.005.003h0l-.006.004-.006.004h0l-.006.003-.005.004h0l-.006.004-.005.003-.001.001-.005.003-.005.003-.001.001-.006.004-.003.002-.003.001-.005.004-.003.002-.003.002-.006.003-.001.002-.004.002-.006.004h-.001l-.005.003-.005.004h0l-.006.004-.004.002-.001.001-.006.004-.003.002-.003.002-.005.003-.002.001-.004.003-.005.003v.001l-.006.003-.004.003-.001.001-.006.003-.002.002-.003.002-.006.003-.001.001-.004.003-.005.003h-.001l-.005.004-.003.002-.003.001-.005.004-.001.001-.004.002-.005.003-.001.001-.005.003-.002.002-.003.002-.006.003h0l-.005.004-.003.002-.002.001-.006.004h-.001l-.004.003-.004.003h-.001l-.005.004-.002.001-.003.002-.005.003h0l-.005.004-.003.001-.002.002-.006.003h0l-.005.003-.002.002-.002.002-.005.003h-.001l-.004.003-.003.002-.002.001-.005.003h0l-.005.003-.002.002-.003.002-.004.003h-.001l-.004.003-.002.001-.003.002-.004.002-.001.001-.004.003-.002.001-.003.002-.003.002-.001.001-.005.003h-.001l-.003.003-.003.001-.002.002-.004.002h0l-.005.003-.002.001-.002.002-.004.002v.001l-.005.003h0l-.004.002-.002.002-.002.001-.004.003h0l-.004.002-.001.001-.003.002-.003.002-.001.001-.004.002h0l-.004.003-.001.001-.003.001-.003.002-.001.001-.004.002h0l-.004.003h-.001l-.002.002-.002.001-.002.002-.003.001-.001.001-.003.002h-.001l-.003.003h-.001l-.002.002-.003.001-.001.001-.003.002h0l-.004.002v.001l-.003.002h-.001l-.002.002-.002.001-.001.001-.003.001v.001l-.003.002h-.001l-.002.002h-.001l-.002.002-.002.001-.001.001-.003.001h0l-.003.002h0l-.003.002h0l-.002.002h-.001l-.002.001-.002.001-.001.001-.002.001v.001l-.002.001h-.001l-.002.002h0l-.002.001-.001.001-.002.001h-.001l-.001.001-.001.001-.001.001-.002.001h0l-.002.001h0l-.002.002h0l-.002.001h0l-.002.001h0l-.002.001v.001h-.002v.001l-.001.001h-.001l-.001.001h-.001v.001h-.001l-.001.001h-.001 0l-.001.001h-.001l-.001.001h0l-.001.001h0l-.001.001h0-.001 0l-.001.001h0l-.001.001h0-.001 0l-.001.001h0-.001 0v.001h-.001 0l-.001.001h0a.342.342 0 00-.036.096c-1.686 1.531-2.042 4.121-.761 6.045 1.42 2.186 4.372 2.778 6.505 1.358 2.187-1.42 2.779-4.372 1.359-6.505z" fill="#9D90D0" stroke="#9D90D0"/><path d="M358.289 305.338h13l38.101-37.203-.898-30.386" stroke="#9D90D0" stroke-miterlimit="10"/><path d="M358.582 305.338c0 2.736-2.26 4.996-4.996 4.996-2.736 0-4.996-2.26-4.996-4.996 0-2.736 2.26-4.996 4.996-4.996 2.736 0 4.996 2.26 4.996 4.996zm-.269 0a4.743 4.743 0 00-4.056-4.68v-.048h0-.001 0-.001 0-.001 0-.001 0-.001 0-.001 0-.001 0-.003 0-.001 0-.002 0-.001 0-.002 0-.013 0-.002 0-.005 0-.015 0-.022 0-.017 0-.004 0-.015 0-.043 0-.018 0-.055 0-.038 0-.016 0-.017 0-.018 0-.018 0-.018 0-.049 0-.097 0-.047 0-.101 0-.014 0-.027 0-.115 0-.047 0-.164 0-.018 0-.017 0-.017 0-.055 0-.035 0-.038 0-.022 0-.016 0-.044 0-.015 0-.003 0-.003 0-.01 0-.005 0-.005 0-.002 0-.007 0-.002 0-.002 0-.001 0-.002 0-.001 0-.002 0-.001 0-.001 0-.002 0-.001 0-.001 0-.001 0-.001 0-.001 0v.048a4.743 4.743 0 00-4.057 4.68 4.74 4.74 0 004.728 4.728 4.74 4.74 0 004.727-4.728zm45.542-72.364a4.698 4.698 0 014.574-4.127l-4.574 4.127zm0 0a.772.772 0 00-.052.046s0 0 0 0v.001h0v.017l.002.081.013.573.013.572.002.082v.016h0v.001h0s0 0 0 0c.001 0 .021.02.057.046a4.747 4.747 0 004.773 3.893c2.604-.059 4.669-2.246 4.61-4.844-.059-2.605-2.246-4.67-4.844-4.611l-4.574 4.127zm9.657.059l.01.416.01.383c-.16 2.559-2.243 4.645-4.841 4.739-2.74.045-5.043-2.118-5.141-4.851-.046-2.741 2.12-5.046 4.855-5.142 2.593-.091 4.812 1.9 5.107 4.455z" fill="#9D90D0" stroke="#9D90D0"/><path d="M307.611 238.805l-29.541-26.264v-35.247l16.805-13.846h66.637" stroke="#9D90D0" stroke-miterlimit="10"/><path d="M308.186 239.322a4.761 4.761 0 00-.247 5.959.424.424 0 00.005.047.856.856 0 00.076.15l.016.02.01.012.013.014.008.009.005.006.009.008.008.007.032.03.041.038.114.103.303.271a69.545 69.545 0 00.421.374l.044.038a.674.674 0 00.034.029l.016.014.013.009.01.008a.285.285 0 00.019.013l.017.011a.826.826 0 00.1.047.81.81 0 00.113.018c1.875 1.086 4.367.726 5.907-.968v.001l.005-.007c1.713-1.949 1.539-4.96-.415-6.677-1.949-1.713-4.96-1.538-6.677.416zm-.201-.132a5.012 5.012 0 017.06-.434l.002.002.002.002a5.011 5.011 0 01.43 7.06 5.011 5.011 0 01-7.062.432c-2.065-1.824-2.258-4.996-.432-7.062zm57.755-70.746c-2.736 0-4.996-2.26-4.996-4.996 0-2.736 2.26-4.996 4.996-4.996 2.736 0 4.996 2.26 4.996 4.996a4.992 4.992 0 01-4.996 4.996zm-.671-9.671h0v.048c-2.286.328-4.057 2.306-4.057 4.68a4.74 4.74 0 004.728 4.727 4.74 4.74 0 004.728-4.727 4.703 4.703 0 00-4.057-4.681v-.047h0-.001 0-.001 0-.001 0-.001 0-.001 0-.001 0-.001 0-.001 0-.003 0-.001 0-.002 0-.003 0-.002 0-.002 0-.003 0-.007 0-.002 0-.003 0-.012 0-.003 0-.003 0-.015 0-.004 0-.017 0-.004 0-.019 0-.016 0-.041 0-.019 0-.09 0-.017 0-.035 0-.068 0-.097 0-.148 0-.013 0-.028 0-.013 0-.148 0-.097 0-.068 0-.035 0-.017 0-.054 0-.036 0-.019 0-.041 0-.016 0-.019 0-.004 0-.017 0-.004 0-.015 0-.003 0-.003 0-.012 0-.003 0-.002 0-.012 0-.005 0-.002 0-.001 0-.003 0-.001 0-.001 0-.001 0-.001 0-.001 0-.001 0-.001 0-.001 0z" fill="#9D90D0" stroke="#9D90D0"/><path d="M412.348 173.648l19.605 19.606v41.43" stroke="#9D90D0" stroke-miterlimit="10"/><path d="M405.525 173.904c-1.611-1.984-1.503-4.911.305-6.719h0l.004-.004c1.915-1.963 5.083-1.97 7.057.004h0l.004.005c1.963 1.915 1.969 5.083-.004 7.056h0l-.005.005c-1.794 1.839-4.688 1.961-6.669.345a61.94 61.94 0 00-.692-.692zm.898.914h0zm-.397-7.447h0l-.005.006c-1.834 1.833-1.834 4.845 0 6.678 1.833 1.834 4.845 1.834 6.678 0 1.662-1.661 1.818-4.291.468-6.134a3.223 3.223 0 00-.053-.07l.058-.002h0l-.005-.005-.007-.007-.057-.057-.404-.403-.403-.404-.057-.057-.008-.007-.004-.005h0-.001 0s0 0 0 0-.027 0-.07.005c-1.837-1.352-4.424-1.19-6.13.462z" fill="#9D90D0" stroke="#9D90D0"/><mask id="path-27-inside-1_206_4527" fill="#fff"><path d="M426.457 238.912c0-3.012 2.484-5.495 5.496-5.495 3.012 0 5.496 2.483 5.496 5.495 0 3.013-2.484 5.496-5.496 5.496-3.012 0-5.496-2.483-5.496-5.496 0 3.013 0-3.065 0 0zm9.723 0a4.24 4.24 0 00-4.227-4.227 4.24 4.24 0 00-4.228 4.227 4.24 4.24 0 004.228 4.228c2.325-.053 4.227-1.902 4.227-4.228 0 2.326 0-2.325 0 0z"/></mask><path d="M426.457 238.912c0-3.012 2.484-5.495 5.496-5.495 3.012 0 5.496 2.483 5.496 5.495 0 3.013-2.484 5.496-5.496 5.496-3.012 0-5.496-2.483-5.496-5.496 0 3.013 0-3.065 0 0zm9.723 0a4.24 4.24 0 00-4.227-4.227 4.24 4.24 0 00-4.228 4.227 4.24 4.24 0 004.228 4.228c2.325-.053 4.227-1.902 4.227-4.228 0 2.326 0-2.325 0 0z" fill="#9D90D0"/><path d="M431.953 244.408v-1 1zm0-1.268v1h.023l-.023-1zm-4.496-4.228c0-2.46 2.036-4.495 4.496-4.495v-2c-3.565 0-6.496 2.931-6.496 6.495h2zm4.496-4.495c2.46 0 4.496 2.035 4.496 4.495h2c0-3.564-2.932-6.495-6.496-6.495v2zm4.496 4.495c0 2.46-2.036 4.496-4.496 4.496v2c3.564 0 6.496-2.931 6.496-6.496h-2zm-4.496 4.496c-2.46 0-4.496-2.036-4.496-4.496h-2c0 3.565 2.931 6.496 6.496 6.496v-2zm-4.496-4.496v-.89h-2v1.754h2v-.864h-2v.864h2v-1.754h-2v.89h2zm9.723 0a5.24 5.24 0 00-5.227-5.227v2a3.239 3.239 0 013.227 3.227h2zm-5.227-5.227a5.24 5.24 0 00-5.228 5.227h2a3.24 3.24 0 013.228-3.227v-2zm-5.228 5.227a5.24 5.24 0 005.228 5.228v-2a3.24 3.24 0 01-3.228-3.228h-2zm5.251 5.228c2.839-.065 5.204-2.33 5.204-5.228h-2c0 1.753-1.438 3.187-3.25 3.228l.046 2zm5.204-5.228v-.671h-2v1.343h2v-.672h-2v.672h2v-1.343h-2v.671h2z" fill="#9D90D0" mask="url(#path-27-inside-1_206_4527)"/><path d="M167.469 22.46l21.402-16.964h84.974" stroke="#9D90D0" stroke-miterlimit="10"/><path d="M160.234 22.174h0l-.007.005-.277.23-.169.14-.05.042-.018.017-.019.016-.012.012-.01.01a.323.323 0 00-.017.017l-.013.015-.021.027-.035.056a.852.852 0 00-.037.1c-1.381 1.694-1.483 4.168-.085 5.931 1.604 2.075 4.615 2.363 6.621.773 2.075-1.604 2.363-4.615.773-6.62-1.405-1.818-3.889-2.265-5.831-1.28a.57.57 0 00-.077.007.88.88 0 00-.112.04.34.34 0 00-.02.012l-.013.007-.017.01-.017.012-.011.008-.009.007-.02.015-.05.038-.169.133-.278.22zm6.023 7.61c-2.157 1.726-5.278 1.348-7.012-.82-1.726-2.157-1.348-5.278.82-7.012 2.157-1.726 5.278-1.348 7.012.82 1.726 2.157 1.348 5.278-.82 7.013zM282.798 5.549h0v-.011c-.054-2.409-1.775-4.349-4.057-4.67V.82h0-.001 0-.001 0-.001 0-.001 0-.001 0-.001 0-.001 0-.001 0-.001 0-.002 0-.001 0-.002 0-.003 0-.002 0-.002 0-.003 0-.002 0-.005 0-.002 0-.015 0-.003 0-.003 0-.015 0-.004 0-.017 0-.004 0-.019 0-.016 0-.005 0-.036 0-.019 0-.035 0-.055 0-.017 0-.035 0-.068 0-.097 0-.148 0-.013 0-.041 0-.148 0-.097 0-.049 0-.019 0-.035 0-.017 0-.054 0-.055 0-.041 0-.016 0-.019 0-.004 0-.017 0-.019 0-.003 0-.003 0-.012 0-.003 0-.002 0-.017 0-.002 0-.001 0-.003 0-.001 0-.001 0-.001 0-.001 0-.001 0-.001 0-.001 0-.001 0v.05c-2.286.328-4.057 2.306-4.057 4.68a4.74 4.74 0 004.728 4.727 4.74 4.74 0 004.728-4.727zm-4.728 4.943c-2.736 0-4.996-2.26-4.996-4.996 0-2.736 2.26-4.996 4.996-4.996 2.736 0 4.996 2.26 4.996 4.996a4.992 4.992 0 01-4.996 4.996z" fill="#9D90D0" stroke="#9D90D0"/><path d="M53.32 185.326l22.09 22.142" stroke="#9D90D0" stroke-miterlimit="10"/><path d="M45.906 184.973h0l-.004-.004c-1.963-1.916-1.97-5.083.004-7.057h0l.005-.005c1.915-1.963 5.082-1.969 7.056.005h0l.005.004c1.963 1.915 1.97 5.083-.005 7.057h0l-.004.004c-1.915 1.963-5.083 1.97-7.057-.004zm6.87-.191c1.662-1.662 1.817-4.291.467-6.134a.658.658 0 00.006-.072s0 0 0 0h0v-.001l-.005-.004-.007-.007-.058-.058-.403-.403-.403-.403-.058-.058-.007-.007-.004-.004h0v-.001h0s0 0 0 0c-.002 0-.029 0-.073.006-1.843-1.35-4.472-1.194-6.134.467-1.833 1.834-1.833 4.845 0 6.679 1.834 1.833 4.846 1.833 6.68 0zm29.15 29.202c-1.807 1.808-4.734 1.915-6.718.305a89.55 89.55 0 00-.693-.692c-1.615-1.982-1.493-4.875.346-6.67h0l.004-.004c1.974-1.974 5.142-1.968 7.057-.005v.001l.004.004c1.974 1.974 1.968 5.141.005 7.057h0l-.005.004zm-.19-.191l.005-.006c1.652-1.705 1.813-4.292.462-6.129.005-.044.005-.071.005-.071h0v-.001l-.005-.004-.007-.007-.058-.058-.403-.403-.403-.403-.058-.058-.007-.007-.004-.004h0v-.001h0s-.029 0-.073.006c-1.843-1.35-4.472-1.194-6.133.467-1.834 1.834-1.834 4.845 0 6.679 1.833 1.833 4.845 1.833 6.678 0h0z" fill="#9D90D0" stroke="#9D90D0"/><path d="M72.135 177.294l30.28 30.281" stroke="#9D90D0" stroke-miterlimit="10"/><path d="M65.617 177.839h0l-.004-.004c-1.963-1.915-1.97-5.083.004-7.057h0l.004-.004c1.916-1.963 5.084-1.97 7.057.004h0l.005.004c1.963 1.916 1.97 5.083-.005 7.057h0l-.004.005c-1.915 1.963-5.083 1.969-7.057-.005zm6.87-.191c1.602-1.602 1.804-4.103.607-5.932a.864.864 0 00-.034-.109 1.027 1.027 0 00-.026-.05l-.016-.025-.01-.014a1.158 1.158 0 01-.013-.017l-.008-.009-.01-.012-.016-.018-.017-.018-.045-.047-.308-.321-.104-.107-.253-.252-.153-.152-.046-.044-.017-.017-.009-.008-.01-.008-.014-.013a.115.115 0 00-.013-.011l-.011-.009-.018-.012a1.624 1.624 0 01-.03-.02 1.057 1.057 0 00-.072-.034.5.5 0 00-.088-.018c-1.83-1.207-4.339-1.007-5.945.598-1.833 1.834-1.833 4.845 0 6.679 1.834 1.833 4.846 1.833 6.679 0zm36.392 36.443c-1.807 1.808-4.734 1.916-6.718.305a90.74 90.74 0 00-.693-.692c-1.615-1.981-1.493-4.875.346-6.67h0l.004-.004c1.974-1.974 5.142-1.967 7.057-.004h0l.004.004c1.974 1.974 1.968 5.142.005 7.057h0l-.005.004zm-.191-.191l.006-.006c1.652-1.705 1.813-4.292.462-6.129.005-.044.005-.071.005-.071h0l-.005-.005-.007-.007-.058-.058-.403-.403-.403-.403-.058-.057-.007-.008-.004-.004h0-.001 0v-.001h0s-.027 0-.072.006c-1.843-1.35-4.472-1.194-6.133.467-1.834 1.834-1.834 4.845 0 6.679 1.833 1.833 4.845 1.833 6.678 0h0z" fill="#9D90D0" stroke="#9D90D0"/><path d="M179.779 204.774h40.849v22.618l-33.715 33.715" stroke="#9D90D0" stroke-miterlimit="10"/><path d="M180.548 204.827c0 2.736-2.259 4.996-4.995 4.996-2.737 0-4.996-2.26-4.996-4.996 0-2.736 2.259-4.996 4.996-4.996 2.736 0 4.995 2.26 4.995 4.996zm-.268 0c0-2.373-1.77-4.351-4.056-4.68v-.047h0-.001 0-.001 0-.001 0-.001 0-.001 0-.001 0-.001 0-.002 0-.001 0-.001 0-.002 0-.001 0-.002 0-.002 0-.011 0-.002 0-.003 0-.002 0-.016 0-.003 0-.003 0-.015 0-.004 0-.053 0-.022 0-.052 0-.021 0-.038 0-.017 0-.034 0-.018 0-.018 0-.049 0-.097 0-.047 0-.088 0-.027 0-.027 0-.027 0-.088 0-.047 0-.097 0-.049 0-.018 0-.018 0-.034 0-.017 0-.038 0-.021 0-.052 0-.022 0-.053 0-.004 0-.015 0-.003 0-.003 0-.016 0-.002 0-.003 0-.002 0-.011 0-.002 0-.002 0-.001 0-.002 0-.001 0-.001 0-.002 0-.001 0-.001 0-.001 0-.001 0-.001 0-.001 0-.001 0v.046a4.702 4.702 0 00-4.056 4.681 4.74 4.74 0 004.728 4.728 4.74 4.74 0 004.727-4.728zm.112 55.739l.005-.004c1.973-1.974 5.141-1.967 7.056-.004h0l.005.004c1.973 1.974 1.967 5.142.004 7.057h0l-.004.004c-1.974 1.974-5.142 1.968-7.057.005v-.001l-.004-.004c-1.974-1.974-1.968-5.141-.005-7.057h0zm6.869 6.871l.005-.005a15.136 15.136 0 00.413-.431l.047-.051a.398.398 0 00.02-.022l.01-.012a.39.39 0 01.012-.015l.008-.01.01-.014a.035.035 0 00.006-.009l.009-.013.011-.018.014-.025.018-.041a.684.684 0 00.023-.072l.001-.005c1.203-1.83 1.003-4.336-.602-5.941-1.833-1.833-4.845-1.833-6.678 0-1.834 1.834-1.834 4.845 0 6.679 1.606 1.606 4.069 1.802 5.92.605l.025-.004.073-.023.04-.019.026-.013.017-.011.022-.015.015-.011.01-.008a.098.098 0 00.015-.012l.012-.01.021-.019.052-.047.162-.154.263-.254h0z" fill="#9D90D0" stroke="#9D90D0"/><path d="M420.697 251.013V211.01" stroke="#9D90D0" stroke-miterlimit="10"/><path d="M420.697 250.72c2.736 0 4.996 2.26 4.996 4.996a4.992 4.992 0 01-4.996 4.996c-2.736 0-4.996-2.26-4.996-4.996 0-2.736 2.26-4.996 4.996-4.996zm0 .268a4.743 4.743 0 00-4.68 4.057h-.048v1.342h.048a4.743 4.743 0 004.68 4.056 4.74 4.74 0 004.728-4.727 4.741 4.741 0 00-4.728-4.728zm0-48.934v0l-.011.001c-2.357.053-4.34 1.771-4.669 4.056h-.048v1.342h.048c.328 2.286 2.306 4.057 4.68 4.057a4.741 4.741 0 004.728-4.728 4.741 4.741 0 00-4.728-4.728zm4.996 4.728c0 2.736-2.26 4.996-4.996 4.996-2.736 0-4.996-2.26-4.996-4.996 0-2.736 2.26-4.996 4.996-4.996 2.736 0 4.996 2.26 4.996 4.996z" fill="#9D90D0" stroke="#9D90D0"/><path d="M378.58 71.5h29.064l12.26 19.182v56.544h-33.556l-16.91-22.829" stroke="#9D90D0" stroke-miterlimit="10"/><path d="M378.08 71.5c0 2.736-2.26 4.995-4.996 4.995a4.992 4.992 0 01-4.996-4.996c0-2.736 2.26-4.995 4.996-4.995 2.736 0 4.996 2.26 4.996 4.995zm-.269 0a4.743 4.743 0 00-4.056-4.68v-.048h0-.001 0-.001 0-.001 0-.001 0-.001 0-.001 0-.001 0-.003 0-.001 0-.002 0-.001 0-.002 0-.015 0-.005 0-.015 0-.022 0-.017 0-.004 0-.015 0-.043 0-.018 0-.055 0-.038 0-.016 0-.017 0-.018 0-.018 0-.018 0-.049 0-.097 0-.047 0-.101 0-.014 0-.027 0-.013 0-.089 0-.013 0-.047 0-.164 0-.018 0-.017 0-.017 0-.055 0-.035 0-.038 0-.022 0-.016 0-.019 0-.025 0-.015 0-.003 0-.003 0-.015 0-.005 0-.002 0-.007 0-.002 0-.002 0-.001 0-.002 0-.001 0-.002 0-.001 0-.001 0-.002 0-.001 0-.001 0-.001 0-.001 0-.001 0v.048a4.743 4.743 0 00-4.057 4.68 4.74 4.74 0 004.728 4.727 4.74 4.74 0 004.727-4.728zm-13.834 45.476c2.106-1.555 5.053-1.192 6.784.779l.211.283.222.294c1.38 2.18.855 5.107-1.264 6.722-2.204 1.626-5.327 1.153-7.016-1.063-1.626-2.204-1.153-5.327 1.063-7.015zm.197.253a4.663 4.663 0 00-1.385 5.964.538.538 0 00-.016.07s0 0 0 0h.001l.003.005.006.008.049.065.338.455v.001l.338.455.048.065.006.008.004.005h0s0 0 0 0c.001 0 .028.004.071.005 1.614 1.599 4.216 1.861 6.098.463 2.066-1.534 2.545-4.488 1.002-6.565-1.534-2.065-4.486-2.544-6.563-1.004z" fill="#9D90D0" stroke="#9D90D0"/><path d="M431.953 154.096v-30.544" stroke="#9D90D0" stroke-miterlimit="10"/><path d="M436.949 119.324c0 2.736-2.26 4.996-4.996 4.996-2.736 0-4.996-2.26-4.996-4.996 0-2.736 2.26-4.996 4.996-4.996a4.992 4.992 0 014.996 4.996zm-9.671.671v0h.048a4.743 4.743 0 004.68 4.057 4.74 4.74 0 004.727-4.728 4.74 4.74 0 00-4.727-4.727 4.702 4.702 0 00-4.681 4.056h-.047v1.342z" fill="#9D90D0" stroke="#9D90D0"/><path d="M248.426 174.335h-85.292l-39.845-42.593v-22.406l26.158-21.878" stroke="#9D90D0" stroke-miterlimit="10"/><path d="M247.605 174.335c0-2.736 2.26-4.996 4.996-4.996a4.958 4.958 0 014.996 4.996c0 2.736-2.26 4.996-4.996 4.996-2.736 0-4.996-2.26-4.996-4.996zm.269 0a4.743 4.743 0 004.056 4.68v.048h1.343v-.048a4.743 4.743 0 004.056-4.68 4.74 4.74 0 00-4.728-4.728 4.74 4.74 0 00-4.727 4.728zm-98.9-92.484c-1.359 1.714-1.353 4.224.09 5.928 1.659 2.011 4.67 2.246 6.623.592 2.011-1.66 2.246-4.67.592-6.623-1.45-1.758-3.932-2.159-5.838-1.128a.76.76 0 00-.121.017.763.763 0 00-.096.043l-.017.01-.018.012-.01.007-.012.009-.017.013a3.9 3.9 0 00-.035.028l-.045.036-.12.1-.314.261a143.524 143.524 0 00-.429.36l-.043.038-.033.028-.007.007-.009.008a1.112 1.112 0 00-.014.013l-.013.014-.01.01a.899.899 0 00-.044.057.956.956 0 00-.053.108.224.224 0 00-.007.052zm6.916 6.757c-2.112 1.776-5.284 1.49-7.063-.626-1.776-2.112-1.49-5.284.626-7.064 2.111-1.775 5.282-1.49 7.061.624 1.732 2.12 1.485 5.293-.624 7.066z" fill="#9D90D0" stroke="#9D90D0"/><path d="M179.779 119.323h68.382v29.435" stroke="#9D90D0" stroke-miterlimit="10"/><path d="M180.548 119.324c0 2.736-2.259 4.995-4.995 4.995-2.737 0-4.996-2.259-4.996-4.995 0-2.737 2.259-4.996 4.996-4.996 2.736 0 4.995 2.259 4.995 4.996zm-.268 0a4.743 4.743 0 00-4.056-4.68v-.048h0-.001 0-.001 0-.001 0-.001 0-.001 0-.001 0-.001 0-.002 0-.001 0-.001 0-.002 0-.001 0-.002 0-.002 0-.011 0-.002 0-.003 0-.002 0-.016 0-.003 0-.003 0-.015 0-.004 0-.053 0-.022 0-.052 0-.021 0-.038 0-.017 0-.034 0-.018 0-.018 0-.049 0-.097 0-.047 0-.088 0-.027 0-.027 0-.027 0-.088 0-.047 0-.097 0-.049 0-.018 0-.018 0-.034 0-.017 0-.038 0-.021 0-.052 0-.022 0-.053 0-.004 0-.015 0-.003 0-.003 0-.016 0-.002 0-.003 0-.002 0-.011 0-.002 0-.002 0-.001 0-.002 0-.001 0-.001 0-.002 0-.001 0-.001 0-.001 0-.001 0-.001 0-.001 0-.001 0v.048a4.743 4.743 0 00-4.056 4.68 4.74 4.74 0 004.728 4.727 4.74 4.74 0 004.727-4.727z" fill="#9D90D0" stroke="#9D90D0"/><mask id="path-54-inside-2_206_4527" fill="#fff"><path d="M242.664 152.986c0-3.012 2.484-5.496 5.496-5.496 3.012 0 5.496 2.484 5.496 5.496 0 3.012-2.484 5.496-5.496 5.496-3.012 0-5.496-2.484-5.496-5.496 0 3.012 0-3.065 0 0zm9.724 0a4.24 4.24 0 00-4.228-4.227 4.24 4.24 0 00-4.228 4.227 4.24 4.24 0 004.228 4.228 4.24 4.24 0 004.228-4.228c0 2.325 0-2.325 0 0z"/></mask><path d="M242.664 152.986c0-3.012 2.484-5.496 5.496-5.496 3.012 0 5.496 2.484 5.496 5.496 0 3.012-2.484 5.496-5.496 5.496-3.012 0-5.496-2.484-5.496-5.496 0 3.012 0-3.065 0 0zm9.724 0a4.24 4.24 0 00-4.228-4.227 4.24 4.24 0 00-4.228 4.227 4.24 4.24 0 004.228 4.228 4.24 4.24 0 004.228-4.228c0 2.325 0-2.325 0 0z" fill="#9D90D0"/><path d="M243.664 152.986c0-2.46 2.036-4.496 4.496-4.496v-2c-3.565 0-6.496 2.932-6.496 6.496h2zm4.496-4.496c2.46 0 4.496 2.036 4.496 4.496h2c0-3.564-2.932-6.496-6.496-6.496v2zm4.496 4.496c0 2.46-2.036 4.496-4.496 4.496v2c3.564 0 6.496-2.931 6.496-6.496h-2zm-4.496 4.496c-2.46 0-4.496-2.036-4.496-4.496h-2c0 3.565 2.932 6.496 6.496 6.496v-2zm-4.496-4.496v-.89h-2v1.754h2v-.864h-2v.864h2v-1.754h-2v.89h2zm9.724 0a5.24 5.24 0 00-5.228-5.227v2a3.24 3.24 0 013.228 3.227h2zm-5.228-5.227a5.24 5.24 0 00-5.228 5.227h2a3.24 3.24 0 013.228-3.227v-2zm-5.228 5.227a5.24 5.24 0 005.228 5.228v-2a3.24 3.24 0 01-3.228-3.228h-2zm5.228 5.228a5.24 5.24 0 005.228-5.228h-2a3.24 3.24 0 01-3.228 3.228v2zm5.228-5.228v-.671h-2v1.342h2v-.671h-2v.671h2v-1.342h-2v.671h2z" fill="#9D90D0" mask="url(#path-54-inside-2_206_4527)"/><path d="M220.628 158.534v-15.272H175.34" stroke="#9D90D0" stroke-miterlimit="10"/><path d="M220.629 157.713c2.736 0 4.996 2.26 4.996 4.996a4.992 4.992 0 01-4.996 4.996c-2.736 0-4.996-2.26-4.996-4.996 0-2.736 2.26-4.996 4.996-4.996zm0 .269a4.743 4.743 0 00-4.68 4.056h-.048v1.342h.048a4.743 4.743 0 004.68 4.057 4.74 4.74 0 004.727-4.728 4.74 4.74 0 00-4.727-4.727zm-54.245-14.773h-.001l.001.011c.053 2.357 1.771 4.34 4.056 4.669v.048h1.342v-.048c2.286-.328 4.057-2.306 4.057-4.68a4.741 4.741 0 00-4.728-4.728 4.74 4.74 0 00-4.727 4.728zm4.727-4.996c2.736 0 4.996 2.26 4.996 4.996 0 2.736-2.26 4.996-4.996 4.996-2.736 0-4.996-2.26-4.996-4.996 0-2.736 2.26-4.996 4.996-4.996z" fill="#9D90D0" stroke="#9D90D0"/><path d="M9.723 163.449h35.511" stroke="#9D90D0" stroke-miterlimit="10"/><path d="M10.492 163.449c0 2.736-2.26 4.996-4.996 4.996A4.992 4.992 0 01.5 163.449c0-2.736 2.26-4.996 4.996-4.996 2.736 0 4.996 2.26 4.996 4.996zm-.269.053a4.743 4.743 0 00-4.056-4.68v-.048h0-.001 0-.001 0-.001 0-.001 0-.001 0-.001 0-.002 0-.002 0-.002 0-.002 0-.002 0-.001 0-.002 0-.002 0-.002 0-.003 0-.002 0-.003 0-.002 0-.003 0-.002 0-.003 0-.004 0-.003 0-.003 0-.003 0-.015 0-.004 0-.017 0-.004 0-.004 0-.011 0-.004 0-.016 0-.005 0-.012 0-.005 0-.02 0-.018 0-.036 0-.015 0-.039 0-.017 0-.017 0-.019 0-.019 0-.048 0-.031 0-.066 0-.046 0-.014 0-.061 0-.028 0-.012 0-.028 0-.012 0-.102 0-.047 0-.066 0-.031 0-.05 0-.019 0-.017 0-.017 0-.017 0-.016 0-.023 0-.016 0-.035 0-.019 0-.018 0-.019 0-.005 0-.016 0-.004 0-.015 0-.004 0-.004 0-.013 0-.004 0-.015 0-.003 0-.003 0-.012 0-.003 0-.002 0-.002 0-.003 0-.002 0-.002 0-.002 0-.003 0-.001 0-.002 0-.002 0-.001 0-.002 0-.002 0-.001 0-.001 0-.001 0-.001 0-.001 0-.001 0-.001 0v.047a4.702 4.702 0 00-4.057 4.681 4.74 4.74 0 004.728 4.728 4.74 4.74 0 004.727-4.728zm44.183-.053h0v.008c.048 2.774-2.2 4.987-4.996 4.987-2.736 0-4.996-2.259-4.996-4.995 0-2.737 2.26-4.996 4.996-4.996 2.736 0 4.996 2.259 4.996 4.996zm-5.667-4.675h0v.048c-2.286.328-4.057 2.306-4.057 4.679a4.74 4.74 0 004.728 4.728 4.74 4.74 0 004.728-4.728 4.702 4.702 0 00-4.057-4.681v-.046h0-.001 0-.001 0-.001 0-.001 0-.001 0-.001 0-.002 0-.001 0-.002 0-.001 0-.002 0-.002 0-.001 0-.002 0-.002 0-.002 0-.003 0-.002 0-.003 0-.002 0-.003 0-.002 0-.007 0-.003 0-.003 0-.003 0-.003 0-.012 0-.004 0-.003 0-.015 0-.004 0-.004 0-.011 0-.004 0-.016 0-.005 0-.012 0-.005 0-.019 0-.018 0-.036 0-.037 0-.017 0-.017 0-.017 0-.018 0-.02 0-.048 0-.031 0-.066 0-.046 0-.014 0-.062 0-.013 0-.014 0-.014 0-.027 0-.012 0-.013 0-.089 0-.047 0-.066 0-.031 0-.048 0-.019 0-.017 0-.019 0-.017 0-.016 0-.023 0-.015 0-.036 0-.018 0-.019 0-.018 0-.005 0-.016 0-.004 0-.015 0-.004 0-.004 0-.013 0-.004 0-.015 0-.003 0-.003 0-.011 0-.003 0-.002 0-.002 0-.005 0-.002 0-.002 0-.003 0-.001 0-.002 0-.002 0-.001 0-.002 0-.002 0-.001 0-.001 0-.001 0-.001 0-.001 0-.001 0-.001 0z" fill="#9D90D0" stroke="#9D90D0"/><path d="M52.316 129.575h34.191" stroke="#9D90D0" stroke-miterlimit="10"/><path d="M51.816 129.575c0 2.736-2.26 4.996-4.996 4.996a4.992 4.992 0 01-4.996-4.996c0-2.736 2.26-4.996 4.996-4.996 2.736 0 4.996 2.26 4.996 4.996zm-.268 0c0-2.373-1.77-4.351-4.057-4.68v-.047h0-.001 0-.001 0-.001 0-.001 0-.002 0-.002 0-.001 0-.002 0-.001 0-.002 0-.001 0-.002 0-.002 0-.002 0-.003 0-.002 0-.002 0-.003 0-.002 0-.002 0-.003 0-.007 0-.003 0-.003 0-.003 0-.003 0-.012 0-.004 0-.003 0-.015 0-.004 0-.013 0-.005 0-.016 0-.005 0-.012 0-.005 0-.02 0-.018 0-.014 0-.021 0-.038 0-.017 0-.017 0-.017 0-.018 0-.018 0-.019 0-.031 0-.052 0-.012 0-.034 0-.046 0-.013 0-.062 0-.013 0-.014 0-.012 0-.028 0-.012 0-.014 0-.089 0-.047 0-.096 0-.049 0-.019 0-.018 0-.018 0-.017 0-.016 0-.023 0-.015 0-.015 0-.006 0-.014 0-.02 0-.018 0-.023 0-.015 0-.005 0-.015 0-.004 0-.012 0-.004 0-.004 0-.003 0-.005 0-.003 0-.004 0-.003 0-.003 0-.012 0-.003 0-.002 0-.002 0-.01 0-.001 0-.002 0-.002 0-.002 0-.001 0-.001 0-.002 0-.001 0-.001 0-.001 0-.001 0-.001 0-.001 0-.001 0-.001 0v.047c-2.286.329-4.056 2.307-4.056 4.68a4.74 4.74 0 004.727 4.728 4.74 4.74 0 004.728-4.728zm39.19 4.996c-2.736 0-4.996-2.26-4.996-4.996 0-2.736 2.26-4.995 4.996-4.995 2.736 0 4.996 2.259 4.996 4.995s-2.26 4.996-4.996 4.996zm-.671-9.723h0v.048c-2.286.328-4.056 2.306-4.056 4.679a4.74 4.74 0 004.727 4.728 4.74 4.74 0 004.728-4.728c0-2.373-1.77-4.351-4.057-4.679v-.048h0-.001 0-.001 0-.001 0-.001 0-.001 0-.001 0-.002 0-.001 0-.002 0-.001 0-.002 0-.001 0-.002 0-.002 0-.002 0-.002 0-.003 0-.002 0-.003 0-.002 0-.002 0-.003 0-.007 0-.003 0-.003 0-.003 0-.003 0-.012 0-.004 0-.003 0-.015 0-.004 0-.019 0-.016 0-.005 0-.012 0-.005 0-.019 0-.018 0-.014 0-.021 0-.038 0-.017 0-.017 0-.017 0-.019 0-.017 0-.02 0-.03 0-.031 0-.032 0-.034 0-.046 0-.014 0-.062 0-.013 0-.014 0-.012 0-.027 0-.014 0-.013 0-.088 0-.047 0-.097 0-.049 0-.02 0-.017 0-.018 0-.017 0-.016 0-.038 0-.015 0-.006 0-.034 0-.017 0-.023 0-.017 0-.004 0-.015 0-.004 0-.004 0-.009 0-.004 0-.004 0-.003 0-.008 0-.004 0-.003 0-.014 0-.003 0-.002 0-.002 0-.005 0-.003 0-.003 0-.002 0-.002 0-.002 0-.001 0-.001 0-.002 0-.001 0-.001 0-.001 0-.001 0-.001 0-.001 0-.001 0-.001 0z" fill="#9D90D0" stroke="#9D90D0"/><path d="M200.07 192.407h35.512" stroke="#9D90D0" stroke-miterlimit="10"/><path d="M191.116 192.449h0v.011a4.74 4.74 0 004.728 4.728 4.74 4.74 0 004.727-4.728 4.743 4.743 0 00-4.056-4.68v-.048h0-.001 0-.001 0-.001 0-.001 0-.001 0-.001 0-.001 0-.002 0-.001 0-.001 0-.002 0-.001 0-.002 0-.002 0-.011 0-.002 0-.003 0-.002 0-.016 0-.003 0-.003 0-.015 0-.004 0-.032 0-.021 0-.022 0-.018 0-.034 0-.021 0-.038 0-.017 0-.034 0-.018 0-.018 0-.049 0-.097 0-.047 0-.088 0-.027 0-.027 0-.027 0-.088 0-.047 0-.097 0-.049 0-.018 0-.018 0-.034 0-.017 0-.038 0-.021 0-.014 0-.038 0-.022 0-.053 0-.004 0-.015 0-.003 0-.003 0-.016 0-.002 0-.003 0-.002 0-.011 0-.002 0-.002 0-.001 0-.002 0-.001 0-.001 0-.002 0-.001 0-.001 0-.001 0-.001 0-.001 0-.001 0-.001 0v.047c-2.281.321-4.002 2.262-4.056 4.67zm9.723.011c0 2.736-2.259 4.996-4.995 4.996s-4.996-2.26-4.996-4.996c0-2.736 2.26-4.996 4.996-4.996 2.736 0 4.995 2.26 4.995 4.996zm43.699 0h0v-.011c-.054-2.408-1.775-4.348-4.056-4.67v-.046h0-.001 0-.001 0-.001 0-.001 0-.001 0-.001 0-.001 0-.002 0-.001 0-.003 0-.003 0-.002 0-.009 0-.002 0-.005 0-.005 0-.013 0-.003 0-.015 0-.003 0-.041 0-.016 0-.017 0-.005 0-.038 0-.035 0-.055 0-.017 0-.017 0-.018 0-.018 0-.146 0-.047 0-.115 0-.027 0-.014 0-.101 0-.047 0-.097 0-.049 0-.018 0-.018 0-.035 0-.016 0-.038 0-.055 0-.018 0-.043 0-.015 0-.004 0-.017 0-.037 0-.002 0-.003 0-.002 0-.013 0-.002 0-.001 0-.002 0-.001 0-.003 0-.001 0-.001 0-.001 0-.001 0-.001 0-.001 0-.001 0v.047c-2.286.329-4.056 2.307-4.056 4.68a4.74 4.74 0 004.727 4.728 4.74 4.74 0 004.728-4.728zm-4.728 4.996c-2.736 0-4.996-2.26-4.996-4.996 0-2.736 2.26-4.996 4.996-4.996 2.736 0 4.996 2.26 4.996 4.996 0 2.736-2.26 4.996-4.996 4.996z" fill="#9D90D0" stroke="#9D90D0"/><path d="M223.584 56.544l15.853-15.854" stroke="#9D90D0" stroke-miterlimit="10"/><path d="M224.131 56h0l.005.004c1.963 1.915 1.969 5.083-.005 7.056-1.916 1.916-5.09 1.923-7.065-.004-1.963-1.915-1.969-5.083.004-7.057h0l.005-.004c1.915-1.963 5.083-1.97 7.056.004zm-6.875 6.864h0l.006.005c1.833 1.834 4.845 1.834 6.678 0 1.834-1.833 1.834-4.845 0-6.678-1.66-1.66-4.287-1.818-6.13-.47a.95.95 0 00-.075-.003h-.001 0l-.004.005-.008.007-.057.057-.403.404h-.001l-.403.403-.057.057-.007.007-.005.005h0l.002.075c-1.348 1.837-1.186 4.421.465 6.126zm22.543-22.522h0l-.004-.005c-1.974-1.974-1.968-5.141-.004-7.056h0l.004-.005c1.974-1.974 5.142-1.967 7.057-.004h0l.004.004c1.919 1.919 1.919 5.143 0 7.061-1.974 1.974-5.142 1.968-7.057.005zm6.866-6.875h0l-.006-.005c-1.704-1.651-4.289-1.814-6.126-.465a.957.957 0 00-.074-.002h0l-.005.005-.007.007-.058.057-.403.403-.403.404-.058.057-.007.007-.004.005h0-.001 0a.91.91 0 00.003.076c-1.347 1.843-1.19 4.47.47 6.13 1.834 1.833 4.845 1.833 6.679 0 1.833-1.834 1.833-4.845 0-6.679z" fill="#9D90D0" stroke="#9D90D0"/><path d="M74.195 143.263H27.481v-28.378l19.288-23.304" stroke="#9D90D0" stroke-miterlimit="10"/><mask id="path-72-inside-3_206_4527" fill="#fff"><path d="M78.424 137.714c-3.013 0-5.496 2.484-5.496 5.496 0 3.012 2.483 5.496 5.496 5.496 3.012 0 5.495-2.484 5.495-5.496 0-3.012-2.483-5.496-5.495-5.496 3.012 0-3.065 0 0 0zm0 9.723a4.24 4.24 0 01-4.228-4.227 4.24 4.24 0 014.228-4.228 4.24 4.24 0 014.227 4.228 4.24 4.24 0 01-4.227 4.227c2.325 0-2.326 0 0 0z"/></mask><path d="M78.424 137.714c-3.013 0-5.496 2.484-5.496 5.496 0 3.012 2.483 5.496 5.496 5.496 3.012 0 5.495-2.484 5.495-5.496 0-3.012-2.483-5.496-5.495-5.496 3.012 0-3.065 0 0 0zm0 9.723a4.24 4.24 0 01-4.228-4.227 4.24 4.24 0 014.228-4.228 4.24 4.24 0 014.227 4.228 4.24 4.24 0 01-4.227 4.227c2.325 0-2.326 0 0 0z" fill="#9D90D0"/><path d="M78.424 136.714c-3.565 0-6.496 2.931-6.496 6.496h2c0-2.46 2.036-4.496 4.496-4.496v-2zm-6.496 6.496c0 3.564 2.931 6.496 6.496 6.496v-2c-2.46 0-4.496-2.036-4.496-4.496h-2zm6.496 6.496c3.564 0 6.495-2.932 6.495-6.496h-2c0 2.46-2.035 4.496-4.495 4.496v2zm6.495-6.496c0-3.565-2.931-6.496-6.495-6.496v2c2.46 0 4.495 2.036 4.495 4.496h2zm-6.495-6.496h-.89v2h1.754v-2h-.864v2h.863v-2h-1.753v2h.891v-2zm0 9.723a3.24 3.24 0 01-3.228-3.227h-2a5.24 5.24 0 005.228 5.227v-2zm-3.228-3.227a3.24 3.24 0 013.228-3.228v-2a5.24 5.24 0 00-5.228 5.228h2zm3.228-3.228a3.24 3.24 0 013.227 3.228h2a5.24 5.24 0 00-5.227-5.228v2zm3.227 3.228a3.24 3.24 0 01-3.227 3.227v2a5.24 5.24 0 005.227-5.227h-2zm-3.227 3.227h-.671v2h1.342v-2h-.671v2h.67v-2h-1.341v2h.672v-2z" fill="#9D90D0" mask="url(#path-72-inside-3_206_4527)"/><path d="M377.26 88.146l-35.407-1.586v35.459L326 131.848" stroke="#9D90D0" stroke-miterlimit="10"/><path d="M376.761 88.123a4.695 4.695 0 003.703 4.806.617.617 0 00.037.056.98.98 0 00.083.014l.009.001h.014l.089.005.546.026h.011s0 0 0 0h.002l.573.026.096.004h.013l.003.001h.009a.979.979 0 00.106-.01.71.71 0 00.043-.057c2.218-.296 4.009-2.136 4.064-4.463a4.699 4.699 0 00-4.493-4.902 4.698 4.698 0 00-4.908 4.493zm-.27-.057c.136-2.578 2.23-4.641 4.749-4.76a113.115 113.115 0 00.888.039c2.548.341 4.493 2.602 4.356 5.197-.144 2.742-2.504 4.902-5.234 4.759-2.743-.145-4.903-2.504-4.759-5.235zm-58.841 48.96c-1.387-2.219-.767-5.203 1.341-6.705l.262-.161.24-.149c2.319-1.238 5.223-.485 6.609 1.73 1.441 2.358.717 5.431-1.582 6.869-2.358 1.442-5.432.717-6.87-1.584zm8.248-5.12h0l-.003-.005c-1.361-2.188-4.255-2.894-6.497-1.537h0l-.005.003c-2.188 1.36-2.895 4.254-1.538 6.496h0l.005.008c1.234 1.953 3.596 2.701 5.633 1.955a.955.955 0 00.167-.012 1.252 1.252 0 00.078-.027l.014-.006.006-.003.01-.005.009-.005.011-.006.017-.01.037-.022.05-.03.134-.081.351-.215.349-.214.131-.081.047-.03.036-.023.017-.011.013-.009.013-.01.01-.008.016-.013.03-.029a.843.843 0 00.07-.089.36.36 0 00.023-.083 4.761 4.761 0 00.766-5.898z" fill="#9D90D0" stroke="#9D90D0"/><path d="M349.359 147.226h-42.593" stroke="#9D90D0" stroke-miterlimit="10"/><path d="M348.59 147.225c0-2.736 2.26-4.996 4.996-4.996a4.992 4.992 0 014.996 4.996c0 2.736-2.26 4.996-4.996 4.996-2.736 0-4.996-2.26-4.996-4.996zm.268-.052c0 2.373 1.77 4.351 4.057 4.679v.048h1.342v-.047a4.7 4.7 0 004.056-4.68 4.74 4.74 0 00-4.727-4.728 4.74 4.74 0 00-4.728 4.728z" fill="#9D90D0" stroke="#9D90D0"/><path d="M261.27 25.895h30.174l41.06 34.983h21.297" stroke="#9D90D0" stroke-miterlimit="10"/><path d="M262.035 25.894c0 2.736-2.26 4.996-4.996 4.996-2.736 0-4.996-2.26-4.996-4.996 0-2.736 2.26-4.996 4.996-4.996 2.736 0 4.996 2.26 4.996 4.996zm-.269 0c0-2.373-1.77-4.351-4.056-4.68v-.047h0-.001 0-.001 0-.001 0-.001 0-.001 0-.001 0-.001 0-.001 0-.002 0-.001 0-.001 0-.002 0-.002 0-.015 0-.002 0-.003 0-.015 0-.022 0-.017 0-.004 0-.015 0-.061 0-.055 0-.054 0-.017 0-.018 0-.018 0-.018 0-.049 0-.097 0-.148 0-.014 0-.027 0-.013 0-.102 0-.211 0-.018 0-.017 0-.017 0-.055 0-.035 0-.019 0-.036 0-.005 0-.016 0-.019 0-.021 0-.004 0-.015 0-.003 0-.003 0-.015 0-.002 0-.003 0-.002 0-.007 0-.002 0-.002 0-.001 0-.002 0-.001 0-.002 0-.001 0-.001 0-.001 0-.002 0-.001 0-.001 0-.001 0-.001 0v.047c-2.287.329-4.057 2.307-4.057 4.68a4.74 4.74 0 004.728 4.728 4.74 4.74 0 004.727-4.728z" fill="#9D90D0" stroke="#9D90D0"/><path d="M385.135 109.283l15.272 17.122" stroke="#9D90D0" stroke-miterlimit="10"/><path d="M385.036 102.03h0l-.006-.006-.245-.269-.15-.164-.045-.048-.017-.018-.017-.017-.012-.012-.01-.009-.017-.015-.015-.011-.025-.019a.794.794 0 00-.054-.031.784.784 0 00-.115-.039 4.738 4.738 0 00-5.949.243h0l-.006.005c-1.942 1.766-2.125 4.719-.409 6.672h-.001l.006.006c1.759 1.934 4.716 2.187 6.678.404 1.701-1.547 2.052-4.004.961-5.903a.58.58 0 00-.012-.08.638.638 0 00-.047-.107l-.011-.019-.008-.012-.011-.015-.012-.016-.008-.011-.007-.009-.016-.018-.042-.049-.142-.164-.236-.269zm-7.293 6.446a5.011 5.011 0 01.432-7.062 5.011 5.011 0 017.062.432 5.011 5.011 0 01-.432 7.062c-2.066 1.826-5.238 1.633-7.062-.432zm28.242 17.307a4.762 4.762 0 00-5.96.246c-1.954 1.717-2.128 4.729-.416 6.677 1.717 1.954 4.729 2.128 6.678.416h0l.006-.006c1.694-1.54 2.053-4.032.967-5.906a.646.646 0 00-.018-.113 1.189 1.189 0 00-.029-.07l-.017-.03-.011-.018-.013-.018-.008-.011-.01-.012-.014-.017-.029-.034-.038-.043a34.96 34.96 0 00-.374-.422l-.27-.302-.103-.114-.038-.042a.779.779 0 01-.03-.032l-.007-.007-.009-.009-.006-.006-.008-.008-.014-.012-.012-.011-.02-.015-.04-.027a.94.94 0 00-.11-.049.198.198 0 00-.047-.005zm-6.524 7.108c-1.825-2.066-1.633-5.238.432-7.063 2.066-1.825 5.238-1.633 7.063.432 1.825 2.066 1.633 5.238-.432 7.063-2.066 1.825-5.238 1.633-7.063-.432z" fill="#9D90D0" stroke="#9D90D0"/><path d="M198.855 97.763l13-13 59.979 1.797 29.223 23.939h16.647" stroke="#9D90D0" stroke-miterlimit="10"/><path d="M199.399 97.218h0l.004.004c1.881 1.835 1.966 4.82.233 6.803a800.033 800.033 0 00-.487.482c-1.985 1.69-4.975 1.608-6.811-.228h0l-.004-.004c-1.964-1.916-1.97-5.083.004-7.057h0l.004-.005c1.915-1.963 5.083-1.969 7.057.005zm-6.875 6.864h0l.005.006c1.834 1.833 4.845 1.833 6.679 0 1.833-1.834 1.833-4.845 0-6.679-1.661-1.66-4.287-1.817-6.13-.47a.996.996 0 00-.076-.003h0-.001l-.004.005-.007.007-.058.058-.403.403-.403.403-.058.058-.007.007-.004.004h0-.001 0v.001c0 .026.001.05.003.074-1.349 1.837-1.187 4.422.465 6.126zm129.353 11.412c-2.736 0-4.996-2.26-4.996-4.996 0-2.736 2.26-4.996 4.996-4.996 2.736 0 4.996 2.26 4.996 4.996a4.992 4.992 0 01-4.996 4.996zm-.671-9.724h0v.048a4.743 4.743 0 00-4.057 4.68 4.74 4.74 0 004.728 4.728 4.74 4.74 0 004.727-4.728 4.743 4.743 0 00-4.056-4.68v-.048h0-.001 0-.001 0-.001 0-.001 0-.001 0-.001 0-.001 0-.003 0-.001 0-.002 0-.001 0-.002 0-.013 0-.002 0-.005 0-.015 0-.022 0-.017 0-.004 0-.015 0-.043 0-.018 0-.055 0-.038 0-.016 0-.017 0-.018 0-.018 0-.018 0-.049 0-.097 0-.047 0-.101 0-.014 0-.027 0-.102 0-.013 0-.047 0-.164 0-.018 0-.017 0-.017 0-.055 0-.035 0-.038 0-.022 0-.016 0-.044 0-.015 0-.003 0-.003 0-.01 0-.005 0-.005 0-.002 0-.007 0-.002 0-.002 0-.001 0-.002 0-.001 0-.002 0-.001 0-.001 0-.002 0-.001 0-.001 0-.001 0-.001 0-.001 0z" fill="#9D90D0" stroke="#9D90D0"/><path d="M301.798 62.41l-20.292-15.062" stroke="#9D90D0" stroke-miterlimit="10"/><path d="M309.497 66.877h0l.005-.008a4.73 4.73 0 00-1.182-6.562 4.73 4.73 0 00-6.562 1.183c-1.294 1.864-1.048 4.36.463 5.945a.39.39 0 00.065.116c.007.008.018.022.024.027l.015.016a.126.126 0 00.018.017l.011.01.014.011.019.016.02.015c.015.01.032.024.053.04l.179.13a21.371 21.371 0 00.302.219l.293.203.179.123.054.036.021.013.01.007.012.007.018.01.017.01.014.007.021.01.036.013a.942.942 0 00.077.019.588.588 0 00.076.002c2.005.862 4.39.217 5.728-1.635zm-7.976-5.554c1.588-2.263 4.713-2.835 6.966-1.253 2.255 1.583 2.788 4.707 1.25 6.97-1.589 2.26-4.712 2.83-6.964 1.248-2.262-1.588-2.834-4.712-1.252-6.965zm-27.586-19.236h0l.003-.004a4.965 4.965 0 016.963-1.248c2.262 1.588 2.834 4.713 1.252 6.966-1.588 2.262-4.712 2.834-6.966 1.252-2.262-1.588-2.834-4.713-1.252-6.966zm.686 6.046c.005.022.01.04.015.052a.804.804 0 00.081.124l.018.02.012.011.009.008.012.01.014.013.019.015.037.027.048.035.128.093.337.24a45.675 45.675 0 00.465.326l.047.032.02.014.019.012.009.006.012.008.008.004.011.007.019.01.016.008.025.01.048.017a.907.907 0 00.112.019.421.421 0 00.073-.01c2.002.83 4.398.185 5.681-1.663a4.729 4.729 0 00-1.182-6.562 4.73 4.73 0 00-6.562 1.182c-1.29 1.859-1.049 4.346.449 5.932zm.213.272l.001.001h0-.001z" fill="#9D90D0" stroke="#9D90D0"/><path d="M270.039 60.613l31.02 24.15h21.138" stroke="#9D90D0" stroke-miterlimit="10"/><path d="M270.686 61.065c-1.588 2.262-4.712 2.834-6.966 1.252-2.262-1.588-2.834-4.712-1.252-6.966 1.589-2.262 4.713-2.834 6.966-1.252 2.263 1.589 2.835 4.713 1.252 6.966zm-.237-.167c1.339-1.928 1.03-4.533-.622-6.106-.003-.024-.006-.049-.011-.074h0l-.006-.004-.008-.006-.067-.047-.468-.325-.468-.325-.067-.046-.008-.006-.005-.004h-.001 0l-.074.016c-2.05-.999-4.599-.38-5.939 1.548-1.478 2.129-.947 5.083 1.183 6.561 2.129 1.479 5.083.947 6.561-1.182zm55.973 28.86c-2.736 0-4.996-2.26-4.996-4.995 0-2.737 2.26-4.996 4.996-4.996 2.736 0 4.996 2.26 4.996 4.996a4.959 4.959 0 01-4.996 4.995zm-.672-9.67h0v.047c-2.286.329-4.056 2.307-4.056 4.68a4.74 4.74 0 004.728 4.728 4.74 4.74 0 004.727-4.728 4.702 4.702 0 00-4.056-4.68v-.047h0-.001 0-.001 0-.001 0-.001 0-.001 0-.001 0-.001 0-.003 0-.001 0-.002 0-.001 0-.002 0-.013 0-.002 0-.003 0-.002 0-.037 0-.017 0-.019 0-.043 0-.018 0-.055 0-.038 0-.051 0-.018 0-.018 0-.049 0-.097 0-.047 0-.088 0-.013 0-.014 0-.027 0-.027 0-.088 0-.047 0-.097 0-.049 0-.018 0-.018 0-.017 0-.017 0-.017 0-.038 0-.035 0-.038 0-.022 0-.016 0-.037 0-.004 0-.003 0-.012 0-.003 0-.003 0-.013 0-.005 0-.005 0-.002 0-.009 0-.002 0-.003 0-.003 0-.001 0-.002 0-.001 0-.001 0-.001 0-.001 0-.001 0-.001 0-.001 0z" fill="#9D90D0" stroke="#9D90D0"/><path d="M380.378 184.852h-77.841v19.922l16.223 14.48" stroke="#9D90D0" stroke-miterlimit="10"/><mask id="path-94-inside-4_206_4527" fill="#fff"><path d="M384.605 179.356c-3.012 0-5.496 2.484-5.496 5.496 0 3.012 2.484 5.496 5.496 5.496 3.012 0 5.496-2.484 5.496-5.496 0-3.012-2.484-5.496-5.496-5.496 3.012 0-3.065 0 0 0zm0 9.724a4.24 4.24 0 01-4.227-4.228 4.24 4.24 0 014.227-4.228 4.24 4.24 0 014.228 4.228c-.053 2.325-1.903 4.228-4.228 4.228 2.325 0-2.325 0 0 0z"/></mask><path d="M384.605 179.356c-3.012 0-5.496 2.484-5.496 5.496 0 3.012 2.484 5.496 5.496 5.496 3.012 0 5.496-2.484 5.496-5.496 0-3.012-2.484-5.496-5.496-5.496 3.012 0-3.065 0 0 0zm0 9.724a4.24 4.24 0 01-4.227-4.228 4.24 4.24 0 014.227-4.228 4.24 4.24 0 014.228 4.228c-.053 2.325-1.903 4.228-4.228 4.228 2.325 0-2.325 0 0 0z" fill="#9D90D0"/><path d="M388.833 184.852l1 .023v-.023h-1zm-4.228-6.496c-3.564 0-6.496 2.932-6.496 6.496h2c0-2.46 2.036-4.496 4.496-4.496v-2zm-6.496 6.496c0 3.565 2.932 6.496 6.496 6.496v-2c-2.46 0-4.496-2.036-4.496-4.496h-2zm6.496 6.496c3.565 0 6.496-2.931 6.496-6.496h-2c0 2.46-2.036 4.496-4.496 4.496v2zm6.496-6.496c0-3.564-2.931-6.496-6.496-6.496v2c2.46 0 4.496 2.036 4.496 4.496h2zm-6.496-6.496h-.89v2h1.754v-2h-.864v2h.864v-2h-1.754v2h.89v-2zm0 9.724a3.24 3.24 0 01-3.227-3.228h-2a5.24 5.24 0 005.227 5.228v-2zm-3.227-3.228a3.24 3.24 0 013.227-3.228v-2a5.24 5.24 0 00-5.227 5.228h2zm3.227-3.228a3.24 3.24 0 013.228 3.228h2a5.24 5.24 0 00-5.228-5.228v2zm3.228 3.205c-.041 1.812-1.475 3.251-3.228 3.251v2c2.898 0 5.163-2.366 5.228-5.205l-2-.046zm-3.228 3.251h-.671v2h1.342v-2h-.671v2h.671v-2h-1.342v2h.671v-2z" fill="#9D90D0" mask="url(#path-94-inside-4_206_4527)"/><path d="M318.177 218.744h0l.005-.004a4.96 4.96 0 017.057-.384h0l.005.004a4.962 4.962 0 01.384 7.058l-.001.001c-1.824 2.016-4.999 2.21-7.066.383a4.962 4.962 0 01-.384-7.058zm.164.168l-.006.006-.005.006c-1.715 1.951-1.533 4.901.351 6.666l.005.006.006.005c1.952 1.715 4.901 1.533 6.667-.351l.005-.005.005-.006c1.534-1.738 1.606-4.205.31-5.949a.972.972 0 00-.027-.099l-.024-.051-.018-.031a.288.288 0 00-.031-.045c-.005-.006-.009-.012-.013-.015l-.009-.011-.013-.014-.01-.011-.018-.019-.019-.018-.044-.042a32.635 32.635 0 00-.727-.663l-.119-.105a4.184 4.184 0 00-.046-.04l-.02-.017-.021-.016-.011-.01a.404.404 0 00-.016-.011l-.011-.008a.158.158 0 00-.016-.01l-.025-.016-.021-.011-.03-.014a12.481 12.481 0 00-.05-.018 1.075 1.075 0 00-.093-.019c-.015-.001-.039 0-.067.001-1.888-1.052-4.309-.698-5.839.935z" fill="#9D90D0" stroke="#9D90D0"/><path d="M134.119 21.032h-33.873L68.75 52.526l8.56 31.707" stroke="#9D90D0" stroke-miterlimit="10"/><path d="M133.35 20.979c0-2.736 2.259-4.996 4.995-4.996a4.992 4.992 0 014.996 4.995c0 2.736-2.259 4.996-4.996 4.996-2.736 0-4.995-2.26-4.995-4.995zm.268 0a4.743 4.743 0 004.056 4.68v.047h1.343v-.047a4.702 4.702 0 004.056-4.68 4.74 4.74 0 00-4.728-4.728 4.74 4.74 0 00-4.727 4.727zM73.565 89.6h0v-.002c-.72-2.641.868-5.43 3.507-6.15 2.64-.72 5.43.867 6.15 3.506.72 2.641-.868 5.43-3.507 6.15h0l-.006.002c-2.686.768-5.422-.812-6.144-3.506zm6.102 3.305c2.17-.62 3.57-2.682 3.452-4.85a.891.891 0 00.03-.14c.002-.016.002-.043.002-.053l-.002-.028-.002-.017a.432.432 0 00-.003-.02l-.002-.013-.002-.008-.002-.013-.003-.012-.005-.023-.015-.06a30.618 30.618 0 00-.304-1.123l-.019-.063-.007-.024-.007-.022-.005-.014-.004-.01a.517.517 0 00-.006-.018l-.006-.013-.01-.02a.873.873 0 00-.072-.107.378.378 0 00-.042-.036 4.704 4.704 0 00-5.454-2.415c-2.484.653-4.018 3.252-3.311 5.793.653 2.485 3.254 4.02 5.796 3.31h.003z" fill="#9D90D0" stroke="#9D90D0"/><path d="M108.754 95.12l39.369-28.958h47.719l26.317-26.211" stroke="#9D90D0" stroke-miterlimit="10"/><path d="M107.966 101.948c-2.221 1.321-5.088.772-6.628-1.309-1.636-2.264-1.151-5.385 1.054-7.017 2.263-1.636 5.385-1.151 7.017 1.054 1.531 2.119 1.204 4.99-.653 6.686-.125.091-.275.202-.424.313l-.366.273zm-5.375-8.127h0l-.001.002-.472.354-.051.038-.03.023-.006.005-.008.006-.009.007-.008.007a.793.793 0 00-.088.1.255.255 0 00-.014.08c-1.506 1.65-1.671 4.117-.314 5.943 1.534 2.066 4.488 2.545 6.565 1.002 2.066-1.534 2.545-4.488 1.002-6.565-1.363-1.835-3.846-2.418-5.84-1.444a.23.23 0 00-.099-.006 1.176 1.176 0 00-.055.028l-.016.01-.008.005-.004.003-.006.004-.007.005-.013.01-.016.011-.048.035-.454.337zm-.544.41s0 0 0 0h0zm120.188-60.959c-.005-.044-.005-.071-.005-.072l.473-.473c.15-.15.309-.289.474-.415m-.942.96c-1.35 1.843-1.194 4.472.468 6.134 1.833 1.833 4.845 1.833 6.678 0 1.834-1.834 1.834-4.845 0-6.679-1.661-1.661-4.29-1.817-6.133-.467-.045-.006-.072-.006-.072-.006h0l.001.058m-.942.96c.015.118.068.354.262.502a4.18 4.18 0 01.259-.36m.421-1.102a.638.638 0 00.213.469l-.213-.469zm6.4 7.28h0l-.004.005c-1.969 1.968-5.14 1.922-7.061 0-1.969-1.968-1.922-5.14 0-7.061 1.968-1.968 5.139-1.922 7.061 0 1.973 1.974 1.967 5.142.004 7.057z" fill="#9D90D0" stroke="#9D90D0"/><path d="M200.967 29.858l-13 13.528h-49.622l-25.101 20.768" stroke="#9D90D0" stroke-miterlimit="10"/><path d="M201.168 22.439h0l.004-.004a4.956 4.956 0 017.057-.146h0l.005.004a4.956 4.956 0 01.145 7.057h0l-.004.005a4.956 4.956 0 01-7.057.145h0l-.004-.004a4.956 4.956 0 01-.146-7.057zm.354 6.83c1.65 1.595 4.16 1.756 5.954.504a.841.841 0 00.102-.034.768.768 0 00.052-.029l.025-.017.015-.011c.007-.006.013-.01.016-.014l.01-.008.012-.011.017-.017.018-.017.046-.046a31.727 31.727 0 00.414-.426l.245-.261.147-.159.043-.047.016-.018.007-.009.009-.01.012-.015a.126.126 0 00.011-.014l.008-.012.012-.018a.33.33 0 00.019-.032l.032-.073a.513.513 0 00.014-.08 4.798 4.798 0 00-.691-5.919h0l-.006-.006c-1.887-1.827-4.901-1.776-6.681.12-1.825 1.887-1.773 4.9.122 6.679zm-94.725 33.739h.001l.09-.075c2.105-1.69 5.217-1.344 6.978.75 1.77 2.105 1.443 5.279-.679 7.064-2.104 1.769-5.275 1.444-7.06-.674-1.734-2.173-1.434-5.344.67-7.064zm.263.179a4.7 4.7 0 00-.651 6.62c1.505 1.878 4.077 2.242 6.037 1.067.042.01.069.012.069.012h.001l.004-.005.008-.006.063-.052.443-.364.442-.365.063-.052.008-.006.005-.004h0s.003-.028.002-.072a4.696 4.696 0 00.129-6.124 4.7 4.7 0 00-6.623-.65z" fill="#9D90D0" stroke="#9D90D0"/><path d="M90.258 55.276L107.01 39" stroke="#9D90D0" stroke-miterlimit="10"/><path d="M90.666 54.925c-1.656-1.707-4.288-1.922-6.138-.574a.248.248 0 00-.06-.002l-.006.005-.002.002-.003.003-.002.002-.063.061-.3.29-.105.101-.415.403-.07.068-.006.005-.001.002-.003.003-.01.009c-.008.01-.011.045-.006.095-1.36 1.84-1.199 4.442.397 6.09v.001c1.825 1.884 4.839 1.954 6.682.114 1.88-1.825 1.95-4.836.111-6.678zm.087 6.862c-1.968 1.92-5.139 1.874-7.061-.097-1.92-1.967-1.873-5.139.097-7.06 1.968-1.92 5.139-1.874 7.061.096 1.92 1.968 1.873 5.14-.097 7.061zm22.727-22.145h0l-.004.004c-1.968 1.92-5.139 1.873-7.061-.097-1.92-1.968-1.874-5.139.097-7.06 1.967-1.92 5.139-1.874 7.061.096h0l.004.005a4.908 4.908 0 01-.097 7.052zm-6.761-6.978l-.006.005-.006.006-.253.255a8.98 8.98 0 00-.202.207l-.019.021-.01.012-.013.015-.008.01-.011.014-.016.023-.011.018-.014.026a.61.61 0 00-.043.115.363.363 0 00-.003.02 4.79 4.79 0 00.486 5.931l.006.006.006.006a4.792 4.792 0 006.667.117l.005-.006.006-.006a4.792 4.792 0 00.117-6.667h0l-.006-.006c-1.606-1.658-4.068-1.859-5.92-.702a.899.899 0 00-.135.042l-.026.014-.017.01a.239.239 0 00-.023.015l-.015.01-.01.008a.4.4 0 00-.015.012l-.012.01-.022.019-.052.045-.162.15-.263.245z" fill="#9D90D0" stroke="#9D90D0"/><path d="M180.253 90.946l-32.394 25.736" stroke="#9D90D0" stroke-miterlimit="10"/><path d="M186.484 92.024h0l.007-.005.277-.23.17-.143.052-.045.021-.02.012-.01.013-.013.01-.01a.479.479 0 01.03-.035l.013-.017.018-.025.024-.042c.007-.016.024-.055.031-.077a.178.178 0 00.003-.01c1.384-1.694 1.488-4.17.088-5.936-1.603-2.075-4.614-2.363-6.62-.773-2.076 1.604-2.363 4.615-.773 6.621 1.403 1.816 3.883 2.263 5.825 1.282a.322.322 0 00.089-.017.65.65 0 00.065-.024l.017-.008a.242.242 0 00.038-.02l.011-.007.016-.01.013-.01.023-.016.056-.04a16.143 16.143 0 00.365-.278l.106-.082zm-6.894-.595c-1.682-2.165-1.343-5.287.818-7.015 2.16-1.729 5.33-1.343 7.008.814 1.684 2.165 1.346 5.287-.813 7.016-2.164 1.681-5.284 1.343-7.013-.815zm-31.124 24.767h0l.004.005c1.728 2.16 1.343 5.33-.815 7.008h0l-.005.004c-2.161 1.729-5.33 1.343-7.009-.814l.001-.001-.008-.009c-1.644-2.009-1.375-4.997.549-6.773l.272-.213.343-.272c2.142-1.434 5.076-.982 6.668 1.065zm-7.606 6.029c1.433 1.791 3.861 2.302 5.8 1.306a.854.854 0 00.118-.013.995.995 0 00.079-.027l.02-.009.026-.014a.099.099 0 00.015-.009l.012-.007.016-.01.012-.009.021-.015.022-.016a6.91 6.91 0 00.174-.134l.326-.257a42.945 42.945 0 00.446-.361l.047-.039.02-.017.019-.018.011-.01.014-.014.01-.009.013-.015.02-.024a.39.39 0 00.063-.103.934.934 0 00.034-.102l.003-.022c1.351-1.673 1.432-4.163.047-5.907-1.597-2.011-4.607-2.367-6.621-.767-2.012 1.597-2.367 4.607-.768 6.621l.001.001z" fill="#9D90D0" stroke="#9D90D0"/><path d="M353.586 225.224v40.797" stroke="#9D90D0" stroke-miterlimit="10"/><path d="M353.586 226.151c-2.736 0-4.996-2.26-4.996-4.996 0-2.736 2.26-4.996 4.996-4.996 2.736 0 4.996 2.26 4.996 4.996 0 2.736-2.26 4.996-4.996 4.996zm0-.268c2.373 0 4.351-1.77 4.68-4.056h.047v-.001 0-.001 0-.001 0-.001 0-.001 0-.001 0-.002 0-.001 0-.001 0-.003 0-.003 0-.002 0-.009 0-.002 0-.005 0-.005 0-.013 0-.003 0-.015 0-.044 0-.016 0-.017 0-.005 0-.038 0-.035 0-.055 0-.017 0-.017 0-.018 0-.164 0-.047 0-.115 0-.027 0-.014 0-.101 0-.047 0-.097 0-.049 0-.018 0-.018 0-.018 0-.017 0-.016 0-.038 0-.055 0-.018 0-.043 0-.015 0-.004 0-.017 0-.037 0-.005 0-.002 0-.013 0-.002 0-.001 0-.002 0-.001 0-.003 0-.001 0-.001 0-.001 0-.001 0-.001 0-.001 0-.001 0h-.047c-.329-2.286-2.307-4.056-4.68-4.056a4.74 4.74 0 00-4.728 4.727 4.74 4.74 0 004.728 4.728z" fill="#9D90D0" stroke="#9D90D0"/><mask id="path-114-inside-5_206_4527" fill="#fff"><path d="M348.09 270.776c0-3.012 2.484-5.496 5.496-5.496 3.012 0 5.496 2.484 5.496 5.496 0 3.012-2.484 5.496-5.496 5.496-3.012 0-5.496-2.484-5.496-5.496 0 3.012 0-3.065 0 0zm9.723 0a4.24 4.24 0 00-4.227-4.227 4.24 4.24 0 00-4.228 4.227 4.24 4.24 0 004.228 4.228 4.24 4.24 0 004.227-4.228c0 2.325 0-2.325 0 0z"/></mask><path d="M348.09 270.776c0-3.012 2.484-5.496 5.496-5.496 3.012 0 5.496 2.484 5.496 5.496 0 3.012-2.484 5.496-5.496 5.496-3.012 0-5.496-2.484-5.496-5.496 0 3.012 0-3.065 0 0zm9.723 0a4.24 4.24 0 00-4.227-4.227 4.24 4.24 0 00-4.228 4.227 4.24 4.24 0 004.228 4.228 4.24 4.24 0 004.227-4.228c0 2.325 0-2.325 0 0z" fill="#9D90D0"/><path d="M349.09 270.776c0-2.46 2.036-4.496 4.496-4.496v-2c-3.565 0-6.496 2.932-6.496 6.496h2zm4.496-4.496c2.46 0 4.496 2.036 4.496 4.496h2c0-3.564-2.932-6.496-6.496-6.496v2zm4.496 4.496c0 2.46-2.036 4.496-4.496 4.496v2c3.564 0 6.496-2.931 6.496-6.496h-2zm-4.496 4.496c-2.46 0-4.496-2.036-4.496-4.496h-2c0 3.565 2.931 6.496 6.496 6.496v-2zm-4.496-4.496v-.89h-2v1.754h2v-.864h-2v.864h2v-1.754h-2v.89h2zm9.723 0a5.24 5.24 0 00-5.227-5.227v2a3.239 3.239 0 013.227 3.227h2zm-5.227-5.227a5.24 5.24 0 00-5.228 5.227h2a3.24 3.24 0 013.228-3.227v-2zm-5.228 5.227a5.24 5.24 0 005.228 5.228v-2a3.24 3.24 0 01-3.228-3.228h-2zm5.228 5.228a5.24 5.24 0 005.227-5.228h-2a3.24 3.24 0 01-3.227 3.228v2zm5.227-5.228v-.671h-2v1.342h2v-.671h-2v.671h2v-1.342h-2v.671h2z" fill="#9D90D0" mask="url(#path-114-inside-5_206_4527)"/><path d="M369.07 225.225v40.796" stroke="#9D90D0" stroke-miterlimit="10"/><path d="M369.07 226.151c-2.736 0-4.996-2.259-4.996-4.995s2.26-4.996 4.996-4.996c2.736 0 4.996 2.26 4.996 4.996 0 2.736-2.26 4.995-4.996 4.995zm0-.268a4.743 4.743 0 004.68-4.056h.048v0-.001 0-.001 0-.001 0-.001 0-.001 0-.001 0-.003 0-.001 0-.001 0-.002 0-.001 0-.002 0-.013 0-.002 0-.003 0-.002 0-.019 0-.018 0-.004 0-.032 0-.021 0-.022 0-.018 0-.034 0-.021 0-.038 0-.017 0-.034 0-.018 0-.018 0-.049 0-.097 0-.047 0-.088 0-.027 0-.027 0-.027 0-.088 0-.047 0-.097 0-.049 0-.018 0-.018 0-.017 0-.017 0-.017 0-.038 0-.021 0-.014 0-.038 0-.022 0-.016 0-.037 0-.004 0-.015 0-.003 0-.003 0-.013 0-.005 0-.003 0-.002 0-.011 0-.002 0-.002 0-.001 0-.002 0-.001 0-.001 0-.002 0-.001 0-.001 0-.001 0-.001 0-.001 0-.001 0-.001 0h-.048a4.743 4.743 0 00-4.68-4.056 4.74 4.74 0 00-4.728 4.728 4.74 4.74 0 004.728 4.727z" fill="#9D90D0" stroke="#9D90D0"/><mask id="path-118-inside-6_206_4527" fill="#fff"><path d="M363.574 270.777c0-3.013 2.484-5.496 5.496-5.496 3.012 0 5.496 2.483 5.496 5.496 0 3.012-2.484 5.495-5.496 5.495-3.012 0-5.496-2.483-5.496-5.495 0 3.012 0-3.065 0 0zm9.724 0a4.24 4.24 0 00-4.228-4.228 4.24 4.24 0 00-4.228 4.228 4.24 4.24 0 004.228 4.227 4.24 4.24 0 004.228-4.227c0 2.325 0-2.326 0 0z"/></mask><path d="M363.574 270.777c0-3.013 2.484-5.496 5.496-5.496 3.012 0 5.496 2.483 5.496 5.496 0 3.012-2.484 5.495-5.496 5.495-3.012 0-5.496-2.483-5.496-5.495 0 3.012 0-3.065 0 0zm9.724 0a4.24 4.24 0 00-4.228-4.228 4.24 4.24 0 00-4.228 4.228 4.24 4.24 0 004.228 4.227 4.24 4.24 0 004.228-4.227c0 2.325 0-2.326 0 0z" fill="#9D90D0"/><path d="M364.574 270.777c0-2.46 2.036-4.496 4.496-4.496v-2c-3.564 0-6.496 2.931-6.496 6.496h2zm4.496-4.496c2.46 0 4.496 2.036 4.496 4.496h2c0-3.565-2.931-6.496-6.496-6.496v2zm4.496 4.496c0 2.459-2.036 4.495-4.496 4.495v2c3.565 0 6.496-2.931 6.496-6.495h-2zm-4.496 4.495c-2.46 0-4.496-2.036-4.496-4.495h-2c0 3.564 2.932 6.495 6.496 6.495v-2zm-4.496-4.495v-.891h-2v1.755h2v-.864h-2v.864h2v-1.755h-2v.891h2zm9.724 0a5.24 5.24 0 00-5.228-5.228v2a3.24 3.24 0 013.228 3.228h2zm-5.228-5.228a5.24 5.24 0 00-5.228 5.228h2a3.24 3.24 0 013.228-3.228v-2zm-5.228 5.228a5.24 5.24 0 005.228 5.227v-2a3.24 3.24 0 01-3.228-3.227h-2zm5.228 5.227a5.24 5.24 0 005.228-5.227h-2a3.24 3.24 0 01-3.228 3.227v2zm5.228-5.227v-.672h-2v1.343h2v-.671h-2v.671h2v-1.343h-2v.672h2z" fill="#9D90D0" mask="url(#path-118-inside-6_206_4527)"/><path d="M384.605 225.224v40.797" stroke="#9D90D0" stroke-miterlimit="10"/><path d="M384.552 226.151c-2.736 0-4.995-2.259-4.995-4.995s2.259-4.996 4.995-4.996c2.737 0 4.996 2.26 4.996 4.996 0 2.736-2.259 4.995-4.996 4.995zm0-.268a4.743 4.743 0 004.68-4.056h.048v0-.001 0-.001 0-.001 0-.001 0-.001 0-.001 0-.003 0-.001 0-.001 0-.002 0-.001 0-.002 0-.013 0-.002 0-.003 0-.002 0-.019 0-.018 0-.004 0-.032 0-.021 0-.022 0-.018 0-.034 0-.021 0-.038 0-.017 0-.034 0-.018 0-.018 0-.049 0-.097 0-.047 0-.088 0-.027 0-.027 0-.027 0-.088 0-.047 0-.097 0-.049 0-.018 0-.018 0-.017 0-.017 0-.017 0-.038 0-.021 0-.014 0-.038 0-.022 0-.016 0-.037 0-.004 0-.015 0-.003 0-.003 0-.013 0-.005 0-.003 0-.002 0-.011 0-.002 0-.002 0-.001 0-.002 0-.001 0-.001 0-.002 0-.001 0-.001 0-.001 0-.001 0-.001 0-.001 0-.001 0h-.048a4.743 4.743 0 00-4.68-4.056 4.74 4.74 0 00-4.727 4.728 4.74 4.74 0 004.727 4.727z" fill="#9D90D0" stroke="#9D90D0"/><mask id="path-122-inside-7_206_4527" fill="#fff"><path d="M379.057 270.776c0-3.012 2.483-5.496 5.495-5.496 3.013 0 5.496 2.484 5.496 5.496 0 3.012-2.483 5.496-5.496 5.496-3.012 0-5.495-2.484-5.495-5.496 0 3.012 0-3.065 0 0zm9.723 0a4.24 4.24 0 00-4.228-4.227 4.24 4.24 0 00-4.227 4.227 4.24 4.24 0 004.227 4.228 4.24 4.24 0 004.228-4.228c0 2.325 0-2.325 0 0z"/></mask><path d="M379.057 270.776c0-3.012 2.483-5.496 5.495-5.496 3.013 0 5.496 2.484 5.496 5.496 0 3.012-2.483 5.496-5.496 5.496-3.012 0-5.495-2.484-5.495-5.496 0 3.012 0-3.065 0 0zm9.723 0a4.24 4.24 0 00-4.228-4.227 4.24 4.24 0 00-4.227 4.227 4.24 4.24 0 004.227 4.228 4.24 4.24 0 004.228-4.228c0 2.325 0-2.325 0 0z" fill="#9D90D0"/><path d="M380.057 270.776c0-2.46 2.036-4.496 4.495-4.496v-2c-3.564 0-6.495 2.932-6.495 6.496h2zm4.495-4.496c2.46 0 4.496 2.036 4.496 4.496h2c0-3.564-2.931-6.496-6.496-6.496v2zm4.496 4.496c0 2.46-2.036 4.496-4.496 4.496v2c3.565 0 6.496-2.931 6.496-6.496h-2zm-4.496 4.496c-2.459 0-4.495-2.036-4.495-4.496h-2c0 3.565 2.931 6.496 6.495 6.496v-2zm-4.495-4.496v-.89h-2v1.754h2v-.864h-2v.864h2v-1.754h-2v.89h2zm9.723 0a5.24 5.24 0 00-5.228-5.227v2a3.24 3.24 0 013.228 3.227h2zm-5.228-5.227a5.24 5.24 0 00-5.227 5.227h2a3.24 3.24 0 013.227-3.227v-2zm-5.227 5.227a5.24 5.24 0 005.227 5.228v-2a3.24 3.24 0 01-3.227-3.228h-2zm5.227 5.228a5.24 5.24 0 005.228-5.228h-2a3.24 3.24 0 01-3.228 3.228v2zm5.228-5.228v-.671h-2v1.342h2v-.671h-2v.671h2v-1.342h-2v.671h2z" fill="#9D90D0" mask="url(#path-122-inside-7_206_4527)"/><path d="M151.879 188.392h-32.13l-18.39-21.72" stroke="#9D90D0" stroke-miterlimit="10"/><path d="M95.714 167.173l.003-.001c1.715 1.385 4.25 1.385 5.966-.118 2.008-1.659 2.244-4.67.533-6.624-1.66-2.008-4.673-2.243-6.626-.53a4.691 4.691 0 00-1.037 5.903.506.506 0 00-.008.093.89.89 0 00.043.071l.01.013.004.005.003.003.003.004.004.005.008.009.058.07.098.115.264.31.266.313.164.192.009.01.004.005.005.005.005.006.005.006.015.015a1 1 0 00.201.12zm6.742-6.943c1.782 2.119 1.536 5.291-.573 7.064-2.119 1.782-5.29 1.536-7.064-.573-1.781-2.119-1.536-5.29.573-7.064 2.12-1.781 5.291-1.536 7.064.573z" fill="#9D90D0" stroke="#9D90D0"/><path d="M262.163 231.249c-4.228-.053-18.39 0-18.39 0l-23.146 18.284v37.203" stroke="#9D90D0" stroke-miterlimit="10"/><path d="M268.779 226.571c2.454.948 3.793 3.698 3.002 6.216-.868 2.647-3.653 4.082-6.291 3.219-2.649-.867-4.085-3.653-3.221-6.292.842-2.573 3.494-4.001 6.064-3.29a1149.148 1149.148 0 01.446.147zm-2.592 9.382l.015-.045a4.64 4.64 0 005.262-3.183c.828-2.437-.542-5.089-3.011-5.913-2.438-.832-5.093.539-5.918 3.009-.758 2.225.316 4.63 2.385 5.66l-.015.045h.001v.001h.003l.001.001h.002v.001h.003l.001.001h.001l.002.001h.002l.001.001h.002l.001.001h.002l.001.001h.001l.001.001h.003l.002.001h0l.002.001h0l.003.001h.002l.001.001h.001l.001.001h.002l.001.001h.003l.001.001.002.001h.003l.001.001h.002l.001.001h.002l.001.001h.002l.002.001h.001l.002.001h.001l.003.001h0l.003.001.001.001.002.001h.002l.002.001h.002l.001.001.003.001h.001l.003.001h.001l.003.001.001.001.002.001h.002l.002.001.003.001h.001l.003.001h.001l.003.002h.002l.002.001.003.001h.001l.004.001h0l.004.002h.001l.003.001.002.001.003.001.003.001h.001l.004.001v.001l.004.001h.002l.003.001.003.001.001.001.005.001h0l.004.002h.002l.003.001.003.001.001.001.005.001v.001l.005.001.002.001.003.001.003.001h.001l.005.002h.001l.004.001.003.001.002.001.005.002h0l.005.001.002.001.003.001.004.001.001.001.005.002h.002l.003.001.004.001.002.001.005.002h.001l.004.002h.003l.003.001.005.002h0l.005.002.003.001.003.001.005.001v.001l.006.001.002.001.003.001.006.002h0l.006.002.002.001.003.001.006.002h0l.006.002.003.001.002.001.006.001.001.001.005.001.004.002h.002l.006.002.001.001.005.001.004.002h.001l.006.002.003.001.003.001.006.002h0l.006.002.004.001.002.001.006.002.002.001.005.001.005.002h.001l.006.002.003.001.003.001.006.002.001.001.005.002.006.001.001.001.006.002.003.001.003.001.006.002h.002l.005.002.006.002h0l.006.002.005.002h.001l.007.002.003.001.003.001.006.003h.002l.005.002.006.002h.001l.006.002.005.002h.001l.006.002.005.002h.002l.006.003.004.001.003.001.006.002.003.001.004.001.006.002.002.001.005.001.006.002.001.001.006.002.006.002h.001l.006.002.006.002h0l.007.002.006.002h0l.007.003.006.002s0 0 0 0l.007.002.006.002h0l.007.002.006.002h0l.007.003.005.002h.001l.007.002.005.002h.001l.007.002.004.002h.002l.007.003.003.001.003.001.006.002.003.001.004.001.006.002.002.001.005.001.006.002.001.001.006.002.006.002h0l.006.002.005.001.002.001.006.002.003.001.003.001.007.002.002.001.004.001.006.003h.001l.006.002.004.001.002.001.006.002.003.001.004.001.006.002h.001l.005.002.005.002h.001l.006.002.003.001.003.001.007.002.001.001.005.001.005.002h.001l.006.002.002.001.004.001.006.002h0l.006.002.004.002h.002l.006.002.001.001.005.001.004.002h.002l.005.002.003.001.003.001.006.002h0l.006.002.003.001.003.001.005.002h0l.006.002.003.001.003.001.005.001.001.001.005.001.003.001.002.001.006.002h0l.005.002.003.001.003.001.005.001h0l.006.002.002.001.003.001.005.002h0l.006.002h.001l.004.001.004.002h.001l.005.002h.001l.004.001.003.001.002.001.005.002h0l.005.001.002.001.003.001.004.001.001.001.005.001.001.001.004.001.002.001.003.001.004.001h0l.005.002h.001l.004.001.002.001.002.001.004.001h.001l.004.002h.001l.004.001.002.001.002.001.004.001h0l.005.002h0l.004.001.002.001h.002l.003.001.001.001.004.001h0l.004.001.002.001.002.001.003.001h.001l.003.001h.001l.004.002h0l.003.001h.002l.002.001.002.001h.002l.003.001h0l.004.002h0l.003.001h.001l.002.001.002.001h.002l.002.001h.001l.003.001h0l.003.001h.001l.002.001.001.001h.002l.002.001h.001l.002.001h.001l.003.001h0l.003.001h0l.002.001h.001l.002.001h.001l.002.001h.002l.002.001h0l.002.001h.001l.002.001h.002v.001h.003l.001.001h.002l.001.001h.002l.001.001h.002l.001.001h.002l.001.001h.002l.001.001h.002l.001.001h.002l.001.001h.002l.001.001h.002zm-50.609 54.958c0-2.736 2.26-4.996 4.996-4.996 2.736 0 4.996 2.26 4.996 4.996 0 2.736-2.26 4.996-4.996 4.996a4.992 4.992 0 01-4.996-4.996zm9.679-.651a4.743 4.743 0 00-4.683-4.077 4.741 4.741 0 00-4.728 4.728 4.741 4.741 0 004.728 4.728c2.372 0 4.348-1.768 4.679-4.051h.049v0-.001 0-.001 0-.001 0-.001 0-.001 0-.001 0-.002 0-.002 0-.001 0-.002 0-.001 0-.002 0-.015 0-.005 0-.012 0-.003 0-.003 0-.018 0-.004 0-.017 0-.015 0-.004 0-.021 0-.017 0-.018 0-.092 0-.016 0-.017 0-.035 0-.018 0-.191 0-.087 0-.013 0-.027 0-.013 0-.114 0-.046 0-.033 0-.032 0-.098 0-.017 0-.018 0-.016 0-.039 0-.015 0-.021 0-.094 0-.035 0-.004 0-.018 0-.015 0-.005 0-.002 0-.011 0-.002 0-.003 0-.002 0-.001 0-.001 0-.002 0-.001 0-.001 0-.001 0-.001 0-.001 0-.001 0-.001h-.045z" fill="#9D90D0" stroke="#9D90D0"/><path d="M244.566 260.684l14.321-11.15h28.272l34.719 25.683-37.414 27.585" stroke="#9D90D0" stroke-miterlimit="10"/><path d="M243.31 268.005l-.001.001a4.975 4.975 0 01-7.013-.864c-1.681-2.162-1.295-5.335.864-7.014 2.161-1.681 5.335-1.295 7.013.863 1.682 2.162 1.295 5.335-.863 7.014zm.65-6.833a4.699 4.699 0 00-5.799-1.342.799.799 0 00-.15.018.826.826 0 00-.092.038l-.016.01a.118.118 0 00-.018.011l-.01.006-.012.009-.017.012-.036.027-.046.035-.123.095-.324.253-.321.252-.12.095-.044.036-.034.027-.008.006-.008.008-.014.012-.013.013-.011.01a.787.787 0 00-.044.054.977.977 0 00-.058.104.276.276 0 00-.009.052c-1.423 1.665-1.513 4.147-.123 5.948 1.598 2.073 4.555 2.423 6.62.831 2.072-1.599 2.422-4.556.83-6.62z" fill="#9D90D0" stroke="#9D90D0"/><path d="M289.01 274.107l-18.655 14.268" stroke="#9D90D0" stroke-miterlimit="10"/><path d="M289.407 273.804c-1.687-2.216-1.297-5.336.909-7.014a5.028 5.028 0 017.016.911c1.685 2.217 1.294 5.335-.91 7.012-2.217 1.687-5.337 1.297-7.015-.909zm7.719-5.914h0l-.006-.007c-1.591-2.063-4.547-2.482-6.62-.883-2.063 1.592-2.482 4.547-.883 6.62 1.441 1.868 4.001 2.389 6.011 1.282.024.005.049.01.075.013h.001v-.001l.005-.003.008-.007.065-.05.455-.351.455-.351.065-.05.008-.006.005-.004h0l.001-.001h0c.003-.026.006-.051.007-.075 1.58-1.661 1.735-4.258.348-6.126zm-33.421 19.288l.265-.204.242-.186a5.028 5.028 0 016.754 1.101c1.676 2.154 1.249 5.328-.914 7.012a5.028 5.028 0 01-7.014-.913 5.027 5.027 0 01.667-6.81zm6.157 7.517l.007-.006.286-.221.174-.135.051-.041.02-.016.019-.016.013-.012.01-.01.018-.017.014-.015.022-.027.038-.058a.794.794 0 00.037-.095c1.435-1.66 1.579-4.145.182-5.957-1.592-2.063-4.547-2.482-6.62-.883-2.064 1.592-2.483 4.547-.883 6.62 1.399 1.814 3.837 2.307 5.806 1.373a.599.599 0 00.072-.004 1.72 1.72 0 00.077-.022l.036-.015.02-.01.014-.007.016-.01.018-.011.012-.008.01-.007.02-.014.052-.037.173-.128.286-.211h0zm.51-.401h-.001.001z" fill="#9D90D0" stroke="#9D90D0"/><path d="M268.717 273.314l-19.658 15.061" stroke="#9D90D0" stroke-miterlimit="10"/><path d="M269.019 266.789l.004-.003c2.154-1.676 5.328-1.249 7.012.914 1.685 2.217 1.294 5.335-.91 7.013-2.217 1.686-5.337 1.296-7.015-.909-1.687-2.217-1.296-5.337.909-7.015h0zm6.81 1.101h0l-.006-.008c-1.591-2.063-4.546-2.482-6.62-.883-2.063 1.592-2.482 4.547-.883 6.62 1.442 1.869 4.001 2.389 6.011 1.283a.84.84 0 00.075.012h.001l.005-.004.008-.006.065-.05.455-.352.455-.351.065-.05.008-.006.005-.004h.001v-.001a.996.996 0 00.007-.075c1.58-1.661 1.735-4.258.348-6.125zm-33.424 19.288l.264-.203.242-.186a5.028 5.028 0 016.754 1.1c1.676 2.155 1.249 5.328-.914 7.012a5.028 5.028 0 01-7.014-.912 5.029 5.029 0 01.668-6.811zm6.156 7.517l.008-.005.285-.221.174-.136.052-.041.019-.016.019-.015.013-.012.011-.01.017-.017.014-.016.022-.027a.737.737 0 00.038-.058.704.704 0 00.037-.094c1.436-1.66 1.579-4.146.182-5.957-1.592-2.064-4.547-2.483-6.62-.883-2.063 1.591-2.483 4.546-.883 6.619 1.399 1.815 3.837 2.308 5.807 1.373a.43.43 0 00.071-.004.674.674 0 00.077-.022l.036-.015a.136.136 0 00.021-.01l.013-.007.016-.009.007-.005a.035.035 0 00.011-.007l.012-.007.01-.007.02-.014.052-.038.174-.127.285-.212h0zm.51-.401l-.001.001.001-.001z" fill="#9D90D0" stroke="#9D90D0"/><path d="M432.356 180.928c14.681 0 26.581-11.901 26.581-26.581s-11.9-26.581-26.581-26.581c-14.68 0-26.581 11.901-26.581 26.581s11.901 26.581 26.581 26.581z" fill="url(#paint0_radial_206_4527)"/><path d="M285.663 329.988c14.68 0 26.581-11.9 26.581-26.581 0-14.68-11.901-26.581-26.581-26.581s-26.581 11.901-26.581 26.581c0 14.681 11.901 26.581 26.581 26.581z" fill="url(#paint1_radial_206_4527)"/><path d="M151.981 215.236c14.681 0 26.581-11.901 26.581-26.581 0-14.681-11.9-26.581-26.581-26.581-14.68 0-26.581 11.9-26.581 26.581 0 14.68 11.901 26.581 26.581 26.581z" fill="url(#paint2_radial_206_4527)"/><path d="M46.692 119.411c14.68 0 26.581-11.901 26.581-26.581s-11.9-26.581-26.58-26.581c-14.681 0-26.582 11.9-26.582 26.581 0 14.68 11.901 26.581 26.581 26.581z" fill="url(#paint3_radial_206_4527)"/><path d="M306.956 173.83c14.68 0 26.581-11.901 26.581-26.581s-11.901-26.581-26.581-26.581-26.581 11.901-26.581 26.581 11.901 26.581 26.581 26.581z" fill="url(#paint4_radial_206_4527)"/><path d="M353.095 87.47c14.68 0 26.581-11.901 26.581-26.581s-11.901-26.581-26.581-26.581c-14.681 0-26.581 11.9-26.581 26.58 0 14.68 11.9 26.582 26.581 26.582z" fill="url(#paint5_radial_206_4527)"/><defs><radialGradient id="paint0_radial_206_4527" cx="0" cy="0" r="1" gradientUnits="userSpaceOnUse" gradientTransform="rotate(-140.8 243.674 .165) scale(26.5652)"><stop stop-color="#D2BEFF"/><stop offset=".249" stop-color="#CDB5F9" stop-opacity=".68"/><stop offset=".541" stop-color="#C7A9F3" stop-opacity=".32"/><stop offset=".749" stop-color="#C4ABE9" stop-opacity="0"/></radialGradient><radialGradient id="paint1_radial_206_4527" cx="0" cy="0" r="1" gradientUnits="userSpaceOnUse" gradientTransform="rotate(-140.8 196.866 100.813) scale(26.5652)"><stop stop-color="#D2BEFF"/><stop offset=".249" stop-color="#CDB5F9" stop-opacity=".68"/><stop offset=".541" stop-color="#C7A9F3" stop-opacity=".32"/><stop offset=".749" stop-color="#C4ABE9" stop-opacity="0"/></radialGradient><radialGradient id="paint2_radial_206_4527" cx="0" cy="0" r="1" gradientUnits="userSpaceOnUse" gradientTransform="rotate(-140.8 109.595 67.238) scale(26.5652)"><stop stop-color="#D2BEFF"/><stop offset=".249" stop-color="#CDB5F9" stop-opacity=".68"/><stop offset=".541" stop-color="#C7A9F3" stop-opacity=".32"/><stop offset=".749" stop-color="#C4ABE9" stop-opacity="0"/></radialGradient><radialGradient id="paint3_radial_206_4527" cx="0" cy="0" r="1" gradientUnits="userSpaceOnUse" gradientTransform="rotate(-140.8 39.89 38.071) scale(26.5652)"><stop stop-color="#D2BEFF"/><stop offset=".249" stop-color="#CDB5F9" stop-opacity=".68"/><stop offset=".541" stop-color="#C7A9F3" stop-opacity=".32"/><stop offset=".749" stop-color="#C4ABE9" stop-opacity="0"/></radialGradient><radialGradient id="paint4_radial_206_4527" cx="0" cy="0" r="1" gradientUnits="userSpaceOnUse" gradientTransform="rotate(-140.8 179.71 18.943) scale(26.5652)"><stop stop-color="#D2BEFF"/><stop offset=".249" stop-color="#CDB5F9" stop-opacity=".68"/><stop offset=".541" stop-color="#C7A9F3" stop-opacity=".32"/><stop offset=".749" stop-color="#C4ABE9" stop-opacity="0"/></radialGradient><radialGradient id="paint5_radial_206_4527" cx="0" cy="0" r="1" gradientUnits="userSpaceOnUse" gradientTransform="rotate(-140.8 187.404 -32.452) scale(26.5652)"><stop stop-color="#D2BEFF"/><stop offset=".249" stop-color="#CDB5F9" stop-opacity=".68"/><stop offset=".541" stop-color="#C7A9F3" stop-opacity=".32"/><stop offset=".749" stop-color="#C4ABE9" stop-opacity="0"/></radialGradient></defs></svg>