<svg width="121" height="78" fill="none" xmlns="http://www.w3.org/2000/svg"><path d="M82.5 51l.117-1.496L82.5 51zM64 71.5l.706-1.324L64 71.5zM112 51l-1.431-.45L112 51zM77.5 4l.36-1.456L77.5 4zM0 17l17.283 1.138L9.627 2.601 0 17zm11.492-3.561a157.77 157.77 0 017.429-2.773l-.978-2.836c-2.78.958-5.32 1.92-7.57 2.826l1.12 2.783zm14.996-5.167a141.58 141.58 0 017.684-1.983l-.666-2.925a144.24 144.24 0 00-7.848 2.025l.83 2.883zm15.447-3.505c2.566-.42 5.187-.762 7.845-1.007L49.505.772c-2.734.252-5.425.604-8.053 1.034l.483 2.96zm15.723-1.423c2.612-.031 5.24.049 7.867.259l.239-2.99a88.946 88.946 0 00-8.142-.269l.036 3zm15.651 1.284c1.282.24 2.56.515 3.832.829l.718-2.913a71.408 71.408 0 00-4-.865l-.55 2.95zm3.832.829c1.3.32 2.568.682 3.803 1.082l.925-2.853a58.107 58.107 0 00-4.01-1.142l-.718 2.913zM88.233 9.52a48.784 48.784 0 016.73 4.076l1.758-2.431a51.79 51.79 0 00-7.144-4.326L88.234 9.52zm12.674 9.197a41.996 41.996 0 014.922 6.08l2.5-1.658a44.95 44.95 0 00-5.273-6.516l-2.149 2.094zm8.543 12.975a32.218 32.218 0 011.987 7.472l2.972-.407a35.188 35.188 0 00-2.17-8.17l-2.789 1.105zm1.972 15.137a24.36 24.36 0 01-.853 3.721l2.862.9c.429-1.367.748-2.763.958-4.18l-2.967-.441zm-.853 3.721a18.806 18.806 0 01-1.246 3.013l2.663 1.38a21.741 21.741 0 001.445-3.493l-2.862-.9zm-5.143 8.307c-1.526 1.554-3.289 2.96-5.219 4.218l1.638 2.513c2.084-1.359 4.021-2.897 5.721-4.629l-2.14-2.102zm-11.207 7.45a55.406 55.406 0 01-6.428 2.39l.874 2.87a58.373 58.373 0 006.777-2.52l-1.223-2.74zm-13.11 4.024a56.29 56.29 0 01-6.81.858l.184 2.994a59.287 59.287 0 007.175-.903l-.55-2.95zm-13.526.667c-1.31-.201-2.266-.496-2.877-.822l-1.412 2.647c1.03.55 2.358.914 3.833 1.14l.456-2.965zm-2.877-.822c-1.621-.864-2.775-1.77-3.559-2.659l-2.25 1.984c1.076 1.221 2.541 2.333 4.397 3.322l1.412-2.647zm-3.557-9.89c1.492-2.014 4.064-3.946 7.344-5.4l-1.216-2.742c-3.597 1.595-6.65 3.806-8.539 6.357l2.411 1.785zm16.5-7.755c1.56-.142 3.147-.16 4.734-.036l.234-2.99a31.065 31.065 0 00-5.24.039l.272 2.987zm4.734-.036c1.112.087 2.266.302 3.453.63l.8-2.89a21.326 21.326 0 00-4.019-.73l-.234 2.99zm10.145 3.449c2.1 1.148 4.2 2.516 6.246 4.005l1.765-2.425c-2.126-1.547-4.335-2.989-6.572-4.212l-1.44 2.632zm12.099 8.68c2 1.73 3.865 3.476 5.528 5.109l2.102-2.14a123.893 123.893 0 00-5.666-5.238l-1.964 2.268zm10.756 10.536a115.277 115.277 0 012.305 2.61l.121.143.029.035.007.009.001.001L119 77l1.154-.959h-.001l-.001-.001-.002-.003a.302.302 0 00-.009-.011l-.034-.041-.131-.154a113.036 113.036 0 00-2.375-2.69l-2.218 2.019z" fill="#FFAF99"/></svg>