<svg width="202" height="116" fill="none" xmlns="http://www.w3.org/2000/svg"><path d="M120.5 49.365l.757-1.295-.757 1.295zm-10-38l1.152.96-1.152-.96zm73 57l-1.498-.084 1.498.084zm-82 42.5l-.448 1.432.448-1.432zM0 49.365l4.102 16.828 12.522-11.967L0 49.366zm8.129 10.091a214.521 214.521 0 006.505 5.67l1.926-2.3a211.664 211.664 0 01-6.414-5.59l-2.017 2.22zm13.21 11.078a247.739 247.739 0 006.901 5.171l1.757-2.431a244.556 244.556 0 01-6.816-5.108l-1.841 2.368zM35.306 80.63a257.047 257.047 0 007.223 4.682l1.59-2.544a254.394 254.394 0 01-7.14-4.627l-1.673 2.49zm14.604 9.123c2.43 1.408 4.943 2.81 7.537 4.2l1.416-2.646a254.721 254.721 0 01-7.45-4.15l-1.503 2.596zm15.183 8.129a253.859 253.859 0 007.8 3.682l1.234-2.734a251.632 251.632 0 01-7.708-3.64l-1.326 2.692zm15.698 7.088a253.046 253.046 0 008.034 3.143l1.045-2.813a248.607 248.607 0 01-7.938-3.105l-1.14 2.775zm16.15 5.999c1.357.451 2.728.894 4.112 1.328l.896-2.863c-1.366-.428-2.72-.866-4.061-1.312l-.947 2.847zm4.112 1.328c1.207.378 2.439.718 3.692 1.019l.702-2.916a54.532 54.532 0 01-3.498-.966l-.896 2.863zm11.215 2.353c2.493.294 5.037.457 7.609.491l.04-3a70.17 70.17 0 01-7.297-.471l-.352 2.98zm15.215.226a83.431 83.431 0 007.54-.968l-.517-2.956a80.395 80.395 0 01-7.269.934l.246 2.99zm14.963-2.619a80.403 80.403 0 007.243-2.333l-1.057-2.808a77.144 77.144 0 01-6.971 2.246l.785 2.895zm14.229-5.373a66.699 66.699 0 006.632-3.787l-1.638-2.513a63.484 63.484 0 01-6.333 3.615l1.339 2.685zm12.77-8.374a50.494 50.494 0 005.447-5.425l-2.276-1.955a47.51 47.51 0 01-5.125 5.103l1.954 2.277zm9.958-11.688a40.526 40.526 0 003.304-7l-2.823-1.014a37.604 37.604 0 01-3.061 6.483l2.58 1.53zm5.198-14.515a41.32 41.32 0 00.398-3.858l-2.996-.168a38.36 38.36 0 01-.368 3.578l2.966.448zm.398-3.858c.078-1.4.085-2.814.026-4.24l-2.997.125c.055 1.333.048 2.65-.025 3.947l2.996.168zm-1.038-12.603a63.63 63.63 0 00-2.267-8.08l-2.831.994a60.578 60.578 0 012.161 7.698l2.937-.612zm-5.486-15.8a83.368 83.368 0 00-4.006-7.323l-2.558 1.568a80.22 80.22 0 013.862 7.06l2.702-1.305zm-8.703-14.215a85.851 85.851 0 00-5.336-6.412l-2.209 2.03a83.008 83.008 0 015.15 6.187l2.395-1.805zm-11.298-12.26a67.845 67.845 0 00-6.61-5.152l-1.69 2.479a64.884 64.884 0 016.318 4.924l1.982-2.252zM144.56 4.203c-2.642-1.25-5.32-2.218-7.996-2.85l-.69 2.919c2.447.578 4.926 1.47 7.403 2.643l1.283-2.712zM127.997.544a24.558 24.558 0 00-8.442 1.984l1.195 2.752a21.563 21.563 0 017.418-1.742l-.171-2.995zM112.319 7.28a31.984 31.984 0 00-2.971 3.125l2.304 1.92a29.107 29.107 0 012.693-2.833l-2.026-2.212zm-2.971 3.125a21.879 21.879 0 00-2.27 3.31l2.616 1.468a18.934 18.934 0 011.958-2.858l-2.304-1.92zm-4.971 10.78a25.437 25.437 0 00-.243 7.924l2.976-.377a22.432 22.432 0 01.215-6.99l-2.948-.557zm1.965 15.536c1.058 2.267 2.486 4.485 4.328 6.592l2.258-1.975c-1.659-1.898-2.931-3.879-3.868-5.885l-2.718 1.268zm10.138 11.825a41.4 41.4 0 003.263 2.114l1.514-2.59a38.308 38.308 0 01-3.026-1.96l-1.751 2.436zm3.263 2.114a56.432 56.432 0 003.932 2.096l1.305-2.701a53.506 53.506 0 01-3.723-1.985l-1.514 2.59zm12.25 5.3a53.512 53.512 0 008.728 1.776l.352-2.98a50.5 50.5 0 01-8.239-1.675l-.841 2.88zm17.61 2.12a64.133 64.133 0 008.82-.963l-.527-2.953a61.12 61.12 0 01-8.407.918l.114 2.998zm17.414-3.044a86.157 86.157 0 008.286-3.01l-1.163-2.765a83.147 83.147 0 01-7.998 2.905l.875 2.87zm16.237-6.791a108.426 108.426 0 007.591-4.436l-1.617-2.527a105.47 105.47 0 01-7.38 4.313l1.406 2.65zm14.81-9.48a80.04 80.04 0 002.531-2.01 48.577 48.577 0 00.839-.713l.046-.04.012-.012.004-.003.001-.002h.001l-.998-1.12-.998-1.12-.001.002a.94.94 0 01-.045.04l-.155.133c-.138.12-.347.297-.623.527a76.625 76.625 0 01-2.435 1.935l1.821 2.384z" fill="#9D90D0"/></svg>