<svg width="96" height="61" fill="none" xmlns="http://www.w3.org/2000/svg"><path d="M68.5 16.5l-.936-.352.936.352zm26 6l.982-.187-.982.187zM31.5 39l-.443.896L31.5 39zM3 0L.78 11.332l10.923-3.744L3 0zm.397 4.242a1 1 0 001.873-.7l-1.873.7zm5.066 6.814a1 1 0 10-1.806.86l1.806-.86zm2.123 8.22a1 1 0 101.717-1.024l-1.717 1.025zm6.263 5.721a1 1 0 00-1.59 1.214l1.59-1.214zm3.96 7.507a1 1 0 101.393-1.434l-1.394 1.434zm7.656 3.613a1 1 0 00-1.09 1.677l1.09-1.677zm6.821 5.495a1 1 0 00.62-1.902l-.62 1.902zm9.066-.193a1 1 0 00-.195 1.99l.195-1.99zm8.805 2.137a1 1 0 00-.115-1.997l.115 1.997zm8.549-3.043a1 1 0 10.356 1.968l-.356-1.968zm9.073-.107a1 1 0 00-.567-1.918l.567 1.918zm7.66-4.855a1 1 0 10.781 1.84l-.782-1.84zm8.792-2.275a1 1 0 00-1.063-1.694l1.063 1.694zm5.267-7.192a1 1 0 101.648 1.134l-1.648-1.134zm1.525-8.402a1 1 0 10-1.822.825l1.822-.825zm-7.26-5.866a1 1 0 101.158-1.63l-1.159 1.63zm-8.145-4.519a1 1 0 00.108 1.997l-.108-1.997zm-7.1 5.787a1 1 0 00-1.567-1.242l1.568 1.242zm-4.692 7.719a1 1 0 002-.05l-2 .05zm4.082 7.955a1 1 0 10-1.828.813l1.828-.813zm2.528 8.554a1 1 0 101.664-1.11l-1.664 1.11zm6.807 5.807a1 1 0 00-1.55 1.263l1.55-1.263zm4.233 7.882a1 1 0 001.464-1.362L84.476 51zm7.542 4.819a1 1 0 00-1.388 1.44l1.388-1.44zM6.658 11.917a89.744 89.744 0 003.928 7.36l1.717-1.025a87.758 87.758 0 01-3.84-7.196l-1.806.86zm8.601 14.294c1.674 2.192 3.521 4.323 5.55 6.293l1.393-1.434c-1.948-1.892-3.73-3.947-5.353-6.073l-1.59 1.214zm12.116 11.583a36.184 36.184 0 003.682 2.102l.886-1.792c-1.2-.594-2.36-1.26-3.478-1.987l-1.09 1.677zm3.682 2.102a31.774 31.774 0 004.23 1.716l.62-1.902a29.782 29.782 0 01-3.964-1.606l-.886 1.792zm13.1 3.514c2.934.287 5.958.321 9 .146l-.115-1.997c-2.952.17-5.873.136-8.69-.14l-.195 1.99zm17.905-.93a83.08 83.08 0 008.717-2.074l-.567-1.918a81.058 81.058 0 01-8.506 2.025l.356 1.968zm17.158-5.089c2.98-1.266 5.693-2.66 8.011-4.115l-1.063-1.694c-2.214 1.39-4.83 2.736-7.73 3.968l.782 1.841zm14.926-10.173c1.077-1.565 1.653-3.243 1.336-4.905l-1.964.374c.18.944-.112 2.078-1.02 3.397l1.648 1.134zm1.336-4.905a20.49 20.49 0 00-1.459-4.631l-1.822.825c.58 1.28 1.03 2.677 1.317 4.18l1.964-.374zm-7.56-12.127c-2.83-2.012-6.118-3.062-9.304-2.889l.108 1.997c2.676-.145 5.526.737 8.036 2.522l1.16-1.63zm-17.97 1.656c-.95 1.197-1.757 2.63-2.388 4.306l1.872.704c.565-1.5 1.274-2.748 2.082-3.768l-1.567-1.242zm-2.388 4.306c-.554 1.472-.777 3.038-.738 4.655l2-.05c-.035-1.4.16-2.705.61-3.9l-1.872-.706zm1.517 13.423c1.144 2.576 2.654 5.189 4.355 7.74l1.664-1.108c-1.658-2.488-3.105-5-4.192-7.445l-1.828.813zm9.612 14.811a134.582 134.582 0 005.783 6.62l1.464-1.363a132.572 132.572 0 01-5.697-6.52l-1.55 1.263zM90.63 57.261a136.712 136.712 0 002.978 2.783l.17.152.044.04.012.01.003.002v.001h.001l.662-.749.662-.75a.05.05 0 01-.003-.002l-.01-.009-.04-.036a54.823 54.823 0 01-.793-.719 134.451 134.451 0 01-2.298-2.164l-1.388 1.44z" fill="#9D90D0"/></svg>