<svg width="503" height="489" fill="none" xmlns="http://www.w3.org/2000/svg"><path d="M221.439 169.049h-25.346l-37.849-39.307h-17.982v-.178l-15.071-15.581V93.09l-12.16-12.572.685-.708 12.331 12.926v20.893l14.729 15.227h17.982l37.849 39.308h24.832v.885z" fill="#9D90D0"/><path d="M106.87 83.352c-4.967 0-9.077-4.25-9.077-9.384 0-5.135 4.11-9.385 9.077-9.385 4.966 0 9.077 4.25 9.077 9.385a9.078 9.078 0 01-9.077 9.384zm0-18.06c-4.453 0-8.22 3.895-8.22 8.499 0 4.603 3.767 8.499 8.22 8.499 4.453 0 8.22-3.896 8.22-8.5 0-4.603-3.596-8.498-8.22-8.498zm20.716 50.993h-17.469l-8.22-8.499V94.153L92.135 84.06l.685-.531 10.104 10.27v13.633l7.536 7.968h17.126v.885z" fill="#9D90D0"/><path d="M131.527 120.535h-25.86l-.171-.177-14.729-15.227V94.684l-4.966-5.135.685-.708 5.309 5.49v10.446l14.215 14.696h25.517v1.062z" fill="#9D90D0"/><path d="M135.461 124.607H96.584l-4.795-4.957.685-.709 4.453 4.604h38.534v1.062zm-51.024 16.468H76.9l-3.939-3.896h-3.939v-1.062h4.453l3.768 4.072h7.193v.886zM63.71 157.186L52.405 145.5l.685-.708 11.303 11.686-.685.708zm26.374 15.405H67.307v.885h22.777v-.885zm38.873 22.309h-11.475v-1.062h11.132l8.906-9.208.685.709-9.248 9.561zm-8.728 18.947H98.65v-1.063h21.065L147.46 184.1l.685.708-27.916 29.039zm-33.569 19.83l-16.784-17.352h-23.12v-.885H70.39l.171.177 16.784 17.352-.685.708z" fill="#9D90D0"/><path d="M39.22 234.74H29.117l-2.91-3.01.684-.709 2.569 2.656h9.42l17.468-18.06.685.708-17.811 18.415z" fill="#9D90D0"/><path d="M47.097 241.468H22.949v-.886h23.805l15.072-15.581h7.706l7.878 7.968-.685.708-7.535-7.791h-7.022l-15.071 15.582zm9.938 21.247l-.685-.531 3.254-3.364H83.75v.885H59.946l-2.911 3.01zm87.679-26.736l-.685-.709 19.182-19.83h13.015l19.524-20.185h11.132v.885h-10.789l-19.524 20.185h-12.845l-19.01 19.654zm-51.542 43.026H77.93l-7.193-7.26H66.97l-2.912 3.01-.685-.708 3.254-3.364h4.624l7.022 7.437h14.386l5.309-5.489h22.606v1.062H98.31l-5.138 5.312zm-16.104 51.348H59.086v-1.062h17.64l13.7-14.165.686.708-14.044 14.519zm45.387-18.769h-1.027v-25.142l9.419-9.739v-9.384h1.028v9.738l-9.42 9.739v24.788zm19.174-29.923h-1.027V270.86l8.563-8.676v-8.322h1.027v8.676l-8.563 8.853v10.27zm34.939-14.696l-.685-.531 17.811-18.592v-30.454h1.028v30.808l-.172.177-17.982 18.592z" fill="#9D90D0"/><path d="M181.023 250.675h-8.392v-.885h8.049l8.221-8.499v-19.3h.856v19.654l-8.734 9.03zm35.789 34.704l-.685-.531 9.762-10.092v-23.904h.856v24.435l-9.933 10.092z" fill="#9D90D0"/><path d="M173.14 358.86l-.685-.708 19.524-20.185v-33.465h.856v33.996L173.14 358.86z" fill="#F7F7F7"/><path d="M154.135 357.797l-.514-.708 7.022-7.26h11.132l16.098-16.644v-24.257h.857v24.612l-.172.177-16.441 16.998h-11.132l-6.85 7.082z" fill="#9D90D0"/><path d="M143.686 365.588h-1.028v-4.957l.171-.177 15.585-15.936h12.16l12.673-13.102v-19.831h.856v20.362l-13.187 13.456h-12.159l-15.071 15.759v4.426zm-33.051-30.454h-5.994v-1.063h5.48l5.823-5.843h22.093v.885h-21.751l-5.651 6.021zm83.577 56.836h-.857v-6.02l12.503-12.748v-6.374h.856v6.728l-.171.177-12.331 12.748v5.489zm-12.845 59.67l-3.767-4.073v-18.945h.856v18.591l3.596 3.718-.685.709zm-2.911-33.111h-.856v-10.27l.171-.177 10.276-10.446.513.708-10.104 10.27v9.915zm14.211 15.759h-.856v-10.624l19.352-20.008v-15.05l.171-.177 9.762-9.916.685.531-9.59 9.916v15.05l-.172.177-19.352 20.008v10.093z" fill="#9D90D0"/><path d="M206.54 430.038l-4.11-4.072v-13.103h1.027v12.749l3.597 3.895-.514.531zm29.967-70.647h-.857v23.903h.857v-23.903zm27.571-20.893h-.856v-19.299l-18.667-19.3.514-.708 19.009 19.653v19.654z" fill="#9D90D0"/><path d="M256.372 329.821h-1.028v-11.332l-10.789-11.332.514-.708 11.303 11.686v11.686zm21.752-20.893h-.856v20.893h.856v-20.893z" fill="#9D90D0"/><path d="M247.643 361.516l-2.741-3.01V237.219h.857v120.932l2.569 2.656-.685.709z" fill="#9D90D0"/><path d="M230.862 326.28h-1.028v-37.006l.171-.177 14.557-15.05.685.708-14.385 14.873v36.652zm-54.294 54.358l-.685-.708 19.866-20.539.685.708-19.866 20.539z" fill="#9D90D0"/><path d="M205.345 348.413h-.857v-26.028l25.518-26.382.685.708-25.346 26.205v25.497zm-97.623 18.414l-.685-.708 14.557-14.873h8.221l9.248-9.739.685.708-9.591 9.916h-8.22l-14.215 14.696zm42.303-40.192l-.685-.532 11.646-12.04h19.866l15.242-15.935v-16.644h.171l35.28-36.652v-18.768h.856v19.299l-35.451 36.652v16.644l-15.756 16.29h-19.866l-11.303 11.686zm112.343-43.381h-.857v-15.581l-16.441-17.175.685-.709 16.613 17.352v16.113zm26.551 36.475l-22.093-22.841.685-.708 22.093 22.841-.685.708z" fill="#9D90D0"/><path d="M262.031 300.606c-4.795 0-8.734-4.072-8.734-9.03 0-4.958 3.939-9.03 8.734-9.03s8.735 4.072 8.735 9.03c0 4.958-3.94 9.03-8.735 9.03zm0-17.352c-4.281 0-7.878 3.719-7.878 8.145 0 4.427 3.597 8.145 7.878 8.145 4.282 0 7.878-3.718 7.878-8.145 0-4.426-3.596-8.145-7.878-8.145zm30.654 46.036c-3.083 0-5.652-2.656-5.652-5.843s2.569-5.843 5.652-5.843c3.082 0 5.651 2.656 5.651 5.843s-2.569 5.843-5.651 5.843zm0-10.8c-2.569 0-4.795 2.124-4.795 4.957 0 2.656 2.055 4.958 4.795 4.958 2.569 0 4.795-2.125 4.795-4.958s-2.226-4.957-4.795-4.957zm33.74 15.935c-3.083 0-5.652-2.656-5.652-5.843 0-3.188 2.569-5.843 5.652-5.843s5.652 2.655 5.652 5.843c0 3.364-2.569 5.843-5.652 5.843zm0-10.624c-2.569 0-4.795 2.125-4.795 4.958 0 2.656 2.055 4.957 4.795 4.957 2.569 0 4.795-2.124 4.795-4.957 0-2.833-2.226-4.958-4.795-4.958zm-102.242 21.425c-5.652 0-10.105-4.781-10.105-10.447 0-5.843 4.624-10.447 10.105-10.447 5.651 0 10.104 4.604 10.104 10.447 0 5.666-4.453 10.447-10.104 10.447zm0-20.008c-5.138 0-9.249 4.249-9.249 9.561s4.111 9.561 9.249 9.561c5.137 0 9.248-4.249 9.248-9.561s-4.111-9.561-9.248-9.561zm-19.357 41.964c-5.138 0-9.42-4.427-9.42-9.739 0-5.312 4.282-9.738 9.42-9.738 5.137 0 9.419 4.426 9.419 9.738 0 5.489-4.11 9.739-9.419 9.739zm0-18.415c-4.624 0-8.563 3.896-8.563 8.853 0 4.781 3.767 8.853 8.563 8.853 4.624 0 8.563-3.895 8.563-8.853 0-4.957-3.768-8.853-8.563-8.853zm-33.742 46.036c-4.452 0-8.049-3.719-8.049-8.322 0-4.604 3.597-8.322 8.049-8.322 4.453 0 8.05 3.718 8.05 8.322 0 4.426-3.597 8.322-8.05 8.322zm0-15.936c-3.939 0-7.193 3.364-7.193 7.437 0 4.072 3.254 7.436 7.193 7.436 3.939 0 7.193-3.364 7.193-7.436 0-4.073-3.254-7.437-7.193-7.437zm-27.909 3.719c-4.966 0-8.905-4.072-8.905-9.207 0-5.135 3.939-9.207 8.905-9.207 4.967 0 8.906 4.072 8.906 9.207 0 5.135-3.939 9.207-8.906 9.207zm0-17.352c-4.453 0-7.878 3.719-7.878 8.145 0 4.604 3.597 8.145 7.878 8.145 4.453 0 7.878-3.718 7.878-8.145 0-4.426-3.425-8.145-7.878-8.145zm.856-21.425c-4.796 0-8.906-4.072-8.906-9.207 0-4.958 3.939-9.207 8.906-9.207 4.966 0 8.905 4.072 8.905 9.207 0 4.958-4.11 9.207-8.905 9.207zm0-17.352c-4.453 0-7.878 3.718-7.878 8.145 0 4.604 3.596 8.145 7.878 8.145 4.452 0 7.878-3.719 7.878-8.145 0-4.604-3.597-8.145-7.878-8.145zM101.9 377.982c-3.939 0-7.193-3.364-7.193-7.436 0-4.073 3.254-7.437 7.193-7.437 3.939 0 7.193 3.364 7.193 7.437 0 4.072-3.254 7.436-7.193 7.436zm0-13.81c-3.425 0-6.165 2.833-6.165 6.374 0 3.541 2.74 6.374 6.165 6.374s6.165-2.833 6.165-6.374c0-3.541-2.74-6.374-6.165-6.374zm-2.399-23.726c-3.083 0-5.651-2.656-5.651-5.843s2.569-5.843 5.651-5.843c3.083 0 5.652 2.656 5.652 5.843 0 3.364-2.569 5.843-5.652 5.843zm0-10.624c-2.569 0-4.624 2.125-4.624 4.781 0 2.656 2.055 4.78 4.624 4.78 2.569 0 4.624-2.124 4.624-4.78 0-2.479-2.055-4.781-4.624-4.781zm-22.437 20.716c-3.083 0-5.652-2.656-5.652-5.843s2.569-5.843 5.652-5.843c3.082 0 5.651 2.656 5.651 5.843-.17 3.187-2.569 5.843-5.651 5.843zm0-10.624c-2.57 0-4.624 2.125-4.624 4.781 0 2.656 2.055 4.78 4.624 4.78 2.569 0 4.624-2.124 4.624-4.78s-2.055-4.781-4.624-4.781zm78.958 26.205c-2.74 0-4.795-2.302-4.795-4.958 0-2.833 2.226-4.957 4.795-4.957 2.74 0 4.795 2.301 4.795 4.957 0 2.656-2.226 4.958-4.795 4.958zm0-9.03c-2.227 0-3.939 1.771-3.939 4.072 0 2.302 1.712 4.073 3.939 4.073 2.226 0 3.939-1.771 3.939-4.073 0-2.301-1.884-4.072-3.939-4.072zm36.473 43.735c-2.912 0-5.309-2.479-5.309-5.489s2.397-5.489 5.309-5.489c2.911 0 5.309 2.479 5.309 5.489s-2.398 5.489-5.309 5.489zm0-9.916c-2.398 0-4.282 1.948-4.282 4.427 0 2.478 1.884 4.426 4.282 4.426 2.397 0 4.281-1.948 4.281-4.426 0-2.479-1.884-4.427-4.281-4.427zm-7.36 69.23c-2.911 0-5.309-2.478-5.309-5.488 0-3.01 2.398-5.489 5.309-5.489 2.912 0 5.309 2.479 5.309 5.489s-2.397 5.488-5.309 5.488zm0-9.915c-2.397 0-4.281 1.948-4.281 4.427 0 2.478 1.884 4.426 4.281 4.426 2.398 0 4.282-1.948 4.282-4.426.171-2.479-1.884-4.427-4.282-4.427zm-7.196-21.071c-3.083 0-5.652-2.656-5.652-5.843s2.569-5.843 5.652-5.843c3.082 0 5.651 2.656 5.651 5.843.172 3.187-2.397 5.843-5.651 5.843zm0-10.977c-2.569 0-4.796 2.301-4.796 4.957 0 2.656 2.227 4.958 4.796 4.958 2.569 0 4.795-2.302 4.795-4.958s-2.055-4.957-4.795-4.957zm10.449 25.142c-3.083 0-5.652-2.656-5.652-5.843s2.569-5.843 5.652-5.843 5.652 2.656 5.652 5.843c-.172 3.187-2.569 5.843-5.652 5.843zm0-10.623c-2.569 0-4.624 2.124-4.624 4.78s2.055 4.781 4.624 4.781c2.569 0 4.624-2.125 4.624-4.781 0-2.656-2.055-4.78-4.624-4.78zm22.608 7.613c-3.596 0-6.508-3.01-6.508-6.728s2.912-6.728 6.508-6.728c3.597 0 6.508 3.01 6.508 6.728s-2.911 6.728-6.508 6.728zm0-12.394c-3.082 0-5.651 2.656-5.651 5.843s2.569 5.843 5.651 5.843c3.083 0 5.652-2.656 5.652-5.843-.171-3.364-2.569-5.843-5.652-5.843zm24.661-33.11c-3.254 0-5.823-2.656-5.823-6.02 0-3.364 2.569-6.02 5.823-6.02 3.254 0 5.823 2.656 5.823 6.02 0 3.364-2.569 6.02-5.823 6.02zm0-11.155c-2.74 0-4.795 2.302-4.795 4.958 0 2.833 2.226 4.958 4.795 4.958s4.795-2.302 4.795-4.958-2.055-4.958-4.795-4.958zm17.128-13.279c-3.596 0-6.508-3.01-6.508-6.729 0-3.718 2.912-6.728 6.508-6.728 3.597 0 6.508 3.01 6.508 6.728-.171 3.719-3.082 6.729-6.508 6.729zm0-12.395c-3.082 0-5.48 2.656-5.48 5.666 0 3.01 2.569 5.666 5.48 5.666 3.083 0 5.481-2.656 5.481-5.666 0-3.01-2.569-5.666-5.481-5.666zm-134.102-37.891c-2.74 0-4.966-2.301-4.966-5.134s2.226-5.135 4.966-5.135c2.741 0 4.967 2.302 4.967 5.135.171 2.833-2.055 5.134-4.967 5.134zm0-9.384c-2.226 0-4.11 1.948-4.11 4.25 0 2.301 1.884 4.249 4.11 4.249 2.227 0 4.111-1.948 4.111-4.249 0-2.479-1.713-4.25-4.111-4.25zm20.039 9.915c-2.74 0-4.966-2.301-4.966-5.134s2.226-5.135 4.966-5.135c2.741 0 4.967 2.302 4.967 5.135 0 2.833-2.226 5.134-4.967 5.134zm0-9.384c-2.226 0-4.11 1.948-4.11 4.25 0 2.301 1.884 4.249 4.11 4.249 2.227 0 4.111-1.948 4.111-4.249-.172-2.302-1.884-4.25-4.111-4.25zm.684-20.539c-2.74 0-4.967-2.302-4.967-5.135 0-2.833 2.227-5.135 4.967-5.135 2.74 0 4.967 2.302 4.967 5.135.171 2.833-2.227 5.135-4.967 5.135zm0-9.384c-2.226 0-4.11 1.947-4.11 4.249 0 2.302 1.884 4.25 4.11 4.25 2.226 0 4.11-1.948 4.11-4.25s-1.884-4.249-4.11-4.249zM91.624 267.85c-4.624 0-8.392-3.895-8.392-8.676 0-4.781 3.768-8.676 8.392-8.676s8.392 3.895 8.392 8.676c0 4.781-3.768 8.676-8.392 8.676zm0-16.29c-4.11 0-7.364 3.365-7.364 7.614s3.254 7.614 7.364 7.614c4.11 0 7.364-3.365 7.364-7.614s-3.254-7.614-7.364-7.614zM33.74 267.85c-4.625 0-8.392-3.895-8.392-8.676 0-4.781 3.767-8.676 8.391-8.676 4.625 0 8.392 3.895 8.392 8.676 0 4.781-3.767 8.676-8.392 8.676zm0-16.29c-4.11 0-7.365 3.364-7.365 7.614 0 4.249 3.254 7.614 7.364 7.614 4.11 0 7.365-3.365 7.365-7.614 0-4.25-3.254-7.614-7.365-7.614zm77.755-9.738c-4.624 0-8.391-3.895-8.391-8.676 0-4.78 3.767-8.676 8.391-8.676 4.624 0 8.392 3.896 8.392 8.676 0 4.781-3.768 8.676-8.392 8.676zm0-16.289c-4.11 0-7.364 3.364-7.364 7.613 0 4.25 3.254 7.614 7.364 7.614 4.111 0 7.365-3.364 7.365-7.614 0-4.072-3.254-7.613-7.365-7.613zm-83.922-13.28c-4.453 0-8.05-3.719-8.05-8.322 0-4.604 3.597-8.322 8.05-8.322 4.453 0 8.049 3.718 8.049 8.322-.171 4.603-3.768 8.322-8.05 8.322zm0-15.582c-3.94 0-7.022 3.365-7.022 7.26 0 4.072 3.254 7.259 7.022 7.259 3.939 0 7.021-3.364 7.021-7.259 0-3.895-3.254-7.26-7.021-7.26zm14.39-9.561c-4.453 0-8.049-3.718-8.049-8.322 0-4.604 3.596-8.322 8.05-8.322 4.452 0 8.049 3.718 8.049 8.322 0 4.604-3.597 8.322-8.05 8.322zm0-15.581c-3.939 0-7.021 3.364-7.021 7.259 0 4.072 3.254 7.26 7.021 7.26 3.94 0 7.022-3.365 7.022-7.26.171-4.072-3.083-7.259-7.022-7.259zm113.71 35.59c-4.624 0-8.392-3.896-8.392-8.677 0-4.78 3.768-8.676 8.392-8.676s8.392 3.896 8.392 8.676c0 4.781-3.768 8.677-8.392 8.677zm0-16.29c-4.11 0-7.364 3.364-7.364 7.613 0 4.25 3.254 7.614 7.364 7.614 4.11 0 7.364-3.364 7.364-7.614 0-4.249-3.254-7.613-7.364-7.613z" fill="#9D90D0"/><path d="M69.876 299.544l-.685-.708 14.558-15.228h26.031l15.756-16.289h9.933l32.369-33.465h10.447l22.606-23.195h20.551v.885h-20.208l-22.436 23.195H168.18l-32.368 33.465h-9.762l-15.927 16.467H84.091l-14.215 14.873z" fill="#F7F7F7"/><path d="M142.321 258.82H99.506v.885h42.815v-.885zm-81.006 22.664c-2.226 0-4.11-1.948-4.11-4.249 0-2.302 1.884-4.25 4.11-4.25 2.227 0 4.11 1.948 4.11 4.25 0 2.301-1.883 4.249-4.11 4.249zm0-7.614c-1.712 0-3.254 1.417-3.254 3.365 0 1.77 1.37 3.364 3.254 3.364s3.254-1.417 3.254-3.364c0-1.771-1.541-3.365-3.254-3.365zm-6.855-4.249c-2.227 0-4.11-1.948-4.11-4.25s1.883-4.249 4.11-4.249c2.226 0 4.11 1.947 4.11 4.249 0 2.302-1.884 4.25-4.11 4.25zm0-7.614c-1.713 0-3.254 1.417-3.254 3.364 0 1.771 1.37 3.364 3.254 3.364 1.712 0 3.254-1.416 3.254-3.364-.171-1.947-1.541-3.364-3.254-3.364zm-10.274 26.382c-2.226 0-4.11-1.948-4.11-4.249 0-2.302 1.884-4.25 4.11-4.25 2.227 0 4.11 1.948 4.11 4.25 0 2.301-1.883 4.249-4.11 4.249zm0-7.614c-1.712 0-3.254 1.417-3.254 3.365 0 1.947 1.37 3.364 3.254 3.364 1.713 0 3.254-1.417 3.254-3.364 0-1.948-1.54-3.365-3.254-3.365zm-2.224-59.846c-2.911 0-5.138-2.302-5.138-5.312 0-3.01 2.227-5.312 5.138-5.312s5.138 2.302 5.138 5.312c0 3.01-2.227 5.312-5.138 5.312zm0-9.562c-2.398 0-4.282 1.948-4.282 4.427 0 2.479 1.884 4.426 4.282 4.426s4.282-1.947 4.282-4.426-1.884-4.427-4.282-4.427zm52.404 7.26c-2.911 0-5.138-2.302-5.138-5.312 0-3.01 2.227-5.312 5.138-5.312 2.912 0 5.138 2.302 5.138 5.312 0 3.01-2.226 5.312-5.138 5.312zm0-9.738c-2.397 0-4.281 1.947-4.281 4.426s1.884 4.427 4.281 4.427c2.398 0 4.282-1.948 4.282-4.427 0-2.302-1.884-4.426-4.282-4.426zm-89.228-12.04c-2.912 0-5.138-2.302-5.138-5.312 0-3.01 2.226-5.312 5.138-5.312 2.911 0 5.138 2.302 5.138 5.312 0 3.01-2.227 5.312-5.138 5.312zm0-9.562c-2.398 0-4.282 1.948-4.282 4.427 0 2.479 1.884 4.426 4.282 4.426 2.397 0 4.281-1.947 4.281-4.426s-1.884-4.427-4.281-4.427zm107.549 12.571c-2.741 0-4.967-2.301-5.138-5.134 0-1.417.342-2.833 1.37-3.896.856-1.062 2.226-1.593 3.596-1.77 1.37 0 2.741.354 3.768 1.416 1.028.885 1.541 2.302 1.713 3.718 0 1.417-.343 2.833-1.37 3.896-.857 1.062-2.227 1.593-3.597 1.77h-.342zm0-9.738h-.172a3.614 3.614 0 00-2.911 1.416c-.685.886-1.199 1.948-1.028 3.188.172 2.478 2.056 4.249 4.453 4.072 2.398-.177 4.11-2.125 3.939-4.604-.171-2.301-2.055-4.072-4.281-4.072zm28.433 55.066c-2.74 0-4.967-2.302-5.138-5.134-.171-3.011 2.055-5.489 4.966-5.489 1.371 0 2.741.354 3.768 1.416 1.028.885 1.542 2.302 1.713 3.718.171 3.01-2.055 5.489-4.967 5.489h-.342zm0-9.738h-.172c-2.397.177-4.11 2.125-3.939 4.604.172 2.478 2.056 4.249 4.453 4.072 2.398-.177 4.111-2.125 3.939-4.604-.171-2.301-2.055-4.072-4.281-4.072zm-93.335-70.825c-1.712 0-3.254-.708-4.624-1.771-1.37-1.239-2.055-3.01-2.226-4.957-.171-3.896 2.74-7.26 6.508-7.437 1.884-.177 3.596.531 4.966 1.771 1.37 1.239 2.056 3.01 2.227 4.957 0 1.948-.514 3.719-1.713 5.135-1.199 1.417-2.911 2.125-4.795 2.302h-.343zm0-13.103h-.342c-3.254.177-5.823 3.01-5.652 6.375 0 1.593.685 3.187 1.884 4.249 1.199 1.062 2.74 1.594 4.282 1.594a5.398 5.398 0 004.11-1.948c1.027-1.239 1.541-2.833 1.541-4.427 0-1.593-.685-3.187-1.884-4.249-1.027-1.062-2.397-1.594-3.939-1.594zm14.724 26.383c-1.199 0-2.569-.531-3.425-1.416-1.028-.886-1.542-2.302-1.713-3.718 0-1.417.343-2.833 1.37-3.896.856-1.062 2.227-1.593 3.597-1.77 1.37 0 2.74.354 3.767 1.416 1.028.885 1.542 2.302 1.713 3.718 0 1.417-.343 2.833-1.37 3.896-.856 1.062-2.226 1.593-3.597 1.77h-.342zm0-9.738h-.171c-2.398.177-4.11 2.125-3.94 4.604 0 1.239.514 2.301 1.37 3.01.857.708 1.885 1.239 3.083 1.062 2.398-.177 4.11-2.125 3.94-4.604-.172-2.124-2.056-4.072-4.282-4.072zM22.95 232.792c-2.911 0-5.137-2.302-5.137-5.312 0-3.01 2.226-5.311 5.137-5.311 2.912 0 5.138 2.301 5.138 5.311s-2.226 5.312-5.138 5.312zm0-9.561c-2.397 0-4.281 1.948-4.281 4.426 0 2.479 1.884 4.427 4.281 4.427 2.398 0 4.282-1.948 4.282-4.427 0-2.478-1.884-4.426-4.282-4.426zm-2.916 26.736c-2.911 0-5.137-2.302-5.137-5.312 0-3.01 2.226-5.312 5.137-5.312 2.912 0 5.138 2.302 5.138 5.312 0 2.833-2.398 5.312-5.138 5.312zm0-9.738c-2.397 0-4.281 1.947-4.281 4.426s1.884 4.427 4.281 4.427c2.398 0 4.282-1.948 4.282-4.427-.171-2.479-2.055-4.426-4.282-4.426zm159.443-41.964h-15.756v-.885h15.242l14.9-15.405.685.708-15.071 15.582zm-55.486 35.412h-4.624v-.885h4.282l27.059-27.976.685.708-27.402 28.153zm-71.578 18.769H37.342v-.886H52.07l17.983-18.591h33.567v.885H70.395l-17.982 18.592z" fill="#9D90D0"/><path d="M77.235 198.265H31.68v-.885h45.213l14.728-15.405H213.73v1.063H91.964l-14.729 15.227z" fill="#F7F7F7"/><path d="M99.338 182.86L75.36 158.072H54.125v-1.063h21.579l.171.177 24.148 24.966-.685.708zm-49.84-36.651c-2.398 0-4.453-2.125-4.453-4.604s2.055-4.603 4.453-4.603c2.397 0 4.453 2.124 4.453 4.603 0 2.479-1.884 4.604-4.453 4.604zm0-8.322c-1.884 0-3.597 1.594-3.597 3.718 0 1.948 1.542 3.719 3.597 3.719 1.884 0 3.596-1.594 3.596-3.719 0-2.124-1.541-3.718-3.596-3.718zm14.554 5.135c-3.425 0-6.165-2.833-6.165-6.374 0-3.542 2.74-6.375 6.165-6.375s6.165 2.833 6.165 6.375c-.17 3.541-2.91 6.374-6.165 6.374zm0-11.686c-2.911 0-5.138 2.479-5.138 5.312 0 3.01 2.398 5.312 5.138 5.312 2.911 0 5.138-2.479 5.138-5.312 0-3.01-2.398-5.312-5.138-5.312zm3.259-6.729c-4.624 0-8.563-3.895-8.563-8.853s3.768-8.853 8.563-8.853c4.624 0 8.563 3.895 8.563 8.853s-3.768 8.853-8.563 8.853zm0-16.644c-4.11 0-7.535 3.541-7.535 7.791 0 4.249 3.425 7.791 7.535 7.791s7.536-3.542 7.536-7.791c.17-4.25-3.254-7.791-7.536-7.791zm20.884 13.28c-2.912 0-5.138-2.302-5.138-5.312 0-3.01 2.226-5.311 5.138-5.311 2.91 0 5.137 2.301 5.137 5.311 0 2.833-2.226 5.312-5.137 5.312zm0-9.738c-2.398 0-4.282 1.948-4.282 4.426 0 2.479 1.884 4.427 4.282 4.427 2.397 0 4.281-1.948 4.281-4.427 0-2.478-1.884-4.426-4.281-4.426zM81.009 96.1c-3.083 0-5.652-2.655-5.652-5.842s2.57-5.843 5.652-5.843c3.083 0 5.652 2.656 5.652 5.843S84.09 96.1 81.009 96.1zm0-10.977c-2.569 0-4.795 2.302-4.795 4.958s2.226 4.957 4.795 4.957 4.795-2.301 4.795-4.957c-.17-2.656-2.226-4.958-4.795-4.958zm9.414-.709c-2.912 0-5.138-2.479-5.138-5.312 0-3.01 2.398-5.312 5.138-5.312 2.911 0 5.138 2.48 5.138 5.312 0 3.01-2.227 5.312-5.138 5.312zm0-9.561c-2.226 0-4.11 1.947-4.11 4.25 0 2.3 1.884 4.249 4.11 4.249 2.226 0 4.11-1.948 4.11-4.25.171-2.302-1.712-4.25-4.11-4.25zm59.941 35.944c-4.624 0-8.391-3.896-8.391-8.676 0-4.781 3.767-8.676 8.391-8.676 4.624 0 8.392 3.895 8.392 8.676-.171 4.78-3.939 8.676-8.392 8.676zm0-16.29c-4.11 0-7.364 3.364-7.364 7.614 0 4.249 3.254 7.613 7.364 7.613 4.111 0 7.365-3.364 7.365-7.613 0-4.25-3.426-7.614-7.365-7.614zm-30.14-31.871c-2.74 0-5.138-2.302-5.138-5.312 0-2.833 2.226-5.311 5.138-5.311 2.74 0 5.138 2.301 5.138 5.311 0 2.833-2.398 5.312-5.138 5.312zm0-9.561c-2.227 0-4.11 1.947-4.11 4.25 0 2.301 1.883 4.249 4.11 4.249 2.226 0 4.11-1.948 4.11-4.25 0-2.301-1.884-4.25-4.11-4.25z" fill="#9D90D0"/><path d="M172.633 144.793c-.172-.177-.514-.531-.172-18.592l-17.297-17.883.685-.708 17.469 18.06v.177c-.172 6.551-.172 17.352 0 18.238l-.343.177-.342.531zm-28.085-48.161L126.565 78.04V64.76l-3.596-3.54.685-.71 3.768 3.896v13.28l17.811 18.237-.685.709zm27.735 86.229l-15.584-16.112h-33.91v-1.063h34.252l.172.177 15.756 16.29-.686.708z" fill="#9D90D0"/><path d="M150.366 166.925l-24.833-25.851h-25.69v-.885h26.204v.177l25.004 25.851-.685.708zm-36.479 4.25c-5.309 0-9.59-4.426-9.59-9.915 0-5.489 4.281-9.916 9.59-9.916 5.31 0 9.591 4.427 9.591 9.916 0 5.312-4.281 9.915-9.591 9.915zm0-19.122c-4.795 0-8.734 4.072-8.734 9.03 0 4.957 3.939 9.03 8.734 9.03 4.796 0 8.735-4.073 8.735-9.03 0-4.958-3.939-9.03-8.735-9.03zm-26.542-17.176l-13.359-13.811.514-.708 13.53 13.811-.685.708zm83.061 116.86c-2.74 0-4.967-2.301-4.967-5.134s2.227-5.135 4.967-5.135c2.74 0 4.967 2.302 4.967 5.135 0 2.833-2.227 5.134-4.967 5.134zm0-9.207c-2.226 0-3.939 1.771-3.939 4.073 0 2.301 1.713 4.072 3.939 4.072s3.939-1.771 3.939-4.072c0-2.302-1.713-4.073-3.939-4.073zm2.225 31.34c-2.741 0-4.967-2.302-4.967-5.134 0-2.833 2.226-5.135 4.967-5.135 2.74 0 4.966 2.302 4.966 5.135 0 2.832-2.226 5.134-4.966 5.134zm0-9.207c-2.227 0-3.939 1.771-3.939 4.073 0 2.301 1.712 4.072 3.939 4.072 2.226 0 3.939-1.771 3.939-4.072 0-2.125-1.713-4.073-3.939-4.073zm-1.539 34.526c-4.796 0-8.735-4.072-8.735-9.03 0-4.958 3.939-9.03 8.735-9.03 4.795 0 8.734 4.072 8.734 9.03 0 4.958-3.939 9.03-8.734 9.03zm0-16.998c-4.282 0-7.707 3.541-7.707 7.968 0 4.426 3.425 7.968 7.707 7.968 4.281 0 7.706-3.542 7.706-7.968 0-4.427-3.425-7.968-7.706-7.968zm42.127 11.333c-2.741 0-4.967-2.301-4.967-5.134s2.226-5.135 4.967-5.135c2.74 0 4.966 2.302 4.966 5.135-.171 2.833-2.398 5.134-4.966 5.134zm0-9.03c-2.227 0-3.939 1.771-3.939 4.073 0 2.301 1.712 4.072 3.939 4.072 2.226 0 3.939-1.771 3.939-4.072 0-2.302-1.884-4.073-3.939-4.073z" fill="#9D90D0"/><path d="M177.941 284.671l-.685-.531 17.982-18.592h16.613v.886h-16.27l-17.64 18.237z" fill="#9D90D0"/><path d="M130.325 290.159h-.856v-6.551l5.994-6.197v-9.561h.856v9.915l-5.994 6.197v6.197z" fill="#F7F7F7"/><path d="M54.458 335.842c-3.425 0-6.165-2.833-6.165-6.375 0-3.541 2.74-6.374 6.165-6.374 3.426 0 6.166 2.833 6.166 6.374 0 3.542-2.74 6.375-6.166 6.375zm0-11.864c-2.911 0-5.309 2.479-5.309 5.489s2.398 5.489 5.31 5.489c2.91 0 5.308-2.479 5.308-5.489s-2.397-5.489-5.309-5.489zm40.084-6.905c-4.11 0-7.364-3.364-7.364-7.614 0-4.249 3.254-7.613 7.364-7.613 4.11 0 7.364 3.364 7.364 7.613 0 4.25-3.254 7.614-7.364 7.614zm0-14.165c-3.597 0-6.508 3.01-6.508 6.729 0 3.718 2.911 6.728 6.508 6.728 3.596 0 6.508-3.01 6.508-6.728 0-3.896-2.912-6.729-6.508-6.729z" fill="#9D90D0"/><path d="M99.84 304.856l-.514-.532 10.105-10.623v-9.562h1.027v9.916l-.171.177-10.447 10.624z" fill="#9D90D0"/><path d="M221.78 406.489h-.856v-33.465l24.148-24.965.685.708-23.977 24.788v32.934z" fill="#F7F7F7"/><path d="M221.442 420.477c-4.11 0-7.364-3.364-7.364-7.613 0-4.25 3.254-7.614 7.364-7.614 4.111 0 7.365 3.364 7.365 7.614 0 4.249-3.254 7.613-7.365 7.613zm0-14.165c-3.596 0-6.336 3.011-6.336 6.552 0 3.718 2.911 6.551 6.336 6.551 3.426 0 6.337-3.01 6.337-6.551.171-3.719-2.74-6.552-6.337-6.552zm42.133-59.847c-2.226 0-4.11-1.947-4.11-4.249 0-2.302 1.884-4.25 4.11-4.25 2.226 0 4.11 1.948 4.11 4.25 0 2.479-1.884 4.249-4.11 4.249zm0-7.436c-1.713 0-3.083 1.416-3.083 3.187s1.37 3.187 3.083 3.187 3.083-1.416 3.083-3.187-1.37-3.187-3.083-3.187zm-7.707-1.594c-2.226 0-4.11-1.947-4.11-4.249 0-2.302 1.884-4.25 4.11-4.25 2.226 0 4.11 1.948 4.11 4.25-.171 2.479-1.884 4.249-4.11 4.249zm0-7.436c-1.713 0-3.083 1.416-3.083 3.187 0 1.77 1.37 3.187 3.083 3.187s3.083-1.417 3.083-3.187c0-1.771-1.37-3.187-3.083-3.187zm27.054 35.589h-.857v-19.477l-18.838-19.3.685-.708 19.01 19.654v19.831z" fill="#9D90D0"/><path d="M275.215 356.735h-1.028v-11.332l-10.96-11.155.685-.708 11.303 11.509v11.686zm7.192 16.644c-2.226 0-4.11-1.948-4.11-4.249 0-2.302 1.884-4.25 4.11-4.25 2.227 0 4.11 1.948 4.11 4.25 0 2.478-1.883 4.249-4.11 4.249zm0-7.437c-1.712 0-3.083 1.417-3.083 3.188 0 1.77 1.371 3.187 3.083 3.187 1.713 0 3.083-1.417 3.083-3.187 0-1.771-1.37-3.188-3.083-3.188z" fill="#9D90D0"/><path d="M274.702 364.525c-2.226 0-4.11-1.947-4.11-4.249 0-2.302 1.884-4.25 4.11-4.25 2.226 0 4.11 1.948 4.11 4.25-.171 2.302-1.884 4.249-4.11 4.249zm0-7.613c-1.713 0-3.083 1.416-3.083 3.187s1.37 3.187 3.083 3.187 3.083-1.416 3.083-3.187-1.37-3.187-3.083-3.187zm3.082-19.3c-2.226 0-4.11-1.947-4.11-4.249 0-2.302 1.884-4.249 4.11-4.249 2.227 0 4.11 1.947 4.11 4.249-.171 2.479-1.883 4.249-4.11 4.249zm0-7.436c-1.712 0-3.083 1.416-3.083 3.187s1.371 3.187 3.083 3.187c1.713 0 3.083-1.416 3.083-3.187 0-1.594-1.37-3.187-3.083-3.187zm50.35-7.791h-.856v-6.551l-29.457-30.455v-10.624l-26.032-26.736v-12.394h.856v12.04l26.032 26.736v10.447l29.457 30.631v6.906zm-38.364-22.841l-9.591-9.916v-15.581l-22.949-23.549v-14.873h1.028v14.342l22.949 23.726v15.404l9.248 9.739-.685.708zm17.991 19.831h-.856v-4.25l-9.077-9.384.685-.708 9.248 9.561v4.781z" fill="#9D90D0"/><path d="M294.392 308.043c-3.083 0-5.652-2.656-5.652-5.843s2.569-5.843 5.652-5.843 5.651 2.656 5.651 5.843-2.397 5.843-5.651 5.843zm0-10.801c-2.569 0-4.795 2.125-4.795 4.958s2.055 4.957 4.795 4.957c2.569 0 4.795-2.124 4.795-4.957 0-2.833-2.055-4.958-4.795-4.958zm13.024 29.747c-2.227 0-3.939-1.771-3.939-4.073 0-2.302 1.712-4.072 3.939-4.072 2.226 0 3.939 1.77 3.939 4.072-.172 2.302-1.884 4.073-3.939 4.073zm0-7.083c-1.713 0-2.912 1.417-2.912 3.01 0 1.771 1.37 3.01 2.912 3.01 1.712 0 2.911-1.416 2.911-3.01 0-1.593-1.37-3.01-2.911-3.01zm41.271-6.728h-13.358l-7.878-8.145h-10.447v-.886h10.961l7.878 8.145h12.844v.886z" fill="#9D90D0"/><path d="M352.451 317.251c-2.398 0-4.453-1.948-4.453-4.604 0-2.479 1.884-4.603 4.453-4.603 2.397 0 4.453 1.947 4.453 4.603-.172 2.656-2.056 4.604-4.453 4.604zm0-8.145c-1.884 0-3.425 1.594-3.425 3.541 0 1.948 1.541 3.541 3.425 3.541s3.425-1.593 3.425-3.541c0-1.947-1.541-3.541-3.425-3.541zm-36.647-21.602c-2.397 0-4.452-1.948-4.452-4.604 0-2.479 1.883-4.604 4.452-4.604 2.398 0 4.453 1.948 4.453 4.604-.171 2.656-2.055 4.604-4.453 4.604zm0-7.968c-1.884 0-3.425 1.593-3.425 3.541s1.541 3.541 3.425 3.541 3.426-1.593 3.426-3.541-1.542-3.541-3.426-3.541zm28.438 16.644c-2.398 0-4.453-1.948-4.453-4.604 0-2.479 1.884-4.604 4.453-4.604 2.398 0 4.453 1.948 4.453 4.604-.172 2.656-2.055 4.604-4.453 4.604zm0-7.968c-1.884 0-3.425 1.593-3.425 3.541s1.541 3.541 3.425 3.541 3.425-1.593 3.425-3.541-1.541-3.541-3.425-3.541z" fill="#9D90D0"/><path d="M316.147 279.005h-.857v-7.968l-9.419-9.738h-20.723v-.886h21.066l9.933 10.27v8.322z" fill="#9D90D0"/><path d="M341.493 288.92l-29.8-30.809h-29.97v-.885h30.484l29.8 30.986-.514.708z" fill="#F7F7F7"/><path d="M366.846 273.162l-.685-.708 4.624-4.604v-7.614l-14.728-15.05h-18.668v-.177l-15.927-16.29v-11.154l-5.994-6.021h-17.64v-.885h18.154l6.336 6.551v10.978l15.585 16.113h18.668l15.071 15.581v8.322l-4.796 4.958z" fill="#9D90D0"/><path d="M331.558 255.456l-7.878-7.968V230.49h1.027v16.467l7.536 7.79-.685.709z" fill="#F7F7F7"/><path d="M405.373 263.069l-11.989-12.394h-31.683v-.886h32.197l11.988 12.572-.513.708zm-58.571-35.058l-5.31-5.488h-19.523v-.886h20.037l5.481 5.666-.685.708z" fill="#9D90D0"/><path d="M350.058 235.625c-2.569 0-4.624-2.125-4.624-4.781 0-2.656 2.055-4.78 4.624-4.78 2.569 0 4.624 2.124 4.624 4.78s-2.055 4.781-4.624 4.781zm0-8.676c-2.056 0-3.768 1.771-3.768 3.895 0 2.125 1.712 3.896 3.768 3.896 2.055 0 3.767-1.771 3.767-3.896 0-2.124-1.712-3.895-3.767-3.895zm58.396 44.974c-2.912 0-5.309-2.479-5.309-5.489s2.397-5.489 5.309-5.489c2.911 0 5.309 2.479 5.309 5.489s-2.398 5.489-5.309 5.489zm0-9.916c-2.398 0-4.282 1.948-4.282 4.427 0 2.478 1.884 4.426 4.282 4.426 2.397 0 4.281-1.948 4.281-4.426.171-2.302-1.884-4.427-4.281-4.427zm-45.719 23.195c-3.768 0-6.85-3.187-6.85-7.082 0-3.896 3.082-7.083 6.85-7.083s6.851 3.187 6.851 7.083c0 3.895-3.083 7.082-6.851 7.082zm0-13.28c-3.254 0-5.994 2.833-5.994 6.198 0 3.364 2.74 6.197 5.994 6.197 3.254 0 5.994-2.833 5.994-6.197 0-3.365-2.74-6.198-5.994-6.198zm75.69-.354c-4.281 0-7.706-3.541-7.706-7.968 0-4.426 3.425-7.967 7.706-7.967 4.282 0 7.707 3.541 7.707 7.967 0 4.427-3.425 7.968-7.707 7.968zm0-14.873c-3.767 0-6.679 3.187-6.679 6.905 0 3.896 3.083 6.906 6.679 6.906 3.768 0 6.68-3.187 6.68-6.906.171-3.895-2.912-6.905-6.68-6.905zm-47.603-35.412c-4.282 0-7.707-3.541-7.707-7.968 0-4.426 3.425-7.967 7.707-7.967 4.281 0 7.707 3.541 7.707 7.967 0 4.427-3.426 7.968-7.707 7.968zm0-14.873c-3.768 0-6.679 3.187-6.679 6.905 0 3.896 3.082 6.906 6.679 6.906 3.768 0 6.679-3.187 6.679-6.906.171-3.895-2.911-6.905-6.679-6.905zm-1.545 60.554l-8.392-8.853h-11.989v-.885h12.331l8.735 9.03-.685.708z" fill="#9D90D0"/><path d="M389.109 276.349c-2.74 0-4.966-2.302-4.966-5.135 0-2.833 2.226-5.135 4.966-5.135s4.967 2.302 4.967 5.135c0 2.833-2.227 5.135-4.967 5.135zm0-9.384c-2.226 0-4.11 1.947-4.11 4.249 0 2.302 1.884 4.249 4.11 4.249 2.227 0 4.11-1.947 4.11-4.249 0-2.302-1.883-4.249-4.11-4.249z" fill="#9D90D0"/><path d="M415.134 196.14H295.766v-.885h119.026l11.988-12.572h56.859v1.063h-56.516l-11.989 12.394z" fill="#F7F7F7"/><path d="M383.623 213.847h-35.108l-.172-.178-16.954-17.706.513-.531 16.955 17.352h34.766v1.063zm50.693 44.265h-9.077l-.171-.177-10.447-10.801.685-.708 10.276 10.801h8.734v.885z" fill="#9D90D0"/><path d="M403.834 240.76h-21.75l-.171-.177-25.347-26.205.685-.709 25.347 26.206h21.236v.885zm49.325-18.238h-22.778v-.177l-24.49-25.142.685-.709 24.319 25.143h22.264v.885z" fill="#9D90D0"/><path d="M471.14 202.337h-7.022l-6.508-6.905h-25.518l-5.48 5.843h-15.585v-.886h15.243l5.48-5.843h26.203l6.508 6.729h6.679v1.062zm-29.972 44.088h-6.507l-6.68-7.082h-7.364v-.885h7.707l6.679 6.905h6.165v1.062z" fill="#9D90D0"/><path d="M412.393 247.665c-4.624 0-8.563-3.895-8.563-8.853 0-4.78 3.768-8.853 8.563-8.853 4.624 0 8.563 3.896 8.563 8.853 0 4.958-3.768 8.853-8.563 8.853zm0-16.643c-4.11 0-7.535 3.541-7.535 7.79 0 4.25 3.425 7.791 7.535 7.791s7.536-3.541 7.536-7.791c.171-4.249-3.254-7.79-7.536-7.79zm52.922 15.227l-5.309-5.666h-5.994l-17.469-18.238.685-.531 17.297 17.883h5.823L466 245.54l-.685.709zm-20.375 4.072c-2.398 0-4.282-1.948-4.282-4.427 0-2.478 1.884-4.426 4.282-4.426 2.397 0 4.281 1.948 4.281 4.426.172 2.479-1.884 4.427-4.281 4.427zm0-7.968c-1.884 0-3.425 1.594-3.425 3.541 0 1.948 1.541 3.542 3.425 3.542s3.425-1.594 3.425-3.542c0-1.947-1.541-3.541-3.425-3.541z" fill="#9D90D0"/><path d="M467.885 255.456c-2.912 0-5.481-2.479-5.481-5.666 0-3.01 2.398-5.666 5.481-5.666 2.911 0 5.48 2.479 5.48 5.666 0 3.187-2.398 5.666-5.48 5.666zm0-10.27c-2.398 0-4.453 2.125-4.453 4.604s2.055 4.604 4.453 4.604c2.397 0 4.452-2.125 4.452-4.604s-1.883-4.604-4.452-4.604zm-3.939-10.269h-15.071v-.886h14.728l25.518-26.559.685.708-25.86 26.737z" fill="#9D90D0"/><path d="M492.716 209.774c-2.911 0-5.138-2.478-5.138-5.311 0-3.01 2.398-5.312 5.138-5.312 2.911 0 5.138 2.479 5.138 5.312s-2.398 5.311-5.138 5.311zm0-9.915c-2.398 0-4.282 1.948-4.282 4.427 0 2.478 1.884 4.426 4.282 4.426s4.281-1.948 4.281-4.426c0-2.479-2.055-4.427-4.281-4.427zm-49.836 12.217c-2.911 0-5.138-2.479-5.138-5.312 0-3.01 2.398-5.312 5.138-5.312 2.911 0 5.138 2.479 5.138 5.312s-2.227 5.312-5.138 5.312zm0-9.739c-2.398 0-4.282 1.948-4.282 4.427 0 2.479 1.884 4.426 4.282 4.426s4.282-1.947 4.282-4.426-1.884-4.427-4.282-4.427zm31.852 4.781c-2.912 0-5.138-2.479-5.138-5.312s2.397-5.312 5.138-5.312c2.911 0 5.137 2.479 5.137 5.312s-2.226 5.312-5.137 5.312zm0-9.738c-2.398 0-4.282 1.947-4.282 4.426s1.884 4.427 4.282 4.427c2.397 0 4.281-1.948 4.281-4.427 0-2.479-1.884-4.426-4.281-4.426zm-16.269 30.454c-3.596 0-6.508-3.01-6.508-6.728s2.912-6.728 6.508-6.728c3.597 0 6.508 3.01 6.508 6.728s-2.911 6.728-6.508 6.728zm0-12.394c-3.083 0-5.652 2.656-5.652 5.843s2.569 5.843 5.652 5.843 5.652-2.656 5.652-5.843c-.172-3.364-2.569-5.843-5.652-5.843z" fill="#9D90D0"/><path d="M438.256 206.233H415.82v.885h22.436v-.885zm53.435-17.706c-5.823 0-10.447-4.781-10.447-10.801 0-6.02 4.624-10.801 10.447-10.801 5.823 0 10.447 4.781 10.447 10.801 0 5.843-4.795 10.801-10.447 10.801zm0-20.717c-5.309 0-9.419 4.427-9.419 9.739 0 5.489 4.281 9.738 9.419 9.738 5.309 0 9.419-4.426 9.419-9.738 0-5.312-4.281-9.739-9.419-9.739zm-132.385 27.977l-.685-.708 24.833-25.674h27.573v1.062h-27.231l-24.49 25.32z" fill="#9D90D0"/><path d="M365.642 195.963l-.685-.708 10.789-11.155h11.646v1.062H376.26l-10.618 10.801zm49.494-20.362c-2.569 0-4.624-2.125-4.624-4.781 0-2.656 2.055-4.781 4.624-4.781 2.569 0 4.624 2.125 4.624 4.781 0 2.656-2.055 4.781-4.624 4.781zm0-8.499c-2.055 0-3.597 1.77-3.597 3.718 0 2.125 1.713 3.718 3.597 3.718 2.055 0 3.596-1.77 3.596-3.718s-1.541-3.718-3.596-3.718zm-123.823-63.388c-2.569 0-4.795-2.124-4.795-4.957 0-2.833 2.055-4.958 4.795-4.958 2.569 0 4.795 2.125 4.795 4.958s-2.055 4.957-4.795 4.957zm0-8.853c-2.055 0-3.768 1.77-3.768 3.896 0 2.124 1.713 3.895 3.768 3.895 2.055 0 3.768-1.771 3.768-3.895 0-2.125-1.542-3.896-3.768-3.896zM336.7 49.18c-2.569 0-4.796-2.126-4.796-4.959 0-2.656 2.055-4.957 4.796-4.957 2.569 0 4.795 2.124 4.795 4.957 0 2.833-2.226 4.958-4.795 4.958zm0-8.854c-2.055 0-3.768 1.77-3.768 3.895s1.713 3.896 3.768 3.896c2.055 0 3.767-1.77 3.767-3.896 0-2.124-1.712-3.895-3.767-3.895zm-13.014-13.103c-2.569 0-4.795-2.125-4.795-4.958 0-2.656 2.055-4.958 4.795-4.958 2.569 0 4.795 2.125 4.795 4.958s-2.055 4.958-4.795 4.958zm0-8.854c-2.055 0-3.768 1.771-3.768 3.896s1.713 3.895 3.768 3.895c2.055 0 3.768-1.77 3.768-3.895.171-2.125-1.542-3.896-3.768-3.896zm27.228 22.134a8.02 8.02 0 01-5.823-2.479c-3.254-3.364-3.254-8.853 0-12.217a8.18 8.18 0 0111.817 0c3.254 3.364 3.254 8.853 0 12.217-1.713 1.417-3.768 2.479-5.994 2.479zm0-16.29c-2.055 0-3.768.709-5.138 2.302-1.37 1.417-2.226 3.364-2.226 5.312 0 2.125.685 3.895 2.226 5.312 1.37 1.416 3.254 2.302 5.138 2.302 2.055 0 3.767-.709 5.138-2.302 1.37-1.417 2.226-3.364 2.226-5.312 0-2.125-.685-3.895-2.226-5.312-1.371-1.593-3.254-2.302-5.138-2.302zm117.657 142.358c-2.569 0-4.624-2.125-4.624-4.781 0-2.656 2.055-4.781 4.624-4.781 2.569 0 4.624 2.125 4.624 4.781 0 2.656-2.055 4.781-4.624 4.781zm0-8.499c-2.055 0-3.596 1.77-3.596 3.718 0 2.125 1.712 3.718 3.596 3.718 2.055 0 3.597-1.77 3.597-3.718 0-2.125-1.542-3.718-3.597-3.718zm27.059-15.228c-2.569 0-4.624-2.124-4.624-4.78s2.055-4.781 4.624-4.781c2.569 0 4.624 2.125 4.624 4.781 0 2.656-2.055 4.78-4.624 4.78zm0-8.499c-2.055 0-3.597 1.771-3.597 3.719 0 2.124 1.713 3.718 3.597 3.718 2.055 0 3.596-1.771 3.596-3.718 0-1.948-1.541-3.719-3.596-3.719zm-12.672.887c-2.569 0-4.624-2.125-4.624-4.781 0-2.656 2.055-4.781 4.624-4.781 2.569 0 4.624 2.125 4.624 4.781 0 2.656-2.055 4.781-4.624 4.781zm0-8.499c-2.055 0-3.596 1.77-3.596 3.718 0 2.125 1.712 3.718 3.596 3.718 2.055 0 3.597-1.77 3.597-3.718s-1.542-3.718-3.597-3.718zM467.718 96.1c-2.569 0-4.624-2.124-4.624-4.78s2.055-4.78 4.624-4.78c2.569 0 4.624 2.124 4.624 4.78s-2.055 4.78-4.624 4.78zm0-8.498c-2.055 0-3.597 1.77-3.597 3.718 0 2.125 1.713 3.718 3.597 3.718 2.055 0 3.596-1.77 3.596-3.718 0-2.125-1.541-3.718-3.596-3.718zm-42.131.884c-2.569 0-4.624-2.125-4.624-4.78 0-2.657 2.055-4.781 4.624-4.781 2.569 0 4.624 2.124 4.624 4.78s-2.055 4.78-4.624 4.78zm0-8.5c-2.055 0-3.597 1.772-3.597 3.72 0 2.124 1.713 3.718 3.597 3.718 2.055 0 3.596-1.771 3.596-3.719.172-2.124-1.541-3.718-3.596-3.718zM395.103 66.53c-3.082 0-5.48-2.479-5.48-5.666 0-3.187 2.398-5.666 5.48-5.666 3.083 0 5.481 2.48 5.481 5.666 0 3.01-2.398 5.666-5.481 5.666zm0-10.446c-2.568 0-4.624 2.124-4.624 4.78s2.056 4.781 4.624 4.781c2.569 0 4.624-2.125 4.624-4.78 0-2.657-2.055-4.781-4.624-4.781zm-33.234 37.538c-3.083 0-5.48-2.48-5.48-5.666 0-3.187 2.397-5.666 5.48-5.666 3.083 0 5.48 2.479 5.48 5.666 0 3.187-2.397 5.666-5.48 5.666zm0-10.447c-2.569 0-4.624 2.125-4.624 4.78 0 2.657 2.055 4.781 4.624 4.781 2.569 0 4.624-2.124 4.624-4.78-.171-2.656-2.055-4.78-4.624-4.78zm-30.82 24.08c-4.624 0-8.563-3.896-8.563-8.853 0-4.781 3.768-8.853 8.563-8.853 4.796 0 8.563 3.895 8.563 8.852-.171 4.958-3.939 8.854-8.563 8.854zm0-16.644c-4.11 0-7.535 3.541-7.535 7.79 0 4.25 3.425 7.791 7.535 7.791 4.111 0 7.536-3.541 7.536-7.79 0-4.25-3.425-7.791-7.536-7.791zm45.379-12.394c-3.083 0-5.481-2.48-5.481-5.666 0-3.187 2.398-5.666 5.481-5.666 3.082 0 5.48 2.479 5.48 5.666 0 3.187-2.569 5.666-5.48 5.666zm0-10.447c-2.569 0-4.624 2.125-4.624 4.78 0 2.657 2.055 4.782 4.624 4.782 2.568 0 4.624-2.125 4.624-4.781-.172-2.656-2.056-4.78-4.624-4.78zm24.834-17.882c-3.597 0-6.508-3.01-6.508-6.729 0-3.718 2.911-6.728 6.508-6.728 3.596 0 6.508 3.01 6.508 6.728-.172 3.718-3.083 6.729-6.508 6.729zm0-12.395c-3.083 0-5.481 2.656-5.481 5.666 0 3.187 2.569 5.666 5.481 5.666 3.082 0 5.48-2.656 5.48-5.666 0-3.187-2.569-5.666-5.48-5.666zM358.45 63.521c-4.967 0-9.077-4.25-9.077-9.384 0-5.135 4.11-9.384 9.077-9.384 4.966 0 9.077 4.25 9.077 9.384 0 5.135-4.111 9.384-9.077 9.384zm0-17.706c-4.453 0-8.049 3.718-8.049 8.322 0 4.603 3.596 8.322 8.049 8.322 4.453 0 8.049-3.719 8.049-8.322 0-4.604-3.596-8.322-8.049-8.322zm-79.295 11.863c-4.967 0-9.077-4.25-9.077-9.384 0-5.135 4.11-9.384 9.077-9.384 4.966 0 9.077 4.249 9.077 9.384 0 5.135-4.111 9.384-9.077 9.384zm0-17.706c-4.453 0-8.049 3.718-8.049 8.322 0 4.603 3.596 8.322 8.049 8.322 4.453 0 8.049-3.719 8.049-8.322 0-4.604-3.596-8.322-8.049-8.322zm-68.676 46.745c-4.966 0-9.077-4.25-9.077-9.385 0-5.134 4.111-9.384 9.077-9.384 4.967 0 9.077 4.25 9.077 9.384-.171 5.135-4.11 9.385-9.077 9.385zm0-17.707c-4.453 0-8.049 3.719-8.049 8.322 0 4.604 3.596 8.322 8.049 8.322 4.453 0 8.049-3.718 8.049-8.322 0-4.603-3.596-8.322-8.049-8.322zm29.465 59.67c-4.967 0-9.077-4.25-9.077-9.385 0-5.134 4.11-9.384 9.077-9.384s9.077 4.25 9.077 9.384c0 5.135-4.11 9.385-9.077 9.385zm0-17.706c-4.453 0-8.049 3.718-8.049 8.321 0 4.604 3.596 8.322 8.049 8.322 4.453 0 8.049-3.718 8.049-8.322 0-4.603-3.596-8.321-8.049-8.321zm-50.181-71.002c-3.768 0-6.851-3.187-6.851-7.082s3.083-7.082 6.851-7.082c3.767 0 6.85 3.187 6.85 7.082s-3.083 7.082-6.85 7.082zm0-13.28c-3.254 0-5.995 2.834-5.995 6.198 0 3.364 2.741 6.197 5.995 6.197s5.994-2.833 5.994-6.197c-.172-3.364-2.74-6.197-5.994-6.197zm-19.875 19.123c-2.912 0-5.138-2.48-5.138-5.312 0-3.01 2.398-5.312 5.138-5.312 2.74 0 5.138 2.479 5.138 5.312.171 2.833-2.227 5.312-5.138 5.312zm0-9.916c-2.398 0-4.282 1.948-4.282 4.427 0 2.478 1.884 4.426 4.282 4.426 2.397 0 4.281-1.948 4.281-4.426 0-2.302-1.884-4.427-4.281-4.427zm-15.925 14.697c-3.597 0-6.508-3.01-6.508-6.729 0-3.718 2.911-6.728 6.508-6.728 3.596 0 6.508 3.01 6.508 6.728 0 3.896-2.912 6.729-6.508 6.729zm0-12.218c-3.083 0-5.48 2.48-5.48 5.666 0 3.187 2.397 5.666 5.48 5.666 3.083 0 5.48-2.479 5.48-5.666 0-3.187-2.397-5.666-5.48-5.666zm104.47 15.05c-4.281 0-7.706-3.54-7.706-7.967s3.425-7.968 7.706-7.968c4.282 0 7.707 3.541 7.707 7.968 0 4.426-3.425 7.968-7.707 7.968zm0-15.05c-3.767 0-6.85 3.187-6.85 7.083 0 3.895 3.083 7.082 6.85 7.082 3.768 0 6.851-3.187 6.851-7.082 0-3.896-3.083-7.083-6.851-7.083zm114.4 6.375c-3.768 0-6.851-3.187-6.851-7.082s3.083-7.082 6.851-7.082 6.85 3.187 6.85 7.082-3.082 7.082-6.85 7.082zm0-13.102c-3.254 0-5.823 2.656-5.823 6.02 0 3.364 2.569 6.02 5.823 6.02 3.254 0 5.823-2.656 5.823-6.02 0-3.187-2.569-6.02-5.823-6.02zm50.356 32.578c-2.569 0-4.625-2.125-4.625-4.78 0-2.657 2.056-4.781 4.625-4.781 2.568 0 4.624 2.124 4.624 4.78s-2.056 4.781-4.624 4.781zm0-8.499c-2.056 0-3.597 1.77-3.597 3.718 0 2.125 1.713 3.719 3.597 3.719 2.055 0 3.596-1.77 3.596-3.719 0-2.124-1.541-3.718-3.596-3.718zm-12.336 23.372c-3.939 0-7.193-3.364-7.193-7.437 0-4.072 3.254-7.436 7.193-7.436 3.939 0 7.193 3.364 7.193 7.436 0 4.073-3.254 7.437-7.193 7.437zm0-13.811c-3.425 0-6.165 2.833-6.165 6.374 0 3.541 2.74 6.374 6.165 6.374s6.165-2.832 6.165-6.374c0-3.541-2.74-6.374-6.165-6.374zm34.087 42.673c-2.912 0-5.309-2.479-5.309-5.489s2.397-5.49 5.309-5.49c2.911 0 5.309 2.48 5.309 5.49 0 3.01-2.398 5.489-5.309 5.489zm0-10.093c-2.398 0-4.453 2.125-4.453 4.604s2.055 4.603 4.453 4.603 4.453-2.124 4.453-4.603c0-2.48-2.055-4.604-4.453-4.604zm2.732-10.801c-4.624 0-8.221-3.896-8.221-8.5 0-4.603 3.768-8.498 8.221-8.498 4.452 0 8.22 3.895 8.22 8.499 0 4.603-3.768 8.499-8.22 8.499zm0-16.113c-4.111 0-7.365 3.364-7.365 7.614s3.254 7.613 7.365 7.613c4.11 0 7.364-3.364 7.364-7.613-.171-4.25-3.425-7.614-7.364-7.614zm40.425 87.469c-2.912 0-5.138-2.479-5.138-5.312 0-3.01 2.398-5.312 5.138-5.312 2.74 0 5.138 2.479 5.138 5.312 0 3.01-2.227 5.312-5.138 5.312zm0-9.738c-2.398 0-4.282 1.947-4.282 4.426s1.884 4.427 4.282 4.427c2.397 0 4.281-1.948 4.281-4.427 0-2.479-1.884-4.426-4.281-4.426zm-165.95 34.35h-24.319v-1.063h23.977l5.137-5.311h15.414v.885h-15.071l-5.138 5.489zm112.511-37.892h-33.224v-.885h32.882l23.805-24.612.685.709-24.148 24.788zm-79.121 28.153l-.685-.708 26.545-27.445h3.596v1.063h-3.254l-26.202 27.09z" fill="#9D90D0"/><path d="M393.221 153.822c-5.138 0-9.248-4.249-9.248-9.561s4.11-9.562 9.248-9.562c5.138 0 9.248 4.25 9.248 9.562 0 5.312-4.11 9.561-9.248 9.561zm0-18.06c-4.624 0-8.221 3.895-8.221 8.499 0 4.78 3.768 8.499 8.221 8.499 4.624 0 8.22-3.896 8.22-8.499 0-4.604-3.596-8.499-8.22-8.499zm27.57-11.154c-5.138 0-9.248-4.25-9.248-9.561 0-5.312 4.11-9.562 9.248-9.562 5.138 0 9.248 4.25 9.248 9.562 0 5.311-4.11 9.561-9.248 9.561zm0-18.06c-4.624 0-8.22 3.895-8.22 8.499 0 4.78 3.767 8.499 8.22 8.499 4.624 0 8.221-3.896 8.221-8.499 0-4.781-3.597-8.499-8.221-8.499zm44.871 23.016c-5.138 0-9.248-4.249-9.248-9.561s4.11-9.561 9.248-9.561c5.138 0 9.248 4.249 9.248 9.561 0 5.135-4.11 9.561-9.248 9.561zm0-18.06c-4.624 0-8.22 3.896-8.22 8.499 0 4.781 3.767 8.499 8.22 8.499 4.624 0 8.221-3.895 8.221-8.499.171-4.781-3.597-8.499-8.221-8.499zm-115.945 77.023c-5.138 0-9.248-4.249-9.248-9.561s4.11-9.561 9.248-9.561c5.138 0 9.248 4.249 9.248 9.561s-4.11 9.561-9.248 9.561zm0-18.06c-4.624 0-8.221 3.895-8.221 8.499 0 4.781 3.768 8.499 8.221 8.499 4.624 0 8.22-3.895 8.22-8.499 0-4.781-3.596-8.499-8.22-8.499zm114.743-8.145h-29.971v-.177l-16.612-16.998.685-.708 16.441 16.821h29.457v1.062z" fill="#9D90D0"/><path d="M443.395 153.646h-8.049l-8.221-8.499.514-.708 8.049 8.322h7.364l17.983-18.769h20.722v.885h-20.209l-18.153 18.769z" fill="#9D90D0"/><path d="M441.681 162.144l-.685-.708 22.949-23.726h27.744v.885h-27.401l-22.607 23.549z" fill="#9D90D0"/><path d="M449.048 162.144l-.685-.708c17.64-18.769 18.154-18.769 18.325-18.769h13.359l5.822 6.021-.685.708-5.651-5.843h-12.845c-1.027.885-11.132 11.509-17.64 18.591zm-141.808 7.26h-11.474v-1.062h11.132l3.082-3.187v-7.791l.172-.177 10.618-10.978h16.098l32.197-33.287h42.987v1.062h-42.644l-32.026 33.11h-16.099l-10.275 10.624v7.791l-3.768 3.895z" fill="#9D90D0"/><path d="M315.289 153.291h-1.027V136.47l.171-.177 14.215-14.696h7.878v.885h-7.536l-13.701 14.342v16.467zm131.532-38.422h-17.298v-.885h16.955l18.839-19.477.685.708-19.181 19.654z" fill="#9D90D0"/><path d="M439.284 109.911h-5.309l-6.851-7.082H412.91l-4.967 5.134h-22.949v-.885h22.435l5.138-5.135h15.071l6.679 6.906h4.624l2.569-2.656.685.531-2.911 3.187z" fill="#9D90D0"/><path d="M380.201 113.63l-.513-.708 16.954-17.707h35.109l10.789-11.154.685.708-11.132 11.509h-34.937l-16.955 17.352z" fill="#9D90D0"/><path d="M415.307 95.747l-.342-.177h-.514c0-.177 0-.354 8.392-8.853l.685.708c-3.083 3.01-7.878 7.968-8.221 8.322zm-17.98-.001h-.856v-9.03l9.59-10.093.685.709-9.419 9.738v8.676zm19.181-27.975l-.514-.708 4.282-4.427.513.709-4.281 4.426zm-60.111 60.201h-1.028v-7.614l5.994-6.197V93.268h1.028v21.425l-5.994 6.197v7.082zm13.359-14.519h-1.027V104.6l7.192-7.437V76.978h1.028v20.716l-7.193 7.26v8.499zm5.484-.178h-1.027v-7.791l9.591-9.916V81.581l.171-.178 10.789-11.154v-4.25h.857v4.78h-.172l-10.618 11.156v13.987l-9.591 9.916v7.437zm2.392-59.315h-10.618v-.885h10.275l10.105-10.447h7.707v1.062h-7.365l-10.104 10.27zm-104.987 89.77h-.856v-11.509l5.652-5.843h9.419l18.154-18.769V89.372l15.071-15.581h20.722l12.845-13.28.685.708-13.187 13.634h-20.723l-14.557 15.05v18.06l-.171.178-18.496 19.122h-9.42l-5.138 5.312v11.155zm92.14-95.436l-.685-.708 5.137-5.135.685.709-5.137 5.134z" fill="#9D90D0"/><path d="M307.93 122.483h-16.27v-.885h15.756l18.154-18.769.685.708-18.325 18.946zm-29.801 4.425h-1.027v-14.519l.171-.177 10.447-10.8.685.708-10.276 10.623v14.165zm40.587-49.931h-.857V64.582l4.282-4.426h12.673l15.585-15.936v-4.25h.856v4.782l-16.098 16.467h-12.674l-3.767 3.896v11.863z" fill="#9D90D0"/><path d="M314.78 80.519h-.856V60.688l7.535-7.968h10.276l4.624-4.604.685.531-4.967 5.135h-10.275l-7.022 7.26v19.477z" fill="#9D90D0"/><path d="M311.015 84.237h-.857V36.962l.171-.177 10.79-11.155.685.708-10.789 10.978v46.921z" fill="#9D90D0"/><path d="M258.949 147.98h-1.027v-37.006l.171-.177 15.756-16.29v-7.436l25.518-26.383V31.12h1.028v29.923l-.172.178-25.518 26.382v7.436l-.171.177-15.585 16.113v36.652z" fill="#F7F7F7"/><path d="M275.216 55.553h-.857v31.694h.857V55.553zm-16.438-1.948h-.856v57.545h.856V53.605z" fill="#9D90D0"/><path d="M258.095 80.696c-.514-.708-15.928-16.467-21.922-22.664l-.171-.177v-31.87h.856V57.5c21.922 22.487 21.922 22.664 21.922 22.841h-.857.514l-.342.354z" fill="#9D90D0"/><path d="M241.306 62.282h-.857v-28.86l6.679-6.906.685.708-6.507 6.551v28.507zm-5.308-17.884l-7.535-7.613h-4.453v-1.063h4.795l7.707 7.968-.514.709z" fill="#9D90D0"/><path d="M250.379 28.64c-2.911 0-5.309-2.478-5.309-5.488 0-3.01 2.398-5.489 5.309-5.489 2.912 0 5.309 2.479 5.309 5.489s-2.397 5.489-5.309 5.489zm0-9.738c-2.397 0-4.281 1.948-4.281 4.427 0 2.479 1.884 4.427 4.281 4.427 2.398 0 4.282-1.948 4.282-4.427 0-2.479-1.884-4.427-4.282-4.427zm-14.203 7.79c-2.911 0-5.309-2.479-5.309-5.489s2.398-5.489 5.309-5.489c2.912 0 5.309 2.479 5.309 5.49.172 3.01-2.226 5.488-5.309 5.488zm0-10.093c-2.397 0-4.453 2.125-4.453 4.604s2.056 4.604 4.453 4.604c2.398 0 4.453-2.125 4.453-4.604 0-2.656-1.884-4.604-4.453-4.604zm-17.299 24.966c-3.083 0-5.481-2.656-5.481-5.666 0-3.01 2.569-5.666 5.481-5.666 3.083 0 5.48 2.655 5.48 5.665 0 3.01-2.397 5.666-5.48 5.666zm0-10.447c-2.569 0-4.624 2.125-4.624 4.78 0 2.656 2.055 4.781 4.624 4.781 2.569 0 4.624-2.125 4.624-4.78 0-2.656-2.055-4.781-4.624-4.781zm25.68 95.791h-.856v19.654h.856v-19.654zm-10.445-12.218l-22.606-23.372v-6.374h.856v5.843l22.435 23.195-.685.708zm-24.146-44.796h-.857V53.43L194.381 38.2l.514-.708 15.071 15.581v16.821zm-31.172.531L157.9 48.647l.685-.53 20.894 21.6-.685.709z" fill="#9D90D0"/><path d="M232.399 155.416h-1.028v-21.425l-52.748-53.296V58.563h.856v21.601l52.92 53.473v21.779z" fill="#F7F7F7"/><path d="M225.726 127.794h-29.971l-9.419-9.561v-7.968h1.027v7.614l8.735 9.03h29.628v.885z" fill="#9D90D0"/><path d="M230.174 132.575H194.38l-18.153-18.769.685-.708 17.982 18.592h35.28v.885zm-40.933-20.893c-2.741 0-4.796-2.302-4.796-4.958 0-2.833 2.227-4.957 4.796-4.957 2.569 0 4.795 2.302 4.795 4.957.171 2.656-2.055 4.958-4.795 4.958zm0-9.03c-2.227 0-3.939 1.771-3.939 4.072 0 2.302 1.712 4.073 3.939 4.073 2.226 0 3.939-1.771 3.939-4.073 0-2.301-1.713-4.072-3.939-4.072zm-22.262-72.418c-2.74 0-4.795-2.302-4.795-4.958 0-2.833 2.226-4.958 4.795-4.958 2.74 0 4.795 2.302 4.795 4.958.171 2.833-2.055 4.958-4.795 4.958zm0-9.03c-2.226 0-3.939 1.77-3.939 4.072s1.713 4.073 3.939 4.073 3.939-1.771 3.939-4.073c0-2.302-1.713-4.072-3.939-4.072zm-2.395 71.533c-2.911 0-5.309-2.479-5.309-5.489s2.398-5.489 5.309-5.489c2.912 0 5.31 2.479 5.31 5.49 0 3.01-2.398 5.488-5.31 5.488zm0-9.738c-2.397 0-4.281 1.947-4.281 4.426s1.884 4.427 4.281 4.427c2.398 0 4.282-1.948 4.282-4.427 0-2.479-1.884-4.426-4.282-4.426zm-26.888-4.605c-2.912 0-5.309-2.479-5.309-5.489s2.397-5.489 5.309-5.489c2.911 0 5.309 2.48 5.309 5.49 0 3.01-2.398 5.488-5.309 5.488zm0-9.738c-2.398 0-4.282 1.947-4.282 4.426 0 2.48 1.884 4.427 4.282 4.427 2.397 0 4.281-1.948 4.281-4.427 0-2.478-1.884-4.426-4.281-4.426zm0-6.021c-2.912 0-5.309-2.479-5.309-5.489s2.397-5.489 5.309-5.489c2.911 0 5.309 2.48 5.309 5.49 0 3.01-2.398 5.488-5.309 5.488zm0-9.915c-2.398 0-4.282 1.947-4.282 4.426 0 2.48 1.884 4.427 4.282 4.427 2.397 0 4.281-1.948 4.281-4.427 0-2.479-1.884-4.426-4.281-4.426z" fill="#9D90D0"/><path d="M172.464 115.4c-3.083 0-5.652-2.656-5.652-5.843s2.569-5.843 5.652-5.843 5.652 2.656 5.652 5.843-2.569 5.843-5.652 5.843zm0-10.624c-2.569 0-4.624 2.125-4.624 4.781 0 2.656 2.055 4.781 4.624 4.781 2.569 0 4.624-2.125 4.624-4.781.171-2.656-2.055-4.781-4.624-4.781zm20.031-10.269h-8.392l-5.48-5.666h-9.248v-.885h9.591l5.48 5.489h8.049v1.062zm-22.604-49.224h-.856v14.873h.856V45.284zm9.245 34.705h-10.618l-6.337-6.374h-19.695V72.55h20.209l6.166 6.375h10.275v1.062z" fill="#9D90D0"/><path d="M179.143 75.384h-9.591l-15.071-15.758h-12.844v-.886h13.187l.171.177L170.066 74.5h9.077v.885zm46.066 81.271h-31.512c-.343 0-.343 0-21.236-21.601l.685-.709c5.48 5.666 19.181 20.008 20.722 21.425h30.313v-16.644h-30.142l-.171-.177-22.606-23.372.685-.708 22.435 23.195h30.827v18.591zm-8.563 5.667h-25.861v.885h25.861v-.885z" fill="#9D90D0"/><path d="M220.417 152.052h-26.032v-.177l-21.75-22.31.685-.708 21.579 22.31h24.661v-5.666h-25.175l-37.506-38.777.685-.708 37.335 38.599h25.518v7.437zm116.797 101.81l-31.683-32.933h-24.662v5.489h25.004l.172.177 18.496 19.122-.685.708-18.325-18.945h-25.689v-7.437h26.031l.172.177 31.854 32.934-.685.708z" fill="#9D90D0"/><path d="M324.2 270.86l-.171-.177.343-.354-.514-.177c.171-.531 0-9.562 0-15.582l-20.552-21.247h-31.34v5.489h31.683l.171.177 17.983 18.591v9.739h-.857v-9.207l-17.64-18.238h-32.197v-7.436h32.711l.171.177 21.066 21.778v.177c.171 16.113.171 16.113-.343 16.29h-.514zM221.439 125.139h-24.148l-7.707-7.791v-6.197h.856v5.666l7.193 7.437h23.806v.885z" fill="#9D90D0"/><path d="M217.159 121.42h-19.524l-5.309-5.489v-6.197h1.028v5.843l4.624 4.957h19.181v.886z" fill="#9D90D0"/><path d="M215.964 118.233h-16.613l-2.74-2.656v-16.82h1.028v16.289l2.055 2.302h16.27v.885zm-43.332 17.352l-14.728-15.05h-13.872l-9.42-9.738V94.153L115.26 74.145l.685-.531 19.524 20.185v16.467l9.076 9.384h14.044l14.728 15.227-.685.708zm-47.27-27.622h-11.646l-4.795-4.781V92.559L93.85 76.977l.685-.708 15.413 15.936v10.623l4.11 4.25h11.304v.885z" fill="#9D90D0"/><path d="M212.024 177.549h-22.093l-.171-.177-41.103-42.317H97.793v-1.063H149l.171.177 41.103 42.495h21.75v.885z" fill="#F7F7F7"/><path d="M182.56 182.329l-36.136-37.36h-16.955v-1.063h17.297l.171.177 36.308 37.537-.685.709zm-15.406-7.258H92.998v.885h74.156v-.885zM94.88 164.269H81.008v-1.062h11.646l-23.463-24.258.685-.531 25.004 25.851zm12.842 3.364H85.801v.886h21.921v-.886z" fill="#9D90D0"/><path d="M108.917 152.228h-25.86v.886h25.86v-.886zm-18.663 32.934h-44.7v.885h44.7v-.885zm-7.36 6.02H9.766v.886h73.128v-.886zm229.141-16.29h-21.922v-.885h21.408l15.927-16.467h19.695l29.115-30.1h74.498v.885H376.6l-29.114 30.278h-19.524l-15.927 16.289z" fill="#9D90D0"/><path d="M282.75 159.312h-1.027v-15.759l8.905-9.03h15.927l20.381-21.247h16.098V85.831l31.512-32.402.685.531-31.341 32.402v27.976h-16.612l-20.38 21.07h-15.927l-8.221 8.676v15.228z" fill="#F7F7F7"/><path d="M292.168 168.695h-1.027V148.51l5.651-5.843h17.983v1.063h-17.64l-4.967 5.135v19.83z" fill="#9D90D0"/><path d="M298.333 168.874h-.856v-12.926l5.48-5.666h11.817v1.062h-11.475l-4.966 5.135v12.395zm26.206-22.312h-1.027v-7.79l9.248-9.562h5.309v.886h-4.795l-8.735 9.03v7.436z" fill="#9D90D0"/><path d="M331.39 147.094l-.685-.709 21.065-21.778V77.154h.514l.171-.53c.343.176.343.176.343 24.257v24.08l-21.408 22.133zm-63.366.884h-.856v-31.339l16.784-17.175v-5.312l26.374-27.09.685.708-26.203 26.913v5.135l-.171.177-16.613 17.175v30.808zM253.3 146.74h-.857V92.205L221.274 59.98h-10.79v-1.062h11.132l.172.177 31.512 32.58v55.065z" fill="#9D90D0"/><path d="M243.875 110.974h-1.027V94.33L226.92 77.863h-8.049v-1.062h8.392l.171.177 16.441 16.998v16.998z" fill="#9D90D0"/><path d="M237.707 110.973h-.856V97.516L224.52 84.768h-6.336v-1.063h6.679l.171.177 12.673 13.103v13.988zm-32.878-40.9h-1.027V54.846l-14.386-15.05.514-.709 14.899 15.404v15.582z" fill="#9D90D0"/><path d="M231.205 119.649l-24.833-25.674h-5.309l-7.364-7.613V73.259l3.425-3.541V57.146L169.551 28.64l.685-.709 27.915 28.684v13.457l-3.425 3.541v12.394l6.679 6.906h5.309l.172.177 25.004 25.851-.685.708z" fill="#9D90D0"/><path d="M189.761 48.116h-.857v43.026h.857V48.116zm116.967 209.819l-8.734-9.03h-24.662v-1.063h25.004l9.077 9.384-.685.709zm-133.413 24.434l-.514-.708 34.937-36.298v-34.35h1.028v34.881h-.172l-35.279 36.475zm28.949-16.112l-.514-.531 17.64-18.237v-29.393h.856v29.747l-.171.177-17.811 18.237z" fill="#9D90D0"/><path d="M200.032 214.2h-.856v40.547h.856V214.2zm-58.056 98.269l-.685-.708 9.248-9.561v-20.716l7.022-7.26c-.343-10.978-.685-29.038.171-29.923l.685.708c-.514 1.239-.171 18.768 0 29.569v.177l-7.022 7.26v20.716l-9.419 9.738zm-4.285 15.936l-.685-.708 20.722-21.425h22.607l15.927-16.466.685.708-16.27 16.821h-22.435l-20.551 21.07zm-21.92 16.821h-33.91v-1.062h33.567l7.536-7.791h13.016v.885h-12.502l-7.707 7.968zm-68.848-63.388l-.685-.531 4.282-4.604h7.021v1.063h-6.679l-3.939 4.072zM16.267 181.799c-2.227 0-4.11-1.948-4.11-4.25 0-2.301 1.883-4.249 4.11-4.249 2.226 0 4.11 1.948 4.11 4.249 0 2.302-1.884 4.25-4.11 4.25zm0-7.614c-1.713 0-3.254 1.417-3.254 3.364 0 1.771 1.37 3.365 3.254 3.365 1.712 0 3.253-1.417 3.253-3.365 0-1.947-1.54-3.364-3.253-3.364z" fill="#9D90D0"/><path d="M23.467 191.36h-1.028v-6.905l-3.939-4.25.685-.531 4.282 4.426v7.26zm338.065 112.611a3.941 3.941 0 01-2.911-1.24c-1.541-1.593-1.541-4.426 0-6.02 1.541-1.593 4.281-1.593 5.823 0 1.541 1.594 1.541 4.427 0 6.02-.685.886-1.713 1.24-2.912 1.24zm0-7.614c-.856 0-1.712.354-2.226 1.062-.685.709-1.028 1.417-1.028 2.302 0 .886.343 1.771 1.028 2.302 1.199 1.239 3.254 1.239 4.624 0 .685-.708 1.028-1.416 1.028-2.302 0-.885-.343-1.77-1.028-2.302-.685-.708-1.541-1.062-2.398-1.062z" fill="#9D90D0"/><path d="M358.109 300.253h-6.166l-4.966-5.135.685-.708 4.795 4.957h5.652v.886zm-11.643 39.306a3.946 3.946 0 01-2.912-1.239c-1.541-1.594-1.541-4.427 0-6.02 1.542-1.594 4.282-1.594 5.823 0 1.542 1.593 1.542 4.426 0 6.02a4.065 4.065 0 01-2.911 1.239zm0-7.613c-.856 0-1.713.354-2.227.885-.685.708-1.027 1.417-1.027 2.302s.342 1.77 1.027 2.302c1.199 1.239 3.254 1.239 4.625 0 1.198-1.24 1.198-3.364 0-4.781-.685-.354-1.542-.708-2.398-.708z" fill="#9D90D0"/><path d="M343.038 335.841h-6.165l-4.967-5.312.685-.708 4.796 4.958h5.651v1.062zM237.364 429.33a3.944 3.944 0 01-2.911-1.239c-1.541-1.594-1.541-4.427 0-6.02 1.541-1.594 4.281-1.594 5.823 0 1.541 1.593 1.541 4.426 0 6.02-.857.708-1.884 1.239-2.912 1.239zm0-7.613c-.856 0-1.712.354-2.226 1.062-.685.708-1.028 1.416-1.028 2.302 0 .885.343 1.77 1.028 2.302 1.199 1.239 3.254 1.239 4.624 0 1.199-1.24 1.199-3.365 0-4.781-.856-.531-1.541-.885-2.398-.885z" fill="#9D90D0"/><path d="M233.771 425.435h-5.995l-5.137-5.135.685-.709 4.795 4.958h5.652v.886zM93.333 447.39h-8.564v-1.062h8.221l19.524-20.185h14.557l9.591-9.916.513.709-9.762 10.269h-14.557L93.333 447.39z" fill="#9D90D0"/><path d="M103.961 436.236H91.288l-4.11-4.072.685-.709 3.767 3.719h12.331v1.062zm51.716-35.413h-23.12v.886h23.12v-.886zm-74.154 55.775c-3.083 0-5.652-2.656-5.652-5.843 0-3.188 2.569-5.844 5.652-5.844 3.082 0 5.651 2.656 5.651 5.844-.171 3.364-2.569 5.843-5.651 5.843zm0-10.624c-2.57 0-4.624 2.125-4.624 4.781 0 2.655 2.055 4.78 4.624 4.78 2.569 0 4.624-2.125 4.624-4.78 0-2.479-2.055-4.781-4.624-4.781z" fill="#9D90D0"/><path d="M83.92 434.288c-3.597 0-6.508-3.01-6.508-6.728s2.911-6.728 6.508-6.728c3.596 0 6.508 3.01 6.508 6.728s-2.912 6.728-6.508 6.728zm0-12.571c-3.083 0-5.652 2.656-5.652 5.843s2.57 5.843 5.652 5.843c3.083 0 5.652-2.656 5.652-5.843-.172-3.187-2.57-5.843-5.652-5.843zm43.331-13.811c-3.254 0-5.823-2.656-5.823-6.02 0-3.364 2.569-6.02 5.823-6.02 3.254 0 5.822 2.656 5.822 6.02 0 3.364-2.568 6.02-5.822 6.02zm0-10.978c-2.741 0-4.796 2.302-4.796 4.958 0 2.833 2.227 4.957 4.796 4.957 2.569 0 4.795-2.301 4.795-4.957.171-2.656-2.055-4.958-4.795-4.958zm15.242 20.362h-32.368v-1.062h31.855l23.976-24.612.685.708-24.148 24.966z" fill="#9D90D0"/><path d="M103.952 424.195c-4.11 0-7.364-3.364-7.364-7.613 0-4.25 3.254-7.614 7.364-7.614 4.11 0 7.364 3.364 7.364 7.614 0 4.249-3.425 7.613-7.364 7.613zm0-14.165c-3.596 0-6.337 3.01-6.337 6.552 0 3.718 2.912 6.551 6.337 6.551 3.597 0 6.337-3.01 6.337-6.551 0-3.719-2.912-6.552-6.337-6.552zm-11.644-5.489a3.945 3.945 0 01-2.912-1.239c-1.541-1.594-1.541-4.427 0-6.02 1.542-1.594 4.282-1.594 5.823 0 1.541 1.593 1.541 4.426 0 6.02-.856.708-1.884 1.239-2.911 1.239zm0-7.613c-.857 0-1.713.354-2.227 1.062-1.199 1.24-1.199 3.364 0 4.781 1.2 1.239 3.254 1.239 4.624 0 .685-.709 1.028-1.417 1.028-2.302s-.343-1.771-1.028-2.302c-.856-.885-1.541-1.239-2.397-1.239z" fill="#9D90D0"/><path d="M96.76 415.342l-4.967-5.135v-6.374h.856v5.843l4.796 4.958-.685.708zm21.75 65.513h-1.028v-10.623h.172l19.352-20.008v-15.051l9.933-10.269.685.708-9.59 9.916v15.05l-.172.177-19.352 20.008v10.092z" fill="#9D90D0"/><path d="M132.384 476.605l-4.111-4.072V459.43h1.028v12.572l3.597 3.895-.514.708zM113.372 489c-3.082 0-5.651-2.656-5.651-5.843s2.569-5.843 5.651-5.843c3.083 0 5.652 2.656 5.652 5.843-.171 3.364-2.569 5.843-5.652 5.843zm0-10.624c-2.569 0-4.624 2.125-4.624 4.781 0 2.656 2.055 4.781 4.624 4.781 2.569 0 4.624-2.125 4.624-4.781 0-2.656-2.055-4.781-4.624-4.781z" fill="#9D90D0"/><path d="M136.838 486.875c-3.597 0-6.508-3.01-6.508-6.728 0-3.719 2.911-6.729 6.508-6.729 3.596 0 6.508 3.01 6.508 6.729 0 3.718-2.912 6.728-6.508 6.728zm0-12.571c-3.083 0-5.652 2.656-5.652 5.843s2.569 5.843 5.652 5.843 5.652-2.656 5.652-5.843c-.172-3.187-2.569-5.843-5.652-5.843zm-21.409-22.664l-.685-.708 3.597-3.718v-20.539h1.027v20.893l-3.939 4.072z" fill="#9D90D0"/><path d="M110.981 461.909c-3.597 0-6.508-3.01-6.508-6.728 0-3.719 2.911-6.729 6.508-6.729 3.596 0 6.507 3.01 6.507 6.729 0 3.718-2.911 6.728-6.507 6.728zm0-12.571c-3.083 0-5.652 2.656-5.652 5.843s2.569 5.843 5.652 5.843c3.082 0 5.651-2.656 5.651-5.843-.171-3.187-2.569-5.843-5.651-5.843z" fill="#9D90D0"/><path d="M147.627 453.056H146.6v-33.464l.171-.177 24.148-24.789.513.708-23.805 24.612v33.11z" fill="#F7F7F7"/><path d="M80.325 383.294a3.942 3.942 0 01-2.911-1.24c-1.541-1.593-1.541-4.426 0-6.02 1.541-1.593 4.281-1.593 5.823 0 .856.885 1.199 1.948 1.199 3.01 0 1.063-.514 2.302-1.2 3.01-.684.886-1.883 1.24-2.91 1.24zm0-7.614c-.856 0-1.712.354-2.226 1.062-.685.709-1.028 1.417-1.028 2.302s.343 1.771 1.028 2.302c1.199 1.239 3.254 1.239 4.624 0 .685-.708 1.028-1.417 1.028-2.302s-.343-1.77-1.028-2.302c-.685-.708-1.541-1.062-2.398-1.062z" fill="#9D90D0"/><path d="M89.912 379.576h-6.166v-.886h5.823l5.823-6.197.685.708-6.165 6.375zm75.868 84.99a3.945 3.945 0 01-2.911-1.24c-1.541-1.593-1.541-4.426 0-6.02 1.541-1.594 4.281-1.594 5.823 0 1.541 1.594 1.541 4.427 0 6.02-.857.708-1.884 1.24-2.912 1.24zm-2.226-1.948c1.199 1.239 3.254 1.239 4.624 0 1.199-1.24 1.199-3.364 0-4.781-1.199-1.239-3.254-1.239-4.624 0-1.37 1.417-1.37 3.541 0 4.781z" fill="#9D90D0"/><path d="M175.369 460.847h-6.166v-1.062h5.823l5.138-5.312.685.708-5.48 5.666zM459.153 69.718a3.943 3.943 0 01-2.911-1.24c-1.541-1.593-1.541-4.426 0-6.02 1.541-1.593 4.281-1.593 5.823 0 1.541 1.594 1.541 4.427 0 6.02-.685.71-1.884 1.24-2.912 1.24zm0-7.613c-.856 0-1.712.354-2.226.885-1.199 1.24-1.199 3.364 0 4.78 1.199 1.24 3.254 1.24 4.624 0 1.199-1.239 1.199-3.364 0-4.78-.685-.531-1.541-.885-2.398-.885z" fill="#9D90D0"/><path d="M445.283 70.781l-.685-.708 4.966-5.135h6.166v.885h-5.823l-4.624 4.958zm-32.712-33.643a3.943 3.943 0 01-2.911-1.24c-.857-.885-1.199-1.947-1.199-3.01 0-1.062.514-2.301 1.199-3.01 1.541-1.593 4.281-1.593 5.823 0 .856.886 1.198 1.948 1.198 3.01 0 1.063-.513 2.302-1.198 3.01-.857.709-1.884 1.24-2.912 1.24zm0-7.613c-.856 0-1.712.354-2.226 1.062-.685.708-1.028 1.416-1.028 2.302 0 .885.343 1.77 1.028 2.301 1.199 1.24 3.254 1.24 4.624 0 .685-.708 1.027-1.416 1.027-2.301 0-.886-.342-1.771-1.027-2.302-.856-.708-1.542-1.063-2.398-1.063z" fill="#9D90D0"/><path d="M398.529 38.024l-.685-.53 5.138-5.313h5.994v1.063h-5.652l-4.795 4.78zm-34.766-14.518a3.945 3.945 0 01-2.912-1.24c-1.541-1.593-1.541-4.426 0-6.02 1.542-1.593 4.282-1.593 5.823 0 .856.886 1.199 1.948 1.199 3.01 0 1.063-.514 2.302-1.199 3.01-.856.709-1.884 1.24-2.911 1.24zm0-7.614c-.857 0-1.713.354-2.227 1.063-1.198 1.24-1.198 3.364 0 4.78 1.199 1.24 3.254 1.24 4.624 0 .685-.708 1.028-1.416 1.028-2.302 0-.885-.343-1.77-1.028-2.301-.685-.886-1.541-1.24-2.397-1.24z" fill="#9D90D0"/><path d="M349.892 24.569l-.685-.709 4.967-5.134h6.165v.885h-5.823l-4.624 4.957zm-67.487 4.424a3.943 3.943 0 01-2.911-1.239c-1.541-1.594-1.541-4.427 0-6.02 1.541-1.594 4.281-1.594 5.823 0 .856.885 1.199 1.948 1.199 3.01 0 1.062-.514 2.302-1.199 3.01-.685.885-1.884 1.24-2.912 1.24zm0-7.613c-.856 0-1.712.354-2.226 1.062-.685.708-1.028 1.417-1.028 2.302s.343 1.77 1.028 2.302c1.199 1.24 3.254 1.24 4.624 0 .685-.709 1.028-1.417 1.028-2.302s-.343-1.77-1.028-2.302c-.685-.708-1.541-1.062-2.398-1.062z" fill="#9D90D0"/><path d="M277.955 39.972l-.685-.708 4.795-4.958v-6.02h.856v6.374l-4.966 5.312zM263.909 26.87a3.943 3.943 0 01-2.911-1.24c-1.542-1.593-1.542-4.426 0-6.02 1.541-1.593 4.281-1.593 5.823 0 .856.885 1.199 1.948 1.199 3.01 0 1.063-.514 2.302-1.199 3.01a3.945 3.945 0 01-2.912 1.24zm0-7.614c-.856 0-1.712.354-2.226 1.062-1.199 1.24-1.199 3.364 0 4.781 1.199 1.24 3.254 1.24 4.624 0 .685-.708 1.027-1.416 1.027-2.302 0-.885-.342-1.77-1.027-2.302-.685-.885-1.541-1.239-2.398-1.239z" fill="#9D90D0"/><path d="M259.462 37.847l-.685-.708 4.796-4.958V26.34h.856v6.197l-4.967 5.311zm13.023-25.497a3.943 3.943 0 01-2.911-1.24c-1.541-1.593-1.541-4.426 0-6.02 1.541-1.593 4.281-1.593 5.823 0 1.541 1.594 1.541 4.427 0 6.02a3.944 3.944 0 01-2.912 1.24zm0-7.614c-.856 0-1.712.354-2.226.885-1.199 1.24-1.199 3.364 0 4.781 1.199 1.24 3.254 1.24 4.624 0 1.199-1.24 1.199-3.364 0-4.78-.856-.532-1.713-.886-2.398-.886z" fill="#9D90D0"/><path d="M267.857 23.151l-.685-.708 4.795-4.78v-6.02h1.028v6.373l-5.138 5.135zm-58.918 2.479a3.944 3.944 0 01-2.912-1.239c-1.541-1.593-1.541-4.426 0-6.02 1.541-1.593 4.282-1.593 5.823 0 1.541 1.594 1.541 4.427 0 6.02-.685.886-1.884 1.24-2.911 1.24zm0-7.613c-.857 0-1.713.354-2.227 1.063-.685.708-1.027 1.416-1.027 2.301 0 .886.342 1.77 1.027 2.302 1.199 1.24 3.254 1.24 4.624 0 .685-.708 1.028-1.416 1.028-2.302 0-.885-.343-1.77-1.028-2.302-.685-.708-1.541-1.062-2.397-1.062z" fill="#9D90D0"/><path d="M213.388 36.431l-4.966-5.134v-6.375h1.027v6.02l4.624 4.781-.685.708zm13.875-27.976a3.946 3.946 0 01-2.912-1.24c-1.541-1.593-1.541-4.426 0-6.02 1.542-1.593 4.282-1.593 5.823 0 1.542 1.594 1.542 4.427 0 6.02a3.943 3.943 0 01-2.911 1.24zm-2.398-6.552c-.685.709-1.027 1.417-1.027 2.302 0 .886.342 1.77 1.027 2.302 1.199 1.24 3.254 1.24 4.624 0 1.199-1.24 1.199-3.364 0-4.78-1.37-1.24-3.254-1.24-4.624.176z" fill="#9D90D0"/><path d="M231.712 19.255l-5.138-5.135V7.746h1.028v6.02l4.795 4.781-.685.708zm157.395 11.333a3.944 3.944 0 01-2.912-1.24c-1.541-1.593-1.541-4.426 0-6.02 1.541-1.593 4.282-1.593 5.823 0 1.541 1.594 1.541 4.427 0 6.02-.856.709-1.884 1.24-2.911 1.24zm0-7.614c-.857 0-1.713.354-2.227.886-.685.708-1.027 1.416-1.027 2.302 0 .885.342 1.77 1.027 2.301 1.199 1.24 3.254 1.24 4.624 0 1.199-1.24 1.199-3.364 0-4.78-.685-.532-1.541-.709-2.397-.709z" fill="#9D90D0"/><path d="M375.232 31.473l-.685-.53 4.966-5.313h6.166v1.063h-5.823l-4.624 4.78zM154.306 390.908a3.944 3.944 0 01-2.912-1.24c-1.541-1.593-1.541-4.426 0-6.02 1.542-1.593 4.282-1.593 5.823 0 .856.886 1.199 1.948 1.199 3.01 0 1.063-.514 2.302-1.199 3.01-.685.886-1.712 1.24-2.911 1.24zm0-7.614c-.857 0-1.713.354-2.227.886-1.198 1.239-1.198 3.364 0 4.78 1.199 1.24 3.254 1.24 4.624 0 .685-.708 1.028-1.416 1.028-2.302 0-.885-.343-1.77-1.028-2.301-.685-.709-1.541-1.063-2.397-1.063z" fill="#9D90D0"/><path d="M150.878 387.189h-6.165l-4.967-5.135.685-.708 4.795 4.78h5.652v1.063zm-28.422 1.771c-1.027 0-2.226-.531-2.911-1.24-1.542-1.593-1.542-4.426 0-6.02 1.541-1.593 4.281-1.593 5.823 0 1.541 1.594 1.541 4.427 0 6.02a3.944 3.944 0 01-2.912 1.24zm0-7.614c-.856 0-1.713.354-2.226 1.063-1.199 1.239-1.199 3.364 0 4.78 1.199 1.24 3.254 1.24 4.624 0 .685-.708 1.027-1.416 1.027-2.301 0-.886-.342-1.771-1.027-2.302-.685-.886-1.542-1.24-2.398-1.24z" fill="#9D90D0"/><path d="M132.042 385.241h-6.165v-.885h5.823l4.624-4.958.685.709-4.967 5.134zm206.885-182.727h-48.124v.885h48.124v-.885z" fill="#9D90D0"/><path d="M236.596 203.988h-4.26l12.322-30.503h4.194l12.322 30.503h-4.26l-10.028-25.677h-.262l-10.028 25.677zm1.573-11.915h17.172v3.277h-17.172v-3.277zm32.296-18.588v30.503h-4.064v-30.503h4.064z" fill="#F7F7F7"/><path d="M177.309 359.896c0 3.161-2.559 5.569-5.569 5.569-3.16 0-5.568-2.559-5.568-5.569 0-3.16 2.558-5.568 5.568-5.568 3.161 0 5.569 2.408 5.569 5.568z" fill="url(#paint0_radial_206_3338)"/><path d="M136.466 294.93c0 3.687-2.985 6.496-6.497 6.496-3.687 0-6.496-2.985-6.496-6.496 0-3.688 2.985-6.497 6.496-6.497 3.512 0 6.497 2.985 6.497 6.497z" fill="url(#paint1_radial_206_3338)"/><path d="M74.284 303.283c0 5.267-4.264 9.28-9.28 9.28-5.268 0-9.281-4.264-9.281-9.28 0-5.268 4.264-9.281 9.28-9.281 5.017 0 9.281 4.264 9.281 9.281z" fill="url(#paint2_radial_206_3338)"/><path d="M146.676 239.708c0 2.897-2.346 5.105-5.105 5.105-2.897 0-5.104-2.346-5.104-5.105 0-2.897 2.345-5.104 5.104-5.104 2.897 0 5.105 2.207 5.105 5.104z" fill="url(#paint3_radial_206_3338)"/><path d="M47.373 215.578c0 2.897-2.345 5.104-5.104 5.104-2.898 0-5.105-2.345-5.105-5.104 0-2.897 2.345-5.105 5.105-5.105 2.759 0 5.104 2.208 5.104 5.105z" fill="url(#paint4_radial_206_3338)"/><path d="M402.829 184.023c0 5.004-4.051 8.817-8.817 8.817-5.004 0-8.817-4.051-8.817-8.817 0-5.004 4.051-8.817 8.817-8.817 5.004 0 8.817 3.813 8.817 8.817z" fill="url(#paint5_radial_206_3338)"/><path d="M308.165 24.392c0 5.004-4.051 8.816-8.817 8.816-5.004 0-8.817-4.05-8.817-8.816 0-5.005 4.051-8.817 8.817-8.817 5.004 0 8.817 3.812 8.817 8.817z" fill="url(#paint6_radial_206_3338)"/><path d="M348.076 259.662c0 5.795-4.69 10.209-10.209 10.209-5.794 0-10.209-4.69-10.209-10.209 0-5.794 4.691-10.209 10.209-10.209 5.794 0 10.209 4.415 10.209 10.209z" fill="url(#paint7_radial_206_3338)"/><path d="M154.63 459.255c0 4.24-3.32 7.47-7.225 7.47-4.101 0-7.225-3.432-7.225-7.47 0-4.24 3.319-7.47 7.225-7.47 3.905-.202 7.225 3.23 7.225 7.47z" fill="url(#paint8_radial_206_3338)"/><path d="M194.009 106.527a4.63 4.63 0 01-4.64 4.641c-2.634 0-4.64-2.132-4.64-4.641a4.629 4.629 0 014.64-4.64 4.629 4.629 0 014.64 4.64z" fill="url(#paint9_radial_206_3338)"/><path d="M350.853 123.697c0 7.638-5.543 13.458-12.065 13.458-6.848 0-12.065-6.183-12.065-13.458 0-7.638 5.543-13.457 12.065-13.457 6.522 0 12.065 6.183 12.065 13.457z" fill="url(#paint10_radial_206_3338)"/><path d="M387.978 54.09c0 7.639-5.543 13.458-12.065 13.458-6.848 0-12.065-6.183-12.065-13.457 0-7.638 5.543-13.458 12.065-13.458 6.522 0 12.065 6.183 12.065 13.458z" fill="url(#paint11_radial_206_3338)"/><path d="M189.366 52.234c0 6.058-4.904 10.673-10.673 10.673-6.058 0-10.673-4.903-10.673-10.673 0-6.057 4.903-10.673 10.673-10.673 5.769 0 10.673 4.904 10.673 10.673z" fill="url(#paint12_radial_206_3338)"/><path d="M103.055 137.619c0 6.057-4.904 10.673-10.673 10.673-6.058 0-10.673-4.904-10.673-10.673 0-6.058 4.904-10.673 10.673-10.673 5.77 0 10.673 4.904 10.673 10.673z" fill="url(#paint13_radial_206_3338)"/><defs><radialGradient id="paint0_radial_206_3338" cx="0" cy="0" r="1" gradientUnits="userSpaceOnUse" gradientTransform="rotate(-140.8 149.95 149.365) scale(5.56524)"><stop stop-color="#DFD2FF"/><stop offset=".207" stop-color="#D5B9FF"/><stop offset=".411" stop-color="#CCAFF8" stop-opacity=".744"/><stop offset=".582" stop-color="#C5AFE5" stop-opacity=".527"/><stop offset=".707" stop-color="#C4ABE9" stop-opacity=".369"/><stop offset="1" stop-color="#B2B2B2" stop-opacity="0"/></radialGradient><radialGradient id="paint1_radial_206_3338" cx="0" cy="0" r="1" gradientUnits="userSpaceOnUse" gradientTransform="rotate(-140.8 117.498 124.317) scale(6.49278)"><stop stop-color="#DFD2FF"/><stop offset=".207" stop-color="#D5B9FF"/><stop offset=".411" stop-color="#CCAFF8" stop-opacity=".744"/><stop offset=".582" stop-color="#C5AFE5" stop-opacity=".527"/><stop offset=".707" stop-color="#C4ABE9" stop-opacity=".369"/><stop offset="1" stop-color="#B2B2B2" stop-opacity="0"/></radialGradient><radialGradient id="paint2_radial_206_3338" cx="0" cy="0" r="1" gradientUnits="userSpaceOnUse" gradientTransform="rotate(-140.8 86.504 140.057) scale(9.27541)"><stop stop-color="#DFD2FF"/><stop offset=".207" stop-color="#D5B9FF"/><stop offset=".411" stop-color="#CCAFF8" stop-opacity=".744"/><stop offset=".582" stop-color="#C5AFE5" stop-opacity=".527"/><stop offset=".707" stop-color="#C4ABE9" stop-opacity=".369"/><stop offset="1" stop-color="#B2B2B2" stop-opacity="0"/></radialGradient><radialGradient id="paint3_radial_206_3338" cx="0" cy="0" r="1" gradientUnits="userSpaceOnUse" gradientTransform="rotate(-140.8 113.467 94.643) scale(5.10147)"><stop stop-color="#DFD2FF"/><stop offset=".207" stop-color="#D5B9FF"/><stop offset=".411" stop-color="#CCAFF8" stop-opacity=".744"/><stop offset=".582" stop-color="#C5AFE5" stop-opacity=".527"/><stop offset=".707" stop-color="#C4ABE9" stop-opacity=".369"/><stop offset="1" stop-color="#B2B2B2" stop-opacity="0"/></radialGradient><radialGradient id="paint4_radial_206_3338" cx="0" cy="0" r="1" gradientUnits="userSpaceOnUse" gradientTransform="rotate(-140.8 59.52 100.257) scale(5.10147)"><stop stop-color="#DFD2FF"/><stop offset=".207" stop-color="#D5B9FF"/><stop offset=".411" stop-color="#CCAFF8" stop-opacity=".744"/><stop offset=".582" stop-color="#C5AFE5" stop-opacity=".527"/><stop offset=".707" stop-color="#C4ABE9" stop-opacity=".369"/><stop offset="1" stop-color="#B2B2B2" stop-opacity="0"/></radialGradient><radialGradient id="paint5_radial_206_3338" cx="0" cy="0" r="1" gradientUnits="userSpaceOnUse" gradientTransform="rotate(-140.8 229.775 21.85) scale(8.81164)"><stop stop-color="#DFD2FF"/><stop offset=".207" stop-color="#D5B9FF"/><stop offset=".411" stop-color="#CCAFF8" stop-opacity=".744"/><stop offset=".582" stop-color="#C5AFE5" stop-opacity=".527"/><stop offset=".707" stop-color="#C4ABE9" stop-opacity=".369"/><stop offset="1" stop-color="#B2B2B2" stop-opacity="0"/></radialGradient><radialGradient id="paint6_radial_206_3338" cx="0" cy="0" r="1" gradientUnits="userSpaceOnUse" gradientTransform="rotate(-140.8 154.022 -41.111) scale(8.81164)"><stop stop-color="#DFD2FF"/><stop offset=".207" stop-color="#D5B9FF"/><stop offset=".411" stop-color="#CCAFF8" stop-opacity=".744"/><stop offset=".582" stop-color="#C5AFE5" stop-opacity=".527"/><stop offset=".707" stop-color="#C4ABE9" stop-opacity=".369"/><stop offset="1" stop-color="#B2B2B2" stop-opacity="0"/></radialGradient><radialGradient id="paint7_radial_206_3338" cx="0" cy="0" r="1" gradientUnits="userSpaceOnUse" gradientTransform="rotate(-140.8 215.17 69.665) scale(10.2029)"><stop stop-color="#DFD2FF"/><stop offset=".207" stop-color="#D5B9FF"/><stop offset=".411" stop-color="#CCAFF8" stop-opacity=".744"/><stop offset=".582" stop-color="#C5AFE5" stop-opacity=".527"/><stop offset=".707" stop-color="#C4ABE9" stop-opacity=".369"/><stop offset="1" stop-color="#B2B2B2" stop-opacity="0"/></radialGradient><radialGradient id="paint8_radial_206_3338" cx="0" cy="0" r="1" gradientUnits="userSpaceOnUse" gradientTransform="rotate(-139.846 157.633 202.679) scale(7.32111 7.36707)"><stop stop-color="#DFD2FF"/><stop offset=".207" stop-color="#D5B9FF"/><stop offset=".411" stop-color="#CCAFF8" stop-opacity=".744"/><stop offset=".582" stop-color="#C5AFE5" stop-opacity=".527"/><stop offset=".707" stop-color="#C4ABE9" stop-opacity=".369"/><stop offset="1" stop-color="#B2B2B2" stop-opacity="0"/></radialGradient><radialGradient id="paint9_radial_206_3338" cx="0" cy="0" r="1" gradientUnits="userSpaceOnUse" gradientTransform="rotate(-140.8 113.653 19.542) scale(4.6377)"><stop stop-color="#DFD2FF"/><stop offset=".207" stop-color="#D5B9FF"/><stop offset=".411" stop-color="#CCAFF8" stop-opacity=".744"/><stop offset=".582" stop-color="#C5AFE5" stop-opacity=".527"/><stop offset=".707" stop-color="#C4ABE9" stop-opacity=".369"/><stop offset="1" stop-color="#B2B2B2" stop-opacity="0"/></radialGradient><radialGradient id="paint10_radial_206_3338" cx="0" cy="0" r="1" gradientUnits="userSpaceOnUse" gradientTransform="rotate(-137.707 193.323 -3.688) scale(12.6322 12.838)"><stop stop-color="#DFD2FF"/><stop offset=".207" stop-color="#D5B9FF"/><stop offset=".411" stop-color="#CCAFF8" stop-opacity=".744"/><stop offset=".582" stop-color="#C5AFE5" stop-opacity=".527"/><stop offset=".707" stop-color="#C4ABE9" stop-opacity=".369"/><stop offset="1" stop-color="#B2B2B2" stop-opacity="0"/></radialGradient><radialGradient id="paint11_radial_206_3338" cx="0" cy="0" r="1" gradientUnits="userSpaceOnUse" gradientTransform="rotate(-137.707 198.424 -45.672) scale(12.6322 12.838)"><stop stop-color="#DFD2FF"/><stop offset=".207" stop-color="#D5B9FF"/><stop offset=".411" stop-color="#CCAFF8" stop-opacity=".744"/><stop offset=".582" stop-color="#C5AFE5" stop-opacity=".527"/><stop offset=".707" stop-color="#C4ABE9" stop-opacity=".369"/><stop offset="1" stop-color="#B2B2B2" stop-opacity="0"/></radialGradient><radialGradient id="paint12_radial_206_3338" cx="0" cy="0" r="1" gradientUnits="userSpaceOnUse" gradientTransform="rotate(-140.8 98.653 -5.71) scale(10.6667)"><stop stop-color="#DFD2FF"/><stop offset=".207" stop-color="#D5B9FF"/><stop offset=".411" stop-color="#CCAFF8" stop-opacity=".744"/><stop offset=".582" stop-color="#C5AFE5" stop-opacity=".527"/><stop offset=".707" stop-color="#C4ABE9" stop-opacity=".369"/><stop offset="1" stop-color="#B2B2B2" stop-opacity="0"/></radialGradient><radialGradient id="paint13_radial_206_3338" cx="0" cy="0" r="1" gradientUnits="userSpaceOnUse" gradientTransform="rotate(-140.8 70.7 52.35) scale(10.6667)"><stop stop-color="#DFD2FF"/><stop offset=".207" stop-color="#D5B9FF"/><stop offset=".411" stop-color="#CCAFF8" stop-opacity=".744"/><stop offset=".582" stop-color="#C5AFE5" stop-opacity=".527"/><stop offset=".707" stop-color="#C4ABE9" stop-opacity=".369"/><stop offset="1" stop-color="#B2B2B2" stop-opacity="0"/></radialGradient></defs></svg>