<svg width="90" height="42" fill="none" xmlns="http://www.w3.org/2000/svg"><path d="M88.317 41.483a1 1 0 10.366-1.966l-.366 1.966zM63 22.5l.962-.275L63 22.5zm-21 18l-.132.991L42 40.5zM2 .5L.769 11.981l10.558-4.674L2 .5zm.585 3.791a1 1 0 101.81-.852l-1.81.852zm5.153 5.625a1 1 0 10-1.744.98l1.744-.98zm2.128 7.328a1 1 0 101.668-1.104l-1.668 1.104zm5.937 4.8a1 1 0 10-1.568 1.242l1.568-1.242zm3.363 6.854a1 1 0 001.427-1.4l-1.427 1.4zm6.811 3.419a1 1 0 00-1.224 1.58l1.224-1.58zm5.102 5.673a1 1 0 10.927-1.773l-.927 1.773zm7.562.827a1 1 0 10-.51 1.934l.51-1.934zm7.992 2.923a1 1 0 10-.044-2l.044 2zm8.872-3.274a1 1 0 00.494 1.938l-.494-1.938zm9.368-1.241a1 1 0 10-.846-1.812l.846 1.812zm6.918-6.42a1 1 0 001.2 1.6l-1.2-1.6zm7.925-5.163a1 1 0 10-1.643-1.139l1.644 1.14zm.983-9.152a1 1 0 101.997-.106l-1.997.106zm-1.787-8.42a1 1 0 00-1.396 1.43l1.396-1.432zm-7.749-.427a1 1 0 10-.433-1.952l.433 1.952zm-7.351 2.925A1 1 0 1065.46 11.7l-1.648-1.133zm-.397 8.017a1 1 0 00-2 .024l2-.024zm.313 8.164a1 1 0 001.733-.998l-1.733.998zm6.872 4.8a1 1 0 10-1.248 1.563l1.248-1.563zm5.891 5.95a1 1 0 10.862-1.805l-.862 1.804zm8.344 1.046a1 1 0 10-.569 1.917l.569-1.917zm-78.84-27.65a102.074 102.074 0 003.87 6.35l1.669-1.105a100.06 100.06 0 01-3.796-6.224l-1.744.98zm8.24 12.391a70.876 70.876 0 004.93 5.612l1.428-1.4a68.897 68.897 0 01-4.79-5.454l-1.568 1.242zm10.518 10.612c1.987 1.54 4.097 2.927 6.326 4.092l.927-1.773c-2.111-1.103-4.122-2.423-6.029-3.9l-1.224 1.58zM38.13 40.75c1.218.32 2.464.57 3.737.74l.264-1.982a28.417 28.417 0 01-3.49-.692l-.51 1.934zm3.737.74c1.543.206 3.14.285 4.765.25l-.044-2a29.007 29.007 0 01-4.457-.232l-.264 1.982zm14.13-1.087a50.704 50.704 0 008.875-3.18l-.846-1.811a48.707 48.707 0 01-8.522 3.053l.494 1.938zm16.993-7.999c2.71-2.032 5.031-4.317 6.725-6.763l-1.643-1.139c-1.545 2.23-3.7 4.367-6.282 6.302l1.2 1.6zm9.705-16.02c-.086-1.624-.508-3.244-1.302-4.832l-1.788.894c.674 1.349 1.022 2.701 1.093 4.043l1.997-.106zm-1.302-4.832c-.705-1.412-1.543-2.57-2.482-3.484L77.516 9.5c.76.74 1.471 1.71 2.09 2.946l1.788-.894zM70.73 5.69c-2.698.599-5.195 2.371-6.918 4.877L65.46 11.7c1.472-2.14 3.558-3.581 5.703-4.058L70.73 5.69zm-9.315 12.918c.017 1.34.215 2.736.623 4.167l1.924-.55a13.837 13.837 0 01-.547-3.641l-2 .024zm.623 4.167a17.676 17.676 0 001.69 3.973l1.733-.998a15.679 15.679 0 01-1.5-3.525l-1.922.55zm7.314 10.336c2.248 1.794 4.737 3.238 7.14 4.386l.861-1.804c-2.304-1.101-4.654-2.47-6.753-4.145l-1.248 1.563zm14.914 7.35a51.81 51.81 0 002.922.778 35.276 35.276 0 001.106.24l.016.003h.005a.02.02 0 01.002.001l.183-.983.183-.983h-.002a1.28 1.28 0 01-.011-.003l-.05-.01a33.104 33.104 0 01-.977-.213 49.848 49.848 0 01-2.808-.747l-.569 1.917z" fill="#FFAF99"/></svg>