<svg width="181" height="157" fill="none" xmlns="http://www.w3.org/2000/svg"><path d="M1.147 146.266a1.5 1.5 0 001.706 2.468l-1.706-2.468zM153 99l.794-1.273L153 99zM91 76.5l1.41.514L91 76.5zM180.5 6L164.024.656l3.61 16.94L180.5 6zM6.184 146.495a1.5 1.5 0 00-1.656-2.502l1.656 2.502zm5.332-7.025a1.5 1.5 0 101.607 2.533l-1.607-2.533zm8.557-1.796a1.5 1.5 0 10-1.565-2.559l1.565 2.559zm5.483-6.794a1.5 1.5 0 101.525 2.583l-1.525-2.583zm8.658-1.55a1.5 1.5 0 10-1.483-2.608l1.483 2.608zm5.704-6.615a1.5 1.5 0 001.438 2.633l-1.438-2.633zm8.675-1.239a1.5 1.5 0 00-1.391-2.658l1.391 2.658zm5.975-6.423a1.499 1.499 0 101.339 2.685l-1.339-2.685zm8.71-.893a1.5 1.5 0 00-1.28-2.713l1.28 2.713zm6.235-6.152a1.5 1.5 0 101.215 2.743l-1.215-2.743zm8.748-.472a1.5 1.5 0 10-1.138-2.775l1.138 2.775zm6.566-5.798a1.5 1.5 0 101.05 2.81l-1.05-2.81zm8.753.088a1.5 1.5 0 10-.945-2.847l.945 2.847zm6.993-5.294a1.5 1.5 0 00.818 2.886l-.818-2.886zm8.716.871a1.5 1.5 0 00-.659-2.927l.659 2.927zm7.507-4.486a1.499 1.499 0 10.458 2.965l-.458-2.965zm8.519 2.068a1.5 1.5 0 00-.192-2.994l.192 2.994zm8.199-3.061a1.5 1.5 0 00-.162 2.995l.162-2.995zm7.758 4.033a1.5 1.5 0 10.64-2.93l-.64 2.93zm8.732-.266a1.5 1.5 0 00-1.251 2.727l1.251-2.727zm5.487 6.754a1.5 1.5 0 001.723-2.456l-1.723 2.456zm8.159 2.701a1.499 1.499 0 10-2.033 2.206l2.033-2.206zm3.219 7.926a1.501 1.501 0 002.387-1.818l-2.387 1.818zm6.692 5.354a1.5 1.5 0 10-2.739 1.224l2.739-1.224zm-.655 8.496a1.502 1.502 0 002.976-.384l-2.976.384zm2.661 8.112a1.5 1.5 0 00-2.937-.613l2.937.613zm-5.685 6.361a1.499 1.499 0 102.569 1.549l-2.569-1.549zm-2.907 8.021a1.5 1.5 0 00-1.961-2.27l1.961 2.27zm-8.36 1.768a1.5 1.5 0 001.214 2.744l-1.214-2.744zm-6.901 5.032a1.5 1.5 0 00-.404-2.973l.404 2.973zm-8.099-2.878a1.5 1.5 0 00-.248 2.989l.248-2.989zm-8.393 1.676a1.499 1.499 0 10.696-2.918l-.696 2.918zm-6.768-5.255a1.5 1.5 0 10-1.086 2.796l1.086-2.796zm-8.537-.662a1.5 1.5 0 101.43-2.637l-1.43 2.637zm-5.228-6.789a1.5 1.5 0 00-1.738 2.446l1.738-2.446zm-8.132-2.696a1.5 1.5 0 102.016-2.222l-2.016 2.222zm-3.465-7.833a1.5 1.5 0 00-2.27 1.961l2.27-1.961zM95.85 127.2a1.5 1.5 0 002.499-1.66l-2.499 1.66zm-1.39-8.45a1.5 1.5 0 10-2.698 1.313l2.698-1.313zm-5.772-6.327a1.501 1.501 0 002.856-.919l-2.856.919zm1.023-8.5a1.5 1.5 0 00-2.96.485l2.96-.485zm-3.673-7.736a1.5 1.5 0 103-.03l-3 .03zm3.509-7.816a1.5 1.5 0 00-2.97-.418l2.97.418zM88.31 79.9a1.5 1.5 0 002.881.836l-2.88-.836zm5.622-6.798a1.5 1.5 0 10-2.771-1.148l2.77 1.148zm.877-8.96a1.5 1.5 0 102.66 1.388l-2.66-1.388zm6.852-5.844a1.5 1.5 0 00-2.526-1.618l2.526 1.618zm2.439-8.672a1.5 1.5 0 102.376 1.831l-2.376-1.831zm7.754-4.566a1.5 1.5 0 00-2.213-2.025l2.213 2.025zm3.858-8.145a1.5 1.5 0 002.044 2.197l-2.044-2.197zm8.395-3.276a1.5 1.5 0 10-1.871-2.344l1.871 2.344zm5.039-7.465a1.5 1.5 0 101.7 2.472l-1.7-2.472zm8.771-2.051a1.5 1.5 0 10-1.532-2.58l1.532 2.58zm5.986-6.732a1.5 1.5 0 001.369 2.67l-1.369-2.67zm8.967-.944a1.5 1.5 0 00-1.209-2.746l1.209 2.746zm6.742-5.976a1.5 1.5 0 101.049 2.81l-1.049-2.81zm9.017.093a1.5 1.5 0 00-.886-2.867l.886 2.867zm7.398-5.143a1.5 1.5 0 00.695 2.918l-.695-2.918zM2 147.5l.853 1.234.003-.002.01-.007.04-.027.16-.111.639-.434c.563-.382 1.398-.943 2.479-1.658l-1.656-2.502a302.572 302.572 0 00-3.366 2.263l-.01.007-.004.002v.001L2 147.5zm11.123-5.497a517.762 517.762 0 016.95-4.329l-1.565-2.559a510.706 510.706 0 00-6.992 4.355l1.607 2.533zm13.958-8.54a513.362 513.362 0 017.133-4.133l-1.483-2.608a520.02 520.02 0 00-7.175 4.158l1.525 2.583zm14.275-8.115a447.378 447.378 0 017.237-3.872l-1.391-2.658a453.192 453.192 0 00-7.284 3.897l1.438 2.633zm14.55-7.61a370.136 370.136 0 017.372-3.578l-1.28-2.713c-2.51 1.184-4.99 2.39-7.43 3.606l1.339 2.685zm14.822-6.987c2.496-1.105 5.01-2.18 7.533-3.215l-1.138-2.775a300.889 300.889 0 00-7.61 3.247l1.215 2.743zm15.15-6.203a220.561 220.561 0 017.702-2.722l-.945-2.847a221.477 221.477 0 00-7.808 2.759l1.05 2.81zm15.513-5.13a148.48 148.48 0 017.898-2.015l-.659-2.927a152.777 152.777 0 00-8.057 2.056l.818 2.886zm15.863-3.537a91.419 91.419 0 018.061-.896l-.192-2.994a94.409 94.409 0 00-8.327.926l.458 2.965zm16.098-.962c2.765.15 5.411.49 7.92 1.038l.64-2.93c-2.685-.587-5.493-.946-8.398-1.103l-.162 2.995zm15.401 3.499c1.198.55 2.35 1.167 3.453 1.855l1.588-2.546a33.802 33.802 0 00-3.79-2.036l-1.251 2.727zm3.453 1.855a71.44 71.44 0 013.285 2.172l1.723-2.456a75.286 75.286 0 00-3.42-2.262l-1.588 2.546zm9.411 7.079c2.05 1.89 3.793 3.804 5.252 5.72l2.387-1.818c-1.574-2.065-3.436-4.107-5.606-6.108l-2.033 2.206zm9.205 12.298c1.104 2.471 1.78 4.909 2.084 7.272l2.976-.384c-.344-2.664-1.103-5.385-2.321-8.112l-2.739 1.224zm1.808 14.771a22.345 22.345 0 01-2.748 6.974l2.569 1.549a25.37 25.37 0 003.116-7.91l-2.937-.613zm-7.616 12.725a25.694 25.694 0 01-6.399 4.038l1.214 2.744a28.68 28.68 0 007.146-4.512l-1.961-2.27zm-13.704 6.097a28.25 28.25 0 01-3.81.257v3c1.432 0 2.839-.097 4.214-.284l-.404-2.973zm-3.81.257c-1.289 0-2.585-.055-3.885-.162l-.248 2.989c1.38.115 2.759.173 4.133.173v-3zm-11.582-1.404a57.402 57.402 0 01-7.464-2.337l-1.086 2.796a60.367 60.367 0 007.854 2.459l.696-2.918zm-14.571-5.636a64.956 64.956 0 01-6.658-4.152l-1.738 2.446a67.952 67.952 0 006.966 4.343l1.43-2.637zm-12.774-9.07a64.813 64.813 0 01-5.481-5.611l-2.27 1.961a67.805 67.805 0 005.735 5.872l2.016-2.222zm-10.224-11.85a58.565 58.565 0 01-3.89-6.79l-2.697 1.313a61.653 61.653 0 004.088 7.137l2.499-1.66zm-6.805-14.036a52.454 52.454 0 01-1.833-7.581l-2.96.485a55.508 55.508 0 001.937 8.015l2.856-.919zm-2.506-15.348a51.917 51.917 0 01.509-7.785l-2.97-.418a54.929 54.929 0 00-.539 8.234l3-.03zm2.153-15.42a58.488 58.488 0 011.218-3.722l-2.819-1.028a61.53 61.53 0 00-1.28 3.913l2.881.836zm1.218-3.722a96.204 96.204 0 011.523-3.913l-2.771-1.148a99.384 99.384 0 00-1.57 4.033l2.818 1.028zm5.06-11.485a94.645 94.645 0 014.192-7.232l-2.526-1.618a97.473 97.473 0 00-4.326 7.462l2.66 1.388zm9.007-14.072a99.486 99.486 0 015.378-6.398l-2.213-2.025a102.043 102.043 0 00-5.541 6.591l2.376 1.831zm11.28-12.346a110.711 110.711 0 016.351-5.473l-1.871-2.344a113.846 113.846 0 00-6.524 5.62l2.044 2.197zm13.09-10.466a126.754 126.754 0 017.071-4.523l-1.532-2.58a129.082 129.082 0 00-7.239 4.631l1.7 2.472zm14.426-8.586a142.15 142.15 0 017.598-3.613l-1.209-2.746a145.4 145.4 0 00-7.758 3.69l1.369 2.67zm15.389-6.779a146.054 146.054 0 017.968-2.717l-.886-2.867a149.131 149.131 0 00-8.131 2.774l1.049 2.81z" fill="#FFAF99"/></svg>