<svg width="201" height="114" fill="none" xmlns="http://www.w3.org/2000/svg"><path d="M197.59 90.011a1.5 1.5 0 102.82-1.022l-2.82 1.022zM146 47.001l.123 1.494L146 47zm-18.5 25l1.301-.748L127.5 72zM179 45.5l-1.499-.045L179 45.5zM83.5 13l-.681-1.337L83.5 13zM8 113.5l9.646-14.386-17.281-1.16L8 113.5zm1.766-3.931a1.5 1.5 0 00-2.983-.312l2.983.312zm-1.685-8.56a1.5 1.5 0 102.938.604l-2.938-.604zm4.893-7.243a1.5 1.5 0 10-2.88-.841l2.88.84zm-.237-8.755a1.5 1.5 0 002.808 1.056l-2.808-1.056zm5.939-6.427a1.5 1.5 0 00-2.724-1.257l2.724 1.257zm1.023-8.677a1.5 1.5 0 102.63 1.446l-2.63-1.446zm6.775-5.517a1.5 1.5 0 10-2.523-1.621l2.523 1.621zm2.21-8.47a1.5 1.5 0 102.41 1.786l-2.41-1.786zm7.449-4.57a1.5 1.5 0 10-2.29-1.939l2.29 1.938zm3.277-8.115a1.5 1.5 0 002.165 2.076l-2.165-2.076zm7.952-3.61a1.5 1.5 0 10-2.038-2.2l2.038 2.2zm4.22-7.672a1.5 1.5 0 001.91 2.313l-1.91-2.313zm8.327-2.7a1.5 1.5 0 00-1.783-2.412l1.783 2.412zm4.994-7.159a1.5 1.5 0 001.66 2.5l-1.66-2.5zm8.545-1.834a1.5 1.5 0 00-1.538-2.576l1.538 2.576zm5.667-6.657a1.5 1.5 0 001.42 2.643l-1.42-2.643zm8.474-.912a1.5 1.5 0 00-1.247-2.728l1.247 2.728zM93.573 7a1.5 1.5 0 001.032 2.817L93.573 7zm8.249.467a1.499 1.499 0 10-.827-2.884l.827 2.884zm6.742-4.774a1.5 1.5 0 10.626 2.934l-.626-2.934zm8.104 1.611a1.5 1.5 0 00-.417-2.97l.417 2.97zm7.356-3.768a1.5 1.5 0 10.192 2.994l-.192-2.994zm7.764 2.82a1.5 1.5 0 00.059-3l-.059 3zm7.885-2.478a1.5 1.5 0 10-.348 2.98l.348-2.98zm7.065 4.268a1.5 1.5 0 10.688-2.92l-.688 2.92zm8.241-.589a1.5 1.5 0 00-1.092 2.795l1.092-2.795zm5.579 6.065a1.5 1.5 0 101.555-2.565l-1.555 2.565zm7.939 2.244a1.5 1.5 0 10-2.046 2.194l2.046-2.194zm2.729 7.77a1.5 1.5 0 102.484-1.681l-2.484 1.681zm6.21 5.402a1.5 1.5 0 10-2.789 1.104l2.789-1.104zm-.75 8.217a1.5 1.5 0 102.947-.56l-2.947.56zm3.805 7.322a1.5 1.5 0 00-2.999.105l2.999-.105zm-3.278 7.553a1.5 1.5 0 102.976.38l-2.976-.38zm1.197 8.111a1.5 1.5 0 00-2.844-.957l2.844.957zm-5.854 5.748a1.5 1.5 0 102.606 1.486l-2.606-1.486zm-1.957 7.967a1.5 1.5 0 00-2.279-1.951l2.279 1.951zm-7.572 3.15a1.5 1.5 0 101.862 2.352l-1.862-2.351zm-4.849 6.627a1.5 1.5 0 10-1.332-2.688l1.332 2.688zm-8.177-.268a1.5 1.5 0 00.625 2.934l-.625-2.934zm-7.459 3.387a1.499 1.499 0 10.332-2.981l-.332 2.981zm-6.362-5.08a1.5 1.5 0 00-1.453 2.625l1.453-2.625zm-7.684-2.657a1.5 1.5 0 002.332-1.888l-2.332 1.888zm-1.568-8.976a1.5 1.5 0 00-2.852.933l2.852-.933zm-2.593-9.58a1.5 1.5 0 102.739 1.223l-2.739-1.223zm8.714-4.982a1.5 1.5 0 00-1.545-2.57l1.545 2.57zm7.846-6.27a1.5 1.5 0 10.685 2.922l-.685-2.921zm8.739 2.053a1.5 1.5 0 00.015-3l-.015 3zm7.531-2.274a1.5 1.5 0 00-.563 2.947l.563-2.947zm6.155 4.889a1.5 1.5 0 101.091-2.795l-1.091 2.795zm7.839.53a1.5 1.5 0 10-1.542 2.574l1.542-2.573zm4.225 6.642a1.5 1.5 0 101.897-2.324l-1.897 2.324zm7.372 2.746a1.5 1.5 0 00-2.165 2.077l2.165-2.077zm2.494 7.468a1.5 1.5 0 002.364-1.847l-2.364 1.847zm6.661 4.185a1.5 1.5 0 10-2.515 1.635l2.515-1.635zm1.154 7.8a1.5 1.5 0 002.636-1.433l-2.636 1.434zm5.92 5.202a1.5 1.5 0 10-2.74 1.221l2.74-1.22zM11.019 101.613a99.574 99.574 0 011.955-7.847l-2.88-.841a102.522 102.522 0 00-2.013 8.084l2.938.604zm4.526-15.546c.902-2.399 1.939-4.9 3.13-7.483l-2.723-1.257a114.755 114.755 0 00-3.215 7.684l2.808 1.056zm6.783-14.714a118.358 118.358 0 014.146-6.963l-2.523-1.621a121.373 121.373 0 00-4.252 7.138l2.63 1.446zm8.765-13.647a126.02 126.02 0 015.04-6.357l-2.29-1.938a128.965 128.965 0 00-5.16 6.509l2.41 1.786zm10.482-12.395a136.785 136.785 0 015.787-5.685l-2.038-2.201a139.656 139.656 0 00-5.914 5.81l2.165 2.076zm11.918-11.045a151.434 151.434 0 016.416-5.013l-1.783-2.412a154.35 154.35 0 00-6.543 5.112l1.91 2.313zm13.07-9.672a170.178 170.178 0 016.885-4.334l-1.538-2.576a173.377 173.377 0 00-7.007 4.41l1.66 2.5zm13.972-8.348c1.195-.643 2.41-1.28 3.646-1.91l-1.362-2.672c-1.255.64-2.49 1.286-3.704 1.94l1.42 2.642zm3.646-1.91a88.071 88.071 0 013.408-1.645l-1.247-2.728a90.966 90.966 0 00-3.523 1.7l1.362 2.673zm10.424-4.52a106.488 106.488 0 017.217-2.35l-.827-2.884A109.45 109.45 0 0093.573 7l1.032 2.817zm14.585-4.19c2.474-.528 4.972-.971 7.478-1.323l-.417-2.97a110.59 110.59 0 00-7.687 1.359l.626 2.934zm15.026-2.097a90.598 90.598 0 017.572-.175l.059-3a94.07 94.07 0 00-7.823.181l.192 2.994zm15.109.328c2.54.297 5.019.723 7.413 1.288l.688-2.92a68.36 68.36 0 00-7.753-1.348l-.348 2.98zm14.562 3.494a43.04 43.04 0 016.671 3.27l1.555-2.565a45.992 45.992 0 00-7.134-3.5l-1.092 2.795zm12.564 7.708a32.61 32.61 0 014.775 5.577l2.484-1.682a35.571 35.571 0 00-5.213-6.089l-2.046 2.194zm8.196 12.082a39.16 39.16 0 012.039 7.113l2.947-.56a42.103 42.103 0 00-2.197-7.657l-2.789 1.104zm2.845 14.54c.043 1.223.046 2.481.009 3.775l2.998.088c.04-1.356.036-2.679-.008-3.968l-2.999.105zm.009 3.775a37.714 37.714 0 01-.288 3.672l2.976.382c.166-1.3.271-2.622.31-3.966l-2.998-.088zm-1.935 10.827a37.933 37.933 0 01-3.01 6.705l2.606 1.486a41.044 41.044 0 003.248-7.234l-2.844-.957zm-7.246 12.72a38.297 38.297 0 01-5.293 5.103l1.862 2.352a41.288 41.288 0 005.71-5.503l-2.279-1.951zm-11.474 9.04c-2.254 1.118-4.559 1.934-6.845 2.42l.625 2.935c2.551-.543 5.092-1.447 7.552-2.666l-1.332-2.688zm-13.972 2.827c-2.363-.263-4.619-.95-6.694-2.099l-1.453 2.625c2.444 1.353 5.085 2.151 7.815 2.455l.332-2.981zm-12.046-6.644a22.652 22.652 0 01-2.027-2.973l-2.602 1.494a25.735 25.735 0 002.297 3.367l2.332-1.888zm-2.027-2.973c-.844-1.469-1.456-2.84-1.873-4.115l-2.852.933c.489 1.495 1.191 3.053 2.123 4.676l2.602-1.494zm-1.727-12.472c1.122-2.514 3.272-4.58 5.975-6.205l-1.545-2.57c-3.029 1.82-5.715 4.295-7.169 7.552l2.739 1.223zm14.506-9.553c1.62-.38 3.171-.62 4.543-.733l-.246-2.99c-1.528.126-3.226.39-4.982.802l.685 2.92zm4.543-.733a40.346 40.346 0 013.511-.136l.015-3a43.367 43.367 0 00-3.772.146l.246 2.99zm10.479.537a38.172 38.172 0 016.718 1.942l1.091-2.795a41.152 41.152 0 00-7.246-2.094l-.563 2.947zm13.015 5.046a48.916 48.916 0 015.767 4.068l1.897-2.324a51.86 51.86 0 00-6.122-4.317l-1.542 2.573zm10.974 8.891a70.248 70.248 0 014.659 5.39l2.364-1.846a73.3 73.3 0 00-4.858-5.621l-2.165 2.077zm8.805 11.211a91.89 91.89 0 013.669 6.166l2.636-1.434a95.305 95.305 0 00-3.79-6.367l-2.515 1.635zm6.849 12.588a66.499 66.499 0 011.267 3.036c.027.072.048.125.06.16a.374.374 0 01.018.048L199 89.5l1.41-.512-.001-.002-.001-.004-.005-.013a1.998 1.998 0 00-.018-.05l-.069-.182a69.582 69.582 0 00-1.331-3.19l-2.74 1.221z" fill="#FFAF99"/></svg>