<svg width="180" height="23" fill="none" xmlns="http://www.w3.org/2000/svg"><path d="M10.848 19L.84 1.72h3.696l7.728 13.44 7.752-13.44h3.672L13.68 19h-2.832zm14.634 0V5.08h3.144V19h-3.144zm0-15.312V.52h3.144v3.168h-3.144zM37.855 19L30.2 5.08h3.624l5.496 10.104L44.791 5.08h3.624L40.735 19h-2.88zm14.822 0a3.23 3.23 0 01-1.68-.456 3.586 3.586 0 01-1.2-1.2 3.238 3.238 0 01-.432-1.656v-5.232h10.992V8.512a.228.228 0 00-.096-.192.228.228 0 00-.192-.096H49.365V5.08H60.19c.608 0 1.16.152 1.656.456.512.304.912.704 1.2 1.2.304.496.456 1.048.456 1.656V19H52.677zm.12-3.144h7.56v-2.568H52.51v2.28c0 .08.024.152.072.216a.351.351 0 00.216.072zm13.28 6.312v-3.144h17.136v3.144H66.077zM86.072 19V1.72H99.32c.608 0 1.16.152 1.656.456.512.304.92.712 1.224 1.224.304.496.456 1.048.456 1.656V8.44c0 .208-.016.408-.048.6a2.204 2.204 0 01-.168.552c.272.368.488.752.648 1.152.176.4.264.8.264 1.2v3.72a3.23 3.23 0 01-.456 1.68 3.517 3.517 0 01-1.224 1.2 3.23 3.23 0 01-1.68.456h-13.92zm3.456-3.192h10.32a.35.35 0 00.216-.072.298.298 0 00.096-.216v-3.432a.228.228 0 00-.096-.192.298.298 0 00-.216-.096h-10.32a.298.298 0 00-.216.096.26.26 0 00-.072.192v3.432c0 .08.024.152.072.216a.351.351 0 00.216.072zm0-7.2h9.648a.26.26 0 00.192-.072.351.351 0 00.072-.216V5.2a.26.26 0 00-.072-.192.228.228 0 00-.192-.096h-9.648a.298.298 0 00-.216.096.26.26 0 00-.072.192v3.12c0 .08.024.152.072.216a.351.351 0 00.216.072zM109.21 19a3.23 3.23 0 01-1.68-.456 3.586 3.586 0 01-1.2-1.2 3.238 3.238 0 01-.432-1.656V5.08h3.144v10.488c0 .08.024.152.072.216a.351.351 0 00.216.072h7.272a.26.26 0 00.192-.072.298.298 0 00.096-.216V5.08h3.144v10.608c0 .608-.152 1.16-.456 1.656-.288.496-.68.896-1.176 1.2a3.15 3.15 0 01-1.68.456h-7.512zm13.352 0V5.08h3.144V19h-3.144zm0-15.312V.52h3.144v3.168h-3.144zM131.685 19c-.608 0-1.16-.152-1.656-.456a3.586 3.586 0 01-1.2-1.2 3.106 3.106 0 01-.456-1.656V.496h3.168v15.072c0 .08.024.152.072.216a.351.351 0 00.216.072h2.664V19h-2.808zm7.671 0a3.15 3.15 0 01-1.68-.456 3.586 3.586 0 01-1.2-1.2 3.238 3.238 0 01-.432-1.656V8.392c0-.608.144-1.16.432-1.656a3.586 3.586 0 011.2-1.2 3.15 3.15 0 011.68-.456h7.704V.52h3.144V19h-10.848zm.144-3.144h7.272a.26.26 0 00.192-.072.298.298 0 00.096-.216V8.512a.228.228 0 00-.096-.192.228.228 0 00-.192-.096H139.5a.298.298 0 00-.216.096.26.26 0 00-.072.192v7.056c0 .08.024.152.072.216a.351.351 0 00.216.072zM155.52 19c-.608 0-1.16-.152-1.656-.456a3.586 3.586 0 01-1.2-1.2 3.106 3.106 0 01-.456-1.656V8.392c0-.608.152-1.16.456-1.656a3.586 3.586 0 011.2-1.2 3.106 3.106 0 011.656-.456h7.512c.608 0 1.16.152 1.656.456.512.304.912.704 1.2 1.2.304.496.456 1.048.456 1.656v5.232h-10.992v1.944c0 .08.024.152.072.216a.351.351 0 00.216.072h10.704V19H155.52zm-.168-8.208h7.848v-2.28a.228.228 0 00-.096-.192.228.228 0 00-.192-.096h-7.272a.298.298 0 00-.216.096.26.26 0 00-.072.192v2.28zM168.709 19V8.392c0-.608.152-1.16.456-1.656a3.586 3.586 0 011.2-1.2 3.188 3.188 0 011.656-.456h7.728v3.144h-7.608a.298.298 0 00-.216.096.26.26 0 00-.072.192V19h-3.144z" fill="#F7F7F7"/></svg>