<svg width="80" height="80" fill="none" xmlns="http://www.w3.org/2000/svg"><path d="M14.768 17.72v26.391c0 14.367 11.388 26.011 25.434 26.011 14.045 0 25.433-11.644 25.433-26.01V17.734L40.049 9.133l-25.28 8.588zM40.042 4l30.361 10.203V44.11C70.403 61.17 56.88 75 40.201 75 23.524 75 10 61.17 10 44.111V14.203L40.042 4zm15.7 23.022a2.347 2.347 0 00-3.367.202l-15.336 17.64-9.906-10.952a2.344 2.344 0 00-3.368-.135 2.477 2.477 0 00-.132 3.447l11.69 12.922a2.344 2.344 0 003.535-.035l17.08-19.646a2.476 2.476 0 00-.195-3.443z" fill="#1D1C31"/></svg>