<svg width="80" height="80" fill="none" xmlns="http://www.w3.org/2000/svg"><path d="M73.085 31.438h-65.8c-3.117 0-4.453-3.438-2.004-5.072l32.9-21.813a3.916 3.916 0 014.009 0l32.9 21.813c2.449 1.634 1.113 5.072-2.005 5.072zm.501 31.001H6.783C5.246 62.439 4 63.7 4 65.257v8.455c0 1.556 1.246 2.818 2.783 2.818h66.803c1.537 0 2.783-1.262 2.783-2.818v-8.455c0-1.556-1.246-2.818-2.783-2.818zM12.35 31.438v31m13.917-31v31m13.918-31v31m13.917-31v31m13.917-31v31" stroke="#1D1C31" stroke-width="4" stroke-linecap="round" stroke-linejoin="round"/></svg>