<svg width="77" height="32" fill="none" xmlns="http://www.w3.org/2000/svg"><path fill-rule="evenodd" clip-rule="evenodd" d="M77 16.309c0-5.394-2.65-9.65-7.718-9.65-5.088 0-8.166 4.256-8.166 9.608 0 6.342 3.634 9.545 8.85 9.545 2.544 0 4.469-.57 5.922-1.37v-4.214c-1.453.716-3.12 1.159-5.237 1.159-2.074 0-3.913-.716-4.148-3.203h10.454c0-.274.043-1.37.043-1.875zm-10.561-2.002c0-2.38 1.475-3.371 2.822-3.371 1.304 0 2.694.99 2.694 3.371h-5.516zM52.864 6.658c-2.095 0-3.442.97-4.19 1.644l-.279-1.306h-4.703v24.568l5.345-1.117.021-5.963c.77.548 1.903 1.328 3.784 1.328 3.827 0 7.312-3.034 7.312-9.714-.022-6.11-3.55-9.44-7.29-9.44zM51.58 21.176c-1.261 0-2.01-.442-2.523-.99l-.021-7.817c.556-.611 1.325-1.033 2.544-1.033 1.945 0 3.292 2.15 3.292 4.91 0 2.823-1.325 4.93-3.292 4.93zM41.704 0l-5.366 1.117v4.298l5.366-1.138V0zm-5.366 7.017h5.366v18.437h-5.366V7.017zm-5.751 1.559l-.342-1.56h-4.618v18.438h5.345V12.959c1.261-1.623 3.4-1.328 4.062-1.096V7.017c-.684-.253-3.185-.717-4.447 1.559zM19.898 2.444L14.682 3.54l-.022 16.878c0 3.118 2.373 5.415 5.537 5.415 1.753 0 3.036-.316 3.742-.695V20.86c-.684.274-4.062 1.243-4.062-1.875v-7.48h4.062V7.017h-4.062l.021-4.573zM5.446 12.369c0-.822.684-1.138 1.817-1.138 1.625 0 3.677.484 5.302 1.348V7.628c-1.774-.696-3.527-.97-5.302-.97-4.34 0-7.226 2.234-7.226 5.963 0 5.816 8.124 4.889 8.124 7.396 0 .97-.855 1.286-2.052 1.286-1.775 0-4.04-.717-5.836-1.686v5.015a15.005 15.005 0 005.836 1.2c4.447 0 7.504-2.17 7.504-5.941-.022-6.28-8.167-5.162-8.167-7.522z" fill="#B6B3EB"/></svg>