<svg width="161" height="33" fill="none" xmlns="http://www.w3.org/2000/svg"><mask id="mask0_0_172" style="mask-type:luminance" maskUnits="userSpaceOnUse" x="0" y="0" width="33" height="33"><path d="M19.913 26.757c2.103-.026 4.099-.33 5.865-.914.445-.148.87-.311 1.27-.488-.49 1.183-1.213 2.17-2.154 2.903a14.57 14.57 0 01-6.425 2.624c.594-1.013 1.074-2.445 1.444-4.125zm-9.898 2.874a.663.663 0 00-.144-.095c-.827-.397-1.162-2.215-.731-4.995 1.59.705 3.32 1.263 5.14 1.646 1.379.29 2.753.47 4.095.539-.658 2.821-1.502 4.303-2.061 4.303-.036 0-.071.006-.105.011a14.62 14.62 0 01-6.194-1.41zm-7.68-8.987a7.577 7.577 0 01-.24-1.457 12.893 12.893 0 001.826 2.037c1.09.991 2.384 1.88 3.826 2.641-.294 1.624-.377 3.095-.192 4.28a14.343 14.343 0 01-5.22-7.501zm18.515-3.942c0-.574-.008-1.15-.025-1.723 1.853-.121 3.569-.596 4.973-1.392 1.3 2.536 1.999 5.212 1.993 7.738 0 .731-.065 1.427-.183 2.084-.669.404-1.439.754-2.305 1.042-1.538.51-3.271.788-5.108.834.442-2.609.655-5.638.655-8.583zm-6.258 8.05a24.262 24.262 0 01-5.167-1.698c.519-2.298 1.484-5.083 3.013-8.175.223-.448.45-.888.68-1.32a17.45 17.45 0 003.455 1.106 15.98 15.98 0 002.762.333c.017.55.025 1.118.025 1.704 0 3.457-.28 6.326-.686 8.568a25.189 25.189 0 01-4.082-.517zm-9.659-4.606c-1.265-1.152-2.135-2.372-2.579-3.584.352-1.358 1.032-2.721 2.032-4.027.949-1.238 2.129-2.353 3.483-3.312.39.696.937 1.375 1.634 2.018a12.327 12.327 0 002.29 1.65c-.238.444-.468.893-.691 1.344-1.321 2.669-2.4 5.533-3.034 8.13-1.176-.652-2.234-1.396-3.135-2.219zM19.84 6.504c1.693 1.243 3.246 2.846 4.544 4.72.246.356.478.717.698 1.082-1.189.679-2.695 1.084-4.318 1.197-.137-2.533-.442-4.97-.924-6.999zm-2.954 6.726a15.873 15.873 0 01-3.046-.961c1.39-2.397 2.91-4.48 4.41-6.029.468 1.817.86 4.26 1.027 7.289-.79-.033-1.593-.13-2.39-.3zm-6.364-3.06c-.616-.568-1.084-1.16-1.399-1.756a20.344 20.344 0 014.585-1.99c.98-.29 1.97-.505 2.957-.653-1.426 1.575-2.85 3.575-4.155 5.836a10.786 10.786 0 01-1.988-1.437zM7.318 5.493c-.02.074-.042.15-.059.227a4.579 4.579 0 00.044 2.105C5.7 8.915 4.307 10.203 3.197 11.65c-.338.441-.64.891-.915 1.344a14.336 14.336 0 015.036-7.501zm1.397.533c.165-.762.63-1.442 1.348-2.005 1.74-.512 3.762-.389 5.888.378-.895.153-1.79.357-2.672.62a21.926 21.926 0 00-4.614 1.957 3.057 3.057 0 01.05-.95zM20.8 4.092c.511-.326.982-.55 1.376-.642.746.295 1.487.672 2.19 1.149a18.683 18.683 0 00-3.566-.507zm-2.51-1.571c.605.066 1.25.168 1.913.32-.415.22-.845.495-1.283.825a7.426 7.426 0 00-.63-1.145zm-1.613.576a13.917 13.917 0 00-1.996-.592 14.584 14.584 0 011.601-.092c.254.003.565.304.89.885a15.8 15.8 0 00-.495-.201zM.288 16.727c0 1.5.219 2.95.618 4.327.024.092.047.184.074.277.006.017.014.032.02.05C3.02 27.82 9.116 32.51 16.302 32.51c3.324 0 6.414-1.005 8.977-2.72.026-.014.051-.027.075-.043.151-.102.299-.209.441-.321 2.947-2.145 5.123-5.26 6.04-8.865.052-.166.096-.335.134-.505a.704.704 0 00.013-.12c.219-1.038.333-2.11.333-3.208 0-2.13-.423-4.197-1.26-6.143a.747.747 0 00-.975-.39.73.73 0 00-.396.962 14.034 14.034 0 011.14 5.571 14.05 14.05 0 01-.426 3.437c-.22.695-.606 1.337-1.14 1.921.013-.249.02-.5.021-.758.007-2.816-.784-5.79-2.249-8.585 1.074-.91 1.76-2.034 1.995-3.29a.735.735 0 00-.597-.855.743.743 0 00-.868.588c-.155.831-.593 1.594-1.278 2.241a22.196 22.196 0 00-.67-1.03c-1.307-1.889-2.86-3.523-4.56-4.827 2.244.146 4.318.682 5.988 1.602.261.147.61.142.855-.06a.727.727 0 00.093-1.034C25.59 2.77 21.44.946 16.3.946 7.472.945.288 8.025.288 16.727z" fill="#fff"/></mask><g mask="url(#mask0_0_172)"><path d="M.288.945h32.027V32.51H.288V.945z" fill="#B6B3EB"/></g><path d="M35.84 7.982h8.085v1.634h-2.97v8.2h-2.143v-8.2H35.84V7.982zm9.22 9.833V7.981h2.143v3.882h3.773V7.98h2.17v9.834h-2.142v-4.319h-3.801v4.32H45.06zm9.831-9.833h6.69v1.634h-4.546v2.303h4.257v1.634h-4.257v2.63h4.699v1.633h-6.842V7.982zm17.334 0h2.417l1.741 7.396h.027l1.605-7.396h2.045l-2.543 9.834H75.14l-1.796-7.493h-.027l-1.937 7.493h-2.43l-2.433-9.834h2.212l1.533 7.396h.03l1.932-7.396zm8.563 4.917c0-2.901 1.492-5.123 4.794-5.123 3.301 0 4.796 2.221 4.796 5.123s-1.495 5.12-4.796 5.12c-3.304 0-4.794-2.219-4.794-5.12zm2.278 0c0 1.687.401 3.594 2.515 3.594 2.115 0 2.516-1.907 2.516-3.594 0-1.69-.401-3.598-2.516-3.598-2.114 0-2.515 1.909-2.515 3.598zm10.864 4.916h-2.143V7.981h4.242c1.715.013 3.47.557 3.47 2.562 0 1.279-.843 2.125-2.073 2.383v.026c1.645.177 1.645 1.17 1.825 2.534.098.627.179 1.785.58 2.328h-2.364c-.178-.871-.276-1.757-.372-2.643-.056-.544-.195-1.293-.898-1.32H93.93v3.964zm0-5.598h1.795c.942-.017 1.493-.477 1.493-1.35 0-.87-.551-1.24-1.493-1.252H93.93v2.602zm7.211 5.598V7.981h2.143v8.2h4.326v1.634h-6.469zm7.626-9.833h3.402c3.107-.027 5.043 1.497 5.043 4.917 0 3.418-1.936 4.943-5.043 4.916h-3.402V7.982zm2.142 8.2h1.105c2.545.026 2.919-1.718 2.919-3.283 0-1.567-.374-3.31-2.918-3.283h-1.106v6.565zm11.729 1.633V7.981h3.746c1.783-.11 3.607.628 3.607 2.547 0 1.076-.762 1.826-1.756 2.152v.026c1.259.26 2.197 1.118 2.197 2.56 0 1.948-2.489 2.658-4.021 2.548l-3.773.001zm3.815-1.635c1.009 0 1.699-.177 1.699-1.307s-.689-1.308-1.699-1.308h-1.674v2.616h1.674zm0-4.248c.898 0 1.394-.368 1.394-1.158 0-.792-.497-1.157-1.394-1.157h-1.674v2.316l1.674-.001zm4.644 5.883l3.609-9.834h2.543l3.467 9.834h-2.154l-.719-2.084h-3.953l-.747 2.084h-2.046zm6.206-3.718l-1.368-4.195h-.026l-1.465 4.195h2.859zm10.49 3.718l-3.939-8.173-.027.027v8.145h-2.003V7.979h3.177l3.803 7.737.027-.03V7.978h2.004v9.835l-3.042.003zm6.928-5.584h.027l3.317-4.25h2.501l-3.662 4.4 3.981 5.434h-2.667l-3.469-5.013h-.027v5.013h-2.142V7.981h2.142l-.001 4.25z" fill="#B6B3EB"/></svg>