<svg width="180" height="36" fill="none" xmlns="http://www.w3.org/2000/svg"><path d="M8.141 17.755l-4.072 4.01L0 17.755l4.069-4.01 4.072 4.01zm9.873-9.738l6.973 6.876 4.069-4.01L18.014 0 6.973 10.883l4.068 4.01 6.973-6.876zm13.949 5.728l-4.069 4.01 4.069 4.01 4.065-4.01-4.065-4.01zM18.014 27.492l-6.973-6.873-4.068 4.007L18.014 35.51l11.041-10.883-4.068-4.007-6.973 6.873zm0-5.728l4.069-4.01-4.069-4.01-4.069 4.01 4.07 4.01zm42.941.385v-.055c0-2.616-1.408-3.924-3.7-4.784 1.409-.78 2.598-2.005 2.598-4.201v-.056c0-3.06-2.485-5.037-6.522-5.037h-9.165v19.476h9.398c4.459 0 7.398-1.78 7.398-5.343h-.007zm-5.42-8.326c0 1.447-1.215 2.061-3.133 2.061H48.4v-4.11h4.29c1.834 0 2.852.72 2.852 2l-.008.05zm1.101 7.792c0 1.447-1.158 2.113-3.08 2.113H48.4V19.45h5.023c2.231 0 3.22.808 3.22 2.116l-.007.049zm13.453 5.877V8.017h-4.361v19.476h4.36zm23.367 0V8.017h-4.304V20.01L79.895 8.017h-4.01v19.476h4.291V15.11l9.567 12.382h3.713zm24.079 0l-8.483-19.615h-4.009l-8.465 19.615h4.432l1.812-4.368h8.356l1.806 4.368h4.551zm-7.902-8.153h-5.265l2.625-6.314 2.64 6.314zm28.623 8.153V8.017h-4.305V20.01l-9.26-11.993h-4.006v19.476h4.287V15.11l9.57 12.382h3.714zm22.438-3.143l-2.763-2.755c-1.552 1.388-2.935 2.28-5.195 2.28-3.386 0-5.73-2.776-5.73-6.12v-.056c0-3.337 2.4-6.064 5.73-6.064 1.974 0 3.52.833 5.054 2.196l2.756-3.143c-1.834-1.78-4.062-3.004-7.789-3.004-6.068 0-10.302 4.534-10.302 10.06v.056c0 5.592 4.318 10.015 10.133 10.015 3.805.01 6.061-1.325 8.092-3.465h.014zm18.549 3.143v-3.816h-10.742V19.58h9.317v-3.816h-9.317V11.83h10.587V8.014h-14.906v19.475l15.061.004z" fill="#B6B3EB"/></svg>