<svg width="81" height="32" fill="none" xmlns="http://www.w3.org/2000/svg"><mask id="mask0_0_160" style="mask-type:luminance" maskUnits="userSpaceOnUse" x="0" y="0" width="81" height="32"><path d="M.395 0v6.533h4.468V25.11H.517v6.454h15.545V25.11h-4.467V6.533h4.345V0H.396zm44.246.079v6.454h4.467V25.11h-4.345v6.454H55.84v-17.96l6.601 17.954.135.003 6.482-17.956v17.96h11.2V25.11H75.79V6.533h4.346V.08H67.65l-5.17 14.396L57.248.079H44.64zM18.143.08v6.454h4.467v10.233h17.196v-1.962s1.438-1.105 1.896-2.154l.92-2.035s.428-1.14.428-2.157l-.184-2.036s-.289-1.658-.792-2.15l-1.779-2.039S38.033.08 35.035.08H18.144zm11.2 6.454h6.547v5.983h-6.548V6.534z" fill="#fff"/><path d="M18.143 31.564V25.11h4.467V14.877h17.196v1.962s1.438 1.105 1.896 2.154l.92 2.035s.428 1.14.428 2.158l-.184 2.035s-.289 1.658-.792 2.15l-1.779 2.039s-2.262 2.154-5.26 2.154H18.144zm11.2-6.454h6.547v-5.983h-6.548v5.983z" fill="#fff"/></mask><g mask="url(#mask0_0_160)"><path d="M.395 1.156h82.259v4.19H.395m0 4.19h77.867v4.19H.394v4.19h77.867v4.19H.394m0 4.19h82.259v4.191H.395" fill="#B6B3EB"/><path d="M.395 1.156h82.259v4.19H.395m0 4.19h77.867v4.19H.394v4.19h77.867v4.19H.394m0 4.19h82.259v4.191H.395" stroke="#B6B3EB" stroke-width="25.265"/></g></svg>