<svg width="132" height="32" fill="none" xmlns="http://www.w3.org/2000/svg"><path fill-rule="evenodd" clip-rule="evenodd" d="M42.236 31.111h4.97V17.506h2.668c6.994 0 16.29-.545 16.29-8.436 0-7.982-8.743-8.617-15.738-8.617H36.438v.816c4.97.545 5.798 1.27 5.798 4.082v25.76zm4.97-25.76c0-2.721.275-3.084 4.97-3.084 5.152 0 8.28 2.268 8.28 6.803 0 5.896-5.336 6.712-10.766 6.712h-2.485V5.351zm24.295.544c0-3.718-.828-3.99-5.798-4.626V.453h11.595l18.13 24.944h.092V.453h3.038v30.658H94.14L74.63 4.445h-.092V31.11H71.5V5.895zm59.635 24.4c-2.761.725-5.43 1.27-10.86 1.27-10.859 0-16.749-7.528-16.749-16.781C103.527 6.53 107.024 0 118.896 0c8.742 0 11.872 3.627 12.24 6.711h-5.614c-.275-1.45-1.289-4.626-6.994-4.626-6.166 0-9.387 4.537-9.387 11.52 0 6.44 1.656 15.964 14.356 15.964 3.405 0 6.995-.998 7.639-1.179v1.904zM24.334 17.962h-3.6c.15-.369.076-.886-.224-1.478l-2.025-3.326-3.375-5.84s-1.275-2.365-3.15-3.77c1.2.444 16.35 9.166 16.35 9.166 2.475 1.479 4.65 5.174-3.976 5.248zm-11.4 9.389c-2.474 1.404-6.9 1.404-2.624-5.988.75-1.257 1.8-3.104 1.8-3.104.3.369.75.59 1.425.59h10.8s2.7.074 4.875-.812c-.975.739-16.275 9.314-16.275 9.314zM7.76 6.948c0-2.808 2.25-6.579 6.6.74.75 1.33 1.8 3.105 1.8 3.105-.45.073-.825.37-1.2.96l-1.95 3.4-3.45 5.766s-1.425 2.292-1.725 4.658c-.15-1.331-.075-18.629-.075-18.629zM16.385 0C7.535 0 .41 7.023.41 15.745s7.125 15.82 15.975 15.82 16.05-7.098 16.05-15.82C32.435 7.023 25.235 0 16.385 0z" fill="#B6B3EB"/><path d="M29.298 29.79h.275c.287 0 .47-.155.47-.39 0-.264-.196-.38-.48-.384-.13 0-.222.013-.265.025v.749zm-.269-.934c.136-.028.33-.044.516-.044.287 0 .472.052.603.168a.506.506 0 01.163.39c0 .27-.173.45-.392.524v.009c.16.054.256.2.305.414.068.286.118.483.162.563h-.279c-.034-.06-.08-.235-.139-.49-.062-.284-.174-.39-.417-.4h-.253v.89h-.269v-2.024z" fill="#B6B3EB"/><path d="M28.171 29.857c.002.8.66 1.448 1.47 1.449a1.461 1.461 0 001.472-1.449 1.461 1.461 0 00-1.471-1.447 1.462 1.462 0 00-1.47 1.447zm-.258 0c0-.94.773-1.702 1.729-1.702.955 0 1.73.762 1.73 1.702 0 .942-.775 1.705-1.73 1.705a1.716 1.716 0 01-1.729-1.705z" fill="#B6B3EB"/></svg>