<svg width="24" height="24" fill="none" xmlns="http://www.w3.org/2000/svg"><path d="M16.705 9.915a8.805 8.805 0 01.645-4.565c.09-.18.26-.39.09-.585-.17-.195-.405-.06-.605 0a3.89 3.89 0 00-2.395 2c-.135.235-.23.47-.595.42a16.785 16.785 0 00-3.715-.07 6.69 6.69 0 00-2.66.73A6.44 6.44 0 004.635 11a.998.998 0 01-.06-.205c-.14-.65-.5-1-1.065-.915H3.5A.954.954 0 002.68 11 3.43 3.43 0 004 13.895a.79.79 0 01.32.46 6 6 0 001.94 3.175 1.38 1.38 0 01.5 1.195c-.135 1.36.405 2.05 1.885 2.25.114.027.229.047.345.06 1 .205.89.2 1.075-.71.125-.61.37-.79 1-.695.51.07 1.026.095 1.54.075 1.235 0 1.24 0 1.575 1.155.06.21.105.44.4.385a7.673 7.673 0 002-.465 1.274 1.274 0 00.865-1.155c-.105-1.065.24-1.5.88-2.295.09-.105.28-.29.385-.44a2.21 2.21 0 011.76-1.03c.605-.03.875-.215.875-.91v-2.1a.83.83 0 00-.73-.91 2.12 2.12 0 01-1.545-1.27 6.115 6.115 0 00-2.36-2.5m.815 5.43a.895.895 0 01-.84-.945.88.88 0 01.925-.83.896.896 0 11-.1 1.785l.015-.01zM8.47 7.41A2.35 2.35 0 1111.5 7" stroke="#fff" stroke-linecap="round" stroke-linejoin="round"/></svg>