<svg width="24" height="24" fill="none" xmlns="http://www.w3.org/2000/svg"><path d="M4.638 5.624l-.1.035V13.5a7.463 7.463 0 0014.924 0V5.659l-.1-.035-7.312-2.578-.05-.018-.05.018-7.312 2.578zM3.15 4.608L12 1.658l8.85 2.95V13.5A8.85 8.85 0 0112 22.35a8.85 8.85 0 01-8.85-8.85V4.608z" fill="#fff" stroke="#fff" stroke-width=".3"/><path d="M8.762 11.241h0l2.452 2.452.106.106.106-.106 4.61-4.608h0a.647.647 0 01.916 0h0l.065.066h0c.06.06.108.131.14.21l.14-.058-.14.058a.646.646 0 010 .495l.14.057-.14-.057a.647.647 0 01-.14.21h0l-5.238 5.238h0a.646.646 0 01-.915 0h0l-.05-.05-3.032-3.032h0a.69.69 0 010-.98v-.001a.692.692 0 01.98 0z" fill="#fff" stroke="#fff" stroke-width=".3"/></svg>