<svg width="24" height="24" fill="none" xmlns="http://www.w3.org/2000/svg"><path d="M5.843 12V7.956A6.046 6.046 0 0111.997 2a6.046 6.046 0 016.154 5.954V12m-3.077 8.076A3.077 3.077 0 0018.151 17v-3.46m-3.077 6.538A1.923 1.923 0 0113.151 22h-2.308a1.923 1.923 0 010-3.846h2.308a1.923 1.923 0 011.923 1.923zM3.536 9.693h1.538a.77.77 0 01.77.77v4.614a.77.77 0 01-.77.77H3.536a1.539 1.539 0 01-1.539-1.539v-3.077a1.538 1.538 0 011.539-1.538zm16.923 6.154H18.92a.77.77 0 01-.77-.77v-4.615a.77.77 0 01.77-.77h1.539a1.539 1.539 0 011.538 1.54v3.076a1.538 1.538 0 01-1.538 1.539z" stroke="#fff" stroke-linecap="round" stroke-linejoin="round"/></svg>