<svg width="24" height="24" fill="none" xmlns="http://www.w3.org/2000/svg"><path d="M19.323 3.677l.177.177.177-.177 1.073-1.073V19A2.746 2.746 0 0118 21.75H6A2.746 2.746 0 013.25 19v-2.75h3V2.604l1.073 1.073.177.177.177-.177L9 2.354l1.323 1.323.177.177.177-.177L12 2.354l1.323 1.323.177.177.177-.177L15 2.354l1.323 1.323.177.177.177-.177L18 2.354l1.323 1.323zM15 20.25h.25v-2.5H4.75V19c0 .688.562 1.25 1.25 1.25h9zM7.75 16v.25h9V19c0 .688.562 1.25 1.25 1.25s1.25-.562 1.25-1.25V4.75H7.75V16zm1.5-8.75h5.5v1.5h-5.5v-1.5zm7 1.5v-1.5h1.5v1.5h-1.5zm-7 1.5h5.5v1.5h-5.5v-1.5zm7 1.5v-1.5h1.5v1.5h-1.5z" fill="#fff" stroke="#fff" stroke-width=".5"/></svg>