<svg width="24" height="24" fill="none" xmlns="http://www.w3.org/2000/svg"><path d="M15.771 9.292a9.527 9.527 0 00-.675.391 5.34 5.34 0 00-.596.44V10.1l-.054-.028-3.2-1.688-.046-.024-.047.024-3.2 1.688-.053.028v3.473l.053.028 3.2 1.688.047.024.046-.024 1.056-.558a4.955 4.955 0 00.179 1.39l-1.281.677-4.7-2.49V9.365l4.7-2.49 4.571 2.417zM1.553 6.685l-.053.028V16.96l.053.028 7.115 3.75-.463.448a2.201 2.201 0 00-.412.57L.1 17.696V5.979l5.547-2.931L11.2.113 22.3 5.98v3.14a6.661 6.661 0 00-1.4-.496v-1.91l-.054-.029-9.6-5.074-.046-.025-.047.025-9.6 5.074zM19.2 10.457h0a4.894 4.894 0 013.32 1.268c.424.392.762.855 1.015 1.391.252.534.374 1.093.366 1.678v.002c0 .602-.122 1.162-.366 1.68-.244.52-.579.98-1.003 1.38a4.619 4.619 0 01-1.505.938c-.58.227-1.189.34-1.826.34a5.1 5.1 0 01-1.435-.204 4.575 4.575 0 01-1.284-.6l-.066-.043-.058.053-5.462 5.04h0a.7.7 0 01-.495.193.701.701 0 01-.495-.193.586.586 0 010-.893h0l5.45-5.052.068-.063-.057-.072a3.973 3.973 0 01-.647-1.184 4.056 4.056 0 01-.22-1.32c0-.595.123-1.155.367-1.68a4.352 4.352 0 011.002-1.38 4.93 4.93 0 011.495-.94 4.651 4.651 0 011.835-.339zm-.001 7.398v0h.002c.453 0 .878-.08 1.274-.239a3.538 3.538 0 001.055-.654c.31-.278.548-.602.712-.97a3.05 3.05 0 00.259-1.194h0v-.002c0-.423-.087-.819-.26-1.187a3.25 3.25 0 00-.709-.978 3.115 3.115 0 00-1.046-.657 3.753 3.753 0 00-1.284-.237v0H19.2c-.454 0-.88.079-1.275.238a3.536 3.536 0 00-1.055.654c-.31.279-.547.602-.712.97a3.05 3.05 0 00-.258 1.195h0v.002c0 .422.086.818.26 1.187a3.221 3.221 0 001.754 1.634c.395.151.823.23 1.284.238z" fill="#fff" stroke="#5D55FF" stroke-width=".2"/></svg>