<svg width="24" height="24" fill="none" xmlns="http://www.w3.org/2000/svg"><path d="M15.037 14.89h0l-.002-.001-5.59-2.084A1.665 1.665 0 007.2 14.364v2.595a2.3 2.3 0 001.686 2.216l4.938 1.367a2.3 2.3 0 001.296-.02l4.303-1.335c.374-.116.647-.417.717-.732a.607.607 0 00-.105-.517c-.13-.164-.33-.228-.535-.228h-5.35a4.682 4.682 0 01-1.485-.245h0l-1.43-.474a.7.7 0 01.44-1.33l1.43.474h.003c.066.022.153.036.235.047.088.012.193.022.307.031.228.02.502.035.766.047.392.02.755-.17.937-.436a.62.62 0 00.101-.52c-.059-.206-.223-.34-.417-.414zm1.565-.542c.35.423.76.907 1.227 1.283.469.377 1.024.669 1.671.669 1.494 0 2.7 1.206 2.7 2.7 0 .464-.301.874-.744 1.012l-6.483 2.026a1.7 1.7 0 01-.96.015L8.367 20.49a.922.922 0 00-1.168.889.322.322 0 01-.322.322H3.5A1.7 1.7 0 011.8 20v-7a1.7 1.7 0 011.7-1.7h5.609a1.7 1.7 0 01.594.107l5.822 2.174s0 0 0 0c.428.16.795.429 1.077.767zM3.2 19a1.3 1.3 0 102.6 0v-5a1.3 1.3 0 10-2.6 0v5z" fill="#fff" stroke="#5D55FF" stroke-width=".6"/><path d="M21.3 7.53V13a.8.8 0 01-1.6 0V8.541a2.2 2.2 0 00-.938-1.802l-3-2.1a2.2 2.2 0 00-2.524 0L9.806 7.042a1.186 1.186 0 00-.506.972.792.792 0 01-.793.786A.806.806 0 017.7 8v-.65c0-.469.226-.909.607-1.181l5.147-3.676a1.8 1.8 0 012.092 0l5 3.572a1.8 1.8 0 01.754 1.464zM13.8 9.5a.3.3 0 11-.6 0 .3.3 0 01.6 0zm2 0a.3.3 0 11-.6 0 .3.3 0 01.6 0zm-2-2a.3.3 0 11-.6 0 .3.3 0 01.6 0zm2 0a.3.3 0 11-.6 0 .3.3 0 01.6 0z" fill="#fff" stroke="#5D55FF" stroke-width=".4"/></svg>