<svg width="24" height="24" fill="none" xmlns="http://www.w3.org/2000/svg"><path d="M21.226 14.957v2.947a1.973 1.973 0 01-1.973 1.973H4.223a1.973 1.973 0 01-1.973-1.973V6.097a1.973 1.973 0 011.973-1.974h15.03a1.974 1.974 0 011.973 1.974v3.049" stroke="#fff" stroke-linecap="round" stroke-linejoin="round"/><path d="M21.147 14.963h-5.184a2.911 2.911 0 010-5.823h5.185c.332 0 .602.27.602.603v4.617c0 .333-.27.603-.603.603z" stroke="#fff" stroke-linecap="round" stroke-linejoin="round"/><path d="M16.229 13.438a1.352 1.352 0 100-2.705 1.352 1.352 0 000 2.705z" stroke="#fff" stroke-linecap="round" stroke-linejoin="round"/></svg>