<svg width="716" height="532" fill="none" xmlns="http://www.w3.org/2000/svg"><path d="M611.224 528.006c7.597-17.795 12.954-37.163 10.419-56.331a62.175 62.175 0 00-5.605-18.729 56.781 56.781 0 00-8.788-13.278 7.96 7.96 0 00-10.076-1.62 8.346 8.346 0 00-3.555 3.917c-.118.266-.217.54-.296.82a8.517 8.517 0 00-.276 3.612 91.108 91.108 0 01-.858 29.653 87.637 87.637 0 01-1.782 7.397 73.798 73.798 0 00-5.024-5.653 62.287 62.287 0 00-15.68-11.552h-.009c-.029-.019-.048-.028-.077-.047-7.034-3.584-16.414-2.097-21.895.343-.362.152-.705.324-1.039.486-2.859 1.468-4.28 3.155-3.059 4.26.276.239.552.486.81.734a91.206 91.206 0 0120.074 27.013v.009a88.863 88.863 0 014.966 12.544c1.84 5.938 3.365 12.524 6.959 17.366.367.51.765.997 1.191 1.458l32.104-.257c.076-.038.143-.067.219-.105l1.277.048a15.147 15.147 0 00-.162-.686v-.019c-.028-.124-.066-.258-.095-.372-.029-.095-.048-.181-.067-.258a8.83 8.83 0 01.181-.419c.048-.114.096-.219.143-.334z" fill="#F0F0F0"/><path d="M611.062 529.389a.425.425 0 01-.248.327.421.421 0 01-.409-.041 17.413 17.413 0 00-4.299-2.278c-.01-.01-.01 0-.01 0a36.17 36.17 0 00-5.948-1.583c-.019 0-.028-.009-.048-.009-.819-.162-1.639-.305-2.459-.458-3.984-.734-8.035-1.62-11.486-3.889a11.7 11.7 0 01-5.366-7.939c-.506-3.193.133-6.406.4-9.589.019-.229.038-.467.048-.696.019-.295.028-.581.028-.867a18.502 18.502 0 00-1.696-8.388 33.26 33.26 0 00-6.063-8.521 70.457 70.457 0 00-3.965-3.937h-.01a2.256 2.256 0 00-.162-.152c0-.01-.009-.019-.019-.029a77.26 77.26 0 00-19.779-13.058c-.257-.115-.524-.238-.791-.353a81.23 81.23 0 00-2.097-.905c.334-.162.677-.334 1.039-.486a79.105 79.105 0 0122.01 13.973c.219.19.438.391.648.591a70.042 70.042 0 014.709 4.794 30.986 30.986 0 015.709 8.731 19.445 19.445 0 011.325 8.178 30.646 30.646 0 01-.105 1.611c-.295 3.212-.953 6.529-.219 9.741.839 3.66 3.679 6.215 6.977 7.778a30.181 30.181 0 006.825 2.116c4.862 1.02 9.885 1.515 14.136 4.127h.01c.067.048.133.086.19.124.01 0 .01 0 .01.01.307.182.603.382.886.6.02.01.039.029.058.038a.418.418 0 01.171.439z" fill="#fff"/><path d="M570.129 481.429a11.628 11.628 0 00-.386-15.059c-.373-.415-1.035.146-.661.561a10.775 10.775 0 01.33 14.009c-.353.433.367.919.717.489zm11.412 20.908a22.42 22.42 0 01-15.803-4.157c-.451-.33-.939.388-.489.717a23.32 23.32 0 0016.454 4.293c.556-.066.391-.918-.162-.853zm-31.912-34.16c-.019.038-.038.067-.058.105a7.39 7.39 0 01-5.137 3.736 21.238 21.238 0 00-.81-.734.315.315 0 01.142-.047 6.58 6.58 0 005.014-3.308c.048-.076.096-.162.134-.238a.436.436 0 01.445-.181.42.42 0 01.331.344.452.452 0 01-.061.323zM69.832 5.188A64.719 64.719 0 005.188 69.83v247.725a64.712 64.712 0 0064.644 64.64h576.336a64.715 64.715 0 0064.644-64.64V69.829a64.716 64.716 0 00-64.644-64.64H69.832z" fill="#fff"/><path d="M646.168 387.383H69.832A69.914 69.914 0 010 317.554V69.829A69.906 69.906 0 0169.832 0h576.336A69.909 69.909 0 01716 69.829v247.725a69.908 69.908 0 01-69.832 69.829zM69.832 10.376A59.524 59.524 0 0010.377 69.83v247.725a59.524 59.524 0 0059.456 59.452h576.335a59.522 59.522 0 0059.455-59.452V69.829a59.522 59.522 0 00-59.455-59.453H69.832z" fill="#E6E6E6"/><path d="M359.547 56.477H85.461a22.107 22.107 0 00-22.068 22.067V202.16a20.84 20.84 0 00.364 3.909c.086.588.224 1.159.363 1.729a22.137 22.137 0 0021.341 16.429h274.086c.45 0 .9-.017 1.332-.051h.312v-.018c.086.003.173-.003.259-.017.086 0 .19-.017.277-.017a.16.16 0 00.086-.018c.19-.017.381-.034.554-.051.311-.052.622-.087.916-.139a.294.294 0 01.121-.017.345.345 0 01.173-.035.067.067 0 01.052-.017c.19-.035.381-.069.571-.121.105-.015.209-.038.311-.069.381-.087.761-.173 1.124-.294.173-.052.329-.087.502-.139.225-.069.467-.155.692-.242.117-.032.233-.073.345-.121a.086.086 0 00.039-.009.107.107 0 00.031-.025c.5-.177.99-.379 1.47-.606.415-.19.813-.397 1.21-.605.156-.069.294-.156.45-.242a.377.377 0 00.104-.069c.398-.242.795-.484 1.176-.709.017-.017.017-.035.034-.035l.007-.001.006-.004c.001-.001.003-.003.003-.005a.019.019 0 00.002-.007c.407-.255.799-.532 1.176-.83h.017c.104-.087.19-.156.277-.225.121-.086.242-.19.346-.277.207-.173.415-.346.605-.518.117-.089.227-.188.328-.294.295-.26.571-.537.848-.813.148-.141.286-.292.415-.45.215-.206.417-.426.605-.657.173-.225.364-.45.536-.675.206-.236.396-.484.571-.743.312-.415.588-.83.865-1.28a17.806 17.806 0 00.968-1.729c.018 0 .018-.018.018-.035.19-.363.363-.726.519-1.107.069-.155.138-.294.19-.449.138-.294.242-.606.363-.917.19-.571.38-1.159.536-1.747.138-.57.277-1.141.363-1.729a20.83 20.83 0 00.364-3.908V78.544a22.109 22.109 0 00-22.069-22.067z" fill="#6C63FF"/><path opacity=".3" d="M381.616 91.93H63.393v1.729h318.223v-1.73zm0 19.023H63.393v1.729h318.223v-1.729zm0 19.023H63.393v1.729h318.223v-1.729zm0 19.023H63.393v1.73h318.223v-1.73zm0 19.023H63.393v1.73h318.223v-1.73zm0 19.024H63.393v1.729h318.223v-1.729zm-.364 19.023c-.086.588-.225 1.159-.363 1.729H63.635a14.276 14.276 0 01-.207-1.729h317.824z" fill="#fff"/><path d="M381.616 175.39v26.771a20.83 20.83 0 01-.364 3.908c-.086.588-.225 1.159-.363 1.729a29.697 29.697 0 01-.536 1.747c-.121.311-.225.623-.363.917-.052.155-.121.294-.19.449-.156.381-.329.744-.519 1.107 0 .017 0 .035-.018.035a17.806 17.806 0 01-.968 1.729c-.277.45-.553.865-.865 1.28a7.591 7.591 0 01-.571.743c-.172.225-.363.45-.536.675-.188.231-.39.451-.605.657a4.905 4.905 0 01-.415.45c-.277.276-.553.553-.848.812a2.61 2.61 0 01-.328.294c-.19.173-.398.346-.605.519-.104.087-.225.19-.346.277-.087.069-.173.138-.277.225h-.017c-.377.298-.77.575-1.176.83l-.002.007c0 .002-.002.004-.003.005a.02.02 0 01-.006.004l-.007.001c-.017 0-.017.018-.034.035-.242.173-.502.328-.761.484a5.136 5.136 0 01-.415.225.377.377 0 01-.104.069c-.156.086-.294.173-.45.242-.397.208-.795.415-1.21.605-.48.227-.97.429-1.47.606a.107.107 0 01-.031.025.086.086 0 01-.039.009 2.663 2.663 0 01-.345.121c-.225.087-.467.173-.692.242-.173.052-.329.087-.502.139-.363.121-.743.207-1.124.294a2.082 2.082 0 01-.311.069c-.19.052-.381.086-.571.121a.067.067 0 00-.052.017.335.335 0 00-.173.035.294.294 0 00-.121.017c-.294.052-.605.087-.916.138-.173.018-.364.035-.554.052a.16.16 0 01-.086.018c-.191.017-.364.034-.536.051h-.035c-.19.018-.381.018-.571.035-.346.017-.692.017-1.038.017H85.461a22.135 22.135 0 01-21.341-16.429h-.485a14.296 14.296 0 01-.207-1.729 19.46 19.46 0 01-.035-1.003v-30.161c3.63.107 7.23.695 10.706 1.747 9.408 2.871 18.557 7.73 28.38 7.73.778 0 1.591-.034 2.387-.103 10.342-.865 18.384-7.281 25.077-14.527a49.842 49.842 0 001.574-1.73c1.263-1.4 2.473-2.836 3.649-4.254a93.106 93.106 0 0112.574-13.039 51.403 51.403 0 012.248-1.73 31.953 31.953 0 0115.254-6.105 29.194 29.194 0 012.127-.138c7.402-.225 14.355 2.439 20.684 6.243a55.173 55.173 0 012.716 1.73 103.185 103.185 0 018.734 6.623 166.78 166.78 0 0013.489 10.67c.346.243.692.485 1.038.692.536.363 1.09.709 1.643 1.038a39.974 39.974 0 0015.634 5.897c.191.035.398.069.606.086 9.01 1.055 17.398-1.608 25.06-5.983a69.66 69.66 0 002.853-1.73 118.068 118.068 0 0016.759-13.489c1.349-1.262 2.715-2.542 4.133-3.804.64-.571 1.28-1.159 1.937-1.73 10.273-9.027 22.12-17.294 36.112-17.294.588 0 1.193.018 1.798.052 10.066.484 18.903 5.361 26.323 11.552a81.045 81.045 0 016.174 5.69l.242.242c.484.484.969.986 1.418 1.488 5.535 5.793 10.636 11.984 16.655 17.293a38.342 38.342 0 002.023 1.73 56.521 56.521 0 006.572 4.704 31.4 31.4 0 001.644.934z" fill="#000" opacity=".1"/><path d="M381.616 149.258v52.902a20.84 20.84 0 01-.364 3.909c-.086.588-.225 1.158-.363 1.729a29.697 29.697 0 01-.536 1.747c-.121.311-.225.622-.363.916-.052.156-.121.294-.19.45-.156.381-.329.744-.519 1.107 0 .017 0 .034-.018.034-.103.208-.207.416-.311.606-.207.38-.432.761-.657 1.124a16.57 16.57 0 01-.865 1.28 7.591 7.591 0 01-.571.743c-.172.225-.363.45-.536.675-.188.231-.39.451-.605.657a5.038 5.038 0 01-.415.45c-.277.276-.553.553-.848.812a2.61 2.61 0 01-.328.294c-.19.173-.398.346-.605.519-.104.087-.225.19-.346.277-.087.069-.173.138-.277.225h-.017c-.377.298-.77.575-1.176.83l-.002.006c0 .003-.002.005-.003.006a.02.02 0 01-.006.004l-.007.001c-.017 0-.017.017-.034.035-.242.173-.502.328-.761.484-.139.086-.277.155-.415.225a.377.377 0 01-.104.069c-.156.086-.294.173-.45.242-.397.207-.795.415-1.21.605-.48.227-.97.429-1.47.606a.107.107 0 01-.031.025.086.086 0 01-.039.009 2.663 2.663 0 01-.345.121c-.225.087-.467.173-.692.242-.173.052-.329.087-.502.139-.363.121-.743.207-1.124.294a2.082 2.082 0 01-.311.069c-.19.052-.381.086-.571.121a.067.067 0 00-.052.017.335.335 0 00-.173.035.294.294 0 00-.121.017c-.294.052-.605.086-.916.138-.173.018-.364.035-.554.052a.16.16 0 01-.086.018c-.087 0-.191.017-.277.017-.086.014-.173.02-.259.017a.896.896 0 01-.225.017h-.087c-.086.018-.19.018-.294.035-.346.017-.692.017-1.038.017H85.461a22.135 22.135 0 01-21.341-16.429 19.144 19.144 0 01-.364-1.729 20.806 20.806 0 01-.363-3.909v-30.8a52.223 52.223 0 001.782-1.608 85.01 85.01 0 001.781-1.73 132.685 132.685 0 0014.026-17.293c.138-.191.277-.364.398-.554a49.9 49.9 0 01.847-1.176 135.994 135.994 0 0114.026-17.294 82.29 82.29 0 011.782-1.729c6.433-6.053 13.766-10.567 22.413-11.639 11.916-1.487 23.002 4.03 32.809 11.639.726.57 1.435 1.141 2.144 1.729 3.355 2.733 6.537 5.707 9.547 8.664.795.796 1.608 1.592 2.421 2.387a363.774 363.774 0 006.399 6.243 172.28 172.28 0 001.851 1.73c8.647 8.007 18.003 15.045 29.124 17.293.761.156 1.539.294 2.317.398 4.202.56 8.467.425 12.625-.398a28.999 28.999 0 002.058-.449c10.412-2.577 20.062-9.062 28.796-16.844.623-.571 1.263-1.142 1.885-1.73 4.462-4.133 8.699-8.56 12.66-12.918a455.397 455.397 0 014.012-4.376c.554-.57 1.09-1.141 1.626-1.729a146.097 146.097 0 0118.92-17.294 70.236 70.236 0 012.439-1.729c9.149-6.243 19.145-10.256 30.127-9.616 9.063.519 17.347 4.254 24.801 9.616a65.953 65.953 0 012.283 1.729 103.6 103.6 0 0115.444 15.34c.536.64 1.072 1.297 1.608 1.954.277.328.536.674.813 1.003l.571.726c4.583 5.725 8.993 11.674 13.68 17.294l.208.259z" fill="#000" opacity=".1"/><path d="M381.616 127.416v74.744a20.84 20.84 0 01-.364 3.909c-.086.588-.225 1.159-.363 1.729a29.697 29.697 0 01-.536 1.747c-.121.311-.225.623-.363.917-.052.155-.121.293-.19.449-.156.381-.329.744-.519 1.107 0 .017 0 .035-.018.035a17.806 17.806 0 01-.968 1.729c-.277.45-.553.865-.865 1.28a7.591 7.591 0 01-.571.743c-.172.225-.363.45-.536.675-.188.231-.39.451-.605.657a4.905 4.905 0 01-.415.45c-.277.276-.553.553-.848.812a2.61 2.61 0 01-.328.294c-.19.173-.398.346-.605.519-.104.087-.225.19-.346.277-.087.069-.173.138-.277.225h-.017c-.377.298-.77.575-1.176.83l-.002.007c0 .002-.002.004-.003.005a.02.02 0 01-.006.004l-.007.001c-.017 0-.017.017-.034.035-.242.173-.502.328-.761.484a5.136 5.136 0 01-.415.225.377.377 0 01-.104.069c-.156.086-.294.173-.45.242-.397.208-.795.415-1.21.605-.48.227-.97.429-1.47.606a.107.107 0 01-.031.025.086.086 0 01-.039.009 2.663 2.663 0 01-.345.121c-.225.087-.467.173-.692.242-.173.052-.329.087-.502.139-.363.121-.743.207-1.124.294a2.082 2.082 0 01-.311.069c-.19.052-.381.086-.571.121a.067.067 0 00-.052.017.335.335 0 00-.173.035.294.294 0 00-.121.017c-.294.052-.605.087-.916.138-.173.018-.364.035-.554.052a.16.16 0 01-.086.018c-.087 0-.191.017-.277.017-.086.014-.173.02-.259.017a.06.06 0 01-.035.017h-.277c-.432.035-.882.052-1.332.052H85.461a22.135 22.135 0 01-21.341-16.429 19.144 19.144 0 01-.364-1.729 20.806 20.806 0 01-.363-3.909v-44.652c1.747-2.266 3.5-4.525 5.258-6.779.45-.588.9-1.159 1.349-1.73 2.37-3.044 4.756-6.053 7.212-8.993a166.097 166.097 0 017.402-8.301c.553-.57 1.107-1.158 1.677-1.729a96.137 96.137 0 0122.362-17.294 52.785 52.785 0 013.425-1.729 53.436 53.436 0 0119.56-5.102 54.306 54.306 0 0125.838 5.102 48.016 48.016 0 013.58 1.729c8.457 4.358 16.396 10.463 23.832 17.294.64.553 1.246 1.141 1.868 1.729 5.898 5.534 11.484 11.466 16.811 17.294.398.433.795.882 1.193 1.315.121.138.26.276.381.415 5.188 5.707 10.722 11.483 16.602 16.844.156.155.329.294.502.449a93.67 93.67 0 001.937 1.73 134.105 134.105 0 007.125 5.897 92.763 92.763 0 0018.627 11.397c1.401.64 2.819 1.21 4.254 1.729a51.149 51.149 0 0024.835 2.94 49.506 49.506 0 0011.259-2.94 56.301 56.301 0 004.064-1.729c8.769-4.151 16.69-10.429 24.196-17.294.622-.571 1.245-1.142 1.868-1.73 4.271-4.012 8.422-8.18 12.521-12.209a248.497 248.497 0 015.309-5.084c.623-.571 1.263-1.142 1.903-1.73a133.076 133.076 0 016.745-5.69 86.68 86.68 0 0118.54-11.604 36.94 36.94 0 011.729-.726 54.9 54.9 0 012.646-1.003 46.4 46.4 0 0111.813-2.56z" fill="#000" opacity=".1"/><path d="M131.707 116.141a5.189 5.189 0 100-10.377 5.189 5.189 0 000 10.377zm79.556 57.07a5.189 5.189 0 10-.001-10.377 5.189 5.189 0 00.001 10.377zm107.227-38.047a5.188 5.188 0 100-10.377 5.188 5.188 0 000 10.377z" fill="#fff"/><path d="M554.493 174.242H432.152a4.418 4.418 0 00-4.084 2.723 4.421 4.421 0 000 3.382 4.406 4.406 0 002.393 2.389 4.4 4.4 0 001.691.334h122.341a4.418 4.418 0 003.122-1.292 4.419 4.419 0 00-3.122-7.536zm0 66.843H432.152a4.414 4.414 0 000 8.828h122.341a4.415 4.415 0 100-8.828zm0 66.843H432.152a4.414 4.414 0 000 8.828h122.341a4.415 4.415 0 100-8.828z" fill="#E6E6E6"/><path d="M628.623 190.01c6.089 0 11.024-4.935 11.024-11.024 0-6.088-4.935-11.023-11.024-11.023-6.088 0-11.024 4.935-11.024 11.023 0 6.089 4.936 11.024 11.024 11.024z" fill="#F2F2F2"/><path d="M627.119 184.724a1.227 1.227 0 01-.981-.491l-3.007-4.01a1.222 1.222 0 01.244-1.718 1.223 1.223 0 011.362-.073c.138.082.259.191.356.32l1.967 2.623 5.054-7.58a1.224 1.224 0 011.701-.34 1.228 1.228 0 01.34 1.7l-6.015 9.023a1.226 1.226 0 01-.987.545l-.034.001z" fill="#fff"/><path d="M628.623 256.853c6.089 0 11.024-4.936 11.024-11.024 0-6.088-4.935-11.023-11.024-11.023-6.088 0-11.024 4.935-11.024 11.023s4.936 11.024 11.024 11.024z" fill="#F2F2F2"/><path d="M627.119 251.567a1.227 1.227 0 01-.981-.491l-3.007-4.01a1.222 1.222 0 01.244-1.718 1.242 1.242 0 01.91-.233 1.217 1.217 0 01.808.48l1.967 2.623 5.054-7.58a1.226 1.226 0 112.041 1.36l-6.015 9.022a1.219 1.219 0 01-.987.546l-.034.001z" fill="#fff"/><path d="M628.623 323.696c6.089 0 11.024-4.936 11.024-11.024 0-6.088-4.935-11.023-11.024-11.023-6.088 0-11.024 4.935-11.024 11.023s4.936 11.024 11.024 11.024z" fill="#F2F2F2"/><path d="M554.493 107.399H432.152a4.414 4.414 0 000 8.829h122.341a4.42 4.42 0 003.122-1.293 4.419 4.419 0 00-3.122-7.536z" fill="#E6E6E6"/><path d="M628.623 123.167c6.089 0 11.024-4.935 11.024-11.023 0-6.089-4.935-11.024-11.024-11.024-6.088 0-11.024 4.935-11.024 11.024 0 6.088 4.936 11.023 11.024 11.023z" fill="#6C63FF"/><path d="M627.119 117.881a1.227 1.227 0 01-.981-.491l-3.007-4.01a1.222 1.222 0 01.244-1.718 1.223 1.223 0 011.362-.073c.138.082.259.191.356.32l1.967 2.623 5.054-7.58a1.226 1.226 0 112.041 1.361l-6.015 9.022a1.228 1.228 0 01-.987.545l-.034.001z" fill="#fff"/><path d="M592.047 123.167c6.088 0 11.024-4.935 11.024-11.023 0-6.089-4.936-11.024-11.024-11.024-6.088 0-11.024 4.935-11.024 11.024 0 6.088 4.936 11.023 11.024 11.023zm0 66.843c6.088 0 11.024-4.935 11.024-11.024 0-6.088-4.936-11.023-11.024-11.023-6.088 0-11.024 4.935-11.024 11.023 0 6.089 4.936 11.024 11.024 11.024zm0 66.843c6.088 0 11.024-4.936 11.024-11.024 0-6.088-4.936-11.023-11.024-11.023-6.088 0-11.024 4.935-11.024 11.023s4.936 11.024 11.024 11.024zm0 66.843c6.088 0 11.024-4.936 11.024-11.024 0-6.088-4.936-11.023-11.024-11.023-6.088 0-11.024 4.935-11.024 11.023s4.936 11.024 11.024 11.024z" fill="#F2F2F2"/><path d="M627.119 318.409a1.226 1.226 0 01-.981-.49l-3.007-4.01a1.22 1.22 0 01-.074-1.36 1.224 1.224 0 012.036-.111l1.967 2.623 5.054-7.58a1.224 1.224 0 012.223.44c.064.318-.002.65-.182.92l-6.015 9.022a1.219 1.219 0 01-.987.546h-.034zm-15.895 209.598a.399.399 0 01-.143.333.54.54 0 01-.257.105.371.371 0 01-.438-.276c-1.316-4.423-4.538-7.816-7.588-11.143-2.745-2.983-5.443-6.129-6.825-10.008a11.706 11.706 0 01.496-9.579 16.848 16.848 0 011.649-2.497c1.363-1.735 2.983-3.279 4.442-4.919.152-.171.305-.352.448-.524.2-.219.381-.448.553-.677a18.443 18.443 0 003.689-7.72 33.17 33.17 0 00.295-10.456 69.69 69.69 0 00-.791-5.509c-.019-.086-.029-.163-.048-.239a76.973 76.973 0 00-7.93-22.37c-.143-.258-.277-.515-.42-.763a70.039 70.039 0 00-1.906-3.26c.229-.162.476-.314.724-.457a78.952 78.952 0 015.691 11.085 77.481 77.481 0 014.642 15.298c.067.286.114.582.162.868.4 2.201.696 4.432.877 6.653a30.841 30.841 0 01-.705 10.408 19.427 19.427 0 01-3.88 7.349c-.324.41-.667.81-1.029 1.201-1.449 1.582-3.051 3.117-4.357 4.842a14.396 14.396 0 00-1.687 2.802c-1.534 3.431-.81 7.187.887 10.409 3.069 5.861 8.922 9.855 12.039 15.603a17.718 17.718 0 011.391 3.326.446.446 0 01.019.115z" fill="#fff"/><path d="M607.275 465.399a11.636 11.636 0 008.758-12.256c-.048-.556-.915-.507-.866.05.22 2.56-.483 5.115-1.982 7.202a10.767 10.767 0 01-6.189 4.182c-.542.134-.261.955.279.822zm-3.477 23.565a22.422 22.422 0 01-10.116-12.834c-.161-.535-.983-.255-.822.279a23.326 23.326 0 0010.553 13.333c.484.282.865-.498.385-.778zm-4.918-46.484c-.038.019-.066.029-.104.048a7.346 7.346 0 01-5.453.257c.079-.28.178-.554.296-.82a6.51 6.51 0 004.737-.2c.086-.029.162-.067.248-.105a.437.437 0 01.553.267.46.46 0 01-.277.553z" fill="#fff"/><path d="M551.367 296.425a8.938 8.938 0 001.913-7.305 8.924 8.924 0 00-4.372-6.156l5.756-31.185-15.176 6.424-3.139 28.629a8.975 8.975 0 003.248 11.467 8.977 8.977 0 0011.77-1.874z" fill="#FFB6B6"/><path d="M560.629 204.125l-4.824-16.213-34.01-53.062a25.1 25.1 0 00-6.682-5.51 25.32 25.32 0 00-37.849 20.671 25.321 25.321 0 004.792 16.178 23.536 23.536 0 002.317 2.764l44.047 45.428 2.507 2.592L534.892 227l1.563 45.723 1.402.334 12.344 2.907 1.725.41 2.888-14.936 1.811-7.139a75.764 75.764 0 002.316-18.625 73.83 73.83 0 00-.219-5.814l1.907-25.735z" fill="#3F3D56"/><path d="M513.874 519.417h-11.81l-5.618-45.551 17.43.001-.002 45.55z" fill="#FFB6B6"/><path d="M513.56 515.558l-12.602-5.118-.371-.153-6.959 5.271a14.815 14.815 0 00-14.803 14.174c-.019.209-.019.429-.019.648v.486h38.08v-15.308h-3.326z" fill="#2F2E41"/><path d="M491.384 495.86l-10.18 5.989-27.945-36.409 15.023-8.838 23.102 39.258z" fill="#FFB6B6"/><path d="M498.413 501.862l-1.382-2.355-5.004-8.502-2.602 1.535-.267.152-13.459 1.983-.401.057-3.317 8.073a14.819 14.819 0 00-6.835 9.057 14.827 14.827 0 001.573 11.236l.248.41 32.819-19.311-1.373-2.335z" fill="#2F2E41"/><path d="M528.832 240.944c5.537 16.699 4.952 34.825-1.331 54.28l-1.64 66.878-5.267 42.185a72.22 72.22 0 014.807 25.901c-.022 23.211-1.583 56.186-9.496 71.677h-18.726l-4.228-68.983-5.044-34.684-.622-37.166-.542-32.415-20.361 29.772-19.786 28.931 19.666 33.171 17.157 53.376-18.11 15.251-20.545-38.949-9.958-11.568-27.181-58.839 2.443-8.193a193.762 193.762 0 0121.716-47.876l27.037-62.747 70.011-20.002z" fill="#2F2E41"/><path d="M531.232 235.369l-3.088-6.176.276-14.812.925-50.079a48.044 48.044 0 00-14.232-34.962 47.089 47.089 0 00-9.112-7.082l-6.635-3.965-3.355-8.521-30.941.753-.066 8.264-.029 2.907-11.086 17.672.01.076.229 32.159.457 64.014 3.06 9.922-4.623 11.553 2.459 7.358 1.964-.315 66.133-10.57a12.982 12.982 0 007.177-5.7c.326-.53.61-1.084.849-1.658a13.016 13.016 0 00-.372-10.838z" fill="#3F3D56"/><path d="M477.704 99.173c15.528 0 28.115-12.587 28.115-28.114 0-15.527-12.587-28.114-28.115-28.114-15.528 0-28.116 12.587-28.116 28.114 0 15.527 12.588 28.114 28.116 28.114z" fill="#FFB6B6"/><path d="M495.193 94.354c2.97-2.089 5.977-6.066 7.98-9.043a33.757 33.757 0 004.84-27.024 10.296 10.296 0 00-2.489-4.924 4.424 4.424 0 00-5.117-.934 9.217 9.217 0 00-.475-7.315 16.274 16.274 0 00-4.887-5.658 27.077 27.077 0 00-27.618-2.883c-1.745.838 1.052-5.486-.778-4.855a7.495 7.495 0 01-5.657-.02c-1.74-.847-7.399 4.402-6.761 2.575a8.54 8.54 0 00-4.836 6.672 8.531 8.531 0 003.056 7.653c1.468 1.204 3.289 1.884 4.892 2.902a13.928 13.928 0 014.509 17.914 18.46 18.46 0 015.399-2.435 6.246 6.246 0 015.577 1.26 7.02 7.02 0 011.773 5.272c-.037 1.909-.465 3.794-.489 5.703-.072 5.6-2.923 16.286 1.459 19.202 3.458 2.301 15.568-1.209 19.622-4.062z" fill="#2F2E41"/><path d="M321.513 139.441a8.927 8.927 0 0010.098 4.039 8.924 8.924 0 003.407-1.831l27.438 15.901-.951-16.452-25.911-12.577a8.975 8.975 0 00-11.891-.794 8.972 8.972 0 00-2.19 11.714z" fill="#FFB6B6"/><path d="M498.709 134.516a25.334 25.334 0 00-23.508-17.602 25.314 25.314 0 00-10.197 1.875c-.305.124-.61.257-.915.391l-60.872 27.708-23.696-2.812-30.674-10.713-.782 1.21-6.891 10.647-.963 1.487 32.904 19.454 3.489.724a23.574 23.574 0 0114.946 10.17l12.754 4.194 49.824-9.646 27.928-5.414 1.583-.305a25.384 25.384 0 0016.271-23.676 25.164 25.164 0 00-1.201-7.692z" fill="#3F3D56"/><path d="M283.339 266.822H81.883a4.414 4.414 0 000 8.828h201.456a4.423 4.423 0 003.126-1.29 4.421 4.421 0 001.295-3.124 4.42 4.42 0 00-1.295-3.124 4.412 4.412 0 00-3.126-1.29z" fill="#E6E6E6"/><path d="M357.469 282.59c6.089 0 11.024-4.936 11.024-11.024 0-6.088-4.935-11.023-11.024-11.023-6.088 0-11.024 4.935-11.024 11.023s4.936 11.024 11.024 11.024z" fill="#6C63FF"/><path d="M355.965 277.303a1.226 1.226 0 01-.98-.49l-3.008-4.01a1.225 1.225 0 01.677-1.924 1.218 1.218 0 01.929.133c.138.082.259.191.356.319l1.968 2.624 5.053-7.58a1.24 1.24 0 01.78-.523c.158-.031.321-.031.479 0a1.226 1.226 0 01.782 1.883l-6.015 9.022a1.228 1.228 0 01-.986.546h-.035z" fill="#fff"/><path d="M320.893 282.59c6.089 0 11.024-4.936 11.024-11.024 0-6.088-4.935-11.023-11.024-11.023-6.088 0-11.024 4.935-11.024 11.023s4.936 11.024 11.024 11.024z" fill="#F2F2F2"/><path d="M282.386 320.198H80.93a4.415 4.415 0 000 8.829h201.456a4.415 4.415 0 100-8.829z" fill="#E6E6E6"/><path d="M356.516 335.966c6.089 0 11.024-4.935 11.024-11.023s-4.935-11.024-11.024-11.024c-6.088 0-11.024 4.936-11.024 11.024 0 6.088 4.936 11.023 11.024 11.023z" fill="#F2F2F2"/><path d="M355.012 330.68a1.228 1.228 0 01-.981-.491l-3.007-4.01a1.226 1.226 0 111.962-1.471l1.967 2.623 5.054-7.58a1.229 1.229 0 011.701-.34 1.229 1.229 0 01.34 1.701l-6.015 9.022a1.228 1.228 0 01-.987.545l-.034.001z" fill="#fff"/><path d="M319.94 335.966c6.088 0 11.024-4.935 11.024-11.023s-4.936-11.024-11.024-11.024c-6.088 0-11.024 4.936-11.024 11.024 0 6.088 4.936 11.023 11.024 11.023z" fill="#F2F2F2"/></svg>