<svg width="72" height="46" fill="none" xmlns="http://www.w3.org/2000/svg"><path d="M-3 8.374V24.08h21.875c-.005 3.47-1.653 6.796-4.582 9.25-2.93 2.453-6.9 3.833-11.043 3.837v7.853c6.628-.007 12.983-2.215 17.67-6.14 4.686-3.926 7.323-9.248 7.33-14.8V-2.096H9.5C6.185-2.096 3.005-.993.661.971-1.683 2.934-3 5.597-3 8.374zm56.25-10.47c-3.316 0-6.495 1.103-8.84 3.067-2.343 1.963-3.66 4.626-3.66 7.403V24.08h21.875c-.005 3.47-1.653 6.796-4.582 9.25-2.93 2.453-6.9 3.833-11.043 3.837v7.853c6.628-.007 12.982-2.215 17.67-6.14 4.686-3.926 7.322-9.248 7.33-14.8V-2.096H53.25z" fill="#5D55FF" fill-opacity=".1"/></svg>