<svg width="20" height="20" fill="none" xmlns="http://www.w3.org/2000/svg"><path fill-rule="evenodd" clip-rule="evenodd" d="M10.92 3.48l1.523 3.043c.15.299.437.506.771.554l3.407.49c.842.122 1.177 1.142.568 1.726l-2.464 2.367a1.003 1.003 0 00-.295.896l.582 3.342c.143.827-.737 1.457-1.49 1.066l-3.044-1.578a1.04 1.04 0 00-.956 0l-3.045 1.578c-.752.392-1.632-.24-1.488-1.066l.58-3.342a1.003 1.003 0 00-.294-.896L2.81 9.293c-.609-.584-.274-1.604.568-1.726l3.407-.49c.334-.048.623-.255.772-.554L9.08 3.481c.376-.752 1.464-.752 1.84 0z" fill="#FFB800"/></svg>