<svg width="31" height="30" fill="none" xmlns="http://www.w3.org/2000/svg"><path d="M1.75 12.498a1.25 1.25 0 01-1.25-1.25V1.25A1.25 1.25 0 011.75 0h10a1.25 1.25 0 011.251 1.25v9.998a1.25 1.25 0 01-1.25 1.25h-10zm17.502 0a1.25 1.25 0 01-1.25-1.25V1.25A1.25 1.25 0 0119.252 0h9.998a1.25 1.25 0 011.25 1.25v9.998a1.25 1.25 0 01-1.25 1.25h-9.998zM1.75 30A1.25 1.25 0 01.5 28.75v-10a1.25 1.25 0 011.25-1.251h10a1.25 1.25 0 011.251 1.25v10A1.25 1.25 0 0111.751 30h-10zm17.502 0a1.25 1.25 0 01-1.25-1.25v-10a1.25 1.25 0 011.25-1.251h9.998a1.25 1.25 0 011.25 1.25v10A1.25 1.25 0 0129.25 30h-9.998z" fill="#fff"/></svg>