<svg width="184" height="54" fill="none" xmlns="http://www.w3.org/2000/svg"><path d="M1.89 52.38l4.337-10.936a2 2 0 011.046-1.09l15.264-6.8a2 2 0 011.527-.041L46 41.885l14.963 7.94a2 2 0 002.023-.087L77 40.686l17.246-3.088a2 2 0 001.58-1.457L99 24.161l10.853-4.517c.419-.174.766-.486.984-.884l8.809-16.046a2 2 0 013.367-.22l7.745 10.57c.066.091.141.177.221.255l14.155 13.716a1.999 1.999 0 002.013.465l8.336-2.725a2 2 0 012.514 1.255l4.762 13.952c.156.454.469.838.884 1.08L183 52.38" stroke="#FF2633" stroke-width="3"/></svg>