<svg width="182" height="54" fill="none" xmlns="http://www.w3.org/2000/svg"><path d="M1.89 53.005l4.337-10.936a2 2 0 011.046-1.09l16.019-7.136 17.564-9.431a2 2 0 011.625-.12l16.309 5.88a2 2 0 001.739-.187L82.154 16.46c.181-.114.38-.198.588-.248l27.989-6.795a2 2 0 00.846-.44l7.939-6.952a2 2 0 012.931.323l8.228 11.23c.121.165.267.31.433.432l14.118 10.317c.339.247.747.382 1.167.385l9.66.066a2 2 0 011.823 1.208l4.791 11.11c.245.57.74.993 1.341 1.146l16.696 4.269" stroke="#33FF39" stroke-width="3"/></svg>