<svg width="40" height="41" fill="none" xmlns="http://www.w3.org/2000/svg"><path d="M22.056.5c2.25.006 3.392.018 4.378.046l.388.014c.448.016.89.036 1.424.06 2.128.1 3.58.436 4.854.93 1.32.508 2.431 1.196 3.543 2.306A9.8 9.8 0 0138.95 7.4c.494 1.274.83 2.726.93 4.856.024.532.044.974.06 1.424l.012.388c.03.984.042 2.126.046 4.376L40 19.936v2.62c.005 1.458-.01 2.917-.046 4.375l-.012.388c-.016.45-.036.892-.06 1.424-.1 2.13-.44 3.58-.932 4.856a9.8 9.8 0 01-2.306 3.544A9.8 9.8 0 0133.1 39.45c-1.273.494-2.725.83-4.853.93l-1.424.06-.388.012c-.986.028-2.128.042-4.378.046l-1.492.002h-2.618c-1.46.005-2.919-.01-4.378-.046l-.387-.012a134.4 134.4 0 01-1.424-.062c-2.128-.1-3.58-.436-4.856-.93a9.8 9.8 0 01-3.542-2.306A9.8 9.8 0 011.051 33.6c-.494-1.274-.83-2.726-.93-4.856l-.06-1.424-.01-.388a158.003 158.003 0 01-.05-4.376v-4.111c-.005-1.46.01-2.918.044-4.376l.014-.388c.016-.45.036-.892.06-1.424.1-2.13.436-3.58.93-4.856a9.8 9.8 0 012.312-3.544 9.8 9.8 0 013.54-2.306c1.276-.494 2.726-.83 4.856-.93.532-.024.976-.044 1.424-.06l.388-.012c1.458-.036 2.916-.05 4.375-.046L22.056.5zM20 10.5a10 10 0 100 19.999 10 10 0 000-20zm0 4a5.999 5.999 0 012.298 11.542 6.001 6.001 0 01-6.538-1.3A6 6 0 0120.002 14.5m10.5-7a2.5 2.5 0 100 5 2.5 2.5 0 000-5z" fill="#fff"/></svg>