<svg width="50" height="41" fill="none" xmlns="http://www.w3.org/2000/svg"><path d="M50 5.24a21.021 21.021 0 01-5.89 1.593 10.156 10.156 0 004.513-5.583 20.594 20.594 0 01-6.517 2.448A10.328 10.328 0 0034.616.5c-5.67 0-10.257 4.52-10.257 10.094a9.704 9.704 0 00.265 2.302A29.238 29.238 0 013.478 2.344a9.969 9.969 0 00-1.395 5.073c0 3.5 1.826 6.593 4.584 8.406a10.158 10.158 0 01-4.665-1.26v.124c0 4.896 3.542 8.97 8.23 9.896-.882.235-1.79.354-2.703.354a9.82 9.82 0 01-1.928-.187c1.303 4.01 5.096 6.927 9.589 7.01a20.792 20.792 0 01-12.742 4.323A21.147 21.147 0 010 35.937 29.031 29.031 0 0015.702 40.5c18.892 0 29.213-15.386 29.213-28.73 0-.437-.012-.874-.033-1.301A20.676 20.676 0 0050 5.239z" fill="#fff"/></svg>