<svg width="604" height="59" fill="none" xmlns="http://www.w3.org/2000/svg"><path d="M420.44 10.546L407.872.336H303.217L279.405 19.68H89.536L65.724.336H0v30.617h305.966l33.781 27.442h157.711l33.781-27.442H604V10.546H420.44z" fill="url(#paint0_radial_2084_40689)"/><path d="M407.872.336H303.217l-18.149 14.73h61.568l33.781 27.442h99.835l33.781-27.442H604v-4.52H420.44L407.872.336z" fill="url(#paint1_radial_2084_40689)"/><path d="M497.756 59H339.449l-.232-.175-33.549-27.267H0v-1.21h306.281l33.781 27.441h157.081l33.781-27.442H604v1.211h-72.463L497.756 59z" fill="url(#paint2_radial_2084_40689)"/><path d="M279.57 20.016H89.354L65.542.673H0V0h65.89l23.812 19.344h189.521L303.035 0h105.002l12.585 10.21H604v.673H420.275L407.706.673H303.383L279.57 20.016z" fill="url(#paint3_radial_2084_40689)"/><defs><radialGradient id="paint0_radial_2084_40689" cx="0" cy="0" r="1" gradientUnits="userSpaceOnUse" gradientTransform="matrix(349.098 0 0 288.188 341.48 73.038)"><stop stop-color="#7B8499"/><stop offset="1" stop-color="#151E28"/></radialGradient><radialGradient id="paint1_radial_2084_40689" cx="0" cy="0" r="1" gradientUnits="userSpaceOnUse" gradientTransform="matrix(451.749 0 0 271.101 186.728 127.053)"><stop stop-color="#7B8499"/><stop offset="1" stop-color="#151E28"/></radialGradient><radialGradient id="paint2_radial_2084_40689" cx="0" cy="0" r="1" gradientUnits="userSpaceOnUse" gradientTransform="matrix(272.476 0 0 455.784 301.997 67.045)"><stop stop-color="#B8BFC9"/><stop offset="1" stop-color="#151E28"/></radialGradient><radialGradient id="paint3_radial_2084_40689" cx="0" cy="0" r="1" gradientUnits="userSpaceOnUse" gradientTransform="matrix(318.172 0 0 258.466 301.997 10.007)"><stop stop-color="#3D4753"/><stop offset="1" stop-color="#0B1318"/></radialGradient></defs></svg>