<svg width="1920" height="100" fill="none" xmlns="http://www.w3.org/2000/svg"><path d="M1336.5 17.875L1296.55.57H963.869l-75.695 32.786H284.618L208.923.57H0v51.892h972.607l107.383 46.512h501.33l107.39-46.512H1920V17.875h-583.5z" fill="url(#paint0_radial_2084_9956)"/><path d="M1296.55.57H963.869l-57.692 24.966h195.713l107.38 46.511h317.36l107.38-46.511H1920v-7.66h-583.5L1296.55.57z" fill="url(#paint1_radial_2084_9956)"/><path d="M1582.27 100h-503.23l-.73-.296-106.651-46.216H0v-2.052h973.607l107.383 46.512h499.33l107.38-46.512H1920v2.052h-230.35L1582.27 100z" fill="url(#paint2_radial_2084_9956)"/><path d="M888.701 33.926H284.039L208.344 1.14H0V0h209.45l75.694 32.786h602.451L963.29 0h333.78l40.01 17.305H1920v1.14h-584.03L1296.02 1.14H964.395l-75.694 32.786z" fill="url(#paint3_radial_2084_9956)"/><defs><radialGradient id="paint0_radial_2084_9956" cx="0" cy="0" r="1" gradientUnits="userSpaceOnUse" gradientTransform="matrix(1109.71 0 0 488.454 1085.5 123.794)"><stop stop-color="#7B8499"/><stop offset="1" stop-color="#151E28"/></radialGradient><radialGradient id="paint1_radial_2084_9956" cx="0" cy="0" r="1" gradientUnits="userSpaceOnUse" gradientTransform="matrix(1436.02 0 0 459.493 593.571 215.343)"><stop stop-color="#7B8499"/><stop offset="1" stop-color="#151E28"/></radialGradient><radialGradient id="paint2_radial_2084_9956" cx="0" cy="0" r="1" gradientUnits="userSpaceOnUse" gradientTransform="matrix(866.149 0 0 772.515 959.99 113.635)"><stop stop-color="#B8BFC9"/><stop offset="1" stop-color="#151E28"/></radialGradient><radialGradient id="paint3_radial_2084_9956" cx="0" cy="0" r="1" gradientUnits="userSpaceOnUse" gradientTransform="matrix(1011.41 0 0 438.078 959.99 16.962)"><stop stop-color="#3D4753"/><stop offset="1" stop-color="#0B1318"/></radialGradient></defs></svg>