<svg width="224" height="153" fill="none" xmlns="http://www.w3.org/2000/svg"><path fill-rule="evenodd" clip-rule="evenodd" d="M16.251 66.03l28.592-27.09h62.783l23.29-24.13 76.833.261.261 91.935-31.634 31.622-128.492-.088-31.633-19.077V66.031z" fill="#0D2021" fill-opacity=".5"/><path d="M15.034 64.811l28.592-27.179.521-.522h62.784L129.7 13.502l.521-.522h.782l76.92.261h1.738v1.742l.174 91.935v.697l-32.763 32.841-129.622-.087-33.024-19.862V65.334l.608-.523zm30.504-24.13L17.989 66.815v51.689l30.417 18.293 127.188.087 30.591-30.663-.174-89.496-74.4-.26-22.768 23.52-.522.522h-.782l-62.001.174z" fill="#02F7EA" fill-opacity=".3"/><path d="M103.889 25.524L127.875.784l.521-.523h23.812v3.572h-22.335l-23.985 24.74-.522.522h-15.12v-3.571h13.643zM192.628.26v3.572h-27.906V.26h27.906zM224 0v19.861h-3.563V3.572h-15.99V0H224zm0 85.053h-3.563V28.66H224v56.393zm0 12.108v17.945L186.197 153h-18.772v-3.572h17.294l35.631-35.715V96.377h3.563v.784H224zM72.478 153v-3.572H153V153H72.48zm-14.6 0H38.064l-.174-.087-.26-.174L.868 130.525 0 130.002v-21.69h3.563v19.6l35.544 21.429h19.64v3.572h-.869V153zM.087 60.891l.521-.523 36.76-34.322.522-.522h19.901v3.571H39.368L3.737 62.46v17.248H.087V60.891z" fill="#02F7EA" fill-opacity=".3"/></svg>