<svg width="427" height="418" fill="none" xmlns="http://www.w3.org/2000/svg"><path opacity=".5" fill-rule="evenodd" clip-rule="evenodd" d="M29.23 4h61.922v23.496l236.862 1.3V4.1l72.268-.1c10.586 0 23.479 16.497 23.479 29.595v78.488h-25.469l-.318 91.485H424l-.239 185.535c0 13.198-8.675 23.996-19.181 23.896l-76.407-.1-.08-23.696-236.623-.8v24.396l-63.115.1c-10.506 0-24.037-14.197-24.116-27.395L4 203.568l21.49-.1.159-89.986-21.33.2V29.996C4.158 16.898 18.644 4 29.23 4z" fill="#000"/><path d="M30.978 0h63.23v25.184h231.099l.079-21.386V.3h2.788l67.848-.3h.159c8.442 0 16.166 4.397 21.741 11.293 5.574 6.995 9.078 16.59 9.078 27.083v.2l-.08 74.452v3.498H400.8l.08 83.147h26.04v3.498l.08 176.054c0 10.593-3.424 20.287-8.999 27.282-5.574 6.996-13.299 11.293-21.82 11.393h-70.715v-3.498l-.08-21.386-231.099-.2V418h-63.23c-8.52 0-16.245-4.297-21.899-11.293C3.584 399.712.08 390.018.08 379.425V199.873h22.696v-82.947H0V38.675c0-10.693 3.504-20.287 9.078-27.282C14.732 4.297 22.457 0 30.978 0zm57.655 6.996H30.978c-7.008 0-13.3 3.597-17.918 9.294-4.619 5.696-7.486 13.69-7.486 22.385v71.255H28.27v96.938H5.495v172.557c0 8.694 2.867 16.589 7.485 22.385 4.62 5.697 10.99 9.294 17.918 9.294h57.655V385.92h2.788l236.753.3h2.787v3.498l.08 21.386h65.141c6.928 0 13.299-3.597 17.838-9.294 4.539-5.696 7.406-13.591 7.406-22.285l-.08-172.557h-26.04v-3.498l-.08-90.142v-3.498h26.12l.08-71.055v-.2c0-8.594-2.867-16.49-7.486-22.185-4.539-5.697-10.91-9.295-17.758-9.295h-.159l-64.982.3-.08 21.387v3.497H88.713V6.996h-.08z" fill="url(#paint0_linear_2138_188)"/><defs><linearGradient id="paint0_linear_2138_188" x1="-95.424" y1="16.839" x2="327.123" y2="707.723" gradientUnits="userSpaceOnUse"><stop stop-color="#fff"/><stop offset=".169" stop-color="#5E5E5E"/><stop offset=".264" stop-color="#DEDEDE"/><stop offset=".396" stop-color="#8E8E8E"/><stop offset=".542" stop-color="#636363"/><stop offset=".626" stop-color="#5F5F5F"/><stop offset=".718" stop-color="#EAEAEA"/><stop offset=".791" stop-color="#fff"/><stop offset="1" stop-color="#454545"/></linearGradient></defs></svg>