<svg width="60" height="60" fill="none" xmlns="http://www.w3.org/2000/svg"><g clip-path="url(#clip0_2129_11778)"><ellipse cx="30" cy="27.241" rx="27.5" ry="27.241" fill="url(#paint0_linear_2129_11778)"/><path d="M30.279 27.862c5.306 0 9.607-4.261 9.607-9.518 0-5.256-4.301-9.517-9.608-9.517-5.306 0-9.607 4.261-9.607 9.517 0 5.257 4.301 9.518 9.608 9.518z" fill="url(#paint1_linear_2129_11778)" stroke="url(#paint2_linear_2129_11778)" stroke-width=".794" stroke-miterlimit="10" stroke-linecap="round" stroke-linejoin="round"/><path d="M46.36 49.31c0 10.139-7.17 11.035-16.081 11.035-8.912 0-16.083-.896-16.083-11.034s7.171-18.345 16.083-18.345c8.841 0 16.082 8.207 16.082 18.345z" fill="url(#paint3_linear_2129_11778)" stroke="url(#paint4_linear_2129_11778)" stroke-width=".833" stroke-miterlimit="10" stroke-linecap="round" stroke-linejoin="round"/></g><defs><linearGradient id="paint0_linear_2129_11778" x1="50.19" y1="45.172" x2="16.078" y2="7.955" gradientUnits="userSpaceOnUse"><stop stop-color="#02F7EA"/><stop offset="1" stop-color="#BCE1FF"/></linearGradient><linearGradient id="paint1_linear_2129_11778" x1="35.061" y1="26.577" x2="25.602" y2="10.037" gradientUnits="userSpaceOnUse"><stop stop-color="#fff" stop-opacity="0"/><stop offset=".984" stop-color="#fff" stop-opacity=".394"/><stop offset="1" stop-color="#fff" stop-opacity=".4"/></linearGradient><linearGradient id="paint2_linear_2129_11778" x1="30.264" y1="28.177" x2="30.264" y2="8.515" gradientUnits="userSpaceOnUse"><stop stop-color="#fff" stop-opacity="0"/><stop offset="1" stop-color="#fff" stop-opacity=".7"/></linearGradient><linearGradient id="paint3_linear_2129_11778" x1="37.56" y1="60.959" x2="21.883" y2="33.547" gradientUnits="userSpaceOnUse"><stop stop-color="#E1E8FF"/><stop offset=".984" stop-color="#fff" stop-opacity=".394"/></linearGradient><linearGradient id="paint4_linear_2129_11778" x1="30.264" y1="60.667" x2="30.264" y2="30.603" gradientUnits="userSpaceOnUse"><stop stop-color="#fff" stop-opacity="0"/><stop offset="1" stop-color="#fff" stop-opacity=".7"/></linearGradient><clipPath id="clip0_2129_11778"><path fill="#fff" d="M0 0h60v60H0z"/></clipPath></defs></svg>