<svg width="60" height="60" fill="none" xmlns="http://www.w3.org/2000/svg"><g clip-path="url(#clip0_2129_11812)"><mask id="mask0_2129_11812" style="mask-type:luminance" maskUnits="userSpaceOnUse" x="-1" y="17" width="61" height="37"><path d="M-.222 23.241l2.815 27.037c.222 1.852 1.777 3.334 3.63 3.334h47.11c1.852 0 3.482-1.408 3.63-3.334l2.815-27.037c.296-2.889-2-5.407-4.89-5.407H4.668c-2.89 0-5.186 2.518-4.89 5.407z" fill="#fff"/></mask><g filter="url(#filter0_d_2129_11812)" mask="url(#mask0_2129_11812)"><path d="M7.407 45.685L3.333 17.907h53.333l-4.074 28.519c-.296 2.074-2.592 2.84-3.703 2.963-11.235-.124-34.519-.297-37.778 0-3.26.296-3.827-2.346-3.704-3.704z" fill="url(#paint0_linear_2129_11812)"/></g><path d="M56.963 16.055l-.149 2.148a5.564 5.564 0 00-1.925-.37H4.666c-.444 0-.963.074-1.407.222l-.74-8.296c-.149-2.074 1.48-3.926 3.555-3.926h8.74a3.595 3.595 0 013.556 3.185c.222 1.778 1.778 3.185 3.556 3.185h31.407c2.148 0 3.852 1.778 3.63 3.852z" fill="url(#paint1_linear_2129_11812)"/><g filter="url(#filter1_b_2129_11812)"><path d="M-.222 23.24l2.815 27.038c.222 1.851 1.777 3.333 3.63 3.333h47.11c1.852 0 3.482-1.408 3.63-3.333l2.815-27.038c.296-2.888-2-5.407-4.89-5.407H4.668c-2.89 0-5.186 2.519-4.89 5.407z" fill="url(#paint2_linear_2129_11812)"/><path d="M-.222 23.24l2.815 27.038c.222 1.851 1.777 3.333 3.63 3.333h47.11c1.852 0 3.482-1.408 3.63-3.333l2.815-27.038c.296-2.888-2-5.407-4.89-5.407H4.668c-2.89 0-5.186 2.519-4.89 5.407z" stroke="url(#paint3_linear_2129_11812)" stroke-width=".794" stroke-miterlimit="10" stroke-linecap="round" stroke-linejoin="round"/></g></g><defs><linearGradient id="paint0_linear_2129_11812" x1="7.037" y1="11.981" x2="54.444" y2="33.833" gradientUnits="userSpaceOnUse"><stop stop-color="#02F7EA"/><stop offset="1" stop-color="#A2C9FF"/></linearGradient><linearGradient id="paint1_linear_2129_11812" x1="12.251" y1="-1.729" x2="55.555" y2="31.981" gradientUnits="userSpaceOnUse"><stop stop-color="#02F7EA"/><stop offset="1" stop-color="#B3D9FF"/></linearGradient><linearGradient id="paint2_linear_2129_11812" x1="44.494" y1="59.244" x2="16.279" y2="10.375" gradientUnits="userSpaceOnUse"><stop stop-color="#E8EDFE"/><stop offset=".984" stop-color="#fff" stop-opacity=".394"/></linearGradient><linearGradient id="paint3_linear_2129_11812" x1="29.773" y1="53.927" x2="29.773" y2="17.486" gradientUnits="userSpaceOnUse"><stop stop-color="#DDE5FF"/><stop offset="1" stop-color="#fff" stop-opacity=".7"/></linearGradient><filter id="filter0_d_2129_11812" x="0" y="17.907" width="60" height="38.172" filterUnits="userSpaceOnUse" color-interpolation-filters="sRGB"><feFlood flood-opacity="0" result="BackgroundImageFix"/><feColorMatrix in="SourceAlpha" values="0 0 0 0 0 0 0 0 0 0 0 0 0 0 0 0 0 0 127 0" result="hardAlpha"/><feOffset dy="3.333"/><feGaussianBlur stdDeviation="1.667"/><feComposite in2="hardAlpha" operator="out"/><feColorMatrix values="0 0 0 0 0.266667 0 0 0 0 0.439216 0 0 0 0 0.996078 0 0 0 1 0"/><feBlend in2="BackgroundImageFix" result="effect1_dropShadow_2129_11812"/><feBlend in="SourceGraphic" in2="effect1_dropShadow_2129_11812" result="shape"/></filter><filter id="filter1_b_2129_11812" x="-10.645" y="7.436" width="80.846" height="56.572" filterUnits="userSpaceOnUse" color-interpolation-filters="sRGB"><feFlood flood-opacity="0" result="BackgroundImageFix"/><feGaussianBlur in="BackgroundImageFix" stdDeviation="5"/><feComposite in2="SourceAlpha" operator="in" result="effect1_backgroundBlur_2129_11812"/><feBlend in="SourceGraphic" in2="effect1_backgroundBlur_2129_11812" result="shape"/></filter><clipPath id="clip0_2129_11812"><path fill="#fff" d="M0 0h60v60H0z"/></clipPath></defs></svg>