<svg width="50" height="50" fill="none" xmlns="http://www.w3.org/2000/svg"><path fill-rule="evenodd" clip-rule="evenodd" d="M25 45.695c-11.437 0-20.695-9.258-20.695-20.67 0-11.41 9.258-20.668 20.695-20.668 11.437 0 20.695 9.258 20.695 20.669 0 11.385-9.258 20.669-20.695 20.669zM0 25.441a25.472 25.472 0 001.4 7.884c1.349 3.812 3.527 7.105 6.458 9.88a25.298 25.298 0 009.7 5.68A24.89 24.89 0 0025 50v-3.605a21.29 21.29 0 01-6.976-1.167 21.207 21.207 0 01-7.858-4.823c-2.8-2.724-4.772-6.017-5.81-9.803a21.09 21.09 0 01-.725-5.239L0 25.441zm26.712 24.507a25.59 25.59 0 007.469-1.686c3.215-1.296 6.042-3.138 8.506-5.575 2.878-2.905 4.979-6.328 6.198-10.244A24.89 24.89 0 0050 25v-1.245l-3.605.182v1.037c0 2.723-.492 5.29-1.478 7.858a21.415 21.415 0 01-4.694 7.184 21.773 21.773 0 01-7.858 5.057 20.736 20.736 0 01-5.887 1.244l.234 3.631zm15.197-43.36a24.8 24.8 0 00-8.17-5.006C30.888.519 28.035.026 25 0a26.27 26.27 0 00-3.501.233 25.38 25.38 0 00-9.206 3.242 25.556 25.556 0 00-5.42 4.305l2.619 2.464a24.06 24.06 0 012.411-2.179c3.502-2.67 7.573-4.2 12.008-4.434.363-.026.726-.026 1.115-.026 2.723 0 5.29.493 7.858 1.478a21.845 21.845 0 016.639 4.15l2.386-2.646zM25 39.522c-8.014 0-14.523-6.51-14.523-14.523 0-8.014 6.51-14.523 14.523-14.523 8.014 0 14.523 6.51 14.523 14.523 0 8.014-6.51 14.523-14.523 14.523z" fill="url(#paint0_linear_2135_175)"/><path d="M32 20.342a1 1 0 00-1.415 0l-7.245 7.245a1 1 0 01-1.414 0l-2.541-2.541a1 1 0 10-1.414 1.414L20.517 29a3 3 0 004.24-.003L32 21.756a1 1 0 000-1.414z" fill="#02F7EA"/><defs><linearGradient id="paint0_linear_2135_175" x1="-11.174" y1="2.681" x2="63.143" y2="92.037" gradientUnits="userSpaceOnUse"><stop stop-color="#fff"/><stop offset=".169" stop-color="#5E5E5E"/><stop offset=".264" stop-color="#DEDEDE"/><stop offset=".396" stop-color="#8E8E8E"/><stop offset=".542" stop-color="#636363"/><stop offset=".626" stop-color="#5F5F5F"/><stop offset=".718" stop-color="#EAEAEA"/><stop offset=".791" stop-color="#fff"/><stop offset="1" stop-color="#454545"/></linearGradient></defs></svg>