<svg xmlns="http://www.w3.org/2000/svg" width="22" height="22"><path fill="#e3bf59" d="M2.484 1.262c0 .476-.769 1.245-1.243 1.245-.476 0-1.245-.77-1.245-1.245C-.004.765.765.02 1.241.02c.474 0 1.243.746 1.243 1.243zM1.263 22.003c-.498 0-1.244-.769-1.244-1.243 0-.476.746-1.245 1.244-1.245.497 0 1.244.769 1.244 1.245 0 .474-.747 1.243-1.244 1.243zM4.859 3.615c0 .498-.769 1.244-1.244 1.244s-1.244-.746-1.244-1.244c0-.475.77-1.245 1.244-1.245.475 0 1.244.77 1.244 1.245zM3.638 19.628c-.498 0-1.244-.769-1.244-1.243 0-.476.746-1.245 1.244-1.245s1.244.77 1.244 1.245c0 .474-.746 1.243-1.244 1.243zm2.375-2.397c-.498 0-1.244-.769-1.244-1.244s.746-1.244 1.244-1.244c.497 0 1.244.769 1.244 1.244s-.747 1.244-1.244 1.244zM7.234 6.012c0 .498-.769 1.244-1.22 1.244-.454 0-1.223-.746-1.223-1.244 0-.497.77-1.244 1.222-1.244.452 0 1.221.747 1.221 1.244zm2.397 2.353c0 .497-.768 1.266-1.244 1.266-.474 0-1.243-.769-1.243-1.266 0-.475.769-1.244 1.243-1.244.476 0 1.244.769 1.244 1.244zm-1.244 6.49c-.497 0-1.243-.768-1.243-1.243 0-.475.746-1.244 1.243-1.244.498 0 1.244.77 1.244 1.244 0 .475-.746 1.244-1.244 1.244zm2.624-2.261c-.655 0-1.628-.995-1.628-1.606 0-.61.973-1.606 1.628-1.606.656 0 1.629.995 1.629 1.606 0 .611-.973 1.606-1.629 1.606zm2.624-2.963c-.498 0-1.267-.769-1.267-1.244 0-.474.77-1.244 1.267-1.244.475 0 1.244.77 1.244 1.244 0 .475-.77 1.244-1.244 1.244zm1.222 3.981c0 .498-.77 1.244-1.245 1.244-.475 0-1.244-.746-1.244-1.244s.77-1.244 1.244-1.244c.476 0 1.245.746 1.245 1.244zm1.13-6.401c-.497 0-1.244-.747-1.244-1.222 0-.474.747-1.22 1.244-1.22.498 0 1.244.746 1.244 1.22 0 .475-.746 1.222-1.244 1.222zm1.244 8.776c0 .497-.746 1.244-1.22 1.244-.476 0-1.223-.747-1.223-1.244s.747-1.244 1.222-1.244 1.221.747 1.221 1.244zM18.385 4.86c-.498 0-1.244-.77-1.244-1.244 0-.475.746-1.245 1.244-1.245.475 0 1.244.77 1.244 1.245 0 .475-.769 1.244-1.244 1.244zm1.244 13.503c0 .497-.769 1.244-1.244 1.244s-1.244-.747-1.244-1.244c0-.475.769-1.244 1.244-1.244s1.244.769 1.244 1.244zm1.108-15.878c-.475 0-1.244-.77-1.244-1.244 0-.475.77-1.244 1.244-1.244.498 0 1.244.769 1.244 1.244s-.746 1.244-1.244 1.244zm1.267 18.253c0 .497-.77 1.244-1.244 1.244-.475 0-1.244-.747-1.244-1.244 0-.498.769-1.244 1.244-1.244s1.244.746 1.244 1.244z"/></svg>