<svg xmlns="http://www.w3.org/2000/svg" width="79" height="246"><defs><clipPath id="199id"><path fill="#fff" d="M40 175.998c11.598 0 21 9.401 21 21 0 11.598-9.402 21-21 21s-21-9.402-21-21c0-11.599 9.402-21 21-21z"/></clipPath><clipPath id="199ie"><path fill="#fff" d="M40.5 166.997c16.844 0 30.5 13.656 30.5 30.5 0 16.846-13.656 30.5-30.5 30.5-16.845 0-30.5-13.654-30.5-30.5 0-16.844 13.655-30.5 30.5-30.5z"/></clipPath><clipPath id="199if"><path fill="#fff" d="M40 157.997c21.539 0 39 17.462 39 39 0 21.54-17.461 39.001-39 39.001-21.54 0-39-17.461-39-39 0-21.54 17.46-39 39-39z"/></clipPath><clipPath id="199ic"><path d="M39 4h1c14.36 0 26 11.64 26 26v168c0 14.359-11.64 26-26 26h-1c-14.36 0-26-11.641-26-26V30C13 15.64 24.64 4 39 4z"/></clipPath><filter id="199ia" width="99.5" height="275" x="-10" y="-19" filterUnits="userSpaceOnUse"><feOffset dx=".5" dy="9" in="SourceGraphic" result="FeOffset1025Out"/><feGaussianBlur in="FeOffset1025Out" result="FeGaussianBlur1026Out" stdDeviation="5.16 5.16"/></filter><mask id="199ib" width="2" height="2" x="-1" y="-1"><path fill="#fff" d="M12.9 3.9h53.2v220.2H12.9z"/><path d="M39 4h1c14.36 0 26 11.64 26 26v168c0 14.359-11.64 26-26 26h-1c-14.36 0-26-11.641-26-26V30C13 15.64 24.64 4 39 4z"/></mask></defs><g filter="url(#199ia)"><path fill="none" stroke="#000" stroke-opacity=".15" stroke-width=".2" d="M39 4h1c14.36 0 26 11.64 26 26v168c0 14.359-11.64 26-26 26h-1c-14.36 0-26-11.641-26-26V30C13 15.64 24.64 4 39 4z" mask="url(&quot;#199ib&quot;)"/><path fill-opacity=".15" d="M39 4h1c14.36 0 26 11.64 26 26v168c0 14.359-11.64 26-26 26h-1c-14.36 0-26-11.641-26-26V30C13 15.64 24.64 4 39 4z"/></g><path fill="#e3bf59" d="M39 4h1c14.36 0 26 11.64 26 26v168c0 14.359-11.64 26-26 26h-1c-14.36 0-26-11.641-26-26V30C13 15.64 24.64 4 39 4z"/><g clip-path="url(#199ic)" opacity=".52"><path fill="none" stroke="#fff" stroke-miterlimit="20" stroke-width="4" d="M40 175.998c11.598 0 21 9.401 21 21 0 11.598-9.402 21-21 21s-21-9.402-21-21c0-11.599 9.402-21 21-21z" clip-path="url(&quot;#199id&quot;)"/></g><g clip-path="url(#199ic)" opacity=".27"><path fill="none" stroke="#fff" stroke-miterlimit="20" stroke-width="4" d="M40.5 166.997c16.844 0 30.5 13.656 30.5 30.5 0 16.846-13.656 30.5-30.5 30.5-16.845 0-30.5-13.654-30.5-30.5 0-16.844 13.655-30.5 30.5-30.5z" clip-path="url(&quot;#199ie&quot;)"/></g><g clip-path="url(#199ic)" opacity=".11"><path fill="none" stroke="#fff" stroke-miterlimit="20" stroke-width="4" d="M40 157.997c21.539 0 39 17.462 39 39 0 21.54-17.461 39.001-39 39.001-21.54 0-39-17.461-39-39 0-21.54 17.46-39 39-39z" clip-path="url(&quot;#199if&quot;)"/></g><path fill="#fff" d="M35.233 194.369s2.844 4.836 6.543 6.259c1.849-1.707 1.422-1.068 1.991-1.707.569-.64 2.347.498 2.845 1.138.498.64 2.347 2.203 2.276 2.844-.071.641-.57 1.564-1.707 2.276-1.138.71-4.836 1.067-7.112-.285-2.276-1.35-9.388-7.894-9.957-10.81-.57-2.916.071-4.552.853-5.69.783-1.138 1.85-1.565 2.845-.853.996.71 2.987 2.775 3.13 3.13.142.355.213 1.422-.57 2.275-.782.854-1.28 1.138-1.137 1.423z"/></svg>