<svg xmlns="http://www.w3.org/2000/svg" width="14" height="14"><path fill="#fff" d="M1.58.803c0 .302-.488.79-.79.79-.303 0-.793-.488-.793-.79C-.003.485.487.01.79.01c.303 0 .792.474.792.792zM.804 14c-.316 0-.791-.49-.791-.791 0-.303.475-.792.791-.792.317 0 .792.489.792.792 0 .302-.475.79-.792.79zM3.092 2.298c0 .318-.49.793-.792.793-.302 0-.791-.475-.791-.793 0-.302.49-.79.791-.79.303 0 .792.488.792.79zM2.315 12.49c-.317 0-.792-.49-.792-.792 0-.302.475-.791.792-.791.317 0 .791.489.791.79 0 .303-.474.793-.791.793zm1.511-1.526c-.316 0-.792-.489-.792-.79 0-.304.476-.793.792-.793.317 0 .792.489.792.792 0 .302-.475.791-.792.791zm.777-7.14c0 .317-.489.792-.777.792-.288 0-.777-.475-.777-.792 0-.316.49-.791.777-.791.288 0 .777.475.777.791zM6.13 5.321c0 .317-.49.807-.792.807-.302 0-.791-.49-.791-.807 0-.302.49-.791.791-.791.303 0 .792.49.792.791zm-.792 4.132c-.316 0-.791-.49-.791-.792 0-.303.475-.792.791-.792.317 0 .792.49.792.792 0 .302-.475.792-.792.792zm1.67-1.44c-.417 0-1.036-.633-1.036-1.022 0-.388.619-1.023 1.036-1.023.417 0 1.036.635 1.036 1.023 0 .39-.619 1.022-1.036 1.022zm1.67-1.885c-.317 0-.806-.49-.806-.792 0-.302.489-.792.806-.792.302 0 .791.49.791.792 0 .302-.489.792-.791.792zm.777 2.533c0 .316-.49.792-.792.792-.302 0-.791-.476-.791-.792 0-.317.489-.792.791-.792.303 0 .792.475.792.792zm.72-4.073c-.317 0-.792-.476-.792-.778 0-.302.475-.777.792-.777.316 0 .791.475.791.777 0 .302-.475.778-.791.778zm.791 5.585c0 .316-.475.791-.777.791-.302 0-.777-.475-.777-.79 0-.318.475-.793.777-.793.302 0 .777.475.777.792zm.734-7.082c-.317 0-.791-.49-.791-.793 0-.302.474-.79.791-.79.303 0 .792.488.792.79 0 .304-.49.793-.792.793zm.792 8.592c0 .317-.49.792-.792.792-.302 0-.791-.475-.791-.792 0-.302.49-.79.791-.79.303 0 .792.488.792.79zm.705-10.105c-.302 0-.791-.488-.791-.79 0-.303.489-.791.791-.791.317 0 .792.488.792.791 0 .302-.475.79-.792.79zm.806 11.617c0 .317-.49.791-.791.791-.303 0-.792-.474-.792-.79 0-.317.49-.793.792-.793.302 0 .791.476.791.792z"/></svg>