<svg xmlns="http://www.w3.org/2000/svg" width="13" height="13"><path fill="#fff" d="M3.65 5.04S5.6 8.352 8.134 9.328c1.268-1.17.975-.732 1.365-1.17.39-.439 1.609.341 1.95.78.341.438 1.608 1.51 1.56 1.949-.05.44-.39 1.072-1.17 1.56-.78.487-3.315.731-4.874-.195C5.405 11.327.53 6.843.14 4.844c-.39-1.998.049-3.12.585-3.9.536-.78 1.267-1.072 1.95-.584.682.487 2.047 1.901 2.144 2.144.098.244.146.975-.39 1.56-.536.585-.877.78-.78.975z"/><path fill="#e3bf59" d="M3.65 5.04S5.6 8.352 8.134 9.328c1.268-1.17.975-.732 1.365-1.17.39-.439 1.609.341 1.95.78.341.438 1.608 1.51 1.56 1.949-.05.44-.39 1.072-1.17 1.56-.78.487-3.315.731-4.874-.195C5.405 11.327.53 6.843.14 4.844c-.39-1.998.049-3.12.585-3.9.536-.78 1.267-1.072 1.95-.584.682.487 2.047 1.901 2.144 2.144.098.244.146.975-.39 1.56-.536.585-.877.78-.78.975z"/></svg>