<svg xmlns="http://www.w3.org/2000/svg" width="18" height="18"><path fill="#b4b4b4" d="M2.033 1.033c0 .389-.63 1.018-1.018 1.018-.39 0-1.018-.63-1.018-1.018C-.003.626.626.015 1.015.015s1.018.61 1.018 1.018zm-1 16.97c-.407 0-1.018-.63-1.018-1.018 0-.389.61-1.018 1.018-1.018.407 0 1.018.629 1.018 1.018s-.61 1.018-1.018 1.018zM3.975 2.958c0 .407-.629 1.017-1.017 1.017-.389 0-1.018-.61-1.018-1.017 0-.389.63-1.019 1.018-1.019s1.017.63 1.017 1.019zm-.999 13.101c-.407 0-1.017-.629-1.017-1.017 0-.389.61-1.018 1.017-1.018.408 0 1.018.63 1.018 1.018s-.61 1.017-1.018 1.017zm1.944-1.961c-.407 0-1.018-.63-1.018-1.018 0-.389.61-1.018 1.018-1.018.406 0 1.017.63 1.017 1.018 0 .389-.61 1.018-1.017 1.018zm.999-9.179c0 .407-.63 1.018-1 1.018s-.999-.61-.999-1.018c0-.407.63-1.018 1-1.018s.999.611.999 1.018zM7.88 6.844c0 .407-.629 1.036-1.018 1.036-.388 0-1.017-.629-1.017-1.036 0-.389.629-1.018 1.018-1.018.388 0 1.017.63 1.017 1.018zm-1.018 5.31c-.407 0-1.017-.628-1.017-1.017 0-.388.61-1.018 1.018-1.018.407 0 1.017.63 1.017 1.018 0 .389-.61 1.018-1.018 1.018zm2.147-1.85c-.536 0-1.332-.814-1.332-1.314 0-.5.796-1.314 1.332-1.314.537 0 1.332.814 1.332 1.314 0 .5-.795 1.314-1.332 1.314zm2.147-2.424c-.407 0-1.037-.629-1.037-1.018 0-.388.63-1.018 1.037-1.018.388 0 1.017.63 1.017 1.018 0 .39-.629 1.018-1.017 1.018zm1 3.257c0 .407-.63 1.018-1.019 1.018-.388 0-1.018-.61-1.018-1.018 0-.407.63-1.018 1.018-1.018.39 0 1.018.61 1.018 1.018zM13.08 5.9c-.408 0-1.018-.611-1.018-1 0-.388.61-.999 1.018-.999.407 0 1.017.611 1.017 1 0 .388-.61.999-1.017.999zm1.017 7.18c0 .407-.61 1.018-.999 1.018-.388 0-1-.611-1-1.018 0-.407.612-1.018 1-1.018.389 0 1 .611 1 1.018zm.944-9.105c-.407 0-1.018-.629-1.018-1.017 0-.389.61-1.019 1.018-1.019.389 0 1.018.63 1.018 1.019 0 .388-.629 1.017-1.018 1.017zm1.018 11.048c0 .407-.629 1.018-1.018 1.018s-1.018-.61-1.018-1.018c0-.388.63-1.017 1.018-1.017.389 0 1.018.629 1.018 1.017zm.907-12.991c-.389 0-1.018-.63-1.018-1.018s.63-1.018 1.018-1.018c.407 0 1.017.63 1.017 1.018 0 .389-.61 1.018-1.017 1.018zm1.036 14.935c0 .407-.63 1.017-1.018 1.017s-1.017-.61-1.017-1.017c0-.408.629-1.018 1.017-1.018.389 0 1.018.61 1.018 1.018z"/></svg>