<svg xmlns="http://www.w3.org/2000/svg" width="99" height="99"><defs><clipPath id="hnsvc"><path fill="#fff" d="M36.001 27.003l.109 44.988 20.904-22.32L36 27.003"/></clipPath><filter id="hnsva" width="119" height="119" x="-10" y="-10" filterUnits="userSpaceOnUse"><feOffset in="SourceGraphic" result="FeOffset1052Out"/><feGaussianBlur in="FeOffset1052Out" result="FeGaussianBlur1053Out" stdDeviation="9.52 9.52"/></filter><mask id="hnsvb" width="2.01" height="2.01" x="-1" y="-1"><path fill="#fff" d="M23.8 23.8h51.4v51.4H23.8z"/><path d="M49.5 24C63.583 24 75 35.416 75 49.5S63.583 75 49.5 75 24 63.583 24 49.5 35.417 24 49.5 24z"/></mask></defs><g filter="url(#hnsva)"><path fill="none" stroke="#000" stroke-opacity=".18" stroke-width=".4" d="M49.5 24C63.583 24 75 35.416 75 49.5S63.583 75 49.5 75 24 63.583 24 49.5 35.417 24 49.5 24z" mask="url(&quot;#hnsvb&quot;)"/><path fill-opacity=".18" d="M49.5 24C63.583 24 75 35.416 75 49.5S63.583 75 49.5 75 24 63.583 24 49.5 35.417 24 49.5 24z"/></g><path fill="#e3bf59" d="M49.5 24C63.583 24 75 35.416 75 49.5S63.583 75 49.5 75 24 63.583 24 49.5 35.417 24 49.5 24z"/><path fill="none" stroke="#fff" stroke-miterlimit="20" stroke-width="4" d="M36.001 27.003v0l.109 44.988v0l20.904-22.32v0L36 27.003v0" clip-path="url(&quot;#hnsvc&quot;)"/></svg>