<svg xmlns="http://www.w3.org/2000/svg" width="23" height="23"><path fill="#ddba57" d="M2.597 1.32c0 .497-.803 1.3-1.3 1.3s-1.301-.803-1.301-1.3C-.004.798.8.02 1.297.02c.496 0 1.3.779 1.3 1.3zM1.32 23.002c-.52 0-1.3-.804-1.3-1.3 0-.498.78-1.301 1.3-1.301s1.301.803 1.301 1.3-.78 1.3-1.3 1.3zM5.08 3.779c0 .52-.804 1.3-1.3 1.3-.497 0-1.3-.78-1.3-1.3 0-.496.803-1.302 1.3-1.302.496 0 1.3.806 1.3 1.302zM3.803 20.52c-.52 0-1.3-.804-1.3-1.3s.78-1.3 1.3-1.3 1.3.804 1.3 1.3-.78 1.3-1.3 1.3zm2.483-2.506c-.52 0-1.3-.804-1.3-1.3 0-.498.78-1.301 1.3-1.301s1.3.803 1.3 1.301c0 .496-.78 1.3-1.3 1.3zM7.563 6.285c0 .521-.804 1.3-1.277 1.3-.473 0-1.277-.779-1.277-1.3 0-.52.804-1.3 1.277-1.3.473 0 1.277.78 1.277 1.3zm2.506 2.46c0 .52-.804 1.324-1.3 1.324-.497 0-1.3-.804-1.3-1.324 0-.497.803-1.301 1.3-1.301.496 0 1.3.804 1.3 1.3zm-1.3 6.786c-.52 0-1.3-.804-1.3-1.3 0-.497.78-1.301 1.3-1.301s1.3.804 1.3 1.3c0 .497-.78 1.3-1.3 1.3zm2.743-2.365c-.686 0-1.703-1.04-1.703-1.679 0-.638 1.017-1.679 1.703-1.679.685 0 1.702 1.04 1.702 1.68 0 .639-1.017 1.678-1.702 1.678zm2.743-3.097c-.52 0-1.325-.804-1.325-1.3 0-.497.804-1.302 1.325-1.302.496 0 1.3.805 1.3 1.301 0 .497-.804 1.301-1.3 1.301zm1.277 4.161c0 .52-.804 1.3-1.301 1.3-.497 0-1.3-.78-1.3-1.3s.803-1.3 1.3-1.3 1.301.78 1.301 1.3zm1.182-6.691c-.52 0-1.3-.78-1.3-1.278 0-.496.78-1.277 1.3-1.277s1.3.78 1.3 1.277c0 .497-.78 1.278-1.3 1.278zm1.3 9.175c0 .519-.78 1.3-1.276 1.3-.497 0-1.278-.781-1.278-1.3 0-.52.781-1.301 1.278-1.301.496 0 1.276.78 1.276 1.301zM19.22 5.08c-.52 0-1.3-.805-1.3-1.301 0-.496.78-1.302 1.3-1.302.497 0 1.302.806 1.302 1.302s-.805 1.3-1.302 1.3zm1.302 14.116c0 .52-.805 1.3-1.302 1.3-.496 0-1.3-.78-1.3-1.3 0-.496.804-1.3 1.3-1.3.497 0 1.302.804 1.302 1.3zm1.158-16.6c-.497 0-1.3-.804-1.3-1.3 0-.497.803-1.3 1.3-1.3.52 0 1.3.803 1.3 1.3 0 .496-.78 1.3-1.3 1.3zm1.324 19.083c0 .52-.804 1.3-1.3 1.3-.497 0-1.3-.78-1.3-1.3s.803-1.3 1.3-1.3c.496 0 1.3.78 1.3 1.3z"/></svg>