<svg width="60" height="61" fill="none" xmlns="http://www.w3.org/2000/svg"><g clip-path="url(#clip0_330_20)" fill="#ED2222"><path d="M12.986 16.193c-.605.302-.986.91-.986 1.572v24.47c0 .663.381 1.27.986 1.572a1.853 1.853 0 001.884-.141L19 40.759V19.24l-4.13-2.907a1.85 1.85 0 00-1.884-.14zm9.984 0c-.595.302-.97.91-.97 1.572v24.47c0 .663.375 1.27.97 1.572a1.796 1.796 0 001.851-.141L29 40.673V19.327l-4.179-2.993a1.793 1.793 0 00-1.852-.14zM52 30c0-.567-.266-1.099-.715-1.43L34.733 16.334a1.691 1.691 0 00-1.794-.14 1.771 1.771 0 00-.939 1.57v24.471c0 .663.363 1.27.94 1.572a1.696 1.696 0 001.793-.141L51.285 31.43c.45-.332.715-.864.715-1.43zm4.484-31h-8.203a3.281 3.281 0 000 6.563h5.157v5.156a3.281 3.281 0 006.562 0V2.516A3.516 3.516 0 0056.484-1zM3.281 14a3.281 3.281 0 003.281-3.281V5.563h5.157a3.281 3.281 0 000-6.563H3.516A3.516 3.516 0 000 2.516v8.203A3.281 3.281 0 003.281 14zm8.438 40.438H6.563V49.28a3.281 3.281 0 00-6.563 0v8.203A3.516 3.516 0 003.516 61h8.203a3.281 3.281 0 000-6.563zm45-8.438a3.281 3.281 0 00-3.282 3.281v5.157h-5.156a3.281 3.281 0 000 6.562h8.203A3.516 3.516 0 0060 57.484v-8.203A3.281 3.281 0 0056.719 46z"/></g><defs><clipPath id="clip0_330_20"><path fill="#fff" d="M0 0h60v61H0z"/></clipPath></defs></svg>