<svg width="62" height="61" fill="none" xmlns="http://www.w3.org/2000/svg"><path d="M7 9.519l-4.236-2.29C1.53 6.563 0 7.43 0 8.813v17.376c0 1.385 1.532 2.25 2.764 1.582L7 25.48A12.835 12.835 0 017 9.52zm4.14.574c-1.972 1.63-3.36 4.328-3.36 7.291 0 8.785 10.959 12.996 16.806 6.347 3.205-3.593 3.196-9.117 0-12.694-3.452-3.925-9.442-4.377-13.446-.944z" fill="#ED2222"/><path d="M9.52 7a12.836 12.836 0 0115.96 0l2.29-4.236C28.437 1.53 27.57 0 26.187 0H8.812C7.435 0 6.56 1.524 7.23 2.764L9.52 7zm22.716.23L28 9.52a12.837 12.837 0 010 15.963C32.433 27.879 32.47 28 33.139 28c1.03 0 1.861-.813 1.861-1.81V8.813c0-1.375-1.522-2.255-2.764-1.583zm-12.91 33.904V33.84h6.945c1.388 0 2.276-1.487 1.597-2.702L25.557 27A13.298 13.298 0 019.44 27l-2.31 4.14c-.675 1.206.2 2.7 1.596 2.7h6.945v7.294L3.346 58.116a1.813 1.813 0 00.412 2.54c.822.59 1.964.4 2.551-.41l2.269-3.126h17.841l2.269 3.126c.357.492.916.754 1.483.754 1.469 0 2.36-1.672 1.48-2.884L19.326 41.134zm-3.655 12.349h-4.453l4.453-6.137v6.137zm3.655 0v-6.137l4.454 6.137h-4.454zM60.8 26.788l-6.575-2.362V20.8c0-.994-.817-1.8-1.823-1.8h-9.718a1.812 1.812 0 00-1.822 1.8v5.333c0 2.772 2.058 5.114 4.859 5.836v3.35h-4.98a1.811 1.811 0 00-1.823 1.8c0 .995.816 1.8 1.822 1.8h4.98v3.47l-9.466 15.898c-.717 1.204.172 2.713 1.569 2.713.624 0 1.233-.317 1.572-.888l6.326-10.622v9.71c0 .994.816 1.8 1.822 1.8a1.811 1.811 0 001.822-1.8v-9.71l6.326 10.622c.34.57.947.888 1.572.888 1.396 0 2.286-1.508 1.569-2.713L49.365 42.39v-3.47h4.98a1.811 1.811 0 001.823-1.8c0-.994-.816-1.8-1.822-1.8h-4.98v-3.35c2.096-.54 3.776-1.988 4.488-3.845 6.13 2.201 5.875 2.155 6.323 2.155.745 0 1.443-.454 1.713-1.184a1.795 1.795 0 00-1.09-2.308z" fill="#ED2222"/></svg>