<svg width="100" height="100" fill="none" xmlns="http://www.w3.org/2000/svg"><g clip-path="url(#clip0_331_38)"><path d="M80 40c11.029 0 20-8.971 20-20S91.029 0 80 0c-8.009 0-14.914 4.742-18.105 11.557L56.54 9.58c.063-.41.127-.82.127-1.247C56.667 3.74 52.928 0 48.333 0 43.74 0 40 3.739 40 8.333c0 4.595 3.739 8.334 8.333 8.334 2.985 0 5.589-1.592 7.06-3.957l5.347 1.973A19.883 19.883 0 0060 20c0 2.183.363 4.28 1.013 6.248l-18.33 7.769C39.327 27.672 32.665 23.333 25 23.333a19.89 19.89 0 00-7.05 1.307l-4.61-9.688c2.008-1.524 3.327-3.91 3.327-6.619C16.667 3.74 12.928 0 8.333 0 3.74 0 0 3.739 0 8.333c0 4.595 3.739 8.334 8.333 8.334.694 0 1.359-.11 2.004-.272l4.604 9.678C9.006 29.547 5 35.973 5 43.333c0 6.914 3.527 13.016 8.874 16.608l-3.049 5.48c-.793-.25-1.618-.421-2.492-.421C3.74 65 0 68.739 0 73.333c0 4.595 3.739 8.334 8.333 8.334 4.595 0 8.334-3.739 8.334-8.334 0-2.523-1.152-4.761-2.928-6.29l3.055-5.491A19.845 19.845 0 0025 63.333c4.574 0 8.78-1.56 12.153-4.153l6.56 7.217c-3.326 3.573-5.38 8.347-5.38 13.603 0 1.02.102 2.013.248 2.992l-7.718 1.831C29.535 81.983 26.67 80 23.333 80 18.74 80 15 83.739 15 88.333c0 4.595 3.739 8.334 8.333 8.334 4.595 0 8.334-3.739 8.334-8.334 0-.092-.026-.178-.027-.27l7.703-1.826C41.97 94.217 49.483 100 58.333 100c11.029 0 20-8.971 20-20 0-3.42-.865-6.64-2.385-9.456l9.79-6.366a8.309 8.309 0 005.929 2.489c4.594 0 8.333-3.739 8.333-8.334C100 53.74 96.261 50 91.667 50c-4.595 0-8.334 3.739-8.334 8.333 0 1.077.222 2.1.595 3.046l-9.813 6.379a20.112 20.112 0 00-7.448-5.916L74.8 39.29c1.66.448 3.399.71 5.199.71zM48.333 13.333c-2.756 0-5-2.243-5-5 0-2.756 2.244-5 5-5 2.757 0 5 2.244 5 5 0 2.757-2.243 5-5 5zm-45-5c0-2.756 2.244-5 5-5 2.757 0 5 2.244 5 5 0 2.757-2.243 5-5 5-2.756 0-5-2.243-5-5zm5 70c-2.756 0-5-2.243-5-5 0-2.756 2.244-5 5-5 2.757 0 5 2.244 5 5 0 2.757-2.243 5-5 5zm15 15c-2.756 0-5-2.243-5-5 0-2.756 2.244-5 5-5 2.757 0 5 2.244 5 5 0 2.757-2.243 5-5 5zm68.334-40c2.756 0 5 2.244 5 5 0 2.757-2.244 5-5 5-2.757 0-5-2.243-5-5 0-2.756 2.243-5 5-5zM70.185 33.44c.743-3.855 4.142-6.773 8.148-6.773h3.334c4.006 0 7.404 2.918 8.148 6.773-2.757 2.018-6.143 3.227-9.815 3.227-3.672 0-7.058-1.209-9.815-3.227zM80 23.333c-2.756 0-5-2.243-5-5 0-2.756 2.244-5 5-5s5 2.244 5 5c0 2.757-2.244 5-5 5zm0-20c9.19 0 16.667 7.477 16.667 16.667 0 4.167-1.549 7.974-4.087 10.898a11.806 11.806 0 00-6.637-6.741 8.292 8.292 0 002.39-5.824C88.333 13.74 84.595 10 80 10c-4.595 0-8.333 3.739-8.333 8.333a8.29 8.29 0 002.39 5.824 11.806 11.806 0 00-6.637 6.741c-2.538-2.924-4.087-6.731-4.087-10.898 0-9.19 7.477-16.667 16.667-16.667zm-71.667 40c0-9.19 7.477-16.666 16.667-16.666 9.19 0 16.667 7.476 16.667 16.666 0 4.18-1.559 7.997-4.11 10.926a11.808 11.808 0 00-6.646-6.769 8.297 8.297 0 002.389-5.823c0-4.595-3.739-8.334-8.333-8.334-4.595 0-8.334 3.739-8.334 8.334 0 2.266.915 4.32 2.39 5.823a11.804 11.804 0 00-6.628 6.715c-2.524-2.922-4.062-6.716-4.062-10.872zm11.634-1.666c0-2.757 2.243-5 5-5 2.756 0 5 2.243 5 5 0 2.756-2.244 5-5 5-2.757 0-5-2.244-5-5zm-4.81 15.084C15.908 52.907 19.302 50 23.3 50h3.333c4.014 0 7.419 2.928 8.152 6.795A16.553 16.553 0 0125 60c-3.685 0-7.082-1.217-9.843-3.249zM48.49 93.418c.752-3.844 4.145-6.751 8.143-6.751h3.334c4.013 0 7.418 2.928 8.151 6.795a16.554 16.554 0 01-9.785 3.205c-3.685 0-7.081-1.217-9.843-3.249zm9.81-10.085c-2.756 0-5-2.243-5-5 0-2.756 2.244-5 5-5s5 2.244 5 5c0 2.757-2.244 5-5 5zM75 80c0 4.18-1.558 7.996-4.11 10.925a11.808 11.808 0 00-6.645-6.768 8.297 8.297 0 002.388-5.824C66.633 73.74 62.895 70 58.3 70c-4.595 0-8.333 3.739-8.333 8.333a8.29 8.29 0 002.39 5.824 11.803 11.803 0 00-6.629 6.715C43.205 87.95 41.667 84.155 41.667 80c0-9.19 7.476-16.667 16.666-16.667C67.523 63.333 75 70.81 75 80zM63.532 60.71a19.928 19.928 0 00-5.199-.71c-4.573 0-8.78 1.56-12.153 4.154l-6.56-7.217C42.947 53.363 45 48.59 45 43.333c0-2.183-.363-4.28-1.013-6.248l18.33-7.769a20.109 20.109 0 009.351 8.842L63.532 60.71z" fill="#fff"/></g><defs><clipPath id="clip0_331_38"><path fill="#fff" d="M0 0h100v100H0z"/></clipPath></defs></svg>