<svg width="100" height="100" fill="none" xmlns="http://www.w3.org/2000/svg"><g clip-path="url(#clip0_331_29)" fill="#fff"><path d="M79.227 8.536a6.338 6.338 0 00-4.512-1.87 6.387 6.387 0 00-6.382 6.382c0 .108.026.21.032.316-.106-.006-.21-.032-.316-.032a6.387 6.387 0 00-6.382 6.382c0 .109.025.21.031.317-.106-.007-.21-.032-.316-.032-2.896 0-5.317 1.95-6.096 4.595l-8.62-8.618v-.977H50a1.668 1.668 0 001.099-2.92L37.765.413a1.667 1.667 0 00-2.195 0L22.236 12.079A1.665 1.665 0 0023.333 15h3.334v83.333c0 .92.747 1.667 1.666 1.667H45c.92 0 1.667-.747 1.667-1.666v-64.31l5 5v9.31c0 .441.175.866.488 1.178l8.333 8.333c.312.314.737.489 1.179.489h7.643l4.512 4.511a1.663 1.663 0 002.356 0l23.334-23.333c.313-.312.488-.737.488-1.178V30c0-.442-.175-.866-.488-1.178L79.227 8.536zm-35.894 88.13H30V13.332c0-.92-.747-1.666-1.667-1.666h-.563l8.897-7.785 8.896 7.785H45c-.92 0-1.667.746-1.667 1.666v.334c-.625-.202-1.276-.334-1.951-.334A6.387 6.387 0 0035 19.715c0 1.704.663 3.307 1.87 4.512l6.463 6.463v65.977zm53.334-59.024L75 59.31l-3.822-3.822A1.662 1.662 0 0070 55h-7.643L55 47.642v-5.286l2.155 2.155 2.357-2.357L39.227 21.87a3.027 3.027 0 01-.894-2.155 3.05 3.05 0 013.049-3.048c.813 0 1.578.316 2.155.893l20.285 20.285 2.356-2.357-6.951-6.951a3.027 3.027 0 01-.894-2.155 3.05 3.05 0 013.049-3.049c.813 0 1.578.317 2.155.894l6.951 6.952 2.357-2.357-6.951-6.952A3.027 3.027 0 0165 19.714a3.05 3.05 0 013.049-3.048c.813 0 1.577.316 2.154.893l6.952 6.952 2.357-2.357-6.952-6.951a3.027 3.027 0 01-.893-2.155 3.05 3.05 0 013.048-3.049c.813 0 1.578.317 2.155.894l19.797 19.796v6.953zM1.667 100h16.666c.92 0 1.667-.748 1.667-1.667v-30c0-.92-.747-1.667-1.667-1.667H1.667c-.92 0-1.667.746-1.667 1.667v30c0 .92.747 1.666 1.667 1.666zm1.666-30h13.334v26.666H3.333V69.999z"/><path d="M71.667 100c.92 0 1.666-.748 1.666-1.667v-30c0-.92-.747-1.667-1.666-1.667H55c-.92 0-1.667.746-1.667 1.667v30c0 .92.747 1.666 1.667 1.666h16.667zm-15-30H70v26.666H56.667V69.999zm41.666-3.334H81.667c-.92 0-1.667.746-1.667 1.667v30c0 .92.747 1.666 1.667 1.666h16.666c.92 0 1.667-.747 1.667-1.666v-30c0-.92-.747-1.667-1.667-1.667zm-1.666 30H83.333V69.999h13.334v26.667zM20 19.999h3.333v18.333H20V20zm0 21.667h3.333v3.333H20v-3.333zm-8.333-15H15v18.333h-3.333V26.666zm0 21.667H15v3.333h-3.333v-3.333z"/></g><defs><clipPath id="clip0_331_29"><path fill="#fff" d="M0 0h100v100H0z"/></clipPath></defs></svg>