<svg width="100" height="100" fill="none" xmlns="http://www.w3.org/2000/svg"><g clip-path="url(#clip0_331_40)" fill="#fff"><path d="M91.667 0H8.335C3.74 0 .002 3.739.002 8.333V70c0 4.594 3.738 8.333 8.333 8.333h49.999v20a1.667 1.667 0 002.195 1.582L70 96.755l9.474 3.159a1.663 1.663 0 002.193-1.582v-20h10c4.594 0 8.333-3.739 8.333-8.333V8.333C100 3.74 96.261 0 91.667 0zm5 8.333v3.184a10.016 10.016 0 01-8.184-8.184h3.184c2.756 0 5 2.244 5 5zm-88.332-5h3.183a10.016 10.016 0 01-8.183 8.184V8.333c0-2.756 2.244-5 5-5zM3.335 70v-3.184A10.014 10.014 0 0111.518 75H8.335c-2.756 0-5-2.244-5-5zm51.847-20.315c.515-.733 1.05-1.493 1.342-2.396.305-.937.325-1.93.345-2.807.018-.85.037-1.73.322-2.12.292-.402 1.128-.692 1.936-.972.826-.286 1.76-.61 2.548-1.185.78-.568 1.37-1.351 1.89-2.041.52-.689 1.056-1.4 1.542-1.559.437-.145 1.274.105 2.079.349.848.257 1.81.546 2.814.546 1.005 0 1.969-.29 2.817-.547.803-.241 1.638-.493 2.078-.348.487.159 1.022.868 1.54 1.559.52.69 1.112 1.473 1.89 2.041.79.575 1.723.899 2.547 1.184.808.281 1.645.57 1.94.974.285.39.303 1.27.321 2.12.02.875.04 1.869.345 2.806.294.903.827 1.663 1.342 2.396.497.711 1.014 1.449 1.014 1.982 0 .533-.517 1.27-1.015 1.981-.515.734-1.048 1.494-1.342 2.397-.305.937-.325 1.929-.345 2.807-.018.85-.037 1.73-.322 2.12-.291.402-1.128.691-1.936.971-.826.287-1.758.61-2.548 1.185-.78.568-1.37 1.352-1.89 2.042-.52.688-1.056 1.4-1.542 1.558-.439.145-1.274-.106-2.079-.348-.848-.257-1.81-.547-2.814-.547-1.005 0-1.97.29-2.817.547-.803.242-1.638.495-2.078.348-.487-.158-1.022-.868-1.54-1.558-.52-.69-1.112-1.474-1.89-2.042-.788-.574-1.723-.898-2.547-1.183-.808-.282-1.645-.571-1.94-.975-.285-.39-.303-1.27-.321-2.12-.02-.875-.04-1.868-.346-2.805-.293-.903-.826-1.663-1.341-2.397-.497-.71-1.014-1.448-1.014-1.981 0-.533.517-1.27 1.015-1.982zm15.345 43.734a1.68 1.68 0 00-1.055 0l-7.805 2.6V68.134c.628.74 1.37 1.426 2.408 1.763 1.436.465 2.834.043 4.07-.326.691-.209 1.342-.406 1.856-.406.513 0 1.165.197 1.855.404.846.255 1.77.533 2.728.533.44 0 .888-.059 1.34-.205 1.038-.337 1.781-1.025 2.41-1.763v27.884l-7.807-2.6zm11.14-28.214c.103-.037.194-.073.3-.11 1.233-.427 2.632-.912 3.54-2.16.9-1.237.932-2.71.96-4.01.015-.71.03-1.379.182-1.848.138-.429.508-.956.9-1.512.72-1.031 1.618-2.311 1.618-3.898 0-1.587-.899-2.867-1.62-3.897-.39-.556-.76-1.083-.9-1.512-.152-.47-.166-1.14-.182-1.846-.028-1.3-.06-2.775-.96-4.01-.906-1.248-2.306-1.733-3.541-2.164-.663-.229-1.29-.446-1.679-.73-.378-.275-.771-.798-1.19-1.353-.791-1.05-1.688-2.24-3.173-2.721-1.432-.462-2.833-.042-4.069.326-.687.21-1.339.407-1.852.407-.514 0-1.165-.197-1.855-.404-1.236-.372-2.635-.792-4.07-.328-1.485.482-2.382 1.672-3.172 2.722-.417.555-.811 1.076-1.19 1.353-.388.283-1.015.5-1.679.73l-.26.095H31.667v3.334h22.218c-.288.91-.332 1.863-.35 2.743-.016.71-.03 1.378-.181 1.848-.139.429-.51.955-.9 1.512-.722 1.028-1.62 2.308-1.62 3.895 0 1.587.898 2.867 1.62 3.896.39.557.76 1.083.9 1.512.15.47.166 1.14.18 1.847.03 1.3.061 2.775.961 4.01.907 1.248 2.306 1.733 3.542 2.163.105.037.196.073.298.108V75h-43.45c-.756-6.02-5.531-10.795-11.551-11.552V14.885c6.02-.757 10.795-5.532 11.552-11.552h70.23c.755 6.02 5.532 10.795 11.551 11.552v48.564c-6.02.755-10.795 5.532-11.551 11.551h-3.45v-9.796zm10 9.795h-3.184a10.014 10.014 0 018.184-8.184V70c0 2.756-2.244 5-5 5z"/><path d="M70 63.332c6.433 0 11.667-5.235 11.667-11.666S76.433 40 70 40c-6.432 0-11.666 5.235-11.666 11.666S63.567 63.332 70 63.332zm0-20c4.595 0 8.334 3.74 8.334 8.334 0 4.595-3.739 8.333-8.334 8.333-4.594 0-8.333-3.738-8.333-8.333 0-4.595 3.739-8.333 8.333-8.333zM20.001 13.333h60v3.333H20v-3.333zm10 8.333h40V25H30v-3.334zM11.668 54.999h33.333v3.333H11.668V55zm6.667 8.333h20v3.333h-20v-3.333zm53.332 10H75v3.333h-3.333v-3.333zm0 6.667H75v3.333h-3.333v-3.333zm0 6.666H75v3.333h-3.333v-3.333z"/></g><defs><clipPath id="clip0_331_40"><path fill="#fff" d="M0 0h100v100H0z"/></clipPath></defs></svg>