<svg width="29" height="29" fill="none" xmlns="http://www.w3.org/2000/svg"><path d="M25.533 7h-3.027l-1.67-2.5c-.63-.938-1.734-1.5-2.869-1.5h-6.934c-1.135 0-2.238.563-2.869 1.5L6.494 7H3.466A3.443 3.443 0 000 10.438v12.124A3.442 3.442 0 003.467 26h22.066C27.455 26 29 24.469 29 22.562V10.438C29 8.531 27.455 7 25.533 7zM14.5 23.188c-4.319 0-7.817-3.47-7.817-7.75 0-4.282 3.498-7.72 7.817-7.72s7.817 3.47 7.817 7.75c0 4.25-3.498 7.72-7.817 7.72zm10.591-11.344h-1.386c-.568-.031-1.01-.5-.978-1.063.032-.531.442-.937.977-.969h1.261a1.02 1.02 0 011.072.97.993.993 0 01-.946 1.062z" fill="#fff"/><path d="M14.5 11c-2.478 0-4.5 2.03-4.5 4.516C10 18.004 12.022 20 14.5 20s4.5-2.03 4.5-4.516C19 12.996 16.978 11 14.5 11z" fill="#fff"/></svg>