<svg width="32" height="32" fill="none" xmlns="http://www.w3.org/2000/svg"><path d="M8 17.152v10.696C8 28.485 8.447 29 9 29c.552 0 1-.515 1-1.152V17.152C10 16.516 9.552 16 9 16c-.553 0-1 .515-1 1.152z" fill="#fff"/><path d="M3.28 30h2.6V16.951c.007-.063.018-.125.018-.189 0-5.63 4.531-10.21 10.1-10.21 5.567 0 10.098 4.58 10.098 10.21 0 .086.012.17.025.253V30h2.6C30.532 30 32 28.477 32 26.597v-6.804c0-1.55-1-2.856-2.367-3.267C29.507 9.047 23.44 3 15.998 3 8.553 3 2.486 9.048 2.362 16.53.997 16.94 0 18.244 0 19.793v6.803C0 28.476 1.468 30 3.28 30z" fill="#fff"/><path d="M22 17.152v10.696c0 .637.448 1.152 1 1.152s1-.515 1-1.152V17.152c0-.636-.448-1.152-1-1.152-.553 0-1 .515-1 1.152z" fill="#fff"/></svg>