<svg width="30" height="30" fill="none" xmlns="http://www.w3.org/2000/svg"><g clip-path="url(#clip0_318_58)" fill="#fff"><path d="M20.694 7H10.306c-.56 0-1.068-.326-1.295-.831l-1.889-4.2A1.386 1.386 0 017.23.637 1.421 1.421 0 018.417 0h14.166c.48 0 .927.24 1.188.637.261.398.302.899.107 1.332l-1.889 4.2A1.418 1.418 0 0120.694 7zM1.4 24c-.267 0-.532-.077-.763-.229A1.421 1.421 0 010 22.583V8.417c0-.48.24-.927.637-1.188a1.386 1.386 0 011.332-.107l4.2 1.889c.505.227.831.735.831 1.295v10.388c0 .56-.326 1.068-.831 1.295l-4.2 1.889A1.386 1.386 0 011.4 24zm21.183 6H8.417c-.48 0-.927-.24-1.188-.637a1.386 1.386 0 01-.107-1.332l1.889-4.2A1.418 1.418 0 0110.306 23h10.388c.56 0 1.068.326 1.295.831l1.889 4.2c.195.434.154.934-.107 1.332a1.421 1.421 0 01-1.188.637zm6.017-6c-.193 0-.387-.04-.569-.122l-4.2-1.889A1.417 1.417 0 0123 20.695v-10.39c0-.56.326-1.067.831-1.294l4.2-1.889a1.386 1.386 0 011.332.107c.397.261.637.708.637 1.188v14.166c0 .48-.24.927-.637 1.188-.23.152-.496.229-.763.229zM19.038 9h-8.077C9.88 9 9 9.88 9 10.961v8.077C9 20.12 9.88 21 10.961 21h8.077C20.12 21 21 20.12 21 19.038v-8.077C21 9.88 20.12 9 19.038 9zM15 16.846A1.848 1.848 0 0113.154 15c0-1.018.828-1.846 1.846-1.846 1.018 0 1.846.828 1.846 1.846A1.848 1.848 0 0115 16.846z"/></g><defs><clipPath id="clip0_318_58"><path fill="#fff" d="M0 0h30v30H0z"/></clipPath></defs></svg>