<svg width="32" height="32" fill="none" xmlns="http://www.w3.org/2000/svg"><g clip-path="url(#clip0_318_39)"><path d="M10.346 14.347a11.867 11.867 0 01.883-10.605c2.487-1.851 6.894-1.907 9.578-.394-5.332.82-10.46 11-10.46 11zm4.181-4.238s11.38-.648 14.756 3.56c-.032-3.082-2.284-6.87-5.13-8.099a11.865 11.865 0 00-9.626 4.54zm5.76 1.501s6.25 9.53 4.296 14.56c2.653-1.57 4.806-5.415 4.448-8.493a11.864 11.864 0 00-8.744-6.067zm-8.88 16.74c2.685 1.512 7.092 1.455 9.578-.395a11.86 11.86 0 00.883-10.605s-5.129 10.178-10.461 11zm6.28-6.762s-11.379.648-14.755-3.56c.031 3.081 2.283 6.871 5.13 8.098 3.79.099 7.35-1.636 9.625-4.538zm-5.76-1.501s-6.25-9.531-4.295-14.559c-2.653 1.568-4.808 5.414-4.448 8.492a11.865 11.865 0 008.743 6.067zM32 16c0 8.823-7.177 16-16 16S0 24.823 0 16C0 7.178 7.178 0 16 0c8.823 0 16 7.178 16 16zm-1.477 0c0-8.008-6.515-14.523-14.523-14.523S1.476 7.992 1.476 16 7.992 30.523 16 30.523 30.523 24.008 30.523 16z" fill="#fff"/></g><defs><clipPath id="clip0_318_39"><path fill="#fff" d="M0 0h32v32H0z"/></clipPath></defs></svg>