<svg width="32" height="32" fill="none" xmlns="http://www.w3.org/2000/svg"><g clip-path="url(#clip0_318_32)" fill="#fff"><path d="M16 15.063a.939.939 0 000 1.874.939.939 0 000-1.875z"/><path d="M23.192 25.844a1.875 1.875 0 102.652-2.652l-3.215-3.215A5.588 5.588 0 0120.98 16c0-1.502.585-2.915 1.648-3.977l3.215-3.215a1.874 1.874 0 10-2.652-2.652l-3.214 3.215A5.588 5.588 0 0116 11.02a5.588 5.588 0 01-3.977-1.648L8.808 6.156a1.875 1.875 0 10-2.652 2.652l3.215 3.215A5.588 5.588 0 0111.02 16a5.588 5.588 0 01-1.648 3.977l-3.215 3.215a1.875 1.875 0 102.652 2.652l3.215-3.215A5.588 5.588 0 0116 20.98c1.503 0 2.915.585 3.978 1.648l3.214 3.215zM16 18.812A2.816 2.816 0 0113.187 16 2.816 2.816 0 0116 13.187 2.816 2.816 0 0118.813 16 2.816 2.816 0 0116 18.813z"/><path d="M21.866 4.83a3.747 3.747 0 015.303 0 3.746 3.746 0 010 5.304l-2.89 2.89A6.57 6.57 0 0032 6.563 6.57 6.57 0 0025.439 0a6.57 6.57 0 00-6.462 7.721l2.89-2.89zm3.572 14.045c-.393 0-.78.034-1.16.101l2.891 2.89a3.747 3.747 0 010 5.303 3.747 3.747 0 01-5.302 0l-2.89-2.89A6.57 6.57 0 0025.437 32 6.57 6.57 0 0032 25.439a6.57 6.57 0 00-6.563-6.563zm-18.875-5.75c.392 0 .78-.034 1.158-.101l-2.89-2.89a3.747 3.747 0 010-5.303 3.747 3.747 0 015.302 0l2.89 2.89A6.57 6.57 0 006.563 0 6.57 6.57 0 000 6.561a6.57 6.57 0 006.563 6.563zm3.571 14.045a3.747 3.747 0 01-5.303 0 3.754 3.754 0 010-5.303l2.89-2.89A6.57 6.57 0 000 25.437 6.57 6.57 0 006.563 32a6.57 6.57 0 006.46-7.721l-2.889 2.89z"/></g><defs><clipPath id="clip0_318_32"><path fill="#fff" d="M0 0h32v32H0z"/></clipPath></defs></svg>