<svg width="161" height="50" fill="none" xmlns="http://www.w3.org/2000/svg"><path d="M64.816 36V13.6h10.08c1.43 0 2.72.31 3.872.928 1.173.619 2.09 1.472 2.752 2.56.661 1.067.992 2.283.992 3.648 0 1.408-.33 2.677-.992 3.808a7.145 7.145 0 01-2.72 2.624c-1.152.64-2.453.96-3.904.96H70V36h-5.184zm12.416 0l-5.696-10.112 5.568-.8L83.44 36h-6.208zM70 23.968h4.416c.555 0 1.035-.117 1.44-.352.427-.256.747-.608.96-1.056.235-.448.352-.96.352-1.536 0-.576-.128-1.077-.384-1.504a2.49 2.49 0 00-1.12-1.024c-.47-.235-1.045-.352-1.728-.352H70v5.824zM93.252 36.32c-1.878 0-3.51-.373-4.896-1.12-1.387-.768-2.464-1.803-3.232-3.104-.768-1.323-1.152-2.827-1.152-4.512 0-1.301.213-2.496.64-3.584a8.364 8.364 0 011.792-2.816 7.721 7.721 0 012.72-1.856c1.066-.448 2.23-.672 3.488-.672 1.194 0 2.282.213 3.264.64a7.632 7.632 0 012.592 1.792 7.86 7.86 0 011.664 2.72c.384 1.045.554 2.187.512 3.424l-.032 1.376H87.076l-.736-2.88h10.112l-.544.608v-.64a2.685 2.685 0 00-.512-1.408 2.804 2.804 0 00-1.12-.992c-.47-.235-1.003-.352-1.6-.352-.832 0-1.547.17-2.144.512-.576.32-1.014.8-1.312 1.44-.299.619-.448 1.387-.448 2.304 0 .939.192 1.76.576 2.464.405.683.981 1.216 1.728 1.6.768.384 1.674.576 2.72.576.725 0 1.365-.107 1.92-.32.576-.213 1.194-.576 1.856-1.088l2.4 3.392a9.597 9.597 0 01-2.112 1.408c-.747.363-1.515.63-2.304.8a9.468 9.468 0 01-2.304.288zm9.694-.32V19.008h4.864l.16 3.456-1.024.384a5.114 5.114 0 011.248-2.08 7.055 7.055 0 012.208-1.536 6.475 6.475 0 012.688-.576c1.28 0 2.357.267 3.232.8.874.512 1.536 1.29 1.984 2.336.448 1.024.672 2.283.672 3.776V36h-5.152V25.984c0-.683-.096-1.248-.288-1.696a1.947 1.947 0 00-.896-.992c-.384-.235-.864-.341-1.44-.32a3.42 3.42 0 00-1.248.224 2.49 2.49 0 00-.992.608 3.065 3.065 0 00-.672.896c-.15.341-.224.715-.224 1.12V36h-5.12zm19.64 0V19.008h5.12V36h-5.12zm2.56-20.352c-.96 0-1.717-.224-2.272-.672-.533-.47-.8-1.13-.8-1.984 0-.768.278-1.397.832-1.888.555-.49 1.302-.736 2.24-.736.96 0 1.707.235 2.24.704.534.448.8 1.088.8 1.92 0 .79-.277 1.43-.832 1.92-.533.49-1.269.736-2.208.736zM132.965 36V14.72h5.12V36h-5.12zm-3.008-12.512v-4.48h11.424v4.48h-11.424zm15.534 19.872l3.872-9.12.064 2.624-8.192-17.856h5.792l3.584 8.544c.192.427.373.885.544 1.376.171.49.299.96.384 1.408l-.704.416c.128-.32.267-.715.416-1.184l.544-1.568 3.136-8.992h5.824L153.523 36l-2.944 7.36h-5.088z" fill="#fff"/><g clip-path="url(#clip0_901_10)" fill="#ED2222"><path d="M35.04 35.182a37.058 37.058 0 00-17.049-.718 39.496 39.496 0 01-4.497 10.93A27.585 27.585 0 0125 42.903c6.901 0 13.417 2.51 18.505 7.097l6.447-6.447a36.78 36.78 0 00-14.913-8.37zm-3.656-3.797a40.06 40.06 0 01.001-12.769 39.969 39.969 0 01-12.77-.002 40.05 40.05 0 010 12.77 40.057 40.057 0 0112.77.001zM15.536 17.992a39.214 39.214 0 01-10.93-4.497A27.586 27.586 0 017.097 25c0 6.901-2.51 13.417-7.097 18.505l6.447 6.447a36.78 36.78 0 008.37-14.913 37.06 37.06 0 00.72-17.047zm18.928 14.017a39.498 39.498 0 0110.93 4.497A27.586 27.586 0 0142.903 25c0-6.902 2.51-13.417 7.097-18.505L43.553.048a36.78 36.78 0 00-8.37 14.913 37.061 37.061 0 00-.72 17.048zM14.961 14.818a37.06 37.06 0 0017.048.718 39.494 39.494 0 014.497-10.93A27.587 27.587 0 0125 7.097c-6.901 0-13.417-2.51-18.505-7.097L.048 6.447a36.779 36.779 0 0014.913 8.37z"/></g><defs><clipPath id="clip0_901_10"><path fill="#fff" d="M0 0h50v50H0z"/></clipPath></defs></svg>