<svg width="96" height="18" fill="none" xmlns="http://www.w3.org/2000/svg"><g clip-path="url(#clip0_298_422)"><path d="M0 .005h17.99v17.99H0V.005zm19.49 0h17.99v17.99H19.49V.005zm19.49 0h17.99v17.99H38.98V.005zm19.489 0h17.99v17.99H58.47V.005zm19.49 0h17.99v17.99h-17.99V.005z" fill="#228312"/><path d="M8.995 12.13l2.736-.694 1.143 3.523-3.879-2.83zm6.297-4.554h-4.816L8.996 3.04 7.514 7.576H2.699l3.897 2.81-1.48 4.536 3.898-2.811 2.399-1.724 3.879-2.811zm13.193 4.553l2.736-.693 1.143 3.523-3.88-2.83zm6.296-4.553h-4.816l-1.48-4.535-1.48 4.535h-4.817l3.898 2.81-1.48 4.536 3.897-2.811 2.4-1.724 3.878-2.811zm13.193 4.553l2.736-.693 1.144 3.523-3.88-2.83zm6.297-4.553h-4.816l-1.48-4.535-1.481 4.535h-4.816l3.898 2.81-1.48 4.536 3.897-2.811 2.399-1.724 3.879-2.811zm13.193 4.553l2.736-.693 1.143 3.523-3.879-2.83zm6.297-4.553h-4.816L67.464 3.04l-1.48 4.535h-4.817l3.898 2.81-1.48 4.536 3.898-2.811 2.398-1.724 3.88-2.811zm13.193 4.553l2.736-.693 1.143 3.523-3.88-2.83zm6.296-4.553h-4.816l-1.48-4.535-1.48 4.535h-4.817l3.898 2.81-1.48 4.536 3.897-2.811 2.4-1.724 3.878-2.811z" fill="#fff"/></g><defs><clipPath id="clip0_298_422"><path fill="#fff" d="M0 0h95.949v18H0z"/></clipPath></defs></svg>