<svg width="208" height="69" fill="none" xmlns="http://www.w3.org/2000/svg"><path d="M94.882 65V53.66h1.582v10.206h2.898V65h-4.48zm5.788 0V53.66h1.554V65h-1.554zm3.501 0l.21-11.34h1.554l2.002 9.198 2.016-9.198h1.54l.21 11.34h-1.274l-.126-8.232L108.385 65h-.896l-1.904-8.232-.126 8.232h-1.288zm12.308.126c-.765 0-1.376-.15-1.834-.448a2.455 2.455 0 01-.98-1.274c-.196-.56-.294-1.213-.294-1.96v-4.298c0-.747.098-1.386.294-1.918.206-.541.532-.952.98-1.232.458-.29 1.069-.434 1.834-.434.766 0 1.372.145 1.82.434.448.29.77.7.966 1.232.206.532.308 1.171.308 1.918v4.312c0 .737-.102 1.381-.308 1.932-.196.55-.518.98-.966 1.288-.448.299-1.054.448-1.82.448zm0-1.246c.42 0 .738-.084.952-.252.215-.177.36-.42.434-.728.075-.317.112-.686.112-1.106v-4.97c0-.42-.037-.78-.112-1.078-.074-.308-.219-.541-.434-.7-.214-.168-.532-.252-.952-.252-.42 0-.742.084-.966.252-.214.159-.359.392-.434.7a4.534 4.534 0 00-.112 1.078v4.97c0 .42.038.789.112 1.106.075.308.22.55.434.728.224.168.546.252.966.252zm7.715 1.246c-.821 0-1.451-.163-1.89-.49-.438-.327-.737-.784-.896-1.372-.158-.597-.238-1.293-.238-2.086V53.66h1.512v7.588c0 .485.033.929.098 1.33.066.401.206.719.42.952.224.233.556.35.994.35.448 0 .78-.117.994-.35.215-.233.355-.55.42-.952.066-.401.098-.845.098-1.33V53.66h1.498v7.518c0 .793-.079 1.489-.238 2.086-.158.588-.457 1.045-.896 1.372-.429.327-1.054.49-1.876.49zm7.49 0c-.654 0-1.2-.14-1.638-.42a2.658 2.658 0 01-.98-1.162c-.224-.495-.355-1.069-.392-1.722l1.4-.378c.028.401.088.789.182 1.162.102.373.266.681.49.924.224.233.536.35.938.35.41 0 .718-.112.924-.336.214-.233.322-.565.322-.994 0-.513-.117-.924-.35-1.232a6.38 6.38 0 00-.882-.952l-1.904-1.68a3.214 3.214 0 01-.826-1.064c-.178-.392-.266-.873-.266-1.442 0-.83.238-1.475.714-1.932.476-.457 1.124-.686 1.946-.686.448 0 .84.06 1.176.182.345.112.63.29.854.532.233.243.415.55.546.924.14.364.233.793.28 1.288l-1.344.364a5.434 5.434 0 00-.168-1.022 1.474 1.474 0 00-.448-.756c-.206-.196-.504-.294-.896-.294s-.7.107-.924.322c-.215.205-.322.513-.322.924 0 .345.056.63.168.854.121.224.312.453.574.686l1.918 1.68a5.93 5.93 0 011.134 1.344c.326.513.49 1.125.49 1.834 0 .56-.117 1.045-.35 1.456a2.37 2.37 0 01-.966.924c-.402.215-.868.322-1.4.322zm4.167-.126V53.66h1.554V65h-1.554zm3.529 0V53.66h1.078l3.22 7.532V53.66h1.316V65h-1.008l-3.262-7.742V65h-1.344zm7.536 0V53.66h4.396v1.176h-2.814v3.752h2.282v1.12h-2.282v4.158h2.842V65h-4.424zm11.854.126c-.653 0-1.199-.14-1.638-.42a2.664 2.664 0 01-.98-1.162c-.224-.495-.354-1.069-.392-1.722l1.4-.378c.028.401.089.789.182 1.162a2.2 2.2 0 00.49.924c.224.233.537.35.938.35.411 0 .719-.112.924-.336.215-.233.322-.565.322-.994 0-.513-.116-.924-.35-1.232a6.276 6.276 0 00-.882-.952l-1.904-1.68a3.24 3.24 0 01-.826-1.064c-.177-.392-.266-.873-.266-1.442 0-.83.238-1.475.714-1.932.476-.457 1.125-.686 1.946-.686.448 0 .84.06 1.176.182.346.112.63.29.854.532.234.243.416.55.546.924.14.364.234.793.28 1.288l-1.344.364a5.434 5.434 0 00-.168-1.022 1.467 1.467 0 00-.448-.756c-.205-.196-.504-.294-.896-.294s-.7.107-.924.322c-.214.205-.322.513-.322.924 0 .345.056.63.168.854.122.224.313.453.574.686l1.918 1.68c.43.373.808.821 1.134 1.344.327.513.49 1.125.49 1.834 0 .56-.116 1.045-.35 1.456-.233.401-.555.71-.966.924-.401.215-.868.322-1.4.322zm4.084-.126V53.66h4.396v1.176h-2.814v3.752h2.282v1.12h-2.282v4.158h2.842V65h-4.424zm5.841 0V53.66h2.282c.756 0 1.381.103 1.876.308a2.03 2.03 0 011.092.966c.242.439.364 1.017.364 1.736 0 .439-.047.84-.14 1.204a2.39 2.39 0 01-.448.91 1.77 1.77 0 01-.812.532l1.61 5.684h-1.526l-1.484-5.32h-1.232V65h-1.582zm1.582-6.454h.602c.448 0 .812-.056 1.092-.168.28-.112.485-.303.616-.574.13-.27.196-.649.196-1.134 0-.663-.122-1.139-.364-1.428-.243-.299-.724-.448-1.442-.448h-.7v3.752zM178.069 65l-2.534-11.34h1.484l1.792 8.358 1.708-8.358h1.442L179.455 65h-1.386zm5.318 0V53.66h1.554V65h-1.554zm6.371.126c-.803 0-1.428-.168-1.876-.504-.439-.336-.747-.789-.924-1.358a6.716 6.716 0 01-.252-1.904v-4.004c0-.765.084-1.433.252-2.002.177-.57.485-1.008.924-1.316.448-.317 1.073-.476 1.876-.476.709 0 1.269.13 1.68.392.42.261.718.635.896 1.12.186.485.28 1.069.28 1.75v.896h-1.498v-.798c0-.42-.024-.789-.07-1.106-.038-.327-.15-.579-.336-.756-.187-.177-.5-.266-.938-.266-.448 0-.775.098-.98.294-.206.187-.341.457-.406.812a7.709 7.709 0 00-.084 1.218v4.494c0 .57.046 1.022.14 1.358.093.327.247.56.462.7.214.14.504.21.868.21.429 0 .737-.093.924-.28.186-.196.303-.462.35-.798.046-.336.07-.728.07-1.176v-.84h1.498v.84c0 .69-.084 1.302-.252 1.834a2.377 2.377 0 01-.868 1.232c-.411.29-.99.434-1.736.434zm4.503-.126V53.66h4.396v1.176h-2.814v3.752h2.282v1.12h-2.282v4.158h2.842V65h-4.424zm8.515.126c-.653 0-1.199-.14-1.638-.42a2.664 2.664 0 01-.98-1.162c-.224-.495-.355-1.069-.392-1.722l1.4-.378c.028.401.089.789.182 1.162a2.2 2.2 0 00.49.924c.224.233.537.35.938.35.411 0 .719-.112.924-.336.215-.233.322-.565.322-.994 0-.513-.117-.924-.35-1.232a6.276 6.276 0 00-.882-.952l-1.904-1.68a3.227 3.227 0 01-.826-1.064c-.177-.392-.266-.873-.266-1.442 0-.83.238-1.475.714-1.932.476-.457 1.125-.686 1.946-.686.448 0 .84.06 1.176.182.345.112.63.29.854.532.233.243.415.55.546.924.14.364.233.793.28 1.288l-1.344.364a5.434 5.434 0 00-.168-1.022 1.467 1.467 0 00-.448-.756c-.205-.196-.504-.294-.896-.294s-.7.107-.924.322c-.215.205-.322.513-.322.924 0 .345.056.63.168.854.121.224.313.453.574.686l1.918 1.68a5.93 5.93 0 011.134 1.344c.327.513.49 1.125.49 1.834 0 .56-.117 1.045-.35 1.456-.233.401-.555.71-.966.924-.401.215-.868.322-1.4.322z" fill="#777"/><path d="M94.8 41V16.7h5.37v9.93l4.08-9.93h5.25L105 27.68 109.71 41h-5.46l-3.51-10.74-.57.96V41H94.8zm17.021 0V16.7h10.92v3.66h-5.55v6.03h4.23v3.72h-4.23v7.26h5.61V41h-10.98zm16.478 0v-9.93l-4.62-14.37h5.07l2.31 7.68 2.07-7.68h4.86l-4.53 14.37V41h-5.16zm11.411 0l.42-24.3h5.76l2.67 14.13 2.88-14.13h5.55l.42 24.3h-3.81l-.45-16.17L150.33 41h-3.39l-3-16.29-.36 16.29h-3.87zm28.173.36c-1.82 0-3.26-.32-4.32-.96-1.06-.64-1.82-1.56-2.28-2.76-.46-1.2-.69-2.63-.69-4.29v-9.03c0-1.68.23-3.11.69-4.29.46-1.18 1.22-2.08 2.28-2.7 1.06-.64 2.5-.96 4.32-.96 1.84 0 3.29.32 4.35.96 1.08.62 1.85 1.52 2.31 2.7.46 1.18.69 2.61.69 4.29v9.03c0 1.66-.23 3.09-.69 4.29-.46 1.2-1.23 2.12-2.31 2.76-1.06.64-2.51.96-4.35.96zm0-3.81c.56 0 .97-.14 1.23-.42.26-.28.43-.64.51-1.08.08-.44.12-.89.12-1.35V23c0-.48-.04-.93-.12-1.35-.08-.44-.25-.8-.51-1.08s-.67-.42-1.23-.42c-.52 0-.91.14-1.17.42-.26.28-.43.64-.51 1.08-.08.42-.12.87-.12 1.35v11.7c0 .46.03.91.09 1.35.08.44.24.8.48 1.08.26.28.67.42 1.23.42zM180.457 41V20.69h-3.66V16.7h12.69v3.99h-3.63V41h-5.4zm17.895.36c-1.82 0-3.26-.32-4.32-.96-1.06-.64-1.82-1.56-2.28-2.76-.46-1.2-.69-2.63-.69-4.29v-9.03c0-1.68.23-3.11.69-4.29.46-1.18 1.22-2.08 2.28-2.7 1.06-.64 2.5-.96 4.32-.96 1.84 0 3.29.32 4.35.96 1.08.62 1.85 1.52 2.31 2.7.46 1.18.69 2.61.69 4.29v9.03c0 1.66-.23 3.09-.69 4.29-.46 1.2-1.23 2.12-2.31 2.76-1.06.64-2.51.96-4.35.96zm0-3.81c.56 0 .97-.14 1.23-.42.26-.28.43-.64.51-1.08.08-.44.12-.89.12-1.35V23c0-.48-.04-.93-.12-1.35-.08-.44-.25-.8-.51-1.08s-.67-.42-1.23-.42c-.52 0-.91.14-1.17.42-.26.28-.43.64-.51 1.08-.08.42-.12.87-.12 1.35v11.7c0 .46.03.91.09 1.35.08.44.24.8.48 1.08.26.28.67.42 1.23.42z" fill="#fff"/><path d="M77.749 54.533h-.778l-1.15-5.045a3.122 3.122 0 00-3.047-2.421H63.4L51.83 34.965A3.132 3.132 0 0049.57 34h-26.1a3.13 3.13 0 00-2.388 1.108L12.02 45.822H4.523c-.69 0-1.25.558-1.25 1.245v7.466H2.25c-.773 0-1.36.691-1.233 1.449l.834 4.978c.1.6.622 1.04 1.232 1.04h6.569a6.794 6.794 0 01-.756-3.111c0-3.78 3.076-6.845 6.871-6.845 3.796 0 6.872 3.064 6.872 6.845A6.793 6.793 0 0121.883 62H57.75a6.794 6.794 0 01-.756-3.111c0-3.78 3.076-6.845 6.872-6.845 3.795 0 6.871 3.064 6.871 6.845A6.793 6.793 0 0169.982 62h6.102a1.25 1.25 0 001.186-.851l1.665-4.978a1.245 1.245 0 00-1.186-1.638zm-56.212-7.466a1.244 1.244 0 01-1.117-1.8l3.748-7.467a1.247 1.247 0 011.117-.689h28.594l9.52 9.956H21.536zm51.97 7.466l-2.5-4.977h4.828l1.136 4.977h-3.465z" fill="#4FC3F7"/><path d="M49.516 31.403c.87 0 1.715.22 2.484.597l-3.84-17.024c-.293-1.302-2.161-1.302-2.455 0L42 31.403h7.516zM64.186 44H67l-6.501-29.04c-.286-1.28-2.108-1.28-2.395 0L54 33.29 64.186 44zM39 31l-3.756-16.046c-.297-1.272-2.19-1.272-2.489 0L29 31h10z" fill="#4DB6AC"/><path d="M63.378 47H21.861c-.649 0-1.24-.325-1.582-.869a1.799 1.799 0 01-.08-1.783l3.717-7.334A1.853 1.853 0 0125.579 36H53.94c.17 0 .332.069.449.19l9.44 9.778a.605.605 0 01.12.663.624.624 0 01-.57.369zm-38.356-9.442l-3.717 7.334a.612.612 0 00.554.885h40.073l-8.26-8.556H25.577c-.237 0-.45.13-.556.337z" fill="#fff"/><path d="M54.37 44a.621.621 0 01-.456-.199l-2.4-2.57a.652.652 0 01.02-.909.621.621 0 01.892.021l2.4 2.57a.651.651 0 01-.021.91.623.623 0 01-.435.177zm-30.734-5.715a.642.642 0 01-.636-.642.63.63 0 01.624-.643h.012c.348 0 .63.287.63.643a.636.636 0 01-.63.642zM4.375 66H.625C.28 66 0 65.776 0 65.5s.28-.5.625-.5h3.75c.345 0 .625.224.625.5s-.28.5-.625.5zm74.998 0H6.627C6.281 66 6 65.776 6 65.5s.281-.5.627-.5h72.746c.346 0 .627.224.627.5s-.281.5-.627.5zM7.333 26H4.667C4.299 26 4 25.776 4 25.5s.299-.5.667-.5h2.666c.368 0 .667.224.667.5s-.299.5-.667.5zm16.042 0H9.625C9.28 26 9 25.776 9 25.5s.28-.5.625-.5h13.75c.345 0 .625.224.625.5s-.28.5-.625.5zm6.01-4h-14.77c-.34 0-.615-.224-.615-.5s.276-.5.615-.5h14.77c.34 0 .615.224.615.5s-.276.5-.615.5z" fill="#fff"/><path d="M63.5 66c-4.136 0-7.5-3.364-7.5-7.5s3.364-7.5 7.5-7.5 7.5 3.364 7.5 7.5-3.364 7.5-7.5 7.5zm0-13.75a6.257 6.257 0 00-6.25 6.25 6.257 6.257 0 006.25 6.25 6.257 6.257 0 006.25-6.25 6.257 6.257 0 00-6.25-6.25z" fill="#fff"/><path d="M63.5 63a4.505 4.505 0 01-4.5-4.5c0-2.482 2.018-4.5 4.5-4.5s4.5 2.018 4.5 4.5-2.018 4.5-4.5 4.5zm0-7.714a3.219 3.219 0 00-3.214 3.214 3.219 3.219 0 003.214 3.214 3.219 3.219 0 003.214-3.214 3.219 3.219 0 00-3.214-3.214zM15.5 66C11.364 66 8 62.636 8 58.5s3.364-7.5 7.5-7.5 7.5 3.364 7.5 7.5-3.364 7.5-7.5 7.5zm0-13.75a6.257 6.257 0 00-6.25 6.25 6.257 6.257 0 006.25 6.25 6.257 6.257 0 006.25-6.25 6.257 6.257 0 00-6.25-6.25z" fill="#fff"/><path d="M75.468 62h-3.38a.62.62 0 01-.623-.617.62.62 0 01.622-.617h3.381a.62.62 0 00.59-.422l1.662-4.936a.62.62 0 00-.592-.812h-.777c-.29 0-.543-.2-.607-.48l-1.147-5.003a2.473 2.473 0 00-2.429-1.922h-9.346a.625.625 0 01-.451-.19L50.837 35a2.505 2.505 0 00-1.802-.767H23.018c-.736 0-1.43.32-1.906.879l-9.03 10.624a.62.62 0 01-.476.22H4.135a.62.62 0 00-.622.617v7.405a.62.62 0 01-.623.617H1.87a.617.617 0 00-.614.718l.83 4.936c.05.299.308.516.614.516h3.846a.62.62 0 01.623.617.62.62 0 01-.623.617H2.7c-.918 0-1.692-.65-1.842-1.546l-.831-4.936a1.831 1.831 0 01.417-1.501 1.872 1.872 0 011.426-.654h.397v-6.788c0-1.021.838-1.852 1.868-1.852h7.184l8.843-10.406A3.74 3.74 0 0123.018 33h26.017a3.76 3.76 0 012.705 1.15l11.35 11.807h9.08a3.71 3.71 0 013.642 2.882l1.038 4.523h.28c.608 0 1.16.28 1.516.769.356.488.448 1.096.256 1.667l-1.66 4.936A1.868 1.868 0 0175.468 62z" fill="#fff"/><path d="M55.37 62H24.63c-.347 0-.63-.224-.63-.5s.283-.5.63-.5h30.74c.347 0 .63.224.63.5s-.281.5-.63.5zM15.5 63a4.505 4.505 0 01-4.5-4.5c0-2.482 2.018-4.5 4.5-4.5s4.5 2.018 4.5 4.5-2.018 4.5-4.5 4.5zm0-7.714a3.219 3.219 0 00-3.214 3.214 3.219 3.219 0 003.214 3.214 3.219 3.219 0 003.214-3.214 3.219 3.219 0 00-3.214-3.214zM31.5 60c-.276 0-.5-.274-.5-.611V49.61c0-.337.224-.611.5-.611s.5.274.5.611v9.778c0 .337-.224.611-.5.611zm0-13c-.276 0-.5-.274-.5-.611V36.61c0-.337.224-.611.5-.611s.5.274.5.611v9.778c0 .337-.224.611-.5.611zm14 13c-.276 0-.5-.274-.5-.611V49.61c0-.337.224-.611.5-.611s.5.274.5.611v9.778c0 .337-.224.611-.5.611zm0-13c-.276 0-.5-.274-.5-.611V36.61c0-.337.224-.611.5-.611s.5.274.5.611v9.778c0 .337-.224.611-.5.611zm30.893 8H73.03a.608.608 0 01-.542-.331l-2.425-4.801a.593.593 0 01.027-.584.608.608 0 01.515-.284h4.685c.282 0 .528.195.591.467l1.103 4.801a.594.594 0 01-.118.508.61.61 0 01-.474.224zm-2.988-1.2h2.227l-.826-3.6h-3.22l1.819 3.6z" fill="#fff"/><path d="M10.75 4.667C10.75 2.64 12.428 1 14.5 1s3.75 1.641 3.75 3.667c2.072 0 3.75 1.64 3.75 3.666S20.322 12 18.25 12h-7.5C8.678 12 7 10.359 7 8.333c0-2.025 1.678-3.666 3.75-3.666z" fill="#4DB6AC"/><path d="M65.4 3h-4.8c-.331 0-.6-.224-.6-.5s.269-.5.6-.5h4.8c.331 0 .6.224.6.5s-.269.5-.6.5z" fill="#fff"/><path d="M63.5 6c-.276 0-.5-.269-.5-.6V.6c0-.331.224-.6.5-.6s.5.269.5.6v4.8c0 .331-.224.6-.5.6zm9.9 2h-4.8c-.331 0-.6-.224-.6-.5s.269-.5.6-.5h4.8c.331 0 .6.224.6.5s-.269.5-.6.5z" fill="#fff"/><path d="M70.5 11c-.276 0-.5-.269-.5-.6V5.6c0-.331.224-.6.5-.6s.5.269.5.6v4.8c0 .331-.224.6-.5.6z" fill="#fff"/></svg>