<svg width="24" height="24" fill="none" xmlns="http://www.w3.org/2000/svg"><path fill-rule="evenodd" clip-rule="evenodd" d="M6.97 2.47a.75.75 0 011.062 0l9 9a.748.748 0 010 1.061l-9 9A.751.751 0 016.97 20.47L15.44 12 6.97 3.531a.75.75 0 010-1.062z" fill="#0C7F92"/><path fill-rule="evenodd" clip-rule="evenodd" d="M6.97 2.47a.75.75 0 011.062 0l9 9a.748.748 0 010 1.061l-9 9A.751.751 0 016.97 20.47L15.44 12 6.97 3.531a.75.75 0 010-1.062z" fill="#fff"/><path fill-rule="evenodd" clip-rule="evenodd" d="M6.97 2.47a.75.75 0 011.062 0l9 9a.748.748 0 010 1.061l-9 9A.751.751 0 016.97 20.47L15.44 12 6.97 3.531a.75.75 0 010-1.062z" fill="#0C8195"/></svg>