<svg width="107" height="310" fill="none" xmlns="http://www.w3.org/2000/svg"><path d="M9.111 293.655c-2.417 0-4.832-.028-7.25.016-.782.014-1.012-.238-1.001-1.01.057-4.422.096-8.843.07-13.265-.005-.955.357-1.111 1.195-1.106 4.648.033 9.3-.013 13.951.039.97.011 1.216-.266 1.208-1.219-.05-4.651.005-9.303-.044-13.952-.011-.966.28-1.226 1.23-1.218 4.284.047 8.571.052 12.856 0 1.005-.014 1.32.233 1.306 1.281-.06 4.605.005 9.21-.05 13.815-.01 1.016.242 1.309 1.28 1.295 4.604-.06 9.21.006 13.814-.049 1.005-.011 1.32.225 1.309 1.276-.05 4.331-.025 8.662.035 12.993.014.926-.293 1.128-1.16 1.123-4.65-.038-9.3.022-13.952-.047-1.128-.016-1.336.354-1.325 1.38.052 4.559-.006 9.12.046 13.678.011 1-.219 1.331-1.273 1.314a437.311 437.311 0 00-12.857 0c-1.076.017-1.27-.353-1.259-1.33.05-4.605-.005-9.21.044-13.815.01-.942-.216-1.254-1.197-1.224-2.321.074-4.648.025-6.976.022v.003zm22.103-47.413c0-2.631.02-5.21-.014-7.789-.008-.673.49-.81.882-1.073 5.1-3.42 7.36-8.271 6.738-14.294-.61-5.936-3.798-10.256-9.221-12.788-3.275-1.531-3.308-1.457-3.308 2.141 0 6.431-.03 12.862.028 19.293.01 1.163-.331 1.478-1.448 1.399a30.429 30.429 0 00-4.239 0c-1.06.071-1.286-.307-1.28-1.309.04-6.978.021-13.957.021-20.936 0-1.664-.011-1.692-1.599-1.144-10.806 3.712-13.152 15.173-8.627 23.09 1.063 1.862 2.593 3.297 4.45 4.348.684.389.944.824.925 1.613-.052 2.365-.02 4.733-.02 7.121C4.748 242.604-.68 233.561.077 222.547c.906-13.153 11.584-20.142 20.465-20.873 14.691-1.211 23.036 8.791 24.835 17.913 2.412 12.222-3.611 22.283-14.166 26.652l.003.003zm-8.07-200.833c6.886 0 13.771.03 20.657-.03 1.169-.011 1.47.337 1.399 1.448-.096 1.498-.129 3.017.008 4.51.118 1.294-.397 1.458-1.522 1.448-5.47-.055-10.943.008-16.416-.052-1.128-.011-1.46.282-1.445 1.426.06 5.243.049 10.488.005 15.731-.008.948.244 1.232 1.21 1.224 5.654-.044 11.307.003 16.96-.044.975-.008 1.238.269 1.194 1.219a56.725 56.725 0 000 5.06c.039.913-.265 1.138-1.147 1.127-4.284-.044-8.572-.02-12.86-.02-9.666 0-19.334-.018-28.998.028-1.122.006-1.511-.257-1.435-1.412.102-1.591.083-3.193.006-4.786-.047-.958.25-1.221 1.21-1.213 5.196.047 10.396-.005 15.595.047 1.032.01 1.38-.206 1.366-1.323a627.828 627.828 0 010-15.731c.013-1.114-.332-1.336-1.37-1.328-5.195.052-10.395 0-15.594.047-.963.008-1.25-.255-1.207-1.213.08-1.638.093-3.286-.003-4.923-.063-1.078.345-1.267 1.323-1.262 7.022.038 14.045.022 21.064.022zm8.069 76.633c9.902 4.112 16.645 13.807 14.192 26.546-1.845 9.582-10.444 18.441-23.107 18.118-11.066-.282-20.235-8.005-21.96-18.789-1.842-11.524 3.973-22.141 14.16-25.612 0 2.625-.005 5.196.006 7.77 0 .517-.403.67-.726.9-5.746 4.093-7.898 9.747-6.365 16.736 1.26 5.742 6.157 10.382 12.449 11.39 6.488 1.037 12.087-.792 16.038-6.245 3.715-5.125 4.046-10.697 1.314-16.402-1.109-2.314-2.831-4.14-5.04-5.443-.778-.46-1.005-.997-.983-1.865.06-2.324.019-4.648.019-7.104h.003zm13.963 1.946c-5.764-2.477-11.319-4.862-16.868-7.255-8.772-3.784-17.53-7.592-26.321-11.332-.967-.41-1.292-.895-1.23-1.905a35.307 35.307 0 000-4.238c-.051-.89.318-1.268 1.087-1.596 14.015-5.98 28.025-11.976 42.02-18.004 1.049-.452 1.396-.416 1.336.843-.09 1.864-.066 3.74 0 5.607.028.78-.268 1.109-.95 1.396-3.94 1.662-7.852 3.387-11.794 5.043-.778.326-1.095.723-1.087 1.605.044 4.922.052 9.848-.006 14.77-.01.958.364 1.328 1.178 1.67 3.898 1.64 7.761 3.365 11.66 5.005.745.312 1.016.684.994 1.498-.058 2.231-.02 4.462-.02 6.893zm-33.861-22.469c4.322 1.832 8.364 3.535 12.39 5.265.822.353.69-.2.69-.638.006-3.003-.027-6.007.023-9.007.016-1.008-.307-1.016-1.093-.674-2.623 1.136-5.27 2.223-7.907 3.327-1.28.536-2.562 1.078-4.1 1.727h-.003zM45.173.002c0 2.442-.03 4.81.019 7.178.016.767-.496.88-.983 1.09-3.885 1.681-7.762 3.384-11.666 5.016-.821.345-1.19.717-1.18 1.673a713.9 713.9 0 01.003 14.78c-.008.885.323 1.285 1.092 1.608 3.902 1.64 7.776 3.351 11.68 4.986.786.328 1.087.733 1.06 1.607-.07 2.184-.023 4.375-.023 6.551-.615.186-1.029-.175-1.47-.367-13.88-5.974-27.753-11.967-41.644-17.913-1.002-.427-1.383-.925-1.306-2.01.104-1.453.046-2.918.016-4.377-.014-.61.137-.991.753-1.254C15.884 12.443 30.235 6.296 44.59.155c.158-.068.336-.09.588-.156l-.005.003zm-33.875 22.28c4.482 1.903 8.725 3.704 13.007 5.525V16.831a30051.83 30051.83 0 00-13.007 5.451z" fill="#fff"/><path d="M21.064 190.726c-2.524-1.999-5.045-4.003-7.572-5.999-3.935-3.11-7.863-6.228-11.822-9.305-.635-.493-.928-.991-.912-1.815.052-2.547.02-5.093.02-7.658.604-.025.867.402 1.198.668a4124.326 4124.326 0 0119.04 15.397c.75.614 1.226.682 2.036.055 6.916-5.366 13.873-10.68 20.818-16.008.353-.271.718-.526 1.3-.955v8.736c0 .621-.541.802-.916 1.092-6.45 5-12.91 9.988-19.365 14.982-.348.268-.676.561-1.287 1.067h1.602c6.204 0 12.405.036 18.609-.03 1.182-.013 1.453.34 1.385 1.443-.096 1.591-.115 3.198.006 4.786.09 1.196-.518 1.18-1.38 1.177-12.909-.016-25.815-.011-38.724-.011-1.095 0-2.193-.057-3.282.016-.88.061-1.082-.287-1.057-1.097.052-1.733.074-3.469-.006-5.199-.043-.953.332-1.107 1.172-1.104 6.335.03 12.67.017 19.006.017.044-.088.09-.176.134-.26l-.003.005zm52.459 11.912c-.132-.432-.28-.859-.389-1.297-.334-1.336.397-2.442 1.73-2.796.455-.12.573.115.737.378.619 1.008 1.262 1.999 1.829 3.034.796 1.448 1.848 2.467 3.616 2.469.181 0 .406-.033.537.055 2.921 1.966 6.516.726 9.612 2.067 1.835.794 3.76 1.454 5.665 2.081 1.47.484 2.825 1.215 4.153 1.889 2.078 1.054 4.299 1.99 5.068 4.797.813 2.965-1.528 7.09-5.585 6.606-3.209-.383-6.305-1.109-9.246-2.226-4.194-1.591-7.69-4.326-10.748-7.685-1.205-1.322-2.322-2.842-3.8-3.841-1.263-.854-2.946-.802-4.463-1.041-.838-.131-1.711-.024-2.653-.024.638 1.218 1.53 2.034 2.459 2.943 1.073 1.054 2.702 1.476 3.383 2.984.329.723 1.194 1.008 1.93 1.186 1.534.372 2.382 1.341 2.577 2.825.21 1.613.194 3.22-1.35 4.315-.148.104-.29.219-.454.342 2.14 2.078 3.824 4.531 6.124 6.453 2.278 1.906 1.566 6.445-1 7.978-.85.509-1.773.843-2.627 1.333-.269.154-.68.367-.89.269-2.374-1.106-4.68.58-7.056.12-1.25-.241-2.436-.728-3.605-1.103-2.883-.926-5.76-2.117-7.296-5.095-.417-.808-.608-1.725-.35-2.516.5-1.542.84-3.171 1.787-4.537 1.245-1.796 2.943-2.226 4.89-1.248 1.237.618 2.305 1.478 3.22 2.508a83.684 83.684 0 012.901 3.449c.307.383.666.865.68 1.312.057 1.642 1.133 1.902 2.406 1.935 1.09.03 2.176.08 3.269-.159 1.02-.224 1.139-.69.695-1.549-1.16-2.253-2.905-4.066-4.457-6.026-.449-.57-1.019-1.06-1.043-1.865-.025-.78-.619-.479-1.013-.498-5.462-.26-9.848-2.3-12.515-7.356-.958-1.815-1.13-3.636-.544-5.544.421-1.367 1.139-2.503 2.902-2.711-.562-.824-.983-1.596-.945-2.54.085-2.018.884-2.837 2.902-2.738 2.286.112 4.457.854 6.683 1.311.08.03.156.063.233.096.014-.115.025-.23.038-.345l.003.005zm10.417 6.547c2.494 1.804 4.575 4.041 7.294 5.486 2.94 1.561 6.086 2.319 9.314 2.869.569.099 1.336.118 1.629-.432.279-.52-.34-.937-.638-1.386-1.772-2.644-5.016-2.948-7.357-4.678-.093-.069-.312-.096-.391-.036-.816.61-1.509.046-2.141-.298-2.41-1.315-5.095-1.208-7.707-1.525h-.003zm-18.168-1.123c.044.83-.361 1.407-.668 2.007-.315.621-.361 1.194.011 1.801 1.249 2.035 2.735 3.831 4.717 5.216 1.835 1.281 3.902.854 5.898 1.087-3.215-3.516-6.166-7.192-9.96-10.111h.002zm4.802 23.698c-1.308-2.954-2.568-3.923-4.353-3.277 1.314 1.287 2.563 2.527 4.353 3.277zm-6.881 32.568c.395.471.931.273 1.405.293 2.77.12 5.541-.08 8.326.21 1.798.189 3.663-.199 5.489-.355 1.645-.14 3.239-.129 4.851.136 1.44.239 2.363 1.295 3.275 2.262.572.602.104 1.328-.46 1.774-1.24.983-2.645 1.623-4.263 1.599-1.194-.017-2.377.033-3.526.342-2.3.619-4.622.189-6.933.17-2.157-.017-4.312-.173-6.466-.271-.18-.008-.38 0-.537-.071-2.532-1.145-5.292-.354-7.896-.95-1.234-.282-2.562-.63-3.77-.441-1.166.18-2.08.016-3.099-.444-1.42-.646-2.31-2.215-1.998-3.72.178-.86.698-1.298 1.5-1.586 3.42-1.223 7.003-1.935 10.357-3.37.695-.298 1.478-.389 2.324-.599-.314-.794-1.056-.992-1.664-1.26-2.806-1.24-5.4-2.85-7.899-4.602-1.339-.939-2.587-2.007-3.857-3.042-1.391-1.133-1.484-2.453-.852-4.487.586-1.884 1.714-2.637 3.581-2.669.312-.006.504-.11.704-.315.186-.192.416-.49.621-.488 3.012.044 6.01-1.218 9.038-.087.454.17 1.007.252 1.478.17 2.254-.389 4.57.158 6.719-.173 1.541-.235 3.115-.213 4.643-.526 1.577-.323 3.121-.528 4.564.537.528.389 1.186.545 1.55-.339.282-.685.925-.696 1.516-.652 2.19.161 4.373.025 6.56-.03 1.536-.038 2.738.955 3.73 2.012.569.608.188 1.391-.403 1.93-.447.405-1.005.619-1.597.737-1.513.301-3.036.591-4.544.87-1.402.26-2.905-.353-4.397-.293-.78.031-1.481-.021-2.138.584-.548.503-1.224.484-1.777-.203-.403-.501-.835-.912-1.238.107-.186.471-1.04.427-1.147.139-.35-.941-.922-.454-1.399-.334-1.859.477-3.699.83-5.659.608-1.484-.167-2.998.143-4.479.419-3.058.572-6.204 0-9.254.712-.249.057-.602-.104-.736.181-.184.386.224.555.435.752 1.774 1.646 3.953 2.711 6.215 3.223 2.897.657 5.626 1.799 8.493 2.521 2.075.523 2.527 3.094 1.117 4.939-1.306 1.709-3.247 2.434-5.11 3.286-.478.219-1.086.235-1.395.788l.002.006zm4.551-166.439c2.883 2.127 5.746 4.279 8.657 6.368.67.482.999.988.887 1.804-.071.536-.222 1.12-.09 1.618.755 2.886-.545 4.69-2.894 6.149-1.38.857-2.58 2.004-4.217 3.305 2.215 0 4.052.093 5.873-.031 1.287-.087 1.352.507 1.352 1.514 0 1.005-.06 1.542-1.344 1.512a257.377 257.377 0 00-12.175 0c-1.29.03-1.265-.592-1.235-1.484.028-.819-.197-1.637 1.18-1.542 1.805.126 3.625.031 5.873.031-1.807-1.441-3.217-2.788-4.835-3.798-1.966-1.229-2.716-2.787-2.004-5.174 1.36 1.076 2.724 2.168 4.101 3.244.931.726 1.878 1.982 2.823 1.988.939.005 1.897-1.24 2.828-1.966 1.49-1.161 2.965-2.341 4.495-3.551-.555-.411-1.02-.263-1.453-.266-3.967-.013-7.937-.06-11.904.022-1.287.028-1.104-.706-1.098-1.473.005-.75-.23-1.53 1.079-1.486 2.767.093 5.54.027 8.328.027-.02-.643-.487-.753-.788-.977-2.596-1.936-5.205-3.85-7.806-5.774-.693-.512-1.103-2.188-.772-2.93.18-.4.506-.325.808-.325 4.334-.006 8.665.005 12.999-.014.635-.003.854.186.887.846.106 2.122.137 2.119-1.917 2.119H68.36l-.115.249v-.005zm8.388-84.554c1.733 0 3.403.054 5.067-.017 1.317-.055.893.865.898 1.484.006.632.386 1.503-.911 1.495-5.879-.041-11.757-.025-17.635-.008-.657 0-1.09-.124-.98-.89.12-.857-.6-2.185 1.213-2.059-2.275-4.43-1.862-8.202 1.122-10.713 2.79-2.349 6.913-2.489 9.739-.329 3.2 2.448 3.72 6.09 1.49 11.037h-.004zm-6.199.06c2.872.03 4.882-1.884 4.912-4.68.03-2.866-1.988-4.96-4.805-4.982-2.847-.022-4.991 2.012-5.049 4.786-.054 2.743 2.073 4.843 4.94 4.876h.002zm1.911 28.555c4.216 1.12 6.543 4.978 5.601 9.175-.884 3.945-4.851 6.445-8.999 5.673-4.068-.759-6.754-4.57-6.116-8.676.605-3.885 4.23-6.703 8.112-6.382.909.074.723.627.723 1.136.008 3.283.057 6.568-.022 9.85-.033 1.356.504 1.186 1.339.745 2.773-1.464 3.353-5.798.758-7.616-1.585-1.112-1.555-2.314-1.399-3.902l.003-.002zm-3.422 7.393c0-1.137-.02-2.276.005-3.412.016-.709-.09-1.045-.912-.648-1.47.709-2.581 2.379-2.518 4.068.068 1.82.903 3.206 2.521 4.085.6.325.925.227.906-.545-.027-1.183-.008-2.366-.005-3.548h.002zm-.659 106.596c2.858 2.108 5.664 4.287 8.597 6.288 1.262.86.856 1.955.892 3.023.014.46-.438.372-.736.372-4.375.006-8.748.006-13.123.003-1.44 0-.676-1.101-.804-1.714-.137-.649-.105-1.235.908-1.207 2.369.063 4.74.019 7.108.019h1.341c.06-.594-.372-.69-.638-.887-2.63-1.958-5.232-3.959-7.928-5.821-1.213-.837-.745-1.913-.759-2.94-.005-.435.452-.361.753-.361 4.375-.006 8.747.005 13.122-.014.597 0 .753.224.794.797.156 2.173.181 2.171-1.995 2.171h-7.47l-.07.268.008.003zm2.111 25.173c-2.007 0-4.016-.082-6.018.031-1.183.065-1.377-.422-1.308-1.416.06-.857-.19-1.667 1.253-1.612 3.14.123 6.292-.02 9.438.068 1.133.03 1.377-.359 1.314-1.383a32.442 32.442 0 010-3.964c.063-.986-.178-1.333-1.249-1.306-3.099.082-6.204-.046-9.3.066-1.276.046-1.457-.389-1.49-1.528-.035-1.27.409-1.503 1.561-1.473 3.053.08 6.111-.011 9.164.05.969.019 1.486-.165 1.295-1.249-.137-.772.205-1.038.985-1.007 1.413.054 2.828.049 4.238 0 .742-.025 1.032.167 1.04.977.02 1.99.058 2.078-1.913 1.96-1.314-.079-1.698.282-1.645 1.624.112 3.006.002 6.017.054 9.026.017.885-.219 1.186-1.133 1.156-2.095-.066-4.194-.022-6.292-.022l.006.002zm-.031-109.234c-2.097 0-4.197-.057-6.292.02-1.393.049-.936-.91-.971-1.578-.036-.678-.274-1.456.982-1.426 3.28.077 6.566-.005 9.848.047.885.013 1.188-.222 1.145-1.131a50.59 50.59 0 01-.003-4.512c.033-.797-.247-.991-1.008-.983-3.282.038-6.568-.046-9.847.05-1.24.035-1.167-.617-1.134-1.424.03-.78-.263-1.626 1.133-1.585 3.234.093 6.475 0 9.712.049.881.014 1.28-.225 1.127-1.133-.158-.94.293-1.156 1.156-1.12 1.41.06 2.828.04 4.238.005.651-.016.843.214.87.863.096 2.102.121 2.187-2.07 2.072-1.25-.066-1.51.34-1.478 1.517.088 3.006-.019 6.02.055 9.026.028 1.06-.312 1.304-1.309 1.268-2.047-.077-4.103-.022-6.154-.022v-.003zm2.337 121.023c-2.845-2.103-5.637-4.285-8.564-6.267-1.232-.835-1.046-1.867-1.035-2.976.005-.517.397-.523.777-.523 4.376 0 8.75.009 13.123-.008.578 0 .77.197.813.783.167 2.163.192 2.163-1.999 2.163h-7.819c.654.517 1.049.851 1.462 1.158 2.344 1.733 4.638 3.543 7.064 5.15 1.196.794 1.39 1.744 1.29 2.987-.045.534-.239.706-.748.706-4.419-.008-8.84-.008-13.26 0-1.02 0-.632-.764-.722-1.278-.222-1.268.197-1.739 1.58-1.676 2.633.126 5.278.036 7.917.036l.115-.255h.006zM68.237 82.916c2.85 2.097 5.705 4.189 8.544 6.302.447.334.978.564 1.024 1.326.126 2.1.162 2.11-1.95 2.11-3.83 0-7.662-.065-11.492.036-1.337.036-1.328-.597-1.317-1.56.01-.907-.017-1.517 1.256-1.462 2.76.114 5.528.035 8.69.035-3.222-2.376-6.135-4.523-9.043-6.675-.43-.317-.857-.583-.9-1.26-.137-2.006-.146-2.036 1.902-2.036 3.877 0 7.756.066 11.63-.036 1.314-.032 1.21.625 1.219 1.495.01.893.052 1.525-1.232 1.473-2.724-.112-5.46-.035-8.19-.035-.046.095-.095.191-.141.287zm2.252 55.327c2.094 0 4.194.063 6.286-.022 1.377-.057.983.868.994 1.55.008.646.345 1.514-.945 1.429-1.407-.093-2.822.014-4.235-.035-.715-.025-.953.205-.934.925.044 1.593.052 3.19-.002 4.783-.028.777.312.895.971.879 1.41-.039 2.829.057 4.236-.033 1.046-.069 1.026.567.898 1.188-.134.643.67 1.793-.86 1.788a1872.05 1872.05 0 00-12.98.008c-.67.003-.83-.265-.862-.887-.11-2.078-.134-2.078 1.963-2.078.865 0 1.736-.055 2.595.014.95.076 1.41-.126 1.32-1.238-.112-1.401-.088-2.825-.005-4.232.054-.945-.318-1.161-1.172-1.12-1.273.06-2.552-.03-3.825.027-1.227.058-.862-.824-.835-1.402.027-.602-.482-1.574.838-1.555 2.184.031 4.372.009 6.56.009l-.006.002zm-.088-98.067c-2.053 0-4.11-.096-6.155.032-1.357.085-1.169-.684-1.193-1.519-.03-.917-.006-1.602 1.26-1.47 1.127.117 2.277-.014 3.416.038.84.038 1.246-.172 1.194-1.125a42.969 42.969 0 010-4.241c.038-.882-.239-1.23-1.148-1.185-1.273.06-2.554-.017-3.83.021-1.322.041-.824-.933-.854-1.538-.03-.594-.353-1.407.857-1.396 4.331.043 8.665.03 12.996.005.66-.003.83.222.855.862.079 2.062.11 2.051-1.994 2.067-1.317.011-3.069-.44-3.835.225-.887.772-.26 2.57-.288 3.923-.049 2.371-.013 2.374 2.336 2.374h2.053c1.541 0 2.294 1.174 1.69 2.606-.209.493-.609.312-.929.315-2.144.02-4.287.011-6.431.011v-.005zm2.39 81.308c3.784 1.651 5.47 4.194 5.312 7.811-.148 3.356-2.081 5.987-5.153 7.017-3.91 1.309-8.222-.674-9.678-4.452-1.511-3.918.197-8.213 3.877-9.949 1.002-.474 1.224-.274 1.188.778-.036 1.1-.05 1.965-1.183 2.751-2.08 1.443-2.195 4.764-.487 6.713 1.804 2.062 5.092 2.221 7.118.342 1.982-1.837 2.286-5.185.255-6.806-1.553-1.24-1.276-2.576-1.246-4.205h-.003zM71.74 23.46c-1.637 0-3.277.04-4.914-.016-.783-.024-1.084.241-.989 1.008.033.268.006.545.006.818 0 1.69-.649 2.152-2.3 1.733-.52-.13-.474-.47-.474-.824-.005-2.776.025-5.552-.016-8.328-.016-1.109.753-.846 1.311-.8.556.047 1.504-.487 1.479.756v.137c.091 1.72.99 2.58 2.694 2.58 2.686 0 5.374.087 8.052-.04 1.325-.06 1.243.628 1.207 1.49-.033.775.271 1.643-1.142 1.52-1.626-.143-3.274-.033-4.911-.033h-.003zm-9.279 62.655c.02 2.193-1.212 3.841-3.2 4.329-.649.158-1.054.131-.98-.71.074-.843-.241-1.672.99-2.16 1.145-.454.899-2.382-.26-2.995-.585-.312-1.045-2.2-.634-2.644.23-.247.498-.072.747-.02 2.037.425 3.318 2.043 3.337 4.203v-.003z" fill="#fff"/></svg>