<svg width="193" height="562" fill="none" xmlns="http://www.w3.org/2000/svg"><g opacity=".6" fill="#fff"><path opacity=".5" d="M16.89 532.369c-4.383 0-8.76-.049-13.143.03-1.42.025-1.836-.432-1.817-1.832.105-8.015.174-16.031.13-24.047-.01-1.732.645-2.015 2.163-2.005 8.428.06 16.86-.025 25.293.07 1.757.02 2.204-.482 2.189-2.209-.09-8.433.01-16.865-.08-25.293-.02-1.752.507-2.223 2.23-2.208 7.767.084 15.54.094 23.307 0 1.821-.025 2.392.421 2.367 2.322-.109 8.349.01 16.697-.09 25.045-.019 1.841.438 2.373 2.319 2.348 8.348-.109 16.696.01 25.044-.09 1.822-.02 2.393.407 2.373 2.313-.09 7.852-.045 15.704.064 23.556.025 1.678-.53 2.045-2.104 2.035-8.428-.07-16.86.04-25.293-.084-2.045-.03-2.422.64-2.402 2.501.094 8.264-.01 16.533.084 24.797.02 1.811-.397 2.412-2.308 2.382a794.26 794.26 0 00-23.307 0c-1.95.03-2.303-.64-2.283-2.412.089-8.348-.01-16.697.079-25.045.02-1.707-.392-2.273-2.169-2.219-4.209.135-8.428.045-12.646.04v.005z"/><path d="M56.961 446.424c0-4.77.035-9.445-.025-14.121-.014-1.221.889-1.469 1.599-1.945 9.246-6.199 13.34-14.994 12.214-25.914-1.107-10.76-6.884-18.592-16.716-23.183-5.936-2.775-5.996-2.64-5.996 3.881 0 11.659-.054 23.318.05 34.976.02 2.11-.6 2.681-2.626 2.537a55.03 55.03 0 00-7.683 0c-1.92.129-2.333-.556-2.323-2.373.075-12.651.04-25.303.04-37.954 0-3.018-.02-3.067-2.898-2.075-19.59 6.731-23.844 27.507-15.64 41.861 1.926 3.375 4.7 5.975 8.066 7.881 1.24.705 1.712 1.494 1.677 2.924-.094 4.288-.035 8.581-.035 12.909-17.684-6-27.526-22.394-26.151-42.361 1.643-23.844 21-36.515 37.1-37.84 26.633-2.194 41.761 15.937 45.022 32.474 4.373 22.156-6.546 40.396-25.68 48.318l.005.005zM42.33 82.333c12.482 0 24.965.055 37.447-.054 2.12-.02 2.665.61 2.536 2.625-.173 2.715-.233 5.47.015 8.175.214 2.348-.72 2.645-2.76 2.626-9.916-.1-19.837.014-29.76-.095-2.044-.02-2.645.511-2.62 2.586.11 9.505.09 19.014.01 28.519-.015 1.717.442 2.233 2.194 2.219 10.25-.08 20.498.005 30.747-.08 1.767-.015 2.244.487 2.165 2.209-.14 3.052-.135 6.12 0 9.172.069 1.658-.482 2.065-2.08 2.045-7.768-.08-15.54-.035-23.313-.035-17.525 0-35.05-.035-52.57.05-2.036.01-2.74-.467-2.601-2.561.183-2.884.148-5.787.01-8.676-.085-1.737.451-2.214 2.193-2.199 9.42.085 18.846-.01 28.271.085 1.871.019 2.502-.373 2.477-2.398-.12-9.504-.12-19.014 0-28.519.025-2.02-.6-2.422-2.482-2.407-9.42.094-18.845 0-28.27.084-1.748.015-2.269-.461-2.19-2.198.144-2.968.17-5.956-.004-8.924-.115-1.956.625-2.298 2.397-2.288 12.73.07 25.461.04 38.187.04zm14.63 138.913c17.952 7.455 30.176 25.03 25.73 48.124-3.346 17.372-18.936 33.433-41.891 32.847-20.061-.511-36.684-14.512-39.81-34.063-3.34-20.89 7.201-40.138 25.67-46.431 0 4.759-.01 9.42.01 14.085 0 .939-.73 1.216-1.316 1.633-10.418 7.421-14.319 17.67-11.54 30.341 2.284 10.408 11.163 18.821 22.569 20.647 11.763 1.881 21.913-1.434 29.075-11.321 6.735-9.291 7.335-19.392 2.382-29.735-2.01-4.194-5.132-7.505-9.137-9.867-1.41-.834-1.822-1.807-1.782-3.38.109-4.214.035-8.428.035-12.88h.005zm25.312 3.546c-10.448-4.491-20.518-8.814-30.579-13.152-15.902-6.859-31.78-13.763-47.716-20.543-1.753-.745-2.343-1.623-2.229-3.455a64 64 0 000-7.683c-.094-1.613.576-2.298 1.97-2.893 25.407-10.84 50.805-21.71 76.177-32.639 1.9-.819 2.531-.754 2.422 1.529-.164 3.38-.12 6.78 0 10.165.05 1.414-.487 2.01-1.722 2.531-7.143 3.013-14.235 6.139-21.382 9.142-1.41.591-1.986 1.311-1.97 2.909.079 8.924.094 17.853-.01 26.777-.02 1.737.66 2.407 2.134 3.027 7.067 2.973 14.07 6.1 21.138 9.073 1.35.566 1.842 1.241 1.802 2.715-.104 4.045-.035 8.09-.035 12.497zm-61.386-40.733c7.837 3.32 15.163 6.407 22.464 9.544 1.49.64 1.25-.362 1.25-1.156.01-5.445-.049-10.89.04-16.329.03-1.827-.555-1.842-1.98-1.221-4.754 2.059-9.554 4.03-14.334 6.03-2.323.973-4.645 1.956-7.435 3.132h-.005zM82.264.005c0 4.427-.054 8.72.035 13.014.03 1.39-.899 1.593-1.782 1.975-7.043 3.047-14.07 6.135-21.148 9.093-1.49.625-2.16 1.3-2.14 3.032.1 8.93.09 17.863.005 26.797-.015 1.603.586 2.328 1.98 2.913 7.073 2.973 14.096 6.075 21.174 9.039 1.424.595 1.97 1.33 1.92 2.913-.123 3.96-.039 7.931-.039 11.877-1.117.338-1.866-.317-2.665-.665C54.44 69.163 29.29 58.299 4.107 47.518c-1.816-.774-2.506-1.677-2.367-3.643.189-2.635.084-5.29.03-7.936-.025-1.107.248-1.797 1.365-2.273C29.167 22.558 55.185 11.416 81.207.283c.288-.124.61-.164 1.067-.283l-.01.005zm-61.41 40.391c8.124 3.45 15.818 6.715 23.58 10.016V30.514a44928.92 44928.92 0 00-23.58 9.882z"/><path d="M38.562 345.783c-4.576-3.623-9.147-7.256-13.728-10.874-7.133-5.638-14.255-11.292-21.432-16.87-1.151-.894-1.682-1.797-1.653-3.291.095-4.616.035-9.232.035-13.882 1.097-.045 1.574.729 2.174 1.211 11.525 9.281 23.045 18.563 34.515 27.913 1.36 1.112 2.223 1.236 3.692.1 12.538-9.728 25.15-19.362 37.741-29.021.64-.491 1.3-.953 2.358-1.732v15.838c0 1.127-.983 1.454-1.663 1.98-11.693 9.063-23.402 18.106-35.105 27.159-.63.487-1.226 1.018-2.333 1.936h2.904c11.246 0 22.488.065 33.735-.055 2.144-.024 2.635.616 2.511 2.616-.173 2.884-.208 5.797.01 8.676.164 2.169-.938 2.139-2.501 2.134-23.402-.03-46.799-.02-70.2-.02-1.986 0-3.976-.104-5.952.03-1.593.109-1.96-.521-1.916-1.99.095-3.142.134-6.289-.01-9.426-.079-1.727.601-2.005 2.125-2 11.485.055 22.97.03 34.455.03.08-.159.164-.318.243-.471l-.005.009z"/><path opacity=".5" d="M133.661 367.368c-.238-.785-.506-1.559-.704-2.353-.606-2.422.719-4.427 3.136-5.068.824-.218 1.038.209 1.336.685 1.121 1.827 2.288 3.624 3.315 5.5 1.444 2.625 3.35 4.472 6.557 4.477.327 0 .734-.06.972.099 5.296 3.563 11.813 1.315 17.426 3.747 3.326 1.439 6.815 2.636 10.269 3.772 2.666.879 5.123 2.204 7.53 3.425 3.767 1.911 7.792 3.608 9.187 8.696 1.474 5.375-2.77 12.854-10.125 11.976-5.817-.695-11.431-2.01-16.761-4.035-7.604-2.884-13.942-7.842-19.486-13.932-2.184-2.397-4.209-5.152-6.889-6.964-2.288-1.548-5.341-1.454-8.09-1.886-1.519-.238-3.102-.044-4.81-.044 1.157 2.208 2.775 3.687 4.457 5.335 1.946 1.911 4.899 2.675 6.135 5.41.596 1.31 2.164 1.827 3.499 2.149 2.779.675 4.318 2.432 4.67 5.122.383 2.924.353 5.837-2.446 7.823-.268.188-.527.397-.824.62 3.881 3.767 6.933 8.214 11.103 11.698 4.129 3.455 2.839 11.684-1.812 14.463-1.544.924-3.216 1.529-4.765 2.417-.486.278-1.231.666-1.613.487-4.303-2.005-8.482 1.052-12.79.218-2.268-.437-4.418-1.32-6.537-2-5.226-1.678-10.443-3.837-13.227-9.237-.754-1.464-1.102-3.126-.635-4.561.908-2.794 1.523-5.747 3.241-8.224 2.258-3.256 5.335-4.035 8.864-2.263 2.244 1.121 4.179 2.68 5.837 4.546a149.936 149.936 0 015.261 6.254c.556.695 1.206 1.568 1.231 2.377.104 2.978 2.055 3.45 4.363 3.509 1.975.055 3.945.144 5.926-.288 1.851-.407 2.064-1.25 1.26-2.809-2.104-4.085-5.266-7.37-8.08-10.924-.814-1.032-1.846-1.921-1.891-3.38-.044-1.415-1.121-.869-1.836-.903-9.902-.472-17.853-4.169-22.687-13.337-1.737-3.29-2.05-6.591-.988-10.05.764-2.477 2.065-4.537 5.261-4.914-1.017-1.494-1.782-2.894-1.712-4.606.154-3.658 1.603-5.142 5.261-4.963 4.144.203 8.08 1.548 12.115 2.377.144.055.283.114.422.174.025-.208.045-.417.07-.625l.004.01zm18.886 11.867c4.521 3.271 8.293 7.326 13.222 9.946 5.33 2.829 11.033 4.204 16.885 5.202 1.032.178 2.422.213 2.953-.785.506-.943-.615-1.697-1.156-2.511-3.212-4.794-9.093-5.345-13.337-8.482-.168-.124-.565-.174-.709-.065-1.479 1.107-2.735.085-3.882-.541-4.367-2.382-9.236-2.189-13.971-2.764h-.005zM119.61 377.2c.08 1.504-.655 2.551-1.211 3.638-.57 1.127-.655 2.164.02 3.266 2.264 3.687 4.959 6.943 8.552 9.455 3.325 2.323 7.073 1.548 10.691 1.97-5.827-6.373-11.177-13.038-18.057-18.329h.005zm8.706 42.962c-2.372-5.355-4.656-7.112-7.892-5.941 2.383 2.333 4.646 4.581 7.892 5.941zm-12.471 59.036c.714.854 1.687.497 2.546.531 5.023.219 10.046-.143 15.093.383 3.261.342 6.641-.363 9.952-.646 2.982-.253 5.871-.233 8.794.249 2.611.431 4.284 2.347 5.937 4.099 1.037 1.092.188 2.407-.834 3.216-2.249 1.782-4.795 2.944-7.728 2.899-2.164-.03-4.308.06-6.393.62-4.169 1.122-8.378.343-12.567.308-3.911-.03-7.817-.313-11.723-.491-.328-.015-.69 0-.973-.129-4.591-2.075-9.594-.641-14.314-1.723-2.238-.511-4.646-1.141-6.834-.799-2.115.328-3.773.03-5.619-.804-2.576-1.171-4.189-4.015-3.623-6.745.323-1.558 1.266-2.352 2.72-2.874 6.199-2.218 12.696-3.509 18.776-6.109 1.261-.541 2.68-.705 4.214-1.087-.571-1.44-1.916-1.797-3.018-2.283-5.087-2.249-9.788-5.167-14.319-8.344-2.427-1.702-4.69-3.638-6.993-5.514-2.522-2.055-2.69-4.447-1.544-8.135 1.062-3.414 3.107-4.779 6.492-4.839.566-.01.913-.198 1.276-.571.337-.347.754-.888 1.126-.883 5.46.079 10.895-2.209 16.384-.159.824.308 1.827.457 2.68.308 4.085-.705 8.284.288 12.18-.313 2.795-.427 5.648-.387 8.418-.953 2.859-.585 5.658-.958 8.274.973.958.705 2.149.988 2.809-.615.511-1.241 1.678-1.261 2.75-1.182 3.97.293 7.926.045 11.892-.054 2.784-.07 4.963 1.732 6.76 3.648 1.032 1.102.342 2.521-.73 3.499-.809.734-1.822 1.121-2.894 1.335a623.981 623.981 0 01-8.239 1.578c-2.541.472-5.266-.64-7.971-.531-1.414.055-2.685-.04-3.876 1.057-.993.914-2.219.879-3.221-.367-.73-.908-1.514-1.653-2.244.194-.337.853-1.886.774-2.079.253-.635-1.708-1.673-.824-2.536-.606-3.37.864-6.706 1.504-10.26 1.102-2.69-.303-5.434.258-8.119.759-5.544 1.038-11.247 0-16.776 1.291-.452.104-1.092-.189-1.335.327-.333.7.406 1.008.789 1.365 3.216 2.983 7.167 4.914 11.266 5.842 5.252 1.191 10.2 3.261 15.396 4.571 3.763.948 4.582 5.609 2.025 8.954-2.367 3.097-5.886 4.412-9.261 5.956-.869.397-1.97.427-2.531 1.429l.005.01z"/><path d="M124.09 177.46c5.226 3.856 10.418 7.758 15.694 11.545 1.216.873 1.812 1.791 1.608 3.27-.129.973-.402 2.03-.164 2.934 1.37 5.231-.987 8.502-5.246 11.147-2.501 1.554-4.675 3.633-7.643 5.991 4.015 0 7.345.169 10.646-.055 2.333-.159 2.452.918 2.452 2.745 0 1.821-.109 2.794-2.437 2.74a466.706 466.706 0 00-22.072 0c-2.338.054-2.293-1.072-2.238-2.69.049-1.484-.358-2.968 2.139-2.795 3.271.229 6.571.055 10.646.055-3.276-2.611-5.832-5.053-8.765-6.884-3.564-2.229-4.924-5.053-3.633-9.381 2.467 1.951 4.938 3.931 7.435 5.882 1.687 1.315 3.405 3.593 5.117 3.603 1.702.01 3.439-2.248 5.127-3.564 2.7-2.104 5.375-4.243 8.15-6.437-1.008-.745-1.852-.476-2.636-.481-7.192-.025-14.388-.11-21.58.039-2.333.05-2-1.28-1.99-2.67.01-1.36-.417-2.774 1.955-2.695 5.018.169 10.046.05 15.098.05-.034-1.167-.883-1.365-1.429-1.772-4.705-3.509-9.435-6.979-14.15-10.468-1.256-.928-2.001-3.966-1.4-5.311.328-.724.918-.59 1.464-.59 7.857-.01 15.709.01 23.566-.025 1.151-.005 1.548.337 1.608 1.534.194 3.846.248 3.841-3.474 3.841h-13.639l-.209.452v-.01zm15.202-153.29c3.142 0 6.169.1 9.187-.03 2.387-.098 1.618 1.57 1.628 2.691.01 1.146.7 2.725-1.653 2.71-10.656-.075-21.312-.045-31.968-.015-1.192 0-1.976-.223-1.777-1.613.218-1.554-1.087-3.96 2.199-3.732-4.125-8.031-3.376-14.87 2.034-19.422C124 .501 131.475.248 136.597 4.164c5.802 4.437 6.745 11.038 2.7 20.007h-.005zm-11.237.11c5.207.054 8.85-3.415 8.904-8.482.055-5.197-3.603-8.994-8.71-9.034-5.162-.04-9.048 3.648-9.153 8.676-.099 4.973 3.758 8.78 8.954 8.84h.005zm3.468 51.781c7.643 2.03 11.862 9.023 10.154 16.632-1.603 7.152-8.794 11.684-16.314 10.284-7.375-1.375-12.244-8.284-11.088-15.729 1.097-7.043 7.668-12.15 14.706-11.569 1.648.134 1.311 1.137 1.311 2.06.015 5.95.104 11.907-.04 17.858-.06 2.456.913 2.149 2.427 1.35 5.028-2.656 6.08-10.513 1.375-13.808-2.874-2.015-2.819-4.194-2.536-7.073l.005-.005zm-6.205 13.401c0-2.06-.034-4.124.01-6.184.03-1.286-.163-1.896-1.652-1.177-2.666 1.286-4.681 4.314-4.567 7.376.125 3.3 1.638 5.812 4.572 7.405 1.087.59 1.677.412 1.642-.988-.049-2.144-.014-4.288-.009-6.432h.004zm-1.193 193.241c5.181 3.822 10.269 7.772 15.584 11.4 2.289 1.559 1.554 3.544 1.618 5.48.025.834-.794.675-1.335.675-7.931.01-15.857.01-23.789.005-2.61 0-1.226-1.995-1.459-3.107-.248-1.176-.188-2.239 1.648-2.189 4.293.114 8.591.035 12.885.035h2.432c.109-1.077-.675-1.251-1.157-1.608-4.769-3.549-9.485-7.177-14.373-10.552-2.199-1.519-1.35-3.47-1.375-5.331-.01-.789.819-.655 1.365-.655 7.931-.01 15.857.01 23.789-.025 1.082 0 1.365.407 1.439 1.445.283 3.94.328 3.935-3.618 3.935h-13.54c-.045.164-.084.323-.129.487l.015.005zm3.829 45.64c-3.638 0-7.281-.149-10.909.055-2.144.119-2.497-.765-2.372-2.566.109-1.554-.343-3.023 2.273-2.924 5.693.224 11.405-.035 17.108.124 2.055.055 2.497-.65 2.382-2.506a59.222 59.222 0 010-7.187c.115-1.787-.322-2.417-2.263-2.367-5.618.148-11.247-.085-16.86.119-2.313.084-2.64-.705-2.7-2.77-.065-2.303.739-2.725 2.829-2.67 5.534.144 11.078-.02 16.612.089 1.757.035 2.695-.298 2.348-2.263-.248-1.4.372-1.881 1.787-1.827 2.561.1 5.127.09 7.683 0 1.345-.044 1.871.303 1.886 1.772.034 3.609.104 3.768-3.47 3.554-2.382-.144-3.077.511-2.983 2.943.204 5.45.005 10.91.1 16.364.029 1.603-.397 2.149-2.055 2.095-3.797-.119-7.604-.04-11.406-.04l.01.005zm-.054-198.026c-3.802 0-7.608-.105-11.405.034-2.527.09-1.698-1.647-1.762-2.859-.065-1.23-.497-2.64 1.781-2.585 5.946.139 11.902-.01 17.853.084 1.604.025 2.154-.402 2.075-2.05-.134-2.72-.114-5.459-.005-8.179.06-1.445-.447-1.797-1.826-1.782-5.951.069-11.907-.085-17.853.089-2.249.065-2.115-1.117-2.055-2.581.054-1.414-.477-2.948 2.055-2.873 5.861.168 11.738 0 17.604.089 1.599.025 2.323-.407 2.045-2.055-.288-1.702.531-2.094 2.095-2.03 2.556.109 5.127.075 7.683.01 1.181-.03 1.529.387 1.578 1.563.174 3.812.219 3.966-3.752 3.758-2.268-.119-2.74.615-2.68 2.749.159 5.45-.035 10.915.099 16.364.05 1.921-.566 2.363-2.372 2.298-3.713-.139-7.44-.039-11.158-.039v-.005zm4.227 219.401c-5.156-3.812-10.219-7.768-15.525-11.361-2.233-1.514-1.896-3.385-1.876-5.395.01-.938.72-.948 1.41-.948 7.931 0 15.862.015 23.789-.015 1.047 0 1.394.357 1.474 1.419.303 3.921.347 3.921-3.623 3.921H123.6c1.187.938 1.901 1.544 2.651 2.1 4.248 3.142 8.408 6.422 12.805 9.336 2.169 1.439 2.521 3.161 2.338 5.415-.08.968-.432 1.28-1.355 1.28-8.011-.015-16.027-.015-24.037 0-1.852 0-1.147-1.385-1.311-2.318-.402-2.298.358-3.151 2.864-3.037 4.775.228 9.569.064 14.354.064l.208-.461h.01zm-8.046-199.386c5.166 3.802 10.343 7.594 15.49 11.426.809.605 1.772 1.022 1.856 2.402.229 3.807.293 3.827-3.534 3.827-6.943 0-13.892-.12-20.835.064-2.423.065-2.408-1.082-2.388-2.829.02-1.643-.03-2.75 2.278-2.65 5.003.208 10.021.064 15.754.064-5.842-4.308-11.123-8.199-16.394-12.1-.779-.576-1.553-1.057-1.633-2.283-.248-3.638-.263-3.693 3.45-3.693 7.028 0 14.061.119 21.084-.065 2.382-.059 2.193 1.132 2.208 2.71.02 1.618.095 2.765-2.233 2.671-4.939-.204-9.897-.065-14.845-.065-.085.174-.174.348-.258.521zm4.083 100.296c3.797 0 7.603.114 11.395-.04 2.497-.104 1.782 1.574 1.802 2.809.015 1.172.625 2.745-1.712 2.591-2.551-.169-5.117.025-7.678-.064-1.296-.045-1.728.372-1.693 1.677.079 2.889.094 5.783-.005 8.671-.05 1.41.566 1.623 1.762 1.593 2.556-.069 5.127.105 7.678-.059 1.896-.124 1.861 1.027 1.628 2.154-.243 1.166 1.216 3.251-1.558 3.241-7.842-.015-15.689-.025-23.531.015-1.216.005-1.504-.482-1.564-1.608-.198-3.767-.243-3.767 3.559-3.767 1.568 0 3.147-.1 4.705.024 1.723.139 2.556-.228 2.393-2.243-.204-2.541-.159-5.122-.01-7.673.099-1.713-.576-2.105-2.125-2.03-2.308.109-4.625-.055-6.933.049-2.224.105-1.564-1.494-1.514-2.541.049-1.092-.874-2.854 1.519-2.819 3.96.055 7.926.015 11.892.015l-.01.005zm-.161-177.788c-3.722 0-7.449-.174-11.157.059-2.462.154-2.119-1.24-2.164-2.755-.055-1.662-.01-2.903 2.283-2.665 2.045.214 4.13-.025 6.194.07 1.524.07 2.259-.313 2.164-2.04a77.922 77.922 0 010-7.688c.07-1.599-.431-2.229-2.079-2.15-2.308.11-4.631-.03-6.944.04-2.397.075-1.494-1.692-1.548-2.79-.055-1.076-.641-2.55 1.553-2.53 7.852.079 15.709.054 23.561.01 1.196-.006 1.504.401 1.548 1.563.144 3.737.199 3.717-3.613 3.747-2.387.02-5.564-.799-6.954.407-1.608 1.4-.471 4.66-.521 7.112-.089 4.299-.024 4.304 4.234 4.304h3.722c2.795 0 4.16 2.129 3.063 4.725-.377.893-1.102.566-1.683.57-3.886.035-7.772.02-11.659.02v-.01zm4.328 147.409c6.86 2.993 9.917 7.604 9.629 14.16-.268 6.085-3.772 10.855-9.341 12.721-7.087 2.373-14.904-1.221-17.545-8.07-2.74-7.102.357-14.89 7.028-18.036 1.817-.859 2.219-.497 2.154 1.409-.064 1.995-.089 3.564-2.144 4.988-3.772 2.616-3.981 8.636-.883 12.17 3.27 3.737 9.231 4.025 12.904.621 3.593-3.331 4.144-9.401.462-12.339-2.815-2.249-2.313-4.671-2.259-7.624h-.005zM130.433 42.55c-2.968 0-5.941.07-8.91-.03-1.419-.045-1.965.437-1.791 1.826.059.487.01.988.01 1.484 0 3.063-1.177 3.901-4.169 3.142-.944-.238-.859-.854-.859-1.494-.01-5.033.045-10.065-.03-15.098-.03-2.01 1.365-1.534 2.377-1.45 1.008.085 2.725-.883 2.681 1.37v.249c.165 3.117 1.793 4.675 4.884 4.675 4.868 0 9.742.159 14.597-.07 2.402-.109 2.253 1.137 2.188 2.7-.059 1.405.492 2.979-2.069 2.755-2.949-.258-5.936-.06-8.904-.06h-.005zm-16.829 113.578c.035 3.976-2.199 6.963-5.802 7.847-1.176.288-1.911.238-1.777-1.286.134-1.528-.437-3.032 1.797-3.916 2.074-.823 1.628-4.318-.472-5.429-1.062-.566-1.896-3.991-1.151-4.795.417-.447.903-.129 1.355-.035 3.692.77 6.015 3.703 6.05 7.619v-.005z"/></g></svg>