<svg width="24" height="24" fill="none" xmlns="http://www.w3.org/2000/svg"><path d="M3.219 4.281a.75.75 0 111.062-1.062L12 10.939l7.719-7.72a.75.75 0 111.062 1.062L13.061 12l7.72 7.719a.752.752 0 01-1.062 1.062L12 13.061l-7.719 7.72a.752.752 0 01-1.282-.531.751.751 0 01.22-.531L10.939 12 3.22 4.281z" fill="#000"/><path d="M3.219 4.281a.75.75 0 111.062-1.062L12 10.939l7.719-7.72a.75.75 0 111.062 1.062L13.061 12l7.72 7.719a.752.752 0 01-1.062 1.062L12 13.061l-7.719 7.72a.752.752 0 01-1.282-.531.751.751 0 01.22-.531L10.939 12 3.22 4.281z" fill="#0C8195"/></svg>