<svg width="16" height="16" fill="none" xmlns="http://www.w3.org/2000/svg"><g clip-path="url(#clip0_170_6399)"><path d="M9.5 7a.5.5 0 01.5-.5h4.5v1H10a.5.5 0 01-.5-.5zm-8 2.5H5a.5.5 0 110 1H1.5v-1z" fill="#000" stroke="#1597AD"/><path d="M3.5 0a.5.5 0 01.5.5V1h8V.5a.5.5 0 011 0V1h1a2 2 0 012 2v11a2 2 0 01-2 2H2a2 2 0 01-2-2V3a2 2 0 012-2h1V.5a.5.5 0 01.5-.5zM1 4v10a1 1 0 001 1h12a1 1 0 001-1V4H1z" fill="#000"/><path d="M3.5 0a.5.5 0 01.5.5V1h8V.5a.5.5 0 011 0V1h1a2 2 0 012 2v11a2 2 0 01-2 2H2a2 2 0 01-2-2V3a2 2 0 012-2h1V.5a.5.5 0 01.5-.5zM1 4v10a1 1 0 001 1h12a1 1 0 001-1V4H1z" fill="#1597AD"/></g><defs><clipPath id="clip0_170_6399"><path fill="#fff" d="M0 0h16v16H0z"/></clipPath></defs></svg>