<svg width="30" height="30" fill="none" xmlns="http://www.w3.org/2000/svg"><g clip-path="url(#clip0_170_4276)"><path d="M20.625 12.188a.938.938 0 01.938-.938h1.875a.938.938 0 01.937.938v1.874a.938.938 0 01-.938.938h-1.875a.938.938 0 01-.937-.938v-1.874z" fill="#000"/><path d="M20.625 12.188a.938.938 0 01.938-.938h1.875a.938.938 0 01.937.938v1.874a.938.938 0 01-.938.938h-1.875a.938.938 0 01-.937-.938v-1.874z" fill="#0C8195"/><path d="M6.563 0A.937.937 0 017.5.938v.937h15V.937a.938.938 0 011.875 0v.938h1.875A3.75 3.75 0 0130 5.625V26.25A3.75 3.75 0 0126.25 30H3.75A3.75 3.75 0 010 26.25V5.625a3.75 3.75 0 013.75-3.75h1.875V.937A.937.937 0 016.563 0zM1.875 7.5v18.75a1.875 1.875 0 001.875 1.875h22.5a1.875 1.875 0 001.875-1.875V7.5H1.875z" fill="#0C8195"/></g><defs><clipPath id="clip0_170_4276"><path fill="#fff" d="M0 0h30v30H0z"/></clipPath></defs></svg>