<svg width="24" height="24" fill="none" xmlns="http://www.w3.org/2000/svg"><g clip-path="url(#clip0_165_4100)" fill-rule="evenodd" clip-rule="evenodd"><path d="M15 18.75a.75.75 0 01-.75.75h-12a.75.75 0 01-.75-.75V5.25a.75.75 0 01.75-.75h12a.75.75 0 01.75.75v3a.75.75 0 101.5 0v-3A2.25 2.25 0 0014.25 3h-12A2.25 2.25 0 000 5.25v13.5A2.25 2.25 0 002.25 21h12a2.25 2.25 0 002.25-2.25v-3a.75.75 0 10-1.5 0v3z" fill="#000"/><path d="M15 18.75a.75.75 0 01-.75.75h-12a.75.75 0 01-.75-.75V5.25a.75.75 0 01.75-.75h12a.75.75 0 01.75.75v3a.75.75 0 101.5 0v-3A2.25 2.25 0 0014.25 3h-12A2.25 2.25 0 000 5.25v13.5A2.25 2.25 0 002.25 21h12a2.25 2.25 0 002.25-2.25v-3a.75.75 0 10-1.5 0v3z" fill="#555756"/><path d="M23.781 12.531a.751.751 0 000-1.062l-4.5-4.5a.75.75 0 10-1.062 1.062l3.22 3.219H8.25a.75.75 0 100 1.5h13.19l-3.221 3.219a.75.75 0 001.062 1.062l4.5-4.5z" fill="#000"/><path d="M23.781 12.531a.751.751 0 000-1.062l-4.5-4.5a.75.75 0 10-1.062 1.062l3.22 3.219H8.25a.75.75 0 100 1.5h13.19l-3.221 3.219a.75.75 0 001.062 1.062l4.5-4.5z" fill="#555756"/></g><defs><clipPath id="clip0_165_4100"><path fill="#fff" d="M0 0h24v24H0z"/></clipPath></defs></svg>