<svg width="24" height="24" fill="none" xmlns="http://www.w3.org/2000/svg"><path d="M12.75 9.75a.75.75 0 10-1.5 0v5.69l-1.719-1.721a.752.752 0 00-1.282.531.751.751 0 00.22.531l3 3a.75.75 0 001.062 0l3-3a.752.752 0 00-1.062-1.062l-1.719 1.72V9.75z" fill="#000"/><path d="M12.75 9.75a.75.75 0 10-1.5 0v5.69l-1.719-1.721a.752.752 0 00-1.282.531.751.751 0 00.22.531l3 3a.75.75 0 001.062 0l3-3a.752.752 0 00-1.062-1.062l-1.719 1.72V9.75z" fill="#0C8195"/><path d="M21 21V6.75L14.25 0H6a3 3 0 00-3 3v18a3 3 0 003 3h12a3 3 0 003-3zM14.25 4.5a2.25 2.25 0 002.25 2.25h3V21a1.5 1.5 0 01-1.5 1.5H6A1.5 1.5 0 014.5 21V3A1.5 1.5 0 016 1.5h8.25v3z" fill="#000"/><path d="M21 21V6.75L14.25 0H6a3 3 0 00-3 3v18a3 3 0 003 3h12a3 3 0 003-3zM14.25 4.5a2.25 2.25 0 002.25 2.25h3V21a1.5 1.5 0 01-1.5 1.5H6A1.5 1.5 0 014.5 21V3A1.5 1.5 0 016 1.5h8.25v3z" fill="#0C8195"/></svg>