<svg width="24" height="24" fill="none" xmlns="http://www.w3.org/2000/svg"><g clip-path="url(#clip0_170_4429)"><path d="M21 6.75v6.75h-1.5V6.75h-3a2.25 2.25 0 01-2.25-2.25v-3H6A1.5 1.5 0 004.5 3v10.5H3V3a3 3 0 013-3h8.25L21 6.75zM19.5 18H21v3a3 3 0 01-3 3H6a3 3 0 01-3-3v-3h1.5v3A1.5 1.5 0 006 22.5h12a1.5 1.5 0 001.5-1.5v-3zM.75 15a.75.75 0 100 1.5h22.5a.75.75 0 100-1.5H.75z" fill="#000"/><path d="M21 6.75v6.75h-1.5V6.75h-3a2.25 2.25 0 01-2.25-2.25v-3H6A1.5 1.5 0 004.5 3v10.5H3V3a3 3 0 013-3h8.25L21 6.75zM19.5 18H21v3a3 3 0 01-3 3H6a3 3 0 01-3-3v-3h1.5v3A1.5 1.5 0 006 22.5h12a1.5 1.5 0 001.5-1.5v-3zM.75 15a.75.75 0 100 1.5h22.5a.75.75 0 100-1.5H.75z" fill="#555756"/></g><defs><clipPath id="clip0_170_4429"><path fill="#fff" d="M0 0h24v24H0z"/></clipPath></defs></svg>