<svg width="310" height="103" fill="none" xmlns="http://www.w3.org/2000/svg"><path d="M16.345 9.55c0-2.325.028-4.648-.016-6.973-.014-.753.238-.974 1.01-.964 4.422.055 8.843.092 13.265.069.955-.006 1.111.342 1.106 1.148-.033 4.471.014 8.945-.039 13.42-.01.931.266 1.168 1.219 1.16 4.651-.047 9.303.006 13.952-.042.966-.01 1.226.269 1.218 1.183a517.499 517.499 0 000 12.366c.014.966-.233 1.269-1.281 1.256-4.605-.058-9.21.005-13.815-.048-1.016-.01-1.309.232-1.295 1.23.06 4.43-.006 8.858.049 13.288.01.966-.224 1.269-1.276 1.258a534.478 534.478 0 00-12.993.035c-.926.013-1.128-.282-1.123-1.117.038-4.471-.022-8.945.047-13.42.016-1.084-.354-1.284-1.38-1.274-4.559.05-9.12-.005-13.678.045-1 .01-1.33-.21-1.314-1.225.063-4.12.063-8.244 0-12.366-.017-1.034.353-1.221 1.33-1.21 4.605.047 9.21-.006 13.815.041.942.01 1.254-.208 1.224-1.15-.074-2.234-.025-4.472-.022-6.71h-.003zm47.413 21.259c2.63 0 5.21.018 7.789-.013.673-.008.81.471 1.073.848 3.42 4.906 8.271 7.078 14.294 6.48 5.936-.587 10.256-3.652 12.788-8.869 1.531-3.15 1.457-3.18-2.14-3.18-6.432 0-12.863-.03-19.294.026-1.163.01-1.478-.32-1.399-1.393a28.124 28.124 0 000-4.077c-.071-1.019.307-1.238 1.309-1.232 6.978.04 13.957.02 20.936.02 1.664 0 1.692-.01 1.144-1.537-3.712-10.394-15.173-12.65-23.09-8.298-1.862 1.022-3.297 2.494-4.348 4.28-.389.658-.824.908-1.613.89-2.365-.05-4.733-.019-7.12-.019C67.396 5.353 76.438.131 87.453.86c13.152.872 20.141 11.142 20.872 19.684 1.211 14.13-8.79 22.157-17.913 23.887-12.221 2.32-22.283-3.473-26.652-13.625l-.003.003zm200.833-7.762c0 6.623-.03 13.246.03 19.868.011 1.125-.337 1.414-1.448 1.346-1.498-.092-3.017-.124-4.509.008-1.295.113-1.46-.382-1.449-1.464.055-5.262-.008-10.526.052-15.79.011-1.085-.282-1.403-1.426-1.39a824.9 824.9 0 01-15.731.005c-.948-.008-1.232.235-1.224 1.164.044 5.438-.003 10.876.044 16.314.008.937-.269 1.19-1.219 1.148a58.944 58.944 0 00-5.059 0c-.915.037-1.139-.256-1.128-1.104.044-4.12.019-8.245.019-12.368 0-9.299.019-18.597-.027-27.892-.006-1.08.257-1.454 1.412-1.38 1.591.097 3.193.079 4.786.005.958-.045 1.221.24 1.213 1.164-.047 4.998.005 9.999-.047 15-.011.992.206 1.327 1.323 1.313a652.62 652.62 0 0115.731 0c1.114.014 1.336-.318 1.328-1.316-.052-4.998 0-9.999-.047-15-.008-.926.255-1.203 1.213-1.16 1.637.076 3.286.089 4.923-.003 1.079-.061 1.267.331 1.262 1.271-.038 6.755-.022 13.51-.022 20.261zm-76.633 7.761c-4.112 9.524-13.807 16.01-26.546 13.65-9.582-1.774-18.441-10.045-18.118-22.224.282-10.644 8.005-19.463 18.789-21.122 11.524-1.772 22.141 3.82 25.612 13.62-2.625 0-5.196-.006-7.77.005-.517 0-.67-.388-.9-.698-4.093-5.528-9.747-7.597-16.736-6.123-5.742 1.212-10.382 5.923-11.39 11.974-1.037 6.24.792 11.626 6.245 15.426 5.125 3.573 10.697 3.892 16.402 1.264a12.383 12.383 0 005.443-4.848c.46-.748.997-.967 1.865-.945 2.324.057 4.648.018 7.104.018v.003zm-1.946 13.43c2.477-5.544 4.862-10.886 7.255-16.224 3.784-8.437 7.592-16.861 11.332-25.317.41-.93.895-1.243 1.905-1.182a36.7 36.7 0 004.238 0c.89-.05 1.268.305 1.596 1.045 5.98 13.48 11.976 26.955 18.004 40.416.452 1.009.416 1.343-.843 1.285-1.865-.087-3.74-.063-5.607 0-.78.027-1.109-.258-1.396-.913-1.662-3.79-3.387-7.553-5.043-11.345-.326-.748-.723-1.053-1.605-1.045-4.922.042-9.848.05-14.77-.005-.958-.01-1.328.35-1.67 1.132-1.64 3.75-3.365 7.465-5.005 11.215-.312.716-.684.977-1.498.956-2.231-.055-4.462-.018-6.893-.018zm22.469-32.57c-1.832 4.159-3.535 8.046-5.265 11.92-.353.79.2.663.638.663 3.003.005 6.007-.027 9.007.02 1.008.017 1.016-.294.674-1.05-1.136-2.523-2.223-5.069-3.327-7.605-.536-1.232-1.078-2.464-1.727-3.944v-.003zm101.517 32.567c-2.442 0-4.81-.03-7.178.018-.767.016-.879-.476-1.09-.945-1.681-3.737-3.384-7.465-5.016-11.22-.345-.79-.717-1.146-1.673-1.136-4.925.053-9.853.048-14.781.003-.884-.008-1.284.31-1.607 1.05-1.64 3.753-3.351 7.48-4.986 11.234-.328.756-.733 1.046-1.607 1.02-2.184-.066-4.375-.022-6.551-.022-.186-.592.175-.99.367-1.414 5.974-13.35 11.967-26.693 17.913-40.055.427-.964.925-1.33 2.01-1.256 1.453.1 2.918.045 4.377.016.611-.013.991.132 1.254.724 6.127 13.812 12.274 27.616 18.415 41.422.068.153.09.324.156.566l-.003-.005zm-22.28-32.582c-1.903 4.31-3.704 8.392-5.525 12.51h10.976a35136.42 35136.42 0 00-5.451-12.51z" fill="#fff"/><path d="M119.274 21.047c1.999-2.428 4.003-4.854 5.999-7.284 3.11-3.784 6.228-7.563 9.305-11.37.493-.612.991-.893 1.815-.878 2.547.05 5.093.019 7.658.019.025.582-.402.835-.668 1.153A3999.724 3999.724 0 01127.986 21c-.614.722-.682 1.18-.055 1.96 5.366 6.651 10.68 13.342 16.008 20.023.271.34.526.69.955 1.25h-8.736c-.621 0-.802-.52-1.092-.881-5-6.204-9.988-12.416-14.982-18.626-.268-.334-.561-.65-1.067-1.237v1.54c0 5.967-.036 11.932.03 17.899.013 1.137-.34 1.398-1.443 1.332-1.591-.092-3.198-.11-4.786.005-1.196.087-1.18-.497-1.177-1.327.016-12.416.011-24.83.011-37.245 0-1.053.057-2.11-.016-3.157-.061-.846.287-1.04 1.097-1.017 1.733.05 3.469.071 5.199-.005.953-.042 1.107.318 1.104 1.127-.03 6.093-.017 12.187-.017 18.28.088.042.176.087.26.13l-.005-.003zm-11.912 50.456c.432-.126.859-.269 1.297-.374 1.336-.321 2.442.382 2.796 1.664.12.437-.115.55-.378.709-1.008.595-1.999 1.214-3.034 1.759-1.448.766-2.467 1.777-2.469 3.478 0 .174.033.39-.055.516-1.966 2.81-.726 6.268-2.067 9.246-.794 1.764-1.454 3.615-2.081 5.448-.484 1.414-1.215 2.718-1.889 3.995-1.054 1.999-1.99 4.134-4.796 4.874-2.966.782-7.091-1.469-6.607-5.372.384-3.086 1.109-6.064 2.226-8.892 1.59-4.035 4.326-7.397 7.685-10.339 1.322-1.158 2.842-2.233 3.841-3.655.854-1.214.802-2.833 1.041-4.292.131-.806.024-1.646.024-2.552-1.218.614-2.034 1.472-2.943 2.365-1.054 1.032-1.476 2.599-2.984 3.255-.723.316-1.008 1.148-1.186 1.856-.372 1.475-1.341 2.291-2.825 2.478-1.613.203-3.22.187-4.315-1.298-.104-.142-.219-.28-.342-.437-2.078 2.059-4.531 3.678-6.453 5.89-1.906 2.191-6.445 1.507-7.978-.96-.51-.82-.843-1.707-1.333-2.529-.154-.258-.367-.653-.269-.855 1.106-2.283-.58-4.5-.12-6.786.24-1.204.728-2.344 1.103-3.468.926-2.773 2.117-5.541 5.095-7.018.808-.4 1.725-.585 2.516-.337 1.542.481 3.17.808 4.537 1.72 1.796 1.197 2.226 2.83 1.248 4.702-.618 1.19-1.478 2.218-2.508 3.097a82.167 82.167 0 01-3.45 2.791c-.382.295-.864.64-1.31.653-1.643.056-1.903 1.09-1.936 2.315-.03 1.048-.08 2.094.159 3.144.224.983.69 1.096 1.55.67 2.252-1.117 4.065-2.795 6.025-4.288.57-.432 1.06-.98 1.865-1.003.78-.024.479-.595.498-.975.26-5.253 2.3-9.471 7.356-12.036 1.816-.922 3.636-1.088 5.544-.524 1.367.405 2.503 1.095 2.711 2.79.824-.539 1.596-.944 2.54-.908 2.018.082 2.837.851 2.738 2.792-.112 2.198-.854 4.287-1.311 6.428-.03.076-.063.15-.096.224l.345.036-.005.003zm-6.547 10.02c-1.804 2.399-4.04 4.4-5.486 7.015-1.56 2.828-2.319 5.854-2.87 8.958-.098.548-.117 1.285.433 1.567.52.269.937-.326 1.386-.614 2.644-1.703 2.948-4.824 4.678-7.075.069-.09.096-.3.036-.377-.61-.784-.047-1.45.298-2.059 1.315-2.317 1.208-4.9 1.525-7.413v-.002zm1.123-17.475c-.83.042-1.407-.348-2.007-.642-.621-.303-1.194-.348-1.801.01-2.034 1.2-3.83 2.63-5.216 4.537-1.281 1.765-.854 3.753-1.087 5.672 3.516-3.091 7.192-5.93 10.111-9.58v.003zM78.24 68.667c2.954-1.259 3.923-2.47 3.277-4.187-1.287 1.264-2.527 2.465-3.277 4.187zm-32.568-6.618c-.47.379-.273.895-.293 1.35-.12 2.665.08 5.33-.21 8.008-.19 1.73.2 3.524.356 5.28.14 1.583.128 3.115-.137 4.666-.239 1.385-1.295 2.273-2.262 3.15-.602.55-1.328.1-1.774-.443-.983-1.192-1.623-2.543-1.599-4.1.017-1.148-.033-2.285-.342-3.391-.619-2.212-.189-4.445-.17-6.668.017-2.075.173-4.147.271-6.22.008-.174 0-.366.072-.516 1.144-2.436.353-5.09.95-7.594.282-1.188.63-2.465.44-3.626-.18-1.122-.016-2.002.444-2.981.646-1.367 2.215-2.223 3.72-1.923.86.172 1.298.672 1.586 1.443 1.223 3.29 1.935 6.736 3.37 9.962.298.67.389 1.422.6 2.236.793-.303.99-1.017 1.259-1.601 1.24-2.7 2.85-5.193 4.602-7.597.94-1.288 2.007-2.489 3.042-3.71 1.133-1.338 2.453-1.428 4.487-.82 1.884.564 2.636 1.649 2.67 3.445.005.3.109.484.314.677.192.179.49.4.488.597-.044 2.897 1.218 5.78.087 8.693-.17.437-.252.969-.17 1.422.39 2.167-.158 4.395.173 6.462.235 1.483.213 2.997.526 4.466.323 1.517.528 3.002-.537 4.39-.389.508-.545 1.14.34 1.49.684.272.695.89.651 1.46-.162 2.106-.025 4.204.03 6.309.038 1.477-.955 2.633-2.012 3.586-.608.548-1.39.182-1.93-.387-.406-.43-.619-.966-.737-1.535-.3-1.456-.591-2.92-.87-4.371-.26-1.349.353-2.794.293-4.23-.03-.75.022-1.424-.584-2.056-.503-.527-.484-1.177.203-1.71.501-.386.912-.802-.107-1.19-.47-.179-.427-1-.14-1.103.942-.337.455-.887.335-1.346-.477-1.787-.83-3.557-.608-5.442.167-1.428-.143-2.884-.419-4.309-.572-2.941 0-5.967-.712-8.9-.057-.24.104-.58-.18-.709-.387-.176-.556.216-.753.42-1.646 1.706-2.71 3.802-3.223 5.977-.657 2.786-1.799 5.411-2.521 8.168-.523 1.996-3.094 2.43-4.94 1.075-1.708-1.256-2.433-3.123-3.285-4.914-.219-.46-.235-1.046-.788-1.343l-.006.003zm166.439 4.376c-2.127 2.773-4.279 5.528-6.368 8.327-.482.645-.988.961-1.804.853-.536-.069-1.12-.213-1.618-.087-2.886.727-4.69-.524-6.149-2.783-.857-1.328-2.004-2.48-3.305-4.056 0 2.13-.093 3.898.031 5.649.087 1.237-.507 1.3-1.514 1.3-1.005 0-1.542-.057-1.512-1.292a238.11 238.11 0 000-11.71c-.03-1.24.592-1.217 1.484-1.188.819.026 1.637-.19 1.542 1.135-.126 1.735-.031 3.486-.031 5.648 1.441-1.738 2.788-3.094 3.798-4.65 1.229-1.89 2.787-2.612 5.174-1.928-1.076 1.309-2.168 2.62-3.244 3.945-.726.895-1.982 1.806-1.988 2.715-.005.903 1.24 1.825 1.966 2.72 1.161 1.433 2.341 2.852 3.551 4.324.411-.535.263-.982.266-1.398.013-3.816.06-7.634-.022-11.45-.028-1.238.706-1.061 1.473-1.056.75.005 1.53-.221 1.486 1.038-.093 2.662-.027 5.33-.027 8.01.643-.018.753-.469.977-.758 1.936-2.497 3.85-5.006 5.774-7.508.512-.666 2.188-1.061 2.93-.742.399.173.325.487.325.776.006 4.169-.005 8.335.014 12.503.003.611-.186.822-.846.853-2.122.103-2.119.132-2.119-1.843v-7.236l-.249-.11h.005zm84.554 8.068c0 1.667-.054 3.273.017 4.874.055 1.267-.865.859-1.484.864-.632.005-1.503.371-1.495-.877.041-5.654.025-11.307.008-16.961 0-.632.124-1.048.89-.943.857.116 2.185-.577 2.059 1.167 4.43-2.188 8.202-1.79 10.713 1.08 2.349 2.683 2.489 6.648.329 9.366-2.448 3.078-6.089 3.579-11.037 1.433v-.003zm-.06-5.962c-.03 2.762 1.884 4.695 4.679 4.724 2.867.03 4.961-1.911 4.983-4.621.022-2.739-2.012-4.8-4.786-4.856-2.743-.053-4.843 1.994-4.876 4.75v.003zm-28.556 1.838c-1.119 4.055-4.977 6.293-9.174 5.388-3.945-.851-6.445-4.667-5.673-8.656.759-3.913 4.57-6.496 8.676-5.883 3.885.582 6.703 4.069 6.382 7.803-.074.874-.627.695-1.136.695-3.283.008-6.568.055-9.851-.021-1.355-.032-1.185.484-.744 1.287 1.464 2.668 5.798 3.226 7.616.73 1.112-1.525 2.314-1.496 3.902-1.346l.002.003zm-7.392-3.292c1.137 0 2.275-.018 3.412.005.709.016 1.045-.086.649-.876-.71-1.415-2.38-2.484-4.069-2.423-1.82.066-3.206.869-4.085 2.425-.325.577-.227.89.545.872 1.183-.026 2.366-.008 3.548-.005v.002zm-106.596-.633c-2.108 2.749-4.287 5.448-6.288 8.268-.86 1.214-1.955.825-3.023.859-.46.013-.372-.422-.372-.709-.006-4.208-.006-8.413-.003-12.621 0-1.385 1.101-.65 1.714-.774.649-.132 1.235-.1 1.207.874-.063 2.278-.019 4.558-.019 6.836v1.29c.594.058.69-.358.887-.613 1.958-2.53 3.959-5.032 5.821-7.626.837-1.167 1.913-.717 2.94-.73.435-.005.361.435.361.724.006 4.209-.005 8.414.014 12.622 0 .574-.224.724-.797.764-2.173.15-2.171.173-2.171-1.92v-7.184c-.09-.023-.178-.044-.268-.068l-.003.008zm-25.173 2.03c0-1.93.082-3.863-.031-5.788-.065-1.138.422-1.324 1.416-1.259.857.058 1.667-.181 1.612 1.206-.123 3.02.02 6.052-.068 9.077-.03 1.09.359 1.325 1.383 1.264a33.756 33.756 0 013.964 0c.986.061 1.333-.17 1.306-1.2-.082-2.981.046-5.967-.066-8.946-.046-1.227.389-1.4 1.528-1.432 1.27-.034 1.503.392 1.473 1.5-.08 2.937.011 5.878-.05 8.814-.019.933.165 1.43 1.249 1.246.772-.132 1.038.197 1.007.948a53.796 53.796 0 000 4.076c.025.714-.167.993-.977 1.001-1.99.018-2.078.055-1.96-1.84.079-1.265-.282-1.633-1.624-1.583-3.006.108-6.017.002-9.026.052-.885.016-1.186-.21-1.156-1.09.066-2.014.022-4.034.022-6.051l-.002.005zm109.234-.03c0-2.017.057-4.037-.019-6.051-.05-1.34.908-.9 1.576-.935.679-.034 1.457-.263 1.427.946-.077 3.154.005 6.314-.047 9.471-.013.851.222 1.143 1.131 1.101 1.5-.07 3.012-.06 4.512-.002.797.031.991-.237.983-.97-.039-3.157.046-6.317-.049-9.472-.036-1.192.616-1.121 1.423-1.09.78.03 1.626-.252 1.585 1.09-.093 3.11 0 6.228-.049 9.34-.014.849.225 1.233 1.134 1.086.939-.153 1.155.282 1.119 1.111-.06 1.356-.041 2.72-.005 4.076.016.627-.214.812-.863.838-2.102.092-2.187.116-2.072-1.991.066-1.203-.34-1.454-1.517-1.422-3.006.084-6.02-.018-9.026.053-1.06.026-1.304-.3-1.268-1.259.077-1.97.022-3.947.022-5.92h.003zm-121.023 2.248c2.103-2.736 4.285-5.422 6.267-8.237.835-1.185 1.867-1.006 2.976-.995.517.005.523.381.523.748 0 4.207-.009 8.416.008 12.62 0 .556-.197.74-.783.783-2.163.16-2.163.184-2.163-1.922v-7.521c-.517.63-.851 1.008-1.158 1.406-1.733 2.254-3.543 4.461-5.15 6.794-.794 1.15-1.744 1.338-2.987 1.24-.534-.042-.706-.229-.706-.719.008-4.25.008-8.502 0-12.753 0-.982.764-.608 1.278-.695 1.268-.213 1.739.19 1.676 1.52-.126 2.533-.036 5.077-.036 7.615l.255.11v.006zm109.985-4.274c-2.097 2.742-4.189 5.488-6.302 8.219-.334.43-.564.94-1.326.985-2.099.12-2.11.155-2.11-1.875 0-3.684.065-7.37-.036-11.055-.036-1.285.597-1.277 1.561-1.266.906.01 1.516-.016 1.462 1.208-.115 2.655-.036 5.317-.036 8.359 2.376-3.1 4.523-5.902 6.675-8.698.317-.414.583-.825 1.259-.867 2.007-.131 2.037-.14 2.037 1.83 0 3.73-.066 7.46.036 11.187.032 1.264-.625 1.164-1.495 1.172-.893.01-1.525.05-1.473-1.185.112-2.62.035-5.251.035-7.877-.095-.044-.191-.092-.287-.137zm-55.327 2.167c0 2.014-.063 4.034.022 6.046.057 1.325-.868.945-1.55.956-.646.008-1.514.332-1.429-.909.093-1.353-.014-2.715.035-4.073.025-.688-.205-.917-.925-.898-1.593.042-3.19.05-4.783-.003-.777-.026-.895.3-.879.935.039 1.356-.057 2.72.033 4.074.069 1.006-.567.987-1.188.863-.643-.129-1.793.646-1.788-.826.008-4.161.014-8.324-.008-12.485-.003-.645.265-.798.887-.83 2.078-.105 2.078-.129 2.078 1.889 0 .832.055 1.67-.014 2.496-.076.914.126 1.356 1.238 1.27 1.401-.109 2.825-.085 4.232-.006.945.053 1.161-.306 1.12-1.127-.06-1.225.03-2.454-.027-3.679-.058-1.18.824-.83 1.402-.803.602.026 1.574-.464 1.555.806-.031 2.101-.009 4.205-.009 6.31l-.002-.006zm98.067-.085c0-1.975.096-3.952-.032-5.92-.085-1.306.684-1.124 1.519-1.148.917-.029 1.602-.005 1.47 1.212-.117 1.085.014 2.19-.038 3.286-.038.808.172 1.198 1.125 1.148a44.667 44.667 0 014.241 0c.882.037 1.229-.229 1.185-1.103-.06-1.225.017-2.457-.021-3.684-.041-1.272.933-.793 1.538-.822.594-.029 1.407-.34 1.396.825a765.94 765.94 0 00-.005 12.5c.003.634-.222.798-.862.821-2.062.077-2.051.106-2.067-1.917-.011-1.266.44-2.952-.225-3.689-.772-.853-2.571-.25-3.923-.276-2.371-.048-2.374-.014-2.374 2.246v1.975c0 1.482-1.174 2.206-2.606 1.625-.493-.2-.312-.585-.315-.893-.019-2.062-.011-4.124-.011-6.186h.005zm-81.308 2.3c-1.651 3.639-4.194 5.26-7.811 5.108-3.356-.142-5.987-2.001-7.017-4.956-1.309-3.76.674-7.908 4.452-9.309 3.918-1.453 8.213.19 9.949 3.729.474.964.274 1.177-.778 1.143-1.1-.034-1.965-.047-2.751-1.138-1.443-2.001-4.764-2.112-6.713-.468-2.062 1.735-2.221 4.897-.342 6.846 1.837 1.907 5.185 2.199 6.806.245 1.24-1.493 2.576-1.227 4.205-1.198v-.003zm98.023-1.012c0-1.575-.038-3.152.017-4.727.024-.753-.241-1.043-1.008-.95-.268.031-.545.005-.818.005-1.69 0-2.152-.624-1.733-2.212.131-.5.47-.456.824-.456 2.776-.005 5.552.024 8.328-.015 1.109-.016.846.724.799 1.261-.046.534.488 1.446-.755 1.422h-.137c-1.719.088-2.579.951-2.579 2.591 0 2.583-.088 5.17.038 7.745.06 1.274-.627 1.195-1.489 1.161-.775-.032-1.643.26-1.52-1.098.143-1.564.033-3.15.033-4.724v-.003zm-62.654-8.924c-2.193.018-3.841-1.167-4.329-3.079-.158-.624-.131-1.013.709-.942.844.07 1.673-.232 2.161.953.454 1.1 2.381.864 2.995-.25.312-.564 2.201-1.006 2.644-.611.247.22.072.479.02.719-.425 1.959-2.043 3.191-4.203 3.21h.003z" fill="#fff"/></svg>