<svg width="16" height="17" fill="none" xmlns="http://www.w3.org/2000/svg"><g clip-path="url(#clip0_136_2950)" fill="#fff"><path d="M11 1.702c.265 0 .52.102.707.282.188.18.293.425.293.68v11.542c0 .255-.105.5-.293.68a1.02 1.02 0 01-.707.282H5a1.02 1.02 0 01-.707-.282.943.943 0 01-.293-.68V2.664c0-.255.105-.5.293-.68A1.02 1.02 0 015 1.702h6zM5 .74c-.53 0-1.04.203-1.414.564-.375.36-.586.85-.586 1.36v11.542c0 .51.21 1 .586 1.36A2.04 2.04 0 005 16.13h6c.53 0 1.04-.203 1.414-.564.375-.36.586-.85.586-1.36V2.664c0-.51-.21-1-.586-1.36A2.041 2.041 0 0011 .74H5z"/><path d="M8 14.206c.265 0 .52-.101.707-.282a.944.944 0 00.293-.68c0-.255-.105-.5-.293-.68A1.02 1.02 0 008 12.283c-.265 0-.52.1-.707.281a.944.944 0 00-.293.68c0 .255.105.5.293.68.187.18.442.282.707.282z"/></g><defs><clipPath id="clip0_136_2950"><path fill="#fff" transform="translate(0 .74)" d="M0 0h16v15.389H0z"/></clipPath></defs></svg>