<svg width="16" height="16" fill="none" xmlns="http://www.w3.org/2000/svg"><g clip-path="url(#clip0_136_2945)" fill="#fff"><path d="M8 14.733a7.144 7.144 0 01-4.95-1.972A6.605 6.605 0 011 8c0-1.786.738-3.498 2.05-4.76A7.143 7.143 0 018 1.266c1.857 0 3.637.71 4.95 1.972A6.605 6.605 0 0115 8a6.605 6.605 0 01-2.05 4.76A7.143 7.143 0 018 14.734zm0 .962c2.122 0 4.157-.811 5.657-2.254S16 10.04 16 8s-.843-3.998-2.343-5.441C12.157 1.116 10.122.305 8 .305s-4.157.811-5.657 2.254S0 5.959 0 7.999c0 2.042.843 3.999 2.343 5.442S5.878 15.695 8 15.695z"/><path d="M5.254 5.87a.22.22 0 00.067.17.238.238 0 00.174.068h.825a.274.274 0 00.266-.24c.09-.631.54-1.091 1.342-1.091.686 0 1.314.33 1.314 1.123 0 .611-.374.892-.965 1.319-.673.47-1.206 1.02-1.168 1.911l.003.209a.236.236 0 00.075.167c.047.045.11.07.175.07h.811c.066 0 .13-.026.177-.07a.236.236 0 00.073-.171v-.101c0-.69.273-.892 1.01-1.43.61-.445 1.244-.939 1.244-1.977 0-1.453-1.276-2.155-2.673-2.155-1.267 0-2.655.567-2.75 2.198zm1.557 5.544c0 .512.425.891 1.01.891.61 0 1.028-.379 1.028-.891 0-.531-.42-.905-1.029-.905-.584 0-1.009.374-1.009.905z"/></g><defs><clipPath id="clip0_136_2945"><path fill="#fff" transform="translate(0 .305)" d="M0 0h16v15.389H0z"/></clipPath></defs></svg>