<svg width="16" height="16" fill="none" xmlns="http://www.w3.org/2000/svg"><path d="M0 4.023c0-.51.21-1 .586-1.36A2.04 2.04 0 012 2.099h12c.53 0 1.04.203 1.414.564.375.36.586.85.586 1.36v7.695c0 .51-.21.999-.586 1.36A2.04 2.04 0 0114 13.64H2a2.04 2.04 0 01-1.414-.563A1.887 1.887 0 010 11.718V4.023zm2-.962c-.265 0-.52.101-.707.282a.944.944 0 00-.293.68v.209l7 4.04 7-4.04v-.21a.945.945 0 00-.293-.68 1.02 1.02 0 00-.707-.28H2zm13 2.292L10.292 8.07 15 10.857V5.353zm-.034 6.614l-5.64-3.339L8 9.393l-1.326-.765-5.64 3.338a.96.96 0 00.357.514c.175.13.389.2.609.2h12c.22 0 .434-.07.609-.2a.96.96 0 00.357-.513zM1 10.857L5.708 8.07 1 5.353v5.504z" fill="#fff"/></svg>