<svg width="35" height="35" fill="none" xmlns="http://www.w3.org/2000/svg"><g clip-path="url(#clip0_136_2111)" fill-rule="evenodd" clip-rule="evenodd"><path d="M30.111 11.593c-.06-1.343-.277-2.267-.588-3.067a6.17 6.17 0 00-1.461-2.242 6.22 6.22 0 00-2.237-1.456c-.805-.311-1.724-.529-3.067-.588-1.353-.064-1.782-.079-5.214-.079-3.432 0-3.862.015-5.21.074-1.343.06-2.266.277-3.066.588a6.16 6.16 0 00-2.242 1.461 6.224 6.224 0 00-1.457 2.237c-.311.805-.528 1.724-.588 3.067-.064 1.353-.079 1.783-.079 5.214 0 3.432.015 3.862.074 5.21.06 1.343.277 2.267.588 3.067.321.849.82 1.61 1.462 2.241a6.22 6.22 0 002.237 1.457c.805.311 1.723.528 3.066.588 1.348.06 1.778.074 5.21.074s3.861-.015 5.21-.074c1.343-.06 2.266-.277 3.066-.588a6.466 6.466 0 003.699-3.698c.31-.805.528-1.724.587-3.067.06-1.348.074-1.778.074-5.21 0-3.431-.005-3.861-.064-5.21zm-2.276 10.32c-.055 1.235-.262 1.901-.435 2.346a4.194 4.194 0 01-2.4 2.4c-.444.173-1.116.38-2.346.434-1.333.06-1.733.074-5.105.074-3.373 0-3.778-.014-5.106-.074-1.235-.054-1.902-.261-2.346-.434a3.89 3.89 0 01-1.452-.943 3.93 3.93 0 01-.943-1.452c-.173-.444-.38-1.116-.434-2.346-.06-1.333-.074-1.733-.074-5.106 0-3.372.014-3.777.074-5.106.054-1.234.261-1.9.434-2.345a3.842 3.842 0 01.948-1.452c.41-.42.904-.74 1.452-.943.444-.173 1.116-.38 2.346-.435 1.333-.059 1.733-.074 5.105-.074 3.378 0 3.778.015 5.107.074 1.234.055 1.9.262 2.345.435a3.887 3.887 0 011.452.943c.42.41.74.904.943 1.452.173.444.38 1.116.435 2.345.059 1.334.074 1.734.074 5.106 0 3.373-.015 3.768-.074 5.101zM17.545 10.31a6.495 6.495 0 00-6.494 6.493 6.495 6.495 0 006.493 6.494 6.495 6.495 0 006.494-6.494 6.495 6.495 0 00-6.494-6.493zm0 10.705a4.213 4.213 0 110-8.425 4.213 4.213 0 010 8.425zm6.748-9.446a1.516 1.516 0 100-3.032 1.516 1.516 0 000 3.032z" fill="#183646"/><path d="M30.111 11.593c-.06-1.343-.277-2.267-.588-3.067a6.17 6.17 0 00-1.461-2.242 6.22 6.22 0 00-2.237-1.456c-.805-.311-1.724-.529-3.067-.588-1.353-.064-1.782-.079-5.214-.079-3.432 0-3.862.015-5.21.074-1.343.06-2.266.277-3.066.588a6.16 6.16 0 00-2.242 1.461 6.224 6.224 0 00-1.457 2.237c-.311.805-.528 1.724-.588 3.067-.064 1.353-.079 1.783-.079 5.214 0 3.432.015 3.862.074 5.21.06 1.343.277 2.267.588 3.067.321.849.82 1.61 1.462 2.241a6.22 6.22 0 002.237 1.457c.805.311 1.723.528 3.066.588 1.348.06 1.778.074 5.21.074s3.861-.015 5.21-.074c1.343-.06 2.266-.277 3.066-.588a6.466 6.466 0 003.699-3.698c.31-.805.528-1.724.587-3.067.06-1.348.074-1.778.074-5.21 0-3.431-.005-3.861-.064-5.21zm-2.276 10.32c-.055 1.235-.262 1.901-.435 2.346a4.194 4.194 0 01-2.4 2.4c-.444.173-1.116.38-2.346.434-1.333.06-1.733.074-5.105.074-3.373 0-3.778-.014-5.106-.074-1.235-.054-1.902-.261-2.346-.434a3.89 3.89 0 01-1.452-.943 3.93 3.93 0 01-.943-1.452c-.173-.444-.38-1.116-.434-2.346-.06-1.333-.074-1.733-.074-5.106 0-3.372.014-3.777.074-5.106.054-1.234.261-1.9.434-2.345a3.842 3.842 0 01.948-1.452c.41-.42.904-.74 1.452-.943.444-.173 1.116-.38 2.346-.435 1.333-.059 1.733-.074 5.105-.074 3.378 0 3.778.015 5.107.074 1.234.055 1.9.262 2.345.435a3.887 3.887 0 011.452.943c.42.41.74.904.943 1.452.173.444.38 1.116.435 2.345.059 1.334.074 1.734.074 5.106 0 3.373-.015 3.768-.074 5.101zM17.545 10.31a6.495 6.495 0 00-6.494 6.493 6.495 6.495 0 006.493 6.494 6.495 6.495 0 006.494-6.494 6.495 6.495 0 00-6.494-6.493zm0 10.705a4.213 4.213 0 110-8.425 4.213 4.213 0 010 8.425zm6.748-9.446a1.516 1.516 0 100-3.032 1.516 1.516 0 000 3.032z" fill="#fff"/><path d="M30.111 11.593c-.06-1.343-.277-2.267-.588-3.067a6.17 6.17 0 00-1.461-2.242 6.22 6.22 0 00-2.237-1.456c-.805-.311-1.724-.529-3.067-.588-1.353-.064-1.782-.079-5.214-.079-3.432 0-3.862.015-5.21.074-1.343.06-2.266.277-3.066.588a6.16 6.16 0 00-2.242 1.461 6.224 6.224 0 00-1.457 2.237c-.311.805-.528 1.724-.588 3.067-.064 1.353-.079 1.783-.079 5.214 0 3.432.015 3.862.074 5.21.06 1.343.277 2.267.588 3.067.321.849.82 1.61 1.462 2.241a6.22 6.22 0 002.237 1.457c.805.311 1.723.528 3.066.588 1.348.06 1.778.074 5.21.074s3.861-.015 5.21-.074c1.343-.06 2.266-.277 3.066-.588a6.466 6.466 0 003.699-3.698c.31-.805.528-1.724.587-3.067.06-1.348.074-1.778.074-5.21 0-3.431-.005-3.861-.064-5.21zm-2.276 10.32c-.055 1.235-.262 1.901-.435 2.346a4.194 4.194 0 01-2.4 2.4c-.444.173-1.116.38-2.346.434-1.333.06-1.733.074-5.105.074-3.373 0-3.778-.014-5.106-.074-1.235-.054-1.902-.261-2.346-.434a3.89 3.89 0 01-1.452-.943 3.93 3.93 0 01-.943-1.452c-.173-.444-.38-1.116-.434-2.346-.06-1.333-.074-1.733-.074-5.106 0-3.372.014-3.777.074-5.106.054-1.234.261-1.9.434-2.345a3.842 3.842 0 01.948-1.452c.41-.42.904-.74 1.452-.943.444-.173 1.116-.38 2.346-.435 1.333-.059 1.733-.074 5.105-.074 3.378 0 3.778.015 5.107.074 1.234.055 1.9.262 2.345.435a3.887 3.887 0 011.452.943c.42.41.74.904.943 1.452.173.444.38 1.116.435 2.345.059 1.334.074 1.734.074 5.106 0 3.373-.015 3.768-.074 5.101zM17.545 10.31a6.495 6.495 0 00-6.494 6.493 6.495 6.495 0 006.493 6.494 6.495 6.495 0 006.494-6.494 6.495 6.495 0 00-6.494-6.493zm0 10.705a4.213 4.213 0 110-8.425 4.213 4.213 0 010 8.425zm6.748-9.446a1.516 1.516 0 100-3.032 1.516 1.516 0 000 3.032z" fill="url(#paint0_linear_136_2111)"/><path d="M30.111 11.593c-.06-1.343-.277-2.267-.588-3.067a6.17 6.17 0 00-1.461-2.242 6.22 6.22 0 00-2.237-1.456c-.805-.311-1.724-.529-3.067-.588-1.353-.064-1.782-.079-5.214-.079-3.432 0-3.862.015-5.21.074-1.343.06-2.266.277-3.066.588a6.16 6.16 0 00-2.242 1.461 6.224 6.224 0 00-1.457 2.237c-.311.805-.528 1.724-.588 3.067-.064 1.353-.079 1.783-.079 5.214 0 3.432.015 3.862.074 5.21.06 1.343.277 2.267.588 3.067.321.849.82 1.61 1.462 2.241a6.22 6.22 0 002.237 1.457c.805.311 1.723.528 3.066.588 1.348.06 1.778.074 5.21.074s3.861-.015 5.21-.074c1.343-.06 2.266-.277 3.066-.588a6.466 6.466 0 003.699-3.698c.31-.805.528-1.724.587-3.067.06-1.348.074-1.778.074-5.21 0-3.431-.005-3.861-.064-5.21zm-2.276 10.32c-.055 1.235-.262 1.901-.435 2.346a4.194 4.194 0 01-2.4 2.4c-.444.173-1.116.38-2.346.434-1.333.06-1.733.074-5.105.074-3.373 0-3.778-.014-5.106-.074-1.235-.054-1.902-.261-2.346-.434a3.89 3.89 0 01-1.452-.943 3.93 3.93 0 01-.943-1.452c-.173-.444-.38-1.116-.434-2.346-.06-1.333-.074-1.733-.074-5.106 0-3.372.014-3.777.074-5.106.054-1.234.261-1.9.434-2.345a3.842 3.842 0 01.948-1.452c.41-.42.904-.74 1.452-.943.444-.173 1.116-.38 2.346-.435 1.333-.059 1.733-.074 5.105-.074 3.378 0 3.778.015 5.107.074 1.234.055 1.9.262 2.345.435a3.887 3.887 0 011.452.943c.42.41.74.904.943 1.452.173.444.38 1.116.435 2.345.059 1.334.074 1.734.074 5.106 0 3.373-.015 3.768-.074 5.101zM17.545 10.31a6.495 6.495 0 00-6.494 6.493 6.495 6.495 0 006.493 6.494 6.495 6.495 0 006.494-6.494 6.495 6.495 0 00-6.494-6.493zm0 10.705a4.213 4.213 0 110-8.425 4.213 4.213 0 010 8.425zm6.748-9.446a1.516 1.516 0 100-3.032 1.516 1.516 0 000 3.032z" fill="#fff"/></g><defs><linearGradient id="paint0_linear_136_2111" x1="4.902" y1="4.161" x2="32.772" y2="7.453" gradientUnits="userSpaceOnUse"><stop stop-color="#2D2D2D"/><stop offset=".364" stop-color="#202020"/><stop offset="1" stop-color="#181818"/></linearGradient><clipPath id="clip0_136_2111"><path fill="#fff" transform="translate(4.86 4.161)" d="M0 0h25.278v25.278H0z"/></clipPath></defs></svg>