<svg width="190" height="65" fill="none" xmlns="http://www.w3.org/2000/svg"><path d="M10 5.574c0-1.48.017-2.957-.01-4.436-.008-.479.146-.62.618-.613 2.705.035 5.41.059 8.116.044.584-.004.68.217.677.73-.02 2.844.008 5.69-.024 8.536-.007.593.163.744.745.739 2.846-.03 5.692.003 8.537-.027.59-.007.75.17.745.752a341.48 341.48 0 000 7.866c.008.615-.142.807-.784.799-2.818-.037-5.635.003-8.452-.03-.622-.007-.8.147-.793.782.037 2.817-.003 5.635.03 8.452.007.615-.137.808-.78.8-2.65-.03-5.3-.014-7.95.023-.566.008-.69-.18-.686-.71.023-2.845-.014-5.69.028-8.537.01-.69-.216-.817-.844-.81-2.79.031-5.58-.004-8.369.028-.611.007-.814-.134-.804-.779.039-2.621.039-5.244 0-7.866-.01-.658.216-.777.814-.77 2.818.03 5.635-.004 8.453.027.576.006.767-.133.748-.732-.045-1.42-.015-2.845-.013-4.268H10z" fill="#0E8194"/><path d="M39.008 19.096c1.61 0 3.187.012 4.765-.008.412-.005.496.3.657.54 2.092 3.12 5.06 4.502 8.745 4.122 3.632-.374 6.275-2.324 7.824-5.642.937-2.003.891-2.023-1.31-2.023-3.934 0-7.869-.019-11.803.017-.712.006-.905-.203-.857-.887a18.59 18.59 0 000-2.592c-.043-.649.188-.788.801-.784 4.27.025 8.54.013 12.81.013 1.018 0 1.034-.007.7-.978-2.272-6.612-9.284-8.047-14.128-5.278-1.139.65-2.017 1.586-2.66 2.722-.238.418-.504.578-.986.566-1.448-.032-2.897-.012-4.357-.012 2.025-5.968 7.558-9.29 14.296-8.826 8.047.555 12.323 7.087 12.77 12.521.741 8.988-5.378 14.094-10.96 15.194-7.476 1.476-13.632-2.209-16.305-8.666l-.002.002zm122.873-4.936c0 4.213-.019 8.426.018 12.638.007.716-.206.9-.886.856-.916-.058-1.846-.078-2.759.005-.792.072-.893-.243-.886-.931.034-3.347-.005-6.695.032-10.044.007-.69-.173-.892-.873-.884-3.207.037-6.417.03-9.624.003-.58-.005-.754.15-.749.74.027 3.46-.002 6.919.027 10.378.005.596-.165.757-.746.73a34.649 34.649 0 00-3.095 0c-.56.023-.697-.163-.69-.702.026-2.621.011-5.245.011-7.868 0-5.914.012-11.829-.016-17.742-.004-.686.157-.924.864-.877.973.062 1.953.05 2.928.003.586-.028.747.153.742.74-.029 3.18.003 6.36-.029 9.541-.006.632.126.845.809.836 3.208-.04 6.418-.04 9.625 0 .682.009.818-.202.813-.837-.032-3.18 0-6.36-.029-9.541-.005-.59.156-.766.742-.739a28.02 28.02 0 003.012-.002c.66-.038.775.211.772.81-.023 4.296-.013 8.592-.013 12.887zM115 19.096c-2.516 6.059-8.448 10.185-16.241 8.684-5.863-1.13-11.283-6.39-11.086-14.138.173-6.77 4.898-12.38 11.496-13.435 7.05-1.127 13.546 2.43 15.67 8.663-1.606 0-3.179-.003-4.754.004-.316 0-.41-.247-.551-.444-2.504-3.516-5.963-4.833-10.24-3.895-3.512.77-6.351 3.768-6.968 7.617-.634 3.97.485 7.395 3.821 9.812 3.136 2.273 6.545 2.476 10.035.804 1.416-.678 2.533-1.732 3.33-3.084.282-.475.61-.614 1.141-.601 1.422.037 2.844.012 4.347.012v.001zm-1.195 8.543c1.516-3.526 2.975-6.925 4.439-10.32 2.314-5.367 4.644-10.725 6.932-16.104.252-.591.548-.79 1.166-.752a21.6 21.6 0 002.593 0c.545-.032.776.194.977.665a7878.025 7878.025 0 0011.015 25.709c.276.641.254.854-.516.817a41.106 41.106 0 00-3.431 0c-.477.017-.678-.164-.854-.581-1.017-2.41-2.072-4.804-3.085-7.216-.2-.476-.442-.67-.982-.665-3.012.026-6.025.031-9.037-.004-.586-.006-.812.223-1.021.72-1.004 2.386-2.059 4.75-3.062 7.134-.191.456-.419.622-.917.608-1.365-.035-2.73-.011-4.217-.011zm13.747-20.717c-1.121 2.645-2.163 5.117-3.221 7.581-.216.503.122.422.39.422 1.837.004 3.675-.016 5.511.014.616.01.621-.188.412-.669-.695-1.604-1.36-3.224-2.035-4.837-.329-.784-.66-1.568-1.057-2.51v-.001zm62.113 20.716c-1.494 0-2.943-.019-4.392.011-.469.01-.538-.303-.667-.601-1.028-2.377-2.07-4.749-3.068-7.137-.211-.503-.439-.729-1.024-.722-3.013.033-6.028.03-9.043.001-.541-.005-.786.198-.983.669-1.004 2.387-2.051 4.757-3.051 7.145-.201.481-.449.665-.983.649-1.337-.042-2.677-.014-4.008-.014-.114-.377.107-.63.224-.9 3.655-8.492 7.322-16.979 10.96-25.478.261-.613.566-.846 1.229-.8.89.065 1.786.03 2.679.01.373-.007.606.085.767.462 3.749 8.785 7.509 17.566 11.266 26.348.042.097.055.206.096.36l-.002-.003zM176.034 6.912c-1.165 2.742-2.267 5.339-3.381 7.958h6.716l-3.335-7.958z" fill="#565857"/><path d="M72.97 12.889c1.223-1.544 2.45-3.087 3.67-4.633 1.903-2.407 3.811-4.81 5.694-7.233.301-.389.606-.568 1.11-.558 1.558.032 3.116.012 4.685.012.015.37-.246.53-.408.734-3.133 3.889-6.265 7.777-9.42 11.648-.376.459-.418.75-.034 1.246 3.283 4.231 6.534 8.487 9.794 12.737.166.216.321.439.584.796H83.3c-.38 0-.49-.332-.668-.562-3.059-3.946-6.11-7.897-9.166-11.847-.164-.213-.343-.414-.653-.787v.98c0 3.795-.022 7.59.018 11.385.009.723-.207.89-.882.847a21.623 21.623 0 00-2.928.004c-.732.055-.722-.317-.72-.845.01-7.897.006-15.793.006-23.691 0-.67.035-1.342-.01-2.009-.037-.537.176-.661.672-.646a42.15 42.15 0 003.18-.003c.584-.027.677.202.676.716-.019 3.876-.01 7.752-.01 11.629.053.026.107.055.159.082l-.004-.002z" fill="#565857"/><path d="M65.688 44.983c.264-.08.526-.171.794-.238.817-.205 1.494.243 1.71 1.058.074.279-.07.35-.231.451-.617.379-1.223.772-1.856 1.119-.886.487-1.51 1.13-1.51 2.213 0 .11.02.248-.034.328-1.203 1.787-.444 3.986-1.265 5.881-.486 1.122-.89 2.3-1.273 3.466-.297.9-.744 1.728-1.156 2.54-.645 1.272-1.218 2.63-2.934 3.101-1.815.498-4.339-.935-4.042-3.417.234-1.963.678-3.858 1.361-5.657.974-2.566 2.647-4.705 4.702-6.576.81-.737 1.739-1.42 2.35-2.325.523-.772.491-1.802.637-2.73.08-.513.015-1.047.015-1.623-.745.39-1.245.936-1.8 1.504-.646.657-.904 1.653-1.826 2.07-.443.201-.617.73-.726 1.181-.228.938-.82 1.458-1.728 1.577-.987.129-1.97.119-2.64-.826-.064-.09-.134-.178-.21-.278-1.271 1.31-2.772 2.34-3.948 3.747-1.166 1.393-3.943.958-4.88-.612-.312-.52-.517-1.085-.816-1.608-.094-.164-.225-.415-.165-.544.677-1.452-.355-2.863-.073-4.317.147-.765.445-1.49.675-2.206.566-1.763 1.294-3.524 3.117-4.464.494-.254 1.055-.371 1.54-.214.942.307 1.939.514 2.775 1.094 1.099.762 1.362 1.8.764 2.991a6.562 6.562 0 01-1.535 1.97 50.87 50.87 0 01-2.11 1.776c-.235.187-.53.407-.803.415-1.005.035-1.164.694-1.184 1.473-.018.666-.048 1.331.097 2 .138.624.422.696.948.425 1.379-.71 2.488-1.777 3.687-2.727.349-.275.648-.623 1.14-.638.478-.015.294-.379.306-.62.159-3.342 1.407-6.025 4.5-7.657 1.111-.586 2.225-.691 3.392-.333.836.258 1.531.697 1.659 1.776.504-.344.976-.602 1.554-.578 1.235.052 1.735.54 1.675 1.775-.069 1.399-.522 2.727-.802 4.09l-.059.142.211.023-.003.002zm-4.005 6.373c-1.104 1.526-2.472 2.8-3.357 4.462-.955 1.8-1.419 3.724-1.755 5.699-.06.348-.072.817.264.996.319.171.573-.207.848-.39 1.618-1.084 1.804-3.068 2.862-4.5.042-.057.06-.191.022-.24-.373-.5-.028-.923.183-1.31.804-1.474.739-3.117.933-4.715v-.002zm.687-11.115c-.508.026-.861-.221-1.228-.41-.38-.192-.73-.22-1.102.008-1.245.763-2.344 1.673-3.191 2.886-.784 1.122-.523 2.387-.665 3.608 2.15-1.967 4.4-3.773 6.186-6.094v.002zm-14.5 2.938c1.808-.801 2.4-1.572 2.006-2.664-.788.804-1.546 1.568-2.005 2.664zm-19.925-4.21c-.288.24-.168.57-.18.859-.073 1.695.049 3.39-.129 5.094-.115 1.1.123 2.24.218 3.358.086 1.007.079 1.982-.084 2.968-.145.881-.792 1.446-1.383 2.004-.369.35-.813.063-1.086-.282-.6-.759-.993-1.618-.978-2.608.01-.73-.02-1.454-.21-2.157-.378-1.407-.115-2.828-.103-4.241.01-1.32.105-2.639.166-3.957.005-.11 0-.233.043-.328.7-1.55.216-3.238.582-4.831.172-.755.385-1.568.27-2.306-.111-.714-.01-1.274.27-1.897.396-.869 1.356-1.413 2.277-1.222.526.109.794.427.97.918.749 2.092 1.184 4.284 2.062 6.336.182.426.238.905.367 1.422.485-.192.606-.646.77-1.018.759-1.717 1.744-3.303 2.816-4.833.574-.819 1.228-1.582 1.86-2.36.694-.85 1.502-.908 2.746-.52 1.153.358 1.613 1.048 1.633 2.19a.557.557 0 00.193.43c.117.115.3.255.298.381-.027 1.843.745 3.677.054 5.53-.104.277-.154.616-.104.904.238 1.378-.097 2.795.105 4.11.145.943.131 1.907.322 2.841.198.965.323 1.91-.328 2.792-.238.324-.334.726.207.949.42.172.426.566.4.927-.1 1.34-.016 2.675.018 4.014.023.94-.585 1.675-1.232 2.281-.371.349-.85.116-1.18-.246-.248-.273-.38-.615-.451-.977-.184-.926-.362-1.857-.533-2.78-.159-.858.216-1.777.18-2.69-.019-.478.013-.906-.357-1.308-.309-.335-.297-.75.124-1.087.306-.247.557-.511-.066-.758-.288-.114-.261-.636-.085-.702.576-.214.278-.564.204-.855-.291-1.138-.507-2.263-.372-3.463.103-.908-.087-1.834-.256-2.74-.35-1.871 0-3.796-.435-5.662-.036-.152.063-.368-.111-.45-.236-.113-.34.137-.46.266-1.007 1.085-1.659 2.419-1.972 3.802-.402 1.773-1.1 3.443-1.543 5.196-.32 1.27-1.893 1.546-3.022.684-1.045-.8-1.489-1.987-2.01-3.126-.134-.293-.144-.665-.482-.854l-.003.002z" fill="#0E8194"/><path d="M129.775 41.753c-1.302 1.764-2.618 3.516-3.896 5.297-.295.41-.605.61-1.104.542-.328-.043-.685-.136-.99-.055-1.765.462-2.869-.333-3.762-1.77-.524-.845-1.226-1.579-2.022-2.58 0 1.355-.057 2.479.019 3.593.053.787-.31.827-.927.827-.614 0-.943-.037-.924-.822.058-2.483.058-4.967 0-7.45-.019-.788.362-.773.908-.755.5.017 1.001-.12.943.722-.077 1.104-.019 2.218-.019 3.593.881-1.105 1.705-1.968 2.323-2.958.753-1.202 1.706-1.661 3.166-1.226-.658.833-1.326 1.667-1.985 2.51-.444.569-1.212 1.148-1.216 1.726-.003.575.759 1.161 1.203 1.73.71.912 1.432 1.815 2.172 2.751.252-.34.161-.625.163-.89.008-2.426.037-4.855-.013-7.282-.017-.788.432-.675.901-.672.459.003.936-.14.909.66-.057 1.693-.016 3.39-.016 5.095.393-.011.46-.298.597-.482 1.185-1.588 2.356-3.184 3.533-4.776.313-.423 1.338-.675 1.792-.472.245.11.2.31.2.494.003 2.652-.004 5.302.008 7.953.002.389-.114.523-.517.543-1.299.065-1.297.084-1.297-1.173v-4.603l-.152-.07h.003zm51.733 5.131c0 1.06-.034 2.082.01 3.1.033.806-.53.546-.908.55-.387.003-.92.236-.915-.558.025-3.596.015-7.193.005-10.789 0-.402.076-.667.545-.6.524.074 1.336-.367 1.259.742 2.711-1.392 5.019-1.139 6.555.687 1.437 1.707 1.522 4.23.201 5.958-1.498 1.958-3.725 2.277-6.752.912v-.002zm-.037-3.792c-.019 1.757 1.152 2.986 2.862 3.005 1.754.018 3.036-1.217 3.049-2.94.013-1.742-1.231-3.054-2.928-3.089-1.678-.033-2.963 1.268-2.983 3.022v.002zm-17.474 1.168c-.685 2.58-3.045 4.004-5.613 3.428-2.413-.542-3.943-2.969-3.47-5.506a4.64 4.64 0 015.308-3.742c2.377.37 4.1 2.588 3.904 4.963-.045.556-.383.442-.695.442-2.008.005-4.018.035-6.027-.014-.829-.02-.725.309-.455.82.896 1.696 3.548 2.051 4.66.464.68-.97 1.415-.952 2.387-.856l.001.001zm-4.522-2.093c.695 0 1.392-.012 2.087.003.434.01.64-.055.397-.558-.434-.9-1.456-1.58-2.489-1.54-1.114.041-1.962.552-2.499 1.542-.2.367-.139.566.333.554.724-.017 1.447-.005 2.171-.003v.002zm-65.218-.404c-1.29 1.749-2.623 3.466-3.848 5.26-.526.772-1.196.524-1.849.546-.281.008-.228-.268-.228-.45a4384.71 4384.71 0 01-.001-8.03c0-.88.673-.413 1.048-.492.397-.084.755-.063.739.556-.039 1.45-.012 2.9-.012 4.349v.82c.364.037.422-.227.543-.39 1.197-1.61 2.422-3.2 3.56-4.85.513-.743 1.172-.456 1.8-.465.266-.003.221.277.221.46.003 2.678-.003 5.353.008 8.03 0 .364-.137.46-.487.485-1.33.096-1.328.11-1.328-1.221v-4.57l-.165-.043-.001.005zm-15.399 1.293c0-1.227.05-2.457-.019-3.681-.04-.724.258-.843.867-.801.524.037 1.02-.115.986.767-.075 1.922.012 3.85-.042 5.774-.018.694.22.843.846.804.806-.048 1.62-.05 2.426 0 .603.039.815-.109.799-.764-.05-1.896.028-3.795-.04-5.69-.03-.78.237-.891.934-.911.777-.022.92.25.901.955-.048 1.867.007 3.738-.03 5.606-.012.593.1.91.764.792.472-.083.635.126.616.603-.033.865-.03 1.73 0 2.593.015.454-.102.632-.598.637-1.218.011-1.271.035-1.199-1.171.049-.804-.173-1.039-.993-1.007-1.84.069-3.682.002-5.523.034-.54.01-.725-.134-.707-.694.04-1.281.014-2.566.014-3.849l-.002.003zm66.827-.018c0-1.283.035-2.568-.012-3.85-.03-.852.556-.572.965-.594.416-.022.891-.168.873.601-.047 2.007.003 4.017-.029 6.025-.008.541.136.727.692.7a31.004 31.004 0 012.761-.001c.487.02.606-.15.601-.616-.024-2.009.028-4.019-.03-6.026-.022-.758.377-.713.871-.693.477.018.995-.16.97.693-.057 1.979 0 3.962-.031 5.942-.008.54.138.784.694.69.574-.097.707.18.685.707-.037.862-.025 1.73-.003 2.593.01.398-.131.516-.528.532-1.286.059-1.338.074-1.268-1.266.04-.766-.208-.925-.928-.904-1.839.053-3.683-.012-5.522.033-.649.017-.798-.191-.776-.8.047-1.254.013-2.512.013-3.766h.002zm-74.041 1.429c1.287-1.74 2.622-3.45 3.835-5.24.51-.754 1.142-.64 1.82-.633.317.003.32.243.32.475 0 2.677-.005 5.354.005 8.029 0 .353-.12.47-.479.498-1.323.102-1.323.117-1.323-1.223v-4.784c-.317.4-.52.641-.709.894-1.06 1.434-2.167 2.838-3.15 4.322-.486.732-1.067.85-1.828.789-.326-.027-.432-.146-.432-.458.005-2.703.005-5.408 0-8.112 0-.624.468-.387.782-.442.776-.136 1.064.12 1.025.967-.077 1.611-.021 3.23-.021 4.844l.155.07v.004zm67.29-2.719c-1.283 1.743-2.563 3.49-3.856 5.227-.204.273-.345.598-.811.627-1.285.077-1.291.099-1.291-1.193 0-2.343.04-4.688-.022-7.032-.022-.817.365-.812.955-.805.554.006.928-.01.894.769-.07 1.688-.022 3.381-.022 5.316 1.454-1.971 2.768-3.754 4.084-5.532.194-.264.357-.525.771-.552 1.227-.083 1.246-.088 1.246 1.165 0 2.371-.04 4.745.022 7.115.02.804-.382.74-.915.745-.546.007-.933.032-.901-.753.069-1.667.022-3.34.022-5.01l-.176-.087zm-33.85 1.378c0 1.282-.039 2.567.013 3.846.036.843-.531.602-.948.608-.395.005-.926.211-.874-.578.057-.86-.008-1.727.022-2.59.015-.438-.126-.584-.566-.572-.975.027-1.952.032-2.927-.002-.475-.016-.547.191-.537.595.023.863-.035 1.73.02 2.591.042.64-.347.628-.727.55-.394-.082-1.097.41-1.094-.526.005-2.647.008-5.295-.005-7.942-.002-.41.162-.507.543-.527 1.271-.067 1.271-.082 1.271 1.2 0 .53.033 1.063-.008 1.589-.047.58.077.862.757.807a18.797 18.797 0 012.589-.003c.578.033.711-.195.685-.717-.036-.78.019-1.561-.016-2.34-.035-.75.504-.528.857-.511.369.017.963-.295.952.512-.019 1.337-.005 2.675-.005 4.014l-.002-.004zm59.999-.053c0-1.257.058-2.514-.02-3.766-.052-.83.418-.715.929-.73.561-.018.98-.003.9.77-.072.69.008 1.394-.024 2.091-.023.514.106.762.689.73a26.28 26.28 0 012.594 0c.54.024.752-.145.726-.702-.037-.778.01-1.562-.014-2.343-.025-.809.571-.504.942-.523.363-.018.86-.216.854.525a501.78 501.78 0 00-.004 7.951c.002.404-.135.508-.527.523-1.262.048-1.255.067-1.265-1.22-.007-.805.27-1.877-.137-2.346-.473-.543-1.573-.16-2.401-.176-1.45-.03-1.452-.009-1.452 1.428v1.257c0 .943-.718 1.404-1.594 1.033-.302-.127-.191-.372-.193-.568-.012-1.311-.007-2.623-.007-3.934h.004zm-49.749 1.462c-1.01 2.315-2.566 3.347-4.779 3.25-2.053-.09-3.663-1.273-4.293-3.153-.801-2.392.412-5.03 2.724-5.92 2.397-.926 5.025.12 6.087 2.371.29.613.167.749-.476.727-.673-.022-1.203-.03-1.683-.724-.883-1.273-2.915-1.343-4.107-.298-1.262 1.104-1.359 3.116-.21 4.355 1.124 1.213 3.173 1.399 4.164.156.759-.95 1.576-.78 2.573-.762v-.002zm59.973-.643c0-1.002-.023-2.005.01-3.007.015-.479-.147-.663-.616-.605-.165.02-.334.004-.501.004-1.034 0-1.317-.397-1.061-1.407.081-.319.289-.29.505-.29 1.698-.004 3.397.015 5.095-.01.678-.01.518.46.489.802-.028.34.298.92-.462.905h-.084c-1.052.056-1.578.605-1.578 1.648 0 1.643-.053 3.288.024 4.926.037.81-.384.76-.912.739-.474-.02-1.005.166-.929-.699.087-.995.02-2.003.02-3.005v-.001zm-38.331-5.677c-1.342.012-2.35-.742-2.648-1.958-.097-.397-.081-.645.434-.6.515.046 1.023-.147 1.321.607.278.7 1.457.55 1.833-.16.191-.358 1.346-.64 1.618-.388.15.14.043.305.011.457-.259 1.247-1.249 2.03-2.571 2.042h.002z" fill="#565857"/></svg>