<svg width="20" height="20" fill="none" xmlns="http://www.w3.org/2000/svg"><path d="M1.25 3.125A1.875 1.875 0 013.125 1.25h3.75A1.875 1.875 0 018.75 3.125v3.75A1.875 1.875 0 016.875 8.75h-3.75A1.875 1.875 0 011.25 6.875v-3.75zm10 0a1.875 1.875 0 011.875-1.875h3.75a1.875 1.875 0 011.875 1.875v3.75a1.875 1.875 0 01-1.875 1.875h-3.75a1.875 1.875 0 01-1.875-1.875v-3.75zm-10 10a1.875 1.875 0 011.875-1.875h3.75a1.875 1.875 0 011.875 1.875v3.75a1.875 1.875 0 01-1.875 1.875h-3.75a1.875 1.875 0 01-1.875-1.875v-3.75zm10 0a1.875 1.875 0 011.875-1.875h3.75a1.875 1.875 0 011.875 1.875v3.75a1.875 1.875 0 01-1.875 1.875h-3.75a1.875 1.875 0 01-1.875-1.875v-3.75z" fill="#000"/><path d="M1.25 3.125A1.875 1.875 0 013.125 1.25h3.75A1.875 1.875 0 018.75 3.125v3.75A1.875 1.875 0 016.875 8.75h-3.75A1.875 1.875 0 011.25 6.875v-3.75zm10 0a1.875 1.875 0 011.875-1.875h3.75a1.875 1.875 0 011.875 1.875v3.75a1.875 1.875 0 01-1.875 1.875h-3.75a1.875 1.875 0 01-1.875-1.875v-3.75zm-10 10a1.875 1.875 0 011.875-1.875h3.75a1.875 1.875 0 011.875 1.875v3.75a1.875 1.875 0 01-1.875 1.875h-3.75a1.875 1.875 0 01-1.875-1.875v-3.75zm10 0a1.875 1.875 0 011.875-1.875h3.75a1.875 1.875 0 011.875 1.875v3.75a1.875 1.875 0 01-1.875 1.875h-3.75a1.875 1.875 0 01-1.875-1.875v-3.75z" fill="#0E8194"/></svg>