<svg width="22" height="22" fill="none" xmlns="http://www.w3.org/2000/svg"><g clip-path="url(#clip0_136_2548)"><path d="M5.33 2.298a.884.884 0 00-1.325-.082l-1.348 1.35c-.63.631-.863 1.525-.587 2.309a22.92 22.92 0 005.436 8.619 22.916 22.916 0 008.62 5.436c.783.275 1.677.043 2.308-.587l1.349-1.349a.886.886 0 00-.082-1.323l-3.01-2.34a.884.884 0 00-.756-.16l-2.857.714a2.276 2.276 0 01-2.161-.599l-3.203-3.204a2.276 2.276 0 01-.6-2.162l.714-2.856a.884.884 0 00-.159-.757L5.33 2.298zM3.02 1.232a2.276 2.276 0 013.407.213l2.34 3.008c.43.552.58 1.27.411 1.948l-.713 2.857a.884.884 0 00.232.839l3.205 3.205a.885.885 0 00.84.232l2.855-.714a2.276 2.276 0 011.949.411l3.008 2.34a2.276 2.276 0 01.212 3.406l-1.348 1.348c-.966.966-2.408 1.39-3.753.916a24.304 24.304 0 01-9.144-5.765A24.305 24.305 0 01.756 6.334C.284 4.99.708 3.546 1.673 2.58l1.349-1.349H3.02z" fill="#fff"/></g><defs><clipPath id="clip0_136_2548"><path fill="#fff" transform="translate(.563 .565)" d="M0 0h20.87v20.87H0z"/></clipPath></defs></svg>