<svg width="26" height="26" fill="none" xmlns="http://www.w3.org/2000/svg"><g opacity=".5" fill-rule="evenodd" clip-rule="evenodd"><path d="M13 3.25a.812.812 0 01.813.813v8.125h8.124a.812.812 0 110 1.624h-8.125v8.126a.812.812 0 11-1.624 0v-8.125H4.062a.812.812 0 110-1.626h8.125V4.063A.812.812 0 0113 3.25z" fill="#000"/><path d="M13 3.25a.812.812 0 01.813.813v8.125h8.124a.812.812 0 110 1.624h-8.125v8.126a.812.812 0 11-1.624 0v-8.125H4.062a.812.812 0 110-1.626h8.125V4.063A.812.812 0 0113 3.25z" fill="#555756"/></g></svg>