<svg width="38" height="38" fill="none" xmlns="http://www.w3.org/2000/svg"><path fill-rule="evenodd" clip-rule="evenodd" d="M13.84 24.159a1.188 1.188 0 00-1.678 0l-9.728 9.728v-6.574a1.188 1.188 0 00-2.375 0v9.44a1.187 1.187 0 001.187 1.188h9.44a1.187 1.187 0 100-2.375H4.114l9.728-9.728a1.188 1.188 0 000-1.68zm10.318 0a1.188 1.188 0 011.679 0l9.728 9.728v-6.574a1.188 1.188 0 012.375 0v9.44a1.187 1.187 0 01-1.188 1.188h-9.44a1.188 1.188 0 010-2.375h6.574l-9.728-9.728a1.188 1.188 0 010-1.68zm0-10.317a1.188 1.188 0 001.679 0l9.728-9.728v6.574a1.188 1.188 0 002.375 0v-9.44A1.187 1.187 0 0036.752.06h-9.44a1.188 1.188 0 000 2.375h6.574l-9.728 9.728a1.188 1.188 0 000 1.679zm-10.317 0a1.188 1.188 0 01-1.68 0L2.435 4.114v6.574a1.188 1.188 0 01-2.375 0v-9.44A1.188 1.188 0 011.246.06h9.44a1.187 1.187 0 110 2.375H4.114l9.728 9.728a1.188 1.188 0 010 1.679z" fill="#fff"/></svg>