<svg width="35" height="35" fill="none" xmlns="http://www.w3.org/2000/svg"><path d="M33.04 7.776c-1.166.512-2.41.85-3.705 1.015a6.393 6.393 0 002.829-3.553 12.85 12.85 0 01-4.077 1.556 6.427 6.427 0 00-11.121 4.396c0 .51.043 1 .149 1.467C11.77 12.396 7.04 9.834 3.863 5.932a6.473 6.473 0 00-.88 3.25c0 2.226 1.147 4.2 2.856 5.342a6.349 6.349 0 01-2.905-.791v.07c0 3.124 2.229 5.72 5.151 6.317a6.416 6.416 0 01-1.686.212c-.411 0-.827-.024-1.217-.11.833 2.546 3.197 4.418 6.008 4.479a12.918 12.918 0 01-7.972 2.742c-.527 0-1.033-.024-1.538-.088a18.099 18.099 0 009.862 2.885c11.831 0 18.299-9.8 18.299-18.295 0-.284-.01-.559-.024-.83a12.826 12.826 0 003.223-3.339z" fill="#fff"/></svg>