<svg width="310" height="107" fill="none" xmlns="http://www.w3.org/2000/svg"><path d="M16.345 9.111c0-2.417.028-4.832-.016-7.25-.014-.782.238-1.012 1.01-1.001 4.422.057 8.843.096 13.265.07.955-.005 1.111.357 1.106 1.195-.033 4.648.014 9.3-.039 13.951-.01.97.266 1.216 1.219 1.208 4.651-.05 9.303.005 13.952-.044.966-.01 1.226.28 1.218 1.23a559.392 559.392 0 000 12.856c.014 1.005-.233 1.32-1.281 1.306-4.605-.06-9.21.005-13.815-.05-1.016-.01-1.309.242-1.295 1.28.06 4.604-.006 9.21.049 13.814.01 1.005-.224 1.32-1.276 1.309a513.51 513.51 0 00-12.993.035c-.926.014-1.128-.293-1.123-1.16.038-4.65-.022-9.3.047-13.952.016-1.128-.354-1.336-1.38-1.325-4.559.052-9.12-.006-13.678.046-1 .011-1.33-.219-1.314-1.273.063-4.285.063-8.572 0-12.857-.017-1.076.353-1.27 1.33-1.259 4.605.05 9.21-.005 13.815.044.942.01 1.254-.216 1.224-1.197-.074-2.321-.025-4.648-.022-6.976h-.003zm47.413 22.103c2.63 0 5.21.02 7.789-.014.673-.008.81.49 1.073.882 3.42 5.1 8.271 7.36 14.294 6.738 5.936-.61 10.256-3.798 12.788-9.221 1.531-3.275 1.457-3.308-2.14-3.308-6.432 0-12.863-.03-19.294.028-1.163.01-1.478-.331-1.399-1.448a30.442 30.442 0 000-4.239c-.071-1.06.307-1.286 1.309-1.28 6.978.04 13.957.021 20.936.021 1.664 0 1.692-.011 1.144-1.599-3.712-10.806-15.173-13.152-23.09-8.627-1.862 1.063-3.297 2.593-4.348 4.45-.389.684-.824.944-1.613.925-2.365-.052-4.733-.02-7.12-.02C67.396 4.748 76.438-.68 87.453.077c13.152.906 20.141 11.584 20.872 20.465 1.211 14.691-8.79 23.036-17.913 24.835-12.221 2.412-22.283-3.611-26.652-14.166l-.003.003zm200.833-8.07c0 6.886-.03 13.771.03 20.657.011 1.169-.337 1.47-1.448 1.399-1.498-.096-3.017-.129-4.509.008-1.295.118-1.46-.397-1.449-1.522.055-5.47-.008-10.943.052-16.416.011-1.128-.282-1.46-1.426-1.445-5.243.06-10.488.049-15.731.005-.948-.008-1.232.244-1.224 1.21.044 5.654-.003 11.307.044 16.96.008.975-.269 1.238-1.219 1.194a56.714 56.714 0 00-5.059 0c-.915.039-1.139-.265-1.128-1.147.044-4.284.019-8.572.019-12.86 0-9.666.019-19.334-.027-28.998-.006-1.122.257-1.511 1.412-1.435 1.591.102 3.193.083 4.786.006.958-.047 1.221.25 1.213 1.21-.047 5.196.005 10.396-.047 15.595-.011 1.032.206 1.38 1.323 1.366a627.788 627.788 0 0115.731 0c1.114.013 1.336-.332 1.328-1.37-.052-5.195 0-10.395-.047-15.594-.008-.963.255-1.25 1.213-1.207 1.637.08 3.286.093 4.923-.003 1.079-.063 1.267.345 1.262 1.323-.038 7.022-.022 14.045-.022 21.064zm-76.633 8.069c-4.112 9.902-13.807 16.645-26.546 14.192-9.582-1.845-18.441-10.444-18.118-23.107.282-11.066 8.005-20.235 18.789-21.96 11.524-1.842 22.141 3.973 25.612 14.16-2.625 0-5.196-.005-7.77.006-.517 0-.67-.403-.9-.726-4.093-5.746-9.747-7.898-16.736-6.365-5.742 1.26-10.382 6.157-11.39 12.449-1.037 6.488.792 12.087 6.245 16.038 5.125 3.715 10.697 4.046 16.402 1.314 2.314-1.109 4.14-2.831 5.443-5.04.46-.778.997-1.005 1.865-.983 2.324.06 4.648.019 7.104.019v.003zm-1.946 13.963c2.477-5.764 4.862-11.319 7.255-16.868 3.784-8.772 7.592-17.53 11.332-26.321.41-.967.895-1.292 1.905-1.23 1.407.088 2.828.083 4.238 0 .89-.051 1.268.318 1.596 1.087 5.98 14.015 11.976 28.025 18.004 42.02.452 1.049.416 1.396-.843 1.336-1.865-.09-3.74-.066-5.607 0-.78.028-1.109-.268-1.396-.95-1.662-3.94-3.387-7.852-5.043-11.794-.326-.778-.723-1.095-1.605-1.087-4.922.044-9.848.052-14.77-.006-.958-.01-1.328.364-1.67 1.178-1.64 3.898-3.365 7.761-5.005 11.66-.312.745-.684 1.016-1.498.994-2.231-.058-4.462-.02-6.893-.02zm22.469-33.861c-1.832 4.322-3.535 8.364-5.265 12.39-.353.822.2.69.638.69 3.003.006 6.007-.027 9.007.023 1.008.016 1.016-.307.674-1.093-1.136-2.623-2.223-5.27-3.327-7.907-.536-1.28-1.078-2.562-1.727-4.1v-.003zm101.517 33.858c-2.442 0-4.81-.03-7.178.019-.767.016-.879-.496-1.09-.983-1.681-3.885-3.384-7.762-5.016-11.666-.345-.821-.717-1.19-1.673-1.18-4.925.055-9.853.05-14.781.003-.884-.008-1.284.323-1.607 1.092-1.64 3.902-3.351 7.776-4.986 11.68-.328.786-.733 1.087-1.607 1.06-2.184-.07-4.375-.023-6.551-.023-.186-.615.175-1.029.367-1.47 5.974-13.88 11.967-27.753 17.913-41.644.427-1.002.925-1.383 2.01-1.306 1.453.104 2.918.046 4.377.016.611-.014.991.137 1.254.753 6.127 14.36 12.274 28.711 18.415 43.066.068.158.09.336.156.588l-.003-.005zm-22.28-33.875c-1.903 4.482-3.704 8.725-5.525 13.007h10.976a34224.89 34224.89 0 00-5.451-13.007z" fill="#fff"/><path d="M119.274 21.064c1.999-2.524 4.003-5.045 5.999-7.572 3.11-3.935 6.228-7.863 9.305-11.822.493-.635.991-.928 1.815-.912 2.547.052 5.093.02 7.658.02.025.604-.402.867-.668 1.198a4124.326 4124.326 0 01-15.397 19.04c-.614.75-.682 1.226-.055 2.036 5.366 6.916 10.68 13.873 16.008 20.818.271.353.526.718.955 1.3h-8.736c-.621 0-.802-.541-1.092-.916-5-6.45-9.988-12.91-14.982-19.365-.268-.348-.561-.676-1.067-1.287v1.602c0 6.204-.036 12.405.03 18.609.013 1.182-.34 1.453-1.443 1.385-1.591-.096-3.198-.115-4.786.006-1.196.09-1.18-.518-1.177-1.38.016-12.909.011-25.815.011-38.724 0-1.095.057-2.193-.016-3.282-.061-.88.287-1.082 1.097-1.057 1.733.052 3.469.074 5.199-.006.953-.043 1.107.332 1.104 1.172-.03 6.335-.017 12.67-.017 19.006.088.044.176.09.26.134l-.005-.003zm-11.912 52.459c.432-.132.859-.28 1.297-.389 1.336-.334 2.442.397 2.796 1.73.12.455-.115.573-.378.737-1.008.619-1.999 1.262-3.034 1.829-1.448.796-2.467 1.848-2.469 3.616 0 .181.033.406-.055.537-1.966 2.921-.726 6.516-2.067 9.612-.794 1.835-1.454 3.76-2.081 5.665-.484 1.47-1.215 2.825-1.889 4.153-1.054 2.078-1.99 4.299-4.796 5.068-2.966.813-7.091-1.528-6.607-5.585.384-3.209 1.109-6.305 2.226-9.246 1.59-4.194 4.326-7.69 7.685-10.748 1.322-1.205 2.842-2.322 3.841-3.8.854-1.263.802-2.946 1.041-4.463.131-.838.024-1.711.024-2.653-1.218.638-2.034 1.53-2.943 2.459-1.054 1.073-1.476 2.702-2.984 3.383-.723.329-1.008 1.194-1.186 1.93-.372 1.534-1.341 2.382-2.825 2.577-1.613.21-3.22.194-4.315-1.35-.104-.148-.219-.29-.342-.454-2.078 2.14-4.531 3.824-6.453 6.124-1.906 2.278-6.445 1.566-7.978-1-.51-.85-.843-1.773-1.333-2.627-.154-.269-.367-.68-.269-.89 1.106-2.374-.58-4.68-.12-7.056.24-1.25.728-2.436 1.103-3.605.926-2.883 2.117-5.76 5.095-7.296.808-.417 1.725-.608 2.516-.35 1.542.5 3.17.84 4.537 1.787 1.796 1.245 2.226 2.943 1.248 4.89-.618 1.237-1.478 2.305-2.508 3.22a83.021 83.021 0 01-3.45 2.901c-.382.307-.864.666-1.31.68-1.643.057-1.903 1.133-1.936 2.406-.03 1.09-.08 2.176.159 3.269.224 1.02.69 1.139 1.55.695 2.252-1.16 4.065-2.905 6.025-4.457.57-.449 1.06-1.019 1.865-1.043.78-.025.479-.619.498-1.013.26-5.462 2.3-9.848 7.356-12.515 1.816-.958 3.636-1.13 5.544-.544 1.367.421 2.503 1.139 2.711 2.902.824-.562 1.596-.983 2.54-.945 2.018.085 2.837.884 2.738 2.902-.112 2.286-.854 4.457-1.311 6.683-.03.08-.063.156-.096.233.115.014.23.025.345.038l-.005.003zm-6.547 10.417c-1.804 2.494-4.04 4.575-5.486 7.294-1.56 2.94-2.319 6.086-2.87 9.314-.098.569-.117 1.336.433 1.629.52.279.937-.34 1.386-.638 2.644-1.772 2.948-5.016 4.678-7.357.069-.093.096-.312.036-.391-.61-.816-.047-1.509.298-2.141 1.315-2.41 1.208-5.095 1.525-7.707v-.003zm1.123-18.168c-.83.044-1.407-.361-2.007-.668-.621-.315-1.194-.361-1.801.011-2.034 1.249-3.83 2.735-5.216 4.717-1.281 1.835-.854 3.902-1.087 5.898 3.516-3.215 7.192-6.166 10.111-9.96v.002zM78.24 70.574c2.954-1.308 3.923-2.568 3.277-4.353-1.287 1.314-2.527 2.563-3.277 4.353zm-32.568-6.881c-.47.395-.273.931-.293 1.405-.12 2.77.08 5.541-.21 8.326-.19 1.798.2 3.663.356 5.489.14 1.645.128 3.239-.137 4.851-.239 1.44-1.295 2.363-2.262 3.275-.602.572-1.328.104-1.774-.46-.983-1.24-1.623-2.645-1.599-4.263.017-1.194-.033-2.377-.342-3.526-.619-2.3-.189-4.622-.17-6.933.017-2.157.173-4.312.271-6.466.008-.18 0-.38.072-.537 1.144-2.532.353-5.292.95-7.896.282-1.234.63-2.562.44-3.77-.18-1.166-.016-2.08.444-3.099.646-1.42 2.215-2.31 3.72-1.998.86.178 1.298.698 1.586 1.5 1.223 3.42 1.935 7.003 3.37 10.357.298.695.389 1.478.6 2.324.793-.314.99-1.056 1.259-1.664 1.24-2.806 2.85-5.4 4.602-7.899.94-1.339 2.007-2.587 3.042-3.857 1.133-1.391 2.453-1.484 4.487-.852 1.884.586 2.636 1.714 2.67 3.581.005.312.109.504.314.704.192.186.49.416.488.621-.044 3.012 1.218 6.01.087 9.038-.17.454-.252 1.007-.17 1.478.39 2.254-.158 4.57.173 6.719.235 1.541.213 3.115.526 4.643.323 1.577.528 3.121-.537 4.564-.389.528-.545 1.186.34 1.55.684.282.695.925.651 1.516-.162 2.19-.025 4.373.03 6.56.038 1.536-.955 2.738-2.012 3.73-.608.569-1.39.188-1.93-.403-.406-.447-.619-1.005-.737-1.597a348.31 348.31 0 01-.87-4.544c-.26-1.402.353-2.905.293-4.397-.03-.78.022-1.481-.584-2.138-.503-.548-.484-1.224.203-1.777.501-.403.912-.835-.107-1.238-.47-.186-.427-1.04-.14-1.147.942-.35.455-.922.335-1.399-.477-1.859-.83-3.699-.608-5.659.167-1.484-.143-2.998-.419-4.479-.572-3.058 0-6.204-.712-9.254-.057-.249.104-.602-.18-.736-.387-.184-.556.224-.753.435-1.646 1.774-2.71 3.953-3.223 6.215-.657 2.897-1.799 5.626-2.521 8.493-.523 2.075-3.094 2.527-4.94 1.117-1.708-1.306-2.433-3.247-3.285-5.11-.219-.478-.235-1.086-.788-1.395l-.006.002zm166.439 4.551c-2.127 2.883-4.279 5.746-6.368 8.657-.482.67-.988.999-1.804.887-.536-.071-1.12-.222-1.618-.09-2.886.755-4.69-.545-6.149-2.894-.857-1.38-2.004-2.58-3.305-4.217 0 2.215-.093 4.052.031 5.873.087 1.287-.507 1.352-1.514 1.352-1.005 0-1.542-.06-1.512-1.344a257.38 257.38 0 000-12.175c-.03-1.29.592-1.265 1.484-1.235.819.028 1.637-.197 1.542 1.18-.126 1.805-.031 3.625-.031 5.873 1.441-1.807 2.788-3.217 3.798-4.835 1.229-1.966 2.787-2.716 5.174-2.004-1.076 1.36-2.168 2.724-3.244 4.101-.726.931-1.982 1.878-1.988 2.823-.005.939 1.24 1.897 1.966 2.828 1.161 1.49 2.341 2.965 3.551 4.495.411-.555.263-1.02.266-1.453.013-3.967.06-7.937-.022-11.904-.028-1.287.706-1.104 1.473-1.098.75.005 1.53-.23 1.486 1.079-.093 2.767-.027 5.54-.027 8.328.643-.02.753-.487.977-.788 1.936-2.596 3.85-5.205 5.774-7.806.512-.693 2.188-1.103 2.93-.772.399.18.325.506.325.808.006 4.334-.005 8.665.014 12.999.003.635-.186.854-.846.887-2.122.106-2.119.137-2.119-1.917V68.36l-.249-.115h.005zm84.554 8.388c0 1.733-.054 3.403.017 5.067.055 1.317-.865.893-1.484.898-.632.006-1.503.386-1.495-.911.041-5.879.025-11.757.008-17.635 0-.657.124-1.09.89-.98.857.12 2.185-.6 2.059 1.213 4.43-2.275 8.202-1.862 10.713 1.122 2.349 2.79 2.489 6.913.329 9.739-2.448 3.2-6.089 3.72-11.037 1.49v-.004zm-.06-6.199c-.03 2.872 1.884 4.882 4.679 4.912 2.867.03 4.961-1.988 4.983-4.805.022-2.847-2.012-4.991-4.786-5.049-2.743-.054-4.843 2.073-4.876 4.94v.002zm-28.556 1.911c-1.119 4.216-4.977 6.543-9.174 5.601-3.945-.884-6.445-4.851-5.673-8.999.759-4.068 4.57-6.754 8.676-6.116 3.885.605 6.703 4.23 6.382 8.112-.074.909-.627.723-1.136.723-3.283.008-6.568.057-9.851-.022-1.355-.033-1.185.504-.744 1.339 1.464 2.773 5.798 3.353 7.616.758 1.112-1.585 2.314-1.555 3.902-1.399l.002.003zm-7.392-3.422c1.137 0 2.275-.02 3.412.005.709.016 1.045-.09.649-.912-.71-1.47-2.38-2.581-4.069-2.518-1.82.068-3.206.903-4.085 2.521-.325.6-.227.925.545.906 1.183-.027 2.366-.008 3.548-.005v.002zm-106.596-.659c-2.108 2.858-4.287 5.664-6.288 8.597-.86 1.262-1.955.856-3.023.892-.46.014-.372-.438-.372-.736-.006-4.375-.006-8.748-.003-13.123 0-1.44 1.101-.676 1.714-.804.649-.137 1.235-.105 1.207.908-.063 2.369-.019 4.74-.019 7.108v1.341c.594.06.69-.372.887-.638 1.958-2.63 3.959-5.232 5.821-7.928.837-1.213 1.913-.745 2.94-.759.435-.005.361.452.361.753.006 4.375-.005 8.747.014 13.122 0 .597-.224.753-.797.794-2.173.156-2.171.181-2.171-1.995v-7.47l-.268-.07-.003.008zm-25.173 2.111c0-2.007.082-4.016-.031-6.018-.065-1.183.422-1.377 1.416-1.308.857.06 1.667-.19 1.612 1.253-.123 3.14.02 6.292-.068 9.438-.03 1.133.359 1.377 1.383 1.314a32.442 32.442 0 013.964 0c.986.063 1.333-.178 1.306-1.249-.082-3.099.046-6.204-.066-9.3-.046-1.276.389-1.457 1.528-1.49 1.27-.035 1.503.409 1.473 1.561-.08 3.053.011 6.111-.05 9.164-.019.969.165 1.486 1.249 1.295.772-.137 1.038.205 1.007.985a58.147 58.147 0 000 4.238c.025.742-.167 1.032-.977 1.04-1.99.02-2.078.058-1.96-1.913.079-1.314-.282-1.698-1.624-1.645-3.006.112-6.017.002-9.026.054-.885.017-1.186-.219-1.156-1.133.066-2.095.022-4.194.022-6.292l-.002.006zm109.234-.031c0-2.097.057-4.197-.019-6.292-.05-1.393.908-.936 1.576-.971.679-.036 1.457-.274 1.427.982-.077 3.28.005 6.566-.047 9.848-.013.885.222 1.188 1.131 1.145 1.5-.074 3.012-.063 4.512-.003.797.033.991-.247.983-1.008-.039-3.282.046-6.568-.049-9.847-.036-1.24.616-1.167 1.423-1.134.78.03 1.626-.263 1.585 1.133-.093 3.234 0 6.475-.049 9.712-.014.881.225 1.28 1.134 1.127.939-.158 1.155.293 1.119 1.156-.06 1.41-.041 2.828-.005 4.238.016.651-.214.843-.863.87-2.102.096-2.187.121-2.072-2.07.066-1.25-.34-1.51-1.517-1.478-3.006.088-6.02-.019-9.026.055-1.06.028-1.304-.312-1.268-1.309.077-2.047.022-4.103.022-6.154h.003zM117.099 72.68c2.103-2.845 4.285-5.637 6.267-8.564.835-1.232 1.867-1.046 2.976-1.035.517.005.523.397.523.778 0 4.375-.009 8.75.008 13.122 0 .578-.197.77-.783.813-2.163.167-2.163.192-2.163-1.999v-7.819c-.517.654-.851 1.049-1.158 1.462-1.733 2.344-3.543 4.638-5.15 7.064-.794 1.196-1.744 1.39-2.987 1.29-.534-.045-.706-.239-.706-.748.008-4.419.008-8.84 0-13.26 0-1.02.764-.632 1.278-.722 1.268-.222 1.739.197 1.676 1.58-.126 2.633-.036 5.278-.036 7.917l.255.115v.006zm109.985-4.443c-2.097 2.85-4.189 5.705-6.302 8.544-.334.447-.564.978-1.326 1.024-2.099.126-2.11.162-2.11-1.95 0-3.83.065-7.662-.036-11.492-.036-1.337.597-1.328 1.561-1.317.906.01 1.516-.017 1.462 1.256-.115 2.76-.036 5.528-.036 8.69 2.376-3.222 4.523-6.135 6.675-9.043.317-.43.583-.857 1.259-.9 2.007-.137 2.037-.146 2.037 1.902 0 3.877-.066 7.756.036 11.63.032 1.314-.625 1.21-1.495 1.219-.893.01-1.525.052-1.473-1.232.112-2.724.035-5.46.035-8.19-.095-.046-.191-.095-.287-.141zm-55.327 2.252c0 2.094-.063 4.194.022 6.286.057 1.377-.868.983-1.55.994-.646.008-1.514.345-1.429-.945.093-1.407-.014-2.822.035-4.235.025-.715-.205-.953-.925-.934-1.593.044-3.19.052-4.783-.002-.777-.028-.895.312-.879.971.039 1.41-.057 2.829.033 4.236.069 1.046-.567 1.026-1.188.898-.643-.134-1.793.67-1.788-.86.008-4.325.014-8.654-.008-12.98-.003-.67.265-.83.887-.862 2.078-.11 2.078-.134 2.078 1.963 0 .865.055 1.736-.014 2.595-.076.95.126 1.41 1.238 1.32 1.401-.112 2.825-.088 4.232-.005.945.054 1.161-.318 1.12-1.172-.06-1.273.03-2.552-.027-3.825-.058-1.227.824-.862 1.402-.835.602.027 1.574-.482 1.555.838-.031 2.184-.009 4.372-.009 6.56l-.002-.006zm98.067-.088c0-2.053.096-4.11-.032-6.155-.085-1.357.684-1.169 1.519-1.193.917-.03 1.602-.006 1.47 1.26-.117 1.127.014 2.277-.038 3.416-.038.84.172 1.246 1.125 1.194a42.973 42.973 0 014.241 0c.882.038 1.229-.239 1.185-1.148-.06-1.273.017-2.554-.021-3.83-.041-1.322.933-.824 1.538-.854.594-.03 1.407-.353 1.396.857-.043 4.331-.03 8.665-.005 12.996.003.66-.222.83-.862.855-2.062.079-2.051.11-2.067-1.994-.011-1.317.44-3.069-.225-3.835-.772-.887-2.571-.26-3.923-.288-2.371-.049-2.374-.013-2.374 2.336v2.053c0 1.541-1.174 2.294-2.606 1.69-.493-.209-.312-.609-.315-.929-.019-2.144-.011-4.287-.011-6.431h.005zm-81.308 2.39c-1.651 3.784-4.194 5.47-7.811 5.312-3.356-.148-5.987-2.081-7.017-5.153-1.309-3.91.674-8.222 4.452-9.678 3.918-1.511 8.213.197 9.949 3.877.474 1.002.274 1.224-.778 1.188-1.1-.036-1.965-.05-2.751-1.183-1.443-2.08-4.764-2.195-6.713-.487-2.062 1.804-2.221 5.092-.342 7.118 1.837 1.982 5.185 2.286 6.806.255 1.24-1.553 2.576-1.276 4.205-1.246v-.003zm98.023-1.051c0-1.637-.038-3.277.017-4.914.024-.783-.241-1.084-1.008-.989-.268.033-.545.006-.818.006-1.69 0-2.152-.649-1.733-2.3.131-.52.47-.474.824-.474 2.776-.005 5.552.025 8.328-.016 1.109-.016.846.753.799 1.311-.046.556.488 1.504-.755 1.479h-.137c-1.719.091-2.579.99-2.579 2.694 0 2.686-.088 5.374.038 8.052.06 1.325-.627 1.243-1.489 1.207-.775-.033-1.643.271-1.52-1.142.143-1.626.033-3.274.033-4.911v-.003zm-62.654-9.279c-2.193.02-3.841-1.212-4.329-3.2-.158-.649-.131-1.054.709-.98.844.074 1.673-.241 2.161.99.454 1.145 2.381.899 2.995-.26.312-.585 2.201-1.045 2.644-.634.247.23.072.498.02.747-.425 2.037-2.043 3.318-4.203 3.337h.003z" fill="#fff"/></svg>