<svg width="170" height="43" fill="none" xmlns="http://www.w3.org/2000/svg"><g clip-path="url(#clip0_307_1607)"><path d="M0 5.728h32.15L14.52 42.025H2.126L15.504 16.36H0V5.728z" fill="#18BDB9"/><path d="M40.797.024H7.187v5.704H32.15L16.49 37.97h5.877L40.797.024z" fill="#7E78D2"/><path d="M32.15 5.728H7.188v5.41h16.21L9.41 37.97h7.08L32.15 5.728z" fill="#2F6AE0"/><path d="M53.802 33.51L45.84 12.663h5.436l5.31 14.891 5.34-14.891h5.47L59.434 33.51h-5.632zm16.249 0V22.02h-2.267l.453-3.854h7.026v15.346H70.05zm-.42-17.771v-3.905h5.662v3.905H69.63zm17.186 18.093c-2.677 0-4.824-.664-6.442-1.992-1.618-1.327-2.427-3.33-2.427-6.006 0-2.437.669-4.379 2.006-5.824 1.338-1.446 3.345-2.169 6.022-2.169 2.437 0 4.325.626 5.665 1.877 1.34 1.252 2.008 2.935 2.006 5.05v2.75H82.771a2.917 2.917 0 001.667 2.12c.875.401 2.068.602 3.578.602a15.166 15.166 0 002.57-.226 10.68 10.68 0 002.187-.58v3.395a9.728 9.728 0 01-2.622.76 21.2 21.2 0 01-3.334.243zm-4.046-9.311h6.344v-.69a2.404 2.404 0 00-.679-1.803c-.452-.44-1.22-.662-2.3-.664-1.25 0-2.123.255-2.62.763-.498.51-.745 1.3-.745 2.385v.009zm19.842 9.311c-1.899 0-3.3-.486-4.205-1.457-.905-.971-1.353-2.308-1.343-4.012v-6.248h-2.072v-3.95h2.072v-3.201l5.211-1.394v4.596h3.749l-.226 3.95h-3.511v5.889c0 .736.183 1.247.55 1.538.486.326 1.068.48 1.652.438a6.007 6.007 0 001.91-.324v3.53a9.743 9.743 0 01-3.787.645zm5.794-.322V18.166h4.853l.163 1.328c.734-.484 1.529-.87 2.363-1.147a9.037 9.037 0 013.043-.502c1.986 0 3.432.475 4.337 1.424.905.949 1.358 2.417 1.358 4.403v9.84h-5.211v-9.42c0-.865-.184-1.477-.55-1.847-.367-.37-1.024-.55-1.973-.55a4.203 4.203 0 00-1.715.388 4.764 4.764 0 00-1.457.973v10.456h-5.211zm23.562.322a6.957 6.957 0 01-2.703-.517 4.398 4.398 0 01-1.991-1.604 4.66 4.66 0 01-.745-2.703c0-1.576.535-2.811 1.604-3.706s2.671-1.343 4.806-1.343h4.274v-.354c0-.778-.262-1.334-.778-1.667-.517-.334-1.502-.502-2.914-.502-1.746 0-3.482.273-5.145.808V18.88a14.002 14.002 0 012.766-.745 19.534 19.534 0 013.448-.3c2.373 0 4.234.486 5.584 1.457 1.35.97 2.023 2.514 2.021 4.628v9.581h-4.562l-.261-1.297a5.614 5.614 0 01-2.151 1.201 10.84 10.84 0 01-3.253.427zm1.649-3.196a5.027 5.027 0 002.139-.42 4.22 4.22 0 001.457-1.082v-2.162h-3.692c-1.532 0-2.297.614-2.297 1.844a1.628 1.628 0 00.582 1.328c.389.328.992.492 1.811.492zm11.717 2.874V18.165h4.824l.162 1.36a9.516 9.516 0 012.331-1.2 8.101 8.101 0 012.784-.469 5.203 5.203 0 012.427.465 3.365 3.365 0 011.357 1.31 10.12 10.12 0 012.403-1.276 8.973 8.973 0 013.157-.502c1.79 0 3.106.463 3.949 1.39.843.928 1.267 2.338 1.271 4.233V33.51h-5.145v-9.419c0-.844-.18-1.453-.535-1.829-.354-.375-.934-.567-1.733-.567-.501-.001-.997.1-1.456.3-.46.193-.87.486-1.202.859.041.224.067.45.078.679 0 .216.018.474.018.778v9.193h-4.85v-9.476a3.096 3.096 0 00-.403-1.748c-.27-.388-.783-.582-1.538-.582a2.95 2.95 0 00-1.523.42 7.45 7.45 0 00-1.294.97v10.425l-5.082-.003z" fill="#fff"/></g><defs><clipPath id="clip0_307_1607"><path fill="#fff" d="M0 0h170v42.05H0z"/></clipPath></defs></svg>