<svg width="184" height="46" fill="none" xmlns="http://www.w3.org/2000/svg"><g clip-path="url(#clip0_307_1569)"><path d="M0 6.2h34.797L15.715 45.485H2.302l14.48-27.778H0V6.199z" fill="#18BDB9"/><path d="M44.157.026H7.779v6.173h27.018l-16.95 34.899h6.362L44.157.026z" fill="#7E78D2"/><path d="M34.797 6.2H7.78v5.854h17.545l-15.14 29.044h7.662l16.95-34.899z" fill="#2F6AE0"/><path d="M58.233 36.27l-8.618-22.564h5.884l5.747 16.118 5.78-16.118h5.92L64.328 36.27h-6.095zm17.587 0V23.832h-2.454l.49-4.17h7.604V36.27h-5.64zm-.455-19.235v-4.226h6.128v4.226h-6.128zm18.602 19.583c-2.898 0-5.222-.718-6.974-2.155-1.75-1.437-2.626-3.605-2.626-6.502 0-2.638.724-4.739 2.171-6.304 1.448-1.564 3.62-2.347 6.518-2.347 2.638 0 4.682.678 6.132 2.032 1.449 1.355 2.173 3.176 2.171 5.465v2.978H89.588a3.156 3.156 0 001.804 2.295c.947.433 2.238.65 3.872.65a16.397 16.397 0 002.782-.244 11.549 11.549 0 002.367-.627v3.673c-.903.406-1.858.683-2.838.823-1.194.182-2.4.27-3.608.263zm-4.38-10.078h6.867v-.747a2.601 2.601 0 00-.735-1.951c-.49-.477-1.32-.716-2.49-.718-1.353 0-2.298.275-2.835.825-.54.553-.806 1.408-.806 2.581v.01zm21.476 10.078c-2.054 0-3.571-.526-4.551-1.577-.979-1.05-1.464-2.499-1.453-4.343v-6.762h-2.243v-4.275h2.243v-3.465l5.64-1.509v4.974h4.057l-.243 4.275h-3.801v6.375c0 .797.199 1.35.595 1.665.527.353 1.156.52 1.788.474a6.503 6.503 0 002.068-.35v3.819c-1.307.503-2.7.74-4.1.699zm6.271-.348V19.661h5.253l.176 1.437a10.912 10.912 0 012.558-1.241 9.778 9.778 0 013.294-.543c2.149 0 3.714.513 4.694 1.54.979 1.028 1.469 2.616 1.469 4.766v10.65h-5.64V26.075c0-.936-.198-1.599-.595-1.999-.397-.4-1.109-.595-2.136-.595a4.55 4.55 0 00-1.856.42 5.168 5.168 0 00-1.577 1.053V36.27h-5.64zm25.504.348a7.528 7.528 0 01-2.926-.56 4.765 4.765 0 01-2.156-1.735 5.049 5.049 0 01-.806-2.926c0-1.706.579-3.043 1.736-4.012 1.157-.968 2.891-1.453 5.202-1.453h4.626v-.383c0-.842-.283-1.444-.842-1.805-.56-.36-1.626-.542-3.154-.542-1.89 0-3.769.295-5.569.874v-3.64a15.082 15.082 0 012.995-.807 21.123 21.123 0 013.732-.325c2.568 0 4.582.525 6.043 1.576 1.461 1.052 2.19 2.721 2.188 5.01v10.37h-4.938l-.283-1.404a6.074 6.074 0 01-2.328 1.3 11.7 11.7 0 01-3.52.462zm1.784-3.459a5.436 5.436 0 002.315-.455 4.564 4.564 0 001.577-1.17v-2.341h-3.996c-1.658 0-2.487.665-2.487 1.996a1.78 1.78 0 00.631 1.437c.42.355 1.074.533 1.96.533zm12.682 3.111V19.661h5.221l.175 1.473a10.303 10.303 0 012.523-1.3 8.776 8.776 0 013.013-.508 5.626 5.626 0 012.627.504 3.65 3.65 0 011.47 1.418c.8-.576 1.675-1.04 2.6-1.382a9.713 9.713 0 013.417-.543c1.937 0 3.362.502 4.275 1.505.912 1.004 1.371 2.53 1.375 4.58V36.27h-5.569V26.075c0-.913-.195-1.573-.578-1.98-.384-.406-1.011-.614-1.876-.614a3.96 3.96 0 00-1.577.325c-.497.21-.942.527-1.3.93.044.243.072.488.084.735 0 .234.02.513.02.842v9.95h-5.25V26.008a3.355 3.355 0 00-.436-1.892c-.293-.42-.847-.63-1.664-.63a3.191 3.191 0 00-1.649.454c-.504.299-.973.65-1.401 1.05v11.284l-5.5-.003z" fill="#051026"/></g><defs><clipPath id="clip0_307_1569"><path fill="#fff" d="M0 0h184v45.512H0z"/></clipPath></defs></svg>