<svg width="16" height="16" fill="none" xmlns="http://www.w3.org/2000/svg"><g filter="url(#filter0_b_1_449)"><path d="M9.623 2.939l1.144 2.306c.156.321.572.63.923.688l2.073.348c1.326.223 1.638 1.192.682 2.15l-1.611 1.624c-.273.276-.423.806-.338 1.186l.461 2.012c.364 1.592-.474 2.208-1.872 1.376l-1.943-1.16c-.35-.21-.93-.21-1.287 0l-1.943 1.16c-1.391.832-2.236.21-1.872-1.376l.462-2.012c.084-.38-.065-.91-.338-1.186L2.552 8.43c-.95-.957-.644-1.926.682-2.15l2.073-.347c.345-.059.76-.367.917-.688L7.368 2.94c.624-1.252 1.638-1.252 2.255 0z" fill="#fff" fill-opacity=".1"/><path d="M9.623 2.939l1.144 2.306c.156.321.572.63.923.688l2.073.348c1.326.223 1.638 1.192.682 2.15l-1.611 1.624c-.273.276-.423.806-.338 1.186l.461 2.012c.364 1.592-.474 2.208-1.872 1.376l-1.943-1.16c-.35-.21-.93-.21-1.287 0l-1.943 1.16c-1.391.832-2.236.21-1.872-1.376l.462-2.012c.084-.38-.065-.91-.338-1.186L2.552 8.43c-.95-.957-.644-1.926.682-2.15l2.073-.347c.345-.059.76-.367.917-.688L7.368 2.94c.624-1.252 1.638-1.252 2.255 0z" stroke="#fff" stroke-linecap="round" stroke-linejoin="round"/></g><defs><filter id="filter0_b_1_449" x="-98.501" y="-98.5" width="214.002" height="214.001" filterUnits="userSpaceOnUse" color-interpolation-filters="sRGB"><feFlood flood-opacity="0" result="BackgroundImageFix"/><feGaussianBlur in="BackgroundImageFix" stdDeviation="50"/><feComposite in2="SourceAlpha" operator="in" result="effect1_backgroundBlur_1_449"/><feBlend in="SourceGraphic" in2="effect1_backgroundBlur_1_449" result="shape"/></filter></defs></svg>