<svg width="391" height="352" fill="none" xmlns="http://www.w3.org/2000/svg"><path fill-rule="evenodd" clip-rule="evenodd" d="M281.892 101.438l38.847 154.137c5.013 18.797 23.81 30.076 43.861 26.316 18.797-5.013 30.075-23.81 25.063-43.86L350.815 83.893c-5.013-18.797-23.81-30.075-43.86-25.063-18.798 3.76-30.076 23.81-25.063 42.608zM67.602 45.046l71.43 279.452c5.013 18.797 23.81 30.076 43.861 26.316 18.797-5.012 30.075-23.81 26.316-43.86l-71.43-279.452c-5.012-18.798-23.81-30.076-43.86-26.316-20.05 5.012-31.329 25.063-26.316 43.86zM1.187 170.36c-5.013-18.797 6.266-38.848 26.316-43.86 18.797-5.013 38.848 6.265 43.86 26.316l38.848 154.137c5.013 18.797-6.266 38.848-26.316 43.86-18.797 5.013-38.848-6.266-43.86-26.316L1.185 170.361zM166.602 45.046c-5.013-18.797 6.265-38.848 26.316-43.86 18.797-5.013 38.848 6.265 43.86 26.316l71.43 279.452c5.013 18.797-6.266 38.848-26.316 43.86-18.798 5.013-38.848-6.266-43.861-26.316L166.602 45.046z" fill="#EBEDF0"/></svg>