<svg width="505" height="559" fill="none" xmlns="http://www.w3.org/2000/svg"><path fill-rule="evenodd" clip-rule="evenodd" d="M419.81 332.549L253 469.231c-20.196 17.021-23.863 47.476-8.558 71.061 16.16 21.271 45.074 25.134 66.795 7.407l166.81-136.683c20.195-17.021 23.863-47.475 7.032-70.354-14.635-21.978-45.074-25.134-65.269-8.113zM373.768 26.054L71.875 275.141c-20.196 17.021-23.863 47.475-8.558 71.06 16.16 21.272 45.074 25.135 67.465 9.014l301.894-249.087c20.195-17.02 23.863-47.475 8.557-71.06-16.83-22.878-47.269-26.035-67.465-9.014zM185.706 11.546c20.196-17.021 50.634-13.864 67.465 9.014 16.16 21.272 13.163 53.333-8.558 71.06L77.803 228.303c-20.195 17.021-50.634 13.864-67.465-9.014-16.16-21.272-13.163-53.333 8.558-71.061l166.81-136.682zm241.041 141.421c20.196-17.021 50.634-13.865 67.465 9.013 16.16 21.272 13.163 53.333-8.557 71.06L183.761 482.127c-20.196 17.021-50.635 13.864-67.465-9.014-16.16-21.272-13.163-53.333 8.557-71.06l301.894-249.086z" fill="#EBEDF0" fill-opacity=".08"/></svg>