<svg width="409" height="432" fill="none" xmlns="http://www.w3.org/2000/svg"><path fill-rule="evenodd" clip-rule="evenodd" d="M291.696 270.383l-122.579 74.81c-14.875 9.36-19.57 28.599-10.955 44.891 9.361 14.875 28.6 19.57 44.556 9.874l122.579-74.809c14.875-9.361 19.57-28.6 9.874-44.556-8.28-15.211-28.6-19.57-43.475-10.21zm-8.753-199.99L60.973 206.885c-14.874 9.36-19.57 28.599-10.954 44.891 9.36 14.875 28.6 19.57 44.891 10.955L316.88 126.24c14.875-9.361 19.57-28.6 10.955-44.892-9.696-15.956-30.016-20.315-44.891-10.955zM157.031 46.662c14.875-9.36 35.196-5.001 44.892 10.955 9.36 14.875 5.001 35.195-10.955 44.891l-122.579 74.81c-14.875 9.36-35.195 5.001-44.891-10.956-9.36-14.874-5.001-35.195 10.955-44.891l122.578-74.81zm152.433 109.145c14.875-9.36 35.195-5.001 44.891 10.955 9.361 14.875 5.002 35.195-10.955 44.892L121.432 348.145c-14.875 9.36-35.196 5.001-44.892-10.955-9.36-14.875-5.001-35.195 10.955-44.892l221.969-136.491z" fill="#EBEDF0"/></svg>