<svg width="108" height="32" fill="none" xmlns="http://www.w3.org/2000/svg"><g id="Group 1000005926" fill-rule="evenodd" clip-rule="evenodd"><path id="Vector" d="M2.256 6.608c.264.489 1.543.978 1.806 1.354.263.376.226 1.204 0 1.806-.226.602-.677 1.241-1.129 1.392-.451.15-1.73-.264-2.257-.076-.79.377-.978 2.71-.075 3.424.527.226 1.806-.113 2.257.038.452.15.865.865 1.054 1.467.188.602.188 1.43-.113 1.805-.301.377-1.543.79-1.844 1.28-.376.94.94 2.821 1.919 2.821.527-.113 1.392-1.166 1.843-1.28.452-.112 1.129.151 1.618.49.188.15.414.226.64.226.564 0 1.015-.452 1.015-1.016 0-.339-.188-.64-.414-.828-1.88-1.467-3.122-3.8-3.122-6.357a8.076 8.076 0 018.088-8.089 8.076 8.076 0 018.089 8.088 7.964 7.964 0 01-3.537 6.66c-.225.187-.338.45-.338.79 0 .564.451 1.053 1.053 1.053a.864.864 0 00.527-.15c.527-.34 1.279-.603 1.693-.452.451.15 1.241 1.241 1.768 1.392 1.09-.076 2.408-1.994 2.107-2.709-.264-.489-1.543-.978-1.806-1.354-.264-.377-.226-1.204 0-1.806.226-.602.677-1.242 1.128-1.392.452-.15 1.731.263 2.258.075.865-.677.752-3.047.075-3.423-.527-.226-1.806.113-2.257-.038-.452-.15-.866-.865-1.054-1.467-.188-.602-.188-1.43.113-1.806.301-.376 1.543-.79 1.844-1.279.413-1.128-1.204-2.784-1.769-2.821-.075 0-.112 0-.15.037-.527.113-1.392 1.167-1.844 1.28-.45.15-1.203-.189-1.73-.565-.489-.376-.978-1.053-.978-1.505 0-.489.79-1.58.752-2.106C19.223.55 17.08-.24 16.251.437c-.376.415-.452 1.77-.715 2.145-.3.376-1.09.565-1.693.565-.64-.038-1.392-.264-1.693-.64-.263-.376-.263-1.73-.64-2.182-.639-.677-2.896-.075-3.272.978-.075.565.677 1.693.64 2.145 0 .489-.527 1.09-1.054 1.467-.527.338-1.279.602-1.73.451-.452-.15-1.242-1.241-1.769-1.392-.978-.15-2.407 1.656-2.069 2.634z" fill="#0075B6"/><path id="Vector_2" d="M15.987 28.69l-4.627 1.167c-.565.15-.903.715-.79 1.317.15.564.714.902 1.316.752l4.628-1.166c.564-.15.902-.715.752-1.317-.113-.564-.715-.903-1.28-.752zm1.693-6.432l-8.39 2.144c-.564.15-.902.715-.79 1.317.15.564.715.902 1.317.79l8.39-2.145c.564-.15.902-.715.79-1.316a1.077 1.077 0 00-1.317-.79zm-3.762-1.994a1.077 1.077 0 011.316.79 1.077 1.077 0 01-.79 1.317l-4.627 1.166a1.077 1.077 0 01-1.317-.79 1.077 1.077 0 01.79-1.317l4.628-1.166zm3.762 4.966a1.077 1.077 0 011.316.79 1.077 1.077 0 01-.79 1.316l-8.389 2.145a1.077 1.077 0 01-1.317-.79 1.077 1.077 0 01.79-1.317l8.39-2.144z" fill="#36373A"/><path id="Vector_3" d="M15.987 28.69l-4.627 1.167c-.565.15-.903.715-.79 1.317.15.564.714.902 1.316.752l4.628-1.166c.564-.15.902-.715.752-1.317-.113-.564-.715-.903-1.28-.752zm1.693-6.432l-8.39 2.144c-.564.15-.902.715-.79 1.317.15.564.715.902 1.317.79l8.39-2.145c.564-.15.902-.715.79-1.316a1.077 1.077 0 00-1.317-.79zm-3.762-1.994a1.077 1.077 0 011.316.79 1.077 1.077 0 01-.79 1.317l-4.627 1.166a1.077 1.077 0 01-1.317-.79 1.077 1.077 0 01.79-1.317l4.628-1.166zm3.762 4.966a1.077 1.077 0 011.316.79 1.077 1.077 0 01-.79 1.316l-8.389 2.145a1.077 1.077 0 01-1.317-.79 1.077 1.077 0 01.79-1.317l8.39-2.144z" fill="#36373A"/><path id="Vector_4" d="M11.783 14.207l.49-.49c-.226-.037-.79-.15-1.769-.413-.263-.075-1.016-.226-1.204-.377-.376-.601.15-1.956.753-2.031.413 0 2.445 1.129 2.67 1.317-.037-.264-.413-2.671-.225-3.047.414-.527 1.843-.452 2.107.037.112.339-.264 2.784-.264 3.01.15-.075.527-.226 1.054-.49.225-.112 1.467-.714 1.805-.677.64.264 1.016 1.656.565 2.07-.264.188-2.408.526-2.822.601.075.076 1.806 1.92 1.881 2.258-.037.677-1.204 1.467-1.693 1.204-.225-.15-1.43-2.258-1.542-2.446-.15.264-1.28 2.295-1.58 2.483-.677.188-1.806-.752-1.693-1.317.038-.338 1.279-1.504 1.467-1.692z" fill="#36373A"/><path id="Vector_5" d="M34.614 29.593V26.81h-.038c0 .038-.075.113-.15.264-.113.15-.226.338-.377.527a5.758 5.758 0 01-.413.601c-.15.226-.301.414-.414.602a5.617 5.617 0 01-.339.49c-.113.15-.15.225-.15.225h-.602v-3.574h.64v2.709h.037c.075-.075.113-.188.188-.263.075-.076.113-.189.188-.264.264-.376.49-.677.64-.94.15-.226.3-.452.414-.602.112-.15.188-.301.263-.376.075-.113.113-.188.188-.264h.602v3.611h-.677v.037zm3.988 0v-1.692h-1.844v1.692h-.64V26.02h.64v1.43h1.843v-1.43h.64v3.573h-.64zm3.649 0v-1.692h-.565c-.075 0-.15 0-.225.037-.076 0-.15.038-.226.075-.075.038-.15.113-.188.15-.075.076-.113.151-.15.302l-.377 1.166h-.602l.414-1.279a.898.898 0 01.226-.414 1.11 1.11 0 01.414-.263c-.264-.113-.414-.339-.527-.677l-.301-.979h.602l.3.903c.038.113.076.226.151.264.038.075.113.113.188.15.076.038.15.076.226.076h.752v-1.43h.64v1.43h.752c.076 0 .15-.038.226-.076a.66.66 0 00.188-.15c.038-.076.113-.15.15-.264l.302-.902h.602l-.301.978c-.113.338-.264.564-.527.677.188.037.339.15.414.263a.743.743 0 01.226.414l.413 1.28h-.827l-.377-1.167c-.037-.113-.075-.226-.15-.301a.658.658 0 00-.188-.15c-.075-.038-.15-.076-.226-.076-.075 0-.15-.037-.225-.037h-.565v1.692h-.64zm5.229-3.235a.802.802 0 00-.452.113c-.112.075-.225.15-.3.263a1.176 1.176 0 00-.189.376c-.037.151-.075.302-.075.452h1.919c0-.188 0-.339-.038-.49a1.124 1.124 0 00-.15-.375c-.076-.113-.15-.188-.264-.226a1.001 1.001 0 00-.451-.113zm-.038-.451c.264 0 .452.037.64.113.188.075.3.15.414.263.112.113.188.226.263.338.075.113.113.264.15.377.038.112.038.263.038.376v.564h-2.558c0 .15 0 .339.037.49.038.15.076.3.189.413.075.113.188.188.338.263.15.076.301.113.527.113.226 0 .414-.037.602-.075s.376-.113.602-.188l.15.376a4.97 4.97 0 01-.677.263 4.58 4.58 0 01-.715.076c-.338 0-.602-.038-.827-.15a1.89 1.89 0 01-.527-.377 1.308 1.308 0 01-.263-.564 4.158 4.158 0 01-.076-.715c0-.113 0-.226.038-.376 0-.15.038-.264.075-.414.038-.15.113-.264.188-.414a.888.888 0 01.301-.338c.113-.113.264-.189.452-.264.188-.113.414-.15.64-.15zm4.816 3.686v-1.692h-1.844v1.692h-.64V26.02h.64v1.43h1.844v-1.43h.64v3.573h-.64zm3.122-3.235a.802.802 0 00-.451.113c-.113.075-.226.15-.301.263-.076.113-.15.226-.188.376-.038.151-.076.302-.076.452h1.919c0-.188 0-.339-.038-.49a1.124 1.124 0 00-.15-.375.504.504 0 00-.264-.226.802.802 0 00-.45-.113zm0-.451c.263 0 .451.037.64.113.188.075.3.15.413.263.113.113.188.226.264.338.075.113.113.264.15.377.038.112.038.263.038.376v.564h-2.558c0 .15 0 .339.037.49.038.15.076.3.188.413.076.113.188.188.339.263.15.076.301.113.527.113.225 0 .413-.037.602-.075.188-.038.376-.113.601-.188l.151.376a5.009 5.009 0 01-.677.263 4.61 4.61 0 01-.715.076c-.339 0-.602-.038-.828-.15a1.89 1.89 0 01-.526-.377 1.31 1.31 0 01-.264-.564c-.037-.226-.075-.452-.075-.715 0-.113 0-.226.038-.376 0-.15.037-.264.075-.414.038-.15.113-.264.188-.414a.888.888 0 01.301-.338c.113-.113.263-.189.451-.264.189-.113.377-.15.64-.15zm3.01.451c.15-.113.338-.226.526-.3.189-.076.414-.114.602-.114.264 0 .49.038.677.15.188.114.339.226.452.377.113.15.188.338.226.564.037.226.075.452.075.677 0 .264-.038.527-.075.753-.038.226-.15.414-.264.602-.113.188-.263.3-.489.414-.188.112-.414.15-.715.15h-.263c-.075 0-.188-.038-.263-.038-.113 0-.188-.037-.301-.075-.076-.037-.188-.075-.264-.113v1.693h-.64v-5.116h.603v.3l.113.076zm-.038 2.596a.287.287 0 00.188.075c.075.038.15.075.226.075.075.038.188.038.263.076.075 0 .188.037.264.037.15 0 .263-.037.376-.075a.585.585 0 00.3-.226c.076-.113.151-.263.226-.451a3.43 3.43 0 00.076-.715c0-.263-.038-.451-.076-.602a.881.881 0 00-.188-.376c-.075-.113-.188-.15-.3-.226a1.338 1.338 0 00-.377-.075c-.075 0-.15 0-.263.038-.113.037-.188.037-.301.075-.075.037-.188.075-.264.113a.8.8 0 00-.188.113v2.144h.038zm5.869.64V27.9h-1.844v1.693h-.64V26.02h.64v1.43h1.844v-1.43h.64v3.573h-.64zm2.859-1.656c-.263 0-.451.075-.564.188a.623.623 0 00-.189.452c0 .225.038.376.151.451.113.113.3.15.527.15.15 0 .338-.037.526-.112.188-.076.339-.188.527-.339V27.9l-.978.038zm1.58 1.204h.527l.037.339a1.747 1.747 0 01-.338.112 1.042 1.042 0 01-.339.038.752.752 0 01-.338-.075c-.076-.075-.113-.188-.151-.376-.15.113-.3.225-.414.263-.15.075-.263.113-.376.15a.936.936 0 01-.301.038h-.226c-.225 0-.413-.038-.526-.113-.15-.075-.264-.15-.339-.263a1.524 1.524 0 01-.188-.339c-.038-.113-.038-.225-.038-.338 0-.301.113-.565.339-.753.226-.188.602-.3 1.09-.338l.979-.075v-.226c0-.301-.075-.527-.188-.64-.113-.113-.339-.188-.64-.188-.188 0-.376 0-.602.038-.188.037-.413.075-.602.15l-.15-.414c.226-.075.451-.15.715-.225a5.6 5.6 0 01.752-.076c.414 0 .715.076.94.264.227.188.34.489.34.94v2.107h.037zm3.574-1.467V26.47h-.903c-.226 0-.414.038-.564.113-.15.075-.226.226-.226.451 0 .15.038.226.075.301.038.076.113.15.188.188.075.038.15.076.264.076.075 0 .188.037.263.037h.903v.038zm-1.655.226a.955.955 0 01-.49-.34.864.864 0 01-.15-.526c0-.15.038-.3.075-.414.076-.112.15-.225.264-.338a.744.744 0 01.413-.226c.15-.037.339-.075.565-.075h1.617v3.574h-.64V28.05h-.714c-.226 0-.376.038-.527.113a.741.741 0 00-.3.414l-.34.978h-.639l.377-1.054c.037-.112.112-.225.15-.338.075-.113.188-.188.339-.264zm5.304 1.692V26.02h.602v1.43h.94c.076 0 .15-.038.226-.076a.669.669 0 00.188-.15c.038-.076.113-.151.15-.264l.302-.903h.602l-.301.978c-.113.339-.264.565-.527.677.188.038.339.15.414.264a.742.742 0 01.225.414l.414 1.279h-.602l-.376-1.167c-.037-.112-.075-.225-.15-.3a.656.656 0 00-.188-.151c-.076-.038-.15-.075-.226-.075-.075 0-.15-.038-.226-.038h-.715v1.693h-.752v-.038zm7.073-1.805c0 .225-.038.451-.076.677-.037.226-.15.414-.263.602-.15.188-.301.3-.527.414-.225.112-.489.15-.827.15-.301 0-.565-.038-.79-.15-.226-.113-.376-.226-.49-.414a1.553 1.553 0 01-.263-.565 4.168 4.168 0 01-.075-.714c0-.226.038-.49.075-.715.076-.226.15-.414.301-.602.15-.188.301-.301.527-.414.226-.113.489-.15.79-.15.3 0 .564.037.79.15.226.113.376.264.527.414.112.188.225.376.263.602 0 .263.038.489.038.715zm-.678.037c0-.15 0-.338-.037-.489-.038-.15-.075-.3-.15-.451a.889.889 0 00-.79-.49c-.226 0-.377.038-.527.114-.15.075-.226.188-.301.338-.076.15-.15.301-.15.452-.038.188-.038.338-.038.489 0 .188 0 .338.037.526.038.15.075.301.15.452.076.113.189.226.302.3.15.076.3.114.526.114.226 0 .377-.038.49-.113a1.16 1.16 0 00.3-.301 1.55 1.55 0 00.15-.452c.038-.188.038-.338.038-.489zm5.004 1.768v-2.558h-.038c-.075.113-.113.226-.188.339-.075.113-.113.226-.188.338-.113.264-.263.49-.376.753-.15.263-.264.489-.414.79h-.451c0-.038-.038-.113-.113-.188-.075-.113-.113-.226-.188-.377-.076-.15-.15-.3-.264-.45-.113-.151-.188-.34-.263-.49-.113-.188-.188-.338-.263-.451-.076-.15-.113-.226-.15-.264h-.038v2.596h-.602v-3.574h.677l.94 1.693c.113.188.188.376.301.527.076.15.15.263.188.338 0-.037.038-.075.076-.113.037-.075.075-.112.112-.225.038-.076.076-.188.15-.301.038-.113.114-.226.189-.339l.865-1.617h.677v3.573h-.64zm3.95 0v-3.122h-1.843v3.122h-.64V26.02h3.085v3.61h-.602v-.038zm2.86-1.655c-.264 0-.452.075-.565.188a.623.623 0 00-.188.452c0 .225.037.376.15.451.113.113.301.15.527.15.15 0 .338-.037.527-.112.188-.076.338-.188.526-.339V27.9l-.978.038zm1.617 1.204h.526l.038.339a1.75 1.75 0 01-.338.112 1.042 1.042 0 01-.34.038.752.752 0 01-.338-.075c-.075-.075-.113-.188-.15-.376-.15.113-.301.225-.414.263a2.59 2.59 0 01-.376.15.935.935 0 01-.301.038h-.226c-.226 0-.414-.038-.527-.113-.15-.075-.263-.15-.338-.263-.075-.113-.15-.226-.188-.339-.038-.113-.038-.225-.038-.338 0-.301.113-.565.339-.753.225-.188.602-.3 1.09-.338l.979-.075v-.226c0-.301-.075-.527-.188-.64-.113-.113-.339-.188-.64-.188-.188 0-.376 0-.602.038-.188.037-.414.075-.602.15l-.15-.414c.226-.075.451-.15.715-.225.263-.038.526-.076.752-.076.414 0 .715.076.94.264.226.188.34.489.34.94v2.107h.037zm3.687.451v-1.692h-1.844v1.692h-.64V26.02h.64v1.43h1.844v-1.43h.639v3.573h-.64zm3.987 0V26.81h-.037c0 .038-.076.113-.151.264-.113.15-.226.338-.376.527a5.685 5.685 0 01-.414.601c-.15.226-.301.414-.414.602a5.507 5.507 0 01-.338.49.913.913 0 01-.151.225h-.602v-3.574h.64v2.709h.038c.075-.075.112-.188.188-.263.075-.076.112-.189.188-.264.263-.376.489-.677.639-.94.151-.226.301-.452.414-.602.113-.15.188-.301.263-.376.076-.113.113-.188.189-.264h.601v3.611h-.677v.037zm3.913-1.918V26.47h-.903c-.226 0-.414.038-.564.113-.151.075-.226.226-.226.451 0 .15.037.226.075.301.038.076.113.15.188.188a.545.545 0 00.264.076c.075 0 .188.037.263.037h.903v.038zm-1.693.226a.954.954 0 01-.489-.34.863.863 0 01-.151-.526c0-.15.038-.3.076-.414.075-.112.15-.225.263-.338a.745.745 0 01.414-.226 2.27 2.27 0 01.564-.075h1.618v3.574h-.64V28.05h-.715a1.09 1.09 0 00-.526.113.74.74 0 00-.301.414l-.339.978h-.639l.376-1.054c.037-.112.113-.225.15-.338.076-.113.188-.188.339-.264z" fill="#36373A"/><path id="Vector_6" d="M41.714 22.747v-6.66h-6.245v6.697h-3.461V7.473h3.46v6.019h6.246v-6.02h3.46v15.312h-3.46v-.037zm58.612-5.643v3.498h2.708c.527 0 .979-.15 1.242-.489.301-.338.451-.752.451-1.241 0-.527-.188-.94-.526-1.28-.339-.338-.79-.488-1.317-.488h-2.558zm0-5.831v3.837h3.499c.564 0 1.128.075 1.617.263a4.46 4.46 0 011.317.752c.376.34.677.753.903 1.204.225.452.338.979.338 1.58 0 .565-.113 1.091-.301 1.58-.188.49-.489.866-.827 1.204a2.99 2.99 0 01-1.242.753c-.489.188-1.015.263-1.58.263h-7.035V11.235h3.311v.038zm-8.954 11.474V13.53h-2.37l-.037 1.204c-.038 1.166-.113 2.257-.264 3.235a10.088 10.088 0 01-.64 2.596c-.3.752-.79 1.392-1.391 1.918-.602.527-1.392.903-2.408 1.166l-1.016-2.482c.565-.264 1.016-.527 1.355-.866.338-.3.602-.714.79-1.241.188-.49.3-1.091.376-1.806.075-.715.113-1.58.188-2.596l.15-3.348h8.578v11.474h-3.31v-.037zM77.566 10.972c1.241 0 2.182.188 2.897.601.714.377 1.24.866 1.58 1.43.338.564.564 1.204.639 1.843.075.64.113 1.242.113 1.73v1.205h-7.487c0 .903.226 1.542.678 1.994.451.451 1.166.677 2.22.677.639 0 1.24-.075 1.88-.188.64-.15 1.242-.301 1.806-.527l.677 2.07a9.316 9.316 0 01-2.407.902 11.05 11.05 0 01-2.446.263c-1.166 0-2.106-.15-2.859-.489a4.48 4.48 0 01-1.768-1.279c-.414-.527-.715-1.166-.903-1.88-.15-.716-.263-1.468-.263-2.258 0-.64.075-1.28.225-1.994.15-.715.452-1.354.866-1.956.413-.602.978-1.091 1.73-1.467.753-.452 1.656-.677 2.822-.677zm.113 2.144c-.414 0-.753.075-1.054.226-.263.15-.526.338-.677.564-.188.226-.3.527-.414.827-.075.301-.15.64-.188.979h4.402c0-.753-.15-1.392-.452-1.881-.263-.49-.827-.715-1.617-.715zM64.737 6.984c.264-.113.565-.226.978-.376.414-.15.79-.301 1.204-.452.414-.15.79-.338 1.166-.489.377-.15.678-.3.903-.414.188.339.339.64.49.978.15.301.3.64.45.979-.488.263-.94.489-1.391.714a11.39 11.39 0 01-1.129.49c-.715.263-1.316.564-1.918.827-.565.263-1.091.564-1.505.94a3.828 3.828 0 00-1.091 1.242c-.301.489-.527 1.053-.677 1.768.037 0 .075 0 .075.038.414-.527.94-.903 1.542-1.242a4.758 4.758 0 012.07-.451c.902 0 1.655.15 2.294.414.64.3 1.129.677 1.505 1.166.376.489.677 1.09.865 1.768.189.677.264 1.43.264 2.257 0 .753-.113 1.467-.301 2.182a5.171 5.171 0 01-1.016 1.844c-.451.526-1.091.978-1.806 1.279-.752.3-1.655.489-2.708.489-1.091 0-2.032-.15-2.747-.49-.714-.338-1.316-.752-1.73-1.316a5.636 5.636 0 01-.903-1.919c-.188-.714-.263-1.467-.263-2.257 0-.715 0-1.317.037-1.806 0-.526.038-.94.075-1.316.038-.377.076-.678.113-.94.038-.264.076-.49.15-.678.302-1.204.904-2.22 1.769-3.085.79-.903 1.88-1.58 3.235-2.144zm.452 6.771a2.02 2.02 0 00-1.166.339c-.301.226-.565.49-.753.865a3.902 3.902 0 00-.414 1.166c-.075.414-.15.828-.15 1.242 0 .414.037.79.075 1.204.038.414.188.752.339 1.053.188.301.413.565.752.753.301.188.715.3 1.242.3.45 0 .865-.112 1.166-.3.3-.188.526-.452.715-.753.188-.3.3-.677.376-1.09a7.04 7.04 0 00.113-1.28c0-.451-.038-.903-.076-1.317a4.136 4.136 0 00-.338-1.09 1.854 1.854 0 00-.677-.753c-.377-.263-.753-.339-1.204-.339zm-7.11 3.236a8.84 8.84 0 01-.301 2.257 4.733 4.733 0 01-1.016 1.919c-.452.564-1.091.978-1.806 1.316-.752.301-1.655.49-2.746.49-1.054 0-1.956-.151-2.671-.452a4.768 4.768 0 01-1.768-1.28 4.735 4.735 0 01-.979-1.88 9.203 9.203 0 01-.3-2.333c0-.827.112-1.58.338-2.294a5.87 5.87 0 011.016-1.92c.451-.526 1.053-.977 1.806-1.316.752-.338 1.655-.489 2.708-.489 1.091 0 1.994.15 2.709.49a4.465 4.465 0 011.768 1.316 5.16 5.16 0 01.978 1.918c.188.715.264 1.468.264 2.258zm-3.462.037c0-.451-.037-.902-.075-1.316a4.747 4.747 0 00-.338-1.167 2.064 2.064 0 00-.678-.827c-.3-.226-.677-.301-1.166-.301a2.39 2.39 0 00-1.204.3c-.3.226-.564.49-.752.828-.188.339-.3.715-.376 1.167a7.783 7.783 0 00-.113 1.316c0 .527.038.979.075 1.43.075.451.188.828.376 1.129.188.3.414.564.753.752.3.188.715.263 1.241.263.452 0 .865-.113 1.166-.3.301-.189.527-.452.715-.79.15-.34.264-.715.339-1.167.038-.414.038-.865.038-1.317z" fill="#36373A"/></g></svg>