<svg width="100" height="30" fill="none" xmlns="http://www.w3.org/2000/svg"><path fill-rule="evenodd" clip-rule="evenodd" d="M2.09 6.083c.243.452 1.427.905 1.671 1.254.244.348.21 1.114 0 1.672-.209.557-.627 1.15-1.045 1.288-.418.14-1.602-.243-2.09-.07-.731.35-.905 2.509-.07 3.17.488.21 1.673-.104 2.09.035.419.14.802.802.976 1.359.174.557.174 1.324-.105 1.672-.278.348-1.428.732-1.706 1.184-.349.871.87 2.613 1.776 2.613.488-.105 1.289-1.08 1.707-1.184.418-.105 1.045.139 1.498.452a.937.937 0 001.532-.731c0-.314-.174-.592-.383-.766C6.2 16.672 5.05 14.512 5.05 12.144a7.478 7.478 0 017.49-7.49 7.478 7.478 0 017.489 7.49 7.374 7.374 0 01-3.275 6.165c-.209.174-.313.418-.313.732 0 .522.418.975.975.975a.8.8 0 00.488-.14c.487-.313 1.184-.557 1.567-.417.418.14 1.15 1.15 1.637 1.289 1.01-.07 2.23-1.847 1.951-2.508-.244-.453-1.428-.906-1.672-1.255-.244-.348-.209-1.114 0-1.671.209-.558.627-1.15 1.045-1.29.418-.139 1.602.245 2.09.07.801-.627.697-2.821.07-3.17-.488-.208-1.672.105-2.09-.034-.418-.14-.801-.802-.976-1.359-.174-.557-.174-1.324.105-1.672.279-.348 1.428-.731 1.707-1.184.383-1.045-1.115-2.578-1.637-2.613-.07 0-.105 0-.14.035-.488.105-1.289 1.08-1.707 1.184-.418.14-1.114-.174-1.602-.522-.453-.348-.906-.975-.906-1.393 0-.453.732-1.463.697-1.951-.244-.94-2.23-1.672-2.996-1.045-.348.383-.418 1.637-.662 1.985-.278.349-1.01.523-1.567.523-.592-.035-1.289-.244-1.568-.592-.243-.349-.243-1.603-.592-2.02-.592-.628-2.682-.07-3.03.905-.07.523.627 1.568.592 1.986 0 .452-.488 1.01-.975 1.358-.488.314-1.185.557-1.603.418-.418-.14-1.15-1.15-1.637-1.289-.906-.14-2.23 1.533-1.916 2.439z" fill="#fff"/><path fill-rule="evenodd" clip-rule="evenodd" d="M14.805 26.53l-4.285 1.08c-.522.139-.836.662-.731 1.219.139.522.662.836 1.219.697l4.284-1.08c.523-.14.836-.662.697-1.22-.105-.522-.662-.835-1.184-.696zm1.567-5.957L8.604 22.56c-.522.14-.836.662-.731 1.219.14.522.662.836 1.219.731l7.768-1.985c.522-.14.836-.662.731-1.22a.997.997 0 00-1.219-.73zm-3.483-1.846a.997.997 0 011.219.732.997.997 0 01-.732 1.219l-4.284 1.08a.997.997 0 01-1.22-.732.997.997 0 01.732-1.22l4.285-1.079zm3.483 4.598a.997.997 0 011.22.732.997.997 0 01-.732 1.219L9.092 27.26a.997.997 0 01-1.22-.731.997.997 0 01.732-1.22l7.768-1.985z" fill="#fff"/><path fill-rule="evenodd" clip-rule="evenodd" d="M14.805 26.53l-4.285 1.08c-.522.139-.836.662-.731 1.219.139.522.662.836 1.219.697l4.284-1.08c.523-.14.836-.662.697-1.22-.105-.522-.662-.835-1.184-.696zm1.567-5.957L8.604 22.56c-.522.14-.836.662-.731 1.219.14.522.662.836 1.219.731l7.768-1.985c.522-.14.836-.662.731-1.22a.997.997 0 00-1.219-.73zm-3.483-1.846a.997.997 0 011.219.732.997.997 0 01-.732 1.219l-4.284 1.08a.997.997 0 01-1.22-.732.997.997 0 01.732-1.22l4.285-1.079zm3.483 4.598a.997.997 0 011.22.732.997.997 0 01-.732 1.219L9.092 27.26a.997.997 0 01-1.22-.731.997.997 0 01.732-1.22l7.768-1.985zM10.91 13.119l.453-.453c-.209-.035-.731-.14-1.637-.383-.244-.07-.94-.21-1.115-.348-.348-.558.14-1.812.697-1.881.383 0 2.264 1.045 2.473 1.219-.035-.244-.383-2.473-.209-2.822.383-.487 1.707-.418 1.95.035.105.314-.243 2.578-.243 2.787.14-.07.488-.21.975-.453.21-.105 1.359-.662 1.672-.627.592.244.94 1.533.523 1.916-.244.174-2.23.487-2.613.557.07.07 1.672 1.777 1.742 2.09-.035.627-1.115 1.359-1.568 1.115-.209-.14-1.323-2.09-1.428-2.264-.14.243-1.184 2.125-1.463 2.299-.627.174-1.672-.697-1.567-1.22.034-.313 1.184-1.393 1.358-1.567zm21.138 14.247v-2.578h-.035c0 .035-.07.104-.14.244-.104.14-.208.313-.348.488a5.32 5.32 0 01-.383.557c-.139.209-.278.383-.383.557a5.085 5.085 0 01-.313.453c-.105.14-.14.209-.14.209h-.557v-3.31h.592v2.509h.035c.07-.07.104-.174.174-.244.07-.07.105-.174.174-.244.244-.348.453-.627.593-.87.139-.21.278-.419.383-.558.104-.14.174-.279.244-.348.07-.105.104-.175.174-.244h.557v3.344h-.627v.035zm3.692 0v-1.568h-1.706v1.568h-.593v-3.31h.593v1.324h1.706v-1.323h.593v3.309h-.593zm3.38 0v-1.568h-.523c-.07 0-.14 0-.21.035a.49.49 0 00-.208.07.759.759 0 00-.174.139c-.07.07-.105.14-.14.279l-.348 1.08h-.557l.383-1.185a.83.83 0 01.209-.383c.104-.104.209-.174.383-.244-.244-.104-.383-.313-.488-.627l-.278-.905h.557l.279.835c.034.105.07.21.139.244.035.07.104.105.174.14.07.035.14.07.21.07h.696v-1.324h.592v1.323h.697a.48.48 0 00.209-.07c.07-.034.104-.069.174-.139.035-.07.104-.139.14-.244l.278-.835h.557l-.279.905c-.104.314-.243.523-.487.627a.62.62 0 01.383.244.688.688 0 01.209.383l.383 1.184h-.766l-.349-1.08c-.034-.104-.07-.208-.139-.278a.61.61 0 00-.174-.14.495.495 0 00-.209-.069c-.07 0-.14-.035-.21-.035h-.522v1.568h-.592zm4.841-2.996a.743.743 0 00-.418.104c-.104.07-.209.14-.279.244-.07.105-.139.21-.174.349-.035.139-.07.278-.07.418h1.777c0-.174 0-.314-.035-.453a1.042 1.042 0 00-.139-.349.475.475 0 00-.244-.209.927.927 0 00-.418-.104zm-.035-.418a1.5 1.5 0 01.593.104c.174.07.278.14.383.244.104.105.174.21.243.314.07.104.105.244.14.348.035.105.035.244.035.349v.522h-2.37c0 .14 0 .314.035.453.035.14.07.278.174.383.07.104.174.174.314.244.139.07.278.104.487.104.21 0 .383-.034.558-.07.174-.034.348-.104.557-.174l.14.349c-.21.104-.419.174-.628.244a4.25 4.25 0 01-.662.07c-.313 0-.557-.035-.766-.14a1.749 1.749 0 01-.488-.348 1.211 1.211 0 01-.243-.523 3.851 3.851 0 01-.07-.662c0-.104 0-.209.035-.348 0-.14.035-.244.07-.383.034-.14.104-.244.174-.383a.82.82 0 01.278-.314c.105-.104.244-.174.418-.244.174-.104.383-.139.592-.139zm4.459 3.414v-1.568h-1.707v1.568h-.592v-3.31h.592v1.324h1.707v-1.323h.592v3.309h-.592zm2.891-2.996a.743.743 0 00-.418.104c-.104.07-.209.14-.278.244-.07.105-.14.21-.175.349-.035.139-.07.278-.07.418h1.777c0-.174 0-.314-.035-.453a1.044 1.044 0 00-.139-.349.468.468 0 00-.244-.209.743.743 0 00-.418-.104zm0-.418a1.5 1.5 0 01.592.104c.175.07.28.14.384.244.104.105.174.21.243.314.07.104.105.244.14.348.035.105.035.244.035.349v.522H50.3c0 .14 0 .314.036.453.035.14.07.278.174.383.07.104.174.174.313.244.14.07.28.104.488.104.21 0 .383-.034.557-.07.175-.034.349-.104.558-.174l.14.349c-.21.104-.419.174-.628.244a4.25 4.25 0 01-.662.07c-.313 0-.557-.035-.766-.14a1.749 1.749 0 01-.488-.348 1.211 1.211 0 01-.244-.523 3.851 3.851 0 01-.07-.662c0-.104 0-.209.035-.348 0-.14.035-.244.07-.383.035-.14.105-.244.174-.383a.82.82 0 01.279-.314c.105-.104.244-.174.418-.244.174-.104.348-.139.592-.139zm2.787.418c.14-.105.313-.209.488-.279.174-.07.383-.104.557-.104.244 0 .453.035.627.14.174.104.313.208.418.348.104.139.174.313.209.522.035.209.07.418.07.627 0 .244-.035.488-.07.697-.035.209-.14.383-.244.557-.104.174-.244.279-.453.383-.174.105-.383.14-.662.14h-.243c-.07 0-.175-.035-.244-.035-.105 0-.174-.035-.279-.07-.07-.035-.174-.07-.244-.104v1.567h-.592v-4.737h.557v.278l.105.07zm-.035 2.403c.035.035.105.07.174.07.07.035.14.07.21.07.069.035.173.035.243.07.07 0 .174.034.244.034.14 0 .244-.034.348-.07a.541.541 0 00.279-.208c.07-.105.14-.244.209-.418.035-.175.07-.384.07-.662a2.18 2.18 0 00-.07-.557.817.817 0 00-.174-.349c-.07-.104-.174-.14-.279-.209a1.235 1.235 0 00-.348-.07c-.07 0-.14 0-.244.035-.105.035-.174.035-.279.07-.07.035-.174.07-.244.104a.762.762 0 00-.174.105v1.985h.035zm5.434.593v-1.568h-1.707v1.568h-.592v-3.31h.592v1.324h1.707v-1.323h.592v3.309h-.592zm2.647-1.533c-.243 0-.418.07-.522.174a.577.577 0 00-.174.418c0 .21.035.348.14.418.104.105.278.14.487.14.14 0 .313-.035.488-.105.174-.07.313-.174.487-.314v-.766l-.906.035zm1.463 1.115h.488l.035.313c-.07.035-.174.07-.313.105-.105.035-.21.035-.314.035a.696.696 0 01-.314-.07c-.07-.07-.104-.174-.139-.348-.14.104-.279.209-.383.243-.14.07-.244.105-.348.14-.105.035-.21.035-.279.035h-.209c-.209 0-.383-.035-.488-.105-.139-.07-.243-.14-.313-.244a1.413 1.413 0 01-.174-.313c-.035-.105-.035-.21-.035-.314 0-.279.104-.522.313-.697.21-.174.558-.278 1.01-.313l.906-.07v-.209c0-.278-.07-.487-.174-.592-.105-.104-.313-.174-.592-.174-.174 0-.349 0-.558.035-.174.035-.383.07-.557.14l-.14-.384c.21-.07.419-.14.663-.209.244-.035.487-.07.696-.07.383 0 .662.07.871.244.21.174.314.453.314.871v1.95h.035zm3.31-1.359v-1.114h-.836c-.21 0-.384.034-.523.104-.14.07-.209.209-.209.418 0 .14.035.209.07.279a.42.42 0 00.174.174c.07.035.14.07.244.07.07 0 .174.034.244.034h.836v.035zm-1.533.21a.885.885 0 01-.453-.314.8.8 0 01-.14-.488c0-.14.036-.279.07-.383.07-.105.14-.21.244-.314a.688.688 0 01.384-.209c.139-.035.313-.07.522-.07h1.498v3.31h-.592v-1.393h-.662c-.21 0-.349.034-.488.104a.687.687 0 00-.278.383l-.314.906h-.592l.348-.976c.035-.104.105-.209.14-.313.07-.105.174-.174.313-.244zm4.912 1.567v-3.31h.557v1.324h.871c.07 0 .14-.035.209-.07.07-.034.104-.07.174-.139.035-.07.104-.14.14-.244l.278-.836h.557l-.278.906c-.105.314-.244.523-.488.627a.62.62 0 01.383.244.692.692 0 01.21.383l.382 1.184H72.7l-.348-1.08c-.035-.104-.07-.209-.14-.278a.612.612 0 00-.174-.14c-.07-.034-.14-.07-.209-.07-.07 0-.14-.034-.209-.034h-.662v1.568h-.696v-.035zm6.548-1.672c0 .209-.034.418-.07.627-.034.209-.139.383-.243.557a1.33 1.33 0 01-.488.383c-.209.105-.453.14-.766.14-.279 0-.523-.035-.732-.14-.209-.104-.348-.209-.453-.383a1.437 1.437 0 01-.243-.523c-.035-.209-.07-.418-.07-.661 0-.21.035-.453.07-.662.07-.21.139-.383.278-.558.14-.174.279-.278.488-.383.209-.104.453-.139.731-.139.28 0 .523.035.732.14.209.104.348.243.488.383.104.174.209.348.243.557 0 .244.035.453.035.662zm-.627.035c0-.14 0-.314-.035-.453a1.958 1.958 0 00-.139-.418.822.822 0 00-.731-.453c-.21 0-.349.035-.488.104-.14.07-.21.174-.279.314-.07.14-.14.279-.14.418-.034.174-.034.313-.034.453 0 .174 0 .313.035.487.035.14.07.279.14.418.069.105.173.21.278.279.14.07.279.105.488.105.209 0 .348-.035.452-.105a1.06 1.06 0 00.28-.279c.069-.139.104-.244.138-.418.035-.174.035-.313.035-.453zm4.633 1.637v-2.369h-.035c-.07.105-.104.209-.174.314-.07.104-.104.209-.174.313-.105.244-.244.453-.348.697-.14.243-.244.452-.383.731h-.418c0-.035-.035-.104-.105-.174-.07-.105-.105-.209-.174-.348-.07-.14-.14-.279-.244-.418-.105-.14-.174-.314-.244-.453-.104-.174-.174-.314-.244-.418-.07-.14-.104-.21-.139-.244h-.035v2.404h-.557v-3.31h.627l.87 1.568c.105.174.175.348.28.488.069.139.139.243.174.313 0-.035.034-.07.07-.105.034-.07.069-.104.104-.209.035-.07.07-.174.139-.278.035-.105.104-.21.174-.314l.801-1.497h.627v3.309h-.592zm3.658 0v-2.892h-1.707v2.892h-.592v-3.31h2.856V27.4h-.557v-.034zm2.647-1.533c-.244 0-.418.07-.523.174a.577.577 0 00-.174.418c0 .21.035.348.14.418.104.105.278.14.487.14.14 0 .314-.035.488-.105.174-.07.314-.174.488-.314v-.766l-.906.035zm1.498 1.115h.488l.034.313c-.07.035-.174.07-.313.105-.105.035-.21.035-.314.035a.696.696 0 01-.313-.07c-.07-.07-.105-.174-.14-.348-.139.104-.278.209-.383.243-.139.07-.244.105-.348.14-.104.035-.209.035-.279.035h-.209c-.209 0-.383-.035-.487-.105-.14-.07-.244-.14-.314-.244a1.413 1.413 0 01-.174-.313c-.035-.105-.035-.21-.035-.314 0-.279.105-.522.314-.697.209-.174.557-.278 1.01-.313l.906-.07v-.209c0-.278-.07-.487-.175-.592-.104-.104-.313-.174-.592-.174-.174 0-.348 0-.557.035-.174.035-.383.07-.557.14l-.14-.384c.21-.07.418-.14.662-.209.244-.035.488-.07.697-.07.383 0 .662.07.87.244.21.174.314.453.314.871v1.95h.035zm3.414.418v-1.568h-1.707v1.568h-.592v-3.31h.592v1.324h1.707v-1.323h.592v3.309h-.592zm3.692 0v-2.578h-.035c0 .035-.07.104-.14.244-.104.14-.208.313-.348.488a5.321 5.321 0 01-.383.557c-.14.209-.278.383-.383.557a5.085 5.085 0 01-.313.453.862.862 0 01-.14.209h-.557v-3.31h.592v2.509h.035c.07-.07.104-.174.174-.244.07-.07.105-.174.174-.244.244-.348.453-.627.592-.87.14-.21.28-.419.384-.558.104-.14.174-.279.243-.348.07-.105.105-.175.175-.244h.557v3.344h-.627v.035zm3.623-1.777v-1.114h-.836c-.21 0-.383.034-.523.104-.14.07-.209.209-.209.418 0 .14.035.209.07.279a.42.42 0 00.174.174c.07.035.14.07.244.07.07 0 .174.034.244.034h.836v.035zm-1.568.21a.885.885 0 01-.453-.314.8.8 0 01-.139-.488c0-.14.035-.279.07-.383.07-.105.139-.21.243-.314a.689.689 0 01.384-.209c.139-.035.313-.07.522-.07h1.498v3.31h-.592v-1.393h-.662c-.209 0-.348.034-.488.104a.687.687 0 00-.278.383l-.314.906h-.592l.348-.976c.035-.104.105-.209.14-.313.07-.105.174-.174.313-.244zm-59.155-4.773v-6.165H32.84v6.2h-3.204V6.884h3.204v5.573h5.783V6.884h3.204V21.06h-3.204v-.035zm54.27-5.225v3.24h2.509c.487 0 .905-.14 1.15-.453.278-.314.417-.697.417-1.15 0-.487-.174-.87-.487-1.184-.314-.314-.732-.453-1.22-.453h-2.368zm0-5.399v3.553h3.24c.523 0 1.045.07 1.498.244.488.174.87.418 1.22.697.347.313.626.696.835 1.114.21.418.314.906.314 1.463 0 .523-.105 1.01-.279 1.463-.174.453-.453.801-.766 1.115a2.765 2.765 0 01-1.15.697c-.453.174-.94.243-1.463.243H89.83V10.367h3.066v.035zm-8.29 10.624v-8.534H82.41l-.035 1.115c-.035 1.08-.105 2.09-.244 2.995a9.344 9.344 0 01-.592 2.404c-.279.697-.732 1.289-1.289 1.776-.557.488-1.289.836-2.23 1.08l-.94-2.299c.523-.244.94-.487 1.254-.8.314-.28.557-.663.732-1.15.174-.453.278-1.01.348-1.672.07-.662.105-1.464.174-2.404l.14-3.1h7.942V21.06h-3.066v-.035zM71.82 10.123c1.15 0 2.02.175 2.683.558.661.348 1.149.8 1.463 1.323.313.523.522 1.115.592 1.707.07.592.104 1.15.104 1.602v1.115H69.73c0 .836.21 1.428.627 1.846.418.418 1.08.627 2.055.627.593 0 1.15-.07 1.742-.174.592-.14 1.15-.278 1.672-.487l.627 1.915a8.62 8.62 0 01-2.23.836 10.23 10.23 0 01-2.263.244c-1.08 0-1.951-.14-2.648-.453a4.149 4.149 0 01-1.637-1.184c-.383-.488-.662-1.08-.836-1.742a10.095 10.095 0 01-.244-2.09c0-.592.07-1.184.21-1.846a4.98 4.98 0 01.8-1.811c.384-.557.906-1.01 1.603-1.359.696-.418 1.532-.627 2.612-.627zm.105 1.986c-.383 0-.697.07-.976.209-.243.14-.487.313-.627.522-.174.21-.278.488-.383.767-.07.278-.14.592-.174.905h4.076c0-.696-.14-1.289-.418-1.741-.244-.453-.767-.662-1.498-.662zM59.942 6.43c.244-.105.523-.209.906-.348.383-.14.731-.279 1.114-.418.383-.14.732-.314 1.08-.453.349-.14.627-.279.836-.383.174.313.314.592.453.905.14.279.279.592.418.906-.453.244-.87.453-1.289.662-.418.209-.766.348-1.045.453-.662.243-1.219.522-1.776.766-.523.244-1.01.522-1.394.87a3.546 3.546 0 00-1.01 1.15c-.279.453-.487.976-.627 1.637.035 0 .07 0 .07.035.383-.487.87-.836 1.428-1.15a4.407 4.407 0 011.916-.417c.836 0 1.532.14 2.125.383.592.279 1.045.627 1.393 1.08.348.453.627 1.01.801 1.637.174.627.244 1.324.244 2.09 0 .697-.104 1.359-.279 2.02a4.787 4.787 0 01-.94 1.707c-.418.488-1.01.906-1.672 1.185-.697.278-1.533.452-2.508.452-1.01 0-1.881-.139-2.543-.452-.662-.314-1.22-.697-1.602-1.22a5.218 5.218 0 01-.836-1.776c-.175-.662-.244-1.359-.244-2.09 0-.662 0-1.22.035-1.672 0-.488.034-.871.07-1.22.034-.348.069-.626.104-.87.035-.244.07-.453.14-.627.278-1.115.835-2.055 1.636-2.857.732-.836 1.742-1.463 2.996-1.985zm.418 6.27c-.418 0-.766.104-1.08.313a2.238 2.238 0 00-.697.802 3.615 3.615 0 00-.383 1.08c-.07.383-.139.766-.139 1.149s.035.731.07 1.115c.035.383.174.696.313.975.174.279.383.523.697.697.279.174.662.278 1.15.278.417 0 .8-.104 1.08-.278.278-.174.487-.418.661-.697.174-.279.279-.627.348-1.01.07-.383.105-.767.105-1.184 0-.418-.035-.837-.07-1.22a3.833 3.833 0 00-.313-1.01 1.721 1.721 0 00-.627-.697c-.349-.243-.697-.313-1.115-.313zm-6.584 2.996c0 .731-.104 1.428-.278 2.09a4.383 4.383 0 01-.94 1.776c-.419.523-1.01.906-1.673 1.22-.696.278-1.532.452-2.543.452-.975 0-1.811-.14-2.473-.418a4.414 4.414 0 01-1.637-1.184 4.385 4.385 0 01-.906-1.742 8.524 8.524 0 01-.278-2.16c0-.766.104-1.463.313-2.124a5.435 5.435 0 01.94-1.777c.419-.488.976-.905 1.673-1.219.696-.314 1.532-.453 2.508-.453 1.01 0 1.846.14 2.508.453a4.132 4.132 0 011.637 1.22c.418.522.731 1.114.906 1.776.174.662.243 1.358.243 2.09zm-3.204.035c0-.418-.035-.836-.07-1.22a4.397 4.397 0 00-.313-1.08 1.912 1.912 0 00-.627-.766c-.28-.209-.627-.279-1.08-.279a2.2 2.2 0 00-1.115.28 2.45 2.45 0 00-.697.765c-.174.314-.278.662-.348 1.08a7.21 7.21 0 00-.105 1.22c0 .487.035.905.07 1.323.07.418.174.767.349 1.045.174.279.383.523.696.697.279.174.662.244 1.15.244.418 0 .8-.105 1.08-.279.278-.174.487-.418.661-.731.14-.314.244-.662.314-1.08.035-.384.035-.802.035-1.22z" fill="#fff"/></svg>