<svg width="513" height="523" fill="none" xmlns="http://www.w3.org/2000/svg"><path fill-rule="evenodd" clip-rule="evenodd" d="M366.876 290.862L261.129 410.146c-12.741 14.775-11.463 36.721 2.982 51.208 14.774 12.741 36.721 11.463 50.499-4.02L420.358 338.05c12.741-14.775 11.463-36.721-4.02-50.5-13.736-13.449-36.721-11.463-49.462 3.312zm-74.37-209.4l-191.157 217.09c-12.74 14.774-11.463 36.721 2.982 51.208 14.774 12.74 36.721 11.463 51.208-2.982l191.157-217.09c12.741-14.775 11.463-36.72-2.982-51.208-15.483-13.779-38.467-11.793-51.208 2.982zM151.154 97.249c12.741-14.775 35.726-16.76 51.208-2.982 14.775 12.741 16.761 35.725 2.983 51.208L99.597 264.759c-12.74 14.775-35.725 16.761-51.208 2.982-14.775-12.741-16.761-35.725-2.982-51.208L151.154 97.249zm197.294 66.232c12.741-14.775 35.725-16.761 51.208-2.982 14.775 12.741 16.761 35.725 2.982 51.208l-191.157 217.09c-12.741 14.774-35.725 16.76-51.208 2.982-14.775-12.741-16.761-35.726-2.982-51.209l191.157-217.089z" fill="#fff" fill-opacity=".1"/></svg>