<svg width="819" height="888" fill="none" xmlns="http://www.w3.org/2000/svg"><path fill-rule="evenodd" clip-rule="evenodd" d="M583.71 600.071L280.352 719.56c-36.923 15.131-54.932 56.331-42.021 96.132 15.132 36.922 56.331 54.931 95.803 39.471l303.359-119.489c36.923-15.132 54.931-56.331 39.471-95.803-12.582-37.252-56.331-54.932-93.254-39.8zm58.463-450.724L92.443 368.013c-36.922 15.131-54.931 56.33-42.02 96.131 15.132 36.923 56.331 54.932 96.132 42.021l549.73-218.666c36.923-15.132 54.931-56.331 42.02-96.132-15.46-39.472-59.209-57.152-96.132-42.02zM369.814 47.133c36.923-15.131 80.671 2.549 96.132 42.02 15.131 36.924-2.548 80.672-42.02 96.133L120.567 304.775c-36.923 15.131-80.672-2.549-96.132-42.021-15.131-36.922 2.548-80.671 42.02-96.131l303.359-119.49zm298.348 303.604c36.922-15.131 80.671 2.548 96.131 42.02 15.132 36.923-2.548 80.671-42.02 96.132l-549.73 218.666c-36.923 15.131-80.671-2.548-96.132-42.021-15.131-36.922 2.549-80.671 42.021-96.131l549.73-218.666z" fill="#fff" fill-opacity=".05"/></svg>