<svg width="93" height="93" fill="none" xmlns="http://www.w3.org/2000/svg"><g id="Frame 1000005991"><g clip-path="url(#clip0_263_237)"><path id="Rectangle 12963" fill="#0075B6" d="M0 0h93v93H0z"/><g id="Group 1000006043"><g id="Group"><g id="Group_2"><path id="Vector" d="M26.937 61.727c0 1.49-1.09 2.694-2.442 2.694-1.351 0-2.442-1.205-2.442-2.694 0-1.49 1.099-2.695 2.442-2.695 1.351 0 2.442 1.205 2.442 2.695z" fill="#FDFCEA"/><path id="Vector_2" d="M65.16 61.564c0 1.53-1.116 2.776-2.492 2.776-1.375 0-2.483-1.245-2.483-2.776 0-1.53 1.116-2.776 2.483-2.776 1.376 0 2.491 1.238 2.491 2.776z" fill="#FDFCEA"/><path id="Vector_3" d="M59.6 39.227V49.42l8.539-.578.081-1.164-2.32-7.538-6.3-.912z" fill="#0FC277"/><path id="Vector_4" d="M73.705 55.443h-4.502v2.67h4.502v-2.67z" fill="#FFB800"/><g id="Group_3"><g id="Group_4"><path id="Vector_5" d="M53.575 33.145H19.483c-.725 0-1.319.594-1.319 1.319v19.472c0 .725.594 1.319 1.319 1.319h34.092a1.32 1.32 0 001.32-1.319V34.464a1.32 1.32 0 00-1.32-1.319z" fill="#FFB800"/><g id="Group_5"><g id="Group_6"><path id="Vector_6" d="M62.349 56.118a5.553 5.553 0 00-5.552 5.552 5.548 5.548 0 005.552 5.552A5.554 5.554 0 0067.9 61.67a5.548 5.548 0 00-5.552-5.552zm1.123 6.765a1.649 1.649 0 01-2.239 0 1.658 1.658 0 01-.537-1.22c0-.107.008-.204.033-.302a1.653 1.653 0 013.256 0c.016.098.032.195.032.301-.008.489-.22.92-.545 1.221z" fill="#0FC277"/><path id="Vector_7" d="M24.685 56.118h-.024a5.552 5.552 0 105.568 5.552 5.97 5.97 0 00-.082-.944c-.456-2.613-2.727-4.608-5.462-4.608zm1.107 6.765a1.65 1.65 0 01-2.239 0 1.658 1.658 0 01-.537-1.22c0-.107.008-.204.033-.302a1.651 1.651 0 011.628-1.351c.562 0 1.058.284 1.36.708.13.187.227.407.268.643.016.098.032.195.032.301-.008.489-.211.92-.545 1.221z" fill="#0FC277"/><path id="Vector_8" d="M22.68 56.118H18v4.608h.855c0-.016.008-.04.008-.057a5.867 5.867 0 013.818-4.55z" fill="#F4F4F4"/><path id="Vector_9" d="M73.845 57.836c-.024-2.532.049-5.04-.049-7.579-.806-.366-1.62-.74-2.442-1.123-.57-.26-1.132-.53-1.701-.806-.074-.033-.147-.065-.212-.098-1.148-.619-1.115-2.173-1.555-3.272-.456-1.865-1.205-3.672-1.66-5.536-.285-1.18-.456-2.377-.359-3.623-3.313-.048-6.602-.024-9.89 0h-.033v.009l-.016-.017v4.079l.016.016c-.008 5.405-.057 10.819 0 16.224h-29.29a5.894 5.894 0 013.818 4.543c0 .016.008.04.008.056h25.537c.814-2.58 2.833-5.063 5.74-5.226 3.207-.464 6.178 1.995 6.878 5.064 2.117.024 4.233.024 6.341.024 0-.887.025-1.79.025-2.67-.39-.016-.757-.04-1.156-.065zm-13.521-9.94c-.025-2.466-.074-4.925.024-7.391 1.653 0 3.321-.025 4.974.048.651 2.443 1.44 4.86 2.092 7.319-2.377.049-4.722.024-7.09.024zm13.252 10.127a85.423 85.423 0 01-4.33.024 45.209 45.209 0 010-2.572 128.77 128.77 0 014.306 0c.049.863.049 1.71.024 2.548z" fill="#F4F4F4"/></g></g></g></g></g></g><path id="Vector_10" d="M51.156 40.635c0 7.53-6.106 13.636-13.636 13.636-7.53 0-13.635-6.106-13.635-13.636C23.885 33.105 29.99 27 37.52 27c7.53-.008 13.636 6.105 13.636 13.635z" fill="#0FC277"/><g id="Group_7"><path id="Vector_11" d="M26.775 40.636c0 5.935 4.811 10.746 10.746 10.746v-21.5c-5.935 0-10.746 4.82-10.746 10.754z" fill="#F9F6EC"/><path id="Vector_12" d="M37.522 29.883v21.499c5.934 0 10.745-4.811 10.745-10.746.008-5.934-4.811-10.753-10.745-10.753z" fill="#C4D8D1"/></g><g id="Group_8" fill="#3F4D50"><path id="Vector_13" d="M39.255 40.635a1.73 1.73 0 01-1.734 1.734 1.73 1.73 0 01-1.734-1.734c0-.96.773-1.734 1.734-1.734.96 0 1.734.773 1.734 1.734z"/><path id="Vector_14" d="M38.18 38.145c0 .228-.285.415-.635.415-.35 0-.635-.187-.635-.415v-6.326c0-.227.285-.415.635-.415.35 0 .635.188.635.416v6.325z"/><path id="Vector_15" d="M31.946 44.576c-.359.179-.798.008-.985-.366-.188-.383-.05-.83.3-1.01l3.51-1.734c.358-.179.797-.008.984.375.188.382.05.83-.3 1.01l-3.51 1.725z"/></g></g></g><rect x="1.25" y="1.25" width="90.5" height="90.5" rx="13.75" stroke="#B3CADF" stroke-width="2.5"/></g><defs><clipPath id="clip0_263_237"><rect width="93" height="93" rx="15" fill="#fff"/></clipPath></defs></svg>