<svg width="93" height="93" fill="none" xmlns="http://www.w3.org/2000/svg"><g id="Frame 1000005992"><g clip-path="url(#clip0_263_185)"><path id="Rectangle 12963" fill="#0075B6" d="M0 0h93v93H0z"/><g id="Group"><g id="Group_2"><g id="Group_3"><g id="Group_4"><path id="Vector" d="M18 26a2 2 0 00-2 2v37.1a2 2 0 002 2h57a2 2 0 002-2V28a2 2 0 00-2-2H18zm56.3 36.3a2 2 0 01-2 2H20.8a2 2 0 01-2-2V30.9a2 2 0 012-2h51.5a2 2 0 012 2v31.4z" fill="#36373A"/></g><g id="Group_5"><path id="Vector_2" d="M74.3 28.9H18.8v5.8h55.5v-5.8z" fill="#A2A2A2"/></g><g id="Group_6"><path id="Vector_3" d="M64.4 30.5h-2.5V33h2.5v-2.5z" fill="#FFD028"/></g><g id="Group_7"><path id="Vector_4" d="M68.1 30.5h-2.5V33h2.5v-2.5z" fill="#FFB800"/></g><g id="Group_8"><path id="Vector_5" d="M71.9 30.5h-2.5V33h2.5v-2.5z" fill="#FD692B"/></g><path id="Vector_6" d="M46.5 34.6H18.8v29.7h55.5V34.6H46.5z" fill="#fff"/></g><path id="Vector_7" d="M72 36.2H21.5v7.5H72v-7.5z" fill="#FFD028"/><path id="Vector_8" d="M58.2 45.7H21.5v16.9h36.7V45.7z" fill="#FFD028"/><path id="Vector_9" d="M72 45.7H60.4v16.9H72V45.7z" fill="#FFD028"/></g></g></g><rect x="1.25" y="1.25" width="90.5" height="90.5" rx="13.75" stroke="#B3CADF" stroke-width="2.5"/></g><defs><clipPath id="clip0_263_185"><rect width="93" height="93" rx="15" fill="#fff"/></clipPath></defs></svg>