<svg width="93" height="93" fill="none" xmlns="http://www.w3.org/2000/svg"><g id="Frame 1000005993"><g clip-path="url(#clip0_263_204)"><path id="Rectangle 12963" fill="#0075B6" d="M0 0h93v93H0z"/><g id="Group"><g id="Group_2"><path id="Vector" d="M72.5 77.5c4.694-4.694 4.694-12.306 0-17-4.694-4.694-12.306-4.694-17 0-4.694 4.694-4.694 12.306 0 17 4.694 4.694 12.306 4.694 17 0z" fill="#41A8E1"/></g><path id="Vector_2" d="M60.117 70.038c-.222.134-.436.269-.825.515a.344.344 0 00-.103.475l2.837 4.47a.344.344 0 00.476.102l.261-.166c.27-.174.547-.032.824 0 .523.055 1.078-.483 1.49-.745 1.34-.848 2.678-1.704 4.017-2.551.341-.215.738-.42 1.062-.674.365-.285.515-.848.301-1.26a.976.976 0 00-.792-.531l-.008-.016c.317-.27.285-.792.064-1.173-.262-.451-.77-.57-1.078-.475l.047-.008c.397-.349.468-.935.15-1.41a1.1 1.1 0 00-.823-.5l-.008-.031c.483-.389.5-1.023.158-1.561a1.218 1.218 0 00-1.688-.365c-.015.016-1.243.793-2.036 1.292-1.101.697-1.727.935-2.076.11-.531-1.251.08-2.131-1.236-2.884-1.165-.665-1.767-.27-1.403.84 0 0 .674 1.712.325 3.114-.182.745-.008 1.363.127 2.1.032.238.19 1.173-.063 1.332z" fill="#CAE4EF"/></g><g id="Clip path group"><mask id="mask0_263_204" style="mask-type:luminance" maskUnits="userSpaceOnUse" x="16" y="8" width="61" height="78"><g id="SVGID_00000009584407719648828340000009053560952503362718_"><path id="Vector_3" d="M48.1 85.96a4.288 4.288 0 004.286-4.285l24.563-29.877C78.346 25.776 50.464 8 48.101 8H20.285A4.288 4.288 0 0016 12.285v69.394a4.288 4.288 0 004.285 4.285H48.1v-.004z" fill="#fff"/></g></mask><g mask="url(#mask0_263_204)"><g id="Group_3"><path id="Vector_4" d="M22.728 57.27l2.747-1.144-3.073-6.42-2.368.928a1.354 1.354 0 00-.76 1.77l1.676 4.13a1.356 1.356 0 001.778.737z" fill="#FC5C65"/><g id="Group_4"><g id="Group_5"><path id="Vector_5" d="M36.743 76.54l3.45-1.336c1.025-.395 1.546-1.564 1.165-2.611l-5.111-14.07-6.241 2.414 4.153 14.295c.326 1.121 1.513 1.719 2.584 1.308z" fill="#FC5C65"/><path id="Vector_6" d="M31.72 61.84l3.952-1.483a2.038 2.038 0 001.191-2.62l-.624-1.669-7.81 2.465.641 2.014a2.032 2.032 0 002.65 1.292z" fill="#FC5C65"/><path id="Vector_7" d="M37.967 55.653c3.718-.756 13.118-1.96 25.119 1.67 0 0 0 .007.007 0 .804.244 1.615.504 2.438.795l-.109-.28-5.581-14.9-2.27-6.062-5.59-14.895v-.008l-.08-.221-.02-.05c-.027.05-.062.108-.097.158-.008.008-.012.008-.012.016a31.978 31.978 0 01-.885 1.506c-.008.008-.008.008-.011.015-6.8 11.116-15.005 16.526-18.273 18.366-.598.337-1.032.55-1.257.66-.12.062-.187.089-.187.089V42.5l-6.151 2.306a6.395 6.395 0 00-3.742 8.243l.59 1.58a6.404 6.404 0 008.244 3.753l6.151-2.306-.007-.007.264-.074c.267-.078.76-.206 1.459-.342z" fill="#FC5C65"/><path id="Vector_8" d="M37.173 55.822c-1.083-1.428-2.643-3.582-3.384-5.088-.796-1.61-1.502-5.856-1.902-8.589a19.58 19.58 0 01-.547.276c-.12.062-.186.09-.186.09v-.013l-6.152 2.306a6.395 6.395 0 00-3.741 8.243l.59 1.58a6.404 6.404 0 008.243 3.753l6.152-2.305-.008-.008.264-.074c.151-.047.38-.105.671-.17z" fill="#FFB800"/><g id="Group_6"><path id="Vector_9" d="M53.705 41.784c.411 1.098.85 2.158 1.3 3.178.09.194.167.385.256.57 3.675 8.02 8.434 13.282 11.348 12.188 3.35-1.258 3.012-10.437-.756-20.493-3.773-10.06-9.552-17.197-12.905-15.94-2.915 1.095-3.043 8.19-.54 16.647.059.198.125.392.183.597.334 1.068.702 2.15 1.114 3.253z" fill="#DB534A"/><path id="Vector_10" d="M51.543 38.862a62.68 62.68 0 001.133 3.307c.388 1.04.823 2.1 1.327 3.253l.117.263c.046.105.093.21.14.31 3.089 6.739 7.684 12.972 11.538 12.972.404 0 .803-.07 1.188-.214 2.127-.8 3.163-3.567 3-8.01-.148-3.986-1.254-8.92-3.12-13.891-1.867-4.972-4.274-9.416-6.785-12.517-2.798-3.454-5.402-4.859-7.53-4.063-4.055 1.521-3.527 10.126-1.202 17.977.03.109.066.214.1.322.032.086.063.179.094.291zm1.785-16.549c.12-.046.264-.07.423-.07.955 0 2.562.897 4.638 3.462 2.367 2.923 4.65 7.153 6.435 11.912 1.785 4.758 2.84 9.446 2.98 13.203.144 3.846-.725 5.562-1.583 5.884-1.898.714-6.26-3.524-9.97-11.624-.043-.09-.082-.182-.125-.276-.042-.097-.085-.198-.124-.279a62.952 62.952 0 01-1.277-3.124 61.504 61.504 0 01-1.184-3.486l-.089-.287c-2.526-8.542-2.033-14.6-.124-15.315z" fill="#FFB800"/></g></g></g><path id="Vector_11" d="M33.034 50.346c1.036 2.286 2.55 4.452 3.454 5.643.276-.073.769-.202 1.467-.337-1.001-1.157-2.53-3.152-3.578-5.593-1.266-2.958-1.67-6.664-1.79-8.298-.597.338-1.032.551-1.257.66.016.229.039.477.062.733v.012c.194 2.06.629 4.948 1.642 7.18z" fill="#fff"/><path id="Vector_12" d="M61.435 56.735c.004 0 .004 0 .008.004l.004.004h-.004l-.008-.008c-.019 0-.062.058-.085.089l.004.004.004.004-.008.008.012.011c.007.008.02.012.027.02.02.046.155-.171.09-.101l-.009-.012-.042-.058-.078-.101-.16-.202-.313-.4a49.57 49.57 0 01-1.22-1.634 60.916 60.916 0 01-2.277-3.365c-1.433-2.293-2.717-4.68-3.707-7.18-.512-1.238-.904-2.534-1.32-3.826-.415-1.293-.783-2.597-1.152-3.901a76.167 76.167 0 01-.963-3.951 34.092 34.092 0 01-.675-4.02c-.054 2.735.4 5.464.974 8.134a66.37 66.37 0 001.02 3.978c.393 1.308.785 2.624 1.301 3.912 1.036 2.562 2.383 4.98 3.951 7.23a41.731 41.731 0 002.511 3.257c.45.516.908 1.025 1.378 1.522l.023.023.699.559h.015z" fill="#fff"/><path id="Vector_13" d="M61.353 56.84l-.006-.005c-.016.016-.016.027.006.005z" fill="#fff"/><path id="Vector_14" d="M61.314 56.79l-.086-.094-.178-.182-.334-.35-.097-.077.714.737.008.008c0-.004.004-.004.004-.008l-.031-.035z" fill="#fff"/><path id="Vector_15" d="M61.233 56.7l.085.093.035.035c.02-.035.066-.093.086-.09l-.016-.011-.698-.559.333.35.175.182z" fill="#fff"/><path id="Vector_16" d="M26.134 47.23c-.87.36-1.731.745-2.554 1.222.92-.236 1.805-.566 2.678-.92.87-.36 1.731-.745 2.554-1.222-.924.24-1.805.57-2.678.92z" fill="#fff"/><path id="Vector_17" d="M29.286 55.36c-.87.361-1.73.746-2.554 1.223.92-.237 1.805-.567 2.678-.92.87-.36 1.731-.745 2.554-1.222-.92.236-1.805.566-2.678.92z" fill="#fff"/><path id="Vector_18" d="M28.733 49.282c.613-.248 1.223-.5 1.824-.783-.644.159-1.277.349-1.905.547-.633.194-1.254.411-1.879.632-.62.226-1.242.45-1.851.703-.613.248-1.223.5-1.824.784a32.76 32.76 0 001.905-.547 46.39 46.39 0 001.879-.633c.62-.225 1.242-.454 1.851-.703z" fill="#fff"/><path id="Vector_19" d="M29.651 52.404a36.528 36.528 0 001.824-.784c-.644.159-1.277.349-1.905.547-.633.194-1.254.411-1.879.633-.62.225-1.242.45-1.851.702-.613.248-1.223.5-1.824.784a31.53 31.53 0 001.905-.547 46.332 46.332 0 001.879-.633c.62-.225 1.242-.45 1.851-.702z" fill="#fff"/></g></g></g><g id="Group_7"><path id="Vector_20" d="M26.5 34C32.299 34 37 29.299 37 23.5S32.299 13 26.5 13 16 17.701 16 23.5 20.701 34 26.5 34z" fill="#41A8E1"/><path id="Vector_21" d="M26.904 28.884c1.303-.553 5.403-3.311 5.403-6.084 0-3.982-4.845-4.347-5.743-1.865a.06.06 0 01-.114 0c-.79-2.477-5.733-2.206-5.733 1.865 0 2.69 4.11 5.511 5.408 6.079a.995.995 0 00.78.005z" fill="#CAE4EF"/></g></g><rect x="1.25" y="1.25" width="90.5" height="90.5" rx="13.75" stroke="#B3CADF" stroke-width="2.5"/></g><defs><clipPath id="clip0_263_204"><rect width="93" height="93" rx="15" fill="#fff"/></clipPath></defs></svg>