<svg width="93" height="93" fill="none" xmlns="http://www.w3.org/2000/svg"><g id="Frame 1000005990"><g clip-path="url(#clip0_263_147)"><path id="Rectangle 12963" fill="#0075B6" d="M0 0h93v93H0z"/><g id="Group"><g id="Group_2"><path id="Vector" d="M68.076 39.766v.083c-.083 1.299-1.475 2.33-3.18 2.33h-.755c-1.742 0-3.151-1.077-3.188-2.413-.037 1.336-1.447 2.414-3.18 2.414h-.755c-1.742 0-3.151-1.078-3.179-2.414-.037 1.336-1.447 2.414-3.18 2.414h-.755c-1.741 0-3.151-1.078-3.179-2.414-.037 1.336-1.447 2.414-3.179 2.414h-.755c-1.742 0-3.152-1.078-3.189-2.414-.037 1.336-1.446 2.414-3.188 2.414h-.756c-1.732 0-3.142-1.069-3.179-2.405-.037 1.336-1.446 2.405-3.188 2.405h-.756c-1.732 0-3.142-1.069-3.179-2.405 0 .083-.009.166-.027.249-.194 1.216-1.53 2.156-3.161 2.156h-.783v29.67h50.432V42.18h-.525c-1.77 0-3.18-1.078-3.216-2.414z" fill="#fff"/><g id="Group_3"><path id="Vector_2" d="M21.357 30.642V42.18h.784c1.63 0 2.967-.94 3.16-2.156l.028-.25c.037 1.337 1.447 2.406 3.179 2.406h.756c1.732 0 3.142-1.069 3.188-2.405.037 1.336 1.447 2.405 3.179 2.405h.756c1.741 0 3.151-1.078 3.188-2.414.037 1.336 1.447 2.414 3.188 2.414h.756c1.741 0 3.151-1.078 3.179-2.414.037 1.336 1.447 2.414 3.179 2.414h.756c1.741 0 3.151-1.078 3.179-2.414.037 1.336 1.446 2.414 3.179 2.414h.755c1.742 0 3.152-1.078 3.18-2.414.036 1.336 1.446 2.414 3.188 2.414h.755c1.705 0 3.096-1.032 3.18-2.331v.037-.12c.036 1.336 1.446 2.414 3.178 2.414h.526V30.642H21.357z" fill="#D5D8D8"/><g id="Group_4"><path id="Vector_3" d="M27.393 40.134v26.621h.248l38.01-26.62H27.393z" fill="#282827"/><path id="Vector_4" d="M27.643 66.755h38.111v-26.62h-.101l-38.01 26.62z" fill="#3B3B3D"/></g></g><g id="Group_5"><path id="Vector_5" d="M47.494 20.221V18.01H40.37v6.524h.01v11.665c0 1.355 1.428 2.46 3.188 2.46h.755c1.76 0 3.188-1.096 3.188-2.46V20.48c-.009-.092-.009-.175-.018-.258z" fill="#FC5C65"/><path id="Vector_6" d="M54.62 20.405V18h-7.142v6.45h.01v11.74c0 1.354 1.428 2.46 3.188 2.46h.756c1.76 0 3.188-1.097 3.188-2.46V20.47c.009-.019 0-.037 0-.065z" fill="#fff"/><path id="Vector_7" d="M61.746 20.424V18.01h-7.123v18.189c0 1.355 1.428 2.46 3.188 2.46h.756c1.76 0 3.188-1.096 3.188-2.46V20.48c0-.018-.01-.037-.01-.055z" fill="#FC5C65"/><path id="Vector_8" d="M33.263 18.01h-4.396l-.101.027a9.183 9.183 0 00-2.672.507v.83c-2.23 2-2.516 5.326-2.516 5.326l2.516-.028v11.831l.027-.248c.037 1.336 1.447 2.405 3.18 2.405h.755c1.76 0 3.188-1.097 3.188-2.46V24.597h.01V18.01h.009z" fill="#FC5C65"/><path id="Vector_9" d="M25.33 18.848c-6.487 3.032-6.32 13.343-6.32 13.343s0 .009-.01.018v3.99c0 1.355 1.428 2.46 3.188 2.46h.756c1.63 0 2.967-.94 3.16-2.156V18.535a7.14 7.14 0 00-.774.313z" fill="#fff"/><g id="Group_6"><path id="Vector_10" d="M68.884 24.256l.866-.009-.866-1.28v-2.489c0-.027 0-.064-.01-.092v-1.852c-.93-.322-1.98-.507-3.169-.516h-.157l-.009-.01h-3.787v18.19c0 1.355 1.428 2.46 3.188 2.46h.756c1.704 0 3.096-1.031 3.179-2.33v.036-.073c0-.028.009-.065.009-.093V24.256z" fill="#fff"/><path id="Vector_11" d="M68.877 36.2v.156c.11 1.28 1.484 2.294 3.179 2.294h.01c-1.76.01-3.18-1.087-3.189-2.45z" fill="#FC5C65"/><path id="Vector_12" d="M75.99 32.19s.166-10.301-6.311-13.342h-.01c-.258-.12-.516-.221-.792-.323V36.2c0 1.354 1.428 2.46 3.188 2.46h.747c1.76 0 3.188-1.097 3.188-2.46v-3.99c0-.01-.01-.019-.01-.019z" fill="#FC5C65"/></g><path id="Vector_13" d="M40.369 20.304V18h-7.105v2.212a2.466 2.466 0 00-.018.258v15.72c0 1.354 1.428 2.46 3.188 2.46h.756c1.76 0 3.188-1.097 3.188-2.46V20.47c0-.047-.009-.102-.009-.166z" fill="#fff"/></g><path id="Vector_14" d="M73.614 73.198a2.143 2.143 0 01-2.147 2.147H21.68a2.143 2.143 0 01-2.147-2.147c0-1.189.958-2.147 2.147-2.147h49.778a2.15 2.15 0 012.156 2.147z" fill="#3B3B3D"/></g><g id="Group_7"><g id="Group_8"><g id="Group_9"><path id="Vector_15" d="M55.643 61.836c.884 0 1.594-.673 1.594-1.493v-8.21c0-.82-.719-1.493-1.594-1.493H39.407c-.885 0-1.594.673-1.594 1.493v8.21c0 .82.718 1.493 1.594 1.493h16.236z" fill="#C1E0DA"/><path id="Vector_16" d="M56.426 49.544H38.605a2.037 2.037 0 00-2.037 2.037v9.546c0 1.124.913 2.036 2.037 2.036h17.82a2.037 2.037 0 002.037-2.036V51.58a2.043 2.043 0 00-2.036-2.037zm1.336 10.938c0 1.106-.94 2-2.101 2H39.425a2.17 2.17 0 01-1.014-.25c-.663-.34-1.124-1.004-1.124-1.769v-8.219c0-1.106.94-2 2.101-2h16.236c.369 0 .719.093 1.014.25.663.34 1.124 1.004 1.124 1.769v8.219z" fill="#FC5C65"/><path id="Vector_17" d="M37.315 60.482v-8.21c0-1.106.94-2 2.1-2h16.237c.36 0 .69.083.986.23a2.198 2.198 0 00-1.014-.248H39.388c-1.161 0-2.1.903-2.1 2v8.219a1.98 1.98 0 001.123 1.769c-.654-.341-1.096-1.005-1.096-1.76z" fill="#FC5C65"/><g id="Group_10" fill="#FC5C65"><path id="Vector_18" d="M49.438 56.971h1.787v-1.115h-1.787v-1.262h1.898v-1.125h-3.004v6.073h3.105v-1.124h-2V56.97z"/><path id="Vector_19" d="M55.38 55.247c0 .912.018 1.732.092 2.534h-.019a22.558 22.558 0 00-.792-2.082l-1.014-2.221h-1.29v6.072h1.014v-1.824c0-.995-.018-1.843-.046-2.645l.018-.01c.24.71.563 1.494.848 2.148l1.041 2.34h1.161v-6.072H55.38v1.76z"/><path id="Vector_20" d="M46.939 53.911c-.323-.322-.811-.488-1.493-.488-.673 0-1.152.055-1.493.13v5.989h1.097v-2.175c.101.018.23.028.378.028.654 0 1.207-.194 1.584-.636.286-.341.452-.848.452-1.438-.01-.599-.212-1.105-.525-1.41zm-1.52 2.433c-.157 0-.277-.01-.37-.037V54.52c.084-.028.231-.056.452-.056.553 0 .857.332.857.894.01.617-.36.986-.94.986z"/><path id="Vector_21" d="M40.748 53.377c-1.437 0-2.377 1.364-2.377 3.18 0 1.732.848 3.086 2.294 3.086 1.429 0 2.396-1.207 2.396-3.197.01-1.677-.81-3.069-2.313-3.069zm-.018 5.17c-.737 0-1.189-.839-1.189-2.028 0-1.18.433-2.064 1.18-2.064.755 0 1.18.94 1.18 2.028 0 1.188-.425 2.064-1.171 2.064z"/></g></g><path id="Vector_22" d="M46.162 46.677c.193.184.46.295.746.295.313 0 .59-.13.792-.332l4.884 2.912h1.65l-6.22-3.713a1.098 1.098 0 00-2.193.036v.019l-5.381 3.658h1.51l4.212-2.875z" fill="#fff"/></g><path id="Vector_23" d="M45.752 45.867a1.142 1.142 0 101.143-1.142 1.154 1.154 0 00-1.143 1.142z" fill="#FC5C65"/></g></g></g><rect x="1.25" y="1.25" width="90.5" height="90.5" rx="13.75" stroke="#B3CADF" stroke-width="2.5"/></g><defs><clipPath id="clip0_263_147"><rect width="93" height="93" rx="15" fill="#fff"/></clipPath></defs></svg>