<svg width="680" height="694" fill="none" xmlns="http://www.w3.org/2000/svg"><path fill-rule="evenodd" clip-rule="evenodd" d="M486.397 385.619L346.199 543.763c-16.892 19.588-15.197 48.684 3.953 67.89 19.588 16.892 48.684 15.197 66.952-5.33l140.198-158.144c16.891-19.588 15.197-48.684-5.33-66.951-18.211-17.831-48.684-15.197-65.575 4.391zM387.798 108L134.366 395.814c-16.891 19.588-15.197 48.684 3.953 67.89 19.588 16.891 48.684 15.197 67.891-3.953l253.432-287.813c16.892-19.588 15.197-48.684-3.953-67.891-20.527-18.268-50.999-15.635-67.891 3.953zm-187.401 20.931c16.892-19.588 47.364-22.221 67.891-3.953 19.588 16.891 22.221 47.363 3.954 67.89L132.043 351.012c-16.891 19.588-47.363 22.221-67.89 3.953-19.588-16.891-22.221-47.363-3.954-67.89l140.198-158.144zm261.568 87.809c16.892-19.588 47.364-22.222 67.89-3.954 19.589 16.891 22.222 47.364 3.954 67.89L280.377 568.49c-16.892 19.588-47.364 22.221-67.891 3.953-19.588-16.891-22.221-47.364-3.953-67.891L461.965 216.74z" fill="#fff" fill-opacity=".05"/></svg>