<svg width="221" height="32" fill="none" xmlns="http://www.w3.org/2000/svg"><g id="Group 38251"><path d="M50.401 21.939l.57-2.589h8.412l.596 2.589H50.4zm4.737-8.335l-2.847 6.652-.052.673-2.51 5.669h-3.443l8.852-19.129 8.853 19.129h-3.443l-2.459-5.513-.078-.751-2.873-6.73zm13.497 1.087v11.907h-2.77V14.691h2.77zm3.547 2.977a3.609 3.609 0 00-.725-.466c-.224-.104-.51-.155-.854-.155-.466 0-.846.12-1.14.362-.293.242-.508.578-.646 1.01-.121.414-.182.905-.182 1.475l-.931-.544c0-.949.172-1.786.517-2.51.363-.743.82-1.33 1.372-1.76.57-.432 1.156-.648 1.76-.648.432 0 .837.07 1.217.207.38.121.699.345.958.673l-1.346 2.356zm5.982-10.354v19.284h-2.821V7.314h2.821zm9.862 13.33c0 1.295-.267 2.408-.802 3.34-.535.931-1.243 1.648-2.123 2.148a5.873 5.873 0 01-2.873.725c-.984 0-1.864-.25-2.64-.75-.76-.501-1.355-1.217-1.786-2.15-.432-.931-.648-2.035-.648-3.313 0-1.294.216-2.398.648-3.313.431-.932 1.026-1.648 1.786-2.148.776-.5 1.656-.75 2.64-.75 1.035 0 1.993.25 2.873.75.88.483 1.588 1.19 2.123 2.122.535.915.802 2.028.802 3.34zm-2.899 0c0-.793-.164-1.475-.492-2.044a3.287 3.287 0 00-1.32-1.295 3.652 3.652 0 00-1.786-.44c-.535 0-1.061.147-1.579.44-.518.294-.949.725-1.294 1.295-.328.552-.492 1.233-.492 2.044 0 .812.164 1.502.492 2.071.345.552.776.975 1.294 1.269.518.293 1.044.44 1.579.44.656 0 1.251-.147 1.786-.44a3.282 3.282 0 001.32-1.295c.328-.57.492-1.25.492-2.044zm5.458-10.69c0-.483.173-.889.518-1.216a1.8 1.8 0 011.242-.492c.5 0 .915.164 1.243.492.345.327.518.733.518 1.216 0 .466-.173.872-.518 1.217-.328.328-.742.492-1.243.492a1.8 1.8 0 01-1.242-.492 1.665 1.665 0 01-.518-1.217zm.389 4.737h2.743v11.907h-2.743V14.691zm4.934 0h6.756v2.46h-6.756v-2.46zm1.993-4.142h2.77v16.049h-2.77V10.55zm9.46 4.142v11.907h-2.769V14.691h2.769zm3.547 2.977a3.626 3.626 0 00-.725-.466c-.225-.104-.509-.155-.854-.155-.466 0-.846.12-1.139.362-.294.242-.509.578-.647 1.01-.121.414-.182.905-.182 1.475l-.931-.544c0-.949.172-1.786.517-2.51.363-.743.82-1.33 1.372-1.76.57-.432 1.156-.648 1.76-.648.432 0 .837.07 1.217.207.38.121.699.345.958.673l-1.346 2.356zm1.979 2.977c0-1.226.276-2.304.828-3.236a5.946 5.946 0 012.304-2.174c.966-.535 2.062-.803 3.287-.803 1.226 0 2.313.268 3.262.803a5.946 5.946 0 012.304 2.174c.569.932.854 2.01.854 3.236 0 1.207-.285 2.286-.854 3.235a6.14 6.14 0 01-2.304 2.2c-.949.518-2.036.777-3.262.777-1.225 0-2.321-.259-3.287-.777a6.14 6.14 0 01-2.304-2.2c-.552-.949-.828-2.027-.828-3.235zm2.873 0c0 .742.155 1.397.466 1.967.311.552.734.992 1.268 1.32.535.31 1.139.466 1.812.466.656 0 1.251-.155 1.786-.466a3.518 3.518 0 001.295-1.32c.31-.57.466-1.225.466-1.967s-.156-1.398-.466-1.968a3.286 3.286 0 00-1.295-1.32 3.49 3.49 0 00-1.786-.466c-.673 0-1.277.156-1.812.466-.534.31-.957.75-1.268 1.32-.311.57-.466 1.226-.466 1.968zm11.712 0c0-1.226.277-2.304.829-3.236a5.937 5.937 0 012.303-2.174c.967-.535 2.063-.803 3.288-.803 1.225 0 2.312.268 3.261.803a5.932 5.932 0 012.304 2.174c.57.932.854 2.01.854 3.236 0 1.207-.284 2.286-.854 3.235a6.125 6.125 0 01-2.304 2.2c-.949.518-2.036.777-3.261.777s-2.321-.259-3.288-.777a6.13 6.13 0 01-2.303-2.2c-.552-.949-.829-2.027-.829-3.235zm2.874 0c0 .742.155 1.397.466 1.967.31.552.733.992 1.268 1.32.535.31 1.139.466 1.812.466.656 0 1.251-.155 1.786-.466a3.523 3.523 0 001.294-1.32c.311-.57.466-1.225.466-1.967s-.155-1.398-.466-1.968a3.29 3.29 0 00-1.294-1.32 3.49 3.49 0 00-1.786-.466c-.673 0-1.277.156-1.812.466-.535.31-.958.75-1.268 1.32-.311.57-.466 1.226-.466 1.968zm29.65-1.605v7.558H157.2V19.35c0-.897-.164-1.561-.491-1.993-.311-.448-.811-.673-1.502-.673-.466 0-.88.104-1.242.31a2.225 2.225 0 00-.828.907c-.19.397-.285.88-.285 1.45v7.247h-2.796V19.35c0-.897-.164-1.561-.492-1.993-.31-.448-.811-.673-1.501-.673-.483 0-.906.104-1.268.31a2.063 2.063 0 00-.803.907c-.189.397-.284.88-.284 1.45v7.247h-2.744V14.691h2.744v1.734c.345-.655.793-1.147 1.346-1.475.569-.345 1.233-.518 1.993-.518.88 0 1.605.181 2.174.544.587.362 1.01.888 1.268 1.579.415-.69.932-1.217 1.553-1.58.639-.362 1.364-.543 2.175-.543.845 0 1.544.181 2.096.544.57.345.993.863 1.269 1.553.276.69.414 1.527.414 2.51zm11.563-11.467h3.054v16.281h7.196v2.744h-10.25V7.573zm13.989 15.323c0 .397.095.742.285 1.036.19.276.448.483.776.621.345.138.734.207 1.165.207.552 0 1.053-.112 1.501-.336a2.67 2.67 0 001.113-.984c.294-.449.441-.966.441-1.553l.414 1.553c0 .76-.225 1.398-.673 1.915-.432.501-.984.88-1.657 1.14a5.798 5.798 0 01-2.019.362 4.902 4.902 0 01-2.071-.44 3.61 3.61 0 01-1.527-1.294c-.38-.57-.569-1.26-.569-2.071 0-1.156.405-2.071 1.216-2.744.811-.69 1.959-1.035 3.443-1.035.794 0 1.475.086 2.045.259.586.172 1.07.38 1.449.62.38.225.647.432.803.622v1.424a5.594 5.594 0 00-1.709-.829 6.936 6.936 0 00-1.915-.259c-.587 0-1.061.078-1.424.233-.362.139-.638.337-.828.596-.173.259-.259.578-.259.957zm-.88-5.099l-1.139-1.967c.535-.328 1.225-.647 2.071-.958.863-.31 1.846-.466 2.951-.466.983 0 1.846.147 2.588.44.759.294 1.355.716 1.786 1.269.432.535.647 1.199.647 1.993v8.49h-2.743v-7.947c0-.38-.069-.69-.208-.931a1.56 1.56 0 00-.517-.596 2.257 2.257 0 00-.803-.336 4.646 4.646 0 00-1.009-.104c-.552 0-1.079.07-1.579.207a5.718 5.718 0 00-1.268.466 6.65 6.65 0 00-.777.44zm14.881-10.483v19.284h-2.821V7.314h2.821zm9.862 13.33c0 1.295-.267 2.408-.802 3.34-.535.931-1.243 1.648-2.123 2.148a5.87 5.87 0 01-2.873.725c-.983 0-1.864-.25-2.64-.75-.759-.501-1.355-1.217-1.786-2.15-.432-.931-.647-2.035-.647-3.313 0-1.294.215-2.398.647-3.313.431-.932 1.027-1.648 1.786-2.148.776-.5 1.657-.75 2.64-.75 1.036 0 1.993.25 2.873.75.88.483 1.588 1.19 2.123 2.122.535.915.802 2.028.802 3.34zm-2.899 0c0-.793-.164-1.475-.492-2.044a3.274 3.274 0 00-1.32-1.295 3.651 3.651 0 00-1.786-.44c-.535 0-1.061.147-1.579.44-.517.294-.949.725-1.294 1.295-.328.552-.492 1.233-.492 2.044 0 .812.164 1.502.492 2.071a3.64 3.64 0 001.294 1.269c.518.293 1.044.44 1.579.44.656 0 1.251-.147 1.786-.44a3.27 3.27 0 001.32-1.295c.328-.57.492-1.25.492-2.044zm6.106 2.046c.379.414.759.776 1.139 1.087.396.293.793.517 1.19.673.397.138.794.207 1.191.207.5 0 .889-.113 1.165-.337.293-.224.44-.535.44-.932 0-.345-.112-.638-.337-.88-.224-.259-.535-.474-.932-.647-.396-.19-.862-.38-1.397-.57a16.424 16.424 0 01-1.605-.724 4.108 4.108 0 01-1.294-1.14c-.328-.465-.492-1.052-.492-1.76 0-.724.181-1.328.543-1.811.38-.483.88-.837 1.502-1.061a5.727 5.727 0 012.045-.363c.655 0 1.268.095 1.837.285a6.35 6.35 0 011.579.75c.466.311.863.665 1.191 1.062l-1.553 1.657a4.829 4.829 0 00-1.424-1.14 3.596 3.596 0 00-1.708-.44c-.397 0-.725.087-.984.26-.259.172-.388.422-.388.75 0 .276.112.526.336.75.242.208.553.398.932.57.397.173.837.354 1.32.544.656.258 1.26.543 1.812.854.553.31.993.69 1.321 1.139.345.449.517 1.035.517 1.76 0 1.122-.388 2.028-1.165 2.718-.759.673-1.794 1.01-3.106 1.01a6.766 6.766 0 01-2.252-.363 7.112 7.112 0 01-1.786-.984 8.13 8.13 0 01-1.268-1.294l1.631-1.63z" id="Arbitroom Labs" fill="#fff"/><g id="Group 38250"><path id="A" d="M6.066 25.85H.954L15.404.633 29.851 25.85H24.74L15.403 9.56 6.066 25.85z" fill="#fff"/><g id="Mask group"><mask id="mask0_408_765" style="mask-type:alpha" maskUnits="userSpaceOnUse" x="0" y="25" width="31" height="7"><rect id="Rectangle 3656" y="25.021" width="30.806" height="6.846" rx="3.423" fill="#D9D9D9"/></mask><g mask="url(#mask0_408_765)"><g id="Group 38248" fill="#fff"><path id="Rectangle 3653" d="M-.817 26.732h32.441v1.09H-.817z"/><path id="Rectangle 3654" d="M-.817 28.678h32.441v1.09H-.817z"/><path id="Rectangle 3655" d="M-.817 30.624h32.441v1.09H-.817z"/></g></g></g><path id="Rectangle 3657" fill="#fff" d="M6.815 18.626h16.902v4.362H6.815z"/></g></g></svg>