<svg width="73" height="73" fill="none" xmlns="http://www.w3.org/2000/svg"><circle cx="36.737" cy="36.737" r="2.737" fill="#A6AE4F"/><path d="M6 14v17h17m44 28V42H50" stroke="#2D2C33" stroke-width="4" stroke-linecap="round" stroke-linejoin="round"/><path d="M60.04 28.331a24.488 24.488 0 00-6.947-10.142 25.12 25.12 0 00-11.07-5.585 25.396 25.396 0 00-12.442.361 25.054 25.054 0 00-10.715 6.217L6 31.054m61 10.892L54.135 53.818a25.054 25.054 0 01-10.716 6.217 25.396 25.396 0 01-12.441.36 25.12 25.12 0 01-11.072-5.584 24.488 24.488 0 01-6.946-10.142" stroke="#2D2C33" stroke-width="4" stroke-linecap="round" stroke-linejoin="round"/></svg>