<svg width="73" height="73" fill="none" xmlns="http://www.w3.org/2000/svg"><path d="M58.167 9.417H14.833a5.417 5.417 0 00-5.416 5.416v10.834a5.417 5.417 0 005.416 5.416h43.334a5.417 5.417 0 005.416-5.416V14.833a5.417 5.417 0 00-5.416-5.416zm0 32.5H14.833a5.417 5.417 0 00-5.416 5.416v10.834a5.417 5.417 0 005.416 5.416h43.334a5.417 5.417 0 005.416-5.416V47.333a5.417 5.417 0 00-5.416-5.416z" stroke="#2D2C33" stroke-width="4" stroke-linecap="round" stroke-linejoin="round"/><path d="M20.25 20.25h.027m-.027 32.5h.027" stroke="#A6AE4F" stroke-width="5.5" stroke-linecap="round" stroke-linejoin="round"/></svg>