<svg width="160" height="53" fill="none" xmlns="http://www.w3.org/2000/svg"><path d="M160 37c0 5.6 0 8.4-1.09 10.54a10 10 0 01-4.37 4.37C152.401 53 149.601 53 144 53H16c-5.6 0-8.4 0-10.54-1.09a10 10 0 01-4.37-4.37C0 45.4 0 42.6 0 37V16c0-5.6 0-8.4 1.09-10.54a10 10 0 014.37-4.37C7.6 0 10.4 0 16 0h128c5.601 0 8.401 0 10.54 1.09a10 10 0 014.37 4.37C160 7.6 160 10.4 160 16v21z" fill="#727927"/><path d="M160 37c0 5.6 0 8.4-1.09 10.54a10 10 0 01-4.37 4.37C152.401 53 149.601 53 144 53H16c-5.6 0-8.4 0-10.54-1.09a10 10 0 01-4.37-4.37C0 45.4 0 42.6 0 37V16c0-5.6 0-8.4 1.09-10.54a10 10 0 014.37-4.37C7.6 0 10.4 0 16 0h128c5.601 0 8.401 0 10.54 1.09a10 10 0 014.37 4.37C160 7.6 160 10.4 160 16v21z" fill="url(#paint0_linear_1_494)" fill-opacity=".2"/><path d="M80.758 28.074c-2.785 0-5.06 2.122-5.06 5.037 0 2.904 2.275 5.037 5.06 5.037 2.786 0 5.061-2.133 5.061-5.037 0-2.915-2.275-5.037-5.06-5.037zm0 8.095c-1.528 0-2.844-1.256-2.844-3.058 0-1.813 1.316-3.058 2.844-3.058 1.53 0 2.845 1.245 2.845 3.058 0 1.802-1.328 3.058-2.844 3.058zm-11.045-8.095c-2.786 0-5.061 2.122-5.061 5.037 0 2.904 2.275 5.037 5.06 5.037 2.786 0 5.061-2.133 5.061-5.037 0-2.915-2.275-5.037-5.06-5.037zm0 8.095c-1.53 0-2.845-1.256-2.845-3.058 0-1.813 1.316-3.058 2.845-3.058 1.528 0 2.844 1.245 2.844 3.058 0 1.802-1.316 3.058-2.844 3.058zM56.58 29.627v2.133h5.12c-.154 1.197-.557 2.086-1.162 2.69-.746.747-1.908 1.565-3.946 1.565-3.153 0-5.618-2.537-5.618-5.69 0-3.152 2.465-5.688 5.618-5.688 1.694 0 2.939.664 3.851 1.529l1.506-1.505c-1.28-1.221-2.975-2.157-5.37-2.157-4.313 0-7.94 3.508-7.94 7.834 0 4.314 3.627 7.834 7.94 7.834 2.336 0 4.09-.759 5.464-2.193 1.41-1.41 1.85-3.401 1.85-5.001a6.4 6.4 0 00-.12-1.34H56.58v-.011zm53.7 1.659c-.414-1.126-1.694-3.212-4.314-3.212-2.595 0-4.752 2.039-4.752 5.037 0 2.82 2.133 5.037 5.001 5.037 2.311 0 3.651-1.41 4.196-2.228l-1.719-1.15c-.569.842-1.351 1.399-2.477 1.399s-1.932-.522-2.441-1.529l6.743-2.785-.237-.57zm-6.874 1.683c-.059-1.944 1.506-2.94 2.631-2.94.878 0 1.624.44 1.873 1.067l-4.504 1.873zm-5.475 4.883h2.216V23.037h-2.216v14.815zM94.305 29.2h-.083c-.498-.593-1.446-1.126-2.655-1.126-2.524 0-4.835 2.216-4.835 5.06 0 2.822 2.31 5.026 4.835 5.026 1.197 0 2.157-.533 2.655-1.15h.071v.723c0 1.932-1.03 2.963-2.69 2.963-1.351 0-2.193-.972-2.536-1.79l-1.932.807c.557 1.339 2.026 2.974 4.468 2.974 2.596 0 4.788-1.529 4.788-5.25v-9.055h-2.098v.818h.012zm-2.548 6.969c-1.529 0-2.809-1.28-2.809-3.034 0-1.778 1.28-3.07 2.809-3.07 1.505 0 2.69 1.304 2.69 3.07.012 1.754-1.173 3.034-2.69 3.034zm28.907-13.132h-5.298v14.815h2.216v-5.618h3.094c2.453 0 4.859-1.778 4.859-4.598 0-2.821-2.43-4.599-4.871-4.599zm.047 7.135h-3.141v-5.085h3.141c1.659 0 2.596 1.375 2.596 2.537 0 1.161-.937 2.548-2.596 2.548zm13.677-2.122c-1.6 0-3.259.712-3.947 2.264l1.968.818c.415-.818 1.197-1.09 2.015-1.09 1.137 0 2.311.687 2.323 1.908v.154c-.403-.226-1.257-.57-2.311-.57-2.122 0-4.267 1.162-4.267 3.331 0 1.98 1.73 3.26 3.674 3.26 1.481 0 2.311-.664 2.821-1.447h.071v1.15h2.133v-5.677c.012-2.631-1.955-4.1-4.48-4.1zm-.272 8.119c-.723 0-1.731-.367-1.731-1.256 0-1.138 1.256-1.577 2.347-1.577.972 0 1.434.214 2.015.498-.166 1.363-1.351 2.335-2.631 2.335zm12.539-7.799l-2.537 6.424h-.071l-2.631-6.424h-2.382l3.947 8.984-2.252 4.99h2.311l6.08-13.974h-2.465zm-19.911 9.482h2.216V23.037h-2.216v14.815zM12.373 11.233c-.343.367-.545.936-.545 1.659v26.216c0 .735.202 1.304.545 1.66l.083.082 14.685-14.672v-.356L12.456 11.15l-.083.083zM33.284 32L28 26.21v-.42L33.284 20l.116.07 6.257 3.897c1.79 1.108 1.79 2.93 0 4.052L33.4 31.916l-.116.084zm-1.142.187l-5.001-5.002-14.768 14.768c.546.58 1.446.651 2.466.07l17.303-9.836zm0-12.374L14.827 9.976c-1.02-.58-1.92-.51-2.466.071l14.78 14.768 5.001-5.002z" fill="#fff"/><path d="M56.201 14.433c0 .995-.296 1.79-.888 2.37-.664.7-1.541 1.055-2.608 1.055-1.031 0-1.896-.356-2.62-1.067-.722-.711-1.078-1.6-1.078-2.643 0-1.055.356-1.932 1.079-2.643.723-.71 1.588-1.067 2.62-1.067.509 0 .995.095 1.457.297.462.201.83.462 1.114.794l-.628.628c-.474-.557-1.114-.841-1.944-.841-.746 0-1.398.26-1.944.794-.545.521-.817 1.209-.817 2.05 0 .841.272 1.529.817 2.05.546.522 1.197.794 1.944.794.794 0 1.458-.26 1.991-.794.344-.343.545-.83.593-1.446h-2.584v-.853h3.449c.024.178.047.356.047.522zm5.464-2.963H58.43v2.252h2.915v.853H58.43v2.252h3.235v.877h-4.148v-7.111h4.148v.877zm3.852 6.234h-.913V11.47h-1.99v-.877h4.882v.877h-1.99v6.234h.011zm5.523 0v-7.111h.912v7.11h-.912zm4.966 0h-.913V11.47h-1.99v-.877h4.882v.877h-1.991v6.234h.012zm11.235-.924c-.699.722-1.564 1.078-2.607 1.078-1.043 0-1.908-.356-2.607-1.079-.7-.723-1.043-1.6-1.043-2.63 0-1.032.343-1.92 1.043-2.632.699-.723 1.564-1.079 2.607-1.079 1.031 0 1.896.356 2.607 1.079.7.723 1.055 1.6 1.055 2.631-.012 1.043-.355 1.92-1.055 2.631zm-4.539-.593c.522.533 1.174.794 1.932.794.759 0 1.41-.261 1.932-.794.521-.534.794-1.21.794-2.039 0-.83-.26-1.505-.794-2.038-.522-.534-1.173-.794-1.932-.794-.758 0-1.41.26-1.932.794-.521.533-.794 1.209-.794 2.038 0 .83.273 1.505.794 2.039zm6.874 1.517v-7.111h1.114l3.461 5.534h.036l-.036-1.374v-4.16h.913v7.11h-.948L90.5 11.909h-.036l.036 1.375v4.42h-.925z" fill="#fff" stroke="#fff" stroke-width=".2" stroke-miterlimit="10"/><defs><linearGradient id="paint0_linear_1_494" x1="27" y1="-19" x2="103" y2="76" gradientUnits="userSpaceOnUse"><stop stop-color="#fff"/><stop offset="1" stop-color="#fff" stop-opacity="0"/></linearGradient></defs></svg>