<svg width="160" height="53" fill="none" xmlns="http://www.w3.org/2000/svg"><rect x=".5" y=".5" width="159" height="52" rx="9.5" stroke="#727927"/><path d="M33.118 27.144a6.616 6.616 0 013.15-5.552 6.774 6.774 0 00-5.336-2.885c-2.245-.236-4.422 1.344-5.566 1.344-1.166 0-2.928-1.32-4.825-1.281a7.106 7.106 0 00-5.98 3.647c-2.586 4.477-.657 11.057 1.82 14.676 1.24 1.772 2.688 3.751 4.583 3.681 1.854-.077 2.547-1.182 4.786-1.182 2.218 0 2.867 1.182 4.801 1.138 1.99-.033 3.244-1.78 4.44-3.57a14.66 14.66 0 002.03-4.134 6.394 6.394 0 01-3.903-5.882zm-3.653-10.817a6.515 6.515 0 001.49-4.667 6.628 6.628 0 00-4.288 2.219 6.199 6.199 0 00-1.53 4.494 5.482 5.482 0 004.328-2.046zm27.096 19.961h-6.329l-1.52 4.488h-2.68l5.995-16.604h2.785l5.994 16.604H58.08l-1.519-4.488zm-5.673-2.07h5.017l-2.473-7.284h-.07l-2.474 7.283zm22.865.506c0 3.762-2.014 6.178-5.052 6.178a4.103 4.103 0 01-3.809-2.117h-.057v5.996H62.35V28.67h2.405v2.013h.046a4.295 4.295 0 013.854-2.14c3.072 0 5.098 2.428 5.098 6.18zm-2.554 0c0-2.451-1.267-4.062-3.2-4.062-1.898 0-3.175 1.645-3.175 4.062 0 2.439 1.277 4.072 3.176 4.072 1.932 0 3.199-1.6 3.199-4.072zm15.877 0c0 3.762-2.013 6.178-5.051 6.178a4.103 4.103 0 01-3.81-2.117h-.057v5.996h-2.485V28.67h2.406v2.013h.045a4.294 4.294 0 013.855-2.14c3.072 0 5.097 2.428 5.097 6.18zm-2.554 0c0-2.451-1.266-4.062-3.199-4.062-1.898 0-3.175 1.645-3.175 4.062 0 2.439 1.277 4.072 3.175 4.072 1.933 0 3.2-1.6 3.2-4.072zm11.36 1.426c.184 1.646 1.784 2.727 3.97 2.727 2.094 0 3.601-1.081 3.601-2.566 0-1.288-.909-2.06-3.061-2.589l-2.151-.518c-3.05-.737-4.465-2.163-4.465-4.476 0-2.865 2.497-4.833 6.042-4.833 3.508 0 5.914 1.968 5.995 4.833h-2.509c-.15-1.657-1.52-2.658-3.521-2.658-2.002 0-3.372 1.012-3.372 2.485 0 1.174.875 1.865 3.015 2.394l1.829.449c3.407.805 4.823 2.174 4.823 4.603 0 3.106-2.475 5.052-6.41 5.052-3.683 0-6.169-1.9-6.33-4.904h2.544zm15.558-10.345v2.865h2.302v1.968h-2.302v6.674c0 1.036.461 1.52 1.473 1.52.273-.005.546-.024.817-.058v1.956a6.809 6.809 0 01-1.38.115c-2.451 0-3.406-.92-3.406-3.268v-6.939h-1.76V28.67h1.76v-2.865h2.496zm3.635 8.919c0-3.81 2.244-6.203 5.742-6.203 3.51 0 5.742 2.394 5.742 6.203 0 3.819-2.221 6.202-5.742 6.202s-5.742-2.383-5.742-6.202zm8.953 0c0-2.613-1.198-4.155-3.211-4.155-2.014 0-3.21 1.554-3.21 4.155 0 2.623 1.196 4.153 3.21 4.153 2.013 0 3.211-1.53 3.211-4.153zm4.58-6.054h2.37v2.06h.057a2.893 2.893 0 012.912-2.186c.287-.001.572.03.852.092v2.325a3.48 3.48 0 00-1.117-.15 2.503 2.503 0 00-2.589 2.785v7.18h-2.485V28.67zm17.647 8.55c-.334 2.198-2.474 3.706-5.212 3.706-3.522 0-5.708-2.36-5.708-6.145 0-3.797 2.198-6.26 5.603-6.26 3.349 0 5.456 2.301 5.456 5.972v.85h-8.55v.151a3.149 3.149 0 003.256 3.429 2.737 2.737 0 002.796-1.703h2.359zm-8.4-3.613h6.052a2.899 2.899 0 00-.813-2.185 2.912 2.912 0 00-2.156-.887 3.065 3.065 0 00-3.083 3.072zM50.577 11.674a3.53 3.53 0 013.754 3.964c0 2.55-1.378 4.014-3.755 4.014h-2.881v-7.978h2.882zm-1.643 6.85h1.504a2.507 2.507 0 002.631-2.87 2.513 2.513 0 00-2.63-2.852h-1.505v5.722zm6.796-1.884a2.854 2.854 0 012.84-3.125 2.853 2.853 0 012.839 3.124 2.853 2.853 0 11-5.679 0zm4.457 0c0-1.306-.587-2.07-1.615-2.07-1.033 0-1.614.764-1.614 2.07 0 1.315.58 2.072 1.614 2.072 1.028 0 1.615-.762 1.615-2.073zm8.77 3.012h-1.232l-1.245-4.434h-.094l-1.239 4.434h-1.22l-1.66-6.02h1.205l1.078 4.594h.09l1.237-4.595h1.14l1.238 4.595h.094l1.073-4.595h1.188l-1.653 6.021zm3.049-6.021h1.144v.957h.089a1.803 1.803 0 011.797-1.073 1.959 1.959 0 012.084 2.24v3.897h-1.19v-3.6c0-.967-.42-1.448-1.299-1.448a1.381 1.381 0 00-1.438 1.526v3.522h-1.188v-6.02zm7.007-2.35H80.2v8.371h-1.188v-8.37zm2.84 5.359a2.853 2.853 0 115.68 0 2.853 2.853 0 11-5.68 0zm4.456 0c0-1.306-.586-2.07-1.615-2.07-1.033 0-1.614.764-1.614 2.07 0 1.315.581 2.072 1.614 2.072 1.029 0 1.615-.762 1.615-2.073zm2.474 1.31c0-1.084.807-1.709 2.24-1.798l1.63-.094v-.52c0-.635-.42-.995-1.232-.995-.664 0-1.123.244-1.255.67h-1.15c.12-1.034 1.094-1.698 2.46-1.698 1.509 0 2.36.752 2.36 2.024v4.113h-1.144v-.846h-.094a2.025 2.025 0 01-1.808.945 1.818 1.818 0 01-2.007-1.802zm3.87-.515v-.503l-1.47.094c-.83.055-1.205.337-1.205.868 0 .542.47.857 1.116.857a1.418 1.418 0 001.56-1.316zm2.745-.795c0-1.903.978-3.108 2.5-3.108a1.983 1.983 0 011.845 1.056h.09V11.28h1.187v8.371h-1.138V18.7h-.094a2.089 2.089 0 01-1.89 1.05c-1.532 0-2.5-1.205-2.5-3.112zm1.227 0c0 1.276.602 2.045 1.609 2.045 1.002 0 1.62-.78 1.62-2.04 0-1.255-.625-2.046-1.62-2.046-1 0-1.609.774-1.609 2.04zm9.312 0a2.857 2.857 0 01.728-2.19 2.844 2.844 0 012.111-.935 2.856 2.856 0 012.706 1.952c.126.377.171.777.133 1.172a2.848 2.848 0 01-1.684 2.885 2.853 2.853 0 01-3.994-2.885zm4.456 0c0-1.306-.586-2.07-1.615-2.07-1.033 0-1.614.764-1.614 2.07 0 1.315.581 2.072 1.614 2.072 1.029 0 1.615-.762 1.615-2.073zm2.817-3.009h1.143v.957h.089a1.806 1.806 0 011.797-1.073 1.954 1.954 0 011.58.619 1.961 1.961 0 01.504 1.62v3.898h-1.188v-3.6c0-.967-.421-1.448-1.3-1.448a1.382 1.382 0 00-1.437 1.526v3.522h-1.188v-6.02zm11.827-1.498v1.526h1.304v1h-1.304v3.097c0 .63.26.907.851.907a4.02 4.02 0 00.453-.028v.99a3.892 3.892 0 01-.646.06c-1.321 0-1.848-.464-1.848-1.625v-3.4h-.955v-1.001h.955v-1.527h1.19zm2.927-.852h1.178V14.6h.094a1.851 1.851 0 011.836-1.079 1.983 1.983 0 012.073 2.245v3.887h-1.189v-3.594c0-.961-.448-1.449-1.287-1.449a1.405 1.405 0 00-1.516 1.527v3.516h-1.189v-8.37zm12.11 6.746a2.446 2.446 0 01-2.609 1.741 2.732 2.732 0 01-2.688-1.934 2.721 2.721 0 01-.093-1.173 2.768 2.768 0 01.67-2.206 2.77 2.77 0 012.106-.94c1.675 0 2.686 1.145 2.686 3.035v.415h-4.252v.067a1.584 1.584 0 001.604 1.725 1.443 1.443 0 001.432-.73h1.144zm-4.18-1.94h3.041a1.454 1.454 0 00-.891-1.45 1.452 1.452 0 00-.591-.11 1.544 1.544 0 00-1.446.96 1.54 1.54 0 00-.113.6z" fill="#fff"/></svg>