<svg width="190" height="52" fill="none" xmlns="http://www.w3.org/2000/svg"><path fill-rule="evenodd" clip-rule="evenodd" d="M36.69 6.735a1.886 1.886 0 011.34 2.311l-2.25 8.36a1.886 1.886 0 001.34 2.311l4.658 1.242a1.886 1.886 0 011.34 2.312l-.442 1.64a1.897 1.897 0 01-2.322 1.334l-4.657-1.242a1.897 1.897 0 00-2.322 1.335l-1.2 4.46a1.886 1.886 0 001.34 2.31l4.658 1.243a1.886 1.886 0 011.34 2.311l-.441 1.64a1.897 1.897 0 01-2.322 1.335l-4.658-1.242a1.897 1.897 0 00-2.322 1.334l-1.194 4.437a1.897 1.897 0 01-2.322 1.334l-1.648-.44a1.886 1.886 0 01-1.34-2.31l1.194-4.437A1.886 1.886 0 0023.12 36l-4.48-1.195a1.897 1.897 0 00-2.323 1.335l-2.196 8.16a1.896 1.896 0 01-2.322 1.334l-1.648-.44a1.886 1.886 0 01-1.34-2.31l2.196-8.16a1.886 1.886 0 00-1.34-2.312L5.009 31.17a1.886 1.886 0 01-1.34-2.311l.441-1.64a1.897 1.897 0 012.322-1.335l4.657 1.242a1.897 1.897 0 002.322-1.334l1.2-4.46a1.886 1.886 0 00-1.34-2.311L8.614 17.78a1.886 1.886 0 01-1.34-2.312l.44-1.64a1.897 1.897 0 012.323-1.335l4.657 1.243a1.897 1.897 0 002.322-1.335l1.248-4.636a1.897 1.897 0 012.322-1.334l1.648.44a1.886 1.886 0 011.34 2.31l-1.248 4.637a1.886 1.886 0 001.341 2.31l4.48 1.196a1.897 1.897 0 002.322-1.335l2.25-8.359a1.897 1.897 0 012.322-1.334l1.648.44zm-14.446 14.68a1.897 1.897 0 00-2.322 1.334l-1.2 4.46a1.886 1.886 0 001.34 2.311l4.48 1.195a1.897 1.897 0 002.322-1.334l1.2-4.46a1.886 1.886 0 00-1.34-2.311l-4.48-1.195z" fill="#888E44"/><path d="M39.176 42.02c-1.78 0-3.451-.242-4.961-.752-1.726-.564-3.182-1.45-4.314-2.604-2.05-2.093-3.02-5.045-2.939-8.803.054-2.04.512-3.891 1.375-5.475a9.872 9.872 0 013.074-3.515c2.049-1.53 4.826-2.416 7.387-2.416h.054c1.753 0 2.993.215 4.153.725 1.348.59 2.642 1.61 4.071 3.193l.243.242-3.532 4.187-.297-.295a9.39 9.39 0 00-1.105-.913c-1.16-.778-2.346-1.154-3.613-1.154a5.02 5.02 0 00-3.748 1.664c-.97 1.073-1.51 2.496-1.51 3.999 0 1.583.512 3.033 1.429 4.133.674.832 1.887 1.798 3.802 1.798 1.456 0 2.75-.375 3.801-1.1.459-.322.782-.644.944-.859l.297-.322 3.532 3.892-.162.241a8.801 8.801 0 01-1.753 1.96 9.867 9.867 0 01-2.507 1.502c-1.133.43-2.4.671-3.721.671zm7.343-9.126c0-4.294 3.505-7.756 7.82-7.756 4.313 0 7.818 3.462 7.818 7.756 0 4.294-3.505 7.783-7.819 7.783s-7.819-3.489-7.819-7.783zm7.792 2.308a2.285 2.285 0 002.292-2.281 2.285 2.285 0 00-2.292-2.281 2.279 2.279 0 00-2.264 2.281 2.279 2.279 0 002.264 2.281zm26.567 5.475v-8.4c0-.778-.135-1.369-.405-1.637-.054-.08-.27-.322-1.024-.322-.567 0-1.025.16-1.43.483-.134.107-.512.43-.539 1.395v8.481h-5.689v-8.4c0-1.208-.242-1.45-.323-1.557-.135-.16-.674-.375-1.106-.375-.566 0-1.024.134-1.456.483-.35.322-.539.805-.539 1.53v8.32h-5.932V25.083h5.932v.51c.89-.402 1.834-.698 2.804-.698.97 0 1.888.161 2.67.483a4.737 4.737 0 011.752 1.1c.404-.294.809-.563 1.24-.804a7.723 7.723 0 013.424-.779c1.915 0 3.506.59 4.719 1.745 1.213 1.154 1.833 2.764 1.833 4.83v9.206h-5.931zm7.571 0V30.398h-1.914v-5.287h1.914v-1.369c0-1.905.513-3.408 1.483-4.401.917-.967 2.238-1.477 3.829-1.477a7.92 7.92 0 012.804.51c.674.242 1.24.564 1.483.752l.135.107-1.052 4.16-.377-.214c-.378-.215-1.052-.296-1.348-.296-.701 0-.998.269-.998.94v1.288h2.723v5.287h-2.723v10.28H88.45zm8.388-7.783c0-4.294 3.505-7.756 7.819-7.756s7.819 3.462 7.819 7.756c0 4.294-3.505 7.783-7.819 7.783s-7.82-3.489-7.82-7.783zm7.792 2.308a2.284 2.284 0 002.291-2.281 2.284 2.284 0 00-2.291-2.281 2.279 2.279 0 00-2.265 2.281 2.279 2.279 0 002.265 2.281zm7.989 5.475v-15.54h5.986l.027 1.02c1.024-.885 2.022-.992 3.154-1.02l1.51.028v5.233l-1.618.027c-1.375 0-1.941.51-2.238.886-.539.697-.835 2.227-.835 3.516v5.85h-5.986zm12.355-20.612h5.905v5.073h4.045v5.26h-4.126v3.409c0 .966-.215 1.825 1.268 1.825 1.482 0 2.183-1.772 2.183-1.772l2.238 4.214s-1.321 2.55-5.743 2.603c-5.877.08-5.77-5.636-5.77-5.636v-4.643h-1.941v-5.26h1.941v-5.073zm12.314 20.612V22.695h-5.77v-4.884h17.688v4.884h-5.77v17.982h-6.148zm16.407-.429l-.188.08c-.755.296-1.025.35-1.861.35a7.382 7.382 0 01-2.75-.537 6.658 6.658 0 01-2.292-1.503c-.62-.59-1.132-1.396-1.51-2.308v-.027a7.615 7.615 0 01-.566-2.899c0-2.013.728-3.892 2.022-5.26 1.322-1.423 3.128-2.201 5.096-2.201.836 0 1.16.027 1.861.295l.188.08v-1.207h5.447v15.566h-5.447v-.429zm-1.536-9.152c-.594 0-1.133.215-1.51.617-.432.456-.674 1.1-.674 1.852 0 .671.215 1.288.593 1.718.404.376.943.59 1.591.59.593 0 1.132-.214 1.536-.563v-.027c.405-.456.621-1.047.621-1.718 0-.67-.216-1.342-.621-1.825-.404-.43-.943-.644-1.536-.644zm15.356 15.942c-2.373 0-4.53-.751-6.417-2.2l-1.025-.779 2.777-4.428a7.521 7.521 0 01-1.078-.993c-1.402-1.503-2.13-3.409-2.13-5.636 0-2.201.728-4.107 2.13-5.61 1.429-1.556 3.262-2.362 5.473-2.362 1.079 0 1.834.322 2.723.752v-.537h5.932V38.45c0 2.791-.809 4.965-2.426 6.414-1.564 1.45-3.56 2.174-5.959 2.174zm-3.343-6.602c1.078.805 2.13 1.234 3.154 1.234 1.025 0 1.78-.241 2.292-.697a1.97 1.97 0 00.431-.59c-.862.402-1.806.59-2.804.59-1.213 0-2.319-.242-3.316-.698l.243.16zm3.505-10.28c-.728 0-1.268.215-1.672.725-.485.564-.728 1.235-.728 2.013 0 .779.243 1.423.701 1.96.431.51.971.724 1.726.724s1.348-.242 1.806-.725c.458-.51.701-1.154.701-1.959 0-.805-.243-1.45-.728-2.013-.485-.51-1.024-.724-1.806-.724zm15.618 11.031c-2.534 0-4.826-.858-6.74-2.603l-.971-.859 3.209-3.838 1.024.913c.593.51 1.214.912 1.807 1.154a4.532 4.532 0 001.752.349c.432 0 .782-.054.971-.215.135-.08.162-.134.162-.215 0-.134-.027-.134-.081-.188-.135-.08-.539-.322-1.726-.617-1.078-.241-1.914-.483-2.507-.698-.674-.268-1.241-.617-1.807-1.02a4.497 4.497 0 01-1.321-1.744c-.27-.617-.404-1.342-.404-2.2 0-.86.161-1.611.458-2.309.377-.67.836-1.288 1.483-1.745 1.186-.885 2.642-1.341 4.341-1.341 1.024 0 2.049.187 3.101.51a8.658 8.658 0 012.723 1.502l.943.806-2.831 3.999-1.159-.993c-.27-.269-.701-.483-1.213-.671a5.19 5.19 0 00-1.672-.269c-.431 0-.728.08-.998.188 0 .027 0 .027-.027.027v.134c0 .134.027.161.081.188.108.08.594.349 2.4.778 1.672.403 2.912.966 3.829 1.745 1.024.886 1.536 2.174 1.536 3.784 0 .805-.134 1.557-.458 2.255a5.168 5.168 0 01-1.429 1.744c-1.159.993-2.669 1.45-4.476 1.45z" fill="#fff"/></svg>