<svg width="18" height="35" fill="none" xmlns="http://www.w3.org/2000/svg"><g clip-path="url(#clip0_22_5681)"><path d="M9 0c2.472 0 4.723 1.027 6.354 2.678l.004.005A9.148 9.148 0 0118 9.118v10.328a9.152 9.152 0 01-2.643 6.436l-.004.004C13.72 27.538 11.472 28.563 9 28.563s-4.722-1.026-6.354-2.678l-.004-.004A9.15 9.15 0 010 19.446V9.118A9.155 9.155 0 012.643 2.68l.004-.004C4.28 1.026 6.53 0 9 0zM6.66 30.551L9 32.922l2.343-2.37 1.022 1.04L8.996 35l-3.363-3.408 1.027-1.04zM9 21.611c.843 0 1.533-.698 1.533-1.552v-2.072c0-.854-.69-1.553-1.533-1.553s-1.532.699-1.532 1.553v2.072c0 .854.69 1.552 1.532 1.552zM9 1.473c-2.077 0-3.964.86-5.33 2.243a7.671 7.671 0 00-2.217 5.402v10.328c0 2.103.849 4.015 2.215 5.399A7.474 7.474 0 009 27.09a7.47 7.47 0 005.33-2.243 7.67 7.67 0 002.217-5.401V9.118a7.671 7.671 0 00-2.215-5.4A7.475 7.475 0 009 1.474z" fill="#727927"/></g><defs><clipPath id="clip0_22_5681"><path fill="#fff" d="M0 0h18v35H0z"/></clipPath></defs></svg>