<svg width="16" height="16" fill="none" xmlns="http://www.w3.org/2000/svg"><g clip-path="url(#clip0_22_440)" fill="#888E44"><path d="M13.875 9.9l-2.931-1.25a.975.975 0 00-.944.081L8.431 9.775a4.781 4.781 0 01-2.2-2.188L7.27 6a.994.994 0 00.087-.944L6.1 2.125a1.019 1.019 0 00-1.044-.6A3.513 3.513 0 002 5c0 4.963 4.037 9 9 9a3.513 3.513 0 003.475-3.056 1.018 1.018 0 00-.6-1.044zM9.838 2.981a4.537 4.537 0 013.18 3.181.5.5 0 10.963-.256 5.5 5.5 0 00-3.887-3.888.5.5 0 10-.256.963zm-.519 1.931a2.525 2.525 0 011.768 1.77.494.494 0 00.784.271.493.493 0 00.179-.528A3.487 3.487 0 009.575 3.95a.5.5 0 10-.256.962z"/></g><defs><clipPath id="clip0_22_440"><path fill="#fff" d="M0 0h16v16H0z"/></clipPath></defs></svg>