<svg width="102" height="102" fill="none" xmlns="http://www.w3.org/2000/svg"><g opacity=".5" clip-path="url(#clip0_11_5924)"><path d="M91.636 16.732l.065-.022.058-.038a1.421 1.421 0 011.074-.241c.366.06.761.246 1.198.532.59.602 1.094 1.42 1.094 2.162 0 24.948-5.481 41.494-13.575 52.983-8.095 11.49-18.84 17.978-29.48 22.742l-.083.038-.066.065c-.048.048-.161.105-.366.139a3.412 3.412 0 01-.555.033c-.162 0-.362 0-.555-.033-.205-.034-.318-.09-.366-.14l-.066-.064-.084-.038C39.291 90.086 28.545 83.599 20.45 72.108 12.356 60.62 6.875 44.073 6.875 19.125c0-.742.504-1.56 1.094-2.162.437-.286.832-.471 1.198-.532.357-.06.706-.005 1.074.241l.058.038.065.022c13.89 4.522 28.103.963 38.747-9.036l.006-.006.005-.005c1.08-1.08 2.676-1.08 3.756 0l.005.005.006.006c10.644 9.999 24.857 13.558 38.747 9.036zM50.397 63.147l19.125-19.125c1.47-1.47 1.47-3.699 0-5.17-1.47-1.47-3.699-1.47-5.17 0l-16.54 16.54-6.977-6.977c-1.47-1.47-3.7-1.47-5.17 0-1.47 1.47-1.47 3.7 0 5.17l9.563 9.562c.348.349.716.63 1.146.82.433.193.902.283 1.438.283.537 0 1.006-.09 1.439-.282.43-.191.798-.472 1.146-.82z" stroke="#454158"/><path fill="#1C192E" d="M48-6h67v38H48z"/></g><defs><clipPath id="clip0_11_5924"><path fill="#fff" d="M0 0h102v102H0z"/></clipPath></defs></svg>