<svg width="24" height="24" fill="none" xmlns="http://www.w3.org/2000/svg"><path d="M2.56 1.66c-.59 0-1.153.005-1.722 0-.642-.015-1.03-.657-.74-1.21A.789.789 0 01.833.005C1.65 0 2.472 0 3.289.005c.48.005.801.31.853.797.109 1.008.212 2.022.316 3.03.01.093.025.186.046.305h17.531c.9 0 1.587.502 1.722 1.324.057.336 0 .703-.073 1.045-.625 2.963-1.256 5.926-1.902 8.884-.264 1.215-1.247 1.986-2.493 1.986-4.256 0-8.517.005-12.773 0-1.381 0-2.395-.952-2.534-2.322-.248-2.38-.512-4.763-.76-7.142-.218-2.032-.424-4.06-.636-6.092-.006-.041-.016-.082-.026-.16zm2.11 4.147c.098.942.196 1.847.294 2.757l.667 6.319c.063.574.362.838.942.838h12.664c.543 0 .828-.228.941-.76.57-2.643 1.133-5.285 1.702-7.923.088-.408.17-.812.264-1.23H4.67zM7.447 24a2.486 2.486 0 01-2.477-2.487 2.483 2.483 0 014.964.01A2.496 2.496 0 017.447 24zm.827-2.482a.835.835 0 00-.817-.828.831.831 0 00-.833.812.837.837 0 00.828.843.836.836 0 00.822-.827zM17.375 24a2.486 2.486 0 01-2.476-2.487 2.483 2.483 0 014.964.01A2.496 2.496 0 0117.375 24zm.828-2.472a.838.838 0 00-.807-.837.835.835 0 00-.843.801.836.836 0 00.822.848.83.83 0 00.828-.812z" fill="#fff"/></svg>