<svg width="16" height="16" fill="none" xmlns="http://www.w3.org/2000/svg"><g clip-path="url(#clip0_2012_4719)" fill="#D5D8DE"><path d="M3.067 1.444c0-.279-.006-.535.004-.788.02-.477.387-.742.858-.627a.575.575 0 01.462.531c.013.224.007.448.01.672v.199h1.457l.01-.167c.006-.246-.007-.493.02-.736.032-.326.308-.534.663-.528.351.007.621.224.64.554.017.285.004.573.004.874h1.542c0-.256-.007-.512 0-.765.01-.484.384-.756.858-.634a.575.575 0 01.456.522c.016.227.01.457.013.688v.195h1.532c0-.208-.003-.413 0-.62.003-.12-.003-.238.023-.35.068-.294.341-.477.673-.46.332.015.579.217.615.527.02.173.013.353.016.529.003.121 0 .243 0 .41.293 0 .576-.026.852.002.735.077 1.295.43 1.727 1.037.378.529.495 1.092.491 1.716-.01 3.076-.003 6.155-.003 9.23 0 1.194-.76 2.177-1.906 2.462-.218.054-.449.08-.673.08-3.61.006-7.218.006-10.828.003-1.47 0-2.58-1.095-2.583-2.544 0-3.16 0-6.315.003-9.474 0-1.447 1.116-2.535 2.586-2.542.15.004.303.004.478.004zM1.334 5.912v7.492c0 .797.497 1.28 1.31 1.28h10.702c.823 0 1.314-.483 1.314-1.292v-7.48H1.334z"/><path d="M2.866 12.377c0-.278-.004-.554 0-.832.003-.298.175-.467.475-.467.53-.004 1.06-.004 1.59 0 .293 0 .465.17.465.454v1.581c0 .288-.172.455-.465.455-.54 0-1.083.003-1.623 0-.325 0-.449-.131-.446-.442.007-.25.004-.5.004-.749zm0-3.87c0-.278-.004-.553 0-.832.003-.288.172-.46.465-.46a135.02 135.02 0 011.61 0c.293.003.455.175.455.467V9.25c0 .291-.166.454-.462.454-.536.004-1.073.004-1.61-.003-.104 0-.227-.016-.306-.073a.415.415 0 01-.152-.272c-.02-.282-.007-.564-.007-.849h.007zm5.119 5.063c-.27 0-.543.004-.813 0-.26-.003-.439-.175-.439-.431-.003-.538-.003-1.08 0-1.617 0-.265.179-.438.452-.441.543-.004 1.083-.004 1.627 0 .28.003.455.176.455.45.003.529.003 1.057 0 1.585 0 .285-.176.455-.469.455h-.813zm2.612-5.11c0-.266-.003-.535 0-.8.004-.27.17-.443.443-.446a70.266 70.266 0 011.642 0c.273.003.443.176.446.448.003.535.003 1.066 0 1.6-.003.273-.176.442-.449.442-.546.004-1.096.004-1.643 0-.273 0-.439-.172-.442-.445.003-.268.003-.534.003-.8zm0 3.866c0-.266-.003-.535 0-.8.004-.27.173-.442.446-.445a140.53 140.53 0 011.643 0c.263.003.442.176.442.432a68.32 68.32 0 010 1.632c-.003.26-.185.426-.449.426-.546.003-1.096.003-1.643 0-.263 0-.435-.173-.439-.43-.003-.274 0-.547 0-.815zM7.998 9.704c-.27 0-.543.004-.813 0-.28-.003-.452-.172-.455-.45a139.57 139.57 0 010-1.585c0-.279.169-.452.452-.455a68.883 68.883 0 011.626 0c.283.003.452.18.456.455.003.528.003 1.056 0 1.584 0 .279-.173.445-.452.451h-.813z"/></g><defs><clipPath id="clip0_2012_4719"><path fill="#fff" d="M0 0h16v16H0z"/></clipPath></defs></svg>