<svg width="30" height="30" fill="none" xmlns="http://www.w3.org/2000/svg"><g clip-path="url(#clip0_2001_665)" fill="#303642"><path d="M14.987 25.457c-3.75 0-7.5-.032-11.256.013-1.594.019-3.03-.892-3.415-2.77-1.46-7.127 2.176-14.248 8.93-16.967C14.847 3.476 20.11 4.33 24.77 8.206c2.859 2.377 4.503 5.489 5.066 9.163.29 1.903.202 3.807-.253 5.679-.36 1.486-1.562 2.403-3.112 2.403-3.832.012-7.658.006-11.484.006zm.013-1.91h11.313c.892 0 1.271-.303 1.455-1.163.569-2.637.348-5.211-.639-7.722-2.568-6.5-10.105-9.852-16.65-7.386-6.166 2.327-9.632 8.651-8.26 15.082.19.886.563 1.19 1.461 1.19H15z"/><path d="M14.987 8.756c1.271.031 2.498.24 3.687.683.658.246.873 1.005.436 1.518-.278.328-.67.423-1.15.252a9.16 9.16 0 00-3.226-.505c-4.123.07-7.816 3.269-8.454 7.341a13.61 13.61 0 00-.127 1.449c-.032.6-.436 1.03-.986 1.018-.544-.013-.93-.443-.93-1.031 0-5.192 3.857-9.72 8.999-10.542.575-.095 1.17-.126 1.751-.183zm-.177 13.488c-.955-.044-1.808-.556-2.27-1.6-.462-1.036-.31-2.036.45-2.883.764-.854 1.744-1.107 2.845-.765.221.07.335.025.487-.12 1.619-1.632 3.25-3.25 4.869-4.876.285-.285.607-.417 1-.304.379.108.606.373.676.753.07.38-.095.67-.354.93-1.588 1.587-3.169 3.18-4.769 4.755-.208.209-.265.367-.177.67.525 1.727-.784 3.447-2.757 3.44z"/></g><defs><clipPath id="clip0_2001_665"><path fill="#fff" transform="translate(0 4.5)" d="M0 0h30v20.976H0z"/></clipPath></defs></svg>