<svg width="30" height="30" fill="none" xmlns="http://www.w3.org/2000/svg"><g clip-path="url(#clip0_2001_703)" fill="#303642"><path d="M18.056 28.17c-1.964 0-3.583 0-5.088-.006-1.423-.006-2.655-.506-3.678-1.494-.91-.88-1.821-1.785-2.702-2.66L5.16 22.6a1.1 1.1 0 01-.345-.84c.005-.952.005-1.88.005-2.868v-1.363H1.904v3.154c0 .578-.404.994-.952.994H.94c-.541-.006-.94-.428-.94-1v-8.153c0-.59.399-1.017.946-1.023.554 0 .952.422.958 1.011.006.655 0 1.327 0 1.976v1.101H4.82v-1.767c0-1.03 0-2.095-.005-3.143 0-.357.113-.636.369-.892.952-.947 1.916-1.91 2.862-2.863a1.16 1.16 0 01.887-.363h.012c.607.006 1.267.006 2.088.006h3.107V3.704h-3.142c-.292 0-.554-.107-.738-.291a.92.92 0 01-.262-.673c.006-.541.429-.94 1.006-.94h8.242c.572 0 .988.399.994.946a.916.916 0 01-.28.679 1.073 1.073 0 01-.732.28h-3.136V6.56h3.053c.797 0 1.446 0 2.041-.006h.012c.351 0 .631.12.881.369a614.65 614.65 0 002.797 2.797c.256.25.369.536.363.893-.006.547-.006 1.083-.006 1.648v.941h2.857V11.88c.006-.607.392-1.035.952-1.035h.012c.553.006.94.428.94 1.03v10.622c0 .601-.387 1.024-.94 1.03h-.012c-.56 0-.946-.429-.952-1.036v-1.345h-3.66c-.351 0-.649-.107-.845-.303a.874.874 0 01-.25-.655c.006-.565.44-.946 1.083-.946h3.654v-4.106H24.4c-.684 0-1.065-.375-1.065-1.054v-.28c0-.833-.006-1.696.006-2.546a.82.82 0 00-.268-.637c-.28-.28-.566-.56-.845-.84-.351-.35-.714-.714-1.083-1.07a.866.866 0 00-.572-.239c-1.833-.006-3.701-.006-5.558-.006-1.797 0-3.63 0-5.451.006a.887.887 0 00-.578.226 92.634 92.634 0 00-2.023 2.024.824.824 0 00-.226.547c-.006 3.375-.006 6.69 0 9.85 0 .196.1.428.244.571a416.34 416.34 0 002.315 2.297c.399.393.797.786 1.19 1.178.726.72 1.589 1.084 2.565 1.084h10.278v-.589c0-.256-.006-.5.006-.744a.95.95 0 01.88-.929h.066c.47 0 .863.333.94.792.024.143.018.291.018.452v1.893c-.006.65-.387 1.036-1.024 1.036h-2.29c-1.292.012-2.578.012-3.87.012z"/><path d="M13.337 22.861a.694.694 0 01-.209-.024c0-.041.012-.107.024-.148.351-.863.72-1.738 1.077-2.583.113-.268.226-.542.34-.81l.077-.196.047-.125.131-.327H12.2c-.429 0-.768-.173-.946-.464-.173-.292-.161-.679.041-1.054.334-.625.673-1.255 1-1.868.375-.69.756-1.41 1.13-2.113.108-.202.233-.28.465-.28h.012c.31.006.649.006 1.071.006h1.583c.203 0 .351.06.41.155.06.101.03.262-.077.44-.232.4-.476.804-.708 1.19-.13.227-.268.447-.399.673-.03.054-.059.107-.095.167-.018.03-.035.06-.053.095l-.185.333.381.018c.042 0 .078.006.113.006.072.006.143.006.208.006h2.381c.303 0 .494.119.613.38.119.263.077.489-.125.697a1647.73 1647.73 0 01-5.546 5.725.444.444 0 01-.12.095c.012.006-.005.006-.017.006z"/></g><defs><clipPath id="clip0_2001_703"><path fill="#fff" transform="translate(0 1.8)" d="M0 0h30v26.37H0z"/></clipPath></defs></svg>