<svg width="30" height="30" fill="none" xmlns="http://www.w3.org/2000/svg"><g clip-path="url(#clip0_2001_741)"><g clip-path="url(#clip1_2001_741)" fill="#303642"><path d="M14.976 30H2.671c-1.4 0-2.402-1.137-2.156-2.484.1-.534.305-1.05.475-1.565L8.876 1.7C9.27.492 9.943 0 11.22 0h8.145c1.142 0 1.88.54 2.215 1.629 2.59 8.502 5.18 17.01 7.77 25.517.468 1.547-.51 2.854-2.122 2.854-4.09.006-8.168 0-12.252 0zm-.896-1.77v-.34c0-.45-.006-.896.011-1.347a.837.837 0 01.627-.762c.346-.1.75.012.932.317.111.193.176.433.187.656.03.486.006.973.006 1.465h7.588L17.414 1.775h-1.57v.446c0 .38.011.761-.007 1.142-.017.522-.41.908-.89.903-.492-.006-.856-.393-.867-.92-.006-.217 0-.428 0-.645v-.92h-.98c-2.004 8.819-4.008 17.625-6.017 26.45h6.996zM11.296 1.787c-.521-.07-.591-.023-.761.504a30640.92 30640.92 0 00-7.002 21.55l-1.23 3.78c-.147.445-.012.621.456.621h2.52c2.01-8.836 4.014-17.642 6.017-26.455zm7.928 0c2.01 8.83 4.014 17.637 6.018 26.455.72 0 1.424.006 2.127-.006.246-.006.363-.17.34-.416a1.643 1.643 0 00-.07-.28c-2.579-8.456-5.151-16.911-7.73-25.36-.128-.399-.21-.446-.685-.393z"/><path d="M14.08 17.373c0-.398-.006-.803 0-1.201.011-.527.375-.914.86-.92.481-.006.88.375.892.896.017.82.011 1.641 0 2.461-.012.528-.393.903-.885.903-.504 0-.862-.387-.873-.938 0-.398.006-.797.006-1.201zm.005 5.215c0-.399-.005-.803 0-1.201.006-.528.375-.914.862-.92a.884.884 0 01.89.896c.012.832.018 1.658 0 2.49a.875.875 0 01-.908.873c-.48-.017-.832-.392-.844-.908-.005-.41 0-.82 0-1.23zm1.758-10.359c0 .398.006.802 0 1.2-.011.546-.392.932-.89.926-.504-.005-.862-.392-.862-.943-.006-.791-.006-1.582 0-2.373.006-.55.37-.943.868-.943.492-.006.873.392.884.937.006.399 0 .797 0 1.196zM14.08 7.107c0-.38-.006-.761 0-1.142.011-.527.386-.908.879-.908.474 0 .86.369.873.884.017.791.017 1.582 0 2.373-.012.528-.405.897-.897.891-.492-.012-.85-.387-.855-.92-.006-.398 0-.79 0-1.178z"/></g></g><defs><clipPath id="clip0_2001_741"><path fill="#fff" d="M0 0h30v30H0z"/></clipPath><clipPath id="clip1_2001_741"><path fill="#fff" transform="translate(.48)" d="M0 0h28.986v30H0z"/></clipPath></defs></svg>