<svg width="30" height="30" fill="none" xmlns="http://www.w3.org/2000/svg"><g clip-path="url(#clip0_2001_779)"><path d="M4.59 30c-.389 0-.778-.023-1.15-.07-1.11-.14-1.923-1.092-1.934-2.26a281.505 281.505 0 010-4.502c.006-1.214.912-2.208 2.103-2.3.32-.03.65-.041.976-.041.337 0 .68.011 1.01.04 1.151.093 2.022 1.017 2.075 2.197.017.36.011.708.005 1.086 0 .134-.005.267-.005.4h2.172c.802 0 1.412 0 1.981.006h.006c.163 0 .215-.023.28-.191.324-.906.963-1.534 1.887-1.86.122-.04.145-.075.145-.191-.005-4.67-.005-9.585 0-14.61 0-.123-.023-.158-.139-.198-.93-.326-1.574-.97-1.917-1.906-.047-.128-.058-.14-.14-.14-.976.007-1.969.007-2.928.007H7.7c-.006 0-.018 0-.035.005 0 .128 0 .256.006.384.005.348.005.709-.006 1.057-.04 1.127-.779 2.016-1.784 2.161a8.73 8.73 0 01-1.301.093 8.73 8.73 0 01-1.301-.093c-1.029-.15-1.778-1.092-1.79-2.225.012-1.65.012-3.125.018-4.514A2.34 2.34 0 013.824.012c.255-.006.517-.006.778-.006.25 0 .511 0 .767.006a2.317 2.317 0 012.312 2.225c.018.36.012.708.006 1.08 0 .128 0 .256-.006.39h4.294c.08-.128.156-.262.232-.39.186-.32.366-.621.604-.877a3.009 3.009 0 012.19-.953c1.307 0 2.44.796 2.888 2.022.07.186.133.215.313.215h.012c.604-.006 1.249-.006 2.097-.006h2.016v-.383c.006-.157.011-.314.011-.471.006-.378.012-.761.093-1.133.221-.987 1.14-1.714 2.19-1.725.117 0 .233-.006.35-.006.185-.006.383-.006.569-.006.406 0 .72.018 1.01.058 1.133.157 1.94 1.08 1.958 2.243.023 1.516.023 3.05 0 4.566a2.28 2.28 0 01-2.126 2.277c-.314.03-.64.04-.965.04-.278 0-.563-.01-.848-.028-1.313-.087-2.213-1.046-2.236-2.394-.006-.313-.006-.627-.006-.958v-.349c-.325 0-.657 0-.97.006-.343 0-.703.006-1.052.006-.58 0-1.051-.006-1.487-.023-.058 0-.11-.006-.163-.006-.488 0-.772.099-.982.645-.243.644-.807 1.12-1.667 1.417-.122.04-.145.058-.145.163.006 4.037.006 8.145.006 12.118v2.661l.029.012.215.087c.877.348 1.481.976 1.8 1.865.047.122.07.145.17.145.9-.006 1.8-.006 2.643-.006h1.539c.017 0 .035 0 .058-.006v-1.266c.012-1.238.738-2.179 1.795-2.341a8.528 8.528 0 011.29-.1c.441 0 .877.036 1.307.094 1.022.15 1.772 1.074 1.79 2.196.023 1.65.023 3.143 0 4.566-.024 1.296-1.04 2.283-2.37 2.3h-1.367c-1.41-.005-2.416-.993-2.445-2.405-.006-.32-.006-.627-.006-.958v-.343a.991.991 0 00-.128-.011h-4.066c-.14 0-.169.011-.21.122-.452 1.295-1.568 2.102-2.91 2.102h-.017c-1.342-.005-2.458-.836-2.917-2.155-.005-.017-.017-.04-.023-.058H7.693c-.006.064-.006.128-.006.192v.436c0 .278 0 .563-.012.848-.052 1.144-.842 2.039-1.922 2.172A9.592 9.592 0 014.59 30zm.111-7.448h-.726c-.511 0-.738.233-.744.738-.006.517 0 1.04 0 1.551v1.214c0 .5 0 1.017.006 1.522.006.442.232.668.68.68.226.006.453.006.68.006.226 0 .453 0 .68-.006.452-.006.69-.238.69-.674.006-1.406.006-2.87 0-4.351 0-.43-.255-.674-.685-.68h-.581zm20.757-.006c-.238 0-.47 0-.709.006-.453.006-.702.25-.702.692-.006 1.4-.006 2.852 0 4.322 0 .441.232.68.673.691.198.006.401.006.634.006.232 0 .464 0 .697-.006.511-.006.726-.232.726-.75v-4.293c-.006-.418-.25-.656-.668-.662-.204 0-.418-.006-.65-.006zm-10.451 1.5c-.755 0-1.354.58-1.365 1.324a1.369 1.369 0 001.336 1.412h.035c.72 0 1.342-.61 1.36-1.33a1.353 1.353 0 00-.378-.989 1.354 1.354 0 00-.965-.418h-.023zM3.231 4.571v.656c0 .506-.006 1.029.006 1.546.006.418.25.662.662.668.227.006.46.006.692.006.226 0 .464 0 .703-.006.424-.006.673-.256.68-.662a275.14 275.14 0 000-4.38c0-.413-.25-.657-.675-.663-.174-.006-.366-.006-.586-.006h-.721c-.552.006-.76.215-.76.773v2.068zm22.163-2.84c-.232 0-.453 0-.668.005-.441.006-.68.244-.68.685a536.777 536.777 0 000 4.323c0 .447.25.691.698.697.197 0 .4.006.598.006h.709c.488 0 .732-.239.732-.72V2.44c-.006-.459-.233-.686-.697-.697-.25-.012-.477-.012-.692-.012zm-10.387 1.48c-.36 0-.703.14-.959.401-.261.262-.406.61-.4.988a1.354 1.354 0 001.365 1.354c.372 0 .72-.146.976-.401a1.38 1.38 0 00.395-.976 1.393 1.393 0 00-1.377-1.365z" fill="#303642"/></g><defs><clipPath id="clip0_2001_779"><path fill="#fff" transform="translate(1.5)" d="M0 0h27.026v30H0z"/></clipPath></defs></svg>