<svg width="30" height="30" fill="none" xmlns="http://www.w3.org/2000/svg"><g clip-path="url(#clip0_90_11149)"><g clip-path="url(#clip1_90_11149)" fill="#303642"><path d="M0 29.994V0h7.02v11.719c1.402-.822 2.751-1.62 4.147-2.44v4.71c3.161-1.537 6.264-3.045 9.42-4.576v4.581l9.407-4.575v20.575H0zm28.246-17.76c-3.137 1.525-6.258 3.039-9.425 4.581v-4.58a12877.27 12877.27 0 00-9.408 4.569v-4.429c-.1.047-.152.07-.205.1-2.422 1.425-4.844 2.856-7.273 4.276-.164.1-.187.217-.187.381.006 3.607 0 7.214.006 10.821 0 .094.006.188.011.27h26.481V12.235zM1.76 14.805c.111-.06.199-.106.275-.153a304.62 304.62 0 012.98-1.748c.181-.105.252-.217.252-.434C5.26 8.997 5.26 5.531 5.26 2.06v-.305H1.754c.006 4.352.006 8.674.006 13.05z"/><path d="M14.111 19.466v5.25H5.302v-5.25h8.81zM7.056 22.95h5.29v-1.718h-5.29v1.718zm8.838 1.765v-5.249h8.81v5.25h-8.81zm7.056-3.483h-5.29v1.724h5.29v-1.724z"/></g></g><defs><clipPath id="clip0_90_11149"><path fill="#fff" d="M0 0h30v30H0z"/></clipPath><clipPath id="clip1_90_11149"><path fill="#fff" d="M0 0h30v29.994H0z"/></clipPath></defs></svg>