<svg width="30" height="30" fill="none" xmlns="http://www.w3.org/2000/svg"><g clip-path="url(#clip0_90_11109)"><g clip-path="url(#clip1_90_11109)" fill="#303642"><path d="M14.874 30c-2.535 0-4.96-.65-7.211-1.932C3.545 25.72 1.047 22.187.235 17.564-.837 11.48 1.854 5.472 7.085 2.27 9.51.783 12.243 0 15 0a15.09 15.09 0 019.041 3.046c2.709 2.052 4.599 4.893 5.465 8.222a15.27 15.27 0 01.404 5.255c-.054.56-.29.897-.747 1.06a1.143 1.143 0 01-.385.072c-.277 0-.53-.12-.764-.368-.217-.228-.307-.505-.271-.854a13.583 13.583 0 00-.169-3.895c-.98-5.14-5.086-9.203-10.214-10.112a24.06 24.06 0 00-1.577-.205c-.235-.024-.476-.048-.71-.078l-.03-.006h-.03C8.908 2.25 3.737 6.44 2.442 12.34c-.721 3.292-.101 6.693 1.746 9.582 1.848 2.89 4.683 4.876 7.982 5.592.97.21 1.938.32 2.877.32 2.306 0 4.545-.645 6.652-1.909.313-.187.53-.265.74-.265a1.068 1.068 0 011.053.86c.103.47-.078.892-.5 1.157a14.672 14.672 0 01-5.272 2.058c-.97.18-1.92.265-2.847.265z"/><path d="M12.7 20.26c-.294 0-.607-.162-.926-.487-.355-.355-.71-.71-1.066-1.06a238.02 238.02 0 01-2.504-2.515 1.121 1.121 0 01-.3-1.096 1.05 1.05 0 01.788-.74c.096-.024.192-.036.283-.036.289 0 .554.12.8.373.638.638 1.282 1.288 1.908 1.914l.476.47c.054.054.108.102.18.174.043.036.085.078.145.133l.367.349.277-.428c.03-.048.054-.09.078-.132a.864.864 0 01.072-.114l3.088-3.088c1.24-1.24 2.523-2.522 3.78-3.786.29-.29.566-.428.867-.428.097 0 .199.012.301.042.361.097.632.356.747.699.114.349.048.722-.187 1.017-.054.066-.12.132-.193.204l-.024.025c-2.672 2.672-5.345 5.35-8.017 8.023-.331.325-.644.488-.94.488z"/></g></g><defs><clipPath id="clip0_90_11109"><path fill="#fff" d="M0 0h30v30H0z"/></clipPath><clipPath id="clip1_90_11109"><path fill="#fff" d="M0 0h29.976v30H0z"/></clipPath></defs></svg>