<svg width="30" height="30" fill="none" xmlns="http://www.w3.org/2000/svg"><g clip-path="url(#clip0_90_11119)"><path d="M17.22 10.19h.388c2.405 0 4.81.006 7.216 0 .468 0 .843.137 1.056.574.218.456.075.837-.244 1.2L10.367 29.556c-.387.444-.856.556-1.305.32-.45-.238-.619-.688-.469-1.263 1.012-3.83 2.03-7.653 3.049-11.483.031-.106.05-.218.087-.362H5.12c-.6 0-1.025-.294-1.087-.812-.032-.244.037-.519.137-.75 1.237-2.817 2.486-5.629 3.73-8.44A865.708 865.708 0 0010.549.775c.237-.55.612-.787 1.205-.781 2.55.012 5.104.006 7.653.006.969 0 1.4.625 1.062 1.53-1.043 2.774-2.08 5.548-3.123 8.316-.038.106-.069.2-.125.344zM6.526 14.768h6.322c.9 0 1.33.562 1.1 1.437l-2.213 8.415c-.024.094-.043.187-.068.281.019.013.044.019.062.031 3.668-4.23 7.329-8.459 11.04-12.744H15.94c-.95 0-1.38-.631-1.043-1.518 1.043-2.774 2.08-5.548 3.123-8.316.038-.106.075-.212.113-.337h-5.941c-1.88 4.236-3.768 8.471-5.667 12.75z" fill="#303642"/></g><defs><clipPath id="clip0_90_11119"><path fill="#fff" transform="translate(4.02)" d="M0 0h21.96v30H0z"/></clipPath></defs></svg>