<svg width="30" height="30" fill="none" xmlns="http://www.w3.org/2000/svg"><g clip-path="url(#clip0_90_11099)" fill="#303642"><path d="M4.749 26.73c-.389 0-.784-.007-1.192-.014-1.394-.033-2.331-.991-2.345-2.39v-.423c0-.274.007-.563-.013-.844a.405.405 0 00-.127-.241C.362 22.296 0 21.586 0 20.708v-3.885c0-1.36.455-2.558 1.36-3.57.24-.268.475-.542.723-.83.06-.067.12-.134.18-.208h-.006c-.18-.013-.348-.02-.509-.047-.864-.14-1.46-.823-1.493-1.708v-.261c-.06-.61.1-1.152.455-1.54.362-.396.89-.603 1.527-.603.087 0 .18.007.268.013.516.047.844.382.844.85 0 .483-.335.818-.85.845H2.39c-.228.006-.382.053-.449.147s-.067.255.007.482c.007.02.06.06.087.08.007.007.014.014.02.014h.055c.207.02.375.034.502.034.302 0 .328-.034.543-.724v-.006c.087-.282.167-.556.254-.838.215-.69.429-1.42.677-2.123.75-2.123 2.746-3.563 4.976-3.577 2.016-.006 4.032-.013 6.008-.013 1.956 0 3.925.007 5.848.013 2.37.014 4.387 1.561 5.123 3.945.288.925.623 2.017.945 3.102.053.187.107.207.18.207.02 0 .041 0 .061-.006.047-.007.087-.007.147-.007h.208c.255 0 .409-.04.476-.12.06-.081.053-.242-.014-.483a.4.4 0 00-.194-.12c-.04-.014-.087-.014-.154-.014h-.181c-.04 0-.08 0-.114-.007a.812.812 0 01-.757-.743c-.04-.442.201-.81.583-.89a3.01 3.01 0 01.596-.068c.951 0 1.634.51 1.835 1.36.1.422.1.93 0 1.446-.154.784-.823 1.313-1.714 1.347h-.221c.053.06.107.12.154.187.228.275.449.53.676.777.971 1.059 1.454 2.331 1.434 3.778-.014 1.038-.007 2.09-.007 3.108v.643c0 .864-.355 1.574-1.065 2.116a.455.455 0 00-.14.275c-.014.228-.014.455-.014.683 0 .342 0 .69-.047 1.032a2.141 2.141 0 01-2.076 1.902 33.147 33.147 0 01-2.793-.007c-1.146-.054-2.07-1.018-2.097-2.204-.007-.294-.007-.589-.007-.904v-.308H8.211v1.032c-.006 1.426-.917 2.364-2.33 2.397-.355.02-.744.02-1.132.02zm-1.815-3.463v.308c-.007.328-.007.636.006.951.014.281.242.476.55.482.401.007.81.007 1.219.007.408 0 .83 0 1.252-.007.235-.006.496-.107.523-.388.033-.335.026-.67.02-1.025 0-.107-.007-.214-.007-.322H2.934v-.006zm20.556.006c0 .1 0 .208-.007.309-.007.341-.014.663.013.99.02.255.228.43.523.436.415.007.837.014 1.252.014.415 0 .837-.007 1.253-.007.281-.007.509-.188.522-.429.02-.328.014-.65.014-.991 0-.1 0-.208-.007-.308H23.49v-.014zM1.748 20.34c-.067.422-.013.737.154.938.161.194.449.294.844.294h.04c.817-.013 1.695-.02 2.773-.02.637 0 1.273 0 1.916.007.636 0 1.272.006 1.909.006h.294v-2.042c0-.83.282-1.112 1.112-1.112h8.473c.08 0 .148 0 .208.006.542.034.864.355.884.891a5.86 5.86 0 010 .496v1.768h7.04c.495 0 .777-.167.864-.509.04-.174.046-.361.06-.556 0-.047.007-.1.007-.147h-1.989c-.476 0-.858 0-1.22-.007a2.374 2.374 0 01-2.324-2.003c-.06-.395-.047-.797-.04-1.192 0-.067.006-.134.006-.2a2.417 2.417 0 012.378-2.372c.235-.006.483-.006.777-.006h.904c.302 0 .563.1.737.274a.826.826 0 01.228.583c-.007.502-.389.83-.971.837h-1.474c-.596.007-.877.288-.884.878v.636c.007.603.281.877.877.884h2.813c.054 0 .115-.007.182-.013V16.89c.006-.95-.295-1.755-.918-2.451a6.06 6.06 0 01-.221-.248c-.295-.328-.603-.67-.884-1.025a2.51 2.51 0 01-.436-.79 283.35 283.35 0 01-.81-2.592c-.208-.677-.429-1.38-.643-2.07-.563-1.775-1.896-2.753-3.75-2.753-1.903 0-3.812-.006-5.714-.006-1.869 0-3.738 0-5.606.006-1.795 0-3.189 1.025-3.738 2.74-.087.274-.18.549-.268.824-.248.743-.509 1.527-.696 2.31-.342 1.427-.985 2.572-1.95 3.51-.569.55-.89 1.226-.937 1.956-.034.556-.027 1.112-.02 1.695 0 .214.006.428.006.65h1.775c.556 0 1.005-.008 1.42-.014.335-.007.603-.295.623-.677a8.46 8.46 0 00.007-.73v-.1c-.007-.596-.275-.87-.884-.87H3.14c-.542-.008-.89-.336-.89-.838s.354-.844.89-.844c.342-.007.637-.007.931-.007.315 0 .59 0 .851.007 1.172.027 2.163.918 2.31 2.063.054.435.068.904.034 1.393-.087 1.346-1.105 2.304-2.465 2.31H1.748zm16.865 1.179v-1.4h-7.226v1.4h7.226z"/><path d="M23.235 12.188H6.664c-.957 0-1.098-.529-1.098-.85a.79.79 0 01.214-.57c.188-.187.483-.28.884-.28h16.799c.04 0 .094 0 .147.006.482.04.824.388.824.85 0 .456-.335.804-.824.844-.08.007-.154.007-.214.007l-.16-.007zm-2.491 4.059H9.27c-.067 0-.12 0-.174-.006a.853.853 0 01-.79-.844c0-.442.341-.804.79-.838.073-.006.147-.006.207-.006h11.4c.074 0 .154 0 .241.006a.83.83 0 01.75.798.845.845 0 01-.71.87c-.093.02-.174.02-.24.02z"/></g><defs><clipPath id="clip0_90_11099"><path fill="#fff" transform="translate(0 3.24)" d="M0 0h30v23.49H0z"/></clipPath></defs></svg>