<svg width="24" height="24" fill="none" xmlns="http://www.w3.org/2000/svg"><g clip-path="url(#clip0_2001_840)"><g clip-path="url(#clip1_2001_840)"><path d="M5.297 24c-1.977 0-3.874-1.163-4.72-2.892a5.725 5.725 0 01-.572-2.177 1.293 1.293 0 01.19-.758c.865-1.432 1.74-2.892 2.586-4.306l.74-1.232c.018-.028.032-.056.05-.089-.004 0-.009.005-.014.005-.153.042-.288.08-.427.116-.242.065-.48.135-.721.2-.437.121-.888.251-1.335.372a1.141 1.141 0 01-.274.037.788.788 0 01-.656-.334c-.21-.303-.2-.68.028-.916a1.3 1.3 0 01.567-.335c1.674-.475 3.381-.944 5.027-1.405l1.21-.334.846-.238c1.055-.293 2.148-.595 3.227-.888.135-.037.163-.074.163-.228-.005-2.06-.005-4.152-.005-6.18V.935c0-.065 0-.135.005-.2a.794.794 0 01.781-.74c.414 0 .753.317.79.73.005.07.005.14.005.205v7.403l.447-.12 1.167-.321a54139.863 54139.863 0 018.43-2.34c.126-.032.257-.05.382-.05.075 0 .144.004.21.018.33.065.567.377.571.74.005.371-.232.669-.618.78-.59.168-1.19.335-1.772.493-.274.075-.549.154-.823.228-.214.06-.423.121-.646.182l-.2.055 2.492 4.153c.121.205.247.41.372.614.33.549.674 1.116.995 1.683.126.219.196.493.186.726a5.229 5.229 0 01-1.25 3.227 5.315 5.315 0 01-2.995 1.758c-.33.065-.67.098-1.005.098a5.308 5.308 0 01-3.339-1.196 5.196 5.196 0 01-1.846-3.064 4.206 4.206 0 01-.088-.92c.01-.215.079-.452.2-.652.846-1.428 1.716-2.874 2.553-4.274.25-.418.502-.832.748-1.25l.061-.103-10.533 2.925c.028.051.056.093.084.14.293.488.586.976.874 1.46.935 1.558 1.902 3.171 2.855 4.753.196.32.27.632.233.98-.242 2.317-1.46 3.88-3.613 4.656A4.538 4.538 0 015.297 24zm-3.6-4.474c.26 1.437 1.651 2.884 3.6 2.884.05 0 .102 0 .153-.005 1.637-.065 3.325-1.502 3.413-2.879H1.697zm13.444-3.738c.144 1.474 1.87 2.892 3.553 2.892h.065c.842-.018 1.735-.372 2.437-.967.67-.563 1.074-1.26 1.116-1.925h-7.17zm-6.784 2.13l-3.079-5.13-3.074 5.13h6.153zM21.8 14.174l-3.073-5.12-3.074 5.12H21.8z" fill="#303642"/></g></g><defs><clipPath id="clip0_2001_840"><path fill="#fff" d="M0 0h24v24H0z"/></clipPath><clipPath id="clip1_2001_840"><path fill="#fff" d="M0 0h24v24H0z"/></clipPath></defs></svg>