<svg width="22" height="24" fill="none" xmlns="http://www.w3.org/2000/svg"><g clip-path="url(#clip0_2146_9584)" fill="#303642"><path d="M1.43 6.927C.938 6.734.557 6.439.295 6c-.638-1.077-.177-2.39.793-2.914.385-.21.787-.273 1.21-.273 1.002-.006 1.998 0 3 0h.322v-.606c.005-.396.085-.782.289-1.13C6.225.53 6.691.182 7.313.059c.182-.038.37-.054.557-.054 1.784-.005 3.573 0 5.357 0 .38 0 .75.054 1.087.236.761.407 1.125 1.066 1.158 1.913.01.209 0 .423 0 .653h3.107c.24 0 .482.01.723.038.45.053.835.257 1.152.573.712.707.867 1.8.267 2.695a2.115 2.115 0 01-.846.717 3.224 3.224 0 01-.22.097c-.016.112-.037.23-.048.353l-.29 3.627a976.44 976.44 0 01-.374 4.505 1383.96 1383.96 0 01-.375 4.533 97.78 97.78 0 01-.198 2.159c-.108 1.076-.997 1.87-2.111 1.89H4.982c-.364 0-.718-.042-1.044-.198-.697-.332-1.11-.878-1.217-1.644a15.784 15.784 0 01-.101-1.013c-.08-.985-.15-1.976-.23-2.962-.108-1.307-.215-2.614-.327-3.922-.124-1.5-.247-3.005-.375-4.505-.07-.836-.14-1.671-.215-2.507-.005-.091-.027-.198-.043-.316zm1.458.112c0 .097-.006.172 0 .241.053.691.112 1.388.171 2.079.07.809.134 1.618.204 2.427.042.487.075.98.117 1.468.07.798.14 1.601.204 2.4.059.712.112 1.425.171 2.132l.21 2.426c.048.58.096 1.158.15 1.73a.713.713 0 00.664.654c.08.006.16.006.24.006h11.063c.07 0 .145.005.215 0a.713.713 0 00.685-.66c.038-.38.07-.765.102-1.146.043-.54.08-1.087.128-1.628.065-.74.13-1.473.193-2.213.049-.567.086-1.14.134-1.709.06-.739.129-1.473.193-2.212l.129-1.629c.059-.739.128-1.473.187-2.212.049-.557.097-1.12.14-1.677.01-.155 0-.31 0-.477h-15.3zm7.655-1.414h8.218c.09 0 .177.005.268-.005a.725.725 0 00.659-.691.709.709 0 00-.675-.697c-.08-.005-.161-.005-.242-.005H2.31c-.08 0-.16 0-.241.005a.696.696 0 00-.664.622c-.043.305.155.616.476.723.124.043.263.048.397.048h8.266zm-3.509-2.84c.423.049 6.814.033 7.018-.015 0-.247.021-.493-.005-.74-.043-.364-.322-.6-.692-.626-.064-.006-.123 0-.187 0H7.73c-.37.026-.648.257-.69.626-.027.241-.006.493-.006.756z"/><path d="M7.72 20.1c0 .134.005.268 0 .402a.675.675 0 01-.579.67c-.37.053-.68-.14-.787-.488a.952.952 0 01-.038-.209c-.037-.568-.07-1.141-.107-1.709L6 15.456c-.043-.649-.075-1.302-.118-1.95-.07-1.094-.14-2.192-.203-3.285-.022-.3-.043-.605-.054-.905-.005-.123 0-.252.038-.37.101-.348.396-.53.76-.487a.657.657 0 01.595.621c.037.408.064.82.091 1.227.064.986.123 1.977.182 2.963.054.937.107 1.87.166 2.807.08 1.34.172 2.678.263 4.023zm5.651-.027c.07-1.05.145-2.1.215-3.15.043-.621.075-1.248.112-1.87.06-1.039.118-2.083.182-3.123.048-.82.107-1.639.161-2.453.01-.134.021-.268.037-.402.043-.386.322-.632.708-.627a.7.7 0 01.69.648c.006.086 0 .177-.005.268-.07 1.147-.144 2.298-.214 3.445-.053.862-.102 1.725-.155 2.593l-.274 4.382c-.016.241-.026.482-.048.723-.032.36-.268.627-.584.67-.46.064-.809-.23-.814-.697v-.401c-.016-.006-.016-.006-.01-.006zm-2.131-5.239v5.432c0 .091.005.177-.006.268a.68.68 0 01-.691.643.68.68 0 01-.697-.638c-.005-.07-.005-.144-.005-.214V9.3c0-.07 0-.145.005-.214a.68.68 0 01.691-.643.68.68 0 01.697.637c.005.091.005.177.005.268v5.486z"/></g><defs><clipPath id="clip0_2146_9584"><path fill="#fff" d="M0 0h21.091v24H0z"/></clipPath></defs></svg>