<svg width="24" height="22" fill="none" xmlns="http://www.w3.org/2000/svg"><g clip-path="url(#clip0_2001_836)"><path d="M11.995 21.282a.933.933 0 01-.611-.244c-.548-.474-1.095-.952-1.642-1.426-1.734-1.513-3.533-3.072-5.28-4.627-1.215-1.08-2.195-2.194-2.99-3.404C.082 9.475-.327 7.286.257 5.073.887 2.681 2.29 1.1 4.438.373A6.524 6.524 0 016.558 0c1.394 0 2.691.51 3.86 1.513.602.52 1.117 1.15 1.582 1.923.06-.078.115-.161.17-.24.271-.372.552-.763.86-1.117C14.005.97 15.187.304 16.535.097a7.312 7.312 0 011.08-.083c1.404 0 2.669.446 3.763 1.324 1.835 1.472 2.714 3.524 2.613 6.095-.055 1.384-.525 2.732-1.435 4.12-1.123 1.707-2.58 3.096-3.864 4.223-1.421 1.256-2.884 2.512-4.296 3.726-.575.492-1.145.989-1.72 1.48-.212.203-.446.3-.68.3zM6.44 1.849a4.29 4.29 0 00-3.325 1.587C1.66 5.248 1.44 7.309 2.45 9.566c.543 1.215 1.412 2.204 2.19 3.009 1.564 1.619 3.307 3.1 4.995 4.535a133.14 133.14 0 012.369 2.042c.584-.51 1.177-1.02 1.752-1.522 1.458-1.265 2.971-2.571 4.434-3.878 1.375-1.228 2.35-2.364 3.068-3.583.846-1.435 1.108-2.916.772-4.401-.414-1.854-1.43-3.082-3.021-3.652a4.408 4.408 0 00-1.495-.276c-.838 0-1.642.276-2.392.814-.791.57-1.407 1.38-1.941 2.543-.065.138-.12.281-.18.433-.045.12-.096.248-.151.372a.881.881 0 01-.837.561h-.005a.882.882 0 01-.837-.547 4.247 4.247 0 01-.087-.216l-.028-.078c-.382-.998-.865-1.808-1.481-2.47-.837-.902-1.955-1.403-3.137-1.403z" fill="#303642"/></g><defs><clipPath id="clip0_2001_836"><path fill="#fff" d="M0 0h24v21.282H0z"/></clipPath></defs></svg>