<svg width="15" height="20" fill="none" xmlns="http://www.w3.org/2000/svg"><g clip-path="url(#clip0_41_875)" fill="#fff"><path d="M0 7.036C-.004 3.585 2.538.606 5.927.082a7.047 7.047 0 018.001 5.592c.27 1.355.102 2.678-.32 3.979-.504 1.558-1.257 2.998-2.155 4.353-1.078 1.625-2.21 3.214-3.316 4.819-.207.3-.406.605-.62.898-.258.355-.723.363-.973.004C5.217 17.81 3.87 15.9 2.577 13.959 1.687 12.62.95 11.196.45 9.657.16 8.766 0 7.845 0 7.036zM7.02 18.36c.04-.043.055-.058.071-.082 1.07-1.542 2.163-3.073 3.21-4.635.898-1.343 1.67-2.757 2.178-4.299.38-1.156.543-2.327.282-3.534-.887-4.045-5.506-5.95-8.954-3.654C1.902 3.428 1.043 5.27 1.203 7.567c.078 1.078.437 2.082.874 3.058.668 1.484 1.527 2.85 2.449 4.186.82 1.183 1.651 2.35 2.495 3.55z"/><path d="M3.514 7.032a3.52 3.52 0 013.51-3.518 3.52 3.52 0 013.519 3.51 3.52 3.52 0 01-3.51 3.519 3.517 3.517 0 01-3.519-3.51zm3.514-2.346a2.352 2.352 0 00-2.342 2.33 2.349 2.349 0 002.342 2.351c1.281 0 2.34-1.05 2.343-2.33a2.351 2.351 0 00-2.343-2.351z"/></g><defs><clipPath id="clip0_41_875"><path fill="#fff" d="M0 0h14.057v20H0z"/></clipPath></defs></svg>