<svg width="20" height="14" fill="none" xmlns="http://www.w3.org/2000/svg"><g clip-path="url(#clip0_41_871)"><path d="M9.992 14H1.887C.742 14 0 13.265 0 12.133V1.867C0 .743.742 0 1.867 0h16.27C19.254 0 20 .739 20 1.847v10.306C20 13.26 19.25 14 18.133 14h-8.14zM2.043 1.17c.066.07.102.113.144.152l7.278 7.269c.348.346.726.346 1.074 0l7.29-7.28c.038-.04.07-.082.12-.14H2.043zm-.008 11.644h15.926a7584.54 7584.54 0 01-5.055-4.99c-.031.043-.062.113-.11.164-.483.49-.972.976-1.46 1.462-.766.758-1.906.758-2.672 0-.297-.292-.586-.587-.883-.883l-.715-.711c-1.675 1.652-3.34 3.29-5.03 4.958zM1.184 2.026v9.886c1.644-1.622 3.324-3.275 5.011-4.94a6017.82 6017.82 0 00-5.011-4.946zm17.632 9.936V2.081a5576.594 5576.594 0 00-5.011 4.938l5.011 4.943z" fill="#fff"/></g><defs><clipPath id="clip0_41_871"><path fill="#fff" d="M0 0h20v14H0z"/></clipPath></defs></svg>