<svg width="20" height="20" fill="none" xmlns="http://www.w3.org/2000/svg"><g clip-path="url(#clip0_41_864)" fill="#fff"><path d="M6.218 8.377c1.295 2.297 3.068 4.079 5.369 5.352.066-.066.121-.113.168-.16.474-.457.928-.938 1.42-1.371.72-.633 1.742-.637 2.438.023a68.54 68.54 0 012.704 2.715c.642.68.634 1.712.047 2.434-.125.157-.266.305-.403.45-.399.41-.798.82-1.205 1.227-.763.765-1.694 1.023-2.75.933-1.335-.117-2.56-.582-3.746-1.168a19.544 19.544 0 01-5.693-4.231c-1.69-1.817-3.092-3.829-3.972-6.165C.266 7.552.028 6.673 0 5.743c-.023-.93.211-1.766.877-2.446.532-.539 1.044-1.101 1.612-1.594.88-.762 1.839-.754 2.688.04.896.84 1.761 1.722 2.599 2.621.645.692.633 1.715.003 2.422-.43.489-.904.934-1.361 1.4-.051.058-.11.108-.2.19zm8.1 10.49c.685.004 1.217-.192 1.652-.64.438-.454.888-.903 1.326-1.357.478-.492.478-.898 0-1.387-.364-.37-.735-.738-1.107-1.105-.411-.41-.818-.825-1.233-1.227-.368-.36-.759-.363-1.143-.024-.058.051-.113.106-.168.16-.446.446-.892.895-1.342 1.337-.325.316-.68.379-1.072.18a12.393 12.393 0 01-.81-.434c-1.182-.703-2.207-1.59-3.135-2.598-.817-.891-1.565-1.829-2.07-2.942-.266-.59-.211-.88.25-1.325.478-.46.956-.926 1.413-1.406.321-.34.31-.696.02-1.055a2.648 2.648 0 00-.172-.188 589.457 589.457 0 00-2.211-2.211c-.478-.473-.896-.477-1.37-.012-.458.457-.92.895-1.346 1.36a2.587 2.587 0 00-.509.773c-.238.602-.168 1.231-.039 1.848.196.95.552 1.84.983 2.704.93 1.864 2.171 3.509 3.643 4.974 1.862 1.852 4.007 3.278 6.484 4.18.653.239 1.33.371 1.956.395zM11.117 0c.239.047.528.094.81.168a10.726 10.726 0 014.57 2.403 10.856 10.856 0 012.756 3.77c.348.797.595 1.621.74 2.477a.541.541 0 01-.427.645.552.552 0 01-.67-.39c-.129-.458-.21-.927-.355-1.38-.474-1.512-1.296-2.817-2.427-3.93a9.39 9.39 0 00-3.568-2.224c-.51-.172-1.041-.277-1.566-.414-.32-.082-.508-.336-.47-.644.036-.262.279-.477.607-.481zm-.771 4.196a.563.563 0 01.69-.555c2.343.473 3.998 1.805 4.941 4.001.173.403.263.84.372 1.27.09.352-.09.649-.41.73-.31.079-.6-.117-.701-.464-.125-.422-.211-.864-.395-1.262-.787-1.712-2.121-2.759-3.972-3.145-.345-.075-.525-.274-.525-.575z"/></g><defs><clipPath id="clip0_41_864"><path fill="#fff" d="M0 0h20v20H0z"/></clipPath></defs></svg>