<svg width="153" height="153" fill="none" xmlns="http://www.w3.org/2000/svg"><path d="M132.663 76.138c0 31.204-25.296 56.5-56.5 56.5s-56.5-25.296-56.5-56.5 25.296-56.5 56.5-56.5 56.5 25.296 56.5 56.5z" stroke="#fff"/><path d="M139.23 77.905l9.07.736-.264 3.253c-.062.76-.235 1.402-.522 1.927-.286.525-.669.915-1.151 1.172-.473.257-1.034.36-1.681.306-.631-.05-1.163-.242-1.597-.573-.434-.33-.75-.778-.948-1.342-.198-.564-.266-1.225-.204-1.986l.235-2.89.287.324-3.279-.266.054-.66zm3.186.924l.348-.272-.235 2.89c-.079.976.073 1.732.455 2.267.391.545.975.849 1.752.912.786.064 1.412-.142 1.876-.618.473-.465.749-1.186.828-2.163l.235-2.89.299.325-5.558-.451zm-4.324 9.416l8.827 2.213-.794 3.165c-.185.74-.462 1.345-.83 1.816-.368.47-.811.793-1.328.967-.509.176-1.079.185-1.709.027-.614-.154-1.108-.43-1.482-.827-.365-.395-.603-.888-.714-1.48-.103-.588-.061-1.252.124-1.992l.705-2.812.23.366-3.19-.8.161-.643zm-1.536 6.129l3.778-1.492-.184.731-3.778 1.492.184-.731zm4.527-4.695l.376-.214-.705 2.812c-.239.95-.209 1.721.089 2.314.296.601.823.997 1.579 1.187.765.191 1.416.09 1.952-.302.543-.382.933-1.048 1.171-1.998l.705-2.812.243.37-5.41-1.357zm-1.632 11.247l-1.953 4.524-.537-.232 1.953-4.524.537.232zm-3.993-1.639l-2.227 5.156-.549-.237 2.489-5.765 8.355 3.608-2.412 5.585-.549-.237 2.149-4.977-7.256-3.133zm-5.579 9.66a5.492 5.492 0 011.292-1.465c.511-.389 1.008-.629 1.49-.72l.266.513c-.436.099-.891.319-1.363.66-.47.353-.863.789-1.179 1.306-.316.518-.507.98-.573 1.387-.062.419-.026.776.108 1.071.13.303.335.54.616.712.333.203.654.277.962.221.308-.055.609-.191.904-.407.294-.216.586-.47.875-.76.289-.291.585-.583.886-.876.308-.289.624-.533.948-.731a2.236 2.236 0 011.026-.333c.363-.012.748.106 1.155.355.37.226.651.53.844.912.194.382.262.835.206 1.359-.056.524-.279 1.105-.667 1.741a5.055 5.055 0 01-.961 1.149c-.383.345-.773.6-1.168.765l-.326-.489c.421-.19.798-.442 1.132-.756.337-.302.611-.627.824-.974.302-.496.483-.949.541-1.361.058-.411.016-.766-.125-1.066a1.59 1.59 0 00-.635-.708c-.332-.203-.651-.28-.954-.232-.308.055-.61.191-.904.407a7.522 7.522 0 00-.883.771c-.293.298-.592.588-.896.87a5.416 5.416 0 01-.931.726 2.229 2.229 0 01-1.026.333c-.36.024-.739-.086-1.139-.33a2.217 2.217 0 01-.838-.923c-.188-.39-.252-.85-.192-1.382.064-.519.292-1.101.685-1.745zm.101 8.684l-3.14 3.797-.451-.373 3.14-3.797.451.373zm-3.376-2.69l-3.579 4.328-.461-.381 4.001-4.839 7.014 5.798-3.877 4.689-.461-.381 3.454-4.178-6.091-5.036zm-6.254 6.259l5.975 6.863-.422.367-10.33-1.986.226-.196 5.437 6.246-.5.435-5.975-6.863.412-.359 10.34 1.978-.226.196-5.437-6.246.5-.435zm-10.448 8.155l4.485 7.223 2.783-1.728.316.508-6.13 3.806-.315-.508 2.783-1.728-4.485-7.223.563-.35zm-4.399 2.753l-.235 10.014-.609.263-7.45-6.695.656-.284 7.071 6.406-.263.113.174-9.534.656-.283zm-.393 2.959l.019.601-5.001 2.159-.424-.425 5.406-2.335zm-12.429 1.884l2.161 8.223 3.169-.833.152.579-6.978 1.834-.152-.579 3.168-.832-2.161-8.223.641-.169zm-6.423 1.383l1.396 8.993-.655.101-1.396-8.992.655-.102zm-8.191.711a5.148 5.148 0 011.895.28 4.74 4.74 0 011.537.928c.438.411.782.89 1.033 1.437.251.556.387 1.163.407 1.822a4.64 4.64 0 01-.294 1.83c-.217.57-.53 1.07-.942 1.498-.42.438-.913.779-1.478 1.022a5.015 5.015 0 01-1.873.409 4.9 4.9 0 01-1.882-.294 4.409 4.409 0 01-1.537-.914 4.393 4.393 0 01-1.033-1.438 4.526 4.526 0 01-.42-1.821 4.62 4.62 0 01.307-1.857c.217-.561.53-1.056.942-1.485.412-.429.904-.77 1.478-1.021a5.064 5.064 0 011.86-.396zm.02.611a4.279 4.279 0 00-1.603.348 3.828 3.828 0 00-2.065 2.184 3.985 3.985 0 00-.263 1.595c.018.58.138 1.106.36 1.576a3.83 3.83 0 002.196 2.052 4.27 4.27 0 001.621.249 4.26 4.26 0 001.602-.349 3.946 3.946 0 001.274-.885c.352-.375.625-.808.818-1.299a4.072 4.072 0 00.25-1.595 4.133 4.133 0 00-.348-1.576 4.028 4.028 0 00-.897-1.247 3.967 3.967 0 00-1.325-.804 4.266 4.266 0 00-1.62-.249zm-7.952-.69l-1.396 8.992-.552-.086-5.14-9.178.295.046-1.27 8.183-.655-.102 1.396-8.992.54.083 5.152 9.181-.295-.046 1.27-8.183.655.102zm-20.847 3.261l2.064-.33-.06.159-1.348-1.596.364-.309 1.32 1.599-.132.021.697-1.918.427.158-.71 1.913-.1-.106 2.044-.351.075.472-2.076.325.06-.159 1.36 1.601-.364.308-1.32-1.599.145-.015-.71 1.913-.427-.158.722-1.909.087.102-2.043.351-.075-.472zm-3.099-10.565l-4.743 7.767-2.785-1.701c-.65-.398-1.146-.842-1.486-1.334-.339-.492-.515-1.01-.527-1.556-.016-.538.145-1.085.483-1.639.33-.54.74-.929 1.231-1.168.491-.238 1.033-.319 1.625-.241.593.077 1.215.315 1.865.712l2.475 1.511-.418.111 1.714-2.807.566.345zm-2.26 2.428l.086.434-2.474-1.511c-.836-.511-1.579-.716-2.23-.615-.662.103-1.196.487-1.603 1.153-.41.673-.509 1.324-.294 1.953.203.632.723 1.203 1.559 1.713l2.474 1.511-.425.122 2.907-4.76zm-6.549-8.184l-5.975 6.863-2.46-2.142c-.576-.501-.99-1.022-1.242-1.564s-.339-1.082-.26-1.622c.074-.534.324-1.045.751-1.536.416-.477.885-.792 1.409-.945.518-.146 1.066-.135 1.642.034.572.176 1.145.514 1.72 1.014l2.186 1.904-.43.039 2.16-2.481.5.436zm-4.764-4.149l-.384 4.044-.569-.495.384-4.044.569.495zm2.13 6.165l.021.431-2.186-1.903c-.739-.643-1.44-.967-2.104-.97-.67-.009-1.26.281-1.773.869-.518.595-.724 1.221-.617 1.877.095.656.512 1.306 1.25 1.95l2.187 1.903-.44.049 3.663-4.206zm-9.164-6.406l-3.167-3.775.448-.376 3.167 3.775-.448.376zm3.256-2.834l-3.61-4.302.458-.385 4.036 4.81-6.97 5.85-3.911-4.661.458-.384 3.484 4.152 6.055-5.08zm-6.168-9.372c.356.574.599 1.178.728 1.812.116.632.107 1.184-.029 1.655l-.577.007c.108-.434.116-.939.024-1.514a4.645 4.645 0 00-.636-1.641c-.32-.515-.647-.894-.98-1.135-.346-.245-.681-.374-1.006-.386a1.507 1.507 0 00-.913.23c-.33.205-.541.458-.63.759-.09.3-.104.63-.043.99.06.36.155.735.285 1.124.129.389.257.784.383 1.185.12.405.195.797.226 1.176.03.379-.024.734-.165 1.066-.152.329-.431.62-.836.871a2.23 2.23 0 01-1.194.344c-.428.001-.864-.142-1.307-.428-.443-.286-.86-.746-1.254-1.379a5.08 5.08 0 01-.594-1.376 4.15 4.15 0 01-.157-1.387l.583-.071c-.02.461.036.912.166 1.351.118.437.284.828.5 1.174.305.494.63.859.97 1.096.341.237.678.36 1.01.368.323.013.63-.07.916-.248.331-.206.544-.455.638-.748.089-.3.103-.63.043-.991a7.36 7.36 0 00-.292-1.134 27.778 27.778 0 01-.373-1.192 5.412 5.412 0 01-.23-1.158 2.224 2.224 0 01.165-1.066c.14-.333.41-.622.808-.869.36-.224.76-.335 1.2-.333.433.007.873.157 1.321.451.435.29.852.756 1.25 1.397zm-7.757-3.711l-1.986-4.508.535-.236 1.987 4.508-.536.236zm3.918-1.812l-2.264-5.139.547-.24 2.532 5.745-8.327 3.67-2.454-5.568.548-.241 2.186 4.961 7.232-3.188zm-2.828-8.484l-8.826 2.213-.136-.542 6.454-8.306.073.29-8.032 2.013-.162-.643 8.827-2.213.133.53-6.452 8.319-.072-.29 8.032-2.014.161.643zm-2.531-12.855l-8.469.753.29 3.264-.595.052-.64-7.186.596-.053.29 3.263 8.469-.753.059.66zm-.492-5.316l-8.825-4.74.04-.661 9.342-3.617-.045.714-8.91 3.409.017-.286 8.424 4.467-.044.714zm-2.462-1.69l-.545-.254.336-5.437.572-.186-.363 5.878zm3.897-11.882l-8.313-1.784-.687 3.203-.585-.126L6.344 57.8l.585.125-.687 3.203 8.312 1.784-.139.649zm1.675-6.46l-8.656-2.81.205-.63 8.656 2.809-.205.63zm3.106-7.746a5.165 5.165 0 01-1.11 1.56 4.754 4.754 0 01-1.526.947 4.57 4.57 0 01-1.75.267 4.73 4.73 0 01-1.807-.466 4.633 4.633 0 01-1.496-1.094 4.391 4.391 0 01-.907-1.52 4.473 4.473 0 01-.237-1.78 4.996 4.996 0 01.487-1.855 4.897 4.897 0 011.117-1.543 4.405 4.405 0 011.513-.953 4.39 4.39 0 011.75-.266 4.52 4.52 0 011.814.453 4.617 4.617 0 011.513 1.118c.402.448.7.953.895 1.515a4.57 4.57 0 01.238 1.78 5.062 5.062 0 01-.494 1.837zm-.552-.261a4.268 4.268 0 00.418-1.585 3.82 3.82 0 00-1.006-2.833 3.983 3.983 0 00-1.301-.96 3.924 3.924 0 00-1.567-.394 3.82 3.82 0 00-2.826 1.023 4.27 4.27 0 00-.96 1.33 4.269 4.269 0 00-.417 1.585 3.954 3.954 0 00.209 1.536c.173.485.435.925.785 1.32.346.384.782.7 1.307.948a4.14 4.14 0 001.562.407 4.024 4.024 0 001.518-.232 3.961 3.961 0 001.32-.815c.39-.362.71-.805.958-1.33zm3.922-6.326l-7.398-5.3.326-.454 10.51-.451-.175.243-6.732-4.822.386-.54 7.398 5.3-.318.444-10.517.462.174-.243 6.732 4.822-.386.539zm6.501-20.19l-.633 1.991-.115-.124 2.032-.487.112.464-2.022.46.041-.127 1.4 1.486-.334.31-1.39-1.495.14-.041-.605 1.983-.455-.145.643-2 .115.123-2.042.496-.112-.464 2.022-.46-.05.137-1.39-1.495.333-.31 1.38 1.504-.13.032.606-1.984.454.146zm10.675 2.025l-4.828-7.713 2.765-1.732c.647-.404 1.266-.649 1.857-.733.592-.084 1.134-.01 1.628.224.489.225.906.614 1.25 1.165.336.536.501 1.077.495 1.623-.006.545-.176 1.066-.51 1.561-.334.496-.824.946-1.47 1.35l-2.458 1.538.088-.423 1.745 2.788-.562.352zm-1.162-3.107l-.426-.116 2.457-1.539c.83-.52 1.345-1.092 1.546-1.72.204-.638.098-1.288-.315-1.949-.419-.668-.958-1.047-1.616-1.135-.656-.101-1.4.109-2.23.628l-2.457 1.539.081-.435 2.96 4.727zm10.541-2.377l-3.45-8.42 3.02-1.238c.705-.29 1.356-.425 1.953-.407.598.017 1.12.182 1.567.496.443.305.788.758 1.035 1.36.24.585.31 1.146.212 1.683-.102.529-.358 1.013-.768 1.453-.413.431-.972.792-1.678 1.08l-2.682 1.1.158-.402 1.247 3.043-.614.252zm5.847-2.396l-3.442-2.158.698-.286 3.441 2.158-.697.286zm-6.465-.863l-.395-.175 2.682-1.1c.906-.37 1.51-.852 1.81-1.444.31-.595.316-1.253.02-1.975-.299-.73-.765-1.194-1.4-1.393-.63-.21-1.397-.13-2.303.242l-2.683 1.099.154-.414 2.115 5.16zm9.762-5.294L63.06 9.44l.134.57-4.797 1.125-.133-.57zm1.061 4.184l5.468-1.282.136.582-6.113 1.434-2.078-8.86 5.923-1.389.137.582-5.278 1.238 1.805 7.695zm11.09-1.287a5.48 5.48 0 01-1.946-.166c-.617-.18-1.105-.437-1.465-.77l.254-.519c.339.292.786.526 1.341.703a4.644 4.644 0 001.751.17c.605-.053 1.09-.175 1.456-.364.374-.198.64-.44.797-.723.166-.285.234-.591.205-.92-.034-.388-.165-.69-.394-.904a2.18 2.18 0 00-.865-.484 7.513 7.513 0 00-1.132-.252c-.405-.06-.815-.123-1.23-.19a5.877 5.877 0 01-1.152-.329 2.227 2.227 0 01-.878-.627c-.225-.284-.36-.664-.401-1.138a2.229 2.229 0 01.23-1.222c.193-.382.516-.707.971-.973.455-.267 1.053-.433 1.796-.5.5-.044 1-.014 1.496.09.505.102.941.264 1.309.483l-.2.553a4.11 4.11 0 00-1.28-.46 4.38 4.38 0 00-1.273-.083c-.579.052-1.05.176-1.416.374-.365.198-.626.443-.783.735a1.585 1.585 0 00-.191.93c.035.39.161.691.38.907.229.214.517.376.866.484.349.108.73.192 1.145.25.414.06.825.127 1.232.204a5.4 5.4 0 011.137.317c.352.142.645.351.878.626.233.276.37.646.412 1.112A2.21 2.21 0 0173.223 12c-.201.383-.534.708-.997.976-.456.258-1.059.42-1.81.487zm7.008-5.271l4.92.266-.032.585-4.92-.266.032-.585zm-.155 4.314l5.607.304-.032.597-6.27-.34.492-9.086 6.075.328-.032.598-5.413-.293-.427 7.892zm9.053 1.325l2.01-8.875.546.123 4.497 9.51-.292-.066 1.83-8.076.647.146-2.011 8.875-.533-.12-4.51-9.513.293.066-1.83 8.076-.647-.146zm12.611 3.545l3.165-7.89-3.04-1.22.222-.555 6.697 2.686-.223.555-3.04-1.22-3.165 7.891-.616-.247zm4.635 1.792l8.211-5.736.572.335-.987 9.967-.617-.36.979-9.492.247.145-7.788 5.502-.617-.361zm2.618-1.435l.473-.37 4.7 2.753-.092.594-5.081-2.977zm8.942 8.892l5.346-6.611-2.548-2.06.376-.465 5.611 4.536-.376.465-2.548-2.06-5.346 6.612-.515-.417zm5.118 4.504l6.411-6.457.47.467-6.411 6.458-.47-.468zm5.401 6.12a5.15 5.15 0 01-.898-1.692 4.75 4.75 0 01-.164-1.788 4.57 4.57 0 01.546-1.684 4.721 4.721 0 011.225-1.408 4.637 4.637 0 011.648-.848 4.394 4.394 0 011.766-.13 4.473 4.473 0 011.698.585 5 5 0 011.44 1.266 4.9 4.9 0 01.879 1.69c.182.596.24 1.189.175 1.78a4.401 4.401 0 01-.546 1.684 4.528 4.528 0 01-1.217 1.418 4.615 4.615 0 01-1.677.853 4.427 4.427 0 01-1.756.122 4.576 4.576 0 01-1.698-.584 5.063 5.063 0 01-1.421-1.264zm.48-.378a4.28 4.28 0 001.231 1.084 3.822 3.822 0 002.983.369c.51-.136.99-.38 1.44-.734a3.913 3.913 0 001.055-1.224 3.816 3.816 0 00.351-2.985 4.256 4.256 0 00-.76-1.453 4.258 4.258 0 00-1.23-1.084 3.964 3.964 0 00-1.468-.501 4.02 4.02 0 00-1.531.111 4.07 4.07 0 00-1.433.744c-.45.354-.804.758-1.063 1.215a4.02 4.02 0 00-.472 1.461 3.952 3.952 0 00.137 1.545c.149.511.402.995.76 1.452zm4.073 6.625l8.064-4.218.259.496-4.332 9.586-.138-.265 7.338-3.838.307.587-8.064 4.218-.253-.484 4.326-9.597.138.265-7.338 3.838-.307-.588zm14.978 14.589l-1.496-1.46.163-.047-.477 2.034-.465-.108.497-2.013.095.094-1.956.583-.127-.436 1.959-.571-.026.143-1.5-1.432.333-.34 1.499 1.472-.162.047.473-2.047.465.108-.496 2.013-.099-.106 1.959-.571.128.436-1.964.56.03-.131 1.501 1.43-.334.342z" fill="#fff"/></svg>