<svg width="20" height="20" fill="none" xmlns="http://www.w3.org/2000/svg"><g clip-path="url(#clip0_2022_14006)"><path d="M9.996 18.735a.778.778 0 01-.51-.203c-.455-.395-.912-.794-1.368-1.189-1.445-1.26-2.943-2.56-4.4-3.855-1.012-.901-1.828-1.829-2.491-2.837C.069 8.896-.272 7.071.215 5.228.74 3.235 1.909 1.916 3.699 1.31A5.437 5.437 0 015.466 1c1.161 0 2.242.425 3.216 1.261.502.433.931.958 1.318 1.602.05-.065.096-.134.142-.2.226-.31.46-.635.717-.93.812-.924 1.797-1.48 2.92-1.653.307-.046.61-.069.901-.069 1.17 0 2.223.372 3.136 1.104 1.529 1.227 2.261 2.936 2.177 5.079-.046 1.154-.437 2.277-1.196 3.434-.935 1.422-2.15 2.58-3.22 3.519-1.184 1.046-2.403 2.093-3.58 3.104-.479.41-.954.825-1.433 1.235a.817.817 0 01-.568.249zM5.366 2.54a3.575 3.575 0 00-2.77 1.322C1.383 5.373 1.2 7.09 2.042 8.973c.453 1.011 1.177 1.835 1.825 2.506 1.303 1.35 2.756 2.584 4.162 3.78a111.82 111.82 0 011.974 1.701c.487-.425.981-.85 1.46-1.269 1.216-1.054 2.476-2.142 3.695-3.23 1.146-1.024 1.959-1.97 2.557-2.986.705-1.196.924-2.43.644-3.669-.345-1.544-1.192-2.568-2.518-3.043a3.673 3.673 0 00-1.246-.23c-.698 0-1.368.23-1.993.679-.66.475-1.173 1.15-1.618 2.12-.053.114-.1.233-.15.36-.038.1-.08.206-.126.31a.734.734 0 01-.697.468h-.004a.735.735 0 01-.698-.457 3.545 3.545 0 01-.072-.18c-.008-.023-.016-.042-.023-.065-.319-.832-.721-1.506-1.235-2.058-.697-.751-1.629-1.17-2.614-1.17z" fill="#303642"/></g><defs><clipPath id="clip0_2022_14006"><path fill="#fff" transform="translate(0 1)" d="M0 0h20v17.735H0z"/></clipPath></defs></svg>