<svg width="20" height="20" fill="none" xmlns="http://www.w3.org/2000/svg"><g clip-path="url(#clip0_2022_13978)"><path fill="#fff" d="M0 0h20v20H0z"/><g clip-path="url(#clip1_2022_13978)" fill="#303642"><path d="M9.998 19.987c-1.178 0-2.355.022-3.533-.009-1.086-.026-2.155-.2-3.163-.632-1.509-.642-2.434-1.784-2.9-3.333a9.504 9.504 0 01-.393-2.73C0 11.013-.004 8.745.018 6.477A8.875 8.875 0 01.47 3.76C1.051 2.02 2.242.92 3.987.401A9.514 9.514 0 016.674.01c2.282-.01 4.567-.014 6.849.007.999.01 1.98.175 2.922.528 1.636.61 2.661 1.789 3.154 3.446.266.89.388 1.806.393 2.73.008 2.26.008 4.524-.01 6.784a8.909 8.909 0 01-.405 2.573c-.576 1.867-1.827 3.04-3.703 3.56-1.03.288-2.085.366-3.15.362H9.998v-.013zM1.405 9.976h-.009c0 1.038-.004 2.08 0 3.119a9.6 9.6 0 00.27 2.312c.354 1.391 1.174 2.36 2.557 2.813.75.245 1.527.362 2.316.367 2.137.017 4.275.008 6.412.013.881 0 1.758-.074 2.609-.314 1.37-.389 2.277-1.252 2.691-2.63a7.794 7.794 0 00.332-2.19c.017-2.225.026-4.45 0-6.674a11.125 11.125 0 00-.223-2.011c-.336-1.658-1.326-2.735-2.992-3.11-.628-.14-1.274-.245-1.915-.253-2.129-.035-4.257-.018-6.39-.022-.83 0-1.654.065-2.465.27-1.483.375-2.465 1.274-2.888 2.757a8.039 8.039 0 00-.305 2.107c-.009 1.147 0 2.299 0 3.446z"/><path d="M12.78 7.778h-2.355c-.462 0-.78-.284-.777-.694 0-.41.319-.702.781-.702 1.58-.005 3.154-.005 4.733 0 .41 0 .707.24.763.606a.689.689 0 01-.466.75c-.096.03-.2.04-.301.04-.794.004-1.588 0-2.378 0zm.014 6.521h-2.378c-.379 0-.636-.179-.741-.493a.693.693 0 01.536-.89c.1-.017.201-.017.306-.017h4.532c.537 0 .872.266.872.698.005.431-.327.702-.868.702h-2.26zm-7.346-.951c.135-.144.244-.266.353-.375a86.26 86.26 0 011.265-1.26.69.69 0 01.964 0c.27.26.301.684.03.963a99.178 99.178 0 01-2.141 2.142c-.28.275-.676.253-.96-.022a26.038 26.038 0 01-.693-.694.694.694 0 01-.009-.981c.27-.275.702-.275.999.004.065.057.113.131.192.223zM5.46 6.8C5.985 6.277 6.483 5.762 7 5.27c.127-.123.315-.214.49-.25.287-.056.523.084.671.341a.665.665 0 01-.074.772c-.153.175-.323.336-.484.497-.524.524-1.047 1.052-1.57 1.57-.393.389-.76.385-1.152-.004-.192-.187-.38-.38-.572-.571-.31-.314-.327-.746-.043-1.03.279-.279.715-.261 1.03.044.047.048.095.096.165.161z"/></g></g><defs><clipPath id="clip0_2022_13978"><path fill="#fff" d="M0 0h20v20H0z"/></clipPath><clipPath id="clip1_2022_13978"><path fill="#fff" d="M0 0h19.996v20H0z"/></clipPath></defs></svg>