<svg width="20" height="20" fill="none" xmlns="http://www.w3.org/2000/svg"><g clip-path="url(#clip0_2022_13488)"><g clip-path="url(#clip1_2022_13488)" fill="#303642"><path d="M10.119 15.164c-1.896-.009-3.583-.446-5.193-1.196-1.785-.834-3.36-1.963-4.662-3.453-.353-.406-.353-.642.004-1.048 1.468-1.664 3.253-2.882 5.296-3.725 1.73-.714 3.529-1.049 5.402-.87 1.504.143 2.927.575 4.283 1.236 1.696.825 3.199 1.913 4.453 3.332.392.446.397.678-.01 1.12-2.23 2.431-4.951 3.975-8.221 4.506a6.618 6.618 0 01-.598.062c-.286.018-.576.027-.754.036zm-.12-1.187a3.976 3.976 0 003.988-3.98 3.976 3.976 0 00-3.975-3.992 3.975 3.975 0 00-3.998 3.988 3.97 3.97 0 003.984 3.984zm8.6-3.997c-1.275-1.307-2.725-2.338-4.403-3.047.63.928.973 1.94.973 3.056 0 1.124-.348 2.137-1.013 3.083 1.232-.41 3.61-2.07 4.444-3.092zM5.837 6.893C4.118 7.65 2.673 8.69 1.388 9.998a14.011 14.011 0 004.448 3.1c-1.343-2.088-1.347-4.122 0-6.205zm.949-4.1c-.005.285-.16.504-.393.58-.24.08-.526.013-.656-.201a27.19 27.19 0 01-.852-1.486c-.142-.263-.022-.58.228-.736.25-.156.593-.116.754.139.312.495.589 1.012.874 1.525.036.063.036.143.045.179zm.001 14.437c-.022.053-.049.178-.111.285-.228.415-.464.83-.705 1.24-.206.353-.545.464-.844.29-.312-.183-.379-.53-.174-.892.246-.433.491-.865.746-1.294a.584.584 0 01.678-.259c.24.076.406.304.41.63zM13.84 3.453c-.45-.045-.763-.45-.58-.83.255-.526.558-1.03.866-1.53.16-.259.504-.299.754-.147.254.156.374.468.236.736a21.333 21.333 0 01-.857 1.486c-.084.129-.276.191-.419.285zm0 13.13c.173 0 .352.093.463.29.259.45.522.896.776 1.351.17.308.076.647-.205.817-.28.17-.624.08-.807-.223a31.38 31.38 0 01-.772-1.357c-.223-.419.04-.874.544-.878zM10.583 1.276c0 .227.005.46 0 .687a.583.583 0 01-.58.584.573.573 0 01-.584-.575 36.67 36.67 0 010-1.4.573.573 0 01.589-.572c.312.004.562.24.575.562.005.237 0 .477 0 .714zM9.414 18.693c0-.223-.004-.446 0-.665a.579.579 0 01.576-.584c.33-.005.584.245.588.593.01.45.005.906 0 1.356-.004.348-.254.602-.584.598-.33 0-.571-.254-.58-.607v-.691z"/><path d="M10.003 7.995a2.007 2.007 0 011.994 2.003 2.007 2.007 0 01-2.003 1.994A2.008 2.008 0 018 9.984c0-1.093.906-1.994 2.003-1.99zm.812 2.007a.796.796 0 00-.812-.825.8.8 0 00-.82.794.802.802 0 00.798.839.805.805 0 00.834-.808z"/></g></g><defs><clipPath id="clip0_2022_13488"><path fill="#fff" d="M0 0h20v20H0z"/></clipPath><clipPath id="clip1_2022_13488"><path fill="#fff" d="M0 0h20v19.987H0z"/></clipPath></defs></svg>