<svg width="20" height="20" fill="none" xmlns="http://www.w3.org/2000/svg"><g clip-path="url(#clip0_2022_13657)"><g clip-path="url(#clip1_2022_13657)" fill="#303642"><path d="M0 9.955c0-2.472-.004-4.948 0-7.42C0 1.32.77.344 1.933.066c.195-.046.398-.062.598-.062C4.987 0 7.44 0 9.896 0c.637 0 1.043.523.856 1.09a.806.806 0 01-.707.558 3.595 3.595 0 01-.293.008H2.624c-.492 0-.808.203-.921.597-.032.11-.04.23-.04.348 0 4.91-.003 9.815 0 14.724 0 .625.325.945.957.945h7.167c.125 0 .25-.004.371.023.402.082.664.461.629.887a.812.812 0 01-.75.742c-.05.004-.106.004-.156.004-2.45 0-4.894.004-7.343 0-1.226-.004-2.202-.773-2.472-1.949a3.089 3.089 0 01-.062-.656C0 14.864 0 12.41 0 9.955z"/><path d="M17.121 9.069c-.058-.043-.125-.079-.171-.125L13.599 5.64c-.367-.364-.414-.813-.125-1.172a.82.82 0 011.136-.145c.074.055.137.118.203.184 1.613 1.59 3.222 3.183 4.835 4.772.469.465.469.918 0 1.383-1.62 1.601-3.241 3.202-4.862 4.8-.379.375-.809.425-1.172.14a.817.817 0 01-.14-1.163c.054-.07.12-.137.187-.2 1.101-1.09 2.203-2.175 3.308-3.265.047-.046.11-.074.164-.109l-.035-.07H7.584c-.496 0-.816-.23-.91-.656a.825.825 0 01.738-.996c.09-.008.184-.004.274-.004h9.404c.004-.027.02-.047.031-.07z"/></g></g><defs><clipPath id="clip0_2022_13657"><path fill="#fff" d="M0 0h20v20H0z"/></clipPath><clipPath id="clip1_2022_13657"><path fill="#fff" d="M0 0h20v19.93H0z"/></clipPath></defs></svg>