<svg width="20" height="20" fill="none" xmlns="http://www.w3.org/2000/svg"><g clip-path="url(#clip0_2022_13961)"><g clip-path="url(#clip1_2022_13961)" fill="#303642" stroke="#303642" stroke-width=".1"><path d="M18.588 14.967c-.114-1.133-.36-2.23-.914-3.241-.617-1.125-1.527-1.835-2.815-2.027-.485-.07-.93-.035-1.336.27a6.698 6.698 0 01-.518.34l-.17.105m5.753 4.553l-3.612 5.075c.24 0 .483-.012.723-.035m2.889-5.04c.058.593.082 1.195.074 1.792-.024 1.718-1.25 3.034-2.968 3.198-.238.023-.48.035-.718.035C13.43 20 11.883 20 10.333 20H5.569c-.804 0-1.562-.164-2.23-.64l15.249-4.393zm-5.752-4.553l-.026-.043s0 0 0 0m.026.043c-1.667 1.027-3.335 1.03-5.002.004L3.311 19.4c-.769-.546-1.23-1.301-1.314-2.238-.149-1.674.047-3.318.68-4.885h0c.373-.92.93-1.72 1.846-2.212h0a3.714 3.714 0 011.84-.447h0c.216.004.436.108.62.205h0c.152.083.3.177.444.272l.1.065c.11.074.22.146.333.215h0c.827.51 1.652.762 2.475.761.823 0 1.647-.255 2.475-.765m.026.043l-.027-.043s0 0 0 0m0 0l.171-.105a6.67 6.67 0 00.513-.337c.421-.316.882-.35 1.373-.28h0c1.306.195 2.228.916 2.852 2.053h0c.559 1.02.806 2.124.92 3.26h0c.058.595.082 1.199.074 1.798-.024 1.744-1.27 3.08-3.013 3.247m0 0l-.005-.05.005.05s0 0 0 0zm-.05-1.271h0c.955-.11 1.65-.773 1.764-1.713.093-.779.024-1.562-.09-2.338h0c-.116-.81-.306-1.6-.697-2.322h0c-.458-.852-1.12-1.4-2.114-1.458a.502.502 0 00-.246.056c-.17.101-.333.207-.498.314-.123.08-.246.16-.375.24h0c-.81.5-1.689.807-2.642.882 0 0 0 0 0 0l-.004-.05c-1.289.101-2.468-.254-3.553-.941l8.455 7.33zm0 0a4.925 4.925 0 01-.634.039h-9.45c-.51 0-.995-.078-1.43-.352h0c-.597-.377-.89-.943-.905-1.626h0c-.036-1.367.078-2.718.605-3.998h0c.264-.644.621-1.225 1.244-1.584l10.57 7.521zm-1.91-7.501c-.123.08-.246.16-.372.237l1.148-.617a.553.553 0 00-.273.063c-.171.1-.337.208-.503.317zM5.335 4.743h0c-.04 2.64 2.11 4.932 4.849 4.948 2.627.016 4.892-2.134 4.892-4.841.04-2.66-2.158-4.849-4.77-4.9h0c-2.679-.047-4.923 2.138-4.97 4.793zm4.869-3.514a3.58 3.58 0 013.6 3.59 3.583 3.583 0 01-3.592 3.596 3.585 3.585 0 01-3.594-3.581 3.578 3.578 0 013.586-3.605z"/></g></g><defs><clipPath id="clip0_2022_13961"><path fill="#fff" d="M0 0h20v20H0z"/></clipPath><clipPath id="clip1_2022_13961"><path fill="#fff" transform="translate(2)" d="M0 0h16.665v20H0z"/></clipPath></defs></svg>