<svg width="99" height="76" fill="none" xmlns="http://www.w3.org/2000/svg"><g opacity=".1" clip-path="url(#clip0_40_888)" fill="#303642"><path d="M60.647 68.767c12.41-6.96 21.273-16.395 23.295-30.966-1.772.461-3.44 1.111-5.15 1.32-10.512 1.28-20.96-4.884-22.9-16.268C54.412 14.215 59.73 3.06 69.615.629c8.134-2.013 17.226.902 22.524 7.82 5.63 7.338 7.403 15.64 6.757 24.635-.855 11.887-6.215 21.636-14.432 29.96-5.193 5.262-11.22 9.33-17.831 12.558-.751.356-1.127.272-1.585-.44-1.419-2.097-2.878-4.173-4.4-6.395zM28.259 37.843c-1.731.46-3.358 1.069-5.005 1.278-11.158 1.447-20.918-5.64-22.9-15.954-1.167-6.08.605-11.49 4.234-16.312C7.716 2.705 11.992.587 17.06.125c6.444-.607 12.242 1.154 16.976 5.661 4.046 3.858 6.882 8.617 8.154 14.131 3.337 14.466-.27 27.297-9.385 38.723-5.943 7.464-13.472 12.957-22.002 17.066a6.96 6.96 0 01-.792.315c-1.627-2.37-3.275-4.739-4.964-7.212.772-.462 1.439-.86 2.127-1.258 6.278-3.774 11.763-8.408 15.746-14.676 2.815-4.424 4.526-9.246 5.297-14.425.021-.21.021-.419.042-.608z"/></g><defs><clipPath id="clip0_40_888"><path fill="#fff" d="M0 0h99v76H0z"/></clipPath></defs></svg>