<svg width="205" height="196" fill="none" xmlns="http://www.w3.org/2000/svg"><path d="M196.532 86.193C148.929 146.579 61.386 156.942 1 109.339" stroke="#303642" stroke-dasharray="4 4"/><g clip-path="url(#clip0_80_1156)"><path d="M191.838 91.53l4.268 3.84c.068.06.14.125.222.167.383.2.805.001.89-.42a26613.404 26613.404 0 002.164-11.05c.046-.229.041-.445-.122-.643-.19-.23-.448-.304-.742-.212-.784.24-1.568.481-2.349.723-2.818.863-5.632 1.736-8.452 2.597-.456.14-.58.615-.349.948.053.074.123.14.191.201l4.279 3.85z" fill="#303642"/></g><defs><clipPath id="clip0_80_1156"><path fill="#fff" transform="scale(1 -1) rotate(48.027 205.93 172.781)" d="M0 0h11v13H0z"/></clipPath></defs></svg>