<svg width="205" height="196" fill="none" xmlns="http://www.w3.org/2000/svg"><path d="M196.532 109.339C148.929 48.953 61.386 38.589 1 86.193" stroke="#303642" stroke-dasharray="4 4"/><g clip-path="url(#clip0_41_902)"><path d="M191.838 104.002l4.268-3.839c.068-.061.14-.126.222-.168.383-.2.805-.001.89.42.157.787.311 1.577.465 2.363l1.699 8.687c.046.229.041.445-.122.643-.19.229-.448.304-.742.212-.783-.24-1.568-.481-2.349-.723-2.818-.863-5.632-1.736-8.452-2.598-.456-.138-.58-.614-.349-.947.053-.074.123-.14.191-.201l4.279-3.849z" fill="#303642"/></g><defs><clipPath id="clip0_41_902"><path fill="#fff" transform="rotate(48.027 -13.515 270.547)" d="M0 0h11v13H0z"/></clipPath></defs></svg>