<svg version="1.1" id="Layer_1" xmlns="http://www.w3.org/2000/svg" x="0" y="0" viewBox="0 0 24 24" xml:space="preserve"><style>.st0{fill:#303642}</style><path class="st0" d="M12 24H6.3c-1 0-1.9-.2-2.7-.8-.9-.6-1.5-1.5-1.6-2.6-.2-2 .1-4 .8-5.8.4-1.1 1.1-2.1 2.2-2.6.7-.4 1.4-.5 2.2-.5.2 0 .5.1.7.2.4.1.8.4 1.1.6 2 1.2 4 1.2 6 0 .2-.1.5-.3.7-.5.6-.5 1.3-.5 2-.3 1.4.3 2.4 1.1 3.1 2.4.7 1.2 1 2.5 1.1 3.9.1.7.1 1.4.1 2.2 0 2.1-1.5 3.6-3.6 3.8H12zm0-1.4h6.4c1.2-.1 2-1 2.2-2.1.1-.9 0-1.9-.1-2.8-.1-1-.4-1.9-.9-2.8-.6-1-1.4-1.7-2.6-1.8-.1 0-.2 0-.3.1-.4.2-.7.4-1 .7-1 .6-2 1-3.1 1-1.5.1-3-.3-4.3-1.1l-.9-.6c-.2-.2-.3-.2-.3-.2-.5 0-1 .1-1.4.4-.8.4-1.2 1.2-1.5 1.9-.6 1.5-.8 3.2-.7 4.8 0 1 .5 1.7 1.4 2.1.5.2 1 .3 1.5.3 1.8.1 3.7.1 5.6.1z"/><path class="st0" d="M17.6 5.8c0 3.2-2.6 5.8-5.8 5.8C8.6 11.6 6 9 6 5.8 6.1 2.6 8.7 0 11.9 0s5.7 2.6 5.7 5.8zm-1.4 0c0-2.4-2-4.4-4.4-4.4-2.4 0-4.4 1.9-4.4 4.4 0 2.4 1.9 4.4 4.4 4.4 2.5 0 4.4-2 4.4-4.4z"/></svg>