<svg width="18" height="11" fill="none" xmlns="http://www.w3.org/2000/svg"><g clip-path="url(#clip0_90_1589)" fill="#D5D8DE"><path d="M9.004 11c-1.775-.01-3.42-.508-4.945-1.42-1.546-.923-2.808-2.17-3.89-3.622-.222-.3-.225-.635-.007-.93C1.255 3.56 2.53 2.307 4.098 1.38 5.335.65 6.656.184 8.086.047c2.358-.23 4.495.41 6.449 1.74 1.286.876 2.362 1.983 3.293 3.24.221.3.225.635.007.93-1.093 1.471-2.376 2.733-3.95 3.659-1.237.728-2.562 1.197-3.989 1.326-.295.025-.594.04-.892.058zM5.222 5.374c-.063 2.173 1.606 3.943 3.67 3.99 2.1.046 3.84-1.658 3.886-3.756.05-2.173-1.61-3.943-3.673-3.986-2.112-.047-3.848 1.647-3.883 3.752z"/><path d="M9.007 3.402c1.107 0 2.028.93 2.031 2.051.004 1.179-.913 2.13-2.052 2.127-1.107 0-2.024-.941-2.024-2.08.003-1.15.924-2.094 2.045-2.098z"/></g><defs><clipPath id="clip0_90_1589"><path fill="#fff" d="M0 0h18v11H0z"/></clipPath></defs></svg>