<svg width="112" height="30" fill="none" xmlns="http://www.w3.org/2000/svg"><g clip-path="url(#clip0_302_190)"><path d="M98.019 26.014l2.162 3.65h-2.162v-3.65z" fill="#FFB71B"/><path d="M111.175 9.064v11.964h-7.029v2.626h3.013l-3.308 5.566v.443h-.164l-2.963-4.518 2.693-4.117h-3.342l-2.056 3.384v-6.498h-2.971v11.749h-1.585v-2.765h-2.882V9.064h20.594zM108.01 27.02l3.165-5.343v5.343h-3.165z" fill="#FFB71B"/><path d="M23.438 25.66V13.966h-4.366v15.638h9.929V25.66h-5.563zm14.85-12.09c-5.027 0-8.617 3.438-8.617 8.217S33.26 30 38.288 30c5.011 0 8.585-3.426 8.585-8.213 0-4.796-3.574-8.218-8.585-8.218zm0 12.418c-2.38 0-4.13-1.77-4.13-4.201 0-2.436 1.75-4.21 4.13-4.21 2.377 0 4.1 1.761 4.1 4.21 0 2.448-1.723 4.201-4.1 4.201zm20.565-12.022v8.205l-6.005-8.205h-3.772v15.638h4.18v-8.487l6.208 8.487h3.565V13.966h-4.176zm7.207 0v15.638h4.365V13.966h-4.366zm17.171 0v8.205l-6.005-8.205h-3.771v15.638h4.176v-8.487l6.212 8.487h3.565V13.966H83.23zM2.587 5.36C1.495 5.179.53 5.014.53 4.01c0-.842.784-1.407 1.98-1.407 1.21 0 1.952.56 2.02 1.504h.379c-.063-1.154-.97-1.87-2.394-1.87-1.412 0-2.372.72-2.372 1.782 0 1.315 1.196 1.521 2.355 1.723 1.104.186 2.196.388 2.196 1.551 0 .927-.847 1.526-2.124 1.526C1.3 8.82.505 8.242.4 7.244H.008c.105 1.213 1.045 1.95 2.553 1.95 1.513 0 2.525-.762 2.525-1.912 0-1.488-1.328-1.728-2.5-1.922zm6.768 3.33c-1.045 0-1.644-.616-1.644-1.674V2.731h2.432v-.35H7.71V.401h-.396v1.98H5.773v.35h1.542v4.302c0 1.269.759 2.036 2.006 2.036h.877v-.38h-.843zm7.365-6.322v3.843c0 1.598-.926 2.596-2.422 2.596s-2.428-.994-2.428-2.596V2.368h-.396v3.89c0 1.787 1.096 2.937 2.824 2.937 1.728 0 2.819-1.15 2.819-2.937v-3.89h-.396zM25.284 0v4.054c-.552-1.1-1.656-1.816-3.03-1.816-1.96 0-3.413 1.496-3.413 3.48 0 1.977 1.453 3.477 3.413 3.477 1.382 0 2.49-.725 3.038-1.837l.055 1.706h.333V0h-.396zm-3.009 8.807c-1.732 0-3.034-1.331-3.034-3.088 0-1.77 1.302-3.094 3.034-3.094 1.749 0 3.026 1.311 3.026 3.094 0 1.778-1.277 3.088-3.026 3.088zm5.845-6.439v6.696h.396V2.368h-.396zM28.027.19v.692h.582V.189h-.582zm5.824 2.047c-1.989 0-3.485 1.475-3.485 3.481 0 1.99 1.496 3.477 3.485 3.477 1.998 0 3.485-1.488 3.485-3.477 0-1.993-1.487-3.48-3.485-3.48zm0 6.57c-1.761 0-3.085-1.319-3.085-3.089 0-1.782 1.315-3.093 3.085-3.093s3.08 1.319 3.08 3.093c0 1.77-1.31 3.09-3.08 3.09z" fill="#fff"/><path d="M8.655 23.535a1.75 1.75 0 100-3.5 1.75 1.75 0 000 3.5z" fill="#FFB71B"/><path d="M12.49 23.536v2.246H8.495c-2.2 0-4-1.791-4-3.995 0-2.208 1.8-4 4-4 1.58 0 2.945.92 3.594 2.247h4.434A8.217 8.217 0 00.278 21.787C.277 26.32 3.96 30 8.494 30h8.217v-6.464H12.49z" fill="#fff"/></g><defs><clipPath id="clip0_302_190"><path fill="#fff" d="M0 0h111.183v30H0z"/></clipPath></defs></svg>