<svg width="13" height="13" fill="none" xmlns="http://www.w3.org/2000/svg"><path d="M11.857 1H1.143c-.176 0-.341.048-.49.127l5.822 6.467 1.304-1.393 4.568-5.074a1.038 1.038 0 00-.49-.127zm1.029 1L8.587 6.5l4.299 4.5a1.23 1.23 0 00.114-.512V2.513c0-.184-.043-.357-.114-.513zM.115 2A1.228 1.228 0 000 2.513v7.975c0 .184.043.356.114.512l4.299-4.5L.115 2z" fill="#FF1616"/><path d="M8.049 7.098L6.744 8.492a.361.361 0 01-.27.124.361.361 0 01-.269-.124L4.951 7.098.653 11.873c.149.079.314.127.49.127h10.714c.176 0 .34-.048.49-.127L8.049 7.098z" fill="#FF1616"/></svg>