<svg width="641" height="641" fill="none" xmlns="http://www.w3.org/2000/svg"><g opacity=".05" clip-path="url(#clip0_92_2268)"><path d="M68.99 498.31c1.53-3.79 2.64-7.83 4.68-11.32 9.51-16.24 19.21-32.37 29.01-48.44 1.66-2.72 1.75-4.82.43-7.76-4.82-10.78-9.43-21.66-13.74-32.65-1.25-3.19-2.96-4.75-6.21-5.53-22.01-5.32-43.98-10.8-65.96-16.24C5.2 373.4.04 366.93.02 354.74c-.03-23.16-.03-46.33 0-69.49.02-11.96 5.24-18.63 16.75-21.49 21.98-5.45 43.94-10.96 65.96-16.24 3.68-.88 5.5-2.69 6.81-6.2 3.42-9.19 7.17-18.28 11.13-27.25 1.31-2.97 1.1-5.14-.54-7.83-10.79-17.81-21.42-35.72-32.13-53.57-7.11-11.85-6.2-19.77 3.52-29.5 15.77-15.8 31.56-31.59 47.37-47.36 9.6-9.58 17.52-10.51 29.07-3.56 17.27 10.39 34.59 20.7 51.79 31.21 2.94 1.79 5.26 1.69 8.31.32 11.23-5.03 22.53-9.91 33.96-14.46 3.22-1.28 4.68-3.05 5.46-6.28 5.32-22.01 10.79-43.98 16.22-65.96C266.63 5.22 273.18.05 285.44.03 308.6 0 331.77 0 354.93.03c11.88.02 18.53 5.28 21.4 16.86 5.44 21.98 10.91 43.95 16.21 65.97.83 3.44 2.43 5.26 5.81 6.57 10.54 4.08 20.97 8.5 31.29 13.12 3.12 1.39 5.39 1.28 8.28-.48 16.35-9.98 32.83-19.74 49.25-29.61 12.02-7.22 19.57-6.4 29.45 3.45 15.82 15.76 31.61 31.54 47.37 47.36 9.82 9.86 10.65 17.51 3.45 29.46-9.97 16.55-19.99 33.08-29.7 49.78-1.09 1.87-1.14 5.12-.33 7.2 4.24 10.84 9.09 21.44 13.33 32.28 1.26 3.23 3.05 4.69 6.26 5.47 22.01 5.33 43.98 10.81 65.96 16.25 11.9 2.95 17.05 9.48 17.07 21.72.03 23.16.03 46.33 0 69.49-.02 11.91-5.26 18.52-16.86 21.39-21.98 5.44-43.95 10.93-65.96 16.23-3.45.83-5.26 2.43-6.57 5.81-4.02 10.39-8.39 20.65-12.92 30.83-1.31 2.93-1.24 5.04.44 7.79 9.91 16.2 19.59 32.54 29.38 48.81 7.13 11.85 6.2 19.56-3.67 29.44-15.78 15.8-31.56 31.6-47.35 47.38-9.38 9.38-17.35 10.41-28.68 3.65-16.16-9.65-32.33-19.29-48.4-29.08-2.83-1.73-5.03-2.03-8.21-.57-10.73 4.91-21.61 9.52-32.58 13.89-3.45 1.37-5.3 3.14-6.19 6.85-5.22 21.86-10.69 43.66-16.08 65.48-3.01 12.17-9.46 17.21-22.09 17.22-22.83.02-45.66.02-68.49 0-12.65-.01-19.11-5.05-22.11-17.2-5.39-21.82-10.86-43.62-16.08-65.48-.88-3.7-2.7-5.49-6.18-6.85a643.387 643.387 0 01-31.27-13.14c-3.26-1.48-5.63-1.5-8.7.37-15.77 9.65-31.67 19.09-47.55 28.56-11.12 6.64-19.2 5.64-28.29-3.45-16.15-16.14-32.29-32.28-48.43-48.43-4.38-4.37-7.83-9.15-8.2-16.11zm251.12-47.11c72.19-.08 131.05-58.97 131.09-131.14.04-72.13-58.79-131.05-131.01-131.22-72.25-.17-131.55 59.16-131.34 131.38.21 72.26 59.15 131.07 131.26 130.98z" fill="#fff"/></g><defs><clipPath id="clip0_92_2268"><path fill="#fff" d="M0 0h640.05v640.04H0z"/></clipPath></defs></svg>