<svg width="40" height="85" viewBox="0 0 40 85" fill="none" xmlns="http://www.w3.org/2000/svg">
<mask id="mask0_2060_674" style="mask-type:luminance" maskUnits="userSpaceOnUse" x="0" y="14" width="40" height="71">
<path d="M0.435913 14.432H39.6372V84.9627H0.435913V14.432Z" fill="white"/>
</mask>
<g mask="url(#mask0_2060_674)">
<g opacity="0.0500031">
<path d="M39.6372 14.432H30.5772H0.435913V28.484V33.292C7.32525 38.8747 14.2146 44.4587 21.1052 50.0414C14.2146 55.6254 7.32525 61.208 0.435913 66.792V70.9107V84.9627H39.6372V70.1467C33.0946 70.1414 26.5519 70.136 20.0106 70.1307C24.4706 66.692 28.9293 63.2533 33.3893 59.8147C33.4746 53.324 33.5586 46.8334 33.6439 40.344C28.8253 36.6454 24.0066 32.9467 19.1866 29.248H39.6372V14.432Z" fill="url(#paint0_linear_2060_674)"/>
</g>
</g>
<path d="M39.6371 14.4322H30.5771H0.435791V28.4842V33.2922C7.32512 38.8748 14.2158 44.4588 21.1051 50.0415C14.2158 55.4202 7.32512 60.8002 0.435791 66.1788V70.9108V84.9628H39.6371V70.1468C33.0945 70.1415 26.5518 70.1362 20.0105 70.1308C24.4705 66.6922 28.9291 63.2535 33.3891 59.8148C33.4745 53.3242 33.5585 46.8335 33.6438 40.3442C28.8251 36.6455 24.0065 32.9468 19.1878 29.2482H39.6371V14.4322Z" fill="black"/>
<path d="M39.6372 84.9627H0.435913V70.1467H39.6372V84.9627Z" fill="#161616"/>
<path d="M39.6372 29.248H0.435913V14.432H39.6372V29.248Z" fill="black"/>
<path d="M0.436279 70.2015V66.1788C11.5056 57.5668 22.5749 48.9548 33.6443 40.3428C33.5589 46.8335 33.4736 53.3241 33.3896 59.8148C28.9296 63.2535 24.4696 66.6921 20.0096 70.1308C13.4856 70.1548 6.96028 70.1775 0.436279 70.2015Z" fill="#212121"/>
<path d="M7.95127 2.95247V11.1735H6.98787L2.50807 4.7187H2.42779V11.1735H1.43228V2.95247H2.39568L6.89153 9.42329H6.97181V2.95247H7.95127Z" fill="black"/>
<defs>
<linearGradient id="paint0_linear_2060_674" x1="0.43634" y1="49.6975" x2="39.6372" y2="49.6975" gradientUnits="userSpaceOnUse">
<stop stop-color="white"/>
<stop offset="0.151685" stop-color="#ADADAD"/>
<stop offset="0.44382" stop-color="white"/>
<stop offset="0.735955" stop-color="#E1E1E1"/>
<stop offset="1" stop-color="white"/>
</linearGradient>
</defs>
</svg>
