<svg width="385" height="102" viewBox="0 0 385 102" fill="none" xmlns="http://www.w3.org/2000/svg">
<mask id="mask0_2056_673" style="mask-type:luminance" maskUnits="userSpaceOnUse" x="0" y="19" width="40" height="72">
<path d="M0.538574 19.6094H39.7399V90.1414H0.538574V19.6094Z" fill="white"/>
</mask>
<g mask="url(#mask0_2056_673)">
<g opacity="0.0500031">
<path d="M39.7397 19.6101H30.6797H0.53833V33.6621V38.4701C7.42766 44.0528 14.3183 49.6368 21.2077 55.2194C14.3183 60.8034 7.42766 66.3861 0.53833 71.9701V76.0888V90.1407H39.7397V75.3247C33.197 75.3194 26.6543 75.3141 20.113 75.3087C24.573 71.8701 29.0317 68.4314 33.4917 64.9927C33.577 58.5021 33.661 52.0114 33.7463 45.5221C28.9277 41.8234 24.109 38.1248 19.2903 34.4261H39.7397V19.6101Z" fill="#EDEDED"/>
</g>
</g>
<path d="M39.7397 19.6101H30.6797H0.53833V33.6621V38.4701C7.42766 44.0528 14.3183 49.6368 21.2077 55.2194C14.3183 60.5981 7.42766 65.9781 0.53833 71.3568V76.0888V90.1407H39.7397V75.3247C33.197 75.3194 26.6543 75.3141 20.113 75.3087C24.573 71.8701 29.0317 68.4314 33.4917 64.9927C33.577 58.5021 33.661 52.0114 33.7463 45.5221C28.9277 41.8234 24.109 38.1248 19.2903 34.4261H39.7397V19.6101Z" fill="#EDEDED"/>
<path d="M39.7399 90.1414H0.538574V75.3254H39.7399V90.1414Z" fill="#EDEDED"/>
<path d="M39.7399 34.4254H0.538574V19.6094H39.7399V34.4254Z" fill="#EDEDED"/>
<path d="M0.538818 75.3794V71.3567C11.6082 62.7447 22.6775 54.1327 33.7468 45.5207C33.6615 52.0114 33.5762 58.5021 33.4922 64.9927C29.0322 68.4314 24.5722 71.8701 20.1122 75.3087C13.5882 75.3327 7.06282 75.3554 0.538818 75.3794Z" fill="#EDEDED"/>
<path d="M8.05356 8.13094V16.3519H7.09017L2.61037 9.89716H2.53008V16.3519H1.53457V8.13094H2.49797L6.99383 14.6018H7.07411V8.13094H8.05356Z" fill="#EDEDED"/>
<mask id="mask1_2056_673" style="mask-type:luminance" maskUnits="userSpaceOnUse" x="0" y="45" width="34" height="31">
<path d="M0.538696 45.5213H33.7467V75.38H0.538696V45.5213Z" fill="white"/>
</mask>
<g mask="url(#mask1_2056_673)">
<g opacity="0.139999">
<path d="M0.53894 75.3794V71.3567C11.6083 62.7447 22.6776 54.1327 33.7469 45.5207C33.6616 52.0114 33.5763 58.5021 33.4923 64.9927C29.0323 68.4314 24.5723 71.8701 20.1123 75.3087C13.5883 75.3327 7.06294 75.3554 0.53894 75.3794Z" fill="#EDEDED"/>
</g>
</g>
<mask id="mask2_2056_673" style="mask-type:luminance" maskUnits="userSpaceOnUse" x="0" y="75" width="40" height="16">
<path d="M0.538696 75.3254H39.74V90.1414H0.538696V75.3254Z" fill="white"/>
</mask>
<g mask="url(#mask2_2056_673)">
<g opacity="0.360001">
<path d="M39.74 90.1414H0.538696V75.3254H39.74V90.1414Z" fill="#EDEDED"/>
</g>
</g>
<path d="M57.3181 81.8705V20.9794H78.6062C82.848 20.9794 86.3465 21.7128 89.1016 23.1796C91.8568 24.6265 93.9083 26.5789 95.2562 29.0368C96.604 31.4748 97.2779 34.1804 97.2779 37.1536C97.2779 39.77 96.8121 41.9305 95.8805 43.6352C94.9687 45.3398 93.7596 46.6877 92.2532 47.6787C90.7666 48.6698 89.1512 49.4032 87.4069 49.8789V50.4735C89.2701 50.5925 91.1432 51.2466 93.0263 52.4359C94.9093 53.6251 96.4851 55.3298 97.7536 57.5498C99.0222 59.7698 99.6565 62.4853 99.6565 65.6963C99.6565 68.7488 98.9627 71.4941 97.5753 73.9321C96.1878 76.3701 93.9975 78.3027 91.0045 79.7298C88.0115 81.157 84.1166 81.8705 79.3198 81.8705H57.3181ZM64.6917 75.3295H79.3198C84.1364 75.3295 87.5556 74.3979 89.5773 72.5347C91.6189 70.6517 92.6397 68.3722 92.6397 65.6963C92.6397 63.6349 92.1145 61.7321 91.0639 59.9878C90.0134 58.2237 88.5169 56.8164 86.5744 55.7658C84.6319 54.6955 82.3326 54.1603 79.6766 54.1603H64.6917V75.3295ZM64.6917 47.7382H78.3684C80.5884 47.7382 82.5903 47.3021 84.3742 46.43C86.178 45.5579 87.6051 44.3289 88.6557 42.7432C89.726 41.1575 90.2612 39.2943 90.2612 37.1536C90.2612 34.4777 89.3296 32.2082 87.4664 30.345C85.6032 28.462 82.6498 27.5204 78.6062 27.5204H64.6917V47.7382ZM119.146 20.9794V81.8705H111.772V20.9794H119.146ZM182.215 20.9794V81.8705H175.079L141.898 34.0615H141.304V81.8705H133.93V20.9794H141.066L174.366 68.9074H174.96V20.9794H182.215ZM248.346 51.425C248.346 57.8471 247.187 63.3971 244.868 68.0749C242.549 72.7527 239.367 76.3602 235.324 78.8973C231.28 81.4345 226.662 82.703 221.469 82.703C216.275 82.703 211.657 81.4345 207.613 78.8973C203.57 76.3602 200.389 72.7527 198.069 68.0749C195.75 63.3971 194.591 57.8471 194.591 51.425C194.591 45.0029 195.75 39.4529 198.069 34.775C200.389 30.0972 203.57 26.4897 207.613 23.9526C211.657 21.4155 216.275 20.1469 221.469 20.1469C226.662 20.1469 231.28 21.4155 235.324 23.9526C239.367 26.4897 242.549 30.0972 244.868 34.775C247.187 39.4529 248.346 45.0029 248.346 51.425ZM241.211 51.425C241.211 46.1525 240.329 41.7026 238.564 38.0753C236.82 34.448 234.451 31.7027 231.458 29.8395C228.485 27.9763 225.155 27.0447 221.469 27.0447C217.782 27.0447 214.442 27.9763 211.449 29.8395C208.476 31.7027 206.107 34.448 204.343 38.0753C202.599 41.7026 201.726 46.1525 201.726 51.425C201.726 56.6974 202.599 61.1473 204.343 64.7746C206.107 68.4019 208.476 71.1472 211.449 73.0104C214.442 74.8736 217.782 75.8052 221.469 75.8052C225.155 75.8052 228.485 74.8736 231.458 73.0104C234.451 71.1472 236.82 68.4019 238.564 64.7746C240.329 61.1473 241.211 56.6974 241.211 51.425ZM260.744 20.9794H269.545L290.239 71.5238H290.952L311.646 20.9794H320.446V81.8705H313.549V35.6075H312.954L293.925 81.8705H287.265L268.237 35.6075H267.642V81.8705H260.744V20.9794ZM337.728 81.8705H329.998L352.356 20.9794H359.968L382.326 81.8705H374.596L356.4 30.6126H355.924L337.728 81.8705ZM340.582 58.0849H371.741V64.626H340.582V58.0849Z" fill="#EDEDED"/>
</svg>
