<svg width="385" height="101" viewBox="0 0 385 101" fill="none" xmlns="http://www.w3.org/2000/svg">
<mask id="mask0_2056_671" style="mask-type:luminance" maskUnits="userSpaceOnUse" x="0" y="18" width="40" height="72">
<path d="M0.00012207 18.74H39.2015V89.2706H0.00012207V18.74Z" fill="white"/>
</mask>
<g mask="url(#mask0_2056_671)">
<g opacity="0.0500031">
<path d="M39.2015 18.74H30.1415H0.00012207V32.792V37.5999C6.88945 43.1826 13.7788 48.7666 20.6695 54.3493C13.7788 59.9333 6.88945 65.5159 0.00012207 71.0999V75.2186V89.2706H39.2015V74.4546C32.6588 74.4493 26.1161 74.4439 19.5748 74.4386C24.0348 70.9999 28.4935 67.5613 32.9535 64.1226C33.0388 57.6319 33.1228 51.1413 33.2081 44.6519C28.3895 40.9533 23.5708 37.2546 18.7508 33.556H39.2015V18.74Z" fill="url(#paint0_linear_2056_671)"/>
</g>
</g>
<path d="M39.2013 18.7401H30.1413H0V32.7921V37.6001C6.88933 43.1828 13.78 48.7668 20.6693 54.3494C13.78 59.7281 6.88933 65.1081 0 70.4868V75.2188V89.2708H39.2013V74.4548C32.6587 74.4494 26.116 74.4441 19.5747 74.4388C24.0347 71.0001 28.4933 67.5614 32.9533 64.1228C33.0387 57.6321 33.1227 51.1414 33.208 44.6521C28.3893 40.9534 23.5707 37.2548 18.752 33.5561H39.2013V18.7401Z" fill="black"/>
<path d="M39.2015 89.2706H0.00012207V74.4546H39.2015V89.2706Z" fill="#161616"/>
<path d="M39.2015 33.5559H0.00012207V18.7399H39.2015V33.5559Z" fill="black"/>
<path d="M0.000488281 74.5094V70.4867C11.0698 61.8747 22.1392 53.2627 33.2085 44.6507C33.1232 51.1414 33.0378 57.6321 32.9538 64.1227C28.4938 67.5614 24.0338 71.0001 19.5738 74.4387C13.0498 74.4627 6.52449 74.4854 0.000488281 74.5094Z" fill="#212121"/>
<path d="M7.51536 7.26033V15.4813H6.55196L2.07216 9.02656H1.99188V15.4813H0.996365V7.26033H1.95976L6.45562 13.7312H6.5359V7.26033H7.51536Z" fill="black"/>
<mask id="mask1_2056_671" style="mask-type:luminance" maskUnits="userSpaceOnUse" x="0" y="44" width="34" height="31">
<path d="M0.00012207 44.6518H33.2081V74.5092H0.00012207V44.6518Z" fill="white"/>
</mask>
<g mask="url(#mask1_2056_671)">
<g opacity="0.139999">
<path d="M0.00012207 74.5092V70.4865C11.0695 61.8745 22.1388 53.2625 33.2081 44.6518C33.1228 51.1411 33.0388 57.6318 32.9535 64.1225C28.4935 67.5611 24.0348 70.9998 19.5748 74.4385C13.0495 74.4625 6.52546 74.4852 0.00012207 74.5092Z" fill="url(#paint1_linear_2056_671)"/>
</g>
</g>
<mask id="mask2_2056_671" style="mask-type:luminance" maskUnits="userSpaceOnUse" x="0" y="74" width="40" height="16">
<path d="M0.00012207 74.4545H39.2015V89.2705H0.00012207V74.4545Z" fill="white"/>
</mask>
<g mask="url(#mask2_2056_671)">
<g opacity="0.360001">
<path d="M39.2015 89.2705H0.00012207V74.4545H39.2015V89.2705Z" fill="url(#paint2_linear_2056_671)"/>
</g>
</g>
<path d="M56.78 81V20.1089H78.0681C82.3099 20.1089 85.8084 20.8422 88.5635 22.309C91.3187 23.756 93.3702 25.7084 94.7181 28.1662C96.0659 30.6042 96.7398 33.3099 96.7398 36.2831C96.7398 38.8995 96.274 41.06 95.3424 42.7646C94.4307 44.4693 93.2216 45.8171 91.7151 46.8082C90.2285 47.7993 88.6131 48.5327 86.8688 49.0084V49.603C88.732 49.7219 90.6051 50.376 92.4882 51.5653C94.3712 52.7546 95.947 54.4592 97.2156 56.6792C98.4841 58.8992 99.1184 61.6147 99.1184 64.8258C99.1184 67.8783 98.4247 70.6235 97.0372 73.0616C95.6497 75.4996 93.4594 77.4322 90.4664 78.8593C87.4734 80.2864 83.5785 81 78.7817 81H56.78ZM64.1536 74.459H78.7817C83.5983 74.459 87.0175 73.5274 89.0393 71.6641C91.0809 69.7811 92.1017 67.5017 92.1017 64.8258C92.1017 62.7644 91.5764 60.8615 90.5259 59.1172C89.4753 57.3531 87.9788 55.9458 86.0363 54.8953C84.0938 53.8249 81.7946 53.2898 79.1385 53.2898H64.1536V74.459ZM64.1536 46.8677H77.8303C80.0503 46.8677 82.0522 46.4316 83.8362 45.5594C85.6399 44.6873 87.067 43.4584 88.1176 41.8727C89.1879 40.287 89.7231 38.4238 89.7231 36.2831C89.7231 33.6072 88.7915 31.3376 86.9283 29.4744C85.0651 27.5914 82.1117 26.6499 78.0681 26.6499H64.1536V46.8677ZM118.608 20.1089V81H111.234V20.1089H118.608ZM181.677 20.1089V81H174.541L141.36 33.1909H140.766V81H133.392V20.1089H140.528L173.828 68.0368H174.422V20.1089H181.677ZM247.808 50.5544C247.808 56.9765 246.649 62.5265 244.33 67.2043C242.01 71.8822 238.829 75.4897 234.786 78.0268C230.742 80.5639 226.124 81.8325 220.93 81.8325C215.737 81.8325 211.119 80.5639 207.075 78.0268C203.032 75.4897 199.85 71.8822 197.531 67.2043C195.212 62.5265 194.053 56.9765 194.053 50.5544C194.053 44.1323 195.212 38.5823 197.531 33.9045C199.85 29.2267 203.032 25.6192 207.075 23.0821C211.119 20.5449 215.737 19.2764 220.93 19.2764C226.124 19.2764 230.742 20.5449 234.786 23.0821C238.829 25.6192 242.01 29.2267 244.33 33.9045C246.649 38.5823 247.808 44.1323 247.808 50.5544ZM240.672 50.5544C240.672 45.282 239.79 40.8321 238.026 37.2048C236.282 33.5775 233.913 30.8322 230.92 28.969C227.947 27.1058 224.617 26.1742 220.93 26.1742C217.244 26.1742 213.904 27.1058 210.911 28.969C207.938 30.8322 205.569 33.5775 203.805 37.2048C202.061 40.8321 201.188 45.282 201.188 50.5544C201.188 55.8269 202.061 60.2768 203.805 63.9041C205.569 67.5314 207.938 70.2767 210.911 72.1399C213.904 74.0031 217.244 74.9347 220.93 74.9347C224.617 74.9347 227.947 74.0031 230.92 72.1399C233.913 70.2767 236.282 67.5314 238.026 63.9041C239.79 60.2768 240.672 55.8269 240.672 50.5544ZM260.206 20.1089H269.007L289.701 70.6533H290.414L311.108 20.1089H319.908V81H313.01V34.737H312.416L293.387 81H286.727L267.699 34.737H267.104V81H260.206V20.1089ZM337.19 81H329.46L351.818 20.1089H359.43L381.788 81H374.058L355.862 29.742H355.386L337.19 81ZM340.044 57.2144H371.203V63.7554H340.044V57.2144Z" fill="#262626"/>
<defs>
<linearGradient id="paint0_linear_2056_671" x1="0.000548737" y1="54.0054" x2="39.2014" y2="54.0054" gradientUnits="userSpaceOnUse">
<stop stop-color="white"/>
<stop offset="0.151685" stop-color="#ADADAD"/>
<stop offset="0.44382" stop-color="white"/>
<stop offset="0.735955" stop-color="#E1E1E1"/>
<stop offset="1" stop-color="white"/>
</linearGradient>
<linearGradient id="paint1_linear_2056_671" x1="0.000548737" y1="59.5803" x2="33.2082" y2="59.5803" gradientUnits="userSpaceOnUse">
<stop stop-color="#A6B0BF"/>
<stop offset="0.882022" stop-color="white"/>
<stop offset="1" stop-color="white"/>
</linearGradient>
<linearGradient id="paint2_linear_2056_671" x1="0.00056207" y1="81.8628" x2="39.2014" y2="81.8628" gradientUnits="userSpaceOnUse">
<stop stop-color="#1D1D1B"/>
<stop offset="0.033708" stop-color="#1D1D1B"/>
<stop offset="1" stop-color="white"/>
</linearGradient>
</defs>
</svg>
