<svg width="36" height="36" fill="none" xmlns="http://www.w3.org/2000/svg"><path d="M29.93 4.836L29.238.903a1.055 1.055 0 10-2.077.366l.244 1.387A18.017 18.017 0 0018 0 17.883 17.883 0 005.272 5.272C1.872 8.672 0 13.192 0 18a1.055 1.055 0 002.11 0C2.11 9.238 9.237 2.11 18 2.11c2.917 0 5.77.807 8.24 2.306l-1.464.258a1.055 1.055 0 10.366 2.077l3.933-.693c.574-.101.957-.648.856-1.222z" fill="#AAAEC6"/><path d="M28.507 15.549L27 15.194a9.352 9.352 0 00-.652-1.574l.815-1.316a.964.964 0 00-.138-1.19l-2.14-2.138a.964.964 0 00-1.189-.139l-1.316.815A9.349 9.349 0 0020.806 9l-.355-1.506a.964.964 0 00-.938-.744h-3.026a.964.964 0 00-.938.743L15.194 9a9.357 9.357 0 00-1.574.652l-1.316-.815a.964.964 0 00-1.19.138l-2.139 2.14a.964.964 0 00-.138 1.189l.815 1.316A9.361 9.361 0 009 15.194l-1.507.355a.964.964 0 00-.743.938v3.026c0 .447.308.836.743.938L9 20.806c.169.543.387 1.07.652 1.573l-.815 1.317a.964.964 0 00.138 1.19l2.14 2.139a.964.964 0 001.189.138l1.316-.815a9.391 9.391 0 001.574.652l.355 1.506a.965.965 0 00.938.744h3.026a.964.964 0 00.938-.743L20.806 27a9.362 9.362 0 001.574-.652l1.316.815a.964.964 0 001.19-.138l2.139-2.14a.964.964 0 00.138-1.189l-.815-1.316A9.391 9.391 0 0027 20.806l1.507-.355a.964.964 0 00.743-.938v-3.025a.964.964 0 00-.743-.94zM18 22.5a4.5 4.5 0 110-9 4.5 4.5 0 010 9z" fill="#555FEB"/><path d="M6.07 31.164l.693 3.933a1.055 1.055 0 002.077-.366l-.244-1.387A18.018 18.018 0 0018 36c4.808 0 9.328-1.872 12.728-5.272C34.128 27.328 36 22.808 36 18a1.055 1.055 0 10-2.11 0c0 8.762-7.128 15.89-15.89 15.89-2.917 0-5.77-.807-8.24-2.306l1.464-.258a1.055 1.055 0 10-.366-2.077l-3.933.693a1.055 1.055 0 00-.856 1.222z" fill="#AAAEC6"/></svg>