<svg width="36" height="36" fill="none" xmlns="http://www.w3.org/2000/svg"><path fill-rule="evenodd" clip-rule="evenodd" d="M15.225.598h5.55v2.784a14.035 14.035 0 015.05 2.093l1.97-1.97 3.924 3.924-1.97 1.97a14.037 14.037 0 012.093 5.05h2.785V20h-2.785a14.04 14.04 0 01-2.093 5.05l1.97 1.97-3.924 3.924-1.97-1.97c-.797.533-1.652.986-2.552 1.349v-2.694a.87.87 0 01.447-.787 11.183 11.183 0 005.468-9.617c0-6.178-5.01-11.187-11.188-11.187-6.178 0-11.187 5.009-11.187 11.187 0 3.956 2.079 7.598 5.468 9.617a.869.869 0 01.447.787v2.694a14.01 14.01 0 01-2.553-1.349l-1.97 1.97-3.924-3.924 1.97-1.97A14.034 14.034 0 014.158 20H1.373v-5.55h2.785A14.035 14.035 0 016.25 9.4L4.28 7.43l3.924-3.924 1.97 1.97a14.036 14.036 0 015.05-2.093V.598zm6.923 28.433h-8.296v1.277h8.296V29.03zm0 2.402c0 .761-.622 1.383-1.384 1.383h-5.528a1.386 1.386 0 01-1.384-1.383h8.296zM18 7.162c-5.558 0-10.062 4.505-10.062 10.062 0 3.678 1.973 6.895 4.918 8.65.635.379.996 1.014.996 1.754v.278h8.296v-.278c0-.74.36-1.375.996-1.753a10.057 10.057 0 004.919-8.651c0-5.557-4.506-10.062-10.063-10.062zm5.79 8.887l-3.054 2.636.921 3.928a.138.138 0 01-.206.15L18 20.673l-3.45 2.09a.138.138 0 01-.207-.15l.921-3.928-3.054-2.636a.138.138 0 01.079-.242l4.02-.338 1.563-3.72a.138.138 0 01.255 0l1.564 3.72 4.02.337c.122.01.172.163.079.243zM20.68 33.94a2.047 2.047 0 01-1.956 1.461h-1.448a2.047 2.047 0 01-1.956-1.461h5.36z" fill="#555FEB"/><path fill-rule="evenodd" clip-rule="evenodd" d="M20.774.598h-5.549v2.784a14.036 14.036 0 00-5.05 2.093l-1.97-1.97L4.281 7.43l1.97 1.97a14.035 14.035 0 00-2.093 5.05H1.373V20h2.785a14.034 14.034 0 002.093 5.05l-1.97 1.97 3.924 3.924 1.97-1.97a14.01 14.01 0 002.553 1.349v-2.694a.869.869 0 00-.447-.787 11.183 11.183 0 01-5.468-9.617c0-6.178 5.009-11.187 11.187-11.187 6.178 0 11.188 5.009 11.188 11.187 0 3.956-2.08 7.598-5.468 9.617a.87.87 0 00-.447.787v2.694c.9-.363 1.755-.816 2.552-1.349l1.97 1.97 3.924-3.924-1.97-1.97A14.04 14.04 0 0031.842 20h2.785v-5.55h-2.785A14.037 14.037 0 0029.75 9.4l1.97-1.97-3.924-3.924-1.97 1.97a14.035 14.035 0 00-5.05-2.093V.598z" fill="#AAAEC6"/></svg>