<svg width="36" height="36" fill="none" xmlns="http://www.w3.org/2000/svg"><path fill-rule="evenodd" clip-rule="evenodd" d="M32.688 9.601a1.127 1.127 0 01-1.15 1.1 1.127 1.127 0 01-1.1-1.15l.062-2.71-2.708-.061a1.127 1.127 0 01-1.1-1.15 1.127 1.127 0 011.151-1.1l3.834.088a1.122 1.122 0 011.098 1.15L32.688 9.6z" fill="#555FEB"/><path fill-rule="evenodd" clip-rule="evenodd" d="M8.74 14.019v18.212a1.894 1.894 0 01-1.894 1.894H3.769a1.894 1.894 0 01-1.894-1.895V14.02c0-1.046.848-1.895 1.894-1.895h3.077c1.047 0 1.895.85 1.895 1.895zm16.923 9.231v8.98a1.894 1.894 0 01-1.894 1.895h-3.076a1.894 1.894 0 01-1.895-1.895v-8.98a1.894 1.894 0 011.895-1.895h3.076a1.894 1.894 0 011.895 1.895zm-8.461-4.616V32.23a1.894 1.894 0 01-1.895 1.895h-3.076a1.894 1.894 0 01-1.895-1.895V18.636a1.894 1.894 0 011.895-1.895h3.076c1.048 0 1.895.849 1.895 1.895zm16.923 0V32.23a1.894 1.894 0 01-1.895 1.895h-3.076a1.894 1.894 0 01-1.895-1.895V18.636a1.894 1.894 0 011.895-1.895h3.076c1.048 0 1.895.849 1.895 1.895z" fill="#AAAEC6"/><path fill-rule="evenodd" clip-rule="evenodd" d="M3.675 3.9a1.126 1.126 0 011.35-1.8l8.93 6.697h4.24c.346 0 .672.16.885.431l3.43 4.367 7.95-8.297a1.125 1.125 0 011.625 1.557l-8.847 9.231a1.12 1.12 0 01-.867.345 1.12 1.12 0 01-.83-.429l-3.892-4.954h-4.07a1.12 1.12 0 01-.675-.226L3.676 3.9z" fill="#555FEB"/></svg>