<svg width="148" height="26" fill="none" xmlns="http://www.w3.org/2000/svg"><path d="M46.274 7.2h2.492V17h-2.492v-5.278l-2.38 3.934h-.252l-2.366-3.92V17H38.77V7.2h2.506l2.492 4.186L46.274 7.2zM60.683 17H57.98l-.42-1.414h-3.262L53.879 17h-2.716l3.234-9.8h3.052l3.234 9.8zm-4.76-6.902l-.98 3.332h1.974l-.994-3.332zm12.33 1.918L71.192 17h-2.8l-1.54-2.604L65.312 17h-2.815l2.954-4.998L62.61 7.2h2.814l1.428 2.422L68.28 7.2h2.814l-2.842 4.816zM73.723 17V7.2h2.506V17h-2.506zm13.23-9.8h2.493V17h-2.492v-5.278l-2.38 3.934h-.252l-2.366-3.92V17H79.45V7.2h2.506l2.492 4.186L86.955 7.2zm5.73 9.8V7.2h2.506V17h-2.506zm12.125-7.868l-3.458 5.446h3.57V17h-6.819v-1.932l3.459-5.446h-3.389V7.2h6.637v1.932zM116.468 17h-2.702l-.42-1.414h-3.262l-.42 1.414h-2.716l3.234-9.8h3.052l3.234 9.8zm-4.76-6.902l-.98 3.332h1.974l-.994-3.332zm5.825-2.898h7.35v2.422h-2.422V17h-2.506V9.622h-2.422V7.2zm17.847 8.54c-.999.98-2.212 1.47-3.64 1.47-1.447 0-2.665-.49-3.654-1.47-.989-.99-1.484-2.203-1.484-3.64 0-1.437.495-2.646 1.484-3.626.989-.99 2.207-1.484 3.654-1.484 1.437 0 2.651.495 3.64 1.484.999.98 1.498 2.189 1.498 3.626 0 1.428-.499 2.641-1.498 3.64zm-5.53-1.722c.513.495 1.143.742 1.89.742.747 0 1.377-.247 1.89-.742.504-.504.756-1.143.756-1.918 0-.784-.252-1.419-.756-1.904-.504-.504-1.134-.756-1.89-.756s-1.386.252-1.89.756c-.504.485-.756 1.12-.756 1.904 0 .775.252 1.414.756 1.918zM147.518 17h-2.688l-1.708-3.164h-.896V17h-2.506V7.2h3.92c.999 0 1.834.322 2.506.966.682.625 1.022 1.433 1.022 2.422 0 .579-.149 1.115-.448 1.61a3.264 3.264 0 01-1.218 1.176L147.518 17zm-3.906-7.49h-1.386v2.198h1.386c.308.01.56-.089.756-.294.196-.205.294-.471.294-.798 0-.327-.098-.593-.294-.798a.999.999 0 00-.756-.308z" fill="#fff"/><path d="M0 .987C0 .442.442 0 .987 0h24.026l-7.24 6.911-9.53-.148a.987.987 0 00-1.002.987V18.1L0 25.013V.987z" fill="#555FEB"/><path d="M26 25.013a.987.987 0 01-.987.987H.987l7.24-6.911h9.545a.987.987 0 00.988-.988V7.9L26 .987v24.026z" fill="#F9F7F5"/></svg>