<svg width="300" height="131" fill="none" xmlns="http://www.w3.org/2000/svg"><path d="M21.779 50.639h-7.313v28.293h7.313V50.639zM73.45 70.095c-18.072 0-32.798 13.504-33.189 31.348h66.347c-.861-17.426-15.407-31.348-33.158-31.348zm167.355 0c-17.751 0-32.297 13.912-33.158 31.348h66.327c-.862-17.426-15.407-31.348-33.159-31.348h-.01z" fill="#D1D3D4"/><path d="M278.943 51.574l-51.842-7.235c-3.456-.487-6.732-1.82-9.487-3.89L178.545 11.1c-3.536-2.657-7.883-4.1-12.371-4.1H48.215c-3.656 0-7.102 1.722-9.266 4.648L20.887 39.343a11.381 11.381 0 00-2.244 6.788v43.111c0 7.394 5.86 14.132 13.404 14.132 4.468 0 8.204-1.145 8.204-1.234 0-18.182 14.896-32.055 33.199-32.055 18.302 0 33.198 14.798 33.198 32.98 0 .12-.02.239-.02.368h100.989c0-.119-.02-.238-.02-.368 0-18.192 14.896-32.98 33.198-32.98 18.303 0 33.199 14.798 33.199 32.98 0 .12-.02.239-.02.368h17.691a8.318 8.318 0 008.315-8.32v-20.46c0-11.684-9.006-21.566-21.057-23.099l.02.02z" fill="#D1D3D4"/><path d="M42.565 90.237H18.683c.49 6.997 6.14 13.147 13.354 13.147 4.468 0 8.204-1.145 8.204-1.234 0-4.25.842-8.25 2.324-11.913zm61.459 0a32.7 32.7 0 012.624 12.848c0 .12-.02.239-.02.368h100.989c0-.119-.02-.238-.02-.368 0-4.558.931-8.897 2.624-12.848H104.024zm167.365 0a32.7 32.7 0 012.625 12.848c0 .12-.02.239-.02.368h17.691a8.318 8.318 0 008.315-8.32v-4.896h-28.611zM12.773 39.532H3.666C1.642 39.532 0 41.163 0 43.175v44.454c0 2.012 1.642 3.643 3.666 3.643h9.107c2.024 0 3.666-1.63 3.666-3.643V43.175c0-2.012-1.642-3.643-3.666-3.643z" fill="#D1D3D4"/><path d="M4.207 87.63V43.165c0-2.01 1.643-3.642 3.667-3.642H3.666C1.643 39.523 0 41.154 0 43.165V87.63c0 2.01 1.643 3.642 3.666 3.642h4.208c-2.024 0-3.667-1.632-3.667-3.642zM207.977 42s-.03-.02-.04-.03l-33.669-25.247c-2.284-1.722-5.159-2.667-8.094-2.667H53.925c-2.755 0-5.33 1.264-6.882 3.383L33.75 38.895a9.385 9.385 0 00-1.824 5.554c0 2.517 2.054 4.568 4.599 4.568h169.128c3.767 0 5.34-4.758 2.324-7.017zM73.45 118.381c-8.305 0-15.027-6.688-15.027-14.928 0-8.24 6.732-14.928 15.027-14.928 8.294 0 15.026 6.688 15.026 14.928 0 8.24-6.732 14.928-15.026 14.928zm167.285 0c-8.304 0-15.026-6.688-15.026-14.928 0-8.24 6.732-14.928 15.026-14.928 8.295 0 15.027 6.688 15.027 14.928 0 8.24-6.732 14.928-15.027 14.928z" fill="#D1D3D4"/><path d="M78.709 103.692c0-.119.02-.239.02-.358a4.85 4.85 0 00-1.062-3.025l6.452-8.42a15.671 15.671 0 00-4.579-2.906l-4.437 9.644a5.044 5.044 0 00-1.293-.18 5.12 5.12 0 00-1.663.29l-5.189-9.584a15.835 15.835 0 00-4.548 3.095l7.323 8.359a4.829 4.829 0 00-.841 2.727c0 .109 0 .219.02.328l-10.93 2.926a15.342 15.342 0 002.034 5.096l9.998-5.245a4.985 4.985 0 002.234 1.523l-1.463 10.947c.872.149 1.763.228 2.675.228.911 0 1.883-.089 2.785-.248l-.992-10.878a4.94 4.94 0 002.314-1.522l9.467 4.966a15.546 15.546 0 001.923-5.016l-10.238-2.747h-.01z" fill="#D1D3D4"/><path d="M74.602 100.926a.948.948 0 01-.952.945.955.955 0 01-.952-.945c0-.518.431-.945.952-.945.521 0 .952.427.952.945zm0 4.837a.948.948 0 01-.952.945.955.955 0 01-.952-.945c0-.518.431-.946.952-.946.521 0 .952.428.952.946zm1.472-1.473a.948.948 0 01-.951-.946c0-.517.43-.945.951-.945.521 0 .952.428.952.945 0 .518-.43.946-.952.946zm-4.858 0a.948.948 0 01-.952-.946c0-.517.43-.945.952-.945.52 0 .952.428.952.945a.955.955 0 01-.952.946z" fill="#D1D3D4"/><path d="M73.45 75.887c-15.317 0-27.74 12.34-27.74 27.556C45.71 118.66 58.134 131 73.45 131c15.317 0 27.739-12.34 27.739-27.557 0-15.216-12.422-27.556-27.74-27.556zm0 43.639c-8.936 0-16.179-7.196-16.179-16.073s7.243-16.072 16.179-16.072c8.935 0 16.178 7.195 16.178 16.072 0 8.877-7.243 16.073-16.178 16.073z" fill="#D1D3D4"/><path d="M73.45 85.869c-9.768 0-17.692 7.872-17.692 17.575s7.924 17.575 17.692 17.575c9.767 0 17.691-7.872 17.691-17.575S83.217 85.869 73.45 85.869zm0 32.502c-8.305 0-15.027-6.687-15.027-14.927 0-8.24 6.732-14.928 15.027-14.928 8.294 0 15.026 6.688 15.026 14.928 0 8.24-6.732 14.927-15.026 14.927zm172.545-14.679c0-.119.02-.239.02-.358a4.856 4.856 0 00-1.062-3.025l6.451-8.42a15.665 15.665 0 00-4.578-2.906l-4.438 9.644a5.063 5.063 0 00-1.292-.18 5.12 5.12 0 00-1.663.29l-5.189-9.584a15.829 15.829 0 00-4.548 3.095l7.323 8.359a4.83 4.83 0 00-.842 2.727c0 .109 0 .219.02.328l-10.929 2.926a15.343 15.343 0 002.034 5.096l9.997-5.245a4.988 4.988 0 002.234 1.523l-1.462 10.947c.871.149 1.763.228 2.674.228.912 0 1.884-.089 2.785-.248l-.992-10.878a4.945 4.945 0 002.315-1.522l9.466 4.966a15.55 15.55 0 001.924-5.016l-10.238-2.747h-.01z" fill="#D1D3D4"/><path d="M241.887 100.926c0 .527-.43.945-.951.945a.955.955 0 01-.952-.945c0-.518.431-.945.952-.945.521 0 .951.427.951.945zm0 4.837c0 .527-.43.945-.951.945a.955.955 0 01-.952-.945c0-.518.431-.946.952-.946.521 0 .951.428.951.946zm1.483-1.473a.949.949 0 01-.952-.946c0-.517.431-.945.952-.945.521 0 .952.428.952.945a.955.955 0 01-.952.946zm-4.869 0a.948.948 0 01-.951-.946c0-.517.43-.945.951-.945.521 0 .952.428.952.945a.955.955 0 01-.952.946z" fill="#D1D3D4"/><path d="M240.735 75.887c-15.317 0-27.739 12.34-27.739 27.556 0 15.217 12.422 27.557 27.739 27.557s27.739-12.34 27.739-27.557c0-15.216-12.422-27.556-27.739-27.556zm0 43.639c-8.936 0-16.178-7.196-16.178-16.073s7.242-16.072 16.178-16.072 16.179 7.195 16.179 16.072c0 8.877-7.243 16.073-16.179 16.073z" fill="#D1D3D4"/><path d="M240.735 85.869c-9.767 0-17.691 7.872-17.691 17.575s7.924 17.575 17.691 17.575c9.768 0 17.692-7.872 17.692-17.575s-7.924-17.575-17.692-17.575zm0 32.502c-8.304 0-15.026-6.687-15.026-14.927 0-8.24 6.732-14.928 15.026-14.928 8.295 0 15.027 6.688 15.027 14.928 0 8.24-6.732 14.927-15.027 14.927zm-32.788-29.527h-98.634l-9.537-30.035c-1.322-4.18-5.179-6.976-9.587-6.976H36.535a7.47 7.47 0 01-5.27-2.17c-1.422-1.403-2.204-3.264-2.194-5.225 0-2.567.802-5.035 2.314-7.125L44.67 15.867l.07-.1c2.094-2.846 5.53-4.538 9.186-4.538h112.249c3.546 0 7.032 1.154 9.807 3.244l33.709 25.278c1.764 1.324 2.765 3.354 2.715 5.503h.02l-.02.369-4.458 43.24v-.02zm-98.143-.657h97.542l4.378-42.385v-.25c.16-2.05-.751-4.03-2.434-5.283l-.04-.03-33.67-25.248c-2.665-2-6-3.105-9.406-3.105H53.925c-3.446 0-6.671 1.592-8.645 4.27l-.06.079L31.936 37.68a11.445 11.445 0 00-2.194 6.757c0 1.792.712 3.483 2.004 4.757a6.808 6.808 0 004.809 1.98h53.654c4.699 0 8.806 2.996 10.218 7.445l9.387 29.567h-.01z" fill="#D1D3D4"/><path d="M205.162 52.958H104.024v.657h101.138v-.657zm-100.788-3.951c-.711-1.224-1.382-2.498-1.693-3.454-.821-2.517-5.149-30.014-5.149-30.014l.28-1.493h-5.389c.551.866 1.032 1.85 1.242 2.876.591 2.946 5.6 28.631 5.18 32.085h5.529zm87.846-18.829c.631 3.224 2.524 13.096 3.315 18.829h2.835c-.661-3.314-1.963-11.266-2.764-16.291l-3.376-2.538h-.01z" fill="#D1D3D4"/><path d="M209.791 53.514h-7.063c-.891 0-1.573-.806-1.402-1.682l1.753-9.155a1.433 1.433 0 011.402-1.154h5.32c4.427 0 8.024 2.687 8.024 5.99 0 3.314-3.597 5.991-8.024 5.991l-.01.01z" fill="#D1D3D4"/><path d="M209.791 49.922h-7.063c-.381 0-.711-.15-.962-.379l-.44 2.29c-.171.875.511 1.68 1.402 1.68h7.063c4.427 0 8.024-2.686 8.024-5.99a4.59 4.59 0 00-.371-1.8c-1.022 2.437-4.067 4.199-7.663 4.199h.01zm76.445 17.974l2.384 8.737c.13.458.441.846.871 1.065L300 83.033v-8.36a22.42 22.42 0 00-2.134-9.554l-10.098.667a1.686 1.686 0 00-1.522 2.13l-.01-.02z" fill="#D1D3D4"/><path d="M290.052 76.593a.44.44 0 01-.22-.279l-2.384-8.737a.398.398 0 01.07-.368.45.45 0 01.33-.18l9.227-.607a21.067 21.067 0 011.673 8.26v6.33l-8.686-4.409-.01-.01zM134.948 46.877l14.917-30.701h-9.657l-14.907 30.701h9.647zm25.796-30.562c-.581-.09-1.182-.14-1.773-.14h-5.239l-14.917 30.702h7.083l14.846-30.562zM62.931 46.877l14.907-30.701H68.19L53.273 46.877h9.657zm25.846-30.701h-7.073L66.788 46.877h7.083l14.906-30.701zm16.94 41.32h94.697l-91.301 9.194-3.396-9.194zm-75.093.189h60.517l2.454 8.816-62.97-8.816z" fill="#D1D3D4"/><path d="M21.779 43.639h-7.313v28.293h7.313V43.639z" fill="#808285"/><path d="M73.45 63.095c-18.072 0-32.798 13.504-33.189 31.348h66.347c-.861-17.426-15.407-31.348-33.158-31.348zm167.355 0c-17.751 0-32.297 13.912-33.158 31.348h66.327c-.862-17.426-15.407-31.348-33.159-31.348h-.01z" fill="#231F20"/><path d="M278.943 44.574l-51.842-7.235c-3.456-.487-6.732-1.82-9.487-3.89L178.545 4.1c-3.536-2.657-7.883-4.1-12.371-4.1H48.215c-3.656 0-7.102 1.722-9.266 4.648L20.887 32.343a11.381 11.381 0 00-2.244 6.788v43.111c0 7.394 5.86 14.132 13.404 14.132 4.468 0 8.204-1.145 8.204-1.234 0-18.182 14.896-32.055 33.199-32.055 18.302 0 33.198 14.798 33.198 32.98 0 .12-.02.239-.02.368h100.989c0-.119-.02-.239-.02-.368 0-18.192 14.896-32.98 33.198-32.98 18.303 0 33.199 14.798 33.199 32.98 0 .12-.02.239-.02.368h17.691a8.318 8.318 0 008.315-8.32v-20.46c0-11.684-9.006-21.566-21.057-23.099l.02.02z" fill="#C70203"/><path d="M42.565 83.237H18.683c.49 6.997 6.14 13.147 13.354 13.147 4.468 0 8.204-1.145 8.204-1.234 0-4.25.842-8.25 2.324-11.913zm61.459 0a32.7 32.7 0 012.624 12.848c0 .12-.02.239-.02.368h100.989c0-.12-.02-.239-.02-.368 0-4.558.931-8.897 2.624-12.848H104.024zm167.365 0a32.7 32.7 0 012.625 12.848c0 .12-.02.239-.02.368h17.691a8.318 8.318 0 008.315-8.32v-4.896h-28.611z" fill="#990008"/><path d="M12.773 32.532H3.666C1.642 32.532 0 34.163 0 36.175v44.454c0 2.012 1.642 3.643 3.666 3.643h9.107c2.024 0 3.666-1.63 3.666-3.643V36.175c0-2.012-1.642-3.643-3.666-3.643z" fill="#010101"/><path d="M4.207 80.63V36.165c0-2.01 1.643-3.642 3.667-3.642H3.666C1.643 32.523 0 34.154 0 36.165V80.63c0 2.01 1.643 3.642 3.666 3.642h4.208c-2.024 0-3.667-1.632-3.667-3.642z" fill="#212121"/><path d="M207.977 35s-.03-.02-.04-.03L174.268 9.724c-2.284-1.722-5.159-2.667-8.094-2.667H53.925c-2.755 0-5.33 1.264-6.882 3.383L33.75 31.895a9.385 9.385 0 00-1.824 5.554c0 2.517 2.054 4.568 4.599 4.568h169.128c3.767 0 5.34-4.758 2.324-7.017z" fill="#010101"/><path d="M73.45 111.381c-8.305 0-15.027-6.688-15.027-14.928 0-8.24 6.732-14.928 15.027-14.928 8.294 0 15.026 6.688 15.026 14.928 0 8.24-6.732 14.928-15.026 14.928zm167.285 0c-8.304 0-15.026-6.688-15.026-14.928 0-8.24 6.732-14.928 15.026-14.928 8.295 0 15.027 6.688 15.027 14.928 0 8.24-6.732 14.928-15.027 14.928z" fill="#231F20"/><path d="M78.709 96.692c0-.12.02-.239.02-.358 0-1.145-.4-2.19-1.062-3.025l6.452-8.42a15.671 15.671 0 00-4.579-2.906l-4.437 9.644a5.044 5.044 0 00-1.293-.18 5.12 5.12 0 00-1.663.29l-5.189-9.584a15.835 15.835 0 00-4.548 3.095l7.323 8.36a4.828 4.828 0 00-.841 2.726c0 .11 0 .219.02.328l-10.93 2.926a15.343 15.343 0 002.034 5.096l9.998-5.245a4.984 4.984 0 002.234 1.523l-1.463 10.947c.872.149 1.763.228 2.675.228.911 0 1.883-.089 2.785-.248l-.992-10.878a4.938 4.938 0 002.314-1.522l9.467 4.966a15.546 15.546 0 001.923-5.016L78.72 96.692h-.01z" fill="#E6E7E8"/><path d="M74.602 93.925a.949.949 0 01-.952.946.955.955 0 01-.952-.946c0-.517.431-.945.952-.945.521 0 .952.428.952.945zm0 4.837a.949.949 0 01-.952.946.955.955 0 01-.952-.946c0-.517.431-.945.952-.945.521 0 .952.428.952.945zm1.472-1.472a.948.948 0 01-.951-.946c0-.518.43-.946.951-.946.521 0 .952.428.952.946 0 .517-.43.945-.952.945zm-4.858 0a.948.948 0 01-.952-.946c0-.518.43-.946.952-.946.52 0 .952.428.952.946a.955.955 0 01-.952.945z" fill="#D1D3D4"/><path d="M73.45 68.887c-15.317 0-27.74 12.34-27.74 27.556C45.71 111.66 58.134 124 73.45 124c15.317 0 27.739-12.34 27.739-27.557 0-15.216-12.422-27.556-27.74-27.556zm0 43.639c-8.936 0-16.179-7.196-16.179-16.073s7.243-16.072 16.179-16.072c8.935 0 16.178 7.195 16.178 16.072 0 8.877-7.243 16.073-16.178 16.073z" fill="#010101"/><path d="M73.45 78.869c-9.768 0-17.692 7.872-17.692 17.575s7.924 17.575 17.692 17.575c9.767 0 17.691-7.872 17.691-17.575S83.217 78.869 73.45 78.869zm0 32.502c-8.305 0-15.027-6.687-15.027-14.927 0-8.24 6.732-14.928 15.027-14.928 8.294 0 15.026 6.688 15.026 14.928 0 8.24-6.732 14.927-15.026 14.927z" fill="#D1D3D4"/><path d="M245.995 96.692c0-.12.02-.239.02-.358 0-1.145-.401-2.19-1.062-3.025l6.451-8.42a15.665 15.665 0 00-4.578-2.906l-4.438 9.644a5.063 5.063 0 00-1.292-.18 5.12 5.12 0 00-1.663.29l-5.189-9.584a15.829 15.829 0 00-4.548 3.095l7.323 8.36a4.829 4.829 0 00-.842 2.726c0 .11 0 .219.02.328l-10.929 2.926a15.343 15.343 0 002.034 5.096l9.997-5.245a4.987 4.987 0 002.234 1.523l-1.462 10.947c.871.149 1.763.228 2.674.228.912 0 1.884-.089 2.785-.248l-.992-10.878a4.943 4.943 0 002.315-1.522l9.466 4.966a15.55 15.55 0 001.924-5.016l-10.238-2.747h-.01z" fill="#E6E7E8"/><path d="M241.887 93.925c0 .528-.43.946-.951.946a.955.955 0 01-.952-.946c0-.517.431-.945.952-.945.521 0 .951.428.951.945zm0 4.837c0 .528-.43.946-.951.946a.955.955 0 01-.952-.946c0-.517.431-.945.952-.945.521 0 .951.428.951.945zm1.483-1.472a.948.948 0 01-.952-.946c0-.518.431-.946.952-.946.521 0 .952.428.952.946a.955.955 0 01-.952.945zm-4.869 0a.947.947 0 01-.951-.946c0-.518.43-.946.951-.946.521 0 .952.428.952.946a.955.955 0 01-.952.945z" fill="#D1D3D4"/><path d="M240.735 68.887c-15.317 0-27.739 12.34-27.739 27.556 0 15.217 12.422 27.557 27.739 27.557s27.739-12.34 27.739-27.557c0-15.216-12.422-27.556-27.739-27.556zm0 43.639c-8.936 0-16.178-7.196-16.178-16.073s7.242-16.072 16.178-16.072 16.179 7.195 16.179 16.072c0 8.877-7.243 16.073-16.179 16.073z" fill="#010101"/><path d="M240.735 78.869c-9.767 0-17.691 7.872-17.691 17.575s7.924 17.575 17.691 17.575c9.768 0 17.692-7.872 17.692-17.575s-7.924-17.575-17.692-17.575zm0 32.502c-8.304 0-15.026-6.687-15.026-14.927 0-8.24 6.732-14.928 15.026-14.928 8.295 0 15.027 6.688 15.027 14.928 0 8.24-6.732 14.927-15.027 14.927z" fill="#D1D3D4"/><path d="M207.947 81.844h-98.634l-9.537-30.035c-1.322-4.18-5.179-6.976-9.587-6.976H36.535a7.47 7.47 0 01-5.27-2.17c-1.422-1.403-2.204-3.264-2.194-5.225 0-2.567.802-5.035 2.314-7.125L44.67 8.867l.07-.1c2.094-2.846 5.53-4.538 9.186-4.538h112.249c3.546 0 7.032 1.154 9.807 3.244l33.709 25.278c1.764 1.324 2.765 3.354 2.715 5.503h.02l-.02.369-4.458 43.24v-.02zm-98.143-.657h97.542l4.378-42.385v-.25c.16-2.05-.751-4.03-2.434-5.283l-.04-.03L175.58 7.99c-2.665-2-6-3.105-9.406-3.105H53.925c-3.446 0-6.671 1.592-8.645 4.27l-.06.079L31.936 30.68a11.445 11.445 0 00-2.194 6.757c0 1.792.712 3.483 2.004 4.757a6.808 6.808 0 004.809 1.98h53.654c4.699 0 8.806 2.996 10.218 7.445l9.387 29.567h-.01z" fill="#990008"/><path d="M205.162 45.958H104.024v.657h101.138v-.657z" fill="#990008"/><path d="M104.374 42.007c-.711-1.224-1.382-2.498-1.693-3.454-.821-2.517-5.149-30.014-5.149-30.014l.28-1.493h-5.389c.551.866 1.032 1.85 1.242 2.876.591 2.946 5.6 28.631 5.18 32.085h5.529zm87.846-18.829c.631 3.224 2.524 13.096 3.315 18.829h2.835c-.661-3.314-1.963-11.266-2.764-16.291l-3.376-2.538h-.01z" fill="#231F20"/><path d="M209.791 46.514h-7.063c-.891 0-1.573-.806-1.402-1.682l1.753-9.155a1.433 1.433 0 011.402-1.154h5.32c4.427 0 8.024 2.687 8.024 5.99 0 3.314-3.597 5.991-8.024 5.991l-.01.01z" fill="#E01721"/><path d="M209.791 42.922h-7.063c-.381 0-.711-.15-.962-.379l-.44 2.29c-.171.875.511 1.68 1.402 1.68h7.063c4.427 0 8.024-2.686 8.024-5.99a4.59 4.59 0 00-.371-1.8c-1.022 2.437-4.067 4.199-7.663 4.199h.01z" fill="#AA0009"/><path d="M286.236 60.896l2.384 8.737c.13.458.441.846.871 1.065L300 76.033v-8.36a22.42 22.42 0 00-2.134-9.554l-10.098.667a1.686 1.686 0 00-1.522 2.13l-.01-.02z" fill="#D1D3D4"/><path d="M290.052 69.593a.44.44 0 01-.22-.279l-2.384-8.737a.398.398 0 01.07-.368.45.45 0 01.33-.18l9.227-.607a21.067 21.067 0 011.673 8.26v6.33l-8.686-4.409-.01-.01z" fill="#fff"/><path d="M134.948 39.877l14.917-30.701h-9.657l-14.907 30.701h9.647zm25.796-30.562c-.581-.09-1.182-.14-1.773-.14h-5.239l-14.917 30.702h7.083l14.846-30.562zM62.931 39.877L77.838 9.176H68.19L53.273 39.877h9.657zM88.777 9.176h-7.073L66.788 39.877h7.083L88.777 9.176z" fill="#28211F"/><path d="M105.717 50.496h94.697l-91.301 9.194-3.396-9.194zm-75.093.189h60.517l2.454 8.816-62.97-8.816z" fill="#3D3533"/></svg>