<svg width="365" height="129" fill="none" xmlns="http://www.w3.org/2000/svg"><path d="M301.027 65.803c19.059 0 33.069 15.359 33.285 34.334h-68.117c.24-18.975 15.76-34.334 34.832-34.334zm-228.88 0c18.915 0 32.349 15.12 32.757 33.89l-67.025-5.398c2.974-16.186 17.2-28.48 34.256-28.48l.012-.012z" fill="#D1D3D4"/><path d="M4.918 69.227l2.95-1.772L9.8 51.521c.983-8.164 7.928-14.318 16.168-14.318h21.614l52.093-23.392a77.574 77.574 0 0134.424-6.763l60.104 2.035a61.36 61.36 0 0126.964 7.266l49.55 26.6 71.007 10.847c7.881 1.688 10.184 5.602 15.881 11.289l.672.67c5.817 5.806 8.072 18.58 5.925 26.493l-1.571 5.782a10.59 10.59 0 01-8.336 7.649l-14.13 3.281c-3.323.574-6.261-2.155-5.973-5.495.084-.958.12-1.928.12-2.897 0-19.178-14.082-34.777-33.297-34.777-19.215 0-34.844 15.599-34.844 34.777 0 .538.012 1.077.036 1.616.168 3.663-3.179 6.5-6.765 5.71l-5.986-1.329-138.476-1.041-3.443.67c-3.478.671-6.633-2.011-6.633-5.554v-.072c0-19.178-13.566-34.777-32.78-34.777-19.216 0-34.845 15.599-34.845 34.777 0 1.233.072 2.454.192 3.663L8.072 98.293C3.382 97.347 0 93.23 0 88.453V77.846c0-3.531 1.86-6.8 4.882-8.62h.036z" fill="#D1D3D4"/><path d="M117.63 99.706c-3.49 0-4.198-4.92-5.097-11.157-1.212-8.416-2.735-18.88-11.395-22.423-22.07-9.014-27.6-17.705-29.41-20.567-.216-.335-.384-.598-.504-.742a12.045 12.045 0 01-2.747-9.469c.6-4.202 3.31-7.721 7.245-9.445l29.242-12.714a65.669 65.669 0 0127.624-5.447l60.272 1.21a49.636 49.636 0 0122.97 6.164l48.518 26.864c2.602 1.437 3.85 4.322 3.106 7.17-.348 1.354-2.039 15.312-4.75 39.315a12.737 12.737 0 01-12.666 11.3l-132.42-.071.012.012zm-12.282-85.667L76.105 26.753c-3.646 1.58-6.153 4.848-6.705 8.727-.443 3.124.48 6.32 2.531 8.739.156.191.336.467.576.838 1.775 2.79 7.185 11.3 28.979 20.207 9.152 3.735 10.711 14.498 11.958 23.141.84 5.794 1.5 10.367 4.186 10.367l132.42.072a11.818 11.818 0 0011.755-10.475c1.919-17 4.306-37.65 4.774-39.434.635-2.442-.432-4.908-2.663-6.14L215.398 15.93a48.743 48.743 0 00-22.55-6.045l-60.272-1.21c-.432 0-.876-.011-1.308-.011-8.984 0-17.716 1.808-25.92 5.375z" fill="#D1D3D4"/><path d="M261.133 50.037L80.495 45.26c-5.013-.131-8.804-4.49-8.108-9.35.396-2.813 2.255-5.219 4.918-6.38l29.242-12.714a62.126 62.126 0 0125.957-5.111l60.272 1.209a45.42 45.42 0 0121.135 5.674l48.517 26.864c2.279 1.257 1.308 4.657-1.307 4.585h.012zm22.286 49.406c0-9.71 7.88-17.574 17.608-17.574 9.727 0 17.608 7.865 17.608 17.574 0 9.708-7.881 17.574-17.608 17.574-9.728 0-17.608-7.866-17.608-17.574zm-230.919 0c0-9.71 7.88-17.574 17.608-17.574 9.728 0 17.608 7.865 17.608 17.574 0 9.708-7.88 17.574-17.608 17.574-9.728 0-17.608-7.866-17.608-17.574z" fill="#D1D3D4"/><path d="M294.874 99.718c0-.144-.024-.275-.024-.419 0-1.34.467-2.586 1.247-3.567l-7.556-9.913a18.438 18.438 0 015.361-3.424l5.194 11.35a5.772 5.772 0 011.523-.204c.684 0 1.343.12 1.955.347l6.081-11.277a18.36 18.36 0 015.326 3.64l-8.576 9.828c.624.922.983 2.023.983 3.208 0 .132 0 .263-.024.383l12.799 3.448a18.35 18.35 0 01-2.387 5.998l-11.707-6.166a5.755 5.755 0 01-2.615 1.784l1.715 12.881a19.215 19.215 0 01-3.13.264c-1.068 0-2.207-.108-3.263-.288l1.152-12.809a5.796 5.796 0 01-2.711-1.784l-11.095 5.842a18.311 18.311 0 01-2.243-5.902l11.995-3.232v.012z" fill="#D1D3D4"/><path d="M299.684 96.474c0 .61.504 1.113 1.115 1.113a1.12 1.12 0 001.116-1.113 1.12 1.12 0 00-1.116-1.114 1.12 1.12 0 00-1.115 1.114zm0 5.686a1.12 1.12 0 001.115 1.114 1.12 1.12 0 001.116-1.114 1.12 1.12 0 00-1.116-1.113 1.12 1.12 0 00-1.115 1.113zm-1.74-1.736a1.12 1.12 0 001.116-1.113 1.12 1.12 0 00-1.116-1.114 1.12 1.12 0 00-1.115 1.114c0 .61.504 1.113 1.115 1.113zm5.698 0a1.12 1.12 0 001.115-1.113 1.12 1.12 0 00-1.115-1.114 1.12 1.12 0 00-1.116 1.114c0 .61.504 1.113 1.116 1.113z" fill="#D1D3D4"/><path d="M271.412 99.442c0 16.329 13.266 29.558 29.615 29.558 16.348 0 29.614-13.241 29.614-29.558 0-16.316-13.266-29.557-29.614-29.557-16.349 0-29.615 13.24-29.615 29.557zm10.663 0c0-10.45 8.493-18.914 18.952-18.914 10.459 0 18.951 8.475 18.951 18.914 0 10.44-8.492 18.915-18.951 18.915s-18.952-8.475-18.952-18.915z" fill="#D1D3D4"/><path d="M280.3 99.442c0 11.421 9.272 20.687 20.727 20.687s20.726-9.254 20.726-20.687c0-11.432-9.271-20.686-20.726-20.686-11.455 0-20.727 9.254-20.727 20.686zm3.119 0c0-9.708 7.88-17.574 17.608-17.574 9.727 0 17.608 7.866 17.608 17.574 0 9.709-7.881 17.574-17.608 17.574-9.728 0-17.608-7.865-17.608-17.574zm-219.452.276c0-.144-.024-.275-.024-.419a5.73 5.73 0 011.247-3.567l-7.556-9.913a18.444 18.444 0 015.361-3.424l5.194 11.35a5.78 5.78 0 011.523-.204c.684 0 1.344.12 1.955.347l6.082-11.277a18.36 18.36 0 015.325 3.64l-8.576 9.828c.624.922.984 2.023.984 3.208 0 .132 0 .263-.024.383l12.798 3.448a18.335 18.335 0 01-2.387 5.998l-11.707-6.166a5.756 5.756 0 01-2.615 1.784l1.716 12.881c-1.02.168-2.064.264-3.131.264-1.068 0-2.207-.108-3.263-.288l1.152-12.809a5.796 5.796 0 01-2.71-1.784l-11.096 5.842a18.295 18.295 0 01-2.243-5.902l11.995-3.232v.012z" fill="#D1D3D4"/><path d="M68.777 96.474c0 .61.504 1.113 1.115 1.113a1.12 1.12 0 001.116-1.113 1.12 1.12 0 00-1.115-1.114 1.12 1.12 0 00-1.116 1.114zm0 5.686a1.12 1.12 0 001.115 1.114 1.12 1.12 0 001.116-1.114 1.12 1.12 0 00-1.115-1.113 1.12 1.12 0 00-1.116 1.113zm-1.739-1.736a1.12 1.12 0 001.115-1.113 1.12 1.12 0 00-1.115-1.114 1.12 1.12 0 00-1.116 1.114c0 .61.504 1.113 1.116 1.113zm5.697 0a1.12 1.12 0 001.116-1.113 1.12 1.12 0 00-1.116-1.114 1.12 1.12 0 00-1.116 1.114c0 .61.504 1.113 1.116 1.113z" fill="#D1D3D4"/><path d="M40.506 99.442c0 16.33 13.266 29.558 29.614 29.558 16.349 0 29.615-13.241 29.615-29.558 0-16.316-13.266-29.557-29.615-29.557-16.349 0-29.614 13.24-29.614 29.557zm10.663 0c0-10.45 8.492-18.914 18.951-18.914 10.46 0 18.951 8.475 18.951 18.914 0 10.44-8.492 18.915-18.95 18.915-10.46 0-18.952-8.475-18.952-18.915z" fill="#D1D3D4"/><path d="M49.394 99.442c0 11.421 9.271 20.687 20.726 20.687 11.455 0 20.727-9.254 20.727-20.687 0-11.432-9.272-20.686-20.727-20.686S49.393 88.01 49.393 99.442zm3.118 0c0-9.708 7.88-17.574 17.608-17.574 9.728 0 17.608 7.866 17.608 17.574 0 9.709-7.88 17.574-17.608 17.574-9.728 0-17.608-7.865-17.608-17.574zm120.372-46.97l-.919.088 4.535 46.758.92-.09-4.536-46.756zm-78.44-2.942l-.022.92 163.225 3.81.022-.92-163.225-3.81z" fill="#D1D3D4"/><path d="M266.698 94.63a34.681 34.681 0 00-.479 7.554c.168 3.663-3.179 6.5-6.765 5.71l-5.985-1.329-138.477-1.041-3.443.67c-3.478.67-6.633-2.011-6.633-5.555v-.072a39.59 39.59 0 00-.815-7.984l162.597 2.047zM40.506 86.035a34.492 34.492 0 00-3.203 14.533c0 1.233.072 2.454.192 3.663L8.096 98.293c-4.69-.946-8.072-5.064-8.072-9.84V77.846c0-3.531 1.86-6.8 4.882-8.62l2.95-1.77c6.19 9.828 16.445 16.4 27.972 17.956l4.666.623h.012zm322.868 9.325l-.731 2.682a10.591 10.591 0 01-8.336 7.65l-14.13 3.28c-3.323.574-6.261-2.155-5.973-5.495.084-.958.12-1.927.12-2.897 0-1.772-.12-3.52-.36-5.22h29.41zM174.185 47.726c-.732-1.257-1.428-2.586-1.74-3.567-.815-2.526-5.133-30.036-5.133-30.036l.324-1.724-5.638-.108c.648.946 1.236 2.06 1.464 3.22.587 2.933 5.541 28.444 5.169 32.072l5.554.143zm89.803 8.272h-7.941a1.596 1.596 0 01-1.571-1.903l1.967-10.343a1.605 1.605 0 011.571-1.305h5.974c4.977 0 9.02 3.028 9.02 6.776 0 3.735-4.043 6.775-9.02 6.775z" fill="#D1D3D4"/><path d="M263.988 51.94h-7.941a1.61 1.61 0 01-1.079-.419l-.492 2.586a1.607 1.607 0 001.571 1.903h7.941c4.977 0 9.02-3.028 9.02-6.775 0-.707-.144-1.39-.408-2.024-1.152 2.754-4.57 4.741-8.612 4.741v-.012zm100.85 30.276c-.612-6.273-2.867-12.774-6.561-16.46l-.672-.671c-1.451-1.449-2.675-2.765-3.826-3.975-2.471.24-5.494 1.33-5.11 5.292.624 6.608 2.315 13.73 10.939 15.479 1.679.335 3.455.43 5.23.347v-.012z" fill="#D1D3D4"/><path d="M362.871 80.492a18.078 18.078 0 01-2.915-.324c-6.969-1.4-8.852-6.584-9.548-13.934-.084-.91-.264-2.718 2.723-3.28.12.12.24.251.36.37.9.947 1.823 1.928 2.891 2.982l.671.67c2.807 2.801 4.966 7.853 5.818 13.492v.024zM16.54 67.455c.936-.263 8.936-9.517 5.542-17.418-2.063-4.825-7.113-4.621-10.735-3.723A16.188 16.188 0 009.8 51.52L7.868 67.455l-1.14.683c3.42.131 7.21.047 9.813-.683zm173.549-21.392l13.542-28.002a40.161 40.161 0 00-14.081-3.028l-14.814 30.634 15.353.407v-.011zm27.564-20.532l-8.996-4.98-12.414 25.679 11.25.287 10.16-20.986zM154.43 14.314l-11.287-.228-14.67 30.348 11.251.3 14.706-30.42zm-32.098 29.952l14.646-30.3h-.84a54.25 54.25 0 00-15.653 1.952L106.979 43.86l15.353.407zm-24.589 9.949l71.644 1.58 1.031 8.811-72.675-10.391zm152.367 0l-74.066 1.784 1.391 8.607 72.675-10.391z" fill="#D1D3D4"/><path d="M301.027 58.803c19.059 0 33.069 15.359 33.285 34.334h-68.117c.24-18.975 15.76-34.334 34.832-34.334zm-228.88 0c18.915 0 32.349 15.12 32.757 33.89l-67.025-5.398c2.974-16.186 17.2-28.48 34.256-28.48l.012-.012z" fill="#231F20"/><path d="M4.918 62.227l2.95-1.772L9.8 44.521c.983-8.164 7.928-14.318 16.168-14.318h21.614L99.675 6.811A77.574 77.574 0 01134.099.048l60.104 2.035a61.359 61.359 0 0126.964 7.266l49.55 26.6 71.007 10.847c7.881 1.688 10.184 5.602 15.881 11.289l.672.67c5.817 5.806 8.072 18.58 5.925 26.493l-1.571 5.782a10.59 10.59 0 01-8.336 7.65l-14.13 3.28c-3.323.574-6.261-2.155-5.973-5.495.084-.958.12-1.928.12-2.897 0-19.178-14.082-34.777-33.297-34.777-19.215 0-34.844 15.599-34.844 34.777 0 .538.012 1.077.036 1.616.168 3.663-3.179 6.5-6.765 5.71l-5.986-1.329-138.476-1.041-3.443.67c-3.478.67-6.633-2.01-6.633-5.554v-.072c0-19.178-13.566-34.777-32.78-34.777-19.216 0-34.845 15.599-34.845 34.777 0 1.233.072 2.454.192 3.663L8.072 91.293C3.382 90.347 0 86.23 0 81.453V70.846c0-3.531 1.86-6.8 4.882-8.62h.036z" fill="#FEAB01"/><path d="M117.63 92.706c-3.49 0-4.198-4.92-5.097-11.157-1.212-8.416-2.735-18.88-11.395-22.423-22.07-9.014-27.6-17.705-29.41-20.566-.216-.336-.384-.599-.504-.743a12.045 12.045 0 01-2.747-9.469c.6-4.202 3.31-7.721 7.245-9.445l29.242-12.714A65.669 65.669 0 01132.588.742l60.272 1.21a49.636 49.636 0 0122.97 6.164l48.518 26.864c2.602 1.437 3.85 4.322 3.106 7.17-.348 1.354-2.039 15.312-4.75 39.315a12.737 12.737 0 01-12.666 11.3l-132.42-.071.012.012zM105.348 7.039L76.105 19.753c-3.646 1.58-6.153 4.848-6.705 8.727-.443 3.124.48 6.32 2.531 8.739.156.191.336.467.576.838 1.775 2.79 7.185 11.3 28.979 20.207 9.152 3.735 10.711 14.498 11.958 23.141.84 5.794 1.5 10.367 4.186 10.367l132.42.072a11.818 11.818 0 0011.755-10.475c1.919-17 4.306-37.65 4.774-39.434.635-2.442-.432-4.908-2.663-6.14L215.398 8.93a48.743 48.743 0 00-22.55-6.045l-60.272-1.21c-.432 0-.876-.011-1.308-.011-8.984 0-17.716 1.808-25.92 5.375z" fill="#E28C03"/><path d="M261.133 43.037L80.495 38.26c-5.013-.131-8.804-4.49-8.108-9.35.396-2.813 2.255-5.219 4.918-6.38l29.242-12.714a62.126 62.126 0 0125.957-5.112l60.272 1.21a45.421 45.421 0 0121.135 5.674l48.517 26.864c2.279 1.257 1.308 4.657-1.307 4.585h.012z" fill="#010101"/><path d="M283.419 92.443c0-9.71 7.88-17.574 17.608-17.574 9.727 0 17.608 7.865 17.608 17.574 0 9.708-7.881 17.574-17.608 17.574-9.728 0-17.608-7.866-17.608-17.574zm-230.919 0c0-9.71 7.88-17.574 17.608-17.574 9.728 0 17.608 7.865 17.608 17.574 0 9.708-7.88 17.574-17.608 17.574-9.728 0-17.608-7.866-17.608-17.574z" fill="#231F20"/><path d="M294.874 92.718c0-.144-.024-.275-.024-.419 0-1.34.467-2.586 1.247-3.567l-7.556-9.913a18.438 18.438 0 015.361-3.424l5.194 11.35a5.772 5.772 0 011.523-.204c.684 0 1.343.12 1.955.347l6.081-11.277a18.36 18.36 0 015.326 3.64l-8.576 9.828c.624.922.983 2.023.983 3.208 0 .132 0 .263-.024.383l12.799 3.448a18.353 18.353 0 01-2.387 5.998l-11.707-6.166a5.755 5.755 0 01-2.615 1.784l1.715 12.881a19.215 19.215 0 01-3.13.264c-1.068 0-2.207-.108-3.263-.288l1.152-12.81a5.797 5.797 0 01-2.711-1.783l-11.095 5.842a18.31 18.31 0 01-2.243-5.902l11.995-3.232v.012z" fill="#E6E7E8"/><path d="M299.684 89.474c0 .61.504 1.113 1.115 1.113a1.12 1.12 0 001.116-1.113 1.12 1.12 0 00-1.116-1.114 1.12 1.12 0 00-1.115 1.114zm0 5.686c0 .61.504 1.114 1.115 1.114a1.12 1.12 0 001.116-1.114 1.12 1.12 0 00-1.116-1.113 1.12 1.12 0 00-1.115 1.113zm-1.74-1.736a1.12 1.12 0 001.116-1.113 1.12 1.12 0 00-1.116-1.114 1.12 1.12 0 00-1.115 1.114c0 .61.504 1.113 1.115 1.113zm5.698 0a1.12 1.12 0 001.115-1.113 1.12 1.12 0 00-1.115-1.114 1.12 1.12 0 00-1.116 1.114c0 .61.504 1.113 1.116 1.113z" fill="#D1D3D4"/><path d="M271.412 92.442c0 16.329 13.266 29.558 29.615 29.558 16.348 0 29.614-13.241 29.614-29.558 0-16.316-13.266-29.557-29.614-29.557-16.349 0-29.615 13.24-29.615 29.557zm10.663 0c0-10.45 8.493-18.914 18.952-18.914 10.459 0 18.951 8.475 18.951 18.914 0 10.44-8.492 18.915-18.951 18.915s-18.952-8.475-18.952-18.915z" fill="#010101"/><path d="M280.3 92.442c0 11.421 9.272 20.687 20.727 20.687s20.726-9.254 20.726-20.687c0-11.432-9.271-20.686-20.726-20.686-11.455 0-20.727 9.254-20.727 20.686zm3.119 0c0-9.708 7.88-17.574 17.608-17.574 9.727 0 17.608 7.866 17.608 17.574 0 9.709-7.881 17.574-17.608 17.574-9.728 0-17.608-7.865-17.608-17.574z" fill="#D1D3D4"/><path d="M63.967 92.718c0-.144-.024-.275-.024-.419a5.73 5.73 0 011.247-3.567l-7.556-9.913a18.444 18.444 0 015.361-3.424l5.194 11.35a5.78 5.78 0 011.523-.204c.684 0 1.344.12 1.955.347l6.082-11.277a18.36 18.36 0 015.325 3.64l-8.576 9.828c.624.922.984 2.023.984 3.208 0 .132 0 .263-.024.383l12.798 3.448a18.337 18.337 0 01-2.387 5.998L74.162 95.95a5.756 5.756 0 01-2.615 1.784l1.716 12.881c-1.02.168-2.064.264-3.131.264-1.068 0-2.207-.108-3.263-.288l1.152-12.81a5.797 5.797 0 01-2.71-1.783l-11.096 5.842a18.293 18.293 0 01-2.243-5.902l11.995-3.232v.012z" fill="#E6E7E8"/><path d="M68.777 89.474c0 .61.504 1.113 1.115 1.113a1.12 1.12 0 001.116-1.113 1.12 1.12 0 00-1.115-1.114 1.12 1.12 0 00-1.116 1.114zm0 5.686c0 .61.504 1.114 1.115 1.114a1.12 1.12 0 001.116-1.114 1.12 1.12 0 00-1.115-1.113 1.12 1.12 0 00-1.116 1.113zm-1.739-1.736a1.12 1.12 0 001.115-1.113 1.12 1.12 0 00-1.115-1.114 1.12 1.12 0 00-1.116 1.114c0 .61.504 1.113 1.116 1.113zm5.697 0a1.12 1.12 0 001.116-1.113 1.12 1.12 0 00-1.116-1.114 1.12 1.12 0 00-1.116 1.114c0 .61.504 1.113 1.116 1.113z" fill="#D1D3D4"/><path d="M40.506 92.442c0 16.33 13.266 29.558 29.614 29.558 16.349 0 29.615-13.241 29.615-29.558 0-16.316-13.266-29.557-29.615-29.557-16.349 0-29.614 13.24-29.614 29.557zm10.663 0c0-10.45 8.492-18.914 18.951-18.914 10.46 0 18.951 8.475 18.951 18.914 0 10.44-8.492 18.915-18.95 18.915-10.46 0-18.952-8.475-18.952-18.915z" fill="#010101"/><path d="M49.394 92.442c0 11.421 9.271 20.687 20.726 20.687 11.455 0 20.727-9.254 20.727-20.687 0-11.432-9.272-20.686-20.727-20.686S49.393 81.01 49.393 92.442zm3.118 0c0-9.708 7.88-17.574 17.608-17.574 9.728 0 17.608 7.866 17.608 17.574 0 9.709-7.88 17.574-17.608 17.574-9.728 0-17.608-7.865-17.608-17.574z" fill="#D1D3D4"/><path d="M172.884 45.472l-.919.088 4.535 46.758.92-.09-4.536-46.756zm-78.44-2.942l-.022.92 163.225 3.81.022-.92-163.225-3.81z" fill="#E28C03"/><path d="M266.698 87.63a34.683 34.683 0 00-.479 7.553c.168 3.664-3.179 6.501-6.765 5.711l-5.985-1.329-138.477-1.041-3.443.67c-3.478.67-6.633-2.011-6.633-5.555v-.072a39.59 39.59 0 00-.815-7.984l162.597 2.047zM40.506 79.035a34.492 34.492 0 00-3.203 14.533c0 1.233.072 2.454.192 3.663L8.096 91.293c-4.69-.946-8.072-5.064-8.072-9.84V70.846c0-3.531 1.86-6.8 4.882-8.62l2.95-1.77c6.19 9.828 16.445 16.4 27.972 17.956l4.666.623h.012zm322.868 9.325l-.731 2.682a10.59 10.59 0 01-8.336 7.65l-14.13 3.28c-3.323.574-6.261-2.155-5.973-5.495.084-.958.12-1.928.12-2.897 0-1.772-.12-3.52-.36-5.22h29.41z" fill="#E28C03"/><path d="M174.185 40.726c-.732-1.257-1.428-2.586-1.74-3.567-.815-2.526-5.133-30.036-5.133-30.036l.324-1.724-5.638-.108c.648.946 1.236 2.06 1.464 3.22.587 2.933 5.541 28.444 5.169 32.072l5.554.143z" fill="#231F20"/><path d="M263.988 48.998h-7.941a1.596 1.596 0 01-1.571-1.903l1.967-10.343a1.605 1.605 0 011.571-1.305h5.974c4.977 0 9.02 3.028 9.02 6.776 0 3.735-4.043 6.775-9.02 6.775z" fill="#FFB229"/><path d="M263.988 44.94h-7.941a1.61 1.61 0 01-1.079-.419l-.492 2.586a1.607 1.607 0 001.571 1.903h7.941c4.977 0 9.02-3.028 9.02-6.775 0-.707-.144-1.39-.408-2.024-1.152 2.754-4.57 4.741-8.612 4.741v-.012z" fill="#E28C03"/><path d="M364.838 75.216c-.612-6.273-2.867-12.774-6.561-16.46l-.672-.671c-1.451-1.449-2.675-2.766-3.826-3.975-2.471.24-5.494 1.33-5.11 5.292.624 6.608 2.315 13.73 10.939 15.479 1.679.335 3.455.43 5.23.347v-.012z" fill="#D1D3D4"/><path d="M362.871 73.492a18.078 18.078 0 01-2.915-.324c-6.969-1.4-8.852-6.584-9.548-13.934-.084-.91-.264-2.718 2.723-3.28.12.12.24.251.36.37.9.947 1.823 1.928 2.891 2.982l.671.67c2.807 2.801 4.966 7.853 5.818 13.492v.024z" fill="#fff"/><path d="M16.54 60.455c.936-.263 8.936-9.517 5.542-17.418-2.063-4.825-7.113-4.621-10.735-3.723A16.188 16.188 0 009.8 44.52L7.868 60.455l-1.14.683c3.42.131 7.21.047 9.813-.683z" fill="#C70203"/><path d="M190.089 39.063l13.542-28.002a40.162 40.162 0 00-14.081-3.028l-14.814 30.634 15.353.407v-.011zm27.564-20.532l-8.996-4.98-12.414 25.679 11.25.287 10.16-20.986zM154.43 7.314l-11.287-.228-14.67 30.348 11.251.3 14.706-30.42zm-32.098 29.952l14.646-30.3h-.84a54.255 54.255 0 00-15.653 1.952L106.979 36.86l15.353.407z" fill="#28211F"/><path d="M97.743 47.215l71.644 1.58 1.031 8.811-72.675-10.391zm152.367 0l-74.066 1.784 1.391 8.607 72.675-10.391z" fill="#3D3533"/></svg>