<svg width="365" height="122" fill="none" xmlns="http://www.w3.org/2000/svg"><path d="M27.013 106.727a38.869 38.869 0 01-4-17.24c0-20.364 15.572-37.083 35.204-38.407h4.988c17.953 1.227 33.966 17.435 35.168 35.782.334 5.151-.321 10.109-1.81 14.689a6.027 6.027 0 00.691 5.176h-70.24zm233.451 0c.952-1.458 1.298-3.329.691-5.176a39.113 39.113 0 01-1.893-12.053c0-20.363 15.572-37.082 35.204-38.406h4.988c17.953 1.227 33.966 17.435 35.168 35.782.405 6.22-.643 12.15-2.833 17.484a3.66 3.66 0 00-.155 2.381h-71.17v-.012z" fill="#D1D3D4"/><path d="M5.381 81.176L.048 56.609c-1.108-5.42 19.084-5.76 53.811-18.505C86.73 26.051 132.947 2.796 175.14 7.656c33.596 3.876 58.252 23.972 69.003 30.144 68.789.292 100.588 18.274 113.41 28.93 4.726 3.924 7.44 9.841 7.44 16.05v16.633c0 5.492-4.357 9.939-9.738 9.939h-20.239c-2.536 0-4.215-2.637-3.226-5.03 2.19-5.334 3.238-11.263 2.833-17.484-1.214-18.565-17.596-34.944-35.799-35.83-21.632-1.058-39.561 16.608-39.561 38.454 0 4.204.666 8.262 1.892 12.053 1.251 3.852-1.547 7.825-5.524 7.825H102.088c-3.976 0-6.774-3.961-5.524-7.813a38.983 38.983 0 001.81-14.69c-1.215-18.564-17.597-34.943-35.8-35.83-21.632-1.057-39.561 16.61-39.561 38.455 0 7.266 1.988 14.07 5.429 19.878H23.31c-7.417 0-14.156-4.399-17.251-11.263l-4.727-10.45c-1.369-3.025.798-6.475 4.06-6.475l-.012.024z" fill="#D1D3D4"/><path d="M77.777 44.823c-4.917 0-6.19-7.047-1.607-8.906 29.8-12.027 65.634-25.927 98.97-22.027 25.156 2.94 45.287 15.09 58.348 23.656 3.119 2.041 1.75 7.035-1.941 7.084-31.93.425-113.124.291-153.757.194h-.012zm195.7 44.664c0-13.256 10.524-23.997 23.513-23.997 12.989 0 23.513 10.74 23.513 23.997 0 13.255-10.524 23.996-23.513 23.996-12.989 0-23.513-10.741-23.513-23.996zm-236.69 0c0-13.256 10.525-23.997 23.514-23.997 12.989 0 23.513 10.74 23.513 23.997 0 13.255-10.524 23.996-23.513 23.996-12.99 0-23.514-10.741-23.514-23.996z" fill="#D1D3D4"/><path d="M290.859 86.012l-13.037-10.413a23.852 23.852 0 015.548-5.662l10.203 13.304a6.907 6.907 0 011.5-.631l-2-16.78a23.15 23.15 0 013.917-.34c1.333 0 2.643.122 3.917.34l-2 16.78a7.42 7.42 0 011.5.631l10.203-13.304a23.852 23.852 0 015.548 5.662l-13.037 10.413c.262.474.465.984.62 1.53l16.441-2.04a24.6 24.6 0 01.333 3.997c0 1.36-.119 2.697-.333 3.997l-16.441-2.041a7.767 7.767 0 01-.62 1.53l13.037 10.413a23.848 23.848 0 01-5.548 5.662l-10.203-13.304a6.88 6.88 0 01-1.5.632l2 16.779c-1.274.219-2.584.34-3.917.34-1.333 0-2.643-.121-3.917-.34l2-16.78a7.414 7.414 0 01-1.5-.631L283.37 109.06a23.848 23.848 0 01-5.548-5.662l13.037-10.412a7.152 7.152 0 01-.619-1.531l-16.442 2.041a24.606 24.606 0 01-.333-3.997c0-1.361.119-2.698.333-3.998l16.442 2.041a7.703 7.703 0 01.619-1.53z" fill="#D1D3D4"/><path d="M295.597 86.048c0 .742.595 1.349 1.321 1.349s1.322-.608 1.322-1.349c0-.74-.596-1.348-1.322-1.348-.726 0-1.321.607-1.321 1.348zm0 6.89c0 .74.595 1.348 1.321 1.348s1.322-.607 1.322-1.349c0-.74-.596-1.348-1.322-1.348-.726 0-1.321.607-1.321 1.349zm-2.048-2.09c.726 0 1.321-.608 1.321-1.349s-.595-1.349-1.321-1.349-1.322.608-1.322 1.349.596 1.349 1.322 1.349zm6.75 0c.726 0 1.322-.608 1.322-1.349s-.596-1.349-1.322-1.349c-.726 0-1.321.608-1.321 1.349s.595 1.349 1.321 1.349z" fill="#D1D3D4"/><path d="M265.131 89.487c0 17.957 14.262 32.513 31.858 32.513s31.859-14.556 31.859-32.513c0-17.958-14.263-32.514-31.859-32.514-17.596 0-31.858 14.556-31.858 32.514zm7.203 0c0-13.9 11.036-25.163 24.655-25.163 13.62 0 24.656 11.263 24.656 25.163 0 13.899-11.036 25.162-24.656 25.162-13.619 0-24.655-11.263-24.655-25.162z" fill="#D1D3D4"/><path d="M271.583 89.487c0 14.312 11.37 25.928 25.406 25.928 14.037 0 25.406-11.603 25.406-25.928 0-14.325-11.369-25.928-25.406-25.928-14.036 0-25.406 11.603-25.406 25.928zm1.893 0c0-13.256 10.525-23.997 23.513-23.997 12.989 0 23.513 10.741 23.513 23.997 0 13.255-10.524 23.996-23.513 23.996-12.988 0-23.513-10.741-23.513-23.996zM54.23 86.012L41.192 75.599a23.85 23.85 0 015.548-5.662l10.203 13.304a6.9 6.9 0 011.5-.631l-2-16.78a23.143 23.143 0 013.916-.34c1.334 0 2.644.122 3.917.34l-2 16.78a7.429 7.429 0 011.5.631L73.98 69.937a23.85 23.85 0 015.547 5.662L66.492 86.012c.262.474.464.984.619 1.53l16.441-2.04c.215 1.3.334 2.636.334 3.997 0 1.36-.12 2.697-.334 3.997l-16.441-2.041a7.757 7.757 0 01-.62 1.53l13.037 10.413a23.846 23.846 0 01-5.547 5.662L63.777 95.756a6.892 6.892 0 01-1.5.632l2 16.779c-1.273.219-2.583.34-3.916.34a23.11 23.11 0 01-3.917-.34l2-16.78a7.427 7.427 0 01-1.5-.631L46.74 109.06a23.847 23.847 0 01-5.548-5.662l13.036-10.412a7.189 7.189 0 01-.619-1.531L37.17 93.496a24.572 24.572 0 01-.334-3.997c0-1.361.12-2.698.334-3.998l16.441 2.041a7.745 7.745 0 01.62-1.53z" fill="#D1D3D4"/><path d="M58.967 86.048c0 .742.595 1.349 1.322 1.349.726 0 1.321-.608 1.321-1.349 0-.74-.595-1.348-1.322-1.348-.726 0-1.321.607-1.321 1.348zm0 6.89c0 .74.595 1.348 1.322 1.348.726 0 1.321-.607 1.321-1.349 0-.74-.595-1.348-1.322-1.348-.726 0-1.321.607-1.321 1.349zm-2.047-2.09c.725 0 1.32-.608 1.32-1.349s-.595-1.349-1.32-1.349c-.727 0-1.322.608-1.322 1.349s.595 1.349 1.321 1.349zm6.75 0c.726 0 1.321-.608 1.321-1.349s-.595-1.349-1.321-1.349c-.727 0-1.322.608-1.322 1.349s.596 1.349 1.322 1.349z" fill="#D1D3D4"/><path d="M28.501 89.487C28.501 107.444 42.764 122 60.36 122c17.596 0 31.858-14.556 31.858-32.513 0-17.958-14.262-32.514-31.858-32.514S28.5 71.53 28.5 89.487zm7.203 0c0-13.9 11.036-25.163 24.656-25.163s24.656 11.263 24.656 25.163c0 13.899-11.037 25.162-24.656 25.162-13.62 0-24.656-11.263-24.656-25.162z" fill="#D1D3D4"/><path d="M34.954 89.487c0 14.312 11.37 25.928 25.406 25.928s25.406-11.603 25.406-25.928c0-14.325-11.37-25.928-25.406-25.928S34.954 75.162 34.954 89.487zm1.893 0c0-13.256 10.524-23.997 23.513-23.997 12.989 0 23.513 10.741 23.513 23.997 0 13.255-10.524 23.996-23.513 23.996-12.989 0-23.513-10.741-23.513-23.996zm33.001-47.714c.739 3.973 4 6.744 7.93 6.756 8.095.024 13.94 9.914 20.131 20.387 7.739 13.098 16.513 27.933 31.871 27.933l10.929-.048 10.929-.049h69.646c8.036 0 14.691-6.415 15.143-14.616l2.155-39.33c.881-3.232-.369-6.597-3.119-8.408-14.882-9.756-35.133-21.323-59.896-24.215a105.012 105.012 0 00-12.203-.692c-29.251 0-58.562 10.862-88.504 22.963-3.678 1.483-5.738 5.31-4.988 9.307l-.024.012zm5.31-8.505c29.859-12.065 59.086-22.89 88.183-22.89 4.143 0 8.214.23 12.107.68 24.585 2.867 44.728 14.374 59.527 24.081 2.452 1.604 3.559 4.617 2.75 7.485v.097L235.558 82.1c-.428 7.728-6.703 13.79-14.286 13.79h-46.55l-5.286-48.284h62.693v-.862H102.386v.862h66.193l5.286 48.285h-22.251l-10.929.048-10.929.049c-14.882 0-23.525-14.617-31.144-27.52-6.322-10.692-12.287-20.789-20.858-20.8-3.513 0-6.43-2.492-7.096-6.052-.667-3.584 1.179-7.01 4.464-8.347h.036zM260.309 98.49c.25 1.032.524 2.053.857 3.062 1.25 3.851-1.547 7.824-5.524 7.824H102.088c-3.976 0-6.774-3.961-5.524-7.812a37.95 37.95 0 00.845-3.074h162.9zm94.945 10.886h-20.239c-2.536 0-4.215-2.636-3.226-5.03a39.003 39.003 0 001.881-5.856h1.047s20.49 2.612 30.288-3.645v4.592c0 5.492-4.357 9.939-9.739 9.939h-.012zM6.048 98.1L1.322 87.653c-1.37-3.026.797-6.476 4.06-6.476l17.643 8.979c.12 7.022 2.084 13.596 5.417 19.221h-5.13c-7.418 0-14.157-4.398-17.252-11.263l-.012-.012z" fill="#D1D3D4"/><path d="M170.484 44.543c-.738-2.575-4.619-30.63-4.619-30.63l.119-.656a103.162 103.162 0 00-4.334-.012c.31.656.548 1.349.679 2.066.452 2.539 3.726 21.578 4.5 29.597h3.786c-.036-.122-.083-.255-.119-.365h-.012zm-71.765.317h2.583a3.035 3.035 0 01-.166-.498c-.37-1.264-1.858-11.738-2.62-17.144-.762.28-1.512.559-2.274.838.786 4.641 2.132 12.928 2.477 16.804zm139.173 7.617h-8.679c-1.096 0-1.929-1.02-1.727-2.126l2.155-11.555a1.77 1.77 0 011.726-1.458h6.537c5.44 0 9.857 3.39 9.857 7.57s-4.417 7.57-9.857 7.57h-.012z" fill="#D1D3D4"/><path d="M237.892 47.945h-8.679a1.73 1.73 0 01-1.191-.474l-.536 2.88c-.202 1.106.619 2.126 1.727 2.126h8.679c5.441 0 9.858-3.39 9.858-7.57 0-.789-.155-1.554-.453-2.271-1.25 3.074-4.988 5.297-9.405 5.297v.012zM349.42 70.46c-.702 3.608 6.656 16.183 13.882 18.358.56.17 1.119.28 1.691.34v-6.354c0-5.225-1.917-10.218-5.334-14.021-3.953-.45-9.774-.68-10.239 1.689v-.013z" fill="#D1D3D4"/><path d="M363.385 87.117c-6.369-2.272-12.822-13.572-12.393-16.293.119-.11.94-.705 4.095-.705 1.108 0 2.381.073 3.786.219 2.917 3.463 4.512 7.86 4.512 12.454v4.325zM10.477 76.765c.976-4.823-.75-18.59-.75-18.59l-9.144.888 4.465 20.545c2.643-.133 5.036-.826 5.44-2.855l-.011.012zm173.139-32.744l11.572-24.47a103.284 103.284 0 00-11.727-3.268l-13.132 27.762c4.512 0 8.953 0 13.275-.024h.012zm24.179-19.331a128.475 128.475 0 00-8.083-3.486l-10.775 22.793c3.345 0 6.596-.024 9.751-.036l9.119-19.282-.012.012zm-82.753 19.343l12.881-27.24c-5.024.996-10.036 2.236-14.989 3.645l-11.155 23.583c4.298 0 8.738.012 13.263.012zm29.013-29.537c-3.441.28-6.881.705-10.322 1.252l-13.382 28.285h9.727l13.977-29.549v.012zM97.35 52.477h67.991l1.369 9.6-69.36-9.6zm76.396.705h53.705l-52.669 8.894-1.036-8.894z" fill="#D1D3D4"/><path d="M27.013 99.727a38.87 38.87 0 01-4-17.24c0-20.364 15.572-37.083 35.204-38.407h4.988c17.953 1.227 33.966 17.435 35.168 35.782.334 5.151-.321 10.109-1.81 14.69a6.027 6.027 0 00.691 5.175h-70.24zm233.451 0c.952-1.458 1.298-3.33.691-5.176a39.112 39.112 0 01-1.893-12.053c0-20.363 15.572-37.082 35.204-38.406h4.988c17.953 1.227 33.966 17.435 35.168 35.782.405 6.22-.643 12.15-2.833 17.484a3.661 3.661 0 00-.155 2.38h-71.17v-.011z" fill="#231F20"/><path d="M5.381 74.176L.048 49.609c-1.108-5.42 19.084-5.76 53.811-18.505C86.73 19.051 132.947-4.204 175.14.656c33.596 3.876 58.252 23.972 69.003 30.144 68.789.292 100.588 18.274 113.41 28.93 4.726 3.924 7.44 9.841 7.44 16.05v16.633c0 5.492-4.357 9.939-9.738 9.939h-20.239c-2.536 0-4.215-2.637-3.226-5.03 2.19-5.334 3.238-11.263 2.833-17.484-1.214-18.565-17.596-34.944-35.799-35.83-21.632-1.058-39.561 16.608-39.561 38.454 0 4.204.666 8.262 1.892 12.053 1.251 3.852-1.547 7.825-5.524 7.825H102.088c-3.976 0-6.774-3.961-5.524-7.813a38.985 38.985 0 001.81-14.69c-1.215-18.564-17.597-34.943-35.8-35.83-21.632-1.057-39.561 16.61-39.561 38.455 0 7.266 1.988 14.07 5.429 19.878H23.31c-7.417 0-14.156-4.399-17.251-11.263l-4.727-10.45c-1.369-3.025.798-6.475 4.06-6.475l-.012.024z" fill="#006FDE"/><path d="M77.777 37.823c-4.917 0-6.19-7.047-1.607-8.906C105.97 16.89 141.804 2.99 175.14 6.89c25.156 2.94 45.287 15.09 58.348 23.656 3.119 2.041 1.75 7.035-1.941 7.084-31.93.425-113.124.291-153.757.194h-.012z" fill="#010101"/><path d="M273.477 82.487c0-13.256 10.524-23.997 23.513-23.997 12.989 0 23.513 10.74 23.513 23.997 0 13.255-10.524 23.996-23.513 23.996-12.989 0-23.513-10.74-23.513-23.996zm-236.69 0c0-13.256 10.525-23.997 23.514-23.997 12.989 0 23.513 10.74 23.513 23.997 0 13.255-10.524 23.996-23.513 23.996-12.99 0-23.514-10.74-23.514-23.996z" fill="#231F20"/><path d="M290.859 79.012l-13.037-10.413a23.852 23.852 0 015.548-5.662l10.203 13.304a6.907 6.907 0 011.5-.631l-2-16.78a23.15 23.15 0 013.917-.34c1.333 0 2.643.122 3.917.34l-2 16.78a7.42 7.42 0 011.5.631l10.203-13.304a23.852 23.852 0 015.548 5.662l-13.037 10.413c.262.474.465.984.62 1.53l16.441-2.04a24.6 24.6 0 01.333 3.997c0 1.36-.119 2.697-.333 3.997l-16.441-2.041a7.767 7.767 0 01-.62 1.53l13.037 10.413a23.847 23.847 0 01-5.548 5.662l-10.203-13.304a6.88 6.88 0 01-1.5.632l2 16.779c-1.274.219-2.584.34-3.917.34-1.333 0-2.643-.121-3.917-.34l2-16.78a7.414 7.414 0 01-1.5-.631L283.37 102.06a23.847 23.847 0 01-5.548-5.662l13.037-10.412a7.152 7.152 0 01-.619-1.531l-16.442 2.041a24.606 24.606 0 01-.333-3.997c0-1.361.119-2.698.333-3.998l16.442 2.041a7.703 7.703 0 01.619-1.53z" fill="#BCBEC0"/><path d="M295.597 79.048c0 .742.595 1.349 1.321 1.349s1.322-.608 1.322-1.349c0-.74-.596-1.348-1.322-1.348-.726 0-1.321.607-1.321 1.348zm0 6.89c0 .74.595 1.348 1.321 1.348s1.322-.607 1.322-1.349c0-.74-.596-1.348-1.322-1.348-.726 0-1.321.607-1.321 1.349zm-2.048-2.09c.726 0 1.321-.608 1.321-1.349s-.595-1.349-1.321-1.349-1.322.608-1.322 1.349.596 1.349 1.322 1.349zm6.75 0c.726 0 1.322-.608 1.322-1.349s-.596-1.349-1.322-1.349c-.726 0-1.321.608-1.321 1.349s.595 1.349 1.321 1.349z" fill="#F1F2F2"/><path d="M265.131 82.487c0 17.957 14.262 32.513 31.858 32.513s31.859-14.556 31.859-32.513c0-17.958-14.263-32.514-31.859-32.514-17.596 0-31.858 14.556-31.858 32.514zm7.203 0c0-13.9 11.036-25.163 24.655-25.163 13.62 0 24.656 11.263 24.656 25.163s-11.036 25.162-24.656 25.162c-13.619 0-24.655-11.263-24.655-25.162z" fill="#010101"/><path d="M271.583 82.487c0 14.313 11.37 25.928 25.406 25.928 14.037 0 25.406-11.603 25.406-25.928 0-14.325-11.369-25.928-25.406-25.928-14.036 0-25.406 11.603-25.406 25.928zm1.893 0c0-13.256 10.525-23.997 23.513-23.997 12.989 0 23.513 10.741 23.513 23.997 0 13.255-10.524 23.996-23.513 23.996-12.988 0-23.513-10.74-23.513-23.996z" fill="#D1D3D4"/><path d="M54.23 79.012L41.192 68.599a23.85 23.85 0 015.548-5.662l10.203 13.304a6.9 6.9 0 011.5-.631l-2-16.78a23.143 23.143 0 013.916-.34c1.334 0 2.644.122 3.917.34l-2 16.78a7.429 7.429 0 011.5.631L73.98 62.937a23.85 23.85 0 015.547 5.662L66.492 79.012c.262.474.464.984.619 1.53l16.441-2.04c.215 1.3.334 2.636.334 3.997 0 1.36-.12 2.697-.334 3.997l-16.441-2.041a7.757 7.757 0 01-.62 1.53l13.037 10.413a23.845 23.845 0 01-5.547 5.662L63.777 88.756a6.892 6.892 0 01-1.5.632l2 16.779c-1.273.219-2.583.34-3.916.34a23.11 23.11 0 01-3.917-.34l2-16.78a7.427 7.427 0 01-1.5-.631L46.74 102.06a23.845 23.845 0 01-5.548-5.662l13.036-10.412a7.189 7.189 0 01-.619-1.531L37.17 86.496a24.572 24.572 0 01-.334-3.997c0-1.361.12-2.698.334-3.998l16.441 2.041a7.745 7.745 0 01.62-1.53z" fill="#BCBEC0"/><path d="M58.967 79.048c0 .742.595 1.349 1.322 1.349.726 0 1.321-.608 1.321-1.349 0-.74-.595-1.348-1.322-1.348-.726 0-1.321.607-1.321 1.348zm0 6.89c0 .74.595 1.348 1.322 1.348.726 0 1.321-.607 1.321-1.349 0-.74-.595-1.348-1.322-1.348-.726 0-1.321.607-1.321 1.349zm-2.047-2.09c.725 0 1.32-.608 1.32-1.349s-.595-1.349-1.32-1.349c-.727 0-1.322.608-1.322 1.349s.595 1.349 1.321 1.349zm6.75 0c.726 0 1.321-.608 1.321-1.349s-.595-1.349-1.321-1.349c-.727 0-1.322.608-1.322 1.349s.596 1.349 1.322 1.349z" fill="#F1F2F2"/><path d="M28.501 82.487C28.501 100.444 42.764 115 60.36 115c17.596 0 31.858-14.556 31.858-32.513 0-17.958-14.262-32.514-31.858-32.514S28.5 64.53 28.5 82.487zm7.203 0c0-13.9 11.036-25.163 24.656-25.163s24.656 11.263 24.656 25.163-11.037 25.162-24.656 25.162c-13.62 0-24.656-11.263-24.656-25.162z" fill="#010101"/><path d="M34.954 82.487c0 14.313 11.37 25.928 25.406 25.928s25.406-11.603 25.406-25.928c0-14.325-11.37-25.928-25.406-25.928S34.954 68.162 34.954 82.487zm1.893 0c0-13.256 10.524-23.997 23.513-23.997 12.989 0 23.513 10.741 23.513 23.997 0 13.255-10.524 23.996-23.513 23.996-12.989 0-23.513-10.74-23.513-23.996z" fill="#D1D3D4"/><path d="M69.848 34.773c.739 3.973 4 6.744 7.93 6.756 8.095.024 13.94 9.914 20.131 20.387 7.739 13.098 16.513 27.933 31.871 27.933l10.929-.048 10.929-.049h69.646c8.036 0 14.691-6.415 15.143-14.616l2.155-39.33c.881-3.232-.369-6.597-3.119-8.408-14.882-9.756-35.133-21.323-59.896-24.215a105.019 105.019 0 00-12.203-.692c-29.251 0-58.562 10.862-88.504 22.963-3.678 1.483-5.738 5.31-4.988 9.307l-.024.012zm5.31-8.505c29.859-12.065 59.086-22.89 88.183-22.89 4.143 0 8.214.23 12.107.68 24.585 2.867 44.728 14.374 59.527 24.081 2.452 1.604 3.559 4.617 2.75 7.485v.097L235.558 75.1c-.428 7.728-6.703 13.79-14.286 13.79h-46.55l-5.286-48.284h62.693v-.862H102.386v.862h66.193l5.286 48.285h-22.251l-10.929.048-10.929.049c-14.882 0-23.525-14.617-31.144-27.52-6.322-10.692-12.287-20.789-20.858-20.8-3.513 0-6.43-2.492-7.096-6.052-.667-3.584 1.179-7.01 4.464-8.347h.036zM260.309 91.49a38.97 38.97 0 00.857 3.062c1.25 3.851-1.547 7.824-5.524 7.824H102.088c-3.976 0-6.774-3.96-5.524-7.812a37.95 37.95 0 00.845-3.074h162.9zm94.945 10.886h-20.239c-2.536 0-4.215-2.636-3.226-5.03a39.025 39.025 0 001.881-5.856h1.047s20.49 2.612 30.288-3.645v4.592c0 5.492-4.357 9.939-9.739 9.939h-.012zM6.048 91.1L1.322 80.653c-1.37-3.026.797-6.476 4.06-6.476l17.643 8.979c.12 7.022 2.084 13.596 5.417 19.221h-5.13c-7.418 0-14.157-4.398-17.252-11.263l-.012-.012z" fill="#005FAD"/><path d="M170.484 37.543c-.738-2.575-4.619-30.63-4.619-30.63l.119-.656a103.077 103.077 0 00-4.334-.012c.31.656.548 1.349.679 2.065.452 2.54 3.726 21.579 4.5 29.598h3.786c-.036-.122-.083-.255-.119-.365h-.012zm-71.765.317h2.583a3.035 3.035 0 01-.166-.498c-.37-1.264-1.858-11.738-2.62-17.144-.762.28-1.512.559-2.274.838.786 4.641 2.132 12.928 2.477 16.804z" fill="#231F20"/><path d="M237.892 45.477h-8.679c-1.096 0-1.929-1.02-1.727-2.126l2.155-11.555a1.77 1.77 0 011.726-1.458h6.537c5.44 0 9.857 3.39 9.857 7.57s-4.417 7.57-9.857 7.57h-.012z" fill="#1C91F2"/><path d="M237.892 40.945h-8.679a1.73 1.73 0 01-1.191-.474l-.536 2.88c-.202 1.106.619 2.126 1.727 2.126h8.679c5.441 0 9.858-3.39 9.858-7.57 0-.789-.155-1.554-.453-2.271-1.25 3.074-4.988 5.297-9.405 5.297v.012z" fill="#005FAD"/><path d="M349.42 63.46c-.702 3.608 6.656 16.183 13.882 18.358.56.17 1.119.28 1.691.34v-6.354c0-5.225-1.917-10.218-5.334-14.021-3.953-.45-9.774-.68-10.239 1.689v-.013z" fill="#D1D3D4"/><path d="M363.385 80.117c-6.369-2.272-12.822-13.572-12.393-16.293.119-.11.94-.705 4.095-.705 1.108 0 2.381.073 3.786.219 2.917 3.463 4.512 7.86 4.512 12.454v4.325z" fill="#fff"/><path d="M10.477 69.765c.976-4.823-.75-18.59-.75-18.59l-9.144.888 4.465 20.545c2.643-.133 5.036-.826 5.44-2.855l-.011.012z" fill="#FEAB01"/><path d="M183.616 37.021l11.572-24.47a103.282 103.282 0 00-11.727-3.268l-13.132 27.762c4.512 0 8.953 0 13.275-.024h.012zm24.179-19.331a128.475 128.475 0 00-8.083-3.486l-10.775 22.793c3.345 0 6.596-.024 9.751-.036l9.119-19.282-.012.012zm-82.753 19.343l12.881-27.24c-5.024.996-10.036 2.236-14.989 3.645l-11.155 23.583c4.298 0 8.738.012 13.263.012zm29.013-29.536c-3.441.279-6.881.704-10.322 1.251l-13.382 28.285h9.727l13.977-29.549v.013z" fill="#28211F"/><path d="M97.35 45.477h67.991l1.369 9.6-69.36-9.6zm76.396.705h53.705l-52.669 8.894-1.036-8.894z" fill="#3D3533"/></svg>