<svg width="365" height="122" fill="none" xmlns="http://www.w3.org/2000/svg"><path d="M313.891 114.447c-11.272 0-20.414-9.539-20.414-21.3 0-11.76 9.142-21.3 20.414-21.3 11.273 0 20.415 9.54 20.415 21.3 0 11.761-9.142 21.3-20.415 21.3zM109.696 99.465a6.537 6.537 0 01-.371-2.335c.024-1.186.036-2.41.036-3.683 0-19.664-15.676-35.57-34.678-34.834-18.225.712-32.274 17.143-32.142 36.183v.25c0 .898-.168 1.747-.479 2.521l67.634 1.898z" fill="#D1D3D4"/><path d="M346.715 96.182c.012-.887.024-1.798.024-2.735 0-19.676-15.7-35.595-34.726-34.833-18.237.736-32.214 17.204-32.094 36.232 0 .899.024 1.76.036 2.609l3.458-.05 63.386-.25a4.371 4.371 0 01-.084-.986v.013z" fill="#D1D3D4"/><path d="M310.038 38.038l-55.668-6.704-5.504 7.89L64.738 32.97l-14.144-5.33H20.427c-6.462 0-11.692 5.455-11.692 12.197v13.397c0 2.647-1.005 5.194-2.8 7.066C2.13 64.27 0 69.651 0 75.257v8.864l4.619 10.975 30.55 6.317c3.842.799 7.408-2.272 7.372-6.367v-.25c-.132-19.027 13.905-35.47 32.142-36.182 18.99-.737 34.678 15.17 34.678 34.834 0 1.273 0 2.497-.036 3.683-.072 3.608 2.705 6.567 6.175 6.567h160.039c2.489 0 4.511-2.135 4.44-4.732-.036-1.31-.06-2.684-.072-4.108-.12-19.04 13.857-35.508 32.094-36.232 19.014-.761 34.726 15.157 34.726 34.834 0 .937 0 1.848-.024 2.734-.048 3.16 2.836 5.444 5.732 4.532l8.915-2.821c2.154-.687 3.638-2.76 3.638-5.12v-29.24c0-4.532-2.465-8.664-6.366-10.65-.084-.05-.18-.087-.263-.137a144.697 144.697 0 00-48.333-14.707l.012-.013z" fill="#D1D3D4"/><path d="M216.078 9.534l38.292 21.8-5.504 7.89S221.14 16.101 196.824 9.771c-.479-.124-.527-.799-.06-.986 3.327-1.248 11.775-3.646 19.302.75h.012zM154.881 35.99l-1.244-12.123c0-4.532-3.518-8.202-7.862-8.202h-.096c-1.496 0-2.716 1.273-2.716 2.834v17.117l11.93.362-.012.012zm-49.122-1.673l-1.244-10.45c0-4.532-3.518-8.202-7.862-8.202h-.096c-1.496 0-2.716 1.273-2.716 2.834v15.456l11.93.362h-.012zM35.17 101.413c3.84.799 7.407-2.272 7.37-6.367v-.25c0-1.424.084-2.822.228-4.22h-.227L0 82.835v1.286l4.619 10.974 30.55 6.318zm311.414-10.837c.071.949.143 1.898.143 2.872 0 .973 0 1.847-.024 2.734-.048 3.159 2.836 5.443 5.732 4.532l8.915-2.822c2.154-.686 3.638-2.759 3.638-5.119v-6.879l-18.416 4.682h.012zm-237.366.012c.071.95.143 1.898.143 2.872 0 1.274 0 2.497-.036 3.683-.072 3.608 2.705 6.567 6.175 6.567h160.039c2.489 0 4.511-2.135 4.44-4.732a216.42 216.42 0 01-.072-4.107c0-1.448.083-2.872.239-4.283H109.218zm209.939-.525l11.32-9.239a20.859 20.859 0 00-4.811-5.019l-8.855 11.811a5.995 5.995 0 00-1.292-.562l1.735-14.895c-1.113-.2-2.25-.3-3.399-.3-1.148 0-2.297.113-3.398.3l1.735 14.895a5.995 5.995 0 00-1.292.562l-8.855-11.81a20.857 20.857 0 00-4.811 5.018l11.32 9.24a6.543 6.543 0 00-.538 1.348l-14.276-1.81a21.735 21.735 0 00-.287 3.545c0 1.199.107 2.397.287 3.546l14.276-1.81c.131.474.311.923.538 1.348l-11.32 9.239a20.846 20.846 0 004.811 5.019l8.855-11.811a5.99 5.99 0 001.292.562l-1.735 14.895c1.113.199 2.25.299 3.398.299 1.149 0 2.298-.112 3.399-.299l-1.735-14.895a5.995 5.995 0 001.292-.562l8.855 11.811a20.864 20.864 0 004.811-5.019l-11.32-9.24a6.6 6.6 0 00.538-1.348l14.276 1.81c.191-1.16.287-2.346.287-3.545a23.03 23.03 0 00-.287-3.546l-14.276 1.81a6.6 6.6 0 00-.538-1.348z" fill="#D1D3D4"/><path d="M313.891 91.3c.635 0 1.149-.537 1.149-1.2 0-.661-.514-1.198-1.149-1.198-.634 0-1.148.537-1.148 1.199s.514 1.198 1.148 1.198zm0 6.117c.635 0 1.149-.537 1.149-1.198 0-.662-.514-1.199-1.149-1.199-.634 0-1.148.537-1.148 1.199 0 .661.514 1.198 1.148 1.198zm2.932-3.059c.635 0 1.149-.537 1.149-1.199s-.514-1.198-1.149-1.198c-.634 0-1.149.537-1.149 1.198 0 .662.515 1.199 1.149 1.199zm-5.863 0c-.635 0-1.149-.537-1.149-1.199 0-.661.514-1.198 1.149-1.198.634 0 1.148.537 1.148 1.198 0 .662-.514 1.199-1.148 1.199z" fill="#D1D3D4"/><path d="M313.832 64.294c-15.282 0-27.655 12.922-27.655 28.853 0 15.931 12.385 28.853 27.655 28.853 15.269 0 27.654-12.922 27.654-28.853 0-15.93-12.385-28.853-27.654-28.853zm0 51.189c-11.823 0-21.408-10-21.408-22.336 0-12.335 9.585-22.336 21.408-22.336 11.822 0 21.407 10 21.407 22.336 0 12.336-9.585 22.336-21.407 22.336z" fill="#D1D3D4"/><path d="M313.832 70.15c-12.182 0-22.055 10.3-22.055 23.01s9.873 23.01 22.055 23.01c12.181 0 22.054-10.3 22.054-23.01s-9.873-23.01-22.054-23.01zm0 44.309c-11.273 0-20.415-9.538-20.415-21.3 0-11.76 9.142-21.3 20.415-21.3 11.272 0 20.414 9.54 20.414 21.3 0 11.762-9.142 21.3-20.414 21.3zm-238.168-.012c-11.273 0-20.415-9.539-20.415-21.3 0-11.76 9.142-21.3 20.415-21.3 11.272 0 20.414 9.54 20.414 21.3 0 11.761-9.142 21.3-20.414 21.3z" fill="#D1D3D4"/><path d="M80.977 90.063l11.32-9.239a20.864 20.864 0 00-4.81-5.019L78.63 87.616a6.002 6.002 0 00-1.292-.562l1.735-14.895c-1.113-.2-2.238-.3-3.398-.3-1.161 0-2.298.113-3.399.3l1.735 14.895a5.754 5.754 0 00-1.292.562l-8.855-11.81a20.866 20.866 0 00-4.81 5.018l11.32 9.24a6.556 6.556 0 00-.539 1.348l-14.276-1.81a21.802 21.802 0 00-.287 3.545c0 1.199.108 2.397.287 3.546l14.276-1.81c.132.474.311.923.539 1.348l-11.32 9.239a20.853 20.853 0 004.81 5.019l8.855-11.811a6 6 0 001.292.562l-1.735 14.895c1.113.199 2.25.299 3.399.299 1.148 0 2.297-.112 3.398-.299L77.34 99.24a6.002 6.002 0 001.292-.562l8.856 11.811a20.872 20.872 0 004.81-5.019l-11.32-9.24c.227-.424.407-.873.538-1.348l14.276 1.81c.192-1.16.287-2.346.287-3.545a23.03 23.03 0 00-.287-3.546l-14.276 1.81a6.556 6.556 0 00-.538-1.348z" fill="#D1D3D4"/><path d="M76.86 90.1c0 .662-.514 1.2-1.148 1.2-.635 0-1.15-.538-1.15-1.2 0-.66.515-1.198 1.15-1.198.634 0 1.148.537 1.148 1.199zm0 6.119c0 .661-.514 1.198-1.148 1.198-.635 0-1.15-.537-1.15-1.198 0-.662.515-1.199 1.15-1.199.634 0 1.148.537 1.148 1.199zm1.783-1.861c.635 0 1.15-.537 1.15-1.199s-.515-1.198-1.15-1.198c-.634 0-1.148.537-1.148 1.198 0 .662.514 1.199 1.148 1.199zm-5.863 0c.634 0 1.149-.537 1.149-1.199s-.515-1.198-1.15-1.198c-.634 0-1.148.537-1.148 1.198 0 .662.514 1.199 1.149 1.199z" fill="#D1D3D4"/><path d="M75.664 64.294c-15.281 0-27.655 12.922-27.655 28.853C48.01 109.078 60.395 122 75.664 122c15.269 0 27.654-12.922 27.654-28.853 0-15.93-12.385-28.853-27.654-28.853zm0 51.189c-11.823 0-21.408-10-21.408-22.336 0-12.335 9.585-22.336 21.408-22.336s21.408 10 21.408 22.336c0 12.336-9.585 22.336-21.408 22.336z" fill="#D1D3D4"/><path d="M75.664 70.15c-12.182 0-22.054 10.3-22.054 23.01s9.872 23.01 22.054 23.01c12.181 0 22.054-10.3 22.054-23.01s-9.873-23.01-22.054-23.01zm0 44.309c-11.273 0-20.415-9.538-20.415-21.3 0-11.76 9.142-21.3 20.415-21.3 11.272 0 20.414 9.54 20.414 21.3 0 11.762-9.142 21.3-20.414 21.3zm189.584-25.494l-10.937-49.354c-3.028 3.247-7.204 4.994-11.572 4.845L64.762 38.2l.024-.649 177.977 6.255c4.356.163 8.556-1.698 11.488-5.081l.395-.462 11.2 50.552-.61.15h.012z" fill="#D1D3D4"/><path d="M151.051 40.85l-.606.144 10.894 49.668.606-.145-10.894-49.668zm97.755 6.964h-7.826c-.993 0-1.735-.937-1.556-1.96l1.939-10.638c.143-.774.79-1.336 1.556-1.336h5.887c4.906 0 8.879 3.122 8.879 6.967 0 3.846-3.973 6.967-8.879 6.967z" fill="#D1D3D4"/><path d="M248.806 43.632h-7.826c-.419 0-.79-.162-1.065-.437l-.479 2.66c-.179 1.01.563 1.96 1.556 1.96h7.826c4.906 0 8.879-3.122 8.879-6.967a5.62 5.62 0 00-.407-2.085c-1.137 2.834-4.499 4.881-8.472 4.881l-.012-.012zM365 63.533c0-.238 0-.487-.024-.724h-5.445c-1.807 0-3.255 1.56-3.195 3.445.108 3.459.742 8.64 3.375 11.175 1.28 1.236 3.219 2.26 5.289 3.034v-16.93z" fill="#D1D3D4"/><path d="M363.241 77.678c-.957-.512-1.759-1.06-2.322-1.598-1.651-1.598-2.656-5.106-2.8-9.876a1.543 1.543 0 01.407-1.098 1.41 1.41 0 011.029-.45h3.698v13.035l-.012-.013zM0 75.256v3.895l5.122-2.36c3.625-1.672 6.09-5.28 6.402-9.413l.048-.6c.143-1.885-1.28-3.495-3.1-3.495H3.578A21.818 21.818 0 000 75.269v-.013zM158.842 49.05h90.933l-87.833 9.55-3.1-9.551zM68.52 44.718l80.402 4.332 1.52 9.551L68.52 44.718z" fill="#D1D3D4"/><path d="M313.891 107.447c-11.272 0-20.414-9.539-20.414-21.3 0-11.76 9.142-21.3 20.414-21.3 11.273 0 20.415 9.54 20.415 21.3 0 11.761-9.142 21.3-20.415 21.3zM109.696 92.465a6.537 6.537 0 01-.371-2.335c.024-1.186.036-2.41.036-3.683 0-19.664-15.676-35.57-34.678-34.834-18.225.712-32.274 17.143-32.142 36.183v.25c0 .898-.168 1.747-.479 2.521l67.634 1.898z" fill="#231F20"/><path d="M346.715 89.182c.012-.887.024-1.798.024-2.735 0-19.676-15.7-35.595-34.726-34.833-18.237.736-32.214 17.204-32.094 36.232 0 .899.024 1.76.036 2.609l3.458-.05 63.386-.25a4.371 4.371 0 01-.084-.986v.013z" fill="#231F20"/><path d="M310.038 31.038l-55.668-6.704-5.504 7.89L64.738 25.97l-14.144-5.33H20.427c-6.462 0-11.692 5.455-11.692 12.197v13.397c0 2.647-1.005 5.194-2.8 7.066C2.13 57.27 0 62.651 0 68.257v8.864l4.619 10.975 30.55 6.317c3.842.8 7.408-2.272 7.372-6.367v-.25c-.132-19.027 13.905-35.47 32.142-36.182 18.99-.737 34.678 15.17 34.678 34.834 0 1.273 0 2.497-.036 3.683-.072 3.608 2.705 6.567 6.175 6.567h160.039c2.489 0 4.511-2.135 4.44-4.732-.036-1.31-.06-2.684-.072-4.108-.12-19.04 13.857-35.508 32.094-36.232 19.014-.761 34.726 15.157 34.726 34.834 0 .937 0 1.848-.024 2.734-.048 3.16 2.836 5.444 5.732 4.532l8.915-2.821c2.154-.687 3.638-2.76 3.638-5.12v-29.24c0-4.532-2.465-8.664-6.366-10.65-.084-.05-.18-.087-.263-.137a144.697 144.697 0 00-48.333-14.707l.012-.013z" fill="#63AF09"/><path d="M216.078 2.534l38.292 21.8-5.504 7.89S221.14 9.101 196.824 2.771c-.479-.124-.527-.799-.06-.986 3.327-1.248 11.775-3.646 19.302.75h.012z" fill="#010101"/><path d="M154.881 28.99l-1.244-12.123c0-4.532-3.518-8.202-7.862-8.202h-.096c-1.496 0-2.716 1.273-2.716 2.834v17.117l11.93.362-.012.012zm-49.122-1.673l-1.244-10.45c0-4.532-3.518-8.202-7.862-8.202h-.096c-1.496 0-2.716 1.273-2.716 2.834v15.456l11.93.362h-.012z" fill="#A97C50"/><path d="M35.17 94.413c3.84.799 7.407-2.272 7.37-6.367v-.25c0-1.424.084-2.822.228-4.22h-.227L0 75.835v1.286l4.619 10.974 30.55 6.318zm311.414-10.837c.071.949.143 1.898.143 2.872 0 .973 0 1.847-.024 2.734-.048 3.159 2.836 5.443 5.732 4.532l8.915-2.822c2.154-.686 3.638-2.759 3.638-5.119v-6.879l-18.416 4.682h.012zm-237.366.012c.071.95.143 1.898.143 2.872 0 1.274 0 2.497-.036 3.683-.072 3.608 2.705 6.567 6.175 6.567h160.039c2.489 0 4.511-2.135 4.44-4.732a216.42 216.42 0 01-.072-4.107c0-1.448.083-2.872.239-4.283H109.218z" fill="#548E00"/><path d="M319.157 83.063l11.32-9.239a20.859 20.859 0 00-4.811-5.019l-8.855 11.811a5.995 5.995 0 00-1.292-.562l1.735-14.895c-1.113-.2-2.25-.3-3.399-.3-1.148 0-2.297.113-3.398.3l1.735 14.895a5.995 5.995 0 00-1.292.562l-8.855-11.81a20.857 20.857 0 00-4.811 5.018l11.32 9.24a6.543 6.543 0 00-.538 1.348l-14.276-1.81a21.735 21.735 0 00-.287 3.545c0 1.199.107 2.397.287 3.546l14.276-1.81c.131.474.311.923.538 1.348l-11.32 9.239a20.846 20.846 0 004.811 5.019l8.855-11.811a5.99 5.99 0 001.292.562l-1.735 14.895c1.113.199 2.25.299 3.398.299 1.149 0 2.298-.112 3.399-.299l-1.735-14.895a5.995 5.995 0 001.292-.562l8.855 11.811a20.864 20.864 0 004.811-5.019l-11.32-9.24a6.6 6.6 0 00.538-1.348l14.276 1.81c.191-1.16.287-2.346.287-3.545a23.03 23.03 0 00-.287-3.546l-14.276 1.81a6.6 6.6 0 00-.538-1.348z" fill="#BCBEC0"/><path d="M313.891 84.3c.635 0 1.149-.537 1.149-1.2 0-.661-.514-1.198-1.149-1.198-.634 0-1.148.537-1.148 1.199s.514 1.198 1.148 1.198zm0 6.117c.635 0 1.149-.537 1.149-1.198 0-.662-.514-1.199-1.149-1.199-.634 0-1.148.537-1.148 1.199 0 .661.514 1.198 1.148 1.198zm2.932-3.059c.635 0 1.149-.536 1.149-1.198 0-.662-.514-1.199-1.149-1.199-.634 0-1.149.537-1.149 1.199s.515 1.198 1.149 1.198zm-5.863 0c-.635 0-1.149-.537-1.149-1.198 0-.662.514-1.199 1.149-1.199.634 0 1.148.537 1.148 1.199s-.514 1.198-1.148 1.198z" fill="#F1F2F2"/><path d="M313.832 57.294c-15.282 0-27.655 12.922-27.655 28.853 0 15.931 12.385 28.853 27.655 28.853 15.269 0 27.654-12.922 27.654-28.853 0-15.93-12.385-28.853-27.654-28.853zm0 51.189c-11.823 0-21.408-10-21.408-22.336 0-12.335 9.585-22.336 21.408-22.336 11.822 0 21.407 10 21.407 22.336 0 12.336-9.585 22.336-21.407 22.336z" fill="#010101"/><path d="M313.832 63.15c-12.182 0-22.055 10.3-22.055 23.01s9.873 23.01 22.055 23.01c12.181 0 22.054-10.3 22.054-23.01s-9.873-23.01-22.054-23.01zm0 44.309c-11.273 0-20.415-9.538-20.415-21.3 0-11.76 9.142-21.3 20.415-21.3 11.272 0 20.414 9.54 20.414 21.3 0 11.762-9.142 21.3-20.414 21.3z" fill="#D1D3D4"/><path d="M75.664 107.447c-11.273 0-20.415-9.539-20.415-21.3 0-11.76 9.142-21.3 20.415-21.3 11.272 0 20.414 9.54 20.414 21.3 0 11.761-9.142 21.3-20.414 21.3z" fill="#231F20"/><path d="M80.977 83.063l11.32-9.239a20.864 20.864 0 00-4.81-5.019L78.63 80.616a6.002 6.002 0 00-1.292-.562l1.735-14.895c-1.113-.2-2.238-.3-3.398-.3-1.161 0-2.298.113-3.399.3l1.735 14.895a5.754 5.754 0 00-1.292.562l-8.855-11.81a20.866 20.866 0 00-4.81 5.018l11.32 9.24a6.556 6.556 0 00-.539 1.348l-14.276-1.81a21.802 21.802 0 00-.287 3.545c0 1.199.108 2.397.287 3.546l14.276-1.81c.132.474.311.923.539 1.348l-11.32 9.239a20.853 20.853 0 004.81 5.019l8.855-11.811a6 6 0 001.292.562l-1.735 14.895c1.113.199 2.25.299 3.399.299 1.148 0 2.297-.112 3.398-.299L77.34 92.24a6.002 6.002 0 001.292-.562l8.856 11.811a20.872 20.872 0 004.81-5.019l-11.32-9.24c.227-.424.407-.873.538-1.348l14.276 1.81c.192-1.16.287-2.346.287-3.545a23.03 23.03 0 00-.287-3.546l-14.276 1.81a6.556 6.556 0 00-.538-1.348z" fill="#BCBEC0"/><path d="M76.86 83.1c0 .662-.514 1.2-1.148 1.2-.635 0-1.15-.538-1.15-1.2 0-.66.515-1.198 1.15-1.198.634 0 1.148.537 1.148 1.199zm0 6.119c0 .661-.514 1.198-1.148 1.198-.635 0-1.15-.537-1.15-1.198 0-.662.515-1.199 1.15-1.199.634 0 1.148.537 1.148 1.199zm1.783-1.861c.635 0 1.15-.536 1.15-1.198 0-.662-.515-1.199-1.15-1.199-.634 0-1.148.537-1.148 1.199s.514 1.198 1.148 1.198zm-5.863 0c.634 0 1.149-.536 1.149-1.198 0-.662-.515-1.199-1.15-1.199-.634 0-1.148.537-1.148 1.199s.514 1.198 1.149 1.198z" fill="#F1F2F2"/><path d="M75.664 57.294c-15.281 0-27.655 12.922-27.655 28.853C48.01 102.078 60.395 115 75.664 115c15.269 0 27.654-12.922 27.654-28.853 0-15.93-12.385-28.853-27.654-28.853zm0 51.189c-11.823 0-21.408-10-21.408-22.336 0-12.335 9.585-22.336 21.408-22.336s21.408 10 21.408 22.336c0 12.336-9.585 22.336-21.408 22.336z" fill="#010101"/><path d="M75.664 63.15c-12.182 0-22.054 10.3-22.054 23.01s9.872 23.01 22.054 23.01c12.181 0 22.054-10.3 22.054-23.01s-9.873-23.01-22.054-23.01zm0 44.309c-11.273 0-20.415-9.538-20.415-21.3 0-11.76 9.142-21.3 20.415-21.3 11.272 0 20.414 9.54 20.414 21.3 0 11.762-9.142 21.3-20.414 21.3z" fill="#D1D3D4"/><path d="M265.248 81.965l-10.937-49.354c-3.028 3.247-7.204 4.994-11.572 4.845L64.762 31.2l.024-.649 177.977 6.255c4.356.163 8.556-1.698 11.488-5.081l.395-.462 11.2 50.552-.61.15h.012z" fill="#548E00"/><path d="M151.051 33.85l-.606.144 10.894 49.668.606-.145-10.894-49.668z" fill="#548E00"/><path d="M248.806 40.814h-7.826c-.993 0-1.735-.937-1.556-1.96l1.939-10.638c.143-.774.79-1.336 1.556-1.336h5.887c4.906 0 8.879 3.122 8.879 6.967 0 3.846-3.973 6.967-8.879 6.967z" fill="#88D120"/><path d="M248.806 36.632h-7.826c-.419 0-.79-.162-1.065-.437l-.479 2.66c-.179 1.01.563 1.96 1.556 1.96h7.826c4.906 0 8.879-3.122 8.879-6.967a5.62 5.62 0 00-.407-2.085c-1.137 2.834-4.499 4.881-8.472 4.881l-.012-.012z" fill="#548E00"/><path d="M365 56.533c0-.238 0-.487-.024-.724h-5.445c-1.807 0-3.255 1.56-3.195 3.446.108 3.458.742 8.64 3.375 11.174 1.28 1.236 3.219 2.26 5.289 3.034v-16.93z" fill="#D1D3D4"/><path d="M363.241 70.678c-.957-.512-1.759-1.06-2.322-1.598-1.651-1.598-2.656-5.106-2.8-9.876a1.543 1.543 0 01.407-1.098 1.41 1.41 0 011.029-.45h3.698v13.035l-.012-.013z" fill="#fff"/><path d="M0 68.256v3.895l5.122-2.36c3.625-1.672 6.09-5.28 6.402-9.413l.048-.6c.143-1.885-1.28-3.495-3.1-3.495H3.578A21.818 21.818 0 000 68.269v-.013z" fill="#DE5000"/><path d="M158.842 42.05h90.933l-87.833 9.55-3.1-9.551zM68.52 37.718l80.402 4.332 1.52 9.551L68.52 37.718z" fill="#3D3533"/></svg>