<svg width="90" height="40" fill="none" xmlns="http://www.w3.org/2000/svg"><path fill-rule="evenodd" clip-rule="evenodd" d="M79.686 28.086v5.385l-25.257 6.53-42.671-6.53v-5.385h2.463v3.21l38.96 6.074v-9.284h2.464v9.121l21.589-5.754v-3.367h2.452zm0-16.171V6.53L54.43 0 11.758 6.53v5.385h2.463v-3.21l38.96-6.074v9.284h2.464V2.794l21.589 5.754v3.367h2.452z" fill="#93C90E"/><path fill-rule="evenodd" clip-rule="evenodd" d="M0 26.784h2.464v-4.682h2.77c2.541 0 4.318-1.834 4.318-4.471s-1.777-4.414-4.318-4.414H0v13.567zm2.464-6.822v-4.625h2.35c1.395 0 2.235.898 2.235 2.294 0 1.414-.84 2.33-2.274 2.33h-2.31zm9.294 6.822h2.464V21.72h2.37l2.673 5.064h2.77l-2.789-5.044c-.268-.498-.44-.707-.44-.707v-.038c1.433-.574 2.275-2.103 2.275-3.708 0-1.834-.899-3.135-2.293-3.707-.573-.25-1.223-.363-2.56-.363h-4.47v13.567zm2.464-7.205v-4.242h1.796c.745 0 1.145.077 1.49.23.745.306 1.07.993 1.07 1.854 0 1.338-.822 2.158-2.14 2.158h-2.216zm8.837.326c0 3.994 2.903 7.108 7.01 7.108 4.107 0 7.011-3.114 7.011-7.108 0-3.88-2.904-6.919-7.011-6.919s-7.01 3.039-7.01 6.919zm2.54 0c0-2.637 1.873-4.663 4.47-4.663 2.598 0 4.47 2.026 4.47 4.663 0 2.751-1.872 4.854-4.47 4.854-2.597 0-4.47-2.103-4.47-4.854zm12.897 5.256c1.222 1.223 2.96 1.854 4.642 1.854 2.903 0 4.508-1.815 4.508-4.013 0-4.319-6.323-3.67-6.323-6.19 0-.938.821-1.55 2.063-1.55 1.07 0 2.235.516 2.98 1.186l1.09-2.007c-1.07-.975-2.56-1.453-3.975-1.453-2.636 0-4.622 1.548-4.622 3.937 0 4.223 6.322 3.688 6.322 6.268 0 .917-.764 1.548-1.986 1.548-1.261 0-2.56-.708-3.362-1.433l-1.337 1.853zm14.684 1.623h2.446V15.337h4.45v-2.12H48.73v2.12h4.45v11.447zm7.53-6.879c0 3.994 2.904 7.108 7.012 7.108 4.107 0 7.011-3.114 7.011-7.108 0-3.88-2.904-6.919-7.011-6.919-4.108 0-7.011 3.039-7.011 6.919zm2.542 0c0-2.637 1.872-4.663 4.47-4.663s4.47 2.026 4.47 4.663c0 2.751-1.872 4.854-4.47 4.854s-4.47-2.103-4.47-4.854zm13.971 6.879h2.464V21.72h2.369l2.675 5.064h2.77l-2.79-5.044c-.268-.498-.44-.707-.44-.707v-.038c1.433-.574 2.274-2.103 2.274-3.708 0-1.834-.898-3.135-2.292-3.707-.573-.25-1.223-.363-2.56-.363h-4.47v13.567zm2.464-7.205v-4.242h1.796c.745 0 1.146.077 1.49.23.745.306 1.07.993 1.07 1.854 0 1.338-.822 2.158-2.14 2.158h-2.216z" fill="#2B2E34"/></svg>