<svg width="20" height="20" fill="none" xmlns="http://www.w3.org/2000/svg"><path d="M10 18.333c4.03 0 7.296-3.236 7.296-7.229 0-3.991-3.266-7.229-7.296-7.229s-7.298 3.237-7.298 7.23c0 3.99 3.267 7.228 7.298 7.228z" fill="#4470FE"/><path d="M10 7.29c.335 0 .607.27.607.602v2.963l1.85 1.832a.6.6 0 01-.43 1.028.612.612 0 01-.43-.177L9.568 11.53a.6.6 0 01-.178-.425V7.892c0-.334.272-.603.609-.603z" fill="#E8F3FF"/><path fill-rule="evenodd" clip-rule="evenodd" d="M6.866 1.95a.6.6 0 01-.193.83L3.431 4.788a.612.612 0 01-.923-.411.6.6 0 01.278-.61l3.243-2.009a.612.612 0 01.838.192zm6.267 0a.612.612 0 01.838-.192l3.243 2.009a.598.598 0 01.193.83.612.612 0 01-.838.191L13.326 2.78a.599.599 0 01-.194-.83h.001z" fill="#4470FE"/></svg>