<svg width="120" height="40" fill="none" xmlns="http://www.w3.org/2000/svg"><g clip-path="url(#clip0_2129_11174)"><path d="M113 .5H7A6.5 6.5 0 00.5 7v26A6.5 6.5 0 007 39.5h106a6.5 6.5 0 006.5-6.5V7A6.5 6.5 0 00113 .5z" fill="#fff" stroke="#000001"/><path d="M25 19.9c0-2.9 2.3-4.3 2.5-4.3-1.3-2-3.4-2.2-4.2-2.2-1.7-.2-3.4 1-4.3 1-.9 0-2.3-1-3.8-1-1.9 0-3.7 1.1-4.7 2.8-2 3.5-.5 8.6 1.4 11.4 1 1.4 2.1 2.9 3.6 2.9 1.4-.1 2-.9 3.7-.9 1.7 0 2.2.9 3.7.9s2.5-1.4 3.5-2.8c1.1-1.6 1.6-3.1 1.6-3.2 0 0-3-1.2-3-4.6zm-2.8-8.4c.8-1 1.3-2.3 1.2-3.6-1.1 0-2.5.8-3.3 1.7-.7.8-1.4 2.2-1.2 3.5 1.2.1 2.4-.7 3.3-1.6zm20.1 15.6h-4.7l-1.1 3.4h-2L39 18.1h2l4.5 12.4h-2l-1.2-3.4zm-4.2-1.5h3.8L40 20.1h-.1l-1.8 5.5zm17.1.4c0 2.8-1.5 4.6-3.8 4.6-1.3 0-2.3-.6-2.8-1.6v4.5h-1.9v-12h1.8V23c.5-1 1.6-1.6 2.9-1.6 2.2-.1 3.8 1.8 3.8 4.6zm-2 0c0-1.8-.9-3-2.4-3-1.4 0-2.4 1.2-2.4 3s1 3 2.4 3c1.5 0 2.4-1.2 2.4-3zm11.9 0c0 2.8-1.5 4.6-3.8 4.6-1.3 0-2.3-.6-2.8-1.6v4.5h-1.9v-12h1.8V23c.5-1 1.6-1.6 2.9-1.6 2.3-.1 3.8 1.8 3.8 4.6zm-1.9 0c0-1.8-.9-3-2.4-3-1.4 0-2.4 1.2-2.4 3s1 3 2.4 3c1.5 0 2.4-1.2 2.4-3zm8.5 1c.1 1.2 1.3 2 3 2 1.6 0 2.7-.8 2.7-1.9 0-1-.7-1.5-2.3-1.9l-1.6-.4c-2.3-.6-3.3-1.6-3.3-3.3 0-2.1 1.9-3.6 4.5-3.6s4.4 1.5 4.5 3.6h-1.9c-.1-1.2-1.1-2-2.6-2s-2.5.8-2.5 1.9c0 .9.7 1.4 2.3 1.8l1.4.3c2.5.6 3.6 1.6 3.6 3.4 0 2.3-1.8 3.8-4.8 3.8-2.8 0-4.6-1.4-4.7-3.7h1.7zm11.6-7.7v2.1H85v1.5h-1.7v5c0 .8.3 1.1 1.1 1.1h.6v1.5c-.2.1-.6.1-1 .1-1.8 0-2.5-.7-2.5-2.4V23h-1.3v-1.5h1.3v-2.1h1.8v-.1zm2.8 6.7c0-2.8 1.7-4.6 4.3-4.6 2.6 0 4.3 1.8 4.3 4.6 0 2.9-1.7 4.6-4.3 4.6-2.7 0-4.3-1.8-4.3-4.6zm6.7 0c0-2-.9-3.1-2.4-3.1S88 24 88 26s.9 3.1 2.4 3.1 2.4-1.2 2.4-3.1zm3.4-4.6H98V23c.3-1 1.1-1.6 2.2-1.6.3 0 .5 0 .6.1v1.7c-.1-.1-.5-.1-.8-.1-1.2 0-1.9.8-1.9 2.1v5.4h-1.9v-9.2zm13.2 6.4c-.3 1.6-1.9 2.8-3.9 2.8-2.6 0-4.3-1.8-4.3-4.6s1.6-4.7 4.2-4.7c2.5 0 4.1 1.7 4.1 4.5v.6h-6.4v.1c0 1.5 1 2.6 2.4 2.6 1 0 1.8-.5 2.1-1.3h1.8zm-6.3-2.7h4.5c0-1.4-.9-2.3-2.2-2.3-1.3 0-2.2 1-2.3 2.3zM37.8 8.7c1.8 0 2.8 1.1 2.8 3s-1 3-2.8 3h-2.2v-6h2.2zm-1.2 5.2h1.1c1.2 0 2-.8 2-2.1s-.7-2.1-2-2.1h-1.1v4.2zm5.1-1.5c0-1.5.8-2.3 2.1-2.3s2.1.9 2.1 2.3c0 1.5-.8 2.3-2.1 2.3-1.3.1-2.1-.8-2.1-2.3zm3.3 0c0-1-.4-1.5-1.2-1.5-.8 0-1.2.6-1.2 1.5 0 1 .4 1.6 1.2 1.6.8 0 1.2-.6 1.2-1.6zm6.6 2.3h-.9l-.9-3.3h-.1l-.9 3.3h-.9l-1.2-4.5h.9l.8 3.4h.1l.9-3.4h.9l.9 3.4h.1l.8-3.4h.9l-1.4 4.5zm2.3-4.5h.9v.7h.1c.2-.5.7-.8 1.3-.8 1 0 1.6.6 1.6 1.7v2.9h-.9V12c0-.7-.3-1.1-1-1.1s-1.1.4-1.1 1.1v2.6h-.9v-4.4zm5.2-1.8h.9v6.3h-.9V8.4zm2.1 4c0-1.5.8-2.3 2.1-2.3s2.1.9 2.1 2.3c0 1.5-.8 2.3-2.1 2.3-1.3.1-2.1-.8-2.1-2.3zm3.4 0c0-1-.4-1.5-1.2-1.5-.8 0-1.2.6-1.2 1.5 0 1 .4 1.6 1.2 1.6.7 0 1.2-.6 1.2-1.6zm1.8 1c0-.8.6-1.3 1.7-1.3l1.2-.1v-.4c0-.5-.3-.7-.9-.7-.5 0-.8.2-.9.5h-.9c.1-.8.8-1.3 1.8-1.3 1.1 0 1.8.6 1.8 1.5v3.1h-.9v-.6h-.1c-.3.5-.8.7-1.4.7-.8 0-1.4-.6-1.4-1.4zm2.9-.4v-.4l-1.1.1c-.6 0-.9.3-.9.6 0 .4.4.6.8.6.7.1 1.2-.3 1.2-.9zm2-.6c0-1.4.7-2.3 1.9-2.3.6 0 1.1.3 1.4.8h.1V8.4h.9v6.3h-.9V14h-.1c-.3.5-.8.8-1.4.8-1.1 0-1.9-.9-1.9-2.4zm1 0c0 1 .5 1.5 1.2 1.5s1.2-.6 1.2-1.5-.5-1.5-1.2-1.5c-.8 0-1.2.6-1.2 1.5zm6.9 0c0-1.5.8-2.3 2.1-2.3s2.1.9 2.1 2.3c0 1.5-.8 2.3-2.1 2.3-1.3.1-2.1-.8-2.1-2.3zm3.4 0c0-1-.4-1.5-1.2-1.5-.8 0-1.2.6-1.2 1.5 0 1 .4 1.6 1.2 1.6.7 0 1.2-.6 1.2-1.6zm2.1-2.2h.9v.7h.1c.2-.5.7-.8 1.3-.8 1 0 1.6.6 1.6 1.7v2.9h-.9V12c0-.7-.3-1.1-1-1.1s-1.1.4-1.1 1.1v2.6h-.9v-4.4zm8.8-1.1v1.1h1v.8h-1v2.3c0 .5.2.7.6.7h.3v.7h-.5c-1 0-1.4-.3-1.4-1.2V11h-.7v-.7h.7V9.1h1zm2.2-.7h.9v2.5h.1c.2-.5.7-.8 1.4-.8 1 0 1.6.6 1.6 1.7v2.9h-.9V12c0-.7-.3-1.1-1-1.1s-1.1.5-1.1 1.1v2.6h-.9V8.4h-.1zm9.1 5.1c-.2.8-.9 1.3-2 1.3-1.3 0-2.1-.9-2.1-2.3s.8-2.4 2.1-2.4 2 .9 2 2.3v.3h-3.2c0 .8.5 1.3 1.2 1.3.5 0 .9-.2 1.1-.5h.9zm-3.2-1.5h2.3c0-.7-.5-1.2-1.1-1.2-.7.1-1.1.5-1.2 1.2z" fill="#000001"/></g><defs><clipPath id="clip0_2129_11174"><path fill="#fff" d="M0 0h120v40H0z"/></clipPath></defs></svg>