<svg width="375" height="100" fill="none" xmlns="http://www.w3.org/2000/svg"><path d="M586.499 17.875L546.546.57H213.869l-75.695 32.786h-603.556L-541.077.57H-750v51.892h972.607L329.99 98.974h501.332l107.383-46.512H1170V17.875H586.499z" fill="url(#paint0_radial_2129_773)"/><path d="M546.546.57H213.869l-57.692 24.966h195.711l107.383 46.511H776.63l107.383-46.511H1170v-7.66H586.499L546.546.57z" fill="url(#paint1_radial_2129_773)"/><path d="M832.269 100H329.043l-.737-.296-106.647-46.216H-750v-2.052h973.607L330.99 97.948h499.332l107.383-46.512H1170v2.052H939.653L832.269 100z" fill="url(#paint2_radial_2129_773)"/><path d="M138.701 33.926h-604.662L-541.656 1.14H-750V0h209.45l75.694 32.786h602.451L213.29 0h333.783l40.005 17.305H1170v1.14H585.973L546.02 1.14H214.395l-75.694 32.786z" fill="url(#paint3_radial_2129_773)"/><defs><radialGradient id="paint0_radial_2129_773" cx="0" cy="0" r="1" gradientUnits="userSpaceOnUse" gradientTransform="matrix(1109.71 0 0 488.454 335.501 123.794)"><stop stop-color="#7B8499"/><stop offset="1" stop-color="#151E28"/></radialGradient><radialGradient id="paint1_radial_2129_773" cx="0" cy="0" r="1" gradientUnits="userSpaceOnUse" gradientTransform="matrix(1436.02 0 0 459.493 -156.429 215.343)"><stop stop-color="#7B8499"/><stop offset="1" stop-color="#151E28"/></radialGradient><radialGradient id="paint2_radial_2129_773" cx="0" cy="0" r="1" gradientUnits="userSpaceOnUse" gradientTransform="matrix(866.149 0 0 772.515 209.99 113.635)"><stop stop-color="#B8BFC9"/><stop offset="1" stop-color="#151E28"/></radialGradient><radialGradient id="paint3_radial_2129_773" cx="0" cy="0" r="1" gradientUnits="userSpaceOnUse" gradientTransform="matrix(1011.41 0 0 438.078 209.99 16.962)"><stop stop-color="#3D4753"/><stop offset="1" stop-color="#0B1318"/></radialGradient></defs></svg>