<svg width="375" height="100" fill="none" xmlns="http://www.w3.org/2000/svg"><path d="M1179.5 17.875L1139.55.57H806.869l-75.695 32.786H127.618L51.923.57H-157v51.892h972.607L922.99 98.974h501.33l107.39-46.512H1763V17.875h-583.5z" fill="url(#paint0_radial_2129_1040)"/><path d="M1139.55.57H806.869l-57.692 24.966h195.711l107.382 46.511h317.36l107.38-46.511H1763v-7.66h-583.5L1139.55.57z" fill="url(#paint1_radial_2129_1040)"/><path d="M1425.27 100H922.043l-.737-.296-106.647-46.216H-157v-2.052h973.607L923.99 97.948h499.33l107.38-46.512H1763v2.052h-230.35L1425.27 100z" fill="url(#paint2_radial_2129_1040)"/><path d="M731.701 33.926H127.039L51.344 1.14H-157V0H52.45l75.694 32.786h602.451L806.29 0h333.78l40.01 17.305H1763v1.14h-584.03L1139.02 1.14H807.395l-75.694 32.786z" fill="url(#paint3_radial_2129_1040)"/><defs><radialGradient id="paint0_radial_2129_1040" cx="0" cy="0" r="1" gradientUnits="userSpaceOnUse" gradientTransform="matrix(1109.71 0 0 488.454 928.501 123.794)"><stop stop-color="#7B8499"/><stop offset="1" stop-color="#151E28"/></radialGradient><radialGradient id="paint1_radial_2129_1040" cx="0" cy="0" r="1" gradientUnits="userSpaceOnUse" gradientTransform="matrix(1436.02 0 0 459.493 436.571 215.343)"><stop stop-color="#7B8499"/><stop offset="1" stop-color="#151E28"/></radialGradient><radialGradient id="paint2_radial_2129_1040" cx="0" cy="0" r="1" gradientUnits="userSpaceOnUse" gradientTransform="matrix(866.149 0 0 772.515 802.99 113.635)"><stop stop-color="#B8BFC9"/><stop offset="1" stop-color="#151E28"/></radialGradient><radialGradient id="paint3_radial_2129_1040" cx="0" cy="0" r="1" gradientUnits="userSpaceOnUse" gradientTransform="matrix(1011.41 0 0 438.078 802.99 16.962)"><stop stop-color="#3D4753"/><stop offset="1" stop-color="#0B1318"/></radialGradient></defs></svg>