<svg width="375" height="100" fill="none" xmlns="http://www.w3.org/2000/svg"><path d="M697.499 17.875L657.546.57H324.869l-75.695 32.786h-603.556L-430.077.57H-639v51.892h972.607L440.99 98.974h501.332l107.388-46.512H1281V17.875H697.499z" fill="url(#paint0_radial_2129_11056)"/><path d="M657.546.57H324.869l-57.692 24.966h195.711l107.383 46.511H887.63l107.383-46.511H1281v-7.66H697.499L657.546.57z" fill="url(#paint1_radial_2129_11056)"/><path d="M943.269 100H440.043l-.737-.296-106.647-46.216H-639v-2.052h973.607L441.99 97.948h499.332L1048.7 51.436H1281v2.052h-230.35L943.269 100z" fill="url(#paint2_radial_2129_11056)"/><path d="M249.701 33.926h-604.662L-430.656 1.14H-639V0h209.45l75.694 32.786h602.451L324.29 0h333.783l40.005 17.305H1281v1.14H696.973L657.02 1.14H325.395l-75.694 32.786z" fill="url(#paint3_radial_2129_11056)"/><defs><radialGradient id="paint0_radial_2129_11056" cx="0" cy="0" r="1" gradientUnits="userSpaceOnUse" gradientTransform="matrix(1109.71 0 0 488.454 446.501 123.794)"><stop stop-color="#7B8499"/><stop offset="1" stop-color="#151E28"/></radialGradient><radialGradient id="paint1_radial_2129_11056" cx="0" cy="0" r="1" gradientUnits="userSpaceOnUse" gradientTransform="matrix(1436.02 0 0 459.493 -45.429 215.343)"><stop stop-color="#7B8499"/><stop offset="1" stop-color="#151E28"/></radialGradient><radialGradient id="paint2_radial_2129_11056" cx="0" cy="0" r="1" gradientUnits="userSpaceOnUse" gradientTransform="matrix(866.149 0 0 772.515 320.99 113.635)"><stop stop-color="#B8BFC9"/><stop offset="1" stop-color="#151E28"/></radialGradient><radialGradient id="paint3_radial_2129_11056" cx="0" cy="0" r="1" gradientUnits="userSpaceOnUse" gradientTransform="matrix(1011.41 0 0 438.078 320.99 16.962)"><stop stop-color="#3D4753"/><stop offset="1" stop-color="#0B1318"/></radialGradient></defs></svg>