<svg width="18" height="18" fill="none" xmlns="http://www.w3.org/2000/svg"><mask id="mask0_2129_11547" style="mask-type:alpha" maskUnits="userSpaceOnUse" x="0" y="0" width="18" height="18"><circle cx="9" cy="9" r="9" fill="#D9D9D9"/></mask><g mask="url(#mask0_2129_11547)"><path d="M34.3 6.5H0v1.6h34.3V6.5zm0-3.2H0v1.6h34.3V3.3zm0-3.3H0v1.6h34.3V0zm0 9.8H0v1.6h34.3V9.8zm0 3.2H0v1.6h34.3V13zm0 3.3H0v1.6h34.3v-1.6zm0 3.3H0v1.6h34.3v-1.6z" fill="#DB2E2E"/><path d="M34.3 4.9H0v1.6h34.3V4.9zm0-3.3H0v1.6h34.3V1.6zm0 6.6H0v1.6h34.3V8.2zm0 3.2H0V13h34.3v-1.6zm0 3.3H0v1.6h34.3v-1.6zm0 3.2H0v1.6h34.3v-1.6z" fill="#fff"/><path d="M12.8.1H0V10h12.8V.1z" fill="#2E4593"/><path d="M10.7 2l.1.4-.3-.2-.3.2.1-.4-.3-.2h.4l.1-.4.1.4h.4l-.3.2zm0 2l.1.4-.3-.3-.3.3.1-.4-.3-.2h.4l.1-.4.1.4h.4l-.3.2zm0 2l.1.4-.3-.3-.3.3.1-.4-.3-.2h.4l.1-.4.1.4h.4l-.3.2zm0 2l.1.4-.3-.3-.3.3.1-.4-.3-.2h.4l.1-.4.1.4h.4l-.3.2zM8.6 2l.1.4-.3-.2-.3.2.1-.4-.3-.2h.4l.1-.4.1.4h.4l-.3.2zm0 2l.1.4-.3-.3-.3.3.1-.4-.3-.2h.4l.1-.4.1.4h.4l-.3.2zm0 2l.1.4-.3-.3-.3.3.1-.4-.3-.2h.4l.1-.4.1.4h.4l-.3.2zm0 2l.1.4-.3-.3-.3.3.1-.4-.3-.2h.4l.1-.4.1.4h.4l-.3.2zM6.5 2l.1.4-.3-.2-.3.2.1-.4-.3-.2h.4l.1-.4.1.4h.4l-.3.2zm0 2l.1.4-.3-.3-.3.3.1-.4-.3-.2h.4l.1-.4.1.4h.4l-.3.2zm0 2l.1.4-.3-.3-.3.3.1-.4-.3-.2h.4l.1-.4.1.4h.4l-.3.2zm0 2l.1.4-.3-.3-.3.3.1-.4-.3-.2h.4l.1-.4.1.4h.4l-.3.2zM4.4 2l.1.4-.3-.2-.3.2L4 2l-.3-.2h.4l.1-.4.1.4h.4l-.3.2zm0 2l.1.4-.3-.3-.3.3L4 4l-.3-.2h.4l.1-.4.1.4h.4l-.3.2zm0 2l.1.4-.3-.3-.3.3L4 6l-.3-.2h.4l.1-.4.1.4h.4l-.3.2zm0 2l.1.4-.3-.3-.3.3L4 8l-.3-.2h.4l.1-.4.1.4h.4l-.3.2zM2.3 2l.1.4-.3-.2-.3.2.1-.4-.3-.2H2l.1-.4.1.4h.4l-.3.2zm0 2l.1.4-.3-.3-.3.3.1-.4-.3-.2H2l.1-.4.1.4h.4l-.3.2zm0 2l.1.4-.3-.3-.3.3.1-.4-.3-.2H2l.1-.4.1.4h.4l-.3.2zm0 2l.1.4-.3-.3-.3.3.1-.4-.3-.2H2l.1-.4.1.4h.4l-.3.2zm9.4-5l.2.4-.4-.2-.3.2.2-.4-.4-.2h.4l.1-.4.2.4h.4l-.4.2zm0 2l.2.4-.4-.3-.3.3.2-.4-.4-.2h.4l.1-.4.2.4h.4l-.4.2zm0 2l.2.4-.4-.3-.3.3.2-.4-.4-.2h.4l.1-.4.2.4h.4l-.4.2zm0 2l.2.4-.4-.3-.3.3.2-.4-.4-.2h.4l.1-.4.2.4h.4l-.4.2zm0-8l.2.4-.4-.2-.3.2.2-.4-.4-.2h.4l.1-.4.2.4h.4l-.4.2zm-2 2l.1.4-.3-.2-.3.2.1-.4-.3-.2h.4l.1-.4.1.4h.4l-.3.2zm0 2l.1.4-.3-.3-.3.3.1-.4-.3-.2h.4l.1-.4.1.4h.4l-.3.2zm0 2l.1.4-.3-.3-.3.3.1-.4-.3-.2h.4l.1-.4.1.4h.4l-.3.2zm0 2l.1.4-.3-.3-.3.3.1-.4-.3-.2h.4l.1-.4.1.4h.4l-.3.2zm0-8l.1.4-.3-.2-.3.2.1-.4L9 .8h.4l.1-.4.1.4h.4l-.3.2zM7.5 3l.1.4-.3-.2-.3.2.1-.4-.3-.2h.4l.1-.4.1.4h.4l-.3.2zm0 2l.1.4-.3-.3-.3.3.1-.4-.3-.2h.4l.1-.4.1.4h.4l-.3.2zm0 2l.1.4-.3-.3-.3.3.1-.4-.3-.2h.4l.1-.4.1.4h.4l-.3.2zm0 2l.1.4-.3-.3-.3.3.1-.4-.3-.2h.4l.1-.4.1.4h.4l-.3.2zm0-8l.1.4-.3-.2-.3.2.1-.4-.3-.2h.4l.1-.4.1.4h.4l-.3.2zM5.4 3l.1.4-.3-.2-.3.2L5 3l-.3-.2h.4l.1-.4.1.4h.4l-.3.2zm0 2l.1.4-.3-.3-.3.3L5 5l-.3-.2h.4l.1-.4.1.4h.4l-.3.2zm0 2l.1.4-.3-.3-.3.3L5 7l-.3-.2h.4l.1-.4.1.4h.4l-.3.2zm0 2l.1.4-.3-.3-.3.3L5 9l-.3-.2h.4l.1-.4.1.4h.4l-.3.2zm0-8l.1.4-.3-.2-.3.2L5 1 4.7.8h.4l.1-.4.1.4h.4l-.3.2zM3.3 3l.2.4-.4-.2-.3.2L3 3l-.4-.2H3l.1-.4.2.4h.4l-.4.2zm0 2l.2.4-.4-.3-.3.3L3 5l-.4-.2H3l.1-.4.2.4h.4l-.4.2zm0 2l.2.4-.4-.3-.3.3L3 7l-.4-.2H3l.1-.4.2.4h.4l-.4.2zm0 2l.2.4-.4-.3-.3.3L3 9l-.4-.2H3l.1-.4.2.4h.4l-.4.2zm0-8l.2.4-.4-.2-.3.2L3 1 2.6.8H3l.1-.4.2.4h.4l-.4.2zM1.2 3l.2.4-.3-.2-.1-.1v.1l-.3.2.2-.4-.4-.2h.4l.1-.4.2.4h.4l-.4.2zm0 2l.2.4-.3-.3H1l-.3.3.2-.4-.4-.2h.4l.1-.4.2.4h.4l-.4.2zm0 2l.2.4-.3-.3H1l-.3.3.2-.4-.4-.2h.4l.1-.4.2.4h.4l-.4.2zm0 2l.2.4-.3-.3H1l-.3.3.2-.4-.4-.2h.4l.1-.4.2.4h.4l-.4.2zm0-8l.2.4-.3-.2H1l-.3.2.2-.4L.5.8h.4L1 .4l.2.4h.4l-.4.2z" fill="#fff"/></g></svg>