<svg width="18" height="18" fill="none" xmlns="http://www.w3.org/2000/svg"><mask id="mask0_2129_11577" style="mask-type:alpha" maskUnits="userSpaceOnUse" x="0" y="0" width="18" height="18"><circle cx="9" cy="9" r="9" fill="#D9D9D9"/></mask><g mask="url(#mask0_2129_11577)"><path d="M29 0H0v18h29V0z" fill="#F42525"/><path d="M5.922 5.081l.784 2.153-1.83-1.378-1.915 1.378.784-2.153L1.829 3.79H4.18l.61-2.239.696 2.24h2.439L5.922 5.08zm5.225 2.239l.087-.43.174.43-.087.431-.174-.43z" fill="#fff"/><path d="M11.408 7.32h.523l-.435.259h-.436l.348-.258z" fill="#fff"/><path d="M11.495 7.579l.175.43-.349-.258-.174-.43.348.258z" fill="#fff"/><path d="M11.147 7.32h-.522l.435.259h.435l-.348-.258z" fill="#fff"/><path d="M11.06 7.579l-.174.43.435-.258.087-.43-.348.258zM8.97 9.56l.261-.43v.516l-.261.344v-.43z" fill="#fff"/><path d="M9.231 9.646l.436.172-.436.086-.435-.086.435-.172z" fill="#fff"/><path d="M9.231 9.904v.517l-.261-.43V9.56l.261.344z" fill="#fff"/><path d="M8.97 9.56l-.435-.086.26.344.436.086-.261-.344z" fill="#fff"/><path d="M8.796 9.818l-.261.345.435-.173.261-.344-.435.172zm2.961-5.34l.348-.258-.174.43-.348.26.174-.432z" fill="#fff"/><path d="M11.93 4.65l.436.26h-.522l-.348-.26h.435z" fill="#fff"/><path d="M11.844 4.91l-.087.516-.174-.43.087-.431.174.344z" fill="#fff"/><path d="M11.757 4.478l-.436-.258.175.43.348.26-.087-.432z" fill="#fff"/><path d="M11.495 4.65l-.348.345.436-.086.348-.258h-.435zm-1.132-2.755l.262-.43v.516l-.262.344v-.43z" fill="#fff"/><path d="M10.625 1.98l.435.087-.435.172-.436-.172.436-.086z" fill="#fff"/><path d="M10.625 2.24v.516l-.262-.43v-.431l.262.344z" fill="#fff"/><path d="M10.363 1.895l-.435-.173.261.431.436.086-.262-.344z" fill="#fff"/><path d="M10.19 2.153l-.262.345.435-.173.262-.344-.436.172z" fill="#fff"/></g></svg>