<svg width="346" height="127" fill="none" xmlns="http://www.w3.org/2000/svg"><path fill-rule="evenodd" clip-rule="evenodd" d="M25.102 54.81l44.164-22.488h96.978l35.975-20.03 118.679.217.403 76.312-48.862 26.248-198.475-.072-48.862-15.836V54.81z" fill="#0D2021" fill-opacity=".5"/><path d="M23.223 53.797l44.163-22.56.806-.434h96.978l35.17-19.595.805-.434h1.208l118.813.217h2.685v1.446l.269 76.312v.578l-50.607 27.261-200.22-.073-51.01-16.486V54.231l.94-.434zM70.34 33.769L27.787 55.461v42.905l46.982 15.185 196.462.072 47.251-25.453-.269-74.287-114.92-.217-35.17 19.524-.806.433h-1.208l-95.77.145z" fill="#02F7EA" fill-opacity=".3"/><path d="M160.471 21.186L197.521.651l.805-.434h36.781v2.965h-34.499l-37.049 20.535-.806.434h-23.357v-2.965h21.075zM297.541.216v2.966h-43.104V.217h43.104zM346 0v16.486h-5.504V2.965h-24.699V0H346zm0 70.6h-5.504V23.79H346V70.6zm0 10.05v14.896L287.607 127h-28.995v-2.965h26.713l55.037-29.646v-14.39h5.504v.651H346zM111.953 127v-2.965h124.376V127H111.953zm-22.552 0H58.795l-.268-.072-.403-.145-56.782-18.439L0 107.911V89.906h5.504v16.269l54.902 17.788h30.337v2.965h-1.342V127zM.134 50.544l.806-.434 56.78-28.49.806-.434h30.74v2.965H60.809L5.772 51.845v14.317H.134V50.544z" fill="#02F7EA" fill-opacity=".3"/></svg>