<svg width="167" height="46" fill="none" xmlns="http://www.w3.org/2000/svg"><path d="M1.463 1.819l1.83-1.65.033-.048.1-.073h.2L28.836 0h.233l.1.073.033.048L31.1 1.65h17.13l.133.097 1.396 1.067h7.318l1.996-1.116.1-.072h106.531l.133.097 1.031.727.133.097v.146l-.1 41.732v.145l-.133.097-1.763 1.213-.133.097H35.423l-.1-.049-.033-.024-1.763-1.14H16.73L15.4 45.88l-.033.048-.1.073h-4.723v-.533H9.28V46H7.617v-.51h-.699V46H1.663l-.133-.097-1.364-.946-.133-.097L0 18.526l.1-.097.066-.024.765-.46-.066-6.209v-.34h.964V8.39H.898V6.62h.532l-.033-4.607V1.89l.066-.048v-.024zM3.858.703L2.295 2.158l.033 4.801v.34h-.532v.412h.931v4.365h-.964l.066 6.038v.145l-.1.073-.066.024-.765.461.033 25.752 1.098.752h3.958v-.51h2.362v-.048h3.126v.534h3.36l1.33-1.116.033-.048H33.86l.1.048.033.025 1.763 1.14h128.749l1.497-1.043.1-41.466-.765-.533H59.504l-1.996 1.115-.1.073H49.36l-.133-.097-1.397-1.067H30.667l-.1-.073-.033-.048L28.638.679 3.858.703z" fill="#68E1FC"/></svg>