<svg width="20" height="20" fill="none" xmlns="http://www.w3.org/2000/svg"><g clip-path="url(#clip0_0_12726)"><path d="M0 15a2.222 2.222 0 002.222 2.222h15.556A2.222 2.222 0 0020 15v-2.222H0V15z" fill="#CF142B"/><path d="M0 12.778h20V7.222H0v5.556zm14.064-1.973l.15.412.437-.015-.344.27.15.41-.364-.244-.344.27.12-.421-.362-.245.437-.015.12-.421zm-.675-.925l.405-.163-.231.37.28.335-.424-.105-.231.37-.03-.436-.425-.105.405-.164-.03-.436.28.335zm-1.611-1.19l.379.219.325-.293-.091.428.378.219-.435.045-.09.428-.178-.4-.435.046.325-.293-.178-.4zm-1.112-.274l.205-.386.061.433.43.076-.392.191.061.433-.304-.314-.394.191.206-.386-.304-.314.43.076zm-1.598.047l.061-.433.206.386.43-.076-.303.314.205.386-.393-.191-.303.314.06-.433-.392-.191.43-.076zm-1.55.153l.326.293.378-.22-.178.4.325.293-.435-.046-.177.4-.091-.428-.435-.045.378-.22-.09-.427zM6.207 9.717l.405.163.281-.335-.03.437.405.164-.424.105-.03.436-.232-.37-.425.105.281-.335-.231-.37zm-.42 1.5l.149-.412.12.42.438.016-.363.244.12.42-.344-.269-.363.245.15-.412-.345-.27.438.017z" fill="#00247D"/><path d="M17.778 2.778H2.222A2.222 2.222 0 000 5v2.222h20V5a2.222 2.222 0 00-2.222-2.222z" fill="#FC0"/><path d="M10.333 9.04l.393-.192.304.314-.061-.433.393-.191-.43-.076-.062-.433-.205.386-.43-.076.303.314-.205.386zm1.732.295l.178.4.09-.428.436-.046-.379-.218.09-.428-.324.292-.379-.218.178.4-.325.292.435-.046zm.668.81l.424.106.03.436.232-.37.424.105-.281-.335.232-.37-.405.163-.281-.335.03.437-.405.164zm1.136 1.34l-.12.42.345-.268.362.244-.15-.411.345-.269-.437.015-.15-.41-.12.42-.437.015.362.245zm-4.9-2.323l.305-.314.392.191-.205-.386.304-.314-.43.076-.206-.386-.06.433-.431.076.393.191-.061.433zm-1.303.145l.09.427.178-.4.435.047-.325-.293.178-.4-.378.22-.325-.293.09.428-.378.218.435.046zm-1.086 1.01l.232.37.03-.436.425-.105-.406-.164.031-.437-.281.335-.406-.163.233.37-.282.335.424-.105zM5.544 11.88l.362-.244.345.268-.12-.42.362-.244-.437-.015-.12-.42-.15.41-.437-.015.344.269-.15.411z" fill="#fff"/></g><defs><clipPath id="clip0_0_12726"><path fill="#fff" d="M0 0h20v20H0z"/></clipPath></defs></svg>