<svg width="20" height="20" fill="none" xmlns="http://www.w3.org/2000/svg"><g clip-path="url(#clip0_0_12942)"><path d="M17.778 2.778H2.222A2.222 2.222 0 000 5v10a2.222 2.222 0 002.222 2.222h15.556A2.222 2.222 0 0020 15V5a2.222 2.222 0 00-2.222-2.222z" fill="#009E49"/><path d="M1.004 3.141a2.21 2.21 0 00-.244.186v13.346c.077.068.159.13.245.186L20 10 1.004 3.142z" fill="#fff"/><path d="M1.76 15.951L18.055 10 1.76 4.049V15.95z" fill="#FCD116"/><path d="M10 10L1.76 4.049l-1-.722c-.172.15-.32.327-.44.523l.01 12.292c.12.197.258.38.43.53l1-.722L10 10z" fill="#141414"/><path d="M.32 3.85v.001c-.21.347-.32.744-.32 1.15v10c0 .42.127.806.33 1.142L8.889 10 .32 3.85z" fill="#CE1126"/></g><defs><clipPath id="clip0_0_12942"><path fill="#fff" d="M0 0h20v20H0z"/></clipPath></defs></svg>