<svg width="20" height="20" fill="none" xmlns="http://www.w3.org/2000/svg"><g clip-path="url(#clip0_0_12914)"><path d="M17.778 2.778H2.222a2.23 2.23 0 00-.335.025l-.003.974-1.516-.002C.128 4.138-.001 4.565 0 5v10a2.222 2.222 0 002.222 2.222h15.556A2.222 2.222 0 0020 15V5a2.222 2.222 0 00-2.222-2.222z" fill="#CF1B2B"/><path d="M12.546 6.992v5.037c0 .355.081.842.729 1.143.551.256 1.374.551 1.748.788.209.131.532.354.532.354s.324-.222.533-.354c.374-.237 1.138-.532 1.69-.788.648-.301.729-.788.729-1.143V6.992h-5.961z" fill="#000"/><path d="M12.838 11.918c.004.33.089.825.682 1.1.516.24 1.187.516 1.537.738.196.123.499.332.499.332s.302-.209.497-.332c.351-.222 1.024-.498 1.54-.738.593-.275.678-.77.682-1.1h-5.437z" fill="#2E8F22"/><path d="M12.838 7.281h5.437v4.688h-5.437V7.281z" fill="#fff"/><path d="M17.701 11.32c-.039-.217 0-.552-.059-.65-.059-.099-.61-.296-1.005-.257-.393.04-.118-.492.158-.63s.532-.256.571-.413c.04-.158-.099-.277-.335-.237-.236.04-.374.04-.513.177-.137.138-.157-.02-.216-.177s.039-.217.06-.375c.019-.157-.02-.59-.14-.768-.117-.177-.056-.295-.253-.394-.197-.099-.412-.177-.412-.177s-.217.079-.414.177c-.197.1-.138.217-.256.394-.118.177-.158.611-.138.768.02.158.118.218.06.375-.06.158-.08.315-.217.177-.139-.138-.276-.138-.513-.177-.236-.04-.375.079-.335.237.039.157.295.275.571.413.276.138.551.67.158.63-.395-.039-.946.158-1.005.256-.059.1-.02.434-.059.651-.04.217-.138.394-.04.354.1-.038.552-.196.77-.354.216-.158.472.63.374.827-.1.197-.118.335-.276.256-.158-.079-.394.04-.473.198-.079.157.098.255.296.393.196.138.432-.138.531-.276.099-.138.965-.57.965-.57s.866.432.964.57c.098.138.334.414.531.276.197-.138.374-.236.295-.393-.08-.158-.315-.277-.473-.198-.158.08-.177-.06-.277-.256-.098-.196.158-.985.375-.827.217.158.67.315.768.354.1.04.002-.137-.038-.354z" fill="#CF1B2B"/><path d="M17.147 10.217s.06.137.138.137c.078 0 .217-.176.099-.314s-.217-.197-.157-.315c.058-.118-.1-.316-.1-.316-.078.118-.295.296-.67.06-.374-.237-.67-.277-.728-.139h-.348c-.059-.137-.355-.098-.73.138-.374.236-.59.06-.67-.059 0 0-.156.198-.098.316.06.118-.04.177-.157.315-.119.138.02.314.098.314.08 0 .138-.137.138-.137s.256.216.237.512c-.02.295-.414.57-.414.57.118.138.118.336.237.69.117.355.531.256.531.256.02.217.395.434.532.434.138 0 .177.118.177.118s-.157.098-.079.177c.074.074.339-.026.372-.038.032.012.297.112.37.038.08-.08-.078-.177-.078-.177s.039-.118.177-.118c.137 0 .512-.217.532-.434 0 0 .413.099.531-.256.119-.355.119-.552.237-.69 0 0-.394-.275-.414-.57-.018-.296.237-.512.237-.512z" fill="#FFE000"/><path d="M17.388 10.059c-.118-.138-.217-.197-.158-.315.06-.118-.079-.197-.079-.197-.078.119-.407.287-.689.119-.295-.178-.374-.139-.453-.178 0 0 .049.137-.059.178a.163.163 0 01-.217-.08h-.354s-.06.138-.217.08c-.107-.041-.059-.178-.059-.178-.08.04-.158 0-.453.178-.281.168-.61 0-.69-.119 0 0-.138.08-.078.197.059.118-.04.177-.158.315s.059.02.138.02c.079 0 .276.138.276.138s.217.157.197.532c-.016.295-.454.59-.454.59.118.139.236.631.236.631.119.257 2.676-.926 2.66-1.221-.02-.375.197-.532.197-.532s.197-.139.276-.139c.079 0 .256.119.138-.02z" fill="#64B4D1"/><path d="M16.776 10.749a.858.858 0 01.005-.143.573.573 0 01-.438-.173c-.079-.098-.177-.098-.354 0-.178.1-.178.374-.178.374v.04l1.084.709.312-.187a.396.396 0 01.023-.03s-.437-.295-.454-.59z" fill="#CCC"/><path d="M14.256 9.941l.138 1.458.63.473.65-.533-.138-.413-.079-.532-.236-.157-.197-.394-.256-.02-.138.098s-.118-.079-.118-.059c0 .02-.099.119-.099.119l-.157-.04z" fill="#E4CB5E"/><path d="M15.358 10l.237-.059.335.591.335-.04.059.158-.906.296v-.237l.04-.078-.1-.63z" fill="#000"/><path d="M14.729 10.197l.098 1.419.099-.06s-.138-1.162-.119-1.143c.02.02.296 1.005.296 1.005l.118.04-.335-1.222.532.926.098-.237-.55-.748-.159-.197-.079.217z" fill="#000"/><path d="M15.398 10.807l.887-.196.394.59-.158.453s-.67.335-.689.355c-.02.02-.65-.06-.65-.06l.216-1.142z" fill="#9F5A2B"/><path d="M16.423 12.069s.04-.119.158-.1c.117.02.078.158.078.158s.217.1.335-.157a.154.154 0 00.02-.039c.07-.213.099-.453.216-.592l-.029-.02c-.104.042-.187.1-.187.1s0-.177-.197-.217c-.197-.04-.394.256-.394.256-.079-.236-.394 0-.532.217-.137.217-.473.158-.473.158l-.06-.119s.02-.196-.137-.295c-.158-.099-.394.138-.394.138.059-.257-.217-.218-.275-.177-.06.039-.158-.099-.296-.138-.103-.03-.196.195-.243.383.028.099.052.205.085.307a.158.158 0 00.02.038c.118.257.335.158.335.158s-.04-.138.079-.158c.118-.019.157.1.157.1s.138-.04.178.078c.038.119-.138.158-.138.158-.02.039.098.217.508.308a.419.419 0 01.122.164v.176h.394v-.176s.043-.108.122-.165c.41-.091.528-.269.508-.308 0 0-.176-.04-.137-.158.039-.118.177-.078.177-.078z" fill="#CCC"/><path d="M15.28 7.813l.197.099-.04.078-.196-.039.039-.138zm.532 0l-.197.099.039.078.197-.039-.04-.138z" fill="#fff"/><path d="M15.97 8.069l.038-.138-.176.178-.08.098-.098-.098-.099.098-.098-.098-.099.098-.079-.098-.176-.178.039.138-.198.138.178-.079.098.04.099.098.138-.039.098.118.099-.118.138.04.098-.1.099-.039.178.08-.198-.14z" fill="#000"/><path d="M10.556 10V2.778H2.222c-.178 0-.335.025-.335.025l-.003.974-1.516-.002s-.024.033-.07.114A2.216 2.216 0 000 5v5h10.556z" fill="#00247D"/><path d="M10.556 2.778H9.26L6.667 4.594V2.778H3.889v1.427L1.887 2.803a2.19 2.19 0 00-.93.37L3.57 5h-.964L.537 3.55a2.306 2.306 0 00-.17.225L2.119 5H0v2.778h2.158L0 9.315V10h1.851L3.89 8.573V10h2.778V8.184L9.26 10h1.296V8.873L8.992 7.778h1.564V5H8.992l1.564-1.095V2.778z" fill="#EEE"/><path d="M6.111 2.778H4.444v2.778H0v1.666h4.444V10h1.667V7.222h4.445V5.556H6.11V2.778z" fill="#CF1B2B"/><path d="M10.556 2.778h-.812L6.667 4.933V5h.873l3.016-2.112v-.11zm-9.598.394a2.251 2.251 0 00-.42.379L2.606 5h.964L.958 3.172zm2.619 4.606L.408 10h.96l2.521-1.765v-.457h-.312zm6.979 2.112v-.678L8.508 7.778h-.969l3.017 2.112z" fill="#CF1B2B"/></g><defs><clipPath id="clip0_0_12914"><path fill="#fff" d="M0 0h20v20H0z"/></clipPath></defs></svg>