<svg width="20" height="20" fill="none" xmlns="http://www.w3.org/2000/svg"><g clip-path="url(#clip0_0_13059)"><path d="M.638 3.442C.228 3.857-.001 4.417 0 5v10a2.222 2.222 0 002.222 2.222h11.661L.638 3.442zm17.14-.664H6.117l13.245 13.78c.41-.415.639-.975.638-1.558V5a2.222 2.222 0 00-2.222-2.222z" fill="#CE1126"/><path d="M1.24 3.007a2.19 2.19 0 00-.601.435l13.245 13.78h1.02L1.238 3.007zm4.877-.23h-1.02l13.664 14.216c.224-.11.428-.258.601-.435L6.117 2.778z" fill="#EEE"/><path d="M2.222 2.778c-.353 0-.687.082-.983.229l13.664 14.215h2.875c.352 0 .686-.082.982-.228L5.098 2.777H2.222z" fill="#141414"/></g><defs><clipPath id="clip0_0_13059"><path fill="#fff" d="M0 0h20v20H0z"/></clipPath></defs></svg>