<svg width="20" height="20" fill="none" xmlns="http://www.w3.org/2000/svg"><g clip-path="url(#clip0_0_12905)"><path d="M0 15a2.222 2.222 0 002.222 2.222h15.556A2.222 2.222 0 0020 15v-.556H0V15z" fill="#377E3F"/><path d="M0 12.778h20v1.666H0v-1.666z" fill="#EEE"/><path d="M17.778 2.778H2.222A2.222 2.222 0 000 5v.556h20V5a2.222 2.222 0 00-2.222-2.222z" fill="#377E3F"/><path d="M0 5.556h20v1.666H0V5.556z" fill="#EEE"/><path d="M0 12.778h20V7.222H0v5.556zm9.352-3.395L10 7.387l.648 1.996h2.1l-1.7 1.234.65 1.996L10 11.38l-1.698 1.234.649-1.996-1.699-1.234h2.1z" fill="#B40A2D"/><path d="M8.302 12.613L10 11.379l1.698 1.234-.648-1.996 1.697-1.234H10.65L10 7.387l-.648 1.996h-2.1l1.699 1.234-.649 1.996z" fill="#ECC81D"/></g><defs><clipPath id="clip0_0_12905"><path fill="#fff" d="M0 0h20v20H0z"/></clipPath></defs></svg>