<svg width="20" height="20" fill="none" xmlns="http://www.w3.org/2000/svg"><g clip-path="url(#clip0_0_12884)"><path d="M17.778 2.778H2.222a2.23 2.23 0 00-.335.025l-.003.974-1.516-.002C.128 4.138-.001 4.565 0 5v10a2.222 2.222 0 002.222 2.222h15.556A2.222 2.222 0 0020 15V5a2.222 2.222 0 00-2.222-2.222z" fill="#00247D"/><path d="M18.745 12.622c-.155.023-.22.245-.287.378 0 0-.155.133-.4.111l.223-.356c.111-.177.045-.4-.11-.422-.156-.022-.178-.111-.378-.289-.2-.177-.556-.2-.623-.044-.066.155-.378.267-.333.489.044.222.155.511.266.689 0 0-.525.333-.948.489-.422.155-.729.178-.729.178s-.443-.023-.866-.178c-.422-.156-.824-.49-.824-.49.11-.177.222-.466.267-.688.044-.222-.267-.334-.334-.489-.066-.155-.422-.133-.622.044-.2.178-.222.267-.378.29-.155.021-.223.243-.111.421l.22.356a.572.572 0 01-.4-.111c-.066-.133-.135-.355-.291-.378-.155-.022-.159.133-.137.29.023.155.125.444.192.621.066.178.183.2.428.245.245.044.613-.155.613-.155.867.844 2.115.822 2.115.822s1.37.022 2.236-.822c0 0 .43.2.674.155.245-.045.393-.067.459-.245.067-.177.186-.466.208-.621.023-.157.026-.312-.13-.29z" fill="#F9D050"/><path d="M18.66 13.51s.177-.532.221-.71c.045-.178-.133-.245-.266-.134-.133.112-.334.756-.334.756s.067-.133.2-.112c.134.023.179.2.179.2zm-1.068-.821s.245-.29.267-.467c.022-.178-.222-.4-.4-.378-.178.022-.312.155-.267.31.045.156.2.468.2.468s0-.044.09-.044c.088 0 .11.11.11.11zm-5.411.822s-.178-.533-.223-.712c-.044-.177.133-.244.267-.133.133.112.334.756.334.756s-.067-.133-.2-.112c-.134.023-.178.2-.178.2zm1.066-.822s-.244-.29-.266-.467c-.022-.178.222-.4.4-.378.178.022.311.155.266.31-.044.156-.2.468-.2.468s0-.044-.088-.044c-.09 0-.112.11-.112.11z" fill="#DB1C1C"/><path d="M15.426 8.799H13.63v1.627h3.889V8.798h-2.094z" fill="#CF1B2B"/><path d="M16.817 12.977a3.178 3.178 0 00.703-2.022v-.826c-.119-.002-.247-.013-.28-.004-.204.059-.239.274-.487.274-.289 0-.368-.289-.657-.289-.289 0-.383.289-.672.289-.244 0-.448-.289-.67-.289-.222 0-.468.289-.668.289-.177 0-.293-.225-.455-.278l.001.834c0 .664.135 1.192.293 1.59.091.232.346.58.392.616 0 0 .525.114.83.65 0 0 .054.039.285.039.232 0 .282-.052.282-.052.304-.555.826-.483 1.103-.821z" fill="#fff"/><path d="M14.017 11.6c.266 0 .6-.244.777-.244.178 0 .334.244.578.244.245 0 .556-.244.711-.244.156 0 .4.244.644.244s.333-.244.555-.244a.94.94 0 01.211.032c.023-.145.034-.387.026-.614-.092-.002-.157-.006-.202-.006-.026 0-.059-.005-.096.008-.189.066-.228.268-.47.268-.288 0-.367-.288-.656-.288-.29 0-.384.288-.673.288-.244 0-.447-.288-.67-.288-.222 0-.468.288-.668.288-.137 0-.237-.136-.35-.22a.318.318 0 00-.104-.052c-.013.307.017.612.017.612.11.064.16.216.37.216zm2.091 1.311c-.286 0-.377.28-.658.287-.281-.006-.373-.287-.659-.287-.193 0-.347.165-.475.25.148.094.364.154.646.363.201.15.488.165.488.165s.287-.016.488-.165c.282-.21.498-.269.646-.363-.128-.085-.282-.25-.476-.25zm1.284-1.178c-.311 0-.288.289-.576.289-.29 0-.356-.29-.644-.29-.29 0-.379.29-.667.29-.245 0-.445-.29-.667-.29-.222 0-.467.29-.666.29-.153 0-.318-.168-.477-.249 0 0 .078.464.225.764a.48.48 0 00.184.04c.267 0 .6-.244.778-.244.178 0 .333.244.578.244.244 0 .555-.244.71-.244.156 0 .4.244.645.244.158 0 .266-.106.373-.179a2.66 2.66 0 00.241-.663.421.421 0 00-.037-.002z" fill="#0B50A0"/><path d="M14.356 11.019l.197-.67.203.668.699-.02-.573.4.234.659-.557-.423-.554.428.229-.66-.577-.396.7.014zm2.045 0l.197-.67.203.668.699-.02-.574.4.235.659-.558-.423-.553.428.229-.66-.577-.396.7.014z" fill="#059334"/><path d="M15.38 12.219l.196-.671.203.67.699-.02-.574.4.235.658-.557-.421-.555.426.23-.66-.577-.396.7.014z" fill="#059334"/><path d="M13.991 8.943c.14-.114.267.067.29.178.022.111.155.267.288.267 0 0 .09-.267.156-.4.067-.134.245-.178.356-.134.111.045.311.023.29.223-.023.2-.09.289-.09.289s.4.022.578 0c.178-.023.378-.134.512-.067.132.067.333.089.4.044.066-.044.11-.177-.045-.155-.155.023-.289.023-.422.045-.133.021-.711.044-.711-.134 0-.177.222-.2.266-.177.045.022.378-.223.445-.111.067.11.067.244-.133.244s-.49-.044-.49.022c0 .067.09.111.223.111s.355-.089.51-.089c.156 0 .379-.177.512-.066.133.11.244.266.133.333-.11.067-.511.089-.645.067 0 0 .156.089.29.11.133.024.4.068.378.2-.023.134.044.312-.133.29-.178-.022-.156-.111-.111-.178.044-.067-.067-.133-.267-.111-.2.022-.444-.089-.444-.089s-.067.178.022.222c0 0-.267.111-.422.134-.156.022-.311.089-.311 0 0-.09.11-.223.2-.178.088.044.244-.023.29-.023.043 0-.157-.133-.046-.178.111-.044-.088-.066-.2 0-.11.067-.777.245-1 .334-.222.089-.422.066-.511.11-.089.045-.266-.066-.178-.177.09-.111.133-.178.2-.111.067.066.178.044.334 0 .155-.045-.089-.09-.133-.134-.045-.044-.223-.31-.223-.377-.002-.067-.402-.134-.158-.334zm.824-1.677c-.133-.2-.533-.467-.533-.467l.377.112s-.177-.245-.377-.29c.044 0 .4.045.51.134 0 0-.31-.356-.466-.422 0 0 .378.11.511.244l-.155-.333s.289.133.377.311c0 0-.088-.356-.266-.533 0 0 .267.156.357.289l.065-.318.196.177.134-.247.157.255.27-.28s-.067.218-.09.418c0 0 .111-.18.356-.27 0 0-.311.477-.356.655 0 0 .445-.44.734-.551 0 0-.4.47-.511.647 0 0 .333-.288.643-.376 0 0-.4.422-.466.511 0 0 .222-.089.51-.066 0 0-.665.377-.82.51-.157.134-1.157-.11-1.157-.11z" fill="#F9D050"/><path d="M14.499 8.247c-.24.044-.306.175-.284.306a.24.24 0 00.327.174c.153-.065.223-.097.284-.109.149-.027.35-.087.35-.087s.24.044.372 0c0 0 .24.11.436.022 0 0 .48.218.7.131.217-.087.04-.38-.066-.415-.197-.066-.678-.131-1.05-.153-.37-.022-1.07.13-1.07.13z" fill="#fff"/><path d="M16.637 8.266a2.591 2.591 0 00-.364-.08s.03.124.053.257c.015.09.02.189.068.244.1.035.21.035.31 0 .222-.088.04-.385-.067-.421zm-1.302-.152c.069.08.11.29.206.42.035.022.255.12.442.025.02-.037-.155-.428-.155-.428a5.438 5.438 0 00-.493-.017zm-.478.498c.034.02.302-.058.302-.077-.003-.035-.033-.083-.077-.18a.708.708 0 00-.134-.197 9.15 9.15 0 00-.454.082.976.976 0 00.364.372z" fill="#073163"/><path d="M13.77 7.355s.067-.245.356-.245.156.178.489.2c.334.022 1.512.178 1.689.267.178.089.4.066.511.044.111-.023.023.111-.088.178-.111.067-.334.022-.334.022s.245.222.311.378c.067.156 0 .222-.11.156-.112-.067-.245.066-.268-.023-.022-.089-.244-.4-.244-.4s-.644-.089-.822.067c-.177.156-.396.213-.756.178-.221-.022-.355-.134-.31-.267.044-.133.155-.178.155-.178s-.022-.266-.11-.2c-.09.067-.29.023-.312-.022a1.045 1.045 0 00-.156-.155z" fill="#059334"/><path d="M14.482 7.266c.095-.057.555-.267.911-.244.356.022.578.11.822.244.245.133.222.245.356.289.133.044.067.111 0 .178-.067.066-.29.444-1 .422-.712-.022-.778-.222-.89-.311-.11-.089-.177-.311-.177-.378s-.133-.134-.022-.2z" fill="#059334"/><path d="M15.815 7.933c.241-.066.568-.153.727-.39-.103-.05-.103-.155-.327-.277a1.791 1.791 0 00-.822-.244c-.25-.016-.555.084-.745.164-.01.157-.01.347-.01.347s.2.111.355.244c.155.134.577.223.822.156z" fill="#00493D"/><path d="M10.556 10V2.778H2.222c-.178 0-.335.025-.335.025l-.003.974-1.516-.002s-.024.033-.07.114A2.216 2.216 0 000 5v5h10.556z" fill="#00247D"/><path d="M10.556 2.778H9.26L6.667 4.594V2.778H3.889v1.427L1.887 2.803a2.19 2.19 0 00-.93.37L3.57 5h-.964L.537 3.55a2.306 2.306 0 00-.17.225L2.119 5H0v2.778h2.158L0 9.315V10h1.851L3.89 8.573V10h2.778V8.184L9.26 10h1.296V8.873L8.992 7.778h1.564V5H8.992l1.564-1.095V2.778z" fill="#EEE"/><path d="M6.111 2.778H4.444v2.778H0v1.666h4.444V10h1.667V7.222h4.445V5.556H6.11V2.778z" fill="#CF1B2B"/><path d="M10.556 2.778h-.812L6.667 4.933V5h.873l3.016-2.112v-.11zm-9.598.394a2.251 2.251 0 00-.42.379L2.606 5h.964L.958 3.172zm2.619 4.606L.408 10h.96l2.521-1.765v-.457h-.312zm6.979 2.112v-.678L8.508 7.778h-.969l3.017 2.112z" fill="#CF1B2B"/></g><defs><clipPath id="clip0_0_12884"><path fill="#fff" d="M0 0h20v20H0z"/></clipPath></defs></svg>