<svg width="20" height="20" fill="none" xmlns="http://www.w3.org/2000/svg"><path d="M20 15a2.222 2.222 0 01-2.222 2.222H2.222A2.222 2.222 0 010 15V5a2.222 2.222 0 012.222-2.222h15.556A2.222 2.222 0 0120 5v10z" fill="#75AADB"/><path d="M0 7.222h20v5.556H0V7.222z" fill="#EEE"/><path d="M10 7.222l.271 1.416.793-1.204-.292 1.411 1.192-.81-.81 1.193 1.412-.29-1.203.79 1.415.272-1.415.271 1.204.792-1.412-.291.81 1.192-1.193-.81.292 1.412-.793-1.204-.27 1.416-.272-1.416-.791 1.204.29-1.412-1.192.81.81-1.192-1.412.291 1.204-.792L7.223 10l1.415-.271-1.204-.792 1.411.291-.809-1.192 1.193.809-.291-1.411.791 1.204L10 7.222z" fill="#FCBF49"/><path d="M10 7.961l.135.703.064.336.189-.286.393-.597-.145.7-.07.336.284-.193.592-.401-.402.592-.192.283.335-.069.701-.145-.598.394L11 9.8l.336.065.703.134-.703.134L11 10.2l.286.188.598.393-.701-.144-.336-.07.192.283.402.592-.592-.402-.283-.192.07.336.144.7-.393-.597L10.2 11l-.064.336-.135.703-.134-.703L9.802 11l-.189.286-.393.598.144-.701.07-.335-.284.192-.592.402.402-.593.192-.283-.335.07-.701.145.598-.394.285-.188-.336-.065L7.962 10l.702-.134L9 9.8l-.286-.188-.597-.394.7.145.335.07-.192-.284-.402-.592.592.402.283.192-.07-.335-.144-.7.394.597.188.287.064-.337L10 7.96zm0-.739l-.27 1.416-.792-1.204.29 1.411-1.192-.809.81 1.193-1.412-.291 1.204.791L7.223 10l1.415.271-1.204.792 1.411-.291-.809 1.192 1.193-.81-.291 1.412.791-1.204.271 1.416.271-1.416.793 1.204-.292-1.412 1.192.81-.81-1.192 1.412.291-1.203-.792L12.778 10l-1.415-.271 1.204-.792-1.412.291.81-1.192-1.193.809.292-1.412-.793 1.204-.27-1.415z" fill="#843511"/><path d="M10 11.111a1.111 1.111 0 100-2.222 1.111 1.111 0 000 2.222z" fill="#FCBF49"/><path d="M10 11.18a1.182 1.182 0 010-2.36 1.182 1.182 0 010 2.36zm0-2.222a1.043 1.043 0 000 2.084 1.043 1.043 0 000-2.084z" fill="#843511"/><path d="M9.89 9.875c0 .086-.145.155-.324.155-.18 0-.325-.07-.325-.155 0-.087.145-.156.325-.156.179 0 .324.07.324.156zm.862-.014c0-.09-.148-.162-.33-.162-.182 0-.33.072-.33.162 0 .09.148.162.33.162.183 0 .33-.072.33-.162z" fill="#C16540"/><path d="M9.702 10.486c0-.07.137-.128.305-.128.168 0 .304.057.304.128 0 .07-.137.127-.304.127-.169 0-.305-.057-.305-.127z" fill="#ED8662"/></svg>