<svg width="20" height="20" fill="none" xmlns="http://www.w3.org/2000/svg"><path d="M20 15a2.222 2.222 0 01-2.222 2.222H2.222A2.222 2.222 0 010 15V5a2.222 2.222 0 012.222-2.222h15.556A2.222 2.222 0 0120 5v10z" fill="#CE1B26"/><path d="M.308 3.889C.108 4.225.002 4.609 0 5v10c0 .407.117.783.308 1.111h19.384c.2-.336.306-.72.308-1.111V5c0-.407-.117-.783-.308-1.111H.308z" fill="#003E87"/><path d="M10 15.555a5.556 5.556 0 100-11.11 5.556 5.556 0 000 11.11z" fill="#fff"/><path d="M10 15a5 5 0 100-10 5 5 0 000 10z" fill="#730900"/><path d="M10 14.857a4.857 4.857 0 100-9.714 4.857 4.857 0 000 9.714z" fill="#fff"/><path d="M10 5.365c.157 0 .284-.163.284-.365 0-.202-.127-.365-.284-.365-.156 0-.283.163-.283.365 0 .202.127.365.283.365zm0 10c.157 0 .284-.163.284-.365 0-.202-.127-.365-.284-.365-.156 0-.283.163-.283.365 0 .202.127.365.283.365zm-1.567-.608c.052-.195.216-.32.367-.28.152.04.232.231.18.426-.052.195-.217.32-.368.28-.152-.041-.232-.232-.18-.426zM11.2 5.522c.151.04.315-.084.368-.279.052-.195-.028-.385-.18-.426-.15-.04-.315.085-.367.28-.052.195.028.385.179.425zm-3.945 8.666c.1-.175.292-.252.428-.175.135.08.163.284.062.458-.1.175-.292.253-.427.175-.136-.078-.164-.283-.063-.458zm5.063-8.203c.135.078.326 0 .427-.174.102-.174.073-.38-.062-.457-.136-.078-.327 0-.428.174-.101.175-.073.38.063.457zm-6.054 7.35c.143-.143.348-.169.459-.058.11.11.084.316-.058.459-.143.142-.347.168-.458.057-.111-.11-.085-.315.057-.458zm7.014-6.613c.11.11.315.085.457-.057.143-.143.169-.348.058-.458-.11-.11-.315-.085-.458.058-.142.141-.168.346-.057.457zm-7.75 5.532c.175-.1.38-.072.458.064.078.135 0 .327-.174.428-.175.1-.38.072-.458-.063-.079-.136 0-.328.174-.428zm8.487-4.572c.078.135.282.164.457.063.175-.101.252-.292.175-.427-.08-.136-.284-.165-.458-.063-.175.1-.253.292-.174.427zm-8.918 3.339c.195-.053.385.027.426.178.04.152-.085.316-.28.369-.194.052-.384-.028-.425-.18-.04-.15.084-.315.28-.367zm9.38-2.22c.04.15.23.23.426.179.195-.053.32-.218.28-.369-.041-.15-.232-.23-.426-.179-.195.052-.32.217-.28.368zM5 10.283c.201 0 .365-.127.365-.283 0-.157-.164-.283-.365-.283-.202 0-.365.126-.365.283 0 .156.163.283.365.283zM14.635 10c0 .157.163.283.365.283.201 0 .364-.126.364-.283 0-.157-.163-.283-.364-.283-.202 0-.365.126-.365.283zM5.243 8.433c.195.052.32.216.28.367-.04.152-.232.232-.427.18-.195-.052-.319-.217-.279-.368.041-.152.232-.232.426-.18zm9.235 2.767c-.041.151.083.316.278.368.195.052.385-.028.426-.18.04-.15-.084-.315-.279-.367-.195-.052-.385.028-.425.179zM5.81 7.254c.175.1.253.293.175.428-.079.136-.283.164-.458.063-.174-.1-.253-.292-.174-.427.078-.136.282-.165.457-.064zm8.204 5.064c-.079.135 0 .326.174.428.174.1.38.072.457-.063.078-.136 0-.328-.174-.429-.175-.1-.38-.072-.457.064zm-7.35-6.054c.143.142.169.347.058.458-.11.11-.316.085-.459-.058-.143-.142-.169-.347-.058-.458.111-.11.316-.084.459.058zm6.613 7.014c-.111.11-.085.314.057.457.144.143.348.169.459.058.11-.11.085-.315-.058-.457-.142-.144-.347-.169-.458-.058zm-5.533-7.75c.1.174.073.38-.063.457-.135.079-.327 0-.427-.174-.101-.174-.073-.38.063-.458.135-.078.327 0 .427.175zm4.573 8.486c-.135.079-.164.283-.063.458.1.175.292.252.428.174.135-.078.164-.283.063-.457-.101-.175-.293-.253-.428-.175zM8.979 5.097c.052.195-.028.385-.179.425-.15.04-.315-.084-.368-.279-.052-.195.028-.385.18-.425.15-.04.315.084.367.279zm2.22 9.38c-.15.041-.23.231-.179.427.053.194.218.319.369.278.15-.04.23-.23.179-.425-.052-.195-.217-.32-.368-.28z" fill="#007F00"/><path d="M8.312 6.777l.55.94h.605l.27.217.167.576-.598-.262.558.456-.135.458h.46V8.35l.75-.459-.124-.092-.622.348-.073-.508-.112-.12.382-.472-.197-.08-.289.427-.04-.347.04-.43s-.192-.153-.174-.103c.018.05 0 .378 0 .378l-.361-.388-.167.067.362.322-.421.314-.512-.14.098-.522h-.105l-.09.492-.09-.42-.132.232m1.937-.576h.12v.452h-.12v-.452zm.633.09h.15v.241h-.15v-.24z" fill="#B34B00"/><path d="M8.978 7.31l.099.267.58.06.247.252-.097-.29-.15-.335-.68.047z" fill="#fff"/><path d="M8.323 6.282c.35-.21.577.14.577.14s.144-.44.576-.47c.431-.03.428.16.428.16s.095-.277.672-.164c.576.113.558.304.462.384-.097.08-.97.03-.97.03s.09.17.1.24c.01.071.322-.13.813 0 0 0 .241-.42.612-.2.372.221.615.643.523.763-.091.12-.754.04-.829-.04 0 0-.134.221-.446.18-.311-.04-.833-.37-.833-.37l-.105-.162s-.242-.19-.535-.2c-.294-.01-.498 0-.498 0s-.198.231-.428.261c-.23.03-.471.02-.471.02s-.049-.33.352-.572z" fill="#289400"/><path d="M8.728 6.924c.577-.09.959 0 .999.282.04.28-.431.23-.527.24-.096.01-.648.201-.828.191-.18-.01-.552-.19-.281-.45.271-.263.637-.263.637-.263zm2.21.512c.569.132.836.442.705.572-.13.13-.465.11-.77 0-.304-.11-.726-.03-.82-.24-.095-.211.241-.482.886-.332zm-.193.723c.432.07.447.451.377.522-.07.07-.733-.02-.883-.201-.15-.18.08-.391.506-.321zm-1.603-.191c.538-.204.768.03.762.24-.006.211-.457.201-.634.282-.175.08-.496.18-.606.06-.111-.12.053-.422.478-.582z" fill="#289400"/><path d="M8.773 13.52c-.15.148-.376.456.11.55.486.095.297-.383.194-.462-.102-.08-.304-.088-.304-.088z" fill="#ADADAD"/><path d="M9.015 13.658c.01.03.07.17 0 .25a.377.377 0 01-.301.13s.472.08.572.131c.1.05.19-.1.14-.311-.05-.21-.411-.2-.411-.2z" fill="#69F"/><path d="M12.085 12.685c-.261 0-.613.21-.613.21s-.16-.16-.421-.02-.411.18-.391.441c0 0-.143.073-.281.11-.221.061-.372.01-.372.01s-.15.051-.37-.01a1.682 1.682 0 01-.281-.11c.02-.26-.13-.3-.392-.441-.261-.14-.422.02-.422.02s-.35-.21-.612-.21c-.26 0-.491.25-.481.32.01.071.13.311.2.431s.13.191.321.191c.19 0 .592-.12.592-.12s.09.09.562.27c.472.18.883.171.883.171s.411.01.883-.17c.471-.181.562-.271.562-.271s.402.12.592.12c.19 0 .25-.07.321-.19.07-.121.191-.36.2-.431.011-.07-.22-.321-.48-.321z" fill="#EEE"/><path d="M8.588 12.928c.192.13.593.313.768.388 0 0 .062-.17-.093-.266-.155-.1-.38-.188-.489-.232-.11-.043-.186.11-.186.11zm.075.592c-.27-.243-.44-.334-.642-.374-.2-.04-.435.034-.428.187.007.154.199.315.378.294.179-.02.692-.107.692-.107z" fill="#ADADAD"/><path d="M8.663 12.985s.01-.19.14-.11c.131.08.091.225.091.225l-.231-.115zm-.18.472s-.342-.25-.492-.25c-.151 0-.301.01-.291.125.01.116.21.166.321.185.11.02.461-.06.461-.06z" fill="#69F"/><path d="M11.242 13.52c.151.148.377.456-.108.55-.487.095-.297-.383-.195-.462.103-.08.303-.088.303-.088z" fill="#ADADAD"/><path d="M11.002 13.658c-.01.03-.07.17 0 .25.07.08.19.142.3.13 0 0-.471.08-.571.131-.1.05-.19-.1-.14-.311.05-.21.41-.2.41-.2z" fill="#69F"/><path d="M11.428 12.928c-.193.13-.593.313-.768.388 0 0-.062-.17.093-.266.155-.1.38-.188.489-.232.11-.043.186.11.186.11zm-.075.592c.27-.243.44-.334.642-.374.2-.04.435.034.428.187-.007.154-.199.315-.378.294-.18-.02-.692-.107-.692-.107z" fill="#ADADAD"/><path d="M11.353 12.985s-.01-.19-.14-.11c-.131.08-.09.225-.09.225l.23-.115zm.18.472s.341-.25.492-.25c.15 0 .301.01.291.125-.01.116-.211.166-.321.185-.11.02-.462-.06-.462-.06z" fill="#69F"/><path d="M8.343 12.926c.234.09.612.5 0 .24-.613-.26-.362-.382 0-.24zm.812.481c.266.073.712.15.963.15s.412.262.1.231c-.31-.03-.953-.097-1.173-.188-.22-.093-.108-.254.11-.193zm1.586.03c.28-.15.813-.481.993-.522.18-.04.402-.02.382.07-.02.091-.13.14-.301.16-.171.021-.723.482-1.074.532-.35.051 0-.24 0-.24z" fill="#D3D3D3"/><path d="M7.248 11.82c.553-.11 3.05-.18 3.763-.09.712.09 2.268.523 2.067.773-.2.25-1.063.231-1.555.15-.492-.08-.683.352-1.516.362-.833.01-1.254-.262-1.605-.392s-.853-.06-1.154.03c-.301.091-1.295-.57 0-.833z" fill="#289400"/><path d="M8.533 9.042v1.896c0 .693.522 1.255.737 1.455.217.2.738.492.738.492s.522-.292.737-.492c.216-.2.738-.762.738-1.455V9.042h-2.95z" fill="#000"/><path d="M8.684 9.162v1.778c0 .622.468 1.188.662 1.368.194.18.662.441.662.441s.468-.261.662-.441.662-.746.662-1.368V9.162H8.684z" fill="#9ED7FF"/><path d="M9.143 12.082h1.732c.068-.085.139-.186.205-.3H8.937c.066.114.138.215.206.3z" fill="#006AC8"/><path d="M9.143 12.082c.078.1.15.177.203.226.036.033.082.068.131.105h1.064a1.47 1.47 0 00.334-.331H9.143z" fill="#5AC800"/><path d="M10.009 12.75s.311-.175.531-.337H9.477c.22.162.532.336.532.336z" fill="#FFD801"/><path d="M8.792 11.48l1.217-1.084V9.162H8.684v1.778c0 .188.043.372.108.54z" fill="#fff"/><path d="M11.224 11.48c.07-.172.106-.355.108-.54V9.162h-1.324v1.234l1.216 1.084z" fill="#FFD83C"/><path d="M9.835 10.182l-.006-.006a.045.045 0 00-.064 0l-.038.038-.263-.263c.031-.042.035-.093.006-.121l-.532-.523c-.032-.032-.093-.022-.136.022-.043.044-.052.104-.02.136l.532.523c.023.022.058.024.092.01l.268.268-.055.055a.045.045 0 000 .065l.006.005a.046.046 0 00.064 0l.145-.145a.044.044 0 00.014-.032.044.044 0 00-.013-.032z" fill="#B34B00"/><path d="M8.982 10.454a.06.06 0 01-.065.022.061.061 0 01-.022-.01.06.06 0 01-.023-.041.06.06 0 01.012-.046l.57-.744a.061.061 0 01.109.03.062.062 0 01-.012.045l-.569.744z" fill="#782121"/><path d="M9.354 9.533l.158-.25.333.212-.159.25-.332-.212z" fill="#D3D3D3"/><path d="M11.112 10.364a.062.062 0 10.09-.082l-.63-.693a.062.062 0 10-.091.083l.63.692z" fill="#782121"/><path d="M10.12 9.633l.286-.27.204.214-.286.271-.204-.215zm.119.445l.747-.718.188.196-.748.717-.187-.195z" fill="#fff"/><path d="M9.27 11.443s.406.187.753.195c.348.009.434-.049.434-.049l-.099.193h-.846l-.241-.339z" fill="#B34B00"/><path d="M9.404 11.417l.213.153h.787l-.106-.52-.68.031-.214.336z" fill="#fff"/><path d="M7.9 7.634c.234-.112.677-.36.745-.398.068-.038.18.097.076.143-.106.045-.662.376-.82.451-.159.075 0-.196 0-.196z" fill="#892614"/><path d="M7.087 12.032c-.03.22-.16.442.091.511.25.07.298-.162.23-.372-.07-.21-.32-.139-.32-.139zm.874-.011c-.04.092-.16.293.08.267a1.93 1.93 0 01.541 0c.152.025.242-.139.081-.132-.16.007-.281-.052-.342-.202-.06-.148-.36.067-.36.067zm-.59-2.773l-.071-.39s-.203.208-.273.309c-.07.1-.21-.045-.29-.11-.08-.066-.17-.266-.19-.437-.02-.17-.222-.27-.151-.391.07-.12.13-.18.25-.18s.151.16.151.16.233.03.141.14c-.226.274-.047.32-.047.32l.136-.169s-.05-.321 0-.381c.051-.06.352-.17.453-.181.1-.01.22-.1.175-.16-.045-.06-.145-.171-.145-.302 0-.13-.046-.412.248-.371.294.04.394.23.314.391-.08.16-.12.21-.09.301.03.09.038.2.234.21.196.01.234.074.264.244.03.17.033.258.023.399a.77.77 0 000 .19s.18-.034.31-.014c.131.02.402.186.402.186h-.652l-.05.21s-.07.081-.1.07c-.03-.01-.197-.27-.197-.27l-.074.27-.77-.044z" fill="#FBD44D"/><path d="M7.319 9.223c-.11.24-.21.762-.19 1.042.02.281.074.572-.004.833-.077.261-.188 1.003-.188 1.003l.282.192.31-.2.05-1.175.179-.58.173.42-.07 1.304.51-.01s-.04-1.204-.05-1.394a19.836 19.836 0 00-.105-.953 6.738 6.738 0 00-.075-.411l-.822-.071z" fill="#D3D3D3"/><path d="M7.34 9.172s.206.057.418.05c.222-.006.45-.075.454-.05.01.05 0 .221 0 .221s-.186-.04-.434 0-.348.03-.439 0c-.09-.03 0-.22 0-.22z" fill="#9B5F00"/><path d="M7.828 6.944c.221 0 .317.171.307.352-.01.18-.064.23-.064.23s.036-.195-.08-.1v-.19s-.25.02-.336 0c-.085-.02-.135-.04-.135-.04l-.035.135s-.116-.135-.006-.266c.11-.13.297-.12.297-.12" fill="#000"/><path d="M6.132 8.583c.102-.15.286-.264.286-.264s.03.038.136 0c.105-.037.097-.067.158-.09.06-.023.053-.09.053-.09s.354-.144.504-.212c.15-.068.324-.173.324-.173l.068.053s0 .113-.06.15c-.06.038-.512.264-.55.294-.037.03-.12.06-.12.06s-.037-.075-.075-.045-.06.113-.06.113-.151.068-.242.128c-.09.06-.195.271-.293.316-.1.045-.167-.184-.13-.24z" fill="#892614"/><path d="M8.297 7.379c.055-.053.258-.195.307-.12.049.075.125.489.365.451 0 0-.143.128-.263.188-.12.06-.334.075-.334.075s-.003-.195 0-.308c.003-.113-.075-.286-.075-.286z" fill="#D3D3D3"/><path d="M10.633 6.844c.082-.037.9.4 1.036.46.137.06.22.3.356.353.135.053.023.143-.06.098-.082-.046-.264-.03-.422-.083-.158-.053-1.003-.503-1.026-.57-.022-.068.116-.258.116-.258z" fill="#B34B00"/><path d="M12.904 12.032c.03.22.16.442-.091.511-.25.07-.297-.162-.228-.372.067-.21.319-.139.319-.139zm-.874-.011c.04.092.16.293-.08.267a1.94 1.94 0 00-.542 0c-.151.025-.241-.139-.08-.132.16.007.281-.052.34-.202.062-.148.362.067.362.067zm.59-2.773l.071-.39s.161.163.232.263c.07.1.234.111.313.046.082-.065.19-.376.21-.546.019-.171.21-.141.139-.262-.07-.12-.145-.197-.266-.197-.12 0-.125.047-.125.047s-.153.04-.093.17c.06.131-.018.306-.018.306l-.12-.102s-.037-.384-.088-.444c-.05-.06-.263-.19-.363-.201-.1-.01-.22-.1-.176-.16.046-.06.146-.171.146-.302 0-.13.046-.412-.248-.371-.294.04-.394.23-.313.391.08.16.067.22.037.311-.03.09.013.19-.183.2-.195.01-.261.114-.291.285-.03.17-.005.217.005.358.01.14-.001.19-.001.19s-.18-.034-.31-.014c-.13.02-.402.186-.402.186h.653l.05.21s.07.081.1.07c.031-.01.196-.27.196-.27l.075.27.77-.044z" fill="#892614"/><path d="M12.672 9.223c.11.24.211.762.191 1.042-.02.281-.075.572.003.833s.188 1.003.188 1.003l-.281.192-.311-.2-.05-1.175-.178-.58-.173.42.07 1.304-.512-.01s.04-1.204.05-1.394c.011-.19.082-.773.106-.953.025-.18.075-.411.075-.411l.822-.071z" fill="#D3D3D3"/><path d="M12.651 9.172s-.206.057-.418.05c-.221-.006-.45-.075-.454-.05-.01.05 0 .221 0 .221s.186-.04.434 0 .348.03.438 0c.091-.03 0-.22 0-.22z" fill="#9B5F00"/><path d="M12.163 6.944c-.22 0-.317.171-.307.352.01.18.062.23.062.23s-.043-.195.077-.1v-.19s.253.02.338 0c.086-.02.138-.04.138-.04l.035.135s.115-.135.005-.266c-.11-.13-.296-.12-.296-.12" fill="#000"/><path d="M12.336 7.755l.824.443s-.11 0-.107.094c.003.095-.675-.319-.675-.319l-.042-.218zm1.156.662l.256.083s.03-.083.105-.042c.076.042-.037.377-.09.371-.053-.006-.113-.089-.12-.156-.008-.068-.234-.158-.234-.158l.083-.098z" fill="#B34B00"/></svg>