<svg width="20" height="20" fill="none" xmlns="http://www.w3.org/2000/svg"><g clip-path="url(#clip0_0_12849)"><path d="M17.778 2.778H2.222A2.222 2.222 0 000 5v7.253h20V5a2.222 2.222 0 00-2.222-2.222zM3.487 6.264l-.524 1.699-.524-1.699L.74 5.742l1.698-.524.524-1.699.524 1.699 1.698.524-1.698.524zM2.222 17.223h15.556a2.218 2.218 0 002.148-1.682H.074a2.217 2.217 0 002.148 1.682zM0 13.35h20v1.095H0V13.35z" fill="#4189DD"/><path d="M2.963 3.518l-.523 1.7-1.7.522 1.699.524.523 1.698.524-1.698 1.699-.524-1.7-.524-.523-1.699zm.404 2.626l-.404 1.309-.403-1.309-1.309-.403 1.309-.403.403-1.309.404 1.308 1.308.404-1.308.403z" fill="#fff"/><path d="M2.963 4.029l-.404 1.308-1.308.403 1.308.404.404 1.309.404-1.309 1.308-.404-1.308-.403-.404-1.308z" fill="#D21034"/><path d="M0 12.253h20v1.095H0v-1.095zM0 15c0 .187.03.366.074.54h19.852A2.19 2.19 0 0020 15v-.556H0V15z" fill="#F9D616"/></g><defs><clipPath id="clip0_0_12849"><path fill="#fff" d="M0 0h20v20H0z"/></clipPath></defs></svg>