<svg width="20" height="20" fill="none" xmlns="http://www.w3.org/2000/svg"><g clip-path="url(#clip0_0_13277)"><path d="M17.778 2.778H2.222A2.222 2.222 0 000 5v10a2.222 2.222 0 002.222 2.222h15.556A2.222 2.222 0 0020 15V5a2.222 2.222 0 00-2.222-2.222z" fill="#009B3A"/><path d="M19.868 15.756c.085-.236.132-.49.132-.756V5c0-.265-.047-.52-.132-.755v-.001L11.898 10l7.97 5.756zM8.102 10L.132 4.244A2.216 2.216 0 000 5v10c0 .266.047.52.132.756L8.102 10z" fill="#141414"/><path d="M18.075 2.797L10 8.63 1.925 2.797A2.227 2.227 0 00.132 4.243L8.102 10l-7.97 5.756v.002a2.226 2.226 0 001.792 1.444h.002L10 11.37l8.075 5.832a2.225 2.225 0 001.792-1.445v-.002L11.898 10l7.97-5.756a2.225 2.225 0 00-1.792-1.447z" fill="#FFD202"/></g><defs><clipPath id="clip0_0_13277"><path fill="#fff" d="M0 0h20v20H0z"/></clipPath></defs></svg>