<svg width="20" height="20" fill="none" xmlns="http://www.w3.org/2000/svg"><g clip-path="url(#clip0_0_13238)"><path d="M0 15a2.222 2.222 0 002.222 2.222h15.556A2.222 2.222 0 0020 15v-.555H0V15zm0-4.444h20v2.222H0v-2.222z" fill="#0038A8"/><path d="M0 12.778h20v1.666H0v-1.666z" fill="#EEE"/><path d="M20 5a2.222 2.222 0 00-2.222-2.222h-8.89V5H20zM8.889 6.667h11.11v2.222H8.89V6.667z" fill="#0038A8"/><path d="M8.889 5V2.778H2.222A2.222 2.222 0 000 5v5.556h20V8.889H8.889V6.667H20V5H8.889z" fill="#EEE"/><path d="M7.223 6.667a2.778 2.778 0 10-5.556 0 2.778 2.778 0 005.556 0z" fill="#FFD983"/><path d="M6.667 6.667a2.222 2.222 0 10-4.444 0 2.222 2.222 0 004.444 0z" fill="#FFCC4D"/><path d="M4.445 3.11l.352 2.244 1.427-1.768-.819 2.12 2.12-.818-1.768 1.427 2.245.352-2.245.351 1.768 1.427-2.12-.818.819 2.12L4.797 7.98l-.352 2.245-.352-2.245-1.427 1.768.818-2.12-2.12.818 1.769-1.427-2.245-.351 2.245-.352-1.769-1.427 2.12.818-.818-2.12 1.427 1.768.352-2.245z" fill="#FFAC33"/><path d="M6.11 6.667a1.667 1.667 0 10-3.333 0 1.667 1.667 0 003.334 0z" fill="#C1694F"/><path d="M3.241 6.669a1.196 1.196 0 112.393 0 1.196 1.196 0 01-2.393 0z" fill="#FFAC33"/></g><defs><clipPath id="clip0_0_13238"><path fill="#fff" d="M0 0h20v20H0z"/></clipPath></defs></svg>