<svg width="20" height="20" fill="none" xmlns="http://www.w3.org/2000/svg"><g clip-path="url(#clip0_0_12864)"><path d="M17.778 2.778h-4.445v14.444h4.445A2.222 2.222 0 0020 15V5a2.222 2.222 0 00-2.222-2.222zm-15.556 0A2.222 2.222 0 000 5v10a2.222 2.222 0 002.222 2.222h4.445V2.778H2.222z" fill="#4997D0"/><path d="M6.667 2.778h6.667v14.444H6.667V2.778z" fill="#EEE"/><path d="M12.588 10.41c.063-.135.054-.22-.019-.145-.064.067-.157.09-.273.172l.01-.032c.1-.193.32-.1.45-.406.024-.057.14-.118-.019-.108a.497.497 0 00-.36.218c.08-.214.27-.105.348-.622.013-.095.024-.288-.038-.13-.026.064-.087.127-.151.203a.551.551 0 00-.009-.27.49.49 0 00.086-.199c.018-.126-.012-.237-.06-.105a.285.285 0 01-.082.111c-.012-.044-.024-.06-.058 0a.613.613 0 00-.067.23v.006l-.03-.138c.025-.174.292-.169.2-.729-.023-.135-.033-.175-.08-.006-.045.156-.183.169-.19.48l-.01-.035c-.032-.3.173-.55.018-.807-.082-.137-.126-.149-.117-.038.01.13-.067.267-.053.455l-.005-.012c-.033-.232.05-.302-.043-.452-.05-.077-.122-.178-.103-.051.004.025.006.055.009.086-.03-.13-.144-.211-.287-.257-.135-.044-.094.02-.044.072.07.076.052.17.14.285-.095-.046-.178-.05-.233-.12-.108-.134-.052.038-.026.115a.471.471 0 00.244.284c-.01.01-.006.05.023.13.035.1.08.175.127.235a.289.289 0 01-.092-.082c-.114-.168-.158-.187-.137.013.02.174.094.267.183.328.003.049.02.096.05.135.045.07.112.124.191.153.03.072.047.138.064.206-.004-.003-.007-.008-.012-.01-.17-.121-.127-.052-.113.053.063.495.298.325.25.645a1.968 1.968 0 01-.021.086.488.488 0 00-.147-.369c-.096-.112-.13-.08-.082.127.011.049.022.108.032.172l-.002-.007c-.097-.195-.126-.139-.117.01.011.142-.109.2-.031.473a.45.45 0 01-.043.352l-.013.017c.17-.316-.036-.41-.017-.506.023-.108-.006-.127-.066.007a.51.51 0 00-.034.356c-.013.007-.022.01-.039.022a1.147 1.147 0 00-.137.107c.005-.03.014-.058.016-.088.014-.142-.025-.211-.085-.058-.076.188-.213.184-.3.467-.068.228-.118.274-.224.32l-.016.006a.704.704 0 00.273-.486c.025-.216-.029-.184-.101-.054-.07.125-.202.106-.286.38a.402.402 0 01-.25.272c.22-.156.316-.414.29-.569-.012-.076-.048-.123-.082.003-.041.156-.155.118-.247.413-.048.15-.089.18-.285.27l.028-.006a2.24 2.24 0 00-.298.144 2.052 2.052 0 00-.287-.138l.016.003c-.194-.088-.235-.118-.282-.267-.09-.292-.204-.254-.245-.407-.033-.126-.068-.08-.08-.004-.026.152.069.406.283.56a.4.4 0 01-.245-.268c-.082-.27-.213-.25-.281-.374-.072-.129-.125-.16-.1.053.023.192.11.357.268.48L9 11.756c-.092-.043-.14-.096-.204-.308-.084-.28-.22-.275-.295-.46-.061-.152-.099-.084-.084.056.003.03.01.059.016.088a1.07 1.07 0 00-.135-.106c-.017-.011-.026-.015-.039-.022a.507.507 0 00-.034-.353c-.06-.13-.088-.112-.066-.006.02.096-.186.189-.013.504l-.013-.017a.446.446 0 01-.046-.352c.077-.27-.041-.326-.031-.468.01-.147-.02-.202-.114-.009l-.003.008c.01-.064.02-.123.032-.17.047-.205.012-.237-.081-.126a.483.483 0 00-.146.365 1.986 1.986 0 01-.021-.087c-.047-.314.184-.148.248-.637.014-.104.056-.172-.113-.053-.005.003-.007.008-.011.01a1.13 1.13 0 01.064-.203.385.385 0 00.19-.152.251.251 0 00.047-.134c.088-.06.161-.153.18-.324.022-.198-.022-.18-.134-.013a.287.287 0 01-.09.081.806.806 0 00.124-.231c.028-.08.033-.119.023-.13a.464.464 0 00.24-.281c.026-.077.081-.245-.025-.114-.055.069-.136.073-.23.119.087-.114.069-.206.139-.282.048-.052.09-.115-.044-.072-.143.045-.254.125-.284.255.003-.03.005-.06.009-.086.019-.125-.054-.025-.1.05-.094.15-.013.219-.044.446l-.006.014c.015-.186-.063-.322-.053-.45.01-.11-.033-.097-.115.038-.152.252.049.5.02.795l-.01.035c-.009-.307-.145-.319-.188-.473-.048-.167-.057-.127-.079.006-.09.554.174.549.198.72l-.03.138-.001-.008c-.004-.03-.012-.055-.019-.082l-.002-.006c-.012-.048-.024-.098-.045-.137-.034-.059-.045-.043-.057 0a.28.28 0 01-.081-.11c-.047-.131-.077-.02-.06.104a.49.49 0 00.085.196.55.55 0 00-.008.268c-.064-.075-.124-.138-.149-.2-.062-.157-.051.034-.037.129.076.512.265.402.342.615a.49.49 0 00-.355-.217c-.157-.01-.042.051-.02.107.13.303.346.212.446.401l.01.033c-.115-.082-.206-.105-.27-.171-.072-.075-.08.01-.018.143a.5.5 0 01-.185-.002c-.057-.019-.057.066.1.132.072.03.185.077.294.13.08.06.161.102.23.165-.216-.155-.378-.08-.5-.15-.15-.088-.068.049-.027.09.425.425.491.104.726.33a.416.416 0 00-.12-.035c-.188-.022-.256-.05-.157.07a.835.835 0 00.297.248.769.769 0 00-.158.012c-.122.026-.08.048.002.072.1.03.163.1.274.146-.183.057-.214.078-.076.146.236.118.401.122.532.1a.573.573 0 00-.17.084c-.1.074-.072.102.014.088.161-.026.262.022.395.022-.08.06-.149.127-.27.163-.082.024-.109.07.025.082.51.043.639-.276.882-.272.124.038.241.084.352.158-.034.025-.07.051-.089.075.006.057.137.029.15.06.017-.017.035-.03.052-.045.018.015.035.028.052.046.013-.032.122-.022.128-.079-.015-.019-.045-.038-.068-.057.113-.077.232-.123.359-.162.246-.004.377.32.892.275.135-.012.108-.058.026-.083-.123-.036-.192-.104-.274-.164.135 0 .237-.049.4-.023.087.014.114-.014.013-.089a.577.577 0 00-.171-.085c.132.022.3.019.538-.101.14-.069.109-.09-.075-.148.111-.046.175-.117.276-.147.083-.025.125-.047.002-.073a.745.745 0 00-.16-.013.854.854 0 00.302-.252c.098-.12.031-.092-.159-.07a.401.401 0 00-.124.036c.239-.23.305.097.736-.334.041-.04.124-.18-.028-.091-.123.071-.289-.007-.51.157.071-.067.155-.109.239-.172.11-.054.223-.1.296-.131.16-.068.16-.153.101-.134a.454.454 0 01-.186.004zm-3.856 1.306l.059.037a1.81 1.81 0 00-.214-.08c.057.003.112.02.16.05l-.005-.007zm.684.18l-.03-.009.02.004.01.005zm-1.177-.8c.005.008.006.012.012.02.047.075.055.152.101.242a2.265 2.265 0 01-.064-.059.22.22 0 01-.049-.203zM8.147 8.6c-.062.082-.165.095-.26.174.055-.095.126-.185.216-.209a.923.923 0 00.103-.035.886.886 0 00-.059.07zm-.094 2.522l.009.01-.007-.004-.002-.006zm.631.757c.096-.02.175-.045.253-.04l.033.016a.962.962 0 00-.286.024zm3.158-3.321a.71.71 0 00-.06-.07.908.908 0 00.103.035c.091.024.164.115.219.211-.096-.08-.2-.093-.262-.176zm-.433 3.108a1.831 1.831 0 00-.216.08l.055-.035-.003.003a.358.358 0 01.164-.048zm.328-.563l.012-.022a.221.221 0 01-.049.205 1.375 1.375 0 01-.067.061c.048-.091.055-.168.104-.244zm-1.17.783l.024-.004-.034.01a.051.051 0 00.01-.006zm.444-.037l.035-.017c.08-.004.163.023.264.043a1.005 1.005 0 00-.299-.026zm.917-.73l.008-.01-.002.006c-.002 0-.004.003-.006.004z" fill="#437E24"/><path d="M9.22 10.234s-.424.382-.476.433c-.052.052-.104.277-.104.277l.138.086.615-.631-.173-.165z" fill="#B1B6BA"/><path d="M8.631 10.936l.13.104s-.112.112-.13.225c-.017.112-.32.458-.38.545-.061.087-.14.069-.174 0-.034-.07-.112-.122-.12-.173-.01-.052.19-.234.285-.337.094-.105.198-.148.25-.208.053-.061.14-.156.14-.156zm.615-.606l-.262.293.07.07.252-.286-.06-.077z" fill="#6C301E"/><path d="M8.033 7.767l.84.874.208-.104-.065-.094-.143.034-.84-.71z" fill="#B1B6BA"/><path d="M9.081 11.402l.104.174.095-.087s.076.139 0 .164c-.077.027-.135 0-.135 0l-.263.215s-.104-.062-.19 0c0 0 .017-.127.07-.127.051 0 .24-.251.24-.251s-.1-.028-.08-.087c.021-.06.16 0 .16 0z" fill="#FAB81B"/><path d="M9.081 11.472s1.54-1.532 2.182-1.59c0 0-.485.295-.788.537-.303.243-1.29 1.158-1.29 1.158l-.104-.105z" fill="#B1B6BA"/><path d="M10.83 10.234s.424.382.475.433c.052.052.104.277.104.277l-.138.086-.615-.631.174-.165z" fill="#B1B6BA"/><path d="M11.418 10.936l-.13.104s.113.112.13.225c.017.112.321.458.381.545.06.087.14.069.174 0 .034-.07.111-.122.12-.173.01-.052-.19-.234-.285-.337-.095-.105-.199-.148-.25-.208-.053-.061-.14-.156-.14-.156zm-.615-.606l.262.293-.07.07-.252-.286.06-.077z" fill="#6C301E"/><path d="M10.436 9.035l-.098.277.836-.836-.128-.023-.61.582z" fill="#B1B6BA"/><path d="M12.014 7.767l-.84.874-.207-.104.207-.06.84-.71z" fill="#B1B6BA"/><path d="M10.967 11.402l-.103.174-.094-.087s-.077.139 0 .164c.076.027.134 0 .134 0l.263.215s.104-.062.19 0c0 0-.017-.127-.07-.127-.052 0-.24-.251-.24-.251s.1-.028.079-.087c-.02-.06-.16 0-.16 0z" fill="#FAB81B"/><path d="M10.967 11.472s-1.54-1.532-2.18-1.59c0 0 .485.295.787.537.303.243 1.29 1.158 1.29 1.158l.103-.105z" fill="#B1B6BA"/><path d="M9.092 8.424c.252-.014.978.01 1.247 0 .268-.008.207.13.225.209.017.077-.146.164-.146.164s.172.104.397.71c.225.606.173.882-.13.9-.302.018-1.081.07-1.342.07-.26 0-.303-.095-.303-.234 0-.138.208-.347.416-.228 0 0 0-.092-.121-.439-.121-.346-.381-.718-.407-.882-.027-.166.034-.262.164-.27z" fill="#F9F0AA"/><path d="M9.854 7.827c-.104-.095.04-.2.146-.19.105.009.157.069.045.19 0 0 .303.165.545.39.242.225.74.832.787 1.489.06.848-.406 1.29-.58 1.592-.173.303-.562 1.065-.562 1.065s-.009-.39.502-1.1c0 0-.397.71-1.012.84 0 0 .77-.542.985-.975.216-.432.532-1.083.48-1.533-.051-.45-.133-.833-.73-1.128 0 0-.378-.02-.545-.155-.269-.216-.06-.485-.06-.485z" fill="#437E24"/><path d="M10.418 8.797c0 .026.112.167.097.167H9.192c-.014 0-.089-.092-.089-.118l-.101-.118c.079.03.175 0 .19 0h1.322c.015 0-.096.042-.096.069zm-.961 1.532c0 .026-.056.112-.04.112h1.322c.014 0 .136-.092.136-.118l.054-.118c-.08.03-.175 0-.19 0H9.416c-.014 0 .041.098.041.124z" fill="#E2CF81"/></g><defs><clipPath id="clip0_0_12864"><path fill="#fff" d="M0 0h20v20H0z"/></clipPath></defs></svg>