<svg width="20" height="20" fill="none" xmlns="http://www.w3.org/2000/svg"><g clip-path="url(#clip0_0_12716)"><path d="M17.778 2.778H2.222a2.21 2.21 0 00-1.46.55l3.084 2.228H20V5a2.222 2.222 0 00-2.222-2.222z" fill="#EA0B19"/><path d="M7.692 8.333H20V5.556H3.846l3.846 2.777z" fill="#EEE"/><path d="M10 10l-2.308 1.667H20V8.333H7.692L10 10z" fill="#EA0B19"/><path d="M3.846 14.444H20v-2.777H7.692l-3.846 2.777z" fill="#EEE"/><path d="M.762 16.672c.39.342.9.55 1.46.55h15.556A2.222 2.222 0 0020 15v-.556H3.846L.762 16.672z" fill="#EA0B19"/><path d="M7.692 11.667L10 10 7.692 8.333 3.846 5.556.762 3.328A2.216 2.216 0 000 5v10c0 .667.296 1.265.762 1.672l3.084-2.228 3.846-2.777z" fill="#0F55EC"/><path d="M4.549 10.466l1.285-.931H4.245l-.493-1.514-.494 1.514H1.667l1.286.932-.494 1.512 1.291-.935 1.292.935-.493-1.513z" fill="#fff"/></g><defs><clipPath id="clip0_0_12716"><path fill="#fff" d="M0 0h20v20H0z"/></clipPath></defs></svg>