<svg width="20" height="20" fill="none" xmlns="http://www.w3.org/2000/svg"><g clip-path="url(#clip0_0_12856)"><path d="M7.222 2.778h-5A2.222 2.222 0 000 5v5h7.222V2.778zM4.632 7.94l-1.046-.76-1.045.76.399-1.229-1.046-.76h1.293l.4-1.229.399 1.23h1.292l-1.046.76.4 1.228z" fill="#1F429B"/><path d="M17.778 2.778H7.223V10H20V5a2.222 2.222 0 00-2.222-2.222z" fill="#EEE"/><path d="M0 10v5a2.222 2.222 0 002.222 2.222h15.556A2.222 2.222 0 0020 15v-5H0z" fill="#D42D27"/><path d="M3.986 5.951l-.4-1.229-.4 1.23h-1.29l1.045.76-.4 1.228 1.046-.76 1.046.76-.4-1.229 1.046-.76H3.986z" fill="#fff"/></g><defs><clipPath id="clip0_0_12856"><path fill="#fff" d="M0 0h20v20H0z"/></clipPath></defs></svg>