<svg width="20" height="20" fill="none" xmlns="http://www.w3.org/2000/svg"><path d="M20 15a2.222 2.222 0 01-2.222 2.222H2.222A2.222 2.222 0 010 15V5a2.222 2.222 0 012.222-2.222h15.556A2.222 2.222 0 0120 5v10z" fill="#0F47AF"/><path d="M0 7.222h20v5.556H0V7.222z" fill="#EEE"/><path d="M9.7 11.832c.137-.425-.338-.504-.338-.504s.035.244-.251.252c.095.191.009.347-.113.356.2.182.616.165.703-.104zm-.705-.257c.263-.321-.123-.551-.123-.551s-.052.222-.303.132c.018.197-.111.304-.22.27.112.227.48.353.646.149zm-.497-.442c.313-.168.084-.476.084-.476s-.115.158-.283.005c-.051.162-.187.204-.262.142.014.216.262.435.461.329zm-.192-.56c.33-.068.206-.41.206-.41s-.147.113-.26-.071c-.09.133-.225.134-.276.058-.045.198.12.465.33.422zm-.078-.481c.303-.002.253-.326.253-.326s-.15.074-.217-.108c-.103.102-.222.079-.253.003-.075.168.025.432.217.43zm.072-.459c.236.082.273-.22.273-.22s-.134.025-.143-.155c-.104.062-.19.01-.198-.067-.098.129-.083.39.068.442zm.181-.379c.118.069.25-.16.25-.16s-.102-.037-.076-.205c-.09.041-.153.016-.144-.055-.1.103-.14.356-.03.42zm1.732 2.578c-.137-.425.338-.504.338-.504s-.035.244.252.252c-.096.191-.01.347.112.356-.2.182-.616.165-.702-.104zm.705-.257c-.263-.321.122-.551.122-.551s.054.222.304.132c-.018.197.11.304.22.27-.113.227-.48.353-.646.149zm.497-.442c-.313-.168-.084-.476-.084-.476s.115.158.284.005c.05.162.187.204.261.142-.013.216-.262.435-.46.329zm.193-.56c-.33-.068-.206-.41-.206-.41s.147.113.26-.071c.09.133.224.134.275.058.045.198-.12.465-.33.422zm.077-.481c-.303-.002-.253-.326-.253-.326s.15.074.217-.108c.102.102.221.079.253.003.075.168-.025.432-.217.43zm-.072-.459c-.236.082-.273-.22-.273-.22s.134.025.143-.155c.104.062.191.01.198-.067.098.129.083.39-.068.442zm-.181-.379c-.118.069-.25-.16-.25-.16s.103-.037.077-.205c.09.041.152.016.144-.055.098.103.14.356.029.42z" fill="#1F601A"/><path d="M9.948 12.056a.222.222 0 100-.444.222.222 0 000 .444zM9.9 9.874L8.868 8.767s-.174 1.276.33 1.615c.503.338.702-.508.702-.508z" fill="#06209F"/><path d="M9.363 9.3l-.23-.247s-.118.99.385 1.33c-.243-.496-.155-1.084-.155-1.084z" fill="#fff"/><path d="M9.9 10.335l-1.415-.803s-.07.824.178 1.224 1.159.425 1.285.034c.127-.39-.047-.455-.047-.455z" fill="#06209F"/><path d="M8.997 9.821l-.265-.15s-.158 1.657 1.098 1.277c-.832-.04-.833-1.127-.833-1.127z" fill="#fff"/><path d="M9.994 9.874l1.033-1.107s.173 1.276-.33 1.615c-.503.338-.703-.508-.703-.508z" fill="#06209F"/><path d="M10.531 9.3l.23-.247s.118.99-.385 1.33c.243-.496.155-1.084.155-1.084z" fill="#fff"/><path d="M9.994 10.335l1.417-.803s.069.824-.179 1.224-1.158.425-1.284.034c-.127-.39.046-.455.046-.455z" fill="#06209F"/><path d="M10.898 9.821l.266-.15s.157 1.657-1.1 1.277c.833-.04.834-1.127.834-1.127z" fill="#fff"/><path d="M9.9 8.499l-1.374 2.369h2.75L9.9 8.498z" fill="#FFCC01"/><path d="M8.719 10.757L9.9 8.719l1.182 2.038H8.72z" fill="#fff"/><path d="M9.057 10.173l-.338.584h2.363l-.338-.584H9.057z" fill="#017E93"/><path d="M8.946 10.462s.383-.54.53-.54c.148 0 .217.17.217.17S9.751 10 9.83 10c.08 0 .118.092.118.092s.057-.09.092-.073c.034.016.148.155.148.155s.034-.06.112-.082c.079-.022.13.082.13.082s.077-.164.095-.082c.018.082.301.37.301.37h-1.88z" fill="#FFCC01"/><path d="M9.935 9.68a.105.105 0 100-.21.105.105 0 000 .21z" fill="#E60000"/><path d="M7.778 9.022a2.44 2.44 0 00-.255.917l.277.008c.025-.29.103-.56.228-.806l-.25-.119zM10.42 7.99c.344.075.665.232.934.459l.191-.2a2.445 2.445 0 00-1.063-.529l-.062.27zm1.354.905c.242.352.384.777.384 1.236 0 .083-.015.162-.025.243l.273.05c.012-.097.03-.193.03-.293 0-.516-.16-.993-.43-1.389l-.232.153zm-2.76 3.193a2.176 2.176 0 01-1.207-1.72l-.274.03a2.454 2.454 0 001.366 1.944l.114-.254zm-.743-3.32a2.176 2.176 0 011.7-.825c.015 0 .028.004.042.004l.018-.276c-.02 0-.04-.006-.06-.006a2.45 2.45 0 00-1.927.945l.227.159zm3.778 2.013a2.181 2.181 0 01-1.149 1.323l.113.253a2.461 2.461 0 001.298-1.488l-.262-.088z" fill="#FFCC01"/></svg>