<svg width="20" height="20" fill="none" xmlns="http://www.w3.org/2000/svg"><path d="M20 15a2.222 2.222 0 01-2.222 2.222H2.222A2.222 2.222 0 010 15V5a2.222 2.222 0 012.222-2.222h15.556A2.222 2.222 0 0120 5v10z" fill="#009B3A"/><path d="M18.182 10L10 16.18 1.817 10 10 3.82 18.182 10z" fill="#FEDF01"/><path d="M9.986 13.546a3.588 3.588 0 100-7.176 3.588 3.588 0 000 7.176z" fill="#002776"/><path d="M6.82 8.27a3.559 3.559 0 00-.373 1.124c2.22-.16 5.232 1.051 6.525 2.553a3.57 3.57 0 00.49-1.113c-1.595-1.56-4.398-2.572-6.641-2.563z" fill="#CBE9D4"/><path d="M6.667 10.13h.556v.555h-.556v-.556zm.556 1.11h.555v.556h-.555v-.555z" fill="#88C9F9"/><path d="M8.333 10.13h.556v.555h-.556v-.556zm1.111.555H10v.556h-.556v-.556zm2.222 1.111h.556v.556h-.556v-.556zM10 12.352h.555v.555H10v-.555zm1.666-3.334h.556v.556h-.556v-.556z" fill="#55ACEE"/><path d="M10.556 11.24h.555v.556h-.555v-.555z" fill="#3B88C3"/></svg>