<svg width="20" height="20" fill="none" xmlns="http://www.w3.org/2000/svg"><g clip-path="url(#clip0_0_13076)"><path d="M17.778 2.778H2.222A2.222 2.222 0 000 5v10a2.222 2.222 0 002.222 2.222h15.556A2.222 2.222 0 0020 15V5a2.222 2.222 0 00-2.222-2.222z" fill="#002A8F"/><path d="M7.692 8.333H20V5.556H3.846l3.846 2.777zm-3.846 6.112H20v-2.778H7.692l-3.846 2.778z" fill="#EEE"/><path d="M7.692 8.333L3.846 5.555.768 3.332A2.207 2.207 0 000 5v10c0 .668.301 1.26.768 1.668l3.078-2.224 3.846-2.778L10 10 7.692 8.333z" fill="#CF142B"/><path d="M4.164 10.334l1.114-.807H3.901l-.427-1.312-.429 1.312H1.667l1.114.808-.428 1.311 1.12-.81 1.119.81-.428-1.312z" fill="#fff"/></g><defs><clipPath id="clip0_0_13076"><path fill="#fff" d="M0 0h20v20H0z"/></clipPath></defs></svg>