<svg width="20" height="20" fill="none" xmlns="http://www.w3.org/2000/svg"><path d="M20 15a2.222 2.222 0 01-2.222 2.222H2.222A2.222 2.222 0 010 15V5a2.222 2.222 0 012.222-2.222h15.556A2.222 2.222 0 0120 5v10z" fill="#002B7F"/><path d="M0 5h20v10H0V5z" fill="#EEE"/><path d="M0 7.222h20v5.556H0V7.222z" fill="#CE1225"/><path d="M4.722 12.222c1.074 0 1.944-.995 1.944-2.222 0-1.227-.87-2.222-1.944-2.222-1.074 0-1.945.995-1.945 2.222 0 1.227.87 2.222 1.945 2.222z" fill="#EEE"/><path d="M5.705 10.833c0 .46-.44 1.155-.983 1.155-.543 0-.983-.695-.983-1.155 0-.46.44-.833.983-.833.543 0 .983.373.983.833z" fill="#F4CB58"/><path d="M4.722 11.667c.767 0 1.389-.373 1.389-.834 0-.46-.622-.833-1.39-.833-.766 0-1.388.373-1.388.833 0 .46.622.834 1.389.834z" fill="#DCA841"/><path d="M4.722 9.444c.46 0 .833-.248.833-.555 0-.307-.373-.556-.833-.556-.46 0-.833.249-.833.556 0 .307.373.555.833.555z" fill="#89C5E4"/><path d="M4.722 11.667c.46 0 .833-.622.833-1.39 0-.766-.373-1.388-.833-1.388-.46 0-.833.622-.833 1.389s.373 1.389.833 1.389z" fill="#088930"/><path d="M4.722 9.444c.46 0 .833-.124.833-.277 0-.154-.373-.278-.833-.278-.46 0-.833.124-.833.278 0 .153.373.277.833.277z" fill="#DCA841"/><path d="M5.555 10c0 .613-.372 1.111-.833 1.111-.46 0-.833-.498-.833-1.111s.372-.832.833-.832c.46 0 .833.219.833.832z" fill="#89C5E4"/><path d="M4.722 10.556c.46 0 .833-.125.833-.278 0-.154-.373-.278-.833-.278-.46 0-.833.124-.833.278 0 .153.373.278.833.278z" fill="#DCA841"/></svg>