<svg width="20" height="20" fill="none" xmlns="http://www.w3.org/2000/svg"><path d="M20 15a2.222 2.222 0 01-2.222 2.222H2.222A2.222 2.222 0 010 15V5a2.222 2.222 0 012.222-2.222h15.556A2.222 2.222 0 0120 5v10z" fill="#006B3F"/><path d="M20 8.333h-8.333V2.778H8.333v5.555H0v3.334h8.333v5.555h3.334v-5.555H20V8.333z" fill="#EEE"/><path d="M8.333 2.778h1.111v14.444H8.333V2.778z" fill="#FCD116"/><path d="M0 8.333h20v1.111H0v-1.11z" fill="#FCD116"/><path d="M9.444 2.778h1.111v14.444h-1.11V2.778z" fill="#141414"/><path d="M0 9.444h20v1.111H0v-1.11z" fill="#141414"/><path d="M10 13.333a3.333 3.333 0 100-6.666 3.333 3.333 0 000 6.666z" fill="#DD2E44"/><path d="M10 7.022l-.094.291h-.308l.25.18-.095.292.247-.18.248.18-.095-.293.249-.178h-.307L10 7.022zm-1.71.556l.094.29-.249.181h.309l.093.292.094-.292h.307l-.25-.18.098-.29-.248.18-.249-.181zM7.23 9.034l.248.179-.095.293.25-.182.247.181-.096-.292.249-.18h-.309l-.092-.291-.094.292H7.23zm0 1.8l.306-.002.095.293.095-.294.307.001-.249-.179.096-.291-.25.18-.246-.181.095.291-.249.181zm1.058 1.454l.247-.18.249.181-.096-.293.25-.18-.308.001-.094-.291-.096.292-.305-.001.248.18-.095.291zm1.711.556l.094-.29h.308l-.25-.182.096-.29-.248.18-.247-.18.095.292-.25.178h.307l.095.292zm1.711-.556l-.095-.29.249-.181h-.309l-.093-.291-.094.291h-.306l.248.18-.097.291.25-.18.247.18zm1.058-1.456l-.248-.179.095-.292-.25.181-.246-.18.095.29-.248.18h.308l.092.292.095-.292h.307zm0-1.799h-.306l-.095-.292-.095.294-.307-.002.249.18-.095.291.25-.18.245.182-.095-.293.248-.18zM11.71 7.578l-.247.18-.249-.18.095.293-.248.178h.307l.094.292.096-.294.305.003-.248-.18.095-.292z" fill="#006000"/><path d="M10.885 11.566a7.317 7.317 0 01-.038-.59c-.003-.154-.281-.36-.465-.358-.126-.256-.493-.566-.74-.32-.024.172.02.506.1.634l.377.085a.263.263 0 00.095-.128c.01-.003.017-.013.027-.017.07.27.21.692.25.793.042.11.104.334.242.373.062.032.148.009.11-.277.042-.01.051-.12.042-.195z" fill="#00693F"/><path d="M10.478 8.756c.01.058.04.111.085.15a.148.148 0 00-.05.07c-.157.136-.521 1.08-.528 1.286-.025.11-.076.286-.118.361-.243-.217-.493-.625-.452-.808-.014-.002-.035-.004-.059-.012.005-.016.014-.1.017-.15-.015 0-.04 0-.063-.007.005-.03.015-.122.015-.162a.19.19 0 01-.074-.055c.016-.043.06-.126.081-.176-.035-.005-.062-.04-.074-.062a.312.312 0 00.088-.107.255.255 0 01-.062-.067c.034-.03.131-.137.174-.197-.026 0-.035-.002-.058-.007.036-.014.077-.067.125-.112.082.071.238.059.313.016.135.078.282.09.471.028.037.01.133.025.169.01z" fill="#7D76B6"/><path d="M11.02 11.349c.03-1.008-.143-1.93-.406-2.265-.265-.336-.75-.26-.886.029-.058.121-.065.411-.008.536.1.214.486.893.75 1.15.265.256.45.428.55.55z" fill="#00693F"/><path d="M10.623 11.109a.47.47 0 01-.238-.043c-.072-.034-.134-.067-.21-.067-.077 0-.49-.03-.557-.053a1.26 1.26 0 00-.329-.052c-.076.004-.195.058-.243.058-.048 0-.071.037-.071.076 0 .037.01.11.066.147.1-.004.243-.013.262-.033.138.038.324.077.438.081.115.005.32.014.396.01.076-.005.09-.03.19.005.1.033.234.105.295.124.062.019.1-.043.114-.11.016-.067-.032-.149-.113-.143z" fill="#FFD420"/><path d="M9.6 8.334c-.003 0-.006.004-.01.004-.02-.096-.12-.164-.177-.161-.174.046-.164.368-.007.478a.22.22 0 01.043-.145c.013.04.043.076.121.085.083-.029.055-.211.03-.26z" fill="#fff"/><path d="M9.525 8.701c.082.071.238.058.313.016.136.078.282.09.472.028a.382.382 0 00.167.011c.022-.022.043-.035.065-.05a.39.39 0 01-.107-.164s.036-.043.05-.064a.97.97 0 00-.143-.115.296.296 0 00.043-.085.464.464 0 01-.172-.1l.007-.043c-.116-.007-.111-.15-.364-.193-.171-.029-.428.043-.443.236.096.093.241.216.157.419a.33.33 0 01-.085.079c.014.015.024.017.04.025z" fill="#7D76B6"/><path d="M10.19 11.233c-.048-.006-.095-.058-.095-.1 0-.044.004-.13.085-.14-.027-.045-.064-.057-.101-.051-.034-.042-.09-.05-.142-.04l.005-.008c-.045-.036-.096-.028-.14-.006-.082-.049-.207.012-.227.163-.019.148.057.253.167.247v-.001c.05.024.12.002.138-.027v-.01c.045.03.09.03.131.001.015.013.029.028.05.033.063.015.11-.037.129-.061z" fill="#fff"/><path d="M9.757 8.105c-.128 0-.125.193 0 .193s.128-.193 0-.193z" fill="#FFD420"/><path d="M9.757 8.178c-.032 0-.031.048 0 .048s.032-.048 0-.048z" fill="#000"/></svg>