<svg width="20" height="20" fill="none" xmlns="http://www.w3.org/2000/svg"><g clip-path="url(#clip0_0_13035)"><path d="M0 7.778h20v4.444H0V7.778z" fill="#EEE"/><path d="M17.778 2.778H2.222A2.222 2.222 0 000 5v2.778h20V5a2.222 2.222 0 00-2.222-2.222zM0 15a2.222 2.222 0 002.222 2.222h15.556A2.222 2.222 0 0020 15v-2.778H0V15z" fill="#0156A3"/><path d="M10.147 9.867l-.138-.426-.139.426h-.447l.362.262-.139.427.363-.264.362.264-.138-.426.362-.263h-.448zm2.962 1.377l-.138.426.362-.263.362.263-.138-.425.362-.263h-.447l-.139-.426-.138.426h-.448l.362.263zm.363-2.488l-.139-.426-.138.426h-.448l.362.262-.138.427.362-.264.362.264-.138-.427.362-.262h-.447zm-7.06 2.489l-.138.425.362-.263.362.263-.138-.425.362-.263h-.448l-.138-.426-.138.426H6.05l.362.263zm.362-2.49l-.138-.425-.138.426H6.05l.362.262-.138.427.362-.264.362.264-.138-.427.362-.262h-.448z" fill="#2657A7"/></g><defs><clipPath id="clip0_0_13035"><path fill="#fff" d="M0 0h20v20H0z"/></clipPath></defs></svg>