<svg width="20" height="20" fill="none" xmlns="http://www.w3.org/2000/svg"><g clip-path="url(#clip0_0_12617)"><path d="M6.154 11.667L10 17.222l3.847-5.555H6.154z" fill="#fff"/><path d="M5.71 8.333l-.058-.012 2.216-.46L5.983 6.52l2.21.494L6.926 4.99l1.867 1.372-.456-2.394 1.24 2.042.423-2.4.424 2.4 1.24-2.041-.456 2.393 1.866-1.372-1.266 2.022 2.21-.494-1.885 1.343 2.215.46-.059.011h1.865l3.309-4.78a2.216 2.216 0 00-1.685-.775H2.222a2.215 2.215 0 00-1.685.776l3.309 4.78H5.71z" fill="#141414"/><path d="M14.348 8.321l-2.216-.46 1.885-1.342-2.21.494 1.268-2.022-1.867 1.372.456-2.393-1.24 2.042-.424-2.4-.424 2.4-1.24-2.042.456 2.393-1.866-1.372 1.266 2.022-2.209-.494 1.885 1.343-2.216.46.059.012h8.579l.058-.013z" fill="#FCD116"/><path d="M5.71 8.334H3.846l2.307 3.333h7.693l2.308-3.333H5.71z" fill="#0072C6"/><path d="M16.154 8.333l-2.308 3.333L10 17.223h7.778A2.222 2.222 0 0020 15V5c0-.553-.203-1.057-.537-1.446l-3.31 4.78zm-12.308 0L.537 3.553A2.212 2.212 0 000 5v10a2.222 2.222 0 002.222 2.222H10l-3.846-5.556-2.308-3.333z" fill="#CE1126"/></g><defs><clipPath id="clip0_0_12617"><path fill="#fff" d="M0 0h20v20H0z"/></clipPath></defs></svg>