<svg width="20" height="20" fill="none" xmlns="http://www.w3.org/2000/svg"><g clip-path="url(#clip0_0_12751)"><path d="M20 15a2.222 2.222 0 01-2.222 2.222H2.222A2.222 2.222 0 010 15V5a2.222 2.222 0 012.222-2.222h15.556A2.222 2.222 0 0120 5v10z" fill="#ED1C23"/><path d="M0 9.444h20v3.89H0v-3.89z" fill="#034EA2"/><path d="M20 9.444V5a2.222 2.222 0 00-2.222-2.222H2.222A2.222 2.222 0 000 5v4.444h20z" fill="#FD0"/><path d="M12.778 10.556a1.111 1.111 0 01-1.11 1.11H8.333a1.111 1.111 0 01-1.111-1.11V8.889a1.111 1.111 0 011.11-1.111h3.334a1.111 1.111 0 011.111 1.11v1.668z" fill="#FD0"/><path d="M12.222 10c0 .613-.498 1.667-1.111 1.667H8.888c-.613 0-1.11-1.054-1.11-1.667v-.556a1.111 1.111 0 011.11-1.11h2.223a1.111 1.111 0 011.11 1.11V10z" fill="#034EA2"/><path d="M11.666 10c0 .613-.497 1.667-1.11 1.667H9.443c-.613 0-1.111-1.054-1.111-1.667v-.556a1.111 1.111 0 011.111-1.11h1.111a1.111 1.111 0 011.111 1.11V10z" fill="#ED1C23"/><path d="M11.096 7.853c-.074.27-.534.48-1.096.48s-1.022-.21-1.096-.48c-.67.095-.57.274-.57.48 0 .307.439.556 1.666.556 1.227 0 1.667-.249 1.667-.556 0-.206.098-.385-.571-.48z" fill="#6DBE46"/><path d="M10.555 10.556a.555.555 0 11-1.11 0V8.889a.556.556 0 111.11 0v1.667z" fill="#A6D388"/><path d="M11.944 6.667c.245 0 .477.029.693.076-.347-.598-1.526-1.187-2.637-.076-1.111-1.111-2.29-.522-2.637.076.228-.05.46-.076.692-.076 1.074 0 1.945.498 1.945 1.11 0-.612.87-1.11 1.944-1.11z" fill="#662113"/><path d="M10 11.667c.613 0 1.11-.87 1.11-1.945 0-1.074-.497-1.944-1.11-1.944-.614 0-1.111.87-1.111 1.944 0 1.074.497 1.945 1.11 1.945z" fill="#8ED2E7"/><path d="M9.722 9.444a1.93 1.93 0 00-.828.192c0 .029-.005.057-.005.086 0 1.074.497 1.945 1.11 1.945.558 0 1.015-.72 1.095-1.655a1.94 1.94 0 00-1.372-.568z" fill="#6DBE46"/><path d="M10 12.778c.92 0 1.666-.249 1.666-.556 0-.306-.746-.555-1.666-.555-.92 0-1.667.248-1.667.555 0 .307.746.556 1.667.556z" fill="#FFCC4D"/><path d="M11.11 12.778c0 .46-.497.555-1.11.555-.614 0-1.111-.095-1.111-.555 0-.46.497-1.111 1.11-1.111.614 0 1.112.65 1.112 1.11z" fill="#034EA2"/><path d="M9.444 12.778c0-.46.25-1.111.556-1.111.307 0 .555.65.555 1.11 0 .46-.248.556-.555.556-.307 0-.556-.095-.556-.555z" fill="#ED1C23"/><path d="M9.444 6.111c0-.307.25 0 .556 0 .307 0 .555-.307.555 0a.555.555 0 11-1.11 0z" fill="#CCD6DD"/><path d="M10 10c.307 0 .555-.124.555-.278 0-.153-.248-.278-.555-.278-.307 0-.556.125-.556.278 0 .154.25.278.556.278z" fill="#fff"/><path d="M7.223 8.889c.306 0 .555-.125.555-.278 0-.153-.249-.278-.555-.278-.307 0-.556.125-.556.278 0 .153.249.278.556.278zm.555-1.111c.307 0 .556-.125.556-.278 0-.153-.249-.278-.556-.278-.307 0-.555.125-.555.278 0 .153.248.278.555.278zm5 1.111c.307 0 .556-.125.556-.278 0-.153-.249-.278-.556-.278-.307 0-.555.125-.555.278 0 .153.248.278.555.278zm-.555-1.111c.306 0 .555-.125.555-.278 0-.153-.249-.278-.556-.278-.306 0-.555.125-.555.278 0 .153.249.278.556.278z" fill="#C1694F"/></g><defs><clipPath id="clip0_0_12751"><path fill="#fff" d="M0 0h20v20H0z"/></clipPath></defs></svg>