<svg width="20" height="20" fill="none" xmlns="http://www.w3.org/2000/svg"><g clip-path="url(#clip0_0_12812)"><path d="M17.778 2.778H2.222a2.23 2.23 0 00-.335.025l-.003.974-1.516-.002C.128 4.138-.001 4.565 0 5v10a2.222 2.222 0 002.222 2.222h15.556A2.222 2.222 0 0020 15V5a2.222 2.222 0 00-2.222-2.222z" fill="#00247D"/><path d="M18.592 12.58a2.164 2.164 0 01-.425-.385c-.157-.26-.336-.315-.46-.315-.015 0-.032.003-.049.005a.58.58 0 00.097-.287V6.47h-5.602v5.128c0 .091.038.188.097.287a.41.41 0 00-.05-.005c-.123 0-.302.055-.459.315-.04.064-.269.283-.425.385a.466.466 0 00-.214.373c-.012.222.115.479.326.655.086.072.189.11.296.11a.58.58 0 00.365-.146c.923.762 1.863 1.133 2.865 1.133 1.001 0 1.941-.371 2.864-1.133a.583.583 0 00.365.145.456.456 0 00.296-.11c.211-.175.338-.431.326-.654a.464.464 0 00-.213-.373z" fill="#fff"/><path d="M14.954 13.354c-1.239-.553-2.523-1.372-2.523-1.757v-4.85h5.046v4.85c0 .385-1.284 1.205-2.523 1.757z" fill="#006129"/><path d="M13.932 9.94c-.113.043-.148-.261 0-.478.148-.217.582-.66.678-1.068.095-.407.263-.347.344-.46.081-.112.093-.243 0-.268-.093-.026-.223-.061-.136-.4.087-.338.46-.304.46-.07 0 .235-.087.443 0 .626.086.182.287.139.408.486s.165.685.086.833c-.078.148-.121.712-.225.86-.104.147-.244.086-.218-.183.027-.269.2-.634.252-.824.052-.191-.078-.582-.269-.625-.19-.043-.538.4-.694.582-.156.182-.495.32-.512.468-.018.147-.06.477-.174.52z" fill="#FFC6B5"/><path d="M15.982 12.153c-.2.043-.643.208-.886.148-.243-.061-.677.095-.738.013-.06-.083.06-.534.079-.742.017-.209.043-.417.008-.417-.034 0-.18 0-.104-.373.078-.374.208-1.06.208-1.06s-.13-.051-.052-.26c.078-.208.173-.703.148-.816-.026-.113-.217-.078-.148-.252.07-.173.122-.208.173-.338.053-.13.16-.233.235-.2.075.034.16.13.245.079.084-.052.093-.13.206-.122.113.01.354.236.304.287-.05.051-.142.228-.158.448-.016.22-.154.759-.198.933-.043.173.148.59.252.98.104.39.426 1.692.426 1.692z" fill="#fff"/><path d="M14.823 7.015c.051-.133.299-.245.507-.08.208.165.295.47.148.652-.148.182-.233.138-.29 0-.057-.14.004-.264-.075-.305-.078-.043-.008-.164-.078-.19-.07-.026-.284.117-.212-.077z" fill="#9C5100"/><path d="M12.841 6.936c-.035-.04-.124.122-.089.235.035.113.026.219.094.202.068-.017.052-.116.097-.195.034-.06-.105-.043-.06-.112l-.042-.13z" fill="red"/><path d="M12.7 7.335h.46s.06-.208.155-.217c.096-.01.122.208.122.208s.217.052.312-.009.33.009.148.113c-.182.104-.078-.113-.182 0s-.2.156-.182.2c.017.043-.055.077-.201.077-.147 0-.242-.034-.224-.103.017-.07-.096-.096-.226-.122a.27.27 0 01-.183-.147z" fill="#F8C600"/><path d="M12.841 7.818c-.035-.04-.124.122-.089.235.035.112.026.22.094.202.068-.017.052-.116.097-.194.034-.061-.105-.043-.06-.113l-.042-.13z" fill="red"/><path d="M12.7 8.217h.46s.06-.208.155-.217c.096-.009.122.208.122.208s.217.053.312-.009c.096-.06.33.01.148.113-.182.105-.078-.113-.182 0s-.2.156-.182.2c.017.043-.055.077-.201.077-.147 0-.242-.033-.224-.103.017-.07-.096-.095-.226-.122a.27.27 0 01-.183-.147z" fill="#F8C600"/><path d="M12.841 8.799c-.035-.039-.124.122-.089.235.035.113.026.22.094.202.068-.017.052-.115.097-.194.034-.061-.105-.044-.06-.113l-.042-.13z" fill="red"/><path d="M12.7 9.198h.46s.06-.208.155-.217c.096-.009.122.209.122.209s.217.052.312-.01c.095-.06.33.01.148.113-.182.105-.078-.112-.182 0-.104.113-.2.157-.182.2.017.043-.055.078-.201.078-.147 0-.242-.035-.224-.104.017-.07-.096-.096-.226-.122a.27.27 0 01-.183-.147z" fill="#F8C600"/><path d="M13.397 9.754c-.035-.039-.124.122-.09.235.036.113.026.22.095.202.068-.017.051-.115.096-.194.035-.061-.104-.044-.06-.113l-.041-.13z" fill="red"/><path d="M13.255 10.153h.46s.06-.209.156-.217c.096-.01.122.208.122.208s.217.052.312-.009c.095-.06.33.009.148.113-.183.104-.079-.113-.183 0s-.199.156-.182.2c.017.043-.054.077-.2.077-.147 0-.242-.034-.225-.104.017-.07-.095-.095-.225-.121a.276.276 0 01-.183-.147z" fill="#F8C600"/><path d="M12.809 10.532c-.035-.04-.124.122-.09.235.035.113.027.22.095.202.068-.017.052-.116.097-.195.034-.06-.105-.043-.061-.112l-.041-.13z" fill="red"/><path d="M12.667 10.931h.46s.06-.208.156-.217c.096-.009.122.208.122.208s.217.052.312-.009c.095-.06.33.01.148.113-.183.105-.079-.113-.183 0s-.199.156-.182.2c.018.043-.054.077-.2.077-.147 0-.243-.034-.225-.104.018-.069-.095-.095-.225-.121-.13-.026-.183-.147-.183-.147z" fill="#F8C600"/><path d="M12.809 11.46c-.035-.038-.124.123-.09.236.035.113.027.22.095.202.068-.017.052-.116.097-.195.034-.06-.105-.043-.061-.112l-.041-.13z" fill="red"/><path d="M12.667 11.86h.46s.06-.208.156-.217c.096-.009.122.208.122.208s.217.052.312-.009c.095-.06.33.01.148.113-.183.104-.079-.113-.183 0s-.199.156-.182.2c.018.043-.054.077-.2.077-.147 0-.243-.034-.225-.104.018-.069-.095-.095-.225-.121-.13-.026-.183-.147-.183-.147z" fill="#F8C600"/><path d="M16.122 11.46c-.035-.038-.124.123-.089.236.035.113.026.22.094.202.069-.017.052-.116.097-.195.034-.06-.105-.043-.06-.112l-.042-.13z" fill="red"/><path d="M15.981 11.86h.46s.061-.208.157-.217c.095-.009.121.208.121.208s.217.052.312-.009c.096-.06.33.01.148.113-.182.104-.078-.113-.182 0s-.2.156-.182.2c.017.043-.055.077-.2.077-.147 0-.243-.034-.225-.104.017-.069-.096-.095-.226-.121a.268.268 0 01-.183-.147z" fill="#F8C600"/><path d="M16.122 10.588c-.035-.038-.124.123-.089.236.035.113.026.22.094.202.069-.017.052-.116.097-.195.034-.06-.105-.043-.06-.113l-.042-.13z" fill="red"/><path d="M15.981 10.987h.46s.061-.208.157-.217c.095-.009.121.208.121.208s.217.053.312-.008c.096-.061.33.008.148.112-.182.104-.078-.113-.182 0s-.2.156-.182.2c.017.043-.055.078-.2.078-.147 0-.243-.035-.225-.104.017-.07-.096-.096-.226-.122a.266.266 0 01-.183-.147z" fill="#F8C600"/><path d="M16.122 9.696c-.035-.04-.124.122-.089.235.035.113.026.22.094.202.069-.017.052-.116.097-.195.034-.06-.105-.043-.06-.112l-.042-.13z" fill="red"/><path d="M15.981 10.094h.46s.061-.208.157-.217c.095-.009.121.209.121.209s.217.052.312-.01c.096-.06.33.01.148.113-.182.104-.078-.112-.182 0-.104.113-.2.157-.182.2.017.043-.055.078-.2.078-.147 0-.243-.034-.225-.104.017-.07-.096-.095-.226-.121a.268.268 0 01-.183-.148z" fill="#F8C600"/><path d="M16.122 8.799c-.035-.039-.124.122-.089.235.035.113.026.22.094.202.069-.017.052-.115.097-.194.034-.06-.105-.044-.06-.113l-.042-.13z" fill="red"/><path d="M15.981 9.198h.46s.061-.208.157-.217c.095-.009.121.209.121.209s.217.052.312-.01c.096-.06.33.01.148.113-.182.104-.078-.112-.182 0-.104.113-.2.157-.182.2.017.043-.055.078-.2.078-.147 0-.243-.035-.225-.104.017-.07-.096-.096-.226-.122a.268.268 0 01-.183-.147z" fill="#F8C600"/><path d="M16.122 7.874c-.035-.039-.124.123-.089.236.035.113.026.219.094.202.069-.017.052-.116.097-.195.034-.06-.105-.043-.06-.113l-.042-.13z" fill="red"/><path d="M15.981 8.274h.46s.061-.208.157-.217c.095-.01.121.208.121.208s.217.052.312-.009c.096-.06.33.009.148.113-.182.104-.078-.113-.182 0s-.2.156-.182.2c.017.043-.055.077-.2.077-.147 0-.243-.034-.225-.104.017-.07-.096-.095-.226-.121a.268.268 0 01-.183-.147z" fill="#F8C600"/><path d="M16.122 6.936c-.035-.04-.124.122-.089.235.035.113.026.219.094.202.069-.017.052-.116.097-.195.034-.06-.105-.043-.06-.112l-.042-.13z" fill="red"/><path d="M15.98 7.335h.46s.061-.208.157-.217c.095-.01.121.208.121.208s.218.052.313-.009c.095-.06.33.009.148.113-.183.104-.079-.113-.183 0s-.2.156-.182.2c.017.043-.054.077-.2.077-.147 0-.243-.034-.225-.103.017-.07-.095-.096-.226-.122a.268.268 0 01-.182-.147zm2.46 5.477c-.173-.113-.443-.359-.512-.474-.07-.116-.208-.277-.356-.105-.148.171-1.323 1.317-2.62 1.317-1.295 0-2.47-1.145-2.618-1.317-.148-.173-.287-.01-.356.105-.07.115-.338.361-.512.474-.174.113-.07.408.139.582.208.174.46-.209.46-.209.72.643 1.657 1.242 2.887 1.242s2.168-.6 2.888-1.242c0 0 .252.383.46.209.209-.174.314-.469.14-.582z" fill="#F8C600"/><path d="M10.556 10V2.778H2.222c-.178 0-.335.025-.335.025l-.003.974-1.516-.002s-.024.033-.07.114A2.216 2.216 0 000 5v5h10.556z" fill="#00247D"/><path d="M10.556 2.778H9.26L6.667 4.594V2.778H3.889v1.427L1.887 2.803a2.19 2.19 0 00-.93.37L3.57 5h-.964L.537 3.55a2.306 2.306 0 00-.17.225L2.119 5H0v2.778h2.158L0 9.315V10h1.851L3.89 8.573V10h2.778V8.184L9.26 10h1.296V8.873L8.992 7.778h1.564V5H8.992l1.564-1.095V2.778z" fill="#EEE"/><path d="M6.111 2.778H4.444v2.778H0v1.666h4.444V10h1.667V7.222h4.445V5.556H6.11V2.778z" fill="#CF1B2B"/><path d="M10.556 2.778h-.812L6.667 4.933V5h.873l3.016-2.112v-.11zm-9.598.394a2.251 2.251 0 00-.42.379L2.606 5h.964L.958 3.172zm2.619 4.606L.408 10h.96l2.521-1.765v-.457h-.312zm6.979 2.112v-.678L8.508 7.778h-.969l3.017 2.112z" fill="#CF1B2B"/></g><defs><clipPath id="clip0_0_12812"><path fill="#fff" d="M0 0h20v20H0z"/></clipPath></defs></svg>