<svg width="20" height="20" fill="none" xmlns="http://www.w3.org/2000/svg"><g clip-path="url(#clip0_0_13250)"><path d="M.758 16.66c.402.36.924.56 1.464.562h15.556A2.222 2.222 0 0020 15v-2.5H6.357l-5.6 4.16z" fill="#00ABC9"/><path d="M9.722 10l-3.366 2.5H20v-5H6.356L9.722 10z" fill="#FAE042"/><path d="M17.778 2.778H2.222c-.564 0-1.073.216-1.464.563L6.357 7.5H20V5a2.222 2.222 0 00-2.222-2.222z" fill="#00ABC9"/><path d="M9.722 10L6.357 7.5l-5.6-4.16A2.208 2.208 0 000 5v10c0 .663.297 1.252.758 1.66l5.599-4.16L9.722 10z" fill="#141414"/></g><defs><clipPath id="clip0_0_13250"><path fill="#fff" d="M0 0h20v20H0z"/></clipPath></defs></svg>