<svg width="20" height="20" fill="none" xmlns="http://www.w3.org/2000/svg"><g clip-path="url(#clip0_0_12745)"><path d="M2.222 2.778A2.222 2.222 0 000 5v10a2.222 2.222 0 002.222 2.222h3.334V2.778H2.222zm15.556 0h-3.334v14.444h3.334A2.222 2.222 0 0020 15V5a2.222 2.222 0 00-2.222-2.222z" fill="#D52B1E"/><path d="M5.556 2.778h8.889v14.444h-8.89V2.778z" fill="#EEE"/><path d="M10.342 12.285l1.927.223-.17-.557a.255.255 0 01.089-.265l1.932-1.574-.4-.188c-.176-.063-.127-.163-.063-.401l.295-1.076-1.123.237a.173.173 0 01-.2-.12l-.144-.505-.888.996c-.126.16-.381.16-.302-.209l.38-2.018-.51.263c-.143.08-.286.094-.365-.049l-.703-1.314-.703 1.314c-.08.143-.222.13-.365.05l-.51-.264.38 2.018c.08.37-.176.37-.302.21l-.888-.997-.144.506c-.017.067-.09.136-.2.12l-1.122-.237.295 1.075c.062.239.111.338-.065.401l-.4.189 1.933 1.574c.077.06.116.167.088.264l-.17.557 1.928-.223c.059 0 .098.033.097.1l-.119 2.059h.532l-.119-2.058c.001-.068.04-.101.099-.101z" fill="#D52B1E"/></g><defs><clipPath id="clip0_0_12745"><path fill="#fff" d="M0 0h20v20H0z"/></clipPath></defs></svg>