<svg width="20" height="20" fill="none" xmlns="http://www.w3.org/2000/svg"><g clip-path="url(#clip0_0_12950)"><path d="M2.222 2.778A2.222 2.222 0 000 5v10a2.222 2.222 0 002.222 2.222h3.89V2.778h-3.89z" fill="#006847"/><path d="M17.778 2.778h-3.89v14.444h3.89A2.222 2.222 0 0020 15V5a2.222 2.222 0 00-2.222-2.222z" fill="#CE1126"/><path d="M6.111 2.778h7.778v14.444H6.111V2.778z" fill="#EEE"/><path d="M12.778 10a2.778 2.778 0 01-5.555 0h-.556a3.333 3.333 0 106.667 0h-.556z" fill="#A6D388"/><path d="M7.524 11.26a.277.277 0 00-.525.149.278.278 0 00.03.104c.05.099.104.195.164.287l.002.004.004.006.002.004v.002l.003.002.001.004.002.004.002.003v.002l.003.002v.001l.002.002v.002l.002.003.002.002.001.003v.001l.003.003v.001l.004.006.003.004c.029.043.058.084.09.126a.276.276 0 00.46-.024.277.277 0 00-.016-.308 3.311 3.311 0 01-.24-.394zm-.276-.878a2.933 2.933 0 01-.026-.463.278.278 0 00-.27-.286h-.02a.278.278 0 00-.265.27 4.484 4.484 0 000 .173v.09l.001.002v.016l.001.005v.006c.005.09.014.178.026.265a.278.278 0 00.416.201.28.28 0 00.137-.28zm2.94 2.389h-.003l-.068.004a2.839 2.839 0 01-.395-.011.277.277 0 10-.055.553l.069.006h.013l.001.001h.01l.003.001h.01l.003.001h.008c.084.006.17.008.255.007h.049l.004-.001h.028l.003-.002h.028l.07-.005a.274.274 0 00.252-.292.276.276 0 00-.18-.246.275.275 0 00-.105-.017zm-1.354-.25a2.812 2.812 0 01-.402-.228.275.275 0 00-.329.011.278.278 0 00.014.447l.004.002.003.004.004.002.003.003c.148.1.304.188.468.264a.278.278 0 00.235-.504zm2.794-.22a.276.276 0 00-.137.044c-.13.082-.267.154-.408.215a.277.277 0 00.118.533.294.294 0 00.096-.02l.075-.034.004-.002h.001l.002-.002h.003l.002-.001v-.001h.004l.001-.002.002-.001.003-.001h.002l.002-.002h.001l.003-.002h.001l.003-.002h.001l.004-.002.004-.002.003-.001h.001l.003-.003h.001l.004-.002h.004l.004-.003h.001l.002-.002h.001l.004-.002.004-.002.004-.002.004-.002.008-.004.004-.002.008-.004.004-.002.004-.001.008-.005.003-.002.013-.006.004-.001.008-.005.004-.002.004-.001a.007.007 0 01.004-.003l.004-.002.003-.002.008-.004.005-.002.003-.002.004-.002.004-.002.004-.002.004-.002.004-.003.003-.001h.001l.003-.003h.001l.003-.002h.001l.003-.002.004-.002.004-.002h.001l.002-.002h.002l.003-.002h.001c0-.002.001-.002.002-.002l.002-.001.002-.001.002-.001.002-.001.002-.002h.001l.002-.002h.003l.002-.001.001-.002h.002l.003-.002.003-.002.002-.002h.002l.003-.001v-.001l.003-.002h.002l.001-.002h.002l.003-.002v-.001c.002 0 .004 0 .005-.002l.003-.001.003-.003h.002l.003-.002.007-.004.005-.003a.048.048 0 01.01-.006l.107-.065a.278.278 0 00.084-.383.31.31 0 00-.254-.126zm1.429-2.566h-.014a.278.278 0 00-.266.277c0 .154-.014.31-.04.46a.278.278 0 10.549.094v-.008l.001-.001v-.008c.002 0 .002-.002.002-.002v-.004a3.45 3.45 0 00.029-.217v-.011l.001-.002v-.007h.001v-.016l.002-.002c.007-.092.011-.184.011-.276a.278.278 0 00-.276-.277zm-.247 1.498a.28.28 0 00-.307.026.279.279 0 00-.07.083 2.7 2.7 0 01-.258.384.277.277 0 00.435.346c.065-.081.127-.166.184-.253 0-.004.004-.008.006-.011l.003-.004.002-.005.002-.003.003-.003a.005.005 0 00.002-.004l.003-.004.002-.003.002-.004v-.001l.002-.003.002-.001v-.003h.002l.001-.003v-.002l.003-.002c0-.002 0-.003.002-.004v-.001l.003-.002v-.004h.003l.001-.004.003-.004v-.001l.002-.002v-.002l.002-.002.001-.002.002-.002v-.002l.001-.002.002-.001v-.002c.002 0 .002-.001.002-.002v-.002l.002-.002.002-.002v-.002l.001-.002.002-.002.002-.002v-.001l.002-.003v-.002s.002 0 .002-.002l.002-.003.001-.002.002-.002v-.001l.002-.003v-.002l.001-.001.002-.003.001-.002.001-.001.001-.003h.002v-.004h.002v-.004h.002l.001-.003h.001l.001-.004h.001l.002-.004v-.001l.002-.003v-.001l.002-.003.002-.004h.001l.001-.004.003-.004.002-.003.002-.004h.001l.014-.027a.277.277 0 00-.11-.373z" fill="#5C913B"/><path d="M10 12.222c.92 0 1.666-.248 1.666-.555 0-.307-.746-.556-1.666-.556-.92 0-1.667.249-1.667.556 0 .306.746.555 1.667.555z" fill="#55ACEE"/><path d="M10.278 12.222c.46 0 .833-.248.833-.555 0-.307-.373-.556-.833-.556-.46 0-.834.249-.834.556 0 .306.373.555.834.555z" fill="#FFCC4D"/><path d="M10.62 11.819a.28.28 0 01-.244-.41c.09-.164.183-.312.28-.442a5.44 5.44 0 01-.24.005c-.153 0-.293-.125-.293-.279 0-.153.108-.277.262-.277h.046c.164 0 .333-.01.484-.024a.27.27 0 01.228.087 1.342 1.342 0 01.18-.107.273.273 0 01.117-.052l.02-.004a.699.699 0 01.207-.038.278.278 0 01.265.36c-.046.147-.147.18-.326.216a.668.668 0 00-.132.071.282.282 0 01-.333-.019.278.278 0 010 .341 3.06 3.06 0 00-.276.427.277.277 0 01-.244.145zm-.788-.883c-.012 0-.025 0-.037-.002a3.874 3.874 0 01-.586-.123.276.276 0 01-.188-.345l.004-.011-.007.012a.278.278 0 01-.378.107 2.292 2.292 0 01-.504-.378.278.278 0 01.393-.393c.109.11.237.205.382.286a.278.278 0 01.127.332.278.278 0 01.328-.143c.153.046.321.08.5.105a.278.278 0 01-.034.553zm-1.362-1.3c-.237 0-.543-.091-.729-.31-.284-.335-.451-.766-.426-1.096.007-.088-.08-.16-.164-.182-.048-.012-.133-.02-.173.066a.139.139 0 11-.252-.117c.086-.188.28-.272.495-.218.2.052.39.231.37.473-.02.256.126.616.362.894.124.147.34.206.486.212.12.006.18-.021.193-.033-.031-.074-.443-.29-.618-.383-.15-.078-.194-.186-.205-.262-.038-.253.222-.509.473-.756.088-.087.172-.169.218-.23.051-.068.043-.113.033-.142-.038-.104-.204-.206-.404-.25-.185-.042-.31-.131-.372-.267-.08-.178-.037-.412.13-.714a.14.14 0 01.243.135c-.158.285-.143.413-.12.465.024.051.084.087.179.108.235.053.517.192.604.427a.42.42 0 01-.071.405c-.058.077-.149.167-.245.262-.143.14-.41.404-.393.517.003.023.033.044.059.057.417.219.694.377.751.57a.253.253 0 01-.023.2c-.054.094-.166.152-.325.166a.836.836 0 01-.076.004z" fill="#5C913B"/><path d="M10.833 10.555c.154 0 .278-.248.278-.555 0-.307-.124-.556-.278-.556-.153 0-.277.25-.277.556 0 .307.124.555.277.555zM9.607 9.549c0 .16-.192.29-.428.29-.237 0-.429-.13-.429-.29 0-.16.192-.29.429-.29.236 0 .428.13.428.29zm-.66-2.57c.028.117-.126.255-.343.307-.218.051-.417-.003-.445-.12-.028-.119.126-.257.343-.308.218-.051.418.002.445.12z" fill="#FFCC4D"/><path d="M12.518 9.975c.05.039.135-.405.122-.543 0-.01-.016-.304.046-.514.039-.07.041-.601-.018-.74.047-.005.103-.02.11-.076-.216.08-.267-.454-.474-.76-.2-.308-.45-.487-.71-.674a.543.543 0 01.09-.15c-.32.16-.818-.42-1.554-.376-.165.016-.243.026-.285.127-.137.012-.277.043-.277.223 0 .044.04.122.127.123.12.035.218.008.3.176l.022.173s-.108-.137-.167-.159l.037-.074c-.056-.032-.154-.006-.154-.006s-.214-.1-.386-.073l-.033-.14c-.03.086-.097.082-.107.162-.019-.057-.044-.129-.062-.187-.06.082-.042.171-.064.257-.023.02-.071.02-.083-.035-.006-.067-.015-.073-.015-.154-.043.076-.095.113-.113.244l-.046-.145c.002.171-.145.273-.284.393-.039.072.007.073.01.11l.073.037.132-.01c.022.028.004.03.061.047.153.043.344-.141.494.148-.068.058-.138.193-.116.219.028 0-.055.039.057.003a.987.987 0 00-.196.272c-.013.032.047-.005.035.054l.028-.004c-.266.288-.01.598-.038.764.045.071.05-.002.106-.01.047.205.181.33.263.49l-.173.002c.004.077.073.15.128.217l-.116.037a.627.627 0 00-.195.152c-.039.093.185.116.292.132l-.003.113a.88.88 0 00.362-.043l.043-.033.095.052c.031 0 .08-.127.058-.224.061.073.119.19.18.264l.057-.008c.052.083.124.165.176.248l.059.022c.033-.012.062-.016.08-.083l.027.047.092-.063.065-.013.048.079c.029-.01.056-.072.058-.138.029.057.037.053.058.068l.043-.09.23.216.175.01c.062.042.232.068.261 0 .14.06.305-.008.297-.074a.592.592 0 00.327.008c.024-.003.085-.063.027-.108-.426-.296-1.057-.788-1.301-.906 0-.088-.066-.404-.137-.49l.057-.097c.166.155.226.14.315.164.094.075.127.19.221.293l.085.016a1.434 1.434 0 00-.308-.485c.091.045.242.167.343.255.067.112.087.2.148.34.044.03.09.133.084.047-.011-.162-.125-.418-.125-.436.181.143.179.366.234.503.046.068.07.16.09.139l-.054-.42-.031-.154c.134.077.182.372.244.725 0 .056.023.118.02.154.029.036.061.134.061.076 0 0 0-.575-.04-.707a.654.654 0 01.017-.185c.05.239.101.497.15.735v.175l.074.074c.014-.145.03-.288.045-.431l-.055-.514V8.68c-.001-.052.047-.042.078.017.007.126.007.224.012.35.022.143.037.248.047.43.006.149.013.503.044.497z" fill="#C1694F"/></g><defs><clipPath id="clip0_0_12950"><path fill="#fff" d="M0 0h20v20H0z"/></clipPath></defs></svg>