<svg width="20" height="20" fill="none" xmlns="http://www.w3.org/2000/svg"><g clip-path="url(#clip0_0_13083)"><path d="M20 15a2.222 2.222 0 01-2.222 2.222H2.222A2.222 2.222 0 010 15V5a2.222 2.222 0 012.222-2.222h15.556A2.222 2.222 0 0120 5v10z" fill="#D21C33"/><path d="M17.778 2.778H2.222A2.222 2.222 0 000 5v5h20V5a2.222 2.222 0 00-2.222-2.222z" fill="#00209F"/><path d="M6.667 7.245h6.614v5.533H6.667V7.245z" fill="#fff"/><path d="M13.281 12.012c-.832-.423-1.96-.687-3.278-.687-1.317 0-2.503.264-3.336.687v.766h6.614v-.766z" fill="#006A16"/><path d="M8.624 9.289l.647.728-.08.457-.14-.08-.127.477h-.033l-.06.252-1.099-.093.027-.784.265.076.032-.733.385.262.02-.443.163-.12z" fill="#00209F"/><path d="M10.003 10.712v1.112l-.833-.245-.212-.31-.146-.107.08-.281.125-.487h.192l.047-.41.747.728zm-2.396-.503c.1-.12.285-.04.291 0 .007.04-.073.033-.145.1-.073.065-.053.27-.18.244-.125-.026.034-.344.034-.344zm.45-.62c.128-.086.284.041.28.081-.006.04-.08.012-.168.055-.088.044-.126.247-.24.186-.113-.06.127-.322.127-.322zm.53-.379c.138-.069.277.078.267.117-.01.039-.108-.03-.2.002-.094.031-.13.259-.235.184-.105-.075.167-.303.167-.303z" fill="#D21C33"/><path d="M8.303 8.902l.43.261-.048.126 1.16 1.284v.1L8.638 9.321l-.157-.026-.18-.394zm-.617.387s.43.165.43.185c0 .02.08.153.08.153l1.568 1.27-.046.06-1.556-1.27-.225-.1-.25-.298zm-.457.652s.497.07.504.09l.04.132 1.82.993-.08.047-1.774-.98-.205-.014-.305-.268z" fill="#F1B517"/><path d="M7.66 10.884l1.87.229-.177.213-.277.028.207.278-.1.113-.278-.304s-.086.443-.463.443-.497-.377-.497-.503c0-.127.033-.192.033-.192H7.62l.04-.305z" fill="#F1B517"/><path d="M11.359 9.249l-.676.801.027.463.174-.119.126.477h.033l.06.252 1.098-.093-.026-.785-.265.077-.032-.733-.385.262-.02-.443-.114-.16z" fill="#00209F"/><path d="M10.003 10.712v1.112l.798-.245.194-.31.136-.107-.084-.281-.13-.487-.148.11-.051-.454-.715.662zm2.324-.503c-.1-.12-.286-.04-.292 0-.007.04.073.033.146.1.073.065.054.27.18.244.125-.026-.034-.344-.034-.344zm-.45-.62c-.128-.086-.284.041-.28.081.005.04.08.012.168.055.088.044.126.247.24.186.113-.06-.128-.322-.128-.322zm-.53-.379c-.138-.069-.276.078-.266.117.01.039.106-.03.2.002.092.031.13.259.235.184.105-.075-.168-.303-.168-.303z" fill="#D21C33"/><path d="M11.63 8.902l-.428.261.082.126-1.122 1.284v.1l1.168-1.351.14-.026.16-.394zm.617.387s-.43.165-.43.185c0 .02-.08.153-.08.153l-1.568 1.27.046.06 1.556-1.27.224-.1.252-.298zm.457.652s-.497.07-.503.09a5.2 5.2 0 00-.04.132l-1.82.993.08.047 1.773-.98.206-.014.304-.268z" fill="#F1B517"/><path d="M12.274 10.884l-1.87.229.178.213.276.028-.207.278.1.113.279-.304s.086.443.463.443c.378 0 .497-.377.497-.503a.463.463 0 00-.033-.191h.357l-.04-.306z" fill="#F1B517"/><path d="M12.7 12.301s-.328.012-.672-.063c-.344-.075-.403-.209-.553-.179-.149.03-.496.158-.78.195a9.183 9.183 0 01-.692.048s-.376-.012-.66-.048c-.285-.037-.599-.165-.749-.195-.149-.03-.209.105-.553.18-.344.074-.674.062-.674.062l.09.16-.09.077c.779.014 1.138-.237 1.138-.237.389.258 1.498.265 1.498.265s1.142-.007 1.53-.265c0 0 .376.251 1.154.237l-.082-.078.095-.159z" fill="#fff"/><path d="M10.162 9.941c0 .828-.072 1.5-.162 1.5-.09 0-.162-.672-.162-1.5s.073-1.5.162-1.5c.09 0 .162.672.162 1.5z" fill="#F1B517"/><path d="M9.686 11.348h.635v.636h-.635v-.636z" fill="#D21C33"/><path d="M10.36 11.308c0 .073-.151.132-.34.132-.189 0-.341-.06-.341-.132 0-.073.152-.133.34-.133.19 0 .342.06.342.133z" fill="#fff"/><path d="M10.36 11.943c0 .074-.151.133-.34.133-.189 0-.341-.06-.341-.133 0-.073.152-.132.34-.132.19 0 .342.059.342.132z" fill="#D21C33"/><path d="M11.397 8.163c-.127-.152-.454-.145-.677-.152-.221-.007-.334.073-.234-.033.1-.105.253-.079.414-.086.163-.006.191-.026.091-.079a.685.685 0 00-.505-.059c-.227.059-.37.2-.492.225-.12-.024-.272-.166-.5-.225a.694.694 0 00-.51.06c-.1.052-.072.072.09.078.162.007.314-.02.413.086.1.106-.013.026-.235.033-.222.007-.55 0-.677.152-.127.153.111.053.237.033.126-.02.311-.026.311-.026s-.31.092-.397.212c-.086.119.026.225.186.132.158-.093.403-.218.536-.232 0 0-.345.144-.497.267-.152.124.007.111.123.111a.577.577 0 00.334-.12c.1-.072-.066.146-.093.286-.026.138.179.106.215 0 .037-.107.155-.318.155-.318s-.052.304-.045.51c.007.205.074.218.127.125.053-.092.236.055.236.055s.167-.147.22-.055c.053.093.103.08.11-.125.006-.205-.046-.51-.046-.51s.118.211.155.318c.036.106.242.138.215 0-.026-.14-.192-.358-.092-.285.1.072.218.119.334.119.116 0 .275.013.123-.11-.152-.124-.497-.268-.497-.268.133.014.378.14.537.232.158.093.27-.013.184-.132-.086-.12-.397-.212-.397-.212s.186.007.312.026c.126.02.363.12.236-.033z" fill="#006A16"/></g><defs><clipPath id="clip0_0_13083"><path fill="#fff" d="M0 0h20v20H0z"/></clipPath></defs></svg>