<svg width="20" height="20" fill="none" xmlns="http://www.w3.org/2000/svg"><g clip-path="url(#clip0_0_13230)"><path d="M10 10V2.778H2.222A2.222 2.222 0 000 5v5h10zm0 0v7.222h7.778A2.222 2.222 0 0020 15v-5H10z" fill="#EEE"/><path d="M10 10v7.222H2.222A2.222 2.222 0 010 15v-5h10z" fill="#005293"/><path d="M10 10V2.778h7.778A2.222 2.222 0 0120 5v5H10z" fill="#D21034"/><path d="M5.374 5.874L5 4.722l-.374 1.152H3.415l.98.712-.374 1.151L5 7.025l.98.712-.374-1.152.979-.711h-1.21z" fill="#005293"/><path d="M14.395 13.808l-.374 1.151.979-.711.98.711-.374-1.151.979-.712h-1.21L15 11.944l-.374 1.152h-1.211l.98.712z" fill="#D21034"/></g><defs><clipPath id="clip0_0_13230"><path fill="#fff" d="M0 0h20v20H0z"/></clipPath></defs></svg>