<svg width="20" height="20" fill="none" xmlns="http://www.w3.org/2000/svg"><path d="M20 15a2.222 2.222 0 01-2.222 2.222H2.222A2.222 2.222 0 010 15V5a2.222 2.222 0 012.222-2.222h15.556A2.222 2.222 0 0120 5v10z" fill="#265FB5"/><path d="M0 7.222h20v5.556H0V7.222z" fill="#EEE"/><path d="M12.532 10a2.53 2.53 0 11-5.061.075A2.53 2.53 0 0112.53 10z" fill="#A9BF4C"/><path d="M10 12.222a2.222 2.222 0 100-4.444 2.222 2.222 0 000 4.444z" fill="#EEE"/><path d="M8.2 11.197l1.793-3.106 1.793 3.106H8.199z" fill="#265FB5"/><path d="M8.397 11.077l1.595-2.76 1.594 2.76H8.397z" fill="#55ACEE"/><path d="M8.397 11.077l.385-.666 2.402-.03.402.696H8.397z" fill="#BBDDF5"/><path d="M8.707 10.642l.599-.486.26.295.226-.243.191.19.182-.199.218.2.199-.208.182.208.174-.191.286.356.053.104s-.304.06-.721.026-.66.06-.99.105c-.33.043-.92-.043-.92-.043l.061-.114z" fill="#5C913B"/><path d="M9.297 10.26l.4.434-.2.018-.226-.33.026-.121zm.478.035l.32.287-.147.026-.156-.218-.017-.095zm.408-.017l.277.26-.07.044-.225-.244.018-.06zm.364 0l-.113.104.053.06.06-.164zm.347.009l-.13.164.044.078.095-.182-.009-.06z" fill="#E2F09F"/><path d="M10.017 9.128l.038.516.295-.424-.222.461.461-.222-.424.296.517.037-.517.036.424.296-.461-.222.222.461-.295-.424-.038.517-.036-.517-.295.424.22-.46-.46.22.424-.295-.516-.036.516-.037-.424-.296.46.222-.22-.461.295.424.036-.516z" fill="#BBDDF5"/><path d="M10 9.557l-.104.105s.026.156.017.182C9.904 9.87 10 10 10 10l.13-.156-.035-.209L10 9.557z" fill="#DD2E44"/><path d="M10.052 9.375c.426 0 .669.208.669.208l-.156-.277s-.252-.191-.547-.191c-.295 0-.625.234-.625.234l-.148.295s.382-.269.807-.269z" fill="#269"/><path d="M10.052 9.375c.425 0 .668.208.668.208l-.113-.2s-.303-.181-.598-.181-.66.234-.66.234l-.105.208s.382-.269.808-.269z" fill="#FFCC4D"/><path d="M10.052 9.375c.425 0 .668.208.668.208l-.078-.13s-.234-.165-.634-.148c-.295 0-.703.218-.703.218l-.06.121s.381-.27.807-.27z" fill="#DD2E44"/><path d="M9.77 12.082h.554v.53H9.77v-.53zm-.088-4.114h-.398l-.199-.486.398-.045.2.53zm.907.22l-.265-.087.133-.642.508.044-.376.686zM8.2 10.91l-.773.177-.023-.53.774-.111.022.464zm.2.553l-.642.266-.155-.42.597-.2.2.354zm4.268-.486l-.708-.2v-.375l.796-.111-.088.686zm-.354.73l-.663-.31.22-.398.731.22-.288.488z" fill="#EEE"/></svg>