<svg width="20" height="20" fill="none" xmlns="http://www.w3.org/2000/svg"><g clip-path="url(#clip0_0_12986)"><path d="M20 15a2.222 2.222 0 01-2.222 2.222H2.222A2.222 2.222 0 010 15V5a2.222 2.222 0 012.222-2.222h15.556A2.222 2.222 0 0120 5v10z" fill="#007934"/><path d="M0 7.222h20v5.556H0V7.222z" fill="#FFE000"/><path d="M17.778 2.778H2.222A2.222 2.222 0 000 5v2.222h20V5a2.222 2.222 0 00-2.222-2.222z" fill="#D52B1E"/><path d="M7.163 9.075c.023.035.212.306.212.306h.271l-.11-.153-.373-.153zm.407-.271l.212.306h.272l-.111-.153-.373-.153zm.38-.341c.01.04.102.357.102.357l.257.087-.056-.18-.304-.264z" fill="#fff"/><path d="M7.751 11.943a.044.044 0 01-.05-.006.043.043 0 01-.01-.014.044.044 0 01.02-.06l1.37-.7a.045.045 0 01.06.019.046.046 0 01-.02.06l-1.37.701zm.275.254a.046.046 0 01-.063-.014.046.046 0 01.013-.063l1.283-.848a.045.045 0 01.069.046.045.045 0 01-.019.029l-1.283.85z" fill="#A05A2D"/><path d="M8.304 12.432a.046.046 0 01-.064.004.046.046 0 01-.015-.031.046.046 0 01.011-.033l1.017-1.155a.046.046 0 01.075.01.045.045 0 01-.007.05l-1.017 1.155z" fill="#A05A2D"/><path d="M9.637 11.508l-.316.657-.057-.058-.123.17-.335-.182.416-.813.415.226z" fill="#A05A2D"/><path d="M9.774 12.514l.227-1.074-.024-.94L8.35 8.946l-.114.357-.226-.181-.067.373s-.284-.203-.295-.17c-.011.034-.08.86-.102 1.324-.022.464-.041 1.154.464 1.245.882.158 1.538-.498 1.538-.498s.215.204.226.238c.011.034-.08.43-.113.588-.033.157.114.293.114.293z" fill="#D52B1E"/><path d="M8.642 9.247l-.09.258-.147-.08s-.375 1.89.236 2.037c.612.147.68-.102.68-.102l-.294-.396-.22.102s-.108-.292-.108-.689c0-.354.057-.703.057-.703l.112.08.023-.26-.249-.247z" fill="#FFE000"/><path d="M9.264 9.81l-.373-.317-.023.26-.146-.101s-.082.271-.08.622c0 .35.046.69.046.69s.26.09.395 0c.136-.09.181-1.153.181-1.153z" fill="#007934"/><path d="M9.14 10.874c-.293.126-.894.353-.736.634.159.282.622.17.917-.148.294-.317-.18-.486-.18-.486z" fill="#E8A30F"/><path d="M12.836 9.075c-.022.035-.212.306-.212.306h-.271l.11-.153.373-.153zm-.407-.271l-.211.306h-.272l.11-.153.373-.153zm-.379-.341l-.102.357-.258.087.056-.18.304-.264z" fill="#fff"/><path d="M12.248 11.943a.043.043 0 00.05-.006.048.048 0 00.016-.03.045.045 0 00-.01-.033.046.046 0 00-.015-.011l-1.37-.7a.046.046 0 00-.06.019.045.045 0 00.02.06l1.37.701zm-.274.254a.046.046 0 00.07-.048.044.044 0 00-.02-.028l-1.283-.849a.044.044 0 00-.062.012.044.044 0 00.012.063l1.283.85z" fill="#A05A2D"/><path d="M11.696 12.432a.046.046 0 00.063.005.047.047 0 00.005-.064l-1.017-1.156a.044.044 0 00-.063-.004.044.044 0 00-.005.064l1.017 1.155z" fill="#A05A2D"/><path d="M10.362 11.508l.317.657.057-.058.123.17.335-.182-.416-.813-.416.226z" fill="#A05A2D"/><path d="M10.226 12.514L10 11.44l.023-.94 1.629-1.555.114.357.226-.181.067.373s.283-.203.294-.17c.011.034.08.86.102 1.324.023.464.042 1.154-.463 1.245-.883.158-1.54-.498-1.54-.498s-.214.204-.225.238c-.011.034.08.43.113.588.033.157-.114.293-.114.293z" fill="#D52B1E"/><path d="M11.359 9.247l.09.258.146-.08s.376 1.89-.236 2.037c-.612.147-.68-.102-.68-.102l.294-.396.22.102s.107-.292.107-.689c0-.354-.056-.703-.056-.703l-.112.08-.024-.26.25-.247z" fill="#FFE000"/><path d="M10.735 9.81l.374-.317.023.26.146-.101s.081.271.08.622c-.001.35-.046.69-.046.69s-.26.09-.396 0-.18-1.153-.18-1.153z" fill="#007934"/><path d="M10.86 10.874c.293.126.894.353.736.634-.159.282-.623.17-.917-.148-.294-.317.18-.486.18-.486z" fill="#E8A30F"/><path d="M9.073 8.792c.095.112.09.271-.01.356-.1.085-.258.063-.353-.049-.095-.112-.09-.272.01-.357.1-.085.258-.062.353.05z" fill="#D52B1E"/><path d="M10.972 8.792c-.094.112-.09.271.01.356.101.085.259.063.354-.049.095-.112.09-.272-.01-.357-.1-.085-.258-.062-.354.05z" fill="#E7E7E7"/><path d="M10.611 7.491c-.08.057.148.419.103.815-.046.396-.714.712-.714.712s-.668-.316-.713-.712c-.045-.396.182-.758.102-.815-.08-.056-.498.306-.52.69-.023.385.367.964.622 1.075.256.111.51.17.51.17s.253-.06.51-.17c.255-.11.645-.69.622-1.075-.024-.384-.443-.746-.522-.69z" fill="#007934"/><path d="M10 9.007s.068-.237.51-.373c.44-.136.86-.238 1.018-.249.159-.012-.628-.317-.814-.34-.187-.022-.419.023-.453.16-.034.135-.09.09-.26.113-.17.022-.283-.136-.362-.249-.08-.113-.38-.057-.526-.045-.148.011-.708.362-.708.362s.974.158 1.177.26c.203.102.011.464-.045.566-.057.1.336-.032.463-.205z" fill="#fff"/><path d="M10 9.007s.068-.237.51-.373c.44-.136.859-.238 1.018-.249.158-.012-.577-.238-.764-.26-.187-.023-.334-.023-.368.113-.034.135-.226.057-.396.08-.17.022-.362-.035-.44-.148-.08-.113-.216-.068-.363-.057-.147.012-.792.272-.792.272s.974.158 1.177.26c.203.102.011.464-.045.566-.058.102.335-.03.463-.204z" fill="#000"/><path d="M8.79 10.364c0-.73.541-1.323 1.21-1.323.668 0 1.21.593 1.21 1.323 0 .731-.542 1.324-1.21 1.324-.669 0-1.21-.592-1.21-1.324z" fill="#00A6DE"/><path d="M9.111 10.364c0-.574.398-1.04.889-1.04.49 0 .888.466.888 1.04 0 .576-.398 1.042-.888 1.042s-.889-.466-.889-1.042z" fill="#E8A30F"/><path d="M9.615 9.912a.384.384 0 11.77 0 .384.384 0 01-.77 0z" fill="#D52B1E"/><path d="M10 11.405c.472 0 .858-.43.887-.975-.29-.107-.768-.518-.887-.518-.124 0-.283.136-.486.317a1.38 1.38 0 01-.399.22c.036.535.419.956.885.956z" fill="#007934"/><path d="M10.113 8.407c0 .057-.116.103-.26.103-.144 0-.26-.046-.26-.103 0-.056.116-.101.26-.101.144 0 .26.046.26.101z" fill="#E8A30F"/><path d="M9.547 10.874h.272l.078-.226.103.124-.114.328h-.249l-.09-.226z" fill="#fff"/><path d="M10.237 11.066c0 .106-.053.193-.118.193-.066 0-.119-.086-.119-.193 0-.106.053-.192.119-.192.065 0 .118.086.118.192zm.17.193a.02.02 0 01-.001.009.023.023 0 01-.021.014.022.022 0 01-.023-.023v-.588c0-.013.01-.023.022-.023.013 0 .023.01.023.023v.588z" fill="#B37D0A"/><path d="M10.576 10.613c0 .1-.088.181-.198.181-.109 0-.197-.08-.197-.18 0-.1.089-.182.197-.182.11 0 .198.081.198.181z" fill="#32B266"/></g><defs><clipPath id="clip0_0_12986"><path fill="#fff" d="M0 0h20v20H0z"/></clipPath></defs></svg>