<svg width="20" height="20" fill="none" xmlns="http://www.w3.org/2000/svg"><g clip-path="url(#clip0_0_12708)"><path d="M2.222 2.778A2.222 2.222 0 000 5v8.513L14.72 2.778H2.222z" fill="#009E49"/><path d="M17.777 17.222A2.223 2.223 0 0020 15V6.214L4.87 17.222h12.907z" fill="#CE1126"/><path d="M14.72 2.778L0 13.513v1.04L16.148 2.779H14.72zM4.87 17.222L20 6.214v-1.04L3.443 17.221H4.87z" fill="#FCD116"/><path d="M17.778 2.778h-1.63L0 14.554V15a2.222 2.222 0 002.222 2.222h1.22L20 5.173V5a2.222 2.222 0 00-2.222-2.222z" fill="#141414"/><path d="M15.084 5.405l-1.152.84-1.155-.836.443 1.355-1.152.841 1.426-.003.443 1.356.438-1.357 1.426-.003-1.155-.836.438-1.357zm-7.76 5.659l-1.152.84-1.155-.836.444 1.355-1.152.84 1.426-.002.442 1.356.439-1.358 1.426-.002-1.156-.836.439-1.357z" fill="#fff"/></g><defs><clipPath id="clip0_0_12708"><path fill="#fff" d="M0 0h20v20H0z"/></clipPath></defs></svg>