<svg width="20" height="20" fill="none" xmlns="http://www.w3.org/2000/svg"><g clip-path="url(#clip0_0_12795)"><path d="M0 15a2.222 2.222 0 002.222 2.222h15.556A2.222 2.222 0 0020 15v-2.222H0V15z" fill="#0038A8"/><path d="M0 7.222h20v5.556H0V7.222z" fill="#EEE"/><path d="M17.778 2.778H2.222A2.222 2.222 0 000 5v2.222h20V5a2.222 2.222 0 00-2.222-2.222z" fill="#D52B1E"/><path d="M12.222 10a2.222 2.222 0 11-4.444 0 2.222 2.222 0 014.444 0z" fill="#000"/><path d="M12.083 10A2.081 2.081 0 0110 12.083 2.082 2.082 0 017.916 10a2.084 2.084 0 114.167 0z" fill="#EEE"/><path d="M11.805 10a1.805 1.805 0 11-3.61 0 1.805 1.805 0 013.61 0z" fill="#000"/><path d="M11.737 10a1.738 1.738 0 01-2.963 1.229A1.735 1.735 0 1111.737 10z" fill="#EEE"/><path d="M11.74 9.989a1.74 1.74 0 10-3.245.874L10 10.034l1.504.829a1.74 1.74 0 00.235-.874z" fill="#99AAB5"/><path d="M11.39 10a1.389 1.389 0 11-2.779 0 1.389 1.389 0 012.778 0z" fill="#000"/><path d="M10 11.333a1.333 1.333 0 100-2.666 1.333 1.333 0 000 2.666z" fill="#EEE"/><path d="M10 9.546l.102.314h.33l-.267.194.101.314-.266-.194-.267.194.102-.314-.268-.194h.33L10 9.546z" fill="#FFAC33"/><path d="M10.276 9.176s.167-.039.264-.049c.098-.01.186.216.303.255.12.04.118.156.167.294.049.137.02.166.02.322 0 .157.087.235.068.353-.02.117-.118.146-.176.225-.058.079-.01.176-.069.235-.058.058-.254.049-.323.107-.068.059-.195.147-.284.098-.087-.049-.273-.068-.273-.068s.048-.176.186-.235c.137-.058.195-.05.322-.088.128-.04.118-.098.206-.176.088-.078.098-.186.147-.264.05-.079.059-.138.04-.245a1.834 1.834 0 00-.1-.324 1.184 1.184 0 00-.185-.284c-.059-.068-.313-.156-.313-.156z" fill="#007127"/><path d="M9.67 9.235s.097-.213 0-.225c-.392-.05-.47.303-.588.342-.118.04-.137.235-.185.371-.05.138-.03.167-.03.324 0 .156.003.185.023.303.02.117.046.206.104.284.06.078.081.117.14.175.059.059.174.118.242.177.068.058.277.078.365.03a.835.835 0 01.242-.07s-.066-.117-.203-.175c-.137-.059-.146-.108-.273-.147-.128-.04-.118-.098-.206-.176-.088-.079-.098-.186-.147-.265-.049-.078-.022-.097-.002-.205.019-.108.058-.196.097-.293.04-.098.138-.225.196-.294a1.04 1.04 0 01.224-.156z" fill="#007127"/><path d="M9.68 11.035l.127.088.166-.117.157.107.205-.078-.205.147-.147-.117-.156.107-.157-.088.01-.049z" fill="#007127"/></g><defs><clipPath id="clip0_0_12795"><path fill="#fff" d="M0 0h20v20H0z"/></clipPath></defs></svg>