<svg width="20" height="20" fill="none" xmlns="http://www.w3.org/2000/svg"><path d="M20 15a2.222 2.222 0 01-2.222 2.222H2.222A2.222 2.222 0 010 15V5a2.222 2.222 0 012.222-2.222h15.556A2.222 2.222 0 0120 5v10z" fill="#002D62"/><path d="M17.778 2.778h-6.667v6.11h8.89V5a2.222 2.222 0 00-2.223-2.222z" fill="#DD2E44"/><path d="M2.222 17.222H8.89v-6.11H0V15a2.222 2.222 0 002.222 2.222z" fill="#CE1225"/><path d="M20 8.333h-8.333V2.778H8.333v5.555H0v3.334h8.333v5.555h3.334v-5.555H20V8.333z" fill="#EEE"/><path d="M10.012 8.858H8.947l.186.18v.92h.88v-1.1zm0 2.187c.142-.154.239-.148.64-.148.213 0 .238-.146.238-.429v-.51h-.878v1.087z" fill="#002D62"/><path d="M10.013 11.045c-.142-.154-.239-.148-.64-.148-.214 0-.24-.146-.24-.429v-.51h.88v1.087zm0-2.187h1.064l-.187.18v.92h-.877v-1.1z" fill="#CE1225"/><path d="M10.164 10.932V8.858H9.86v2.075c.06.024.112.063.153.112a.414.414 0 01.151-.113z" fill="#fff"/><path d="M9.134 9.802h1.756v.304H9.134v-.304z" fill="#fff"/><path d="M10.012 9.753l.577-.615v.186l.106-.09v1.029c0 .381-.6.344-.683.168-.083.176-.685.213-.685-.168V9.234l.107.09v-.186l.578.615z" fill="#002D62"/><path d="M10.013 10.413c-.277.148-.457.031-.457-.11v-.177c-.107 0-.228-.055-.228-.09v-.152c0 .045.18.087.228.087v-.533l.1.08v-.139l.153.156v.109l-.1-.085v.45c.103 0 .184.061.304.061.119 0 .2-.061.303-.061v-.45l-.1.085v-.109l.152-.156v.139l.1-.08v.533c.049 0 .229-.042.229-.087v.152c0 .035-.122.09-.228.09v.177c0 .141-.18.259-.456.11v-.155c.148.086.303.107.303.014v-.11c-.103 0-.184.061-.303.061-.12 0-.201-.062-.305-.062v.11c0 .094.156.073.305-.013v.155z" fill="#fff"/><path d="M10.216 9.536v.109l.1-.085v.45c-.104 0-.185.061-.304.061s-.2-.062-.304-.062v-.45l.1.086v-.11l.204.219.204-.218z" fill="#CE1225"/><path d="M9.328 10.037v.226c0 .381.602.344.685.168.082.176.684.213.684-.168v-.226c0 .033-.122.09-.228.09v.176c0 .14-.18.258-.456.11-.277.148-.457.031-.457-.11v-.177c-.107 0-.228-.055-.228-.09z" fill="#CE1225"/><path d="M10.243 8.49c.01-.028.021-.068.031-.104a2.176 2.176 0 00-.525 0c.01.036.02.076.031.104.007.021-.034.073-.183.064a2.315 2.315 0 00-.474.033c.027.041.037.05.034.082-.004.036-.089.07-.237.091-.148.02-.205.174-.257.395a1.01 1.01 0 00-.208-.056c.033-.143.148-.469.292-.502-.035-.078-.026-.116.108-.18.145-.067.39-.108.66-.118-.017-.066 0-.092.086-.128.072-.032.188-.056.411-.056.223 0 .339.024.41.056.086.036.103.062.086.128.27.01.517.051.661.119.134.062.142.101.107.18.143.032.26.358.292.5-.056.01-.15.033-.207.057-.052-.22-.11-.374-.258-.395-.149-.021-.234-.055-.237-.091-.004-.032.007-.04.034-.082a2.312 2.312 0 00-.474-.033c-.148.009-.19-.043-.183-.064z" fill="#002D62"/><path d="M10.012 9.806l.707-.606.016.018-.723.619v-.031zm0-.068l.597-.649.017.018-.614.666v-.035zm0-.09l.474-.654.02.014-.494.682v-.041zm0 .158L9.305 9.2l-.016.018.723.619v-.031z" fill="#996B38"/><path d="M10.012 9.738l-.597-.649-.018.018.615.666v-.035zm0-.09l-.475-.654-.02.014.495.682v-.041z" fill="#996B38"/><path d="M10.708 9.191l.101-.053-.067.093c-.006.005-.039-.035-.034-.04zm-.111-.108l.095-.065-.056.1c-.006.005-.044-.03-.04-.035zm-.123-.096l.087-.076-.046.106c-.004.007-.045-.024-.041-.03zm-1.158.204l-.102-.053.068.093c.006.005.039-.035.034-.04zm.11-.108l-.094-.065.057.1c.005.005.043-.03.038-.035zm.124-.096l-.087-.076.045.106c.005.007.046-.024.042-.03z" fill="#FFCE46"/><path d="M9.84 9.651c.029-.023.107-.06.153-.036.036-.041.12-.077.166-.053l.098.302c-.027.02-.082.01-.117.03-.01.006-.036.02-.04.032-.017-.007-.055-.003-.081.006-.025.007-.042.032-.071.036l-.107-.317z" fill="#fff"/><path d="M9.95 9.971l-.11-.32V9.65c.03-.024.108-.06.154-.036.033-.039.12-.077.166-.053l.1.303c-.015.012-.036.014-.057.017a.15.15 0 00-.06.016c-.013.007-.037.02-.04.03a.17.17 0 00-.083.007c-.01.003-.019.01-.028.017-.013.008-.026.017-.043.02zm-.107-.32l.107.317a.113.113 0 00.039-.02.117.117 0 01.03-.018c.025-.008.063-.013.082-.005.002-.01.025-.024.037-.03.02-.012.042-.015.064-.018a.115.115 0 00.054-.014l-.099-.3c-.042-.022-.126.01-.163.053-.045-.023-.12.012-.15.036z" fill="#000"/><path d="M10.948 11.267c.09-.001.21.024.249.037a.576.576 0 00-.159-.082c.083.013.104.027.16.04.038.012.044.016.046.071 0 .037 0 .086.023.008.021-.07.03-.08-.008-.103a.77.77 0 00-.145-.075.885.885 0 01.245.096.41.41 0 00-.131-.127.917.917 0 01.204.08.412.412 0 00-.136-.128c.095.02.195.052.25.082a.399.399 0 00-.192-.154.724.724 0 01.25.071c-.062-.058-.126-.12-.188-.14a.833.833 0 01.212.054.482.482 0 00-.25-.122c.066.001.15.007.22.022a.432.432 0 00-.205-.06.665.665 0 01.36.022.885.885 0 00-.246-.095c.052-.003.128-.015.177-.008a.922.922 0 00-.241-.041 2.7 2.7 0 01.274-.063 1.61 1.61 0 00-.346.018c.122-.104.211-.104.29-.117.08-.014.139-.031.057-.04-.054-.005-.097-.01-.134-.01.086-.026.195-.08.231-.1.036-.02.124-.083.03-.04-.096.043-.232.05-.355.064a.334.334 0 00-.127.035 3.41 3.41 0 01.22-.117c.078-.037.06-.05.13.028.032.038.03 0-.013-.1-.034-.076-.064-.04-.139-.01a.99.99 0 00-.104.048c.043-.052.193-.225.217-.254.027-.03.067.005.118.037.049.034.032.002-.015-.052-.047-.053-.07-.062-.1-.035-.03.026-.18.12-.265.2.153-.145.331-.309.372-.355-.088.047-.167.1-.237.155.024-.035.069-.1.092-.127-.036.024-.085.05-.112.076.04-.073.084-.14.09-.152.01-.02.02-.024.034-.025l.078-.006c.044-.004.027-.013.008-.018-.124-.032-.119-.018-.146.008a1.107 1.107 0 00-.076.09c.031-.097.124-.186.14-.214a.568.568 0 00-.183.14c.044-.072.182-.18.224-.224a.588.588 0 00-.157.09c.023-.04.045-.083.065-.126a.527.527 0 00-.173.185l.018-.066c.025-.048.091-.113.126-.15.035-.039.043-.05.141.013a.368.368 0 00-.05-.097c-.029-.042-.042-.024-.081.008-.022.017-.042.042-.08.076.042-.11.091-.226.117-.301a.814.814 0 00-.17.269c.004-.076.045-.232.038-.311a.48.48 0 00-.086.195c-.002-.083-.003-.187-.024-.247.007.052-.047.17-.06.253-.034-.079-.07-.155-.092-.208.002.041.014.136.031.249-.027-.087-.128-.177-.131-.245-.003.1.07.269.077.317.001.016.007.04.013.066-.035-.056-.117-.156-.139-.221 0 .04.016.113.024.158-.044-.04-.074-.017-.147.122.023-.007.051-.038.072-.052.02-.014.04-.029.062.007.028.045.103.15.143.283-.011-.038-.08-.128-.105-.168l.026.118a.916.916 0 00-.093-.192c-.002.045.031.172.036.225a1.767 1.767 0 00-.058-.121.934.934 0 01.03.227 1.383 1.383 0 00-.08-.124.993.993 0 01.036.215.551.551 0 00-.025-.045c-.034-.056-.057.045-.078.096-.02.052-.01.045.014.01.036-.056.032-.049.053.011.013.036.05.12.081.232-.03-.049-.072-.114-.094-.162-.023-.049-.024-.046 0 .05.016.063.055.18.039.304a3.435 3.435 0 00-.083-.258c.005.054.011.156.011.2a.22.22 0 00-.046-.062c.023.073.028.2.028.278a.525.525 0 00-.046-.127c.002.085.011.17.028.253a.575.575 0 00-.05-.132.631.631 0 01-.003.24.449.449 0 00-.027-.105c-.005.032-.013.126-.036.167a.452.452 0 00.009-.15.86.86 0 01-.066.176.785.785 0 00.023-.147c-.008.036-.032.066-.045.097a.584.584 0 00.006-.114.68.68 0 01-.114.217.56.56 0 00.034-.19c-.044.079-.048.112-.119.206a.275.275 0 00.023-.18.807.807 0 01-.065.14.523.523 0 01.016-.186c-.03.02-.072.08-.072.124a.258.258 0 00-.055-.113c.023.154.014.288-.078.35-.207.136-.382.436-.635.548a.43.43 0 01.08.07c.242-.107.405-.348.592-.482.089-.048.293.06.518 0 .086-.021.255.029.33.06-.035-.049-.103-.088-.225-.111z" fill="#549334"/><path d="M9.209 11.11a.972.972 0 01.246.01c-.06-.023-.022-.166-.095-.22.075.035.107.023.146.03l.014.003a.136.136 0 01.017-.082c.01.038.052.046.088.074l.018.016c.002-.045.067-.104.074-.134.014.04.05.069.064.125.034.146-.08.176-.038.28.207.136.39.406.643.519a.411.411 0 00-.08.069c-.334-.148-.55-.578-.857-.599l-.024.01c-.076.036-.147.064-.214.05a.298.298 0 00-.183.033c.085-.132.129-.17.18-.183a.289.289 0 01-.193.003c-.037.092-.126.118-.206.128-.08.011-.137.043-.162.087a.294.294 0 01.005-.13.427.427 0 00-.126.003c.047-.019.09-.152.206-.169a.211.211 0 01-.057-.054c.027.016.052-.002.102-.015a.367.367 0 01.101-.011.2.2 0 01-.076-.114c-.035.108-.153.137-.223.142-.083.006-.122.033-.138.056 0-.051.017-.093.036-.12a.383.383 0 00-.084.01.22.22 0 01.095-.152c-.05-.012-.12-.101-.125-.164.04.046.204-.002.284.087a.226.226 0 01-.082-.16c.019.025.058.026.097.048-.054-.195-.19-.152-.27-.214-.101-.08-.06-.218-.141-.284a.37.37 0 01.089.009.534.534 0 01-.015-.176c.02.062.088.054.132.115a.092.092 0 00.008-.051c.031.037.06.07.078.104-.005-.066.021-.104.041-.122a.29.29 0 00.031.132c.027.052.037.11.017.206-.018.09.019.159.065.225a.701.701 0 00-.013-.19.352.352 0 01-.005-.165.28.28 0 00.074.102c.01.01.016.021.02.034l.026-.064c.011-.03-.132-.083-.125-.245-.096-.054-.184-.126-.207-.255a.162.162 0 00.053.027c-.053-.079-.067-.18-.048-.23.012.042.055.053.1.085.011-.086-.08-.148-.078-.231.004-.131.073-.133.096-.215a.407.407 0 01.043.088c.016-.055.082-.097.084-.138.034.05.06.106.04.163a.156.156 0 01.126.016c-.084.016-.08.117-.135.144-.055.026-.16.098-.133.208a.39.39 0 01.085.203.195.195 0 01.042.06.402.402 0 00.037-.083c-.005-.043-.062-.091-.078-.133-.021-.057.029-.142.009-.218.027.01.074.028.107.07.025-.06.075-.099.076-.2.02.04.037.084.049.126a.304.304 0 01.15-.108c-.04.069-.027.137-.028.194-.002.057-.004.152-.086.216-.083.064-.105.081-.123.243.035-.076.12-.135.123-.176.017.073.03.128.029.178.027-.033.077-.052.136-.054-.041.048-.073.236-.183.258-.11.023-.155.134-.185.18-.037.057-.047.101-.009.177a.386.386 0 01.03-.165c.037-.073.116-.104.12-.155a.55.55 0 01.014.134c.056-.113.173-.08.206-.113a.294.294 0 00-.057.132.214.214 0 01-.122.148c-.052.024-.096.028-.123.08-.006.032.02.058.02.105a.11.11 0 01.016-.044c.032-.046.052-.08.052-.106.07.07.085.137.062.21-.022.073-.039.131.006.19a.251.251 0 00.087.048c.037-.037-.006-.082-.048-.125-.041-.043-.037-.144-.003-.186.034-.043.064-.087.062-.124a.265.265 0 01.062.085.161.161 0 01.059-.08c.005.061.045.089.045.155a.15.15 0 01.086-.087c-.008.033.022.084.027.116a.169.169 0 01-.013.084.16.16 0 01-.084.092c-.016.007-.041.015-.066.027.059-.008.166.011.19.055-.044-.016-.139.019-.185.038z" fill="#549334"/><path d="M10.066 11.493c-.011-.01-.027-.015-.054-.015s-.043.005-.054.015c-.11-.037-.18-.021-.18.013v.104c0 .018.04.04.188.005a.079.079 0 00.046.012.077.077 0 00.048-.014v.001c.148.036.188.013.188-.005v-.104c0-.034-.071-.051-.182-.012z" fill="#CE1225"/><path d="M10.237 11.489a.43.43 0 01.132.03 1.167 1.167 0 00-.016.125.314.314 0 00-.116-.039v-.117zm-.448 0a.446.446 0 00-.132.03.981.981 0 01.017.125.311.311 0 01.115-.039v-.117z" fill="#CE1225"/><path d="M10.012 11.38c.315 0 .568.02.77.063-.024.019-.046.044-.062.056-.019.015-.012.059.03.096a.247.247 0 00.243.023l.058-.025c-.028.024-.052.055-.039.085.06.133.288-.042.425.125a2.5 2.5 0 01.166-.18c-.078-.094-.186-.079-.275-.071.032-.054.036-.095-.036-.146-.029-.022-.13-.018-.222.024.017-.044.014-.115-.129-.178-.217-.098-.587-.118-.928-.118-.343 0-.713.02-.93.118-.143.063-.147.134-.129.178-.093-.042-.193-.046-.223-.024-.07.05-.067.092-.034.146-.09-.008-.198-.023-.276.071.038.037.13.134.165.18.137-.167.367.008.425-.125.014-.03-.01-.061-.037-.085l.057.025a.245.245 0 00.243-.023c.042-.037.049-.08.03-.096-.016-.012-.037-.037-.063-.056.202-.043.455-.062.771-.062z" fill="#CE1225"/></svg>