<svg width="20" height="20" fill="none" xmlns="http://www.w3.org/2000/svg"><path d="M13.634 11.667c.066-.55.116-1.1.116-1.667s-.05-1.117-.116-1.667h2.816c.134.534.217 1.092.217 1.667s-.083 1.133-.217 1.667M12.16 16.3c.5-.925.883-1.925 1.15-2.967h2.458A6.692 6.692 0 0112.16 16.3zm-.209-4.633h-3.9c-.083-.55-.133-1.1-.133-1.667s.05-1.125.133-1.667h3.9c.075.542.134 1.1.134 1.667s-.059 1.117-.134 1.667zM10 16.633c-.691-1-1.25-2.108-1.591-3.3h3.183c-.342 1.192-.9 2.3-1.592 3.3zM6.667 6.667H4.234a6.603 6.603 0 013.6-2.967c-.5.925-.875 1.925-1.167 2.967zm-2.433 6.666h2.433c.292 1.042.667 2.042 1.167 2.967a6.673 6.673 0 01-3.6-2.967zm-.684-1.666A6.867 6.867 0 013.334 10c0-.575.083-1.133.216-1.667h2.817c-.067.55-.117 1.1-.117 1.667s.05 1.117.117 1.667M10 3.358c.692 1 1.25 2.117 1.592 3.309H8.409A11.35 11.35 0 0110 3.358zm5.767 3.309h-2.458a13.05 13.05 0 00-1.15-2.967 6.656 6.656 0 013.608 2.967zm-5.767-5c-4.608 0-8.333 3.75-8.333 8.333A8.333 8.333 0 1010 1.667z" fill="#4470FE"/></svg>