<svg width="20" height="20" fill="none" xmlns="http://www.w3.org/2000/svg"><g clip-path="url(#clip0_0_13873)"><mask id="mask0_0_13873" style="mask-type:luminance" maskUnits="userSpaceOnUse" x="0" y="0" width="20" height="20"><path d="M10 18.333a8.31 8.31 0 005.893-2.44A8.307 8.307 0 0018.333 10a8.309 8.309 0 00-2.44-5.892A8.307 8.307 0 0010 1.667a8.307 8.307 0 00-5.892 2.44A8.308 8.308 0 001.667 10a8.307 8.307 0 002.44 5.893A8.307 8.307 0 0010 18.333z" fill="#fff" stroke="#fff" stroke-width="2" stroke-linejoin="round"/><path fill-rule="evenodd" clip-rule="evenodd" d="M10 15.417a1.041 1.041 0 100-2.083 1.041 1.041 0 000 2.083z" fill="#000"/><path d="M10 5v6.667" stroke="#000" stroke-width="2" stroke-linecap="round" stroke-linejoin="round"/></mask><g mask="url(#mask0_0_13873)"><path d="M0 0h20v20H0V0z" fill="#4470FE"/></g></g><defs><clipPath id="clip0_0_13873"><path fill="#fff" d="M0 0h20v20H0z"/></clipPath></defs></svg>