<svg width="203" height="49" fill="none" xmlns="http://www.w3.org/2000/svg"><path d="M10.996 39.033c-1.613 1.86-4.437 2.046-5.94.093A24.383 24.383 0 01.47 29.005C-.556 23.833.104 18.437 2.378 13.693A24.081 24.081 0 0113.032 2.661 23.54 23.54 0 0123.686 0c2.439-.02 4.034 2.343 3.612 4.78-.421 2.438-2.75 3.982-5.17 4.28a15.039 15.039 0 00-5.099 1.562 15.211 15.211 0 00-6.711 6.958 15.507 15.507 0 00-1.21 9.656 15.236 15.236 0 001.962 5.024c1.302 2.12 1.54 4.93-.074 6.772z" fill="url(#paint0_linear_2129_21940)"/><path d="M18.478 5.246c-.679-2.362.678-4.893 3.099-5.135a23.824 23.824 0 016.986.354c3.76.763 7.28 2.419 10.27 4.856a24.392 24.392 0 016.913 9.116 24.685 24.685 0 011.998 11.312 24.446 24.446 0 01-3.374 10.976 24.273 24.273 0 01-7.976 8.168 23.732 23.732 0 01-10.783 3.516 23.83 23.83 0 01-6.986-.54c-2.366-.539-3.411-3.218-2.44-5.488.973-2.27 3.577-3.237 5.997-2.958.935.112 1.87.13 2.806.056a14.81 14.81 0 006.803-2.214 15.242 15.242 0 005.024-5.154 15.34 15.34 0 002.127-6.92 15.449 15.449 0 00-1.265-7.145 15.362 15.362 0 00-4.364-5.748 15.147 15.147 0 00-6.473-3.07 15.58 15.58 0 00-2.788-.298c-2.438-.019-4.895-1.302-5.574-3.684z" fill="url(#paint1_linear_2129_21940)"/><g opacity=".2"><path d="M13.05 36.559c-1.357 1.544-3.723 1.712-4.97.074A20.603 20.603 0 013.954 25.88 20.56 20.56 0 018.32 11.443c3.227-4.056 7.866-6.717 12.946-7.387 3.869-.52 7.756.13 11.222 1.824 1.834.893 2.182 3.274.99 4.93-1.21 1.674-3.52 1.972-5.446 1.284a12.551 12.551 0 00-5.813-.614 12.49 12.49 0 00-8.16 4.67 12.915 12.915 0 00-2.75 9.097 13.093 13.093 0 001.833 5.675c1.064 1.748 1.266 4.093-.091 5.637z" fill="url(#paint2_linear_2129_21940)"/><path d="M8.483 18.586c-1.925-.707-2.952-2.865-1.907-4.67a20.105 20.105 0 017.739-7.59A19.849 19.849 0 0128.47 4.409c4.786 1.154 8.985 4.056 11.81 8.15a20.5 20.5 0 013.465 14.046c-.587 4.948-2.952 9.525-6.638 12.818a19.961 19.961 0 01-13.368 5.08 19.894 19.894 0 01-13.331-5.247 20.227 20.227 0 01-5.74-9.247c-.587-1.99.917-3.85 2.953-4.074 2.035-.223 3.795 1.32 4.602 3.219a12.677 12.677 0 003.172 4.52 12.453 12.453 0 008.399 3.312 12.505 12.505 0 008.435-3.2c2.329-2.084 3.814-4.967 4.2-8.093.366-3.126-.404-6.288-2.183-8.856a12.65 12.65 0 00-7.445-5.135 12.444 12.444 0 00-8.93 1.21 12.596 12.596 0 00-4.162 3.646c-1.23 1.656-3.301 2.735-5.227 2.028z" fill="url(#paint3_linear_2129_21940)"/></g><path d="M196.644 10.329H203v27.807h-6.356V10.33zm-9.323 27.807l-1.39-4.37h-10.329l-1.39 4.37h-6.952l9.455-27.807h8.104l9.454 27.807h-6.952zm-9.812-10.328h6.515l-3.257-10.21-3.258 10.21zm-10.26 10.328h-6.833l-3.694-5.243-3.695 5.243h-6.833l7.111-10.09-6.872-9.772h6.833l3.456 4.926 3.456-4.926h6.833l-6.873 9.772 7.111 10.09zm-35.388-7.547c.689 1.854 2.278 2.78 4.767 2.78 1.616 0 2.887-.503 3.814-1.51l4.767 2.742c-1.96 2.728-4.846 4.092-8.66 4.092-3.337 0-6.012-.993-8.025-2.98-1.986-1.986-2.979-4.489-2.979-7.508 0-2.992.98-5.482 2.94-7.468 1.986-2.013 4.528-3.02 7.627-3.02 2.887 0 5.283 1.007 7.19 3.02 1.934 1.986 2.9 4.476 2.9 7.468 0 .848-.079 1.642-.238 2.384h-14.103zm-.119-4.45h8.541c-.583-2.092-1.986-3.138-4.211-3.138-2.304 0-3.747 1.046-4.33 3.138zm-16.825-8.421c2.277 0 4.105.754 5.482 2.264 1.377 1.483 2.066 3.47 2.066 5.959v12.195h-5.959V26.457c0-1.006-.252-1.8-.755-2.383-.477-.583-1.179-.874-2.105-.874-.98 0-1.748.33-2.305.993-.529.662-.794 1.576-.794 2.74v11.203h-5.959V26.457c0-1.006-.252-1.8-.755-2.383-.476-.583-1.178-.874-2.105-.874-.98 0-1.748.33-2.304.993-.53.662-.795 1.576-.795 2.74v11.203H92.67V18.274h5.96V20.1c1.085-1.589 2.859-2.383 5.322-2.383 2.305 0 4.039.873 5.205 2.622 1.218-1.748 3.138-2.622 5.76-2.622zM85.08 34.522c-2.808 2.78-6.224 4.17-10.25 4.17-4.025 0-7.442-1.39-10.249-4.17-2.807-2.781-4.21-6.21-4.21-10.29 0-4.078 1.403-7.508 4.21-10.288 2.807-2.781 6.224-4.172 10.25-4.172 4.025 0 7.441 1.39 10.248 4.172 2.808 2.78 4.211 6.21 4.211 10.289 0 4.078-1.403 7.508-4.21 10.289zm-16.05-4.33c1.563 1.535 3.496 2.303 5.8 2.303s4.224-.767 5.76-2.304c1.563-1.536 2.344-3.522 2.344-5.958 0-2.437-.781-4.423-2.344-5.96-1.536-1.535-3.456-2.303-5.76-2.303s-4.237.768-5.8 2.304c-1.536 1.536-2.304 3.522-2.304 5.959 0 2.436.768 4.422 2.304 5.958z" fill="#E1E7EB"/><defs><linearGradient id="paint0_linear_2129_21940" x1="13.692" y1=".001" x2="13.692" y2="48.459" gradientUnits="userSpaceOnUse"><stop stop-color="#68E1FC"/><stop offset="1" stop-color="#DBFFFF" stop-opacity=".5"/></linearGradient><linearGradient id="paint1_linear_2129_21940" x1="24.081" y1="49.347" x2="36.777" y2="2.648" gradientUnits="userSpaceOnUse"><stop stop-color="#68E1FC"/><stop offset="1" stop-color="#DBFFFF" stop-opacity=".5"/></linearGradient><linearGradient id="paint2_linear_2129_21940" x1="19.03" y1="3.884" x2="19.03" y2="44.492" gradientUnits="userSpaceOnUse"><stop stop-color="#DBFFFF"/><stop offset="1" stop-color="#68E1FC"/></linearGradient><linearGradient id="paint3_linear_2129_21940" x1="18.961" y1="43.891" x2="29.61" y2="4.72" gradientUnits="userSpaceOnUse"><stop stop-color="#DBFFFF"/><stop offset="1" stop-color="#68E1FC"/></linearGradient></defs></svg>