<svg width="345" height="418" fill="none" xmlns="http://www.w3.org/2000/svg"><path opacity=".5" fill-rule="evenodd" clip-rule="evenodd" d="M23.424 4h50.127v23.496l191.746 1.3V4.1L323.8 4c8.569 0 19.007 16.497 19.007 29.595v78.488h-20.618l-.258 91.485H343l-.193 185.535c0 13.198-7.023 23.996-15.528 23.896l-61.853-.1-.065-23.696-191.552-.8v24.396l-51.093.1c-8.505 0-19.458-14.197-19.523-27.395L3 203.568l17.396-.1.13-89.986-17.268.2V29.996C3.128 16.898 14.855 4 23.424 4z" fill="#000"/><path d="M25.029 0h51.087v25.184h186.72l.064-21.386V.3h2.252l54.819-.3h.129c6.82 0 13.061 4.397 17.565 11.293 4.504 6.995 7.335 16.59 7.335 27.083v.2l-.064 74.452v3.498h-21.104l.064 83.147h21.04v3.498L345 379.225c0 10.593-2.767 20.287-7.271 27.282-4.504 6.996-10.745 11.293-17.629 11.393h-57.136v-3.498l-.064-21.386-186.72-.2V418H25.093c-6.884 0-13.126-4.297-17.694-11.293-4.504-6.995-7.335-16.689-7.335-27.282V199.873h18.338v-82.947H0V38.675c0-10.693 2.831-20.287 7.335-27.282C11.903 4.297 18.145 0 25.029 0zm46.583 6.996H25.03c-5.662 0-10.745 3.597-14.477 9.294-3.732 5.696-6.048 13.69-6.048 22.385v71.255H22.84v96.938H4.44v172.557c0 8.694 2.317 16.589 6.049 22.385 3.732 5.697 8.879 9.294 14.477 9.294h46.583V385.92H73.8l191.288.3h2.252v3.498l.064 21.386h52.631c5.598 0 10.745-3.597 14.413-9.294 3.667-5.696 5.984-13.591 5.984-22.285l-.065-172.557h-21.039v-3.498l-.065-90.142v-3.498h21.104l.065-71.055v-.2c0-8.594-2.317-16.49-6.048-22.185-3.668-5.697-8.815-9.295-14.349-9.295h-.128l-52.503.3-.064 21.387v3.497H71.677V6.996h-.065z" fill="url(#paint0_linear_2138_189)"/><defs><linearGradient id="paint0_linear_2138_189" x1="-77.099" y1="16.839" x2="379.736" y2="620.343" gradientUnits="userSpaceOnUse"><stop stop-color="#fff"/><stop offset=".169" stop-color="#5E5E5E"/><stop offset=".264" stop-color="#DEDEDE"/><stop offset=".396" stop-color="#8E8E8E"/><stop offset=".542" stop-color="#636363"/><stop offset=".626" stop-color="#5F5F5F"/><stop offset=".718" stop-color="#EAEAEA"/><stop offset=".791" stop-color="#fff"/><stop offset="1" stop-color="#454545"/></linearGradient></defs></svg>