<svg width="60" height="60" fill="none" xmlns="http://www.w3.org/2000/svg"><g clip-path="url(#clip0_2129_11763)"><path d="M36.456 20.93c3.214 3.913 3.898 9.268 2.12 13.8-9.438-.138-17.098-7.827-17.098-17.37v-.824a13.77 13.77 0 0114.978 4.394z" fill="url(#paint0_linear_2129_11763)"/><path d="M15.118 38.368c-.616-.756-1.163-1.58-1.573-2.472.41-.069.889-.137 1.368-.137 4.24 0 7.796 3.227 8.207 7.414-3.01-.549-5.882-2.197-8.002-4.805z" fill="url(#paint1_linear_2129_11763)"/><path d="M56.085 17.36a17.457 17.457 0 01-8.96 15.24c.89-6.453-1.162-13.318-6.086-18.261-4.582-4.6-10.806-6.728-16.824-6.316C27.292 3.217 32.695-.01 38.782-.01c9.575 0 17.303 7.827 17.303 17.37z" fill="url(#paint2_linear_2129_11763)"/><path d="M20.11 50.589a8.338 8.338 0 01-5.265 1.854c-4.583 0-8.276-3.708-8.276-8.307 0-1.168.274-2.335.684-3.364.616 1.03 1.3 1.99 2.052 2.883 3.01 3.57 6.77 5.835 10.806 6.934z" fill="url(#paint3_linear_2129_11763)"/><g filter="url(#filter0_b_2129_11763)"><path d="M41.038 14.34c-8.754-8.788-23.252-8.445-31.596 1.098-6.976 8.032-7.044 20.184-.137 28.216 6.77 7.896 17.713 9.68 26.33 5.218a2.913 2.913 0 013.352.55l9.438 9.474c1.094 1.098 2.94 1.098 4.103 0l2.394-2.403c1.094-1.099 1.094-2.953 0-4.12l-9.438-9.405a2.941 2.941 0 01-.547-3.364 21.63 21.63 0 00-3.898-25.265zm-4.582 24.028a13.714 13.714 0 01-21.338 0c-4.103-5.012-4.103-12.426 0-17.438a13.714 13.714 0 0121.338 0c4.104 5.012 4.104 12.426 0 17.438z" fill="url(#paint4_linear_2129_11763)" fill-opacity=".1"/><path d="M41.038 14.34c-8.754-8.788-23.252-8.445-31.596 1.098-6.976 8.032-7.044 20.184-.137 28.216 6.77 7.896 17.713 9.68 26.33 5.218a2.913 2.913 0 013.352.55l9.438 9.474c1.094 1.098 2.94 1.098 4.103 0l2.394-2.403c1.094-1.099 1.094-2.953 0-4.12l-9.438-9.405a2.941 2.941 0 01-.547-3.364 21.63 21.63 0 00-3.898-25.265zm-4.582 24.028a13.714 13.714 0 01-21.338 0c-4.103-5.012-4.103-12.426 0-17.438a13.714 13.714 0 0121.338 0c4.104 5.012 4.104 12.426 0 17.438z" stroke="url(#paint5_linear_2129_11763)" stroke-width=".833" stroke-miterlimit="10" stroke-linecap="round" stroke-linejoin="round"/></g></g><defs><linearGradient id="paint0_linear_2129_11763" x1="37.167" y1="35.571" x2="24.969" y2="14.524" gradientUnits="userSpaceOnUse"><stop stop-color="#02F7EA"/><stop offset="1" stop-color="#BCE1FF"/></linearGradient><linearGradient id="paint1_linear_2129_11763" x1="21.363" y1="44.203" x2="15.798" y2="34.6" gradientUnits="userSpaceOnUse"><stop stop-color="#02F7EA"/><stop offset="1" stop-color="#D4E6FF"/></linearGradient><linearGradient id="paint2_linear_2129_11763" x1="51.492" y1="30.102" x2="34.081" y2=".062" gradientUnits="userSpaceOnUse"><stop stop-color="#02F7EA"/><stop offset="1" stop-color="#BCE1FF"/></linearGradient><linearGradient id="paint3_linear_2129_11763" x1="16.007" y1="53.087" x2="8.482" y2="40.103" gradientUnits="userSpaceOnUse"><stop stop-color="#02F7EA"/><stop offset="1" stop-color="#D4E6FF"/></linearGradient><linearGradient id="paint4_linear_2129_11763" x1="29.955" y1="8.004" x2="60" y2="60.001" gradientUnits="userSpaceOnUse"><stop stop-color="#fff"/><stop offset="1" stop-color="#02F7EA"/></linearGradient><linearGradient id="paint5_linear_2129_11763" x1="29.955" y1="8.004" x2="29.955" y2="59.719" gradientUnits="userSpaceOnUse"><stop stop-color="#D7E0FF"/><stop offset="1" stop-color="#fff" stop-opacity="0"/></linearGradient><clipPath id="clip0_2129_11763"><path fill="#fff" d="M0 0h60v60H0z"/></clipPath><filter id="filter0_b_2129_11763" x="-6.25" y="-2.413" width="72.409" height="72.549" filterUnits="userSpaceOnUse" color-interpolation-filters="sRGB"><feFlood flood-opacity="0" result="BackgroundImageFix"/><feGaussianBlur in="BackgroundImageFix" stdDeviation="5"/><feComposite in2="SourceAlpha" operator="in" result="effect1_backgroundBlur_2129_11763"/><feBlend in="SourceGraphic" in2="effect1_backgroundBlur_2129_11763" result="shape"/></filter></defs></svg>