<svg width="60" height="60" fill="none" xmlns="http://www.w3.org/2000/svg"><g clip-path="url(#clip0_2129_11792)"><mask id="mask0_2129_11792" style="mask-type:luminance" maskUnits="userSpaceOnUse" x="0" y="13" width="46" height="46"><path d="M22.584 13.3C10.112 13.3 0 22.595 0 34.028c0 5.416 2.292 10.364 6 14.041-.135 3.61-.809 8.425-3.034 10.899 4.315 0 8.764-3.343 11.326-5.684a24.288 24.288 0 008.292 1.471c12.472 0 22.585-9.293 22.585-20.726 0-11.434-10.113-20.727-22.585-20.727z" fill="#fff"/></mask><g filter="url(#filter0_d_2129_11792)" mask="url(#mask0_2129_11792)"><path d="M28.651 13.836c-.786 5.46 1.281 16.381 15.843 16.381 18.202 0-9.101-20.392-15.843-16.38z" fill="url(#paint0_linear_2129_11792)"/></g><path d="M59.73 15.975c0-7.89-6.944-14.308-15.573-14.308-7.888 0-14.427 5.416-15.438 12.37 8.157 2.139 14.494 8.357 16.112 16.18a16.183 16.183 0 005.056-1.003c1.82 1.671 4.854 3.944 7.82 3.944-1.55-1.738-2.022-5.014-2.09-7.555 2.495-2.54 4.113-5.884 4.113-9.628z" fill="url(#paint1_linear_2129_11792)"/><g filter="url(#filter1_b_2129_11792)"><path d="M22.584 13.3C10.112 13.3 0 22.595 0 34.028c0 5.416 2.292 10.364 6 14.041-.135 3.61-.809 8.425-3.034 10.899 4.315 0 8.764-3.343 11.326-5.684a24.288 24.288 0 008.292 1.471c12.472 0 22.585-9.293 22.585-20.726 0-11.434-10.113-20.727-22.585-20.727z" fill="url(#paint2_linear_2129_11792)"/><path d="M22.584 13.3C10.112 13.3 0 22.595 0 34.028c0 5.416 2.292 10.364 6 14.041-.135 3.61-.809 8.425-3.034 10.899 4.315 0 8.764-3.343 11.326-5.684a24.288 24.288 0 008.292 1.471c12.472 0 22.585-9.293 22.585-20.726 0-11.434-10.113-20.727-22.585-20.727z" stroke="url(#paint3_linear_2129_11792)" stroke-width=".794" stroke-miterlimit="10" stroke-linecap="round" stroke-linejoin="round"/></g><path d="M16.045 39.243c0 1.136-.944 2.072-2.09 2.072s-2.09-.936-2.09-2.072c0-1.137.944-2.073 2.09-2.073s2.09.936 2.09 2.073zm6.54-2.073c-1.147 0-2.09.936-2.09 2.073 0 1.136.943 2.072 2.09 2.072 1.145 0 2.09-.936 2.09-2.072 0-1.137-.945-2.073-2.09-2.073zm8.696 0c-1.146 0-2.09.936-2.09 2.073 0 1.136.944 2.072 2.09 2.072s2.09-.936 2.09-2.072c0-1.137-.944-2.073-2.09-2.073z" fill="url(#paint4_linear_2129_11792)"/></g><defs><linearGradient id="paint0_linear_2129_11792" x1="29.325" y1="15.173" x2="56.834" y2="32.763" gradientUnits="userSpaceOnUse"><stop stop-color="#02F7EA"/><stop offset="1" stop-color="#B5DBFF"/></linearGradient><linearGradient id="paint1_linear_2129_11792" x1="35.391" y1="3.564" x2="61.245" y2="29.633" gradientUnits="userSpaceOnUse"><stop stop-color="#02F7EA"/><stop offset="1" stop-color="#BCE1FF"/></linearGradient><linearGradient id="paint2_linear_2129_11792" x1="10.112" y1="51.278" x2="38.164" y2="19.289" gradientUnits="userSpaceOnUse"><stop stop-color="#DCE5FF"/><stop offset="1" stop-color="#fff" stop-opacity=".4"/></linearGradient><linearGradient id="paint3_linear_2129_11792" x1="22.588" y1="59.316" x2="22.588" y2="12.966" gradientUnits="userSpaceOnUse"><stop stop-color="#fff" stop-opacity="0"/><stop offset="1" stop-color="#DDE5FF"/></linearGradient><linearGradient id="paint4_linear_2129_11792" x1="16.768" y1="33.482" x2="28.313" y2="45.122" gradientUnits="userSpaceOnUse"><stop stop-color="#B8DEFF"/><stop offset="1" stop-color="#02F7EA"/></linearGradient><filter id="filter0_d_2129_11792" x="25.174" y="13.313" width="28.809" height="23.57" filterUnits="userSpaceOnUse" color-interpolation-filters="sRGB"><feFlood flood-opacity="0" result="BackgroundImageFix"/><feColorMatrix in="SourceAlpha" values="0 0 0 0 0 0 0 0 0 0 0 0 0 0 0 0 0 0 127 0" result="hardAlpha"/><feOffset dy="3.333"/><feGaussianBlur stdDeviation="1.667"/><feComposite in2="hardAlpha" operator="out"/><feColorMatrix values="0 0 0 0 0.266667 0 0 0 0 0.439216 0 0 0 0 0.996078 0 0 0 0.39 0"/><feBlend in2="BackgroundImageFix" result="effect1_dropShadow_2129_11792"/><feBlend in="SourceGraphic" in2="effect1_dropShadow_2129_11792" result="shape"/></filter><filter id="filter1_b_2129_11792" x="-3.73" y="9.57" width="52.629" height="53.127" filterUnits="userSpaceOnUse" color-interpolation-filters="sRGB"><feFlood flood-opacity="0" result="BackgroundImageFix"/><feGaussianBlur in="BackgroundImageFix" stdDeviation="1.667"/><feComposite in2="SourceAlpha" operator="in" result="effect1_backgroundBlur_2129_11792"/><feBlend in="SourceGraphic" in2="effect1_backgroundBlur_2129_11792" result="shape"/></filter><clipPath id="clip0_2129_11792"><path fill="#fff" d="M0 0h60v60H0z"/></clipPath></defs></svg>