<svg width="10" height="10" fill="none" xmlns="http://www.w3.org/2000/svg"><path fill-rule="evenodd" clip-rule="evenodd" d="M4.166.938a.73.73 0 00-.659.416c-.285.003-.506.016-.705.093-.237.093-.442.25-.594.454-.153.206-.225.47-.323.833l-.02.07-.214 1.236a.918.918 0 00-.202.19c-.376.481-.197 1.197.16 2.626.228.91.342 1.364.68 1.63.34.264.809.264 1.746.264h1.93c.937 0 1.406 0 1.745-.265.339-.265.452-.72.68-1.629.357-1.43.536-2.144.16-2.625a.91.91 0 00-.202-.192l-.214-1.234-.02-.07c-.098-.364-.17-.628-.323-.834a1.354 1.354 0 00-.594-.454c-.198-.077-.42-.09-.705-.092a.73.73 0 00-.659-.417H4.166zM7.674 3.81l-.151-.87c-.118-.433-.16-.57-.233-.667a.73.73 0 00-.32-.245c-.092-.036-.203-.046-.479-.049a.73.73 0 01-.658.416H4.166a.73.73 0 01-.658-.416c-.276.003-.387.013-.478.05a.73.73 0 00-.32.244c-.073.097-.116.233-.234.666l-.15.87c.415-.06.97-.06 1.71-.06h1.928c.74 0 1.294 0 1.71.06zM3.333 5.104a.312.312 0 01.313.313v1.666a.312.312 0 11-.625 0V5.417a.313.313 0 01.312-.313zm3.646.313a.313.313 0 00-.625 0v1.666a.313.313 0 10.625 0V5.417zm-1.98-.313a.312.312 0 01.313.313v1.666a.313.313 0 01-.625 0V5.417A.312.312 0 015 5.104z" fill="#4470FE"/></svg>