<svg width="10" height="11" fill="none" xmlns="http://www.w3.org/2000/svg"><path d="M5.046 3.597a1.98 1.98 0 013.658 0 .312.312 0 10.578-.239 2.605 2.605 0 00-4.814 0 .313.313 0 10.578.24z" fill="#BADBFF"/><path fill-rule="evenodd" clip-rule="evenodd" d="M1.078 5.64c-.245.244-.245.637-.245 1.422 0 .786 0 1.179.245 1.423.244.244.636.244 1.422.244h5c.786 0 1.178 0 1.423-.244.244-.244.244-.637.244-1.423 0-.785 0-1.178-.244-1.422-.245-.244-.637-.244-1.423-.244h-.312v-1.25a.312.312 0 10-.625 0v1.25H2.5c-.786 0-1.178 0-1.422.244zM2.5 7.48a.417.417 0 100-.834.417.417 0 000 .833zm1.25 0a.417.417 0 100-.834.417.417 0 000 .833z" fill="#4470FE"/><path d="M5.975 4.09a.938.938 0 011.8 0 .313.313 0 00.6-.174 1.563 1.563 0 00-3 0 .313.313 0 00.6.175z" fill="#BADBFF"/></svg>