<svg width="20" height="20" fill="none" xmlns="http://www.w3.org/2000/svg"><path fill-rule="evenodd" clip-rule="evenodd" d="M7.5 2.686a.833.833 0 01.647-.813 8.325 8.325 0 013.704.002.834.834 0 01.649.812v1.54a.833.833 0 001.25.721l1.334-.77a.833.833 0 011.028.155 8.388 8.388 0 011.851 3.207.834.834 0 01-.38.968l-1.333.77a.834.834 0 000 1.444l1.333.769a.834.834 0 01.38.967 8.324 8.324 0 01-1.85 3.21.834.834 0 01-1.03.155l-1.333-.771a.833.833 0 00-1.25.721v1.542a.833.833 0 01-.649.812 8.326 8.326 0 01-3.704-.002.833.833 0 01-.647-.813v-1.539a.833.833 0 00-1.25-.721l-1.334.77a.833.833 0 01-1.029-.155 8.36 8.36 0 01-1.85-3.207.833.833 0 01.379-.968l1.333-.77a.834.834 0 000-1.444L2.417 8.51a.833.833 0 01-.38-.967 8.325 8.325 0 011.85-3.209.833.833 0 011.028-.156l1.335.771a.833.833 0 001.25-.721V2.685zM10 12.5a2.5 2.5 0 100-5 2.5 2.5 0 000 5z" fill="#4470FE"/></svg>