<svg width="18" height="18" fill="none" xmlns="http://www.w3.org/2000/svg"><g clip-path="url(#clip0_61_939)" fill="#757185"><path d="M7.447 7.62a.955.955 0 000 1.903.91.91 0 00.876-.951.908.908 0 00-.876-.952zm3.128 0a.955.955 0 10.877.952.913.913 0 00-.875-.952h-.002z"/><path d="M14.743.428H3.257A1.761 1.761 0 001.5 2.196v11.587a1.762 1.762 0 001.757 1.768h9.72l-.454-1.586 1.097 1.018 1.037.96L16.5 17.57V2.196A1.76 1.76 0 0014.743.428zm-3.309 11.197s-.308-.369-.565-.697a2.705 2.705 0 001.553-1.017 4.855 4.855 0 01-.986.505 5.64 5.64 0 01-1.242.369 6.004 6.004 0 01-2.22-.009 7.203 7.203 0 01-1.26-.368 5.149 5.149 0 01-.982-.508c.367.502.898.86 1.5 1.011-.257.326-.574.712-.574.712a3.108 3.108 0 01-2.614-1.303 11.478 11.478 0 011.232-4.997 4.239 4.239 0 012.41-.9l.086.103a5.782 5.782 0 00-2.254 1.122s.188-.102.506-.248a6.436 6.436 0 011.947-.54.844.844 0 01.146-.017 6.987 6.987 0 014.311.806 5.704 5.704 0 00-2.134-1.09l.12-.136c.878.043 1.72.357 2.411.9a11.479 11.479 0 011.232 4.997 3.132 3.132 0 01-2.623 1.305z"/></g><defs><clipPath id="clip0_61_939"><path fill="#fff" transform="translate(.428 .428)" d="M0 0h17.143v17.143H0z"/></clipPath></defs></svg>