<svg width="613" height="905" fill="none" xmlns="http://www.w3.org/2000/svg"><g style="mix-blend-mode:color-dodge" opacity=".2" clip-path="url(#clip0_61_893)"><path d="M905 0H0v905h905V0z" fill="#000"/><path d="M905 0H0v905h905V0z" fill="#9453FF" fill-opacity=".388"/><mask id="mask0_61_893" style="mask-type:luminance" maskUnits="userSpaceOnUse" x="0" y="0" width="905" height="905"><path d="M905 0H0v905h905V0z" fill="#fff"/></mask><g filter="url(#filter0_f_61_893)" mask="url(#mask0_61_893)"><path d="M764.725 152.153H57.694v561.666h707.031V152.153z" fill="#18A0FB"/><path d="M864.841 31.11H234.734v483.609h630.107V31.109z" fill="#FF5742"/><path d="M1116.54 83.713H418.562v529.99h697.978V83.713z" fill="#EE46D3"/><path d="M808.844 435.531H312.791v471.732h496.053V435.531z" fill="#00C5DF"/></g><path d="M905 0H0v905h905V0z" fill="gray"/></g><defs><clipPath id="clip0_61_893"><path fill="#fff" d="M0 0h905v905H0z"/></clipPath><filter id="filter0_f_61_893" x="-225.119" y="-251.703" width="1624.48" height="1441.78" filterUnits="userSpaceOnUse" color-interpolation-filters="sRGB"><feFlood flood-opacity="0" result="BackgroundImageFix"/><feBlend in="SourceGraphic" in2="BackgroundImageFix" result="shape"/><feGaussianBlur stdDeviation="141.406" result="effect1_foregroundBlur_61_893"/></filter></defs></svg>