<svg width="905" height="905" fill="none" xmlns="http://www.w3.org/2000/svg"><g style="mix-blend-mode:color-dodge" clip-path="url(#clip0_61_109)"><path d="M0 0h905v905H0V0z" fill="#000"/><path d="M0 0h905v905H0V0z" fill="#9453FF" fill-opacity=".388"/><mask id="mask0_61_109" style="mask-type:luminance" maskUnits="userSpaceOnUse" x="0" y="0" width="905" height="905"><path d="M0 0h905v905H0V0z" fill="#fff"/></mask><g filter="url(#filter0_f_61_109)" mask="url(#mask0_61_109)"><path d="M140.275 152.153h707.031v561.666H140.275V152.153z" fill="#18A0FB"/><path d="M40.16 31.11h630.106v483.609H40.159V31.109z" fill="#F2371F"/><path d="M-211.544 83.712h697.982v529.991h-697.982V83.713z" fill="#EE46D3"/><path d="M96.156 435.531H592.21v471.732H96.156V435.531z" fill="#00C5DF"/></g><path d="M0 0h905v905H0V0z" fill="gray"/></g><defs><clipPath id="clip0_61_109"><path fill="#fff" transform="matrix(-1 0 0 1 905 0)" d="M0 0h905v905H0z"/></clipPath><filter id="filter0_f_61_109" x="-494.356" y="-251.703" width="1624.47" height="1441.78" filterUnits="userSpaceOnUse" color-interpolation-filters="sRGB"><feFlood flood-opacity="0" result="BackgroundImageFix"/><feBlend in="SourceGraphic" in2="BackgroundImageFix" result="shape"/><feGaussianBlur stdDeviation="141.406" result="effect1_foregroundBlur_61_109"/></filter></defs></svg>