<svg width="18" height="18" fill="none" xmlns="http://www.w3.org/2000/svg"><g clip-path="url(#clip0_61_948)" fill="#757185"><path d="M9 11.714a2.714 2.714 0 100-5.428 2.714 2.714 0 000 5.428z"/><path d="M12.392.857H5.606a4.756 4.756 0 00-4.75 4.75v6.787a4.756 4.756 0 004.752 4.749h6.785a4.756 4.756 0 004.75-4.75V5.605A4.756 4.756 0 0012.392.857zM9 13.072A4.076 4.076 0 014.928 9 4.076 4.076 0 019 4.929 4.075 4.075 0 0113.07 9 4.076 4.076 0 019 13.072zm4.75-8.143a.679.679 0 110-1.358.679.679 0 010 1.358z"/></g><defs><clipPath id="clip0_61_948"><path fill="#fff" transform="translate(.429 .428)" d="M0 0h17.143v17.143H0z"/></clipPath></defs></svg>