<svg width="20" height="20" fill="none" xmlns="http://www.w3.org/2000/svg"><path fill-rule="evenodd" clip-rule="evenodd" d="M17.5 10c0 .46-.373.833-.833.833H3.333a.833.833 0 010-1.667h13.334c.46 0 .833.374.833.834z" fill="#0E0C15"/><path d="M15.81 10a4.342 4.342 0 00-.419-.562c-.355-.402-.844-.86-1.354-1.304a35.484 35.484 0 00-1.399-1.147c-.191-.15-.521-.399-.632-.483a.833.833 0 11.988-1.342l.003.003a37.11 37.11 0 012.132 1.711c.532.46 1.085.975 1.511 1.458.212.24.411.492.561.742.137.226.299.555.299.924 0 .37-.162.698-.299.925a5.26 5.26 0 01-.56.741c-.427.483-.98.997-1.511 1.458-.536.465-1.069.893-1.466 1.203-.198.154-.546.417-.666.508l-.004.003a.833.833 0 01-.988-1.342c.11-.084.441-.334.632-.483.384-.3.893-.708 1.399-1.147.51-.443 1-.902 1.354-1.304a4.34 4.34 0 00.42-.562z" fill="#0E0C15"/></svg>