<svg width="20" height="20" fill="none" xmlns="http://www.w3.org/2000/svg"><mask id="path-1-inside-1_61_213" fill="#fff"><path d="M18.301 10c.938 0 1.714.766 1.555 1.69a10 10 0 11-4.082-9.855c.766.542.76 1.632.096 2.295-.663.664-1.733.64-2.543.167a6.603 6.603 0 103.058 7.383c.239-.907.978-1.68 1.916-1.68z"/></mask><path d="M18.301 10c.938 0 1.714.766 1.555 1.69a10 10 0 11-4.082-9.855c.766.542.76 1.632.096 2.295-.663.664-1.733.64-2.543.167a6.603 6.603 0 103.058 7.383c.239-.907.978-1.68 1.916-1.68z" stroke="url(#paint0_angular_61_213)" stroke-width="4" mask="url(#path-1-inside-1_61_213)"/><defs><radialGradient id="paint0_angular_61_213" cx="0" cy="0" r="1" gradientUnits="userSpaceOnUse" gradientTransform="matrix(0 10 -10 0 10 10)"><stop offset=".615" stop-color="#FC55FF" stop-opacity="0"/><stop offset=".767" stop-color="#6D30FF"/></radialGradient></defs></svg>