<svg width="202" height="38" fill="none" xmlns="http://www.w3.org/2000/svg"><path d="M51.52 30V9.56h5.432l5.124 12.208h.504L67.676 9.56h5.516V30h-3.948V12.556l.504.056-5.516 13.216h-4.06l-5.544-13.216.532-.056V30h-3.64zm26.715 0V9.56h3.892V30h-3.892zm3.332 0v-3.36h9.268V30h-9.268zm0-8.708v-3.36h8.54v3.36h-8.54zm0-8.372V9.56h9.044v3.36h-9.044zM99.507 30L92.981 9.56H97.1l5.404 17.696-1.176-.56h3.024l-1.204.56 4.984-17.696h3.976L106.059 30h-6.552zm15.806 0V9.56h5.432l5.124 12.208h.504l5.096-12.208h5.516V30h-3.948V12.556l.504.056-5.516 13.216h-4.06l-5.544-13.216.532-.056V30h-3.64zm35.619 0v-4.508h-.644V20.48c0-.877-.215-1.53-.644-1.96-.43-.43-1.092-.644-1.988-.644a74.044 74.044 0 00-3.668.112c-.654.019-1.242.047-1.764.084v-3.304c.429-.037.914-.075 1.456-.112a24.022 24.022 0 011.652-.056 50.42 50.42 0 011.624-.028c1.568 0 2.865.205 3.892.616 1.045.41 1.829 1.055 2.352 1.932.541.877.812 2.025.812 3.444V30h-3.08zm-4.9.392c-1.102 0-2.072-.196-2.912-.588-.822-.392-1.466-.952-1.932-1.68-.448-.728-.672-1.605-.672-2.632 0-1.12.27-2.035.812-2.744.56-.71 1.334-1.241 2.324-1.596 1.008-.355 2.184-.532 3.528-.532h3.528v2.324h-3.584c-.896 0-1.587.224-2.072.672-.467.43-.7.99-.7 1.68s.233 1.25.7 1.68c.485.43 1.176.644 2.072.644.541 0 1.036-.093 1.484-.28a2.594 2.594 0 001.148-1.008c.317-.485.494-1.139.532-1.96l.952 1.092c-.094 1.064-.355 1.96-.784 2.688a4.19 4.19 0 01-1.736 1.68c-.728.373-1.624.56-2.688.56zm18.085 5.6a31.57 31.57 0 01-4.34-.308v-3.248c.672.075 1.39.14 2.156.196a22.16 22.16 0 002.156.112c1.25 0 2.258-.15 3.024-.448.784-.299 1.353-.775 1.708-1.428.373-.635.56-1.447.56-2.436v-2.996l.84-1.904c-.056 1.4-.346 2.595-.868 3.584-.523.97-1.232 1.717-2.128 2.24-.896.504-1.932.756-3.108.756-1.046 0-1.998-.196-2.856-.588a6.683 6.683 0 01-2.184-1.624 7.622 7.622 0 01-1.4-2.436 8.779 8.779 0 01-.504-2.996v-.588c0-1.064.168-2.053.504-2.968a7.473 7.473 0 011.484-2.436 6.484 6.484 0 012.268-1.596c.877-.373 1.848-.56 2.912-.56 1.25 0 2.333.27 3.248.812.933.541 1.661 1.325 2.184 2.352.522 1.027.812 2.287.868 3.78l-.672.112v-6.58h3.08v13.412c0 1.848-.318 3.341-.952 4.48-.635 1.139-1.615 1.97-2.94 2.492-1.307.541-2.987.812-5.04.812zm1.12-9.212a4.2 4.2 0 002.044-.504 3.836 3.836 0 001.484-1.456c.373-.635.56-1.4.56-2.296v-.98c0-.859-.196-1.587-.588-2.184a3.553 3.553 0 00-1.484-1.344 4.337 4.337 0 00-2.016-.476c-.822 0-1.55.196-2.184.588-.616.373-1.102.905-1.456 1.596-.355.69-.532 1.512-.532 2.464 0 .933.177 1.745.532 2.436.354.69.84 1.223 1.456 1.596.634.373 1.362.56 2.184.56zM178.022 30V14.796h3.892V30h-3.892zm-2.128-12.292v-2.912h6.02v2.912h-6.02zm3.556-4.732c-.765 0-1.335-.196-1.708-.588-.355-.41-.532-.915-.532-1.512 0-.635.177-1.148.532-1.54.373-.392.943-.588 1.708-.588s1.325.196 1.68.588c.355.392.532.905.532 1.54 0 .597-.177 1.101-.532 1.512-.355.392-.915.588-1.68.588zm13.698 17.556c-1.326 0-2.474-.224-3.444-.672a7.26 7.26 0 01-2.408-1.792 7.655 7.655 0 01-1.428-2.52 8.797 8.797 0 01-.476-2.856v-.532a9.05 9.05 0 01.476-2.94 7.426 7.426 0 011.484-2.52 6.943 6.943 0 012.408-1.764c.97-.448 2.09-.672 3.36-.672 1.325 0 2.51.261 3.556.784 1.045.504 1.876 1.213 2.492 2.128.634.915.989 1.979 1.064 3.192h-3.78a3.048 3.048 0 00-1.008-1.96c-.56-.523-1.335-.784-2.324-.784-.859 0-1.578.205-2.156.616-.56.41-.98.98-1.26 1.708-.28.71-.42 1.53-.42 2.464 0 .896.13 1.708.392 2.436.28.728.7 1.297 1.26 1.708.578.41 1.316.616 2.212.616.672 0 1.25-.121 1.736-.364a2.875 2.875 0 001.148-1.008c.298-.43.485-.915.56-1.456h3.78c-.075 1.232-.439 2.315-1.092 3.248-.635.915-1.484 1.633-2.548 2.156-1.046.523-2.24.784-3.584.784z" fill="#fff"/><path d="M16.555 2.656c0 1.467-1.144 2.656-2.555 2.656-1.41 0-2.555-1.189-2.555-2.656S12.59 0 14 0c1.41 0 2.555 1.19 2.555 2.656z" fill="#9453FF"/><path d="M13.08 5.1h1.84v5.1h-1.84V5.1z" fill="#9453FF"/><path d="M10.832 8.394c0 .645.503 1.168 1.124 1.168h4.088c.62 0 1.124-.523 1.124-1.168 0-.646-.503-1.169-1.124-1.169h-4.088c-.62 0-1.124.523-1.124 1.169z" fill="#9453FF"/><path d="M0 34l3.989-2.708a3.976 3.976 0 012.235-.692h17.688C26.17 30.6 28 28.697 28 26.35v-5.1h-3.679v4.038c0 .938-.732 1.7-1.635 1.7H5.314c-.903 0-1.635-.762-1.635-1.7V13.812c0-.938.732-1.7 1.635-1.7h17.372c.903 0 1.635.762 1.635 1.7v4.038H28v-5.1c0-2.347-1.83-4.25-4.088-4.25H4.088C1.83 8.5 0 10.403 0 12.75V34z" fill="#9453FF"/><path d="M21.051 19.019c0 1.467-1.144 2.656-2.555 2.656-1.41 0-2.554-1.19-2.554-2.656 0-1.467 1.143-2.656 2.554-2.656 1.411 0 2.555 1.189 2.555 2.656zm-8.993 0c0 1.467-1.143 2.656-2.554 2.656-1.411 0-2.555-1.19-2.555-2.656 0-1.467 1.144-2.656 2.555-2.656 1.41 0 2.554 1.189 2.554 2.656z" fill="#9453FF"/></svg>