<svg width="20" height="20" fill="none" xmlns="http://www.w3.org/2000/svg"><path d="M17.436 6.25c.419.365.78.679 1.031.963.265.3.491.66.491 1.12 0 .46-.226.819-.49 1.119-.252.284-.613.598-1.032.962l-1.488 1.293c-.403.35-.775.744-1.205 1.06-.419.309-.906.45-1.415.294a1.228 1.228 0 01-.756-.677 2.288 2.288 0 01-.188-.805 5.066 5.066 0 01-.006-.539c-.172-.003-.343-.008-.514-.012h-.01c-.41-.011-.82-.022-1.23-.02-.792.001-1.542.048-2.234.212-1.097.26-2.008.88-3.063 1.528a.625.625 0 01-.952-.533c0-1.45.294-2.914 1.119-4.108.837-1.212 2.173-2.076 4.11-2.39.916-.15 1.89-.125 2.773-.108a5.013 5.013 0 01.006-.523c.018-.246.063-.54.189-.805.132-.281.368-.56.756-.677.548-.168.997.027 1.376.294.339.239.76.639 1.244 1.06l1.488 1.292z" fill="#fff"/><path fill-rule="evenodd" clip-rule="evenodd" d="M9.64 2.498c0 .46-.372.834-.832.835-1.622.003-2.78.026-3.66.168-.857.139-1.36.377-1.73.748-.4.399-.647.95-.78 1.935-.136 1.01-.138 2.343-.138 4.232 0 1.89.002 3.223.138 4.232.133.986.38 1.537.78 1.936.4.4.952.646 1.94.778 1.012.136 2.348.138 4.242.138 1.893 0 3.23-.002 4.241-.138.988-.132 1.541-.379 1.941-.778.562-.56.811-1.407.886-3.284a.833.833 0 111.665.066c-.075 1.89-.317 3.343-1.373 4.398-.762.76-1.725 1.093-2.897 1.25-1.136.152-2.584.152-4.401.152h-.124c-1.817 0-3.266 0-4.401-.152-1.173-.157-2.135-.49-2.897-1.25S1.144 16.042.986 14.87c-.153-1.134-.153-2.58-.153-4.393v-.124c0-1.813 0-3.259.153-4.392.158-1.171.492-2.133 1.254-2.893.705-.704 1.583-1.042 2.642-1.213 1.035-.167 2.328-.187 3.923-.19.46 0 .834.372.835.832z" fill="#fff"/></svg>