<svg width="601" height="601" fill="none" xmlns="http://www.w3.org/2000/svg"><g style="mix-blend-mode:color-dodge" opacity=".5" clip-path="url(#clip0_61_670)"><path d="M601 0H0v601h601V0z" fill="#000"/><path d="M601 0H0v601h601V0z" fill="#9453FF" fill-opacity=".388"/><mask id="mask0_61_670" style="mask-type:luminance" maskUnits="userSpaceOnUse" x="0" y="0" width="601" height="601"><path d="M601 0H0v601h601V0z" fill="#fff"/></mask><g filter="url(#filter0_f_61_670)" mask="url(#mask0_61_670)"><path d="M507.845 101.043H38.313v372.996h469.532V101.043z" fill="#18A0FB"/><path d="M574.33 20.66H155.884v321.159H574.33V20.659z" fill="#F2371F"/><path d="M741.483 55.592H277.962v351.961h463.521V55.593z" fill="#EE46D3"/><path d="M537.143 289.231H207.72v313.271h329.423V289.231z" fill="#00C5DF"/></g><path d="M601 0H0v601h601V0z" fill="gray"/></g><defs><clipPath id="clip0_61_670"><path fill="#fff" d="M0 0h601v601H0z"/></clipPath><filter id="filter0_f_61_670" x="-149.499" y="-167.153" width="1078.79" height="957.468" filterUnits="userSpaceOnUse" color-interpolation-filters="sRGB"><feFlood flood-opacity="0" result="BackgroundImageFix"/><feBlend in="SourceGraphic" in2="BackgroundImageFix" result="shape"/><feGaussianBlur stdDeviation="93.906" result="effect1_foregroundBlur_61_670"/></filter></defs></svg>