<svg width="384" height="438" fill="none" xmlns="http://www.w3.org/2000/svg"><path d="M32 1h285.734a30.998 30.998 0 0124.431 11.918l34.266 43.874A30.997 30.997 0 01383 75.873V406c0 17.121-13.879 31-31 31H32c-17.12 0-31-13.879-31-31V32C1 14.88 14.88 1 32 1z" stroke="#fff" stroke-opacity=".15" stroke-width="2"/><path d="M32 1h285.734a30.998 30.998 0 0124.431 11.918l34.266 43.874A30.997 30.997 0 01383 75.873V406c0 17.121-13.879 31-31 31H32c-17.12 0-31-13.879-31-31V32C1 14.88 14.88 1 32 1z" stroke="url(#paint0_linear_61_596)" stroke-opacity=".85" stroke-width="2"/><defs><linearGradient id="paint0_linear_61_596" x1="192" y1="0" x2="192" y2="438" gradientUnits="userSpaceOnUse"><stop stop-color="#33CEFF"/><stop offset=".563" stop-color="#D633FF" stop-opacity="0"/></linearGradient></defs></svg>