<svg width="22" height="22" fill="none" xmlns="http://www.w3.org/2000/svg"><path fill-rule="evenodd" clip-rule="evenodd" d="M11.057.75c2.19 0 3.912 0 5.255.18 1.377.186 2.469.573 3.327 1.43.858.86 1.245 1.951 1.43 3.328.181 1.343.181 3.064.181 5.255v.114c0 2.19 0 3.912-.18 5.255-.186 1.377-.573 2.469-1.43 3.327-.86.858-1.951 1.245-3.328 1.43-1.343.181-3.064.181-5.255.181h-.114c-2.19 0-3.912 0-5.255-.18-1.377-.186-2.469-.573-3.327-1.43-.858-.86-1.245-1.951-1.43-3.328C.75 14.969.75 13.248.75 11.057v-.114c0-2.19 0-3.912.18-5.255.186-1.377.573-2.469 1.43-3.327.86-.858 1.951-1.245 3.328-1.43C7.031.75 8.752.75 10.943.75h.114zM6 14.25a.75.75 0 01.75.75v2a.75.75 0 01-1.5 0v-2a.75.75 0 01.75-.75zm5.75-.25a.75.75 0 00-1.5 0v3a.75.75 0 001.5 0v-3zM16 11.25a.75.75 0 01.75.75v5a.75.75 0 01-1.5 0v-5a.75.75 0 01.75-.75zm-1.141-6.998c.231-.01.51.011.786.168.285.162.444.4.544.621.082.182.146.405.204.608l.01.034.318 1.11a.75.75 0 11-1.442.414l-.147-.513C12.9 9.906 9.322 11.25 5 11.25a.75.75 0 010-1.5c3.953 0 6.963-1.192 8.846-3.835l-.724.12a.75.75 0 01-.244-1.48l1.268-.21.033-.005c.237-.039.476-.078.68-.088z" fill="#0E0C15"/></svg>