<svg width="22" height="22" fill="none" xmlns="http://www.w3.org/2000/svg"><path fill-rule="evenodd" clip-rule="evenodd" d="M9 21.75c-.3 0-.552-.089-.776-.2a7.756 7.756 0 01-.657-.386l-1.938-1.222a7.16 7.16 0 00-.515-.31c-.106-.057-.181-.029-.206-.007a5.733 5.733 0 00-.537.317l-.509.35a7.27 7.27 0 01-.735.453c-.472.247-1.313.585-2.071.096-.514-.33-.674-.875-.741-1.354C.25 19.02.25 18.41.25 17.701V7c0-1.38 0-2.492.116-3.366.121-.907.38-1.67.98-2.275.602-.607 1.36-.87 2.261-.991C4.475.25 5.577.25 6.945.25h12.071c.475 0 .864.23 1.153.51.285.28.516.648.703 1.05.382.817.65 1.929.796 3.154.048.4.093.784.08 1.108-.017.378-.116.759-.415 1.093-.31.345-.696.478-1.075.535-.337.05-.75.05-1.193.05H17.75v9.95c0 .71 0 1.32-.065 1.787-.066.479-.227 1.024-.74 1.354-.76.489-1.6.15-2.072-.096a7.27 7.27 0 01-.735-.454l-.509-.35a5.733 5.733 0 00-.537-.316c-.025-.022-.1-.05-.206.008-.114.057-.26.148-.515.309l-1.938 1.222a7.758 7.758 0 01-.657.387A1.73 1.73 0 019 21.75zM19.121 1.834a.147.147 0 00-.209-.001.983.983 0 00-.093.105c-.167.21-.35.56-.518 1.058-.27.805-.465 1.89-.529 3.126l-.006.128h1.25c.51 0 .808-.002 1.02-.034.164-.024.206-.046.213-.209.008-.188-.02-.448-.076-.915-.133-1.12-.374-2.035-.66-2.648-.144-.307-.282-.502-.392-.61zM9.75 6a.75.75 0 00-1.5 0v.334a2.95 2.95 0 00-1.114.505c-.504.378-.886.958-.886 1.661 0 .703.382 1.283.886 1.66.504.379 1.165.59 1.864.59.406 0 .744.124.964.29.22.164.286.335.286.46s-.066.296-.286.46c-.22.166-.558.29-.964.29-.668 0-1.09-.321-1.208-.57a.75.75 0 00-1.357.64c.33.7 1.026 1.165 1.815 1.345V14a.75.75 0 001.5 0v-.334a2.95 2.95 0 001.114-.505c.504-.378.886-.958.886-1.661 0-.703-.382-1.283-.886-1.66C10.36 9.461 9.7 9.25 9 9.25c-.406 0-.744-.124-.964-.29-.22-.164-.286-.335-.286-.46s.066-.296.286-.46c.22-.166.558-.29.964-.29.668 0 1.09.321 1.208.57a.75.75 0 101.357-.64c-.33-.7-1.026-1.165-1.815-1.345V6z" fill="#0E0C15"/></svg>