<svg width="24" height="24" fill="none" xmlns="http://www.w3.org/2000/svg"><path fill-rule="evenodd" clip-rule="evenodd" d="M12 8.25c-1.596 0-3.046.034-4.475.1-2.058.095-3.729 1.688-4 3.705-.149 1.1-.275 2.257-.275 3.445 0 1.188.126 2.344.275 3.445.271 2.017 1.942 3.61 4 3.705 1.429.066 2.88.1 4.475.1 1.596 0 3.046-.034 4.475-.1 2.058-.095 3.729-1.688 4-3.705.149-1.1.275-2.257.275-3.445 0-1.188-.126-2.344-.274-3.445-.272-2.017-1.943-3.61-4.001-3.705A96.177 96.177 0 0012 8.25zM9.5 14.5a1 1 0 100 2h.009a1 1 0 100-2H9.5zm4.991 0a1 1 0 100 2h.009a1 1 0 100-2h-.009z" fill="#0E0C15"/><path fill-rule="evenodd" clip-rule="evenodd" d="M12 3.25a3.5 3.5 0 00-3.5 3.5v2.5a1 1 0 01-2 0v-2.5a5.5 5.5 0 1111 0v2.5a1 1 0 11-2 0v-2.5a3.5 3.5 0 00-3.5-3.5z" fill="#0E0C15"/></svg>