<svg width="72" height="72" fill="none" xmlns="http://www.w3.org/2000/svg"><path d="M51.923 32.391c2.77 1.604 2.77 5.614 0 7.218L33.231 50.435C30.46 52.04 27 50.035 27 46.828V25.173c0-3.207 3.462-5.212 6.23-3.608L51.924 32.39z" fill="url(#paint0_linear_324_5465)"/><path d="M32.98 50.003l.25.432-.25-.432c-2.433 1.41-5.48-.35-5.48-3.176V25.173c0-2.825 3.047-4.585 5.48-3.176l.25-.432-.25.432 18.693 10.827c2.436 1.411 2.436 4.941 0 6.352L32.98 50.003z" stroke="url(#paint1_linear_324_5465)" stroke-opacity=".4"/><defs><linearGradient id="paint0_linear_324_5465" x1="54" y1="21" x2="24.846" y2="23.265" gradientUnits="userSpaceOnUse"><stop stop-color="#6C35E2"/><stop offset="1" stop-color="#4D35E2"/></linearGradient><linearGradient id="paint1_linear_324_5465" x1="40.5" y1="21" x2="44" y2="46" gradientUnits="userSpaceOnUse"><stop stop-color="#fff"/><stop offset="1" stop-color="#fff" stop-opacity="0"/></linearGradient></defs></svg>