<svg width="317" height="293" fill="none" xmlns="http://www.w3.org/2000/svg"><path fill-rule="evenodd" clip-rule="evenodd" d="M168 24.677c0-13.255 10.745-24 24-24h32.5c12.979 0 23.5 10.522 23.5 23.5 0 12.979 10.521 23.5 23.5 23.5H293c13.255 0 24 10.745 24 24v32c0 13.255-10.745 24-24 24h-32.5c-12.979 0-23.5-10.521-23.5-23.5 0-12.978-10.521-23.5-23.5-23.5H192c-13.255 0-24-10.745-24-24v-32zm-88 80c0-13.255-10.745-24-24-24H24c-13.255 0-24 10.745-24 24v32c0 13.255 10.745 24 24 24h23c13.255 0 24 10.745 24 24v4c0 13.255-10.745 24-24 24H24c-13.255 0-24 10.745-24 24v32c0 13.255 10.745 24 24 24h32c13.255 0 24-10.745 24-24v-15c0-13.255 10.745-24 24-24h23c13.255 0 24-10.745 24-24v-32c0-13.255-10.745-24-24-24h-23c-13.255 0-24-10.745-24-24v-21z" fill="#15131D"/></svg>