<svg width="16" height="16" fill="none" xmlns="http://www.w3.org/2000/svg"><path fill-rule="evenodd" clip-rule="evenodd" d="M8 .833c.368 0 .667.299.667.667v1.667a.667.667 0 01-1.334 0V1.5c0-.368.299-.667.667-.667zm0 10.5c.368 0 .667.299.667.667v2.667a.667.667 0 11-1.334 0V12c0-.368.299-.667.667-.667zM.833 8c0-.368.299-.667.667-.667h2.333a.667.667 0 010 1.334H1.5A.667.667 0 01.833 8zM12.5 8c0-.368.298-.667.667-.667h1a.667.667 0 110 1.334h-1A.667.667 0 0112.5 8zm-1.138 3.362c.26-.26.682-.26.943 0l.471.471a.667.667 0 01-.943.943l-.471-.471a.667.667 0 010-.943zm1.552-8.222c.26.26.26.682 0 .942l-.943.943a.667.667 0 11-.943-.943l.943-.943c.26-.26.683-.26.943 0zm-7.276 7.222c.26.26.26.682 0 .943L3.752 13.19a.667.667 0 11-.942-.942l1.885-1.886c.26-.26.683-.26.943 0zm-2.69-7.361c.26-.26.682-.26.942 0l1.415 1.414a.667.667 0 11-.943.943L2.948 3.944a.667.667 0 010-.943z" fill="#000"/></svg>