<svg width="1280" height="581" fill="none" xmlns="http://www.w3.org/2000/svg"><path d="M1248 1H67.72a31 31 0 00-23.083 10.308L8.917 51.155A31 31 0 001 71.846V549c0 17.121 13.88 31 31 31h1216c17.12 0 31-13.879 31-31V32c0-17.12-13.88-31-31-31z" stroke="#fff" stroke-opacity=".15" stroke-width="2"/><path d="M1248 1H67.72a31 31 0 00-23.083 10.308L8.917 51.155A31 31 0 001 71.846V549c0 17.121 13.88 31 31 31h1216c17.12 0 31-13.879 31-31V32c0-17.12-13.88-31-31-31z" stroke="url(#paint0_linear_61_257)" stroke-opacity=".85" stroke-width="2"/><defs><linearGradient id="paint0_linear_61_257" x1="640" y1="0" x2="640" y2="581" gradientUnits="userSpaceOnUse"><stop stop-color="#FFC876"/><stop offset=".563" stop-color="#D633FF" stop-opacity="0"/></linearGradient></defs></svg>