<svg width="41" height="48" fill="none" xmlns="http://www.w3.org/2000/svg"><mask id="mask0_61_233" style="mask-type:alpha" maskUnits="userSpaceOnUse" x="0" y="0" width="38" height="46"><path d="M35.927 16.271a1.23 1.23 0 011.125.705c.219.468.15.982-.128 1.33L15.498 45.12a1.425 1.425 0 01-.457.344 1.221 1.221 0 01-1.109-.012 1.251 1.251 0 01-.674-1.44l3.856-14.758-15.867.048A1.228 1.228 0 01.123 28.6c-.203-.432-.151-.982.127-1.33L21.693.489c.353-.47.984-.631 1.513-.35.548.227.834.838.71 1.422L20.06 16.32l15.867-.05z" fill="#0A0A0A"/></mask><g mask="url(#mask0_61_233)"><path d="M35.938 16.137c.479-.005.914.27 1.115.699.218.464.15.973-.126 1.319l-21.25 26.593a1.409 1.409 0 01-.452.34c-.36.167-.75.175-1.1-.01a1.241 1.241 0 01-.669-1.428l3.825-14.637-15.736.048c-.48.005-.915-.27-1.115-.699-.201-.428-.15-.973.126-1.319L21.822.486c.35-.467.976-.627 1.5-.35.543.227.827.833.704 1.412l-3.824 14.637 15.736-.048z" fill="#fff"/></g><mask id="mask1_61_233" style="mask-type:alpha" maskUnits="userSpaceOnUse" x="0" y="0" width="41" height="48"><path d="M35.986 16.79c.483-.005 4.275 2.029 4.478 2.46.218.468.15.982-.128 1.33L18.91 47.396a1.435 1.435 0 01-.457.343c-.363.168-.757.176-1.109-.011-.512-.245-3.678-2.83-3.517-3.43l6.901-11.195H5.698c-.483.005-5.28-4.61-5.001-4.959C10.74 15.297 17.91 6.19 22.207.824c.702-.877 3.882 1.308 4.41 1.589.548.227.835.839.71 1.422l-3.855 14.76 12.514-1.805z" fill="#0A0A0A"/></mask><g mask="url(#mask1_61_233)"><path d="M35.986 16.79c.483-.005 4.275 2.029 4.478 2.46.218.468.15.982-.128 1.33L18.91 47.396a1.435 1.435 0 01-.457.343c-.363.168-.757.176-1.109-.011-.512-.245-3.678-2.83-3.517-3.43l6.901-11.195H5.698c-.483.005-5.28-4.61-5.001-4.959C10.74 15.297 17.91 6.19 22.207.824c.702-.877 3.882 1.308 4.41 1.589.548.227.835.839.71 1.422l-3.855 14.76 12.514-1.805z" stroke="#fff" stroke-width=".931"/></g></svg>