<svg width="45" height="45" fill="none" xmlns="http://www.w3.org/2000/svg"><path d="M13.76 18.91l8.74-8.74 8.743 8.744 5.085-5.085L22.5 0 8.676 13.824l5.085 5.085zm-3.59 3.59l-5.085-5.086L0 22.5l5.085 5.085L10.17 22.5zm3.59 3.59l8.74 8.74 8.743-8.744 5.088 5.083-.003.002L22.5 45 8.668 31.169l5.093-5.078zm26.155 1.497L45 22.502l-5.085-5.085-5.085 5.085 5.085 5.085z" fill="#fff"/><path d="M27.657 22.497h.003l-5.16-5.16-5.163 5.163.008.007 5.155 5.156 5.16-5.16.002-.003-.005-.003z" fill="#fff"/></svg>