<svg width="52" height="60" fill="none" xmlns="http://www.w3.org/2000/svg"><path d="M20.404 13.655c-.646-.1-.674-.112-.37-.159.583-.09 1.96.033 2.907.259 2.214.527 4.228 1.878 6.378 4.277l.571.637.817-.132c3.443-.554 6.945-.114 9.874 1.242.806.373 2.076 1.116 2.235 1.307.05.06.143.452.206.87.218 1.445.109 2.552-.332 3.38-.24.45-.254.592-.092.978.129.307.488.535.843.534.728 0 1.512-1.18 1.875-2.82l.144-.652.286.324c1.566 1.779 2.797 4.205 3.008 5.932l.056.45-.264-.41c-.453-.704-.908-1.183-1.492-1.57-1.05-.697-2.163-.934-5.106-1.09-2.659-.14-4.164-.367-5.656-.855-2.538-.83-3.818-1.934-6.834-5.898-1.34-1.761-2.167-2.735-2.99-3.52-1.872-1.783-3.71-2.718-6.064-3.084z" fill="#fff"/><path d="M43.416 17.587c.067-1.18.226-1.958.547-2.669.127-.281.246-.511.265-.511.018 0-.037.207-.123.461-.233.69-.272 1.633-.111 2.73.204 1.394.32 1.595 1.79 3.1.688.705 1.49 1.595 1.78 1.977l.529.695-.529-.497c-.646-.607-2.132-1.791-2.46-1.96-.22-.114-.252-.112-.388.023-.125.125-.152.313-.169 1.199-.027 1.38-.215 2.267-.668 3.154-.245.48-.284.377-.062-.164.165-.404.182-.582.181-1.92-.002-2.685-.32-3.331-2.187-4.438a20.471 20.471 0 00-1.732-.898c-.48-.214-.86-.4-.846-.414.053-.052 1.873.48 2.606.762 1.09.42 1.27.475 1.402.424.089-.034.132-.293.175-1.054zm-21.757 4.596c-1.312-1.81-2.123-4.584-1.948-6.658l.055-.642.298.054c.561.103 1.528.463 1.98.739 1.243.756 1.78 1.751 2.328 4.307.16.749.37 1.596.467 1.883.156.462.745 1.54 1.223 2.24.345.505.116.744-.646.675-1.164-.105-2.74-1.195-3.757-2.598zM41.825 35.65c-6.13-2.473-8.29-4.62-8.29-8.242 0-.533.019-.969.04-.969.023 0 .26.176.528.391 1.243 1 2.635 1.426 6.489 1.99 2.267.33 3.544.599 4.72.99 3.742 1.243 6.057 3.766 6.61 7.203.16.999.066 2.872-.195 3.859-.205.78-.831 2.184-.998 2.238-.046.015-.09-.162-.103-.402-.063-1.29-.714-2.547-1.807-3.489-1.242-1.07-2.912-1.922-6.995-3.569zm-4.304 1.028a10.94 10.94 0 00-.296-1.3l-.156-.467.29.327c.402.452.72 1.03.99 1.801.205.589.228.764.226 1.72-.001.938-.027 1.135-.217 1.664a5.26 5.26 0 01-1.294 2.062c-1.12 1.142-2.56 1.775-4.637 2.037-.36.045-1.413.122-2.339.17-2.332.122-3.867.373-5.246.858-.198.07-.375.112-.393.094-.056-.055.883-.616 1.659-.99 1.093-.528 2.182-.816 4.621-1.223 1.205-.202 2.45-.445 2.765-.543 2.984-.916 4.518-3.282 4.027-6.21z" fill="#fff"/><path d="M40.331 41.679c-.814-1.755-1.001-3.449-.555-5.028.048-.17.124-.307.17-.307.047 0 .239.104.428.231.375.253 1.128.68 3.133 1.775 2.503 1.367 3.93 2.426 4.9 3.636.85 1.059 1.375 2.265 1.628 3.736.144.834.06 2.839-.154 3.678-.672 2.645-2.236 4.724-4.467 5.936-.327.178-.62.324-.652.325-.031 0 .088-.303.265-.675.75-1.571.836-3.1.268-4.802-.347-1.041-1.055-2.313-2.485-4.461-1.662-2.498-2.07-3.163-2.479-4.044zm-23.025 9.466c2.274-1.925 5.105-3.292 7.683-3.712 1.111-.18 2.962-.109 3.991.155 1.65.423 3.125 1.37 3.892 2.499.75 1.103 1.072 2.064 1.407 4.203.132.843.276 1.69.32 1.883.25 1.108.74 1.994 1.347 2.439.963.706 2.622.75 4.254.112.277-.108.518-.183.535-.166.059.06-.763.61-1.343.9-.78.39-1.4.542-2.224.542-1.495 0-2.736-.762-3.771-2.316-.204-.305-.662-1.221-1.018-2.034-1.093-2.5-1.633-3.26-2.903-4.093-1.104-.725-2.53-.855-3.6-.328-1.409.691-1.802 2.494-.793 3.636.4.454 1.148.846 1.759.922a1.88 1.88 0 002.126-1.885c0-.751-.288-1.18-1.014-1.508-.99-.447-2.055.076-2.05 1.008.003.398.175.648.573.828.255.116.261.125.053.081-.909-.188-1.122-1.286-.39-2.015.876-.875 2.69-.489 3.313.705.262.502.293 1.5.064 2.104-.51 1.35-2 2.06-3.51 1.674-1.028-.263-1.447-.548-2.687-1.828-2.154-2.223-2.99-2.654-6.096-3.14l-.596-.093.678-.573z" fill="#fff"/><path fill-rule="evenodd" clip-rule="evenodd" d="M1.06 1.33c7.195 8.75 18.287 22.374 18.838 23.137.454.63.283 1.196-.496 1.64-.433.246-1.324.496-1.77.496-.504 0-1.072-.243-1.486-.637-.292-.278-1.472-2.044-4.197-6.28-2.085-3.241-3.83-5.93-3.877-5.975-.11-.104-.108-.1 3.665 6.663 2.368 4.247 3.168 5.749 3.168 5.95 0 .408-.111.623-.614 1.185-.838.937-1.213 1.99-1.483 4.169-.304 2.443-1.156 4.168-3.52 7.121-1.383 1.73-1.61 2.046-1.958 2.743-.44.877-.56 1.369-.61 2.477-.052 1.171.05 1.928.406 3.048.313.98.64 1.628 1.474 2.923.72 1.117 1.135 1.948 1.135 2.273 0 .258.049.259 1.165.006 2.67-.604 4.838-1.667 6.058-2.97.755-.805.932-1.25.938-2.355.003-.723-.022-.874-.217-1.29-.317-.676-.895-1.239-2.168-2.11-1.668-1.143-2.38-2.063-2.577-3.328-.162-1.038.026-1.77.948-3.709.956-2.005 1.192-2.86 1.352-4.882.104-1.307.247-1.822.621-2.235.391-.432.743-.578 1.71-.71 1.576-.216 2.58-.624 3.404-1.386.716-.66 1.016-1.298 1.062-2.256l.034-.727-.4-.467C20.218 22.152.09 0 .002 0-.02 0 .458.599 1.06 1.33zm9.488 44.014a1.286 1.286 0 00-.395-1.693c-.517-.345-1.321-.182-1.321.267 0 .137.075.237.246.325.287.148.308.314.082.655-.229.344-.21.647.052.853.423.332 1.022.15 1.336-.407zM23.06 29.061c-.74.228-1.46 1.014-1.682 1.838-.136.502-.058 1.384.145 1.656.329.44.646.556 1.507.55 1.685-.012 3.15-.736 3.32-1.641.14-.742-.503-1.77-1.39-2.222-.457-.233-1.43-.326-1.9-.181zm1.97 1.544c.26-.37.146-.77-.296-1.04-.841-.516-2.114-.09-2.114.707 0 .397.663.83 1.272.83.405 0 .959-.242 1.138-.497z" fill="#fff"/></svg>