<svg width="18" height="18" fill="none" xmlns="http://www.w3.org/2000/svg"><g clip-path="url(#clip0_61_958)"><path d="M17.537 2.233a.366.366 0 00-.25-.271 1.286 1.286 0 00-.674.048S1.593 7.408.736 8.006c-.186.129-.247.203-.278.292-.148.425.313.613.313.613l3.872 1.261a.43.43 0 00.196-.012c.88-.556 8.86-5.595 9.321-5.764.072-.022.126 0 .114.054-.188.646-7.08 6.77-7.117 6.807a.147.147 0 00-.054.126l-.36 3.778s-.151 1.178 1.025 0a32.225 32.225 0 012.036-1.862c1.331.918 2.764 1.935 3.382 2.464a1.075 1.075 0 00.784.303c.59-.022.75-.667.75-.667s2.736-11.011 2.829-12.487c.008-.145.02-.238.021-.337a1.225 1.225 0 00-.033-.342z" fill="#757185"/></g><defs><clipPath id="clip0_61_958"><path fill="#fff" transform="translate(.429 .428)" d="M0 0h17.143v17.143H0z"/></clipPath></defs></svg>