<svg width="18" height="18" fill="none" xmlns="http://www.w3.org/2000/svg"><g clip-path="url(#clip0_61_944)"><path d="M17.571 3.697c-.643.267-1.286.482-2.036.535a3.462 3.462 0 001.554-1.928c-.696.428-1.446.696-2.25.857a3.449 3.449 0 00-2.518-1.125 3.532 3.532 0 00-3.536 3.536c0 .267.054.535.108.803-2.947-.16-5.518-1.553-7.286-3.696a3.372 3.372 0 00-.482 1.768c0 1.232.643 2.303 1.553 2.946a3.26 3.26 0 01-1.607-.429v.054c0 1.714 1.232 3.107 2.84 3.429-.322.053-.59.107-.911.107-.215 0-.429 0-.643-.054.428 1.393 1.768 2.41 3.268 2.464-1.179.965-2.732 1.5-4.393 1.5-.268 0-.59 0-.857-.053 1.607.964 3.482 1.553 5.464 1.553 6.482 0 10.018-5.357 10.018-10.017v-.429c.643-.536 1.232-1.125 1.714-1.821z" fill="#757185"/></g><defs><clipPath id="clip0_61_944"><path fill="#fff" transform="translate(.428 .428)" d="M0 0h17.143v17.143H0z"/></clipPath></defs></svg>