<svg width="488" height="54" fill="none" xmlns="http://www.w3.org/2000/svg"><g filter="url(#filter0_b_61_211)"><rect width="488" height="54" rx="24" fill="#0E0C17" fill-opacity=".85"/><mask id="path-2-inside-1_61_211" fill="#fff"><path d="M40.301 27c.938 0 1.714.766 1.555 1.69a10 10 0 11-4.082-9.855c.766.542.76 1.632.096 2.295-.663.664-1.733.64-2.543.167a6.604 6.604 0 00-9.645 3.786 6.602 6.602 0 1012.703 3.597c.239-.907.978-1.68 1.916-1.68z"/></mask><path d="M40.301 27c.938 0 1.714.766 1.555 1.69a10 10 0 11-4.082-9.855c.766.542.76 1.632.096 2.295-.663.664-1.733.64-2.543.167a6.604 6.604 0 00-9.645 3.786 6.602 6.602 0 1012.703 3.597c.239-.907.978-1.68 1.916-1.68z" stroke="url(#paint0_angular_61_211)" stroke-width="4" mask="url(#path-2-inside-1_61_211)"/><path d="M57.585 20.91h1.892l4.45 10.866h.152l4.45-10.867h1.892V34h-1.484v-9.946h-.127L64.719 34h-1.432l-4.091-9.946h-.128V34h-1.483V20.91zm18.699 13.32a3.99 3.99 0 01-1.694-.351 2.907 2.907 0 01-1.208-1.03c-.299-.451-.448-.997-.448-1.636 0-.562.11-1.018.332-1.368.222-.354.518-.63.889-.83.37-.201.78-.35 1.227-.448.452-.102.906-.183 1.362-.243.596-.077 1.08-.134 1.45-.173.376-.042.648-.113.819-.21.175-.099.262-.27.262-.512v-.051c0-.63-.172-1.12-.518-1.47-.34-.35-.858-.524-1.553-.524-.72 0-1.285.157-1.694.473-.409.315-.697.652-.863 1.01l-1.432-.512c.256-.596.597-1.061 1.023-1.393.43-.337.9-.571 1.406-.703a5.84 5.84 0 011.509-.205c.315 0 .677.038 1.087.115.413.072.811.224 1.195.454.388.23.71.577.965 1.042.256.464.384 1.086.384 1.866V34h-1.509v-1.33h-.077a2.655 2.655 0 01-.511.684c-.239.243-.556.45-.952.62-.397.17-.88.256-1.451.256zm.23-1.355c.596 0 1.1-.117 1.508-.352a2.393 2.393 0 001.253-2.077v-1.38c-.064.076-.205.146-.422.21-.213.06-.46.113-.741.16a33.842 33.842 0 01-1.445.192 5.773 5.773 0 00-1.1.25 1.88 1.88 0 00-.817.504c-.205.222-.307.524-.307.908 0 .524.194.92.581 1.189.392.264.889.396 1.49.396zm8.43-2.454l-.026-1.867h.306l4.296-4.372h1.866L86.81 28.81h-.128l-1.739 1.61zM83.536 34V20.91h1.508V34h-1.508zm6.239 0l-3.836-4.858 1.074-1.048L91.694 34h-1.918zm7.264.205c-.946 0-1.762-.21-2.448-.627a4.205 4.205 0 01-1.579-1.764c-.366-.759-.55-1.64-.55-2.646s.184-1.892.55-2.66c.37-.77.886-1.372 1.547-1.802.665-.435 1.44-.652 2.327-.652.511 0 1.016.085 1.515.256.498.17.952.447 1.361.83.409.38.735.883.978 1.51.243.626.364 1.397.364 2.313v.64h-7.568v-1.305h6.034c0-.554-.11-1.048-.332-1.483a2.505 2.505 0 00-.933-1.029c-.4-.251-.874-.377-1.42-.377-.6 0-1.12.15-1.559.448-.435.294-.77.677-1.004 1.15a3.38 3.38 0 00-.351 1.521v.87c0 .741.128 1.37.384 1.885.26.512.62.902 1.08 1.17.46.264.995.396 1.604.396.396 0 .754-.055 1.074-.166a2.29 2.29 0 00.837-.511c.235-.23.416-.516.544-.857l1.457.41a3.228 3.228 0 01-.773 1.303c-.363.371-.81.66-1.343.87-.532.204-1.131.306-1.796.306zm11.627-13.296h1.892l4.449 10.867h.154l4.448-10.867h1.892V34h-1.482v-9.946h-.128L115.801 34h-1.432l-4.091-9.946h-.128V34h-1.483V20.91zm19.798 13.296c-.886 0-1.664-.211-2.333-.633-.665-.422-1.185-1.012-1.56-1.77-.37-.76-.556-1.646-.556-2.66 0-1.023.186-1.915.556-2.678.375-.763.895-1.355 1.56-1.777.669-.422 1.447-.633 2.333-.633.886 0 1.662.21 2.327.633.669.422 1.189 1.014 1.559 1.777.375.763.563 1.655.563 2.678 0 1.014-.188 1.9-.563 2.66-.37.758-.89 1.348-1.559 1.77-.665.422-1.441.633-2.327.633zm0-1.356c.673 0 1.227-.172 1.662-.517.435-.346.756-.8.965-1.362a5.208 5.208 0 00.313-1.828c0-.656-.104-1.268-.313-1.834a3.091 3.091 0 00-.965-1.375c-.435-.35-.989-.524-1.662-.524-.673 0-1.227.175-1.662.524-.435.35-.756.808-.965 1.375a5.261 5.261 0 00-.313 1.834c0 .656.104 1.266.313 1.828.209.563.53 1.017.965 1.362.435.345.989.517 1.662.517zm8.26-4.755V34h-1.508v-9.818h1.457v1.534h.128a2.8 2.8 0 011.048-1.202c.469-.307 1.074-.46 1.815-.46.665 0 1.247.136 1.746.41.498.268.886.677 1.163 1.226.277.546.415 1.236.415 2.071V34h-1.508v-6.136c0-.772-.2-1.373-.601-1.803-.401-.435-.95-.652-1.649-.652a2.63 2.63 0 00-1.291.313 2.24 2.24 0 00-.889.914c-.217.4-.326.887-.326 1.458zm13.137 6.11c-.946 0-1.762-.208-2.448-.626a4.205 4.205 0 01-1.579-1.764c-.366-.759-.549-1.64-.549-2.646s.183-1.892.549-2.66c.371-.77.887-1.372 1.547-1.802.665-.435 1.441-.652 2.327-.652.511 0 1.016.085 1.515.256.498.17.952.447 1.361.83.409.38.735.883.978 1.51.243.626.365 1.397.365 2.313v.64h-7.568v-1.305h6.034c0-.554-.111-1.048-.333-1.483a2.5 2.5 0 00-.933-1.029c-.401-.251-.874-.377-1.419-.377-.601 0-1.121.15-1.56.448a2.945 2.945 0 00-1.003 1.15c-.235.473-.352.98-.352 1.521v.87c0 .741.128 1.37.384 1.885.26.512.62.902 1.08 1.17.46.264.995.396 1.604.396a3.26 3.26 0 001.074-.166c.324-.115.603-.285.838-.511a2.33 2.33 0 00.543-.857l1.457.41a3.228 3.228 0 01-.773 1.303c-.362.371-.81.66-1.342.87-.533.204-1.132.306-1.797.306zm7.033 3.478c-.255 0-.483-.022-.684-.064a1.807 1.807 0 01-.415-.115l.383-1.33c.367.094.691.128.972.103a1.17 1.17 0 00.748-.378c.221-.221.424-.581.607-1.08l.281-.767-3.63-9.87h1.636l2.71 7.825h.102l2.711-7.824h1.636l-4.168 11.25c-.187.507-.419.927-.696 1.26a2.614 2.614 0 01-.965.747 2.981 2.981 0 01-1.228.243zM171.21 34V20.91h7.901v1.405h-6.316v4.424h5.907v1.406h-5.907v4.449h6.418V34h-8.003zm18.582-9.818L186.161 34h-1.534l-3.631-9.818h1.637l2.71 7.824h.102l2.711-7.824h1.636zm5.756 10.023c-.946 0-1.762-.21-2.448-.627a4.205 4.205 0 01-1.579-1.764c-.367-.759-.55-1.64-.55-2.646s.183-1.892.55-2.66c.371-.77.886-1.372 1.547-1.802.665-.435 1.44-.652 2.327-.652.511 0 1.016.085 1.514.256.499.17.953.447 1.362.83.409.38.735.883.978 1.51.243.626.364 1.397.364 2.313v.64h-7.568v-1.305h6.034c0-.554-.111-1.048-.332-1.483a2.515 2.515 0 00-.933-1.029c-.401-.251-.874-.377-1.419-.377-.601 0-1.121.15-1.56.448a2.947 2.947 0 00-1.004 1.15c-.234.473-.351.98-.351 1.521v.87c0 .741.128 1.37.383 1.885.26.512.62.902 1.081 1.17.46.264.995.396 1.604.396.396 0 .754-.055 1.074-.166a2.29 2.29 0 00.837-.511c.235-.23.416-.516.543-.857l1.458.41a3.23 3.23 0 01-.774 1.303c-.362.371-.809.66-1.342.87-.533.204-1.131.306-1.796.306zm6.36-.205v-9.818h1.457v1.483h.103c.179-.486.503-.88.971-1.183a2.861 2.861 0 011.586-.454c.11 0 .249.003.415.007.166.004.292.01.377.019v1.534a4.45 4.45 0 00-.351-.058 3.467 3.467 0 00-.569-.044c-.478 0-.904.1-1.279.3-.37.196-.665.469-.882.818a2.21 2.21 0 00-.319 1.183V34h-1.509zm7.968 3.682c-.256 0-.484-.022-.684-.064a1.804 1.804 0 01-.416-.115l.384-1.33c.366.094.69.128.971.103.282-.026.531-.152.748-.378.222-.221.424-.581.608-1.08l.281-.767-3.631-9.87h1.636l2.711 7.825h.102l2.71-7.824h1.637l-4.168 11.25c-.188.507-.42.927-.697 1.26a2.614 2.614 0 01-.965.747 2.973 2.973 0 01-1.227.243zM228.23 34h-4.039V20.91h4.218c1.27 0 2.357.261 3.26.785.904.52 1.596 1.268 2.078 2.244.481.971.722 2.135.722 3.49 0 1.364-.243 2.538-.729 3.522a5.187 5.187 0 01-2.122 2.263c-.929.524-2.058.786-3.388.786zm-2.454-1.406h2.352c1.083 0 1.98-.21 2.691-.627a3.862 3.862 0 001.592-1.783c.349-.771.524-1.69.524-2.755 0-1.057-.173-1.967-.518-2.73-.345-.767-.861-1.355-1.547-1.764-.686-.413-1.54-.62-2.563-.62h-2.531v10.279zm14.037 1.636a3.991 3.991 0 01-1.694-.351 2.906 2.906 0 01-1.208-1.03c-.298-.451-.448-.997-.448-1.636 0-.562.111-1.018.333-1.368.221-.354.518-.63.888-.83.371-.201.78-.35 1.228-.448.451-.102.905-.183 1.361-.243.597-.077 1.08-.134 1.451-.173.375-.042.648-.113.818-.21.175-.099.262-.27.262-.512v-.051c0-.63-.172-1.12-.517-1.47-.341-.35-.859-.524-1.554-.524-.72 0-1.284.157-1.694.473-.409.315-.696.652-.863 1.01l-1.431-.512c.255-.596.596-1.061 1.022-1.393.431-.337.9-.571 1.407-.703a5.837 5.837 0 011.508-.205c.316 0 .678.038 1.087.115.413.072.812.224 1.195.454.388.23.71.577.965 1.042.256.464.384 1.086.384 1.866V34h-1.509v-1.33h-.076a2.67 2.67 0 01-.512.684c-.238.243-.556.45-.952.62-.396.17-.88.256-1.451.256zm.23-1.355c.597 0 1.099-.117 1.508-.352a2.392 2.392 0 001.253-2.077v-1.38c-.064.076-.204.146-.422.21-.213.06-.46.113-.741.16a34 34 0 01-1.445.192 5.77 5.77 0 00-1.099.25c-.337.11-.609.278-.818.504-.205.222-.307.524-.307.908 0 .524.194.92.582 1.189.392.264.888.396 1.489.396zm7.643 4.807c-.255 0-.483-.022-.684-.064a1.807 1.807 0 01-.415-.115l.383-1.33c.367.094.691.128.972.103a1.17 1.17 0 00.748-.378c.221-.221.424-.581.607-1.08l.281-.767-3.63-9.87h1.636l2.71 7.825h.102l2.711-7.824h1.636l-4.168 11.25c-.187.507-.419.927-.696 1.26a2.614 2.614 0 01-.965.747 2.981 2.981 0 01-1.228.243zm11.247-20.992v21.53h-1.278V16.69h1.278z" fill="#fff"/></g><defs><radialGradient id="paint0_angular_61_211" cx="0" cy="0" r="1" gradientUnits="userSpaceOnUse" gradientTransform="matrix(0 10 -10 0 32 27)"><stop offset=".615" stop-color="#FC55FF" stop-opacity="0"/><stop offset=".767" stop-color="#6D30FF"/></radialGradient><filter id="filter0_b_61_211" x="-4" y="-4" width="496" height="62" filterUnits="userSpaceOnUse" color-interpolation-filters="sRGB"><feFlood flood-opacity="0" result="BackgroundImageFix"/><feGaussianBlur in="BackgroundImageFix" stdDeviation="2"/><feComposite in2="SourceAlpha" operator="in" result="effect1_backgroundBlur_61_211"/><feBlend in="SourceGraphic" in2="effect1_backgroundBlur_61_211" result="shape"/></filter></defs></svg>