<svg width="20" height="20" fill="none" xmlns="http://www.w3.org/2000/svg"><path d="M17.316 16.117H2.683a.63.63 0 01-.625-.625v-4.117c0-4.35 3.542-7.892 7.892-7.892h.1c4.35 0 7.891 3.542 7.891 7.892v4.117a.63.63 0 01-.625.625zm-14.008-1.25h13.383v-3.492a6.649 6.649 0 00-6.641-6.642h-.1a6.649 6.649 0 00-6.642 6.642v3.492z" fill="#354BE5"/><path d="M10 4.733a.63.63 0 01-.625-.625V1.667A.63.63 0 0110 1.042a.63.63 0 01.625.625v2.441a.63.63 0 01-.625.625zm0 14.225a3.69 3.69 0 01-3.667-3.425.63.63 0 01.625-.667h6.084a.63.63 0 01.458.2c.117.126.175.3.167.467A3.69 3.69 0 0110 18.958zm-2.275-2.841A2.43 2.43 0 0010 17.708a2.43 2.43 0 002.275-1.591h-4.55z" fill="#354BE5"/></svg>