<svg width="20" height="20" fill="none" xmlns="http://www.w3.org/2000/svg"><path d="M10 15.625A.63.63 0 019.375 15v-2.5a.63.63 0 01.625-.625.63.63 0 01.625.625V15a.63.63 0 01-.625.625z" fill="#354BE5"/><path d="M14.667 18.8H5.333c-1.516 0-2.9-1.167-3.15-2.658L1.075 9.5c-.183-1.033.325-2.358 1.15-3.017L8 1.858c1.117-.9 2.875-.891 4 .009l5.775 4.616c.817.659 1.317 1.984 1.15 3.017l-1.108 6.633c-.25 1.475-1.667 2.667-3.15 2.667zM9.992 2.442c-.442 0-.884.133-1.209.391L3.008 7.467c-.466.375-.8 1.241-.7 1.833l1.109 6.633c.15.875 1.025 1.617 1.916 1.617h9.334c.891 0 1.766-.742 1.916-1.625l1.109-6.633c.091-.584-.242-1.467-.7-1.834l-5.775-4.616c-.334-.267-.784-.4-1.225-.4z" fill="#354BE5"/></svg>