<svg width="20" height="20" fill="none" xmlns="http://www.w3.org/2000/svg"><path d="M4.333 8.717a.64.64 0 01-.441-.184.63.63 0 01-.134-.683l1.55-3.7c.034-.075.05-.125.075-.167C6.617 1.142 8.192.45 10.975 1.517a.63.63 0 01.35.833L8.883 8.017a.618.618 0 01-.575.375H5.933c-.475 0-.925.091-1.358.275a.598.598 0 01-.242.05zm4.509-6.425c-1.034 0-1.667.675-2.325 2.208-.009.025-.025.05-.034.075L5.392 7.167a5.76 5.76 0 01.541-.025h1.959L9.9 2.475a3.49 3.49 0 00-1.058-.183z" fill="#354BE5"/><path d="M15.242 8.558a.695.695 0 01-.184-.025 3.58 3.58 0 00-1-.141h-5.75a.638.638 0 01-.525-.284.647.647 0 01-.05-.591l2.417-5.609c.125-.3.492-.508.8-.4.1.034.192.075.292.117l1.966.825c1.15.475 1.917.975 2.417 1.575.1.117.183.242.267.375.091.142.175.308.233.483.025.059.067.167.092.284.233.791.116 1.758-.384 3.008a.658.658 0 01-.591.383zM9.258 7.142h4.809c.266 0 .525.025.783.066.233-.725.283-1.283.15-1.733-.017-.075-.033-.108-.042-.142a1.484 1.484 0 00-.125-.275c-.058-.091-.1-.166-.166-.241-.359-.434-.992-.834-1.942-1.225l-1.642-.684-1.825 4.234z" fill="#354BE5"/><path d="M13.25 18.958h-6.5c-.233 0-.45-.016-.667-.041-2.925-.192-4.591-1.867-4.791-4.825a4.847 4.847 0 01-.042-.634v-1.625a4.71 4.71 0 012.842-4.316 4.706 4.706 0 011.85-.375h8.133c.475 0 .933.066 1.358.2a4.729 4.729 0 013.334 4.491v1.625c0 .184-.009.359-.017.525-.183 3.259-2.083 4.975-5.5 4.975zM5.933 8.392c-.475 0-.925.091-1.358.275a3.452 3.452 0 00-2.083 3.166v1.625c0 .175.016.35.033.517.158 2.375 1.325 3.542 3.667 3.7.208.025.375.042.55.042h6.5c2.75 0 4.1-1.209 4.233-3.792.008-.15.017-.3.017-.467v-1.625a3.479 3.479 0 00-2.442-3.3 3.58 3.58 0 00-1-.141H5.933z" fill="#354BE5"/><path d="M1.867 12.458a.63.63 0 01-.625-.625V9.392C1.242 6.767 3.1 4.5 5.667 4a.65.65 0 01.608.217.623.623 0 01.092.633L4.908 8.333a.667.667 0 01-.325.334A3.452 3.452 0 002.5 11.833a.637.637 0 01-.633.625zm2.8-6.775a4.255 4.255 0 00-2.084 2.875 4.55 4.55 0 011.275-.925l.809-1.95zm13.466 6.775a.63.63 0 01-.625-.625 3.479 3.479 0 00-2.441-3.3.62.62 0 01-.4-.825c.391-.975.491-1.683.333-2.233-.017-.075-.033-.108-.042-.142a.626.626 0 01.142-.708.62.62 0 01.717-.1 5.474 5.474 0 012.941 4.867v2.441a.63.63 0 01-.625.625zm-2.091-4.883a4.57 4.57 0 011.383.992A4.176 4.176 0 0016.3 6.425a6.19 6.19 0 01-.258 1.15z" fill="#354BE5"/></svg>