<svg width="20" height="20" fill="none" xmlns="http://www.w3.org/2000/svg"><path d="M14.533 12.808a.618.618 0 01-.441-.183.629.629 0 010-.883l1.691-1.692-1.691-1.692a.629.629 0 010-.883.629.629 0 01.883 0l2.133 2.133a.629.629 0 010 .884l-2.133 2.133a.618.618 0 01-.442.183z" fill="#354BE5"/><path d="M16.608 10.675H8.133a.63.63 0 01-.625-.625.63.63 0 01.625-.625h8.475a.63.63 0 01.625.625.63.63 0 01-.625.625z" fill="#354BE5"/><path d="M9.8 17.292c-4.292 0-7.292-3-7.292-7.292s3-7.292 7.292-7.292a.63.63 0 01.625.625.63.63 0 01-.625.625c-3.558 0-6.042 2.484-6.042 6.042s2.484 6.042 6.042 6.042a.63.63 0 01.625.625.63.63 0 01-.625.625z" fill="#354BE5"/></svg>