<svg width="20" height="20" fill="none" xmlns="http://www.w3.org/2000/svg"><path d="M10 18.858c-.558 0-1.125-.125-1.567-.383L3.85 15.833c-1.867-1.258-1.983-1.45-1.983-3.425V7.592c0-1.975.108-2.167 1.941-3.409l4.617-2.666c.875-.509 2.25-.509 3.125 0l4.6 2.65c1.867 1.258 1.983 1.45 1.983 3.425V12.4c0 1.975-.108 2.167-1.941 3.408l-4.617 2.667c-.45.258-1.017.383-1.575.383zm0-16.466c-.35 0-.692.066-.933.208L4.483 5.25c-1.358.917-1.358.917-1.358 2.342V12.4c0 1.425 0 1.425 1.392 2.367l4.55 2.625c.491.283 1.383.283 1.875 0l4.583-2.65c1.35-.917 1.35-.917 1.35-2.342V7.592c0-1.425 0-1.425-1.392-2.367L10.933 2.6c-.241-.142-.583-.208-.933-.208z" fill="#354BE5"/><path d="M10 13.125a3.126 3.126 0 010-6.25 3.126 3.126 0 010 6.25zm0-5A1.878 1.878 0 008.125 10c0 1.033.842 1.875 1.875 1.875A1.878 1.878 0 0011.875 10 1.878 1.878 0 0010 8.125z" fill="#354BE5"/></svg>