<svg width="20" height="20" fill="none" xmlns="http://www.w3.org/2000/svg"><path d="M14.083 15.842c-.258 0-.516-.075-.741-.225l-.8-.525a.63.63 0 01-.259-.692c.059-.192.084-.417.084-.667v-3.391c0-1.359-.85-2.209-2.209-2.209H4.5c-.1 0-.192.009-.283.017a.666.666 0 01-.475-.167.6.6 0 01-.2-.458V5.217c0-2.45 1.716-4.167 4.166-4.167h7.084c2.45 0 4.166 1.717 4.166 4.167v4.25c0 1.208-.408 2.275-1.158 3.008-.6.608-1.433 1-2.383 1.117v.925c0 .5-.275.95-.709 1.183a1.51 1.51 0 01-.625.142zm-.5-1.567l.542.308c.05-.025.05-.066.05-.075V13a.63.63 0 01.625-.625c.875 0 1.617-.275 2.125-.792.525-.516.792-1.25.792-2.125v-4.25c0-1.775-1.142-2.916-2.917-2.916H7.717C5.942 2.292 4.8 3.433 4.8 5.208v1.667h5.367c2.033 0 3.458 1.425 3.458 3.458v3.392a5.662 5.662 0 01-.042.55z" fill="#354BE5"/><path d="M5.058 18.958c-.183 0-.375-.041-.55-.133a1.188 1.188 0 01-.633-1.058v-.634c-.733-.116-1.383-.425-1.867-.908-.633-.633-.966-1.5-.966-2.5v-3.392c0-1.883 1.233-3.266 3.066-3.441.134-.009.259-.017.392-.017h5.658c2.034 0 3.459 1.425 3.459 3.458v3.392c0 .367-.042.708-.134 1.017-.375 1.5-1.65 2.441-3.325 2.441H8.083L5.725 18.75c-.2.142-.433.208-.667.208zM4.5 8.125c-.1 0-.192.008-.283.017-1.2.108-1.925.933-1.925 2.191v3.392c0 .667.208 1.225.6 1.617.383.383.941.591 1.608.591a.63.63 0 01.625.625v1.092l2.417-1.608a.643.643 0 01.35-.109h2.266c1.1 0 1.875-.55 2.117-1.516a2.57 2.57 0 00.092-.692v-3.392c0-1.358-.85-2.208-2.209-2.208H4.5z" fill="#354BE5"/></svg>