<svg width="20" height="20" fill="none" xmlns="http://www.w3.org/2000/svg"><path d="M10 18.042a2.2 2.2 0 01-.717-.109C6.1 16.842 1.042 12.975 1.042 7.242c0-2.917 2.358-5.284 5.258-5.284 1.408 0 2.725.55 3.7 1.534a5.179 5.179 0 013.7-1.534c2.9 0 5.258 2.367 5.258 5.284 0 1.008-.15 2-.45 2.95a.624.624 0 11-1.191-.375 8.597 8.597 0 00.391-2.567c0-2.225-1.8-4.033-4.008-4.033a3.975 3.975 0 00-3.2 1.608c-.233.317-.767.317-1 0a3.963 3.963 0 00-3.2-1.608c-2.208 0-4.008 1.808-4.008 4.033 0 5.7 5.475 8.858 7.4 9.517.05.016.166.041.308.041a.63.63 0 01.625.625.615.615 0 01-.625.609z" fill="#354BE5"/><path d="M14.783 18.125a3.293 3.293 0 01-3.291-3.292 3.293 3.293 0 013.291-3.291 3.293 3.293 0 013.292 3.291 3.293 3.293 0 01-3.292 3.292zm0-5.333a2.045 2.045 0 00-2.041 2.041c0 1.125.916 2.042 2.041 2.042a2.045 2.045 0 002.042-2.042 2.045 2.045 0 00-2.042-2.041z" fill="#354BE5"/><path d="M17.95 18.625a.618.618 0 01-.442-.183l-.833-.834a.629.629 0 010-.883.629.629 0 01.883 0l.834.833a.629.629 0 010 .884.655.655 0 01-.442.183z" fill="#354BE5"/></svg>