<svg width="20" height="20" fill="none" xmlns="http://www.w3.org/2000/svg"><path d="M10 18.958c-4.233 0-7.925-3.008-8.775-7.15a.634.634 0 01.483-.741.634.634 0 01.742.483c.733 3.567 3.908 6.158 7.55 6.158 3.633 0 6.808-2.575 7.55-6.125a.617.617 0 01.742-.483c.341.067.558.4.483.742-.867 4.116-4.55 7.116-8.775 7.116zm8.175-9.95a.623.623 0 01-.608-.508A7.727 7.727 0 0010 2.283c-3.65 0-6.825 2.592-7.55 6.159a.623.623 0 01-.742.483.617.617 0 01-.483-.742c.85-4.141 4.542-7.15 8.775-7.15a8.977 8.977 0 018.792 7.225.626.626 0 01-.492.734c-.042.016-.083.016-.125.016z" fill="#354BE5"/><path d="M10 11.875A1.878 1.878 0 018.125 10c0-1.033.842-1.875 1.875-1.875s1.875.842 1.875 1.875A1.878 1.878 0 0110 11.875zm0-2.5a.63.63 0 00-.625.625.63.63 0 00.625.625.63.63 0 00.625-.625.63.63 0 00-.625-.625z" fill="#354BE5"/></svg>