<svg width="20" height="20" fill="none" xmlns="http://www.w3.org/2000/svg"><path d="M17.183 10.892a.637.637 0 01-.625-.559 6.528 6.528 0 00-2.783-4.675.627.627 0 01-.158-.866c.2-.284.591-.35.866-.159a7.78 7.78 0 013.309 5.567.632.632 0 01-.559.692h-.05zm-14.275.041h-.066a.638.638 0 01-.559-.691 7.796 7.796 0 013.259-5.575.628.628 0 11.725 1.025 6.539 6.539 0 00-2.742 4.683.616.616 0 01-.617.558zm7.142 7.909a7.765 7.765 0 01-3.508-.834.625.625 0 11.567-1.117 6.58 6.58 0 005.783.05.627.627 0 01.833.292.627.627 0 01-.292.834 7.682 7.682 0 01-3.383.775zm0-11.809a2.941 2.941 0 110-5.882 2.941 2.941 0 010 5.882zm0-4.625a1.693 1.693 0 000 3.384c.933 0 1.692-.759 1.692-1.692 0-.933-.767-1.692-1.692-1.692zM4.025 17.225a2.941 2.941 0 110-5.882 2.941 2.941 0 010 5.882zm0-4.633a1.693 1.693 0 000 3.383 1.693 1.693 0 000-3.383zm11.95 4.633a2.941 2.941 0 112.942-2.942c-.009 1.617-1.325 2.942-2.942 2.942zm0-4.633a1.693 1.693 0 000 3.383c.933 0 1.692-.758 1.692-1.692a1.698 1.698 0 00-1.692-1.691z" fill="#354BE5"/></svg>