<svg width="32" height="32" fill="none" xmlns="http://www.w3.org/2000/svg"><path d="M16 30.334C8.093 30.334 1.667 23.907 1.667 16 1.667 8.094 8.093 1.667 16 1.667S30.333 8.094 30.333 16c0 7.907-6.426 14.334-14.333 14.334zm0-26.667C9.2 3.667 3.667 9.2 3.667 16S9.2 28.334 16 28.334 28.333 22.8 28.333 16 22.8 3.667 16 3.667z" fill="#fff"/><path d="M12.227 20.774a.989.989 0 01-.707-.294 1.006 1.006 0 010-1.413l7.547-7.547a1.006 1.006 0 011.413 0 1.006 1.006 0 010 1.414l-7.547 7.546a.967.967 0 01-.706.294z" fill="#fff"/><path d="M19.773 20.774a.989.989 0 01-.706-.294l-7.547-7.546a1.006 1.006 0 010-1.414 1.006 1.006 0 011.413 0l7.547 7.547a1.006 1.006 0 010 1.413.99.99 0 01-.707.294z" fill="#fff"/></svg>