<svg width="20" height="20" fill="none" xmlns="http://www.w3.org/2000/svg"><path d="M7.508 17.708a.618.618 0 01-.442-.183L2.891 13.35a.629.629 0 010-.884.629.629 0 01.884 0l4.175 4.175a.629.629 0 010 .884.655.655 0 01-.442.183z" fill="#8A96A8"/><path d="M7.509 17.709a.63.63 0 01-.625-.625V2.917a.63.63 0 01.625-.625.63.63 0 01.625.625v14.167a.63.63 0 01-.625.625zm9.166-9.992a.618.618 0 01-.442-.183l-4.175-4.175a.629.629 0 010-.884.629.629 0 01.883 0l4.175 4.175a.629.629 0 010 .884.618.618 0 01-.441.183z" fill="#8A96A8"/><path d="M12.491 17.709a.63.63 0 01-.625-.625V2.917a.63.63 0 01.625-.625.63.63 0 01.625.625v14.167a.624.624 0 01-.625.625z" fill="#8A96A8"/></svg>