<svg width="21" height="20" fill="none" xmlns="http://www.w3.org/2000/svg"><path d="M18.833 6.042h-5a.63.63 0 01-.625-.625.63.63 0 01.625-.625h5a.63.63 0 01.625.625.63.63 0 01-.625.625zm-13.333 0H2.167a.63.63 0 01-.625-.625.63.63 0 01.625-.625H5.5a.63.63 0 01.625.625.63.63 0 01-.625.625z" fill="#fff"/><path d="M8.834 8.958a3.55 3.55 0 01-3.542-3.541 3.55 3.55 0 013.542-3.542 3.55 3.55 0 013.541 3.542 3.55 3.55 0 01-3.541 3.541zm0-5.833a2.29 2.29 0 00-2.292 2.292 2.29 2.29 0 002.292 2.291 2.29 2.29 0 002.291-2.291 2.29 2.29 0 00-2.291-2.292zm9.999 12.083H15.5a.63.63 0 01-.625-.625.63.63 0 01.625-.625h3.333a.63.63 0 01.625.625.63.63 0 01-.625.625zm-11.666 0h-5a.63.63 0 01-.625-.625.63.63 0 01.625-.625h5a.63.63 0 01.625.625.63.63 0 01-.625.625z" fill="#fff"/><path d="M12.167 18.125a3.55 3.55 0 01-3.542-3.541 3.55 3.55 0 013.542-3.542 3.55 3.55 0 013.541 3.542 3.55 3.55 0 01-3.541 3.541zm0-5.833a2.29 2.29 0 00-2.292 2.292 2.29 2.29 0 002.292 2.291 2.29 2.29 0 002.291-2.291 2.29 2.29 0 00-2.291-2.292z" fill="#fff"/></svg>