<svg width="40" height="40" fill="none" xmlns="http://www.w3.org/2000/svg"><path d="M33.75.5a5.75 5.75 0 015.75 5.75v27.5a5.75 5.75 0 01-5.75 5.75H6.25A5.75 5.75 0 01.5 33.75V6.25A5.75 5.75 0 016.25.5h27.5z" fill="#fff" stroke="#D9D9D9"/><path fill-rule="evenodd" clip-rule="evenodd" d="M29.788 20.227c0-.709-.064-1.39-.182-2.045h-9.419v3.868h5.382a4.6 4.6 0 01-1.995 3.018v2.51h3.232c1.89-1.742 2.982-4.305 2.982-7.35z" fill="#4285F4"/><path fill-rule="evenodd" clip-rule="evenodd" d="M20.187 30c2.7 0 4.963-.895 6.618-2.422l-3.232-2.51c-.895.6-2.04.955-3.386.955-2.605 0-4.81-1.759-5.596-4.123h-3.34v2.591a9.996 9.996 0 008.936 5.51z" fill="#34A853"/><path fill-rule="evenodd" clip-rule="evenodd" d="M14.592 21.9c-.2-.6-.314-1.241-.314-1.9 0-.66.114-1.3.314-1.9v-2.591h-3.34a9.997 9.997 0 00-1.065 4.49c0 1.614.387 3.142 1.064 4.492l3.341-2.591z" fill="#FBBC05"/><path fill-rule="evenodd" clip-rule="evenodd" d="M20.187 13.977c1.468 0 2.786.505 3.823 1.496l2.868-2.868C25.146 10.99 22.882 10 20.187 10a9.996 9.996 0 00-8.937 5.51l3.341 2.59c.787-2.364 2.991-4.123 5.596-4.123z" fill="#EA4335"/></svg>