<svg width="14" height="14" fill="none" xmlns="http://www.w3.org/2000/svg"><path d="M7 13.271a6.276 6.276 0 01-6.27-6.27A6.276 6.276 0 017 .728a6.276 6.276 0 016.271 6.271 6.276 6.276 0 01-6.27 6.271zM7 1.604A5.402 5.402 0 001.604 7 5.402 5.402 0 007 12.396 5.402 5.402 0 0012.396 7 5.402 5.402 0 007 1.604z" fill="#fff"/><path d="M7 8.756a.433.433 0 01-.31-.128l-2.058-2.06a.44.44 0 010-.618.44.44 0 01.618 0L7 7.7l1.75-1.75a.44.44 0 01.618 0c.17.17.17.45 0 .618L7.31 8.628a.433.433 0 01-.31.128z" fill="#fff"/></svg>