<svg width="20" height="20" fill="none" xmlns="http://www.w3.org/2000/svg"><path d="M10.1 11.275h-.142C8.067 11.216 6.65 9.74 6.65 7.925a3.364 3.364 0 013.358-3.359 3.364 3.364 0 013.359 3.359 3.345 3.345 0 01-3.242 3.35H10.1zM10 5.808a2.11 2.11 0 00-2.108 2.108 2.1 2.1 0 002.025 2.109.702.702 0 01.191 0 2.113 2.113 0 002-2.109A2.11 2.11 0 0010 5.808zm0 13.151a8.925 8.925 0 01-6.042-2.35.629.629 0 01-.2-.525c.109-.992.725-1.917 1.75-2.6 2.484-1.65 6.509-1.65 8.984 0 1.025.691 1.641 1.608 1.75 2.6.025.2-.05.391-.2.525A8.925 8.925 0 0110 18.959zm-4.933-3.042A7.673 7.673 0 0010 17.709c1.808 0 3.55-.634 4.933-1.792-.15-.508-.55-1-1.141-1.4-2.05-1.367-5.525-1.367-7.592 0-.592.4-.983.892-1.133 1.4z" fill="#fff"/><path d="M10 18.959c-4.942 0-8.958-4.017-8.958-8.959 0-4.941 4.016-8.958 8.958-8.958 4.941 0 8.958 4.017 8.958 8.958 0 4.942-4.016 8.959-8.958 8.959zm0-16.667C5.75 2.292 2.292 5.75 2.292 10S5.75 17.71 10 17.71s7.708-3.46 7.708-7.71S14.25 2.292 10 2.292z" fill="#fff"/></svg>