<svg width="18" height="18" fill="none" xmlns="http://www.w3.org/2000/svg"><path d="M9 17.063C4.553 17.063.937 13.447.937 9 .938 4.553 4.553.937 9 .937c4.447 0 8.063 3.615 8.063 8.063 0 4.447-3.615 8.063-8.063 8.063zm0-15A6.946 6.946 0 002.062 9 6.946 6.946 0 009 15.938 6.946 6.946 0 0015.938 9 6.946 6.946 0 009 2.062z" fill="#8A96A8"/><path d="M6.878 11.685a.556.556 0 01-.398-.165.566.566 0 010-.795l4.245-4.245a.566.566 0 01.795 0 .566.566 0 010 .795L7.275 11.52a.544.544 0 01-.397.165z" fill="#8A96A8"/><path d="M11.123 11.685a.556.556 0 01-.398-.165L6.48 7.275a.566.566 0 010-.795.566.566 0 01.795 0l4.245 4.245a.566.566 0 010 .795.556.556 0 01-.397.165z" fill="#8A96A8"/></svg>