<svg width="40" height="40" fill="none" xmlns="http://www.w3.org/2000/svg"><path d="M0 6.25A6.25 6.25 0 016.25 0h27.5A6.25 6.25 0 0140 6.25v27.5A6.25 6.25 0 0133.75 40H6.25A6.25 6.25 0 010 33.75V6.25z" fill="#F80"/><path fill-rule="evenodd" clip-rule="evenodd" d="M26.095 14.338a6.067 6.067 0 01-6.056 6.056c-3.373 0-6.093-2.72-6.093-6.056 0-3.337 2.72-6.057 6.093-6.057a6.067 6.067 0 016.056 6.057zm-3.554 0a2.508 2.508 0 00-2.502-2.503c-1.415 0-2.539 1.125-2.503 2.503a2.507 2.507 0 002.503 2.502 2.507 2.507 0 002.502-2.502z" fill="#fff"/><path d="M25.986 23.912a11.464 11.464 0 01-3.517 1.451l3.445 3.337a1.773 1.773 0 010 2.502 1.773 1.773 0 01-2.502 0l-3.337-3.337-3.337 3.337a1.879 1.879 0 01-1.269.508c-.471 0-.906-.145-1.27-.508a1.773 1.773 0 010-2.503l3.374-3.372a11.458 11.458 0 01-3.518-1.451c-.834-.508-1.088-1.596-.617-2.43a1.806 1.806 0 012.466-.544c2.466 1.56 5.694 1.56 8.16 0 .834-.544 1.959-.29 2.466.544.544.834.29 1.958-.544 2.466z" fill="#fff"/></svg>