<svg width="20" height="21" fill="none" xmlns="http://www.w3.org/2000/svg"><path d="M10 19.921c-4.942 0-8.958-4.016-8.958-8.958S5.058 2.005 10 2.005s8.958 4.016 8.958 8.958S14.942 19.92 10 19.92zm0-16.666c-4.25 0-7.708 3.458-7.708 7.708S5.75 18.67 10 18.67s7.708-3.458 7.708-7.708S14.25 3.255 10 3.255z" fill="#fff"/><path d="M13.333 11.588H6.667a.63.63 0 01-.625-.625.63.63 0 01.625-.625h6.666a.63.63 0 01.625.625.63.63 0 01-.625.625z" fill="#fff"/><path d="M10 14.921a.63.63 0 01-.625-.625V7.63A.63.63 0 0110 7.005a.63.63 0 01.625.625v6.666a.63.63 0 01-.625.625z" fill="#fff"/></svg>