<svg width="26" height="25" fill="none" xmlns="http://www.w3.org/2000/svg"><g clip-path="url(#clip0_50_9717)"><path d="M6.041 0h14.05a5.475 5.475 0 015.475 5.475v14.05A5.475 5.475 0 0120.091 25H6.041a5.475 5.475 0 01-5.475-5.475V5.475A5.475 5.475 0 016.041 0z" fill="url(#paint0_linear_50_9717)"/><path d="M8.578 18.145l.003.001-.855 1.48a1.13 1.13 0 11-1.957-1.13l.63-1.09.06-.104c.108-.156.374-.423.907-.373 0 0 1.254.136 1.344.788 0 0 .013.214-.132.428zm12.124-3.78h-2.666c-.181-.013-.26-.078-.292-.116l-.002-.003-2.853-4.942-.004.003-.17-.246c-.281-.429-.726.668-.726.668-.532 1.222.075 2.612.287 3.032l3.963 6.864a1.13 1.13 0 001.957-1.13l-.991-1.716c-.02-.042-.053-.155.15-.155h1.347a1.13 1.13 0 100-2.26zM15.525 15.9s.142.724-.409.724H5.263a1.13 1.13 0 110-2.26h2.533c.41-.024.506-.26.506-.26l.002.002 3.307-5.728h-.001c.06-.11.01-.215.001-.232L10.52 6.255a1.13 1.13 0 011.957-1.13l.507.877.505-.875a1.13 1.13 0 111.957 1.13l-4.601 7.97c-.02.048-.026.124.123.137h2.75l.001.027s1.59.025 1.807 1.51z" fill="#fff"/></g><defs><linearGradient id="paint0_linear_50_9717" x1="3200.57" y1="0" x2="3200.57" y2="6400" gradientUnits="userSpaceOnUse"><stop stop-color="#17C9FB"/><stop offset="1" stop-color="#1A74E8"/></linearGradient><clipPath id="clip0_50_9717"><path fill="#fff" transform="translate(.566)" d="M0 0h25v25H0z"/></clipPath></defs></svg>