<svg width="1254" height="981" fill="none" xmlns="http://www.w3.org/2000/svg"><g opacity=".2" stroke="#BDBDBD" stroke-width="2"><path d="M1043.73 235.419c32.37 64.371 10.32 148.756-52.051 233.327-62.338 84.52-164.79 168.957-292.6 233.221-127.809 64.264-256.688 96.142-361.71 95.772-105.085-.37-185.964-33.006-218.331-97.377-32.366-64.371-10.325-148.756 52.05-233.327 62.338-84.52 164.791-168.957 292.6-233.221 127.81-64.264 256.688-96.142 361.71-95.772 105.085.37 185.962 33.006 218.332 97.377z"/><path d="M1134.73 280.419c32.37 64.371 10.32 148.756-52.05 233.327-62.34 84.52-164.791 168.957-292.601 233.221-127.809 64.263-256.688 96.142-361.71 95.772-105.085-.37-185.964-33.006-218.331-97.377-32.366-64.371-10.325-148.756 52.05-233.327 62.338-84.52 164.791-168.957 292.6-233.221 127.81-64.264 256.688-96.142 361.71-95.772 105.082.37 185.962 33.006 218.332 97.377z"/></g></svg>