<svg width="83" height="59" fill="none" xmlns="http://www.w3.org/2000/svg"><path d="M81.522 45.745l-4.898 8.857c-2.911 5.266-14.495 5.415-30.263-.484C25.468 46.303 5.022 30.786.783 19.53a7.904 7.904 0 01-.063-6.726l4.898-8.857a7.905 7.905 0 00.062 6.726C9.919 21.93 30.365 37.446 51.258 45.261c15.768 5.899 27.352 5.75 30.264.484z" fill="#1E0044"/><path d="M35.883 4.431c20.894 7.815 41.338 23.33 45.576 34.588 4.239 11.256-9.306 14.058-30.2 6.242C30.366 37.446 9.92 21.93 5.681 10.673 1.442-.584 14.99-3.384 35.883 4.431z" fill="#120325"/><path d="M79.564 38.31C75.53 27.598 56.144 12.887 36.267 5.451 16.387-1.986 3.541.67 7.574 11.381c4.034 10.712 23.419 25.422 43.3 32.858 19.877 7.437 32.724 4.783 28.69-5.929z" fill="#1E0044"/><path d="M81.459 39.02a20.207 20.207 0 00-.211-.533 20.9 20.9 0 00-1.07-2.179 30.834 30.834 0 00-1.037-1.688 45.866 45.866 0 00-5.925-7.037 94.408 94.408 0 00-15.58-12.21A119.78 119.78 0 0042.24 7.048a101.395 101.395 0 00-3.991-1.696 83.758 83.758 0 00-2.364-.922l-.337-.125a76.767 76.767 0 00-2.398-.849 69.739 69.739 0 00-1.888-.62A53.283 53.283 0 0015.542 0a24.04 24.04 0 00-1.783.072 13.92 13.92 0 00-5.526 1.412 6.924 6.924 0 00-1.547 1.1h-.004a5.556 5.556 0 00-1.063 1.363 6.17 6.17 0 00-.703 3.373c.014.29.048.589.094.895a11.704 11.704 0 00.484 1.945h.004c.057.17.117.34.182.514.26.686.562 1.356.903 2.005C12.3 23.708 31.58 37.9 51.257 45.26a58.897 58.897 0 0020.817 4.424c.17-.004.344-.008.511-.016l.143-.007c.186-.008.371-.02.55-.034.162-.008.325-.023.48-.038l.393-.042.314-.037c.113-.011.223-.026.332-.045a3.37 3.37 0 00.284-.046c.137-.019.269-.041.401-.068.137-.023.272-.052.405-.083.095-.015.186-.038.272-.06a4.62 4.62 0 00.34-.083l.137-.038c.106-.027.212-.053.314-.087.151-.041.299-.09.442-.14l.027-.007.295-.11.121-.046c.144-.052.28-.11.416-.17l.227-.102.046-.022.234-.113.011-.008c.087-.041.17-.086.254-.136l.298-.17.144-.094c.08-.049.156-.102.231-.155l.11-.08.227-.17.03-.022.224-.19.045-.04.072-.064.17-.163.064-.064.204-.223.046-.053c.072-.083.144-.17.208-.26l.147-.205.023-.037.045-.057.034-.056.02-.03c.044-.076.094-.152.135-.23a7.86 7.86 0 00-.041-6.762zm-30.583 5.22C32.295 37.29 14.149 23.988 8.562 13.533a18.07 18.07 0 01-.987-2.153 6.545 6.545 0 011.233-7.954h.004a7.288 7.288 0 011.69-1.043 11.375 11.375 0 012.191-.717 20.334 20.334 0 014.671-.431c1.12.013 2.236.083 3.348.208 1.865.217 3.716.536 5.546.955 1.127.257 2.289.556 3.491.896a87.023 87.023 0 016.43 2.122l.088.035a99.513 99.513 0 014.312 1.73 114.069 114.069 0 0116.01 8.437A58.184 58.184 0 0179.563 38.31c4.033 10.711-8.813 13.367-28.688 5.93z" fill="#120325"/><path d="M72.365 39.726l-7.902-2.953-4.944-13.14-15.222 3.146-11.522-8.744-11.447-8.687 3.046 8.082 1.902 5.054-7.898-2.954-.008-.003.129.162c.087.11.178.216.268.325l.008.004 8.375 3.131-2.125-5.639-2.615-6.946 9.824 7.456 12.275 9.314 14.64-3.03 4.74 12.59 8.37 3.13.008.004a1.84 1.84 0 00.072-.2l.034-.098-.008-.004zm-1.448 2.089l-10.982-4.11-3.318-8.807-10.686 2.213-16.133-12.245 3.317 8.808-10.98-4.106-.016-.008.132.129.461.43.016.009 11.26 4.21-3.108-8.252 15.259 11.58 10.108-2.092 3.11 8.252 11.257 4.212.015.008.235-.175.064-.053-.011-.003z" fill="#7E40E6"/><path d="M73.064 36.758l-.003-.016-.023-.079-.015-.06-.03-.099-.027-.078-.015-.053-.038-.125-.011-.034-.042-.117-.008-.027-.048-.136-.012-.034-.053-.143a11.357 11.357 0 00-.295-.718 27.962 27.962 0 00-5.708-7.743c-.148-.15-.3-.298-.45-.45a61.17 61.17 0 00-3.45-3.134 79.38 79.38 0 00-7.667-5.662 88.85 88.85 0 00-2.554-1.605l-.065-.041c-.446-.269-.892-.537-1.346-.802-.677-.392-1.362-.78-2.054-1.163a111.4 111.4 0 00-1.396-.751 87.112 87.112 0 00-10.104-4.56 68.062 68.062 0 00-3.374-1.17c-.624-.2-1.234-.385-1.835-.552h-.004a52.002 52.002 0 00-2.583-.676 45.718 45.718 0 00-1.536-.328c-.435-.09-.862-.166-1.282-.234a31.199 31.199 0 00-1.54-.227 21.275 21.275 0 00-6.73.083l-.192.042-.004.004a5.26 5.26 0 00-4.272 2.775 5.24 5.24 0 00.095 5.088c.234.61.509 1.205.822 1.779a24.716 24.716 0 002.617 3.841 43.27 43.27 0 003.851 4.106 85.602 85.602 0 0024.22 15.467c1.193.51 2.392.99 3.587 1.439a69.82 69.82 0 003.488 1.204 22.928 22.928 0 0018.611.556 4.352 4.352 0 001.517-2.097 6.066 6.066 0 00-.042-3.47zm-.692 2.972l-.034.098a4.179 4.179 0 01-1.411 1.99l-.064.054-.235.174a21.641 21.641 0 01-16.53-.3l-.03-.006a65.889 65.889 0 01-3.061-.979c-.352-.124-.707-.25-1.066-.381l-.091-.034-.099-.038-.125-.046-.083-.03-.208-.075-.208-.08-.083-.03L48.92 40l-.103-.038-.09-.038a75.64 75.64 0 01-2.759-1.118c-.306-.129-.61-.26-.915-.397A83.571 83.571 0 0122.712 24.12l-.462-.431-.131-.128a43.222 43.222 0 01-3.352-3.547c-.091-.11-.182-.215-.27-.325l-.128-.162a30.01 30.01 0 01-.439-.563 18.889 18.889 0 01-.423-.566 15.68 15.68 0 01-.394-.56 18.919 18.919 0 01-.597-.914 15.332 15.332 0 01-.431-.732 4.33 4.33 0 01-.163-.302 12.27 12.27 0 01-.386-.767l-.007-.015-.072-.155-.023-.057-.03-.071-.053-.114-.02-.049-.04-.102-.016-.037-.053-.132-.015-.034-.053-.14c-1.695-4.502.405-7.203 5.114-7.85l.008-.003h.004c3.57-.316 7.168.024 10.614 1.005h.004a63.632 63.632 0 016.908 2.168 87.78 87.78 0 0114.355 6.987 48.401 48.401 0 0119.821 18.95l.053.14.012.033.045.132.011.03.035.102.015.046.034.113.019.057.019.068.038.125.007.03c.074.255.134.513.181.774a5.534 5.534 0 01-.079 2.606z" fill="#7E40E6"/><path d="M36.75 7.475l-.257-.095-.627-.227.101.239.171.392.855.31-.243-.62zm-1.57-.064l-.283-.593a39.858 39.858 0 00-.824-.276l.337.65c.219.072.434.143.654.219l.14.048-.023-.048zm5.784 1.748a72.605 72.605 0 00-.926-.393l.129.574c.299.125.593.25.892.378l-.095-.559zM33.66 6.406l-.764-.242.378.66c.242.08.492.156.738.239l-.352-.657zm8.587 3.312c-.284-.124-.567-.253-.855-.374l.08.552c.276.117.548.238.824.363l-.05-.54zm1.002.454l.015.525c.292.132.58.268.87.404l.02-.507c-.299-.143-.602-.282-.905-.422zm1.237.581l-.03.503c.292.135.583.279.87.419l.064-.488c-.298-.143-.601-.29-.904-.434zM28.99 5.08c-.292-.072-.583-.14-.867-.204A44.225 44.225 0 0022.864 4a22.36 22.36 0 00-6.408.17l-.102.019.965.737c.507-.104 1.02-.18 1.536-.227a32.776 32.776 0 0110.652 1.084l-.519-.703zM54.3 16.117a100.02 100.02 0 00-4.702-2.747l-.212.409a97.507 97.507 0 014.245 2.47 86.42 86.42 0 0110.36 7.418l.753-.042A88.982 88.982 0 0054.3 16.117zM36.493 7.38c-.173.004-.351.012-.526.012l.171.392.855.31-.243-.62-.257-.094zm-1.43.03l.14.05-.022-.05h-.117zM16.17 4.23c-.163.038-.326.075-.48.118l.987.728c.15-.041.306-.079.465-.113l-.972-.733zm-.987.265c-.144.045-.28.09-.417.14l1.022.717.4-.136-1.005-.721zm-.617.215a9.336 9.336 0 00-.363.155l.548.374.496.336.325-.14h.004l.02-.008-1.03-.717zM65.069 23.9l-.764.035c.207.178.416.355.616.532l.787-.015c-.212-.185-.424-.37-.64-.551zm1.365 1.195l-.81-.008c.209.189.413.374.613.559l.836.03c-.212-.193-.423-.39-.639-.581zm.87.797l-.844-.038c.2.188.398.373.594.563l.862.052c-.2-.192-.408-.385-.612-.578zm-54.71-20.03c-.095.08-.185.166-.276.253l1.108.665c.087-.084.175-.166.269-.246l-1.101-.672zm-.552.552a3.27 3.27 0 00-.182.222l1.124.646.174-.215-1.116-.653zm-.409.55c-.06.095-.117.194-.17.295l1.139.624c.053-.095.106-.193.166-.284l-1.135-.634zm58.902 22.202l-.957-.151c.154.174.306.344.457.518l.976.173a32.036 32.036 0 00-.476-.54zm1.006 1.164l-.995-.197c.121.144.234.283.352.427l1.006.211a16.998 16.998 0 00-.363-.441zm.847 1.057l-1.025-.234c.14.177.272.355.4.528l1.041.253a18.04 18.04 0 00-.416-.547zM10.95 8.891a6.47 6.47 0 00-.038.386l1.157.55.039-.369-1.158-.567zm-.046.529a7.578 7.578 0 00-.004.4l1.162.533a6.864 6.864 0 010-.385l-1.158-.548zm1.18 1.37l-1.157-.513a8 8 0 00.045.4l1.158.503a7.162 7.162 0 01-.046-.39zm62.363 23.645l-1.101-.344c.087.151.17.298.25.446l1.104.358c-.079-.154-.166-.306-.253-.46zM12.159 11.376l-1.153-.494c.022.15.053.302.087.453l1.15.48a9.91 9.91 0 01-.084-.439zm62.67 23.757l-1.113-.366.231.461 1.12.385a17.64 17.64 0 00-.24-.48h.001zm.487 1.024l-1.13-.4c.067.154.131.313.195.468l1.136.42c-.065-.16-.13-.322-.201-.488zm-62.56-22.692l-1.134-.42c.064.163.129.325.2.488l1.128.4a15.476 15.476 0 01-.193-.468zm.436.998l-1.12-.383.239.477 1.108.362c-.08-.151-.155-.306-.227-.457zm62.854 23.892l-1.153-.48c.033.148.06.292.086.435l1.154.495a6.659 6.659 0 00-.087-.45zM13.608 15.27l-.064-.116-1.105-.36.08.148.174.313 1.097.344a7.258 7.258 0 01-.182-.329zm62.56 23.742l-1.158-.502c.019.129.034.257.045.386l1.157.517a7.455 7.455 0 00-.045-.4zm-1.09.325a6.89 6.89 0 010 .386l1.158.547c.007-.132.007-.264.003-.4l-1.161-.533zm-.008.525a3.96 3.96 0 01-.038.374l1.162.567c.015-.128.026-.257.034-.385l-1.158-.556zm-59.7-21.857l-1.04-.25c.133.182.273.363.413.548l1.025.234a27.815 27.815 0 01-.398-.532zm.958 1.239l-.09-.113-1.01-.212.098.117.264.325.995.192-.257-.31zm.768.91l-.976-.17c.159.178.314.359.477.537l.956.154c-.155-.173-.306-.347-.457-.521zm57.448 21.658c-.053.094-.105.192-.166.282l1.135.635c.06-.094.117-.193.17-.294l-1.139-.623zm-.382.6c-.056.072-.113.147-.174.215l1.12.657.178-.227-1.124-.645zm-.442.506c-.084.083-.17.166-.265.245l1.1.677c.095-.084.19-.17.277-.258l-1.112-.664zm-53.315-19.33c-.113-.103-.22-.209-.329-.315l-.866-.056.34.325.273.257.844.037-.262-.248zm.485.456l-.836-.03c.212.193.423.39.639.582l.813.008c-.207-.185-.412-.375-.616-.56zm1.312 1.179l-.783.015c.209.185.42.37.636.551l.764-.034-.617-.532zm49.71 18.908c-.114.048-.228.101-.349.147l1.033.717a9.43 9.43 0 00.36-.154l-1.045-.71zM23.132 26.02l-.753.045c.235.2.473.396.716.597l.726-.064a149.39 149.39 0 01-.689-.578zM71.37 44.353c-.129.05-.262.095-.397.136l1.009.725a9.2 9.2 0 00.412-.143l-1.024-.718zm-.886.284l-.462.113.977.733c.162-.038.321-.076.477-.117l-.992-.73zm-.639.15a29.03 29.03 0 01-12.203-.864l.518.702a30.108 30.108 0 0012.653.899l-.968-.736zm-25.972-5.79a95.608 95.608 0 01-17.45-10.352l-.632.14A99.178 99.178 0 0043.89 39.521l-.015-.524zm1.793.801l-.825-.362.045.54.86.374-.08-.552zm8.205 3.07a36.32 36.32 0 01-.745-.237l.351.657c.258.083.515.166.772.246l-.378-.665zm-6.9-2.515a78.828 78.828 0 01-.893-.378l.094.56c.31.132.617.26.927.389l-.128-.57zm5.76 2.15a61.705 61.705 0 01-.793-.269l.306.642c.277.095.549.186.825.276l-.337-.65zM51 41.91c-.284-.102-.568-.208-.852-.314l.243.62c.295.109.59.215.881.32L51 41.909z" fill="#7E40E6"/><path d="M77.344 37.48l-1.76-.659-1.139-.425-.17-.064c.18.48.329.97.443 1.47l.174.073 1.155.48 1.782.74a12.174 12.174 0 00-.485-1.615zm-2.541.757l.03.196.174.08 1.162.5 1.786.776-.029-.218-1.794-.761-1.154-.5-.175-.073zm.074.58c.016.15.02.295.025.439l.177.081 1.16.533 1.794.824a5.836 5.836 0 00-.028-.481l-1.792-.8-1.16-.517-.176-.079zm-.671 3.181a5.36 5.36 0 01-.215.316l.171.098 1.126.647 1.742 1.001c.085-.112.163-.23.24-.346l-1.756-.984-1.135-.635-.173-.097zm-.385.532a6.184 6.184 0 01-.266.286l.167.1 1.11.666 1.72 1.03c.102-.102.196-.208.29-.315l-1.733-1.014-1.12-.655-.168-.099zm1.078-2.893l-.008.145.182.08 1.155.55 1.794.856.007-.152-1.794-.849-1.155-.543-.181-.087zm-3.502 4.525l-.204.065.175.123 1.024.718 1.569 1.102.217-.08-1.583-1.094-1.031-.718-.167-.116zm-.597.204a2.73 2.73 0 01-.486.142l.173.127.991.728 1.51 1.11a3.87 3.87 0 00.537-.154l-1.542-1.105-1.01-.723-.173-.125zm-.95.252l-.168.044.167.123.966.74 1.475 1.117.188-.044-1.481-1.117-.974-.732-.174-.13zm5.008-4.47a4.557 4.557 0 01-.488 1.567l.174.096 1.14.624 1.765.967a5.13 5.13 0 00.536-1.726l-1.792-.875-1.158-.566-.177-.087zm-1.569 2.912a5.9 5.9 0 01-.72.51 5.68 5.68 0 01-.83.44l.174.12 1.043.71 1.596 1.087a5.89 5.89 0 00.913-.484c.278-.168.543-.356.794-.562l-1.703-1.044-1.1-.673-.167-.103zm-20.216-.537l-.4-.13.059.108.334.653.516.993.428.138-.53-1-.349-.653-.058-.11zm-1.183-.385l-.937-.333.051.101.27.631.42.965 1.024.362-.472-.986-.305-.645-.05-.095zm-1.78-.638l-.312-.108.624 1.653.342.116-.37-.943-.247-.623-.037-.095zm7.45 2.307l-1.85-.481-1.898-.56.06.102.377.664.583 1.023 2.089.615c.681.182 1.355.354 2.034.53l-.794-1.076-.518-.703-.084-.114z" fill="#7E40E6"/><path d="M46.95 40.256l.022.096.126.573.193.875.79.33c.259.104.519.203.78.306l1.558.606-.622-1.653-1.418-.553c-.237-.093-.473-.183-.712-.278l-.717-.302zm-1.301-.546l.014.086.08.551.124.856.45.189-.145-.856-.095-.559-.014-.094-.414-.174zm-1.777-.799l.007.087.007.522.022.805 1.053.472-.073-.82-.05-.544-.008-.087-.958-.435zM26.266 28.418l-.11.022-.646.137-.973.196.29.225.967-.21.631-.145.102-.022-.261-.203z" fill="#7E40E6"/><path d="M23.945 26.585l-.126.011-.726.065-1.109.1c.417.337.822.675 1.251 1.012l1.3 1.003.977-.202.64-.132.113-.024-1.186-.913c-.387-.306-.755-.614-1.134-.92zm-.998-.836l-.131.007-.763.037-1.17.05.342.29 1.155-.065.748-.05h.124l-.305-.269zm-1.312-1.144l-.131-.002-.812-.008-1.247-.013c.24.226.504.454.767.68l1.204-.023.786-.016.131-.002c-.241-.206-.48-.412-.698-.616zm-4.902-5.021l-.15-.03-.993-.194-1.536-.3c.182.218.367.437.558.657l1.509.267.974.172.147.026c-.174-.2-.343-.399-.51-.598zm-.808-1.011l-.156-.036-1.025-.233-1.584-.36c.167.215.336.432.51.648l1.558.326 1.008.212.154.032a23.645 23.645 0 01-.465-.59zm4.878 5.269l-.138-.007-.842-.037-1.293-.058.247.225 1.278.05.835.03h.138l-.225-.203zm-7.211-8.862l-.174-.058-1.104-.37-1.721-.566.13.254 1.714.559 1.104.355.175.05-.124-.224zm-.468-.985l-.174-.062-1.126-.402-1.745-.622c.083.19.17.383.264.577l1.732.592 1.117.383.17.058a14.374 14.374 0 01-.238-.524zm-.257-.632l-.175-.066-1.14-.427-1.758-.66.073.188 1.758.646 1.133.42.174.066-.065-.167zm4.832 7.335l-.145-.024-.956-.152-1.483-.237a53.757 53.757 0 002.758 2.844l1.34.09.864.056.131.01a49.075 49.075 0 01-2.51-2.587zm-3.741-5.048l-.17-.052-1.096-.342-1.695-.527c.523.912 1.1 1.792 1.728 2.635l1.604.39 1.04.252.158.039a24.388 24.388 0 01-1.57-2.395z" fill="#7E40E6"/><path d="M9.313 10.596c.07.267.124.525.208.794l.274.821 1.76.659 1.135.425.174.064-.249-.746c-.078-.247-.126-.481-.187-.722l-.184-.076-1.152-.48-1.78-.739zm-.121-.692l.029.217 1.786.762 1.155.493.182.08-.03-.196-.188-.08-1.155-.5-1.78-.776zm-.082-.907l.022.479 1.794.797 1.155.523.182.08-.022-.443-.182-.08-1.162-.536-1.787-.82zm1.003-3.365l-.24.348 1.758.987 1.133.63.174.095.21-.312-.167-.094-1.118-.646-1.75-1.008zm.48-.551l-.29.32 1.735 1.015 1.118.652.175.102.254-.298-.16-.094-1.104-.66-1.728-1.037zM9.125 8.424l-.015.153 1.794.84 1.155.552.19.087.006-.145-.189-.087-1.154-.551-1.787-.849zm4.045-4.909l-.204.087 1.598 1.11 1.03.71.146.109.189-.08-.145-.101-1.017-.711-1.598-1.124zm.976-.302c-.192.04-.356.103-.532.157l1.567 1.124 1.007.722.148.107c.16-.056.321-.103.485-.142l-.144-.106-.989-.728-1.542-1.134zm.696-.169l-.182.05 1.511 1.139.973.725.138.109.174-.044-.137-.101-.966-.733-1.511-1.145zM9.697 6.292l-.195.4c-.052.138-.094.284-.144.425-.091.293-.16.592-.205.896l1.796.877 1.157.566.175.085a5.39 5.39 0 01.186-.813c.045-.128.08-.262.133-.386l.176-.363-.175-.096-1.139-.624-1.765-.967zm2.886-2.531a3.84 3.84 0 00-.472.23c-.148.084-.31.16-.446.251a6.18 6.18 0 00-.774.572l1.704 1.046 1.098.675.167.101c.22-.191.455-.365.702-.521.124-.083.272-.151.407-.227.137-.081.28-.152.427-.21l-.152-.105-1.041-.71-1.62-1.102zm20.971 1.777c-.148-.05-.292-.1-.434-.143l.541 1.01.351.656.054.1c.13.04.264.084.395.13l-.052-.1-.337-.651-.518-1.002zm1.893.651a34.832 34.832 0 00-1.023-.357l.473.985.308.64.049.103c.304.1.614.207.927.323l-.043-.099-.273-.629-.419-.966zm1.269.458l-.341-.123.37.95.247.617.037.101.312.109-.036-.094-.233-.61-.356-.95zm-4.402-1.506c-.711-.229-1.397-.416-2.095-.62-.345-.1-.68-.181-1.019-.27-.34-.09-.684-.184-1.01-.258l.799 1.085.518.703.079.107c.298.066.608.153.917.234.31.082.612.154.928.246.632.185 1.254.352 1.902.563l-.06-.104-.378-.665-.581-1.02z" fill="#7E40E6"/><path d="M36.719 6.649l.356.948.231.613.035.092 1.42.549c.474.185.95.387 1.424.578l-.02-.09-.126-.572-.194-.88c-.523-.212-1.048-.432-1.57-.637l-1.555-.6zM40.822 8.3l.145.857.094.558.015.087.406.181-.007-.087-.08-.55-.123-.85-.45-.195zm1.351.589l.08.826.043.544.008.08.966.435-.008-.08-.014-.522-.015-.805-1.06-.478zm2.009.928l-.03.776-.021.507v.08l.32.152v-.08l.036-.5.043-.776-.348-.16zm1.308.62l-.099.752-.063.486-.01.072c.677.342 1.356.667 2.026 1.023.337.177.67.347 1.007.525l1.002.546.032-.063.214-.408.33-.63-1.102-.6c-.366-.193-.736-.383-1.109-.578-.735-.39-1.483-.75-2.228-1.125zm20.424 13.122l-1.17.065-.755.044-.109.007.313.261h.116l.762-.036 1.184-.051-.341-.29zm1.016.871l-1.22.02-.792.015h-.109l.698.617.116.007.813.007 1.264.015-.77-.682zm5.585 5.542l-1.505-.267-.976-.173-.15-.026c.173.2.36.403.513.599l.15.029.993.195 1.54.3c-.173-.216-.377-.438-.565-.657zm.944 1.124l-1.554-.326-1.008-.21-.154-.033c.162.198.325.396.464.59l.158.035 1.026.233 1.581.36a14.788 14.788 0 00-.513-.65zM68.37 25.72l-1.293-.043-.836-.03-.123-.006.218.21h.123l.843.036 1.307.058-.24-.225zm8.039 9.727l-1.708-.553-1.108-.357-.17-.055c.045.074.084.15.119.229l.173.057 1.112.367 1.712.565c-.04-.083-.08-.166-.13-.253zm.378.753l-1.721-.589-1.12-.383-.179-.061c.091.18.175.355.242.524l.177.064 1.13.403 1.736.62a5.87 5.87 0 00-.265-.578zm.478 1.087l-1.75-.646-1.133-.413-.182-.072.073.174.174.065 1.14.428 1.758.66-.08-.196zm-8.011-10.726l-1.336-.087-.864-.058-.13-.007.667.645.64.646.319.326.29.32.603.645.131.021.959.153 1.489.239-.654-.703-.327-.356-.348-.355-.698-.718-.74-.71zm5.156 5.764l-1.605-.39-1.04-.252-.157-.038c.163.208.291.407.434.609.134.2.288.407.412.604.243.394.518.798.72 1.18l.172.054 1.1.342 1.688.525c-.226-.42-.52-.862-.79-1.296-.138-.219-.305-.446-.456-.666-.157-.223-.302-.445-.478-.672z" fill="#7E40E6"/></svg>