<svg width="166" height="102" fill="none" xmlns="http://www.w3.org/2000/svg"><path d="M163.092 33.373l1.876 17.542c.143 1.361.157 2.733.039 4.096-1.974 23.063-40.151 43.899-85.101 46.445C37.658 103.85 4.232 89.253 1.997 68.344L.123 50.802C2.358 71.71 35.783 86.308 78.03 83.914c44.95-2.547 83.128-23.383 85.1-46.445a21.23 21.23 0 00-.039-4.096z" fill="#1E0044"/><path d="M85.186.257c44.95-2.547 79.916 14.144 77.942 37.21-1.973 23.063-40.151 43.899-85.1 46.446C33.073 86.46-1.894 69.768.08 46.706 2.054 23.64 40.23 2.804 85.186.256z" fill="#120325"/><path d="M85.01 2.347C42.231 4.771 6.033 24.527 4.155 46.475c-1.878 21.946 31.276 37.77 74.052 35.346 42.769-2.423 78.966-22.175 80.844-44.123 1.878-21.947-31.274-37.773-74.043-35.35z" fill="#1E0044"/><path d="M163.202 35.071a20.06 20.06 0 00-.053-.984l-.017-.323-.006-.055v-.007l-.037-.311a24.842 24.842 0 00-7.961-15.145 40.91 40.91 0 00-4.308-3.636 49.802 49.802 0 00-4.027-2.663 59.467 59.467 0 00-3.341-1.85 70.443 70.443 0 00-6.135-2.774 78.649 78.649 0 00-5.392-1.93 98.11 98.11 0 00-8.815-2.385 110.14 110.14 0 00-3.117-.646 66.438 66.438 0 00-1.59-.3A129.073 129.073 0 00106.714.53a126.83 126.83 0 00-3.504-.254A152.489 152.489 0 0085.187.257 120.617 120.617 0 0010.16 27.652a45.149 45.149 0 00-2.693 2.912c-.143.169-.28.33-.41.499a35.49 35.49 0 00-1.897 2.502c-.23.336-.46.672-.678 1.015-.33.51-.643 1.02-.936 1.537-.193.343-.387.69-.568 1.034-.18.348-.348.69-.517 1.038A26.086 26.086 0 00.865 42.41c-.1.356-.186.71-.274 1.064a20.683 20.683 0 00-.312 1.613l-.08.54c-.05.356-.088.717-.119 1.078A20.866 20.866 0 00.123 50.8l.006.03a22.118 22.118 0 00.406 2.441l.056.218.012.044c.063.267.13.53.206.79.074.275.156.548.25.816l.093.274c.056.192.125.386.2.572l.05.125c.093.255.193.51.305.766v.005l.037.082c.107.26.225.528.356.79l.025.05c.124.274.262.541.404.815v.006c.144.28.3.566.462.84.33.574.68 1.14 1.06 1.694v.006c.186.273.38.541.58.816.168.23.342.46.523.684.144.18.287.368.443.548l.18.224.131.155v.007c.107.125.206.249.319.367l.293.33c.212.243.43.48.66.716l.555.566.112.113.237.236.362.342c.187.187.38.367.573.535.2.187.406.367.612.548l.08.07c.175.155.35.304.53.447.268.23.543.454.817.666l.237.187.318.248.187.144c.155.124.318.25.48.355l.262.2c.161.123.33.242.499.36.243.175.492.342.74.51.263.187.531.367.805.542l.424.273c.2.132.406.256.612.38.193.125.386.243.585.361l.306.18.487.288.33.192.492.28c.262.15.53.293.798.442l.18.093.418.219c.263.142.523.28.792.41.374.193.755.38 1.134.56a52 52 0 001.16.548c.66.312 1.34.61 2.027.896h.006c.934.405 1.888.785 2.862 1.152l.005.006.63.23h.006l.643.237.062.025c.41.143.828.292 1.246.43.293.106.587.205.886.298.536.18 1.078.355 1.627.517.748.236 1.508.46 2.28.672.325.1.656.187.98.274.367.107.742.2 1.116.293.306.08.617.161.928.237l.02.006c.312.08.63.155.948.23l.404.093h.006l.082.018.336.082c.412.099.83.193 1.253.28.212.05.431.1.649.143l.35.075.441.087c.375.08.748.156 1.129.224.23.05.468.093.705.131l.542.106c.293.05.585.106.885.155.299.056.598.106.904.155l.461.082.325.05.654.099a113.456 113.456 0 004.17.572c.68.088 1.372.163 2.064.237.449.044.898.093 1.353.131.586.063 1.179.112 1.776.156.524.049 1.047.087 1.578.124.448.031.903.062 1.365.087.517.031 1.034.063 1.553.088.884.049 1.776.08 2.674.105h.006c.43.019.854.03 1.284.038.418.012.835.018 1.253.024h.006c1.422.025 2.862.027 4.321.007h.193c.43-.013.86-.02 1.296-.031.288 0 .58-.013.867-.02l.355-.011.462-.013c.78-.025 1.552-.056 2.338-.1.467-.018.94-.044 1.415-.067.723-.045 1.446-.088 2.163-.138a136.53 136.53 0 002.737-.218 116.712 116.712 0 0070.6-27.519c.313-.318.618-.642.917-.964.15-.163.3-.324.443-.492.293-.324.579-.648.854-.978.143-.167.281-.33.411-.497.274-.33.537-.66.793-.997a33.3 33.3 0 001.102-1.506c.237-.336.462-.673.68-1.015a27.959 27.959 0 004.009-9.436c.075-.355.137-.71.193-1.071.087-.535.156-1.077.199-1.618a21.205 21.205 0 00.07-2.397zm-4.147 2.627c-1.876 21.843-37.728 41.506-80.22 44.083l-.623.037c-.842.05-1.677.087-2.507.118-1.426.062-2.841.1-4.245.112-.393.006-.785.012-1.172.006-.392.014-.779.014-1.159 0a9.363 9.363 0 01-.58 0 127.545 127.545 0 01-5.429-.143 124.241 124.241 0 01-18.728-2.222 96.202 96.202 0 01-3.952-.871l-.312-.081c-.194-.043-.393-.087-.586-.144a93.82 93.82 0 01-1.646-.423 95.49 95.49 0 01-1.982-.56 83.664 83.664 0 01-5.287-1.737 72.76 72.76 0 01-3.74-1.48C12 68.005 3.167 58.102 4.157 46.474 6.034 24.527 42.236 4.77 85.008 2.35c42.772-2.422 75.925 13.402 74.048 35.35zM40.128 78.737l.142.112.17-.031-.312-.081z" fill="#120325"/><path d="M156.818 37.825l-6.259.355a19.312 19.312 0 01-.566 3.264l6.199-.062c.132-.595.292-1.19.394-1.783l.232-1.774zm-28.101 26.219l-.518.286 4.257 2.029.553-.313-4.292-2.002zm18.835-16.779a31.724 31.724 0 01-3.199 4.512l5.695.88.995-1.214c.313-.41.596-.82.894-1.23.625-.818 1.076-1.652 1.607-2.48l-5.992-.468zm-7.726 9.098a56.84 56.84 0 01-5.298 4.097l4.818 1.676c.541-.353 1.033-.725 1.531-1.09.499-.37 1.02-.73 1.49-1.109.934-.752 1.902-1.497 2.751-2.275l-5.292-1.3z" fill="#7E40E6"/><path d="M128.198 64.33a87.148 87.148 0 01-4.862 2.454l3.809 2.25 2.704-1.31 2.607-1.365-4.258-2.03zm-48.91 13.09l-.703.042-.275 3.215.763-.054.215-3.203zm34.521-6.779a117.773 117.773 0 01-8.164 2.515l2.192 2.828 2.267-.641 1.138-.32 1.11-.347 2.221-.696 2.166-.744-2.93-2.595zM96.577 75.24a133.715 133.715 0 01-8.845 1.396l.546 3.13c1.628-.177 3.236-.445 4.855-.676.806-.12 1.6-.27 2.407-.405.801-.143 1.608-.267 2.397-.436l-1.36-3.01zM72.26 77.672l-.84 3.227c1.148-.024 2.287-.029 3.438-.072l3.452-.15.275-3.216a133.31 133.31 0 01-6.325.21zm-41.526-7.821l-4.65 2.535.536.243 4.591-2.552-.477-.226zm22.123 6.481l-2.612 3.11 2.235.331c.75.1 1.518.183 2.276.275 1.501.2 3.07.31 4.612.454l1.847-3.2a111.611 111.611 0 01-8.358-.97zm-15.51-3.779l-4.033 2.771c.608.232 1.255.428 1.902.635.647.2 1.272.415 1.935.602 1.334.37 2.643.76 4.04 1.082l3.37-2.963a80.756 80.756 0 01-7.214-2.127z" fill="#7E40E6"/><path d="M26.67 67.694l-5.01 2.335 2.154 1.212 2.274 1.145 4.649-2.535a51.954 51.954 0 01-4.066-2.157zm-14.015-21.7l-6.26.355-.019.39 6.25-.386.029-.36zm4.254 13.454l-5.891 1.582.907 1.087.457.54.503.526 1.02 1.05 1.125 1.02 5.546-1.935a28.72 28.72 0 01-3.667-3.87zm-4.054-8.803l-6.221.77c.138.82.327 1.63.566 2.425.111.403.29.797.43 1.193.135.404.294.799.477 1.183l6.118-1.173a18.4 18.4 0 01-1.37-4.398z" fill="#7E40E6"/><path d="M7.02 42.791c-.122.592-.29 1.19-.386 1.78l-.24 1.778 6.26-.355a19.36 19.36 0 01.566-3.264l-6.2.061zm23.738-24.98l-.553.316 4.291 2.002.519-.286-4.257-2.032zM13.162 31.515l-.994 1.214c-.313.407-.596.821-.894 1.23-.625.82-1.076 1.654-1.607 2.478l5.992.471a31.728 31.728 0 013.198-4.511l-5.695-.882zm10.704-9.478c-.54.352-1.033.725-1.53 1.091-.5.37-1.02.728-1.491 1.107-.934.754-1.902 1.497-2.75 2.273l5.291 1.301a56.91 56.91 0 015.297-4.097l-4.817-1.675zm12.204-6.902l-2.705 1.315-2.606 1.36 4.257 2.033a85.461 85.461 0 014.861-2.455l-3.807-2.253zM84.911 3.496l-.77.055-.214 3.198.71-.042.274-3.211zM55.377 8.185l-2.267.642-1.137.323-1.11.348-2.22.694-2.167.741 2.928 2.597a117.788 117.788 0 018.165-2.515l-2.192-2.83zM74.93 4.407c-1.629.178-3.235.44-4.854.675-.806.12-1.6.271-2.407.406-.801.142-1.608.267-2.397.435l1.359 3.007a135.501 135.501 0 018.845-1.396l-.545-3.127z" fill="#7E40E6"/><path d="M84.91 3.496l-.275 3.211c2.135-.12 4.24-.19 6.317-.21l.84-3.222c-1.148.023-2.287.028-3.438.07l-3.445.15zm51.68 8.049l-4.592 2.55.48.225 4.647-2.536-.535-.239zm-32.747-7.879l-1.844 3.201c2.872.226 5.659.55 8.358.97l2.611-3.11-2.236-.33c-.751-.1-1.518-.184-2.277-.276-1.501-.196-3.069-.305-4.612-.455zm18.177 2.863l-3.37 2.96a81.163 81.163 0 017.213 2.127l4.034-2.772c-.609-.227-1.256-.423-1.895-.631-.655-.199-1.278-.418-1.943-.601-1.333-.37-2.643-.76-4.039-1.083zm15.105 5.255l-4.647 2.536a51.92 51.92 0 014.065 2.158l5.009-2.337-2.153-1.209-2.274-1.148zm19.709 25.646l-6.251.389-.028.361 6.259-.355.02-.394zm-8.652-18.51l-5.546 1.935a28.507 28.507 0 013.665 3.867l5.893-1.583-.907-1.084-.458-.54-.504-.525-1.018-1.055-1.125-1.015zm6.924 9.036l-6.118 1.174a18.426 18.426 0 011.37 4.398l6.221-.77a20.034 20.034 0 00-.566-2.43c-.111-.4-.29-.792-.424-1.188-.14-.403-.301-.798-.483-1.184z" fill="#7E40E6"/><path d="M150.354 33.527a18.392 18.392 0 00-1.365-4.4 21.956 21.956 0 00-2.687-4.407 28.326 28.326 0 00-3.666-3.866 39.568 39.568 0 00-6.09-4.376 53.305 53.305 0 00-4.065-2.16l-.48-.224a65.743 65.743 0 00-6.135-2.477 80.797 80.797 0 00-7.212-2.13 96.078 96.078 0 00-8.292-1.648 108.673 108.673 0 00-8.359-.972c-3.566-.28-7.257-.41-11.047-.373a149.42 149.42 0 00-6.315.212l-.711.043a136.864 136.864 0 00-17.294 2.178 126.714 126.714 0 00-9.064 2.086c-2.812.759-5.542 1.6-8.167 2.514a101.87 101.87 0 00-9.526 3.86 87.334 87.334 0 00-4.862 2.452l-.516.287a72.99 72.99 0 00-5.818 3.585 57.294 57.294 0 00-5.293 4.096 43.536 43.536 0 00-4.532 4.588 32.297 32.297 0 00-3.197 4.513 23.454 23.454 0 00-2.438 5.819 19.587 19.587 0 00-.567 3.269l-.025.355a17.89 17.89 0 00.223 4.294 18.672 18.672 0 001.372 4.4 22.04 22.04 0 002.681 4.402 28.818 28.818 0 003.671 3.871 39.926 39.926 0 006.092 4.377 56.648 56.648 0 004.065 2.16l.48.224a60.59 60.59 0 004.78 1.985c.443.169.898.33 1.354.485a72.83 72.83 0 004.588 1.432 64.6 64.6 0 002.625.697 96.23 96.23 0 008.297 1.656c2.693.417 5.486.741 8.354.965.373.03.754.056 1.134.075 1.839.136 3.707.226 5.604.268 1.422.037 2.856.043 4.308.03 2.076-.018 4.19-.087 6.321-.21.237-.014.474-.026.705-.045 2.855-.174 5.67-.436 8.447-.784 3.005-.367 5.96-.84 8.847-1.395a126.837 126.837 0 009.064-2.085 113.119 113.119 0 008.167-2.515 102.27 102.27 0 009.526-3.853 82.688 82.688 0 004.862-2.458l.517-.28a72.183 72.183 0 005.81-3.585 56.071 56.071 0 005.299-4.103 43.289 43.289 0 004.533-4.581 32.363 32.363 0 003.198-4.513 23.481 23.481 0 002.437-5.82 19.69 19.69 0 00.568-3.268l.025-.36a17.514 17.514 0 00-.231-4.29zm-1.522 4.75c-1.626 19.016-33.103 36.202-70.17 38.3-4.603.266-9.217.28-13.821.043a110.74 110.74 0 01-8.247-.722 99.141 99.141 0 01-9.14-1.574 79.9 79.9 0 01-8.522-2.378c-15.79-5.367-25.516-14.79-24.55-26.05 1.628-19.017 33.11-36.202 70.177-38.3 37.069-2.097 65.901 11.665 64.273 30.68z" fill="#7E40E6"/><path d="M131.795 24.752a17.198 17.198 0 00-10.355-2.173l-70.289 3.983-7.918 11.579L63.407 37l1.428-2.09 38.421-2.18a3.837 3.837 0 012.307.486.904.904 0 01.311 1.364l-7.412 10.842a3.92 3.92 0 01-2.88 1.22l-40.323 2.285 1.428-2.098-20.173 1.145-7.911 11.584 73.462-4.158a27.289 27.289 0 0020.168-8.508l10.984-16.073c.363-.473.617-1.02.743-1.603a4.035 4.035 0 00-.787-3.357 4.038 4.038 0 00-1.378-1.108zm-.043 5.906l-10.984 16.078a25.225 25.225 0 01-18.635 7.856l-71.318 4.046 6.777-9.929 16.888-.951-1.428 2.091 42.461-2.409a5.988 5.988 0 004.42-1.855l7.412-10.85a1.373 1.373 0 00-.48-2.06 5.889 5.889 0 00-3.541-.747L63.756 34.17l-1.428 2.092-16.887.958 6.776-9.922 69.155-3.915a15.124 15.124 0 019.121 1.917 3.561 3.561 0 011.259 5.359z" fill="#7E40E6"/><path d="M33.145 39.167l-6.073 8.89 42.057-2.385 6.078-8.89-42.062 2.385zm34.917 5.77L29.28 47.135l4.937-7.233 38.789-2.198-4.944 7.233z" fill="#7E40E6"/></svg>