<svg width="136" height="97" fill="none" xmlns="http://www.w3.org/2000/svg"><path d="M134.478 75.574l-8.072 14.596c-4.798 8.68-23.888 8.924-49.874-.797C42.099 76.493 8.404 50.921 1.418 32.371a13.026 13.026 0 01-.104-11.085L9.385 6.69a13.028 13.028 0 00.103 11.085c6.985 18.55 40.682 44.122 75.115 57.002 25.986 9.721 45.076 9.476 49.875.797z" fill="#1E0044"/><path d="M59.264 7.487c34.433 12.88 68.125 38.45 75.11 57.003 6.986 18.55-15.337 23.167-49.77 10.287-34.433-12.88-68.13-38.452-75.115-57.002C2.504-.778 24.83-5.393 59.264 7.487z" fill="#120325"/><path d="M131.251 63.321C124.604 45.668 92.655 21.422 59.897 9.17 27.133-3.088 5.962 1.288 12.609 18.94c6.648 17.654 38.595 41.897 71.36 54.152 32.758 12.255 53.93 7.882 47.282-9.772z" fill="#1E0044"/><path d="M134.374 64.491a33.26 33.26 0 00-.348-.878 34.306 34.306 0 00-1.765-3.591 50.314 50.314 0 00-1.708-2.783 75.602 75.602 0 00-9.763-11.596 155.577 155.577 0 00-25.678-20.124A197.395 197.395 0 0069.739 11.8a166.615 166.615 0 00-6.577-2.795 137.937 137.937 0 00-3.896-1.52l-.555-.205a126.525 126.525 0 00-3.953-1.4c-1.053-.36-2.088-.703-3.11-1.021A87.811 87.811 0 0025.739.185a39.575 39.575 0 00-2.937.118c-3.164.14-6.265.932-9.107 2.328a11.411 11.411 0 00-2.55 1.81h-.006A9.155 9.155 0 009.387 6.69a10.168 10.168 0 00-1.159 5.558c.024.48.08.97.156 1.475.08.51.186 1.027.317 1.562.137.536.293 1.084.48 1.644h.007c.093.28.193.56.3.847.428 1.13.925 2.234 1.488 3.305 9.42 18.175 41.196 41.561 73.625 53.693a97.066 97.066 0 0034.306 7.29c.281-.006.567-.014.842-.026l.236-.012c.307-.013.612-.032.905-.056.268-.013.536-.038.791-.062l.649-.07.517-.061c.187-.018.368-.043.548-.074a5.36 5.36 0 00.468-.076c.225-.03.443-.068.661-.112.225-.037.449-.086.667-.136.156-.025.306-.063.449-.1.193-.038.38-.087.561-.137l.225-.062c.174-.044.348-.087.517-.144.249-.068.492-.149.729-.23l.044-.012.486-.18.2-.076c.237-.087.461-.18.686-.28l.373-.168.076-.037.385-.187.019-.013c.144-.068.28-.142.418-.223l.492-.28.237-.156c.132-.08.256-.168.381-.255l.18-.131.375-.28.049-.037.369-.312.074-.068.119-.105.28-.268.106-.106.337-.367.075-.088a5.69 5.69 0 00.342-.429l.243-.337.038-.062.075-.093.056-.093.031-.05c.074-.125.156-.25.224-.38a12.959 12.959 0 00-.068-11.142zm-50.402 8.603C53.35 61.64 23.445 39.718 14.237 22.487a29.758 29.758 0 01-1.627-3.547 10.787 10.787 0 012.033-13.11h.006a12.009 12.009 0 012.786-1.718 18.78 18.78 0 013.61-1.182 33.51 33.51 0 017.7-.71c1.843.022 3.684.136 5.516.343a84.44 84.44 0 019.14 1.574c1.858.423 3.771.916 5.754 1.476a143.411 143.411 0 0110.597 3.498l.144.056c.873.33 1.745.66 2.618 1.008a151.67 151.67 0 014.488 1.843c9.15 3.93 17.973 8.58 26.384 13.905a95.894 95.894 0 0137.866 37.398c6.645 17.653-14.526 22.03-47.28 9.773z" fill="#120325"/><path d="M119.387 65.655l-13.023-4.868-8.148-21.655-25.086 5.185-18.988-14.41-18.865-14.316 5.018 13.32 3.136 8.329-13.016-4.868-.014-.006.212.267c.144.181.294.355.443.536l.013.006 13.802 5.16-3.503-9.293-4.308-11.447 16.19 12.287 20.23 15.35 24.126-4.993 7.811 20.748 13.796 5.16.012.005c.046-.107.086-.217.119-.33l.056-.16-.013-.007zM117 69.097l-18.098-6.773-5.468-14.515-17.61 3.648-26.588-20.181 5.466 14.516-18.097-6.766-.024-.013.217.212.76.71.025.013 18.559 6.94-5.124-13.6L76.166 52.37l16.658-3.448 5.124 13.6 18.553 6.941.025.013.387-.287.105-.087-.018-.006z" fill="#7E40E6"/><path d="M120.54 60.763l-.006-.026-.037-.13-.026-.1-.05-.162-.043-.13-.025-.087-.062-.206-.019-.056-.069-.192-.013-.044-.08-.224-.019-.056-.088-.237a18.097 18.097 0 00-.486-1.183 46.074 46.074 0 00-9.406-12.76c-.245-.249-.494-.492-.743-.741a100.214 100.214 0 00-5.685-5.165 130.962 130.962 0 00-12.636-9.332 145.66 145.66 0 00-2.14-1.369c-.68-.43-1.371-.86-2.069-1.276l-.106-.068c-.735-.443-1.471-.885-2.22-1.321a195.58 195.58 0 00-3.385-1.917 183.48 183.48 0 00-2.3-1.238 143.554 143.554 0 00-16.651-7.514 112.07 112.07 0 00-5.561-1.929 78.931 78.931 0 00-3.024-.91h-.006a84.896 84.896 0 00-4.257-1.113c-.861-.2-1.708-.38-2.532-.542-.717-.15-1.42-.273-2.112-.386a50.714 50.714 0 00-2.538-.373 35.063 35.063 0 00-11.091.137l-.317.069-.007.006a8.67 8.67 0 00-7.04 4.574 8.636 8.636 0 00.157 8.385 24.144 24.144 0 001.354 2.931 40.734 40.734 0 004.314 6.331 71.338 71.338 0 006.346 6.767 141.078 141.078 0 0039.916 25.49c1.965.84 3.94 1.63 5.91 2.371a114.91 114.91 0 005.749 1.985 37.785 37.785 0 0030.672.916 7.174 7.174 0 002.499-3.456 10 10 0 00-.068-5.72zm-1.141 4.898l-.056.162a2.974 2.974 0 01-.119.33 6.892 6.892 0 01-2.207 2.95l-.105.088-.387.287a35.666 35.666 0 01-27.243-.493l-.05-.012c-1.64-.48-3.317-1.014-5.044-1.612-.58-.206-1.165-.411-1.757-.629l-.15-.056-.162-.062-.206-.075-.137-.05-.343-.125-.343-.13-.137-.05-.205-.08-.169-.063-.15-.062c-1.515-.58-3.03-1.194-4.544-1.843a71.549 71.549 0 01-1.509-.653 137.732 137.732 0 01-36.82-23.548l-.76-.71-.217-.212a71.223 71.223 0 01-5.524-5.844c-.15-.18-.3-.355-.443-.535l-.212-.268a49.164 49.164 0 01-.723-.927 31.176 31.176 0 01-.697-.934 25.72 25.72 0 01-.65-.921 31.288 31.288 0 01-.984-1.507c-.255-.41-.492-.81-.71-1.207a7.1 7.1 0 01-.268-.499 20.219 20.219 0 01-.637-1.263l-.012-.025-.119-.255-.037-.094-.05-.117-.087-.188-.031-.08-.069-.168-.025-.063-.087-.217-.025-.056-.088-.23c-2.792-7.42.668-11.871 8.43-12.936l.011-.006h.007a48.33 48.33 0 0117.493 1.655h.006c3.86.975 7.66 2.168 11.384 3.574A144.677 144.677 0 0186.09 27.417a79.768 79.768 0 0132.666 31.229l.088.23.019.057.074.217.019.05.056.168.025.075.057.187.031.093.031.112.062.206.012.05c.122.42.222.845.299 1.275a9.11 9.11 0 01-.13 4.295z" fill="#7E40E6"/><path d="M60.693 12.503l-.424-.155-1.034-.374.167.393.282.646 1.409.51-.4-1.02zm-2.587-.105l-.468-.978c-.455-.155-.91-.31-1.358-.454l.555 1.07c.361.12.716.236 1.078.362l.23.08-.037-.08zm9.531 2.881a118.68 118.68 0 00-1.527-.647l.213.946c.492.206.978.411 1.471.623l-.157-.922zM55.6 10.741l-1.26-.398.624 1.09c.399.13.81.255 1.216.391l-.58-1.083zm14.151 5.46c-.468-.206-.935-.417-1.409-.617l.13.91c.457.192.906.392 1.36.597l-.08-.89zm1.652.747l.025.865c.48.218.954.442 1.434.666l.031-.834c-.492-.237-.99-.467-1.49-.697zm2.038.958l-.049.828c.48.224.96.46 1.434.691l.106-.803c-.492-.236-.991-.48-1.49-.716zm-25.54-9.35c-.48-.118-.96-.23-1.428-.335a72.885 72.885 0 00-8.665-1.444 36.85 36.85 0 00-10.56.28l-.17.03 1.591 1.215a23.236 23.236 0 012.53-.374 54.033 54.033 0 0117.556 1.787l-.854-1.158zm41.713 18.19a164.89 164.89 0 00-7.75-4.526l-.349.672a160.73 160.73 0 016.995 4.07 142.477 142.477 0 0117.075 12.226l1.241-.068a146.668 146.668 0 00-17.212-12.375zM60.269 12.347c-.286.006-.58.019-.867.019l.282.646 1.409.51-.4-1.02-.424-.155zm-2.356.05l.23.08-.037-.08h-.193zm-31.14-5.242c-.268.062-.536.124-.79.194l1.626 1.2c.249-.067.505-.13.767-.186l-1.603-1.208zm-1.626.436c-.237.074-.462.15-.686.23l1.683 1.183.66-.224-1.657-1.189zm-1.016.355c-.2.08-.406.167-.599.255l.904.616.816.554.536-.23h.006l.033-.013-1.697-1.182zm83.231 31.627l-1.259.056c.342.293.686.585 1.016.877l1.297-.025c-.35-.304-.698-.61-1.054-.908zm2.251 1.967l-1.335-.013c.343.312.68.617 1.01.922l1.378.05c-.35-.318-.698-.642-1.053-.959zm1.433 1.314l-1.39-.063c.33.311.654.616.979.928l1.421.087c-.33-.318-.673-.636-1.01-.952zM20.882 9.845c-.156.131-.305.274-.455.417l1.827 1.096a9.59 9.59 0 01.443-.405l-1.815-1.108zm-.91.91a5.36 5.36 0 00-.299.366l1.852 1.065.286-.355-1.839-1.076zm-.674.908a6.736 6.736 0 00-.28.485l1.877 1.028c.088-.157.175-.318.274-.467l-1.87-1.046zM116.37 48.25l-1.577-.249c.255.287.505.567.754.853l1.609.286a48.246 48.246 0 00-.786-.89zm1.658 1.918l-1.64-.324c.2.237.387.466.581.703l1.658.349a27.399 27.399 0 00-.599-.728zm1.397 1.742l-1.69-.386c.231.293.449.586.661.872l1.715.417a30.015 30.015 0 00-.686-.903zM18.171 14.837c-.025.206-.05.417-.062.636l1.906.908.064-.61-1.908-.934zm-.075.871c-.006.22-.012.437-.006.661l1.913.878a11.2 11.2 0 010-.635l-1.907-.904zm1.945 2.26l-1.908-.846c.019.218.044.435.075.66l1.908.828c-.031-.213-.056-.43-.075-.642zm102.775 38.967l-1.814-.567c.143.249.281.491.411.735l1.821.59c-.131-.254-.274-.504-.418-.758zM20.166 18.933l-1.901-.815c.037.248.087.498.143.747l1.895.79c-.05-.243-.1-.486-.138-.722zm103.28 39.153l-1.832-.604.38.76 1.845.635a32.027 32.027 0 00-.393-.791zm.804 1.687l-1.863-.66c.111.255.218.517.323.772l1.871.691c-.107-.262-.212-.53-.331-.803zM21.15 22.376l-1.87-.692c.106.268.213.535.331.803l1.858.66c-.113-.26-.218-.516-.319-.771zm.718 1.643l-1.845-.63.393.786 1.826.597c-.132-.25-.256-.504-.375-.753zm103.585 39.377l-1.9-.79c.055.242.099.479.142.715l1.902.815a10.85 10.85 0 00-.144-.74zM22.553 25.35l-.105-.193-1.82-.591.13.242.287.517 1.808.566c-.106-.18-.207-.36-.3-.541zm103.1 39.127l-1.908-.827c.031.212.057.423.076.635l1.906.852a12.114 12.114 0 00-.074-.66zm-1.795.536c.006.218.006.43 0 .636l1.908.902a8.05 8.05 0 00.006-.66l-1.914-.878zm-.013.865a6.253 6.253 0 01-.063.617l1.914.933c.025-.212.045-.423.057-.635l-1.908-.915zm-98.387-36.02l-1.714-.412c.218.3.45.598.68.903l1.69.386a45.739 45.739 0 01-.656-.877zm1.578 2.04l-.15-.186-1.664-.349.162.194.436.536 1.64.316-.424-.51zm1.265 1.5l-1.609-.279c.263.293.519.592.787.885l1.576.254a85.867 85.867 0 01-.754-.86zm94.677 35.693c-.087.156-.174.317-.274.467l1.871 1.045c.099-.155.192-.317.28-.485l-1.877-1.026zm-.63.99c-.093.118-.186.243-.286.355l1.845 1.083.293-.374-1.852-1.064zm-.729.834c-.137.136-.28.274-.436.404l1.814 1.115c.156-.137.311-.28.455-.424l-1.833-1.095zM33.756 39.058c-.188-.169-.362-.343-.543-.518l-1.427-.093.56.535.45.424 1.39.062-.43-.41zm.798.753l-1.378-.05c.35.317.698.641 1.053.958l1.34.013c-.341-.305-.679-.617-1.015-.921zm2.163 1.942l-1.29.025c.343.305.691.61 1.047.908l1.259-.056-1.016-.877zm81.922 31.16c-.187.08-.374.168-.574.243l1.703 1.182c.199-.08.398-.167.592-.254l-1.721-1.17zM38.251 43.066l-1.24.074c.386.33.779.654 1.178.984l1.197-.105a187.58 187.58 0 01-1.135-.953zm79.497 30.214a9.757 9.757 0 01-.655.224l1.664 1.195c.231-.074.462-.155.68-.237l-1.689-1.182zm-1.459.468l-.761.186 1.609 1.207c.268-.062.53-.124.786-.192l-1.634-1.201zm-1.053.248a47.843 47.843 0 01-20.111-1.425l.853 1.158a49.617 49.617 0 0020.853 1.48l-1.595-1.213zm-42.803-9.542a157.578 157.578 0 01-28.758-17.061l-1.042.23a163.462 163.462 0 0029.825 17.696l-.025-.865zm2.954 1.32l-1.359-.598.075.89 1.416.616-.132-.908zm13.522 5.06a60.56 60.56 0 01-1.228-.392l.58 1.083c.424.137.848.273 1.272.405l-.624-1.096zm-11.37-4.146c-.493-.206-.98-.41-1.472-.623l.155.922c.512.219 1.017.43 1.528.642l-.212-.94zm9.493 3.543c-.435-.144-.872-.293-1.308-.443l.505 1.058c.455.156.904.306 1.359.455l-.556-1.07zm-2.854-.978c-.468-.168-.935-.342-1.403-.516l.4 1.02c.486.18.972.355 1.451.53l-.448-1.034zm43.415-7.301l-2.901-1.085-1.876-.701-.282-.105c.298.79.542 1.6.73 2.423l.288.12 1.903.79 2.937 1.22a20.07 20.07 0 00-.799-2.662z" fill="#7E40E6"/><path d="M123.405 63.2l.048.323.287.132 1.915.824 2.945 1.28-.048-.36-2.956-1.254-1.904-.825-.287-.12zm.122.956c.026.247.034.487.041.723l.292.134 1.912.879 2.956 1.357a9.877 9.877 0 00-.046-.792l-2.953-1.318-1.911-.852-.291-.13zm-1.105 5.242c-.113.177-.23.352-.356.521l.283.162 1.855 1.066 2.872 1.65c.139-.185.268-.379.393-.571l-2.893-1.62-1.869-1.047-.285-.16zm-.635.876c-.143.16-.285.32-.44.474l.277.164 1.829 1.098 2.833 1.698c.169-.169.324-.344.48-.52l-2.856-1.672-1.846-1.08-.277-.162zm1.776-4.767l-.012.24.299.13 1.903.909 2.957 1.41.011-.25-2.956-1.399-1.903-.896-.299-.144zm-5.772 7.458l-.335.107.287.203 1.688 1.183 2.585 1.817.359-.131-2.609-1.805-1.7-1.183-.275-.192zm-.984.335a4.499 4.499 0 01-.801.235l.285.21 1.634 1.2 2.488 1.83c.301-.063.597-.148.885-.255l-2.541-1.821-1.663-1.192-.287-.206zm-1.566.417l-.275.072.275.203 1.592 1.22 2.43 1.84.311-.072-2.442-1.84-1.604-1.208-.287-.215zm8.254-7.367a7.519 7.519 0 01-.804 2.582l.287.158 1.879 1.029 2.908 1.593c.461-.888.76-1.85.884-2.843l-2.954-1.443-1.908-.933-.292-.142zm-2.586 4.8c-.374.31-.77.59-1.186.84a9.568 9.568 0 01-1.368.726l.287.196 1.719 1.17 2.631 1.792a9.69 9.69 0 001.504-.798c.458-.277.895-.586 1.309-.926l-2.807-1.72-1.814-1.11-.275-.17zm-33.315-.886l-.659-.215.096.179.55 1.076.85 1.637.707.227-.874-1.65-.575-1.075-.095-.18zm-1.95-.634l-1.544-.55.084.168.442 1.04.695 1.589 1.688.597-.778-1.625-.503-1.064-.084-.155zm-2.934-1.051l-.514-.18 1.029 2.725.562.192-.61-1.554-.407-1.028-.06-.155zm12.276 3.801l-3.046-.793-3.129-.924.097.17.624 1.094.96 1.686 3.442 1.014c1.123.3 2.234.584 3.353.874l-1.308-1.775-.855-1.158-.138-.188zm-17.483-5.852l.035.157.208.945.318 1.442 1.301.544c.428.172.856.335 1.286.504l2.569 1-1.026-2.726-2.337-.91c-.391-.154-.78-.302-1.173-.46l-1.181-.496zm-2.145-.901l.024.143.131.909.204 1.41.742.31-.24-1.41-.155-.92-.024-.155-.682-.287zm-2.929-1.315l.012.143.012.86.036 1.327 1.735.777-.12-1.35-.083-.897-.012-.143-1.58-.717zM43.414 47.019l-.18.035-1.065.227-1.604.323.479.37 1.592-.346 1.041-.239.168-.036-.431-.334z" fill="#7E40E6"/><path d="M39.59 43.998l-.208.018-1.197.107-1.827.164c.687.556 1.355 1.113 2.062 1.669l2.142 1.652 1.61-.332 1.056-.219.185-.038-1.954-1.506c-.64-.504-1.245-1.012-1.87-1.515zm-1.646-1.378l-.215.012-1.257.06-1.927.083.562.478 1.903-.107 1.233-.084h.204l-.503-.442zm-2.162-1.886l-.216-.002-1.337-.013-2.057-.022c.395.372.832.748 1.265 1.119l1.985-.037 1.295-.025.216-.004c-.398-.34-.792-.679-1.15-1.016zm-8.079-8.274l-.246-.049-1.636-.32-2.532-.495c.3.36.604.721.92 1.083l2.485.44 1.605.283.244.043a60.197 60.197 0 01-.84-.985zm-1.331-1.667l-.257-.059-1.689-.383-2.61-.594c.274.355.553.712.841 1.067l2.566.538 1.662.349.253.053c-.267-.327-.519-.65-.766-.971zm8.039 8.684l-.227-.012-1.389-.06-2.13-.096.407.371 2.106.084 1.377.048h.227l-.37-.335zM22.528 24.872l-.287-.096-1.82-.61-2.837-.931.216.418 2.825.92 1.819.586.287.084-.203-.37zm-.772-1.622l-.288-.104-1.855-.662-2.876-1.024c.138.313.281.63.436.95l2.853.977 1.841.63.283.096c-.14-.29-.272-.58-.394-.864zm-.424-1.043l-.288-.108-1.879-.705-2.896-1.087.12.31 2.896 1.064 1.867.693.287.108-.107-.275zm7.963 12.088l-.238-.038-1.577-.251-2.444-.391a88.858 88.858 0 004.546 4.687l2.207.147 1.425.095.217.014a80.794 80.794 0 01-4.136-4.263zm-6.165-8.318l-.279-.086-1.807-.563-2.793-.87a43.612 43.612 0 002.847 4.344l2.644.642 1.713.416.261.063a40.18 40.18 0 01-2.587-3.946z" fill="#7E40E6"/><path d="M15.474 17.648c.117.439.205.864.344 1.309l.451 1.352 2.9 1.086 1.871.7.286.106-.41-1.23c-.128-.407-.206-.793-.307-1.19l-.304-.125-1.898-.79-2.933-1.218zm-.199-1.142l.048.359 2.945 1.255 1.903.812.299.132-.048-.323-.311-.131-1.903-.825-2.933-1.279zm-.134-1.494l.036.79 2.957 1.314 1.903.86.3.132-.037-.73-.3-.13-1.914-.885-2.945-1.35zm1.652-5.545l-.395.574 2.896 1.625 1.868 1.04.287.155.347-.514-.275-.155-1.844-1.064-2.884-1.66zm.791-.908l-.479.526 2.86 1.673 1.844 1.075.287.168.42-.49-.264-.156-1.82-1.087-2.848-1.71zm-2.419 5.509l-.024.251 2.957 1.387 1.903.908.311.143.012-.239-.311-.143-1.903-.908-2.945-1.399zm6.665-8.091l-.335.144 2.633 1.828 1.7 1.172.24.179.31-.132-.239-.167-1.676-1.171-2.633-1.853zm1.61-.497c-.317.067-.587.17-.877.258l2.582 1.853 1.66 1.19.244.176c.263-.092.53-.17.8-.234l-.238-.175-1.63-1.2-2.54-1.869zm1.147-.28l-.3.084 2.49 1.876 1.604 1.196.228.179.287-.072-.227-.167-1.593-1.207-2.49-1.889zm-8.478 5.355l-.322.657c-.086.23-.156.47-.237.702a9.68 9.68 0 00-.338 1.476l2.96 1.446 1.906.932.288.14c.068-.453.17-.9.307-1.339.074-.211.131-.433.219-.636l.29-.598-.288-.16-1.877-1.027-2.908-1.593zm4.755-4.171a6.33 6.33 0 00-.778.378c-.243.139-.51.263-.734.414-.45.28-.876.595-1.277.942l2.81 1.724 1.809 1.112.274.167c.364-.315.75-.602 1.158-.86.204-.135.447-.248.671-.372.225-.134.46-.25.704-.348l-.252-.172L23.534 8.2l-2.669-1.816zm34.562 2.928a22.84 22.84 0 00-.717-.237l.893 1.666.578 1.08.09.166c.212.064.433.138.65.215l-.086-.166-.554-1.074-.854-1.65zm3.118 1.072a57.63 57.63 0 00-1.684-.588l.779 1.623.507 1.056.08.169c.502.166 1.013.342 1.529.532l-.072-.163-.449-1.036-.69-1.593zm2.093.756l-.563-.203.61 1.565.408 1.016.06.168.514.179-.06-.155-.383-1.004-.586-1.566zm-7.256-2.482c-1.172-.378-2.301-.686-3.452-1.023-.568-.164-1.12-.298-1.68-.446-.56-.146-1.127-.302-1.664-.423l1.317 1.788.854 1.158.13.176c.49.11 1.003.252 1.511.386.51.135 1.008.254 1.53.405 1.041.306 2.067.58 3.133.928l-.096-.172-.624-1.095-.959-1.682z" fill="#7E40E6"/><path d="M60.64 11.143l.588 1.562.381 1.01.058.152 2.338.904c.782.306 1.568.638 2.349.954l-.032-.149-.209-.943-.32-1.452c-.861-.347-1.727-.71-2.587-1.048l-2.565-.99zm6.762 2.722l.24 1.41.155.92.024.144.67.299-.012-.144-.131-.908-.204-1.398-.742-.323zm2.228.969l.131 1.362.072.896.012.132 1.592.717-.012-.132-.024-.86-.024-1.327-1.748-.788zm3.31 1.529l-.048 1.279-.036.837v.131l.527.251v-.131l.06-.825.072-1.279-.575-.263zm2.156 1.022l-.163 1.239-.104.802-.015.118c1.114.563 2.234 1.098 3.338 1.686.555.29 1.104.572 1.66.866l1.651.898.053-.102.352-.673.543-1.04-1.814-.986c-.604-.319-1.214-.633-1.828-.954-1.213-.643-2.446-1.236-3.673-1.854zm33.659 21.625l-1.927.108-1.245.072-.179.012.515.43h.191l1.257-.06 1.951-.083-.563-.478zm1.675 1.435l-2.01.036-1.305.024h-.18l1.149 1.015.192.012 1.34.012 2.083.024-1.269-1.123zm9.204 9.135l-2.481-.44-1.607-.285-.247-.044c.284.33.594.664.845.987l.245.048 1.639.321 2.536.496c-.283-.356-.62-.723-.93-1.084zm1.555 1.852l-2.56-.537-1.661-.348-.255-.053c.268.326.536.653.766.971l.26.059 1.69.384 2.607.592a24.464 24.464 0 00-.847-1.068zm-8.387-8.859l-2.13-.072-1.377-.048-.203-.012.359.347h.203l1.389.06 2.154.095-.395-.37zm13.249 16.03l-2.815-.91-1.825-.59-.28-.09c.073.12.138.247.195.377l.286.093 1.833.605 2.821.93a6.17 6.17 0 00-.215-.415zm.624 1.241l-2.837-.97-1.847-.632-.293-.1c.15.296.287.584.398.863l.293.105 1.861.665 2.861 1.02a9.754 9.754 0 00-.436-.95zm.788 1.791l-2.885-1.064-1.867-.681-.299-.12.119.287.288.107 1.879.706 2.896 1.087-.131-.322zm-13.202-17.677l-2.203-.143-1.424-.096-.215-.012 1.101 1.064 1.053 1.064.527.538.479.525.993 1.064.215.036 1.58.251 2.454.394-1.077-1.159-.539-.586-.574-.585-1.149-1.183-1.221-1.172zm8.496 9.499l-2.645-.641-1.713-.416-.26-.064c.269.343.48.672.716 1.004.22.33.475.672.679.996.399.649.853 1.316 1.186 1.944l.285.089 1.811.564 2.783.865c-.373-.693-.859-1.42-1.303-2.136-.227-.36-.502-.735-.75-1.098-.26-.367-.498-.733-.789-1.107z" fill="#7E40E6"/></svg>