<svg width="83" height="59" fill="none" xmlns="http://www.w3.org/2000/svg"><path d="M1.104 46.058L6 54.915c2.912 5.266 14.495 5.415 30.263-.484 20.894-7.815 41.34-23.332 45.578-34.588a7.905 7.905 0 00.063-6.726L77.008 4.26a7.905 7.905 0 01-.063 6.726C72.707 22.242 52.26 37.76 31.367 45.575c-15.768 5.9-27.352 5.75-30.263.484z" fill="#1E0044"/><path d="M46.742 4.744C25.848 12.56 5.404 28.074 1.166 39.333c-4.239 11.255 9.307 14.057 30.2 6.241 20.893-7.815 41.34-23.332 45.578-34.587 4.239-11.258-9.31-14.058-30.202-6.243z" fill="#120325"/><path d="M3.062 38.623C7.095 27.913 26.48 13.2 46.358 5.764c19.88-7.436 32.727-4.781 28.693 5.93-4.034 10.712-23.418 25.423-43.3 32.859-19.877 7.436-32.723 4.782-28.69-5.93z" fill="#1E0044"/><path d="M1.166 39.333c.068-.177.136-.351.211-.533a21.04 21.04 0 011.071-2.179c.315-.555.662-1.117 1.036-1.688a45.87 45.87 0 015.925-7.037 94.415 94.415 0 0115.581-12.21A119.786 119.786 0 0140.385 7.36a101.22 101.22 0 013.991-1.696 83.728 83.728 0 012.364-.922l.337-.124c.81-.302 1.612-.586 2.399-.85a70.058 70.058 0 011.887-.62A53.283 53.283 0 0167.083.313a24.04 24.04 0 011.783.072c1.92.084 3.802.565 5.526 1.413a6.924 6.924 0 011.547 1.098h.004a5.56 5.56 0 011.063 1.364 6.17 6.17 0 01.704 3.373c-.015.291-.05.59-.095.895a11.696 11.696 0 01-.484 1.945h-.004c-.057.17-.117.34-.182.514-.26.686-.561 1.356-.903 2.005-5.716 11.03-24.997 25.22-44.674 32.58a58.895 58.895 0 01-20.817 4.424c-.17-.004-.344-.008-.51-.015l-.144-.008c-.186-.008-.371-.02-.549-.034a10.88 10.88 0 01-.48-.037l-.394-.043-.313-.037a4.52 4.52 0 01-.333-.045 3.29 3.29 0 01-.284-.046 6.475 6.475 0 01-.401-.068 6.524 6.524 0 01-.405-.083 2.88 2.88 0 01-.272-.06 4.562 4.562 0 01-.34-.083l-.137-.038c-.105-.027-.211-.053-.314-.087a7.31 7.31 0 01-.442-.14l-.027-.007-.295-.11-.121-.045a7.087 7.087 0 01-.416-.17l-.227-.102-.046-.023-.234-.113-.011-.008a3.175 3.175 0 01-.254-.136l-.298-.17-.144-.094c-.08-.049-.155-.102-.231-.155l-.11-.08-.227-.17-.03-.022-.223-.189-.045-.041-.072-.064-.17-.163-.065-.064-.204-.223-.046-.053a3.424 3.424 0 01-.208-.26l-.147-.205-.023-.037-.045-.057-.034-.056-.02-.03c-.044-.076-.094-.152-.135-.23a7.86 7.86 0 01.041-6.762zm30.584 5.22c18.58-6.95 36.726-20.252 42.313-30.707a18.06 18.06 0 00.987-2.152 6.546 6.546 0 00-1.233-7.955h-.003a7.288 7.288 0 00-1.691-1.043 11.372 11.372 0 00-2.19-.717 20.332 20.332 0 00-4.672-.43 33.27 33.27 0 00-3.348.207 51.258 51.258 0 00-5.546.955 69.776 69.776 0 00-3.491.896 87.001 87.001 0 00-6.43 2.123l-.088.034c-.53.2-1.059.4-1.588.611-.912.359-1.82.729-2.724 1.118a114.063 114.063 0 00-16.009 8.438A58.184 58.184 0 003.061 38.623c-4.032 10.712 8.813 13.367 28.689 5.93z" fill="#120325"/><path d="M10.26 40.04l7.902-2.954 4.944-13.14 15.222 3.146 11.522-8.744 11.447-8.687-3.045 8.083-1.903 5.053 7.898-2.953.008-.004-.128.163c-.088.11-.179.215-.27.325l-.007.003-8.375 3.131 2.126-5.639 2.614-6.946-9.824 7.456-12.275 9.314-14.64-3.03-4.74 12.59-8.37 3.13-.008.004a1.822 1.822 0 01-.072-.2l-.034-.098.008-.003zm1.448 2.088l10.982-4.11 3.318-8.807 10.686 2.213L52.827 19.18l-3.317 8.808 10.98-4.105.016-.008-.132.128-.461.43-.016.009-11.26 4.21 3.108-8.252-15.259 11.58-10.108-2.092-3.11 8.253-11.257 4.21-.015.009-.235-.174-.063-.053.01-.004z" fill="#7E40E6"/><path d="M9.56 37.07l.004-.014.023-.08.015-.06.03-.098.027-.08.015-.052.038-.125.011-.034.042-.117.008-.027.048-.135.012-.034.053-.144c.087-.234.185-.476.295-.718a27.96 27.96 0 015.708-7.743c.148-.15.3-.298.45-.45a61.097 61.097 0 013.45-3.134c2.44-2.039 5-3.93 7.668-5.662a88.015 88.015 0 012.553-1.605l.065-.041c.446-.268.892-.537 1.346-.801.677-.393 1.362-.78 2.054-1.164.465-.253.93-.506 1.396-.75a87.109 87.109 0 0110.104-4.56 68.072 68.072 0 013.374-1.17 49.05 49.05 0 011.835-.553h.004a52.024 52.024 0 012.583-.675 45.992 45.992 0 011.536-.329c.435-.09.862-.166 1.282-.234a31.17 31.17 0 011.54-.226 21.275 21.275 0 016.73.082l.192.042.004.004a5.26 5.26 0 014.272 2.775 5.239 5.239 0 01-.096 5.088c-.233.61-.508 1.205-.82 1.78a24.71 24.71 0 01-2.618 3.84 43.257 43.257 0 01-3.851 4.106 85.602 85.602 0 01-24.22 15.467c-1.193.51-2.392.99-3.587 1.44a69.817 69.817 0 01-3.488 1.204 22.928 22.928 0 01-18.611.555 4.351 4.351 0 01-1.517-2.096 6.065 6.065 0 01.042-3.471zm.693 2.973l.034.098a4.179 4.179 0 001.411 1.99l.064.054.235.174a21.641 21.641 0 0016.53-.299l.03-.007c.996-.29 2.013-.616 3.061-.978.352-.125.707-.25 1.066-.382l.091-.034.099-.038.125-.045.083-.03.208-.076.208-.08.083-.03.124-.048.103-.038.09-.038c.92-.351 1.84-.724 2.759-1.118.306-.128.61-.26.915-.397a83.574 83.574 0 0022.341-14.288l.462-.43.132-.13a43.222 43.222 0 003.352-3.545c.09-.11.181-.216.268-.325l.129-.163c.15-.189.298-.378.439-.562.147-.19.287-.378.423-.567.14-.19.269-.374.394-.559a19.957 19.957 0 001.028-1.647 4.33 4.33 0 00.163-.302c.144-.26.268-.514.386-.767l.007-.015.072-.154.023-.058.03-.07.053-.115.02-.048.04-.103.016-.037.053-.132.015-.034.053-.14c1.695-4.502-.405-7.203-5.114-7.849l-.008-.004h-.004A29.326 29.326 0 0051.73 7.682h-.004A63.632 63.632 0 0044.82 9.85a87.787 87.787 0 00-14.356 6.987 48.401 48.401 0 00-19.821 18.95l-.053.14-.012.034-.045.132-.011.03-.035.102-.015.045-.034.113-.019.057-.019.068-.037.125-.008.03a7.736 7.736 0 00-.181.774 5.534 5.534 0 00.079 2.606z" fill="#7E40E6"/><path d="M45.875 7.788l.257-.095.628-.227-.102.24-.17.391-.856.31.243-.62zm1.57-.064l.283-.593c.276-.095.552-.189.825-.276l-.337.65c-.22.072-.435.143-.655.219l-.14.049.023-.05zM41.66 9.472c.306-.132.616-.264.927-.393l-.13.575c-.298.124-.593.25-.892.377l.095-.559zm7.304-2.753l.764-.242-.378.661c-.242.08-.492.155-.738.238l.352-.657zm-8.587 3.312c.284-.124.568-.253.855-.374l-.079.552c-.277.117-.55.238-.825.363l.05-.54zm-1.002.454l-.015.525c-.291.132-.58.268-.87.404l-.02-.506c.3-.144.602-.283.905-.423zm-1.237.581l.03.503c-.291.135-.583.28-.87.419l-.064-.487c.298-.144.601-.291.904-.435zm15.498-5.673c.291-.072.582-.14.866-.204 1.733-.397 3.49-.69 5.258-.876a22.36 22.36 0 016.408.17l.102.019-.965.737c-.507-.104-1.02-.18-1.535-.227a32.776 32.776 0 00-10.653 1.084l.519-.703zM28.326 16.43a100.105 100.105 0 014.702-2.746l.212.408a97.452 97.452 0 00-4.244 2.47 86.418 86.418 0 00-10.36 7.418l-.754-.042a88.982 88.982 0 0110.444-7.508zm17.806-8.737c.174.004.352.012.526.012l-.17.392-.856.31.243-.62.257-.094zm1.43.03l-.14.05.022-.05h.117zm18.895-3.18c.162.038.325.076.48.118l-.987.729a8.513 8.513 0 00-.466-.114l.973-.733zm.987.265c.143.045.28.09.416.14l-1.022.717-.4-.136 1.006-.721zm.616.215c.121.049.246.102.363.155l-.548.374-.495.336-.326-.14h-.003l-.02-.007 1.03-.718zM17.556 24.214l.765.034c-.208.178-.417.355-.617.532l-.787-.015c.212-.185.424-.37.64-.551zm-1.365 1.194l.81-.008c-.209.189-.413.374-.613.559l-.836.03c.212-.193.423-.39.64-.581zm-.87.797l.844-.038c-.2.188-.397.373-.594.563l-.862.053c.2-.193.408-.386.612-.578zm54.71-20.03c.095.08.185.166.276.253l-1.108.665a5.82 5.82 0 00-.269-.246l1.101-.672zm.552.552c.065.072.125.147.182.222l-1.124.647-.173-.216 1.115-.653zm.41.55c.06.095.116.194.17.295l-1.14.624c-.053-.095-.106-.193-.166-.284l1.135-.634zM12.09 29.48l.957-.151c-.155.174-.307.344-.458.518l-.976.173c.155-.181.314-.359.476-.54zm-1.006 1.164l.995-.197c-.122.144-.235.283-.353.427l-1.006.211c.117-.147.238-.294.364-.441zm-.848 1.057l1.025-.234c-.14.178-.272.355-.4.528l-1.041.254c.133-.182.272-.367.416-.548zm61.44-22.496c.015.125.03.253.037.386l-1.157.551-.038-.37 1.157-.567zm.045.529c.004.132.007.264.004.4l-1.162.533a6.68 6.68 0 000-.385l1.158-.548zm-1.18 1.371l1.158-.513a7.999 7.999 0 01-.046.4l-1.158.502c.019-.129.034-.26.046-.389zM8.179 34.748l1.101-.344c-.087.151-.17.298-.25.446l-1.104.359c.08-.155.166-.306.253-.46zM70.466 11.69l1.154-.494c-.023.15-.053.302-.088.453l-1.15.48c.031-.148.061-.295.084-.439zM7.797 35.446l1.112-.366-.23.462-1.12.384c.076-.158.155-.317.238-.48zM7.31 36.47l1.13-.4c-.067.155-.131.313-.195.469l-1.135.419c.064-.16.128-.322.2-.488zm62.56-22.691l1.134-.42a14.27 14.27 0 01-.2.487l-1.128.4c.069-.158.133-.313.194-.468zm-.436.997l1.12-.383-.239.477-1.108.363c.08-.152.156-.306.228-.457zM6.58 38.669l1.154-.48c-.034.147-.06.29-.087.434l-1.154.495c.023-.147.053-.299.087-.45zm62.438-23.085l.064-.117 1.105-.36-.08.148-.174.313-1.096.344c.064-.11.125-.219.181-.329zM6.457 39.325l1.159-.501a6.942 6.942 0 00-.046.385l-1.157.517c.01-.132.026-.264.045-.4zm1.09.325a6.834 6.834 0 000 .386l-1.157.548a4.896 4.896 0 01-.004-.4l1.161-.534zm.008.525c.008.129.02.25.038.375l-1.161.566a6.262 6.262 0 01-.034-.385l1.157-.556zm59.7-21.857l1.04-.25c-.133.182-.273.363-.413.548l-1.025.235c.136-.178.269-.356.398-.533zm-.958 1.239l.091-.113 1.01-.212-.098.117-.265.325-.995.192.257-.31zm-.767.91l.976-.17c-.16.178-.315.36-.478.537l-.956.154c.155-.173.306-.347.458-.521zM8.08 42.125c.053.094.105.192.166.283l-1.135.634a3.801 3.801 0 01-.17-.294l1.14-.623zm.382.6c.057.072.113.147.174.216l-1.12.657-.177-.227 1.123-.646zm.442.506c.084.083.17.166.266.245l-1.102.677a6.196 6.196 0 01-.275-.257l1.111-.665zm53.315-19.33c.113-.102.22-.208.33-.314l.865-.057-.34.325-.272.257-.845.038.262-.25zm-.484.457l.836-.03c-.213.192-.424.389-.64.58l-.813.009c.208-.185.413-.375.617-.56zm-1.313 1.178l.783.015c-.208.185-.42.37-.635.551l-.764-.034.616-.532zM10.714 44.444c.114.048.227.101.348.147l-1.033.717a9.328 9.328 0 01-.36-.154l1.045-.71zm48.778-18.111l.753.045c-.234.2-.473.397-.715.597l-.727-.064c.232-.193.463-.386.69-.578h-.001zM11.255 44.667c.128.049.261.094.397.135l-1.01.725a9.418 9.418 0 01-.412-.143l1.024-.718zm.885.283l.462.113-.976.733a15.371 15.371 0 01-.477-.117l.99-.729zm.639.15c4.083.583 8.243.288 12.203-.864l-.518.703a30.109 30.109 0 01-12.653.898l.968-.736zm25.972-5.789a95.608 95.608 0 0017.45-10.353l.632.14a99.185 99.185 0 01-18.097 10.737l.015-.524zm-1.792.8l.824-.362-.045.54-.86.374.08-.551zm-8.206 3.071c.246-.075.496-.155.746-.238l-.352.657a62.39 62.39 0 01-.772.246l.378-.665zm6.9-2.516c.299-.124.594-.248.893-.377l-.094.559c-.31.132-.617.26-.927.39l.128-.572zm-5.76 2.15c.264-.087.529-.178.793-.269l-.306.642c-.276.095-.549.186-.825.277l.337-.65zm1.732-.593c.284-.102.567-.208.85-.314l-.242.62c-.295.11-.59.215-.88.32l.272-.626zm-26.344-4.43l1.76-.659 1.139-.425.17-.064c-.18.48-.328.97-.442 1.47l-.175.073-1.155.48-1.782.74a12.17 12.17 0 01.485-1.615z" fill="#7E40E6"/><path d="M7.822 38.55l-.029.196-.174.08-1.162.5-1.787.776.029-.217 1.794-.762 1.155-.5.174-.073zm-.074.58a6.1 6.1 0 00-.025.439l-.177.081-1.16.533-1.794.824c.003-.157.01-.316.028-.48l1.792-.8 1.16-.518.176-.079zm.671 3.18c.068.108.139.214.215.317l-.171.098-1.126.647-1.742 1.001a6.552 6.552 0 01-.24-.346l1.756-.984 1.135-.635.173-.097zm.385.532c.086.098.173.195.267.288l-.168.1-1.11.665-1.72 1.03a6.144 6.144 0 01-.29-.315l1.733-1.014 1.12-.655.168-.099zM7.726 39.95l.008.145-.182.08-1.155.55-1.794.856-.007-.152 1.794-.848 1.155-.544.181-.087zm3.503 4.525l.203.065-.174.123-1.024.718-1.57 1.103-.217-.08 1.583-1.095 1.032-.718.167-.116zm.597.204c.157.062.32.11.486.142l-.173.127-.992.729-1.51 1.11a3.833 3.833 0 01-.536-.155l1.542-1.105 1.008-.723.175-.125zm.95.253l.167.043-.167.123-.966.74-1.474 1.117-.19-.044 1.482-1.117.974-.732.174-.13zm-5.009-4.47c.067.547.232 1.078.488 1.566l-.174.096-1.14.624-1.764.967a5.13 5.13 0 01-.537-1.725l1.792-.876 1.158-.566.177-.086zm1.57 2.912c.227.187.467.357.72.51.264.168.541.316.83.44l-.175.119-1.043.71-1.596 1.087a5.885 5.885 0 01-.913-.484 6.771 6.771 0 01-.794-.562l1.703-1.043 1.1-.674.168-.103zm20.215-.538l.4-.13-.059.108-.334.653-.516.994-.428.137.53-1 .349-.653.058-.109zm1.183-.384l.937-.334-.051.101-.269.631-.421.965-1.024.362.472-.986.305-.645.05-.094zm1.78-.638l.313-.11-.625 1.654-.341.116.37-.942.247-.624.036-.094zm-7.449 2.306l1.849-.481 1.898-.56-.059.102-.378.665-.583 1.022-2.088.616c-.682.182-1.356.354-2.035.53l.794-1.077.519-.703.083-.114zm10.609-3.55l-.021.095-.127.573-.193.875-.79.33c-.258.104-.518.203-.78.306l-1.558.606.623-1.653 1.417-.553c.238-.093.474-.183.712-.278l.717-.302zm1.301-.548l-.014.087-.08.552-.124.855-.45.189.145-.856.095-.558.014-.094.414-.175zm1.778-.798l-.008.087-.007.523-.021.805-1.054.47.073-.819.05-.543.008-.087.959-.436zM56.36 28.731l.109.022.646.138.973.196-.29.224-.966-.21-.632-.145-.102-.022.262-.203z" fill="#7E40E6"/><path d="M58.68 26.898l.126.011.726.066 1.11.099c-.418.337-.823.675-1.252 1.012l-1.3 1.003-.976-.201-.642-.133-.112-.023 1.186-.914c.388-.306.755-.614 1.134-.92zm.998-.836l.131.008.763.036 1.17.05-.342.29-1.155-.065-.748-.05h-.123l.304-.269zm1.312-1.144l.131-.002.812-.008 1.248-.013c-.24.226-.505.454-.768.68l-1.204-.023-.786-.015-.13-.003c.24-.206.48-.412.697-.616zm4.902-5.02l.15-.03.993-.194 1.536-.3c-.182.218-.367.437-.558.656l-1.508.267-.974.172-.148.026c.175-.2.343-.399.51-.597zm.808-1.012l.156-.036 1.025-.233 1.584-.36a33.88 33.88 0 01-.51.648l-1.558.326-1.008.212-.154.032c.162-.198.315-.394.465-.59zm-4.878 5.269l.138-.007.843-.037 1.292-.058-.247.225-1.278.051-.835.03h-.138l.225-.204zm7.211-8.862l.174-.058 1.104-.37 1.721-.565-.13.253-1.714.559-1.104.355-.175.05.124-.224zm.468-.985l.174-.062 1.126-.402 1.745-.621c-.083.19-.17.382-.264.576l-1.731.593-1.117.383-.172.058c.085-.177.165-.352.24-.525zm.257-.632l.175-.065 1.14-.428 1.758-.66-.073.188-1.757.646-1.133.42-.175.066.066-.167zm-4.832 7.334l.145-.023.957-.152 1.483-.237a53.934 53.934 0 01-2.759 2.844l-1.34.09-.864.057-.13.008a49.035 49.035 0 002.508-2.586zm3.742-5.047l.169-.052 1.096-.341 1.695-.528c-.523.912-1.1 1.792-1.728 2.636l-1.604.39-1.04.252-.158.038a24.376 24.376 0 001.57-2.395z" fill="#7E40E6"/><path d="M73.313 10.91c-.072.266-.125.524-.209.794l-.274.82-1.76.659-1.135.425-.173.064.248-.746c.078-.247.126-.481.187-.722l.184-.076 1.152-.48 1.78-.739zm.121-.693l-.03.217-1.786.762-1.155.493-.182.08.03-.196.188-.08 1.155-.5 1.78-.776zm.081-.907l-.022.479-1.794.798-1.155.522-.181.08.021-.443.182-.08 1.162-.536 1.787-.82zm-1.002-3.364l.24.348-1.758.986-1.133.63-.175.095-.21-.312.167-.094 1.118-.645 1.75-1.008zm-.48-.552l.29.32-1.736 1.015-1.118.652-.174.102-.255-.297.16-.095 1.104-.66 1.729-1.037zM73.5 8.738l.015.152-1.794.841-1.155.551-.189.087-.007-.145.189-.087 1.154-.551 1.787-.848zm-4.044-4.91l.203.087-1.597 1.11-1.032.71-.145.11-.189-.08.145-.102 1.017-.71 1.598-1.125zm-.977-.302c.192.041.356.103.532.157l-1.566 1.124-1.008.722-.148.107a4.952 4.952 0 00-.485-.142l.144-.106.989-.728 1.542-1.134zm-.696-.169l.182.05-1.51 1.139-.974.725-.138.109-.174-.044.138-.101.966-.732 1.51-1.146zm5.145 3.249l.196.398c.052.14.094.285.143.426.092.293.16.592.205.896l-1.795.877-1.157.566-.175.085a5.39 5.39 0 00-.186-.813c-.045-.128-.08-.262-.133-.385l-.177-.364.175-.096 1.14-.624 1.764-.966zm-2.886-2.531c.163.065.32.142.472.23.148.084.31.159.446.25.273.17.532.362.775.572L70.03 6.173l-1.098.675-.166.101a5.84 5.84 0 00-.703-.521c-.124-.083-.271-.151-.407-.226a3.037 3.037 0 00-.427-.211l.152-.105 1.042-.71 1.62-1.101zM49.07 5.851c.149-.05.293-.1.436-.143l-.542 1.01-.351.656-.054.1c-.129.04-.263.085-.395.13l.053-.1.336-.651.518-1.002zm-1.891.651a34.93 34.93 0 011.022-.357l-.473.985-.308.641-.048.102c-.305.101-.615.208-.928.323l.044-.099.272-.628.419-.967zm-1.27.458l.341-.123-.37.95-.247.617-.036.101-.313.11.037-.095.232-.61.356-.95zm4.402-1.505c.711-.23 1.397-.417 2.095-.621.345-.1.68-.18 1.019-.27.34-.09.684-.184 1.01-.257l-.799 1.084-.518.703-.079.107c-.298.066-.608.153-.917.234-.31.082-.612.154-.928.246-.632.185-1.255.352-1.902.563l.06-.104.378-.664.581-1.021z" fill="#7E40E6"/><path d="M45.907 6.962l-.357.948-.231.614-.035.092-1.419.548c-.474.186-.952.387-1.425.579l.02-.09.126-.572.195-.882c.522-.21 1.047-.431 1.57-.636l1.556-.6zm-4.103 1.652l-.146.856-.094.558-.015.087-.406.181.007-.086.08-.552.123-.848.45-.196zm-1.352.588l-.08.826-.043.544-.008.08-.965.435.007-.08.014-.522.015-.805 1.06-.478zm-2.009.928l.03.776.021.508v.08l-.32.152v-.08l-.036-.5-.043-.776.348-.16zm-1.308.62l.099.752.063.486.01.072c-.677.342-1.356.667-2.026 1.024-.337.176-.67.346-1.007.524l-1.002.546-.032-.063-.214-.408-.33-.63 1.102-.599c.366-.194.736-.384 1.109-.579.735-.39 1.484-.75 2.228-1.125zM16.711 23.872l1.17.066.755.043.109.007-.313.261h-.116l-.762-.036-1.184-.05.341-.29zm-1.016.87l1.22.022.792.015h.109l-.697.616-.117.007-.813.008-1.264.014.77-.682zm-5.585 5.543l1.506-.267.975-.172.15-.027c-.172.2-.36.403-.513.599l-.149.029-.994.195-1.54.3c.173-.215.377-.438.565-.657zm-.943 1.125l1.553-.326 1.008-.212.155-.032c-.163.198-.325.397-.465.59l-.158.035-1.025.233-1.582.36c.156-.214.335-.432.514-.649zm5.089-5.376l1.293-.044.835-.029.123-.007-.218.21h-.123l-.843.036-1.307.058.24-.224zm-8.04 9.726l1.709-.552 1.107-.358.17-.055a2.03 2.03 0 00-.118.23l-.174.056-1.112.367-1.712.565c.04-.083.08-.166.13-.253zm-.378.754l1.721-.59 1.12-.383.179-.06c-.091.18-.175.354-.241.524l-.178.063-1.13.404-1.736.619c.078-.197.166-.39.265-.577zM5.36 37.6l1.75-.645 1.134-.414.181-.072-.072.174-.175.065-1.14.428-1.758.66.08-.196zm8.01-10.726l1.337-.087.864-.058.131-.007-.668.645-.64.646-.319.326-.29.32-.603.645-.13.022-.96.152-1.489.24.654-.704.327-.356.349-.355.697-.718.74-.71zm-5.155 5.764l1.606-.39 1.039-.252.158-.038c-.164.208-.292.407-.435.61-.133.2-.288.407-.412.603-.242.394-.518.799-.72 1.18l-.172.054-1.1.342-1.688.525c.226-.42.52-.862.79-1.296.138-.219.305-.446.456-.666.157-.223.302-.445.478-.672z" fill="#7E40E6"/></svg>