<svg width="273" height="224" fill="none" xmlns="http://www.w3.org/2000/svg"><path d="M268.264 149.519l-9.109 23.263c-10.771 27.511-40.524 47.114-82.782 50-68.397 4.669-144.053-36.204-168.643-91.108a74.01 74.01 0 01-3.336-58.048l9.11-23.263a73.99 73.99 0 003.335 58.046c24.59 54.906 100.246 95.779 168.641 91.108 42.26-2.885 72.013-22.489 82.784-49.998z" fill="#1E0044"/><path d="M96.287.363c68.402-4.669 144.049 36.199 168.642 91.108 24.59 54.906-11.047 103.377-79.448 108.046-68.395 4.671-144.05-36.202-168.64-91.107C-7.752 53.5 27.89 5.033 96.286.363z" fill="#1E0044"/><path d="M258.725 91.896c-23.4-52.249-95.13-91-160.205-86.557-65.086 4.443-98.879 50.4-75.478 102.649 23.4 52.247 95.127 90.991 160.213 86.547 65.075-4.443 98.871-50.391 75.47-102.639z" fill="#1E0044"/><path d="M264.933 91.471a101.857 101.857 0 00-1.715-3.634l-.005-.006a110.266 110.266 0 00-4.557-8.311l-.008-.006a83.285 83.285 0 00-1.439-2.321l-.006-.007a124.688 124.688 0 00-7.232-10.196 100.462 100.462 0 00-1.757-2.19l-.007-.007a143.044 143.044 0 00-9.606-10.6 142.229 142.229 0 00-4.178-4.04 169.52 169.52 0 00-2.169-1.979c-.73-.66-1.465-1.307-2.207-1.95a188.578 188.578 0 00-44.754-28.5 186.94 186.94 0 00-4.259-1.894c-.48-.198-.953-.404-1.439-.61a199.904 199.904 0 00-11.64-4.487h-.006a224.31 224.31 0 00-2.961-1.009A183.763 183.763 0 00104.343.026c-2.693.044-5.378.158-8.054.343a117.25 117.25 0 00-51.207 14.565 87.913 87.913 0 00-4.994 3.137 89.866 89.866 0 00-3.142 2.235 88.307 88.307 0 00-2.986 2.347 78.242 78.242 0 00-4.182 3.716c-.449.429-.887.86-1.316 1.294a66.34 66.34 0 00-15.274 23.53 2.33 2.33 0 00-.124.336 28 28 0 00-.443 1.238l-.15.423c-.18.53-.348 1.053-.511 1.588a49.73 49.73 0 00-.48 1.625l-.062.242c-.13.448-.25.89-.356 1.339a3.462 3.462 0 00-.1.392 68.933 68.933 0 00-.354 1.513l-.013.043c-.1.46-.194.92-.28 1.381a54.893 54.893 0 00-.636 3.78l-.018.118c-.07.49-.132.99-.181 1.486-.032.237-.056.474-.075.71l-.006.05c-.038.342-.07.685-.094 1.033l-.007.031a9.495 9.495 0 00-.05.704l-.005.037a37.61 37.61 0 00-.075 1.158l-.012.256c-.031.51-.05 1.02-.063 1.531l-.013.255a74.772 74.772 0 001.652 17.472c.212.996.443 1.993.699 2.994a85.843 85.843 0 001.963 6.703c.118.363.243.73.375 1.091.38 1.088.785 2.182 1.214 3.28.144.367.294.734.443 1.102.294.734.605 1.469.923 2.203.156.368.325.735.486 1.102.911 2.035 1.89 4.048 2.936 6.038.425.796.856 1.591 1.29 2.384a120.814 120.814 0 005.78 9.312 129.458 129.458 0 006.714 8.939 142.838 142.838 0 006.59 7.493c.654.698 1.321 1.395 1.995 2.08.673.685 1.354 1.37 2.044 2.054a181.01 181.01 0 0043.701 31.26l.062.037h.006a192 192 0 006.852 3.38 200.704 200.704 0 0033.06 12.107c2.643.71 5.305 1.37 7.979 1.961h.007l.087.025.23.049a173.617 173.617 0 0049.318 3.991c.954-.062 1.901-.137 2.843-.225a79.98 79.98 0 001.857-.174c.237-.018.474-.043.705-.074.374-.032.748-.076 1.122-.119.293-.031.593-.062.886-.099l.206-.025.149-.019c.692-.08 1.378-.175 2.057-.268h.006c.667-.087 1.328-.18 1.983-.286l.068-.007c.33-.049.661-.099.991-.161a68.537 68.537 0 001.995-.33c.399-.062.798-.137 1.191-.211l.817-.15.167-.031.02-.006c.604-.112 1.202-.237 1.801-.361l.062-.013.237-.049c.243-.05.487-.1.73-.157.343-.068.686-.142 1.023-.223l.118-.025c.305-.068.61-.138.91-.212a58.06 58.06 0 001.914-.461c.666-.161 1.321-.33 1.976-.51l.031-.006c.68-.181 1.36-.367 2.032-.561l.094-.031.268-.08a54.86 54.86 0 001.739-.517l.219-.069a91.321 91.321 0 001.508-.479l.48-.155h.006l.268-.093a94.944 94.944 0 002.394-.829l1.135-.411.012-.012c.268-.093.536-.193.798-.299l.082-.031c.262-.093.53-.199.791-.312.194-.068.386-.142.58-.223h.006c.15-.056.306-.118.455-.186.206-.076.418-.163.624-.256.355-.136.704-.286 1.053-.435a68.43 68.43 0 002.276-1.003 54.643 54.643 0 002.562-1.207c.362-.175.717-.349 1.065-.529a79.484 79.484 0 002.925-1.539l.225-.124c.235-.13.48-.26.723-.41.136-.067.27-.142.398-.225.311-.174.623-.354.935-.541.393-.225.786-.459 1.179-.704a79.886 79.886 0 003.135-2.004c.318-.212.637-.429.954-.647.18-.118.361-.249.542-.38.25-.174.505-.355.748-.535l.206-.144c.324-.229.649-.466.967-.708l.086-.064.163-.124c.399-.299.798-.598 1.191-.908l.15-.119.012-.006a64.53 64.53 0 001.004-.809l.13-.106.337-.268.518-.435.348-.299c.187-.156.375-.311.562-.479l.218-.193.143-.125c.35-.298.692-.603 1.035-.921h.007a62.59 62.59 0 001.121-1.052c.33-.312.655-.628.979-.952l.1-.094c.33-.323.66-.653.979-.989.33-.33.648-.66.96-.997.143-.149.281-.292.405-.441a39.239 39.239 0 001.54-1.73c.243-.281.486-.561.723-.848.137-.155.262-.305.38-.46.212-.256.418-.51.624-.772.121-.139.236-.284.342-.435.206-.25.393-.498.587-.747.33-.424.647-.853.954-1.282.229-.324.46-.648.685-.972l.205-.293c.219-.305.425-.609.624-.92.268-.386.518-.778.761-1.171.455-.697.879-1.394 1.29-2.11l.168-.287.132-.223c.155-.268.311-.541.454-.816l.119-.212c.144-.254.28-.51.412-.765.093-.168.186-.336.268-.504.181-.343.361-.691.529-1.04a8.45 8.45 0 00.293-.609c.33-.66.636-1.32.923-1.987.144-.316.28-.634.412-.952.087-.193.167-.386.243-.579l.099-.23c.107-.261.212-.529.312-.796.143-.355.281-.71.411-1.071a74.307 74.307 0 00-3.74-56.975zm-81.679 103.062a166.917 166.917 0 01-51.456-4.849l-.399-.1a189.309 189.309 0 01-33.701-11.958l-.15-.062a149.666 149.666 0 01-74.509-69.578C-.358 55.743 33.431 9.78 98.52 5.341 163.592.898 235.321 39.645 258.724 91.896c23.403 52.249-10.398 98.198-75.47 102.637z" fill="#120325"/><path d="M249.427 92.531l-6.7.458c.669 1.672 1.453 3.345 2.044 5.023l6.832-.134c-.639-1.785-1.459-3.567-2.176-5.347zm-4.105 7.035l.251.717 6.871.012-.264-.753-6.858.024zm.726 2.151l.479 1.673 6.942.227-.515-1.792-6.906-.108zm2.792 13.708l.156 1.649 7.11 1.124-.168-1.757-7.098-1.016zm.212 2.821l.048 1.613 7.11 1.315-.036-1.733-7.122-1.195zm-2.093-13.338l.156.55 6.99.37-.168-.597-6.978-.323zm1.557 24.464l-.119.658 7.074 1.984.131-.705-7.086-1.937zm-.358 1.996l-.3 1.542 7.039 2.175.311-1.649-7.05-2.068zm-.647 2.916l-.131.502 7.014 2.307.131-.55-7.014-2.259zm-.049-27.312c.54 2.325.959 4.676 1.256 7.044l7.085.921a75.627 75.627 0 00-1.333-7.501l-7.008-.464zm1.681 14.367l-.134 3.399c-.042 1.139-.228 2.242-.326 3.357l7.076 1.854c.124-1.191.311-2.368.354-3.581l.149-3.621-7.119-1.408z" fill="#7E40E6"/><path d="M247.379 134.788a46.021 46.021 0 01-1.361 4.489l6.91 2.585c.525-1.578 1.09-3.141 1.464-4.774l-7.013-2.3zm-1.869 5.843l-.263.621 6.858 2.713.276-.657-6.871-2.677zm-.774 1.855c-.189.483-.403.957-.64 1.419l6.787 2.9c.253-.493.479-.999.678-1.516l-6.825-2.803zm-6.573 11.148l-.994 1.243 6.344 3.621 1.053-1.339-6.403-3.525zm-1.687 2.139l-1.089 1.207 6.224 3.753 1.149-1.291-6.284-3.669zm6.988-10.601l-.24.478 6.739 3 .251-.502-6.75-2.976zm-15.133 18.559c-.17.159-.374.293-.571.445l5.72 4.219c.204-.162.416-.306.605-.476l-5.754-4.188zm-1.72 1.316l-1.352 1.016 5.553 4.35 1.437-1.087-5.638-4.279zm-2.621 1.9l-.479.323 5.422 4.422.515-.347-5.458-4.398zm18.588-20.042l-1.688 2.868-1.903 2.761 6.464 3.466 2.011-2.952 1.795-3.06-6.679-3.083zm-8.165 11.165a60.468 60.468 0 01-5.063 4.778l5.823 4.139a62.882 62.882 0 005.391-5.099l-6.151-3.818z" fill="#7E40E6"/><path d="M223.505 167.265c-.72.475-1.421.966-2.16 1.423l-2.269 1.327 5.147 4.609 2.412-1.421c.798-.48 1.539-1.01 2.301-1.514l-5.431-4.424zm-5.846 3.555l-.67.358 5.003 4.673.718-.37-5.051-4.661zm-2.046 1.048c-.536.268-1.038.56-1.593.81l4.811 4.78c.584-.261 1.138-.567 1.71-.855l-4.928-4.735zm-14.138 5.609l-1.856.514 3.854 5.127 1.987-.538-3.985-5.103zm-3.178.884c-.624.172-1.238.343-1.894.471l3.648 5.191a23.905 23.905 0 002.006-.506l-3.76-5.156zm14.227-5.008l-.562.251 4.68 4.841.586-.263-4.704-4.829zm-27.794 7.614l-.874.119 2.813 5.342.921-.131-2.86-5.33zm-2.608.322l-2.071.179 2.574 5.366 2.202-.191-2.705-5.354zm-3.925.346l-.683.072 2.406 5.366.73-.059-2.453-5.379zm32.271-7.365l-3.662 1.432c-1.212.48-2.52.846-3.775 1.283l4.077 5.069c1.347-.461 2.733-.861 4.034-1.374l3.897-1.522-4.571-4.888zm-15.799 4.958l-2.026.461-2.087.374c-1.391.233-2.759.52-4.204.684l2.98 5.32c1.531-.179 2.995-.481 4.483-.731l2.224-.402 2.163-.489-3.533-5.217zm-23.478 2.729l2.003 5.396c2.266-.025 4.472-.185 6.723-.274l-2.409-5.378c-2.116.08-4.184.239-6.317.256zm-2.893.025l1.807 5.402.982-.012-1.879-5.402-.91.012zm-3.987-.083l1.557 5.402 2.298.071-1.7-5.402-2.155-.071zm-18.017-1.709l.359 5.294 2.346.335-.502-5.307-2.203-.322zm-3.793-.646l.119 5.235 2.346.418-.251-5.259-2.214-.394zm19.128 2.271l1.389 5.39.754.024-1.413-5.39-.73-.024zm-33.178-5.534l-.826 5.008.994.299.766-5.044-.934-.263zm-4.084-1.183l-1.089 4.936 2.334.681.945-4.984-2.19-.633zm-2.691-.884l-1.257 4.888.767.251 1.22-4.9-.73-.239zm28.72 6.577l.62 5.315c3.308.402 6.625.767 9.894.95l-1.245-5.374c-3.07-.178-6.169-.521-9.269-.891zm-19.237-3.776l-.64 5.069c1.665.404 3.313.872 4.981 1.229l4.99 1.072.025-5.21-4.686-1.01c-1.551-.328-3.11-.776-4.67-1.15zm-15.966-5.071l-1.698 4.736c2.293.831 4.581 1.699 6.916 2.419l1.266-4.881c-2.193-.682-4.329-1.497-6.484-2.274zm-2.893-1.124l-1.903 4.661.982.394 1.831-4.697-.91-.358zm-3.946-1.612l-2.148 4.552c.749.337 1.497.645 2.263.944l1.994-4.615a43.208 43.208 0 01-2.109-.881zm-16.818-8.344l-3.243 4.004 2.106 1.183 3.124-4.075-1.987-1.112zm-3.338-1.96l-3.471 3.872 2.059 1.243 3.34-3.955-1.928-1.16zm17.571 9.167l-2.322 4.469.742.335 2.262-4.494-.682-.31zM76.349 151l-4.25 3.356c.275.203.53.416.81.601l4.195-3.4c-.263-.176-.511-.371-.755-.557zm-3.259-2.469l-4.452 3.203 1.867 1.41 4.345-3.287-1.76-1.326zm-2.094-1.698l-4.597 3.096.599.478 4.56-3.12-.563-.454zm24.216 16.075l-2.993 4.135 4.549 2.379 4.668 2.222 2.43-4.422-4.37-2.091-4.284-2.223zm-16.639-10.315l-4.098 3.466c2.714 1.949 5.545 3.797 8.405 5.587l3.574-3.809c-2.685-1.683-5.348-3.412-7.881-5.244zm-12.519-9.961l-4.909 2.81 2.583 2.272c.862.745 1.773 1.468 2.67 2.21l4.598-3.094c-.84-.691-1.704-1.362-2.517-2.073l-2.425-2.125zm-2.132-1.966l-5.05 2.689.693.67 5.016-2.725-.659-.634zm-2.852-2.718l-5.243 2.501c.528.537 1.089 1.044 1.635 1.569l5.142-2.595c-.508-.492-1.035-.973-1.535-1.475zm-11.082-12.723l-5.984 1.674 1.28 1.697 5.89-1.769-1.186-1.602zm-2.006-2.731l-6.118 1.47c.388.584.801 1.147 1.23 1.718l6.043-1.586a26.469 26.469 0 01-1.155-1.602zm11.296 13.595l-5.374 2.39.514.526 5.35-2.414-.49-.502zm-17.705-24.046l-6.535.8.407.741 6.511-.824-.383-.717zm-1.541-3.084l-6.643.586.862 1.781 6.571-.705-.79-1.662zm-.997-2.067l-6.691.466.275.586 6.68-.49-.264-.562zm13.241 21.284l-5.83 1.857c.973 1.172 1.903 2.374 2.935 3.522l3.119 3.473 5.45-2.293-2.914-3.246c-.981-1.088-1.842-2.211-2.76-3.313zm-9.59-14.086l-6.462.931c.651 1.249 1.454 2.478 2.201 3.711l1.137 1.843 1.233 1.827 6.185-1.373-1.162-1.721-1.062-1.729c-.705-1.162-1.46-2.31-2.07-3.489z" fill="#7E40E6"/><path d="M30.164 102.006c.637 1.785 1.46 3.567 2.175 5.348l6.7-.458c-.67-1.672-1.442-3.347-2.044-5.023l-6.831.133zm-.848-2.428l.263.765 6.87-.024-.239-.717-6.894-.024zM28.3 96.267l.502 1.78 6.919.12-.48-1.685-6.942-.215zm-2.631-14.58l.167 1.756 7.086 1.004-.144-1.637-7.11-1.123zm-.123-2.977l.048 1.721 7.122 1.207-.048-1.625-7.122-1.303zm2.121 15.346l.168.598 6.966.322-.156-.561-6.978-.359zM26.302 67.87l-.131.706 7.074 1.936.12-.657-7.063-1.984zm.573-3.071l-.312 1.65 7.05 2.067.288-1.542-7.027-2.175zm.504-2.008l-.144.538 7.026 2.271.12-.514-7.002-2.294zm-1.412 22.156A75.074 75.074 0 0027.3 92.45l7.003.454a69.167 69.167 0 01-1.252-7.036l-7.085-.92zm.037-15.019c-.12 1.198-.306 2.376-.353 3.58l-.146 3.63 7.12 1.407.134-3.4c.041-1.138.227-2.24.337-3.356l-7.092-1.861z" fill="#7E40E6"/><path d="M28.835 58.014c-.52 1.587-1.085 3.149-1.459 4.783l7.01 2.29c.338-1.528.878-2.996 1.364-4.479l-6.915-2.594zm.82-2.094l-.264.657 6.871 2.677.263-.622-6.87-2.713zm1.229-2.84a14.78 14.78 0 00-.68 1.515l6.825 2.803c.197-.484.394-.968.637-1.428l-6.782-2.89zm7.376-11.694l-1.066 1.339 6.404 3.526.993-1.255-6.332-3.61zm1.89-2.235L39 40.431l6.296 3.668 1.09-1.195-6.237-3.753zm-8.344 12.071l-.251.502 6.75 2.988.228-.478-6.727-3.012zM48.289 31.49a8.103 8.103 0 00-.605.474l5.754 4.19c.17-.16.385-.295.571-.447l-5.72-4.217zm2.656-2.02l-1.436 1.088 5.65 4.28 1.34-1.029-5.554-4.338zm1.883-1.278l-.515.347 5.47 4.398.48-.323-5.435-4.422zM36.307 43.884l-2.01 2.952-1.796 3.06 6.69 3.083 1.677-2.868 1.915-2.761-6.476-3.466zm10.287-10.986a62.91 62.91 0 00-5.39 5.096l6.15 3.82a60.702 60.702 0 015.059-4.788l-5.819-4.128z" fill="#7E40E6"/><path d="M57.542 25.26l-2.412 1.421c-.799.48-1.538 1.01-2.302 1.515l5.432 4.423c.72-.475 1.42-.966 2.16-1.422l2.27-1.328-5.148-4.609zm2.24-1.227l-.73.37 5.063 4.662.67-.359-5.002-4.673zm3.148-1.616c-.581.27-1.136.576-1.697.863l4.912 4.727c.537-.268 1.043-.551 1.597-.802l-4.813-4.788zm15.356-5.662l-1.975.55 3.974 5.103 1.867-.514-3.866-5.14zm3.428-.904c-.681.148-1.35.324-2.001.516l3.77 5.155a24.67 24.67 0 011.88-.48l-3.649-5.19zM65.132 21.44l-.598.263 4.716 4.828.55-.251-4.668-4.84zm29.956-7.984l-.921.132 2.873 5.33.873-.12-2.825-5.342zm4.05-.406l-2.19.191 2.717 5.355 2.059-.18-2.586-5.366zm2.726-.251l-.742.072 2.454 5.378.694-.072-2.406-5.378zM74.661 17.83c-1.347.46-2.733.861-4.032 1.374l-3.903 1.513 4.572 4.888 3.665-1.424c1.212-.479 2.516-.854 3.775-1.282l-4.077-5.07zm17.773-4.013c-1.535.17-2.999.474-4.482.732l-2.225.401-2.163.49 3.534 5.216 2.025-.461 2.087-.373c1.388-.243 2.765-.53 4.204-.685l-2.98-5.32z" fill="#7E40E6"/><path d="M101.863 12.804l2.409 5.378c2.104-.08 4.172-.239 6.305-.255l-2.002-5.396c-2.26.016-4.473.186-6.712.273zm8.825-.292l1.88 5.402.897-.012-1.807-5.402-.97.012zm2.929 0l1.676 5.402 2.166.06-1.556-5.39-2.286-.072zm19.153 1.554l.491 5.294 2.202.323-.347-5.283-2.346-.334zm4.021.621l.251 5.259 2.214.406-.107-5.247-2.358-.418zM118 12.655l1.413 5.39.718.012-1.377-5.378-.754-.024zm35.155 5.641l-.766 5.032.946.275.814-5.02-.994-.287zm2.992.873l-.946 4.971 2.19.646 1.09-4.936-2.334-.681zm4.441 1.362l-1.221 4.9.718.24 1.269-4.889-.766-.25zm-39.735-7.712l1.248 5.383c3.067.168 6.171.52 9.282.89l-.636-5.323c-3.306-.393-6.622-.758-9.894-.95zm20.427 2.679l-.025 5.21 4.687 1.01c1.55.329 3.104.767 4.668 1.151l.641-5.069c-1.653-.405-3.313-.873-4.981-1.23l-4.99-1.072zm20.077 5.288l-1.266 4.88c2.188.672 4.329 1.497 6.478 2.263l1.704-4.724c-2.294-.832-4.581-1.7-6.916-2.42zm9.035 3.224l-1.831 4.684.921.37 1.88-4.66-.97-.395zm2.915 1.17l-2.005 4.616c.71.275 1.413.558 2.109.881l2.145-4.562a68.57 68.57 0 00-2.249-.936zm18.067 8.653l-3.124 4.075 1.987 1.112 3.244-4.004-2.107-1.183zm3.613 2.032l-3.34 3.944 1.927 1.171 3.459-3.872-2.046-1.243zm-17.414-8.856l-2.262 4.494.694.31 2.322-4.481-.754-.323zm31.28 17.911l-4.196 3.398c.267.184.515.38.76.567l4.246-3.366c-.272-.194-.528-.407-.81-.6zm2.411 1.82l-4.357 3.275 1.76 1.339 4.464-3.203-1.867-1.41zm3.511 2.737l-4.561 3.12.551.454 4.608-3.096-.598-.477zM180.336 28.24l-2.43 4.422 4.357 2.08 4.286 2.235 3.004-4.135-4.561-2.379-4.656-2.223zm18.562 9.988l-3.581 3.82c2.686 1.682 5.348 3.412 7.883 5.242l4.092-3.475c-2.709-1.938-5.539-3.786-8.394-5.587z" fill="#7E40E6"/><path d="M215.37 49.96l-4.601 3.085c.839.69 1.707 1.37 2.516 2.072l2.429 2.135 4.907-2.811-2.57-2.272c-.878-.753-1.788-1.475-2.681-2.209zm6.826 5.9l-5.003 2.724.646.622 5.063-2.677-.706-.67zm2.121 2.005l-5.154 2.596c.508.492 1.045.973 1.531 1.465l5.242-2.5c-.524-.527-1.089-1.044-1.619-1.561zm12.168 13.424l-5.901 1.769 1.185 1.59 5.997-1.662-1.281-1.697zm2.187 2.913l-6.043 1.586c.408.526.798 1.063 1.155 1.602l6.114-1.48a35.837 35.837 0 00-1.226-1.708zm-11.331-13.335l-5.338 2.426.491.49 5.362-2.378-.515-.538zm18.97 25.421l-6.511.836.383.706 6.547-.79-.419-.752zm1.212 2.271l-6.584.705.802 1.661 6.632-.597-.85-1.77zm1.627 3.381l-6.679.49.251.562 6.703-.466-.275-.585zm-19.884-29.084l-5.451 2.293 2.915 3.246c.982 1.088 1.842 2.211 2.772 3.312l5.818-1.857c-.973-1.172-1.902-2.373-2.938-3.53l-3.116-3.464zm11.701 14.616l-6.181 1.383 1.158 1.713 1.065 1.738c.705 1.161 1.462 2.31 2.065 3.479l6.468-.923c-.652-1.248-1.455-2.476-2.203-3.71L242.21 79.3l-1.243-1.828zM117.772 24.85l-1.278-.007c-3.049-.03-6.098.057-9.121.268l-.168.012-1.235.093.892 1.987 1.241-.082.168-.011c2.936-.2 5.895-.29 8.877-.268l1.277.006-.653-1.998zm-18.341 1.076l-1.19.187a96.171 96.171 0 00-8.56 1.7l-1.13.28 1.355 1.923 1.127-.28a96.393 96.393 0 018.336-1.662l1.203-.175-1.141-1.973zm37.566.716l-1.315-.205a133.76 133.76 0 00-9.663-1.159l-1.302-.105.393 1.986 1.302.106c3.148.262 6.286.637 9.414 1.127l1.309.211-.138-1.96zm-54.33 3.194l-1.06.373c-2.55.894-5.05 1.92-7.493 3.075l-.966.46 1.77 1.775.98-.468a75.064 75.064 0 017.287-2.986l1.053-.369-1.57-1.86zm72.415 1.04a146.207 146.207 0 00-9.675-2.565l-1.321-.305-.124 1.91 1.321.3a144.2 144.2 0 019.413 2.495l1.303.4.387-1.844-1.304-.392zm-86.927 5.576l-.879.548a59.328 59.328 0 00-6.141 4.326l-.78.622 2.126 1.556.78-.621a59.704 59.704 0 015.972-4.208l.885-.549-1.963-1.674zm105.773 1.525a145.546 145.546 0 00-9.307-3.865l-1.279-.485-.641 1.755 1.284.485a142.736 142.736 0 019.057 3.76l1.248.56.878-1.65-1.24-.56zM56.44 45.509l-.679.698a53.616 53.616 0 00-4.55 5.403l-.556.765 2.382 1.288.555-.765a50.989 50.989 0 014.439-5.254l.672-.704-2.263-1.431zm135.062 1.936a145.353 145.353 0 00-8.579-5.01l-1.197-.642-1.121 1.525 1.191.642a147.771 147.771 0 018.365 4.88l1.129.715 1.347-1.406-1.135-.704zM47.956 56.65l-.437.828a48.252 48.252 0 00-2.804 6.269l-.319.877 2.557.964.323-.871a45.887 45.887 0 012.718-6.106l.45-.828-2.488-1.133zm159.194 2.266a134.701 134.701 0 00-7.544-5.97l-1.06-.778-1.558 1.251 1.066.778a132.26 132.26 0 017.337 5.808l.973.841 1.771-1.09-.985-.84zM43.025 69.448l-.187.916a50.368 50.368 0 00-.935 6.909l-.056.958 2.63.605.069-.96c.14-2.256.44-4.5.898-6.715l.186-.921-2.605-.792zM220.24 71.97a109.221 109.221 0 00-6.184-6.697l-.891-.885-1.946.922.879.89c2.12 2.11 4.14 4.276 6.035 6.511l.785.927 2.12-.747-.798-.92zM45.531 91.895a56.837 56.837 0 01-.966-7.083l-.07-.972-2.636-.423.07.984c.179 2.444.512 4.874.996 7.276l.2.996 2.593.218-.187-.996zm184.747-5.789a89.05 89.05 0 00-4.614-7.165l-.673-.958-2.256.547.679.966a89.607 89.607 0 014.476 6.977l.562.978 2.393-.367-.567-.978zM50.181 106.218l-.037-.081a71.137 71.137 0 01-2.73-7.084l-.337-1.001-2.55-.02.331.996a70.704 70.704 0 002.81 7.277l.04.08.448 1.003 2.474-.175-.449-.995zm186.755-5.279a72.352 72.352 0 00-2.837-7.363l-.08-.169-.449-1.001-2.488.173.462.997.074.174a69.937 69.937 0 012.762 7.158l.318 1.009 2.562.019-.324-.997zM58.299 120.304a86.275 86.275 0 01-4.47-6.971l-.568-.99-2.38.367.567.978c1.39 2.446 2.936 4.829 4.593 7.176l.675.959 2.256-.561-.673-.958zm181.536-4.737a56.435 56.435 0 00-.979-7.277l-.193-.995-2.606-.218.193.996c.47 2.338.788 4.704.954 7.083l.062.971 2.637.411-.068-.971zM69.583 133.606a102.253 102.253 0 01-6.01-6.517l-.799-.934-2.106.747.779.928a109.721 109.721 0 006.19 6.697l.88.89 1.964-.921-.898-.89zm167.695-12.474l-.055.947a48.78 48.78 0 01-.928 6.721l-.189.921 2.613.792.187-.922c.48-2.277.794-4.586.941-6.909l.075-.946-2.644-.604zm-153.65 24.487a123.976 123.976 0 01-7.338-5.819l-.985-.841-1.752 1.102.973.828a125.992 125.992 0 007.537 5.97l1.066.784 1.558-1.252-1.06-.772zm151.157-11.253l-.317.877a47.82 47.82 0 01-2.738 6.1l-.449.822 2.488 1.133.437-.822a47.47 47.47 0 002.817-6.269l.311-.871-2.549-.97zM99.874 155.865a132.474 132.474 0 01-8.373-4.886l-1.123-.716-1.352 1.4 1.14.723a141.53 141.53 0 008.585 5.01l1.18.636 1.127-1.525-1.184-.642zm128.796-9.586l-.55.766a50.557 50.557 0 01-4.45 5.254l-.674.702 2.27 1.426.666-.691a52.104 52.104 0 004.57-5.403l.568-.759-2.4-1.295zm-111.005 17.703a147.276 147.276 0 01-9.051-3.773l-1.241-.565-.885 1.649 1.246.567a154.501 154.501 0 009.302 3.871l1.272.479.648-1.742-1.291-.486zm101.559-7.556l-.785.628a60.798 60.798 0 01-5.978 4.201l-.885.543 1.957 1.68.886-.554a61.897 61.897 0 006.14-4.314l.786-.616-2.121-1.568zm-82.856 13.214a143.902 143.902 0 01-9.42-2.508l-1.303-.392-.374 1.835 1.303.394a151.85 151.85 0 009.669 2.576l1.322.305.118-1.911-1.315-.299zm70.395-5.229l-.985.455a73.063 73.063 0 01-7.287 2.981l-1.067.367 1.578 1.862 1.053-.368a77.066 77.066 0 007.513-3.075l.965-.454-1.77-1.768zm-50.216 8.304l-1.302-.106-.007-.006a134.336 134.336 0 01-9.413-1.133l-1.31-.206.144 1.956 1.31.205c3.216.505 6.439.895 9.669 1.17l1.302.105-.393-1.985zm35.204-2.819l-1.128.28a97.567 97.567 0 01-8.329 1.643l-1.197.18 1.134 1.962 1.185-.181a99.598 99.598 0 008.578-1.687l1.129-.28-1.372-1.917zm-16.962 2.794l-1.235.081-.057.006c-2.979.206-5.977.287-8.983.262l-1.284-.013.655 2.004 1.272.007c3.092.031 6.173-.06 9.245-.274h.043l1.234-.087-.89-1.986zm30.36-58.405l-1.11-2.484a40.817 40.817 0 00-23.951-19.975 13.86 13.86 0 00.031-12.63l-.973-2.16a39.49 39.49 0 00-15.579-15.256 39.567 39.567 0 00-21.313-4.675l-2.681.18-8.011-17.888-16.414 1.12 8.011 17.89-8.204.56-8.011-17.89-16.408 1.12 8.01 17.89-28.178 1.924 6.302 14.074 18.073-1.24 25.155 56.178-15.405 1.051 3.417 14.274 28.402-1.936 7.774 17.36 16.408-1.121-7.774-17.36 8.204-.56 7.774 17.361 16.415-1.121-7.774-17.361 8.136-.553c16.938-1.158 25.764-13.165 19.674-26.772zm-20.566 24.774l-10.617.722 7.78 17.366-11.458.784-7.781-17.366-13.159.896 7.78 17.367-11.446.784-7.78-17.367-27.966 1.905-2.438-10.221 15.779-1.076-26.95-60.173-18.08 1.232-4.513-10.077 28.191-1.925-8.01-17.888 11.439-.786 8.017 17.89 13.16-.896-8.01-17.89 11.451-.784 8.011 17.89 5.161-.355a35.975 35.975 0 0119.369 4.25 35.908 35.908 0 0114.159 13.864l.966 2.16a12.221 12.221 0 01-.573 12.212l-.686 1.009 1.689.528a38.09 38.09 0 0113.693 7.007 38.013 38.013 0 019.797 11.848l1.116 2.483c5.598 12.506-2.519 23.542-18.091 24.607zm-14.313-33.881a26.429 26.429 0 00-14.177-3.262l-23.733 1.619 12.556 28.023 23.732-1.618c9.62-.66 14.631-7.483 11.172-15.207a21.28 21.28 0 00-9.55-9.555zm-2.52 22.764l-21.252 1.449-10.765-24.039 21.252-1.45a22.734 22.734 0 0112.162 2.801 18.28 18.28 0 018.192 8.197c2.973 6.63-1.335 12.475-9.589 13.042zm-11.27-49.449a16.672 16.672 0 00-7.469-7.482 20.68 20.68 0 00-11.084-2.558l-20.635 1.412 9.819 21.918 20.628-1.407c7.524-.517 11.446-5.845 8.741-11.883zm-27.773 11.13l-8.03-17.934 18.141-1.238c3.16-.162 6.302.562 9.071 2.091a13.612 13.612 0 016.109 6.12c2.213 4.935-.985 9.305-7.15 9.722l-18.141 1.24zm51.113 25.11a21.28 21.28 0 00-9.55-9.555 26.429 26.429 0 00-14.177-3.262l-23.733 1.619 12.556 28.023 23.732-1.618c9.62-.66 14.631-7.483 11.172-15.207zm-12.07 13.209l-21.252 1.449-10.765-24.039 21.252-1.45a22.734 22.734 0 0112.162 2.801 18.28 18.28 0 018.192 8.197c2.973 6.63-1.335 12.475-9.589 13.042zm-11.27-49.449a16.672 16.672 0 00-7.469-7.482 20.68 20.68 0 00-11.084-2.558l-20.635 1.412 9.819 21.918 20.628-1.407c7.524-.517 11.446-5.845 8.741-11.883zm-27.773 11.13l-8.03-17.934 18.141-1.238c3.16-.162 6.302.562 9.071 2.091a13.612 13.612 0 016.109 6.12c2.213 4.935-.985 9.305-7.15 9.722l-18.141 1.24zm27.773-11.13a16.672 16.672 0 00-7.469-7.482 20.68 20.68 0 00-11.084-2.558l-20.635 1.412 9.819 21.918 20.628-1.407c7.524-.517 11.446-5.845 8.741-11.883zm-9.632 9.89l-18.141 1.24-8.03-17.934 18.141-1.238c3.16-.162 6.302.562 9.071 2.091a13.612 13.612 0 016.109 6.12c2.213 4.935-.985 9.305-7.15 9.722zm32.972 26.35a21.28 21.28 0 00-9.55-9.555 26.429 26.429 0 00-14.177-3.262l-23.733 1.619 12.556 28.023 23.732-1.618c9.62-.66 14.631-7.483 11.172-15.207zm-12.07 13.209l-21.252 1.449-10.765-24.039 21.252-1.45a22.734 22.734 0 0112.162 2.801 18.28 18.28 0 018.192 8.197c2.973 6.63-1.335 12.475-9.589 13.042z" fill="#7E40E6"/></svg>