<svg width="52" height="30" fill="none" xmlns="http://www.w3.org/2000/svg"><path d="M.085 16.647l1.1 5.703c.685 3.556 5.495 6.242 13.46 6.838 12.384.926 27.71-3.553 34.23-10.005a7.482 7.482 0 002.837-6.521l-1.099-5.703a7.47 7.47 0 01-2.837 6.522c-6.52 6.452-21.846 10.93-34.23 10.004C5.58 22.89.77 20.204.085 16.647z" fill="#1E0044"/><path d="M37.155.121C24.768-.805 9.443 3.673 2.923 10.126c-6.52 6.452-1.764 12.433 10.622 13.36 12.385.926 27.711-3.553 34.23-10.005C54.296 7.029 49.54 1.048 37.156.12z" fill="#120325"/><path d="M9.822 10.642c4.508-4.46 15.14-7.567 23.7-6.927 8.561.64 11.86 4.79 7.353 9.25s-15.139 7.567-23.7 6.927c-8.56-.64-11.86-4.79-7.353-9.25z" fill="#1E0044"/><path d="M.718 13.02l.097-.183c.064-.117.131-.232.2-.35a9.45 9.45 0 01.396-.599 12.434 12.434 0 011.151-1.394c.116-.123.236-.245.359-.368h.002A22.167 22.167 0 016.59 7.251 53.66 53.66 0 0130.514.11 54.602 54.602 0 0133.845 0c.264 0 .529.002.793.008l.09.002c.53.01 1.056.029 1.577.055l.07.004c.26.016.52.033.777.052 1.378.099 2.75.28 4.107.541 7.745 1.53 11.11 5.519 8.622 10.11-.126.232-.27.47-.427.707l-.004.005a11.99 11.99 0 01-1.145 1.448c-.111.123-.227.243-.347.366l-.182.184c-.33.325-.68.646-1.054.96a22.444 22.444 0 01-1.862 1.415l-.002.002c-.245.167-.494.331-.75.495l-.003.002a34.062 34.062 0 01-2.885 1.64l-.002.001a56.388 56.388 0 01-20.472 5.46 48.376 48.376 0 01-7.203.028l-.036-.004a36.448 36.448 0 01-2.799-.316l-.22-.034a9.065 9.065 0 01-.295-.05c-.138-.022-.276-.047-.414-.072a17.38 17.38 0 01-.343-.065l-.347-.071-.042-.01c-.096-.019-.191-.04-.285-.06H8.76l-.182-.043a26.384 26.384 0 01-.782-.193h-.004a53.095 53.095 0 01-.613-.172h-.004C1.15 20.61-1.34 17.06.718 13.02zm1.594 5.45l.011.013.03.04a15.756 15.756 0 0010.692 4.281 40.138 40.138 0 002.199.165c11.558.545 25.41-3.635 31.41-9.572 5.396-5.34 2.662-10.34-5.91-12.123a33.124 33.124 0 00-4.182-.57C36.38.691 36.194.68 36.01.668 24.346-.042 10.14 4.176 4.043 10.21.971 13.25.534 16.18 2.312 18.47z" fill="#120325"/><path d="M4.044 10.21C10.14 4.176 24.346-.042 36.01.668c.184.012.37.023.552.036a33.07 33.07 0 014.182.57c8.572 1.783 11.306 6.783 5.91 12.123-6 5.937-19.852 10.117-31.41 9.572a34.88 34.88 0 01-1.11-.07c-.37-.026-.734-.058-1.089-.095a15.756 15.756 0 01-10.69-4.28l-.032-.04-.011-.014C.534 16.18.97 13.25 4.044 10.21zm1.255 2.68l-.121.274a4.67 4.67 0 00-.205.547l1.563-.147c.052-.171.114-.34.186-.503l.115-.253c.04-.084.092-.17.136-.254l-1.527.063c-.048.09-.104.181-.147.273zm1.839-2.448c-.248.258-.504.517-.717.778l1.452.044c.194-.24.433-.48.661-.719l.086-.078-1.39-.111-.092.086zm2.71-2.157l-.385.258-.368.262c-.249.174-.475.352-.699.53l1.3.19c.21-.165.416-.33.646-.49l.34-.244.356-.237-1.19-.27zm3.617-1.997c-.653.3-1.263.615-1.858.937l1.051.352c.554-.297 1.115-.59 1.719-.865l-.912-.424zm4.27-1.682l-.173.058c-.517.176-1.03.354-1.528.545l.712.507c.46-.178.937-.343 1.412-.505l.161-.052-.584-.553zm4.44-1.228c-.78.18-1.555.37-2.317.584l.421.6a48.756 48.756 0 012.141-.539l-.245-.645zm2.498-.493l.052.685a44.98 44.98 0 012.19-.322l.13-.71c-.79.1-1.58.21-2.372.347zm6.952-.658c-.53.002-1.072.028-1.617.053l-.358.73c.5-.022 1.002-.047 1.495-.049l.162-.003.498-.735-.18.004zm3.33.092c-.355-.021-.707-.046-1.063-.064l-.66.733c.332.016.66.038.987.057.316.031.642.054.954.09l.814-.72c-.337-.04-.687-.064-1.032-.096zm3.094.397l-.972.699c.58.103 1.121.235 1.648.376l1.107-.665a21.722 21.722 0 00-1.783-.41zm4.704 1.554c-.291-.165-.62-.312-.948-.46l-1.264.613c.306.136.609.271.877.424l.094.05 1.34-.574-.099-.053zm1.175.748l-1.426.52c.297.229.572.484.822.763l1.495-.457a6.617 6.617 0 00-.891-.826zm1.768 2.26c-.058-.16-.136-.32-.211-.48l-1.542.385c.069.147.14.294.193.444.055.149.099.302.133.457l1.569-.31a3.305 3.305 0 00-.142-.496zm.05 2.56c.068-.249.12-.502.153-.758l-1.577.209c-.028.236-.076.47-.142.7l-.026.08 1.56-.145.032-.086zm-.809 1.671l.182-.277.152-.275-1.53.065-.14.254-.166.254a6.024 6.024 0 01-.366.511l1.471.021c.138-.185.286-.369.397-.553zm-2.676 2.795c.43-.34.843-.7 1.237-1.08l-1.392-.11a14.09 14.09 0 01-1.144.998l1.3.192zm-3.216 2.1l.141-.076.61-.348c.2-.117.39-.238.582-.356l-1.151-.293c-.18.11-.353.22-.539.33l-.563.32-.128.071 1.048.352zm-3.76 1.754c.342-.14.69-.277 1.02-.424l.5-.219.487-.225-.914-.42-.45.207-.46.201c-.306.136-.628.263-.946.393l.762.487zm-4.514 1.507c.38-.107.76-.212 1.132-.329.38-.112.747-.231 1.115-.353l-.588-.551c-.337.11-.678.223-1.027.325-.347.109-.697.207-1.052.306l.42.602zm-4.805 1.066l.186-.033.42-.072.417-.08c.282-.056.562-.106.84-.167l-.192-.658c-.257.057-.513.103-.772.155l-.39.074-.386.067-.172.029.05.685zm-3.42.455c.392-.04.787-.08 1.18-.128l.124-.71c-.363.044-.726.082-1.09.119-.359.028-.724.069-1.08.09l-.303.725c.385-.021.777-.064 1.168-.096zm-4.712.195c.37 0 .736.011 1.115.002l.493-.735c-.351.01-.686-.001-1.031-.001-.341-.004-.672-.021-1.01-.03l-.66.732c.364.009.722.028 1.093.032zm-.896-1.257c8.81.66 19.75-2.538 24.386-7.126 4.638-4.59 1.244-8.859-7.567-9.516-8.808-.66-19.746 2.538-24.384 7.127-4.638 4.588-1.243 8.857 7.565 9.515zm-4.19.783l.334.061.34.054c.232.032.457.072.696.1l.86-.714c-.224-.025-.429-.064-.642-.092l-.318-.05-.304-.057-.138-.025-.975.696.147.027zm-2.655-.658c.274.082.539.17.826.246l1.105-.667c-.264-.069-.507-.151-.76-.228-.238-.084-.485-.164-.711-.254l-1.23.625c.247.098.514.184.77.278zm-2.816-1.304c.2.118.38.244.598.355l1.343-.574c-.205-.101-.37-.22-.554-.329a10.348 10.348 0 01-.496-.352l-1.43.519c.175.128.352.256.54.38zM5.24 16.857l.193.33.23.317 1.51-.436-.213-.295-.176-.304-.042-.067-1.544.38.042.075zm-.452-1.5c.012.17.038.34.079.506l1.568-.31a2.957 2.957 0 01-.07-.47c-.006-.08-.018-.157-.018-.238l.006-.24-1.578.232-.008.263c.002.086.015.17.02.256z" fill="#1E0044"/><path d="M9.374 10.609c4.637-4.59 15.576-7.787 24.384-7.127 8.81.657 12.205 4.927 7.567 9.516-4.636 4.588-15.576 7.786-24.386 7.126-8.808-.658-12.203-4.927-7.565-9.515zm7.8 9.282c8.563.64 19.195-2.465 23.7-6.926 4.508-4.46 1.21-8.61-7.352-9.25-8.56-.64-19.192 2.467-23.698 6.928-4.507 4.458-1.209 8.61 7.35 9.248zm-10.036-9.45l1.397.105c-.23.24-.468.478-.662.72L6.42 11.22c.213-.261.469-.52.717-.779z" fill="#7E40E6"/><path d="M6.742 16.4l.04.07-1.541.386-.044-.073 1.545-.382zm.23-3.847c-.044.086-.096.17-.135.255l-.114.253a4.426 4.426 0 00-.187.503l-1.564.146c.058-.186.127-.368.206-.545l.12-.274c.045-.091.1-.184.148-.275l1.526-.063zm-.618 2.051l-.008.242c.001.08.012.158.018.237.012.158.035.315.071.47l-1.57.31a3.051 3.051 0 01-.077-.506c-.006-.087-.018-.171-.02-.258l.006-.261 1.58-.234zm.428 1.866l.176.302.214.297-1.508.434-.232-.316-.191-.33 1.54-.386zm6.794 3.714l.14.025-.967.698-.148-.026.975-.697zm-5.408-2.139c.16.12.322.238.496.352.184.11.35.227.553.329l-1.343.574c-.218-.11-.397-.238-.597-.356a12.52 12.52 0 01-.539-.38l1.43-.519zm2.385 1.3c.225.09.473.17.71.256.254.075.496.158.76.227l-1.105.666c-.286-.075-.55-.164-.826-.245-.256-.093-.522-.18-.769-.277l1.23-.627z" fill="#7E40E6"/><path d="M13.713 20.21l.305.056.318.049c.213.03.418.068.64.092l-.86.714c-.238-.026-.462-.067-.693-.1l-.342-.053-.334-.06.966-.698zm12.376-.192l.062.678-.183.033-.051-.681.172-.03zm-6.646.63l-.492.735c-.38.01-.746-.002-1.116-.003-.372-.004-.73-.021-1.094-.032l.66-.732c.339.01.67.026 1.01.03.345 0 .681.012 1.032.002zm4.407-.298l-.123.708c-.394.047-.788.088-1.181.129-.39.032-.785.073-1.17.095l.304-.725c.356-.021.721-.06 1.08-.09a65.98 65.98 0 001.09-.118z" fill="#7E40E6"/><path d="M27.636 19.72l.191.659c-.277.061-.557.11-.837.167l-.418.08-.421.073-.062-.682.387-.067.387-.074c.259-.052.518-.097.773-.155zm10.489-3.738l1.061.346-.142.077-1.048-.353.13-.07zm-5.695 2.45l.587.55c-.368.122-.736.242-1.114.354-.372.116-.753.223-1.133.329l-.419-.603a32.92 32.92 0 001.05-.305c.35-.102.69-.214 1.029-.325zm3.947-1.563l.914.421-.487.226-.5.218c-.329.147-.678.284-1.02.424l-.762-.488c.317-.129.64-.255.945-.392l.46-.2.45-.209z" fill="#7E40E6"/><path d="M39.227 15.33l1.152.293c-.193.118-.381.24-.583.356l-.61.349-1.06-.346.562-.322c.187-.108.358-.22.539-.33zm6.518-5.492l-.03.085-1.563.146.03-.08 1.563-.15zm-3.639 3.276l1.392.109a16.39 16.39 0 01-1.237 1.082l-1.299-.192c.398-.313.78-.646 1.144-.999zm3.163-2.157l-.151.275-.18.277c-.113.184-.26.368-.399.553l-1.47-.021a6.15 6.15 0 00.367-.511l.166-.255.139-.254 1.528-.064zm.629-1.877c-.032.256-.084.51-.154.758l-1.563.151c.065-.23.112-.463.14-.7l1.577-.208zm-3.144-4.81l.1.052-1.343.573-.092-.048 1.335-.576zm2.732 2.53c.074.158.153.317.21.479.06.161.108.327.142.495l-1.57.31a3.599 3.599 0 00-.13-.457c-.055-.15-.126-.297-.195-.443l1.543-.385zm-1.558-1.782c.322.247.62.524.89.827l-1.493.457a6.169 6.169 0 00-.821-.764l1.424-.52z" fill="#7E40E6"/><path d="M41.805 3.81c.328.148.656.295.948.46l-1.334.578a10.24 10.24 0 00-.878-.426l1.264-.612zm-10-1.589l-.495.736h-.162l.477-.732.18-.004zm6.245.496c.629.114 1.215.256 1.783.41l-1.108.664a20.273 20.273 0 00-1.648-.376l.972-.698zm-3.095-.397c.344.03.695.057 1.033.094l-.815.721c-.312-.036-.637-.059-.954-.09-.328-.018-.654-.041-.986-.057l.658-.733c.357.018.709.042 1.064.064z" fill="#7E40E6"/><path d="M31.625 2.227l-.48.734c-.492.002-.995.027-1.495.05l.359-.732c.543-.023 1.086-.05 1.616-.052zM17.738 4.605l.58.553-.158.05-.594-.545.172-.058zm9.306-2.067l-.13.71a44.9 44.9 0 00-2.19.321l-.052-.683a49.758 49.758 0 012.372-.348zm-4.869.839l.244.646c-.72.167-1.437.342-2.141.54l-.421-.601a50.29 50.29 0 012.319-.585zm-4.613 1.286l.597.548a36.62 36.62 0 00-1.412.504l-.713-.507a42.773 42.773 0 011.528-.545zM7.227 10.356l1.39.11-.084.08-1.394-.106.088-.084zm6.237-4.068l.912.423c-.603.276-1.165.57-1.717.866l-1.052-.351a31.109 31.109 0 011.857-.938zM9.849 8.285l1.19.269-.358.238-.339.243c-.229.16-.436.324-.646.488l-1.3-.189c.225-.178.45-.355.7-.529l.367-.263.386-.257zm1.373 7.235a5.522 5.522 0 012.856-2.218c1.902-.8 3.95-1.19 6.014-1.144.468.012.934-.076 1.366-.258l.149-.063c.44-.192.703-.452.682-.676-.02-.208-.276-.363-.688-.413-1.806-.216-2.935-.895-3.02-1.817-.14-1.542 2.644-3.298 6.206-3.915a13.428 13.428 0 013.252-.184c1.98.147 3.368.826 3.462 1.86.084.93-.904 1.983-2.645 2.813-.365.174-.571.396-.554.593l.012.12c.018.213.299.362.731.394l.086.008a3.19 3.19 0 001.316-.214 14.543 14.543 0 016.044-.95 4.224 4.224 0 013.26 1.311c.451.723.122 1.588-.932 2.435a13.225 13.225 0 01-7.586 2.246c-.26-.004-.512-.014-.753-.031-1.877-.141-3.16-.746-3.42-1.639-.057-.21-.348-.356-.771-.388l-.16-.012c-.5-.027-1 .06-1.46.255-.41.176-.662.409-.68.625-.082.95-1.206 1.983-3.013 2.766a14.554 14.554 0 01-6.467 1.117 6.271 6.271 0 01-2.448-.612c-.923-.497-1.22-1.21-.839-2.008zm1.251 1.831a5.78 5.78 0 002.262.566 13.434 13.434 0 005.981-1.035c1.67-.72 2.713-1.68 2.785-2.555.027-.289.364-.599.906-.834a4.398 4.398 0 011.949-.339l.159.012c.565.042.95.233 1.03.51.238.827 1.423 1.386 3.16 1.515a12.225 12.225 0 007.715-2.047c.972-.783 1.276-1.583.858-2.25a3.9 3.9 0 00-3.012-1.211c-1.905-.109-3.81.19-5.59.876a4.287 4.287 0 01-1.77.285l-.087-.008c-.586-.042-.967-.248-.992-.534l-.012-.12c-.023-.268.257-.568.755-.805 1.607-.767 2.523-1.74 2.445-2.602-.087-.956-1.37-1.583-3.204-1.72a12.4 12.4 0 00-3.003.171c-3.295.57-5.872 2.196-5.741 3.62.076.854 1.12 1.481 2.793 1.682.546.065.889.27.915.547.027.303-.323.647-.91.901l-.149.065a4.407 4.407 0 01-1.816.342c-1.908-.04-3.802.32-5.561 1.058a5.124 5.124 0 00-2.644 2.053c-.352.738-.076 1.396.778 1.857z" fill="#7E40E6"/></svg>