<svg width="169" height="96" fill="none" xmlns="http://www.w3.org/2000/svg"><path d="M168.098 54.174l-3.576 18.558c-2.231 11.575-17.884 20.315-43.803 22.253C80.415 98.001 30.541 83.425 9.322 62.43a24.348 24.348 0 01-7.303-9.447 24.31 24.31 0 01-1.93-11.777l3.576-18.558a24.312 24.312 0 001.931 11.777A24.35 24.35 0 0012.9 43.87c21.217 20.997 71.093 35.572 111.396 32.557 25.919-1.938 41.571-10.678 43.802-22.253z" fill="#1E0044"/><path d="M47.464.395c40.308-3.015 90.183 11.56 111.401 32.557 21.219 20.997 5.74 40.461-34.569 43.475C83.993 79.442 34.117 64.867 12.9 43.87-8.318 22.873 7.16 3.41 47.464.395z" fill="#120325"/><path d="M136.41 34.632c-14.668-14.514-49.267-24.626-77.123-22.543-27.863 2.085-38.599 15.587-23.931 30.102 14.666 14.514 49.265 24.626 77.128 22.541 27.857-2.083 38.592-15.587 23.926-30.1z" fill="#1E0044"/><path d="M166.039 42.371l-.317-.597c-.206-.379-.425-.753-.649-1.14a30.641 30.641 0 00-1.291-1.947 25.06 25.06 0 00-.71-.978 40.555 40.555 0 00-3.036-3.56 56.627 56.627 0 00-1.166-1.195h-.006a72.123 72.123 0 00-11.938-9.356A174.624 174.624 0 0069.075.356c-1.21-.075-2.42-.143-3.622-.193a169.745 169.745 0 00-3.554-.124A173.114 173.114 0 0058.233 0c-.86 0-1.72.006-2.58.024l-.294.008c-1.72.03-3.434.093-5.13.18l-.231.012c-.842.05-1.69.106-2.525.168-4.486.322-8.95.91-13.366 1.762C8.903 7.134-2.051 20.113 6.047 35.052c.413.76.88 1.531 1.39 2.303l.014.018a39.041 39.041 0 003.727 4.713c.362.398.736.79 1.129 1.189l.592.598a58.063 58.063 0 003.429 3.124 73.277 73.277 0 003.74 2.956 96.512 96.512 0 002.32 1.65l.005.007a108 108 0 002.445 1.61l.006.008a110.869 110.869 0 009.389 5.334l.006.006A183.501 183.501 0 0099.042 76.19c.61.05 1.215.1 1.82.144 7.8.615 15.635.646 23.44.093l.119-.012a118.68 118.68 0 002.275-.188 118.893 118.893 0 006.832-.84l.717-.112c.325-.05.642-.106.96-.162.449-.074.898-.155 1.347-.236.374-.068.748-.136 1.115-.212.381-.074.756-.155 1.129-.23l.138-.032c.311-.062.622-.13.929-.198h.006l.592-.137a87.19 87.19 0 002.544-.629h.012c.679-.186 1.34-.373 1.995-.56h.012c19.612-5.808 27.716-17.361 21.015-30.508zm-5.187 17.735l-.037.043-.1.132a51.276 51.276 0 01-34.792 13.93c-1.154.118-2.338.224-3.541.31a116.42 116.42 0 01-3.616.225C81.156 76.52 36.077 62.92 16.552 43.599-1.009 26.219 7.887 9.948 35.784 4.146a107.785 107.785 0 0113.61-1.855c.592-.043 1.196-.08 1.795-.118 37.959-2.309 84.185 11.416 104.028 31.054 10 9.891 11.42 19.429 5.635 26.879z" fill="#120325"/><path d="M155.216 33.228C135.373 13.589 89.146-.136 51.188 2.173c-.599.039-1.203.076-1.796.119-4.571.328-9.117.947-13.61 1.854C7.887 9.948-1.01 26.22 16.553 43.598 36.075 62.92 81.154 76.52 118.764 74.747c1.215-.056 2.42-.131 3.616-.225 1.203-.087 2.387-.192 3.541-.31a51.276 51.276 0 0034.792-13.931l.1-.132.037-.043c5.785-7.45 4.365-16.987-5.635-26.878zm-4.084 8.72l.393.89c.259.58.483 1.175.668 1.782l-5.087-.48a15.156 15.156 0 00-.605-1.637l-.375-.822c-.13-.274-.299-.553-.442-.827l4.968.205c.156.292.338.59.48.89zm-5.985-7.966c.805.84 1.64 1.68 2.332 2.532l-4.726.144c-.629-.784-1.408-1.562-2.151-2.34l-.28-.256 4.526-.361.299.28zm-8.82-7.022l1.252.84 1.197.853a45.967 45.967 0 012.275 1.724l-4.232.617c-.68-.535-1.353-1.07-2.101-1.594l-1.103-.79-1.16-.772 3.872-.878zm-11.771-6.499c2.126.978 4.109 2.005 6.047 3.05l-3.422 1.146c-1.801-.965-3.628-1.917-5.592-2.813l2.967-1.383zm-13.895-5.471l.561.186c1.683.574 3.354 1.152 4.975 1.775l-2.319 1.65c-1.496-.579-3.049-1.114-4.595-1.644l-.523-.168 1.901-1.8zM96.21 10.993c2.537.586 5.062 1.203 7.543 1.9l-1.372 1.954a158.577 158.577 0 00-6.968-1.755l.797-2.099zm-8.13-1.605l-.168 2.228c-2.375-.417-4.757-.747-7.126-1.046l-.423-2.309c2.568.324 5.143.68 7.717 1.127zM65.458 7.247c1.726.006 3.49.093 5.262.174l1.165 2.377c-1.628-.074-3.26-.155-4.863-.161l-.53-.012-1.62-2.39.586.012zm-10.835.298c1.153-.068 2.3-.149 3.46-.205l2.144 2.384c-1.078.05-2.145.124-3.21.187-1.03.1-2.089.174-3.105.292l-2.649-2.346c1.096-.125 2.237-.205 3.36-.312zM44.554 8.84l3.161 2.272c-1.889.337-3.647.766-5.36 1.226l-3.604-2.166a70.692 70.692 0 015.803-1.332zm-15.31 5.055c.948-.535 2.02-1.014 3.086-1.494l4.114 1.991c-.997.443-1.983.885-2.855 1.382l-.305.163-4.364-1.868.324-.174zm-3.822 2.433l4.638 1.694a20.155 20.155 0 00-2.673 2.484l-4.864-1.489a21.545 21.545 0 012.9-2.689zm-5.754 7.358c.187-.523.443-1.04.686-1.562l5.019 1.251c-.225.48-.456.959-.63 1.444-.177.485-.32.983-.43 1.488l-5.107-1.009a10.75 10.75 0 01.462-1.612zm-.162 8.329a18 18 0 01-.498-2.466l5.13.679c.092.77.246 1.532.462 2.278l.087.261-5.08-.473-.101-.28zm2.63 5.44l-.59-.902-.494-.897 4.974.212.457.828.542.827c.368.574.765 1.13 1.19 1.662l-4.787.069c-.449-.604-.93-1.202-1.292-1.8zm8.71 9.094a53.08 53.08 0 01-4.027-3.516l4.532-.355a46.441 46.441 0 003.722 3.248l-4.227.623zm10.467 6.835l-.46-.249-1.984-1.133c-.654-.38-1.272-.772-1.895-1.158l3.747-.953c.586.355 1.147.716 1.752 1.071l1.832 1.046.418.23-3.41 1.146zm12.237 5.708c-1.115-.455-2.25-.903-3.322-1.382L48.6 57l-1.584-.735 2.974-1.368 1.465.677 1.496.654c.997.442 2.044.853 3.08 1.276l-2.481 1.588zm14.689 4.904c-1.236-.349-2.476-.69-3.685-1.07a117.458 117.458 0 01-3.629-1.151l1.914-1.793c1.097.36 2.207.728 3.342 1.058 1.128.355 2.27.672 3.422.995l-1.364 1.961zm15.634 3.467l-.605-.105-1.365-.236-1.359-.262c-.917-.18-1.826-.343-2.73-.541l.623-2.142c.835.186 1.67.336 2.512.504l1.266.243 1.26.217.56.094-.162 2.228zm11.134 1.483c-1.278-.132-2.563-.262-3.846-.418l-.4-2.31c1.18.144 2.363.268 3.548.386 1.166.093 2.356.225 3.516.293l.985 2.36c-1.254-.069-2.53-.206-3.803-.312zm15.329.634c-1.203 0-2.394.037-3.627.006l-1.603-2.39c1.142.03 2.232-.006 3.355-.006 1.109-.013 2.188-.068 3.284-.1l2.151 2.384c-1.184.03-2.35.093-3.56.106zm2.918-4.09c-28.67 2.148-64.274-8.26-79.36-23.192C18.802 27.364 29.848 13.47 58.519 11.33c28.665-2.147 64.261 8.26 79.353 23.193 15.093 14.932 4.046 28.826-24.618 30.967zm13.634 2.546l-1.085.2-1.109.174c-.754.105-1.484.237-2.264.324l-2.798-2.322c.729-.082 1.395-.206 2.089-.299l1.034-.162.991-.187.449-.081 3.173 2.266-.48.087zm8.641-2.14c-.892.267-1.753.553-2.688.801l-3.596-2.171c.86-.225 1.651-.492 2.475-.741.772-.274 1.576-.535 2.312-.828l4.003 2.035c-.804.318-1.671.597-2.506.903zm9.164-4.246c-.649.385-1.235.796-1.946 1.157l-4.37-1.867c.667-.33 1.203-.715 1.802-1.07a33.288 33.288 0 001.614-1.145l4.652 1.686a45.41 45.41 0 01-1.752 1.24zm6.633-6.792l-.629 1.071-.749 1.034-4.912-1.42.692-.958.573-.99.137-.217 5.025 1.238-.137.242zm1.471-4.885a9.78 9.78 0 01-.256 1.649l-5.105-1.009a9.765 9.765 0 00.23-1.53c.019-.256.056-.511.056-.773l-.018-.784 5.136.76.025.852c-.006.28-.049.554-.068.835z" fill="#1E0044"/><path d="M137.87 34.523C122.778 19.59 87.182 9.183 58.517 11.33 29.847 13.47 18.8 27.364 33.892 42.298c15.087 14.933 50.69 25.34 79.361 23.192 28.663-2.141 39.71-16.035 24.617-30.967zm-25.385 30.208c-27.866 2.085-62.465-8.024-77.128-22.54C20.69 27.676 31.424 14.175 59.284 12.09c27.86-2.085 62.459 8.03 77.121 22.547 14.669 14.508 3.935 28.016-23.92 30.095zm32.662-30.753l-4.546.34c.745.78 1.523 1.557 2.154 2.342l4.726-.148c-.696-.849-1.526-1.693-2.334-2.534z" fill="#7E40E6"/><path d="M146.436 53.373l-.131.227 5.015 1.255.144-.24-5.028-1.242zm-.751-12.521c.145.278.314.555.442.829l.371.822c.236.533.439 1.08.608 1.637l5.088.477a15.655 15.655 0 00-.67-1.776l-.391-.89c-.146-.298-.322-.598-.482-.895l-4.966-.204zm2.014 6.673l.024.787c-.004.261-.037.514-.059.773a9.597 9.597 0 01-.231 1.526l5.108 1.012a9.99 9.99 0 00.255-1.649c.019-.28.058-.556.066-.836l-.021-.853-5.142-.76z" fill="#7E40E6"/><path d="M146.305 53.6l-.575.98-.694.968 4.907 1.41.755-1.027.622-1.076-5.015-1.255zm-22.111 12.083l-.454.084 3.148 2.27.478-.083-3.172-2.271zm17.6-6.958c-.518.388-1.047.773-1.613 1.143-.6.358-1.138.74-1.801 1.07l4.37 1.87c.711-.36 1.294-.774 1.945-1.158a39.39 39.39 0 001.751-1.24l-4.652-1.685zm-7.762 4.23c-.734.294-1.54.554-2.311.832-.826.245-1.613.514-2.476.738l3.599 2.17c.93-.246 1.791-.535 2.688-.8.832-.302 1.699-.584 2.501-.902l-4.001-2.038z" fill="#7E40E6"/><path d="M123.748 65.767l-.993.184-1.034.16c-.694.095-1.361.22-2.085.298l2.799 2.323c.776-.083 1.505-.216 2.258-.323l1.113-.172 1.085-.199-3.143-2.27zm-40.273-.622l-.203 2.211.598.108.168-2.223-.563-.096zm21.627 2.049l1.602 2.39c1.234.033 2.426-.004 3.632-.007 1.209-.013 2.373-.07 3.561-.104l-2.152-2.382c-1.099.032-2.175.085-3.285.098-1.124 0-2.217.038-3.358.005zm-14.343-.972l.402 2.307c1.28.154 2.565.286 3.843.42 1.272.103 2.553.238 3.805.31l-.988-2.362c-1.156-.068-2.346-.196-3.514-.289a236.584 236.584 0 01-3.548-.386z" fill="#7E40E6"/><path d="M78.438 64.177l-.62 2.14c.903.2 1.814.361 2.724.544l1.361.262 1.37.236.2-2.22-1.258-.218-1.26-.24c-.842-.17-1.684-.316-2.517-.504zM44.305 52.01l-3.453 1.127.463.248 3.41-1.148-.42-.226zm18.535 7.972l-1.913 1.792c1.198.396 2.397.785 3.627 1.15 1.211.38 2.45.725 3.689 1.07l1.36-1.96a107.35 107.35 0 01-3.418-.992 108.488 108.488 0 01-3.345-1.06zm-12.848-5.086l-2.974 1.371 1.584.735 1.628.71c1.072.48 2.206.924 3.322 1.378l2.48-1.587c-1.033-.42-2.084-.83-3.076-1.275l-1.501-.654-1.463-.678zm-9.272-5.007l-3.748.953c.628.384 1.24.78 1.897 1.159l1.982 1.135 3.453-1.126-1.829-1.05c-.61-.35-1.168-.714-1.754-1.071zM19.508 32.016l.096.275 5.087.478-.096-.263-5.087-.49zM31.35 42.677l-4.53.354a53.351 53.351 0 004.028 3.52l4.225-.623a47.585 47.585 0 01-3.722-3.25zm-10.293-7.02l.493.894.586.902c.365.598.845 1.2 1.295 1.8l4.786-.069a19.967 19.967 0 01-1.194-1.662l-.54-.829-.453-.827-4.973-.209z" fill="#7E40E6"/><path d="M19.011 29.55c.105.833.272 1.657.5 2.466l5.088.491a14.688 14.688 0 01-.458-2.277l-5.13-.68zm10.23-15.652l-.323.167 4.369 1.864.3-.155-4.346-1.876zm-8.891 8.228c-.24.519-.495 1.035-.684 1.56a10.916 10.916 0 00-.461 1.614l5.107 1.005c.11-.504.252-1 .426-1.485.179-.49.41-.966.635-1.443l-5.023-1.251zm5.072-5.796a21.311 21.311 0 00-2.898 2.69l4.859 1.488a20.08 20.08 0 012.674-2.486l-4.634-1.692z" fill="#7E40E6"/><path d="M32.331 12.398c-1.068.482-2.136.962-3.086 1.497l4.343 1.88c.877-.497 1.861-.941 2.855-1.384l-4.112-1.993zm32.542-5.169L66.49 9.63h.527l-1.556-2.39-.587-.012zm-20.32 1.613c-2.05.37-3.955.833-5.804 1.332l3.606 2.163c1.716-.457 3.472-.886 5.36-1.225l-3.162-2.27zm10.068-1.294c-1.119.101-2.262.187-3.36.31l2.652 2.344c1.013-.116 2.074-.191 3.105-.29 1.067-.062 2.128-.138 3.207-.19l-2.14-2.382c-1.163.057-2.306.136-3.464.208z" fill="#7E40E6"/><path d="M65.458 7.246l1.565 2.389c1.6.008 3.234.088 4.864.162l-1.169-2.38c-1.767-.076-3.533-.162-5.26-.171zm45.198 7.739l-1.891 1.805.515.167 1.939-1.78-.563-.192zM80.366 8.26l.423 2.313c2.371.297 4.75.624 7.128 1.042l.169-2.224c-2.575-.452-5.153-.807-7.72-1.13zm15.844 2.73l-.794 2.103c2.342.543 4.676 1.111 6.968 1.757l1.371-1.958c-2.479-.698-5.003-1.314-7.546-1.901zm15.013 4.185l-1.943 1.783c1.551.527 3.102 1.062 4.596 1.64l2.319-1.65c-1.619-.622-3.291-1.2-4.972-1.773zM144.856 33.7l-4.525.36.275.262 4.537-.346-.287-.275zm-20.297-13.237l-2.966 1.377c1.96.899 3.791 1.852 5.588 2.817l3.422-1.142c-1.934-1.048-3.921-2.078-6.044-3.052zm11.766 6.498l-3.871.875 1.163.775 1.103.79c.745.52 1.42 1.056 2.102 1.59l4.232-.615a46.181 46.181 0 00-2.277-1.721l-1.197-.856-1.255-.838zm-4.469 23.547a17.97 17.97 0 00-9.295-7.22 47.81 47.81 0 00-19.569-3.722 10.75 10.75 0 01-4.445-.842l-.486-.204c-1.434-.623-2.288-1.47-2.22-2.198.063-.679.898-1.183 2.239-1.345 5.878-.703 9.55-2.912 9.83-5.913.455-5.017-8.608-10.731-20.198-12.741a43.701 43.701 0 00-10.585-.598c-6.44.48-10.959 2.689-11.265 6.05-.274 3.032 2.943 6.455 8.61 9.157 1.184.566 1.857 1.288 1.8 1.929l-.037.392c-.061.69-.973 1.177-2.381 1.282l-.28.025a10.388 10.388 0 01-4.283-.696 47.326 47.326 0 00-19.668-3.089 13.745 13.745 0 00-10.606 4.265c-1.47 2.353-.398 5.166 3.031 7.923a43.037 43.037 0 0024.686 7.309 43.987 43.987 0 002.45-.1c6.11-.46 10.287-2.428 11.128-5.335.187-.684 1.135-1.158 2.513-1.263l.517-.038c1.628-.09 3.255.194 4.757.828 1.328.573 2.15 1.333 2.213 2.035.262 3.094 3.92 6.455 9.801 9a47.363 47.363 0 0021.045 3.636 20.409 20.409 0 007.967-1.992c3.005-1.618 3.972-3.939 2.731-6.535zm-4.071 5.957a18.805 18.805 0 01-7.363 1.843 43.717 43.717 0 01-19.462-3.368c-5.437-2.347-8.828-5.466-9.065-8.316-.087-.94-1.183-1.948-2.948-2.714a14.311 14.311 0 00-6.34-1.102l-.517.037c-1.84.137-3.093.76-3.355 1.662-.772 2.69-4.631 4.507-10.28 4.93a33.24 33.24 0 01-2.281.094 39.784 39.784 0 01-22.824-6.754c-3.167-2.552-4.158-5.154-2.798-7.326a12.695 12.695 0 019.805-3.94 43.7 43.7 0 0118.192 2.85 13.952 13.952 0 005.76.927l.28-.024c1.909-.137 3.149-.809 3.23-1.738l.037-.392c.076-.87-.835-1.847-2.456-2.62-5.23-2.496-8.21-5.658-7.955-8.466.281-3.112 4.458-5.153 10.424-5.595a40.35 40.35 0 019.775.554c10.722 1.855 19.107 7.146 18.683 11.777-.249 2.783-3.647 4.824-9.088 5.477-1.778.212-2.894.878-2.98 1.781-.088.984 1.052 2.104 2.96 2.932l.486.212a14.35 14.35 0 005.911 1.113 44.307 44.307 0 0118.097 3.442 16.674 16.674 0 018.603 6.68c1.147 2.402.249 4.544-2.531 6.044z" fill="#7E40E6"/></svg>