<svg width="197" height="146" fill="none" xmlns="http://www.w3.org/2000/svg"><path d="M183.603 13.153l11.244 20.503a32.457 32.457 0 01-5.227 32.253c-20.337 33.166-75.177 67.872-122.256 77.368-28.18 5.684-47.287 1.066-53.724-10.671L2.396 112.103c6.437 11.738 25.544 16.356 53.724 10.672 47.079-9.497 101.918-44.201 122.256-77.367a32.459 32.459 0 005.227-32.254z" fill="#1E0044"/><path d="M129.88 2.484c47.079-9.496 68.83 9.761 48.496 42.925-20.338 33.166-75.177 67.87-122.256 77.367-47.073 9.495-68.833-9.758-48.496-42.925C27.96 46.69 82.806 11.98 129.88 2.484z" fill="#120325"/><path d="M128.038 5.488C83.241 14.523 31.24 47.43 11.889 78.99c-19.35 31.559 1.281 49.811 46.078 40.774 44.789-9.035 96.786-41.936 116.136-73.494 19.351-31.56-1.276-49.817-46.065-40.782z" fill="#1E0044"/><path d="M125.64 9.4c-41.669 8.409-90.2 39.12-108.199 68.47-17.997 29.349 1.26 46.392 42.927 37.989 41.664-8.409 90.196-39.122 108.193-68.47 17.992-29.35-1.259-46.392-42.921-37.99zm41.213 38.331c-17.586 28.682-65.034 58.71-105.748 66.921-40.728 8.216-59.548-8.442-41.956-37.124 17.593-28.689 65.034-58.71 105.756-66.927 40.714-8.21 59.541 8.441 41.948 37.13z" fill="#7E40E6"/><path d="M152.698 30.563l-33.77-5.365a.918.918 0 00-.343.012c-.11.026-.218.059-.324.1L64.604 46.553c-.37.14-.695.376-.942.685-.167.255-.105.448.15.492l33.77 5.37c.115.014.23.007.343-.017.113-.024.224-.057.33-.1l53.664-21.245c.367-.137.689-.374.928-.684.169-.256.119-.455-.149-.492zm-53.924 21.2L66.83 46.685l50.908-20.156 31.944 5.08-50.907 20.154zm-5.004 3.861l-31.095-4.95a.945.945 0 00-.344.013 2.46 2.46 0 00-.542.2 1.829 1.829 0 00-.742.616L35.17 93.705c-.15.243-.087.43.162.468l31.101 4.942c.115.011.23.005.344-.02a2.12 2.12 0 00.542-.192c.294-.142.549-.354.742-.617L93.938 56.09c.15-.243.081-.43-.168-.466zM66.876 97.658l-29.668-4.712 25.024-40.815L91.9 56.85 66.876 97.658zm83.792-63.591a.858.858 0 00-.456-.006 2.25 2.25 0 00-.323.093l-47.006 18.618a2.062 2.062 0 00-.94.704l-11.24 18.325c-.144.237-.088.417.155.46l31.968 5.902a.94.94 0 00.362-.02 2.07 2.07 0 00.524-.18c.299-.141.558-.355.754-.622l26.257-42.832c.126-.205.107-.373-.055-.442zm-27.374 42.62l-30.56-5.639 10.723-17.485 44.929-17.79-25.092 40.914z" fill="#7E40E6"/></svg>