<svg width="202" height="170" fill="none" xmlns="http://www.w3.org/2000/svg"><path d="M183.414 16.256l12.587 18.914c9.541 14.336 6.509 36.76-10.935 61.56-29.239 41.565-88.06 74.302-131.123 72.98a42.46 42.46 0 01-20.014-3.666 42.386 42.386 0 01-16-12.553L5.341 134.577a42.398 42.398 0 0016 12.553 42.473 42.473 0 0020.015 3.665c43.063 1.323 101.884-31.415 131.123-72.98 17.444-24.799 20.475-47.223 10.935-61.559z" fill="#1E0044"/><path d="M147.403.039c43.063 1.323 54.309 36.215 25.074 77.777-29.24 41.564-88.06 74.303-131.123 72.979-43.068-1.321-54.317-36.211-25.078-77.775C45.513 31.459 104.335-1.283 147.404.039z" fill="#120325"/><path d="M144.754 3.806C103.774 2.548 48 33.59 20.18 73.14c-27.822 39.55-17.15 72.625 23.828 73.882 40.973 1.258 96.741-29.776 124.563-69.326 27.82-39.551 17.154-72.632-23.817-73.89z" fill="#1E0044"/><path d="M188.725 36.422c.015-.549.01-1.088.005-1.627-.002-.208.006-.42.002-.626l-.006-.31v-.076a35.127 35.127 0 00-.168-2.589l-.031-.293a14.703 14.703 0 00-.095-.797l-.024-.192-.019-.132c-.05-.36-.099-.716-.161-1.07l-.013-.063-.025-.132a31.7 31.7 0 00-.182-.978l-.024-.128a16.942 16.942 0 00-.188-.85l-.081-.37-.031-.124a20.8 20.8 0 00-.286-1.077 19.382 19.382 0 00-.305-1.015l-.075-.236-.051-.15a26.49 26.49 0 00-.274-.809l-.006-.006a8.392 8.392 0 00-.186-.498l-.212-.554-.144-.349a26.086 26.086 0 00-.367-.84l-.175-.374a14.77 14.77 0 00-.336-.709l-.163-.311-.325-.617-.167-.299-.045-.086-.174-.293-.249-.43v-.006l-.057-.087-.192-.311-.025-.044-.175-.274-.156-.237-.124-.198-.181-.268a30.395 30.395 0 00-2.625-3.318 36.313 36.313 0 00-1.82-1.836 35.526 35.526 0 00-.997-.884l-.612-.51c-.348-.287-.71-.567-1.084-.841a37.151 37.151 0 00-7.2-4.158 42.454 42.454 0 00-2.75-1.102 47.449 47.449 0 00-2.918-.951 59.487 59.487 0 00-2.038-.549 56.497 56.497 0 00-4.302-.89 58.433 58.433 0 00-2.262-.336 75.225 75.225 0 00-3.529-.373 88.382 88.382 0 00-3.697-.2 89.314 89.314 0 00-10.897.355h-.006c-2.251.2-4.526.48-6.826.84a93.64 93.64 0 00-2.837.48c-1.963.349-3.937.756-5.923 1.22a97.7 97.7 0 00-2.674.64c-.293.07-.592.15-.884.225-.731.187-1.459.386-2.189.585-.736.2-1.472.41-2.207.63-.673.198-1.352.404-2.026.61l-.187.055h-.013c-.673.212-1.346.43-2.019.654l-.187.056c-.742.236-1.484.485-2.226.74-.523.18-1.048.36-1.571.549-.692.242-1.383.49-2.069.752a152.27 152.27 0 00-5.287 2.042 233.48 233.48 0 00-4.452 1.886 215.36 215.36 0 00-4.457 2.023 221.207 221.207 0 00-3.678 1.787 191.637 191.637 0 00-10.317 5.514c-.917.524-1.826 1.059-2.737 1.595a180.23 180.23 0 00-3.765 2.302 160.605 160.605 0 00-3.435 2.18 214.39 214.39 0 00-5.044 3.397 191.361 191.361 0 00-7.318 5.33 216.727 216.727 0 00-3.966 3.105c-.647.523-1.296 1.052-1.945 1.587a187.842 187.842 0 00-5.691 4.892 175.553 175.553 0 00-12.294 12.107c-.548.597-1.09 1.202-1.627 1.806a144.646 144.646 0 00-10.374 13.034 114.108 114.108 0 00-7.93 12.94 90.553 90.553 0 00-2.668 5.553c-.198.46-.398.915-.585 1.37-.38.908-.738 1.81-1.072 2.707a77.4 77.4 0 00-.948 2.664 75.73 75.73 0 00-.817 2.634 43.899 43.899 0 00-.192 27.17 30.244 30.244 0 001.72 3.896c.262.499.542.99.83 1.475.254.417.516.834.79 1.246l.031.037.088.137c.143.212.287.423.443.629.299.417.61.821.935 1.226l.33.411.15.18c.211.249.423.498.648.741l.068.075c.207.23.418.46.636.684l.05.051.319.316.243.243.311.299c.243.236.493.461.742.684.231.212.474.418.717.623l.255.218c.25.205.505.411.767.61.212.162.418.324.636.48.18.136.368.273.555.404.661.467 1.347.915 2.05 1.338l.294.181.561.323.3.169.15.08c.122.077.25.148.38.212.348.193.703.38 1.065.554l.013.006c.28.138.56.281.848.411l.486.224c.305.137.617.275.928.405l.356.155c.268.113.536.218.81.324.418.161.842.324 1.273.473.392.144.785.274 1.19.404.417.138.842.275 1.272.399.736.218 1.49.423 2.263.616l.137.031c.231.062.462.118.691.169l.4.087c.292.068.591.13.885.192a54.695 54.695 0 003.647.636c.23.037.46.068.692.093a50.65 50.65 0 002.662.305c.437.043.872.074 1.315.112l.325.026c.468.031.94.054 1.42.08l.369.019c.418.019.835.037 1.252.05a95.86 95.86 0 0017.05-1.09c1.423-.212 2.843-.454 4.283-.722 1.44-.268 2.887-.56 4.34-.89a125.49 125.49 0 004.37-1.058 148.328 148.328 0 0011.065-3.331c1.484-.51 2.967-1.038 4.452-1.599a178.449 178.449 0 0015.591-6.717 190.16 190.16 0 008.803-4.563 145.58 145.58 0 002.188-1.219 205.663 205.663 0 004.319-2.527c.723-.423 1.44-.866 2.151-1.308a173.711 173.711 0 004.252-2.695h.006a194.386 194.386 0 004.183-2.807h.006a199.3 199.3 0 008.167-5.92h.006a161.767 161.767 0 003.952-3.106 94.609 94.609 0 001.953-1.587 185.747 185.747 0 005.691-4.893h.006a160.705 160.705 0 0024.287-26.945 114.168 114.168 0 007.93-12.941 88.947 88.947 0 002.668-5.553c.2-.461.4-.916.587-1.37a76.871 76.871 0 002.02-5.372c.292-.89.568-1.767.817-2.633a61.426 61.426 0 001.502-6.435c.403-2.311.643-4.648.717-6.992l.005-.1zm-20.153 41.276c-27.824 39.551-83.587 70.58-124.564 69.323-40.976-1.257-51.65-34.328-23.827-73.88a181.385 181.385 0 0185.445-62.594 113.924 113.924 0 0137.728-6.773c.468.006.936.02 1.403.031a43.042 43.042 0 0117.071 2.791 42.992 42.992 0 0114.586 9.285 32.54 32.54 0 017.281 26.916 80.329 80.329 0 01-15.123 34.901z" fill="#120325"/><path d="M140.526 9.812l-.636-.02-2.331 3.368.598.014c.554.018 1.103.042 1.646.074l2.456-3.361a80.563 80.563 0 00-1.733-.075zm4.42.28l-2.594 3.35c.605.061 1.191.13 1.777.204l2.687-3.342c-.617-.075-1.24-.15-1.87-.213zm4.407.61l-2.817 3.318c.717.13 1.415.267 2.106.423l2.931-3.293a40.06 40.06 0 00-2.22-.448zm-24.712.217l-1.558 3.306c.886-.137 1.777-.268 2.656-.386l1.702-3.33c-.929.125-1.865.261-2.8.41zm-3.902.704l-1.353 3.268c.904-.18 1.808-.35 2.712-.498l1.496-3.299c-.947.161-1.895.336-2.855.53zm-5.979 1.357l-.96 2.957-.081.242.337-.081a85.968 85.968 0 012.294-.553l1.191-3.237c-.923.212-1.85.436-2.781.672zm46.12 1.438l-3.416 3.125c.505.255.997.522 1.477.796l3.492-3.087a38.191 38.191 0 00-1.553-.834zm-50.041-.367l-.517.15-.816 3.142c.966-.285 1.926-.56 2.885-.815l.381-1.24.592-1.941c-.835.225-1.683.455-2.525.704zm52.385 1.674l-3.529 3.062c.499.306.979.617 1.447.94l3.609-3.006a29.545 29.545 0 00-1.527-.996zm3.192 2.247l-3.697 2.945c.462.373.911.759 1.334 1.15l3.772-2.88a30.604 30.604 0 00-1.409-1.215zm-70.215 1.24l-.087 2.88c.954-.397 1.914-.777 2.874-1.15l.243-2.945a155.14 155.14 0 00-3.03 1.214zm-3.353 1.431c-.96.423-1.918.859-2.874 1.306l.23 2.74c.905-.423 1.813-.834 2.725-1.233l-.081-2.813zm79.272 3.666l-3.99 2.62c.318.492.618 1.002.898 1.52l4.033-2.54a25.269 25.269 0 00-.941-1.6zm-83.574-1.687c-.904.43-1.808.866-2.711 1.32l.442 2.639c.854-.43 1.707-.847 2.568-1.258l-.3-2.7zm84.914 4.046l-4.058 2.502c.249.486.474.984.692 1.488l4.089-2.421a28.81 28.81 0 00-.723-1.57zm1.447 3.473l-4.127 2.322c.187.554.356 1.121.511 1.694l4.159-2.235a29.164 29.164 0 00-.543-1.781zm.71 2.46l-4.164 2.196c.137.58.262 1.17.368 1.768l4.183-2.104a25.643 25.643 0 00-.387-1.86zm-103.716-.89c-.972.603-1.945 1.212-2.905 1.835l1.296 2.153a199.99 199.99 0 012.756-1.742L71.9 31.71zm-6.072 3.932c-.748.505-1.496 1.015-2.231 1.538l1.57 1.962a155.37 155.37 0 012.12-1.457l-1.46-2.043zm-5.324 3.742c-.873.64-1.739 1.288-2.599 1.942l1.87 1.749c.816-.623 1.634-1.232 2.462-1.836l-1.733-1.855zm111.64 6.125c-.057.64-.131 1.283-.218 1.93l4.195-1.513c.094-.684.169-1.363.231-2.036l-4.208 1.62zm-.592 4.22c-.1.554-.219 1.108-.343 1.669l4.152-1.302c.136-.591.255-1.176.367-1.755l-4.176 1.388zm-.936 4.034a62.48 62.48 0 01-.647 2.165l4.089-1.051a75.01 75.01 0 00.679-2.284l-4.121 1.17zM45.762 51.492c-.818.753-1.62 1.506-2.42 2.272l2.619 1.108c.76-.722 1.52-1.444 2.294-2.154l-2.493-1.226zm-3.286 3.112c-.785.772-1.56 1.546-2.325 2.322l2.786.946c.724-.741 1.46-1.47 2.201-2.197l-2.662-1.07zm-4.8 4.91c-.691.742-1.371 1.483-2.045 2.236l3.017.697c.636-.71 1.285-1.42 1.94-2.123l-2.912-.81zm127.893 6.892c-.35.679-.711 1.356-1.092 2.041l3.791-.373a82.55 82.55 0 001.146-2.153l-3.845.485zM34.634 62.883a122.59 122.59 0 00-2.095 2.446l3.173.517a150.84 150.84 0 011.988-2.329l-3.066-.634zm129.238 6.647a81.24 81.24 0 01-1.284 2.179l3.69-.199c.462-.766.917-1.532 1.347-2.29l-3.753.31zm-2.879 4.719c-.5.766-1.011 1.532-1.541 2.303l3.517.062a117.72 117.72 0 001.62-2.428l-3.596.063zm-135.218-.026a103.69 103.69 0 00-1.627 2.422l3.603-.055c.5-.766 1.01-1.532 1.54-2.303l-3.516-.064zm-3.31 5.105a75.856 75.856 0 00-1.347 2.29l3.753-.317a89.6 89.6 0 011.285-2.172l-3.692.199zm130.561 5.665a112.68 112.68 0 01-1.984 2.32l3.068.642c.71-.815 1.409-1.632 2.095-2.452l-3.179-.51zm-132.55-2.241a120.74 120.74 0 00-1.146 2.154l3.845-.48c.35-.678.711-1.357 1.092-2.041l-3.79.367zm129.62 5.633c-.637.715-1.285 1.42-1.94 2.122l2.912.816c.691-.74 1.373-1.487 2.044-2.24l-3.016-.698zm-4.29 4.575c-.723.74-1.454 1.471-2.194 2.191l2.662 1.071c.785-.766 1.552-1.538 2.312-2.31l-2.78-.952zm-3.024 3a157.11 157.11 0 01-2.293 2.154l2.499 1.226c.81-.747 1.621-1.513 2.413-2.272l-2.619-1.108zm-128.09-.005c-.25.764-.48 1.53-.687 2.29l4.12-1.17c.2-.722.418-1.444.65-2.173l-4.084 1.053zm-1.31 4.78a45.655 45.655 0 00-.368 1.755l4.177-1.388c.1-.555.219-1.108.343-1.668l-4.152 1.301zm-.76 4.176a37.265 37.265 0 00-.225 2.029l4.201-1.618a35.24 35.24 0 01.22-1.93l-4.196 1.519zm116.352 2.844c-.816.623-1.639 1.235-2.468 1.837l1.732 1.849c.874-.635 1.74-1.28 2.6-1.936l-1.864-1.75zm-5.392 3.935c-.705.492-1.414.978-2.126 1.457l1.459 2.047c.748-.51 1.497-1.027 2.237-1.543l-1.57-1.961zm-5.131 3.448c-.91.585-1.833 1.171-2.756 1.743l1.154 2.235c.972-.597 1.938-1.208 2.899-1.831l-1.297-2.147zm-101.528-.864l-4.183 2.097c.112.629.236 1.251.386 1.861l4.165-2.191a31.836 31.836 0 01-.369-1.767zm.53 2.402l-4.152 2.235c.155.603.337 1.195.536 1.779l4.127-2.321a29.813 29.813 0 01-.511-1.693zm1.197 3.498l-4.09 2.415c.225.536.468 1.058.724 1.568l4.051-2.495a24.727 24.727 0 01-.685-1.488zm83.816 4.084c-.853.423-1.707.84-2.561 1.25l.299 2.702c.904-.429 1.804-.867 2.699-1.313l-.437-2.639zm-82.75-1.874l-4.034 2.539c.294.542.61 1.077.941 1.6l3.99-2.62a23.193 23.193 0 01-.897-1.519zm78.823 3.766c-.903.417-1.811.827-2.724 1.232l.081 2.807c.96-.423 1.92-.859 2.874-1.3l-.23-2.739zm-8.783 3.746l-.244 2.939c1.01-.392 2.02-.797 3.03-1.214l.094-2.882c-.96.398-1.92.784-2.88 1.157zm-65.065-1.133l-3.766 2.883c.449.417.917.822 1.403 1.213l3.69-2.943a26.249 26.249 0 01-1.327-1.153zm2.91 2.342l-3.61 3.005a29.36 29.36 0 001.53.997l3.527-3.057a34.123 34.123 0 01-1.446-.945zm48.751 3.199l-.973 3.186c1.016-.273 2.033-.559 3.049-.858l.816-3.137c-.972.286-1.926.553-2.892.809zm-46.55-1.812l-3.49 3.087c.505.287 1.022.567 1.552.834l3.416-3.124a32.896 32.896 0 01-1.477-.797zm42.598 2.802l-1.19 3.236a115.21 115.21 0 002.774-.678l1.04-3.2c-.879.225-1.751.436-2.624.642zm-5.748 1.151l-1.502 3.299c.94-.162 1.9-.336 2.855-.529l1.352-3.274c-.903.181-1.807.348-2.705.504zm-3.647.548l-1.702 3.33a89.747 89.747 0 002.806-.404l1.552-3.312c-.886.144-1.777.274-2.656.386zm-22.904-.603l-2.93 3.298c.723.162 1.465.311 2.22.448l2.817-3.323a43.31 43.31 0 01-2.106-.423zm4.513.796l-2.686 3.342c.617.082 1.234.15 1.87.212l2.587-3.349a50.619 50.619 0 01-1.771-.205zm5.979.473c-.56-.019-1.11-.037-1.652-.068l-2.456 3.36c.573.031 1.153.057 1.739.076l.63.012 2.331-3.361-.592-.019zM161.963 37.63a28.145 28.145 0 00-11.587-13.39 28.209 28.209 0 00-17.302-3.833 68.76 68.76 0 00-10.722.553 135.622 135.622 0 00-84.97 52.71c-21.34 30.327-13.136 55.792 18.302 56.756 31.426.965 74.348-22.925 95.687-53.257a46.571 46.571 0 0010.592-39.539zm-12.119 39.488c-20.759 29.518-62.54 52.773-93.119 51.833-30.59-.94-38.582-25.72-17.823-55.238 20.55-27.839 51.326-46.395 85.569-51.595a64.787 64.787 0 017.562-.23 28.187 28.187 0 0115.991 3.332 28.136 28.136 0 0111.446 11.638c4.338 10.147 1.439 24.531-9.626 40.26z" fill="#7E40E6"/><path d="M163.094 77.528l-.746-.024-3.485-.106-3.676-.114c-1.728 2.394-3.516 4.793-5.521 7.164l3.365.544 3.175.512.662.107c2.257-2.675 4.279-5.378 6.226-8.083zM147.8 86.643l-.898 1.004 3.196.741 3.016.693.635.144 1.017-1.136-.658-.131-3.064-.645-3.244-.67zm-2.717 3.012l-2.202 2.307 2.932 1.004 2.777.944.599.203 2.502-2.617-.623-.18-2.908-.812-3.077-.849zm-20.395 17.999l-2.765 1.972 1.664 2.055 1.568 1.972.347.431 3.124-2.235-.383-.407-1.736-1.852-1.819-1.936zM119.925 111l-1.412.956-1.425.921 1.365 2.259 1.293 2.151.287.466 1.616-1.04 1.58-1.075-.311-.443-1.461-2.043-1.532-2.152zm20.882-16.97c-.266.256-.51.512-.778.76l2.756 1.168 2.618 1.11.567.24c.298-.282.581-.572.878-.86l-.57-.228-2.663-1.066-2.808-1.123zm-41.221 28.623l-1.28.621.239 2.868.227 2.749.048.598 1.449-.693-.06-.586-.312-2.701-.31-2.856zm-3.853 1.769l-1.496.669-1.509.609-.095 3.036-.084 2.88-.024.634 1.7-.705 1.687-.753-.012-.598-.084-2.808-.083-2.964zM90.01 126.8l-.993.371-.682 6.728 1.125-.418.047-.645.252-2.94.251-3.096zm47.855-29.976a151.214 151.214 0 01-10.858 9.085l1.967 1.846 1.865 1.753.402.377a171.713 171.713 0 0012.281-10.282l-.534-.262-2.495-1.225-2.628-1.292zm-23.377 17.703a148.946 148.946 0 01-12.483 6.956l.462 2.775.44 2.638.096.578c4.769-2.37 9.49-4.997 14.098-7.863l-.252-.492-1.152-2.241-1.209-2.351z" fill="#7E40E6"/><path d="M89.02 127.177c-2.994 1.161-5.968 2.11-8.918 3.017l-.857 3.299-.815 3.138-.179.686c3.331-1.02 6.7-2.102 10.084-3.412l.684-6.728zm-11.642 3.772c-.416.113-.835.238-1.25.329l-1.102 3.375-1.042 3.202-.225.69c.46-.103.936-.248 1.416-.379l.206-.677.971-3.182 1.026-3.358zm-3.722.926c-.97.247-1.903.399-2.86.606l-1.434 3.462-1.355 3.272-.287.69c1.081-.23 2.143-.413 3.237-.691l.253-.686 1.19-3.237 1.256-3.416zm-24.52 1.963l-2.748 3.553-2.59 3.351-.542.7c.874.116 1.804.151 2.724.2l.506-.692 2.453-3.361 2.603-3.566c-.81-.045-1.634-.077-2.406-.185zm-3.939-.543l-2.987 3.52-2.815 3.319-.588.692c.852.138 1.68.309 2.56.404l.566-.702 2.683-3.34 2.842-3.533c-.78-.086-1.505-.24-2.261-.36zm23.055-.352l-.945.167-1.64 3.502-1.556 3.299-.324.693 1.054-.168.311-.693 1.496-3.298 1.604-3.502zm-35.492-4.111l-3.71 3.215-3.531 3.059-.766.67.814.454.742-.646 3.495-3.095 3.686-3.251-.73-.406zm-2.834-2.021l-3.9 3.106-3.698 2.942-.791.631c.536.456 1.1.878 1.688 1.265l.771-.643 3.61-3.009 3.81-3.173a14.13 14.13 0 01-1.49-1.119zm-1.699-1.505l-3.998 3.012-3.794 2.856-.826.622.502.466.814-.621 3.77-2.881 3.963-3.023-.431-.431zm36.58 8.162a71.35 71.35 0 01-11.144.641l-2.475 3.567-2.336 3.365-.488.703a81.915 81.915 0 0012.58-.723l.357-.697 1.702-3.33 1.804-3.526zm-29.936-3.47l-3.59 3.291-3.412 3.127-.738.677a41.168 41.168 0 009.43 3.283l.614-.691 2.93-3.296 3.106-3.495a35.898 35.898 0 01-8.34-2.896z" fill="#7E40E6"/><path d="M24.797 121.156l-4.182 2.747-3.988 2.617-.876.575a26.631 26.631 0 003.86 4.701l.822-.618 3.793-2.858 3.998-3.01a23.811 23.811 0 01-3.427-4.154zm-1.194-2.122l-4.265 2.628-4.054 2.499-.883.544c.114.267.246.526.396.774l.886-.557 4.035-2.536 4.233-2.662a7.21 7.21 0 01-.348-.69zm-1.303-3.098l-4.332 2.438-4.13 2.319-.91.513.719 1.925.91-.538 4.093-2.414 4.285-2.534-.634-1.709zm-.718-16.301l-4.393 1.47-4.177 1.386-.898.299-.419 2.45.934-.335 4.19-1.518 4.392-1.589.371-2.163zm.889-3.797l-4.342 1.234-4.122 1.172-.888.253c-.267.858-.426 1.677-.63 2.517l.894-.28 4.152-1.298 4.382-1.37c.177-.743.314-1.466.554-2.228zm-.806 17.899l-4.368 2.307-4.166 2.187-.921.49.179.681.91-.49 4.153-2.235 4.381-2.342-.168-.598zm7.182-32.77l-3.973.334-3.759.311-.778.072-.658 1.147.802-.072 3.782-.382 4.01-.383.574-1.027zm2.706-4.447l-3.807.072-3.59.06-.779.012-1.687 2.701.778-.036 3.686-.203 3.902-.203 1.497-2.402zm2.013-2.963l-3.675-.12-3.495-.107-.742-.024-.61.908.73.012 3.519.06 3.722.06.55-.79zm-12.545 30.061l-4.42 1.702-4.204 1.619-.91.351a36.569 36.569 0 00.34 9.539l.915-.457 4.183-2.1 4.403-2.21a32.69 32.69 0 01-.307-8.444zm6.229-19.707l-4.071.513-3.847.484-.803.102a74.114 74.114 0 00-4.73 11.172l.892-.23 4.085-1.05 4.29-1.105a66.554 66.554 0 014.184-9.886z" fill="#7E40E6"/><path d="M31.877 65.224c-2.255 2.675-4.278 5.378-6.225 8.084l.745.023 3.487.106 3.675.114c1.733-2.401 3.52-4.799 5.52-7.164l-3.364-.544-3.175-.512-.663-.107zm3.121-3.618l-1.017 1.135.646.143 3.077.634 3.231.67.91-1.005-3.196-.729-3.016-.705-.635-.143zm4.564-4.889l-2.502 2.618.622.179 2.909.813 3.064.86 2.214-2.318-2.932-.992-2.777-.957-.598-.203zm23.685-19.971l-3.124 2.235.383.407 1.736 1.852 1.819 1.936 2.765-1.972-1.652-2.067-1.58-1.96-.347-.43zm5.472-3.669l-1.616 1.04-1.592 1.088.323.442 1.46 2.044 1.533 2.139 1.4-.944 1.436-.92-1.364-2.271-1.305-2.14-.275-.478zM42.777 53.528c-.298.282-.58.57-.865.853l.565.226 2.663 1.067 2.804 1.123c.262-.248.507-.504.78-.758l-2.758-1.166-2.622-1.106-.567-.24zm47.151-32.174l-1.448.68.06.586.311 2.701.311 2.857 1.281-.61-.24-2.88-.227-2.737-.048-.598zm6.294-2.761l-1.7.693-1.687.753.012.61.084 2.808.083 2.952 1.496-.67 1.509-.61.095-3.035.084-2.88.024-.621zm4.191-1.663l-1.125.42-.047.645-.252 2.94-.251 3.095.993-.37.311-3.12.3-2.976.071-.633zM57.507 40.95A171.966 171.966 0 0045.23 51.225l.534.263 2.492 1.229 2.626 1.294a151.689 151.689 0 0110.862-9.091l-1.968-1.843-1.868-1.751-.402-.376zm28.235-17.589a170.965 170.965 0 00-14.094 7.856l.254.494 1.15 2.244 1.205 2.353a148.675 148.675 0 0112.483-6.956l-.461-2.774-.441-2.64-.096-.577z" fill="#7E40E6"/><path d="M110.505 13.518c-3.338 1.02-6.695 2.095-10.09 3.412l-.066.64-.302 2.964-.317 3.124c2.998-1.168 5.966-2.11 8.916-3.017l.861-3.3.82-3.14.178-.683zm4.482-1.228c-.461.104-.936.248-1.411.372l-.209.684-.974 3.183-1.026 3.357c.417-.113.839-.245 1.256-.336l1.096-3.368 1.043-3.2.225-.691zm6.04-1.36c-1.081.23-2.143.413-3.232.684l-.255.693-1.191 3.237-1.253 3.41c.966-.24 1.903-.4 2.86-.605l1.43-3.457 1.355-3.272.286-.69zm21.744-1.745l-.509.7-2.454 3.361-2.603 3.566c.808.045 1.633.077 2.41.178l2.743-3.547 2.592-3.35.539-.7c-.872-.116-1.802-.151-2.718-.208zm4.611.42l-.564.702-2.686 3.34-2.836 3.526c.781.086 1.5.247 2.261.36l2.981-3.513 2.818-3.32.585-.691c-.851-.137-1.679-.308-2.559-.404zm-22.42.621l-1.054.18-.311.68-1.496 3.3-1.592 3.49.922-.144 1.651-3.502 1.556-3.31.324-.694zm38.209 4.374l-.73.658-3.495 3.084-3.687 3.25.73.407 3.711-3.215 3.531-3.06.766-.657-.826-.466zm2.358 1.473l-.776.647-3.61 3.01-3.809 3.174c.52.341 1.018.715 1.489 1.12l3.901-3.107 3.697-2.945.797-.634c-.551-.433-1.085-.879-1.689-1.265zm3.11 2.496l-.814.621-3.77 2.88-3.962 3.036.431.418 8.606-6.49-.491-.465zm-28.253-9.484a80.917 80.917 0 00-12.583.73l-.357.697-1.704 3.33-1.803 3.525a72.187 72.187 0 0111.156-.647l2.467-3.56 2.333-3.366.491-.709zm11.798 1.375l-.613.69-2.93 3.296-3.1 3.488a35.877 35.877 0 018.333 2.903l3.592-3.291 3.412-3.128.738-.675a40.366 40.366 0 00-9.432-3.283zm16.954 8.58l-8.613 6.486a23.33 23.33 0 013.427 4.151l4.183-2.747 3.989-2.62.879-.577a26.993 26.993 0 00-3.865-4.693zm4.818 6.309l-.889.559-4.036 2.54-4.234 2.662c.138.213.231.458.352.684l4.26-2.624 4.056-2.5.887-.547a7.547 7.547 0 00-.396-.774zm1.148 2.351l-.922.537-4.082 2.426-4.297 2.534.647 1.697 4.333-2.438 4.129-2.319.91-.514-.718-1.924zm1.948 17.89l-.934.335-4.189 1.518-4.393 1.59-.371 2.163 4.393-1.459 4.165-1.398.91-.299.419-2.45zm-.795 4.231l-.889.279-4.155 1.299-4.382 1.37c-.178.743-.313 1.466-.555 2.228l4.344-1.234 4.122-1.173.887-.252c.266-.858.431-1.684.628-2.517zm.101-18.381l-.91.49-4.165 2.223-4.369 2.343.167.597 4.369-2.294 4.166-2.2.921-.49-.179-.669zM169.069 68l-.802.07-3.782.371-4.01.395-.586 1.028 3.986-.335 3.746-.31.79-.06.658-1.16zm-2.007 3.466l-.778.047-3.686.192-3.902.215-1.497 2.39 3.795-.06 3.603-.06.766-.012 1.699-2.712zm-3.356 5.162l-.742-.012-3.519-.071-3.723-.06-.538.8 3.674.108 3.484.108.754.024.61-.897zm13.211-42.622l-.91.456-4.187 2.101-4.403 2.21c.467 2.79.571 5.628.307 8.444l4.422-1.706 4.205-1.62.912-.353a36.455 36.455 0 00-.346-9.532zm-1.967 20.641l-.893.23-4.087 1.054-4.291 1.107a66.421 66.421 0 01-4.178 9.879l4.07-.512 3.847-.485.804-.1a74.586 74.586 0 004.728-11.173zm-44.604-29.491c-.037-.168-.206-.256-.431-.268l-.086.006a1.543 1.543 0 00-.829.324L58.255 78.352c-.211.15-.38.35-.492.584a.387.387 0 00.074.467l21.085 17.454a.55.55 0 00.305.093c.142.002.283-.02.417-.068l44.238-15.45c.261-.098.501-.249.703-.442.173-.156.291-.363.338-.591l5.429-55.144-.006-.099zm-3.697 3.243l-24.276 34.51-40.378 14.035 64.654-48.545zm-66.3 50.4L101.178 64.6 79.844 94.927 60.35 78.8zm21.06 16.178l21.339-30.332 19.55 16.059-40.89 14.273zm41.861-16.146l-19.325-15.88 24.281-34.515-4.956 50.395z" fill="#7E40E6"/><path d="M120.884 85.168a1.23 1.23 0 00-.425.074l-43.738 15.275-20.865-17.26a.488.488 0 00-.3-.094c-.28.008-.551.094-.785.249a1.242 1.242 0 00-.685.952l3.958 41.805c.013.192.163.311.406.317.295-.01.581-.108.822-.28l61.369-39.8c.424-.28.698-.672.648-.953-.026-.18-.181-.28-.405-.285zM56.23 86.255L75.013 101.8l-15.261 21.693-3.522-37.236zm5.086 37.292l15.261-21.699 39.393-13.757-54.654 35.456z" fill="#7E40E6"/></svg>