<svg width="94" height="54" fill="none" xmlns="http://www.w3.org/2000/svg"><path d="M93.586 30.16l-1.991 10.332c-1.242 6.444-9.957 11.31-24.387 12.39C44.77 54.56 17.003 46.444 5.19 34.755A13.534 13.534 0 01.05 22.94l1.99-10.33a13.535 13.535 0 005.142 11.815c11.812 11.69 39.58 19.804 62.017 18.126 14.43-1.08 23.145-5.945 24.387-12.39z" fill="#1E0044"/><path d="M26.424.22c22.443-1.68 50.209 6.435 62.023 18.125C100.258 30.035 91.64 40.871 69.2 42.55c-22.438 1.678-50.206-6.437-62.018-18.126C-4.631 12.734 3.987 1.898 26.424.22z" fill="#120325"/><path d="M75.944 19.28C67.778 11.2 48.516 5.57 33.007 6.73c-15.512 1.16-21.489 8.678-13.323 16.76 8.165 8.08 27.428 13.71 42.94 12.549 15.509-1.16 21.485-8.678 13.32-16.758z" fill="#1E0044"/><path d="M92.44 23.59l-.177-.333c-.115-.211-.237-.42-.361-.634-.219-.36-.458-.722-.719-1.085-.125-.18-.257-.364-.396-.544a22.517 22.517 0 00-1.69-1.982 31.392 31.392 0 00-.648-.666h-.004a40.159 40.159 0 00-6.646-5.208A97.217 97.217 0 0038.456.198 98.927 98.927 0 0036.44.091 94.503 94.503 0 0034.46.02a98.316 98.316 0 00-3.477-.007l-.164.004c-.957.017-1.912.052-2.856.1l-.128.007c-.469.028-.94.06-1.406.094a63.55 63.55 0 00-7.441.98C4.957 3.973-1.141 11.199 3.367 19.516c.23.422.49.852.774 1.282l.007.01a21.727 21.727 0 002.075 2.623c.202.222.41.44.629.663l.33.332a32.314 32.314 0 001.908 1.74 40.753 40.753 0 003.374 2.564l.003.004c.445.301.896.6 1.361.897l.004.004a61.712 61.712 0 005.227 2.97l.003.003a102.164 102.164 0 0037.091 9.89c4.343.343 8.705.36 13.05.052l.066-.006a66.185 66.185 0 005.07-.572l.4-.063c.18-.027.357-.059.534-.09a48.8 48.8 0 001.371-.25c.212-.04.42-.086.628-.128l.077-.017c.173-.035.347-.073.517-.11h.004l.33-.077c.482-.111.954-.229 1.415-.35h.007c.379-.104.747-.208 1.111-.312h.007c10.918-3.233 15.43-9.665 11.7-16.984zm-2.888 9.873l-.02.024-.057.073a28.546 28.546 0 01-19.37 7.756c-.642.066-1.3.124-1.97.173a64.77 64.77 0 01-2.014.125c-20.939.987-46.035-6.585-56.906-17.342C-.562 14.597 4.391 5.538 19.922 2.308A60.008 60.008 0 0127.5 1.276c.33-.024.666-.045 1-.066C49.632-.076 75.367 7.565 86.415 18.499c5.567 5.506 6.358 10.816 3.137 14.964z" fill="#120325"/><path d="M86.414 18.499C75.367 7.565 49.631-.076 28.498 1.209c-.333.022-.67.043-1 .067a60.005 60.005 0 00-7.576 1.032C4.39 5.538-.562 14.598 9.215 24.272c10.87 10.757 35.967 18.33 56.906 17.342a63.301 63.301 0 002.013-.125 67.32 67.32 0 001.971-.173 28.546 28.546 0 0019.37-7.756l.056-.073.02-.024c3.221-4.148 2.43-9.457-3.137-14.964zm-2.274 4.855l.219.496c.145.322.269.653.372.991l-2.832-.267a8.475 8.475 0 00-.337-.911l-.208-.458c-.073-.152-.167-.308-.247-.46l2.766.114c.087.162.188.329.267.495zm-3.332-4.435c.448.468.913.935 1.299 1.41l-2.631.08c-.35-.437-.785-.87-1.198-1.303l-.156-.143 2.52-.2.166.156zm-4.91-3.91l.697.468.666.475c.452.315.861.638 1.267.96l-2.356.343c-.379-.298-.753-.596-1.17-.887l-.614-.44-.646-.43 2.156-.488zm-6.553-3.618a58.55 58.55 0 013.366 1.698l-1.905.638a53.877 53.877 0 00-3.113-1.566l1.652-.77zm-7.736-3.046l.312.104c.937.32 1.867.642 2.77.988l-1.291.918a70.159 70.159 0 00-2.558-.914l-.292-.094 1.059-1.002zM53.563 6.12c1.413.326 2.819.67 4.2 1.058l-.764 1.087a88.353 88.353 0 00-3.88-.976l.444-1.169zm-4.525-.893l-.094 1.24a82.832 82.832 0 00-3.967-.582l-.236-1.286c1.43.18 2.864.378 4.297.628zM36.443 4.034c.96.004 1.943.052 2.93.098l.648 1.323c-.906-.041-1.815-.087-2.707-.09l-.296-.007-.902-1.33.327.006zm-6.032.167c.641-.038 1.28-.083 1.925-.115l1.195 1.328c-.6.028-1.195.069-1.788.103-.573.056-1.162.098-1.728.163L28.54 4.375c.61-.07 1.245-.114 1.87-.173zm-5.606.72l1.76 1.265a35.31 35.31 0 00-2.985.683l-2.006-1.206a39.359 39.359 0 013.23-.742zM16.28 7.736c.528-.298 1.124-.565 1.718-.832l2.29 1.109c-.555.246-1.103.492-1.589.769l-.17.09-2.43-1.04.181-.096zM14.154 9.09l2.582.942c-.537.415-1.036.878-1.489 1.383l-2.707-.828a11.996 11.996 0 011.614-1.497zm-3.204 4.096c.104-.291.247-.58.382-.87l2.794.697c-.125.266-.254.533-.35.803a6.36 6.36 0 00-.24.829l-2.843-.562a5.96 5.96 0 01.257-.897zm-.09 4.636a9.864 9.864 0 01-.277-1.372l2.855.378c.052.429.138.853.258 1.268l.048.146-2.828-.264-.056-.155zm1.464 3.03l-.329-.503-.274-.5 2.769.119.254.46.302.461c.205.32.426.629.663.926l-2.666.038c-.25-.336-.518-.669-.719-1.002zm4.849 5.062a29.548 29.548 0 01-2.242-1.957l2.523-.198c.658.64 1.35 1.243 2.072 1.808l-2.353.347zM23 29.72l-.256-.138-1.104-.63c-.364-.212-.708-.43-1.055-.646l2.086-.53c.326.198.639.399.975.596l1.02.582.233.129L23 29.72zm6.814 3.178c-.622-.253-1.253-.502-1.85-.769l-.906-.395-.882-.41 1.656-.761.815.377.833.364c.555.246 1.139.475 1.715.71l-1.381.884zm8.177 2.73c-.688-.193-1.378-.384-2.051-.595a65.752 65.752 0 01-2.02-.641l1.065-.998c.61.2 1.228.405 1.86.589.629.197 1.264.374 1.906.554l-.76 1.092zm8.704 1.931l-.337-.058-.76-.132-.756-.146c-.51-.1-1.017-.19-1.52-.301l.346-1.193c.465.104.93.187 1.399.281l.705.135.701.121.312.052-.09 1.241zm6.199.825c-.712-.073-1.427-.145-2.141-.232l-.223-1.286c.656.08 1.316.149 1.975.215.65.052 1.312.125 1.957.163l.549 1.313c-.698-.038-1.409-.114-2.117-.173zm8.534.353c-.67 0-1.333.021-2.02.004l-.892-1.33c.636.016 1.243-.004 1.868-.004.618-.008 1.218-.038 1.828-.055l1.198 1.326c-.66.018-1.308.052-1.982.06zm1.625-2.276C47.09 37.656 27.269 31.862 18.87 23.548 10.468 15.235 16.618 7.5 32.58 6.308c15.958-1.196 35.776 4.598 44.178 12.912 8.403 8.313 2.253 16.048-13.705 17.24zm7.59 1.417l-.604.111-.618.097c-.42.059-.826.132-1.26.18l-1.558-1.292c.406-.046.777-.115 1.163-.167l.576-.09.552-.104.25-.045 1.766 1.261-.267.049zm4.81-1.192c-.496.15-.975.308-1.496.447l-2.002-1.21c.48-.125.92-.273 1.378-.412.43-.152.878-.298 1.288-.461l2.228 1.133c-.448.177-.93.333-1.395.503zm5.102-2.363c-.36.214-.687.443-1.083.644l-2.432-1.04c.37-.183.67-.398 1.002-.596.316-.208.612-.422.9-.637l2.589.939a24.73 24.73 0 01-.976.69zm3.693-3.782l-.35.597-.417.575-2.734-.79.385-.534.319-.55.076-.122 2.797.69-.076.134zm.82-2.72c-.022.31-.07.617-.143.919l-2.842-.562c.065-.28.108-.565.128-.852.01-.143.03-.284.03-.43l-.009-.437 2.86.423.013.475c-.003.156-.027.308-.038.464z" fill="#1E0044"/><path d="M76.757 19.22C68.355 10.906 48.537 5.112 32.58 6.308 16.618 7.5 10.467 15.235 18.87 23.548c8.4 8.314 28.22 14.108 44.182 12.913 15.958-1.193 22.108-8.928 13.706-17.24zM62.624 36.038c-15.514 1.16-34.776-4.467-42.94-12.549-8.166-8.08-2.19-15.597 13.322-16.759 15.51-1.16 34.772 4.471 42.935 12.553 8.167 8.077 2.19 15.597-13.317 16.755zm18.184-17.121l-2.53.19c.414.433.848.866 1.199 1.303l2.63-.083c-.386-.472-.849-.942-1.299-1.41z" fill="#7E40E6"/><path d="M81.526 29.714l-.073.127 2.792.698.08-.133-2.8-.692zm-.418-6.97c.08.154.174.309.246.46l.206.459c.132.296.245.6.339.911l2.833.266a8.833 8.833 0 00-.373-.989l-.218-.496c-.082-.165-.18-.332-.268-.498l-2.765-.113zm1.121 3.715l.013.438c-.002.145-.02.286-.032.43-.02.286-.064.57-.13.85l2.844.563a5.53 5.53 0 00.142-.918c.01-.156.033-.31.037-.465l-.011-.475-2.863-.423z" fill="#7E40E6"/><path d="M81.453 29.84l-.32.547-.386.538 2.732.786.42-.573.346-.598-2.792-.7zm-12.31 6.728l-.253.046 1.753 1.265.266-.047-1.766-1.264zm9.799-3.874c-.289.216-.583.43-.899.637-.334.199-.633.411-1.003.595l2.434 1.04c.395-.199.72-.43 1.082-.643.34-.224.66-.457.975-.69l-2.59-.94zM74.62 35.05c-.409.163-.857.307-1.286.463-.46.136-.898.286-1.379.41l2.004 1.208c.518-.137.997-.298 1.496-.446.464-.167.946-.324 1.393-.501l-2.228-1.135z" fill="#7E40E6"/><path d="M68.894 36.615l-.552.102-.576.089c-.386.053-.758.122-1.16.166l1.557 1.294c.433-.047.839-.12 1.258-.18l.62-.096.603-.11-1.75-1.265zm-22.421-.346l-.113 1.23.333.06.094-1.237-.314-.053zm12.041 1.141l.892 1.33c.687.018 1.35-.003 2.022-.004.673-.007 1.321-.04 1.982-.058l-1.198-1.326c-.612.017-1.21.047-1.829.055-.625 0-1.234.02-1.87.002zm-7.985-.542l.223 1.284c.713.086 1.428.16 2.14.234.708.057 1.421.133 2.119.173l-.55-1.315c-.644-.038-1.307-.11-1.957-.161-.658-.068-1.318-.137-1.975-.215z" fill="#7E40E6"/><path d="M43.67 35.73l-.346 1.19c.503.113 1.01.202 1.517.304l.758.145.762.132.112-1.235-.701-.122-.702-.134c-.468-.094-.937-.176-1.4-.28zm-19.004-6.774l-1.922.627.258.138 1.897-.64-.233-.125zm10.319 4.438l-1.065.997c.667.221 1.334.438 2.02.64.674.212 1.364.404 2.053.597l.758-1.092a59.758 59.758 0 01-1.903-.552 60.356 60.356 0 01-1.863-.59zm-7.153-2.831l-1.655.763.882.41.906.394c.596.267 1.228.515 1.85.767l1.38-.883c-.575-.234-1.16-.463-1.712-.71l-.836-.364-.814-.377z" fill="#7E40E6"/><path d="M22.67 27.775l-2.086.53c.35.214.69.435 1.056.645l1.103.633 1.923-.627-1.018-.584c-.34-.196-.65-.398-.977-.597zm-11.809-9.951l.053.153 2.832.266-.053-.146-2.832-.273zm6.593 5.936l-2.523.197c.715.69 1.463 1.344 2.243 1.96l2.353-.347a26.494 26.494 0 01-2.073-1.81zm-5.731-3.908l.274.497.327.503c.203.332.47.667.72 1.001l2.665-.038a11.086 11.086 0 01-.664-.925l-.3-.462-.253-.46-2.769-.116z" fill="#7E40E6"/><path d="M10.584 16.451c.059.464.152.923.278 1.373l2.833.274a8.191 8.191 0 01-.255-1.268l-2.856-.378zm5.696-8.714l-.18.093 2.432 1.038.167-.086-2.42-1.045zm-4.95 4.581c-.133.289-.276.576-.381.87a6.078 6.078 0 00-.257.897l2.844.56c.06-.28.14-.557.237-.827.099-.272.228-.538.353-.803l-2.796-.697zm2.824-3.227c-.584.448-1.124.95-1.614 1.498l2.705.828c.453-.505.951-.969 1.489-1.384l-2.58-.942z" fill="#7E40E6"/><path d="M18 6.902c-.595.268-1.19.536-1.718.834L18.7 8.783c.488-.277 1.036-.525 1.589-.77l-2.29-1.11zm18.117-2.878l.9 1.338h.293l-.866-1.33-.327-.008zm-11.313.899a38.56 38.56 0 00-3.231.741l2.008 1.204a36.716 36.716 0 012.984-.682l-1.76-1.263zm5.606-.721c-.623.057-1.26.104-1.87.172l1.475 1.306c.564-.065 1.155-.107 1.729-.162.594-.034 1.184-.076 1.786-.105l-1.192-1.327c-.648.032-1.284.076-1.928.116z" fill="#7E40E6"/><path d="M36.442 4.034l.872 1.33c.89.005 1.8.05 2.708.09l-.65-1.324c-.984-.043-1.968-.09-2.93-.096zm25.164 4.309l-1.053 1.004.287.094 1.08-.992-.314-.106zM44.743 4.599l.235 1.287a81.35 81.35 0 013.968.58l.095-1.238a90.18 90.18 0 00-4.298-.63zm8.82 1.52l-.442 1.17c1.305.302 2.604.619 3.88.978l.763-1.09a91.132 91.132 0 00-4.2-1.058z" fill="#7E40E6"/><path d="M61.922 8.448l-1.082.993c.863.293 1.727.592 2.559.913l1.29-.918c-.9-.347-1.831-.669-2.767-.988zm18.724 10.314l-2.519.2.153.146 2.526-.193-.16-.153zm-11.3-7.369l-1.651.766c1.09.5 2.11 1.03 3.11 1.568l1.906-.636a56.43 56.43 0 00-3.365-1.698zm6.551 3.617l-2.156.487.648.431.614.44c.415.29.79.588 1.17.886l2.356-.343a25.957 25.957 0 00-1.267-.958l-.666-.476-.7-.467zm-2.488 13.11a10.005 10.005 0 00-5.175-4.02 26.62 26.62 0 00-10.895-2.073 5.985 5.985 0 01-2.475-.468l-.27-.114c-.799-.346-1.274-.818-1.236-1.223.035-.378.5-.66 1.246-.749 3.273-.392 5.318-1.621 5.473-3.292.254-2.793-4.792-5.975-11.245-7.094a24.33 24.33 0 00-5.893-.332c-3.585.266-6.101 1.497-6.272 3.368-.152 1.688 1.639 3.593 4.794 5.098.66.315 1.034.717 1.003 1.074l-.021.218c-.035.384-.542.655-1.326.714l-.156.014a5.782 5.782 0 01-2.384-.388 26.348 26.348 0 00-10.95-1.72 7.651 7.651 0 00-5.905 2.375c-.819 1.31-.222 2.876 1.688 4.411a23.96 23.96 0 0013.743 4.069c.473-.008.927-.025 1.364-.056 3.401-.256 5.727-1.351 6.196-2.97.104-.38.631-.644 1.398-.703l.288-.021a5.963 5.963 0 012.648.46c.74.32 1.198.743 1.233 1.134.145 1.723 2.183 3.594 5.456 5.01a26.37 26.37 0 0011.717 2.025 11.363 11.363 0 004.435-1.11c1.673-.9 2.212-2.192 1.52-3.637zm-2.267 3.316a10.467 10.467 0 01-4.099 1.026 24.343 24.343 0 01-10.835-1.875c-3.027-1.307-4.915-3.043-5.047-4.63-.048-.524-.659-1.085-1.641-1.511a7.969 7.969 0 00-3.53-.613l-.288.02c-1.024.077-1.722.423-1.868.926-.43 1.497-2.578 2.509-5.723 2.744-.405.032-.832.049-1.27.052a22.149 22.149 0 01-12.706-3.76c-1.764-1.42-2.315-2.869-1.558-4.079a7.068 7.068 0 015.459-2.193 24.33 24.33 0 0110.127 1.587 7.767 7.767 0 003.208.516l.156-.013c1.062-.077 1.752-.45 1.797-.968l.021-.218c.042-.485-.465-1.029-1.367-1.458-2.912-1.39-4.571-3.151-4.429-4.714.157-1.733 2.482-2.869 5.803-3.115a22.467 22.467 0 015.442.309c5.97 1.032 10.638 3.978 10.402 6.556-.139 1.55-2.03 2.686-5.06 3.05-.99.117-1.61.488-1.66.99-.048.548.587 1.172 1.65 1.633l.27.118a7.987 7.987 0 003.29.62 24.666 24.666 0 0110.075 1.916 9.283 9.283 0 014.79 3.719c.639 1.337.139 2.53-1.409 3.365z" fill="#7E40E6"/></svg>