<svg width="1920" height="371" fill="none" xmlns="http://www.w3.org/2000/svg"><path opacity=".5" d="M-58.239 323.735s222.822-71.24 478.498-77.674c255.677-6.435 158.726 373.279 322.66 541.246C906.852 955.275 1352.89 18.671 1561.93 22.11c209.05 3.439 64.85 902.963 411.95 977.094 347.11 74.136 593.11-402.98 593.11-402.98M-58.46 321.153s224.555-66.186 477.059-71.697c252.503-5.511 162.195 360.623 323.917 525.529C904.237 939.891 1341.23 26.83 1547.8 31.783c206.58 4.952 70.46 884.919 419.92 956.246 349.47 71.331 593.03-388.666 598.9-388.522M-57.39 318.459s225.588-61.723 475.029-65.018c249.441-3.296 165.075 348.668 325.174 509.812S1330.16 34.288 1534.37 42.046c204.22 7.757 76.07 866.876 427.2 934.807 351.12 67.927 593.54-375.053 604.68-374.062M-57.61 315.877s226.729-55.968 473.588-59.042c246.859-3.073 168.546 336.013 327.133 494.686S1318.5 42.447 1520.94 52.309c202.45 9.86 80.98 848.242 435.76 913.257 354.78 65.014 592.88-360.037 609.18-359.491M-57.83 313.294s228.461-50.914 471.557-52.362c243.096-1.448 171.426 324.058 328.39 478.968C899.082 894.81 1306.25 51.308 1506.92 63.273c200.68 11.965 86.59 830.199 443.73 892.409 357.14 62.208 592.8-345.722 614.38-344.331M-57.461 310.011s228.903-45.75 469.527-45.684c240.624.066 175.597 311.992 329.058 463.952C895.175 879.539 1293.3 59.579 1492.2 73.647c198.9 14.069 92.2 812.156 451 870.971 358.8 58.812 592.72-331.408 620.17-329.872M-57.682 307.428s230.636-40.696 468.088-39.706c237.451.989 178.476 300.037 330.315 448.235C892.559 864.156 1281.54 66.447 1478.07 83.32c196.54 16.874 97.81 794.112 458.97 850.122 361.17 56.01 593.35-316.503 625.37-314.711M-57.903 304.846s232.369-35.643 466.057-33.028c233.689 2.615 181.947 287.381 331.573 432.518C889.353 849.474 1269.29 75.306 1463.35 93.694c194.07 18.388 103.31 774.778 466.24 828.684 362.94 53.906 593.27-302.189 631.16-300.252M-58.124 302.263s232.811-30.478 464.618-27.05c231.807 3.427 184.826 275.426 332.83 416.801S1256.93 82.876 1449.22 103.367c192.3 20.492 108.92 756.734 474.81 807.134 365.88 50.4 593.19-287.874 636.35-285.092M-57.754 298.98s234.543-25.425 462.587-20.372c228.044 5.053 188.297 262.77 334.789 401.674C886.113 819.186 1245.86 90.334 1436.49 114.22c189.94 23.297 114.53 738.69 482.78 786.285 368.25 47.595 593.12-273.559 642.14-270.632M-57.975 296.397s235.686-19.669 460.557-13.693c224.872 5.977 191.177 250.816 335.456 386.658C882.317 805.205 1233.02 99.895 1421.18 125.295c188.17 25.401 120.14 720.647 490.05 764.847 369.91 44.2 593.04-259.245 647.23-256.763M-57.495 294.405s236.717-15.206 459.117-7.716c222.4 7.49 194.647 238.16 336.713 370.941 142.067 132.782 483.025-549.576 669.415-522.072 186.4 27.504 125.75 702.604 498.02 743.999 372.27 41.394 592.97-244.931 652.43-241.603M-57.125 291.121s238.45-10.152 457.086-1.037c218.637 9.116 197.527 226.205 337.971 355.224C878.376 774.328 1209 115.623 1393.62 145.231c184.62 29.608 130.66 683.97 506 723.15 375.33 39.18 592.88-230.616 658.21-227.143M-57.346 288.539s239.592-4.398 455.647 4.94c215.464 10.039 201.697 214.139 339.228 339.507 138.232 125.959 460.401-509.905 641.371-477.38 180.97 32.524 136.27 665.926 513.86 701.01 377.58 35.083 593.51-215.712 663.41-211.983M-57.566 285.956s240.623.066 453.616 11.619c212.291 10.963 204.577 202.184 341.186 324.38 136.61 122.197 448.444-490.013 628.344-454.795 179.9 35.218 141.89 647.883 521.83 680.161 379.95 32.279 593.43-201.397 669.2-197.523M-57.197 282.673s241.766 5.82 451.586 18.297c209.819 12.477 207.457 190.229 341.854 309.364 134.396 119.136 436.497-470.122 614.617-432.8 178.13 37.322 147.5 629.839 529.1 658.723 381.61 28.883 593.36-187.082 674.4-182.363M-57.418 280.09s243.499 10.874 450.146 24.275c206.647 13.401 210.928 177.573 343.112 293.648 132.184 116.074 425.24-449.642 600.89-410.806 175.66 38.835 152.41 611.206 537.07 637.874 384.67 26.669 593.28-172.767 680.19-167.904M-57.639 277.508s245.232 15.927 448.116 30.953c203.474 14.325 213.808 165.619 344.369 277.931C865.408 698.703 1148.72 155.94 1322.01 197.581c173.29 41.641 158.02 593.163 545.04 617.026 387.03 23.863 593.21-158.453 685.98-153.445M-57.86 274.926s245.674 21.092 446.676 36.93c200.412 16.54 217.278 152.963 345.627 262.214 128.349 109.25 401.917-410.56 573.437-366.816 171.52 43.744 163.63 575.119 552.32 595.588 388.69 20.468 593.12-144.139 690.47-138.875M-57.49 271.642s247.406 26.146 444.646 43.609c197.239 17.464 220.157 141.008 347.585 247.086 126.136 106.19 390.659-390.078 559.709-344.82 169.05 45.258 169.24 557.075 560.88 574.038 391.64 16.962 593.05-129.825 696.26-124.415M-57.01 269.649s248.548 31.901 442.615 50.289 223.628 128.351 348.252 232.07C858.371 654.435 1112.56 181.82 1280.54 229.772c167.98 47.952 174.85 539.033 568.15 552.6 393.3 13.567 593.67-114.92 701.46-109.255M-57.23 267.067s249.58 36.364 441.175 56.266c191.594 19.901 226.507 116.396 349.509 216.353 123.002 99.956 368.036-350.408 532.956-300.241 164.92 50.167 179.76 520.399 576.12 531.751 396.37 11.352 593.01-99.904 707.25-94.795M-56.861 263.783s251.313 41.418 439.145 62.945c188.422 20.825 230.679 104.33 350.767 200.636 120.089 96.305 356.079-330.517 519.229-278.246 163.15 52.271 185.37 502.356 584.1 510.903 398.72 8.547 592.92-85.59 712.44-79.635M-57.082 261.201s252.455 47.172 437.705 68.922c184.659 22.45 233.559 92.375 352.025 184.918 119.167 93.134 344.122-310.625 505.502-256.25s191.57 483.611 591.37 489.464c399.79 5.853 592.85-71.275 718.23-65.175M-57.303 258.619s253.488 51.635 435.675 75.6c182.188 23.964 237.029 79.72 353.983 169.792 116.955 90.072 332.875-290.144 491.775-234.256 159.01 57.18 197.18 465.567 599.93 467.914 402.75 2.347 592.77-56.96 723.43-50.015M-57.523 256.036s254.629 57.391 433.644 82.279C555.136 363.203 616.03 406.08 731.362 492.39c114.742 87.011 321.508-270.954 478.748-211.671 157.24 59.284 202.09 446.934 607.2 446.476 405.11-.458 592.7-42.646 728.52-36.146M-57.154 252.752s256.362 62.445 432.205 88.257c175.842 25.812 243.379 55.109 355.908 139.059 112.529 83.95 309.551-251.063 465.021-189.676 155.47 61.387 207.7 428.89 615.17 425.627 407.47-3.263 592.62-28.331 734.31-21.686M-57.374 250.17S200.02 317.078 372.8 345.105c173.37 27.326 246.258 43.154 357.165 123.342 110.907 80.188 298.295-230.581 450.705-166.979 152.41 63.602 213.31 410.847 623.14 404.778 409.84-6.068 593.25-13.426 739.51-6.525M-57.595 247.588S200.94 320.25 371.139 348.5c169.607 28.951 249.729 30.498 358.423 107.625 108.694 77.127 286.338-210.69 436.978-144.984 150.64 65.706 218.92 392.803 630.42 383.34 411.49-9.463 594.45.777 745.99 8.523m-2600.176-458.7s260.269 77.716 426.704 107.591 252.609 18.543 360.382 92.498c107.772 73.954 274.97-191.5 423.25-122.989 148.28 68.511 224.53 374.759 638.98 361.79 414.44-12.969 593.09 15.203 750.49 23.094M-56.746 242.311s261.301 82.18 425.264 113.569c163.963 31.389 256.78 6.477 361.639 76.78 104.859 70.304 263.716-171.018 410.223-100.404 146.51 70.615 229.44 356.127 646.25 340.352 416.81-15.774 593.02 29.517 756.28 37.553M-56.967 239.729s262.444 87.934 423.234 120.247c160.79 32.313 259.66-5.477 362.306 61.765 102.647 67.242 251.76-151.128 396.497-78.409 144.73 72.719 235.05 338.083 654.22 319.503 419.17-18.579 592.94 43.832 761.48 52.714M-57.187 237.147s264.176 92.987 421.203 126.925 263.13-18.133 363.564 46.048c100.434 64.181 239.804-131.236 382.77-56.414 142.96 74.823 240.66 320.04 662.19 298.655 421.53-21.385 592.86 58.146 767.27 67.173M-56.818 233.863S207.8 332.016 362.946 366.766c155.146 34.751 266.01-30.088 364.821 30.331 98.812 60.419 229.139-111.457 369.043-34.419 139.9 77.038 246.28 301.996 669.47 277.216 423.19-24.779 592.78 72.461 771.76 81.744M-57.039 231.281s266.351 103.206 417.734 139.581c151.383 36.376 268.889-42.043 366.779 15.204 96.599 57.358 217.183-91.565 355.316-12.424 138.13 79.141 251.19 283.363 677.44 256.368 426.25-26.995 592.71 86.775 777.55 96.202M-57.26 228.698s268.084 108.26 416.294 145.559c148.21 37.3 272.36-54.699 368.037-.513 95.678 54.185 205.227-71.674 342.289 10.161 136.36 81.245 256.8 265.319 685.3 234.228 428.5-31.091 593.33 101.68 783.34 110.662M-56.89 225.415s269.226 114.014 414.263 152.237c145.038 38.224 275.24-66.654 368.705-15.529 93.464 51.125 194.561-51.894 328.562 32.156 134 84.05 262.41 247.276 693.27 213.38 430.87-33.896 593.26 115.994 788.54 125.822M-57.11 222.832S213.146 341.31 355.121 381.748c141.976 40.439 278.71-79.309 369.962-31.246 91.252 48.064 182.605-32.002 314.836 54.151 132.22 86.154 268.02 229.232 701.24 192.531 433.23-36.701 593.18 130.309 794.33 140.282M-57.331 220.25S214.068 344.482 353.46 385.144c139.394 40.661 282.291-90.675 371.22-46.964 89.63 44.301 170.649-12.111 301.109 76.146 130.45 88.258 273.52 209.898 708.52 171.093 434.99-38.805 593.1 144.624 799.52 155.442M-56.26 217.556S216.87 346.842 352.5 389.128c135.631 42.287 285.761-103.33 373.178-62.09 87.417 41.24 159.394 8.37 287.381 98.141 127.98 89.772 279.13 191.854 716.49 150.244 437.36-41.61 593.02 158.938 805.31 169.901M-56.482 214.974s274.164 133.749 407.323 177.55c133.158 43.8 288.641-115.286 374.435-77.808 85.795 37.478 148.028 27.56 274.352 120.726 126.322 93.167 284.742 173.81 724.352 128.104 439.61-45.706 592.95 173.253 810.51 185.062M-56.702 212.391S218.604 351.896 348.59 396.62c129.985 44.724 292.111-127.942 375.102-92.824 83.583 34.417 136.072 47.451 260.034 143.423 123.964 95.971 290.354 155.767 732.324 107.256 441.97-48.511 592.87 187.567 815.6 198.931M-56.923 209.809s277.039 144.558 403.262 190.907c126.222 46.349 294.99-139.897 376.36-108.541 81.369 31.356 124.816 67.933 246.306 165.418C1090.5 555.079 1264.97 595.317 1709.3 544c444.34-51.316 593.5 202.472 820.8 214.092M-56.554 206.525S220.927 356.248 345.268 403.41c124.342 47.161 298.461-152.553 377.618-124.258 79.157 28.295 112.86 87.824 232.579 187.413 119.715 99.589 300.875 119.09 747.575 64.969 446.69-54.122 593.41 216.786 826.58 228.55M-56.774 203.943s279.213 154.776 399.791 203.563c120.578 48.787 301.341-164.507 379.576-139.385 77.535 24.533 101.495 107.014 218.852 209.408 117.945 101.693 306.485 101.046 755.545 44.12 449.05-56.926 593.34 231.101 832.37 243.01M-56.995 201.36S223.95 361.19 341.356 410.901c118.107 50.301 304.812-177.163 380.834-155.102 75.322 21.472 90.239 127.495 205.826 231.993 115.584 104.498 312.094 83.003 763.404 21.98 451.31-61.022 593.26 245.416 837.57 258.171M-56.626 198.077s281.388 164.994 396.322 216.219c114.934 51.225 308.392-188.528 381.501-170.118 73.109 18.411 78.283 147.386 192.098 253.988 113.815 106.602 317.705 64.96 771.375 1.132 453.67-63.827 593.19 259.73 843.36 272.63M-56.846 195.494s283.12 170.048 394.291 222.898c111.171 52.85 311.862-201.184 382.758-185.835 70.897 15.35 66.327 167.278 178.371 275.983 112.046 108.706 322.616 46.326 779.346-19.716 456.73-66.043 593.11 274.044 848.56 287.79M-56.367 193.502s284.263 175.803 392.852 228.875c108.699 54.364 314.742-213.139 384.016-201.552 69.975 12.177 55.661 187.058 164.643 297.978 108.982 110.921 328.226 28.283 786.626-41.155 458.39-69.437 593.03 288.359 854.34 302.25M-56.587 190.919s285.294 180.267 391.521 236.144c105.527 55.288 318.212-225.795 385.274-217.269 67.762 9.116 43.706 206.949 150.917 319.973 107.21 113.025 333.835 10.24 794.595-62.003 460.75-72.243 593.65 303.263 858.84 316.82M-56.218 187.636S230.81 372.955 333.864 429.757c103.055 56.801 321.092-237.75 387.232-232.396 65.55 6.055 31.75 226.84 137.89 342.558 106.141 115.718 339.454-7.804 801.864-83.442 462.42-75.638 593.58 317.578 864.63 331.279M-56.438 185.053s288.169 191.075 388.051 248.8c99.882 57.725 324.562-250.406 387.899-247.412 63.337 2.994 20.494 247.321 124.163 364.553s345.065-25.847 810.425-104.991c465.37-79.144 593.51 331.892 869.83 346.439M-175.289 164.083s547.375-276.12 882.01 154.184C1041.36 748.57 1502.84 213.208 1767.55 183.231c264.72-29.977 184.23 519.364 413.58 783.147 229.35 263.782 650.7-619.313 650.7-619.313M-172.927 161.278s542.431-273.092 875.443 153.449C1035.53 741.268 1491.81 213.509 1753.94 183.754c262.14-29.754 186.22 519.843 419.48 776.135 233.27 256.291 650.81-595.259 654.98-607.325M-169.865 159.063s537.377-271.356 868.877 152.714c331.498 424.07 781.178-97.266 1042.718-126.32 261.55-29.053 188.8 519.62 425.49 770.413 237.4 251.38 649.4-573.675 659.04-597.919M-167.504 156.258s531.733-268.918 861.611 151.39c329.883 420.307 774.343-93.427 1033.313-122.257 258.96-28.831 190.79 520.098 432.1 763.99 241.42 245.179 648.8-550.212 663.3-585.931M-164.441 154.042s526.788-265.89 854.454 151.357c328.367 417.837 767.527-89.586 1024.607-117.604 257.08-28.018 193.37 519.876 438.11 758.269 244.74 238.396 647.99-529.33 667.25-577.817m-2981.359-216.42s521.144-263.452 847.888 150.622c326.741 414.075 760.001-86.335 1015.201-113.541 255.2-27.205 195.36 520.354 444.12 752.547 248.77 232.195 647.87-507.857 671.42-567.119M-159.018 149.022s515.5-261.014 841.323 149.888C1006.84 709.923 1434.89 217.115 1688.8 190.021c253.91-27.094 197.35 520.833 450.02 745.535 252.68 224.704 647.87-485.095 675.48-557.714M-156.546 147.508S353.9-111.77 676.919 296.772C1000.53 704.613 1422.68 218.819 1674 191.947c251.33-26.871 199.94 520.61 456.05 739.813 256.1 219.2 647.16-462.921 680.23-547.718M-154.184 144.703s505.501-256.25 826.899 148.53c321.397 404.78 738.225-74.704 988.375-100.173 250.15-25.469 201.93 521.089 462.06 734.092 260.13 213.008 646.45-440.748 684.4-537.021M-151.122 142.488s499.857-253.812 820.333 147.795c320.476 401.608 730.819-70.162 979.669-95.519 248.86-25.358 204.51 520.866 468.66 727.669 264.15 206.807 646.34-419.277 688.46-527.616M-148.06 140.273s494.213-251.375 812.476 147.172c318.263 398.546 723.284-66.912 970.264-91.457 246.97-24.545 206.5 521.345 474.67 721.948 268.18 200.604 645.64-397.104 692.62-516.919M-145.699 137.468s489.27-248.347 805.91 146.437c316.641 394.784 716.459-63.071 961.559-86.804 245.09-23.732 208.49 521.824 481.28 715.525 271.49 193.814 644.93-374.93 697.37-506.923m-2943.056-270.45s484.215-246.611 799.344 145.702c315.129 392.314 709.642-59.231 952.742-83.442 243.1-24.211 211.07 521.601 486.59 709.214 275.52 187.613 644.22-352.757 701.43-497.517M-140.275 132.448s478.571-244.173 792.077 144.378c313.507 388.551 701.518-55.28 944.028-78.79 242.51-23.51 213.07 522.08 492.61 703.493 279.54 181.411 644.11-331.286 705.6-486.821M-137.213 130.233s472.926-241.735 784.921 144.344c311.995 386.08 694.692-51.439 934.622-74.726 239.93-23.288 215.65 521.856 499.21 697.069 283.57 175.21 644.11-308.522 709.66-477.414M-134.15 128.018s467.982-238.708 778.355 143.61c310.372 382.317 687.875-47.6 925.915-70.074 238.05-22.475 217.64 522.335 505.23 691.348 287.58 169.008 643.4-286.349 713.82-466.717M-131.789 125.213s462.928-236.971 771.088 142.285c308.16 379.256 679.751-43.648 916.511-66.011 236.76-22.363 219.63 522.814 511.24 685.627 290.9 162.226 642.69-264.176 718.58-456.722M-129.317 123.699s457.284-234.533 763.932 142.252c306.647 376.785 672.925-39.808 907.805-61.358 234.87-21.551 222.91 523.181 517.84 679.204 294.93 156.023 642.58-242.705 722.63-447.316M-126.956 120.894S325.385-110.612 630.41 262.411c305.026 373.023 666.1-35.967 898.4-57.295 232.29-21.328 224.9 523.66 523.15 672.893 298.25 149.231 641.87-220.532 726.8-436.619M-123.893 118.679s446.695-229.068 750.799 140.782c304.104 369.851 658.574-32.717 889.694-52.642 231.11-19.926 227.49 523.437 529.76 666.47 302.27 143.031 641.16-198.358 731.55-426.623M-120.831 116.464S320.22-110.167 622.111 256.623c301.892 366.79 651.159-28.175 880.279-48.58 229.12-20.404 229.49 523.916 535.78 660.749 306.29 136.838 641.05-176.886 735.02-416.516M-118.47 113.659s435.997-224.894 736.377 139.424c300.379 364.319 644.333-24.335 871.573-43.926 227.24-19.592 231.48 524.394 541.79 655.027 310.32 130.633 641.05-154.123 739.78-406.521M-115.407 111.444s431.053-221.867 729.81 138.69C913.16 610.69 1251.21 229.049 1477.27 210.86c226.06-18.189 234.06 524.172 548.4 648.605C2340 983.897 2666.01 727.514 2769.5 462.35M-113.046 108.639S312.363-110.79 609.498 246.004s629.392-16.543 853.462-35.211c223.47-17.966 236.05 524.651 554.41 642.884 318.36 118.232 639.63-109.778 748-386.418M-109.984 106.424s419.765-216.991 715.388 137.332c295.623 354.323 622.566-12.704 844.756-30.559 222.18-17.855 238.63 524.428 559.72 636.572 321.09 112.144 639.52-88.305 752.75-376.422M-106.922 104.208S307.198-110.344 601.9 240.806c294.001 350.561 615.04-9.453 835.35-26.496 220.3-17.042 240.62 524.907 566.32 630.15 325.71 105.243 638.82-66.133 756.22-366.316M-104.56 101.403s409.767-212.226 701.555 135.273c292.489 348.09 607.625-4.911 826.645-21.842 219.01-16.932 242.61 525.385 572.34 624.428 329.72 99.043 638.1-43.96 760.97-356.32M-102.088 99.89S302.034-109.9 592.31 235.129s600.8-1.071 817.23-17.78c216.43-16.708 245.2 525.163 578.95 618.006 333.75 92.843 637.4-21.786 765.14-345.623M-99.727 97.085s398.478-207.352 687.832 134.504c289.355 341.857 593.275 2.18 808.525-13.126 215.25-15.307 247.19 525.641 584.96 612.284 337.77 86.642 637.29-.315 769.2-336.218M-96.664 94.869S296.869-109.453 583.9 228.05c287.032 337.504 586.449 6.019 799.119-9.064 212.67-15.084 249.77 525.419 590.97 606.563 341.2 81.144 637.28 22.448 773.96-326.222M-93.602 92.654S294.287-109.23 580.397 225.1c286.11 334.332 579.033 10.561 790.413-4.411 211.37-14.972 251.76 525.897 596.88 599.55 345.11 73.653 636.57 44.622 777.42-316.114M-91.24 89.849S291.594-110.3 575.601 222.262c284.598 331.86 571.508 13.811 781.008-.349 209.49-14.159 253.75 526.376 602.89 593.829 349.13 67.453 635.87 66.795 782.17-306.119M-88.179 87.634s377.191-197.711 660.277 131.678c282.386 328.799 564.682 17.651 772.302 4.304 207.61-13.347 256.33 526.153 608.9 588.107 352.57 61.954 635.76 88.267 786.34-295.421M-85.817 84.829s372.247-194.684 653.01 130.353c281.464 325.627 557.267 22.193 762.887 8.368 205.62-13.826 258.33 526.631 615.51 581.684s635.05 110.44 790.4-286.016M-82.755 82.614S283.848-109.632 563.1 212.934c279.251 322.566 549.741 25.443 754.181 13.02 204.44-12.423 261.61 526.999 621.53 575.963 359.91 48.964 634.34 132.613 795.15-276.02M-79.693 80.399s361.549-190.51 639.288 129.585c277.629 318.804 542.915 29.284 745.475 17.673 202.56-11.61 263.61 527.478 628.13 569.541 364.52 42.062 633.64 154.786 798.62-265.914M-77.331 77.594S279.274-109.888 554.69 205.855c276.117 316.332 536.09 33.123 736.07 21.735 199.98-11.387 265.6 527.957 633.44 563.23 367.85 35.273 633.52 176.258 803.38-255.918M-74.86 76.08s350.961-185.044 624.865 128.227c274.495 312.571 527.975 37.076 727.365 26.389 199.38-10.687 268.18 527.734 639.45 557.508 371.28 29.774 633.52 199.021 807.55-245.221M-72.498 73.275s345.316-182.607 618.299 127.493c272.983 310.099 521.149 40.915 717.959 30.451 196.8-10.464 270.17 528.213 646.06 551.086 375.89 22.872 632.81 221.195 811.59-235.815M-69.436 71.06s339.672-180.17 611.032 126.168c271.361 306.337 514.324 44.756 709.254 35.104 194.92-9.651 272.75 527.99 652.07 545.364 379.32 17.374 632.7 242.664 816.35-225.819M-66.374 68.845s335.319-177.842 604.467 125.433c269.148 303.276 506.207 48.708 699.837 39.168s274.75 528.468 658.09 539.642c383.34 11.174 631.99 264.842 820.52-215.122M-64.012 66.04s329.674-175.405 597.31 125.4c267.636 300.805 499.382 52.548 691.132 43.82 191.75-8.728 276.74 528.947 664.69 533.22 387.96 4.272 631.29 287.01 824.58-205.717M-60.95 63.825S263.08-109.142 529.093 187.9c266.014 297.043 492.557 56.388 681.727 47.883 189.17-8.505 279.32 528.725 670.01 526.909 390.68-1.816 630.58 309.188 828.74-195.02M-58.588 61.02s318.384-170.53 583.477 123.34c265.092 293.87 485.031 59.638 673.021 52.535 187.98-7.102 281.31 529.203 676.61 520.486 395.3-8.717 629.87 331.358 832.8-185.614M-55.526 58.805s313.441-167.502 576.32 123.307c262.88 290.809 477.62 64.18 663.616 56.599 186.69-6.991 283.89 528.98 682.62 514.764 398.73-14.216 630.46 353.415 837.56-175.618M-52.464 56.59s308.387-165.765 569.755 122.573c261.257 287.046 470.794 68.019 654.909 61.251 184.11-6.768 285.88 529.459 688.63 509.043 402.76-20.416 629.76 375.593 841.73-164.921M-50.102 53.785S252.64-109.543 512.385 175.033c259.746 284.576 463.269 71.27 646.205 65.904 182.93-5.366 287.87 529.938 695.24 502.621 407.36-27.318 629.05 397.762 845.77-155.516M-47.04 51.569S250.759-108.73 508.882 172.083c258.123 280.814 455.852 75.812 636.788 69.967 180.94-5.844 290.46 529.715 701.26 496.899 410.8-32.816 628.34 419.941 849.94-144.818M-45.269 49.466s292.154-157.862 548.765 120.48c256.612 278.342 449.028 79.652 628.674 73.919 179.65-5.734 292.45 530.193 706.57 490.587 414.12-39.606 628.23 441.408 854.7-134.823M-42.207 47.25s286.51-155.424 541.499 119.156c254.989 274.58 441.501 82.903 619.268 77.982 177.77-4.921 294.44 530.672 713.17 484.165 418.74-46.507 627.53 463.587 858.76-125.418M-39.145 45.035s281.456-153.687 534.933 118.422c253.477 272.109 434.086 87.443 610.562 82.634 176.48-4.809 297.02 530.45 719.19 478.444 422.16-52.006 626.82 485.755 862.92-114.721M-36.783 42.23s276.512-150.66 527.776 118.388c251.264 269.048 427.261 91.284 601.157 86.698 173.89-4.587 299.01 530.928 725.79 472.02 426.78-58.907 626.11 507.934 866.98-105.314m96.17-38.859s-177.46-29.575-404.77-18.432c-227.31 11.144-257.57 227.721-457.12 335.326-198.85 108.193-307.97-415.043-496.69-401.373-188.73 13.67-338.16 532.536-672.167 596.446-334.003 63.92-406.137-201.712-406.137-201.712M2781.57 573.17s-180.41-26.068-404.44-14.557c-224.03 11.51-257.53 220.563-453.32 326.542-195.79 105.98-304.39-403.644-491.12-389.496-186.74 14.149-337.06 522.681-672.57 584.131-335.515 61.44-410.639-193.526-415.804-193.081M2782.75 571.768s-182.77-23.263-405.4-10.573c-222.62 12.69-256.2 213.295-449.52 317.76-193.43 103.175-300.22-392.947-486.14-376.918-185.93 16.03-336.65 512.243-672.974 571.803-336.326 59.57-414.551-186.029-424.179-184.548M2783.94 570.365s-185.73-19.757-405.78-7.289c-220.04 12.468-255.46 206.727-446.41 308.388-190.96 101.661-296.06-382.25-480.58-365.041-184.52 17.21-335.65 501.097-673.267 560.777-337.617 59.67-419.643-177.14-434.436-175.214M2784.42 568.373s-188.1-16.952-406.15-4.006c-218.05 12.947-254.13 199.459-442.61 299.606-187.9 99.446-291.9-371.554-475.61-352.463-183.7 19.09-334.53 491.25-673.661 548.45-339.129 57.21-423.445-168.353-444.103-166.572M2785.6 566.97s-191.05-13.445-405.81-.132c-214.77 13.314-253.4 192.892-438.82 290.824-185.42 97.932-287.62-359.566-470.03-340.587-182.42 18.98-334.13 480.808-674.073 536.135-339.94 55.32-428.538-159.466-453.069-157.351M2786.08 564.978s-193.41-10.641-406.77 3.853c-213.37 14.494-252.66 186.324-435.02 282.041-182.36 95.717-283.45-348.869-464.47-328.71-181.01 20.159-333.72 470.367-674.467 523.808-340.751 53.44-433.04-151.269-462.736-148.708M2787.26 563.575s-197.06-7.724-407.14 7.137c-210.09 14.861-252.03 178.466-431.33 271.967-179.29 93.502-279.28-338.171-459.49-316.131-180.2 22.04-333.31 459.926-675.461 512.192C471.686 1091 376.297 895.659 342.137 899.254m2445.013-336.97s-199.42-4.919-407.51 10.421c-208.1 15.339-251.29 171.898-427.52 263.184-176.24 91.287-275.12-327.475-453.23-303.664-178.1 23.81-332.2 450.075-675.164 500.455-342.964 50.38-442.044-134.884-481.368-130.844M2788.33 560.882s-202.37-1.413-407.77 14.995c-205.4 16.408-249.96 164.63-423.72 254.402-173.77 89.773-270.25-316.188-448.25-291.086-177.99 25.101-331.79 439.634-675.567 488.137-343.775 48.5-447.247-127.286-491.735-122.8M2789.51 559.479s-204.73 1.392-408.14 18.279-249.22 158.062-419.92 245.62c-170.7 87.558-266.68-304.79-442.68-279.21-176 25.58-330.79 428.492-676.56 476.512-345.767 48.02-450.938-117.207-500.001-112.977M2789.99 557.487s-207.69 4.898-408.51 21.562c-200.83 16.664-247.89 150.794-416.82 236.248-168.93 85.454-262.51-294.093-437.11-267.333-174.6 26.76-329.69 418.641-676.965 464.186-347.278 45.55-455.44-109.011-509.667-104.336m2450.252-351.73s-210.05 7.704-409.47 25.548c-199.42 17.844-247.15 144.226-413.02 227.465-165.86 83.239-258.34-283.396-432.13-254.755-174.49 28.051-329.28 408.2-676.668 452.458-347.389 44.26-459.942-100.823-519.223-94.411M2791.65 554.092s-213 11.21-409.14 29.421-247.11 137.069-409.21 218.683c-162.11 81.613-253.48-272.109-426.57-242.878-173.08 29.23-328.87 397.758-677.661 440.832-348.791 43.08-464.444-92.626-528.89-85.769M2792.83 552.689s-215.36 14.015-409.51 32.705c-194.15 18.69-245.78 129.8-406.11 209.31-160.34 79.51-249.9-260.711-421.59-230.3-171.68 30.411-327.76 387.908-678.065 428.516-350.303 40.61-468.246-83.848-538.557-77.136M2793.31 550.697s-219.01 16.931-410.47 36.689c-191.45 19.759-245.04 123.234-402.31 200.528-157.27 77.295-245.74-250.014-416.02-218.423-170.28 31.591-327.36 377.467-678.469 416.194-351.114 38.725-473.338-74.955-547.523-67.909M2794.49 549.294s-221.37 19.736-410.84 39.974c-189.46 20.237-243.71 115.964-398.51 191.745-154.8 75.781-241.57-239.317-411.04-205.845-169.47 33.472-326.36 366.325-678.172 404.461-351.814 38.141-477.84-66.762-557.189-59.27M2794.97 547.302s-224.32 23.242-410.51 43.847c-186.88 20.014-242.97 109.397-394.71 182.963-151.73 73.566-237.4-228.62-405.47-193.969-168.77 34.062-325.25 356.474-679.165 392.841-353.917 36.366-482.342-58.57-566.155-50.043m2456.6-376.34s-226.69 26.047-411.46 47.831c-184.19 21.083-241.65 102.129-391.61 173.591-148.68 71.351-233.13-216.632-399.91-182.091-167.37 35.241-324.84 346.032-679.57 380.518-354.727 34.49-486.844-50.377-575.821-41.405M2796.74 545.198s-229.64 29.554-411.83 51.115c-182.2 21.562-241.61 94.972-387.81 164.809-146.21 69.837-228.96-205.935-394.93-169.514C1436.2 628.03 1277.74 927.2 922.197 959.805c-355.539 32.604-490.646-41.595-585.488-32.768M2797.22 543.205s-232 32.359-412.2 54.4c-180.21 22.04-240.87 88.404-384.01 156.025-143.14 67.622-224.79-195.238-389.36-157.636-164.57 37.601-323.33 325.741-680.967 356.575-357.641 30.835-495.738-32.701-594.454-23.539M2798.4 541.803s-234.95 35.865-413.16 58.384c-178.22 22.519-239.54 81.136-380.21 147.244S1784.4 562.89 1620.65 602.372c-163.17 38.781-322.92 315.3-680.67 344.843-357.751 29.544-500.24-24.508-604.121-14.902M2798.88 539.81s-237.31 38.671-412.83 62.258c-175.52 23.588-238.8 74.568-377.11 137.871-138.3 63.303-216.35-172.553-378.81-133.181-163.06 40.072-322.51 304.859-681.074 332.521-358.562 27.662-504.742-16.316-613.086-5.674m2464.09-395.197s-240.26 42.177-413.2 65.541c-172.94 23.365-237.47 67.3-373.3 129.089-135.84 61.789-212.19-161.856-373.84-120.604-161.66 41.253-320.81 294.307-682.067 320.901-361.256 26.594-509.245-8.124-622.754 2.963M2800.54 536.415s-243.32 44.392-414.16 69.527c-170.25 24.433-236.73 60.732-368.91 119.605-132.19 58.873-208.02-151.159-368.27-108.727-160.26 42.432-320.4 283.866-682.471 308.579-362.067 24.712-513.046.658-632.42 11.601M2801.72 535.013s-246.27 47.898-414.53 72.81c-168.25 24.912-236.1 52.874-365.11 110.823-129.01 57.948-203.85-140.463-362.7-96.85-158.85 43.612-320 273.424-682.173 296.846-362.177 23.421-517.549 8.851-641.386 20.829M2802.9 533.61s-248.64 50.704-414.2 76.684c-166.26 25.391-235.36 46.306-362.01 101.45-126.65 55.144-199.68-129.765-357.72-84.272-157.45 44.793-318.89 263.574-682.577 284.524-363.688 20.951-522.64 17.746-651.052 29.467M2803.38 531.618s-251.59 54.209-415.16 80.669c-163.57 26.459-234.03 39.037-358.2 92.667-124.18 53.63-195.42-117.777-352.16-72.395-156.75 45.382-318.48 253.133-683.571 272.903-365.09 19.771-527.143 25.938-660.019 38.695m2470.29-413.942s-253.95 57.015-415.53 83.953c-161.57 26.938-233.29 32.47-354.4 83.885-121.12 51.415-191.25-107.08-347.18-59.817-155.94 47.263-318.07 242.692-683.97 260.581-365.906 17.889-531.65 34.13-670.28 48.034m2471.25-417.927s-256.9 60.521-415.9 87.236c-158.99 26.715-231.96 25.202-350.6 75.103-118.65 49.901-187.08-96.383-341.62-47.94-154.53 48.443-316.36 232.14-683.67 248.849-367.301 16.709-535.444 42.913-679.94 56.671m2472.92-421.321s-259.27 63.325-415.57 91.109c-156.31 27.784-231.23 18.635-347.51 65.731-115.58 47.686-182.91-85.686-336.64-35.362-153.13 49.623-315.96 221.698-684.66 237.228-368.706 15.529-539.95 51.105-688.909 65.899M2806.12 525.529s-262.22 66.832-416.53 95.095c-153.72 27.561-229.9 11.366-343.71 56.948-113.81 45.582-178.63-73.698-331.07-23.485-152.43 50.212-315.55 211.257-685.07 224.906-369.511 13.648-545.037 59.998-698.57 74.536M2807.3 524.127s-264.58 69.637-416.9 98.378c-151.62 29.331-229.86 4.208-339.9 48.166-110.75 43.367-174.47-63.002-325.51-11.609-151.03 51.393-314.44 201.407-685.47 212.584-371.026 11.177-549.542 68.191-707.539 83.764M2808.48 522.724s-268.24 72.554-417.27 101.662c-149.63 29.81-229.12-2.359-336.8 38.793-107.69 41.152-170.31-52.304-320.53.97-150.22 53.274-314.03 190.966-685.87 200.262-371.841 9.296-554.048 76.384-717.21 92.402m2478.16-436.081s-270.6 75.358-417.53 106.236c-146.93 30.879-227.79-9.627-333 30.011-104.62 38.937-166.14-41.607-314.26 13.437s-313.63 180.525-686.16 189.231c-372.544 8.706-557.852 85.166-726.878 101.039M2810.14 519.329s-273.55 78.865-417.9 109.521c-144.35 30.655-227.05-16.195-329.2 21.228-102.15 37.423-161.86-29.619-309.28 26.015-147.42 55.633-312.52 170.673-686.57 176.908-374.049 6.235-562.347 93.359-735.838 110.268M2810.62 517.337s-275.91 81.67-418.27 112.804c-142.36 31.134-226.31-22.762-325.4 12.446-99.09 35.208-157.69-18.922-303.71 37.891-146.01 56.814-311.52 159.532-686.97 164.587-375.455 5.055-567.444 102.252-745.508 118.905M2811.8 515.934s-278.86 85.176-419.23 116.789-225.68-30.621-322.29 3.074c-96.62 33.694-153.53-8.225-298.74 50.469-145.2 58.695-310.52 148.39-687.38 152.265-376.851 3.875-571.94 110.445-754.468 128.133M2812.28 513.942s-281.22 87.981-418.9 120.662c-137.67 32.682-224.94-37.188-318.49-5.709-93.56 31.479-149.36 2.472-293.17 62.347-143.8 59.874-310 139.24-687.67 141.234-377.664 1.994-576.445 118.637-764.138 136.77M2812.87 513.24s-284.17 91.488-419.27 123.947c-135.09 32.458-223.61-44.457-314.69-14.492-91.08 29.966-145.79 13.87-287.6 74.224-141.81 60.353-309.6 128.798-688.07 128.911-378.479.113-580.25 127.42-773.808 145.409M2813.35 511.248s-286.54 94.293-420.23 127.931c-133.69 33.639-222.28-51.725-310.3-23.975-88.02 27.75-140.92 25.157-282.62 86.801-141.7 61.645-309.19 118.358-689.07 117.291-379.875-1.067-584.746 135.613-782.768 154.636M2814.53 509.846s-290.19 97.208-420.6 131.214c-130.4 34.006-221.54-58.292-307.2-33.347s-136.75 35.854-277.05 98.678-308.08 108.507-688.77 105.559c-380.689-2.948-589.842 144.506-792.438 163.274M2815.71 508.443s-292.55 100.014-420.26 135.089c-127.72 35.074-220.8-64.86-303.4-42.13-82.6 22.73-132.59 46.55-272.08 111.256-139.49 64.705-307.08 97.365-689.17 93.237-382.093-4.129-594.346 152.698-801.406 172.501M2816.19 506.451s-295.5 103.52-421.22 139.073c-126.43 34.963-220.07-71.427-299.6-50.912-79.54 20.515-129.01 57.949-266.51 123.133s-306.67 86.924-689.58 80.914C756.382 792.65 540.437 959.55 327.623 980.5M2817.37 505.048s-297.86 106.325-421.59 142.357c-123.73 36.032-219.44-79.286-296.5-60.285-77.06 19.002-124.14 69.236-261.53 135.712-137.39 66.475-305.57 77.072-690.57 69.293-385.005-7.779-602.648 169.674-820.738 189.777M2817.85 503.056s-300.81 109.831-421.96 145.64c-121.15 35.809-218.7-85.853-292.7-69.067s-119.98 79.933-255.96 147.588c-135.99 67.655-305.16 66.632-690.97 56.972-385.82-9.66-607.154 177.866-830.298 199.706M2819.03 501.653s-303.17 112.637-422.92 149.626c-119.75 36.989-217.37-93.122-288.9-77.85-71.53 15.272-115.81 90.63-250.39 159.465-134.59 68.835-304.75 56.191-691.38 44.65-386.624-11.542-611.65 186.058-839.958 208.343M2819.51 499.661s-306.12 116.142-422.59 153.499c-116.47 37.356-216.63-99.689-285.09-86.632-68.47 13.057-111.65 101.327-245.42 172.043-133.78 70.716-303.64 46.34-691.67 33.618-388.029-12.721-616.745 194.952-848.927 217.572M2820.69 498.258s-308.49 118.948-422.96 156.783c-114.47 37.835-215.29-106.957-281.99-96.004-66 11.543-107.37 113.314-239.85 183.919-132.49 70.605-303.24 35.899-692.07 21.297-388.844-14.602-621.251 203.145-858.597 226.209M2821.87 496.856s-311.44 122.454-423.92 160.767c-111.78 38.904-214.55-113.524-278.19-104.786-62.93 9.328-103.2 124.011-234.87 196.497-131.67 72.486-302.24 24.757-692.48 8.975-390.239-15.782-625.046 211.927-868.257 234.847M2821.76 495.564s-314.5 124.67-424.29 164.052c-109.2 38.681-213.93-121.383-274.39-113.569-60.57 6.523-99.04 134.708-229.3 208.374-130.27 73.666-301.13 14.906-693.47-2.646-392.345-17.552-629.553 220.119-877.228 244.075M2822.94 494.162s-317.45 128.175-423.96 167.925c-107.2 39.159-213.18-127.951-271.29-122.942-58.1 5.01-94.87 145.406-223.73 220.252-128.87 74.846-300.72 4.465-693.17-14.378-392.458-18.844-634.057 228.311-886.897 252.712M2936.38 474.626s-405.23-130.254-838.54 141.235c-433.32 271.488-680.26-15.492-908.09-17.962-227.82-2.47-325.605 314.232-613.003 482.091-287.398 167.86-391.282-324.615-391.282-324.615M2934.28 472.857s-400.44-127.416-830.69 141.857c-430.25 269.274-676.38-15.825-902.22-17.817-226.528-2.581-327.487 315.044-616.507 479.143-289.02 164.09-397.334-311.738-397.886-318.194M2932.88 471.677S2537.24 347.1 2108.75 614.269c-428.48 267.17-671.81-15.569-896.35-17.672-224.537-2.103-330.069 315.266-620.011 476.193-289.941 160.92-403.976-298.159-405.191-312.362m2743.682-289.23s-390.84-121.739-816.26 143.216c-425.42 264.954-667.24-15.314-890.49-17.528-223.25-2.214-331.36 315.378-624.215 472.654C307.06 1226.81 189.185 783.67 188.12 763.6m2740.66-294.172s-386.05-118.9-809 144.541c-422.94 263.44-662.66-15.058-885.21-16.682-222.55-1.624-333.943 315.6-627.129 469.003-293.186 153.39-416.782-272.992-419.1-300.107M2927.38 468.248s-381.26-116.062-802.43 145.275c-421.18 261.337-658.09-14.801-878.65-15.947-220.55-1.145-336.524 315.823-630.632 466.054-294.108 150.22-422.835-260.113-425.705-293.685M2925.98 467.068s-376.46-113.223-794.58 145.899c-418.11 259.121-653.51-14.546-872.78-15.803-219.26-1.257-338.405 316.636-634.135 463.096-295.73 146.47-429.478-246.525-433.01-287.844M2924.58 465.888s-371.67-110.385-787.31 147.223c-415.64 257.608-648.94-14.289-866.91-15.657-217.98-1.369-340.407 316.157-638.349 459.556-297.943 143.41-436.231-234.237-439.615-281.421m2730.074-311.47s-366.28-108.248-780.15 147.256c-413.87 255.504-645.06-14.624-861.05-15.513-215.98-.89-342.279 316.969-641.844 456.608-299.565 139.64-442.283-221.36-446.219-275M2920.48 463.64S2559 358.23 2147.6 612.221c-411.4 253.99-640.49-14.368-855.19-15.369-214.69-1-344.861 317.193-645.347 453.658-300.487 136.47-448.926-207.779-453.524-269.167M2919.08 462.46s-356.69-102.571-765.03 149.204c-408.33 251.776-635.91-14.111-849.2-13.932-213.29.179-346.161 317.304-648.269 450.008C354.472 1180.45 200.2 851.658 195.05 783.815M2916.98 460.69s-351.9-99.732-758.46 149.939c-406.57 249.672-631.35-13.856-843.35-13.788-211.99.068-348.734 317.526-652.465 446.469-303.731 128.94-461.031-182.023-466.733-256.323M2915.58 459.51s-347.1-96.894-751.2 151.264c-404.09 248.157-626.77-13.6-837.47-13.643-210.71-.044-351.325 317.748-655.978 443.519-304.653 125.77-467.785-169.735-474.038-250.491M2914.18 458.331s-342.31-94.057-743.34 151.886c-401.03 245.943-622.2-13.343-831.61-13.498-209.42-.155-352.616 317.86-659.481 440.571C372.884 1160 204.621 880.543 198.405 792.63M2912.77 457.151S2575.26 365.933 2176 609.772s-618.32-13.678-826.33-12.653c-208.02 1.025-355.199 318.083-663.686 437.031-308.488 118.95-481.181-143.867-487.948-238.236M2910.08 456.082s-332.71-88.379-728.91 153.245c-396.2 241.623-613.75-13.422-819.77-11.918-206.03 1.503-357.08 318.895-667.189 434.081-310.11 115.19-487.234-130.989-495.254-232.404M2908.68 454.902s-327.92-85.541-721.65 154.569c-393.72 240.11-609.17-13.165-813.9-11.773-204.74 1.392-359.66 319.118-670.693 431.132-311.031 112.01-493.285-118.11-501.857-225.982m2706.7-349.126s-323.13-82.702-715.08 155.304c-391.96 238.006-604.6-12.909-808.04-11.629-203.44 1.281-360.95 319.23-673.607 427.483C397.9 1133.13 209.924 919.758 201.391 804.73M2905.18 451.953s-318.33-79.864-707.23 155.927c-388.89 235.791-600.02-12.654-802.17-11.484-202.15 1.169-363.53 319.451-677.811 423.944-314.276 104.48-506.571-90.954-515.066-213.139M2903.78 450.773s-313.54-77.026-699.96 157.251-595.45-12.397-796.31-11.339c-200.86 1.058-366.12 319.675-681.314 420.995-315.198 101.31-512.734-79.366-523.073-207.897m2699.247-360.19s-308.74-74.187-692.8 157.285c-384.06 231.472-590.88-12.142-789.74-10.605-198.87 1.537-367.41 319.786-684.817 418.037-317.41 98.26-520.078-66.368-529.677-201.466M2900.27 447.823s-303.35-72.05-685.53 158.609c-382.18 230.66-586.31-11.885-784.47-9.758-198.17 2.127-369.99 320.008-688.321 415.096-318.332 95.08-526.13-53.499-536.982-195.642M2898.28 447.344s-298.56-69.211-678.27 159.934c-379.7 229.146-582.43-12.219-778.6-9.614-196.18 2.606-371.87 320.822-692.526 411.556-320.655 90.73-532.183-40.619-543.586-189.218M2896.88 446.164s-293.77-66.373-671.11 159.968c-377.35 226.34-577.86-11.964-772.74-9.469-194.89 2.494-373.86 320.342-695.439 407.897-321.577 87.56-538.826-27.032-550.191-182.789m2688.08-376.787s-288.97-63.534-663.85 161.292c-374.87 224.827-573.28-11.707-766.87-9.324-193.59 2.383-375.74 321.155-698.943 404.948-323.198 83.8-545.578-14.743-557.495-176.956M2893.37 443.215s-284.17-60.697-655.98 161.915-568.71-11.451-761.01-9.18c-192.3 2.272-378.33 321.378-702.446 402.002-324.12 80.628-552.222-1.167-564.101-170.537m2682.137-385.38s-279.38-57.858-649.42 162.65c-370.04 220.508-564.13-11.196-755.03-7.744-190.9 3.451-380.21 322.19-706.65 398.461-326.444 76.268-557.684 11.008-571.406-164.704M2890.57 440.855s-274.59-55.02-641.56 163.273c-366.98 218.293-559.56-10.939-749.17-7.599s-382.2 321.711-710.153 395.512c-327.956 73.799-565.028 23.999-578.711-158.871M2887.88 439.786s-269.79-52.181-634.3 164.598c-364.5 216.779-554.98-10.683-743.3-7.455-188.32 3.229-384.78 321.935-713.658 392.563-328.877 70.628-571.079 36.878-585.315-152.449M2886.48 438.606s-265-49.343-627.73 165.333c-362.74 214.675-551.12-11.018-737.44-7.31-186.33 3.707-386.66 322.747-717.162 389.613-330.499 66.868-576.542 49.058-590.739-147.429M2885.08 437.427s-260.21-46.505-619.88 165.955-546.54-10.761-731.57-7.165c-185.03 3.596-388.65 322.268-720.775 385.372-332.121 63.101-583.886 62.051-599.225-140.194m2670.04-405.148s-255.4-43.666-612.6 167.28c-357.2 210.946-541.97-10.505-725.01-6.431-183.04 4.075-390.53 323.081-724.278 382.422-333.743 59.342-590.528 75.632-605.829-133.77M2881.57 434.477s-250.61-40.828-605.45 167.313c-355.43 208.843-537.39-10.249-719.73-5.584-181.75 3.963-393.12 323.303-727.783 379.472-334.665 56.172-596.58 88.502-612.433-127.348M2880.17 433.297s-245.82-37.989-598.18 168.638c-352.37 206.628-533.41-9.292-713.87-5.44-180.46 3.852-394.41 323.415-731.286 376.523-336.877 53.112-602.633 101.382-619.148-122.217M2878.18 432.818s-241.02-35.151-590.92 169.963c-349.89 205.114-528.83-9.036-708-5.295-179.17 3.741-396.99 323.637-735.49 372.983-338.5 49.341-609.977 114.371-626.454-116.384M2876.08 431.048s-235.64-33.013-583.76 169.997c-348.13 203.009-524.26-8.781-702.14-5.151-177.77 4.921-399.57 323.86-738.995 370.033-339.421 46.173-616.029 127.253-633.058-109.961M2874.67 429.869s-230.84-30.176-576.49 171.32c-345.06 200.795-520.38-9.114-695.57-4.416-175.18 4.698-401.45 324.673-741.907 366.382C520.25 1004.86 238.621 1103.29 220.34 859.027m2652.93-430.338s-226.04-27.337-568.63 171.944c-342.59 199.281-515.81-8.858-690.3-3.57-174.48 5.288-403.44 324.194-745.41 363.432-341.966 39.239-628.835 152.425-646.968-97.706m2649.908-435.28s-221.25-24.499-562.07 172.678c-340.82 197.177-511.24-8.602-684.43-3.425-173.19 5.177-405.33 325.006-749.615 359.893-344.288 34.886-635.478 165.995-654.273-91.873M2869.77 425.739s-216.46-21.66-554.21 173.302c-337.76 194.962-506.67-8.346-678.57-3.281-171.9 5.065-407.91 325.229-753.119 356.943s-641.53 178.877-660.877-85.45M2867.78 425.26s-211.66-18.821-546.95 174.627c-335.28 193.448-502.09-8.09-672.7-3.136-169.91 5.544-409.2 325.34-756.622 353.993-347.423 28.653-647.583 191.756-668.183-79.618M2866.38 424.08s-206.87-15.983-540.39 175.362c-333.51 191.344-497.51-7.835-666.13-2.402-169.21 6.134-411.78 325.563-760.826 350.454-349.045 24.89-654.927 204.746-674.787-73.195M2864.27 422.311s-202.07-13.145-532.52 175.984c-330.45 189.129-492.94-7.578-660.27-2.257-167.33 5.322-414.36 325.786-764.33 347.504-349.966 21.718-660.979 217.628-681.391-66.772M2862.87 421.131s-197.28-10.307-525.26 177.309c-327.97 187.615-489.06-7.912-654.99-1.411-165.92 6.501-415.65 325.897-767.243 343.853-351.589 17.956-667.032 230.508-688.697-60.94m2634.79-459.991s-192.48-7.468-518.1 177.342c-325.62 184.811-484.49-7.656-649.13-1.266-164.63 6.39-418.24 326.12-770.747 340.903-352.51 14.784-673.785 242.79-695.301-54.517M2859.37 418.181s-187.69-4.63-510.84 178.667c-323.14 183.297-479.91-7.4-643.26-1.122-163.34 6.279-420.12 326.933-774.952 337.364-354.833 10.431-680.427 256.37-702.606-48.684M2857.97 417.001s-182.9-1.791-503.57 179.992c-320.67 181.782-475.35-7.145-636.7-.387-161.35 6.757-422.7 327.155-778.454 334.413-355.755 7.259-686.48 269.251-709.211-42.261M2855.97 416.523s-178.09 1.047-496.41 180.024c-318.31 178.978-470.77-6.888-630.83-.242-160.65 7.347-423.99 327.266-781.958 331.464-357.968 4.198-693.233 281.541-716.516-36.429M2854.57 415.343s-172.71 3.184-489.14 181.349c-315.84 177.464-466.2-6.632-625.56.604-159.36 7.236-426.57 327.489-785.462 328.514-358.889 1.026-699.876 295.12-723.12-30.006M2852.47 413.573s-167.92 6.022-481.29 181.973c-313.37 175.95-461.62-6.377-619.69.748-157.37 7.714-429.15 327.711-789.076 324.273-359.921-3.438-705.928 308.003-730.425-24.173M2851.07 412.393s-163.12 8.861-474.72 182.707-457.05-6.12-613.13 1.483c-156.07 7.603-430.45 327.823-792.579 321.324-362.134-6.499-711.981 320.883-737.03-17.751M2849.67 411.213s-158.33 11.7-466.87 183.331c-308.53 171.631-453.17-6.454-607.96 1.037-154.78 7.492-433.03 328.046-796.083 318.375-363.055-9.672-718.734 333.164-744.335-11.919" stroke="url(#paint0_linear_50_9725)" stroke-width=".257" stroke-miterlimit="10"/><defs><linearGradient id="paint0_linear_50_9725" x1="2868.36" y1="279.248" x2="382.065" y2="-94.521" gradientUnits="userSpaceOnUse"><stop stop-color="#11E9EF"/><stop offset=".149" stop-color="#4B1DC3"/><stop offset=".376" stop-color="#FF97B2"/><stop offset=".538" stop-color="#4319B3"/><stop offset=".705" stop-color="#F737F7"/><stop offset="1" stop-color="#3A14A3"/></linearGradient></defs></svg>