<svg width="22" height="23" fill="none" xmlns="http://www.w3.org/2000/svg"><path d="M10.86 0C7.913 0 7.542.014 6.384.067 5.226.123 4.438.311 3.747.588A5.305 5.305 0 001.823 1.88 5.517 5.517 0 00.57 3.864C.301 4.574.118 5.39.065 6.58.014 7.777 0 8.157 0 11.2c0 3.041.014 3.422.065 4.616.054 1.193.236 2.006.505 2.719.278.736.649 1.36 1.253 1.984a5.287 5.287 0 001.922 1.292c.693.277 1.48.466 2.637.52 1.159.054 1.528.068 4.478.068 2.95 0 3.318-.014 4.477-.067 1.155-.056 1.947-.244 2.638-.521a5.305 5.305 0 001.922-1.292 5.52 5.52 0 001.253-1.984c.267-.713.45-1.526.505-2.719.051-1.194.065-1.575.065-4.617s-.014-3.422-.065-4.618c-.055-1.191-.238-2.006-.505-2.717a5.515 5.515 0 00-1.253-1.984A5.297 5.297 0 0017.973.588c-.692-.277-1.482-.466-2.637-.52C14.176.013 13.809 0 10.857 0h.004-.001zm-.973 2.019h.974c2.9 0 3.243.01 4.388.064 1.059.05 1.634.232 2.017.385.506.203.869.447 1.249.839.38.392.615.764.812 1.288.15.393.325.986.373 2.078.053 1.18.064 1.535.064 4.524 0 2.988-.011 3.344-.064 4.524-.047 1.092-.225 1.684-.373 2.079a3.47 3.47 0 01-.813 1.287c-.38.392-.742.634-1.25.837-.38.154-.955.336-2.015.386-1.145.053-1.488.066-4.388.066s-3.244-.013-4.388-.066c-1.06-.05-1.634-.232-2.016-.386a3.356 3.356 0 01-1.25-.837 3.484 3.484 0 01-.814-1.288c-.148-.394-.326-.987-.373-2.08-.052-1.18-.062-1.534-.062-4.525 0-2.99.01-3.343.062-4.523.049-1.092.225-1.686.375-2.08.196-.523.433-.897.813-1.289.38-.392.741-.634 1.249-.837.382-.154.957-.336 2.016-.386 1.001-.048 1.39-.062 3.414-.063v.003zm6.77 1.859a1.269 1.269 0 00-.92.393 1.38 1.38 0 000 1.9 1.269 1.269 0 001.843 0c.244-.251.381-.593.381-.95 0-.356-.137-.698-.382-.95a1.284 1.284 0 00-.921-.393zm-5.796 1.57a5.429 5.429 0 00-2.16.412 5.565 5.565 0 00-1.84 1.241 5.764 5.764 0 00-1.232 1.877 5.908 5.908 0 000 4.444A5.765 5.765 0 006.861 15.3a5.566 5.566 0 001.84 1.24 5.43 5.43 0 002.16.413 5.498 5.498 0 003.888-1.716 5.846 5.846 0 001.603-4.036c0-1.51-.575-2.96-1.603-4.036a5.497 5.497 0 00-3.888-1.715zm0 2.018c.96 0 1.881.393 2.56 1.093.68.7 1.06 1.65 1.06 2.64 0 .99-.38 1.94-1.06 2.64-.679.7-1.6 1.094-2.56 1.094s-1.88-.393-2.56-1.094a3.794 3.794 0 01-1.06-2.64c0-.99.381-1.94 1.06-2.64.68-.7 1.6-1.093 2.56-1.093z" fill="#fff"/></svg>