<svg width="202" height="40" fill="none" xmlns="http://www.w3.org/2000/svg"><path fill-rule="evenodd" clip-rule="evenodd" d="M25.556 11.685A10 10 0 0020 10V0A20 20 0 110 20h10a10 10 0 1015.556-8.315z" fill="#7E40E6"/><path fill-rule="evenodd" clip-rule="evenodd" d="M10 0A10 10 0 010 10v10A20 20 0 0020 0H10z" fill="#7E40E6"/><path d="M61.734 28.308c-2.317 0-4.231-.77-5.742-2.31-1.51-1.54-2.266-3.44-2.266-5.698 0-2.273.755-4.173 2.266-5.698 1.51-1.54 3.425-2.31 5.742-2.31 1.393 0 2.677.33 3.85.99 1.188.645 2.112 1.525 2.772 2.64l-2.618 1.518a3.993 3.993 0 00-1.628-1.606c-.704-.396-1.496-.594-2.376-.594-1.496 0-2.706.47-3.63 1.408-.91.939-1.364 2.156-1.364 3.652 0 1.481.455 2.691 1.364 3.63.924.939 2.134 1.408 3.63 1.408.88 0 1.672-.19 2.376-.572.719-.396 1.261-.931 1.628-1.606l2.618 1.518c-.66 1.115-1.577 2.002-2.75 2.662-1.173.645-2.464.968-3.872.968zm11.365-9.416c.264-.704.697-1.232 1.298-1.584a4.05 4.05 0 012.046-.528v3.168c-.865-.103-1.643.073-2.332.528-.675.455-1.012 1.21-1.012 2.266V28H70.26V17h2.838v1.892zM85.51 17h3.036l-4.004 11c-.572 1.584-1.335 2.728-2.288 3.432-.939.719-2.112 1.041-3.52.968v-2.64c.763.015 1.364-.147 1.804-.484.455-.337.814-.88 1.078-1.628L77.107 17h3.102l2.86 7.392L85.511 17zm10.789-.308c1.48 0 2.742.565 3.784 1.694 1.056 1.115 1.584 2.486 1.584 4.114 0 1.628-.528 3.007-1.584 4.136-1.042 1.115-2.303 1.672-3.784 1.672-1.54 0-2.728-.535-3.564-1.606V32.4h-2.838V17h2.838v1.298c.836-1.07 2.024-1.606 3.564-1.606zm-2.706 8.052c.572.572 1.298.858 2.178.858.88 0 1.606-.286 2.178-.858.586-.587.88-1.335.88-2.244 0-.91-.294-1.65-.88-2.222-.572-.587-1.298-.88-2.178-.88-.88 0-1.606.293-2.178.88-.572.572-.858 1.313-.858 2.222 0 .91.286 1.657.858 2.244zm16.131-5.016h-2.486v4.576c0 .381.095.66.286.836.19.176.469.279.836.308.366.015.821.007 1.364-.022V28c-1.951.22-3.33.037-4.136-.55-.792-.587-1.188-1.635-1.188-3.146v-4.576h-1.914V17h1.914v-2.222l2.838-.858V17h2.486v2.728zm11.029 6.908c-1.129 1.115-2.508 1.672-4.136 1.672-1.628 0-3.007-.557-4.136-1.672-1.115-1.13-1.672-2.508-1.672-4.136 0-1.628.557-3 1.672-4.114 1.129-1.13 2.508-1.694 4.136-1.694 1.628 0 3.007.565 4.136 1.694 1.129 1.115 1.694 2.486 1.694 4.114 0 1.628-.565 3.007-1.694 4.136zm-6.27-1.958c.572.572 1.283.858 2.134.858s1.562-.286 2.134-.858c.572-.572.858-1.298.858-2.178 0-.88-.286-1.606-.858-2.178-.572-.572-1.283-.858-2.134-.858s-1.562.286-2.134.858c-.557.572-.836 1.298-.836 2.178 0 .88.279 1.606.836 2.178zm30.706-4.95v1.188c0 2.2-.704 3.982-2.112 5.346-1.408 1.364-3.226 2.046-5.456 2.046-2.376 0-4.348-.77-5.918-2.31-1.554-1.555-2.332-3.447-2.332-5.676 0-2.244.77-4.143 2.31-5.698 1.555-1.555 3.476-2.332 5.764-2.332 1.438 0 2.75.33 3.938.99 1.188.645 2.112 1.51 2.772 2.596l-2.596 1.496c-.366-.63-.924-1.144-1.672-1.54-.733-.396-1.554-.594-2.464-.594-1.466 0-2.676.484-3.63 1.452-.938.953-1.408 2.163-1.408 3.63 0 1.452.477 2.655 1.43 3.608.968.939 2.244 1.408 3.828 1.408 1.174 0 2.142-.257 2.904-.77a3.913 3.913 0 001.584-2.156h-4.664v-2.684h7.722zm4.866-.836c.264-.704.697-1.232 1.298-1.584a4.05 4.05 0 012.046-.528v3.168c-.865-.103-1.643.073-2.332.528-.675.455-1.012 1.21-1.012 2.266V28h-2.838V17h2.838v1.892zm13.968 7.744c-1.13 1.115-2.508 1.672-4.136 1.672-1.628 0-3.007-.557-4.136-1.672-1.115-1.13-1.672-2.508-1.672-4.136 0-1.628.557-3 1.672-4.114 1.129-1.13 2.508-1.694 4.136-1.694 1.628 0 3.006.565 4.136 1.694 1.129 1.115 1.694 2.486 1.694 4.114 0 1.628-.565 3.007-1.694 4.136zm-6.27-1.958c.572.572 1.283.858 2.134.858.85 0 1.562-.286 2.134-.858.572-.572.858-1.298.858-2.178 0-.88-.286-1.606-.858-2.178-.572-.572-1.284-.858-2.134-.858-.851 0-1.562.286-2.134.858-.558.572-.836 1.298-.836 2.178 0 .88.278 1.606.836 2.178zM174.974 17h2.838v11h-2.838v-1.232c-.689 1.027-1.782 1.54-3.278 1.54-1.203 0-2.2-.403-2.992-1.21-.777-.807-1.166-1.921-1.166-3.344V17h2.838v6.402c0 .733.198 1.298.594 1.694.396.381.924.572 1.584.572.733 0 1.32-.227 1.76-.682.44-.455.66-1.137.66-2.046V17zm11.839-.308c1.482 0 2.743.565 3.784 1.694 1.056 1.115 1.584 2.486 1.584 4.114 0 1.628-.528 3.007-1.584 4.136-1.041 1.115-2.302 1.672-3.784 1.672-1.54 0-2.728-.535-3.564-1.606V32.4h-2.838V17h2.838v1.298c.836-1.07 2.024-1.606 3.564-1.606zm-2.706 8.052c.572.572 1.298.858 2.178.858.88 0 1.606-.286 2.178-.858.587-.587.88-1.335.88-2.244 0-.91-.293-1.65-.88-2.222-.572-.587-1.298-.88-2.178-.88-.88 0-1.606.293-2.178.88-.572.572-.858 1.313-.858 2.222 0 .91.286 1.657.858 2.244z" fill="#fff"/></svg>