<svg width="22" height="23" fill="none" xmlns="http://www.w3.org/2000/svg"><path d="M15.863 14.441c2.727-1.439 4.794-2.535 4.972-2.62.57-.292 1.159-1.063 0-1.662-.374-.188-2.388-1.25-4.972-2.62l-3.583 3.476 3.583 3.426z" fill="#FFD900"/><path d="M12.28 11.015L.873 22.063c.268.034.57-.034.927-.222.748-.394 8.68-4.556 14.063-7.4l-3.583-3.426z" fill="#F43249"/><path d="M12.28 11.015l3.583-3.46S2.602.603 1.8.192A1.437 1.437 0 00.855.019L12.28 11.015z" fill="#00EE76"/><path d="M12.28 11.015L.856.02C.392.122 0 .515 0 1.32v19.44c0 .737.303 1.268.873 1.32L12.28 11.014z" fill="#00D3FF"/></svg>