<svg width="121" height="147" fill="none" xmlns="http://www.w3.org/2000/svg"><path d="M60.776 39.8c10.714 0 19.4-8.686 19.4-19.4 0-10.714-8.686-19.4-19.4-19.4-10.715 0-19.4 8.686-19.4 19.4 0 10.714 8.685 19.4 19.4 19.4z" stroke="#8338EC" stroke-width=".6" stroke-miterlimit="10"/><path d="M81.23 25.517c1.114-11.322-7.16-21.405-18.483-22.52-11.322-1.114-21.405 7.161-22.52 18.483C39.114 32.803 47.389 42.886 58.71 44c11.323 1.115 21.405-7.16 22.52-18.483z" stroke="#8338EC" stroke-width=".6" stroke-miterlimit="10"/><path d="M82.275 30.7c-2.2 11.9-13.6 19.8-25.5 17.5-11.9-2.2-19.7-13.7-17.5-25.6 2.1-11.9 13.6-19.7 25.5-17.5 11.9 2.2 19.7 13.7 17.5 25.6z" stroke="#8338EC" stroke-width=".6" stroke-miterlimit="10"/><path d="M83.376 35.9c-3.3 12.5-16.2 20-28.7 16.6-12.5-3.3-19.9-16.2-16.6-28.7 3.3-12.5 16.2-20 28.7-16.6 12.5 3.4 20 16.1 16.6 28.7z" stroke="#8338EC" stroke-width=".6" stroke-miterlimit="10"/><path d="M84.475 41c-4.4 13.1-18.7 20.1-31.8 15.7-13.1-4.4-20.1-18.7-15.7-31.8 4.5-13.1 18.7-20.1 31.8-15.7 13.1 4.5 20.2 18.7 15.7 31.8z" stroke="#8338EC" stroke-width=".6" stroke-miterlimit="10"/><path d="M85.576 46.2c-5.6 13.7-21.2 20.3-34.9 14.7-13.7-5.5-20.3-21.2-14.7-34.9 5.5-13.7 21.1-20.3 34.8-14.7 13.7 5.5 20.4 21.1 14.8 34.9z" stroke="#8338EC" stroke-width=".6" stroke-miterlimit="10"/><path d="M86.675 51.3c-6.7 14.3-23.7 20.5-38 13.8-14.3-6.7-20.5-23.7-13.8-38 6.7-14.3 23.7-20.5 38-13.8 14.3 6.7 20.5 23.7 13.8 38z" stroke="#8338EC" stroke-width=".6" stroke-miterlimit="10"/><path d="M87.775 56.5c-7.8 14.9-26.2 20.7-41.1 12.9-14.9-7.8-20.7-26.2-12.9-41.1 7.8-14.9 26.2-20.7 41.1-12.9 14.9 7.7 20.7 26.1 12.9 41.1z" stroke="#8338EC" stroke-width=".6" stroke-miterlimit="10"/><path d="M88.876 61.6c-8.9 15.5-28.7 20.9-44.2 12-15.5-8.9-20.9-28.7-12-44.2 8.9-15.5 28.7-20.9 44.2-12 15.5 8.9 20.9 28.7 12 44.2z" stroke="#8338EC" stroke-width=".6" stroke-miterlimit="10"/><path d="M89.975 66.8c-10 16.1-31.2 21.1-47.3 11.1-16.2-10-21.1-31.2-11.1-47.4 10-16.2 31.2-21.1 47.3-11 16.1 10.1 21.1 31.2 11.1 47.3z" stroke="#8338EC" stroke-width=".6" stroke-miterlimit="10"/><path d="M90.975 71.9c-11.1 16.8-33.6 21.3-50.4 10.2-16.7-11.1-21.2-33.7-10.1-50.4 11.1-16.8 33.7-21.3 50.4-10.2 16.7 11.1 21.3 33.7 10.1 50.4z" stroke="#8338EC" stroke-width=".6" stroke-miterlimit="10"/><path d="M92.076 77.1c-12.2 17.3-36.2 21.5-53.5 9.2-17.3-12.2-21.5-36.2-9.2-53.5 12.2-17.3 36.2-21.5 53.5-9.2 17.299 12.2 21.499 36.2 9.2 53.5z" stroke="#8338EC" stroke-width=".6" stroke-miterlimit="10"/><path d="M93.175 82.3c-13.3 17.9-38.7 21.7-56.6 8.3-17.9-13.4-21.6-38.8-8.3-56.7 13.4-17.9 38.7-21.6 56.6-8.3 18 13.4 21.7 38.7 8.3 56.7z" stroke="#8338EC" stroke-width=".6" stroke-miterlimit="10"/><path d="M94.275 87.4c-14.5 18.5-41.2 21.8-59.7 7.4s-21.8-41.2-7.4-59.8c14.5-18.5 41.2-21.8 59.7-7.3 18.6 14.4 21.9 41.2 7.4 59.7z" stroke="#8338EC" stroke-width=".6" stroke-miterlimit="10"/><path d="M95.376 92.6c-15.6 19.1-43.7 22-62.8 6.5-19.1-15.6-22-43.7-6.5-62.9 15.6-19.2 43.7-22.1 62.9-6.5 19.099 15.6 21.999 43.7 6.4 62.9z" stroke="#8338EC" stroke-width=".6" stroke-miterlimit="10"/><path d="M96.475 97.7c-16.7 19.7-46.2 22.2-65.9 5.5-19.7-16.7-22.2-46.2-5.5-66 16.6-19.7 46.1-22.1 65.9-5.4 19.8 16.7 22.2 46.2 5.5 65.9z" stroke="#8338EC" stroke-width=".6" stroke-miterlimit="10"/><path d="M97.576 102.9c-17.8 20.3-48.7 22.4-69 4.6-20.4-17.8-22.4-48.7-4.6-69.1 17.8-20.3 48.7-22.4 69-4.6 20.299 17.8 22.399 48.7 4.6 69.1z" stroke="#8338EC" stroke-width=".6" stroke-miterlimit="10"/><path d="M98.675 108c-18.9 21-51.2 22.6-72.1 3.7-21-18.9-22.6-51.2-3.7-72.2 18.9-21 51.2-22.6 72.1-3.7 20.9 19 22.6 51.3 3.7 72.2z" stroke="#8338EC" stroke-width=".6" stroke-miterlimit="10"/><path d="M99.775 113.2c-20 21.6-53.7 22.8-75.2 2.8-21.6-20.1-22.8-53.8-2.8-75.3 20-21.6 53.7-22.8 75.2-2.8s22.8 53.7 2.8 75.3z" stroke="#8338EC" stroke-width=".6" stroke-miterlimit="10"/><path d="M100.875 118.3c-21.1 22.2-56.2 23-78.3 1.8-22.2-21-23-56.1-1.9-78.3 21.1-22.2 56.2-23 78.3-1.8 22.1 21.2 23 56.2 1.9 78.3z" stroke="#8338EC" stroke-width=".6" stroke-miterlimit="10"/><path d="M101.975 123.5c-22.3 22.8-58.7 23.2-81.5.9-22.7-22.2-23.1-58.7-.9-81.5 22.2-22.8 58.7-23.2 81.4-.9 22.8 22.3 23.2 58.7 1 81.5z" stroke="#8338EC" stroke-width=".6" stroke-miterlimit="10"/><path d="M102.975 128.7c-23.3 23.4-61.2 23.4-84.5 0-23.3-23.4-23.3-61.2 0-84.6 23.4-23.4 61.2-23.4 84.5 0 23.4 23.3 23.4 61.2 0 84.6z" stroke="#8338EC" stroke-width=".6" stroke-miterlimit="10"/></svg>