<svg width="153" height="136" fill="none" xmlns="http://www.w3.org/2000/svg"><path d="M151.957 87.987c1.389-19.292-31.269-37.382-72.943-40.405C37.341 44.56 2.431 57.747 1.043 77.04c-1.389 19.29 31.269 37.38 72.943 40.404 41.673 3.023 76.583-10.165 77.971-29.457z" stroke="#8338EC" stroke-width=".8" stroke-miterlimit="10"/><path d="M149.183 83.989c.545-18.829-32.054-35.056-72.812-36.245C35.612 46.556 2.13 60.857 1.585 79.684c-.545 18.829 32.054 35.056 72.813 36.244 40.758 1.189 74.24-13.111 74.785-31.94z" stroke="#8338EC" stroke-width=".8" stroke-miterlimit="10"/><path d="M74.822 114.525c39.819-.646 71.857-16.12 71.56-34.56-.297-18.44-32.817-32.865-72.636-32.219-39.818.647-71.856 16.12-71.559 34.56.297 18.441 32.817 32.866 72.635 32.219z" stroke="#8338EC" stroke-width=".8" stroke-miterlimit="10"/><path d="M75.23 113.038c38.904-2.482 69.517-19.096 68.377-37.108-1.14-18.013-33.602-30.603-72.506-28.122C32.197 50.29 1.583 66.904 2.723 84.917c1.14 18.013 33.602 30.603 72.507 28.121z" stroke="#8338EC" stroke-width=".8" stroke-miterlimit="10"/><path d="M75.642 111.585c38.013-4.32 67.224-22.045 65.246-39.589-1.979-17.544-34.398-28.264-72.411-23.943C30.464 52.373 1.252 70.097 3.23 87.64c1.978 17.544 34.398 28.264 72.41 23.944z" stroke="#8338EC" stroke-width=".8" stroke-miterlimit="10"/><path d="M76.157 110.125c37.078-6.157 64.847-25.044 62.022-42.185-2.824-17.142-35.172-26.046-72.25-19.889C28.85 54.208 1.082 73.096 3.907 90.237c2.824 17.141 35.172 26.045 72.25 19.888z" stroke="#8338EC" stroke-width=".8" stroke-miterlimit="10"/><path d="M135.333 63.928c3.651 16.696-22.615 36.752-58.82 44.693-36.204 7.941-68.352.917-72.003-15.78C.86 76.145 27.125 56.09 63.33 48.148c36.103-8.043 68.352-.917 72.003 15.78z" stroke="#8338EC" stroke-width=".8" stroke-miterlimit="10"/><path d="M132.595 59.855c4.462 16.29-20.384 37.466-55.574 47.239-35.19 9.774-67.44 4.581-71.902-11.708C.555 79.2 25.4 58.023 60.693 48.25c35.19-9.875 67.338-4.581 71.902 11.606z" stroke="#8338EC" stroke-width=".8" stroke-miterlimit="10"/><path d="M129.755 55.885c5.375 15.882-18.153 38.178-52.43 49.784C43.047 117.275 11 113.915 5.626 98.135.251 82.253 23.779 59.957 58.056 48.351c34.278-11.708 66.426-8.348 71.699 7.534z" stroke="#8338EC" stroke-width=".8" stroke-miterlimit="10"/><path d="M127.017 51.914c6.186 15.475-15.82 38.89-49.185 52.33-33.365 13.438-65.411 11.911-71.598-3.462-6.186-15.475 15.82-38.89 49.186-52.33 33.365-13.54 65.411-12.012 71.597 3.462z" stroke="#8338EC" stroke-width=".8" stroke-miterlimit="10"/><path d="M124.279 47.842c6.998 14.966-13.589 39.603-46.041 54.874-32.453 15.373-64.397 15.577-71.496.611C-.256 88.362 20.33 63.826 52.783 48.453c32.452-15.373 64.397-15.577 71.496-.61z" stroke="#8338EC" stroke-width=".8" stroke-miterlimit="10"/><path d="M121.44 43.872c7.91 14.558-11.257 40.214-42.797 57.419-31.54 17.206-63.484 19.242-71.293 4.683-7.809-14.558 11.358-40.316 42.796-57.42 31.438-17.103 63.485-19.24 71.294-4.682z" stroke="#8338EC" stroke-width=".8" stroke-miterlimit="10"/><path d="M118.701 39.8c8.722 14.15-9.025 41.028-39.652 59.964-30.627 19.038-62.47 22.907-71.192 8.755-8.721-14.15 9.026-41.028 39.653-59.964 30.626-18.936 62.47-22.907 71.191-8.756z" stroke="#8338EC" stroke-width=".8" stroke-miterlimit="10"/><path d="M115.963 35.829c9.533 13.744-6.794 41.74-36.407 62.51-29.714 20.87-61.456 26.571-70.989 12.929-9.533-13.744 6.795-41.74 36.407-62.51 29.613-20.87 61.456-26.673 70.989-12.93z" stroke="#8338EC" stroke-width=".8" stroke-miterlimit="10"/><path d="M113.124 31.756c10.344 13.337-4.463 42.454-33.264 65.157-28.801 22.703-60.442 30.237-70.887 17.002-10.344-13.337 4.462-42.454 33.263-65.157 28.801-22.703 60.544-30.237 70.888-17.002z" stroke="#8338EC" stroke-width=".8" stroke-miterlimit="10"/><path d="M110.386 27.786c11.256 12.828-2.232 43.166-30.019 67.702C52.58 119.922 20.94 129.39 9.683 116.562-1.574 103.734 11.913 73.396 39.7 48.86c27.787-24.535 59.428-33.902 70.685-21.074z" stroke="#8338EC" stroke-width=".8" stroke-miterlimit="10"/><path d="M107.647 23.714c12.068 12.42.102 43.879-26.773 70.247C54 120.329 22.36 131.63 10.291 119.107c-12.068-12.42-.101-43.879 26.773-70.247 26.874-26.266 58.515-37.567 70.583-25.146z" stroke="#8338EC" stroke-width=".8" stroke-miterlimit="10"/><path d="M104.909 19.743c12.88 12.014 2.333 44.592-23.629 72.793-25.962 28.099-57.501 41.232-70.482 29.218-12.98-12.013-2.332-44.591 23.63-72.69 25.961-28.2 57.5-41.334 70.481-29.32z" stroke="#8338EC" stroke-width=".8" stroke-miterlimit="10"/><path d="M102.07 15.773c13.792 11.606 4.563 45.304-20.384 75.337-25.05 30.034-56.487 44.999-70.28 33.393-13.792-11.606-4.563-45.304 20.385-75.337 24.947-30.034 56.588-45 70.279-33.393z" stroke="#8338EC" stroke-width=".8" stroke-miterlimit="10"/><path d="M99.332 11.7c14.603 11.2 6.896 46.017-17.24 77.883-24.137 31.866-55.474 48.664-70.077 37.465-14.603-11.198-6.896-46.017 17.24-77.882C53.29 17.3 84.728.603 99.332 11.7z" stroke="#8338EC" stroke-width=".8" stroke-miterlimit="10"/><path d="M96.593 7.73c15.415 10.69 9.127 46.73-13.995 80.428s-54.458 52.329-69.974 41.537c-15.415-10.689-9.128-46.73 13.995-80.428C49.74 15.57 81.076-3.062 96.593 7.73z" stroke="#8338EC" stroke-width=".8" stroke-miterlimit="10"/><path d="M93.754 3.658C110.08 13.94 105.213 51.1 82.903 86.63c-22.311 35.531-53.546 55.994-69.772 45.711C-3.096 122.06 1.67 84.9 23.98 49.369 46.294 13.84 77.529-6.625 93.755 3.658z" stroke="#8338EC" stroke-width=".8" stroke-miterlimit="10"/></svg>