<svg width="158" height="158" fill="none" xmlns="http://www.w3.org/2000/svg"><path d="M80.6 157.6l-.3-19.6-.1-19.6-.1-39.2.1-39.2.1-19.5.3-19.6.2 19.6.1 19.5.1 39.2-.1 39.2-.1 19.6-.2 19.6z" fill="#8338EC"/><path d="M84.2 155.7L82 118.4l-1.9-37.3-1.8-37.3-.8-18.7-.7-18.6L79 43.8l2 37.3 1.7 37.3.8 18.7.7 18.6z" fill="#8338EC"/><path d="M87.9 153.9l-2.1-17.7-1.9-17.7L80 83l-3.6-35.4L73 12.1l2.1 17.7 2 17.7 3.8 35.4 3.7 35.5 1.7 17.7 1.6 17.8z" fill="#8338EC"/><path d="M91.6 152l-3-16.7-2.9-16.8L80 84.9l-5.5-33.6-2.7-16.8-2.6-16.8 3.1 16.7 2.9 16.8 5.7 33.6 5.5 33.6 5.2 33.6z" fill="#8338EC"/><path d="M95.3 150.2l-3.9-15.8-3.9-15.9-7.6-31.7-7.3-31.7L69 39.2l-3.5-15.9 7.8 31.6 7.5 31.7 7.4 31.8 3.6 15.9 3.5 15.9z" fill="#8338EC"/><path d="M99 148.3l-4.9-14.9-4.8-14.8-9.4-29.9-9.2-29.8-4.6-15-4.4-15 4.9 14.9 4.7 14.9 9.5 29.8 9.2 29.9 4.5 14.9 4.5 15z" fill="#8338EC"/><path d="M102.7 146.5l-5.8-14-5.7-13.9-11.3-27.9-11.1-28.1-5.5-14-5.4-14.1 5.8 13.9 5.7 14 11.3 27.9 11.1 28 5.5 14.1 5.4 14.1z" fill="#8338EC"/><path d="M106.4 144.6l-6.8-13-6.6-13-13.1-26-13-26.2-6.4-13.1-6.4-13.2 6.8 13 6.6 13 13.2 26.1 12.9 26.1 6.4 13.1 6.4 13.2z" fill="#8338EC"/><path d="M110.1 142.7l-7.7-12-7.6-12-15-24.2L65 70.2 57.6 58l-7.2-12.3L58 57.8l7.6 12 15 24.2 14.8 24.3 7.4 12.2 7.3 12.2z" fill="#8338EC"/><path d="M113.7 140.9l-17-22.2-16.9-22.3-25-33.7-8.2-11.4 8.6 11.1 8.5 11.1 16.8 22.4 16.7 22.4 8.3 11.3 8.2 11.3z" fill="#8338EC"/><path d="M117.4 139l-9.5-10.1-9.4-10.2-18.7-20.4-18.6-20.6L52 67.4 42.8 57l9.5 10.1 9.4 10.2 18.7 20.4 27.9 30.9 9.1 10.4z" fill="#8338EC"/><path d="M121.1 137.2l-10.4-9.2-10.3-9.2-20.6-18.6-20.5-18.7L39 62.6l10.4 9.1L59.8 81l20.6 18.6 20.4 18.7 10.2 9.4 10.1 9.5z" fill="#8338EC"/><path d="M124.8 135.3l-11.3-8.2-11.3-8.3-22.4-16.7-33.5-25.4-11-8.5 11.3 8.2 11.3 8.3 22.4 16.7 22.3 16.9 22.2 17z" fill="#8338EC"/><path d="M128.5 133.5l-12.2-7.3-12.2-7.4L79.8 104 55.6 89l-12.1-7.6-12-7.6 24.4 14.6 24.3 14.9 36.3 22.5 12 7.7z" fill="#8338EC"/><path d="M132.2 131.6l-13.2-6.3-13.1-6.4-26.1-13-26.1-13.2-13-6.6-13-6.7 13.2 6.3L54 92.2l26.1 12.9 26.1 13.2 13 6.6 13 6.7z" fill="#8338EC"/><path d="M135.9 129.8l-14.1-5.4-14-5.5-28.1-11.1-27.9-11.3-13.9-5.7-14-5.8L38 90.4l14 5.5L80.1 107l27.9 11.3 13.9 5.7 14 5.8z" fill="#8338EC"/><path d="M139.5 127.9l-14.9-4.4-44.9-13.8-29.8-9.5L35 95.5l-14.8-4.9 15 4.5 14.9 4.5 29.9 9.3 29.8 9.4 14.9 4.8 14.8 4.8z" fill="#8338EC"/><path d="M143.2 126.1l-15.9-3.6-15.8-3.6-31.8-7.3-47.5-11.4-15.8-4 31.8 7.2 31.7 7.3 47.5 11.4 15.8 4z" fill="#8338EC"/><path d="M146.9 124.2l-16.8-2.6-16.8-2.7-33.6-5.5-33.6-5.7-16.7-2.9-16.8-3 16.8 2.6 16.9 2.7 33.5 5.5 33.6 5.7 16.8 2.9 16.7 3z" fill="#8338EC"/><path d="M150.6 122.4l-17.7-1.7-53.2-5.4-35.4-3.8-17.8-2-17.6-2.1 17.7 1.7 53.2 5.4 35.4 3.8 17.7 2 17.7 2.1z" fill="#8338EC"/><path d="M154.3 120.5l-18.7-.7-18.6-.8-37.3-1.8-56-3L5.1 113l37.3 1.6 37.3 1.8 37.3 1.9 37.3 2.2z" fill="#8338EC"/><path d="M158 118.7l-19.6.2-19.6.1-39.2.1-39.1-.1-19.6-.1-19.6-.2 39.2-.4 39.1-.1 39.2.1 39.2.4z" fill="#8338EC"/><path d="M79.3 156.7l-.3-19.6-.1-19.6-.1-39.1.1-39.2.1-19.6.3-19.6.2 19.6.1 19.6.1 39.2-.1 39.1-.1 19.6-.2 19.6z" fill="#8338EC"/><path d="M82.9 154.9l-2.2-37.3-2-37.3L77 42.9l-.8-18.6-.7-18.7 2.2 37.3 2 37.3 1.7 37.3.8 18.7.7 18.7z" fill="#8338EC"/><path d="M86.6 153l-2.1-17.7-2-17.7-3.8-35.4L73.3 29l-1.6-17.8 2.1 17.7 2 17.7 3.8 35.5 3.7 35.4 1.7 17.8 1.6 17.7z" fill="#8338EC"/><path d="M90.3 151.1l-3-16.7-2.9-16.8-5.7-33.5-5.5-33.6-2.7-16.8-2.6-16.9L71 33.6l2.9 16.7 5.7 33.6 5.5 33.6 5.2 33.6z" fill="#8338EC"/><path d="M94 149.3l-7.8-31.6L78.6 86l-7.3-31.8-3.6-15.9-3.5-15.9 3.9 15.8L72 54.1l7.5 31.7 7.4 31.7 3.6 15.9 3.5 15.9z" fill="#8338EC"/><path d="M97.7 147.4l-4.9-14.8-4.8-14.9-9.4-29.8L64.8 43l-4.4-15 4.9 14.9L70 57.8l9.5 29.8 9.2 29.9 4.5 14.9 4.5 15z" fill="#8338EC"/><path d="M101.4 145.6l-5.8-13.9-5.7-14-11.3-27.9-11.1-28L62 47.7l-5.4-14 5.8 13.9 5.7 13.9 11.3 28 11.1 28 5.5 14 5.4 14.1z" fill="#8338EC"/><path d="M105.1 143.7l-6.8-12.9-6.6-13-13.1-26.1-13-26.2-12.8-26.2 6.8 12.9 6.6 13 13.2 26.1 12.9 26.2 12.8 26.2z" fill="#8338EC"/><path d="M108.8 141.9l-7.7-12-7.6-12.1-15-24.2-14.8-24.3-7.4-12.2-7.2-12.2 15.2 24 15 24.2 14.8 24.3 7.4 12.2 7.3 12.3z" fill="#8338EC"/><path d="M112.4 140l-8.5-11-25.4-33.5-16.7-22.4-8.3-11.3-8.2-11.3 8.6 11 8.4 11.2L79.2 95l16.7 22.4 8.3 11.3 8.2 11.3z" fill="#8338EC"/><path d="M116.1 138.2l-9.5-10.1-9.4-10.2-18.7-20.5-18.6-20.6-9.2-10.3-9.2-10.4L51 66.2l9.4 10.2 18.7 20.4 18.6 20.6 9.3 10.4 9.1 10.4z" fill="#8338EC"/><path d="M119.8 136.3l-10.4-9.2-10.3-9.2-20.6-18.6L58 80.6 37.7 61.7l20.8 18.4 20.6 18.6 20.4 18.7 10.2 9.4 10.1 9.5z" fill="#8338EC"/><path d="M123.5 134.5l-22.6-16.6-22.4-16.7-22.4-16.8L45 75.9l-11-8.6 11.3 8.2 11.3 8.3L79 100.5l22.3 16.9 11.1 8.5 11.1 8.6z" fill="#8338EC"/><path d="M127.2 132.6L102.8 118l-24.3-14.9-36.3-22.5-12-7.7 12.2 7.3 12.2 7.4 24.3 14.8 24.2 15 12.1 7.6 12 7.6z" fill="#8338EC"/><path d="M130.9 130.8l-13.2-6.4-13.1-6.4-26.1-13-26.1-13.1-26-13.4 13.2 6.4 13.1 6.4 26.1 13 26.1 13.1 13 6.6 13 6.8z" fill="#8338EC"/><path d="M134.6 128.9l-14.1-5.4-14-5.5-28.1-11.1-27.9-11.3-13.9-5.7-14-5.8 14.1 5.4 14 5.5 28.1 11.1 27.9 11.3 13.9 5.7 14 5.8z" fill="#8338EC"/><path d="M138.2 127.1l-14.9-4.5-44.9-13.8-29.8-9.4-14.9-4.8-14.8-4.9 15 4.5L78.7 108l29.8 9.4 14.9 4.8 14.8 4.9z" fill="#8338EC"/><path d="M141.9 125.2l-15.9-3.5-15.9-3.6-31.7-7.4-47.5-11.4-15.8-3.9L31 98.9l15.9 3.6 31.7 7.4 31.7 7.5 31.6 7.8z" fill="#8338EC"/><path d="M145.6 123.3l-16.8-2.5-16.8-2.7-33.6-5.5-33.6-5.7-16.7-2.9-16.8-3 33.6 5.2 33.6 5.5 33.6 5.7 16.8 2.9 16.7 3z" fill="#8338EC"/><path d="M149.3 121.5l-35.5-3.4-35.4-3.7-35.4-3.8-35.5-4 17.8 1.6 53.2 5.4 35.4 3.8 17.7 2 17.7 2.1z" fill="#8338EC"/><path d="M153 119.6l-18.7-.7-18.6-.8-37.3-1.8-37.3-1.9-37.3-2.2 18.6.7 18.7.8 37.3 1.8 55.9 3 18.7 1.1z" fill="#8338EC"/><path d="M156.7 117.8l-19.6.2-19.6.1-39.2.1-39.1-.1-19.6-.1-19.6-.2 19.6-.2 19.6-.1 39.1-.1 39.2.1 19.6.1 19.6.2z" fill="#8338EC"/></svg>