<svg width="23" height="21" fill="none" xmlns="http://www.w3.org/2000/svg"><g clip-path="url(#clip0_50_9767)"><path d="M1.106 9.51l5.058 1.887 1.971 6.344c.086.428.6.514.943.257l2.83-2.315c.257-.257.685-.257 1.028 0l5.058 3.686c.343.258.857.086.943-.343l3.772-18.002c.086-.429-.343-.857-.772-.686L1.106 8.396c-.515.172-.515.943 0 1.115zm6.772.944l9.944-6.087c.172-.086.343.172.172.257l-8.144 7.63c-.257.257-.514.6-.514 1.029l-.258 2.057c0 .258-.428.343-.514 0l-1.029-3.772c-.257-.428-.085-.943.343-1.114z" fill="#fff"/></g><defs><clipPath id="clip0_50_9767"><path fill="#fff" transform="translate(.72 .3)" d="M0 0h22v19.8H0z"/></clipPath></defs></svg>