<svg width="45" height="62" fill="none" xmlns="http://www.w3.org/2000/svg"><g clip-path="url(#clip0_65_151)" opacity=".78"><path d="M29.537 19.04c0-8.883-4.804-16.535-8.483-19.04 0 0-.256-.137-.256.228C20.492 17.399 10.731 22.09 5.314 28.33-7.104 42.815 4.446 58.666 16.2 61.58c6.592 1.64-1.533-2.915-2.555-12.48-1.227-11.615 15.893-20.451 15.893-30.062z" fill="#282E5B"/><path d="M35.976 24.915c-.052-.046-.154-.046-.256 0l-.051.045c-.204 2.141-2.862 6.787-6.183 11.023C18.192 50.376 24.63 57.3 28.259 61.035c2.095 2.186 0 0 5.264-2.232.408-.183 10.22-4.828 11.293-15.35 1.073-10.248-6.234-16.67-8.84-18.538z" fill="#059BDC"/></g><defs><clipPath id="clip0_65_151"><path fill="#fff" d="M0 0h44.97v61.9H0z"/></clipPath></defs></svg>