<svg width="23" height="23" fill="none" xmlns="http://www.w3.org/2000/svg"><g clip-path="url(#clip0_50_9770)"><mask id="mask0_50_9770" style="mask-type:luminance" maskUnits="userSpaceOnUse" x="0" y="0" width="23" height="23"><path d="M22.72.2h-22v22h22V.2z" fill="#fff"/></mask><g mask="url(#mask0_50_9770)"><path fill-rule="evenodd" clip-rule="evenodd" d="M19.478 3.43A10.892 10.892 0 0011.744.242C5.719.242.815 5.118.813 11.11a10.796 10.796 0 001.46 5.434L.72 22.176l5.796-1.511a10.967 10.967 0 005.224 1.323h.005c6.025 0 10.93-4.876 10.932-10.869a10.77 10.77 0 00-3.2-7.69zm-7.734 16.722h-.003a9.11 9.11 0 01-4.625-1.259l-.332-.196-3.44.897.919-3.334-.216-.342a8.972 8.972 0 01-1.39-4.807c.003-4.98 4.079-9.033 9.091-9.033a9.052 9.052 0 016.424 2.65 8.952 8.952 0 012.66 6.39c-.003 4.981-4.08 9.034-9.088 9.034zm4.985-6.765c-.273-.136-1.616-.793-1.867-.884-.25-.09-.432-.136-.614.136s-.706.884-.865 1.065c-.16.181-.32.204-.592.068-.273-.136-1.153-.423-2.197-1.348-.812-.72-1.36-1.61-1.52-1.881-.16-.272-.017-.42.12-.554.122-.122.273-.318.41-.476.137-.159.182-.272.273-.453.091-.181.045-.34-.023-.476-.068-.136-.614-1.473-.842-2.016-.222-.53-.447-.458-.614-.467a12.4 12.4 0 00-.524-.009c-.183 0-.478.068-.729.34-.25.272-.956.93-.956 2.265 0 1.337.979 2.628 1.116 2.81.136.181 1.926 2.924 4.666 4.1a15.7 15.7 0 001.557.573c.655.207 1.25.178 1.72.108.526-.078 1.617-.657 1.845-1.292.227-.634.227-1.178.159-1.291-.068-.113-.25-.182-.523-.318z" fill="#fff"/></g></g><defs><clipPath id="clip0_50_9770"><path fill="#fff" transform="translate(.72 .2)" d="M0 0h22v22H0z"/></clipPath></defs></svg>