<svg width="116" height="96" fill="none" xmlns="http://www.w3.org/2000/svg"><path d="M74 6h4v14h-4V6z" fill="#87CEE9"/><path d="M8 28h80v56H8V28z" fill="#F9BB4B"/><path d="M104 52l-4-24H88v56h28V58l-12-6z" fill="#D3843D"/><path d="M0 20h108v8H0v-8z" fill="#E1462B"/><path d="M104 52l-4-24H88v24h16z" fill="#CFDFE8"/><path d="M104 64h12v-6l-12-6v12z" fill="#FCF05A"/><path d="M94 58h4v4h-4v-4z" fill="#F4F4E6"/><path d="M0 76h116v8H0v-8z" fill="#E1462B"/><path d="M28 96c6.627 0 12-5.373 12-12s-5.373-12-12-12-12 5.373-12 12 5.373 12 12 12z" fill="#394D5C"/><path d="M28 88a4 4 0 100-8 4 4 0 000 8z" fill="#FCF05A"/><path d="M88 96c6.627 0 12-5.373 12-12s-5.373-12-12-12-12 5.373-12 12 5.373 12 12 12z" fill="#394D5C"/><path d="M88 88a4 4 0 100-8 4 4 0 000 8z" fill="#FCF05A"/><path d="M40.618 65.87L77.898 62c.066-.664.102-1.338.102-2.022C78 46 72 36 58 36c-.73.002-1.459.043-2.184.124L40.334 65.368c.09.17.19.334.284.502z" fill="#FFD782"/><path d="M8 64h26v4H8v-4zm0-8h30v4H8v-4z" fill="#FCF05A"/><path d="M64 48a4 4 0 110-8 4 4 0 010 8zM54 62a4 4 0 110-8 4 4 0 010 8z" fill="#55B56A"/><path d="M64 52h4v4h-4v-4z" fill="#E1462B"/><path d="M56 20L80 8V0L40 20h16z" fill="#F9BB4B"/><path d="M40 20H4l4-8h28l4 8z" fill="#D3843D"/><path d="M16 36h24v12H16V36z" fill="#F4F4E6"/></svg>