<svg width="112" height="80" fill="none" xmlns="http://www.w3.org/2000/svg"><path d="M24 80c8.284 0 15-6.716 15-15 0-8.284-6.716-15-15-15-8.284 0-15 6.716-15 15 0 8.284 6.716 15 15 15z" fill="#394D5C"/><path d="M24.5 70a5.5 5.5 0 100-11 5.5 5.5 0 000 11z" fill="#FCF05A"/><path d="M91.665 14.617L88 6.757 91.28 5 96 15l-4.335-.383z" fill="#195C85"/><path d="M9.5 0L2 7.556V34h30V7.556L24.5 0h-15z" fill="#F9BB4B"/><path d="M87 25h11v23H87V25z" fill="#195C85"/><path d="M84 13h19v11H84V13z" fill="#32B1CC"/><path d="M75.667 27H72v-8c0-.53.193-1.04.537-1.414A1.76 1.76 0 0173.833 17H83v4h-7.333v6z" fill="#394D5C"/><path d="M93 13h9v11h-9V13z" fill="#87CEE9"/><path d="M82 0h11v8H82V0z" fill="#FCF05A"/><path d="M93 80c8.284 0 15-6.716 15-15 0-8.284-6.716-15-15-15-8.284 0-15 6.716-15 15 0 8.284 6.716 15 15 15z" fill="#394D5C"/><path d="M92.5 70a5.5 5.5 0 100-11 5.5 5.5 0 000 11z" fill="#FCF05A"/><path d="M21.167 42H48v23H2v-3.833A19.167 19.167 0 0121.167 42z" fill="#87CEE9"/><path d="M47 57h23v8H47v-8z" fill="#32B1CC"/><path d="M112 55.417H85.273V65H70v-7.667C73.818 47.75 81.454 42 91 42h3.818C104.364 42 112 48.007 112 55.417z" fill="#87CEE9"/><path d="M21 41.667L24.79 34H57s-7.579 7.667 0 23h-9.474V41.667H21z" fill="#195C85"/><path d="M32 27h30v8H32v-8z" fill="#66342E"/><path d="M0 32h34v4H0v-4z" fill="#AD6327"/><path d="M13 8h8v7.333c0 .973-.421 1.905-1.172 2.593C19.078 18.614 18.061 19 17 19c-1.06 0-2.078-.386-2.828-1.074-.75-.688-1.172-1.62-1.172-2.593V8z" fill="#E97424"/><path d="M32 8H2l7.5-8h15L32 8z" fill="#FFD782"/><path d="M8 25h4v4H8v-4z" fill="#F4F4E6"/></svg>