<svg width="77" height="88" fill="none" xmlns="http://www.w3.org/2000/svg"><path d="M76.51 51h-15s-3-39 15-51v51z" fill="#87CEE9"/><path d="M76.51 82.5a4.5 4.5 0 01-4.5 4.5h-3a4.212 4.212 0 01-4.5-4.5l3-31.5h9v31.5z" fill="#D9176C"/><path d="M69.01 79.5h3v3h-3v-3zm0-6h3v3h-3v-3z" fill="#FCF05A"/><path d="M70.51 46.5h-4.5v-3h3v-15h3V45a1.5 1.5 0 01-1.5 1.5z" fill="#F4F4E6"/><path d="M51.01 0v21h-6V9a13.14 13.14 0 00-3-9 13.14 13.14 0 00-3 9v12h-6V0s-6 4.5-6 9v12a6 6 0 006 6h18a6 6 0 006-6V9c0-4.5-6-9-6-9z" fill="#87CEE9"/><path d="M42.01 87a5.95 5.95 0 01-6-6l3-39h6l3 39a5.95 5.95 0 01-6 6z" fill="#D9176C"/><path d="M39.01 27h6v15h-6V27z" fill="#32B1CC"/><path d="M40.51 79.5h3v3h-3v-3zm0-6h3v3h-3v-3z" fill="#FCF05A"/><path d="M10.525 87a5.951 5.951 0 01-6-6l3-39h6l3 39a5.95 5.95 0 01-6 6z" fill="#D9176C"/><path d="M9.01 79.5h3v3h-3v-3zm0-6h3v3h-3v-3z" fill="#FCF05A"/><path d="M21 15c0-8.285-4.701-15-10.5-15S0 6.715 0 15c0 6.8 3.168 14.669 7.51 16.508v10.5h6V31.5C17.841 29.65 21 21.789 21 15z" fill="#87CEE9"/><path d="M4.52 19.665c-.702-6.313.075-10.779 2.307-13.272A5.235 5.235 0 0110.51 4.5l.046 3a2.481 2.481 0 00-1.582.995c-.884 1.05-2.25 3.868-1.473 10.84l-2.982.33z" fill="#F4F4E6"/></svg>