<svg width="116" height="88" fill="none" xmlns="http://www.w3.org/2000/svg"><path d="M104 44L94 24H14l-6 6v34h104V48l-8-4z" fill="#394D5C"/><path d="M0 64h8v8H0v-8z" fill="#E1462B"/><path d="M8 64h108v12H8V64z" fill="#7D8D9C"/><path d="M94 44H68V32h20l6 12z" fill="#CDEEF6"/><path d="M52 32h16v12H52V32z" fill="#F4F4E6"/><path d="M28 32h24v12H28V32z" fill="#CDEEF6"/><path d="M14 30h8v4h-8v-4zm0 8h8v4h-8v-4zm0 8h8v4h-8v-4z" fill="#F4F4E6"/><path d="M74 50h8v4h-8v-4zm-12 0h8v4h-8v-4z" fill="#32B1CC"/><path d="M100 56h12v8h-12v-8z" fill="#E97424"/><path d="M54 50h4v4h-4v-4z" fill="#32B1CC"/><path d="M28 88c6.627 0 12-5.373 12-12s-5.373-12-12-12-12 5.373-12 12 5.373 12 12 12z" fill="#394D5C"/><path d="M28 80a4 4 0 100-8 4 4 0 000 8z" fill="#FCF05A"/><path d="M96 88c6.627 0 12-5.373 12-12s-5.373-12-12-12-12 5.373-12 12 5.373 12 12 12z" fill="#394D5C"/><path d="M96 80a4 4 0 100-8 4 4 0 000 8z" fill="#FCF05A"/><path d="M70 24H22v-4l48-8v12z" fill="#7D8D9C"/><path d="M22 20l60-10V0L22 10v10z" fill="#394D5C"/><path d="M28 58H14v-4h12v-2a2 2 0 012-2h22v4H30v2a2 2 0 01-2 2z" fill="#32B1CC"/></svg>