<svg width="96" height="96" fill="none" xmlns="http://www.w3.org/2000/svg"><path d="M3.31 29.793h89.38v59.586H3.31V29.793z" fill="#32B1CC"/><path d="M0 19.862h96v9.931H0v-9.93z" fill="#E1462B"/><path d="M43.034 29.793h9.931v8.276a4.966 4.966 0 01-9.93 0v-8.276z" fill="#F98C96"/><path d="M52.966 29.793h9.93v8.276a4.965 4.965 0 11-9.93 0v-8.276z" fill="#F4F4E6"/><path d="M62.897 29.793h9.93v8.276a4.965 4.965 0 11-9.93 0v-8.276z" fill="#F98C96"/><path d="M72.828 29.793h9.93v8.276a4.966 4.966 0 01-9.93 0v-8.276z" fill="#F4F4E6"/><path d="M82.759 29.793h9.93v8.276a4.966 4.966 0 01-9.93 0v-8.276zm-79.449 0h9.931v8.276a4.966 4.966 0 01-9.93 0v-8.276z" fill="#F98C96"/><path d="M13.241 29.793h9.931v8.276a4.965 4.965 0 11-9.93 0v-8.276z" fill="#F4F4E6"/><path d="M23.172 29.793h9.931v8.276a4.966 4.966 0 01-9.93 0v-8.276z" fill="#F98C96"/><path d="M33.103 29.793h9.931v8.276a4.966 4.966 0 01-9.93 0v-8.276z" fill="#F4F4E6"/><path d="M0 89.38h96V96H0v-6.62z" fill="#D3843D"/><path d="M48 19.862c11.884 0 21.517-4.446 21.517-9.931C69.517 4.446 59.884 0 48 0S26.483 4.446 26.483 9.931c0 5.485 9.633 9.931 21.517 9.931z" fill="#FFD782"/><path d="M33.103 8.276h3.31v3.31h-3.31v-3.31zm6.621 0h16.552v3.31H39.724v-3.31zm19.862 0h3.31v3.31h-3.31v-3.31z" fill="#E97424"/><path d="M3.31 49.655h33.104v29.793H3.31V49.655zm56.276 0H92.69v29.793H59.586V49.655z" fill="#CDEEF6"/><path d="M36.414 56.276h23.172v33.103H36.414V56.276z" fill="#195C85"/><path d="M36.414 49.655h23.172v6.621H36.414v-6.62z" fill="#87CEE9"/><path d="M23.503 65.545l-3.64-4.855-3.642 4.855-2.649-1.987 4.966-6.62a1.714 1.714 0 012.648 0l4.966 6.62-2.649 1.987z" fill="#394D5C"/><path d="M41.38 71.172h3.31v3.31h-3.31v-3.31z" fill="#FCF05A"/><path d="M11.586 62.897h16.552v9.93H11.586v-9.93z" fill="#E97424"/></svg>