<svg width="96" height="96" fill="none" xmlns="http://www.w3.org/2000/svg"><path d="M80.209 76.644a6.188 6.188 0 100-12.375 6.188 6.188 0 000 12.375zm-62.771 0a6.188 6.188 0 100-12.375 6.188 6.188 0 000 12.375zm69.187-46.55h-6.812V46.03h15.666l-8.854-15.937z" fill="#111"/><path d="M74.188 51.656V30.094h-9.77v40.362h3.978c0-6.513 5.3-11.812 11.813-11.812 6.513 0 11.812 5.299 11.812 11.812H96v-18.8H74.187zM0 70.456h5.625c0-6.513 5.3-11.812 11.813-11.812 6.513 0 11.812 5.299 11.812 11.812h29.542v-51.1H0v51.1zM10.459 47.77h2.78c.433-7.545 6.056-13.717 13.345-15v-3.852h5.625v3.852c7.289 1.283 12.912 7.455 13.345 15h2.78v5.625H10.459V47.77z" fill="#111"/><path d="M29.396 38.145c-5.508 0-10.042 4.238-10.518 9.625h21.036c-.476-5.387-5.01-9.625-10.518-9.625z" fill="#111"/></svg>