<svg width="140" height="90" fill="none" xmlns="http://www.w3.org/2000/svg"><path d="M11.38 43.1l12.563-21.996A2.811 2.811 0 0126.179 20H140v54.026A3.98 3.98 0 01136.014 78H3.577A3.572 3.572 0 010 74.434V53.387c0-.63.284-1.227.772-1.626l10.609-8.66z" fill="#EFEFEF"/><path d="M.763 51.76L11.25 43.1l12.415-21.996A2.772 2.772 0 0125.874 20H42L27.28 46.348l-10.484 8.66c-.484.4-.764.996-.764 1.626v21.048c0 .107.007.213.016.318H3.535C1.584 78 0 76.404 0 74.434V53.387c0-.63.28-1.227.763-1.626z" fill="#E2E2E2"/><path d="M13.222 71.222c4.296-4.296 11.26-4.296 15.556 0 4.296 4.296 4.296 11.26 0 15.557-4.296 4.295-11.26 4.295-15.556 0-4.296-4.296-4.296-11.261 0-15.557z" fill="#31363B"/><path d="M21.001 84a4.97 4.97 0 003.537-1.464 5.005 5.005 0 000-7.072A4.97 4.97 0 0021 74a4.97 4.97 0 00-3.536 1.464A4.971 4.971 0 0016 79c0 1.336.52 2.592 1.465 3.536A4.972 4.972 0 0021 84z" fill="#E2E2E2"/><path d="M0 58h7.796c1.417 0 2.466 1.194 2.146 2.443l-1.026 4.013C8.685 65.359 7.795 66 6.769 66H0v-8z" fill="#EFA335"/><path d="M35.22 19.533a1.22 1.22 0 01-1.169-1.566L38.873 1.74A2.428 2.428 0 0141.202 0h94.787A4.009 4.009 0 01140 4.006v69.988A4.009 4.009 0 01135.989 78H54.077V21.537a2.005 2.005 0 00-2.007-2.004H35.22z" fill="#FC4E51"/><path d="M70 20.778V78H53.976V21.988A1.981 1.981 0 0052 20h17.225c.428 0 .775.348.775.778zm-35.948-2.381l4.93-16.617A2.482 2.482 0 0141.361 0H58a2.48 2.48 0 00-2.38 1.78L50.215 20H35.248a1.248 1.248 0 01-1.196-1.603z" fill="#EA3942"/><path d="M48 28.601V45.4c0 .331-.256.6-.571.6H24.295c-1.757 0-2.862-1.995-1.991-3.602l7.63-14.094a.568.568 0 01.497-.304H47.43c.315 0 .571.269.571.601z" fill="#33D8DD"/><path d="M111.222 71.222c4.296-4.296 11.26-4.296 15.556 0 4.296 4.296 4.296 11.26 0 15.556-4.296 4.296-11.26 4.296-15.556 0-4.296-4.296-4.296-11.26 0-15.556z" fill="#31363B"/><path d="M119.001 84c1.336 0 2.591-.52 3.537-1.464a5.007 5.007 0 000-7.072A4.974 4.974 0 00119.001 74a4.97 4.97 0 00-3.536 1.464A4.964 4.964 0 00114 79c0 1.336.521 2.592 1.465 3.536A4.968 4.968 0 00119.001 84z" fill="#E2E2E2"/><path d="M132 20H64v36h68V20z" fill="#F3E8D7"/><path d="M80 20H64v36h16V20z" fill="#E5D8C6"/><path d="M127.001 34c3.865 0 6.999-3.523 6.999-7.87V22h-14v4.13c0 4.347 3.134 7.87 7.001 7.87z" fill="#EFA335"/><path d="M113.001 34c3.866 0 6.999-3.523 6.999-7.87V22h-14v4.13c.001 4.347 3.134 7.87 7.001 7.87z" fill="#FFC064"/><path d="M99 34c3.866 0 7-3.523 7-7.87V22H92v4.13c0 4.347 3.133 7.87 7 7.87z" fill="#EFA335"/><path d="M83 34c3.866 0 7-3.523 7-7.87V22H76v4.13c0 4.347 3.134 7.87 7 7.87z" fill="#FFC064"/><path d="M69 34c3.867 0 7-3.523 7-7.87V22H62v4.13c0 4.347 3.134 7.87 7 7.87z" fill="#EFA335"/><path d="M65.981 13.24c.276-.748.95-1.24 1.697-1.24h60.645c.748 0 1.42.492 1.697 1.24L134 24H62l3.981-10.76z" fill="#FD8F31"/><path d="M132.837 54H61.163C60.52 54 60 54.553 60 55.235v5.529c0 .683.52 1.236 1.163 1.236h71.674c.642 0 1.163-.553 1.163-1.236v-5.529c0-.682-.521-1.235-1.163-1.235z" fill="#DFEDE7"/><path d="M61.139 54H76v8H61.139c-.63 0-1.139-.553-1.139-1.235v-5.53c0-.682.51-1.235 1.139-1.235z" fill="#CEDDD6"/></svg>