<svg width="54" height="54" fill="none" xmlns="http://www.w3.org/2000/svg"><g clip-path="url(#clip0_47_25)" fill="#EA3942"><path d="M28.596 17.482V15h-3.192v2.482C20.64 18.218 17 22.199 17 27h20c0-4.8-3.64-8.782-8.404-9.518zM7.565 17.5H12v-3.167H7.565v-3.166h3.103V8H1.332v3.167h3.103v3.166H0V17.5h4.435v3.167H0v3.166C0 25.583 1.401 27 3.13 27h5.74c1.729 0 3.13-1.418 3.13-3.167v-3.166H7.565V17.5zM29.536 5.145c.319.664.319 1.918 0 2.581L32.472 9c.704-1.462.704-3.667-.001-5.131l-.007-.014c-.319-.663-.319-1.918 0-2.581L29.528 0c-.704 1.462-.704 3.667.001 5.131l.007.014zm-8 0c.319.664.319 1.918 0 2.581L24.472 9c.704-1.462.704-3.667-.001-5.131l-.007-.014c-.319-.663-.319-1.918 0-2.581L21.528 0c-.704 1.462-.704 3.667.001 5.131l.007.014zM0 41.332h4.746V54h6.328v-4.65h31.852V54h6.328V41.332H54V30H0v11.332zm11.074 0h31.852v4.81H11.074v-4.81zM54 17.25V14H42v3.25c0 1.795 1.401 3.25 3.13 3.25H42v3.25c0 1.795 1.401 3.25 3.13 3.25h5.74c1.729 0 3.13-1.455 3.13-3.25V20.5h-3.13c1.729 0 3.13-1.455 3.13-3.25z"/></g><defs><clipPath id="clip0_47_25"><path fill="#fff" d="M0 0h54v54H0z"/></clipPath></defs></svg>