<svg width="54" height="54" fill="none" xmlns="http://www.w3.org/2000/svg"><g clip-path="url(#clip0_47_48)" fill="#EA3942"><path d="M33.286 16.652l-4.006-3.357V10h-4.56v3.295l-4.005 3.357A4.779 4.779 0 0019 20.322V25h16v-4.678c0-1.42-.625-2.757-1.714-3.67zM44.103 7h4.794V3.053H50V0h-7v3.053h1.103V7zm8.182 9.652l-4.005-3.357V10h-4.56v3.295l-4.006 3.357A4.779 4.779 0 0038 20.322V25h16v-4.678c0-1.42-.625-2.757-1.715-3.67zM19 45h16V29H19v16zm4.127-9.589h7.746v3.178h-7.746v-3.178zM25.103 7h4.794V3.053H31V0h-7v3.053h1.103V7zm-10.817 9.652l-4.006-3.357V10H5.72v3.295l-4.005 3.357A4.779 4.779 0 000 20.322V25h16v-4.678c0-1.42-.625-2.757-1.714-3.67zM6.103 7h4.794V3.053H12V0H5v3.053h1.103V7zM38 48h16v6H38v-6zM0 48h16v6H0v-6zm19 0h16v6H19v-6zm19-3h16V29H38v16zm4.127-9.589h7.746v3.178h-7.746v-3.178zM0 45h16V29H0v16zm4.127-9.589h7.746v3.178H4.127v-3.178z"/></g><defs><clipPath id="clip0_47_48"><path fill="#fff" d="M0 0h54v54H0z"/></clipPath></defs></svg>