<svg width="54" height="54" fill="none" xmlns="http://www.w3.org/2000/svg"><path d="M1 51.509V54h17.106l.894-.843L7.9 45 1 51.509zm40.099-24.284l-10.267 10.2H18l-.813-8.549A4.278 4.278 0 0012.9 25h-.116v10.112L9 38.872v2.767L21.095 51l12.754-7.915L47 27.048a4.333 4.333 0 00-5.901.177zm7.766-8.398v-.721c0-8.762-7.144-15.866-15.957-15.866h-3.312V0h-3.192v2.24h-3.312c-8.813 0-15.957 7.104-15.957 15.866v.72H3V22h50v-3.173h-4.135zm-27.701-8.125c-3.336 0-6.05 2.698-6.05 6.015v.576h-3.192v-.576c0-5.066 4.146-9.188 9.242-9.188v3.173z" fill="#EA3942"/></svg>