<svg width="237" height="51" fill="none" xmlns="http://www.w3.org/2000/svg"><path d="M87.984 46v-9.522h5.833v.99h-4.716v3.2h4.456v.99h-4.456v3.352h4.78V46h-5.897zm13.148 0h-1.225l-3.904-9.522h1.18l3.34 8.316 3.332-8.316h1.181L101.132 46zm6.217 0v-9.522h5.833v.99h-4.716v3.2h4.456v.99h-4.456v3.352h4.78V46h-5.897zm17.001 0h-1.181l-5.985-7.776V46h-1.118v-9.522h1.181l5.986 7.776v-7.776h1.117V46zm6.299 0h-1.117v-8.531h-3.059v-.99h7.236v.99h-3.06V46zm4.732-.927l.539-.857c.275.225.55.41.825.559.275.148.555.258.838.33.288.072.58.108.876.108.432 0 .808-.072 1.13-.216.326-.144.58-.343.762-.597.182-.258.273-.554.273-.888 0-.364-.104-.665-.311-.902a2.565 2.565 0 00-.794-.615c-.326-.17-.673-.33-1.041-.483a19.52 19.52 0 01-.92-.419 4.669 4.669 0 01-.832-.514 2.306 2.306 0 01-.59-.717c-.148-.28-.222-.616-.222-1.01 0-.503.127-.947.381-1.332a2.56 2.56 0 011.053-.902c.453-.216.974-.324 1.562-.324.398 0 .798.053 1.2.16.402.1.791.25 1.168.45l-.457.914a4.049 4.049 0 00-.934-.4 3.41 3.41 0 00-.952-.14c-.372 0-.7.064-.984.19a1.568 1.568 0 00-.66.521c-.156.22-.235.478-.235.775 0 .33.096.607.286.831.195.224.444.42.749.584.309.161.635.318.978.47.325.144.647.296.964.457.322.157.612.343.87.559.262.211.472.465.628.761.157.296.235.654.235 1.073 0 .537-.135 1.01-.406 1.416-.271.402-.652.715-1.143.939-.486.224-1.057.336-1.713.336a4.84 4.84 0 01-1.644-.279 5.113 5.113 0 01-1.479-.838zm21.129.286l-.578.831a34.334 34.334 0 01-1.688-1.206 4.551 4.551 0 01-1.352.902 3.913 3.913 0 01-1.536.304c-.601 0-1.139-.118-1.612-.355a2.799 2.799 0 01-1.118-.978 2.568 2.568 0 01-.406-1.422c0-.435.087-.812.26-1.13a2.9 2.9 0 01.692-.825c.284-.236.586-.452.908-.647a7 7 0 01-.692-1.295 3.228 3.228 0 01-.235-1.149 2.03 2.03 0 011.073-1.828 2.337 2.337 0 011.136-.273c.423 0 .796.089 1.117.267.322.173.574.416.756.73.182.313.273.673.273 1.079 0 .444-.104.827-.311 1.149a3.213 3.213 0 01-.787.838c-.318.24-.652.47-1.003.685.33.41.723.836 1.18 1.276.462.436.982.885 1.562 1.346.241-.318.463-.68.666-1.086.208-.41.39-.859.546-1.345l.889.349a11.115 11.115 0 01-.603 1.46c-.224.444-.47.844-.736 1.2.249.181.507.367.774.558.267.19.542.379.825.565zm-5.598-5.002c.291-.17.56-.343.806-.52a2.36 2.36 0 00.596-.597c.148-.22.223-.476.223-.768 0-.356-.111-.65-.331-.883a1.102 1.102 0 00-.837-.349c-.335 0-.608.119-.819.356-.212.237-.318.544-.318.92 0 .27.057.56.172.87.118.309.287.632.508.97zm-.312 1.18a5.17 5.17 0 00-.66.521 2.35 2.35 0 00-.469.603c-.115.22-.172.472-.172.755 0 .352.091.665.273.94.182.275.432.49.749.647.318.157.677.235 1.079.235a2.81 2.81 0 001.086-.215c.351-.144.683-.356.996-.635-.592-.487-1.13-.97-1.612-1.448-.482-.482-.906-.95-1.27-1.402zm20.413 3.244c-.436.44-.957.785-1.562 1.035a5.14 5.14 0 01-1.98.374 5.224 5.224 0 01-1.981-.368 4.718 4.718 0 01-1.568-1.034 4.777 4.777 0 01-1.034-1.575 5.193 5.193 0 01-.368-1.974c0-.715.122-1.373.368-1.974.245-.605.59-1.13 1.034-1.574.445-.444.967-.79 1.568-1.035a5.224 5.224 0 011.981-.368c.711 0 1.369.125 1.974.375a4.595 4.595 0 011.561 1.028l-.78.793a3.706 3.706 0 00-2.774-1.206c-.546 0-1.05.1-1.511.299a3.563 3.563 0 00-1.206.831 3.854 3.854 0 00-.794 1.257 4.34 4.34 0 00-.279 1.574c0 .572.093 1.098.279 1.58.191.479.455.898.794 1.258a3.69 3.69 0 001.206.831 3.84 3.84 0 001.511.292 3.77 3.77 0 001.555-.317 3.66 3.66 0 001.219-.889l.787.787zM173.859 46h-1.175l3.911-9.522h1.212L181.711 46h-1.174l-1.035-2.57h-4.609L173.859 46zm1.428-3.561h3.821l-1.91-4.754-1.911 4.754zM186.671 46h-1.118v-8.531h-3.059v-.99h7.236v.99h-3.059V46zm5.175 0v-9.522h5.834v.99h-4.717v3.2h4.457v.99h-4.457v3.352h4.78V46h-5.897zm15.916 0h-1.244l-2.272-3.872h-2.565V46h-1.117v-9.522h3.612c.681 0 1.267.115 1.758.343.491.229.87.555 1.136.978.267.419.4.92.4 1.504 0 .681-.182 1.253-.546 1.714-.359.461-.865.78-1.517.959L207.762 46zm-6.081-4.862h2.425c.69 0 1.231-.163 1.625-.49.398-.325.597-.774.597-1.345s-.197-1.02-.591-1.345c-.393-.326-.937-.49-1.631-.49h-2.425v3.67zm9.568-4.66V46h-1.117v-9.522h1.117zM222.411 46h-1.181l-5.986-7.776V46h-1.117v-9.522h1.181l5.986 7.776v-7.776h1.117V46zm10.095-7.662a3.593 3.593 0 00-1.238-.787 4.158 4.158 0 00-1.504-.273 3.86 3.86 0 00-1.517.292 3.45 3.45 0 00-1.2.82 3.75 3.75 0 00-.781 1.25 4.481 4.481 0 00-.273 1.593c0 .575.091 1.107.273 1.593.182.483.438.901.768 1.257.33.355.722.63 1.174.825.453.195.95.292 1.492.292a3.73 3.73 0 001.378-.247c.423-.17.793-.407 1.11-.711.322-.31.58-.675.775-1.098.199-.428.321-.898.368-1.41h-3.491v-.882h4.481l.032.413c0 .723-.114 1.386-.343 1.986a4.592 4.592 0 01-.958 1.562c-.415.44-.906.78-1.473 1.022a4.81 4.81 0 01-1.873.355 5.012 5.012 0 01-1.936-.368 4.771 4.771 0 01-1.542-1.04 4.754 4.754 0 01-1.016-1.562 5.22 5.22 0 01-.361-1.962c0-.71.122-1.369.368-1.974a4.808 4.808 0 011.028-1.58c.44-.449.959-.796 1.555-1.041a4.998 4.998 0 011.949-.375c.664 0 1.295.114 1.892.343.6.228 1.134.556 1.599.984l-.736.723z" fill="#777"/><path d="M87.787 22V.027h13.74v3.94h-9.228v4.996h8.628v3.955h-8.628V22h-4.512zm22.347.293c-1.504 0-2.851-.327-4.043-.982a7.423 7.423 0 01-2.812-2.71c-.674-1.152-1.011-2.46-1.011-3.925 0-1.455.337-2.754 1.011-3.897a7.389 7.389 0 012.812-2.724c1.192-.664 2.539-.996 4.043-.996s2.842.332 4.014.996a7.318 7.318 0 012.783 2.724c.684 1.143 1.025 2.442 1.025 3.897 0 1.465-.341 2.773-1.025 3.926a7.351 7.351 0 01-2.783 2.71c-1.172.654-2.51.981-4.014.981zm-.014-3.765c.673 0 1.274-.166 1.801-.498a3.56 3.56 0 001.26-1.377c.313-.586.469-1.25.469-1.992 0-.732-.156-1.387-.469-1.963a3.464 3.464 0 00-1.26-1.362 3.238 3.238 0 00-1.801-.513 3.34 3.34 0 00-1.832.513 3.606 3.606 0 00-1.259 1.362c-.303.576-.454 1.23-.454 1.963 0 .742.151 1.406.454 1.992a3.721 3.721 0 001.259 1.377c.538.332 1.148.498 1.832.498zm16.575 3.765c-1.504 0-2.851-.327-4.043-.982a7.423 7.423 0 01-2.812-2.71c-.674-1.152-1.011-2.46-1.011-3.925 0-1.455.337-2.754 1.011-3.897a7.389 7.389 0 012.812-2.724c1.192-.664 2.539-.996 4.043-.996s2.842.332 4.014.996a7.318 7.318 0 012.783 2.724c.684 1.143 1.025 2.442 1.025 3.897 0 1.465-.341 2.773-1.025 3.926a7.351 7.351 0 01-2.783 2.71c-1.172.654-2.51.981-4.014.981zm-.015-3.765c.674 0 1.275-.166 1.802-.498a3.56 3.56 0 001.26-1.377c.312-.586.469-1.25.469-1.992 0-.732-.157-1.387-.469-1.963a3.464 3.464 0 00-1.26-1.362c-.527-.342-1.128-.513-1.802-.513a3.34 3.34 0 00-1.831.513 3.606 3.606 0 00-1.259 1.362c-.303.576-.454 1.23-.454 1.963 0 .742.151 1.406.454 1.992a3.721 3.721 0 001.259 1.377c.538.332 1.148.498 1.831.498zM151.386 22h-3.691l-.22-1.992a6.864 6.864 0 01-2.256 1.67c-.869.41-1.821.615-2.857.615-1.337 0-2.534-.327-3.588-.982-1.045-.663-1.87-1.572-2.476-2.724-.605-1.152-.908-2.456-.908-3.911 0-1.465.303-2.769.908-3.911.606-1.153 1.431-2.056 2.476-2.71 1.054-.664 2.251-.996 3.588-.996a6.7 6.7 0 012.667.527 6.41 6.41 0 012.153 1.435V.027h4.204V22zm-7.94-3.472c.694 0 1.319-.156 1.875-.468a3.594 3.594 0 001.348-1.275 3.435 3.435 0 00.513-1.86v-.527c0-.694-.171-1.31-.513-1.846a3.482 3.482 0 00-1.348-1.26c-.556-.313-1.181-.469-1.875-.469-.712 0-1.352.166-1.918.498a3.646 3.646 0 00-1.348 1.377c-.322.576-.484 1.236-.484 1.978 0 .732.162 1.391.484 1.977a3.791 3.791 0 001.348 1.377c.566.332 1.206.498 1.918.498zM169.449 22h-4.511V3.968h-6.475V.028h17.475v3.94h-6.489V22zm11.888 0h-4.204V7.352h3.662l.147 2.534a5.37 5.37 0 011.992-2.08c.84-.498 1.802-.747 2.886-.747.312 0 .625.024.937.073.322.039.65.102.982.19l-.528 3.78a6.622 6.622 0 00-1.831-.279c-.81 0-1.523.186-2.138.557a3.658 3.658 0 00-1.407 1.523c-.332.645-.498 1.402-.498 2.27V22zm21.761 0h-3.413l-.146-2.344a5.18 5.18 0 01-2.066 1.963c-.849.45-1.845.674-2.988.674-1.875 0-3.345-.576-4.409-1.729-1.064-1.152-1.597-2.734-1.597-4.746V7.352h4.204v7.5c0 1.142.269 2.04.806 2.695.547.644 1.289.967 2.227.967.976 0 1.748-.337 2.314-1.011.576-.684.864-1.607.864-2.769V7.352h4.204V22zm15.653-2.33a7.552 7.552 0 01-2.622 1.934c-1.035.46-2.173.689-3.413.689-1.504 0-2.852-.327-4.043-.982a7.421 7.421 0 01-2.798-2.724c-.674-1.152-1.011-2.456-1.011-3.911 0-1.465.337-2.769 1.011-3.911a7.314 7.314 0 012.798-2.71c1.191-.664 2.539-.996 4.043-.996 1.23 0 2.363.23 3.398.688a7.472 7.472 0 012.623 1.904l-2.476 2.593a3.834 3.834 0 00-1.45-1.025 4.456 4.456 0 00-1.817-.381c-.732 0-1.386.166-1.963.498a3.542 3.542 0 00-1.362 1.348c-.332.566-.498 1.22-.498 1.963 0 .751.166 1.42.498 2.006a3.618 3.618 0 001.362 1.377c.577.322 1.231.484 1.963.484.635 0 1.245-.122 1.831-.366a3.84 3.84 0 001.436-1.04l2.49 2.563zm5.882 2.33h-4.204V.027h4.204v13.506l1.436-1.728 4.219-4.453h5.258l-6.196 6.518 6.929 8.13h-5.435l-4.38-5.493-1.831 1.67V22z" fill="#222"/><path d="M5.69 22.55l6.281-10.998c.266-.348.68-.552 1.119-.552H70v27.013A1.99 1.99 0 0168.007 40H1.789A1.786 1.786 0 010 38.217V27.693c0-.315.142-.613.386-.813l5.304-4.33z" fill="#EFEFEF"/><path d="M.382 26.88l5.243-4.33 6.207-10.998A1.386 1.386 0 0112.937 11H21l-7.36 13.174-5.242 4.33c-.242.2-.382.498-.382.813v10.524c0 .054.003.106.008.159H1.768A1.775 1.775 0 010 38.217V27.693c0-.314.14-.613.382-.813z" fill="#E2E2E2"/><path d="M6.61 36.611a5.5 5.5 0 117.78 7.778 5.5 5.5 0 01-7.78-7.778z" fill="#31363B"/><path d="M10.5 43c.669 0 1.297-.26 1.769-.732a2.503 2.503 0 000-3.536A2.485 2.485 0 0010.5 38c-.668 0-1.296.26-1.769.732A2.486 2.486 0 008 40.5c0 .668.26 1.296.732 1.768.473.472 1.1.732 1.769.732z" fill="#E2E2E2"/><path d="M0 30h3.898c.709 0 1.233.597 1.073 1.222l-.513 2.006c-.116.452-.56.772-1.073.772H0v-4z" fill="#EFA335"/><path d="M17.61 10.767a.61.61 0 01-.584-.783l2.41-8.115A1.215 1.215 0 0120.601 1h47.393C69.102 1 70 1.897 70 3.003v34.994A2.004 2.004 0 0167.994 40H27.038V11.768c0-.553-.449-1.002-1.003-1.002H17.61z" fill="#FC4E51"/><path d="M35 11.39V40h-8.012V11.994A.99.99 0 0026 11h8.613c.214 0 .387.174.387.39zm-17.974-1.192l2.465-8.308c.155-.527.64-.89 1.19-.89H29a1.24 1.24 0 00-1.19.89L25.108 11h-7.484a.624.624 0 01-.598-.802z" fill="#EA3942"/><path d="M24 15.3v8.4c0 .166-.128.3-.285.3H12.148c-.88 0-1.431-.998-.996-1.8l3.815-7.048a.285.285 0 01.249-.152h8.499c.157 0 .285.134.285.3z" fill="#33D8DD"/><path d="M55.61 36.61a5.5 5.5 0 117.78 7.78 5.5 5.5 0 01-7.78-7.78z" fill="#31363B"/><path d="M59.5 43c.669 0 1.296-.26 1.769-.732a2.503 2.503 0 000-3.536A2.486 2.486 0 0059.5 38c-.668 0-1.296.26-1.769.732A2.483 2.483 0 0057 40.5c0 .668.26 1.296.732 1.768s1.1.732 1.769.732z" fill="#E2E2E2"/><path d="M66 11H32v18h34V11z" fill="#F3E8D7"/><path d="M40 11h-8v18h8V11z" fill="#E5D8C6"/><path d="M63.5 18c1.933 0 3.5-1.762 3.5-3.935V12h-7v2.065C60 16.238 61.567 18 63.5 18z" fill="#EFA335"/><path d="M56.5 18c1.933 0 3.5-1.762 3.5-3.935V12h-7v2.065C53 16.238 54.567 18 56.5 18z" fill="#FFC064"/><path d="M49.5 18c1.933 0 3.5-1.762 3.5-3.935V12h-7v2.065C46 16.238 47.567 18 49.5 18z" fill="#EFA335"/><path d="M41.5 18c1.933 0 3.5-1.762 3.5-3.935V12h-7v2.065C38 16.238 39.567 18 41.5 18z" fill="#FFC064"/><path d="M34.5 18c1.933 0 3.5-1.762 3.5-3.935V12h-7v2.065C31 16.238 32.567 18 34.5 18z" fill="#EFA335"/><path d="M32.99 7.62c.139-.374.475-.62.849-.62h30.323c.373 0 .71.246.848.62L67 13H31l1.99-5.38z" fill="#FD8F31"/><path d="M66.418 28H30.582c-.322 0-.582.276-.582.618v2.764c0 .341.26.618.582.618h35.836c.321 0 .582-.276.582-.618v-2.764c0-.341-.26-.618-.582-.618z" fill="#DFEDE7"/><path d="M30.57 28H38v4h-7.43c-.315 0-.57-.276-.57-.618v-2.764c0-.341.255-.618.57-.618z" fill="#CEDDD6"/></svg>