<svg width="14" height="18" fill="none" xmlns="http://www.w3.org/2000/svg"><g clip-path="url(#clip0_50_420)"><path d="M7.172.229C3.565.229 0 2.633 0 6.525 0 9 1.392 10.406 2.236 10.406c.348 0 .548-.97.548-1.244 0-.327-.833-1.023-.833-2.384 0-2.826 2.152-4.83 4.936-4.83 2.394 0 4.166 1.36 4.166 3.86 0 1.867-.749 5.368-3.174 5.368-.876 0-1.625-.633-1.625-1.54 0-1.329.928-2.615.928-3.986 0-2.328-3.3-1.906-3.3.907 0 .59.073 1.244.337 1.782-.485 2.088-1.477 5.2-1.477 7.351 0 .665.095 1.319.158 1.983.12.134.06.12.243.053 1.772-2.426 1.709-2.9 2.51-6.075.433.822 1.55 1.265 2.436 1.265 3.734 0 5.411-3.638 5.411-6.918 0-3.491-3.016-5.77-6.328-5.77z" fill="#fff"/></g><defs><clipPath id="clip0_50_420"><path fill="#fff" d="M0 0h13.5v18H0z"/></clipPath></defs></svg>