<svg width="50" height="50" fill="none" xmlns="http://www.w3.org/2000/svg"><g clip-path="url(#clip0_26_385)"><mask id="mask0_26_385" style="mask-type:luminance" maskUnits="userSpaceOnUse" x="0" y="0" width="50" height="50"><path d="M50 0H0v50h50V0z" fill="#fff"/><path d="M25.977 16.21a.977.977 0 11-.001 1.955.977.977 0 010-1.954zm0 5.86a.977.977 0 11-.001 1.954.977.977 0 010-1.954zM12.305 44.14a.977.977 0 11-.001 1.954.977.977 0 010-1.953z" fill="#fff"/></mask><g mask="url(#mask0_26_385)"><mask id="mask1_26_385" style="mask-type:luminance" maskUnits="userSpaceOnUse" x="0" y="0" width="50" height="50"><path d="M0 0h50v50H0V0z" fill="#fff"/></mask><g mask="url(#mask1_26_385)"><path d="M25.977 16.21a.977.977 0 11-.001 1.955.977.977 0 010-1.954zm0 5.86a.977.977 0 11-.001 1.954.977.977 0 010-1.954zM12.305 44.14a.977.977 0 11-.001 1.954.977.977 0 010-1.953z" fill="#111"/><path d="M29.883 11.328H22.07a1.953 1.953 0 00-1.953 1.953v13.672c0 1.08.874 1.953 1.953 1.953h3.907v5.86l7.812-5.86h11.719a1.953 1.953 0 001.953-1.953V13.281a1.953 1.953 0 00-1.953-1.953H29.883zm0 5.86h11.719m-11.719 5.859h11.719" stroke="#111" stroke-width="1.667" stroke-miterlimit="10" stroke-linecap="round" stroke-linejoin="round"/><path d="M29.883 31.836v13.281a3.906 3.906 0 01-3.906 3.906H6.445a3.906 3.906 0 01-3.906-3.906V4.883A3.906 3.906 0 016.445.977h19.532a3.906 3.906 0 013.906 3.906v6.445M16.21 45.117h3.907m9.766-40.234H2.539M2.54 41.21h27.343" stroke="#111" stroke-width="1.667" stroke-miterlimit="10" stroke-linecap="round" stroke-linejoin="round"/></g></g></g><defs><clipPath id="clip0_26_385"><path fill="#fff" d="M0 0h50v50H0z"/></clipPath></defs></svg>