<svg width="34" height="34" viewBox="0 0 34 34" fill="none" xmlns="http://www.w3.org/2000/svg">
<path fill-rule="evenodd" clip-rule="evenodd" d="M16.9999 5.01274C10.3796 5.01274 5.01274 10.3796 5.01274 16.9999C5.01274 23.6203 10.3796 28.9871 16.9999 28.9871C23.6203 28.9871 28.9871 23.6203 28.9871 16.9999C28.9871 10.3796 23.6203 5.01274 16.9999 5.01274ZM2.83325 16.9999C2.83325 9.17589 9.17589 2.83325 16.9999 2.83325C24.824 2.83325 31.1666 9.17589 31.1666 16.9999C31.1666 24.824 24.824 31.1666 16.9999 31.1666C9.17589 31.1666 2.83325 24.824 2.83325 16.9999Z" fill="white"/>
<path fill-rule="evenodd" clip-rule="evenodd" d="M16.9999 23.1751C17.6018 23.1751 18.0897 22.6872 18.0897 22.0854V16.2734C18.0897 15.6716 17.6018 15.1837 16.9999 15.1837C16.3981 15.1837 15.9102 15.6716 15.9102 16.2734V22.0854C15.9102 22.6872 16.3981 23.1751 16.9999 23.1751Z" fill="white"/>
<path d="M18.4529 11.9144C18.4529 11.112 17.8024 10.4615 16.9999 10.4615C16.1975 10.4615 15.5469 11.112 15.5469 11.9144C15.5469 12.7169 16.1975 13.3674 16.9999 13.3674C17.8024 13.3674 18.4529 12.7169 18.4529 11.9144Z" fill="white"/>
</svg>
