<svg width="1920" height="1086" fill="none" xmlns="http://www.w3.org/2000/svg"><g opacity=".1" filter="url(#filter0_f_808_4809)"><path d="M2131.95 824.379l-102.94 212.231c4.83 4.26 7.07 10.95 4.99 17.39-2.55 8.65-11.88 13.53-20.74 10.93-6.23-2.03-10.6-7.34-11.57-13.52l-307.87-30.24c-2.94 8.33-11.95 12.82-20.37 10.32-8.65-2.55-13.53-11.88-10.93-20.74.74-2.37 2.13-4.6 3.66-6.34l-169.45-201.275c-3.95 2.365-8.68 2.956-13.2 1.524-6.27-1.812-10.38-7.292-11.39-13.256l-383.27-5.578c-.15.659-.29 1.318-.43 1.977-2.55 8.642-11.88 13.528-20.74 10.929-8.64-2.551-13.53-11.877-10.93-20.739.65-1.929 1.51-3.811 2.77-5.379L885.277 599.024c-4.099 3.024-9.404 4.179-14.799 2.557-6.055-1.764-10.427-7.072-11.441-13.035l-314.783 8.257-.047.219c-2.552 8.643-11.877 13.529-20.74 10.93-7.764-2.362-12.369-9.789-11.639-17.445L332.02 538.673c-2.943 8.329-11.955 12.822-20.378 10.318-4.957-1.527-8.734-5.328-10.518-9.849l-460.225 141.471c.577 2.653.449 5.383-.386 8.19-2.551 8.643-11.877 13.529-20.739 10.93-8.643-2.551-13.529-11.877-10.93-20.739.645-1.93 1.463-3.592 2.72-5.16l-117.696-131.068c-3.957 2.365-8.728 3.176-13.465 1.696-8.643-2.551-13.528-11.877-10.929-20.739 2.125-6.667 7.873-10.944 14.228-11.643l-.317-199.086-.44-.095c-8.642-2.551-13.528-11.877-10.929-20.739 2.031-6.227 7.339-10.599 13.255-11.393l1.601-260.263 4.054 8.917L1.972 124.923c3.413-7.308 11.796-11.017 19.78-8.608 6.666 2.126 10.944 7.873 11.643 14.229l244.919 14.152.331-1.538c2.551-8.643 11.877-13.528 20.739-10.929 8.643 2.551 13.529 11.877 10.93 20.739-.284 1.318-.96 2.321-1.416 3.372l260.289 208.438c4.069-3.95 10.441-5.795 16.229-3.859 4.517 1.433 8.17 4.748 10.048 8.83l285.925-91.921c-.406-2.385-.277-5.116.463-7.484 2.551-8.643 11.877-13.528 20.739-10.93 8.863 2.599 13.529 11.877 10.93 20.74-.047.219-.142.658-.409.831l345.398 188.853c4.14-5.315 11.14-7.943 18.02-5.77 3.47.976 6.43 3.223 8.38 5.94l205.95-110.068c-1.14-3.233-1.27-6.936-.29-10.403 2.55-8.643 11.88-13.528 20.74-10.93 6.06 1.764 10.26 6.806 11.32 12.55l212.24-11.271c.02-1.146.26-2.244.71-3.295 2.55-8.643 11.88-13.528 20.74-10.93 8.64 2.552 13.53 11.877 10.93 20.74-.14.659-.45 1.051-.6 1.71l325.67 200.458c4.04-4.875 10.94-7.064 17.44-5.206 8.64 2.552 13.53 11.877 10.93 20.74-1.67 5.615-6.18 9.47-11.36 11.112l27.37 217.552c1.85-.06 3.65.099 5.36.697 8.64 2.551 13.53 11.877 10.93 20.739-3.29 7.795-12.39 12.728-21.04 10.176zm-119.29 209.171l-36.63-147.847-281.26 127.857c.03.93.28 1.9.05 3l29.04 2.81 278.17 27.29.47-2.2c1.62-5.4 5.47-9.39 10.16-10.91zm-425.45-624.816l320.38 227.127c.58-.564 1.16-1.128 1.96-1.645L1756.57 356.51c-3.23 1.142-6.98 1.483-10.62.239a17.172 17.172 0 01-9.41-7.541l-149.33 59.526zm106.31 599.956L1975 880.884l-53.9-217.063c-2.12.233-4.36-.02-6.51-.713-.66-.142-1.27-.503-1.93-.645l-221.6 342.717c.96.89 1.82 2.23 2.46 3.51zm241.81-356.512c-.24 1.099-.69 2.149-1.32 2.933l187.26 140.998-143.06-174.45-42.82 20.65c.92 3.186.87 6.622-.06 9.869zm39.55-34.225l-209.37-254.922 148.22 268.867c3.23-1.142 6.98-1.483 10.62-.239 3.69 1.024 6.82 3.538 8.72 6.474l41.81-20.18zm-392.94-207.138l-49.03 19.545c.58 2.652.62 5.649-.26 8.676-.05.22-.09.439-.14.659l355.24 187.986-305.81-216.866zm-4.8-3.332l-59.39-42.21c-2.06 2.085-4.46 3.636-7.38 4.386l6.47 47.817c1.59.111 3.17.223 4.66.773a17.178 17.178 0 019.41 7.542l46.23-18.308zm-84.58-43.728l-205.95 110.068s-.05.219.17.267l213.46-39.278c-.06-1.852.1-3.656.69-5.366 1.67-5.615 5.96-9.518 11.09-10.94l-6.47-47.817c-1.59-.112-3.17-.223-4.66-.774-3.42-1.196-6.16-3.396-8.33-6.16zm-236.4 122.352l-258.804 69.497 73.154 210.87c2.34-.186 4.63-.152 7 .588 1.1.237 2.15.693 2.93 1.321l179.78-276.576c-1.74-1.524-3.12-3.659-4.06-5.7zm78.62 88.409l-56.27-80.147c-3.6 1.754-8.1 2.392-12.18 1.054-.66-.142-1.27-.504-1.88-.865l-180.04 276.748.17.267 250.2-197.057zm3.88-3.071l163.85-129.021a9.897 9.897 0 01-1.24-2.794l-213.46 39.278c.07 1.851-.09 3.656-.69 5.365-.84 2.808-2.5 5.207-4.51 7.072l56.05 80.1zm2.81 4.051l139.38 198.939c2.04-.939 4.26-1.612 6.38-1.845l4.78-58.49 21.22-263.85-1.1-.237c-2.59-.787-4.59-2.139-6.55-3.71l-164.11 129.193zm161.92 206.323l99.19-32.64-83.67-298.625c-.22-.047-.71.078-.93.031L1496.7 715.8l-4.5 57.172 1.32.284c4.29 1.386 7.77 4.434 9.87 8.563zm103.88-34.157l296.1-97.542c-.41-2.386-.28-5.116.51-7.704.05-.22.09-.439.14-.659l-373.77-197.953c-1.67 2.399-3.9 4.216-6.65 5.233l83.67 298.625zm1.3 4.646l69.32 246.814c1.85-.06 3.66.098 5.59.744 1.49.554 2.98 1.104 4.15 2.044l221.02-342.15c-1.52-1.477-3-3.173-3.76-4.947l-296.32 97.495zm370.78 126.526L2121 814.435c-1.37-3.281-1.49-6.984-.42-10.89.1-.439.41-.831.51-1.27l-190.22-143.244a14.37 14.37 0 01-5.34 3.446l53.82 216.357zm124.47-303.656c-1.36-.064-2.95-.176-4.44-.727-3.68-1.024-6.82-3.538-8.71-6.474l-107.93 51.898 144.18 175.612a14.66 14.66 0 014.66-2.443l-27.76-217.866zm-340.48-223.415c-.05.22-.32.392-.32.392l216.42 263.794 108.96-52.368c-.97-2.966-.92-6.402.01-9.649.14-.659.45-1.051.59-1.71l-325.66-200.459zm-240.95 3.708a8.682 8.682 0 01-.71 3.295c-.19.878-.6 1.709-1.01 2.54l62.01 43.924 152.08-60.543c.05-.22-.17-.267-.13-.487l-212.24 11.271zm-611.934-70.692c-1.571 1.96-3.314 3.653-5.575 4.544l90.739 261.54 259.24-69.402c-.23-2.118-.2-4.409.54-6.778.05-.219.14-.659.41-.831L910.456 284.779zm-1015.18 228.754c-3.449-2.122-5.956-5.42-6.956-9.312l-119.442 16.785 51.542 146.923a14.59 14.59 0 017.187-.291l67.669-154.105zm404.749-350.142c-.753.298-1.459.375-2.213.673l21.224 352.738 2.855.615c3.027.882 5.426 2.547 7.291 4.558l124.775-73.549-153.932-285.035zm-16.174-2.794l-144.56 130.187 170.956 227.342c1.288-.642 2.528-1.064 3.94-1.22l-21.271-352.518a8.515 8.515 0 01-3.294-.71c-2.149-.692-4.031-1.558-5.771-3.081zM135.804 294.169L-82.041 490.382c1.55 2.403 2.568 5.15 2.659 7.927l380.8 29.865c.882-3.027 2.548-5.426 4.778-7.244L135.804 294.169zm-3.071-3.879L24.873 146.633c-3.109 1.629-6.734 2.456-10.296 1.919L-88.656 484.821c1.27.503 2.494 1.226 3.45 2.122l217.94-196.653zm-341.011-41.747l107.917 235.135c2.213-.672 4.552-.858 7.015-.557L9.888 146.852a16.694 16.694 0 01-6.443-5.295l-211.723 106.986zm-4.396 2.271l-83.553 42.212c.75 2.919.794 5.916-.135 9.163-.598 1.71-1.369 3.152-2.139 4.595l192.41 180.026c.314-.392.8-.517 1.334-.861l-107.917-235.135zm-2.004-4.568l-93.484-203.989-1.499 238.452 2.416.521c3.859 1.291 7.214 3.852 9.062 7.008l83.505-41.992zm-89.713 65.474l71.705 204.813 120.195-17.083c.111-1.585.223-3.169.774-4.659.598-1.71 1.149-3.2 2.139-4.595l-193.164-179.729c-.581.564-1.115.909-1.649 1.253zm638.11 222.263l180.028 51.881c1.825-4.203 5.312-7.588 9.519-8.98l-67.038-124.062-124.289 73.424c1.331 2.355 1.909 5.007 1.78 7.737zm354.761-77.551l-96.551-68.141c-3.22 3.214-7.788 5.217-12.542 4.882l-17.005 83.206-21.422 104.776c.909 1.115 1.818 2.23 2.46 3.518l145.06-128.241zm-228.029-6.147l67.68 125.349c1.852-.061 3.656.098 5.585.743 1.098.237 1.929.646 2.933 1.322l20.854-102.141 17.1-83.645c-2.761-1.054-5.16-2.72-6.977-4.95l-107.175 63.322zm278.757 136.577l120.164-3.07.615-2.856c.189-.878.598-1.709 1.007-2.54L692.446 459.355 545.109 589.633c.078.706.328 1.679.139 2.558l193.96-5.329zm147.458-299.394L696.2 455.797l167.544 118.365c2.687-2.868 6.549-4.794 10.739-5.041l19.224-278.068-1.317-.284c-2.149-.693-3.984-1.777-5.724-3.301zm4.281 291.635l100.247-26.895-90.614-261.053c-.487.125-1.193.202-1.679.327l-2.472 36.008-16.801 242.28 1.318.284c4.517 1.433 8.123 4.967 10.001 9.049zM596.589 374.128c.406 2.385.105 4.848-.635 7.217-.237 1.098-.646 1.929-1.321 2.932l97.334 68.769 191.314-169.065-1.034-1.602-285.658 91.749zM305.583 159.992c-.314.392-.848.737-1.382 1.082l153.932 285.034 106.908-63.149c-1.534-3.548-1.828-7.518-.537-11.377.237-1.098.693-2.149 1.369-3.152l-260.29-208.438zm-272.35-24.428l-.332 1.538c-.787 2.588-2.186 4.815-3.977 6.727l107.735 143.17 144.246-129.795c-1.598-2.183-2.396-4.882-2.706-7.707L33.232 135.564zM-306.21 35.324l95.88 208.871L1.347 137.428c-.845-2.48-.984-5.037-.635-7.72L-306.21 35.324zm-5.115 477.138l1.537.331c6.055 1.764 10.207 7.025 11.488 12.816l60.937-8.705-71.455-203.839c-.973.25-1.899.28-2.825.311l.318 199.086zm126.328 158.207c.267-.173.581-.565 1.068-.69l-51.965-148.162-62.569 8.813-.615 2.855c-.74 2.369-1.872 4.423-3.348 5.943l117.429 131.241zm485.748-136.204c-.125-.486-.03-.925-.108-1.632l-182.83-14.335-197.75-15.482-.237 1.098c-2.551 8.643-11.61 13.356-20.081 11.072l-67.622 153.885c3.105 1.588 5.362 3.913 7.038 6.802l461.59-141.408zm762.498 234.81c.8-.517 1.6-1.034 2.62-1.504l-73.159-210.87-100.514 27.067c.233 2.119.199 4.41-.541 6.778-.645 1.93-1.463 3.592-2.453 4.987l174.047 173.542zm408.79 17.28c.19-.879.38-1.757.52-2.416.83-2.808 2.23-5.035 4.24-6.9l-139.16-198.891-250.21 197.057c.77 1.774 1.54 3.547 1.6 5.399l383.01 5.751zm198.02 214.785c.8-.52 1.82-.98 2.84-1.454l-68.98-246.28-99.18 32.639c.4 2.385.32 4.896-.47 7.484-.74 2.368-2.14 4.595-3.66 6.335l169.45 201.276zm354.94 32.57l102.58-211.622c-1.62-1.038-2.75-2.2-4.05-3.629l-142.88 64.821 36.88 148.82c1.85-.06 3.66.1 5.58.74.62.37 1.23.73 1.89.87z" fill="#DADADA"/></g><defs><filter id="filter0_f_808_4809" x="-351.224" y=".504" width="2524.91" height="1085.13" filterUnits="userSpaceOnUse" color-interpolation-filters="sRGB"><feFlood flood-opacity="0" result="BackgroundImageFix"/><feBlend in="SourceGraphic" in2="BackgroundImageFix" result="shape"/><feGaussianBlur stdDeviation="10" result="effect1_foregroundBlur_808_4809"/></filter></defs></svg>