<svg width="48" height="48" fill="none" xmlns="http://www.w3.org/2000/svg"><g id="binance 2"><g id="Group 62" fill="#fff"><path id="Vector" d="M43.33 21.681c-.036.03-.076.057-.11.09l-4.168 4.168c-.046.046-.094.09-.128.124a90738.28 90738.28 0 01-4.399-4.399c1.45-1.45 2.92-2.918 4.4-4.4.017.014.058.046.095.083l4.271 4.274c.012.011.027.018.04.028v.032z"/><path id="Vector_2" d="M16.002 18.472l-4.416-4.416C11.636 13.969 23.45 2.134 23.626 2l12.069 12.068c-.05.089-4.186 4.245-4.403 4.413l-7.65-7.65-7.64 7.641z"/><path id="Vector_3" d="M15.987 24.826l7.649 7.65c.303-.277.576-.567.858-.846.284-.281.566-.565.848-.848l.848-.848.848-.847.86-.86.847-.847.848-.848.848-.848.862-.862 4.406 4.4-12.064 12.064L11.58 29.22l4.407-4.394z"/><path id="Vector_4" d="M23.646 26.108l-4.455-4.454 4.45-4.45 4.455 4.454-4.45 4.45z"/><path id="Vector_5" d="M4 21.646l4.379-4.379 4.383 4.384-4.378 4.379L4 21.646z"/><path id="Vector_6" d="M35.944 46h-24.62a.786.786 0 110-1.571h24.62a.786.786 0 110 1.571z"/></g></g></svg>