<svg width="48" height="48" fill="none" xmlns="http://www.w3.org/2000/svg"><g id="binance 2"><path id="Vector" d="M5.14 31.917C3.405 31.917 2 30.5 2 28.75v-1.583C2 25.417 3.405 24 5.14 24h10.13a17.5 17.5 0 00-.67 4.75c0 1.083.112 2.137.3 3.167H5.14zm3.14-19h16.438a16.989 16.989 0 015.116-1.452 3.17 3.17 0 00.507-1.715V8.167c0-1.75-1.405-3.167-3.14-3.167H8.28C6.545 5 5.14 6.417 5.14 8.167V9.75c0 1.75 1.405 3.167 3.14 3.167zm0 9.5h7.52a17.477 17.477 0 016.172-7.917H8.28c-1.735 0-3.14 1.417-3.14 3.167v1.583c0 1.75 1.405 3.167 3.14 3.167zm0 11.083c-1.735 0-3.14 1.417-3.14 3.167v1.583c0 1.75 1.405 3.167 3.14 3.167h11.773A17.45 17.45 0 0115.27 33.5H8.28zM46 28.75C46 36.606 39.66 43 31.87 43c-7.79 0-14.13-6.394-14.13-14.25 0-7.857 6.34-14.25 14.13-14.25C39.66 14.5 46 20.893 46 28.75zm-15.7-2.375a.79.79 0 01.785-.792h3.833c.866 0 1.57-.709 1.57-1.583s-.704-1.583-1.57-1.583H33.44v-1.584c0-.874-.703-1.583-1.57-1.583-.866 0-1.57.71-1.57 1.583v1.584c0 .028.014.05.016.079a3.957 3.957 0 00-3.156 3.879c0 2.182 1.762 3.958 3.925 3.958h1.478c.433 0 .785.355.785.862a.789.789 0 01-.785.791H28.73c-.866 0-1.57.71-1.57 1.584 0 .874.704 1.583 1.57 1.583h1.57v1.514c0 .874.704 1.583 1.57 1.583.867 0 1.57-.71 1.57-1.583v-1.584c0-.012-.006-.023-.008-.036 1.746-.402 3.055-1.982 3.055-3.922 0-2.182-1.761-3.958-3.924-3.958h-1.478a.789.789 0 01-.785-.792z" fill="#fff"/></g></svg>