<svg width="48" height="48" fill="none" xmlns="http://www.w3.org/2000/svg"><g id="binance 2" fill="#fff"><path id="Vector" d="M7.672 31.682a16.72 16.72 0 004.448 2.838l8.488-5.33a4.525 4.525 0 015.578.632l2.854 2.854a17.214 17.214 0 002.635-2.402l-.897-1.027c-1.488-1.7-.632-4.373 1.567-4.894l2.998-.71A16.82 16.82 0 0036 19c0-9.374-7.626-17-17-17C9.626 2 2 9.626 2 19c0 4.838 2.066 9.46 5.672 12.682zM19.76 20.5h-1.52a4.245 4.245 0 01-.74-8.424V10.5a1.5 1.5 0 013 0V12h2a1.5 1.5 0 010 3h-4.26c-.684 0-1.24.556-1.24 1.24 0 .704.556 1.26 1.24 1.26h1.52a4.245 4.245 0 01.74 8.424v1.574a1.5 1.5 0 01-3 0V26h-2a1.5 1.5 0 010-3h4.26c.684 0 1.24-.556 1.24-1.24 0-.704-.556-1.26-1.24-1.26z"/><path id="Vector_2" d="M40.5 26h-6a1.5 1.5 0 00-1.06 2.56l1.939 1.94-6.13 6.129-4.939-4.94a1.5 1.5 0 00-1.85-.214l-15.75 9.75a1.5 1.5 0 001.578 2.55l14.74-9.124 5.16 5.16a1.498 1.498 0 002.12 0l7.192-7.19 1.94 1.94A1.5 1.5 0 0042 33.5v-6a1.5 1.5 0 00-1.5-1.5z"/></g></svg>