<svg width="48" height="48" fill="none" xmlns="http://www.w3.org/2000/svg"><g id="binance 2"><g id="Group" fill="#fff"><path id="Vector" d="M22.704 17.2l-8.545-2.991c0 2.731-.023 2.712.063 2.97.118.37.399.676.775.82 9.31 3.582 8.655 3.37 9.003 3.37.345 0-.318.216 9.002-3.37.5-.191.839-.67.839-1.22v-2.427l-8.6 2.867a3.92 3.92 0 01-2.537-.019z"/><path id="Vector_2" d="M10.116 9.97c.315.208-.738-.205 13.452 4.761.273.096.569.099.846.007l12.064-4.022v7.376c0 .36.146.689.383.925.82.82 2.232.236 2.232-.925 0-8.917-.002-9.118-.002-9.117a1.306 1.306 0 00-.892-1.313C24.238 3.008 24.31 3 24 3c-.322 0-.229.003-13.56 4.668-.995.348-1.192 1.68-.325 2.301z"/><path id="Vector_3" d="M9.553 30.554h2.636v2.636H9.553v-2.636z"/><path id="Vector_4" d="M45.006 8.902h-3.297v9.19a3.927 3.927 0 01-3.924 3.923 3.924 3.924 0 01-3.313-1.825c-.36.205.238-.044-9.063 3.533a3.923 3.923 0 01-2.817 0l-8.534-3.282a3.922 3.922 0 01-2.514-3.662v-3.485l-1.968-.69A3.926 3.926 0 016.95 8.903H2.995c-.722 0-1.308.586-1.308 1.308v28.232c0 .721.586 1.307 1.308 1.307h11.82v2.636h-3.943a1.308 1.308 0 000 2.615h26.257a1.308 1.308 0 100-2.615h-3.944V39.75h11.82c.723 0 1.308-.586 1.308-1.307V10.21c0-.722-.585-1.308-1.307-1.308zm-30.2 25.596c0 .722-.586 1.307-1.308 1.307H8.246a1.308 1.308 0 01-1.308-1.307v-5.251c0-.723.586-1.308 1.308-1.308h5.252c.722 0 1.308.585 1.308 1.308v5.25zm24.949 1.307H18.749a1.308 1.308 0 110-2.615h21.006a1.308 1.308 0 010 2.615zm0-5.25H18.749a1.308 1.308 0 010-2.616h21.006a1.308 1.308 0 110 2.616z"/></g></g></svg>