<svg width="48" height="48" fill="none" xmlns="http://www.w3.org/2000/svg"><g id="binance 2" fill="#fff"><path id="Vector" d="M42 18.36h-.278a2.362 2.362 0 01-2.175-1.455v-.082a2.445 2.445 0 01.533-2.67l.157-.158a2.248 2.248 0 000-3.217l-3.765-3.69a2.25 2.25 0 00-3.217 0l-.158.157a2.453 2.453 0 01-2.67.532 2.445 2.445 0 01-1.5-2.25V5.25A2.25 2.25 0 0026.677 3h-5.25a2.25 2.25 0 00-2.25 2.25v.277a2.363 2.363 0 01-1.454 2.183l-.143.06a2.362 2.362 0 01-2.572-.51l-.195-.195a2.25 2.25 0 00-3.218 0l-3.69 3.69a2.25 2.25 0 000 3.217l.195.196a2.362 2.362 0 01.51 2.572v.083a2.445 2.445 0 01-2.25 1.5H6a2.25 2.25 0 00-2.25 2.25v5.25A2.25 2.25 0 006 28.073h.277a2.362 2.362 0 012.176 1.454v.083a2.445 2.445 0 01-.533 2.67l-.157.157a2.25 2.25 0 000 3.218 1.304 1.304 0 002.212-.405 13.912 13.912 0 013.525-5.16 2.197 2.197 0 00.563-2.512 10.702 10.702 0 01-.893-4.973 10.831 10.831 0 0121.652.645 10.68 10.68 0 01-.915 4.335 2.197 2.197 0 00.593 2.505 13.912 13.912 0 013.525 5.16 1.305 1.305 0 002.145.45 2.248 2.248 0 000-3.218l-.157-.157a2.444 2.444 0 01-.533-2.67 2.452 2.452 0 012.25-1.5H42a2.25 2.25 0 002.25-2.25v-5.25A2.25 2.25 0 0042 18.36z"/><path id="Vector_2" d="M24 42.75a1.5 1.5 0 100-3 1.5 1.5 0 000 3z"/><path id="Vector_3" d="M27.645 29.595a1.973 1.973 0 01-1.14-.9 6 6 0 10-5.017 0c-.252.434-.66.756-1.14.9C15.488 31.065 12 35.19 12 40.583a3 3 0 003 2.917h2.145a1.253 1.253 0 001.215-1.56l-.578-2.295a1.726 1.726 0 011.673-2.145h9.09a1.725 1.725 0 011.672 2.145l-.577 2.295a1.252 1.252 0 001.215 1.56H33a3 3 0 003-2.917c0-5.393-3.487-9.518-8.355-10.988z"/></g></svg>