<svg width="48" height="48" fill="none" xmlns="http://www.w3.org/2000/svg"><g id="binance 2" fill="#fff"><path id="Vector" d="M31.5 1.5h-18A7.5 7.5 0 006 9v25.5a7.5 7.5 0 007.5 7.5H30v-4.666A10.462 10.462 0 0127 30c0-5.79 4.712-10.5 10.5-10.5.51 0 1.008.05 1.5.12V9a7.5 7.5 0 00-7.5-7.5zm-10.23 33H13.5a1.5 1.5 0 110-3h7.77a1.5 1.5 0 110 3zm.36-7.5H13.5a1.5 1.5 0 110-3h8.13a1.5 1.5 0 110 3zm4.545-7.5H13.5a1.5 1.5 0 110-3h12.675a1.5 1.5 0 110 3zM31.5 12h-18a1.5 1.5 0 110-3h18a1.5 1.5 0 110 3z"/><path id="Vector_2" d="M37.5 40.5c-1.612 0-3.135-.375-4.5-1.024v5.521c0 1.199 1.335 1.913 2.333 1.248L37.5 44.8l2.167 1.446c.998.665 2.333-.05 2.333-1.248v-5.521a10.443 10.443 0 01-4.5 1.024z"/><path id="Vector_3" d="M37.5 37.5a7.5 7.5 0 100-15 7.5 7.5 0 000 15z"/></g></svg>