<svg width="48" height="48" fill="none" xmlns="http://www.w3.org/2000/svg"><g id="binance 2"><g id="Group" fill-rule="evenodd" clip-rule="evenodd" fill="#fff"><path id="path2" d="M24.593 5.01A18.083 18.083 0 0013.94 8.047a18.09 18.09 0 00-7.316 9.984 2.935 2.935 0 00-1.164.108c-1.709.485-2.994 1.884-3.571 3.117-.75 1.607-1.066 3.732-.732 5.926.33 2.187 1.255 3.99 2.41 5.108 1.159 1.12 2.468 1.484 3.768 1.21 1.935-.413 2.895-.722 2.624-2.525l-1.312-8.74a15.37 15.37 0 016.81-11.923 15.361 15.361 0 0117.9.587 15.368 15.368 0 015.995 11.356l-.918 6.115a15.362 15.362 0 01-12.99 10.03h-3.909a1.817 1.817 0 00-1.821 1.82v.96c0 1.008.812 1.82 1.821 1.82h4.929a1.814 1.814 0 001.817-1.82v-.503a18.146 18.146 0 0010.807-7.595l1.579.42c1.285.333 2.609-.092 3.767-1.211 1.156-1.12 2.079-2.922 2.41-5.109.335-2.193.01-4.315-.73-5.925-.745-1.61-1.852-2.633-3.13-3-.536-.154-1.117-.21-1.616-.226A18.078 18.078 0 0024.593 5.01z"/><path id="path4" d="M30.363 20.735a2.364 2.364 0 012.361 2.363 2.365 2.365 0 01-4.727 0 2.364 2.364 0 012.366-2.363zm-6.361 0a2.362 2.362 0 110 4.724 2.362 2.362 0 010-4.724zm-6.36 0a2.362 2.362 0 110 4.725 2.362 2.362 0 010-4.725zm6.36-10.146c-6.928 0-12.51 5.398-12.51 12.509 0 3.415 1.291 6.433 3.395 8.648l-.746 3.346c-.246 1.101.517 1.842 1.507 1.29l3.268-1.822a12.73 12.73 0 005.086 1.047c6.93 0 12.508-5.395 12.508-12.51 0-7.11-5.579-12.508-12.508-12.508z"/></g></g></svg>