<svg width="308" height="475" fill="none" xmlns="http://www.w3.org/2000/svg"><mask id="mask0_1201_2074" style="mask-type:luminance" maskUnits="userSpaceOnUse" x="-637" y="-438" width="1071" height="1071"><path d="M164.431-437.66l-801.224 268.872 268.719 801.349L433.15 363.688 164.431-437.66z" fill="#fff"/></mask><g mask="url(#mask0_1201_2074)"><mask id="path-2-inside-1_1201_2074" fill="#fff"><path d="M265.112-154.145c-1.849-2.589-5.431-3.17-8.02-1.32-.507.348-.96.857-1.333 1.339l-66.079-38.626c.745-1.766.501-3.824-.678-5.478-1.848-2.589-5.43-3.17-8.019-1.321-1.949 1.367-2.746 3.774-2.288 5.938L53.931-145.95c-.053-.161-.214-.374-.348-.507-1.849-2.589-5.43-3.17-8.02-1.321-2.588 1.849-3.17 5.432-1.32 8.021.214.374.481.641.75.907L3.015-77.692c-1.82-.905-4.09-.767-5.905.466-2.59 1.85-3.17 5.432-1.322 8.021.724 1.095 3.317 1.918 4.494 2.237L-12.93 13.51c-1.176-.051-3.928.248-4.942.945-2.002 1.474-2.852 3.988-2.18 6.259l-125.685 55.55c-.027-.081-.134-.134-.188-.295-1.848-2.589-5.43-3.17-8.019-1.32-2.589 1.85-3.17 5.432-1.322 8.021.51.72 1.259 1.36 2.008 1.733l-35.253 98.752c-1.524-.291-3.234-.074-4.595.918-1.815 1.233-2.613 3.373-2.395 5.35l-113.069 27.78a3.403 3.403 0 00-.644-1.121c-1.848-2.589-5.43-3.17-8.019-1.321-2.589 1.85-3.17 5.433-1.322 8.022.134.133.188.293.322.427l-55.893 64.846c-1.926-1.225-4.411-1.194-6.44.2-2.375 1.689-3.037 4.764-1.83 7.301l-92.609 65.935-3.369-.742 71.669 55.561c-1.066 1.873-.981 4.252.358 6.12 1.849 2.589 5.431 3.17 8.02 1.321 0 0 .08-.027.053-.107l55.262 42.256c-1.226 1.926-1.194 4.412.199 6.441 1.849 2.589 5.431 3.17 8.019 1.32 1.442-1.018 2.267-2.543 2.371-4.094l61.349-4.718c.215.641.43 1.282.885 1.842 1.849 2.59 5.431 3.17 8.019 1.321 2.589-1.849 3.17-5.432 1.322-8.021a5.552 5.552 0 00-2.142-1.867l58.768-157.814c1.658.424 3.448.18 4.889-.839 2.508-1.822 3.144-5.245 1.482-7.807l52.573-38.86c1.955 1.84 5.002 2.155 7.297.493 2.589-1.849 3.17-5.432 1.321-8.021l-.027-.08 64.56-88.974c1.846.986 4.224.901 6.012-.412 1.575-1.153 2.347-2.838 2.37-4.629l85.147-11.367a4.57 4.57 0 00.912 1.923c1.849 2.589 5.43 3.169 8.02 1.32 2.588-1.849 3.17-5.432 1.32-8.021a4.038 4.038 0 00-.427-.48L114.223 29.59c1.873 1.066 4.251.98 6.119-.36 1.361-.991 2.213-2.436 2.398-4.013L214.474 21c.188.828.457 1.63.966 2.35 1.849 2.589 5.431 3.17 8.019 1.32 2.509-1.822 3.144-5.244 1.483-7.807l73.824-78.888c1.873 1.065 4.278 1.06 6.146-.28 2.589-1.849 3.17-5.432 1.322-8.02a5.695 5.695 0 00-5.857-2.315l-36.961-73.537c2.963-1.797 3.545-5.38 1.696-7.969zm32.075 90.6c.161.214.321.427.562.614L231.072 8.3l-6.961 7.417c-.241-.186-.509-.453-.83-.613l24.392-105.091 48.756 21.26c-.504 1.684-.314 3.582.758 5.183zM48.201-137.519c1.39.157 2.806-.14 4.114-1.024a6.192 6.192 0 002.186-3.052l109.409 16.597c.001.267.028.615.029.882L32.935-83.631 48.2-137.52zm172.006 151.96l-47.869-134.244c.24-.08.454-.241.667-.402.641-.482 1.174-1.018 1.574-1.687l71.623 31.238-24.365 105.172c-.641-.052-1.122-.158-1.63-.077zM171.57-130.332l3.391-16.204 78.722-2.615-78.847 21.913a2.591 2.591 0 00-.59-.961c-.616-1.041-1.553-1.708-2.676-2.133zm-1.631-.344a5.352 5.352 0 00-3.659 1.049 6.19 6.19 0 00-2.185 3.052L58.16-142.644l115.144-3.782-3.365 15.75zm-12.54 10.448L29.849-61.734c-.027-.08-.054-.16-.161-.214-.643-.854-1.392-1.494-2.328-1.893l5.018-17.731 125.021-38.656zM25.755-64.373c-1.39-.157-2.806.14-4.113 1.024-.427.322-.828.724-1.228 1.125l-14.553-8.31c.4-.937.505-1.953.342-2.968l24.305-7.532-4.753 16.662zm-21.973-3.59c.427-.322.827-.724 1.227-1.125l14.66 8.364c-.665 1.738-.5 3.823.651 5.398.349.507.857.96 1.339 1.333l-34.482 67.558s-.08.027-.107-.053L.283-66.97c1.283.105 2.511-.218 3.499-.995zm-17.306 92.729l38.388 108.629a2.6 2.6 0 00-.96.59c-.721.509-1.228 1.125-1.628 1.794l-74.042-24.631 35.703-86.511c.802.266 1.684.237 2.539.129zm40.15 108.038l-.08.026-38.414-108.71c.24-.08.453-.24.667-.401 1.228-.858 2.027-2.196 2.345-3.64l34.182 1.456 1.3 111.269zM-8.938 18.501a7.026 7.026 0 00-1.021-2.778c-.348-.507-.857-.96-1.339-1.333l34.483-67.558c.32.16.695.212 1.069.265l.91 72.887-34.102-1.483zm34.876-71.434c.854-.109 1.709-.484 2.43-.994.16-.053.213-.16.346-.294L97.347 7.706l15.204 13.709a7.69 7.69 0 00-.878 2.166l-84.747-3.655-.99-72.86zm88.001 72.902c-.133.134-.214.161-.347.295L98.761 6.876 29.834-55.4l.16-.32 100.501 40.268-12.069 34.45c-1.524-.29-3.127-.02-4.488.971zM30.632-57.272c.212-.963.237-1.952-.086-2.913l134.279-61.554c.027.08.054.16.161.213a5.145 5.145 0 002.007 1.734L131.106-17.083 30.632-57.273zm137.886-61.962c.748.106 1.47.131 2.218-.031l47.788 134.003a5.304 5.304 0 00-1.442.752c-.587.375-1.04.883-1.414 1.365l-83.091-33.273 35.941-102.816zm6.619-4.183c.213-.695.211-1.497.157-2.192l80.075-22.235c.054.16.188.293.242.454.803 1.067 1.874 1.867 3.05 2.185l-12.275 52.974-71.249-31.186zm79.849-29.291c-.159.588-.318 1.177-.29 1.791l-79.257 2.616 8.556-40.939a5.35 5.35 0 003.659-1.049 7.509 7.509 0 001.147-1.099l66.185 38.68zm-75.7-39.409c.054.16.215.374.349.507a5.109 5.109 0 002.729 2.026l-8.689 41.34-119.019 3.923-.054-.161 124.684-47.635zM46.33-138.05c.08-.027.107.053.187.026L31.012-82.986 5.639-75.185a3.037 3.037 0 00-.456-.827c-.214-.374-.482-.64-.75-.908l41.897-61.13zM-19.488 22.13c.026.08.133.134.187.294.482.64 1.125 1.227 1.713 1.654l-35.783 86.537-91.744-30.37c.159-.855.13-1.737-.138-2.538L-19.488 22.13zm-249.833 437.051a5.827 5.827 0 00-1.439 2.088l-51.608-17.005 20.67-36.712c1.31.452 2.753.502 4.115.045l28.262 51.584zm72.442-220.173l-6.081 50.182a5.346 5.346 0 00-2.857 1.048 3.11 3.11 0 00-.747.696l-102.238-69.105c.106-.214.186-.508.292-.722l111.631 17.901zm-113.87-15.01c.374-.215.64-.483.88-.831l102.238 69.106c-.213.428-.426.856-.532 1.337l-99.333-.9-5.336-67.746a5.303 5.303 0 002.083-.966zm102.456 71.35a6.18 6.18 0 00.967 2.885l-89.207 99.205c-.802-.533-1.819-.905-2.807-.93l-8.126-102.114 99.173.954zm-92.624 101.243c-.427.055-.881.296-1.362.458l-71.189-100.119a5.121 5.121 0 001.678-3.237l62.694.624 8.179 102.274zm-76.717-97.996c.989.025 1.897-.19 2.832-.593l71.189 100.118a4.883 4.883 0 00-1.359 2.061l-88.118-20.086 15.456-81.5zm72.21 103.164c-.026.187-.052.374.001.535l-90.751 15.12a6.473 6.473 0 00-.805-1.602c-.67-.934-1.499-1.548-2.462-2.027l6.087-32.086 87.93 20.06zm-95.728 11.709c-1.39-.158-2.699.192-3.927 1.05-.213.161-.507.348-.693.589l-65.701-51.055 76.355 17.437-6.034 31.979zm5.195 5.923l90.858-15.334c.188.561.457 1.095.778 1.522.348.507.723.827 1.125 1.227l-20.857 36.954-72.009-23.62c.079-.294.106-.481.105-.749zm194.627-130.124l6.135-50.021 48.597 7.762c-.478 1.498-.288 3.128.463 4.57l-52.654 38.887c-.722-.56-1.658-.959-2.541-1.198zm61.085-46.174a4.161 4.161 0 00-1.523-.024l-24.424-28.177-19.469-22.44c1.093-1.259 1.518-2.917 1.328-4.547l39.394-12.239 4.694 67.427zm-49.555-48.628c.962-.056 1.951-.298 2.831-.861l19.497 22.52 23.834 27.484c-.32.107-.614.295-.961.59-.587.375-1.04.884-1.413 1.366l-49.159-7.842 5.371-43.257zm52.042 49.666c-.24-.187-.481-.374-.775-.453l-4.777-68.469 68.774-21.385c.107.32.295.614.456.827.187.294.455.561.696.747l-24.63 33.941-39.744 54.792zm-9.675-160.166c.133-.134.213-.16.347-.294l72.967 64.485c-.773 1.151-1.091 2.595-.874 4.038l-68.453 21.277-6.177-88.593c.828-.188 1.523-.51 2.19-.913zm74.834 62.611c-.133.134-.213.161-.347.295l-63.491-56.165-9.476-8.32c.107-.215.24-.349.347-.563l91.557 30.344-13.808 33.518c-1.658-.424-3.34-.127-4.782.891zm-79.349-61.72c.187.027.481.106.669.133l6.203 88.94-39.715 12.347c-.107-.321-.295-.614-.589-.961-.51-.721-1.152-1.308-1.901-1.68l35.333-98.779zm-43.39 106.118c.134.401.322.694.617 1.041.83 1.148 1.981 1.921 3.237 2.212l-5.265 43.044-111.63-17.902c.026-.187-.054-.428-.028-.615l113.069-27.78zm-121.851 33.223c.803.533 1.712.852 2.701.877l5.362 67.56-62.587-.572c-.109-.855-.431-1.817-1.02-2.511-.134-.133-.188-.293-.322-.427l55.866-64.927zm-64.403 72.696c.669.667 1.445 1.119 2.274 1.465l-15.403 81.392-78.172-17.807 91.301-65.05zm-15.455 125.628c.187-.241.347-.562.533-.803l71.609 23.487-10.575 18.704c-1.845-.986-4.117-.847-6.012.413-.133.133-.293.187-.427.321l-55.128-42.122zm64.621 45.445c-.162-.749-.43-1.55-.912-2.19a3.113 3.113 0 00-.697-.747l10.868-19.16 52.089 17.111c-.026.187.001.267-.026.454l-61.322 4.532zm67.886-10.211c-1.123-.158-2.325-.022-3.393.515l-28.208-51.424c2.482-1.903 3.01-5.378 1.188-7.887-.054-.161-.161-.214-.295-.347l46.297-51.464 42.777-47.608c.134.134.241.187.455.293l-58.821 157.922zm200.82-308.096a7.668 7.668 0 00-.86-1.762c-.481-.641-1.124-1.227-1.713-1.654l13.861-33.625 74.016 24.551c-.08.294-.132.669-.105 1.016l-85.2 11.474zm93.93-16.008a5.534 5.534 0 00-1.846-.718L26.903 21.718 111.57 25.4c.135.935.43 1.817 1.073 2.67.161.214.349.508.59.695L30.209 133.65zm92.714-110.01c-.189-.829-.458-1.63-.967-2.351-.509-.72-1.151-1.307-1.9-1.68l11.989-34.423 82.877 33.167a5.618 5.618 0 00-.265 1.07l-91.734 4.216zm175.665-95.234c-.588.376-1.041.885-1.388 1.447l-49.077-21.42 12.408-53.375a6.597 6.597 0 001.844-.351l36.826 73.404c-.267 0-.48.161-.613.295z"/></mask><path d="M265.112-154.145c-1.849-2.589-5.431-3.17-8.02-1.32-.507.348-.96.857-1.333 1.339l-66.079-38.626c.745-1.766.501-3.824-.678-5.478-1.848-2.589-5.43-3.17-8.019-1.321-1.949 1.367-2.746 3.774-2.288 5.938L53.931-145.95c-.053-.161-.214-.374-.348-.507-1.849-2.589-5.43-3.17-8.02-1.321-2.588 1.849-3.17 5.432-1.32 8.021.214.374.481.641.75.907L3.015-77.692c-1.82-.905-4.09-.767-5.905.466-2.59 1.85-3.17 5.432-1.322 8.021.724 1.095 3.317 1.918 4.494 2.237L-12.93 13.51c-1.176-.051-3.928.248-4.942.945-2.002 1.474-2.852 3.988-2.18 6.259l-125.685 55.55c-.027-.081-.134-.134-.188-.295-1.848-2.589-5.43-3.17-8.019-1.32-2.589 1.85-3.17 5.432-1.322 8.021.51.72 1.259 1.36 2.008 1.733l-35.253 98.752c-1.524-.291-3.234-.074-4.595.918-1.815 1.233-2.613 3.373-2.395 5.35l-113.069 27.78a3.403 3.403 0 00-.644-1.121c-1.848-2.589-5.43-3.17-8.019-1.321-2.589 1.85-3.17 5.433-1.322 8.022.134.133.188.293.322.427l-55.893 64.846c-1.926-1.225-4.411-1.194-6.44.2-2.375 1.689-3.037 4.764-1.83 7.301l-92.609 65.935-3.369-.742 71.669 55.561c-1.066 1.873-.981 4.252.358 6.12 1.849 2.589 5.431 3.17 8.02 1.321 0 0 .08-.027.053-.107l55.262 42.256c-1.226 1.926-1.194 4.412.199 6.441 1.849 2.589 5.431 3.17 8.019 1.32 1.442-1.018 2.267-2.543 2.371-4.094l61.349-4.718c.215.641.43 1.282.885 1.842 1.849 2.59 5.431 3.17 8.019 1.321 2.589-1.849 3.17-5.432 1.322-8.021a5.552 5.552 0 00-2.142-1.867l58.768-157.814c1.658.424 3.448.18 4.889-.839 2.508-1.822 3.144-5.245 1.482-7.807l52.573-38.86c1.955 1.84 5.002 2.155 7.297.493 2.589-1.849 3.17-5.432 1.321-8.021l-.027-.08 64.56-88.974c1.846.986 4.224.901 6.012-.412 1.575-1.153 2.347-2.838 2.37-4.629l85.147-11.367a4.57 4.57 0 00.912 1.923c1.849 2.589 5.43 3.169 8.02 1.32 2.588-1.849 3.17-5.432 1.32-8.021a4.038 4.038 0 00-.427-.48L114.223 29.59c1.873 1.066 4.251.98 6.119-.36 1.361-.991 2.213-2.436 2.398-4.013L214.474 21c.188.828.457 1.63.966 2.35 1.849 2.589 5.431 3.17 8.019 1.32 2.509-1.822 3.144-5.244 1.483-7.807l73.824-78.888c1.873 1.065 4.278 1.06 6.146-.28 2.589-1.849 3.17-5.432 1.322-8.02a5.695 5.695 0 00-5.857-2.315l-36.961-73.537c2.963-1.797 3.545-5.38 1.696-7.969zm32.075 90.6c.161.214.321.427.562.614L231.072 8.3l-6.961 7.417c-.241-.186-.509-.453-.83-.613l24.392-105.091 48.756 21.26c-.504 1.684-.314 3.582.758 5.183zM48.201-137.519c1.39.157 2.806-.14 4.114-1.024a6.192 6.192 0 002.186-3.052l109.409 16.597c.001.267.028.615.029.882L32.935-83.631 48.2-137.52zm172.006 151.96l-47.869-134.244c.24-.08.454-.241.667-.402.641-.482 1.174-1.018 1.574-1.687l71.623 31.238-24.365 105.172c-.641-.052-1.122-.158-1.63-.077zM171.57-130.332l3.391-16.204 78.722-2.615-78.847 21.913a2.591 2.591 0 00-.59-.961c-.616-1.041-1.553-1.708-2.676-2.133zm-1.631-.344a5.352 5.352 0 00-3.659 1.049 6.19 6.19 0 00-2.185 3.052L58.16-142.644l115.144-3.782-3.365 15.75zm-12.54 10.448L29.849-61.734c-.027-.08-.054-.16-.161-.214-.643-.854-1.392-1.494-2.328-1.893l5.018-17.731 125.021-38.656zM25.755-64.373c-1.39-.157-2.806.14-4.113 1.024-.427.322-.828.724-1.228 1.125l-14.553-8.31c.4-.937.505-1.953.342-2.968l24.305-7.532-4.753 16.662zm-21.973-3.59c.427-.322.827-.724 1.227-1.125l14.66 8.364c-.665 1.738-.5 3.823.651 5.398.349.507.857.96 1.339 1.333l-34.482 67.558s-.08.027-.107-.053L.283-66.97c1.283.105 2.511-.218 3.499-.995zm-17.306 92.729l38.388 108.629a2.6 2.6 0 00-.96.59c-.721.509-1.228 1.125-1.628 1.794l-74.042-24.631 35.703-86.511c.802.266 1.684.237 2.539.129zm40.15 108.038l-.08.026-38.414-108.71c.24-.08.453-.24.667-.401 1.228-.858 2.027-2.196 2.345-3.64l34.182 1.456 1.3 111.269zM-8.938 18.501a7.026 7.026 0 00-1.021-2.778c-.348-.507-.857-.96-1.339-1.333l34.483-67.558c.32.16.695.212 1.069.265l.91 72.887-34.102-1.483zm34.876-71.434c.854-.109 1.709-.484 2.43-.994.16-.053.213-.16.346-.294L97.347 7.706l15.204 13.709a7.69 7.69 0 00-.878 2.166l-84.747-3.655-.99-72.86zm88.001 72.902c-.133.134-.214.161-.347.295L98.761 6.876 29.834-55.4l.16-.32 100.501 40.268-12.069 34.45c-1.524-.29-3.127-.02-4.488.971zM30.632-57.272c.212-.963.237-1.952-.086-2.913l134.279-61.554c.027.08.054.16.161.213a5.145 5.145 0 002.007 1.734L131.106-17.083 30.632-57.273zm137.886-61.962c.748.106 1.47.131 2.218-.031l47.788 134.003a5.304 5.304 0 00-1.442.752c-.587.375-1.04.883-1.414 1.365l-83.091-33.273 35.941-102.816zm6.619-4.183c.213-.695.211-1.497.157-2.192l80.075-22.235c.054.16.188.293.242.454.803 1.067 1.874 1.867 3.05 2.185l-12.275 52.974-71.249-31.186zm79.849-29.291c-.159.588-.318 1.177-.29 1.791l-79.257 2.616 8.556-40.939a5.35 5.35 0 003.659-1.049 7.509 7.509 0 001.147-1.099l66.185 38.68zm-75.7-39.409c.054.16.215.374.349.507a5.109 5.109 0 002.729 2.026l-8.689 41.34-119.019 3.923-.054-.161 124.684-47.635zM46.33-138.05c.08-.027.107.053.187.026L31.012-82.986 5.639-75.185a3.037 3.037 0 00-.456-.827c-.214-.374-.482-.64-.75-.908l41.897-61.13zM-19.488 22.13c.026.08.133.134.187.294.482.64 1.125 1.227 1.713 1.654l-35.783 86.537-91.744-30.37c.159-.855.13-1.737-.138-2.538L-19.488 22.13zm-249.833 437.051a5.827 5.827 0 00-1.439 2.088l-51.608-17.005 20.67-36.712c1.31.452 2.753.502 4.115.045l28.262 51.584zm72.442-220.173l-6.081 50.182a5.346 5.346 0 00-2.857 1.048 3.11 3.11 0 00-.747.696l-102.238-69.105c.106-.214.186-.508.292-.722l111.631 17.901zm-113.87-15.01c.374-.215.64-.483.88-.831l102.238 69.106c-.213.428-.426.856-.532 1.337l-99.333-.9-5.336-67.746a5.303 5.303 0 002.083-.966zm102.456 71.35a6.18 6.18 0 00.967 2.885l-89.207 99.205c-.802-.533-1.819-.905-2.807-.93l-8.126-102.114 99.173.954zm-92.624 101.243c-.427.055-.881.296-1.362.458l-71.189-100.119a5.121 5.121 0 001.678-3.237l62.694.624 8.179 102.274zm-76.717-97.996c.989.025 1.897-.19 2.832-.593l71.189 100.118a4.883 4.883 0 00-1.359 2.061l-88.118-20.086 15.456-81.5zm72.21 103.164c-.026.187-.052.374.001.535l-90.751 15.12a6.473 6.473 0 00-.805-1.602c-.67-.934-1.499-1.548-2.462-2.027l6.087-32.086 87.93 20.06zm-95.728 11.709c-1.39-.158-2.699.192-3.927 1.05-.213.161-.507.348-.693.589l-65.701-51.055 76.355 17.437-6.034 31.979zm5.195 5.923l90.858-15.334c.188.561.457 1.095.778 1.522.348.507.723.827 1.125 1.227l-20.857 36.954-72.009-23.62c.079-.294.106-.481.105-.749zm194.627-130.124l6.135-50.021 48.597 7.762c-.478 1.498-.288 3.128.463 4.57l-52.654 38.887c-.722-.56-1.658-.959-2.541-1.198zm61.085-46.174a4.161 4.161 0 00-1.523-.024l-24.424-28.177-19.469-22.44c1.093-1.259 1.518-2.917 1.328-4.547l39.394-12.239 4.694 67.427zm-49.555-48.628c.962-.056 1.951-.298 2.831-.861l19.497 22.52 23.834 27.484c-.32.107-.614.295-.961.59-.587.375-1.04.884-1.413 1.366l-49.159-7.842 5.371-43.257zm52.042 49.666c-.24-.187-.481-.374-.775-.453l-4.777-68.469 68.774-21.385c.107.32.295.614.456.827.187.294.455.561.696.747l-24.63 33.941-39.744 54.792zm-9.675-160.166c.133-.134.213-.16.347-.294l72.967 64.485c-.773 1.151-1.091 2.595-.874 4.038l-68.453 21.277-6.177-88.593c.828-.188 1.523-.51 2.19-.913zm74.834 62.611c-.133.134-.213.161-.347.295l-63.491-56.165-9.476-8.32c.107-.215.24-.349.347-.563l91.557 30.344-13.808 33.518c-1.658-.424-3.34-.127-4.782.891zm-79.349-61.72c.187.027.481.106.669.133l6.203 88.94-39.715 12.347c-.107-.321-.295-.614-.589-.961-.51-.721-1.152-1.308-1.901-1.68l35.333-98.779zm-43.39 106.118c.134.401.322.694.617 1.041.83 1.148 1.981 1.921 3.237 2.212l-5.265 43.044-111.63-17.902c.026-.187-.054-.428-.028-.615l113.069-27.78zm-121.851 33.223c.803.533 1.712.852 2.701.877l5.362 67.56-62.587-.572c-.109-.855-.431-1.817-1.02-2.511-.134-.133-.188-.293-.322-.427l55.866-64.927zm-64.403 72.696c.669.667 1.445 1.119 2.274 1.465l-15.403 81.392-78.172-17.807 91.301-65.05zm-15.455 125.628c.187-.241.347-.562.533-.803l71.609 23.487-10.575 18.704c-1.845-.986-4.117-.847-6.012.413-.133.133-.293.187-.427.321l-55.128-42.122zm64.621 45.445c-.162-.749-.43-1.55-.912-2.19a3.113 3.113 0 00-.697-.747l10.868-19.16 52.089 17.111c-.026.187.001.267-.026.454l-61.322 4.532zm67.886-10.211c-1.123-.158-2.325-.022-3.393.515l-28.208-51.424c2.482-1.903 3.01-5.378 1.188-7.887-.054-.161-.161-.214-.295-.347l46.297-51.464 42.777-47.608c.134.134.241.187.455.293l-58.821 157.922zm200.82-308.096a7.668 7.668 0 00-.86-1.762c-.481-.641-1.124-1.227-1.713-1.654l13.861-33.625 74.016 24.551c-.08.294-.132.669-.105 1.016l-85.2 11.474zm93.93-16.008a5.534 5.534 0 00-1.846-.718L26.903 21.718 111.57 25.4c.135.935.43 1.817 1.073 2.67.161.214.349.508.59.695L30.209 133.65zm92.714-110.01c-.189-.829-.458-1.63-.967-2.351-.509-.72-1.151-1.307-1.9-1.68l11.989-34.423 82.877 33.167a5.618 5.618 0 00-.265 1.07l-91.734 4.216zm175.665-95.234c-.588.376-1.041.885-1.388 1.447l-49.077-21.42 12.408-53.375a6.597 6.597 0 001.844-.351l36.826 73.404c-.267 0-.48.161-.613.295z" fill="#fff" fill-opacity=".1"/><path d="M.011-67.013l-13.213 80.48.543.088L.556-66.924l-.544-.089zm257.081-88.452l.312.454.009-.006-.321-.448zm-1.333 1.339l-.278.475.417.245.296-.383-.435-.337zm-66.079-38.626l-.507-.215-.188.446.417.244.278-.475zm-.678-5.478l.449-.32v-.001l-.449.321zm-8.019-1.321l.316.451.004-.003-.32-.448zm-2.288 5.938l.197.515.44-.168-.098-.461-.539.114zM53.931-145.95l-.522.175.183.544.536-.204-.197-.515zm-.348-.507l-.448.32.026.037.033.033.389-.39zm-9.34 6.7l.477-.274-.014-.024-.015-.022-.449.32zm.75.907l.453.312.26-.378-.325-.324-.389.39zM3.015-77.692l-.246.493.429.214.27-.395-.453-.312zm-5.905.466l-.31-.456-.01.008.32.448zm-1.322 8.021l.46-.304-.006-.008-.005-.008-.449.32zm4.494 2.237l-.144.532.049.013.05.004.045-.55zM-12.93 13.51l.522-.176-.12-.358-.378-.017-.024.55zm-4.942.945l-.312-.454-.008.005-.007.005.327.444zm-2.18 6.259l.222.504.444-.196-.138-.465-.528.157zm-125.685 55.55l-.522.174.192.573.553-.244-.223-.504zm-.188-.295l.523-.175-.026-.078-.048-.067-.449.32zm-9.341 6.701l.45-.318-.001-.002-.449.32zm2.008 1.733l.519.186.164-.461-.438-.218-.245.493zm-35.253 98.752l-.104.541.464.089.159-.445-.519-.185zm-4.595.918l.31.455.007-.005.007-.005-.324-.445zm-2.395 5.35l.131.535.469-.115-.052-.48-.548.06zm-113.069 27.78l-.523.176.162.48.492-.121-.131-.535zm-.644-1.121l-.448.32.013.019.015.018.42-.357zm-9.341 6.701l-.448.32.027.037.033.033.388-.39zm.322.427l.417.359.335-.388-.363-.362-.389.391zm-55.893 64.846l-.296.465.402.256.311-.361-.417-.36zm-6.44.2l-.312-.454-.007.005.319.449zm-1.83 7.301l.319.449.377-.269-.199-.417-.497.237zm-92.609 65.935l-.119.538.239.052.2-.141-.32-.449zm-3.369-.742l.119-.538-.456.973.337-.435zm71.669 55.561l.478.272.237-.415-.378-.293-.337.436zm.358 6.12l.449-.32-.001-.001-.448.321zm8.02 1.321l-.176-.523-.078.027-.066.047.32.449zm.053-.107l.335-.438-1.429-1.093.572 1.706.522-.175zm55.262 42.256l.465.295.271-.426-.401-.307-.335.438zm.199 6.441l-.454.312.005.008.449-.32zm8.019 1.32l-.318-.45-.002.002.32.448zm2.371-4.094l-.042-.549-.476.036-.032.476.55.037zm61.349-4.718l.522-.175-.137-.407-.428.033.043.549zm.885 1.842l.448-.32-.01-.014-.011-.013-.427.347zm9.341-6.7l-.458.306.004.007.005.007.449-.32zm-2.142-1.867l-.516-.192-.173.465.444.22.245-.493zm58.768-157.814l.137-.534-.48-.123-.173.464.516.193zm4.889-.839l.318.45.006-.004-.324-.446zm1.482-7.807l-.328-.443-.416.308.282.435.462-.3zm52.573-38.86l.378-.402-.335-.315-.37.273.327.444zm7.297.493l-.32-.448-.003.002.323.446zm1.321-8.021l-.522.175.026.078.048.067.448-.32zm-.027-.08l-.446-.324-.166.23.09.269.522-.175zm64.56-88.974l.26-.486-.424-.226-.282.389.446.323zm6.012-.412l-.325-.445v.001l.325.444zm2.37-4.629l-.073-.546-.472.063-.006.476.551.007zm85.147-11.367l.54-.109-.102-.506-.51.069.072.546zm.912 1.923l.448-.321-.01-.014-.01-.013-.428.348zm9.34-6.701l.45-.32-.009-.012-.44.332zm-.427-.48l-.433-.342-.305.385.349.347.389-.39zM114.223 29.59l.272-.479-.411-.234-.293.371.432.342zm6.119-.36l.321.448.003-.002-.324-.445zm2.398-4.013l-.026-.55-.467.02-.055.466.548.064zM214.474 21l.537-.123-.103-.449-.46.021.026.55zm.966 2.35l-.45.318.001.002.449-.32zm8.019 1.32l.321.449.003-.003-.324-.445zm1.483-7.807l-.403-.377-.294.315.234.362.463-.3zm73.824-78.888l.273-.48-.378-.214-.297.317.402.377zm6.146-.28l-.32-.448h-.001l.321.448zm1.322-8.02l-.451.316.002.004.449-.32zm-5.857-2.315l-.492.248.19.38.416-.089-.114-.539zm-36.961-73.537l-.285-.471-.436.263.229.455.492-.247zm33.771 82.631l-.458.307.009.013.009.012.44-.332zm.562.614l.402.377.414-.442-.478-.37-.338.435zM231.072 8.3l.402.377-.402-.377zm-6.961 7.417l-.338.436.397.307.343-.366-.402-.377zm-.83-.613l-.536-.124-.099.424.39.193.245-.493zm24.392-105.091l.22-.506-.607-.264-.15.645.537.125zm48.756 21.26l.528.158.14-.468-.448-.196-.22.506zM48.201-137.52l.063-.548-.465-.053-.128.45.53.151zm4.114-1.024l.309.456.011-.008.011-.008-.331-.44zm2.186-3.052l.082-.544-.46-.07-.145.441.523.173zm109.409 16.597l.551-.001v-.473l-.468-.071-.083.545zm.029.882l.162.526.39-.12-.001-.407-.551.001zM32.935-83.631l-.53-.15-.277.976.97-.3-.163-.526zM220.207 14.44l-.519.185.154.431.452-.072-.087-.544zm-47.869-134.244l-.175-.522-.533.179.189.529.519-.186zm.667-.402l.332.44-.332-.44zm1.574-1.687l.22-.505-.444-.194-.249.417.473.282zm71.623 31.238l.537.124.103-.446-.42-.183-.22.505zM221.837 14.518l-.045.55.475.038.107-.464-.537-.124zm-50.267-144.85l-.539-.113-.097.461.441.167.195-.515zm3.391-16.204l-.018-.551-.433.014-.088.424.539.113zm78.722-2.615l.148.531-.166-1.081.018.55zm-78.847 21.913l-.522.175.166.496.504-.14-.148-.531zm-.59-.961l-.474.281.036.06.05.049.388-.39zm-4.307-2.477l-.044.549.482.039.101-.473-.539-.115zm-5.844 4.101l-.083.544.459.07.147-.441-.523-.173zM58.16-142.644l-.018-.551-.065 1.096.083-.545zm115.144-3.782l.539.115.147-.689-.704.023.018.551zm-15.905 26.198l.229.501-.392-1.027.163.526zM29.849-61.734l-.523.175.195.58.557-.255-.23-.5zm-.161-.214l-.44.332.078.103.116.058.246-.493zM27.36-63.84l-.53-.15-.133.467.446.19.216-.507zm5.018-17.731l-.163-.526-.286.088-.082.288.53.15zm-6.623 17.2l-.062.547.464.053.128-.45-.53-.15zm-4.113 1.023l-.309-.456-.012.008-.01.008.33.44zm-1.228 1.125l-.273.479.366.209.298-.299-.39-.389zm-14.553-8.31l-.506-.216-.193.451.426.243.273-.478zm.342-2.968l-.163-.526-.456.141.075.472.544-.087zm24.305-7.532l.53.151.279-.978-.972.3.163.527zM3.782-67.964l-.332-.44-.009.007.34.433zm1.227-1.125l.273-.479-.366-.209-.297.299.39.389zm14.66 8.364l.514.196.17-.441-.411-.234-.273.479zm.651 5.398l.454-.313-.004-.006-.005-.007-.445.325zm1.339 1.333l.49.25.208-.406-.36-.28-.338.436zm-34.482 67.558l.175.522.213-.071.102-.2-.49-.251zm-.701 11.2l.52-.183-.149-.419-.44.056.069.547zm38.388 108.63l.175.523.531-.179-.186-.528-.52.184zm-.96.59l.317.45.039-.027.034-.034-.39-.389zm-1.628 1.794l-.174.523.42.14.227-.38-.473-.283zm-74.042-24.631l-.51-.21-.225.546.56.187.175-.523zm35.703-86.511l.173-.523-.487-.161-.196.474.51.21zm42.69 108.167l.175.522.38-.128-.004-.401-.551.007zm-.08.026l-.52.184.18.511.515-.172-.175-.523zm-38.415-108.71l-.176-.521-.53.178.186.528.52-.184zm.667-.401l-.316-.452-.008.006-.008.006.332.44zm2.345-3.64l.023-.55-.462-.02-.1.451.539.119zm34.182 1.456l.55-.006-.005-.522-.522-.023-.023.551zM-8.94 18.501l-.546.08.066.45.456.02.024-.55zm-1.021-2.778l.464-.296-.005-.008-.005-.008-.454.312zM-11.3 14.39l-.49-.25-.208.406.36.28.338-.436zm34.483-67.558l.245-.493-.488-.243-.248.485.49.25zm1.069.265l.55-.007-.005-.473-.468-.066-.077.546zm.91 72.887l-.024.55.582.026-.008-.583-.55.007zm.773-72.917l-.069-.547-.488.062.007.493.55-.008zm2.43-.994l-.175-.522-.076.026-.066.046.317.45zm.347-.294l.37-.41-.39-.35-.37.37.39.39zM97.347 7.706l-.37.41.37-.41zm15.204 13.709l.473.282.232-.389-.336-.303-.369.41zm-.878 2.166l-.024.55.454.02.106-.442-.536-.128zm-84.747-3.655l-.55.008.006.52.52.023.024-.55zm87.012.042l-.324-.445-.036.026-.03.03.39.39zm-.347.295l-.369.41.389.35.37-.371-.39-.389zM98.761 6.876l-.369.409.37-.41zM29.834-55.4l-.494-.245-.186.374.31.28.37-.409zm.16-.32l.204-.512-.471-.19-.227.456.493.245zm100.501 40.268l.52.182.174-.497-.489-.196-.205.511zm-12.069 34.45l-.104.542.467.089.157-.449-.52-.182zm-87.794-76.27l-.538-.119-.1.457.433.173.205-.511zm-.086-2.913l-.23-.502-.45.207.158.47.522-.175zm134.279-61.554l.522-.175-.194-.581-.557.255.229.501zm.161.213l.458-.306-.082-.122-.131-.065-.245.493zm2.007 1.734l.52.182.161-.459-.435-.216-.246.493zM131.106-17.083l-.205.511.535.214.19-.544-.52-.181zm37.412-102.151l.077-.545-.448-.064-.15.427.521.182zm2.218-.031l.518-.185-.162-.456-.473.103.117.538zm47.788 134.003l.175.523.533-.179-.189-.529-.519.185zm-1.442.752l.297.464.018-.012.017-.012-.332-.44zm-1.414 1.365l-.204.512.385.154.255-.328-.436-.338zm-83.091-33.273l-.52-.182-.174.498.489.195.205-.511zm42.56-106.999l-.527-.16-.143.469.449.196.221-.505zm.157-2.192l-.148-.531-.437.122.035.453.55-.044zm80.075-22.235l.523-.176-.166-.495-.504.14.147.531zm.242.454l-.523.175.029.085.054.071.44-.331zm3.05 2.185l.537.125.12-.518-.513-.139-.144.532zm-12.275 52.974l-.221.505.608.266.15-.647-.537-.124zm8.6-60.477l.532.144.11-.407-.364-.213-.278.476zm-.29 1.791l.018.551.557-.018-.025-.558-.55.025zm-79.257 2.616l-.54-.113-.143.686.701-.023-.018-.55zm8.556-40.939l.045-.549-.485-.039-.1.476.54.112zm3.659-1.049l-.331-.441.331.441zm1.147-1.099l.278-.475-.398-.233-.299.351.419.357zm-9.515-.729l.523-.175-.183-.545-.536.205.196.515zm.349.507l.454-.312-.029-.042-.037-.036-.388.39zm2.729 2.026l.539.113.103-.489-.476-.15-.166.526zm-8.689 41.34l.018.55.432-.014.089-.423-.539-.113zm-119.019 3.923l-.522.175.13.389.41-.014-.018-.55zm-.054-.161l-.196-.514-.494.188.168.502.522-.176zm-8.272 6.432l-.175-.523-.175.059-.105.152.455.312zm.187.026l.53.149.283-1.003-.988.332.175.522zM31.012-82.986l.162.527.287-.088.081-.29-.53-.149zM5.639-75.185l-.522.176.17.509.514-.158-.162-.527zm-.456-.827l-.478.274.017.03.021.027.44-.331zm-.75-.908l-.454-.311-.26.378.325.324.39-.39zm-23.921 99.05l.522-.175-.192-.573-.553.244.223.504zm.187.294l-.522.175.028.085.054.071.44-.331zm1.713 1.654l.51.21.166-.402-.352-.255-.323.447zm-35.783 86.537l-.173.523.486.161.196-.473-.509-.211zm-91.744-30.37l-.542-.1-.088.473.457.15.173-.523zm-.138-2.538l-.223-.505-.459.204.159.476.523-.175zM-269.321 459.18l.372.406.319-.292-.208-.379-.483.265zm-1.439 2.088l-.173.523.485.16.196-.471-.508-.212zm-51.608-17.005l-.48-.27-.329.584.636.21.173-.524zm20.67-36.712l.179-.521-.434-.15-.225.4.48.271zm4.115.045l.483-.265-.221-.404-.437.147.175.522zm100.704-168.589l.547.067.063-.527-.523-.084-.087.544zm-6.081 50.182l.032.55.46-.026.055-.458-.547-.066zm-2.857 1.048l.296.464.018-.011.017-.013-.331-.44zm-.747.696l-.309.457.428.289.316-.408-.435-.338zm-102.238-69.105l-.494-.246-.214.432.399.27.309-.456zm.292-.722l.088-.545-.4-.064-.181.363.493.246zm-2.239 2.891l-.274-.478-.03.017-.027.02.331.441zm.88-.831l.309-.456-.452-.306-.31.45.453.312zm102.238 69.106l.493.245.215-.431-.399-.271-.309.457zm-.532 1.337l-.005.551.447.005.096-.437-.538-.119zm-99.333-.9l-.549.044.04.503.504.004.005-.551zm-5.336-67.746l-.116-.539-.471.102.038.48.549-.043zm104.539 70.384l.549-.043-.039-.503-.505-.005-.005.551zm.967 2.885l.41.368.28-.312-.225-.353-.465.297zm-89.207 99.205l-.305.459.397.263.318-.353-.41-.369zm-2.807-.93l-.55.044.04.495.496.012.014-.551zm-8.126-102.114l.006-.551-.603-.006.048.601.549-.044zm6.549 102.197l.069.547.522-.066-.042-.525-.549.044zm-1.362.458l-.449.319.237.333.387-.13-.175-.522zm-71.189-100.119l-.367-.411-.368.328.286.402.449-.319zm1.678-3.237l.005-.551-.499-.005-.054.496.548.06zm62.694.624l.549-.044-.04-.502-.503-.005-.006.551zm-68.538 4.278l.014-.55-.468-.012-.087.46.541.102zm2.832-.593l.449-.32-.258-.363-.409.177.218.506zm71.189 100.118l.372.407.359-.329-.282-.397-.449.319zm-1.359 2.061l-.123.537.488.112.158-.476-.523-.173zm-88.118-20.086l-.541-.103-.099.522.518.118.122-.537zm87.666 21.664l.546.077.071-.502-.494-.112-.123.537zm.001.535l.091.543.637-.106-.205-.613-.523.176zm-90.751 15.12l-.523.175.15.446.463-.078-.09-.543zm-.805-1.602l.454-.312-.006-.009-.448.321zm-2.462-2.027l-.542-.102-.077.41.373.186.246-.494zm6.087-32.086l.122-.537-.557-.128-.107.562.542.103zm-7.798 31.769l-.062.547.508.058.095-.503-.541-.102zm-3.927 1.05l-.315-.452-.008.006-.008.006.331.44zm-.693.589l-.338.436.435.338.338-.436-.435-.338zm-65.701-51.055l.123-.538-.461.973.338-.435zm76.355 17.437l.541.102.098-.522-.517-.118-.122.538zm-.839 37.902l-.092-.543-.46.078.001.466.551-.001zm90.858-15.334l.523-.175-.15-.447-.464.079.091.543zm.778 1.522l.454-.312-.007-.01-.007-.009-.44.331zm1.125 1.227l.48.271.206-.365-.297-.296-.389.39zm-20.857 36.954l-.171.523.429.141.222-.394-.48-.27zm-72.009-23.62l-.532-.144-.137.505.497.163.172-.524zm194.732-130.873l-.546-.067-.059.474.461.125.144-.532zm6.135-50.021l.087-.544-.565-.091-.069.568.547.067zm48.597 7.762l.525.168.195-.611-.633-.101-.087.544zm.463 4.57l.327.443.379-.28-.217-.418-.489.255zm-52.654 38.887l-.337.435.329.256.336-.248-.328-.443zm58.544-47.372l-.118.538.719.159-.051-.735-.55.038zm-1.523-.024l-.416.361.2.232.303-.048-.087-.545zm-24.424-28.177l.416-.361-.416.361zm-19.469-22.44l-.416-.362-.314.362.314.361.416-.361zm1.328-4.547l-.164-.526-.437.136.053.454.548-.064zm39.394-12.239l.55-.038-.049-.695-.664.207.163.526zm-44.861 18.799l-.031-.551-.459.027-.056.456.546.068zm2.831-.861l.417-.361-.312-.36-.401.256.296.465zm19.497 22.52l-.417.361.417-.361zm23.834 27.484l.175.522.781-.262-.539-.621-.417.361zm-.961.59l.297.464.032-.02.028-.024-.357-.42zm-1.413 1.366l-.087.544.322.051.2-.258-.435-.337zm-49.159-7.842l-.547-.068-.066.528.526.084.087-.544zm57.413 6.409l-.337.435.449.349.334-.461-.446-.323zm-.775-.453l-.55.038.027.391.379.103.144-.532zm-4.777-68.469l-.163-.527-.417.13.031.435.549-.038zm68.774-21.385l.522-.176-.171-.511-.515.16.164.527zm.456.827l.464-.296-.011-.018-.013-.017-.44.331zm.696.747l.446.324.313-.432-.422-.327-.337.435zm-24.63 33.941l-.446-.324.446.324zm-49.419-105.374l.284.472.058-.035.048-.048-.39-.389zm.347-.294l.365-.413-.389-.344-.367.368.391.389zm72.967 64.485l.457.308.27-.401-.362-.32-.365.413zm-.874 4.038l.163.526.451-.14-.07-.468-.544.082zm-68.453 21.277l-.55.039.048.694.665-.206-.163-.527zm-6.177-88.593l-.122-.537-.46.105.033.47.549-.038zm77.024 61.698l-.318-.45-.038.028-.034.034.39.388zm-.347.295l-.365.413.39.344.366-.368-.39-.389zm-63.491-56.165l.365-.413-.002-.001-.363.414zm-9.476-8.32l-.493-.246-.189.38.319.28.363-.415zm.347-.563l.173-.523-.454-.15-.213.428.494.245zm91.557 30.344l.51.21.224-.547-.56-.186-.174.523zm-13.808 33.518l-.137.534.464.119.182-.443-.509-.21zm-84.131-60.829l.077-.545-.444-.063-.152.423.519.185zm.669.133l.549-.039-.031-.445-.442-.062-.076.546zm6.203 88.94l.164.526.416-.129-.03-.435-.55.038zm-39.715 12.347l-.522.175.171.511.515-.16-.164-.526zm-.589-.961l-.451.318.015.02.016.018.42-.356zm-1.901-1.68l-.519-.186-.165.461.439.218.245-.493zm-8.057 7.339l.522-.175-.161-.481-.492.121.131.535zm.617 1.041l.446-.323-.013-.017-.013-.017-.42.357zm3.237 2.212l.547.067.06-.492-.482-.111-.125.536zm-5.265 43.044l-.087.544.564.09.07-.567-.547-.067zm-111.63-17.902l-.546-.077-.075.535.533.086.088-.544zm-.028-.615l-.131-.535-.363.089-.052.369.546.077zm-8.782 5.443l.305-.459-.405-.269-.318.369.418.359zm2.701.877l.549-.044-.039-.494-.496-.013-.014.551zm5.362 67.56l-.005.551.602.005-.048-.6-.549.044zm-62.587-.572l-.547.069.061.478.481.004.005-.551zm-1.02-2.511l.42-.356-.015-.018-.017-.016-.388.39zm-.322-.427l-.417-.359-.335.388.363.362.389-.391zm-8.537 7.769l.389-.391-.33-.328-.379.27.32.449zm2.274 1.465l.542.103.083-.439-.413-.172-.212.508zm-15.403 81.392l-.122.538.557.127.107-.562-.542-.103zm-78.172-17.807l-.32-.449-1.001.713 1.199.273.122-.537zm75.846 60.578l-.435-.338-.34.439.441.337.334-.438zm.533-.803l.172-.524-.369-.121-.238.307.435.338zm71.609 23.487l.48.271.33-.585-.638-.21-.172.524zm-10.575 18.704l-.259.486.474.253.265-.468-.48-.271zm-6.012.413l-.305-.459-.046.03-.039.04.39.389zm-.427.321l-.334.438.384.293.341-.342-.391-.389zm9.493 3.323l-.538.116.101.468.478-.035-.041-.549zm-.912-2.19l-.465.296.012.018.012.017.441-.331zm-.697-.747l-.479-.272-.235.415.377.292.337-.435zm10.868-19.16l.172-.523-.428-.141-.223.393.479.271zm52.089 17.111l.546.077.064-.457-.438-.144-.172.524zm-.026.454l.041.55.443-.033.062-.44-.546-.077zm6.564-5.679l-.077.546.438.061.155-.415-.516-.192zm-3.393.515l-.483.265.255.466.475-.239-.247-.492zm-28.208-51.424l-.335-.437-.376.287.228.415.483-.265zm1.188-7.887l-.523.175.027.08.05.068.446-.323zm-.295-.347l-.409-.369-.351.39.371.369.389-.39zm46.297-51.464l.41.369v-.001l-.41-.368zm42.777-47.608l.389-.39-.411-.41-.388.432.41.368zm.455.293l.516.193.173-.465-.444-.221-.245.493zm141.998-150.174l-.522.176.144.431.452-.06-.074-.547zm-.858-1.762l.464-.297-.011-.018-.013-.016-.44.331zm-1.714-1.654l-.509-.21-.165.402.351.254.323-.446zm13.861-33.625l.174-.523-.487-.162-.196.475.51.21zm74.016 24.551l.532.144.136-.503-.494-.164-.174.523zm-.105 1.016l.073.546.517-.069-.04-.52-.55.043zm8.73-4.534l-.289.469.417.257.304-.384-.432-.342zm-1.845-.718l-.55.007.005.447.438.086.107-.54zM26.903 21.718l.024-.55-.583-.026.008.583.55-.007zM111.57 25.4l.545-.079-.065-.452-.456-.02-.024.551zm1.073 2.67l-.44.332.44-.331zm.59.695l.432.341.345-.436-.44-.341-.337.436zm9.691-5.125l-.537.123.102.449.46-.021-.025-.55zm-2.867-4.03l-.52-.181-.16.458.434.216.246-.493zm11.989-34.423l.204-.512-.535-.214-.19.544.521.182zm82.877 33.167l.523.173.163-.492-.481-.193-.205.512zm-.265 1.07l.025.55.456-.021.064-.453-.545-.077zm83.931-91.017l.296.465.051-.033.043-.043-.39-.389zm-1.388 1.447l-.22.505.438.19.252-.407-.47-.288zm-49.077-21.42l-.536-.125-.104.446.42.184.22-.505zm12.408-53.375l-.024-.551-.418.019-.094.407.536.125zm1.844-.351l.492-.247-.214-.428-.453.152.175.523zm36.826 73.404l.001.551.892-.002-.4-.796-.493.247zm-33.642-82.577c-2.027-2.839-5.954-3.473-8.788-1.449l.641.897a5.186 5.186 0 017.251 1.193l.896-.641zm-8.78-1.455c-.577.398-1.072.96-1.457 1.456l.871.675c.362-.467.774-.922 1.21-1.222l-.624-.909zm-.743 1.318l-66.078-38.626-.557.951 66.079 38.626.556-.951zm-65.849-37.936c.823-1.951.547-4.21-.737-6.012l-.898.639c1.074 1.508 1.287 3.364.62 4.944l1.015.429zm-.737-6.013c-2.028-2.839-5.954-3.473-8.788-1.448l.64.896c2.343-1.674 5.581-1.146 7.251 1.193l.897-.641zm-8.785-1.451c-2.144 1.504-3.01 4.142-2.51 6.503l1.078-.228c-.416-1.967.313-4.143 2.065-5.373l-.633-.902zm-2.167 5.874L53.735-146.465l.393 1.03 124.764-47.663-.393-1.03zM54.454-146.126c-.094-.278-.324-.564-.482-.722l-.778.781a1.421 1.421 0 01.197.256c.014.025.018.037.018.036l1.045-.351zm-.423-.652c-2.027-2.839-5.953-3.473-8.788-1.448l.64.896a5.188 5.188 0 017.252 1.193l.896-.641zm-8.788-1.448c-2.838 2.028-3.473 5.955-1.45 8.789l.898-.64c-1.674-2.344-1.146-5.582 1.193-7.253l-.64-.896zm-1.479 8.743c.256.447.575.761.84 1.024l.777-.781c-.272-.271-.488-.49-.66-.791l-.957.548zm.774.322L2.56-78.004l.909.624 41.976-61.158-.908-.623zM3.26-78.185c-2.002-.996-4.485-.839-6.46.503l.62.912c1.654-1.124 3.713-1.243 5.349-.429l.491-.986zm-6.47.51c-2.84 2.029-3.474 5.956-1.45 8.79l.897-.64c-1.674-2.344-1.146-5.582 1.193-7.252l-.64-.897zM-4.67-68.9c.24.364.61.67 1 .925.399.258.858.488 1.318.686.92.397 1.89.69 2.49.854l.29-1.065a18.21 18.21 0 01-2.342-.802A7.9 7.9 0 01-3.07-68.9c-.335-.218-.561-.426-.682-.609l-.92.608zm-8.236 81.861c-.635-.027-1.656.039-2.644.199-.497.08-.997.186-1.445.32-.44.132-.866.3-1.19.523l.625.908c.184-.126.482-.256.88-.375.39-.117.84-.213 1.306-.288.935-.152 1.879-.21 2.42-.186l.048-1.1zm-5.293 1.052c-2.182 1.607-3.122 4.359-2.381 6.86l1.056-.314c-.604-2.04.157-4.317 1.978-5.658l-.653-.888zm-2.076 6.199L-145.96 75.76l.446 1.007 125.684-55.55-.445-1.007zm-124.94 55.878a.736.736 0 00-.121-.221l-.041-.05-.024-.028c-.016-.018-.006-.01-.001.005l-1.045.35a1.084 1.084 0 00.236.394c.008.008.008.01.007.007a.363.363 0 01-.055-.107l1.044-.35zm-.261-.439c-2.027-2.839-5.954-3.473-8.788-1.449l.64.897c2.343-1.674 5.581-1.146 7.251 1.193l.897-.64zm-8.788-1.449c-2.839 2.028-3.474 5.956-1.45 8.79l.897-.64c-1.674-2.344-1.146-5.582 1.193-7.253l-.64-.897zm-1.452 8.788a6.21 6.21 0 002.212 1.909l.491-.987a5.124 5.124 0 01-1.803-1.558l-.9.636zm1.939 1.23l-35.253 98.752 1.038.37 35.253-98.751-1.038-.37zm-34.631 98.396c-1.638-.313-3.512-.087-5.022 1.013l.648.891c1.212-.883 2.758-1.091 4.167-.822l.207-1.082zm-5.007 1.003c-2.004 1.361-2.871 3.712-2.634 5.867l1.096-.121c-.198-1.8.531-3.73 2.157-4.835l-.619-.911zm-2.217 5.271l-113.07 27.78.263 1.07 113.069-27.78-.262-1.07zm-112.416 28.14a3.927 3.927 0 00-.746-1.303l-.84.714c.253.297.431.61.541.94l1.045-.351zm-.717-1.266c-2.027-2.839-5.954-3.474-8.788-1.449l.64.897c2.343-1.674 5.581-1.147 7.251 1.192l.897-.64zm-8.788-1.449c-2.839 2.028-3.474 5.955-1.45 8.79l.897-.641a5.188 5.188 0 011.193-7.252l-.64-.897zm-1.39 8.86a.84.84 0 01.085.12c.043.068.12.191.236.307l.778-.781a.734.734 0 01-.086-.12c-.043-.068-.12-.191-.236-.307l-.777.781zm.293-.323l-55.893 64.847.834.719 55.893-64.847-.834-.719zm-55.18 64.741c-2.119-1.348-4.843-1.304-7.048.211l.624.908c1.852-1.272 4.098-1.292 5.832-.189l.592-.93zm-7.055.216c-2.608 1.854-3.323 5.224-2.009 7.987l.995-.474c-1.1-2.312-.49-5.091 1.652-6.615l-.638-.898zm-1.831 7.301l-92.608 65.935.639.898 92.608-65.935-.639-.898zm-92.17 65.846l-3.369-.742-.237 1.076 3.368.742.238-1.076zm-3.825.231l71.668 55.562.675-.872-71.668-55.561-.675.871zm71.527 54.854c-1.172 2.06-1.076 4.67.389 6.713l.896-.642c-1.214-1.693-1.287-3.84-.328-5.527l-.957-.544zm.389 6.712c2.027 2.839 5.954 3.474 8.788 1.449l-.64-.897c-2.344 1.674-5.581 1.147-7.251-1.192l-.897.64zm8.468 1.001l.176.522.001-.001h.002l.005-.002.009-.003.022-.009c.016-.007.035-.015.056-.026a.623.623 0 00.304-.764l-1.044.351a.48.48 0 01.222-.56l.038-.018.017-.007.008-.003.004-.001.002-.001h.002l.176.522zm-.282.331l55.262 42.255.67-.875-55.262-42.256-.67.876zm55.132 41.522c-1.348 2.119-1.305 4.844.21 7.049l.908-.624c-1.272-1.853-1.291-4.099-.188-5.834l-.93-.591zm.215 7.057c2.028 2.839 5.954 3.473 8.789 1.449l-.641-.897a5.186 5.186 0 01-7.251-1.193l-.897.641zm8.786 1.45c1.573-1.111 2.487-2.786 2.603-4.507l-1.1-.074c-.092 1.381-.829 2.756-2.139 3.681l.636.9zm2.095-3.994l61.349-4.719-.085-1.098-61.348 4.718.084 1.099zm60.784-5.093c.211.629.452 1.365.98 2.015l.855-.695c-.382-.471-.571-1.017-.79-1.67l-1.045.35zm.959 1.988c2.028 2.839 5.954 3.473 8.789 1.448l-.641-.896c-2.343 1.674-5.581 1.146-7.251-1.193l-.897.641zm8.789 1.448c2.838-2.027 3.473-5.955 1.449-8.789l-.897.64c1.674 2.344 1.146 5.582-1.193 7.253l.641.896zm1.459-8.776a6.103 6.103 0 00-2.354-2.053l-.491.986a5.011 5.011 0 011.929 1.68l.916-.613zm-2.083-1.368l58.767-157.814-1.032-.385-58.768 157.815 1.033.384zm58.114-157.473c1.797.46 3.757.2 5.344-.922l-.636-.9c-1.295.916-2.916 1.143-4.434.755l-.274 1.067zm5.35-.926c2.743-1.993 3.443-5.742 1.62-8.553l-.924.6c1.5 2.314.93 5.41-1.344 7.062l.648.891zm1.485-7.81l52.574-38.86-.655-.887-52.574 38.861.655.886zm51.869-38.902c2.137 2.012 5.477 2.363 7.997.538l-.646-.892c-2.071 1.499-4.825 1.219-6.596-.449l-.755.803zm7.994.54c2.839-2.028 3.473-5.955 1.45-8.79l-.897.641c1.673 2.344 1.145 5.582-1.193 7.253l.64.896zm1.524-8.645l-.027-.08-1.045.351.027.08 1.045-.351zm-.104.419l64.56-88.973-.892-.647-64.56 88.973.892.647zm63.855-88.81c2.023 1.08 4.63.99 6.597-.455l-.652-.888c-1.608 1.181-3.758 1.261-5.426.37l-.52.973zm6.597-.455c1.723-1.261 2.57-3.114 2.595-5.066l-1.102-.014c-.021 1.629-.719 3.148-2.144 4.191l.65.889zm2.117-4.527l85.147-11.367-.146-1.092-85.147 11.367.146 1.092zm84.534-11.804a5.112 5.112 0 001.024 2.161l.856-.695a4.01 4.01 0 01-.8-1.684l-1.08.218zm1.004 2.134c2.027 2.839 5.954 3.473 8.788 1.448l-.64-.896a5.188 5.188 0 01-7.252-1.193l-.896.641zm8.788 1.448c2.838-2.027 3.473-5.955 1.45-8.789l-.898.64c1.674 2.344 1.146 5.582-1.193 7.253l.64.896zm1.441-8.801a4.7 4.7 0 00-.48-.539l-.777.781c.13.131.24.241.377.421l.88-.663zm-.436.193l82.996-104.966-.864-.684-82.997 104.967.865.683zM113.95 30.07c2.06 1.172 4.67 1.075 6.713-.39l-.642-.896c-1.693 1.214-3.84 1.287-5.526.328l-.545.958zm6.716-.393c1.48-1.078 2.418-2.659 2.621-4.395l-1.095-.128c-.165 1.418-.932 2.727-2.174 3.632l.648.891zm2.099-3.909l91.734-4.217-.051-1.1-91.734 4.216.051 1.101zm91.171-4.645c.196.861.486 1.741 1.054 2.546l.9-.636c-.45-.637-.698-1.36-.879-2.155l-1.075.245zm1.055 2.548c2.028 2.84 5.954 3.474 8.789 1.449l-.641-.897a5.186 5.186 0 01-7.251-1.192l-.897.64zm8.792 1.446c2.744-1.993 3.443-5.742 1.621-8.553l-.925.6c1.501 2.314.93 5.41-1.343 7.062l.647.891zm1.561-7.877l73.825-78.888-.805-.753-73.825 78.888.805.753zm73.15-78.785c2.045 1.163 4.683 1.164 6.739-.31l-.642-.896c-1.68 1.205-3.851 1.215-5.552.248l-.545.958zm6.739-.31c2.838-2.028 3.473-5.956 1.449-8.79l-.897.64c1.674 2.344 1.146 5.582-1.193 7.253l.641.897zm1.452-8.786a6.246 6.246 0 00-6.422-2.537l.228 1.078a5.145 5.145 0 015.292 2.092l.902-.633zm-5.816-2.245l-36.96-73.538-.985.495 36.961 73.538.984-.495zm-37.167-72.819c3.245-1.968 3.888-5.917 1.858-8.76l-.896.641c1.667 2.335 1.148 5.551-1.533 7.177l.571.942zm33.045 82.492c.157.21.358.48.665.718l.675-.872c-.175-.135-.296-.291-.46-.51l-.88.664zm.6-.094L230.67 7.922l.804.753 66.677-71.23-.804-.752zM230.67 7.922l-6.961 7.417.804.754 6.961-7.417-.804-.754zm-6.222 7.359l-.169-.139c-.062-.052-.133-.113-.208-.172a3.066 3.066 0 00-.544-.36l-.491.986c.109.054.22.133.345.233.063.05.123.102.189.157.064.053.134.112.203.166l.675-.872zm-.63-.054l24.392-105.09-1.074-.25-24.391 105.091 1.073.25zm23.635-104.71l48.756 21.26.44-1.01-48.756-21.26-.44 1.01zm48.448 20.597c-.548 1.83-.343 3.899.828 5.648l.916-.613c-.973-1.454-1.149-3.18-.688-4.72l-1.056-.316zM48.139-136.972c1.516.172 3.064-.154 4.485-1.115l-.618-.913c-1.194.809-2.478 1.076-3.742.933l-.125 1.095zm4.507-1.131a6.747 6.747 0 002.378-3.318l-1.046-.347a5.645 5.645 0 01-1.995 2.785l.663.88zm1.772-2.947l109.41 16.597.165-1.09-109.41-16.596-.165 1.089zm108.941 16.053c.001.148.008.315.015.465.007.157.014.298.014.417l1.102-.002a12.163 12.163 0 00-.015-.465 12.233 12.233 0 01-.014-.417l-1.102.002zm.417.354L32.772-84.158l.325 1.053 131.004-40.485-.325-1.053zM33.465-83.481l15.266-53.888-1.06-.301-15.266 53.889 1.06.3zm187.261 97.737l-47.869-134.244-1.038.371 47.869 134.243 1.038-.37zM172.513-119.28c.341-.114.626-.336.824-.485l-.663-.88c-.229.173-.371.273-.511.32l.35 1.045zm.824-.485c.68-.512 1.269-1.098 1.715-1.844l-.946-.565c-.354.591-.831 1.077-1.432 1.529l.663.88zm1.022-1.622l71.623 31.238.44-1.01-71.623-31.238-.44 1.01zm71.306 30.609L221.3 14.394l1.074.248 24.365-105.171-1.074-.249zM221.882 13.969a14.034 14.034 0 01-.437-.044c-.141-.016-.285-.033-.425-.045a3.628 3.628 0 00-.9.017l.174 1.088c.19-.03.386-.028.63-.007.124.011.252.026.398.042.144.016.301.033.47.047l.09-1.098zM172.11-130.22l3.39-16.205-1.078-.225-3.391 16.204 1.079.226zm2.869-15.767l78.723-2.614-.037-1.101-78.722 2.614.036 1.101zm78.557-3.696l-78.847 21.913.295 1.062 78.847-21.913-.295-1.062zm-78.177 22.269a3.153 3.153 0 00-.724-1.177l-.777.781c.2.2.372.497.456.746l1.045-.35zm-.638-1.067c-.696-1.174-1.746-1.909-2.956-2.368l-.39 1.031c1.037.393 1.859.99 2.397 1.899l.949-.562zm-4.737-2.746a5.903 5.903 0 00-4.035 1.159l.663.88a4.803 4.803 0 013.283-.94l.089-1.099zm-4.035 1.159a6.741 6.741 0 00-2.377 3.318l1.046.347a5.637 5.637 0 011.994-2.785l-.663-.88zm-1.772 2.947L58.243-143.189l-.166 1.09 105.935 16.068.165-1.089zm-106-14.974l115.145-3.781-.036-1.102-115.144 3.782.036 1.101zm114.589-4.447l-3.365 15.75 1.077.23 3.365-15.75-1.077-.23zm-15.597 25.813L29.619-62.235l.46 1.002 127.549-58.494-.459-1.001zM30.371-61.91c-.03-.088-.114-.37-.438-.531l-.49.986a.295.295 0 01-.108-.1.124.124 0 01-.018-.032l.002.006.007.022 1.045-.35zm-.243-.37c-.69-.915-1.511-1.624-2.552-2.068l-.433 1.014c.831.354 1.508.925 2.105 1.718l.88-.663zm-2.238-1.41l5.018-17.731-1.06-.3-5.019 17.73 1.06.3zm4.65-17.355L157.561-119.7l-.325-1.053L32.215-82.098l.325 1.052zM25.817-64.92c-1.515-.172-3.063.154-4.484 1.115l.617.913c1.195-.808 2.478-1.076 3.743-.933l.124-1.095zm-4.507 1.131c-.464.35-.892.78-1.286 1.177l.78.777c.407-.407.779-.78 1.169-1.073l-.663-.88zm-.622 1.087l-14.553-8.31-.547.956 14.553 8.31.547-.956zm-14.32-7.616a5.908 5.908 0 00.38-3.27l-1.089.173a4.82 4.82 0 01-.304 2.665l1.013.432zm-.002-2.657l24.305-7.532-.326-1.053L6.04-74.028l.326 1.053zm23.612-8.21l-4.753 16.661 1.06.303 4.753-16.662-1.06-.302zM4.113-67.525c.464-.349.892-.78 1.286-1.175l-.78-.778c-.406.407-.779.78-1.169 1.074l.663.88zm.623-1.086l14.66 8.364.546-.957-14.66-8.364-.546.957zm14.418 7.689c-.724 1.893-.553 4.178.722 5.92l.889-.65c-1.03-1.409-1.187-3.293-.582-4.877l-1.029-.393zm.712 5.907c.397.577.959 1.072 1.455 1.457l.675-.871c-.467-.362-.922-.774-1.222-1.21l-.908.624zm1.302.77l-34.482 67.558.981.501L22.15-53.743l-.982-.501zm-33.991 67.809l-.175-.523h.004l.004-.002.008-.003a.37.37 0 01.059-.013.477.477 0 01.515.313l-1.045.35a.626.626 0 00.763.413.555.555 0 00.033-.01l.005-.001h.002v-.001h.001l-.174-.523zM.238-66.419c1.405.114 2.775-.24 3.884-1.112l-.68-.866c-.866.681-1.953.974-3.114.88l-.09 1.098zm-14.282 91.367l38.389 108.63 1.039-.368-38.389-108.63-1.039.368zM24.69 132.872a3.148 3.148 0 00-1.176.723l.78.778c.2-.2.497-.373.746-.456l-.35-1.045zm-1.104.662c-.796.563-1.352 1.242-1.782 1.962l.946.565c.37-.619.827-1.171 1.472-1.627l-.636-.9zm-1.135 1.721l-74.042-24.631-.348 1.046 74.042 24.631.348-1.046zm-73.707-23.898l35.703-86.51-1.019-.421-35.703 86.511 1.019.42zm35.02-86.198c.922.305 1.903.264 2.782.152l-.139-1.093c-.83.106-1.613.121-2.296-.105l-.346 1.046zM26.453 132.28l-.08.027.35 1.045.08-.027-.35-1.045zm.614.366l-38.415-108.71-1.039.368 38.415 108.709 1.04-.367zm-38.76-108.004c.341-.114.626-.335.824-.484l-.663-.88c-.229.172-.37.272-.51.32l.35 1.044zm.808-.473c1.357-.948 2.225-2.414 2.568-3.973l-1.076-.237c-.293 1.33-1.024 2.54-2.123 3.307l.631.903zm2.006-3.54l34.182 1.456.047-1.102-34.182-1.456-.047 1.101zm33.655.912l1.3 111.268 1.103-.013-1.301-111.268-1.102.013zm-33.169-3.119a7.577 7.577 0 00-1.102-2.995l-.928.593a6.49 6.49 0 01.94 2.56l1.09-.158zm-1.112-3.01c-.397-.579-.959-1.074-1.455-1.458l-.675.871c.467.362.922.774 1.222 1.21l.908-.624zm-1.302-.772l34.482-67.558-.981-.5-34.482 67.557.981.501zm33.746-67.315c.416.207.883.268 1.238.318l.154-1.092c-.394-.055-.674-.1-.9-.212l-.492.986zm.764-.221l.91 72.887 1.101-.014-.91-72.887-1.1.014zm1.484 72.33L-8.915 17.95l-.048 1.1 34.102 1.484.047-1.101zm.82-71.82c.962-.122 1.9-.54 2.678-1.09l-.635-.9c-.663.468-1.434.801-2.182.896l.139 1.094zm2.536-1.018a.996.996 0 00.398-.251c.04-.04.076-.081.098-.107a1.21 1.21 0 01.066-.07l-.78-.778a1.984 1.984 0 00-.111.119l-.053.058c-.008.008-.005.004.005-.002a.124.124 0 01.026-.014l.35 1.045zm-.198-.408L96.978 8.116l.738-.818-68.633-61.929-.739.819zM96.978 8.116l15.204 13.709.738-.819L97.716 7.298l-.738.818zm15.1 13.017a8.258 8.258 0 00-.941 2.321l1.072.256a7.15 7.15 0 01.815-2.012l-.946-.565zm-.381 1.899L26.95 19.377l-.048 1.1 84.747 3.656.048-1.101zm-84.22-3.112l-.99-72.86-1.101.015.99 72.86 1.101-.015zm86.071-.34a.992.992 0 01-.115.097c-.056.042-.136.102-.232.198l.78.778c.038-.038.065-.058.115-.096.056-.043.136-.102.232-.199l-.78-.777zm.412.275L99.13 6.467l-.738.818 14.83 13.388.738-.818zM99.13 6.467L30.204-55.81l-.739.818L98.392 7.285l.739-.818zM30.328-55.154l.08-.16.08-.161-.987-.491-.08.16-.08.16.987.492zm-.539-.055L130.29-14.94l.41-1.023-100.502-40.27-.41 1.024zm100.187 39.575l-12.069 34.45 1.04.364 12.069-34.45-1.04-.364zM118.53 18.457c-1.658-.317-3.419-.023-4.915 1.067l.648.89c1.226-.892 2.671-1.14 4.06-.874l.207-1.083zm-87.36-75.61c.228-1.03.262-2.126-.1-3.208l-1.045.35c.282.842.267 1.725.07 2.62l1.076.237zm-.393-2.532l134.279-61.553-.459-1.002-134.28 61.553.46 1.002zm133.527-61.879c.029.089.114.371.437.532l.491-.987a.276.276 0 01.109.1c.011.018.016.031.017.032l-.002-.006-.008-.021-1.044.35zm.225.345a5.687 5.687 0 002.22 1.92l.491-.986a4.596 4.596 0 01-1.795-1.547l-.916.613zm1.945 1.245L130.586-17.265l1.04.363 35.887-102.708-1.04-.364zM131.311-17.595L30.836-57.784l-.409 1.023 100.474 40.19.41-1.024zm37.13-101.093c.784.11 1.577.142 2.411-.038l-.233-1.077c-.662.143-1.312.124-2.024.024l-.154 1.091zm1.776-.392l47.788 134.003 1.038-.37-47.789-134.003-1.037.37zm48.132 133.296a5.856 5.856 0 00-1.598.833l.663.88a4.766 4.766 0 011.285-.668l-.35-1.045zm-1.563.81c-.666.425-1.166.992-1.553 1.492l.871.675c.359-.464.766-.914 1.275-1.24l-.593-.928zm-.913 1.318L132.782-16.93l-.41 1.023 83.092 33.274.409-1.023zm-82.776-32.58l35.941-102.816-1.041-.364L132.057-16.6l1.04.364zm42.567-107.02c.243-.796.235-1.681.179-2.396l-1.099.087c.053.675.048 1.393-.134 1.988l1.054.321zm-.223-1.822l80.076-22.235-.295-1.062-80.076 22.235.295 1.062zm79.406-22.591c.052.156.139.286.179.348l.051.083c.011.019.012.026.011.023l1.045-.351c-.052-.155-.139-.286-.179-.348a1.859 1.859 0 01-.062-.106l-1.045.351zm.324.61c.861 1.145 2.029 2.03 3.346 2.386l.288-1.064c-1.035-.28-2.008-.994-2.754-1.985l-.88.663zm2.954 1.73l-12.276 52.974 1.074.248 12.275-52.973-1.073-.249zm-11.518 52.593l-71.249-31.185-.442 1.009 71.249 31.186.442-1.01zm7.848-60.116c-.156.574-.342 1.245-.31 1.96l1.101-.05c-.023-.514.109-1.02.272-1.622l-1.063-.288zm.223 1.385l-79.257 2.615.036 1.101 79.257-2.615-.036-1.101zm-78.7 3.278l8.556-40.938-1.079-.225-8.556 40.938 1.079.225zm7.972-40.502a5.907 5.907 0 004.035-1.158l-.662-.881a4.8 4.8 0 01-3.283.941l-.09 1.098zm4.035-1.158a7.97 7.97 0 001.235-1.181l-.838-.715a6.99 6.99 0 01-1.059 1.015l.662.881zm.538-1.063l66.185 38.68.556-.952-66.185-38.679-.556.951zm-9.759-1.03c.093.279.323.564.482.722l.777-.78a1.415 1.415 0 01-.197-.256.235.235 0 01-.017-.036l-1.045.35zm.416.644a5.666 5.666 0 003.018 2.24l.332-1.052a4.554 4.554 0 01-2.441-1.812l-.909.624zm2.645 1.601l-8.689 41.339 1.078.227 8.689-41.34-1.078-.226zm-8.168 40.902l-119.02 3.923.037 1.101 119.019-3.923-.036-1.101zm-118.479 4.298v-.003l-.001-.001v-.002l-.001-.001v-.002h-.001v-.003l-.001-.001v-.002h-.001v-.003l-.001-.001v-.002l-.001-.001v-.002h-.001v-.003l-.001-.001v-.002h-.001v-.003l-.001-.001v-.002h-.001v-.003l-.001-.001v-.002h-.001v-.003h-.001v-.003h-.001v-.003h-.001v-.003h-.001v-.003l-.001-.001v-.002h-.001v-.003h-.001v-.003h-.001v-.003h-.001v-.003h-.001v-.003h-.001v-.003h-.001v-.003h-.001v-.003h-.001v-.003h-.001v-.003h-.001v-.003h-.001v-.003h-.001v-.003h-.001v-.003h-.001v-.003h-.001v-.003h-.001v-.002l-.001-.001v-.003h-.001v-.003h-.001v-.003h-.001v-.002l-.001-.001v-.003h-.001v-.003h-.001v-.002l-.001-.001v-.002l-.001-.001v-.003h-.001v-.002l-.001-.001v-.002l-.001-.001v-.002l-.001-.001v-.003h-.001v-.002l-.001-.001v-.002l-.001-.001v-.002l-.001-.001v-.001l-.523.175-.522.176v.003h.001v.003h.001v.003h.001v.003h.001v.003h.001v.003h.001v.003h.001v.003h.001v.003h.001v.003h.001v.003h.001v.003h.001v.003h.001v.003h.001v.003h.001v.003h.001v.003h.001v.003h.001v.003h.001v.003h.001v.003h.001v.002l.001.001v.003h.001v.003h.001v.003h.001v.002l.001.001v.003h.001v.003h.001v.003h.001v.003h.001v.003h.001v.003h.001v.003h.001v.002l.001.001v.002l.001.001v.002l.001.001v.002l.001.001v.002l.001.001v.002l.001.001v.002l.001.001v.002l.001.001v.002l.001.001v.002l.001.001v.002l.001.001v.002l.001.001v.002l.001.001v.002h.001v.003l.001.001v.002h.001v.003l.001.001v.002l.001.001v.002h.001v.003l.001.001v.001l1.045-.351zm-.38.53l124.685-47.635-.393-1.03-124.684 47.636.393 1.029zm-8.293 6.439a.459.459 0 01-.316-.011l-.011-.005.051.024a.644.644 0 00.463.018l-.35-1.044a.47.47 0 01.316.011l.01.004a.643.643 0 00-.514-.042l.351 1.045zm-.518-.645L30.482-83.135l1.06.298 15.505-55.038-1.06-.298zM30.85-83.513L5.477-75.71l.324 1.053 25.373-7.801-.324-1.054zM6.161-75.36c-.134-.4-.36-.747-.538-.984l-.88.663c.143.19.293.43.374.672l1.044-.35zm-.5-.927c-.256-.446-.575-.76-.839-1.023l-.778.78c.272.271.488.49.661.792l.956-.549zm-.773-.321l41.896-61.131-.909-.623L3.98-77.232l.909.624zm-24.899 98.914a.76.76 0 00.121.22c.017.021.032.04.042.05l.023.028c.016.018.007.01.002-.005l1.045-.35a1.065 1.065 0 00-.237-.393l-.006-.008c.002.003.033.042.055.107l-1.045.35zm.27.45c.522.693 1.207 1.317 1.83 1.768l.647-.893a7.732 7.732 0 01-1.597-1.539l-.88.663zm1.644 1.111l-35.783 86.538 1.018.421 35.784-86.538-1.019-.42zm-35.1 86.225l-91.745-30.37-.346 1.047 91.744 30.369.346-1.046zm-91.376-29.746c.172-.931.145-1.91-.158-2.815l-1.045.35c.234.699.264 1.484.119 2.264l1.084.2zm-.458-2.136l125.765-55.576-.445-1.008-125.765 55.576.445 1.008zm-124.662 380.565a6.366 6.366 0 00-1.576 2.282l1.017.424a5.29 5.29 0 011.303-1.894l-.744-.812zm-.895 1.97l-51.608-17.004-.345 1.047 51.608 17.004.345-1.047zm-51.3-16.211l20.67-36.712-.96-.541-20.67 36.713.96.54zm20.01-36.461c1.415.488 2.984.545 4.47.047l-.35-1.045c-1.237.415-2.555.371-3.761-.044l-.359 1.042zm3.812-.211l28.262 51.584.966-.53-28.262-51.584-.966.53zm100.64-168.92l-6.081 50.182 1.094.132 6.081-50.181-1.094-.133zm-5.565 49.698a5.901 5.901 0 00-3.158 1.158l.663.88a4.809 4.809 0 012.558-.938l-.063-1.1zm-3.123 1.134c-.359.229-.67.545-.886.823l.871.675c.158-.204.38-.424.608-.57l-.593-.928zm-.142.704l-102.238-69.106-.617.913 102.238 69.106.617-.913zm-102.053-68.404c.069-.139.127-.297.17-.417.05-.134.086-.231.123-.305l-.987-.491c-.069.14-.126.298-.17.417-.05.135-.086.231-.123.305l.987.491zm-.288-.423l111.63 17.902.175-1.089-111.63-17.902-.175 1.089zm-1.878 2.825a3.181 3.181 0 001.06-.996l-.907-.625a2.085 2.085 0 01-.701.665l.548.956zm.298-.852l102.238 69.106.617-.914-102.238-69.105-.617.913zm102.053 68.404c-.208.418-.454.906-.577 1.464l1.076.237c.089-.405.27-.773.487-1.211l-.986-.49zm-.034 1.031l-99.333-.9-.01 1.102 99.333.9.01-1.102zm-98.788-.392l-5.336-67.746-1.099.086 5.336 67.747 1.099-.087zm-5.769-67.164a5.85 5.85 0 002.297-1.065l-.662-.881a4.74 4.74 0 01-1.868.868l.233 1.078zm103.873 69.888a6.728 6.728 0 001.052 3.139l.929-.594a5.621 5.621 0 01-.883-2.631l-1.098.086zm1.107 2.473l-89.207 99.206.819.737 89.207-99.206-.819-.737zm-88.493 99.115c-.874-.58-1.989-.994-3.099-1.022l-.027 1.102c.868.022 1.785.353 2.516.838l.61-.918zm-2.563-.515l-8.126-102.114-1.098.088 8.125 102.114 1.099-.088zm-8.68-101.519l99.172.954.011-1.102-99.172-.954-.011 1.102zm6.485 101.1a3.435 3.435 0 00-.79.221c-.255.098-.452.184-.678.26l.35 1.045c.254-.085.525-.201.724-.277.22-.084.388-.138.532-.156l-.138-1.093zm-.844.684l-71.189-100.118-.898.638 71.189 100.119.898-.639zm-71.271-99.388a5.67 5.67 0 001.858-3.589l-1.095-.119a4.567 4.567 0 01-1.497 2.886l.734.822zm1.305-3.097l62.694.624.012-1.102-62.695-.624-.011 1.102zm62.151.117l8.179 102.275 1.098-.089-8.179-102.274-1.098.088zm-68.003 4.785c1.084.027 2.072-.211 3.064-.638l-.436-1.012c-.878.378-1.707.571-2.6.549l-.028 1.101zm2.397-.825l71.189 100.119.898-.639-71.189-100.119-.898.639zm71.266 99.393a5.432 5.432 0 00-1.51 2.294l1.046.346a4.337 4.337 0 011.208-1.827l-.744-.813zm-.865 1.93l-88.117-20.087-.245 1.075 88.117 20.086.245-1.074zm-87.699-19.447l15.456-81.499-1.082-.205-15.456 81.499 1.082.205zm86.58 21.485c-.022.152-.079.479.024.787l1.045-.351c.002.006-.004-.009-.003-.062.002-.056.011-.121.025-.22l-1.091-.154zm.456.068l-90.752 15.12.181 1.087 90.752-15.12-.181-1.087zm-90.139 15.489a6.969 6.969 0 00-.873-1.739l-.908.624c.32.466.565.955.736 1.465l1.045-.35zm-.879-1.748c-.735-1.025-1.643-1.69-2.665-2.199l-.491.987c.904.449 1.655 1.01 2.26 1.854l.896-.642zm-2.369-1.603l6.087-32.087-1.083-.205-6.087 32.087 1.083.205zm5.423-31.652l87.931 20.06.245-1.074-87.931-20.06-.245 1.074zm-7.613 30.684c-1.533-.174-2.975.218-4.304 1.146l.631.904c1.126-.787 2.302-1.096 3.549-.955l.124-1.095zm-4.32 1.158c-.159.119-.552.374-.798.692l.871.675c.127-.164.322-.285.59-.487l-.663-.88zm-.024.594l-65.701-51.055-.676.87 65.701 51.056.676-.871zm-66.161-50.083l76.354 17.437.245-1.075-76.354-17.437-.245 1.075zm75.935 16.797l-6.034 31.98 1.083.204 6.034-31.979-1.083-.205zm-.205 38.549l90.858-15.335-.183-1.086-90.859 15.334.184 1.087zm90.244-15.703c.203.607.497 1.196.86 1.679l.88-.663a4.883 4.883 0 01-.695-1.366l-1.045.35zm.846 1.659c.386.563.819.936 1.19 1.306l.778-.781c-.433-.431-.749-.697-1.06-1.149l-.908.624zm1.099.645l-20.856 36.953.959.541 20.857-36.953-.96-.541zm-20.205 36.7l-72.01-23.62-.343 1.048 72.01 23.619.343-1.047zm-71.65-22.952c.091-.335.126-.571.125-.894l-1.102.002c0 .212-.018.351-.086.604l1.063.288zm194.748-130.95l6.135-50.021-1.094-.134-6.134 50.021 1.093.134zm5.501-49.544l48.597 7.762.174-1.088-48.597-7.762-.174 1.088zm48.159 7.05c-.527 1.653-.312 3.434.499 4.992l.978-.509c-.691-1.326-.856-2.804-.427-4.147l-1.05-.336zm.661 4.294l-52.654 38.887.655.887 52.653-38.887-.654-.887zm-51.989 38.895c-.797-.618-1.806-1.043-2.735-1.294l-.288 1.064c.837.226 1.7.599 2.348 1.101l.675-.871zm58.325-47.474a4.698 4.698 0 00-1.729-.03l.174 1.089a3.61 3.61 0 011.318.017l.237-1.076zm-1.226.153l-24.424-28.177-.832.722 24.424 28.177.832-.722zm-24.424-28.177l-19.469-22.44-.832.722 19.469 22.44.832-.722zm-19.469-21.718c1.207-1.39 1.664-3.208 1.459-4.972l-1.095.128c.175 1.496-.217 2.994-1.196 4.121l.832.723zm1.075-4.381l39.394-12.24-.326-1.052-39.395 12.239.327 1.053zm38.681-12.728l4.695 67.428 1.099-.077-4.694-67.427-1.1.076zm-44.279 19.311c1.03-.06 2.117-.321 3.096-.947l-.593-.929c-.782.5-1.673.724-2.566.775l.063 1.101zm2.383-1.051l19.496 22.521.833-.722-19.496-22.52-.833.721zm19.496 22.521l23.835 27.484.833-.722-23.835-27.484-.833.722zm24.076 26.6c-.413.139-.768.374-1.142.693l.713.84c.319-.272.551-.411.779-.488l-.35-1.045zm-1.082.648c-.666.426-1.166.993-1.553 1.493l.871.675c.359-.464.767-.914 1.275-1.239l-.593-.929zm-1.031 1.286l-49.159-7.841-.173 1.088 49.159 7.842.173-1.089zm-48.699-7.229l5.372-43.258-1.093-.135-5.372 43.257 1.093.136zm57.205 5.905c-.225-.174-.551-.436-.969-.549l-.288 1.064c.169.046.325.157.582.356l.675-.871zm-.564-.056l-4.776-68.469-1.099.077 4.776 68.469 1.099-.077zm-5.162-67.904l68.773-21.385-.327-1.053-68.773 21.385.327 1.053zm68.087-21.736c.134.399.36.747.538.984l.88-.663a2.486 2.486 0 01-.373-.672l-1.045.351zm.514.949c.23.359.545.67.823.886l.675-.871a2.592 2.592 0 01-.57-.608l-.928.593zm.715.127l-24.63 33.94.892.647 24.63-33.94-.892-.647zm-24.63 33.94l-39.744 54.792.892.647 39.744-54.792-.892-.647zm-48.583-104.66a.923.923 0 01.115-.097c.056-.042.136-.102.232-.199l-.781-.777a.9.9 0 01-.114.096 1.847 1.847 0 00-.232.198l.78.778zm-.408-.272l72.967 64.486.73-.826-72.967-64.485-.73.826zm72.874 63.766c-.852 1.27-1.197 2.854-.961 4.427l1.09-.164c-.198-1.312.093-2.616.786-3.648l-.914-.615zm-.58 3.819l-68.453 21.277.327 1.053 68.453-21.278-.327-1.052zm-67.74 21.765l-6.176-88.593-1.099.077 6.176 88.593 1.099-.077zm-6.603-88.017c.899-.205 1.648-.555 2.351-.979l-.568-.944c-.632.381-1.272.676-2.028.848l.245 1.075zm76.51 60.772a.988.988 0 01-.114.096 1.958 1.958 0 00-.232.198l.78.778c.038-.038.065-.058.115-.096.057-.043.137-.102.233-.199l-.781-.777zm.41.27l-63.492-56.165-.73.826 63.491 56.165.73-.826zm-63.494-56.166l-9.475-8.32-.727.827 9.475 8.321.727-.828zm-9.346-7.661c.034-.068.072-.125.134-.214.058-.085.14-.201.213-.348l-.987-.491a1.722 1.722 0 01-.133.213c-.059.085-.14.202-.213.349l.986.49zm-.32-.285l91.557 30.344.347-1.046-91.557-30.344-.347 1.046zm91.221 29.611l-13.807 33.518 1.018.42 13.808-33.518-1.019-.42zm-13.161 33.194c-1.814-.464-3.663-.137-5.237.975l.636.9c1.31-.925 2.826-1.192 4.327-.807l.274-1.068zm-84.345-59.75c.068.01.165.031.293.06.113.024.256.056.376.073l.153-1.091a4.713 4.713 0 01-.292-.059c-.113-.025-.257-.057-.376-.073l-.154 1.09zm.196-.374l6.204 88.94 1.099-.076-6.204-88.94-1.099.076zm6.59 88.376l-39.715 12.347.327 1.052 39.715-12.347-.327-1.052zm-39.029 12.698c-.139-.413-.374-.768-.693-1.143l-.839.713c.271.32.41.552.487.78l1.045-.35zm-.662-1.104c-.553-.783-1.262-1.436-2.105-1.856l-.491.987c.654.326 1.23.846 1.695 1.505l.901-.636zm-1.832-1.177l35.333-98.778-1.038-.371-35.333 98.778 1.038.371zm-9.098 7.329c.163.486.394.84.719 1.223l.84-.714c-.264-.31-.409-.544-.515-.859l-1.044.35zm.692 1.189c.904 1.249 2.165 2.103 3.56 2.426l.249-1.073c-1.119-.26-2.158-.952-2.916-1.999l-.893.646zm3.137 1.823l-5.265 43.043 1.094.134 5.265-43.044-1.094-.133zm-4.631 42.566l-111.63-17.902-.175 1.088 111.631 17.902.174-1.088zm-111.172-17.281c.026-.181-.002-.367-.013-.454a2.008 2.008 0 01-.013-.126c-.002-.031-.001-.04-.002-.035l-1.091-.154c-.025.181.002.367.013.454.007.057.012.093.014.126.002.032 0 .04.001.035l1.091.154zm-.442-.157l113.069-27.78-.262-1.07-113.069 27.78.262 1.07zm-9.218 5.368c.88.584 1.889.94 2.992.968l.028-1.102c-.875-.022-1.685-.303-2.41-.785l-.61.919zm2.456.461l5.363 67.559 1.098-.087-5.362-67.56-1.099.088zm5.917 66.964l-62.587-.571-.01 1.102 62.587.572.01-1.103zm-62.046-.089c-.117-.924-.467-1.998-1.146-2.798l-.84.713c.499.588.793 1.437.893 2.223l1.093-.138zm-1.178-2.832a.84.84 0 01-.085-.12c-.043-.068-.12-.191-.236-.307l-.778.781a.734.734 0 01.086.12c.043.068.12.191.236.307l.777-.781zm-.292.323l55.866-64.927-.836-.719-55.865 64.927.835.719zm-9.344 7.799c.734.731 1.577 1.219 2.451 1.584l.424-1.017c-.783-.327-1.492-.745-2.097-1.348l-.778.781zm2.122.973l-15.403 81.392 1.083.205 15.403-81.392-1.083-.205zm-14.739 80.957l-78.173-17.807-.244 1.074 78.172 17.808.245-1.075zm-77.975-16.821l91.301-65.051-.64-.897-91.301 65.05.64.898zm75.962 60.466c.114-.148.217-.315.3-.45.09-.146.161-.26.233-.353l-.871-.675c-.115.148-.217.315-.3.45-.09.146-.161.26-.233.353l.871.675zm-.075-.617l71.609 23.487.344-1.047-71.609-23.487-.344 1.047zm71.301 22.692l-10.574 18.705.959.542 10.575-18.704-.96-.543zm-9.835 18.49c-2.038-1.088-4.526-.924-6.577.44l.61.917c1.74-1.156 3.794-1.268 5.448-.385l.519-.972zm-6.662.51a.695.695 0 01-.12.085c-.068.043-.191.12-.307.236l.781.778a.626.626 0 01.119-.085c.068-.044.192-.12.308-.237l-.781-.777zm.298.272l-55.128-42.122-.669.876 55.128 42.122.669-.876zm9.697 3.644c-.169-.782-.46-1.673-1.011-2.405l-.881.663c.414.549.66 1.261.815 1.975l1.077-.233zm-.987-2.37a3.677 3.677 0 00-.823-.886l-.675.871a2.6 2.6 0 01.569.608l.929-.593zm-.681-.179l10.867-19.159-.958-.543-10.868 19.159.959.543zm10.216-18.907l52.089 17.11.344-1.047-52.089-17.11-.344 1.047zm51.716 16.51c-.019.135-.019.235-.019.305 0 .063 0 .097-.007.15l1.091.153c.019-.134.018-.234.018-.305 0-.063 0-.097.008-.149l-1.091-.154zm.479-.018l-61.322 4.531.081 1.099 61.322-4.531-.081-1.099zm6.681-5.676c-1.216-.171-2.535-.026-3.718.568l.495.985c.953-.479 2.04-.606 3.069-.461l.154-1.092zm-2.987.795l-28.208-51.423-.966.53 28.208 51.424.966-.531zm-28.356-50.721c2.714-2.081 3.299-5.893 1.299-8.648l-.892.647c1.643 2.263 1.172 5.402-1.077 7.127l.67.874zm1.375-8.5a.989.989 0 00-.251-.398c-.039-.04-.081-.076-.106-.098a1.746 1.746 0 01-.071-.066l-.778.781c.046.046.089.084.119.111l.059.052-.003-.004a.178.178 0 01-.014-.027l1.045-.351zm-.407.197l46.297-51.463-.819-.737-46.297 51.463.819.737zm46.297-51.464l42.776-47.607-.819-.737-42.777 47.608.82.736zm41.978-47.585c.205.204.388.291.598.396l.491-.987c-.218-.108-.248-.127-.311-.19l-.778.781zm.327-.29l-58.821 157.922 1.033.384 58.821-157.921-1.033-.385zm143.037-150.157a8.241 8.241 0 00-.916-1.884l-.929.594c.355.556.602 1.049.8 1.641l1.045-.351zm-.94-1.918c-.522-.694-1.207-1.318-1.83-1.769l-.647.892c.554.402 1.154.952 1.597 1.54l.88-.663zm-1.644-1.113l13.86-33.625-1.018-.42-13.861 33.625 1.019.42zm13.178-33.312l74.016 24.551.347-1.046-74.016-24.551-.347 1.046zm73.657 23.884c-.092.34-.156.779-.122 1.204l1.098-.087c-.02-.271.02-.58.088-.829l-1.064-.288zm.354.614l-85.2 11.474.147 1.093 85.2-11.475-.147-1.092zm9.092-4.457a6.09 6.09 0 00-2.027-.79l-.214 1.081c.606.12 1.16.336 1.663.647l.578-.938zm-1.583-.257L27.454 21.711l-1.102.014 1.461 111.215 1.102-.015zM26.879 22.269l84.667 3.682.048-1.102-84.667-3.681-.048 1.1zm84.145 3.21c.146 1.006.469 1.98 1.179 2.923l.881-.663c-.576-.765-.844-1.553-.969-2.418l-1.091.158zm1.179 2.923c.12.16.374.552.692.798l.675-.871c-.164-.127-.285-.322-.486-.59l-.881.663zm.598.02L29.777 133.31l.864.684 83.024-104.886-.864-.684zm10.66-4.904c-.196-.861-.485-1.742-1.054-2.546l-.9.636c.45.637.698 1.36.88 2.155l1.074-.245zm-1.054-2.546c-.553-.783-1.261-1.436-2.105-1.855l-.491.986c.655.326 1.231.846 1.696 1.505l.9-.636zm-1.83-1.18l11.989-34.424-1.041-.363-11.988 34.424 1.04.362zm11.264-34.094l82.877 33.167.41-1.023-82.878-33.167-.409 1.023zM214.4 18.18a6.209 6.209 0 00-.288 1.166l1.091.154c.047-.33.116-.59.243-.973l-1.046-.347zm.232.693l-91.733 4.217.05 1.1 91.734-4.216-.051-1.101zm83.66-90.93c-.671.429-1.179 1.004-1.56 1.621l.939.579c.311-.507.71-.95 1.214-1.271l-.593-.929zm-.87 1.405l-49.077-21.42-.441 1.01 49.077 21.42.441-1.01zm-48.761-20.79l12.408-53.374-1.073-.25-12.408 53.375 1.073.25zm11.896-52.949a7.122 7.122 0 001.994-.379l-.35-1.045c-.594.2-1.132.298-1.693.323l.049 1.101zm1.326-.654l36.827 73.404.985-.494-36.827-73.404-.985.494zm37.318 72.606c-.488.001-.835.29-1.003.457l.781.778a.616.616 0 01.132-.104.194.194 0 01.092-.029l-.002-1.102z" fill="#1A1C20" mask="url(#path-2-inside-1_1201_2074)"/><path transform="rotate(-51.738 154.266 35.455) skewX(-.015)" stroke="url(#paint0_linear_1201_2074)" stroke-width=".551" d="M0-.276h134.42"/><path transform="rotate(18.362 -334.168 -344.754) skewX(.009)" stroke="url(#paint1_linear_1201_2074)" stroke-width=".551" d="M0-.276h137.737"/></g><defs><linearGradient id="paint0_linear_1201_2074" x1="134.42" y1="0" x2="0" y2="0" gradientUnits="userSpaceOnUse"><stop offset=".21" stop-color="#303236"/><stop offset=".501" stop-color="#fff"/><stop offset=".812" stop-color="#303236"/></linearGradient><linearGradient id="paint1_linear_1201_2074" x1="137.737" y1="0" x2="0" y2="0" gradientUnits="userSpaceOnUse"><stop offset=".21" stop-color="#303236"/><stop offset=".501" stop-color="#fff"/><stop offset=".812" stop-color="#303236"/></linearGradient></defs></svg>