<svg width="593" height="717" fill="none" xmlns="http://www.w3.org/2000/svg"><mask id="mask0_808_4723" style="mask-type:luminance" maskUnits="userSpaceOnUse" x="-778" y="-608" width="1554" height="1554"><path d="M385.371-607.842L-777.902-217.473l390.145 1163.455L775.517 555.613 385.371-607.842z" fill="#fff"/></mask><g mask="url(#mask0_808_4723)"><mask id="path-2-inside-1_808_4723" fill="#fff"><path d="M531.546-196.212c-2.684-3.759-7.885-4.603-11.643-1.918-.737.506-1.395 1.245-1.937 1.944l-95.937-56.08c1.082-2.563.727-5.551-.985-7.953-2.684-3.759-7.884-4.603-11.643-1.918-2.828 1.985-3.986 5.48-3.321 8.622l-181.141 69.2c-.078-.233-.311-.543-.506-.736-2.684-3.759-7.885-4.603-11.643-1.918-3.759 2.685-4.603 7.887-1.919 11.646.312.543.701.93 1.089 1.317l-60.944 88.793c-2.641-1.314-5.939-1.114-8.574.677-3.758 2.685-4.602 7.887-1.918 11.645 1.05 1.59 4.816 2.785 6.524 3.247L127.864 47.202c-1.707-.075-5.703.36-7.175 1.372-2.906 2.14-4.141 5.79-3.165 9.087l-182.478 80.651c-.039-.117-.194-.194-.272-.427-2.684-3.759-7.885-4.602-11.644-1.917-3.758 2.685-4.602 7.887-1.918 11.646.739 1.046 1.827 1.975 2.914 2.516l-51.182 143.375c-2.213-.423-4.695-.107-6.671 1.332-2.635 1.791-3.794 4.897-3.478 7.769l-164.162 40.333a4.908 4.908 0 00-.934-1.628c-2.684-3.759-7.885-4.603-11.643-1.918-3.759 2.685-4.603 7.887-1.919 11.646.194.194.272.426.467.62l-81.149 94.149c-2.797-1.779-6.405-1.733-9.35.29-3.449 2.452-4.411 6.917-2.658 10.6l-134.456 95.729-4.89-1.077 104.052 80.668c-1.547 2.719-1.424 6.173.521 8.885 2.684 3.759 7.885 4.603 11.643 1.918 0 0 .117-.039.078-.156l80.233 61.35c-1.78 2.798-1.734 6.407.289 9.352 2.684 3.759 7.885 4.602 11.643 1.917 2.092-1.478 3.291-3.693 3.442-5.944l89.07-6.85c.312.931.624 1.861 1.286 2.675 2.684 3.759 7.884 4.602 11.643 1.917 3.758-2.685 4.602-7.886 1.918-11.645a8.06 8.06 0 00-3.109-2.711l85.323-229.126c2.407.616 5.006.262 7.098-1.217 3.642-2.646 4.565-7.615 2.152-11.336l76.33-56.42c2.837 2.672 7.261 3.129 10.594.717 3.758-2.686 4.602-7.887 1.918-11.646l-.039-.117 93.733-129.177c2.68 1.43 6.133 1.307 8.729-.599 2.286-1.674 3.406-4.121 3.44-6.721l123.622-16.503a6.63 6.63 0 001.325 2.791c2.684 3.759 7.884 4.602 11.643 1.917 3.758-2.685 4.602-7.886 1.918-11.645a5.931 5.931 0 00-.622-.698L312.475 70.549c2.718 1.546 6.171 1.423 8.884-.523 1.976-1.44 3.213-3.537 3.481-5.827l133.185-6.123c.274 1.203.664 2.366 1.404 3.412 2.684 3.76 7.884 4.603 11.643 1.918 3.642-2.646 4.564-7.615 2.152-11.336L580.408-62.465c2.719 1.547 6.211 1.54 8.923-.406 3.759-2.685 4.603-7.887 1.919-11.646a8.269 8.269 0 00-8.504-3.359l-53.662-106.767c4.302-2.609 5.146-7.81 2.462-11.569zm46.569 131.54c.233.31.467.62.816.89L482.124 39.634l-10.106 10.77c-.35-.271-.739-.659-1.205-.89l35.414-152.58 70.788 30.867c-.733 2.446-.456 5.201 1.1 7.526zM216.62-172.076c2.018.229 4.073-.202 5.972-1.486a8.985 8.985 0 003.173-4.43l158.849 24.096c.001.388.041.892.042 1.28l-190.201 58.78 22.165-78.24zM466.35 48.552l-69.5-194.904c.349-.117.659-.351.969-.584.93-.7 1.704-1.478 2.285-2.449l103.987 45.353-35.374 152.696c-.932-.076-1.63-.23-2.367-.112zM395.736-161.64l4.922-23.526 114.295-3.796-114.476 31.815a3.768 3.768 0 00-.856-1.396c-.895-1.512-2.255-2.479-3.885-3.097zm-2.368-.5a7.779 7.779 0 00-5.313 1.524 8.994 8.994 0 00-3.173 4.431l-153.804-23.33 167.175-5.491-4.885 22.866zm-18.208 15.171L189.974-62.045c-.039-.116-.078-.232-.233-.31-.934-1.24-2.022-2.169-3.381-2.748l7.286-25.743L375.16-146.97zM184.031-65.875c-2.018-.228-4.074.202-5.973 1.487-.62.467-1.201 1.05-1.781 1.633L155.148-74.82c.579-1.36.732-2.834.496-4.308l35.287-10.936-6.9 24.19zm-31.903-5.214c.62-.467 1.201-1.05 1.782-1.634l21.284 12.143c-.965 2.525-.727 5.551.946 7.837.506.737 1.244 1.395 1.943 1.937L128.02 47.279s-.117.04-.156-.077l19.184-116.846c1.863.152 3.647-.317 5.08-1.445zM127.002 63.54l55.735 157.716a3.775 3.775 0 00-1.395.857c-1.046.739-1.782 1.633-2.362 2.604l-107.5-35.761 51.836-125.603c1.164.386 2.445.345 3.686.187zm58.294 156.857l-.116.039-55.774-157.832c.349-.117.659-.35.969-.584 1.782-1.245 2.943-3.188 3.404-5.285l49.628 2.115 1.889 161.547zm-51.637-165.95a10.21 10.21 0 00-1.482-4.034c-.506-.736-1.244-1.394-1.944-1.936l50.064-98.085c.466.231 1.009.308 1.553.385L183.17 56.6l-49.511-2.153zm50.635-103.714c1.241-.158 2.482-.703 3.528-1.443.233-.078.31-.233.504-.428l99.646 89.912 22.075 19.904c-.58.97-1.005 2.02-1.275 3.145l-123.041-5.306-1.437-105.784zM312.061 56.579c-.194.194-.31.233-.504.428l-21.53-19.438-100.075-90.416.232-.466L336.099 5.152l-17.523 50.017c-2.212-.422-4.539-.03-6.515 1.41zM191.111-55.566c.308-1.398.344-2.834-.124-4.23l194.955-89.367c.039.116.078.232.234.31.778 1.162 1.827 1.975 2.914 2.516L336.987 2.783l-145.876-58.35zm200.192-89.96c1.087.153 2.135.19 3.221-.045l69.382 194.555a7.704 7.704 0 00-2.093 1.09c-.853.546-1.511 1.284-2.053 1.984L339.123 3.748l52.18-149.274zm9.611-6.073c.309-1.01.307-2.174.227-3.183l116.26-32.283c.078.233.273.426.351.659 1.166 1.55 2.721 2.711 4.429 3.173l-17.823 76.911-103.444-45.277zm115.931-42.528c-.231.855-.462 1.709-.422 2.601l-115.071 3.797 12.422-59.437a7.773 7.773 0 005.313-1.524c.62-.467 1.201-1.05 1.665-1.594l96.093 56.157zm-109.907-57.217c.078.233.311.543.506.737a7.42 7.42 0 003.963 2.941l-12.616 60.02-172.8 5.696-.078-.233 181.025-69.161zm-193.036 78.499c.117-.039.156.077.272.038l-22.511 79.908-36.838 11.326c-.156-.465-.429-.891-.662-1.201-.312-.543-.7-.93-1.089-1.317l60.828-88.754zM118.343 59.716c.039.117.194.194.272.427.7.93 1.633 1.782 2.488 2.4L69.15 188.186l-133.201-44.093c.23-1.242.19-2.523-.2-3.686l182.594-80.69zm-362.725 634.542c-.891.817-1.588 1.827-2.09 3.031l-74.928-24.688 30.01-53.302c1.902.656 3.998.729 5.975.066l41.033 74.893zm105.176-319.663l-8.828 72.858a7.77 7.77 0 00-4.149 1.521 4.567 4.567 0 00-1.084 1.011l-148.437-100.332c.155-.311.27-.738.425-1.049l162.073 25.991zm-165.324-21.793c.542-.312.93-.701 1.278-1.206l148.436 100.333c-.309.621-.618 1.243-.772 1.942l-144.219-1.307-7.747-98.359a7.69 7.69 0 003.024-1.403zm148.753 103.591a8.972 8.972 0 001.404 4.189L-283.89 604.615c-1.165-.774-2.641-1.314-4.076-1.35l-11.797-148.256 143.986 1.384zm-134.478 146.993c-.621.079-1.28.429-1.978.664L-395.59 458.69a7.424 7.424 0 002.435-4.7l91.025.907 11.875 148.489zm-111.383-142.278c1.435.036 2.754-.277 4.111-.862l103.357 145.36c-.891.816-1.587 1.827-1.973 2.992l-127.936-29.163 22.441-118.327zm104.84 149.781c-.039.271-.077.543.001.776l-131.76 21.952a9.346 9.346 0 00-1.168-2.326c-.973-1.356-2.177-2.246-3.575-2.942l8.838-46.585 127.664 29.125zm-138.986 16.999c-2.018-.229-3.918.28-5.701 1.525-.31.233-.736.506-1.007.856l-95.388-74.127 110.856 25.316-8.76 46.43zm7.543 8.6l131.914-22.263c.273.814.663 1.59 1.13 2.21.505.736 1.049 1.201 1.632 1.782l-30.28 53.651-104.549-34.293c.115-.427.154-.699.153-1.087zm282.574-188.924l8.906-72.624 70.557 11.27c-.694 2.174-.418 4.541.672 6.634l-76.446 56.459c-1.049-.812-2.408-1.392-3.689-1.739zm88.687-67.038c-.699-.154-1.475-.152-2.212-.034l-35.46-40.91-28.267-32.581c1.588-1.827 2.204-4.234 1.928-6.601l57.196-17.769 6.815 97.895zm-71.947-70.602c1.396-.081 2.831-.433 4.11-1.25l28.306 32.697 34.605 39.902c-.465.156-.892.429-1.395.857-.853.544-1.511 1.283-2.053 1.983l-71.372-11.385 7.799-62.804zm75.558 72.108c-.35-.271-.7-.542-1.126-.657l-6.935-99.409 99.85-31.048c.157.466.429.892.662 1.202.273.426.661.814 1.011 1.085l-35.76 49.277-57.702 79.55zm-14.047-232.539c.193-.195.31-.234.503-.428l105.94 93.625c-1.123 1.671-1.585 3.767-1.27 5.862l-99.385 30.892-8.968-128.626c1.203-.274 2.21-.741 3.18-1.325zm108.65 90.903c-.194.194-.31.234-.504.428l-92.182-81.545-13.757-12.08c.154-.311.348-.505.503-.816l132.929 44.055-20.047 48.664c-2.407-.616-4.85-.185-6.943 1.294zm-115.205-89.61c.272.039.699.154.97.192l9.007 129.131-57.661 17.926c-.156-.466-.428-.892-.856-1.396-.739-1.046-1.672-1.898-2.759-2.439l51.299-143.414zm-62.997 154.07c.195.582.467 1.008.895 1.511 1.206 1.667 2.876 2.789 4.701 3.212l-7.645 62.494-162.073-25.991c.039-.272-.078-.621-.04-.893l164.162-40.333zm-176.912 48.236c1.165.774 2.485 1.237 3.921 1.273l7.785 98.087-90.869-.83c-.157-1.241-.625-2.637-1.481-3.644-.194-.194-.272-.427-.466-.62l81.11-94.266zm-93.505 105.544c.972.968 2.098 1.626 3.302 2.128l-22.363 118.171-113.496-25.854 132.557-94.445zm-22.439 182.396c.271-.35.503-.816.774-1.166l103.967 34.1-15.353 27.156c-2.68-1.431-5.977-1.23-8.729.599-.193.195-.426.273-.62.467l-80.039-61.156zm93.822 65.98c-.235-1.086-.625-2.25-1.325-3.18a4.526 4.526 0 00-1.011-1.084l15.779-27.817 75.626 24.842c-.038.272.001.389-.037.66l-89.032 6.579zm98.561-14.824c-1.63-.23-3.376-.033-4.926.747l-40.955-74.661c3.604-2.762 4.37-7.809 1.725-11.451-.078-.233-.233-.31-.427-.504l67.217-74.719 62.106-69.12c.194.194.35.271.66.426l-85.4 229.282zM54.123 244.872c-.312-.93-.702-1.706-1.246-2.559-.7-.93-1.633-1.781-2.488-2.401l20.124-48.819 107.462 35.645a4.548 4.548 0 00-.153 1.475l-123.7 16.659zm136.375-23.242a8.03 8.03 0 00-2.68-1.043l-2.121-161.47 122.925 5.346c.197 1.358.626 2.638 1.559 3.878.234.31.506.736.856 1.007L190.498 221.63zM325.107 61.909c-.274-1.203-.664-2.366-1.403-3.413-.739-1.046-1.672-1.898-2.759-2.439l17.406-49.978 120.327 48.154c-.193.583-.308 1.01-.385 1.553L325.107 61.91zM580.15-76.357c-.853.545-1.511 1.283-2.014 2.1l-71.254-31.1 18.015-77.493a9.512 9.512 0 002.676-.51l53.468 106.574c-.388 0-.698.234-.891.429z"/></mask><path d="M531.546-196.212c-2.684-3.759-7.885-4.603-11.643-1.918-.737.506-1.395 1.245-1.937 1.944l-95.937-56.08c1.082-2.563.727-5.551-.985-7.953-2.684-3.759-7.884-4.603-11.643-1.918-2.828 1.985-3.986 5.48-3.321 8.622l-181.141 69.2c-.078-.233-.311-.543-.506-.736-2.684-3.759-7.885-4.603-11.643-1.918-3.759 2.685-4.603 7.887-1.919 11.646.312.543.701.93 1.089 1.317l-60.944 88.793c-2.641-1.314-5.939-1.114-8.574.677-3.758 2.685-4.602 7.887-1.918 11.645 1.05 1.59 4.816 2.785 6.524 3.247L127.864 47.202c-1.707-.075-5.703.36-7.175 1.372-2.906 2.14-4.141 5.79-3.165 9.087l-182.478 80.651c-.039-.117-.194-.194-.272-.427-2.684-3.759-7.885-4.602-11.644-1.917-3.758 2.685-4.602 7.887-1.918 11.646.739 1.046 1.827 1.975 2.914 2.516l-51.182 143.375c-2.213-.423-4.695-.107-6.671 1.332-2.635 1.791-3.794 4.897-3.478 7.769l-164.162 40.333a4.908 4.908 0 00-.934-1.628c-2.684-3.759-7.885-4.603-11.643-1.918-3.759 2.685-4.603 7.887-1.919 11.646.194.194.272.426.467.62l-81.149 94.149c-2.797-1.779-6.405-1.733-9.35.29-3.449 2.452-4.411 6.917-2.658 10.6l-134.456 95.729-4.89-1.077 104.052 80.668c-1.547 2.719-1.424 6.173.521 8.885 2.684 3.759 7.885 4.603 11.643 1.918 0 0 .117-.039.078-.156l80.233 61.35c-1.78 2.798-1.734 6.407.289 9.352 2.684 3.759 7.885 4.602 11.643 1.917 2.092-1.478 3.291-3.693 3.442-5.944l89.07-6.85c.312.931.624 1.861 1.286 2.675 2.684 3.759 7.884 4.602 11.643 1.917 3.758-2.685 4.602-7.886 1.918-11.645a8.06 8.06 0 00-3.109-2.711l85.323-229.126c2.407.616 5.006.262 7.098-1.217 3.642-2.646 4.565-7.615 2.152-11.336l76.33-56.42c2.837 2.672 7.261 3.129 10.594.717 3.758-2.686 4.602-7.887 1.918-11.646l-.039-.117 93.733-129.177c2.68 1.43 6.133 1.307 8.729-.599 2.286-1.674 3.406-4.121 3.44-6.721l123.622-16.503a6.63 6.63 0 001.325 2.791c2.684 3.759 7.884 4.602 11.643 1.917 3.758-2.685 4.602-7.886 1.918-11.645a5.931 5.931 0 00-.622-.698L312.475 70.549c2.718 1.546 6.171 1.423 8.884-.523 1.976-1.44 3.213-3.537 3.481-5.827l133.185-6.123c.274 1.203.664 2.366 1.404 3.412 2.684 3.76 7.884 4.603 11.643 1.918 3.642-2.646 4.564-7.615 2.152-11.336L580.408-62.465c2.719 1.547 6.211 1.54 8.923-.406 3.759-2.685 4.603-7.887 1.919-11.646a8.269 8.269 0 00-8.504-3.359l-53.662-106.767c4.302-2.609 5.146-7.81 2.462-11.569zm46.569 131.54c.233.31.467.62.816.89L482.124 39.634l-10.106 10.77c-.35-.271-.739-.659-1.205-.89l35.414-152.58 70.788 30.867c-.733 2.446-.456 5.201 1.1 7.526zM216.62-172.076c2.018.229 4.073-.202 5.972-1.486a8.985 8.985 0 003.173-4.43l158.849 24.096c.001.388.041.892.042 1.28l-190.201 58.78 22.165-78.24zM466.35 48.552l-69.5-194.904c.349-.117.659-.351.969-.584.93-.7 1.704-1.478 2.285-2.449l103.987 45.353-35.374 152.696c-.932-.076-1.63-.23-2.367-.112zM395.736-161.64l4.922-23.526 114.295-3.796-114.476 31.815a3.768 3.768 0 00-.856-1.396c-.895-1.512-2.255-2.479-3.885-3.097zm-2.368-.5a7.779 7.779 0 00-5.313 1.524 8.994 8.994 0 00-3.173 4.431l-153.804-23.33 167.175-5.491-4.885 22.866zm-18.208 15.171L189.974-62.045c-.039-.116-.078-.232-.233-.31-.934-1.24-2.022-2.169-3.381-2.748l7.286-25.743L375.16-146.97zM184.031-65.875c-2.018-.228-4.074.202-5.973 1.487-.62.467-1.201 1.05-1.781 1.633L155.148-74.82c.579-1.36.732-2.834.496-4.308l35.287-10.936-6.9 24.19zm-31.903-5.214c.62-.467 1.201-1.05 1.782-1.634l21.284 12.143c-.965 2.525-.727 5.551.946 7.837.506.737 1.244 1.395 1.943 1.937L128.02 47.279s-.117.04-.156-.077l19.184-116.846c1.863.152 3.647-.317 5.08-1.445zM127.002 63.54l55.735 157.716a3.775 3.775 0 00-1.395.857c-1.046.739-1.782 1.633-2.362 2.604l-107.5-35.761 51.836-125.603c1.164.386 2.445.345 3.686.187zm58.294 156.857l-.116.039-55.774-157.832c.349-.117.659-.35.969-.584 1.782-1.245 2.943-3.188 3.404-5.285l49.628 2.115 1.889 161.547zm-51.637-165.95a10.21 10.21 0 00-1.482-4.034c-.506-.736-1.244-1.394-1.944-1.936l50.064-98.085c.466.231 1.009.308 1.553.385L183.17 56.6l-49.511-2.153zm50.635-103.714c1.241-.158 2.482-.703 3.528-1.443.233-.078.31-.233.504-.428l99.646 89.912 22.075 19.904c-.58.97-1.005 2.02-1.275 3.145l-123.041-5.306-1.437-105.784zM312.061 56.579c-.194.194-.31.233-.504.428l-21.53-19.438-100.075-90.416.232-.466L336.099 5.152l-17.523 50.017c-2.212-.422-4.539-.03-6.515 1.41zM191.111-55.566c.308-1.398.344-2.834-.124-4.23l194.955-89.367c.039.116.078.232.234.31.778 1.162 1.827 1.975 2.914 2.516L336.987 2.783l-145.876-58.35zm200.192-89.96c1.087.153 2.135.19 3.221-.045l69.382 194.555a7.704 7.704 0 00-2.093 1.09c-.853.546-1.511 1.284-2.053 1.984L339.123 3.748l52.18-149.274zm9.611-6.073c.309-1.01.307-2.174.227-3.183l116.26-32.283c.078.233.273.426.351.659 1.166 1.55 2.721 2.711 4.429 3.173l-17.823 76.911-103.444-45.277zm115.931-42.528c-.231.855-.462 1.709-.422 2.601l-115.071 3.797 12.422-59.437a7.773 7.773 0 005.313-1.524c.62-.467 1.201-1.05 1.665-1.594l96.093 56.157zm-109.907-57.217c.078.233.311.543.506.737a7.42 7.42 0 003.963 2.941l-12.616 60.02-172.8 5.696-.078-.233 181.025-69.161zm-193.036 78.499c.117-.039.156.077.272.038l-22.511 79.908-36.838 11.326c-.156-.465-.429-.891-.662-1.201-.312-.543-.7-.93-1.089-1.317l60.828-88.754zM118.343 59.716c.039.117.194.194.272.427.7.93 1.633 1.782 2.488 2.4L69.15 188.186l-133.201-44.093c.23-1.242.19-2.523-.2-3.686l182.594-80.69zm-362.725 634.542c-.891.817-1.588 1.827-2.09 3.031l-74.928-24.688 30.01-53.302c1.902.656 3.998.729 5.975.066l41.033 74.893zm105.176-319.663l-8.828 72.858a7.77 7.77 0 00-4.149 1.521 4.567 4.567 0 00-1.084 1.011l-148.437-100.332c.155-.311.27-.738.425-1.049l162.073 25.991zm-165.324-21.793c.542-.312.93-.701 1.278-1.206l148.436 100.333c-.309.621-.618 1.243-.772 1.942l-144.219-1.307-7.747-98.359a7.69 7.69 0 003.024-1.403zm148.753 103.591a8.972 8.972 0 001.404 4.189L-283.89 604.615c-1.165-.774-2.641-1.314-4.076-1.35l-11.797-148.256 143.986 1.384zm-134.478 146.993c-.621.079-1.28.429-1.978.664L-395.59 458.69a7.424 7.424 0 002.435-4.7l91.025.907 11.875 148.489zm-111.383-142.278c1.435.036 2.754-.277 4.111-.862l103.357 145.36c-.891.816-1.587 1.827-1.973 2.992l-127.936-29.163 22.441-118.327zm104.84 149.781c-.039.271-.077.543.001.776l-131.76 21.952a9.346 9.346 0 00-1.168-2.326c-.973-1.356-2.177-2.246-3.575-2.942l8.838-46.585 127.664 29.125zm-138.986 16.999c-2.018-.229-3.918.28-5.701 1.525-.31.233-.736.506-1.007.856l-95.388-74.127 110.856 25.316-8.76 46.43zm7.543 8.6l131.914-22.263c.273.814.663 1.59 1.13 2.21.505.736 1.049 1.201 1.632 1.782l-30.28 53.651-104.549-34.293c.115-.427.154-.699.153-1.087zm282.574-188.924l8.906-72.624 70.557 11.27c-.694 2.174-.418 4.541.672 6.634l-76.446 56.459c-1.049-.812-2.408-1.392-3.689-1.739zm88.687-67.038c-.699-.154-1.475-.152-2.212-.034l-35.46-40.91-28.267-32.581c1.588-1.827 2.204-4.234 1.928-6.601l57.196-17.769 6.815 97.895zm-71.947-70.602c1.396-.081 2.831-.433 4.11-1.25l28.306 32.697 34.605 39.902c-.465.156-.892.429-1.395.857-.853.544-1.511 1.283-2.053 1.983l-71.372-11.385 7.799-62.804zm75.558 72.108c-.35-.271-.7-.542-1.126-.657l-6.935-99.409 99.85-31.048c.157.466.429.892.662 1.202.273.426.661.814 1.011 1.085l-35.76 49.277-57.702 79.55zm-14.047-232.539c.193-.195.31-.234.503-.428l105.94 93.625c-1.123 1.671-1.585 3.767-1.27 5.862l-99.385 30.892-8.968-128.626c1.203-.274 2.21-.741 3.18-1.325zm108.65 90.903c-.194.194-.31.234-.504.428l-92.182-81.545-13.757-12.08c.154-.311.348-.505.503-.816l132.929 44.055-20.047 48.664c-2.407-.616-4.85-.185-6.943 1.294zm-115.205-89.61c.272.039.699.154.97.192l9.007 129.131-57.661 17.926c-.156-.466-.428-.892-.856-1.396-.739-1.046-1.672-1.898-2.759-2.439l51.299-143.414zm-62.997 154.07c.195.582.467 1.008.895 1.511 1.206 1.667 2.876 2.789 4.701 3.212l-7.645 62.494-162.073-25.991c.039-.272-.078-.621-.04-.893l164.162-40.333zm-176.912 48.236c1.165.774 2.485 1.237 3.921 1.273l7.785 98.087-90.869-.83c-.157-1.241-.625-2.637-1.481-3.644-.194-.194-.272-.427-.466-.62l81.11-94.266zm-93.505 105.544c.972.968 2.098 1.626 3.302 2.128l-22.363 118.171-113.496-25.854 132.557-94.445zm-22.439 182.396c.271-.35.503-.816.774-1.166l103.967 34.1-15.353 27.156c-2.68-1.431-5.977-1.23-8.729.599-.193.195-.426.273-.62.467l-80.039-61.156zm93.822 65.98c-.235-1.086-.625-2.25-1.325-3.18a4.526 4.526 0 00-1.011-1.084l15.779-27.817 75.626 24.842c-.038.272.001.389-.037.66l-89.032 6.579zm98.561-14.824c-1.63-.23-3.376-.033-4.926.747l-40.955-74.661c3.604-2.762 4.37-7.809 1.725-11.451-.078-.233-.233-.31-.427-.504l67.217-74.719 62.106-69.12c.194.194.35.271.66.426l-85.4 229.282zM54.123 244.872c-.312-.93-.702-1.706-1.246-2.559-.7-.93-1.633-1.781-2.488-2.401l20.124-48.819 107.462 35.645a4.548 4.548 0 00-.153 1.475l-123.7 16.659zm136.375-23.242a8.03 8.03 0 00-2.68-1.043l-2.121-161.47 122.925 5.346c.197 1.358.626 2.638 1.559 3.878.234.31.506.736.856 1.007L190.498 221.63zM325.107 61.909c-.274-1.203-.664-2.366-1.403-3.413-.739-1.046-1.672-1.898-2.759-2.439l17.406-49.978 120.327 48.154c-.193.583-.308 1.01-.385 1.553L325.107 61.91zM580.15-76.357c-.853.545-1.511 1.283-2.014 2.1l-71.254-31.1 18.015-77.493a9.512 9.512 0 002.676-.51l53.468 106.574c-.388 0-.698.234-.891.429z" fill="#fff" fill-opacity=".1"/><path d="M146.654-69.708L127.47 47.137l.789.13L147.443-69.58l-.789-.13zM519.903-198.13l.453.66.006-.005.006-.004-.465-.651zm-1.937 1.944l-.403.691.606.354.43-.555-.633-.49zm-95.937-56.08l-.737-.311-.273.647.606.355.404-.691zm-.985-7.953l.652-.465h-.001l-.651.465zm-11.643-1.918l.46.655.005-.004-.465-.651zm-3.321 8.622l.286.747.639-.244-.142-.669-.783.166zm-181.141 69.2l-.758.254.265.791.778-.298-.285-.747zm-.506-.736l-.651.465.039.054.048.047.564-.566zm-13.562 9.728l.694-.398-.019-.035-.024-.032-.651.465zm1.089 1.317l.66.453.377-.549-.472-.471-.565.567zm-60.944 88.793l-.357.716.623.31.393-.573-.659-.453zm-8.574.677l-.449-.662-.008.005-.008.006.465.65zm-1.918 11.645l.667-.44-.008-.013-.008-.012-.651.465zm6.524 3.247l-.209.773.071.019.073.006.065-.798zM127.864 47.202l.759-.255-.175-.52-.549-.024-.035.799zm-7.175 1.372l-.453-.66-.011.008-.01.008.474.644zm-3.165 9.087l.323.732.644-.285-.2-.674-.767.227zm-182.478 80.651l-.758.254.279.832.802-.355-.323-.731zm-.272-.427l.758-.254-.038-.114-.07-.097-.65.465zm-13.562 9.729l.653-.462-.002-.003-.651.465zm2.914 2.516l.754.269.239-.669-.636-.316-.357.716zm-51.182 143.375l-.151.786.673.128.231-.645-.753-.269zm-6.671 1.332l.449.662.011-.007.01-.008-.47-.647zm-3.478 7.769l.191.777.681-.168-.077-.697-.795.088zm-164.162 40.333l-.758.254.234.698.715-.175-.191-.777zm-.934-1.628l-.651.465.019.027.022.026.61-.518zm-13.562 9.728l-.651.465.039.055.047.047.565-.567zm.467.62l.606.522.486-.564-.528-.525-.564.567zm-81.149 94.149l-.43.675.584.372.452-.524-.606-.523zm-9.35.29l-.453-.659-.011.007.464.652zm-2.658 10.6l.464.652.547-.39-.288-.606-.723.344zm-134.456 95.729l-.172.781.347.077.289-.206-.464-.652zm-4.89-1.077l.172-.781-.663 1.413.491-.632zm104.052 80.668l.696.395.343-.603-.549-.425-.49.633zm.521 8.885l.651-.465-.001-.001-.65.466zm11.643 1.918l-.254-.759-.113.038-.098.07.465.651zm.078-.156l.486-.635-2.075-1.587.83 2.477.759-.255zm80.233 61.35l.675.43.394-.62-.583-.445-.486.635zm.289 9.352l-.66.453.005.006.004.006.651-.465zm11.643 1.917l-.461-.653-.004.002.465.651zm3.442-5.944l-.061-.797-.691.053-.046.691.798.053zm89.07-6.85l.759-.255-.199-.591-.621.048.061.798zm1.286 2.675l.651-.465-.015-.02-.016-.02-.62.505zm13.561-9.728l-.665.445.007.01.007.01.651-.465zm-3.109-2.711l-.749-.279-.252.675.645.321.356-.717zm85.323-229.126l.199-.775-.697-.179-.251.675.749.279zm7.098-1.217l.462.653.008-.006-.47-.647zm2.152-11.336l-.475-.643-.605.447.409.631.671-.435zm76.33-56.42l.549-.582-.487-.458-.537.397.475.643zm10.594.717l-.465-.651-.005.003.47.648zm1.918-11.646l-.758.254.038.114.069.097.651-.465zm-.039-.117l-.647-.469-.242.333.13.391.759-.255zm93.733-129.177l.377-.706-.615-.328-.41.564.648.47zm8.729-.599l-.473-.646v.001l.473.645zm3.44-6.721l-.105-.793-.686.092-.009.691.8.01zm123.622-16.503l.784-.159-.148-.733-.741.099.105.793zm1.325 2.791l.651-.465-.015-.02-.016-.02-.62.505zm13.561-9.728l.651-.465-.005-.009-.007-.008-.639.482zm-.622-.698l-.627-.496-.443.56.506.503.564-.567zM312.475 70.549l.395-.696-.597-.34-.426.54.628.496zm8.884-.523l.466.65.005-.003-.471-.647zm3.481-5.827l-.037-.8-.679.032-.079.675.795.093zm133.185-6.123l.78-.178-.148-.652-.668.031.036.8zm1.404 3.412l-.654.462.003.003.651-.465zm11.643 1.918l.465.65.005-.003-.47-.647zm2.152-11.336l-.584-.547-.428.457.341.525.671-.435zM580.408-62.465l.396-.696-.549-.312-.431.461.584.547zm8.923-.406l-.465-.65h-.001l.466.65zm1.919-11.646l-.655.46.004.005.651-.465zm-8.504-3.359l-.715.36.278.55.603-.127-.166-.783zm-53.662-106.767l-.414-.684-.632.383.331.66.715-.359zm49.031 119.97l-.665.445.012.019.014.018.639-.482zm.816.891l.584.547.6-.641-.694-.538-.49.632zM482.124 39.634l.584.548-.584-.547zm-10.106 10.77l-.49.632.575.446.498-.53-.583-.548zm-1.205-.89l-.779-.181-.143.615.566.282.356-.716zm35.414-152.58l.32-.733-.882-.385-.217.937.779.181zm70.788 30.867l.766.23.203-.68-.65-.283-.319.733zM216.62-172.075l.09-.795-.675-.076-.185.653.77.218zm5.972-1.486l.448.663.017-.012.016-.012-.481-.639zm3.173-4.43l.12-.791-.667-.101-.212.64.759.252zm158.849 24.096l.8-.002-.001-.686-.679-.103-.12.791zm.042 1.28l.236.765.565-.175-.001-.591-.8.001zm-190.201 58.78l-.77-.219-.401 1.417 1.407-.434-.236-.765zM466.35 48.551l-.754.27.224.625.656-.105-.126-.79zm-69.5-194.904l-.254-.759-.773.26.274.768.753-.269zm.969-.584l.481.639-.481-.639zm2.285-2.449l.319-.734-.645-.281-.361.604.687.411zm103.987 45.353l.779.181.151-.648-.61-.266-.32.733zM468.717 48.664l-.065.797.688.056.156-.673-.779-.18zM395.736-161.64l-.783-.163-.141.669.64.243.284-.749zm4.922-23.526l-.026-.8-.628.021-.129.615.783.164zm114.295-3.796l.214.771-.24-1.57.026.799zm-114.476 31.815l-.758.254.241.72.731-.204-.214-.77zm-.856-1.396l-.688.408.052.087.071.072.565-.567zm-6.253-3.597l-.065.798.7.057.147-.687-.782-.168zm-8.486 5.955l-.12.791.667.101.212-.641-.759-.251zm-153.804-23.33l-.026-.8-.094 1.591.12-.791zm167.175-5.491l.782.167.214-1-1.022.033.026.8zm-23.093 38.037l.334.727-.57-1.491.236.764zM189.974-62.045l-.759.255.283.844.809-.371-.333-.727zm-.233-.31l-.64.482.114.15.169.085.357-.717zm-3.381-2.748l-.77-.218-.192.678.648.276.314-.736zm7.286-25.743l-.237-.765-.415.129-.118.418.77.218zm-9.615 24.971l-.091.795.674.077.186-.652-.769-.22zm-5.973 1.487l-.448-.663-.017.011-.016.013.481.639zm-1.781 1.633l-.397.695.531.303.432-.433-.566-.565zM155.148-74.82l-.736-.314-.28.656.619.353.397-.695zm.496-4.308l-.237-.764-.662.205.109.685.79-.126zm35.287-10.936l.769.22.406-1.421-1.412.437.237.764zm-38.803 18.976l-.481-.64-.007.006-.006.005.494.629zm1.782-1.634l.396-.695-.531-.303-.432.434.567.564zm21.284 12.143l.747.286.245-.64-.595-.34-.397.694zm.946 7.837l.659-.453-.007-.01-.007-.009-.645.473zm1.943 1.937l.713.364.301-.59-.524-.407-.49.633zM128.02 47.279l.254.759.31-.104.148-.291-.712-.364zm-1.018 16.262l.754-.267-.215-.608-.64.081.101.794zm55.735 157.716l.254.759.771-.259-.271-.767-.754.267zm-1.395.857l.461.653.057-.04.049-.049-.567-.564zm-2.362 2.604l-.253.759.61.203.33-.551-.687-.411zm-107.5-35.761l-.74-.305-.328.793.815.271.252-.759zm51.836-125.603l.251-.76-.706-.233-.285.688.74.305zm61.98 157.044l.254.759.553-.186-.007-.582-.8.009zm-.116.039l-.754.267.262.742.746-.25-.254-.759zM129.406 62.605l-.254-.759-.771.26.271.766.754-.267zm.969-.584l-.458-.656-.012.008-.011.009.481.639zm3.404-5.285l.035-.799-.671-.028-.145.656.781.172zm49.628 2.115l.8-.01-.009-.758-.757-.032-.034.8zm-49.748-4.404l-.792.115.095.656.662.028.035-.799zm-1.482-4.033l.674-.43-.007-.012-.008-.01-.659.452zm-1.944-1.936l-.712-.364-.301.59.523.406.49-.632zm50.064-98.085l.357-.717-.709-.352-.36.705.712.364zm1.553.385l.8-.01-.009-.687-.68-.096-.111.793zM183.17 56.6l-.035.8.846.036-.011-.846-.8.01zm1.124-105.866l-.101-.794-.709.09.01.715.8-.011zm3.528-1.443l-.254-.758-.112.037-.095.068.461.653zm.504-.428l.536-.594-.566-.51-.537.54.567.564zm99.646 89.912l-.535.595.535-.594zm22.075 19.904l.687.41.337-.565-.488-.44-.536.594zm-1.275 3.145l-.034.8.659.028.153-.642-.778-.186zm-123.041-5.306l-.8.01.01.756.755.033.035-.8zm126.33.061l-.471-.647-.051.038-.045.044.567.565zm-.504.428l-.536.594.565.51.538-.54-.567-.564zm-21.53-19.438l-.537.593.537-.593zM189.952-52.847l-.716-.357-.27.544.45.406.536-.593zm.232-.466l.298-.743-.685-.275-.329.661.716.357zM336.099 5.152l.755.264.253-.722-.711-.285-.297.743zm-17.523 50.017l-.15.786.677.13.228-.651-.755-.265zM191.111-55.566l-.781-.172-.146.663.63.252.297-.743zm-.124-4.23l-.333-.727-.654.3.228.682.759-.255zm194.955-89.367l.759-.255-.283-.843-.809.37.333.728zm.234.31l.664-.446-.118-.176-.19-.095-.356.717zm2.914 2.516l.755.264.233-.666-.631-.314-.357.716zM336.987 2.783l-.297.743.776.31.276-.79-.755-.263zm54.316-148.309l.112-.792-.65-.092-.217.62.755.264zm3.221-.045l.753-.269-.236-.662-.686.149.169.782zm69.382 194.555l.255.758.773-.259-.274-.768-.754.269zm-2.093 1.09l.431.675.026-.017.024-.018-.481-.64zm-2.053 1.984l-.297.742.56.225.37-.477-.633-.49zM339.123 3.748l-.756-.263-.252.722.71.285.298-.743zm61.791-155.347l-.765-.234-.208.681.652.286.321-.733zm.227-3.183l-.214-.77-.635.176.052.657.797-.063zm116.26-32.283l.759-.255-.242-.719-.731.203.214.771zm.351.659l-.759.255.041.123.079.103.639-.481zm4.429 3.173l.779.181.174-.751-.744-.202-.209.772zm-17.823 76.911l-.32.733.882.386.218-.938-.78-.181zm12.487-87.805l.772.209.16-.591-.528-.308-.404.69zm-.422 2.601l.026.8.81-.027-.037-.809-.799.036zm-115.071 3.797l-.783-.163-.208.997 1.017-.034-.026-.8zm12.422-59.437l.065-.797-.703-.058-.145.691.783.164zm6.978-3.118l.404-.691-.578-.338-.434.509.608.52zm-13.814-1.06l.758-.254-.265-.79-.778.297.285.747zm.506.737l.659-.453-.042-.062-.053-.052-.564.567zm3.963 2.941l.782.165.15-.71-.692-.218-.24.763zm-12.616 60.02l.027.8.627-.021.129-.615-.783-.164zm-172.8 5.696l-.758.255.189.564.595-.019-.026-.8zm-.078-.233l-.285-.747-.718.274.244.728.759-.255zm-12.011 9.338l-.254-.759-.254.085-.151.221.659.453zm.272.038l.77.217.41-1.457-1.434.481.254.759zm-22.511 79.908l.235.765.417-.128.118-.42-.77-.217zm-36.838 11.326l-.759.255.248.74.746-.23-.235-.764zm-.662-1.201l-.694.398.025.043.03.04.639-.481zm-1.089-1.317l-.66-.453-.376.55.471.47.565-.567zM118.343 59.715l.758-.254-.279-.832-.802.354.323.732zm.272.427l-.758.254.041.123.078.104.639-.481zm2.488 2.4l.739.306.241-.583-.511-.37-.469.648zM69.15 188.186l-.252.76.707.233.284-.687-.739-.306zm-133.201-44.093l-.787-.146-.127.686.663.22.251-.76zm-.2-3.686l-.324-.732-.667.295.232.691.758-.254zm-180.131 553.852l.54.59.463-.424-.302-.551-.701.385zm-2.09 3.031l-.25.76.703.232.285-.684-.738-.308zm-74.928-24.688l-.697-.393-.477.848.924.304.25-.759zm30.01-53.302l.261-.757-.631-.217-.327.581.697.393zm5.975.066l.702-.385-.322-.587-.634.213.254.759zm146.209-244.77l.794.097.093-.765-.76-.121-.127.789zm-8.828 72.858l.046.798.667-.038.081-.664-.794-.096zm-4.149 1.521l.431.674.026-.016.024-.019-.481-.639zm-1.084 1.011l-.448.663.621.42.459-.593-.632-.49zm-148.437-100.332l-.716-.356-.312.627.58.392.448-.663zm.425-1.049l.127-.79-.581-.093-.262.527.716.356zm-3.251 4.198l-.398-.694-.044.025-.039.03.481.639zm1.278-1.206l.448-.663-.657-.443-.45.652.659.454zm148.436 100.333l.716.356.312-.627-.58-.392-.448.663zm-.772 1.942l-.008.8.649.006.14-.634-.781-.172zm-144.219-1.307l-.797.063.057.73.733.007.007-.8zm-7.747-98.359l-.169-.782-.683.148.054.697.798-.063zm151.777 102.188l.797-.062-.057-.731-.733-.007-.007.8zm1.404 4.189l.595.535.407-.453-.328-.513-.674.431zM-283.89 604.615l-.443.667.576.382.462-.514-.595-.535zm-4.076-1.35l-.798.064.057.718.72.018.021-.8zm-11.797-148.256l.007-.8-.874-.009.069.872.798-.063zm9.508 148.377l.1.794.758-.097-.061-.761-.797.064zm-1.978.664l-.652.463.344.484.563-.189-.255-.758zM-395.59 458.69l-.533-.597-.534.477.415.584.652-.464zm2.435-4.7l.009-.8-.725-.007-.079.72.795.087zm91.025.907l.797-.064-.058-.729-.731-.007-.008.8zm-99.508 6.211l.02-.8-.68-.017-.126.668.786.149zm4.111-.862l.652-.463-.375-.527-.594.256.317.734zm103.357 145.36l.541.589.521-.477-.41-.576-.652.464zm-1.973 2.992l-.178.78.709.161.228-.69-.759-.251zm-127.936-29.163l-.786-.149-.143.757.751.172.178-.78zm127.281 31.454l.792.111.102-.728-.716-.163-.178.78zm.001.776l.131.789.926-.154-.299-.89-.758.255zm-131.76 21.952l-.758.255.217.647.672-.113-.131-.789zm-1.168-2.326l.659-.453-.004-.007-.005-.006-.65.466zm-3.575-2.942l-.786-.149-.113.595.542.27.357-.716zm8.838-46.585l.178-.78-.81-.185-.154.816.786.149zm-11.322 46.124l-.09.795.738.084.138-.731-.786-.148zm-5.701 1.525l-.458-.656-.012.008-.011.009.481.639zm-1.007.856l-.491.631.633.492.49-.633-.632-.49zm-95.388-74.127l.178-.78-.669 1.412.491-.632zm110.856 25.316l.786.149.143-.757-.75-.172-.179.78zm-1.217 55.03l-.133-.789-.668.113.001.678.8-.002zm131.914-22.263l.759-.255-.218-.648-.674.114.133.789zm1.13 2.21l.659-.453-.01-.015-.01-.014-.639.482zm1.632 1.782l.697.393.299-.531-.431-.429-.565.567zm-30.28 53.651l-.25.76.624.205.322-.572-.696-.393zm-104.549-34.293l-.773-.209-.198.733.721.236.25-.76zm282.727-190.011l-.794-.097-.085.689.67.181.209-.773zm8.906-72.624l.126-.79-.819-.131-.101.824.794.097zm70.557 11.27l.762.243.283-.886-.918-.147-.127.79zm.672 6.634l.475.644.55-.406-.315-.607-.71.369zm-76.446 56.459l-.49.633.478.371.487-.36-.475-.644zm84.998-68.777l-.172.781 1.044.23-.074-1.067-.798.056zm-2.212-.034l-.604.524.291.336.44-.07-.127-.79zm-35.46-40.91l.605-.524v-.001l-.605.525zm-28.267-32.581l-.604-.524-.455.524.455.525.604-.525zm1.928-6.601l-.237-.764-.635.197.077.66.795-.093zm57.196-17.769l.798-.056-.07-1.008-.965.3.237.764zm-65.132 27.293l-.046-.799-.666.038-.082.662.794.099zm4.11-1.25l.605-.524-.453-.523-.583.373.431.674zm28.306 32.697l-.605.523v.001l.605-.524zm34.605 39.902l.254.758 1.133-.38-.783-.902-.604.524zm-1.395.857l.43.674.046-.03.042-.035-.518-.609zm-2.053 1.983l-.126.79.468.074.29-.374-.632-.49zm-71.372-11.385l-.794-.099-.095.767.762.122.127-.79zm83.357 9.304l-.49.633.653.505.485-.668-.648-.47zm-1.126-.657l-.798.056.04.567.549.149.209-.772zm-6.935-99.409l-.237-.764-.605.188.044.632.798-.056zm99.85-31.048l.759-.254-.249-.742-.747.232.237.764zm.662 1.202l.674-.431-.016-.026-.019-.024-.639.481zm1.011 1.085l.647.469.456-.627-.613-.475-.49.633zm-35.76 49.277l-.647-.47.648.47zm-71.75-152.989l.413.685.085-.051.07-.07-.567-.564zm.504-.428l.53-.6-.565-.499-.532.534.567.565zm105.94 93.625l.663.446.39-.582-.524-.464-.53.6zm-1.27 5.862l.237.764.656-.204-.102-.679-.791.119zm-99.385 30.892l-.798.056.07 1.008.965-.3-.237-.764zm-8.968-128.626l-.177-.78-.668.153.047.683.798-.056zm111.83 89.578l-.462-.653-.057.04-.048.048.566.565zm-.504.428l-.53.599.564.5.532-.534-.566-.565zm-92.182-81.545l.53-.599-.002-.002-.528.601zm-13.757-12.08l-.716-.357-.275.552.463.406.528-.601zm.503-.816l.251-.76-.658-.218-.31.622.717.356zm132.929 44.055l.74.304.327-.794-.815-.27-.252.76zm-20.047 48.664l-.198.775.673.172.265-.643-.74-.304zM-73.97 150.786l.112-.792-.646-.091-.22.614.754.269zm.97.192l.798-.055-.045-.647-.641-.09-.112.792zm9.007 129.131l.237.764.605-.188-.044-.632-.798.056zm-57.661 17.926l-.758.254.248.742.747-.232-.237-.764zm-.856-1.396l-.654.462.021.029.023.027.61-.518zm-2.759-2.439l-.754-.27-.239.67.636.316.357-.716zm-11.698 10.656l.758-.255-.234-.698-.715.176.191.777zm.895 1.511l.648-.469-.018-.025-.02-.024-.61.518zm4.701 3.212l.794.097.087-.714-.7-.162-.181.779zm-7.645 62.494l-.127.79.82.131.101-.824-.794-.097zm-162.073-25.991l-.792-.112-.109.777.775.124.126-.789zm-.04-.893l-.191-.777-.526.129-.075.536.792.112zm-12.75 7.903l.442-.667-.588-.39-.461.535.607.522zm3.921 1.273l.797-.064-.057-.718-.72-.018-.02.8zm7.785 98.087l-.007.8.874.008-.069-.871-.798.063zm-90.869-.83l-.793.101.088.693.698.006.007-.8zm-1.481-3.644l.61-.518-.021-.026-.024-.023-.565.567zm-.466-.62l-.607-.522-.485.564.527.524.565-.566zm-12.395 11.278l.564-.567-.478-.477-.55.392.464.652zm3.302 2.128l.786.148.12-.637-.598-.25-.308.739zm-22.363 118.171l-.178.78.809.184.155-.816-.786-.148zm-113.496-25.854l-.465-.652-1.453 1.035 1.74.397.178-.78zm110.118 87.951l-.632-.49-.493.637.64.489.485-.636zm.774-1.166l.25-.76-.537-.176-.345.446.632.49zm103.967 34.1l.696.394.481-.85-.928-.304-.249.76zm-15.353 27.156l-.377.706.689.368.384-.68-.696-.394zm-8.729.599l-.443-.666-.067.045-.056.057.566.564zm-.62.467l-.485.636.557.426.495-.497-.567-.565zm13.783 4.824l-.782.169.147.68.694-.051-.059-.798zm-1.325-3.18l-.674.431.016.026.019.025.639-.482zm-1.011-1.084l-.696-.395-.342.603.548.424.49-.632zm15.779-27.817l.25-.76-.623-.204-.323.57.696.394zm75.626 24.842l.792.112.094-.663-.636-.209-.25.76zm-.037.66l.058.798.644-.047.09-.639-.792-.112zm9.529-8.245l-.112.792.637.089.225-.602-.75-.279zm-4.926.747l-.702.384.372.677.689-.347-.359-.714zm-40.955-74.661l-.486-.635-.545.418.33.602.701-.385zm1.725-11.451l-.758.254.039.117.072.099.647-.47zm-.427-.504l-.595-.535-.509.565.539.537.565-.567zm67.217-74.719l.594.535h.001l-.595-.535zm62.106-69.12l.565-.567-.597-.594-.563.626.595.535zm.66.426l.75.279.251-.675-.644-.321-.357.717zM54.123 244.872l-.758.255.21.626.655-.088-.107-.793zm-1.246-2.559l.674-.43-.017-.026-.018-.025-.64.481zm-2.488-2.401l-.74-.304-.24.582.51.37.47-.648zm20.124-48.819l.252-.76-.707-.234-.284.689.74.305zm107.462 35.645l.772.209.198-.73-.718-.238-.252.759zm-.153 1.475l.107.793.75-.101-.059-.755-.798.063zm12.676-6.583l-.42.681.605.373.442-.558-.627-.496zm-2.68-1.043l-.799.011.008.648.636.126.155-.785zm-2.121-161.47l.035-.798-.846-.037.011.846.8-.01zm122.925 5.346l.792-.114-.095-.656-.662-.029-.035.8zm2.415 4.885l.627.497.502-.634-.639-.495-.49.632zm14.07-7.44l-.78.178.149.653.668-.031-.037-.8zm-4.162-5.851l-.756-.263-.231.665.63.314.357-.716zm17.406-49.978l.297-.743-.777-.311-.276.79.756.264zm120.327 48.154l.759.252.237-.715-.699-.28-.297.743zm-.385 1.553l.036.8.663-.031.093-.657-.792-.112zM580.15-76.357l.43.674.074-.048.062-.062-.566-.564zm-2.014 2.1l-.32.732.636.278.365-.591-.681-.42zm-71.254-31.1l-.779-.181-.151.649.61.266.32-.734zm18.015-77.493l-.036-.799-.606.027-.137.591.779.181zm2.676-.51l.715-.359-.311-.62-.658.221.254.758zm53.468 106.574l.002.8 1.293-.002-.58-1.157-.715.359zm-48.844-119.891c-2.943-4.122-8.644-5.043-12.759-2.104l.93 1.302c3.402-2.43 8.102-1.665 10.527 1.732l1.302-.93zm-12.747-2.112c-.839.576-1.558 1.393-2.116 2.113l1.265.98c.525-.678 1.123-1.339 1.757-1.774l-.906-1.319zm-1.08 1.913l-95.937-56.081-.808 1.382 95.938 56.08.807-1.381zm-95.604-55.079c1.195-2.832.794-6.112-1.07-8.729l-1.303.929c1.559 2.189 1.867 4.884.899 7.178l1.474.622zm-1.071-8.729c-2.943-4.122-8.644-5.043-12.759-2.104l.93 1.302c3.402-2.43 8.102-1.664 10.527 1.732l1.302-.93zm-12.753-2.108c-3.113 2.185-4.37 6.014-3.644 9.443l1.565-.332c-.605-2.855.453-6.015 2.998-7.801l-.919-1.31zm-3.147 8.53l-181.141 69.199.57 1.495 181.142-69.2-.571-1.494zM225.697-184.57c-.135-.404-.469-.819-.699-1.048l-1.129 1.133a2.083 2.083 0 01.286.372c.02.036.026.054.026.052l1.516-.509zm-.613-.946c-2.943-4.122-8.644-5.043-12.759-2.104l.93 1.302c3.402-2.43 8.102-1.665 10.527 1.732l1.302-.93zm-12.759-2.104c-4.121 2.944-5.043 8.647-2.105 12.762l1.302-.93c-2.429-3.403-1.663-8.104 1.733-10.53l-.93-1.302zm-2.147 12.695c.371.648.835 1.104 1.218 1.486l1.129-1.134c-.394-.393-.709-.711-.96-1.148l-1.387.796zm1.123.466l-60.945 88.794 1.319.905 60.945-88.793-1.319-.906zm-59.929 88.53c-2.906-1.447-6.511-1.217-9.379.731l.899 1.324c2.402-1.633 5.392-1.805 7.767-.623l.713-1.432zm-9.395.742c-4.121 2.944-5.043 8.646-2.104 12.762l1.302-.93c-2.43-3.403-1.663-8.104 1.732-10.53l-.93-1.302zm-2.12 12.738c.349.529.885.973 1.453 1.342.578.376 1.245.709 1.912.997 1.336.576 2.745 1.002 3.617 1.239l.418-1.545c-.835-.226-2.163-.629-3.4-1.163a11.48 11.48 0 01-1.675-.87c-.486-.316-.815-.617-.991-.883l-1.334.883zM127.899 46.403c-.922-.04-2.403.056-3.838.288-.721.117-1.448.27-2.099.465-.639.191-1.257.437-1.726.759l.906 1.319c.267-.184.701-.372 1.278-.545.566-.17 1.221-.31 1.896-.419 1.358-.22 2.728-.303 3.513-.269l.07-1.598zm-7.684 1.527c-3.169 2.333-4.533 6.328-3.458 9.958l1.534-.454c-.877-2.963.229-6.269 2.872-8.216l-.948-1.288zm-3.014 9l-182.478 80.65.646 1.463 182.478-80.65-.646-1.464zm-181.397 81.127a1.082 1.082 0 00-.175-.321l-.06-.073-.035-.039c-.023-.027-.01-.015-.002.007l-1.517.509c.085.254.216.421.3.52l.043.051c.01.012.012.013.01.01a.524.524 0 01-.08-.155l1.516-.509zm-.38-.637c-2.943-4.122-8.644-5.043-12.759-2.103l.93 1.302c3.403-2.431 8.103-1.665 10.528 1.731l1.302-.93zm-12.759-2.103c-4.121 2.944-5.043 8.647-2.104 12.762l1.302-.93c-2.43-3.403-1.663-8.104 1.732-10.53l-.93-1.302zm-2.107 12.758c.815 1.153 2.004 2.17 3.212 2.772l.713-1.433c-.967-.481-1.954-1.322-2.618-2.262l-1.306.923zm2.815 1.786l-51.183 143.375 1.507.538 51.183-143.375-1.507-.538zm-50.279 142.858c-2.379-.454-5.1-.126-7.292 1.472l.941 1.293c1.76-1.282 4.005-1.584 6.05-1.193l.301-1.572zm-7.271 1.457c-2.909 1.976-4.167 5.389-3.823 8.517l1.59-.175c-.287-2.614.771-5.415 3.132-7.019l-.899-1.323zm-3.219 7.653l-164.162 40.333.382 1.554 164.162-40.333-.382-1.554zm-163.213 40.855a5.714 5.714 0 00-1.082-1.891l-1.22 1.036c.367.432.625.886.786 1.364l1.516-.509zm-1.041-1.838c-2.943-4.122-8.644-5.043-12.759-2.104l.929 1.302c3.403-2.43 8.103-1.664 10.528 1.732l1.302-.93zm-12.759-2.104c-4.122 2.945-5.043 8.647-2.105 12.762l1.302-.93c-2.43-3.403-1.663-8.104 1.732-10.53l-.929-1.302zm-2.019 12.864c.026.026.051.059.124.174.063.098.175.278.343.446l1.129-1.134a1.09 1.09 0 01-.123-.174c-.063-.098-.175-.278-.343-.446l-1.13 1.134zm.426-.469l-81.149 94.149 1.212 1.045 81.149-94.15-1.212-1.044zm-80.114 93.996c-3.076-1.957-7.031-1.893-10.232.306l.906 1.319c2.689-1.848 5.95-1.876 8.467-.275l.859-1.35zm-10.243.313c-3.786 2.692-4.825 7.585-2.916 11.596l1.445-.688c-1.598-3.356-.713-7.392 2.398-9.603l-.927-1.305zm-2.658 10.6l-134.456 95.729.928 1.304 134.456-95.729-.928-1.304zm-133.82 95.6l-4.89-1.077-.345 1.562 4.891 1.077.344-1.562zm-5.553.336l104.053 80.668.98-1.265-104.052-80.667-.981 1.264zm103.848 79.64c-1.701 2.991-1.561 6.781.566 9.748l1.3-.933c-1.763-2.459-1.868-5.576-.475-8.024l-1.391-.791zm.565 9.746c2.943 4.122 8.644 5.043 12.759 2.104l-.93-1.302c-3.402 2.43-8.102 1.664-10.527-1.732l-1.302.93zm12.294 1.453l.256.758h.001l.001-.001.003-.001.007-.002a.07.07 0 01.013-.005l.032-.013a.978.978 0 00.308-.206.912.912 0 00.215-.94l-1.517.509a.695.695 0 01.168-.698.632.632 0 01.21-.142l.025-.009.012-.005a.014.014 0 00.006-.002l.003-.001h.002c0-.001.001-.001.255.758zm-.408.48l80.233 61.35.972-1.271-80.233-61.35-.972 1.271zm80.044 60.285c-1.957 3.077-1.894 7.033.304 10.234l1.319-.906c-1.847-2.69-1.875-5.951-.273-8.469l-1.35-.859zm.313 10.246c2.943 4.122 8.644 5.043 12.759 2.103l-.93-1.302c-3.402 2.431-8.102 1.665-10.527-1.731l-1.302.93zm12.756 2.106c2.283-1.614 3.611-4.046 3.778-6.544l-1.596-.107c-.134 2.004-1.204 4-3.105 5.344l.923 1.307zm3.041-5.8l89.07-6.85-.122-1.596-89.07 6.851.122 1.595zm88.251-7.394c.306.913.656 1.983 1.423 2.926l1.241-1.01c-.556-.684-.829-1.476-1.147-2.425l-1.517.509zm1.392 2.886c2.944 4.122 8.645 5.043 12.76 2.103l-.93-1.302c-3.402 2.431-8.102 1.665-10.527-1.731l-1.303.93zm12.76 2.103c4.121-2.944 5.043-8.646 2.104-12.761l-1.302.93c2.43 3.402 1.664 8.104-1.732 10.529l.93 1.302zm2.118-12.741a8.86 8.86 0 00-3.417-2.982l-.713 1.433a7.253 7.253 0 012.8 2.439l1.33-.89zm-3.024-1.987l85.323-229.126-1.499-.558-85.323 229.126 1.499.558zm84.375-228.63c2.608.668 5.454.29 7.758-1.339l-.923-1.307c-1.881 1.329-4.234 1.66-6.438 1.096l-.397 1.55zm7.766-1.345c3.984-2.894 4.999-8.337 2.353-12.418l-1.342.87c2.179 3.361 1.35 7.855-1.951 10.254l.94 1.294zm2.157-11.34l76.33-56.419-.95-1.287-76.33 56.42.95 1.286zm75.307-56.48c3.102 2.922 7.952 3.43 11.61.782l-.938-1.296c-3.006 2.176-7.004 1.771-9.576-.651l-1.096 1.165zm11.606.785c4.122-2.945 5.043-8.647 2.105-12.762l-1.302.93c2.43 3.403 1.663 8.104-1.732 10.53l.93 1.302zm2.212-12.552l-.039-.116-1.516.509.039.116 1.516-.509zm-.15.608l93.733-129.177-1.295-.94-93.732 129.178 1.294.939zm92.71-128.941c2.937 1.568 6.721 1.437 9.578-.661l-.947-1.289c-2.335 1.715-5.456 1.831-7.878.538l-.754 1.412zm9.577-.66c2.502-1.831 3.731-4.521 3.768-7.355l-1.6-.021c-.03 2.366-1.043 4.57-3.113 6.085l.945 1.291zm3.074-6.573l123.622-16.503-.211-1.586-123.622 16.503.21 1.586zm122.732-17.138a7.428 7.428 0 001.488 3.138l1.241-1.01a5.833 5.833 0 01-1.161-2.445l-1.568.317zm1.458 3.098c2.943 4.122 8.644 5.043 12.759 2.103l-.93-1.302c-3.402 2.431-8.102 1.665-10.527-1.731l-1.302.93zm12.759 2.103c4.121-2.944 5.043-8.646 2.104-12.761l-1.302.93c2.43 3.403 1.664 8.104-1.732 10.529l.93 1.302zm2.092-12.778c-.269-.358-.498-.585-.696-.782l-1.129 1.133c.19.19.35.35.547.612l1.278-.963zm-.633.281l120.5-152.398-1.255-.993-120.5 152.398 1.255.993zm119.477-152.2c2.99 1.702 6.779 1.562 9.746-.566l-.933-1.3c-2.458 1.763-5.574 1.869-8.022.476l-.791 1.39zm9.751-.57c2.148-1.565 3.51-3.86 3.804-6.382l-1.589-.185c-.24 2.059-1.354 3.96-3.157 5.274l.942 1.293zm3.046-5.675l133.186-6.123-.073-1.598L324.803 63.4l.073 1.598zm132.37-6.744c.284 1.25.704 2.528 1.529 3.696l1.307-.923c-.653-.925-1.014-1.974-1.277-3.129l-1.559.356zm1.532 3.7c2.943 4.121 8.644 5.042 12.759 2.103l-.93-1.302c-3.402 2.43-8.102 1.664-10.527-1.732l-1.302.93zm12.764 2.1c3.983-2.895 4.999-8.339 2.353-12.42l-1.342.871c2.178 3.36 1.35 7.855-1.951 10.253l.94 1.295zm2.266-11.437L580.992-61.92l-1.168-1.093L472.64 51.523l1.168 1.094zM580.013-61.77c2.968 1.69 6.798 1.691 9.784-.45l-.932-1.301c-2.439 1.75-5.592 1.765-8.061.36l-.791 1.391zm9.783-.45c4.121-2.944 5.043-8.647 2.105-12.762l-1.302.93c2.429 3.403 1.663 8.104-1.733 10.53l.93 1.302zm2.108-12.756a9.066 9.066 0 00-9.323-3.683l.331 1.566a7.47 7.47 0 017.683 3.036l1.309-.92zm-8.443-3.26l-53.662-106.767-1.43.719 53.662 106.767 1.43-.718zm-53.962-105.723c4.711-2.857 5.645-8.591 2.698-12.718l-1.302.93c2.421 3.39 1.667 8.059-2.225 10.42l.829 1.368zm47.977 119.768c.228.303.52.697.965 1.042l.98-1.265c-.254-.197-.429-.424-.667-.74l-1.278.963zm.871-.138L481.541 39.088l1.167 1.093 96.807-103.416-1.168-1.094zM481.541 39.087l-10.106 10.77 1.166 1.094 10.107-10.769-1.167-1.095zm-9.033 10.684c-.074-.056-.152-.122-.246-.2-.09-.076-.194-.164-.302-.251a4.44 4.44 0 00-.79-.523l-.713 1.433c.158.078.32.192.502.338.091.073.178.147.274.228.092.077.193.162.295.24l.98-1.265zm-.915-.077l35.413-152.579-1.558-.362-35.414 152.58 1.559.361zm34.314-152.026l70.788 30.866.639-1.466-70.787-30.867-.64 1.467zm70.341 29.904c-.795 2.656-.498 5.661 1.202 8.2l1.33-.89c-1.413-2.111-1.669-4.615-.999-6.852l-1.533-.458zM216.529-171.28c2.201.25 4.448-.223 6.511-1.618l-.896-1.326c-1.735 1.174-3.598 1.563-5.434 1.354l-.181 1.59zm6.544-1.642a9.792 9.792 0 003.452-4.818l-1.519-.503a8.195 8.195 0 01-2.895 4.043l.962 1.278zm2.572-4.278l158.849 24.096.24-1.582-158.849-24.096-.24 1.582zm158.169 23.306c.001.215.012.457.022.675.01.228.019.433.02.606l1.6-.003a17.089 17.089 0 00-.022-.675c-.01-.228-.019-.433-.02-.606l-1.6.003zm.606.515L194.219-94.6l.472 1.528 190.201-58.778-.472-1.529zM195.224-93.618l22.165-78.239-1.539-.436-22.165 78.24 1.539.435zM467.103 48.283L397.604-146.62l-1.507.538 69.499 194.904 1.507-.538zm-69.999-193.877c.495-.166.909-.487 1.196-.703l-.962-1.278c-.333.25-.539.396-.742.464l.508 1.517zm1.196-.703c.988-.744 1.843-1.595 2.49-2.678l-1.373-.821c-.513.859-1.207 1.564-2.079 2.221l.962 1.278zm1.484-2.355l103.987 45.354.64-1.467-103.988-45.354-.639 1.467zm103.528 44.44L467.937 48.484l1.559.36L504.87-103.85l-1.558-.361zm-34.53 152.079c-.22-.018-.428-.041-.635-.064-.204-.023-.414-.047-.618-.065a5.25 5.25 0 00-1.305.024l.252 1.58c.275-.044.56-.04.915-.01.179.016.365.037.578.061.208.023.437.048.683.068l.13-1.594zm-72.264-209.343l4.923-23.526-1.566-.328-4.922 23.527 1.565.327zm4.167-22.89l114.295-3.796-.053-1.599-114.295 3.795.053 1.6zm114.054-5.367l-114.476 31.815.428 1.541 114.476-31.814-.428-1.542zm-113.503 32.331a4.589 4.589 0 00-1.05-1.708l-1.13 1.134c.291.29.542.721.663 1.083l1.517-.509zm-.927-1.549c-1.009-1.704-2.534-2.772-4.29-3.437l-.567 1.497c1.506.57 2.7 1.437 3.481 2.756l1.376-.816zm-6.876-3.986a8.574 8.574 0 00-5.859 1.682l.962 1.279a6.974 6.974 0 014.767-1.366l.13-1.595zm-5.859 1.682a9.792 9.792 0 00-3.452 4.818l1.519.503a8.188 8.188 0 012.895-4.042l-.962-1.279zm-2.572 4.279l-153.804-23.33-.24 1.582 153.804 23.33.24-1.582zm-153.898-21.74l167.175-5.491-.052-1.599-167.175 5.491.052 1.599zm166.367-6.457l-4.885 22.866 1.564.335 4.885-22.867-1.564-.334zm-22.644 37.477L189.641-62.772l.666 1.455 185.187-84.925-.667-1.454zM190.732-62.299c-.042-.128-.165-.538-.635-.772l-.713 1.433a.404.404 0 01-.182-.192l.003.008.01.032 1.517-.509zm-.352-.537c-1.001-1.33-2.195-2.359-3.706-3.003l-.628 1.472c1.207.514 2.189 1.343 3.055 2.494l1.279-.963zm-3.25-2.05l7.285-25.742-1.539-.436-7.286 25.743 1.54.436zm6.752-25.196l181.514-56.123-.472-1.528-181.515 56.122.473 1.53zm-9.761 23.412c-2.2-.25-4.448.224-6.511 1.62l.896 1.325c1.735-1.174 3.598-1.563 5.434-1.355l.181-1.59zm-6.544 1.643c-.673.507-1.295 1.133-1.867 1.708l1.133 1.129c.59-.592 1.13-1.133 1.696-1.56l-.962-1.277zm-.904 1.577l-21.129-12.066-.793 1.39L175.88-62.06l.793-1.39zm-20.79-11.057c.644-1.509.808-3.137.551-4.749l-1.58.253c.214 1.337.074 2.658-.442 3.868l1.471.628zm-.002-3.858l35.287-10.936-.474-1.528-35.287 10.935.474 1.529zm34.281-11.92l-6.901 24.191 1.539.439 6.9-24.19-1.538-.44zM152.609-70.45c.674-.508 1.295-1.134 1.868-1.708l-1.134-1.13c-.589.592-1.13 1.133-1.696 1.56l.962 1.278zm.904-1.578l21.285 12.143.793-1.39-21.285-12.143-.793 1.39zm20.934 11.163c-1.051 2.75-.803 6.066 1.047 8.595l1.291-.945c-1.495-2.044-1.723-4.78-.844-7.079l-1.494-.571zm1.033 8.576c.577.839 1.393 1.557 2.113 2.116l.98-1.265c-.678-.526-1.338-1.124-1.774-1.758l-1.319.907zm1.891 1.12l-50.064 98.084 1.425.728 50.064-98.085-1.425-.728zM128.02 47.278c-.255-.758-.254-.759-.254-.759h.002l.003-.001.006-.002.012-.004.026-.007a.648.648 0 01.253-.014.693.693 0 01.555.455l-1.517.51a.908.908 0 001.021.617.925.925 0 00.134-.032l.007-.002.003-.001h.001l.001-.001-.253-.759zm18.963-116.125c2.04.166 4.03-.347 5.64-1.615l-.989-1.257c-1.257.989-2.835 1.414-4.521 1.277l-.13 1.595zM126.248 63.808l55.735 157.716 1.508-.534-55.735-157.716-1.508.534zm56.235 156.691a4.576 4.576 0 00-1.708 1.05l1.134 1.129a2.97 2.97 0 011.082-.662l-.508-1.517zm-1.603.961c-1.156.817-1.963 1.803-2.587 2.848l1.374.821c.536-.898 1.2-1.7 2.136-2.362l-.923-1.307zm-1.647 2.499L71.732 188.198l-.505 1.518 107.5 35.761.506-1.518zM72.219 189.262l51.836-125.603-1.479-.61L70.74 188.652l1.479.61zm50.845-125.148c1.338.443 2.763.383 4.039.22l-.202-1.587c-1.206.154-2.342.176-3.334-.152l-.503 1.519zm61.978 155.526l-.116.039.508 1.517.116-.039-.508-1.517zm.892.531L130.16 62.338l-1.508.534 55.774 157.832 1.508-.533zM129.66 63.363c.494-.165.909-.487 1.196-.703l-.962-1.278c-.333.25-.539.396-.742.464l.508 1.517zm1.173-.686c1.97-1.377 3.229-3.505 3.728-5.769l-1.563-.343c-.425 1.93-1.487 3.686-3.081 4.8l.916 1.312zm2.912-5.141l49.628 2.114.068-1.599-49.627-2.114-.069 1.599zm48.862 1.324l1.889 161.548 1.6-.019-1.889-161.548-1.6.02zm-48.157-4.528a10.996 10.996 0 00-1.599-4.349l-1.348.862a9.407 9.407 0 011.364 3.717l1.583-.23zm-1.614-4.37c-.576-.84-1.392-1.558-2.113-2.117l-.98 1.265c.678.526 1.339 1.124 1.775 1.757l1.318-.906zm-1.89-1.12l50.064-98.086-1.425-.727-50.064 98.085 1.425.727zm48.995-97.733c.603.3 1.282.388 1.797.46l.223-1.584c-.571-.08-.979-.145-1.307-.309l-.713 1.433zm1.109-.321l1.32 105.823 1.6-.02-1.32-105.823-1.6.02zM183.205 55.8l-49.511-2.153-.07 1.598 49.511 2.154.07-1.599zm1.19-104.273c1.396-.178 2.758-.785 3.889-1.583l-.923-1.307c-.963.68-2.082 1.164-3.168 1.302l.202 1.588zm3.681-1.478c.265-.089.445-.23.579-.364.057-.058.11-.119.142-.155.038-.042.065-.073.095-.103l-1.133-1.13c-.067.068-.121.13-.16.173-.044.05-.062.07-.077.085-.011.012-.007.006.007-.003a.172.172 0 01.039-.02l.508 1.517zm-.286-.593l99.647 89.913 1.071-1.189-99.646-89.912-1.072 1.188zm99.647 89.913l22.074 19.903 1.072-1.189-22.075-19.903-1.071 1.189zm21.923 18.898a11.988 11.988 0 00-1.366 3.37l1.556.373a10.382 10.382 0 011.184-2.922l-1.374-.82zm-.553 2.757l-123.042-5.307-.069 1.599 123.042 5.307.069-1.599zm-122.276-4.518l-1.437-105.784-1.6.022 1.437 105.784 1.6-.022zm124.963-.493a1.314 1.314 0 01-.166.14c-.082.062-.198.148-.338.288l1.134 1.13c.054-.055.093-.085.166-.14.082-.062.198-.149.337-.288l-1.133-1.13zm.599.399l-21.53-19.438-1.073 1.187L311.021 57.6l1.072-1.188zm-21.53-19.438L190.488-53.441l-1.072 1.187L289.49 38.162l1.073-1.187zm-99.895-89.466l.116-.233.116-.233-1.432-.713-.116.233-.116.233 1.432.713zm-.782-.08L335.801 5.894l.595-1.485-145.914-58.465-.596 1.485zM335.344 4.887l-17.523 50.018 1.51.529 17.523-50.018-1.51-.529zm-16.617 49.496c-2.407-.46-4.964-.034-7.137 1.55l.942 1.293c1.779-1.297 3.877-1.656 5.894-1.271l.301-1.572zM191.892-55.394c.33-1.496.38-3.086-.147-4.656l-1.517.509c.41 1.221.388 2.503.102 3.803l1.562.344zm-.572-3.675l194.955-89.367-.666-1.455-194.955 89.368.666 1.455zm193.864-89.84c.043.128.165.538.635.772l.713-1.433a.404.404 0 01.182.192l-.003-.008a.47.47 0 00-.01-.032l-1.517.509zm.327.501c.869 1.298 2.034 2.196 3.223 2.787l.713-1.432c-.986-.491-1.919-1.219-2.607-2.246l-1.329.891zm2.824 1.807L336.232 2.519l1.51.528 52.103-149.12-1.51-.528zM337.284 2.04L191.408-56.309l-.594 1.486L336.69 3.526l.594-1.486zm53.908-146.774c1.139.161 2.289.207 3.501-.055l-.338-1.564c-.961.208-1.906.18-2.94.035l-.223 1.584zm2.578-.569l69.383 194.556 1.507-.538-69.383-194.555-1.507.537zm69.882 193.529a8.49 8.49 0 00-2.32 1.21l.962 1.278a6.91 6.91 0 011.867-.972l-.509-1.517zm-2.27 1.175c-.967.618-1.691 1.44-2.254 2.167l1.265.98c.521-.673 1.113-1.327 1.851-1.8l-.862-1.347zm-1.324 1.914L339.42 3.006l-.595 1.486L459.463 52.8l.595-1.485zM339.878 4.013l52.18-149.275-1.51-.528L338.367 3.485l1.511.528zm61.801-155.378c.354-1.156.341-2.442.26-3.48l-1.595.126c.077.981.069 2.023-.195 2.886l1.53.468zm-.324-2.646l116.26-32.283-.428-1.542-116.26 32.284.428 1.541zm115.288-32.799c.075.226.202.415.259.505.037.057.058.09.074.121.016.027.018.036.017.033l1.517-.51c-.076-.226-.202-.415-.26-.505-.036-.057-.057-.09-.074-.121-.015-.027-.018-.036-.016-.033l-1.517.51zm.47.885c1.251 1.662 2.946 2.947 4.858 3.465l.419-1.545c-1.503-.407-2.917-1.444-3.999-2.882l-1.278.962zm4.288 2.512l-17.822 76.911 1.559.361 17.822-76.911-1.559-.361zm-16.722 76.358l-103.444-45.277-.642 1.466 103.445 45.277.641-1.466zm11.394-87.281c-.226.834-.496 1.809-.449 2.847l1.598-.073c-.034-.747.158-1.481.395-2.356l-1.544-.418zm.324 2.011l-115.071 3.797.052 1.599 115.071-3.797-.052-1.599zm-114.262 4.76l12.422-59.437-1.566-.328-12.422 59.438 1.566.327zm11.574-58.804a8.568 8.568 0 005.859-1.682l-.962-1.278a6.98 6.98 0 01-4.767 1.366l-.13 1.594zm5.859-1.682a11.664 11.664 0 001.793-1.714l-1.217-1.039a10.112 10.112 0 01-1.538 1.475l.962 1.278zm.781-1.542l96.092 56.157.808-1.381-96.093-56.158-.807 1.382zm-14.169-1.496c.135.404.469.819.699 1.049l1.129-1.134a2.067 2.067 0 01-.286-.371c-.02-.037-.026-.054-.026-.053l-1.516.509zm.604.935a8.218 8.218 0 004.382 3.251l.481-1.526a6.623 6.623 0 01-3.544-2.631l-1.319.906zm3.84 2.324l-12.615 60.019 1.565.329 12.615-60.019-1.565-.329zm-11.859 59.384l-172.8 5.696.052 1.6 172.801-5.696-.053-1.6zm-172.016 6.241v-.002h-.001v-.003l-.001-.001v-.002h-.001v-.002l-.001-.001v-.003l-.001-.001v-.002h-.001v-.003l-.001-.001v-.002h-.001v-.002l-.001-.001v-.003h-.001v-.002l-.001-.001v-.003l-.001-.001v-.002h-.001v-.002l-.001-.001v-.003h-.001v-.002l-.001-.001v-.003h-.001v-.002l-.001-.001v-.003h-.001v-.002l-.001-.001v-.003h-.001v-.002l-.001-.001v-.002l-.001-.001v-.002l-.001-.001v-.002l-.001-.001v-.003h-.001v-.002l-.001-.001v-.002l-.001-.001v-.003h-.001v-.002l-.001-.001v-.002l-.001-.001v-.002l-.001-.001v-.002l-.001-.001v-.002l-.001-.001v-.002l-.001-.001v-.002l-.001-.001v-.002l-.001-.001v-.002l-.001-.001v-.002l-.001-.001v-.002l-.001-.001v-.002l-.001-.001v-.002l-.001-.001v-.002l-.001-.001v-.002l-.001-.001v-.002l-.001-.001v-.002h-.001v-.003l-.001-.001v-.002h-.001v-.003l-.001-.001v-.002h-.001v-.003l-.001-.001v-.002h-.001v-.003h-.001v-.003l-.001-.001v-.002l-.001-.001v-.002l-.001-.001v-.002h-.001v-.003h-.001v-.003h-.001v-.003h-.001v-.003h-.001v-.003h-.001v-.003h-.001v-.003h-.001v-.003h-.001v-.003h-.001v-.003h-.001v-.003h-.001v-.003h-.001v-.003h-.001v-.003h-.001v-.003h-.001v-.003h-.001v-.003h-.001v-.003h-.001v-.003h-.001v-.003h-.001v-.003h-.001l-.758.254-.759.255h.001v.003h.001v.003h.001v.003h.001v.003h.001v.003h.001v.002l.001.001v.003h.001v.003h.001v.002l.001.001v.003h.001v.003h.001v.003h.001v.002l.001.001v.003h.001v.002l.001.001v.002l.001.001v.002l.001.001v.002l.001.001v.002l.001.001v.002l.001.001v.002l.001.001v.002l.001.001v.002h.001v.003l.001.001v.002l.001.001v.002l.001.001v.002l.001.001v.002l.001.001v.002l.001.001v.002l.001.001v.002h.001v.003l.001.001v.002l.001.001v.002h.001v.003h.001v.003l.001.001v.002l.001.001v.002l.001.001v.002l.001.001v.002l.001.001v.002l.001.001v.002h.001v.003h.001v.003h.001v.003h.001v.003l.001.001v.001l.001.001v.003h.001v.003h.001v.002l.001.001v.003h.001v.003h.001v.002l.001.001v.003h.001v.002l.001.001v.003h.001v.003h.001v.002l.001.001v.003h.001v.002l.001.001v.003h.001v.002l.001.001v.002l.001.001v.002l.001.001v.002l.001.001v.003h.001v.002l.001.001v.003h.001v.002l.001.001v.002l.001.001v.002l.001.001v.002l.001.001v.003h.001v.002l.001.001v.002l.001.001v.002l.001.001v.002l.001.001v.002l.001.001 1.516-.51zm-.551.77l181.025-69.161-.57-1.495-181.025 69.161.57 1.495zm-12.041 9.348a.673.673 0 01-.352.018c-.05-.011-.087-.026-.107-.034l-.016-.007c.006.003.038.019.075.035a.983.983 0 00.417.075.946.946 0 00.254-.049l-.508-1.517a.666.666 0 01.459.016c.017.008.029.014.016.007-.006-.003-.038-.019-.075-.034a.928.928 0 00-.672-.027l.509 1.517zm-.753-.937l-22.511 79.908 1.54.434 22.511-79.908-1.54-.434zm-21.976 79.36L154.59-82.337l.47 1.53 36.838-11.327-.47-1.53zm-35.845 11.837c-.194-.58-.522-1.085-.781-1.428l-1.278.962c.208.277.425.624.542.975l1.517-.509zm-.726-1.346c-.372-.647-.835-1.104-1.218-1.485l-1.13 1.133c.395.393.709.712.96 1.15l1.388-.797zm-1.123-.466l60.828-88.754-1.319-.905-60.829 88.754 1.32.905zm-36.15 143.61a1.098 1.098 0 00.237.394l.034.039c.023.027.009.014.002-.007l1.517-.509a1.554 1.554 0 00-.344-.57l-.009-.011c.003.003.048.06.08.155l-1.517.509zm.392.653c.758 1.006 1.753 1.912 2.657 2.568l.939-1.296c-.805-.583-1.675-1.381-2.318-2.235l-1.278.963zm2.387 1.614L68.411 187.88l1.478.612L121.842 62.85l-1.479-.61zM69.401 187.426l-133.2-44.094-.503 1.52 133.2 44.093.504-1.519zm-132.666-43.188c.251-1.352.212-2.773-.228-4.087l-1.517.509c.34 1.013.383 2.153.172 3.286l1.573.292zm-.664-3.1l182.595-80.69-.646-1.464-182.595 80.69.646 1.464zm-180.994 552.53c-.983.901-1.744 2.011-2.287 3.313l1.476.616c.462-1.106 1.094-2.017 1.892-2.749l-1.081-1.18zm-1.298 2.861l-74.928-24.688-.501 1.519 74.928 24.689.501-1.52zm-74.482-23.536l30.01-53.302-1.394-.785-30.01 53.302 1.394.785zm29.052-52.938c2.055.709 4.332.793 6.491.068l-.509-1.517c-1.797.603-3.71.54-5.46-.064l-.522 1.513zm5.535-.306l41.032 74.893 1.403-.769-41.032-74.893-1.403.769zM-140 374.499l-8.828 72.858 1.588.192 8.828-72.857-1.588-.193zm-8.08 72.155a8.57 8.57 0 00-4.584 1.681l.962 1.278a6.967 6.967 0 013.714-1.362l-.092-1.597zm-4.534 1.646a5.35 5.35 0 00-1.286 1.195l1.265.98c.229-.295.551-.615.883-.827l-.862-1.348zm-.205 1.022L-301.256 348.99l-.896 1.326 148.437 100.332.896-1.326zm-148.169-99.313c.101-.203.184-.432.248-.605.071-.196.124-.335.177-.443l-1.432-.713a5.88 5.88 0 00-.247.606 4.74 4.74 0 01-.178.443l1.432.712zm-.418-.615l162.073 25.991.254-1.579-162.073-25.992-.254 1.58zm-2.726 4.102c.664-.381 1.135-.86 1.538-1.446l-1.317-.908c-.293.425-.596.724-1.017.966l.796 1.388zm.432-1.237l148.436 100.333.896-1.326-148.436-100.333-.896 1.326zm148.168 99.313c-.303.609-.659 1.316-.837 2.127l1.562.344c.129-.588.392-1.123.707-1.758l-1.432-.713zm-.049 1.499l-144.218-1.307-.015 1.6 144.218 1.307.015-1.6zm-143.428-.57l-7.748-98.359-1.595.126 7.748 98.359 1.595-.126zm-8.376-97.514a8.501 8.501 0 003.336-1.546l-.962-1.278a6.884 6.884 0 01-2.712 1.26l.338 1.564zm150.81 101.469a9.778 9.778 0 001.528 4.557l1.348-.862a8.178 8.178 0 01-1.281-3.82l-1.595.125zm1.607 3.591L-284.485 604.08l1.19 1.07 129.517-144.033-1.19-1.07zm-128.479 143.902c-1.27-.843-2.889-1.443-4.499-1.484l-.041 1.6c1.261.031 2.593.512 3.654 1.217l.886-1.333zm-3.722-.748l-11.797-148.256-1.595.127 11.797 148.257 1.595-.128zm-12.602-147.392l143.986 1.384.015-1.6-143.986-1.384-.015 1.6zm9.415 146.783c-.411.053-.807.19-1.146.321-.371.143-.656.268-.985.378l.509 1.517c.369-.124.762-.291 1.05-.402.32-.123.564-.2.773-.226l-.201-1.588zm-1.225.994l-103.357-145.359-1.304.927 103.357 145.359 1.304-.927zm-103.477-144.299a8.227 8.227 0 002.699-5.21l-1.591-.174a6.622 6.622 0 01-2.173 4.19l1.065 1.194zm1.895-4.497l91.025.907.016-1.6-91.024-.907-.017 1.6zm90.235.171l11.875 148.489 1.595-.128-11.875-148.489-1.595.128zm-98.731 6.947c1.575.039 3.008-.306 4.448-.927l-.633-1.469c-1.274.549-2.477.829-3.774.796l-.041 1.6zm3.48-1.198l103.357 145.359 1.304-.927-103.357-145.359-1.304.927zm103.469 144.306c-.98.898-1.759 2.021-2.193 3.33l1.519.503c.338-1.021.953-1.919 1.755-2.654l-1.081-1.179zm-1.255 2.802l-127.936-29.163-.356 1.56 127.936 29.163.356-1.56zm-127.328-28.234l22.441-118.327-1.572-.298-22.441 118.327 1.572.298zm125.702 31.193c-.031.22-.114.696.036 1.142l1.516-.509c.003.008-.006-.013-.003-.091.003-.081.015-.175.036-.319l-1.585-.223zm.663.098l-131.76 21.953.262 1.578 131.76-21.952-.262-1.579zm-130.87 22.488a10.153 10.153 0 00-1.268-2.525l-1.319.906a8.552 8.552 0 011.07 2.128l1.517-.509zm-1.277-2.538c-1.066-1.487-2.384-2.454-3.869-3.192l-.713 1.432c1.312.653 2.403 1.467 3.282 2.693l1.3-.933zm-3.439-2.327l8.838-46.585-1.572-.298-8.838 46.585 1.572.298zm7.874-45.954l127.664 29.125.356-1.56-127.664-29.125-.356 1.56zm-11.054 44.549c-2.226-.252-4.319.316-6.249 1.664l.916 1.312c1.635-1.143 3.343-1.591 5.153-1.386l.18-1.59zm-6.272 1.681c-.231.174-.801.543-1.158 1.005l1.264.98c.185-.239.467-.414.856-.707l-.962-1.278zm-.035.863l-95.389-74.127-.981 1.264 95.388 74.126.982-1.263zm-96.058-72.715l110.857 25.316.357-1.56-110.857-25.316-.357 1.56zm110.249 24.388l-8.76 46.43 1.572.296 8.76-46.429-1.572-.297zm-.298 55.967l131.914-22.263-.266-1.578-131.914 22.263.266 1.578zm131.023-22.798c.295.882.721 1.737 1.248 2.437l1.279-.963c-.407-.539-.76-1.235-1.01-1.983l-1.517.509zm1.228 2.409c.561.816 1.19 1.359 1.728 1.895l1.129-1.133c-.628-.626-1.087-1.012-1.538-1.668l-1.319.906zm1.596.935l-30.281 53.652 1.393.786 30.281-53.651-1.393-.787zm-29.335 53.285l-104.549-34.293-.499 1.52 104.549 34.293.499-1.52zm-104.026-33.324a4.48 4.48 0 00.181-1.297l-1.6.003c0 .308-.026.508-.126.876l1.545.418zm282.749-190.122l8.906-72.625-1.588-.194-8.906 72.624 1.588.195zm7.986-71.932L-66.33 387l.253-1.58-70.558-11.27-.252 1.58zm69.921 10.237c-.766 2.398-.453 4.985.725 7.247l1.419-.739c-1.003-1.925-1.242-4.071-.62-6.022l-1.524-.486zm.96 6.234l-76.447 56.459.95 1.287 76.446-56.459-.95-1.287zm-75.482 56.47c-1.157-.897-2.623-1.514-3.97-1.879l-.418 1.545c1.214.328 2.467.87 3.408 1.599l.98-1.265zm84.68-68.926c-.815-.18-1.694-.174-2.51-.043l.253 1.58c.658-.106 1.33-.103 1.913.025l.344-1.562zm-1.78.222l-35.46-40.909-1.208 1.048 35.46 40.91 1.209-1.049zm-35.46-40.91l-28.267-32.58-1.208 1.049 28.267 32.58 1.208-1.049zm-28.267-31.531c1.753-2.018 2.417-4.657 2.118-7.218l-1.589.185c.254 2.172-.315 4.347-1.737 5.984l1.208 1.049zm1.561-6.362l57.196-17.769-.474-1.528-57.196 17.769.474 1.528zm56.16-18.478l6.816 97.896 1.596-.112-6.815-97.895-1.596.111zm-64.288 28.036c1.497-.086 3.074-.465 4.496-1.374l-.862-1.348c-1.135.725-2.428 1.05-3.725 1.125l.091 1.597zm3.46-1.525l28.306 32.697 1.21-1.047-28.306-32.697-1.21 1.047zm28.307 32.698l34.605 39.902 1.208-1.048-34.604-39.903-1.21 1.049zm34.955 38.62c-.6.201-1.115.543-1.659 1.005l1.036 1.219c.463-.394.8-.596 1.131-.708l-.508-1.516zm-1.572.94c-.967.619-1.692 1.441-2.254 2.168l1.264.98c.522-.673 1.113-1.328 1.851-1.799l-.86-1.349zm-1.496 1.868l-71.372-11.385-.253 1.58 71.373 11.385.252-1.58zm-70.705-10.497l7.8-62.804-1.588-.197-7.799 62.804 1.587.197zm83.054 8.574c-.326-.253-.8-.633-1.407-.797l-.418 1.544c.246.067.472.229.845.518l.98-1.265zm-.818-.081l-6.935-99.409-1.596.112 6.935 99.409 1.596-.112zm-7.495-98.589l99.85-31.048-.475-1.528-99.85 31.048.475 1.528zm98.854-31.557c.195.58.523 1.084.781 1.428l1.278-.962c-.208-.277-.424-.625-.542-.975l-1.517.509zm.746 1.378c.333.521.791.973 1.195 1.286l.98-1.265a3.737 3.737 0 01-.827-.883l-1.348.862zm1.038.184l-35.76 49.277 1.295.94 35.76-49.278-1.295-.939zm-35.76 49.277l-57.702 79.551 1.295.939L4.98 302.951l-1.295-.939zM-66.85 150.057a1.4 1.4 0 01.166-.139c.082-.062.198-.149.338-.289l-1.134-1.129a1.321 1.321 0 01-.166.14c-.082.062-.198.148-.337.288l1.133 1.129zm-.593-.393l105.94 93.626 1.059-1.2-105.94-93.625-1.059 1.199zm105.805 92.58c-1.238 1.843-1.74 4.143-1.397 6.427l1.583-.238c-.286-1.905.136-3.799 1.142-5.297l-1.328-.892zm-.843 5.544l-99.385 30.892.475 1.528 99.385-30.892-.475-1.528zm-98.35 31.6l-8.967-128.625-1.596.111 8.968 128.626 1.596-.112zm-9.587-127.79c1.306-.297 2.394-.805 3.414-1.42l-.825-1.37c-.918.552-1.846.98-2.944 1.23l.355 1.56zm111.085 88.233a1.307 1.307 0 01-.167.14c-.082.062-.198.148-.337.288l1.134 1.13c.054-.055.093-.085.166-.14.082-.062.198-.148.337-.288l-1.133-1.13zm.593.394l-92.182-81.545-1.06 1.199L40.2 241.423l1.06-1.198zm-92.184-81.547l-13.757-12.08-1.056 1.202 13.757 12.081 1.056-1.203zm-13.57-11.123c.05-.098.105-.18.195-.31.084-.123.203-.293.309-.506l-1.432-.712a2.84 2.84 0 01-.194.31c-.085.123-.203.292-.31.505l1.433.713zm-.464-.413l132.93 44.055.503-1.519-132.93-44.055-.503 1.519zm132.441 42.991l-20.047 48.664 1.48.609 20.047-48.664-1.48-.609zm-19.108 48.194c-2.634-.674-5.319-.199-7.603 1.416l.923 1.306c1.9-1.343 4.102-1.73 6.283-1.172l.397-1.55zm-122.458-86.749c.099.014.24.045.425.086.164.036.372.082.545.107l.224-1.585a6.45 6.45 0 01-.425-.085c-.164-.036-.373-.083-.546-.107l-.223 1.584zm.284-.544l9.007 129.13 1.596-.111-9.007-129.13-1.596.111zm9.568 128.311l-57.661 17.926.474 1.528 57.661-17.926-.474-1.528zm-56.666 18.435c-.201-.599-.543-1.115-1.004-1.659l-1.22 1.036c.394.464.596.801.708 1.132l1.516-.509zm-.961-1.603c-.803-1.136-1.832-2.084-3.056-2.694l-.713 1.433c.951.473 1.787 1.229 2.462 2.185l1.307-.924zm-2.659-1.708l51.299-143.413-1.506-.539-51.3 143.413 1.507.539zm-13.21 10.641c.237.706.572 1.22 1.044 1.775l1.22-1.036c-.383-.451-.593-.79-.747-1.248l-1.517.509zm1.006 1.727c1.312 1.812 3.143 3.052 5.168 3.521l.362-1.558c-1.624-.377-3.134-1.381-4.234-2.902l-1.296.939zm4.555 2.645l-7.645 62.494 1.588.194 7.645-62.494-1.588-.194zm-6.724 61.801l-162.073-25.991-.253 1.579 162.072 25.992.254-1.58zm-161.407-25.09c.037-.263-.003-.532-.019-.659a2.65 2.65 0 01-.02-.182c-.003-.046-.001-.059-.002-.051l-1.584-.224c-.037.263.003.533.019.659.01.082.017.136.02.183.003.046 0 .058.001.051l1.585.223zm-.642-.227l164.162-40.333-.382-1.554-164.162 40.333.382 1.554zm-13.384 7.792c1.277.849 2.742 1.366 4.344 1.407l.04-1.6c-1.27-.032-2.445-.44-3.499-1.14l-.885 1.333zm3.566.67l7.786 98.088 1.595-.127-7.786-98.088-1.595.127zm8.591 97.224l-90.869-.83-.015 1.6 90.869.83.015-1.6zm-90.083-.13c-.17-1.341-.678-2.901-1.665-4.062l-1.219 1.036c.724.852 1.152 2.085 1.297 3.227l1.587-.201zm-1.71-4.111a1.049 1.049 0 01-.124-.174c-.063-.099-.174-.278-.343-.446l-1.129 1.133c.026.026.051.06.124.174.063.099.174.279.343.446l1.129-1.133zm-.425.468l81.11-94.265-1.213-1.044-81.11 94.266 1.213 1.043zm-13.566 11.324c1.065 1.061 2.289 1.77 3.559 2.299l.616-1.477c-1.138-.474-2.167-1.081-3.046-1.956l-1.129 1.134zm3.081 1.412l-22.363 118.171 1.572.297 22.363-118.171-1.572-.297zm-21.4 117.54l-113.496-25.854-.355 1.56 113.496 25.854.355-1.56zm-113.209-24.423l132.557-94.444-.928-1.304-132.558 94.445.929 1.303zm110.287 87.79c.166-.215.315-.458.435-.653.131-.213.234-.378.339-.513l-1.265-.98c-.167.215-.315.458-.436.653a6.04 6.04 0 01-.338.513l1.265.98zm-.108-.896l103.967 34.1.498-1.52-103.966-34.1-.499 1.52zm103.52 32.946l-15.353 27.156 1.392.788 15.353-27.156-1.392-.788zm-14.28 26.844c-2.959-1.579-6.571-1.341-9.549.639l.886 1.333c2.525-1.679 5.509-1.842 7.909-.56l.754-1.412zm-9.672.741c-.026.026-.06.05-.174.124-.099.063-.279.174-.446.343l1.133 1.129c.026-.026.059-.051.174-.124.098-.063.278-.175.446-.343l-1.133-1.129zm.432.395l-80.039-61.156-.971 1.272 80.039 61.156.971-1.272zm14.079 5.291c-.246-1.136-.668-2.429-1.468-3.492l-1.278.963c.6.797.958 1.831 1.182 2.867l1.564-.338zm-1.433-3.442a5.35 5.35 0 00-1.195-1.286l-.98 1.265c.296.229.615.551.827.883l1.348-.862zm-.989-.259l15.779-27.816-1.392-.789-15.779 27.816 1.392.789zm14.833-27.451l75.626 24.843.5-1.521-75.626-24.842-.5 1.52zm75.084 23.971c-.027.195-.027.34-.027.443.001.091 0 .141-.011.217l1.585.223c.027-.196.027-.341.026-.443 0-.092.001-.141.011-.217l-1.584-.223zm.696-.027l-89.032 6.579.118 1.596 89.031-6.579-.117-1.596zm9.7-8.24c-1.766-.248-3.68-.038-5.397.825l.718 1.429c1.384-.695 2.961-.88 4.455-.669l.224-1.585zm-4.337 1.155l-40.954-74.661-1.403.77 40.954 74.66 1.403-.769zm-41.169-73.641c3.941-3.021 4.79-8.556 1.886-12.557l-1.295.941c2.385 3.285 1.701 7.843-1.564 10.346l.973 1.27zm1.997-12.341a1.457 1.457 0 00-.364-.579 3.422 3.422 0 00-.155-.142 2.817 2.817 0 01-.103-.095l-1.129 1.134c.067.066.128.121.172.16.05.044.07.061.085.077.011.011.006.007-.003-.007a.142.142 0 01-.02-.039l1.517-.509zm-.592.286l67.217-74.719-1.189-1.07-67.217 74.719 1.189 1.07zm67.218-74.719l62.106-69.12-1.19-1.07-62.106 69.121 1.19 1.069zm60.946-69.088c.298.296.564.423.869.575l.713-1.433c-.317-.157-.361-.185-.452-.276l-1.13 1.134zm.476-.421l-85.401 229.282 1.5.559 85.4-229.282-1.499-.559zM54.881 244.618c-.336-1.003-.756-1.837-1.33-2.735l-1.348.861c.515.807.873 1.524 1.161 2.383l1.517-.509zm-1.365-2.786c-.758-1.007-1.753-1.912-2.657-2.568l-.94 1.296c.806.583 1.676 1.381 2.319 2.235l1.278-.963zm-2.387-1.615l20.124-48.819-1.48-.61-20.123 48.82 1.479.609zm19.132-48.365l107.462 35.646.504-1.519-107.462-35.646-.504 1.519zm106.942 34.677a5.313 5.313 0 00-.178 1.747l1.595-.126a3.732 3.732 0 01.127-1.203l-1.544-.418zm.513.891l-123.7 16.659.214 1.586 123.699-16.659-.213-1.586zm13.201-6.471a8.814 8.814 0 00-2.943-1.146l-.311 1.569c.88.174 1.683.488 2.415.939l.839-1.362zm-2.299-.372l-2.121-161.47-1.6.021 2.122 161.47 1.599-.021zm-2.956-160.66l122.925 5.346.07-1.599-122.925-5.346-.07 1.6zm122.168 4.661c.212 1.46.681 2.875 1.712 4.244l1.278-.962c-.836-1.11-1.224-2.256-1.406-3.511l-1.584.23zm1.712 4.244c.174.23.544.802 1.005 1.159l.98-1.265c-.239-.185-.413-.467-.707-.856l-1.278.962zm.868.03L189.87 221.133l1.255.993L311.664 69.845l-1.254-.993zm15.477-7.121c-.285-1.25-.705-2.529-1.53-3.696l-1.306.923c.653.925 1.013 1.974 1.276 3.128l1.56-.355zm-1.53-3.696c-.802-1.137-1.832-2.085-3.056-2.694l-.713 1.432c.951.473 1.787 1.229 2.463 2.185l1.306-.923zM321.7 56.32l17.406-49.978-1.511-.526-17.406 49.978 1.511.526zm16.354-49.498l120.327 48.154.594-1.486L338.648 5.336l-.594 1.486zm119.865 47.16c-.202.608-.333 1.085-.418 1.693l1.584.223c.067-.48.168-.857.352-1.413l-1.518-.503zm.337 1.005L325.07 61.109l.074 1.599 133.185-6.123-.073-1.598zM579.719-77.031c-.973.622-1.711 1.456-2.264 2.353l1.362.84c.453-.735 1.032-1.378 1.763-1.845l-.861-1.348zm-1.263 2.04l-71.254-31.099-.64 1.467 71.254 31.098.64-1.466zm-70.795-30.185l18.015-77.493-1.558-.362-18.015 77.493 1.558.362zm17.272-76.875a10.375 10.375 0 002.895-.55l-.509-1.517a8.775 8.775 0 01-2.458.469l.072 1.598zm1.925-.95l53.468 106.574 1.43-.718-53.468-106.574-1.43.718zM581.04-77.586c-.71.001-1.214.42-1.457.664l1.133 1.13a.927.927 0 01.192-.152.287.287 0 01.135-.042l-.003-1.6z" fill="#1A1C20" mask="url(#path-2-inside-1_808_4723)"/><path transform="rotate(-51.738 325.738 -85.937) skewX(-.015)" stroke="url(#paint0_linear_808_4723)" stroke-width=".8" d="M0-.4h195.161"/><path transform="rotate(-54.097 347.944 240.7) skewX(-.014)" stroke="url(#paint1_linear_808_4723)" stroke-width=".8" d="M0-.4h152.394"/><path transform="rotate(18.362 -497.186 -33.111) skewX(.009)" stroke="url(#paint2_linear_808_4723)" stroke-width=".8" d="M0-.4h199.977"/></g><defs><linearGradient id="paint0_linear_808_4723" x1="195.161" y1="0" x2="0" y2="0" gradientUnits="userSpaceOnUse"><stop offset=".21" stop-color="#303236"/><stop offset=".501" stop-color="#fff"/><stop offset=".812" stop-color="#303236"/></linearGradient><linearGradient id="paint1_linear_808_4723" x1="152.394" y1="0" x2="0" y2="0" gradientUnits="userSpaceOnUse"><stop offset=".21" stop-color="#303236"/><stop offset=".501" stop-color="#fff"/><stop offset=".812" stop-color="#303236"/></linearGradient><linearGradient id="paint2_linear_808_4723" x1="199.977" y1="0" x2="0" y2="0" gradientUnits="userSpaceOnUse"><stop offset=".21" stop-color="#303236"/><stop offset=".501" stop-color="#fff"/><stop offset=".812" stop-color="#303236"/></linearGradient></defs></svg>