<svg width="27" height="27" fill="none" xmlns="http://www.w3.org/2000/svg"><g clip-path="url(#clip0_1001_1341)" fill="#FECC00"><path d="M15.22 13.469l-1.415-1.77-1.416 1.77a.751.751 0 01-.922.202l-1.63-.815.58 2.896h6.777l.579-2.896-1.63.815a.75.75 0 01-.922-.202z"/><path d="M13.805 5.241c-4.554 0-8.26 3.705-8.26 8.259s3.706 8.259 8.26 8.259c4.553 0 8.258-3.705 8.258-8.259s-3.704-8.259-8.258-8.259zm5.741 6.404l-1 5.005a.75.75 0 01-.737.604H9.8a.75.75 0 01-.736-.604l-1-5.005a.75.75 0 011.071-.819l2.46 1.23 1.623-2.028a.75.75 0 011.173 0l1.623 2.028 2.46-1.23a.75.75 0 011.072.82z"/><path d="M13.805.687C6.739.687.99 6.435.99 13.5c0 7.066 5.748 12.814 12.814 12.814 7.065 0 12.813-5.748 12.813-12.814C26.618 6.435 20.87.687 13.805.687zm0 22.573c-5.382 0-9.76-4.378-9.76-9.76s4.378-9.76 9.76-9.76 9.76 4.378 9.76 9.76-4.378 9.76-9.76 9.76z"/></g><defs><clipPath id="clip0_1001_1341"><path fill="#fff" transform="translate(.991 .687)" d="M0 0h25.627v25.627H0z"/></clipPath></defs></svg>