<svg width="2364" height="735" fill="none" xmlns="http://www.w3.org/2000/svg"><g opacity=".1" filter="url(#filter0_f_808_4721)"><path d="M36.649 386.977l50.428 205.871c-5.063 2.826-8.303 8.276-7.695 14.331.607 8.073 7.898 14.128 16.201 13.523 5.874-.606 10.734-4.441 12.759-9.688l277.053 31.688c1.012 7.871 8.101 13.523 15.999 12.917 8.101-.605 14.177-7.871 13.569-16.147-.203-2.22-1.013-4.44-2.025-6.257L600.475 488.5c3.037 2.826 7.088 4.238 11.341 3.835 5.873-.404 10.531-4.441 12.556-9.486l338.822 67.614v1.817c.608 8.073 7.899 14.128 16.202 13.523 8.101-.606 14.177-7.872 13.569-16.147-.202-1.817-.607-3.633-1.417-5.248l186.522-119.486c3.04 3.431 7.5 5.449 12.56 5.046 5.67-.404 10.53-4.239 12.55-9.285l275.84 66.808v.201c.61 8.074 7.9 14.129 16.2 13.523 7.29-.605 12.76-6.256 13.57-13.119l168.3-11.504c1.01 7.871 8.1 13.522 16 12.917 4.66-.404 8.71-3.028 11.14-6.661l378.72 211.321c-1.02 2.221-1.42 4.642-1.22 7.266.61 8.074 7.9 14.129 16.2 13.523 8.1-.605 14.18-7.871 13.57-16.146-.2-1.817-.6-3.432-1.41-5.046l128.6-92.844c3.04 2.825 7.09 4.44 11.54 4.036 8.1-.605 14.18-7.871 13.57-16.146-.61-6.257-4.86-11.101-10.33-12.918l38.08-174.789h.4c8.1-.605 14.18-7.871 13.57-16.146-.61-5.854-4.46-10.698-9.52-12.514l48-228.881-5.27 7.065-292.24 25.027c-1.62-7.064-8.3-11.908-15.79-11.303-6.28.606-11.14 4.844-12.97 10.294l-218.52-33.908v-1.413c-.61-8.074-7.9-14.129-16.2-13.523-8.1.605-14.18 7.871-13.57 16.147 0 1.211.41 2.22.61 3.229L1501.1 278.995c-2.84-4.238-8.1-7.064-13.57-6.458-4.26.403-8.1 2.624-10.53 5.853l-234.53-134.826c.81-2.018 1.22-4.44 1.02-6.66-.61-8.074-7.9-14.129-16.21-13.523-8.3.605-14.17 7.872-13.56 16.147 0 .202 0 .605.2.807L873.679 240.849c-2.633-5.45-8.304-9.083-14.784-8.477-3.241.202-6.279 1.614-8.506 3.633L689.787 100.372c1.621-2.624 2.431-5.853 2.228-9.083-.607-8.073-7.898-14.128-16.202-13.523-5.67.404-10.328 4.037-12.354 8.881L478.555 36.592a7.602 7.602 0 000-3.027c-.607-8.074-7.898-14.129-16.202-13.523-8.1.605-14.176 7.871-13.569 16.146 0 .606.203 1.01.203 1.615l-325.05 114.44c-2.633-5.045-8.304-8.275-14.38-7.871-8.1.605-14.176 7.871-13.569 16.147.405 5.247 3.646 9.486 7.899 11.908l-65.416 185.89c-1.62-.404-3.24-.606-4.86-.404-8.1.605-14.177 7.872-13.569 16.147 1.418 7.468 8.506 13.523 16.607 12.917zm65.415 206.275l60.352-122.917 223.586 165.504c-.202.808-.607 1.615-.607 2.624l-26.126-3.027-250.319-28.661v-2.018c-.405-5.046-3.038-9.285-6.886-11.505zm493.55-468.256L270.159 263.858c-.405-.606-.81-1.211-1.418-1.817L456.278 47.088c2.633 1.614 5.873 2.623 9.316 2.22a15.496 15.496 0 009.721-4.844l120.299 80.532zM388.027 631.803L164.239 466.298l88.705-180.44c1.823.605 3.848.807 5.873.605.608 0 1.215-.201 1.823-.201l130.223 342.917c-1.013.605-2.026 1.614-2.836 2.624zM242.615 272.941c0 1.009.203 2.018.608 2.825L51.433 364.17l159.184-126.147 33.821 26.239c-1.418 2.624-2.025 5.651-1.823 8.679zm-28.353-37.542L447.164 51.124 265.5 259.216c-2.632-1.615-5.873-2.624-9.316-2.22-3.442.201-6.683 1.816-8.911 4.036l-33.011-25.633zm385.605-107.578l39.492 26.441c-1.013 2.22-1.62 4.844-1.418 7.669v.606l-348.745 97.89 310.671-132.606zm4.86-2.018l60.352-25.835c1.418 2.22 3.241 4.037 5.671 5.248l-14.784 40.77c-1.418-.201-2.835-.403-4.253-.201a15.492 15.492 0 00-9.721 4.844l-37.265-24.826zm82.833-22.404l160.601 135.633s0 .202-.203.202l-180.651-74.881c.405-1.614.608-3.229.405-4.844-.405-5.247-3.443-9.486-7.696-11.706l14.785-40.771c1.417.202 2.835.404 4.253.202 3.24-.403 6.075-1.816 8.506-3.835zm185.106 152.184l214.874 110L983.042 536.94c-2.026-.605-4.051-1.009-6.279-.807-1.012 0-2.025.202-2.835.605l-105.92-276.917c1.823-1.009 3.443-2.624 4.658-4.238zm-86.072 62.77l64.807-59.743c2.836 2.22 6.683 3.633 10.531 3.23.608 0 1.216-.202 1.823-.404l106.122 277.119-.202.202-183.081-220.404zm-2.836-3.431L663.864 170.61a8.975 8.975 0 001.621-2.22l180.651 74.881c-.405 1.614-.608 3.229-.405 4.844.202 2.624 1.215 5.046 2.632 7.064l-64.605 59.743zm-3.24 3.028L619.917 466.298c-1.62-1.211-3.443-2.22-5.266-2.826l6.886-52.275 31.391-235.743h1.013c2.43-.201 4.455-1.009 6.48-2.018L780.518 317.95zM598.652 468.518l-81.212-47.431 130.425-246.44c.203 0 .608.202.81.202l-31.593 236.954-6.886 51.064h-1.215c-4.051.404-7.696 2.422-10.329 5.651zm-85.06-49.651L271.171 277.179c.81-2.018 1.215-4.44 1.013-6.862v-.606l366.972-103.137c1.013 2.422 2.633 4.44 4.861 5.853l-130.425 246.44zm-2.025 3.835L403.622 626.353c-1.621-.404-3.241-.605-5.063-.404-1.418.202-2.836.404-4.051 1.01L264.691 284.647c1.62-1.009 3.24-2.22 4.252-3.633l242.624 141.688zm-350.771 40.972L48.193 380.317c1.823-2.624 2.632-5.854 2.43-9.487 0-.403-.203-.807-.203-1.211l194.828-89.816a12.872 12.872 0 004.051 4.037l-88.503 179.834zm-52.049-290.238c1.215.202 2.633.404 4.051.202 3.443-.202 6.683-1.817 8.911-4.037l85.262 66L46.573 362.555a13.245 13.245 0 00-3.646-3.027l65.82-186.092zM451.215 41.638c0 .202.202.404.202.404l-240.8 190.733-86.073-66.605c1.418-2.422 2.025-5.449 1.823-8.477 0-.606-.203-1.009-.203-1.615l325.051-114.44zm211.637 48.844a7.601 7.601 0 000 3.027c0 .808.202 1.615.405 2.422l-62.985 26.844-122.527-81.944c0-.202.203-.202.203-.404l184.904 50.055zm552.688 53.688c1.01 2.018 2.23 3.835 4.05 5.046l-129.62 212.532-215.279-110c.608-1.817 1.013-3.835.811-6.055 0-.202 0-.606-.203-.808L1215.54 144.17zm851.21 392.972c3.44-1.211 6.27-3.633 7.89-6.862l102.08 37.339-73.32 119.284a13.184 13.184 0 00-6.28-1.614l-30.37-148.147zm-290.22-384.091c.61.403 1.21.605 1.82 1.009l-85.67 305.779h-2.63c-2.83.202-5.26 1.211-7.29 2.624l-96-88.202 189.77-221.21zm14.78.605l102.68 141.688-193.81 167.321c-1.02-.807-2.03-1.413-3.24-1.817l85.66-305.577a7.7 7.7 0 003.04 0c2.03-.202 3.85-.606 5.67-1.615zm105.11 145.321l154.73 213.541c-1.82 1.817-3.24 4.037-3.85 6.459l-341.25-45.817c-.2-2.825-1.21-5.247-2.83-7.266l193.2-166.917zm3.45-2.826l122.32-105.761c2.43 2.018 5.47 3.431 8.71 3.633l27.14 314.862c-1.22.202-2.43.606-3.45 1.211l-154.72-213.945zm308.44 27.854l-139.74 186.091c-1.82-1.009-3.85-1.615-6.08-1.816l-27.14-314.863a15.084 15.084 0 006.69-3.431l166.27 134.019zm3.44 2.825l65.62 52.881c-1.22 2.422-1.82 5.046-1.62 8.073.2 1.615.61 3.028 1.01 4.441l-203.74 121.706c-.2-.404-.6-.606-1.01-1.009l139.74-186.092zm2.63-3.633l121.11-161.468-43.94 209.707h-2.23c-3.65.403-7.09 2.018-9.32 4.44l-65.62-52.679zm66.64 74.477l-102.08 166.312-102.68-37.743c.21-1.413.41-2.826.21-4.239-.21-1.614-.41-3.027-1.02-4.44l204.35-121.303c.41.606.81 1.009 1.22 1.413zm-604.54 74.477l-168.5 11.505c-.81-4.037-3.24-7.67-6.68-9.688l82.63-96.275 95.59 88c-1.62 1.816-2.63 4.036-3.04 6.458zm-297.91-135.229l98.02-41.578c2.23 3.431 5.87 6.055 10.13 6.661l-.81 76.293-1.02 96.073c-1.01.808-2.02 1.615-2.83 2.624l-103.49-140.073zm202.12 37.743l-83.44 97.284c-1.62-.403-3.24-.605-5.06-.403-1.02 0-1.83.202-2.84.605l1.01-93.651.81-76.697c2.64-.404 5.07-1.413 7.09-3.028l82.43 75.89zm-271.59 67.211l-105.31-25.431v-2.624c0-.807-.2-1.615-.4-2.422l171.13-72.66 105.11 142.293c-.2.605-.61 1.413-.61 2.22l-169.92-41.376zm-73.11-290.844l135.9 183.872-170.12 72.257c-1.83-3.028-4.86-5.45-8.51-6.459l35.85-247.853h1.21c2.03-.202 3.85-.808 5.67-1.817zm-59.13 255.321l-83.24-42.587 129.41-212.128c.41.202 1.01.403 1.42.605l-4.66 32.092-31.19 215.963h-1.21c-4.26.404-8.1 2.826-10.53 6.055zm298.31-124.33c-.81 2.018-1.01 4.239-.81 6.459 0 1.009.21 1.816.61 2.825l-98.83 41.982-136.5-184.679c.4-.403.81-.807 1.21-1.211l234.32 134.624zm297.11-133.009c.2.404.6.807 1.01 1.211l-189.77 221.211-82.22-75.688c2.02-2.826 3.04-6.257 2.63-9.89 0-1.009-.2-2.019-.61-3.028l268.96-133.816zm244.64 30.073v1.413c.21 2.422 1.02 4.642 2.23 6.661l-122.12 105.357-102.48-141.284c1.83-1.615 3.04-3.835 3.85-6.257l218.52 34.11zm318.17-23.816l-124.15 165.302-166.27-133.816c1.22-2.018 1.82-4.239 2.03-6.661l288.39-24.825zm-86.07 420.018h-1.42c-5.67.403-10.33 4.238-12.56 9.082l-52.05-19.174 101.67-165.505c.81.404 1.62.606 2.43.808l-38.07 174.789zm-141.37 115.045c-.2-.201-.4-.605-.81-.807l73.93-120.293 53.46 19.578v2.623c.2 2.221.81 4.239 1.82 5.854l-128.4 93.045zm-402.21-211.522c.21-.404.21-.808.41-1.413l163.84 22 177.21 23.816v1.01c.61 8.073 7.69 13.926 15.59 13.522l30.38 147.945c-3.04.808-5.47 2.422-7.49 4.642l-379.94-211.522zm-716.525 61.963c-.608-.605-1.215-1.211-2.025-1.816l104.5-171.358 83.44 42.789c-.61 1.816-1.01 3.835-.81 6.055.2 1.816.61 3.431 1.22 4.844L988.915 540.775zm-363.53-62.165v-2.22c-.203-2.624-1.013-4.844-2.43-6.863l160.398-148.348 183.082 220.403c-1.013 1.413-2.025 2.826-2.431 4.441L625.385 478.61zM410.102 629.784c-.607-.605-1.417-1.211-2.227-1.816l107.54-203.248 81.212 47.431a14.436 14.436 0 00-1.013 6.661c.203 2.22 1.013 4.44 2.025 6.257L410.102 629.784zm-318.974-38.55L40.902 385.968c1.62-.606 2.835-1.413 4.253-2.422l113.616 83.963-60.757 123.725c-1.62-.404-3.24-.606-5.063-.404-.608.202-1.216.404-1.823.404z" fill="url(#paint0_linear_808_4721)"/></g><defs><linearGradient id="paint0_linear_808_4721" x1="2109" y1="723" x2="823" y2="445.5" gradientUnits="userSpaceOnUse"><stop stop-color="#DADADA"/><stop offset="1" stop-color="#DADADA" stop-opacity="0"/></linearGradient><filter id="filter0_f_808_4721" x="0" y="0" width="2364" height="735" filterUnits="userSpaceOnUse" color-interpolation-filters="sRGB"><feFlood flood-opacity="0" result="BackgroundImageFix"/><feBlend in="SourceGraphic" in2="BackgroundImageFix" result="shape"/><feGaussianBlur stdDeviation="10" result="effect1_foregroundBlur_808_4721"/></filter></defs></svg>