<svg width="16" height="16" fill="none" xmlns="http://www.w3.org/2000/svg"><path d="M13.617 13.926H3.62a.649.649 0 010-1.298h9.997c.335 0 .593-.28.593-.593l-.006-9.677a1.47 1.47 0 00-1.47-1.47H3.62A1.84 1.84 0 001.79 2.72v10.56a1.83 1.83 0 001.83 1.83h9.997a.594.594 0 00.593-.592.594.594 0 00-.593-.592zM2.974 2.72c0-.35.297-.646.646-.646h.545v9.369c-.372.023-.686-.064-1.19.118V2.72zm4.273 2.95a.858.858 0 011.321-.722l1.695 1.09a.845.845 0 01.397.723c0 .29-.148.563-.397.717l-1.695 1.09a.858.858 0 01-1.321-.723V5.672z" fill="#FECC00"/></svg>