<svg width="383" height="267" fill="none" xmlns="http://www.w3.org/2000/svg"><g clip-path="url(#clip0_808_4842)"><mask id="mask0_808_4842" style="mask-type:luminance" maskUnits="userSpaceOnUse" x="-680" y="-779" width="1554" height="1554"><path d="M483.371-778.841L-679.902-388.473l390.145 1163.456L873.517 384.614 483.371-778.841z" fill="#fff"/></mask><g mask="url(#mask0_808_4842)"><mask id="path-2-inside-1_808_4842" fill="#fff"><path d="M629.546-367.212c-2.684-3.759-7.885-4.602-11.643-1.917-.737.506-1.395 1.244-1.937 1.944l-95.937-56.08c1.082-2.564.727-5.551-.985-7.954-2.684-3.759-7.884-4.602-11.643-1.917-2.828 1.985-3.986 5.479-3.321 8.621l-181.141 69.2c-.078-.232-.311-.542-.506-.736-2.684-3.759-7.885-4.602-11.643-1.917-3.759 2.685-4.603 7.886-1.919 11.645.312.543.701.93 1.089 1.318l-60.944 88.793c-2.641-1.315-5.939-1.114-8.574.676-3.758 2.685-4.602 7.887-1.918 11.646 1.05 1.589 4.816 2.785 6.524 3.247l-19.184 116.845c-1.707-.074-5.703.361-7.175 1.373-2.906 2.14-4.141 5.79-3.165 9.087L33.046-32.688c-.039-.116-.194-.194-.272-.426-2.684-3.76-7.885-4.603-11.644-1.918-3.758 2.685-4.602 7.887-1.918 11.646.739 1.046 1.827 1.976 2.914 2.517l-51.183 143.374c-2.212-.422-4.694-.107-6.67 1.333-2.636 1.79-3.794 4.897-3.478 7.768l-164.162 40.333a4.917 4.917 0 00-.934-1.628c-2.684-3.759-7.885-4.602-11.643-1.917-3.759 2.685-4.603 7.887-1.919 11.646.194.193.272.426.467.619l-81.149 94.15c-2.797-1.78-6.405-1.734-9.35.29-3.449 2.452-4.411 6.916-2.658 10.599l-134.456 95.729-4.89-1.077 104.052 80.668c-1.547 2.72-1.424 6.173.521 8.886 2.684 3.759 7.885 4.602 11.643 1.917 0 0 .117-.039.078-.155l80.233 61.35c-1.78 2.797-1.734 6.406.289 9.352 2.684 3.759 7.885 4.602 11.643 1.917 2.092-1.479 3.291-3.693 3.442-5.944l89.07-6.851c.312.931.624 1.862 1.286 2.676 2.684 3.758 7.884 4.602 11.643 1.917 3.758-2.685 4.602-7.887 1.918-11.646a8.057 8.057 0 00-3.109-2.71L-51.867 292.6c2.407.616 5.006.262 7.098-1.217 3.642-2.646 4.564-7.615 2.152-11.335l76.33-56.42c2.837 2.672 7.261 3.129 10.594.716 3.758-2.685 4.602-7.887 1.918-11.646l-.039-.116 93.733-129.178c2.68 1.43 6.132 1.308 8.729-.599 2.286-1.673 3.406-4.12 3.44-6.72L275.71 59.58c.196.97.664 1.978 1.325 2.791 2.684 3.76 7.884 4.603 11.643 1.918 3.758-2.685 4.602-7.887 1.918-11.646a5.886 5.886 0 00-.622-.697l120.501-152.398c2.718 1.547 6.171 1.424 8.884-.522 1.976-1.44 3.213-3.538 3.481-5.828l133.185-6.122c.274 1.202.664 2.366 1.404 3.412 2.684 3.759 7.884 4.602 11.643 1.917 3.642-2.646 4.564-7.615 2.152-11.336l107.184-114.535c2.719 1.547 6.211 1.54 8.923-.405 3.759-2.685 4.603-7.887 1.919-11.646a8.268 8.268 0 00-8.504-3.359l-53.662-106.768c4.302-2.608 5.146-7.81 2.462-11.569zm46.569 131.54c.233.31.467.62.816.891l-96.807 103.416-10.106 10.769c-.35-.271-.739-.658-1.205-.89l35.414-152.579 70.788 30.867c-.733 2.446-.456 5.201 1.1 7.526zM314.62-343.074c2.018.229 4.073-.202 5.972-1.487a8.98 8.98 0 003.173-4.43l158.849 24.096c.001.388.041.893.042 1.281l-190.201 58.779 22.165-78.239zm249.73 220.627l-69.5-194.905c.349-.117.659-.35.969-.584.93-.7 1.704-1.478 2.285-2.449l103.987 45.354-35.374 152.695c-.932-.075-1.63-.229-2.367-.111zm-70.614-210.192l4.922-23.527 114.295-3.795-114.476 31.814a3.773 3.773 0 00-.856-1.395c-.895-1.512-2.255-2.479-3.885-3.097zm-2.368-.5a7.773 7.773 0 00-5.313 1.524 8.991 8.991 0 00-3.173 4.43l-153.804-23.33 167.175-5.491-4.885 22.867zm-18.208 15.17l-185.186 84.925c-.039-.116-.078-.233-.233-.31-.934-1.24-2.022-2.169-3.381-2.749l7.286-25.743 181.514-56.123zm-191.129 81.095c-2.018-.229-4.074.202-5.973 1.486-.62.467-1.201 1.05-1.781 1.634l-21.129-12.066c.579-1.36.732-2.835.496-4.309l35.287-10.935-6.9 24.19zm-31.903-5.215c.62-.467 1.201-1.05 1.782-1.633l21.284 12.143c-.965 2.524-.727 5.551.946 7.837.506.736 1.244 1.395 1.943 1.936L226.02-123.72s-.117.039-.156-.078l19.184-116.845c1.863.151 3.647-.318 5.08-1.446zm-25.126 134.631l55.735 157.716a3.778 3.778 0 00-1.395.856c-1.046.74-1.782 1.634-2.362 2.605L169.479 17.957l51.837-125.602c1.164.386 2.445.344 3.686.187zm58.294 156.857l-.116.039-55.774-157.833c.349-.117.659-.35.969-.584 1.782-1.245 2.943-3.188 3.404-5.284l49.628 2.114 1.889 161.548zm-51.637-165.951a10.21 10.21 0 00-1.482-4.033c-.506-.737-1.244-1.395-1.944-1.937l50.064-98.085c.466.232 1.009.309 1.553.385l1.32 105.823-49.511-2.153zm50.635-103.713c1.241-.158 2.482-.704 3.528-1.443.233-.078.31-.234.504-.428l99.646 89.912 22.075 19.903a11.18 11.18 0 00-1.275 3.146l-123.041-5.307-1.437-105.783zm127.767 105.844c-.194.195-.31.234-.504.428l-21.53-19.438-100.075-90.416.232-.466 145.915 58.465-17.523 50.018c-2.212-.423-4.539-.03-6.515 1.409zm-120.95-112.145c.308-1.397.344-2.833-.124-4.229l194.955-89.368c.039.116.078.233.234.31.778 1.163 1.827 1.976 2.914 2.517l-52.103 149.119-145.876-58.349zm200.192-89.96c1.087.153 2.135.19 3.221-.045l69.382 194.555a7.725 7.725 0 00-2.093 1.091c-.853.545-1.511 1.284-2.053 1.983l-120.637-48.309 52.18-149.275zm9.611-6.073c.309-1.009.307-2.173.227-3.182l116.26-32.284c.078.233.273.427.351.66 1.166 1.549 2.721 2.711 4.429 3.173l-17.823 76.911-103.444-45.278zm115.931-42.527c-.231.854-.462 1.708-.422 2.601l-115.071 3.797 12.422-59.437a7.779 7.779 0 005.313-1.524 10.864 10.864 0 001.665-1.595l96.093 56.158zm-109.907-57.217c.078.233.311.543.506.736a7.421 7.421 0 003.963 2.942l-12.616 60.019-172.8 5.696-.078-.232 181.025-69.161zm-193.036 78.498c.117-.039.156.077.272.038l-22.511 79.908-36.838 11.327c-.156-.465-.429-.892-.662-1.202-.312-.542-.7-.93-1.089-1.317l60.828-88.754zm-95.559 232.562c.039.116.194.193.272.426.7.93 1.633 1.782 2.488 2.401L167.15 17.186 33.949-26.907c.23-1.243.19-2.523-.2-3.687l182.594-80.689zm-362.725 634.541c-.891.817-1.588 1.827-2.09 3.031l-74.928-24.688 30.01-53.302c1.902.656 3.998.73 5.975.066l41.033 74.893zm105.176-319.662l-8.828 72.857a7.771 7.771 0 00-4.149 1.522 4.523 4.523 0 00-1.084 1.011l-148.437-100.333c.155-.31.27-.737.425-1.048l162.073 25.991zm-165.324-21.794c.542-.311.93-.7 1.278-1.205l148.436 100.332c-.309.622-.618 1.243-.772 1.942l-144.219-1.307-7.747-98.359a7.675 7.675 0 003.024-1.403zm148.752 103.592a8.974 8.974 0 001.405 4.188L-185.89 433.616c-1.165-.774-2.641-1.315-4.076-1.35l-11.797-148.257 143.986 1.385zm-134.477 146.992c-.621.079-1.28.43-1.978.664L-297.59 287.691a7.43 7.43 0 002.435-4.701l91.025.907 11.875 148.489zm-111.383-142.277c1.435.036 2.754-.277 4.111-.862l103.357 145.359c-.891.817-1.587 1.827-1.973 2.992l-127.936-29.163 22.441-118.326zm104.84 149.78c-.039.272-.077.543.001.776l-131.76 21.953a9.312 9.312 0 00-1.168-2.326c-.973-1.357-2.177-2.247-3.575-2.943l8.838-46.585 127.664 29.125zm-138.986 17c-2.018-.229-3.918.279-5.701 1.524-.31.234-.736.506-1.007.856l-95.388-74.126 110.856 25.316-8.76 46.43zm7.543 8.6l131.914-22.264c.273.815.663 1.59 1.13 2.21.505.737 1.049 1.201 1.632 1.782l-30.28 53.652-104.549-34.293c.115-.427.154-.699.153-1.087zm282.574-188.924l8.906-72.625 70.557 11.27c-.694 2.175-.418 4.542.672 6.635l-76.446 56.459c-1.05-.813-2.408-1.392-3.69-1.739zm88.687-67.039c-.699-.153-1.475-.152-2.212-.034l-35.46-40.91-28.267-32.58c1.588-1.827 2.204-4.234 1.928-6.601l57.196-17.77 6.815 97.895zm-71.947-70.602c1.396-.08 2.831-.432 4.11-1.25L1.49 170.371l34.605 39.903c-.465.156-.892.428-1.395.856-.853.545-1.511 1.284-2.053 1.983l-71.372-11.385 7.799-62.804zm75.558 72.109c-.35-.271-.7-.542-1.126-.658l-6.935-99.408 99.851-31.048c.156.465.428.891.661 1.201.273.427.661.814 1.011 1.085l-35.759 49.277-57.703 79.551zM30.584-21.507c.193-.194.31-.233.503-.428l105.939 93.626c-1.122 1.67-1.584 3.767-1.269 5.862l-99.385 30.892-8.968-128.626c1.203-.274 2.21-.742 3.18-1.326zm108.649 90.904c-.193.194-.31.233-.503.427L46.548-11.72 32.79-23.8c.154-.311.348-.506.503-.817l132.929 44.055-20.047 48.664c-2.407-.616-4.85-.184-6.943 1.295zM24.029-20.213c.271.038.698.154.97.192l9.007 129.13-57.661 17.926c-.156-.465-.428-.892-.856-1.395-.74-1.047-1.672-1.899-2.76-2.44l51.3-143.413zm-62.997 154.069c.195.582.467 1.008.895 1.512 1.206 1.666 2.876 2.788 4.7 3.212l-7.644 62.493-162.073-25.991c.039-.272-.078-.621-.04-.893l164.162-40.333zm-176.912 48.236c1.165.774 2.485 1.237 3.921 1.273l7.785 98.088-90.869-.83c-.157-1.242-.625-2.638-1.481-3.645-.194-.194-.272-.426-.466-.62l81.11-94.266zm-93.505 105.544c.972.969 2.098 1.626 3.302 2.128l-22.363 118.171-113.496-25.854 132.557-94.445zm-22.439 182.396c.271-.349.503-.816.774-1.165l103.967 34.1-15.353 27.155c-2.68-1.43-5.977-1.229-8.729.6-.193.194-.426.272-.62.467l-80.039-61.157zm93.822 65.98c-.235-1.086-.625-2.249-1.325-3.179a4.531 4.531 0 00-1.011-1.085l15.779-27.816 75.626 24.842c-.038.272.001.388-.037.66l-89.032 6.578zm98.561-14.824c-1.63-.23-3.376-.032-4.926.747l-40.955-74.661c3.604-2.762 4.37-7.808 1.725-11.451-.078-.232-.233-.31-.427-.503l67.217-74.719 62.106-69.12c.194.193.35.27.66.425l-85.4 229.282zM152.123 73.873c-.312-.931-.702-1.706-1.246-2.56-.7-.93-1.633-1.781-2.488-2.4l20.124-48.82L275.975 55.74c-.116.427-.192.97-.153 1.475L152.123 73.873zM288.498 50.63a8.034 8.034 0 00-2.68-1.042l-2.121-161.47 122.925 5.346c.197 1.358.626 2.638 1.559 3.878.234.31.506.736.856 1.007L288.498 50.63zm134.609-159.72c-.274-1.202-.664-2.366-1.403-3.412-.739-1.046-1.672-1.898-2.759-2.44l17.406-49.978 120.327 48.155c-.193.582-.308 1.009-.385 1.553l-133.186 6.122zM678.15-247.357c-.853.545-1.511 1.284-2.014 2.1l-71.254-31.099 18.015-77.493a9.584 9.584 0 002.676-.51l53.468 106.573c-.388.001-.698.235-.891.429z"/></mask><path d="M629.546-367.212c-2.684-3.759-7.885-4.602-11.643-1.917-.737.506-1.395 1.244-1.937 1.944l-95.937-56.08c1.082-2.564.727-5.551-.985-7.954-2.684-3.759-7.884-4.602-11.643-1.917-2.828 1.985-3.986 5.479-3.321 8.621l-181.141 69.2c-.078-.232-.311-.542-.506-.736-2.684-3.759-7.885-4.602-11.643-1.917-3.759 2.685-4.603 7.886-1.919 11.645.312.543.701.93 1.089 1.318l-60.944 88.793c-2.641-1.315-5.939-1.114-8.574.676-3.758 2.685-4.602 7.887-1.918 11.646 1.05 1.589 4.816 2.785 6.524 3.247l-19.184 116.845c-1.707-.074-5.703.361-7.175 1.373-2.906 2.14-4.141 5.79-3.165 9.087L33.046-32.688c-.039-.116-.194-.194-.272-.426-2.684-3.76-7.885-4.603-11.644-1.918-3.758 2.685-4.602 7.887-1.918 11.646.739 1.046 1.827 1.976 2.914 2.517l-51.183 143.374c-2.212-.422-4.694-.107-6.67 1.333-2.636 1.79-3.794 4.897-3.478 7.768l-164.162 40.333a4.917 4.917 0 00-.934-1.628c-2.684-3.759-7.885-4.602-11.643-1.917-3.759 2.685-4.603 7.887-1.919 11.646.194.193.272.426.467.619l-81.149 94.15c-2.797-1.78-6.405-1.734-9.35.29-3.449 2.452-4.411 6.916-2.658 10.599l-134.456 95.729-4.89-1.077 104.052 80.668c-1.547 2.72-1.424 6.173.521 8.886 2.684 3.759 7.885 4.602 11.643 1.917 0 0 .117-.039.078-.155l80.233 61.35c-1.78 2.797-1.734 6.406.289 9.352 2.684 3.759 7.885 4.602 11.643 1.917 2.092-1.479 3.291-3.693 3.442-5.944l89.07-6.851c.312.931.624 1.862 1.286 2.676 2.684 3.758 7.884 4.602 11.643 1.917 3.758-2.685 4.602-7.887 1.918-11.646a8.057 8.057 0 00-3.109-2.71L-51.867 292.6c2.407.616 5.006.262 7.098-1.217 3.642-2.646 4.564-7.615 2.152-11.335l76.33-56.42c2.837 2.672 7.261 3.129 10.594.716 3.758-2.685 4.602-7.887 1.918-11.646l-.039-.116 93.733-129.178c2.68 1.43 6.132 1.308 8.729-.599 2.286-1.673 3.406-4.12 3.44-6.72L275.71 59.58c.196.97.664 1.978 1.325 2.791 2.684 3.76 7.884 4.603 11.643 1.918 3.758-2.685 4.602-7.887 1.918-11.646a5.886 5.886 0 00-.622-.697l120.501-152.398c2.718 1.547 6.171 1.424 8.884-.522 1.976-1.44 3.213-3.538 3.481-5.828l133.185-6.122c.274 1.202.664 2.366 1.404 3.412 2.684 3.759 7.884 4.602 11.643 1.917 3.642-2.646 4.564-7.615 2.152-11.336l107.184-114.535c2.719 1.547 6.211 1.54 8.923-.405 3.759-2.685 4.603-7.887 1.919-11.646a8.268 8.268 0 00-8.504-3.359l-53.662-106.768c4.302-2.608 5.146-7.81 2.462-11.569zm46.569 131.54c.233.31.467.62.816.891l-96.807 103.416-10.106 10.769c-.35-.271-.739-.658-1.205-.89l35.414-152.579 70.788 30.867c-.733 2.446-.456 5.201 1.1 7.526zM314.62-343.074c2.018.229 4.073-.202 5.972-1.487a8.98 8.98 0 003.173-4.43l158.849 24.096c.001.388.041.893.042 1.281l-190.201 58.779 22.165-78.239zm249.73 220.627l-69.5-194.905c.349-.117.659-.35.969-.584.93-.7 1.704-1.478 2.285-2.449l103.987 45.354-35.374 152.695c-.932-.075-1.63-.229-2.367-.111zm-70.614-210.192l4.922-23.527 114.295-3.795-114.476 31.814a3.773 3.773 0 00-.856-1.395c-.895-1.512-2.255-2.479-3.885-3.097zm-2.368-.5a7.773 7.773 0 00-5.313 1.524 8.991 8.991 0 00-3.173 4.43l-153.804-23.33 167.175-5.491-4.885 22.867zm-18.208 15.17l-185.186 84.925c-.039-.116-.078-.233-.233-.31-.934-1.24-2.022-2.169-3.381-2.749l7.286-25.743 181.514-56.123zm-191.129 81.095c-2.018-.229-4.074.202-5.973 1.486-.62.467-1.201 1.05-1.781 1.634l-21.129-12.066c.579-1.36.732-2.835.496-4.309l35.287-10.935-6.9 24.19zm-31.903-5.215c.62-.467 1.201-1.05 1.782-1.633l21.284 12.143c-.965 2.524-.727 5.551.946 7.837.506.736 1.244 1.395 1.943 1.936L226.02-123.72s-.117.039-.156-.078l19.184-116.845c1.863.151 3.647-.318 5.08-1.446zm-25.126 134.631l55.735 157.716a3.778 3.778 0 00-1.395.856c-1.046.74-1.782 1.634-2.362 2.605L169.479 17.957l51.837-125.602c1.164.386 2.445.344 3.686.187zm58.294 156.857l-.116.039-55.774-157.833c.349-.117.659-.35.969-.584 1.782-1.245 2.943-3.188 3.404-5.284l49.628 2.114 1.889 161.548zm-51.637-165.951a10.21 10.21 0 00-1.482-4.033c-.506-.737-1.244-1.395-1.944-1.937l50.064-98.085c.466.232 1.009.309 1.553.385l1.32 105.823-49.511-2.153zm50.635-103.713c1.241-.158 2.482-.704 3.528-1.443.233-.078.31-.234.504-.428l99.646 89.912 22.075 19.903a11.18 11.18 0 00-1.275 3.146l-123.041-5.307-1.437-105.783zm127.767 105.844c-.194.195-.31.234-.504.428l-21.53-19.438-100.075-90.416.232-.466 145.915 58.465-17.523 50.018c-2.212-.423-4.539-.03-6.515 1.409zm-120.95-112.145c.308-1.397.344-2.833-.124-4.229l194.955-89.368c.039.116.078.233.234.31.778 1.163 1.827 1.976 2.914 2.517l-52.103 149.119-145.876-58.349zm200.192-89.96c1.087.153 2.135.19 3.221-.045l69.382 194.555a7.725 7.725 0 00-2.093 1.091c-.853.545-1.511 1.284-2.053 1.983l-120.637-48.309 52.18-149.275zm9.611-6.073c.309-1.009.307-2.173.227-3.182l116.26-32.284c.078.233.273.427.351.66 1.166 1.549 2.721 2.711 4.429 3.173l-17.823 76.911-103.444-45.278zm115.931-42.527c-.231.854-.462 1.708-.422 2.601l-115.071 3.797 12.422-59.437a7.779 7.779 0 005.313-1.524 10.864 10.864 0 001.665-1.595l96.093 56.158zm-109.907-57.217c.078.233.311.543.506.736a7.421 7.421 0 003.963 2.942l-12.616 60.019-172.8 5.696-.078-.232 181.025-69.161zm-193.036 78.498c.117-.039.156.077.272.038l-22.511 79.908-36.838 11.327c-.156-.465-.429-.892-.662-1.202-.312-.542-.7-.93-1.089-1.317l60.828-88.754zm-95.559 232.562c.039.116.194.193.272.426.7.93 1.633 1.782 2.488 2.401L167.15 17.186 33.949-26.907c.23-1.243.19-2.523-.2-3.687l182.594-80.689zm-362.725 634.541c-.891.817-1.588 1.827-2.09 3.031l-74.928-24.688 30.01-53.302c1.902.656 3.998.73 5.975.066l41.033 74.893zm105.176-319.662l-8.828 72.857a7.771 7.771 0 00-4.149 1.522 4.523 4.523 0 00-1.084 1.011l-148.437-100.333c.155-.31.27-.737.425-1.048l162.073 25.991zm-165.324-21.794c.542-.311.93-.7 1.278-1.205l148.436 100.332c-.309.622-.618 1.243-.772 1.942l-144.219-1.307-7.747-98.359a7.675 7.675 0 003.024-1.403zm148.752 103.592a8.974 8.974 0 001.405 4.188L-185.89 433.616c-1.165-.774-2.641-1.315-4.076-1.35l-11.797-148.257 143.986 1.385zm-134.477 146.992c-.621.079-1.28.43-1.978.664L-297.59 287.691a7.43 7.43 0 002.435-4.701l91.025.907 11.875 148.489zm-111.383-142.277c1.435.036 2.754-.277 4.111-.862l103.357 145.359c-.891.817-1.587 1.827-1.973 2.992l-127.936-29.163 22.441-118.326zm104.84 149.78c-.039.272-.077.543.001.776l-131.76 21.953a9.312 9.312 0 00-1.168-2.326c-.973-1.357-2.177-2.247-3.575-2.943l8.838-46.585 127.664 29.125zm-138.986 17c-2.018-.229-3.918.279-5.701 1.524-.31.234-.736.506-1.007.856l-95.388-74.126 110.856 25.316-8.76 46.43zm7.543 8.6l131.914-22.264c.273.815.663 1.59 1.13 2.21.505.737 1.049 1.201 1.632 1.782l-30.28 53.652-104.549-34.293c.115-.427.154-.699.153-1.087zm282.574-188.924l8.906-72.625 70.557 11.27c-.694 2.175-.418 4.542.672 6.635l-76.446 56.459c-1.05-.813-2.408-1.392-3.69-1.739zm88.687-67.039c-.699-.153-1.475-.152-2.212-.034l-35.46-40.91-28.267-32.58c1.588-1.827 2.204-4.234 1.928-6.601l57.196-17.77 6.815 97.895zm-71.947-70.602c1.396-.08 2.831-.432 4.11-1.25L1.49 170.371l34.605 39.903c-.465.156-.892.428-1.395.856-.853.545-1.511 1.284-2.053 1.983l-71.372-11.385 7.799-62.804zm75.558 72.109c-.35-.271-.7-.542-1.126-.658l-6.935-99.408 99.851-31.048c.156.465.428.891.661 1.201.273.427.661.814 1.011 1.085l-35.759 49.277-57.703 79.551zM30.584-21.507c.193-.194.31-.233.503-.428l105.939 93.626c-1.122 1.67-1.584 3.767-1.269 5.862l-99.385 30.892-8.968-128.626c1.203-.274 2.21-.742 3.18-1.326zm108.649 90.904c-.193.194-.31.233-.503.427L46.548-11.72 32.79-23.8c.154-.311.348-.506.503-.817l132.929 44.055-20.047 48.664c-2.407-.616-4.85-.184-6.943 1.295zM24.029-20.213c.271.038.698.154.97.192l9.007 129.13-57.661 17.926c-.156-.465-.428-.892-.856-1.395-.74-1.047-1.672-1.899-2.76-2.44l51.3-143.413zm-62.997 154.069c.195.582.467 1.008.895 1.512 1.206 1.666 2.876 2.788 4.7 3.212l-7.644 62.493-162.073-25.991c.039-.272-.078-.621-.04-.893l164.162-40.333zm-176.912 48.236c1.165.774 2.485 1.237 3.921 1.273l7.785 98.088-90.869-.83c-.157-1.242-.625-2.638-1.481-3.645-.194-.194-.272-.426-.466-.62l81.11-94.266zm-93.505 105.544c.972.969 2.098 1.626 3.302 2.128l-22.363 118.171-113.496-25.854 132.557-94.445zm-22.439 182.396c.271-.349.503-.816.774-1.165l103.967 34.1-15.353 27.155c-2.68-1.43-5.977-1.229-8.729.6-.193.194-.426.272-.62.467l-80.039-61.157zm93.822 65.98c-.235-1.086-.625-2.249-1.325-3.179a4.531 4.531 0 00-1.011-1.085l15.779-27.816 75.626 24.842c-.038.272.001.388-.037.66l-89.032 6.578zm98.561-14.824c-1.63-.23-3.376-.032-4.926.747l-40.955-74.661c3.604-2.762 4.37-7.808 1.725-11.451-.078-.232-.233-.31-.427-.503l67.217-74.719 62.106-69.12c.194.193.35.27.66.425l-85.4 229.282zM152.123 73.873c-.312-.931-.702-1.706-1.246-2.56-.7-.93-1.633-1.781-2.488-2.4l20.124-48.82L275.975 55.74c-.116.427-.192.97-.153 1.475L152.123 73.873zM288.498 50.63a8.034 8.034 0 00-2.68-1.042l-2.121-161.47 122.925 5.346c.197 1.358.626 2.638 1.559 3.878.234.31.506.736.856 1.007L288.498 50.63zm134.609-159.72c-.274-1.202-.664-2.366-1.403-3.412-.739-1.046-1.672-1.898-2.759-2.44l17.406-49.978 120.327 48.155c-.193.582-.308 1.009-.385 1.553l-133.186 6.122zM678.15-247.357c-.853.545-1.511 1.284-2.014 2.1l-71.254-31.099 18.015-77.493a9.584 9.584 0 002.676-.51l53.468 106.573c-.388.001-.698.235-.891.429z" fill="#fff" fill-opacity=".1"/><path d="M244.654-240.708L225.47-123.862l.789.129 19.184-116.845-.789-.13zm373.249-128.421l.453.659.006-.004.006-.004-.465-.651zm-1.937 1.944l-.403.691.606.354.43-.555-.633-.49zm-95.937-56.08l-.737-.311-.273.647.606.354.404-.69zm-.985-7.954l.652-.464-.001-.001-.651.465zm-11.643-1.917l.46.655.005-.004-.465-.651zm-3.321 8.621l.286.748.639-.244-.142-.669-.783.165zm-181.141 69.2l-.758.255.265.79.778-.297-.285-.748zm-.506-.736l-.651.465.039.055.048.047.564-.567zm-13.562 9.728l.694-.398-.019-.034-.024-.033-.651.465zm1.089 1.318l.66.452.377-.549-.472-.47-.565.567zm-60.944 88.793l-.357.716.623.31.393-.574-.659-.452zm-8.574.676l-.449-.661-.008.005-.008.005.465.651zm-1.918 11.646l.667-.441-.008-.012-.008-.012-.651.465zm6.524 3.247l-.209.772.071.019.073.006.065-.797zm-19.184 116.845l.759-.254-.175-.521-.549-.024-.035.799zm-7.175 1.373l-.453-.66-.011.008-.01.007.474.645zm-3.165 9.087l.323.731.644-.284-.2-.675-.767.228zM33.046-32.688l-.758.255.279.832.802-.355-.323-.732zm-.272-.426l.758-.255-.038-.113-.07-.097-.65.465zm-13.562 9.728l.653-.462-.002-.003-.651.465zm2.914 2.517l.754.269.239-.67-.636-.316-.357.717zm-51.183 143.374l-.15.786.673.129.23-.646-.753-.269zm-6.67 1.333l.449.662.01-.008.011-.008-.47-.646zm-3.478 7.768l.19.777.682-.167-.077-.698-.795.088zm-164.162 40.333l-.758.255.234.698.715-.176-.191-.777zm-.934-1.628l-.651.465.019.028.022.025.61-.518zm-13.562 9.729l-.651.465.039.054.047.047.565-.566zm.467.619l.606.523.486-.564-.528-.525-.564.566zm-81.149 94.15l-.43.675.584.371.452-.524-.606-.522zm-9.35.29l-.453-.66-.011.008.464.652zm-2.658 10.599l.464.652.547-.389-.288-.607-.723.344zm-134.456 95.729l-.172.782.347.076.289-.206-.464-.652zm-4.89-1.077l.172-.781-.663 1.414.491-.633zm104.052 80.668l.696.396.343-.603-.549-.425-.49.632zm.521 8.886l.651-.465-.001-.002-.65.467zm11.643 1.917l-.254-.758-.113.038-.098.069.465.651zm.078-.155l.486-.636-2.075-1.586.83 2.476.759-.254zm80.233 61.35l.675.429.394-.619-.583-.446-.486.636zm.289 9.352l-.66.453.005.006.004.006.651-.465zm11.643 1.917l-.461-.653-.004.002.465.651zm3.442-5.944l-.061-.798-.691.053-.046.691.798.054zm89.07-6.851l.759-.254-.199-.591-.621.048.061.797zm1.286 2.676l.651-.466-.015-.02-.016-.019-.62.505zm13.561-9.729l-.665.445.007.01.007.01.651-.465zm-3.109-2.71l-.749-.279-.252.674.645.321.356-.716zM-51.867 292.6l.199-.775-.697-.178-.251.674.75.279zm7.098-1.217l.462.654.008-.006-.47-.648zm2.152-11.335l-.475-.644-.605.448.409.631.671-.435zm76.33-56.42l.548-.583-.486-.458-.537.397.475.644zm10.594.716l-.465-.651-.005.003.47.648zm1.918-11.646l-.758.255.038.113.069.097.651-.465zm-.039-.116l-.647-.47-.242.334.13.39.759-.254zm93.733-129.178l.377-.706-.615-.328-.41.564.648.47zm8.729-.599l-.473-.646-.001.001.474.645zm3.44-6.72l-.106-.793-.685.091-.009.691.8.01zM275.71 59.58l.784-.158-.148-.734-.741.1.105.792zm1.325 2.791l.651-.465-.015-.02-.016-.02-.62.506zm13.561-9.728l.651-.465-.005-.008-.007-.008-.639.481zm-.622-.697l-.627-.496-.443.56.506.503.564-.567zm120.501-152.398l.395-.695-.597-.34-.426.539.628.496zm8.884-.522l.466.65.005-.003-.471-.647zm3.481-5.828l-.037-.799-.679.031-.079.676.795.092zm133.185-6.122l.78-.178-.148-.652-.668.031.036.799zm1.404 3.412l-.654.462.003.003.651-.465zm11.643 1.917l.465.651.005-.003-.47-.648zm2.152-11.336l-.584-.546-.428.457.341.525.671-.436zm107.184-114.535l.396-.695-.549-.312-.431.461.584.546zm8.923-.405l-.465-.651-.001.001.466.65zm1.919-11.646l-.655.459.004.006.651-.465zm-8.504-3.359l-.715.359.278.551.603-.128-.166-.782zm-53.662-106.768l-.414-.684-.632.383.331.661.715-.36zm49.031 119.971l-.665.445.012.018.014.018.639-.481zm.816.891l.584.547.6-.642-.694-.538-.49.633zm-96.807 103.416l.584.547-.584-.547zm-10.106 10.769l-.49.633.575.445.498-.53-.583-.548zm-1.205-.89l-.779-.181-.143.616.566.281.356-.716zm35.414-152.579l.32-.734-.882-.384-.217.937.779.181zm70.788 30.867l.766.229.203-.679-.65-.284-.319.734zM314.62-343.074l.09-.795-.675-.077-.185.654.77.218zm5.972-1.487l.448.663.017-.011.016-.013-.481-.639zm3.173-4.43l.12-.791-.667-.101-.212.641.759.251zm158.849 24.096l.8-.001-.001-.687-.679-.103-.12.791zm.042 1.281l.236.764.565-.174-.001-.592-.8.002zm-190.201 58.779l-.77-.218-.401 1.417 1.407-.435-.236-.764zM564.35-122.447l-.754.269.224.626.656-.105-.126-.79zm-69.5-194.905l-.254-.758-.773.259.274.768.753-.269zm.969-.584l.481.639-.481-.639zm2.285-2.449l.319-.733-.645-.282-.361.605.687.41zm103.987 45.354l.779.18.151-.648-.61-.266-.32.734zm-35.374 152.695l-.065.798.688.056.156-.673-.779-.181zm-72.981-210.303l-.783-.164-.141.67.64.242.284-.748zm4.922-23.527l-.026-.799-.628.021-.129.615.783.163zm114.295-3.795l.214.771-.24-1.571.026.8zm-114.476 31.814l-.758.255.241.719.731-.203-.214-.771zm-.856-1.395l-.688.407.052.088.071.071.565-.566zm-6.253-3.597l-.065.797.7.057.147-.687-.782-.167zm-8.486 5.954l-.12.791.667.101.212-.64-.759-.252zm-153.804-23.33l-.026-.799-.094 1.59.12-.791zm167.175-5.491l.782.167.214-1-1.022.034.026.799zm-23.093 38.037l.334.728-.57-1.492.236.764zm-185.186 84.925l-.759.254.283.844.809-.371-.333-.727zm-.233-.31l-.64.481.114.151.169.084.357-.716zm-3.381-2.749l-.77-.217-.192.677.648.276.314-.736zm7.286-25.743l-.237-.764-.415.128-.118.419.77.217zm-9.615 24.972l-.091.795.674.076.186-.652-.769-.219zm-5.973 1.486l-.448-.662-.017.011-.016.012.481.639zm-1.781 1.634l-.397.694.531.304.432-.434-.566-.564zm-21.129-12.066l-.736-.314-.28.655.619.353.397-.694zm.496-4.309l-.237-.764-.662.205.109.686.79-.127zm35.287-10.935l.769.219.406-1.421-1.412.438.237.764zm-38.803 18.975l-.481-.639-.007.005-.006.005.494.629zm1.782-1.633l.396-.695-.531-.303-.432.433.567.565zm21.284 12.143l.747.286.245-.641-.595-.34-.397.695zm.946 7.837l.659-.453-.007-.01-.007-.01-.645.473zm1.943 1.936l.713.364.301-.59-.524-.406-.49.632zM226.02-123.72l.254.758.31-.104.148-.291-.712-.363zm-1.018 16.262l.754-.267-.215-.608-.64.081.101.794zm55.735 157.716l.254.758.771-.259-.271-.766-.754.267zm-1.395.856l.461.653.057-.04.049-.048-.567-.565zm-2.362 2.605l-.253.759.61.203.33-.552-.687-.41zM169.479 17.957l-.739-.305-.328.793.815.271.252-.759zm51.837-125.602l.251-.76-.706-.234-.285.689.74.305zm61.98 157.044l.254.758.553-.185-.007-.583-.8.01zm-.116.039l-.754.267.262.742.746-.25-.254-.76zm-55.774-157.833l-.254-.758-.771.259.271.766.754-.267zm.969-.584l-.458-.655-.012.008-.011.008.481.639zm3.404-5.284l.035-.799-.671-.029-.145.656.781.172zm49.628 2.114l.8-.009-.009-.758-.757-.032-.034.799zm-49.748-4.403l-.792.114.095.656.662.029.035-.799zm-1.482-4.033l.674-.431-.007-.011-.008-.011-.659.453zm-1.944-1.937l-.712-.363-.301.59.523.406.49-.633zm50.064-98.085l.357-.716-.709-.353-.36.705.712.364zm1.553.385l.8-.01-.009-.686-.68-.096-.111.792zm1.32 105.823l-.035.799.846.037-.011-.846-.8.01zm1.124-105.866l-.101-.794-.709.09.01.714.8-.01zm3.528-1.443l-.254-.759-.112.038-.095.067.461.654zm.504-.428l.536-.594-.566-.51-.537.539.567.565zm99.646 89.912l-.535.594.535-.594zm22.075 19.903l.687.41.337-.564-.488-.44-.536.594zm-1.275 3.146l-.034.799.659.029.153-.642-.778-.186zm-123.041-5.307l-.8.011.01.756.755.032.035-.799zm126.33.061l-.471-.646-.051.037-.045.045.567.564zm-.504.428l-.536.594.565.511.538-.54-.567-.565zm-21.53-19.438l-.537.594.537-.594zm-100.075-90.416l-.716-.356-.27.543.45.407.536-.594zm.232-.466l.298-.743-.685-.274-.329.661.716.356zm145.915 58.465l.755.265.253-.723-.711-.284-.297.742zm-17.523 50.018l-.15.785.677.13.228-.651-.755-.264zM289.111-226.566l-.781-.172-.146.663.63.252.297-.743zm-.124-4.229l-.333-.728-.654.3.228.682.759-.254zm194.955-89.368l.759-.254-.283-.844-.809.371.333.727zm.234.31l.664-.445-.118-.177-.19-.094-.356.716zm2.914 2.517l.755.264.233-.666-.631-.315-.357.717zm-52.103 149.119l-.297.743.776.311.276-.79-.755-.264zm54.316-148.309l.112-.792-.65-.092-.217.62.755.264zm3.221-.045l.753-.269-.236-.661-.686.148.169.782zm69.382 194.555l.255.759.773-.259-.274-.768-.754.268zm-2.093 1.091l.431.674.026-.016.024-.019-.481-.639zm-2.053 1.983l-.297.743.56.224.37-.477-.633-.49zm-120.637-48.309l-.756-.264-.252.723.71.284.298-.743zm61.791-155.348l-.765-.233-.208.681.652.285.321-.733zm.227-3.182l-.214-.771-.635.176.052.658.797-.063zm116.26-32.284l.759-.254-.242-.719-.731.203.214.77zm.351.66l-.759.254.041.123.079.104.639-.481zm4.429 3.173l.779.18.174-.751-.744-.201-.209.772zm-17.823 76.911l-.32.733.882.386.218-.939-.78-.18zm12.487-87.805l.772.209.16-.591-.528-.309-.404.691zm-.422 2.601l.026.799.81-.026-.037-.81-.799.037zm-115.071 3.797l-.783-.164-.208.997 1.017-.034-.026-.799zm12.422-59.437l.065-.798-.703-.057-.145.691.783.164zm6.978-3.119l.404-.691-.578-.337-.434.509.608.519zm-13.814-1.059l.758-.255-.265-.79-.778.298.285.747zm.506.736l.659-.453-.042-.061-.053-.053-.564.567zm3.963 2.942l.782.164.15-.71-.692-.217-.24.763zm-12.616 60.019l.027.8.627-.021.129-.614-.783-.165zm-172.8 5.696l-.758.255.189.565.595-.02-.026-.8zm-.078-.232l-.285-.748-.718.274.244.728.759-.254zm-12.011 9.337l-.254-.758-.254.085-.151.221.659.452zm.272.038l.77.217.41-1.457-1.434.482.254.758zm-22.511 79.908l.235.765.417-.128.118-.42-.77-.217zm-36.838 11.327l-.759.254.248.74.746-.229-.235-.765zm-.662-1.202l-.694.399.025.043.03.04.639-.482zm-1.089-1.317l-.66-.452-.376.549.471.47.565-.567zm-34.731 143.808l.758-.255-.279-.832-.802.355.323.732zm.272.426l-.758.255.041.123.078.103.639-.481zm2.488 2.401l.739.306.241-.584-.511-.37-.469.648zM167.15 17.186l-.252.76.707.233.284-.688-.739-.305zM33.949-26.907l-.786-.146-.128.686.663.219.251-.76zm-.2-3.687l-.324-.732-.667.295.232.692.758-.255zm-180.131 553.852l.54.59.463-.424-.302-.55-.701.384zm-2.09 3.031l-.25.76.703.232.285-.684-.738-.308zm-74.928-24.688l-.697-.392-.477.847.924.305.25-.76zm30.01-53.302l.261-.756-.631-.217-.327.581.697.392zm5.975.066l.702-.384-.322-.587-.634.213.254.758zm146.209-244.769l.794.096.093-.764-.76-.122-.127.79zm-8.828 72.857l.046.799.667-.039.081-.664-.794-.096zm-4.149 1.522l.43.674.027-.017.024-.018-.48-.639zm-1.084 1.011l-.448.663.62.42.46-.593-.632-.49zm-148.437-100.333l-.716-.356-.312.627.58.392.448-.663zm.425-1.048l.127-.79-.581-.093-.262.526.716.357zm-3.251 4.197l-.398-.694-.044.025-.039.03.481.639zm1.278-1.205l.448-.663-.657-.444-.45.653.659.454zm148.436 100.332l.716.357.312-.627-.58-.393-.448.663zm-.772 1.942l-.008.8.65.006.14-.634-.782-.172zm-144.219-1.307l-.797.063.057.731.733.006.007-.8zm-7.747-98.359l-.169-.782-.683.148.054.697.798-.063zm151.776 102.189l.798-.063-.058-.73-.732-.007-.008.8zm1.405 4.188l.595.535.407-.453-.328-.513-.674.431zM-185.89 433.616l-.443.666.576.382.462-.513-.595-.535zm-4.076-1.35l-.798.063.057.718.72.018.021-.799zm-11.797-148.257l.007-.8-.874-.008.069.872.798-.064zm9.508 148.377l.1.794.758-.096-.061-.762-.797.064zm-1.978.664l-.652.464.344.483.563-.189-.255-.758zM-297.59 287.691l-.533-.597-.534.477.415.583.652-.463zm2.435-4.701l.009-.8-.725-.007-.079.721.795.086zm91.025.907l.797-.063-.058-.729-.731-.008-.008.8zm-99.508 6.212l.02-.8-.68-.017-.126.668.786.149zm4.111-.862l.652-.464-.375-.527-.594.256.317.735zm103.357 145.359l.541.59.521-.478-.41-.576-.652.464zm-1.973 2.992l-.178.78.709.162.228-.69-.759-.252zm-127.936-29.163l-.786-.149-.143.758.751.171.178-.78zm127.281 31.454l.792.112.102-.729-.716-.163-.178.78zm.001.776l.131.789.926-.154-.299-.889-.758.254zm-131.76 21.953l-.758.254.217.647.672-.112-.131-.789zm-1.168-2.326l.659-.453-.004-.007-.005-.007-.65.467zm-3.575-2.943l-.786-.149-.113.596.542.27.357-.717zm8.838-46.585l.178-.78-.81-.184-.154.815.786.149zm-11.322 46.125l-.09.795.738.083.138-.73-.786-.148zm-5.701 1.524l-.458-.655-.012.008-.011.008.481.639zm-1.007.856l-.491.632.633.491.49-.633-.632-.49zm-95.388-74.126l.178-.78-.669 1.412.491-.632zm110.856 25.316l.786.148.143-.757-.75-.171-.179.78zm-1.217 55.03l-.133-.789-.668.113.001.678.8-.002zm131.914-22.264l.759-.254-.218-.648-.674.114.133.788zm1.13 2.21l.659-.453-.01-.014-.01-.014-.639.481zm1.632 1.782l.697.393.299-.53-.431-.43-.565.567zm-30.28 53.652l-.25.76.624.204.322-.571-.696-.393zm-104.549-34.293l-.773-.209-.198.732.721.237.25-.76zm282.727-190.011l-.794-.097-.085.688.67.181.209-.772zm8.906-72.625l.126-.79-.82-.13-.1.823.794.097zm70.557 11.27l.762.244.284-.887-.92-.147-.126.79zm.672 6.635l.475.644.55-.407-.315-.607-.71.37zm-76.446 56.459l-.49.632.478.371.487-.359-.475-.644zm84.998-68.778l-.172.782 1.044.23-.074-1.067-.798.055zm-2.212-.034l-.604.524.291.336.44-.07-.127-.79zm-35.46-40.91l.605-.524-.605.524zm-28.267-32.58l-.604-.525-.455.524.455.525.604-.524zm1.928-6.601l-.237-.764-.635.197.077.66.795-.093zm57.196-17.77l.798-.056-.07-1.008-.965.3.237.764zm-65.132 27.293l-.046-.799-.666.039-.082.662.794.098zm4.11-1.25l.605-.524-.453-.522-.583.372.431.674zM1.49 170.371l-.605.524.605-.524zm34.605 39.903l.254.758 1.133-.38-.783-.903-.604.525zm-1.395.856l.43.674.046-.029.042-.035-.518-.61zm-2.053 1.983l-.126.79.468.075.29-.375-.632-.49zm-71.372-11.385l-.794-.098-.095.767.763.121.126-.79zm83.357 9.305l-.49.632.653.506.485-.668-.648-.47zm-1.126-.658l-.798.056.04.568.549.149.209-.773zm-6.935-99.408l-.237-.764-.605.188.044.632.798-.056zm99.851-31.048l.758-.255-.249-.742-.747.233.238.764zm.661 1.201l.674-.43-.016-.026-.019-.025-.639.481zm1.011 1.085l.647.47.456-.628-.613-.474-.49.632zm-35.759 49.277l-.648-.47.648.47zM30.584-21.507l.412.685.085-.05.07-.07-.567-.565zm.503-.428l.53-.6-.565-.498-.532.534.567.564zm105.939 93.626l.664.445.391-.581-.525-.464-.53.6zm-1.269 5.862l.237.764.656-.204-.102-.679-.791.119zm-99.385 30.892l-.798.055.07 1.009.965-.3-.237-.764zM27.404-20.181l-.177-.78-.668.152.047.684.798-.056zm111.829 89.578l-.461-.654-.057.04-.048.049.566.565zm-.503.427l-.53.6.564.5.532-.535-.566-.565zM46.548-11.72l.53-.6-.002-.002-.528.602zM32.79-23.8l-.716-.357-.275.551.463.407.528-.602zm.503-.817l.251-.76-.658-.217-.31.621.717.356zm132.929 44.055l.74.305.327-.794-.815-.27-.252.76zm-20.047 48.664l-.198.775.673.173.265-.643-.74-.305zM24.029-20.213l.111-.793-.645-.09-.22.613.754.27zm.97.192l.798-.056-.045-.646-.641-.09-.112.792zm9.007 129.13l.237.764.605-.188-.044-.632-.798.056zm-57.661 17.926l-.758.255.248.741.747-.232-.237-.764zm-.856-1.395l-.654.461.021.029.023.028.61-.518zm-2.76-2.44l-.753-.269-.239.669.636.317.357-.717zm-11.697 10.656l.758-.254-.234-.698-.715.175.19.777zm.895 1.512l.648-.469-.018-.025-.02-.024-.61.518zm4.7 3.212l.795.097.087-.714-.7-.163-.181.78zm-7.644 62.493l-.127.79.82.132.101-.825-.794-.097zm-162.073-25.991l-.792-.112-.109.778.775.124.126-.79zm-.04-.893l-.191-.776-.526.129-.075.536.792.111zm-12.75 7.903l.442-.666-.588-.391-.461.536.607.521zm3.921 1.273l.797-.063-.057-.719-.72-.018-.02.8zm7.785 98.088l-.007.8.874.008-.069-.872-.798.064zm-90.869-.83l-.793.101.088.693.698.006.007-.8zm-1.481-3.645l.61-.518-.021-.025-.024-.024-.565.567zm-.466-.62l-.607-.522-.485.564.527.525.565-.567zm-12.395 11.278l.564-.566-.478-.477-.55.392.464.651zm3.302 2.128l.786.149.12-.637-.598-.25-.308.738zm-22.363 118.171l-.178.78.809.185.155-.816-.786-.149zm-113.496-25.854l-.465-.651-1.453 1.035 1.74.396.178-.78zm110.118 87.951l-.632-.49-.493.637.64.489.485-.636zm.774-1.165l.25-.761-.537-.176-.345.447.632.49zm103.967 34.1l.696.393.481-.85-.928-.304-.249.761zm-15.353 27.155l-.377.706.689.368.384-.68-.696-.394zm-8.729.6l-.443-.666-.067.044-.056.057.566.565zm-.62.467l-.485.636.557.425.495-.497-.567-.564zm13.783 4.823l-.782.17.147.679.694-.051-.059-.798zm-1.325-3.179l-.674.431.016.026.019.024.639-.481zm-1.011-1.085l-.696-.394-.342.602.548.425.49-.633zm15.779-27.816l.25-.76-.623-.205-.323.57.696.395zm75.626 24.842l.792.111.094-.662-.636-.209-.25.76zm-.037.66l.058.798.644-.048.09-.639-.792-.111zm9.529-8.246l-.112.792.637.09.225-.603-.75-.279zm-4.926.747l-.702.385.372.676.689-.346-.359-.715zm-40.955-74.661l-.486-.634-.545.417.33.602.701-.385zm1.725-11.451l-.758.255.039.116.072.099.647-.47zm-.427-.503l-.595-.536-.509.566.539.536.565-.566zm67.217-74.719l.594.535h.001l-.595-.535zm62.106-69.12l.565-.567-.597-.595-.563.627.595.535zm.66.425l.75.279.251-.674-.644-.321-.357.716zM152.123 73.873l-.758.254.21.627.655-.088-.107-.793zm-1.246-2.56l.674-.43-.017-.026-.018-.024-.639.48zm-2.488-2.4l-.739-.305-.241.583.511.37.469-.648zm20.124-48.82l.252-.759-.707-.235-.284.69.739.304zM275.975 55.74l.772.209.198-.73-.718-.239-.252.76zm-.153 1.475l.107.793.75-.101-.059-.755-.798.063zm12.676-6.584l-.42.681.605.374.442-.558-.627-.497zm-2.68-1.042l-.799.01.008.649.636.126.155-.785zm-2.121-161.47l.035-.799-.846-.037.011.847.8-.011zm122.925 5.346l.792-.115-.095-.656-.662-.028-.035.799zm2.415 4.885l.627.496.502-.634-.639-.495-.49.633zm14.07-7.44l-.78.178.149.652.668-.031-.037-.799zm-4.162-5.852l-.756-.263-.231.666.63.314.357-.717zm17.406-49.978l.297-.743-.777-.311-.276.791.756.263zm120.327 48.155l.759.251.237-.715-.699-.279-.297.743zm-.385 1.553l.036.799.663-.031.093-.657-.792-.111zM678.15-247.357l.43.674.074-.047.062-.062-.566-.565zm-2.014 2.1l-.32.733.636.278.365-.592-.681-.419zm-71.254-31.099l-.779-.181-.151.648.61.266.32-.733zm18.015-77.493l-.036-.8-.606.028-.137.591.779.181zm2.676-.51l.715-.359-.311-.621-.658.221.254.759zm53.468 106.573l.002.801 1.293-.003-.58-1.156-.715.358zm-48.844-119.891c-2.943-4.122-8.644-5.043-12.759-2.103l.93 1.302c3.402-2.431 8.102-1.665 10.527 1.731l1.302-.93zm-12.747-2.112c-.839.577-1.558 1.393-2.116 2.114l1.265.98c.525-.679 1.123-1.34 1.757-1.775l-.906-1.319zm-1.08 1.913l-95.937-56.08-.808 1.381 95.938 56.081.807-1.382zm-95.604-55.078c1.195-2.833.794-6.112-1.07-8.729l-1.303.929c1.559 2.188 1.867 4.883.899 7.178l1.474.622zm-1.071-8.73c-2.943-4.122-8.644-5.043-12.759-2.103l.93 1.302c3.402-2.431 8.102-1.665 10.527 1.731l1.302-.93zm-12.753-2.107c-3.113 2.184-4.37 6.014-3.644 9.442l1.565-.331c-.605-2.856.453-6.016 2.998-7.801l-.919-1.31zm-3.147 8.529l-181.141 69.2.57 1.495 181.142-69.2-.571-1.495zm-180.098 69.693c-.135-.405-.469-.819-.699-1.049l-1.129 1.134a2.067 2.067 0 01.286.371c.02.037.026.054.026.053l1.516-.509zm-.613-.947c-2.943-4.122-8.644-5.043-12.759-2.103l.93 1.302c3.402-2.431 8.102-1.665 10.527 1.731l1.302-.93zm-12.759-2.103c-4.121 2.944-5.043 8.646-2.105 12.761l1.302-.93c-2.429-3.402-1.663-8.103 1.733-10.529l-.93-1.302zm-2.147 12.695c.371.648.835 1.104 1.218 1.486l1.129-1.134c-.394-.393-.709-.711-.96-1.149l-1.387.797zm1.123.466l-60.945 88.793 1.319.905 60.945-88.793-1.319-.905zm-59.929 88.529c-2.906-1.446-6.511-1.217-9.379.732l.899 1.323c2.402-1.632 5.392-1.804 7.767-.622l.713-1.433zm-9.395.742c-4.121 2.945-5.043 8.647-2.104 12.762l1.302-.93c-2.43-3.403-1.663-8.104 1.732-10.53l-.93-1.302zm-2.12 12.738c.349.529.885.973 1.453 1.343.578.375 1.245.708 1.912.996 1.336.577 2.745 1.003 3.617 1.239l.418-1.544c-.835-.227-2.163-.629-3.4-1.164a11.46 11.46 0 01-1.675-.869c-.486-.316-.815-.618-.991-.883l-1.334.882zm-11.958 118.852c-.922-.04-2.403.056-3.838.288a17.07 17.07 0 00-2.099.465c-.639.192-1.257.437-1.726.759l.906 1.319c.267-.184.701-.372 1.278-.545a15.308 15.308 0 011.896-.418c1.358-.22 2.728-.304 3.513-.269l.07-1.599zm-7.684 1.527c-3.169 2.334-4.533 6.329-3.458 9.959l1.534-.455c-.877-2.963.229-6.268 2.872-8.215l-.948-1.289zm-3.014 9L32.723-33.42l.646 1.464 182.478-80.651-.646-1.463zM33.804-32.942a1.077 1.077 0 00-.236-.394l-.034-.04c-.023-.027-.01-.014-.002.007l-1.517.51c.085.253.216.42.3.52l.043.05c.01.012.012.014.01.01a.495.495 0 01-.08-.154l1.516-.51zm-.38-.637c-2.942-4.122-8.644-5.043-12.759-2.104l.93 1.302c3.402-2.43 8.103-1.664 10.528 1.732l1.302-.93zm-12.759-2.104c-4.121 2.945-5.042 8.647-2.104 12.762l1.302-.93c-2.43-3.403-1.663-8.104 1.732-10.53l-.93-1.302zm-2.107 12.759c.815 1.152 2.004 2.17 3.212 2.771l.713-1.433c-.967-.48-1.954-1.322-2.618-2.262l-1.306.924zm2.815 1.786L-29.81 122.236l1.507.538L22.88-20.6l-1.507-.538zm-50.28 142.857c-2.378-.454-5.099-.125-7.291 1.472l.941 1.293c1.76-1.281 4.005-1.584 6.05-1.193l.3-1.572zm-7.27 1.457c-2.91 1.977-4.167 5.389-3.823 8.518l1.59-.176c-.287-2.613.771-5.415 3.132-7.018l-.899-1.324zm-3.219 7.653l-164.162 40.333.382 1.554 164.162-40.333-.382-1.554zm-163.213 40.856a5.708 5.708 0 00-1.082-1.892l-1.22 1.036c.367.432.625.887.786 1.365l1.516-.509zm-1.041-1.839c-2.943-4.122-8.644-5.043-12.759-2.103l.929 1.302c3.403-2.431 8.103-1.665 10.528 1.731l1.302-.93zm-12.759-2.103c-4.122 2.944-5.043 8.646-2.105 12.762l1.302-.93c-2.43-3.403-1.663-8.104 1.732-10.53l-.929-1.302zm-2.019 12.863c.026.026.051.06.124.174.063.099.175.279.343.446l1.129-1.133a1.147 1.147 0 01-.123-.174c-.063-.099-.175-.278-.343-.446l-1.13 1.133zm.426-.469l-81.149 94.15 1.212 1.044 81.149-94.149-1.212-1.045zm-80.114 93.997c-3.076-1.958-7.031-1.894-10.232.306l.906 1.318c2.689-1.848 5.95-1.876 8.467-.274l.859-1.35zm-10.243.313c-3.786 2.691-4.825 7.585-2.916 11.595l1.445-.688c-1.598-3.356-.713-7.391 2.398-9.603l-.927-1.304zm-2.658 10.6l-134.456 95.729.928 1.303 134.456-95.729-.928-1.303zm-133.82 95.599l-4.89-1.077-.345 1.563 4.891 1.077.344-1.563zm-5.553.337l104.053 80.667.98-1.264-104.052-80.668-.981 1.265zm103.848 79.64c-1.701 2.99-1.561 6.78.566 9.747l1.3-.933c-1.763-2.458-1.868-5.575-.475-8.023l-1.391-.791zm.565 9.746c2.943 4.122 8.644 5.043 12.759 2.103l-.93-1.302c-3.402 2.431-8.102 1.665-10.527-1.731l-1.302.93zm12.294 1.452c.255.759.255.758.256.758h.001l.001-.001.003-.001.007-.002a.07.07 0 00.013-.005l.032-.012a.95.95 0 00.308-.207.908.908 0 00.215-.94l-1.517.509a.69.69 0 01.323-.813c.02-.011.039-.019.055-.026l.025-.01.012-.004a.014.014 0 01.006-.002l.003-.001.001-.001h.001l.255.758zm-.408.48l80.233 61.35.972-1.271-80.233-61.35-.972 1.271zm80.044 60.285c-1.957 3.077-1.894 7.034.304 10.235l1.319-.907c-1.847-2.689-1.875-5.951-.273-8.469l-1.35-.859zm.313 10.247c2.943 4.121 8.644 5.043 12.759 2.103l-.93-1.302c-3.402 2.43-8.102 1.665-10.527-1.731l-1.302.93zm12.756 2.105c2.283-1.614 3.611-4.045 3.778-6.544l-1.596-.107c-.134 2.004-1.204 4.001-3.105 5.345l.923 1.306zm3.041-5.8l89.07-6.85-.122-1.595-89.07 6.85.122 1.595zm88.251-7.393c.306.913.656 1.982 1.423 2.925l1.241-1.009c-.556-.684-.829-1.476-1.147-2.425l-1.517.509zm1.392 2.886c2.944 4.121 8.645 5.042 12.76 2.103l-.93-1.302c-3.402 2.43-8.102 1.665-10.527-1.732l-1.303.931zm12.76 2.103c4.121-2.944 5.043-8.647 2.104-12.762l-1.302.93c2.43 3.403 1.664 8.104-1.732 10.53l.93 1.302zm2.118-12.742a8.858 8.858 0 00-3.417-2.981l-.713 1.432a7.26 7.26 0 012.8 2.439l1.33-.89zm-3.024-1.986l85.323-229.127-1.5-.558-85.322 229.127 1.499.558zm84.375-228.631c2.608.668 5.454.29 7.758-1.338l-.923-1.307c-1.88 1.329-4.234 1.66-6.438 1.095l-.397 1.55zm7.766-1.344c3.984-2.894 5-8.338 2.353-12.419l-1.342.871c2.179 3.36 1.35 7.855-1.95 10.253l.94 1.295zm2.157-11.34l76.33-56.42-.95-1.287-76.33 56.42.95 1.287zm75.307-56.481c3.102 2.922 7.952 3.431 11.61.782l-.938-1.296c-3.006 2.176-7.004 1.771-9.576-.651l-1.096 1.165zm11.606.785c4.122-2.944 5.043-8.647 2.105-12.762l-1.302.93c2.43 3.403 1.663 8.104-1.732 10.53l.93 1.302zm2.212-12.551l-.039-.117-1.516.509.039.117 1.516-.509zm-.15.608l93.733-129.178-1.295-.94-93.732 129.178 1.294.94zM139.542 84.11c2.937 1.568 6.722 1.438 9.579-.66l-.947-1.29c-2.335 1.716-5.456 1.832-7.878.538l-.754 1.412zm9.578-.66c2.502-1.831 3.731-4.52 3.768-7.355l-1.6-.02c-.031 2.365-1.043 4.57-3.113 6.084l.945 1.292zm3.074-6.572l123.622-16.504-.211-1.586-123.623 16.504.212 1.586zM274.926 59.74a7.425 7.425 0 001.488 3.137l1.241-1.01a5.834 5.834 0 01-1.161-2.444l-1.568.317zm1.458 3.098c2.943 4.121 8.644 5.042 12.759 2.103l-.93-1.302c-3.402 2.43-8.102 1.665-10.527-1.732l-1.302.93zm12.759 2.103c4.121-2.944 5.043-8.647 2.104-12.762l-1.302.93c2.43 3.403 1.664 8.104-1.732 10.53l.93 1.302zm2.092-12.778c-.269-.358-.498-.585-.696-.783l-1.129 1.134c.19.19.35.35.547.611l1.278-.962zm-.633.28l120.5-152.398-1.255-.992-120.5 152.398 1.255.992zM410.079-99.756c2.99 1.702 6.779 1.561 9.746-.567l-.933-1.3c-2.458 1.763-5.574 1.87-8.022.477l-.791 1.39zm9.751-.57c2.148-1.566 3.51-3.861 3.804-6.382l-1.589-.185c-.24 2.058-1.354 3.959-3.157 5.273l.942 1.294zm3.046-5.676l133.186-6.122-.073-1.598-133.186 6.122.073 1.598zm132.37-6.743c.284 1.25.704 2.528 1.529 3.696l1.307-.924c-.653-.925-1.014-1.973-1.277-3.128l-1.559.356zm1.532 3.699c2.943 4.122 8.644 5.043 12.759 2.103l-.93-1.302c-3.402 2.431-8.102 1.665-10.527-1.731l-1.302.93zm12.764 2.1c3.983-2.894 4.999-8.338 2.353-12.419l-1.342.871c2.178 3.36 1.35 7.855-1.951 10.253l.94 1.295zm2.266-11.437l107.184-114.535-1.168-1.093L570.64-119.476l1.168 1.093zm106.205-114.386c2.968 1.689 6.798 1.691 9.784-.451l-.932-1.3c-2.439 1.749-5.592 1.765-8.061.36l-.791 1.391zm9.783-.45c4.121-2.945 5.043-8.647 2.105-12.762l-1.302.93c2.429 3.403 1.663 8.104-1.733 10.53l.93 1.302zm2.108-12.757a9.067 9.067 0 00-9.323-3.682l.331 1.565a7.47 7.47 0 017.683 3.036l1.309-.919zm-8.443-3.259l-53.662-106.767-1.43.719 53.662 106.767 1.43-.719zm-53.962-105.724c4.711-2.856 5.645-8.591 2.698-12.718l-1.302.93c2.421 3.391 1.667 8.06-2.225 10.42l.829 1.368zm47.977 119.768c.228.304.52.697.965 1.042l.98-1.265c-.254-.196-.429-.423-.667-.739l-1.278.962zm.871-.137l-96.806 103.416 1.167 1.094 96.807-103.416-1.168-1.094zm-96.806 103.415l-10.106 10.77 1.166 1.095 10.107-10.77-1.167-1.095zm-9.033 10.685c-.074-.057-.152-.123-.246-.201-.09-.076-.194-.164-.302-.251a4.435 4.435 0 00-.79-.522l-.713 1.432c.158.079.32.193.502.339.091.073.178.147.274.227.092.078.193.162.295.241l.98-1.265zm-.915-.077l35.413-152.579-1.558-.362-35.414 152.579 1.559.362zm34.314-152.027l70.788 30.867.639-1.467-70.787-30.867-.64 1.467zm70.341 29.904c-.795 2.656-.498 5.662 1.202 8.201l1.33-.89c-1.413-2.111-1.669-4.616-.999-6.852l-1.533-.459zm-359.719-98.851c2.201.249 4.448-.224 6.511-1.619l-.896-1.325c-1.735 1.173-3.598 1.562-5.434 1.354l-.181 1.59zm6.544-1.643a9.785 9.785 0 003.452-4.817l-1.519-.503a8.188 8.188 0 01-2.895 4.042l.962 1.278zm2.572-4.278l158.849 24.096.24-1.582-158.849-24.096-.24 1.582zm158.169 23.307c.001.215.012.457.022.675.01.228.019.432.02.605l1.6-.003a17.089 17.089 0 00-.022-.675c-.01-.228-.019-.432-.02-.605l-1.6.003zm.606.514L292.219-265.6l.472 1.529 190.201-58.779-.472-1.529zm-189.196 59.762l22.165-78.239-1.539-.436-22.165 78.239 1.539.436zm271.879 141.901L495.604-317.62l-1.507.537 69.499 194.905 1.507-.538zm-69.999-193.877c.495-.166.909-.487 1.196-.704l-.962-1.278c-.333.251-.539.397-.742.465l.508 1.517zm1.196-.704c.988-.743 1.843-1.594 2.49-2.678l-1.373-.82c-.513.859-1.207 1.563-2.079 2.22l.962 1.278zm1.484-2.355l103.987 45.354.64-1.467-103.988-45.353-.639 1.466zm103.528 44.44l-35.375 152.696 1.559.361 35.374-152.696-1.558-.361zm-34.53 152.079c-.22-.018-.428-.04-.635-.064-.204-.022-.414-.046-.618-.064a5.223 5.223 0 00-1.305.024l.252 1.58c.275-.044.56-.041.915-.01.179.016.365.037.578.061.208.023.437.048.683.068l.13-1.595zm-72.264-209.342l4.923-23.527-1.566-.327-4.922 23.526 1.565.328zm4.167-22.891l114.295-3.796-.053-1.599-114.295 3.796.053 1.599zm114.054-5.366l-114.476 31.814.428 1.542 114.476-31.814-.428-1.542zm-113.503 32.331a4.58 4.58 0 00-1.05-1.708l-1.13 1.133c.291.29.542.722.663 1.084l1.517-.509zm-.927-1.549c-1.009-1.705-2.534-2.772-4.29-3.437l-.567 1.496c1.506.57 2.7 1.437 3.481 2.756l1.376-.815zm-6.876-3.986a8.574 8.574 0 00-5.859 1.682l.962 1.278a6.98 6.98 0 014.767-1.366l.13-1.594zm-5.859 1.682a9.792 9.792 0 00-3.452 4.818l1.519.503a8.195 8.195 0 012.895-4.043l-.962-1.278zm-2.572 4.278l-153.804-23.33-.24 1.582 153.804 23.33.24-1.582zm-153.898-21.739l167.175-5.491-.052-1.599-167.175 5.491.052 1.599zm166.367-6.458l-4.885 22.867 1.564.334 4.885-22.867-1.564-.334zm-22.644 37.477l-185.186 84.925.666 1.454 185.187-84.924-.667-1.455zm-184.095 85.397c-.042-.127-.165-.537-.635-.771l-.713 1.432a.352.352 0 01-.083-.058.381.381 0 01-.099-.133l.003.008a.852.852 0 00.01.031l1.517-.509zm-.352-.536c-1.001-1.33-2.195-2.359-3.706-3.004l-.628 1.472c1.207.515 2.189 1.344 3.055 2.494l1.279-.962zm-3.25-2.05l7.285-25.743-1.539-.435-7.286 25.743 1.54.435zm6.752-25.196l181.514-56.123-.472-1.529-181.515 56.123.473 1.529zm-9.761 23.412c-2.2-.25-4.448.223-6.511 1.619l.896 1.325c1.735-1.173 3.598-1.562 5.434-1.354l.181-1.59zm-6.544 1.642c-.673.507-1.295 1.133-1.867 1.708l1.133 1.129c.59-.592 1.13-1.132 1.696-1.559l-.962-1.278zm-.904 1.578l-21.129-12.066-.793 1.389 21.129 12.066.793-1.389zm-20.79-11.058c.644-1.508.808-3.137.551-4.748l-1.58.253c.214 1.337.074 2.658-.442 3.868l1.471.627zm-.002-3.858l35.287-10.935-.474-1.528-35.287 10.935.474 1.528zm34.281-11.919l-6.901 24.19 1.539.439 6.9-24.19-1.538-.439zm-37.553 19.834c.674-.507 1.295-1.133 1.868-1.708l-1.134-1.129c-.589.592-1.13 1.132-1.696 1.559l.962 1.278zm.904-1.577l21.285 12.143.793-1.39-21.285-12.143-.793 1.39zm20.934 11.162c-1.051 2.75-.803 6.067 1.047 8.595l1.291-.945c-1.495-2.043-1.723-4.779-.844-7.078l-1.494-.572zm1.033 8.576c.577.839 1.393 1.558 2.113 2.116l.98-1.265c-.678-.525-1.338-1.123-1.774-1.757l-1.319.906zm1.891 1.12l-50.064 98.085 1.425.727 50.064-98.085-1.425-.727zM226.02-123.72l-.254-.759h.001l.001-.001.003-.001.006-.002a.056.056 0 00.012-.004.25.25 0 00.026-.007c.017-.004.037-.009.06-.012a.625.625 0 01.193-.002.698.698 0 01.555.456l-1.517.509a.908.908 0 001.021.617 1.29 1.29 0 00.087-.018l.033-.009.014-.005.007-.002.003-.001h.001l.001-.001-.253-.758zm18.963-116.126c2.04.166 4.03-.347 5.64-1.614l-.989-1.258c-1.257.989-2.835 1.415-4.521 1.277l-.13 1.595zm-20.735 132.654l55.735 157.716 1.508-.533-55.735-157.716-1.508.533zm56.235 156.691a4.578 4.578 0 00-1.708 1.05l1.134 1.13a2.98 2.98 0 011.082-.663l-.508-1.517zm-1.603.962c-1.156.817-1.963 1.803-2.587 2.848l1.374.82c.536-.898 1.2-1.7 2.136-2.362l-.923-1.306zm-1.647 2.499L169.732 17.198l-.505 1.518 107.5 35.762.506-1.518zM170.219 18.262l51.836-125.602-1.479-.61L168.74 17.652l1.479.61zm50.845-125.148c1.338.443 2.763.383 4.039.221l-.202-1.587c-1.206.153-2.342.176-3.334-.153l-.503 1.519zM283.042 48.64l-.116.04.508 1.516.116-.039-.508-1.517zm.892.531L228.16-108.66l-1.508.533 55.774 157.833 1.508-.534zM227.66-107.636c.494-.166.909-.487 1.196-.704l-.962-1.278c-.333.251-.539.397-.742.465l.508 1.517zm1.173-.687c1.97-1.376 3.229-3.505 3.728-5.768l-1.563-.344c-.425 1.93-1.487 3.686-3.081 4.801l.916 1.311zm2.912-5.141l49.628 2.114.068-1.598-49.627-2.114-.069 1.598zm48.862 1.325l1.889 161.547 1.6-.019-1.889-161.547-1.6.019zm-48.157-4.528a10.996 10.996 0 00-1.599-4.349l-1.348.862a9.407 9.407 0 011.364 3.716l1.583-.229zm-1.614-4.371c-.576-.839-1.392-1.558-2.113-2.116l-.98 1.265c.678.525 1.339 1.123 1.775 1.757l1.318-.906zm-1.89-1.12l50.064-98.085-1.425-.728-50.064 98.086 1.425.727zm48.995-97.733c.603.301 1.282.389 1.797.461l.223-1.584c-.571-.081-.979-.146-1.307-.309l-.713 1.432zm1.109-.321l1.32 105.823 1.6-.02-1.32-105.823-1.6.02zm2.155 105.014l-49.511-2.154-.07 1.599 49.511 2.153.07-1.598zm1.19-104.274c1.396-.177 2.758-.784 3.889-1.583l-.923-1.307c-.963.68-2.082 1.165-3.168 1.303l.202 1.587zm3.681-1.478c.265-.089.445-.229.579-.364.057-.057.11-.118.142-.154.038-.043.065-.073.095-.104l-1.133-1.129c-.067.067-.121.129-.16.173l-.077.085c-.011.011-.007.006.007-.004a.18.18 0 01.039-.02l.508 1.517zm-.286-.592l99.647 89.912 1.071-1.188-99.646-89.912-1.072 1.188zm99.647 89.912l22.074 19.903 1.072-1.188-22.075-19.903-1.071 1.188zm21.923 18.899a11.981 11.981 0 00-1.366 3.37l1.556.372a10.38 10.38 0 011.184-2.922l-1.374-.82zm-.553 2.757l-123.042-5.307-.069 1.598 123.042 5.307.069-1.598zm-122.276-4.519l-1.437-105.784-1.6.022 1.437 105.784 1.6-.022zm124.963-.492a1.365 1.365 0 01-.166.139c-.082.062-.198.149-.338.289l1.134 1.129c.054-.055.093-.085.166-.14.082-.061.198-.148.337-.288l-1.133-1.129zm.599.398l-21.53-19.438-1.073 1.188 21.531 19.438 1.072-1.188zm-21.53-19.438l-100.075-90.416-1.072 1.188 100.074 90.416 1.073-1.188zm-99.895-89.466l.116-.233.116-.233-1.432-.712-.116.233-.116.233 1.432.712zm-.782-.079l145.915 58.465.595-1.485-145.914-58.466-.596 1.486zm145.458 57.458l-17.523 50.017 1.51.529 17.523-50.017-1.51-.529zm-16.617 49.496c-2.407-.46-4.964-.034-7.137 1.549l.942 1.293c1.779-1.296 3.877-1.656 5.894-1.271l.301-1.571zM289.892-226.394c.33-1.495.38-3.085-.147-4.656l-1.517.509c.41 1.222.388 2.504.102 3.803l1.562.344zm-.572-3.674l194.955-89.368-.666-1.454-194.955 89.367.666 1.455zm193.864-89.84c.043.128.165.537.635.771l.713-1.432a.429.429 0 01.182.191l-.003-.008a.852.852 0 00-.01-.031l-1.517.509zm.327.5c.869 1.298 2.034 2.196 3.223 2.788l.713-1.433c-.986-.49-1.919-1.218-2.607-2.245l-1.329.89zm2.824 1.808l-52.103 149.12 1.51.527 52.103-149.119-1.51-.528zm-51.051 148.64l-145.876-58.348-.594 1.485 145.876 58.349.594-1.486zm53.908-146.773c1.139.16 2.289.206 3.501-.056l-.338-1.564c-.961.208-1.906.181-2.94.035l-.223 1.585zm2.578-.569l69.383 194.555 1.507-.537-69.383-194.556-1.507.538zm69.882 193.528a8.498 8.498 0 00-2.32 1.21l.962 1.278a6.912 6.912 0 011.867-.971l-.509-1.517zm-2.27 1.175c-.967.618-1.691 1.441-2.254 2.167l1.265.98c.521-.673 1.113-1.327 1.851-1.799l-.862-1.348zm-1.324 1.915L437.42-167.993l-.595 1.485 120.638 48.309.595-1.485zm-120.18-47.303l52.18-149.275-1.51-.528-52.181 149.275 1.511.528zm61.801-155.378c.354-1.156.341-2.442.26-3.479l-1.595.126c.077.98.069 2.023-.195 2.886l1.53.467zm-.324-2.645l116.26-32.284-.428-1.541-116.26 32.283.428 1.542zm115.288-32.8c.075.226.202.416.259.506.037.057.058.09.074.12.016.028.018.037.017.033l1.517-.509c-.076-.226-.202-.416-.26-.506-.036-.057-.057-.09-.074-.12a.152.152 0 01-.016-.033l-1.517.509zm.47.886c1.251 1.662 2.946 2.946 4.858 3.464l.419-1.544c-1.503-.407-2.917-1.445-3.999-2.883l-1.278.963zm4.288 2.511l-17.822 76.911 1.559.361 17.822-76.911-1.559-.361zm-16.722 76.359l-103.444-45.277-.642 1.465 103.445 45.278.641-1.466zm11.394-87.281c-.226.833-.496 1.808-.449 2.846l1.598-.073c-.034-.747.158-1.48.395-2.355l-1.544-.418zm.324 2.01l-115.071 3.797.052 1.599 115.071-3.797-.052-1.599zm-114.262 4.76l12.422-59.437-1.566-.327-12.422 59.437 1.566.327zm11.574-58.803a8.573 8.573 0 005.859-1.682l-.962-1.278a6.973 6.973 0 01-4.767 1.365l-.13 1.595zm5.859-1.682a11.711 11.711 0 001.793-1.714l-1.217-1.039a10.112 10.112 0 01-1.538 1.475l.962 1.278zm.781-1.543l96.092 56.158.808-1.382-96.093-56.158-.807 1.382zm-14.169-1.496c.135.405.469.82.699 1.049l1.129-1.134a1.99 1.99 0 01-.286-.371c-.02-.036-.026-.054-.026-.053l-1.516.509zm.604.935a8.22 8.22 0 004.382 3.252l.481-1.526a6.624 6.624 0 01-3.544-2.632l-1.319.906zm3.84 2.324l-12.615 60.02 1.565.329 12.615-60.02-1.565-.329zm-11.859 59.385l-172.8 5.696.052 1.599 172.801-5.696-.053-1.599zm-172.016 6.241v-.002l-.001-.001v-.002l-.001-.001v-.002l-.001-.001v-.002l-.001-.001v-.002l-.001-.001v-.002l-.001-.001v-.002l-.001-.001v-.002l-.001-.001v-.002l-.001-.001v-.002l-.001-.001v-.002l-.001-.001v-.002l-.001-.001v-.002l-.001-.001v-.002h-.001v-.003l-.001-.001v-.002h-.001v-.003l-.001-.001v-.002h-.001v-.003l-.001-.001v-.002h-.001v-.003l-.001-.001v-.002h-.001v-.003l-.001-.001v-.002h-.001v-.003l-.001-.001v-.002l-.001-.001v-.002h-.001v-.003l-.001-.001v-.002l-.001-.001v-.002h-.001v-.003h-.001v-.003l-.001-.001v-.001l-.001-.001v-.003h-.001v-.003h-.001v-.003h-.001v-.003h-.001v-.003h-.001v-.003h-.001v-.003h-.001v-.003h-.001v-.003h-.001v-.003h-.001v-.003h-.001v-.002l-.001-.001v-.002l-.001-.001v-.003h-.001v-.002l-.001-.001v-.003h-.001v-.002l-.001-.001v-.003h-.001v-.002l-.001-.001v-.002l-.001-.001v-.003h-.001v-.003h-.001v-.003h-.001v-.002l-.001-.001v-.002l-.001-.001v-.002l-.001-.001v-.002l-.001-.001v-.002l-.001-.001v-.002l-.001-.001v-.002l-.001-.001v-.002l-.001-.001v-.002l-.001-.001v-.002l-.001-.001v-.002l-.001-.001v-.002l-.001-.001v-.002l-.001-.001v-.002l-.001-.001v-.002l-.001-.001v-.002h-.001v-.003l-.001-.001v-.002l-.001-.001v-.002h-.001v-.003h-.001v-.003h-.001v-.003h-.001v-.001l-.758.255-.759.254h.001v.003h.001v.003h.001v.003h.001v.003h.001v.003h.001v.003h.001v.003l.001.001v.002h.001v.003h.001v.003h.001v.003h.001v.003h.001v.003h.001v.003h.001v.003h.001v.003h.001v.003h.001v.003h.001v.003h.001v.003h.001v.003h.001v.002l.001.001v.002l.001.001v.002l.001.001v.003h.001v.003h.001v.003h.001v.002l.001.001v.003h.001v.002l.001.001v.002l.001.001v.003h.001v.002l.001.001v.002l.001.001v.002l.001.001v.003h.001v.003h.001v.003h.001v.003h.001v.003h.001v.003h.001v.002l.001.001v.002l.001.001v.002l.001.001v.002l.001.001v.002l.001.001v.002l.001.001v.002l.001.001v.002l.001.001v.002h.001v.003l.001.001v.002l.001.001v.002l.001.001v.002l.001.001v.002h.001v.003l.001.001v.002l.001.001v.002l.001.001v.002l.001.001v.002l.001.001v.002l.001.001v.002l.001.001v.002h.001v.003l.001.001v.002h.001v.003l.001.001v.002h.001v.003l.001.001v.002h.001v.002l.001.001v.003l.001.001v.002h.001v.003l.001.001v.002h.001v.002l.001.001v.003l.001.001v.002h.001v.002l.001.001 1.516-.509zm-.551.769l181.025-69.161-.57-1.494-181.025 69.16.57 1.495zm-12.041 9.349a.674.674 0 01-.459-.017l-.016-.007c.006.003.038.02.075.035a.924.924 0 00.671.027l-.508-1.517a.665.665 0 01.459.016c.017.007.029.014.016.007a.983.983 0 00-.493-.11.946.946 0 00-.254.049l.509 1.517zm-.753-.938l-22.511 79.909 1.54.433 22.511-79.908-1.54-.434zm-21.976 79.361l-36.838 11.326.47 1.53 36.838-11.327-.47-1.529zm-35.845 11.836c-.194-.58-.522-1.084-.781-1.428l-1.278.963c.208.276.425.624.542.974l1.517-.509zm-.726-1.345c-.372-.648-.835-1.104-1.218-1.486l-1.13 1.134c.395.393.709.711.96 1.149l1.388-.797zm-1.123-.467l60.828-88.754-1.319-.904-60.829 88.754 1.32.904zm-36.15 143.61a1.102 1.102 0 00.237.394l.034.039c.023.027.009.015.002-.006l1.517-.509a1.563 1.563 0 00-.344-.571l-.009-.011c.003.004.048.06.08.155l-1.517.509zm.392.653c.758 1.007 1.753 1.913 2.657 2.568l.939-1.296c-.805-.583-1.675-1.381-2.318-2.234l-1.278.962zm2.387 1.615l-51.952 125.64 1.478.612 51.953-125.641-1.479-.611zM167.401 16.426l-133.2-44.093-.504 1.519 133.201 44.093.503-1.519zM34.735-26.762c.251-1.351.212-2.773-.228-4.086l-1.517.509c.34 1.013.383 2.153.172 3.286l1.574.291zm-.664-3.1l182.595-80.689-.646-1.464-182.595 80.69.646 1.463zm-180.994 552.531c-.983.901-1.744 2.01-2.287 3.313l1.476.615c.462-1.105 1.094-2.017 1.892-2.749l-1.081-1.179zm-1.298 2.861l-74.928-24.689-.501 1.52 74.928 24.688.501-1.519zm-74.482-23.537l30.01-53.301-1.394-.785-30.01 53.302 1.394.784zm29.052-52.937c2.055.708 4.332.792 6.491.068l-.509-1.517c-1.797.603-3.71.539-5.46-.064l-.522 1.513zm5.535-.306l41.032 74.893 1.403-.769-41.032-74.893-1.403.769zM-42 203.5l-8.828 72.857 1.588.192 8.828-72.857L-42 203.5zm-8.08 72.154a8.565 8.565 0 00-4.584 1.682l.962 1.278a6.968 6.968 0 013.714-1.362l-.092-1.598zm-4.534 1.647a5.35 5.35 0 00-1.286 1.195l1.265.98c.229-.296.551-.615.883-.827l-.862-1.348zm-.205 1.022L-203.256 177.99l-.896 1.326 148.437 100.333.896-1.326zm-148.169-99.313c.101-.203.184-.432.248-.606.071-.195.124-.335.177-.443l-1.432-.713a5.88 5.88 0 00-.247.606 4.74 4.74 0 01-.178.443l1.432.713zm-.418-.615l162.073 25.991.254-1.58-162.073-25.991-.254 1.58zm-2.726 4.101c.664-.381 1.135-.86 1.538-1.445l-1.317-.908c-.293.425-.596.723-1.017.965l.796 1.388zm.432-1.236l148.436 100.332.896-1.326-148.436-100.332-.896 1.326zm148.168 99.313c-.303.608-.659 1.316-.837 2.126l1.562.344c.13-.587.392-1.123.707-1.757l-1.432-.713zm-.049 1.498l-144.218-1.307-.015 1.6 144.219 1.307.014-1.6zm-143.428-.57l-7.748-98.359-1.595.126 7.748 98.359 1.595-.126zm-8.376-97.514a8.473 8.473 0 003.336-1.546l-.962-1.278a6.884 6.884 0 01-2.712 1.26l.338 1.564zm150.81 101.47a9.771 9.771 0 001.528 4.556l1.348-.862a8.173 8.173 0 01-1.281-3.82l-1.595.126zm1.607 3.59l-129.517 144.034 1.19 1.07 129.517-144.034-1.19-1.07zm-128.479 143.902c-1.27-.842-2.889-1.443-4.499-1.483l-.041 1.599c1.261.032 2.593.512 3.654 1.217l.886-1.333zm-3.722-.747l-11.797-148.256-1.595.127 11.797 148.256 1.595-.127zm-12.602-147.393l143.986 1.385.015-1.6-143.986-1.385-.015 1.6zm9.415 146.784c-.411.052-.807.19-1.146.32-.371.143-.656.268-.985.379l.509 1.516c.369-.123.762-.291 1.05-.401.32-.123.564-.2.773-.227l-.201-1.587zm-1.225.993l-103.357-145.359-1.304.927 103.357 145.36 1.304-.928zm-103.477-144.298a8.231 8.231 0 002.699-5.211l-1.591-.173a6.625 6.625 0 01-2.173 4.19l1.065 1.194zm1.895-4.498l91.025.907.016-1.6-91.024-.907-.017 1.6zm90.235.171l11.875 148.489 1.595-.128-11.875-148.488-1.595.127zm-98.731 6.947c1.575.04 3.008-.306 4.448-.926l-.633-1.47c-1.274.549-2.477.829-3.774.797l-.041 1.599zm3.48-1.197l103.357 145.359 1.304-.928-103.357-145.359-1.304.928zm103.469 144.305c-.98.899-1.759 2.022-2.193 3.331l1.519.503c.338-1.022.953-1.919 1.755-2.654l-1.081-1.18zm-1.255 2.802l-127.936-29.163-.356 1.56 127.936 29.163.356-1.56zm-127.328-28.234l22.441-118.326-1.572-.298-22.441 118.326 1.572.298zm125.702 31.193c-.031.221-.114.696.036 1.143l1.516-.509c.003.008-.006-.013-.003-.091.003-.082.015-.175.036-.319l-1.585-.224zm.663.099l-131.76 21.953.262 1.578 131.76-21.953-.262-1.578zm-130.87 22.487a10.164 10.164 0 00-1.268-2.524l-1.319.906a8.529 8.529 0 011.07 2.127l1.517-.509zm-1.277-2.538c-1.066-1.487-2.384-2.453-3.869-3.192l-.713 1.433c1.312.653 2.403 1.466 3.282 2.692l1.3-.933zm-3.439-2.327l8.838-46.585-1.572-.298-8.838 46.585 1.572.298zm7.874-45.954l127.664 29.125.356-1.56-127.664-29.125-.356 1.56zm-11.054 44.55c-2.226-.253-4.319.315-6.249 1.664l.916 1.311c1.635-1.142 3.343-1.591 5.153-1.385l.18-1.59zm-6.272 1.68c-.231.174-.801.544-1.158 1.005l1.264.98c.185-.238.467-.413.856-.707l-.962-1.278zm-.035.863l-95.389-74.126-.981 1.264 95.388 74.126.982-1.264zm-96.058-72.714l110.857 25.316.357-1.56-110.857-25.316-.357 1.56zm110.249 24.388l-8.76 46.429 1.572.297 8.76-46.43-1.572-.296zm-.298 55.967l131.914-22.264-.266-1.577-131.914 22.263.266 1.578zm131.023-22.798c.295.881.721 1.736 1.248 2.437l1.279-.963c-.407-.54-.76-1.235-1.01-1.983l-1.517.509zm1.228 2.408c.561.817 1.19 1.36 1.728 1.896l1.129-1.134c-.628-.625-1.087-1.012-1.538-1.668l-1.319.906zm1.596.936l-30.281 53.651 1.393.787 30.281-53.652-1.393-.786zm-29.335 53.284l-104.549-34.292-.499 1.52 104.549 34.293.499-1.521zm-104.026-33.323c.131-.487.182-.829.181-1.298l-1.6.004c0 .307-.026.508-.126.876l1.545.418zm282.749-190.123l8.906-72.624-1.588-.195-8.906 72.625 1.588.194zm7.986-71.932L31.67 216l.253-1.58-70.558-11.27-.252 1.58zm69.921 10.237c-.766 2.399-.453 4.986.725 7.248l1.419-.74c-1.003-1.924-1.242-4.071-.62-6.021l-1.524-.487zm.96 6.234l-76.447 56.459.95 1.288 76.446-56.459-.95-1.288zm-75.482 56.47c-1.157-.896-2.623-1.514-3.97-1.878l-.418 1.544c1.214.329 2.467.87 3.408 1.599l.98-1.265zm84.68-68.926c-.815-.179-1.694-.173-2.51-.043l.253 1.58c.658-.105 1.33-.102 1.913.026l.344-1.563zm-1.78.223l-35.46-40.91-1.208 1.048 35.46 40.91 1.209-1.048zm-35.46-40.91l-28.267-32.581-1.208 1.049 28.267 32.581 1.208-1.049zm-28.267-31.532c1.753-2.017 2.417-4.657 2.118-7.218l-1.589.186c.254 2.172-.315 4.347-1.737 5.983l1.208 1.049zm1.561-6.361l57.196-17.77-.474-1.528-57.196 17.77.474 1.528zm56.16-18.478l6.816 97.895 1.596-.111-6.815-97.896-1.596.112zm-64.287 28.036c1.496-.086 3.073-.466 4.495-1.375l-.862-1.348c-1.135.726-2.428 1.051-3.725 1.125l.091 1.598zm3.46-1.525L.883 170.895l1.21-1.048-28.306-32.697-1.21 1.048zM.884 170.895l34.605 39.903 1.208-1.049-34.604-39.902-1.21 1.048zm34.955 38.62c-.6.201-1.115.543-1.659 1.005l1.036 1.22c.463-.394.8-.597 1.131-.708l-.508-1.517zm-1.572.941c-.967.618-1.692 1.441-2.254 2.167l1.264.98c.522-.673 1.113-1.327 1.852-1.799l-.862-1.348zm-1.496 1.867L-38.6 200.938l-.252 1.58 71.372 11.385.252-1.58zm-70.704-10.496l7.799-62.804-1.588-.197-7.8 62.804 1.589.197zM45.12 210.4c-.326-.253-.8-.633-1.407-.797l-.418 1.545c.246.066.472.228.845.517l.98-1.265zm-.818-.08l-6.935-99.409-1.596.112 6.935 99.408 1.596-.111zm-7.495-98.589l99.85-31.048-.475-1.528-99.85 31.048.475 1.528zm98.854-31.558c.195.58.522 1.085.781 1.429l1.278-.963c-.208-.276-.424-.624-.542-.975l-1.517.51zm.746 1.378c.333.521.791.974 1.195 1.287l.98-1.265a3.75 3.75 0 01-.827-.883l-1.348.861zm1.038.184l-35.76 49.277 1.295.94 35.759-49.277-1.294-.94zm-35.76 49.277l-57.702 79.551 1.295.94 57.702-79.551-1.295-.94zM31.15-20.942c.055-.055.094-.085.166-.14.082-.061.198-.148.338-.288L30.52-22.5a1.354 1.354 0 01-.166.14c-.082.062-.198.149-.337.289l1.133 1.129zm-.593-.393L136.496 72.29l1.06-1.2-105.94-93.624-1.059 1.199zm105.805 92.58c-1.238 1.843-1.739 4.142-1.397 6.427l1.583-.238c-.286-1.906.136-3.8 1.142-5.297l-1.328-.892zm-.843 5.544L36.134 107.68l.475 1.528 99.385-30.892-.475-1.528zm-98.35 31.6L28.203-20.237l-1.596.112L35.574 108.5l1.596-.111zm-9.587-127.79c1.306-.298 2.394-.805 3.414-1.42l-.825-1.371c-.918.553-1.846.98-2.944 1.23l.355 1.56zm111.085 88.233a1.413 1.413 0 01-.167.14 2.776 2.776 0 00-.337.288l1.133 1.129c.055-.054.094-.084.167-.14.082-.061.198-.148.337-.288l-1.133-1.129zm.593.393L47.078-12.319l-1.06 1.198L138.2 70.424l1.06-1.199zM47.076-12.32L33.319-24.402l-1.056 1.203L46.02-11.12l1.056-1.203zm-13.57-11.123a2.51 2.51 0 01.195-.31c.084-.123.203-.293.309-.506l-1.432-.713c-.05.098-.105.18-.194.31-.085.123-.203.293-.31.506l1.433.713zm-.464-.413L165.97 20.198l.504-1.52-132.93-44.054-.503 1.519zm132.441 42.99l-20.047 48.665 1.48.609 20.047-48.664-1.48-.61zm-19.108 48.194c-2.634-.674-5.319-.198-7.603 1.416l.923 1.307c1.9-1.343 4.103-1.73 6.283-1.173l.397-1.55zM23.917-19.42c.099.014.24.044.425.085.164.036.372.083.545.107l.224-1.584a6.533 6.533 0 01-.425-.085 7.532 7.532 0 00-.546-.108l-.223 1.585zm.284-.544l9.007 129.13 1.596-.112-9.007-129.13-1.596.112zm9.568 128.31l-57.661 17.926.474 1.528 57.661-17.926-.474-1.528zm-56.666 18.435c-.2-.599-.543-1.115-1.004-1.658l-1.22 1.036c.394.463.596.8.707 1.132l1.517-.51zm-.96-1.602c-.804-1.137-1.833-2.085-3.057-2.694l-.713 1.433c.95.473 1.787 1.228 2.462 2.184l1.307-.923zm-2.66-1.708L24.782-19.944l-1.506-.539-51.3 143.414 1.507.539zm-13.21 10.641c.237.705.572 1.219 1.044 1.775l1.22-1.036c-.383-.451-.593-.79-.747-1.248l-1.517.509zm1.006 1.726c1.311 1.812 3.143 3.052 5.168 3.522l.362-1.559c-1.624-.377-3.134-1.381-4.234-2.901l-1.296.938zm4.555 2.646l-7.645 62.493 1.588.194 7.645-62.493-1.588-.194zm-6.724 61.8l-162.073-25.991-.253 1.58 162.072 25.991.254-1.58zm-161.407-25.089c.037-.263-.003-.533-.019-.659a2.665 2.665 0 01-.02-.183c-.003-.046-.001-.058-.002-.051l-1.584-.223c-.037.263.003.532.019.659.01.082.017.135.02.182.003.046 0 .059.001.051l1.585.224zm-.642-.228l164.162-40.333-.382-1.554-164.162 40.334.382 1.553zm-13.384 7.793c1.277.848 2.742 1.366 4.344 1.406l.04-1.6c-1.27-.031-2.445-.44-3.499-1.139l-.885 1.333zm3.566.67l7.786 98.087 1.595-.127-7.786-98.087-1.595.127zm8.591 97.224l-90.869-.83-.015 1.6 90.869.83.015-1.6zm-90.083-.131c-.17-1.34-.678-2.9-1.665-4.062l-1.219 1.036c.724.853 1.152 2.085 1.297 3.228l1.587-.202zm-1.71-4.111a1.001 1.001 0 01-.124-.174c-.063-.098-.174-.278-.343-.446l-1.129 1.134c.026.026.051.059.124.174.063.098.174.278.343.446l1.129-1.134zm-.425.469l81.11-94.266-1.213-1.043-81.11 94.265 1.213 1.044zm-13.566 11.323c1.065 1.062 2.289 1.77 3.559 2.3l.616-1.477c-1.138-.475-2.167-1.081-3.046-1.956l-1.129 1.133zm3.081 1.413l-22.363 118.171 1.572.297 22.363-118.171-1.572-.297zm-21.4 117.539l-113.496-25.854-.355 1.56 113.496 25.854.355-1.56zm-113.209-24.422l132.557-94.445-.928-1.303-132.558 94.445.929 1.303zm110.287 87.789c.166-.215.315-.457.435-.653a6.02 6.02 0 01.339-.513l-1.265-.979c-.167.215-.315.457-.436.653-.13.212-.234.378-.338.512l1.265.98zm-.108-.895l103.967 34.1.498-1.521-103.966-34.1-.499 1.521zm103.52 32.946l-15.353 27.156 1.392.787 15.353-27.156-1.392-.787zm-14.28 26.844c-2.959-1.58-6.571-1.341-9.549.639l.886 1.332c2.525-1.679 5.509-1.841 7.909-.56l.754-1.411zm-9.672.74c-.026.026-.06.051-.174.124-.099.063-.279.175-.446.343l1.133 1.129c.026-.026.059-.05.174-.124.098-.062.278-.174.446-.343l-1.133-1.129zm.432.396l-80.039-61.156-.971 1.271 80.039 61.157.971-1.272zm14.079 5.29c-.246-1.136-.668-2.428-1.468-3.491l-1.278.962c.6.797.958 1.831 1.182 2.868l1.564-.339zm-1.433-3.441a5.332 5.332 0 00-1.195-1.286l-.98 1.265c.296.229.615.551.827.883l1.348-.862zm-.989-.259l15.779-27.817-1.392-.789-15.779 27.817 1.392.789zm14.833-27.451l75.626 24.842.5-1.52-75.626-24.842-.5 1.52zm75.084 23.97c-.027.196-.027.341-.027.443.001.092 0 .141-.011.217l1.585.223c.027-.195.027-.34.026-.443 0-.091.001-.14.011-.217l-1.584-.223zm.696-.026l-89.032 6.578.118 1.596 89.031-6.578-.117-1.596zm9.7-8.24c-1.766-.249-3.68-.039-5.397.824l.718 1.43c1.384-.695 2.961-.88 4.455-.67l.224-1.584zm-4.337 1.154l-40.954-74.66-1.403.769 40.954 74.661 1.403-.77zm-41.169-73.641c3.941-3.021 4.79-8.556 1.886-12.556l-1.295.94c2.385 3.285 1.701 7.843-1.564 10.347l.973 1.269zm1.997-12.34a1.443 1.443 0 00-.364-.579 3.422 3.422 0 00-.155-.142 2.817 2.817 0 01-.103-.095l-1.129 1.133c.067.067.128.122.172.161.05.044.07.061.085.077.011.011.006.007-.003-.008a.156.156 0 01-.02-.038l1.517-.509zm-.592.286l67.217-74.719-1.189-1.07-67.217 74.718 1.189 1.071zm67.218-74.719l62.106-69.121-1.19-1.069-62.106 69.12 1.19 1.07zm60.946-69.089c.298.297.564.424.869.575l.713-1.432c-.317-.158-.361-.185-.453-.276l-1.129 1.133zm.476-.42l-85.401 229.282 1.5.558 85.4-229.282-1.5-.558zm207.67-218.01c-.336-1.002-.756-1.837-1.33-2.735l-1.348.862c.515.807.873 1.523 1.162 2.382l1.516-.509zm-1.365-2.785c-.758-1.007-1.753-1.913-2.658-2.568l-.938 1.296c.805.583 1.675 1.38 2.318 2.234l1.278-.962zm-2.387-1.615l20.124-48.82-1.479-.61-20.124 48.82 1.479.61zm19.132-48.365l107.462 35.645.504-1.519-107.462-35.645-.504 1.519zM275.203 55.53a5.309 5.309 0 00-.178 1.747l1.595-.126a3.731 3.731 0 01.127-1.203l-1.544-.418zm.513.89l-123.7 16.66.214 1.586 123.699-16.66-.213-1.585zm13.201-6.47a8.828 8.828 0 00-2.943-1.147l-.311 1.57c.88.174 1.683.487 2.415.938l.839-1.362zm-2.299-.373l-2.121-161.469-1.6.021 2.122 161.47 1.599-.022zm-2.956-160.659l122.925 5.345.07-1.598-122.925-5.346-.07 1.599zm122.168 4.661c.212 1.46.681 2.874 1.712 4.244l1.278-.963c-.836-1.11-1.224-2.256-1.406-3.511l-1.584.23zm1.712 4.244c.174.23.544.801 1.005 1.158l.98-1.265c-.239-.184-.413-.466-.707-.856l-1.278.963zm.868.029L287.87 50.134l1.255.993 120.539-152.282-1.254-.993zm15.477-7.121c-.285-1.25-.705-2.528-1.53-3.696l-1.306.924c.653.924 1.013 1.973 1.276 3.128l1.56-.356zm-1.53-3.696c-.802-1.136-1.832-2.085-3.056-2.694l-.713 1.433c.951.473 1.787 1.228 2.463 2.185l1.306-.924zm-2.657-1.714l17.406-49.979-1.511-.526-17.406 49.978 1.511.527zm16.354-49.499l120.327 48.154.594-1.485-120.327-48.155-.594 1.486zm119.865 47.16c-.202.608-.333 1.085-.418 1.693l1.584.223c.067-.479.168-.856.352-1.413l-1.518-.503zm.337 1.005L423.07-109.89l.074 1.598 133.185-6.122-.073-1.599zm121.463-132.018c-.973.622-1.711 1.457-2.264 2.354l1.362.839c.453-.734 1.032-1.377 1.763-1.845l-.861-1.348zm-1.263 2.04l-71.254-31.098-.64 1.466 71.254 31.099.64-1.467zm-70.795-30.184l18.015-77.493-1.558-.362-18.015 77.493 1.558.362zm17.272-76.875a10.341 10.341 0 002.895-.551l-.509-1.517a8.739 8.739 0 01-2.458.469l.072 1.599zm1.925-.95l53.468 106.573 1.43-.717-53.468-106.574-1.43.718zm54.182 105.414c-.71.002-1.214.42-1.457.664l1.133 1.13a.905.905 0 01.192-.151.281.281 0 01.135-.042l-.003-1.601z" fill="#1A1C20" mask="url(#path-2-inside-1_808_4842)"/><path transform="rotate(-51.738 198.414 -272.487) skewX(-.015)" stroke="url(#paint0_linear_808_4842)" stroke-width=".8" d="M0-.4h195.161"/><path transform="rotate(-54.097 229.492 59.236) skewX(-.014)" stroke="url(#paint1_linear_808_4842)" stroke-width=".8" d="M0-.4h152.394"/><path transform="rotate(18.362 80.808 184.555) skewX(.009)" stroke="url(#paint2_linear_808_4842)" stroke-width=".8" d="M0-.4h199.977"/></g></g><defs><linearGradient id="paint0_linear_808_4842" x1="195.161" y1="0" x2="0" y2="0" gradientUnits="userSpaceOnUse"><stop offset=".21" stop-color="#303236"/><stop offset=".501" stop-color="#fff"/><stop offset=".812" stop-color="#303236"/></linearGradient><linearGradient id="paint1_linear_808_4842" x1="152.394" y1="0" x2="0" y2="0" gradientUnits="userSpaceOnUse"><stop offset=".21" stop-color="#303236"/><stop offset=".501" stop-color="#fff"/><stop offset=".812" stop-color="#303236"/></linearGradient><linearGradient id="paint2_linear_808_4842" x1="199.977" y1="0" x2="0" y2="0" gradientUnits="userSpaceOnUse"><stop offset=".21" stop-color="#303236"/><stop offset=".501" stop-color="#fff"/><stop offset=".812" stop-color="#303236"/></linearGradient><clipPath id="clip0_808_4842"><path fill="#fff" d="M0 0h383v267H0z"/></clipPath></defs></svg>