<svg width="908" height="1463" fill="none" xmlns="http://www.w3.org/2000/svg"><g opacity=".2" filter="url(#filter0_f_808_4678)" stroke="#fff" stroke-width="5.823"><path d="M24.049 659.301L455.673 25M24.049 659.301l431.624 500.449M24.049 659.301l431.624-121.795m0-512.506l429.219 634.301M455.673 25v512.506m429.219 121.795L455.673 1159.75m429.219-500.449L455.673 537.506m0 622.244V537.506m0 693.434L24.049 755.412 455.673 1438l429.219-682.588-429.219 475.528z"/></g><path d="M24.049 659.301L455.673 25l429.219 634.301-429.219 500.449L24.049 659.301z" fill="#121317"/><path d="M24.049 659.301L455.673 25M24.049 659.301l431.624 500.449M24.049 659.301l431.624-121.795m0-512.506l429.219 634.301M455.673 25v512.506m429.219 121.795L455.673 1159.75m429.219-500.449L455.673 537.506m0 622.244V537.506" stroke="#35363A" stroke-width="4"/><path d="M455.673 1230.94L24.049 755.412 455.673 1438l429.219-682.588-429.219 475.528z" fill="#121317" stroke="#35363A" stroke-width="4"/><path stroke="url(#paint0_linear_808_4678)" stroke-width="3.882" d="M534.239 140.381l239.732 354.26"/><path stroke="url(#paint1_linear_808_4678)" stroke-width="3.882" d="M514.658 1089.43l322.231-375.615"/><path stroke="url(#paint2_linear_808_4678)" stroke-width="3.882" d="M461.106 1429.36l236.82-376.58"/><path stroke="url(#paint3_linear_808_4678)" stroke-width="3.882" d="M48.78 782.685l277.585 305.735"/><path stroke="url(#paint4_linear_808_4678)" stroke-width="3.882" d="M39.051 654.006l412.494-116.469"/><defs><linearGradient id="paint0_linear_808_4678" x1="532.631" y1="141.469" x2="772.363" y2="495.729" gradientUnits="userSpaceOnUse"><stop stop-color="#fff" stop-opacity="0"/><stop offset=".611" stop-color="#fff"/><stop offset="1" stop-color="#fff" stop-opacity="0"/></linearGradient><linearGradient id="paint1_linear_808_4678" x1="516.131" y1="1090.69" x2="838.362" y2="715.079" gradientUnits="userSpaceOnUse"><stop stop-color="#fff" stop-opacity="0"/><stop offset=".611" stop-color="#fff"/><stop offset="1" stop-color="#fff" stop-opacity="0"/></linearGradient><linearGradient id="paint2_linear_808_4678" x1="462.749" y1="1430.39" x2="699.569" y2="1053.81" gradientUnits="userSpaceOnUse"><stop stop-color="#fff" stop-opacity="0"/><stop offset=".611" stop-color="#fff"/><stop offset="1" stop-color="#fff" stop-opacity="0"/></linearGradient><linearGradient id="paint3_linear_808_4678" x1="47.343" y1="783.99" x2="324.927" y2="1089.72" gradientUnits="userSpaceOnUse"><stop stop-color="#fff" stop-opacity="0"/><stop offset=".611" stop-color="#fff"/><stop offset="1" stop-color="#fff" stop-opacity="0"/></linearGradient><linearGradient id="paint4_linear_808_4678" x1="39.578" y1="655.874" x2="452.073" y2="539.405" gradientUnits="userSpaceOnUse"><stop stop-color="#fff" stop-opacity="0"/><stop offset=".611" stop-color="#fff"/><stop offset="1" stop-color="#fff" stop-opacity="0"/></linearGradient><filter id="filter0_f_808_4678" x=".973" y=".403" width="906.987" height="1462.47" filterUnits="userSpaceOnUse" color-interpolation-filters="sRGB"><feFlood flood-opacity="0" result="BackgroundImageFix"/><feBlend in="SourceGraphic" in2="BackgroundImageFix" result="shape"/><feGaussianBlur stdDeviation="9.706" result="effect1_foregroundBlur_808_4678"/></filter></defs></svg>