<svg width="825" height="1425" fill="none" xmlns="http://www.w3.org/2000/svg"><g opacity=".12" stroke-width="1.466"><path d="M60.42 791.009l198.272-227.468-23.202-72.535 292.902-336.032" stroke="url(#paint0_linear_808_4653)"/><path d="M169.468 715.481l113.781-130.536-23.202-72.535 226.436-259.778" stroke="url(#paint1_linear_808_4653)"/><path d="M122.043 670.734l112.091-128.597-23.202-72.534L619.305 1.096" stroke="url(#paint2_linear_808_4653)"/><path d="M637.62 259.279L229.248 727.785l2.685 12.576-408.373 468.509 26.834 116.64-85.617 98.22" stroke="url(#paint3_linear_808_4653)"/><path d="M144.35 972.848l110.844-126.735-25.807-118.027" stroke="url(#paint4_linear_808_4653)"/><path d="M-193.724 983.422l403.303-462.69-23.201-72.534L413.94 187.127" stroke="url(#paint5_linear_808_4653)"/><path d="M-141.849 704.718L49.276 486.763l65.942-13.028 292.901-336.032" stroke="url(#paint6_linear_808_4653)"/><path d="M285.933 731.39L436.34 558.041l95.152-3.487 292.901-336.032" stroke="url(#paint7_linear_808_4653)"/></g><defs><linearGradient id="paint0_linear_808_4653" x1="60.483" y1="789.712" x2="577.567" y2="196.486" gradientUnits="userSpaceOnUse"><stop stop-color="#fff" stop-opacity="0"/><stop offset=".166" stop-color="#fff" stop-opacity=".213"/><stop offset=".321" stop-color="#fff"/><stop offset=".614" stop-color="#fff" stop-opacity=".071"/><stop offset="1" stop-color="#fff" stop-opacity="0"/></linearGradient><linearGradient id="paint1_linear_808_4653" x1="169.336" y1="714.408" x2="535.463" y2="294.368" gradientUnits="userSpaceOnUse"><stop stop-color="#fff" stop-opacity="0"/><stop offset=".351" stop-color="#fff" stop-opacity=".129"/><stop offset=".574" stop-color="#fff"/><stop offset=".776" stop-color="#fff" stop-opacity=".127"/><stop offset="1" stop-color="#fff" stop-opacity="0"/></linearGradient><linearGradient id="paint2_linear_808_4653" x1="122.144" y1="669.393" x2="668.519" y2="42.564" gradientUnits="userSpaceOnUse"><stop stop-color="#fff" stop-opacity="0"/><stop offset=".287" stop-color="#fff" stop-opacity=".088"/><stop offset=".446" stop-color="#fff"/><stop offset=".651" stop-color="#fff" stop-opacity=".074"/><stop offset="1" stop-color="#fff" stop-opacity="0"/></linearGradient><linearGradient id="paint3_linear_808_4653" x1="-234.985" y1="1421.44" x2="718.635" y2="327.402" gradientUnits="userSpaceOnUse"><stop stop-color="#fff" stop-opacity="0"/><stop offset=".361" stop-color="#fff" stop-opacity=".174"/><stop offset=".446" stop-color="#fff"/><stop offset=".748" stop-color="#fff" stop-opacity=".07"/><stop offset="1" stop-color="#fff" stop-opacity="0"/></linearGradient><linearGradient id="paint4_linear_808_4653" x1="219.619" y1="731.242" x2="218.653" y2="948.841" gradientUnits="userSpaceOnUse"><stop stop-color="#CACACB"/><stop offset="1" stop-color="#fff" stop-opacity="0"/></linearGradient><linearGradient id="paint5_linear_808_4653" x1="-193.479" y1="981.918" x2="463.296" y2="228.431" gradientUnits="userSpaceOnUse"><stop stop-color="#fff" stop-opacity="0"/><stop offset=".369" stop-color="#fff"/><stop offset=".641" stop-color="#fff" stop-opacity=".083"/><stop offset="1" stop-color="#fff" stop-opacity="0"/></linearGradient><linearGradient id="paint6_linear_808_4653" x1="-141.849" y1="704.718" x2="408.192" y2="136.848" gradientUnits="userSpaceOnUse"><stop stop-color="#fff" stop-opacity="0"/><stop offset=".31" stop-color="#fff" stop-opacity=".107"/><stop offset=".522" stop-color="#fff"/><stop offset=".737" stop-color="#fff" stop-opacity=".125"/><stop offset="1" stop-color="#fff" stop-opacity="0"/></linearGradient><linearGradient id="paint7_linear_808_4653" x1="286.384" y1="732.786" x2="824.309" y2="217.312" gradientUnits="userSpaceOnUse"><stop stop-color="#fff" stop-opacity="0"/><stop offset=".284" stop-color="#fff" stop-opacity=".161"/><stop offset=".446" stop-color="#fff"/><stop offset=".592" stop-color="#fff" stop-opacity=".17"/><stop offset="1" stop-color="#fff" stop-opacity="0"/></linearGradient></defs></svg>