<svg width="692" height="1425" fill="none" xmlns="http://www.w3.org/2000/svg"><g opacity=".12" stroke-width="1.466"><path d="M376.42 633.722L574.692 861.19l-23.202 72.535 292.902 336.035" stroke="url(#paint0_linear_808_4663)"/><path d="M485.468 709.25l113.781 130.536-23.202 72.535L802.483 1172.1" stroke="url(#paint1_linear_808_4663)"/><path d="M438.043 753.997l112.091 128.597-23.202 72.534 408.373 468.502" stroke="url(#paint2_linear_808_4663)"/><path d="M953.62 1165.45L545.248 696.946l2.685-12.575L139.56 215.864l26.834-116.64L80.777 1" stroke="url(#paint3_linear_808_4663)"/><path d="M460.35 451.883l110.844 126.735-25.807 118.027" stroke="url(#paint4_linear_808_4663)"/><path d="M122.276 441.308l403.303 462.691-23.201 72.534L729.94 1237.6" stroke="url(#paint5_linear_808_4663)"/><path d="M174.151 720.013l191.125 217.954 65.942 13.029 292.901 336.034" stroke="url(#paint6_linear_808_4663)"/><path d="M601.933 693.341L752.34 866.69l95.152 3.487 292.898 336.033" stroke="url(#paint7_linear_808_4663)"/></g><defs><linearGradient id="paint0_linear_808_4663" x1="376.483" y1="635.019" x2="893.567" y2="1228.24" gradientUnits="userSpaceOnUse"><stop stop-color="#fff" stop-opacity="0"/><stop offset=".166" stop-color="#fff" stop-opacity=".213"/><stop offset=".321" stop-color="#fff"/><stop offset=".614" stop-color="#fff" stop-opacity=".071"/><stop offset="1" stop-color="#fff" stop-opacity="0"/></linearGradient><linearGradient id="paint1_linear_808_4663" x1="485.336" y1="710.323" x2="851.463" y2="1130.36" gradientUnits="userSpaceOnUse"><stop stop-color="#fff" stop-opacity="0"/><stop offset=".351" stop-color="#fff" stop-opacity=".129"/><stop offset=".574" stop-color="#fff"/><stop offset=".776" stop-color="#fff" stop-opacity=".127"/><stop offset="1" stop-color="#fff" stop-opacity="0"/></linearGradient><linearGradient id="paint2_linear_808_4663" x1="438.144" y1="755.338" x2="984.519" y2="1382.17" gradientUnits="userSpaceOnUse"><stop stop-color="#fff" stop-opacity="0"/><stop offset=".287" stop-color="#fff" stop-opacity=".088"/><stop offset=".446" stop-color="#fff"/><stop offset=".651" stop-color="#fff" stop-opacity=".074"/><stop offset="1" stop-color="#fff" stop-opacity="0"/></linearGradient><linearGradient id="paint3_linear_808_4663" x1="81.015" y1="3.287" x2="1034.63" y2="1097.33" gradientUnits="userSpaceOnUse"><stop stop-color="#fff" stop-opacity="0"/><stop offset=".361" stop-color="#fff" stop-opacity=".174"/><stop offset=".446" stop-color="#fff"/><stop offset=".748" stop-color="#fff" stop-opacity=".07"/><stop offset="1" stop-color="#fff" stop-opacity="0"/></linearGradient><linearGradient id="paint4_linear_808_4663" x1="535.619" y1="693.489" x2="534.653" y2="475.891" gradientUnits="userSpaceOnUse"><stop stop-color="#CACACB"/><stop offset="1" stop-color="#fff" stop-opacity="0"/></linearGradient><linearGradient id="paint5_linear_808_4663" x1="122.521" y1="442.813" x2="779.296" y2="1196.3" gradientUnits="userSpaceOnUse"><stop stop-color="#fff" stop-opacity="0"/><stop offset=".369" stop-color="#fff"/><stop offset=".641" stop-color="#fff" stop-opacity=".083"/><stop offset="1" stop-color="#fff" stop-opacity="0"/></linearGradient><linearGradient id="paint6_linear_808_4663" x1="174.151" y1="720.013" x2="724.192" y2="1287.88" gradientUnits="userSpaceOnUse"><stop stop-color="#fff" stop-opacity="0"/><stop offset=".31" stop-color="#fff" stop-opacity=".107"/><stop offset=".522" stop-color="#fff"/><stop offset=".737" stop-color="#fff" stop-opacity=".125"/><stop offset="1" stop-color="#fff" stop-opacity="0"/></linearGradient><linearGradient id="paint7_linear_808_4663" x1="602.384" y1="691.945" x2="1140.31" y2="1207.42" gradientUnits="userSpaceOnUse"><stop stop-color="#fff" stop-opacity="0"/><stop offset=".284" stop-color="#fff" stop-opacity=".161"/><stop offset=".446" stop-color="#fff"/><stop offset=".592" stop-color="#fff" stop-opacity=".17"/><stop offset="1" stop-color="#fff" stop-opacity="0"/></linearGradient></defs></svg>