<svg width="28" height="23" fill="none" xmlns="http://www.w3.org/2000/svg"><path d="M2.385 10.086C9.75 6.936 14.66 4.86 17.114 3.856 24.13.99 25.587.491 26.538.475c.21-.004.675.047.979.288.252.203.323.479.359.672.031.193.075.633.04.976-.38 3.923-2.025 13.441-2.862 17.835-.351 1.858-1.05 2.482-1.725 2.543-1.468.132-2.58-.952-4.001-1.867-2.222-1.431-3.477-2.322-5.636-3.718-2.494-1.614-.876-2.501.545-3.951.37-.38 6.835-6.153 6.957-6.676.016-.066.032-.31-.118-.439-.146-.129-.363-.085-.521-.05-.225.05-3.773 2.355-10.656 6.916-1.006.68-1.918 1.011-2.738.994-.9-.019-2.637-.5-3.927-.912-1.579-.505-2.838-.772-2.727-1.63.055-.447.682-.904 1.878-1.37z" fill="#fff"/></svg>