<svg width="24" height="24" fill="none" xmlns="http://www.w3.org/2000/svg"><path d="M12 2C6.478 2 2 6.478 2 12s4.478 10 10 10 10-4.478 10-10S17.522 2 12 2zm5.017 7.651v1.354a4.715 4.715 0 01-2.891-.982l.01 4.168a3.49 3.49 0 01-1.048 2.484 3.564 3.564 0 01-2.529 1.035 3.576 3.576 0 01-2.528-1.035 3.493 3.493 0 01-1.041-2.722 3.498 3.498 0 01.882-2.11 3.576 3.576 0 012.687-1.202c.182 0 .362.014.538.04v1.894a1.69 1.69 0 00-2.224 1.627 1.688 1.688 0 001.598 1.658 1.688 1.688 0 001.786-1.684l.002-2.79V6.29h1.864a2.884 2.884 0 002.888 2.86l.006-.001v.502z" fill="#FECC00"/></svg>