<svg width="774" height="64" fill="none" xmlns="http://www.w3.org/2000/svg"><path d="M6.08 60v-8.32h28.24V60H6.08zm0-47.68V4h28.24v8.32H6.08zm0 21.76v-8.16h26.64v8.16H6.08zM.24 4h9.28v56H.24V4zm67.063 39.36L83.783 4h10.88l-27.36 59.12L39.943 4h10.88l16.48 39.36zm84.499-4.64v-8h26.96c.107 4.107-.427 8-1.6 11.68-1.173 3.627-2.933 6.853-5.28 9.68-2.347 2.827-5.28 5.067-8.8 6.72-3.467 1.6-7.413 2.4-11.84 2.4-4.213 0-8.107-.693-11.68-2.08-3.573-1.44-6.693-3.467-9.36-6.08-2.613-2.613-4.64-5.707-6.08-9.28-1.44-3.573-2.16-7.493-2.16-11.76 0-4.267.72-8.16 2.16-11.68 1.493-3.573 3.547-6.64 6.16-9.2 2.667-2.613 5.787-4.613 9.36-6 3.627-1.387 7.547-2.08 11.76-2.08 3.68 0 7.013.507 10 1.52 2.987.96 5.653 2.373 8 4.24 2.4 1.813 4.427 4.027 6.08 6.64l-7.68 5.12c-1.547-2.667-3.707-4.8-6.48-6.4-2.72-1.6-6.027-2.4-9.92-2.4-3.627 0-6.907.853-9.84 2.56-2.933 1.653-5.28 4-7.04 7.04-1.76 2.987-2.64 6.533-2.64 10.64 0 4.053.853 7.627 2.56 10.72 1.76 3.04 4.107 5.413 7.04 7.12 2.933 1.707 6.24 2.56 9.92 2.56 2.507 0 4.747-.347 6.72-1.04 1.973-.693 3.68-1.68 5.12-2.96a17.836 17.836 0 003.6-4.4 20.759 20.759 0 002.16-5.28h-17.2zm48.161-5.44h10.24L229.163 60h-11.36l-17.84-26.72zM188.443 4h9.44v56h-9.44V4zm5.6 8.16V4h11.68c4.053 0 7.573.72 10.56 2.16 3.04 1.44 5.387 3.467 7.04 6.08 1.653 2.56 2.48 5.6 2.48 9.12 0 3.52-.827 6.587-2.48 9.2-1.653 2.613-4 4.64-7.04 6.08-2.987 1.44-6.507 2.16-10.56 2.16h-11.68v-7.76h11.28c2.133 0 4-.373 5.6-1.12 1.653-.747 2.933-1.813 3.84-3.2.907-1.44 1.36-3.147 1.36-5.12 0-2.027-.453-3.733-1.36-5.12s-2.187-2.453-3.84-3.2c-1.6-.747-3.467-1.12-5.6-1.12h-11.28zm48.698 33.44l1.76-8h26l1.84 8h-29.6zm14.64-25.76l-8.8 20.56-.16 2.08-7.76 17.52h-10.64L257.381.88 284.741 60h-10.64l-7.6-17.04-.24-2.32-8.88-20.8zM332.136 4h9.28v58.8l-40.88-40.4V60h-9.28V1.2l40.88 40.4V4zm21.698 0h9.6v56h-9.6V4zm18.08 56h-12.24v-8.88h12c2.773 0 5.333-.4 7.68-1.2 2.346-.8 4.373-2 6.08-3.6 1.76-1.6 3.12-3.6 4.08-6 1.013-2.4 1.52-5.173 1.52-8.32 0-3.147-.507-5.92-1.52-8.32-.96-2.4-2.32-4.4-4.08-6-1.707-1.6-3.734-2.8-6.08-3.6-2.347-.8-4.907-1.2-7.68-1.2h-12V4h12.24c5.706 0 10.72 1.173 15.04 3.52 4.32 2.293 7.68 5.547 10.08 9.76 2.453 4.16 3.68 9.067 3.68 14.72 0 5.653-1.227 10.587-3.68 14.8-2.4 4.16-5.76 7.413-10.08 9.76-4.32 2.293-9.334 3.44-15.04 3.44zm61.998-56h9.44v56h-9.44V4zm5.6 8.32V4h11.28c4.053 0 7.573.72 10.56 2.16 3.04 1.387 5.387 3.387 7.04 6 1.653 2.56 2.48 5.627 2.48 9.2 0 3.573-.827 6.667-2.48 9.28-1.653 2.613-4 4.64-7.04 6.08-2.987 1.387-6.507 2.08-10.56 2.08h-11.28v-8.32h11.28c3.253 0 5.867-.773 7.84-2.32 1.973-1.547 2.96-3.813 2.96-6.8 0-2.987-.987-5.227-2.96-6.72-1.973-1.547-4.587-2.32-7.84-2.32h-11.28zm52.17 20.96h10.24L520.882 60h-11.36l-17.84-26.72zM480.162 4h9.44v56h-9.44V4zm5.6 8.16V4h11.68c4.053 0 7.573.72 10.56 2.16 3.04 1.44 5.387 3.467 7.04 6.08 1.653 2.56 2.48 5.6 2.48 9.12 0 3.52-.827 6.587-2.48 9.2-1.653 2.613-4 4.64-7.04 6.08-2.987 1.44-6.507 2.16-10.56 2.16h-11.68v-7.76h11.28c2.133 0 4-.373 5.6-1.12 1.653-.747 2.933-1.813 3.84-3.2.907-1.44 1.36-3.147 1.36-5.12 0-2.027-.453-3.733-1.36-5.12s-2.187-2.453-3.84-3.2c-1.6-.747-3.467-1.12-5.6-1.12h-11.28zM533.58 60v-8.32h28.24V60h-28.24zm0-47.68V4h28.24v8.32h-28.24zm0 21.76v-8.16h26.64v8.16h-26.64zM527.74 4h9.28v56h-9.28V4zm56.103 21.92L580.003 60h-9.76l7.68-58.8 22.96 38 23.04-38 7.68 58.8h-9.76l-3.92-34.08-17.04 28.88-17.04-28.88zM640.787 4h9.52v56h-9.52V4zm21.631 0h9.44v37.2c0 3.467.907 6.267 2.72 8.4 1.867 2.08 4.613 3.12 8.24 3.12 3.573 0 6.293-1.04 8.16-3.12 1.867-2.133 2.8-4.933 2.8-8.4V4h9.44v37.6c0 3.093-.507 5.867-1.52 8.32-.96 2.4-2.347 4.453-4.16 6.16-1.813 1.707-3.973 3.013-6.48 3.92-2.507.907-5.253 1.36-8.24 1.36s-5.733-.453-8.24-1.36c-2.507-.907-4.693-2.213-6.56-3.92-1.813-1.707-3.2-3.76-4.16-6.16-.96-2.453-1.44-5.227-1.44-8.32V4zm63.3 21.92L721.878 60h-9.76l7.68-58.8 22.96 38 23.04-38 7.68 58.8h-9.76l-3.92-34.08-17.04 28.88-17.04-28.88z" fill="#000"/></svg>