<svg width="30" height="30" fill="none" xmlns="http://www.w3.org/2000/svg"><path d="M3 25.65c-.375 0-.75-.3-.75-.675V4.425c0-.375.3-.675.75-.675h11.325C13.275 6.375 12 10.425 12 15.675c0 .9.6 1.575 1.5 1.575h2.325v.15c0 .375 0 1.35.15 2.55-.45.075-.9.075-1.275.075-2.625 0-5.1-.9-7.05-2.55-.225-.15-.45-.225-.6-.225a.852.852 0 00-.6.225.852.852 0 00-.225.6c0 .225.15.375.3.525 2.175 1.95 5.1 3 8.175 3 .45 0 .975 0 1.425-.075.15 1.35.3 2.775.525 4.05H3v.075zM8.775 8.775a.832.832 0 00-.825.825v1.725c0 .45.375.825.825.825.45 0 .825-.375.825-.825V9.6a.832.832 0 00-.825-.825zm9.15 16.8c-.3-1.425-.45-2.925-.6-4.2 2.025-.45 3.9-1.35 5.475-2.7.15-.15.3-.3.3-.525a.852.852 0 00-.225-.6c-.15-.225-.375-.3-.6-.3-.225 0-.375.075-.6.225-1.275 1.125-2.85 1.875-4.5 2.25-.075-1.2-.15-2.025-.15-2.325 0-1.5-1.2-1.5-1.725-1.5h-1.95c-.075 0-.15 0-.15-.225 0-5.25 1.35-9.3 2.475-11.925h10.65c.375 0 .75.3.75.675V24.9c0 .375-.375.675-.75.675h-8.4zm2.7-16.8a.832.832 0 00-.825.825v1.725c0 .45.375.825.825.825.45 0 .825-.375.825-.825V9.6a.832.832 0 00-.825-.825z" fill="#9293B0"/></svg>