<svg width="30" height="30" fill="none" xmlns="http://www.w3.org/2000/svg"><path fill-rule="evenodd" clip-rule="evenodd" d="M11.173 24.978c.401.576.584 1.224.51 1.908-.036.18-.072.396-.145.54-.475.936-1.46.684-2.225.36-1.35-.576-2.846-.54-4.269-.864-.255-.036-.474-.072-.656-.252-.329-.288-.22-.612-.11-.972.146-.432.11-.9-.11-1.296-.072-.144-.145-.288-.181-.432-.037-.324.182-.612.474-.756.292-.144.62-.216.912-.36.73-.324.985-1.116.766-1.836 0 .756-.256 1.008-.876 1.368-.583.324-1.495.072-1.897.396-.51.432.183 1.512.11 2.34-.037.612-.693 1.296-.401 1.944.291.612 1.678.684 3.1.972 2.043.432 3.247 1.152 4.159 1.188 1.386.036 1.569-1.332 3.757-1.368.62-.036 1.24-.036 1.86-.072h2.116c1.423.036.949.756 1.861 1.224.802.396 2.189.252 2.553-.072.475-.432 1.679-1.44 2.627-1.908 1.167-.576 3.94-1.584 1.933-2.808-.474-.288-1.568-.576-1.678-2.664-.364.324-.437 1.26-.328 1.692.11.54.474 1.044.985 1.296l.438.216c.146.108.219.252.182.432-.036.216-.292.324-.51.396-.548.18-1.095.36-1.606.576-.4.144-.839.324-1.167.612a6.966 6.966 0 00-.547.504c-.365.324-.84.612-1.35.648-.51.036-1.058-.288-1.204-.756-.073-.288 0-.612.073-.9.11-.54.11-1.116.073-1.656 0-.54 0-1.116-.146-1.656-.036-.18-.11-.396-.11-.576 0-.18.074-.396.256-.504.22-.108.51-.036.693.108.183.144.329.36.547.504.329.252.949.144 1.314 0 .438-.144.802-.468 1.058-.828.364-.468.802-.864 1.058-1.44.255-.576.182-1.224.073-1.836-.292-1.656-1.277-4.32-2.554-5.652-1.058-1.116-1.751-2.088-2.152-3.456-.365-1.152-.547-2.304-.474-3.384.109-1.404-.694-3.348-1.97-4.284-.803-.576-2.043-.864-3.174-.864-.62 0-1.24.108-1.678.324-1.897 1.008-2.152 2.448-2.152 4.068.036 1.548.072 3.276.255 4.932-.328 1.188-1.277 1.944-2.043 2.88a13.817 13.817 0 00-1.97 3.204 13.003 13.003 0 00-.839 2.628c-.036.144-.219 2.016.183 1.728 1.13-.864 2.48 1.26 4.596 4.464zm.73-2.232c.912-.108 1.021-1.08.583-1.476-1.423-1.404-4.888-2.916-3.538-5.436-.037.756.474 1.548 1.204 1.8-.365-.144-.256-1.224-.256-1.512.073-1.584.766-3.204 1.532-4.572.365-.612.766-1.188.766-1.944 0-.72.62.864 1.24 1.224.694.36 1.496-.72 2.59-1.26.329-.144.694-.324.694-.468-.146-.648-1.46.792-2.627.828-.547.036-.73-.108-.948-.324-.62-.612.073-.108.985-.288.401-.072.547-.144.985-.324.474-.216.912-.504 1.386-.684.146-.072.292-.252.219-.36-.328-.036-.657.144-.949.288-.62.288-1.313.504-2.006.54-.328.036-.657.036-.948-.108-.256-.144-.402-.36-.62-.504-.183-.108-.146-.396.109-.648.146-.144.474-.216.656-.504.037-.036.256-.288.438-.432.073-.036.073-1.152-.51-1.188-.475-.036-.62.36-.584.72.036.36.219.684.328.684.255 0 0 .288-.11.324-.218.072-.51-.828-.473-1.26.036-.468.255-1.26.838-1.224.876.036.766 1.224.766 1.764v.072c0 .036.037.036.073 0 .365-.036.73.036 1.095.144-.073-.036 0-1.008 0-1.08.146-.792.985-1.296 1.75-.864.585.324.986 1.548.694 2.124-.073.144-.255.252-.401.216-.183-.036-.292-.252-.292-.468 0-.18.036-.396-.037-.576-.073-.288-.4-.468-.693-.432-.328.072-.474.324-.51.648 0 .108-.037.648.145.684.22.036.767.432 1.131.504 1.24.252.329.972.475 1.836.109.612.547 1.116.875 1.62.365.612.693 1.296.949 1.98.291.792.51 1.62.656 2.484.11.828.183 1.656.146 2.484.328-.036.657-.108 1.021-.108.365 0 1.277.216 1.387.648-.475 0-.912-.144-1.387 0-.474.144-.875.504-.912.972-.328-.072-.656.036-.911.288-.694.72 0 2.124-.073 2.988-.037.468-.073.972-.183 1.404-.036.252-.146.468-.255.684-.073.144-.329.468-.329.612-.109-.864-.182-1.728-.291-2.592-.22.036-.22.216-.365.36-.146.18-.401.288-.584.396-.438.216-.948.324-1.459.396-.438.036-.875.072-1.277 0-.11 0-.912-.36-.948-.324-.073.108.036.216.073.324.036.108.036.216 0 .288a5.45 5.45 0 01-.292 1.332c-.037-1.008-.584-1.836-1.021-2.7z" fill="#9293B0"/></svg>