<svg width="30" height="30" fill="none" xmlns="http://www.w3.org/2000/svg"><path d="M15 8.352a2.28 2.28 0 00-2.29 2.29v.096h4.58v-.096c0-1.272-1.05-2.29-2.29-2.29zm10.974-4.39C23.397 1.387 18.912.75 15 .75s-8.43.636-11.006 3.213C1.418 6.539.75 11.056.75 15c0 3.944.668 8.46 3.244 11.037C6.571 28.614 11.056 29.25 15 29.25c3.912 0 8.43-.636 11.006-3.213C28.582 23.461 29.25 18.944 29.25 15c-.032-3.944-.668-8.46-3.276-11.037zm-4.199 15.555c-.19 1.845-1.813 3.149-3.753 3.149h-6.044c-1.94 0-3.562-1.273-3.753-3.15-.191-1.844-.954-8.778-.954-8.778h3.594v-.096A4.127 4.127 0 0115 6.507a4.127 4.127 0 014.135 4.135v.096h3.594s-.763 6.934-.954 8.779z" fill="#9293B0"/></svg>