<svg width="30" height="30" fill="none" xmlns="http://www.w3.org/2000/svg"><path d="M23.16 15.16c.032 4.3 3.777 5.743 3.84 5.743-.032.094-.598 2.072-1.983 4.049-1.164 1.757-2.391 3.452-4.342 3.484-1.888.031-2.549-1.099-4.72-1.099-2.203 0-2.864 1.067-4.689 1.162-1.856.062-3.273-1.884-4.5-3.61-2.454-3.546-4.342-9.98-1.825-14.375 1.227-2.134 3.462-3.546 5.853-3.578 1.857-.031 3.587 1.256 4.72 1.256 1.133 0 3.273-1.538 5.476-1.318.912.03 3.556.376 5.223 2.824-.094.094-3.084 1.852-3.052 5.461zM19.575 4.55C20.549 3.327 21.21 1.663 21.02 0c-1.416.063-3.178.973-4.216 2.166-.913 1.067-1.7 2.762-1.511 4.394 1.636.125 3.241-.785 4.28-2.009z" fill="#9293B0"/></svg>