<svg width="30" height="30" fill="none" xmlns="http://www.w3.org/2000/svg"><path fill-rule="evenodd" clip-rule="evenodd" d="M6.506 28.61a56.814 56.814 0 0017.013 0c2.299-.395 4.696-2.792 5.09-5.091a56.814 56.814 0 000-17.013c-.394-2.332-2.758-4.697-5.09-5.09a54.732 54.732 0 00-17.013 0c-2.332.393-4.697 2.758-5.09 5.09a54.732 54.732 0 000 17.013c.393 2.299 2.758 4.696 5.09 5.09zm.328-19.97c0-.59.362-.755.821-.393l6.668 5.386-5.65 4.598-1.018-.821c-.46-.361-.82-1.117-.82-1.708V8.641zm2.53 10.182L22.335 8.247c.46-.362.822-.165.854.394v7.094c0 .558-.36 1.346-.82 1.708l-6.537 5.288c-.46.36-1.182.36-1.642 0l-4.828-3.909z" fill="#9293B0"/></svg>