<svg width="30" height="31" fill="none" xmlns="http://www.w3.org/2000/svg"><path d="M7.65 9.55v13.2c0 .75.6 1.425 1.425 1.425h1.275v3.975c0 .75.6 1.35 1.35 1.35.75 0 1.35-.6 1.35-1.35V24.1h4.2v3.975c0 .75.6 1.35 1.35 1.35.75 0 1.35-.6 1.35-1.35V24.1h1.275c.75 0 1.425-.6 1.425-1.425V9.55h-15zm.15-1.2h14.925c-.375-2.1-1.5-3.9-3.15-5.1l1.2-1.65c.15-.15.075-.375-.075-.525-.15-.15-.45-.075-.6.075l-1.2 1.725c-1.05-.6-2.4-.975-3.75-.975s-2.625.375-3.75.975L10.275 1.15a.462.462 0 00-.525-.075c-.15.15-.225.375-.15.525l1.275 1.65c-1.65 1.125-2.85 3-3.075 5.1zm10.575-3.9c.525 0 .9.375.9.9s-.45.9-.9.9-.9-.375-.9-.9.375-.9.9-.9zm-6.3 0c.525 0 .9.375.9.9s-.375.9-.9.9-.9-.375-.9-.9.375-.9.9-.9zM5.1 8.425c-.75 0-1.35.6-1.35 1.425v9.6c0 .75.6 1.35 1.35 1.35.75 0 1.35-.6 1.35-1.35V9.775c.075-.75-.525-1.35-1.35-1.35zm20.175 0c-.75 0-1.35.6-1.35 1.35v9.6c0 .75.6 1.35 1.35 1.35.75 0 1.35-.6 1.35-1.35v-9.6c.075-.75-.525-1.35-1.35-1.35z" fill="#9293B0"/></svg>