<svg width="30" height="30" fill="none" xmlns="http://www.w3.org/2000/svg"><path d="M29.138 7.31c-.12-3.42-3.029-6.358-6.447-6.448-5.127-.15-10.255-.15-15.382 0C3.891.982.952 3.891.862 7.31c-.15 5.127-.15 10.255 0 15.382.12 3.418 3.029 6.357 6.447 6.447 5.127.15 10.255.15 15.382 0 3.418-.12 6.357-3.029 6.447-6.447.15-5.127.15-10.255 0-15.382zM13.126 23.68c-.57.42-2.279 1.62-3.058 1.8-1.11.27-2.16-.6-2.789-1.71l5.787-.21s.06 0 .06.06c.03 0 .03.03 0 .06zm.12-.6s0 .03 0 0c0 0-.03.06-.06.06-.9 0-4.258.03-4.348 0 0 0-.54-.03-1.11-.24 0 0-1.199-.389-1.828-1.738 0 0-.6-1.11-.15-2.519 0 0 4.917 2.639 7.466 4.348l.03.03v.06zm.45-.689c0 .03 0 .03 0 0-.03.06-.09.03-.09.03-.81-.39-4.288-2.159-5.727-3.568 0 0-.9-.69-.96-1.889v-.27c.06-1.47 1.53-2.848 1.53-2.848s3.028 3.658 5.247 8.515v.03zm.81-.51s0 .06-.06.06c0 0-.03 0-.06-.03-.54-.78-3.06-4.527-3.569-6.776 0 0-.12-.36-.12-.84v-.3c0-.24.03-.48.12-.69 0 0 .36-1.378 1.89-1.798 0 0 .689-.15.929-.18-.03.03 1.679 2.219.87 10.554zm.479-13.283A8.073 8.073 0 018.898 5.84c-.15.06-.3.09-.48.09-.84 0-1.499-.66-1.499-1.5 0-.839.69-1.499 1.5-1.499.809 0 1.499.66 1.499 1.5 0 .33-.09.6-.27.87a7.149 7.149 0 005.337 2.368c2.069 0 3.988-.87 5.337-2.369a1.43 1.43 0 01-.27-.87c0-.839.66-1.499 1.5-1.499s1.499.66 1.499 1.5-.66 1.499-1.5 1.499c-.18 0-.33-.03-.48-.09-1.498 1.739-3.687 2.758-6.086 2.758zm.63 13.343s-.03.06-.09.03c0 0-.03 0-.03-.06-.84-8.335.87-10.554.87-10.554.479.06.899.18.899.18 1.529.36 1.919 1.799 1.919 1.799.27.75 0 1.829 0 1.829-.51 2.249-2.999 5.967-3.568 6.776zm.75.51h-.06c-.03-.03-.03-.09-.03-.09 2.218-4.827 5.247-8.485 5.247-8.485s1.619 1.499 1.529 3.118c-.06 1.17-.96 1.889-.96 1.889-1.409 1.38-4.857 3.148-5.727 3.568.03-.03.03-.03 0 0zm3.987 3.088h-.12c-.21 0-.33-.06-.33-.06-.81-.24-2.488-1.409-3.058-1.799-.03-.03-.03-.09-.03-.09 0-.03.06-.03.06-.03l5.787.21c-.81 1.47-1.77 1.77-2.309 1.77zm4.078-5.817c0 .81-.3 1.41-.3 1.41-.63 1.379-1.859 1.769-1.859 1.769-.54.21-.99.24-.99.24-.09.03-3.537 0-4.437 0-.03 0-.06-.03-.06-.03-.03-.06.03-.09.03-.09 2.549-1.71 7.466-4.348 7.466-4.348.12.36.18.72.18 1.02v.03h-.03zM8.418 3.681c-.42 0-.75.33-.75.75 0 .39.3.69.69.72-.12-.15-.21-.3-.3-.48-.12-.21-.06-.51.15-.63s.51-.06.63.15c.09.15.18.3.27.42.03-.06.03-.12.03-.21.03-.39-.33-.72-.72-.72zm12.714.51c.12-.21.42-.3.63-.15.21.12.3.42.15.63-.09.15-.21.33-.3.48.39-.03.69-.36.69-.72 0-.42-.33-.75-.75-.75s-.75.33-.75.75c0 .06 0 .12.03.21.12-.18.24-.3.3-.45z" fill="#9293B0"/></svg>