<svg width="100" height="100" fill="none" xmlns="http://www.w3.org/2000/svg"><path d="M50 8.333c8.118 0 16.14.295 23.473 1.468a20.295 20.295 0 0110.957 5.77c3.032 3.031 5.183 6.848 5.77 10.955 1.075 7.335 1.467 15.259 1.467 23.474s-.292 16.14-1.468 23.473a20.285 20.285 0 01-5.77 10.957c-3.032 3.032-6.848 5.183-10.956 5.769-7.334 1.08-15.258 1.468-23.473 1.468s-16.14-.292-23.474-1.468a20.296 20.296 0 01-10.956-5.77c-3.032-3.032-5.183-6.844-5.77-10.956C8.626 66.14 8.334 58.118 8.334 50c0-8.118.292-16.14 1.468-23.474a20.296 20.296 0 015.77-10.956c3.031-3.032 6.848-5.183 10.955-5.77C33.764 8.629 41.785 8.334 50 8.334z" fill="url(#paint0_linear_22148_3722)"/><path fill-rule="evenodd" clip-rule="evenodd" d="M70.172 1.17c-8.47-.154-17.572.8-26.787 2.1-9.319 1.32-18.336 2.935-26.32 5.419l-.006.002-.006.001c-4.428 1.284-8.303 4.255-11.209 8.104l-.003.003A22.688 22.688 0 001.17 29.827c-.153 8.47.797 17.583 2.1 26.787 1.304 9.206 2.923 18.228 5.42 26.323l.002.005.001.004c1.284 4.428 4.255 8.304 8.104 11.21l.003.002a22.689 22.689 0 0013.028 4.672c8.47.154 17.471-.78 26.787-2.1 9.312-1.319 18.211-3.03 26.33-5.422h.002c4.428-1.284 8.304-4.255 11.21-8.104l.002-.003a22.712 22.712 0 004.672-13.028c.154-8.47-.787-17.47-2.103-26.788-1.316-9.311-3.027-18.21-5.419-26.33v-.002c-1.284-4.428-4.255-8.303-8.104-11.209l-.003-.003A22.712 22.712 0 0070.173 1.17zm-26.948.958C52.46.825 61.634-.14 70.198.017h.01A23.865 23.865 0 0183.9 4.925c4.005 3.025 7.148 7.096 8.514 11.806 2.412 8.191 4.134 17.15 5.454 26.493 1.32 9.337 2.27 18.41 2.114 26.974v.009a23.864 23.864 0 01-4.908 13.694c-3.025 4.005-7.096 7.148-11.807 8.514-8.19 2.412-17.149 4.134-26.492 5.457-9.338 1.323-18.411 2.267-26.974 2.111h-.01A23.842 23.842 0 0116.1 95.075c-4.004-3.024-7.147-7.094-8.513-11.803C5.063 75.092 3.433 66 2.128 56.776.82 47.55-.14 38.365.017 29.802v-.01A23.842 23.842 0 014.925 16.1c3.024-4.004 7.093-7.147 11.802-8.513C24.8 5.076 33.889 3.45 43.224 2.128z" fill="url(#paint1_linear_22148_3722)"/><g clip-path="url(#clip0_22148_3722)"><path d="M81.088 37.51a7.585 7.585 0 00-2.483-1.639 7.696 7.696 0 00-2.936-.566H64.65a.996.996 0 00-.744.25.962.962 0 00-.316.707.946.946 0 00.316.707.982.982 0 00.744.25h11.018c1.516 0 2.97.591 4.041 1.644a5.564 5.564 0 011.674 3.97v29.639a5.564 5.564 0 01-1.676 3.965 5.769 5.769 0 01-4.04 1.642H26.005a5.769 5.769 0 01-4.039-1.642 5.564 5.564 0 01-1.676-3.965V42.833c0-1.489.602-2.917 1.674-3.97a5.768 5.768 0 014.041-1.644h10.612a.994.994 0 00.744-.25.961.961 0 00.316-.707.946.946 0 00-.316-.707.984.984 0 00-.744-.25H26.005a7.784 7.784 0 00-2.942.565 7.675 7.675 0 00-2.496 1.63 7.522 7.522 0 00-1.669 2.446 7.414 7.414 0 00-.585 2.887v29.639c0 .99.198 1.969.584 2.882a7.52 7.52 0 001.663 2.443 7.675 7.675 0 002.489 1.632c.93.378 1.928.572 2.935.571h49.685a7.736 7.736 0 005.42-2.205 7.461 7.461 0 002.244-5.323V42.833a7.37 7.37 0 00-.58-2.882 7.479 7.479 0 00-1.665-2.441zm-15.08 23.457a.952.952 0 00-.292-.67.987.987 0 00-.687-.277H26.135a.994.994 0 00-.743.25.96.96 0 00-.316.707.946.946 0 00.316.707.983.983 0 00.743.25H65.03a.993.993 0 00.694-.284.96.96 0 00.284-.683zm-39.873 4.917a.994.994 0 00-.743.25.96.96 0 00-.316.707.946.946 0 00.316.707.983.983 0 00.743.25h17.127a.994.994 0 00.743-.25.962.962 0 00.316-.707.946.946 0 00-.316-.707.982.982 0 00-.743-.25H26.135zm22.395 0a.994.994 0 00-.744.25.961.961 0 00-.316.707.946.946 0 00.316.707.984.984 0 00.744.25h6.129a.994.994 0 00.743-.25.962.962 0 00.316-.707.946.946 0 00-.316-.707.982.982 0 00-.743-.25h-6.13zm17.257 8.637h10.887a.985.985 0 00.694-.286.95.95 0 00.277-.688v-6.222a.939.939 0 00-.282-.68.973.973 0 00-.689-.28H65.787a.987.987 0 00-.692.28.952.952 0 00-.286.68v6.222a.944.944 0 00.282.688.977.977 0 00.696.286zm.978-6.243h8.952v4.33h-8.952v-4.33zm.296-24.126H34.612a.994.994 0 00-.743.25.96.96 0 00-.316.707.946.946 0 00.316.707.98.98 0 00.743.25h32.449a.985.985 0 00.638-.307.951.951 0 000-1.3.985.985 0 00-.638-.307z" fill="#696586"/><path d="M71.296 17.712a9.378 9.378 0 00-3.057-2.008 9.514 9.514 0 00-3.609-.697A9.53 9.53 0 0058.767 17a9.236 9.236 0 00-3.33 5.142 15.02 15.02 0 00-9.05-.051 14.762 14.762 0 00-7.38 5.143 14.336 14.336 0 00-2.938 8.406 14.318 14.318 0 002.607 8.512h2.403a1.544 1.544 0 00-.096-.183 12.478 12.478 0 01-2.862-6.476 12.39 12.39 0 011.139-6.97 12.666 12.666 0 014.78-5.273 12.99 12.99 0 016.918-1.916c2.445.023 4.832.733 6.88 2.045a12.653 12.653 0 014.678 5.36 12.385 12.385 0 011.003 6.991 12.487 12.487 0 01-2.986 6.422h2.458a14.091 14.091 0 002.39-10.646 9.542 9.542 0 004.945-1.86 9.286 9.286 0 003.149-4.181 9.119 9.119 0 00.36-5.19 9.227 9.227 0 00-2.539-4.563zm.241 9.361a7.186 7.186 0 01-1.618 2.395 7.418 7.418 0 01-4.986 2.144 14.378 14.378 0 00-2.91-5.15 14.684 14.684 0 00-4.761-3.582 7.342 7.342 0 012.591-4.278 7.583 7.583 0 0110.054.473 7.28 7.28 0 012.188 5.191 7.038 7.038 0 01-.558 2.807z" fill="#FD64B1"/></g><defs><linearGradient id="paint0_linear_22148_3722" x1="13.355" y1="13.412" x2="84.23" y2="84.312" gradientUnits="userSpaceOnUse"><stop stop-color="#F9F8FF"/><stop offset=".495" stop-color="#EFEDFF"/><stop offset="1" stop-color="#D8D4F3"/></linearGradient><linearGradient id="paint1_linear_22148_3722" x1="77" y1="0" x2="-3.417" y2="61.594" gradientUnits="userSpaceOnUse"><stop stop-color="#FF409C"/><stop offset="1" stop-color="#6F3DFF"/></linearGradient><clipPath id="clip0_22148_3722"><path fill="#fff" transform="translate(18.333 15)" d="M0 0h65v65H0z"/></clipPath></defs></svg>