<svg width="100" height="100" fill="none" xmlns="http://www.w3.org/2000/svg"><path d="M50 8.333c8.118 0 16.14.295 23.473 1.468a20.295 20.295 0 0110.957 5.77c3.032 3.031 5.183 6.848 5.77 10.955 1.075 7.335 1.467 15.259 1.467 23.474s-.292 16.14-1.468 23.473a20.285 20.285 0 01-5.77 10.957c-3.032 3.032-6.848 5.183-10.956 5.769-7.334 1.08-15.258 1.468-23.473 1.468s-16.14-.292-23.474-1.468a20.296 20.296 0 01-10.956-5.77c-3.032-3.032-5.183-6.844-5.77-10.956C8.626 66.14 8.334 58.118 8.334 50c0-8.118.292-16.14 1.468-23.474a20.296 20.296 0 015.77-10.956c3.031-3.032 6.848-5.183 10.955-5.77C33.764 8.629 41.785 8.334 50 8.334z" fill="url(#paint0_linear_22148_3727)"/><path fill-rule="evenodd" clip-rule="evenodd" d="M70.172 1.17c-8.47-.154-17.572.8-26.787 2.1-9.319 1.32-18.336 2.935-26.32 5.419l-.006.002-.006.001c-4.428 1.284-8.303 4.255-11.209 8.104l-.003.003A22.688 22.688 0 001.17 29.827c-.153 8.47.797 17.583 2.1 26.787 1.304 9.206 2.923 18.228 5.42 26.323l.002.005.001.004c1.284 4.428 4.255 8.304 8.104 11.21l.003.002a22.689 22.689 0 0013.028 4.672c8.47.154 17.471-.78 26.787-2.1 9.312-1.319 18.211-3.03 26.33-5.422h.002c4.428-1.284 8.304-4.255 11.21-8.104l.002-.003a22.712 22.712 0 004.672-13.028c.154-8.47-.787-17.47-2.103-26.788-1.316-9.311-3.027-18.21-5.419-26.33v-.002c-1.284-4.428-4.255-8.303-8.104-11.209l-.003-.003A22.712 22.712 0 0070.173 1.17zm-26.948.958C52.46.825 61.634-.14 70.198.017h.01A23.865 23.865 0 0183.9 4.925c4.005 3.025 7.148 7.096 8.514 11.806 2.412 8.191 4.134 17.15 5.454 26.493 1.32 9.337 2.27 18.41 2.114 26.974v.009a23.864 23.864 0 01-4.908 13.694c-3.025 4.005-7.096 7.148-11.807 8.514-8.19 2.412-17.149 4.134-26.492 5.457-9.338 1.323-18.411 2.267-26.974 2.111h-.01A23.842 23.842 0 0116.1 95.075c-4.004-3.024-7.147-7.094-8.513-11.803C5.063 75.092 3.433 66 2.128 56.776.82 47.55-.14 38.365.017 29.802v-.01A23.842 23.842 0 014.925 16.1c3.024-4.004 7.093-7.147 11.802-8.513C24.8 5.076 33.889 3.45 43.224 2.128z" fill="url(#paint1_linear_22148_3727)"/><path d="M64.141 48.395a42.99 42.99 0 01-11.512-1.57 1.035 1.035 0 01-.832-.872 1.045 1.045 0 01.55-1.074 1.034 1.034 0 01.83-.054 41.524 41.524 0 0011.198 1.466c12.06 0 20.162-4.355 20.162-8.416v-5.703c0-4.069-8.101-8.43-20.155-8.43-12.053 0-20.169 4.332-20.169 8.371v5.703a1.046 1.046 0 01-.617 1.04 1.034 1.034 0 01-1.398-.615 1.045 1.045 0 01-.052-.425v-5.703c0-5.864 9.767-10.446 22.236-10.446 12.47 0 22.223 4.61 22.223 10.505v5.703c0 5.865-9.76 10.49-22.223 10.49l-.24.03z" fill="#696586"/><path d="M54.645 75.042c-2.31 0-4.618-.169-6.904-.506a1.037 1.037 0 01-.872-1.184 1.042 1.042 0 011.18-.876c2.176.322 4.374.483 6.574.484 12.06 0 20.155-4.354 20.155-8.423V46.195a1.043 1.043 0 011.037-1.04 1.036 1.036 0 011.037 1.04v18.327c0 5.865-9.767 10.505-22.229 10.505l.022.015zM36.96 37.743a1.035 1.035 0 01-.992-.746 1.044 1.044 0 01.429-1.167 23.332 23.332 0 016.779-2.933 1.033 1.033 0 011.156.34 1.042 1.042 0 01-.638 1.669 21.447 21.447 0 00-6.18 2.705c-.169.095-.361.14-.555.132z" fill="#696586"/><path d="M55.543 52.368a1.036 1.036 0 01-.95-1.037 1.043 1.043 0 01.95-1.038c7.035-.124 13.537-1.861 16.963-4.545a1.03 1.03 0 011.45.18 1.04 1.04 0 01-.18 1.455c-3.82 2.991-10.62 4.853-18.196 4.985h-.037z" fill="#696586"/><path d="M56.274 57.998a1.036 1.036 0 01-.95-1.037 1.043 1.043 0 01.95-1.038c10.227-.337 18.606-4.105 18.606-8.4a1.043 1.043 0 011.037-1.042 1.036 1.036 0 011.038 1.041c0 5.586-8.861 10.095-20.615 10.476h-.066z" fill="#696586"/><path d="M55.88 63.672a1.036 1.036 0 01-.951-1.037 1.042 1.042 0 01.95-1.038c10.476-.256 18.994-4.032 18.994-8.408a1.043 1.043 0 011.037-1.041 1.036 1.036 0 011.037 1.04c0 5.682-9.036 10.19-21.017 10.484h-.05z" fill="#696586"/><path d="M54.696 69.353h-1.688a1.036 1.036 0 01-.95-1.037 1.043 1.043 0 01.95-1.037h1.688c12.06 0 20.155-4.362 20.155-8.43a1.043 1.043 0 011.037-1.042 1.043 1.043 0 011.037 1.04c0 5.895-9.766 10.506-22.23 10.506zm9.716-26.691c-12.47 0-22.237-4.611-22.237-10.498a1.045 1.045 0 01.617-1.04 1.035 1.035 0 011.398.616c.047.136.064.28.052.424 0 4.069 8.102 8.416 20.17 8.416 12.068 0 20.184-4.347 20.184-8.416a1.045 1.045 0 01.617-1.04 1.034 1.034 0 011.398.616c.046.136.064.28.052.424-.03 5.887-9.789 10.498-22.251 10.498z" fill="#696586"/><path d="M36.185 78.334c-4.19 0-8.286-1.247-11.77-3.583a21.243 21.243 0 01-7.802-9.541 21.328 21.328 0 01-1.206-12.283 21.281 21.281 0 015.798-10.885 21.161 21.161 0 0110.847-5.818c4.11-.82 8.369-.4 12.24 1.21a21.2 21.2 0 019.507 7.83 21.312 21.312 0 013.57 11.81 21.297 21.297 0 01-6.204 15.033 21.147 21.147 0 01-14.98 6.227zm0-40.474a19.085 19.085 0 00-10.641 3.215 19.185 19.185 0 00-7.066 8.607 19.261 19.261 0 00-1.107 11.096 19.22 19.22 0 005.226 9.842 19.111 19.111 0 009.795 5.267 19.07 19.07 0 0011.06-1.085 19.148 19.148 0 008.594-7.071 19.248 19.248 0 00-2.361-24.232 19.098 19.098 0 00-13.5-5.639z" fill="#FD64B1"/><path fill-rule="evenodd" clip-rule="evenodd" d="M30.154 54.141a3.154 3.154 0 100-6.307 3.154 3.154 0 000 6.307zm0 2a5.154 5.154 0 100-10.308 5.154 5.154 0 000 10.308zM42.18 66.167a3.154 3.154 0 100-6.308 3.154 3.154 0 000 6.308zm0 2a5.154 5.154 0 100-10.308 5.154 5.154 0 000 10.308zm.707-17.887a1 1 0 010 1.414L30.86 63.72a1 1 0 01-1.414-1.414L41.472 50.28a1 1 0 011.415 0z" fill="#696586"/><defs><linearGradient id="paint0_linear_22148_3727" x1="13.355" y1="13.412" x2="84.23" y2="84.312" gradientUnits="userSpaceOnUse"><stop stop-color="#F9F8FF"/><stop offset=".495" stop-color="#EFEDFF"/><stop offset="1" stop-color="#D8D4F3"/></linearGradient><linearGradient id="paint1_linear_22148_3727" x1="77" y1="0" x2="-3.417" y2="61.594" gradientUnits="userSpaceOnUse"><stop stop-color="#FF409C"/><stop offset="1" stop-color="#6F3DFF"/></linearGradient></defs></svg>