<svg width="100" height="100" fill="none" xmlns="http://www.w3.org/2000/svg"><path d="M50 8.333c8.118 0 16.14.295 23.473 1.468a20.295 20.295 0 0110.957 5.77c3.032 3.031 5.183 6.848 5.77 10.955 1.075 7.335 1.467 15.259 1.467 23.474s-.292 16.14-1.468 23.473a20.285 20.285 0 01-5.77 10.957c-3.032 3.032-6.848 5.183-10.956 5.769-7.334 1.08-15.258 1.468-23.473 1.468s-16.14-.292-23.474-1.468a20.296 20.296 0 01-10.956-5.77c-3.032-3.032-5.183-6.844-5.77-10.956C8.626 66.14 8.334 58.118 8.334 50c0-8.118.292-16.14 1.468-23.474a20.296 20.296 0 015.77-10.956c3.031-3.032 6.848-5.183 10.955-5.77C33.764 8.629 41.785 8.334 50 8.334z" fill="url(#paint0_linear_22148_3717)"/><path fill-rule="evenodd" clip-rule="evenodd" d="M70.172 1.17c-8.47-.154-17.572.8-26.787 2.1-9.319 1.32-18.336 2.935-26.32 5.419l-.006.002-.006.001c-4.428 1.284-8.303 4.255-11.209 8.104l-.003.003A22.688 22.688 0 001.17 29.827c-.153 8.47.797 17.583 2.1 26.787 1.304 9.206 2.923 18.228 5.42 26.323l.002.005.001.004c1.284 4.428 4.255 8.304 8.104 11.21l.003.002a22.689 22.689 0 0013.028 4.672c8.47.154 17.471-.78 26.787-2.1 9.312-1.319 18.211-3.03 26.33-5.422h.002c4.428-1.284 8.304-4.255 11.21-8.104l.002-.003a22.712 22.712 0 004.672-13.028c.154-8.47-.787-17.47-2.103-26.788-1.316-9.311-3.027-18.21-5.419-26.33v-.002c-1.284-4.428-4.255-8.303-8.104-11.209l-.003-.003A22.712 22.712 0 0070.173 1.17zm-26.948.958C52.46.825 61.634-.14 70.198.017h.01A23.865 23.865 0 0183.9 4.925c4.005 3.025 7.148 7.096 8.514 11.806 2.412 8.191 4.134 17.15 5.454 26.493 1.32 9.337 2.27 18.41 2.114 26.974v.009a23.864 23.864 0 01-4.908 13.694c-3.025 4.005-7.096 7.148-11.807 8.514-8.19 2.412-17.149 4.134-26.492 5.457-9.338 1.323-18.411 2.267-26.974 2.111h-.01A23.842 23.842 0 0116.1 95.075c-4.004-3.024-7.147-7.094-8.513-11.803C5.063 75.092 3.433 66 2.128 56.776.82 47.55-.14 38.365.017 29.802v-.01A23.842 23.842 0 014.925 16.1c3.024-4.004 7.093-7.147 11.802-8.513C24.8 5.076 33.889 3.45 43.224 2.128z" fill="url(#paint1_linear_22148_3717)"/><path d="M78.06 54.448a1.02 1.02 0 00-.716.292.99.99 0 00-.296.706V75.12a2.556 2.556 0 01-.767 1.816 2.63 2.63 0 01-1.845.751h-2.733V55.396a.997.997 0 00-.299-.71 1.026 1.026 0 00-1.44 0 .997.997 0 00-.299.71v22.291H58.099a2.63 2.63 0 01-1.844-.751 2.556 2.556 0 01-.768-1.816V55.445a.999.999 0 00-.325-.655 1.027 1.027 0 00-1.38 0 .999.999 0 00-.325.656V75.12a4.517 4.517 0 00.351 1.753 4.573 4.573 0 001.006 1.487 4.65 4.65 0 001.507.994 4.71 4.71 0 001.778.349h16.337a4.677 4.677 0 003.283-1.34 4.543 4.543 0 001.36-3.236V55.446a.985.985 0 00-.3-.708 1.013 1.013 0 00-.72-.29zM58.687 75.771h3.459a1.04 1.04 0 00.737-.294 1.011 1.011 0 00.303-.725v-6.3a1.004 1.004 0 00-.313-.707 1.034 1.034 0 00-.727-.284H58.68c-.27.002-.527.108-.718.296-.19.188-.299.442-.3.708v6.287a.999.999 0 00.295.718 1.029 1.029 0 00.723.3h.007zm1.02-6.302h1.434v4.293h-1.435V69.47z" fill="#FD64B1"/><path d="M34.393 54.243h-4.535c-.27.002-.527.108-.718.296-.19.188-.299.443-.3.709v4.455a1 1 0 00.312.685c.19.18.443.282.706.284h4.52c.27 0 .53-.106.721-.294a.997.997 0 00.299-.71v-4.456a.998.998 0 00-.306-.682 1.027 1.027 0 00-.699-.287zM33.381 58.7h-2.49v-2.447h2.49V58.7zm-7.828-4.456H21.02c-.27 0-.53.106-.72.294a.997.997 0 00-.299.71v4.456c0 .266.107.522.298.71.192.188.45.294.72.294h4.535c.27-.002.528-.108.719-.296.19-.188.298-.442.3-.708v-4.456a1.004 1.004 0 00-.3-.708 1.033 1.033 0 00-.719-.296zM24.535 58.7H22.03v-2.447h2.49l.015 2.447zm18.72-4.456h-4.528c-.257.01-.5.116-.681.296a.997.997 0 00-.295.673v4.456c0 .265.106.52.296.707.19.188.447.295.716.297h4.527c.269-.002.526-.109.716-.297a.997.997 0 00.296-.707v-4.456a.998.998 0 00-.322-.697 1.027 1.027 0 00-.726-.272zm-1.02 4.456h-2.49v-2.447h2.49V58.7zm-7.842 5.205h-4.535a1.026 1.026 0 00-.691.279.998.998 0 00-.313.668v4.463a.997.997 0 00.29.71c.189.19.445.298.714.301h4.52a1.025 1.025 0 00.72-.29.996.996 0 00.3-.707v-4.477a.99.99 0 00-.3-.693 1.019 1.019 0 00-.705-.29v.036zm-1.012 4.455h-2.49v-2.454h2.49v2.454zm-7.828-4.49H21.02a1.02 1.02 0 00-.715.284.99.99 0 00-.304.698v4.463a.984.984 0 00.299.708 1.012 1.012 0 00.72.29h4.534c.27 0 .527-.106.718-.293a.99.99 0 00.301-.705v-4.462a.998.998 0 00-.306-.697 1.027 1.027 0 00-.713-.287zm-1.018 4.455H22.03V65.87h2.49l.015 2.454zm18.733-4.456h-4.541c-.26.01-.506.117-.688.3a.99.99 0 00-.288.683v4.463a.99.99 0 00.296.705c.19.187.447.292.716.292h4.527c.268 0 .526-.105.715-.292a.99.99 0 00.297-.705v-4.462a.983.983 0 00-.314-.71 1.013 1.013 0 00-.734-.273h.014zm-1.018 4.456h-2.505V65.87h2.49l.015 2.454zm1.018 5.198h-4.541c-.263.01-.511.121-.693.309a.996.996 0 00-.283.695v4.47a.984.984 0 00.294.71 1.012 1.012 0 00.718.294h4.527c.263-.01.513-.12.695-.307a.99.99 0 00.28-.697V74.54a.991.991 0 00-.29-.717 1.022 1.022 0 00-.72-.301h.013zm-1.018 4.462h-2.505V75.53h2.49l.015 2.454zm-7.843-4.462h-4.549c-.27.002-.527.108-.718.296-.19.188-.299.442-.3.708v4.47a.997.997 0 00.303.7c.19.186.448.29.715.29h4.52a1.025 1.025 0 00.727-.282.998.998 0 00.307-.708V74.54a.99.99 0 00-.294-.719 1.02 1.02 0 00-.725-.3h.014zm-1.011 4.462h-2.504V75.53h2.49l.014 2.454zm-7.843-4.462H21.02c-.27 0-.53.106-.72.294a.997.997 0 00-.299.71v4.47a.987.987 0 00.296.712 1.013 1.013 0 00.723.292h4.534c.268-.004.524-.111.712-.3a.997.997 0 00.293-.704V74.54a1.003 1.003 0 00-.29-.712c-.188-.19-.445-.3-.715-.306zm-1.018 4.462H22.03V75.53h2.49l.015 2.454zM21.033 47.83h56.898c.269 0 .527-.105.718-.292a.995.995 0 00.3-.705V21.004a.997.997 0 00-.298-.71 1.026 1.026 0 00-.72-.294H21.033a1.026 1.026 0 00-.722.292.997.997 0 00-.297.712V46.84a.984.984 0 00.302.703 1.014 1.014 0 00.717.287zM22.045 22h54.852v23.826H22.045V22.001zm30.2 5.658H44.53a1.034 1.034 0 00-.775.262 1.004 1.004 0 00-.33.739.991.991 0 00.33.74 1.022 1.022 0 00.775.26h2.87v10.107a.99.99 0 00.265.764 1.02 1.02 0 00.75.324 1.033 1.033 0 00.75-.324 1.002 1.002 0 00.266-.764V29.625h2.87c.254-.02.491-.136.664-.32a.996.996 0 000-1.36 1.02 1.02 0 00-.664-.321l-.058.035zm16.437.05a1.041 1.041 0 00-1.133.346l-3.968 5.092-3.96-5.127a1.025 1.025 0 00-1.636.02.988.988 0 00-.187.588V39.73a.99.99 0 00.265.764 1.02 1.02 0 00.75.325 1.031 1.031 0 00.75-.325 1.002 1.002 0 00.265-.764v-8.119l2.942 3.812a1.06 1.06 0 00.81.371 1.075 1.075 0 00.811-.37l2.95-3.812v8.132c0 .267.107.522.298.71a1.026 1.026 0 001.44 0 .997.997 0 00.3-.71V28.642a1.001 1.001 0 00-.19-.595 1.025 1.025 0 00-.507-.374v.036zm-34.44-.05a4.742 4.742 0 00-3.32 1.359 4.606 4.606 0 00-1.38 3.273v7.476a.992.992 0 00.266.764 1.02 1.02 0 00.75.324 1.032 1.032 0 00.75-.324 1 1 0 00.265-.764v-2.935h5.331v2.935a1 1 0 00.299.71 1.026 1.026 0 001.44 0 .997.997 0 00.299-.71v-7.511a4.605 4.605 0 00-1.368-3.264 4.74 4.74 0 00-3.303-1.368l-.029.035zm2.662 7.164h-5.302V32.29a2.598 2.598 0 01.73-1.947c.25-.26.55-.465.882-.606a2.702 2.702 0 012.989.606 2.596 2.596 0 01.73 1.948l-.029 2.531zm45.418 19.42H50.214a1.026 1.026 0 00-.685.294.997.997 0 00-.298.675v5.87a.986.986 0 00.294.71 1.011 1.011 0 00.718.294h3.242v-2.001h-2.224v-3.869h30.042v3.869h-2.224v2.001h3.243a1.025 1.025 0 00.718-.294.996.996 0 00.293-.71v-5.87a.998.998 0 00-.308-.685 1.026 1.026 0 00-.703-.284z" fill="#696586"/><defs><linearGradient id="paint0_linear_22148_3717" x1="13.355" y1="13.412" x2="84.23" y2="84.312" gradientUnits="userSpaceOnUse"><stop stop-color="#F9F8FF"/><stop offset=".495" stop-color="#EFEDFF"/><stop offset="1" stop-color="#D8D4F3"/></linearGradient><linearGradient id="paint1_linear_22148_3717" x1="77" y1="0" x2="-3.417" y2="61.594" gradientUnits="userSpaceOnUse"><stop stop-color="#FF409C"/><stop offset="1" stop-color="#6F3DFF"/></linearGradient></defs></svg>