<svg width="100" height="100" fill="none" xmlns="http://www.w3.org/2000/svg"><path d="M50 8.333c8.118 0 16.14.295 23.473 1.468a20.296 20.296 0 0110.957 5.77c3.032 3.031 5.183 6.848 5.77 10.955 1.075 7.335 1.467 15.259 1.467 23.474s-.292 16.14-1.468 23.473a20.285 20.285 0 01-5.77 10.957c-3.032 3.032-6.848 5.183-10.956 5.769-7.334 1.08-15.258 1.468-23.473 1.468s-16.14-.292-23.474-1.468a20.296 20.296 0 01-10.956-5.77c-3.032-3.032-5.183-6.844-5.77-10.956C8.626 66.14 8.334 58.118 8.334 50c0-8.118.292-16.14 1.468-23.474a20.296 20.296 0 015.77-10.956c3.031-3.032 6.848-5.183 10.955-5.77C33.764 8.629 41.785 8.334 50 8.334z" fill="url(#paint0_linear_22148_3712)"/><path fill-rule="evenodd" clip-rule="evenodd" d="M70.172 1.17c-8.47-.154-17.572.8-26.787 2.1-9.319 1.32-18.336 2.935-26.32 5.419l-.006.002-.006.001c-4.428 1.284-8.303 4.255-11.209 8.104l-.003.003A22.688 22.688 0 001.17 29.827c-.154 8.47.796 17.583 2.1 26.787 1.303 9.206 2.922 18.228 5.42 26.323v.005l.002.004c1.284 4.428 4.255 8.304 8.104 11.21l.003.002a22.689 22.689 0 0013.028 4.672c8.47.154 17.471-.78 26.787-2.1 9.312-1.319 18.211-3.03 26.33-5.422h.002c4.428-1.284 8.304-4.255 11.21-8.104l.002-.003a22.712 22.712 0 004.672-13.028c.154-8.47-.787-17.47-2.103-26.788-1.316-9.311-3.027-18.21-5.419-26.33v-.002c-1.284-4.428-4.255-8.303-8.104-11.209l-.003-.003A22.712 22.712 0 0070.173 1.17zm-26.948.958C52.46.825 61.634-.14 70.198.017h.01A23.865 23.865 0 0183.9 4.925c4.005 3.025 7.148 7.096 8.514 11.806 2.412 8.191 4.134 17.15 5.454 26.493 1.32 9.337 2.27 18.41 2.114 26.974v.009a23.865 23.865 0 01-4.908 13.694c-3.025 4.005-7.096 7.148-11.807 8.514-8.19 2.412-17.149 4.134-26.492 5.457-9.338 1.323-18.411 2.267-26.974 2.111h-.01A23.842 23.842 0 0116.1 95.075c-4.004-3.024-7.147-7.094-8.513-11.803C5.063 75.092 3.433 66 2.128 56.776.82 47.55-.14 38.365.017 29.802v-.01A23.842 23.842 0 014.925 16.1c3.024-4.004 7.093-7.147 11.802-8.513C24.8 5.076 33.889 3.45 43.224 2.128z" fill="url(#paint1_linear_22148_3712)"/><path d="M22.578 79.28a.989.989 0 01-.688-.278c-2.915-2.923.843-10.16 4.508-15.72a.966.966 0 011.337-.27.966.966 0 01.279 1.338c-5.296 8.018-5.869 12.17-4.755 13.283a.966.966 0 01-.313 1.576.958.958 0 01-.368.071zm41.119-51a.974.974 0 01-.774-.433.967.967 0 01.271-1.338c5.614-3.719 12.92-7.546 15.858-4.6a.968.968 0 010 1.369.974.974 0 01-1.36 0c-1.13-1.13-5.32-.534-13.423 4.84a.997.997 0 01-.572.162z" fill="#FD64B1"/><path d="M50.436 23.231A27.247 27.247 0 0023.22 50.455a27.247 27.247 0 0027.216 27.217 27.248 27.248 0 0027.225-27.217 27.248 27.248 0 00-27.225-27.224zm21.286 40.856h-7.654a42.732 42.732 0 002.11-12.665h9.526a25.152 25.152 0 01-3.981 12.665zM25.176 51.422h9.526a42.735 42.735 0 002.11 12.665h-7.654a25.151 25.151 0 01-3.982-12.665zm3.982-14.598h7.655a42.735 42.735 0 00-2.111 12.665h-9.526a25.128 25.128 0 013.982-12.665zm22.245-1.933v-9.657c4.02.51 7.57 4.175 9.92 9.657h-9.92zm10.67 1.933a41.068 41.068 0 012.173 12.665H51.403V36.824h10.67zM49.47 25.226v9.657h-9.912c2.35-5.474 5.899-9.139 9.912-9.65v-.007zm0 11.598v12.665H36.635c.055-4.31.788-8.583 2.173-12.665H49.47zM36.635 51.422H49.47v12.665H38.808a41.11 41.11 0 01-2.173-12.665zM49.47 66.02v9.657c-4.013-.518-7.562-4.183-9.912-9.657h9.912zm1.933 9.657V66.02h9.92c-2.35 5.474-5.9 9.139-9.92 9.657zm0-11.598V51.422h12.843a41.11 41.11 0 01-2.173 12.665l-10.67-.008zm14.776-14.598a42.732 42.732 0 00-2.111-12.665h7.654a25.13 25.13 0 013.982 12.665H66.18zm4.167-14.598H63.35a23.034 23.034 0 00-5.776-8.69 25.342 25.342 0 0112.773 8.698v-.008zm-27.062-8.69a23.049 23.049 0 00-5.783 8.69h-6.959A25.346 25.346 0 0143.308 26.2l-.024-.007zm-12.773 39.82h6.959a23.111 23.111 0 005.783 8.69 25.345 25.345 0 01-12.719-8.683l-.023-.008zm27.062 8.69a23.096 23.096 0 005.776-8.69h6.997a25.346 25.346 0 01-12.773 8.697v-.007z" fill="#696586"/><path d="M24.782 80.022a3.95 3.95 0 01-2.892-1.02.982.982 0 010-1.369.967.967 0 011.369 0c2.776 2.768 17.01-5.304 33.038-21.317C72.326 40.303 80.39 26.061 77.614 23.277a.965.965 0 010-1.368.96.96 0 011.361 0c4.694 4.693-7.477 21.935-21.317 35.768-11.745 11.776-26.002 22.345-32.876 22.345z" fill="#FD64B1"/><defs><linearGradient id="paint0_linear_22148_3712" x1="13.355" y1="13.412" x2="84.23" y2="84.312" gradientUnits="userSpaceOnUse"><stop stop-color="#F9F8FF"/><stop offset=".495" stop-color="#EFEDFF"/><stop offset="1" stop-color="#D8D4F3"/></linearGradient><linearGradient id="paint1_linear_22148_3712" x1="77" y1="0" x2="-3.417" y2="61.594" gradientUnits="userSpaceOnUse"><stop stop-color="#FF409C"/><stop offset="1" stop-color="#6F3DFF"/></linearGradient></defs></svg>