<svg width="98" height="15" fill="none" xmlns="http://www.w3.org/2000/svg"><path d="M97.707 8.207a1 1 0 000-1.414L91.343.429a1 1 0 10-1.414 1.414L95.586 7.5l-5.657 5.657a1 1 0 001.414 1.414l6.364-6.364zM.5 8.5h1.005v-2H.5v2zm5.026 0h2.01v-2h-2.01v2zm6.031 0h2.01v-2h-2.01v2zm6.031 0H19.6v-2h-2.01v2zm6.032 0h2.01v-2h-2.01v2zm6.031 0h2.01v-2h-2.01v2zm6.031 0h2.01v-2h-2.01v2zm6.032 0h2.01v-2h-2.01v2zm6.03 0h2.011v-2h-2.01v2zm6.032 0h2.01v-2h-2.01v2zm6.031 0h2.01v-2h-2.01v2zm6.031 0h2.011v-2h-2.01v2zm6.032 0h2.01v-2h-2.01v2zm6.031 0h2.01v-2h-2.01v2zm6.031 0h2.01v-2h-2.01v2zm6.031 0h2.011v-2h-2.01v2zm6.032 0H97v-2h-1.005v2z" fill="#696586"/></svg>