<svg width="195" height="15" fill="none" xmlns="http://www.w3.org/2000/svg"><path d="M194.707 8.207a1 1 0 000-1.414L188.343.429a1 1 0 10-1.414 1.414l5.657 5.657-5.657 5.657a1 1 0 101.414 1.414l6.364-6.364zM0 8.5h1.01v-2H0v2zm5.052 0h2.02v-2h-2.02v2zm6.063 0h2.02v-2h-2.02v2zm6.062 0h2.02v-2h-2.02v2zm6.063 0h2.02v-2h-2.02v2zm6.062 0h2.02v-2h-2.02v2zm6.063 0h2.02v-2h-2.02v2zm6.062 0h2.02v-2h-2.02v2zm6.063 0h2.02v-2h-2.02v2zm6.062 0h2.02v-2h-2.02v2zm6.063 0h2.02v-2h-2.02v2zm6.062 0h2.02v-2h-2.02v2zm6.063 0h2.02v-2h-2.02v2zm6.062 0h2.02v-2h-2.02v2zm6.063 0h2.02v-2h-2.02v2zm6.062 0h2.02v-2h-2.02v2zm6.063 0h2.02v-2h-2.02v2zm6.062 0h2.021v-2h-2.021v2zm6.063 0h2.02v-2h-2.02v2zm6.062 0h2.021v-2h-2.021v2zm6.063 0h2.02v-2h-2.02v2zm6.062 0h2.021v-2h-2.021v2zm6.063 0h2.02v-2h-2.02v2zm6.062 0h2.021v-2h-2.021v2zm6.063 0h2.02v-2h-2.02v2zm6.062 0h2.021v-2h-2.021v2zm6.063 0h2.02v-2h-2.02v2zm6.062 0h2.021v-2h-2.021v2zm6.063 0h2.02v-2h-2.02v2zm6.062 0h2.021v-2h-2.021v2zm6.063 0h2.02v-2h-2.02v2zm6.062 0h2.021v-2h-2.021v2zm6.063 0H194v-2h-1.01v2z" fill="#696586"/></svg>