<svg width="81" height="80" fill="none" xmlns="http://www.w3.org/2000/svg"><path d="M.5 25.6a6.4 6.4 0 016.4-6.4h67.2a6.4 6.4 0 016.4 6.4v44.8a6.4 6.4 0 01-6.4 6.4H6.9a6.4 6.4 0 01-6.4-6.4V25.6z" fill="url(#paint0_radial_22408_5542)"/><path fill-rule="evenodd" clip-rule="evenodd" d="M56.3 45.6h-5.4V51h5.4v-5.4zm-3.375 2.025h1.35v1.35h-1.35v-1.35zM59 45.6h2.7v2.7h2.7v5.4h-2.7V51H59v-5.4zm2.7 10.8v-2.7H50.9v5.4h2.7v-2.7h2.7v2.7H59v8.1h2.7v-5.4h2.7v5.4h8.1v-2.7h-5.4v-2.7h5.4v-8.1h-8.1v2.7h-2.7zm5.4 2.7h-2.7v2.7h2.7v-2.7zm0 0h2.7v-2.7h-2.7v2.7zm-5.4-2.7H59v2.7h2.7v-2.7zm-10.8 5.4v5.4h5.4v-5.4h-5.4zm2.025 2.025v1.35h1.35v-1.35h-1.35zM67.1 45.6h5.4V51h-5.4v-5.4zm2.025 2.025h1.35v1.35h-1.35v-1.35z" fill="url(#paint1_radial_22408_5542)"/><defs><radialGradient id="paint0_radial_22408_5542" cx="0" cy="0" r="1" gradientUnits="userSpaceOnUse" gradientTransform="matrix(49.59997 75.20002 -94.70248 62.46328 .5 12)"><stop stop-color="#F87DC6"/><stop offset="1" stop-color="#B32A74"/></radialGradient><radialGradient id="paint1_radial_22408_5542" cx="0" cy="0" r="1" gradientUnits="userSpaceOnUse" gradientTransform="matrix(21.22187 21.59998 -20.77552 20.41184 50.664 45.6)"><stop offset=".349" stop-color="#F1F3F7"/><stop offset="1" stop-color="#F0EEFF"/></radialGradient></defs></svg>