<svg width="81" height="80" fill="none" xmlns="http://www.w3.org/2000/svg"><path d="M.5 25.6a6.4 6.4 0 016.4-6.4h67.2a6.4 6.4 0 016.4 6.4v44.8a6.4 6.4 0 01-6.4 6.4H6.9a6.4 6.4 0 01-6.4-6.4V25.6z" fill="url(#paint0_radial_22408_5531)"/><path d="M72.366 65.578c-.635-3.021-1.266-6.044-1.9-9.067-.076-.368-.157-.735-.237-1.108h-2.424c-.718 0-1.136.277-1.415.94l-3.86 9.175c-.18.427-.357.856-.544 1.305 1.027 0 2.024.002 3.022-.006.053 0 .129-.084.152-.145.17-.448.338-.898.49-1.353.05-.153.117-.207.285-.206 1.106.009 2.213.012 3.32-.002.222-.002.286.074.32.272.086.477.195.95.296 1.434h2.76v-.081c-.088-.386-.184-.77-.265-1.158zm-5.78-2.817l1.524-4.185.035.006.875 4.179h-2.433zm-4.477-.151c-.106-.846-.61-1.472-1.301-1.928-.587-.386-1.221-.7-1.825-1.063a4.349 4.349 0 01-.756-.542c-.325-.306-.32-.724.02-1.015.198-.17.454-.304.706-.374.62-.173 1.256-.12 1.876.016.454.1.895.255 1.356.39l.517-2.409c-.35-.099-.672-.205-1.001-.28-.361-.082-.729-.138-1.093-.205h-1.386c-.056.014-.113.034-.17.04-1.042.127-2.02.426-2.845 1.1-.946.776-1.404 1.774-1.272 3.003.089.822.556 1.44 1.201 1.902.503.362 1.068.637 1.6.96.341.207.7.397 1 .654.454.392.406 1.02-.093 1.353-.23.153-.507.273-.779.323-1.044.195-2.05.016-3.025-.375-.205-.082-.404-.175-.617-.267l-.534 2.494c.037.023.058.04.082.05.082.033.163.068.247.095a9.426 9.426 0 003.835.434c.936-.087 1.833-.321 2.627-.846 1.261-.834 1.816-2.013 1.63-3.51zm-12.234-7.198c-.084-.004-.142-.008-.201-.008-.91-.001-1.82.003-2.73-.004-.146-.002-.211.044-.265.178-.968 2.458-1.943 4.914-2.918 7.371-.019.047-.047.09-.088.166-.026-.128-.046-.218-.063-.31-.393-2.079-.783-4.158-1.181-6.236-.141-.735-.678-1.165-1.422-1.165h-4.708c-.327 0-.327 0-.331.342l.114.028c.879.208 1.74.464 2.57.828.517.228.793.598.931 1.14.752 2.953 1.524 5.902 2.285 8.853.044.17.105.237.295.234.897-.012 1.793-.01 2.69-.002.164.001.247-.041.314-.202 1.415-3.38 2.837-6.756 4.258-10.133l.45-1.08zm4.234.004h-2.973l-2.45 11.408h.245c.815 0 1.63-.01 2.445.006.227.004.305-.065.351-.284.667-3.14 1.342-6.278 2.016-9.417l.366-1.713z" fill="url(#paint1_radial_22408_5531)"/><defs><radialGradient id="paint0_radial_22408_5531" cx="0" cy="0" r="1" gradientUnits="userSpaceOnUse" gradientTransform="matrix(49.59997 75.20002 -94.70248 62.46328 .5 12)"><stop stop-color="#F87DC6"/><stop offset="1" stop-color="#B32A74"/></radialGradient><radialGradient id="paint1_radial_22408_5531" cx="0" cy="0" r="1" gradientUnits="userSpaceOnUse" gradientTransform="matrix(36.02167 11.8069 -6.72334 20.51224 35.566 55.2)"><stop offset=".349" stop-color="#F1F3F7"/><stop offset="1" stop-color="#F0EEFF"/></radialGradient></defs></svg>