<svg width="81" height="80" fill="none" xmlns="http://www.w3.org/2000/svg"><path fill-rule="evenodd" clip-rule="evenodd" d="M31.7 11.2h17.6a4 4 0 014 4v4H27.7v-4a4 4 0 014-4zm-9.6 8v-4a9.6 9.6 0 019.6-9.6h17.6a9.6 9.6 0 019.6 9.6v4h15.2a6.4 6.4 0 016.4 6.4v44.8a6.4 6.4 0 01-6.4 6.4H6.9a6.4 6.4 0 01-6.4-6.4V25.6a6.4 6.4 0 016.4-6.4h15.2z" fill="url(#paint0_radial_22408_5553)"/><rect x="32.5" y="43.2" width="16" height="19.2" rx="2" fill="url(#paint1_radial_22408_5553)"/><defs><radialGradient id="paint0_radial_22408_5553" cx="0" cy="0" r="1" gradientUnits="userSpaceOnUse" gradientTransform="matrix(49.60016 92.95571 -105.78376 56.44507 .5 -3.3)"><stop stop-color="#F87DC6"/><stop offset="1" stop-color="#B32A74"/></radialGradient><radialGradient id="paint1_radial_22408_5553" cx="0" cy="0" r="1" gradientUnits="userSpaceOnUse" gradientTransform="matrix(15.71988 19.2 -18.1067 14.82475 32.325 43.2)"><stop offset=".349" stop-color="#F1F3F7"/><stop offset="1" stop-color="#F0EEFF"/></radialGradient></defs></svg>