<svg width="81" height="80" fill="none" xmlns="http://www.w3.org/2000/svg"><path fill-rule="evenodd" clip-rule="evenodd" d="M6.9 19.2a6.4 6.4 0 00-6.4 6.4V32a1.6 1.6 0 001.6 1.6h.8v36.8a6.4 6.4 0 006.4 6.4h62.4a6.4 6.4 0 006.4-6.4V33.6h.8a1.6 1.6 0 001.6-1.6v-6.4a6.4 6.4 0 00-6.4-6.4H6.9z" fill="url(#paint0_radial_22408_5565)"/><path fill-rule="evenodd" clip-rule="evenodd" d="M40.5 14.906c-3.473-4.473-7.84-7.268-11.869-8.524-2.579-.804-5.222-1.038-7.49-.466-2.312.583-4.62 2.169-5.234 5.108-.315 1.508-.342 3.305.43 5.115.776 1.819 2.209 3.295 4.183 4.428 2.9 1.663 7.279 2.765 13.636 3.19L25.775 36.29l5.12 3.57 5.73-8.569v45.526c0 .874.694 1.583 1.55 1.583h4.65c.856 0 1.55-.709 1.55-1.583V30.17l6.48 9.69 5.12-3.57-8.415-12.585c5.972-.458 10.13-1.538 12.92-3.138 1.974-1.133 3.407-2.61 4.183-4.428.772-1.81.745-3.607.43-5.115-.615-2.94-2.922-4.525-5.234-5.108-2.268-.572-4.911-.338-7.49.466-4.028 1.256-8.396 4.051-11.869 8.524zm-18.48-1.297c-.122-.289-.172-.674-.05-1.256l.006-.006c.05-.045.232-.178.651-.284.87-.22 2.331-.206 4.194.375 2.424.756 5.19 2.372 7.622 4.991-5.81-.399-9.112-1.365-10.886-2.383-1.08-.62-1.417-1.157-1.536-1.437zm36.959 0c.123-.289.173-.674.052-1.256l-.007-.006c-.05-.045-.232-.178-.651-.284-.87-.22-2.331-.206-4.194.375-2.424.756-5.19 2.372-7.623 4.991 5.81-.399 9.113-1.365 10.887-2.383 1.08-.62 1.417-1.157 1.536-1.437z" fill="url(#paint1_radial_22408_5565)"/><defs><radialGradient id="paint0_radial_22408_5565" cx="0" cy="0" r="1" gradientUnits="userSpaceOnUse" gradientTransform="matrix(49.59997 75.20002 -94.70248 62.46328 .5 12)"><stop stop-color="#F87DC6"/><stop offset="1" stop-color="#B32A74"/></radialGradient><radialGradient id="paint1_radial_22408_5565" cx="0" cy="0" r="1" gradientUnits="userSpaceOnUse" gradientTransform="matrix(48.73168 72.80001 -64.746 43.3404 15.157 5.6)"><stop offset=".349" stop-color="#E5E9F0"/><stop offset="1" stop-color="#F0EEFF"/></radialGradient></defs></svg>