<svg width="748" height="267" fill="none" xmlns="http://www.w3.org/2000/svg"><g clip-path="url(#clip0_22148_3663)" stroke-linecap="round" stroke-linejoin="round"><path opacity=".5" d="M546.64-7.1c-42.61-.77-85.25-1.11-127.85-3.59-21.15-1.22-42.28-2.95-63.31-5.48-20.6-2.48-41-5.88-61.5-9 6.09 12.43 12.32 24 18.63 34.38 33 54.41 85.8 126.9 141.41 181.11 55.61 54.21 114 90.14 158.14 71.42C683.3 231.57 753.98 87.01 734.87-1.49c-62.69.64-125.58-4.49-188.23-5.61z" stroke="#D9ABD6" stroke-width=".43"/><path opacity=".51" d="M546.64-7.1c-42.61-.77-85.25-1.11-127.85-3.59-21.15-1.22-42.28-2.95-63.31-5.48-21.86-2.63-43.5-6.29-65.24-9.52 6.4 12.48 12.92 23.9 19.55 34.19 23.64 36.74 56.84 82 93.49 124.75 16 18.58 32.61 36.52 49.36 52.84 56 54.62 112.18 91.7 156.4 73.21C679.7 229.79 749.43 86.01 729.62-1.41c-60.98.28-122.09-4.6-182.98-5.69z" stroke="#D8ABD7" stroke-width=".42"/><path opacity=".52" d="M546.64-7.1c-42.61-.77-85.25-1.11-127.85-3.59-21.15-1.22-42.28-2.95-63.31-5.48-23-2.77-45.82-6.69-68.72-10h-.31a362.598 362.598 0 0020.45 34c24.26 35.48 57.82 79.27 94.69 121.45 16.18 18.51 32.9 36.33 49.61 52.61 56.46 55 110.38 93.26 154.65 75 70.2-29 138.99-171.94 118.46-258.29-59.21-.01-118.52-4.64-177.67-5.7z" stroke="#D6ABD8" stroke-width=".42"/><path opacity=".53" d="M546.64-7.1c-42.61-.77-85.25-1.11-127.85-3.59-21.15-1.22-42.28-2.95-63.31-5.48-23-2.77-45.82-6.69-68.72-10-1.35-.16-2.71-.3-4.06-.45a330.617 330.617 0 0021.39 33.64c24.87 34.23 58.86 76.49 95.88 118.16 16.37 18.42 33.19 36.12 49.86 52.37 56.9 55.44 108.56 94.82 152.96 76.79C672.4 226.02 740.25 83.87 718.99-1.41c-57.45-.27-115-4.66-172.35-5.69z" stroke="#D5ABD9" stroke-width=".42"/><path opacity=".54" d="M546.64-7.1c-42.61-.77-85.25-1.11-127.85-3.59-21.15-1.22-42.28-2.95-63.31-5.48-23-2.77-45.82-6.69-68.72-10-2.61-.31-5.22-.58-7.82-.86a311.35 311.35 0 0022.25 33.34c25.6 32.88 59.96 73.69 97.12 114.83 16.56 18.33 33.47 35.93 50.11 52.14 57.33 55.84 106.75 96.39 151.16 78.59C668.79 224.14 735.66 82.79 713.65-1.45c-55.67-.5-111.44-4.65-167.01-5.65z" stroke="#D4AADA" stroke-width=".41"/><path opacity=".55" d="M546.64-7.1c-42.61-.77-85.25-1.11-127.85-3.59-21.15-1.22-42.28-2.95-63.31-5.48-23-2.77-45.82-6.69-68.72-10-3.887-.46-7.774-.887-11.66-1.28a286.448 286.448 0 0023.24 33c26.19 31.64 61 70.95 98.27 111.57a1314.09 1314.09 0 0050.36 51.91c57.76 56.25 104.94 98 149.42 80.38C665.08 222.28 731.03 81.6 708.24-1.49c-53.85-.72-107.81-4.65-161.6-5.61z" stroke="#D3AADA" stroke-width=".41"/><path opacity=".56" d="M546.64-7.1c-42.61-.77-85.25-1.11-127.85-3.59-21.15-1.22-42.28-2.95-63.31-5.48-23-2.77-45.82-6.69-68.72-10-5.17-.61-10.34-1.15-15.52-1.65a267.858 267.858 0 0024.28 32.61c26.82 30.36 62 68.17 99.47 108.27 16.94 18.15 34 35.54 50.61 51.68 58.19 56.66 103.12 99.51 147.68 82.17 68.19-26.53 133.19-166.52 109.63-248.5-52.12-.89-104.27-4.62-156.27-5.51z" stroke="#D1AADB" stroke-width=".41"/><path opacity=".57" d="M546.64-7.1c-42.61-.77-85.25-1.11-127.85-3.59-21.15-1.22-42.28-2.95-63.31-5.48-23-2.77-45.82-6.69-68.72-10-6.47-.77-12.95-1.43-19.43-2a249.578 249.578 0 0025.3 32.27c27.44 29.1 63.1 65.39 100.66 105 17.13 18.06 34.33 35.35 50.86 51.45 58.63 57.07 101.3 101.07 145.93 84C657.79 218.49 721.87 79.18 697.51-1.69 647.2-2.72 596.84-6.21 546.64-7.1z" stroke="#D0AADC" stroke-width=".41"/><path opacity=".58" d="M546.641-7.1c-42.61-.77-85.25-1.11-127.85-3.59-21.15-1.22-42.28-2.95-63.31-5.48-23-2.77-45.82-6.69-68.72-10-7.76-.953-15.55-1.76-23.37-2.42a234.432 234.432 0 0026.4 31.89c28.07 27.82 64.17 62.61 101.86 101.68 17.33 18 34.62 35.15 51.11 51.22 59.06 57.48 99.48 102.62 144.19 85.75 67.24-25.36 130.31-164.02 105.14-243.76-48.5-1.16-97.05-4.4-145.45-5.29z" stroke="#CFA9DD" stroke-width=".4"/><path opacity=".59" d="M546.64-7.1c-42.61-.77-85.25-1.11-127.85-3.59-21.15-1.22-42.28-2.95-63.31-5.48-23-2.77-45.82-6.69-68.72-10-9.12-1.08-18.25-2-27.39-2.7A220.219 220.219 0 00286.92 2.6c28.69 26.54 65.24 59.82 103.05 98.38 17.53 17.87 34.9 35 51.36 51 59.53 57.81 97.69 104.13 142.46 87.5C650.53 214.7 712.62 76.65 686.63-1.95c-46.67-1.26-93.4-4.32-139.99-5.15z" stroke="#CEA9DE" stroke-width=".4"/><path opacity=".6" d="M546.64-7.1c-42.61-.77-85.25-1.11-127.85-3.59-21.15-1.22-42.28-2.95-63.31-5.48-23-2.77-45.82-6.69-68.72-10a705.45 705.45 0 00-31.45-3A208.892 208.892 0 00284.1 1.79c29.32 25.27 66.31 57 104.25 95.09 17.73 17.78 35.19 34.76 51.61 50.76 59.92 58.29 95.83 105.73 140.7 89.34C646.91 212.79 708.01 75.34 681.17-2.11 636.3-3.45 591.41-6.3 546.64-7.1z" stroke="#CDA9DE" stroke-width=".4"/><path opacity=".61" d="M546.64-7.1c-42.61-.77-85.25-1.11-127.85-3.59-21.15-1.22-42.28-2.95-63.31-5.48-23-2.77-45.82-6.69-68.72-10-11.83-1.41-23.68-2.49-35.56-3.34a197.586 197.586 0 0030 30.62c29.94 24 67.4 54.25 105.45 91.79 17.93 17.69 35.47 34.57 51.86 50.52 60.36 58.71 94 107.3 139 91.14 65.77-23.63 125.89-160.5 98.21-236.79-43.06-1.45-86.13-4.1-129.08-4.87z" stroke="#CBA9DF" stroke-width=".39"/><path opacity=".62" d="M546.64-7.1c-42.61-.77-85.25-1.11-127.85-3.59-21.15-1.22-42.28-2.95-63.31-5.48-23-2.77-45.82-6.69-68.72-10-13.21-1.57-26.46-2.73-39.72-3.61 10 11.91 20.34 22 31.31 30.15 30.59 22.67 68.51 51.42 106.68 88.42 18.13 17.59 35.76 34.38 52.12 50.29 60.78 59.12 92.16 108.85 137.2 92.93C639.63 208.98 698.79 72.65 670.2-2.46c-41.22-1.44-82.41-3.9-123.56-4.64z" stroke="#CAA8E0" stroke-width=".39"/><path opacity=".63" d="M546.64-7.1c-42.61-.77-85.25-1.11-127.85-3.59-21.15-1.22-42.28-2.95-63.31-5.48-23-2.77-45.82-6.69-68.72-10-14.62-1.74-29.29-3-44-3.9 10.47 11.89 21.23 21.8 32.7 29.7 31.24 21.4 69.63 48.63 107.91 85.16 18.33 17.5 36.05 34.18 52.37 50.06 61.21 59.53 90.32 110.4 135.45 94.73 64.79-22.5 122.9-158.31 93.51-232.23-39.39-1.47-78.77-3.75-118.06-4.45z" stroke="#C9A8E1" stroke-width=".39"/><path opacity=".64" d="M546.639-7.1c-42.61-.77-85.25-1.11-127.85-3.59-21.15-1.22-42.28-2.95-63.31-5.48-23-2.77-45.82-6.69-68.72-10-15.97-1.95-32.1-3.26-48.23-4.19 10.92 11.85 22.14 21.58 34.15 29.2 31.77 20.17 70.65 45.88 109 81.9 18.54 17.4 36.34 34 52.63 49.83 61.64 59.94 88.49 112 133.71 96.52 64.3-21.94 121.38-157.24 91.1-230-37.51-1.42-75.04-3.52-112.48-4.19z" stroke="#C8A8E2" stroke-width=".39"/><path opacity=".65" d="M546.64-7.1c-42.61-.77-85.25-1.11-127.85-3.59-21.15-1.22-42.28-2.95-63.31-5.48-23-2.77-45.82-6.69-68.72-10-17.45-2.12-34.97-3.49-52.59-4.43 11.38 11.82 23.1 21.39 35.62 28.7 32.39 18.89 71.75 43.08 110.22 78.6 18.75 17.31 36.63 33.79 52.88 49.6 62.08 60.34 86.65 113.49 132 98.31 63.8-21.37 119.86-156.2 88.72-227.7-35.68-1.44-71.37-3.37-106.97-4.01z" stroke="#C7A8E2" stroke-width=".38"/><path opacity=".66" d="M546.64-7.1c-42.61-.77-85.25-1.11-127.85-3.59-21.15-1.22-42.28-2.95-63.31-5.48-23-2.77-45.82-6.69-68.72-10-19-2.25-38-3.7-57.09-4.63C241.54-19 253.78-9.63 266.93-2.6c33 17.62 72.83 40.28 111.41 75.3 19 17.21 36.91 33.6 53.13 49.37 62.51 60.75 84.81 115 130.22 100.1 63.32-20.82 118.32-155.18 86.29-225.45-33.78-1.45-67.6-3.22-101.34-3.82z" stroke="#C5A7E3" stroke-width=".38"/><path opacity=".67" d="M546.641-7.1c-42.61-.77-85.25-1.11-127.85-3.59-21.15-1.22-42.28-2.95-63.31-5.48-23-2.77-45.82-6.69-68.72-10-20.47-2.43-41-3.91-61.62-4.83 12.38 11.8 25.16 21 38.93 27.65 33.6 16.36 73.94 37.48 112.61 72 19.16 17.11 37.2 33.41 53.38 49.14 62.94 61.16 83 116.58 128.48 101.9 62.85-20.3 116.8-154.23 83.9-223.24-31.96-1.37-63.91-2.98-95.8-3.55z" stroke="#C4A7E4" stroke-width=".38"/><path opacity=".68" d="M546.64-7.1c-42.61-.77-85.25-1.11-127.85-3.59-21.15-1.22-42.28-2.95-63.31-5.48-23-2.77-45.82-6.69-68.72-10-22-2.61-44.12-4.13-66.25-5 12.92 11.8 26.28 20.75 40.71 27.11 34.2 15.08 75 34.67 113.8 68.71 19.37 17 37.49 33.21 53.63 48.91 63.41 61.5 81.14 118.05 126.77 103.62 62.37-19.71 115.2-153.23 81.37-220.98-30-1.3-60.13-2.76-90.15-3.3z" stroke="#C3A7E5" stroke-width=".38"/><path opacity=".69" d="M546.64-7.1c-42.61-.77-85.25-1.11-127.85-3.59-21.15-1.22-42.28-2.95-63.31-5.48-23-2.77-45.82-6.69-68.72-10-23.57-2.8-47.25-4.35-71-5.22 13.48 11.83 27.45 20.56 42.56 26.56 34.81 13.82 76.14 31.86 115 65.41 19.58 16.91 37.77 33 53.88 48.68 63.81 62 79.27 119.65 125 105.48C614.01 195.58 665.8 62.45 631.13-4c-28.14-1.28-56.34-2.6-84.49-3.1z" stroke="#C2A7E6" stroke-width=".37"/><path opacity=".7" d="M546.64-7.1c-42.61-.77-85.25-1.11-127.85-3.59-21.15-1.22-42.28-2.95-63.31-5.48-23-2.77-45.82-6.69-68.72-10-25.16-3-50.45-4.55-75.77-5.38a141.684 141.684 0 0044.52 26c35.44 12.49 77.28 28.99 116.28 62.05 19.79 16.81 38.06 32.82 54.13 48.45 64.24 62.39 77.42 121.19 123.24 107.27 61.31-18.61 112-151.36 76.47-216.51-26.39-1.16-52.71-2.34-78.99-2.81z" stroke="#C1A6E6" stroke-width=".37"/><path opacity=".71" d="M546.639-7.1c-42.61-.77-85.25-1.11-127.85-3.59-21.15-1.22-42.28-2.95-63.31-5.48-23-2.77-45.82-6.69-68.72-10-26.8-3.18-53.76-4.76-80.73-5.54a138.686 138.686 0 0046.66 25.35c36 11.29 78.36 26.24 117.39 58.83 20 16.7 38.35 32.62 54.38 48.21 64.67 62.79 75.57 122.71 121.5 109.11 60.83-18.11 110.38-150.5 73.98-214.33-24.46-1.08-48.9-2.13-73.3-2.56z" stroke="#BFA6E7" stroke-width=".37"/><path opacity=".72" d="M546.64-7.1c-42.61-.77-85.25-1.11-127.85-3.59-21.15-1.22-42.28-2.95-63.31-5.48-23-2.77-45.82-6.69-68.72-10-28.46-3.38-57.08-4.94-85.72-5.67A135.835 135.835 0 00249.8-7.06c36.6 10 79.47 23.42 118.58 55.53 20.22 16.59 38.63 32.43 54.63 48 65.15 63.14 73.78 124.18 119.78 110.8C603.08 189.79 651.53 57.7 614.27-4.79c-22.56-.99-45.11-1.91-67.63-2.31z" stroke="#BEA6E8" stroke-width=".36"/><path opacity=".73" d="M546.64-7.1c-42.61-.77-85.25-1.11-127.85-3.59-21.15-1.22-42.28-2.95-63.31-5.48-23-2.77-45.82-6.69-68.72-10-30.16-3.58-60.52-5.13-90.88-5.8a133.34 133.34 0 0051.06 24.16c37.25 8.74 80.62 20.6 119.85 52.2 20.44 16.49 38.92 32.23 54.88 47.75 65.51 63.65 71.82 125.76 117.98 112.65 59.76-17 107.06-148.68 69-209.82-20.71-.9-41.37-1.7-62.01-2.07z" stroke="#BDA6E9" stroke-width=".36"/><path opacity=".74" d="M602.979-5.27c-18.8-.8-37.58-1.5-56.34-1.83-42.61-.77-85.25-1.11-127.85-3.59-21.15-1.22-42.28-2.95-63.31-5.48-23-2.77-45.82-6.69-68.72-10-30.4-3.61-61-5.15-91.58-5.82l-4.57-.09a130.871 130.871 0 0053.48 23.53c37.8 7.52 81.7 17.79 121 48.94 20.65 16.38 39.2 32 55.14 47.52 66 64 70 127.28 116.26 114.44 59.08-16.38 105.15-147.2 66.74-207.17-.07-.17-.16-.32-.25-.45z" stroke="#BCA5E9" stroke-width=".36"/><path opacity=".75" d="M597.44-5.51c-16.95-.69-33.88-1.29-50.8-1.59-42.61-.77-85.25-1.11-127.85-3.59-21.15-1.22-42.28-2.95-63.31-5.48-23-2.77-45.82-6.69-68.72-10-30.4-3.61-61-5.15-91.58-5.82l-10-.19a129.1 129.1 0 0056 22.89c38.41 6.26 82.82 15 122.17 45.64 20.87 16.27 39.49 31.84 55.39 47.29 66.39 64.43 68.12 128.79 114.51 116.24 57.81-15.64 102.3-143 65.7-202.68-.43-.89-.97-1.79-1.51-2.71z" stroke="#BAA5EA" stroke-width=".36"/><path opacity=".75" d="M592.06-5.72c-15.15-.6-30.29-1.11-45.42-1.38-42.61-.77-85.25-1.11-127.85-3.59-21.15-1.22-42.28-2.95-63.31-5.48-23-2.77-45.82-6.69-68.72-10-30.4-3.61-61-5.15-91.58-5.82a6103.14 6103.14 0 00-15.5-.3c18.14 12.79 37.51 19.54 58.7 22.26 39 5 83.94 12.13 123.36 42.34 21.09 16.16 39.78 31.65 55.64 47.05 66.83 64.85 66.26 130.31 112.77 118 56.56-14.91 99.49-138.91 64.64-198.18-.85-1.52-1.78-3.17-2.73-4.9z" stroke="#B9A5EB" stroke-width=".35"/><path opacity=".76" d="M586.79-5.93c-13.4-.51-26.8-.93-40.18-1.17-42.58-.77-85.22-1.11-127.82-3.59-21.15-1.22-42.28-2.95-63.31-5.48-23-2.77-45.82-6.69-68.72-10-30.4-3.61-61-5.15-91.58-5.82-7.02-.147-14.056-.29-21.11-.43 18.9 13.11 39.23 19.49 61.49 21.6 39.6 3.76 85.07 9.31 124.56 39.05 21.31 16 40.06 31.46 55.89 46.82 67.26 65.25 64.39 131.81 111 119.83C582.25 180.7 623.64 60.1 590.61 1.2a237.519 237.519 0 01-3.82-7.13z" stroke="#B8A5EC" stroke-width=".35"/><path opacity=".77" d="M581.69-6.12c-11.69-.42-23.37-.77-35-1-42.66-.75-85.3-1.09-127.9-3.57-21.15-1.22-42.28-2.95-63.31-5.48-23-2.77-45.82-6.69-68.72-10-30.4-3.61-61-5.15-91.58-5.82-8.927-.213-17.884-.387-26.87-.52 19.67 13.51 41 19.49 64.4 21C272.91-9 318.9-5.04 358.46 24.24c21.53 15.89 40.33 31.21 56.14 46.55 67.69 65.66 62.52 133.3 109.28 121.62 53.91-13.48 93.81-130.62 62.54-189.19-1.49-2.79-3.07-5.92-4.73-9.34z" stroke="#B7A5ED" stroke-width=".35"/><path opacity=".78" d="M576.69-6.3c-10-.34-20-.607-30-.8-42.66-.77-85.3-1.11-127.9-3.59-21.15-1.22-42.28-2.95-63.31-5.48-23-2.77-45.82-6.69-68.72-10-30.4-3.61-61-5.15-91.58-5.82a2830.83 2830.83 0 00-32.76-.61c20.45 14 42.85 19.54 67.43 20.3 40.8 1.26 87.32 3.64 127 32.45 21.76 15.82 40.63 31.07 56.39 46.36 68.07 66.07 60.55 134.79 107.48 123.42 52.65-12.77 91-126.57 61.5-184.69-1.73-3.4-3.58-7.26-5.53-11.54z" stroke="#B6A4ED" stroke-width=".34"/><path opacity=".79" d="M571.79-6.46c-8.393-.273-16.777-.487-25.15-.64-42.61-.77-85.25-1.11-127.85-3.59-21.15-1.22-42.28-2.95-63.31-5.48-23-2.77-45.82-6.69-68.72-10-30.4-3.61-61-5.15-91.58-5.82a3112.941 3112.941 0 00-38.73-.68c21.22 14.53 44.73 19.61 70.54 19.62 41.41 0 88.45.8 128.15 29.16 22 15.7 40.92 30.87 56.64 46.13 68.56 66.48 58.77 136.27 105.79 125.21 51.35-12.08 88.22-122.48 60.44-180.19-1.92-3.99-4-8.59-6.22-13.72z" stroke="#B4A4EE" stroke-width=".34"/><path opacity=".8" d="M566.99-6.61c-6.794-.2-13.577-.363-20.35-.49-42.61-.77-85.25-1.11-127.85-3.59-21.15-1.22-42.28-2.95-63.31-5.48-23-2.77-45.82-6.69-68.72-10-30.4-3.61-61-5.15-91.58-5.82a3457.371 3457.371 0 00-44.79-.75c22 15.17 46.65 19.74 73.75 19 42-1.23 89.58-2 129.34 25.86 22.2 15.59 41.21 30.68 56.89 45.9 69 66.89 56.89 137.74 104.05 127 50-11.4 85.48-118.4 59.39-175.7a511.15 511.15 0 01-6.82-15.93z" stroke="#B3A4EF" stroke-width=".34"/><path opacity=".81" d="M562.29-6.74c-5.22-.147-10.437-.267-15.65-.36-42.61-.77-85.25-1.11-127.85-3.59-21.15-1.22-42.28-2.95-63.31-5.48-23-2.77-45.82-6.69-68.72-10-30.4-3.61-61-5.15-91.58-5.82-16.927-.393-33.897-.67-50.91-.83 22.72 15.92 48.58 19.93 77 18.29C263.89-17 311.99-19.42 351.8 8.03c22.44 15.47 41.5 30.49 57.15 45.67 69.42 67.29 55 139.2 102.3 128.79 48.76-10.7 82.75-114.32 58.35-171.2-2.21-5.15-4.66-11.22-7.31-18.03z" stroke="#B2A4F0" stroke-width=".34"/><path opacity=".82" d="M557.68-6.86c-3.68-.09-7.36-.18-11-.24-42.65-.77-85.29-1.11-127.89-3.59-21.15-1.22-42.28-2.95-63.31-5.48-23-2.77-45.82-6.69-68.72-10-30.4-3.61-61-5.15-91.58-5.82-19-.41-38.08-.66-57.12-.85l1 .68c23.2 16.18 50 19.45 79.37 16.92 43.22-3.71 91.85-7.73 131.72 19.27 22.67 15.35 41.79 30.29 57.4 45.44 69.85 67.7 53.13 140.66 100.56 130.59 47.43-10.07 80-110.27 57.29-166.71-2.31-5.77-4.9-12.56-7.72-20.21z" stroke="#B1A3F1" stroke-width=".33"/><path opacity=".83" d="M553.17-6.97c-2.18 0-4.35-.1-6.53-.13-42.61-.77-85.25-1.11-127.85-3.59-21.15-1.22-42.28-2.95-63.31-5.48-23-2.77-45.82-6.69-68.72-10-30.4-3.61-61-5.15-91.58-5.82-21.07-.5-42.18-.75-63.29-.95 1 .74 2.09 1.49 3.21 2.24 23.39 15.71 50.64 18 80.47 14.68 43.83-5 93-10.58 132.92 16 22.89 15.22 42.07 30.1 57.65 45.21 70.29 68.11 51.24 142.1 98.81 132.38 46.13-9.43 77.33-106.21 56.24-162.21-2.4-6.34-5.07-13.85-8.02-22.33z" stroke="#B0A3F1" stroke-width=".33"/><path opacity=".84" d="M548.79-7.06h-2.11c-42.65-.81-85.29-1.15-127.89-3.63-21.15-1.22-42.28-2.95-63.31-5.48-23-2.77-45.82-6.69-68.72-10-30.4-3.61-61-5.15-91.58-5.82-23.2-.5-46.4-.77-69.6-1 1.71 1.26 3.54 2.52 5.53 3.81 23.57 15.24 51.3 16.65 81.57 12.43 44.47-6.2 94.16-13.46 134.11 12.66 23.16 15.1 42.4 29.88 58 44.98 70.71 68.52 49.34 143.53 97.06 134.17 44.81-8.79 74.65-102.15 55.19-157.71-2.46-6.89-5.25-15.12-8.25-24.41z" stroke="#AEA3F2" stroke-width=".33"/><path opacity=".85" d="M544.43-7.14c-41.88-.74-83.78-1.15-125.6-3.55-21.15-1.22-42.28-2.95-63.31-5.48-23-2.77-45.82-6.69-68.72-10-30.4-3.61-61-5.15-91.58-5.82-23.21-.54-46.43-.81-69.65-1.01l-5.78.29c2.207 1.647 4.673 3.313 7.4 5 23.76 14.78 52 15.25 82.67 10.19 45-7.44 95.27-16.29 135.31 9.37 23.35 15 42.65 29.71 58.16 44.75 71.14 68.93 47.46 145 95.31 136 43.51-8.17 72-98.1 54.14-153.21-2.42-7.49-5.23-16.45-8.35-26.53z" stroke="#ADA3F3" stroke-width=".33"/><path opacity=".86" d="M540.19-7.21c-40.47-.7-80.95-1.16-121.36-3.48-21.15-1.22-42.28-2.95-63.31-5.48-9.09-1.09-18.14-2.37-27.18-3.72a95.876 95.876 0 0115.17 7.68c23.58 14.84 42.93 29.52 58.41 44.52 71.58 69.34 45.56 146.35 93.57 137.75 42.19-7.55 69.36-94.06 53.09-148.71-2.4-8.02-5.23-17.69-8.39-28.56z" stroke="#ACA2F4" stroke-width=".32"/><path opacity=".87" d="M536.04-7.29c-39.08-.65-78.18-1.16-117.21-3.4-21.15-1.22-42.28-2.95-63.31-5.48a850.241 850.241 0 01-17.59-2.32c1.32.73 2.63 1.48 3.92 2.28 23.81 14.71 43.22 29.32 58.66 44.29 72 69.74 43.67 147.74 91.83 139.55 40.87-7 66.74-90 52-144.23-2.32-8.61-5.13-19.04-8.3-30.69z" stroke="#ABA2F5" stroke-width=".32"/><path opacity=".88" d="M531.99-7.36c-37.73-.62-75.48-1.16-113.16-3.33-21.15-1.22-42.28-2.95-63.31-5.48-3.67-.44-7.33-.92-11-1.41C366.59-3.9 384.63 9.79 399.1 23.79c72.44 70.15 41.77 149.11 90.08 141.34 39.55-6.36 64.16-86 51-139.73-2.28-9.24-5.05-20.34-8.19-32.76z" stroke="#AAA2F5" stroke-width=".32"/><path opacity=".89" d="M528.03-7.42c-36.42-.6-72.84-1.18-109.2-3.27-21.15-1.22-42.28-2.95-63.31-5.48-1.61-.19-3.21-.41-4.81-.61 18.72 12 34.27 24 47 36.32C470.58 90.1 437.59 170 486.05 162.67c38.23-5.78 61.58-81.91 49.93-135.23-2.19-9.88-4.87-21.65-7.95-34.86z" stroke="#A8A2F6" stroke-width=".31"/><path opacity=".9" d="M524.16-7.49c-35.12-.58-70.25-1.18-105.33-3.2-20.77-1.2-41.52-2.89-62.17-5.35a275.407 275.407 0 0139.62 31.3c73.31 71 38 151.81 86.59 144.93 36.92-5.21 59-77.85 48.89-130.73-1.97-10.52-4.61-23.06-7.6-36.95z" stroke="#A7A1F7" stroke-width=".31"/><path opacity=".91" d="M520.4-7.55c-33.87-.56-67.75-1.2-101.57-3.14-18.89-1.09-37.75-2.59-56.54-4.7a256.29 256.29 0 0132.58 26.38c73.74 71.39 36.08 153.11 84.85 146.73 35.6-4.66 56.51-73.79 47.83-126.24-1.84-11.17-4.29-24.42-7.15-39.03z" stroke="#A6A1F8" stroke-width=".31"/><path opacity=".92" d="M516.73-7.61c-32.65-.55-65.3-1.21-97.9-3.08-17.12-1-34.21-2.32-51.26-4.13a237.375 237.375 0 0125.89 21.54c74.17 71.8 34.17 154.39 83.1 148.52 34.29-4.12 54-69.71 46.79-121.74-1.64-11.83-3.92-25.8-6.62-41.11z" stroke="#A5A1F9" stroke-width=".31"/><path opacity=".93" d="M513.17-7.67c-31.46-.54-62.92-1.21-94.34-3-15.47-.89-30.92-2.06-46.33-3.61a223.096 223.096 0 0119.55 16.75c74.6 72.2 32.27 155.64 81.36 150.31 33-3.58 51.52-65.62 45.73-117.24-1.35-12.53-3.47-27.22-5.97-43.21z" stroke="#A3A1F9" stroke-width=".3"/><path opacity=".94" d="M509.72-7.73c-30.31-.53-60.62-1.22-90.89-3-14-.81-27.9-1.84-41.82-3.17 4.9 4 9.443 8 13.63 12 75 72.61 30.37 156.86 79.61 152.1 31.66-3.05 49.05-61.51 44.69-112.74-1.15-13.14-2.95-28.53-5.22-45.19z" stroke="#A2A0FA" stroke-width=".3"/><path opacity=".95" d="M506.371-7.79c-29.19-.53-58.39-1.23-87.54-2.9a1205.907 1205.907 0 01-37.69-2.79c2.83 2.45 5.54 4.91 8.09 7.39 75.47 73 28.47 158 77.87 153.9 30.35-2.55 46.6-57.4 43.63-108.26-.81-13.93-2.35-30.03-4.36-47.34z" stroke="#A1A0FB" stroke-width=".3"/><path opacity=".96" d="M503.151-7.85c-28.12-.52-56.24-1.23-84.32-2.84a1277.387 1277.387 0 01-33.94-2.45c1 .92 2 1.85 2.94 2.78 75.89 73.43 26.56 159.15 76.12 155.69 29-2 44.16-53.25 42.58-103.76-.46-14.67-1.68-31.49-3.38-49.42z" stroke="#A0A0FC" stroke-width=".29"/><path opacity=".97" d="M418.79-10.69c-10.22-.593-20.43-1.313-30.63-2.16 73.74 73.44 23.33 158.46 72.63 155.7 27.75-1.55 41.74-49.09 41.53-99.26-.06-15.44-.92-33-2.28-51.5-27.08-.51-54.16-1.23-81.25-2.78z" stroke="#9FA0FD" stroke-width=".29"/><path opacity=".98" d="M418.79-10.69c-9.233-.54-18.457-1.18-27.67-1.92 67.64 72.78 18 154.94 66.48 153 26.45-1.07 39.33-44.91 40.48-94.76.38-16.23-.08-34.46-1.06-53.58-26.05-.52-52.14-1.26-78.23-2.74z" stroke="#9D9FFD" stroke-width=".29"/><path opacity=".99" d="M418.79-10.69a1259.317 1259.317 0 01-25-1.71c61.89 72.05 13.12 151.43 60.72 150.3 25.18-.6 36.93-40.72 39.43-90.27.87-17.05.86-36 .31-55.66-25.18-.5-50.31-1.18-75.46-2.66z" stroke="#9C9FFE" stroke-width=".29"/><path d="M418.79-10.69c-7.613-.44-15.216-.95-22.81-1.53 56.43 71.24 8.55 147.91 55.31 147.64 23.9-.14 34.54-36.49 38.38-85.77 1.39-17.91 1.89-37.53 1.8-57.73-24.2-.51-48.43-1.22-72.68-2.61z" stroke="#9B9FFF" stroke-width=".28"/><path opacity=".4" d="M776.69-2.8c-76.55 4.44-153.49-2.93-230-4.3-42.66-.77-85.3-1.11-127.9-3.59-21.15-1.22-42.28-2.95-63.31-5.48-23-2.77-45.82-6.69-68.72-10-30.4-3.61-61-5.15-91.58-5.82-23.17-.54-46.39-.81-69.61-1.01a4595.657 4595.657 0 01-71 3.17c82.49 114.7 188.21 187.68 211.68 155C370.31-20 585.12 182.33 718.57 61.47c26.3-23.81 47.43-45.18 63.63-64.6l-5.51.33z" stroke="#D9ABD6" stroke-width=".43"/><path opacity=".41" d="M546.64-7.1c-42.61-.77-85.25-1.11-127.85-3.59-21.15-1.22-42.28-2.95-63.31-5.48-23-2.77-45.82-6.69-68.72-10-30.4-3.61-61-5.15-91.58-5.82-23.17-.54-46.39-.81-69.61-1.01a4500.013 4500.013 0 01-70.94 3.16c79.78 112.41 181.4 183.83 206 151.58 106.91-140.41 315 56.17 447.49-61.78 25.69-23 46.43-43.61 62.44-62.43C696 1.24 621.15-5.76 546.64-7.1z" stroke="#D7ABD7" stroke-width=".43"/><path opacity=".43" d="M546.64-7.1c-42.61-.77-85.25-1.11-127.85-3.59-21.15-1.22-42.28-2.95-63.31-5.48-23-2.77-45.82-6.69-68.72-10-30.4-3.61-61-5.15-91.58-5.82-23.17-.54-46.39-.81-69.61-1.01a4595.657 4595.657 0 01-71 3.17c77.08 110.12 174.72 180 200.37 148.19 109.48-135.75 311.3 55.43 442.63-59.91 25.22-22.18 45.72-42.17 61.6-60.44C688.4.54 617.37-5.83 546.64-7.1z" stroke="#D6ABD8" stroke-width=".43"/><path opacity=".44" d="M546.64-7.1c-42.61-.77-85.25-1.11-127.85-3.59-21.15-1.22-42.28-2.95-63.31-5.48-23-2.77-45.82-6.69-68.72-10-30.4-3.61-61-5.15-91.58-5.82-23.17-.54-46.39-.81-69.61-1.01a4705.79 4705.79 0 01-71.27 3.18c74.41 107.87 168.22 176.17 195 144.81 111.82-131.2 307.49 54.48 437.77-58.05 24.85-21.47 45-40.85 60.77-58.59C680.79-.12 613.59-5.9 546.64-7.1z" stroke="#D4AAD9" stroke-width=".43"/><path opacity=".46" d="M546.64-7.1c-42.61-.77-85.25-1.11-127.85-3.59-21.15-1.22-42.28-2.95-63.31-5.48-23-2.77-45.82-6.69-68.72-10-30.4-3.61-61-5.15-91.58-5.82-23.17-.54-46.39-.81-69.61-1.01a4520.872 4520.872 0 01-71.68 3.19c71.77 105.6 161.9 172.36 189.72 141.42 114-126.65 303.72 53.57 433-56.18 24.5-20.81 44.46-39.63 60.07-56.9-63.35.72-126.82-4.5-190.04-5.63z" stroke="#D3AADA" stroke-width=".43"/><path opacity=".47" d="M546.64-7.1c-42.61-.77-85.25-1.11-127.85-3.59-21.15-1.22-42.28-2.95-63.31-5.48-23-2.77-45.82-6.69-68.72-10-30.4-3.61-61-5.15-91.58-5.82-23.17-.54-46.39-.81-69.61-1.01a4579.54 4579.54 0 01-72.23 3.21C122.47 73.6 209 138.76 237.95 108.21c115.89-122.2 299.92 52.68 428.11-54.3 24.21-20.19 44-38.49 59.47-55.31-59.62.05-119.37-4.63-178.89-5.7z" stroke="#D1AADB" stroke-width=".43"/><path opacity=".49" d="M546.64-7.1c-42.61-.77-85.25-1.11-127.85-3.59-21.15-1.22-42.28-2.95-63.31-5.48-23-2.77-45.82-6.69-68.72-10-30.4-3.61-61-5.15-91.58-5.82-23.17-.54-46.39-.81-69.61-1.01a4515.81 4515.81 0 01-72.94 3.23C119.17 71.4 202.24 134.97 232.29 104.85c117.6-117.88 296.12 51.74 423.27-52.45 24-19.63 43.55-37.45 59-53.84-56-.47-112.06-4.66-167.92-5.66z" stroke="#D0A9DC" stroke-width=".43"/><path opacity=".5" d="M546.64-7.1c-42.61-.77-85.25-1.11-127.85-3.59-21.15-1.22-42.28-2.95-63.31-5.48-23-2.77-45.82-6.69-68.72-10-30.4-3.61-61-5.15-91.58-5.82-23.17-.54-46.39-.81-69.61-1.01a4412.54 4412.54 0 01-73.78 3.26c64 99 143.72 160.92 174.86 131.21C345.79-12.16 518.94 152.3 645.06 50.89c23.73-19.1 43.21-36.46 58.53-52.47-52.33-.86-104.72-4.63-156.95-5.52z" stroke="#CEA9DD" stroke-width=".43"/><path opacity=".52" d="M546.64-7.1c-42.61-.77-85.25-1.11-127.85-3.59-21.15-1.22-42.28-2.95-63.31-5.48-23-2.77-45.82-6.69-68.72-10-30.4-3.61-61-5.15-91.58-5.82-23.17-.54-46.39-.81-69.61-1.01a4007.208 4007.208 0 01-74.81 3.3c61.46 96.72 138.03 157.09 170.22 127.79C341.44-11.4 509.46 148.01 634.56 49.38c23.6-18.59 42.93-35.54 58.23-51.18-48.76-1.14-97.53-4.41-146.15-5.3z" stroke="#CDA9DE" stroke-width=".43"/><path opacity=".53" d="M546.64-7.1c-42.61-.77-85.25-1.11-127.85-3.59-21.15-1.22-42.28-2.95-63.31-5.48-23-2.77-45.82-6.69-68.72-10-30.4-3.61-61-5.15-91.58-5.82-23.17-.54-46.39-.81-69.61-1.01-25.32 1.32-50.64 2.48-76 3.34 59 94.49 132.42 153.24 165.72 124.37 121.65-105.45 284.66 49 408.74-46.84 23.51-18.14 42.76-34.66 57.95-49.95-45.14-1.33-90.3-4.21-135.34-5.02z" stroke="#CBA9DF" stroke-width=".43"/><path opacity=".55" d="M546.64-7.1c-42.61-.77-85.25-1.11-127.85-3.59-21.15-1.22-42.28-2.95-63.31-5.48-23-2.77-45.82-6.69-68.72-10-30.4-3.61-61-5.15-91.58-5.82-23.17-.54-46.39-.81-69.61-1.01-25.747 1.333-51.5 2.46-77.26 3.38 56.53 92.26 127 149.38 161.35 121 122.69-101.59 280.83 48.04 403.9-45.02 23.39-17.69 42.56-33.83 57.72-48.78-41.57-1.44-83.16-3.94-124.64-4.68z" stroke="#CAA8E0" stroke-width=".43"/><path opacity=".56" d="M546.64-7.1c-42.61-.77-85.25-1.11-127.85-3.59-21.15-1.22-42.28-2.95-63.31-5.48-23-2.77-45.82-6.69-68.72-10-30.4-3.61-61-5.15-91.58-5.82-23.17-.54-46.39-.81-69.61-1.01-26.23 1.37-52.46 2.56-78.7 3.43C101 60.43 168.61 115.93 204 87.95c123.6-97.67 277 47.17 399.06-43.11 23.32-17.25 42.45-33 57.58-47.65-38.03-1.46-76.06-3.61-114-4.29z" stroke="#C8A8E1" stroke-width=".43"/><path opacity=".58" d="M546.64-7.1c-42.61-.77-85.25-1.11-127.85-3.59-21.15-1.22-42.28-2.95-63.31-5.48-23-2.77-45.82-6.69-68.72-10-30.4-3.61-61-5.15-91.58-5.82-23.17-.54-46.39-.81-69.61-1.01-26.78 1.4-53.51 2.61-80.28 3.49C97.07 58.25 161.94 112.07 198.35 84.58 322.73-9.37 471.5 130.79 592.56 43.33c23.29-16.83 42.39-32.24 57.48-46.54-34.49-1.45-68.98-3.28-103.4-3.89z" stroke="#C7A8E2" stroke-width=".43"/><path opacity=".59" d="M546.64-7.1c-42.61-.77-85.25-1.11-127.85-3.59-21.15-1.22-42.28-2.95-63.31-5.48-23-2.77-45.82-6.69-68.72-10-30.4-3.61-61-5.15-91.58-5.82-23.17-.54-46.39-.81-69.61-1.01-27.32 1.43-54.65 2.67-82 3.55C93.06 56.03 155.3 108.19 192.69 81.2 317.79-9.11 462 126.52 582.06 41.79c23.27-16.42 42.35-31.47 57.43-45.5-30.98-1.31-61.94-2.84-92.85-3.39z" stroke="#C5A7E3" stroke-width=".43"/><path opacity=".6" d="M546.64-7.1c-42.61-.77-85.25-1.11-127.85-3.59-21.15-1.22-42.28-2.95-63.31-5.48-23-2.77-45.82-6.69-68.72-10-30.4-3.61-61-5.15-91.58-5.82-23.17-.54-46.39-.81-69.61-1.01-27.94 1.46-55.88 2.73-83.84 3.61 47.24 83.18 106.96 133.68 145.3 107.18 125.66-86.75 265.45 44.42 384.52-37.48 23.28-16 42.35-30.71 57.41-44.45-27.46-1.21-54.91-2.47-82.32-2.96z" stroke="#C4A7E4" stroke-width=".43"/><path opacity=".62" d="M546.64-7.1c-42.61-.77-85.25-1.11-127.85-3.59-21.15-1.22-42.28-2.95-63.31-5.48-23-2.77-45.82-6.69-68.72-10-30.4-3.61-61-5.15-91.58-5.82-23.17-.54-46.39-.81-69.61-1.01-28.32 1.48-56.64 2.77-85 3.65h-.85C84.79 51.57 142.11 100.37 181.37 74.44 307.54-8.89 442.96 117.9 561.05 38.79c23.29-15.61 42.36-30 57.42-43.4-23.97-1.05-47.92-2.06-71.83-2.49z" stroke="#C2A7E5" stroke-width=".43"/><path opacity=".63" d="M546.64-7.1c-42.61-.77-85.25-1.11-127.85-3.59-21.15-1.22-42.28-2.95-63.31-5.48-23-2.77-45.82-6.69-68.72-10-30.4-3.61-61-5.15-91.58-5.82-23.17-.54-46.39-.81-69.61-1.01-28.32 1.48-56.64 2.77-85 3.65l-3 .08C80.5 49.31 135.51 96.42 175.65 71.06c126.6-80 257.71 42.53 374.83-33.78C573.79 22.1 592.87 8.1 607.92-5.06c-20.4-.88-40.85-1.68-61.28-2.04z" stroke="#C1A6E6" stroke-width=".43"/><path opacity=".65" d="M546.64-7.1c-42.61-.77-85.25-1.11-127.85-3.59-21.15-1.22-42.28-2.95-63.31-5.48-23-2.77-45.82-6.69-68.72-10-30.4-3.61-61-5.15-91.58-5.82-23.17-.54-46.39-.81-69.61-1.01-28.32 1.48-56.64 2.77-85 3.65l-5.17.14c40.86 76.23 93.69 121.64 134.66 96.88 127-76.72 253.84 41.59 370-31.91C563.39 21 582.47 7.36 597.52-5.51c-16.98-.7-33.94-1.29-50.88-1.59z" stroke="#BFA6E7" stroke-width=".43"/><path opacity=".66" d="M546.64-7.1c-42.61-.77-85.25-1.11-127.85-3.59-21.15-1.22-42.28-2.95-63.31-5.48-23-2.77-45.82-6.69-68.72-10-30.4-3.61-61-5.15-91.58-5.82-23.17-.54-46.39-.81-69.61-1.01-28.32 1.48-56.64 2.77-85 3.65l-7.57.22C71.88 44.73 122.62 88.43 164.37 64.3c127.29-73.55 250 40.65 365.15-30C552.87 19.98 571.95 6.69 587-5.88c-13.44-.55-26.91-.98-40.36-1.22z" stroke="#BEA6E8" stroke-width=".43"/><path opacity=".68" d="M546.64-7.1c-42.61-.77-85.25-1.11-127.85-3.59-21.15-1.22-42.28-2.95-63.31-5.48-23-2.77-45.82-6.69-68.72-10-30.4-3.61-61-5.15-91.58-5.82-23.17-.54-46.39-.81-69.61-1.01-28.32 1.48-56.64 2.77-85 3.65l-10.06.29c37 71.47 85.72 113.45 128.2 90 127.6-70.47 246.08 39.68 360.34-28.15 23.35-13.87 42.44-26.78 57.49-39-9.97-.43-19.94-.72-29.9-.89z" stroke="#BCA6E9" stroke-width=".43"/><path opacity=".69" d="M546.64-7.1c-42.61-.77-85.25-1.11-127.85-3.59-21.15-1.22-42.28-2.95-63.31-5.48-23-2.77-45.82-6.69-68.72-10-30.4-3.61-61-5.15-91.58-5.82-23.17-.54-46.39-.81-69.61-1.01-28.32 1.48-56.64 2.77-85 3.65-4.22.133-8.443.253-12.67.36 35.12 69.05 82 109.31 125.15 86.53C280.86-9.9 395.21 96.28 508.52 31.24c23.34-13.4 42.42-25.92 57.47-37.88-6.44-.193-12.89-.347-19.35-.46z" stroke="#BBA5EA" stroke-width=".43"/><path opacity=".71" d="M546.64-7.1c-42.61-.77-85.25-1.11-127.85-3.59-21.15-1.22-42.28-2.95-63.31-5.48-23-2.77-45.82-6.69-68.72-10-30.4-3.61-61-5.15-91.58-5.82-23.17-.54-46.39-.81-69.61-1.01-28.32 1.48-56.64 2.77-85 3.65-5.127.16-10.257.303-15.39.43 33.37 66.61 78.48 105.14 122.25 83.09 128-64.51 238.24 37.77 350.62-24.44 23.3-12.91 42.35-25 57.39-36.65-2.93-.07-5.87-.13-8.8-.18z" stroke="#B9A5EB" stroke-width=".43"/><path opacity=".72" d="M418.79-10.69c-21.15-1.22-42.28-2.95-63.31-5.48-23-2.77-45.82-6.69-68.72-10-30.4-3.61-61-5.15-91.58-5.82-23.17-.54-46.39-.81-69.61-1.01-28.32 1.48-56.64 2.77-85 3.65-6.08.187-12.157.353-18.23.5C54.03 35.29 97.46 72.09 141.79 50.79c128.2-61.64 234.32 36.79 345.78-22.58 23.22-12.37 42.22-24.05 57.22-35.35-42-.74-84-1.14-126-3.55z" stroke="#B8A5EC" stroke-width=".43"/><path opacity=".74" d="M418.79-10.69c-21.15-1.22-42.28-2.95-63.31-5.48-23-2.77-45.82-6.69-68.72-10-30.4-3.61-61-5.15-91.58-5.82-23.17-.54-46.39-.81-69.61-1.01-28.32 1.48-56.64 2.77-85 3.65-7.06.22-14.12.41-21.18.57C49.44 32.86 91.3 67.93 136.08 47.41c128.37-58.84 230.4 35.81 340.93-20.71 23.15-11.83 42.11-23.08 57.12-34-38.43-.66-76.9-1.18-115.34-3.39z" stroke="#B6A4ED" stroke-width=".43"/><path opacity=".75" d="M418.79-10.69c-21.15-1.22-42.28-2.95-63.31-5.48-23-2.77-45.82-6.69-68.72-10-30.4-3.61-61-5.15-91.58-5.82-23.17-.54-46.39-.81-69.61-1.01-28.32 1.48-56.64 2.77-85 3.65-8.08.253-16.157.467-24.23.64 28.57 59.12 68.95 92.5 114.11 72.74 128.54-56.11 226.46 34.81 336.09-18.84 23.07-11.29 42-22.09 57-32.69-34.94-.57-69.85-1.19-104.75-3.19z" stroke="#B5A4EE" stroke-width=".43"/><path opacity=".77" d="M418.79-10.69c-21.15-1.22-42.28-2.95-63.31-5.48-23-2.77-45.82-6.69-68.72-10-30.4-3.61-61-5.15-91.58-5.82-23.17-.54-46.39-.81-69.61-1.01-28.32 1.48-56.64 2.77-85 3.65-9.12.28-18.246.517-27.38.71 27.15 56.57 66.14 88.17 111.6 69.29 128.68-53.44 222.5 33.81 331.24-17 23-10.74 41.85-21.1 56.85-31.36-31.36-.5-62.73-1.18-94.09-2.98z" stroke="#B3A4EF" stroke-width=".43"/><path opacity=".78" d="M418.79-10.69c-21.15-1.22-42.28-2.95-63.31-5.48-23-2.77-45.82-6.69-68.72-10-30.4-3.61-61-5.15-91.58-5.82-23.17-.54-46.39-.81-69.61-1.01-28.32 1.48-56.64 2.77-85 3.65-10.213.32-20.42.577-30.62.77 25.79 54 63.47 83.88 109.16 65.85 128.84-50.83 218.55 32.78 326.4-15.1 22.94-10.19 41.78-20.12 56.79-30-27.82-.55-55.66-1.26-83.51-2.86z" stroke="#B2A3F0" stroke-width=".43"/><path opacity=".8" d="M418.79-10.69c-21.15-1.22-42.28-2.95-63.31-5.48-23-2.77-45.82-6.69-68.72-10-30.4-3.61-61-5.15-91.58-5.82-23.17-.54-46.39-.81-69.61-1.01-28.32 1.48-56.64 2.77-85 3.65-11.333.347-22.65.623-33.95.83 24.56 51.4 61 79.56 106.83 62.41 129-48.28 214.59 31.75 321.56-13.24 22.94-9.63 41.78-19.13 56.78-28.73-24.31-.5-48.65-1.21-73-2.61z" stroke="#B0A3F1" stroke-width=".43"/><path opacity=".81" d="M418.79-10.69c-21.15-1.22-42.28-2.95-63.31-5.48-23-2.77-45.82-6.69-68.72-10-30.4-3.61-61-5.15-91.58-5.82-23.17-.54-46.39-.81-69.61-1.01-28.32 1.48-56.64 2.77-85 3.65-12.454.393-24.904.69-37.35.89C26.67 20.32 62 46.79 107.79 30.51 237.01-15.27 318.43 61.2 424.54 19.14 447.45 10.06 466.31.98 481.38-8.3c-20.86-.5-41.72-1.19-62.59-2.39z" stroke="#AFA3F2" stroke-width=".43"/><path opacity=".82" d="M418.79-10.69c-21.15-1.22-42.28-2.95-63.31-5.48-23-2.77-45.82-6.69-68.72-10-30.4-3.61-61-5.15-91.58-5.82-23.17-.54-46.39-.81-69.61-1.01-28.32 1.48-56.64 2.77-85 3.65-13.6.42-27.203.753-40.81 1 22.41 46.07 56.69 70.8 102.41 55.49 129.37-43.35 206.62 29.65 311.87-9.51 23-8.54 41.87-17.2 57-26.2-17.41-.48-34.82-1.12-52.25-2.12z" stroke="#ADA3F3" stroke-width=".43"/><path opacity=".84" d="M418.79-10.69c-21.15-1.22-42.28-2.95-63.31-5.48-23-2.77-45.82-6.69-68.72-10-30.4-3.61-61-5.15-91.58-5.82-23.17-.54-46.39-.81-69.61-1.01-28.32 1.48-56.64 2.77-85 3.65-14.767.46-29.537.793-44.31 1C17.79 15.09 51.01 38.13 96.51 23.79c129.57-40.94 202.64 28.51 307-7.64 23.07-8 42.07-16.26 57.29-25-14.01-.47-28.01-1.04-42.01-1.84z" stroke="#ACA2F4" stroke-width=".43"/><path opacity=".85" d="M418.79-10.69c-21.15-1.22-42.28-2.95-63.31-5.48-23-2.77-45.82-6.69-68.72-10-30.4-3.61-61-5.15-91.58-5.82-23.17-.54-46.39-.81-69.61-1.01-28.32 1.48-56.64 2.77-85 3.65-15.927.493-31.853.847-47.78 1.06 20.56 40.73 52.9 62.08 98.06 48.67 129.8-38.59 198.65 27.41 302.19-5.77 23.23-7.44 42.37-15.33 57.75-23.82-10.667-.387-21.333-.88-32-1.48z" stroke="#AAA2F5" stroke-width=".43"/><path opacity=".87" d="M418.79-10.69c-21.15-1.22-42.28-2.95-63.31-5.48-23-2.77-45.82-6.69-68.72-10-30.4-3.61-61-5.15-91.58-5.82-23.17-.54-46.39-.81-69.61-1.01-28.32 1.48-56.64 2.77-85 3.65-17.12.527-34.253.907-51.4 1.14 19.88 38 51.35 57.71 96 45.25 130-36.27 194.65 26.24 297.34-3.9C406 6.24 425.34-1.29 440.85-9.58c-7.33-.35-14.68-.69-22.06-1.11z" stroke="#A9A2F6" stroke-width=".43"/><path opacity=".88" d="M418.79-10.69c-21.15-1.22-42.28-2.95-63.31-5.48-23-2.77-45.82-6.69-68.72-10-30.4-3.61-61-5.15-91.58-5.82-23.17-.54-46.39-.81-69.61-1.01-28.32 1.48-56.64 2.77-85 3.65-18.32.573-36.653.957-55 1.15C4.86 7.07 35.49 25.11 79.54 13.62c130.32-34 190.64 25.07 292.49-2 23.82-6.34 43.42-13.51 59.13-21.64-4.11-.19-8.22-.44-12.37-.67z" stroke="#A7A1F7" stroke-width=".43"/><path opacity=".9" d="M418.79-10.69c-21.15-1.22-42.28-2.95-63.31-5.48-23-2.77-45.82-6.69-68.72-10-30.4-3.61-61-5.15-91.58-5.82-23.17-.54-46.39-.81-69.61-1.01-28.32 1.48-56.64 2.77-85 3.65-19.48.607-38.98.987-58.5 1.14 18.72 32.56 48.55 49 91.81 38.45 130.63-31.77 186.64 23.87 287.65-.17 24.26-5.77 44.19-12.62 60.16-20.62l-2.9-.14z" stroke="#A6A1F8" stroke-width=".43"/><path opacity=".91" d="M355.52-16.21c-23-2.77-45.82-6.69-68.72-10-30.4-3.61-61-5.15-91.58-5.82-23.21-.5-46.43-.77-69.65-.97-28.32 1.48-56.64 2.77-85 3.65a2432.77 2432.77 0 01-62 1.21c18.25 29.75 47.31 44.55 89.6 35 131-29.57 182.64 22.63 282.81 1.7 24.77-5.18 45.11-11.71 61.4-19.64-18.96-1.19-37.95-2.82-56.86-5.13z" stroke="#A4A1F9" stroke-width=".43"/><path opacity=".93" d="M355.52-16.21c-23-2.77-45.82-6.69-68.72-10-30.4-3.61-61-5.15-91.58-5.82-23.21-.5-46.43-.77-69.65-.97-28.32 1.48-56.64 2.77-85 3.65a2807.07 2807.07 0 01-65.32 1.24C-6.83-1.16 21.43 12.06 62.56 3.48c131.35-27.4 178.64 21.36 278 3.57 25.42-4.55 46.27-10.8 62.93-18.73-16.04-1.12-32.03-2.53-47.97-4.53z" stroke="#A3A0FA" stroke-width=".43"/><path opacity=".94" d="M355.52-16.21c-23-2.77-45.82-6.69-68.72-10-30.4-3.61-61-5.15-91.58-5.82-23.21-.5-46.43-.77-69.65-.97-28.32 1.48-56.64 2.77-85 3.65a2692.756 2692.756 0 01-68.46 1.27C-10.31-3.93 17.11 7.73 56.9.1c131.76-25.26 174.65 20 273.13 5.44 26.2-3.89 47.66-9.87 64.77-17.86a934.473 934.473 0 01-39.28-3.89z" stroke="#A1A0FB" stroke-width=".43"/><path opacity=".96" d="M355.52-16.21c-23-2.77-45.82-6.69-68.72-10-30.4-3.61-61-5.15-91.58-5.82-23.21-.5-46.43-.77-69.65-.97-28.32 1.48-56.64 2.77-85 3.65-23.787.76-47.59 1.187-71.41 1.28C-13.51-6.72 13.1 3.41 51.25-3.27c132.2-23.17 170.66 18.69 268.28 7.29 27.1-3.16 49.26-8.9 66.9-17a907.447 907.447 0 01-30.91-3.23z" stroke="#A0A0FC" stroke-width=".43"/><path opacity=".97" d="M355.52-16.21c-23-2.77-45.82-6.69-68.72-10-30.4-3.61-61-5.15-91.58-5.82-23.21-.5-46.43-.77-69.65-.97-28.32 1.48-56.64 2.77-85 3.65a2711.986 2711.986 0 01-74 1.29c17.1 18.53 42.76 27.17 79 21.41 132.69-21.08 166.7 17.3 263.44 9.16 28.12-2.36 51.09-7.88 69.35-16.24a830.151 830.151 0 01-22.84-2.48z" stroke="#9EA0FD" stroke-width=".43"/><path opacity=".99" d="M355.52-16.21c-23-2.77-45.82-6.69-68.72-10-30.4-3.61-61-5.15-91.58-5.82-23.21-.5-46.43-.77-69.65-.97-28.32 1.48-56.64 2.77-85 3.65-25.353.76-50.723 1.193-76.11 1.3C-18.69-12.34 5.88-5.21 39.93-10.03c133.21-19 162.75 15.87 258.59 11 29.27-1.48 53.16-6.79 72.13-15.49a608.39 608.39 0 01-15.13-1.69z" stroke="#9D9FFE" stroke-width=".43"/><path d="M355.52-16.21c-23-2.77-45.82-6.69-68.72-10-30.4-3.61-61-5.15-91.58-5.82-23.21-.5-46.43-.77-69.65-.97-28.32 1.48-56.64 2.77-85 3.65-25.853.8-51.71 1.233-77.57 1.3 16.53 12.9 39.79 18.63 71.27 14.64C168.05-30.41 193.1.99 288.02-.51c30.52-.48 55.44-5.62 75.24-14.77-2.59-.28-5.16-.58-7.74-.93z" stroke="#9B9FFF" stroke-width=".43"/></g><defs><clipPath id="clip0_22148_3663"><path fill="#fff" d="M0 0h748v267H0z"/></clipPath></defs></svg>