<svg width="214" height="80" fill="none" xmlns="http://www.w3.org/2000/svg"><path d="M122.745 46.95l-3.774 11.663-3.775-11.663h-4.718l-3.85 11.559-3.652-11.56H97.56l5.935 18.231h5.53l3.642-11.04 3.539 11.04h5.53l5.935-18.23h-4.926zm75.018-15.098h3.548l4.265 6.039h6.982l-4.982-7.2a8.37 8.37 0 003.435-2.916 8.486 8.486 0 001.151-4.378 7.795 7.795 0 00-1.255-4.482 8.39 8.39 0 00-3.538-3.02 12.79 12.79 0 00-5.521-1.038h-10.644v23.025h6.606l-.047-6.03zm0-11.673h3.651a4.765 4.765 0 013.02.83 3.153 3.153 0 011.038 2.501 3.28 3.28 0 01-1.038 2.5 4.72 4.72 0 01-3.02.84h-3.651v-6.67zm-64.6 26.78l-8.125 18.23h5.313l1.462-3.538h7.71l1.453 3.539h5.426l-8.134-18.23h-5.105zm.104 10.833l2.396-5.832 2.397 5.832h-4.793zm-29.696-20.835a13.938 13.938 0 006.605 1.557c2.298.045 4.57-.49 6.606-1.557a10.739 10.739 0 004.576-4.275 11.07 11.07 0 001.67-6.143 11.319 11.319 0 00-1.67-6.152 12.116 12.116 0 00-4.576-4.275 13.817 13.817 0 00-6.606-1.349 13.64 13.64 0 00-6.605 1.557 11.176 11.176 0 00-4.577 4.17 12.154 12.154 0 000 12.268c1.1 1.8 2.686 3.253 4.577 4.19v.009zm1.151-13.871a5.377 5.377 0 012.293-2.293 6.484 6.484 0 013.227-.83 6.742 6.742 0 013.227.83 6.823 6.823 0 012.293 2.293 7.67 7.67 0 01.84 3.444 7.3 7.3 0 01-.84 3.435 6.292 6.292 0 01-2.396 2.293 6.458 6.458 0 01-3.227.83 6.236 6.236 0 01-5.521-3.123 7.126 7.126 0 01-.726-3.331 6.423 6.423 0 01.83-3.548zm57.306-8.125h-6.256l-4.898 14.796-4.576-14.796h-6.049l-4.897 14.692-4.718-14.692h-6.766l7.549 23.024h7.077l4.586-14.06 4.482 14.06h6.983l7.483-23.024zm25.006 42.812h7.549v-3.85h-7.549V50.79h8.643v-4.057h-13.852v18.23h14.154V61h-8.955l.01-3.227zm10.379-10.833v4.162h5.662v14.154h5.209V51.007h5.529v-4.161h-16.362l-.038.094zm-10.936-31.988h-6.464v12.267l-10.314-12.267h-5.416v23.005h6.492V25.794l10.314 12.267h5.426l-.038-23.11zM170.775 46.95h-5.209v18.23h13.966v-4.17h-8.757V46.95zm-17.192 0h-5.209v18.23h13.965v-4.17h-8.756V46.95z" fill="url(#paint0_radial_22408_5384)"/><path d="M40.004.015C47.536-.09 55.066.37 62.53 1.396a20.177 20.177 0 0116.075 16.077A150.357 150.357 0 0179.986 40a150.357 150.357 0 01-1.382 22.527A20.18 20.18 0 0162.53 78.604a150.259 150.259 0 01-22.525 1.382c-7.53.104-15.056-.358-22.516-1.382A20.177 20.177 0 011.412 62.527 150.363 150.363 0 01.014 40a150.362 150.362 0 011.382-22.527A20.18 20.18 0 0117.488 1.396 150.317 150.317 0 0140.004.015z" fill="url(#paint1_radial_22408_5384)"/><path d="M45.896 50.477v6.341h5.492v-6.341a3.379 3.379 0 013.378-3.379v-5.492a8.878 8.878 0 00-8.87 8.87zm-11.765-8.871a8.877 8.877 0 00-8.87 8.87v6.342h5.541v-6.341a3.378 3.378 0 116.757 0v6.341h5.492v-6.341a8.88 8.88 0 00-8.92-8.871zm15.626-11.55a3.379 3.379 0 01-6.756 0v-6.341h-5.492v6.34a3.378 3.378 0 11-6.757 0v-6.34h-5.491v6.34A8.855 8.855 0 0035.7 38.773a8.852 8.852 0 004.538-2.317 8.852 8.852 0 0014.977-6.4v-6.34h-5.491l.033 6.34zm-9.752-21.02A30.959 30.959 0 0011.4 28.15a30.968 30.968 0 0022.565 42.22A30.96 30.96 0 0070.967 40 30.967 30.967 0 0040.005 9.035zm0 56.461a25.493 25.493 0 01-23.554-15.74 25.5 25.5 0 0118.58-34.765A25.493 25.493 0 0165.5 40a25.499 25.499 0 01-25.495 25.497z" fill="url(#paint2_radial_22408_5384)"/><defs><radialGradient id="paint0_radial_22408_5384" cx="0" cy="0" r="1" gradientUnits="userSpaceOnUse" gradientTransform="matrix(132.042 0 0 57.2605 108.876 19.245)"><stop stop-color="#563BFF"/><stop offset="1" stop-color="#6A1BB8"/></radialGradient><radialGradient id="paint1_radial_22408_5384" cx="0" cy="0" r="1" gradientUnits="userSpaceOnUse" gradientTransform="matrix(90.6882 0 0 90.6975 7.928 7.121)"><stop stop-color="#563BFF"/><stop offset="1" stop-color="#6A1BB8"/></radialGradient><radialGradient id="paint2_radial_22408_5384" cx="0" cy="0" r="1" gradientUnits="userSpaceOnUse" gradientTransform="matrix(60.5171 0 0 60.5232 20.859 18.322)"><stop stop-color="#fff"/><stop offset=".36" stop-color="#F5F7FA"/><stop offset=".97" stop-color="#DBE3EE"/><stop offset="1" stop-color="#DAE2ED"/></radialGradient></defs></svg>