<svg width="41" height="40" fill="none" xmlns="http://www.w3.org/2000/svg"><g clip-path="url(#clip0_22148_3688)"><path d="M34.82 10.09H10.48a.59.59 0 110-1.17h24.34a3.39 3.39 0 000-6.78H10.68a.58.58 0 01-.59-.59.59.59 0 01.59-.59h24.14a4.57 4.57 0 010 9.13z" fill="#8272F2"/><path d="M34.82 32.09a.59.59 0 110-1.17 3.35 3.35 0 003.29-3.39V5.62a.59.59 0 01.59-.59.58.58 0 01.59.59v21.91a4.52 4.52 0 01-4.47 4.56z" fill="#8272F2"/><path d="M8.86 14.14a4.57 4.57 0 010-9.13H30.8a.59.59 0 01.59.59.58.58 0 01-.59.59H8.86a3.39 3.39 0 000 6.78.59.59 0 110 1.17zm25.086 13.815h-5.207a2.485 2.485 0 01-1.212-.149 2.86 2.86 0 01-1.056-.724 3.529 3.529 0 01-.717-1.174 4.061 4.061 0 01-.254-1.42c0-.49.086-.973.254-1.42a3.53 3.53 0 01.717-1.175 2.857 2.857 0 011.056-.724c.39-.15.804-.201 1.212-.15h5.207a.425.425 0 01.206.021.474.474 0 01.18.12.588.588 0 01.124.198.68.68 0 010 .483.59.59 0 01-.123.198.475.475 0 01-.181.12.416.416 0 01-.206.02h-5.207c-.518 0-1.015.245-1.382.682-.366.437-.572 1.029-.572 1.646 0 .618.206 1.21.572 1.647.367.436.864.682 1.382.682h5.207a.413.413 0 01.206.02.474.474 0 01.18.12.587.587 0 01.124.198.68.68 0 010 .483.59.59 0 01-.123.198.475.475 0 01-.181.12.415.415 0 01-.206.02v-.04z" fill="#313043"/><path d="M5.04 24.55a.59.59 0 01-.59-.59v-13.4a.59.59 0 111.17 0v13.4a.59.59 0 01-.58.59zm25.77 11.36H15.34a.59.59 0 110-1.17h15.47a3.39 3.39 0 003.38-3.39v-13.8a3.39 3.39 0 00-3.38-3.39H9.13a.59.59 0 01-.59-.59.6.6 0 01.59-.59h21.68a4.57 4.57 0 014.56 4.57v13.8a4.56 4.56 0 01-4.56 4.56z" fill="#313043"/><path d="M30.77 25.09h-1.9a.59.59 0 110-1.17h1.9a.59.59 0 010 1.17z" fill="#313043"/><path d="M9.67 38.4a8.17 8.17 0 118.18-8.17 8.18 8.18 0 01-8.18 8.17zm0-15.17a7 7 0 100 14 7 7 0 000-14z" fill="#8272F2"/><path fill-rule="evenodd" clip-rule="evenodd" d="M9.565 24.608c.341.051.574.354.52.675l-.152.893.504.077.15-.889c.056-.322.377-.54.719-.49.341.052.574.355.52.677l-.154.9c1.204.29 2.002 1.402 1.796 2.584a2.287 2.287 0 01-1.08 1.555 2.18 2.18 0 01.503 1.798c-.205 1.176-1.328 2.003-2.572 1.916l-.137.8c-.055.322-.377.54-.718.489-.342-.053-.574-.356-.519-.677l.136-.792-.504-.077-.135.79c-.056.322-.377.54-.719.488-.341-.052-.573-.355-.518-.676l.135-.79-1.314-.201c-.341-.052-.573-.355-.518-.677.055-.322.377-.54.719-.488l.4.06.954-5.54-.4-.061c-.342-.052-.574-.355-.519-.677.055-.322.377-.54.719-.488l1.315.2.151-.89c.055-.322.376-.54.718-.49zm-.747 2.594l-.377 2.185 2.417.371.023.004h.002c.638.098 1.242-.311 1.348-.918.105-.601-.33-1.17-.974-1.27l-2.44-.372zm-.577 3.35l-.377 2.19 2.44.373h.002c.638.099 1.242-.311 1.348-.918.105-.601-.33-1.17-.974-1.27l-.022-.004-2.27-.346a.68.68 0 01-.05-.01l-.097-.015z" fill="#8272F2"/></g><defs><clipPath id="clip0_22148_3688"><path fill="#fff" transform="translate(1.5 1)" d="M0 0h37.79v37.4H0z"/></clipPath></defs></svg>