<svg width="41" height="40" fill="none" xmlns="http://www.w3.org/2000/svg"><path d="M6.1 5.034a.566.566 0 000 1.131h3.735a.566.566 0 000-1.131H6.1zm28.634 4.694v7.914a.566.566 0 001.132 0V5.695c0-2.59-2.065-4.695-4.6-4.695H6.1C3.564 1 1.5 3.105 1.5 5.695c0 .117.01.235.018.353-.004.027-.018.054-.018.086v22.4c0 2.445 2.001 4.437 4.46 4.437h5.536a.566.566 0 000-1.132H5.959c-1.838 0-3.327-1.48-3.327-3.305V8.764a4.54 4.54 0 003.468 1.62.566.566 0 000-1.131c-1.915 0-3.468-1.598-3.468-3.563S4.189 2.132 6.1 2.132h25.162c1.914 0 3.467 1.598 3.467 3.563v.96a4.54 4.54 0 00-3.467-1.621H19.084a.566.566 0 000 1.131h12.178c1.914 0 3.467 1.599 3.467 3.563h.005zm4.201 3.826a.566.566 0 00-.566.566v6.093a3.375 3.375 0 01-3.373 3.373H29.18a.566.566 0 000 1.132h5.555v3.82c0 1.82-1.48 3.305-3.305 3.305h-5.206a.566.566 0 000 1.132h5.206a4.44 4.44 0 004.437-4.436v-3.907a4.512 4.512 0 003.635-4.419V14.12a.566.566 0 00-.566-.566zM26.26 24.138a.564.564 0 00.457-.23.57.57 0 00-.122-.793 2.486 2.486 0 01-1.023-2.005.566.566 0 00-1.132 0 3.63 3.63 0 001.49 2.924c.1.073.217.109.33.109v-.005z" fill="#313043"/><path d="M18.07 30.427l-1.042 1.47a.562.562 0 00.136.789c.1.072.213.104.326.104a.557.557 0 00.462-.24l1.04-1.472a.562.562 0 00-.135-.787.562.562 0 00-.788.136zm13.133-9.019a.57.57 0 00-.444-.665.573.573 0 00-.666.444 4.145 4.145 0 01-.706 1.625l-3.676 5.097-1.118-.805 3.644-5.053c.154-.212.277-.443.363-.697a.566.566 0 00-1.069-.371 1.62 1.62 0 01-.208.403l-3.645 5.052-2.716-1.96 3.645-5.053a1.669 1.669 0 011.887-.61.566.566 0 00.358-1.074 2.799 2.799 0 00-3.16 1.024l-3.644 5.052-1.118-.806 3.68-5.098a4.142 4.142 0 012.725-1.68 4.141 4.141 0 013.115.734c.457.33.838.743 1.127 1.218a.567.567 0 00.97-.588 5.244 5.244 0 00-1.431-1.549 5.292 5.292 0 00-3.962-.932 5.278 5.278 0 00-3.463 2.137l-3.771 5.224a2.823 2.823 0 00-3.115 1.05l-3.988 5.528a2.8 2.8 0 00-.498 2.11 2.823 2.823 0 001.136 1.842l7.592 5.478A2.832 2.832 0 0023 37.847l3.989-5.528a2.83 2.83 0 00-.367-3.721l3.694-5.12a5.27 5.27 0 00.901-2.065l-.013-.005zM26.06 31.653l-3.989 5.528a1.696 1.696 0 01-2.367.385l-7.592-5.478a1.693 1.693 0 01-.385-2.368l3.988-5.527a1.693 1.693 0 012.368-.385l7.592 5.478a1.7 1.7 0 01.385 2.372v-.005zm-5.71-21.73a.566.566 0 01-.566-.566 5.349 5.349 0 00-5.342-5.342A5.346 5.346 0 009.1 9.357a.566.566 0 01-1.132 0 6.481 6.481 0 016.474-6.474 6.478 6.478 0 016.474 6.474.566.566 0 01-.566.566z" fill="#8272F2"/><path d="M32.294 20.403h-4.79a.566.566 0 000 1.132h4.79a.566.566 0 000-1.132zm3.35-10.747a.567.567 0 00-.163 1.123 3.385 3.385 0 012.888 3.34 3.376 3.376 0 01-2.503 3.256V13.69a4.44 4.44 0 00-4.437-4.437H6.099a.566.566 0 000 1.132h25.33c1.82 0 3.305 1.48 3.305 3.305v3.802h-6.687a3.617 3.617 0 00-3.612 3.613.566.566 0 001.131 0 2.485 2.485 0 012.481-2.48h6.95A4.508 4.508 0 0039.5 14.12a4.523 4.523 0 00-3.857-4.46v-.004z" fill="#313043"/></svg>