<svg width="41" height="40" fill="none" xmlns="http://www.w3.org/2000/svg"><g clip-path="url(#clip0_22148_3703)"><path d="M2.08 14.19a.58.58 0 01-.58-.58v-1.37a4.8 4.8 0 013.15-4.31l21.41-6.78a2.78 2.78 0 012.47.32 2.75 2.75 0 011 2.26v6.44a.59.59 0 11-1.17 0V3.73a1.41 1.41 0 00-2-1.46L4.95 9.04a3.63 3.63 0 00-2.34 3.2v1.37a.58.58 0 01-.53.58z" fill="#313043"/><path d="M10.06 13.13a.59.59 0 01-.56-.41.6.6 0 01.39-.74l18.58-5.87a.59.59 0 01.74.39.57.57 0 01-.38.73l-18.59 5.88-.18.02zM7.87 25.79a.59.59 0 01-.55-.41l-2.58-7.82a.59.59 0 01.37-.74.6.6 0 01.75.38l2 6.11 1.51-4.64a.581.581 0 01.74-.37.568.568 0 01.37.74l-2.06 6.34a.59.59 0 01-.55.41zm4.67 1.42a.579.579 0 01-.59-.59v-6.94a.59.59 0 111.17 0v6.94a.58.58 0 01-.58.59zm5 1.46a2.228 2.228 0 01-.71-.11 3.728 3.728 0 01-2.17-1.89.592.592 0 01.232-.851.59.59 0 01.818.33 2.58 2.58 0 001.47 1.29.91.91 0 00.79-.06.7.7 0 00.23-.56c0-.71-.57-1.14-1.52-1.78-.95-.64-2.08-1.4-2.08-2.81a1.8 1.8 0 01.71-1.5 2.071 2.071 0 011.83-.25 3.77 3.77 0 012.18 1.9.6.6 0 01-.27.79.58.58 0 01-.78-.27 2.61 2.61 0 00-1.47-1.29.869.869 0 00-.79.06.67.67 0 00-.24.56c0 .73.59 1.18 1.56 1.83.97.65 2.05 1.38 2.05 2.76a1.8 1.8 0 01-.71 1.5 1.92 1.92 0 01-1.13.35zm7.9 2.55a.59.59 0 01-.56-.41l-2-6.09-1.5 4.62a.61.61 0 01-.75.37.59.59 0 01-.37-.74l2.06-6.31a.58.58 0 01.56-.41.59.59 0 01.56.4l2.57 7.79a.588.588 0 01-.37.75l-.2.03z" fill="#313043"/><path d="M24.54 29.5a.472.472 0 01-.17 0l-2.77-.85a.59.59 0 01-.39-.73.59.59 0 01.73-.39l2.77.85a.58.58 0 01.39.73.6.6 0 01-.56.39z" fill="#313043"/><path d="M30.24 29.66h-1.08a.59.59 0 01-.107-1.15.58.58 0 01.227-.02h1a8.86 8.86 0 10-8.16-12.31.58.58 0 01-.77.31.59.59 0 01-.32-.77 10 10 0 119.25 13.94h-.04z" fill="#8272F2"/><path d="M30.36 26.56c-.25.015-.5.015-.75 0a.583.583 0 01.13-1.16h.62a5.761 5.761 0 10-5.31-8 .59.59 0 11-1.08-.46 6.93 6.93 0 116.39 9.63v-.01z" fill="#8272F2"/><path d="M27.02 38.18a3.298 3.298 0 01-1-.15L4.61 31.26a4.83 4.83 0 01-3.15-4.32v-14a2.56 2.56 0 013.51-2.57l21.41 6.77a4.8 4.8 0 013.15 4.31v14a2.751 2.751 0 01-1 2.26 2.55 2.55 0 01-1.51.47zm-23-26.81a1.36 1.36 0 00-.8.25 1.55 1.55 0 00-.57 1.31v14a3.63 3.63 0 002.34 3.2L26.4 36.9a1.41 1.41 0 002-1.46v-14a3.61 3.61 0 00-2.34-3.19L4.65 11.48a1.922 1.922 0 00-.61-.11h-.02z" fill="#313043"/></g><defs><clipPath id="clip0_22148_3703"><path fill="#fff" transform="translate(1.5 1)" d="M0 0h38.78v37.18H0z"/></clipPath></defs></svg>