<svg width="35" height="30" fill="none" xmlns="http://www.w3.org/2000/svg"><path d="M13.83 30H0v-9.918c0-4.013.345-7.17 1.034-9.473.721-2.336 2.034-4.425 3.937-6.267C6.874 2.5 9.3 1.052 12.255 0l2.706 5.724c-2.756.92-4.74 2.204-5.955 3.848-1.18 1.645-1.804 3.833-1.87 6.563h6.693V30zm20.038 0h-13.83v-9.918c0-4.046.345-7.22 1.034-9.523.722-2.302 2.034-4.375 3.937-6.217C26.945 2.5 29.373 1.052 32.293 0L35 5.724c-2.756.92-4.741 2.204-5.955 3.848-1.181 1.645-1.805 3.833-1.87 6.563h6.693V30z" fill="#8272F2"/></svg>