<svg width="534" height="538" fill="none" xmlns="http://www.w3.org/2000/svg"><path d="M224.025 39.76c43.464-7.65 86.688-13.631 127.061-14.276a110.479 110.479 0 0164.105 20.506c19.097 13.347 34.216 31.714 41.233 53.111 12.681 38.177 22.261 80.151 30.017 124.051 7.755 43.9 13.677 86.518 14.303 126.817 0 22.944-7.183 45.314-20.546 63.983-13.372 19.06-31.774 34.15-53.213 41.153-38.247 12.677-80.306 22.219-124.29 29.959-43.984 7.741-86.684 13.651-127.061 14.276a110.483 110.483 0 01-64.106-20.507c-19.096-13.346-34.212-31.693-41.232-53.11-13.221-38.082-22.353-80.671-30.017-124.052-7.664-43.381-13.677-86.517-14.303-126.816a109.983 109.983 0 0120.546-63.983c13.372-19.06 31.774-34.15 53.213-41.153 37.639-13.085 80.305-22.219 124.29-29.96z" fill="url(#paint0_linear_22148_3673)"/><path d="M422.98 59.598l.006.004c18.989 13.27 33.992 31.513 40.949 52.729l.001.003c12.666 38.131 22.238 80.066 29.99 123.945 7.753 43.885 13.666 86.456 14.291 126.693-.001 22.785-7.135 45-20.406 63.54l-.004.006c-13.296 18.953-31.574 33.927-52.832 40.871l-.003.001c-38.2 12.661-80.22 22.195-124.184 29.932-43.97 7.739-86.621 13.64-126.937 14.264a109.726 109.726 0 01-63.663-20.367l-.006-.004c-18.99-13.271-33.989-31.493-40.95-52.729l-.003-.012c-13.202-38.026-22.326-80.567-29.987-123.936-7.662-43.367-13.666-86.455-14.292-126.692a109.233 109.233 0 0120.406-63.541h0l.004-.006c13.297-18.952 31.575-33.927 52.832-40.87h0l.013-.005c37.582-13.065 80.201-22.19 124.174-29.93 43.45-7.646 86.625-13.619 126.937-14.263a109.731 109.731 0 0163.664 20.367z" stroke="url(#paint1_linear_22148_3673)" stroke-width="1.5"/><defs><linearGradient id="paint0_linear_22148_3673" x1="242.689" y1="472.195" x2="253.515" y2="-17.16" gradientUnits="userSpaceOnUse"><stop stop-color="#48249D"/><stop offset="1" stop-color="#B6699C"/></linearGradient><linearGradient id="paint1_linear_22148_3673" x1="-23.741" y1="218.205" x2="26.374" y2="574.826" gradientUnits="userSpaceOnUse"><stop stop-color="#FF409C"/><stop offset="1" stop-color="#7A77FF"/></linearGradient></defs></svg>