<svg width="60" height="60" fill="none" xmlns="http://www.w3.org/2000/svg"><path d="M29.998 6c4.679 0 9.29.169 13.513.844 2.4.424 4.607 1.587 6.313 3.327a11.312 11.312 0 013.327 6.31c.606 4.477.888 8.991.845 13.508 0 4.732-.17 9.287-.845 13.508a11.704 11.704 0 01-3.327 6.332 11.327 11.327 0 01-6.313 3.322 94.103 94.103 0 01-13.513.845c-4.738 0-9.29-.17-13.513-.845a11.677 11.677 0 01-6.313-3.322 11.324 11.324 0 01-3.327-6.332C6.169 39.277 6 34.633 6 29.99c0-4.643.169-9.286.845-13.508a11.692 11.692 0 013.327-6.31 11.331 11.331 0 016.313-3.327C20.64 6.186 25.26 6 29.998 6z" fill="url(#paint0_linear_22148_3762)"/><path d="M19.11 59.986h-1.13a14.379 14.379 0 01-8.303-2.97 14.123 14.123 0 01-5.163-7.164c-1.294-4.204-2.3-9.079-3.246-15.791C.323 27.348-.071 22.389.01 17.977a14.375 14.375 0 012.971-8.3 14.07 14.07 0 017.16-5.162c4.151-1.29 9.025-2.293 15.79-3.246C32.645.319 37.6-.071 42.016.01a14.322 14.322 0 018.304 2.971 14.075 14.075 0 015.162 7.16 111.467 111.467 0 013.247 15.79c.95 6.713 1.34 11.673 1.258 16.084a14.399 14.399 0 01-2.97 8.304 14.083 14.083 0 01-7.16 5.158 111.645 111.645 0 01-15.791 3.247c-6.161.864-10.824 1.262-14.956 1.262zM40.89 1.212c-4.058 0-8.693.406-14.78 1.258-6.701.95-11.515 1.94-15.61 3.21a12.873 12.873 0 00-6.538 4.728 13.133 13.133 0 00-2.727 7.598c-.077 4.338.304 9.24 1.246 15.884s1.932 11.461 3.214 15.613a12.874 12.874 0 004.724 6.538 13.174 13.174 0 007.598 2.728c4.342.08 9.24-.309 15.889-1.25a110.09 110.09 0 0015.62-3.215 12.836 12.836 0 006.526-4.724 13.133 13.133 0 002.728-7.593c.08-4.343-.305-9.241-1.246-15.889a109.874 109.874 0 00-3.214-15.62 12.89 12.89 0 00-4.725-6.53A13.166 13.166 0 0042 1.223a50.965 50.965 0 00-1.108-.012z" fill="url(#paint1_linear_22148_3762)"/><path fill-rule="evenodd" clip-rule="evenodd" d="M24.84 21.822a.7.7 0 100 1.4c6.896 0 12.491 5.592 12.491 12.492a.7.7 0 101.4 0c0-7.674-6.222-13.892-13.892-13.892zm-.7 5.703a.7.7 0 01.7-.7 8.89 8.89 0 018.888 8.89.7.7 0 11-1.4 0 7.49 7.49 0 00-7.489-7.49.7.7 0 01-.7-.7zm0 5.003a.7.7 0 01.7-.7 3.886 3.886 0 013.886 3.886.7.7 0 11-1.4 0 2.486 2.486 0 00-2.487-2.486.7.7 0 01-.7-.7z" fill="#48249D"/><path fill-rule="evenodd" clip-rule="evenodd" d="M17.215 18.7a3.515 3.515 0 00-3.515 3.515v14.734a3.515 3.515 0 003.515 3.515h26.32a3.515 3.515 0 003.515-3.515V22.215a3.515 3.515 0 00-3.515-3.515h-26.32zM12.3 22.215c0-2.715 2.2-4.915 4.915-4.915h26.32c2.715 0 4.915 2.2 4.915 4.915v14.734c0 2.715-2.2 4.915-4.915 4.915h-26.32a4.915 4.915 0 01-4.915-4.915V22.215z" fill="#FD64B1"/><defs><linearGradient id="paint0_linear_22148_3762" x1="8.893" y1="8.925" x2="49.716" y2="49.764" gradientUnits="userSpaceOnUse"><stop stop-color="#F4F2FF"/><stop offset=".495" stop-color="#EAE7FD"/><stop offset="1" stop-color="#CCC8EB"/></linearGradient><linearGradient id="paint1_linear_22148_3762" x1="48.229" y1="1.577" x2="11.764" y2="58.395" gradientUnits="userSpaceOnUse"><stop stop-color="#FF5CDE"/><stop offset="1" stop-color="#5E46FA"/></linearGradient></defs></svg>