<svg width="60" height="60" fill="none" xmlns="http://www.w3.org/2000/svg"><path d="M29.998 6c4.679 0 9.29.169 13.513.844 2.4.424 4.607 1.587 6.313 3.327a11.312 11.312 0 013.327 6.31c.606 4.477.888 8.991.845 13.508 0 4.732-.17 9.287-.845 13.508a11.704 11.704 0 01-3.327 6.332 11.327 11.327 0 01-6.313 3.322 94.103 94.103 0 01-13.513.845c-4.738 0-9.29-.17-13.513-.845a11.677 11.677 0 01-6.313-3.322 11.324 11.324 0 01-3.327-6.332C6.169 39.277 6 34.633 6 29.99c0-4.643.169-9.286.845-13.508a11.692 11.692 0 013.327-6.31 11.331 11.331 0 016.313-3.327C20.64 6.186 25.26 6 29.998 6z" fill="url(#paint0_linear_22148_3753)"/><path d="M19.11 59.986h-1.13a14.379 14.379 0 01-8.303-2.97 14.123 14.123 0 01-5.163-7.164c-1.294-4.204-2.3-9.079-3.246-15.791C.323 27.348-.071 22.389.01 17.977a14.375 14.375 0 012.971-8.3 14.07 14.07 0 017.16-5.162c4.151-1.29 9.025-2.293 15.79-3.246C32.645.319 37.6-.071 42.016.01a14.322 14.322 0 018.304 2.971 14.075 14.075 0 015.162 7.16 111.467 111.467 0 013.247 15.79c.95 6.713 1.34 11.673 1.258 16.084a14.399 14.399 0 01-2.97 8.304 14.083 14.083 0 01-7.16 5.158 111.645 111.645 0 01-15.791 3.247c-6.161.864-10.824 1.262-14.956 1.262zM40.89 1.212c-4.058 0-8.693.406-14.78 1.258-6.701.95-11.515 1.94-15.61 3.21a12.873 12.873 0 00-6.538 4.728 13.133 13.133 0 00-2.727 7.598c-.077 4.338.304 9.24 1.246 15.884s1.932 11.461 3.214 15.613a12.874 12.874 0 004.724 6.538 13.174 13.174 0 007.598 2.728c4.342.08 9.24-.309 15.889-1.25a110.09 110.09 0 0015.62-3.215 12.836 12.836 0 006.526-4.724 13.133 13.133 0 002.728-7.593c.08-4.343-.305-9.241-1.246-15.889a109.874 109.874 0 00-3.214-15.62 12.89 12.89 0 00-4.725-6.53A13.166 13.166 0 0042 1.223a50.965 50.965 0 00-1.108-.012z" fill="url(#paint1_linear_22148_3753)"/><path fill-rule="evenodd" clip-rule="evenodd" d="M16.35 14a.65.65 0 01.65-.65h22.572a.65.65 0 01.65.65v16.874a.65.65 0 11-1.3 0V14.65H17.65v28.573h14.544a.65.65 0 110 1.3H17a.65.65 0 01-.65-.65V14z" fill="#48249D"/><path fill-rule="evenodd" clip-rule="evenodd" d="M22.567 18.964a.65.65 0 01.65-.65h10.138a.65.65 0 110 1.3H23.217a.65.65 0 01-.65-.65zm-2.801 6.768a.65.65 0 01.65-.65h7.096a.65.65 0 010 1.3h-7.096a.65.65 0 01-.65-.65zm11.404 0a.65.65 0 01.65-.65h3.525a.65.65 0 110 1.3H31.82a.65.65 0 01-.65-.65zm-11.404 4.022a.65.65 0 01.65-.65h7.096a.65.65 0 110 1.3h-7.096a.65.65 0 01-.65-.65zm0 4.026a.65.65 0 01.65-.65h6.754a.65.65 0 010 1.3h-6.754a.65.65 0 01-.65-.65zm0 4.022a.65.65 0 01.65-.65h7.096a.65.65 0 110 1.3h-7.096a.65.65 0 01-.65-.65z" fill="#48249D"/><path fill-rule="evenodd" clip-rule="evenodd" d="M34.741 32.303c-1.146-.3-2.185-.237-2.881.167a.65.65 0 01-.653-1.124c1.107-.643 2.538-.647 3.863-.3 1.339.35 2.679 1.085 3.668 2.074a.65.65 0 11-.92.92c-.814-.815-1.945-1.44-3.077-1.736z" fill="#FD64B1"/><path fill-rule="evenodd" clip-rule="evenodd" d="M28.66 30.195v.001l-.004.004c-3.083 3.098-2.27 8.571 1.37 12.21l2.96 2.96c.739.742.713 1.348.674 2.29-.01.235-.021.492-.021.776 0 .692.301 1.41.855 1.963.983.983 2.57 1.082 3.58.073l3.01-3.011a3.426 3.426 0 004.845-4.845l3.011-3.011.002-.002c1.007-1.013.903-2.6-.075-3.577-.554-.554-1.271-.856-1.962-.856-.287 0-.544.011-.78.021-.944.04-1.548.066-2.286-.673l-2.96-2.96c-3.64-3.64-9.12-4.454-12.215-1.366M45.01 43.535l-3.005 3.006a2.127 2.127 0 003.005-3.005zM29.582 31.112c-2.39 2.396-1.99 7.026 1.363 10.38l2.962 2.96c1.175 1.18 1.107 2.419 1.053 3.42-.011.198-.021.387-.021.564 0 .32.145.714.474 1.044.53.529 1.292.521 1.74.073L48.02 38.687c.45-.453.454-1.217-.071-1.742-.33-.33-.724-.474-1.043-.474-.178 0-.368.01-.567.02-1.003.055-2.242.122-3.418-1.053l-2.96-2.96c-3.353-3.353-7.986-3.753-10.378-1.366z" fill="#FD64B1"/><path fill-rule="evenodd" clip-rule="evenodd" d="M38.31 43.66a.65.65 0 010 .918l-3.261 3.261a.65.65 0 01-.92-.919l3.262-3.26a.65.65 0 01.919 0z" fill="#FD64B1"/><defs><linearGradient id="paint0_linear_22148_3753" x1="8.893" y1="8.925" x2="49.716" y2="49.764" gradientUnits="userSpaceOnUse"><stop stop-color="#F4F2FF"/><stop offset=".495" stop-color="#EAE7FD"/><stop offset="1" stop-color="#CCC8EB"/></linearGradient><linearGradient id="paint1_linear_22148_3753" x1="48.229" y1="1.577" x2="11.764" y2="58.395" gradientUnits="userSpaceOnUse"><stop stop-color="#FF5CDE"/><stop offset="1" stop-color="#5E46FA"/></linearGradient></defs></svg>