<svg width="60" height="60" fill="none" xmlns="http://www.w3.org/2000/svg"><path d="M29.998 6c4.679 0 9.29.169 13.513.844 2.4.424 4.607 1.587 6.313 3.327a11.312 11.312 0 013.327 6.31c.606 4.477.888 8.991.845 13.508 0 4.732-.17 9.287-.845 13.508a11.704 11.704 0 01-3.327 6.332 11.327 11.327 0 01-6.313 3.322 94.103 94.103 0 01-13.513.845c-4.738 0-9.29-.17-13.513-.845a11.677 11.677 0 01-6.313-3.322 11.324 11.324 0 01-3.327-6.332C6.169 39.277 6 34.633 6 29.99c0-4.643.169-9.286.845-13.508a11.692 11.692 0 013.327-6.31 11.331 11.331 0 016.313-3.327C20.64 6.186 25.26 6 29.998 6z" fill="url(#paint0_linear_22148_3756)"/><path d="M19.11 59.986h-1.13a14.379 14.379 0 01-8.303-2.97 14.123 14.123 0 01-5.163-7.164c-1.294-4.204-2.3-9.079-3.246-15.791C.323 27.348-.071 22.389.01 17.977a14.375 14.375 0 012.971-8.3 14.07 14.07 0 017.16-5.162c4.151-1.29 9.025-2.293 15.79-3.246C32.645.319 37.6-.071 42.016.01a14.322 14.322 0 018.304 2.971 14.075 14.075 0 015.162 7.16 111.467 111.467 0 013.247 15.79c.95 6.713 1.34 11.673 1.258 16.084a14.399 14.399 0 01-2.97 8.304 14.083 14.083 0 01-7.16 5.158 111.645 111.645 0 01-15.791 3.247c-6.161.864-10.824 1.262-14.956 1.262zM40.89 1.212c-4.058 0-8.693.406-14.78 1.258-6.701.95-11.515 1.94-15.61 3.21a12.873 12.873 0 00-6.538 4.728 13.133 13.133 0 00-2.727 7.598c-.077 4.338.304 9.24 1.246 15.884s1.932 11.461 3.214 15.613a12.874 12.874 0 004.724 6.538 13.174 13.174 0 007.598 2.728c4.342.08 9.24-.309 15.889-1.25a110.09 110.09 0 0015.62-3.215 12.836 12.836 0 006.526-4.724 13.133 13.133 0 002.728-7.593c.08-4.343-.305-9.241-1.246-15.889a109.874 109.874 0 00-3.214-15.62 12.89 12.89 0 00-4.725-6.53A13.166 13.166 0 0042 1.223a50.965 50.965 0 00-1.108-.012z" fill="url(#paint1_linear_22148_3756)"/><path fill-rule="evenodd" clip-rule="evenodd" d="M27.224 27.528c0-1.187.964-2.151 2.151-2.151.815 0 1.525.454 1.89 1.129a.65.65 0 001.143-.619 3.446 3.446 0 00-3.033-1.81 3.453 3.453 0 00-3.45 3.451v4.338a3.45 3.45 0 006.628 1.343.65.65 0 10-1.199-.506 2.15 2.15 0 01-4.13-.837v-4.338zm-17.144-3.42a.65.65 0 00-.65.65v9.94c0 .36.291.65.65.65h4.615a.65.65 0 100-1.3H10.73v-3.667h3.335a.65.65 0 100-1.3H10.73v-3.673h3.965a.65.65 0 000-1.3H10.08zm37.299 1.269a2.153 2.153 0 00-2.151 2.151v4.338c0 1.187.964 2.15 2.15 2.15a2.153 2.153 0 002.152-2.15v-4.338a2.153 2.153 0 00-2.151-2.151zm0-1.3a3.453 3.453 0 00-3.451 3.451v4.338a3.453 3.453 0 003.45 3.45 3.453 3.453 0 003.452-3.45v-4.338a3.453 3.453 0 00-3.451-3.451zm-29.655 0a.65.65 0 00-.65.65v9.971a.65.65 0 001.3 0V30.38h2.074l1.852 4.563a.65.65 0 101.204-.49l-1.715-4.225a3.155 3.155 0 002.183-3 3.15 3.15 0 00-3.152-3.151h-3.096zm3.096 5.003h-2.446v-3.703h2.446a1.85 1.85 0 110 3.703zm18.298-3.703a1.8 1.8 0 00-1.798 1.798.65.65 0 11-1.3 0 3.099 3.099 0 016.197 0c0 .94-.384 1.866-.887 2.699-.508.84-1.174 1.645-1.82 2.354-.444.486-.895.945-1.283 1.34-.152.155-.294.299-.421.431h3.76a.65.65 0 010 1.3h-5.074a.65.65 0 01-.65-.65c0-.211.083-.386.136-.483a2.44 2.44 0 01.22-.325c.161-.204.38-.44.618-.688.158-.165.328-.338.507-.52.38-.387.799-.813 1.226-1.281.623-.683 1.225-1.416 1.668-2.15.449-.743.7-1.428.7-2.027 0-.99-.808-1.798-1.799-1.798zM37.113 34.8l.004-.008a.053.053 0 01-.004.008zm-4.664-5.756a.65.65 0 100 1.3H34.9a.65.65 0 100-1.3h-2.45z" fill="#48249D"/><path fill-rule="evenodd" clip-rule="evenodd" d="M16.314 21.401a16.092 16.092 0 0113.771-7.75c5.835 0 10.945 3.102 13.772 7.75a.65.65 0 101.11-.675c-3.052-5.02-8.574-8.376-14.881-8.376-6.308 0-11.835 3.356-14.883 8.376a.65.65 0 001.111.675zm0 16.707a.65.65 0 10-1.11.676c3.052 5.02 8.574 8.376 14.881 8.376 6.308 0 11.83-3.357 14.883-8.376a.65.65 0 00-1.111-.675c-2.827 4.648-7.937 7.75-13.771 7.75-5.835 0-10.945-3.102-13.772-7.75z" fill="#FD64B1"/><defs><linearGradient id="paint0_linear_22148_3756" x1="8.893" y1="8.925" x2="49.716" y2="49.764" gradientUnits="userSpaceOnUse"><stop stop-color="#F4F2FF"/><stop offset=".495" stop-color="#EAE7FD"/><stop offset="1" stop-color="#CCC8EB"/></linearGradient><linearGradient id="paint1_linear_22148_3756" x1="48.229" y1="1.577" x2="11.764" y2="58.395" gradientUnits="userSpaceOnUse"><stop stop-color="#FF5CDE"/><stop offset="1" stop-color="#5E46FA"/></linearGradient></defs></svg>