<svg width="60" height="60" fill="none" xmlns="http://www.w3.org/2000/svg"><path d="M29.998 6c4.679 0 9.29.169 13.513.844 2.4.424 4.607 1.587 6.313 3.327a11.312 11.312 0 013.327 6.31c.606 4.477.888 8.991.845 13.508 0 4.732-.17 9.287-.845 13.508a11.704 11.704 0 01-3.327 6.332 11.327 11.327 0 01-6.313 3.322 94.103 94.103 0 01-13.513.845c-4.738 0-9.29-.17-13.513-.845a11.677 11.677 0 01-6.313-3.322 11.324 11.324 0 01-3.327-6.332C6.169 39.277 6 34.633 6 29.99c0-4.643.169-9.286.845-13.508a11.692 11.692 0 013.327-6.31 11.331 11.331 0 016.313-3.327C20.64 6.186 25.26 6 29.998 6z" fill="url(#paint0_linear_22148_3750)"/><path d="M19.11 59.986h-1.13a14.379 14.379 0 01-8.303-2.97 14.123 14.123 0 01-5.163-7.164c-1.294-4.204-2.3-9.079-3.246-15.791C.323 27.348-.071 22.389.01 17.977a14.375 14.375 0 012.971-8.3 14.07 14.07 0 017.16-5.162c4.151-1.29 9.025-2.293 15.79-3.246C32.645.319 37.6-.071 42.016.01a14.322 14.322 0 018.304 2.971 14.075 14.075 0 015.162 7.16 111.467 111.467 0 013.247 15.79c.95 6.713 1.34 11.673 1.258 16.084a14.399 14.399 0 01-2.97 8.304 14.083 14.083 0 01-7.16 5.158 111.645 111.645 0 01-15.791 3.247c-6.161.864-10.824 1.262-14.956 1.262zM40.89 1.212c-4.058 0-8.693.406-14.78 1.258-6.701.95-11.515 1.94-15.61 3.21a12.873 12.873 0 00-6.538 4.728 13.133 13.133 0 00-2.727 7.598c-.077 4.338.304 9.24 1.246 15.884s1.932 11.461 3.214 15.613a12.874 12.874 0 004.724 6.538 13.174 13.174 0 007.598 2.728c4.342.08 9.24-.309 15.889-1.25a110.09 110.09 0 0015.62-3.215 12.836 12.836 0 006.526-4.724 13.133 13.133 0 002.728-7.593c.08-4.343-.305-9.241-1.246-15.889a109.874 109.874 0 00-3.214-15.62 12.89 12.89 0 00-4.725-6.53A13.166 13.166 0 0042 1.223a50.965 50.965 0 00-1.108-.012z" fill="url(#paint1_linear_22148_3750)"/><path fill-rule="evenodd" clip-rule="evenodd" d="M14.709 21.45a7.8 7.8 0 1113.155 5.672 11.02 11.02 0 00-5.444-1.43c-1.933 0-3.75.496-5.332 1.367a7.777 7.777 0 01-2.38-5.609zm1.253 6.321a9.1 9.1 0 1113.02.076 11.054 11.054 0 014.508 8.916c0 6.113-4.956 11.07-11.07 11.07s-11.07-4.957-11.07-11.07c0-3.704 1.819-6.982 4.612-8.992zm12.015.955a9.76 9.76 0 014.213 8.037c0 5.395-4.374 9.77-9.77 9.77s-9.77-4.375-9.77-9.77a9.76 9.76 0 014.307-8.101 9.06 9.06 0 005.552 1.889 9.06 9.06 0 005.468-1.825zm-1.23-.725a7.764 7.764 0 01-4.238 1.25 7.764 7.764 0 01-4.313-1.3 9.731 9.731 0 014.224-.958A9.73 9.73 0 0126.747 28z" fill="#FD64B1"/><path fill-rule="evenodd" clip-rule="evenodd" d="M39.85 12.782a.65.65 0 01-.236.888 2.034 2.034 0 00-.987 1.746c0 .912.711 1.615 1.54 1.615.476 0 .747-.176.969-.462.258-.334.436-.802.653-1.397l.021-.058c.195-.534.43-1.18.813-1.684.434-.572 1.061-.972 1.971-.972 1.588 0 2.84 1.327 2.84 2.915 0 1.147-.607 2.274-1.634 2.87a.65.65 0 11-.653-1.124 2.04 2.04 0 00.988-1.745c0-.912-.712-1.616-1.54-1.616-.458 0-.72.172-.937.458-.254.335-.43.803-.647 1.401l-.013.034c-.197.542-.437 1.2-.834 1.714-.443.571-1.08.966-1.997.966-1.587 0-2.84-1.327-2.84-2.915 0-1.152.608-2.274 1.635-2.87a.65.65 0 01.888.236zm5.111 29.764a.65.65 0 01.849-.354 2.98 2.98 0 01-1.13 5.74h-4.494a2.98 2.98 0 01-1.221-5.703.65.65 0 01.534 1.185 1.682 1.682 0 00.687 3.218h4.493a1.68 1.68 0 00.636-3.238.65.65 0 01-.354-.848zm-4.775-4.064a1.68 1.68 0 110-3.358h4.488a1.68 1.68 0 110 3.358h-4.488zm-2.981-1.68a2.98 2.98 0 002.98 2.98h4.49a2.98 2.98 0 100-5.958h-4.49a2.98 2.98 0 00-2.98 2.979zm.22-6.549a.65.65 0 01.65-.65h8.71a.65.65 0 110 1.3h-8.71a.65.65 0 01-.65-.65zm.65-9.424a.65.65 0 100 1.3h6.061l-6.361 3.323a.65.65 0 00.3 1.226h8.71a.65.65 0 100-1.3h-6.061l6.362-3.323a.65.65 0 00-.301-1.226h-8.71z" fill="#48249D"/><defs><linearGradient id="paint0_linear_22148_3750" x1="8.893" y1="8.925" x2="49.716" y2="49.764" gradientUnits="userSpaceOnUse"><stop stop-color="#F4F2FF"/><stop offset=".495" stop-color="#EAE7FD"/><stop offset="1" stop-color="#CCC8EB"/></linearGradient><linearGradient id="paint1_linear_22148_3750" x1="48.229" y1="1.577" x2="11.764" y2="58.395" gradientUnits="userSpaceOnUse"><stop stop-color="#FF5CDE"/><stop offset="1" stop-color="#5E46FA"/></linearGradient></defs></svg>