<svg width="60" height="60" fill="none" xmlns="http://www.w3.org/2000/svg"><path d="M29.998 6c4.679 0 9.29.169 13.513.844 2.4.424 4.607 1.587 6.313 3.327a11.312 11.312 0 013.327 6.31c.606 4.477.888 8.991.845 13.508 0 4.732-.17 9.287-.845 13.508a11.704 11.704 0 01-3.327 6.332 11.327 11.327 0 01-6.313 3.322 94.103 94.103 0 01-13.513.845c-4.738 0-9.29-.17-13.513-.845a11.677 11.677 0 01-6.313-3.322 11.324 11.324 0 01-3.327-6.332C6.169 39.277 6 34.633 6 29.99c0-4.643.169-9.286.845-13.508a11.692 11.692 0 013.327-6.31 11.331 11.331 0 016.313-3.327C20.64 6.186 25.26 6 29.998 6z" fill="url(#paint0_linear_22148_3759)"/><path d="M19.11 59.986h-1.13a14.379 14.379 0 01-8.303-2.97 14.123 14.123 0 01-5.163-7.164c-1.294-4.204-2.3-9.079-3.246-15.791C.323 27.348-.071 22.389.01 17.977a14.375 14.375 0 012.971-8.3 14.07 14.07 0 017.16-5.162c4.151-1.29 9.025-2.293 15.79-3.246C32.645.319 37.6-.071 42.016.01a14.322 14.322 0 018.304 2.971 14.075 14.075 0 015.162 7.16 111.467 111.467 0 013.247 15.79c.95 6.713 1.34 11.673 1.258 16.084a14.399 14.399 0 01-2.97 8.304 14.083 14.083 0 01-7.16 5.158 111.645 111.645 0 01-15.791 3.247c-6.161.864-10.824 1.262-14.956 1.262zM40.89 1.212c-4.058 0-8.693.406-14.78 1.258-6.701.95-11.515 1.94-15.61 3.21a12.873 12.873 0 00-6.538 4.728 13.133 13.133 0 00-2.727 7.598c-.077 4.338.304 9.24 1.246 15.884s1.932 11.461 3.214 15.613a12.874 12.874 0 004.724 6.538 13.174 13.174 0 007.598 2.728c4.342.08 9.24-.309 15.889-1.25a110.09 110.09 0 0015.62-3.215 12.836 12.836 0 006.526-4.724 13.133 13.133 0 002.728-7.593c.08-4.343-.305-9.241-1.246-15.889a109.874 109.874 0 00-3.214-15.62 12.89 12.89 0 00-4.725-6.53A13.166 13.166 0 0042 1.223a50.965 50.965 0 00-1.108-.012z" fill="url(#paint1_linear_22148_3759)"/><path d="M39.468 25.172h-1.334a8.504 8.504 0 00-1.237-2.98l.944-.943a1.01 1.01 0 000-1.429l-.968-.967a1.01 1.01 0 00-1.43 0l-.942.943a8.327 8.327 0 00-2.98-1.237v-1.333c0-.558-.457-1.01-1.01-1.01h-1.372c-.558 0-1.01.456-1.01 1.01v1.333a8.502 8.502 0 00-2.98 1.237l-.943-.943a1.01 1.01 0 00-1.43 0l-.967.967a1.01 1.01 0 000 1.43l.943.943a8.327 8.327 0 00-1.237 2.979h-1.333c-.558 0-1.01.457-1.01 1.01v1.372c0 .559.457 1.011 1.01 1.011h1.333a8.502 8.502 0 001.237 2.98l-.943.943a1.01 1.01 0 000 1.429l.967.967a1.01 1.01 0 001.43 0l.943-.943a8.327 8.327 0 002.98 1.237v1.333c0 .558.456 1.01 1.01 1.01h1.372c.558 0 1.01-.456 1.01-1.01v-1.333a8.504 8.504 0 002.98-1.237l.943.943a1.01 1.01 0 001.43 0l.967-.967a1.01 1.01 0 000-1.43l-.944-.943a8.327 8.327 0 001.237-2.979h1.334c.558 0 1.01-.457 1.01-1.01v-1.372c0-.559-.457-1.011-1.01-1.011v0z" stroke="#FD64B1" stroke-width="1.3" stroke-linecap="round" stroke-linejoin="round"/><path d="M29.817 31.453a4.582 4.582 0 100-9.164 4.582 4.582 0 000 9.164z" stroke="#FD64B1" stroke-width="1.3" stroke-linecap="round" stroke-linejoin="round"/><path d="M42.72 13H17.295A5.291 5.291 0 0012 18.294V35.77a5.291 5.291 0 005.294 5.294H34.65l6.93 7.58v-7.58h1.136a5.291 5.291 0 005.294-5.294V18.294A5.291 5.291 0 0042.716 13h.005z" stroke="#48249D" stroke-width="1.3" stroke-linecap="round" stroke-linejoin="round"/><defs><linearGradient id="paint0_linear_22148_3759" x1="8.893" y1="8.925" x2="49.716" y2="49.764" gradientUnits="userSpaceOnUse"><stop stop-color="#F4F2FF"/><stop offset=".495" stop-color="#EAE7FD"/><stop offset="1" stop-color="#CCC8EB"/></linearGradient><linearGradient id="paint1_linear_22148_3759" x1="48.229" y1="1.577" x2="11.764" y2="58.395" gradientUnits="userSpaceOnUse"><stop stop-color="#FF5CDE"/><stop offset="1" stop-color="#5E46FA"/></linearGradient></defs></svg>