<svg width="256" height="110" fill="none" xmlns="http://www.w3.org/2000/svg"><g clip-path="url(#clip0_22148_3743)"><path d="M18.733 88.615c-1.826-.985-3.879-1.483-6.17-1.483-2.292 0-4.355.498-6.19 1.483-1.836.985-3.274 2.358-4.316 4.09C1.016 94.436.5 96.397.5 98.566c0 2.169.516 4.12 1.557 5.861 1.042 1.742 2.48 3.105 4.316 4.09 1.835.995 3.898 1.483 6.19 1.483 2.291 0 4.344-.498 6.17-1.483 1.825-.985 3.263-2.348 4.315-4.09 1.051-1.741 1.577-3.692 1.577-5.86 0-2.17-.526-4.12-1.577-5.862-1.052-1.742-2.49-3.105-4.315-4.09zm-.169 13.613a6.377 6.377 0 01-2.47 2.508c-1.052.597-2.222.905-3.522.905-1.299 0-2.48-.298-3.531-.905a6.377 6.377 0 01-2.47-2.508c-.595-1.075-.893-2.299-.893-3.662s.298-2.587.893-3.662a6.379 6.379 0 012.47-2.508c1.051-.597 2.222-.895 3.531-.895 1.31 0 2.48.298 3.522.895a6.379 6.379 0 012.47 2.508c.595 1.075.893 2.299.893 3.662s-.298 2.587-.893 3.662zm32.478.946L46.002 87.5h-4.721l-5.198 15.544-4.98-15.543h-5.288l7.242 22.111h5.446l5.01-14.977 4.85 14.977h5.476l7.212-22.111h-4.88l-5.13 15.673zm28.013-2.239L68.094 87.51h-4.216v22.112h5.04V96.198l10.99 13.424h4.187V87.51h-5.04v13.425zm28.193-1.155c.783-1.184 1.18-2.607 1.18-4.249 0-1.642-.387-3.065-1.161-4.269-.773-1.204-1.884-2.13-3.323-2.776-1.438-.657-3.134-.986-5.089-.986h-9.543v22.112h5.1v-6.16h4.691l4.246 6.16h5.476l-4.94-7.105c1.448-.627 2.569-1.543 3.353-2.737l.01.01zm-5.179-1.403c-.793.677-1.964 1.015-3.491 1.015H94.42V91.68h4.157c1.537 0 2.698.328 3.491.995.794.667 1.201 1.622 1.201 2.856 0 1.234-.397 2.17-1.201 2.846zm47.725-10.867l-5.129 15.673-5.039-15.673h-4.722l-5.198 15.544-4.98-15.544h-5.287l7.242 22.112h5.446l5.009-14.977 4.851 14.977h5.476l7.211-22.112h-4.88zm12.023 0l-9.821 22.112h5.228l1.954-4.737h10.237l1.955 4.737h5.356l-9.86-22.112h-5.049zm-1.012 13.494l3.492-8.468 3.492 8.468h-6.994.01zm23.292-13.494h-5.099v22.112h16.15v-4.17h-11.051V87.51zm19.641 0h-5.099v22.112h16.15v-4.17h-11.051V87.51zm18.987 12.887h10.237v-3.98h-10.237V91.61h11.586V87.5h-16.655v22.112h17.072v-4.11h-11.993v-5.115l-.01.01zm13.56-12.887v4.17h7.053v17.942h5.099V91.68h7.053v-4.17h-19.215.01zM128 0c7.261 0 14.404.279 20.901 1.284 3.69.567 7.073 2.468 9.761 5.174 2.689 2.697 4.583 6.09 5.159 9.792 1.001 6.518 1.279 13.683 1.279 20.967 0 7.285-.278 14.45-1.279 20.967-.566 3.702-2.461 7.096-5.159 9.792-2.688 2.697-6.071 4.598-9.761 5.175-6.497 1.005-13.64 1.284-20.901 1.284-7.261 0-14.404-.279-20.901-1.284-3.69-.567-7.073-2.468-9.761-5.175-2.689-2.697-4.583-6.09-5.159-9.792-1.002-6.518-1.28-13.682-1.28-20.967 0-7.284.278-14.449 1.28-20.967.566-3.702 2.46-7.095 5.159-9.792 2.688-2.696 6.071-4.597 9.761-5.174C113.596.279 120.739 0 128 0z" fill="#BCBCD1"/><path d="M133.466 46.97v5.9h5.099v-5.9a3.146 3.146 0 013.134-3.145V38.71c-4.533 0-8.233 3.702-8.233 8.26zm-10.902-8.26c-4.543 0-8.234 3.702-8.234 8.26v5.9h5.099v-5.9a3.147 3.147 0 013.135-3.145 3.146 3.146 0 013.134 3.144v5.901h5.099v-5.9c0-4.548-3.69-8.26-8.233-8.26zm14.503-10.747a3.147 3.147 0 01-3.135 3.144 3.147 3.147 0 01-3.135-3.144v-5.901h-5.099v5.9a3.146 3.146 0 01-3.134 3.145 3.147 3.147 0 01-3.135-3.144v-5.901h-5.099v5.9c0 4.548 3.691 8.26 8.234 8.26a8.174 8.174 0 005.684-2.299 8.174 8.174 0 005.684 2.3c4.533 0 8.233-3.703 8.233-8.26v-5.901h-5.098v5.9zM128 8.399c-15.872 0-28.728 12.906-28.728 28.818S112.138 66.036 128 66.036c15.862 0 28.728-12.907 28.728-28.819C156.728 21.305 143.862 8.4 128 8.4zm0 52.552c-13.065 0-23.659-10.628-23.659-23.734 0-13.105 10.594-23.733 23.659-23.733 13.064 0 23.659 10.628 23.659 23.733 0 13.106-10.595 23.734-23.659 23.734z" fill="#F1F3F7"/></g><defs><clipPath id="clip0_22148_3743"><path fill="#fff" transform="translate(.5)" d="M0 0h255v110H0z"/></clipPath></defs></svg>