<svg width="174" height="36" fill="none" xmlns="http://www.w3.org/2000/svg"><g clip-path="url(#clip0_2444_48)"><path d="M113.856 25.242h-.001c-5.777 5.398-12.802 9.638-20.893 10.26h-.015l-.039.002a240.795 240.795 0 01-1.925.013 4455.56 4455.56 0 01-9.04-.014L81 35.5c-12.398 0-22.145-9.15-28.773-18.283C45.04 7.317 34.234-.5 21.875-.5H9.748l71.629-7.368c3.094-.318 4.607-.473 6.123-.472 1.516.001 3.028.158 6.122.48L164.363-.5h-1.102c-8.725 0-13.188 0-16.473.734l-.438.098c-2.064.46-3.152.703-4.176 1.107-1.025.404-1.985.97-3.808 2.042-.125.074-.253.15-.386.227-1.48.87-3.999 2.979-7.875 6.476-3.89 3.511-9.188 8.461-16.245 15.054l-.004.004h0z" fill="#000" stroke="url(#paint0_radial_2444_48)"/><path d="M79.5 10l7.5 7.5m0 0l7.5-7.5" stroke="#F6F7F9" stroke-width="3" stroke-linecap="round" stroke-linejoin="round"/></g><defs><radialGradient id="paint0_radial_2444_48" cx="0" cy="0" r="1" gradientUnits="userSpaceOnUse" gradientTransform="matrix(0 803.999 -789.983 0 87 0)"><stop stop-color="#fff"/><stop offset="1" stop-color="#fff" stop-opacity="0"/></radialGradient><clipPath id="clip0_2444_48"><path fill="#fff" d="M0 0h174v36H0z"/></clipPath></defs></svg>