<svg width="270" height="270" fill="none" xmlns="http://www.w3.org/2000/svg"><g clip-path="url(#clip0_2449_11)"><path d="M135 270c74.558 0 135-60.442 135-135C270 60.442 209.558 0 135 0 60.442 0 0 60.442 0 135c0 74.558 60.442 135 135 135z" fill="#fff"/><path d="M124.376 76l-18.094 10.457 41.872 24.212-45.093 25.907-41.872-24.212L43 122.727l42.062 24.306v53.416l9.094-4.428 9 14.979v-53.793l62.997-36.176 41.967 24.212 18.094-10.363L124.376 76z" fill="#3C3C3B"/><path d="M110.828 161.918l34.009 19.689 18.095-10.457-33.915-19.595-18.189 10.363z" fill="#3C3C3B"/></g><defs><clipPath id="clip0_2449_11"><path fill="#fff" d="M0 0h270v270H0z"/></clipPath></defs></svg>