<svg width="84" height="20" fill="none" xmlns="http://www.w3.org/2000/svg"><path d="M60.106 8.6v1.828H58.9v1.198h1.206v4.071c0 1.39.663 1.947 2.33 1.947.292 0 .571-.034.815-.073v-1.185c-.21.02-.342.033-.572.033-.746 0-1.074-.331-1.074-1.086v-3.707h1.646v-1.198h-1.645V8.6h-1.5zm7.39 9.143c2.218 0 3.578-1.41 3.578-3.747 0-2.324-1.367-3.74-3.578-3.74-2.217 0-3.584 1.416-3.584 3.74 0 2.337 1.36 3.747 3.584 3.747zm0-1.265c-1.303 0-2.036-.907-2.036-2.482 0-1.562.733-2.476 2.037-2.476 1.296 0 2.035.914 2.035 2.476 0 1.569-.739 2.482-2.035 2.482zm4.741 1.126h1.499v-4.257c0-1.013.802-1.694 1.938-1.694.265 0 .712.046.837.086v-1.404c-.16-.04-.446-.06-.67-.06-.99 0-1.833.517-2.05 1.225h-.11v-1.105h-1.444v7.209zm7.997-6.137c1.108 0 1.834.735 1.868 1.867h-3.835c.084-1.125.858-1.867 1.967-1.867zm1.861 4.19c-.278.563-.9.874-1.806.874-1.199 0-1.973-.8-2.022-2.065v-.08h5.362v-.496c0-2.264-1.276-3.634-3.388-3.634-2.141 0-3.5 1.463-3.5 3.767 0 2.303 1.331 3.72 3.507 3.72 1.736 0 2.95-.795 3.29-2.085h-1.443zm-31.82-.715c.116 1.77 1.67 2.902 3.982 2.902 2.472 0 4.019-1.187 4.019-3.08 0-1.49-.882-2.313-3.021-2.786l-1.15-.268c-1.358-.302-1.907-.707-1.907-1.413 0-.892.852-1.476 2.132-1.476 1.214 0 2.052.57 2.204 1.482h1.575c-.094-1.667-1.64-2.84-3.758-2.84-2.276 0-3.794 1.173-3.794 2.936 0 1.455.86 2.32 2.746 2.738l1.345.309c1.38.309 1.987.761 1.987 1.516 0 .878-.954 1.517-2.255 1.517-1.395 0-2.363-.597-2.5-1.537h-1.605zm-15.53-4.666c-1.032 0-1.924.49-2.384 1.31h-.112v-1.191h-1.443V20h1.499v-3.488h.118c.398.76 1.255 1.21 2.336 1.21 1.918 0 3.138-1.436 3.138-3.726s-1.22-3.72-3.152-3.72zm-.425 6.17c-1.255 0-2.043-.94-2.043-2.443 0-1.51.788-2.45 2.05-2.45 1.269 0 2.029.92 2.029 2.443 0 1.53-.76 2.45-2.036 2.45zm8.823-6.17c-1.032 0-1.925.49-2.385 1.31h-.111v-1.191h-1.444V20h1.5v-3.488h.118c.397.76 1.255 1.21 2.336 1.21 1.917 0 3.138-1.436 3.138-3.726s-1.22-3.72-3.152-3.72zm-.425 6.17c-1.256 0-2.044-.94-2.044-2.443 0-1.51.788-2.45 2.05-2.45 1.27 0 2.03.92 2.03 2.443 0 1.53-.76 2.45-2.036 2.45zm-14.602 1.158h1.72L26.07 7.703h-1.742l-3.765 9.9h1.662l.96-2.627h3.976l.954 2.628zm-3-8.103h.123l1.51 4.185H23.6l1.518-4.185zM21.57.235v4.776h1.817c1.5 0 2.367-.877 2.367-2.403 0-1.502-.875-2.373-2.367-2.373h-1.816zm.782.675h.948c1.043 0 1.66.63 1.66 1.708 0 1.096-.607 1.718-1.66 1.718h-.948V.91zm6.061 4.17c1.109 0 1.789-.704 1.789-1.873 0-1.161-.684-1.87-1.789-1.87-1.108 0-1.792.709-1.792 1.87 0 1.169.68 1.874 1.792 1.874zm0-.631c-.652 0-1.018-.454-1.018-1.242 0-.78.366-1.238 1.018-1.238.649 0 1.018.457 1.018 1.238 0 .785-.37 1.242-1.018 1.242zm7.578-3.042h-.75l-.676 2.75h-.059l-.78-2.75h-.719l-.781 2.75h-.056l-.68-2.75h-.76l1.046 3.604h.77l.782-2.654h.059l.784 2.654h.778l1.042-3.604zm.864 3.604h.75V2.903c0-.563.351-.914.906-.914.554 0 .819.288.819.867v2.155h.75V2.678c0-.858-.468-1.34-1.315-1.34-.572 0-.948.24-1.133.641h-.056v-.572h-.721V5.01zm4.405 0h.75V0h-.75v5.011zm3.569.069c1.108 0 1.788-.704 1.788-1.873 0-1.161-.683-1.87-1.788-1.87-1.109 0-1.792.709-1.792 1.87 0 1.169.68 1.874 1.792 1.874zm0-.631c-.652 0-1.018-.454-1.018-1.242 0-.78.366-1.238 1.018-1.238.648 0 1.018.457 1.018 1.238 0 .785-.37 1.242-1.018 1.242zm4.021.023c-.407 0-.704-.189-.704-.513 0-.318.237-.487.76-.52l.928-.056v.3c0 .448-.419.789-.983.789zm-.191.599c.498 0 .913-.205 1.14-.566h.06v.506h.72V2.55c0-.762-.536-1.212-1.488-1.212-.86 0-1.474.397-1.551 1.016h.725c.084-.255.373-.4.791-.4.513 0 .778.215.778.596v.31l-1.029.057c-.903.053-1.412.427-1.412 1.076 0 .658.534 1.079 1.266 1.079zm4.465-.001c.523 0 .965-.234 1.192-.628h.06v.57h.718V0h-.75v1.98h-.056c-.206-.398-.645-.633-1.164-.633-.96 0-1.576.722-1.576 1.86 0 1.142.61 1.864 1.576 1.864zm.212-3.084c.628 0 1.022.473 1.022 1.225 0 .754-.39 1.22-1.022 1.22-.634 0-1.014-.46-1.014-1.224 0-.758.383-1.221 1.014-1.221zm6.618 3.094c1.109 0 1.789-.704 1.789-1.873 0-1.161-.684-1.87-1.789-1.87-1.108 0-1.792.709-1.792 1.87 0 1.169.68 1.874 1.792 1.874zm0-.631c-.652 0-1.018-.454-1.018-1.242 0-.78.366-1.238 1.018-1.238.649 0 1.018.457 1.018 1.238 0 .785-.37 1.242-1.018 1.242zm2.781.562h.75V2.903c0-.563.352-.914.906-.914s.82.288.82.867v2.155h.749V2.678c0-.858-.467-1.34-1.314-1.34-.572 0-.949.24-1.133.641h-.056v-.572h-.722V5.01zM69.412.51v.913h-.603v.6h.603v2.035c0 .695.331.973 1.165.973.146 0 .286-.017.408-.036v-.593c-.105.01-.171.017-.286.017-.373 0-.537-.166-.537-.543V2.022h.823v-.599h-.823V.51h-.75zm2.578 4.501h.75V2.906c0-.546.342-.913.956-.913.53 0 .812.29.812.867v2.15h.75V2.684c0-.857-.499-1.343-1.308-1.343-.572 0-.973.241-1.157.645h-.06V0h-.742v5.011zm5.972-3.068c.554 0 .917.367.934.933h-1.918c.042-.562.43-.933.984-.933zm.93 2.095c-.139.281-.45.437-.902.437-.6 0-.987-.4-1.011-1.033v-.04h2.68v-.248c0-1.132-.638-1.817-1.694-1.817-1.07 0-1.75.732-1.75 1.884 0 1.151.666 1.86 1.754 1.86.868 0 1.474-.397 1.645-1.043h-.722zM12.43 9.478c.018-1.34.777-2.61 1.98-3.311-.76-1.03-2.03-1.682-3.353-1.721-1.41-.14-2.778.801-3.497.801-.733 0-1.84-.787-3.031-.764C2.975 4.531 1.527 5.37.77 6.66c-1.624 2.67-.412 6.595 1.144 8.753.779 1.057 1.689 2.237 2.88 2.196 1.164-.046 1.6-.706 3.006-.706 1.393 0 1.802.706 3.017.68 1.25-.02 2.037-1.063 2.789-2.13a8.57 8.57 0 001.275-2.466c-1.469-.59-2.45-1.994-2.452-3.508zm-2.295-6.452a3.757 3.757 0 00.937-2.783 4.241 4.241 0 00-2.695 1.323 3.614 3.614 0 00-.96 2.68c1.041.011 2.066-.449 2.718-1.22z" fill="#333"/></svg>