<svg width="7" height="12" fill="none" xmlns="http://www.w3.org/2000/svg"><g clip-path="url(#clip0_20_8819)" fill="#C6262D"><path d="M6.018 1.439l-.146 1.669-.138-.012c-.645-.057-1.29-.112-1.934-.171a.42.42 0 00-.292.074c-.577.388-1.157.77-1.736 1.155l-.078.048a3.292 3.292 0 01-.53-.975C.962 2.643.932 2.04.967 1.43.975 1.287.989 1.144 1 1l5.018.439z"/><path d="M3.647 3.45l1.927.168c.003.019.009.038.007.056-.037.422-.074.843-.115 1.265a.359.359 0 01-.059.154c-.167.258-.334.516-.51.768a1.082 1.082 0 00-.195.531c-.077.9-.16 1.8-.24 2.699-.1 1.138-.803 1.864-1.939 2.013-.328.043-.653.01-.979-.018l-.52-.046c.04-.438.077-.865.115-1.306l.468.04.526.047c.502.041.877-.226.999-.718.02-.081.034-.164.042-.248.062-.692.122-1.385.182-2.078l.27-3.09.021-.237z"/></g><defs><clipPath id="clip0_20_8819"><path fill="#fff" d="M0 0h6.045v12H0z"/></clipPath></defs></svg>