<svg width="130" height="71" fill="none" xmlns="http://www.w3.org/2000/svg"><path d="M109.326 15.23l6.821 2.306-.335.99-2.941-.994-1.153 3.41 2.942.994-.337.995-6.821-2.305.337-.995 2.946.996 1.153-3.41-2.947-.997.335-.99zm-5.371 12.942c.391-.605.855-1.036 1.393-1.292a3.097 3.097 0 011.741-.263c.618.081 1.239.323 1.863.726.625.403 1.102.87 1.431 1.399.327.532.485 1.096.473 1.692-.008.597-.208 1.198-.598 1.803-.389.602-.853 1.03-1.394 1.285a3.024 3.024 0 01-1.737.266c-.617-.081-1.239-.323-1.863-.726-.625-.403-1.102-.87-1.431-1.399a3.055 3.055 0 01-.477-1.695c.011-.595.211-1.194.599-1.796zm.837.539c-.283.425-.418.841-.407 1.249.011.412.145.802.4 1.168.258.37.618.703 1.08 1 .462.299.912.488 1.349.567a2.09 2.09 0 001.225-.12c.376-.158.703-.45.983-.877.282-.425.418-.843.409-1.253a2.094 2.094 0 00-.403-1.165c-.258-.368-.617-.703-1.077-1.004-.461-.301-.911-.492-1.35-.573a2.092 2.092 0 00-1.221.122c-.38.164-.709.46-.988.886zm-5.187 6.245l4.985 5.195-2.042 1.96c-.33.316-.671.514-1.024.594-.353.08-.688.067-1.007-.039a1.946 1.946 0 01-.813-.508c-.275-.286-.44-.6-.493-.94a1.447 1.447 0 01.164-.962l.177.17c-.41.236-.819.321-1.225.254a1.848 1.848 0 01-1.06-.57c-.293-.306-.486-.63-.58-.974a1.775 1.775 0 01.02-1.04c.112-.346.332-.677.661-.994l2.237-2.146zm-.076 1.452l-1.356 1.301a1.435 1.435 0 00-.365.538 1.046 1.046 0 00-.055.586c.039.198.139.382.3.55.15.157.32.264.51.322.19.063.384.068.583.016.199-.048.385-.155.558-.321l1.404-1.347-1.579-1.645zm2.261 2.356l-1.267 1.215a1.144 1.144 0 00-.295.443.914.914 0 00-.032.502c.037.172.128.334.273.486.194.202.42.303.68.304.259 0 .502-.107.728-.324l1.266-1.215-1.353-1.411zm-9.164 2.931l1.687 7.38-1.291.773-5.704-4.978.931-.557 5.222 4.532-.232.14-1.544-6.733.931-.557zm-.209 2.019l.503.84-3.227 1.93-.503-.84 3.227-1.93zm-14.985 5.632l1.174 7.103-5.648.934-1.174-7.104 1.031-.17 1.013 6.131 3.587-.592-1.014-6.132 1.031-.17zM63.517 50.66c.717.06 1.315.266 1.794.62.479.358.83.829 1.052 1.413.219.583.297 1.245.236 1.986-.062.741-.25 1.381-.562 1.92-.316.54-.739.944-1.27 1.214-.531.273-1.155.38-1.873.32-.714-.059-1.31-.268-1.79-.625a3.022 3.022 0 01-1.051-1.407c-.219-.584-.298-1.246-.236-1.987.062-.74.249-1.38.562-1.92.312-.54.736-.945 1.27-1.219.531-.27 1.154-.375 1.868-.316zm-.083.991c-.508-.049-.939.027-1.293.228-.358.205-.64.506-.843.904-.204.4-.329.875-.375 1.423-.045.548 0 1.034.135 1.457.135.426.362.767.682 1.025.316.257.729.408 1.237.454.507.049.94-.027 1.298-.228a2.1 2.1 0 00.838-.904c.204-.4.33-.875.38-1.423.049-.548.005-1.035-.13-1.46a2.094 2.094 0 00-.682-1.02c-.323-.259-.739-.41-1.247-.456zM52.502 48.9c.681.233 1.21.58 1.589 1.04.377.465.601 1.007.674 1.627.07.62-.015 1.28-.256 1.984-.24.703-.578 1.278-1.013 1.725a3.064 3.064 0 01-1.528.867c-.582.135-1.213.086-1.895-.147-.785-.269-1.367-.69-1.745-1.263-.38-.574-.557-1.232-.53-1.973l1.096.074c-.03.521.078.976.326 1.364.244.387.636.672 1.176.857.482.165.921.194 1.318.086a2.122 2.122 0 001.04-.663c.295-.336.532-.765.71-1.285.181-.52.258-1.002.231-1.448a2.121 2.121 0 00-.416-1.162c-.25-.33-.617-.576-1.1-.741-.538-.185-1.023-.2-1.454-.044-.434.158-.799.451-1.093.879l-.91-.613c.431-.603.974-1.014 1.627-1.235.65-.221 1.368-.197 2.153.071zm-7.22-2.265l-.488.75a1.103 1.103 0 00-.366-.208.568.568 0 00-.353.021 1.43 1.43 0 00-.415.28 7.512 7.512 0 00-.56.56c-.282.297-.56.612-.834.942-.275.33-.54.663-.797.996-.262.335-.51.661-.744.978a56.77 56.77 0 00-.643.888l-3.96-2.576 3.925-6.036.876.57-3.389 5.21 2.264 1.472a61.572 61.572 0 011.182-1.551c.23-.292.472-.59.729-.892.253-.304.519-.603.797-.895a7 7 0 01.686-.651 2.1 2.1 0 01.667-.384c.22-.07.447-.067.678.012.233.076.481.247.745.514zM34.927 39.4l-1.974.643-2.091 5.512-.817-.845 1.731-4.288-4.379 1.549-.775-.802 7.52-2.58.785.812zm-5.637-5.929l-6.083 3.852-2.46-3.887.832-.527 1.902 3.004 5.25-3.325.56.883zm-4.71-7.262l-7.565.292-.52-1.412 5.948-4.684.375 1.018-5.42 4.293-.094-.254 6.902-.271.374 1.018zm-1.944-.579l-.92.339-1.3-3.528.92-.339 1.3 3.528zM18.162 7.022a1.38 1.38 0 01-.187.687 1.36 1.36 0 01-.484.481 1.322 1.322 0 01-.688.168 1.296 1.296 0 01-.677-.192 1.353 1.353 0 01-.471-.499 1.379 1.379 0 01-.162-.693 1.288 1.288 0 01.675-1.113c.202-.116.43-.172.683-.168a1.322 1.322 0 011.148.676c.113.199.167.417.163.653zm93.68.716c.022-.252.1-.476.235-.672.134-.192.305-.341.515-.447.213-.102.446-.141.698-.12a1.304 1.304 0 011.098.769c.098.216.136.45.114.702a1.29 1.29 0 01-.75 1.064c-.21.102-.441.142-.693.12a1.324 1.324 0 01-1.099-.753 1.257 1.257 0 01-.118-.663z" fill="#fff"/></svg>