<svg width="21" height="20" fill="none" xmlns="http://www.w3.org/2000/svg"><g clip-path="url(#clip0_66_5397)" fill="#fff"><path d="M13.925 11.367V8.73l-6.843 4.615v.928h2.529l4.314-2.906zM7.082 5.719v2.14l3.178-2.14H7.082zm-.801 9.734v1.172h.912a3.432 3.432 0 002.724 2.502V20h1.171v-.873a3.432 3.432 0 002.724-2.502h.912v-1.172H6.28zm5.428-1.18h2.217V12.78l-2.217 1.493zm2.216-6.956V5.72h-1.567L7.082 9.272v2.66l6.843-4.615zm.799-2.77V3.375h-.912A3.432 3.432 0 0011.09.873V0H9.916v.873a3.432 3.432 0 00-2.724 2.502H6.28v1.172h8.443z"/></g><defs><clipPath id="clip0_66_5397"><path fill="#fff" transform="translate(.5)" d="M0 0h20v20H0z"/></clipPath></defs></svg>