<svg width="32" height="32" fill="none" xmlns="http://www.w3.org/2000/svg"><path d="M16 0a16 16 0 1016 16A16.018 16.018 0 0016 0zm11.543 9.333H23.24a26.23 26.23 0 00-3.774-6.21 13.388 13.388 0 018.076 6.21zM22 16a13.611 13.611 0 01-.63 4H10.63a13.611 13.611 0 01-.63-4 13.64 13.64 0 01.63-4h10.74a13.64 13.64 0 01.63 4zm-10.301 6.667H20.3a26.082 26.082 0 01-4.3 6.117 26.082 26.082 0 01-4.301-6.117zm0-13.334A26.082 26.082 0 0116 3.216a26.082 26.082 0 014.301 6.117H11.7zm.834-6.21a26.268 26.268 0 00-3.774 6.21H4.457a13.388 13.388 0 018.076-6.21zM3.28 12h4.576a15.568 15.568 0 000 8H3.28a13.35 13.35 0 010-8zm1.177 10.667H8.76a26.235 26.235 0 003.774 6.21 13.388 13.388 0 01-8.076-6.21zm15.01 6.21a26.266 26.266 0 003.774-6.21h4.302a13.388 13.388 0 01-8.076 6.21zM28.72 20h-4.576a15.567 15.567 0 000-8h4.576a13.35 13.35 0 010 8z" fill="#B3AFAC"/></svg>