<svg width="32" height="32" fill="none" xmlns="http://www.w3.org/2000/svg"><g clip-path="url(#clip0_215_3009)"><path d="M32 9.333V32H0V9.333c0-2.205 1.795-4 4-4h8V4c0-2.205 1.795-4 4-4s4 1.795 4 4v1.333h8c2.205 0 4 1.795 4 4zm-17.333 0h2.666V4a1.334 1.334 0 00-2.666 0v5.333zm-2 7.334A3.336 3.336 0 0016 20a3.336 3.336 0 003.333-3.333A3.336 3.336 0 0016 13.333a3.336 3.336 0 00-3.333 3.334zm10 8.666c0-2.205-1.795-4-4-4h-5.334c-2.205 0-4 1.795-4 4V28H12v-2.667c0-.736.599-1.333 1.333-1.333h5.334C19.4 24 20 24.597 20 25.333V28h2.667v-2.667z" fill="#B3AFAC"/></g><defs><clipPath id="clip0_215_3009"><path fill="#fff" d="M0 0h32v32H0z"/></clipPath></defs></svg>