<svg width="32" height="32" fill="none" xmlns="http://www.w3.org/2000/svg"><g clip-path="url(#clip0_215_1018)"><path d="M32 25.333V32H0v-6.667h32zm0-12v9.334H0v-9.334c0-2.205 1.795-4 4-4h6.161A10.36 10.36 0 018.43 8.091C6.456 6.212 6.147 3.76 7.608 1.813A4.5 4.5 0 0110.593.045a4.49 4.49 0 013.362.862c.905.678 1.57 1.544 2.062 2.424.492-.88 1.156-1.744 2.063-2.424a4.484 4.484 0 013.361-.862 4.5 4.5 0 012.986 1.768c1.46 1.947 1.15 4.399-.787 6.246-.593.526-1.196.938-1.783 1.274H28c2.205 0 4 1.795 4 4zM17.333 8c.126 0 2.388-.028 4.502-1.904.516-.492 1.312-1.544.457-2.684a1.856 1.856 0 00-1.23-.728 1.877 1.877 0 00-1.383.356c-1.724 1.292-2.207 3.796-2.319 4.563v.02h-.003a6.115 6.115 0 00-.025.377h.001zm-7.098-1.87C12.312 7.97 14.576 8 14.64 8h.027v-.437c-.12-.802-.613-3.248-2.312-4.523a1.89 1.89 0 00-1.384-.356c-.493.07-.93.33-1.23.728-.854 1.14-.057 2.19.494 2.716l-.001.001zm13.768 8.537c-.067 0-6.668-.067-6.668-4h-2.667c0 3.933-6.603 4-6.668 4v2.666c2.293 0 6.024-.71 8.001-3.002 1.979 2.292 5.71 3.002 8 3.002v-2.666h.002z" fill="#B3AFAC"/></g><defs><clipPath id="clip0_215_1018"><path fill="#fff" d="M0 0h32v32H0z"/></clipPath></defs></svg>