<svg width="32" height="32" fill="none" xmlns="http://www.w3.org/2000/svg"><g clip-path="url(#clip0_215_340)"><path d="M32 16a6.539 6.539 0 00-2.89-5.43 6.541 6.541 0 00-1.797-5.885A6.54 6.54 0 0021.43 2.89 6.538 6.538 0 0016 0a6.538 6.538 0 00-5.431 2.89 6.54 6.54 0 00-5.884 1.796 6.54 6.54 0 00-1.796 5.884A6.539 6.539 0 00-.002 16a6.539 6.539 0 002.89 5.43 6.54 6.54 0 001.796 5.885 6.54 6.54 0 005.884 1.796 6.538 6.538 0 005.43 2.89 6.538 6.538 0 005.431-2.89 6.54 6.54 0 005.884-1.796 6.54 6.54 0 001.796-5.884A6.539 6.539 0 0032 16zm-21.333-4a1.334 1.334 0 112.667.001A1.334 1.334 0 0110.667 12zm3.688 9.333h-3.11l6.4-10.666h3.11l-6.4 10.666zm5.645 0a1.334 1.334 0 110-2.667 1.334 1.334 0 010 2.667z" fill="#B3AFAC"/></g><defs><clipPath id="clip0_215_340"><path fill="#fff" d="M0 0h32v32H0z"/></clipPath></defs></svg>