<svg width="32" height="32" fill="none" xmlns="http://www.w3.org/2000/svg"><g clip-path="url(#clip0_215_988)"><path d="M32 6.667v4H0v-4c0-2.206 1.795-4 4-4h4V0h2.667v2.667h10.666V0H24v2.667h4c2.205 0 4 1.794 4 4zm0 16C32 27.813 27.812 32 22.667 32c-5.146 0-9.334-4.187-9.334-9.333 0-5.147 4.188-9.334 9.334-9.334 5.145 0 9.333 4.187 9.333 9.334zm-5.724 1.724L24 22.115v-3.448h-2.667v4.552l3.058 3.057 1.885-1.885zm-15.61-1.724c0-3.772 1.745-7.134 4.466-9.334H0V32h15.132a11.973 11.973 0 01-4.465-9.333z" fill="#B3AFAC"/></g><defs><clipPath id="clip0_215_988"><path fill="#fff" d="M0 0h32v32H0z"/></clipPath></defs></svg>