<svg width="12" height="12" fill="none" xmlns="http://www.w3.org/2000/svg"><g clip-path="url(#clip0_3_589)"><path d="M12 2.5V4H0V2.5C0 1.673.673 1 1.5 1H3V0h1v1h4V0h1v1h1.5c.827 0 1.5.673 1.5 1.5zm0 6c0 1.93-1.57 3.5-3.5 3.5S5 10.43 5 8.5 6.57 5 8.5 5 12 6.57 12 8.5zm-2.146.646L9 8.293V7H8v1.707l1.146 1.146.707-.707zM4 8.5A4.49 4.49 0 015.675 5H0v7h5.675A4.49 4.49 0 014 8.5z" fill="#C6262D" fill-opacity=".4"/></g><defs><clipPath id="clip0_3_589"><path fill="#fff" d="M0 0h12v12H0z"/></clipPath></defs></svg>