<svg width="80" height="21" fill="none" xmlns="http://www.w3.org/2000/svg"><path d="M40.028 11.94c-1.619 0-2.938 1.316-2.938 3.127 0 1.8 1.32 3.125 2.938 3.125 1.619 0 2.938-1.326 2.938-3.126 0-1.81-1.32-3.125-2.938-3.125zm0 5.022c-.887 0-1.652-.781-1.652-1.895 0-1.125.766-1.895 1.652-1.895.887 0 1.651.77 1.651 1.895 0 1.113-.764 1.895-1.651 1.895zm-6.41-5.021c-1.618 0-2.937 1.314-2.937 3.125 0 1.8 1.319 3.126 2.937 3.126 1.62 0 2.939-1.326 2.939-3.126 0-1.81-1.32-3.125-2.939-3.125zm0 5.021c-.887 0-1.651-.781-1.651-1.895 0-1.125.765-1.895 1.651-1.895.887 0 1.652.77 1.652 1.895 0 1.113-.765 1.895-1.652 1.895zM25.995 12.9v1.326h2.972c-.09.746-.322 1.291-.677 1.67-.432.461-1.108.97-2.295.97-1.829 0-3.259-1.575-3.259-3.528 0-1.954 1.43-3.529 3.26-3.529.986 0 1.707.415 2.238.948l.876-.936c-.743-.758-1.729-1.338-3.115-1.338-2.505 0-4.612 2.179-4.612 4.855 0 2.676 2.107 4.854 4.612 4.854 1.352 0 2.373-.474 3.17-1.362.82-.876 1.076-2.107 1.076-3.102 0-.307-.022-.591-.067-.828h-4.179zm31.178 1.03c-.243-.698-.986-1.99-2.505-1.99-1.508 0-2.76 1.268-2.76 3.127 0 1.752 1.241 3.125 2.904 3.125 1.341 0 2.117-.876 2.44-1.385l-.998-.71c-.333.52-.788.863-1.442.863-.654 0-1.12-.32-1.42-.947l3.914-1.729-.133-.354zm-3.99 1.042c-.034-1.208.875-1.823 1.53-1.823.51 0 .942.273 1.086.663l-2.617 1.16zM50 18.003h1.285V8.816H50v9.187zm-2.107-5.363h-.044c-.288-.368-.843-.7-1.54-.7-1.465 0-2.806 1.374-2.806 3.139 0 1.752 1.342 3.114 2.805 3.114.699 0 1.253-.331 1.54-.71h.045v.45c0 1.196-.599 1.835-1.563 1.835-.787 0-1.275-.603-1.475-1.113l-1.12.498C44.057 19.981 44.91 21 46.33 21c1.508 0 2.783-.948 2.783-3.257v-5.612h-1.22v.509zm-1.474 4.322c-.887 0-1.63-.794-1.63-1.883 0-1.102.743-1.907 1.63-1.907.875 0 1.563.805 1.563 1.907 0 1.09-.688 1.883-1.563 1.883zm16.777-8.146H60.12v9.187h1.283v-3.48h1.793c1.423 0 2.823-1.1 2.823-2.854 0-1.752-1.4-2.853-2.822-2.853zm.033 4.428h-1.826v-3.15h1.826c.96 0 1.506.85 1.506 1.575 0 .712-.546 1.575-1.506 1.575zm7.936-1.32c-.93 0-1.892.438-2.29 1.407l1.139.508c.243-.508.698-.674 1.173-.674.664 0 1.34.426 1.35 1.182v.095a2.702 2.702 0 00-1.339-.354c-1.228 0-2.48.72-2.48 2.068 0 1.23 1.008 2.02 2.137 2.02.863 0 1.339-.413 1.638-.898h.044v.71h1.24v-3.523c0-1.63-1.14-2.54-2.612-2.54zm-.155 5.036c-.42 0-1.007-.225-1.007-.78 0-.71.73-.982 1.362-.982.563 0 .83.13 1.172.307-.1.852-.785 1.455-1.527 1.455zm7.282-4.835l-1.472 3.984h-.044l-1.527-3.984h-1.383l2.29 5.567-1.306 3.098h1.34l3.53-8.665h-1.428zm-11.565 5.878h1.284V8.816h-1.284v9.187zM25.77 3.483c0 .616-.17 1.106-.512 1.472-.388.435-.895.652-1.517.652-.596 0-1.103-.22-1.52-.661-.416-.442-.625-.989-.625-1.641 0-.654.209-1.2.626-1.641A2.01 2.01 0 0123.742 1c.295 0 .578.062.846.185.27.123.485.287.646.492l-.363.388c-.273-.349-.65-.523-1.13-.523-.436 0-.811.163-1.128.49-.318.326-.476.75-.476 1.271 0 .521.158.945.476 1.272.317.326.692.49 1.127.49.462 0 .846-.165 1.154-.493.2-.214.315-.512.346-.893h-1.5v-.53h2c.022.115.03.226.03.333zm3.173-1.843h-1.88v1.4h1.695v.53h-1.695v1.398h1.88v.542h-2.41V1.1h2.41v.542zm2.237 3.869h-.53V1.641h-1.154v-.542h2.837v.542H31.18v3.868zm3.206 0v-4.41h.53v4.41h-.53zm2.884 0h-.531V1.641h-1.153v-.542h2.837v.542h-1.154v3.868zm6.524-.569c-.406.445-.91.668-1.514.668a1.963 1.963 0 01-1.514-.669c-.406-.445-.608-.99-.608-1.635 0-.644.202-1.19.608-1.635.406-.446.91-.669 1.514-.669.6 0 1.103.224 1.51.672.408.447.612.991.612 1.632 0 .645-.203 1.19-.608 1.635zm-2.636-.37c.305.33.68.495 1.122.495.442 0 .816-.165 1.121-.495.306-.331.46-.753.46-1.266s-.154-.935-.46-1.265a1.466 1.466 0 00-1.121-.496 1.47 1.47 0 00-1.122.496c-.305.33-.458.752-.458 1.265 0 .513.153.935.458 1.266zm3.988.939v-4.41h.646l2.006 3.43h.023l-.023-.85V1.1h.531v4.41h-.554l-2.1-3.597h-.022l.023.85V5.51h-.53z" fill="#333"/><path d="M25.77 3.483c0 .616-.17 1.106-.512 1.472-.388.435-.895.652-1.517.652-.596 0-1.103-.22-1.52-.661-.416-.442-.625-.989-.625-1.641 0-.654.209-1.2.626-1.641A2.01 2.01 0 0123.742 1c.295 0 .578.062.846.185.27.123.485.287.646.492l-.363.388c-.273-.349-.65-.523-1.13-.523-.436 0-.811.163-1.128.49-.318.326-.476.75-.476 1.271 0 .521.158.945.476 1.272.317.326.692.49 1.127.49.462 0 .846-.165 1.154-.493.2-.214.315-.512.346-.893h-1.5v-.53h2c.022.115.03.226.03.333zm3.173-1.843h-1.88v1.4h1.695v.53h-1.695v1.398h1.88v.542h-2.41V1.1h2.41v.542zm2.237 3.869h-.53V1.641h-1.154v-.542h2.837v.542H31.18v3.868zm3.206 0v-4.41h.53v4.41h-.53zm2.884 0h-.531V1.641h-1.153v-.542h2.837v.542h-1.154v3.868zm6.524-.569c-.406.445-.91.668-1.514.668a1.963 1.963 0 01-1.514-.669c-.406-.445-.608-.99-.608-1.635 0-.644.202-1.19.608-1.635.406-.446.91-.669 1.514-.669.6 0 1.103.224 1.51.672.408.447.612.991.612 1.632 0 .645-.203 1.19-.608 1.635zm-2.636-.37c.305.33.68.495 1.122.495.442 0 .816-.165 1.121-.495.306-.331.46-.753.46-1.266s-.154-.935-.46-1.265a1.466 1.466 0 00-1.121-.496 1.47 1.47 0 00-1.122.496c-.305.33-.458.752-.458 1.265 0 .513.153.935.458 1.266zm3.988.939v-4.41h.646l2.006 3.43h.023l-.023-.85V1.1h.531v4.41h-.554l-2.1-3.597h-.022l.023.85V5.51h-.53z" stroke="#333" stroke-width=".147" stroke-miterlimit="10"/><path fill-rule="evenodd" clip-rule="evenodd" d="M.121 1.822A1.894 1.894 0 000 2.527v16.255c0 .275.043.511.121.706l8.27-8.834-8.27-8.832zm.496 18.212c.305.134.7.087 1.132-.174l9.731-5.906-2.586-2.762-8.277 8.842zm11.506-6.47l3.045-1.848c.961-.584.961-1.539 0-2.122l-3.047-1.85-2.723 2.91 2.725 2.91zm-.644-6.209L1.75 1.45c-.431-.262-.827-.308-1.132-.175l8.277 8.841 2.585-2.76z" fill="#333"/></svg>