<svg width="14" height="14" fill="none" xmlns="http://www.w3.org/2000/svg"><path d="M7.438 0a5.61 5.61 0 00-4.02 1.718A5.958 5.958 0 001.75 5.86c0 3.096 4.777 7.345 5.32 7.82l.367.32.368-.32c.543-.475 5.32-4.724 5.32-7.82a5.958 5.958 0 00-1.668-4.142A5.61 5.61 0 007.437 0zm0 8.79a2.784 2.784 0 01-1.58-.493A2.913 2.913 0 014.81 6.982a3.013 3.013 0 01-.162-1.693c.11-.569.381-1.09.779-1.5.397-.41.904-.69 1.456-.802a2.766 2.766 0 011.643.166c.52.222.964.598 1.276 1.08a2.994 2.994 0 01-.355 3.698 2.805 2.805 0 01-2.01.86z" fill="#C6262D"/></svg>