<svg width="183" height="40" fill="none" xmlns="http://www.w3.org/2000/svg"><g clip-path="url(#clip0_20_9410)"><path d="M.023 5.933h3.535v17.41h7.728v3.537h-.351c-3.513 0-7.025 0-10.538-.003-.125 0-.25-.034-.375-.052V5.933z" fill="#241C12"/><path d="M126.541 0v4.503h-.373c-1.74 0-3.481.004-5.221-.004a1.131 1.131 0 00-.763.267c-1.454 1.173-2.918 2.334-4.38 3.498-.058.046-.118.089-.196.147a8.828 8.828 0 01-1.647-2.486c-.677-1.516-.901-3.124-.95-4.766-.012-.386-.008-.772-.012-1.159h13.542z" fill="#C6262D"/><path d="M38.944 26.863h-3.5V5.9h.894c.795 0 1.59.005 2.386-.004.197-.003.298.057.388.244 2.526 5.19 5.06 10.374 7.591 15.56.069.141.141.281.237.47.429-.913.835-1.775 1.239-2.639 2.083-4.45 4.165-8.897 6.241-13.35.093-.199.19-.291.427-.288.988.016 1.977.007 2.966.007.095 0 .19.01.294.016v20.945h-3.489V14.264l-.08-.026c-.048.094-.097.187-.142.283a6891.65 6891.65 0 00-5.634 12.072c-.102.22-.218.295-.456.29a108.81 108.81 0 00-2.74 0c-.19.002-.284-.065-.365-.232-2.011-4.14-4.028-8.275-6.043-12.412a.578.578 0 00-.215-.256v12.88zm68.939-9.033l5.641 9.026c-.126.01-.214.023-.301.023-1.172.001-2.343-.005-3.515.006-.224.003-.342-.077-.456-.262-1.691-2.727-3.394-5.45-5.084-8.178-.136-.219-.28-.308-.537-.298-.535.02-1.071.007-1.644.007v8.708h-3.488V14.674h3.275c-.095-.161-.154-.266-.218-.368-.978-1.541-1.957-3.082-2.931-4.625-.066-.104-.136-.23-.137-.348-.01-1.117-.007-2.233-.007-3.399h.356c2.193 0 4.385-.018 6.578.006 1.436.016 2.811.34 4.083 1.025 2.157 1.16 3.048 3.025 2.945 5.41-.115 2.67-1.562 4.34-4.011 5.23-.161.058-.324.11-.487.166-.01.003-.016.013-.062.059zm-5.226-8.382c1.089 1.738 2.128 3.4 3.175 5.057a.29.29 0 00.233.107c.652-.089 1.282-.258 1.84-.629a2.29 2.29 0 00-.003-3.845 3.19 3.19 0 00-.989-.445 8.571 8.571 0 00-1.615-.234c-.855-.04-1.712-.011-2.641-.011zm-7.823-3.492V9.44H84.4v5.228h8.66v3.48h-8.656v5.196h10.414v3.52H80.899V5.955h13.935zm76.981 12.984c-.64.716-1.259 1.4-1.862 2.097-.071.083-.085.237-.085.358-.005 1.698-.004 3.396-.004 5.095v.368h-3.497V5.95h3.487v10.475c.122-.13.188-.19.245-.26 2.719-3.342 5.435-6.686 8.159-10.024.081-.1.237-.197.36-.198 1.344-.014 2.687-.01 4.031-.008.029 0 .058.011.141.028l-8.622 10.622 8.689 10.277c-.159.009-.259.018-.358.018-1.3.001-2.601-.007-3.901.006a.609.609 0 01-.54-.258c-1.991-2.466-3.991-4.924-5.988-7.385l-.255-.302zM27.234 5.942h3.496c.006.116.02.228.02.34v13.765c0 1.95-.552 3.684-2 5.059-1.076 1.022-2.378 1.604-3.82 1.873-2.136.399-4.225.265-6.18-.752-2.421-1.26-3.697-3.275-3.709-6.021-.019-4.621-.005-9.24-.005-13.862V5.95h3.504v13.794c0 1.985 1.012 3.297 2.94 3.757 1.362.325 2.697.212 3.945-.447 1.206-.638 1.813-1.651 1.812-3.033-.006-4.556-.003-9.112-.003-13.668v-.41zM160.25 21.686l2.542 2.39c-.116.126-.19.213-.273.291-4.08 3.863-10.82 3.737-14.74-.286-1.575-1.616-2.456-3.583-2.772-5.8-.34-2.377-.109-4.7.933-6.888 1.501-3.148 4.021-5 7.439-5.585 3.256-.557 6.203.17 8.758 2.318.212.179.409.376.588.542l-2.467 2.465c-.573-.551-1.251-1.066-2.045-1.377-2.676-1.05-5.209-.833-7.469 1.031-1.329 1.096-1.967 2.609-2.201 4.287-.226 1.626-.101 3.223.611 4.725 1.067 2.252 2.875 3.503 5.33 3.802 2.198.27 4.113-.383 5.734-1.894.023-.02.054-.035.032-.02zm-33.741 5.193l8.357-21.565 8.386 21.566h-1.705c-.602 0-1.204-.013-1.805.006-.226.008-.315-.077-.387-.276-.234-.646-.495-1.28-.729-1.926-.067-.184-.16-.238-.349-.237-2.278.006-4.555.006-6.833-.001-.2-.002-.277.073-.339.25a62.63 62.63 0 01-.73 1.96c-.037.093-.165.214-.252.215-1.181.013-2.362.008-3.614.008zm8.393-12.584l-.074.008-2.484 7.104h5.044l-2.486-7.112z" fill="#241C12"/><path d="M120.663 5.94h5.199c.011.049.033.098.033.146-.002 1.14-.002 2.277-.014 3.416a.968.968 0 01-.121.427c-.386.73-.773 1.459-1.184 2.176a2.88 2.88 0 00-.4 1.468c.004 2.428-.006 4.855-.01 7.283-.003 3.072-1.714 5.18-4.72 5.845-.87.192-1.747.181-2.627.18h-1.401v-3.525h2.681c1.356-.006 2.296-.811 2.508-2.156.036-.222.053-.448.053-.673.004-1.87.003-3.738.003-5.608V5.94zM0 32.489h1.176v2.724h.02c.083-.131.182-.248.3-.35a1.89 1.89 0 01.387-.264 2.021 2.021 0 01.903-.222c.42 0 .786.074 1.098.222.313.149.573.35.779.609.206.257.36.558.465.903.102.344.155.712.155 1.103 0 .358-.046.705-.14 1.043a2.699 2.699 0 01-.423.892c-.19.258-.428.465-.717.62-.29.155-.63.232-1.021.232-.18 0-.36-.012-.543-.035a2.044 2.044 0 01-.52-.14 1.746 1.746 0 01-.449-.268 1.293 1.293 0 01-.335-.433h-.02v.733H0v-7.37zm4.107 4.705c0-.242-.03-.475-.093-.703a1.918 1.918 0 00-.278-.603 1.426 1.426 0 00-.465-.423 1.26 1.26 0 00-.64-.16c-.495 0-.868.172-1.12.516-.251.344-.377.801-.377 1.373 0 .268.033.518.098.748.065.23.164.428.293.593.13.165.287.296.47.392.182.096.394.145.635.145.268 0 .495-.055.68-.165.186-.11.34-.253.46-.428s.206-.375.258-.598c.053-.225.079-.454.079-.687zm9.729 1.476c0 .144.02.247.057.31.038.061.112.092.223.092h.123a.755.755 0 00.165-.02v.815a3.003 3.003 0 01-.568.123c-.068.006-.127.01-.175.01-.241 0-.44-.048-.598-.145-.159-.096-.262-.264-.31-.505a2.07 2.07 0 01-.862.495c-.34.103-.67.155-.986.155-.24 0-.47-.033-.69-.098a1.789 1.789 0 01-.583-.29 1.39 1.39 0 01-.403-.484c-.1-.196-.15-.425-.15-.686 0-.33.06-.598.18-.805.121-.206.279-.368.476-.485.195-.117.416-.2.66-.253.244-.052.49-.091.738-.118.213-.042.416-.071.608-.088.193-.016.363-.047.51-.087a.788.788 0 00.35-.19c.087-.087.13-.215.13-.388a.598.598 0 00-.107-.37.731.731 0 00-.269-.223 1.135 1.135 0 00-.355-.103 2.99 2.99 0 00-.372-.025c-.33 0-.602.068-.815.207-.214.137-.334.35-.361.64H9.276c.02-.345.103-.63.248-.856.145-.227.329-.41.552-.547.224-.138.476-.234.758-.29a4.54 4.54 0 01.866-.083c.262 0 .52.028.774.083.254.055.482.145.685.268.204.123.366.283.49.48.124.195.186.435.186.717v2.743h.001zm-1.177-1.486a1.43 1.43 0 01-.66.212c-.262.024-.524.06-.785.108-.123.02-.244.049-.36.087a1.09 1.09 0 00-.31.155.683.683 0 00-.213.258.877.877 0 00-.077.387c0 .13.038.241.113.33.076.09.166.16.273.212.107.052.223.088.35.108a1.85 1.85 0 00.768-.022c.152-.034.295-.092.429-.175a1.12 1.12 0 00.335-.315.798.798 0 00.134-.47v-.875h.003zm5.541-2.662h1.104v1.032h.02c.035-.145.102-.285.201-.423.1-.137.22-.262.36-.377a1.82 1.82 0 01.47-.273 1.42 1.42 0 01.526-.103c.137 0 .233.004.284.01.052.007.105.015.16.02v1.136a5.074 5.074 0 00-.253-.035 2.15 2.15 0 00-.253-.016c-.2 0-.387.04-.563.118a1.29 1.29 0 00-.46.35c-.13.156-.233.346-.309.574a2.469 2.469 0 00-.113.784v2.539h-1.176v-5.336h.003zm6.757-2.033h1.176v2.724h.02c.083-.131.182-.248.3-.35.117-.104.247-.191.388-.264a2.022 2.022 0 01.902-.222c.42 0 .787.074 1.099.222.312.149.573.35.778.609.206.257.361.558.465.903.103.344.155.712.155 1.103 0 .358-.046.705-.14 1.043a2.699 2.699 0 01-.423.892 2.107 2.107 0 01-.717.62c-.29.155-.63.232-1.021.232a4.36 4.36 0 01-.542-.035 2.045 2.045 0 01-.52-.14 1.748 1.748 0 01-.45-.268 1.293 1.293 0 01-.334-.433h-.02v.733h-1.116v-7.37zm4.107 4.705c0-.242-.03-.475-.093-.703a1.918 1.918 0 00-.278-.603 1.425 1.425 0 00-.464-.423 1.26 1.26 0 00-.64-.16c-.496 0-.869.172-1.12.516-.252.344-.378.801-.378 1.373 0 .268.033.518.098.748.065.23.164.428.294.593.13.165.287.296.47.392.181.096.393.145.634.145.268 0 .495-.055.68-.165.186-.11.34-.253.46-.428.121-.175.206-.375.258-.598.054-.225.08-.454.08-.687zm6.181.299c0 .207.029.407.087.598.059.193.146.361.263.506.117.145.264.26.443.345.18.087.393.13.64.13.344 0 .621-.074.83-.223.21-.147.366-.369.47-.665h1.114a2.213 2.213 0 01-.867 1.346 2.345 2.345 0 01-.718.35 2.902 2.902 0 01-.83.119c-.42 0-.791-.069-1.115-.207a2.293 2.293 0 01-.82-.578 2.445 2.445 0 01-.506-.888 3.621 3.621 0 01-.17-1.135c0-.378.06-.738.18-1.078.121-.34.292-.64.516-.898.223-.258.494-.462.81-.613a2.46 2.46 0 011.073-.227c.42 0 .796.087 1.13.263.334.175.611.407.83.695.22.29.38.621.48.996.1.374.126.762.078 1.16h-3.918v.004zm2.744-.774a1.896 1.896 0 00-.12-.537 1.347 1.347 0 00-.68-.758 1.223 1.223 0 00-.543-.119c-.205 0-.393.036-.562.108a1.273 1.273 0 00-.433.3 1.48 1.48 0 00-.29.448 1.549 1.549 0 00-.118.558h2.746zm5.169-2.197h1.104v1.032h.02a1.21 1.21 0 01.2-.423c.1-.137.22-.262.361-.377a1.82 1.82 0 01.47-.273c.171-.068.347-.103.526-.103.137 0 .232.004.283.01.052.007.105.015.16.02v1.136a5.042 5.042 0 00-.253-.035 2.147 2.147 0 00-.253-.016c-.199 0-.387.04-.562.118a1.29 1.29 0 00-.46.35c-.13.156-.233.346-.31.574a2.468 2.468 0 00-.113.784v2.539h-1.175v-5.336h.002zm6.727-2.033h1.175v2.734h.02c.145-.241.36-.442.646-.603.285-.162.603-.243.955-.243.584 0 1.045.151 1.383.455.336.302.505.757.505 1.361v3.662h-1.176v-3.353c-.014-.42-.103-.724-.268-.913-.165-.19-.423-.284-.773-.284-.2 0-.379.036-.537.108a1.155 1.155 0 00-.403.3c-.11.127-.195.277-.258.448a1.594 1.594 0 00-.092.548v3.146h-1.176l-.002-7.366zM61.347 40c-.426 0-.806-.071-1.14-.212a2.42 2.42 0 01-.846-.583 2.468 2.468 0 01-.525-.887 3.413 3.413 0 01-.18-1.136c0-.406.059-.78.18-1.125.12-.344.295-.64.525-.888a2.42 2.42 0 01.846-.582 2.906 2.906 0 011.14-.212c.427 0 .807.07 1.14.212.335.14.616.335.846.582.23.248.407.544.526.888.12.344.18.719.18 1.125 0 .413-.06.791-.18 1.136-.12.344-.296.64-.526.887a2.443 2.443 0 01-.845.583 2.907 2.907 0 01-1.14.212zm0-.928c.262 0 .49-.055.68-.165.194-.11.351-.254.476-.433.123-.18.214-.38.273-.603a2.697 2.697 0 000-1.367 1.84 1.84 0 00-.273-.603 1.451 1.451 0 00-.475-.428 1.344 1.344 0 00-.68-.165c-.262 0-.49.054-.681.165a1.47 1.47 0 00-.475.428 1.84 1.84 0 00-.273.603 2.721 2.721 0 000 1.367c.058.223.15.425.273.603a1.358 1.358 0 001.156.598zm11.453.783h-1.156v-.743h-.02a1.62 1.62 0 01-.645.645 1.758 1.758 0 01-.872.243c-.703 0-1.21-.174-1.522-.52-.313-.347-.47-.873-.47-1.574v-3.384h1.176v3.271c0 .467.09.797.268.99.18.194.43.29.753.29a1.5 1.5 0 00.62-.113c.165-.076.3-.177.403-.305.102-.127.176-.28.222-.46.044-.178.067-.37.067-.577v-3.096H72.8v5.333zm5.22-1.713c.035.344.165.586.393.723.227.137.499.206.815.206.11 0 .235-.01.377-.026.141-.016.273-.05.397-.098a.75.75 0 00.305-.212.505.505 0 00.108-.365.52.52 0 00-.165-.372 1.14 1.14 0 00-.397-.233 3.91 3.91 0 00-.553-.15c-.207-.04-.416-.086-.63-.134a6.008 6.008 0 01-.634-.176 2.059 2.059 0 01-.548-.278 1.3 1.3 0 01-.387-.448 1.43 1.43 0 01-.145-.675c0-.29.07-.531.212-.728.141-.196.32-.354.537-.475a2.33 2.33 0 01.723-.253c.264-.048.518-.072.758-.072.276 0 .538.03.789.088.251.058.478.153.68.283.203.13.371.3.506.51.134.21.218.462.252.758h-1.228c-.054-.282-.184-.47-.387-.567a1.605 1.605 0 00-.696-.145c-.082 0-.18.006-.294.02-.113.014-.22.04-.32.078a.668.668 0 00-.253.165.394.394 0 00-.103.283c0 .145.05.262.15.35.099.09.23.164.392.223.163.058.346.108.553.15.207.041.419.086.64.134.213.048.422.107.63.175.207.069.39.162.552.278.161.117.292.266.392.444.1.179.15.398.15.66 0 .316-.072.585-.217.805-.145.22-.331.399-.563.537a2.584 2.584 0 01-.768.3 3.874 3.874 0 01-1.769-.02 2.179 2.179 0 01-.743-.346 1.671 1.671 0 01-.495-.578 1.826 1.826 0 01-.19-.82h1.174v.001zm8.482-.649c0 .207.029.407.087.598.059.193.146.361.263.506.117.145.264.26.443.345.18.087.393.13.64.13.344 0 .621-.074.83-.223.21-.147.366-.369.47-.665h1.114a2.213 2.213 0 01-.867 1.346 2.343 2.343 0 01-.718.35 2.903 2.903 0 01-.83.119c-.42 0-.791-.069-1.114-.207a2.293 2.293 0 01-.82-.578 2.445 2.445 0 01-.505-.888 3.621 3.621 0 01-.17-1.135c0-.378.06-.738.18-1.078.12-.34.292-.64.515-.898.224-.258.494-.462.81-.613a2.46 2.46 0 011.073-.227c.42 0 .797.087 1.13.263.335.175.611.407.831.695.22.29.38.621.48.996.1.374.126.762.078 1.16h-3.92v.004zm2.744-.774a1.932 1.932 0 00-.118-.537 1.345 1.345 0 00-.68-.758 1.219 1.219 0 00-.543-.119c-.206 0-.394.036-.563.108a1.263 1.263 0 00-.433.3 1.48 1.48 0 00-.29.448 1.55 1.55 0 00-.117.558h2.744z" fill="#C6262D"/><path d="M62.616 26.88V6.091h7.407c1.933 0 3.488.474 4.67 1.42 1.181.947 1.772 2.26 1.772 3.938 0 .976-.225 1.854-.673 2.635a4.713 4.713 0 01-1.845 1.816v.058c1.093.312 1.927.927 2.502 1.845a5.62 5.62 0 01.864 3.045c0 1.972-.683 3.47-2.05 4.494-1.366 1.025-3.074 1.538-5.123 1.538h-7.524zm3.776-12.297h3.66c.8 0 1.43-.249 1.888-.747.459-.498.689-1.136.689-1.917 0-.76-.23-1.38-.689-1.86-.458-.477-1.108-.717-1.946-.717h-3.602v5.24zm0 9.046h4.041c.937 0 1.674-.278 2.21-.834.538-.556.806-1.283.806-2.182 0-.878-.268-1.596-.805-2.152s-1.274-.834-2.211-.834h-4.04v6.002z" fill="#241C12"/></g><defs><clipPath id="clip0_20_9410"><path fill="#fff" d="M0 0h182.857v40H0z"/></clipPath></defs></svg>