<svg width="36" height="36" fill="none" xmlns="http://www.w3.org/2000/svg"><path d="M18 0A15.016 15.016 0 003 15c0 7.923 12.6 18.8 14.031 20.014l.969.82.969-.82C20.4 33.8 33 22.923 33 15A15.017 15.017 0 0018 0zm0 22.5a7.5 7.5 0 117.5-7.5 7.51 7.51 0 01-7.5 7.5z" fill="#C6262D"/><path d="M18 23.625a9 9 0 100-18 9 9 0 000 18z" fill="#fff"/><path d="M20.865 9.652l-.098 1.882-.156-.008c-.727-.038-1.455-.075-2.182-.116a.474.474 0 00-.325.095c-.633.458-1.27.911-1.907 1.366-.025.018-.05.034-.085.057a3.706 3.706 0 01-.634-1.075c-.25-.649-.308-1.325-.293-2.013.004-.161.014-.323.021-.485l5.66.297z" fill="#241C12"/><path d="M18.279 12.006l2.172.114c.004.02.012.041.011.062-.026.476-.05.951-.08 1.427a.403.403 0 01-.06.175c-.178.297-.356.593-.543.884a1.2 1.2 0 00-.199.605c-.052 1.015-.109 2.029-.164 3.043-.069 1.284-.83 2.128-2.1 2.34-.368.06-.735.037-1.102.017l-.586-.03.078-1.474c.18.01.353.02.527.028l.593.031c.567.027.977-.289 1.095-.846a1.76 1.76 0 00.037-.28c.043-.781.083-1.562.124-2.344l.183-3.486.014-.266z" fill="#241C12"/></svg>