<svg width="32" height="32" fill="none" xmlns="http://www.w3.org/2000/svg"><g clip-path="url(#clip0_252_710)"><path d="M4.303 22.216V32H2.48c-1 0-1.814-.814-1.814-1.818v-3.01c0-3.883 3.601-4.93 3.636-4.956zm23.063.044l-.126-.04V32h1.818a1.817 1.817 0 001.818-1.818v-3.01c0-2.219-1.41-4.19-3.51-4.912zM9.36 11.414c-.594-.953-.57-1.763-.263-2.356.192-.373.562-.385.91-.285-.36-1.993-.255-3.923.678-6.178A.969.969 0 0111 2.182c3.423-2.358 7.094-2.79 11-1.37.22.08.285.21.29.426a5.805 5.805 0 01-.752 3.028.801.801 0 00-.08.497c.266 1.452.206 2.893.031 4.023.361-.112.754-.117.954.272.306.593.33 1.403-.263 2.356-.594.952-.309 1.266-.547 1.495-.116.112-.375.194-.612.24-.232 1.966-.75 3.733-1.848 5.325.11.502.27.93.506 1.203 0 .003 0 .003.003.006l2.28.763v3.939a.232.232 0 01-.23.231H9.81a.232.232 0 01-.231-.231v-3.94l2.277-.762c.004-.003.007-.006.007-.013.232-.273.392-.699.502-1.197-1.099-1.592-1.615-3.358-1.848-5.324-.236-.046-.496-.128-.612-.24-.237-.23.047-.543-.546-1.495zm9.592 8.412a3.346 3.346 0 01-.294-.663c-.663.799-1.494 1.551-2.538 2.26-.263.177-.436.177-.698 0-1.045-.709-1.877-1.462-2.539-2.26-.083.25-.179.47-.29.657a3.265 3.265 0 003.183 2.481 3.26 3.26 0 003.176-2.475zm-1.597-3.928c-1.065-.46-2.1-.466-3.169.01.817 1.103 2.461 1.045 3.17-.01zm-6.258-3.556c.006.034.033.183.112.588.54.703 1.254 1.582 1.82 2.062 2.345-.936 3.111-.946 5.484 0 .545-.463 1.226-1.294 1.759-1.983.098-.51.13-.696.155-.836-.072-.702-.135-1.627-.061-2.263-.583-1.524-.414-1.046-.905-3.587-2.48.813-5.002.82-7.56-.02-.091 1.181-.321 2.302-.762 3.368.138.668.046 1.865-.042 2.67zm11.55 12.041a.913.913 0 01-.913.913H9.81a.913.913 0 01-.913-.913v-3.708l-3.914 1.31V32H26.56V21.99l-3.914-1.315v3.708z" fill="#241C12" fill-opacity=".3"/></g><defs><clipPath id="clip0_252_710"><path fill="#fff" d="M0 0h32v32H0z"/></clipPath></defs></svg>