<svg width="32" height="32" fill="none" xmlns="http://www.w3.org/2000/svg"><path d="M23.08 17.127H8.92v-1.113c0-.46.374-.834.833-.834h12.494c.46 0 .834.374.834.834v1.113zM13.543 3.105h1.107v.772h2.703v-.772h1.106c.184 0 .334-.15.334-.334V.334A.334.334 0 0018.457 0h-4.916a.334.334 0 00-.333.334V2.77c0 .184.15.334.333.334zm13.617 9.552h-.017v-.752a.35.35 0 00-.35-.35h-2.686a.35.35 0 00-.351.35v.752h-.014a.282.282 0 00-.282.283v.94c0 .156.126.282.282.282h3.418a.284.284 0 00.283-.283v-.94a.284.284 0 00-.283-.282zM8.541 13.879v-.94a.282.282 0 00-.282-.282h-.014v-.752a.35.35 0 00-.35-.35H5.209a.35.35 0 00-.351.35v.752H4.84a.282.282 0 00-.283.283v.94c0 .156.126.282.283.282h3.418a.282.282 0 00.282-.283zm16.351.964V20.3a1.1 1.1 0 01-1.1 1.1v-2.918c0-.371-.3-.674-.67-.674H8.878a.673.673 0 00-.67.674v2.917a1.1 1.1 0 01-1.1-1.1v-5.456H5.995V20.3c0 1.222.99 2.216 2.213 2.216h15.584a2.216 2.216 0 002.213-2.216v-5.457h-1.113zm-.616 10.706H22.91a.27.27 0 00-.27.269v.156h-.63a1.93 1.93 0 01-1.507-.721 2.437 2.437 0 00-1.893-.913v.511c.582.004 1.13.269 1.494.722a2.441 2.441 0 001.907.912h.63v.153c0 .15.122.27.269.27h1.365a.68.68 0 100-1.36zm-1.78 5.624h-.433l-4.517-1.903h-3.091l-4.518 1.903h-.429a.412.412 0 00-.412.415c0 .228.184.412.412.412h12.987a.411.411 0 00.412-.412.412.412 0 00-.412-.415zm-7.721-7.976v.486h-.409a.296.296 0 00-.296.297v1.235c0 .164.133.296.296.296h.088v3.078h3.091V25.51h.089a.296.296 0 00.296-.296V23.98a.296.296 0 00-.296-.297h-.409v-.486h-2.45zm7.315-8.698H9.913V6.907a2.35 2.35 0 012.35-2.349h7.478a2.35 2.35 0 012.35 2.35v7.59zm-8.935-8.146a.575.575 0 00-1.15 0v6.351a.575.575 0 001.15 0V6.353zm2.28 0a.575.575 0 00-1.15 0v6.351a.575.575 0 001.15 0V6.353zm2.28 0a.575.575 0 00-1.15 0v6.351a.575.575 0 001.15 0V6.353zm2.281 0a.575.575 0 00-1.15 0v6.351a.575.575 0 001.15 0V6.353z" fill="#A09D99"/></svg>