<svg width="32" height="32" fill="none" xmlns="http://www.w3.org/2000/svg"><g clip-path="url(#clip0_252_722)" fill="#241C12" fill-opacity=".3"><path d="M29.486 3.494a1.33 1.33 0 00-1.33-1.33h-2.69V.735a.736.736 0 00-1.471 0v1.429H5.907V.735a.735.735 0 10-1.471 0v1.429h-2.69a1.33 1.33 0 00-1.33 1.33v4.288h29.07V3.494zM5.17 6.48a1.508 1.508 0 01-1.507-1.509 1.5 1.5 0 01.773-1.307v.987a.735.735 0 001.47 0v-.987a1.5 1.5 0 01.773 1.307c0 .835-.675 1.51-1.51 1.51zm19.559 0a1.508 1.508 0 01-1.506-1.509 1.5 1.5 0 01.772-1.307v.987a.735.735 0 001.47 0v-.987a1.5 1.5 0 01.773 1.307c0 .835-.675 1.51-1.51 1.51zm.737 12.602c1.505 0 2.893.497 4.02 1.328V8.462H.416v16.703c0 .731.595 1.33 1.33 1.33h16.952a6.827 6.827 0 01-.032-.614c0-3.749 3.05-6.8 6.8-6.8zm-2.016-7.936c0-.184.15-.333.333-.333h2.322c.183 0 .332.15.332.333v2.225a.332.332 0 01-.332.332h-2.322a.332.332 0 01-.333-.332v-2.225zm0 4.88c0-.183.15-.332.333-.332h2.322c.183 0 .332.149.332.332v2.225a.332.332 0 01-.332.333h-2.322a.332.332 0 01-.333-.333v-2.225zm-4.996-4.88c0-.184.149-.333.332-.333h2.322c.184 0 .333.15.333.333v2.225a.332.332 0 01-.333.332h-2.322a.332.332 0 01-.332-.332v-2.225zM6.45 23.132a.333.333 0 01-.332.332H3.797a.332.332 0 01-.333-.332v-2.225c0-.184.15-.333.333-.333h2.322c.184 0 .332.15.332.333v2.225zm0-4.88a.332.332 0 01-.332.332H3.797a.332.332 0 01-.333-.333v-2.225c0-.183.15-.332.333-.332h2.322c.184 0 .332.149.332.332v2.225zm4.997 4.88a.332.332 0 01-.333.332H8.793a.332.332 0 01-.332-.332v-2.225c0-.184.149-.333.332-.333h2.322c.184 0 .333.15.333.333v2.225zm0-4.88a.332.332 0 01-.333.332H8.793a.332.332 0 01-.332-.333v-2.225c0-.183.149-.332.332-.332h2.322c.184 0 .333.149.333.332v2.225zm0-4.881a.332.332 0 01-.333.332H8.793a.332.332 0 01-.332-.332v-2.225c0-.184.149-.333.332-.333h2.322c.184 0 .333.15.333.333v2.225zm4.996 9.76a.332.332 0 01-.332.333H13.79a.333.333 0 01-.333-.332v-2.225c0-.184.15-.333.333-.333h2.322c.184 0 .332.15.332.333v2.225zm0-4.88a.332.332 0 01-.332.333H13.79a.332.332 0 01-.333-.333v-2.225c0-.183.15-.332.333-.332h2.322c.184 0 .332.149.332.332v2.225zm0-4.88a.332.332 0 01-.332.332H13.79a.332.332 0 01-.333-.332v-2.225c0-.184.15-.333.333-.333h2.322c.184 0 .332.15.332.333v2.225zm2.01 4.88v-2.225c0-.183.149-.332.332-.332h2.322c.184 0 .333.149.333.332v2.225a.332.332 0 01-.333.333h-2.322a.332.332 0 01-.332-.333z"/><path d="M25.466 19.763a6.12 6.12 0 10.001 12.236 6.12 6.12 0 00-.001-12.236zm0 10.998a4.88 4.88 0 110-9.76 4.88 4.88 0 010 9.76z"/><path d="M25.466 22.337a.25.25 0 00-.25.25v3.19l-1.095 1.096a.25.25 0 10.353.353l1.168-1.169a.249.249 0 00.073-.176v-3.294a.25.25 0 00-.25-.25z"/></g><defs><clipPath id="clip0_252_722"><path fill="#fff" d="M0 0h32v32H0z"/></clipPath></defs></svg>