<svg width="20" height="20" fill="none" xmlns="http://www.w3.org/2000/svg"><g clip-path="url(#clip0_215_789)" fill="#C6262D"><path d="M12.96 10.83l-1.676 1.68c-.68.682-1.874.697-2.568 0L7.04 10.83l-6.017 6.036c.224.103.471.165.734.165h16.484c.263 0 .51-.061.733-.165L12.96 10.83z"/><path d="M18.242 2.969H1.758c-.263 0-.51.062-.734.165l6.43 6.45v.001l.001.001 2.09 2.097c.222.223.687.223.91 0l2.09-2.096v-.002h.002l6.428-6.45a1.74 1.74 0 00-.733-.166zM.187 3.954A1.736 1.736 0 000 4.727v10.546c0 .28.071.54.187.773L6.214 10 .187 3.954zm19.627 0L13.787 10l6.027 6.047a1.74 1.74 0 00.187-.774V4.728c0-.279-.071-.54-.187-.773z"/></g><defs><clipPath id="clip0_215_789"><path fill="#fff" d="M0 0h20v20H0z"/></clipPath></defs></svg>