<svg width="20" height="20" fill="none" xmlns="http://www.w3.org/2000/svg"><g clip-path="url(#clip0_215_2113)"><path d="M9.999 0c-5.523 0-10 4.477-10 10s4.477 10 10 10c5.522 0 10-4.477 10-10s-4.478-10-10-10zm1.15 13.322c-.925 0-1.795-.5-2.093-1.068 0 0-.497 1.973-.602 2.354-.37 1.346-1.462 2.693-1.547 2.803-.059.077-.19.053-.203-.049-.023-.171-.302-1.87.026-3.255l1.1-4.668s-.273-.547-.273-1.355c0-1.27.736-2.218 1.652-2.218.78 0 1.155.585 1.155 1.287 0 .783-.498 1.954-.755 3.04-.215.908.455 1.649 1.351 1.649 1.623 0 2.716-2.084 2.716-4.555 0-1.877-1.264-3.282-3.564-3.282-2.598 0-4.218 1.938-4.218 4.102 0 .746.22 1.273.565 1.68.158.187.181.263.123.478-.041.157-.135.537-.174.687-.057.217-.233.294-.43.214-1.196-.488-1.753-1.799-1.753-3.272 0-2.434 2.052-5.351 6.122-5.351 3.27 0 5.423 2.366 5.423 4.907 0 3.361-1.868 5.872-4.622 5.872z" fill="#C6262D"/></g><defs><clipPath id="clip0_215_2113"><path fill="#fff" d="M0 0h20v20H0z"/></clipPath></defs></svg>