<svg width="20" height="20" fill="none" xmlns="http://www.w3.org/2000/svg"><g clip-path="url(#clip0_215_190)" fill="#C6262D"><path d="M17.07 0H2.93A2.933 2.933 0 000 2.93v14.14A2.933 2.933 0 002.93 20h6.485v-7.11H7.266v-4.1h2.149V6.444A3.52 3.52 0 0112.93 2.93h3.32v4.1h-2.734v1.76h2.863l-.82 4.102h-2.043V20h3.555A2.933 2.933 0 0020 17.07V2.93A2.933 2.933 0 0017.07 0z"/><path d="M14.95 9.96h-2.606v-4.1h2.735V4.101H12.93a2.346 2.346 0 00-2.344 2.343V9.96H8.438v1.758h2.148V20h1.758v-8.281h2.254l.352-1.758z"/></g><defs><clipPath id="clip0_215_190"><path fill="#fff" d="M0 0h20v20H0z"/></clipPath></defs></svg>