<svg width="20" height="20" fill="none" xmlns="http://www.w3.org/2000/svg"><g clip-path="url(#clip0_215_3363)" fill="#C6262D"><path d="M8.66 8.195v3.59l3.15-1.795-3.15-1.795z"/><path d="M19.587 5.28a2.952 2.952 0 00-2.078-2.09c-1.5-.405-6.898-.417-7.508-.417-.611 0-6.01.012-7.509.416A2.952 2.952 0 00.414 5.28C.005 6.813 0 9.861 0 9.99c0 .13.005 3.177.414 4.71a2.952 2.952 0 002.078 2.09c1.5.405 6.898.417 7.509.417.61 0 6.008-.012 7.508-.416a2.952 2.952 0 002.078-2.09c.409-1.534.413-4.582.413-4.71 0-.13-.004-3.178-.413-4.711zM7.488 13.8V6.179L14.18 9.99l-6.692 3.811z"/></g><defs><clipPath id="clip0_215_3363"><path fill="#fff" d="M0 0h20v20H0z"/></clipPath></defs></svg>