<svg width="32" height="32" fill="none" xmlns="http://www.w3.org/2000/svg"><g clip-path="url(#clip0_66_5550)"><path d="M28.552 0H3.448A3.452 3.452 0 000 3.448v19.08a3.452 3.452 0 003.448 3.447h14.76v-3.95a5.832 5.832 0 015.825-5.825 5.832 5.832 0 015.825 5.825v3.692A3.453 3.453 0 0032 22.527V3.447A3.452 3.452 0 0028.552 0zM8.971 4.083h14.058a.938.938 0 010 1.875H8.971a.938.938 0 010-1.875zm6.158 16.871H4.954a.938.938 0 010-1.875H15.13a.937.937 0 110 1.875zm11.917-6.962H4.954a.938.938 0 010-1.875h22.092a.937.937 0 110 1.875zm0-4.017H4.954a.938.938 0 010-1.875h22.092a.937.937 0 110 1.875z" fill="#E0E0E0"/><path d="M24.034 18.075a3.954 3.954 0 00-3.95 3.95 3.954 3.954 0 003.95 3.95 3.954 3.954 0 003.95-3.95 3.954 3.954 0 00-3.95-3.95zm-3.95 8.227v4.76a.937.937 0 001.457.78l2.493-1.661 2.492 1.662a.937.937 0 001.458-.78v-4.761a5.803 5.803 0 01-3.95 1.548 5.803 5.803 0 01-3.95-1.548z" fill="#C6262D"/></g><defs><clipPath id="clip0_66_5550"><path fill="#fff" d="M0 0h32v32H0z"/></clipPath></defs></svg>