<svg width="32" height="32" fill="none" xmlns="http://www.w3.org/2000/svg"><g clip-path="url(#clip0_66_5544)"><path d="M31.374 8.022L16.312 2.708a.937.937 0 00-.624 0L.626 8.022A.938.938 0 00.624 9.79l15.062 5.354a.938.938 0 00.628 0L31.377 9.79a.938.938 0 00-.003-1.768z" fill="#E0E0E0"/><path d="M29.748 20.536v-8.178l-1.875.667v7.51a1.882 1.882 0 000 3.266v4.607a.938.938 0 001.875 0v-4.607a1.882 1.882 0 000-3.265z" fill="#C6262D"/><path d="M16.002 17.073c-.322 0-.64-.054-.942-.162l-8.468-3.01v4.125c0 1.01 1.053 1.863 3.13 2.537 1.81.588 4.04.911 6.28.911s4.47-.323 6.28-.91c2.076-.675 3.13-1.529 3.13-2.538v-4.125l-8.468 3.01c-.304.108-.62.162-.942.162z" fill="#E0E0E0"/></g><defs><clipPath id="clip0_66_5544"><path fill="#fff" d="M0 0h32v32H0z"/></clipPath></defs></svg>