<svg width="32" height="32" fill="none" xmlns="http://www.w3.org/2000/svg"><path d="M13.188 16.938h5.624v1.875h-5.625v-1.875z" fill="#C6262D"/><path d="M25.961 18.813h-5.273v.937c0 .518-.42.938-.938.938h-7.5a.937.937 0 01-.938-.938v-.938H6.04a2.81 2.81 0 01-2.67-1.922L0 6.776V27.25a2.816 2.816 0 002.813 2.813h26.375A2.816 2.816 0 0032 27.25V6.776L28.629 16.89a2.809 2.809 0 01-2.668 1.922z" fill="#E0E0E0"/><path d="M19.748 1.938h-7.5A2.816 2.816 0 009.436 4.75v.938H1.61l3.536 10.609c.128.383.486.64.89.64h5.274V16c0-.518.42-.938.937-.938h7.5c.518 0 .938.42.938.938v.938h5.273a.937.937 0 00.89-.641l3.537-10.61H22.56V4.75a2.816 2.816 0 00-2.813-2.813zm-8.437 3.75V4.75c0-.517.42-.938.937-.938h7.5c.518 0 .938.42.938.938v.938H11.31z" fill="#E0E0E0"/><g clip-path="url(#clip0_66_5580)"><path d="M19.748 1.938h-7.5A2.816 2.816 0 009.436 4.75v.938H1.61l3.536 10.609c.128.383.486.64.89.64h5.274V16c0-.518.42-.938.937-.938h7.5c.518 0 .938.42.938.938v.938h5.273a.937.937 0 00.89-.641l3.537-10.61H22.56V4.75a2.816 2.816 0 00-2.813-2.813zm-8.437 3.75V4.75c0-.517.42-.938.937-.938h7.5c.518 0 .938.42.938.938v.938H11.31z" fill="#C6262D"/></g><defs><clipPath id="clip0_66_5580"><path fill="#fff" transform="translate(2 1.808)" d="M0 0h28v3.883H0z"/></clipPath></defs></svg>