<svg width="32" height="32" fill="none" xmlns="http://www.w3.org/2000/svg"><path d="M16 32c8.822 0 16-7.178 16-16S24.822 0 16 0 0 7.178 0 16s7.178 16 16 16zM5.568 23.9c1.268-.5 2.864-.897 4.658-1.169.244 1.462.567 2.818.966 4.014.208.627.428 1.18.655 1.67A13.144 13.144 0 015.568 23.9zM2.91 16c0-1.915.413-3.735 1.155-5.375 1.573.673 3.56 1.194 5.799 1.53A44.099 44.099 0 009.697 16c0 1.313.057 2.602.166 3.844-2.239.337-4.226.858-5.799 1.531A13.015 13.015 0 012.91 16zM16 2.91c.314 0 1.227.797 2.05 3.265.338 1.014.616 2.164.83 3.41a41.38 41.38 0 01-5.758 0 23.48 23.48 0 01.83-3.41c.823-2.468 1.736-3.266 2.049-3.266zm0 9.684c1.109 0 2.195-.04 3.247-.118A41.42 41.42 0 0119.394 16c0 1.208-.05 2.39-.148 3.524a44.2 44.2 0 00-6.492 0A41.418 41.418 0 0112.606 16c0-1.208.05-2.39.148-3.524 1.052.077 2.138.118 3.245.118zM29.091 16c0 1.915-.414 3.735-1.155 5.375-1.573-.673-3.56-1.194-5.8-1.53.11-1.243.167-2.532.167-3.845 0-1.313-.057-2.602-.166-3.844 2.238-.337 4.226-.858 5.799-1.532A13.014 13.014 0 0129.09 16zM16 29.09c-.313 0-1.226-.797-2.049-3.265a23.497 23.497 0 01-.83-3.41 41.284 41.284 0 015.758 0 23.494 23.494 0 01-.83 3.41c-.823 2.468-1.736 3.266-2.05 3.266zm4.153-.675c.227-.49.446-1.043.655-1.67.399-1.196.722-2.552.966-4.014 1.794.272 3.39.67 4.658 1.168a13.145 13.145 0 01-6.28 4.516zM26.43 8.101c-1.267.498-2.863.896-4.657 1.168-.244-1.463-.567-2.818-.966-4.014a16.118 16.118 0 00-.655-1.67A13.146 13.146 0 0126.43 8.1zM11.847 3.585a16.143 16.143 0 00-.655 1.67c-.399 1.196-.722 2.552-.966 4.014-1.794-.272-3.39-.67-4.658-1.168a13.144 13.144 0 016.28-4.516z" fill="#E0E0E0"/><mask id="path-2-outside-1_66_5576" maskUnits="userSpaceOnUse" x="11.984" y="10" width="9" height="13" fill="#000"><path fill="#fff" d="M11.984 10h9v13h-9z"/><path d="M18.014 12v1.34h-.11c-.518 0-1.037.001-1.554-.001a.337.337 0 00-.227.08c-.433.349-.869.694-1.304 1.04l-.058.044a2.634 2.634 0 01-.49-.74c-.202-.45-.269-.93-.283-1.418-.004-.115-.002-.23-.004-.345h4.03z"/><path d="M16.264 13.768h1.548c.003.014.01.029.01.043-.001.34-.001.678-.005 1.017a.285.285 0 01-.036.127c-.114.217-.23.434-.352.648a.854.854 0 00-.119.437c.001.722-.002 1.444-.003 2.167-.001.914-.51 1.542-1.405 1.74-.258.056-.52.053-.781.053h-.417v-1.05h.796c.404-.001.684-.24.747-.64.01-.067.016-.134.016-.201v-4.341z"/></mask><path d="M18.014 12v1.34h-.11c-.518 0-1.037.001-1.554-.001a.337.337 0 00-.227.08c-.433.349-.869.694-1.304 1.04l-.058.044a2.634 2.634 0 01-.49-.74c-.202-.45-.269-.93-.283-1.418-.004-.115-.002-.23-.004-.345h4.03z" fill="#C6262D"/><path d="M16.264 13.768h1.548c.003.014.01.029.01.043-.001.34-.001.678-.005 1.017a.285.285 0 01-.036.127c-.114.217-.23.434-.352.648a.854.854 0 00-.119.437c.001.722-.002 1.444-.003 2.167-.001.914-.51 1.542-1.405 1.74-.258.056-.52.053-.781.053h-.417v-1.05h.796c.404-.001.684-.24.747-.64.01-.067.016-.134.016-.201v-4.341z" fill="#C6262D"/><path d="M18.014 12h2a2 2 0 00-2-2v2zm0 1.34v2a2 2 0 002-2h-2zm-1.664-.001l.008-2-.008 2zm-.227.08l1.256 1.556.001-.002-1.257-1.555zm-1.304 1.04l1.233 1.576a1.27 1.27 0 00.013-.011l-1.246-1.565zm-.058.044l-1.458 1.37a2 2 0 002.65.237l-1.192-1.607zm-.49-.74l1.826-.813v-.002l-1.827.815zm-.283-1.418l-2 .06 2-.06zM13.984 12v-2a2 2 0 00-2 2.02l2-.02zm2.28 1.768v-2a2 2 0 00-2 2h2zm1.548 0l1.946-.461a2 2 0 00-1.946-1.54v2zm.01.043l2 .003v-.003h-2zm-.005 1.017l-2-.022v.004l2 .018zm-.036.127l-1.763-.943-.005.008 1.768.935zm-.352.648l1.736.993-1.736-.993zm-.119.437l2-.004v-.001l-2 .005zm-.003 2.167l-2-.003 2 .003zm-1.405 1.74l.43 1.952h.002l-.432-1.953zm-.781.053l-.006 2h.003l.002-2zm-.417 0h-2a2 2 0 002 2v-2zm0-1.05v-2a2 2 0 00-2 2h2zm.797 0l.006 2h.004l-.01-2zm.747-.64l-1.975-.317v.005l1.975.311zm.016-.201l-2-.004v.004h2zm0-4.151h-2 2zM16.014 12v1.34h4V12h-4zm2-.66h-.111v4h.112v-4zm-.11 0h-1.546l-.017 3.999c.523.002 1.05.001 1.562.001v-4zm-1.546 0a2.335 2.335 0 00-1.493.523l2.515 3.11a1.648 1.648 0 01-1.039.366l.017-4zm-1.491.522c-.427.344-.854.683-1.294 1.033l2.492 3.129c.43-.343.874-.695 1.314-1.05l-2.512-3.112zm-1.28 1.022l.013-.01-.01.008-.021.015 2.383 3.213.013-.01.02-.014.067-.051-2.465-3.15zm2.63.25a.636.636 0 01-.12-.184l-3.654 1.627c.21.47.494.907.86 1.296l2.915-2.74zm-.12-.186c-.053-.118-.1-.306-.11-.663l-3.998.12c.018.62.105 1.39.455 2.174l3.653-1.63zm-.11-.662c-.003-.092-.001-.135-.003-.306l-4 .04c.001.06 0 .246.005.384l3.998-.118zM13.984 14h4.03v-4h-4.03v4zm2.28 1.768h1.548v-4h-1.548v4zm-.399-1.54c.015.062.03.11.033.122l-.007-.022a1.922 1.922 0 01-.07-.517h4a2.06 2.06 0 00-.077-.56l-.013-.043c.001.003.014.045.027.099l-3.893.922zm-.044-.419c0 .343 0 .67-.004.997l4 .044c.004-.351.004-.701.004-1.036l-4-.005zm-.004 1.001a1.76 1.76 0 01.2-.798l3.528 1.886c.122-.227.268-.593.272-1.052l-4-.036zm.196-.79c-.115.219-.217.409-.32.59l3.472 1.985c.14-.245.27-.49.384-.705l-3.536-1.87zm-.32.59a2.853 2.853 0 00-.383 1.434l4-.01a1.167 1.167 0 01-.145.562l-3.472-1.986zm-.383 1.433c.001.718-.002 1.43-.003 2.16l4 .007c.001-.715.004-1.447.003-2.174l-4 .007zm-.003 2.161c0 .044-.006.044.004.015a.424.424 0 01.073-.131.416.416 0 01.11-.097c.024-.014.022-.008-.023.002l.863 3.906c.811-.179 1.59-.59 2.161-1.296.572-.708.811-1.558.812-2.394l-4-.005zm.165-.21c.014-.004.003 0-.056.003-.07.003-.143.003-.293.003l-.005 4c.205 0 .7.013 1.215-.1l-.861-3.907zm-.346.006h-.422v4h.411l.011-4zm1.578 2v-1.05h-4V20h4zm-2 .95h.376v-4h-.376v4zm.375 0h.428l-.01-4h-.418v4zm.432 0a2.754 2.754 0 001.794-.653 2.76 2.76 0 00.918-1.676l-3.95-.623c.03-.197.143-.492.426-.736a1.25 1.25 0 01.793-.311l.019 4zm2.712-2.325c.027-.172.04-.344.04-.516h-4a.78.78 0 01.01-.116l3.95.632zm.04-.512c.002-.559.001-1.119.001-1.673h-4v1.665l4 .008zm.001-1.673v-2.482h-4v2.482h4zm0-2.482v-.19h-4v.19h4z" fill="#fff" mask="url(#path-2-outside-1_66_5576)"/></svg>